<?xml version="1.0" encoding="utf-8"?>
<!-- Generator: Adobe Illustrator 24.3.0, SVG Export Plug-In . SVG Version: 6.00 Build 0)  -->
<svg version="1.1" id="Layer_1" xmlns="http://www.w3.org/2000/svg" xmlns:xlink="http://www.w3.org/1999/xlink" x="0px" y="0px"
	 viewBox="0 0 150 150" style="enable-background:new 0 0 150 150;" xml:space="preserve">
<style type="text/css">
	.st0{fill:#075CAA;}
</style>
<g>
	<path class="st0" d="M69.8,149.4c-1.4-0.2-2.8-0.4-4.3-0.6c-1.4-0.2-2.4-0.9-2.7-2.2c-0.4-1.6-0.7-3.2-0.8-4.8
		c-0.1-2.9,0-5.9-0.1-8.9c0-0.7-0.1-1.3-0.2-2c-5.7-0.6-7.9-2.7-9.1-8.3c-0.7-3.2-0.8-6.3,0-9.5c0.4-1.5,1.1-2.8,1.7-4.3
		c-1.9-0.2-3.9-0.5-6.1-0.8c0.1,1.6,0.1,3.1,0.3,4.6c0,0.3,0.4,0.6,0.6,0.9c1.2,1,1.7,2.3,1.3,3.8c-0.4,1.5-0.9,3-1.5,4.4
		c-1.3,2.8-1.2,5.5,0.4,8.2c0.9,1.6,2,3.1,2.9,4.7c1.6,2.8,1.4,4.2-0.7,6.6c-0.3,0.3-0.5,0.8-0.6,1.3c-0.3,2.4-1.6,3.9-3.8,4.7
		c-1.2,0.4-2.5,0.8-3.8,0.9c-7.4,0.5-14.7,0.2-22-0.4c-0.8-0.1-1.6,0-2.5-0.2c-1.5-0.2-2.7-0.8-3.1-2.4c-0.4-1.6,0.4-2.6,1.6-3.4
		c2.8-1.6,5.6-3.2,8.5-4.8c-1-2.1,0.3-3.9,1.9-5.4c2-2,2.4-4.4,1.6-6.9c-0.2-0.8-0.8-1.4-1.2-2.1c-0.4-0.6-1-1.1-1.4-1.7
		c-1.7-2.5-1.1-4,2-4.7c0-3.2-0.1-6.5,0-9.8c0-1.6,0.4-3.3,0.4-4.9c0.1-1.3-0.2-2.7,0-3.9c0.2-1.4,0.5-3,1.3-4.2
		c2.7-3.8,6.7-5.6,11-7c5.8-1.8,12-2.5,17.1-6.2c0.7-0.5,1-1,1.1-1.9c0.6-8.5,1.3-17,2-25.5c0.1-0.7,0.2-1.5,0.5-2.1
		c0.4-0.9,0.5-1.8-0.3-2.3c-0.7-0.5-1.7-1-2.5-0.9c-1,0.1-2,0.7-2.9,1.1c-0.3,0.1-0.6,0.3-0.9,0.5c-3.5,2.1-6,2.2-9.5-2.1
		c-2.8-3.5-3.8-7.7-4.5-12.1c-0.6-4.4-0.7-8.8,0.3-13.1c0-0.1,0-0.3-0.1-0.5c-0.8-0.3-1.5-0.5-2.3-0.9c-3.5-1.7-4.6-5.4-2.5-8.7
		c0.8-1.2,1.9-2.3,3.2-3.1c7.7-4.8,15.8-5.6,24.3-2.5c0.2,0.1,0.4,0.1,0.7,0.2c0.4-2.7,1.5-4.9,4.4-5.3c2-0.3,2.9,1.2,3.6,2.7
		c0.1,0,0.2,0.1,0.2,0.1c2.3-0.8,4-0.6,5.1,0.7c1,1.2,0.8,3.2-0.5,5.1c-0.9,1.3-2.1,2.4-3.2,3.6c3.1,2.7,5.1,6,5.9,10.1
		c0.8,4,0.4,7.8-1.7,11.3c-1.4,2.4-3.1,3.3-5.9,3.6c0.5,1.3,1,2.5,1.6,3.7c0.1,0.2,0.5,0.5,0.7,0.5c3.8,0,6.6,2.1,8.7,4.9
		c2.2,2.9,4.1,6,5.8,9.2c2.9,5.7,5,11.8,5.6,18.2c0.4,4.2,0.1,8.5-0.2,12.7c-0.3,3.6-1.1,7.1-2,10.7c-0.4,1.7-0.8,3.6-3,4
		c-0.1,0-0.3,0.3-0.4,0.4c-0.7,1.1-1.4,2.3-2.2,3.6c5.5-0.3,11.1-0.5,16.8-0.8c0-1,0.1-2,0-3c-0.5-8.3-1.1-16.6-1.6-24.9
		c-0.2-4.1-0.1-8.1-0.1-12.2c0-3.2,1.9-5.3,4.7-6.3c2.4-0.8,4.8-1.4,7.3-1.7c3-0.3,6.1-0.5,9.1,0c7,1.2,10.8,6.2,10.6,13.7
		c-0.2,8.6-0.3,17.1-0.9,25.7c-0.3,5.5-0.9,11.1-2.1,16.5c-1.6,7.3-5.9,12.7-13.5,14.9c-1.3,0.4-2.6,0.6-4.1,0.9c0,1.2,0,2.4,0,3.7
		c0,2.9,0,5.8,0.1,8.7c0.1,5-2.7,8-7.8,8.1c-4.5,0.1-9.1,0.1-13.6,0.1c-0.6,0-1.2,0.1-1.9,0.2C83.7,149.4,76.7,149.4,69.8,149.4z
		 M111.6,128.7c-1.8,0.1-3.5,0.3-5.3,0.2c-0.5,0-1.3-0.6-1.4-1c-0.2-0.9,0.7-0.9,1.4-1c2.5-0.2,5-0.2,7.5-0.6
		c6.8-1,12.2-4.2,14.7-10.9c1-2.6,1.6-5.5,1.9-8.3c0.7-6.3,1.1-12.7,1.6-19.1c0.5-6.6,0.8-13.1-0.1-19.7c-0.8-5.8-3.1-8.6-8.4-9.5
		c-5-0.8-10.1-0.2-14.9,1.4c-3.2,1.1-4.7,3.9-4.2,7.3c0.1,0.5,0.1,1,0.2,1.4c0.6,12,1.2,24,1.9,35.9c0.1,1.4-0.2,2.2-1.7,2.1
		c-0.4,0-0.8,0.1-1.2,0.1c-9.7,0.4-19.3,0.8-29,1.3c-5.2,0.3-10.4,0.6-15.6,1.1c-2.6,0.2-3.8,1.4-4.3,3.9c-0.6,3.4-0.6,6.8,0.3,10.2
		c0.9,3.5,3.4,5.3,6.7,5c2.3-0.2,4.5-0.5,6.8-0.7c3.9-0.4,7.7-0.7,11.6-1c0.4,0,1.2,0.5,1.3,0.8c0.2,0.9-0.5,1.1-1.2,1.2
		c-2,0.2-4,0.4-6.1,0.6c-3.4,0.3-6.7,0.6-9.8,0.9c0,4.2-0.1,8.2,0,12.2c0.2,4.1,0.5,4.3,4.5,4.3c10.5,0,20.9,0,31.4-0.1
		c2.5,0,4.9,0,7.4-0.2c2.9-0.3,4.4-2.2,4.4-5.2c0-3.9-0.1-7.7-0.1-11.6C111.7,129.6,111.7,129.2,111.6,128.7z M61.8,77.3
		c0.7-0.6,1.1-0.9,1.5-1.2c5.9-5.6,9.3-12.5,10.5-20.5c0.1-0.8-0.2-2.2,1.2-2c1.5,0.2,0.9,1.6,0.8,2.4c-2.2,13.8-9.6,23.6-22.6,28.9
		c-2.5,1-5.2,1.6-7.9,2.4c0.8,1.8,1.7,3.6,2.5,5.5c0.4,1,0.9,1.3,1.9,1.2c9-0.6,17-3.9,24-9.6c4.2-3.3,7.5-7.4,10.1-12.1
		c0.4-0.8,0.9-1.6,1.8-0.8c0.3,0.3,0.2,1.3,0,1.8c-2.6,4.9-6,9-10.3,12.4c-2.5,2-5.2,3.7-7.9,5.6c7.6,2.7,15.2,5.4,22.8,8.2
		c0.2-0.6,0.4-1.1,0.6-1.5c2.9-8.2,3.6-16.6,2.3-25.2c-1.5-9.8-5.5-18.5-12-26c-2.7-3-5.1-3.4-8.6-1.4c-2,1.1-4,2.3-6.1,3.4
		c-1.5,0.9-2.5,2.2-2.6,4c-0.5,6.3-1,12.6-1.5,18.9C62.1,73.5,62,75.2,61.8,77.3z M31.3,99.9c-0.2,5.1-0.4,10.5-0.7,16
		c0.8,0.1,1.2,0.2,1.6,0.3c4.1,0.2,8.1-0.3,11.9-1.8c2.2-0.8,2.1-0.9,2.1-3.2c0-0.7-0.1-1.5,0-2.2c0.1-1.2-0.4-1.6-1.5-1.8
		c-1.6-0.3-3.1-0.5-4.7-1c-0.5-0.2-1.3-1-1.3-1.4c0.2-1,1.1-0.7,1.9-0.6c5.6,0.9,11.1,2.3,16.7,2.6c7.3,0.3,14.6-0.3,21.9-0.5
		c0.8,0,1.5-0.1,2.3-0.3c3-0.6,5.3-2,6.4-5.1c-0.2-0.1-0.5-0.2-0.7-0.3c-7.4-2.7-14.8-5.3-22.2-8c-0.5-0.2-1.2,0-1.8,0.1
		c-4.1,1-8.2,2.2-12.3,3.1c-1.3,0.3-3,0.1-4-0.5c-1-0.6-1.6-0.5-2.5-0.2C40.3,96.8,36.1,98.2,31.3,99.9z M54.8,6
		c-1.5,0.2-3.1,0.2-4.6,0.5c-3.4,0.6-6.6,1.9-9.4,3.9c-0.5,0.3-0.9,0.7-1.3,1.1c-2.3,2.4-1.9,5,1,6.5c3.2,1.7,6.7,1.9,10.2,1.6
		c2.6-0.2,5.2-0.7,7.7-1c0.7-0.1,1.7,0.1,2,0.6c0.4,0.5,0.2,1.4,0.2,2.2c0,0.4-0.5,0.7-0.6,1.1c-0.7,2.2-1.3,4.4-1.8,6.6
		c-0.1,0.6,0.3,1.8,0.7,2c0.6,0.2,1.7-0.1,2.2-0.6c1.3-1.4,2.5-3.1,3.7-4.6c0.4-0.5,1-0.8,1.5-1.3c0.3,0.6,0.8,1.1,0.9,1.7
		c0.4,2.4,0.8,4.8,2.2,6.8c2.1,3,5.4,3.2,7.5,0.2c0.7-1,1.4-2.2,1.6-3.4c1.1-5.7,0.2-10.9-4.4-15c-0.5-0.5-1.1-1-1.6-1.5
		c-1.2-1.2-1-1.4,0.2-2.4c1.5-1.2,2.7-2.7,3.9-4.1c0.3-0.4,0-1.3,0-2c-0.7,0.1-1.7-0.1-2.1,0.2c-0.9,0.7-1.4,1.8-2.2,2.6
		c-0.3,0.4-1,0.5-1.5,0.7c-0.1-0.5-0.4-1-0.3-1.5c0.1-0.8,0.5-1.5,0.6-2.3c0.2-1.1-0.2-2-1.4-2.2c-1.1-0.1-1.8,0.6-2.1,1.6
		c-0.2,0.9-0.2,1.8-0.4,2.7c-0.2,1.6-0.7,2-2.2,1.3C61.9,6.8,58.5,6,54.8,6z M44,21.3c-1.2,6.1-1,12,0.7,17.8c0.9,3,2.1,5.7,4.5,7.8
		c1.4,1.1,2.8,1.5,4.4,0.6c0.9-0.5,1.9-1,2.8-1.5c3.7-1.9,5.1-1.6,7.7,1.6c0.1,0.1,0.2,0.1,0.2,0.1c2.8-1.6,5.6-3.1,8.5-4.7
		c-0.8-1.8-1.5-3.5-2.2-5.2c-0.2-0.4-0.4-0.8-0.8-1c-2.3-1.5-3.5-3.8-4.1-6.4c-0.1-0.3-0.2-0.7-0.2-0.7c-1.7,1.3-3.3,2.7-5.2,3.7
		c-2,1.1-3.4,0.2-4-2c-0.1-0.5-0.2-1-0.2-1.6c-0.1-3.1,0.8-6,2.4-8.9C53.6,22,48.9,22.1,44,21.3z M27.9,118c0.2,0.6,0.2,0.8,0.3,1
		c2.6,3.4,5.3,6.6,9.5,7.9c1.4,0.5,2.9,0.7,4.3,1.2c0.4,0.1,0.8,0.4,0.9,0.8c0.1,0.3-0.1,0.9-0.3,1c-0.4,0.2-1,0.2-1.5,0.2
		c-3.3-0.5-6.4-1.8-8.8-3.6c-0.9,1.9-1.6,3.8-2.6,5.6c-0.4,0.7-1.1,1.2-1.6,1.9c-1,1.4-0.7,2.1,1,2.4c2.3,0.5,4.7,0.8,7,1.2
		c4.1,0.7,8.2,1.4,12.3,2.1c1.6,0.3,2.5-0.5,2.4-2.2c-0.1-1.8-0.9-3.2-2.1-4.4c-0.5,0.3-1,0.5-1.5,0.7c-4.5,1.8-9,1.9-13.5,0
		c-0.5-0.2-1.1-1-1-1.4c0.2-0.9,1-0.7,1.8-0.5c1.3,0.4,2.7,0.9,4,1.1c3.1,0.4,6.1-0.1,8.9-1.6c-1.8-4.2-1.9-6.4-0.5-10.5
		c0.3-1,0.9-1.9,1.1-2.8c0.2-0.8,0.1-1.7,0.1-2.5c-0.7,0.1-1.5,0.1-2.2,0.3c-5.2,2.2-10.6,3.1-16.3,2.1
		C29.2,117.9,28.7,118,27.9,118z M48.9,141.9c-5.4-0.9-10.7-1.9-16-2.7c-1.7-0.3-3.6-0.9-5.1-0.4c-2.8,0.8-5.4,2.2-8,3.5
		c-0.8,0.4-1.4,1.4-2.1,2c0.9,0.3,1.8,0.8,2.7,0.9c4.3,0.4,8.6,0.6,12.9,0.9c4.3,0.2,8.6,0,12.8-1.1
		C47.7,144.6,48.6,143.6,48.9,141.9z M45.4,92.7c-0.6-1.4-1.3-2.6-1.7-3.8c-0.3-0.8-0.8-1-1.6-0.8c-4.6,0.9-8.2,3.3-10.6,7.4
		c-0.3,0.4-0.2,1.1-0.3,1.6c0.5,0,1.1,0.3,1.6,0.1C37,95.7,41.1,94.3,45.4,92.7z"/>
	<path class="st0" d="M97.6,45.7c-2.1,0-4.1,0-6.1,0c-1,0-1.7-0.3-1.3-1.4c1.2-4.4,2.5-8.7,3.7-13.1c0,0,0-0.1,0-0.1
		c1-2.7,1-2.6,3.8-2.2c3.5,0.5,7.1,1,10.6,1.5c0.5,0.1,1,0.2,1.4,0.3c1.2,0.3,1.5,1,1,2c-1,2-2.1,3.9-3.2,5.9
		c-0.1,0.2-0.2,0.4-0.4,0.8c1.3,0.9,2.7,1.8,4,2.8c1.3,0.9,1.4,1.4,0.2,2.5c-4.9,4.9-9.7,9.8-14.7,14.7c-0.4,0.4-1.1,0.5-1.7,0.7
		c-0.1-0.6-0.5-1.2-0.3-1.8c0.9-3.9,1.9-7.8,2.8-11.7C97.6,46.2,97.6,45.9,97.6,45.7z M92.5,43.3c2,0,3.7,0,5.5,0
		c1.9,0,2.3,0.5,1.9,2.4c-0.2,0.9-0.5,1.9-0.8,2.8c-0.6,2.2-1.1,4.4-1.7,6.5c4-3.9,7.9-7.8,11.9-11.7c-1-0.7-2-1.4-3.1-2.1
		c-1.8-1.3-1.9-1.7-0.8-3.5c1-1.6,1.9-3.3,3-5.1c-4.2-0.7-8.2-1.3-12.3-1.9C95,35,93.8,39.2,92.5,43.3z"/>
	<path class="st0" d="M122.4,43.3c0.7,0.5,1.2,0.9,1.6,1.3c-0.5,0.4-0.8,0.9-1.4,1.1c-2.2,0.9-4.4,1.6-6.6,2.5
		c-0.7,0.3-1.4,0.6-1.7-0.3c-0.1-0.4,0.4-1.3,0.8-1.5C117.5,45.3,119.9,44.3,122.4,43.3z"/>
	<path class="st0" d="M115.6,52c-0.2-0.2-0.8-0.5-0.8-0.9c0-0.4,0.4-1.1,0.7-1.2c2.1-0.4,4.3-0.8,6.4-1.1c0.3,0,1,0.5,1,0.8
		c0,0.4-0.4,1.1-0.7,1.2C120.1,51.3,118,51.6,115.6,52z"/>
	<path class="st0" d="M44.7,67.3c0.4,0.3,0.8,0.4,1.1,0.7c1.4,1.1,2.8,2.2,4.1,3.5c0.4,0.3,0.3,1.1,0.4,1.7c-0.5,0-1.2,0.2-1.6-0.1
		c-1.5-1.2-3-2.4-4.5-3.7c-0.3-0.2-0.4-0.8-0.3-1.2C43.9,67.8,44.4,67.6,44.7,67.3z"/>
	<path class="st0" d="M45,77.2c0.2,0.3,0.8,0.6,0.8,1c0,0.4-0.4,1-0.8,1.1c-1.8,0.5-3.6,0.8-5.4,1.1c-0.4,0.1-0.9-0.5-1.3-0.8
		c0.3-0.4,0.5-1,0.8-1.1C41.1,78,42.9,77.6,45,77.2z"/>
	<path class="st0" d="M46.8,76.6c-1.6-0.5-3.1-0.8-4.5-1.3c-0.3-0.1-0.7-0.9-0.6-1.1c0.2-0.4,0.8-0.8,1.2-0.8
		c1.4,0.3,2.8,0.6,4.2,1.1c0.3,0.1,0.6,0.8,0.6,1.2C47.6,76.1,47.1,76.4,46.8,76.6z"/>
	<path class="st0" d="M122.9,79.5c0.2,2.4,0.3,4.8,0.5,7.2c0.1,1.7-0.1,2-1.8,1.9c-2.3-0.2-4.5-0.3-6.8-0.6c-1.5-0.2-1.8-0.7-1.2-2
		c0.4-1.1,1-2.1,1.5-3.1c0.5-1,1.1-2,1.7-3.1c-2.3-0.8-3.8-2.3-4.1-4.6c-0.1-1.1,0-2.5,0.4-3.5c1.2-2.7,5.5-5,8.4-4.7
		c3.2,0.3,5.9,2.7,6.3,5.5C128.3,75.9,126.6,78.3,122.9,79.5z M121.2,86.5c-0.1-2.2-0.2-4.2-0.4-6.2c-0.2-2.7-0.2-2.5,2.2-3.1
		c1.6-0.4,2.5-1.4,2.8-3c0.2-1.6-0.2-3.1-1.6-4.1c-2.7-2-7.8-0.6-9.1,2.4c-1.1,2.3,0.2,4.9,2.7,5.2c2,0.2,2.1,0.4,1.3,2.3
		c-0.9,2-2,4-3,6C117.7,86.2,119.3,86.3,121.2,86.5z"/>
	<path class="st0" d="M81.3,133.4c0.3-1,0.8-2.8,1.4-4.5c0.6-1.7,1.3-3.4,1.8-5.2c0.8-3-0.1-5.3-2.7-7.1c-0.4-0.3-1-0.5-1.3-0.9
		c-0.3-0.4-0.3-1-0.4-1.5c0.5-0.1,1.1-0.4,1.4-0.2c3.5,2,6.5,5,4.9,10.4c-0.6,2.1-1.5,4.2-2.2,6.3c-0.9,2.6-1.4,5,0.8,7.3
		c0.2,0.2,0.1,1-0.1,1.4c-0.1,0.2-0.9,0.2-1.2,0C81.8,138.2,81.4,136.3,81.3,133.4z"/>
	<path class="st0" d="M95.6,121.9c-0.5,1.8-0.9,3.8-1.6,5.5c-0.9,2-1.5,4.1-1.3,6.3c0,0.5-0.5,1.1-0.7,1.6c-0.5-0.5-1.5-1.1-1.4-1.5
		c0.3-2.2,0.8-4.3,1.3-6.5c0.4-1.9,1.2-3.8,1.5-5.7c0.3-1.7-0.5-3.1-2.3-3.8c-0.7-0.3-1.2-0.8-0.8-1.5c0.2-0.3,1.1-0.5,1.6-0.4
		C94.2,116.7,95.4,118.8,95.6,121.9z"/>
	<path class="st0" d="M85.5,132.9c0.4-1.4,0.8-2.8,1.3-4.1c0.5-1.3,1.1-2.5,1.5-3.7c0.9-2.6,0.5-5-1.6-6.9c-0.6-0.5-1-1.2-0.2-1.7
		c0.4-0.2,1.3-0.1,1.7,0.2c2.5,2.2,3.4,4.8,2.3,8c-0.5,1.5-1.3,2.9-1.6,4.5c-0.4,1.6-0.6,3.3-0.8,4.9c-0.1,0.8,0,1.6-0.9,1.6
		c-0.4,0-0.9-0.8-1.2-1.3c-0.2-0.4-0.1-1-0.2-1.6C85.6,132.9,85.6,132.9,85.5,132.9z"/>
</g>
</svg>
