<svg width="150" height="150" viewBox="0 0 150 150" fill="none" xmlns="http://www.w3.org/2000/svg">
<path d="M99.7001 143.1C107.3 144.3 113.8 138.2 113 130.7C112.8 129 112.2 127.4 112 125.7C111.1 118.7 111.1 111.7 111.4 104.6C111.8 95.8 114.1 87.4 116.2 78.9C117.1 75.4 117.8 71.8 118.5 68.3C118.9 66.3 120.4 65.1 122.2 65.5C123.9 65.8 125 67.5 124.6 69.5C123.5 74.8 122.5 80.2 121 85.4C118.3 95 117.1 104.8 117.5 114.7C117.6 118.5 118 122.3 118.4 126.1C118.5 127.2 119 128.3 119.1 129.4C120.4 138.2 114.4 147.2 105.7 149.2C105.2 149.3 104.6 149.3 104.1 149.3C80.6001 149.3 57.1001 149.3 33.5001 149.3C27.5001 149.3 22.6001 145.1 22.3001 138.9C22.0001 133 26.5001 127.8 32.5001 127.2C33.0001 127.1 33.5001 127 34.0001 126.9C35.4001 126.4 36.8001 125.8 38.2001 125.5C43.6001 124.3 47.7001 120.8 52.1001 117.8C56.9001 114.5 61.7001 111.1 66.5001 107.8C66.9001 107.5 67.3001 107.1 67.6001 106.6C68.3001 105.5 69.6001 105 70.9001 105.2C72.2001 105.5 73.1001 106.4 73.4001 107.7C73.8001 109.4 73.2001 110.7 71.7001 111.7C63.8001 117.2 55.9001 122.7 47.9001 128.2C47.1001 128.7 46.3001 129.2 45.4001 129.5C42.0001 130.7 38.7001 131.9 35.3001 133C34.6001 133.2 33.7001 133.3 33.0001 133.4C29.9001 133.8 28.0001 136.6 28.8001 139.6C29.3001 141.6 30.9001 142.8 33.0001 143C33.3001 143 33.7001 143 34.0001 143C51.7001 143 69.4001 143 87.1001 143C88.9001 143 90.5001 142.5 92.0001 141.6C96.1001 139 98.4001 134.1 97.4001 129.8C95.4001 121.1 95.6001 112.2 96.0001 103.4C96.4001 95.5 98.4001 87.8 100.4 80.2C103.7 67.2 105.6 54 105.9 40.6C106 36.9 106.1 33.2 105.9 29.4C105.5 22.3 103 15.7 99.5001 9.59997C98.7001 8.19997 97.8001 6.89997 96.9001 5.59997C95.8001 3.99997 96.0001 2.19997 97.4001 1.09997C98.8001 -3.45111e-05 100.7 0.299965 101.9 1.89997C107.4 9.49997 111.1 17.8 112 27.2C112.5 32.2 112.3 37.3 112.2 42.3C111.9 51.3 111.1 60.3 109.3 69.2C108 75.5 106.6 81.8 105 88.1C102.8 96.5 101.9 105 102.2 113.6C102.3 117.9 102.7 122.1 103.1 126.4C103.3 128.1 103.9 129.7 104 131.4C104.2 135.4 102.9 139.1 100.6 142.4C100.1 142.5 100 142.8 99.7001 143.1Z" fill="#005BAB"/>
<path d="M78.3001 55.7C82.1001 54.8 85.9001 54 89.7001 53.1C91.6001 52.7 93.2001 53.7 93.6001 55.5C93.8001 56.4 93.6001 57.3 93.0001 58C89.3001 62.5 88.4001 67.7 89.2001 73.4C89.5001 75.2 89.9001 76.9 90.5001 78.6C92.5001 84.8 90.7001 90.1 85.4001 93.8C81.9001 96.2 77.9001 97.5 73.7001 98.4C68.3001 99.5 62.7001 99.9 57.2001 99.7C51.7001 99.6 46.3001 99 41.1001 97.2C39.2001 96.5 37.3001 95.7 35.6001 94.7C29.5001 91.1 27.1001 85.6 28.2001 78.6C29.3001 71.6 29.2001 64.7 27.2001 57.9C26.9001 56.7 26.4001 55.6 25.9001 54.5C25.4001 53.2 25.4001 52.1 26.3001 51.1C27.2001 50.1 28.3001 49.8 29.6001 50.1C33.7001 51.1 37.0001 52.6 41.1001 55.5C41.6001 54.6 42.1001 53.7 42.5001 52.7C43.5001 50.3 43.8001 47.8 43.8001 45.2C43.7001 39.3 46.1001 34.6 50.3001 30.6C52.3001 28.7 54.6001 27.1 57.1001 25.8C58.6001 25.1 59.9001 25.2 60.9001 26.2C61.9001 27.2 62.1001 28.5 61.5001 30C61.4001 30.3 61.4001 30.9 61.6001 31.2C62.4001 32.4 63.2001 33.8 64.2001 34.7C66.4001 36.7 68.6001 38.7 71.0001 40.3C76.0001 43.7 78.2001 48.4 78.3001 54.3C78.3001 54.6 78.3001 55 78.3001 55.3C78.2001 55.5 78.2001 55.6 78.3001 55.7ZM68.7001 92.8C68.7001 92.9 68.8001 93 68.8001 93.1C71.1001 92.6 73.4001 92.1 75.7001 91.5C78.3001 90.8 80.8001 89.7 82.9001 87.9C84.8001 86.2 85.5001 84.1 84.9001 81.7C84.8001 81.2 84.6001 80.6 84.4001 80.1C82.8001 75.2 82.2001 70.1 83.2001 65C83.5001 63.6 83.9001 62.3 84.2001 60.9C83.0001 61.2 81.8001 61.3 80.6001 61.7C79.3001 62.1 77.9001 62.5 76.6001 63.1C75.4001 63.8 74.3001 64.1 73.0001 63.4C71.7001 62.7 71.3001 61.5 71.3001 60.2C71.4001 59.1 71.5001 58 71.7001 56.9C72.2001 52.1 71.2001 48 66.7001 45.3C66.5001 45.2 66.2001 45 66.0001 44.8C62.0001 41.8 58.2001 38.7 55.7001 34.2C55.7001 34.2 55.6001 34.2 55.5001 34.1C51.6001 37.1 49.8001 40.4 49.6001 45.3C49.5001 48.9 49.1001 52.3 47.6001 55.6C46.5001 58.1 45.0001 60.3 42.7001 61.8C41.1001 62.8 39.8001 62.8 38.4001 61.6C37.4001 60.8 36.5001 60.1 35.5001 59.4C34.9001 59 34.2001 58.6 33.4001 58.2C33.4001 58.5 33.4001 58.6 33.4001 58.6C35.0001 65.8 34.9001 73 33.8001 80.3C33.3001 83.9 34.5001 86.8 37.6001 88.8C39.1001 89.8 40.8001 90.4 42.4001 91.2C42.6001 91.3 42.8001 91.3 43.2001 91.4C41.6001 87.8 41.4001 84.3 43.0001 80.7C45.7001 74.6 49.8001 69.5 54.2001 64.6C55.3001 63.4 57.3001 63.5 58.5001 64.7C59.0001 65.2 59.4001 65.7 59.8001 66.2C63.4001 70.6 66.8001 75 69.0001 80.3C69.8001 82.1 70.4001 84 70.3001 86.1C70.5001 88.5 69.9001 90.7 68.7001 92.8ZM56.6001 71.8C53.6001 75.6 50.7001 79.2 48.9001 83.6C48.6001 84.2 48.5001 84.9 48.5001 85.6C48.4001 88.7 50.3001 91.8 53.3001 93C56.3001 94.3 59.7001 93.7 62.1001 91.3C64.4001 89 65.1001 85.8 63.7001 82.8C61.9001 78.7 59.3001 75.3 56.6001 71.8Z" fill="#005BAB"/>
<path d="M127.5 36.3C127.5 38.9 127.6 41.5 127.5 44C127.4 45.9 126 47.2 124.3 47.1C122.5 47 121.3 45.6 121.3 43.7C121.4 39.9 121.5 36.1 121.5 32.3C121.5 23.9 118.9 16.3 114.6 9.09996C113.9 7.89996 113.1 6.79996 112.3 5.69996C111.3 4.29996 111.4 2.39996 112.8 1.29996C114.2 0.199957 116.2 0.399957 117.2 1.79996C119 4.49996 120.8 7.19996 122.3 10.1C126.5 18.3 128.3 27.1 127.5 36.3Z" fill="#005BAB"/>
<path d="M58.2001 9.8C58.2001 7.8 58.2001 5.9 58.2001 3.9C58.2001 2.1 59.4001 0.700003 61.1001 0.600003C62.9001 0.500003 64.3001 1.8 64.4001 3.6C64.6001 7.7 64.7001 11.8 64.8001 15.8C64.8001 17.6 63.5001 18.9 61.7001 18.9C60.0001 18.9 58.6001 17.6 58.6001 15.8C58.6001 13.7 58.6001 11.7 58.6001 9.6C58.5001 9.8 58.4001 9.8 58.2001 9.8Z" fill="#005BAB"/>
<path d="M126.5 56.2999C126.5 58.0999 125.1 59.4 123.3 59.4C121.6 59.4 120.3 57.9999 120.3 56.2999C120.3 54.5999 121.7 53.2 123.4 53.2C125.2 53.2 126.5 54.5999 126.5 56.2999Z" fill="#005BAB"/>
<path d="M87.4001 44C87.4001 45.7 86.0001 47.1 84.3001 47.1C82.6001 47.1 81.2001 45.7 81.2001 44C81.2001 42.3 82.6001 40.9 84.3001 40.9C86.1001 40.9 87.5001 42.3 87.4001 44Z" fill="#005BAB"/>
<path d="M40.9001 31.6C40.9001 33.3 39.5001 34.7 37.8001 34.7C36.1001 34.7 34.7001 33.3 34.7001 31.5C34.7001 29.8 36.1001 28.4 37.8001 28.4C39.6001 28.5 41.0001 29.9 40.9001 31.6Z" fill="#005BAB"/>
<path d="M59.6 56.3999C59.6 58.0999 58.2 59.4999 56.5 59.4999C54.8 59.4999 53.4 58.0999 53.4 56.3999C53.4 54.6999 54.9 53.2999 56.5 53.2999C58.2 53.2999 59.6 54.6999 59.6 56.3999Z" fill="#005BAB"/>
<path d="M75 75C73.3 75 71.9 73.5 72 71.8C72 70.1 73.5 68.7 75.2 68.8C76.9 68.9 78.3 70.3 78.2 72C78.1 73.7 76.7 75 75 75Z" fill="#005BAB"/>
</svg>
