<?xml version="1.0" encoding="utf-8"?>
<!-- Generator: Adobe Illustrator 24.3.0, SVG Export Plug-In . SVG Version: 6.00 Build 0)  -->
<svg version="1.1" id="Layer_1" xmlns="http://www.w3.org/2000/svg" xmlns:xlink="http://www.w3.org/1999/xlink" x="0px" y="0px"
	 viewBox="0 0 150 150" style="enable-background:new 0 0 150 150;" xml:space="preserve">
<style type="text/css">
	.st0{fill:#CDEEFD;}
	.st1{fill:#111224;}
	.st2{fill:#005BAB;}
</style>
<path class="st0" d="M1465.3,1556.3c-2.4-0.2-4.3-1.3-4.4-4.1c-0.1-6.7,1.6-10,4.9-9.9c0.2,0,0.3,0,0.5,0c2.2,0.5,4.3,2.1,3.2,4
	C1467.7,1549.5,1473.1,1555.7,1465.3,1556.3z M1465.5,1554.4c1.3-0.1,2.3-0.6,2.3-2.1c-0.1-1.7-1.5-2.1-2.8-2.4c-1.6-0.4-2,0.8-2,2
	C1463,1553.5,1464,1554.2,1465.5,1554.4z M1467.8,1546.5c0-1.4-0.6-2.2-2.1-2.2c-0.9,0-1.6,0.4-1.7,1.4c-0.2,1.4,0.9,2.1,2,2.5
	C1467.3,1548.5,1467.6,1547.5,1467.8,1546.5z"/>
<path class="st0" d="M1455.8,1556.6c-0.5-2.9-1.8-4.2-4.6-3.6c-0.7,0.2-1.7,0.3-2.1-0.8c-0.4-1.1,0.1-1.5,1.2-2.1
	c2.1-1.2,2.1-3.9,3.2-5.8c0.6-1,1-2.2,2.5-1.9c1.4,0.3,0.9,1.6,0.8,2.5C1456.4,1548.6,1458.4,1552.5,1455.8,1556.6z"/>
<path class="st1" d="M1465.5,1554.4c-1.5-0.1-2.6-0.8-2.5-2.4c0-1.2,0.4-2.4,2-2c1.2,0.3,2.7,0.7,2.8,2.4
	C1467.8,1553.7,1466.8,1554.2,1465.5,1554.4z"/>
<path class="st1" d="M1467.8,1546.5c-0.2,1-0.5,2.1-1.8,1.7c-1.1-0.4-2.1-1-2-2.5c0.1-1,0.8-1.4,1.7-1.4
	C1467.2,1544.3,1467.8,1545,1467.8,1546.5z"/>
<g>
	<path class="st2" d="M63.5,124c-3.2-2.7-4.2-6-2.8-10.2c-1.2,0-2.2,0-3.1,0c-6,0-11.9,0-17.9,0c-10.2-0.1-17.9-7.5-17.9-17.2
		c0-9.8,7.8-17.2,18-17.2c10.7,0,21.4,0,32.1,0c0.8,0,1.6,0.2,2.2-0.1c0.6-0.3,1.4-1.1,1.4-1.7c0-0.6-0.7-1.4-1.3-1.7
		c-0.7-0.3-1.6-0.2-2.5-0.2c-14,0-27.9,0-41.9,0c-7.7,0-13.5-3.2-16.8-10.3c-5-10.8,2.7-23.6,14.6-23.9c10.6-0.3,21.2-0.1,31.8-0.1
		c1,0,2,0,3,0c1.4,0,2.9-0.2,2.9-2c0-1.8-1.5-1.9-3-1.9c-7.2,0-14.5,0-21.7,0c-9.6,0-16.5-6.9-16.6-16.5c-0.1-6.1,0-12.1,0-18.2
		C23.9,2,24,1.3,24,0.6c5,0,9.8,0,15.1,0c0,2.2,0,4.3,0,6.5c0,3.1,0,6.2,0,9.3c0,3.9,1.8,5.7,5.7,5.7c6.2,0,12.5,0,18.7,0
		c8.4,0.1,15.3,6,16.8,14.3c1.4,8-3.3,16.3-11.2,19c-2.1,0.7-4.4,1.1-6.7,1.1c-10.7,0.1-21.4,0-32.1,0.1c-0.7,0-1.5-0.2-2,0.1
		c-0.7,0.4-1.5,1.1-1.7,1.8c-0.1,0.4,0.8,1.4,1.5,1.6c0.7,0.3,1.7,0.1,2.5,0.1c13.9,0,27.8,0,41.7,0c8.6,0,15,4.4,17.6,11.7
		c3.6,10.5-3.9,22.1-15,22.5c-11.3,0.4-22.5,0.1-33.8,0.2c-1.6,0-4.1-0.7-4,2c0.1,2.5,2.4,1.8,4,1.8c11.4,0,22.7,0.1,34.1,0
		c3.6,0,6.8,0.5,8.7,3.9c1.9,3.4,1.1,6.5-1.2,9.3c3.2,5.2,3,7.6-1.3,12.5c0.4,0.4,0.8,0.8,1.2,1.2c3.3,3.8,3.1,8.3-0.7,11.6
		c-1.4,1.2-1.8,2.4-1.8,4.1c0.1,7.8-0.6,8.3-8.3,8.3c-6,0-7.1-1.1-7-7.1c0-2.2-0.2-4-2.2-5.6C58.8,133.4,59.2,129.1,63.5,124z
		 M26.3,2.6c-0.1,0.6-0.2,1.1-0.2,1.6c0,6-0.3,12,0.2,17.9c0.7,8,6.3,12.7,14.4,12.7c6.3,0,12.6,0,18.9,0c1.2,0,2.4-0.1,3.5,0
		c2.7,0.3,4.6,2.2,4.4,4.6c-0.1,2.4-1.9,3.9-4.6,4c-0.8,0-1.5,0-2.3,0c-10.2,0-20.4,0-30.5,0c-2.1,0-4.2,0.2-6.2,0.9
		C16.9,46.7,12.8,53.7,14,61c1.1,6.8,7.4,12.1,14.7,12.2c7.1,0.1,14.1,0,21.2,0c7.7,0,15.5,0,23.2,0c3.3,0,5.3,2.1,4.9,5
		c-0.3,2.2-2.2,3.6-5,3.6c-11.4,0-22.9-0.1-34.3,0.1c-6.3,0.1-10.8,3.4-13.3,9.1c-2.4,5.3-1.1,11.7,3,15.9c3.1,3.2,7,4.6,11.4,4.6
		c7.5,0,15,0,22.5,0c2.3,0,2.6,0.6,1.5,2.5c-2,3.3-1.5,6,1.6,8.3c2.4,1.9,2.4,1.9-0.1,3.8c-3.8,2.9-3.8,7.1,0.2,9.8
		c1.6,1.1,2,2.2,2,3.9c0,8.1-1.1,7.1,7.9,7.2c1.8,0,2.6-0.9,2.6-2.6c0-1.9-0.1-3.9,0.1-5.8c0.1-0.8,0.6-1.7,1.2-2.2
		c4.7-3.6,4.7-7.2,0-10.8c-1.6-1.2-1.5-1.9,0.1-3c4.2-3,4.4-5.7,1.1-9.9c-0.4-0.5-0.3-1.9,0-2.2c2.1-1.8,2.9-3.9,1.7-6.5
		c-1.1-2.5-3.3-3-5.8-3c-11.9,0.1-23.7,0-35.6,0c-1,0-2-0.1-3-0.4c-2.1-0.6-3.2-2.2-3-4.4c0.2-2.3,1.7-3.6,4-3.8
		c0.8-0.1,1.5,0,2.3,0c10.7,0,21.4,0.1,32.1,0c10.4-0.1,17.3-8.8,15-18.6c-1.5-6.4-7.6-11-14.5-11.1c-14.3,0-28.6,0-42.9,0
		c-0.8,0-1.7,0.1-2.5,0c-2-0.3-3.2-1.4-3.6-3.3c-0.4-2,0.3-3.7,2.2-4.6c0.9-0.4,2.1-0.6,3.2-0.6c11.2,0,22.4,0,33.6,0
		c4.3,0,7.9-1.6,10.8-4.7c4.1-4.4,5.1-9.7,3-15.2c-2.1-5.7-6.3-9.2-12.5-9.5c-6.5-0.3-13.1-0.1-19.7-0.2c-5.6-0.1-8.3-2.8-8.4-8.4
		c0-4.4,0-8.9,0-13.4C33,2.6,29.7,2.6,26.3,2.6z"/>
	<path class="st2" d="M138.7,74.3c-0.2,8.7-6.3,16.9-15.4,19c-5.5,1.3-10.1,3.8-14.8,6.6c-2.9,1.7-5.8,3.5-8.7,5.1
		c-0.7,0.4-1.6,0.5-2.5,0.7c0-0.9-0.2-1.9,0.1-2.8c1.4-3.9,2.9-7.7,4.2-11.6c0.3-0.8-0.1-2.1-0.6-2.7c-6.1-5.9-8.2-12.9-5.4-20.9
		c2.9-8.2,9.2-12.6,17.7-13.8c12.5-1.9,23.3,6.7,24.9,16.9C138.5,72,138.5,73.2,138.7,74.3z M100.5,101.7c0.9-0.4,1.3-0.6,1.7-0.8
		c7-3.9,13.5-8.3,21.6-10.4c9.8-2.5,14.5-12.9,11.4-21.8c-3.1-9.1-13-14.4-23.5-12.1c-7.2,1.6-12.3,5.9-14.2,13.2
		c-1.8,7,0.3,13,5.9,17.6c1.6,1.3,1.7,2.3,0.9,4.1C103,94.7,101.9,98,100.5,101.7z"/>
	<path class="st2" d="M94.4,124.1c-1,0-2,0.1-3-0.1c-0.5-0.1-0.9-0.8-1.3-1.2c0.4-0.4,0.8-1.1,1.2-1.1c2.1-0.1,4.2-0.1,6.3,0
		c0.5,0,0.9,0.8,1.3,1.2c-0.5,0.4-0.9,1-1.4,1.1C96.4,124.2,95.4,124.1,94.4,124.1C94.4,124.1,94.4,124.1,94.4,124.1z"/>
	<path class="st2" d="M97.5,132.3c-0.5,0.3-1,1-1.3,0.9c-2.3-0.6-4.7-1.3-7-2c-0.3-0.1-0.5-0.8-0.5-1.3c0-0.3,0.6-0.8,0.9-0.7
		c2.4,0.6,4.8,1.3,7.2,2.1C97,131.4,97.1,131.8,97.5,132.3z"/>
	<path class="st2" d="M96.4,112.3c-0.5,0.7-0.6,1.1-0.9,1.3c-1.7,1.1-3.4,2.2-5.1,3.1c-0.3,0.2-1.2,0-1.4-0.3
		c-0.2-0.4-0.1-1.3,0.2-1.5c1.7-1.2,3.5-2.3,5.3-3.3C94.8,111.5,95.6,112.1,96.4,112.3z"/>
	<path class="st2" d="M48.1,117.2c1.9,0.6,3.4,1,4.9,1.6c0.4,0.2,0.8,1,0.7,1.4c-0.1,0.4-0.9,0.9-1.3,0.8c-1.6-0.3-3.1-0.8-4.6-1.4
		c-0.4-0.2-0.9-0.9-0.8-1.3C47.1,117.9,47.8,117.5,48.1,117.2z"/>
	<path class="st2" d="M49.1,134.1c-0.5-0.5-1.1-0.7-1.2-1.1c-0.1-0.4,0.2-1,0.5-1.3c1.2-0.8,2.4-1.6,3.6-2.3
		c0.3-0.2,1.1-0.1,1.3,0.1c0.3,0.3,0.4,1.2,0.2,1.3C52.2,132,50.6,133,49.1,134.1z"/>
	<path class="st2" d="M49.4,127c-1.3-0.7-3.4-1.4-3.4-1.8c0.3-2.1,2.2-1.2,3.4-1.1c1.1,0,2.2,0.7,3.3,1.1
		C51.7,125.8,50.6,126.3,49.4,127z"/>
	<path class="st2" d="M112.7,68.5c0-1.5-0.1-3,0-4.5c0.2-2.2,1.8-3.7,3.8-3.6c2.1,0.1,3.6,1.3,3.7,3.4c0.2,3.2,0.2,6.4,0,9.6
		c-0.1,2.1-1.7,3.3-3.8,3.4c-1.9,0.1-3.6-1.6-3.7-3.7C112.6,71.5,112.7,70,112.7,68.5z M117.9,68.5
		C117.9,68.5,117.9,68.5,117.9,68.5c0-1.4,0.1-2.9,0-4.3c-0.1-0.6-0.8-1-1.3-1.6c-0.5,0.5-1.4,0.9-1.4,1.4c-0.1,2.9-0.1,5.9,0,8.8
		c0,0.4,1,1.1,1.6,1.2c0.3,0.1,1.1-0.8,1.1-1.3C118,71.4,117.9,69.9,117.9,68.5z"/>
	<path class="st2" d="M116.6,80.2c2.4,0.1,4.3,2,4.2,4.4c-0.1,2.4-2.1,4.3-4.4,4.2c-2.4-0.1-4.2-1.9-4.1-4.4
		C112.3,81.9,114.1,80.1,116.6,80.2z M116.1,86.6c0.3,0,0.6,0,1,0c0.5-0.7,1.3-1.6,1.2-2.2c-0.1-0.7-1.1-1.6-1.9-1.7
		c-0.5-0.1-1.6,1.1-1.6,1.7C114.8,85.2,115.6,85.9,116.1,86.6z"/>
</g>
</svg>
