<?xml version="1.0" encoding="utf-8"?>
<!-- Generator: Adobe Illustrator 24.3.0, SVG Export Plug-In . SVG Version: 6.00 Build 0)  -->
<svg version="1.1" id="Layer_1" xmlns="http://www.w3.org/2000/svg" xmlns:xlink="http://www.w3.org/1999/xlink" x="0px" y="0px"
	 viewBox="0 0 150 150" style="enable-background:new 0 0 150 150;" xml:space="preserve">
<style type="text/css">
	.st0{fill:url(#SVGID_1_);stroke:url(#SVGID_2_);stroke-miterlimit:10;}
	.st1{fill:url(#SVGID_3_);stroke:url(#SVGID_4_);stroke-miterlimit:10;}
	.st2{fill:url(#SVGID_5_);stroke:url(#SVGID_6_);stroke-miterlimit:10;}
	.st3{fill:url(#SVGID_7_);stroke:url(#SVGID_8_);stroke-miterlimit:10;}
	.st4{fill:url(#SVGID_9_);stroke:url(#SVGID_10_);stroke-miterlimit:10;}
	.st5{fill:url(#SVGID_11_);stroke:url(#SVGID_12_);stroke-miterlimit:10;}
	.st6{fill:url(#SVGID_13_);stroke:url(#SVGID_14_);stroke-miterlimit:10;}
	.st7{fill:url(#SVGID_15_);stroke:url(#SVGID_16_);stroke-miterlimit:10;}
	.st8{fill:url(#SVGID_17_);stroke:url(#SVGID_18_);stroke-miterlimit:10;}
	.st9{fill:url(#SVGID_19_);stroke:url(#SVGID_20_);stroke-miterlimit:10;}
	.st10{fill:#075CAA;}
</style>
<g>
	<linearGradient id="SVGID_1_" gradientUnits="userSpaceOnUse" x1="31.2346" y1="929.5284" x2="172.937" y2="929.5284">
		<stop  offset="0" style="stop-color:#02AE4D"/>
		<stop  offset="0.2754" style="stop-color:#128469"/>
		<stop  offset="0.5297" style="stop-color:#1A6476"/>
		<stop  offset="0.7415" style="stop-color:#214E7B"/>
		<stop  offset="0.9027" style="stop-color:#273E7D"/>
		<stop  offset="0.9944" style="stop-color:#29377D"/>
	</linearGradient>
	<linearGradient id="SVGID_2_" gradientUnits="userSpaceOnUse" x1="30.7346" y1="929.5284" x2="173.437" y2="929.5284">
		<stop  offset="0" style="stop-color:#02AE4D"/>
		<stop  offset="0.2754" style="stop-color:#128469"/>
		<stop  offset="0.5297" style="stop-color:#1A6476"/>
		<stop  offset="0.7415" style="stop-color:#214E7B"/>
		<stop  offset="0.9027" style="stop-color:#273E7D"/>
		<stop  offset="0.9944" style="stop-color:#29377D"/>
	</linearGradient>
	<path class="st0" d="M77.8,933.8c0.7,0.2,1.4,0.4,2.1,0.6c7.3,2.1,14.4,4.8,21.2,8.2c5,2.5,10.3,3.8,15.9,3.8
		c8.8,0,17.6,0.1,26.4,0.3c5.9,0.2,11.5-0.8,16.9-3c1.6-0.7,3.3-1.2,4.9-1.8c2.3-0.7,4.8,0,6.3,1.8c1.5,1.8,1.8,4.5,0.6,6.5
		c-0.6,0.9-1.5,1.7-2.3,2.6c0.1,0.1,0.3,0.3,0.5,0.4c2.2,1.9,3.1,4.8,2.2,7.6c-0.9,2.7-3.3,4.6-6.2,4.8c-0.4,0-0.8,0-1.3,0
		c-8.3,0-16.5,0-24.8,0c-0.5,0-1.1,0.2-1.5,0.5c-2.1,1.4-4,3-5.3,5.3c-0.4,0.7-0.7,1.5-0.9,2.3c-0.6,1.8-0.2,3.4,1.1,4.7
		c1,1,2.2,1.9,3.3,2.8c1.1,0.8,2.3,1.5,3.4,2.2c4.6,3.1,5.6,9.4,2.1,13.7c-0.4,0.5-0.9,1.1-1.3,1.6c-0.7,0.8-1.2,0.9-2.1,0.3
		c-3.2-2.1-6.4-4.2-9.5-6.4c-4.6-3.3-9.7-5.2-15.3-5.8c-3.7-0.4-6.9-2.1-9.3-4.9c-1.8-2.1-3.6-4.2-5.4-6.2c-1.6-1.9-3.7-2.8-6.2-2.8
		c-7.7-0.1-15.5-0.2-23.2-0.5c-10.5-0.5-20.9-1.4-31.3-3.6c-2-0.4-4-1-5.9-1.5c-0.9-0.2-1.4-0.9-1.2-1.6c0.2-0.7,0.9-1,1.8-0.7
		c7.1,2,14.4,3.1,21.7,3.8c12.7,1.3,25.5,1.7,38.2,1.7c3.1,0,5.7,1.2,7.8,3.5c1.6,1.9,3.3,3.7,4.8,5.6c2.4,3,5.5,4.6,9.3,5
		c5.5,0.6,10.5,2.6,15,5.7c2.9,2,5.8,4,8.8,5.9c0.2,0.1,0.4,0.2,0.6,0.4c3.4-2.9,3.2-8.3-0.4-10.9c-1.6-1.1-3.3-2.2-5-3.3
		c-0.4-0.3-0.8-0.6-1.2-1c-3.4-3-4.1-6.4-2.1-10.4c1.1-2.2,2.7-4,4.6-5.5c3.4-2.7,7.3-4.6,11.4-6.2c5-1.9,10-3.7,14.9-5.7
		c2.4-0.9,4.6-2.1,6.8-3.4c1.7-1,2.2-2.8,1.4-4.4c-0.8-1.6-2.6-2.3-4.5-1.7c-3.1,1.1-6.3,2.3-9.5,3.3c-4.5,1.4-9.2,1.5-13.9,1.4
		c-8.4-0.2-16.9-0.2-25.3-0.3c-6,0-11.7-1.4-17-4.1c-11.5-5.8-23.6-9.6-36.3-11.5c-8.5-1.3-17.1-1.6-25.6-0.8
		c-1.7,0.2-3.4,0.4-5.1,0.7c-0.9,0.1-1.5-0.2-1.7-0.9c-0.1-0.8,0.3-1.3,1.2-1.5c1.8-0.3,3.5-0.5,5.3-0.7c0.3,0,0.7-0.1,1.1-0.1
		c-1.3-2.1-0.3-4.2,0.1-6.2c0.9-5.2,1.9-10.3,2.8-15.5c0.4-2.1,1.5-3.8,3.4-5c5.6-3.4,11.2-6.9,16.8-10.3c3-1.9,6.4-2.8,9.9-3.2
		c8.3-1.1,16.6-2.3,24.9-3.4c2.8-0.4,5.5-0.8,8.3-1.2c0.4-0.1,0.7-0.1,1.1-0.3c21.6-8.5,43.2-16.9,64.8-25.4c0.1,0,0.2-0.1,0.4-0.1
		c0.8-0.2,1.4,0,1.7,0.6c0.2,0.6-0.1,1.3-0.8,1.6c-0.8,0.3-1.7,0.7-2.5,1c-20.9,8.2-41.8,16.4-62.7,24.5c-1.7,0.6-3.6,0.7-5.4,1
		c-7.1,1-14.2,2-21.3,2.9c-3.5,0.5-7,1-10.5,1.5c-2.4,0.4-4.6,1.3-6.6,2.6c-5.4,3.3-10.7,6.6-16.1,9.8c-1.7,1-2.6,2.4-3,4.3
		c-1.1,6-2.2,12-3.3,18c-0.2,1,0.1,1.6,1.1,2c2.5,1.1,5.5-0.4,6.2-3.1c1.2-4.2,2.3-8.5,3.5-12.7c0.2-0.6,0.5-1.1,1.1-1.4
		c2.3-1.4,4.6-2.8,6.9-4.1c3-1.7,6.1-2.1,9.5-1.2c5.2,1.3,10.4,2.6,15.6,3.8c0.3,0.1,0.7,0,1.1-0.1c4.2-1.4,8.4-2.8,12.6-4.2
		c0.2-0.1,0.3-0.1,0.5-0.1c0.8-0.2,1.4,0.1,1.6,0.7c0.2,0.6-0.1,1.3-0.9,1.5c-2.2,0.7-4.3,1.4-6.5,2.2c-3.3,1.1-6.5,2.2-9.8,3.3
		c-0.3,0.1-0.7,0.3-1,0.5c-4.4,3.8-8.8,7.6-13.1,11.4c-1.7,1.5-1.6,3.2,0.3,4.4c3.3,2.2,7.6,2,10.8-0.5c2.7-2.2,5.3-4.4,7.9-6.6
		c0.6-0.5,1.2-0.7,2-0.6c2.1,0.2,4.2,0.4,6.3,0.5c10.2,0.9,18.4-2.8,24.4-11.2c1.5-2,3.3-3.4,5.7-4c14.9-3.7,29.8-7.3,44.7-11
		c1.2-0.3,2,0.4,1.9,1.2c-0.1,0.7-0.6,1-1.2,1.1c-2.9,0.7-5.7,1.4-8.6,2.1c-12,3-24.1,5.9-36.1,8.9c-1.8,0.4-3.2,1.4-4.2,2.9
		c-4.9,7-11.5,11.1-20,12.3c-3,0.4-6,0.1-9-0.1c-1.2-0.1-2.4-0.2-3.6-0.3c-0.3,0-0.7,0.1-1,0.3c-2.2,1.8-4.3,3.5-6.4,5.3
		C81.3,931.9,79.7,933.1,77.8,933.8z M66.6,931.2c0,0,0-0.1-0.1-0.1c-1.8-2.5-1.5-5,0.8-7c4.3-3.7,8.6-7.5,12.9-11.2
		c0.2-0.2,0.5-0.2,0.7-0.3c-0.1-0.1-0.2-0.2-0.2-0.3c-0.2-0.1-0.3-0.1-0.5-0.2c-4.2-1-8.4-2.1-12.7-3.1c-1-0.2-2-0.1-3.1-0.2
		c-0.7,0-1,0.4-1.1,1c-1.2,4.2-2.4,8.5-3.6,12.7c-0.8,2.8-2.6,4.5-5.5,5c-1.1,0.2-2.3-0.1-3.5-0.1c-0.2,0-0.6,0-0.7,0.2
		c-0.4,0.7-0.7,1.4-1,2C54.9,930.1,60.7,930.6,66.6,931.2z M144.4,963.2c0,0.1,0,0.1,0.1,0.2c0.1,0,0.2,0,0.2,0c7.1,0,14.2,0,21.3,0
		c2,0,3.9-1.5,4.4-3.5c0.5-2-0.4-4.2-2.3-5.2c-0.6-0.3-1.2-0.5-1.9-0.1c-0.4,0.3-0.9,0.5-1.4,0.7c-5,1.9-10.1,3.8-15.1,5.7
		C147.9,961.7,146.2,962.5,144.4,963.2z M60.7,910.2c0,0-0.1-0.1-0.1-0.1c-2.1,1.2-4.1,2.5-6.2,3.7c-0.3,0.2-0.6,0.6-0.8,1
		c-0.9,3.1-1.7,6.1-2.5,9.2c-0.1,0.3-0.1,0.6-0.2,0.8c3,1.1,5.6-0.3,6.5-3.2c0.4-1.4,0.8-2.7,1.2-4.1
		C59.3,915.1,60,912.7,60.7,910.2z"/>
	<linearGradient id="SVGID_3_" gradientUnits="userSpaceOnUse" x1="54.4357" y1="986.9644" x2="56.8388" y2="986.9644">
		<stop  offset="0" style="stop-color:#02AE4D"/>
		<stop  offset="0.2754" style="stop-color:#128469"/>
		<stop  offset="0.5297" style="stop-color:#1A6476"/>
		<stop  offset="0.7415" style="stop-color:#214E7B"/>
		<stop  offset="0.9027" style="stop-color:#273E7D"/>
		<stop  offset="0.9944" style="stop-color:#29377D"/>
	</linearGradient>
	<linearGradient id="SVGID_4_" gradientUnits="userSpaceOnUse" x1="53.9357" y1="986.9644" x2="57.3388" y2="986.9644">
		<stop  offset="0" style="stop-color:#02AE4D"/>
		<stop  offset="0.2754" style="stop-color:#128469"/>
		<stop  offset="0.5297" style="stop-color:#1A6476"/>
		<stop  offset="0.7415" style="stop-color:#214E7B"/>
		<stop  offset="0.9027" style="stop-color:#273E7D"/>
		<stop  offset="0.9944" style="stop-color:#29377D"/>
	</linearGradient>
	<path class="st1" d="M54.4,987c0-2.2,0-4.4,0-6.6c0-1,0.5-1.5,1.2-1.5c0.7,0,1.2,0.5,1.2,1.5c0,4.4,0,8.8,0,13.2
		c0,1.1-0.8,1.7-1.7,1.4c-0.6-0.3-0.7-0.8-0.7-1.4C54.4,991.4,54.4,989.2,54.4,987z"/>
	<linearGradient id="SVGID_5_" gradientUnits="userSpaceOnUse" x1="43.6024" y1="984.4282" x2="48.7254" y2="984.4282">
		<stop  offset="0" style="stop-color:#02AE4D"/>
		<stop  offset="0.2754" style="stop-color:#128469"/>
		<stop  offset="0.5297" style="stop-color:#1A6476"/>
		<stop  offset="0.7415" style="stop-color:#214E7B"/>
		<stop  offset="0.9027" style="stop-color:#273E7D"/>
		<stop  offset="0.9944" style="stop-color:#29377D"/>
	</linearGradient>
	<linearGradient id="SVGID_6_" gradientUnits="userSpaceOnUse" x1="43.1024" y1="984.4282" x2="49.231" y2="984.4282">
		<stop  offset="0" style="stop-color:#02AE4D"/>
		<stop  offset="0.2754" style="stop-color:#128469"/>
		<stop  offset="0.5297" style="stop-color:#1A6476"/>
		<stop  offset="0.7415" style="stop-color:#214E7B"/>
		<stop  offset="0.9027" style="stop-color:#273E7D"/>
		<stop  offset="0.9944" style="stop-color:#29377D"/>
	</linearGradient>
	<path class="st2" d="M48.7,980.4c0,0.2-0.1,0.4-0.2,0.6c-0.8,2.5-1.7,5.1-2.5,7.6c-0.1,0.4-0.4,0.8-0.7,1c-0.3,0.1-0.9,0.1-1.2-0.1
		c-0.6-0.3-0.6-0.9-0.4-1.5c0.6-1.8,1.2-3.6,1.8-5.4c0.3-0.9,0.6-1.8,0.9-2.7c0.2-0.6,0.8-0.8,1.4-0.7
		C48.4,979.3,48.7,979.8,48.7,980.4z"/>
	<linearGradient id="SVGID_7_" gradientUnits="userSpaceOnUse" x1="62.8381" y1="984.1958" x2="67.3597" y2="984.1958">
		<stop  offset="0" style="stop-color:#02AE4D"/>
		<stop  offset="0.2754" style="stop-color:#128469"/>
		<stop  offset="0.5297" style="stop-color:#1A6476"/>
		<stop  offset="0.7415" style="stop-color:#214E7B"/>
		<stop  offset="0.9027" style="stop-color:#273E7D"/>
		<stop  offset="0.9944" style="stop-color:#29377D"/>
	</linearGradient>
	<linearGradient id="SVGID_8_" gradientUnits="userSpaceOnUse" x1="62.3381" y1="984.1958" x2="67.8597" y2="984.1958">
		<stop  offset="0" style="stop-color:#02AE4D"/>
		<stop  offset="0.2754" style="stop-color:#128469"/>
		<stop  offset="0.5297" style="stop-color:#1A6476"/>
		<stop  offset="0.7415" style="stop-color:#214E7B"/>
		<stop  offset="0.9027" style="stop-color:#273E7D"/>
		<stop  offset="0.9944" style="stop-color:#29377D"/>
	</linearGradient>
	<path class="st3" d="M64.1,979.2c0.5,0,0.9,0.3,1.1,0.9c0.7,2.6,1.4,5.1,2.1,7.7c0.2,0.7-0.2,1.3-0.8,1.5c-0.7,0.2-1.3-0.1-1.5-0.8
		c-0.7-2.6-1.4-5.2-2.1-7.7C62.7,979.8,63.2,979.2,64.1,979.2z"/>
	<linearGradient id="SVGID_9_" gradientUnits="userSpaceOnUse" x1="47.819" y1="942.612" x2="53.8485" y2="942.612">
		<stop  offset="0" style="stop-color:#02AE4D"/>
		<stop  offset="0.2754" style="stop-color:#128469"/>
		<stop  offset="0.5297" style="stop-color:#1A6476"/>
		<stop  offset="0.7415" style="stop-color:#214E7B"/>
		<stop  offset="0.9027" style="stop-color:#273E7D"/>
		<stop  offset="0.9944" style="stop-color:#29377D"/>
	</linearGradient>
	<linearGradient id="SVGID_10_" gradientUnits="userSpaceOnUse" x1="47.319" y1="942.5554" x2="54.3485" y2="942.5554">
		<stop  offset="0" style="stop-color:#02AE4D"/>
		<stop  offset="0.2754" style="stop-color:#128469"/>
		<stop  offset="0.5297" style="stop-color:#1A6476"/>
		<stop  offset="0.7415" style="stop-color:#214E7B"/>
		<stop  offset="0.9027" style="stop-color:#273E7D"/>
		<stop  offset="0.9944" style="stop-color:#29377D"/>
	</linearGradient>
	<path class="st4" d="M48.8,939c0.4,0.3,0.8,0.4,1.1,0.7c1.2,1.5,2.4,2.9,3.6,4.4c0.5,0.6,0.4,1.3-0.1,1.8c-0.5,0.4-1.3,0.4-1.8-0.2
		c-1.2-1.5-2.5-3-3.6-4.5c-0.2-0.3-0.3-0.9-0.1-1.3C48,939.5,48.5,939.3,48.8,939z"/>
	<linearGradient id="SVGID_11_" gradientUnits="userSpaceOnUse" x1="52.0025" y1="955.9152" x2="58.0057" y2="955.9152">
		<stop  offset="0" style="stop-color:#02AE4D"/>
		<stop  offset="0.2754" style="stop-color:#128469"/>
		<stop  offset="0.5297" style="stop-color:#1A6476"/>
		<stop  offset="0.7415" style="stop-color:#214E7B"/>
		<stop  offset="0.9027" style="stop-color:#273E7D"/>
		<stop  offset="0.9944" style="stop-color:#29377D"/>
	</linearGradient>
	<linearGradient id="SVGID_12_" gradientUnits="userSpaceOnUse" x1="51.5025" y1="955.8539" x2="58.5057" y2="955.8539">
		<stop  offset="0" style="stop-color:#02AE4D"/>
		<stop  offset="0.2754" style="stop-color:#128469"/>
		<stop  offset="0.5297" style="stop-color:#1A6476"/>
		<stop  offset="0.7415" style="stop-color:#214E7B"/>
		<stop  offset="0.9027" style="stop-color:#273E7D"/>
		<stop  offset="0.9944" style="stop-color:#29377D"/>
	</linearGradient>
	<path class="st5" d="M53,952.3c0.4,0.3,0.8,0.5,1.1,0.8c1.2,1.4,2.4,2.9,3.5,4.3c0.5,0.6,0.5,1.4-0.1,1.8c-0.6,0.5-1.3,0.3-1.8-0.3
		c-1.2-1.5-2.4-2.9-3.5-4.4c-0.2-0.3-0.3-1-0.2-1.4C52.1,952.8,52.6,952.6,53,952.3z"/>
	<linearGradient id="SVGID_13_" gradientUnits="userSpaceOnUse" x1="74.8149" y1="949.7815" x2="80.8258" y2="949.7815">
		<stop  offset="0" style="stop-color:#02AE4D"/>
		<stop  offset="0.2754" style="stop-color:#128469"/>
		<stop  offset="0.5297" style="stop-color:#1A6476"/>
		<stop  offset="0.7415" style="stop-color:#214E7B"/>
		<stop  offset="0.9027" style="stop-color:#273E7D"/>
		<stop  offset="0.9944" style="stop-color:#29377D"/>
	</linearGradient>
	<linearGradient id="SVGID_14_" gradientUnits="userSpaceOnUse" x1="74.3149" y1="949.7235" x2="81.3258" y2="949.7235">
		<stop  offset="0" style="stop-color:#02AE4D"/>
		<stop  offset="0.2754" style="stop-color:#128469"/>
		<stop  offset="0.5297" style="stop-color:#1A6476"/>
		<stop  offset="0.7415" style="stop-color:#214E7B"/>
		<stop  offset="0.9027" style="stop-color:#273E7D"/>
		<stop  offset="0.9944" style="stop-color:#29377D"/>
	</linearGradient>
	<path class="st6" d="M75.9,946.2c0.4,0.3,0.8,0.4,1,0.7c1.2,1.4,2.4,2.9,3.6,4.4c0.5,0.7,0.5,1.4-0.1,1.8c-0.5,0.4-1.2,0.3-1.7-0.3
		c-1.2-1.5-2.4-2.9-3.6-4.5c-0.2-0.3-0.3-1-0.1-1.4C75,946.7,75.5,946.5,75.9,946.2z"/>
	<linearGradient id="SVGID_15_" gradientUnits="userSpaceOnUse" x1="60.0838" y1="947.8195" x2="65.9518" y2="947.8195">
		<stop  offset="0" style="stop-color:#02AE4D"/>
		<stop  offset="0.2754" style="stop-color:#128469"/>
		<stop  offset="0.5297" style="stop-color:#1A6476"/>
		<stop  offset="0.7415" style="stop-color:#214E7B"/>
		<stop  offset="0.9027" style="stop-color:#273E7D"/>
		<stop  offset="0.9944" style="stop-color:#29377D"/>
	</linearGradient>
	<linearGradient id="SVGID_16_" gradientUnits="userSpaceOnUse" x1="59.5838" y1="947.8195" x2="66.5559" y2="947.8195">
		<stop  offset="0" style="stop-color:#02AE4D"/>
		<stop  offset="0.2754" style="stop-color:#128469"/>
		<stop  offset="0.5297" style="stop-color:#1A6476"/>
		<stop  offset="0.7415" style="stop-color:#214E7B"/>
		<stop  offset="0.9027" style="stop-color:#273E7D"/>
		<stop  offset="0.9944" style="stop-color:#29377D"/>
	</linearGradient>
	<path class="st7" d="M66,945.6c-0.2,0.5-0.4,0.8-0.6,1.1c-1,1.3-2,2.6-3,3.8c-0.5,0.7-1.3,0.9-1.9,0.4c-0.6-0.4-0.6-1.2-0.1-1.9
		c1-1.3,2.1-2.7,3.1-4c0.4-0.5,0.9-0.7,1.4-0.4C65.4,944.8,65.6,945.2,66,945.6z"/>
	<linearGradient id="SVGID_17_" gradientUnits="userSpaceOnUse" x1="39.911" y1="950.8307" x2="45.6954" y2="950.8307">
		<stop  offset="0" style="stop-color:#02AE4D"/>
		<stop  offset="0.2754" style="stop-color:#128469"/>
		<stop  offset="0.5297" style="stop-color:#1A6476"/>
		<stop  offset="0.7415" style="stop-color:#214E7B"/>
		<stop  offset="0.9027" style="stop-color:#273E7D"/>
		<stop  offset="0.9944" style="stop-color:#29377D"/>
	</linearGradient>
	<linearGradient id="SVGID_18_" gradientUnits="userSpaceOnUse" x1="39.411" y1="950.8307" x2="46.1954" y2="950.8307">
		<stop  offset="0" style="stop-color:#02AE4D"/>
		<stop  offset="0.2754" style="stop-color:#128469"/>
		<stop  offset="0.5297" style="stop-color:#1A6476"/>
		<stop  offset="0.7415" style="stop-color:#214E7B"/>
		<stop  offset="0.9027" style="stop-color:#273E7D"/>
		<stop  offset="0.9944" style="stop-color:#29377D"/>
	</linearGradient>
	<path class="st8" d="M41.4,954.2c-1.2,0-1.8-1-1.2-1.8c1.1-1.5,2.3-3,3.5-4.5c0.4-0.5,1.1-0.5,1.6-0.1c0.5,0.4,0.7,1,0.3,1.6
		c-1.1,1.5-2.3,3-3.5,4.4C41.8,954,41.5,954.1,41.4,954.2z"/>
	<linearGradient id="SVGID_19_" gradientUnits="userSpaceOnUse" x1="66.9045" y1="958.0181" x2="72.778" y2="958.0181">
		<stop  offset="0" style="stop-color:#02AE4D"/>
		<stop  offset="0.2754" style="stop-color:#128469"/>
		<stop  offset="0.5297" style="stop-color:#1A6476"/>
		<stop  offset="0.7415" style="stop-color:#214E7B"/>
		<stop  offset="0.9027" style="stop-color:#273E7D"/>
		<stop  offset="0.9944" style="stop-color:#29377D"/>
	</linearGradient>
	<linearGradient id="SVGID_20_" gradientUnits="userSpaceOnUse" x1="66.4045" y1="958.0181" x2="73.3824" y2="958.0181">
		<stop  offset="0" style="stop-color:#02AE4D"/>
		<stop  offset="0.2754" style="stop-color:#128469"/>
		<stop  offset="0.5297" style="stop-color:#1A6476"/>
		<stop  offset="0.7415" style="stop-color:#214E7B"/>
		<stop  offset="0.9027" style="stop-color:#273E7D"/>
		<stop  offset="0.9944" style="stop-color:#29377D"/>
	</linearGradient>
	<path class="st9" d="M72.8,955.8c-0.2,0.4-0.4,0.8-0.6,1c-1,1.3-2,2.6-3,3.9c-0.6,0.7-1.3,0.8-1.9,0.4c-0.5-0.4-0.6-1.2-0.1-1.8
		c1-1.3,2.1-2.7,3.1-4c0.4-0.5,0.9-0.7,1.5-0.4C72.2,955,72.5,955.5,72.8,955.8z"/>
</g>
<g>
	<path class="st10" d="M50.1,24.5c0-1.5,0-2.8,0-4.1c0.1-1.5,0-3.1,0.4-4.5c0.9-3.5,3.9-6.3,8-6.2c2,0.1,3.9,0.4,5.7,1.8
		c0-1.1-0.1-2,0-2.8c0.3-3.4,1.8-6.3,5.2-7.4C76.1-0.8,81.1,3,81.3,9.2c0.1,1.7,0,3.3,0,5.1c0.3-0.1,0.5-0.2,0.7-0.3
		c5.4-3.7,12.6-0.3,13.3,6.2c0.1,0.9,0.2,1.9,0.2,2.8c0,9.4,0,18.8,0,28.2c0,0.4,0,0.8,0.2,1.3c0.3-0.9,0.6-1.7,0.9-2.6
		c0.7-2.2,1.4-4.3,3.1-5.9c2.9-2.7,6.5-3.3,10-1.4c2.9,1.5,4.8,5.2,4.2,8.7c-0.4,2.2-1.2,4.4-2,6.6c-3,8.8-6,17.7-9.1,26.5
		c-1.6,4.6-4,8.6-8.6,10.7c-1.7,0.8-2.1,1.7-2.1,3.5c0.1,15.4,0,30.8,0,46.3c0,0.3,0,0.7-0.1,1c-0.2,0.8-0.7,1.2-1.5,1.2
		c-0.8,0-1.3-0.4-1.5-1.2c-0.1-0.4-0.1-0.8-0.1-1.2c0-15.8,0-31.7,0-47.5c0-0.5,0-1-0.1-1.4c-0.4-1.4,0-1.9,1.4-2.4
		c1.6-0.6,3.1-1.4,4.5-2.3c2.9-1.8,4.1-4.9,5.2-7.9c3.5-10,6.9-20.1,10.3-30.2c0.4-1.2,0.6-2.6,0.4-3.9c-0.3-2.5-2.1-4.1-4.7-4.4
		c-2.1-0.2-4.5,1.1-5.4,3.4c-1,2.5-1.8,5.2-2.7,7.8c-0.8,2.3-1.5,4.7-2.3,7.1c-0.3,0.8-0.7,1.4-1.7,1.5c-0.9,0-1.6-0.5-1.7-1.4
		c-0.1-0.5,0-1,0-1.5c0-13.1,0-26.2,0-39.3c0-1.3-0.3-2.7-1-3.9c-1.9-3.5-6.8-3.6-8.8-0.1c-0.6,1.1-1,2.6-1,3.8c-0.1,8,0,16,0,24
		c0,2.2-0.4,3-1.6,3c-1.2,0-1.7-0.9-1.7-3c0-11.9,0-23.7,0-35.6c0-0.8,0-1.6-0.2-2.3c-0.5-2.6-2.3-4-5-4c-3.1,0-4.7,1.1-5.4,3.8
		c-0.2,0.6-0.2,1.3-0.2,2c0,13.8,0,27.5,0,41.3c0,0.1,0,0.2,0,0.3c0,1.4-0.6,2.2-1.6,2.2c-1,0-1.8-0.9-1.8-2.3c0-10.8,0-21.6,0-32.4
		c0-0.6,0-1.2-0.1-1.8c-0.9-3.3-2.7-4.5-6.5-4.2c-2.2,0.2-4,2.5-4.2,5.3c0,0.8,0,1.6,0,2.3c0,10.3,0,20.6,0,30.9
		c0,1.6-0.5,2.4-1.6,2.3c-1,0-1.7-0.9-1.7-2.4c0-6.5,0-12.9,0-19.4c0-0.9-0.2-1.9-0.5-2.8c-0.9-2.5-2.9-3.7-5.4-3.6
		c-2.2,0.1-4.1,1.9-4.6,4.2c-0.2,0.7-0.2,1.5-0.2,2.2c0,12.5,0,25,0,37.5c0,3.1,0.7,6.1,1.7,9.1c1.4,4.4,3.3,8.6,6.4,12.1
		c1,1.1,2.2,2,3.7,2.4c1.1,0.3,1.5,1.1,1.2,2.2C52,96,52,96.5,52,97c0,16.6,0,33.2,0,49.7c0,0.4,0,0.8-0.1,1.2
		c-0.2,0.8-0.8,1.3-1.6,1.2c-0.8-0.1-1.4-0.6-1.5-1.4c0-0.3,0-0.7,0-1c0-16.6,0-33.2,0-49.7c0-0.9-0.2-1.3-1-1.7
		c-2.8-1.7-4.7-4.2-6.3-7.1c-3.6-6.6-5.7-13.5-5.6-21.1c0.1-11.7,0-23.4,0-35.1c0-3,1-5.6,3.3-7.6c2.6-2.3,7-2.6,9.9-0.6
		C49.4,24,49.6,24.2,50.1,24.5z"/>
	<circle class="st10" cx="57" cy="73.4" r="1.2"/>
	<circle class="st10" cx="50.9" cy="83" r="1.2"/>
	<circle class="st10" cx="61.4" cy="81.4" r="1.2"/>
	<circle class="st10" cx="69.9" cy="69.4" r="1.2"/>
	<circle class="st10" cx="58.1" cy="64.2" r="1.2"/>
	<circle class="st10" cx="72.5" cy="60.1" r="1.2"/>
	<circle class="st10" cx="72.2" cy="79.1" r="1.2"/>
	<circle class="st10" cx="91.7" cy="78.4" r="1.2"/>
	<circle class="st10" cx="80" cy="75.7" r="1.2"/>
	<circle class="st10" cx="83.3" cy="65.6" r="1.2"/>
	<circle class="st10" cx="71.5" cy="90.1" r="1.2"/>
	<circle class="st10" cx="82" cy="85.9" r="1.2"/>
	<circle class="st10" cx="61.6" cy="93.6" r="1.2"/>
	<circle class="st10" cx="68" cy="100.1" r="1.2"/>
	<circle class="st10" cx="76.4" cy="111.2" r="1.2"/>
	<circle class="st10" cx="61.6" cy="123.7" r="1.2"/>
	<circle class="st10" cx="57.6" cy="132.5" r="1.2"/>
	<circle class="st10" cx="82.1" cy="106.6" r="1.2"/>
	<circle class="st10" cx="79.9" cy="96.8" r="1.2"/>
	<circle class="st10" cx="60.3" cy="103.7" r="1.2"/>
	<circle class="st10" cx="66.3" cy="113" r="1.2"/>
	<circle class="st10" cx="71.5" cy="121.9" r="1.2"/>
	<circle class="st10" cx="67.5" cy="130.5" r="1.2"/>
	<circle class="st10" cx="82.4" cy="138.6" r="1.2"/>
	<circle class="st10" cx="59.9" cy="140.9" r="1.2"/>
	<circle class="st10" cx="71.8" cy="138.8" r="1.2"/>
	<circle class="st10" cx="80.4" cy="118.5" r="1.2"/>
	<circle class="st10" cx="82.6" cy="126.2" r="1.2"/>
	<circle class="st10" cx="72.4" cy="105.5" r="1.2"/>
	<circle class="st10" cx="58.2" cy="113.5" r="1.2"/>
</g>
</svg>
