<?xml version="1.0" encoding="utf-8"?>
<!-- Generator: Adobe Illustrator 24.3.0, SVG Export Plug-In . SVG Version: 6.00 Build 0)  -->
<svg version="1.1" id="Layer_1" xmlns="http://www.w3.org/2000/svg" xmlns:xlink="http://www.w3.org/1999/xlink" x="0px" y="0px"
	 viewBox="0 0 150 150" style="enable-background:new 0 0 150 150;" xml:space="preserve">
<style type="text/css">
	.st0{fill:#075CAA;}
</style>
<g>
	<path class="st0" d="M87.4,0.6c0.9,0.5,2,0.6,2.9,0.9c10.6,3.3,19.6,9,26.5,17.8c3.1,4,5.1,8.5,6.7,13.2c2.6,7.2,4.4,14.5,6.3,21.9
		c1.7,7.1,3.2,14.2,5.2,21.3c0.6,2.1,0.6,2.1-1,3.6c-8,7.3-16.9,13.2-27.2,16.9c-0.4,0.2-0.6,0.4-0.8,0.8
		c-2.7,5.5-6.2,10.2-11.2,13.7c-1.1,0.8-1.4,1.5-1.2,2.8c1,5.3,2.4,10.4,5.2,15c0.7,1.1,1.5,2.1,2.3,3.1c2.9,3.6,6.9,5.3,11.3,6
		c4.1,0.7,8.3,0.9,12.4,1.5c3.7,0.5,7.4,1.1,10.8,2.7c3.2,1.5,5.5,3.8,6.6,7.2c0,0.1,0.1,0.2,0.1,0.4c-0.9,0-1.8,0-2.7,0
		c0-0.2-0.1-0.3-0.1-0.5c-1.2-2.6-3.2-4.1-5.8-5.2c-3.8-1.5-7.8-1.9-11.7-2.4c-3.8-0.4-7.6-0.7-11.3-1.5c-3.2-0.7-6.1-1.7-8.7-3.8
		c-3.1-2.6-5.4-5.7-7.1-9.3c-2-4.1-3.1-8.5-3.9-13c-0.1-0.6-0.3-0.6-0.7-0.4c-0.4,0.2-0.8,0.4-1.2,0.6c-2.2,1-4.6,1.6-7,2.2
		c-0.9,0.1-1.8,0.2-2.7,0.4c-0.3-0.1-0.6,0.1-0.9,0.1c-2.7,0.2-5.5,0.1-8.2-0.1c-0.9-0.1-1.8-0.3-2.7-0.4c-3-0.6-5.9-1.6-8.7-3
		c-0.3,1.6-0.6,3.2-1,4.7c-1.2,5-3,9.8-6.1,14c-3,4-6.7,6.7-11.6,7.8c-3.1,0.7-6.3,1.1-9.5,1.4c-3.6,0.4-7.2,0.7-10.8,1.5
		c-2.7,0.6-5.3,1.5-7.5,3.4c-1,0.9-1.9,2-2.2,3.4c-0.9,0-1.8,0-2.7,0c0.6-2.6,2.1-4.5,4.2-6.1c2.5-1.9,5.5-2.8,8.5-3.4
		c3.9-0.8,7.8-1.1,11.7-1.5c3.7-0.4,7.4-0.8,10.9-2.3c2.9-1.2,5.1-3.4,6.9-5.8c3-4,4.6-8.5,5.7-13.3c0.3-1.5,0.6-3,0.9-4.5
		c0.1-0.4,0.1-0.7-0.3-1c-5.4-3.6-9.3-8.5-12.1-14.4c-0.3-0.5-0.6-0.8-1.2-1c-8.3-3-15.7-7.5-22.5-13c-1.8-1.4-3.5-2.9-5.1-4.5
		c-0.6-0.6-0.8-1.1-0.5-1.9c1.7-5.5,2.8-11.2,4.2-16.8c2.1-8.9,4.3-17.9,7.3-26.6c1.8-5.2,4-10.3,7.5-14.6
		c6.5-8,14.8-13.4,24.5-16.7c1.4-0.5,2.9-0.9,4.4-1.3C71,0.6,79.2,0.6,87.4,0.6z M107.9,93.1c9.2-3.6,17.2-9.1,24.5-15.7
		c0.3-0.3,0.3-0.5,0.2-0.8c-1.8-6.4-3.2-12.9-4.7-19.3c-2-8.1-4-16.3-6.8-24.2c-1.5-4.2-3.3-8.4-6.1-12C105.3,8.9,92.5,2.8,77.1,1.9
		c-7.8-0.5-15.2,1-22.4,4.2c-12,5.3-21,13.6-25.5,26.3c-3,8.7-5.3,17.6-7.4,26.5c-1.4,5.9-2.7,11.9-4.3,17.7
		c-0.1,0.5,0.1,0.7,0.4,0.9c6.2,5.7,13,10.4,20.6,14c1.3,0.6,2.6,1.2,4,1.7c-0.1-0.2-0.1-0.3-0.1-0.4c-1.2-3.4-2.2-6.8-2.7-10.4
		c-0.2-1.3-0.7-2-1.7-2.7C34,76.7,31.5,73,31.3,68c-0.2-4.4,1.9-8.5,6.5-9.7c0.4-0.1,0.5-0.4,0.6-0.7c0.6-2.1,1.5-4.1,2.6-6
		c5.5-9.7,13.8-14.8,25-14.9c6-0.1,11.7,1.3,17.4,3.2c2.3,0.8,4.5,1.8,6.8,2.6c0,0,0.1,0.1,0.1,0.1c0.1,0,0.1-0.1,0-0.2
		c-0.7-1.2-1.4-2.4-2.1-3.6c-0.3-0.5-0.5-1.1-0.1-1.7c0.4-0.6,1-0.6,1.7-0.4c5.8,1.5,11.1,3.9,15.8,7.5c4.4,3.4,6.6,7.8,6.8,13.3
		c0,0.4,0.2,0.6,0.6,0.7c2.9,0.9,4.7,2.9,5.6,5.8c0.7,2.3,0.6,4.7-0.1,7c-1.1,3.9-3.7,6.7-6.9,9c-0.5,0.3-0.6,0.7-0.7,1.2
		c-0.2,1.1-0.3,2.2-0.6,3.3c-0.5,2.8-1.4,5.6-2.3,8.3c0,0-0.1,0.1-0.1,0.1C107.7,93.2,107.8,93.1,107.9,93.1z M91.8,40.2
		c1,1.7,1.9,3.3,2.9,4.8c0.4,0.6,0.4,1.2-0.1,1.7c-0.5,0.5-1.1,0.5-1.7,0.2c-2.6-1.4-5.2-2.6-8-3.6c-5.8-2.2-11.8-3.8-18-4
		c-4.7-0.1-9.2,0.7-13.4,3c-6.8,3.7-10.8,9.6-13,16.8c-0.3,0.9-0.7,1.4-1.6,1.5c-2.3,0.4-3.8,1.7-4.6,3.8c-0.9,2.3-0.6,4.7,0.2,7
		c1.2,3.2,3.5,5.4,6.3,7.2c0.6,0.4,0.9,0.8,0.9,1.5c0.8,6.5,2.6,12.7,5.9,18.4c3.6,6.2,8.4,11,15.2,13.6c5.6,2.2,11.5,2.6,17.4,1.7
		c7-1,13-4,17.7-9.3c6.1-6.9,9-15.2,10.2-24.2c0.1-0.8,0.3-1.3,1-1.7c0.9-0.5,1.7-1.2,2.5-1.9c2.9-2.6,4.7-5.7,4.5-9.8
		c-0.1-3.5-2.3-6-5.5-6.4c-0.9-0.1-1.2-0.7-1.2-1.6c0.2-4.4-1-8.2-4.3-11.3c-3.8-3.5-8.3-5.8-13.2-7.5C92.1,40.2,92,40.2,91.8,40.2z
		"/>
	<path class="st0" d="M142.6,96.1c-1.9,1.1-3.9,2.2-5.8,3.3c-5.3,3-10.6,6.1-15.9,9.1c-0.4,0.2-0.7,0.4-1.1,0.6
		c-0.6,0.3-1.4,0-1.7-0.5c-0.3-0.6-0.2-1.3,0.5-1.7c1.8-1.1,3.7-2.1,5.5-3.2c5.6-3.2,11.1-6.4,16.7-9.6c0.6-0.3,1.1-0.8,1.8-0.9
		C142.6,94.2,142.6,95.2,142.6,96.1z"/>
	<path class="st0" d="M7.4,93.3c0.4,0,0.8,0.2,1.1,0.4c7.5,4.3,15,8.6,22.5,12.9c0.4,0.3,1,0.5,1.1,1c0.1,0.5,0.1,1-0.4,1.3
		c-0.5,0.4-1.1,0.4-1.6,0.1c-1.6-0.9-3.2-1.8-4.8-2.7c-5.5-3.2-11-6.3-16.5-9.5c-0.4-0.3-0.8-0.6-1.4-0.7
		C7.4,95.2,7.4,94.2,7.4,93.3z"/>
	<path class="st0" d="M20.5,132.1c-0.1-0.5,0.2-0.8,0.7-1.1c2.2-1.5,4.5-3,6.7-4.5c1.8-1.2,3.6-2.4,5.4-3.6c1-0.7,2-0.3,2.2,0.7
		c0.1,0.7-0.3,1.1-0.9,1.5c-3.3,2.1-6.5,4.3-9.8,6.5c-0.8,0.5-1.6,1.1-2.5,1.6C21.4,133.8,20.5,133.2,20.5,132.1z"/>
	<path class="st0" d="M23.4,117.2c-2.4,0-4.8,0-7.2,0c-1,0-1.5-0.5-1.5-1.3c0-0.8,0.5-1.3,1.5-1.3c4.8,0,9.7,0,14.5,0
		c1,0,1.5,0.4,1.5,1.3c0,0.8-0.5,1.3-1.5,1.3C28.2,117.2,25.8,117.2,23.4,117.2z"/>
	<path class="st0" d="M129.7,132.2c-0.1,0.5-0.3,0.9-0.7,1.1c-0.5,0.3-1,0.1-1.4-0.2c-1.9-1.2-3.8-2.5-5.6-3.7
		c-2.2-1.4-4.4-2.9-6.6-4.3c-0.5-0.3-0.8-0.8-0.7-1.4c0.1-0.5,0.5-0.8,1-1c0.4-0.1,0.8,0.1,1.1,0.3c4.1,2.7,8.2,5.4,12.3,8.1
		C129.5,131.3,129.6,131.7,129.7,132.2z"/>
	<path class="st0" d="M126.8,114.7c2.4,0,4.8,0,7.1,0c0.9,0,1.6,0.5,1.6,1.3c0,0.7-0.6,1.2-1.5,1.2c-4.8,0-9.6,0-14.4,0
		c-1,0-1.6-0.5-1.6-1.3c0-0.7,0.7-1.2,1.6-1.2C121.9,114.7,124.3,114.7,126.8,114.7z"/>
	<path class="st0" d="M70.5,116.5c0.3,1.8,0.4,3.5,0.4,5.3c0,0.8-0.3,1.3-0.9,1.7c-2,1.3-3.3,3-4,5.3c-1.1,3.6,0.3,8,3.5,10.1
		c1,0.7,1.4,1.4,1.4,2.6c-0.1,2.6,0,5.2,0,7.9c-0.8,0-1.7,0-2.5,0c0-2.5,0-5,0-7.5c0-0.5-0.1-0.8-0.5-1.1c-6.2-4.7-6.3-14-0.1-18.8
		c0.7-0.5,0.7-1.1,0.6-1.7c-0.1-1.4-0.2-2.8-0.6-4.2C68.7,116.2,69.6,116.4,70.5,116.5z"/>
	<path class="st0" d="M79.2,149.3c0-2.8,0-5.7,0-8.5c0-0.8,0.3-1.2,0.9-1.6c2.7-1.8,4.2-4.4,4.3-7.6c0.1-3.5-1.5-6.2-4.4-8.1
		c-0.6-0.4-0.8-0.8-0.8-1.5c-0.1-1.8,0.2-3.6,0.4-5.5c0.9-0.1,1.8-0.2,2.7-0.4c-0.2,1.6-0.5,3.1-0.5,4.7c0,0.5,0.2,0.7,0.5,1
		c3.2,2.5,4.8,5.9,4.7,10c-0.2,3.6-1.7,6.6-4.6,8.8c-0.4,0.3-0.6,0.7-0.6,1.2c0,2.5,0,4.9,0,7.4C80.9,149.3,80.1,149.3,79.2,149.3z"
		/>
	<path class="st0" d="M75,102.5c-2.2,0-4.3,0-6.5,0c-1,0-1.5-0.5-1.5-1.5c0-4,3.4-7.6,7.4-7.8c4.3-0.2,8,2.8,8.5,6.9
		c0,0.3,0.1,0.6,0.1,0.9c0,0.9-0.5,1.4-1.4,1.4C79.4,102.5,77.2,102.5,75,102.5z M69.8,100c0.3,0,0.5,0,0.8,0c2.8,0,5.6,0,8.4,0
		c0.4,0,1.1,0.2,1.2-0.1c0.2-0.4-0.2-0.9-0.5-1.3c-1.1-2-3.4-3-5.6-2.7C72,96.2,70.2,97.9,69.8,100z"/>
	<path class="st0" d="M73.3,69.7c-0.6,3.8,1.1,6.6,3.7,9.1c0.7,0.7,1.5,1.5,2,2.4c0.9,1.7,0.5,3.2-1.2,4.1c-1.2,0.6-2.4,0.9-3.7,1.1
		c-0.8,0.1-1.4-0.3-1.5-1c-0.1-0.8,0.2-1.3,1.1-1.5c0.8-0.2,1.7-0.3,2.5-0.7c0.9-0.4,0.9-0.5,0.4-1.2c-0.4-0.6-1-1.1-1.5-1.6
		c-2-2-3.6-4.3-4.2-7.2c-0.3-1.3-0.3-2.6-0.1-3.8c0.1-0.8,0.7-1.2,1.4-1.2C72.9,68.4,73.3,68.9,73.3,69.7z"/>
	<path class="st0" d="M58.4,62.7c1.9,0,3.6,0.5,5.2,1.6c0.8,0.5,1,1.3,0.6,1.9c-0.4,0.6-1.2,0.7-2,0.2c-2.5-1.7-5.1-1.4-7.7-0.2
		c-0.2,0.1-0.4,0.2-0.7,0.3c-0.7,0.3-1.4,0.2-1.7-0.4c-0.3-0.6-0.2-1.3,0.5-1.7C54.4,63.3,56.4,62.7,58.4,62.7z"/>
	<path class="st0" d="M91.6,62.7c2,0.1,3.9,0.6,5.7,1.6c0.8,0.5,1.1,1.2,0.7,1.8c-0.4,0.7-1.1,0.8-1.9,0.4c-2-1.1-4.1-1.6-6.3-1
		c-0.7,0.2-1.3,0.5-1.9,0.9c-0.7,0.5-1.5,0.4-1.9-0.3c-0.4-0.6-0.3-1.3,0.5-1.8C87.9,63.2,89.7,62.7,91.6,62.7z"/>
	<path class="st0" d="M95,73.4c0,0.8-0.8,1.5-1.6,1.2c-1.9-0.6-3.8-0.5-5.7,0c-0.9,0.2-1.6-0.1-1.8-0.9c-0.2-0.7,0.3-1.3,1.1-1.6
		c2.3-0.6,4.5-0.7,6.8-0.1C94.5,72.3,94.9,72.7,95,73.4z"/>
	<path class="st0" d="M59.3,71.7c1.2,0,2.5,0.2,3.7,0.5c0.9,0.2,1.3,0.8,1.1,1.6c-0.2,0.7-0.8,1.1-1.7,0.9c-1.9-0.5-3.8-0.6-5.7,0
		c-0.6,0.2-1.3-0.2-1.5-0.9c-0.2-0.7,0.1-1.4,0.9-1.6C57.1,71.8,58.2,71.7,59.3,71.7z"/>
	<path class="st0" d="M80.4,131.4c0,3-2.4,5.3-5.4,5.4c-2.4,0-5.4-1.7-5.4-5.3c0-3.1,2.3-5.5,5.4-5.5
		C78.4,125.9,80.5,128.6,80.4,131.4z M75,134.2c1.6,0,2.9-1.3,2.9-2.9c0-1.6-1.2-2.9-2.9-2.9c-1.5,0-2.9,1.3-2.9,2.9
		C72.1,132.8,73.5,134.2,75,134.2z"/>
</g>
</svg>
