<?xml version="1.0" encoding="utf-8"?>
<!-- Generator: Adobe Illustrator 24.3.0, SVG Export Plug-In . SVG Version: 6.00 Build 0)  -->
<svg version="1.1" id="Layer_1" xmlns="http://www.w3.org/2000/svg" xmlns:xlink="http://www.w3.org/1999/xlink" x="0px" y="0px"
	 viewBox="0 0 150 150" style="enable-background:new 0 0 150 150;" xml:space="preserve">
<style type="text/css">
	.st0{fill:#005BAB;}
</style>
<g>
	<path class="st0" d="M139.1,86.8c-1.1,1.4-2.1,2.6-3,3.8c-1.2-0.8-2.3-1.6-3.5-2.4c0.8-1.4,1.6-2.7,2.5-4.2
		C136.4,85,137.7,85.9,139.1,86.8z"/>
	<path class="st0" d="M128.7,86.4c-1.4-0.4-2.6-0.9-4-1.3c0.4-1.5,0.8-3.1,1.2-4.8c1.6,0.5,3.1,1,4.7,1.5
		C129.9,83.4,129.3,84.9,128.7,86.4z"/>
	<path class="st0" d="M142.8,90.2c1.1,1.3,2.1,2.5,3.2,3.7c-1.4,1-2.6,1.9-4,2.9c-0.9-1.1-1.8-2.1-2.6-3.1
		C140.5,92.6,141.6,91.5,142.8,90.2z"/>
	<g>
		<path class="st0" d="M1,99.9c0.3-2.3,0.4-4.7,0.8-7c1.9-11.5,3.8-23.1,6-34.5c1.4-7.4,2.9-14.7,4.8-22c1.6-6.1,3.8-12.1,6-18.1
			c1.2-3.2,3.8-5.2,7.2-5.9c7.9-1.8,15.9-3.5,23.9-5.1c4.9-1,9.2,0.7,12.3,4.6c2.1,2.6,3.9,5.3,5.8,8.1c2.4,3.6,2.2,8.1-0.6,11.6
			c-1.4,1.7-2.8,3.3-4.2,5.1c2.2,2.7,2.6,5.6,1,8.7c-1.4,2.8-3.7,4.3-6.7,4.5c-4.2,0.3-8.1-0.9-11.9-2.5c-2.1-0.9-4.1-1.9-6.1-2.9
			c-0.4-0.2-0.8-0.4-1.6-0.8c-0.4,4.8-1.1,9.2-1.2,13.7c-0.1,13.2,0.1,26.5,0.2,39.7c0,0.6,0.5,1.3,1,1.7c4.7,3.4,9.9,4.4,15.5,3.2
			c11.8-2.5,23.5-2.2,35.3-0.6c2.3,0.3,4.5,0.2,6.8-0.5c13.4-4.1,26.9-4.7,40.5-1.2c8.9,2.3,14.4,10.6,13.1,19.7
			c-0.6,3.8-1.3,7.7-2.3,11.4c-1.7,6.2-5.6,10-12.3,10.9c-14,2-27.8,1.3-41.4-3.1c-1.5-0.5-2.9-1.3-4.4-1.9
			c-0.5-0.2-1.1-0.4-1.6-0.2c-7,2.5-14.3,3.6-21.7,4c-11.9,0.6-23.8,0.3-35.5-2.1c-4.8-1-9.4-2.5-13.7-4.7
			c-8.5-4.4-13.4-11.2-14.3-20.8c-0.1-1.4-0.4-2.8-0.6-4.3C1,105.9,1,102.9,1,99.9z M93.4,133.9c0.8,0.3,1.4,0.5,2.1,0.8
			c6,2,12.3,2.9,18.6,3.3c7.4,0.5,14.7,0.4,22-1.4c1.6-0.4,2.8-1.2,3.7-2.6c0.7-1.1,1.5-2.2,1.8-3.5c0.9-3.7,1.8-7.5,2.4-11.3
			c1.1-6.9-3-12.9-9.7-14.6c-13.6-3.4-27-2.6-40.2,2.1c-0.6,0.2-1.2,0.3-1.8,0.2c-1.3-0.1-2.7-0.3-4-0.5c-11.5-1.6-23-1.8-34.5,0.5
			c-7.7,1.6-14.6-0.2-20.6-5.4c-0.7-0.6-1.3-1.8-1.3-2.7c-0.6-16.1-1.3-32.3,0.2-48.4c0.3-3.5,1.1-6.9,2-10.3
			c0.7-2.6,2.2-2.8,4.7-1.6c3.7,1.9,7.5,3.8,11.4,5.3c2.1,0.8,4.6,0.9,6.9,1.1c1.5,0.1,2.5-1,2.9-2.6c0.3-1.3-0.3-2.4-1.3-2.9
			c-1.4-0.7-3-1.1-4.5-1.6c-1.6-0.5-3.3-0.8-4.7-1.7c-3.5-2.3-5.5-5.8-7.5-9.5c1.5-0.8,2.9-1.5,4.4-2.2c1.4,2.5,2.9,4.9,4.9,6.8
			c0.1-0.1,0.2-0.1,0.4-0.2c0-1.8,0-3.6,0-5.4c1.7,0,3.2,0,5.1,0c-0.4,2.5-0.8,4.9-1.2,7.3c0.7,0.2,1.6,0.3,2.4,0.6
			c0.9,0.4,1.4,0.2,1.9-0.6c1.1-1.4,2.3-2.8,3.4-4.1c1.8-2.2,1.9-4.2,0.2-6.6c-1.6-2.3-3.2-4.6-4.9-6.8c-2-2.7-4.7-3.9-7.9-3.3
			c-8,1.6-15.9,3.4-23.8,5.1c-1.8,0.4-3.1,1.5-3.6,3.2c-1.9,5.6-4.2,11.2-5.6,17c-4,17.1-7.7,34.3-10.2,51.7
			c-1.1,7.8-1.7,15.7-0.7,23.6c0.9,7.7,4.7,13.2,11.5,16.7c5.8,3.1,12,4.6,18.4,5.4c11.2,1.5,22.4,1.8,33.6,0.5
			c8.5-0.9,16.9-2.5,23.9-8.1c1.2,1,2.5,1.9,3.9,3C96.2,131.6,94.9,132.6,93.4,133.9z"/>
		<path class="st0" d="M107.5,56.9c1.3-1.1,2.5-2,3.8-3.1c1.7,2.2,3.4,4.3,5.4,6.7c0-13.4,0-26.4,0-39.5c1.7,0,3.3,0,5,0
			c0,13.1,0,26.1,0,39.5c2-2.4,3.6-4.5,5.4-6.7c1.3,1,2.5,2,3.8,3c-0.4,0.6-0.8,1-1.1,1.5c-2.7,3.4-5.5,6.8-8.2,10.3
			c-1.6,2-3.1,2-4.7,0C113.8,64.8,110.7,60.9,107.5,56.9z"/>
		<path class="st0" d="M82.4,67.5c0-5.3,0-10.6,0-15.9c0-5.2,0-10.5,0-15.8c1.6,0,3.2,0,4.9,0c0,10.6,0,21.1,0,31.7
			c0.1,0,0.2,0.1,0.3,0.1c1.7-2.1,3.4-4.2,5.2-6.4c1.3,1,2.5,2,3.8,3.1c-2.7,3.4-5.4,6.7-8,10c-0.6,0.7-1.1,1.4-1.7,2.1
			c-1.2,1.4-2.8,1.4-4,0.1c-3.3-4-6.5-8-9.8-12.2c1.3-1,2.5-2,3.8-3.1c1.7,2.2,3.4,4.3,5.2,6.4C82.2,67.6,82.3,67.5,82.4,67.5z"/>
		<path class="st0" d="M92.8,91.3c-0.7,1.5-1.3,2.9-2,4.5c-1.4-0.5-2.7-1-4.2-1.6c0.5-1.5,1-3,1.6-4.6
			C89.8,90.1,91.2,90.7,92.8,91.3z"/>
		<path class="st0" d="M83.6,88c-0.5,1.7-0.9,3.1-1.3,4.7c-1.5-0.3-2.8-0.6-4.4-1c0.3-1.6,0.6-3.1,0.9-4.8
			C80.5,87.3,81.9,87.6,83.6,88z"/>
		<path class="st0" d="M59.3,86.8c1.7-0.2,3.2-0.4,4.9-0.7c0.2,1.7,0.3,3.2,0.5,4.9c-1.5,0.2-2.8,0.4-4.4,0.6
			C60,90,59.7,88.4,59.3,86.8z"/>
		<path class="st0" d="M54.5,88c0.5,1.6,1,3.1,1.5,4.7c-1.3,0.5-2.6,1-4.1,1.6c-0.7-1.4-1.3-2.9-2.1-4.4
			C51.4,89.2,52.9,88.6,54.5,88z"/>
		<path class="st0" d="M120.5,84.2c-1.5,0-2.8,0-4.3,0c0-1.6,0-3.1,0-4.8c1.5,0,3,0,4.8,0C120.8,81.2,120.7,82.7,120.5,84.2z"/>
		<path class="st0" d="M99.2,87.8c-0.7-1.6-1.3-2.9-1.9-4.5c1.5-0.6,3-1.1,4.6-1.7c0.5,1.6,0.9,3.1,1.4,4.7
			C101.9,86.9,100.6,87.3,99.2,87.8z"/>
		<path class="st0" d="M111.9,84.6c-1.5,0.2-2.9,0.5-4.3,0.7c-0.3-1.6-0.6-3.1-1-4.8c1.5-0.3,3-0.5,4.7-0.8
			C111.5,81.4,111.7,82.9,111.9,84.6z"/>
		<path class="st0" d="M69.2,85.9c1.7,0.1,3.2,0.2,4.8,0.2c-0.2,1.7-0.3,3.2-0.5,4.7c-1.5,0-2.9,0-4.3,0
			C69.2,89.2,69.2,87.7,69.2,85.9z"/>
		<path class="st0" d="M45.4,92.2c0.8,1.4,1.6,2.7,2.5,4.2c-1.5,0.7-2.9,1.3-4.5,2.1c-0.6-1.5-1.2-3-1.8-4.5
			C42.9,93.3,44.1,92.8,45.4,92.2z"/>
	</g>
</g>
<g>
	<path class="st0" d="M-70.7,292.4c5.6,0,10.9,0,16.3,0c-11.6-10.4-7.7-25.1,0.3-31.1c8.9-6.7,22.3-5.3,29.1,5.6
		c0.3-0.3,0.6-0.5,0.9-0.8c11.8-11.1,25.6-15.4,41.6-13c3.5,0.5,6.2,2.3,7.9,5.4c0.6,1.1,1.2,1.3,2.4,1.3c8,0,16.1,0,24.1,0
		c12.1,0,20.8,8.7,20.8,20.8c0,21.3,0,42.5,0,63.8c0,0.5,0,1-0.1,1.4c-0.2,1.1-0.9,1.9-2,1.6c-0.7-0.2-1.4-0.9-1.9-1.6
		c-0.3-0.3-0.1-1-0.1-1.6c0-6.8,0-13.6,0-20.4c0-0.6,0-1.2,0-1.8c-46.5,0-92.8,0-139.4,0c0,0.6,0,1.2,0,1.7c0,6.8,0,13.6,0,20.4
		c0,0.5,0,1-0.1,1.4c-0.2,1.1-0.8,1.9-2,1.8c-1.2,0-1.8-0.8-1.9-1.9c0-0.4,0-0.9,0-1.3c0-33.3,0-66.6,0-99.9c0-0.3,0-0.6,0-1
		c0-1.3,0.5-2.2,1.9-2.3c1.3-0.1,2,0.7,2.1,2.2c0,0.5,0,1,0,1.4c0,15.1,0,30.1,0,45.2C-70.7,290.8-70.7,291.5-70.7,292.4z
		 M-70.6,296.6c0,7.2,0,14.3,0,21.3c46.5,0,92.8,0,139.1,0c0-7.2,0-14.2,0-21.3C22.1,296.6-24.2,296.6-70.6,296.6z M10.7,268.4
		c-5,0.3-9.7,0.9-14,3c-1.1,0.5-1.6,1.2-1.6,2.6c0.1,4.5,0,9,0,13.6c0,1.6,0,3.2,0,4.8c24.6,0,49,0,73.5,0c0-2,0-3.9,0-5.8
		c0-3.1,0.2-6.2-0.3-9.2c-1.2-8-7.8-13.4-16.2-13.4c-7.9-0.1-15.9,0-23.8,0c-0.5,0-0.9,0.1-1.5,0.1c0,4.4,0,8.6,0,12.9
		c0,2-0.4,3.9-1.7,5.5c-2.1,2.8-5.7,3.9-9,2.9c-3.3-1-5.6-4-5.6-7.5C10.7,274.8,10.7,271.7,10.7,268.4z M-8.9,292.4
		c0-6.6,0.1-13,0-19.4c0-1.9,0.6-3.2,2.2-4.1c0.6-0.4,1.2-0.7,1.8-1c5.4-2.7,11.1-3.3,17-3.5c2.1,0,2.7,0.6,2.7,2.6
		c0,3.4,0,6.8,0,10.2c0,2.7,1.7,4.5,4.1,4.5c2.4,0,4.1-1.8,4.1-4.5c0-4.3,0-8.5,0-12.8c0-3.9-2.4-6.8-6.2-7.3
		c-15.2-2.2-28.2,2.3-39.1,13.1c-0.7,0.7-0.8,1.3-0.6,2.3c1.6,7.2-0.4,13.3-5.5,18.5c-0.4,0.4-0.8,0.9-1.3,1.4
		C-22.8,292.4-16,292.4-8.9,292.4z M-40.4,292.2c0-0.3,0.1-0.4,0.1-0.6c0-9.7,0-19.4,0-29.2c0-1.3-0.7-1.3-1.6-1.3
		c-6.1,0.2-10.9,2.8-13.8,8.2c-2.9,5.4-2.6,11,0.8,16.1C-51.7,290.4-45.4,293.2-40.4,292.2z M-36.3,291.2c5.8-1.8,10.2-8.5,9.8-15.1
		c-0.4-6.3-5-12.7-9.8-13.5C-36.3,272.1-36.3,281.5-36.3,291.2z"/>
	<path class="st0" d="M55,215.1c4.4,0,8.6,0,12.8,0c3.1,0,3.4,0.3,3.4,3.4c0,4.3,0,8.5,0,12.8c0,2.2-0.6,2.8-2.7,2.8
		c-4.4,0-8.8,0-13.5,0c0,1,0,2,0,2.9c0,3.6,0,7.1,0,10.7c0,2-0.7,2.7-2.7,2.7c-4.5,0-8.9,0-13.4,0c-2.1,0-2.8-0.7-2.8-2.8
		c0-4.4,0-8.8,0-13.5c-0.6,0-1.2,0-1.8,0c-3.9,0-7.9,0-11.8,0c-1.9,0-2.6-0.7-2.6-2.6c0-4.6,0-9.1,0-13.7c0-2,0.7-2.6,2.7-2.6
		c3.8,0,7.7,0,11.5,0c0.6,0,1.2,0,1.9,0c0-0.7,0.1-1.2,0.1-1.8c0-3.9,0-7.9,0-11.8c0-1.9,0.7-2.6,2.6-2.6c4.6,0,9.1,0,13.7,0
		c1.9,0,2.6,0.6,2.6,2.6c0,3.9,0,7.8,0,11.6C55,213.7,55,214.3,55,215.1z M67.1,219.1c-0.7,0-1.3,0-1.9,0c-3.6,0-7.2,0-10.8,0
		c-3.1,0-3.4-0.3-3.4-3.3c0-3.6,0-7.2,0-10.8c0-0.6,0-1.2,0-1.9c-3.7,0-7.2,0-10.8,0c0,0.6-0.1,1-0.1,1.5c0,4,0,8,0,12
		c0,1.9-0.7,2.6-2.6,2.6c-1.5,0-3,0-4.5,0c-3,0-6,0-9.1,0c0,3.7,0,7.2,0,10.9c0.7,0,1.3,0,1.8,0c3.8,0,7.7,0,11.5,0
		c2.1,0,2.8,0.7,2.8,2.7c0,2.2,0,4.5,0,6.7c0,2.2,0,4.4,0,6.6c3.7,0,7.2,0,10.9,0c0-4.6,0-9,0-13.5c0-1.9,0.7-2.6,2.6-2.6
		c3.9,0,7.9,0,11.8,0c0.6,0,1.1-0.1,1.7-0.1C67.1,226.2,67.1,222.8,67.1,219.1z"/>
</g>
</svg>
