<?xml version="1.0" encoding="utf-8"?>
<!-- Generator: Adobe Illustrator 24.3.0, SVG Export Plug-In . SVG Version: 6.00 Build 0)  -->
<svg version="1.1" id="Layer_1" xmlns="http://www.w3.org/2000/svg" xmlns:xlink="http://www.w3.org/1999/xlink" x="0px" y="0px"
	 viewBox="0 0 150 150" style="enable-background:new 0 0 150 150;" xml:space="preserve">
<style type="text/css">
	.st0{fill:#005BAB;}
</style>
<g>
	<path class="st0" d="M149,65.2c-0.7,1.1-1.5,1.8-2.8,1.4c-1.3-0.4-1.5-1.6-1.5-2.8c0-2.1-0.1-4.1,0-6.2c0.2-3.6-1.3-6.2-4.2-8.2
		c-4-2.7-6.7-6.4-8.4-10.9c-0.4-1.2-0.7-2.4-1.1-3.7c-0.5,0-1,0-1.4,0c-15,0-30,0-44.9,0c-1.2,0-1.8,0.3-2,1.6
		c-0.2,1-0.6,1.9-0.8,2.8c1.4,0.8,2.8,1.6,4.3,2.4c0.5-1.5,1.9-1.8,3.5-1.7c6.5,0,12.9,0,19.4,0c0.6,0,1.4-0.1,1.8,0.3
		c0.6,0.5,1.3,1.4,1.2,2c-0.1,0.7-0.9,1.4-1.6,1.9c-0.3,0.3-1,0.1-1.6,0.1c-7.1,0-14.2,0-21.1,0c0,7.4,0,14.8,0,22.4
		c0.8,0,1.4,0,2,0c14.6,0,29.2,0,43.8,0c3.1,0,3.5,0.5,3.5,3.5c0,14.9,0,29.8,0,44.7c0,2.8-0.6,3.4-3.4,3.4c-9.9,0-19.8,0-29.8,0
		c-0.5,0-1.1,0-1.8,0c2.5,5.9,2.5,11.7-0.3,17.6c3.1,0,5.9,0,8.7,0c0.6,0,1.4-0.2,1.8,0.1c0.7,0.4,1.5,1.1,1.7,1.8
		c0.3,1-0.3,1.9-1.4,2.2c-0.5,0.2-1.1,0.2-1.7,0.2c-3.7,0-7.4,0-11.1,0c-0.6,0-1.4,0.3-1.9,0.8c-6.4,6.2-15.7,7.5-23.6,3.2
		c-0.8-0.4-1.4-0.5-2.2,0c-10.6,5.7-23.2,1.2-28-9.9c-0.1-0.3-0.3-0.6-0.4-0.5c-2.2,0.2-4.4,0.6-6.6,0.6c-9.2,0.1-18.4,0-27.6,0
		c-5.5,0-8.4-2.9-8.4-8.4c0-26.1,0-52.1,0-78.2c0-5.5,2.9-8.4,8.4-8.4c3.7,0,7.3,0,11,0c0.7,0,1.5,0,1.9,0.3
		c0.6,0.6,1.1,1.5,1.1,2.2c0,1-0.9,1.7-2,1.7c-2.1,0-4.2,0-6.4,0c-2,0-4,0-5.9,0c-2.7,0-3.8,1.2-3.8,3.8c0,26.3,0,52.5,0,78.8
		c0,2.6,1.2,3.8,3.8,3.8c9.7,0,19.5,0,29.2,0c3.6,0,4.3-0.7,4.3-4.3c0-0.2,0-0.5,0-1c-0.6,0-1.2,0-1.7,0c-8.2,0-16.5,0-24.7,0
		c-0.5,0-1,0-1.4-0.1c-1.3-0.2-2-1-2-2.2c0-1.2,0.8-2,2.2-2c1.4-0.1,2.9,0,4.3,0c7.7,0,15.3,0,23,0c1,0,1.4-0.3,1.8-1.2
		c4.5-11.2,17.4-15.8,28.1-10c0.8,0.4,1.4,0.6,2.2,0.1c2.4-1.4,5.1-2.2,7.9-2.4c0.3,0,0.6-0.1,1.1-0.2c0-0.6,0-1.1,0-1.6
		c0-19,0-38.1,0-57.1c0-3.3-1-4.3-4.3-4.3c-9.6,0-19.2,0-28.8,0c-1.7,0-3,0.4-4,2c-0.9,1.5-2.7,1.5-3.7-0.1c-0.9-1.5-2.2-2-3.9-1.9
		c-2.6,0-5.2,0-7.8,0c-1.7,0-2.5-0.8-2.6-2.1c0-1.3,0.9-2.1,2.5-2.2c0.4,0,0.8,0,1.2,0c4.1,0.4,8.3-1.1,12.1,1.5
		c3.8-2,7.9-1.5,11.9-1.5c6.2,0,12.4-0.1,18.6,0c1.8,0,2.7-0.5,3.1-2.1c0.2-0.7,0.4-1.5,0.7-2.4c-1.1,0-2,0-3,0
		c-2,0-2.8-0.8-2.8-2.8c0-8.6,0-17.2,0-25.7c0-1.9,0.8-2.7,2.7-2.7c5.2,0,10.3,0,15.5,0c15.7,0,31.3,0,47,0c3,0,3.5,0.5,3.5,3.4
		c0,8.1,0,16.2,0,24.3c0,3-0.5,3.5-3.6,3.5c-0.7,0-1.3,0-2.2,0c0.7,3.6,2.4,6.5,4.8,9c0.5,0.6,1.1,1.1,1.7,1.5
		c3.5,2.2,5.9,5.1,6.8,9.2C149,58,149,61.6,149,65.2z M87.8,70.9c0,10,0,19.8,0,29.6c15,0,29.8,0,44.7,0c0-9.9,0-19.8,0-29.6
		C117.5,70.9,102.7,70.9,87.8,70.9z M47,126.5c0,8.6,7,15.6,15.6,15.6c8.6,0,15.5-6.9,15.6-15.5c0-8.6-6.9-15.6-15.6-15.7
		C54,110.8,47,117.9,47,126.5z M77,112.8c4.3,4.8,6.1,10.4,5.3,16.9c2.4,0,4.7,0,7,0c1.7,0,2.7,0.8,2.7,2.2c0,1.3-1,2.1-2.7,2.2
		c-1.9,0-3.9,0.1-5.8,0c-1.7-0.1-2.7,0.3-3.4,2c-0.7,1.7-2,3.1-3,4.6c6.6,3.5,14.6,1.6,19.5-4.8c4.1-5.3,4.3-13.6-1.2-19.6
		C90.9,111.1,82.6,109.4,77,112.8z M132.6,105.1c-15,0-29.9,0-44.8,0c0,0.7,0,1.3,0,1.9c4.3,1,7.9,3,10.9,6.2
		c0.4,0.4,1.1,0.5,1.7,0.5c10.3,0,20.5,0,30.8,0c0.5,0,0.9,0,1.4,0C132.6,110.7,132.6,108,132.6,105.1z M97.3,30.3
		c0-7.5,0-14.9,0-22.4c-3.5,0-6.9,0-10.4,0c0,7.5,0,14.9,0,22.4C90.4,30.3,93.8,30.3,97.3,30.3z M112.2,30.3c0-7.6,0-15,0-22.4
		c-3.5,0-6.9,0-10.3,0c0,7.5,0,14.9,0,22.4C105.4,30.3,108.7,30.3,112.2,30.3z M127,7.9c-3.6,0-6.9,0-10.3,0c0,7.5,0,14.9,0,22.4
		c3.5,0,6.9,0,10.3,0C127,22.8,127,15.4,127,7.9z M82.5,7.9c-1.8,0-3.6,0-5.3,0c0,7.5,0,14.9,0,22.4c1.8,0,3.6,0,5.3,0
		C82.5,22.8,82.5,15.4,82.5,7.9z M136.9,7.9c-1.9,0-3.6,0-5.5,0c0,1.5,0,3,0,4.4c0,5.6,0,11.2,0,16.7c0,0.4,0.4,1.2,0.7,1.3
		c1.6,0.1,3.1,0.1,4.8,0.1C136.9,22.8,136.9,15.4,136.9,7.9z"/>
	<path class="st0" d="M149,129.6c-0.6,2.4-1.4,4.6-3,6.4c-2.4,2.6-5.4,3.9-8.8,3.9c-5.2,0.1-10.4,0-15.6,0c-1.2,0-2.3-0.5-2.4-1.7
		c-0.1-0.7,0.4-1.6,0.9-2.2c0.4-0.4,1.2-0.4,1.9-0.4c4.7,0,9.4,0,14.2,0c5.6,0,8.6-3,8.6-8.5c0-17.2,0-34.4,0-51.6c0-0.3,0-0.7,0-1
		c0-1.2,0.1-2.3,1.4-2.9c1.4-0.5,2.1,0.3,2.9,1.3C149,91.9,149,110.8,149,129.6z"/>
	<path class="st0" d="M46.7,78.2c0,8.9,0,17.7,0,26.6c0,0.5,0.2,1.2-0.1,1.6c-0.5,0.7-1.2,1.4-1.9,1.6c-1,0.3-1.8-0.4-2.2-1.4
		c-0.2-0.5-0.2-1.1-0.2-1.7c0-17.8,0-35.5,0-53.3c0-2.2,0.7-3.3,2.2-3.3c1.5,0,2.2,1.1,2.2,3.3C46.7,60.3,46.7,69.2,46.7,78.2z"/>
	<path class="st0" d="M23.8,103.4c-6.1,0-11.1-5-11.2-11.1c-0.1-6.1,5.2-11.3,11.2-11.2C30,81.2,35,86.3,35,92.3
		C34.9,98.5,29.9,103.4,23.8,103.4z M23.8,99.1c3.7,0,6.8-3,6.8-6.7c0-3.8-3.1-6.9-6.9-6.9c-3.7,0-6.8,3.2-6.8,6.9
		C17,96,20,99.1,23.8,99.1z"/>
	<path class="st0" d="M64.9,103.4c-6.1,0-11.1-4.9-11.1-11.1c0-6.1,4.9-11.1,11-11.2c6-0.1,11.3,5.1,11.3,11.2
		C76.1,98.4,71.1,103.4,64.9,103.4z M58.1,92.3c0,3.8,3,6.8,6.7,6.8c3.7,0,6.8-3,6.9-6.7c0.1-3.7-3.1-6.9-6.9-6.9
		C61.2,85.5,58.1,88.6,58.1,92.3z"/>
	<path class="st0" d="M23.7,53.3c6.1,0,11.1,4.8,11.2,11c0.1,6.1-5,11.3-11.2,11.3c-6.1,0-11.1-5.1-11.2-11.1
		C12.6,58.4,17.6,53.3,23.7,53.3z M23.7,71.2c3.7,0.1,6.8-2.9,6.9-6.7c0.1-3.7-2.9-6.9-6.6-6.9c-3.8-0.1-6.9,2.9-7,6.7
		C16.9,68,20,71.2,23.7,71.2z"/>
	<path class="st0" d="M53.8,64.2C54,57.9,59,53.1,65.2,53.3c6.1,0.2,11,5.3,10.9,11.2c-0.2,6.2-5.3,11.2-11.4,11
		C58.5,75.4,53.6,70.3,53.8,64.2z M58.1,64.4c0,3.7,3.1,6.8,6.8,6.8c3.7,0,6.8-3.1,6.8-6.8c0-3.8-3.1-6.9-6.9-6.8
		C61.1,57.6,58.1,60.7,58.1,64.4z"/>
	<path class="st0" d="M18.1,113.4c1,0,2,0,3,0c1.2,0.1,2,0.8,2,2c0.1,1.2-0.6,2.1-1.8,2.2c-2.2,0.1-4.4,0.1-6.6,0
		c-1.3-0.1-2-1.1-1.9-2.3c0.1-1.2,0.9-1.8,2.1-2c0.1,0,0.2,0,0.3,0C16.1,113.4,17.1,113.4,18.1,113.4
		C18.1,113.4,18.1,113.4,18.1,113.4z"/>
	<path class="st0" d="M118.6,44.1c-0.8,0-1.5,0.1-2.3,0c-1.2-0.1-1.8-0.9-1.9-2c-0.1-1.1,0.5-2,1.6-2.1c1.8-0.2,3.6-0.2,5.4,0
		c1.1,0.1,1.7,1,1.6,2.2c-0.1,1.2-0.8,1.8-2,1.9C120.2,44.1,119.4,44.1,118.6,44.1C118.6,44.1,118.6,44.1,118.6,44.1z"/>
	<path class="st0" d="M65.1,133.9c0,1.9-1.5,3-2.9,2.4c-0.5-0.2-0.9-0.6-1.3-0.9c-2.4-2.4-4.8-4.8-7.2-7.2c-1.3-1.3-1.5-2.6-0.5-3.5
		c1-1,2.2-0.9,3.5,0.4c2.5,2.4,4.9,4.9,7.3,7.4C64.6,132.9,64.9,133.6,65.1,133.9z"/>
	<path class="st0" d="M107,111.5c-2.7,0-5.4,0-8.1,0c-1.8,0-2.8-0.8-2.8-2.2c0-1.3,1-2.2,2.7-2.2c5.5,0,11,0,16.4,0
		c1.7,0,2.7,0.9,2.6,2.2c0,1.4-0.9,2.1-2.7,2.1C112.5,111.5,109.7,111.5,107,111.5z"/>
	<path class="st0" d="M18.8,92c0-0.2,0-0.6,0.1-1.1c0.2-1.1,1-1.6,2.1-1.6c1.4-0.1,2.2,1.1,2.2,3.1c0,1.9-0.8,2.9-2.2,2.9
		C19.5,95.3,18.8,94.4,18.8,92z"/>
	<path class="st0" d="M64.3,92.4c0,1.8-0.6,2.7-1.9,2.9c-1.4,0.1-2.3-0.8-2.4-2.4c-0.1-2.5,0.6-3.7,2.2-3.6
		C63.6,89.3,64.3,90.4,64.3,92.4z"/>
	<path class="st0" d="M18.8,64.1c0-0.2,0-0.6,0.1-1.1c0.3-1.2,1.6-2,2.8-1.5c1.5,0.6,1.4,2,1.4,3.3c0,1.2-0.4,2.2-1.7,2.5
		C19.9,67.8,18.8,66.6,18.8,64.1z"/>
	<path class="st0" d="M64.3,64.8c0,0.1,0,0.9-0.3,1.2c-0.5,0.6-1.2,1.2-1.9,1.3c-1.5,0.2-2.3-1.1-2.2-3.4c0-1.7,0.9-2.7,2.4-2.6
		C63.6,61.5,64.3,62.5,64.3,64.8z"/>
</g>
</svg>
