<?xml version="1.0" encoding="utf-8"?>
<!-- Generator: Adobe Illustrator 24.3.0, SVG Export Plug-In . SVG Version: 6.00 Build 0)  -->
<svg version="1.1" id="Layer_1" xmlns="http://www.w3.org/2000/svg" xmlns:xlink="http://www.w3.org/1999/xlink" x="0px" y="0px"
	 viewBox="0 0 150 150" style="enable-background:new 0 0 150 150;" xml:space="preserve">
<style type="text/css">
	.st0{fill:#CDEEFD;}
	.st1{fill:#111224;}
	.st2{fill:#005BAB;}
</style>
<path class="st0" d="M1465.3,1556.3c-2.4-0.2-4.3-1.3-4.4-4.1c-0.1-6.7,1.6-10,4.9-9.9c0.2,0,0.3,0,0.5,0c2.2,0.5,4.3,2.1,3.2,4
	C1467.7,1549.5,1473.1,1555.7,1465.3,1556.3z M1465.5,1554.4c1.3-0.1,2.3-0.6,2.3-2.1c-0.1-1.7-1.5-2.1-2.8-2.4c-1.6-0.4-2,0.8-2,2
	C1463,1553.5,1464,1554.2,1465.5,1554.4z M1467.8,1546.5c0-1.4-0.6-2.2-2.1-2.2c-0.9,0-1.6,0.4-1.7,1.4c-0.2,1.4,0.9,2.1,2,2.5
	C1467.3,1548.5,1467.6,1547.5,1467.8,1546.5z"/>
<path class="st0" d="M1455.8,1556.6c-0.5-2.9-1.8-4.2-4.6-3.6c-0.7,0.2-1.7,0.3-2.1-0.8c-0.4-1.1,0.1-1.5,1.2-2.1
	c2.1-1.2,2.1-3.9,3.2-5.8c0.6-1,1-2.2,2.5-1.9c1.4,0.3,0.9,1.6,0.8,2.5C1456.4,1548.6,1458.4,1552.5,1455.8,1556.6z"/>
<path class="st1" d="M1465.5,1554.4c-1.5-0.1-2.6-0.8-2.5-2.4c0-1.2,0.4-2.4,2-2c1.2,0.3,2.7,0.7,2.8,2.4
	C1467.8,1553.7,1466.8,1554.2,1465.5,1554.4z"/>
<path class="st1" d="M1467.8,1546.5c-0.2,1-0.5,2.1-1.8,1.7c-1.1-0.4-2.1-1-2-2.5c0.1-1,0.8-1.4,1.7-1.4
	C1467.2,1544.3,1467.8,1545,1467.8,1546.5z"/>
<g>
	<path class="st2" d="M106.1,0.6c1.9,0.4,3.8,0.8,5.6,1.4c3.5,1.1,6.2,3.3,8.2,6.4c0.3,0.5,0.9,1,1.4,1.1c4.5,1,7.7,3.6,10,7.4
		c2.9,4.7,4,10,4.2,15.4c0.4,10.2-2,19.9-5.9,29.2c-3.6,8.8-8.5,16.9-14.2,24.5c-0.5,0.7-0.8,1.7-0.9,2.6c-0.1,2.6-0.1,5.1,0,7.7
		c0,0.8,0.3,1.7,0.8,2.4c6,8.4,10.8,17.3,13.3,27.4c1.7,6.9,2.2,13.9,2.2,20.9c0,1.5-0.9,2.5-2.2,2.6c-1.3,0.1-2.2-0.7-2.4-2.2
		c-0.2-1.6-0.3-3.2-0.3-4.8c0.2-15.3-5.4-28.5-14.1-40.7c-0.1-0.1-0.2-0.2-0.3-0.3c-3,1.3-6.1,2.8-9.1,4c-8.8,3.6-17.8,6.2-27.3,6.8
		c-0.5,0-1.1,0.5-1.4,0.9c-5.1,8.5-8.7,17.5-10,27.4c-0.3,2.1-0.3,4.1-0.4,6.2c-0.1,1.8-0.9,2.7-2.4,2.7c-1.5,0-2.3-1-2.3-2.7
		c0.1-8.9,2.3-17.3,5.7-25.5c3.1-7.5,7.2-14.4,12.3-20.7c0.3-0.4,0.6-0.9,0.6-1.4c0.1-2.3,0-4.6,0-7.2c-2.5,0.6-4.9,1.2-7.2,1.8
		c-4.7,1.1-8.6-0.1-11.7-3.8c-0.8-0.9-1.3-2-1.8-3.1c-0.7-1.7-0.3-2.6,1.3-3.5c1.6-0.8,3.2-1.6,4.8-2.3c-0.6-1.9-1.4-2.6-3.2-2.7
		c-1,0-2,0-3,0.2c-1.4,0.2-2.3-0.3-2.8-1.5c-0.2-0.4-0.4-0.9-0.5-1.4c-0.3-2.8-1.9-4.5-4.3-5.6c-1.1-0.5-2.2-1.3-3.2-2
		c-1.6-1-1.9-2.4-0.7-3.9c2-2.7,4.1-5.3,6.1-7.9c0.4-0.5,0.7-1.3,0.7-2c0.1-4.1,0-8.1,0-12.2c0-0.5-0.2-1.2-0.5-1.5
		c-5.6-4.4-8.3-10.5-9.9-17.2c-1.1-4.4-1.4-8.8-1.2-13.3c0.1-1.3,0.4-2.3,1.7-2.7c1.3-0.4,2.2,0.3,2.9,1.4c1.2,1.9,3.2,2.6,5.4,2.7
		c4.4,0.4,8.7-0.5,12.9-1.7c3.9-1,7.8-2.2,11.7-3.4c1.5-0.4,2.6,0.1,3.1,1.4c0.5,1.2,0,2.5-1.4,2.9c-7.6,2.2-15,4.9-23,5.4
		c-2.9,0.2-5.7-0.1-8.5-1.3c0.4,6.4,1.5,12.4,5.2,17.6c3.5,5,8.4,7.5,14.5,7.7c7,0.1,14,0,21,0.1c0.4,0,0.9,0,1.3,0
		c1.4,0.1,2.3,1.1,2.2,2.4c0,1.3-0.9,2.2-2.2,2.2c-8.3-0.1-16.7-0.1-25-0.3c-1.8,0-3.5-0.7-5.3-1.1c0,3.9,0.1,7.7,0,11.6
		c0,1.1-0.5,2.3-1.1,3.2c-1.6,2.3-3.5,4.5-5.3,6.9c1.2,0.8,2.4,1.6,3.6,2.2c1.8,0.9,3,2.2,3.3,4.3c0.2,1.5,0.9,2.1,2.6,2.1
		c3.5-0.1,6,1.6,7.4,4.9c0.1,0.3,0.3,0.6,0.4,0.9c1.4,3.3,1.1,4-2.1,5.5c-1.1,0.5-2.2,1-3.3,1.5c1,2.2,3.8,3.5,6.3,2.9
		c3.1-0.7,6.2-1.5,9.3-2.3c0.6-0.1,1.1-0.3,1.7-0.4c1.6-0.2,2.8,0.7,2.8,2.3c0,3.8,0.1,7.7,0,11.5c0,0.7-0.5,1.4-0.9,2.1
		c-1.1,1.5-2.3,3-3.4,4.5c0.1,0.1,0.1,0.3,0.2,0.4c3.3-0.7,6.6-1.2,9.9-2c7.4-1.9,14.5-4.7,21.3-8c0.8-0.4,1-0.9,1-1.7
		c0-2.2-0.1-4.5,0-6.7c0-0.9-0.3-1.4-1.1-1.8c-4.1-1.9-7.6-4.6-10.4-8.2c-1.2-1.6-0.8-3.3,0.9-3.9c1.3-0.5,2.1,0.1,2.9,1.1
		c2.1,2.7,4.7,4.8,7.8,6.4c0.5,0.2,1,0.4,1.8,0.8c2.8-4.4,5.7-8.6,8.3-13.1c5-8.6,8.5-17.7,10.1-27.5c1.1-6.7,1.2-13.3-1-19.8
		c-0.9-2.6-2.2-4.9-4.2-6.7c-1.6-1.4-3.4-2.2-5.5-2.5c-0.9-0.1-2.1-0.6-2.4-1.3c-3.8-7.2-10.3-7.8-17.3-7.2
		c-1.7,0.1-3.5,0.4-5.2,0.7c-2,0.3-3.1-0.3-3.3-1.8C91,2.6,91.9,1.8,94,1.4c1.9-0.3,3.8-0.6,5.7-0.9C101.9,0.6,104,0.6,106.1,0.6z"
		/>
	<path class="st2" d="M25.3,87.1c-0.2,0.3-0.3,0.5-0.4,0.8c-1.8,4.8-3.7,9.6-5.4,14.4c-0.2,0.7-0.1,1.5,0,2.2
		c2.1,9.2,4.2,18.4,6.3,27.6c0.1,0.5,0.2,1,0.2,1.6c0,4.3,0,8.5,0,12.8c0,1.8-0.8,2.9-2.3,2.9c-1.5,0-2.5-1.1-2.3-3
		c0.9-10.3-1.5-20.2-3.9-30.1c-1.1-4.2-2-8.4-2.9-12.6c-0.1-0.6-0.1-1.4,0.1-2c2.1-5.8,4.2-11.5,6.4-17.3c1-2.6,1.9-3,4.6-2.3
		c3.9,1,6.5,4.8,5.7,8.7c-0.7,3.6-1.7,7-2.5,10.6c-0.2,0.8-0.1,1.6,0.1,2.4c0.9,3,2,6,3,9c0.3,1,0.9,1.8,2.1,1.6
		c1.2-0.2,1.5-1.1,1.5-2.2c0-1.6,0-3.2,0-4.8c0.1-3.9,3.2-7,7.1-6.9c3.8,0.1,6.8,3.2,6.9,7c0.2,6.4-0.2,12.8-2.9,18.8
		c-1,2.2-2.3,4.3-3.4,6.4c-0.3,0.7-0.6,1.5-0.6,2.3c0.2,3.9,0.6,7.7,0.9,11.6c0.1,1.6-0.8,2.6-2.2,2.7c-1.3,0.1-2.3-0.8-2.4-2.3
		c-0.4-4.4-0.8-8.8-1-13.2c-0.1-0.8,0.2-1.8,0.6-2.4c4.4-6.2,6.4-13.1,6.3-20.6c0-1.1,0-2.2,0-3.3c-0.1-1.4-1-2.3-2.3-2.3
		c-1.3,0-2.3,0.9-2.3,2.3c-0.1,1.7,0,3.5,0,5.2c0,3.4-2.1,5.8-5.4,6.4c-3,0.5-5.9-1.1-7-4.2c-1.3-3.7-2.5-7.3-3.7-11
		c-0.2-0.6-0.2-1.3,0-2c0.9-3.8,1.8-7.5,2.8-11.3C27,89.2,26.6,88,25.3,87.1z"/>
	<path class="st2" d="M116.9,137.3c0,3.1,0,6.2,0,9.3c0,1.9-0.8,2.9-2.3,2.8c-1.5,0-2.3-1-2.3-2.9c0-6.1,0.1-12.2,0-18.3
		c-0.1-6.3-5.3-11.3-11.5-11.3c-6.4,0-11.7,5-11.7,11.4c-0.1,6.1,0,12.2,0,18.3c0,1.1-0.2,2.1-1.4,2.6c-1.5,0.6-3.2-0.3-3.2-1.9
		c0-7.2-0.3-14.5,0.3-21.6c0.7-7.7,8.1-13.5,16-13.5c7.9,0,15,5.9,15.9,13.6c0.4,3.8,0.1,7.6,0.1,11.5
		C116.7,137.3,116.8,137.3,116.9,137.3z"/>
	<path class="st2" d="M107.9,56.1c-0.4,3.1-0.9,6-2.4,8.6c-2.1,3.6-5.3,5.2-9.4,5.3c-1.4,0-2.4-0.9-2.4-2.2
		c-0.1-1.3,0.7-2.4,2.2-2.4c4.4-0.1,6.6-3.1,6.9-7c0.2-1.9-0.1-3.9-0.4-5.9c-0.1-0.8-0.8-1.7-1.4-2.3c-1.5-1.5-3.5-1.1-4.4,0.8
		c-0.4,0.9-0.5,1.9-0.6,2.8c-0.2,1.4-1.1,2.2-2.5,2.1c-1.3-0.1-2.1-0.9-2.2-2.2c-0.3-4.1,2.3-8,5.9-8.9c3.7-0.9,7.5,1,9.2,5
		C107.1,51.8,107.4,54,107.9,56.1z"/>
	<path class="st2" d="M42.1,93.8c-0.6-0.4-1.5-0.8-1.8-1.5c-0.3-0.7-0.2-1.9,0.2-2.4c1.6-1.8,3.3-3.5,5.1-5.1c0.9-0.8,2-0.6,2.9,0.2
		c0.8,0.8,1.2,1.9,0.4,2.7c-1.7,1.9-3.6,3.7-5.5,5.5C43.2,93.5,42.8,93.5,42.1,93.8z"/>
	<path class="st2" d="M42.4,79.6c-0.9,0-1.7,0.1-2.6,0c-1.3-0.1-2.2-1.1-2.2-2.3c0-1.2,0.9-2.2,2.2-2.3c1.7-0.1,3.4-0.1,5.1,0
		c1.3,0.1,2,1,2,2.2c0.1,1.2-0.8,2.2-2.1,2.4C44.1,79.7,43.3,79.6,42.4,79.6z"/>
	<path class="st2" d="M56.3,95.9c0,0.8,0,1.6,0,2.5c-0.1,1.3-1,2.2-2.2,2.2c-1.3,0-2.3-0.8-2.4-2.2c-0.1-1.6-0.1-3.3,0-4.9
		c0.1-1.3,1-2.1,2.3-2.1c1.3,0,2.2,0.8,2.3,2.1c0,0.1,0,0.2,0,0.3C56.3,94.5,56.3,95.2,56.3,95.9C56.3,95.9,56.3,95.9,56.3,95.9z"/>
	<path class="st2" d="M86.6,5.2c0,1.3-1,2.3-2.3,2.3c-1.4,0-2.4-1-2.4-2.4c0-1.3,1-2.3,2.4-2.2C85.6,2.9,86.6,3.9,86.6,5.2z"/>
</g>
</svg>
