<?xml version="1.0" encoding="utf-8"?>
<!-- Generator: Adobe Illustrator 24.3.0, SVG Export Plug-In . SVG Version: 6.00 Build 0)  -->
<svg version="1.1" id="Layer_1" xmlns="http://www.w3.org/2000/svg" xmlns:xlink="http://www.w3.org/1999/xlink" x="0px" y="0px"
	 viewBox="0 0 150 150" style="enable-background:new 0 0 150 150;" xml:space="preserve">
<style type="text/css">
	.st0{fill:#CDEEFD;}
	.st1{fill:#111224;}
	.st2{fill:#005BAB;}
</style>
<path class="st0" d="M1465.3,1556.3c-2.4-0.2-4.3-1.3-4.4-4.1c-0.1-6.7,1.6-10,4.9-9.9c0.2,0,0.3,0,0.5,0c2.2,0.5,4.3,2.1,3.2,4
	C1467.7,1549.5,1473.1,1555.7,1465.3,1556.3z M1465.5,1554.4c1.3-0.1,2.3-0.6,2.3-2.1c-0.1-1.7-1.5-2.1-2.8-2.4c-1.6-0.4-2,0.8-2,2
	C1463,1553.5,1464,1554.2,1465.5,1554.4z M1467.8,1546.5c0-1.4-0.6-2.2-2.1-2.2c-0.9,0-1.6,0.4-1.7,1.4c-0.2,1.4,0.9,2.1,2,2.5
	C1467.3,1548.5,1467.6,1547.5,1467.8,1546.5z"/>
<path class="st0" d="M1455.8,1556.6c-0.5-2.9-1.8-4.2-4.6-3.6c-0.7,0.2-1.7,0.3-2.1-0.8c-0.4-1.1,0.1-1.5,1.2-2.1
	c2.1-1.2,2.1-3.9,3.2-5.8c0.6-1,1-2.2,2.5-1.9c1.4,0.3,0.9,1.6,0.8,2.5C1456.4,1548.6,1458.4,1552.5,1455.8,1556.6z"/>
<path class="st1" d="M1465.5,1554.4c-1.5-0.1-2.6-0.8-2.5-2.4c0-1.2,0.4-2.4,2-2c1.2,0.3,2.7,0.7,2.8,2.4
	C1467.8,1553.7,1466.8,1554.2,1465.5,1554.4z"/>
<path class="st1" d="M1467.8,1546.5c-0.2,1-0.5,2.1-1.8,1.7c-1.1-0.4-2.1-1-2-2.5c0.1-1,0.8-1.4,1.7-1.4
	C1467.2,1544.3,1467.8,1545,1467.8,1546.5z"/>
<polygon class="st2" points="1346.8,29.4 1346.9,29.6 1346.6,29.6 "/>
<g>
	<path class="st2" d="M75.6,0.3c1.6,0.3,3.1,0.5,4.7,0.9c3,0.7,5.7,2,7.9,4.1c0.3,0.3,1.1,0.4,1.6,0.3c3.8-1.2,7.6-1.6,11.5-1.1
		c5.4,0.7,9.5,3.7,12.7,8c3.7,5.1,5.3,11,5.6,17.2c0.3,7-1.2,13.6-3.6,20.1c-0.2,0.6-0.2,1.4,0.1,2c2.1,4,2,8-0.6,11.7
		c-2.7,3.7-6.4,5.1-10.9,4.3c-0.2,0-0.4-0.1-0.6-0.1c-0.1,0-0.2,0-0.4,0.1c-1.8,6-5.3,11.1-10.1,15c3.1,1.6,6.3,3.1,9.2,4.8
		c1.9,1.1,3.6,2.6,5.4,4c1.4,1.2,1.6,2.4,0.7,3.5c-0.9,1.1-2.2,1-3.6-0.2c-4.4-3.8-9.3-6.6-15-8.3c-2.1,8.7-7.4,13.6-16.6,13.3
		c-6.8-0.3-11.3-4.7-14-13.3c-4.4,1.2-8.5,3.2-12.2,5.9c-4.5,3.3-8.2,7.4-11,12.3c-0.2,0.3-0.4,0.7-0.6,1c-0.8,1.1-1.9,1.3-2.9,0.7
		c-1-0.6-1.4-1.8-0.8-2.9c1.1-1.9,2.1-3.7,3.4-5.4c5.1-7,11.8-12,20-15c0.3-0.1,0.5-0.2,1-0.4c-5-4.1-8.5-9.1-10.3-15.3
		c-5.8,1-10.5-0.7-13-6.3c-2.1-4.6-0.8-8.7,2.6-12.3c-2.5-4.3-4.5-8.8-5.7-13.6c-1.1-4.3-1.8-8.8-1.7-13.3c0-2,1-2.8,3-2.4
		c5.1,1,9.6,0.1,13.4-3.7c1-1,2-1.9,3-2.8c1.2-1.1,2.4-1.2,3.4-0.2c0.9,1,0.9,2.2-0.3,3.3c-1.6,1.5-3.2,3-4.9,4.4
		c-3.2,2.7-7,4-11.2,3.8c-0.6,0-1.2,0-1.7,0c-1,4,2.7,16.3,6.6,22.2c1.7-0.1,3.5-0.3,5.3-0.4c0,0,0.1-0.1,0.1-0.1
		c0.5-4.5,2-6.1,6.4-7.1c12-2.7,22.5-8.1,31-17.1c2-2.1,4.5-1.9,6.1,0.5c4,5.8,8.2,11.5,13.3,16.4c1.8,1.7,2.3,3.3,2.9,7.3
		c2.4,0.4,4.7,0.8,7.4,1.3c0.6-2.1,1.4-4.5,1.9-6.9c1.5-6.8,1.5-13.6-1-20.2c-0.2-0.5-0.4-1-0.6-1.5c-4.6-9.9-13-12.2-22.8-8.4
		c-2.2,0.9-2.5,0.9-4-1.1c-1.5-2-3.7-3.1-6.1-3.7c-7.6-2-14.6-1.1-20.9,3.9c-0.4,0.3-0.8,0.6-1.2,0.9c-1.1,0.7-2.3,0.5-3-0.4
		c-0.8-1-0.7-2.2,0.4-3.1c4-3.2,8.2-5.7,13.4-6.4c0.3,0,0.5-0.2,0.8-0.3C71.3,0.3,73.5,0.3,75.6,0.3z M85.3,25.6
		c-0.2,0.2-0.4,0.4-0.7,0.6C80,30.8,74.8,34.6,69,37.5c-5.4,2.7-11,4.8-17,6c-2,0.4-2.4,1-2.4,3c0,1.3,0,2.6,0,3.9
		c0.1,4.3-0.2,8.6,0.4,12.8c1.7,13,13.5,22.4,26.5,21.6c13.3-0.8,23.7-11.6,24-24.9c0.1-4.5,0-9,0-13.6c0-2-0.7-3.6-2.1-5
		c-1.6-1.6-3.2-3.2-4.6-4.9C90.9,32.9,88.1,29.2,85.3,25.6z M85.4,87.4c-7,2.5-13.9,2.5-20.9,0c1.2,5.1,5.8,8.5,11.1,8.3
		C80.3,95.5,84.7,91.8,85.4,87.4z M45.3,50.8c-1.5,0.1-2.9,0-4.1,0.3c-3.1,0.9-5,4.3-4.3,7.4c0.8,3.3,3.9,5.5,7.1,5
		c0.4-0.1,1.2-0.6,1.2-0.9C45.4,58.9,45.3,55,45.3,50.8z M104.8,63.6c1.4-0.1,2.7,0,4-0.3c3-0.9,4.9-4.2,4.3-7.2
		c-0.7-3.3-3.6-5.6-6.8-5.2c-0.7,0.1-1.5,0-1.5,1.1C104.9,55.7,104.8,59.4,104.8,63.6z"/>
	<path class="st2" d="M31.6,131.8c5.6,0,11,0,16.6,0c0-3,0-6,0-9c0-2.3,0.7-3.4,2.2-3.4c1.5,0,2.2,1.1,2.2,3.5c0,2.2,0,4.3,0,6.8
		c1.8-1.3,3.5-2.5,5-3.6c-0.6-1.9-1.4-3.7-1.8-5.5c-0.7-3.1,0-5.9,2.7-7.7c2.7-1.9,5.5-1.2,8.1,0.4c0.3,0.2,0.6,0.4,1.1,0.7
		c0.8-0.7,1.5-1.5,2.3-2.2c4-3.5,8.6-4.9,13.8-3.9c6.2,1.2,10.8,6.7,11.2,13.2c0.5,9.5-5.7,16.8-15.4,18.1c-1.1,0.1-2.1,0.2-3.2,0.3
		c-0.5,0.1-1,0.1-1.3,0.4c-2.3,1.7-4.5,3.4-7,5.2c10,0,19.7,0,29.6,0c0-0.5,0-1,0-1.5c0-7,0-13.9,0-20.9c0-0.4,0-0.8,0-1.2
		c0.1-1.3,1-2.2,2.1-2.2c1.2,0,2.2,0.9,2.2,2.2c0.1,2.9,0,5.7,0,8.6c0,0.5,0,1,0,1.6c5.6,0,11,0,16.4,0c0.7-10.2-0.3-20-6.1-28.8
		c-0.2-0.3-0.4-0.6-0.6-0.9c-0.8-1.3-0.6-2.5,0.5-3.2c1.1-0.7,2.3-0.4,3.1,0.8c3.3,4.8,5.6,10.1,6.6,15.9c0.5,3,0.8,6.1,0.9,9.1
		c0.1,7.3,0,14.6,0,21.9c0,2.3-0.7,3-3,3c-29.8,0-59.7,0-89.5,0c-2.3,0-3-0.7-3-3c0-7.5-0.1-15.1,0.1-22.6c0.1-3.6,0.8-7.2,1.4-10.8
		c0.3-1.9,1.5-2.7,2.9-2.3c1.3,0.4,1.8,1.6,1.3,3.3C31.3,120,31.6,125.9,31.6,131.8z M38.8,145.2c0.6,0,0.8,0.1,1,0.1
		c6.6,0,13.1,0,19.7,0c0.6,0,1.2-0.3,1.7-0.6c3.4-2.5,6.9-5.1,10.3-7.7c1.6-1.2,3.1-1.9,5.2-1.9c1.3,0,2.6-0.3,3.9-0.6
		c6.7-1.7,10.4-6.4,10-12.9c-0.4-6.8-6.1-11-12.7-9.2c-3.3,0.9-5.8,3-7.8,5.8c-1.1,1.6-2.3,1.7-3.8,0.4c-0.8-0.7-1.5-1.4-2.4-1.8
		c-0.9-0.3-2-0.5-2.8-0.2c-1.1,0.5-1.3,1.9-0.9,2.9c0.6,1.7,1.2,3.4,2.1,4.9c1.3,2.3,1.2,2.9-0.9,4.5c-5.9,4.3-11.9,8.6-17.8,13
		C41.9,142.9,40.5,144,38.8,145.2z M101.9,136.4c0,3,0,5.9,0,8.8c5.5,0,11,0,16.4,0c0-3,0-5.9,0-8.8
		C112.9,136.4,107.5,136.4,101.9,136.4z M31.7,145c3.9-2.9,7.7-5.6,11.7-8.6c-4.2,0-7.9,0-11.7,0C31.7,139.2,31.7,142,31.7,145z"/>
	<path class="st2" d="M54.2,100.7c0.9,0.1,1.6,0.1,2.3,0.2c1.5,0.3,2.3,1.7,1.6,3.1c-1.1,2-2.3,4-3.6,6c-0.7,1.1-1.9,1.3-2.9,0.7
		c-1-0.6-1.3-1.8-0.7-2.9c0.4-0.8,0.9-1.5,1.4-2.4c-0.9,0-1.5,0-2.1-0.1c-1.8-0.2-2.6-1.7-1.8-3.3c1.2-2.1,2.4-4.2,3.7-6.2
		c0.7-1.2,2-1.4,3-0.8c1,0.6,1.3,1.8,0.7,3.1C55.3,98.8,54.8,99.7,54.2,100.7z"/>
	<path class="st2" d="M100.6,102.8c0.9,0,1.6-0.1,2.3,0c1.6,0.2,2.4,1.7,1.7,3.1c-1.1,2-2.3,4-3.6,6c-0.7,1-1.7,1.2-2.8,0.6
		c-1-0.6-1.4-1.8-0.9-2.9c0.4-0.8,0.9-1.5,1.5-2.5c-0.8,0-1.4,0-2,0c-1.9-0.1-2.8-1.7-2-3.3c1.2-2.2,2.5-4.3,3.8-6.4
		c0.7-1.1,1.9-1.3,2.9-0.7c1,0.6,1.3,1.8,0.8,2.9c-0.2,0.5-0.5,0.9-0.8,1.4C101.3,101.6,101,102,100.6,102.8z"/>
	<path class="st2" d="M75,74.7c-2.8,0-5.6,0-8.4,0c-2,0-2.7-0.8-2.7-2.8c0.2-5.7,5.2-10.5,11.1-10.5c6,0,11,4.9,11.1,10.7
		c0,1.8-0.7,2.6-2.5,2.6C80.7,74.7,77.9,74.7,75,74.7z M81.1,70.3c-0.6-2.6-3.2-4.4-6.1-4.4c-2.9,0-5.5,1.8-6.2,4.4
		C73,70.3,77,70.3,81.1,70.3z"/>
	<path class="st2" d="M60.6,52.8c-0.8-0.4-1.4-0.7-2-1.1c-1.1-0.7-1.4-1.9-0.8-2.9c0.6-1,1.7-1.5,2.9-0.9c1.9,0.9,3.8,1.9,5.7,2.9
		c1.7,1,1.7,2.9,0,3.9c-1.8,1.1-3.6,2.1-5.4,3.1c-1.3,0.7-2.5,0.3-3.1-0.8c-0.6-1.1-0.2-2.2,1-3C59.3,53.6,59.9,53.3,60.6,52.8z"/>
	<path class="st2" d="M89.4,52.8c0.8,0.5,1.5,0.8,2,1.2c1.1,0.7,1.4,1.9,0.8,2.9c-0.6,1.1-1.8,1.5-3,0.9c-1.9-1-3.8-2-5.6-3.1
		c-1.7-1.1-1.6-2.9,0.2-3.9c1.8-1,3.6-1.9,5.4-2.8c1.2-0.6,2.4-0.2,3,0.9c0.6,1.1,0.2,2.2-1,3C90.8,52.1,90.2,52.4,89.4,52.8z"/>
</g>
</svg>
