<?xml version="1.0" encoding="utf-8"?>
<!-- Generator: Adobe Illustrator 24.3.0, SVG Export Plug-In . SVG Version: 6.00 Build 0)  -->
<svg version="1.1" id="Layer_1" xmlns="http://www.w3.org/2000/svg" xmlns:xlink="http://www.w3.org/1999/xlink" x="0px" y="0px"
	 viewBox="0 0 150 150" style="enable-background:new 0 0 150 150;" xml:space="preserve">
<style type="text/css">
	.st0{fill:#CDEEFD;}
	.st1{fill:#111224;}
	.st2{fill:#005BAB;}
</style>
<path class="st0" d="M1465.3,1556.3c-2.4-0.2-4.3-1.3-4.4-4.1c-0.1-6.7,1.6-10,4.9-9.9c0.2,0,0.3,0,0.5,0c2.2,0.5,4.3,2.1,3.2,4
	C1467.7,1549.5,1473.1,1555.7,1465.3,1556.3z M1465.5,1554.4c1.3-0.1,2.3-0.6,2.3-2.1c-0.1-1.7-1.5-2.1-2.8-2.4c-1.6-0.4-2,0.8-2,2
	C1463,1553.5,1464,1554.2,1465.5,1554.4z M1467.8,1546.5c0-1.4-0.6-2.2-2.1-2.2c-0.9,0-1.6,0.4-1.7,1.4c-0.2,1.4,0.9,2.1,2,2.5
	C1467.3,1548.5,1467.6,1547.5,1467.8,1546.5z"/>
<path class="st0" d="M1455.8,1556.6c-0.5-2.9-1.8-4.2-4.6-3.6c-0.7,0.2-1.7,0.3-2.1-0.8c-0.4-1.1,0.1-1.5,1.2-2.1
	c2.1-1.2,2.1-3.9,3.2-5.8c0.6-1,1-2.2,2.5-1.9c1.4,0.3,0.9,1.6,0.8,2.5C1456.4,1548.6,1458.4,1552.5,1455.8,1556.6z"/>
<path class="st1" d="M1465.5,1554.4c-1.5-0.1-2.6-0.8-2.5-2.4c0-1.2,0.4-2.4,2-2c1.2,0.3,2.7,0.7,2.8,2.4
	C1467.8,1553.7,1466.8,1554.2,1465.5,1554.4z"/>
<path class="st1" d="M1467.8,1546.5c-0.2,1-0.5,2.1-1.8,1.7c-1.1-0.4-2.1-1-2-2.5c0.1-1,0.8-1.4,1.7-1.4
	C1467.2,1544.3,1467.8,1545,1467.8,1546.5z"/>
<polygon class="st2" points="1346.8,29.4 1346.9,29.6 1346.6,29.6 "/>
<g>
	<path class="st2" d="M1.1,103c0.6-2.3,1.4-4.6,3-6.4c2.2-2.5,4.9-4.1,8.2-4.2c4.4-0.2,8.8-0.1,13.3-0.1c1.6,0,2.2,0.7,2.6,2.7
		c0.4,2.1,2.6,2.9,4,1.5c0.5-0.5,0.8-1.4,0.8-2.2c0.1-1.4,0-2.8,0-4.2c0-1.4,0.6-2.3,1.9-2.7c1.3-0.3,2.4,0.3,3,1.7
		c1.5,3.2,3,3.8,6.1,2.3c1.9-0.9,3.7,0.1,3.7,2.2c0,1.8,0,3.6,0,5.3c0,1.9,0.9,3.1,2.4,3.1c1.5,0,2.5-1.1,2.5-3.1
		c0-3.8,0-7.5,0-11.3c0-1.1,0.3-2.2,1.5-2.6c0.7-0.2,1.8-0.2,2.4,0.3c0.6,0.5,0.9,1.5,1.1,2.3c0.6,2.9,2.8,4.8,5.4,4.4
		c2.9-0.4,4.8-2.9,4.3-5.8c-0.4-2.7-3.1-4.5-5.9-3.9c-0.4,0.1-0.8,0.2-1.3,0.3c-1.4,0.2-2.4-0.5-2.8-1.7c-0.3-1.2,0.3-2.4,1.5-2.9
		c5.6-2.5,12.8,1.7,13.4,7.8c0.1,0.7,0.1,1.4,0.1,2.2c0,15,0,30,0,45c0,4.3-1.4,8-4.9,10.7c-2.1,1.6-4.5,2.5-7.1,2.5
		c-8.6,0-17.1,0.2-25.7-0.1c-6.3-0.2-10.9-4.9-11.5-11.2c0-0.2-0.1-0.5-0.1-0.9c-1,0-2.1,0-3.1,0c-2.7,0-5.4,0.1-8.1-0.2
		c-5.6-0.6-9.7-4.5-10.8-10c0-0.2-0.2-0.5-0.2-0.7C1.1,116.5,1.1,109.7,1.1,103z M37.9,96.5c0,0.1-0.1,0.2-0.2,0.4
		c-1.1,3.1-3.3,5-6.6,5.2c-3.2,0.2-5.5-1.3-7.1-4.1c-0.2-0.4-0.9-0.7-1.3-0.7c-2.9-0.1-5.8,0-8.7,0c-5.1,0-8,3-8.1,8.1
		c0,5.1,0,10.3,0,15.4c0,5.5,3,8.5,8.5,8.5c3.6,0,7.2,0,10.8,0c1.4,0,2.5,0.5,2.8,2c0.1,0.6,0.1,1.3,0.1,2c0,5.4,2.9,8.3,8.3,8.3
		c7.6,0,15.2,0,22.8,0c5.4,0,8.3-2.9,8.3-8.3c0-11.9,0-23.8,0-35.6c0-0.5-0.1-1-0.1-1.7c-3.3,1.7-6.5,1.6-9.8,0c0,1.4,0,2.4,0,3.5
		c-0.1,4.4-3.2,7.6-7.4,7.6c-4.1,0-7.2-3.3-7.4-7.5c0-0.8,0-1.5,0-2.1C41.2,97.1,39.6,96.8,37.9,96.5z"/>
	<path class="st2" d="M82.5,141.5c0.6,0,1.1,0,1.6,0c5.5,0,11.1,0,16.6,0c0.5,0,1.1,0,1.6,0.1c1.4,0.2,2.2,1.1,2.2,2.4
		c0,1.3-0.8,2.2-2.2,2.4c-0.4,0.1-0.9,0.1-1.3,0.1c-6.6,0-13.3,0-19.9,0c-2.9,0-3.6-0.7-3.6-3.6c0-24.8,0-49.6,0-74.4
		c0-7.6,4.5-13.5,11.5-15.2c1-0.2,2.1-0.3,3.2-0.5c0-8.1,0-16.2,0-24.4c-0.4-0.1-0.9-0.2-1.3-0.4c-2-0.6-3.4-2.2-3.4-4.3
		c-0.1-5.1-0.1-10.3,0-15.4c0-2.7,2.1-4.6,5.1-4.6c3.6-0.1,7.2,0,10.8,0c2.7,0,5.5,0,8.2,0c3.4,0.1,5.3,2,5.3,5.4
		c0,4.3,0,8.6,0,12.8c0,4.1-0.9,5.4-4.8,6.5c0,8.1,0,16.2,0,24.5c1.6,0,3.2-0.1,4.8,0c1.2,0.1,2.2,0.7,2.4,2
		c0.2,1.2-0.3,2.1-1.4,2.6c-0.6,0.2-1.3,0.3-2,0.3c-7.6,0-15.3,0-22.9,0c-4.2,0-7.5,1.7-9.5,5.6c-0.4,0.8-0.8,1.7-0.9,2.6
		c-0.1,3.8,0,7.6,0,11.6c0.5,0,1.1,0,1.7,0c5.5,0,11.1,0,16.6,0c0.6,0,1.3,0,1.9,0.1c1.2,0.3,1.8,1.1,1.8,2.3c0,1.2-0.6,2-1.7,2.3
		c-0.6,0.2-1.2,0.2-1.9,0.2c-5.6,0-11.2,0-16.7,0c-0.5,0-1,0-1.7,0c0,11.5,0,22.9,0,34.5c0.5,0,1,0,1.5,0c8.9,0,17.9,0,26.8,0
		c0.6,0,1.3,0,1.8,0.2c1.2,0.4,1.7,1.2,1.6,2.4c-0.1,1.2-0.8,1.9-1.9,2.2c-0.5,0.1-1.1,0.1-1.6,0.1c-8.9,0-17.8,0-26.7,0
		c-0.5,0-1,0-1.6,0C82.5,128.4,82.5,134.8,82.5,141.5z M111.9,8.6c-6.6,0-13,0-19.5,0c0,4.9,0,9.7,0,14.6c6.6,0,13,0,19.5,0
		C111.9,18.3,111.9,13.5,111.9,8.6z M97.3,28.3c0,8.2,0,16.3,0,24.4c3.3,0,6.5,0,9.6,0c0-8.2,0-16.3,0-24.4
		C103.7,28.3,100.5,28.3,97.3,28.3z"/>
	<path class="st2" d="M129.2,146.4c-5.3,0-10.7,0-16,0c-1.4,0-2.8,0.1-3.5-1.5c-0.6-1.4,0.2-2.4,1.1-3.5c3.4-4.1,6.9-8.2,10.2-12.3
		c0.4-0.5,0.7-1.3,0.7-1.9c0.1-5.2,0-10.4,0-15.6c0-0.8-0.2-1.3-1-1.7c-7.6-3.8-11.2-10.1-11.3-18.4c-0.1-6.9,0-13.8,0-20.6
		c0-2.5,0.8-3.3,3.4-3.3c10.9,0,21.7,0,32.6,0c2.5,0,3.4,0.8,3.4,3.4c0,6.9,0.1,13.8,0,20.8c-0.1,8.3-3.8,14.4-11.2,18.2
		c-0.8,0.4-1.1,0.8-1.1,1.7c0,5.1,0,10.3,0.1,15.4c0,0.7,0.3,1.5,0.8,2c3.4,4.2,6.9,8.4,10.4,12.5c0.8,1,1.5,1.9,0.9,3.2
		c-0.6,1.4-1.9,1.5-3.2,1.5C140,146.4,134.6,146.4,129.2,146.4z M114.5,89.8c-0.8,5.9,2,12.1,6.7,14.9c5.5,3.3,11.8,3,16.5-0.5
		c4.8-3.6,6.9-9.5,5.9-14.4C134,89.8,124.3,89.8,114.5,89.8z M114.5,72.6c0,4.1,0,8.1,0,12.1c9.8,0,19.6,0,29.3,0
		c0-4.1,0-8.1,0-12.1C134,72.6,124.3,72.6,114.5,72.6z M126.7,111.9c0,0.6,0,1.1,0,1.6c0,4.8-0.1,9.5,0,14.3c0,1.7-0.4,2.9-1.5,4.2
		c-2.3,2.7-4.6,5.4-6.9,8.2c-0.3,0.4-0.6,0.8-1,1.2c8,0,15.7,0,23.6,0c-0.3-0.4-0.5-0.7-0.7-0.9c-2.4-2.8-4.7-5.7-7.1-8.5
		c-1.1-1.3-1.6-2.6-1.5-4.3c0.1-4.7,0-9.4,0-14.1c0-0.5,0-1,0-1.6C129.9,111.9,128.4,111.9,126.7,111.9z"/>
	<path class="st2" d="M33.4,75.3c0.9-1.3,1.5-2.7,2.4-3.7c5-6,14.6-4.9,18.2,2.1c0.8,1.5,0.5,2.9-0.8,3.6c-1.3,0.7-2.6,0.3-3.5-1.2
		c-1.4-2.5-3.6-3.8-6.4-3.3c-2.8,0.4-4.5,2.2-5.1,5c-0.3,1.5-1.2,2.3-2.7,2.3c-0.2,0-0.4,0-0.6,0c-2.3,0.8-4.1,0.6-5.6-1.6
		c-0.8-1.2-2.4-1.1-3.7-0.6c-1.4,0.6-2.1,1.7-2.2,3.3c0,1.5,0.7,2.6,2,3.3c0.5,0.3,1,0.4,1.5,0.6c1.3,0.6,1.8,2,1.2,3.3
		c-0.5,1.2-1.8,1.8-3.1,1.3c-3.6-1.3-6-3.6-6.4-7.5c-0.4-3.6,1.4-6.9,4.5-8.5c3.2-1.7,6.8-1.3,9.9,1.3C33,75,33.2,75.1,33.4,75.3z"
		/>
	<path class="st2" d="M101.3,87.3c1.9,0,3,0.7,3.1,2.2c0.1,1.6-0.9,2.5-3,2.7c-3.2,0.3-5.6,2.3-6.5,5.3c-0.8,2.9,0.2,6.2,2.7,7.9
		c1.2,0.8,2.7,1.2,4.1,1.5c1.8,0.4,2.8,1.2,2.6,2.8c-0.2,1.4-1.3,2.3-3.1,2.1c-6.5-0.5-11.1-5.1-11.6-11.8
		c-0.3-5.4,3.1-10.7,9.2-12.4C99.8,87.5,100.6,87.5,101.3,87.3z"/>
	<path class="st2" d="M15.9,107c0,4.1,0,8.1,0,12.2c2.4,0,4.8,0,7.4,0c0-1.4,0-2.8,0-4.2c0-1.9,0.9-3,2.4-3c1.5,0,2.5,1.1,2.5,3
		c0,2.1,0,4.1,0,6.2c0,2.1-0.9,3-3,3.1c-3.8,0-7.5,0-11.3,0c-2.1,0-3-1-3-3c0-5.4,0-10.8,0-16.2c0-2.1,0.9-3,3-3c3.8,0,7.5,0,11.3,0
		c1.8,0,3,1,3,2.5c0,1.5-1.2,2.4-3,2.5C22.1,107.1,19.1,107,15.9,107z"/>
	<path class="st2" d="M35.6,119.3c0-3.8,0-7.6,0-11.4c0-0.7,0.1-1.5,0.4-2.1c0.5-1,1.4-1.5,2.4-1.1c0.8,0.3,1.4,1.1,2,1.8
		c0.3,0.4,0.2,1,0.2,1.5c0,7.5,0,15,0,22.5c0,0.2,0,0.5,0,0.7c-0.1,1.8-1,2.8-2.5,2.8c-1.4,0-2.4-1.1-2.5-2.8
		C35.5,127.3,35.6,123.3,35.6,119.3C35.6,119.3,35.6,119.3,35.6,119.3z"/>
	<path class="st2" d="M55.3,121.8c0-3.1,0-6.2,0-9.2c0-1.9,0.9-3,2.4-3c1.6,0,2.5,1,2.6,3c0,6.2,0,12.4,0,18.6
		c0,2.2-1.7,3.5-3.4,2.7c-1.1-0.5-1.5-1.4-1.5-2.6C55.3,128.1,55.3,124.9,55.3,121.8z"/>
	<path class="st2" d="M50.4,121.8c0,1.5,0,3,0,4.5c-0.1,1.8-1,2.9-2.5,2.9c-1.5,0-2.4-1.1-2.4-3c0-2.9,0-5.8,0-8.8
		c0-1.9,0.9-2.9,2.4-2.9c1.6,0,2.5,1,2.5,3c0,0,0,0.1,0,0.1C50.4,119,50.4,120.4,50.4,121.8z"/>
</g>
</svg>
