<?xml version="1.0" encoding="utf-8"?>
<!-- Generator: Adobe Illustrator 24.3.0, SVG Export Plug-In . SVG Version: 6.00 Build 0)  -->
<svg version="1.1" id="Layer_1" xmlns="http://www.w3.org/2000/svg" xmlns:xlink="http://www.w3.org/1999/xlink" x="0px" y="0px"
	 viewBox="0 0 150 150" style="enable-background:new 0 0 150 150;" xml:space="preserve">
<style type="text/css">
	.st0{fill:#CDEEFD;}
	.st1{fill:#111224;}
	.st2{fill:#005BAB;}
</style>
<path class="st0" d="M1465.3,1556.3c-2.4-0.2-4.3-1.3-4.4-4.1c-0.1-6.7,1.6-10,4.9-9.9c0.2,0,0.3,0,0.5,0c2.2,0.5,4.3,2.1,3.2,4
	C1467.7,1549.5,1473.1,1555.7,1465.3,1556.3z M1465.5,1554.4c1.3-0.1,2.3-0.6,2.3-2.1c-0.1-1.7-1.5-2.1-2.8-2.4c-1.6-0.4-2,0.8-2,2
	C1463,1553.5,1464,1554.2,1465.5,1554.4z M1467.8,1546.5c0-1.4-0.6-2.2-2.1-2.2c-0.9,0-1.6,0.4-1.7,1.4c-0.2,1.4,0.9,2.1,2,2.5
	C1467.3,1548.5,1467.6,1547.5,1467.8,1546.5z"/>
<path class="st0" d="M1455.8,1556.6c-0.5-2.9-1.8-4.2-4.6-3.6c-0.7,0.2-1.7,0.3-2.1-0.8c-0.4-1.1,0.1-1.5,1.2-2.1
	c2.1-1.2,2.1-3.9,3.2-5.8c0.6-1,1-2.2,2.5-1.9c1.4,0.3,0.9,1.6,0.8,2.5C1456.4,1548.6,1458.4,1552.5,1455.8,1556.6z"/>
<path class="st1" d="M1465.5,1554.4c-1.5-0.1-2.6-0.8-2.5-2.4c0-1.2,0.4-2.4,2-2c1.2,0.3,2.7,0.7,2.8,2.4
	C1467.8,1553.7,1466.8,1554.2,1465.5,1554.4z"/>
<path class="st1" d="M1467.8,1546.5c-0.2,1-0.5,2.1-1.8,1.7c-1.1-0.4-2.1-1-2-2.5c0.1-1,0.8-1.4,1.7-1.4
	C1467.2,1544.3,1467.8,1545,1467.8,1546.5z"/>
<polygon class="st2" points="1346.8,29.4 1346.9,29.6 1346.6,29.6 "/>
<g>
	<path class="st2" d="M92.8,0.2c1.4,0.3,2.8,0.5,4.3,0.9c3.1,0.7,6,2,8.4,4.3c0.3,0.3,1.1,0.4,1.5,0.2c3.9-1.3,7.9-1.6,12-1
		c5.1,0.7,8.9,3.5,11.9,7.5c4.5,6,6.1,12.8,6,20.2c-0.1,6-1.4,11.9-3.5,17.5c-0.2,0.6-0.2,1.5,0.1,2.1c2.1,4.1,2,8-0.7,11.7
		c-2.7,3.7-6.4,5.1-10.9,4.3c-0.2,0-0.4-0.1-0.6-0.1c-0.1,0-0.2,0-0.3,0.1c-3.4,8.4-4.5,9.6-10.2,15.2c2.8,1.4,5.8,2.8,8.6,4.4
		c2,1.2,3.8,2.7,5.7,4.1c1.7,1.4,2,2.7,1,3.8c-1,1.1-2.2,1-3.9-0.5c-3.8-3.3-8.1-5.7-12.8-7.4c-0.6-0.2-1.2-0.4-1.9-0.6
		c-0.8,4.7-3.1,8.5-7.1,11.1c-2.9,1.8-6.1,2.6-9.5,2.3c-5.4-0.5-12.2-4.2-13.8-13.2c-7.4,0.3-21.7,12.1-24,19.9c2.7,0,5.4,0,8,0
		c0.5,0,1-0.4,1.4-0.7c2.8-2.4,5.5-4.8,8.2-7.2c1.3-1.2,2.7-1.8,4.4-1c1.7,0.8,2.2,2.1,2.2,3.9c0,12.2,0,24.4,0,36.5
		c0,2.5-0.6,4.8-2.1,7c13.3,0,26.3,0,39.6,0c0-0.6,0-1.2,0-1.8c0-6.9,0-13.7,0-20.6c0-0.5,0-1,0-1.5c0.1-1.3,0.9-2,2.1-2
		c1.2,0,2.1,0.7,2.2,1.9c0.1,1.4,0.1,2.8,0.1,4.2c0,2,0,4.1,0,6.2c5.5,0,10.9,0,16.4,0c0.8-10.4-0.3-20.4-6.4-29.3
		c-0.3-0.4-0.6-0.9-0.8-1.4c-0.4-1.1-0.2-2,0.8-2.7c0.9-0.6,1.9-0.5,2.7,0.3c0.3,0.3,0.6,0.7,0.8,1c5,7.4,7.5,15.6,7.5,24.5
		c0,7.5,0,15,0,22.5c0,2.3-0.7,3-3,3c-31.6,0-63.1,0-94.7,0c-0.4,0-0.8,0-1.2,0c-1.1-0.3-1.8-1-1.8-2.2c0-1.2,0.7-1.9,1.8-2.1
		c0.5-0.1,1,0,1.5,0c7.6,0,15.3,0,22.9,0c4.3,0,7.1-2.7,7.1-7c0-11.4,0-22.9,0-34.3c0-0.3,0-0.6-0.1-1.2c-0.6,0.5-1.1,0.9-1.5,1.3
		c-2.2,2-4.4,4-6.7,5.8c-0.8,0.6-2,1.1-3,1.1c-13.1,0.1-26.3,0-39.5,0c-5,0-7.5,2.5-7.5,7.5c0,6.5,0,13,0,19.4
		c0,4.6,2.7,7.2,7.3,7.2c3.5,0,7,0,10.5,0c1.7,0,2.7,0.8,2.7,2.2c0,1.4-1,2.2-2.8,2.2c-3.7,0-7.3,0-11,0c-6.3,0-11-4.6-11.1-10.9
		c-0.1-7-0.1-14,0-21c0.1-6.4,4.7-11,11.2-11c8.4-0.1,16.9,0,25.3,0c0.8,0,1.4-0.1,1.8-1C53.5,95,61.8,87.5,73,83.3
		c0.2-0.1,0.4-0.2,0.7-0.3c-5-4.1-8.5-9.1-10.4-15.3c-5.8,1-10.4-0.7-13-6.2c-2.1-4.6-0.9-8.8,2.6-12.5c-2.9-4.9-5.1-10-6.2-15.5
		c-0.7-3.7-1-7.4-1.3-11.1c-0.2-2.2,1-3.1,3.2-2.7c5.1,1,9.6,0,13.3-3.8c1-1,2.1-1.9,3.1-2.9c1.1-0.9,2.4-0.9,3.3,0
		c0.8,0.9,0.8,2.2-0.2,3.1c-2.1,1.9-4.3,3.8-6.5,5.6c-2.4,1.9-5.3,2.6-8.3,2.6c-1,0-2,0-3.4,0c0.3,2.2,0.5,4.4,0.9,6.5
		c1,5.3,2.8,10.2,5.4,14.9c0.4,0.8,0.9,1.1,1.8,0.9c1.3-0.3,2.7-0.3,4.1-0.4c0-0.2,0-0.5,0.1-0.8c0.3-3.3,2.2-5.5,5.4-6.2
		c9.1-2,17.5-5.4,24.9-11c2.5-1.9,4.8-4.1,7.1-6.3c2.2-2.1,4.6-2,6.3,0.5c4,5.8,8.2,11.4,13.2,16.3c1.9,1.8,2.5,3.7,3,7.4
		c2.4,0.4,4.8,0.8,7.5,1.3c0.7-2.8,1.7-5.9,2.2-9.1c1.2-6.5,0.8-13-1.8-19.2c0,0,0-0.1-0.1-0.1c-4.6-10.2-13-12.5-22.9-8.7
		c-2.4,0.9-2.6,1-4.2-1.1c-1.8-2.3-4.4-3.3-7.2-3.9c-7.3-1.6-14.1-0.4-20.1,4.4c-0.3,0.2-0.6,0.5-0.9,0.7c-1.1,0.7-2.4,0.6-3.1-0.4
		c-0.7-1-0.6-2.3,0.5-3.1c4-3.2,8.3-5.7,13.5-6.4c0.2,0,0.3-0.2,0.5-0.2C88.4,0.2,90.6,0.2,92.8,0.2z M102.3,25.3
		c-0.7,0.8-1.3,1.5-2,2.2c-8.8,8.2-19.3,13.3-31,15.9c-2.3,0.5-2.7,1-2.7,3.4c0,2.8-0.1,5.6,0,8.5c0.1,2.8-0.1,5.7,0.4,8.4
		c2.5,13.8,14.4,22.5,28.4,21c11.2-1.2,21-11,21.9-22.3c0.4-5.5,0.2-11,0.2-16.5c0-1.8-0.8-3.2-2.1-4.5c-1.8-1.9-3.7-3.8-5.3-5.8
		C107.6,32.3,105.1,28.9,102.3,25.3z M119,145.3c5.6,0,11,0,16.5,0c0-3,0-5.9,0-8.8c-5.5,0-10.9,0-16.4,0c0,0.4-0.1,0.8-0.1,1.1
		C119,140.2,119,142.7,119,145.3z M81.7,87.5c0.6,4.7,5.6,8.4,10.9,8.3c4.7-0.1,9.6-4.1,9.9-8.3C95.6,89.9,88.7,89.9,81.7,87.5z
		 M62.3,51.2c-3-0.9-5.8,0.1-7.4,2.5c-1.5,2.4-1.3,5.6,0.5,7.7c1.8,2.1,4.6,2.8,6.8,1.8C62.3,59.1,62.3,55.2,62.3,51.2z M122,63.2
		c2.6,0.9,5.5,0,7.2-2.3c1.6-2.3,1.6-5.4-0.1-7.6c-1.6-2.2-4.5-3.1-7.1-2.1C122,55.1,122,59.1,122,63.2z"/>
	<path class="st2" d="M57.2,132.7c-1.5,3.5-2.6,4.3-6.5,4.3c-5.6,0-11.3,0-16.9,0c-3.7,0-5.7-2-5.7-5.7c0-2.2,0-4.4,0-6.6
		c0.1-3.4,2.1-5.5,5.5-5.5c6.1-0.1,12.2,0,18.2,0c2.9,0,4.6,1.5,5.4,4.2c2.7,0.4,3,0.8,3,3.6c0,0.8,0,1.7,0,2.5
		C60.1,132,59.6,132.5,57.2,132.7z M41.8,132.6c3.4,0,6.7,0,10,0c0.3,0,1-0.7,1-1.1c0.1-2.2,0.1-4.5,0-6.7c0-0.4-0.6-1-1-1
		c-3.3-0.1-6.6,0-10,0C41.8,126.7,41.8,129.5,41.8,132.6z M37.2,132.4c0-2.9,0-5.8,0-8.8c-1.2,0-2.4,0-3.5,0c-0.9,0-1.2,0.4-1.2,1.2
		c0,1.2,0,2.3,0,3.5c0.1,4.9-1.1,4.2,4.5,4.1C37,132.5,37.1,132.5,37.2,132.4z"/>
	<path class="st2" d="M29,44.7c1.4,0,2.4,0,3.4,0c1.5,0.1,2.4,0.9,2.4,2.2c0,1.3-0.8,2.2-2.4,2.2c-2.6,0-5.3,0.1-7.9,0
		c-0.8,0-1.9-0.7-2.1-1.3c-0.3-0.7,0-1.8,0.5-2.5c1.5-2,3.2-3.9,5-6.1c-1.4,0-2.4,0-3.5,0c-1.4,0-2.3-0.8-2.4-2
		c-0.1-1.3,0.8-2.3,2.3-2.3c2.7-0.1,5.4-0.1,8,0c0.7,0,1.8,0.6,2.1,1.2c0.3,0.7,0.1,1.9-0.4,2.5C32.6,40.5,30.9,42.4,29,44.7z"/>
	<path class="st2" d="M41.6,75.3c-1.4,0-2.5,0-3.6,0c-1.4-0.1-2.2-0.9-2.2-2.2c0-1.3,0.9-2.2,2.2-2.2c2.7,0,5.5-0.1,8.2,0
		c0.7,0,1.7,0.6,1.9,1.2c0.3,0.7,0.1,1.8-0.3,2.4c-1.2,1.7-2.6,3.3-4,4.9c-0.3,0.4-0.6,0.8-1.1,1.4c1.2,0,2.2,0,3.1,0
		c1.6,0,2.5,0.9,2.6,2.2c0,1.4-0.9,2.2-2.5,2.2c-2.6,0-5.2,0.1-7.7,0c-0.7,0-1.8-0.6-2.1-1.2c-0.3-0.7-0.1-1.9,0.4-2.5
		C38,79.5,39.7,77.6,41.6,75.3z"/>
	<path class="st2" d="M134.2,82.3c1.4,0,2.5,0,3.5,0c1.4,0.1,2.2,0.9,2.3,2.2c0,1.3-0.9,2.2-2.2,2.2c-2.7,0-5.4,0.1-8.2,0
		c-0.7,0-1.7-0.7-2-1.3c-0.3-0.6,0-1.8,0.4-2.4c1.5-2.1,3.2-4,5.1-6.3c-1.3,0-2.3,0-3.2,0c-1.6,0-2.5-0.9-2.6-2.2
		c0-1.3,0.9-2.2,2.5-2.2c2.6,0,5.2-0.1,7.7,0c0.7,0,1.8,0.6,2.1,1.2c0.3,0.7,0.1,1.9-0.3,2.5C137.8,78.1,136.1,80,134.2,82.3z"/>
	<path class="st2" d="M92.2,65.9c1.8,0,3.5,0,5.3,0c1.4,0,2.3,0.9,2.3,2.1c0,1.2-0.9,2.2-2.2,2.2c-3.6,0.1-7.2,0.1-10.8,0
		c-1.4,0-2.2-1-2.2-2.2c0-1.3,0.9-2.1,2.3-2.1C88.6,65.9,90.4,65.9,92.2,65.9z"/>
	<path class="st2" d="M75.9,55.9c-1.3-0.3-2.1-0.8-2.4-2c-0.2-1.2,0.5-2.2,1.7-2.5c2-0.5,3.9-1,5.9-1.6c1.2-0.3,2.1,0.1,2.6,1.2
		c0.5,1.1,0.1,2.4-1.1,2.8C80.5,54.6,78.2,55.2,75.9,55.9z"/>
	<path class="st2" d="M108.4,55.9c-2.3-0.7-4.6-1.3-6.8-2.1c-1.2-0.4-1.6-1.7-1.1-2.8c0.5-1.1,1.4-1.6,2.6-1.2c2,0.5,3.9,1,5.9,1.5
		c1.2,0.3,1.9,1.3,1.7,2.5C110.5,55.1,109.6,55.6,108.4,55.9z"/>
</g>
</svg>
