<?xml version="1.0" encoding="utf-8"?>
<!-- Generator: Adobe Illustrator 24.3.0, SVG Export Plug-In . SVG Version: 6.00 Build 0)  -->
<svg version="1.1" id="Layer_1" xmlns="http://www.w3.org/2000/svg" xmlns:xlink="http://www.w3.org/1999/xlink" x="0px" y="0px"
	 viewBox="0 0 150 150" style="enable-background:new 0 0 150 150;" xml:space="preserve">
<style type="text/css">
	.st0{fill:#CDEEFD;}
	.st1{fill:#111224;}
	.st2{fill:#005BAB;}
</style>
<path class="st0" d="M1465.3,1556.3c-2.4-0.2-4.3-1.3-4.4-4.1c-0.1-6.7,1.6-10,4.9-9.9c0.2,0,0.3,0,0.5,0c2.2,0.5,4.3,2.1,3.2,4
	C1467.7,1549.5,1473.1,1555.7,1465.3,1556.3z M1465.5,1554.4c1.3-0.1,2.3-0.6,2.3-2.1c-0.1-1.7-1.5-2.1-2.8-2.4c-1.6-0.4-2,0.8-2,2
	C1463,1553.5,1464,1554.2,1465.5,1554.4z M1467.8,1546.5c0-1.4-0.6-2.2-2.1-2.2c-0.9,0-1.6,0.4-1.7,1.4c-0.2,1.4,0.9,2.1,2,2.5
	C1467.3,1548.5,1467.6,1547.5,1467.8,1546.5z"/>
<path class="st0" d="M1455.8,1556.6c-0.5-2.9-1.8-4.2-4.6-3.6c-0.7,0.2-1.7,0.3-2.1-0.8c-0.4-1.1,0.1-1.5,1.2-2.1
	c2.1-1.2,2.1-3.9,3.2-5.8c0.6-1,1-2.2,2.5-1.9c1.4,0.3,0.9,1.6,0.8,2.5C1456.4,1548.6,1458.4,1552.5,1455.8,1556.6z"/>
<path class="st1" d="M1465.5,1554.4c-1.5-0.1-2.6-0.8-2.5-2.4c0-1.2,0.4-2.4,2-2c1.2,0.3,2.7,0.7,2.8,2.4
	C1467.8,1553.7,1466.8,1554.2,1465.5,1554.4z"/>
<path class="st1" d="M1467.8,1546.5c-0.2,1-0.5,2.1-1.8,1.7c-1.1-0.4-2.1-1-2-2.5c0.1-1,0.8-1.4,1.7-1.4
	C1467.2,1544.3,1467.8,1545,1467.8,1546.5z"/>
<polygon class="st2" points="1346.8,29.4 1346.9,29.6 1346.6,29.6 "/>
<g>
	<path class="st2" d="M83.2,149.1c-4.1-1.3-5.9-4.2-5.6-8.4c0-0.2,0-0.5,0-0.7c0-0.1,0-0.2-0.1-0.5c-0.5,0-1.1,0-1.6,0
		c-11.3,0-22.6,0-34,0c-5,0-7.9-2.8-7.9-7.8c0-4.8,0-9.7,0-14.5c0-0.5,0-1,0-1.7c-1,0-1.8,0-2.7,0c-4.8,0-9.7,0-14.5,0
		c-4.1,0-7.1-2.9-7.1-6.9c0-10.8,0-21.5,0-32.3c0-1.1,0.3-2.2,1.4-2.4c0.7-0.2,1.8,0,2.3,0.5c0.5,0.5,0.6,1.5,0.6,2.2
		c0,10,0.1,20,0,30c-0.1,4.4,1.2,4.9,5.3,4.4c0-1.1,0-2.2,0-3.2c0-3.4-0.2-6.9,0.2-10.3c0.6-5.4,4.5-9.2,9.9-10.2
		c0.3-0.1,0.6-0.2,1-0.3c-5.3-8.3-4.7-15.6,1.6-20.7c5.5-4.4,13.5-4.1,18.8,0.6c4.4,4,7.2,12.2,0.8,20.1c0.3,0.1,0.6,0.2,0.9,0.3
		c6.1,1.1,10.1,5.7,10.1,11.8c0,3.5,0,6.9,0,10.4c0,0.5,0,0.9,0,1.4c0.3,0.1,0.4,0.1,0.5,0.1c4.3,0.1,4.8-0.3,4.8-4.6
		c0-15,0-30,0-45c0-2.9-0.7-3.6-3.6-3.6c-15.5,0-31,0-46.6,0c-2.9,0-3.6,0.7-3.6,3.6c0,1.4,0,2.7,0,4.1c0,1.4-0.9,2.2-2.2,2.2
		c-1.2,0-2.1-0.8-2.2-2.1c-0.1-2-0.1-4,0-5.9c0.3-3.7,3.3-6.2,7.4-6.2c15.4,0,30.7,0,46.1,0c1.1,0,2.3,0,3.4,0.2
		c3.3,0.6,5.6,3.2,5.7,6.6c0,0.9,0,1.8,0,2.9c0.7,0,1.3,0,1.8,0c11.2,0,22.4,0,33.7,0c5.4,0,8.1,2.7,8.1,8c0,5.3,0,10.5,0,16
		c0.6,0,1.1,0,1.6,0c5,0,10.1,0,15.1,0c4.7,0,7.6,2.8,7.6,7.5c0,15.3-0.1,30.6,0,45.9c0,4.2-1.4,7.2-5.6,8.6
		C117.6,149.1,100.4,149.1,83.2,149.1z M130.6,144.7c0.5,0,0.9,0.1,1.3,0.1c3.4,0,4-0.6,4-3.9c0-15.3,0-30.7,0-46
		c0-2.5-0.8-3.3-3.4-3.3c-7.6,0-15.1,0-22.7,0c-8.2,0-16.4,0-24.6,0c-2.3,0-3.2,0.9-3.2,3.1c0,1.4,0,2.7,0,4.1
		c0,1.5-0.9,2.4-2.2,2.4c-1.3,0-2.2-0.9-2.2-2.4c0-1.3,0-2.7,0-4.1c0-4.7,2.8-7.5,7.5-7.5c5,0,10.1,0,15.1,0c0.5,0,1,0,1.6,0
		c0-3.4,0-6.6,0-9.9c-9.9,0-19.6,0-29.5,0c0,0.7,0,1.3,0,1.8c0,9.7,0,19.5,0,29.2c0,4.3-2.9,7.1-7.3,7.2c-5.1,0-10.2,0-15.4,0
		c-0.5,0-1,0-1.5,0c0,3.5,0,6.7,0,10c9.9,0,19.6,0,29.4,0c0-0.6,0-1.1,0-1.7c0-4.7,0-9.4,0-14c0-1.8,0.8-2.8,2.2-2.9
		c1.4,0,2.2,1,2.2,2.9c0,0.3,0,0.6,0,0.9c0,9.2,0,18.4,0,27.6c0,1.3,0,2.5,0,3.8c0,1.5,0.9,2.5,2.2,2.6c1,0.1,1.9,0,3,0
		c0-0.6,0-1.1,0-1.7c0-3.5,0-7,0-10.6c0.1-5.5,3.7-10,8.9-11.4c0.7-0.2,1.4-0.3,2.1-0.4c-5.2-7.5-4.9-14.6,0.6-19.9
		c5.1-4.9,12.8-5.4,18.5-1.2c2.8,2.1,4.6,4.8,5.4,8.2c1.1,4.8-0.2,9.1-3.4,12.9c0.2,0.1,0.3,0.2,0.4,0.2c0.2,0.1,0.5,0.1,0.7,0.1
		c5,1,8.3,3.9,9.6,8.8c0.4,1.4,0.4,3,0.4,4.4C130.6,137.7,130.6,141.2,130.6,144.7z M29.1,111.1c0-0.7,0-1.3,0-1.8
		c0-1.8,0-3.6,0-5.4c0.1-1.5,1-2.3,2.3-2.3c1.2,0,2,0.9,2.1,2.3c0,0.7,0,1.4,0,2c0,1.7,0,3.4,0,5.1c5.1,0,10,0,15,0
		c0-0.5,0.1-0.9,0.1-1.2c0-2,0-4,0-5.9c0-1.4,0.9-2.3,2.1-2.3c1.2,0,2.1,0.8,2.3,2.2c0.1,0.6,0,1.3,0,1.9c0,1.8,0,3.6,0,5.4
		c1.9,0,3.5,0,5.2,0c0-4.4,0.2-8.8-0.1-13.2c-0.3-3.7-3.4-6.3-7.2-6.4c-6.6-0.1-13.2-0.1-19.8,0c-3.8,0.1-6.7,2.7-7.2,6.4
		c-0.2,1.9-0.1,3.8-0.1,5.6c0,2.5,0,5,0,7.6C25.6,111.1,27.3,111.1,29.1,111.1z M126.1,144.7c0-4.4,0.2-8.8-0.1-13.2
		c-0.3-3.9-3.6-6.4-7.6-6.4c-6.3,0-12.6,0-18.9,0c-4.5,0-7.8,3.2-7.8,7.6c0,3.7,0,7.3,0,11c0,0.3,0.1,0.6,0.1,0.9c1.7,0,3.4,0,5.2,0
		c0-2.3,0-4.6,0-6.8c0-1.1,0.3-2.1,1.5-2.6c1.5-0.5,2.9,0.5,2.9,2.3c0,2.3,0,4.7,0,7.1c5.1,0,10,0,15,0c0-0.4,0.1-0.8,0.1-1.1
		c0-2,0-4.1,0-6.1c0-1.4,0.9-2.2,2.1-2.3c1.2,0,2.1,0.8,2.2,2.2c0.1,0.7,0,1.3,0,2c0,1.8,0,3.5,0,5.3
		C122.8,144.7,124.4,144.7,126.1,144.7z M41,87.2c5.5,0,10-4.4,9.9-9.8c0-5.4-4.6-9.8-10-9.8c-5.4,0.1-9.8,4.4-9.9,9.8
		C31.1,82.8,35.5,87.2,41,87.2z M109,120.8c5.5,0,9.9-4.5,9.9-9.9c0-5.3-4.5-9.7-9.9-9.8c-5.4,0-10,4.4-10,9.8
		C99,116.4,103.5,120.8,109,120.8z M111.6,87.1c0-0.6,0-1.1,0-1.5c0-4.8,0-9.5,0-14.3c0-2.9-0.8-3.7-3.7-3.7c-11.3,0-22.5,0-33.8,0
		c-0.5,0-1,0-1.7,0c0,1.8,0,3.5,0,5.3c0.7,0,1.2,0,1.8,0c8.9,0,17.8,0,26.6,0c3.7,0,5.4,1.7,5.4,5.4c0,2.9,0,5.9,0,8.9
		C108.1,87.1,109.7,87.1,111.6,87.1z M38.4,115.6c0,5.5,0,10.8,0,16.1c0,2.7,0.9,3.5,3.6,3.5c11.4,0,22.7,0,34.1,0c0.5,0,1,0,1.5,0
		c0-1.9,0-3.5,0-5.2c-0.6,0-1.2,0-1.8,0c-8.4,0-16.9-0.1-25.3,0.1c-4.6,0.1-7.2-1.4-6.8-6.8c0.2-2.5,0-5.1,0-7.6
		C41.8,115.6,40.2,115.6,38.4,115.6z"/>
	<path class="st2" d="M99.5,39.6c-2.5,1.8-4.8,3.8-7.4,5.3c-4,2.4-8.5,3.5-13.3,3.5c-4.1,0-8.3,0.1-12.4-0.5
		c-6.2-0.9-11.4-3.9-15.9-8.8c-0.5,0.7-1,1.4-1.5,1.9c-5.2,4.9-11.4,7.2-18.6,7.3c-4.6,0.1-9.3,0.1-13.9,0c-3.8,0-6.8-3.2-6.8-6.9
		c0-3.7,3-6.8,6.7-6.9c0.9,0,1.8,0,2.9,0c0-6.6,0-13,0-19.7c-0.9,0-1.8,0-2.8,0c-3.7-0.1-6.6-3-6.8-6.7C9.6,4.6,12.3,1.1,16,1
		c6.2-0.1,12.5-0.1,18.7,0.4c6,0.5,11,3.5,15.2,7.7c0.3,0.3,0.4,0.7,0.4,0.7c2.8-2,5.3-4,8-5.6c3.8-2.2,8-3.3,12.4-3.3
		c4.2,0,8.5-0.1,12.7,0.4c6.2,0.8,11.5,3.9,15.8,8.6c0.3-0.3,0.7-0.6,1-0.9c5.2-5.2,11.5-7.9,18.8-8.1c4.7-0.2,9.5-0.1,14.2,0
		c4,0,7.1,3.1,7.1,7c0,3.8-3.1,6.9-7.1,6.9c-0.8,0-1.5,0-2.4,0c0,6.6,0,13,0,19.7c0.9,0,1.8,0,2.6,0c3.9,0.1,7,3.2,6.9,7
		c0,3.8-3.1,6.9-7,6.9c-5.7,0-11.3,0.2-17-0.3c-6.4-0.5-11.9-3.5-16.4-8.1C99.8,39.8,99.7,39.7,99.5,39.6
		C99.4,39.5,99.3,39.5,99.5,39.6z M93.9,30.2c-3,4.9-7.3,7.8-13,8.4c-3.5,0.3-7.1,0.4-10.7,0.1c-6.9-0.5-12.1-3.7-14.9-10.2
		c-1.6-3.5-3-7.1-4.6-10.6c-3.2-6.7-8.5-11.1-15.9-12.1c-6-0.8-12.2-0.5-18.2-0.6c-0.7,0-1.7,0.8-2.1,1.5c-1,1.7,0.4,3.6,2.6,3.7
		c5,0.1,10,0,14.9,0.3c6.5,0.4,11.2,3.8,14,9.6c1.6,3.4,3,7,4.6,10.5c3.1,6.8,8.4,11.2,15.7,12.5c4.6,0.8,9.3,0.7,14,0.6
		c6.1-0.2,11.4-2.8,15.5-7.4c0.3-0.4,0.6-1.1,0.5-1.5C95.6,33.5,94.8,32,93.9,30.2z M56.1,19.1c2.8-4.6,6.8-7.6,12-8.2
		c4.1-0.5,8.3-0.6,12.4-0.2C87.5,11.3,92.3,15,95,21.5c1.3,3.2,2.7,6.3,4.1,9.4c3.4,7.3,9.2,11.8,17.2,12.8
		c5.6,0.7,11.4,0.3,17.1,0.3c0.7,0,1.7-0.7,2.2-1.4c1.1-1.7-0.3-3.7-2.5-3.7c-4.4,0-8.8,0.1-13.2,0c-7.5-0.2-13-3.5-16.1-10.5
		c-1.4-3.2-2.8-6.5-4.2-9.7c-2.9-6.5-7.8-10.8-14.8-12.5c-6.3-1.5-12.7-1.4-19-0.2c-4.6,0.9-8.5,3.3-11.6,6.9
		c-0.3,0.3-0.6,1-0.4,1.3C54.4,15.8,55.3,17.4,56.1,19.1z M104.6,19.2c0.2-0.4,0.2-0.5,0.3-0.6c3.7-5.6,9-8.1,15.7-8.1c4,0,8,0,12,0
		c2.1,0,3.3-1.1,3.3-2.7c0-1.6-1.3-2.5-3.3-2.5c-3.4,0-6.7-0.1-10.1,0c-2.6,0.1-5.3,0.1-7.8,0.6c-5.2,1-9.4,3.7-12.7,7.7
		C102.8,15.4,103.6,17.1,104.6,19.2z M45.6,30.6c-1.7,1.7-3.3,3.5-5.1,4.9c-3.4,2.7-7.4,3.2-11.6,3.3c-4,0-8,0-12,0
		c-1.6,0-2.8,1.1-2.8,2.6c0,1.5,1.1,2.7,2.8,2.7c5.4-0.1,10.8,0,16.2-0.3c5.8-0.4,10.5-3.2,14.3-7.5c0.2-0.3,0.4-0.8,0.2-1.1
		C47.1,33.6,46.3,32,45.6,30.6z M33.6,15.3c0,6.3,0,12.4,0,18.7c3.9-1,6.5-3.2,8.3-6.6c1-1.9,1-3.5,0-5.4
		C40.2,18.6,37.5,16.4,33.6,15.3z M116.4,34c0-6.3,0-12.4,0-18.6c-4.3,0.9-8.6,5-9.3,9c0,0.2,0,0.4,0,0.6
		C108.6,29.4,111.4,32.7,116.4,34z M67.9,15.3c-3.5,0.9-6,2.8-7.9,5.7c-1.6,2.5-1.6,4.8,0,7.3c1.9,2.9,4.4,4.8,7.8,5.7
		C67.9,27.7,67.9,21.6,67.9,15.3z M82.1,34c3.5-0.9,6-2.8,7.8-5.6c1.7-2.5,1.7-4.9,0-7.4c-1.9-2.9-4.4-4.8-7.8-5.6
		C82.1,21.6,82.1,27.7,82.1,34z M23.9,14.9c0,6.5,0,13,0,19.5c1.7,0,3.4,0,5.1,0c0-6.5,0-13,0-19.5C27.2,14.9,25.6,14.9,23.9,14.9z
		 M72.5,14.9c0,6.6,0,13.1,0,19.5c1.8,0,3.4,0,5.1,0c0-6.6,0-13,0-19.5C75.8,14.9,74.2,14.9,72.5,14.9z M126.1,34.4
		c0-6.6,0-13,0-19.5c-1.8,0-3.4,0-5.1,0c0,6.5,0,13,0,19.5C122.7,34.4,124.3,34.4,126.1,34.4z"/>
</g>
</svg>
