<?xml version="1.0" encoding="utf-8"?>
<!-- Generator: Adobe Illustrator 24.3.0, SVG Export Plug-In . SVG Version: 6.00 Build 0)  -->
<svg version="1.1" id="Layer_1" xmlns="http://www.w3.org/2000/svg" xmlns:xlink="http://www.w3.org/1999/xlink" x="0px" y="0px"
	 viewBox="0 0 150 150" style="enable-background:new 0 0 150 150;" xml:space="preserve">
<style type="text/css">
	.st0{fill:#CDEEFD;}
	.st1{fill:#111224;}
	.st2{fill:#005BAB;}
	.st3{fill:url(#SVGID_1_);}
	.st4{fill:url(#SVGID_2_);}
	.st5{fill:url(#SVGID_3_);}
	.st6{fill:url(#SVGID_4_);}
	.st7{fill:url(#SVGID_5_);}
	.st8{fill:url(#SVGID_6_);}
	.st9{fill:url(#SVGID_7_);}
	.st10{fill:url(#SVGID_8_);}
	.st11{fill:url(#SVGID_9_);}
	.st12{fill:url(#SVGID_10_);}
	.st13{fill:url(#SVGID_11_);}
	.st14{fill:url(#SVGID_12_);}
	.st15{fill:url(#SVGID_13_);}
	.st16{fill:url(#SVGID_14_);}
	.st17{fill:url(#SVGID_15_);}
	.st18{fill:url(#SVGID_16_);}
	.st19{fill:url(#SVGID_17_);}
	.st20{fill:url(#SVGID_18_);}
</style>
<path class="st0" d="M1465.3,1556.3c-2.4-0.2-4.3-1.3-4.4-4.1c-0.1-6.7,1.6-10,4.9-9.9c0.2,0,0.3,0,0.5,0c2.2,0.5,4.3,2.1,3.2,4
	C1467.7,1549.5,1473.1,1555.7,1465.3,1556.3z M1465.5,1554.4c1.3-0.1,2.3-0.6,2.3-2.1c-0.1-1.7-1.5-2.1-2.8-2.4c-1.6-0.4-2,0.8-2,2
	C1463,1553.5,1464,1554.2,1465.5,1554.4z M1467.8,1546.5c0-1.4-0.6-2.2-2.1-2.2c-0.9,0-1.6,0.4-1.7,1.4c-0.2,1.4,0.9,2.1,2,2.5
	C1467.3,1548.5,1467.6,1547.5,1467.8,1546.5z"/>
<path class="st0" d="M1455.8,1556.6c-0.5-2.9-1.8-4.2-4.6-3.6c-0.7,0.2-1.7,0.3-2.1-0.8c-0.4-1.1,0.1-1.5,1.2-2.1
	c2.1-1.2,2.1-3.9,3.2-5.8c0.6-1,1-2.2,2.5-1.9c1.4,0.3,0.9,1.6,0.8,2.5C1456.4,1548.6,1458.4,1552.5,1455.8,1556.6z"/>
<path class="st1" d="M1465.5,1554.4c-1.5-0.1-2.6-0.8-2.5-2.4c0-1.2,0.4-2.4,2-2c1.2,0.3,2.7,0.7,2.8,2.4
	C1467.8,1553.7,1466.8,1554.2,1465.5,1554.4z"/>
<path class="st1" d="M1467.8,1546.5c-0.2,1-0.5,2.1-1.8,1.7c-1.1-0.4-2.1-1-2-2.5c0.1-1,0.8-1.4,1.7-1.4
	C1467.2,1544.3,1467.8,1545,1467.8,1546.5z"/>
<polygon class="st2" points="1346.8,29.4 1346.9,29.6 1346.6,29.6 "/>
<g>
	<linearGradient id="SVGID_1_" gradientUnits="userSpaceOnUse" x1="-389.4835" y1="-186.5697" x2="-287.8212" y2="-186.5697">
		<stop  offset="0" style="stop-color:#00AE4D"/>
		<stop  offset="0.2214" style="stop-color:#0C8D5A"/>
		<stop  offset="0.5722" style="stop-color:#1D5D6D"/>
		<stop  offset="0.8413" style="stop-color:#274079"/>
		<stop  offset="0.9944" style="stop-color:#2B357D"/>
	</linearGradient>
	<path class="st3" d="M-389.5-199.3c0.9-3.3,1.9-6.5,4.3-9.1c3.2-3.5,7-5.8,11.7-6c6.3-0.2,12.6-0.2,18.9-0.1c2.3,0,3.1,0.9,3.7,3.8
		c0.6,2.9,3.8,4.2,5.7,2.2c0.7-0.7,1.1-2,1.2-3.1c0.2-2,0.1-4,0.1-5.9c0-1.9,0.8-3.3,2.7-3.8c1.8-0.4,3.4,0.5,4.2,2.4
		c2.1,4.6,4.2,5.3,8.7,3.2c2.7-1.3,5.2,0.2,5.3,3.2c0.1,2.5,0,5.1,0,7.6c0,2.8,1.3,4.4,3.5,4.5c2.1,0,3.5-1.6,3.5-4.4
		c0-5.3,0-10.7,0-16c0-1.6,0.4-3.2,2.1-3.7c1-0.3,2.6-0.2,3.4,0.4c0.9,0.7,1.3,2.1,1.6,3.3c0.8,4.1,4,6.8,7.8,6.3
		c4.1-0.5,6.8-4.1,6.1-8.2c-0.6-3.8-4.4-6.3-8.4-5.5c-0.6,0.1-1.2,0.3-1.8,0.4c-2,0.3-3.4-0.7-3.9-2.4c-0.5-1.7,0.4-3.4,2.1-4.2
		c8-3.6,18.2,2.4,19,11.2c0.1,1,0.2,2,0.2,3.1c0,21.4,0,42.7,0,64.1c0,6.2-2,11.4-7,15.2c-3,2.3-6.3,3.5-10.1,3.5
		c-12.2,0-24.4,0.2-36.5-0.1c-9-0.3-15.5-7-16.4-15.9c0-0.3-0.1-0.7-0.1-1.3c-1.5,0-2.9,0-4.4,0c-3.8-0.1-7.7,0.1-11.5-0.3
		c-8-0.8-13.8-6.4-15.3-14.3c-0.1-0.3-0.2-0.6-0.3-1C-389.5-180.1-389.5-189.7-389.5-199.3z M-337.2-208.5c-0.1,0.2-0.1,0.3-0.2,0.5
		c-1.6,4.5-4.7,7.1-9.4,7.4c-4.5,0.3-7.8-1.8-10.1-5.8c-0.3-0.5-1.2-1-1.9-1c-4.1-0.1-8.2-0.1-12.3,0c-7.2,0-11.5,4.3-11.5,11.5
		c0,7.3,0,14.6,0,22c0,7.8,4.2,12,12,12.1c5.1,0,10.3,0,15.4,0c2,0,3.5,0.7,4,2.8c0.2,0.9,0.2,1.9,0.2,2.9c0,7.6,4.1,11.8,11.8,11.8
		c10.8,0,21.6,0,32.4,0c7.7,0,11.8-4.1,11.8-11.8c0-16.9,0-33.8,0-50.7c0-0.7-0.1-1.4-0.1-2.4c-4.7,2.5-9.2,2.3-13.9,0
		c0,1.9,0,3.5,0,5c-0.1,6.2-4.6,10.9-10.5,10.8c-5.8,0-10.3-4.6-10.5-10.7c0-1.1,0-2.2,0-3C-332.4-207.7-334.7-208.1-337.2-208.5z"
		/>
	<linearGradient id="SVGID_2_" gradientUnits="userSpaceOnUse" x1="-280.8079" y1="-239.1498" x2="-221.3138" y2="-239.1498">
		<stop  offset="0" style="stop-color:#00AE4D"/>
		<stop  offset="0.2214" style="stop-color:#0C8D5A"/>
		<stop  offset="0.5722" style="stop-color:#1D5D6D"/>
		<stop  offset="0.8413" style="stop-color:#274079"/>
		<stop  offset="0.9944" style="stop-color:#2B357D"/>
	</linearGradient>
	<path class="st4" d="M-273.7-144.5c0.9,0,1.6,0,2.3,0c7.9,0,15.7,0,23.6,0c0.8,0,1.5,0,2.2,0.1c2,0.3,3.1,1.6,3.1,3.4
		c0,1.8-1.2,3.1-3.2,3.4c-0.6,0.1-1.2,0.1-1.8,0.1c-9.4,0-18.9,0-28.3,0c-4.1,0-5.1-1-5.1-5.1c0-35.3,0-70.6,0-106
		c0-10.9,6.4-19.2,16.3-21.6c1.5-0.3,3-0.5,4.6-0.7c0-11.5,0-23.1,0-34.7c-0.6-0.2-1.2-0.3-1.9-0.5c-2.8-0.9-4.9-3.2-4.9-6.2
		c-0.1-7.3-0.1-14.6,0-22c0.1-3.9,3-6.5,7.2-6.6c5.1-0.1,10.3,0,15.4,0c3.9,0,7.8-0.1,11.7,0c4.9,0.1,7.6,2.8,7.6,7.7
		c0,6.1,0,12.2,0,18.3c0,5.9-1.3,7.7-6.9,9.2c0,11.5,0,23.1,0,34.8c2.3,0,4.6-0.1,6.8,0c1.8,0.1,3.1,1,3.4,2.9
		c0.3,1.7-0.4,3-1.9,3.7c-0.8,0.3-1.9,0.4-2.8,0.4c-10.9,0-21.8,0-32.7,0c-6,0-10.7,2.4-13.5,7.9c-0.6,1.1-1.2,2.4-1.2,3.7
		c-0.1,5.4-0.1,10.8-0.1,16.5c0.8,0,1.6,0,2.4,0c7.9,0,15.7,0,23.6,0c0.9,0,1.8,0,2.7,0.2c1.7,0.4,2.6,1.5,2.6,3.2
		c0,1.7-0.8,2.9-2.5,3.3c-0.8,0.2-1.8,0.3-2.6,0.3c-7.9,0-15.9,0-23.8,0c-0.7,0-1.5,0-2.3,0c0,16.4,0,32.6,0,49c0.7,0,1.5,0,2.2,0
		c12.7,0,25.5,0,38.2,0c0.9,0,1.8,0,2.6,0.3c1.6,0.5,2.4,1.8,2.3,3.5c-0.1,1.7-1.1,2.8-2.8,3.1c-0.7,0.2-1.5,0.1-2.2,0.1
		c-12.7,0-25.3,0-38,0c-0.7,0-1.5,0-2.3,0C-273.7-163.2-273.7-154-273.7-144.5z M-231.8-333.6c-9.4,0-18.6,0-27.8,0
		c0,7,0,13.9,0,20.8c9.3,0,18.5,0,27.8,0C-231.8-319.8-231.8-326.6-231.8-333.6z M-252.6-305.6c0,11.7,0,23.3,0,34.8
		c4.7,0,9.2,0,13.7,0c0-11.7,0-23.2,0-34.8C-243.5-305.6-248-305.6-252.6-305.6z"/>
	<linearGradient id="SVGID_3_" gradientUnits="userSpaceOnUse" x1="-235.2925" y1="-193.5851" x2="-179.1143" y2="-193.5851">
		<stop  offset="0" style="stop-color:#00AE4D"/>
		<stop  offset="0.2214" style="stop-color:#0C8D5A"/>
		<stop  offset="0.5722" style="stop-color:#1D5D6D"/>
		<stop  offset="0.8413" style="stop-color:#274079"/>
		<stop  offset="0.9944" style="stop-color:#2B357D"/>
	</linearGradient>
	<path class="st5" d="M-207.2-137.5c-7.6,0-15.2,0-22.8,0c-2,0-4,0.1-4.9-2.1c-0.9-2,0.3-3.5,1.5-5c4.9-5.8,9.8-11.6,14.6-17.5
		c0.6-0.7,1-1.8,1-2.7c0.1-7.4,0-14.8,0.1-22.2c0-1.1-0.2-1.8-1.4-2.4c-10.8-5.4-16-14.3-16.1-26.2c-0.1-9.8,0-19.6,0-29.4
		c0-3.6,1.2-4.7,4.9-4.8c15.5,0,30.9,0,46.4,0c3.6,0,4.8,1.2,4.8,4.8c0,9.9,0.1,19.7,0,29.6c-0.2,11.8-5.4,20.5-16,25.9
		c-1.1,0.6-1.6,1.2-1.6,2.5c0.1,7.3,0,14.6,0.1,22c0,1,0.5,2.1,1.1,2.9c4.9,6,9.9,11.9,14.8,17.9c1.1,1.4,2.1,2.7,1.3,4.6
		c-0.9,2-2.7,2.1-4.5,2.1C-191.7-137.5-199.5-137.5-207.2-137.5z M-228-218.1c-1.2,8.4,2.8,17.2,9.6,21.2c7.9,4.6,16.8,4.3,23.5-0.7
		c6.8-5.1,9.8-13.5,8.4-20.5C-200.3-218.1-214.1-218.1-228-218.1z M-228.1-242.5c0,5.8,0,11.5,0,17.3c14,0,27.9,0,41.8,0
		c0-5.8,0-11.5,0-17.3C-200.3-242.5-214.1-242.5-228.1-242.5z M-210.7-186.6c0,0.8,0,1.5,0,2.3c0,6.8-0.1,13.5,0,20.3
		c0,2.4-0.6,4.2-2.2,5.9c-3.3,3.8-6.5,7.7-9.8,11.6c-0.4,0.5-0.9,1.1-1.4,1.8c11.3,0,22.3,0,33.6,0c-0.5-0.6-0.7-1-1-1.3
		c-3.4-4.1-6.7-8.2-10.1-12.1c-1.6-1.8-2.2-3.7-2.2-6.1c0.1-6.7,0-13.4,0-20.1c0-0.7,0-1.5,0-2.2
		C-206.2-186.6-208.3-186.6-210.7-186.6z"/>
	<linearGradient id="SVGID_4_" gradientUnits="userSpaceOnUse" x1="-364.9418" y1="-233.8756" x2="-313.5999" y2="-233.8756">
		<stop  offset="0" style="stop-color:#00AE4D"/>
		<stop  offset="0.2214" style="stop-color:#0C8D5A"/>
		<stop  offset="0.5722" style="stop-color:#1D5D6D"/>
		<stop  offset="0.8413" style="stop-color:#274079"/>
		<stop  offset="0.9944" style="stop-color:#2B357D"/>
	</linearGradient>
	<path class="st6" d="M-343.5-238.7c1.2-1.9,2.1-3.8,3.4-5.3c7.2-8.6,20.8-7,25.8,2.9c1.1,2.2,0.7,4.1-1.1,5.2c-1.8,1-3.7,0.4-5-1.8
		c-2-3.6-5.1-5.4-9.2-4.8c-4,0.6-6.4,3.2-7.3,7.1c-0.5,2.1-1.7,3.2-3.9,3.2c-0.3,0-0.6,0-0.8,0.1c-3.2,1.2-5.8,0.9-8-2.2
		c-1.2-1.7-3.4-1.6-5.3-0.8c-2,0.9-3.1,2.5-3.1,4.7c0,2.1,1,3.7,2.8,4.7c0.7,0.4,1.4,0.5,2.1,0.9c1.8,0.9,2.5,2.9,1.7,4.7
		c-0.8,1.7-2.6,2.5-4.5,1.9c-5.1-1.8-8.6-5.1-9.2-10.7c-0.6-5.2,1.9-9.8,6.4-12.1c4.6-2.4,9.7-1.8,14.1,1.8
		C-344.1-239.1-343.8-239-343.5-238.7z"/>
	<linearGradient id="SVGID_5_" gradientUnits="userSpaceOnUse" x1="-263.2207" y1="-204.0945" x2="-242.3431" y2="-204.0945">
		<stop  offset="0" style="stop-color:#00AE4D"/>
		<stop  offset="0.2214" style="stop-color:#0C8D5A"/>
		<stop  offset="0.5722" style="stop-color:#1D5D6D"/>
		<stop  offset="0.8413" style="stop-color:#274079"/>
		<stop  offset="0.9944" style="stop-color:#2B357D"/>
	</linearGradient>
	<path class="st7" d="M-246.8-221.6c2.8-0.1,4.3,1,4.5,3.2c0.2,2.3-1.2,3.6-4.2,3.9c-4.5,0.5-8,3.3-9.2,7.5
		c-1.2,4.2,0.2,8.9,3.9,11.2c1.7,1.1,3.9,1.7,5.9,2.1c2.6,0.5,3.9,1.8,3.7,4c-0.2,2.1-1.9,3.2-4.3,3c-9.3-0.7-15.9-7.2-16.5-16.8
		c-0.5-7.6,4.4-15.3,13.1-17.6C-249-221.3-247.9-221.4-246.8-221.6z"/>
	<linearGradient id="SVGID_6_" gradientUnits="userSpaceOnUse" x1="-375.5015" y1="-184.7702" x2="-350.8786" y2="-184.7702">
		<stop  offset="0" style="stop-color:#00AE4D"/>
		<stop  offset="0.2214" style="stop-color:#0C8D5A"/>
		<stop  offset="0.5722" style="stop-color:#1D5D6D"/>
		<stop  offset="0.8413" style="stop-color:#274079"/>
		<stop  offset="0.9944" style="stop-color:#2B357D"/>
	</linearGradient>
	<path class="st8" d="M-368.4-193.6c0,5.9,0,11.5,0,17.4c3.4,0,6.8,0,10.5,0c0-2,0-4,0-6c0-2.7,1.3-4.2,3.4-4.3
		c2.2-0.1,3.6,1.6,3.6,4.3c0,2.9,0,5.9,0,8.8c0,3-1.3,4.3-4.3,4.3c-5.3,0.1-10.7,0.1-16,0c-3,0-4.3-1.4-4.3-4.3c0-7.7,0-15.3,0-23
		c0-2.9,1.3-4.2,4.3-4.2c5.3,0,10.7,0,16,0c2.6,0,4.2,1.4,4.2,3.5c0,2.1-1.7,3.5-4.2,3.5C-359.5-193.5-363.9-193.6-368.4-193.6z"/>
	<linearGradient id="SVGID_7_" gradientUnits="userSpaceOnUse" x1="-340.4258" y1="-176.0315" x2="-333.366" y2="-176.0315">
		<stop  offset="0" style="stop-color:#00AE4D"/>
		<stop  offset="0.2214" style="stop-color:#0C8D5A"/>
		<stop  offset="0.5722" style="stop-color:#1D5D6D"/>
		<stop  offset="0.8413" style="stop-color:#274079"/>
		<stop  offset="0.9944" style="stop-color:#2B357D"/>
	</linearGradient>
	<path class="st9" d="M-340.4-176.1c0-5.4,0-10.8,0-16.2c0-1,0.2-2.1,0.6-3c0.6-1.4,2-2.1,3.4-1.6c1.1,0.4,2,1.5,2.8,2.5
		c0.4,0.5,0.2,1.5,0.2,2.2c0,10.7,0,21.4,0,32c0,0.3,0,0.7,0,1c-0.2,2.5-1.5,4-3.5,4s-3.5-1.5-3.5-4
		C-340.5-164.7-340.4-170.4-340.4-176.1C-340.4-176.1-340.4-176.1-340.4-176.1z"/>
	<linearGradient id="SVGID_8_" gradientUnits="userSpaceOnUse" x1="-312.3397" y1="-172.5042" x2="-305.302" y2="-172.5042">
		<stop  offset="0" style="stop-color:#00AE4D"/>
		<stop  offset="0.2214" style="stop-color:#0C8D5A"/>
		<stop  offset="0.5722" style="stop-color:#1D5D6D"/>
		<stop  offset="0.8413" style="stop-color:#274079"/>
		<stop  offset="0.9944" style="stop-color:#2B357D"/>
	</linearGradient>
	<path class="st10" d="M-312.3-172.6c0-4.4,0-8.8,0-13.1c0-2.7,1.2-4.2,3.4-4.3c2.2-0.1,3.6,1.5,3.6,4.3c0,8.8,0,17.7,0,26.5
		c0,3.2-2.4,5-4.9,3.9c-1.6-0.7-2.1-2-2.1-3.7C-312.3-163.5-312.3-168.1-312.3-172.6z"/>
	<linearGradient id="SVGID_9_" gradientUnits="userSpaceOnUse" x1="-326.3787" y1="-172.5123" x2="-319.3279" y2="-172.5123">
		<stop  offset="0" style="stop-color:#00AE4D"/>
		<stop  offset="0.2214" style="stop-color:#0C8D5A"/>
		<stop  offset="0.5722" style="stop-color:#1D5D6D"/>
		<stop  offset="0.8413" style="stop-color:#274079"/>
		<stop  offset="0.9944" style="stop-color:#2B357D"/>
	</linearGradient>
	<path class="st11" d="M-319.3-172.5c0,2.1,0,4.2,0,6.3c-0.1,2.6-1.5,4.2-3.6,4.1c-2.1,0-3.4-1.6-3.4-4.2c0-4.2,0-8.3,0-12.5
		c0-2.7,1.2-4.2,3.4-4.2c2.2,0,3.5,1.5,3.6,4.3c0,0.1,0,0.1,0,0.2C-319.3-176.5-319.3-174.5-319.3-172.5z"/>
</g>
<g>
	<linearGradient id="SVGID_10_" gradientUnits="userSpaceOnUse" x1="30.0965" y1="-236.5005" x2="244.9671" y2="-236.5005">
		<stop  offset="0" style="stop-color:#00AE4D"/>
		<stop  offset="0.2214" style="stop-color:#0C8D5A"/>
		<stop  offset="0.5722" style="stop-color:#1D5D6D"/>
		<stop  offset="0.8413" style="stop-color:#274079"/>
		<stop  offset="0.9944" style="stop-color:#2B357D"/>
	</linearGradient>
	<path class="st12" d="M218.5-343.9c0.4,0.2,0.8,0.4,1.3,0.6c4.9,1.9,7.9,6.8,7.1,11.6c-0.9,5.5-5.1,9.2-10.6,9.2
		c-9,0.1-18,0-27.1,0c-4.1,0-5.2,1.1-5.2,5.2c0,4.1,0,8.2,0,12.7c0.9,0,1.7,0,2.6,0c15.4,0,30.8,0,46.3,0c6.1,0,10.6,2.9,11.6,8
		c1.4,6.9,0.4,12.9-5.8,16.1c-0.6,0.3-1.2,1.4-1.3,2.1c-0.9,12.3-1.8,24.5-2.7,36.8c-1.2,17.3-2.5,34.6-3.7,51.9
		c-0.9,12.4-1.8,24.8-2.6,37.2c-0.5,7.8-1.1,9.7-5.5,16.2c0.7,0.1,1.3,0.1,1.9,0.1c5.1,0,10.2,0,15.3,0c3,0,4.8,1.4,4.8,3.7
		c0,2.2-1.8,3.5-4.7,3.5c-68.5,0-137,0-205.5,0c-2.9,0-4.6-1.4-4.6-3.6c0-2.2,1.8-3.6,4.6-3.6c3.7,0,7.5,0,10.8,0
		c-1.5-3.5-3.3-6.9-4.2-10.5c-0.8-3.1-0.5-6.5-0.5-9.8c0-1.3-0.4-1.9-1.7-2.4c-6-2.4-9.7-8.5-9-14.5c0.8-6.9,5.5-11.8,12.3-12.8
		c0.6-0.1,1.2-0.2,2-0.4c0-2.2,0.1-4.4-0.1-6.6c0-0.5-0.6-1.2-1.1-1.5c-3.4-2-5.3-4.8-5.7-8.7c-1.3-12.4,2.5-23.3,10.2-32.9
		c8.5-10.6,19.7-17.2,32.4-21.4c0.6-0.2,1.2-0.4,2-0.6c-2.3-2.9-4.4-5.7-6.3-8.2c-3.8,1-7.2,2.2-10.7,2.9c-1.9,0.4-4,0.1-5.9-0.3
		c-7.8-1.8-11.8-8.8-9.9-16.9c1.1-4.4,3.5-8,6.2-10.8c-0.9-2.4-1.8-4.5-2.4-6.6c-0.1-0.5,0.7-1.6,1.4-2c4-2.3,5.2,1.6,7.3,3.7
		c3.9-2.2,8.1-3.6,12.7-3.5c9.7,0.3,15.6,8.1,13.2,17.5c-1.1,4.3-3.5,7.9-6.6,11.2c2.7,3.5,5.4,7,8.1,10.4c0.3,0.4,1.1,0.6,1.6,0.6
		c6.3-0.5,12.7-1.1,19.4-1.7c-0.2-3.2-0.4-6.9-0.7-10.5c0-0.7-0.2-1.4-0.2-2.1c0.1-3.2-0.3-5.7-3.7-7.5c-1.7-0.9-3-3.5-3.5-5.5
		c-0.6-2.5-0.6-5.4-0.2-8c0.8-5.5,5.3-8.9,11.3-8.9c15.5,0,31,0,46.5,0c0.8,0,1.7,0,2.9,0c0-0.9,0-1.6,0-2.4c0-5.2-0.1-10.4,0-15.6
		c0.2-10.5,7.1-18.8,17.4-21c0.3-0.1,0.6-0.3,0.9-0.4C193.5-343.9,206-343.9,218.5-343.9z M95.3-254c-0.1,0.2-0.2,0.4-0.2,0.7
		c1.8,2.3,3.6,4.7,5.4,7c1.7,2.2,1.6,4.2-0.2,5.6c-1.8,1.4-3.8,0.9-5.5-1.3c-2.3-3-4.6-5.9-6.9-9c-0.7-1-1.4-1.2-2.7-0.9
		c-10.3,2.8-19.6,7.4-27.4,14.9c-8.8,8.4-13.8,18.4-13.3,30.9c0.2,4.4,1.2,5.4,5.5,5.4c24.5,0,49,0,73.5,0c12.6,0,25.1,0,37.7,0
		c3.3,0,4.7-1.2,4.7-4.4c0-3.3,0-6.7-0.7-9.9c-2.2-11.1-8.7-19.5-17.5-26.1c-11.8-8.8-25.2-12.7-39.8-13.2
		C103.8-254.5,99.5-254.2,95.3-254z M140.2-254.3c3.8,2.4,7.8,4.6,11.4,7.3c3.7,2.7,7,6,10.5,9.1c0.3-0.2,0.8-0.4,1.3-0.7
		c6.7-3.4,14.9-0.9,18.7,5.6c3.7,6.5,2,15.4-4.6,18.8c-3.8,2-4.6,4.2-4.4,8c0.3,4.9-1.5,9.1-6.2,11.5c-0.4,0.2-0.8,0.8-0.8,1.3
		c-0.1,2.2,0,4.5,0,6.9c4.7,0.3,8.5,2,11.3,5.5c2.8,3.6,3.6,7.7,2.7,12.2c14.2,0,28.2,0,42.3,0c2-28.6,4.1-57,6.1-85.6
		C198.8-254.3,169.5-254.3,140.2-254.3z M48-157.9c0,2.2,0,4.1,0,5.9c0,9.6,6,15.6,15.5,15.6c13.6,0,27.3,0,40.9,0
		c14.4,0,28.8,0,43.2,0c6.9,0,12.6-4,14.2-10.4c0.8-3.5,0.7-7.2,1-11.1c-1.5,0-2.4,0-3.3,0c-21.3,0-42.6,0-63.9-0.1
		c-2.3,0-4.1,0.5-5.5,2.3c-1.7,2.1-3.8,3.3-6.6,3.2c-2.8-0.2-4.6-1.8-6.1-3.8c-1-1.3-2-1.7-3.6-1.7c-6.9,0.1-13.8,0-20.7,0
		C51.5-157.9,49.9-157.9,48-157.9z M230.2-279.4c-38.1,0-76,0-113.9,0c0.4,6,0.8,11.8,1.3,17.7c37.2,0,74.3,0,111.4,0
		C229.4-267.7,229.8-273.5,230.2-279.4z M158.8-186.5c0-2.5,0-4.7,0-7c-35.7,0-71.3,0-107,0c0,2.4,0,4.6,0,7c2,0,3.8,0.1,5.7,0
		c2-0.1,3.5,0.6,4.8,2.2c2.2,2.6,4.5,5.2,6.7,7.7c5,5.7,9.9,11.3,15.3,17.5c0.5-0.8,0.9-1.5,1.4-2.1c7.6-7.7,15.3-15.2,22.8-22.9
		c1.7-1.7,3.5-2.4,5.8-2.4c13.9,0.1,27.8,0,41.8,0C157-186.5,157.8-186.5,158.8-186.5z M173.1-286.7c11.6,0,23.2,0,34.7,0
		c8.5,0,17.1,0.1,25.6-0.1c1.2,0,3.3-0.8,3.5-1.6c0.5-2.2,0.7-4.8,0.2-7c-0.5-2.2-2.9-2.1-4.9-2c-39.3,0-78.6,0-117.9,0
		c-4.7,0-5.5,0.9-5.5,5.6c0,4.2,0.9,5.1,5.2,5.1C133.7-286.7,153.4-286.7,173.1-286.7z M165.1-136.4c13.9,0,28.1,0.1,42.3-0.1
		c6.3-0.1,11.9-4.7,13.1-10.7c0.9-4.6,1-9.4,1.5-14.3c-1.1,0-1.8,0-2.6,0c-12.4,0-24.7,0-37.1,0c-3.6,0-7.3-0.6-10.3,2.2
		c-0.1,0.1-0.4,0.2-0.6,0.3c-1.6,0.2-1.7,1.3-1.7,2.6c0,3.2,0.3,6.5-0.5,9.5C168.3-143.2,166.5-139.9,165.1-136.4z M99.9-165.3
		c0.5,0.2,0.7,0.3,0.8,0.3c21.8,0,43.6,0.1,65.4,0c4.3,0,7.3-3.4,7.2-7.4c-0.1-4-3.3-7-7.6-7c-16.8,0-33.5,0-50.3,0
		c-0.7,0-1.5,0.1-1.9,0.5C108.9-174.4,104.5-169.9,99.9-165.3z M176.8-304.7c0-4.5,0-8.9,0-13.2c0-7.3,4.4-11.7,11.7-11.7
		c8.7,0,17.3,0,26,0c0.8,0,1.7,0,2.5-0.2c1.8-0.4,3-2,2.8-3.7c-0.2-1.8-1.3-2.9-3.2-3.2c-0.5-0.1-1,0-1.5,0c-10.1,0-20.3,0-30.4,0
		c-8.9,0-14.8,5.9-14.9,14.8c-0.1,5.2,0,10.4,0,15.5c0,0.5,0.1,1.1,0.2,1.7C172.2-304.7,174.3-304.7,176.8-304.7z M69.6-165
		c-4.3-4.9-8.2-9.4-12.1-13.8c-0.3-0.3-1-0.5-1.5-0.5c-3.8,0-7.7-0.1-11.5,0c-4,0.1-7.1,3.1-7.2,7c-0.1,3.9,2.7,7.2,6.8,7.3
		C52.4-164.9,60.7-165,69.6-165z M60.1-286.8c-1.4,2.8-2.9,5.2-3.7,7.9c-1.4,4.5,1.4,8.1,6.1,8.3c7.8,0.4,17.1-6.9,18.5-14.6
		c0.7-3.5-1.1-6.7-4.4-7.5c-3.7-0.9-7.1,0.1-10.3,1.8c2.9,4.7,3.1,6.2,1.1,7.7C65.5-281.7,64-282.4,60.1-286.8z M166.2-232
		c1.1,2.2,2.2,4.1,3.2,6.2c0.9,2.1,1.7,4.3,2.6,6.6c2.6-0.9,4.2-2.7,4.7-5.3c0.5-2.9-0.3-5.4-2.7-7.1
		C171.5-233.3,168.9-233.5,166.2-232z"/>
	<linearGradient id="SVGID_11_" gradientUnits="userSpaceOnUse" x1="62.392" y1="-229.4373" x2="69.447" y2="-229.4373">
		<stop  offset="0" style="stop-color:#00AE4D"/>
		<stop  offset="0.2214" style="stop-color:#0C8D5A"/>
		<stop  offset="0.5722" style="stop-color:#1D5D6D"/>
		<stop  offset="0.8413" style="stop-color:#274079"/>
		<stop  offset="0.9944" style="stop-color:#2B357D"/>
	</linearGradient>
	<path class="st13" d="M69.4-229.4c0,1.9-1.6,3.5-3.5,3.6c-2,0-3.6-1.6-3.6-3.7c0.1-1.9,1.7-3.5,3.6-3.5
		C67.9-233,69.5-231.4,69.4-229.4z"/>
	<linearGradient id="SVGID_12_" gradientUnits="userSpaceOnUse" x1="51.6627" y1="-211.5404" x2="58.6916" y2="-211.5404">
		<stop  offset="0" style="stop-color:#00AE4D"/>
		<stop  offset="0.2214" style="stop-color:#0C8D5A"/>
		<stop  offset="0.5722" style="stop-color:#1D5D6D"/>
		<stop  offset="0.8413" style="stop-color:#274079"/>
		<stop  offset="0.9944" style="stop-color:#2B357D"/>
	</linearGradient>
	<path class="st14" d="M55.3-208c-1.9,0.1-3.5-1.5-3.6-3.4c-0.1-2.1,1.5-3.7,3.5-3.7c1.9,0,3.5,1.6,3.5,3.5
		C58.7-209.6,57.2-208,55.3-208z"/>
	<linearGradient id="SVGID_13_" gradientUnits="userSpaceOnUse" x1="112.4269" y1="-243.7409" x2="119.5635" y2="-243.7409">
		<stop  offset="0" style="stop-color:#00AE4D"/>
		<stop  offset="0.2214" style="stop-color:#0C8D5A"/>
		<stop  offset="0.5722" style="stop-color:#1D5D6D"/>
		<stop  offset="0.8413" style="stop-color:#274079"/>
		<stop  offset="0.9944" style="stop-color:#2B357D"/>
	</linearGradient>
	<path class="st15" d="M116-240.2c-2,0-3.6-1.5-3.6-3.4c-0.1-1.9,1.5-3.5,3.4-3.6c2.1-0.1,3.7,1.5,3.7,3.5
		C119.5-241.8,118-240.2,116-240.2z"/>
	<linearGradient id="SVGID_14_" gradientUnits="userSpaceOnUse" x1="76.6447" y1="-240.1534" x2="83.7698" y2="-240.1534">
		<stop  offset="0" style="stop-color:#00AE4D"/>
		<stop  offset="0.2214" style="stop-color:#0C8D5A"/>
		<stop  offset="0.5722" style="stop-color:#1D5D6D"/>
		<stop  offset="0.8413" style="stop-color:#274079"/>
		<stop  offset="0.9944" style="stop-color:#2B357D"/>
	</linearGradient>
	<path class="st16" d="M83.8-240.1c0,1.9-1.6,3.5-3.5,3.5c-1.9,0-3.5-1.6-3.6-3.5c0-2,1.7-3.7,3.7-3.6
		C82.2-243.7,83.8-242.1,83.8-240.1z"/>
	<linearGradient id="SVGID_15_" gradientUnits="userSpaceOnUse" x1="83.8051" y1="-225.8488" x2="90.9577" y2="-225.8488">
		<stop  offset="0" style="stop-color:#00AE4D"/>
		<stop  offset="0.2214" style="stop-color:#0C8D5A"/>
		<stop  offset="0.5722" style="stop-color:#1D5D6D"/>
		<stop  offset="0.8413" style="stop-color:#274079"/>
		<stop  offset="0.9944" style="stop-color:#2B357D"/>
	</linearGradient>
	<path class="st17" d="M87.4-222.3c-2,0-3.6-1.5-3.6-3.4c0-1.9,1.5-3.5,3.4-3.6c2.1-0.1,3.7,1.5,3.7,3.5
		C90.9-223.9,89.4-222.3,87.4-222.3z"/>
	<linearGradient id="SVGID_16_" gradientUnits="userSpaceOnUse" x1="69.5494" y1="-215.1039" x2="76.5804" y2="-215.1039">
		<stop  offset="0" style="stop-color:#00AE4D"/>
		<stop  offset="0.2214" style="stop-color:#0C8D5A"/>
		<stop  offset="0.5722" style="stop-color:#1D5D6D"/>
		<stop  offset="0.8413" style="stop-color:#274079"/>
		<stop  offset="0.9944" style="stop-color:#2B357D"/>
	</linearGradient>
	<path class="st18" d="M76.6-215.2c0,2-1.4,3.6-3.4,3.6c-2,0.1-3.7-1.5-3.7-3.5c0-2,1.5-3.5,3.5-3.5C75-218.7,76.5-217.2,76.6-215.2
		z"/>
	<linearGradient id="SVGID_17_" gradientUnits="userSpaceOnUse" x1="191.1828" y1="-232.9728" x2="219.7633" y2="-232.9728">
		<stop  offset="0" style="stop-color:#00AE4D"/>
		<stop  offset="0.2214" style="stop-color:#0C8D5A"/>
		<stop  offset="0.5722" style="stop-color:#1D5D6D"/>
		<stop  offset="0.8413" style="stop-color:#274079"/>
		<stop  offset="0.9944" style="stop-color:#2B357D"/>
	</linearGradient>
	<path class="st19" d="M219.8-233c0,7.8-6.4,14.2-14.2,14.3c-7.9,0.1-14.4-6.4-14.4-14.3c0-7.9,6.3-14.2,14.2-14.3
		C213.4-247.3,219.8-241,219.8-233z M198.4-232.9c0,4,3.3,7.1,7.2,7.1c4-0.1,7-3.3,7-7.3c-0.1-3.9-3.3-7-7.1-7
		C201.5-240.1,198.3-236.9,198.4-232.9z"/>
	<linearGradient id="SVGID_18_" gradientUnits="userSpaceOnUse" x1="183.9858" y1="-190.0564" x2="205.4299" y2="-190.0564">
		<stop  offset="0" style="stop-color:#00AE4D"/>
		<stop  offset="0.2214" style="stop-color:#0C8D5A"/>
		<stop  offset="0.5722" style="stop-color:#1D5D6D"/>
		<stop  offset="0.8413" style="stop-color:#274079"/>
		<stop  offset="0.9944" style="stop-color:#2B357D"/>
	</linearGradient>
	<path class="st20" d="M205.4-190.1c0,5.9-4.7,10.7-10.6,10.8c-5.9,0-10.8-4.7-10.8-10.6c-0.1-6,4.7-10.8,10.7-10.8
		C200.7-200.8,205.4-196.1,205.4-190.1z M198.3-190c0-1.9-1.5-3.5-3.4-3.6c-2-0.1-3.6,1.4-3.7,3.3c-0.1,2.1,1.5,3.7,3.5,3.7
		C196.7-186.5,198.3-188.1,198.3-190z"/>
</g>
<g>
	<g>
		<path class="st2" d="M83.5,125c-0.7,0-1.3,0-1.9,0c-24.1,0-48.1,0-72.2,0c-5.5,0-8.2-2.8-8.2-8.2c0-35.8,0-71.7,0-107.5
			c0-5.4,2.8-8.1,8.2-8.1c39,0,78,0,117,0c5.5,0,8.2,2.8,8.2,8.3c0,25.8,0,51.5,0,77.3c0,1,0.3,1.7,1.1,2.3
			c11,8.9,15.5,20.5,12.1,34.2c-3.3,13.7-12.4,22.3-26.4,25c-16.3,3.2-32.2-6.4-37.5-22C83.8,125.8,83.7,125.5,83.5,125z
			 M120.2,82.5c0-0.7,0-1.2,0-1.8c0-18.2,0-36.4,0-54.6c0-1.1,0.3-2.3,0.8-3.2c2.6-4.7,5.3-9.4,8-14.1c0.7-1.3,0.2-2.4-1.2-2.8
			c-0.5-0.1-1.1-0.1-1.6-0.1c-38.9,0-77.9,0-116.8,0c-0.4,0-0.8,0-1.2,0C6.4,6.1,5.7,7.4,6.7,9c2.7,4.6,5.3,9.3,7.9,14
			c0.5,0.9,0.8,1.9,0.8,2.9c0,24.8,0,49.6,0,74.4c0,1-0.3,2.1-0.8,2.9c-2.6,4.7-5.3,9.4-8,14.1c-0.8,1.5-0.2,2.7,1.5,2.9
			c0.4,0.1,0.9,0,1.3,0c23.8,0,47.5,0,71.3,0c0.5,0,1.1,0,1.7,0c-1.3-11,1.6-20.5,9.3-28.3C99.5,84.1,109.1,81.2,120.2,82.5z
			 M86.9,115.5c0,15.7,12.8,28.5,28.6,28.5c15.6,0,28.5-12.8,28.5-28.3c0.1-15.8-12.6-28.8-28.2-28.8
			C99.8,86.8,86.9,99.5,86.9,115.5z M6,108.3c0.1,0,0.2,0,0.3,0.1c1.3-2.3,2.6-4.5,3.9-6.8c0.3-0.6,0.5-1.4,0.5-2.1
			c0-24.2,0-48.4,0-72.6c0-0.4,0.1-1-0.1-1.3c-1.4-2.6-2.9-5.1-4.4-7.7c-0.1,0-0.2,0.1-0.2,0.1C6,48,6,78.2,6,108.3z M129.6,85.3
			c0-22.6,0-45,0-67.7c-1.5,2.5-2.8,4.8-4,7c-0.4,0.7-0.6,1.6-0.6,2.4c0,18.4,0,36.8,0,55.2c0,0.5,0,1,0,1.4
			C126.6,84.1,128.1,84.7,129.6,85.3z"/>
		<path class="st2" d="M67.8,15.3c20.7,0.1,37.9,16.9,38.1,37.4c0,2.1-0.4,2.7-2.4,3.4c-11.4,3.8-22.8,7.6-34.3,11.4
			c-0.9,0.3-2,0.3-2.9,0C55,63.7,43.7,59.9,32.3,56.1c-2.3-0.8-2.6-1.2-2.6-3.7C30,34.7,43.7,18.9,61.3,16
			C63.5,15.7,65.6,15.6,67.8,15.3z M75,60.3c0.3,0.1,0.3,0.1,0.4,0.1c8.3-2.8,16.6-5.5,24.9-8.3c0.3-0.1,0.7-0.9,0.7-1.3
			c-0.3-2.1-0.5-4.2-1.1-6.3c-0.7-2.4-1.8-4.7-2.7-7.1c-0.2,0-0.4-0.1-0.6-0.1c-1,1.2-2,2.4-2.9,3.4c-1.3-1.2-2.4-2.2-3.7-3.5
			c1.4-1.3,2.9-2.6,4.4-3.9c-6.3-7.8-14.2-12.1-24.1-13c0,2.4,0,4.7,0,6.9c-1.7,0-3.2,0-4.8,0c0-2.3,0-4.6,0-6.9
			c-9.9,0.9-17.8,5.2-24.2,13.2c1.5,1.4,3,2.7,4.3,4c-1.1,1.2-2.1,2.3-3.4,3.6c-1.1-1.3-2.2-2.5-3.3-3.8c-2.4,4.3-3.7,8.6-4.2,13.2
			c-0.1,1,0.1,1.5,1.1,1.8c10,3.3,20,6.6,30,10c1,0.3,1.5,0.1,2.1-0.6c4.3-5.5,8.7-10.9,13.1-16.4c0.3-0.3,0.5-0.7,0.9-1.2
			c-1.6,0-3,0-4.4,0c0-1.6,0-3.1,0-4.7c2.2,0,4.2,0,6.3,0c5,0,5-0.4,6.2,4.8c0.5,2.1,1.1,4.3,1.6,6.5c-1.6,0.4-3.1,0.8-4.6,1.1
			c-0.4-1.6-0.8-3.1-1.3-4.8C82,51.5,78.6,55.9,75,60.3z"/>
	</g>
	<path class="st2" d="M113.8,105.3c0,0.7,0.1,1.1,0.1,1.5c-0.1,4.8-0.2,19.7-0.2,24.4h4.8c0.1-5.2,0.2-20.5,0.3-26
		c1.4,1.1,2.7,2,4,3c1-1.2,1.9-2.4,2.9-3.7c-1.8-1.4-3.6-2.8-5.2-4.2c-4.2-3.4-3.9-3.1-7.8-0.1c-1.6,1.3-3.3,2.5-5,3.9l2.9,3.8
		L113.8,105.3z"/>
</g>
</svg>
