<?xml version="1.0" encoding="utf-8"?>
<!-- Generator: Adobe Illustrator 24.3.0, SVG Export Plug-In . SVG Version: 6.00 Build 0)  -->
<svg version="1.1" id="Layer_1" xmlns="http://www.w3.org/2000/svg" xmlns:xlink="http://www.w3.org/1999/xlink" x="0px" y="0px"
	 viewBox="0 0 150 150" style="enable-background:new 0 0 150 150;" xml:space="preserve">
<style type="text/css">
	.st0{fill:#CDEEFD;}
	.st1{fill:#111224;}
	.st2{fill:#005BAB;}
</style>
<path class="st0" d="M1465.3,1556.3c-2.4-0.2-4.3-1.3-4.4-4.1c-0.1-6.7,1.6-10,4.9-9.9c0.2,0,0.3,0,0.5,0c2.2,0.5,4.3,2.1,3.2,4
	C1467.7,1549.5,1473.1,1555.7,1465.3,1556.3z M1465.5,1554.4c1.3-0.1,2.3-0.6,2.3-2.1c-0.1-1.7-1.5-2.1-2.8-2.4c-1.6-0.4-2,0.8-2,2
	C1463,1553.5,1464,1554.2,1465.5,1554.4z M1467.8,1546.5c0-1.4-0.6-2.2-2.1-2.2c-0.9,0-1.6,0.4-1.7,1.4c-0.2,1.4,0.9,2.1,2,2.5
	C1467.3,1548.5,1467.6,1547.5,1467.8,1546.5z"/>
<path class="st0" d="M1455.8,1556.6c-0.5-2.9-1.8-4.2-4.6-3.6c-0.7,0.2-1.7,0.3-2.1-0.8c-0.4-1.1,0.1-1.5,1.2-2.1
	c2.1-1.2,2.1-3.9,3.2-5.8c0.6-1,1-2.2,2.5-1.9c1.4,0.3,0.9,1.6,0.8,2.5C1456.4,1548.6,1458.4,1552.5,1455.8,1556.6z"/>
<path class="st1" d="M1465.5,1554.4c-1.5-0.1-2.6-0.8-2.5-2.4c0-1.2,0.4-2.4,2-2c1.2,0.3,2.7,0.7,2.8,2.4
	C1467.8,1553.7,1466.8,1554.2,1465.5,1554.4z"/>
<path class="st1" d="M1467.8,1546.5c-0.2,1-0.5,2.1-1.8,1.7c-1.1-0.4-2.1-1-2-2.5c0.1-1,0.8-1.4,1.7-1.4
	C1467.2,1544.3,1467.8,1545,1467.8,1546.5z"/>
<polygon class="st2" points="1346.8,29.4 1346.9,29.6 1346.6,29.6 "/>
<g>
	<g>
		<path class="st2" d="M10.9,78.6c-20-42.1,28.4-82.2,64-50.9c6.7-5.9,14.6-9.8,23.5-10.7c1.6-0.2,2.6,0.5,2.8,1.7
			c1.2,4.6-12.6,0.7-24.6,13.4c-1.3,1.3-2.3,1.2-3.9-0.3c-18.9-20-55.1-10.1-61,16.9c-2.5,10.2-0.8,19.8,4,29
			c0.2,0.4,0.8,0.8,1.3,0.8c3.3,0.1,6.7,0,10,0.1c1,0,1.3-0.6,1.6-1.3c3.4-7,6.8-14,10.2-20.9c1.1-2.3,3.8-2.7,4.6,0.2
			c3.7,10.8,7.3,21.4,11,32.2c3.1-9.5,5.7-19,8.5-28.5c0.4-1.2,0.7-2.3,2.2-2.5c1.4-0.1,2,0.9,2.6,1.9c2.7,4.6,5.3,9.1,8.2,13.7
			c3.5-8.1,6.6-16.3,10-24.5c0.5-1.2,1-2.3,2.5-2.2c1.4,0,1.9,1.1,2.4,2.2c1.5,3.4,3,6.9,4.5,10.3c1.6,2.8-2.4,5.2-3.9,2
			c-1-2.1-1.9-4.2-2.9-6.5c-3.5,7.9-6.5,15.9-9.8,23.9c-0.4,1.1-0.9,2-2.2,2.1c-1.3,0.1-1.9-0.8-2.5-1.8c-2.7-4.5-5.1-8.8-7.9-13.2
			c-3.2,10.4-6.1,20.6-9.2,30.9C56.5,99,53,99,52.5,96.5c-3.9-11.3-7.6-22.6-11.6-33.9c-3.2,6.1-6,12.2-9,18.3
			c-0.7,1.5-1.7,2.1-3.3,2.1c-3.1-0.1-6.2,0-9.7,0c13.4,20.3,35.8,31.4,55.2,45c0.4,0.3,1.2,0.3,1.6,0.1
			c19.9-13,41.6-25.1,55.4-45.1c-2.2,0-4-0.1-5.8,0c-1.7,0.1-2.7-0.6-3.4-2.1c-1.7-3.5-3.5-7-5.4-10.8c-2.4,7.4-4.6,14.2-6.9,21.5
			c-0.4,1.1-0.8,2-2.2,2.1c-1.3,0.1-1.9-0.8-2.4-1.8c-3.2-7.4-6.5-14.8-9.7-22.2c-0.3-0.8-0.3-2,0.1-2.7c1.2-1.4,3.2-0.6,3.9,1.1
			c2.6,5.8,4.9,11.4,7.6,17.2c2.4-7,4.5-13.9,6.8-21c0.4-1.1,0.9-2,2.2-2.1c1.3-0.1,1.9,0.8,2.4,1.8c2.2,4.5,4.5,8.9,6.6,13.4
			c0.5,0.9,1,1.3,2,1.2c1.8-0.3,6.1,0.7,7.1-0.8c12.1-21,1.7-50.4-22.9-55.7c-1.5-0.4-2.3-1.4-2-2.7c0.3-1.3,1.5-2,3.1-1.6
			c26.7,5.7,38.8,37.2,26.4,60.8c3.1,0,5.8,0,8.8,0c3.3-0.1,3.4,4.4,0,4.4c-2.4,0.3-10.7-0.8-11.8,0.9c-14.2,22-37.8,35-59.2,49
			c-1,0.6-1.9,0.7-2.9,0.1c-21.4-14-45.1-27.1-59.4-49.1c-0.3-0.5-1.2-0.8-1.8-0.8c-3.3-0.1-6.7,0-10,0c-2.4,0.1-3.1-2.2-1.6-3.9
			c0.3-0.4,1.2-0.5,1.9-0.5C5.4,78.6,8.2,78.6,10.9,78.6z"/>
	</g>
</g>
</svg>
