<?xml version="1.0" encoding="utf-8"?>
<!-- Generator: Adobe Illustrator 24.3.0, SVG Export Plug-In . SVG Version: 6.00 Build 0)  -->
<svg version="1.1" id="Layer_1" xmlns="http://www.w3.org/2000/svg" xmlns:xlink="http://www.w3.org/1999/xlink" x="0px" y="0px"
	 viewBox="0 0 150 150" style="enable-background:new 0 0 150 150;" xml:space="preserve">
<style type="text/css">
	.st0{fill:#CDEEFD;}
	.st1{fill:#111224;}
	.st2{fill:#005BAB;}
</style>
<path class="st0" d="M1465.3,1556.3c-2.4-0.2-4.3-1.3-4.4-4.1c-0.1-6.7,1.6-10,4.9-9.9c0.2,0,0.3,0,0.5,0c2.2,0.5,4.3,2.1,3.2,4
	C1467.7,1549.5,1473.1,1555.7,1465.3,1556.3z M1465.5,1554.4c1.3-0.1,2.3-0.6,2.3-2.1c-0.1-1.7-1.5-2.1-2.8-2.4c-1.6-0.4-2,0.8-2,2
	C1463,1553.5,1464,1554.2,1465.5,1554.4z M1467.8,1546.5c0-1.4-0.6-2.2-2.1-2.2c-0.9,0-1.6,0.4-1.7,1.4c-0.2,1.4,0.9,2.1,2,2.5
	C1467.3,1548.5,1467.6,1547.5,1467.8,1546.5z"/>
<path class="st0" d="M1455.8,1556.6c-0.5-2.9-1.8-4.2-4.6-3.6c-0.7,0.2-1.7,0.3-2.1-0.8c-0.4-1.1,0.1-1.5,1.2-2.1
	c2.1-1.2,2.1-3.9,3.2-5.8c0.6-1,1-2.2,2.5-1.9c1.4,0.3,0.9,1.6,0.8,2.5C1456.4,1548.6,1458.4,1552.5,1455.8,1556.6z"/>
<path class="st1" d="M1465.5,1554.4c-1.5-0.1-2.6-0.8-2.5-2.4c0-1.2,0.4-2.4,2-2c1.2,0.3,2.7,0.7,2.8,2.4
	C1467.8,1553.7,1466.8,1554.2,1465.5,1554.4z"/>
<path class="st1" d="M1467.8,1546.5c-0.2,1-0.5,2.1-1.8,1.7c-1.1-0.4-2.1-1-2-2.5c0.1-1,0.8-1.4,1.7-1.4
	C1467.2,1544.3,1467.8,1545,1467.8,1546.5z"/>
<polygon class="st2" points="1346.8,29.4 1346.9,29.6 1346.6,29.6 "/>
<g>
	<path class="st2" d="M0.3,103c0.3-1.6,0.6-3.1,1-4.7c5.1-18.3,26-27.1,42.7-18c0.5,0.3,1.1,0.6,1.6,0.9C61.3,65,87.5,65,103.3,80.2
		c4.1-2.7,8.6-4.4,13.5-5c15.4-2.2,31.1,9.8,32.6,25.3c0.4,4,0.3,8.1,0.3,12.1c0,2.9-2.4,5.3-5.3,5.7c-0.7,0.1-1.4,0.1-2,0.1
		c-8.3,0-16.5,0-24.8,0c-0.6,0-1.2,0-1.9,0c0,0.5-0.1,0.9-0.1,1.3c-0.1,5.1-3.3,8.3-8.5,8.3c-6.5,0-13,0-19.6,0
		c-14.6,0-29.3,0-43.9,0c-5.6,0-8.4-2.3-9.4-7.8c-0.5,0-1,0-1.5,0c-8.2,0-16.3-0.1-24.5,0c-3.9,0.1-6.6-1.2-7.9-5
		C0.3,111.2,0.3,107.1,0.3,103z M74.9,123.2c10.7,0,21.5,0,32.2,0c2.5,0,3.6-1.1,3.6-3.5c0-1.5,0-3,0-4.5c0-5.1,0.2-10.1-1.2-15.1
		c-5.4-19.7-26.2-30.9-45.7-24.5C49.9,80,40.2,92.4,39.4,107c-0.2,4.1-0.1,8.2-0.1,12.2c0,2.9,1,4,3.9,4
		C53.7,123.2,64.3,123.2,74.9,123.2z M106.6,83.9c7,8.7,9.7,18.6,9,29.5c0.3,0.1,0.4,0.2,0.5,0.2c9,0,18.1,0,27.1,0
		c1.2,0,1.7-0.7,1.7-1.9c0-2.9,0.1-5.7-0.1-8.6c-0.5-8.6-4.5-15.2-11.8-19.7C125,78.4,113.8,78.6,106.6,83.9z M42.5,85.1
		c-0.4-0.3-0.7-0.4-0.9-0.6c-13.9-7.7-32.2,0.2-35.6,15.6c-0.9,4.2-0.6,8.6-0.8,12.9c-0.1,2,0.3,2.3,2.3,2.3c8.5,0,17,0,25.5,0
		c0.5,0,0.9,0,1.6-0.1C33.7,104.2,35.7,94.1,42.5,85.1z"/>
	<path class="st2" d="M74.1,66.1c-12.3,0-22.2-9.9-22.2-22.1c0-12.2,10-22.1,22.3-22.1c12.3,0,22.2,9.9,22.2,22.1
		C96.4,56.2,86.4,66.1,74.1,66.1z M74.1,61.3c9.6,0,17.5-7.7,17.5-17.2c0-9.5-7.8-17.3-17.4-17.3c-9.6,0-17.5,7.7-17.5,17.2
		C56.6,53.4,64.5,61.3,74.1,61.3z"/>
	<path class="st2" d="M137.5,54.3c0,9.4-7.9,17.2-17.4,17.1c-9.5-0.1-17.3-7.9-17.3-17.3c0.1-9.4,7.9-17.1,17.4-17.1
		C129.8,37.1,137.5,44.9,137.5,54.3z M120.1,66.6c6.9,0,12.5-5.5,12.5-12.3c0-6.8-5.6-12.3-12.5-12.3c-6.9,0-12.5,5.5-12.5,12.3
		C107.7,61.1,113.2,66.6,120.1,66.6z"/>
	<path class="st2" d="M29.9,38.3c9.5,0,17.3,7.8,17.3,17.2c0,9.4-7.9,17.2-17.4,17.1c-9.5,0-17.3-7.8-17.3-17.2
		C12.5,46,20.4,38.2,29.9,38.3z M29.8,67.8c6.9,0,12.5-5.5,12.5-12.3c0-6.9-5.5-12.3-12.4-12.4c-6.9,0-12.5,5.5-12.6,12.3
		C17.3,62.2,22.9,67.8,29.8,67.8z"/>
</g>
</svg>
