<?xml version="1.0" encoding="utf-8"?>
<!-- Generator: Adobe Illustrator 24.3.0, SVG Export Plug-In . SVG Version: 6.00 Build 0)  -->
<svg version="1.1" id="Layer_1" xmlns="http://www.w3.org/2000/svg" xmlns:xlink="http://www.w3.org/1999/xlink" x="0px" y="0px"
	 viewBox="0 0 150 150" style="enable-background:new 0 0 150 150;" xml:space="preserve">
<style type="text/css">
	.st0{fill:#CDEEFD;}
	.st1{fill:#111224;}
	.st2{fill:#005BAB;}
</style>
<path class="st0" d="M1465.3,1556.3c-2.4-0.2-4.3-1.3-4.4-4.1c-0.1-6.7,1.6-10,4.9-9.9c0.2,0,0.3,0,0.5,0c2.2,0.5,4.3,2.1,3.2,4
	C1467.7,1549.5,1473.1,1555.7,1465.3,1556.3z M1465.5,1554.4c1.3-0.1,2.3-0.6,2.3-2.1c-0.1-1.7-1.5-2.1-2.8-2.4c-1.6-0.4-2,0.8-2,2
	C1463,1553.5,1464,1554.2,1465.5,1554.4z M1467.8,1546.5c0-1.4-0.6-2.2-2.1-2.2c-0.9,0-1.6,0.4-1.7,1.4c-0.2,1.4,0.9,2.1,2,2.5
	C1467.3,1548.5,1467.6,1547.5,1467.8,1546.5z"/>
<path class="st0" d="M1455.8,1556.6c-0.5-2.9-1.8-4.2-4.6-3.6c-0.7,0.2-1.7,0.3-2.1-0.8c-0.4-1.1,0.1-1.5,1.2-2.1
	c2.1-1.2,2.1-3.9,3.2-5.8c0.6-1,1-2.2,2.5-1.9c1.4,0.3,0.9,1.6,0.8,2.5C1456.4,1548.6,1458.4,1552.5,1455.8,1556.6z"/>
<path class="st1" d="M1465.5,1554.4c-1.5-0.1-2.6-0.8-2.5-2.4c0-1.2,0.4-2.4,2-2c1.2,0.3,2.7,0.7,2.8,2.4
	C1467.8,1553.7,1466.8,1554.2,1465.5,1554.4z"/>
<path class="st1" d="M1467.8,1546.5c-0.2,1-0.5,2.1-1.8,1.7c-1.1-0.4-2.1-1-2-2.5c0.1-1,0.8-1.4,1.7-1.4
	C1467.2,1544.3,1467.8,1545,1467.8,1546.5z"/>
<polygon class="st2" points="1346.8,29.4 1346.9,29.6 1346.6,29.6 "/>
<g>
	<path class="st2" d="M25.5,80.1c0,1.6,0,3.1,0,4.7c-1.6,0-3.2,0-4.8,0c0-1.6,0-3.1,0-4.7C22.2,80.1,23.8,80.1,25.5,80.1z"/>
	<g>
		<path class="st2" d="M129.4,139.1c0,2.3,0,4.7,0,7.1c0,2-0.9,2.9-2.9,2.9c-3,0-6,0-9,0c-2,0-2.9-0.9-2.9-2.9c0-2.3,0-4.5,0-6.9
			c-5.5,0-10.9,0-16.5,0c0.2,0.7,0.3,1.4,0.5,2c0.4,1.7,1,3.4,1.2,5.1c0.2,1.6-0.9,2.7-2.5,2.7c-6.5,0-13.1,0.1-19.6,0
			c-0.9,0-1.7-0.8-2.8-1.3c-0.6,1.2-1.9,1.4-3.3,1.4c-6,0-11.9,0-17.9,0c-2.5,0-3.5-1.1-3.2-3.5c0.2-1.5,0.8-2.9,1.2-4.3
			c0.2-0.6,0.3-1.2,0.4-2c-5.6,0-11,0-16.5,0c0,2.3,0,4.5,0,6.7c0,2.3-0.9,3.1-3.2,3.1c-2.9,0-5.8,0-8.6,0c-2.1,0-3-0.9-3-3
			c0-2.3,0-4.6,0-7c-0.5-0.1-0.9-0.3-1.3-0.4c-5.2-1.7-8.6-6.3-8.6-11.9c0-11.6,0-23.2,0-34.7c0-0.7-0.1-1.5-0.4-2
			C5.4,80.9,9.8,70.7,19.6,68c0.3-0.1,0.6-0.1,1-0.2c0-4,0-7.9,0-11.9c0-3.5-0.2-7.1,0.3-10.6c1.1-7.9,7.3-13.7,15.3-14.6
			c0.8-0.1,1.5-0.1,2.3-0.1c6.3,0,12.6,0,19.1,0c0,1.7,0,3.2,0,4.9c-0.6,0-1.2,0-1.7,0c-5.9,0-11.7,0-17.6,0
			c-7.3,0-12.7,5.3-12.7,12.7c0,6.1,0,12.3,0,18.4c0,0.4,0,0.8,0.1,1.3c2.8,0.6,5.3,1.7,7.4,3.6c5.1,4.7,6.4,12.1,3.1,18.2
			c-0.4,0.7-0.6,1.5-0.6,2.3c-0.1,4.2,0,8.3,0,12.6c4.4,0,8.8,0,13.3,0c-0.1-3.2-1-6.5,0.9-9.5c-0.1-0.1-0.2-0.3-0.3-0.3
			c-5-1.5-6.6-3.6-6.6-8.8c0-7.5,0-14.9,0-22.4c0-8.1,4-14,11.6-17.1c4-1.6,8-3.2,12-4.8c0.4-0.2,1.1-0.7,1.1-1
			c0-0.9-0.1-2.2-0.6-2.6c-4.7-3.4-6.9-7.9-6.7-13.6c0.1-3.8-0.2-7.6,0.3-11.2c1-7.6,8.1-12.8,15.7-12.3c7.4,0.6,13.5,6.8,13.6,14.3
			c0.1,4.3,0.1,8.6-0.3,12.8c-0.4,4.1-2.6,7.4-6,9.6c-1.2,0.8-1.2,1.9-1,2.9c0.1,0.5,0.9,1.1,1.6,1.3c3.9,1.6,7.8,3.1,11.7,4.7
			c7.3,3,11.3,8.9,11.3,16.7c0,7.7,0,15.3,0,23c0,4.7-1.8,7-6.3,8.4c-0.1,0-0.3,0.1-0.2,0.1c0.3,1.7,0.8,3.3,0.9,4.9
			c0.1,1.6-0.2,3.2-0.3,4.9c4.4,0,8.8,0,13.2,0c0-0.3,0.1-0.7,0.1-1.1c0-2.5,0-5,0-7.6c0-2.8-0.2-5.4-1.4-8.2
			c-3.4-8,1.3-17.1,9.7-19.5c0.5-0.1,1-0.3,1.6-0.4c0-0.4,0.1-0.9,0.1-1.4c0-6.1,0-12.1,0-18.2c0-7.4-5.3-12.7-12.8-12.7
			c-6.4,0-12.8,0-19.2,0c0-1.7,0-3.2,0-4.9c0.5,0,0.9,0,1.4,0c5.9,0,11.8,0,17.8,0c10.3,0,17.8,7.5,17.8,17.8c0,6.4,0,12.9,0,19.3
			c0.5,0.1,0.9,0.3,1.4,0.4c9.4,2.6,13.8,13,9.1,21.6c-0.4,0.7-0.6,1.5-0.6,2.3c0,10.9-0.2,21.7,0,32.6
			C139.5,131.4,136.7,136.9,129.4,139.1z M119.5,134.3c2.2,0,4.2,0,6.2,0c5.7,0,8.6-2.9,8.6-8.5c0-11.6,0-23.3,0-34.9
			c0-1.1,0.5-2.1,0.9-3.2c0.5-1.6,1.3-3.1,1.5-4.6c0.4-4.3-2.2-8.3-6.2-9.9c-3.9-1.6-8.5-0.4-11.2,2.8c-2.8,3.3-3,7.9-0.8,11.7
			c0.6,1,0.9,2.2,0.9,3.3c0.1,4.3,0,8.6,0.1,13c0,0.5,0.3,1.2,0.7,1.4c2.9,1.6,4.2,4,4.2,7.2c0,2.9,0,5.9,0,8.8
			c0,3.2-1.3,5.6-4.2,7.2c-0.3,0.2-0.7,0.6-0.8,1C119.4,131.1,119.5,132.6,119.5,134.3z M30.5,134.2c0-1.5,0.1-2.9,0-4.4
			c0-0.5-0.4-1.1-0.9-1.4c-2.6-1.5-4-3.8-4-6.8c0-3.2,0-6.4,0-9.6c0-2.9,1.3-5.2,3.9-6.5c0.8-0.4,1.1-0.9,1-1.8
			c0-4.2-0.1-8.4,0-12.7c0-1.2,0.4-2.5,1-3.6c2.5-4.3,1.7-9.6-2.1-12.7c-3.8-3.2-9.2-3.1-12.9,0.1c-3.6,3.1-4.4,8.4-1.9,12.6
			c0.6,1,1,2.3,1,3.4c0.1,11.8,0,23.7,0,35.5c0,4,2.6,7.3,6.4,7.6C24.8,134.4,27.6,134.2,30.5,134.2z M92.3,79.9
			c0-5.9,0-11.6,0-17.4c0-1.5-1.1-2.3-2.9-2.3c-9.6,0-19.1,0-28.7,0c-2.1,0-3,0.9-3,3c0,3.7,0,7.4,0,11.1c0,1.8,0,3.7,0,5.6
			C69.3,79.9,80.7,79.9,92.3,79.9z M93.4,135.9c0.4-4.6,0.8-8.9,1.2-13.3c0.7-7.5,1.3-15,2-22.4c0.2-2.9-1.8-5.3-4.5-5.4
			c-2.8-0.2-5.1,1.8-5.3,4.6c-0.9,10.2-1.8,20.5-2.7,30.7c-0.1,1.6-0.2,3.1-0.4,4.8C87.1,133.8,90.2,134.3,93.4,135.9z M66.4,134.8
			c-0.3-3.8-0.6-7.4-1-11.1c-0.7-8.2-1.4-16.4-2.2-24.6c-0.2-2-1.3-3.4-3.2-4.1c-3.6-1.3-6.9,1.5-6.6,5.7c0.5,5.8,1,11.6,1.5,17.4
			c0.5,5.9,1,11.8,1.6,17.6C62.6,134.1,62.6,134.1,66.4,134.8z M68.3,46.2c-4.5,1.8-9.1,3.5-13.5,5.5c-5.1,2.3-8,8.1-6.8,13.3
			c1.6,0,3.1,0,4.7,0c0-0.9,0-1.7,0-2.4c0.1-4.1,3.2-7.3,7.3-7.3c10-0.1,20-0.1,29.9,0c4,0,7.2,3.3,7.3,7.3c0,0.8,0,1.6,0,2.4
			c1.7,0,3.3,0,4.8,0c0.6-6.8-2.2-11.5-8.3-14c-1-0.4-2-0.8-3-1.2c-3-1.2-6.1-2.4-9.1-3.6C77.7,51.7,72.3,51.7,68.3,46.2z
			 M99.4,124.4c6,0,11.8,0,17.6,0c1.6,0,2.4-1.1,2.4-2.8c0-3.1,0-6.2,0-9.2c0-1.9-1-2.8-2.9-2.8c-4.9,0-9.9,0-14.8,0
			c-0.3,0-0.7,0.1-1,0.1C100.3,114.6,99.8,119.4,99.4,124.4z M49.3,109.7c-0.3-0.1-0.4-0.1-0.6-0.1c-5.2,0-10.4,0-15.6,0
			c-1.7,0-2.6,1-2.6,2.7c0,3,0,6,0,8.9c0,2.3,0.9,3.1,3.2,3.1c4,0,8,0,12,0c1.6,0,3.2,0,4.8,0C50.1,119.4,49.7,114.6,49.3,109.7z
			 M65.2,23.1c-0.5,4.8,0.8,8.7,5,11.1c3.6,2,7.3,1.8,10.6-0.7c3.5-2.6,4.4-6.2,4-10.3c-5-0.4-5.1-0.4-8.2-3.4
			C73.2,22.2,69.4,23.2,65.2,23.1z M57.7,84.9c0,0.5,0,0.8,0,1.1c0,3.1,0.6,3.8,3.7,3.8c3.5,0,7.1,0,10.6,0c5.8,0,11.5,0,17.3,0
			c1.8,0,2.8-0.8,2.9-2.4c0.1-0.8,0-1.6,0-2.4C80.7,84.9,69.3,84.9,57.7,84.9z M84.7,18c0.6-4.8-1.1-8.7-4.7-10.8
			c-3.4-2-7.7-1.8-10.9,0.6c-3.2,2.4-4.7,6.5-3.8,10.3c4,0.3,6.9-0.9,10-3.8c1.8-1.7,3.4-1.4,4.6,0.8c0.1,0.2,0.2,0.5,0.3,0.7
			C81.4,18.1,82,18.4,84.7,18z M69.1,109.7c0.4,5,0.9,9.8,1.3,14.7c3.1,0,6.1,0,9.1,0c0.4-4.9,0.8-9.7,1.3-14.7
			C76.9,109.7,73.1,109.7,69.1,109.7z M67.4,94.8c0.5,3.3,1,6.5,1.5,9.7c4.1,0,8.2,0,12.2,0c0.5-3.3,1-6.5,1.5-9.7
			C77.6,94.8,72.4,94.8,67.4,94.8z M51,129.5c-5.2,0-10.3,0-15.5,0c0,1.6,0,3.2,0,4.7c5.3,0,10.6,0,15.9,0
			C51.3,132.5,51.1,131,51,129.5z M99,129.4c-0.1,1.7-0.3,3.2-0.4,4.8c5.4,0,10.6,0,15.9,0c0-1.6,0-3.2,0-4.8
			C109.3,129.4,104.3,129.4,99,129.4z M69.4,144.1c-0.7-2.9-3.7-4.9-6.9-4.9c-3.1,0.1-5.9,2.1-6.6,4.9
			C60.4,144.1,64.9,144.1,69.4,144.1z M94.2,144.1c-1.2-3.3-4.4-5.3-7.7-4.8c-2.9,0.4-5.5,2.6-5.8,4.8
			C85.1,144.1,89.6,144.1,94.2,144.1z M47.9,70.1c0,3.3,0,6.5,0,9.7c1.6,0,3.2,0,4.7,0c0-3.3,0-6.5,0-9.7
			C51.1,70.1,49.5,70.1,47.9,70.1z M102.1,79.9c0-3.3,0-6.5,0-9.7c-1.7,0-3.2,0-4.8,0c0,3.3,0,6.5,0,9.7
			C98.9,79.9,100.4,79.9,102.1,79.9z M71.3,134.2c2.5,0,4.9,0,7.4,0c0.1-1.6,0.3-3.2,0.4-4.7c-2.8,0-5.5,0-8.2,0
			C71,131.1,71.1,132.6,71.3,134.2z M25.7,139.3c0,1.7,0,3.2,0,4.8c1.6,0,3.2,0,4.7,0c0-1.7,0-3.2,0-4.8
			C28.8,139.3,27.2,139.3,25.7,139.3z M119.5,144.1c1.7,0,3.2,0,4.8,0c0-1.6,0-3.2,0-4.7c-1.7,0-3.2,0-4.8,0
			C119.5,141,119.5,142.5,119.5,144.1z M47.9,84.9c-0.5,4.5,1.1,5.3,4.8,4.7c0-1.6,0-3.1,0-4.7C51,84.9,49.5,84.9,47.9,84.9z
			 M97.3,89.7c4.2,0.6,5.5-0.9,4.6-4.7c-1.5,0-3.1,0-4.6,0C97.3,86.6,97.3,88.1,97.3,89.7z M72.5,40.3c0.2,1.7-0.6,3.6,1.3,4.6
			c0.7,0.3,1.9,0.3,2.5-0.1c1.7-1.1,1-2.9,1.1-4.5C75.8,40.3,74.3,40.3,72.5,40.3z M72.8,139.3c0.8,1.9,1.5,3.5,2.2,5.2
			c0.7-1.7,1.5-3.4,2.2-5.2C75.7,139.3,74.2,139.3,72.8,139.3z"/>
		<path class="st2" d="M124.5,84.8c0-1.6,0-3.1,0-4.7c1.6,0,3.2,0,4.8,0c0,1.6,0,3.1,0,4.7C127.7,84.8,126.2,84.8,124.5,84.8z"/>
		<path class="st2" d="M67.6,70c0-4.1,3.4-7.4,7.5-7.4c4,0,7.3,3.4,7.3,7.4c0,4.1-3.4,7.4-7.5,7.4C70.9,77.4,67.6,74.1,67.6,70z
			 M75,72.5c1.3,0,2.5-1.1,2.5-2.4c0-1.4-1.1-2.6-2.5-2.5c-1.3,0-2.4,1.1-2.4,2.5C72.5,71.4,73.6,72.5,75,72.5z"/>
	</g>
</g>
</svg>
