<?xml version="1.0" encoding="utf-8"?>
<!-- Generator: Adobe Illustrator 24.3.0, SVG Export Plug-In . SVG Version: 6.00 Build 0)  -->
<svg version="1.1" id="Layer_1" xmlns="http://www.w3.org/2000/svg" xmlns:xlink="http://www.w3.org/1999/xlink" x="0px" y="0px"
	 viewBox="0 0 150 150" style="enable-background:new 0 0 150 150;" xml:space="preserve">
<style type="text/css">
	.st0{fill:#CDEEFD;}
	.st1{fill:#111224;}
	.st2{fill:#005BAB;}
</style>
<path class="st0" d="M1465.3,1556.3c-2.4-0.2-4.3-1.3-4.4-4.1c-0.1-6.7,1.6-10,4.9-9.9c0.2,0,0.3,0,0.5,0c2.2,0.5,4.3,2.1,3.2,4
	C1467.7,1549.5,1473.1,1555.7,1465.3,1556.3z M1465.5,1554.4c1.3-0.1,2.3-0.6,2.3-2.1c-0.1-1.7-1.5-2.1-2.8-2.4c-1.6-0.4-2,0.8-2,2
	C1463,1553.5,1464,1554.2,1465.5,1554.4z M1467.8,1546.5c0-1.4-0.6-2.2-2.1-2.2c-0.9,0-1.6,0.4-1.7,1.4c-0.2,1.4,0.9,2.1,2,2.5
	C1467.3,1548.5,1467.6,1547.5,1467.8,1546.5z"/>
<path class="st0" d="M1455.8,1556.6c-0.5-2.9-1.8-4.2-4.6-3.6c-0.7,0.2-1.7,0.3-2.1-0.8c-0.4-1.1,0.1-1.5,1.2-2.1
	c2.1-1.2,2.1-3.9,3.2-5.8c0.6-1,1-2.2,2.5-1.9c1.4,0.3,0.9,1.6,0.8,2.5C1456.4,1548.6,1458.4,1552.5,1455.8,1556.6z"/>
<path class="st1" d="M1465.5,1554.4c-1.5-0.1-2.6-0.8-2.5-2.4c0-1.2,0.4-2.4,2-2c1.2,0.3,2.7,0.7,2.8,2.4
	C1467.8,1553.7,1466.8,1554.2,1465.5,1554.4z"/>
<path class="st1" d="M1467.8,1546.5c-0.2,1-0.5,2.1-1.8,1.7c-1.1-0.4-2.1-1-2-2.5c0.1-1,0.8-1.4,1.7-1.4
	C1467.2,1544.3,1467.8,1545,1467.8,1546.5z"/>
<polygon class="st2" points="1346.8,29.4 1346.9,29.6 1346.6,29.6 "/>
<g>
	<path class="st2" d="M-140.6-289.6c0.2,6.4-1.8,11.2-8.4,13.1c1.2,3.1,1.2,6.1-0.2,9.1c-1.3,3-3.5,4.9-6.7,5.8
		c0.1,1.3,0.2,2.6,0.2,3.9c-0.1,8.2-4.4,12.8-12.5,14c-5.8,0.9-11.3,0.1-16.9-1.2c-13.9-3.4-27.5-7.6-41-12.5
		c-5.3-1.9-9.6-5.2-13.6-9c-2.5-2.3-4.9-4.6-7.5-6.8c-2.7-2.2-5.7-3.3-9.3-3.2c-6.1,0.2-12.3,0.1-18.4,0c-2.4,0-3.7-1.1-3.8-3
		c0-1.9,1.3-3,3.7-3c6.8,0,13.5,0,20.3,0c4.6,0,8.5,2.1,11.9,4.9c3,2.5,5.9,5.3,8.7,7.9c3,2.8,6.3,5,10.2,6.5
		c14.4,5.2,29.1,9.8,44.1,13.1c4.2,0.9,8.4,0.9,12.6-0.1c5.2-1.3,6.1-5.4,5.2-10.4c-0.1-0.7-0.9-1.4-1.6-1.7
		c-5.1-2.4-10.2-4.4-16-4.1c-1.1,0.1-2.8,0.6-3,1.4c-0.6,1.6,0.4,3.1,2,3.7c2.7,0.9,5.5,1.6,8.2,2.4c0.8,0.2,1.6,0.3,2.4,0.5
		c1.6,0.5,2.3,1.7,2.1,3.3c-0.2,1.5-1.7,2.9-3.2,2.5c-4.3-1.1-8.6-2-12.7-3.7c-3.9-1.6-5.6-5.8-5-10c0.3-2.2,1.4-3.5,4.5-5.4
		c-2.2-2.8-3.6-5.8-2.9-9.4c0.8-3.6,2.8-6.1,6.4-7.2c-0.5-1.1-1.1-2.1-1.5-3.2c-2.2-6.1,1.8-12,8.2-11.9c7.4,0.1,14.7,1.2,21.7,3.5
		c7.4,2.4,14.8,4.8,22.3,7c7,2,14,3.8,21,5.3c2.4,0.5,5.1,0.4,7.6,0.2c2.3-0.2,3.2-1.7,2.1-3.7c-0.9-1.6-2.3-3.2-3.9-4.1
		c-3.2-1.7-6.7-3-10.2-4.2c-13-4.3-26.1-8.5-39.1-12.8c-0.5-0.2-1-0.3-1.4-0.5c-1.7-0.7-2.4-2.3-1.9-3.8c0.6-1.6,2.2-2.4,3.9-1.8
		c5.3,1.8,10.5,3.7,15.8,5.4c10.4,3.4,20.8,6.7,31.1,10.2c2.5,0.9,4.8,2.3,7.1,3.7c2.2,1.3,3.7,3.4,4.4,5.9
		c1.9,6.6-1.4,11.3-8.3,11.8c-6.4,0.5-12.6-0.8-18.7-2.5c-6.1-1.6-12.1-3.5-18.2-5.2C-139-289.2-139.7-289.4-140.6-289.6z
		 M-171.3-297.4c-2.5-0.1-4.4-0.3-5.2,1.6c-0.8,2,0.4,3.6,1.9,4.7c2.3,1.6,4.7,3.2,7.3,4.3c3.1,1.3,6.5,2.2,9.8,3.1
		c2.1,0.6,4.2,1,6.4,1.2c1.8,0.2,3.1-0.7,3.8-2.4c1.3-3.1,0.7-5.3-2.1-7.1c-0.8-0.5-1.7-1-2.7-1.4
		C-158.4-296-165.2-296.9-171.3-297.4z M-177-282.3c-2.9-0.1-4.2,0.9-4.1,3.1c0,1,0.5,2.3,1.1,3c1.9,2.2,4.3,3.7,7.2,4.4
		c2.6,0.6,5.1,1.5,7.7,2.3c1.9,0.6,3.7,1.4,5.7,1.9c2.7,0.7,4.5-0.5,5.1-3.3c0.6-2.8,0-4.1-3-5.7C-163.6-280-170.6-281.5-177-282.3z
		"/>
	<path class="st2" d="M-140.6-216.8c5.3-1.4,10.5-2.8,15.7-4.2c8.1-2.2,16.3-4.4,24.4-6.5c2.9-0.8,4.1,0,4.9,2.9
		c0.8,3.1,1.7,6.1,2.5,9.2c0.9,3.5,0.3,4.5-3.1,5.4c-12.6,3.4-25.2,6.7-37.8,10.1c-0.6,0.2-1.2,0.3-1.9,0.6c0.5,2,1.1,3.9,1.6,5.8
		c2.2,8.6-1.9,16.2-10.3,18.9c-18.6,5.8-37.3,11.6-56,17.2c-2.1,0.6-4.5,1.1-6.6,0.8c-3.6-0.6-5.9-3.1-6.8-6.7
		c-4.4-16.3-8.8-32.5-13.2-48.8c-1.5-5.6,1.5-10.4,7.2-11.7c19.4-4.4,38.8-8.7,58.3-13.1c8.8-2,16.3,2.5,18.8,11.2
		C-142.2-222.8-141.5-219.9-140.6-216.8z M-158.3-231.4c-0.2,0-0.9,0.1-1.6,0.3c-19.4,4.4-38.8,8.7-58.3,13.1
		c-3.4,0.8-4,1.9-3.2,5.2c4,15,8.1,30,12.2,45c1.6,6.1,2,6.4,8.1,4.5c18.3-5.6,36.6-11.3,54.8-17.1c4.8-1.5,7.4-6.1,6.1-10.9
		c-2.9-11.2-5.9-22.3-9-33.4C-150.1-228.8-153.7-231.4-158.3-231.4z M-115.6-217.3c-7.9,2.1-15.6,4.2-23.5,6.3c0.5,2,1,3.8,1.6,5.8
		c7.9-2.1,15.7-4.2,23.5-6.3C-114.5-213.5-115-215.3-115.6-217.3z M-109.7-218.8c0.5,2,1,3.8,1.5,5.8c3-0.8,5.9-1.6,8.8-2.4
		c-0.5-2-1-3.8-1.6-5.8C-103.9-220.4-106.7-219.6-109.7-218.8z"/>
	<path class="st2" d="M-261.1-321.6c5.1,0,10.3,0.3,15.4-0.1c6.6-0.5,12.5-3.2,18.4-5.9c6.2-2.8,12.3-5.8,18.5-8.5
		c5.2-2.3,10.6-3.5,16.4-3.4c7.1,0.1,14.1-0.1,21.2,0.1c6.1,0.2,12.1-0.5,18-2c2.4-0.6,4.9-0.9,7.4-1c7.3-0.1,8.8,5.2,8,10.1
		c-0.5,3.3-2.6,5.8-5.2,7.8c-5.1,4-11,5.8-17.4,6.1c-6.1,0.3-11.9,1.6-17.5,3.8c-1,0.4-2,1.1-2.9,1.7c-1.5,1-3.2,0.8-4.2-0.5
		c-1-1.3-1-3.1,0.5-4.1c1.9-1.3,3.9-2.5,6.1-3.2c5.8-2,11.8-3.3,17.9-3.5c5.1-0.2,9.8-1.7,13.9-4.9c1.6-1.3,2.9-2.9,2.9-5.2
		c0-1.3-0.5-2-1.8-1.9c-2.3,0.2-4.6,0.3-6.8,0.9c-6,1.6-12.1,2.3-18.3,2.1c-6.2-0.2-12.5,0.2-18.7-0.1c-7.7-0.4-14.8,1.6-21.7,4.8
		c-7.3,3.4-14.7,6.9-22.2,10c-5.6,2.4-11.4,3.4-17.5,3.3c-7.8-0.1-15.6,0-23.4,0c-0.5,0-1,0-1.5,0c-1.8-0.1-3-1.3-3-2.9
		c0-1.7,1.2-3,3.1-3c4.8,0,9.6,0,14.4,0C-261.1-321.5-261.1-321.5-261.1-321.6z"/>
	<path class="st2" d="M-263.5-252.4c3.7,0,7.4,0,11.1,0c2.8,0,4,1.3,3.7,3.9c-1.4,14.3-2.9,28.6-4.3,42.9
		c-0.5,5.3-1.1,10.6-1.6,15.9c-0.2,2.4-1.1,3.3-3.4,3.3c-3.9,0.1-7.9,0.1-11.8,0c-1.7,0-2.7-1.2-2.8-2.9c-0.9-8.8-1.8-17.5-2.6-26.3
		c-1.1-10.6-2.1-21.3-3.2-31.9c-0.4-3.8,0.5-4.9,4.4-4.9C-270.6-252.4-267.1-252.4-263.5-252.4z M-272.4-246.3
		c1.8,18.1,3.6,35.9,5.4,53.9c2.3,0,4.4,0,6.6,0c1.8-18,3.6-35.9,5.4-53.9C-260.9-246.3-266.5-246.3-272.4-246.3z"/>
	<path class="st2" d="M-113.7-240.4c-9,0-14.1-6.8-11.3-15.4c1-2.9,2.8-5.6,4.1-8.4c1.5-3.3,3-6.6,4.3-9.9c0.6-1.4,1.4-2.2,2.9-2.3
		c1.4,0,2.6,0.6,2.9,2c1.1,5.1,4.2,9.3,6.5,13.8c1.2,2.4,2.4,4.9,2.6,7.5C-101-245-105.5-240.3-113.7-240.4z M-113.7-265
		c-2,4-4,7.4-5.5,10.9c-0.9,2.2-0.8,4.6,1,6.5c1.5,1.5,6.7,1.6,8.8,0.4c1.5-0.9,2.3-3.9,1.7-6.3c-0.2-0.8-0.5-1.7-0.9-2.4
		C-110.3-258.8-111.9-261.6-113.7-265z"/>
	<path class="st2" d="M-251.7-168.4c0,6.6-5.4,12.1-12,12.1c-6.6,0-12-5.4-12-12c0-6.5,5.4-11.9,11.9-12
		C-257.2-180.4-251.7-175-251.7-168.4z M-257.7-168.4c0-3.3-2.7-6-6-6c-3.3,0-6,2.7-6,5.9c0,3.3,2.7,6.1,6.1,6.1
		C-260.4-162.4-257.7-165.1-257.7-168.4z"/>
	<path class="st2" d="M-217.1-282.4c-0.2,0-0.4,0-0.6,0c-2.5,0-3.9-1-4-2.9c0-1.9,1.3-3,3.8-3.1c11.3-0.4,20.6-4.5,26.9-14.3
		c0.9-1.5,1.6-3.1,2.4-4.7c0.9-1.8,2.4-2.4,4-1.8c1.7,0.7,2.3,2.4,1.5,4.2c-5.2,12.2-14.5,19.2-27.4,21.7c-2.2,0.4-4.4,0.6-6.7,0.9
		C-217.1-282.3-217.1-282.4-217.1-282.4z"/>
	<path class="st2" d="M-198.4-170.5c-3.4,0-5.5-1.8-6.4-5c-2.6-9.7-5.2-19.4-7.9-29.1c-0.2-0.6-0.3-1.2-0.5-1.8
		c-1-4.1,0.9-7.2,5-8.1c10.2-2.3,20.5-4.5,30.7-6.8c1.4-0.3,2.8-0.7,4.2-0.9c3.2-0.6,6.2,1,7.1,4.1c2.8,9.9,5.5,19.9,8,29.8
		c0.8,3.1-1.1,5.9-4.5,6.9c-9.2,2.9-18.3,5.7-27.5,8.6c-2.1,0.6-4.2,1.3-6.3,1.9C-197.2-170.7-198-170.5-198.4-170.5z M-198.9-176.5
		c11.7-3.6,23.2-7.1,34.8-10.7c-2.6-9.8-5.2-19.5-7.8-29.1c-12,2.7-23.8,5.3-35.6,7.9C-204.6-197.7-201.8-187.2-198.9-176.5z"/>
	<path class="st2" d="M-151.6-210.9c0.1,2.4-0.7,3.5-2.4,3.8c-1.5,0.3-2.8-0.4-3.3-1.9c-0.7-2.1-1.3-4.3-1.8-6.5
		c-0.3-1.5,0.5-2.7,2-3.2c1.5-0.5,2.9-0.2,3.5,1.3C-152.6-215.1-152.1-212.6-151.6-210.9z"/>
	<path class="st2" d="M-150.5-201.4c0.4,0.4,1.5,0.9,1.9,1.8c0.8,2.1,1.4,4.4,1.8,6.7c0.3,1.6-0.6,2.7-2,3.1
		c-1.4,0.4-2.9,0.2-3.5-1.4c-0.8-2.3-1.5-4.8-1.9-7.2C-154.6-200.1-153-201.4-150.5-201.4z"/>
</g>
<g>
	<path class="st2" d="M149.4,123.6c-0.7,1.6-2,2.2-3.7,2.1c-3.2-0.1-6.5,0.1-9.7,0c-7.3-0.3-14.5,0.8-21.7,1.5
		c-1.4,0.1-2.8,0.3-4.2,0.5c-3.5,0.3-6.8,1.3-9.8,3.2c-4.5,2.8-9,5.4-13.5,8.3c-3.9,2.5-7.8,3.1-12.1,0.9c-0.3-0.2-1,0-1.3,0.3
		c-1.7,1.6-3.4,3.3-5.1,5c-1.9,1.9-3.3,1.8-5.2,0c-4.1-4.1-8.2-8.2-12.3-12.3c-0.4-0.4-0.6-0.9-1.1-1.6c-1.4,1.5-2.4,2.7-3.5,3.8
		c-4.8,4.7-12,4.8-16.5,0.2c-4.5-4.5-4.4-11.7,0.2-16.5c1.1-1.1,2.2-2.2,3.6-3.5c-0.6-0.4-1.1-0.7-1.5-1.1
		c-9.9-9.9-19.7-19.7-29.6-29.6c-2.4-2.4-2.4-3.5,0-5.9c2.3-2.3,4.6-4.6,6.9-6.9c2.3-2.3,3.5-2.3,5.8,0c9.9,9.9,19.8,19.8,29.7,29.7
		c0.4,0.4,0.6,0.9,1,1.4c0.6-0.6,1-0.9,1.4-1.3c7.6-7.6,15.3-15.2,22.9-22.9c5.8-6,12.7-8,20.9-6.5c12,2.2,24,4.2,36,6.3
		c1.6,0.3,3.3,0.1,4.9,0.1c4.5,0,8.9,0.1,13.4,0c1.8,0,3.2,0.4,4.1,2C149.4,94.9,149.4,109.2,149.4,123.6z M124.6,102.2
		c0-5.6,0-11.2,0-16.9c0-1.1-0.3-1.5-1.4-1.7c-11.1-1.9-22.2-3.7-33.2-5.8c-6.6-1.3-11.7,0.5-16.4,5.3c-13,13.2-26.1,26.2-39.2,39.3
		c-0.4,0.4-0.9,0.9-1.3,1.4c-1.3,1.9-1.5,3.9-0.5,5.9c1,2,2.7,3.1,5,3.1c1.9,0,3.3-0.8,4.6-2.1c9.5-9.5,19-19.1,28.6-28.6
		c4.3-4.3,11.2-4.3,15.4-0.1c4.3,4.2,4.3,11,0,15.5c-1.5,1.6-3.1,3.2-4.7,4.7c-1.7,1.7-3.5,3.4-5.1,5.2c-2.4,2.6-1.5,6.6,1.8,7.8
		c1.6,0.6,3.1,0.2,4.6-0.6c4.9-3,9.8-5.9,14.6-8.9c3-1.8,6.1-3.1,9.6-3.5c5.3-0.7,10.7-1.2,16-1.8c1.3-0.1,1.6-0.6,1.6-1.8
		C124.6,113.2,124.6,107.7,124.6,102.2z M143.5,119.8c0-11.9,0-23.6,0-35.3c-4.4,0-8.6,0-13,0c0,11.8,0,23.6,0,35.3
		C134.9,119.8,139.2,119.8,143.5,119.8z M70,126.4c1.2-1.4,2.4-2.9,3.7-4.3c2.7-2.8,5.5-5.5,8.3-8.3c2.2-2.3,2.3-5.4,0.3-7.5
		c-2.1-2.1-5.2-2-7.5,0.3c-3,3-6,6-9,9c-1.1,1.1-2.3,2.2-3.4,3.2C65.1,121.5,67.6,124,70,126.4z M41.6,106.9
		c-7.1-7.1-14.2-14.2-21.2-21.2c-1.4,1.4-2.9,2.9-4.3,4.3c7,7,14.1,14.1,21.2,21.2C38.8,109.8,40.2,108.4,41.6,106.9z M58.4,123.6
		c-1.5,1.5-3,2.9-4.2,4.1c3.9,3.9,7.8,7.8,11.5,11.5c1.3-1.3,2.8-2.8,4.2-4.1C66.1,131.2,62.1,127.3,58.4,123.6z M8,81.7
		c1.2,1.3,2.5,2.7,3.5,3.8c1.6-1.5,3.1-2.9,4.5-4.2c-1.3-1.3-2.5-2.6-3.7-3.9C10.8,78.9,9.4,80.3,8,81.7z"/>
	<path class="st2" d="M50.8,51.4c8.4,0,16.8,0,25.1,0c2.8,0,4.5-2,3.8-4.4c-0.4-1.5-1.6-2.5-3.3-2.5c-1.2-0.1-2.4,0-3.6-0.2
		c-4.6-0.9-7.9-5.1-7.5-9.6c0.4-5,4.2-8.7,9.2-8.8c6-0.1,11.9,0,17.9,0c4.2,0,7.5-3.1,8.1-7.3c0.6-4-1.9-7.9-5.8-9.1
		c-1.1-0.3-2.3-0.4-3.4-0.4c-6.8,0-13.6,0-20.3,0c-1.3,0-2.4-0.4-3-1.6c-1-2,0.3-4.2,2.8-4.2c2.4-0.1,4.8,0,7.3,0
		c4.7,0,9.4-0.1,14.1,0c7.7,0.1,13.5,5.4,14.3,12.9c0.9,8-5.5,15.4-13.6,15.5c-5.9,0.1-11.8,0-17.7,0c-2.7,0-4.4,2.1-3.7,4.4
		c0.4,1.5,1.7,2.4,3.3,2.5c1.1,0.1,2.1,0,3.2,0.1c4.8,0.7,8.3,5,7.9,9.6c-0.3,5.1-4.3,8.8-9.4,8.8c-10.1,0.1-20.1,0-30.2,0
		c-6.4,0-12.9,0-19.3,0c-1.3,0-1.7,0.3-1.7,1.6c0.1,2.5,0,4.9,0,7.4c0,2.1-1.1,3.3-2.9,3.3c-1.7,0-2.9-1.2-2.9-3.2
		c0-2.8-0.1-5.6,0-8.4c0.1-3.8,2.8-6.4,6.6-6.4C34.2,51.4,42.5,51.4,50.8,51.4z"/>
	<path class="st2" d="M33.4,3.3c3.7,0,7.4,0,11,0c1.4,0,2.4,0.6,3,1.9c0.5,1.1,0.3,2.2-0.6,2.9C46.2,8.7,45.1,9,44.3,9
		c-7,0.1-14,0.1-20.9,0c-1.8,0-3.3,0.5-4.3,2c-1.9,2.8-0.1,6.5,3.3,6.8c1.5,0.1,3,0.1,4.5,0.4c6.1,1.3,10.1,6.9,9.6,12.9
		c-0.6,6.4-5.5,11-11.9,11.3c-5.6,0.2-9.8,3.4-11,8.4c-0.4,1.8-0.3,3.7-0.4,5.6c-0.1,1.8,0,3.7,0,5.5c-0.1,1.5-1.2,2.6-2.7,2.8
		c-1.4,0.1-3-0.9-3-2.4c-0.1-4.8-0.8-9.6,0.8-14.3c2.3-6.8,8.5-11.2,15.8-11.4c3.6-0.1,6.2-2.3,6.6-5.7c0.4-3.1-1.5-6.1-4.5-6.9
		c-1.3-0.3-2.7-0.3-4-0.4c-4.6-0.3-8.3-3.5-9.3-7.9c-1-4.5,0.9-9.1,5-11.2c1.6-0.8,3.6-1.2,5.4-1.3C26.6,3.1,30,3.3,33.4,3.3z"/>
	<path class="st2" d="M57.8,9.1c-1.6,0-2.9-1.3-2.8-2.9c0-1.6,1.3-2.9,2.8-2.9c1.6,0,3,1.4,3,3C60.7,7.8,59.4,9.1,57.8,9.1z"/>
</g>
</svg>
