<?xml version="1.0" encoding="utf-8"?>
<!-- Generator: Adobe Illustrator 24.3.0, SVG Export Plug-In . SVG Version: 6.00 Build 0)  -->
<svg version="1.1" id="Layer_1" xmlns="http://www.w3.org/2000/svg" xmlns:xlink="http://www.w3.org/1999/xlink" x="0px" y="0px"
	 viewBox="0 0 150 150" style="enable-background:new 0 0 150 150;" xml:space="preserve">
<style type="text/css">
	.st0{fill:#CDEEFD;}
	.st1{fill:#111224;}
	.st2{fill:#005BAB;}
</style>
<path class="st0" d="M1465.3,1556.3c-2.4-0.2-4.3-1.3-4.4-4.1c-0.1-6.7,1.6-10,4.9-9.9c0.2,0,0.3,0,0.5,0c2.2,0.5,4.3,2.1,3.2,4
	C1467.7,1549.5,1473.1,1555.7,1465.3,1556.3z M1465.5,1554.4c1.3-0.1,2.3-0.6,2.3-2.1c-0.1-1.7-1.5-2.1-2.8-2.4c-1.6-0.4-2,0.8-2,2
	C1463,1553.5,1464,1554.2,1465.5,1554.4z M1467.8,1546.5c0-1.4-0.6-2.2-2.1-2.2c-0.9,0-1.6,0.4-1.7,1.4c-0.2,1.4,0.9,2.1,2,2.5
	C1467.3,1548.5,1467.6,1547.5,1467.8,1546.5z"/>
<path class="st0" d="M1455.8,1556.6c-0.5-2.9-1.8-4.2-4.6-3.6c-0.7,0.2-1.7,0.3-2.1-0.8c-0.4-1.1,0.1-1.5,1.2-2.1
	c2.1-1.2,2.1-3.9,3.2-5.8c0.6-1,1-2.2,2.5-1.9c1.4,0.3,0.9,1.6,0.8,2.5C1456.4,1548.6,1458.4,1552.5,1455.8,1556.6z"/>
<path class="st1" d="M1465.5,1554.4c-1.5-0.1-2.6-0.8-2.5-2.4c0-1.2,0.4-2.4,2-2c1.2,0.3,2.7,0.7,2.8,2.4
	C1467.8,1553.7,1466.8,1554.2,1465.5,1554.4z"/>
<path class="st1" d="M1467.8,1546.5c-0.2,1-0.5,2.1-1.8,1.7c-1.1-0.4-2.1-1-2-2.5c0.1-1,0.8-1.4,1.7-1.4
	C1467.2,1544.3,1467.8,1545,1467.8,1546.5z"/>
<polygon class="st2" points="1346.8,29.4 1346.9,29.6 1346.6,29.6 "/>
<g>
	<path class="st2" d="M47.1,143.9c1.1-1.4,2.1-2.8,3.2-4.2c0.3,0.2,0.5,0.4,0.8,0.6c-1.3,1.8-2.5,3.5-3.7,5.2
		c-2.5-1.2-4.4-2.1-6.4-3.1c-0.3,0.3-0.5,0.5-0.8,0.8c0.4,0.9,0.7,2,1.4,2.6c2.8,2.7,8.7,2.3,11.1-0.9c1.4-1.8,2.4-3.8,3.5-5.7
		c1.2-1.9,2.1-4.1,3.5-5.7c2.9-3.1,3.8-6.6,3.4-10.7c0-0.4,0-0.8,0-1.1c-1.6-9.2,0.3-17.7,4.9-25.9c3.4-6.2,3.5-13.3,0.9-19.7
		c-4.9-11.8-3.9-23.7-1.9-35.8c2-11.7,3.3-23.5,2.7-35.4c0-0.9,0.2-1.8,0.3-2.7c0.3,0,0.7-0.1,1-0.1c0.3,1.2,0.7,2.4,0.7,3.6
		c-0.2,7.2-0.2,14.5-0.8,21.7c-0.9,9.2-2.3,18.3-3.5,27.5c-0.7,5.5,0.3,10.7,2,15.8c1.1,3.3,2.1,6.7,2.6,10.1c1,6.5,0,12.7-3.4,18.5
		c-3.6,6.2-4.9,12.7-3.6,19.8c0.4,2.3,0.4,4.8,0.2,7.1c-0.1,1.7-0.5,3.5-1.4,5c-2.8,4.7-5.7,9.4-8.8,13.9c-3.2,4.8-9.3,6.3-13.7,2.8
		c-2.8-2.3-7.2-2.5-8.5-6.6c-3.4-0.7-3.4-4.6-5.8-6.4c-0.7-0.5-0.6-2-0.8-3.1c-0.2-1,0-2.1-0.4-2.9c-1.4-2.5-0.6-4.6,0.9-6.6
		c0.5-0.7,1-1.4,1.6-2.1c2.4-2.7,3.3-5.8,3.1-9.3c-0.2-5.2,0-10.3,3.3-14.7c-3.2-5.6-2.7-11.4-1.8-17.3
		C16.6,55.2,11.7,29.2,15.3,1.4c0.6-0.1,1.1-0.2,1.7-0.3c0,1.1,0.1,2.3,0,3.4c-2.5,21.3,0.7,41.6,10.1,60.9
		c4.5,9.2,10.6,17.2,18.9,23.4c0.7,0.5,1.2,1.3,1.6,2.2c-3.1,0.1-4.7-2.2-6.7-3.9c-2.1-1.7-3.9-3.7-6.2-6
		c-0.6,5.4-1.2,10.6,2.3,14.4c3.2,3.4,7.5,5.9,11.9,9.2c-3.1,0.5-5-1.3-6.9-2.4c-2-1.1-3.9-2.6-6.3-4.3c-0.7,2.3-1.5,4.2-1.9,6.2
		c-0.4,2.1-0.6,4.2-0.4,6.3c0.3,4.4-0.9,8.1-3.8,11.4c-1.1,1.2-1.7,2.8-2.9,5c2.7-1.3,3.2-4.4,6.6-3.6c-2.6,3.2-5.9,5.9-4.4,11
		c1.9-3.3,2.8-6.9,6.7-7.7c-2.1,3.9-6,7.1-3,12.9c1.5-4.3,2.2-8.4,6-10.4c0.3,0.1,0.5,0.3,0.8,0.4c-0.4,0.7-0.6,1.6-1.1,2.2
		c-1.8,2.3-3,4.9-3,7.9c0,1.8,0.5,3.2,2.8,3.6c1.1-4.5,3.4-8.2,7.5-10.7c-0.3,3.5-4,5.1-4.5,8.3C42.8,141.9,44.8,142.8,47.1,143.9z"
		/>
	<path class="st2" d="M80,1.9c0.1,0.8,0.4,1.6,0.3,2.4c-0.9,13.7,1.2,27.2,3.4,40.6c1.6,10,1.8,19.8-2,29.5
		c-3.3,8.2-2.7,16.4,1.7,24.2c3.4,6,5.1,12.2,3.8,19c-0.2,1.3-0.1,2.8-0.2,4.1c-0.5,4.6,0.5,8.5,3.6,12.1c2.4,2.8,3.8,6.4,5.8,9.6
		c2.4,3.8,5.5,4.9,9.6,3.6c1.9-0.6,3.7-1.5,3.6-4c-2.8-1.2-4.1,1.5-6.2,2.2c-2.6-0.7-3.3-3.1-4.4-5c0.2-0.2,0.4-0.4,0.6-0.5
		c1.1,1.4,2.2,2.8,3.3,4.2c2.1-1,4.1-2,6.5-3.1c-0.8-1.3-1.7-2.8-2.7-4.1c-0.8-1.2-1.8-2.4-2.4-3.7c3.5,0.8,5.9,4,8,10.3
		c2-0.2,3-1.6,2.6-3.3c-0.5-2.5-1.4-4.9-2.3-7.3c-0.4-1-1.2-1.8-2-2.9c3.4,0.1,4.3,1.4,6.8,9.1c2.6-2.7,2.4-3.6-2.9-11.7
		c2.5-0.5,2.5-0.5,6.7,6.6c1.1-3.4,1.1-3.4-3.8-10.1c2-0.4,2-0.4,5.6,2.6c-0.7-1.3-1.1-2.8-2.1-3.8c-3.2-3.6-4.3-7.7-4.1-12.4
		c0.2-4,0-8-2.6-11.6c-2.2,1.4-4.1,2.9-6.2,4.2c-1.9,1.1-3.7,2.7-7.1,2c5.6-4.1,12.6-5.7,14.2-12.8c0.7-3.2,0.6-6.6,0.9-9.9
		c-0.3-0.1-0.5-0.2-0.8-0.3c-1.9,1.9-3.8,3.9-5.8,5.6c-2,1.7-3.7,3.9-7.2,4.4c0.7-1.1,0.9-1.8,1.4-2.2c14.2-10.6,21.8-25.4,26.5-42
		c4-14.1,5.1-28.5,3.2-43.1c-0.1-0.7-0.1-1.5-0.1-2.2c0-0.3,0.3-0.6,0.9-1.9c0.6,1.9,1.2,3,1.3,4.2c2.1,16.8,0.3,33.2-5,49.2
		c-2.9,9-7.1,17.3-12.8,25.1c0.7,5.8,1.5,11.9-1.9,17.6c3.2,4.4,3.6,9.5,3.3,14.7c-0.2,3.6,0.8,6.6,3.1,9.4c2.4,2.8,4.7,5.7,2.1,9.7
		c1.4,4-1.7,6.9-3.7,9.1c-2.2,2.3-3.7,6-7.7,6.5c-0.6,0.1-1.3,0.7-1.8,1.2c-5.5,4.8-12.1,4-16-2c-2.9-4.4-5.7-8.8-8.3-13.3
		c-0.9-1.5-1.3-3.5-1.4-5.3c-0.1-2.7,0-5.5,0.3-8.2c0.8-5.7,0.3-11.2-2.8-16.3c-5.9-9.8-6-19.9-1.9-30.2c3-7.4,2.6-14.9,1.6-22.5
		c-1.2-9.7-2.7-19.3-3.7-29c-0.5-4.6-0.2-9.2-0.2-13.9c0-1.3,0.4-2.6,0.6-3.9C79.2,1.9,79.6,1.9,80,1.9z"/>
	<path class="st2" d="M22.6,6.4c-0.3,5.3-0.6,9.7-0.9,14.4C20.3,17.7,20.6,10.8,22.6,6.4z"/>
	<path class="st2" d="M128.1,20.6c-0.3-4.4-0.5-8.8-0.8-13.2c0.3,0,0.6,0,0.8,0c1,4.4,1.1,8.8,0.8,13.2
		C128.7,20.5,128.4,20.6,128.1,20.6z"/>
	<path class="st2" d="M46.3,97.4c3.3,1.6,6.6,3.3,9.9,4.9c-0.1,0.3-0.3,0.6-0.4,0.9c-3.5-1.2-6.7-3.1-9.9-4.8
		C46,98,46.2,97.7,46.3,97.4z"/>
	<path class="st2" d="M104.1,98.5c-3.3,1.6-6.6,3.3-9.9,4.9c-0.2-0.4-0.3-0.7-0.5-1.1c3.3-1.6,6.6-3.3,9.9-4.9
		C103.8,97.7,104,98.1,104.1,98.5z"/>
</g>
</svg>
