<?xml version="1.0" encoding="utf-8"?>
<!-- Generator: Adobe Illustrator 24.3.0, SVG Export Plug-In . SVG Version: 6.00 Build 0)  -->
<svg version="1.1" id="Layer_1" xmlns="http://www.w3.org/2000/svg" xmlns:xlink="http://www.w3.org/1999/xlink" x="0px" y="0px"
	 viewBox="0 0 150 150" style="enable-background:new 0 0 150 150;" xml:space="preserve">
<style type="text/css">
	.st0{fill:#CDEEFD;}
	.st1{fill:#111224;}
	.st2{fill:#005BAB;}
	.st3{fill:url(#SVGID_1_);}
	.st4{fill:url(#SVGID_2_);}
	.st5{fill:url(#SVGID_3_);}
	.st6{fill:url(#SVGID_4_);}
	.st7{fill:url(#SVGID_5_);}
	.st8{fill:url(#SVGID_6_);}
	.st9{fill:url(#SVGID_7_);}
	.st10{fill:url(#SVGID_8_);}
	.st11{fill:url(#SVGID_9_);}
</style>
<path class="st0" d="M1465.3,1556.3c-2.4-0.2-4.3-1.3-4.4-4.1c-0.1-6.7,1.6-10,4.9-9.9c0.2,0,0.3,0,0.5,0c2.2,0.5,4.3,2.1,3.2,4
	C1467.7,1549.5,1473.1,1555.7,1465.3,1556.3z M1465.5,1554.4c1.3-0.1,2.3-0.6,2.3-2.1c-0.1-1.7-1.5-2.1-2.8-2.4c-1.6-0.4-2,0.8-2,2
	C1463,1553.5,1464,1554.2,1465.5,1554.4z M1467.8,1546.5c0-1.4-0.6-2.2-2.1-2.2c-0.9,0-1.6,0.4-1.7,1.4c-0.2,1.4,0.9,2.1,2,2.5
	C1467.3,1548.5,1467.6,1547.5,1467.8,1546.5z"/>
<path class="st0" d="M1455.8,1556.6c-0.5-2.9-1.8-4.2-4.6-3.6c-0.7,0.2-1.7,0.3-2.1-0.8c-0.4-1.1,0.1-1.5,1.2-2.1
	c2.1-1.2,2.1-3.9,3.2-5.8c0.6-1,1-2.2,2.5-1.9c1.4,0.3,0.9,1.6,0.8,2.5C1456.4,1548.6,1458.4,1552.5,1455.8,1556.6z"/>
<path class="st1" d="M1465.5,1554.4c-1.5-0.1-2.6-0.8-2.5-2.4c0-1.2,0.4-2.4,2-2c1.2,0.3,2.7,0.7,2.8,2.4
	C1467.8,1553.7,1466.8,1554.2,1465.5,1554.4z"/>
<path class="st1" d="M1467.8,1546.5c-0.2,1-0.5,2.1-1.8,1.7c-1.1-0.4-2.1-1-2-2.5c0.1-1,0.8-1.4,1.7-1.4
	C1467.2,1544.3,1467.8,1545,1467.8,1546.5z"/>
<polygon class="st2" points="1346.8,29.4 1346.9,29.6 1346.6,29.6 "/>
<g>
	<linearGradient id="SVGID_1_" gradientUnits="userSpaceOnUse" x1="-389.4835" y1="-186.5697" x2="-287.8212" y2="-186.5697">
		<stop  offset="0" style="stop-color:#00AE4D"/>
		<stop  offset="0.2214" style="stop-color:#0C8D5A"/>
		<stop  offset="0.5722" style="stop-color:#1D5D6D"/>
		<stop  offset="0.8413" style="stop-color:#274079"/>
		<stop  offset="0.9944" style="stop-color:#2B357D"/>
	</linearGradient>
	<path class="st3" d="M-389.5-199.3c0.9-3.3,1.9-6.5,4.3-9.1c3.2-3.5,7-5.8,11.7-6c6.3-0.2,12.6-0.2,18.9-0.1c2.3,0,3.1,0.9,3.7,3.8
		c0.6,2.9,3.8,4.2,5.7,2.2c0.7-0.7,1.1-2,1.2-3.1c0.2-2,0.1-4,0.1-5.9c0-1.9,0.8-3.3,2.7-3.8c1.8-0.4,3.4,0.5,4.2,2.4
		c2.1,4.6,4.2,5.3,8.7,3.2c2.7-1.3,5.2,0.2,5.3,3.2c0.1,2.5,0,5.1,0,7.6c0,2.8,1.3,4.4,3.5,4.5c2.1,0,3.5-1.6,3.5-4.4
		c0-5.3,0-10.7,0-16c0-1.6,0.4-3.2,2.1-3.7c1-0.3,2.6-0.2,3.4,0.4c0.9,0.7,1.3,2.1,1.6,3.3c0.8,4.1,4,6.8,7.8,6.3
		c4.1-0.5,6.8-4.1,6.1-8.2c-0.6-3.8-4.4-6.3-8.4-5.5c-0.6,0.1-1.2,0.3-1.8,0.4c-2,0.3-3.4-0.7-3.9-2.4c-0.5-1.7,0.4-3.4,2.1-4.2
		c8-3.6,18.2,2.4,19,11.2c0.1,1,0.2,2,0.2,3.1c0,21.4,0,42.7,0,64.1c0,6.2-2,11.4-7,15.2c-3,2.3-6.3,3.5-10.1,3.5
		c-12.2,0-24.4,0.2-36.5-0.1c-9-0.3-15.5-7-16.4-15.9c0-0.3-0.1-0.7-0.1-1.3c-1.5,0-2.9,0-4.4,0c-3.8-0.1-7.7,0.1-11.5-0.3
		c-8-0.8-13.8-6.4-15.3-14.3c-0.1-0.3-0.2-0.6-0.3-1C-389.5-180.1-389.5-189.7-389.5-199.3z M-337.2-208.5c-0.1,0.2-0.1,0.3-0.2,0.5
		c-1.6,4.5-4.7,7.1-9.4,7.4c-4.5,0.3-7.8-1.8-10.1-5.8c-0.3-0.5-1.2-1-1.9-1c-4.1-0.1-8.2-0.1-12.3,0c-7.2,0-11.5,4.3-11.5,11.5
		c0,7.3,0,14.6,0,22c0,7.8,4.2,12,12,12.1c5.1,0,10.3,0,15.4,0c2,0,3.5,0.7,4,2.8c0.2,0.9,0.2,1.9,0.2,2.9c0,7.6,4.1,11.8,11.8,11.8
		c10.8,0,21.6,0,32.4,0c7.7,0,11.8-4.1,11.8-11.8c0-16.9,0-33.8,0-50.7c0-0.7-0.1-1.4-0.1-2.4c-4.7,2.5-9.2,2.3-13.9,0
		c0,1.9,0,3.5,0,5c-0.1,6.2-4.6,10.9-10.5,10.8c-5.8,0-10.3-4.6-10.5-10.7c0-1.1,0-2.2,0-3C-332.4-207.7-334.7-208.1-337.2-208.5z"
		/>
	<linearGradient id="SVGID_2_" gradientUnits="userSpaceOnUse" x1="-280.8079" y1="-239.1498" x2="-221.3138" y2="-239.1498">
		<stop  offset="0" style="stop-color:#00AE4D"/>
		<stop  offset="0.2214" style="stop-color:#0C8D5A"/>
		<stop  offset="0.5722" style="stop-color:#1D5D6D"/>
		<stop  offset="0.8413" style="stop-color:#274079"/>
		<stop  offset="0.9944" style="stop-color:#2B357D"/>
	</linearGradient>
	<path class="st4" d="M-273.7-144.5c0.9,0,1.6,0,2.3,0c7.9,0,15.7,0,23.6,0c0.8,0,1.5,0,2.2,0.1c2,0.3,3.1,1.6,3.1,3.4
		c0,1.8-1.2,3.1-3.2,3.4c-0.6,0.1-1.2,0.1-1.8,0.1c-9.4,0-18.9,0-28.3,0c-4.1,0-5.1-1-5.1-5.1c0-35.3,0-70.6,0-106
		c0-10.9,6.4-19.2,16.3-21.6c1.5-0.3,3-0.5,4.6-0.7c0-11.5,0-23.1,0-34.7c-0.6-0.2-1.2-0.3-1.9-0.5c-2.8-0.9-4.9-3.2-4.9-6.2
		c-0.1-7.3-0.1-14.6,0-22c0.1-3.9,3-6.5,7.2-6.6c5.1-0.1,10.3,0,15.4,0c3.9,0,7.8-0.1,11.7,0c4.9,0.1,7.6,2.8,7.6,7.7
		c0,6.1,0,12.2,0,18.3c0,5.9-1.3,7.7-6.9,9.2c0,11.5,0,23.1,0,34.8c2.3,0,4.6-0.1,6.8,0c1.8,0.1,3.1,1,3.4,2.9
		c0.3,1.7-0.4,3-1.9,3.7c-0.8,0.3-1.9,0.4-2.8,0.4c-10.9,0-21.8,0-32.7,0c-6,0-10.7,2.4-13.5,7.9c-0.6,1.1-1.2,2.4-1.2,3.7
		c-0.1,5.4-0.1,10.8-0.1,16.5c0.8,0,1.6,0,2.4,0c7.9,0,15.7,0,23.6,0c0.9,0,1.8,0,2.7,0.2c1.7,0.4,2.6,1.5,2.6,3.2
		c0,1.7-0.8,2.9-2.5,3.3c-0.8,0.2-1.8,0.3-2.6,0.3c-7.9,0-15.9,0-23.8,0c-0.7,0-1.5,0-2.3,0c0,16.4,0,32.6,0,49c0.7,0,1.5,0,2.2,0
		c12.7,0,25.5,0,38.2,0c0.9,0,1.8,0,2.6,0.3c1.6,0.5,2.4,1.8,2.3,3.5c-0.1,1.7-1.1,2.8-2.8,3.1c-0.7,0.2-1.5,0.1-2.2,0.1
		c-12.7,0-25.3,0-38,0c-0.7,0-1.5,0-2.3,0C-273.7-163.2-273.7-154-273.7-144.5z M-231.8-333.6c-9.4,0-18.6,0-27.8,0
		c0,7,0,13.9,0,20.8c9.3,0,18.5,0,27.8,0C-231.8-319.8-231.8-326.6-231.8-333.6z M-252.6-305.6c0,11.7,0,23.3,0,34.8
		c4.7,0,9.2,0,13.7,0c0-11.7,0-23.2,0-34.8C-243.5-305.6-248-305.6-252.6-305.6z"/>
	<linearGradient id="SVGID_3_" gradientUnits="userSpaceOnUse" x1="-235.2925" y1="-193.5851" x2="-179.1143" y2="-193.5851">
		<stop  offset="0" style="stop-color:#00AE4D"/>
		<stop  offset="0.2214" style="stop-color:#0C8D5A"/>
		<stop  offset="0.5722" style="stop-color:#1D5D6D"/>
		<stop  offset="0.8413" style="stop-color:#274079"/>
		<stop  offset="0.9944" style="stop-color:#2B357D"/>
	</linearGradient>
	<path class="st5" d="M-207.2-137.5c-7.6,0-15.2,0-22.8,0c-2,0-4,0.1-4.9-2.1c-0.9-2,0.3-3.5,1.5-5c4.9-5.8,9.8-11.6,14.6-17.5
		c0.6-0.7,1-1.8,1-2.7c0.1-7.4,0-14.8,0.1-22.2c0-1.1-0.2-1.8-1.4-2.4c-10.8-5.4-16-14.3-16.1-26.2c-0.1-9.8,0-19.6,0-29.4
		c0-3.6,1.2-4.7,4.9-4.8c15.5,0,30.9,0,46.4,0c3.6,0,4.8,1.2,4.8,4.8c0,9.9,0.1,19.7,0,29.6c-0.2,11.8-5.4,20.5-16,25.9
		c-1.1,0.6-1.6,1.2-1.6,2.5c0.1,7.3,0,14.6,0.1,22c0,1,0.5,2.1,1.1,2.9c4.9,6,9.9,11.9,14.8,17.9c1.1,1.4,2.1,2.7,1.3,4.6
		c-0.9,2-2.7,2.1-4.5,2.1C-191.7-137.5-199.5-137.5-207.2-137.5z M-228-218.1c-1.2,8.4,2.8,17.2,9.6,21.2c7.9,4.6,16.8,4.3,23.5-0.7
		c6.8-5.1,9.8-13.5,8.4-20.5C-200.3-218.1-214.1-218.1-228-218.1z M-228.1-242.5c0,5.8,0,11.5,0,17.3c14,0,27.9,0,41.8,0
		c0-5.8,0-11.5,0-17.3C-200.3-242.5-214.1-242.5-228.1-242.5z M-210.7-186.6c0,0.8,0,1.5,0,2.3c0,6.8-0.1,13.5,0,20.3
		c0,2.4-0.6,4.2-2.2,5.9c-3.3,3.8-6.5,7.7-9.8,11.6c-0.4,0.5-0.9,1.1-1.4,1.8c11.3,0,22.3,0,33.6,0c-0.5-0.6-0.7-1-1-1.3
		c-3.4-4.1-6.7-8.2-10.1-12.1c-1.6-1.8-2.2-3.7-2.2-6.1c0.1-6.7,0-13.4,0-20.1c0-0.7,0-1.5,0-2.2
		C-206.2-186.6-208.3-186.6-210.7-186.6z"/>
	<linearGradient id="SVGID_4_" gradientUnits="userSpaceOnUse" x1="-364.9418" y1="-233.8756" x2="-313.5999" y2="-233.8756">
		<stop  offset="0" style="stop-color:#00AE4D"/>
		<stop  offset="0.2214" style="stop-color:#0C8D5A"/>
		<stop  offset="0.5722" style="stop-color:#1D5D6D"/>
		<stop  offset="0.8413" style="stop-color:#274079"/>
		<stop  offset="0.9944" style="stop-color:#2B357D"/>
	</linearGradient>
	<path class="st6" d="M-343.5-238.7c1.2-1.9,2.1-3.8,3.4-5.3c7.2-8.6,20.8-7,25.8,2.9c1.1,2.2,0.7,4.1-1.1,5.2c-1.8,1-3.7,0.4-5-1.8
		c-2-3.6-5.1-5.4-9.2-4.8c-4,0.6-6.4,3.2-7.3,7.1c-0.5,2.1-1.7,3.2-3.9,3.2c-0.3,0-0.6,0-0.8,0.1c-3.2,1.2-5.8,0.9-8-2.2
		c-1.2-1.7-3.4-1.6-5.3-0.8c-2,0.9-3.1,2.5-3.1,4.7c0,2.1,1,3.7,2.8,4.7c0.7,0.4,1.4,0.5,2.1,0.9c1.8,0.9,2.5,2.9,1.7,4.7
		c-0.8,1.7-2.6,2.5-4.5,1.9c-5.1-1.8-8.6-5.1-9.2-10.7c-0.6-5.2,1.9-9.8,6.4-12.1c4.6-2.4,9.7-1.8,14.1,1.8
		C-344.1-239.1-343.8-239-343.5-238.7z"/>
	<linearGradient id="SVGID_5_" gradientUnits="userSpaceOnUse" x1="-263.2207" y1="-204.0945" x2="-242.3431" y2="-204.0945">
		<stop  offset="0" style="stop-color:#00AE4D"/>
		<stop  offset="0.2214" style="stop-color:#0C8D5A"/>
		<stop  offset="0.5722" style="stop-color:#1D5D6D"/>
		<stop  offset="0.8413" style="stop-color:#274079"/>
		<stop  offset="0.9944" style="stop-color:#2B357D"/>
	</linearGradient>
	<path class="st7" d="M-246.8-221.6c2.8-0.1,4.3,1,4.5,3.2c0.2,2.3-1.2,3.6-4.2,3.9c-4.5,0.5-8,3.3-9.2,7.5
		c-1.2,4.2,0.2,8.9,3.9,11.2c1.7,1.1,3.9,1.7,5.9,2.1c2.6,0.5,3.9,1.8,3.7,4c-0.2,2.1-1.9,3.2-4.3,3c-9.3-0.7-15.9-7.2-16.5-16.8
		c-0.5-7.6,4.4-15.3,13.1-17.6C-249-221.3-247.9-221.4-246.8-221.6z"/>
	<linearGradient id="SVGID_6_" gradientUnits="userSpaceOnUse" x1="-375.5015" y1="-184.7702" x2="-350.8786" y2="-184.7702">
		<stop  offset="0" style="stop-color:#00AE4D"/>
		<stop  offset="0.2214" style="stop-color:#0C8D5A"/>
		<stop  offset="0.5722" style="stop-color:#1D5D6D"/>
		<stop  offset="0.8413" style="stop-color:#274079"/>
		<stop  offset="0.9944" style="stop-color:#2B357D"/>
	</linearGradient>
	<path class="st8" d="M-368.4-193.6c0,5.9,0,11.5,0,17.4c3.4,0,6.8,0,10.5,0c0-2,0-4,0-6c0-2.7,1.3-4.2,3.4-4.3
		c2.2-0.1,3.6,1.6,3.6,4.3c0,2.9,0,5.9,0,8.8c0,3-1.3,4.3-4.3,4.3c-5.3,0.1-10.7,0.1-16,0c-3,0-4.3-1.4-4.3-4.3c0-7.7,0-15.3,0-23
		c0-2.9,1.3-4.2,4.3-4.2c5.3,0,10.7,0,16,0c2.6,0,4.2,1.4,4.2,3.5c0,2.1-1.7,3.5-4.2,3.5C-359.5-193.5-363.9-193.6-368.4-193.6z"/>
	<linearGradient id="SVGID_7_" gradientUnits="userSpaceOnUse" x1="-340.4258" y1="-176.0315" x2="-333.366" y2="-176.0315">
		<stop  offset="0" style="stop-color:#00AE4D"/>
		<stop  offset="0.2214" style="stop-color:#0C8D5A"/>
		<stop  offset="0.5722" style="stop-color:#1D5D6D"/>
		<stop  offset="0.8413" style="stop-color:#274079"/>
		<stop  offset="0.9944" style="stop-color:#2B357D"/>
	</linearGradient>
	<path class="st9" d="M-340.4-176.1c0-5.4,0-10.8,0-16.2c0-1,0.2-2.1,0.6-3c0.6-1.4,2-2.1,3.4-1.6c1.1,0.4,2,1.5,2.8,2.5
		c0.4,0.5,0.2,1.5,0.2,2.2c0,10.7,0,21.4,0,32c0,0.3,0,0.7,0,1c-0.2,2.5-1.5,4-3.5,4s-3.5-1.5-3.5-4
		C-340.5-164.7-340.4-170.4-340.4-176.1C-340.4-176.1-340.4-176.1-340.4-176.1z"/>
	<linearGradient id="SVGID_8_" gradientUnits="userSpaceOnUse" x1="-312.3397" y1="-172.5042" x2="-305.302" y2="-172.5042">
		<stop  offset="0" style="stop-color:#00AE4D"/>
		<stop  offset="0.2214" style="stop-color:#0C8D5A"/>
		<stop  offset="0.5722" style="stop-color:#1D5D6D"/>
		<stop  offset="0.8413" style="stop-color:#274079"/>
		<stop  offset="0.9944" style="stop-color:#2B357D"/>
	</linearGradient>
	<path class="st10" d="M-312.3-172.6c0-4.4,0-8.8,0-13.1c0-2.7,1.2-4.2,3.4-4.3c2.2-0.1,3.6,1.5,3.6,4.3c0,8.8,0,17.7,0,26.5
		c0,3.2-2.4,5-4.9,3.9c-1.6-0.7-2.1-2-2.1-3.7C-312.3-163.5-312.3-168.1-312.3-172.6z"/>
	<linearGradient id="SVGID_9_" gradientUnits="userSpaceOnUse" x1="-326.3787" y1="-172.5123" x2="-319.3279" y2="-172.5123">
		<stop  offset="0" style="stop-color:#00AE4D"/>
		<stop  offset="0.2214" style="stop-color:#0C8D5A"/>
		<stop  offset="0.5722" style="stop-color:#1D5D6D"/>
		<stop  offset="0.8413" style="stop-color:#274079"/>
		<stop  offset="0.9944" style="stop-color:#2B357D"/>
	</linearGradient>
	<path class="st11" d="M-319.3-172.5c0,2.1,0,4.2,0,6.3c-0.1,2.6-1.5,4.2-3.6,4.1c-2.1,0-3.4-1.6-3.4-4.2c0-4.2,0-8.3,0-12.5
		c0-2.7,1.2-4.2,3.4-4.2c2.2,0,3.5,1.5,3.6,4.3c0,0.1,0,0.1,0,0.2C-319.3-176.5-319.3-174.5-319.3-172.5z"/>
</g>
<g>
	<path class="st2" d="M130.8,1c0.3,0.1,0.6,0.3,0.9,0.4c3.4,1.3,5.4,4.7,4.9,8c-0.6,3.8-3.5,6.3-7.3,6.3c-6.2,0-12.4,0-18.6,0
		c-2.8,0-3.6,0.8-3.6,3.6c0,2.8,0,5.7,0,8.8c0.6,0,1.2,0,1.8,0c10.6,0,21.2,0,31.9,0c4.2,0,7.3,2,8,5.5c1,4.8,0.3,8.9-4,11.1
		c-0.4,0.2-0.8,0.9-0.9,1.4c-0.6,8.4-1.2,16.9-1.8,25.3c-0.9,11.9-1.7,23.8-2.6,35.7c-0.6,8.5-1.3,17.1-1.8,25.6
		c-0.4,5.4-0.7,6.7-3.8,11.2c0.5,0,0.9,0.1,1.3,0.1c3.5,0,7,0,10.6,0c2.1,0,3.3,1,3.3,2.5c0,1.5-1.2,2.4-3.2,2.4
		c-47.2,0-94.4,0-141.5,0c-2,0-3.2-1-3.1-2.5c0-1.5,1.2-2.5,3.2-2.5c2.6,0,5.1,0,7.4,0c-1-2.4-2.3-4.8-2.9-7.2
		c-0.5-2.1-0.3-4.5-0.3-6.7c0-0.9-0.3-1.3-1.2-1.7c-4.1-1.6-6.7-5.9-6.2-10c0.6-4.7,3.8-8.1,8.4-8.8c0.4-0.1,0.9-0.2,1.4-0.3
		c0-1.5,0.1-3.1,0-4.6c0-0.4-0.4-0.8-0.8-1c-2.3-1.4-3.7-3.3-4-6c-0.9-8.5,1.7-16,7-22.7c5.8-7.3,13.5-11.8,22.3-14.7
		c0.4-0.1,0.8-0.3,1.4-0.4c-1.6-2-3-3.9-4.3-5.6c-2.6,0.7-4.9,1.5-7.3,2c-1.3,0.2-2.8,0.1-4.1-0.2c-5.4-1.3-8.1-6-6.8-11.6
		c0.7-3,2.4-5.5,4.3-7.5c-0.6-1.7-1.3-3.1-1.7-4.6c-0.1-0.4,0.5-1.1,0.9-1.4c2.8-1.6,3.6,1.1,5,2.5c2.7-1.5,5.6-2.5,8.8-2.4
		c6.7,0.2,10.7,5.5,9.1,12.1c-0.7,3-2.4,5.4-4.6,7.7c1.9,2.4,3.7,4.8,5.6,7.2c0.2,0.3,0.8,0.4,1.1,0.4c4.4-0.4,8.7-0.8,13.4-1.2
		c-0.1-2.2-0.3-4.7-0.5-7.3c0-0.5-0.2-1-0.1-1.5c0.1-2.2-0.2-3.9-2.5-5.1c-1.2-0.6-2.1-2.4-2.4-3.8c-0.4-1.7-0.4-3.7-0.2-5.5
		c0.6-3.8,3.6-6.1,7.8-6.1c10.7,0,21.3,0,32,0c0.6,0,1.2,0,2,0c0-0.6,0-1.1,0-1.7c0-3.6,0-7.1,0-10.7c0.1-7.3,4.9-13,12-14.4
		c0.2,0,0.4-0.2,0.6-0.3C113.5,1,122.1,1,130.8,1z M45.9,62.9c-0.1,0.1-0.1,0.3-0.2,0.4c1.2,1.6,2.5,3.2,3.7,4.8
		c1.2,1.5,1.1,2.9-0.1,3.9c-1.2,0.9-2.6,0.6-3.8-0.9c-1.6-2-3.2-4.1-4.7-6.2c-0.5-0.7-1-0.8-1.8-0.6c-7.1,1.9-13.5,5.1-18.9,10.2
		c-6,5.8-9.5,12.7-9.2,21.3c0.1,3,0.8,3.7,3.8,3.7c16.9,0,33.8,0,50.6,0c8.7,0,17.3,0,26,0c2.3,0,3.2-0.8,3.2-3c0-2.3,0-4.6-0.5-6.9
		c-1.5-7.6-6-13.4-12.1-17.9c-8.1-6-17.4-8.8-27.4-9.1C51.7,62.6,48.8,62.8,45.9,62.9z M76.8,62.7c2.6,1.7,5.4,3.1,7.8,5
		c2.5,1.9,4.8,4.1,7.2,6.3c0.2-0.1,0.5-0.3,0.9-0.5c4.6-2.3,10.3-0.6,12.9,3.9c2.6,4.5,1.4,10.6-3.1,13c-2.6,1.4-3.2,2.9-3,5.5
		c0.2,3.4-1,6.2-4.3,7.9c-0.3,0.1-0.6,0.6-0.6,0.9c-0.1,1.5,0,3.1,0,4.7c3.2,0.2,5.8,1.4,7.8,3.8c2,2.5,2.4,5.3,1.9,8.4
		c9.8,0,19.4,0,29.1,0c1.4-19.7,2.8-39.3,4.2-58.9C117.2,62.7,97,62.7,76.8,62.7z M13.3,129.2c0,1.5,0,2.8,0,4.1
		c0,6.6,4.1,10.7,10.7,10.7c9.4,0,18.8,0,28.2,0c9.9,0,19.9,0,29.8,0c4.8,0,8.7-2.7,9.8-7.1c0.6-2.4,0.5-5,0.7-7.7c-1,0-1.6,0-2.2,0
		c-14.7,0-29.3,0-44,0c-1.6,0-2.8,0.4-3.8,1.6c-1.2,1.4-2.6,2.3-4.6,2.2c-1.9-0.1-3.1-1.2-4.2-2.6c-0.7-0.9-1.4-1.2-2.5-1.2
		c-4.7,0.1-9.5,0-14.2,0C15.7,129.2,14.6,129.2,13.3,129.2z M138.8,45.4c-26.3,0-52.3,0-78.5,0c0.3,4.1,0.6,8.1,0.9,12.2
		c25.7,0,51.2,0,76.8,0C138.3,53.5,138.6,49.5,138.8,45.4z M89.6,109.4c0-1.8,0-3.3,0-4.8c-24.6,0-49.1,0-73.7,0c0,1.6,0,3.2,0,4.8
		c1.4,0,2.6,0.1,3.9,0c1.4-0.1,2.4,0.4,3.3,1.5c1.5,1.8,3.1,3.5,4.6,5.3c3.4,3.9,6.8,7.8,10.5,12c0.4-0.5,0.6-1,1-1.4
		c5.2-5.3,10.5-10.5,15.7-15.8c1.2-1.2,2.4-1.7,4-1.6c9.6,0.1,19.2,0,28.8,0C88.4,109.4,89,109.4,89.6,109.4z M99.5,40.4
		c8,0,16,0,23.9,0c5.9,0,11.7,0,17.6-0.1c0.9,0,2.3-0.6,2.4-1.1c0.4-1.5,0.5-3.3,0.1-4.8c-0.4-1.5-2-1.4-3.3-1.4
		c-27.1,0-54.1,0-81.2,0c-3.2,0-3.8,0.6-3.8,3.9c0,2.9,0.6,3.5,3.6,3.5C72.4,40.4,85.9,40.4,99.5,40.4z M94,144
		c9.6,0,19.3,0.1,29.1,0c4.3-0.1,8.2-3.2,9-7.3c0.6-3.2,0.7-6.5,1-9.9c-0.7,0-1.3,0-1.8,0c-8.5,0-17,0-25.5,0c-2.5,0-5-0.4-7.1,1.5
		c-0.1,0.1-0.3,0.2-0.4,0.2c-1.1,0.2-1.2,0.9-1.2,1.8c0,2.2,0.2,4.5-0.3,6.6C96.2,139.2,95,141.5,94,144z M49.1,124
		c0.4,0.1,0.5,0.2,0.5,0.2c15,0,30,0,45,0c2.9,0,5.1-2.3,5-5.1c-0.1-2.8-2.2-4.8-5.2-4.8c-11.5,0-23.1,0-34.6,0
		c-0.5,0-1,0.1-1.3,0.4C55.3,117.8,52.2,120.9,49.1,124z M102.1,28c0-3.1,0-6.1,0-9.1c0-5,3-8,8-8c6,0,11.9,0,17.9,0
		c0.6,0,1.2,0,1.7-0.1c1.3-0.3,2.1-1.4,1.9-2.6c-0.2-1.3-0.9-2-2.2-2.2c-0.3,0-0.7,0-1,0c-7,0-14,0-21,0c-6.1,0-10.2,4.1-10.3,10.2
		c0,3.6,0,7.1,0,10.7c0,0.4,0.1,0.7,0.1,1.2C98.9,28,100.4,28,102.1,28z M28.2,124.2c-2.9-3.4-5.6-6.5-8.4-9.5
		c-0.2-0.2-0.7-0.3-1-0.3c-2.6,0-5.3-0.1-7.9,0c-2.8,0.1-4.9,2.1-5,4.8c-0.1,2.7,1.9,5,4.7,5C16.4,124.3,22.1,124.2,28.2,124.2z
		 M21.7,40.4c-0.9,1.9-2,3.6-2.5,5.4c-0.9,3.1,1,5.5,4.2,5.7c5.4,0.3,11.7-4.8,12.8-10c0.5-2.4-0.8-4.6-3-5.1
		c-2.5-0.6-4.9,0-7.1,1.3c2,3.2,2.2,4.3,0.8,5.3C25.4,43.9,24.3,43.4,21.7,40.4z M94.7,78.1c0.8,1.5,1.5,2.9,2.2,4.3
		c0.7,1.5,1.2,3,1.8,4.5c1.8-0.6,2.9-1.8,3.3-3.6c0.4-2-0.2-3.7-1.9-4.9C98.4,77.2,96.6,77.1,94.7,78.1z"/>
	<path class="st2" d="M28.1,79.9c0,1.3-1.1,2.4-2.4,2.5c-1.4,0-2.5-1.1-2.5-2.5c0-1.3,1.1-2.4,2.5-2.4C27,77.4,28.1,78.5,28.1,79.9z
		"/>
	<path class="st2" d="M18.3,94.7c-1.3,0-2.4-1-2.5-2.4c-0.1-1.4,1-2.6,2.4-2.6c1.3,0,2.4,1.1,2.4,2.4C20.7,93.5,19.7,94.6,18.3,94.7
		z"/>
	<path class="st2" d="M60.2,72.4c-1.3,0-2.4-1-2.5-2.4c0-1.3,1-2.4,2.4-2.5c1.4,0,2.6,1,2.5,2.4C62.6,71.4,61.6,72.4,60.2,72.4z"/>
	<path class="st2" d="M38,72.5c0,1.3-1.1,2.4-2.4,2.4c-1.3,0-2.4-1.1-2.5-2.4c0-1.4,1.2-2.5,2.5-2.5C36.9,70.1,38,71.2,38,72.5z"/>
	<path class="st2" d="M40.5,84.8c-1.4,0-2.4-1-2.5-2.4c0-1.3,1-2.4,2.4-2.5c1.4,0,2.6,1,2.6,2.4C42.9,83.7,41.8,84.7,40.5,84.8z"/>
	<path class="st2" d="M33,89.7c0,1.4-1,2.4-2.3,2.5c-1.4,0.1-2.5-1-2.5-2.4c0-1.4,1-2.4,2.4-2.4C31.9,87.3,33,88.3,33,89.7z"/>
	<path class="st2" d="M131.6,77.4c0,5.4-4.4,9.8-9.8,9.9c-5.4,0-9.9-4.4-9.9-9.9c0-5.4,4.3-9.8,9.8-9.8
		C127.2,67.5,131.6,71.9,131.6,77.4z M116.9,77.5c0,2.8,2.3,4.9,5,4.9c2.7-0.1,4.8-2.3,4.8-5.1c0-2.7-2.3-4.8-4.9-4.8
		C119,72.5,116.9,74.7,116.9,77.5z"/>
	<path class="st2" d="M121.8,107c0,4.1-3.2,7.4-7.3,7.4c-4.1,0-7.4-3.2-7.5-7.3c-0.1-4.1,3.3-7.5,7.4-7.5
		C118.5,99.6,121.7,102.9,121.8,107z M116.9,107c0-1.3-1-2.4-2.4-2.5c-1.4,0-2.5,1-2.5,2.3c-0.1,1.4,1,2.5,2.4,2.5
		C115.7,109.4,116.8,108.4,116.9,107z"/>
</g>
</svg>
