<?xml version="1.0" encoding="utf-8"?>
<!-- Generator: Adobe Illustrator 24.3.0, SVG Export Plug-In . SVG Version: 6.00 Build 0)  -->
<svg version="1.1" id="Layer_1" xmlns="http://www.w3.org/2000/svg" xmlns:xlink="http://www.w3.org/1999/xlink" x="0px" y="0px"
	 viewBox="0 0 150 150" style="enable-background:new 0 0 150 150;" xml:space="preserve">
<style type="text/css">
	.st0{fill:#CDEEFD;}
	.st1{fill:#111224;}
	.st2{fill:#005BAB;}
</style>
<path class="st0" d="M1465.3,1556.3c-2.4-0.2-4.3-1.3-4.4-4.1c-0.1-6.7,1.6-10,4.9-9.9c0.2,0,0.3,0,0.5,0c2.2,0.5,4.3,2.1,3.2,4
	C1467.7,1549.5,1473.1,1555.7,1465.3,1556.3z M1465.5,1554.4c1.3-0.1,2.3-0.6,2.3-2.1c-0.1-1.7-1.5-2.1-2.8-2.4c-1.6-0.4-2,0.8-2,2
	C1463,1553.5,1464,1554.2,1465.5,1554.4z M1467.8,1546.5c0-1.4-0.6-2.2-2.1-2.2c-0.9,0-1.6,0.4-1.7,1.4c-0.2,1.4,0.9,2.1,2,2.5
	C1467.3,1548.5,1467.6,1547.5,1467.8,1546.5z"/>
<path class="st0" d="M1455.8,1556.6c-0.5-2.9-1.8-4.2-4.6-3.6c-0.7,0.2-1.7,0.3-2.1-0.8c-0.4-1.1,0.1-1.5,1.2-2.1
	c2.1-1.2,2.1-3.9,3.2-5.8c0.6-1,1-2.2,2.5-1.9c1.4,0.3,0.9,1.6,0.8,2.5C1456.4,1548.6,1458.4,1552.5,1455.8,1556.6z"/>
<path class="st1" d="M1465.5,1554.4c-1.5-0.1-2.6-0.8-2.5-2.4c0-1.2,0.4-2.4,2-2c1.2,0.3,2.7,0.7,2.8,2.4
	C1467.8,1553.7,1466.8,1554.2,1465.5,1554.4z"/>
<path class="st1" d="M1467.8,1546.5c-0.2,1-0.5,2.1-1.8,1.7c-1.1-0.4-2.1-1-2-2.5c0.1-1,0.8-1.4,1.7-1.4
	C1467.2,1544.3,1467.8,1545,1467.8,1546.5z"/>
<polygon class="st2" points="1346.8,29.4 1346.9,29.6 1346.6,29.6 "/>
<g>
	<path class="st2" d="M61,0.6c1.2,0.7,1.5,1.7,1.5,3c-0.1,4.1,0,8.1,0,12.2c0,2.1,0.6,2.8,2.7,2.9c7.8,0.5,13.2,4.4,16.6,11.3
		c2.5,5.2,5,10.5,7.6,15.7c4,8.3,3.2,16-2.4,23.3c-0.7,0.9-1.3,1.8-2.1,2.8c0.5,0.3,1,0.5,1.4,0.8c13.6,7.1,21.6,18.2,24,33.3
		c1.1,6.7-0.3,13.3-2.4,19.7c-1.7,5.1-3.5,10.1-5.1,15.3c-0.6,1.9-0.6,3.9-0.8,5.9c-0.1,1.7-0.9,2.7-2.2,2.7c-1.3,0-2.1-1-2.2-2.7
		c-0.1-4.2,1.2-8.2,2.5-12.2c1.8-5.6,4.1-11,5.3-16.7c2.9-14-2-25.6-12.1-35.2c-3.5-3.4-7.7-5.8-12.3-7.6c-2-0.7-2.4-2.2-1.1-3.9
		c1.3-1.7,2.7-3.5,4-5.2c4.1-5.5,4.5-11.3,1.9-17.7c-1.3-3.2-2.9-4.7-6.6-4.2c-2.7,0.4-5.5,0.1-8.3-0.1c-5.5-0.5-9.9-3.3-13-7.8
		c-2.3-3.3-4.5-6.7-6.7-10c-1.3-2.1-3.1-3-5.6-3c-2.7,0-5.4,0-8.1,0c-0.8,0-1.3,0.3-1.7,1c-1.1,1.6-2.3,3.2-3.5,4.8
		c-1.5,2-3,3.9-4.3,6c-0.7,1.1-1,2.6-1.5,3.9c0.1,0.1,0.2,0.1,0.3,0.2c0.2-0.2,0.5-0.3,0.7-0.5c4.8-3.7,10.1-4.5,15.5-1.9
		c5.5,2.6,8.2,7.2,8.3,13.3c0.1,5.7,0,11.4,0,17.1c0,7,0.2,14.1,0,21.1c-0.2,5.8,0.7,11.3,2.2,16.9c3.7,13.6,7.1,27.2,10.6,40.9
		c0.1,0.3,0.1,0.6,0.2,0.8c0.3,1.3-0.4,2.4-1.5,2.7c-1.1,0.3-2.3-0.3-2.7-1.6c-1-3.5-1.9-7.1-2.8-10.7c-3.3-12.7-6.6-25.5-9.8-38.2
		c-0.4-1.7-0.5-3.5-0.5-5.3c0-14.5,0-29,0-43.5c0-5.1-3-9.1-7.7-10.3c-6.2-1.6-12.4,3-12.6,9.4c-0.1,2.5,0,4.9,0,7.4
		c0,1.2-0.4,2.1-1.6,2.5c-1.5,0.5-2.8-0.6-2.8-2.4c0-5.9-0.2-11.7,0.1-17.6c0.1-2.2,0.9-4.6,2-6.6c1.4-2.5,3.4-4.7,5.2-7
		c0.6-0.7,1.2-1.4,1.7-2.1c1.4-1.9,1.8-4,1.7-6.4c-0.1-4.4,0-8.7-0.1-13.1c0-1.3,0.2-2.5,1.3-3.3c0.6,0,1.2,0,1.7,0
		c1.1,0.8,1.3,2,1.3,3.3c0,4.4,0,8.8,0,13.2c0,0.5,0.1,1,0.1,1.6c2.9,0,5.7,0,8.4,0c3.9,0,6.9,1.6,9,4.9c2.1,3.2,4.3,6.4,6.4,9.7
		c1.7,2.5,3.9,4.5,6.7,5.5c4.3,1.6,8.8,0.7,13.6,1c-1.3-2.8-2.6-5.2-3.7-7.7c-2.6-5.6-6.9-8.6-13.1-9c-4.2-0.2-6.6-2.9-6.6-7.1
		c0-4.1,0-8.2,0-12.4c0-1.3,0.3-2.4,1.5-3.1C60,0.6,60.5,0.6,61,0.6z"/>
	<path class="st2" d="M73.1,106.8c-0.6-2.6-1.2-4.9-1.6-7.3c-0.4-2.1-0.5-4.2-0.6-6.4c-0.3-3.9,2.5-7.1,6.2-7.3
		c3.7-0.2,6.8,2.5,7.2,6.3c0.3,3.3,0.3,3.3,3.4,3.9c6.2,1.2,9.2,4.8,10,11.1c1.1,9.8-3.6,16.7-11,22.2c-0.6,0.5-1.2,1.1-1.6,1.7
		c-3.1,5.6-10.1,7.5-15.6,4.3c-5.5-3.3-7.2-10.4-3.7-15.8c0.3-0.5,0.6-1.2,0.4-1.6c-1.7-4.7,0.5-8.3,4.6-10.2
		C71.7,107.3,72.6,107,73.1,106.8z M85.2,100.1c0,0.1-0.1,0.1-0.1,0.2c-0.3,1.8-1,2.6-2.3,2.6c-1.3-0.1-1.9-0.9-2.1-2.6
		c-0.3-2.6-0.5-5.1-0.7-7.7c-0.2-1.5-1.2-2.5-2.5-2.5c-1.4,0.1-2.3,1.2-2.2,2.8c0.1,1.6,0.3,3.3,0.4,4.9c0.2,2.3,0.4,4.6,1.8,6.6
		c0.7,0.9,1.4,1.6,2.6,1.4c0.8-0.1,1.6-0.1,2.5,0c1.5,0.1,2.4,0.9,2.4,2.2c0,1.3-0.9,2.1-2.4,2.1c-1.3,0-2.5,0-3.8,0
		c-2.5,0.1-5,0.6-7.2,2c-1.6,1-1.9,2.3-1,4c0.6,0,1.1-0.1,1.7-0.1c3.2-0.2,5.6,1.2,7.6,3.6c0.8,1,0.7,2.2-0.2,3
		c-0.9,0.8-2.2,0.7-3.1-0.3c-0.2-0.2-0.4-0.5-0.7-0.8c-2-2-5.7-1.4-6.9,1.1c-1.6,3.4-0.1,7.5,3.3,9.1c3.5,1.6,7.5,0.1,9.2-3.4
		c0.4-0.8,1-1.7,1.7-2.1c6.6-3.5,10.8-11.1,10.1-18.5C92.8,102.6,90.5,100.4,85.2,100.1z"/>
	<path class="st2" d="M24.6,104.7c-2.2,4.9-3.5,9.6-4.3,14.5c-1.4,9-0.8,18,1.6,26.8c0.3,1.1,0.4,2.1-0.6,2.9
		c-1.3,1.1-3.1,0.4-3.5-1.4c-0.8-3.4-1.6-6.8-2-10.2c-1.4-11.7-0.1-23,4.6-33.8c0.2-0.5,0.4-1.1,0.7-1.6c1.9-2.6,1.8-5.5,1.6-8.6
		c-0.4-8.7-0.3-17.3-0.4-26c0-1.3,0.8-2.1,2-2.2c1.2,0,2.1,0.7,2.3,2c0.1,0.4,0,0.9,0,1.3c0,6.4,0,12.8,0,19.2
		c0,8,1.9,15.6,4.2,23.2c3.5,11.6,6.9,23.2,10.3,34.8c0.1,0.2,0.1,0.4,0.1,0.6c0.5,1.7,0,2.9-1.4,3.3c-1.2,0.3-2.3-0.4-2.8-2
		c-3.7-12.4-7.4-24.8-11-37.3C25.6,108.4,25.2,106.7,24.6,104.7z"/>
	<path class="st2" d="M134.8,35.3c-0.4,6.8-3.2,11.3-8.9,14c-1.6,0.8-2.9,0.4-3.5-0.8c-0.5-1.2,0-2.4,1.6-3.1
		c4.6-2,7.8-7.8,5.4-13.6c-2.4-5.6-5.4-10.8-8.7-15.9c-0.7-1-1.4-1.1-2,0c-3.3,5.1-6.5,10.2-8.7,15.9c-2.1,5.5-0.3,10.4,4.8,13.4
		c1.7,1,2.1,2.7,0.8,3.8c-0.9,0.7-1.7,0.6-2.7,0.2c-6.2-3.1-9.7-10.7-7.6-17.1c2-5.9,5.2-11.2,8.4-16.5c0.5-0.8,1-1.7,1.6-2.4
		c2.2-2.9,6.5-3.1,8.6,0c3.9,5.7,7.5,11.6,9.8,18.2C134.3,32.6,134.5,34.2,134.8,35.3z"/>
	<path class="st2" d="M105,14.4c-0.3,3.6-0.8,4.6-2.3,4.5c-2.9-0.2-2-2.7-2.3-4.4C98.7,14,95.9,15,96,12c0.1-2.7,2.6-2,4.4-2.2
		c0.4-1.7-0.7-4.6,2.5-4.3c2.5,0.2,1.8,2.5,2,4.3c1.7,0.4,4.5-0.6,4.3,2.5C109.1,15,106.6,14,105,14.4z"/>
</g>
</svg>
