<?xml version="1.0" encoding="utf-8"?>
<!-- Generator: Adobe Illustrator 24.3.0, SVG Export Plug-In . SVG Version: 6.00 Build 0)  -->
<svg version="1.1" id="Layer_1" xmlns="http://www.w3.org/2000/svg" xmlns:xlink="http://www.w3.org/1999/xlink" x="0px" y="0px"
	 viewBox="0 0 150 150" style="enable-background:new 0 0 150 150;" xml:space="preserve">
<style type="text/css">
	.st0{fill:#CDEEFD;}
	.st1{fill:#111224;}
	.st2{fill:#005BAB;}
</style>
<path class="st0" d="M1465.3,1556.3c-2.4-0.2-4.3-1.3-4.4-4.1c-0.1-6.7,1.6-10,4.9-9.9c0.2,0,0.3,0,0.5,0c2.2,0.5,4.3,2.1,3.2,4
	C1467.7,1549.5,1473.1,1555.7,1465.3,1556.3z M1465.5,1554.4c1.3-0.1,2.3-0.6,2.3-2.1c-0.1-1.7-1.5-2.1-2.8-2.4c-1.6-0.4-2,0.8-2,2
	C1463,1553.5,1464,1554.2,1465.5,1554.4z M1467.8,1546.5c0-1.4-0.6-2.2-2.1-2.2c-0.9,0-1.6,0.4-1.7,1.4c-0.2,1.4,0.9,2.1,2,2.5
	C1467.3,1548.5,1467.6,1547.5,1467.8,1546.5z"/>
<path class="st0" d="M1455.8,1556.6c-0.5-2.9-1.8-4.2-4.6-3.6c-0.7,0.2-1.7,0.3-2.1-0.8c-0.4-1.1,0.1-1.5,1.2-2.1
	c2.1-1.2,2.1-3.9,3.2-5.8c0.6-1,1-2.2,2.5-1.9c1.4,0.3,0.9,1.6,0.8,2.5C1456.4,1548.6,1458.4,1552.5,1455.8,1556.6z"/>
<path class="st1" d="M1465.5,1554.4c-1.5-0.1-2.6-0.8-2.5-2.4c0-1.2,0.4-2.4,2-2c1.2,0.3,2.7,0.7,2.8,2.4
	C1467.8,1553.7,1466.8,1554.2,1465.5,1554.4z"/>
<path class="st1" d="M1467.8,1546.5c-0.2,1-0.5,2.1-1.8,1.7c-1.1-0.4-2.1-1-2-2.5c0.1-1,0.8-1.4,1.7-1.4
	C1467.2,1544.3,1467.8,1545,1467.8,1546.5z"/>
<polygon class="st2" points="1346.8,29.4 1346.9,29.6 1346.6,29.6 "/>
<g>
	<g>
		<path class="st2" d="M11.2,78.6C-8.7,36.8,39.4-3.1,74.9,27.9c6.6-5.9,14.5-9.8,23.4-10.6c1.6-0.2,2.6,0.5,2.8,1.7
			c1.2,4.6-12.5,0.6-24.4,13.4c-1.3,1.3-2.3,1.2-3.9-0.3C54,12.2,18,22,12.1,48.9C9.7,59,11.4,68.6,16.1,77.8
			c0.2,0.4,0.8,0.8,1.3,0.8c3.3,0.1,6.6,0,10,0.1c1,0,1.3-0.6,1.6-1.3c3.4-6.9,6.7-13.9,10.2-20.8c1.1-2.3,3.8-2.7,4.5,0.2
			c3.6,10.7,7.2,21.3,10.9,32.1c3.1-9.4,5.6-18.9,8.5-28.4c0.4-1.2,0.7-2.3,2.2-2.5c1.4-0.1,2,0.8,2.6,1.9c2.7,4.6,5.3,9.1,8.2,13.6
			c3.5-8.1,6.6-16.2,9.9-24.4c0.5-1.2,1-2.2,2.4-2.2c1.4,0,1.9,1.1,2.4,2.2c1.5,3.4,3,6.8,4.5,10.2c1.6,2.7-2.4,5.1-3.9,2
			c-1-2.1-1.9-4.2-2.9-6.5C85,62.5,82,70.5,78.7,78.4c-0.4,1.1-0.9,2-2.2,2.1c-1.3,0.1-1.9-0.8-2.5-1.8c-2.7-4.4-5.1-8.8-7.9-13.2
			c-3.2,10.3-6,20.5-9.2,30.8c-0.4,2.6-3.9,2.6-4.4,0.1C48.7,85.2,45,73.9,41,62.7c-3.2,6-6,12.1-8.9,18.2c-0.7,1.5-1.7,2.1-3.3,2.1
			c-3.1-0.1-6.2,0-9.7,0c13.4,20.2,35.6,31.2,54.9,44.8c0.4,0.3,1.2,0.3,1.6,0.1c19.8-12.9,41.4-24.9,55.1-44.9c-2.1,0-4-0.1-5.8,0
			c-1.7,0.1-2.7-0.6-3.4-2.1c-1.6-3.5-3.4-6.9-5.3-10.7c-2.4,7.4-4.6,14.1-6.9,21.3c-0.4,1.1-0.8,2-2.2,2.1
			c-1.3,0.1-1.9-0.8-2.4-1.8c-3.2-7.4-6.5-14.7-9.6-22.1c-0.3-0.8-0.3-2,0.1-2.7c1.2-1.4,3.2-0.6,3.8,1.1c2.6,5.7,4.9,11.3,7.6,17.1
			c2.4-7,4.5-13.9,6.8-20.9c0.4-1.1,0.9-2,2.2-2.1c1.3-0.1,1.9,0.8,2.4,1.8c2.2,4.5,4.5,8.9,6.6,13.4c0.5,0.9,1,1.3,2,1.2
			c1.8-0.3,6.1,0.7,7.1-0.8c12.1-20.9,1.7-50.2-22.8-55.4c-1.5-0.4-2.3-1.4-2-2.7c0.3-1.3,1.5-2,3-1.6c26.5,5.7,38.6,37,26.3,60.5
			c3.1,0,5.8,0,8.8,0c3.3-0.1,3.3,4.4,0,4.4c-2.4,0.3-10.6-0.8-11.7,0.9c-14.2,21.9-37.7,34.8-58.9,48.8c-1,0.6-1.9,0.7-2.9,0.1
			c-21.3-14-44.9-26.9-59.1-48.8c-0.3-0.5-1.1-0.8-1.8-0.8c-3.3-0.1-6.6,0-10,0c-2.4,0.1-3.1-2.2-1.6-3.9c0.3-0.4,1.2-0.5,1.9-0.5
			C5.8,78.6,8.5,78.6,11.2,78.6z"/>
	</g>
</g>
</svg>
