<?xml version="1.0" encoding="utf-8"?>
<!-- Generator: Adobe Illustrator 24.3.0, SVG Export Plug-In . SVG Version: 6.00 Build 0)  -->
<svg version="1.1" id="Layer_1" xmlns="http://www.w3.org/2000/svg" xmlns:xlink="http://www.w3.org/1999/xlink" x="0px" y="0px"
	 viewBox="0 0 150 150" style="enable-background:new 0 0 150 150;" xml:space="preserve">
<style type="text/css">
	.st0{fill:#CDEEFD;}
	.st1{fill:#111224;}
	.st2{fill:#005BAB;}
</style>
<path class="st0" d="M1465.3,1556.3c-2.4-0.2-4.3-1.3-4.4-4.1c-0.1-6.7,1.6-10,4.9-9.9c0.2,0,0.3,0,0.5,0c2.2,0.5,4.3,2.1,3.2,4
	C1467.7,1549.5,1473.1,1555.7,1465.3,1556.3z M1465.5,1554.4c1.3-0.1,2.3-0.6,2.3-2.1c-0.1-1.7-1.5-2.1-2.8-2.4c-1.6-0.4-2,0.8-2,2
	C1463,1553.5,1464,1554.2,1465.5,1554.4z M1467.8,1546.5c0-1.4-0.6-2.2-2.1-2.2c-0.9,0-1.6,0.4-1.7,1.4c-0.2,1.4,0.9,2.1,2,2.5
	C1467.3,1548.5,1467.6,1547.5,1467.8,1546.5z"/>
<path class="st0" d="M1455.8,1556.6c-0.5-2.9-1.8-4.2-4.6-3.6c-0.7,0.2-1.7,0.3-2.1-0.8c-0.4-1.1,0.1-1.5,1.2-2.1
	c2.1-1.2,2.1-3.9,3.2-5.8c0.6-1,1-2.2,2.5-1.9c1.4,0.3,0.9,1.6,0.8,2.5C1456.4,1548.6,1458.4,1552.5,1455.8,1556.6z"/>
<path class="st1" d="M1465.5,1554.4c-1.5-0.1-2.6-0.8-2.5-2.4c0-1.2,0.4-2.4,2-2c1.2,0.3,2.7,0.7,2.8,2.4
	C1467.8,1553.7,1466.8,1554.2,1465.5,1554.4z"/>
<path class="st1" d="M1467.8,1546.5c-0.2,1-0.5,2.1-1.8,1.7c-1.1-0.4-2.1-1-2-2.5c0.1-1,0.8-1.4,1.7-1.4
	C1467.2,1544.3,1467.8,1545,1467.8,1546.5z"/>
<polygon class="st2" points="1346.8,29.4 1346.9,29.6 1346.6,29.6 "/>
<g>
	<path class="st2" d="M1,109.7c0.5-1.6,0.8-3.3,1.6-4.7c1.3-2.1,2.9-4,4.4-6c0.3-0.4,0.7-0.9,0.7-1.3c-0.4-8.3,2.8-15.2,7.8-21.5
		c6.5-8.2,14.9-14,24-18.8c2.6-1.3,5.2-2.4,7.8-3.7c0.7-0.4,1.5-0.9,1.9-1.6C57,39.1,65.8,27,75.6,15.7c2.7-3.1,5.9-3.1,8.6,0
		C91.7,24.4,98.6,33.5,105,43c0.3,0.5,1.1,1,1.7,1c6.8,0.7,13.5,2.3,19.9,4.8c0.8,0.3,1.3,0.2,2-0.4c4.7-4.2,11.8-4.1,16.4,0
		c4.7,4.2,5.4,11.2,1.7,16.4c-0.3,0.5-0.6,1.3-0.5,1.7c2.4,6.5,1.5,12.8-1.3,18.9c-3.3,7.3-8.6,13-14.8,17.8
		c-2.8,2.2-5.8,4.1-8.7,6.2c-0.6,0.4-1.2,1-1.5,1.6c-8.1,16.7-24.8,26.5-43.3,25.3c-8.8-0.6-16.6-3.8-23.6-9.2c-0.7-0.5-1.6-1-2.4-1
		c-6-0.5-11.9-1.6-17.7-3.4c-0.4-0.1-1.2,0-1.4,0.3c-4.9,5.2-10.8,7.2-17.7,5.3c-7-1.9-11.1-6.8-12.5-13.9c0-0.1-0.1-0.2-0.2-0.4
		C1,112.8,1,111.2,1,109.7z M80,18.2c-8.8,10.3-16.8,20.8-23.8,32c-5.9,9.4-11.1,19-14,29.8c-4.2,15.5-0.7,29.1,10.6,40.6
		c0.6,0.6,1.5,1,2.4,1c9.3,0.4,18.5-0.5,27.5-2.4c11.5-2.4,22.4-6.3,32.7-11.9c0.5-0.3,1.1-0.7,1.3-1.3c2.1-5.2,3-10.6,2.7-16.1
		c-0.3-7.3-2.6-14.2-5.5-20.8c-5.9-13.5-14.1-25.7-23-37.4C87.4,27.2,83.7,22.8,80,18.2z M44.5,60.5c-0.4,0.1-0.6,0.2-0.7,0.2
		c-6.3,3.1-12.2,6.8-17.5,11.4c-4.9,4.3-9.2,9.1-11.8,15.1c-1.1,2.6-1.9,5.3-1.9,8.4c6.9-2,13.1-0.7,18,4.4c5,5.2,5.9,11.4,3.8,18.4
		c3.9,0.9,7.7,1.7,11.4,2.5c0.1-0.1,0.1-0.3,0.2-0.4c-0.2-0.3-0.5-0.6-0.7-0.9c-6.9-9-10.3-19.2-9.7-30.6c0.4-7.6,2.7-14.6,5.7-21.5
		C42.3,65.3,43.4,63,44.5,60.5z M141.7,69c-9.7,4-20.1-4.4-16.7-15.5c-5-2-10.1-3.4-15.8-4.1c0.5,0.8,0.8,1.3,1,1.8
		c3.2,6.3,6.6,12.5,9.4,19c3.4,8,5.4,16.3,4.6,25.2c-0.2,2.3-0.7,4.6-1,7.1c0.3-0.2,0.6-0.3,0.8-0.5c2.8-2.3,5.7-4.5,8.3-7
		c4.2-4.1,7.7-8.8,9.4-14.5C142.8,76.7,143.1,72.9,141.7,69z M30.6,112c0-6.8-5.5-12.3-12.3-12.3c-6.7,0-12.3,5.5-12.4,12.3
		c0,6.8,5.6,12.4,12.4,12.4C25.1,124.3,30.6,118.8,30.6,112z M112,114.7c-16.3,7.6-33.1,11.5-50.9,12
		C77.3,136.3,100.4,131.8,112,114.7z M136.7,50.4c-4.1,0-7.4,3.2-7.4,7.3s3.2,7.5,7.3,7.5s7.5-3.4,7.4-7.4
		C144.1,53.6,140.8,50.4,136.7,50.4z"/>
	<path class="st2" d="M89.8,55.4c0,3.1,0,6.1,0,9.2c0,3.5-2,5.5-5.4,5.5c-3,0-6,0-9,0c-3.3,0-5.3-2-5.3-5.3c0-3.1,0-6.2,0-9.2
		c-0.1-0.1-0.2-0.2-0.3-0.2c-4.8-1.3-6-4.8-3-8.8c2.9-3.9,5.8-7.7,8.7-11.6c2.7-3.5,6.3-3.5,9,0c2.8,3.8,5.5,7.7,8.6,11.3
		C96,49.8,94.9,54.5,89.8,55.4z M70.1,50.3c0.8,0,1.1,0,1.5,0c2.7,0,3.4,0.7,3.4,3.4c0,3.2,0,6.4,0,9.5c0,0.6,0,1.2,0,1.8
		c3.4,0,6.6,0,9.8,0c0-0.5,0.1-0.9,0.1-1.3c0-3.3,0-6.6,0-10c0-2.6,0.7-3.4,3.3-3.4c0.4,0,0.9,0,1.6-0.1c-3.4-4.5-6.5-8.7-9.8-13.1
		C76.6,41.6,73.4,45.8,70.1,50.3z"/>
	<path class="st2" d="M70.1,89.7c0-3.9,0-7.8,0-11.7c0-2.1,0.9-3,3-3c2.3,0,4.6,0,6.9,0c5.5,0.1,9.7,4.3,9.8,9.7
		c0.1,3.4,0.1,6.8,0,10.2c-0.1,5.2-4.1,9.3-9.3,9.6c-2.6,0.1-5.2,0.1-7.8,0c-1.7,0-2.6-1-2.6-2.7C70.1,97.8,70.1,93.7,70.1,89.7z
		 M75,99.6c1.8,0,3.5,0.1,5.2,0c2.6-0.1,4.6-2.1,4.6-4.8c0.1-3.4,0-6.7,0-10.1c0-2.3-1.5-4.3-3.8-4.6c-2-0.3-4-0.1-6-0.1
		C75,86.5,75,93,75,99.6z"/>
	<path class="st2" d="M60.2,92.4c-3.3,0-6.5,0-9.9,0c0,2.6,0,5.1,0,7.6c0,0.6,0,1.3-0.2,1.9c-0.3,1.2-1.3,1.8-2.5,1.7
		c-1.2-0.1-2-0.8-2.2-2.1c0-0.2,0-0.5,0-0.7c0-8,0-16,0-24c0-1.7,0.9-2.7,2.3-2.7c1.5-0.1,2.6,1,2.6,2.8c0,2.9,0,5.9,0,8.8
		c0,0.5,0,1,0,1.6c3.3,0,6.5,0,9.9,0c0-0.7,0-1.4,0-2c0-2.6,0-5.1,0-7.7c0-1.5,1-2.5,2.3-2.6c1.4-0.1,2.5,1,2.6,2.5
		c0,0.2,0,0.4,0,0.6c0,7.8,0,15.6,0,23.4c0,0.2,0,0.4,0,0.6c-0.1,1.5-1.1,2.5-2.5,2.5s-2.4-1-2.4-2.5c0-2.6,0-5.3,0-7.9
		C60.2,93.6,60.2,93.1,60.2,92.4z"/>
	<path class="st2" d="M99.6,99.6c0.7,0,1.2,0,1.7,0c3.5,0,6.9,0,10.4,0c1.7,0,2.7,1.1,2.7,2.6c0,1.4-1.1,2.3-2.7,2.3
		c-4.8,0-9.5,0-14.3,0c-1.7,0-2.7-0.9-2.7-2.7c0-8,0-16.1,0-24.1c0-1.7,1.1-2.8,2.5-2.7c1.5,0,2.4,1.1,2.4,2.8c0,6.6,0,13.3,0,19.9
		C99.6,98.3,99.6,98.9,99.6,99.6z"/>
	<path class="st2" d="M10.9,111.7c0.1-3.7,3.4-7.1,7.2-7.1c1.4,0,2.5,0.8,2.6,2.1c0.2,1.4-0.6,2.4-2.1,2.7c-2.1,0.4-2.4,0.8-2.8,2.7
		c-0.3,1.5-1.3,2.4-2.7,2.2C11.7,114.3,10.8,113.2,10.9,111.7z"/>
</g>
</svg>
