<?xml version="1.0" encoding="utf-8"?>
<!-- Generator: Adobe Illustrator 24.3.0, SVG Export Plug-In . SVG Version: 6.00 Build 0)  -->
<svg version="1.1" id="Layer_1" xmlns="http://www.w3.org/2000/svg" xmlns:xlink="http://www.w3.org/1999/xlink" x="0px" y="0px"
	 viewBox="0 0 150 150" style="enable-background:new 0 0 150 150;" xml:space="preserve">
<style type="text/css">
	.st0{fill:#CDEEFD;}
	.st1{fill:#111224;}
	.st2{fill:#005BAB;}
</style>
<path class="st0" d="M1465.3,1556.3c-2.4-0.2-4.3-1.3-4.4-4.1c-0.1-6.7,1.6-10,4.9-9.9c0.2,0,0.3,0,0.5,0c2.2,0.5,4.3,2.1,3.2,4
	C1467.7,1549.5,1473.1,1555.7,1465.3,1556.3z M1465.5,1554.4c1.3-0.1,2.3-0.6,2.3-2.1c-0.1-1.7-1.5-2.1-2.8-2.4c-1.6-0.4-2,0.8-2,2
	C1463,1553.5,1464,1554.2,1465.5,1554.4z M1467.8,1546.5c0-1.4-0.6-2.2-2.1-2.2c-0.9,0-1.6,0.4-1.7,1.4c-0.2,1.4,0.9,2.1,2,2.5
	C1467.3,1548.5,1467.6,1547.5,1467.8,1546.5z"/>
<path class="st0" d="M1455.8,1556.6c-0.5-2.9-1.8-4.2-4.6-3.6c-0.7,0.2-1.7,0.3-2.1-0.8c-0.4-1.1,0.1-1.5,1.2-2.1
	c2.1-1.2,2.1-3.9,3.2-5.8c0.6-1,1-2.2,2.5-1.9c1.4,0.3,0.9,1.6,0.8,2.5C1456.4,1548.6,1458.4,1552.5,1455.8,1556.6z"/>
<path class="st1" d="M1465.5,1554.4c-1.5-0.1-2.6-0.8-2.5-2.4c0-1.2,0.4-2.4,2-2c1.2,0.3,2.7,0.7,2.8,2.4
	C1467.8,1553.7,1466.8,1554.2,1465.5,1554.4z"/>
<path class="st1" d="M1467.8,1546.5c-0.2,1-0.5,2.1-1.8,1.7c-1.1-0.4-2.1-1-2-2.5c0.1-1,0.8-1.4,1.7-1.4
	C1467.2,1544.3,1467.8,1545,1467.8,1546.5z"/>
<polygon class="st2" points="1346.8,29.4 1346.9,29.6 1346.6,29.6 "/>
<g>
	<path class="st2" d="M25.3,0.6c1.7,0,3.5,0,5.2,0c1,0.3,2,0.5,3.1,0.8C43.5,4,50.1,12.6,50.2,23.1c0,5.5,0,10.9,0,16.4
		c0,0.5,0.3,1.3,0.7,1.5c2.9,1.6,4.2,4.1,4.2,7.4c0,5,0,10,0,15c0,0.5,0,1,0,1.5c4.3,0.9,7.6-1.2,7.4-6c-0.2-6.1-0.1-12.2,0-18.3
		c0-5.4,4.9-9,9.8-7.4c3.3,1.1,5.1,3.9,5.1,7.9c0,15.7,0,31.5,0,47.2c0,0.8,0,1.6,0.1,2.3c0.3,3.7,2.2,6.5,5.5,8.1
		c3.4,1.6,6.8,1.4,9.9-0.8c2.9-2,4.3-4.8,4.3-8.4c-4.9-1.3-8.7-4-11.2-8.2c-5.3-9.1-5.4-21.9,2.4-30.8c0.3-0.3,0.5-0.6,0.8-1
		c-4.5-2.3-6.6-8.4-1.3-13.1c-0.3-0.3-0.6-0.5-0.9-0.7c-10.8-8.9-9.3-25.9,3-32.6c2.2-1.2,4.8-1.7,7.2-2.6c1.6,0,3.3,0,4.9,0
		c0.3,0.1,0.5,0.2,0.8,0.3c7.7,1.5,13.1,6,15.5,13.5c2.4,7.4,0.7,14.1-4.6,19.9c-0.8,0.8-1.7,1.5-2.6,2.4c2.3,1.8,3.4,4,3.2,6.9
		c-0.3,2.9-1.9,4.8-4.4,6.2c6.6,7.3,8.3,15.7,6,25c-1.6,6.3-4.8,11.3-11,14c-1,0.4-2,0.7-2.9,1.1c0,0.4-0.1,0.8-0.1,1.1
		c-0.6,7.1-5.6,12.6-12.5,13.8c-6.6,1.1-13.2-2.5-16-8.7c-1.2-2.7-1.3-5.5-1.3-8.4c0-15.5,0-30.9,0-46.4c0-2.1-0.8-3.3-2.4-3.3
		c-1.6,0-2.5,1.2-2.5,3.3c0,0.3,0,0.7,0,1c0,6.2,0.1,12.3-0.1,18.5c-0.1,4.6-3.4,8.4-8,9.2c-1.4,0.2-2.8,0.2-4.3,0.4
		c0,0.6,0,1.2,0,1.7c0,8.2,0,16.5,0,24.7c0,3.3-1.3,5.8-4.2,7.4c-0.2,0.1-0.5,0.3-0.7,0.5c-1.2,2.5,0.4,5.2,3.2,5.2
		c15.7,0,31.4,0,47.1,0c2.1,0,3.7-0.7,5-2.4c2.4-2.9,4.8-5.8,7.2-8.7c1.8-2.1,4-3.6,6.8-3.7c3.5-0.2,7.1-0.3,10.6,0
		c4,0.3,6.6,3.4,6.7,7.4c0,0.8,0,1.5,0,2.4c1.6,0,3.1,0,4.5,0c2.7,0,5,1,6.6,3.3c0.5,0.8,0.9,1.8,1.3,2.7c0,1,0,1.9,0,2.9
		c-0.5,1-1,2-1.5,3.1c-0.1,0.2-0.1,0.6,0,0.9c0.5,1,1,2,1.5,3c0,1,0,1.9,0,2.9c-1,1.7-2,3.4-3.2,5.3c1.5,3.5,0.7,6.8-2.6,9.4
		c0,0.2,0,0.3,0.1,0.5c2.6,5.1-1.6,10.9-7.4,10.7c-7.2-0.2-14.3,0-21.5-0.1c-1.6,0-3.3-0.5-4.9-1.1c-1.3-0.5-2.5-1.5-3.7-2.3
		c-1.5-1.1-3-1.5-4.9-1.5c-22.8,0-45.5,0.1-68.3,0c-15.5,0-27.5-12.1-27.6-27.6c0-3.7,0-7.5,0-11.2c0-0.9-0.2-1.4-1.1-1.9
		c-2.6-1.4-3.9-3.6-3.9-6.5c0-16.5,0-33,0-49.5c0-2.9,1.4-5.1,3.9-6.5c0.8-0.4,1-0.9,1-1.8c0-5.6-0.2-11.1,0-16.7
		c0.3-9.6,5-16.5,13.8-20.4C21.2,1.5,23.3,1.1,25.3,0.6z M10.5,104.8c0,3.2-0.1,6.2,0,9.1c0.1,2.5,0,5,0.4,7.4
		c2.1,10.8,11.1,18.2,22.2,18.2c22.9,0,45.7,0,68.6,0c1.6,0,3.4,0.3,4.9,1c1.6,0.7,3,2,4.6,2.8c1,0.6,2.2,1.1,3.4,1.1
		c7.3,0.1,14.5,0.1,21.8,0c1.7,0,2.9-0.9,3-2.3c0.1-1.4-0.8-2.3-2.6-2.7c-1.5-0.3-2.4-1.3-2.3-2.7c0.1-1.3,1.1-2.2,2.6-2.2
		c0.8,0,1.6,0,2.3,0c1.4-0.1,2.4-1.2,2.5-2.4c0-1.3-0.8-2.2-2.3-2.5c-0.2,0-0.4,0-0.6-0.1c-1.3-0.3-2.1-1.4-2-2.6
		c0.1-1.3,1.1-2.2,2.4-2.2c0.9-0.1,1.8,0,2.6-0.1c1.4-0.2,2.4-1.3,2.4-2.5c0-1.2-0.9-2.1-2.3-2.4c-0.1,0-0.2,0-0.3,0
		c-1.5-0.3-2.4-1.2-2.4-2.5c0-1.3,0.8-2.1,2.4-2.5c1.7-0.3,2.6-1.3,2.6-2.6c-0.1-1.4-1.1-2.3-2.9-2.4c-0.4,0-0.8,0-1.2,0
		c-4.9,0-9.9,0-14.8,0c-0.6,0-1.3,0-1.9-0.2c-1.1-0.4-1.6-1.4-1.5-2.5c0.1-1.3,1.1-2.2,2.7-2.2c2.4-0.1,4.7,0,7.1,0
		c0-0.5,0.1-0.7,0.1-1c0.1-3.3-0.6-4-3.8-4c-2.2,0-4.5,0.1-6.7,0c-2.2-0.1-3.9,0.8-5.3,2.5c-2.3,2.9-4.7,5.7-7,8.5
		c-2.1,2.6-4.8,3.9-8.1,3.9c-16.1,0-32.2,0-48.2,0c-4.6,0-7.5-3.1-7.6-7.7c0-0.7-0.1-1.4-0.1-2.1C33.6,104.8,22.1,104.8,10.5,104.8z
		 M5.5,72.4c0,8,0,16.1,0,24.1c0,2.5,0.8,3.3,3.3,3.3c12.7,0,25.4,0,38.1,0c2.5,0,3.3-0.8,3.3-3.3c0-16,0-32,0-47.9
		c0-2.5-0.8-3.3-3.3-3.3c-12.7,0-25.4,0-38.1,0c-2.5,0-3.3,0.8-3.3,3.3C5.5,56.5,5.5,64.4,5.5,72.4z M45.2,40.2
		c0-0.5,0.1-0.8,0.1-1.1c0-5.4,0-10.7,0-16.1c0-1.2-0.1-2.3-0.4-3.5C43,10.7,34.9,4.7,26.3,5.6c-9.2,1-15.8,8.3-15.8,17.6
		c0,4.4,0,8.8,0,13.2c0,1.2,0,2.5,0,3.8C22.1,40.2,33.6,40.2,45.2,40.2z M87.4,29.1c3.2-2.5,4.1-2.8,5.2-1.6c2,2.2-0.1,3.6-1.3,5.1
		c4.5,3.7,13.4,3.7,16.9-0.1c-2.3-2.7-2.6-3.6-1.4-4.8c2.3-2.2,3.6,0,5.4,1.5c0.9-2.1,1.7-4,2.5-6.1c-2.2-0.2-4.8,0.4-4.9-2.5
		c-0.1-3,2.6-2.4,4.9-2.6c-0.9-2.2-1.7-4.1-2.6-6.1c-1.8,1.4-3,3.6-5.3,1.7c-1.3-1.1-1-2,1.6-5.4c-2-0.8-4-1.6-6-2.5
		c-0.4,3.9-0.9,4.8-2.5,4.9c-1.7,0.1-2.2-0.8-2.7-4.9c-2,0.8-4,1.6-6.1,2.5c1.4,1.7,3.7,3,1.8,5.1c-2.2,2.4-3.7-0.1-5.5-1.5
		c-0.9,2.2-1.7,4.1-2.5,6.2c2.2,0.2,4.7-0.5,4.8,2.4c0.1,3.1-2.6,2.5-4.9,2.8C85.8,25.1,86.6,27,87.4,29.1z M112.1,70
		c-1.8,0-3.2,0-4.7,0c-4,0-5.1-0.6-5.2-2.4c0-1.9,1.1-2.5,5.1-2.5c1.5,0,3,0,4.7,0c-0.3-1.4-0.6-2.7-0.8-4c-0.1-0.7-0.5-1-1.3-1
		c-1.6,0.1-3.3,0-4.9,0c-1.7,0-2.8-1-2.8-2.5c0-1.5,1-2.4,2.8-2.4c1,0,2,0,3.4,0c-2.5-3.5-5.4-5.1-9.3-4.9c-3.4,0.2-6,1.8-8.1,4.9
		c0.9,0,1.4,0,2,0c0.6,0,1.2,0,1.7,0c1.4,0.1,2.4,1.1,2.5,2.4c0,1.3-0.9,2.4-2.3,2.5c-0.8,0.1-1.6,0-2.5,0c-4.4,0-4.4,0-4.9,4.4
		c0,0.1,0,0.3,0,0.6c2.3,0,4.7-0.1,7,0.1c0.8,0.1,1.9,0.6,2.4,1.3C98,68,96.8,70,94.7,70c-2.4,0.1-4.7,0-7.3,0
		c0.3,1.5,0.6,2.8,1,4.1c0.1,0.4,0.7,0.8,1.1,0.8c1.6,0.1,3.3,0,4.9,0c1.8,0,2.9,1.1,2.9,2.5c0,1.4-1.2,2.4-2.9,2.4c-1,0-2,0-3.4,0
		c2.5,3.5,5.5,5.2,9.5,4.9c3.3-0.2,5.9-1.8,7.9-4.9c-1.3,0-2.3,0-3.3,0c-1.8,0-2.9-1-2.9-2.5c0-1.5,1.1-2.4,2.9-2.4
		c1.9,0,3.9,0,5.9,0C111.4,73.4,111.8,71.8,112.1,70z M99.9,40.3c-2.4,0-4.7,0-7.1,0c-1.8,0-2.9,1-2.9,2.5c0,1.4,1.1,2.4,2.9,2.4
		c4.7,0,9.4,0,14.1,0c1.8,0,2.9-1,2.9-2.5c0-1.5-1-2.4-2.8-2.4C104.5,40.2,102.2,40.3,99.9,40.3z"/>
	<path class="st2" d="M15.5,72.6c0,6.2,0,12.4,0,18.6c0,0.5,0,1,0,1.5c-0.2,1.3-0.9,2-2.2,2.1c-1.3,0.1-2.2-0.5-2.6-1.7
		c-0.2-0.5-0.2-1.1-0.2-1.7c0-12.6,0-25.2,0-37.8c0-0.3,0-0.7,0-1c0.1-1.5,1.2-2.4,2.6-2.4c1.4,0.1,2.3,1,2.3,2.4
		c0.1,1.5,0,2.9,0,4.4C15.5,62.2,15.5,67.4,15.5,72.6z"/>
	<path class="st2" d="M40.3,72.6c0-6.2,0-12.5,0-18.7c0-0.5,0-1.1,0.1-1.6c0.2-1.3,1-2,2.3-2c1.3,0,2.1,0.6,2.4,1.8
		c0.1,0.5,0.1,1.1,0.1,1.6c0,12.6,0,25.2,0,37.8c0,0.6,0,1.2-0.2,1.7c-0.4,1.1-1.2,1.7-2.4,1.7c-1.2-0.1-2-0.7-2.2-1.9
		c-0.1-0.6-0.1-1.2-0.1-1.7C40.3,84.9,40.3,78.7,40.3,72.6z"/>
	<path class="st2" d="M28,65.1c1.5,0,3.1,0,4.6,0c1.6,0,2.7,1,2.7,2.4c0,1.5-1,2.5-2.7,2.5c-3.1,0-6.3,0-9.4,0
		c-1.7,0-2.8-1.1-2.7-2.6c0.1-1.4,1.1-2.3,2.7-2.4C24.8,65.1,26.4,65.1,28,65.1z"/>
	<path class="st2" d="M27.9,79.9c-0.9,0-1.7,0-2.6,0c-1.4-0.1-2.3-1.1-2.3-2.5c0-1.3,0.9-2.4,2.4-2.4c1.7-0.1,3.4-0.1,5.1,0
		c1.5,0.1,2.5,1.2,2.4,2.5c0,1.3-1.1,2.3-2.5,2.4C29.6,80,28.7,79.9,27.9,79.9z"/>
	<path class="st2" d="M105.1,17.6c-0.4,0.9-0.6,1.5-1,2c-0.7,0.9-1.6,1.7-2.4,2.5c-1.1,1-2.5,1-3.5,0c-1-1-1-2.4,0-3.5
		c0.8-0.9,1.6-1.9,2.6-2.5c0.7-0.4,1.9-0.6,2.6-0.4C104,16,104.5,17,105.1,17.6z"/>
</g>
</svg>
