<?xml version="1.0" encoding="utf-8"?>
<!-- Generator: Adobe Illustrator 24.3.0, SVG Export Plug-In . SVG Version: 6.00 Build 0)  -->
<svg version="1.1" id="Layer_1" xmlns="http://www.w3.org/2000/svg" xmlns:xlink="http://www.w3.org/1999/xlink" x="0px" y="0px"
	 viewBox="0 0 150 150" style="enable-background:new 0 0 150 150;" xml:space="preserve">
<style type="text/css">
	.st0{fill:#CDEEFD;}
	.st1{fill:#111224;}
	.st2{fill:#005BAB;}
</style>
<path class="st0" d="M1465.3,1556.3c-2.4-0.2-4.3-1.3-4.4-4.1c-0.1-6.7,1.6-10,4.9-9.9c0.2,0,0.3,0,0.5,0c2.2,0.5,4.3,2.1,3.2,4
	C1467.7,1549.5,1473.1,1555.7,1465.3,1556.3z M1465.5,1554.4c1.3-0.1,2.3-0.6,2.3-2.1c-0.1-1.7-1.5-2.1-2.8-2.4c-1.6-0.4-2,0.8-2,2
	C1463,1553.5,1464,1554.2,1465.5,1554.4z M1467.8,1546.5c0-1.4-0.6-2.2-2.1-2.2c-0.9,0-1.6,0.4-1.7,1.4c-0.2,1.4,0.9,2.1,2,2.5
	C1467.3,1548.5,1467.6,1547.5,1467.8,1546.5z"/>
<path class="st0" d="M1455.8,1556.6c-0.5-2.9-1.8-4.2-4.6-3.6c-0.7,0.2-1.7,0.3-2.1-0.8c-0.4-1.1,0.1-1.5,1.2-2.1
	c2.1-1.2,2.1-3.9,3.2-5.8c0.6-1,1-2.2,2.5-1.9c1.4,0.3,0.9,1.6,0.8,2.5C1456.4,1548.6,1458.4,1552.5,1455.8,1556.6z"/>
<path class="st1" d="M1465.5,1554.4c-1.5-0.1-2.6-0.8-2.5-2.4c0-1.2,0.4-2.4,2-2c1.2,0.3,2.7,0.7,2.8,2.4
	C1467.8,1553.7,1466.8,1554.2,1465.5,1554.4z"/>
<path class="st1" d="M1467.8,1546.5c-0.2,1-0.5,2.1-1.8,1.7c-1.1-0.4-2.1-1-2-2.5c0.1-1,0.8-1.4,1.7-1.4
	C1467.2,1544.3,1467.8,1545,1467.8,1546.5z"/>
<polygon class="st2" points="1346.8,29.4 1346.9,29.6 1346.6,29.6 "/>
<g>
	<path class="st2" d="M149.4,35.5c-0.3,1.3-0.6,2.5-1,3.8c-1.3,4.2-3.8,7.6-7,10.5c-0.8,0.7-1,1.3-1,2.4c0.2,9.8-7.8,18.5-17.6,19.1
		c-9.1,0.6-15.9-6.9-14.6-16.2c1.3-9.7,10.8-17.2,20.5-16c1,0.1,2,0.3,2.9,0.8c1,0.5,1.6,0.2,2.2-0.6c0.4-0.5,0.8-1,1.2-1.5
		c3.3-4.8,1.1-9.5-4.8-10c-4.3-0.4-8.4,0.4-12.5,1.6c-2.8,0.9-5.6,1.8-8.4,2.9c-3.1,1.2-4.6,3.7-4,7c1.7,8.6,0.2,16.6-4.6,24.1
		c-1.9,2.9-2.3,6.2-1.9,9.7c4.3-0.8,8.6-0.7,12.7,0.6c8.7,2.9,14.4,8.7,17,17.4c0.6,2,0.1,3.2-1.3,3.6c-1.4,0.4-2.3-0.4-2.9-2.3
		c-2.5-8-7.8-13.1-16-15C95.3,74.4,82.8,84.8,83,98.4c0.2,10.5,8.3,19.5,18.4,20.5c11.1,1.2,20.7-5.5,23.3-16.1
		c0.1-0.3,0.2-0.7,0.3-1c0.4-1.3,1.5-1.9,2.7-1.5c1.1,0.3,1.7,1.4,1.5,2.6c-1.2,5.9-4,10.8-8.6,14.6c-10,8.3-24.1,8-33.7-0.8
		c-0.3-0.2-0.6-0.5-1.1-0.9c-0.1,3.2-0.2,6.2-0.4,9.2c-0.2,4.8-3.1,8.6-7.4,9.9c-6.7,2-13.1-2.8-13.5-10c-0.3-5.9-0.6-11.8-1.2-17.7
		c-0.8-7.5-3.3-14.5-7.5-20.8c-3.2-4.8-5-9.9-4.8-15.7c0.1-3-0.9-5.7-2.4-8.2c-3.6-5.8-5.1-12.1-4.7-18.8c0.1-1.6,0.4-3.3,0.7-4.9
		c0.3-2.6-0.8-5.1-3.1-6.2c-6.3-2.7-12.7-5-19.7-5c-1.4,0-2.9,0.2-4.3,0.6c-3.3,1-4.7,3.9-3.6,7.2c0.3,0.8,0.7,1.5,1.1,2.2
		c1.6,2.4,1.8,2.5,4.5,1.7c6.9-1.9,14.9,1.4,19.3,8C41.8,51.9,43,57,41,62.3c-2.6,7.3-10.4,10.6-18.3,8c-8-2.7-13.3-10.1-13.2-18.6
		c0-0.6-0.4-1.5-0.9-1.9C4,45.6,1,40.6,0.6,34.2c-0.5-9.6,6.3-17.6,15.9-19.1c7.1-1.1,13.9,0.2,20.6,2.2c2.6,0.8,5.2,1.7,7.8,2.8
		c4.9,2,9.5,1.6,14.1-1c9.8-5.6,19.8-5.9,30-1.1c0.8,0.4,1.5,0.8,2.3,1.3c4.3,2.5,8.7,2.8,13.2,1c5.5-2.2,11.1-4,17-5
		c4-0.6,8-0.8,12-0.1c0.1,0,0.3,0,0.4,0.1c1.4,0.3,2.2,1.3,2,2.4c-0.1,1.3-1.2,2.1-2.6,1.9c-8.8-1.4-17,1-25.1,4
		c-3.8,1.4-7.6,2.9-11.7,2.1c-2.4-0.5-5-1.2-7.1-2.4c-9.7-5.5-19.3-5.6-29,0c-5.3,3-10.9,3.4-16.6,1.2c-5.7-2.2-11.5-4.2-17.5-5
		c-3.6-0.5-7.1-0.5-10.7,0.4C7,22,2.7,30.7,6.1,39c1.1,2.7,2.8,4.9,4.9,7c0.8-1.1,1.6-2.2,2.4-3.3c-0.7-0.9-1.4-1.7-2-2.6
		C9.1,36.6,8.1,32.9,10,29c1.9-3.9,5.5-5.4,9.6-5.8c6.4-0.5,12.5,1.3,18.5,3.3c1.3,0.5,2.6,1,3.9,1.5c5.1,2.1,7.7,6.7,6.7,12.1
		c-1.4,7.3-0.2,14.1,3.7,20.3c2.1,3.3,3,6.9,2.9,10.8c-0.1,4.3,1.2,8.1,3.5,11.8c1.9,3.1,3.6,6.4,5.2,9.7c2.5,5.2,7.4,7.8,12.9,7
		c1.1-0.2,1.7-0.5,1.7-1.9C79,87.3,84,79.6,93.4,74.9c0.8-0.4,1.2-0.8,1.1-1.7c0-1.5,0-3,0.1-4.5c0.2-2.8,1.1-5.4,2.6-7.8
		c4.1-6.4,5.4-13.4,3.9-20.9c-1-5.4,1.5-9.8,6.5-11.9c6.3-2.5,12.6-4.7,19.5-4.9c2.1-0.1,4.4,0.1,6.5,0.7c5.9,1.7,8.8,7.4,6.5,13.2
		c-0.8,2-2.2,3.8-3.4,5.8c0.6,0.8,1.4,1.9,2.1,2.9c6.3-5.3,8.5-14.7,3.1-21.3c-0.3-0.3-0.6-0.6-0.9-1c-0.9-1.1-0.9-2.4,0.1-3.2
		c0.9-0.8,2.1-0.7,3.1,0.3c2.5,2.5,4.1,5.6,4.8,9.1c0.1,0.5,0.2,0.9,0.3,1.4C149.4,32.6,149.4,34,149.4,35.5z M37.6,57.3
		c0-6.8-5.8-13.1-12.6-14c-6.6-0.8-11.3,3.5-11,10.2c0.3,6.3,5.8,12.1,12.4,13.3C32.5,67.7,37.6,63.5,37.6,57.3z M112.4,57.2
		c-0.1,6.1,4.8,10.5,10.8,9.6c6.3-1,10.5-4.6,12.3-10.7c2.1-6.9-2.2-13-9-13C119.2,43.2,112.5,49.8,112.4,57.2z M68.4,113.5
		c0.2,4.2,0.2,8.3,0.7,12.2c0.3,3.1,3,5.3,6,5.2c3-0.1,5.4-2.2,5.9-5.2c0.2-1.1,0-2.2,0-3.4c-1.4,0.3-2.8,0.7-4.3,1
		c-1.4,0.3-2.6-0.3-2.9-1.5c-0.3-1.3,0.4-2.3,1.9-2.7c1.1-0.3,2.3-0.6,3.4-0.8c2.2-0.5,2.2-0.5,2.3-2.7c0.1-1.8,0.6-3.7,0.2-5.3
		c-0.5-2.3-1.7-4.4-2.6-6.6c-4.1,0.9-8,0.5-12-1.5c0.3,2.2,0.6,4.2,0.9,6.2c0,0.3,0.6,0.6,0.9,0.7c1.4,0.4,2.9,0.7,4.4,1.1
		c1.7,0.4,2.5,1.4,2.2,2.7c-0.3,1.4-1.5,2-3.2,1.6C71.1,114.2,69.8,113.9,68.4,113.5z"/>
	<path class="st2" d="M75,81.6c0.9-1.6,1.7-2.8,2.3-4.1c0.8-1.7,1.6-3.5,2-5.3c1-4.1,3.2-7.6,6-10.6c0.4-0.4,0.7-0.9,1.1-1.3
		c-4.9-7.2-17.4-7.2-22.9-0.1c0.8,0.9,1.6,1.8,2.4,2.8c0.7,1,0.6,2.3-0.3,3c-1,0.8-2.1,0.8-2.9-0.1c-2.6-3.1-5.4-6.2-7.5-9.6
		c-2.8-4.6-3.1-9.7-2.3-15c0.3-2.2,0.3-4.4,0.1-6.6c-0.2-2.3,0.9-4.3,3.1-5.1c2.9-1.1,5.7-2.4,8.5-3.7c7.3-3.5,14.4-3.3,21.6,0.4
		c2.3,1.2,4.8,2.2,7.3,3.1c2.6,0.9,3.6,2.7,3.4,5.5c-0.2,2.1-0.2,4.3,0.2,6.3c1.2,7.2-0.4,13.7-5.1,19.3c-0.5,0.6-0.9,1.1-1.4,1.6
		c-3.7,3.7-6.4,8-7.8,13.2c-0.8,2.8-2.3,5.5-3.9,8c-2,3.1-5.7,3.1-7.6,0c-1.8-2.9-3.1-6.2-4.5-9.4c-0.5-1.1,0.2-2.3,1.3-2.7
		c1.2-0.4,2.3,0.1,2.8,1.3c0.8,1.8,1.4,3.7,2.2,5.5C73.5,79.2,74.2,80.2,75,81.6z M57.8,34c-0.2,3-0.4,6-0.7,9
		c-0.5,4.6,0.2,9,2.8,12.9c0.2,0.3,0.5,0.6,0.8,0.9c7.3-7.7,20.1-8.9,28.8,0c3-3.9,4.1-8.2,3.5-13c-0.4-3.3-1.1-6.6-0.4-9.5
		c-3.3-1.6-6.4-3.1-9.4-4.6c-5.4-2.6-10.7-2.6-16.1-0.1C63.9,31.1,60.7,32.6,57.8,34z"/>
	<path class="st2" d="M106.6,85.6c1.7-2.6,2.5-3.2,3.7-2.6c1.3,0.6,1.4,1.7,0.4,4.6c0.3,0.1,0.6,0.2,0.9,0.2
		c4.2,0.7,7.6,4.1,8.1,8.2c0.5,4.5-1.8,8.6-5.9,10.3c-0.9,0.4-1.4,0.8-1.8,1.7c-1.7,3.5-5.9,4.9-9.4,3.3c-0.4-0.2-0.8-0.4-1.3-0.7
		c-0.3,0.8-0.7,1.4-1,2.1c-0.7,1.4-1.7,1.9-2.9,1.4c-1.2-0.5-1.6-1.7-1-3.2c0.2-0.6,0.5-1.2,0.8-2c-0.4-0.1-0.7-0.2-1-0.3
		c-4-0.9-7.1-4.2-7.6-8.1c-0.6-4.4,1.4-8.2,5.1-10.2c0.5-0.3,1-0.6,1.2-1.1C97.1,84,101.5,82.5,106.6,85.6z M115.5,97.4
		c0-3-2.3-5.4-5.3-5.3c-2.5,0-4.4-0.6-5.9-2.6c-0.7-1-1.9-1.4-3-0.9c-0.8,0.4-1.8,1.3-2,2.2c-0.5,1.7-1.4,2.8-3,3.4
		c-2.5,1-3.7,3.5-3.2,6.1c0.5,2.5,2.6,4.3,5.3,4.3c2.1,0,3.8,0.6,5.3,2.1c1.6,1.6,4,1,4.8-1.2c0.6-1.6,1.5-2.5,3.2-3
		C114,101.9,115.5,99.8,115.5,97.4z"/>
	<path class="st2" d="M101.1,98.5c0,1.2-1,2.2-2.3,2.1c-1.2,0-2.1-1-2.1-2.2c0-1.2,1.1-2.2,2.3-2.2
		C100.2,96.4,101.1,97.4,101.1,98.5z"/>
	<path class="st2" d="M103.2,102.1c0-1.3,1-2.2,2.2-2.1c1.2,0,2.1,1,2.1,2.2c0,1.1-1,2.2-2.1,2.2
		C104.1,104.3,103.1,103.3,103.2,102.1z"/>
</g>
</svg>
