<?xml version="1.0" encoding="utf-8"?>
<!-- Generator: Adobe Illustrator 24.3.0, SVG Export Plug-In . SVG Version: 6.00 Build 0)  -->
<svg version="1.1" id="Layer_1" xmlns="http://www.w3.org/2000/svg" xmlns:xlink="http://www.w3.org/1999/xlink" x="0px" y="0px"
	 viewBox="0 0 150 150" style="enable-background:new 0 0 150 150;" xml:space="preserve">
<style type="text/css">
	.st0{fill:#CDEEFD;}
	.st1{fill:#111224;}
	.st2{fill:#005BAB;}
</style>
<path class="st0" d="M1465.3,1556.3c-2.4-0.2-4.3-1.3-4.4-4.1c-0.1-6.7,1.6-10,4.9-9.9c0.2,0,0.3,0,0.5,0c2.2,0.5,4.3,2.1,3.2,4
	C1467.7,1549.5,1473.1,1555.7,1465.3,1556.3z M1465.5,1554.4c1.3-0.1,2.3-0.6,2.3-2.1c-0.1-1.7-1.5-2.1-2.8-2.4c-1.6-0.4-2,0.8-2,2
	C1463,1553.5,1464,1554.2,1465.5,1554.4z M1467.8,1546.5c0-1.4-0.6-2.2-2.1-2.2c-0.9,0-1.6,0.4-1.7,1.4c-0.2,1.4,0.9,2.1,2,2.5
	C1467.3,1548.5,1467.6,1547.5,1467.8,1546.5z"/>
<path class="st0" d="M1455.8,1556.6c-0.5-2.9-1.8-4.2-4.6-3.6c-0.7,0.2-1.7,0.3-2.1-0.8c-0.4-1.1,0.1-1.5,1.2-2.1
	c2.1-1.2,2.1-3.9,3.2-5.8c0.6-1,1-2.2,2.5-1.9c1.4,0.3,0.9,1.6,0.8,2.5C1456.4,1548.6,1458.4,1552.5,1455.8,1556.6z"/>
<path class="st1" d="M1465.5,1554.4c-1.5-0.1-2.6-0.8-2.5-2.4c0-1.2,0.4-2.4,2-2c1.2,0.3,2.7,0.7,2.8,2.4
	C1467.8,1553.7,1466.8,1554.2,1465.5,1554.4z"/>
<path class="st1" d="M1467.8,1546.5c-0.2,1-0.5,2.1-1.8,1.7c-1.1-0.4-2.1-1-2-2.5c0.1-1,0.8-1.4,1.7-1.4
	C1467.2,1544.3,1467.8,1545,1467.8,1546.5z"/>
<polygon class="st2" points="1346.8,29.4 1346.9,29.6 1346.6,29.6 "/>
<g>
	<path class="st2" d="M139,72.4l-0.1-0.1l0,0l-0.4-0.6l-0.3-0.5l0,0l-0.1-0.2c-3.1-5.1-6.7-9.8-11-14c-4.5-4.5-9.6-8.5-15.1-11.6
		l-0.1-0.1l0,0l-0.8-0.4l-0.4-0.2l0,0l-0.2-0.1c-10.6-5.8-22.8-8.9-35.1-8.9h-0.3v0l-0.5,0H74v0l-0.2,0c-12.2,0.3-24.2,3.7-34.7,9.7
		L39,45.5l0,0l-0.6,0.3l-0.6,0.3l0,0l-0.2,0.1c-4.9,3-9.5,6.6-13.7,10.8c-4.5,4.5-8.3,9.4-11.5,14.8L12.5,72l0,0l-0.2,0.4l-0.4,0.7
		l0,0l-0.1,0.2c-5.8,10.5-9,22.5-9.1,34.7c0,0.6,0.2,1.1,0.6,1.5c0.4,0.4,0.9,0.6,1.5,0.6h25.6c1.1,0,2.1-0.9,2.1-2.1
		c0.1-6.9,1.9-13.8,5.2-19.9l0.4-0.7l0.4-0.7c3.5-6,8.4-11,14.3-14.7l0.7-0.4l0.7-0.4c6-3.5,12.9-5.5,19.9-5.8l0.9,0h0.8
		c7,0,14,1.7,20.2,5l0.7,0.4l0.7,0.4c6.2,3.6,11.4,8.7,15.2,14.8l0.4,0.6l0.4,0.7c3.6,6.3,5.5,13.4,5.6,20.7c0,1.1,1,2.1,2.1,2.1
		h25.6c0.6,0,1.1-0.2,1.5-0.6c0.4-0.4,0.6-0.9,0.6-1.5C148.5,95.5,145.2,83.2,139,72.4z M29.5,107.2H5.6c0.2-10.9,3-21.6,8-31.2
		l20.8,12C31.4,93.9,29.8,100.5,29.5,107.2z M36.6,84.1l-20.8-12c2.9-4.7,6.3-9,10.2-13c3.6-3.6,7.6-6.8,11.8-9.5l12,20.8
		C44.6,73.9,40.1,78.6,36.6,84.1z M72.4,62.6c-6.5,0.5-12.9,2.3-18.6,5.4l-12-20.8c9.3-5.1,19.8-8.1,30.6-8.6L72.4,62.6z M77,62.6
		l0-23.9c10.8,0.2,21.5,2.9,31,7.9L96,67.3C90.1,64.4,83.5,62.7,77,62.6z M99.9,69.5l12-20.8c4.8,2.9,9.2,6.4,13.2,10.4
		c3.7,3.7,7,7.8,9.7,12.2l-20.8,12C110.4,77.7,105.6,73,99.9,69.5z M121.7,107.2c-0.2-7-2-13.9-5.3-20l20.8-12
		c5.3,9.8,8.2,20.8,8.5,32H121.7z"/>
	<g>
		<g>
			<path class="st2" d="M69.5,100.3L92.6,55c0.2-0.5,0.8-0.7,1.3-0.4c0.4,0.2,0.6,0.8,0.5,1.2L75.5,103c-0.7,1.7-2.6,2.5-4.3,1.9
				c-1.7-0.7-2.5-2.6-1.9-4.3C69.4,100.5,69.4,100.4,69.5,100.3z"/>
		</g>
		<g>
			<ellipse transform="matrix(0.507 -0.862 0.862 0.507 -51.8672 112.6033)" class="st2" cx="72.5" cy="101.6" rx="6.4" ry="6.4"/>
		</g>
	</g>
	<g>
		<g>
			<path class="st2" d="M6,74.6l-0.3,0.8l-3.8,0.8l3.1,1.2L4.7,78l-4.4-1.7l0.3-0.8l3.9-0.8l-3.1-1.2l0.3-0.8L6,74.6z"/>
			<path class="st2" d="M5.8,69.4c0.4,0.2,0.8,0.4,1,0.7c0.2,0.3,0.4,0.6,0.4,0.9c0,0.3,0,0.7-0.2,1c-0.2,0.3-0.4,0.6-0.7,0.8
				c-0.3,0.2-0.6,0.3-1,0.3c-0.4,0-0.8-0.1-1.2-0.3L4,72.9c-0.4-0.2-0.7-0.4-1-0.7c-0.3-0.3-0.4-0.6-0.4-1c0-0.3,0-0.7,0.2-1
				c0.2-0.3,0.4-0.6,0.7-0.8C3.7,69.1,4,69,4.4,69c0.4,0,0.8,0.1,1.2,0.3L5.8,69.4z M5.3,70.1c-0.5-0.2-0.9-0.3-1.2-0.2
				c-0.3,0.1-0.6,0.3-0.7,0.6c-0.1,0.3-0.1,0.6,0,0.9c0.2,0.3,0.5,0.5,0.9,0.8l0.2,0.1c0.5,0.2,0.9,0.3,1.2,0.2
				c0.3-0.1,0.6-0.3,0.7-0.6c0.1-0.3,0.1-0.6,0-0.9c-0.2-0.3-0.5-0.5-1-0.8L5.3,70.1z"/>
			<path class="st2" d="M7.4,67.3L7,68.1L8.6,69l-0.4,0.7l-4.1-2.2L4.8,66c0.3-0.5,0.6-0.8,0.9-0.9C6.1,65,6.4,65,6.9,65.2
				c0.3,0.1,0.5,0.3,0.6,0.6c0.1,0.2,0.2,0.5,0.1,0.8l2.2,0l0,0l-0.4,0.8L7.4,67.3z M6.4,67.8l0.4-0.7c0.1-0.2,0.2-0.5,0.1-0.7
				c-0.1-0.2-0.2-0.4-0.4-0.5c-0.2-0.1-0.4-0.1-0.6-0.1c-0.2,0.1-0.3,0.2-0.5,0.5L5,67.1L6.4,67.8z"/>
			<path class="st2" d="M6.6,62.8l3.8,0.7l-2.4-3l0.5-0.9l4,2.4l-0.4,0.7l-1.3-0.8l-1.7-1.1l2.4,3.1l-0.3,0.5l-3.8-0.7l1.8,1
				l1.3,0.8l-0.4,0.7l-4-2.4L6.6,62.8z"/>
			<path class="st2" d="M13.7,58.5l-1,1.5l0.7,0.9l-0.5,0.7l-2.8-4.1l0.4-0.6l4.8,1.3l-0.5,0.7L13.7,58.5z M12.3,59.4l0.8-1.1
				l-2-0.6L12.3,59.4z"/>
			<path class="st2" d="M15.6,56.7l1.3-1.7l0.5,0.4l-1.8,2.3L12,54.8l0.5-0.6L15.6,56.7z"/>
			<path class="st2" d="M54,29.4l0.5,1.7l-0.8,0.2l-1.2-4.5l1.7-0.5c0.5-0.1,0.9-0.1,1.3,0.1c0.4,0.2,0.6,0.5,0.7,0.9
				c0.1,0.4,0.1,0.8-0.2,1.2c-0.2,0.3-0.6,0.6-1.1,0.7L54,29.4z M53.9,28.8l0.9-0.3c0.3-0.1,0.5-0.2,0.6-0.4
				c0.1-0.2,0.1-0.4,0.1-0.6c-0.1-0.2-0.2-0.4-0.4-0.5c-0.2-0.1-0.4-0.1-0.7-0.1l-1,0.3L53.9,28.8z"/>
			<path class="st2" d="M59,28.1l-0.9,0.2l0.4,1.8l-0.8,0.2l-1-4.6l1.6-0.3c0.5-0.1,1-0.1,1.3,0.1c0.3,0.2,0.6,0.5,0.7,0.9
				c0.1,0.3,0,0.6-0.1,0.8c-0.1,0.2-0.3,0.4-0.5,0.6l1.4,1.7l0,0l-0.9,0.2L59,28.1z M58,27.7l0.8-0.2c0.3-0.1,0.5-0.2,0.6-0.3
				c0.1-0.2,0.2-0.4,0.1-0.6c-0.1-0.2-0.2-0.4-0.3-0.5c-0.2-0.1-0.4-0.1-0.7-0.1l-0.8,0.2L58,27.7z"/>
			<path class="st2" d="M64.1,26.9l-1.9,0.3l0.2,1.4l2.2-0.4l0.1,0.6l-3,0.5l-0.7-4.6l3-0.5L64,25l-2.2,0.4l0.2,1.3l1.9-0.3
				L64.1,26.9z"/>
			<path class="st2" d="M65.3,28.9l-0.5-4.7l1.4-0.1c0.4,0,0.8,0,1.1,0.2c0.3,0.1,0.6,0.4,0.8,0.7c0.2,0.3,0.3,0.7,0.4,1.1l0,0.2
				c0,0.4,0,0.8-0.1,1.2c-0.1,0.4-0.4,0.6-0.7,0.9c-0.3,0.2-0.7,0.3-1.1,0.4L65.3,28.9z M65.7,24.8l0.4,3.4l0.5-0.1
				c0.4,0,0.7-0.2,0.9-0.5c0.2-0.3,0.3-0.7,0.2-1.2l0-0.3c-0.1-0.5-0.2-0.9-0.5-1.1c-0.2-0.2-0.6-0.3-1-0.3L65.7,24.8z"/>
			<path class="st2" d="M70.4,28.4l-0.8,0.1l-0.3-4.7l0.8-0.1L70.4,28.4z"/>
			<path class="st2" d="M74,27.2l-1.8,0l-0.4,1.1l-0.8,0l1.6-4.7l0.7,0l1.9,4.6l-0.8,0L74,27.2z M72.4,26.5l1.4,0L73,24.6L72.4,26.5
				z"/>
			<path class="st2" d="M75.7,28.2l0.1-4.7l1.6,0c0.5,0,0.9,0.1,1.2,0.4c0.3,0.2,0.4,0.5,0.4,1c0,0.2-0.1,0.4-0.2,0.6
				c-0.1,0.2-0.3,0.3-0.5,0.4c0.3,0.1,0.4,0.2,0.6,0.4c0.1,0.2,0.2,0.4,0.2,0.7c0,0.4-0.2,0.8-0.5,1c-0.3,0.2-0.7,0.3-1.2,0.3
				L75.7,28.2z M76.6,26.1l0,1.5l0.9,0c0.3,0,0.5,0,0.6-0.2c0.1-0.1,0.2-0.3,0.2-0.5c0-0.5-0.2-0.7-0.7-0.8L76.6,26.1z M76.6,25.5
				l0.8,0c0.3,0,0.5,0,0.6-0.2c0.1-0.1,0.2-0.3,0.2-0.5c0-0.2-0.1-0.4-0.2-0.5c-0.1-0.1-0.3-0.2-0.6-0.2l-0.8,0L76.6,25.5z"/>
			<path class="st2" d="M82.7,26.5l-1.9-0.2l-0.1,1.4l2.2,0.2l-0.1,0.6l-3-0.2l0.4-4.7l3,0.2l-0.1,0.7L81,24.4l-0.1,1.3l1.9,0.2
				L82.7,26.5z"/>
			<path class="st2" d="M87.4,25.2L86,25l-0.5,4l-0.8-0.1l0.5-4l-1.4-0.2l0.1-0.6l3.7,0.5L87.4,25.2z"/>
			<path class="st2" d="M90.5,27.7l-1.9-0.4l-0.3,1.4l2.2,0.4l-0.1,0.6l-3-0.6l0.9-4.6l3,0.6l-0.1,0.6L89,25.4l-0.2,1.3l1.9,0.4
				L90.5,27.7z"/>
			<path class="st2" d="M93.7,29.3c0-0.2,0-0.4-0.1-0.5c-0.1-0.1-0.3-0.3-0.7-0.5c-0.3-0.2-0.6-0.4-0.8-0.6
				c-0.4-0.4-0.5-0.7-0.4-1.2c0.1-0.4,0.3-0.6,0.7-0.8c0.4-0.2,0.8-0.2,1.2-0.1c0.3,0.1,0.6,0.2,0.8,0.4c0.2,0.2,0.4,0.4,0.5,0.6
				c0.1,0.2,0.1,0.5,0,0.8l-0.8-0.2c0.1-0.2,0-0.4-0.1-0.6c-0.1-0.2-0.3-0.3-0.6-0.4c-0.3-0.1-0.5-0.1-0.6,0
				c-0.2,0.1-0.3,0.2-0.3,0.4c0,0.2,0,0.3,0.1,0.5c0.1,0.1,0.4,0.3,0.7,0.5c0.3,0.2,0.6,0.4,0.8,0.6c0.2,0.2,0.3,0.4,0.4,0.6
				c0.1,0.2,0.1,0.4,0,0.6c-0.1,0.4-0.3,0.6-0.7,0.8c-0.3,0.2-0.8,0.2-1.3,0.1c-0.3-0.1-0.6-0.2-0.9-0.4c-0.2-0.2-0.4-0.4-0.5-0.7
				c-0.1-0.3-0.1-0.5,0-0.8l0.8,0.2c-0.1,0.3,0,0.5,0.1,0.7c0.1,0.2,0.4,0.3,0.7,0.4c0.3,0.1,0.5,0.1,0.7,0
				C93.5,29.7,93.6,29.5,93.7,29.3z"/>
			<path class="st2" d="M131.2,53.7l3.6-3l0.9,1.1c0.3,0.3,0.4,0.7,0.5,1c0.1,0.4,0,0.7-0.1,1.1c-0.1,0.4-0.4,0.7-0.7,0.9l-0.2,0.2
				c-0.3,0.3-0.7,0.5-1.1,0.5c-0.4,0.1-0.7,0.1-1.1-0.1c-0.3-0.1-0.7-0.4-0.9-0.7L131.2,53.7z M134.8,51.8l-2.6,2.2l0.3,0.4
				c0.3,0.3,0.6,0.5,0.9,0.5c0.4,0,0.7-0.2,1.1-0.5l0.2-0.2c0.4-0.3,0.6-0.7,0.7-1c0.1-0.3,0-0.7-0.3-1L134.8,51.8z"/>
			<path class="st2" d="M134.5,57.7l-0.5-0.6l3.7-2.9l0.5,0.6L134.5,57.7z"/>
			<path class="st2" d="M137.5,60l-1-1.5l-1.1,0.3l-0.5-0.7l4.8-1.3l0.4,0.6l-2.8,4.1l-0.5-0.7L137.5,60z M137.1,58.3l0.8,1.1
				l1.2-1.7L137.1,58.3z"/>
			<path class="st2" d="M137.5,62.1l4-2.5l0.8,1.4c0.3,0.4,0.4,0.8,0.4,1.2c0,0.3-0.2,0.6-0.6,0.9c-0.2,0.1-0.4,0.2-0.6,0.2
				c-0.2,0-0.4-0.1-0.6-0.2c0.1,0.3,0.1,0.5,0,0.7c-0.1,0.2-0.2,0.4-0.5,0.5c-0.4,0.2-0.7,0.3-1.1,0.2c-0.3-0.1-0.7-0.4-0.9-0.8
				L137.5,62.1z M139.8,61.6l-1.2,0.8l0.5,0.8c0.1,0.2,0.3,0.4,0.5,0.4c0.2,0.1,0.4,0,0.6-0.1c0.4-0.3,0.5-0.6,0.2-1L139.8,61.6z
				 M140.3,61.3l0.4,0.7c0.1,0.2,0.3,0.4,0.5,0.4c0.2,0.1,0.3,0,0.5-0.1c0.2-0.1,0.3-0.3,0.3-0.4c0-0.2,0-0.4-0.2-0.6l-0.4-0.7
				L140.3,61.3z"/>
			<path class="st2" d="M142.8,66.9l-0.9-1.7l-1.3,0.7l1.1,2l-0.6,0.3l-1.5-2.7l4.1-2.3l1.5,2.7l-0.6,0.3l-1.1-1.9l-1.1,0.6l0.9,1.7
				L142.8,66.9z"/>
			<path class="st2" d="M146.6,70.1l-0.6-1.3l-3.6,1.8l-0.4-0.7l3.6-1.8l-0.6-1.3l0.6-0.3l1.6,3.3L146.6,70.1z"/>
			<path class="st2" d="M146.2,74.1l-0.8-1.8l-1.3,0.6l0.9,2.1l-0.6,0.3l-1.2-2.8l4.3-1.8l1.2,2.8l-0.6,0.3l-0.9-2l-1.2,0.5l0.8,1.8
				L146.2,74.1z"/>
			<path class="st2" d="M146.6,77.6c0.2-0.1,0.3-0.2,0.4-0.4c0.1-0.2,0.1-0.5,0-0.9c0-0.4,0-0.7,0-1c0.1-0.5,0.4-0.8,0.8-1
				c0.4-0.1,0.7-0.1,1,0.1c0.3,0.2,0.6,0.5,0.8,1c0.1,0.3,0.2,0.6,0.1,0.9c0,0.3-0.1,0.5-0.3,0.7c-0.2,0.2-0.4,0.4-0.6,0.5l-0.3-0.8
				c0.2-0.1,0.4-0.2,0.5-0.4c0.1-0.2,0.1-0.4,0-0.7c-0.1-0.2-0.2-0.4-0.4-0.5c-0.2-0.1-0.3-0.1-0.5,0c-0.2,0.1-0.3,0.2-0.3,0.4
				c-0.1,0.2-0.1,0.5,0,0.9c0,0.4,0,0.7,0,1c-0.1,0.3-0.1,0.5-0.3,0.6c-0.1,0.2-0.3,0.3-0.5,0.4c-0.4,0.1-0.7,0.1-1-0.1
				c-0.3-0.2-0.6-0.5-0.7-1c-0.1-0.3-0.2-0.6-0.1-0.9c0-0.3,0.1-0.6,0.3-0.8c0.2-0.2,0.4-0.4,0.6-0.5l0.3,0.8
				c-0.2,0.1-0.4,0.2-0.5,0.5c-0.1,0.2-0.1,0.5,0.1,0.8c0.1,0.3,0.2,0.4,0.4,0.5C146.2,77.7,146.4,77.7,146.6,77.6z"/>
		</g>
	</g>
	<g>
		<g>
			<path class="st2" d="M10.7,125.2c-0.3,0.4-0.8,0.7-1.4,0.9c-0.6,0.2-1.3,0.3-2,0.3c-0.8,0-1.4-0.2-2-0.5c-0.6-0.3-1-0.8-1.3-1.4
				c-0.3-0.6-0.5-1.4-0.5-2.2v-0.6c0-0.9,0.1-1.6,0.4-2.3c0.3-0.6,0.7-1.1,1.3-1.5c0.6-0.3,1.2-0.5,2-0.5c1,0,1.9,0.2,2.4,0.7
				c0.6,0.5,0.9,1.2,1,2.2H9c-0.1-0.5-0.3-0.9-0.5-1.1c-0.3-0.2-0.7-0.3-1.1-0.3c-0.6,0-1.1,0.2-1.4,0.7c-0.3,0.5-0.5,1.2-0.5,2.1
				v0.6c0,0.9,0.2,1.6,0.5,2.1c0.3,0.5,0.9,0.7,1.5,0.7c0.7,0,1.2-0.1,1.5-0.4V123H7.3v-1.3h3.5V125.2z"/>
			<path class="st2" d="M14,124.9h3.8v1.5h-5.7v-8.8H14V124.9z"/>
			<path class="st2" d="M25.4,117.5v5.8c0,1-0.3,1.7-0.9,2.3c-0.6,0.6-1.4,0.8-2.5,0.8c-1,0-1.8-0.3-2.4-0.8
				c-0.6-0.5-0.9-1.3-0.9-2.2v-5.9h1.8v5.8c0,0.6,0.1,1,0.4,1.3c0.3,0.3,0.7,0.4,1.1,0.4c1,0,1.5-0.5,1.6-1.6v-5.8H25.4z"/>
			<path class="st2" d="M33.8,123.4c-0.1,0.9-0.4,1.7-1,2.2c-0.6,0.5-1.5,0.8-2.5,0.8c-1.1,0-2-0.4-2.7-1.1c-0.6-0.8-1-1.8-1-3.1
				v-0.5c0-0.8,0.1-1.6,0.4-2.2c0.3-0.6,0.7-1.1,1.3-1.5c0.6-0.3,1.2-0.5,1.9-0.5c1,0,1.8,0.3,2.4,0.8c0.6,0.5,1,1.3,1.1,2.3H32
				c0-0.6-0.2-1-0.5-1.2c-0.3-0.3-0.7-0.4-1.2-0.4c-0.6,0-1.1,0.2-1.4,0.6c-0.3,0.4-0.5,1.1-0.5,2v0.7c0,0.9,0.1,1.6,0.4,2.1
				c0.3,0.4,0.7,0.7,1.4,0.7c0.6,0,1-0.1,1.3-0.4c0.3-0.3,0.4-0.7,0.5-1.2H33.8z"/>
			<path class="st2" d="M42.2,122.1c0,0.9-0.2,1.6-0.5,2.3c-0.3,0.7-0.7,1.2-1.3,1.5c-0.6,0.4-1.2,0.5-2,0.5c-0.7,0-1.4-0.2-1.9-0.5
				c-0.6-0.3-1-0.8-1.3-1.5c-0.3-0.6-0.5-1.4-0.5-2.2v-0.4c0-0.9,0.2-1.6,0.5-2.3c0.3-0.7,0.8-1.2,1.3-1.5c0.6-0.4,1.2-0.5,2-0.5
				c0.7,0,1.4,0.2,2,0.5c0.6,0.4,1,0.9,1.3,1.5c0.3,0.7,0.5,1.4,0.5,2.3V122.1z M40.3,121.7c0-0.9-0.2-1.6-0.5-2.1
				c-0.3-0.5-0.8-0.7-1.4-0.7c-0.6,0-1.1,0.2-1.4,0.7c-0.3,0.5-0.5,1.2-0.5,2.1v0.4c0,0.9,0.2,1.6,0.5,2.1c0.3,0.5,0.8,0.7,1.4,0.7
				c0.6,0,1.1-0.2,1.4-0.7c0.3-0.5,0.5-1.2,0.5-2.1V121.7z"/>
			<path class="st2" d="M48,124c0-0.3-0.1-0.6-0.4-0.8c-0.2-0.2-0.7-0.4-1.3-0.6c-0.6-0.2-1.1-0.4-1.5-0.6c-1-0.5-1.5-1.3-1.5-2.2
				c0-0.5,0.1-0.9,0.4-1.3c0.3-0.4,0.7-0.7,1.2-0.9c0.5-0.2,1.1-0.3,1.7-0.3c0.6,0,1.2,0.1,1.7,0.3c0.5,0.2,0.9,0.5,1.1,1
				c0.3,0.4,0.4,0.9,0.4,1.4H48c0-0.4-0.1-0.7-0.4-0.9c-0.3-0.2-0.6-0.3-1.1-0.3c-0.4,0-0.8,0.1-1,0.3c-0.2,0.2-0.4,0.4-0.4,0.7
				c0,0.3,0.1,0.5,0.4,0.7c0.3,0.2,0.7,0.4,1.3,0.5c1,0.3,1.8,0.7,2.3,1.2c0.5,0.5,0.7,1,0.7,1.7c0,0.8-0.3,1.4-0.9,1.8
				c-0.6,0.4-1.3,0.6-2.3,0.6c-0.7,0-1.3-0.1-1.8-0.4c-0.6-0.2-1-0.6-1.3-1c-0.3-0.4-0.4-0.9-0.4-1.5h1.8c0,1,0.6,1.5,1.7,1.5
				c0.4,0,0.8-0.1,1-0.3C47.9,124.6,48,124.3,48,124z"/>
			<path class="st2" d="M56.4,122.5h-3.5v2.4H57v1.5h-5.9v-8.8h5.9v1.5h-4.1v2.1h3.5V122.5z"/>
			<path class="st2" d="M62.9,124.9h3.8v1.5h-5.7v-8.8h1.8V124.9z"/>
			<path class="st2" d="M73.1,122.5h-3.5v2.4h4.1v1.5h-5.9v-8.8h5.9v1.5h-4.1v2.1h3.5V122.5z"/>
			<path class="st2" d="M78,124.1l2-6.6h2l-3.1,8.8H77l-3-8.8h2L78,124.1z"/>
			<path class="st2" d="M88.1,122.5h-3.5v2.4h4.1v1.5h-5.9v-8.8h5.9v1.5h-4.1v2.1h3.5V122.5z"/>
			<path class="st2" d="M91.6,124.9h3.8v1.5h-5.7v-8.8h1.8V124.9z"/>
			<path class="st2" d="M101,124c0-0.3-0.1-0.6-0.4-0.8c-0.2-0.2-0.7-0.4-1.3-0.6c-0.6-0.2-1.1-0.4-1.5-0.6c-1-0.5-1.5-1.3-1.5-2.2
				c0-0.5,0.1-0.9,0.4-1.3c0.3-0.4,0.7-0.7,1.2-0.9c0.5-0.2,1.1-0.3,1.7-0.3c0.6,0,1.2,0.1,1.7,0.3c0.5,0.2,0.9,0.5,1.1,1
				c0.3,0.4,0.4,0.9,0.4,1.4H101c0-0.4-0.1-0.7-0.4-0.9c-0.3-0.2-0.6-0.3-1.1-0.3c-0.4,0-0.8,0.1-1,0.3c-0.2,0.2-0.4,0.4-0.4,0.7
				c0,0.3,0.1,0.5,0.4,0.7c0.3,0.2,0.7,0.4,1.3,0.5c1,0.3,1.8,0.7,2.3,1.2c0.5,0.5,0.7,1,0.7,1.7c0,0.8-0.3,1.4-0.9,1.8
				c-0.6,0.4-1.3,0.6-2.3,0.6c-0.7,0-1.3-0.1-1.8-0.4c-0.6-0.2-1-0.6-1.3-1s-0.4-0.9-0.4-1.5h1.8c0,1,0.6,1.5,1.7,1.5
				c0.4,0,0.8-0.1,1-0.3C100.9,124.6,101,124.3,101,124z"/>
			<path class="st2" d="M114,123.4c-0.1,0.9-0.4,1.7-1,2.2c-0.6,0.5-1.5,0.8-2.5,0.8c-1.1,0-2-0.4-2.7-1.1c-0.6-0.8-1-1.8-1-3.1
				v-0.5c0-0.8,0.1-1.6,0.4-2.2c0.3-0.6,0.7-1.1,1.3-1.5c0.6-0.3,1.2-0.5,1.9-0.5c1,0,1.8,0.3,2.4,0.8c0.6,0.5,1,1.3,1.1,2.3h-1.8
				c0-0.6-0.2-1-0.5-1.2c-0.3-0.3-0.7-0.4-1.2-0.4c-0.6,0-1.1,0.2-1.4,0.6c-0.3,0.4-0.5,1.1-0.5,2v0.7c0,0.9,0.1,1.6,0.4,2.1
				c0.3,0.4,0.7,0.7,1.4,0.7c0.6,0,1-0.1,1.3-0.4c0.3-0.3,0.4-0.7,0.5-1.2H114z"/>
			<path class="st2" d="M122.4,126.3h-1.8v-3.8H117v3.8h-1.8v-8.8h1.8v3.6h3.5v-3.6h1.8V126.3z"/>
			<path class="st2" d="M129,124.5h-3.2l-0.6,1.8h-1.9l3.3-8.8h1.7l3.3,8.8h-1.9L129,124.5z M126.3,123h2.2l-1.1-3.3L126.3,123z"/>
			<path class="st2" d="M135.6,123.1h-1.4v3.2h-1.8v-8.8h3.3c1,0,1.8,0.2,2.4,0.7c0.6,0.5,0.8,1.1,0.8,2c0,0.6-0.1,1.1-0.4,1.5
				c-0.3,0.4-0.7,0.7-1.2,1l1.9,3.6v0.1h-1.9L135.6,123.1z M134.2,121.6h1.5c0.5,0,0.8-0.1,1.1-0.3c0.2-0.2,0.4-0.5,0.4-1
				c0-0.4-0.1-0.7-0.4-1c-0.2-0.2-0.6-0.4-1.1-0.4h-1.5V121.6z"/>
			<path class="st2" d="M146.6,119h-2.7v7.3h-1.8V119h-2.7v-1.5h7.2V119z"/>
		</g>
	</g>
</g>
</svg>
