<?xml version="1.0" encoding="utf-8"?>
<!-- Generator: Adobe Illustrator 24.3.0, SVG Export Plug-In . SVG Version: 6.00 Build 0)  -->
<svg version="1.1" id="Layer_1" xmlns="http://www.w3.org/2000/svg" xmlns:xlink="http://www.w3.org/1999/xlink" x="0px" y="0px"
	 viewBox="0 0 150 150" style="enable-background:new 0 0 150 150;" xml:space="preserve">
<style type="text/css">
	.st0{fill:#CDEEFD;}
	.st1{fill:#111224;}
	.st2{fill:#005BAB;}
	.st3{stroke:#005BAB;stroke-miterlimit:10;}
</style>
<path class="st0" d="M1465.3,1556.3c-2.4-0.2-4.3-1.3-4.4-4.1c-0.1-6.7,1.6-10,4.9-9.9c0.2,0,0.3,0,0.5,0c2.2,0.5,4.3,2.1,3.2,4
	C1467.7,1549.5,1473.1,1555.7,1465.3,1556.3z M1465.5,1554.4c1.3-0.1,2.3-0.6,2.3-2.1c-0.1-1.7-1.5-2.1-2.8-2.4c-1.6-0.4-2,0.8-2,2
	C1463,1553.5,1464,1554.2,1465.5,1554.4z M1467.8,1546.5c0-1.4-0.6-2.2-2.1-2.2c-0.9,0-1.6,0.4-1.7,1.4c-0.2,1.4,0.9,2.1,2,2.5
	C1467.3,1548.5,1467.6,1547.5,1467.8,1546.5z"/>
<path class="st0" d="M1455.8,1556.6c-0.5-2.9-1.8-4.2-4.6-3.6c-0.7,0.2-1.7,0.3-2.1-0.8c-0.4-1.1,0.1-1.5,1.2-2.1
	c2.1-1.2,2.1-3.9,3.2-5.8c0.6-1,1-2.2,2.5-1.9c1.4,0.3,0.9,1.6,0.8,2.5C1456.4,1548.6,1458.4,1552.5,1455.8,1556.6z"/>
<path class="st1" d="M1465.5,1554.4c-1.5-0.1-2.6-0.8-2.5-2.4c0-1.2,0.4-2.4,2-2c1.2,0.3,2.7,0.7,2.8,2.4
	C1467.8,1553.7,1466.8,1554.2,1465.5,1554.4z"/>
<path class="st1" d="M1467.8,1546.5c-0.2,1-0.5,2.1-1.8,1.7c-1.1-0.4-2.1-1-2-2.5c0.1-1,0.8-1.4,1.7-1.4
	C1467.2,1544.3,1467.8,1545,1467.8,1546.5z"/>
<polygon class="st2" points="1346.8,29.4 1346.9,29.6 1346.6,29.6 "/>
<g>
	<path class="st2" d="M39.7,149.1c0-1.4,0-2.8,0-4.3c8.6,0,16.9,0,25.4,0c0.3-1.5,0.5-2.8,0.8-4.2c-12.4,0-24.7,0-37.1,0
		c0-1.5,0-2.9,0-4.4c12.6,0,25.3,0,38,0c0.7-3.6,1.4-7.2,2.2-10.7c0.2-1,0.4-2,0.6-3c1.1-4,4.6-6.5,9.1-6.7
		c6.1-0.3,11-4.5,11.8-10.5c0.3-2.7,0.1-5.4,0.1-8.3c-6.1,0-12.3,0-18.6,0c0-1.3,0-2.5,0-3.6c0-1,0.8-0.7,1.4-0.7
		c6.6,0,13.1,0,19.7,0c0.5,0,1.1,0,1.6-0.1c1.1-0.2,1.7-0.8,1.8-1.9c0.1-1.2-0.5-1.9-1.6-2.2c-0.4-0.1-0.8-0.1-1.1-0.1
		c-17.5,0-35,0-52.6,0c-0.2,0-0.5,0-0.9,0.1c0,1.4,0,2.7,0,4.3c9.1,0,18.1,0,27.3,0c0,1.5,0,2.8,0,4.3c-20.7,0-41.3,0-61.9,0
		c0,4.9-0.1,9.5,0.1,14.2c0.1,2.3,1.4,4.3,3.1,5.9c3.9,3.5,5.5,7.9,5.4,13.1c-0.1,4.8,0,9.6,0,14.5c7.1,0,14.2,0,21.2,0
		c0,1.6,0,3,0,4.4c-8.5,0-17,0-25.5,0c0-6.3-0.1-12.6,0-19c0-3.9-1.2-7.2-4.1-10c-3-2.8-4.6-6.4-4.6-10.6c0-14.7,0-29.4,0-44.2
		c0-0.2,0-0.5,0.1-0.8c1.4,0,2.7,0,4.2,0c0,9.3,0,18.6,0,27.9c7.3,0,14.3,0,21.6,0c0-12.9,0-25.7,0-38.7c-7.1,0-14.2,0-21.5,0
		c0,2,0,4.1,0,6.2c-1.5,0-2.9,0-4.3,0c0-6.4,0-12.8,0-19.2c10,0,20,0,30.2,0c0,17.2,0,34.5,0,51.8c1.5,0,2.9,0,4.4,0
		c0-14.7,0-29.3,0-43.9c1.5,0,2.8,0,4.2,0c0,11.7,0,23.4,0,35.3c0.8,0,1.4,0.1,2,0.1c17.2,0,34.4,0,51.6,0c3.5,0,5.9,1.6,6.9,4.4
		c1.3,3.8-0.9,7.3-5.5,8.6c0,1.8-0.1,3.7,0,5.6c0.4,10-7.5,17.5-16.5,17.5c-2.7,0-4.4,1.6-4.9,4.2c-1.7,8.2-3.3,16.4-4.9,24.7
		C59,149.1,49.3,149.1,39.7,149.1z M27.1,45.2c-7.3,0-14.4,0-21.5,0c0,1.4,0,2.7,0,4.1c7.2,0,14.3,0,21.5,0
		C27.1,47.9,27.1,46.6,27.1,45.2z"/>
	<path class="st2" d="M57,5.5c0.9,1.7,1.7,3.1,2.5,4.5C69.9-3.4,87.9-0.8,95.4,9.5c-1,0.9-2.1,1.7-3.3,2.7c-0.4-0.4-0.8-0.8-1.1-1.2
		c-7.9-8.5-21.6-7.4-28.1,2.2c-0.6,0.9-0.7,1.6-0.1,2.6c3.9,6.8,7.6,13.6,11.4,20.4c0.3,0.6,0.6,1.2,1,2c-2.4,0-4.5,0-6.9,0
		c3.6,3.3,12.5,4.4,19,0.3c6.5-4.2,10.9-13.4,6.7-23c1.2-0.6,2.5-1.2,3.7-1.8c3.3,5.4,3.7,15.6-2.2,23.1c-3.6,4.7-8.4,7.6-14.3,8.6
		c-5.9,1-11.3-0.4-16.4-3.7c0,6.3,0,12.3,0,18.4c-0.6,0-1,0.1-1.5,0.1c-4.3,0-8.6,0-12.9,0c-1.2,0-1.6-0.3-1.6-1.5
		c0.1-6.2,0-12.4,0-18.5c0-0.6,0-1.1,0-1.9c-3.3,0-6.6,0-10.2,0C45,27.2,50.9,16.5,57,5.5z M53.5,33.8c0,0.7,0,1.4,0,2
		c0.1,6.1,0.1,12.3,0.1,18.4c0,1.1,0.3,1.5,1.4,1.4c1.3-0.1,2.6-0.1,3.9,0c1.2,0.1,1.6-0.3,1.5-1.6c0-6.1,0-12.3,0.1-18.4
		c0-0.6,0-1.1,0-1.9c2.4,0,4.7,0,7.2,0C64.1,27.2,60.6,21,57,14.5c-3.6,6.5-7.1,12.8-10.7,19.2C48.9,33.8,51.1,33.8,53.5,33.8z"/>
	<path class="st2" d="M64.9,77.4c-5.3,0-10.5,0-15.7,0c0-4.3,0-8.5,0-12.8c5.3,0,10.4,0,15.7,0C64.9,68.8,64.9,73,64.9,77.4z
		 M60.5,68.9c-1.5,0-2.9,0-4.2,0c-2.8,0-3.4,0.8-2.7,3.5c0.1,0.3,0.4,0.6,0.6,0.6c2.1,0,4.2,0,6.3,0C60.5,71.5,60.5,70.3,60.5,68.9z
		"/>
	<path class="st2" d="M20.5,32.2c0,1.4,0,2.7,0,4.1c-2.9,0-5.6,0-8.5,0c0-1.4,0-2.7,0-4.1C14.8,32.2,17.6,32.2,20.5,32.2z"/>
	<path class="st2" d="M140.2,40.5c-1.5,0.1-2.7,0.3-4.2,0.4c-0.2-1.4-0.3-2.8-0.5-4.3c1.5-0.2,2.9-0.3,4.4-0.5
		C140,37.7,140.1,39,140.2,40.5z"/>
	<path class="st2" d="M82.8,69.8c0.8-1.4,1.5-2.6,2.3-3.9c1.2,0.8,2.4,1.5,3.6,2.3c-0.7,1.2-1.4,2.4-2.1,3.6
		C85.3,71.2,84,70.5,82.8,69.8z"/>
	<path class="st2" d="M148.9,36c0,1.3,0,2.7,0,4.1c-1.4,0-2.7,0-4.1,0c-0.1-1.3-0.1-2.6-0.2-4.1C146,36,147.3,36,148.9,36z"/>
	<path class="st2" d="M131.5,41.6c-1.5,0.3-2.7,0.5-4.1,0.8c-0.3-1.4-0.6-2.7-1-4.2c1.4-0.3,2.8-0.6,4.3-0.9
		C131,38.8,131.3,40.1,131.5,41.6z"/>
	<path class="st2" d="M123,43.5c-1.4,0.4-2.6,0.8-4,1.3c-0.5-1.3-0.9-2.6-1.5-4.1c1.3-0.4,2.6-0.9,4.2-1.4
		C122.2,40.8,122.6,42.1,123,43.5z"/>
	<path class="st2" d="M113.1,42.5c0.6,1.3,1.1,2.6,1.7,4c-1.3,0.6-2.5,1.2-3.8,1.8c-0.7-1.3-1.3-2.5-2-3.8
		C110.5,43.8,111.8,43.2,113.1,42.5z"/>
	<path class="st2" d="M107.2,50.4c-1.3,0.8-2.3,1.5-3.5,2.3c-0.8-1.1-1.6-2.3-2.5-3.5c1.3-0.8,2.5-1.6,3.7-2.5
		C105.7,48.1,106.4,49.2,107.2,50.4z"/>
	<path class="st2" d="M97.4,52.1c1,1.2,1.8,2.2,2.7,3.3c-1,0.9-2,1.8-3,2.7c-1-1-1.9-2-3-3.1C95.1,54.1,96.2,53.2,97.4,52.1z"/>
	<path class="st2" d="M93.9,61.4c-0.9,1.1-1.8,2.1-2.7,3.2c-1.1-0.8-2.2-1.7-3.4-2.6c0.9-1.1,1.8-2.2,2.8-3.5
		C91.8,59.5,92.8,60.4,93.9,61.4z"/>
	<path class="st2" d="M83.2,79.7c-1.4-0.4-2.7-0.8-4.1-1.2c0.5-1.4,1-2.8,1.5-4.3c1.4,0.6,2.7,1.1,4,1.7
		C84.1,77.2,83.7,78.4,83.2,79.7z"/>
	<path class="st2" d="M14.7,105.7c-1.4,0-2.8,0-4.1,0c0-1.4,0-2.7,0-4.1c1.4,0,2.7,0,4.1,0C14.7,102.9,14.7,104.2,14.7,105.7z"/>
	<path class="st2" d="M23.4,101.5c0,1.4,0,2.7,0,4.1c-1.4,0-2.7,0-4.2,0c0-1.3,0-2.6,0-4.1C20.6,101.5,21.9,101.5,23.4,101.5z"/>
	<path class="st2" d="M20.1,140.4c0-1.4,0-2.8,0-4.2c1.4,0,2.7,0,4.2,0c0,1.3,0,2.7,0,4.2C22.9,140.4,21.6,140.4,20.1,140.4z"/>
</g>
<g>
	<line class="st3" x1="77.1" y1="13.2" x2="77.1" y2="23.7"/>
	<line class="st3" x1="87.1" y1="22.9" x2="76.7" y2="22.9"/>
</g>
</svg>
