<?xml version="1.0" encoding="utf-8"?>
<!-- Generator: Adobe Illustrator 24.3.0, SVG Export Plug-In . SVG Version: 6.00 Build 0)  -->
<svg version="1.1" id="Layer_1" xmlns="http://www.w3.org/2000/svg" xmlns:xlink="http://www.w3.org/1999/xlink" x="0px" y="0px"
	 viewBox="0 0 150 150" style="enable-background:new 0 0 150 150;" xml:space="preserve">
<style type="text/css">
	.st0{fill:#CDEEFD;}
	.st1{fill:#111224;}
	.st2{fill:#005BAB;}
</style>
<path class="st0" d="M1465.3,1556.3c-2.4-0.2-4.3-1.3-4.4-4.1c-0.1-6.7,1.6-10,4.9-9.9c0.2,0,0.3,0,0.5,0c2.2,0.5,4.3,2.1,3.2,4
	C1467.7,1549.5,1473.1,1555.7,1465.3,1556.3z M1465.5,1554.4c1.3-0.1,2.3-0.6,2.3-2.1c-0.1-1.7-1.5-2.1-2.8-2.4c-1.6-0.4-2,0.8-2,2
	C1463,1553.5,1464,1554.2,1465.5,1554.4z M1467.8,1546.5c0-1.4-0.6-2.2-2.1-2.2c-0.9,0-1.6,0.4-1.7,1.4c-0.2,1.4,0.9,2.1,2,2.5
	C1467.3,1548.5,1467.6,1547.5,1467.8,1546.5z"/>
<path class="st0" d="M1455.8,1556.6c-0.5-2.9-1.8-4.2-4.6-3.6c-0.7,0.2-1.7,0.3-2.1-0.8c-0.4-1.1,0.1-1.5,1.2-2.1
	c2.1-1.2,2.1-3.9,3.2-5.8c0.6-1,1-2.2,2.5-1.9c1.4,0.3,0.9,1.6,0.8,2.5C1456.4,1548.6,1458.4,1552.5,1455.8,1556.6z"/>
<path class="st1" d="M1465.5,1554.4c-1.5-0.1-2.6-0.8-2.5-2.4c0-1.2,0.4-2.4,2-2c1.2,0.3,2.7,0.7,2.8,2.4
	C1467.8,1553.7,1466.8,1554.2,1465.5,1554.4z"/>
<path class="st1" d="M1467.8,1546.5c-0.2,1-0.5,2.1-1.8,1.7c-1.1-0.4-2.1-1-2-2.5c0.1-1,0.8-1.4,1.7-1.4
	C1467.2,1544.3,1467.8,1545,1467.8,1546.5z"/>
<g>
	<path class="st2" d="M39.1,87.3C29.1,56,56.3,29.2,87.1,39c-0.4-1.8-0.9-3.6-1.3-5.4c-1.9-11.1,0.1-21.3,6.9-30.4
		C94,1.5,96,1,97.8,1.8c1.7,0.8,2.7,2.7,2.2,4.5c-0.2,0.6-0.5,1.3-0.9,1.8c-7,9.8-7.6,20.3-3,31.2c1.5,3.7,4.3,6.4,7.9,8
		c7.1,3.1,14.6,4.5,22.3,3.1c4.1-0.7,7.7-2.4,11-4.9c1.6-1.2,3.6-1.1,5,0.1c1.4,1.2,1.9,3.3,0.9,4.9c-0.3,0.5-0.8,1.1-1.3,1.4
		c-8,6-17.1,8.4-27,7.4c-3-0.3-5.9-1.1-8.9-1.6c4.2,14.6,2.3,28.2-8.8,39.3c-11,11.1-24.6,13-39.3,8.9c0.4,1.7,0.9,3.3,1.2,5
		c2.1,11.1,0.1,21.3-6.6,30.4c-1.1,1.5-2.5,2.3-4.4,2c-3-0.6-4.2-4-2.4-6.4c2.9-3.8,4.8-8,5.6-12.7c1.1-6.7,0.2-13.1-2.6-19.3
		c-1.6-3.4-4.1-6-7.5-7.6c-7-3.3-14.4-4.8-22.1-3.3c-4.1,0.8-7.8,2.5-11.1,5.1c-2.6,2-6,0.7-6.6-2.4c-0.3-1.6,0.3-2.9,1.6-3.9
		c5.6-4.3,11.8-6.7,18.8-7.5c5.6-0.6,11,0,16.4,1.7C38.4,87.2,38.7,87.2,39.1,87.3z M45,74.4c0.1,5.1,1.2,10,3.5,14.6
		c1.8,3.6,4.5,6.2,8.1,7.9c3.6,1.7,7.4,2.7,11.4,3c10.2,0.7,19.1-2.4,25.5-10.6c7.4-9.3,8-19.7,4-30.7c-2.1-5.8-6.1-9.5-11.9-11.5
		c-4.3-1.5-8.6-2.1-13.1-1.9C56.9,45.8,44.7,58.7,45,74.4z"/>
	<path class="st2" d="M127.2,82.7c0,1.8-0.6,3.3-1.8,4.6c-0.4,0.4-0.6,1-0.6,1.6c-0.1,1.2,0,2.5,0,3.8c0,0.8,0.2,1.3,1,1.7
		c2.9,1.6,5.7,3.3,8.6,4.9c1.7,0.9,2.5,2.3,2.4,4.2c-0.1,3.3,0,6.6,0,9.9c0,0.8,0.2,1.2,0.9,1.6c2.9,1.6,5.8,3.4,8.7,5
		c1.6,0.9,2.4,2.3,2.4,4.1c0,4.4,0,8.7,0,13.1c0,1.8-0.7,3.1-2.3,4c-3.8,2.2-7.6,4.3-11.3,6.5c-1.6,1-3.2,1-4.8,0
		c-2.9-1.7-5.8-3.3-8.7-5c-0.7-0.4-1.2-0.4-1.9,0c-2.8,1.7-5.7,3.3-8.6,5c-1.7,1-3.2,1-4.9,0c-2.9-1.7-5.8-3.3-8.7-5
		c-0.7-0.4-1.2-0.4-1.9,0c-2.1,1.2-4.2,2.3-6.3,3.4c-2.3,1.2-4.6,0.6-5.7-1.5c-1.1-2.1-0.3-4.4,2-5.6c2.1-1.1,4.1-2.2,6.2-3.3
		c0.6-0.3,0.9-0.7,0.8-1.4c0-3.4,0-6.8,0-10.2c0-1.8,0.7-3.1,2.3-4c2.9-1.7,5.9-3.4,8.8-5.1c0.7-0.4,0.9-0.8,0.9-1.5
		c0-3.3,0-6.6,0-9.9c0-2,0.7-3.4,2.5-4.4c2.9-1.6,5.7-3.3,8.6-4.9c0.7-0.4,1.1-0.8,0.9-1.6c-0.1-0.5,0-1,0-1.6
		c0.1-1.8-0.1-3.3-1.4-4.9c-1.8-2.1-1.5-5.3,0.2-7.5c1.7-2.2,4.6-3.1,7.2-2.2C125.3,77.5,127.1,79.9,127.2,82.7z M100.8,130.7
		C100.7,130.7,100.7,130.7,100.8,130.7c-0.1,1.2,0,2.4-0.1,3.6c0,0.7,0.2,1.2,0.8,1.5c2.2,1.2,4.3,2.5,6.4,3.6
		c0.4,0.2,1.1,0.2,1.5,0c2.2-1.2,4.4-2.4,6.5-3.7c0.4-0.2,0.7-0.8,0.7-1.2c0.1-2.5,0.1-5.1,0-7.6c0-0.4-0.4-1-0.7-1.2
		c-2.2-1.3-4.4-2.6-6.6-3.8c-0.3-0.2-0.9-0.2-1.3,0c-1.2,0.6-2.3,1.3-3.5,2c-1.3,0.8-3,1.3-3.7,2.4
		C100.3,127.4,100.8,129.2,100.8,130.7z M128.7,109.9c0-1.3,0.1-2.5,0-3.8c0-0.4-0.3-1-0.7-1.2c-2.2-1.3-4.4-2.6-6.6-3.8
		c-0.3-0.2-0.9-0.2-1.3,0c-2.2,1.2-4.4,2.5-6.6,3.8c-0.4,0.2-0.7,0.9-0.7,1.3c-0.1,2.5-0.1,4.9,0,7.4c0,0.4,0.4,1.1,0.7,1.3
		c2.1,1.3,4.3,2.6,6.5,3.8c0.4,0.2,1,0.2,1.4,0c2.2-1.2,4.4-2.4,6.5-3.8c0.4-0.2,0.7-0.8,0.8-1.3
		C128.7,112.5,128.7,111.2,128.7,109.9z"/>
	<path class="st2" d="M129.4,43.4c-3.7,1.6-7.6,2.1-11.8,1.6c-0.3,0-0.6-0.3-0.9-0.6c-5.7-5.6-11.3-11.3-16.9-17
		c-0.3-0.3-0.6-0.8-0.7-1.2c-0.1-3.8,0.7-7.4,2.4-10.7C110.8,24.8,120.1,34.1,129.4,43.4z"/>
	<path class="st2" d="M15.3,101.7c3.6-1.7,7.4-2.3,11.4-1.9c0.3,0,0.7,0.3,1,0.6c5.8,5.8,11.6,11.6,17.4,17.4
		c0.3,0.3,0.7,0.8,0.7,1.2c0,3.8-0.8,7.4-2.5,10.8C34,120.3,24.7,111,15.3,101.7z"/>
	<path class="st2" d="M53.9,62.7c9.5,9.5,18.9,18.9,28.3,28.4c0,0-0.1,0.1-0.3,0.2c-3,1.6-6.3,2.5-9.7,2.6c-0.5,0-1.1-0.2-1.5-0.6
		C64.4,87,58,80.6,51.7,74.2c-0.3-0.3-0.6-0.7-0.6-1C51.2,69.5,52.1,65.9,53.9,62.7z"/>
	<path class="st2" d="M62.7,54c2.8-1.5,5.9-2.4,9.1-2.8c1.3-0.2,2.2,0.2,3.2,1.2c6,6.1,12.1,12.2,18.2,18.3c0.6,0.6,0.9,1.2,0.8,2
		c-0.3,3.5-1.2,6.8-2.9,9.7C81.6,72.9,72.1,63.5,62.7,54z"/>
</g>
</svg>
