<?xml version="1.0" encoding="utf-8"?>
<!-- Generator: Adobe Illustrator 24.3.0, SVG Export Plug-In . SVG Version: 6.00 Build 0)  -->
<svg version="1.1" id="Layer_1" xmlns="http://www.w3.org/2000/svg" xmlns:xlink="http://www.w3.org/1999/xlink" x="0px" y="0px"
	 viewBox="0 0 150 150" style="enable-background:new 0 0 150 150;" xml:space="preserve">
<style type="text/css">
	.st0{fill:#005BAB;}
</style>
<g>
	<path class="st0" d="M-0.3,88.8c0.4-1.7,0.7-3.5,1.1-5.1c3.5-12.5,14.8-21.2,27.8-21.4c11-0.1,21.9,0,32.9,0c1.5,0,2.9,0.2,4.6,0.3
		c-0.3-3.2-0.5-6.4-0.8-9.6c-1.1-0.1-2.1-0.1-3-0.3c-3.1-0.6-5.4-3-5.7-6.1c-0.1-1.6-0.1-3.1-0.1-4.7c0.2-4.1,3.1-6.9,7.2-6.9
		c11.8,0,23.6,0,35.4,0c1.4,0,1.8-0.4,2.1-1.7c0.9-5.2,2-10.5,3-15.7c1.2-6.1,6.1-10.7,12.3-11.7c8-1.3,16-2.6,24-4
		c2.1-0.3,3.6,0.6,3.9,2.4c0.3,1.7-0.8,3.1-2.9,3.4c-8.1,1.4-16.1,2.7-24.2,4.1c-3.9,0.7-6.5,3-7.3,6.9c-1.2,5.3-2.1,10.7-3.3,16.4
		c0.7,0,1.2,0,1.8,0c11.2,0,22.4,0,33.7,0c5,0,7.8,2.8,7.8,7.8c0,0.9,0,1.9,0,2.8c-0.1,4.1-2.9,7.1-7.1,7.3c-0.8,0-1.5,0-2.4,0
		c-0.4,3.4-0.7,6.7-1.1,9.9c-1.2,11.1-2.3,22.1-3.5,33.2c-0.3,3-0.6,5.9-0.9,8.9c-0.2,1.9-1.5,3.1-3.2,2.9c-1.8-0.2-2.9-1.6-2.7-3.6
		c1.6-15.4,3.2-30.9,4.9-46.3c0.2-1.6,0.3-3.2,0.5-4.9c-21.2,0-42.3,0-63.5,0c0.3,3.6,0.6,7.2,1,10.7c0.1,0.5,0.8,1,1.3,1.3
		c8.4,4,14.2,10.3,16.8,19.3c0.9,3.1,1.5,6.4,0.8,9.6c-0.5,2-1.6,3.9-2.5,6.1c3.7,4.4,3.9,9.4,0,14.6c1.6,1.8,1.7,4,1.6,6.3
		c-0.1,2.7,0,5.4,0,8.1c-0.1,4.4-1.7,8.3-4.4,11.8c-0.4,0.4-0.7,0.9-1.2,1.5c13.7,0,27.2,0,40.7,0c0.4-3.7,0.8-7.3,1.2-10.9
		c0.2-2,1.5-3.2,3.2-3c1.8,0.2,2.8,1.7,2.6,3.7c-0.5,4.2-0.9,8.4-1.3,12.6c-0.3,2.8-1.2,3.6-4.1,3.6c-12.1,0-24.1,0-36.2,0
		c-23.2,0-46.3,0-69.5,0c-9.5,0-17.2-5.6-19.8-14.4c-0.5-1.6-0.7-3.4-0.8-5.1c-0.1-2.8,0-5.7-0.1-8.5c-0.1-2.1,0.3-4,1.4-5.4
		c-0.9-2-1.7-3.9-2.6-5.7c0-1.2,0-2.4,0-3.5c1-2.1,1.9-4.1,2.8-6c-0.9-2-1.9-4-2.8-6.1C-0.3,91.9-0.3,90.3-0.3,88.8z M45.7,96.7
		c11.6,0,23.2,0,34.8,0c2.8,0,4.3-1.2,4.8-3.9c0.2-1.3,0.3-2.7,0.1-3.9c-1.7-11.4-11.8-20.4-23.4-20.6c-11.3-0.2-22.6-0.2-34,0
		C16.1,68.4,6,78.7,5.6,90.7c-0.1,4,1.9,6,5.8,6C22.9,96.7,34.3,96.7,45.7,96.7z M45.6,112c11.6,0,23.2,0,34.8,0
		c3.1,0,5.2-2,5.2-4.8c0-2.7-2.1-4.6-5.2-4.6c-3.1,0-6.2,0-9.3,0c-20.1,0-40.2,0-60.4,0c-3,0-5.2,1.9-5.2,4.6c0,2.8,2.1,4.7,5.2,4.8
		c0.4,0,0.8,0,1.2,0C23.2,112,34.4,112,45.6,112z M84.3,129.4c-0.5,0.5-0.9,0.8-1.2,1.2c-4,3.8-9.7,3.9-13.9,0.3
		c-2.6-2.2-4.3-2.2-6.8,0c-3.8,3.4-9.3,3.4-13.2,0.2c-2.9-2.4-4.3-2.4-7.2,0c-3.9,3.2-9.4,3.1-13.2-0.2c-2.6-2.3-4.3-2.3-6.9,0
		c-4.1,3.5-9.7,3.3-13.6-0.3c-0.4-0.4-0.6-1-0.9-1.5c-0.2,0.1-0.3,0.3-0.5,0.4c0,0.2,0,0.5,0,0.7c1.2,7.2,7,12,14.5,12
		c16.2,0,32.3,0,48.5,0c1,0,2.1-0.1,3.1-0.3C78.9,141,84.1,135.4,84.3,129.4z M45.6,117.8c-12.2,0-24.5,0-36.7,0
		c-2.1,0-2.6,0.9-1.8,2.8c0.3,0.6,0.7,1.2,1.1,1.7c1.2,1.3,2.5,2.6,3.8,3.9c2,1.9,4.1,2,6.3,0.2c4.6-3.9,9.7-3.8,14.2,0.1
		c2,1.7,4,1.7,6,0.1c4.8-3.9,9.6-3.9,14.3,0c1.9,1.6,3.9,1.6,5.8,0c4.9-4.1,9.7-4.1,14.5,0c1.4,1.2,3.4,1.7,4.7,0.6
		c2.2-1.8,4.4-3.9,6.2-6.2c1.3-1.8,0.4-3-1.8-3C70,117.8,57.8,117.8,45.6,117.8z M103.4,40.8c-12.5,0-25,0-37.5,0
		c-3.4,0-3.4-0.4-3.4,3.5c0,2.6,0.1,2.7,2.7,2.7c25.1,0,50.2,0,75.2,0c4.3,0,3.9,0.2,3.9-3.9c0-2.1-0.1-2.3-2.2-2.3
		C129.2,40.8,116.3,40.8,103.4,40.8z"/>
	<path class="st0" d="M131.1,114.9c1.6,0,2.8,1.4,2.8,3c0,1.6-1.4,2.9-2.9,2.9c-1.6,0-2.9-1.4-2.9-3.1
		C128.2,116.2,129.6,114.9,131.1,114.9z"/>
</g>
</svg>
