<?xml version="1.0" encoding="utf-8"?>
<!-- Generator: Adobe Illustrator 24.3.0, SVG Export Plug-In . SVG Version: 6.00 Build 0)  -->
<svg version="1.1" id="Layer_1" xmlns="http://www.w3.org/2000/svg" xmlns:xlink="http://www.w3.org/1999/xlink" x="0px" y="0px"
	 viewBox="0 0 150 150" style="enable-background:new 0 0 150 150;" xml:space="preserve">
<style type="text/css">
	.st0{fill:#005BAB;}
</style>
<g>
	<path class="st0" d="M22.7,111.3c1.6-1.5,3.2-2.9,4.9-4.4c-0.5-1.3-1-3-1.6-4.6c-0.1-0.2-0.5-0.4-0.8-0.4c-2.4-0.4-4.1-2-4.4-4.3
		c-0.2-2.3,1.1-4.4,3.2-5.1c2.1-0.7,4.5,0.1,5.7,2c1.2,2,0.9,4.4-0.8,6.2c-0.2,0.3-0.4,0.8-0.4,1.1c0.5,1.5,1,3.1,1.5,4.5
		c1.2,0,2.2-0.1,3.3,0c1,0.1,2.1,0.4,3.2,0.6c1.7-3.5,3.5-7,5.2-10.6c0.1-0.1,0.1-0.2,0.2-0.3c0.7-1.1,0.9-2-0.1-3.2
		c-1.3-1.7-1-4.2,0.5-5.8c1.5-1.6,3.9-2,5.9-1c1.9,1,2.9,3.2,2.5,5.3c-0.5,2.2-2.2,3.7-4.4,3.8c-0.9,0-1.2,0.4-1.6,1.1
		c-1.9,4-3.9,7.9-5.8,11.7c1.4,1.7,2.7,3.3,4.2,5c1.5-0.5,3.3-1.1,5-1.7c0.3-0.1,0.5-0.7,0.5-1.1c0.2-2.1,1.5-3.7,3.5-4.3
		c2-0.6,4.1,0.1,5.3,1.8c1.2,1.6,1.3,3.9,0.1,5.6c-1.6,2.4-5,2.9-7.2,0.9c-0.6-0.5-1-0.6-1.7-0.3c-1.4,0.5-2.9,1-4.4,1.5
		c-0.3,0.1-0.6,0.6-0.6,0.9c-0.1,0.9,0,1.8,0,2.7c-0.1,0.9-0.3,1.7-0.5,2.6c0.2,0.1,0.5,0.3,0.7,0.5c3.7,1.9,7.5,3.7,11.2,5.6
		c0.7,0.4,1.2,0.4,1.9-0.2c2.3-1.7,5.5-1.1,7,1.4c1.5,2.4,0.5,5.6-2,6.9c-2.6,1.2-5.6,0-6.7-2.6c-0.2-0.5-0.4-1-0.3-1.5
		c0.2-1.1-0.4-1.4-1.2-1.8c-3.9-1.9-7.9-3.9-11.7-5.7c-1.5,1.3-3,2.6-4.7,4c0.5,1.6,1.1,3.4,1.8,5.1c0.1,0.3,0.8,0.5,1.2,0.6
		c3.3,0.6,5,4,3.6,6.9c-0.9,1.8-2.4,2.8-4.5,2.7c-2.1,0-3.5-1-4.3-2.9c-0.8-1.9-0.5-3.8,1-5.2c0.6-0.6,0.7-1.1,0.4-1.8
		c-0.6-1.5-1.1-3.1-1.5-4.5c-2-0.2-3.8-0.4-5.6-0.5c-0.2,0-0.6,0.3-0.8,0.5c-2,4-4,8-6,12.1c-0.2,0.4,0,1,0.3,1.4
		c1.5,2.3,0.9,5.3-1.4,6.8c-2.3,1.5-5.3,0.8-6.8-1.5c-1-1.6-1-3.3-0.1-5c0.9-1.7,2.4-2.5,4.3-2.4c0.9,0,1.3-0.3,1.7-1.1
		c1.9-4,3.9-8,5.9-11.9c-1.4-1.6-2.8-3.1-4.3-4.7c-1.7,0.6-3.5,1.2-5.4,1.9c-0.3,0.1-0.6,0.7-0.6,1.1c-0.4,2.3-2.1,4-4.3,4.2
		c-2.2,0.2-4.3-1-5.1-3.1c-0.8-2.1,0-4.5,1.8-5.8c1.9-1.2,4.4-1.1,6,0.5c0.6,0.6,1.1,0.7,1.9,0.4c1.6-0.6,3.3-1.1,4.9-1.7
		c0-2.1,0-4.1,0-6.4c-0.8-0.4-2-1-3.2-1.6c-2.9-1.4-5.9-2.9-8.8-4.4c-0.6-0.3-1-0.3-1.5,0.1c-1.8,1.5-4.4,1.4-6.1,0
		c-1.7-1.5-2.2-3.9-1.2-5.9c1-2,3.3-3.1,5.5-2.5c2.2,0.5,3.6,2.4,3.7,4.8c0,0.4,0.3,1,0.6,1.2c4,2,8.1,4,12.1,6
		C22.7,111.3,22.8,111.3,22.7,111.3z M41.2,117.3c0-4.8-3.9-8.7-8.6-8.7c-4.8,0-8.7,3.8-8.7,8.6c0,4.8,3.9,8.8,8.7,8.8
		C37.3,126,41.2,122.1,41.2,117.3z M62.2,131.1c0-1.3-1.1-2.3-2.3-2.3c-1.2,0-2.3,1-2.3,2.2c-0.1,1.2,1,2.4,2.3,2.4
		C61,133.4,62.1,132.3,62.2,131.1z M21.2,144.9c0-1.3-1-2.3-2.3-2.4c-1.3,0-2.3,1.1-2.3,2.3c0,1.2,1,2.2,2.2,2.3
		C20.1,147.2,21.2,146.2,21.2,144.9z M39.6,140.6c1.3,0,2.3-1,2.3-2.3c0-1.3-1.1-2.3-2.3-2.3c-1.2,0-2.3,1.1-2.3,2.3
		C37.3,139.5,38.3,140.6,39.6,140.6z M48.3,90.2c0-1.3-1-2.3-2.3-2.3c-1.2,0-2.3,1-2.3,2.2c-0.1,1.3,0.9,2.4,2.2,2.4
		C47.2,92.5,48.2,91.5,48.3,90.2z M25.6,99.3c1.3,0,2.3-1,2.4-2.3c0-1.3-1-2.3-2.3-2.3c-1.2,0-2.3,1-2.3,2.2
		C23.3,98.2,24.3,99.3,25.6,99.3z M55.8,110.2c0-1.3-1.1-2.3-2.4-2.3c-1.2,0-2.2,1-2.2,2.3c0,1.3,1,2.3,2.3,2.3
		C54.8,112.5,55.8,111.5,55.8,110.2z M7.3,104.1c0-1.3-1-2.3-2.3-2.4c-1.2,0-2.3,1-2.3,2.2c-0.1,1.3,1,2.4,2.2,2.4
		C6.2,106.4,7.3,105.3,7.3,104.1z M11.3,122.5c-1.3,0-2.3,1.1-2.3,2.4c0,1.3,1.2,2.3,2.4,2.2c1.2-0.1,2.2-1.1,2.2-2.3
		C13.6,123.5,12.5,122.5,11.3,122.5z"/>
	<path class="st0" d="M58.6,59.7c-0.7,1.1-1.3,2-2.1,3.1c1.2,1.2,2.4,2.4,3.6,3.6c0.4,0.4,0.7,0.7,1.1,1.1c0.6,0.6,0.7,1.3,0.1,1.9
		c-0.6,0.6-1.3,0.5-1.9-0.1c-1.3-1.2-2.5-2.5-3.8-3.8c-0.3-0.3-0.5-0.7-0.8-1c-1.2,0.8-2.1,1.4-3.2,2.2c0.7,1.6,1.4,3.3,2.1,5
		c0.2,0.4,0.3,0.8,0.5,1.2c0.2,0.7,0.1,1.4-0.6,1.7c-0.8,0.3-1.4,0-1.7-0.8c-0.7-1.7-1.5-3.3-2.1-5c-0.3-0.9-0.7-1.2-1.7-0.9
		c-2.4,0.6-2.4,0.6-2.4,3.1c0,1.2,0,2.4,0,3.7c0,0.9-0.2,1.8-1.3,1.8c-1.1,0-1.3-0.8-1.3-1.7c0-1.7,0-3.5,0-5.2
		c0-0.8-0.1-1.4-1.1-1.3c0,0-0.1,0-0.1,0c-0.8-0.1-1.9-0.6-2.5-0.2c-0.6,0.4-0.7,1.5-1.1,2.3c-0.5,1.2-1,2.3-1.5,3.5
		c-0.3,0.8-1,1.2-1.8,0.8c-0.8-0.3-0.9-1-0.5-1.8c0.8-2,1.7-4,2.5-6c-1-0.7-2-1.3-3.2-2.1c-1.3,1.3-2.6,2.7-4,4.1
		c-0.2,0.3-0.5,0.5-0.8,0.7c-0.6,0.5-1.2,0.6-1.8,0c-0.6-0.6-0.5-1.3,0-1.8c1.2-1.3,2.5-2.5,3.8-3.8c0.3-0.3,0.7-0.6,1-0.9
		c-0.8-1.1-1.4-2.1-2.1-3.2c-1.7,0.7-3.4,1.4-5.1,2.1c-0.4,0.2-0.7,0.3-1.1,0.4c-0.7,0.2-1.4,0.1-1.7-0.6c-0.3-0.8,0-1.4,0.8-1.7
		c1.7-0.7,3.3-1.4,5-2.1c0.4-0.2,0.7-0.3,1.1-0.5c-0.3-1.6-0.4-3.2-0.8-4.8c-0.8-3.3-3-5-6.4-5.6c-0.6,1.5-1.3,3.1-2,4.6
		c-0.2,0.4-0.5,0.9-0.9,1.1c-0.3,0.1-1.1,0-1.2-0.3c-0.3-0.4-0.4-1.1-0.2-1.5c0.6-1.6,1.3-3.2,2-4.9c-0.7-0.5-1.5-1-2.4-1.6
		c-1.2,1.3-2.5,2.6-3.8,3.9c-0.6,0.6-1.3,0.7-1.9,0c-0.6-0.6-0.4-1.2,0.1-1.8c0.2-0.3,0.5-0.5,0.7-0.8c1-1,2.1-2,3.1-3
		c-0.6-0.9-1.1-1.6-1.6-2.4c-1.6,0.7-3.2,1.3-4.8,2c-0.8,0.3-1.6,0.3-2-0.6c-0.3-0.8,0.1-1.4,0.9-1.7c1.6-0.7,3.2-1.3,4.9-2
		c-0.2-0.9-0.3-1.7-0.5-2.7c-1.5,0-3,0-4.5,0c-0.4,0-1,0.1-1.3-0.1c-0.4-0.3-1-0.9-1-1.2c0.1-0.5,0.7-1.1,1.1-1.2
		c1.4-0.2,2.8-0.1,4.3-0.1c0.4,0,0.8,0,1.3,0c0.2-1,0.4-1.8,0.6-2.8c-1.6-0.7-3.2-1.3-4.8-2c-0.7-0.3-1.2-0.7-1.1-1.5
		c0.1-0.9,0.9-1.3,1.9-0.9c1.6,0.6,3.2,1.3,4.9,2c0.5-0.7,1-1.5,1.6-2.4c-1.2-1.2-2.4-2.3-3.7-3.5c-0.7-0.6-1-1.3-0.3-2.1
		c0.7-0.8,1.5-0.4,2.1,0.3c1.2,1.2,2.3,2.4,3.5,3.6c0.8-0.5,1.6-1,2.4-1.6c-0.6-1.6-1.3-3.1-1.9-4.6c-0.3-0.8-0.5-1.6,0.5-2.1
		c0.8-0.4,1.4,0,1.9,1.2c0.6,1.5,1.2,3,1.9,4.6c0.9-0.2,1.8-0.3,2.8-0.5c0-1.9,0-3.7,0-5.5c0-0.8,0.4-1.4,1.2-1.3
		c0.5,0.1,0.9,0.6,1.2,1c0.2,0.2,0.1,0.7,0.1,1c0,1.5,0,3.1,0,4.7c0.9,0.2,1.8,0.4,2.7,0.6c0.7-1.6,1.3-3.2,2-4.8
		c0.2-0.5,0.7-1,1.2-1.1c1-0.2,1.6,0.8,1.1,2c-0.6,1.6-1.3,3.2-2,4.8c0.8,0.5,1.5,1,2.4,1.6c1.2-1.2,2.4-2.5,3.7-3.7
		c0.7-0.7,1.6-0.7,2.1-0.1c0.5,0.7,0.3,1.3-0.3,1.9c-1.3,1.2-2.5,2.4-3.7,3.6c0.6,0.9,1.1,1.6,1.6,2.4c1.6-0.7,3.3-1.4,4.9-2
		c0.9-0.4,1.7-0.1,1.9,0.7c0.2,0.8-0.3,1.3-1,1.6c-1.6,0.7-3.2,1.3-4.8,2c0.5,3.7,3.2,6.3,6.7,6.7c1.2,0.1,2.3,0.4,3.7,0.6
		c0.6-1.5,1.3-3.2,2-4.8c0.2-0.4,0.3-0.7,0.4-1.1c0.3-0.8,0.9-1.4,1.8-1c0.9,0.4,0.9,1.2,0.5,2c-0.5,1.2-1,2.3-1.5,3.5
		c-0.3,0.8-0.6,1.5-1,2.4c1,0.7,2,1.4,3.1,2.1c1.3-1.3,2.6-2.6,3.9-3.9c0.3-0.3,0.6-0.6,0.8-0.8c0.6-0.5,1.2-0.6,1.8-0.1
		c0.6,0.6,0.6,1.3,0,1.9c-1.2,1.2-2.4,2.4-3.6,3.6c-0.4,0.4-0.8,0.7-1.2,1c0.8,1.1,1.4,2.1,2.1,3.2c1.9-0.8,3.7-1.5,5.6-2.3
		c0.3-0.1,0.7-0.4,1-0.3c0.5,0.2,1.2,0.5,1.3,0.9c0.1,0.5-0.3,1.3-0.7,1.5c-1.5,0.8-3.2,1.4-4.8,2c-0.5,0.2-0.9,0.4-1.4,0.6
		c0.2,1.1,0.3,2.1,0.6,3.1c0.1,0.3,0.6,0.6,0.9,0.6c1.9,0.1,3.7,0,5.6,0c0.9,0,1.6,0.2,1.7,1.2c0,1.1-0.8,1.3-1.7,1.3
		c-2.1,0-4.2,0-6.3,0c-0.2,1.2-0.5,2.4-0.7,3.6c1.6,0.7,3.2,1.3,4.8,2c0.3,0.1,0.7,0.3,1,0.4c0.8,0.3,1.6,0.8,1.2,1.8
		c-0.4,1.1-1.3,0.9-2.2,0.5c-1.5-0.6-2.9-1.2-4.4-1.8C59.5,60,59.1,59.9,58.6,59.7z M25.8,22.7c-1,0.2-2.1,0.3-3.1,0.6
		c-4.8,1.3-8.1,5.8-8,10.7c0.1,5,3.5,9.3,8.4,10.6c4.7,1.2,7.4,4.4,7.8,8.9c0.6,7.1,6.6,12.4,13.7,12.3c7-0.1,12.7-5.7,13.1-12.6
		c0.4-7.1-4.8-13.3-11.8-14.1c-5.3-0.6-8.1-3-9.5-8.1C35,26.1,30.8,22.9,25.8,22.7z"/>
	<path class="st0" d="M138.4,118.7c5.2,4,8.6,9.2,11,15.1c0.1,0.2,0.1,0.4,0.2,0.5c0.3,0.8,0.2,1.4-0.6,1.8c-0.8,0.3-1.4,0-1.7-0.8
		c-0.5-1.1-1-2.2-1.5-3.3c-2.1-4.2-4.7-7.9-8.4-10.8c-0.4-0.3-0.8-0.6-1.1-0.8c-2,1.1-3.9,2.3-6,3.3c-6.3,2.9-12.7,3.4-19.4,1.6
		c-0.3-0.1-0.7-0.2-1-0.3c-4.1-1.6-5.3-3.3-5-7.7c0.1-1.8,0.4-3.6,0.6-5.4c0.1-0.8-0.1-1.3-0.7-2c-1.1-1.1-2.1-2.4-2.8-3.8
		c-1.1-2.2-0.5-4.2,1.6-5.6c1.2-0.8,2.7-1.3,4-2c1.4-0.8,2.8-1.6,4.1-2.5c0.8-0.5,0.7-1.3-0.2-1.7c-1.3-0.6-2.6-1.1-3.9-1.6
		c-2.7-1-5.4-1.8-8-3c-3.2-1.5-4.1-3.5-3.7-6.9c0.1-1,0.2-2,0.5-2.9c0.3-1-0.1-1.4-1-1.8c-1.4-0.5-2.9-1.1-4.3-1.7
		c-0.6-0.3-1.2-0.6-1.8-0.9c-3.5-1.9-4.1-3.5-2.7-7.1c2.2-5.4,4.6-10.7,6.8-16.1c2-4.8,3.6-9.7,4.3-14.9c0.4-3,0.3-5.9-0.7-8.8
		c-1.5-4.6-1.4-9.1,0.1-13.7c1.1-3.7,1.9-7.5,2.9-11.2c0.2-0.8,0.4-1.5,0.6-2.3c0.2-0.8,0.7-1.3,1.6-1.1c0.9,0.2,1.1,0.9,0.9,1.8
		c-0.8,3.4-1.6,6.8-2.5,10.2c-0.6,2.2-1.3,4.4-1.8,6.6c-0.6,2.7-0.4,5.6,0.5,8.2c1.7,4.8,1.4,9.5,0.3,14.3
		c-1.6,7.2-4.6,13.9-7.6,20.6c-1.1,2.6-2.2,5.2-3.3,7.9c-0.6,1.5-0.5,2,1,2.8c1.7,0.9,3.5,1.7,5.2,2.5c4.3,1.7,4.4,1.9,3.6,6.4
		c-0.7,4.1-0.2,5.1,3.6,6.7c1.9,0.8,3.9,1.3,5.8,2c1.6,0.6,3.3,1.1,4.8,1.9c2.3,1.4,2.6,3.8,0.6,5.6c-1.4,1.3-3.2,2.1-4.9,3.1
		c-1.2,0.7-2.4,1.1-3.6,1.7c-1,0.5-1.2,1.5-0.6,2.4c0.7,1.1,1.6,2.3,2.6,3.2c0.9,0.8,1.3,1.7,1.2,2.9c-0.2,2.1-0.5,4.2-0.7,6.2
		c-0.2,3.1,0.3,4,3.3,5c6.4,2.2,12.6,1.7,18.6-1.2c2.8-1.3,5.3-3.2,7.8-4.9c2.7-1.8,5.3-3.8,7.9-5.7c0.7-0.5,1.5-0.9,2.2,0
		c0.6,0.9,0.1,1.5-0.7,2.1c-2.3,1.7-4.7,3.4-7,5C139.2,118.1,138.8,118.4,138.4,118.7z"/>
	<path class="st0" d="M108.9,22.2c8.5,0.4,16.7,2.9,24.1,7.4c0.2,0.1,0.5,0.3,0.7,0.5c0.6,0.5,0.8,1.2,0.3,1.7
		c-0.3,0.3-1.2,0.5-1.6,0.3c-1.2-0.5-2.3-1.3-3.4-1.9c-6.8-3.5-14-5.4-21.6-5.5c-0.3,0-0.7,0.1-0.9-0.1c-0.4-0.3-0.8-0.8-0.8-1.2
		c0-0.4,0.6-0.8,1-1.1c0,0,0.2,0,0.2,0C107.5,22.2,108.1,22.2,108.9,22.2z"/>
	<path class="st0" d="M115.2,41.5c0,1.3,0,2.3,0,3.4c0,0.8-0.4,1.4-1.2,1.4c-0.9,0-1.3-0.5-1.3-1.4c0-1.1,0-2.3,0-3.4
		c0-0.7-0.2-1-0.9-1.1c-0.7-0.1-1.4-0.1-1.9-0.4c-0.4-0.3-0.9-0.9-0.9-1.4c-0.1-0.7,0.6-1.1,1.3-1c1.3,0.2,2.6,0.5,3.9,0.8
		c3.8,1.1,7.4,2.9,10.7,5.2c0.8,0.5,1.4,1.1,0.8,2.1c-0.4,0.8-1.2,0.7-2.4,0c-2.2-1.3-4.5-2.5-6.8-3.8
		C116.2,41.8,115.8,41.7,115.2,41.5z"/>
	<path class="st0" d="M87.5,98.4c-0.5,0.3-1,0.9-1.5,0.9c-0.4,0-1.1-0.7-1.2-1.1c-0.2-0.7,0.4-1.4,1.2-1.3c0.5,0.1,1,0.6,1.5,0.9
		C87.5,98,87.5,98.2,87.5,98.4z"/>
	<path class="st0" d="M84.8,107.6c-0.3-0.5-0.9-1-0.9-1.5c0-0.4,0.7-1.1,1.2-1.2c0.7-0.2,1.4,0.4,1.2,1.2c-0.1,0.5-0.6,1-0.9,1.5
		C85.2,107.6,85,107.6,84.8,107.6z"/>
	<path class="st0" d="M92,103.1c0.3,0.5,0.9,1,0.9,1.5c0,0.4-0.7,1.1-1.2,1.1c-0.7,0.1-1.4-0.4-1.2-1.2c0.1-0.5,0.6-1,1-1.4
		C91.6,103.1,91.8,103.1,92,103.1z"/>
	<path class="st0" d="M72.6,88c-0.3-0.5-0.9-1-0.8-1.5c0-0.4,0.7-1,1.2-1.1c0.7-0.1,1.3,0.5,1.2,1.2c-0.1,0.5-0.7,1-1,1.4
		C73,88,72.8,88,72.6,88z"/>
	<path class="st0" d="M82.3,98.2c-0.5,0.3-1,0.9-1.5,0.9c-0.4,0-1.1-0.7-1.2-1.2c-0.1-0.7,0.4-1.4,1.2-1.2c0.5,0.1,1,0.6,1.5,1
		C82.3,97.8,82.3,98,82.3,98.2z"/>
	<path class="st0" d="M80.2,90.1c-0.3-0.5-0.9-1-0.9-1.5c0-0.4,0.6-1.1,1.1-1.2c0.7-0.2,1.4,0.4,1.3,1.1c-0.1,0.5-0.6,1-0.9,1.5
		C80.6,90.1,80.4,90.1,80.2,90.1z"/>
	<path class="st0" d="M71.7,111c-0.3-0.5-0.9-0.9-1-1.4c-0.2-0.8,0.4-1.2,1.2-1.3c0.8,0,1.4,0.5,1.3,1.2c-0.1,0.5-0.6,1-0.9,1.5
		C72.1,111,71.9,111,71.7,111z"/>
	<path class="st0" d="M80,108.2c-0.5,0.3-1,0.9-1.5,0.8c-0.4,0-1-0.7-1.1-1.2c-0.2-0.7,0.4-1.3,1.2-1.2c0.5,0.1,1,0.6,1.4,1
		C80,107.9,80,108,80,108.2z"/>
	<path class="st0" d="M71.9,97.6c-0.5,0.3-0.9,0.9-1.4,1c-0.7,0.1-1.3-0.5-1.2-1.2c0.1-0.5,0.7-1.1,1.1-1.1c0.5,0,1,0.5,1.5,0.8
		C71.9,97.2,71.9,97.4,71.9,97.6z"/>
	<path class="st0" d="M87.7,89.3c1.1,0.3,1.6,0.7,1.4,1.5c-0.1,0.5-0.7,1-1.2,1.1c-0.8,0.2-1.3-0.5-1.2-1.2
		C86.9,90.2,87.4,89.7,87.7,89.3z"/>
	<path class="st0" d="M77.1,97.8c-0.5,0.3-0.9,0.9-1.4,1c-0.7,0.1-1.4-0.5-1.2-1.2c0.1-0.5,0.7-1.1,1.1-1.2c0.5,0,1,0.5,1.5,0.8
		C77.1,97.5,77.1,97.7,77.1,97.8z"/>
	<path class="st0" d="M37.3,117.3c0,2.7-2.1,4.8-4.8,4.8c-2.7,0-4.9-2.1-4.9-4.8c0-2.7,2.2-4.8,4.9-4.8
		C35.2,112.5,37.3,114.6,37.3,117.3z M34.8,117.3c0-1.3-1-2.3-2.3-2.3c-1.2,0-2.3,1-2.3,2.2c0,1.3,1,2.3,2.3,2.4
		C33.8,119.6,34.8,118.6,34.8,117.3z"/>
	<path class="st0" d="M44.3,44c4.7,0,8.4,3.8,8.4,8.5c0,4.7-3.8,8.4-8.5,8.4c-4.7,0-8.4-3.8-8.4-8.5C35.9,47.6,39.6,43.9,44.3,44z
		 M44.2,58.2c3.3,0,5.9-2.6,5.9-5.8c0-3.3-2.6-6-5.9-6c-3.2,0-5.9,2.6-5.9,5.9C38.3,55.6,41,58.2,44.2,58.2z"/>
	<path class="st0" d="M25.7,40.2c-3.5,0-6.3-2.8-6.3-6.3c0-3.5,2.8-6.4,6.4-6.4c3.5,0,6.4,2.9,6.3,6.4C32,37.4,29.2,40.2,25.7,40.2z
		 M25.7,37.7c2.1,0,3.9-1.7,3.8-3.8c0-2.1-1.8-3.8-3.9-3.8c-2.1,0-3.7,1.7-3.8,3.8C21.9,35.9,23.6,37.6,25.7,37.7z"/>
</g>
</svg>
