<?xml version="1.0" encoding="utf-8"?>
<!-- Generator: Adobe Illustrator 24.3.0, SVG Export Plug-In . SVG Version: 6.00 Build 0)  -->
<svg version="1.1" id="Layer_1" xmlns="http://www.w3.org/2000/svg" xmlns:xlink="http://www.w3.org/1999/xlink" x="0px" y="0px"
	 viewBox="0 0 150 150" style="enable-background:new 0 0 150 150;" xml:space="preserve">
<style type="text/css">
	.st0{fill:#005BAB;}
</style>
<g>
	<path class="st0" d="M149.4,56.4c-0.3,2.2-0.6,4.5-1.1,6.7c-1.9,9.3-6.3,17.3-13.1,24c-4,3.9-6.5,8.4-7.2,13.9
		c-0.4,3.3,0,6.5,0.7,9.7c0.8,4,1.6,8,2.3,11.9c0.8,0.1,1.5,0.2,2.2,0.4c2.4,0.7,4.1,2.7,4.3,5.1c0.2,2.8,0.4,5.6,0.5,8.4
		c0.1,4.2-3,7.6-7.2,7.6c-23,0-45.9,0-68.9,0c-1.4,0-2.6-0.6-3.2-1.9c-0.6-1.2-0.4-2.4,0.4-3.6c1.7-2.4,3.5-4.8,5.3-7.1
		c1.9-2.5,4.6-4,7.9-4.7c-0.3-2.5-0.5-5-1-7.4c-0.3-1.5-1.8-2.3-3.5-2.1c-3.3,0.4-6.6,0.7-10,1.2c-3.7,0.5-6.8-0.5-8.9-3.6
		c-2.2-3-2.3-6.3-0.6-9.6c0.9-1.7,1.7-3.4,2.6-5.3c-0.7-0.4-1.4-0.7-2.1-1.1c-2.2-1.3-2.6-3.9-0.8-5.8c1-1.1,2.2-2.1,3.3-3.2
		c-1.1-0.9-2.1-1.7-3.1-2.6c-2.3-1.9-2.4-4.1-0.3-6.2c0.6-0.6,1.3-1.2,2.1-2c-2.8-0.8-5.4-1.5-7.9-2.3c-3-0.9-4.7-3.5-4.1-6.5
		c0.2-1.1,0.8-2.2,1.5-3.1c3.5-4.5,7.1-8.9,10.6-13.3c1-1.3,1.8-2.7,1.3-4.3c-1.9-5.9-0.4-11.4,1.7-16.8c5.8-14.9,17-23.3,32.4-26.1
		C96.9,5,108,5.3,118.8,9c8.8,3,16.2,8.1,21.8,15.5c0.3,0.4,0.6,0.8,0.9,1.2c0.7,1.1,0.5,2.4-0.4,3.1c-1,0.7-2.2,0.5-3.1-0.5
		c-1.8-2.1-3.5-4.3-5.5-6.2c-6.8-6.3-14.9-9.8-24-11.2c-9.6-1.4-19.2-1-28.4,2C66.7,17.4,59,27,55.5,40.3c-0.7,2.7-0.6,5.3,0.1,7.9
		c0.9,3.3,0.2,6.2-2,8.8c-3.5,4.3-7,8.7-10.5,13c-1.4,1.7-1.2,2.4,0.9,3c2.3,0.7,4.7,1.3,7,2c3.8,1.1,4.7,4.7,1.8,7.5
		c-0.6,0.5-1.1,1.1-1.7,1.6c1.6,1.8,4.2,2.7,4.5,5.5c0.3,2.9-2.2,4.1-3.8,6c0.9,0.5,1.8,0.9,2.6,1.4c1.5,0.8,1.9,1.8,1.1,3.4
		c-1.1,2.4-2.3,4.7-3.5,7c-0.9,1.7-0.9,3.3,0.2,4.9c1.1,1.6,2.8,2.1,4.7,1.9c3.4-0.4,6.7-0.8,10.1-1.2c4.8-0.5,8.3,2.4,8.8,7.2
		c0.2,2,0.4,4,0.7,6.3c1.2-0.1,2.4-0.1,3.6-0.2c1.7-0.1,2.6,0.5,2.8,1.8c0.2,1.4-0.6,2.3-2.3,2.5c-2,0.2-4.1,0.4-6.1,0.4
		c-3.1,0.1-5.5,1.3-7.3,3.9c-1.1,1.5-2.2,3-3.4,4.7c0.6,0,1,0.1,1.4,0.1c21.6,0,43.2,0,64.8,0c2.6,0,3.7-1.2,3.6-3.8
		c-0.1-2.3-0.2-4.6-0.4-7c-0.1-1.6-0.6-2.1-2.2-2c-11.4,0.8-22.9,1.6-34.3,2.5c-2.2,0.2-4.3,0.3-6.5,0.4c-1.7,0.1-2.6-0.6-2.7-2
		c-0.1-1.4,0.8-2.3,2.5-2.4c5.9-0.4,11.9-0.8,17.8-1.2c5.7-0.4,11.5-0.8,17.2-1.2c0.5,0,1-0.1,1.6-0.2c-0.9-4.7-1.8-9.2-2.7-13.8
		c-1.7-9.3,0.6-17.6,7.3-24.3c6.3-6.3,10.8-13.5,12.6-22.3c1.8-8.9,1.5-17.6-1.7-26.2c-0.1-0.2-0.1-0.4-0.2-0.5
		c-0.5-1.4,0-2.6,1.1-3c1.2-0.5,2.5,0.1,2.9,1.6c1,3.3,1.8,6.7,2.7,10.1c0.3,1.2,0.4,2.5,0.6,3.7C149.4,51,149.4,53.7,149.4,56.4z"
		/>
	<path class="st0" d="M0.6,91.6C1.1,89,1.4,86.5,2,83.9C4,76.4,7.8,69.8,13.2,64.2c0.9-0.9,1.9-1.3,3-0.6c1,0.6,1.2,1.6,0.8,2.7
		c-0.2,0.5-0.6,0.9-1,1.3C8.5,75.5,4.8,85,5,96c0.2,10.1,3.8,18.9,10.6,26.3c0.3,0.4,0.7,0.7,1,1.1c0.9,1,0.8,2.3-0.1,3.1
		c-0.9,0.8-2.2,0.9-3.1-0.2c-2.4-2.9-4.9-5.8-6.8-9c-3.3-5.3-5.1-11.2-5.7-17.5c0-0.4-0.2-0.8-0.3-1.3C0.6,96.3,0.6,93.9,0.6,91.6z"
		/>
	<path class="st0" d="M23.8,71.7c0.7,0.5,1.6,0.9,1.8,1.4c0.3,0.7,0.1,1.7-0.2,2.4c-0.3,0.7-1.1,1.2-1.6,1.9
		c-9,10.6-8.6,26.3,0.8,36.5c0.2,0.2,0.5,0.5,0.7,0.7c0.8,1.1,0.8,2.3-0.1,3.1c-0.9,0.8-2.2,0.9-3.1-0.2c-1.9-2.3-3.8-4.5-5.3-7.1
		c-6.8-12-4.7-27.6,4.9-37.3C22.3,72.6,23,72.3,23.8,71.7z"/>
	<path class="st0" d="M25.3,95.2c0.1-5.1,1.8-9.5,5.2-13.2c1.2-1.3,2.5-1.5,3.5-0.6c1,0.9,0.9,2.2-0.3,3.6
		c-5.4,6.2-5.4,14.4,0.1,20.6c1.1,1.3,1.2,2.5,0.2,3.5c-1,1-2.2,0.8-3.4-0.5C27.1,104.8,25.5,100.3,25.3,95.2z"/>
</g>
</svg>
