<?xml version="1.0" encoding="utf-8"?>
<!-- Generator: Adobe Illustrator 24.3.0, SVG Export Plug-In . SVG Version: 6.00 Build 0)  -->
<svg version="1.1" id="Layer_1" xmlns="http://www.w3.org/2000/svg" xmlns:xlink="http://www.w3.org/1999/xlink" x="0px" y="0px"
	 viewBox="0 0 150 150" style="enable-background:new 0 0 150 150;" xml:space="preserve">
<style type="text/css">
	.st0{fill:#005BAB;}
</style>
<g>
	<path class="st0" d="M351.4-880.6c2.7-4.3,6.7-7.7,12.1-7.9c12.4-0.4,24.9-1.6,37.2,0.6c13.9,2.6,23.9,15.4,24.1,29.5
		c0.1,10.8,0,21.5,0.1,32.3c0,1.1,0.7,2.2,1.1,3.2c0.8,2.1,1.9,4.1,2.2,6.2c0.4,3.6,0.2,7.2,0.1,10.8c-0.1,5.6-4.6,10-10.2,10.1
		c-1.6,0-3.1,0-4.8,0c-0.5,1.5-0.9,3-1.5,4.3c-3.3,8.5-8.8,15.2-16.5,20.2c-1.1,0.7-1.6,1.5-1.5,2.8c0.1,2.1,0,4.3,0,6.5
		c0,3,1.2,4.2,4.2,4.2c6.3,0,12.6-0.1,19,0.1c3.6,0.1,7.1,0.8,10.7,1.1c0.9,0.1,1.8-0.4,2.6-0.7c0.5-0.2,0.8-0.8,1.3-1.1
		c3.3-1.5,3.7-4.1,3.7-7.5c-0.1-36.1-0.1-72.2-0.1-108.3c0-8.4,6.1-14.6,14.1-14.4c7.2,0.1,13.1,5.9,13.5,13.1c0,0.9,0,1.7,0,2.6
		c0,36.6,0,73.2,0,109.8c0,1.6,0.5,2.5,1.8,3.4c16.9,11.4,15.7,36.9-2.2,46.7c-1.6,0.9-1.9,1.7-1.8,3.3c0.7,7.4,1.3,14.7,2,22.1
		c0.4,4.6-0.5,5.8-5.1,5.8c-56.3,0-112.6,0-168.9,0c-4.4,0-5.5-1.3-5-5.6c1.1-10.8,2.4-21.5,3.2-32.3c1.7-21,19.4-37.6,40.4-37.8
		c6.9-0.1,13.8,0,20.7,0c3.2,0,4.2-1.2,4.5-4.4c0.5-5.1-0.5-8.9-5.4-12.1c-6.9-4.6-11-11.8-13.5-19.7c-0.4-1.4-1-1.9-2.4-1.7
		c-1.1,0.1-2.2,0-3.2,0c-5.5-0.2-9.9-4.6-10-10.1c-0.1-3.6-0.3-7.2,0.1-10.8c0.2-2.2,1.5-4.2,2.3-6.3c0.4-1,1-2,1-3.1
		c0.1-12.5,0-25,0-37.5c0-11.2,7.2-18.4,18.5-18.4c1.9,0,3.9-0.2,5.8,0.1C347.5-881.7,349.3-881.1,351.4-880.6z M290.7-689.1
		c11.5,0,22.7,0,34.1,0c0-0.6,0-1,0-1.4c0-6.2,0-12.5,0-18.7c0-2.3,1.5-3.8,3.5-3.8c1.9,0,3.3,1.5,3.4,3.7c0,1.4,0,2.7,0,4.1
		c0,5.4,0,10.7,0,16.2c27.7,0,55.1,0,82.7,0c0-6.7,0-13.2,0-19.7c0-2.7,1.3-4.3,3.4-4.3c2.1,0,3.4,1.6,3.4,4.3c0,5.8,0,11.6,0,17.4
		c0,0.8,0,1.5,0,2.2c11.5,0,22.8,0,34.2,0c-0.6-7.1-1.2-14-1.8-20.8c-11.3,1.3-20.5-2.1-27.1-11.2c-6.6-9.1-6.8-19-2.1-29.2
		c-0.6-0.1-0.9-0.3-1.3-0.3c-7.5-0.1-14.9-0.3-22.4-0.4c-0.5,0-1.3,0.9-1.5,1.6c-4,11.5-14.3,19.1-26.3,19.1
		c-11.9,0-22.2-7.5-26.1-19.1c-0.4-1.3-1.1-1.6-2.3-1.6c-5.7,0-11.5,0-17.2,0c-15.5,0.2-29.3,11.1-32.7,26.3
		c-1.1,5.2-1.4,10.5-2,15.8C291.9-702.4,291.3-695.8,290.7-689.1z M372.9-847.5c-8.4,0-16.7-0.2-24.9,0.1c-5.3,0.1-9.4,4.8-9.4,10.2
		c-0.1,10.8-0.2,21.7,0,32.5c0.4,17.6,15.3,32.5,32.9,33c20,0.6,35.9-14.7,36-34.7c0-9.8,0-19.5,0-29.3c0-8.4-5.4-12.9-13.7-11.6
		c-1,6.3-5,10.2-10.5,10.1C377.8-837.2,373.8-841.1,372.9-847.5z M417.8-826.9c0-0.6,0.1-1,0.1-1.4c0-9.8,0.1-19.7,0-29.5
		c-0.1-13.6-10.7-24-24.3-24.1c-9-0.1-17.9,0-26.9,0c-6.1,0-10.3,3.9-10.8,10c-0.2,2.3-1.4,3.7-3.3,3.8c-1.9,0.1-3.2-1.2-3.6-3.5
		c-0.4-2.3-1.5-3.3-4-3.3c-1.9,0-3.7,0-5.6,0c-6.8,0-11.1,4.3-11.1,11.2c0,11.6,0,23.3,0,34.9c0,0.7,0.1,1.4,0.1,2.1
		c1.2,0,2.2,0,3.4,0c0-3.2,0-6.4,0-9.5c0-10.6,7.4-18,18-18c7.8,0,15.6,0,23.5,0c1.4,0,2.3-0.3,3-1.7c1.2-2.4,2.7-4.7,4.3-7
		c1.6-2.2,4.2-2.2,5.8,0c1.1,1.5,2.4,3,3,4.7c1.3,3.5,3.6,4.1,7.1,4.1c10.7-0.2,18,7.3,18.1,17.9c0,3.1,0,6.3,0,9.5
		C415.6-826.9,416.5-826.9,417.8-826.9z M455.7-868.2c0-2.2,0-4,0-5.9c0-0.5,0-1,0-1.5c-0.3-3.4-3.1-6.2-6.5-6.4
		c-3.4-0.2-6.5,2.2-7.1,5.6c-0.2,0.9-0.1,1.9-0.1,2.8c0,37.6,0,75.2,0,112.9c0,2.6-0.8,4.2-3.2,5.5c-9.9,5.3-13.5,17.5-8.4,27.5
		c5.1,9.9,17.3,14.1,27.3,9.2c7.4-3.6,11.4-9.7,11.7-18c0.3-8.4-3.5-14.8-10.9-18.9c-2-1.1-3-2.5-2.8-4.8c0.1-1.5,0-3,0-4.4
		c-1.3,0-2.3,0-3.4,0c0,5.2,0.1,10.3,0,15.4c0,1.5,0.3,2.4,1.8,3.2c4.1,2.2,6,7.1,4.8,11.6c-1.2,4.5-5.3,7.6-10.1,7.6
		c-4.6,0-8.6-3.1-9.8-7.6c-1.2-4.5,0.6-9.4,4.8-11.6c1.5-0.8,1.7-1.7,1.7-3.2c0-29.6,0-59.2,0-88.7c0-0.8,0-1.7,0-2.7
		c3.6,0,6.9,0,10.2,0c0-2.4,0-4.5,0-6.9c-2.3,0-4.5,0-6.6,0c0-2.4,0-4.6,0-6.9c2.3,0,4.4,0,6.6,0c0-2.3,0-4.5,0-6.9
		c-2.3,0-4.5,0-6.6,0c0-2.4,0-4.5,0-6.8C451.2-868.2,453.4-868.2,455.7-868.2z M359.2-767.2c0,2.2,0,4.1,0,5.9
		c-0.1,3.4-1.5,6.3-4.3,8.2c-1.4,0.9-1.5,1.7-0.9,3.1c3.6,7.9,9.8,12.4,18.4,12.6c8.8,0.3,15.2-3.9,19.2-11.8c0.5-0.9,0.7-1.9,1.1-3
		c-6.4-3.3-6.1-9.1-5.9-15.1C377.6-764.1,368.6-764,359.2-767.2z M331.6-819.9c-1,0-1.8,0-2.5,0c-3.1,0-4.3,1.2-4.3,4.3
		c0,3.1,0,6.2,0,9.2c0,2.3,1.3,3.6,3.6,3.7c1.1,0.1,2.1,0,3.2,0C331.6-808.5,331.6-814.1,331.6-819.9z M414.4-802.7
		c1.3,0,2.4,0.1,3.5,0c2-0.1,3.3-1.4,3.3-3.5c0.1-3.4,0.1-6.9,0-10.3c0-1.8-1.1-3-2.8-3.3c-1.3-0.2-2.6,0-4,0
		C414.4-814.1,414.4-808.6,414.4-802.7z M383.8-854.6c-0.3,0-0.6,0.1-0.9,0.1c-0.9,2.2-2.1,4.4-2.7,6.7c-0.2,0.9,0.5,2.6,1.3,3
		c1,0.6,2.7,0.6,3.7,0.1c0.8-0.4,1.7-2.1,1.5-2.9C386-850.1,384.8-852.3,383.8-854.6z M448.8-733.8c1.8,0,3.4-1.5,3.5-3.3
		c0.1-1.9-1.6-3.6-3.5-3.5c-1.9,0-3.4,1.6-3.4,3.4C445.4-735.4,447-733.8,448.8-733.8z M452.4-833.6c0,2.3,0,4.4,0,6.7
		c1.1,0,2.2,0,3.2,0c0-2.3,0-4.5,0-6.7C454.5-833.6,453.5-833.6,452.4-833.6z M452.4-813.2c1.2,0,2.2,0,3.2,0c0-2.3,0-4.5,0-6.6
		c-1.1,0-2.1,0-3.2,0C452.4-817.6,452.4-815.5,452.4-813.2z M452.4-806.1c0,2.3,0,4.5,0,6.6c1.1,0,2.2,0,3.2,0c0-2.3,0-4.5,0-6.6
		C454.5-806.1,453.5-806.1,452.4-806.1z M455.6-785.6c0-2.3,0-4.4,0-6.7c-1.1,0-2.2,0-3.2,0c0,2.3,0,4.5,0,6.7
		C453.6-785.6,454.5-785.6,455.6-785.6z M452.5-778.5c0,2.3,0,4.5,0,6.7c1.1,0,2.2,0,3.1,0c0-2.3,0-4.5,0-6.7
		C454.5-778.5,453.6-778.5,452.5-778.5z"/>
	<path class="st0" d="M310.9-761.4c-9.8-0.1-16.9-10.5-12.3-18.8c2.8-5,6.4-9.7,9.8-14.3c1.4-1.9,3.9-1.9,5.2,0
		c3.4,4.6,7,9.2,9.8,14.3C328-771.8,320.7-761.3,310.9-761.4z M311.4-786.9c-0.3,0-0.6-0.1-0.9-0.1c-1.9,3.1-4,6.2-5.7,9.4
		c-1.5,2.8-0.5,5.9,2,7.8c2.5,1.9,5.9,1.9,8.4,0c2.5-2,3.4-5,1.9-7.8C315.4-780.7,313.3-783.8,311.4-786.9z"/>
	<path class="st0" d="M307.6-820c-6.9,0.1-12.3-6.7-9.8-13.1c1.7-4.6,4.4-8.8,7-13c1.2-2.1,4.2-2,5.5,0c2.6,4.2,5.3,8.4,7,13
		C319.6-826.7,314.4-820,307.6-820z M307.9-837.4c-0.3,0-0.6,0-0.9,0c-1,2.2-2.1,4.3-2.7,6.6c-0.2,0.9,0.5,2.7,1.4,3.2
		c0.9,0.6,2.7,0.5,3.7,0c0.8-0.5,1.6-2.2,1.3-3.2C310.1-833,308.9-835.2,307.9-837.4z"/>
	<path class="st0" d="M355.6-820.3c-2.2,0.1-4.3,0.3-6.4,0.3c-2.3,0-3.8-1.4-3.8-3.5c0-2,1.5-3.4,3.9-3.4c5.5,0.1,10.2-1.6,14.1-5.6
		c1.6-1.7,3.7-1.7,5.1-0.2c1.4,1.5,1.3,3.4-0.3,5.2c-0.7,0.8-1.5,1.6-2.4,2.1c-2.2,1.4-3.6,2.8-3.3,5.8c0.2,1.8-1.3,3-3.2,3.1
		C357.5-816.4,356.3-817.6,355.6-820.3z"/>
	<path class="st0" d="M390.4-820.3c-0.7,2.7-2,3.9-3.9,3.7c-2-0.2-3.2-1.7-3.1-4.4c0.1-1.6-0.4-2.6-1.8-3.5
		c-1.5-0.9-2.8-2.2-4.1-3.5c-1.4-1.5-1.4-3.5-0.1-4.8c1.3-1.4,3.4-1.5,4.8-0.1c4.1,4.3,9,6.1,14.9,6c2-0.1,3.4,1.5,3.5,3.4
		c0,1.9-1.4,3.4-3.6,3.5C394.8-820,392.7-820.1,390.4-820.3z"/>
	<path class="st0" d="M373-793.6c5,0.2,9.1,1.9,12.4,5.2c1.7,1.7,1.9,3.8,0.4,5.3c-1.4,1.4-3.4,1.3-5.2-0.3
		c-5-4.4-10.2-4.4-15.4,0.1c-1.8,1.5-3.8,1.6-5.2,0.1c-1.4-1.5-1.2-3.5,0.4-5.1C364.1-791.8,368.3-793.5,373-793.6z"/>
	<path class="st0" d="M374-806.1c1,0,1.8-0.1,2.6,0c1.9,0.2,3.3,1.6,3.3,3.3c0,1.9-1.3,3.4-3.4,3.5c-2.4,0.1-4.7,0.1-7.1,0
		c-2.3-0.1-3.7-2-3.2-4.2c1.1-4.6,2.2-9.2,3.4-13.8c0.5-2,2.4-3,4.1-2.6c1.9,0.5,3,2.3,2.5,4.3C375.6-812.4,374.8-809.4,374-806.1z"
		/>
</g>
<g>
	<path class="st0" d="M79.3,0.9c2.3,0.3,4.7,0.5,7,0.9c11.9,1.8,23.1,5.6,32.9,13.3c11.9,9.4,18,22.1,18.4,38
		c0.1,6.1-0.1,12.3-1.2,18.3c-1.5,8-5.2,14.8-10.3,20.8c-2.3,2.7-4.8,5.4-7.3,7.9c-1.6,1.6-2.4,3.6-2.4,5.9
		c-0.2,5.7,1.3,11.2,2.8,16.6c0.5,1.7,1.1,3.3,1.6,4.9c1.4,4.5-0.8,9-4.9,10.3c-2.1,0.7-4.3,1.3-6.5,1.8c-1.3,0.4-2.4-0.3-2.7-1.5
		c-0.3-1.3,0.3-2.4,1.7-2.8c1.9-0.5,3.7-1,5.6-1.5c2.8-0.8,3.8-2.7,2.8-5.7c-1.9-5.7-3.6-11.4-4.2-17.4c-0.2-2-0.2-4.1-0.1-6.1
		c0.2-3,1.4-5.5,3.6-7.7c3-3,5.8-6.1,8.5-9.4c4.9-6,7.8-13,8.6-21c0.7-7.1,1-14.2-0.2-21.2c-2.3-13-9.2-22.5-19.4-29.3
		c-8.4-5.5-17.6-8.5-27.2-10c-8.7-1.3-17.4-1.3-26,0.8c-6.1,1.5-11.7,4-16.9,7.8c-0.8,0.6-1.8,1-2.6,0.2c-0.5-0.5-0.9-1.5-0.8-2.2
		c0.1-0.6,0.7-1.3,1.3-1.7c6.4-4.8,13.5-7.6,21.1-9c2.6-0.5,5.2-0.8,7.8-1.2C73.2,0.9,76.3,0.9,79.3,0.9z"/>
	<path class="st0" d="M87,92.6c0.5,2.8,1,5.6,1.5,8.4c0.6,3.5-1.9,6-5,5.2c-2.1-0.6-4.2-1.2-6.3-1.8c-2.5-0.7-4.1-2.5-4.8-5.1
		c-1.5-5.5-3-11-4.4-16.5c-0.5-1.8-1.5-2.7-3.2-2.9c-4.9-0.6-8.4-3.3-10.4-8.2c-0.1-0.3-0.2-0.5-0.4-0.8c-3.8,1.8-7.6,2.1-11.5,0.5
		c-0.5-0.2-0.9-0.4-1.4-0.6c-1.2-0.7-1.7-1.8-1.2-3c0.5-1.1,1.6-1.6,2.8-1c2.5,1.3,5.1,1.6,7.8,0.7c0.9-0.3,1.8-0.8,2.9-1.3
		c-0.5-0.5-0.8-0.8-1.2-1c-4.3-3.9-3.9-11.4,0.8-14.7c1.4-1,2.6-0.8,3.3,0.3c0.7,1.1,0.3,2.3-1,3.3c-3,2.3-2.8,6.7,0.5,8.4
		c1.2,0.6,1.8,1.5,1.6,2.9c-0.8,6,4,10.7,9.1,10.1c0.7-0.1,1.6,0.5,2.1,1.1c2.5,3.3,5.5,3.9,8.8,1.5c1-0.7,1.9-0.7,2.8,0
		c5.2,3.9,10.9,2.5,14.1-3.3c0.7-1.4,1.8-1.8,2.9-1.2c1.1,0.6,1.3,1.9,0.7,3.3c-0.3,0.7-0.8,1.4-1.2,2.2c2.4,2.4,5.3,3.7,8.5,4
		c10.8,0.7,18.2-11,13.7-21.7c-0.8-2-0.7-2.5,0.9-3.9c3.4-3.1,5-7,4.3-11.8c-0.8-4.9-3.4-8.2-7.7-9.8c-1.4-0.5-2-1.3-2.4-2.9
		c-1.7-8.5-10.5-12.4-17.4-7.9c-1.9,1.3-2.8,1-3.9-1.1c-4.5-8.8-15-10.7-21.9-3.9c-1.4,1.4-1.9,1.5-3.5,0.4
		c-5.6-3.5-12.5-0.9-14.8,5.7c-0.5,1.5-1.3,2.1-2.7,2.3c-7.7,1-12.6,9.4-10.1,17.3c0.5,1.5,0.4,2.7-0.6,4c-2.2,3-2.6,6.4-1.7,10
		c0.3,1.1,0.3,2-0.5,2.8c-1.2,1.1-2.8,0.5-3.3-1.4c-1.2-4.5-0.8-8.8,1.5-12.8c0.5-0.9,0.6-1.7,0.4-2.7C33.5,36.1,39,26.6,48,24.3
		c0.5-0.1,1.1-0.6,1.3-1.1c3.6-7.6,11.3-10.6,18.6-7.4c0.4,0.2,1.2,0.2,1.5-0.1c8.9-6.8,19.4-5,25.9,4.4c0.1,0.2,0.2,0.3,0.3,0.4
		c1.6-0.5,3.2-1.1,4.8-1.4c7.8-1.3,14.9,3.5,17.3,11.6c0.2,0.6,0.7,1.2,1.2,1.5c10.1,4.8,12.7,18.9,4.8,27.4c-0.6,0.7-0.7,1.1-0.4,2
		c3.2,9.8-1.3,20.5-10.2,24.5c-0.8,0.3-1.1,0.8-1.3,1.6c-1.3,5.1-4.4,8.5-9.1,9.8c-4.7,1.3-8.9-0.1-12.4-3.7c-0.8-0.8-2-1-3-1.5
		C87.3,92.4,87.1,92.5,87,92.6z M72.6,84.4c0-0.2,0,0,0,0.1c1.2,4.6,2.4,9.2,3.7,13.7c0.2,0.7,0.8,1.5,1.4,1.7
		c2.2,0.8,4.4,1.4,6.6,2c0.1-0.3,0.1-0.3,0.1-0.4c-1-5.7-2-11.5-3.1-17.2c-0.2-0.8-2.2-1.9-2.9-1.7C76.6,83.2,74.7,83.8,72.6,84.4z
		 M107.5,87.5c-5.3,0.3-9.8-1.5-13.3-4.9c-3,1-5.7,1.8-8.5,2.7c-0.2,1.3,0.5,2.3,1.9,2.8c0.7,0.2,1.5,0.4,2.2,0.4
		c1.2,0,2,0.4,2.7,1.5c1.9,2.7,4.6,3.9,7.7,3.7C103.6,93.3,106.9,90.6,107.5,87.5z"/>
	<path class="st0" d="M22.5,110.5c-1.5-1.1-3.7-0.9-4.2-3.4c-0.4-2,0-3.7,1-5.4c-0.7-0.7-1.4-1.3-2-1.9c-2.1-2.2-1.8-5.1,0.4-7
		c1-0.8,1.8-1.8,2.9-2.9c-0.8-0.4-1.4-0.7-1.9-0.9c-1.2-0.6-2.5-1.1-3.6-2c-3.3-2.6-3.8-7.3-1.1-10.6c1.1-1.3,2.4-2.4,3.7-3.6
		c2.4-2.2,4.6-4.6,6.2-7.6c0.5-0.9,0.6-1.8,0.1-2.7c-0.7-1.2-1.3-2.4-2-3.6c-1.3-2.4-1.5-4.8-0.2-7.3c1.9-3.6,2.1-7.5,2.5-11.4
		c1-8.1,4-15.3,8.9-21.5c0.9-1.1,2-1.3,2.9-0.5c0.9,0.8,1.1,2.1,0.2,3.2c-5.3,6.6-7.9,14.3-8.5,23c-0.2,3.1-1.1,6.1-2.4,8.8
		c-0.7,1.4-0.6,2.6,0.2,3.9c0.7,1.1,1.3,2.2,1.9,3.3c1.2,2.4,1.1,4.7-0.2,7c-2.1,3.7-4.8,6.8-8,9.5c-0.7,0.6-1.5,1.3-2.1,2
		c-1.3,1.5-1.1,3.6,0.5,4.7c0.9,0.6,2,1,3,1.5c3.8,1.6,4.6,4.8,2.2,8.2c-0.8,1.1-1.8,2.2-2.6,3.1c0.8,0.9,1.7,2.1,2.7,3.2
		c1.5,1.7,1.4,2.6-0.1,4.3c-0.4,0.4-0.6,0.9-1,1.5c0.8,0.4,1.5,0.7,2.1,1.1c2.5,1.5,3.1,3.8,1.8,6.5c-2,4-0.8,8.3,2.9,10.5
		c3.3,1.9,6.9,1.8,10.5,1.3c3-0.4,6-0.9,9-1.3c7.3-1,13,2.1,17,8.5c1.9,3,3.3,6.4,4.8,9.7c1.4,3.1,2.4,3.7,5.5,2.9
		c7.6-2.1,15.2-4.2,22.8-6.3c1.5-0.4,2.6,0.1,2.9,1.4c0.3,1.3-0.3,2.3-1.9,2.8c-7.9,2.2-15.7,4.4-23.6,6.6c-4.1,1.1-7.4-0.9-9.2-5
		c-1.5-3.5-3.1-7-5.1-10.1c-3.2-5-7.8-6.8-13.4-5.9c-3.8,0.6-7.6,1.1-11.4,1.5c-3.5,0.4-6.8-0.3-9.8-2.1c-5.5-3.2-7.5-9.9-4.8-15.9
		C22.3,111.1,22.4,110.9,22.5,110.5z"/>
	<path class="st0" d="M61.6,47.5c0-12.2,8.6-22.5,19.8-23.7c0.4,0,0.9-0.1,1.3-0.1c1.1,0,1.9,0.6,2,1.9c0.2,1.2-0.5,2.2-1.7,2.4
		c-0.8,0.2-1.7,0.2-2.5,0.3c-11,2-17.6,14.3-14,25.6c0.1,0.3,0.2,0.5,0.3,0.8c0.5,1.6,0.2,2.8-1,3.3c-1.2,0.5-2.4-0.1-2.8-1.8
		c-0.7-2.9-1.3-5.8-1.9-8.7C61.3,47.6,61.5,47.5,61.6,47.5z"/>
	<path class="st0" d="M69.5,47.6c0.2-7.7,5.4-14.1,12.4-15.1c0.4-0.1,0.8-0.1,1.2-0.1c1.2,0,2,0.8,2.1,1.9c0.1,1.1-0.6,2.1-1.8,2.4
		c-1,0.2-2,0.3-3,0.7c-5.2,1.9-7.9,7.9-6.3,13.5c0.6,2.2,0.4,3.3-0.9,3.8c-1.4,0.5-2.4-0.3-3-2.5C69.9,50.7,69.7,49.1,69.5,47.6z"/>
	<path class="st0" d="M98,47.5c-0.2,7.6-5.5,14.3-12.4,15.1C84,62.8,83,62.3,82.8,61c-0.2-1.4,0.5-2.3,2.2-2.6c5-1,8.2-4.4,8.6-9.7
		c0.1-1.6-0.3-3.3-0.6-4.9c-0.4-1.7-0.1-2.8,1-3.3c1.2-0.5,2.3,0.1,2.8,1.8C97.3,43.9,97.6,45.7,98,47.5z"/>
	<path class="st0" d="M83.8,54c-3.4,0-6.1-2.8-6.1-6.5c0-3.6,2.7-6.5,6-6.6c3.3,0,6,2.9,6,6.4C89.8,51,87.2,53.9,83.8,54z
		 M85.7,47.5c0-1.1-0.8-2.1-1.9-2.2c-1.1-0.1-2.1,0.9-2.1,2.1c0,1.2,0.8,2.1,1.9,2.2C84.8,49.7,85.7,48.7,85.7,47.5z"/>
	<path class="st0" d="M86.6,71.3c-2.1,0.1-2.9-0.5-3.1-1.8c-0.1-1.3,0.6-2.3,1.9-2.5c5.8-0.7,10.3-3.8,13.6-9
		c0.7-1.1,1.9-1.4,2.8-0.7c1,0.7,1.2,2,0.5,3.2C98.4,66.8,92.9,70.4,86.6,71.3z"/>
	<path class="st0" d="M102.2,47.9c-0.6-2.6-1.1-5.3-1.8-7.9c-0.4-1.6-0.1-2.9,1.1-3.2c1.1-0.3,2,0.1,2.5,1.3c1.4,3.5,2,7.2,1.8,11
		c-0.1,1.8-0.9,2.7-2.3,2.6c-1.2-0.1-1.8-1.1-1.7-2.9c0-0.2,0-0.5,0-0.7C101.9,48,102.1,48,102.2,47.9z"/>
</g>
</svg>
