<?xml version="1.0" encoding="utf-8"?>
<!-- Generator: Adobe Illustrator 24.3.0, SVG Export Plug-In . SVG Version: 6.00 Build 0)  -->
<svg version="1.1" id="Layer_1" xmlns="http://www.w3.org/2000/svg" xmlns:xlink="http://www.w3.org/1999/xlink" x="0px" y="0px"
	 viewBox="0 0 150 150" style="enable-background:new 0 0 150 150;" xml:space="preserve">
<style type="text/css">
	.st0{fill:#005BAB;}
</style>
<g>
	<path class="st0" d="M80,6.6c3.8-7.7,13.3-9.3,18.2,0c10.7-3.3,13.7-1.6,15.9,9.1c10.9-2.5,12.8-0.9,14.3,12.1c0.5,0,1.1,0,1.7-0.2
		c7.3-2.4,11.8,0.3,12,8.1c0.4,15.9,0.3,31.8,0.2,47.7c0,21.9-5.5,43-10.6,64.1c-0.2,0.8-0.6,1.6-0.9,2.4c-0.4-0.1-0.8-0.1-1.2-0.2
		c0.2-1.7,0.4-3.3,0.7-5c3-15.8,7-31.4,8.8-47.4c2.3-20.5,3-41.1,0.8-61.8c-0.5-4.8-2.7-7.3-6.4-6.9c-4,0.4-5.5,3.1-5.5,6.8
		c0,5.5,0,11,0,16.5c-0.5,0-1,0.1-1.5,0.1c-0.1-1.6-0.4-3.1-0.4-4.7c0-8,0-15.9-0.1-23.9c0-3.5-1.7-6.5-5.2-6.7
		c-2.2-0.1-4.7,1.6-6.6,3.2c-0.9,0.7-0.8,2.9-0.8,4.4c-0.1,6.1,0,12.2,0,18.3c0,1.4-0.3,2.9-0.4,4.3c-0.5,0-0.9,0-1.4,0
		c-0.1-1.4-0.4-2.8-0.4-4.3c0-7.8-0.2-15.6,0.1-23.4c0.4-11.1-2.4-12.3-6.8-12.3c-5,0-6.6,3.1-6.5,12.2c0,8.7,0,17.4,0,26.1
		c-0.4,0.1-0.9,0.1-1.3,0.2c-0.2-1.5-0.6-2.9-0.6-4.4c-0.1-9.8,0-19.7,0-29.5c0-6.2-2.7-9.5-7.3-9.3c-4.5,0.1-6.9,3.3-6.9,9.3
		c0,9.4,0,18.8,0,28.1c0,1.4-0.2,2.8-0.3,4.2c-0.4,0-0.9,0-1.3,0.1c-0.1-1.4-0.3-2.8-0.3-4.2c0-8.1,0.1-16.3,0-24.4
		C79.8,7.9,74.9,2.5,68,2.2c-7.3-0.3-12.5,4.3-13.3,12.1c-0.7,6.7-0.9,13.5-2.1,20c-0.8,4.3-2.7,8.5-4.8,12.3
		c-2.3,4-5.8,7.4-8.1,11.4c-4.9,8.7-5.3,18.1,0.3,26.3c8.7,12.7,12.2,26.8,13.7,41.8c0.7,6.7,1.7,13.3,2.5,20c0.1,1.2,0,2.3-0.9,3.7
		c-0.3-1-0.7-2-0.9-3.1c-1.5-10.4-3.1-20.7-4.3-31.1C49,105.8,45.5,97,40.1,88.7c-8.3-12.7-8.5-25.6,1.4-36.7
		c7.7-8.6,10.2-18.2,10.5-29c0.1-3.1,0.5-6.2,0.9-9.3C53.5,7.6,56.6,3,62.5,1c5.8-2,11.1-0.7,15.5,3.8C78.5,5.3,79.1,5.8,80,6.6z"/>
	<path class="st0" d="M74.4,70.7c0.1,9.2-7.3,16.7-16.5,16.8c-9.4,0.1-17-7.3-17.1-16.8c-0.1-9.1,7.4-16.7,16.5-16.9
		C66.7,53.7,74.3,61.2,74.4,70.7z M57.7,56.4c-8-0.1-14.4,6.2-14.4,14.1c0,8.2,6,14.3,14.1,14.4c7.8,0.1,14.7-6.3,14.8-13.9
		C72.3,63.2,65.7,56.5,57.7,56.4z"/>
	<path class="st0" d="M91.9,89.9c8.9-12.2,8.7-24.2-1.4-36.6c5.5,2.3,9.5,9.8,9.8,17.2C100.6,78.2,98.1,84.9,91.9,89.9z"/>
	<path class="st0" d="M15.4,89.5C3.3,81,7,58.2,15.5,54.1c-1.8,5.5-5.3,11.6-5.3,17.8C10.2,77.9,13.6,84,15.4,89.5z"/>
	<path class="st0" d="M23.6,60.1c-6.9,8.2-6.2,15.8-0.1,23.6c-4.5-1.2-7.3-6.9-6.9-12.9C17.1,65,19.6,60.7,23.6,60.1z"/>
	<path class="st0" d="M85.5,84c5.6-8.2,5.9-16-1-24.2c4.2,1.4,6.5,5.1,6.9,10.3C91.8,75.7,90.3,80.5,85.5,84z"/>
	<path class="st0" d="M75.9,20.7c-3.8,3.2-13.4,3.4-17.7,0C64.2,20.7,70,20.7,75.9,20.7z"/>
	<path class="st0" d="M80,66.3c4,2.6,4,8.2,0,11C80,73.8,80,69.9,80,66.3z"/>
	<path class="st0" d="M28.3,66.2c0,3.8,0,7.7,0,11.2C24.1,74.7,24.1,69,28.3,66.2z"/>
</g>
</svg>
