<?xml version="1.0" encoding="utf-8"?>
<!-- Generator: Adobe Illustrator 24.3.0, SVG Export Plug-In . SVG Version: 6.00 Build 0)  -->
<svg version="1.1" id="Layer_1" xmlns="http://www.w3.org/2000/svg" xmlns:xlink="http://www.w3.org/1999/xlink" x="0px" y="0px"
	 viewBox="0 0 150 150" style="enable-background:new 0 0 150 150;" xml:space="preserve">
<style type="text/css">
	.st0{fill:#005BAB;}
</style>
<g>
	<g>
		<g>
			<g>
				<path class="st0" d="M38.2,131.5c-0.2,0-0.4,0-0.6,0c-2.8-0.2-6.7-4.3-6.7-7c0-1.3,1.2-2.9,2.7-4.4c-0.6-0.3-1.2-0.6-1.7-1
					c-3.5,2.6-6.6,2.6-7.6,2.5c-1.1,0.1-4.1,0.1-7.6-2.5c-0.5,0.3-1,0.7-1.7,1c1.5,1.5,2.7,3.1,2.7,4.4c0,2.7-3.9,6.7-6.7,7
					c-1.7,0.1-3.8-0.3-4.6-1.8c-0.3-0.5-0.7-1.7,0.4-3.2c0.2-0.2,0.3-0.4,0.5-0.6c0.2-0.3,0.6-0.7,0.8-1c-0.3-0.4-0.9-1.1-1.4-1.7
					c-1.9-2.2-2.8-3.3-3.1-4c-0.9-2.1-0.5-3.6-0.1-4.6c0.9-1.8,2.7-2.5,3.4-2.7c1.6-0.5,2.9-0.8,3.9-1c-0.4-2.2-0.7-5.4-0.1-7.2
					c0.3-1,1.4-2.6,4.2-2.6h19.2c2.8,0,3.9,1.5,4.2,2.6c0.6,1.8,0.2,5-0.1,7.2c1,0.2,2.2,0.5,3.9,1c0.8,0.2,2.6,0.9,3.5,2.7
					c0.4,0.9,0.8,2.5-0.1,4.6c-0.3,0.7-1.2,1.8-3.1,4c-0.5,0.6-1.1,1.3-1.4,1.7c0.2,0.3,0.5,0.7,0.8,1c0.1,0.2,0.3,0.4,0.5,0.6
					c1.1,1.5,0.7,2.7,0.4,3.2C41.5,131.1,39.7,131.5,38.2,131.5z M34.7,124.6c0.2,1,2.3,3,3.2,3.1c0.1,0,0.1,0,0.2,0
					c-1-1.3-2-2.9-0.8-4.6c0.3-0.5,0.9-1.2,2-2.4c0.8-1,2.2-2.6,2.5-3.1c0.2-0.4,0.3-1,0.1-1.5c-0.2-0.4-0.8-0.7-1.1-0.8
					c-3.6-1-4.7-1.2-5-1.2c-0.6,0-1.1-0.3-1.5-0.7c-0.4-0.4-0.5-1-0.4-1.6c0.6-2.6,1-6,0.7-7.1c-0.1,0-0.3-0.1-0.7-0.1H14.7
					c-0.4,0-0.6,0.1-0.7,0.1c-0.3,1.1,0.1,4.5,0.7,7.1c0.1,0.6,0,1.1-0.4,1.6c-0.4,0.4-0.9,0.7-1.5,0.7c-0.4,0-1.5,0.2-5,1.2
					c-0.3,0.1-0.9,0.4-1.1,0.8c-0.2,0.4,0,1,0.1,1.5c0.3,0.5,1.7,2.1,2.5,3.1c1,1.2,1.7,1.9,2,2.4c1.1,1.7,0.1,3.3-0.8,4.6
					c0.1,0,0.1,0,0.2,0c0.9-0.1,2.9-2.2,3.2-3.2c-0.4-0.8-2.3-2.7-4.2-4.1c-0.6-0.5-0.9-1.3-0.6-2.1c0.3-0.8,1-1.2,1.8-1.3
					c2.9,0,4.1-1.5,4.1-1.6c0.3-0.5,0.8-0.7,1.3-0.8c0.5-0.1,1.1,0.1,1.5,0.5c3.3,3.1,6,2.6,6.1,2.6c0.3-0.1,0.5-0.1,0.8,0
					c0.1,0,2.7,0.4,6.1-2.6c0.4-0.4,0.9-0.5,1.5-0.5c0.5,0.1,1,0.4,1.3,0.8c0,0,1.2,1.6,4.1,1.6c0,0,0.1,0,0.1,0
					c0.8,0,1.5,0.5,1.8,1.3c0.3,0.8,0,1.6-0.6,2.1C36.9,122,35,123.9,34.7,124.6z"/>
			</g>
			<g>
				<path class="st0" d="M4.4,106.2c-0.3,0-0.7,0-1.1-0.1c-2.3-0.6-3.2-2.9-3-4.9c0.1-1.1,0.8-6.3,10-12.9c0.7-0.6,4.7-4,9.5-4h9
					c4.8,0,8.8,3.4,9.5,4c9.2,6.6,9.9,11.8,10,12.9c0.2,2-0.6,4.3-3,4.9c-2.5,0.6-4.3-1-5-2c0-0.1-0.1-0.1-0.1-0.2
					c-1.3-2.6-3-4.5-4.5-5.8c0.1,1.3,0,2.6,0,3.3c-0.1,1-0.9,1.8-2,1.8c-1-0.1-1.8-0.9-1.8-2c0.1-2.6-0.1-5.6-0.5-6.2
					c-0.5-0.7-0.5-1.6,0-2.3c0.5-0.7,1.5-0.9,2.3-0.5c0.3,0.1,6.3,2.9,9.8,9.9c0.1,0.1,0.4,0.5,0.9,0.4c0.1-0.1,0.2-0.7,0.1-0.9
					c0-0.1,0-0.1,0-0.2c0-0.4-0.7-4.5-8.5-10.1c-0.1,0-0.1-0.1-0.2-0.1c0,0-3.4-3.1-7.1-3.1h-9c-3.7,0-7,3-7.1,3.1
					c-0.1,0-0.1,0.1-0.2,0.1c-7.8,5.6-8.4,9.7-8.5,10.1c0,0.1,0,0.1,0,0.2c0,0.3,0,0.8,0.1,0.9c0.4,0.1,0.8-0.3,0.9-0.4
					c3.5-6.9,9.5-9.7,9.8-9.9c0.8-0.4,1.7-0.1,2.3,0.5c0.5,0.7,0.5,1.6,0,2.3c-0.4,0.6-0.7,3.5-0.5,6.2c0.1,1-0.7,1.9-1.8,2
					c-1,0-1.9-0.7-2-1.8c0-0.8-0.1-2,0-3.3c-1.5,1.3-3.2,3.2-4.5,5.8c0,0.1-0.1,0.1-0.1,0.2C7.7,104.9,6.3,106.2,4.4,106.2z"/>
			</g>
			<g>
				<path class="st0" d="M24.3,86c-6.4,0-11.6-5.2-11.6-11.6c0-6.4,5.2-11.6,11.6-11.6c6.4,0,11.6,5.2,11.6,11.6
					C35.9,80.8,30.7,86,24.3,86z M24.3,66.6c-4.3,0-7.9,3.5-7.9,7.9c0,4.3,3.5,7.9,7.9,7.9s7.9-3.5,7.9-7.9
					C32.1,70.1,28.6,66.6,24.3,66.6z"/>
			</g>
		</g>
		<g>
			<g>
				<path class="st0" d="M76,67.3c-6.7,0-12.1-5.4-12.1-12.1c0-6.7,5.4-12.1,12.1-12.1s12.1,5.4,12.1,12.1
					C88.1,61.8,82.7,67.3,76,67.3z M76,46.9c-4.6,0-8.3,3.7-8.3,8.3c0,4.6,3.7,8.3,8.3,8.3c4.6,0,8.3-3.7,8.3-8.3
					C84.3,50.6,80.6,46.9,76,46.9z"/>
			</g>
			<g>
				<path class="st0" d="M83,132.9c-3.6,0-6.6-2.9-6.6-6.5v-20h-0.9v20c0,3.6-2.9,6.5-6.6,6.5c-3.6,0-6.6-2.9-6.6-6.5V88
					c-1.1,3.2-1.7,6.4-2,8.6c-0.4,2.7-2.7,4.8-5.5,4.8c-0.3,0-0.5,0-0.8-0.1c-3-0.4-5.1-3.2-4.7-6.2c0.4-2.8,4.1-27.4,19.6-29.4
					c0.2,0,0.5,0,0.7,0c0.1,0,0.3-0.1,0.4-0.1h11.7c0.1,0,0.3,0,0.4,0.1c0.2,0,0.5,0,0.7,0c15.4,2.1,19.2,26.6,19.6,29.4
					c0.4,3-1.7,5.8-4.7,6.2c-0.2,0-0.5,0.1-0.7,0.1c-2.7,0-5.1-2.1-5.5-4.8c-0.3-2.2-1-5.4-2-8.6v16.5c0,0,0,0.1,0,0.1v21.7
					C89.6,129.9,86.6,132.9,83,132.9z M73.7,102.6h4.7c1,0,1.9,0.8,1.9,1.9v21.9c0,1.6,1.3,2.8,2.8,2.8c1.6,0,2.8-1.3,2.8-2.8v-21.9
					c0,0,0-0.1,0-0.1v-25c0-0.8,0.5-1.6,1.3-1.8c0.8-0.2,1.6,0.1,2.1,0.8c3.6,5.5,5.5,14,6,17.8c0.1,0.9,0.9,1.5,1.8,1.5
					c0.1,0,0.2,0,0.2,0c1-0.1,1.7-1,1.5-2c-0.1-1-3.4-24.5-16.4-26.2c0,0,0,0,0,0c-0.1,0-0.2,0-0.3,0c-0.2,0-0.4,0-0.6-0.1h-11
					c-0.2,0.1-0.4,0.1-0.6,0.1c-0.1,0-0.2,0-0.3,0c-12.9,1.7-16.2,25.2-16.4,26.2c-0.1,1,0.6,1.9,1.5,2c0.1,0,0.2,0,0.2,0
					c0.9,0,1.6-0.7,1.8-1.5c0.5-3.7,2.4-12.2,6-17.8c0.5-0.7,1.3-1,2.1-0.8c0.8,0.2,1.3,1,1.3,1.8v46.9c0,1.6,1.3,2.8,2.8,2.8
					c1.6,0,2.8-1.3,2.8-2.8v-21.9C71.8,103.4,72.6,102.6,73.7,102.6z"/>
			</g>
		</g>
		<g>
			<g>
				<path class="st0" d="M126.5,42.4c-7,0-12.6-5.7-12.6-12.6c0-7,5.7-12.6,12.6-12.6c7,0,12.6,5.7,12.6,12.6
					C139.1,36.7,133.5,42.4,126.5,42.4z M126.5,20.9c-4.9,0-8.9,4-8.9,8.9c0,4.9,4,8.9,8.9,8.9c4.9,0,8.9-4,8.9-8.9
					C135.4,24.9,131.4,20.9,126.5,20.9z"/>
			</g>
			<g>
				<path class="st0" d="M133.5,132.6c-3.4,0-6.2-2.8-6.2-6.2V92.1h-1.9v34.4c0,3.4-2.8,6.2-6.2,6.2c-3.4,0-6.2-2.8-6.2-6.2V87.9
					c-1,1-2.4,1.6-3.9,1.6c-3.2,0-5.7-2.6-5.7-5.7V55.3c0-7.9,6.5-14.4,14.4-14.4h17.6c7.9,0,14.4,6.5,14.4,14.4v28.4
					c0,3.2-2.6,5.7-5.7,5.7c-1.7,0-3.3-0.8-4.3-2v39C139.7,129.9,136.9,132.6,133.5,132.6z M123.5,88.3h5.7c1,0,1.9,0.8,1.9,1.9
					v36.3c0,1.4,1.1,2.5,2.5,2.5c1.4,0,2.5-1.1,2.5-2.5V51.2c0-0.7,0.4-1.3,1-1.6c0.6-0.3,1.3-0.3,1.9,0c2,1.2,3.2,3.4,3.2,5.7v28.4
					c0,1.1,0.9,2,2,2c1.1,0,2-0.9,2-2V55.3c0-5.9-4.8-10.7-10.7-10.7h-17.6c-5.9,0-10.7,4.8-10.7,10.7v28.4c0,1.1,0.9,2,2,2
					c1.1,0,2-0.9,2-2V55.3c0-2.1,1-4,2.7-5.3c0.6-0.4,1.3-0.5,2-0.2c0.6,0.3,1,1,1,1.7v75c0,1.4,1.1,2.5,2.5,2.5
					c1.4,0,2.5-1.1,2.5-2.5V90.2C121.6,89.2,122.4,88.3,123.5,88.3z"/>
			</g>
		</g>
	</g>
	<g>
		<path class="st0" d="M16.6,118.5c-0.5,0-1-0.2-1.4-0.6l-3.7-4.2c-0.7-0.8-0.6-2,0.2-2.6c0.8-0.7,2-0.6,2.6,0.2l3.7,4.2
			c0.7,0.8,0.6,2-0.2,2.6C17.4,118.4,17,118.5,16.6,118.5z"/>
	</g>
	<g>
		<path class="st0" d="M32,118.5c-0.4,0-0.9-0.2-1.2-0.5c-0.8-0.7-0.8-1.9-0.2-2.6l3.7-4.2c0.7-0.8,1.9-0.8,2.6-0.2
			c0.8,0.7,0.8,1.9,0.2,2.6l-3.7,4.2C33,118.3,32.5,118.5,32,118.5z"/>
	</g>
</g>
<g>
	<path class="st0" d="M-591.8,839.1c12,2.4,23.7,1.5,35.5-0.1c21.6-3,43.1-6.6,65.1-5.8c18,0.6,34.1,5.4,48.3,17.3
		c12.9,10.8,27.3,19.6,40.7,29.8c7.3,5.5,14.1,11.7,20.5,18.3c10.2,10.4,17.7,22.5,19.1,38c6.6,0,13.1,0,19.5,0
		c10.2,0,20.3,0,30.5,0c12.6,0,19.6,7.8,17.5,20.3c-3.5,21.4-6.8,42.7-11,64c-5.8,29.8-14.2,58.9-27.6,86.3
		c-24.5,50.2-64.2,83.8-114.9,105.2c-8.6,3.6-17.3,6.8-26.4,10.3c0.2,1.2,0.4,2.4,0.7,3.6c3,10.1,5.6,20.2,9,30.1
		c7.3,21.2-7.6,37.6-25.1,41c-3.2,0.6-6.6,0.9-9.9,0.9c-140.5,0-281,0-421.5,0.1c-8.9,0-17.1-2.1-24.4-7.4
		c-10.5-7.8-14.6-19.7-11-32.2c3.1-10.7,6.3-21.4,9.5-32.1c0.4-1.2,0.6-2.5,1-4.1c-5.7-2.1-11.1-4-16.5-6.1
		c-39.9-15.4-74.9-37.6-101.6-71.7c-21.9-28.1-35.9-60.1-43.9-94.4c-7.2-31.1-12.5-62.7-18.1-94.1c-2.1-11.9,5.1-19.6,17.2-19.7
		c5,0,10,0,15.4,0c-0.7-4.2-1.4-8-1.9-11.9c-3-23.9,5.7-43,24-58.2c15.6-13,33.9-20.6,53.1-25.6c13.2-3.5,22.1-10.5,30.6-21.2
		c50.6-64,115.8-105.3,195.7-122.5c27.3-5.9,54.8-7,82.5-2.5c12.1,2,24.1,5.3,36.2,7.2c14.2,2.3,28.6,2.8,42.7-0.4
		c5-1.1,10.1-3.4,14.4-6.3c82.8-56.5,165.6-113.1,248.3-169.7c28.7-19.6,66.5-4.9,72.9,28.8c3.7,19.6-3,36-19.5,47.4
		c-40.7,28.1-81.6,55.9-122.4,83.9c-41.9,28.7-84,57.2-125.7,86.2c-4.9,3.4-8.7,9.2-11.5,14.6C-583.3,802.9-587.5,820.9-591.8,839.1
		z M-925.7,1265.8c143.6,0,286.3,0,429.6,0c-4.2-14-8.1-27.3-12.2-40.7c-0.2-0.6-0.7-1.2-1.1-1.6c-8.4-8.1-5-23.8,9.4-27.4
		c11.9-3,23.5-7.3,35-11.7c50.2-19.6,87.3-52.8,107.8-103.4c12-29.7,18.8-60.7,24.3-92c1.2-6.6,2.2-13.2,3.4-20.1
		c-254.7,0-508.4,0-762.8,0c1.9,10.8,3.7,21.1,5.5,31.7c2.5,0,4.3,0,6.1,0c98.3,0,196.7,0,295,0c1.8,0,3.7-0.1,5.5,0
		c8.2,0.6,14.6,7.3,14.8,15.5c0.3,9.7-7,16.5-17.8,16.5c-96.8,0-193.7,0-290.5,0c-1.9,0-3.8,0-6.7,0c3.7,12,6.7,23.2,10.5,34.2
		c10.9,31.7,27.3,59.9,53,82.1c27.5,23.7,60,37.3,94.4,47.2c1.6,0.4,3.3,0.3,5,0.3c66.2,0,132.3,0,198.5,0c2,0,4,0,6,0.1
		c7.8,0.5,14,6.5,14.9,14.4c0.8,7.4-3.9,14.7-11.3,16.8c-2.5,0.7-5.3,0.8-7.9,0.8c-63.8,0-127.7,0-191.5,0c-1.9,0-3.9,0-5.8,0
		C-918.3,1241.1-921.9,1253.2-925.7,1265.8z M-948.8,821.8c2.9-0.5,4.3-0.8,5.8-0.9c18.2-2.1,36.4-4.2,54.5-6.5
		c3.1-0.4,6.5-1.3,9.1-3c39.4-27.3,80.9-50.8,126.1-67.4c9.6-3.5,18.5,0.2,21.8,8.9c3.4,8.9-1.2,17.3-10.9,21.4
		c-17.3,7.4-34.6,14.6-51.5,22.9c-14.2,7-27.8,15.4-41.7,23.2c0,0.6,0,1.1,0.1,1.7c6.5,2.8,12.8,6.6,19.6,8c14.6,3.1,29.5,5,44.3,7
		c2.1,0.3,4.8-1,6.7-2.3c21.8-14.7,43.5-29.6,65.2-44.5c5.6-3.8,11.1-7.7,16.9-11.7c-11.9-17.4-23.5-34.5-35.3-51.5
		c-0.8-1.1-2.7-1.8-4.2-1.9c-16.5-2.1-32.9-1.7-49.3,0.6c-44.9,6.3-85.4,23.7-122.7,49C-913.8,788.1-931.7,803.3-948.8,821.8z
		 M-578,742.6c2-1.3,3.5-2.3,5-3.3c61.1-41.8,122.3-83.6,183.4-125.5c18.7-12.8,37.4-25.5,56-38.4c5.6-3.8,7.9-9.6,6.5-15.6
		c-1.3-5.7-6.2-10.9-12.2-10.8c-4.2,0-8.9,1.6-12.4,4c-68.4,46.5-136.7,93.3-204.9,140c-12.5,8.5-25,17.1-37.7,25.8
		C-588.8,726.8-583.6,734.5-578,742.6z M-627.3,936.2c77.6,0,154.4,0,232.8,0c-2.6-4.4-4.1-8.6-7-11.5c-7-7.1-14.1-14.2-22-20.2
		c-15-11.6-30.5-22.6-45.9-33.7c-2.1-1.5-4.7-3-7.2-3.2c-10.2-0.9-20.5-1.7-30.7-1.7c-4,0-8.1,2.4-11.9,3.7
		c1.8,17-6.7,24.1-22.9,20.3c-1.2-0.3-3,0.7-4,1.7c-4.8,4.9-9.1,10.2-14.1,14.8c-7.2,6.7-17.6,6.1-23.7-0.9
		c-6.1-7.1-5-16.7,2.5-23.5c2.9-2.6,5.3-5.6,8.5-9c-9.2-0.6-17.3-1.1-25.4-1.7C-604.7,894.6-614.7,915.7-627.3,936.2z M-799.5,936.5
		c10.9,0,22.1,0.1,33.2-0.1c1.3,0,2.8-0.9,4-1.7c25.2-18.4,48.9-38.5,70.4-61.1c0.6-0.6,1-1.4,1.7-2.3c-1-0.2-1.5-0.4-1.9-0.4
		c-21.6-0.2-43.2-0.3-64.9-0.4c-1.4,0-3.1,0.3-4.2,1c-16.2,11-32.4,22.1-48,32.8C-805.9,915.3-802.8,925.7-799.5,936.5z
		 M-1018.2,936.2c61.9,0,123.3,0,185.2,0c-1-3.4-2-6.4-2.6-9.4c-1-5.4-4.4-8.3-9.5-8.8c-9.4-1-18.8-1.6-28-2.3
		c-2.2,8.6-6.4,13.7-14.4,14.7c-7,0.8-12.8-1.9-15.8-8.1c-1.8-3.7-3.9-4-7.3-3.8c-23.1,1.5-46.2,1.6-69.3-1.8
		C-995.7,914.4-1010.9,922.6-1018.2,936.2z M-673.4,735.5c17.8,26,35.8,52.3,54.1,79.1c0.6-1.4,0.9-2,1.1-2.6
		c5.5-14.4,11-28.8,16.3-43.3c0.5-1.3,0.1-3.5-0.7-4.8c-6.1-9.3-12.6-18.4-18.7-27.7c-1.7-2.5-3.4-3-6.2-2.6
		c-6.8,0.8-13.5,1.6-20.3,1.9C-656.3,735.7-664.7,735.5-673.4,735.5z M-809.9,865.8c-10.7-3.7-21.5-6.2-31.1-11
		c-9.2-4.6-18.5-7.3-28.6-7.6c-2.3-0.1-5,0.6-6.7,2c-13.8,11-27.3,22.3-41,33.5c-1.2,1-2.8,1.6-4.1,2.5c0.4,0.6,0.9,1.1,1.3,1.7
		c5.4-0.3,10.9-0.8,16.3-0.8c19.4-0.3,38.9-0.7,58.3-0.4c4.2,0.1,7.5-0.3,11-2.8C-826.4,876.9-818,871.4-809.9,865.8z M-631.7,870.6
		c-4.4,0-8.1-0.3-11.7,0.1c-1.9,0.2-4.2,1.2-5.3,2.6c-18,21.7-38.1,41.4-59.5,59.7c-1,0.9-2.5,1.3-3.8,1.9c0.5,0.5,0.9,1.1,1.4,1.6
		c7.2,0,14.3,0.1,21.5,0c7.6-0.1,15.3-0.3,22.9-0.4c4.7-6.9,9.7-13.5,14-20.6C-643.7,901.6-636.7,886.9-631.7,870.6z M-1023,875.2
		c-8.3,4.2-15.7,7.4-22.5,11.7c-18.2,11.3-22.9,25.5-15.9,45.6c0.5,1.6,2.1,3.3,3.5,3.8c0.8,0.3,2.7-1.8,3.6-3.1
		c6.5-9.2,13-18.4,19.4-27.6c0.9-1.3,2-2.7,2.5-4.2C-1029.3,893.3-1026.5,885.1-1023,875.2z M-664.6,805.4
		c-16.3,11.2-32.1,22-48.3,33.1c16.7,0,32.3,0,48,0c2.8,0,12.6-13,12-15.8c-0.1-0.6-0.6-1.2-1-1.7
		C-657.4,815.9-660.9,810.8-664.6,805.4z M-931.3,852.2c-0.2-0.4-0.3-0.7-0.5-1.1c-15.2,3.5-30.3,7.1-45.5,10.7
		c-1.2,0.3-2.7,1-3.3,1.9c-3.8,6.5-7.5,13.2-11.2,19.9c8.4,0.7,15.9,1.5,23.5,1.9c1.5,0.1,3.4-1,4.5-2.1c7.9-7.6,15.7-15.3,23.6-23
		C-937.3,857.6-934.3,854.9-931.3,852.2z"/>
	<path class="st0" d="M-576.9,1032.6c-18.6,0-37.3,0-55.9,0c-10.4,0-17.6-6.7-17.5-16.3c0.1-9.2,7.3-15.8,17.5-15.8
		c37.8,0,75.6,0,113.3,0c8.5,0,15.1,5.4,16.5,13.1c1.3,7.6-2.6,15.1-9.7,17.7c-2.4,0.9-5.2,1.1-7.8,1.2
		C-539.3,1032.6-558.1,1032.6-576.9,1032.6z"/>
	<path class="st0" d="M-454.5,921.6c-8.7,0.1-16-6.9-16.3-15.6c-0.2-8.9,6.9-16.4,15.8-16.5c9.1-0.1,16.2,6.9,16.2,16
		C-438.7,914.3-445.7,921.4-454.5,921.6z"/>
	<path class="st0" d="M-525.2,917.8c0.1-8.9,7-15.7,15.9-15.7c9,0,16.3,7.3,16.1,16.2c-0.1,8.6-7.6,15.9-16.1,15.9
		C-518.2,934.2-525.3,926.9-525.2,917.8z"/>
	<path class="st0" d="M-786.9,900.9c0.1-9.1,7.3-15.9,16.5-15.7c8.9,0.2,15.7,7.2,15.5,16.1c-0.1,8.7-7.3,15.8-16,15.8
		C-779.8,917.2-787,909.9-786.9,900.9z"/>
</g>
<g>
	<path class="st0" d="M413.5,559.4c3.4,1.2,5.2,3.5,5.2,7c0,15.5,0,30.9,0,46.4c0,2.8-1.4,4.2-4.3,4.1c-1.4,0-1.9,0.3-1.8,1.9
		c0.2,5.4,0,6.9-6.5,6.7c-4.2-0.1-5-0.9-5.1-5.1c0-1.1,0.8-2.4-0.6-3.3c-1.6,0-3.2-0.1-4.8-0.1c-16.3,0-32.6,0.1-48.8,0.1
		c-1.1,1.2-0.4,2.6-0.4,3.8c-0.1,3.5-1.1,4.6-4.5,4.6c-1.2,0-2.4,0.1-3.5,0c-2.2-0.1-3.4-1.2-3.6-3.5c0-0.4,0-0.7,0-1.1
		c0-1.1,0.3-2.4-0.2-3.3c-0.6-1.2-2-0.3-3-0.6c-1.7-0.4-2.8-1.7-2.8-3.6c-0.1-1.9,0-3.8,0-5.7c0-13.2,0.1-26.3-0.1-39.5
		c-0.1-4.4,1.3-7.6,5.7-9.1c1.6,0.4,2.4-0.3,2.1-2c-0.1-0.5-0.1-1-0.1-1.4c0.4-7.9,3.9-13.9,11.1-17.6c2.7-1.4,5.6-1.9,8.6-1.9
		c4,0,7.9-0.1,11.9-0.1c3.9,0,7.8,0,11.6,0c4.8,0.3,9.5-0.3,14.3,0.3c9.7,1.2,16.5,8.4,17.2,18.1c0,0.4,0.1,0.7,0.1,1.1
		C410.9,558.7,410.9,558.7,413.5,559.4z M373.7,597.4C373.7,597.4,373.7,597.4,373.7,597.4c8.5,0,17-0.1,25.4,0c1.5,0,2-0.3,2-1.9
		c-0.1-9.4,0-18.8,0-28.2c0-4.9,2-7.3,6.8-8.1c0.7-0.1,0.9-0.3,1-1c1.2-10.8-6.7-19.8-17.6-19.9c-11.7,0-23.4,0-35.1,0
		c-1.6,0-3.2,0.2-4.8,0.6c-8.6,2.4-13.9,10.4-12.8,19.3c0.1,0.7,0.3,0.9,1,1c4.8,0.8,6.8,3.2,6.8,8.1c0,9.4,0,18.8,0,28.2
		c0,1.6,0.4,1.9,2,1.9C356.7,597.4,365.2,597.4,373.7,597.4z M373.5,614.9C373.5,614.9,373.5,614.9,373.5,614.9
		c8.6,0,17.2-0.1,25.8,0c1.3,0,1.8-0.3,1.8-1.7c-0.1-4-0.1-7.9,0-11.9c0-1.4-0.5-1.7-1.8-1.7c-17.1,0.1-34.2,0.1-51.2,0.1
		c-1.3,0-1.8,0.3-1.8,1.7c0.1,4,0.1,7.9,0,11.9c0,1.5,0.5,1.7,1.8,1.7C356.6,614.9,365.1,614.9,373.5,614.9z M344.2,589.8
		c0-7.8,0-15.6,0-23.4c0-3-2-5-5-5c-1.1,0-2.2,0-3.3,0c-3,0.1-4.9,1.9-5,5c0,1.1,0,2.2,0,3.3c0,14.2,0,28.5,0,42.7
		c0,2.3,0.2,2.5,2.5,2.5c3,0,6.1-0.1,9.1,0c1.4,0,1.8-0.4,1.8-1.8C344.1,605.4,344.2,597.6,344.2,589.8z M403.2,589.7
		c0,7.8,0,15.6,0,23.4c0,1.4,0.3,1.8,1.7,1.8c3.2-0.1,6.4-0.1,9.7,0c1.4,0,2-0.6,2-2c0-15.6,0-31.2,0-46.8c0-1.7-0.8-2.9-2.2-3.9
		c-1.6-1.2-3.5-0.7-5.2-0.9c-3.9-0.4-6.2,2.2-6.1,6.1C403.4,574.8,403.2,582.3,403.2,589.7z M407,617.1c-0.7,0-1.5,0.1-2.2,0
		c-1.3-0.2-1.7,0.4-1.6,1.6c0.1,5.2-0.5,4.6,4.7,4.6c2.6,0,2.7-0.1,2.7-2.7C410.6,617.1,410.6,617.1,407,617.1z M340.7,617.1
		c-0.6,0-1.1,0.1-1.7,0c-1.8-0.3-2.3,0.4-2.2,2.2c0.1,5,0.2,4,4.6,4.1c2.8,0,2.8,0,2.8-2.8C344.2,617.1,344.2,617.1,340.7,617.1z"/>
	<path class="st0" d="M401.1,698c0,0,0.1,0.1,0.1,0.1c0.1,0.3,0.2,0.6,0.6,0.7c5.4,6.4,7.8,13.8,7.9,22c0,1.1,0.3,1.9,1.2,2.6
		c3.7,2.8,3.4,8.4-0.3,11c-0.6,0.4-1.2,0.8-1.3,1.6c-0.7,5.7-4.3,9.6-8.8,12.7c-3.6,2.5-7.7,4.1-11.9,5.4c-0.3,0.1-0.5,0.3-0.8,0.4
		c-0.6,0.1-1.2,0-1.8,0.2c-5.7,1.2-11.4,1.6-17.3,1.1c-3.4-0.3-6.7-1.2-10-1.6c-5.5-2-11-4.2-15.3-8.4c-2.7-2.7-4.7-5.8-5.1-9.6
		c-0.1-0.7-0.5-1-1-1.4c-4.3-2.7-4.6-8.3-0.6-11.4c1-0.8,1-1.6,1-2.6c0.1-9.5,3.4-17.7,10.2-24.5c0.1-0.1,0.3-0.3,0.4-0.4
		c0,0,0,0,0,0c0.5,0,0.7-0.3,0.9-0.8c0,0,0,0,0,0c0.7-0.3,1.5-0.5,1.7-1.5c0,0,0,0,0,0c0.4,0.1,0.6,0,0.7-0.4c0,0,0,0,0,0
		c0.2-0.1,0.5-0.1,0.7-0.2c7.4-4.8,15.6-6.7,24.3-6.1c6.9,0.4,13.1,2.6,18.8,6.5c0.9,0.6,1.5,1.5,2.6,1.7c0,0,0,0,0,0
		c0.1,0.1,0.3,0.3,0.4,0.4c0,0,0,0,0,0c0.1,0.1,0.3,0.2,0.4,0.4c0,0,0,0,0,0c0.2,0.5,0.5,0.8,1.1,0.8c0,0,0,0,0,0
		c0,0.5,0.3,0.7,0.8,0.9c0,0,0,0.1,0,0.1C400.7,697.8,400.9,698,401.1,698z M373.6,717.3c10.6,0,21.2,0,31.7,0c1.4,0,2-0.1,1.7-1.8
		c-0.7-5.9-3.1-10.9-7-15.3c-10.3-11.4-27.3-14.8-41.7-8.1c-10,4.6-16.4,12.1-18,23.2c-0.2,1.6,0.2,2,1.7,2
		C352.6,717.3,363.1,717.3,373.6,717.3z M373.9,735.6c-9.8,0-19.7,0-29.5,0c-4.6,0-4.9,0.4-2.6,4.6c2.8,5.2,7.6,8.1,12.8,10.2
		c8.9,3.6,18.3,4.3,27.7,2.9c6.3-0.9,12.3-2.8,17.6-6.5c3.3-2.3,5.9-5.2,7.1-9.2c0.4-1.4,0.3-2-1.5-2
		C394.9,735.6,384.4,735.6,373.9,735.6z M373.7,733.4c11,0,21.9,0,32.9,0c1.8,0,3.3-0.5,4.2-2.1c1.9-3.4-0.2-7.1-4.2-7.2
		c-3.5,0-7.2-0.9-10.3,0.3c-3,1.1-4.9,4.4-7.3,6.7c-2,2-3.1,2-5.1,0c-2.1-2.1-4.1-4.1-6.2-6.2c-0.5-0.5-1.1-0.9-1.9-0.9
		c-11.6,0-23.3,0-34.9,0c-2,0-3.6,0.8-4.4,2.8c-1.4,3.4,0.7,6.5,4.4,6.5C351.7,733.4,362.7,733.4,373.7,733.4z M375.3,719.7
		c2.8,2.8,5.4,5.3,8,7.9c3.1,3.1,3.1,3.1,6.3,0c2.6-2.5,5.1-5.1,8-7.9C389.9,719.7,382.8,719.7,375.3,719.7z M374.5,721.9
		c-1.5-1.3-2.2-2.6-4-2.6c-9.6,0.1-19.2,0.1-28.7,0c-0.9,0-1.7-0.1-1.7,1.3c0,1.4,0.8,1.3,1.7,1.3c9.6,0,19.3,0,28.9,0
		C371.8,721.9,372.9,721.9,374.5,721.9z M398.6,721.9c2.7,0,5.2,0,7.7,0c1,0,1.1-0.6,1.1-1.3c0-0.8-0.2-1.3-1.1-1.3
		c-1,0.1-2.1,0.1-3.1,0C401,719,399.7,720.1,398.6,721.9z"/>
	<path class="st0" d="M650.5,570.6c1.8,4.4,1.6,8.6-1.7,12.3c-0.1,0.1-0.2,0.2-0.3,0.4c0,0,0,0,0,0c-2,1.3-4.1,2.4-6.5,2.2
		c-1.9-0.2-2.6,0.5-3.2,2.3c-5.2,17.1-24.8,22.6-38.3,13.9c-5.4-3.5-9-8.4-10.7-14.6c-0.2-0.8-0.3-1.7-1.6-1.6c-3,0.3-5.6-0.7-8-2.3
		c-3.3-3.8-3.9-8-1.9-12.6c1-1.3,1.9-2.9,3.5-3.5c2.2-0.7,2.6-2.1,2.9-4.2c2.2-14.4,15.2-25.2,29.8-25.1c14.8,0.1,28.2,11.2,29.8,27
		c0.1,1,0.5,1.4,1.3,1.7C647.7,567.3,649.3,568.7,650.5,570.6z M637.8,574.8c0-2.9,0-5.2,0-7.5c-0.2-11.5-8.6-21-20.1-22.6
		c-11.4-1.6-22.6,5.4-25.7,16.5c-2,7.3-1.4,14.9-0.7,22.3c1.1,11.2,10.8,19.8,22.2,20.2c11.7,0.4,21.8-7.6,23.9-18.9
		C638.1,581.2,637.6,577.7,637.8,574.8z M613.9,539.8c-1.1,0.1-2.7,0.2-4.2,0.5c-12.5,2.4-21.2,11.4-23.1,23.9
		c-0.1,0.7-0.4,1.5,0.8,1.6c1,0,1.5-0.1,1.7-1.3c1.4-9.5,6.6-16.2,15.3-20.1c11-5,25.5-0.4,31.7,10c1.8,3.1,3.1,6.3,3.5,9.9
		c0.2,1.3,0.8,2,2.1,1.5c1-0.4,0.5-1.6,0.4-2.3C639.7,549.7,628.4,540.1,613.9,539.8z M588.9,575.8
		C588.9,575.8,588.9,575.8,588.9,575.8c0-2.2,0-4.3,0-6.5c0-0.6,0.1-1.3-0.8-1.3c-1.6,0-3.2-0.1-4.7,0.6c-3.4,1.7-4.9,5.5-3.8,9.5
		c1,3.6,4.4,5.6,8.4,5.2c0.9-0.1,1-0.5,1-1.2C588.9,580,588.9,577.9,588.9,575.8z M639.9,575.5c0,2.2,0,4.3,0,6.5
		c0,0.9,0.2,1.3,1.2,1.3c4.9,0.2,8.4-2.8,8.4-7.5c0-5-3.2-8-8.3-7.8c-1.1,0-1.4,0.4-1.3,1.4C640,571.4,639.9,573.5,639.9,575.5z"/>
	<path class="st0" d="M659.2,713.8c0,24.8-20.1,44.8-44.9,44.8c-24.7,0-44.9-20.3-44.9-45.2c0-24.5,20.4-44.7,45-44.7
		C639.2,668.8,659.2,688.9,659.2,713.8z M657.1,713.8c0.4-23.2-19.1-42.8-42.3-42.9c-23.2-0.1-43,18.3-43.2,42.3
		c-0.2,23.8,18.9,43.1,42.3,43.3C637.8,756.7,657.4,736.8,657.1,713.8z"/>
	<path class="st0" d="M491.9,740.1c0.9,0.1,1.4,0.5,1.5,1.4c0,0.8-0.5,1.3-1.2,1.4c-0.9,0.1-1.5-0.4-1.5-1.3
		C490.5,740.8,491.1,740.3,491.9,740.1z"/>
	<path class="st0" d="M498.1,736.8c-0.1,0.8-0.5,1.4-1.4,1.4c-0.8,0-1.3-0.4-1.3-1.2c-0.1-0.9,0.5-1.5,1.3-1.5
		C497.5,735.4,498.1,735.8,498.1,736.8z"/>
	<path class="st0" d="M500.9,730.6c0,0.9-0.5,1.4-1.4,1.4c-0.9,0-1.4-0.6-1.4-1.4c0-0.7,0.5-1.3,1.3-1.3
		C500.3,729.3,500.8,729.7,500.9,730.6z"/>
	<path class="st0" d="M615.7,618.6c-0.1,0.9-0.6,1.4-1.4,1.4c-0.9,0-1.3-0.6-1.3-1.5c0-0.7,0.5-1.3,1.3-1.3
		C615.2,617.2,615.7,617.7,615.7,618.6z"/>
	<path class="st0" d="M571.5,548.6c-0.2,0.8-0.6,1.3-1.5,1.2c-0.8-0.1-1.3-0.6-1.3-1.3c0-0.8,0.5-1.4,1.4-1.4
		C571,547.2,571.4,547.7,571.5,548.6z"/>
	<path class="st0" d="M544.4,548.5c-0.1,0.8-0.5,1.4-1.4,1.3c-0.8,0-1.3-0.5-1.3-1.2c0-0.8,0.4-1.4,1.3-1.5
		C543.8,547.1,544.2,547.7,544.4,548.5z"/>
	<path class="st0" d="M502.1,567.7c0,1-0.5,1.6-1.4,1.6c-0.9,0-1.4-0.6-1.4-1.4c0-0.8,0.5-1.3,1.3-1.3
		C501.5,566.5,501.9,567,502.1,567.7z"/>
	<path class="st0" d="M501.7,559.9c0.9,0.1,1.4,0.5,1.4,1.4c0,0.9-0.6,1.3-1.4,1.3c-0.8,0-1.3-0.5-1.3-1.3
		C500.3,560.5,500.8,560,501.7,559.9z"/>
	<path class="st0" d="M614.3,624c0.8,0.1,1.4,0.4,1.4,1.3c0,0.9-0.5,1.4-1.4,1.4c-0.8,0-1.3-0.5-1.4-1.2
		C612.9,624.6,613.4,624.1,614.3,624z"/>
	<path class="st0" d="M500.7,725.3c-0.9-0.1-1.4-0.6-1.5-1.4c0-0.8,0.5-1.3,1.2-1.3c0.9-0.1,1.4,0.5,1.5,1.3
		C502,724.8,501.5,725.2,500.7,725.3z"/>
	<path class="st0" d="M614.3,647.1c-0.9-0.2-1.3-0.7-1.3-1.6c0.1-0.8,0.6-1.3,1.4-1.2c0.8,0,1.4,0.5,1.3,1.4
		C615.7,646.6,615.1,647,614.3,647.1z"/>
	<path class="st0" d="M615.8,652.6c-0.1,0.9-0.6,1.3-1.5,1.3c-0.9-0.1-1.3-0.7-1.2-1.5c0.1-0.8,0.6-1.2,1.4-1.2
		C615.3,651.2,615.7,651.7,615.8,652.6z"/>
	<path class="st0" d="M563.2,547.1c1,0,1.5,0.6,1.5,1.4c0,0.8-0.6,1.3-1.4,1.3c-0.8,0-1.3-0.5-1.3-1.3
		C561.9,547.7,562.4,547.2,563.2,547.1z"/>
	<path class="st0" d="M506,555.1c-0.1,0.8-0.6,1.4-1.4,1.4c-0.8,0-1.3-0.5-1.3-1.3c-0.1-0.9,0.5-1.4,1.3-1.5
		C505.4,553.7,505.9,554.3,506,555.1z"/>
	<path class="st0" d="M515.9,547.1c0.9,0.1,1.4,0.7,1.3,1.5c-0.1,0.7-0.6,1.2-1.4,1.2c-0.9,0-1.4-0.5-1.4-1.4
		C514.5,547.6,515,547.2,515.9,547.1z"/>
	<path class="st0" d="M465.2,741.9c0.9,0.1,1.4,0.6,1.4,1.4c0,0.9-0.6,1.3-1.5,1.3c-0.8,0-1.3-0.5-1.3-1.3
		C463.8,742.4,464.3,741.9,465.2,741.9z"/>
	<path class="st0" d="M615.8,659.2c-0.1,1-0.6,1.4-1.5,1.4c-0.8,0-1.3-0.6-1.3-1.3c0-0.8,0.5-1.4,1.4-1.4
		C615.3,657.9,615.7,658.5,615.8,659.2z"/>
	<path class="st0" d="M615.7,638.8c0,0.9-0.6,1.4-1.4,1.4c-0.8,0-1.3-0.5-1.3-1.2c0-0.8,0.4-1.4,1.3-1.5
		C615.2,637.5,615.6,638.1,615.7,638.8z"/>
	<path class="st0" d="M510.8,550.5c-0.2,0.9-0.8,1.3-1.6,1.2c-0.9-0.1-1.3-0.7-1.1-1.6c0.1-0.8,0.7-1.1,1.5-1.1
		C510.4,549.2,510.8,549.7,510.8,550.5z"/>
	<path class="st0" d="M373.7,650.5c-0.9-0.1-1.3-0.5-1.3-1.4c0-0.9,0.6-1.4,1.4-1.4c0.7,0,1.2,0.5,1.3,1.3
		C375.1,649.9,374.6,650.4,373.7,650.5z"/>
	<path class="st0" d="M536.1,547.2c0.9,0,1.4,0.5,1.4,1.4c0,0.8-0.6,1.3-1.4,1.3c-0.8,0-1.3-0.5-1.3-1.3
		C534.8,547.7,535.3,547.3,536.1,547.2z"/>
	<path class="st0" d="M425.9,743.2c-0.1,1-0.6,1.4-1.5,1.4c-0.8,0-1.3-0.6-1.3-1.3c0-0.8,0.5-1.4,1.4-1.4
		C425.4,741.9,425.8,742.5,425.9,743.2z"/>
	<path class="st0" d="M439.4,743.2c-0.1,0.9-0.6,1.4-1.5,1.3c-0.8,0-1.3-0.5-1.3-1.3c0-0.9,0.4-1.4,1.3-1.4
		C439,741.9,439.3,742.5,439.4,743.2z"/>
	<path class="st0" d="M557.9,548.6c-0.1,0.9-0.6,1.3-1.5,1.3c-0.8-0.1-1.2-0.5-1.2-1.3c0-0.9,0.5-1.4,1.4-1.4
		C557.4,547.2,557.8,547.7,557.9,548.6z"/>
	<path class="st0" d="M551.1,548.5c-0.1,0.9-0.6,1.4-1.5,1.3c-0.8,0-1.3-0.6-1.3-1.3c0-0.9,0.6-1.4,1.5-1.3
		C550.6,547.2,551,547.7,551.1,548.5z"/>
	<path class="st0" d="M453,743.3c-0.1,0.9-0.6,1.3-1.5,1.3c-0.8,0-1.3-0.5-1.2-1.3c0-0.8,0.5-1.4,1.4-1.4
		C452.6,741.9,452.9,742.5,453,743.3z"/>
	<path class="st0" d="M478.8,744.6c-0.9,0-1.4-0.4-1.4-1.3c0-0.8,0.5-1.4,1.4-1.4c0.8,0,1.3,0.4,1.3,1.2
		C480.2,744,479.7,744.5,478.8,744.6z"/>
	<path class="st0" d="M373.7,674.8c0.8,0.1,1.4,0.5,1.4,1.4c0,0.8-0.4,1.3-1.2,1.4c-0.8,0.1-1.4-0.4-1.5-1.2
		C372.3,675.5,372.8,675,373.7,674.8z"/>
	<path class="st0" d="M373.8,640.9c0.8,0.2,1.3,0.6,1.3,1.5c0,0.8-0.5,1.3-1.3,1.3c-0.8,0-1.4-0.5-1.4-1.4
		C372.4,641.4,373,641,373.8,640.9z"/>
	<path class="st0" d="M375,669.6c-0.1,0.8-0.6,1.3-1.4,1.2c-0.8-0.1-1.3-0.7-1.2-1.5c0.1-0.8,0.6-1.3,1.3-1.2
		C374.5,668.1,375.1,668.6,375,669.6z"/>
	<path class="st0" d="M473.4,743.2c-0.2,0.9-0.7,1.4-1.6,1.3c-0.9-0.1-1.3-0.7-1.2-1.5c0.1-0.7,0.6-1.2,1.4-1.2
		C472.9,741.9,473.2,742.5,473.4,743.2z"/>
	<path class="st0" d="M459.8,743.2c-0.1,1-0.6,1.4-1.5,1.3c-0.8-0.1-1.2-0.5-1.2-1.3c0-0.9,0.5-1.3,1.4-1.3
		C459.4,741.9,459.7,742.5,459.8,743.2z"/>
	<path class="st0" d="M444.6,741.9c1,0,1.6,0.5,1.6,1.4c0,0.7-0.4,1.3-1.2,1.3c-0.9,0.1-1.4-0.4-1.5-1.2
		C443.4,742.5,444,742.1,444.6,741.9z"/>
	<path class="st0" d="M432.6,743.2c-0.1,0.9-0.5,1.4-1.4,1.3c-0.8,0-1.3-0.5-1.3-1.3c0-0.9,0.4-1.4,1.3-1.4
		C432.1,741.9,432.6,742.4,432.6,743.2z"/>
	<path class="st0" d="M417.7,741.9c0.8,0.1,1.4,0.5,1.4,1.4c0,0.8-0.6,1.3-1.5,1.3c-0.8,0-1.3-0.5-1.3-1.3
		C416.3,742.5,416.8,742,417.7,741.9z"/>
	<path class="st0" d="M373.7,657.2c-0.9-0.1-1.4-0.6-1.4-1.5c0-0.8,0.6-1.2,1.4-1.2c0.9,0,1.3,0.6,1.3,1.4
		C375,656.8,374.5,657.2,373.7,657.2z"/>
	<path class="st0" d="M375,635.4c0,0.8-0.3,1.3-1.2,1.4c-0.9,0.1-1.5-0.3-1.5-1.2c0-0.9,0.5-1.4,1.4-1.4
		C374.6,634.2,375,634.6,375,635.4z"/>
	<path class="st0" d="M613.1,632.1c0.1-0.8,0.5-1.3,1.3-1.3c0.9,0,1.4,0.5,1.4,1.4c0,0.9-0.6,1.3-1.5,1.3
		C613.4,633.4,613.1,632.9,613.1,632.1z"/>
	<path class="st0" d="M375.1,662.5c-0.1,1-0.5,1.5-1.4,1.5c-0.8,0-1.3-0.4-1.3-1.2c0-0.9,0.4-1.4,1.3-1.4
		C374.5,661.3,375,661.8,375.1,662.5z"/>
	<path class="st0" d="M530.7,548.4c0,0.8-0.4,1.4-1.2,1.4c-0.9,0.1-1.4-0.3-1.5-1.2c-0.1-0.8,0.3-1.3,1.2-1.4
		C530.1,547.1,530.6,547.5,530.7,548.4z"/>
	<path class="st0" d="M486.9,743c0,0.9-0.4,1.5-1.2,1.5c-0.9,0.1-1.4-0.3-1.5-1.3c0-0.9,0.5-1.4,1.4-1.4
		C486.4,741.9,486.8,742.4,486.9,743z"/>
	<path class="st0" d="M524,548.4c-0.1,0.8-0.5,1.4-1.4,1.4c-0.8,0-1.3-0.4-1.3-1.3c0-0.8,0.3-1.3,1.1-1.4
		C523.3,547.1,523.8,547.6,524,548.4z"/>
	<path class="st0" d="M648.5,583.3c0.1-0.1,0.2-0.2,0.3-0.4C648.7,583,648.6,583.2,648.5,583.3z"/>
	<path class="st0" d="M521.5,644.7c0.7,5.8,0.7,11.1-0.9,16.3c-1,3.3-2.7,6.1-5.3,8.4c-0.5,0.5-1.2,0.9-0.6,1.8
		c1.7,2.9,1.9,6.2,2.1,9.5c0.4,6.7,0.9,13.3,0.9,20c0,4-2.7,6.9-6.7,7.2c-3.2,0.3-6.6-2.5-7-6.1c-0.4-3.9-0.6-7.9-0.6-11.8
		c0-2.9-0.4-5.5-3.1-7.5c-0.7,2-1.5,4-2.2,6.1c-1.8,4.9-3.5,9.8-5.4,14.6c-1.3,3.4-4.8,5-8.3,4.1c-3.5-0.9-6-4.7-4.9-8.2
		c1.5-5,3.4-9.8,5.2-14.7c0.5-1.4,0.7-2.6,0-4.2c-1.6-3.9-1.9-8.2-1.8-12.4c0-1.1-0.2-2.1-0.8-3.1c-2.3-3.7-3-7.8-3.3-12
		c-0.1-1,0-2,0-3.6c-1.7,2.7-3.6,4.3-6.3,4.3c-4.7,0.1-8.1-4.5-6.5-9c2.2-6,4.4-12,6.9-17.8c1.5-3.5,4.1-6.4,6.2-9.7
		c1-1.5,2.1-2.9,3-4.4c2.1-3.6,5-6.2,9-7.6c1.3-0.5,1-0.8,0.2-1.5c-3.6-3-5-6.8-3.8-11.4c1.3-4.7,4.6-7.3,9.4-8.1
		c7.2-1.3,13.9,4.2,13.7,11.2c-0.1,4-2,7-5.4,9.2c-0.6,0.4-1.3,0.7-2.2,1.2c1.1,0.7,2,1.2,2.9,1.9c2.2,1.7,4.1,3.7,4.9,6.4
		c1.1,3.7,3.7,6.2,5.9,9.1c3.5,4.7,8.7,7.4,13.1,11.1c1.2,1,2.6,2,3.8,3c2.8,2.4,3.2,6.3,1,9.2c-2.2,2.8-6.1,3.5-9.1,1.4
		C524.1,646.8,523,645.9,521.5,644.7z M480.9,649.2c0,0.9,0,1.7,0,2.4c0.1,4.4,0.6,8.8,3.2,12.6c2.8,4.2,7.2,5.9,12,6.7
		c1.3,0.2,1.9,0.7,2.3,1.9c1.4,4.2,3.2,8.2,6.2,11.5c0.5,0.5,0.5,1.1,0.6,1.7c0.2,4.9,0.5,9.8,0.7,14.6c0.1,3,2.2,5.2,5,5.2
		c2.9,0,4.9-2.3,4.8-5.5c-0.2-4.9-0.2-9.8-0.6-14.7c-0.4-5-0.2-10.2-2.7-14.8c-0.5-0.9-0.2-1.6,0.6-2.2c3.1-2.3,5-5.4,5.8-9
		c2.5-10.2,1.2-20-4.8-28.5c-2.8-4-4.2-7.6-4.1-12.4c0.1-5.5-4.5-10.6-10-12c-5.5-1.5-11.6,0.7-14.6,5.2c-2.7,3.9-5.3,7.7-8,11.6
		c-0.9,1.4-2,2.7-2.6,4.3c-2.2,5.7-4.3,11.3-6.5,17c-1,2.7,0,5.4,2.5,6.3c2.6,1,5.1-0.3,6.2-3.2c0.8-2.1,1.5-4.2,2.4-6.2
		c1.5-3.8,2.5-7.8,4.6-11.3c2.8-4.5,5.9-8.7,8.9-13.1c0.5-0.7,0.9-1.8,2-1.1c1.2,0.8,0.2,1.7-0.3,2.4c-2.3,3.4-4.7,6.7-6.9,10.1
		C483.3,635,480.5,641.7,480.9,649.2z M485,668.5c-0.1,4.4,0.3,8.3,1.9,12c0.6,1.3,0.6,2.3,0.1,3.5c-1.9,5-3.7,10-5.5,15
		c-1,2.8,0.5,5.7,3.3,6.5c2.5,0.7,4.9-0.6,6-3.4c2.4-6.3,4.4-12.7,7-19c1.5-3.7-0.6-6.4-1.6-9.5c-0.1-0.5-0.7-0.5-1.1-0.6
		C491.6,672.2,488.3,671,485,668.5z M498.7,604.1c5.3,0,9.7-3.9,9.8-8.9c0.1-5.1-4.2-9.2-9.5-9.3c-5.3-0.1-9.8,4.1-9.8,9.1
		C489.1,599.9,493.4,604,498.7,604.1z M512.3,621.1c0.1,1.7-0.9,3.5,0.4,4.8c4,4.2,6.4,9.2,7.9,14.7c0.1,0.5,0.2,0.9,0.7,1.3
		c1.8,1.4,3.6,2.8,5.5,4.2c1.5,1.1,3.2,1.1,4.7,0.1c1.6-1,2.4-2.4,2.3-4.3c-0.1-1.9-1.3-2.9-2.6-4
		C524.7,632.4,517.1,628.4,512.3,621.1z"/>
	<path class="st0" d="M398.7,708.3c-0.9-0.1-1.1-0.8-1.4-1.5c-0.2-0.6-0.4-1.3-0.6-1.9c-0.1-0.5,0.2-0.8,0.6-1
		c0.4-0.2,0.8-0.1,1,0.2c0.8,1,1.1,2.2,1.3,3.4C399.7,707.9,399.3,708.2,398.7,708.3z"/>
	<path class="st0" d="M371.2,696.7c-0.5,1-0.9,2.1-1.9,3c-0.3,0.3-0.7,0.3-1,0c-0.4-0.3-0.6-0.7-0.4-1.1c0.5-0.9,1-1.9,1.5-2.7
		c0.3-0.4,0.7-0.4,1.2-0.2C371,695.8,371.2,696.1,371.2,696.7z"/>
	<path class="st0" d="M385,710.7c0.7-0.9,0.2-2.7,1.9-2.9c0.7-0.1,1.2,0.6,0.9,1.2c-0.5,1.1-0.2,2.9-2,3.1
		C385,712.3,384.9,711.5,385,710.7z"/>
	<path class="st0" d="M352,709.1c0,1-2.6,2.9-3.4,2.6c-0.8-0.3-1.1-1-0.5-1.6c0.7-0.8,1.7-1.5,2.7-1.9
		C351.5,708.1,351.8,708.6,352,709.1z"/>
	<path class="st0" d="M385.4,697.6c-0.3,0.9-0.8,1.5-1.6,0.9c-0.9-0.7-1.4-1.8-1.7-3c-0.1-0.4,0.1-0.7,0.4-0.9c0.4-0.2,0.7-0.3,1,0
		C384.4,695.4,384.8,696.6,385.4,697.6z"/>
	<path class="st0" d="M368.2,709.9c0,0.8-2.3,2.8-3.1,2.7c-0.7-0.1-1.1-0.5-0.9-1.1c0.5-1.2,1.6-2,2.7-2.6
		C367.6,708.7,368.1,709.3,368.2,709.9z"/>
	<path class="st0" d="M356.1,699.5c0.6-0.8-0.1-2.7,1.8-2.9c0.8-0.1,1,0.7,0.8,1.3c-0.4,1.1,0,2.8-1.8,3
		C356.1,701.1,356,700.3,356.1,699.5z"/>
	<path class="st0" d="M610.1,581.9c0-2.4,1.7-4.2,4.2-4.3c2.4,0,4.3,1.8,4.4,4.1c0.1,2.3-2,4.5-4.3,4.4
		C612,586.1,610.1,584.2,610.1,581.9z M616.5,581.9c-0.1-1.4-0.9-2.2-2.1-2.2c-1.3,0-2.3,0.9-2.2,2.2c0,1.3,0.9,2.2,2.3,2.1
		C615.8,583.9,616.4,583.1,616.5,581.9z"/>
	<path class="st0" d="M599.8,563c-0.6,0.1-1.1-0.2-1.3-0.8c-0.2-0.7,0.3-1.2,1-1.3c2.8-0.5,5.6-1,8.3-1.5c0.6-0.1,1.3,0,1.5,0.7
		c0.2,0.8-0.3,1.1-1,1.3C605.5,562,602.6,562.5,599.8,563z"/>
	<path class="st0" d="M621.2,559.5c2.5,0.5,5.2,1,8,1.5c0.7,0.1,1.2,0.5,1.1,1.2c-0.1,0.8-0.7,0.9-1.4,0.8c-2.7-0.5-5.5-1-8.2-1.5
		c-0.8-0.1-1.3-0.5-1.1-1.3C619.7,559.3,620.3,559.4,621.2,559.5z"/>
	<path class="st0" d="M624.5,570.8c-1.1,0-2.2,0-3.3,0c-0.7,0-1.3-0.4-1.2-1.1c0-0.6,0.5-0.9,1.2-0.9c2.3,0,4.6,0,6.8,0
		c0.7,0,1.2,0.3,1.2,1.1c-0.1,0.8-0.7,0.9-1.3,1C626.7,570.8,625.6,570.8,624.5,570.8C624.5,570.8,624.5,570.8,624.5,570.8z"/>
	<path class="st0" d="M604.4,570.7c-0.9,0-1.8,0-2.8,0c-0.8,0-1.8,0.1-1.8-1c0-1,0.9-0.9,1.7-0.9c1.9,0,3.8,0,5.7,0
		c0.8,0,1.8-0.1,1.8,1c0,1.2-1.1,0.9-1.9,0.9C606.2,570.8,605.3,570.7,604.4,570.7z"/>
	<path class="st0" d="M614.3,752.7c-18.3,0.3-35.3-13.1-38.5-32.8c-1.9-11.4,1-21.8,8.3-30.9c1-1.3,1.8-1.3,3-0.2
		c17.4,17.4,34.7,34.8,52.1,52.1c1.5,1.5,1.4,1.8-0.3,3.2C631.9,749.8,623.4,752.7,614.3,752.7z M615.6,739.7c-7.2,0-13.2,0-19.2,0
		c-4.1,0-7.2-2.9-7.2-6.9c-0.1-11.6,0-23.3,0-34.9c1.6-3.1-0.8-4.6-2.6-6.4c-0.8-0.8-1.2-0.6-1.8,0.2c-4.1,5.5-6.5,11.7-7.2,18.4
		c-2.1,21.2,14,39.7,35.3,40.6c8.5,0.3,16.2-2,23.2-7c0.5-0.3,1.2-0.6,1.2-1.3c0-0.5-2.7-2.9-3.2-2.8
		C627.5,739.9,620.9,739.5,615.6,739.7z M598.8,703.9c-0.6-1.1-1.3-1.4-2.3-1.4c-1.2,0.1-2.4,0.1-3.5,0c-1.4-0.1-1.7,0.4-1.7,1.8
		c0.1,9.2,0,18.3,0,27.5c0,3.9,1.8,5.8,5.8,5.8c11.2,0,22.4,0,33.6,0c0.5,0,1.1,0.2,1.7-0.2c-0.9-1.3-1.9-2.1-3.8-2.1
		c-9.9,0.1-19.8,0-29.7,0c-3.7,0-5.5-1.8-5.5-5.4c0-6.7,0-13.4,0-20C593.3,705.9,594.8,704.3,598.8,703.9z M609.4,725.6
		c-4,0-4,0-4,3.8c0,3.9,0,3.9,3.9,3.8c4,0,4,0,4-4C613.2,725.6,613.2,725.6,609.4,725.6z M599.3,725.6c-4,0-4,0-4,3.7c0,3,1,4,4,4
		c3.8,0,3.8,0,3.8-3.9C603.2,725.6,603.2,725.6,599.3,725.6z M599.2,723.4c4,0,4,0,4-3.5c0-4,0-4-4.1-4c-3.8,0-3.8,0-3.8,3.7
		C595.3,723.4,595.3,723.4,599.2,723.4z M619.2,733.3c4,0,4,0,4-3.7c0-2.2-1.8-4-4-4c-3.9,0-3.9,0-3.9,3.8
		C615.3,733.3,615.3,733.3,619.2,733.3z M609.1,723.4c4.1,0,4.1,0,4-3.7c0-2.5-1.4-3.9-4-3.9c-3.9,0-3.9,0-3.9,3.8
		C605.3,723.4,605.3,723.4,609.1,723.4z M599.2,713.7c4,0,4,0,4-3.9c0-2.4-1.2-3.6-3.6-3.6c-3.3,0-4.3,0.8-4.3,3.6
		C595.3,713.7,595.3,713.7,599.2,713.7z M591.5,696.5c-0.7,4-0.2,4.5,3.3,3.7C593.8,699.1,592.7,697.9,591.5,696.5z M605.5,710.8
		c-0.4,3.2-0.3,3.2,2.8,2.8C607.4,712.7,606.4,711.7,605.5,710.8z M628.1,733.1c-1-0.8-1.5-2.1-2.9-2.6
		C625,733.4,625,733.4,628.1,733.1z M615.5,720.7c-0.5,2.9-0.4,2.9,2.5,2.6C617.2,722.5,616.4,721.6,615.5,720.7z"/>
	<path class="st0" d="M614.5,674.6c19.3,0,35.5,13.8,38.5,33c1.8,11.4-1.1,21.7-8.2,30.7c-1,1.3-1.8,1.3-3,0.1
		c-17.4-17.4-34.8-34.9-52.2-52.2c-1.2-1.2-1.1-1.9,0.2-2.9C597.1,677.5,605.2,674.6,614.5,674.6z M639.6,714.9c0,5,0.1,10-0.1,15
		c-0.1,2.4,0.6,4.2,2.4,5.8c1.1,1,1.6,0.9,2.3-0.2c5.4-7.7,7.9-16.3,6.9-25.7c-3-27.4-33.9-42.2-56.9-27.1c-3.2,2.1-3.2,2.1-0.5,4.8
		c0.6,0.6,1.1,1.1,2.2,0.5c1.6-0.8,3-0.1,3.6,1.8c0.3,1,0.7,1.3,1.7,1.2c1-0.1,2-0.1,3,0c1,0.1,1.7-0.1,1.9-1.3
		c0.2-1.3,1.2-1.8,2.4-1.9c1.2,0,2.2,0.5,2.4,1.6c0.3,1.8,1.4,1.7,2.7,1.6c0.7,0,1.5,0,2.2,0c1,0.1,1.7,0,1.9-1.4
		c0.2-1.2,1.2-1.8,2.4-1.9c1.2,0,2.3,0.6,2.4,1.6c0.2,1.7,1.2,1.7,2.4,1.6c0.9-0.1,1.9-0.1,2.8,0c0.9,0,1.3-0.1,1.5-1.1
		c0.2-1.3,1.2-2.2,2.6-2.1c1.4,0.1,2.3,0.9,2.5,2.3c0.1,0.8,0.4,1.2,1.1,1.5c2.9,1.4,4.2,3.7,4.2,6.8
		C639.6,703.9,639.6,709.4,639.6,714.9z M599.9,692.9c-0.1,0.2-0.1,0.3-0.2,0.5c2.2,2.2,4.4,4.4,6.7,6.7c0.3,0.3,0.8,0.3,1.2,0.3
		c9.6,0,19.2,0,28.8,0c0.8,0,1.2-0.3,1.2-1.2c0-1.5-0.2-3-1.1-4.2c-0.4-0.6-1-1.4-1.7-1.3c-0.8,0.2-0.3,1.2-0.4,1.8
		c-0.1,2-1,3.2-2.6,3.3c-1.6,0.1-2.7-1.2-2.7-3.3c-0.1-2.6-0.1-2.6-2.5-2.6c-1.2,0-2.6-0.3-3.4,0.2c-0.9,0.6-0.2,2.1-0.4,3.1
		c-0.2,1.5-1.1,2.3-2.6,2.4c-1.4,0.1-2.5-1.1-2.6-2.5c0-0.7,0-1.5,0-2.2c0-0.4,0-1-0.6-1c-1.8,0-3.7-0.3-5.3,0.1
		c-1,0.3-0.2,2-0.4,3.1c0,0.1,0,0.2-0.1,0.4c-0.4,1.4-1.3,2.2-2.7,2.2c-1.3,0-2.2-0.8-2.5-2.1c-0.2-0.8-0.2-1.7-0.2-2.6
		c0-0.7-0.1-1.2-1-1.2C603.2,693,601.6,692.9,599.9,692.9z M637.4,730.9c0.1-0.2,0.2-0.3,0.2-0.4c0-8.9,0-17.8,0-26.7
		c0-1.4-0.7-1.3-1.7-1.3c-8.3,0-16.6,0-24.9,0c-0.6,0-1.2,0-1.9,0c0.5,1.3,1.3,1.5,2.4,1.5c6,0,12,0,18,0c3.7,0,5.6,1.8,5.6,5.6
		c0,5.8,0.1,11.5-0.1,17.3C635.1,728.8,636,729.9,637.4,730.9z M629.1,713.7c4.1,0,4.1,0,4.1-3.6c0-3.1-1-4.1-4.1-4.1
		c-3.9,0-3.9,0-3.9,3.9C625.2,713.7,625.2,713.7,629.1,713.7z M629.3,715.8c-1,0-2,0-3,0c-0.4,0-1,0-1,0.6c0,1.2-0.4,2.5,0.8,3.4
		c1,0.8,1.9,1.8,2.8,2.7c1.1,1.3,2.6,1,3.8,0.7c1-0.3,0.3-1.5,0.5-2.3c0.1-0.4,0-0.9,0-1.3C633.2,715.8,633.2,715.8,629.3,715.8z
		 M619.4,706.1c-1,0-2,0-3,0c-0.5,0-1.1,0-1.1,0.7c0,1.1-0.2,2.2,0.8,3.1c1.1,0.9,2.1,1.9,3,3c1,1.2,2.3,0.9,3.4,0.7
		c1.1-0.2,0.4-1.5,0.5-2.2c0.1-0.5,0-1,0-1.5C623.2,706.1,623.2,706.1,619.4,706.1z M632.4,693.2
		C632.4,693.2,632.4,693.2,632.4,693.2c0-0.9,0-1.8-0.1-2.7c0-0.3-0.2-0.6-0.6-0.5c-0.3,0-0.4,0.3-0.4,0.5c-0.2,1.8-0.3,3.5-0.1,5.3
		c0,0.4,0.2,0.8,0.7,0.7c0.3-0.1,0.5-0.4,0.5-0.7C632.4,695,632.4,694.1,632.4,693.2z M620.8,693.4c0,0-0.1,0-0.1,0
		c0-0.9,0-1.8,0-2.8c0-0.3,0-0.7-0.4-0.7c-0.5,0-0.6,0.3-0.7,0.7c0,1.2-0.1,2.5,0,3.7c0,0.7-0.4,2,0.5,2.1c1.1,0.1,0.4-1.2,0.6-1.9
		C620.8,694.2,620.7,693.8,620.8,693.4z M609.1,693.2c0-0.8,0-1.6,0-2.4c0-0.4-0.1-0.8-0.5-0.8c-0.5,0-0.6,0.4-0.6,0.8
		c0,1.7,0,3.3,0,5c0,0.4,0.1,0.8,0.6,0.8c0.5,0,0.5-0.4,0.5-0.8C609.1,694.9,609.1,694,609.1,693.2z"/>
</g>
<g>
	<path class="st0" d="M898.2,633.2c0-4.6,0-9.4,0-14.2c-0.1-18.6-0.2-37.2-0.3-55.8c0-5.4,2.2-9.7,6.7-12.7c3.7-2.4,5.5-5.5,5.3-10
		c-0.2-7.3-0.1-14.6-0.2-21.9c0-1.2-0.8-2.3-0.9-3.6c-0.3-2.7-0.6-5.4-0.3-8c0.1-0.9,2.4-2,3.7-2.1c5.1-0.3,10.2-0.2,15.3-0.1
		c2.7,0,4,1.4,4,4.1c0,2.3,0.6,4.7-1.3,6.8c-0.4,0.4-0.3,1.4-0.3,2.1c0,7.8,0.1,15.7,0,23.5c0,4.2,1.6,7.4,5.1,9.7
		c5,3.3,7.3,7.9,7.3,13.8c0.1,21.7,0.2,43.4,0.3,65.1c0,1,0,2,0,3.3c10.4,0,20.6,0,31.3,0c0-4-0.2-8,0-11.9c0.2-3.2-0.7-5.7-2.9-8.3
		c-6.5-7.7-5.5-16.3-2-25c0.3-0.8,0.7-1.5,1-2.2c0-0.1,0-0.2-0.1-0.5c-2.5-0.2-5.1-0.4-7.7-0.8c-8.4-1.3-12.3-5.1-11.9-13.7
		c0.3-8.1,1.8-16.1,2.8-24.1c0.3-2.5,0.9-5,1.4-7.5c0.5-2.5,2-3.8,4.6-3.8c11-0.1,22-0.1,33.1-0.1c2.2,0,3.9,1.1,4.2,3.2
		c1.8,10,3.5,20.1,5,30.1c0.4,2.7-0.4,5.6-0.6,8.7c3.5,0.9,7.4,1.9,11.2,2.8c13,3.2,25.9,6.5,38.9,9.7c4.7,1.2,5.6,0.9,8-3.3
		c7.2-12.7,14.2-25.4,21.4-38.1c2.9-5.2,6-10.2,8.9-15.4c6.3-10.9,16-16.5,28.2-18.6c2-0.4,4-1.2,6.1-1.4c2.6-0.2,5.2-0.1,7.8,0.1
		c1,0.1,2.1,0.5,3.6,0.8c0-2,0-3.6,0-5.2c0-6.9,4.4-11.5,11-11.8c6.6-0.2,11.3,4,11.9,10.8c0,0.3,0.1,0.5,0.1,0.4
		c2.8-0.5,5.5-1.5,8.2-1.5c6.1,0,10.5,4.4,10.7,10.5c0.1,3.5,0,7,0,10.3c2.9-0.6,5.5-1.5,8.2-1.5c6.2-0.1,10.8,4.7,10.8,10.9
		c0,24.5,0.1,49,0,73.5c-0.1,18.7-13.2,35.5-32.4,41.5c-5.5,1.7-11.4,2.8-17.1,2.8c-82.9,0.2-165.8,0.1-248.8,0.1
		c-5.8,0-9.7-2.8-11-7.9c-1.2-4.6,0.8-9.9,4.9-12C893.5,634.1,895.8,633.8,898.2,633.2z M1120,561.4c0,12.2,0,24.4,0,36.6
		c0,0.9,0.2,1.9-0.2,2.7c-0.3,0.7-1.3,1.5-1.9,1.5c-0.6,0-1.5-0.8-1.9-1.5c-0.3-0.7-0.2-1.6-0.2-2.4c0-7.4,0.1-14.8-0.1-22.1
		c-0.1-4.7-3.1-7.5-7.6-7.4c-4.4,0.1-7.2,2.9-7.2,7.5c0,11-0.1,22.1,0,33.1c0.1,10.3,3.6,19.3,10.6,26.8
		c12.8,13.8,33.5,18.5,51.8,12c15.3-5.5,29.2-19.9,28.8-40.9c-0.4-23.1-0.1-46.3-0.1-69.4c0-4.6-3-7.7-7.4-7.7c-4.5,0-7.4,3-7.4,7.6
		c0,10,0,20,0,30.1c0,1.8,0.6,4.5-2.2,4.5c-2.8,0-2.1-2.7-2.1-4.5c0-16.5,0-33,0-49.5c0-3.7-1.6-6-4.9-7c-5.3-1.7-9.9,1.5-9.9,7.1
		c0,16.5,0,33,0,49.5c0,0.9,0.2,1.9-0.2,2.7c-0.4,0.8-1.3,1.6-2,1.7c-0.6,0.1-1.6-0.9-1.9-1.6c-0.4-0.9-0.2-2-0.2-3
		c0-19.7,0-39.4,0-59.1c0-3.5-1.4-5.7-4.3-6.9c-5.3-2.1-10.4,1.3-10.4,7c0,19.6,0,39.2,0,58.8c0,0.8,0.2,1.8-0.1,2.4
		c-0.5,0.9-1.3,1.6-2.1,2.4c-0.7-0.7-1.6-1.3-2-2.2c-0.4-0.8-0.1-1.8-0.1-2.7c0-14.4,0-28.8,0-43.2c0-4.1-1.7-6.5-5.1-7.4
		c-5.2-1.4-9.6,1.9-9.6,7.3C1120,536.6,1120,549,1120,561.4z M1116.2,567.1c0-16.4,0-32.2,0-48.1c-0.1,0-0.5-0.1-0.8,0
		c-8.5,2-15.9,5.9-20.8,13.5c-3.4,5.3-6.6,10.7-9.7,16.2c-7.7,13.6-15.3,27.3-23.1,40.9c-2.6,4.6-5.5,5.6-10.6,4.4
		c-13.8-3.4-27.5-6.9-41.3-10.3c-7-1.7-13.9-3.7-21.2-3.4c-9.1,0.3-14.6,4.3-17.2,12.8c-2.8,9.2-0.8,16.7,6.9,21.6
		c4.1,2.6,8.9,4.7,13.6,6c13.6,3.6,27.4,6.8,41.1,9.9c4.9,1.1,10,2.6,15,2.7c13.8,0.3,27.5,0.1,41.3,0c4.6,0,9.2,0,13.8,0
		c0-0.7,0.1-0.9,0-1c-0.4-0.7-0.8-1.4-1.2-2.2c-3.2-5.9-5.1-12.3-5.2-19.1c-0.1-11.8-0.1-23.7,0-35.5c0-5.3,3.5-9.3,8.6-10.5
		C1109.2,564,1112.4,565,1116.2,567.1z M1124.5,651.1c0.1-0.2,0.1-0.3,0.2-0.5c-0.6-0.3-1.3-0.6-1.8-1c-4.7-3.4-9.5-6.7-13.9-10.4
		c-1.8-1.5-3.4-2.3-5.7-2.3c-56.3,0.2-112.6,0.4-168.9,0.6c-12.4,0-24.8,0.1-37.2,0.1c-4,0-6.6,2.5-6.9,6.3
		c-0.3,4.3,2.7,7.2,7.6,7.2c72.4,0,144.9,0,217.3,0C1118.3,651.1,1121.4,651.1,1124.5,651.1z M902.1,623.8c0,2.5,0.1,4.7,0,6.8
		c-0.2,2.4,0.7,3.2,3.1,3.1c10.1-0.2,20.2-0.2,30.3-0.1c2.8,0,3.5-0.9,3.5-3.6c-0.2-21.7-0.4-43.3-0.4-65c0-4.7-1.9-8.2-5.7-10.8
		c-4.4-3-6.5-7.1-6.5-12.5c0-8.5-0.1-16.9-0.1-25.4c0-1.2,0.6-2.5,1.2-3.6c0.7-1.4,0.4-3.8-0.8-3.9c-4.9-0.1-9.7,0-14.8,0
		c0.1,1.6-0.2,3.2,0.4,3.7c1.9,1.6,1.4,3.7,1.4,5.6c0.1,7.5-0.1,14.9,0.2,22.4c0.2,5.9-2.2,10-6.9,13.4c-1.9,1.4-4,3.7-4.5,5.9
		c-0.9,4.4-0.7,9.1-1,13.9c5.6,0,10.5,0,15.4,0c3.9,0,5,1.1,5,5c0.1,13.2,0.2,26.4,0.3,39.6c0,4.4-1.2,5.6-5.7,5.6
		C911.9,623.8,907.1,623.8,902.1,623.8z M954.8,559.5c0,4.9-0.2,9.6,0.1,14.1c0.2,3.5,2.3,6,5.9,6.5c4,0.5,8.1,0.7,12.2,1
		c0.5,0,1.1-0.1,1.5-0.4c5.8-4.4,12.6-5,19.5-4.4c2.2,0.2,3.2-0.7,3.2-2.6c0-4-0.2-8-0.2-11.9c0-1.9-0.9-2.6-2.9-2.5
		c-5.1,0.2-10.2,0.2-15.3,0.2C971.2,559.5,963.5,559.5,954.8,559.5z M918.1,577.6c-4.8,0-9,0.1-13.3,0c-2.3-0.1-2.9,0.7-2.9,3
		c0.2,12.1,0.2,24.2,0.3,36.3c0,1,0.1,1.9,0.2,3c4.6,0,9-0.1,13.3,0c1.9,0,2.4-0.7,2.4-2.6c-0.1-7.5-0.1-15.1-0.1-22.7
		C918,589,918.1,583.5,918.1,577.6z M996.3,555.1c-1.1-5.2-2-9.9-3.1-14.6c-0.1-0.6-1.2-1.4-1.8-1.4c-10.3-0.1-20.6,0-30.8,0.1
		c-0.7,0-1.8,0.9-2,1.5c-1,4.7-1.8,9.4-2.8,14.3C969.3,555.1,982.5,555.1,996.3,555.1z M1026.1,633.2c-15.8-5.3-32.6-6.8-47.9-13.8
		c0,4.7,0,9.2,0,13.8C994.3,633.2,1010.2,633.2,1026.1,633.2z"/>
	<path class="st0" d="M1067.3,421.3c27.6-0.1,50,22.4,50.2,50c0.1,27.7-22.4,50.3-50.1,50.3c-27.6,0-50.1-22.4-50.2-50
		C1017.2,443.8,1039.5,421.3,1067.3,421.3z M1113.6,471.5c0-25.6-20.6-46.2-46.2-46.3c-25.5-0.1-46.3,20.6-46.4,46.1
		c-0.1,25.5,20.8,46.5,46.4,46.5C1092.8,517.8,1113.5,497,1113.6,471.5z"/>
</g>
<g>
	<path class="st0" d="M850.7-369.6c-11.8-9.6-17.9-22.1-20.6-36.6c-0.2-1-1.1-2.3-2-2.7c-7.1-3-12.3-8.2-15.8-14.8
		c-2.7-5.1-5-10.6-6.5-16.2c-2.9-11.2,1.1-18.3,11.7-22.3c-1.7-8-4-15.9-5-24c-1.9-14.8-0.2-29.4,7.6-42.3
		c27.6-46,81.6-48.4,113.7-22.6c13.7,11,21.1,25.2,21,42.7c-0.1,14.1-1.3,28.1-2,42.2c-0.1,1.2,0,2.4,0,3.6
		c11.1,3.1,15.6,10.3,13.3,21.7c-2,9.7-6.1,18.4-13.1,25.6c-1.3,1.3-2.7,3-4.3,3.5c-6.2,1.9-7.4,6.8-8.7,12.2
		c-2.6,11.3-8.4,21-17.2,28.7c-0.9,0.8-1.3,2.8-1,4c0.8,3.2,1.9,6.5,3.4,9.5c0.6,1.3,2.1,2.6,3.5,3.1c0.7,0.3,2.3-1,3-1.9
		c14.7-19.1,33.9-30.8,57.8-34.8c45.4-7.5,90.1,21.9,101,66.5c12.7,52-20.7,102.3-73.7,110.8c-5.1,0.8-10.4,1-15.7,1
		c-78.7,0.1-157.4,0-236.1,0c-13.6,0-20.8-5.5-21.5-19.2c-0.9-18.8-0.7-37.7,0.1-56.5c0.7-15.2,9-26.9,20.8-36.1
		c13.5-10.5,29.3-16.3,45.4-21.4c10.3-3.2,20.8-6.1,31.2-9c2.3-0.7,3.9-1.7,4.8-4.1C847-362.5,848.9-365.9,850.7-369.6z
		 M835.2-342.4c-8.2,2.4-16.3,4.6-24.2,7.1c-13.8,4.4-27.4,9.4-39.1,18.2c-12.3,9.2-18.8,21.2-18.5,36.8c0.3,14.5,0,28.9,0.1,43.4
		c0,2.8,0.6,5.7,1.3,8.4c1,3.8,3.3,5.5,7.6,5.5c64.6-0.1,129.2-0.1,193.8-0.1c1.2,0,2.4,0,4.4,0c-33.6-20.7-49-50.1-46.9-88.7
		C882.7-294.3,845.7-308.7,835.2-342.4z M924-302.3c-0.2,43.2,35.4,79,78.6,79.1c44.1,0.2,79.9-35.4,79.9-79.4
		c0.1-43.2-35.6-79-78.7-79.2C959.6-381.8,924.1-346.6,924-302.3z M894.3-483c-0.3,0.4-0.7,0.8-1,1.2c2.4,2,5,3.8,7.1,6
		c3.1,3.3,1.8,7.9-2.4,8.7c-15,2.7-30.3-0.2-38.7-16.1c-2.3-4.3-3.8-8.9-5.5-13.4c-1.8-4.7-2.6-5.2-7.4-3c-6,2.8-8.6,8.2-10.5,13.9
		c-3.1,9.5-3.5,19.3-3.6,29.2c0,2.7-1.4,5.9-3.2,7.8c-2.3,2.3-5,0.3-7.3-1.5c-2.6-2.1-5.1-1.2-5.9,2c-0.4,1.6-0.5,3.5-0.1,5.2
		c1.6,7,4.3,13.6,9.2,19c2,2.2,4.6,4.4,7.4,5.3c7,2.3,7.1,2,7.9,9c4.3,35.3,44.2,53.1,73.2,32.5c11.8-8.4,16.6-20.7,18.2-34.6
		c0.5-4.5,1.7-5.6,6.1-6.6c2.2-0.5,4.6-1.5,6.3-2.9c7-6.2,10.4-14.4,12.1-23.4c0.2-1.2-0.1-2.5-0.5-3.7c-1.1-3.6-3.9-4.2-6.3-1.3
		c-1.8,2.1-3.6,3.4-6.4,2.5c-2.8-1-3.3-3.3-3.7-5.9c-1.4-9.1-2.7-18.2-4.6-27.2c-1.2-5.9-3.5-11.5-5.4-17.8
		C915.6-483.6,914.3-483.1,894.3-483z M943.5-488.4c0.2,0,0.4-0.1,0.6-0.1c0-7.6,0.3-15.2-0.1-22.8c-0.6-10.7-4.5-20.2-12.5-27.6
		c-19.7-18.1-42.8-23.2-67.5-13.8c-24.1,9.1-39.5,26.4-41.5,53.4c-0.4,5.3,0.2,10.7,0.3,16.1c0.3,0,0.7,0,1-0.1
		c1.5-3.9,2.7-7.9,4.5-11.7c3.2-6.9,8.1-12.3,15.5-14.9c10.2-3.6,15.5-1.2,19.3,8.8c1.1,2.9,2,5.9,3.3,8.7c1.4,2.9,2.8,5.9,4.8,8.4
		c3.1,4.1,7.5,6.2,13.1,6.7c-1.4-2.1-2.6-3.7-3.5-5.4c-3.6-6.6-0.4-11.9,7.1-11.6c4.5,0.2,8.9,0.7,13.4,0.8
		c7.5,0.3,13.3-2.8,17.3-9.1c1.7-2.6,3-5.4,4.6-8.1c2.2-3.7,6.5-4.2,8.9-0.7c2.8,4.2,5.4,8.6,7.7,13.1
		C941.4-495.1,942.3-491.7,943.5-488.4z M911.2-363.9c-8.5,3.7-17.1,5.1-25.9,5c-8.8,0-17.3-1.6-25.1-5.1c-5.4,6-4.7,16.1-14.4,18.7
		c0.5,1.7,0.9,3.3,1.5,4.9c3.6,8.4,9.3,14.9,17.1,19.7c18.5,11.3,52.4,7.4,58.9-24.3c-5.7-0.2-7.1-4.4-8.5-8.8
		C913.8-357,912.5-360.3,911.2-363.9z"/>
	<path class="st0" d="M1019.1-283.8c0,7.7,0,15.1,0,22.4c0,6-2.3,8.3-8.4,8.3c-6,0-12,0-18,0c-5.4,0-8-2.6-8-8.1
		c0-7.3,0-14.7,0-22.6c-2.4,0-4.8,0-7.1,0c-5.5,0-11,0.1-16.5,0c-4.3-0.1-7-2.7-7.1-7c-0.1-6.7-0.1-13.5,0-20.2
		c0.1-4.5,2.8-7.1,7.4-7.1c7.6-0.1,15.2,0,23.2,0c0-7,0-13.9,0-20.7c0-7.1,2.2-9.3,9.4-9.3c5.9,0,11.7-0.1,17.6,0
		c4.9,0.1,7.4,2.5,7.4,7.4c0.1,7.3,0,14.7,0,22.5c7,0,13.8,0,20.7,0c7.3,0,9.3,2,9.3,9.3c0,5.7,0,11.5,0,17.2c0,5.5-2.4,7.9-8.1,7.9
		C1033.8-283.7,1026.7-283.8,1019.1-283.8z M964.6-294.2c7.1,0,13.8,0,20.5,0c8.3,0,10,1.7,10,10.1c0,6.8,0,13.6,0,20.3
		c4.8,0,9.1,0,13.5,0c0-7.4,0-14.5,0-21.6c0-6.4,2.4-8.8,8.8-8.8c6.9,0,13.9,0,20.9,0c0-4.7,0-9,0-13.5c-6.8,0-13.4,0-20,0
		c-7.7,0-9.6-2-9.7-9.8c0-3.5,0-7,0-10.5c0-3.2,0-6.4,0-9.4c-4.8,0-9,0-13.5,0c0,5.3,0,10.4,0,15.5c0,14.1-0.1,14.3-14.1,14.3
		c-5.4,0-10.9,0-16.5,0C964.6-303.1,964.6-298.9,964.6-294.2z"/>
</g>
<g>
	<path class="st0" d="M877.3,874c2.5-11.6-0.5-22-7.6-31.4c-2.5-3.4-5.5-6.2-8.9-8.8c-0.5-0.4-0.6-0.7-0.3-1.3
		c0.4-0.9,0.7-1.8,1.1-2.7c1-2.4,1.3-4.9,0.9-7.5c-0.7-4.9-3.3-8.6-7.3-11.4c-8.1-5.6-16.1-11.3-24.2-16.9c-0.3-0.2-0.6-0.4-0.7-0.7
		c-1.2-3.4-2.2-7-3.1-10.5c0.3-0.7,0.8,0.1,1.2-0.3c3.8,0.4,7.5-0.2,11.1-1.4c3.6-1.2,6.3-3.4,8.1-6.7c2-3.6,2.9-7.5,3.3-11.6
		c0.5-4.6,0.4-9.2,0.1-13.7c0-0.4,0-0.8,0.3-1.2c1.3-1.7,1.5-3.5,0.7-5.4c-4.3-10.8-12.4-16.6-23.8-17.6c-8.1-0.7-15.3,1.9-21.2,7.5
		c-5.9,5.7-8.6,12.8-8.1,21c0,1.5,0,3,0,4.5c0,3.7,0,7.3,0,11c0.1,11.4-0.8,22.6-3.2,33.8c-0.1,0.4-0.4,0.8-0.2,1.3
		c-0.1,1.8-0.6,3.6-0.9,5.4c-0.6,3.3-1,6.6-1.5,9.9c-0.2,1.1,0.4,2,1.4,2.2c1,0.2,1.8-0.5,2-1.6c0.2-1.4,0.4-2.9,0.7-4.3
		c0.3-2.5,0.7-4.9,1-7.4c0.4-2,0.8-4,1.2-5.9c1.8-8.6,2.8-17.2,3-26c0.1-8.3,0.1-16.5,0.1-24.8c0-3.4,0.6-6.6,2.1-9.6
		c4.9-10.2,15.9-15.6,27-13.1c8.2,1.9,14.1,6.7,17.2,14.6c0.6,1.6,0.5,2.1-0.9,3.2c-0.6,0.5-1.2,0.9-1.9,1.3
		c-5.7,3.7-11.9,5.5-18.6,6.1c-4.2,0.4-6.6,3.3-6.4,7.5c0.3,4.8,0.7,9.7,1.5,14.4c1.5,8.9,3.8,17.5,7.6,25.8
		c4.7,10.3,7.8,21,8.9,32.2c0.5,5,0.6,9.9,0.5,14.9c0,1.3,0.6,2,1.7,2c1.1,0,1.7-0.7,1.7-2c0-5.6-0.1-11.3-0.7-16.9
		c-1-8.2-2.9-16.2-5.8-23.9c-1.1-2.8-2.3-5.5-3.4-8.3c0,0,0.1-0.1,0.1-0.1c7,4.9,14,9.7,21,14.7c3.2,2.3,4.9,5.4,5.2,9.4
		c0.1,2.4-0.7,4.6-1.6,6.8c-0.2,0.6-0.4,0.6-0.9,0.3c-2.1-1.4-4.3-2.6-6.6-3.6c-1.1-0.5-2.1-0.2-2.5,0.7c-0.4,0.9,0,1.9,1.1,2.4
		c3.9,1.9,7.6,4,10.9,6.8c7,5.7,12.1,12.6,14.2,21.4c2.6,11.2,0,21.1-8.1,29.3c-0.4,0.4-0.8,0.6-1.3,0.5c-6.3-0.2-12.4-1.5-18.2-3.9
		c-0.4-0.2-0.8-0.4-1.1-0.7c-8-9-16-18-24-27c-1-1.1-1.2-2.3-0.7-3.7c1.8-4.9,3.5-9.8,5.3-14.6c0.7-2,1.6-4,2.1-6.1
		c0.4-0.7,0.7-1.5,0.9-2.3c0.4-1,0.8-2,1.1-3c0.3-1-0.2-1.9-1-2.2c-0.8-0.3-1.8,0.1-2.2,1c-0.1,0.2-0.2,0.5-0.3,0.7
		c-3,8.4-6.1,16.9-9.1,25.3c-1,2.8-0.5,5.2,1.4,7.3c8.1,9,16.1,18.1,24.1,27.1c0.4,0.5,0.9,0.8,1.5,1.1c4.9,2.1,10,3.4,15.4,4
		c1,0.1,2.1,0,3.1,0.4c-2.3,2.6-5.1,4.1-8.4,4.6c-3.3,0.4-6.6,0.2-9.8,0.1c-1.6,0-3-0.7-4.2-1.6c-6.6-5.2-13.2-10.3-19.9-15.5
		c-6.7-5.2-13.3-10.4-20-15.6c-2.1-1.6-3.2-3.6-3-6.3c0.1-1.1,0.5-2.1,0.6-3.2c0.3-0.5,0.3-1,0.4-1.5c0-0.1,0.1-0.2,0.1-0.3
		c2.1-9.6,4.2-19.2,6.3-28.8c0.4-2,0.9-3.9,1.2-5.9c0.2-0.9-0.2-1.6-1.1-1.9c-0.8-0.3-1.5,0-2,0.7c-0.3,0.3-0.3,0.8-0.4,1.2
		c-2.8,12.8-5.6,25.6-8.4,38.3c-0.8,3.7,0.2,7,3,9.5c1.4,1.3,3,2.4,4.5,3.6c0.6,0.4,0.8,0.9,0.7,1.6c-0.2,9-1.4,18-3.3,26.8
		c-0.3,1.3,0.2,2.2,1.2,2.4c1,0.2,1.9-0.4,2.1-1.6c1.3-6.4,2.3-12.8,2.9-19.3c0.2-2.2,0.3-4.3,0.5-6.6c0.2,0.1,0.3,0.2,0.5,0.3
		c10.6,8.3,21.2,16.5,31.8,24.8c1.6,1.3,3.4,2.1,5.5,2.3c3.7,0.3,7.5,0.5,11.2-0.1c5.2-0.8,9.4-3.2,12-8c0.3-0.6,0.9-1.1,1.4-1.6
		C872.7,885.8,875.9,880.3,877.3,874z M824.4,761.2c-0.1-2,1-3.3,3-3.5c4.3-0.5,8.6-1.3,12.6-2.8c2.4-0.9,4.6-2,6.8-3.3
		c0.3-0.2,0.5-0.4,0.9-0.4c0,0.1,0.1,0.2,0.1,0.3c0.3,5.9,0.2,11.8-1.4,17.5c-1.7,6.3-6,9.4-12.3,10.2c-1.9,0.2-3.7,0.3-5.6,0.2
		c-0.3-0.1-0.6-0.3-1-0.1c0,0,0,0,0,0c-0.1,0-0.2,0-0.4,0c-0.2-0.3-0.6-0.2-0.8-0.5c-0.1-1.9-0.6-3.8-0.8-5.8
		C824.9,769.1,824.6,765.1,824.4,761.2z"/>
	<path class="st0" d="M815.8,817.5c0,1.1,0.8,1.8,1.7,1.8c1,0,1.7-0.8,1.7-1.9c0-2.7-0.4-5.4-1.1-8c-0.9-3.5-2.2-7-2.8-10.6
		c-0.3-1.6-0.3-3.2-0.4-4.9c-0.1-1-0.8-1.7-1.7-1.7c-0.9,0-1.6,0.7-1.7,1.7c0,0.4,0,0.8,0,1.2c0.1,3.6,0.9,7,2,10.4
		C814.7,809.5,815.8,813.4,815.8,817.5z"/>
</g>
</svg>
