<?xml version="1.0" encoding="utf-8"?>
<!-- Generator: Adobe Illustrator 24.3.0, SVG Export Plug-In . SVG Version: 6.00 Build 0)  -->
<svg version="1.1" id="Layer_1" xmlns="http://www.w3.org/2000/svg" xmlns:xlink="http://www.w3.org/1999/xlink" x="0px" y="0px"
	 viewBox="0 0 150 150" style="enable-background:new 0 0 150 150;" xml:space="preserve">
<style type="text/css">
	.st0{fill:#005BAB;}
</style>
<g>
	<path class="st0" d="M32,148.8c-1.7,0-3.2,0-4.8,0c-0.2-3-0.4-6-0.5-9c-0.6-11.8-1.2-23.6-1.9-35.3c-0.1-2.2,0.3-2.8,2.4-3.5
		c6.5-2.2,11.9-5.9,16.3-11.1c0.7-0.8,0.8-1.5,0.5-2.6c-1.1-3.5-1.9-7.1-2.9-10.7c-1.2,0.6-2.6,1.2-4,2.1c-0.3,0.2-0.4,0.9-0.4,1.3
		c0,3,0,6.1,0,9.2c-1.6,0-3.1,0-4.8,0c0-0.5,0-0.9,0-1.3c0-6.4,0-12.8,0-19.3c0-1,0.4-2.2,1.1-2.9c6.2-7.7,12.4-15.3,18.7-22.9
		c0.5-0.7,1.1-1.3,1.4-2.1c0.6-1.3,0.3-2.5-0.8-3.3c-1.1-0.9-2.3-0.9-3.4,0c-1.1,0.9-2.1,1.9-3.1,2.8c-7.7,7.2-15.4,14.5-23.2,21.5
		c-3.2,2.9-4.8,6.1-5.4,10.3c-2.2,16.3-4.8,32.5-7.3,48.8c-1.3,8.8-2.7,17.7-4,26.5c-0.1,0.6-0.2,1.2-0.3,2c-1.5-0.2-3-0.4-4.7-0.7
		c0.5-3.5,1-7,1.6-10.5c2.1-13.6,4.1-27.1,6.2-40.7c1.3-8.8,2.7-17.6,4-26.4c0.1-0.9,0.2-1.8,0.3-2.7c0.5-3.3,2-6.1,4.5-8.4
		c4.4-4.1,8.8-8.2,13.3-12.3c0.9-0.9,1.3-1.7,1.2-3c-0.1-5.8,0-11.5,0-17.3c0-15,11.6-26.6,26.6-26.6c8.4,0,16.8,0,25.2,0
		c8.9,0,15.3,5.2,17.2,13.9c0,0.1,0.1,0.2,0.2,0.4c3,0.1,6,0.8,8.7,2.5c5.1,3.2,7.9,7.9,8.1,14c0.1,4.6,0,9.2,0.1,13.7
		c0,0.7,0.4,1.5,0.9,2c3.7,3.6,7.4,7.3,11.4,10.6c4.4,3.7,6.5,8.1,7.2,13.8c1.8,14.3,4.2,28.5,6.4,42.8c1.7,11.3,3.4,22.6,5.1,34.1
		c-1.5,0.2-3,0.5-4.7,0.8c-0.5-3.4-1-6.6-1.5-9.9c-2.1-13.6-4.1-27.1-6.2-40.7c-1.4-9.3-3-18.7-4.2-28c-0.4-3.3-1.7-5.8-4.1-8.1
		c-8.9-8.2-17.7-16.4-26.6-24.6c-0.7-0.6-1.6-1.2-2.4-1.2c-0.8,0-1.9,0.7-2.4,1.4c-0.8,1.1-0.4,2.4,0.5,3.4c2.5,3.1,5.1,6.2,7.6,9.4
		c4,4.9,8,9.8,12,14.7c0.5,0.7,1,1.6,1,2.4c0.1,6.8,0,13.6,0,20.5c0,0.2,0,0.4-0.1,0.6c-1.5,0-3,0-4.7,0c0-2.2-0.2-4.5,0.1-6.8
		c0.4-2.8-0.6-4.5-3.3-5.3c-0.5-0.1-0.9-0.4-1.5-0.7c-0.3,1.8-0.4,3.5-0.8,5.2c-0.5,2-1.1,4-1.8,6c-0.3,0.9-0.3,1.4,0.3,2.1
		c4.4,5.3,9.7,9,16.2,11.2c2.6,0.9,2.9,1.3,2.7,4c-0.8,14.4-1.5,28.7-2.3,43.1c0,0.3,0,0.6-0.1,0.9c-1.6,0-3.1,0-4.7,0
		c0.1-2.6,0.2-5,0.4-7.4c0.3-5,0.5-10,0.8-15.1c0.1-1.1-0.3-1.6-1.3-1.9c-3.1-0.9-6.2-1.9-9.2-2.9c-0.7-0.2-1.1-0.2-1.6,0.5
		c-5.6,9.3-14.1,14.5-24.6,16.5c-10.9,2-21.1-0.1-30.2-6.4c-3.8-2.6-6.8-5.9-9.2-9.9c-0.5-0.8-0.9-1-1.8-0.7c-3.1,1-6.1,2-9.2,2.9
		c-1,0.3-1.3,0.7-1.2,1.8c0.4,6.7,0.7,13.4,1.1,20.1C31.9,147.1,32,147.8,32,148.8z M88.2,40.5c-0.3,0.5-0.4,0.6-0.5,0.8
		c-5.1,9.6-13.1,14.3-23.9,14.4c-5,0-9.9,0-14.9,0c-2.1,0-2.5,0.4-2.5,2.4c0,5.5,0,11,0,16.6c0,1.7,0.1,3.5,0.5,5.2
		c3,15.3,16.4,25.1,31.9,23.4c12.6-1.5,23.4-12,24.6-24.7c0.5-5.2,0-10.4,0.4-15.6c0.3-4.3-0.6-7.8-3.8-10.6c-0.5-0.4-0.8-1-1.2-1.5
		C95.2,47.4,91.7,44,88.2,40.5z M113.2,42c0-3.9,0.1-7.4,0-11c-0.2-5.1-4-9.7-9-10.8c-1.5-0.3-3.2-0.3-4.7-0.4
		c-2-0.1-2.8-0.8-2.9-2.8C96.1,10.4,91,5.6,84.3,5.5c-8.7,0-17.4,0-26.1,0c-11.8,0.1-21.3,9.6-21.4,21.4c0,4.6,0,9.2,0,13.7
		c0,0.4,0.1,0.7,0.1,1.1c0.2-0.1,0.2-0.1,0.3-0.1c2.7-2.5,5.5-5.1,8.2-7.6c3.2-2.9,7.4-3,10.4-0.3c3,2.7,3.3,7.1,0.8,10.5
		c-1.4,1.9-3,3.7-4.5,5.6c-0.2,0.3-0.4,0.6-0.7,1.1c4.3,0,8.4,0,12.4,0c10.1,0,17.3-5.1,20.8-14.6c0.8-2.3,2.5-2.8,4.4-1.2
		c1,0.8,1.9,1.6,2.9,2.5c2.6-6.4,8.3-7.7,13.3-3.1C107.7,36.9,110.3,39.3,113.2,42z M56.2,117c9.9,10.7,27.6,10.6,37.5,0
		c-1.6-0.5-3.1-1-4.6-1.5c-1.8-0.6-2.2-1.2-2.2-3c0-2.1,0-4.1,0-6.4c-8,2.9-15.9,2.9-23.9,0c0,2.3,0,4.4,0,6.4c0,1.6-0.6,2.5-2.1,3
		C59.4,115.9,57.8,116.4,56.2,117z M46.8,93.3c-0.1,0.2-0.3,0.5-0.5,0.7c-3.8,4.3-8.4,7.6-13.6,10c-2.9,1.3-2.9,1.3-2.8,4.5
		c0.2,3.8,0.4,7.5,0.6,11.4c0.7-0.2,1.2-0.3,1.7-0.5c7.2-2.2,14.4-4.5,21.6-6.7c1.5-0.5,3.5-0.6,4.2-1.6c0.7-1,0.1-3,0.3-4.5
		c0.2-2-0.3-3.4-2.2-4.3c-1.2-0.6-2.2-1.5-3.2-2.5C50.9,97.8,48.9,95.6,46.8,93.3z M102.8,93.4c-2.7,4-6.3,7.4-10.5,10.1
		c-0.3,0.2-0.5,0.8-0.5,1.2c-0.1,1.8,0,3.6,0,5.4c0,1,0.3,1.3,1.2,1.6c5,1.5,10.1,3.1,15.1,4.7c3.8,1.2,7.6,2.4,11.5,3.6
		c0.3-4.8,0.5-9.5,0.7-14.2c0-0.4-0.7-0.8-1.1-1.1c-3.1-1.8-6.4-3.3-9.3-5.3C107.3,97.8,105.1,95.5,102.8,93.4z M103,119.8
		c-0.8-0.3-1.4-0.4-1.9-0.6c-1.5-0.8-2.6-0.4-3.8,0.9c-7.7,7.9-17.1,11-28,9.1c-6.8-1.2-12.6-4.5-17.2-9.7c-0.7-0.8-1.3-1-2.3-0.6
		c-0.8,0.4-1.7,0.6-2.5,0.8c3.8,7.4,14,14.5,26.6,14.7C86,134.7,95.9,130.3,103,119.8z M41.6,63.2c-2.6,2.9-6.2,5.3-4.5,10
		c1.3-0.6,2.6-1.3,3.9-2c0.3-0.2,0.6-0.7,0.6-1.1C41.6,67.8,41.6,65.5,41.6,63.2z M113.3,73.4c-0.1-1.9,0.3-3.7-0.3-5
		c-1-2-2.8-3.6-4.5-5.7c0,2.9,0,5.2,0,7.6c0,0.3,0.3,0.8,0.6,1C110.4,71.9,111.7,72.6,113.3,73.4z"/>
	<path class="st0" d="M56.3,72.4c-0.3-1.7-0.6-3.1-0.9-4.7c2.2-0.5,4.3-0.9,6.6-1.4c-1.8-1.4-3.4-2.6-5.2-4c0.9-1.3,1.8-2.5,2.9-3.8
		c3.3,2.5,6.6,4.9,9.7,7.4c1.5,1.2,0.8,3.5-1.1,3.9C64.4,70.8,60.5,71.6,56.3,72.4z"/>
	<path class="st0" d="M90.3,58.6c1,1.3,1.9,2.5,2.8,3.8c-1.7,1.3-3.3,2.5-5.2,4c2.3,0.5,4.4,0.9,6.6,1.4c-0.3,1.5-0.6,3-0.9,4.6
		c-2.4-0.5-4.8-0.9-7.2-1.4c-1.6-0.3-3.2-0.5-4.7-1c-0.8-0.3-1.6-1-1.9-1.8c-0.2-0.6,0.2-1.8,0.7-2.2C83.7,63.4,87,61.1,90.3,58.6z"
		/>
</g>
</svg>
