<?xml version="1.0" encoding="utf-8"?>
<!-- Generator: Adobe Illustrator 24.3.0, SVG Export Plug-In . SVG Version: 6.00 Build 0)  -->
<svg version="1.1" id="Layer_1" xmlns="http://www.w3.org/2000/svg" xmlns:xlink="http://www.w3.org/1999/xlink" x="0px" y="0px"
	 viewBox="0 0 150 150" style="enable-background:new 0 0 150 150;" xml:space="preserve">
<style type="text/css">
	.st0{fill:#005BAB;}
</style>
<g>
	<path class="st0" d="M49.5,38.9c-7.8,1.8-14.6,0.5-20.2-5.2c-3.7-3.9-5.6-8.6-5.5-14C24,8.8,32.7,0.3,43.5,0.3
		c12.1,0.1,19.4,9,19.3,23.2c10.1,2,17,9,23.9,15.6c8,7.5,12.5,17.2,14.3,28.1c1.1,6.7,2.4,13.4,3.2,20.2c0.4,3.1-0.4,6.3-0.6,9.5
		c1.6,0,3.7,0,6.3,0c0-0.9,0-1.8,0-2.7c0-13.8,0-27.6,0-41.3c0-5.7,2.5-8.2,8.1-8.2c5.8,0,11.5,0,17.3,0c5.6,0,8.1,2.5,8.1,8
		c0,21.3,0,42.6,0,64c0,7.5-4.1,13.1-11.2,15.4c-1.4,0.4-1.8,1.1-1.8,2.5c0.1,3.8,0.1,7.5,0,11.3c0,2.6-1,3.7-3.6,3.7
		c-19.9,0-39.7,0-59.6,0c-3.1,0-4.4-2-3.2-4.9c1.7-4,3.4-8,5.3-12.3c-0.9-0.5-1.8-0.9-2.7-1.3c-7.2-3.5-11.2-9.2-11.8-17.1
		c-0.3-3.3-0.1-6.6-0.1-9.9c0-1.3-0.4-2-1.9-1.9c-1.7,0.1-3.3,0-5.3,0c0.5,2.8,0.8,5.3,1.3,7.8c1.6,8.8,3.4,17.6,4.9,26.5
		c1.1,6.2-2.6,11.8-8.3,13c-6.3,1.3-11.9-2.2-13.2-8.8c-2.6-13.4-5-26.9-7.4-40.3c-0.9-5.2,0.4-9.7,3.8-13.8
		c0.2-0.2,0.3-0.5,0.7-1.2c-3.3,0-6.2-0.1-9.2,0c-3.1,0.1-5.9-0.5-8.4-2.6C8.6,80,7.2,75.4,8.5,71.5c1.4-4.3,5.4-7.6,9.7-7.7
		c5.7-0.2,11.4,0,17.1-0.2c0.9,0,2.1-0.6,2.5-1.4c3.8-7.3,7.5-14.6,11.2-22C49.2,40,49.2,39.6,49.5,38.9z M41.5,97.1
		c1.2,0,2.2,0,3.1,0c15.6,0,31.2,0,46.9,0c6,0,8.7-2.7,8-8.5c-0.8-6.4-1.9-12.7-2.9-19.1c-1.8-11.2-6.5-21-15-28.6
		c-4.1-3.7-8.7-6.8-13.2-10.1c-4-3-7.6-2.1-9.8,2.3C52.7,44.1,47,55.2,41.5,66.3c-0.9,1.8-1.9,2.6-4,2.5c-5.8-0.2-11.7-0.1-17.5-0.1
		c-4.2,0-6.8,2.3-6.9,5.8c0,3.6,2.6,5.9,6.8,5.9c7,0,14,0,21,0c4.8,0,8.2-2.3,10.2-6.6c0.5-1,0.9-2,1.3-2.9
		c2.7-5.9,5.4-11.7,8.1-17.6c0.8-1.7,2-3.1,3.9-2.3c1,0.4,2.2,1.9,2.3,2.9c0.6,9.4,1.1,18.7,1.5,28.1c0.1,2.5-1.1,3.7-3.6,3.7
		c-3.3,0.1-6.6,0-9.9,0.1c-5.2,0.1-10.3-0.1-15.4,0.4c-6.3,0.6-10.6,6.8-9.5,12.9c2.1,11.6,4.2,23.3,6.3,34.9c0.3,1.7,0.6,3.3,0.9,5
		c0.8,3.9,3.7,6.2,7.1,5.6c3.3-0.6,5.4-3.7,4.7-7.5c-0.7-4.5-1.7-9.1-2.5-13.6C44.7,114.8,43.1,106.1,41.5,97.1z M99.2,102.1
		c0,0,0,0.1,0,0.1c-2.8,0-5.7,0-8.5,0c-9.5,0-19.1,0-28.6-0.1c-1.7,0-2.5,0.4-2.4,2.3c0.2,2.8,0,5.5,0.1,8.3
		c0.1,8.5,6.8,15.2,15.3,15.2c17.4,0,34.8,0,52.1,0c6.6,0,11.3-4.7,11.4-11.3c0-3.8-0.1-7.7,0.1-11.5c0.1-2.3-0.5-3-2.9-3
		C123.5,102.2,111.4,102.1,99.2,102.1z M138.3,96.9c0.1-0.5,0.2-0.7,0.2-0.9c0-14.5,0-29,0-43.6c0-1.9-1-2.7-2.9-2.7
		c-5.8,0-11.5,0-17.3,0c-3.2,0-3.6,0.5-3.6,3.6c0,13.8,0,27.5,0,41.3c0,0.7,0.1,1.5,0.1,2.4C122.8,96.9,130.5,96.9,138.3,96.9z
		 M28.8,20.1c0,8.2,6.5,14.7,14.6,14.7c7.9,0,14.7-6.8,14.6-14.8C58,11.8,51.4,5.3,43.3,5.3C35.1,5.4,28.8,11.8,28.8,20.1z
		 M125.5,144.5c0-3.6,0.1-7-0.1-10.5c0-0.4-1.2-1.1-1.8-1.1c-15.9-0.1-31.7-0.1-47.6,0c-0.6,0-1.6,0.3-1.8,0.7
		c-1.6,3.5-3.1,7.1-4.8,10.9C88.4,144.5,106.8,144.5,125.5,144.5z M62.3,62.8c-0.2-0.1-0.4-0.1-0.5-0.2c-2.9,6-5.8,12-8.7,18.2
		c3,0,5.8,0,8.6,0c1.2,0,1.6-0.6,1.5-1.7C62.9,73.7,62.6,68.3,62.3,62.8z"/>
	<path class="st0" d="M34.5,50.2c-4.1-3.2-8.1-6.4-12.4-9.9c-0.8,1.7-1.5,3.2-2.4,5.2c-2.7-5.4-5.1-10.3-7.6-15.3
		c0.1-0.1,0.2-0.2,0.3-0.3c2.6,2.4,5.2,4.8,8,7.4c0.8-1.8,1.4-3.4,2.2-5.2c4.2,6.1,8.1,11.9,12.1,17.8C34.7,50,34.6,50.1,34.5,50.2z
		"/>
	<path class="st0" d="M17.5,48.4c5.6,3.1,10.8,5.9,16.1,8.8c0,0.1-0.1,0.3-0.1,0.4c-3.8-0.8-7.5-1.5-11.6-2.4
		c-0.2,1.7-0.3,3.2-0.5,5.1c-5-2.1-9.9-4.2-14.8-6.3c0-0.2,0.1-0.3,0.1-0.5c3,0,5.9-0.1,8.9,0c2,0.1,2.7-0.5,2.1-2.5
		C17.5,50.4,17.5,49.6,17.5,48.4z"/>
</g>
</svg>
