<?xml version="1.0" encoding="utf-8"?>
<!-- Generator: Adobe Illustrator 24.3.0, SVG Export Plug-In . SVG Version: 6.00 Build 0)  -->
<svg version="1.1" id="Layer_1" xmlns="http://www.w3.org/2000/svg" xmlns:xlink="http://www.w3.org/1999/xlink" x="0px" y="0px"
	 viewBox="0 0 150 150" style="enable-background:new 0 0 150 150;" xml:space="preserve">
<style type="text/css">
	.st0{fill:#005BAB;}
</style>
<g>
	<path class="st0" d="M89,82.7c-2,4.7-5.5,7.4-10.5,8.2c-1.7,0.3-3-0.4-3.3-1.8c-0.2-1.4,0.6-2.5,2.4-2.7c4.3-0.5,8-5.2,7.9-9.3
		c-0.1-3.1,0.3-6.1,0.4-9.2c0-0.9,0-1.9-0.3-3.1c-3.7,3.6-7.7,6.9-11.2,10.8c-15.5,17.3-22.4,37.7-21.1,60.9c0.2,3.7-0.1,7.4-0.3,11
		c-0.1,1.4-1.3,2.2-2.6,2c-1.3-0.2-2.3-1.3-2-2.6c1-4.5,0.3-8.9,0.2-13.4C48,105.8,58.2,82.9,79,64.6c1.6-1.4,3.3-2.8,4.9-4.2
		c1.4-1.3,3-1.9,4.8-1c1.8,0.9,2.3,2.4,2.1,4.3c0,0.4,0,0.7,0,1.4c1.9-3,3.6-5.7,5.4-8.5c-3.5-0.8-6.7-2.1-9.6-4.2
		c-1.3-0.9-2.5-2-3.8-3c-1.3-1.1-1.4-2.5-0.5-3.6c1-1.1,2.3-1,3.6,0.1c3,2.8,6.4,4.8,10.4,5.9c3.2,0.8,6.3-0.1,9.4-0.5
		c10.4-1.6,20.7-3.4,31.1-4.7c5.2-0.7,8.5-3.4,7.7-10c-3.7-1.2-7.4-2.3-11.2-3.5c-0.7-0.2-1.4-0.4-2.1-0.7c-2.5-1-3.7-2.9-3.8-5.5
		c0-0.8,0-1.5,0-2.4c-3.3,0-6.4-0.1-9.5,0c-1.9,0.1-3.2-0.6-4.4-2.1c-3-3.7-5.8-7.6-9.3-10.8c-5.3-4.8-11.8-6.6-19.1-6.3
		c0.3,0.3,0.4,0.6,0.6,0.8c1.2,1.3,1.4,2.6,0.4,3.6c-1,1-2.3,1-3.6-0.2C80,7.1,76.9,6.1,73.6,7c-1.8,0.5-3.7,1.5-5,2.8
		C57.3,20.9,46.2,32,35.1,43.2c-3.5,3.5-4.6,7.8-3,12.5c1.6,4.9,5.2,7.6,10.2,8.4c8.3,1.3,15-1.4,20.1-8.2c5-6.8,9.1-14,11.8-22
		c0.7-2.1,2.5-2.8,3.9-1.6c0.9,0.8,1,1.7,0.7,2.8c-3.2,9.4-7.9,18.1-14.3,25.7c-7.2,8.5-19.3,10.7-29.2,5.7
		c-0.1-0.1-0.3-0.1-0.7-0.2c-2.9,3.8-6,7.6-8.8,11.5c-8.2,11.4-14.8,23.6-20.3,36.5c-1,2.2-2,2.9-3.5,2.3c-1.4-0.6-1.7-2-0.8-4.1
		c7.6-17.6,17.1-34,29.6-48.7c0.1-0.1,0.2-0.3,0.4-0.6c-2-2.4-3.5-5.1-4-8.3c-1-6,0.7-11.1,5-15.4c6.7-6.7,13.4-13.4,20-20
		c4.2-4.2,8.4-8.3,12.5-12.5c3.1-3.2,6.8-4.8,11.3-5.1c2.3-0.1,4.6-1,6.9-1.2c11.7-1.2,21.5,2.5,29.1,11.5c1.6,1.9,3.2,3.9,4.7,6
		c0.8,1,1.6,1.5,2.9,1.4c7.4-0.1,14.9-0.1,22.3-0.1c4,0,6.8,2.1,7.6,5.7c0.1,0.6,0.1,1.3,0.1,1.9c0,3.6,0,7.2,0,10.8
		c0,7.5-3.6,11.8-11,13c-11.6,1.8-23.3,3.6-34.9,5.4c-0.6,0.1-1.4,0.5-1.8,1c-4.2,4.8-7.1,10.3-9.8,16c-0.5,1.1-1,2.1-1.5,3.1
		c-0.5,1.1-0.3,1.6,1,1.7c3.9,0.3,7.8,0.4,11.6,0.9c8.5,1,15.4,7.8,16.6,16.2c0.2,1.6,0.5,3.2,0.6,4.8c0.1,0.9,0.4,1.2,1.4,1.3
		c2,0,4,0.1,6,0.3c5.9,0.8,9.6,6.6,8,12.4c-0.8,3-1.6,5.9-2.6,8.8c-2,6.2-6.5,9.3-12.9,9.9c-5.6,0.5-11.2,1.2-16.8,1.8
		c-2.8,0.3-4,2.6-2.7,5.1c1,2,2.1,4.1,3,6.1c0.7,1.6,0.3,2.9-1,3.5c-1.3,0.6-2.5,0-3.3-1.5c-1-2-2-4.1-3-6.1
		c-2.7-5.3,0.6-11.1,6.5-11.7c6.1-0.6,12.3-1.3,18.4-2c3.6-0.4,6-2.5,7.1-5.9c1-3,1.9-6.1,2.7-9.2c0.9-3.4-1.3-6.4-4.8-6.6
		c-1.8-0.1-3.6-0.2-5.4-0.3c-2.7-0.1-4.5-1.7-5-4.4c-0.3-1.8-0.5-3.6-0.8-5.3c-1.1-7.3-6.7-12.3-14.2-12.7C97,83.3,93.1,83,89,82.7z
		 M144.7,31.6c0-1.8,0-3.4,0-4.9c0-1.4-0.8-2.3-2.1-2.3c-3.4-0.1-6.8,0-10.5,0c0.5,1.4-0.7,3,1.2,3.7
		C137,29.2,140.8,30.3,144.7,31.6z"/>
	<path class="st0" d="M97.6,26.5c-1.9,0.1-3.6-1.5-3.6-3.4c0-1.9,1.4-3.5,3.3-3.6c1.9-0.1,3.6,1.4,3.7,3.3
		C101,24.8,99.5,26.4,97.6,26.5z"/>
	<path class="st0" d="M100.3,95.7c1.9,0,3.5,1.6,3.5,3.5c0,1.9-1.6,3.5-3.6,3.5c-1.9,0-3.4-1.6-3.4-3.4
		C96.8,97.4,98.4,95.7,100.3,95.7z"/>
</g>
</svg>
