<?xml version="1.0" encoding="utf-8"?>
<!-- Generator: Adobe Illustrator 24.3.0, SVG Export Plug-In . SVG Version: 6.00 Build 0)  -->
<svg version="1.1" id="Layer_1" xmlns="http://www.w3.org/2000/svg" xmlns:xlink="http://www.w3.org/1999/xlink" x="0px" y="0px"
	 viewBox="0 0 150 150" style="enable-background:new 0 0 150 150;" xml:space="preserve">
<style type="text/css">
	.st0{fill:#005BAB;}
</style>
<g>
	<path class="st0" d="M75.6,0.9c1.7,0.4,3.5,0.6,5.2,1.1c2.8,0.7,5.2,2,7.3,3.9c0.3,0.3,1.1,0.4,1.6,0.3c3.7-1.2,7.6-1.6,11.4-1.1
		c5.4,0.7,9.5,3.6,12.6,8c3.7,5.1,5.3,10.9,5.5,17.1c0.3,6.9-1.2,13.5-3.5,20c-0.2,0.6-0.2,1.4,0.1,2c2.1,4,2,7.9-0.6,11.6
		c-2.6,3.7-6.3,5-10.8,4.3c-0.3,0-0.6-0.1-0.5-0.1c-1.6,3-3,6-4.7,8.7c-1.2,1.9-3,3.5-4.6,5.2c-1.1,1.2-1.1,1.4,0.3,1.9
		c4.9,1.9,9.3,4.5,13.1,8.1c0.6,0.6,1.1,1.7,1,2.5c-0.2,1.7-2.2,2-3.8,0.8c-2.9-2.1-5.9-4-8.8-6c-0.4-0.3-1-0.4-1.5-0.7
		c0.3,3.7,0.5,7.4,0.7,11c0.1,1.3,0.1,2.7,0.1,4c0.1,4.7-2.8,8.3-7.4,9.6c-0.9,0.2-1.7,0.8-2.4,1.4c-3.7,3.8-8.1,5.5-13.3,4.9
		c-0.4-0.1-1.2,0.2-1.4,0.5c-4.6,8.1-9.2,16.2-13.7,24.3c-0.1,0.2-0.1,0.3-0.2,0.6c13.3,0,26.5,0,39.8,0c0-0.6,0-1.1,0-1.6
		c0-6.9,0-13.8,0-20.7c0-0.4,0-0.8,0-1.2c0.1-1.2,1-2.1,2.1-2.1c1.2,0,2.2,0.9,2.2,2.2c0,2.7,0,5.4,0,8.1c0,0.6,0,1.2,0,2
		c5.5,0,10.9,0,16.3,0c0.7-10.1-0.3-19.9-6.1-28.6c-0.3-0.4-0.6-0.9-0.8-1.4c-0.5-1.1-0.1-2,0.8-2.6c0.9-0.6,1.8-0.5,2.6,0.3
		c0.3,0.3,0.5,0.6,0.7,0.9c4.6,6.9,7,14.5,7.2,22.7c0.1,7.9,0,15.8,0,23.7c0,1.9-0.8,2.7-2.8,2.7c-29.8,0-59.7,0-89.5,0
		c-1.9,0-2.7-0.8-2.7-2.7c0-7.8-0.1-15.6,0-23.5c0.2-17.2,11.2-33,27.3-39.2c1.8-0.7,1.8-0.9,0.5-2.1c-4.2-3.8-7-8.4-8.7-13.9
		c-5.7,1-10.3-0.6-12.9-6.1c-2.1-4.6-0.9-8.7,2.2-12.1c-1.7-4.4-3.6-8.6-5.1-12.9c-1.5-4.5-2-9.2-2-14c0-2.1,1-3,3.1-2.5
		c5,1,9.5,0,13.2-3.7c1-1,2-1.9,3.1-2.8c1-0.9,2.3-0.9,3.1,0c0.9,0.9,0.9,2.2-0.2,3.2c-1.7,1.6-3.4,3.1-5.2,4.6
		c-3.6,3-7.9,3.9-12.7,3.3C33.6,32.8,36,40.1,40,47c1.8-0.1,3.5-0.3,5.3-0.4c0,0,0.1-0.1,0.1-0.1c0.5-4.5,2-6,6.5-7
		c11.9-2.7,22.2-8.1,30.7-17c2-2.1,4.5-1.9,6.1,0.5c4,5.8,8.1,11.4,13.2,16.3c1.7,1.7,2.2,3.3,2.9,7.2c2.4,0.4,4.7,0.8,7.4,1.3
		c0.7-2.5,1.5-5.2,2.1-8c1.3-6.4,1.1-12.8-1.2-18.9c-0.1-0.4-0.3-0.7-0.4-1.1C108,9.4,99.7,7,89.8,10.8c-2.4,0.9-2.6,0.9-4.1-1
		c-1.6-2.1-3.8-3.1-6.2-3.7C72,4.2,65,5.1,58.7,10.1c-0.4,0.3-0.8,0.6-1.2,0.9c-1.1,0.7-2.3,0.5-3-0.4C53.8,9.7,54,8.4,55,7.5
		c3.9-3.2,8.3-5.7,13.4-6.4c0.3,0,0.5-0.2,0.8-0.3C71.3,0.9,73.5,0.9,75.6,0.9z M85.2,25.9C85.1,26,85,26,84.9,26.1
		C75.8,35.4,64.7,41,52,43.8c-1.8,0.4-2.3,1-2.3,2.9c0,4.3-0.1,8.7,0,13c0.1,2.2,0.4,4.5,0.9,6.7c1.1,4.3,3.4,8,6.7,11.3
		c0.2-0.5,0.3-1,0.5-1.3c1.4-2.8,2.5-5.8,4.4-8.3c6.6-8.8,18.7-8.8,25.4-0.1c1.5,1.9,2.5,4.2,3.6,6.4c0.5,1,0.8,2.1,1.3,3.3
		c4.7-4.7,7.3-10.2,7.6-16.6c0.2-4.9,0.1-9.8,0.1-14.8c0-1.8-0.8-3.3-2-4.6c-1.5-1.6-3.1-3.1-4.5-4.8C90.9,33.3,88.1,29.6,85.2,25.9
		z M62.2,108.6c0.7-6,1.3-11.9,2-17.8c0.2-1.8,1.1-2.7,2.5-2.5c1.3,0.2,2,1.3,1.8,3c-0.7,6.1-1.4,12.2-2,18.3
		c-0.1,0.6,0.2,1.4,0.6,1.9c4.3,4.8,11.4,4.8,15.7,0c0.4-0.5,0.7-1.3,0.6-1.9c-0.6-6.1-1.3-12.2-2-18.3c-0.2-1.7,0.5-2.8,1.8-3
		c1.4-0.2,2.3,0.7,2.5,2.5c0.4,3.4,0.7,6.7,1.1,10.1c0.3,2.6,0.6,5.1,0.9,7.9c1.8-1.2,3.7-2.1,3.6-4.4c-0.1-6.6-0.4-13.2-1.7-19.7
		c-1-4.9-2.3-9.8-5.4-13.9c-4.9-6.6-13.9-6.7-18.7,0c-1.7,2.4-3,5.3-4,8.1c-2.6,7.9-3,16.2-3.2,24.4C58.5,106,59.5,107.5,62.2,108.6
		z M33.5,144.8c6,0,11.7,0,17.5,0c1,0,1.5-0.4,2-1.2c4.6-8.3,9.3-16.6,14-24.8c0.2-0.4,0.4-0.8,0.7-1.2c-2.7-1.8-4.6-4.7-8-5.3
		c-0.9-0.2-1.7-0.9-2.4-1.6c-1.1-1.2-2-2.5-3.1-3.8c-0.9,1.6-1.8,3.3-2.7,5c-1.2,2.1-2.3,4.2-3.5,6.3c-0.6,1.1-1.6,1.6-2.7,1
		c-0.7-0.4-1.2-1.3-1.4-2.1c-0.1-0.5,0.3-1.2,0.6-1.7c3.1-5.7,6.2-11.3,9.3-17c0.3-0.5,0.6-0.9,0.6-1.4c0.3-2.8,0.5-5.6,0.7-8.5
		c-0.2,0.1-0.4,0.1-0.5,0.1c-13,6.3-20.8,16.6-22.4,31c-0.7,5.9-0.3,11.9-0.3,17.8c0,0.2,0.1,0.4,0.2,0.8c0.4-0.7,0.7-1.1,0.9-1.6
		c2.3-4.1,4.5-8.3,6.8-12.4c0.8-1.4,2-1.8,3.1-1.1c1.1,0.6,1.3,1.8,0.7,3.1c-0.2,0.3-0.4,0.7-0.5,1c-2.9,5.3-5.8,10.7-8.7,16
		C34.1,143.6,33.8,144.1,33.5,144.8z M101.6,144.7c5.6,0,11,0,16.4,0c0-3,0-5.8,0-8.8c-2.8,0-5.5,0-8.2,0c-2.7,0-5.4,0-8.1,0
		c0,0.5-0.1,0.8-0.1,1.1C101.6,139.5,101.6,142,101.6,144.7z M45.5,51c-1.5,0.1-2.8,0-4,0.3c-3.1,0.9-5,4.2-4.3,7.4
		c0.8,3.3,3.8,5.5,7.1,5c0.4-0.1,1.2-0.5,1.2-0.9C45.6,59,45.5,55.2,45.5,51z M104.5,51.5c0,3.7,0,7.5,0,11.3c0,0.3,0.5,0.7,0.9,0.8
		c2.4,0.6,5.2-0.7,6.6-2.9c1.5-2.3,1.2-5.3-0.5-7.4C109.8,51.3,107.1,50.5,104.5,51.5z"/>
	<path class="st0" d="M44.9,78.2c-0.1,2.9-0.5,5.3-1.9,7.5c-1.8,2.8-4.8,4.1-8,3.5c-2.9-0.5-5.3-2.9-6-5.8c-0.7-3.1,0.6-6.2,3.3-8
		c3.3-2.1,6.9-2.3,10.6-1.6c0.6,0.1,1.3,1.1,1.6,1.8C44.9,76.4,44.8,77.5,44.9,78.2z M40.8,78c-0.2-0.2-0.4-0.4-0.6-0.6
		c-1.7,0.4-3.4,0.7-5,1.3c-1.5,0.6-2.1,2-1.9,3.5c0.2,1.3,1.3,2.4,2.6,2.6c1.5,0.3,2.9-0.3,3.6-1.8C40.1,81.4,40.3,79.7,40.8,78z"/>
	<path class="st0" d="M105.2,79c0-5,0.7-5.8,5.1-5.7c2.5,0,5,0.4,7.2,1.8c2.8,1.8,4.2,4.9,3.5,8.1c-0.6,3-3.1,5.4-6,5.9
		c-3.2,0.5-6.3-0.8-8-3.7C105.6,83.3,105.2,80.9,105.2,79z M109.5,77.7c0,2.1,0.1,4,1.2,5.6c0.8,1.2,2,1.8,3.5,1.5
		c1.4-0.3,2.2-1.1,2.5-2.5c0.3-1.5-0.3-2.7-1.5-3.5C113.5,77.8,111.6,77.6,109.5,77.7z"/>
	<path class="st0" d="M60.7,53c-0.8-0.5-1.5-0.7-2-1.1c-1.1-0.7-1.4-1.8-0.9-2.9c0.5-1,1.7-1.5,2.8-1c1.9,0.9,3.9,1.9,5.8,3
		c1.5,0.9,1.5,2.8,0.1,3.7c-1.9,1.2-3.8,2.2-5.8,3.2c-1.1,0.6-2.3,0.1-2.8-0.9c-0.6-1-0.3-2.2,0.8-2.9C59.3,53.8,59.9,53.5,60.7,53z
		"/>
	<path class="st0" d="M89.3,53c0.8,0.5,1.5,0.8,2.1,1.2c1,0.7,1.3,1.9,0.7,2.9c-0.6,1-1.7,1.4-2.9,0.8c-1.9-1-3.8-2-5.6-3.2
		c-1.6-1-1.5-2.9,0.2-3.8c1.8-1,3.6-1.9,5.5-2.8c1.2-0.6,2.4-0.1,2.9,1c0.5,1.1,0.2,2.1-0.9,2.8C90.7,52.3,90.1,52.6,89.3,53z"/>
</g>
</svg>
