<?xml version="1.0" encoding="utf-8"?>
<!-- Generator: Adobe Illustrator 24.3.0, SVG Export Plug-In . SVG Version: 6.00 Build 0)  -->
<svg version="1.1" id="Layer_1" xmlns="http://www.w3.org/2000/svg" xmlns:xlink="http://www.w3.org/1999/xlink" x="0px" y="0px"
	 viewBox="0 0 150 150" style="enable-background:new 0 0 150 150;" xml:space="preserve">
<style type="text/css">
	.st0{fill:#5F6368;}
	.st1{fill:#005BAB;}
</style>
<path class="st0" d="M2053.7-657.2c-2.1,0-3.6,0-5.1,0C2049.8-661.3,2051.5-660.2,2053.7-657.2z"/>
<g>
	<path class="st1" d="M138.2,107.4c-0.4,0-0.7-0.2-1-0.5c-2.1-2.1-4.2-4.2-6.3-6.4c-0.6-0.6-0.8-1.2-0.2-1.8
		c0.6-0.6,1.2-0.4,1.8,0.2c2.1,2.1,4.2,4.2,6.4,6.4c0.4,0.4,0.6,0.8,0.4,1.4C139.1,107.1,138.7,107.4,138.2,107.4z"/>
	<path class="st1" d="M139.3,56.2c0,0.6-0.2,0.9-0.5,1.1c-2.1,2.1-4.2,4.2-6.3,6.3c-0.5,0.5-1.2,0.8-1.8,0.2
		c-0.6-0.6-0.4-1.2,0.2-1.8c2.1-2.1,4.2-4.2,6.3-6.3c0.4-0.4,0.8-0.7,1.4-0.4C139.1,55.5,139.3,55.8,139.3,56.2z"/>
	<path class="st1" d="M143.7,82.4c-1.5,0-3,0-4.4,0c-0.8,0-1.4-0.3-1.4-1.2c0-0.8,0.6-1.1,1.3-1.1c3,0,6,0,9.1,0
		c0.8,0,1.3,0.3,1.3,1.1c0,0.9-0.6,1.2-1.4,1.2C146.8,82.4,145.2,82.4,143.7,82.4C143.7,82.4,143.7,82.4,143.7,82.4z"/>
	<path class="st1" d="M130.2,69.9c0.2-0.4,0.5-0.5,0.9-0.5c0.4,0,0.8-0.1,1-0.5c1.9,2.8,3.1,5.8,3.5,9.2c-0.3,0.3-0.2,0.6-0.2,1
		c0,0.3-0.2,0.6-0.5,0.4c-0.7-0.6-0.7-0.2-0.6,0.4c0.1,0.3,0,0.5,0,0.8c-0.5,0.1-0.4-0.5-0.7-0.5C133.4,76.4,132.2,73,130.2,69.9z
		 M131.1,70.2C131.1,70.3,131.1,70.3,131.1,70.2C131.1,70.3,131.1,70.3,131.1,70.2c-0.1-0.1,0.1-0.3-0.2-0.2
		C131,70.1,131,70.2,131.1,70.2z"/>
	<path class="st1" d="M135.7,79.3c0-0.2,0-0.5,0-0.7C135.8,78.8,135.9,79,135.7,79.3z"/>
	<path class="st1" d="M131.1,70.2c-0.1-0.1-0.1-0.1-0.2-0.2C131.2,70,131,70.2,131.1,70.2L131.1,70.2z"/>
	<path class="st1" d="M131.1,70.2C131.1,70.3,131.1,70.3,131.1,70.2C131.1,70.3,131.1,70.3,131.1,70.2
		C131.1,70.2,131.1,70.2,131.1,70.2z"/>
	<g>
		<path class="st1" d="M27.8,73.1c-0.6-0.4-1-1-1.4-1.6c-2-2.8-2.2-9.2,1.5-12.2c0.5-0.4,0.5-0.7,0.1-1.1c-0.6-0.7-1.1-1.4-1.4-2.3
			c0-0.3,0-0.6-0.4-0.6c-0.1-0.2-0.2-0.4-0.3-0.6c0.4,0,0.6-0.1,0.5-0.6c0-0.2,0.1-0.3,0.3-0.4c0.2,0,0.3,0.2,0.3,0.3
			c0,0.2-0.1,0.4,0.2,0.5c0.2-0.2,0.5-0.4,0.2-0.7c-0.2-0.3,0.1-0.3,0.3-0.4c0.7,1.3,1.4,2.6,2.3,3.8c0.5,0.7,1.4,0.5,1.7-0.2
			c0.6-1.6,1.3-2.1,3-2.1c3,0,6.1,0,9.1,0c0.4,0,0.9,0,1.3-0.3c2.8-1.8,4.7-4.3,5.7-7.5c0.2-0.6,0.1-0.9-0.4-1.2
			c-0.7-0.5-1.5-1.2-2.1-1.8c-2.6-2.4-4.9-5.1-6.6-8.2c-0.4-0.7-0.3-1.3,0.4-1.7c0.6-0.3,1.2-0.1,1.6,0.5c0.2,0.3,0.3,0.5,0.5,0.8
			c2.5,4.2,5.9,7.5,10,10.1c2.1,1.3,4.4,2.2,6.7,3.1c0.4,1.1-0.4,1.4-1.1,1.9c-2.1-0.6-4.1-1.5-6-2.7c-0.6-0.4-0.8-0.3-1,0.4
			c-0.4,1.4-1.1,2.7-2,3.8c-0.6,0.8-1.3,1.6-2.1,2.5c1.3,0,2.5,0,3.7,0c1.6,0,3.1,0.5,4.4,1.6c-0.2,0.7-0.9,0.4-1.1,0.2
			c-0.7-0.6-1.3-0.3-2.1-0.3c1-0.1,0.9,0.6,0.9,1.2c-0.9-0.4-1.9-0.5-2.9-0.5c-5.3,0-10.7,0-16,0c-1.6,0-1.5,0-1.6,1.6
			c-0.1,1,0.2,1.5,1.2,1.8c1.6,0.5,2.3,1.7,2.2,3.6c-0.5,0.6,0,1.3-0.4,2c-0.6-0.5-1-0.5-1.2,0.3c-0.1,0.2-0.4,0.1-0.6,0.2
			c-0.1-0.8-0.1-1.6,0-2.4c0-0.1,0-0.3,0-0.4c-0.2-0.8-0.7-1.2-1.5-1.4c-1.1-0.3-1.8-1-2-2.1c-0.1-0.6-0.3-0.6-0.8-0.4
			c-1.3,0.6-2.4,1.5-3,2.8c-1.5,3.2-0.7,6.8,2,9.1c-1,0.7,0,1.1,0.3,1.7c-0.6-0.1-1.4-0.4-2-0.8C28.1,72.7,28.1,72.7,27.8,73.1z"/>
		<path class="st1" d="M27.8,53.5c-0.2,0.1-0.6,0.1-0.3,0.4c0.3,0.4,0,0.5-0.2,0.7C27,54.6,27,54.3,27,54.1c0-0.2,0-0.4-0.3-0.3
			c-0.2,0-0.3,0.2-0.3,0.4c0.1,0.4-0.1,0.5-0.5,0.6c-1.5-3.1-2.2-6.5-2-10c0.4-5.9,2.6-10.9,7.2-14.8c1.7-1.4,3.5-2.4,5.6-3.1
			c0.6-0.2,1-0.5,1.2-1.1C42.8,14.2,56,8.2,68.4,12c0.1,0,0.1,0.1,0.2,0.1c0,0.1-0.1,0.1-0.1,0.2c-0.5,0.7-0.7,1.8-2,1
			c-0.1-0.1,0,0.3,0,0.5c-2.9-0.6-5.9-0.9-8.8-0.4c-8.5,1.4-14.6,5.9-17.9,14c-0.3,0.8-0.7,1.2-1.5,1.5c-4.8,1.4-8.2,4.5-10.3,9
			C25.6,43,25.6,48.3,27.8,53.5z"/>
		<path class="st1" d="M98,24.6c0.6,0,1.2-0.2,1.8,0c1.1,0.4,1.7,1.7,1.4,3c-0.7,3.1-1.9,6-3.5,8.8c-0.3,0.6-0.4,1-0.1,1.6
			c0.6,1.5,1.1,3.1,1.2,4.8c-0.6,0.1-1,0.3-1.3,0.8c-0.2,0.3-0.4,0.5-0.7,0.4c-0.3-1.5-0.4-3-1.1-4.5c-5.4,6.9-12.2,11.1-20.9,12.6
			c1.6,1.6,3,3.2,5.4,2.9c0.3,0,0.7,0,1,0c0,0.3,0,0.6-0.4,0.8c-0.5,0.3-1,0.7-1.3,1.4c-2.2,0-4.3,0-6.5,0c-1.5,0-3-0.1-4.4,0.4
			c0-0.4,0.3-0.4,0.6-0.5c0.7-0.2,1-0.8,1-1.4c0.1-0.7-0.8-0.2-1-0.6c1.7-0.4,3.4-0.1,5.1-0.2c0,0,0.1-0.1,0.1-0.1
			c0,0-0.1-0.1-0.1-0.1c-0.7-0.5-1.3-1.2-1.8-1.9c0.7,0.1,0.9-0.6,1.6-0.8c-0.6-0.1-1-0.2-1.4-0.3c0.4-1.6,1.5-0.8,2.4-0.7
			c0-0.7-0.9-0.5-0.9-1.1c0.2-0.1,0.3-0.1,0.5-0.2c12-2.4,20-9.5,23.9-21.1c0.7-2.1,0.6-2.1-1.5-1.8c-0.1,0-0.2,0-0.3,0
			C97.5,26.3,97.9,25.5,98,24.6z M74.1,51.4c-0.1-0.1-0.2-0.2-0.2-0.2c-0.1,0-0.2,0-0.2,0.1c0,0.2,0.1,0.2,0.2,0.2
			C74,51.6,74,51.5,74.1,51.4z"/>
		<path class="st1" d="M79.5,57.2c0.2-0.6,0.8-1,1.3-1.4c0.4-0.2,0.4-0.5,0.4-0.8c2.3,0,4.7,0,7,0c1.7,0,2.4,0.5,3,2.1
			c0.3,0.8,1.1,0.9,1.6,0.3c0.7-0.9,1.3-1.8,1.8-2.8c1.7-3.3,2.3-6.8,2-10.5c0.4,0,0.6-0.2,0.7-0.4c0.3-0.5,0.7-0.7,1.3-0.8
			c0.8,5.7-0.4,11-3.9,15.7c-0.3,0.4-0.2,0.6,0.1,0.8c0.4,0.3,0.7,0.6,0.9,1c-0.1,0.2-0.2,0.3-0.4,0.2c-0.7-0.4-0.7,0.4-0.6,0.5
			c0.5,0.6-0.1,0.9-0.1,1.4c-0.8-1-1.7-1.8-2.9-2.3c-0.3-0.1-0.6-0.3-0.6,0.3c-0.2,1.3-1,2-2.3,2.4c-0.9,0.2-1.2,0.8-1.2,1.6
			c0,1.5,0,3,0,4.5c-0.6,0-1.3-0.5-1.6,0.6c-0.1,0.3,0.1,0.6,0.1,0.9c0,0.6,0,1.3-1,1c0.4-2.4,0.2-4.7,0.2-7.1
			c0-1.9,0.8-3.1,2.6-3.6c0.7-0.2,1-0.6,0.9-1.3c0-0.3,0-0.6,0-0.9c0.1-0.9-0.3-1.1-1.1-1.1C85.1,57.2,82.3,57.2,79.5,57.2z"/>
		<path class="st1" d="M135.6,78.1c0,0.2,0,0.3,0,0.5c0,0.2,0,0.5,0,0.7c0.3,1.2,0.2,2.5,0,3.7c-0.1,1.3-0.2,2.6-0.5,3.9
			c-2.7,11.1-13.9,18.6-25,16.8c0-0.2,0.1-0.3,0.1-0.5c0.2-0.5-0.3-1.3,0.5-1.6c7.3,0.6,13.5-1.8,18.2-7.4c3.4-4,4.8-8.8,4.6-14.1
			c0.3,0,0.2,0.6,0.7,0.5c0-0.3,0-0.5,0-0.8c-0.1-0.6-0.2-1,0.6-0.4c0.3,0.3,0.5,0,0.5-0.4C135.4,78.7,135.3,78.4,135.6,78.1z"/>
		<path class="st1" d="M85.3,71.3c1,0.3,1-0.4,1-1c0-0.3-0.2-0.6-0.1-0.9c0.2-1.1,1-0.6,1.6-0.6c0.1,1.2-0.1,2.3-0.5,3.4
			c-0.2,0.5-0.1,0.7,0.5,0.7c0.7,0,1.4,0,2.2,0c2.6-0.1,4.9-1.8,5.5-4.4c0.5-2.1,0.5-4.3-0.7-6.3c0.1-0.4,0.6-0.8,0.1-1.4
			c-0.1-0.1-0.1-0.9,0.6-0.5c0.2,0.1,0.3,0,0.4-0.2c0.9,0.8,1.4,2,1.7,3.1c1.1,4.5,0.1,9.8-5.7,11.6c-1.6,0.5-3.2,0.3-4.8,0.3
			c-0.8,0-1,0.2-1,1c0,1-0.1,2-0.1,3c-0.7-0.2-0.8,0.4-0.9,0.8c-0.1,0.6,0.3,0.6,0.7,0.6c0,0.2,0,0.4-0.1,0.6
			c-0.8,0.4-1.2,0.1-1.2-0.8c-0.4,0.2-0.6,0.4-0.9,0.4c0.1-1.3,0.4-2.6,0.2-4.1c-2.4,1.6-5,1.5-7.6,1.5c0-0.4,0.3-0.5,0.6-0.5
			c0.7,0,1.6,0.3,1.6-1c0-0.1,0.3-0.1,0.3-0.3c-0.6-0.4-1.4,0.2-1.9-0.3c0.5,0,1-0.1,1.4-0.1C81.7,76,84.1,74.4,85.3,71.3z"/>
		<path class="st1" d="M83.7,80.8c0.3,0.1,0.6-0.2,0.9-0.4c0,0.8,0.4,1.1,1.2,0.8c-0.9,4.8-2.9,9.1-6.3,12.7c-1.9,2-4,3.6-6.5,4.9
			c-0.5,0.3-0.7,0.6-0.7,1.2c0.1,1.4,0.1,2.8,0.2,4.2c-0.3,0.1-0.5-0.7-0.8-0.2c-0.3,0.6-0.9,0.5-1.4,0.6c-0.1-1.2-0.2-2.5-0.3-3.7
			c0-0.6-0.1-0.7-0.8-0.5c-2.3,0.8-4.7,1.2-7.1,1.2c-0.1-0.1-0.1-0.1-0.2,0c-0.3,0-0.6,0-0.8,0c0-0.4,0-1,0.4-0.9
			c0.9,0.5,1.1-1.1,2-0.5c-0.3-0.4-1-0.2-1-0.9c6.8-0.5,12.3-3.3,16.6-8.6C81.6,87.9,82.9,84.4,83.7,80.8z"/>
		<path class="st1" d="M56.2,124c0.8,1.3,1.6,2.6,2.3,4c2.4,4.8-0.9,10.5-6.3,11.1c-0.1-0.1-0.1-0.1-0.2,0c-6.3,0-12.7,0-19,0
			c-0.1-0.4,0.2-0.6,0.5-0.7c0.7-0.2,1-0.7,0.9-1.4c5.6,0,11.1,0,16.7,0c4.7,0,7.3-4.5,4.9-8.6c-0.6-1-1.1-2-1.7-3
			c0.6,0.2,1,0.2,1.1-0.6C55.6,124.4,55.8,124,56.2,124z M56.2,125.1C56.1,125,56,125,56,125c-0.1,0-0.1,0.1-0.1,0.2
			c0,0.1,0.1,0.3,0.2,0.2C56.1,125.3,56.1,125.2,56.2,125.1z"/>
		<path class="st1" d="M62.6,99.4c0,0.6,0.6,0.5,1,0.9c-0.9-0.7-1.1,0.9-2,0.5c-0.4-0.2-0.4,0.5-0.4,0.9c-2.4,0.1-4.7-0.4-6.9-1
			c-1.3-0.4-1.3-0.4-1.4,1c0,0.8,0,1.6-0.1,2.4c-0.3,2.9-1.9,4.8-4.7,5.9c1,1.7,1.9,3.4,2.8,5.1c-0.6,0-1.4-0.2-1.6,0.7
			c0,0.1-0.3,0.1-0.5,0.1c-2-3.4-3.9-6.7-5.9-10.1c0.7-0.4,1.2-0.9,1.7-1.5c0.6,1,1.2,1.9,1.7,2.9c0.3,0.7,0.7,0.7,1.3,0.4
			c1.8-0.8,2.6-2.1,2.8-4c0.1-1,0-2.1,0.2-3.1c1,0.2,0.9-0.8,1.3-1.2c0.4,0,0.8,0.1,1.2-0.2c-0.2-0.4-1-0.7-0.3-1.3
			c0.2,0,0.3,0,0.4,0.2c0,0.6,0.3,0.4,0.6,0.2C56.7,99,59.6,99.5,62.6,99.4z"/>
		<path class="st1" d="M2.5,136.6c-2.4-2.5-2.9-6.1-1.1-9.2c2.1-3.7,4.3-7.5,6.4-11.2c1.7-3,3.5-6,5.3-9c0.6,0.1,0.3,0.6,0.5,1.2
			c0.4-1.2,1-2,2.2-1.6c-0.8,1.4-1.6,2.8-2.4,4.2c-3.3,5.8-6.7,11.5-10,17.3c-1.2,2-1.1,4,0.1,6c0.2,0.3,0.3,0.5,0.4,0.8
			c-0.1,0-0.3,0.1-0.4,0.1c-0.3,0-0.5-0.6-0.9,0c-0.2,0.4-0.1,0.7,0.2,1C3.2,136.4,3.1,136.5,2.5,136.6z"/>
		<path class="st1" d="M15.8,106.9c-1.2-0.3-1.8,0.4-2.2,1.6c-0.2-0.6,0.1-1.1-0.5-1.2c0.1-0.2,0.2-0.4,0.3-0.6
			c0.5-0.1,0.5-0.4,0.5-0.8c2.1-3.7,4.2-7.4,6.3-11c1-1.7,1.9-3.4,3-5.1c2.3-3.8,7.9-4.9,11.2-2.1c-0.6,0.6-1.5,0.2-2,0.7
			c0.3,0.4,1-0.1,1.3,0.4c-0.3,0.1-0.5,0.2-0.7,0.5c-4.1-1.8-6.3-1.1-8.6,2.8c-2.5,4.2-4.9,8.5-7.4,12.7c-0.3,0.1-0.5-0.1-0.7-0.2
			c0,0.4-0.2,0.8,0.4,0.9c-0.1,0.3-0.2,0.5-0.4,0.7c-0.1-0.7-0.6-0.4-1.2-0.4c0.5,0.4,0.7,0.6,1,0.8C16,106.6,15.9,106.7,15.8,106.9
			z"/>
		<path class="st1" d="M27.8,73.1c0.2-0.4,0.2-0.4,0.4-0.2c0.6,0.4,1.4,0.7,2,0.8C30,73.1,29,72.7,30,72c0,0,0,0,0,0
			c0,0.3,0.2,0.3,0.4,0.3c1.8,0.8,3.7,0.7,5.7,0.6c-1.1-2-1-4.1-0.9-6.2c0.2,0,0.5,0,0.6-0.2c0.2-0.8,0.6-0.8,1.2-0.3
			c0.4-0.7-0.1-1.4,0.4-2c0,1.5,0.1,3.1,0.1,4.6c0,0.4-0.1,0.9,0,1.3c0.9,2.8,2.7,4.7,5.7,5.3c0,0.6,0.3,1.2-0.3,1.7
			c0,0,0.1,0.3,0.1,0.4c-1.4,0-2.6-0.7-3.9-1.3c-0.1,1.6,0.2,3,0.3,4.5c-1.1,0.5-1.1,0.5-0.2,1.8c-0.8-0.6-1,0.2-1.6,0.1
			c-0.7-2.1-0.8-4.2-0.7-6.4c0-0.9-0.2-1.1-1.1-1.1c-2.1,0.1-4.1,0.2-6.1-0.8c-0.2-0.1-0.4-0.2-0.6-0.4c0-0.6-0.4-0.6-0.9-0.6
			C28.1,73.3,28,73.2,27.8,73.1z"/>
		<path class="st1" d="M103.4,114.4c4.2,2.2,7.1,5.6,8.8,10c1.2,3.1,1.3,6.4,1.7,9.6c0.2,1.2,0.3,2.4,0.4,3.6c0.1,0.8-0.1,1.4-1,1.5
			c-0.9,0.1-1.2-0.5-1.3-1.3c-0.3-2.8-0.7-5.6-1-8.4c-0.7-5.9-3.6-10.3-8.9-13.1c-0.1,0-0.2-0.1-0.3-0.2c0.2-0.2,0.4-0.2,0.7-0.2
			C103.4,115.7,103.8,115.3,103.4,114.4z M103.4,116.1c-0.1,0-0.1-0.1-0.2-0.1c0,0-0.1,0.1-0.1,0.1c0,0,0.1,0.1,0.1,0.1
			C103.3,116.2,103.4,116.2,103.4,116.1z"/>
		<path class="st1" d="M70.4,104.6c0.5-0.1,1,0.1,1.4-0.6c0.3-0.5,0.5,0.3,0.8,0.2c0.4,1.8,1.5,3,3.3,3.5c2.2,0.5,4.4,1,6.5,1.4
			c3.2,0.7,6.4,1.4,9.6,2.1c0,0.4-0.3,0.9,0.1,1.5c-0.7-0.4-1.5-0.3-1.8-1.2c-0.3,0.6-0.9,0.8-1.3,1.2c-3.7-0.8-7.4-1.6-11.2-2.4
			c-0.8-0.2-1.6-0.4-2.4-0.5C72.7,109.4,70.8,107.4,70.4,104.6z M91.4,111.5c0-0.1,0-0.1-0.1,0C91.3,111.5,91.3,111.5,91.4,111.5
			C91.3,111.6,91.4,111.5,91.4,111.5z M71.6,104.9C71.6,105,71.5,105,71.6,104.9c0,0.1,0,0.1,0,0.1C71.6,105,71.6,105,71.6,104.9
			C71.6,105,71.6,105,71.6,104.9z"/>
		<path class="st1" d="M119.3,61.8c-4-1.1-8-1.2-12,0c-1.7,0.5-3.2,1.2-4.7,2.1c-0.7,0.4-1.3,0.5-1.8-0.3c-0.4-0.7-0.1-1.3,0.6-1.6
			c6-3.5,12.3-4.3,18.9-2.1c0,1.4-1.2,0.1-1.6,0.7C118.8,61,119.7,61.1,119.3,61.8z"/>
		<path class="st1" d="M98,24.6c0,1-0.5,1.8-1.2,2.4c-5.5,0.5-10.5-0.8-15.1-3.8c0.2-0.7,0-1.6,0.6-2.1c2.7,1.6,5.5,2.9,8.6,3.4
			C93.3,24.8,95.6,24.8,98,24.6z"/>
		<path class="st1" d="M82.3,21c-0.6,0.6-0.4,1.4-0.6,2.1c-0.1-0.1-0.3-0.2-0.4-0.3c0.2-0.1,0.2-0.3,0-0.4c-0.2-0.1-0.4-0.4-0.7,0
			c-1-0.6-1.9-1.2-2.7-2c-1.1-0.9-2.1-1.9-3.2-2.8c-2-1.6-4.3-2.6-6.7-3.5C67.9,14,67.7,14,67.5,14c0,0-0.1,0-0.1,0
			c-0.2-0.2-0.4-0.2-0.7-0.2c-0.1,0-0.1,0-0.2,0c0-0.2-0.2-0.6,0-0.5c1.3,0.8,1.5-0.3,2-1c0-0.1,0.1-0.1,0.1-0.2
			c2.9,1,5.7,2.2,8,4.2C78.5,17.9,80.3,19.6,82.3,21z M69.6,13.4c-0.1-0.1-0.2-0.2-0.2-0.2c-0.1,0-0.2,0.1-0.2,0.1
			c0,0.2,0.1,0.2,0.2,0.2C69.4,13.5,69.5,13.4,69.6,13.4z"/>
		<path class="st1" d="M2.5,136.6c0.6-0.1,0.7-0.2,0.5-0.4c-0.3-0.3-0.5-0.6-0.2-1c0.3-0.5,0.6,0.1,0.9,0c0.1,0,0.3-0.1,0.4-0.1
			c0,0,0,0.1,0,0.1c-0.1,0.1-0.2,0.3,0,0.4c0.1,0.1,0.2-0.1,0.3-0.2c1.8,1.2,3.8,1.4,5.9,1.4c3.2-0.1,6.4,0,9.6,0
			c0.1,0.7-0.2,1-0.9,1.2c-0.5,0.1-1.3,0-1.3,1c-3.3,0-6.7,0.1-10,0C5.5,139,3.8,138.2,2.5,136.6z"/>
		<path class="st1" d="M119.3,61.8c0.4-0.7-0.5-0.8-0.5-1.3c0.4-0.6,1.6,0.8,1.6-0.7c5,1.6,9,4.6,11.8,9.1c-0.2,0.4-0.6,0.5-1,0.5
			c-0.4,0-0.7,0.1-0.9,0.5C127.4,66,123.8,63.3,119.3,61.8z"/>
		<path class="st1" d="M17.5,139.1c0-0.9,0.8-0.8,1.3-1c0.7-0.2,1-0.5,0.9-1.2c4.9,0,9.8,0,14.7,0c0.1,0.7-0.2,1.2-0.9,1.4
			c-0.3,0.1-0.6,0.3-0.5,0.7C27.8,139.1,22.7,139.1,17.5,139.1z"/>
		<path class="st1" d="M89.1,112.9c0.3-0.5,0.9-0.6,1.3-1.2c0.2,0.9,1,0.7,1.8,1.2c-0.4-0.6-0.1-1.1-0.1-1.5
			c3.1,0.7,6.2,1.1,9.2,2.2c0.7,0.3,1.5,0.5,2.1,1c0.4,0.8,0,1.3-0.8,1.5c-0.2,0.1-0.5,0-0.7,0.2c-3.8-1.6-8-2-12-3
			C89.7,113,89.4,112.9,89.1,112.9z"/>
		<path class="st1" d="M110.8,101.6c-0.8,0.4-0.2,1.1-0.5,1.6c-0.1,0.1-0.1,0.3-0.1,0.5c-0.1,0-0.1,0-0.2,0c-0.2-0.4-0.4-1-0.8-0.2
			c-4.2-0.7-7.8-2.5-10.9-5.3c0.4-0.6,0.8-1.2,1.2-1.8c2.8,2.4,5.9,4.1,9.5,4.9C109.6,101.4,110.2,101.5,110.8,101.6z M99.6,98.4
			c0,0.1,0.1,0.2,0.1,0.3c0,0,0.1-0.1,0.1-0.1C99.8,98.5,99.7,98.5,99.6,98.4c-0.1-0.2-0.2-0.4-0.4-0.3c0,0-0.1,0.1-0.1,0.1
			C99.2,98.5,99.4,98.3,99.6,98.4z M108.4,103c0.1,0,0.1,0.1,0.2,0.1c0,0,0.1-0.1,0.1-0.2c0,0-0.1-0.1-0.2-0.1
			C108.4,102.8,108.4,102.9,108.4,103z"/>
		<path class="st1" d="M51.9,99.1c-0.2,0.5-0.1,1.5-1.1,1.3c-0.2-0.5,0.3-1.1-0.4-1.5c0-0.2-0.1-0.5-0.4-0.2
			c-3.1-1.6-5.7-3.8-7.8-6.5c0.8,0,1-1.2,1.9-0.9c0.2,0.1,0.4,0.3,0.6,0.4c2.3,2.6,5.1,4.5,8.3,6c-0.7,0.6,0.1,0.9,0.3,1.3
			C52.8,99.3,52.4,99.2,51.9,99.1C51.8,99.1,51.9,99.2,51.9,99.1c0.3,0.1,0.1-0.1,0.1-0.1c-0.1,0-0.1-0.1-0.2-0.1
			C51.8,98.9,51.8,99,51.9,99.1z"/>
		<path class="st1" d="M99.5,96.4c-0.4,0.6-0.8,1.2-1.2,1.8c-3.5-3-5.8-6.7-6.9-11.2c1-0.1,0.7,1,1.2,1.4c0.5-0.3-0.3-0.8,0.3-1.1
			c0.3,0.2,0.1,0.8,0.5,0.9c0.3,0,0.2-0.4,0.4-0.5C95,91,96.9,93.9,99.5,96.4z"/>
		<path class="st1" d="M88.3,107.4c-0.5,0-0.9-0.2-1-0.6c-0.2-0.5-0.1-1,0.3-1.4c1.2-1.2,2.4-2.4,3.6-3.6c0.9-0.9,1.9-1.9,2.8-2.9
			c0.6-0.6,1.2-0.8,1.8-0.1c0.6,0.6,0.4,1.2-0.2,1.7c-2.1,2.1-4.3,4.3-6.4,6.4C88.9,107.2,88.6,107.4,88.3,107.4z"/>
		<path class="st1" d="M114.4,111.9c0,1.5,0,3,0,4.4c0,0.8-0.3,1.4-1.2,1.4c-0.8,0-1.1-0.6-1.1-1.3c0-3,0-6,0-9.1
			c0-0.8,0.3-1.3,1.1-1.3c0.9,0,1.1,0.6,1.1,1.4C114.3,108.9,114.3,110.4,114.4,111.9C114.3,111.9,114.4,111.9,114.4,111.9z"/>
		<path class="st1" d="M114.3,50.8c0,1.4,0,2.9,0,4.3c0,0.8-0.2,1.4-1.1,1.4c-0.9,0-1.2-0.6-1.2-1.4c0-3,0-6,0-9
			c0-0.8,0.3-1.4,1.2-1.4c0.8,0,1.1,0.6,1.1,1.4C114.3,47.8,114.3,49.3,114.3,50.8z"/>
		<path class="st1" d="M44.1,91.3c-0.9-0.3-1.1,0.9-1.9,0.9c-2.3-2.8-3.9-6-4.6-9.6c0.5,0.1,0.8-0.7,1.6-0.1
			c-0.8-1.3-0.8-1.3,0.2-1.8c0.7,3.7,2.2,7,4.5,10C43.9,90.9,44,91.1,44.1,91.3z"/>
		<path class="st1" d="M48.9,115.8c0.2,0,0.4,0,0.5-0.1c0.2-1,0.9-0.7,1.6-0.7c1.7,3,3.6,6,5.2,9.1c-0.4,0-0.6,0.4-0.6,0.7
			c-0.1,0.8-0.5,0.8-1.1,0.6C52.5,122.2,50.7,119,48.9,115.8z"/>
		<path class="st1" d="M44.8,104.2c-0.5,0.5-1,1.1-1.7,1.5c-1.8-3-3.5-6.1-5.3-9.1c0.6-0.3,1.9,0.1,1.6-1.3c0.2,0.1,0.3,0.2,0.4,0.4
			C41.5,98.5,43.1,101.3,44.8,104.2z"/>
		<path class="st1" d="M39.5,95.2c0.2,1.4-1,1-1.6,1.3c-0.6-1-1.2-2-1.7-2.9c-0.9-1.5-1.6-3.2-3.1-4.3c0.1-0.3,0.4-0.3,0.7-0.5
			c-0.3-0.5-0.9,0-1.3-0.4c0.6-0.5,1.5-0.2,2-0.7c1,0.6,1.6,1.4,2.2,2.4C37.6,91.8,38.8,93.4,39.5,95.2z"/>
		<path class="st1" d="M93.8,87.6c-0.2,0.1-0.1,0.5-0.4,0.5c-0.5,0-0.3-0.6-0.5-0.9c-0.5,0.3,0.2,0.8-0.3,1.1
			c-0.5-0.4-0.3-1.4-1.2-1.4c-0.8-2.5-0.9-5-0.7-7.5c0.1-0.7,0.5-1.2,1.2-1.1c0.7,0.1,1.1,0.6,1,1.3C92.6,82.4,93.1,85,93.8,87.6z"
			/>
		<path class="st1" d="M85.9,80.6c-0.4,0-0.8,0-0.7-0.6c0.1-0.5,0.2-1,0.9-0.8C86,79.6,86,80.1,85.9,80.6z"/>
		<path class="st1" d="M109.1,103.5c0.4-0.8,0.6-0.3,0.8,0.2C109.7,103.6,109.4,103.6,109.1,103.5z"/>
		<path class="st1" d="M28.2,73.4c0.4,0,0.8,0.1,0.9,0.6C28.7,73.9,28.4,73.7,28.2,73.4z"/>
		<path class="st1" d="M14,105.8c0,0.4,0,0.8-0.5,0.8C13.6,106.4,13.8,106.1,14,105.8z"/>
		<path class="st1" d="M26.2,55.4c0.4,0,0.4,0.3,0.4,0.6C26.5,55.8,26.4,55.6,26.2,55.4z"/>
		<path class="st1" d="M50,98.8c0.3-0.3,0.4,0,0.4,0.2C50.3,98.9,50.1,98.8,50,98.8z"/>
		<path class="st1" d="M62,101.6c0.1-0.1,0.1-0.1,0.2,0C62.2,101.6,62.1,101.7,62,101.6L62,101.6z"/>
		<path class="st1" d="M52.1,139.1c0.1-0.1,0.1-0.1,0.2,0C52.2,139.1,52.2,139.1,52.1,139.1L52.1,139.1z"/>
		<path class="st1" d="M56.8,56.5c0.9,0.8,1.6,1.7,2.9,2c2.1,0.6,3.9,0.3,5.4-1.2c1.2-1.1,2.4-2.1,4.1-2.2c0.2,0.4,1.1-0.1,1,0.6
			c-0.1,0.6-0.3,1.2-1,1.4c-0.2,0.1-0.6,0.1-0.6,0.5c-0.6,0.4-1.2,0.8-1.7,1.3c-3.4,3-7.4,3-10.7,0c-0.5-0.5-1-0.9-1.6-1.2
			c0-0.6,0.2-1.3-0.9-1.2c0.8-0.1,1.4-0.3,2.1,0.3C56,57,56.6,57.2,56.8,56.5z M55.2,57.4c0.1-0.1,0.2-0.1,0.3-0.1
			c0-0.2-0.1-0.2-0.2-0.2c-0.1,0-0.2,0.1-0.2,0.2C55,57.3,55.1,57.3,55.2,57.4z"/>
		<path class="st1" d="M71.9,52.4c-4.1,0.3-8.1-0.2-12-1.5c0.6-0.5,1.4-0.9,1.1-1.9c0.1,0,0.1,0,0.2,0c0.1,0.3,0.1,0.5,0.4,0.1
			c0.1,0,0.3,0.1,0.4,0.1c0.1,0.3,0.2,0.4,0.4,0.1c3.4,0.8,6.9,1.1,10.3,0.8c0.5,0,1-0.1,1.4-0.1c0,0.6,1,0.4,0.9,1.1
			c-0.9,0-2-0.8-2.4,0.7v0C72.3,51.8,72,51.9,71.9,52.4z"/>
		<path class="st1" d="M35.3,64.4c-0.2-0.1-0.2-0.3,0-0.4C35.3,64.1,35.3,64.2,35.3,64.4z"/>
		<path class="st1" d="M72.5,52.9c0,0-0.1-0.1,0-0.1c0.1-0.3,0.2-0.6,0.2-0.9v0c0.4,0.1,0.8,0.2,1.4,0.3
			C73.5,52.3,73.2,53,72.5,52.9z"/>
		<path class="st1" d="M74.1,51.4c-0.1,0.1-0.2,0.1-0.3,0.2c-0.1,0-0.3-0.1-0.2-0.2c0-0.1,0.2-0.1,0.2-0.1
			C74,51.3,74,51.4,74.1,51.4z"/>
		<path class="st1" d="M74.3,54.9c0-0.1,0-0.1,0-0.2c0,0,0.1,0.1,0.1,0.1C74.4,54.9,74.4,54.9,74.3,54.9z"/>
		<path class="st1" d="M74.8,78.2c-2.4,0.3-4.6-0.2-6.6-1.5c0-0.8-0.2-1.8,1.1-1.9c0.2,0.1,0.4,0.1,0.4,0.4c-0.1,0.1-0.3,0-0.4,0.3
			c0,0,0.1,0.1,0.1,0.1c0.2,0,0.2-0.2,0.3-0.3c2.3,1.1,4.7,0.9,7.2,0.9c0.6,0.5,1.3,0,1.9,0.3c0,0.3-0.3,0.3-0.3,0.3
			c0,1.3-0.9,1-1.6,1c-0.4,0-0.6,0.1-0.6,0.5c-0.3,0-0.5,0-0.8,0C75.2,77.8,75,77.8,74.8,78.2z"/>
		<path class="st1" d="M56.2,125.1c-0.1,0.1-0.1,0.2-0.1,0.3c-0.2,0.1-0.2-0.1-0.2-0.2c0-0.1,0.1-0.2,0.1-0.2
			C56,125,56.1,125,56.2,125.1z"/>
		<path class="st1" d="M53.3,97.9c0.2,0.1,0.4,0.2,0.6,0.2C53.6,98.3,53.3,98.5,53.3,97.9z"/>
		<path class="st1" d="M16.3,106.1c-0.1,0.1-0.1,0.2-0.2,0.4c-0.3-0.2-0.5-0.4-1-0.8C15.7,105.7,16.1,105.4,16.3,106.1z"/>
		<path class="st1" d="M17,104.8c-0.1,0.2-0.3,0.4-0.4,0.6c-0.6-0.1-0.4-0.5-0.4-0.9C16.6,104.7,16.8,104.9,17,104.8z"/>
		<path class="st1" d="M69.2,74.8c-1.3,0.1-1.1,1.1-1.1,1.9c-0.1-0.1-0.1-0.1-0.2-0.2c0-0.1,0-0.2-0.2-0.1c-2.1-1.3-3.3-3.2-4.1-5.5
			c-0.3-0.7-0.5-1.5-0.7-2.3c-0.2-0.7-0.6-1.2-1.4-1.1c-0.8,0-1.2,0.4-1.4,1.1c-0.5,1.3-0.8,2.6-1.4,3.9c-2,3.5-5,5.5-9,5.6
			c-2.2,0.1-4.5-0.2-6.7-0.4c0-0.2-0.2-0.4-0.1-0.4c0.6-0.5,0.4-1.1,0.3-1.7c1.9,0.1,3.8,0.3,5.7,0.3c4,0.2,7.1-2,8.4-5.8
			c0.3-0.8,0.5-1.6,0.8-2.3c0.5-1.5,1.8-2.4,3.4-2.4c1.6,0,2.9,0.8,3.5,2.4c0.2,0.6,0.5,1.2,0.6,1.9C66.2,71.7,67.4,73.5,69.2,74.8z
			"/>
		<path class="st1" d="M30,72c0.1,0.1,0.3,0.2,0.4,0.3C30.2,72.3,30,72.3,30,72z"/>
		<path class="st1" d="M103.4,116.1c-0.1,0-0.1,0.1-0.1,0.1c0,0-0.1-0.1-0.1-0.1c0,0,0-0.1,0.1-0.1
			C103.3,116,103.4,116.1,103.4,116.1z"/>
		<path class="st1" d="M91.4,111.5C91.4,111.5,91.3,111.6,91.4,111.5c-0.1,0-0.1,0-0.1,0C91.4,111.4,91.4,111.5,91.4,111.5z"/>
		<path class="st1" d="M71.6,104.9C71.6,105,71.6,105,71.6,104.9c0.1,0.1,0.1,0.1,0,0.1C71.6,105,71.5,105,71.6,104.9
			C71.5,105,71.6,105,71.6,104.9z"/>
		<path class="st1" d="M81.2,22.9c-0.3-0.1-0.5-0.2-0.6-0.4c0.2-0.3,0.5-0.1,0.7,0C81.4,22.6,81.4,22.8,81.2,22.9z"/>
		<path class="st1" d="M69.6,13.4c-0.1,0.1-0.2,0.2-0.3,0.2c-0.1,0-0.3-0.1-0.2-0.2c0-0.1,0.2-0.1,0.2-0.1
			C69.4,13.2,69.5,13.3,69.6,13.4z"/>
		<path class="st1" d="M67.4,14c-0.2,0-0.5,0-0.7-0.2C66.9,13.8,67.2,13.7,67.4,14z"/>
		<path class="st1" d="M68,14.2c-0.2,0-0.4,0-0.5-0.2C67.7,14,67.9,14,68,14.2z"/>
		<path class="st1" d="M4,135.3c0.1,0.1,0.2,0.2,0.2,0.2c-0.1,0.1-0.1,0.3-0.3,0.2C3.8,135.6,3.9,135.4,4,135.3z"/>
		<path class="st1" d="M99.6,98.4c-0.2,0-0.4,0.1-0.5-0.2c0,0,0-0.1,0.1-0.1C99.4,98,99.5,98.2,99.6,98.4L99.6,98.4z"/>
		<path class="st1" d="M108.4,103c0-0.1,0-0.1,0.1-0.2c0,0,0.1,0,0.2,0.1c0,0,0,0.1-0.1,0.2C108.5,103.1,108.5,103,108.4,103z"/>
		<path class="st1" d="M99.6,98.4c0.1,0.1,0.2,0.2,0.3,0.3c0,0-0.1,0.1-0.1,0.1C99.7,98.6,99.7,98.5,99.6,98.4
			C99.6,98.4,99.6,98.4,99.6,98.4z"/>
		<path class="st1" d="M51.7,99.1c0-0.1,0.1-0.1,0.1-0.2c0.1,0,0.1,0.1,0.2,0.1c0,0.1,0.2,0.2-0.1,0.2
			C51.9,99.2,51.8,99.1,51.7,99.1z"/>
		<path class="st1" d="M62.4,49.3c-0.3,0.3-0.4,0.1-0.4-0.1C62.1,49.2,62.3,49.3,62.4,49.3z"/>
		<path class="st1" d="M61.6,49.1c-0.3,0.3-0.4,0.1-0.4-0.1C61.3,49,61.4,49.1,61.6,49.1z"/>
		<path class="st1" d="M72.7,51.8c-0.1,0.3-0.2,0.6-0.2,0.9c-0.2-0.1-0.4-0.3-0.6-0.4C72,51.9,72.3,51.8,72.7,51.8z"/>
		<path class="st1" d="M55.2,57.4c-0.1-0.1-0.2-0.2-0.1-0.2c0-0.1,0.1-0.1,0.2-0.2c0.1,0,0.3,0.1,0.2,0.2
			C55.4,57.3,55.3,57.4,55.2,57.4z"/>
		<path class="st1" d="M74.8,78.2c0.2-0.4,0.4-0.4,0.7,0C75.2,78.2,75,78.2,74.8,78.2z"/>
		<path class="st1" d="M67.8,76.4c0.2-0.1,0.2,0,0.2,0.1C67.9,76.5,67.8,76.5,67.8,76.4z"/>
		<path class="st1" d="M69.7,75.2c-0.1,0.1-0.1,0.3-0.3,0.3c0,0-0.1-0.1-0.1-0.1C69.3,75.2,69.5,75.2,69.7,75.2
			C69.7,75.2,69.7,75.2,69.7,75.2z"/>
		<path class="st1" d="M34.7,105c0,4.7,0.1,9.5,0,14.2c0,2-1.5,3.4-3.5,3.4c-0.8,0-1.7,0-2.5,0c-2.1,0-3.6-1.4-3.7-3.5
			c-0.1-2,0-4.1,0-6.1c0.7,0,1.4-0.3,2.1-0.2c0,1.5,0,3,0,4.5c0,3,0,3,3,3c1.9,0,2.2-0.3,2.2-2.2c0-3.9,0-7.7,0.1-11.6
			c0.4,0.1,0.6-0.1,0.8-0.5C33.7,105.6,34.2,105.3,34.7,105z"/>
		<path class="st1" d="M34.7,105c-0.5,0.3-1,0.6-1.3,1.2c-0.2,0.3-0.4,0.5-0.8,0.5c0-1.4-0.1-2.8-0.1-4.2c0-3.2,0-3.2-3.1-3.2
			c-1.8,0-2.1,0.4-2.1,2.1c0,3.8,0,7.7,0,11.5c-0.7-0.1-1.4,0.2-2.1,0.2c0-4.2-0.1-8.4,0-12.6c0-2.1,1.6-3.4,3.6-3.5
			c0.9,0,1.8,0,2.7,0c2,0.1,3.3,1.6,3.4,3.7c-0.2,0.1-0.2,0.1,0,0.2C34.7,102.2,34.7,103.6,34.7,105z"/>
		<path class="st1" d="M34.7,129.3c0,2.7-2.2,4.8-4.9,4.8c-2.7,0-4.8-2.2-4.8-4.9c0-2.7,2.3-4.9,5-4.8
			C32.7,124.5,34.8,126.7,34.7,129.3z M32.5,129.3c0-1.4-1.1-2.6-2.5-2.6c-1.4,0-2.6,1.1-2.7,2.5c0,1.4,1.2,2.6,2.6,2.7
			C31.3,131.9,32.5,130.7,32.5,129.3z"/>
		<path class="st1" d="M34.7,100.9c-0.2-0.1-0.2-0.1,0-0.2C34.7,100.7,34.7,100.8,34.7,100.9z"/>
	</g>
</g>
</svg>
