<?xml version="1.0" encoding="utf-8"?>
<!-- Generator: Adobe Illustrator 24.3.0, SVG Export Plug-In . SVG Version: 6.00 Build 0)  -->
<svg version="1.1" id="Layer_1" xmlns="http://www.w3.org/2000/svg" xmlns:xlink="http://www.w3.org/1999/xlink" x="0px" y="0px"
	 viewBox="0 0 150 150" style="enable-background:new 0 0 150 150;" xml:space="preserve">
<style type="text/css">
	.st0{fill:#5F6368;}
	.st1{fill:#005BAB;}
</style>
<path class="st0" d="M2053.7-657.2c-2.1,0-3.6,0-5.1,0C2049.8-661.3,2051.5-660.2,2053.7-657.2z"/>
<g>
	<path class="st1" d="M-37.7-104.7c-0.7-0.2-1.2-0.3-1.8-0.5c-1.2-0.5-1.9-1.6-1.7-2.9c0.9-7.9,2.6-15.6,5.8-22.8
		c4.3-9.6,10.8-17.3,20.2-22.1c5.5-2.8,11.4-4.4,17.6-5c5.5-0.5,11-0.6,16.3,0.8c14.8,3.8,25.7,12.6,32.4,26.4
		c3.1,6.5,4.8,13.4,5.3,20.6c0.1,1.1,0.1,2.2,0.2,3.4c-0.9,0-1.8,0-2.7,0c0.2,0.6,0.3,1.1,0.4,1.7c0.9,3.6,1.7,7.2,2.6,10.7
		c0.4,1.6,1.2,3.1,1.3,4.7c0.7,7.3,1.9,14.6,1.1,21.9c-0.6,5.6-2,10.9-5.4,15.5c-3.7,5.1-8.9,8-14.8,9.6c-4.8,1.3-9.7,1.8-14.7,2
		c-0.5,0-1,0.1-1.4,0.4c-9.9,4.9-19.7,4.9-29.6,0c-0.5-0.2-1-0.4-1.5-0.4c-5.5-0.3-11-0.8-16.3-2.5c-10.3-3.3-16.1-10.5-18.1-21
		c-1.1-6.1-0.8-12.3-0.1-18.4c0.2-2.1,0.4-4.2,0.6-6.3c0.1-1.1,0.2-2.2,0.6-3.1c1.4-3.4,1.9-7,2.9-10.5
		C-38-103.2-37.9-103.9-37.7-104.7z M39-81c0.4-1.2,0.8-2.3,1.2-3.6c1.6,0.6,3.1,1.1,4.6,1.7c0.1-0.7,0.1-1.3,0.2-2
		c0.1-0.6,0.1-1.3,0.1-1.9c0.3-6.8-0.3-13.5-2.2-20.1c-0.1-0.5-0.3-0.7-0.8-0.7c-4.2-0.5-8.4-1-12.5-1.7c-7.6-1.2-15-2.9-22.3-5.5
		c-6.1-2.2-11.8-5-16.6-9.5c0,0-0.1,0-0.2,0c0,0-0.1,0.1-0.1,0.1c-3.6,6.8-9,11.7-15.5,15.5c-0.3,0.2-0.6,0.6-0.7,1
		c-2.1,6.7-2.7,13.6-2.5,20.6c0,1.4,0.2,2.8,0.3,4.2c1.5-0.6,3-1.1,4.5-1.6c0.4,1.3,0.8,2.4,1.2,3.7c-0.4,0.1-0.8,0.2-1.1,0.4
		c-1.1,0.5-2.3,1-3.4,1.5c-0.5,0.2-0.6,0.5-0.5,1c0.9,4.7,2.2,9.3,4.2,13.6c3.3,7.2,7.8,13.6,14.3,18.2c7.3,5.2,15.3,7.1,24.1,4.9
		c6.2-1.5,11.3-5,15.6-9.7c7-7.5,10.9-16.4,12.9-26.3c0.3-1.6,0.3-1.6-1.2-2.3C41.4-80.1,40.2-80.5,39-81z M52.5-110.6
		c0-0.4,0-0.6,0-0.8c-0.7-3.5-1.1-7.1-2-10.5c-3.3-11.7-10-20.9-20.7-26.9c-9-5.1-18.7-6.6-28.9-5.2c-13.8,1.9-24.1,8.9-30.8,21.1
		c-3.4,6.1-5.4,12.6-6.6,19.5c-0.3,1.6-0.5,3.2-0.8,5c6.5-0.9,11.8-4,16.6-8c4.9-4.1,8.1-9.2,10-15.3c0.2,0.1,0.2,0.1,0.3,0.2
		c0.2,0.3,0.5,0.6,0.7,0.9c2.7,3.8,6.2,6.6,10.3,8.8c6,3.2,12.4,5.1,18.9,6.7c7.4,1.8,14.9,2.9,22.5,3.7
		C45.5-111.2,48.9-110.9,52.5-110.6z M-39-77.2c-0.3,4.6-0.2,9,0.7,13.3c1.2,5.7,3.8,10.6,8.8,14c2.8,1.9,6,3.1,9.3,3.9
		c1.1,0.3,2.2,0.5,3.3,0.7c1.1,0.2,2.2,0.3,3.6,0.5c-0.3-0.3-0.4-0.4-0.5-0.5c-4.4-3.9-7.9-8.5-10.7-13.6c-2.1-3.8-3.7-7.9-4.9-12.1
		c-0.1-0.4-0.1-0.7-0.7-0.8c-3.3-0.2-5.8-1.8-7.8-4.3C-38.4-76.5-38.7-76.8-39-77.2z M30.5-44.9c2.9-0.3,6-0.9,9-1.8
		c7.4-2.4,12.5-7.1,14.8-14.6c1.1-3.5,1.5-7.1,1.6-10.8c0-1.6,0-3.3,0-4.9c-0.1,0-0.2,0-0.3,0c-0.3,0.3-0.5,0.7-0.8,1
		c-2,2.3-4.4,3.9-7.5,4.2c-0.6,0.1-0.8,0.3-1,0.8c-2,6.8-4.9,13.2-9.3,18.8C34.9-49.7,32.6-47.3,30.5-44.9z M-32-96.4
		c-1.9,0.3-3.6,1.5-4.7,3.5c-2.6,4.7-1.5,11.8,2.4,15.4c1,0.9,2,1.5,3.5,1.8C-32.2-82.6-32.6-89.5-32-96.4z M47.5-75.7
		c1.5-0.3,2.7-1,3.6-2c3-3.1,4-6.9,3.5-11.2c-0.3-2.5-1.2-4.7-3.2-6.3c-0.8-0.7-1.7-1.1-2.8-1.2C49.2-89.5,48.9-82.6,47.5-75.7z
		 M51.8-99.6c-0.6-2.3-1.2-4.7-1.8-7c0-0.2-0.3-0.3-0.5-0.4c-0.9-0.1-1.8-0.1-2.7-0.2c0.5,2.3,1,4.6,1.4,6.7
		C49.4-100.2,50.5-99.9,51.8-99.6z M-30.3-106.2c-1,0.3-2,0.6-2.9,0.9c-0.2,0.1-0.3,0.2-0.4,0.4c-0.5,1.7-0.9,3.5-1.4,5.3
		c1.2-0.3,2.4-0.5,3.5-0.8C-31.1-102.4-30.7-104.3-30.3-106.2z"/>
	<path class="st1" d="M13.1-72.8c0,1.3,0,2.5,0,3.8c-1.9-0.1-3.8,0.3-5.6-0.4c-2.6-1-4.4-4.3-3.9-7.2c0.7-3.8,1.4-7.6,2.2-11.3
		c0-0.1,0.1-0.2,0.1-0.4c1.2,0.2,2.4,0.5,3.7,0.7c-0.3,1.8-0.6,3.5-1,5.2c-0.4,2-0.9,4.1-1.1,6.1c-0.1,0.8,0.1,1.7,0.4,2.4
		c0.3,0.8,0.9,1.1,1.8,1.1C10.8-72.8,11.9-72.8,13.1-72.8z"/>
	<path class="st1" d="M-19.8-95.9c-0.5-1.3-1-2.4-1.4-3.6c7.5-3.4,14.9-4,22.4,0.2c-0.2,0.5-0.5,1.1-0.8,1.6
		c-0.3,0.6-0.5,1.1-0.9,1.8C-6.8-99.5-13.3-98.9-19.8-95.9z"/>
	<path class="st1" d="M36.4-95.9c-6.5-3-12.9-3.6-19.3,0.1c-0.6-1.2-1.1-2.3-1.6-3.4c4.4-3.8,15.5-3.9,22.3-0.2
		C37.4-98.3,37-97.2,36.4-95.9z"/>
	<path class="st1" d="M-18.9-88.4c0.6-1.1,1.1-2.2,1.8-3.3c2.3,1.2,4.7,2.4,7.4,2.5c2.7,0.1,5.1-1.1,7.4-2.6c0.7,1.1,1.3,2.1,2,3.2
		C-6.4-84.3-12-84.3-18.9-88.4z"/>
	<path class="st1" d="M33.8-91.7c0.6,1.2,1.2,2.3,1.8,3.4c-6.7,4.1-12.6,4.1-18.4-0.2c0.6-1,1.3-2.1,2-3.2
		C24-88,28.9-88.7,33.8-91.7z"/>
	<path class="st1" d="M16.4-58.3c-0.3,1.3-0.5,2.4-0.8,3.7c-4.8-1.3-9.6-1.4-14.5,0c-0.3-1.3-0.5-2.5-0.8-3.7
		C5.7-59.8,11-59.8,16.4-58.3z"/>
	<path class="st1" d="M-2.1-82.7c0.9,1,1.7,1.8,2.6,2.7c-2.3,3-5.3,3.7-8.1,1.9c-1-0.7-2.2-0.8-3.4-0.5c-0.6,0.1-1.1,0.3-1.8,0.4
		c-0.3-1.2-0.6-2.4-0.8-3.7c2.9-1,5.6-1,8.2,0.6c0.9,0.6,1.4,0.5,2.2-0.2C-2.9-81.9-2.5-82.3-2.1-82.7z"/>
	<path class="st1" d="M29.9-81.9c-0.3,1.2-0.6,2.4-0.9,3.6c-0.7-0.2-1.2-0.3-1.8-0.4c-1.1-0.3-2.2-0.2-3.3,0.4
		c-2.7,1.5-4.7,1.2-6.9-0.9c-0.3-0.3-0.6-0.5-0.9-0.9c0.9-0.9,1.7-1.8,2.6-2.8c0.5,0.4,0.9,0.8,1.4,1.3c0.5,0.4,1,0.6,1.6,0.2
		C24.2-83,27-82.9,29.9-81.9z"/>
	<path class="st1" d="M-8.3-71.1c-1.3,0-2.5,0-3.7,0c0-1.3,0-2.5,0-3.7c1.2,0,2.4,0,3.7,0C-8.3-73.6-8.3-72.4-8.3-71.1z"/>
	<path class="st1" d="M25.6-74.9c1.3,0,2.5,0,3.7,0c0,1.3,0,2.5,0,3.8c-1.2,0-2.5,0-3.7,0C25.6-72.3,25.6-73.6,25.6-74.9z"/>
	<path class="st1" d="M-19.6-69.1c1.3,0,2.5,0,3.7,0c0,1.2,0,2.4,0,3.7c-1.2,0-2.5,0-3.7,0C-19.6-66.7-19.6-67.9-19.6-69.1z"/>
	<path class="st1" d="M-4.4-69.1c1.3,0,2.5,0,3.7,0c0,1.2,0,2.4,0,3.7c-1.2,0-2.5,0-3.7,0C-4.4-66.7-4.4-67.9-4.4-69.1z"/>
	<path class="st1" d="M18-65.4c0-1.3,0-2.5,0-3.7c1.3,0,2.5,0,3.7,0c0,1.2,0,2.5,0,3.7C20.5-65.4,19.3-65.4,18-65.4z"/>
	<path class="st1" d="M-10.2-57.8c-1.3,0-2.5,0-3.7,0c0-1.2,0-2.5,0-3.7c1.2,0,2.4,0,3.7,0C-10.2-60.3-10.2-59-10.2-57.8z"/>
	<path class="st1" d="M33.2-65.4c0-1.2,0-2.4,0-3.7c1.3,0,2.5,0,3.7,0c0,1.2,0,2.4,0,3.7C35.8-65.4,34.5-65.4,33.2-65.4z"/>
	<path class="st1" d="M31.2-57.8c-1.3,0-2.4,0-3.7,0c0-1.2,0-2.5,0-3.7c1.2,0,2.4,0,3.7,0C31.2-60.3,31.2-59.1,31.2-57.8z"/>
	<path class="st1" d="M-17.8-76.7c0,1.2,0,2.4,0,3.7c-1.2,0-2.4,0-3.7,0c0-1.2,0-2.4,0-3.7C-20.3-76.7-19.1-76.7-17.8-76.7z"/>
	<path class="st1" d="M38.8-73c-1.2,0-2.4,0-3.7,0c0-1.2,0-2.5,0-3.7c1.2,0,2.4,0,3.7,0C38.8-75.5,38.8-74.3,38.8-73z"/>
</g>
<g>
	<path class="st1" d="M31.2,140.8c-1.1,0-2,0-3,0c0-0.4,0-0.8,0-1.1c0-16.2,0-32.5,0-48.7c0-0.5-0.1-1-0.2-1.4
		c-4.5-13.1-9-26.2-13.5-39.3c-0.8-2.3-1.5-4.6-1.5-7.1c0-7.8,5.3-14.5,12.8-16.2c7.6-1.8,15.4,2,18.8,9c0.1,0.2,0.2,0.4,0.3,0.7
		c8.8-11.4,23.6-12.5,33.6-6.2c9.7,6.1,16.2,20.7,8.1,34.5c2.5,0,4.9,0,7.3,0c6-0.1,10.6,2.4,14,7.4c7.5,11.1,15.1,22.2,22.7,33.2
		c2.4,3.5,3,7,1,10.8c-1.8,3.4-5.7,5.2-9.5,4.8c-3.4-0.4-6.8-0.6-10.3-0.9c-3.2-0.3-6.4-0.5-9.7-0.8c0,7.1,0,14.2,0,21.4
		c-1.1,0-2,0-3,0c0-7.2,0-14.4,0-21.7c-1.2-0.1-2.4-0.3-3.5-0.4c-4.7-0.4-9.4-0.8-14.2-1.2c-2.4-0.2-4.8-0.6-6.7-2.2
		c-3.1-2.6-4.3-6.8-2.9-10.6c1.5-3.9,5-6.4,9.1-6.2c3.6,0.2,7.2,0.6,10.8,0.9c2.4,0.2,4.8,0.4,7.3,0.6c0-0.3,0-0.6,0-0.9
		c0-2.1,0-4.3,0-6.4c0-0.8,0.1-1.6,1-1.9c0.9-0.3,1.5,0.2,2,0.9c2.1,3.1,4.2,6.1,6.3,9.2c0.5,0.7,0.8,1.4,0.3,2.1
		c-0.5,0.8-1.2,0.7-2,0.6c-4.1-0.4-8.3-0.7-12.4-1c-4-0.3-8.1-0.6-12.1-1.1c-4-0.4-7,1.5-7.8,5.2c-0.8,3.6,2.1,7.4,5.7,7.6
		c5.5,0.4,11,1,16.5,1.4c4.8,0.4,9.6,0.8,14.3,1.2c3.9,0.3,7.8,0.7,11.7,1c2.6,0.2,4.7-0.8,6.1-3c1.5-2.4,1.4-4.9-0.2-7.2
		c-1.5-2.3-3.1-4.5-4.7-6.8c-6.4-9.3-12.7-18.6-19.1-27.9c-2.5-3.6-5.9-5.4-10.3-5.4c-3.2,0-6.3,0-9.5,0c-0.4,0-1,0.2-1.3,0.5
		c-3.7,4.1-8.3,6.8-13.7,7.8c-8,1.5-15.1-0.3-21.4-5.6c-4.6-3.9-7.4-8.8-8.4-14.8c-0.9-5.3-0.2-10.5,2.2-15.3
		c0.3-0.6,0.3-1.1,0.1-1.7c-1.9-4.8-5.2-7.9-10.2-9c-7.5-1.7-15.2,3.6-16.3,11.2c-0.4,2.7,0,5.2,1,7.7c1.8,5,3.5,10.1,5.2,15.1
		c2.9,8.3,5.7,16.7,8.6,25c0.2,0.5,0.3,1.1,0.3,1.6c0,16.4,0,32.8,0,49.2C31.2,140,31.2,140.4,31.2,140.8z M43.1,51.6
		c0,12.3,9.9,22.2,22.2,22.2c12.1,0,22.3-9.9,22.1-22.5C87.1,39,77.1,29.5,65.2,29.5C53,29.5,43.1,39.3,43.1,51.6z M104.4,100.5
		c-0.8-1.2-1.5-2.2-2.3-3.3c0,1.1,0,2.1,0,3.1C102.9,100.4,103.5,100.5,104.4,100.5z"/>
	<path class="st1" d="M139.6,109.5c-0.4-1.9-0.8-3.9-1.3-5.8c-0.3-1.1-0.1-2,0.7-2.3c1-0.4,1.7,0.1,2.1,1.3
		c4.2,11.9-3.2,24.7-15.6,27c-0.8,0.2-1.7,0.2-2.5,0.3c-1.1,0.1-1.8-0.4-1.8-1.3c-0.1-0.9,0.5-1.5,1.6-1.7c1.4-0.2,2.8-0.4,4.2-0.8
		c7.4-2.2,12.4-9.1,12.3-16.8C139.5,109.5,139.6,109.5,139.6,109.5z"/>
	<path class="st1" d="M4.2,36.6C4.6,29.2,9,21.8,17,18.6c4.6-1.9,9.3-2,14.1-0.6c1,0.3,1.5,1,1.4,1.8c-0.2,1-1,1.4-2.1,1.2
		c-2-0.4-3.9-0.9-5.9-0.9C16.4,20,9.1,26.2,7.6,33.9c-0.2,1-0.3,2-0.4,3c-0.1,1.2-0.6,1.8-1.5,1.8c-0.9,0-1.4-0.6-1.5-1.8
		C4.2,36.9,4.2,36.7,4.2,36.6z"/>
	<path class="st1" d="M65,121.1c-0.1-0.1-0.6-0.3-0.9-0.7c-7.5-12.2-1-27.2,11.9-30.8c1.1-0.3,1.9,0,2.2,0.9c0.2,1-0.2,1.6-1.3,1.9
		c-7.1,2.2-11.4,7-12.7,14.3c-0.8,4.1,0.1,8,2.2,11.6c0.1,0.2,0.3,0.4,0.4,0.6C67.2,120.1,66.5,121.1,65,121.1z"/>
	<path class="st1" d="M52.9,106.1c0.3-7.5,2.9-13,8.2-17.2c0.7-0.5,1.3-0.8,2.1-0.2c0.6,0.5,0.8,1.1,0.5,1.8
		c-0.1,0.3-0.5,0.6-0.7,0.8c-4.6,3.6-6.9,8.4-7,14.2c0,1.6,0.4,3.2,0.7,4.8c0.2,1.2,0,1.9-0.9,2.2c-0.9,0.3-1.7-0.2-1.9-1.3
		C53.4,109.2,53.1,107.3,52.9,106.1z"/>
	<path class="st1" d="M20.9,10.7c0,0.8-0.5,1.4-1.5,1.5c-3.1,0.3-6.1,1.1-8.7,2.9c-3.4,2.3-5.8,5.4-7.1,9.3c-0.5,1.4-1.1,2-2.1,1.7
		c-1-0.3-1.3-1.2-0.8-2.6c2.6-8,9.8-13.6,18.1-14.2C20.2,9.2,21,9.8,20.9,10.7z"/>
	<path class="st1" d="M149.4,115.3c-0.4,8-4,14.2-11.2,18.2c-0.3,0.1-0.6,0.3-0.8,0.4c-0.9,0.4-1.7,0.1-2-0.7
		c-0.4-0.8,0-1.6,0.8-2.1c1.3-0.8,2.8-1.6,3.9-2.6c4.6-4,6.6-9,6.2-15.1c-0.1-1,0.4-1.6,1.2-1.7c0.8-0.1,1.5,0.4,1.7,1.3
		C149.3,113.8,149.4,114.5,149.4,115.3z"/>
	<path class="st1" d="M50.2,133.4c-0.8,0-1.4-0.6-1.4-1.5c0-0.9,0.7-1.5,1.6-1.5c0.8,0,1.4,0.7,1.4,1.5
		C51.8,132.8,51.1,133.4,50.2,133.4z"/>
	<path class="st1" d="M42.9,129.6c-0.8,0-1.5-0.7-1.5-1.4c0-0.9,0.6-1.5,1.5-1.5c0.8,0,1.5,0.6,1.5,1.4
		C44.4,129,43.8,129.6,42.9,129.6z"/>
	<path class="st1" d="M83.1,131.7c0.9,0,1.5,0.7,1.5,1.5c0,0.8-0.7,1.5-1.5,1.4c-0.8,0-1.5-0.7-1.5-1.5
		C81.6,132.3,82.3,131.7,83.1,131.7z"/>
	<path class="st1" d="M44,134.4c0,0.8-0.7,1.4-1.5,1.4c-0.9,0-1.5-0.7-1.5-1.6c0-0.8,0.7-1.4,1.5-1.4
		C43.5,132.8,44.1,133.5,44,134.4z"/>
	<path class="st1" d="M28.2,37.9c0,0.8-0.6,1.5-1.4,1.5c-0.8,0-1.5-0.6-1.5-1.5c0-0.9,0.6-1.5,1.4-1.5
		C27.5,36.4,28.2,37.1,28.2,37.9z"/>
	<path class="st1" d="M35.6,41.7c0,0.8-0.7,1.5-1.5,1.6c-0.8,0-1.5-0.7-1.5-1.5c0-0.8,0.6-1.5,1.4-1.5
		C34.9,40.2,35.5,40.8,35.6,41.7z"/>
	<path class="st1" d="M27.8,44.1c0,0.8-0.7,1.5-1.5,1.5c-0.8,0-1.5-0.7-1.5-1.5c0-0.9,0.7-1.5,1.5-1.5
		C27.2,42.7,27.8,43.3,27.8,44.1z"/>
	<path class="st1" d="M39.4,72.8c0,0.8-0.7,1.5-1.5,1.5c-0.8,0-1.5-0.8-1.5-1.6c0-0.8,0.7-1.4,1.5-1.4
		C38.8,71.2,39.4,71.9,39.4,72.8z"/>
	<path class="st1" d="M30.2,76.6c-0.8,0-1.5-0.7-1.5-1.6c0-0.8,0.7-1.4,1.5-1.4c0.8,0,1.5,0.8,1.5,1.6C31.7,76,30.9,76.6,30.2,76.6z
		"/>
	<path class="st1" d="M32.1,68.9c0,0.8-0.6,1.5-1.4,1.5c-0.9,0-1.5-0.6-1.6-1.5c0-0.9,0.6-1.5,1.5-1.5
		C31.3,67.4,32.1,68.1,32.1,68.9z"/>
	<path class="st1" d="M78.4,133.4c0,0.9-0.6,1.5-1.5,1.5c-0.8,0-1.5-0.7-1.5-1.5c0-0.8,0.7-1.5,1.5-1.5
		C77.8,131.9,78.4,132.5,78.4,133.4z"/>
	<path class="st1" d="M50.7,101c-0.8,0-1.5-0.6-1.5-1.4c0-0.9,0.6-1.5,1.5-1.5c0.8,0,1.5,0.6,1.5,1.4C52.2,100.3,51.5,101,50.7,101z
		"/>
	<path class="st1" d="M43.2,97.2c-0.8,0-1.5-0.7-1.4-1.5c0-0.8,0.8-1.5,1.5-1.5c0.9,0,1.5,0.7,1.4,1.6
		C44.7,96.7,44.1,97.3,43.2,97.2z"/>
	<path class="st1" d="M90.6,76.6c0.8,0,1.5,0.7,1.5,1.5c0,0.9-0.6,1.6-1.5,1.6c-0.8,0-1.5-0.7-1.5-1.5
		C89.2,77.3,89.8,76.6,90.6,76.6z"/>
	<path class="st1" d="M78.5,125.7c0-0.9,0.6-1.4,1.5-1.4c0.9,0,1.6,0.6,1.5,1.5c0,0.8-0.7,1.5-1.5,1.5
		C79.2,127.2,78.5,126.6,78.5,125.7z"/>
	<path class="st1" d="M44.4,102c0,0.8-0.6,1.5-1.5,1.5c-0.8,0-1.5-0.7-1.5-1.5c0-0.8,0.6-1.4,1.5-1.5
		C43.8,100.4,44.4,101.1,44.4,102z"/>
	<path class="st1" d="M91.8,84.2c0,0.9-0.6,1.6-1.5,1.6c-0.8,0-1.5-0.6-1.5-1.4c0-0.9,0.6-1.5,1.4-1.6
		C91.1,82.8,91.7,83.4,91.8,84.2z"/>
	<path class="st1" d="M98,83.4c-0.8,0-1.6-0.7-1.5-1.5c0-0.8,0.7-1.4,1.5-1.4c0.9,0,1.5,0.7,1.5,1.5C99.5,82.7,98.8,83.4,98,83.4z"
		/>
</g>
<g>
	<path class="st1" d="M272.1,314.4c-0.2,0.9-0.4,1.8-0.7,2.7c-3.1,9.7-14.4,13.8-23,8.4c-0.7-0.5-1.2-0.4-1.9,0
		c-5.9,3.2-11.7,6.4-17.6,9.7c-0.7,0.4-1.4,1-2,1.6c-0.8,0.7-1,1.7-0.7,2.7c0.4,1,1.2,1.5,2.3,1.6c2.5,0.3,4.8-0.2,7.2-0.9
		c0.4-0.1,0.7-0.2,1.1-0.3c1.9-0.6,3.5-1.5,4.9-3.2c4.4-5.3,12-6.7,18.3-3.7c6.1,2.9,9.7,9.8,8.5,16.5c-1.2,6.9-6.7,12.1-13.6,12.9
		c-7.6,0.8-14.5-3.8-16.6-11.1c-0.1-0.3-0.2-0.5-0.3-0.8c-2.7,0.1-5.4,0.4-7.9,1.7c-1.9,1-2.9,2.4-2.9,4.8c0.1,4.1,0,8.2,0,12.3
		c0,3.2,1.8,5.1,5,5.3c5,0.3,8.8,3.1,10.2,7.5c0.6,2-0.3,3.1-2.3,2.7c-4.8-0.9-9.6-1.7-14.6-1.2c-1.5,0.1-2.9,0.7-4.3,1.1
		c-0.5,0.1-1.2,0.3-1.6,0.1c-2.1-1.2-4.5-1.4-6.8-1.3c-4.2,0.3-8.3,0.9-12.5,1.4c-1.7,0.2-2.7-0.7-2.2-2.4c1.1-4.2,4.9-7.4,9.3-7.8
		c0.2,0,0.3,0,0.5,0c4-0.3,5.6-2,5.6-6c0-4,0-7.9,0-11.9c0-1.7-0.7-3-2-3.9c-1.8-1.3-4-1.8-6.2-2.1c-0.8-0.1-1.6-0.1-2.6-0.2
		c-0.1,0.4-0.2,0.7-0.3,1c-2.1,6.7-8.6,11.4-15.4,11c-7.6-0.4-13.5-5.7-14.8-12.9c-1.2-7.1,2.7-14.1,9.4-16.9
		c6.5-2.7,14.2-0.5,18.4,5.2c0.3,0.5,0.9,0.9,1.4,1.1c2.8,1.2,5.6,2.1,8.7,2.3c0.7,0,1.4,0,2.1-0.1c1-0.1,1.8-0.6,2.2-1.6
		c0.4-1,0.2-2-0.6-2.6c-1.1-1-2.3-1.9-3.6-2.6c-5.5-3-11-6-16.5-9c-0.6-0.3-0.9,0-1.4,0.2c-7.2,4.6-16.6,2.6-21.3-4.5
		c-6.4-9.6-0.3-22.7,11.1-24c10.2-1.2,18.6,7.5,17.3,17.6c0,0.4,0.1,0.9,0.3,1.1c3.2,2,6.5,4,9.8,5.9c0.9,0.5,1.9,0.7,2.9,1
		c1,0.3,1.6-0.1,1.7-1.1c0.2-1.8,0.3-3.5,0.2-5.3c0-1.5-0.3-3-0.6-4.5c-0.1-0.5-0.5-1-0.9-1.2c-5.5-3.2-8.4-7.9-8.1-14.3
		c0.2-6.2,3.3-10.7,8.8-13.4c9.5-4.7,21.1,1.8,22,12.3c0.6,6.9-2.2,12-8.2,15.4c-0.3,0.2-0.6,0.5-0.7,0.9c-0.6,3-0.9,6-0.6,9.1
		c0.2,2.2,0.7,2.5,2.8,1.8c3.6-1.2,6.8-3.4,10-5.4c1.6-1,2.3-1.9,2.1-4c-0.4-8.2,5.6-15.2,13.5-16c8.4-0.9,15.7,4.5,17.2,12.9
		c0,0.2,0.1,0.3,0.2,0.5C272.1,311.6,272.1,313,272.1,314.4z M242.4,318.8c-1.2,0.8-2.3,1.5-3.4,2.2c-3.2,2-6.3,4-10,4.8
		c-3,0.7-5.1-0.4-5.7-3.5c-0.4-1.8-0.4-3.7-0.5-5.5c0-1.6,0.2-3.2,0.3-4.7c-1.9,0-3.7,0-5.5,0c0.1,1.4,0.3,2.8,0.4,4.2
		c0.2,2.3,0.1,4.6-0.7,6.8c-0.8,2.2-2.2,3.1-4.5,2.8c-1-0.1-2.1-0.3-3-0.8c-3-1.5-6-3.2-9-4.9c-0.9-0.5-1.6-1.1-2.4-1.6
		c-0.8,1.2-1.5,2.4-2.3,3.6c4.1,2.2,8.2,4.2,12.1,6.5c2.7,1.6,5.4,3.2,7.9,5.2c2.1,1.6,2.7,4,1.7,6.6c-1,2.5-3,3.7-5.7,3.9
		c-3,0.2-5.8-0.4-8.7-1.3c-0.2-0.1-0.5-0.1-0.7-0.2c0.2,1.3,0.3,2.5,0.5,3.8c1.1,0.1,2.2,0.2,3.3,0.4c2.8,0.4,5.5,1.2,7.8,3.2
		c1.5,1.4,2.6,3,2.7,5.1c0,4.8,0.1,9.6,0,14.4c-0.1,4.4-3.7,7.8-8.1,7.9c-0.7,0-1.4,0-2,0.2c-1.6,0.4-2.9,1.1-3.9,2.6
		c2.1-0.2,3.9-0.5,5.8-0.7c3.8-0.3,7.7-0.5,11.4,0.9c0.2,0.1,0.5,0.1,0.8,0c2.8-1.1,5.7-1.2,8.6-1.1c2.8,0.1,5.6,0.4,8.5,0.7
		c-1.4-1.8-3.3-2.6-5.6-2.7c-5-0.1-8.4-3.6-8.4-8.6c0-4.3,0-8.5,0-12.8c0-2.7,1-4.9,3.2-6.3c1.6-1.1,3.4-1.8,5.3-2.4
		c1.7-0.5,3.5-0.6,5.3-0.9c0.1-1.2,0.3-2.4,0.5-3.7c-0.5,0.2-0.9,0.3-1.3,0.4c-2.7,0.8-5.4,1.3-8.3,1.1c-2.6-0.2-4.5-1.4-5.5-3.8
		c-1-2.4-0.4-4.7,1.5-6.5c0.8-0.8,1.7-1.6,2.7-2.1c5.4-3.1,10.9-6.1,16.4-9.1c0.3-0.2,0.7-0.4,1-0.6
		C243.9,321.2,243.2,320.1,242.4,318.8z M194.7,318.1c2.4-3.6,2.3-10.3-2.4-14.6c-4.5-4.1-11.6-4.2-16.2-0.1c-4.7,4.2-5,11-2.4,14.8
		c0.7-0.8,1.3-1.6,2-2.3c0.7-0.7,1.6-1.3,2.3-1.9c-1.3-4-0.7-6.7,1.9-8.7c2.3-1.8,5.5-1.9,8-0.4c1.2,0.8,2.1,1.8,2.6,3.2
		c0.8,2,0.6,4-0.2,5.7C191.9,315.3,193.3,316.7,194.7,318.1z M230.9,302.6c2.9-4.7,1.6-11.6-3.1-15.2c-4.8-3.8-11.8-3.3-16.1,1.1
		c-4.5,4.6-4,11.3-1.9,14.1c1.4-1.4,2.9-2.8,4.4-4.3c-1.3-3.3-0.8-6.3,1.7-8.4c2.3-1.9,5.6-2.1,8.1-0.5c1.3,0.8,2.2,1.9,2.7,3.4
		c0.8,2,0.5,3.9-0.3,5.5C228.1,299.8,229.5,301.2,230.9,302.6z M198.1,352.7c3-4.9,1.6-11.8-3.1-15.4c-4.9-3.8-11.9-3.2-16.1,1.2
		c-4.3,4.5-3.9,11-1.7,14c1.4-1.4,2.9-2.8,4.4-4.3c-1.3-3.3-0.8-6.3,1.7-8.4c2.3-1.9,5.5-2.2,8-0.6c1.3,0.8,2.2,1.8,2.8,3.2
		c0.9,2,0.6,4.1-0.3,5.9c0.8,0.7,1.7,1.3,2.4,2C196.8,351,197.4,351.9,198.1,352.7z M250.4,313.8c-1.3-3.6-0.7-6.5,2-8.6
		c2.4-1.8,5.7-1.9,8.1-0.2c2.8,2,3.5,4.8,2.2,8.9c0.8,0.6,1.6,1.2,2.4,2c0.7,0.7,1.3,1.5,2,2.3c2.9-4.5,1.8-11.3-2.6-15
		c-4.6-4-11.5-3.9-16,0.2c-4.8,4.4-4.7,11.2-2.4,14.6C247.5,316.7,248.9,315.2,250.4,313.8z M263.7,352.5c2.9-4.7,1.6-11.5-3-15.1
		c-4.8-3.8-11.7-3.5-16.1,0.9c-4.4,4.4-4.2,11-2,14.2c1.4-1.4,2.9-2.8,4.4-4.3c-1.3-3.5-0.7-6.4,1.8-8.5c2.3-1.9,5.6-2,8.1-0.4
		c1.2,0.8,2.1,1.9,2.6,3.3c0.7,2,0.5,3.9-0.3,5.5C260.8,349.7,262.2,351.1,263.7,352.5z M192.2,321.3c-0.8-2-2.1-3.5-3.9-4.4
		c-0.3-0.2-0.8-0.2-1.1,0c-2,0.9-4,0.9-5.9,0c-0.3-0.1-0.7-0.2-0.9,0c-1.9,1-3.3,2.5-4.1,4.5C180.4,325.4,187.7,325.5,192.2,321.3z
		 M256.5,324.4c2.7,0,5.2-0.9,7.4-2.5c0.5-0.4,0.7-0.7,0.3-1.4c-0.8-1.5-2-2.8-3.5-3.6c-0.3-0.2-0.9-0.2-1.3,0
		c-1.9,0.8-3.8,0.8-5.8,0c-0.4-0.2-0.9-0.2-1.3,0c-1.6,0.8-2.7,2.1-3.5,3.6c-0.3,0.6-0.2,1,0.3,1.4
		C251.4,323.5,253.8,324.4,256.5,324.4z M187.7,358.9c2.8-0.1,5.2-0.9,7.4-2.6c0.5-0.4,0.6-0.7,0.3-1.3c-0.8-1.5-1.9-2.7-3.4-3.6
		c-0.5-0.3-0.9-0.4-1.5-0.1c-1.6,0.8-3.3,1-4.9,0.3c-1.6-0.8-2.6-0.2-3.6,0.8c-0.8,0.8-1.4,1.7-2.1,2.6c-0.3,0.5-0.2,0.8,0.2,1.2
		C182.4,358,184.9,358.8,187.7,358.9z M261.1,355.7c-0.8-1.9-2-3.4-3.8-4.3c-0.3-0.2-0.9-0.2-1.3-0.1c-2,0.8-3.9,0.8-5.9,0
		c-0.3-0.1-0.8-0.2-1.1,0c-1.7,0.8-2.9,2.1-3.7,3.8c-0.1,0.3,0,0.8,0.2,1C249.7,359.9,257.1,359.7,261.1,355.7z M212.4,305.8
		c4.3,4.2,12.1,4.1,16,0c-0.8-2-2.1-3.5-4-4.4c-0.3-0.1-0.7-0.1-1,0c-2,0.9-4,0.9-5.9,0c-0.3-0.1-0.7-0.2-0.9,0
		C214.5,302.3,213.2,303.8,212.4,305.8z M260,310.7c0-1.9-1.5-3.5-3.4-3.5c-1.9,0-3.4,1.6-3.4,3.5c0,1.9,1.5,3.4,3.4,3.4
		C258.4,314.1,260,312.6,260,310.7z M187.7,310.7c0-1.9-1.6-3.5-3.5-3.5c-1.9,0-3.5,1.6-3.4,3.5c0,1.8,1.6,3.4,3.4,3.4
		C186.1,314.1,187.7,312.5,187.7,310.7z M220.4,298.6c1.9,0,3.5-1.5,3.5-3.4c0-1.9-1.5-3.4-3.5-3.4c-1.9,0-3.4,1.5-3.4,3.4
		C216.9,297,218.4,298.6,220.4,298.6z M184.2,345.1c0,1.9,1.5,3.5,3.4,3.5c1.9,0,3.4-1.5,3.4-3.5c0-1.9-1.5-3.4-3.4-3.4
		C185.8,341.6,184.3,343.2,184.2,345.1z M249.7,345.1c0,1.9,1.5,3.5,3.4,3.5c1.9,0,3.4-1.5,3.4-3.5c0-1.9-1.5-3.4-3.4-3.4
		C251.3,341.6,249.7,343.1,249.7,345.1z"/>
</g>
</svg>
