<?xml version="1.0" encoding="utf-8"?>
<!-- Generator: Adobe Illustrator 24.3.0, SVG Export Plug-In . SVG Version: 6.00 Build 0)  -->
<svg version="1.1" id="Layer_1" xmlns="http://www.w3.org/2000/svg" xmlns:xlink="http://www.w3.org/1999/xlink" x="0px" y="0px"
	 viewBox="0 0 150 150" style="enable-background:new 0 0 150 150;" xml:space="preserve">
<style type="text/css">
	.st0{fill:#005BAB;}
</style>
<g>
	<path class="st0" d="M76.8-320.9c2.7-4.3,6.7-7.7,12.1-7.9c12.4-0.4,24.9-1.6,37.2,0.6c13.9,2.6,23.9,15.4,24.1,29.5
		c0.1,10.8,0,21.5,0.1,32.3c0,1.1,0.7,2.2,1.1,3.2c0.8,2.1,1.9,4.1,2.2,6.2c0.4,3.6,0.2,7.2,0.1,10.8c-0.1,5.6-4.6,10-10.2,10.1
		c-1.6,0-3.1,0-4.8,0c-0.5,1.5-0.9,3-1.5,4.3c-3.3,8.5-8.8,15.2-16.5,20.2c-1.1,0.7-1.6,1.5-1.5,2.8c0.1,2.1,0,4.3,0,6.5
		c0,3,1.2,4.2,4.2,4.2c6.3,0,12.6-0.1,19,0.1c3.6,0.1,7.1,0.8,10.7,1.1c0.9,0.1,1.8-0.4,2.6-0.7c0.5-0.2,0.8-0.8,1.3-1.1
		c3.3-1.5,3.7-4.1,3.7-7.5c-0.1-36.1-0.1-72.2-0.1-108.3c0-8.4,6.1-14.6,14.1-14.4c7.2,0.1,13.1,5.9,13.5,13.1c0,0.9,0,1.7,0,2.6
		c0,36.6,0,73.2,0,109.8c0,1.6,0.5,2.5,1.8,3.4c16.9,11.4,15.7,36.9-2.2,46.7c-1.6,0.9-1.9,1.7-1.8,3.3c0.7,7.4,1.3,14.7,2,22.1
		c0.4,4.6-0.5,5.8-5.1,5.8c-56.3,0-112.6,0-168.9,0c-4.4,0-5.5-1.3-5-5.6c1.1-10.8,2.4-21.5,3.2-32.3c1.7-21,19.4-37.6,40.4-37.8
		c6.9-0.1,13.8,0,20.7,0c3.2,0,4.2-1.2,4.5-4.4c0.5-5.1-0.5-8.9-5.4-12.1c-6.9-4.6-11-11.8-13.5-19.7c-0.4-1.4-1-1.9-2.4-1.7
		c-1.1,0.1-2.2,0-3.2,0c-5.5-0.2-9.9-4.6-10-10.1c-0.1-3.6-0.3-7.2,0.1-10.8c0.2-2.2,1.5-4.2,2.3-6.3c0.4-1,1-2,1-3.1
		c0.1-12.5,0-25,0-37.5c0-11.2,7.2-18.4,18.5-18.4c1.9,0,3.9-0.2,5.8,0.1C72.9-321.9,74.8-321.3,76.8-320.9z M16.1-129.3
		c11.5,0,22.7,0,34.1,0c0-0.6,0-1,0-1.4c0-6.2,0-12.5,0-18.7c0-2.3,1.5-3.8,3.5-3.8c1.9,0,3.3,1.5,3.4,3.7c0,1.4,0,2.7,0,4.1
		c0,5.4,0,10.7,0,16.2c27.7,0,55.1,0,82.7,0c0-6.7,0-13.2,0-19.7c0-2.7,1.3-4.3,3.4-4.3c2.1,0,3.4,1.6,3.4,4.3c0,5.8,0,11.6,0,17.4
		c0,0.8,0,1.5,0,2.2c11.5,0,22.8,0,34.2,0c-0.6-7.1-1.2-14-1.8-20.8c-11.3,1.3-20.5-2.1-27.1-11.2c-6.6-9.1-6.8-19-2.1-29.2
		c-0.6-0.1-0.9-0.3-1.3-0.3c-7.5-0.1-14.9-0.3-22.4-0.4c-0.5,0-1.3,0.9-1.5,1.6c-4,11.5-14.3,19.1-26.3,19.1
		c-11.9,0-22.2-7.5-26.1-19.1c-0.4-1.3-1.1-1.6-2.3-1.6c-5.7,0-11.5,0-17.2,0c-15.5,0.2-29.3,11.1-32.7,26.3
		c-1.1,5.2-1.4,10.5-2,15.8C17.4-142.6,16.8-136,16.1-129.3z M98.4-287.7c-8.4,0-16.7-0.2-24.9,0.1c-5.3,0.1-9.4,4.8-9.4,10.2
		c-0.1,10.8-0.2,21.7,0,32.5c0.4,17.6,15.3,32.5,32.9,33c20,0.6,35.9-14.7,36-34.7c0-9.8,0-19.5,0-29.3c0-8.4-5.4-12.9-13.7-11.6
		c-1,6.3-5,10.2-10.5,10.1C103.2-277.4,99.3-281.3,98.4-287.7z M143.2-267.1c0-0.6,0.1-1,0.1-1.4c0-9.8,0.1-19.7,0-29.5
		c-0.1-13.6-10.7-24-24.3-24.1c-9-0.1-17.9,0-26.9,0c-6.1,0-10.3,3.9-10.8,10c-0.2,2.3-1.4,3.7-3.3,3.8c-1.9,0.1-3.2-1.2-3.6-3.5
		c-0.4-2.3-1.5-3.3-4-3.3c-1.9,0-3.7,0-5.6,0c-6.8,0-11.1,4.3-11.1,11.2c0,11.6,0,23.3,0,34.9c0,0.7,0.1,1.4,0.1,2.1
		c1.2,0,2.2,0,3.4,0c0-3.2,0-6.4,0-9.5c0-10.6,7.4-18,18-18c7.8,0,15.6,0,23.5,0c1.4,0,2.3-0.3,3-1.7c1.2-2.4,2.7-4.7,4.3-7
		c1.6-2.2,4.2-2.2,5.8,0c1.1,1.5,2.4,3,3,4.7c1.3,3.5,3.6,4.1,7.1,4.1c10.7-0.2,18,7.3,18.1,17.9c0,3.1,0,6.3,0,9.5
		C141-267.1,142-267.1,143.2-267.1z M181.2-308.4c0-2.2,0-4,0-5.9c0-0.5,0-1,0-1.5c-0.3-3.4-3.1-6.2-6.5-6.4
		c-3.4-0.2-6.5,2.2-7.1,5.6c-0.2,0.9-0.1,1.9-0.1,2.8c0,37.6,0,75.2,0,112.9c0,2.6-0.8,4.2-3.2,5.5c-9.9,5.3-13.5,17.5-8.4,27.5
		c5.1,9.9,17.3,14.1,27.3,9.2c7.4-3.6,11.4-9.7,11.7-18c0.3-8.4-3.5-14.8-10.9-18.9c-2-1.1-3-2.5-2.8-4.8c0.1-1.5,0-3,0-4.4
		c-1.3,0-2.3,0-3.4,0c0,5.2,0.1,10.3,0,15.4c0,1.5,0.3,2.4,1.8,3.2c4.1,2.2,6,7.1,4.8,11.6c-1.2,4.5-5.3,7.6-10.1,7.6
		c-4.6,0-8.6-3.1-9.8-7.6c-1.2-4.5,0.6-9.4,4.8-11.6c1.5-0.8,1.7-1.7,1.7-3.2c0-29.6,0-59.2,0-88.7c0-0.8,0-1.7,0-2.7
		c3.6,0,6.9,0,10.2,0c0-2.4,0-4.5,0-6.9c-2.3,0-4.5,0-6.6,0c0-2.4,0-4.6,0-6.9c2.3,0,4.4,0,6.6,0c0-2.3,0-4.5,0-6.9
		c-2.3,0-4.5,0-6.6,0c0-2.4,0-4.5,0-6.8C176.7-308.4,178.8-308.4,181.2-308.4z M84.7-207.4c0,2.2,0,4.1,0,5.9
		c-0.1,3.4-1.5,6.3-4.3,8.2c-1.4,0.9-1.5,1.7-0.9,3.1c3.6,7.9,9.8,12.4,18.4,12.6c8.8,0.3,15.2-3.9,19.2-11.8c0.5-0.9,0.7-1.9,1.1-3
		c-6.4-3.3-6.1-9.1-5.9-15.1C103-204.3,94-204.2,84.7-207.4z M57.1-260.2c-1,0-1.8,0-2.5,0c-3.1,0-4.3,1.2-4.3,4.3
		c0,3.1,0,6.2,0,9.2c0,2.3,1.3,3.6,3.6,3.7c1.1,0.1,2.1,0,3.2,0C57.1-248.7,57.1-254.3,57.1-260.2z M139.9-242.9
		c1.3,0,2.4,0.1,3.5,0c2-0.1,3.3-1.4,3.3-3.5c0.1-3.4,0.1-6.9,0-10.3c0-1.8-1.1-3-2.8-3.3c-1.3-0.2-2.6,0-4,0
		C139.9-254.3,139.9-248.8,139.9-242.9z M109.3-294.9c-0.3,0-0.6,0.1-0.9,0.1c-0.9,2.2-2.1,4.4-2.7,6.7c-0.2,0.9,0.5,2.6,1.3,3
		c1,0.6,2.7,0.6,3.7,0.1c0.8-0.4,1.7-2.1,1.5-2.9C111.4-290.3,110.3-292.5,109.3-294.9z M174.3-174c1.8,0,3.4-1.5,3.5-3.3
		c0.1-1.9-1.6-3.6-3.5-3.5c-1.9,0-3.4,1.6-3.4,3.4C170.9-175.6,172.4-174,174.3-174z M177.9-273.8c0,2.3,0,4.4,0,6.7
		c1.1,0,2.2,0,3.2,0c0-2.3,0-4.5,0-6.7C179.9-273.8,179-273.8,177.9-273.8z M177.9-253.4c1.2,0,2.2,0,3.2,0c0-2.3,0-4.5,0-6.6
		c-1.1,0-2.1,0-3.2,0C177.9-257.8,177.9-255.7,177.9-253.4z M177.9-246.3c0,2.3,0,4.5,0,6.6c1.1,0,2.2,0,3.2,0c0-2.3,0-4.5,0-6.6
		C179.9-246.3,178.9-246.3,177.9-246.3z M181.1-225.8c0-2.3,0-4.4,0-6.7c-1.1,0-2.2,0-3.2,0c0,2.3,0,4.5,0,6.7
		C179-225.8,180-225.8,181.1-225.8z M177.9-218.8c0,2.3,0,4.5,0,6.7c1.1,0,2.2,0,3.1,0c0-2.3,0-4.5,0-6.7
		C179.9-218.8,179-218.8,177.9-218.8z"/>
	<path class="st0" d="M36.3-201.6c-9.8-0.1-16.9-10.5-12.3-18.8c2.8-5,6.4-9.7,9.8-14.3c1.4-1.9,3.9-1.9,5.2,0
		c3.4,4.6,7,9.2,9.8,14.3C53.4-212,46.2-201.5,36.3-201.6z M36.9-227.1c-0.3,0-0.6-0.1-0.9-0.1c-1.9,3.1-4,6.2-5.7,9.4
		c-1.5,2.8-0.5,5.9,2,7.8c2.5,1.9,5.9,1.9,8.4,0c2.5-2,3.4-5,1.9-7.8C40.9-220.9,38.8-224,36.9-227.1z"/>
	<path class="st0" d="M33.1-260.2c-6.9,0.1-12.3-6.7-9.8-13.1c1.7-4.6,4.4-8.8,7-13c1.2-2.1,4.2-2,5.5,0c2.6,4.2,5.3,8.4,7,13
		C45.1-266.9,39.9-260.2,33.1-260.2z M33.4-277.6c-0.3,0-0.6,0-0.9,0c-1,2.2-2.1,4.3-2.7,6.6c-0.2,0.9,0.5,2.7,1.4,3.2
		c0.9,0.6,2.7,0.5,3.7,0c0.8-0.5,1.6-2.2,1.3-3.2C35.6-273.3,34.4-275.4,33.4-277.6z"/>
	<path class="st0" d="M81.1-260.5c-2.2,0.1-4.3,0.3-6.4,0.3c-2.3,0-3.8-1.4-3.8-3.5c0-2,1.5-3.4,3.9-3.4c5.5,0.1,10.2-1.6,14.1-5.6
		c1.6-1.7,3.7-1.7,5.1-0.2c1.4,1.5,1.3,3.4-0.3,5.2c-0.7,0.8-1.5,1.6-2.4,2.1c-2.2,1.4-3.6,2.8-3.3,5.8c0.2,1.8-1.3,3-3.2,3.1
		C82.9-256.6,81.7-257.8,81.1-260.5z"/>
	<path class="st0" d="M115.9-260.5c-0.7,2.7-2,3.9-3.9,3.7c-2-0.2-3.2-1.7-3.1-4.4c0.1-1.6-0.4-2.6-1.8-3.5
		c-1.5-0.9-2.8-2.2-4.1-3.5c-1.4-1.5-1.4-3.5-0.1-4.8c1.3-1.4,3.4-1.5,4.8-0.1c4.1,4.3,9,6.1,14.9,6c2-0.1,3.4,1.5,3.5,3.4
		c0,1.9-1.4,3.4-3.6,3.5C120.3-260.2,118.2-260.4,115.9-260.5z"/>
	<path class="st0" d="M98.4-233.8c5,0.2,9.1,1.9,12.4,5.2c1.7,1.7,1.9,3.8,0.4,5.3c-1.4,1.4-3.4,1.3-5.2-0.3
		c-5-4.4-10.2-4.4-15.4,0.1c-1.8,1.5-3.8,1.6-5.2,0.1c-1.4-1.5-1.2-3.5,0.4-5.1C89.5-232,93.8-233.7,98.4-233.8z"/>
	<path class="st0" d="M99.5-246.4c1,0,1.8-0.1,2.6,0c1.9,0.2,3.3,1.6,3.3,3.3c0,1.9-1.3,3.4-3.4,3.5c-2.4,0.1-4.7,0.1-7.1,0
		c-2.3-0.1-3.7-2-3.2-4.2c1.1-4.6,2.2-9.2,3.4-13.8c0.5-2,2.4-3,4.1-2.6c1.9,0.5,3,2.3,2.5,4.3C101.1-252.6,100.3-249.6,99.5-246.4z
		"/>
</g>
<g>
	<path class="st0" d="M112.4,0.9c2,0.7,4.1,1.1,6,2.1c6,3.2,9.1,9.5,8.2,16.5c-0.7,6.1-5.5,11.6-11.7,13.3c-1.7,0.5-3.5,0.8-5.3,1.2
		c0.5,2.6,1,5.3,1.5,8c1.8,9.8,2.8,19.7,3.1,29.6c0.1,4.9-2.5,8.7-6.7,10.2c-4.4,1.5-8.8,0-11.7-4c-0.1-0.1-0.2-0.3-0.4-0.5
		c-2,1.9-4.4,2.8-7.4,2.9c1.6,2,3,3.8,4.4,5.5c2.6,3,4.6,6.3,5.2,10.3c0.4,3.1-0.2,6.1-0.8,9.2c-2.7,13.6-5.3,27.2-8,40.9
		c-0.4,2.3-1.3,3-3.6,3c-5.4,0-10.7,0-16.1,0c-2.6,0-3.7-1.4-3.3-4c1.6-8.9,3.1-17.8,4.7-27c-0.5,0.6-0.8,0.9-1.1,1.2
		c-7.6,9.3-15.1,18.6-22.6,27.8c-2.1,2.5-3.3,2.7-5.8,0.5c-3.3-2.8-6.6-5.6-9.9-8.5c-2-1.7-2.1-3-0.5-5.1c7.1-9,14.1-18,21.2-26.9
		c0.7-0.9,0.8-1.6,0.4-2.6c-2.5-7.4-5-14.9-7.5-22.3c-0.2-0.6-0.5-1.2-1-1.5c-10.3-7.2-12.8-19.3-9-30.5c1.9-5.7,5.2-10.6,9-15.1
		c3.6-4.2,7.6-8.1,11.5-12c1.5-1.5,3.3-1.4,4.4-0.1c1.1,1.3,0.9,3.1-0.7,4.4c-5.3,4.6-10,9.7-14,15.6c-0.2,0.2-0.3,0.5-0.5,0.8
		c8.5,5.2,16.9,10.3,25,15.3c3.3-3.3,6.4-6.4,9.5-9.6c0.3-0.3,0.5-0.9,0.5-1.4c0-2.2-0.1-4.4-0.1-6.7c0-2.1,1.1-3.4,2.9-3.4
		c1.8,0,2.8,1.2,2.9,3.4c0.3,9.3,0,18.5-1.1,27.7c-0.3,2.6,1.2,4.7,3.7,5c2.3,0.3,4.4-1.3,4.7-3.9c1.2-9.6,1.7-19.2,1.2-28.9
		c-0.3-5.8-0.9-11.6-1.3-17.5c-0.1-1.8-0.9-3.3-2.3-4.5c-2.5-2-5.3-3.3-8.6-3.5c-0.5,0-1.1-0.1-1.6-0.2c-1.5-0.3-2.5-1.5-2.4-3
		c0.1-1.5,1.2-2.7,2.8-2.7c2.8,0,5.6,0.5,8.2,1.7c1.2,0.5,2.4,1.2,3.7,1.9c0.2-0.4,0.3-0.8,0.4-1.2c2.1-5.9,6.2-9.5,12.3-10.9
		c1.2-0.3,2.3-0.6,3.5-0.9C109.7,0.9,111,0.9,112.4,0.9z M83.3,143.2c0.1-0.2,0.1-0.4,0.1-0.5c2.7-13.8,5.4-27.5,8.1-41.3
		c0.8-4.1-0.1-7.7-2.8-10.9c-6.4-7.9-12.6-15.8-19-23.7c-0.6-0.7-1.2-1.4-2-1.8c-6.4-4-12.9-7.9-19.4-11.9c-2.3-1.4-4.6-2.8-6.9-4.2
		C37.3,57,37,69,47.1,76.1c10.2,7.1,20.1,14.5,30.2,21.7c1.6,1.1,2.2,2.3,1.8,4.3c-1.2,6.3-2.2,12.6-3.4,18.9
		c-1.3,7.4-2.6,14.8-3.9,22.3C75.7,143.2,79.4,143.2,83.3,143.2z M52.5,87.2c0.2,0.8,0.4,1.4,0.5,1.9c1.8,5.2,3.5,10.5,5.3,15.7
		c0.6,1.6,0.3,2.8-0.7,4.1c-5.9,7.4-11.7,14.8-17.6,22.3c-1.2,1.6-2.5,3.2-3.8,4.8c2.4,2,4.6,3.9,7,6c2.4-2.9,4.6-5.7,6.9-8.5
		c5.6-6.9,11.2-13.9,16.9-20.7c2.3-2.8,3-5.9,2.1-9.3c-0.4-1.5-0.7-3-1.2-4.5c-0.2-0.6-0.6-1.2-1.1-1.6c-4.3-3.2-8.7-6.3-13-9.4
		C53.6,87.8,53.2,87.6,52.5,87.2z M109.1,28.2c1-0.2,3-0.5,4.9-1.2c4.3-1.5,7.2-5.9,6.9-10.3c-0.4-5-3.7-8.8-8.4-9.8
		c-2.7-0.6-5.2,0.1-7.7,0.8c-4.9,1.5-8,6.5-7.2,11.5C98.5,24.4,102.9,28.2,109.1,28.2z M99,31.4c0,0.5,0,1,0,1.5
		c0.2,5.9,0.6,11.8,0.5,17.6c-0.2,7.2-0.1,14.3,0.3,21.5c0.2,2.8,1.9,4.7,4.4,4.6c2.5-0.1,4.2-2,4.1-4.8c-0.1-3.7-0.3-7.3-0.6-11
		c-0.7-8.9-2.2-17.8-4.1-26.5c-0.1-0.4-0.3-1-0.7-1.2C101.7,32.5,100.4,32,99,31.4z M74.3,63.1c1.4,1.7,2.7,3.3,4.2,5.2
		c0.3-3.9,0.6-7.3,0.8-10.7c-0.1-0.1-0.3-0.1-0.4-0.2C77.4,59.3,75.9,61.2,74.3,63.1z"/>
	<path class="st0" d="M49.9,14.8c0,0.9-0.6,1.8-1.7,2.2c-1.7,0.6-2.6,1.8-3.2,3.5c-1.1,2.7-3,4.7-5.8,5.7c-1.6,0.6-2.7,1.6-3.3,3.1
		c-0.7,1.6-2.2,2.2-3.7,1.6c-1.5-0.6-2.2-2.1-1.6-3.8c1-2.7,2.7-4.7,5.3-5.8c2.1-0.8,3.5-2.1,4.3-4.3c1-2.7,3.2-4.4,5.9-5.4
		C48,11.1,49.9,12.4,49.9,14.8z"/>
	<path class="st0" d="M42.9,106.2c0,1-0.6,1.9-1.8,2.4c-1.6,0.6-2.6,1.8-3.2,3.3c-1,2.8-3,4.7-5.7,5.8c-1.6,0.6-2.8,1.6-3.5,3.2
		c-0.7,1.6-2.2,2.2-3.7,1.6c-1.5-0.6-2.2-2.1-1.6-3.7c1-2.9,3-5,5.9-6.1c1.8-0.7,2.9-1.8,3.5-3.5c1.1-2.9,3.2-4.9,6.2-5.9
		C41,102.6,42.9,103.9,42.9,106.2z"/>
	<path class="st0" d="M68,20.3c-1.6,0-2.8-1.3-2.8-2.8c0-1.6,1.3-3,2.9-2.9c1.5,0,2.8,1.3,2.9,2.9C71,19,69.6,20.3,68,20.3z"/>
</g>
<g>
	<path class="st0" d="M915.5,495.4c0.7-2.6,1.4-5.2,2.2-7.8c2.2-7.2,5.9-13.6,11.4-18.6c8.8-8,17.8-15.7,26.7-23.4
		c3.1-2.7,6.8-2.3,8.7,0.8c1.8,2.7,1.2,5.4-2,8.2c-8,7-16.1,13.8-24,20.9c-13.1,11.8-15.8,30-6.4,44.4c6.1,9.5,15,15.2,26.3,15.6
		c16.4,0.6,32.9,0.1,49.6,0.1c0-11.6,0-23.1,0-35.1c-2,0-3.9,0-5.9,0c-9.9,0-19.7,0-29.6,0c-2.9,0-5.6-0.6-6.8-3.6
		c-1.2-3,0.2-5.2,2.4-7.3c22-21.4,44-42.8,66.1-64.1c2.2-2.1,3-4.2,3-7.2c-0.1-16.8-0.1-33.7-0.1-50.5c0-0.7,0.2-1.6,0-2.2
		c-0.7-1.5-1.3-3.7-2.6-4.2c-2.4-0.9-3.4,1.1-4,3.2c-3.4,12.2-6.8,24.5-10.5,36.6c-0.7,2.2-2.1,4.6-3.8,6.1
		c-11,9.8-22.1,19.4-33.3,29c-3.3,2.9-6.6,3-8.9,0.5c-2.4-2.6-1.8-6,1.6-9c10.3-9,20.7-18,31-27.1c1.5-1.3,2.7-3.3,3.3-5.1
		c3.2-10.9,5.9-21.9,9.5-32.6c2-5.9,2.5-11.8,2.6-17.9c0.1-13.9,1.9-27.6,7.8-40.4c-4.4-2.1-8.8-3.9-12.9-6.3
		c-13-7.6-13.2-17.4-0.5-25.5c10.6-6.8,22.6-9.6,34.8-12c21.2-4.2,42.6-4.7,64.1-4.8c6.9,0,13.7-0.3,20.6,0.2
		c11.3,0.7,19.8,6.3,25.5,16c1.2,2.1,2.3,2.8,4.6,2.2c7.2-2.1,14.4-4,21.5-6.1c1.4-0.4,2.7-1.3,3.9-2.1c3.7-2.6,4.1-5.8,0.6-8.6
		c-2.5-2.1-5.6-3.8-8.7-4.8c-12.7-4.5-26-5.8-39.3-6.7c-12.1-0.8-24.2-1.1-36.2-1.6c-3.8-0.2-6.1-2.2-6.2-5.6c0-3.2,2.2-5.6,5.7-5.6
		c24.5-0.1,49,0.1,72.7,6.8c6.2,1.8,12.3,4.8,17.8,8.2c5.9,3.8,9,9.6,7.2,17.1c-1.1,4.7-4.5,7.7-8.3,10.2
		c-7.9,5.1-16.9,7.2-25.9,9.2c-1.6,0.4-3.2,0.7-5.2,1.1c0,2.9-0.1,5.9,0.1,8.8c0.1,0.7,1.2,1.7,2.1,2c16.3,5.4,24.9,16.4,24.1,33.5
		c-0.7,17.1,1.7,33.4,7.2,49.5c2.1,6.2,2.6,13.4,6,18.7c3.4,5.4,9.6,9,14.5,13.3c3.6,3.1,7.2,6.2,10.7,9.4c3,2.7,3.3,6.1,1.1,8.5
		c-2.3,2.5-5.3,2.6-8.3,0c-9-7.7-17.9-15.5-26.8-23.4c-1.3-1.1-2.1-3.1-2.6-4.8c-3.5-11.8-6.8-23.7-10.2-35.6
		c-0.6-2.2-0.7-5.1-4.1-4.8c-3.5,0.4-2.8,3.3-2.8,5.6c0,17.5-0.1,34.9,0.1,52.4c0,1.9,1.1,4.4,2.4,5.7c21.4,21,42.9,41.8,64.3,62.7
		c0.7,0.7,1.4,1.4,2.2,2.1c2.2,2,3.5,4.3,2.2,7.3c-1.2,2.8-3.7,3.5-6.5,3.5c-7.6,0-15.2,0-22.8,0c-4.2,0-8.4,0-12.9,0
		c0,11.9,0,23.4,0,35.3c2.8,0,5.4,0,8,0c13,0,25.9,0.1,38.9,0c20.2-0.3,35.6-16.4,34.5-36.3c-0.5-10-5-18.1-12.5-24.6
		c-9.9-8.6-19.8-17.2-29.6-25.8c-0.9-0.8-1.9-1.6-2.8-2.5c-2.6-2.6-2.8-5.6-0.7-8c2.1-2.4,5.3-2.7,8-0.4c5.7,4.8,11.3,9.8,17,14.7
		c5.2,4.5,10.3,9,15.5,13.5c15.2,13.2,20.3,32.8,13.4,51.2c-6.7,17.8-23.7,29.4-43.3,29.4c-15.3,0-30.7,0-46.6,0c0,1.5,0,2.8,0,4.1
		c0,19.1-0.1,38.2,0,57.3c0,3.5-0.6,6.4-3.7,8.4c-28.2,0-56.4,0-84.6,0c-2.5-1.9-4.6-4-3.3-7.5c1.3-3.4,4.2-3.8,7.3-3.8
		c22.8,0,45.6,0,68.5,0c1.4,0,2.9,0,4.2,0c0-35.5,0-70.3,0-105.3c-13.4-1.1-26.6-2.4-39.7-3.1c-8.2-0.4-14.8-2.9-18.7-10.8
		c-19.1,8.1-38.1,8.1-57.2,0c-3.2,6.3-8.1,9.9-15,10.5c-4.3,0.4-8.7,0.6-13.1,0.9c-10.2,0.8-20.3,1.6-30.7,2.3
		c0,35.2,0,70.2,0,105.4c1.6,0,3,0,4.3,0c22.9,0,45.9,0,68.8,0c3.2,0,6.1,0.5,7.2,3.9c1.1,3.4-0.8,5.7-3.6,7.3
		c-28.2,0-56.4,0-84.6,0c-2.8-1.9-3.7-4.6-3.7-8c0.1-19.2,0.1-38.4,0.1-57.6c0-1.3,0-2.6,0-4.1c-1.9,0-3.3,0-4.7,0
		c-14.2,0-28.4,0.2-42.6-0.1c-17.6-0.4-31.1-8.2-39.8-23.6c-2.7-4.9-4-10.6-5.9-16C915.5,503.4,915.5,499.4,915.5,495.4z
		 M1166.5,376.6c-2-0.1-2.7-0.2-3.5-0.2c-7.2-0.2-8.4-1.4-8.5-8.6c0-6,0-12,0-18c0-7.3-3.4-9.5-10-6.5c-10.6,4.9-21.3,9.7-31.8,14.8
		c-3.7,1.8-6.8,1.9-10.6,0.1c-10.8-5.2-21.6-10.1-32.5-15.1c-5.9-2.7-9.5-0.4-9.5,6.1c0,6.5,0,13,0,19.5c0,5.9-1.7,7.6-7.5,7.7
		c-1.2,0-2.4,0-3.7,0c0,15.7,0,30.8,0,45.9c0,2.6,0.2,5.2,0.6,7.8c3.6,28,27,49.6,55.1,50.9c28.1,1.3,54.5-17.4,59.2-45.2
		C1166.9,416.6,1165.7,396.7,1166.5,376.6z M1154.6,288.2c-1,0-1.6,0-2.2,0c-14.5,0.9-29.1,2-43.6,2.8c-1.7,0.1-4.1-0.4-5.1-1.6
		c-1.2-1.4-1.8-3.9-1.5-5.7c0.5-2.7,2.9-3.8,5.7-3.9c8.1-0.3,16.2-0.4,24.3-0.9c6.2-0.4,12.3-1.1,19.2-1.8c-5-7-11.1-9.8-18.7-9.7
		c-9.4,0.1-18.7,0.3-28.1,0.3c-22.4,0.1-40.3,9.6-54.7,26.3c-0.8,1-1.5,2.1-2.6,3.6c7,1.1,13.2,2.4,19.5,2.9
		c13.2,1,26.4,1.6,39.5,2.4c4,0.2,6.4,2.5,6.3,5.9c-0.1,3.3-2.4,5.4-6.4,5.3c-12.7-0.6-25.4-1-38.1-2.2c-9-0.8-17.9-2.6-27.2-4
		c-6.8,12.9-8.2,26.8-7.3,41.4c7,0.8,12,4.3,14.7,11c0.3-3.9,0.2-7.6,0.3-11.3c0-14.3,12.2-22.2,25.2-16.3c10,4.5,20,9,29.8,13.8
		c2.7,1.3,4.8,1.1,7.3-0.1c9.9-4.7,19.8-9.3,29.8-13.8c12.4-5.6,24.6,2.1,24.8,15.7c0.1,3.7,0,7.3,0,11c3.6-5.8,8.4-9.3,15.3-10
		c0-6.9,0.1-13.7,0-20.4c-0.1-12.2-7.6-20.4-19.7-21.8c-5.4-0.6-6.8-2.2-6.9-7.7C1154.6,295.8,1154.6,292.1,1154.6,288.2z
		 M1038.8,436.8c-17.8,17.3-35.5,34.5-53.9,52.4c2.3,0,3.5,0,4.7,0c24.4,0.8,48.5-2.1,72.8-3.6c0.9-0.1,1.9-0.1,2.5-0.6
		c1.2-1,2.6-2.1,3.1-3.4c0.2-0.6-1.2-2.2-2.2-2.9c-10.9-8.3-18.9-18.7-23.8-31.5C1040.9,443.9,1040,440.6,1038.8,436.8z
		 M1228.1,489.8c0.2-0.5,0.3-1,0.5-1.4c-17.5-17-35.1-34.1-53-51.5c-4.4,18.7-14.3,33-29.5,43.6c0.9,3.8,3.4,4.8,6.6,5.1
		c8.5,0.6,16.9,1.5,25.4,1.9C1194.8,488.4,1211.4,489.1,1228.1,489.8z M1055.7,271.8c-12.1,2.8-25.4,4.2-36.5,13.4
		c4.5,5.2,10.2,7.1,15.8,8.9c0.4,0.1,1.3-0.5,1.7-1C1043.2,285.9,1049.5,278.7,1055.7,271.8z"/>
	<path class="st0" d="M979.2,261.9c-2.8-2.5-4.7-5.1-2.6-8.6c2-3.3,5.1-3.1,8.3-1.5c1.1-3.3,1.9-6.7,6.2-6.5c4,0.2,4.8,3.4,5.7,6.4
		c3.1-1.2,6.2-2.1,8.3,1.4c2,3.4,0.7,6.2-2.3,8.6c2.2,2.6,4.9,5.1,2.3,8.8c-2.1,3-5,2.9-8.2,1.4c-1.1,3.2-1.8,6.8-6.2,6.6
		c-3.9-0.2-4.7-3.2-5.6-6.4c-3.1,1-6.5,1.8-8.4-1.8C974.7,266.9,976.3,264.1,979.2,261.9z"/>
	<path class="st0" d="M1211.8,296.7c-2.5-2.3-4.8-4.7-2.8-8.4c2-3.7,5.3-2.9,8.6-1.9c0.8-3.3,1.8-6.4,5.7-6.4
		c3.9-0.1,5.1,2.9,5.9,6.4c3.3-0.8,6.8-2,8.7,2c1.6,3.4,0.2,6-2.8,8.2c2.4,2.4,4.8,4.8,2.7,8.4c-2,3.3-5.1,3.1-8.5,1.9
		c-1.1,3.2-2,6.8-6.3,6.5c-3.6-0.2-4.7-3.2-5.4-6.4c-3.3,0.8-6.8,1.8-8.7-2.2C1207.2,301.2,1209.2,298.8,1211.8,296.7z"/>
	<path class="st0" d="M1107.3,430.8c2.6,0,5.2-0.2,7.8,0c8.7,1,15.2,8.3,15.2,17c0,8.7-6.5,16.2-15.2,17c-5.2,0.4-10.5,0.4-15.7,0
		c-8.7-0.8-15.2-8.3-15.2-17c0-8.7,6.5-16,15.2-17C1102.1,430.5,1104.7,430.8,1107.3,430.8z M1107.4,453.7
		C1107.4,453.7,1107.4,453.7,1107.4,453.7c2.1,0,4.2,0.2,6.3,0c3.3-0.4,5.6-2.9,5.4-6c-0.2-3.3-2-5.5-5.3-5.7c-4.3-0.3-8.7-0.3-13,0
		c-3.3,0.2-5.2,2.5-5.2,5.8c0,3.2,1.8,5.5,5.1,5.8C1102.9,453.9,1105.1,453.7,1107.4,453.7z"/>
	<path class="st0" d="M1089.5,391c-0.6,0.7-1.5,2.7-3,3.5c-4,2-8.2,3.6-12.4,5c-2.9,1-6-0.8-6.9-3.6c-1-3.1,0.3-5.5,3.1-6.7
		c4-1.8,8-3.4,12.2-4.7C1086.2,383.2,1089.6,386,1089.5,391z"/>
	<path class="st0" d="M1142.6,400.6c-5.7-2.4-10.8-4.2-15.5-6.9c-1.3-0.7-1.8-4.2-1.3-6.2c0.6-2.7,3.3-4,5.9-3.1
		c4.6,1.5,9.2,3.1,13.4,5.5c1.5,0.8,2.6,4.1,2.2,5.9C1146.9,397.5,1144.4,398.9,1142.6,400.6z"/>
</g>
<g>
	<path class="st0" d="M447.9,606c-3.9,5.1-7.8,10.1-11.5,15.2c-0.6,0.9-0.7,2.3-0.7,3.5c0,32.4,0,64.8,0,97.2
		c0,14.6-10.8,26.8-25.1,28.5c-14.7,1.8-28.2-7.6-31.5-22.1c-0.6-2.4-0.8-4.9-0.8-7.4c-0.1-14.7,0-29.4-0.1-44.1
		c0-1.7-0.4-3.6-1.3-5c-1.3-2.1-3.6-2.8-6.1-2c-2.7,0.8-4.1,2.8-4.1,5.6c0,5.6,0,11.3,0,16.9c0,9.7,0,19.4,0,29.1
		c-0.1,16.4-12.6,29.2-28.7,29.2c-16.1,0-28.7-12.7-28.7-29.1c-0.1-32.2,0-64.4,0-96.6c0-2.2-0.7-3.8-2.1-5.6
		c-3.4-4.3-6.5-8.9-9.9-13.6c-0.5,0.5-1.1,1.3-1.8,2c-9.3,10.1-25.4,11.4-35.3,2.8c-5.6-4.8-8-11.3-9-18.4c-0.6-4.4-1-8.9-0.9-13.4
		c0.5-15.5,0.7-31.1,2.1-46.5c3.2-35.6,19.5-64.5,46.3-87.7c8.2-7.1,17.5-11.1,28.7-9.8c3,0.3,6,0.2,9.1,0.4
		c4.6,0.3,7.3,3.3,7.1,7.7c-0.2,4.3-3.1,6.9-7.6,6.9c-5,0-10-0.3-15-0.1c-1.6,0-3.3,0.7-4.6,1.6c-28.6,19-45.3,45.6-49.5,79.5
		c-1.5,11.8-1,23.9-1.2,35.9c-0.1,8.3,0.1,16.7,0.4,25c0.1,2.3,0.9,4.7,1.9,6.8c2.1,4.2,6.8,5.1,10.1,1.8c3.2-3.2,6.3-6.7,9-10.4
		c1.1-1.5,1.2-3.9,1.2-5.9c-0.2-8.8-1-17.7-0.7-26.5c0.5-18.4,3.6-36.3,11.6-53c1.6-3.4,3.6-6.6,5.7-9.7c2.1-3.1,5.7-4,9.1-2.7
		c4.5,1.7,5.9,5.9,3.4,10.1c-13.9,23.2-18,48.5-13.8,74.6c5.7,35.3,33.6,57.2,69.4,57c43.7-0.2,71.9-34,69.7-75.8
		c-0.8-14.7-2.9-29.2-8.4-43c-1.7-4.2-4-8.3-6.3-12.2c-2.5-4.3-2.3-7.4,1.1-9.8c3.6-2.5,8.4-2,10.8,1.5c2.6,3.8,5,7.7,6.8,11.9
		c9.2,21.1,11.6,43.2,10.4,66c-0.4,6.5-0.1,13.1,0.4,19.6c0.3,4.2,2.6,7.7,7,9.1c7.5,2.4,13.5-1.4,14.1-9.4
		c0.6-8.7,0.9-17.5,0.7-26.2c-0.3-13-0.2-26.1-2.1-38.9c-4.3-29.4-18.8-53.3-42.6-71.3c-5.8-4.4-12.2-7.4-19.9-6
		c-2.2,0.4-4.6,0.4-6.9,0.3c-4.2-0.1-7-3-7.1-7.2c-0.1-4,2.4-7.2,6.5-7.4c6.4-0.3,12.9-0.6,19.4-0.2c7.6,0.5,13.8,4.6,19.4,9.3
		c16.6,14.3,29.6,31.3,37.8,51.7c6.2,15.4,8.9,31.6,9.6,48.2c0.6,13.7,0.8,27.5,0.8,41.2c0,4.3-0.8,8.7-2.1,12.9
		c-5.8,19-28.9,24.1-42.5,9.6C449.1,607.3,448.5,606.6,447.9,606z M324.2,634.6c-0.1,1.2-0.1,2.3-0.1,3.4c0,10.4,0,20.8,0,31.2
		c0,17.4-0.1,34.8,0,52.2c0,10.1,8.9,16.9,18.2,14.1c6.1-1.8,10-7.2,10-14.2c0.1-15,0.1-30,0-45c0-6.6,2.2-12.3,7.4-16.5
		c6.6-5.3,14-6.4,21.6-2.8c7.8,3.7,11.7,10.2,11.8,18.8c0.1,15.2,0.1,30.4,0,45.6c0,3.9,1.1,7.4,3.8,10.3c3.9,4.2,9.9,5.6,15.2,3.6
		c5.7-2.2,9.2-7.3,9.2-13.9c0-28.2,0-56.4,0-84.7c0-0.7-0.1-1.3-0.1-2.1C388.7,653.2,356.6,653.3,324.2,634.6z"/>
	<path class="st0" d="M335.1,404.8c0.4-11.9,3.9-22.8,11.8-32c14.7-17.2,39.2-16.6,52.5,1.5c14.3,19.4,14.2,42.6-0.2,61.8
		c-13.9,18.6-39.5,18.2-53.8-0.4C338.5,426.7,335.3,416.3,335.1,404.8z M372.5,435.2c6.1,0,11.5-2.4,15.3-7.6
		c10-13.4,10.2-30.9,0.3-44.5c-7.9-10.7-22.1-10.8-30.6-0.6c-10.2,12.2-10.4,32.6-0.3,44.9C361.2,432.2,366.1,435.2,372.5,435.2z"/>
</g>
<g>
	<path class="st0" d="M1678.2,171.2c6.5,0.7,13.1,1.3,19.6,2.3c33.1,4.6,64.4,14.4,91.8,34.4c33.2,24.3,50.3,57.1,51.2,98.3
		c0.3,15.8-0.2,31.7-3.4,47.3c-4.2,20.8-14.6,38.3-28.8,53.7c-6.5,7.1-13.3,13.8-20.4,20.3c-4.6,4.2-6.6,9.2-6.8,15.2
		c-0.5,14.8,3.6,28.8,7.9,42.8c1.3,4.3,3,8.5,4.4,12.7c3.8,11.7-2.1,23.1-13.8,26.7c-6,1.8-12,3.3-18.1,4.7
		c-3.7,0.9-6.6-0.7-7.4-3.8c-0.9-3.4,0.9-6.1,4.8-7.2c5.2-1.4,10.4-2.6,15.6-4c7.9-2.1,10.5-6.9,7.7-14.6
		c-5.2-14.7-10.1-29.5-11.8-45.1c-0.6-5.2-0.6-10.5-0.2-15.7c0.6-7.8,4-14.3,9.9-19.9c8.3-7.7,16.3-15.9,23.8-24.3
		c13.7-15.4,21.8-33.5,23.9-54.2c1.8-18.3,2.9-36.6-0.6-54.8c-6.3-33.6-25.5-58.2-54.2-75.7c-23.3-14.3-49-22-75.9-25.7
		c-24.3-3.4-48.5-3.4-72.5,2.2c-16.9,3.9-32.8,10.3-47.1,20.2c-2.3,1.6-5,2.6-7.2,0.6c-1.4-1.3-2.4-3.9-2.2-5.7
		c0.2-1.6,2.1-3.3,3.6-4.4c17.8-12.3,37.7-19.6,58.9-23.4c7.2-1.3,14.5-2,21.8-3C1661.3,171.2,1669.8,171.2,1678.2,171.2z"/>
	<path class="st0" d="M1699.8,408.4c1.4,7.2,2.8,14.4,4.1,21.6c1.6,8.9-5.3,15.6-14,13.4c-5.9-1.5-11.8-3.2-17.7-4.8
		c-7-1.9-11.4-6.4-13.4-13.3c-4.1-14.2-8.3-28.5-12.4-42.7c-1.4-4.7-4.1-7-8.8-7.5c-13.7-1.5-23.3-8.6-28.9-21.2
		c-0.3-0.7-0.6-1.3-1-2.2c-10.6,4.6-21.2,5.4-32.1,1.4c-1.3-0.5-2.6-1-3.8-1.6c-3.4-1.8-4.6-4.7-3.3-7.7c1.3-2.9,4.5-4.1,7.9-2.5
		c7.1,3.3,14.3,4.2,21.8,1.9c2.6-0.8,5-2.1,8-3.4c-1.4-1.2-2.4-1.9-3.3-2.7c-12.1-10.1-11-29.4,2.3-37.9c3.9-2.5,7.2-2.2,9.2,0.8
		c1.9,2.9,0.9,5.8-2.8,8.4c-8.5,5.9-7.8,17.3,1.5,21.8c3.4,1.7,5,3.9,4.4,7.6c-2.1,15.5,11.1,27.7,25.3,26.1
		c1.9-0.2,4.6,1.3,5.9,2.9c6.9,8.6,15.4,10.1,24.6,3.9c2.8-1.8,5.2-1.8,7.9,0.1c14.6,10,30.4,6.5,39.2-8.6c2.1-3.5,5.1-4.7,8-3.1
		c3,1.6,3.7,4.8,1.8,8.4c-1,1.9-2.1,3.6-3.4,5.8c6.7,6.3,14.6,9.7,23.7,10.2c30.2,1.8,50.8-28.5,38.2-56c-2.4-5.2-2-6.5,2.5-10.1
		c9.6-7.9,14-18.1,11.9-30.5c-2.1-12.6-9.4-21.2-21.6-25.3c-3.9-1.3-5.7-3.5-6.6-7.5c-4.8-21.9-29.3-32.1-48.5-20.4
		c-5.3,3.3-7.8,2.6-10.8-2.9c-12.5-22.7-41.8-27.6-61-10.2c-4,3.6-5.3,3.8-9.9,1.1c-15.7-9.1-35-2.3-41.3,14.6
		c-1.4,3.8-3.5,5.4-7.6,5.9c-21.3,2.6-35.1,24.4-28.2,44.8c1.3,3.9,1,6.9-1.6,10.3c-6,7.7-7.3,16.5-4.8,25.8
		c0.7,2.8,0.9,5.2-1.4,7.2c-3.3,2.9-7.8,1.2-9.2-3.5c-3.4-11.6-2.1-22.7,4.2-33.1c1.4-2.4,1.7-4.3,1-6.9c-5.9-25,9.5-49.4,34.6-55.3
		c1.4-0.3,3.1-1.6,3.8-2.8c10.1-19.5,31.5-27.5,51.8-19.1c1.2,0.5,3.2,0.4,4.2-0.3c24.8-17.5,54.2-12.9,72.3,11.3
		c0.3,0.4,0.6,0.7,0.8,1c4.6-1.2,8.9-2.9,13.4-3.6c21.7-3.4,41.5,9.1,48.3,30.1c0.5,1.5,2,3.2,3.4,3.8
		c28.3,12.4,35.3,48.7,13.5,70.7c-1.7,1.7-1.9,3-1.2,5.1c8.9,25.4-3.6,53-28.6,63.2c-2.1,0.9-3,2-3.6,4.1
		c-3.6,13.2-12.2,22-25.4,25.4c-13.2,3.5-24.8-0.2-34.7-9.6c-2.1-2-5.5-2.7-8.2-4C1700.4,407.6,1700.1,408,1699.8,408.4z
		 M1659.5,387c0-0.4-0.1,0,0,0.3c3.4,11.8,6.7,23.7,10.4,35.5c0.6,1.8,2.3,3.9,4,4.5c6.1,2.1,12.3,3.5,18.5,5.2
		c0.2-0.7,0.3-0.9,0.2-1.1c-2.8-14.8-5.7-29.6-8.6-44.4c-0.4-2.2-6-5-8.1-4.4C1670.7,384.1,1665.3,385.4,1659.5,387z M1756.9,395
		c-14.7,0.7-27.4-4-37.2-12.7c-8.4,2.5-15.8,4.6-23.6,6.9c-0.5,3.4,1.4,6.1,5.4,7.2c2,0.6,4.1,1.1,6.2,1c3.3-0.1,5.6,1.1,7.6,3.8
		c5.4,7.1,12.7,10.2,21.6,9.6C1745.9,410.1,1755.1,403.1,1756.9,395z"/>
	<path class="st0" d="M1519.7,454.6c-4.2-2.8-10.2-2.4-11.6-8.7c-1.1-5.1-0.1-9.6,2.7-14c-1.9-1.7-3.8-3.3-5.6-5
		c-5.7-5.6-5.2-13.1,1.1-18c2.7-2.1,5.1-4.7,8.2-7.6c-2.3-1.1-3.9-1.7-5.3-2.4c-3.3-1.6-7-2.9-9.9-5.1c-9.1-6.7-10.5-18.8-3.1-27.3
		c3-3.5,6.8-6.2,10.3-9.2c6.8-5.6,12.7-11.9,17.3-19.5c1.4-2.4,1.6-4.6,0.2-7c-1.9-3.1-3.7-6.2-5.5-9.3c-3.5-6.2-4.2-12.5-0.6-18.9
		c5.2-9.2,5.7-19.4,7.1-29.6c2.8-20.9,11.1-39.5,24.9-55.5c2.5-3,5.6-3.4,8.2-1.4c2.6,2,3,5.4,0.5,8.3c-14.7,17.1-22.1,37-23.6,59.4
		c-0.5,8.1-3,15.6-6.7,22.8c-1.9,3.6-1.7,6.8,0.5,10.2c1.8,2.8,3.5,5.7,5.2,8.7c3.4,6.1,3.2,12-0.4,18c-5.8,9.7-13.5,17.6-22.3,24.5
		c-2.1,1.6-4.1,3.2-5.9,5.1c-3.7,4-3.2,9.3,1.4,12.2c2.6,1.6,5.6,2.7,8.5,3.8c10.5,4.1,13,12.4,6,21.3c-2.3,2.9-5,5.6-7.2,8
		c2.2,2.4,4.8,5.3,7.5,8.2c4.1,4.3,4,6.8-0.3,11c-1,1-1.7,2.3-2.9,3.8c2.3,1.1,4.2,1.9,6,2.9c6.8,3.7,8.6,9.8,5,16.7
		c-5.5,10.3-2.1,21.5,8.2,27c9.3,5,19.2,4.7,29.2,3.4c8.4-1.1,16.8-2.3,25.2-3.4c20.4-2.7,36.2,5.3,47.5,21.9
		c5.3,7.8,9.3,16.4,13.4,24.9c3.8,7.9,6.8,9.7,15.3,7.5c21.2-5.5,42.4-10.9,63.7-16.4c4.3-1.1,7.2,0.2,8.1,3.6
		c0.9,3.4-0.9,6.1-5.2,7.2c-21.9,5.7-43.9,11.4-65.8,17c-11.5,2.9-20.7-2.3-25.8-13c-4.2-9-8.6-18-14.3-26.1
		c-8.9-12.9-21.7-17.6-37.3-15.2c-10.6,1.6-21.2,2.8-31.9,4c-9.7,1-18.9-0.9-27.5-5.4c-15.4-8.2-21-25.5-13.3-41.2
		C1519.1,456,1519.3,455.5,1519.7,454.6z"/>
	<path class="st0" d="M1628.7,291.8c0-31.6,24-58.2,55.2-61.3c1.2-0.1,2.5-0.2,3.7-0.2c3.2,0.1,5.2,1.6,5.6,4.8
		c0.4,3.1-1.4,5.6-4.6,6.2c-2.3,0.4-4.7,0.5-7,0.9c-30.6,5.3-49.2,36.9-39,66.2c0.2,0.7,0.5,1.4,0.8,2.1c1.5,4.2,0.6,7.2-2.7,8.5
		c-3.3,1.4-6.6-0.2-7.8-4.7c-2.1-7.4-3.6-14.9-5.3-22.4C1628,291.9,1628.4,291.8,1628.7,291.8z"/>
	<path class="st0" d="M1650.7,291.9c0.5-19.8,15-36.4,34.5-39c1.1-0.1,2.2-0.2,3.4-0.2c3.3,0,5.6,2,5.9,5c0.3,2.9-1.7,5.4-4.9,6.1
		c-2.8,0.6-5.7,0.8-8.4,1.7c-14.4,5-22.1,20.4-17.4,35c1.8,5.6,1,8.6-2.4,9.8c-3.8,1.3-6.7-0.7-8.2-6.4
		C1652,300,1651.5,296,1650.7,291.9z"/>
	<path class="st0" d="M1730.3,291.6c-0.5,19.7-15.4,36.8-34.5,39.1c-4.6,0.6-7.2-0.9-7.8-4.3c-0.6-3.6,1.5-6,6.1-6.8
		c14-2.6,22.7-11.4,24.1-25.1c0.4-4.2-0.7-8.6-1.7-12.8c-1-4.3-0.4-7.3,2.8-8.5c3.4-1.3,6.5,0.3,7.8,4.7
		C1728.4,282.4,1729.2,287,1730.3,291.6z"/>
	<path class="st0" d="M1690.7,308.5c-9.4,0.1-16.9-7.3-17-16.7c-0.1-9.4,7.4-16.9,16.8-16.9c9.1,0,16.7,7.4,16.9,16.5
		C1707.6,300.7,1700.1,308.4,1690.7,308.5z M1696.1,291.8c0-2.9-2.4-5.5-5.3-5.6c-3.2-0.1-5.8,2.3-5.8,5.4c0,3,2.3,5.4,5.3,5.6
		C1693.4,297.3,1696.1,294.8,1696.1,291.8z"/>
	<path class="st0" d="M1698.5,353.1c-5.8,0.3-8.2-1.3-8.6-4.6c-0.4-3.3,1.5-5.9,5.4-6.3c16.2-1.9,28.8-9.7,37.8-23.3
		c2-2.9,5.2-3.5,7.8-1.8c2.7,1.8,3.4,5.1,1.3,8.2C1731.5,341.7,1716.2,350.9,1698.5,353.1z"/>
	<path class="st0" d="M1742,292.9c-1.7-6.8-3.2-13.7-5.1-20.5c-1.1-4.1-0.2-7.4,3.1-8.3c3.2-0.9,5.7,0.2,7,3.3
		c3.9,9.1,5.7,18.6,5,28.4c-0.3,4.7-2.6,7-6.3,6.6c-3.5-0.4-5.1-2.8-4.9-7.5c0-0.6,0.1-1.2,0.1-1.9
		C1741.3,293,1741.7,293,1742,292.9z"/>
</g>
</svg>
