<svg width="150" height="150" viewBox="0 0 150 150" fill="none" xmlns="http://www.w3.org/2000/svg">
<path d="M124.1 137.2C131.3 137.2 138.4 137.2 145.5 137.2C146 137.2 146.5 137.2 147 137.2C148.3 137.4 149 138.2 149.1 139.5C149.2 140.7 148.2 141.8 146.9 141.9C146.5 142 146 141.9 145.6 141.9C98.5 141.9 51.4 141.9 4.40002 141.9C4.00002 141.9 3.60002 141.9 3.20002 141.9C1.90002 141.8 0.900024 140.8 0.900024 139.6C0.900024 138.3 1.80002 137.3 3.20002 137.2C3.60002 137.2 4.00002 137.2 4.40002 137.2C9.10002 137.2 13.8 137.2 18.4 137.2C18.9 137.2 19.3 137.2 20.2 137.2C17.6 134.4 16.2 131.4 15.7 128C15.6 127.5 15.5 127 15.5 126.5C15.5 125.7 15.2 125.3 14.4 125C13.3 124.7 12.8 123.8 12.9 122.7C13.1 111.8 14.7 101.2 19.3 91.1999C20.7 88.0999 22.6 85.2999 25.3 83.0999C26.8 81.8999 28.2 81.8999 29.1 83.0999C30 84.2999 29.6 85.4999 28.3 86.7999C26.8 88.3999 25.3 89.9999 24.3 91.8999C19.7 100.7 18.3 110.4 17.7 120.3C20.9 120.3 24 120.3 27.5 120.3C27.5 117.4 27.4 114.5 27.5 111.6C27.9 97.3999 30 83.5999 33.8 69.8999C34 69.0999 34.3 68.3999 34.5 67.5999C36.5 62.4999 40.1 60.0999 44.9 60.5999C50.2 61.0999 54.6 64.8999 55.6 69.7999C56.4 73.6999 55.8 77.2999 52.7 80.1999C51.3 81.4999 51.1 83.0999 51.1 84.7999C51.1 97.2999 51.1 109.7 51.1 122.2C51.1 125.8 50.7 129.3 49.3 132.6C48.6 134.1 47.7 135.5 46.8 137C49.8 137 52.8 137 55.9 137C56.1 136 56.2 134.8 56.5 133.7C57.4 129.2 60 126.2 64.3 124.7C68.8 123.1 73.6 123 78.3 122.8C81.8 122.7 85.4 122.7 88.9 122.7C90.7 122.7 91.7 123.6 91.7 125.1C91.7 126.5 90.6 127.4 88.9 127.5C82.9 127.7 77 127.8 71 128.1C69.6 128.2 68.2 128.5 66.9 128.9C62.9 130 61.2 132.3 60.9 137.1C61.4 137.1 62 137.1 62.5 137.1C80 137.1 97.6 137.1 115.1 137.1C118.9 137.1 120.1 136 120.4 132.2C120.6 130.3 120.4 128.3 120.4 126.1C116 127.9 111.8 128.5 107.6 128.3C104.7 128.2 101.8 127.8 98.8 127.5C97.6 127.4 96.8 126.6 96.5 125.4C95.7 122.4 95 119.3 94.2 116.3C93.8 114.8 94.6 113.5 96 113.2C97.3 112.9 98.5 113.7 98.9 115.2C99.5 117.4 100 119.6 100.6 121.9C100.8 122.7 101 123 101.9 123.1C106.5 123.6 111.1 124 115.7 122.7C117.1 122.3 118.3 121.6 119.5 120.8C119.8 120.6 120.1 119.7 119.9 119.3C116.9 111 113.9 102.8 110.9 94.4999C109.3 90.0999 106.3 87.3999 101.9 85.9999C97.6 84.5999 93.3 83.3999 89 82.0999C87.7 81.6999 86.8 80.9999 86.8 79.5999C86.8 78.0999 88.2 76.8999 89.6 77.2999C95.2 78.9999 100.7 80.5999 106.2 82.6999C109.9 84.0999 112.5 86.8999 114.2 90.5999C118.5 99.9999 121.7 109.8 124.9 119.6C125.1 120.1 125.1 120.9 124.8 121.3C124.1 122.5 124.2 123.7 124.5 125C125.5 130.2 125.4 131.9 124.1 137.2ZM20.1 125.2C20.6 130.3 22.4 134.2 27.4 136.1C30.3 137.2 33.2 137.4 36.2 137.1C41 136.6 44.2 133.9 45.4 129.2C46 127.1 46.2 124.8 46.2 122.6C46.3 110.2 46.3 97.6999 46.2 85.2999C46.2 81.9999 47 78.9999 49.5 76.6999C50.9 75.3999 51.1 73.7999 50.9 71.9999C50.6 68.5999 48.1 66.0999 44.5 65.5999C41.7 65.1999 39.8 66.6999 38.6 70.1999C38.6 70.2999 38.5 70.4999 38.4 70.5999C37.1 76.1999 35.5 81.6999 34.5 87.2999C32.5 98.7999 31.8 110.5 31.8 122.2C31.8 124.5 31 125.3 28.6 125.3C25.9 125.2 23.1 125.2 20.1 125.2Z" fill="#005BAB"/>
<path d="M141.9 15.2C142.8 15.2 143.6 15.2 144.4 15.2C147 15.3 149 17.3 149.1 19.9C149.2 23.1 149.2 26.4 149.1 29.6C149.1 32.3 147 34.2 144.3 34.3C143.6 34.3 142.8 34.3 141.9 34.3C141.9 35 141.9 35.6 141.9 36.2C141.9 39.6 140 41.5 136.6 41.5C124.9 41.5 113.3 41.5 101.6 41.5C99.2 41.5 96.7 41.5 94.3 41.5C91.2 41.5 89.3 39.5 89.3 36.4C89.3 28.6 89.3 20.9 89.3 13.1C89.3 10 91.3 8 94.5 8C108.5 8 122.6 8 136.6 8C140 8 141.9 9.9 141.9 13.3C141.9 13.9 141.9 14.5 141.9 15.2ZM94.2 36.6C108.6 36.6 122.8 36.6 137.2 36.6C137.2 34.5 137 32.5 138.6 30.9C140.2 29.3 142.3 29.6 144.3 29.5C144.3 26.2 144.3 23.2 144.3 20C142.3 19.9 140.3 20.2 138.6 18.6C136.9 17 137.2 14.9 137.1 12.9C122.7 12.9 108.5 12.9 94.2 12.9C94.2 20.8 94.2 28.7 94.2 36.6Z" fill="#005BAB"/>
<path d="M80.4 61.7C82.9 55.7 82.9 50.2 79.2 44.9C79 45 78.8 45 78.6 45.1C76 46.6 73.3 46.7 70.4 45.7C64.5 43.5 58.5 43.3 52.6 45.8C48.8 47.4 45.6 49.6 43.2 52.9C42.4 53.9 41.9 55.1 41.4 56.3C40.8 57.8 39.7 58.6 38.3 58.2C36.9 57.8 36.3 56.5 36.8 55C37.8 51.9 39.8 49.4 42.1 47.2C50.1 39.4 59.6 37.7 70.1 40.7C70.6 40.8 71.2 41 71.7 41.2C73.6 42.1 75.3 41.7 77 40.6C79.8 38.8 81 39 82.8 41.8C86.5 47.6 87.8 53.9 85.7 60.6C85.5 61.2 85.4 61.8 85.1 62.3C84.4 63.8 84.4 64.9 85.4 66.4C87.7 70.2 86.6 73.9 84.2 77.3C83.4 78.4 83 79.5 82.8 80.8C82 85.3 80.3 89.4 77.5 93C72.1 99.9 60.9 101.2 54.1 95.8C53 94.9 52.7 93.6 53.5 92.5C54.2 91.4 55.6 91.1 56.8 91.9C59 93.3 61.3 94 63.8 94.2C68.5 94.6 72.1 92.8 74.7 88.8C76.8 85.6 77.8 82 78.3 78.3C78.5 77.1 78.9 76.1 79.7 75.1C80.5 74.2 81.2 73 81.5 71.8C82.2 69.3 81.4 68.2 79 67.3C78.3 67 77.7 66.4 77.2 65.9C76 64.7 74.9 63.3 73.5 62.2C71.5 60.5 69.1 60.3 66.8 61.7C62.7 64.3 57.9 64 53 63C51.6 62.7 50.9 61.5 51.1 60.2C51.4 58.8 52.4 58.1 53.8 58.3C54.7 58.4 55.6 58.6 56.5 58.7C59.2 59 61.9 59 64.3 57.6C69.5 54.5 74.2 55.8 78.1 59.4C78.9 60 79.5 60.8 80.4 61.7Z" fill="#005BAB"/>
<path d="M98.9 24.7999C98.9 23.2999 98.9 21.7 98.9 20.2C98.9 18.7 99.9 17.7 101.3 17.7C102.7 17.7 103.7 18.7 103.7 20.2C103.7 23.3 103.7 26.4 103.7 29.5C103.7 31 102.7 32 101.3 32C99.9 32 99 31 98.9 29.5C98.9 27.9 98.9 26.2999 98.9 24.7999Z" fill="#005BAB"/>
</svg>
