<svg width="150" height="150" viewBox="0 0 150 150" fill="none" xmlns="http://www.w3.org/2000/svg">
<path d="M69.0001 6.00002C68.1001 3.50002 68.6001 2.30002 71.1001 1.50002C72.5001 1.00002 74.1001 0.600019 75.6001 0.600019C93.5001 0.100019 109.3 5.40002 122.3 18C128.5 24 132.3 31.4 134.4 39.7C135.8 45.3 137.3 51 137.7 56.8C138.4 67.1 136.4 76.9 132.6 86.4C129.7 93.6 125.8 100.3 121.9 107C120.3 109.7 117.9 111.5 114.9 112.4C113.7 112.7 113.4 113.4 113.3 114.5C112.6 121 112.8 127.5 113.7 133.9C114.3 138.5 115.3 143 116.1 147.6C116.2 148.4 116.5 149.2 115.4 149.4C114.4 149.6 114.2 148.9 114 148.1C111.4 136.7 109.9 125.3 111.2 113.6C111.2 113.5 111.2 113.3 111.2 113.2C102.9 112.4 97.1001 107.4 92.1001 101.6C89.3001 98.4 87.2001 94.6 84.8001 91.1C84.5001 90.7 84.3001 90.3 84.0001 89.7C83.4001 90.5 82.9001 91.2 82.3001 91.9C80.3001 94.3 77.9001 95.9 74.8001 96.4C74.2001 96.5 73.5001 96.6 72.9001 96.4C72.5001 96.3 72.0001 95.7 72.0001 95.4C72.0001 95.1 72.6001 94.4 73.0001 94.4C77.5001 94.3 80.3001 91.7 82.3001 88.2C84.8001 83.9 86.0001 79.2 86.0001 74.2C86.0001 69.3 83.0001 67.5 78.7001 69.8C77.4001 70.5 76.3001 71.8 75.2001 72.8C75.0001 73 74.8001 73.4 74.6001 73.5C71.6001 74 68.7001 75 65.7001 74.4C63.0001 73.8 61.8001 72.6 61.6001 69.8C61.3001 64.6 60.0001 59.6 58.3001 54.7C56.6001 49.7 55.7001 44.5 57.0001 39.3C58.7001 32.1 63.1001 27 69.6001 23.6C71.9001 22.4 74.2001 21.2 76.3001 19.8C77.5001 19 78.5001 17.8 79.4001 16.7C80.4001 15.4 80.3001 14 79.3001 12.7C77.6001 10.4 75.1001 8.90002 72.5001 8.10002C71.1001 7.70002 69.4001 8.20002 67.8001 8.40002C55.9001 10 45.4001 14.6 37.0001 23.3C28.2001 32.4 25.0001 43.4 26.0001 55.8C26.1001 57 26.2001 58.1 26.4001 59.3C26.8001 61.6 26.4001 63.8 25.1001 65.8C23.1001 68.9 21.0001 72 19.0001 75.1C17.7001 77.1 16.3001 79.2 15.2001 81.3C13.9001 83.8 14.3001 85.3 16.9001 86.4C21.1001 88.1 22.7001 91.3 23.2001 95.4C23.6001 99.7 23.9001 103.9 24.3001 108.2C24.4001 109.7 24.5001 111.3 24.8001 112.8C26.0001 119.1 29.9001 122.6 36.3001 123.3C39.5001 123.7 42.8001 123.9 45.9001 124.7C52.5001 126.4 56.0001 130.8 56.2001 137.6C56.3001 141.1 55.7001 144.7 55.4001 148.2C55.3001 148.9 55.1001 149.7 54.1001 149.6C53.0001 149.4 53.3001 148.5 53.3001 147.8C53.6001 144.4 54.2001 141.1 54.1001 137.7C53.9001 131.7 50.8001 128 44.9001 126.6C42.1001 126 39.3001 125.8 36.5001 125.5C28.8001 124.8 24.0001 120.5 22.7001 112.9C22.4001 111 22.4001 109 22.2001 107C21.8001 102.7 21.4001 98.5 20.9001 94.2C20.6001 91.6 19.3001 89.7 16.7001 88.7C16.2001 88.5 15.7001 88.2 15.2001 87.8C12.7001 86.2 11.9001 84.1 13.0001 81.4C13.8001 79.5 14.8001 77.8 15.9001 76.1C18.1001 72.7 20.4001 69.4 22.7001 66C24.3001 63.7 24.7001 61.2 24.3001 58.3C22.4001 43.2 26.3001 30.1 37.8001 19.6C45.4001 12.7 54.3001 8.60002 64.4001 6.80002C65.7001 6.50002 67.4001 6.20002 69.0001 6.00002ZM70.4001 4.30002C71.5001 5.00002 72.5001 5.60002 73.4001 6.10002C76.0001 7.40002 78.6001 8.70002 80.5001 11C82.3001 13.2 82.5001 15.8 80.9001 18.1C80.2001 19.1 79.3001 20.2 78.3001 20.8C75.8001 22.5 73.2001 24 70.5001 25.4C64.6001 28.5 60.5001 32.9 58.9001 39.4C57.8001 44 58.3001 48.5 59.7001 52.9C61.6001 58.5 63.2001 64.2 63.4001 70.1C63.4001 71.3 64.2001 72 65.3001 72.3C67.7001 72.9 70.0001 72.5 72.2001 71.8C72.8001 71.6 73.3001 71.3 73.7001 70.8C75.5001 68.7 77.8001 67.4 80.5001 67C84.0001 66.4 86.8001 68.2 87.5001 71.7C87.7001 72.6 87.8001 73.5 87.8001 74.4C87.8001 78.5 86.9001 82.4 85.4001 86.1C85.1001 87 85.0001 87.7 85.5001 88.5C88.0001 92.3 90.3001 96.2 93.1001 99.8C96.5001 104.2 100.8 107.6 105.9 109.9C111.1 112.2 117.1 110.5 120 105.6C123.2 100 126.4 94.3 129.2 88.4C135.7 74.4 137.5 59.8 133.5 44.7C132.1 39.4 130.8 34.1 128.1 29.3C122.9 19.9 115.2 13.3 105.6 8.80002C96.3001 4.40002 86.5001 2.10002 76.0001 2.70002C74.2001 2.80002 72.3001 2.90002 70.4001 4.30002Z" fill="#005BAB"/>
<path d="M62.3001 19.8C62.9001 20.7 63.4001 21.3 63.5001 21.9C63.6001 22.2 62.9001 22.6 62.6001 22.9C62.2001 22.4 61.6001 22 61.3001 21.4C61.2001 21.1 61.8001 20.6 62.3001 19.8Z" fill="#005BAB"/>
<path d="M69.9 17.1C70.2 17.6 70.7 18.2 70.9 18.8C71 19.1 70.3 19.5 70 19.8C69.6 19.3 69 18.9 68.7 18.3C68.6 18.1 69.2 17.5 69.4 17.1C69.5 17.2 69.7 17.2 69.9 17.1Z" fill="#005BAB"/>
<path d="M77.2001 14.1C76.4001 14.6 75.9001 15.2 75.7001 15C75.2001 14.7 74.7001 14.1 74.4001 13.6C74.3001 13.5 75.2001 12.6 75.3001 12.7C75.9001 13 76.4001 13.5 77.2001 14.1Z" fill="#005BAB"/>
<path d="M63.2001 16.4C62.7001 15.4 62.2001 14.9 62.1001 14.3C62.1001 14 62.7001 13.6 63.1001 13.3C63.5001 13.8 64.1001 14.3 64.3001 14.9C64.4001 15.1 63.8001 15.6 63.2001 16.4Z" fill="#005BAB"/>
<path d="M70.4 11.8C69.7 12.3 69.1 12.9 69 12.8C68.5 12.4 68 11.9 67.7 11.3C67.6 11.1 68.5 10.3 68.6 10.3C69.2 10.6 69.7 11.1 70.4 11.8Z" fill="#005BAB"/>
<path d="M56.4001 16C56.1001 15.4 55.6001 14.9 55.6001 14.3C55.6001 14 56.2001 13.6 56.6001 13.3C57.0001 13.8 57.5001 14.3 57.8001 14.9C57.9001 15.2 57.3001 15.7 57.0001 16C56.7001 16 56.6001 16 56.4001 16Z" fill="#005BAB"/>
</svg>
