<?xml version="1.0" encoding="utf-8"?>
<!-- Generator: Adobe Illustrator 24.3.0, SVG Export Plug-In . SVG Version: 6.00 Build 0)  -->
<svg version="1.1" id="Layer_1" xmlns="http://www.w3.org/2000/svg" xmlns:xlink="http://www.w3.org/1999/xlink" x="0px" y="0px"
	 viewBox="0 0 150 150" style="enable-background:new 0 0 150 150;" xml:space="preserve">
<style type="text/css">
	.st0{fill:#5F6368;}
	.st1{fill:#005BAB;}
</style>
<path class="st0" d="M2053.7-657.2c-2.1,0-3.6,0-5.1,0C2049.8-661.3,2051.5-660.2,2053.7-657.2z"/>
<g>
	<path class="st1" d="M117.3,67.6c-1.2-4.1-1.8-8.1-3.6-11.6c-2.9-5.8-1.1-10.5,2.6-15c1.3-1.6,3.1-2.8,4.7-4.1
		c1.7-1.2,2-2.1,0.9-3.8c-1.3-2-2.6-4.1-4.1-5.9c-2.9-3.4-3.3-7.2-2.2-11.4c0.9-3.4,1.7-7,1.1-10.6c-0.1-0.8-0.3-1.5-0.5-2.3
		c-0.2-1.1,0.1-2,1.3-2.3c1.1-0.3,1.8,0.3,2.2,1.4c1.1,3.8,0.9,7.5,0.1,11.3c-0.4,1.8-0.8,3.6-1.1,5.4c-0.3,1.8,0,3.5,1.1,5
		c1.8,2.5,3.6,5,5.2,7.6c2,3.3,1.2,6.3-2.1,8.4c-3,1.8-5.1,4.3-6.5,7.5c-0.9,2.1-0.7,4.1,0.2,6.2c2.5,5.8,4.3,11.9,4,18.3
		c-0.3,6.2-1.3,12.3-3.4,18.1c-2,5.7-2.3,11.3-0.5,17.1c0.5,1.4,0.8,2.8,1,4.3c0.5,3.2-0.7,5.6-3.4,7.3c-2.1,1.2-4.3,1.8-6.7,1.7
		c-6.5-0.1-12.6-1.9-18.7-3.9c-9.4-3.1-18.8-6.2-28.2-9.3c-2.8-0.9-5.8-1.5-8.5-2.6c-6.5-2.7-10.4-7.9-12.8-14.3
		c-2.9-7.8-5.6-15.6-8.5-23.4c-1.5-3.8-3.4-7.3-5.2-11c-1.6-3.3-2.6-6.7-2.2-10.5c0.4-3.6,2.4-6,5.8-7c3.6-1,7.1-0.1,9.2,2.8
		c1.2,1.7,1.9,3.8,2.7,5.8c0.6,1.4,0.9,2.9,1.4,4.3c0.4,1.2,1.3,1.4,2.2,0.7c1-0.8,1.9-1.8,2.6-2.9c1.2-2,2.2-4.2,3.4-6.3
		c0.5-1,1.2-1.9,1.9-2.8c2.9-3.4,6.9-4.3,11-2.3c2.5,1.2,3.5,3.5,3.4,6c-0.1,3.9-0.6,7.8-1,11.7c-0.1,1.2-0.3,2.4-0.5,3.6
		c-0.2,0.9,0.1,1.4,1.1,1.6c4.4,0.9,8.8,2.2,13.3,2.8c12,1.5,24.1,2.8,36.1,4.1C116.2,67.6,116.4,67.6,117.3,67.6z M113.1,90.3
		c-1-0.1-2.1-0.2-3.1-0.5c-7.4-1.6-14.8-3.3-22.2-5c-4.5-1-9-1.8-13.4-3.1c-7.1-2.1-11.1-7.1-12.4-14.4c-0.9-4.7-0.1-9.3,0.5-14
		c0.4-3.1,0.6-6.2,0.8-9.3c0.1-1.2-0.3-2.4-1.6-3.1c-2.2-1.2-4.9-0.8-6.5,1.2c-1,1.3-1.7,2.7-2.5,4.1c-1.2,2-2.1,4.2-3.4,6.1
		c-0.9,1.2-2.1,2.3-3.5,3c-2.8,1.5-5.2,0.5-6.5-2.4c-0.6-1.4-1-3-1.5-4.4c-0.6-1.7-1.2-3.4-2.1-5c-1.2-1.9-3.1-2.4-5.4-1.8
		c-2.2,0.6-3.2,1.7-3.4,4c-0.4,3.1,0.7,5.9,1.9,8.7c2.9,6.3,5.8,12.6,8.4,19c2.2,5.5,3.8,11.2,5.9,16.7c2.4,6.2,6.8,10.3,13.3,12.2
		c8.7,2.6,17.4,5.5,26.1,8.3c6.8,2.2,13.6,4.7,20.7,5.8c2.6,0.4,5.3,0.7,7.8-0.2c2.7-0.9,3.6-2.5,3-5.3c-0.2-1-0.5-2-0.8-3
		c-1.1-3.6-1.7-7.3-1.2-11.1C112.3,94.8,112.7,92.6,113.1,90.3z M88.9,68.4c-0.2,1.8-0.3,3.3-0.5,5c2.6,0.4,5.2,0.8,7.9,1.2
		c0.3-1.9,0.5-3.5,0.7-5.3C94.1,69,91.6,68.7,88.9,68.4z M116,80.8c-2.4-0.3-4.5-0.5-6.7-0.7c-0.4,2-0.8,3.9-1.3,5.9
		c2.2,0.3,4.3,0.6,6.5,0.9C115,84.8,115.5,82.9,116,80.8z M100.5,69.7c-0.3,1.9-0.5,3.6-0.8,5.5c2.3,0.3,4.5,0.6,6.8,0.9
		c0.3-1.9,0.6-3.8,0.9-5.7C105,70.2,102.8,69.9,100.5,69.7z M111,70.7c-0.3,1.9-0.6,3.8-1,5.8c2.2,0.2,4.3,0.4,6.6,0.7
		c0.2-2.1,0.4-4,0.6-6C115,71.1,113,70.9,111,70.7z M85.4,67.9c-2.7-0.4-5.3-0.8-8.1-1.2c-0.1,1.7-0.1,3.1-0.2,4.6
		c2.6,0.5,5.1,1,7.7,1.4C85,71.1,85.2,69.6,85.4,67.9z M73.9,66.1c-3-0.7-5.7-1.3-8.7-2c0.2,1.4,0.4,2.7,0.7,3.9
		c0.1,0.3,0.5,0.7,0.8,0.8c2.2,0.7,4.5,1.2,6.9,1.9C73.7,69.1,73.8,67.6,73.9,66.1z M98.1,83.6c2.2,0.5,4.3,1,6.5,1.6
		c0.4-1.9,0.8-3.7,1.2-5.6c-2.4-0.3-4.5-0.6-6.8-0.9C98.7,80.4,98.4,81.9,98.1,83.6z M87.9,76.9c-0.2,1.6-0.3,2.9-0.5,4.2
		c2.5,0.5,4.8,1,7.2,1.6c0.3-1.6,0.6-3,0.9-4.6C92.9,77.7,90.5,77.3,87.9,76.9z M84.4,76.3c-2.6-0.5-5-0.9-7.7-1.4
		c0,1.2,0,2.2,0,3.2c0,0.3,0.3,0.8,0.5,0.8c2.1,0.6,4.3,1.1,6.5,1.6C84.1,79,84.2,77.8,84.4,76.3z M67.7,72.9
		c1.6,2.2,3.3,3.6,5.6,4.6c0-1.2,0-2.3,0-3.3C71.5,73.8,69.8,73.4,67.7,72.9z"/>
	<path class="st1" d="M132.4,78.6c2.9,5.2,1.6,9.8-2,13.8c-2.7,2.9-3,5.9-1.9,9.4c0.9,2.9,1.8,5.8,2,8.8c0.7,8.7-4.1,15.4-12.8,18.4
		c-5.3,1.8-10.7,2.1-16.2,1.3c-3.5-0.5-6.9-0.6-9.8,1.8c-0.7,0.6-1.4,1.2-1.9,2c-1.5,2.8-3,5.6-4.1,8.6c-1.8,4.7-4.3,6.6-9.3,6.6
		c-20.5,0-41.1,0-61.6,0c-4.7,0-8.1-2.7-8.7-7c-0.2-1.3,0-2.6,0.4-3.9c2-7.9,4.2-15.8,6-23.7c1-4.4,1.6-9,0.8-13.5
		c-0.4-2.1-1.3-3.9-3.2-5.1c-2.4-1.5-4.7-3-7-4.6c-0.2-0.2-0.5-0.3-0.7-0.5c-0.9-0.7-1.2-1.6-0.6-2.5c0.6-0.9,1.5-1,2.4-0.4
		c3,2,6.2,3.8,9,6c3.1,2.4,3.6,6,3.8,9.6c0.2,5.8-0.8,11.4-2.2,17c-1.5,6.2-3.3,12.3-5,18.4c-1.1,4,0.9,6.7,5,6.7
		c20.7,0,41.4,0,62.1,0c2.9,0,4.2-1.1,5.3-3.9c1.4-3.2,2.8-6.5,4.6-9.5c2.7-4.5,7-6.2,12.1-5.9c1.9,0.1,3.7,0.4,5.5,0.6
		c4.4,0.4,8.7-0.1,12.8-1.7c7.7-3,11.1-9.4,9.3-17.5c-0.7-2.9-1.5-5.7-2.2-8.5c-0.7-3.1,0.4-5.8,2.4-8.2c1.1-1.3,2.2-2.8,3-4.3
		c1.3-2.7,0.8-5.2-1.2-7.4c-1.5-1.7-1.2-2.8,0.9-3.5c3.1-1.1,5.3-3.2,6.5-6.2c1.1-2.7,0-5-2-6.9c-2-1.9-2.2-3.5-0.5-5.8
		c1.6-2.1,3.8-3.4,6.1-4.5c1.2-0.6,2.4-1,3.6-1.6c2.3-1.2,2.8-2.8,1.6-5.1c-0.5-0.9-1.2-1.7-1.9-2.6c-5-5.7-10-11.4-14.9-17.2
		c-2.9-3.4-3.5-7.3-2-11.5c1.3-3.6,1.9-7.4,1.4-11.2c0-0.2,0-0.4,0-0.6c0-1.1,0.4-1.9,1.6-2c1.2-0.1,1.7,0.6,1.9,1.8
		c0.5,4.3,0.1,8.6-1.4,12.7c-1.3,3.4-0.9,6.4,1.6,9.1c4.8,5.5,9.6,10.9,14.3,16.5c1.3,1.5,2.5,3.2,3.2,5c1.2,2.8,0.1,5.6-2.4,7.3
		c-1,0.7-2.2,1.1-3.2,1.7c-2,1.2-4,2.4-6,3.6c-0.8,0.5-0.9,1.2-0.3,2c4.8,6,4,12.1-2.3,16.7C133.8,77.7,133.2,78.1,132.4,78.6z"/>
	<path class="st1" d="M1,65.5c0.5-0.6,0.7-1.4,1.2-1.5c0.7-0.2,1.6-0.1,2.2,0.2c3.2,1.7,6.1,3.9,9.4,5.3c4.4,1.9,8.9,3.4,13.4,5
		c0.5,0.2,0.9,0.2,1.4,0.4c1,0.4,1.6,1.1,1.3,2.1c-0.3,1.1-1.2,1.6-2.3,1.2C18.6,76,10,72.7,2.4,67.2C1.9,66.8,1.5,66.2,1,65.5z"/>
</g>
</svg>
