<?xml version="1.0" encoding="utf-8"?>
<!-- Generator: Adobe Illustrator 24.3.0, SVG Export Plug-In . SVG Version: 6.00 Build 0)  -->
<svg version="1.1" id="Layer_1" xmlns="http://www.w3.org/2000/svg" xmlns:xlink="http://www.w3.org/1999/xlink" x="0px" y="0px"
	 viewBox="0 0 150 150" style="enable-background:new 0 0 150 150;" xml:space="preserve">
<style type="text/css">
	.st0{fill:#5F6368;}
	.st1{fill:#005BAB;}
</style>
<path class="st0" d="M2053.7-657.2c-2.1,0-3.6,0-5.1,0C2049.8-661.3,2051.5-660.2,2053.7-657.2z"/>
<path class="st0" d="M647.6-31.1c1.8-3.6,3.4-2.9,5.2,0C651-31.1,649.5-31.1,647.6-31.1z"/>
<g>
	<path class="st1" d="M29,149c-1.1-0.7-1.5-1.7-1.5-3.1c0-7.3,0-14.6,0-21.8c0-18.6,10.9-34.3,28.4-40.8c0.2-0.1,0.4-0.2,0.5-0.2
		c-2-2.3-4.2-4.5-6-7.1c-1.7-2.5-2.9-5.4-4.3-8.2c-5.2,1-9.6-0.6-12.2-5.6c-2.5-4.7-1.3-9,2-12.6c-1.7-4.4-3.6-8.6-5-12.9
		c-1.5-4.4-2-9.1-2-13.8c0-2.3,0.9-3.1,3.1-2.7c5,1,9.4,0.1,13-3.6c1-1,2.1-2,3.2-2.9c1.1-1,2.3-1,3.2-0.1c0.9,0.9,0.9,2.2-0.3,3.3
		c-1.6,1.5-3.2,2.9-4.8,4.3c-3.2,2.7-6.9,3.9-11.1,3.7c-0.6,0-1.2,0-1.9,0c0.3,7.9,2.7,15.2,6.7,22c1.8-0.1,3.5-0.3,5.3-0.4
		c0,0,0.1-0.1,0.1-0.1c0.5-4.4,2-6,6.3-7c11.9-2.7,22.3-8.1,30.8-17c2-2.1,4.4-1.9,6.1,0.5c4,5.8,8.1,11.4,13.2,16.2
		c1.7,1.7,2.2,3.3,2.9,7.2c2.4,0.4,4.7,0.8,7.4,1.3c0.7-2.5,1.5-5.2,2.1-8c1.3-6.4,1.1-12.7-1.2-18.9c-0.2-0.4-0.3-0.8-0.5-1.2
		C107.9,9.4,99.3,7.1,89.6,11c-2.2,0.9-2.5,0.9-3.9-1.1c-1.5-2-3.7-3.1-6.1-3.7c-7.5-1.9-14.5-1.1-20.7,3.9
		c-0.4,0.3-0.8,0.6-1.2,0.9c-1.1,0.7-2.3,0.5-3-0.4c-0.8-1-0.7-2.2,0.4-3.1c4.2-3.4,8.8-6,14.3-6.5c5.5-0.4,10.9,0,15.8,2.8
		c0.7,0.4,1.4,0.7,1.9,1.3c1.1,1.2,2.1,1.3,3.6,0.8c4-1.3,8.1-1.5,12.1-0.5c5.8,1.4,9.7,5.3,12.5,10.4c3.8,7,4.6,14.5,3.3,22.2
		c-0.7,4.1-2.1,8.1-3.1,12.1c-0.1,0.5-0.2,1.3,0.1,1.7c2.2,4.1,2.1,8.1-0.6,11.8c-2.7,3.7-6.4,5-11,4.1c-0.2,0-0.4,0-0.7,0
		c-1.9,6-5.2,11.1-10.3,15.2c1.2,0.5,2.2,0.9,3.2,1.3c4.2,1.8,8.1,4.3,11.5,7.3c1.3,1.2,1.6,2.5,0.6,3.5c-0.9,1-2.1,1-3.4-0.2
		c-4.4-3.8-9.3-6.6-15-8.2c-0.8,4.5-2.9,8.2-6.7,10.7c-2.8,1.9-5.8,2.6-9.2,2.5c-7-0.3-11.9-4.8-14.3-13.3
		c-7.9,2.4-14.5,6.7-19.6,13.2c-7.4,9.3-9.1,20-8.1,31.5c5.4,0,10.7,0,16.3,0c0-1.4,0-2.9,0-4.3c0-1.9,0-3.8,0-5.6
		c0-1.4,0.9-2.4,2.2-2.4c1.2,0,2.1,1,2.2,2.4c0,0.3,0,0.7,0,1c0,6.8,0,13.7,0,20.5c0,0.5,0,1,0,1.7c3.1,0,6.1,0,9.1,0
		c1.2,0,2.3,0.1,2.9,1.4c0.5,1.4-0.3,2.1-1.2,2.9C52,149,40.5,149,29,149z M85.1,26.1c0,0,0,0-0.1,0.1c-9.2,9.3-20.3,14.9-33,17.7
		c-1.7,0.4-2.2,1-2.2,2.8c0,3.7-0.1,7.3,0,11c0.1,2.5,0.1,5.1,0.6,7.6C53,77,63.9,85.3,76,84.8c11.9-0.4,22.3-9.6,23.8-21.3
		c0.5-4.1,0.3-8.3,0.4-12.4c0.1-8.2,0.2-6.7-4.7-12.1C91.9,34.9,88.6,30.5,85.1,26.1z M32,144.6c5.5,0,10.9,0,16.3,0
		c0-3,0-5.8,0-8.7c-5.5,0-10.8,0-16.3,0C32,138.8,32,141.6,32,144.6z M64.6,87.3c1.4,5.3,5.9,8.5,11.2,8.2c4.5-0.2,9-4,9.5-8.2
		C78.4,89.8,71.6,89.8,64.6,87.3z M45.4,51.4c-2.5-0.8-4.6-0.2-6.3,1.4c-1.9,1.8-2.5,4.1-1.6,6.6c0.8,2.4,2.6,3.9,5.2,4.3
		c2.5,0.4,2.9,0,2.8-2.5c0-1.2,0-2.5,0-3.7C45.4,55.4,45.4,53.4,45.4,51.4z M106.4,63.7c3.6,0,6.5-2.9,6.4-6.5
		c-0.1-3.6-3.2-6.4-6.8-6.2c-1.1,0.1-1.6,0.4-1.6,1.6c0.1,3,0,6,0,9.1C104.4,63.6,104.5,63.7,106.4,63.7z"/>
	<path class="st1" d="M70.7,149c-1.1-0.7-1.8-1.5-1.4-2.9c0.4-1.3,1.6-1.5,2.8-1.5c7.8,0,15.6,0,23.4,0c0.5,0,1,0,1.8,0
		c0-0.6,0-1.1,0-1.6c0-6.9,0-13.8,0-20.7c0-0.4,0-0.8,0-1.2c0.1-1.3,1-2.2,2.2-2.2c1.2,0,2.1,0.9,2.1,2.3c0,2.8,0,5.6,0,8.4
		c0,0.5,0,1,0,1.7c5.5,0,10.9,0,16.2,0c0-0.1,0.2-0.1,0.2-0.2c0.5-10-0.3-19.6-6.1-28.3c-0.4-0.6-0.8-1.2-1.2-1.8
		c-0.5-1.1-0.2-2,0.7-2.7c1-0.7,1.9-0.5,2.8,0.3c0.4,0.4,0.6,0.8,0.9,1.3c4.7,7,7.1,14.8,7.2,23.2c0.1,7.6,0,15.2,0,22.8
		c0,1.3-0.3,2.3-1.5,3.1C104.2,149,87.4,149,70.7,149z M101.6,144.5c5.5,0,10.9,0,16.3,0c0-3,0-5.8,0-8.7c-5.5,0-10.9,0-16.3,0
		C101.6,138.8,101.6,141.6,101.6,144.5z"/>
	<path class="st1" d="M30.9,91.2c-1.7,0-2.5,0.9-2.2,2.7c0.9,4.5-1,7.4-5.5,8.4c-1.9,0.4-2.4,1.7-1.5,3.3c2.3,4,1.2,7.6-2.8,9.6
		c-1.7,0.9-2,2.1-0.7,3.6c0.3,0.3,0.6,0.7,0.8,1c2.5,3.1,2,7.2-1.3,9.5c-2.9,2-2.9,2.5-0.4,5c2.7,2.9,2.6,6.9-0.2,9.4
		c-1.2,1.1-2.6,1.1-3.5,0.1c-0.9-1-0.7-2.1,0.4-3.3c1.1-1.1,1.2-2,0.1-3.2c-0.5-0.5-1-1-1.5-1.6c-2.1-2.6-1.8-6.3,0.7-8.6
		c0.4-0.4,0.9-0.7,1.4-1c1.9-1.3,2.1-2.2,0.6-4c-0.3-0.4-0.6-0.7-0.9-1.1c-2.4-3.2-1.4-7.6,2.2-9.5c2.3-1.2,2.5-1.8,1.2-4
		c-2.1-3.8-0.2-8.3,4-9.3c0.3-0.1,0.6-0.1,0.8-0.2c1.6-0.4,2-1.2,1.9-2.8c-0.1-1.3-0.3-2.7,0.1-4c0.7-2.8,3.4-4.5,6.4-4.3
		c1.6,0.1,2.7,1,2.6,2.3C33.6,90.4,32.6,91.2,30.9,91.2z"/>
	<path class="st1" d="M119.6,86.8c3.8,0.1,6.7,3.5,6.1,7.3c-0.1,0.4-0.2,0.8-0.2,1.1c-0.2,1.3,0.3,2.4,1.7,2.5
		c5,0.5,7.7,6.2,4.7,10.3c-0.9,1.3-0.4,2.3,1.3,3.2c3.7,1.9,5,6.1,2.8,9.4c-0.3,0.5-0.8,1-1.2,1.5c-1.4,1.7-1.2,2.6,0.6,3.9
		c4.4,2.9,4.8,7.1,1,10.9c-1.6,1.6-1.6,2.2-0.1,3.8c0.9,0.9,1,2.1,0.2,3c-0.8,0.9-2,1-3.1,0.2c-3.1-2.2-3.5-6.5-0.9-9.4
		c2.7-3.1,2.7-3.1-0.5-5.5c-2.9-2.3-3.5-6.2-1.2-9.1c0.3-0.3,0.6-0.7,0.8-1c1.4-1.7,1.2-2.9-0.8-3.9c-3.8-1.9-4.9-5.7-2.8-9.3
		c1.1-1.9,0.6-3.1-1.6-3.5c-4.1-0.8-6.1-3.9-5.3-8.1c0.4-2-0.3-2.9-2.2-2.9c-1.7,0-2.7-0.8-2.7-2.1c0-1.3,1-2.1,2.5-2.2
		C119.1,86.8,119.4,86.8,119.6,86.8z"/>
	<path class="st1" d="M131.1,56.5c-0.2,2.9-1.1,4.6-3.1,5.6c-1.2,0.7-1.5,1.4-0.9,2.7c1.6,3.5,0,6.9-3.6,8c-0.6,0.2-1.2,0.6-1.7,1
		c-1,0.8-2.1,0.9-3,0.2c-0.9-0.7-1.1-2.1-0.3-3c1-1,2.2-1.8,3.5-2.3c1.3-0.6,1.6-0.9,1-2.3c-1.5-3.5-0.7-5.9,2.6-8
		c1.3-0.8,1.4-1.4,0.3-2.5c-1.3-1.2-2-2.7-1.8-4.5c0.1-1.3,0.8-2,2-2.1c1.1-0.1,1.8,0.6,2.2,1.7c0.3,0.8,0.8,1.5,1.2,2.3
		C130.1,54.6,130.7,55.8,131.1,56.5z"/>
	<path class="st1" d="M22.1,67.3c0.2-0.8,0.4-1.7,0.8-2.5c0.6-1.2,0.4-2-0.8-2.7c-2.6-1.5-3.7-4.1-2.8-6.7c0.3-0.7,0.8-1.4,1.2-2.1
		c0.4-0.7,0.9-1.3,1.1-2.1c0.4-1.2,1-1.8,2.3-1.8c1.2,0,2,0.9,2,2.2c0.1,1.7-0.5,3.1-1.7,4.3c-1.2,1.2-1.2,1.8,0.3,2.7
		c3.1,2,3.9,4.4,2.5,7.9c-0.6,1.4-0.3,1.7,1.1,2.3c1.3,0.6,2.5,1.4,3.5,2.4c0.9,0.9,0.5,2.3-0.4,2.9c-1,0.7-1.9,0.6-2.9-0.2
		c-0.6-0.5-1.2-0.9-1.9-1.1C23.8,71.9,22.2,69.8,22.1,67.3z"/>
	<path class="st1" d="M69,64c1.1,0.6,2.2,1,3.1,1.8c2.5,2.1,3.2,2.1,5.5,0c2.7-2.4,7-1.7,8.7,1.5c0.5,0.9,0.4,1.9-0.4,2.6
		c-0.8,0.8-1.8,0.8-2.8,0.2c-0.3-0.2-0.6-0.5-0.9-0.8c-0.8-0.7-1.4-0.7-2.2,0c-3.5,3.2-7,3.2-10.4,0c-1-0.9-1.6-0.7-2.4,0
		c-0.2,0.2-0.5,0.5-0.7,0.7c-0.9,0.6-1.9,0.6-2.7-0.2c-0.9-0.8-1-1.8-0.4-2.7C64.5,65.7,67,64.3,69,64z"/>
	<path class="st1" d="M60.7,53c-0.8-0.5-1.4-0.7-2-1.1c-1.1-0.7-1.4-1.8-0.8-2.9c0.5-1,1.7-1.5,2.8-0.9c1.9,0.9,3.8,1.8,5.6,2.9
		c1.7,0.9,1.7,2.8,0,3.8C64.6,56,62.7,57,60.9,58c-1.2,0.6-2.4,0.2-3-0.9c-0.6-1.1-0.2-2.2,0.9-2.9C59.4,53.8,60,53.5,60.7,53z"/>
	<path class="st1" d="M89.3,53c0.8,0.5,1.5,0.8,2.1,1.2c1,0.7,1.3,1.9,0.7,2.9c-0.6,1-1.7,1.4-2.9,0.8c-1.9-1-3.8-2-5.6-3.2
		c-1.6-1-1.5-2.9,0.1-3.8c1.8-1,3.6-1.9,5.5-2.8c1.2-0.6,2.4-0.1,2.9,1c0.5,1.1,0.2,2.1-0.9,2.8C90.7,52.3,90.1,52.6,89.3,53z"/>
</g>
</svg>
