<?xml version="1.0" encoding="utf-8"?>
<!-- Generator: Adobe Illustrator 24.3.0, SVG Export Plug-In . SVG Version: 6.00 Build 0)  -->
<svg version="1.1" id="Layer_1" xmlns="http://www.w3.org/2000/svg" xmlns:xlink="http://www.w3.org/1999/xlink" x="0px" y="0px"
	 viewBox="0 0 150 150" style="enable-background:new 0 0 150 150;" xml:space="preserve">
<style type="text/css">
	.st0{fill:#5F6368;}
	.st1{fill:#005BAB;}
</style>
<path class="st0" d="M2053.7-657.2c-2.1,0-3.6,0-5.1,0C2049.8-661.3,2051.5-660.2,2053.7-657.2z"/>
<g>
	<path class="st1" d="M49.1,96.5c0-2.7,0-5.3,0-8c0-0.5-0.3-1.1-0.7-1.3c-8-6.2-11.7-14.3-11.4-24.3c0-0.5,0-1,0-1.6
		c-0.5-0.1-0.9-0.2-1.3-0.2c-4-0.4-6.8-2.5-8.3-6.2c-1.5-3.8-0.7-7.3,2.1-10.3c0.8-0.8,1.1-1.6,1.1-2.8C30.3,35.4,30.8,29,33.6,23
		C40,9.3,54.2,1.6,68.6,3.2c15.8,1.8,27.9,14,30,28.9c0.5,3.3,0.3,6.7,0.5,10.1c0,0.7,0.2,1.5,0.7,1.9c3,3.1,4,6.7,2.4,10.8
		c-1.6,4-4.7,6-9,6.2c-0.1,0-0.2,0-0.4,0.1c-0.1,2.3-0.1,4.7-0.4,7c-0.9,7.7-4.6,13.8-10.7,18.6c-0.9,0.7-1.3,1.3-1.2,2.5
		c0.1,2.4,0,4.7,0,7.3c1.4,0.2,2.8,0.5,4.2,0.5c0.4,0,0.8-0.6,1.1-1c5.6-9.5,13.9-15.2,24.8-17c17.8-2.9,35.5,9.8,38.4,27.6
		c3.1,18.8-8.6,35.9-27.4,39.6c-2.3,0.5-4.7,0.6-7.1,0.6c-36.8,0-73.6,0-110.3,0c-3,0-3.6-0.6-3.6-3.6c0-6.5,0-12.9,0-19.4
		c0-12.9,8.1-21.9,20.9-23.5c8.9-1.1,17.8-2.5,26.7-3.7C48.5,96.8,48.7,96.6,49.1,96.5z M83,101.7c-0.8-0.1-1.6-0.1-2.3-0.4
		c-1-0.3-1.5,0-2,1c-3,5.4-7.6,8.4-13.8,8.4c-6.3,0-11-2.9-14-8.5c-0.5-0.9-0.9-1.1-1.9-1c-9.1,1.3-18.2,2.6-27.4,3.8
		c-9.5,1.3-15.9,7.7-16.3,17.1c-0.3,6.5-0.1,13-0.1,19.5c0,0.1,0.1,0.3,0.2,0.4c30.7,0,61.4,0,92.3,0
		C83.4,132.1,78.6,118.7,83,101.7z M115.3,83.5C98.8,83.7,85.9,96.8,86,113.3c0.1,16.1,13.5,29.1,29.8,29
		c16-0.1,29.2-13.4,29.1-29.4C144.8,96.6,131.5,83.4,115.3,83.5z M41.6,43c0,0.5-0.1,0.9-0.1,1.3c0,6.9,0,13.8,0,20.7
		c0.1,11.6,8.7,21.2,20.4,22.8c11,1.5,22-5.6,24.9-16.6c0.9-3.6,0.9-7.4,1-11.1c0.2-5.7,0-11.5,0-17.3c-6.2-1.2-12.1-2.7-16.6-7.6
		C62.1,40.8,52,42.4,41.6,43z M36.8,41.5c0.4-2.5,0.9-2.9,3.2-3.1c1.2-0.1,2.3-0.1,3.5-0.2c9.6-0.7,18.9-2.4,27.1-8
		c1.3-0.9,2.5-0.6,3.4,0.7c1.8,2.6,4.2,4.4,7.2,5.3c2.9,0.9,6,1.5,9,2.2c1.5,0.3,2.4,1.1,2.4,2.6c0,0.1,0.1,0.3,0.2,0.5
		c0.5,0,0.9,0,1.4-0.1c1.5-12.1-4.2-24-14.6-29.8c-11.1-6.1-22.1-5.6-32.4,1.8c-9.4,6.8-12.8,16.6-11.9,28
		C35.8,41.5,36.2,41.5,36.8,41.5z M53.8,90.4c0,2.3-0.2,4.4,0,6.4c0.7,6,6.9,10.4,12.8,9.1c7.2-1.5,10.3-7.6,8.9-15.5
		C68.3,93.4,61.1,93.3,53.8,90.4z M36.8,56.4c0-3.4,0-6.7,0-10.2c-2.1-0.1-3.7,0.7-4.8,2.4c-1.1,1.8-1.1,3.7,0,5.5
		C33.1,55.8,34.7,56.6,36.8,56.4z M92.7,56.4c3.1,0.1,5.5-2.2,5.4-5.1c0-2.9-2.3-5-5.4-5.1C92.7,49.6,92.7,53,92.7,56.4z"/>
	<path class="st1" d="M107,121.3c-2.2,0-4.2,0-6.2,0c-2.1,0-2.9-0.8-2.9-2.9c0-3.7,0-7.4,0-11.1c0-2,0.8-2.8,2.8-2.8
		c2,0,4.1,0,6.2,0c0-2.1,0-4,0-5.9c0-2.4,0.7-3.1,3-3.1c3.6,0,7.2,0,10.8,0c2.3,0,3,0.7,3,3.1c0,1.9,0,3.8,0,6c2.2,0,4.2,0,6.2,0
		c2.1,0,2.9,0.8,2.9,2.9c0,3.6,0,7.3,0,10.9c0,2.2-0.8,3-3.1,3c-2,0-3.9,0-6.1,0c0,2.2,0,4.3,0,6.3c0,1.9-0.8,2.7-2.7,2.8
		c-3.8,0-7.6,0-11.4,0c-1.8,0-2.6-0.8-2.7-2.6C106.9,125.7,107,123.7,107,121.3z M128.2,116.7c0-2.6,0-5,0-7.6c-2.1,0-4.1,0-6,0
		c-2.2,0-3-0.8-3-3c0-2,0-3.9,0-6c-2.6,0-5,0-7.5,0c0,2,0,4,0,5.9c0,2.3-0.8,3.1-3.1,3.1c-2,0-3.9,0-5.9,0c0,2.6,0,5,0,7.6
		c2.1,0,4,0,6,0c2.2,0,2.9,0.7,3,3c0,2,0,3.9,0,5.9c2.6,0,5,0,7.5,0c0-2.1,0-4.2,0-6.2c0-1.9,0.9-2.7,2.7-2.7
		C123.9,116.7,126,116.7,128.2,116.7z"/>
	<path class="st1" d="M64.6,69.2c3,0.1,5.8,1.7,8.1,4.2c0.9,1,0.9,2.2-0.1,3.1c-0.9,0.9-2,0.9-3,0.2c-0.4-0.3-0.7-0.7-1.1-1
		c-3-2.5-5.6-2.5-8.6,0c-2,1.7-3.2,1.9-4.2,0.7c-1.1-1.2-0.6-2.6,1.3-4.3C59.1,70.4,61.4,69.2,64.6,69.2z"/>
	<path class="st1" d="M58.5,52.2c-0.1,4.7-3.7,7.8-8.7,7.8c-1.3,0-2.2-0.8-2.3-2.2c-0.1-1.3,0.6-2.1,1.9-2.3
		c0.5-0.1,1.1-0.2,1.6-0.3c2-0.4,2.7-1.2,2.8-3.2c0.1-1.8,1-2.8,2.4-2.7C57.8,49.2,58.6,50.2,58.5,52.2z"/>
	<path class="st1" d="M79.1,60c-4.8-0.2-8.1-3.5-8.1-8c0-1.8,0.8-2.8,2.3-2.8c1.4,0,2.2,0.9,2.4,2.6c0.2,2.4,0.8,3.1,3.1,3.5
		c0.3,0.1,0.7,0.1,1,0.2c1.5,0.3,2.4,1.3,2.3,2.5C81.8,59.2,80.7,60,79.1,60z"/>
</g>
</svg>
