<?xml version="1.0" encoding="utf-8"?>
<!-- Generator: Adobe Illustrator 24.3.0, SVG Export Plug-In . SVG Version: 6.00 Build 0)  -->
<svg version="1.1" id="Layer_1" xmlns="http://www.w3.org/2000/svg" xmlns:xlink="http://www.w3.org/1999/xlink" x="0px" y="0px"
	 viewBox="0 0 150 150" style="enable-background:new 0 0 150 150;" xml:space="preserve">
<style type="text/css">
	.st0{fill:#5F6368;}
	.st1{fill:#005BAB;}
</style>
<path class="st0" d="M2053.7-657.2c-2.1,0-3.6,0-5.1,0C2049.8-661.3,2051.5-660.2,2053.7-657.2z"/>
<path class="st0" d="M647.6-31.1c1.8-3.6,3.4-2.9,5.2,0C651-31.1,649.5-31.1,647.6-31.1z"/>
<g>
	<path class="st1" d="M32.3,148.4c-1.7,0-3.1,0-4.7,0c-0.2-3-0.4-6-0.5-9c-0.6-11.7-1.2-23.4-1.8-35.1c-0.1-2.2,0.3-2.7,2.4-3.5
		c6.4-2.2,11.8-5.9,16.2-11c0.7-0.8,0.8-1.5,0.5-2.6c-1.1-3.5-1.9-7-2.9-10.7c-1.2,0.6-2.6,1.2-4,2c-0.3,0.2-0.4,0.9-0.4,1.3
		c0,3,0,6,0,9.1c-1.6,0-3.1,0-4.7,0c0-0.5,0-0.9,0-1.3c0-6.4,0-12.8,0-19.1c0-1,0.4-2.2,1.1-2.9c6.1-7.6,12.4-15.2,18.6-22.8
		c0.5-0.6,1.1-1.3,1.4-2.1c0.6-1.3,0.3-2.5-0.8-3.3c-1.1-0.9-2.3-0.9-3.4,0c-1.1,0.9-2,1.9-3.1,2.8C38.4,47.4,30.8,54.7,23,61.6
		c-3.2,2.8-4.8,6-5.3,10.3c-2.2,16.2-4.8,32.4-7.3,48.5c-1.3,8.8-2.6,17.6-4,26.4c-0.1,0.6-0.2,1.2-0.3,1.9c-1.5-0.2-3-0.4-4.6-0.7
		c0.5-3.5,1-7,1.6-10.4c2-13.5,4.1-27,6.1-40.5c1.3-8.7,2.7-17.5,4-26.2c0.1-0.9,0.2-1.8,0.3-2.6c0.5-3.3,2-6,4.5-8.3
		c4.4-4.1,8.7-8.2,13.2-12.2c0.9-0.9,1.3-1.7,1.2-2.9c-0.1-5.7,0-11.5,0-17.2c0-14.9,11.5-26.4,26.4-26.5c8.4,0,16.7,0,25.1,0
		c8.9,0,15.2,5.2,17.1,13.8c0,0.1,0.1,0.2,0.2,0.4c3,0.1,6,0.8,8.6,2.5c5.1,3.2,7.8,7.9,8,13.9c0.1,4.5,0,9.1,0.1,13.7
		c0,0.7,0.4,1.5,0.9,2c3.7,3.6,7.4,7.2,11.3,10.5c4.4,3.6,6.4,8.1,7.2,13.7c1.8,14.2,4.2,28.4,6.3,42.5c1.7,11.2,3.4,22.5,5.1,33.9
		c-1.5,0.2-3,0.5-4.7,0.8c-0.5-3.3-1-6.6-1.5-9.9c-2-13.5-4.1-27-6.1-40.5c-1.4-9.3-3-18.6-4.1-27.9c-0.4-3.3-1.7-5.8-4.1-8
		c-8.9-8.1-17.6-16.3-26.5-24.5c-0.6-0.6-1.6-1.2-2.4-1.2c-0.8,0-1.9,0.7-2.4,1.4c-0.8,1.1-0.4,2.4,0.5,3.4c2.5,3.1,5.1,6.2,7.6,9.3
		c4,4.9,8,9.7,11.9,14.6c0.5,0.6,1,1.6,1,2.4c0.1,6.8,0,13.6,0,20.3c0,0.2,0,0.4-0.1,0.6c-1.5,0-3,0-4.7,0c0-2.2-0.2-4.5,0.1-6.7
		c0.3-2.8-0.6-4.5-3.3-5.2c-0.5-0.1-0.9-0.4-1.5-0.7c-0.3,1.8-0.4,3.5-0.8,5.1c-0.5,2-1.1,4-1.8,5.9c-0.3,0.9-0.3,1.4,0.3,2.1
		c4.3,5.2,9.7,9,16.1,11.2c2.6,0.9,2.8,1.3,2.7,4c-0.8,14.3-1.5,28.6-2.3,42.8c0,0.3,0,0.6-0.1,0.8c-1.6,0-3.1,0-4.7,0
		c0.1-2.6,0.2-5,0.4-7.4c0.3-5,0.5-10,0.8-15c0.1-1.1-0.3-1.5-1.3-1.8c-3.1-0.9-6.1-1.9-9.2-2.8c-0.7-0.2-1.1-0.2-1.6,0.5
		c-5.6,9.3-14,14.4-24.5,16.4c-10.8,2-20.9-0.1-30-6.4c-3.7-2.6-6.8-5.9-9.1-9.8c-0.5-0.8-0.9-1-1.8-0.7c-3,1-6.1,2-9.2,2.9
		c-1,0.3-1.3,0.7-1.2,1.8c0.4,6.7,0.7,13.3,1.1,20C32.2,146.7,32.2,147.4,32.3,148.4z M88.1,40.7c-0.3,0.5-0.4,0.6-0.5,0.8
		c-5.1,9.5-13,14.3-23.8,14.3c-4.9,0-9.9,0-14.8,0c-2,0-2.4,0.4-2.4,2.4c0,5.5,0,11,0,16.5c0,1.7,0.1,3.5,0.5,5.2
		c2.9,15.2,16.3,25,31.7,23.2c12.6-1.4,23.2-12,24.5-24.6c0.5-5.1,0-10.4,0.4-15.6c0.3-4.2-0.6-7.7-3.8-10.6c-0.5-0.4-0.8-1-1.2-1.5
		C95.1,47.5,91.6,44.2,88.1,40.7z M113,42.2c0-3.9,0.1-7.4,0-10.9c-0.2-5.1-4-9.6-9-10.7c-1.5-0.3-3.1-0.3-4.7-0.4
		c-2-0.1-2.8-0.8-2.9-2.8C96,10.8,91,6,84.2,6c-8.7,0-17.3,0-26,0C46.5,6,37.1,15.5,37,27.2c0,4.6,0,9.1,0,13.7
		c0,0.4,0.1,0.7,0.1,1.1c0.2-0.1,0.2-0.1,0.3-0.1c2.7-2.5,5.4-5,8.2-7.5c3.2-2.9,7.3-3,10.3-0.3c3,2.7,3.3,7.1,0.8,10.5
		c-1.4,1.9-3,3.7-4.5,5.5c-0.2,0.3-0.4,0.6-0.7,1.1c4.3,0,8.3,0,12.4,0c10,0,17.2-5.1,20.6-14.5c0.8-2.3,2.5-2.7,4.3-1.2
		c1,0.8,1.9,1.6,2.9,2.5c2.6-6.4,8.3-7.6,13.2-3.1C107.5,37.1,110.1,39.6,113,42.2z M56.4,116.7c9.9,10.6,27.5,10.6,37.3,0
		c-1.5-0.5-3-1-4.5-1.5c-1.8-0.6-2.2-1.2-2.2-3c0-2.1,0-4.1,0-6.4c-8,2.9-15.8,2.9-23.7,0c0,2.3,0,4.3,0,6.4c0,1.6-0.6,2.5-2.1,3
		C59.5,115.7,57.9,116.2,56.4,116.7z M46.9,93.2c-0.1,0.2-0.3,0.5-0.5,0.7c-3.8,4.3-8.3,7.5-13.5,9.9c-2.9,1.3-2.9,1.3-2.7,4.5
		c0.2,3.7,0.4,7.5,0.6,11.3c0.7-0.2,1.2-0.3,1.7-0.5c7.2-2.2,14.3-4.5,21.5-6.7c1.5-0.5,3.4-0.6,4.2-1.6c0.7-1,0.1-2.9,0.3-4.5
		c0.2-2-0.3-3.3-2.2-4.3c-1.2-0.6-2.2-1.5-3.2-2.4C51,97.6,49.1,95.5,46.9,93.2z M102.6,93.3c-2.7,4-6.2,7.4-10.4,10
		c-0.3,0.2-0.5,0.8-0.5,1.2c-0.1,1.8,0,3.6,0,5.3c0,1,0.3,1.3,1.2,1.6c5,1.5,10,3.1,15,4.7c3.8,1.2,7.5,2.4,11.4,3.6
		c0.3-4.8,0.5-9.4,0.7-14.1c0-0.4-0.7-0.8-1.1-1.1c-3.1-1.7-6.3-3.2-9.3-5.2C107.1,97.6,105,95.4,102.6,93.3z M102.8,119.6
		c-0.8-0.3-1.4-0.4-1.9-0.6c-1.5-0.8-2.5-0.4-3.8,0.9c-7.7,7.8-17,10.9-27.8,9c-6.8-1.2-12.5-4.5-17.1-9.6c-0.7-0.8-1.3-1-2.3-0.6
		c-0.8,0.4-1.7,0.6-2.5,0.8c3.8,7.4,14,14.4,26.5,14.6C85.9,134.3,95.8,130,102.8,119.6z M41.8,63.2c-2.6,2.9-6.1,5.3-4.5,10
		c1.3-0.6,2.6-1.3,3.9-2c0.3-0.2,0.6-0.7,0.6-1C41.8,67.9,41.8,65.6,41.8,63.2z M113.1,73.4c-0.1-1.9,0.3-3.7-0.3-4.9
		c-1-2-2.8-3.6-4.5-5.7c0,2.8,0,5.2,0,7.6c0,0.3,0.3,0.8,0.6,1C110.2,72,111.5,72.6,113.1,73.4z"/>
	<path class="st1" d="M56.5,72.4c-0.3-1.7-0.6-3.1-0.9-4.6c2.2-0.5,4.2-0.9,6.6-1.4c-1.8-1.4-3.4-2.6-5.2-3.9
		c0.9-1.2,1.8-2.4,2.8-3.8c3.3,2.5,6.6,4.8,9.7,7.4c1.5,1.2,0.8,3.5-1.1,3.9C64.5,70.9,60.5,71.6,56.5,72.4z"/>
	<path class="st1" d="M90.2,58.7c1,1.3,1.8,2.5,2.8,3.8c-1.7,1.3-3.3,2.5-5.1,3.9c2.3,0.5,4.3,0.9,6.5,1.4c-0.3,1.5-0.6,3-0.9,4.6
		c-2.4-0.5-4.8-0.9-7.1-1.4c-1.6-0.3-3.2-0.5-4.6-1c-0.8-0.3-1.6-1-1.9-1.8c-0.2-0.6,0.1-1.8,0.7-2.2C83.7,63.5,86.9,61.1,90.2,58.7
		z"/>
</g>
</svg>
