<?xml version="1.0" encoding="utf-8"?>
<!-- Generator: Adobe Illustrator 24.3.0, SVG Export Plug-In . SVG Version: 6.00 Build 0)  -->
<svg version="1.1" id="Layer_1" xmlns="http://www.w3.org/2000/svg" xmlns:xlink="http://www.w3.org/1999/xlink" x="0px" y="0px"
	 viewBox="0 0 150 150" style="enable-background:new 0 0 150 150;" xml:space="preserve">
<style type="text/css">
	.st0{fill:#5F6368;}
	.st1{fill:#005BAB;}
</style>
<path class="st0" d="M2053.7-657.2c-2.1,0-3.6,0-5.1,0C2049.8-661.3,2051.5-660.2,2053.7-657.2z"/>
<path class="st0" d="M647.6-31.1c1.8-3.6,3.4-2.9,5.2,0C651-31.1,649.5-31.1,647.6-31.1z"/>
<g>
	<path class="st1" d="M75.6,47c0.2-0.3,0.4-0.5,0.6-0.8c4.7-5.8,10.7-8.6,18.2-8.4c0.4,0,0.7,0.1,1.1,0.1c1.7,0.2,2.9,1.7,2.7,3.4
		C98,42.9,96.7,44.1,95,44c-2.6-0.1-5.1,0.1-7.5,1.1c-6.4,2.7-10.4,9-9.5,16.2c0.9,7.2,6.6,12.7,13.7,13.4c0.8,0.1,1.6,0.1,2.4,0.1
		c1.8,0,3.2,1.3,3.2,3c0,1.8-1.2,3.1-3.1,3.2c-8.9,0.1-15.5-3.7-19.9-11.3c-0.2-0.3-0.4-0.6-0.5-1c0,0-0.1,0,0,0
		c-1.2,1-2.3,2.1-3.6,3c-7.5,5.3-17.8,4.2-24.1-2.5c-0.5-0.6-1-0.8-1.8-0.9c-6.7-0.6-11.7-5.1-12.9-11.7c-0.3-1.5-1.1-2.5-2.4-3.3
		C20.2,48.3,11.4,43.1,2.6,38c-1.2-0.7-1.8-1.6-1.7-3c0.1-1.2,0.7-2.1,1.8-2.7c1.1-0.5,2.1-0.3,3.1,0.3c5.1,2.9,10.1,5.9,15.2,8.8
		c3.8,2.2,7.6,4.4,11.4,6.6c2.9,1.7,4.6,4.2,5.1,7.5c0.7,3.9,4.1,6.7,8.1,6.6c4.9-0.1,8.5-4.6,7.6-9.4c-0.5-2.6,0-3.4,2.4-4.5
		c4-1.8,5.7-6.4,4-10.4c-1.7-4-6.4-6-10.3-4.2c-3.9,1.8-7.5,1.4-11.2-0.7c-8.3-4.9-16.7-9.7-25.1-14.6c-1.7-1-2.3-2.8-1.4-4.4
		c0.9-1.6,2.8-2,4.5-1c8.6,5,17.1,9.9,25.6,14.9c1.5,0.9,3,1,4.6,0.2c8.5-3.9,18.3,1.3,19.9,10.5c0.1,0.3,0.3,0.8,0.6,0.9
		c3.6,1.6,6.5,4,8.6,7.4C75.4,46.9,75.5,46.9,75.6,47z M52.3,66.6c4.2,2.7,8.4,3.2,12.7,1c4.8-2.4,7.1-6.5,6.8-11.9
		c-0.2-4.4-2.5-7.6-6.3-9.9c-1.2,3.1-3,5.4-5.7,7.2c-0.2,0.1-0.3,0.5-0.4,0.8c-0.2,1.3-0.2,2.7-0.5,4C58.1,61.6,55.8,64.5,52.3,66.6
		z"/>
	<path class="st1" d="M84.3,95c-0.1,4.4-1.9,8.2-5.6,11.1c-1.2,0.9-1.7,2.1-1.9,3.6c-0.4,2.8-0.9,5.6-1.3,8.4
		c-1.6,9.3-3.1,18.6-4.7,27.9c-0.3,1.8-1.1,2.9-2.5,3.2c-2.2,0.5-4.1-1.3-3.7-3.7c0.3-1.9,0.6-3.8,1-5.7c1.7-9.9,3.4-19.9,5.1-29.8
		c0.1-0.8,0.1-1.6,0.3-2.4c0.5-2.6,1.8-4.8,4-6.4c2.9-2.2,4-5.9,2.7-9.2c-1.2-3.3-4.5-5.4-8.1-5.2c-1.7,0.1-3.3,0.8-4.6,1.9
		c-1.6,1.3-3,1.3-4.5,0c-3.6-3-8.6-2.5-11.4,1.1c-2.8,3.5-2.1,8.6,1.5,11.4c3.3,2.6,4.6,6,3.9,10.1c-2,11.6-3.9,23.2-5.9,34.8
		c-0.2,1.4-0.8,2.5-2.3,2.9c-1.2,0.3-2.3,0.1-3.2-0.9c-0.7-0.8-0.9-1.8-0.7-2.8c2-11.7,4-23.5,6-35.2c0.3-1.8-0.4-3-1.7-4.1
		c-4.6-3.7-6.4-8.5-5.2-14.2c1.2-5.6,4.8-9.2,10.4-10.8c3.5-1,6.9-0.5,10.1,1.2c0.5,0.3,0.9,0.3,1.5,0C72.8,77.3,84.2,84.1,84.3,95z
		"/>
	<path class="st1" d="M24.5,79.9c-4.8-1.8-9.6-3.6-14.4-5.4c-2.4-0.9-4.9-1.8-7.3-2.8c-1.3-0.5-2-1.7-1.9-3C0.9,67.5,1.7,66.4,3,66
		c0.7-0.2,1.5-0.2,2.1,0c8.2,3,16.4,6.1,24.6,9.2c1.8,0.7,2.5,2.4,1.8,4.2c-2.9,7.4-5.1,15-6,22.9c-0.4,3.4-0.4,6.8-0.5,10.2
		c-0.1,1.4-0.7,2.6-2,3c-1.2,0.5-2.7,0.2-3.4-0.8c-0.5-0.7-0.8-1.6-0.8-2.4c-0.2-8.1,1-16.1,3.2-23.9C22.7,85.6,23.7,82.8,24.5,79.9
		z"/>
	<path class="st1" d="M84.2,149.2c-2.2,0-3.5-2-2.9-4.2c1.2-4.4,2.5-8.8,3.6-13.3c1.4-5.9,2.4-11.9,2.4-18.1c0-4.2,0.9-8.2,2.7-12
		c2.2-4.6,4-9.4,5.5-14.3c0.5-1.7,2-2.6,3.5-2.3c1.9,0.4,3,2.1,2.4,4.1c-1.5,5.1-3.4,10-5.7,14.8c-1.5,3.2-2.3,6.5-2.3,10
		c0.1,8.5-1.8,16.8-3.9,25c-0.7,2.7-1.5,5.3-2.3,7.9C86.8,148.4,85.7,149.2,84.2,149.2z"/>
	<path class="st1" d="M44.2,0.7c0.7,0.4,1.5,0.6,2.1,1.1c8.5,6.5,17,13,25.6,19.5c3.5,2.7,7.2,5.2,10.8,7.8c1.6,1.1,2,2.9,1.1,4.4
		c-1,1.5-2.9,1.9-4.5,0.7c-6-4.3-12-8.6-17.9-13.1c-6.3-4.8-12.6-9.6-18.9-14.5c-1.3-1-1.8-2.2-1.4-3.5C41.5,1.8,42.7,0.9,44.2,0.7z
		"/>
	<path class="st1" d="M93.3,68.7c-5.1,0-9.3-4.1-9.3-9.3c0-5.1,4.2-9.3,9.3-9.3c5.1,0,9.3,4.2,9.2,9.4
		C102.6,64.6,98.4,68.7,93.3,68.7z M90.2,59.5c0,1.7,1.4,3.1,3.1,3c1.7,0,3-1.4,3-3.1c0-1.7-1.4-3.1-3.1-3.1
		C91.6,56.3,90.2,57.7,90.2,59.5z"/>
	<path class="st1" d="M115,59.8c-0.1,6-2.5,11.4-7.1,15.7c-0.8,0.8-1.8,1.3-2.9,1c-1.3-0.2-2.1-1-2.5-2.2c-0.4-1.3,0-2.4,1-3.3
		c2.4-2.1,4-4.6,4.7-7.7c1.4-5.7,0-10.7-4.2-14.9c-1.8-1.9-1.2-4.7,1.2-5.3c1.2-0.3,2.3,0,3.2,0.9C112.7,48.2,114.9,53.4,115,59.8z"
		/>
	<path class="st1" d="M121.6,51.9c-1.7,0-3-1-3.3-2.5c-0.3-1.5,0.5-3,2-3.5c3-1.1,6-2.3,9-3.4c0.9-0.3,1.7-0.7,2.6-1
		c1.6-0.5,3.4,0.3,3.9,1.8c0.6,1.6-0.1,3.4-1.8,4c-3.8,1.5-7.7,2.9-11.6,4.4C122.1,51.8,121.8,51.9,121.6,51.9z"/>
	<path class="st1" d="M121.7,70.5c0.4,0.1,1,0.2,1.7,0.4c3.5,0.9,7.1,1.7,10.6,2.6c1.6,0.4,2.5,1.6,2.4,3.2
		c-0.1,1.4-1.1,2.6-2.5,2.8c-0.4,0.1-0.9,0-1.3-0.1c-4-1-8-2-12-3c-1.6-0.4-2.5-1.9-2.3-3.4C118.5,71.5,119.8,70.5,121.7,70.5z"/>
	<path class="st1" d="M129,64.3c-1.5,0-3,0-4.5,0c-1.8,0-3.1-1.3-3.2-3c0-1.7,1.2-3.1,3-3.2c3.2-0.1,6.3-0.1,9.5,0
		c1.8,0,3,1.4,3,3.2c0,1.7-1.4,3-3.2,3C132.1,64.3,130.5,64.3,129,64.3z"/>
	<path class="st1" d="M27,138c-0.5,2.9-0.9,5.9-1.5,8.8c-0.4,1.9-2.1,2.9-3.9,2.4c-1.6-0.5-2.4-2.1-2.1-4c0.4-2.3,0.7-4.6,1.1-7
		c0.1-0.4,0-0.7,0.1-1.1c0.2-1.9,1.5-3,3.3-2.9c1.7,0.1,2.9,1.5,2.9,3.3c0,0.2,0,0.3,0,0.5C26.9,138,27,138,27,138z"/>
	<path class="st1" d="M144.5,37c1.8,0,3.2,1.5,3.1,3.2c0,1.7-1.5,3.1-3.1,3.1c-1.7,0-3.1-1.4-3.1-3.1C141.4,38.4,142.8,37,144.5,37z
		"/>
	<path class="st1" d="M148.4,79.5c0,1.7-1.4,3.1-3.1,3.1c-1.8,0-3.1-1.4-3.1-3.2c0-1.7,1.4-3,3.1-3C147,76.4,148.4,77.8,148.4,79.5z
		"/>
	<path class="st1" d="M26.5,124.9c0,1.7-1.3,3.1-3,3.1c-1.8,0-3.2-1.3-3.2-3c0-1.8,1.3-3.2,3.1-3.2
		C25.1,121.9,26.4,123.2,26.5,124.9z"/>
	<path class="st1" d="M149.1,61.2c0,1.7-1.4,3.1-3.1,3.1c-1.7,0-3.1-1.3-3.1-3.1c0-1.7,1.4-3.1,3.1-3.1
		C147.8,58.1,149.1,59.4,149.1,61.2z"/>
</g>
</svg>
