<?xml version="1.0" encoding="utf-8"?>
<!-- Generator: Adobe Illustrator 24.3.0, SVG Export Plug-In . SVG Version: 6.00 Build 0)  -->
<svg version="1.1" id="Layer_1" xmlns="http://www.w3.org/2000/svg" xmlns:xlink="http://www.w3.org/1999/xlink" x="0px" y="0px"
	 viewBox="0 0 150 150" style="enable-background:new 0 0 150 150;" xml:space="preserve">
<style type="text/css">
	.st0{fill:#5F6368;}
	.st1{fill:#005BAB;}
</style>
<path class="st0" d="M2053.7-657.2c-2.1,0-3.6,0-5.1,0C2049.8-661.3,2051.5-660.2,2053.7-657.2z"/>
<path class="st0" d="M72.6,73.2c0.7-1.4,1.3-1.1,2,0C73.9,73.2,73.3,73.2,72.6,73.2z"/>
<g>
	<path class="st1" d="M73.6,71.2c-3.1,4.8-6.8,8.7-11.2,11.9C57.3,87,51.6,89.9,45.6,92c-1.7,0.6-2.7,0.1-3.3-1.6
		c-1.3-3.6-2.6-7.2-3.9-10.8c-0.7-1.9-0.1-2.8,1.7-3.6c3.8-1.9,7.8-3.5,11.3-5.8c8.2-5.5,12-13.5,12.1-23.2c0.1-13.8,0-27.7,0-41.5
		c0-3,0.6-3.6,3.5-3.6c4.6,0,9.1,0,13.7,0c2.3,0,3,0.7,3,3.1c0,13.5,0.1,27.1,0,40.6c-0.1,12.9,5.8,22,17.2,27.7
		c2.1,1,4.2,1.9,6.4,2.8c1.9,0.8,2.3,1.7,1.7,3.7c-1.3,3.6-2.6,7.1-3.9,10.7c-0.6,1.7-1.7,2.2-3.3,1.7C91.5,88.3,82.3,82.9,75.6,74
		C75,73.1,74.4,72.3,73.6,71.2z M45.8,86.9c0.3-0.1,0.5-0.1,0.6-0.1c10.6-4.3,19.5-10.5,25-20.9c0.5-1,1.2-1.9,2.3-1.6
		c0.8,0.2,1.8,0.8,2.1,1.4c4.1,7.9,10.4,13.6,18.1,17.8c2.4,1.3,4.9,2.4,7.5,3.6c0.9-2.6,1.8-5,2.6-7.3c-1.9-0.9-3.5-1.6-5.2-2.5
		c-13-6.6-19.8-17.1-19.7-31.8c0.1-12.4,0-24.8,0-37.1c0-0.6,0-1.2,0-1.9c-3.8,0-7.4,0-11.1,0c0,0.7,0,1.3,0,2
		c0,12.9,0.1,25.7,0,38.6C68,57.7,63.9,66.6,55.3,73c-3.2,2.4-6.9,4.1-10.4,6c-0.5,0.3-1.1,0.5-1.7,0.8
		C44.1,82.3,44.9,84.5,45.8,86.9z"/>
	<path class="st1" d="M129.5,75.6c-1.5,0-2.1,0.7-1.9,2.1c0,0.3,0,0.7-0.1,1c-0.2,1.3-1.2,2.1-2.4,2c-1.3-0.1-2-0.9-2.1-2.2
		c-0.1-0.8,0.2-1.9-0.3-2.2c-0.8-0.7-1.9-1-3-1.4c-0.3-0.1-0.8,0.3-1.2,0.6c-1.8,1.7-3,1.9-4.1,0.8c-1.1-1.1-0.8-2.3,0.8-4
		c0.3-0.3,0.5-0.6,0.8-0.8c-0.4-1-0.7-2-1.2-3c-0.1-0.3-0.5-0.5-0.9-0.6c-0.5-0.1-1.1,0-1.6,0c-1.4-0.1-2.3-0.9-2.4-2.1
		c-0.1-1.2,0.8-2.2,2-2.4c0.2,0,0.5-0.1,0.7,0c1.5,0.3,2-0.4,2.6-1.7c0.6-1.4,0.5-2.2-0.6-3.2c-1.2-1.1-1.3-2.3-0.4-3.3
		c0.9-1.1,2.1-1.1,3.5,0c0.1,0.1,0.2,0.2,0.4,0.3c0-0.2,0.1-0.3,0-0.4c-2.7-4.2-5.6-8.2-9.3-11.5c-3.1-2.8-6.6-3.1-10.3-1.2
		c-2.6,1.4-4.4,3.6-5.4,6.4c-0.2,0.6-0.5,1.5-1,1.7c-0.8,0.3-1.8,0.4-2.5,0.1c-1.2-0.5-1.2-1.7-0.9-2.8c0.9-3,2.6-5.5,5-7.5
		c3.8-3.2,8.2-4.3,13-3.2c1.5,0.4,2.9,1.3,4.2,2.2c4.1,3.2,7.2,7.4,10.1,11.7c0.5,0.7,1,1.5,1.7,2.5c0.1-0.4,0.2-0.6,0.2-0.7
		c0.3-1.4,1.2-2.2,2.4-2c1.4,0.2,2,1,2.1,2.4c0,0.5-0.1,1,0.1,1.4c0.1,0.4,0.4,0.9,0.7,1.1c0.8,0.4,1.8,0.7,2.8,1.1
		c1.5-1,2.6-3.6,5-1.4c1.2,1.1,0.8,2-1.6,4.8c0.4,0.9,0.7,2,1.2,2.9c0.2,0.3,0.7,0.5,1.1,0.6c0.7,0.1,1.5,0.1,2.1,0.2
		c1.1,0.3,1.6,1.2,1.5,2.4c-0.1,1-0.8,2.1-1.8,1.9c-2.4-0.4-3.3,0.9-3.8,2.8c-0.1,0.3-0.2,0.5-0.4,0.7c2.8,3.7,2.8,3.7,0.9,5.7
		c1.9,5.1,3.8,10.1,5.5,15.2c2.8,8.1,4.9,16.3,5.9,24.8c0.6,5,0.7,10-0.4,14.9c-1.7,7.1-6.6,11.2-13.9,11.6
		c-8.1,0.5-15.7-1.7-23.1-4.8c-5-2.1-9.7-4.9-14-8.2c-4.6-3.5-7.1-8.1-8-13.8c-1.1-7.5-1.5-15-1.5-22.5c0-1.6,0.9-2.7,2.2-2.7
		c1.3,0,2.3,1,2.3,2.6c0.1,3.9,0.1,7.9,0.4,11.8c0.4,4.3,1,8.5,1.7,12.8c0.4,2.6,1.8,4.7,3.8,6.5c6.2,5.6,13.6,9.1,21.4,11.6
		c4.4,1.4,8.8,2.3,13.4,2.1c7.1-0.3,10.4-3.5,11.2-10.6c0.8-7-0.3-13.8-1.8-20.6c-2.4-10.7-6.1-21-10.5-31
		C129.9,76.3,129.7,76,129.5,75.6z M125.5,59.5c-3.6,0-6.2,2.5-6.2,5.9c0,3.6,2.5,6.2,5.9,6.2c3.6,0,6.2-2.5,6.2-5.9
		C131.4,62.1,129,59.5,125.5,59.5z"/>
	<path class="st1" d="M61.7,100.6c-0.7,5.8-1.3,11.6-2.1,17.5c-0.6,4.6-2.7,8.3-6.4,11.2c-10.6,8.5-22.5,13.6-36.2,14.2
		c-3,0.1-5.9-0.4-8.6-1.6c-4.8-2.2-6.9-6.4-7.8-11.4c-1.2-6.5-0.6-13,0.7-19.4C5.7,89.5,14,69.3,26.1,50.8c2.5-3.8,5.6-7.4,8.8-10.6
		c4.8-4.8,11.3-5.2,17-1.5c3.1,2,5.3,4.8,6.4,8.4c0.6,1.7,0.1,2.9-1.3,3.4c-1.3,0.5-2.5-0.3-3.1-1.9c-1.9-5.2-6.1-8.1-11.2-7.5
		c-1.3,0.1-2.7,0.8-3.7,1.7c-3.7,2.9-6.5,6.7-9,10.6c-11.6,18-19.7,37.4-24,58.4c-1.1,5.5-1.8,11-1,16.6c0.1,1,0.3,1.9,0.5,2.8
		c1.3,5,4.3,7.5,9.5,7.8c6.3,0.4,12.2-1.1,18-3.2c5.3-2,10.2-4.6,14.9-7.8c4.8-3.3,7.3-7.6,7.7-13.3c0.5-6.5,0.8-13.1,1.2-19.6
		c0-0.5,0-1.1,0.1-1.6c0.3-1.2,1.3-2,2.4-1.8c1.2,0.2,2,0.9,2,2.2c0,2.3,0,4.6,0,6.8C61.5,100.6,61.6,100.6,61.7,100.6z"/>
	<path class="st1" d="M117.1,99.4c0-0.8,0-1.6,0-2.3c0.1-1.4,1.1-2.3,2.4-2.3c1.3,0,2.1,0.9,2.2,2.4c0,0.7-0.2,1.8,0.2,2.1
		c0.8,0.7,2,1,3,1.4c0.2,0.1,0.5,0,0.7-0.2c0.2-0.2,0.4-0.4,0.6-0.6c1.5-1.5,2.8-1.7,3.9-0.7c1.1,1.1,0.9,2.5-0.7,4
		c-0.7,0.7-0.9,1.3-0.3,2.1c0,0,0.1,0.1,0.1,0.1c0.3,1.8,1.3,2.5,3.2,2.3c1.3-0.1,2.2,0.9,2.2,2.2c0,1.3-0.8,2.2-2.1,2.3
		c-0.3,0-0.7,0-1,0c-1-0.1-1.7,0.1-1.8,1.3c0,0.2-0.1,0.4-0.2,0.5c-0.9,1.2-0.6,2.2,0.5,3.2c1.2,1,1.2,2.5,0.3,3.5
		c-0.9,1-2.3,0.8-3.5-0.2c-0.5-0.5-1.2-1.2-1.7-1.2c-1.1,0.2-2.1,0.7-3.1,1.3c-0.2,0.1-0.2,0.7-0.2,1.1c-0.1,0.7,0,1.4-0.2,2
		c-0.4,1.1-1.2,1.6-2.4,1.5c-1.3-0.1-2.2-1-2-2.1c0.5-2.6-1.5-2.9-3-3.6c-0.3-0.1-0.8,0.1-1.1,0.3c-0.5,0.4-0.9,0.9-1.4,1.3
		c-1,0.7-2,0.7-2.9-0.2c-0.9-0.9-0.9-1.9-0.3-2.9c0.1-0.1,0.1-0.2,0.2-0.2c2.3-1.3,1.1-3.1,0.4-4.7c-0.1-0.3-0.6-0.5-1-0.6
		c-0.6-0.1-1.2,0-1.7,0c-1.2-0.1-2.1-1-2.1-2.2c0-1.2,0.9-2.5,2.1-2.3c2.8,0.6,3-1.6,3.7-3.1c0.1-0.2-0.1-0.7-0.3-1
		c-0.4-0.5-0.9-0.9-1.3-1.4c-0.7-1-0.6-2.2,0.2-3c0.9-0.8,2.2-1,2.9-0.1c1.5,2.1,3.1,1.4,4.8,0.6C116.6,99.6,116.8,99.5,117.1,99.4z
		 M125.5,110c0-3.4-2.7-6.1-6.1-6.1c-3.4,0-6.2,2.7-6.2,6.2c0,3.4,2.7,6.1,6.1,6.1C122.8,116.2,125.5,113.4,125.5,110z"/>
	<path class="st1" d="M13.3,113.3c-1.1-1.5-3.6-2.8-1.6-4.9c2.2-2.2,3.4,0.4,4.9,1.5c0.3-0.2,0.6-0.4,0.9-0.5
		c1.8-0.5,2.9-1.3,2.6-3.5c-0.2-1.2,1.1-2.2,2.3-2.1c1.3,0,2.1,1,2.2,2.4c0.1,0.7-0.1,1.8,0.3,2.2c0.8,0.7,2,1,3,1.3
		c0.2,0.1,0.6-0.2,0.8-0.4c0.4-0.4,0.8-0.8,1.3-1.2c1-0.8,2.1-0.7,3,0.2c0.8,0.8,1,2.3,0.1,3c-2,1.4-1.5,2.9-0.5,4.6
		c0.2,0.4,0.7,0.7,1.1,0.8c0.7,0.2,1.5,0,2.1,0.2c1.2,0.3,1.7,1.3,1.5,2.5c-0.2,1.2-0.9,1.8-2,1.9c-2.6,0.3-3,0.6-3.7,3.1
		c-0.1,0.3,0.1,0.7,0.3,1c0.3,0.5,0.8,0.8,1.2,1.3c0.8,1,0.7,2.4-0.1,3.2c-1,0.8-2.3,1-3,0c-1.5-2-3-1.4-4.6-0.5
		c-0.4,0.2-0.7,0.7-0.8,1.1c-0.1,0.4,0,1,0,1.4c-0.1,1.4-0.9,2.2-2.1,2.3c-1.2,0.1-2.2-0.8-2.4-2.1c0,0,0-0.1,0-0.1
		c0.7-2.6-1.5-2.9-3-3.6c-0.2-0.1-0.7,0.1-1,0.2c-0.4,0.3-0.7,0.7-1,1c-1.1,1-2.5,1-3.4,0.1c-0.9-0.9-0.9-2.2,0.2-3.4
		c0.3-0.3,0.7-0.5,0.8-0.8c0.2-0.4,0.2-1,0.3-1.5c0-0.2-0.3-0.4-0.3-0.7c-0.3-1.7-1.3-2.3-3-2.2c-1.4,0.1-2.3-0.8-2.3-2
		c-0.1-1.2,0.8-2.5,2-2.4c2.4,0.3,3.2-1.1,3.7-2.9C13.1,113.8,13.2,113.6,13.3,113.3z M22.5,125.2c3.4,0,6.1-2.6,6.1-6
		c0-3.5-2.6-6.1-6.1-6.1c-3.4,0-6.1,2.7-6.1,6C16.3,122.5,19,125.2,22.5,125.2z"/>
	<path class="st1" d="M32,100.3c0.9-0.5,1.8-0.9,2.6-1.4c3.9-2.2,8.6-1.4,11.4,1.9c1.2,1.4,1.2,2.8,0.1,3.7
		c-1.1,0.9-2.3,0.7-3.5-0.6c-1.6-1.8-3.6-2-5.8-0.9c-1.5,0.7-3.1,1.6-4.7,1.8c-2.8,0.3-4.8-1.7-5-4.5c-0.1-0.9,0-1.9,0.3-2.7
		c0.7-2.1,0-3.8-1-5.6c-0.9-1.7-1.8-3.4-2.3-5.3c-0.3-1.2,0.1-2.6,0.4-3.8c0.3-1.2,1.5-1.5,2.6-1.2c1.2,0.3,1.9,1.2,1.6,2.4
		c-0.6,2.1,0.3,3.7,1.3,5.3c1.5,2.3,2.6,4.8,2.1,7.6c-0.2,1.1-0.4,2.1-0.6,3.2C31.7,100.1,31.9,100.2,32,100.3z"/>
	<path class="st1" d="M32.3,72.7c-0.2-2.4-0.4-4.7-0.7-7c-0.3-2.5-0.2-4.9,0.8-7.3c1.7-4,6-5.9,9.3-4.3c2.5,1.2,3.9,4,3.2,6.4
		c-0.4,1.3-1.3,2-2.6,1.8c-1.3-0.2-1.8-1.1-1.9-2.3c-0.1-0.6-0.3-1.4-0.8-1.6c-0.5-0.2-1.3,0-1.8,0.4c-1.3,0.9-1.7,2.4-1.7,3.8
		c0,1.7,0.4,3.5,0.4,5.2c0,2.2,0.2,4.5-0.3,6.6c-0.6,2.5-3.3,3.7-5.5,3.1c-1.4-0.4-2.2-1.4-2-2.6c0.2-1.2,1.1-1.9,2.6-2
		C31.4,72.8,31.6,72.8,32.3,72.7z"/>
</g>
</svg>
