<?xml version="1.0" encoding="utf-8"?>
<!-- Generator: Adobe Illustrator 24.3.0, SVG Export Plug-In . SVG Version: 6.00 Build 0)  -->
<svg version="1.1" id="Layer_1" xmlns="http://www.w3.org/2000/svg" xmlns:xlink="http://www.w3.org/1999/xlink" x="0px" y="0px"
	 viewBox="0 0 150 150" style="enable-background:new 0 0 150 150;" xml:space="preserve">
<style type="text/css">
	.st0{fill:#5F6368;}
	.st1{fill:#005BAB;}
</style>
<path class="st0" d="M2053.7-657.2c-2.1,0-3.6,0-5.1,0C2049.8-661.3,2051.5-660.2,2053.7-657.2z"/>
<path class="st0" d="M647.6-31.1c1.8-3.6,3.4-2.9,5.2,0C651-31.1,649.5-31.1,647.6-31.1z"/>
<g>
	<path class="st1" d="M33.7,98.5C25.1,92.6,19.8,84.8,18,74.7c-1.3-0.1-2.6,0-3.8-0.2c-6.1-0.9-9.7-6.7-8.1-12.6
		c0.2-0.6-0.1-1.4-0.4-2c-5.6-9.3-6.5-19-1.9-28.9c2.6-5.7,7.1-9.1,13.6-9.5c0.6,0,1.3-0.7,1.6-1.2c2.5-4.3,5.5-8.1,9.5-11.2
		C34.8,4.3,42,2.8,49.8,3.2c8.9,0.5,17.4,3.2,26,5.4c4.7,1.2,9.5,2.2,14.3,2.8c5.2,0.7,10.2-0.2,14.6-3.5c2-1.5,4.2-0.5,4.3,1.9
		c0.4,11.1-0.3,22.1-3.8,32.8c-1.7,5.3-4,10.3-7.1,15c-0.5,0.8-0.7,1.3-0.2,2.3c3.5,6.7-0.9,14.2-8.5,14.5c-2.6,0.1-2.6,0.1-3.2,2.5
		c-2.1,8.6-6.8,15.5-14,20.7c-0.3,0.2-0.7,0.5-1.1,0.9c8.7,4,18.2,6.4,24.5,14.4c0.4-0.3,0.8-0.6,1.2-1c9-7.7,19.8-7.7,28.8,0.1
		c2.8,2.5,5.6,4.9,8.5,7.3c1.3,1.1,2.8,1.6,4.5,1.8c4.4,0.3,6.7,3.3,5.7,7.6c-1.7,7.4-5.9,13.1-12.5,16.9c-1.4,0.8-3.3,1.2-4.9,1.2
		c-38.4,0.1-76.8,0.1-115.2,0c-4.9,0-8.2-3.2-8-8c0.1-5,0-10.1,0.8-15C5.9,115.1,11.3,109,19,105c4.1-2.1,8.5-3.8,12.7-5.6
		C32.3,99.1,32.9,98.8,33.7,98.5z M104.4,14.4c-5.4,2.6-10.9,2.9-16.4,2c-4.6-0.7-9.1-1.9-13.6-2.9c-7.3-1.7-14.6-3.8-22-5
		c-7.7-1.3-15.2-0.1-21.5,5.1c-3.6,3-6.3,6.6-8.5,10.8c-0.8,1.6-1.9,2.3-3.8,2.2c-4.5-0.3-7.7,1.7-9.9,5.5C6.2,36.3,5.5,41,6,45.9
		c0.4,4,1.6,7.7,3.7,10.7c2.8-0.7,5.3-1.3,8-2c0-1.1,0-2.4,0-3.8c0.1-3,1.3-5.4,3.8-7.1c5.5-3.8,11.5-5.6,18.1-5.2
		c5,0.3,9.8,1.8,14.5,3.4c8.2,2.7,16.4,4.7,25.1,2.6c4.8-1.1,8.3,2.2,8.6,7.1c0.1,1,0,2,0,3.1c1,0.1,1.7,0.1,2.4,0.2
		c0.8,0.1,1.6,0.1,2.3,0.5c0.9,0.4,1.4,0.2,1.9-0.6C102.3,42.5,104.5,28.9,104.4,14.4z M83.2,62.3c-0.1,0-0.3,0-0.4,0
		c0-3.2,0-6.4,0-9.6c0-2.7-1.2-3.7-3.9-3.1c-6.1,1.4-12.2,1.2-18.2-0.5c-5-1.4-10-3-15.1-4.4c-7.2-2-14.1-1.6-20.7,2.5
		c-1.8,1.2-2.7,2.6-2.7,4.7c0,3.6-0.1,7.2,0,10.7c0.1,3.6-0.1,7.3,0.4,10.9c2,13.8,14,24.9,27.5,25.6c15,0.8,27.9-8.2,31.4-22.5
		C82.8,72,82.7,67.1,83.2,62.3z M35.1,102.9c-5.4,2.6-10.7,4.8-15.8,7.5c-6.3,3.5-9.9,9.1-10.6,16.2c-0.4,3.9-0.3,7.8-0.4,11.7
		c0,2.6,0.8,3.5,3.5,3.5c24.3,0,48.6,0,72.9,0c0.4,0,0.9-0.1,1.5-0.1c-0.9-1-1.6-1.9-2.3-2.7c-2.6-3.4-4.8-7-5.2-11.3
		c-0.3-3.7,1.5-6.2,5.1-6.5c3.6-0.3,5.7-2.7,8.2-4.7c-3.3-4.9-15-11.7-22.4-13.1c-3.4,10.7-9.2,16-17.3,15.9
		C45.8,119.1,37.8,115,35.1,102.9z M111.2,125.8c-8.6,0-17.2,0-25.8,0c-2.2,0-2.5,0.4-1.9,2.5c1.6,5.4,4.8,9.6,9.5,12.7
		c0.9,0.6,2.1,0.8,3.2,0.8c10.1,0.1,20.2,0.1,30.3,0c0.9,0,2-0.2,2.8-0.6c4.9-2.9,8.1-7.2,9.8-12.6c0.7-2.2,0.1-2.7-2.1-2.7
		C128.4,125.8,119.8,125.8,111.2,125.8z M128.3,120.9c-2.5-2.2-4.6-4.2-6.8-6.1c-4.3-3.5-9.2-4.3-14.5-2.9c-5.2,1.3-8.5,5.4-12.5,9
		C105.8,120.9,116.8,120.9,128.3,120.9z M40.3,101.9c0.3,7,6.5,13,12.8,12.6c5.9-0.4,12-7.1,11.3-12.5
		C56.5,104.8,48.5,104.8,40.3,101.9z M87.5,69.6c2.6,0.4,4.7-0.1,6.1-2.2c1-1.5,0.9-3.9-0.3-5.4c-1.4-1.9-3.4-2.3-5.7-1.9
		c0,0.5-0.1,1-0.1,1.5C87.5,64.2,87.5,66.8,87.5,69.6z M17.3,60c-2.6-0.4-4.6,0.1-6,2.3c-1.1,1.7-1,3.9,0.2,5.4
		c1.5,1.9,3.4,2.3,5.7,1.9c0-0.3,0.1-0.6,0.1-0.9C17.3,65.9,17.3,63,17.3,60z"/>
	<path class="st1" d="M119.5,52.9c-1.2-1.1-2.3-2-3.3-3c-3.4-3.5-3.4-8.8-0.1-12.1c3.3-3.3,8.6-3.3,12.1,0.1c1,1,1.9,2,3,3.3
		c1.2-1.3,2.1-2.4,3.1-3.4c3.4-3.3,8.7-3.3,12,0c3.3,3.3,3.3,8.6,0,12c-1,1-2.1,1.9-3.3,2.9c1.2,1.1,2.2,1.9,3.1,2.7
		c3.7,3.2,4,8.8,0.8,12.4c-3.2,3.5-8.7,3.7-12.2,0.4c-1.1-1-2-2.2-3.3-3.6c-1.2,1.3-2.1,2.4-3.1,3.4c-3.5,3.4-9,3.3-12.3-0.1
		c-3.3-3.4-3.2-8.6,0.3-12.1C117.3,54.9,118.3,54.1,119.5,52.9z M122.9,40.3c-2,0.1-3.2,0.7-3.9,2c-0.7,1.4-0.4,2.7,0.6,3.9
		c1.3,1.4,2.7,2.7,4,4.1c2,2,2,3.3,0,5.3c-1.2,1.2-2.5,2.5-3.7,3.7c-1.7,1.8-1.8,3.7-0.2,5.3c1.5,1.6,3.6,1.5,5.4-0.2
		c1.3-1.3,2.6-2.6,3.9-3.8c1.9-1.8,2.9-1.9,4.7-0.1c1.3,1.3,2.5,2.6,3.9,3.8c1.7,1.6,3.9,1.7,5.3,0.3c1.5-1.4,1.4-3.7-0.3-5.4
		c-1.3-1.4-2.7-2.7-4.1-4.1c-1.4-1.5-1.4-2.9,0-4.4c1.4-1.4,2.8-2.8,4.2-4.2c1.6-1.7,1.7-3.7,0.2-5.3c-1.5-1.5-3.5-1.5-5.3,0.2
		c-1.2,1.1-2.4,2.3-3.5,3.5c-2.5,2.5-3.1,2.5-5.6-0.1c-1.2-1.2-2.3-2.4-3.5-3.5C124.2,40.9,123.3,40.5,122.9,40.3z"/>
	<path class="st1" d="M99.9,92.5c0-1.2,0.7-2.9,2-4.5c1.9-2.3,1.9-3.3,0.3-5.7c-0.9-1.3-0.7-2.5,0.4-3.4c1-0.8,2.3-0.7,3.3,0.3
		c2.9,2.8,3.1,7.5,0.6,11c-2,2.7-2,3-0.3,5.8c0.7,1.2,0.6,2.3-0.4,3.2c-1.1,0.9-2.3,0.9-3.4,0C100.6,97.6,99.8,95.6,99.9,92.5z"/>
	<path class="st1" d="M123,85c-0.1,2.2-0.8,4-2.1,5.5c-1.8,2-1.8,3.1-0.3,5.3c0.9,1.3,0.8,2.6-0.2,3.4c-1,0.8-2.7,0.7-3.7-0.3
		c-2.9-2.8-3-7.7-0.3-10.8c2.1-2.4,2.2-3.2,0.4-5.9c-0.8-1.2-0.6-2.5,0.4-3.3c1-0.8,2.3-0.7,3.3,0.3C122.2,80.8,123,82.8,123,85z"/>
	<path class="st1" d="M52.3,81.6c2.9,0,5.4,0.9,7.6,2.8c1.3,1.1,1.5,2.4,0.6,3.5c-0.9,1.2-2.3,1.3-3.7,0.3c-3-2.2-5.7-2.2-8.8-0.1
		c-1.4,1-2.9,0.9-3.7-0.2c-0.9-1.2-0.6-2.7,0.7-3.8C47.2,82.5,49.6,81.6,52.3,81.6z"/>
	<path class="st1" d="M69.9,70.2c-3.6-0.2-6.8-1.3-9.2-4.1c-0.8-0.9-1.2-2.1-0.3-3.1c0.6-0.6,1.7-1.1,2.5-1.1c0.6,0,1.2,0.7,1.8,1.2
		c1.6,1.6,3.5,2.5,5.8,2.2c2.1-0.3,3.2,0.9,3.3,2.3c0.1,1.5-1.2,2.5-3.2,2.6C70.3,70.2,70.1,70.2,69.9,70.2z"/>
	<path class="st1" d="M35,65.2c1.8,0,3.8-0.8,5.3-2.6c0.8-1,1.8-1.5,3.1-0.8c1.5,0.8,1.9,2.4,0.7,3.7c-2.6,3.1-6,4.5-10,4.5
		c-2.1,0-3.2-1.1-3-2.7C31.2,65.7,32.4,65,35,65.2z"/>
</g>
</svg>
