<?xml version="1.0" encoding="utf-8"?>
<!-- Generator: Adobe Illustrator 24.3.0, SVG Export Plug-In . SVG Version: 6.00 Build 0)  -->
<svg version="1.1" id="Layer_1" xmlns="http://www.w3.org/2000/svg" xmlns:xlink="http://www.w3.org/1999/xlink" x="0px" y="0px"
	 viewBox="0 0 150 150" style="enable-background:new 0 0 150 150;" xml:space="preserve">
<style type="text/css">
	.st0{fill:#5F6368;}
	.st1{fill:#005BAB;}
</style>
<path class="st0" d="M2053.7-657.2c-2.1,0-3.6,0-5.1,0C2049.8-661.3,2051.5-660.2,2053.7-657.2z"/>
<path class="st0" d="M647.6-31.1c1.8-3.6,3.4-2.9,5.2,0C651-31.1,649.5-31.1,647.6-31.1z"/>
<g>
	<path class="st1" d="M105.6,88.3c1.3,0.3,2.5,0.7,3.9,1c0.4-0.9,0.8-1.7,1.1-2.5c1.8-4,5.4-5.9,9.5-4.5c6.5,2.2,13,4.5,19.4,6.9
		c4.4,1.7,6,5.5,4.3,10.3c-0.7,2-0.9,3.5,1.1,5.1c2.9,2.3,4.2,5.8,4.3,9.5c0.1,10.6,0,21.1,0.1,31.7c0,2.9-1.6,3.4-4.1,3.4
		c-37.7,0-75.5,0-113.2,0c-9.1,0-18.1-0.1-27.2,0c-2.9,0-3.9-1.1-3.9-3.9c0.1-10.2,0-20.3,0-30.5c0-4.3,1.5-8,4.9-10.8
		c1.3-1.1,1.4-2.1,0.8-3.6c-2.2-6.5-0.7-9.5,5.8-11.9c4.9-1.7,9.7-3.5,14.6-5.2c7.6-2.7,10.1-1.6,13.4,5.9c1.2-0.3,2.5-0.6,4.1-0.9
		c-1.3-2.1-2.4-4-3.7-5.7c-0.4-0.6-1.4-0.9-2.2-1c-3,0-5.3-1.3-7.1-3.8c-0.7-0.9-1.6-1.7-2.5-2.5c-7.6-6.2-7.7-17.2-0.1-23.3
		c1.8-1.4,1.8-2.6,1.3-4.5c-4.1-16.5,0.6-30.8,13-39.9c4.9-3.6,10.4-6.3,16.5-6.5c10.5-0.3,21.1-0.2,31.6,0.3
		c3.3,0.1,6.6,2.8,9.9,2.8c3.1,0,6.1-2.4,9.4-3.1c9.2-1.9,18.6,3.7,21.9,12.6c3.3,9-0.2,19-8.5,23.8c-2.1,1.2-3.5,2.4-3.4,4.9
		c0,0.2-0.1,0.4-0.1,0.6c-1.6,4.4-1.5,7.9,2.6,11.6c4.2,3.8,4.4,9.5,2.2,14.7c-2.2,5.4-6.4,8.6-12.2,9.2c-1.8,0.2-2.6,0.8-3.3,2.3
		C108.6,83.4,107.1,85.7,105.6,88.3z M5.9,144c46.2,0,92.2,0,138.4,0c0-1.4-0.2-2.6,0-3.8c0.7-4-1-6.2-4.6-8.1
		C97.7,110,55.4,109.6,13,130.8C5.1,134.7,5.2,134.9,5.9,144z M109.1,60.1c0-1-0.1-2,0-3c0.5-3.6-0.7-6.4-3.2-9.1
		c-3.1-3.2-5.8-6.8-8.7-10.2c-8-9.5-8-9.5-20.4-7.4c-0.3,0-0.6,0.2-0.9,0.2c-1.7,0-2.3,0.8-2.8,2.4c-1.7,5.6-7.7,7.6-12.4,4.2
		c-1.5-1.1-2.5-0.9-3.6,0c-4.8,4.1-9.7,8.2-14.3,12.5c-1.2,1.1-1.6,3.3-1.9,5c-0.6,4.8,0,9.3,3.5,13.3c2.2,2.6,3.1,6,1.1,9.2
		c-1,1.6-0.7,2.7,0.2,4c0.9,1.2,1.8,2.4,2.5,3.7c1.2,1.9,2.7,2.2,4.8,1.8c14.6-2.5,29.3-2.5,43.9,0c1.9,0.3,3.1,0,4.3-1.6
		C107.3,77.8,109.6,69.4,109.1,60.1z M5.5,128.9c46.7-24.7,92.6-24.6,139.1,0c-1.5-7.3,2.1-14.8-3.3-21.3c-3.4,4.8-6.1,6.1-10.2,4.7
		c-6.4-2.2-12.8-4.4-19.1-6.8c-4-1.5-5.7-5-4.8-9.1c0.2-0.7,0.4-1.5,0.6-2.4c-22-5.5-43.7-5.5-65.6,0c1.8,7.2,0.4,9.8-6.4,12.3
		c-4.7,1.7-9.3,3.5-14,5c-2.3,0.7-5,1.6-7.2,1.1c-2.2-0.5-4.1-2.6-6.5-4.2C3.5,114.2,6.8,121.7,5.5,128.9z M113.9,49.3
		c8-23.4-6.4-43.6-30.3-43.6c-8.3,0-16.8-0.5-25,0.7c-18.3,2.8-30.6,23-22.4,42.6c0.8-0.7,1.6-1.2,2.2-1.9c4.9-6,10.6-11,17.3-14.9
		c0.7-0.4,1.2-1.4,1.7-2.2c2-3.4,3.7-7,5.8-10.3c1.2-1.9,3-1.7,4.5,0c1,1.2,2.1,2.5,2.8,3.9c1,2,2.3,2.4,4.5,2.1
		c4.9-0.6,9.9-1,14.8-1c1.4,0,3.3,0.9,4.2,2c5.8,6.6,11.3,13.4,17,20C111.8,47.7,112.8,48.3,113.9,49.3z M106.8,7.8
		c8.5,6.6,13.2,15.1,14.4,25.6c7.2-3.6,9.8-12.5,6.1-19.6C123.4,6.4,114.6,3.7,106.8,7.8z M33.9,101.5c4.4-1.2,4.9-2,3.6-5.7
		c-0.8-2.2-1.6-4.5-2.4-6.7c-0.7-2.2-2.2-2.7-4.2-2c-6.1,2.1-12.2,4.3-18.2,6.5c-2.1,0.8-2.6,2.2-1.9,4.3c0.8,2.2,1.6,4.5,2.4,6.7
		c1.4,3.7,2.6,4.1,6.2,1.8c-0.7-1.9-1.3-3.9-2-5.8c-0.6-1.7-0.4-3.2,1.4-3.5c0.9-0.1,2.5,0.9,3,1.9c1.1,1.8,1.6,4,2.4,6.2
		c1.8-0.7,3.3-1.3,5-1.9c-0.8-2.2-1.7-4.1-2-6c-0.2-1.2,0.3-3.2,1.1-3.7c1.8-1,2.9,0.5,3.5,2.1C32.5,97.7,33.2,99.5,33.9,101.5z
		 M116.1,101.4c0.7-2.1,1.4-3.9,2.1-5.8c0.6-1.6,1.5-2.7,3.3-2.1c1.8,0.6,1.9,2.1,1.3,3.7c-0.7,2-1.4,4-2.1,6.2
		c1.8,0.6,3.3,1.1,5,1.7c0.8-2.3,1.4-4.4,2.4-6.3c0.5-0.9,2.1-1.2,3.1-1.8c0.4,1.2,1.4,2.4,1.2,3.4c-0.3,2.1-1.3,4.1-2,6.1
		c4,2.1,5,1.7,6.3-2.1c0.8-2.2,1.6-4.5,2.4-6.7c0.7-1.9,0.2-3.4-1.8-4.1c-6.2-2.2-12.3-4.5-18.5-6.6c-1.9-0.7-3.3-0.1-4,1.9
		c-0.8,2.3-1.6,4.5-2.4,6.7C111.2,99.6,111.7,100.5,116.1,101.4z M114.2,54.1c-0.3,6.6-0.7,13.1-1,19.5c5-1.1,8.2-4.6,8.4-9.2
		C121.9,59.4,119.2,55.6,114.2,54.1z M35.6,54c-3.8,1.1-6.1,3.6-7,7.3c-0.8,3.3-0.2,6.4,2.2,8.8C34.9,65.5,37.6,60.6,35.6,54z
		 M38.5,67.5c-1.2,2-2.3,3.3-2.7,4.9c-0.3,1.1,0,3,0.8,3.6c0.8,0.6,2.8,0.7,3.6,0.1c0.8-0.6,1.3-2.4,1-3.5
		C40.9,70.9,39.7,69.6,38.5,67.5z M65.5,25.3c-3.3,3.8-4.1,6.5-2.2,7.7c1,0.7,3.1,0.7,4.2,0.1C69.5,31.9,68.8,29.4,65.5,25.3z"/>
	<path class="st1" d="M94.2,83.9c-5.4,0.1-9.7-5.4-7.6-10.4c1.3-3.2,3.6-6.1,5.7-9c1.1-1.5,2.7-1.4,3.8,0.1c2,2.8,4.2,5.6,5.5,8.7
		C103.7,78.3,99.7,83.8,94.2,83.9z M94.1,69.7c-1.2,2-2.4,3.4-2.8,5.1c-0.3,1.1,0.3,2.8,1.1,3.5c0.7,0.6,2.7,0.6,3.4,0
		c0.8-0.7,1.3-2.5,1.1-3.6C96.5,73.1,95.3,71.7,94.1,69.7z"/>
	<path class="st1" d="M92.8,61.2c-2.8-1.6-5.4-2.7-7.6-4.4c-0.6-0.4-0.1-2.4-0.1-3.6c1.2,0.1,2.6-0.2,3.4,0.4c3.2,2.3,5.2,2.3,8.5,0
		c0.8-0.6,2.3-0.2,3.4-0.3c0,1.2,0.5,3.2-0.1,3.6C98.2,58.5,95.7,59.7,92.8,61.2z"/>
	<path class="st1" d="M92.8,40.9c2.8,1.6,5.4,2.7,7.6,4.4c0.6,0.5,0.1,2.4,0.1,3.6c-1.2-0.1-2.6,0.2-3.4-0.4c-3.3-2.3-5.3-2.3-8.6,0
		c-0.8,0.6-2.3,0.3-3.4,0.4c0-1.2-0.5-3.2,0.1-3.6C87.4,43.7,90,42.5,92.8,40.9z"/>
	<path class="st1" d="M57.4,61.2c-2.8-1.4-5.4-2.4-7.5-4c-0.7-0.5-0.3-2.5-0.5-3.8c1.2,0.1,2.7-0.2,3.6,0.4c3,2.1,5.4,2.1,8.3,0
		c0.9-0.6,2.4-0.3,3.6-0.4c-0.1,1.3,0.3,3.2-0.3,3.6C62.6,58.6,60.1,59.7,57.4,61.2z"/>
	<path class="st1" d="M65.8,47.5c-0.4,0.5-0.7,1.4-1.3,1.6c-0.8,0.2-2,0.2-2.7-0.3c-4.2-2.8-4.8-2.7-9.2,0c-0.7,0.5-2.3,0.5-2.9,0
		c-0.6-0.5-1-2.1-0.6-2.8c1.8-3.2,4.9-4.2,8.3-4.1c3.4,0,6.3,1.1,8.1,4.1C65.6,46.4,65.6,46.8,65.8,47.5z"/>
	<path class="st1" d="M75.2,60.5c2.2,1.3,4.2,2.2,5.9,3.6c0.5,0.4,0.4,2.3-0.1,3.1c-0.4,0.5-2.2,0.8-2.8,0.3c-2.2-1.7-4-1.7-6.2,0
		c-0.6,0.5-2.5,0.1-3-0.5c-0.5-0.7-0.4-2.6,0.2-3.1C70.8,62.6,72.9,61.7,75.2,60.5z"/>
</g>
</svg>
