<?xml version="1.0" encoding="utf-8"?>
<!-- Generator: Adobe Illustrator 24.3.0, SVG Export Plug-In . SVG Version: 6.00 Build 0)  -->
<svg version="1.1" id="Layer_1" xmlns="http://www.w3.org/2000/svg" xmlns:xlink="http://www.w3.org/1999/xlink" x="0px" y="0px"
	 viewBox="0 0 150 150" style="enable-background:new 0 0 150 150;" xml:space="preserve">
<style type="text/css">
	.st0{fill:#5F6368;}
	.st1{fill:#005BAB;}
</style>
<path class="st0" d="M2053.7-657.2c-2.1,0-3.6,0-5.1,0C2049.8-661.3,2051.5-660.2,2053.7-657.2z"/>
<path class="st0" d="M647.6-31.1c1.8-3.6,3.4-2.9,5.2,0C651-31.1,649.5-31.1,647.6-31.1z"/>
<g>
	<path class="st1" d="M72.5,129.1c-0.8,2.4-1.5,4.4-2.1,6.4c-1,2.9-1.9,5.8-2.8,8.8c-0.5,1.6-1.4,2.3-3.1,2.3c-12.8,0-25.5,0-38.3,0
		c-2,0-2.9-0.7-3.2-2.7c-1.5-10.2-2.9-20.5-4.5-30.7c-0.6-3.4-2-6.6-2.9-9.9c-1.4-5.4-2.7-10.8-4.1-16.2c-0.2-0.7-0.6-1.4-1.2-1.9
		c-1.1-1-2.3-1.8-3.4-2.7C-2.3,74.7-2.8,61,6,52.8c5.3-4.9,10.9-9.6,16.3-14.5c0.7-0.6,1.3-1.5,1.5-2.4c3-10,5.9-19.9,8.8-29.9
		c0.6-2.1,1.2-2.6,3.3-2.6c24.5,0,48.9,0,73.4,0c1,0,2.3,0.5,3,1.2c10.4,9.8,20.8,19.6,31.2,29.5c9,8.6,8.9,21.4-0.2,29.9
		c-9.7,9.1-19.4,18.2-29.1,27.2c-0.9,0.8-1.2,1.7-1,2.9c1.2,10,2.4,20,3.6,30c0.8,6.3,1.5,12.5,2.3,18.8c0.2,2-0.9,3.1-3.2,3.1
		c-11.3,0.1-22.6,0.2-33.9,0.3c-0.3,0-0.6,0-0.9,0c-2.6,0-3.1-0.3-3.9-2.9c-1.4-4.3-2.8-8.5-4.1-12.8
		C73,130.4,72.8,129.9,72.5,129.1z M27.8,141.4c0.3,0.1,0.4,0.1,0.6,0.1c11.3,0,22.6,0,33.9,0c0.9,0,1.1-0.5,1.3-1.2
		c1.9-5.9,3.8-11.8,5.8-17.7c0.3-0.9,0.1-1.4-0.6-2c-1.7-1.4-3.4-2.8-4.9-4.4c-0.7-0.8-1.3-1.9-1.3-3c-0.1-4.1-0.1-8.3,0-12.4
		c0-1-0.2-1.5-1.4-1.7c-12.2-2.2-24.3-4.5-36.5-6.8c-2.4-0.4-4.8-0.9-7.6-1.4c1.2,4.1,2.4,7.8,3.5,11.5c1,3.4,2.3,6.8,2.9,10.4
		C25.1,122.2,26.4,131.8,27.8,141.4z M41.2,79.2C59.2,81.7,77,82,94.9,80c-0.6-2.6-1.2-5-1.8-7.4c-0.5-1.7,0-2.8,1.5-3.7
		c0.9-0.5,1.7-1.2,2.6-1.7c1-0.5,1.2-1.1,0.9-2.3c-1-2.8-1.8-5.6-2.6-8.4c-0.3-1-0.3-2.1-0.1-3c0.5-3.3,1.2-6.5,1.8-9.9
		c-16.9,0-33.6,0-50.4,0c0.2,1.2,0.3,2.2,0.6,3.3c1.6,5.8,1.6,11.4-0.9,17.2C44.3,68.9,43,74,41.2,79.2z M97.9,8.6
		c-17.2,0-34.2,0-51.3,0c-1.2,4.9-2.5,9.6-3.7,14.4c-1.2,4.9-0.6,9.7,1.4,14.4c0.3,0.8,0.7,1.2,1.7,1.2c17.1,0,34.3,0,51.4-0.1
		c0.5,0,1.3-0.5,1.5-0.9c0.9-2.8,2-5.5,2.4-8.4C102.1,22.1,99,15.5,97.9,8.6z M67.5,99.5c0,2.1,0,4,0,6c0,2.5-0.6,5.2,0.3,7.3
		c0.9,2,3.4,3.3,5.1,5c0.8,0.8,1.6,1.8,1.9,2.9c2.2,6.4,4.4,12.8,6.5,19.3c0.4,1.2,0.8,1.6,2.2,1.6c9.7-0.2,19.4-0.2,29.2-0.3
		c0.4,0,0.8-0.1,1.2-0.1c-1.9-15.6-3.7-31.1-5.6-46.6C94.6,96.1,81.1,97.8,67.5,99.5z M103,8.5c0.1,0.7,0.3,1.3,0.4,1.8
		c0.9,4.3,2,8.5,2.8,12.8c0.2,1.2,0.7,2,1.5,2.8c7.1,7.1,14.2,14.2,21.3,21.3c1.6,1.6,1.7,2.8,0.3,4.3c-4.9,5-9.9,10.1-14.9,15.1
		c-1.2,1.2-2.4,1.2-3.8,0.1c-1-0.9-2-1.8-3.1-2.7c-1.4-1.1-3-1.6-4.9-1.1c0.4,1.2,0.7,2.3,1,3.4c0.5,1.5,0.1,2.5-1.2,3.4
		c-1.1,0.7-2.1,1.5-3.3,2.2c-0.7,0.4-1,0.9-0.7,1.8c0.4,1.3,0.7,2.6,1,3.9c1,4.1,2.1,8.3,3.1,12.5c2.1-0.3,4.1-0.5,6.1-0.8
		c0.4-0.1,0.8-0.4,1.2-0.7c10.2-9.5,20.4-19,30.5-28.6c6.4-6,6.5-15.5,0.1-21.6c-10.2-9.8-20.5-19.4-30.7-29.1
		c-0.4-0.3-0.9-0.7-1.3-0.7C106.7,8.4,104.9,8.5,103,8.5z M41.3,42.7c-0.2-0.3-0.2-0.5-0.3-0.7c-3.9-7.2-4.6-14.6-2.4-22.4
		c1-3.6,1.9-7.3,2.8-11c-1.5,0-2.9,0-4.3,0C37,9,36.9,9.3,36.8,9.7C34,19,31.3,28.4,28.6,37.8c-0.5,1.7-1.3,3-2.6,4.1
		c-5.4,4.7-10.8,9.4-16.1,14.2C4.4,61,3.4,67.4,7.1,73.7c0.8,1.4,1.8,2.7,2.7,4.1c0.2,0.3,0.3,0.7,0.5,1.1c0.3-2,0.4-3.5,0.3-5.1
		c-0.1-1.3,0.2-2.5,1.4-3.1c3.5-1.9,4.3-4.7,3.4-8.3c-0.3-1.2,0.3-2.2,1.4-2.9c1.9-1.2,3.7-2.5,5.6-3.8C28.6,51.3,34.9,47,41.3,42.7
		z M123.9,49.8c-6-6-11.9-11.9-17.7-17.7c-0.6,1.9-1.1,4.1-2.1,6.1c-1.4,2.8-2,5.7-2.5,8.6c-0.4,2.4-0.8,4.7-1.4,7.1
		c-0.4,1.6,0.1,2.8,0.8,4.2c4.4-1.1,8,0.3,10.9,3.2C116.1,57.4,120,53.6,123.9,49.8z M62.4,94.2c0-2.8,0-5.3,0-7.7
		c-15.5-2.1-30.9-4.2-46.4-6.3c0.2,1.8,0.3,3.6,0.5,5.4C31.8,88.5,47.1,91.3,62.4,94.2z M42.6,49.3c-0.6,0.4-1.1,0.6-1.6,0.9
		c-6.3,3.9-12.6,7.8-18.9,11.8c-2,1.2-2.1,1.5-1.2,4.3c6.2,0,12.5,0,18.8,0c0.4,0,0.9-0.6,1.1-1c1-2.6,1.9-5.3,2.8-8
		c0.1-0.4,0.2-0.8,0.2-1.2C43.4,53.8,43,51.6,42.6,49.3z M67.5,94.4c10.1-1.3,20-2.5,30-3.7c-0.5-2-1-3.8-1.4-5.4
		c-9.7,0.4-19.2,0.9-28.7,1.3C67.5,89.1,67.5,91.7,67.5,94.4z M38.8,71c-5.8,0-11.3,0.2-16.8-0.1c-2.7-0.1-4.2,1.3-5.9,2.8
		c-0.6,0.5-0.6,1.1,0.4,1.3c1,0.2,1.9,0.3,2.9,0.5c5.6,1,11.2,1.9,16.9,2.9C37,76,37.8,73.8,38.8,71z"/>
	<path class="st1" d="M75,65c0,0.3,0,0.5,0,0.8c0,1.8-1,3-2.5,2.9c-1.5,0-2.4-1.1-2.5-3c0-0.6,0-1.2,0-1.7c0.1-1.7,1.1-2.8,2.5-2.8
		c1.5,0,2.4,1.1,2.5,2.8C75,64.4,75,64.7,75,65z"/>
</g>
</svg>
