<?xml version="1.0" encoding="utf-8"?>
<!-- Generator: Adobe Illustrator 24.3.0, SVG Export Plug-In . SVG Version: 6.00 Build 0)  -->
<svg version="1.1" id="Layer_1" xmlns="http://www.w3.org/2000/svg" xmlns:xlink="http://www.w3.org/1999/xlink" x="0px" y="0px"
	 viewBox="0 0 150 150" style="enable-background:new 0 0 150 150;" xml:space="preserve">
<style type="text/css">
	.st0{fill:#5F6368;}
	.st1{fill:#005BAB;}
</style>
<path class="st0" d="M2053.7-657.2c-2.1,0-3.6,0-5.1,0C2049.8-661.3,2051.5-660.2,2053.7-657.2z"/>
<g>
	<path class="st1" d="M0.6,147.4c0-30.4,0-60.9,0-91.3c0.9-2.2,2.6-3,4.9-3c8.1,0.1,16.2,0,24.3,0c0.5,0,1,0,1.6,0
		c0-2.2,0-4.1,0-6.1c-4.1-0.8-4.8-1.8-4.8-5.9c0-2.2,0-4.4,0-6.5c0-4.4,1.2-5.7,5.6-5.7c4.8,0,9.7,0,14.5,0c0.5,0,1,0,1.6,0
		c0-0.8,0-1.3,0-1.8c0-7.2,0-14.4,0-21.7c0-3.1,1.3-4.4,4.3-4.4c15,0,29.9,0,44.9,0c3,0,4.3,1.4,4.3,4.4c0,7.3,0,14.5,0,21.8
		c0,0.5,0,1,0,1.7c0.7,0,1.2,0,1.7,0c5.2,0,10.4,0,15.6,0c2.7,0,4.3,1.5,4.4,4.2c0.1,3.2,0.1,6.4,0,9.6c-0.1,2.4-1.4,3.8-3.8,4.1
		c-0.3,0-0.6,0.1-0.9,0.2c0,2.1,0,4,0,6.1c0.6,0,1.2,0,1.7,0c8.1,0,16.2,0,24.3,0c3.5,0,4.8,1.3,4.8,4.9c0,29.2,0,58.4,0,87.7
		c0,2.6-0.6,3.2-3.2,3.2c-10.9,0-21.8,0-32.7,0c-36.5,0-73,0-109.5,0C2.6,148.9,1.3,148.9,0.6,147.4z M31.4,70.4c-9,0-17.7,0-26.4,0
		c0,24.7,0,49.4,0,74c8.8,0,17.6,0,26.4,0c0-0.7,0-1.3,0-1.8c0-10.2,0-20.4,0-30.5c0-0.6-0.1-1.4,0.2-1.8c0.5-0.6,1.4-1.3,2.1-1.4
		c1-0.1,1.8,0.6,1.9,1.8c0.1,0.5,0,1.1,0,1.6c0,10.2,0,20.4,0,30.5c0,0.6,0,1.1,0,1.7c4.8,0,9.4,0,14.1,0c0-0.7,0-1.2,0-1.8
		c0-10.2,0-20.5,0-30.7c0-3.6,1.5-5.1,5.1-5.1c13.3,0,26.6,0,40,0c3.5,0,5.1,1.6,5.1,5c0,10.3,0,20.5,0,30.8c0,0.6,0,1.1,0,1.7
		c4.8,0,9.4,0,14,0c0-32.5,0-64.9,0-97.5c-0.7,0-1.2,0-1.8,0c-10.1,0-20.2,0-30.2,0c-1.9,0-2.8-0.8-2.8-2.2c0-1.4,0.9-2.1,2.7-2.1
		c4.6,0,9.1,0,13.7,0c0.5,0,1,0,1.6,0c0-12.4,0-24.7,0-37.1c-14.9,0-29.8,0-44.6,0c0,12.4,0,24.7,0,37.1c0.6,0,1.1,0,1.7,0
		c5.2,0,10.4,0,15.6,0c0.5,0,1.1,0,1.6,0.1c1.1,0.2,1.7,0.9,1.8,2c0.1,1.2-0.5,2-1.7,2.2c-0.6,0.1-1.2,0.1-1.7,0.1
		c-10.8,0-21.5,0-32.3,0c-0.6,0-1.1,0-1.8,0.1c0,0.7,0,1.3,0,1.9c0,16.8,0,33.6,0,50.4c0,0.5,0,1.1,0,1.6c-0.1,1.2-0.9,1.8-2,1.9
		c-1.1,0.1-1.9-0.5-2.2-1.6c-0.1-0.5-0.1-1.1-0.1-1.7c0-9.1,0-18.2,0-27.3C31.4,71.7,31.4,71.1,31.4,70.4z M118.7,70.4
		c0,24.8,0,49.4,0,74.1c8.8,0,17.6,0,26.3,0c0-24.7,0-49.4,0-74.1C136.2,70.4,127.5,70.4,118.7,70.4z M54.4,144.4
		c6.2,0,12.3,0,18.4,0c0-11.1,0-22.1,0-33.1c-6.2,0-12.3,0-18.4,0C54.4,122.4,54.4,133.4,54.4,144.4z M77.3,111.3
		c0,11.1,0,22.1,0,33.2c6.2,0,12.3,0,18.3,0c0-11.1,0-22.1,0-33.2C89.4,111.3,83.3,111.3,77.3,111.3z M31.4,57.6
		c-8.9,0-17.6,0-26.4,0c0,2.8,0,5.5,0,8.2c8.8,0,17.6,0,26.4,0C31.4,63.1,31.4,60.4,31.4,57.6z M118.6,65.9c8.9,0,17.6,0,26.4,0
		c0-2.8,0-5.5,0-8.2c-8.8,0-17.6,0-26.4,0C118.6,60.4,118.6,63.1,118.6,65.9z M48.2,42.5c0-3.1,0-6,0-9.1c-5.8,0-11.4,0-17.2,0
		c0,3.1,0,6,0,9.1C36.8,42.5,42.5,42.5,48.2,42.5z M119,33.4c-5.8,0-11.4,0-17.1,0c0,3.1,0,6,0,9c5.8,0,11.5,0,17.1,0
		C119,39.4,119,36.4,119,33.4z"/>
	<path class="st1" d="M68,17.1c0-0.9,0-1.6,0-2.3c0.1-2.8,2.1-4.8,4.9-4.9c1.3,0,2.5,0,3.8,0c3.1,0,5.2,2,5.2,5.2c0,0.6,0,1.2,0,2.1
		c0.8,0,1.5,0,2.2,0c2.9,0.1,4.9,2.1,5,5c0,1.2,0,2.4,0,3.6c-0.1,3.2-2,5.2-5.3,5.3c-0.6,0-1.2,0-2,0c0,0.8,0,1.5,0,2.2
		c-0.1,2.9-2,4.9-4.9,5c-1.3,0-2.6,0-3.9,0c-3.1-0.1-5-2.1-5.1-5.2c0-0.6,0-1.2,0-2c-0.8,0-1.4,0-2.1,0c-3.1-0.1-5-2.1-5.1-5.1
		c0-1.1,0-2.2,0-3.3c0-3.4,2-5.4,5.4-5.4C66.8,17,67.3,17.1,68,17.1z M74.9,33.8c0.3,0,0.7,0,1,0c1.3,0.2,1.8-0.4,1.7-1.7
		c-0.1-1,0-1.9,0-2.9c0-1.8,0.8-2.5,2.6-2.6c1.2,0,2.4,0,3.6,0c0.8,0,1.2-0.5,1-1.2c-0.3-1.3,0.9-2.9-0.7-3.9c-0.2-0.1-0.6,0-0.9,0
		c-1,0-1.9,0-2.9,0c-2,0-2.7-0.8-2.7-2.7c0-1-0.1-2,0-3c0.1-1.2-0.4-1.5-1.5-1.5c-3.7,0-3.7,0-3.7,3.7c0,3-0.5,3.5-3.6,3.5
		c-3.8,0-3.7,0-3.7,3.8c0,1.1,0.4,1.5,1.5,1.4c0.3,0,0.7,0,1,0c4.8,0,4.8,0,4.8,4.7C72.4,34,72,33.8,74.9,33.8z"/>
	<path class="st1" d="M95.3,76.4c1.6,0,3.3,0,4.9,0c1.9,0,3.2,1.2,3.2,3.2c0.1,3,0,5.9,0,8.9c0,2-1.2,3.2-3.1,3.3
		c-3.3,0.1-6.7,0.1-10,0c-2,0-3.1-1.3-3.1-3.3c0-3,0-5.9,0-8.9c0-2,1.2-3.2,3.2-3.2C92,76.4,93.7,76.4,95.3,76.4z M91.7,80.8
		c0,2.3,0,4.4,0,6.5c2.5,0,4.9,0,7.3,0c0-2.2,0-4.4,0-6.5C96.5,80.8,94.2,80.8,91.7,80.8z"/>
	<path class="st1" d="M54.6,56.4c1.6,0,3.2,0,4.8,0c2.1,0,3.3,1.2,3.4,3.3c0,2.9,0,5.8,0,8.7c0,2.1-1.2,3.3-3.4,3.3
		c-3.2,0-6.4,0-9.6,0c-2,0-3.3-1.3-3.3-3.3c0-3,0-5.9,0-8.9c0-2,1.3-3.2,3.3-3.3c0,0,0.1,0,0.1,0C51.6,56.4,53.1,56.4,54.6,56.4z
		 M58.4,67.4c0-2.3,0-4.4,0-6.5c-2.5,0-5,0-7.4,0c0,2.2,0,4.3,0,6.5C53.5,67.4,55.9,67.4,58.4,67.4z"/>
	<path class="st1" d="M75,71.8c-1.6,0-3.2,0-4.8,0c-2.1,0-3.3-1.2-3.4-3.3c0-2.9,0-5.8,0-8.7c0-2,1.2-3.3,3.2-3.3c3.2,0,6.5,0,9.7,0
		c2,0,3.3,1.3,3.3,3.3c0,3,0,5.9,0,8.9c0,2-1.3,3.2-3.3,3.3c0,0-0.1,0-0.1,0C78.1,71.8,76.6,71.8,75,71.8z M78.7,60.8
		c-2.6,0-5,0-7.4,0c0,2.2,0,4.4,0,6.5c2.5,0,5,0,7.4,0C78.7,65.1,78.7,63,78.7,60.8z"/>
	<path class="st1" d="M54.7,76.4c1.6,0,3.3,0,4.9,0c2,0,3.2,1.2,3.2,3.2c0,3,0,5.9,0,8.9c0,2-1.1,3.2-3.1,3.3c-3.3,0.1-6.7,0.1-10,0
		c-2,0-3.1-1.3-3.1-3.3c0-3,0-5.9,0-8.9c0-2,1.3-3.1,3.2-3.2C51.4,76.4,53,76.4,54.7,76.4z M51,80.8c0,2.3,0,4.4,0,6.5
		c2.5,0,4.9,0,7.4,0c0-2.2,0-4.3,0-6.5C55.8,80.8,53.4,80.8,51,80.8z"/>
	<path class="st1" d="M95.3,71.8c-1.5,0-3.1,0-4.6,0c-2.2,0-3.4-1.2-3.5-3.4c0-2.9,0-5.8,0-8.7c0-2,1.2-3.2,3.3-3.3
		c3.2,0,6.5,0,9.7,0c2,0,3.2,1.3,3.3,3.3c0,2.9,0,5.8,0,8.7c0,2.1-1.3,3.3-3.4,3.3C98.5,71.8,96.9,71.8,95.3,71.8z M91.7,60.8
		c0,2.3,0,4.4,0,6.5c2.5,0,4.9,0,7.4,0c0-2.2,0-4.3,0-6.5C96.6,60.8,94.2,60.8,91.7,60.8z"/>
	<path class="st1" d="M75.1,76.4c1.6,0,3.3,0,4.9,0c1.9,0,3.1,1.2,3.1,3.1c0,3,0,6,0,9c0,1.9-1.2,3.2-3,3.2c-3.4,0.1-6.8,0.1-10.2,0
		c-1.9-0.1-3-1.4-3.1-3.3c0-2.9,0-5.8,0-8.7c0-2,1.2-3.2,3.3-3.3C71.8,76.4,73.4,76.4,75.1,76.4z M78.7,87.3c0-2.2,0-4.4,0-6.5
		c-2.5,0-4.9,0-7.3,0c0,2.2,0,4.3,0,6.5C73.8,87.3,76.2,87.3,78.7,87.3z"/>
	<path class="st1" d="M18.2,109c2,0,4,0,5.9,0c1.6,0,2.5,0.9,2.5,2.2c0,1.3-1,2.2-2.6,2.2c-3.9,0-7.8,0-11.7,0
		c-1.6,0-2.5-0.8-2.6-2.1c0-1.4,0.9-2.2,2.6-2.2C14.3,109,16.3,109,18.2,109z"/>
	<path class="st1" d="M18.2,84.6c-2,0-4,0-5.9,0c-1.5,0-2.4-0.8-2.4-2.1c0-1.3,0.9-2.2,2.4-2.3c4,0,7.9,0,11.9,0
		c1.6,0,2.6,0.9,2.6,2.2c0,1.3-1,2.1-2.5,2.2C22.1,84.7,20.1,84.6,18.2,84.6z"/>
	<path class="st1" d="M18.3,94.7c1.9,0,3.9,0,5.8,0c1.6,0,2.6,0.9,2.5,2.2c0,1.3-1,2.2-2.6,2.2c-4,0-7.9,0-11.9,0
		c-1.6,0-2.5-0.9-2.4-2.3c0-1.3,0.9-2.1,2.4-2.1C14.3,94.7,16.3,94.7,18.3,94.7z"/>
	<path class="st1" d="M18.2,127.7c-2,0-4,0-5.9,0c-1.5,0-2.4-0.8-2.5-2.1c0-1.3,0.9-2.3,2.4-2.3c4,0,8,0,12,0c1.4,0,2.4,0.9,2.4,2.2
		c0,1.2-0.9,2.1-2.4,2.2C22.2,127.7,20.2,127.7,18.2,127.7z"/>
	<path class="st1" d="M131.8,113.4c-1.9,0-3.9,0-5.8,0c-1.6,0-2.7-0.9-2.6-2.3c0-1.3,1-2.1,2.6-2.1c3.9,0,7.8,0,11.7,0
		c1.6,0,2.5,0.8,2.5,2.2c0,1.3-0.9,2.2-2.5,2.2C135.7,113.4,133.7,113.4,131.8,113.4z"/>
	<path class="st1" d="M131.8,84.6c-2,0-4,0-5.9,0c-1.5,0-2.4-0.8-2.5-2.1c-0.1-1.3,0.9-2.3,2.5-2.3c4,0,8,0,12,0
		c1.5,0,2.4,0.9,2.4,2.2c0,1.3-0.9,2.1-2.5,2.2C135.7,84.7,133.8,84.6,131.8,84.6z"/>
	<path class="st1" d="M131.8,99c-1.9,0-3.9,0-5.8,0c-1.7,0-2.7-0.9-2.7-2.2c0-1.3,1-2.1,2.7-2.1c3.9,0,7.7,0,11.6,0
		c1.7,0,2.5,0.8,2.6,2.1c0,1.4-0.9,2.2-2.6,2.2C135.7,99.1,133.8,99,131.8,99z"/>
	<path class="st1" d="M131.8,127.7c-2,0-4,0-5.9,0c-1.6,0-2.5-0.9-2.5-2.2c0-1.3,1-2.2,2.6-2.2c4,0,7.9,0,11.9,0
		c1.6,0,2.5,0.9,2.4,2.3c0,1.3-0.9,2.1-2.4,2.1C135.8,127.7,133.8,127.7,131.8,127.7z"/>
	<path class="st1" d="M67.5,129.4c0,1,0,2,0,3c-0.1,1.3-0.8,2-2,2.1c-1.2,0.1-2.2-0.6-2.2-1.8c-0.1-2.2-0.1-4.3,0-6.5
		c0.1-1.2,0.9-1.9,2.2-1.9c1.2,0,2,0.8,2.1,2.1c0,0.1,0,0.2,0,0.3C67.5,127.6,67.5,128.5,67.5,129.4
		C67.5,129.4,67.5,129.4,67.5,129.4z"/>
	<path class="st1" d="M86.9,129.3c0,1,0,1.9,0,2.9c-0.1,1.4-1,2.2-2.2,2.2c-1.2,0-2.1-0.9-2.1-2.3c0-1.9,0-3.9,0-5.8
		c0-1.3,0.9-2.1,2.1-2.2c1.1,0,2.1,0.8,2.2,2c0,0.1,0,0.2,0,0.3C86.9,127.5,86.9,128.4,86.9,129.3z"/>
</g>
</svg>
