<?xml version="1.0" encoding="utf-8"?>
<!-- Generator: Adobe Illustrator 24.3.0, SVG Export Plug-In . SVG Version: 6.00 Build 0)  -->
<svg version="1.1" id="Layer_1" xmlns="http://www.w3.org/2000/svg" xmlns:xlink="http://www.w3.org/1999/xlink" x="0px" y="0px"
	 viewBox="0 0 150 150" style="enable-background:new 0 0 150 150;" xml:space="preserve">
<style type="text/css">
	.st0{fill:#CDEEFD;}
	.st1{fill:#111224;}
	.st2{fill:#005BAB;}
</style>
<path class="st0" d="M1465.3,1556.3c-2.4-0.2-4.3-1.3-4.4-4.1c-0.1-6.7,1.6-10,4.9-9.9c0.2,0,0.3,0,0.5,0c2.2,0.5,4.3,2.1,3.2,4
	C1467.7,1549.5,1473.1,1555.7,1465.3,1556.3z M1465.5,1554.4c1.3-0.1,2.3-0.6,2.3-2.1c-0.1-1.7-1.5-2.1-2.8-2.4c-1.6-0.4-2,0.8-2,2
	C1463,1553.5,1464,1554.2,1465.5,1554.4z M1467.8,1546.5c0-1.4-0.6-2.2-2.1-2.2c-0.9,0-1.6,0.4-1.7,1.4c-0.2,1.4,0.9,2.1,2,2.5
	C1467.3,1548.5,1467.6,1547.5,1467.8,1546.5z"/>
<path class="st0" d="M1455.8,1556.6c-0.5-2.9-1.8-4.2-4.6-3.6c-0.7,0.2-1.7,0.3-2.1-0.8c-0.4-1.1,0.1-1.5,1.2-2.1
	c2.1-1.2,2.1-3.9,3.2-5.8c0.6-1,1-2.2,2.5-1.9c1.4,0.3,0.9,1.6,0.8,2.5C1456.4,1548.6,1458.4,1552.5,1455.8,1556.6z"/>
<path class="st1" d="M1465.5,1554.4c-1.5-0.1-2.6-0.8-2.5-2.4c0-1.2,0.4-2.4,2-2c1.2,0.3,2.7,0.7,2.8,2.4
	C1467.8,1553.7,1466.8,1554.2,1465.5,1554.4z"/>
<path class="st1" d="M1467.8,1546.5c-0.2,1-0.5,2.1-1.8,1.7c-1.1-0.4-2.1-1-2-2.5c0.1-1,0.8-1.4,1.7-1.4
	C1467.2,1544.3,1467.8,1545,1467.8,1546.5z"/>
<polygon class="st2" points="1346.8,29.4 1346.9,29.6 1346.6,29.6 "/>
<g>
	<g>
		<path class="st2" d="M32.3,0.6c1.4,0,2.7,0,4.1,0c1.4,0.4,2.9,0.8,4.3,1.3c10.9,4.6,11.3,18.4,6.9,25.2c-0.3,0.4-0.5,0.8-0.9,1.4
			c6.4,0.5,11.5,3.1,15.5,7.8c4,4.8,5.3,10.4,4.9,16.8c3.3-2.7,6.8-3.8,10.6-3.3c3.9,0.5,7,2.6,9.3,5.9c2.3-10.7,8.6-17.5,19-20.7
			c-3.6-3.9-4.4-8.6-4.1-13.7c0.6-11.7,13.5-18.8,23.6-12.7c6.7,4,8.9,10.9,7.3,19.1c-0.5,2.6-2.1,5-3.2,7.5c0,0,0.4,0.1,0.8,0.3
			c10,3.2,17.2,11.9,17.8,22.3c0.4,6.7,0.3,13.5,0.1,20.2c-0.2,6.5-4.1,11.2-10.3,13.3c-0.3,0.1-0.6,0.3-0.9,0.4
			c0,0.5,0,0.9,0.1,1.2c1.1,7.4,2.1,14.8,3.2,22.1c0.4,2.4-0.8,3.8-3.3,3.8c-1.2,0-2.5,0-3.9,0c0,0.7,0,1.3,0,1.9
			c0,8.2,0,16.5,0,24.7c0,3-1,3.9-3.9,3.9c-7.9,0-15.8,0-23.7,0c-2.9,0-3.8-0.9-3.8-3.8c0-8.3,0-16.6,0-24.9c0-0.6,0-1.1,0-1.7
			c-2.8-0.8-7,1.5-7.4-3.6c-1.4,0.3-2.6,0.7-4,1c0,0.5,0,1.1,0,1.7c0,9.2,0,18.4,0,27.6c0,2.7-1,3.7-3.7,3.7c-7.1,0-14.1,0-21.2,0
			c-3.3,0-4.2-0.9-4.2-4.1c0-9.1,0-18.1,0-27.2c0-0.6,0-1.1,0-1.7c-0.1,0.1-0.2,0.2-0.3,0.3c-2.5-1.2-5.1-2.3-7.6-3.5
			c0,0.3,0,0.9,0,1.4c0,10.4,0,20.7,0,31.1c0,2.6-1,3.6-3.6,3.6c-10.4,0-20.8,0-31.2,0c-2.5,0-3.5-1.1-3.5-3.5c0-5.9,0-11.7,0-17.6
			c0-2.1,1.1-3.5,2.9-3.5c1.8,0,2.9,1.3,2.9,3.5c0,4.6,0,9.1,0,13.7c0,0.5,0,1,0,1.5c3.6,0,7,0,10.4,0c0-19.9,0-39.6,0-59.4
			c-3.5,0-6.9,0-10.4,0c0,0.6,0,1.2,0,1.7c0,5.1,0,10.3,0,15.4c0,2.2-1.4,3.5-3.4,3.2c-1.5-0.2-2.4-1.4-2.4-3.1c0-3.7,0-7.4,0-11
			c-0.4-0.1-0.6-0.2-0.9-0.3C6.6,88.3,1.6,82.4,1.5,74.6c-0.1-8.2-0.2-16.5,0-24.7c0.2-8.4,4-14.8,11.4-18.8
			c2.7-1.4,5.8-2.1,8.8-3.1c-2.8-3.4-3.4-7.8-3.2-12.3c0.3-4.4,2-8.1,5.2-11.1C26.3,2.4,29.2,1.3,32.3,0.6z M136.3,85.7
			c3.8-1,6.3-4.3,6.4-8.5c0.1-5.9,0.1-11.7,0-17.6c-0.2-10-7.2-18-17.1-19.2c-4.8-0.6-9.8-0.5-14.6-0.2c-8.7,0.5-16.3,7-17.6,15.5
			c-0.8,5.1-0.4,10.4-0.5,15.6c0,0.3,0.2,0.7,0.5,0.8c2.8,1.6,5,3.8,6.8,6.8c0.2-1.6,0.4-2.8,0.6-4c0.8-5.5,1.6-11,2.4-16.5
			c0.3-1.9,1.6-3,3.2-2.8c1.7,0.2,2.7,1.6,2.5,3.6c-0.1,1.4-0.4,2.8-0.6,4.2c-1.7,11.7-3.4,23.4-5.1,35c-0.7,4.9-1.4,9.7-2.1,14.7
			c11.2,0,22.3,0,33.4,0c0-0.2,0-0.4,0-0.5c-1.4-9.6-2.8-19.2-4.2-28.7c-1.2-8.2-2.4-16.4-3.6-24.6c-0.3-1.9,0.8-3.4,2.4-3.7
			c1.6-0.2,3,0.9,3.3,2.7c1,6.8,2,13.5,2.9,20.3C135.5,80.9,135.9,83.3,136.3,85.7z M47.7,78.1c0-0.6,0-1.1,0-1.6
			c0-8.4,0-16.8,0-25.1c0-1.4,0.3-2.5,1.6-3.2c2.1-1.1,4.2,0.4,4.2,3c0,7.9,0,15.8,0,23.7c0,0.5,0,1,0,1.2c2.3-1.5,4.4-3.1,6.7-4.5
			c0.8-0.5,1.1-0.8,1.1-1.7c0-6.3,0-12.7,0-19c0-9.7-6.8-16.4-16.5-16.4c-6.9,0-13.9,0-20.8,0c-10,0-16.7,6.7-16.7,16.7
			c0,7.7,0,15.3,0,23c0,0.9,0.1,1.8,0.2,2.7c0.6,3.7,4.1,7.1,7.6,7.3c0-3.6,0-7.2,0-10.7c0-7.3,0-14.6,0-21.9c0-1.4,0.4-2.6,1.7-3.3
			c2-1,4.1,0.5,4.1,3c0,8.4,0,16.9,0,25.3c0,0.6,0,1.1,0,1.7C29.9,78.1,38.7,78.1,47.7,78.1z M61.4,110.4c0-0.6,0-1.2,0-1.7
			c0-5.8,0-11.5,0-17.3c0-2.1,1.2-3.4,3-3.3c1.7,0.1,2.8,1.3,2.8,3.4c0,3.1,0,6.3,0,9.4c0,0.5,0.1,1,0.1,1.5c5.9,0,11.6,0,17.4,0
			c0-3.1,0-6,0-9c0-1,0-1.9,0.1-2.9c0.2-1.5,1.5-2.5,3-2.4c1.5,0.1,2.6,1.1,2.7,2.7c0,0.5,0,1,0,1.5c0,5.5,0,11,0,16.6
			c0,0.5,0,1,0,1.6c3.4-0.4,5.7-3,5.8-6.5c0.1-5.5,0.1-11,0-16.6c-0.1-6.6-5-11.4-11.6-11.5c-5.8-0.1-11.5-0.1-17.3,0
			c-6.6,0.1-11.5,4.6-11.7,11.2c-0.2,5.6-0.1,11.2,0,16.9C55.7,107.3,57.9,109.7,61.4,110.4z M47.6,143.5c0-19.9,0-39.7,0-59.4
			c-3.5,0-6.9,0-10.3,0c0,19.9,0,39.6,0,59.4C40.7,143.5,44.1,143.5,47.6,143.5z M44.2,17.4c0-0.4,0-0.9,0-1.3
			c-0.1-4.9-3.7-8.9-8.6-9.6c-4.7-0.7-9.4,2.3-10.7,7c-0.5,1.8-0.5,3.8-0.4,5.7c0.3,5.3,4.7,9.4,10,9.3
			C39.6,28.4,44.6,24.2,44.2,17.4z M107.8,23.2c0,0.4,0,0.9,0,1.3c0.2,5.4,4.2,9.5,9.4,9.7c5.3,0.2,9.7-3.5,10.2-8.9
			c0.2-1.7,0.1-3.4-0.1-5.1c-0.7-5.3-6.2-9-11.4-8C110.7,13.4,107.8,17.3,107.8,23.2z M67.3,108.4c0,11.8,0,23.4,0,35.1
			c1.9,0,3.8,0,5.6,0c0-11.7,0-23.4,0-35.1C71,108.4,69.2,108.4,67.3,108.4z M79,108.4c0,11.8,0,23.4,0,35.1c1.9,0,3.8,0,5.6,0
			c0-11.7,0-23.4,0-35.1C82.7,108.4,80.9,108.4,79,108.4z M114.6,143.6c0-8.3,0-16.4,0-24.6c-2.3,0-4.5,0-6.7,0c0,8.2,0,16.4,0,24.6
			C110.2,143.6,112.3,143.6,114.6,143.6z M127.4,143.6c0-8.3,0-16.4,0-24.6c-2.3,0-4.5,0-6.7,0c0,8.2,0,16.4,0,24.6
			C123,143.6,125.1,143.6,127.4,143.6z M83.2,62.7c0-4-3.2-7.2-7.1-7.2c-4,0-7.3,3.2-7.3,7.2c0,4,3.3,7.3,7.3,7.3
			C80,70,83.2,66.7,83.2,62.7z"/>
	</g>
	<path class="st2" d="M17.9,117.5c-1.6-0.1-2.8-1.4-2.8-3c0.1-1.5,1.5-2.8,3-2.8c1.6,0,2.9,1.5,2.8,3.1
		C20.8,116.4,19.5,117.5,17.9,117.5z"/>
</g>
</svg>
