<?xml version="1.0" encoding="utf-8"?>
<!-- Generator: Adobe Illustrator 24.3.0, SVG Export Plug-In . SVG Version: 6.00 Build 0)  -->
<svg version="1.1" id="Layer_1" xmlns="http://www.w3.org/2000/svg" xmlns:xlink="http://www.w3.org/1999/xlink" x="0px" y="0px"
	 viewBox="0 0 150 150" style="enable-background:new 0 0 150 150;" xml:space="preserve">
<style type="text/css">
	.st0{fill:#CDEEFD;}
	.st1{fill:#111224;}
	.st2{fill:#005BAB;}
</style>
<path class="st0" d="M1465.3,1556.3c-2.4-0.2-4.3-1.3-4.4-4.1c-0.1-6.7,1.6-10,4.9-9.9c0.2,0,0.3,0,0.5,0c2.2,0.5,4.3,2.1,3.2,4
	C1467.7,1549.5,1473.1,1555.7,1465.3,1556.3z M1465.5,1554.4c1.3-0.1,2.3-0.6,2.3-2.1c-0.1-1.7-1.5-2.1-2.8-2.4c-1.6-0.4-2,0.8-2,2
	C1463,1553.5,1464,1554.2,1465.5,1554.4z M1467.8,1546.5c0-1.4-0.6-2.2-2.1-2.2c-0.9,0-1.6,0.4-1.7,1.4c-0.2,1.4,0.9,2.1,2,2.5
	C1467.3,1548.5,1467.6,1547.5,1467.8,1546.5z"/>
<path class="st0" d="M1455.8,1556.6c-0.5-2.9-1.8-4.2-4.6-3.6c-0.7,0.2-1.7,0.3-2.1-0.8c-0.4-1.1,0.1-1.5,1.2-2.1
	c2.1-1.2,2.1-3.9,3.2-5.8c0.6-1,1-2.2,2.5-1.9c1.4,0.3,0.9,1.6,0.8,2.5C1456.4,1548.6,1458.4,1552.5,1455.8,1556.6z"/>
<path class="st1" d="M1465.5,1554.4c-1.5-0.1-2.6-0.8-2.5-2.4c0-1.2,0.4-2.4,2-2c1.2,0.3,2.7,0.7,2.8,2.4
	C1467.8,1553.7,1466.8,1554.2,1465.5,1554.4z"/>
<path class="st1" d="M1467.8,1546.5c-0.2,1-0.5,2.1-1.8,1.7c-1.1-0.4-2.1-1-2-2.5c0.1-1,0.8-1.4,1.7-1.4
	C1467.2,1544.3,1467.8,1545,1467.8,1546.5z"/>
<polygon class="st2" points="1346.8,29.4 1346.9,29.6 1346.6,29.6 "/>
<g>
	<path class="st2" d="M111.2,42.6c0.2,5.2-1.5,9-6.7,10.5c0.9,2.5,0.9,4.9-0.1,7.3c-1.1,2.4-2.8,4-5.4,4.7c0.1,1.1,0.2,2.1,0.2,3.2
		c-0.1,6.6-3.5,10.3-10,11.3c-4.6,0.7-9.1,0.1-13.6-1c-11.2-2.8-22.2-6.1-33-10.1c-4.3-1.6-7.7-4.2-11-7.3c-2-1.9-4-3.7-6.1-5.4
		c-2.1-1.8-4.6-2.7-7.5-2.6c-4.9,0.1-9.9,0-14.8,0c-1.9,0-3-0.9-3-2.4c0-1.5,1.1-2.4,3-2.4c5.4,0,10.9,0,16.3,0c3.7,0,6.8,1.7,9.5,4
		c2.4,2,4.7,4.2,7,6.4c2.4,2.2,5.1,4.1,8.2,5.2c11.6,4.2,23.4,7.9,35.5,10.6c3.4,0.7,6.8,0.7,10.2-0.1c4.2-1,4.9-4.4,4.2-8.3
		c-0.1-0.5-0.7-1.1-1.3-1.4c-4.1-1.9-8.2-3.6-12.8-3.3c-0.9,0.1-2.2,0.5-2.4,1.1c-0.5,1.3,0.3,2.5,1.6,3c2.2,0.8,4.4,1.3,6.6,1.9
		c0.6,0.2,1.3,0.2,1.9,0.4c1.3,0.4,1.9,1.3,1.7,2.7c-0.1,1.2-1.4,2.3-2.6,2c-3.4-0.9-6.9-1.6-10.2-3c-3.1-1.3-4.5-4.7-4-8.1
		c0.3-1.8,1.2-2.8,3.6-4.3c-1.7-2.2-2.9-4.7-2.3-7.6c0.6-2.9,2.3-4.9,5.2-5.8c-0.4-0.9-0.9-1.7-1.2-2.6c-1.8-4.9,1.4-9.7,6.6-9.6
		c5.9,0.1,11.8,1,17.5,2.8c6,1.9,11.9,3.9,18,5.6c5.6,1.6,11.2,3,16.9,4.3c2,0.4,4.1,0.3,6.1,0.2c1.8-0.1,2.6-1.4,1.7-3
		c-0.7-1.3-1.8-2.6-3.1-3.3c-2.6-1.4-5.4-2.4-8.2-3.3c-10.5-3.5-21-6.9-31.5-10.3c-0.4-0.1-0.8-0.2-1.1-0.4c-1.3-0.6-1.9-1.8-1.5-3
		c0.5-1.3,1.7-1.9,3.2-1.5c4.2,1.4,8.4,2.9,12.7,4.3c8.3,2.7,16.7,5.4,25,8.2c2,0.7,3.9,1.8,5.7,3c1.8,1.1,3,2.7,3.6,4.7
		c1.5,5.3-1.1,9.1-6.7,9.5c-5.1,0.4-10.1-0.7-15-2c-4.9-1.3-9.7-2.8-14.6-4.2C112.5,43,112,42.8,111.2,42.6z M86.5,36.4
		c-2,0-3.5-0.3-4.2,1.3c-0.7,1.6,0.3,2.9,1.5,3.8c1.9,1.3,3.8,2.6,5.9,3.5c2.5,1.1,5.2,1.8,7.9,2.5c1.7,0.5,3.4,0.8,5.1,0.9
		c1.4,0.1,2.5-0.6,3.1-2c1.1-2.5,0.6-4.2-1.7-5.7c-0.7-0.4-1.4-0.8-2.1-1.1C96.9,37.5,91.4,36.7,86.5,36.4z M81.9,48.5
		c-2.3-0.1-3.3,0.7-3.3,2.5c0,0.8,0.4,1.8,0.9,2.4c1.5,1.8,3.4,3,5.8,3.6c2.1,0.5,4.1,1.2,6.2,1.9c1.5,0.5,3,1.1,4.6,1.5
		c2.2,0.5,3.6-0.4,4.1-2.6c0.5-2.2,0-3.3-2.4-4.6C92.7,50.3,87.1,49.1,81.9,48.5z"/>
	<path class="st2" d="M111.2,101.2c4.3-1.1,8.5-2.2,12.6-3.3c6.5-1.7,13.1-3.5,19.6-5.2c2.3-0.6,3.3,0,4,2.3c0.7,2.5,1.4,4.9,2,7.4
		c0.8,2.8,0.3,3.6-2.5,4.4c-10.1,2.7-20.3,5.4-30.4,8.1c-0.5,0.1-0.9,0.3-1.5,0.5c0.4,1.6,0.9,3.2,1.3,4.7
		c1.8,6.9-1.5,13.1-8.3,15.2c-15,4.7-30,9.3-45,13.9c-1.7,0.5-3.6,0.9-5.3,0.6c-2.9-0.5-4.7-2.5-5.5-5.4
		c-3.5-13.1-7.1-26.2-10.6-39.3c-1.2-4.5,1.2-8.4,5.8-9.4c15.6-3.5,31.2-7,46.9-10.5c7.1-1.6,13.1,2,15.1,9
		C109.9,96.4,110.5,98.7,111.2,101.2z M97,89.5c-0.2,0-0.7,0.1-1.3,0.2c-15.6,3.5-31.2,7-46.9,10.5c-2.7,0.6-3.3,1.5-2.5,4.2
		c3.3,12.1,6.5,24.1,9.8,36.2c1.3,4.9,1.6,5.1,6.5,3.6c14.7-4.5,29.4-9.1,44.1-13.7c3.8-1.2,6-4.9,4.9-8.8c-2.3-9-4.8-17.9-7.3-26.9
		C103.6,91.5,100.7,89.5,97,89.5z M131.3,100.8c-6.4,1.7-12.6,3.4-18.9,5c0.4,1.6,0.8,3.1,1.3,4.7c6.4-1.7,12.6-3.4,18.9-5
		C132.2,103.9,131.8,102.4,131.3,100.8z M136.1,99.6c0.4,1.6,0.8,3.1,1.2,4.7c2.4-0.6,4.7-1.3,7.1-1.9c-0.4-1.6-0.8-3.1-1.3-4.7
		C140.8,98.3,138.5,98.9,136.1,99.6z"/>
	<path class="st2" d="M14.3,16.9c4.1,0,8.3,0.2,12.4-0.1c5.3-0.4,10.1-2.6,14.8-4.7c5-2.3,9.9-4.7,14.9-6.9
		c4.2-1.8,8.5-2.8,13.2-2.7c5.7,0.1,11.4-0.1,17,0.1c4.9,0.1,9.7-0.4,14.5-1.6c1.9-0.5,4-0.8,5.9-0.8c5.9-0.1,7.1,4.2,6.5,8.1
		c-0.4,2.7-2.1,4.6-4.2,6.2c-4.1,3.2-8.9,4.7-14,4.9c-4.9,0.2-9.5,1.3-14.1,3c-0.8,0.3-1.6,0.9-2.3,1.3c-1.2,0.8-2.5,0.6-3.4-0.4
		c-0.8-1.1-0.8-2.5,0.4-3.3c1.5-1,3.2-2,4.9-2.6c4.7-1.6,9.5-2.6,14.4-2.8c4.1-0.2,7.9-1.3,11.2-3.9c1.3-1.1,2.4-2.3,2.4-4.2
		c0-1-0.4-1.6-1.4-1.5c-1.8,0.2-3.7,0.3-5.5,0.7C97,7,92.1,7.5,87.1,7.4C82.1,7.3,77,7.6,72,7.3C65.8,7,60.1,8.6,54.6,11.2
		c-5.9,2.8-11.8,5.5-17.8,8.1c-4.5,1.9-9.2,2.7-14.1,2.6c-6.3-0.1-12.6,0-18.9,0c-0.4,0-0.8,0-1.2,0c-1.4-0.1-2.4-1.1-2.4-2.4
		c0-1.4,1-2.4,2.5-2.4c3.9,0,7.7,0,11.6,0C14.3,17,14.3,16.9,14.3,16.9z"/>
	<path class="st2" d="M12.4,72.6c3,0,5.9,0,8.9,0c2.2,0,3.2,1,3,3.2c-1.1,11.5-2.3,23-3.5,34.5c-0.4,4.3-0.8,8.5-1.3,12.8
		c-0.2,1.9-0.8,2.6-2.7,2.7c-3.2,0.1-6.3,0.1-9.5,0c-1.4,0-2.1-1-2.3-2.4c-0.7-7.1-1.4-14.1-2.1-21.2C2,93.6,1.1,85,0.2,76.5
		c-0.3-3,0.4-3.9,3.5-3.9C6.6,72.6,9.5,72.6,12.4,72.6z M5.2,77.5c1.5,14.5,2.9,28.9,4.3,43.3c1.8,0,3.5,0,5.3,0
		c1.4-14.5,2.9-28.9,4.3-43.3C14.4,77.5,9.9,77.5,5.2,77.5z"/>
	<path class="st2" d="M132.8,82.2c-7.3,0-11.3-5.5-9.1-12.4c0.8-2.4,2.2-4.5,3.3-6.7c1.2-2.6,2.4-5.3,3.5-8c0.5-1.1,1.1-1.8,2.3-1.8
		c1.1,0,2.1,0.5,2.3,1.6c0.9,4.1,3.4,7.5,5.2,11.1c1,1.9,1.9,4,2.1,6C143.1,78.5,139.4,82.2,132.8,82.2z M132.8,62.4
		c-1.6,3.2-3.2,5.9-4.4,8.8c-0.7,1.7-0.6,3.7,0.8,5.2c1.2,1.2,5.4,1.3,7,0.3c1.2-0.7,1.9-3.1,1.4-5.1c-0.2-0.7-0.4-1.4-0.7-2
		C135.6,67.4,134.4,65.2,132.8,62.4z"/>
	<path class="st2" d="M21.9,140.1c0,5.3-4.3,9.7-9.6,9.7c-5.3,0-9.7-4.4-9.7-9.7c0-5.3,4.3-9.6,9.6-9.6
		C17.5,130.5,21.8,134.8,21.9,140.1z M17,140.2c0-2.6-2.2-4.8-4.8-4.8c-2.6,0-4.8,2.1-4.8,4.8c0,2.7,2.2,4.9,4.9,4.9
		C14.9,145,17,142.8,17,140.2z"/>
	<path class="st2" d="M49.7,48.4c-0.2,0-0.3,0-0.5,0c-2,0-3.2-0.8-3.2-2.3c0-1.5,1.1-2.4,3.1-2.5c9.1-0.3,16.6-3.6,21.7-11.5
		c0.8-1.2,1.3-2.5,1.9-3.7c0.7-1.4,1.9-2,3.2-1.4c1.3,0.6,1.8,1.9,1.2,3.4c-4.2,9.8-11.7,15.5-22,17.5
		C53.3,48.1,51.5,48.3,49.7,48.4C49.7,48.5,49.7,48.4,49.7,48.4z"/>
	<path class="st2" d="M64.7,138.5c-2.7,0-4.5-1.4-5.2-4c-2.1-7.8-4.2-15.6-6.3-23.4c-0.1-0.5-0.3-1-0.4-1.5c-0.8-3.3,0.7-5.8,4-6.5
		c8.2-1.8,16.5-3.6,24.7-5.5c1.1-0.2,2.2-0.5,3.4-0.8c2.5-0.5,5,0.8,5.7,3.3c2.2,8,4.4,16,6.5,24c0.6,2.5-0.9,4.7-3.7,5.6
		c-7.4,2.3-14.8,4.6-22.1,6.9c-1.7,0.5-3.4,1-5,1.5C65.7,138.3,65,138.4,64.7,138.5z M64.3,133.6c9.4-2.9,18.6-5.7,28-8.6
		c-2.1-7.9-4.2-15.7-6.3-23.4c-9.7,2.2-19.1,4.3-28.7,6.4C59.7,116.6,62,125,64.3,133.6z"/>
	<path class="st2" d="M102.4,105.9c0.1,1.9-0.6,2.8-1.9,3c-1.2,0.2-2.2-0.3-2.6-1.5c-0.6-1.7-1-3.5-1.4-5.2
		c-0.3-1.2,0.4-2.1,1.6-2.6c1.2-0.4,2.4-0.1,2.8,1C101.5,102.6,102,104.6,102.4,105.9z"/>
	<path class="st2" d="M103.2,113.6c0.3,0.3,1.2,0.7,1.5,1.4c0.7,1.7,1.1,3.5,1.5,5.4c0.3,1.2-0.4,2.2-1.6,2.5
		c-1.2,0.3-2.4,0.1-2.8-1.1c-0.7-1.9-1.2-3.8-1.5-5.8C100,114.6,101.2,113.6,103.2,113.6z"/>
</g>
</svg>
