<?xml version="1.0" encoding="utf-8"?>
<!-- Generator: Adobe Illustrator 24.3.0, SVG Export Plug-In . SVG Version: 6.00 Build 0)  -->
<svg version="1.1" id="Layer_1" xmlns="http://www.w3.org/2000/svg" xmlns:xlink="http://www.w3.org/1999/xlink" x="0px" y="0px"
	 viewBox="0 0 150 150" style="enable-background:new 0 0 150 150;" xml:space="preserve">
<style type="text/css">
	.st0{fill:#CDEEFD;}
	.st1{fill:#111224;}
	.st2{fill:#005BAB;}
</style>
<path class="st0" d="M1465.3,1556.3c-2.4-0.2-4.3-1.3-4.4-4.1c-0.1-6.7,1.6-10,4.9-9.9c0.2,0,0.3,0,0.5,0c2.2,0.5,4.3,2.1,3.2,4
	C1467.7,1549.5,1473.1,1555.7,1465.3,1556.3z M1465.5,1554.4c1.3-0.1,2.3-0.6,2.3-2.1c-0.1-1.7-1.5-2.1-2.8-2.4c-1.6-0.4-2,0.8-2,2
	C1463,1553.5,1464,1554.2,1465.5,1554.4z M1467.8,1546.5c0-1.4-0.6-2.2-2.1-2.2c-0.9,0-1.6,0.4-1.7,1.4c-0.2,1.4,0.9,2.1,2,2.5
	C1467.3,1548.5,1467.6,1547.5,1467.8,1546.5z"/>
<path class="st0" d="M1455.8,1556.6c-0.5-2.9-1.8-4.2-4.6-3.6c-0.7,0.2-1.7,0.3-2.1-0.8c-0.4-1.1,0.1-1.5,1.2-2.1
	c2.1-1.2,2.1-3.9,3.2-5.8c0.6-1,1-2.2,2.5-1.9c1.4,0.3,0.9,1.6,0.8,2.5C1456.4,1548.6,1458.4,1552.5,1455.8,1556.6z"/>
<path class="st1" d="M1465.5,1554.4c-1.5-0.1-2.6-0.8-2.5-2.4c0-1.2,0.4-2.4,2-2c1.2,0.3,2.7,0.7,2.8,2.4
	C1467.8,1553.7,1466.8,1554.2,1465.5,1554.4z"/>
<path class="st1" d="M1467.8,1546.5c-0.2,1-0.5,2.1-1.8,1.7c-1.1-0.4-2.1-1-2-2.5c0.1-1,0.8-1.4,1.7-1.4
	C1467.2,1544.3,1467.8,1545,1467.8,1546.5z"/>
<polygon class="st2" points="1346.8,29.4 1346.9,29.6 1346.6,29.6 "/>
<g>
	<path class="st2" d="M95.7,94.8c0.4,3.9,0.8,7.5,1.2,11.1c0.2,2.2,0.5,4.4,0.8,6.6c0.2,1.3-0.1,2.4-1.2,3.1
		c-1.2,0.7-2.3,0.5-3.3-0.3c-2.5-1.8-5.1-3.6-7.6-5.4c-0.4-0.3-0.9-0.6-1.3-0.8c-0.5,1.6-1.1,3.2-1.4,4.8c-0.1,0.6,0,1.3,0.2,2
		c1.4,8.7,2.8,17.5,4.1,26.2c0.2,1.5,0.2,3.1,0.1,4.6c0,1.6-1.2,2.7-2.7,2.7c-1.5,0-2.7-1.1-2.7-2.7c-0.2-10.7-2.6-21.2-4.5-31.6
		c-0.2-0.9-0.2-2.1,0.2-2.8c1.3-2.2,0.9-4.5,0.8-6.8c0-1.5-1.4-1.6-2.6-1.5c-1.5,0.2-3.8-0.9-4.1,1.4c-0.3,2.2-0.6,4.6,0.8,6.8
		c0.4,0.7,0.4,1.9,0.3,2.8c-1.4,9-2.9,17.9-4.3,26.9c-0.2,1.5-0.1,3.1-0.2,4.6c-0.1,1.7-1.1,2.9-2.7,2.9c-1.6,0-2.9-1.2-2.7-3
		c0.6-6.5,1.3-13,2.2-19.4c0.5-3.9,1.5-7.7,2.1-11.5c0.1-0.8-0.1-1.6-0.3-2.4c-0.3-1.3-0.6-2.6-1-4c-2.5,1.8-5.1,3.6-7.7,5.4
		c-0.5,0.4-1,0.9-1.5,1c-1,0.2-2.3,0.6-3,0.1c-0.8-0.5-1.4-1.9-1.3-2.8c0.5-5.3,1.1-10.5,1.8-15.7c0.1-0.6,0.1-1.2,0.2-2.1
		c-1.4,0.4-2.5,0.7-3.7,1.2c-8.1,3.2-16.3,6.3-24.4,9.6c-7.2,2.9-11.4,8.1-12.6,15.8c-1.3,8.4-2.5,16.7-3.8,25.1
		c-0.1,0.7-0.1,1.7-0.6,2.1c-0.8,0.6-1.9,1.3-2.9,1.2c-1.4-0.1-2.2-1.3-2-2.7c0.4-4.4,0.7-8.8,1.5-13.2c1.1-6.3,2.5-12.6,4-18.8
		c1.3-5.4,4.7-9.1,9.5-11.9c7.9-4.6,16.5-7.9,25.1-10.8c3.2-1.1,6.4-2.1,9.6-3.1c0.8-0.2,1.2-0.6,1.2-1.5c0.2-2.7,0.6-5.4,0.9-8.1
		c0.1-1.1,0-1.9-0.8-2.8c-3.5-4-6-8.7-7.4-13.8c-0.2-0.7-0.8-1.5-1.4-2c-4.8-4-6.6-9-5.5-15.2c0.2-0.9,0.1-1.8-0.1-2.7
		c-3.5-15,2.9-31,15.9-38.7c7-4.1,14.8-5,22.7-4.4c5.2,0.4,10.2,1.7,14.9,3.9c3.6,1.7,7.4,2,11.3,1.7c3.8-0.3,5.6,1.7,4.5,5.4
		c-0.7,2.2-2,4.2-3,6.3c-0.3,0.6-0.5,1.4-0.3,2c2.5,7.6,3,15.2,1.4,23c-0.1,0.7,0,1.5,0.2,2.1c2,5.9,0.4,12-4.3,16.1
		c-0.7,0.6-1.3,1.5-1.5,2.3c-1.5,5.4-4.2,10.1-8,14.3c-0.5,0.5-0.8,1.5-0.7,2.2c0.2,2.7,0.7,5.4,0.9,8.1c0.1,1.1,0.5,1.5,1.5,1.8
		c7.7,2.8,15.4,5.4,23,8.5c4.1,1.7,8,3.9,12,6.1c4.8,2.6,7.8,6.7,9.4,12c2.9,10.1,4.1,20.5,4.8,30.9c0.1,1.8-0.9,3-2.4,3.1
		c-1.6,0.1-2.8-1-3-2.8c-0.1-0.5,0-0.9-0.1-1.4c-0.7-8.7-1.8-17.4-3.7-25.9c-1.3-5.4-4-9.4-9-12.1C117.4,102.3,106.8,98.6,95.7,94.8
		z M56,30.7c-0.1,0.6-0.3,1.1-0.4,1.7c-1.3,6-3.6,11.3-8.6,15.2c-0.4,0.3-0.7,1.1-0.7,1.7c0,3.5,1.6,6.2,4.6,8
		c1.2,0.7,1.8,1.6,2.1,2.9c0.9,4.5,2.8,8.5,5.7,12c3.8,4.6,8.2,8.1,14.6,8.1c11.8,0.1,21.9-8,24.5-19.9c0.3-1.6,1-2.6,2.3-3.6
		c2.7-2,4.1-4.7,4-8.1c-3.8-1.5-5.6-4.6-7.1-7.9c-1.4-3.3-2.4-6.8-3.4-9.9C87.4,31.8,81.2,32.7,75,33C68.6,33.3,62.3,32.3,56,30.7z
		 M46.1,40.6c2.6-3.6,4-7.4,4.4-11.5c0.3-3.5,2.1-5,5.3-4.1c12.7,3.5,25.5,3.4,38.2-0.1c3.1-0.9,5.1,0.6,5.3,3.9
		c0.2,3.8,1.2,7.3,2.9,10.6c0.2,0.5,0.6,0.9,1,1.6c1.4-7.2,0.9-13.9-1.6-20.3c-0.9-2.4-0.9-4.3,1.1-6.1c0.8-0.8,1.3-1.9,2-2.9
		c-2.4-0.2-4.4-0.3-6.4-0.7c-2-0.4-4.1-1-6-1.9c-6.9-3.1-14-3.9-21.4-3.2C52,7.5,43.4,25.8,46.1,40.6z M61.3,82.4
		c-0.2,2.4-0.5,4.5-0.6,6.7c0,0.4,0.5,1,0.9,1.2c4.1,2.5,8.2,5,12.4,7.4c0.5,0.3,1.4,0.3,1.9,0c4.3-2.5,8.5-5,12.7-7.5
		c0.8-0.5,1.1-1,1-1.9c-0.3-2.1-0.5-4.1-0.7-6.4C79.8,86.3,70.7,87.9,61.3,82.4z M58.4,107.7c3.4-2.4,6.6-4.7,9.9-7
		c-2.9-1.7-5.6-3.3-8.5-5C59.3,99.7,58.8,103.5,58.4,107.7z M81.8,100.7c3.3,2.3,6.4,4.6,9.8,7c-0.5-4.2-0.9-8-1.4-12
		C87.3,97.4,84.6,99,81.8,100.7z"/>
	<path class="st2" d="M113.2,145.9c-3.9,0-7.7,0-11.6,0c-2.2,0-3.4-1-3.4-2.7c0-1.7,1.2-2.7,3.4-2.7c7.7,0,15.5,0,23.2,0
		c2.2,0,3.4,1,3.4,2.7c0,1.7-1.3,2.7-3.4,2.7C120.9,145.9,117.1,145.9,113.2,145.9z"/>
</g>
</svg>
