<?xml version="1.0" encoding="utf-8"?>
<!-- Generator: Adobe Illustrator 24.3.0, SVG Export Plug-In . SVG Version: 6.00 Build 0)  -->
<svg version="1.1" id="Layer_1" xmlns="http://www.w3.org/2000/svg" xmlns:xlink="http://www.w3.org/1999/xlink" x="0px" y="0px"
	 viewBox="0 0 150 150" style="enable-background:new 0 0 150 150;" xml:space="preserve">
<style type="text/css">
	.st0{fill:#CDEEFD;}
	.st1{fill:#111224;}
	.st2{fill:#005BAB;}
</style>
<path class="st0" d="M1465.3,1556.3c-2.4-0.2-4.3-1.3-4.4-4.1c-0.1-6.7,1.6-10,4.9-9.9c0.2,0,0.3,0,0.5,0c2.2,0.5,4.3,2.1,3.2,4
	C1467.7,1549.5,1473.1,1555.7,1465.3,1556.3z M1465.5,1554.4c1.3-0.1,2.3-0.6,2.3-2.1c-0.1-1.7-1.5-2.1-2.8-2.4c-1.6-0.4-2,0.8-2,2
	C1463,1553.5,1464,1554.2,1465.5,1554.4z M1467.8,1546.5c0-1.4-0.6-2.2-2.1-2.2c-0.9,0-1.6,0.4-1.7,1.4c-0.2,1.4,0.9,2.1,2,2.5
	C1467.3,1548.5,1467.6,1547.5,1467.8,1546.5z"/>
<path class="st0" d="M1455.8,1556.6c-0.5-2.9-1.8-4.2-4.6-3.6c-0.7,0.2-1.7,0.3-2.1-0.8c-0.4-1.1,0.1-1.5,1.2-2.1
	c2.1-1.2,2.1-3.9,3.2-5.8c0.6-1,1-2.2,2.5-1.9c1.4,0.3,0.9,1.6,0.8,2.5C1456.4,1548.6,1458.4,1552.5,1455.8,1556.6z"/>
<path class="st1" d="M1465.5,1554.4c-1.5-0.1-2.6-0.8-2.5-2.4c0-1.2,0.4-2.4,2-2c1.2,0.3,2.7,0.7,2.8,2.4
	C1467.8,1553.7,1466.8,1554.2,1465.5,1554.4z"/>
<path class="st1" d="M1467.8,1546.5c-0.2,1-0.5,2.1-1.8,1.7c-1.1-0.4-2.1-1-2-2.5c0.1-1,0.8-1.4,1.7-1.4
	C1467.2,1544.3,1467.8,1545,1467.8,1546.5z"/>
<polygon class="st2" points="1346.8,29.4 1346.9,29.6 1346.6,29.6 "/>
<g>
	<path class="st2" d="M0.6,77.9c0.8-3.1,1.3-6.2,2.4-9.2c1.4-4.3,4-7.9,7.1-11.2c1.5-1.6,3.2-1.7,4.5-0.5c1.3,1.2,1.2,2.9-0.3,4.5
		c-7.8,8.5-9.7,18.3-6.1,29.3c0.4,1.1,0.9,1.5,2.1,1.4c6.3-0.1,12.7-0.1,19,0c1,0,1.5-0.3,1.9-1.1c3-5.8,6.1-11.6,9.1-17.4
		c0.8-1.5,1.6-2.9,3.6-2.6c1.9,0.3,2.3,1.7,2.7,3.3c2.5,10.2,5,20.4,7.5,30.6c0.1,0.3,0.2,0.5,0.5,0.8c0.7-3.2,1.4-6.3,2.1-9.5
		c0.7-3,1.3-5.9,2-8.9c0.3-1.4,1-2.3,2.4-2.5c1.5-0.2,2.5,0.5,3.2,1.8c1.3,2.6,2.7,5.1,4.1,7.7c0.2,0.4,0.5,0.8,0.9,1.5
		c0.9-3.5,1.7-6.7,2.5-9.9c1.1-4.5,2.3-9,3.4-13.5c0.5-1.8,1.4-2.6,2.8-2.7c1.5-0.1,2.5,0.8,3.1,2.6c1.9,6.1,3.8,12.3,5.7,18.4
		c0.1,0.5,0.3,0.9,0.5,1.4c5.3,0,10.5,0,15.7,0c0.3,0,0.9-0.4,1-0.8c3-7.8,2.7-15.5-1-23.1c-0.2-0.5-0.8-0.9-1.3-1.1
		c-6.3-2.6-11.5-6.8-15.4-12.4c-0.4-0.5-1.1-1-1.7-1.1c-9.5-2.2-17.9,0-25.3,6.4c-0.6,0.5-1.1,1.1-1.8,1.5c-1.2,0.7-2.4,0.4-3.8-0.9
		c-4.2-4-9.1-6.5-14.8-7.4c-0.9-0.2-1.8-0.2-2.7-0.4c-1.8-0.3-2.8-1.6-2.5-3.3c0.2-1.6,1.5-2.6,3.2-2.4c5.7,0.4,10.9,2.2,15.7,5.2
		c1.3,0.8,2.5,1.7,3.7,2.6c3.6-3,7.7-5.2,12.2-6.6c4.5-1.3,9.1-1.7,13.8-1.1c-7.5-20.8,5.5-41.2,24.2-45.8
		c17.7-4.4,36.3,6.1,41.5,23.7c5.5,18.6-5.2,38.2-24.4,43.5c0,0.5,0,1.1,0,1.7c0,16,0,32,0,48c0,10.2-6.8,18.6-16.8,20.7
		c-1.5,0.3-3.2,0.4-4.8,0.4c-11.1,0-22.2,0-33.3,0c-1,0-1.7,0.3-2.4,1c-2.4,2.5-4.8,4.9-7.3,7.3c-0.6,0.6-1.4,1.1-2,1.6
		c-0.6,0-1.2,0-1.7,0c-0.5-0.5-1.1-0.9-1.6-1.4c-14.3-14.3-28.6-28.6-42.9-42.9c-4.1-4-7.1-8.7-8.7-14.2c-0.7-2.3-1-4.6-1.5-6.9
		C0.6,82,0.6,79.9,0.6,77.9z M114.8,64c15.9,0,28.8-12.8,28.9-28.7c0.1-15.9-12.9-28.9-28.8-28.9C99,6.4,86.1,19.2,86,35.1
		C86,51,98.8,64,114.8,64z M56.1,141.4c14.3-14.3,29-28.9,43.5-43.4c-0.1,0-0.6,0-1,0c-4.2,0-8.3,0-12.5,0c-2.6,0-3.3-0.5-4-3
		c-1-3.2-2-6.5-3-9.7c-0.1-0.5-0.3-0.9-0.6-1.7c-1.8,7.2-3.5,13.9-5.2,20.6c-0.4,1.4-1,2.5-2.6,2.7c-1.6,0.2-2.5-0.7-3.2-2
		c-1.3-2.5-2.7-5-4-7.6c-0.2-0.3-0.4-0.6-0.7-1c-1.7,7.8-3.4,15.3-5.1,22.9c-0.3,1.4-0.8,2.5-2.3,2.9c-1.8,0.5-3.2-0.6-3.7-2.9
		c-2.4-9.6-4.7-19.2-7-28.7c-0.7-2.7-1.3-5.3-2-8.2c-0.4,0.7-0.6,1.1-0.9,1.5c-2.1,4-4.3,8-6.3,12.1c-0.8,1.6-1.9,2.3-3.7,2.2
		C25.7,98,19.8,98,14,98c-0.5,0-1,0-1.5,0C27.2,112.7,41.9,127.3,56.1,141.4z M73.4,133.4c0.1,0.1,0.1,0.2,0.2,0.3c0.5,0,1,0,1.4,0
		c8.9,0,17.8,0,26.7,0c9.5,0,16-6.5,16-15.9c0-15.5,0-30.9,0-46.4c0-0.5,0-1,0-1.5c-2,0-3.9,0-5.8,0c0,0.6,0,1.2,0,1.8
		c0,15.3,0,30.5,0,45.8c0,6.7-3.7,10.5-10.4,10.5c-7.1,0-14.2,0-21.4,0c-0.5,0-1.2,0.1-1.6,0.4C76.8,130,75.1,131.7,73.4,133.4z
		 M84.8,122.1c6,0,11.6,0,17.1,0c2.9,0,4.2-1.3,4.2-4.2c0-5.5,0-11,0-16.6c0-0.3-0.1-0.7-0.1-0.8c-3.5,3.5-6.9,7.1-10.4,10.7
		C92.1,114.8,88.6,118.3,84.8,122.1z"/>
	<path class="st2" d="M23.5,54.9c-1.6,0-2.9-1.4-2.9-3c0.1-1.6,1.4-2.8,2.9-2.8c1.6,0,2.9,1.4,2.9,3C26.4,53.7,25.1,54.9,23.5,54.9z
		"/>
	<path class="st2" d="M128.8,25.3c-2,2-3.9,3.9-5.7,5.8c-0.2,0.2-0.1,0.9,0,1.3c1.5,5-1.2,10-6.1,11.2c-4.9,1.2-9.7-1.8-10.7-6.8
		c-1.3-6.4,4.9-11.9,11.2-9.9c0.9,0.3,1.4,0.2,2-0.5c1.7-1.8,3.4-3.4,5.2-5.2c-2.7-2-5.6-3-8.7-3.2c-9.7-0.7-18,6.8-18.3,16.6
		c0,1.4-0.3,2.7-1.7,3.1c-0.9,0.3-2.2,0.2-2.9-0.3c-0.7-0.4-1.1-1.6-1.1-2.5c-0.3-10.8,8.6-21,19.3-22.5c13.5-1.8,25,7.1,26.5,20.6
		c0.1,0.7,0.1,1.4,0.1,2c-0.1,1.7-1.2,2.9-2.8,3c-1.6,0.1-3-1.1-3-2.9c-0.1-3.2-0.9-6.2-2.6-9C129.3,26,129.1,25.8,128.8,25.3z
		 M114.8,38.1c1.6,0,3-1.3,2.9-2.9c0-1.5-1.3-2.8-2.9-2.9c-1.5,0-2.9,1.3-2.9,2.8C111.9,36.7,113.2,38.1,114.8,38.1z"/>
</g>
</svg>
