<?xml version="1.0" encoding="utf-8"?>
<!-- Generator: Adobe Illustrator 24.3.0, SVG Export Plug-In . SVG Version: 6.00 Build 0)  -->
<svg version="1.1" id="Layer_1" xmlns="http://www.w3.org/2000/svg" xmlns:xlink="http://www.w3.org/1999/xlink" x="0px" y="0px"
	 viewBox="0 0 150 150" style="enable-background:new 0 0 150 150;" xml:space="preserve">
<style type="text/css">
	.st0{fill:#CDEEFD;}
	.st1{fill:#111224;}
	.st2{fill:#005BAB;}
</style>
<path class="st0" d="M1465.3,1556.3c-2.4-0.2-4.3-1.3-4.4-4.1c-0.1-6.7,1.6-10,4.9-9.9c0.2,0,0.3,0,0.5,0c2.2,0.5,4.3,2.1,3.2,4
	C1467.7,1549.5,1473.1,1555.7,1465.3,1556.3z M1465.5,1554.4c1.3-0.1,2.3-0.6,2.3-2.1c-0.1-1.7-1.5-2.1-2.8-2.4c-1.6-0.4-2,0.8-2,2
	C1463,1553.5,1464,1554.2,1465.5,1554.4z M1467.8,1546.5c0-1.4-0.6-2.2-2.1-2.2c-0.9,0-1.6,0.4-1.7,1.4c-0.2,1.4,0.9,2.1,2,2.5
	C1467.3,1548.5,1467.6,1547.5,1467.8,1546.5z"/>
<path class="st0" d="M1455.8,1556.6c-0.5-2.9-1.8-4.2-4.6-3.6c-0.7,0.2-1.7,0.3-2.1-0.8c-0.4-1.1,0.1-1.5,1.2-2.1
	c2.1-1.2,2.1-3.9,3.2-5.8c0.6-1,1-2.2,2.5-1.9c1.4,0.3,0.9,1.6,0.8,2.5C1456.4,1548.6,1458.4,1552.5,1455.8,1556.6z"/>
<path class="st1" d="M1465.5,1554.4c-1.5-0.1-2.6-0.8-2.5-2.4c0-1.2,0.4-2.4,2-2c1.2,0.3,2.7,0.7,2.8,2.4
	C1467.8,1553.7,1466.8,1554.2,1465.5,1554.4z"/>
<path class="st1" d="M1467.8,1546.5c-0.2,1-0.5,2.1-1.8,1.7c-1.1-0.4-2.1-1-2-2.5c0.1-1,0.8-1.4,1.7-1.4
	C1467.2,1544.3,1467.8,1545,1467.8,1546.5z"/>
<polygon class="st2" points="1346.8,29.4 1346.9,29.6 1346.6,29.6 "/>
<g>
	<path class="st2" d="M149.1,148.6c-1.6,0.2-3.1,0.3-4.7,0.5c-0.3-3.2-0.6-6.3-0.9-9.4c-0.9-9-1.5-18.1-2.7-27.1
		c-1.2-8.9-6.1-15.4-14.3-19c-8.6-3.8-17.4-7.2-26-10.8c-5.9-2.4-10.8-6.1-14.8-11.1c-0.2-0.2-0.3-0.5-0.5-0.8
		c1.2-0.9,2.4-1.8,3.7-2.8c0.6,0.7,1.2,1.3,2,2.1c0.4-2.4,0.7-4.6,1.1-6.8c-4.9,4.2-10.8,6.2-16.9,6.2c-6.1,0-11.9-2-16.8-6.7
		c0.2,1.5,0.3,2.6,0.5,3.7c0.2,1.1,0.4,2.2,0.6,3.7c0.5-0.9,0.9-1.5,1.3-2.1c1.5,1.1,2.7,2,4.2,3.2c-1.9,1.9-3.7,3.8-5.6,5.6
		c-4,3.6-8.9,5.5-13.8,7.5c-7.4,3-14.8,5.9-22,9.2c-8.8,4-13.5,11.2-14.4,20.8c-1.1,11.2-2.1,22.4-3.2,33.6c0,0.3-0.1,0.6-0.1,1
		c-1.6-0.2-3.1-0.3-4.7-0.5c0.3-3.7,0.7-7.2,1-10.7c0.8-7.8,1.5-15.7,2.3-23.5c1.2-12.2,7.3-20.8,18.6-25.7
		c8.6-3.7,17.4-7.2,26-10.8c1.9-0.8,3.7-2,5.4-3.1c0.4-0.3,0.7-1.1,0.6-1.6c-0.9-6.2-2-12.3-2.9-18.4c-0.2-1.3-0.7-1.7-2.1-1.7
		c-5.5,0.1-8.4-2.1-9.7-7.5c-0.5-2.2-1.1-4.5-0.9-6.7c0.3-3.9,2.5-6.8,6-8.5c0.7-0.3,1-0.7,1-1.5C46.8,12.3,59.7,0.1,76.2,0.5
		c13.7,0.3,25.8,11.4,27.2,25c0.3,2.7,0.7,4.6,3.4,6.3c3.6,2.3,4.7,6.2,3.9,10.4c-0.3,1.5-0.7,3-1.1,4.5c-1.1,4-4.3,6.4-8.5,6.5
		c-0.8,0-1.7,0-2.7,0c-0.4,2.5-0.8,4.9-1.2,7.4c-0.7,4.2-1.3,8.5-2,12.7c-0.1,0.8,0,1.4,0.8,1.7c3.9,1.9,7.7,3.9,11.7,5.6
		c6.3,2.7,12.8,5.3,19.2,7.9c11.7,4.9,18,13.6,19.2,26.2c1,11,2.1,21.9,3.2,32.9C149.1,147.8,149.1,148.1,149.1,148.6z M51.1,31.2
		c0.2,7.7,2.4,16.1,6.7,23.9c3.5,6.3,10.8,10.5,19.1,9.7c6.6-0.7,11.9-3.7,15.2-9.6c4.7-8.4,7-17.4,6.8-27
		C98.6,15.9,88.1,5.6,75.8,5.3C61.8,5,51,15.8,51.1,31.2z M103.6,35.2c-1,4.4-2,8.7-2.9,13c2.2,0.2,3.6-0.7,4.2-2.9
		c0.4-1.3,0.7-2.7,1-4.1C106.4,38.9,105.6,36.9,103.6,35.2z M49.3,48.3c-1-4.3-1.9-8.6-2.9-12.9c-1.7,0.6-2.9,3.8-2.4,5.8
		c0.3,1.4,0.7,2.8,1.1,4.2C45.7,47.6,47.1,48.5,49.3,48.3z"/>
	<path class="st2" d="M94.1,93.8c0,10.6-8.6,19.2-19.1,19.1c-10.6,0-19.2-8.6-19.2-19.2c0-10.6,8.7-19.1,19.3-19.1
		C85.6,74.7,94.2,83.4,94.1,93.8z M60.7,93.8c0,7.9,6.4,14.4,14.3,14.4c7.9,0,14.4-6.4,14.4-14.3c0.1-7.9-6.4-14.4-14.3-14.4
		C67.1,79.5,60.7,85.9,60.7,93.8z"/>
	<path class="st2" d="M55.8,124.9c-1.6,0-3.1,0-4.7,0c0-0.6,0-1.2,0-1.8c-0.1-4.4,0-8.8-0.3-13.1c-0.2-3.1-1.6-5.9-3.5-8.4
		c-1.4-1.9-3.3-2.7-5.7-3c0-1.6,0-3.1,0-4.7c4,0.2,7.2,1.7,9.5,4.9c2.8,3.8,4.5,8,4.7,12.7C56,115.8,55.8,120.3,55.8,124.9z"/>
	<path class="st2" d="M108.4,93.9c0,1.5,0,3,0,4.5c-6.4,1.1-8.2,6.1-9.1,11.4c-0.6,3.4-0.3,7-0.4,10.6c0,1.4,0,2.9,0,4.4
		c-1.6,0-3.1,0-4.8,0c0.4-7.6-1.2-15.4,2.6-22.6c2.2-4.2,5.1-7.5,10.1-8.3c0.3-0.1,0.7-0.1,1-0.1C108,93.9,108.2,93.9,108.4,93.9z"
		/>
	<path class="st2" d="M123,119.7c1.6,0.4,3.1,0.8,4.6,1.1c-2.4,9.6-4.8,19.1-7.2,28.7c-1.6-0.4-3-0.7-4.6-1.2
		C118.2,138.8,120.5,129.3,123,119.7z"/>
	<path class="st2" d="M34.3,148.2c-0.4,0.2-0.7,0.3-1,0.3c-1.2,0.3-2.3,0.5-3.6,0.9c-2.4-9.6-4.8-19-7.2-28.6c1.6-0.4,3-0.8,4.6-1.2
		C29.5,129.1,31.9,138.6,34.3,148.2z"/>
	<path class="st2" d="M75,84.3c5.3,0,9.6,4.3,9.6,9.6c0,5.3-4.3,9.6-9.6,9.6c-5.2,0-9.5-4.3-9.5-9.5C65.4,88.6,69.7,84.3,75,84.3z
		 M70.2,93.8c0,2.6,2.1,4.7,4.8,4.8c2.6,0,4.8-2.1,4.8-4.7c0-2.7-2.2-4.9-4.8-4.8C72.4,89.1,70.2,91.2,70.2,93.8z"/>
</g>
</svg>
