<svg id="Capa_1" enable-background="new 0 0 512 512" height="512" viewBox="0 0 512 512" width="512" xmlns="http://www.w3.org/2000/svg"><g><g><path d="m455.548 275.884h-81.542c-31.178 0-56.452 25.275-56.452 56.452v169.664h76.346v10h108.1c5.523 0 10-4.477 10-10v-169.664c0-31.177-25.275-56.452-56.452-56.452z" fill="#4f66d0"/><path d="m437.193 368.602c-.196-42.831-28.025-79.823-67.847-92.511-28.996 2.372-51.793 26.638-51.793 56.245v179.664h119.647z" fill="#314dc9"/><g><circle cx="414.777" cy="213.159" fill="#ffdfcf" r="62.725"/></g><g><path d="m444.266 157.796c4.693 8.792 7.361 18.827 7.361 29.49 0 34.642-28.083 62.725-62.725 62.725-10.662 0-20.698-2.668-29.49-7.361 10.555 19.774 31.384 33.235 55.364 33.235 34.642 0 62.725-28.083 62.725-62.725 0-23.981-13.461-44.809-33.235-55.364z" fill="#ffcebf"/></g></g><g><path d="m118.118 502h76.329v-169.664c0-31.178-25.275-56.452-56.452-56.452h-81.543c-31.177 0-56.452 25.275-56.452 56.452v169.664c0 5.523 4.477 10 10 10h108.118z" fill="#4f66d0"/><path d="m118.118 502h76.329v-169.664c0-29.607-22.797-53.874-51.793-56.245-39.823 12.688-67.652 49.68-67.847 92.511l-.007 143.398h43.319v-10z" fill="#314dc9"/><g><circle cx="97.223" cy="213.159" fill="#ffdfcf" r="62.725"/></g><g><path d="m41.86 242.649c8.792 4.693 18.827 7.361 29.49 7.361 34.642 0 62.725-28.083 62.725-62.725 0-10.662-2.668-20.698-7.361-29.49 19.774 10.555 33.235 31.384 33.235 55.364 0 34.642-28.083 62.725-62.725 62.725-23.98 0-44.809-13.461-55.364-33.235z" fill="#ffcebf"/></g></g><g><g><g><path d="m403.893 368.754c-.143-31.162-22.617-57.758-53.353-63.065l-32.638-5.635-55.831 42.549c-3.58 2.729-8.542 2.729-12.123 0l-55.831-42.549-32.639 5.635c-30.736 5.307-53.21 31.903-53.353 63.065l-.007 133.246c0 5.523 4.477 10 10 10h275.781c5.523 0 10-4.477 10-10z" fill="#e6f7fe"/></g><g><path d="m403.893 368.754c-.139-30.327-21.432-56.322-50.905-62.585 11.599 11.648 18.675 27.651 18.755 45.088h.007v160.743h22.15c5.523 0 10-4.477 10-10v-133.246z" fill="#d3effd"/></g><g><path d="m292.181 287.192v-22.132h-72.341l-.002 22.132c0 4.866-3.503 9.025-8.299 9.853l-17.423 3.008 55.831 42.549c3.58 2.729 8.542 2.729 12.123 0l55.831-42.549-17.422-3.008c-4.795-.827-8.298-4.987-8.298-9.853z" fill="#ffdfcf"/></g><path d="m295.312 294.449c-1.938-1.836-3.131-4.424-3.131-7.257v-22.132h-72.341l-.002 22.132c0 2.833-1.193 5.421-3.132 7.257 10.087 3.762 24.349 7.697 32.536 7.697h13.534c8.187.001 22.449-3.935 32.536-7.697z" fill="#ffcebf"/></g></g><g fill="#30569f"><path d="m479.844 369.441c-2.928-2.929-7.677-2.928-10.606 0l-6.431 6.431c-1.406 1.407-2.196 3.314-2.196 5.303v130.825h15v-127.717l4.234-4.234c2.928-2.93 2.928-7.678-.001-10.608z"/><path d="m42.762 369.442c-2.929-2.929-7.678-2.929-10.606 0-2.929 2.929-2.929 7.678 0 10.606l4.234 4.234v127.718h15v-130.824c0-1.989-.79-3.897-2.197-5.303z"/></g><g fill="#b2e5fb"><path d="m347.633 463.915c-4.143 0-7.5 3.358-7.5 7.5v40.585h15v-40.585c0-4.143-3.358-7.5-7.5-7.5z"/><path d="m164.384 463.915c-4.142 0-7.5 3.358-7.5 7.5v40.585h15v-40.585c0-4.143-3.358-7.5-7.5-7.5z"/></g><path d="m187.419 353.608v-65.348c0-7.341 5.972-13.313 13.313-13.313h19.107v-15h-19.107c-15.612 0-28.313 12.701-28.313 28.313v65.347c-21.811 3.593-38.504 22.571-38.504 45.383v23.935c0 12.169 9.9 22.069 22.069 22.069h7.284c4.142 0 7.5-3.358 7.5-7.5s-3.358-7.5-7.5-7.5h-7.284c-3.898 0-7.069-3.171-7.069-7.069v-23.935c0-17.096 13.908-31.004 31.004-31.004s31.004 13.909 31.004 31.004v23.935c0 3.898-3.171 7.069-7.069 7.069h-7.285c-4.142 0-7.5 3.358-7.5 7.5s3.358 7.5 7.5 7.5h7.285c12.169 0 22.069-9.9 22.069-22.069v-23.935c0-22.812-16.693-41.79-38.504-45.382z" fill="#9facba"/><g><path d="m339.581 420.21h-15v-131.95c0-7.341-5.973-13.313-13.313-13.313h-19.087v-15h19.087c15.612 0 28.313 12.701 28.313 28.313z" fill="#9facba"/></g><g><circle cx="332.081" cy="426.047" fill="#4f66d0" r="16.65"/></g><g><circle cx="256" cy="41.626" fill="#9b5e5e" r="41.626"/></g><g><path d="m184.504 140.472v64.142c0 16.847 6.76 32.989 18.764 44.808l11.505 11.328c10.995 10.825 25.805 16.893 41.235 16.893 15.43 0 30.24-6.068 41.235-16.893l11.505-11.328c12.004-11.82 18.764-27.962 18.764-44.808v-64.142c0-39.491-32.013-71.504-71.504-71.504-39.49 0-71.504 32.013-71.504 71.504z" fill="#ffdfcf"/></g><g><path d="m256.008 68.968c-4.445 0-8.794.409-13.015 1.185 33.276 6.12 58.489 35.273 58.489 70.319v64.142c0 16.847-6.76 32.989-18.764 44.808l-11.505 11.328c-7.848 7.728-17.646 13.014-28.22 15.417 4.239.963 8.6 1.476 13.015 1.476 15.43 0 30.24-6.068 41.235-16.893l11.505-11.328c12.004-11.82 18.764-27.962 18.764-44.808v-64.142c.001-39.491-32.013-71.504-71.504-71.504z" fill="#ffcebf"/></g><g><path d="m256.002 41.626c-53.863 0-97.528 43.665-97.528 97.527v28.483h26.023v13.706c27.156 0 52.415-22.186 64.331-34.484 3.93-4.056 10.424-4.056 14.353 0 11.916 12.299 37.175 34.484 64.331 34.484v-13.706h26.023v-28.483c0-53.863-43.665-97.527-97.527-97.527" fill="#b98080"/></g><g><path d="m304.151 54.322c10.782 59.063-17.85 90.239-31.264 101.77 13.441 11.77 33.456 25.251 54.625 25.251v-13.706h26.023v-28.483c.001-36.354-19.892-68.058-49.384-84.832z" fill="#ae6c6c"/></g><g><path d="m177.232 204.614c-13.069 0-23.622-10.774-23.262-23.925.348-12.675 11.066-22.617 23.746-22.617h1.965c2.663 0 4.823 2.159 4.823 4.823v41.719z" fill="#ffb09e"/></g><g><path d="m334.785 204.614c13.069 0 23.622-10.774 23.262-23.925-.348-12.675-11.066-22.617-23.746-22.617h-1.965c-2.663 0-4.823 2.159-4.823 4.823v41.719z" fill="#ffb09e"/></g><g><g><path d="m163.269 450.198c-4.142 0-7.5-3.358-7.5-7.5v-10.406c0-4.142 3.358-7.5 7.5-7.5s7.5 3.358 7.5 7.5v10.406c0 4.142-3.358 7.5-7.5 7.5z" fill="#4f66d0"/></g><g><path d="m196.569 450.198c-4.142 0-7.5-3.358-7.5-7.5v-10.406c0-4.142 3.358-7.5 7.5-7.5s7.5 3.358 7.5 7.5v10.406c0 4.142-3.358 7.5-7.5 7.5z" fill="#4f66d0"/></g></g></g></svg>