<?xml version="1.0" encoding="UTF-8"?>
<svg xmlns="http://www.w3.org/2000/svg" width="512" height="512" viewBox="0 0 64 64"><g id="expanded"><path d="M33.5,57.88965h-3a1.25,1.25,0,0,1,0-2.5h3a1.25,1.25,0,0,1,0,2.5Z" style="fill:#ff8a93"/><path d="M21.90332,11.12207l2.731-2.72754a1.25127,1.25127,0,0,1,1.97265.27149l2.56885,4.56347,3.32715-4.97363a1.25618,1.25618,0,0,1,2.09668.0293l1.873,2.97265L37.96,8.77734a1.25107,1.25107,0,0,1,2.00586-.1875l2.25488,2.53223h2.65723V5.83887H19.12207v5.2832Z" style="fill:#2a3854"/><path d="M46.999.75H17.001A3.25376,3.25376,0,0,0,13.751,4V20.793a3.25376,3.25376,0,0,0,3.25,3.25h.541V26.4082a1.24991,1.24991,0,0,0,1.25,1.25H45.208a1.24991,1.24991,0,0,0,1.25-1.25V24.043h.541a3.25376,3.25376,0,0,0,3.25-3.25V4A3.25376,3.25376,0,0,0,46.999.75Zm.37891,18.40527a2.25309,2.25309,0,0,1-2.25,2.25H18.87207a2.25277,2.25277,0,0,1-2.25-2.25V5.58887a2.25277,2.25277,0,0,1,2.25-2.25H45.12793a2.25309,2.25309,0,0,1,2.25,2.25Z" style="fill:#2a3854"/><path d="M41.66016,13.62207a1.25005,1.25005,0,0,1-.9336-.41894l-1.49707-1.68165-1.65918,2.76563a1.24858,1.24858,0,0,1-2.12988.02246l-1.92969-3.06348-3.38769,5.06446a1.25061,1.25061,0,0,1-2.12842-.082l-2.75879-4.90137-1.93213,1.92969a1.25287,1.25287,0,0,1-.8833.36523H19.12207v5.2832H44.87793v-5.2832Z" style="fill:#2a3854"/><path d="M48.69629,42.5293a5.35938,5.35938,0,1,0,5.35937,5.35937A5.36472,5.36472,0,0,0,48.69629,42.5293Zm0,7.16894a1.80957,1.80957,0,1,1,1.80957-1.80957A1.81109,1.81109,0,0,1,48.69629,49.69824Z" style="fill:#5dd1fd"/><path d="M15.30322,42.5293a5.35938,5.35938,0,1,0,5.35938,5.35937A5.36555,5.36555,0,0,0,15.30322,42.5293Zm0,7.16894a1.80957,1.80957,0,1,1,1.80957-1.80957A1.81161,1.81161,0,0,1,15.30322,49.69824Z" style="fill:#5dd1fd"/><path d="M60,.75H56.72949a3.25377,3.25377,0,0,0-3.25,3.25v6.2832a3.25376,3.25376,0,0,0,3.25,3.25h.33985v8.29395a3.73719,3.73719,0,0,1-2.01758,3.32519l-4.61524,2.40625a6.2277,6.2277,0,0,0-2.86517,3.10157H16.42871a6.228,6.228,0,0,0-2.86426-3.10157l-4.6167-2.40625a3.73857,3.73857,0,0,1-2.01709-3.32519V13.5332h.33985a3.25376,3.25376,0,0,0,3.25-3.25V4a3.25377,3.25377,0,0,0-3.25-3.25H4A3.25377,3.25377,0,0,0,.75,4v6.2832A3.25376,3.25376,0,0,0,4,13.5332h.43066v8.29395a6.22919,6.22919,0,0,0,3.36182,5.542l4.6167,2.40625a3.748,3.748,0,0,1,1.108.88477h-4.087A3.25635,3.25635,0,0,0,6.96338,31.794L3.53223,35.77441A3.24569,3.24569,0,0,0,2.75,37.88965v16.75a3.25377,3.25377,0,0,0,3.25,3.25H7.47607V61a2.25278,2.25278,0,0,0,2.25,2.25H17.792A2.25278,2.25278,0,0,0,20.042,61V57.88965H25.5a1.25,1.25,0,0,0,0-2.5H6a.75114.75114,0,0,1-.75-.75v-1.3916H6.90088a1.25,1.25,0,1,0,0-2.5H5.25V49.13867H6.90088a1.25,1.25,0,1,0,0-2.5H5.25V45.0293H6.90088a1.25,1.25,0,1,0,0-2.5H5.25V37.88965a.73936.73936,0,0,1,.17676-.4834l3.43017-3.97949a.75979.75979,0,0,1,.57325-.2666h4.9956v3.35351H11.55731a1.25,1.25,0,0,0,0,2.5H19.8161a1.25,1.25,0,0,0,0-2.5H16.92578V33.16016H47.07422v3.35351H44.23615a1.25,1.25,0,0,0,0,2.5h8.25976a1.25,1.25,0,0,0,0-2.5H49.57422V33.16016h4.99609a.75777.75777,0,0,1,.57227.2666l3.42969,3.97949a.7396.7396,0,0,1,.17773.4834V42.5293H57.09961a1.25,1.25,0,0,0,0,2.5H58.75v1.60937H57.09961a1.25,1.25,0,0,0,0,2.5H58.75v1.60938H57.09961a1.25,1.25,0,0,0,0,2.5H58.75v1.3916a.75145.75145,0,0,1-.75.75H38.5a1.25,1.25,0,0,0,0,2.5h5.458V61a2.25309,2.25309,0,0,0,2.25,2.25h8.06543a2.25309,2.25309,0,0,0,2.25-2.25V57.88965H58a3.25377,3.25377,0,0,0,3.25-3.25v-16.75a3.2447,3.2447,0,0,0-.7832-2.11621L57.03613,31.794a3.25506,3.25506,0,0,0-2.46582-1.13379h-4.0874a3.74723,3.74723,0,0,1,1.10889-.88477L56.207,27.36914a6.22872,6.22872,0,0,0,3.36231-5.542V13.5332H60a3.25376,3.25376,0,0,0,3.25-3.25V4A3.25377,3.25377,0,0,0,60,.75ZM4,11.0332a.75113.75113,0,0,1-.75-.75V4A.75113.75113,0,0,1,4,3.25H7.27051a.75113.75113,0,0,1,.75.75v6.2832a.75113.75113,0,0,1-.75.75ZM17.542,60.75H9.97607V57.89453H17.542Zm36.48145,0H46.458V57.89453h7.56543ZM60.75,10.2832a.75144.75144,0,0,1-.75.75H56.72949a.75145.75145,0,0,1-.75-.75V4a.75145.75145,0,0,1,.75-.75H60a.75144.75144,0,0,1,.75.75Z" style="fill:#2a3854"/><path d="M25.27783,43.7793v8.21875a1.24991,1.24991,0,0,0,1.25,1.25H37.47168a1.24991,1.24991,0,0,0,1.25-1.25V43.7793a1.24991,1.24991,0,0,0-1.25-1.25H26.52783A1.24991,1.24991,0,0,0,25.27783,43.7793Zm7.97217,1.25h2.97168v5.71875H33.25Zm-5.47217,0H30.75v5.71875H27.77783Z" style="fill:#2a3854"/><path d="M36.12988,39.01367a1.25,1.25,0,0,0,0-2.5H27.87061a1.25,1.25,0,1,0,0,2.5Z" style="fill:#2a3854"/></g></svg>
