<svg xmlns="http://www.w3.org/2000/svg" viewBox="0 0 489.613 483.73">
  <defs>
    <style>
      .cls-1 {
        fill: #d66ea6;
      }

      .cls-2 {
        fill: #2e3168;
      }
    </style>
  </defs>
  <g id="values" transform="translate(-5.195 -8.14)">
    <path id="Path_19" data-name="Path 19" class="cls-1" d="M110.44,84.31a.985.985,0,0,1,.02.17c.04.3.08.6.14.9.03.15.07.3.11.45.05.2.09.4.15.59.05.16.1.32.16.48.06.18.13.36.2.54.06.16.13.31.2.46.08.17.16.35.25.52.08.15.16.29.24.44.1.17.2.33.3.49.09.14.18.28.28.42s.22.31.34.46.22.27.33.4c.05.06.1.13.15.19L250.94,244.33c.06.07.14.13.2.2l.27.27a11.917,11.917,0,0,0,1.07.95,2.093,2.093,0,0,1,.17.14,11.983,11.983,0,0,0,1.36.86c.11.06.22.11.33.17a13.212,13.212,0,0,0,1.34.58c.06.02.12.05.19.07a12,12,0,0,0,1.57.39l.39.06a11.636,11.636,0,0,0,1.67.14h0a11.637,11.637,0,0,0,1.67-.14l.4-.06a11.861,11.861,0,0,0,1.56-.39,1.192,1.192,0,0,0,.2-.08,10.947,10.947,0,0,0,1.32-.57c.12-.06.23-.11.35-.18a9.786,9.786,0,0,0,1.34-.85c.07-.05.13-.11.19-.16a11.332,11.332,0,0,0,1.05-.92l.29-.29c.06-.07.13-.12.19-.19L405.68,90.83c.05-.06.09-.12.15-.18.12-.14.24-.28.35-.43s.22-.29.32-.43.2-.29.3-.44.19-.31.29-.47.17-.3.25-.46.16-.33.24-.49.15-.32.21-.49.13-.34.19-.51.12-.33.17-.5c.05-.19.1-.37.14-.56.04-.16.08-.32.11-.48.05-.28.09-.56.13-.84.01-.1.03-.19.04-.29.03-.34.05-.69.05-1.03v-.07c0-.1-.01-.2-.02-.3-.01-.24-.02-.48-.04-.72-.01-.16-.04-.31-.06-.47-.03-.2-.05-.4-.09-.6-.03-.17-.07-.34-.11-.51s-.09-.36-.14-.53-.1-.34-.16-.51-.12-.34-.18-.5-.13-.34-.2-.5-.15-.32-.23-.48-.16-.32-.25-.48-.18-.31-.28-.46-.19-.31-.29-.46-.21-.28-.31-.42-.22-.3-.34-.45a.21.21,0,0,1-.04-.06L351.97,12.2a11.5,11.5,0,0,0-8.76-4.06H175.78a11.47,11.47,0,0,0-8.76,4.06L113.11,75.72c-.02.02-.03.04-.05.06-.11.13-.21.27-.31.4-.12.15-.24.31-.35.46l-.27.42c-.1.17-.21.33-.3.5-.08.14-.15.29-.23.44-.09.17-.17.35-.25.52-.07.15-.13.31-.19.47-.07.18-.14.36-.2.54l-.15.48-.15.57c-.04.16-.07.32-.1.48-.04.21-.07.42-.1.62-.02.15-.04.29-.05.44-.02.25-.03.5-.04.75,0,.09-.01.18-.01.28v.07C110.38,83.59,110.4,83.95,110.44,84.31Zm37.17,10.34h58.48l28.22,96.7ZM259.5,195.64,230.02,94.65h58.95Zm25.19-4.3,28.22-96.69h58.47Zm53.2-160.21L372.3,71.67H310.25L281.66,31.13h56.23ZM282.13,71.66H236.87L259.5,39.57ZM181.1,31.13h56.23L208.74,71.67H146.69Z"/>
    <path id="Path_20" data-name="Path 20" class="cls-2" d="M492.11,242.57a35.15,35.15,0,0,0-52.74-15.27c-.39.27-.77.57-1.13.87l-77.01,64.75a46.648,46.648,0,0,0-42.47-27.47H129.66a16.865,16.865,0,0,0-11.92,4.94L10.13,377.99a16.863,16.863,0,0,0,0,23.84l85.1,85.1a16.851,16.851,0,0,0,23.84,0l63.5-63.5H351.18a16.871,16.871,0,0,0,12.64-5.7l121.1-137.27A35.056,35.056,0,0,0,492.11,242.57Zm-31.45,14.47c-.25.25-.49.5-.72.77L343.57,389.71H175.58a16.865,16.865,0,0,0-11.92,4.94l-56.52,56.52L45.88,389.91l90.76-90.75H318.76a12.851,12.851,0,0,1,9.64,21.36l-2.94,2.47a12.763,12.763,0,0,1-6.71,1.89H168.38a16.85,16.85,0,1,0,0,33.7H318.76a46.3,46.3,0,0,0,25.81-7.82c.37-.24.74-.49,1.1-.76a46.267,46.267,0,0,0,5.59-4.67l107.82-90.65a1.459,1.459,0,0,1,.55-.11,1.454,1.454,0,0,1,1.03,2.47Z"/>
  </g>
</svg>
