<svg id="Layer_1" height="512" viewBox="0 0 512 512" width="512" xmlns="http://www.w3.org/2000/svg"><g><g><g><path d="m328 48h-304c-4.418 0-8-3.582-8-8v-16c0-4.418 3.582-8 8-8h304c4.418 0 8 3.582 8 8v16c0 4.418-3.582 8-8 8z" fill="#faa019"/></g><g><path d="m248 48h80c4.418 0 8-3.582 8-8v-16c0-4.418-3.582-8-8-8h-80c-4.418 0-8 3.582-8 8v16c0 4.418 3.582 8 8 8z" fill="#f06423"/></g><g><path d="m32 48h288v336h-288z" fill="#a5c3dc"/></g><g><path d="m32 64h208v320h-208z" fill="#d7e6f0"/></g><g><g><path d="m120 224h-48c-4.418 0-8-3.582-8-8v-48c0-4.418 3.582-8 8-8h48c4.418 0 8 3.582 8 8v48c0 4.418-3.582 8-8 8z" fill="#5ad7ff"/></g><g><path d="m80 216v-48c0-4.418 3.582-8 8-8h-16c-4.418 0-8 3.582-8 8v48c0 4.418 3.582 8 8 8h16c-4.418 0-8-3.582-8-8z" fill="#23aae6"/></g></g><g><g><path d="m200 224h-48c-4.418 0-8-3.582-8-8v-48c0-4.418 3.582-8 8-8h48c4.418 0 8 3.582 8 8v48c0 4.418-3.582 8-8 8z" fill="#5ad7ff"/></g><g><path d="m160 216v-48c0-4.418 3.582-8 8-8h-16c-4.418 0-8 3.582-8 8v48c0 4.418 3.582 8 8 8h16c-4.418 0-8-3.582-8-8z" fill="#23aae6"/></g></g><g><g><path d="m120 144h-48c-4.418 0-8-3.582-8-8v-48c0-4.418 3.582-8 8-8h48c4.418 0 8 3.582 8 8v48c0 4.418-3.582 8-8 8z" fill="#5ad7ff"/></g><g><path d="m80 136v-48c0-4.418 3.582-8 8-8h-16c-4.418 0-8 3.582-8 8v48c0 4.418 3.582 8 8 8h16c-4.418 0-8-3.582-8-8z" fill="#23aae6"/></g></g><g><g><path d="m200 144h-48c-4.418 0-8-3.582-8-8v-48c0-4.418 3.582-8 8-8h48c4.418 0 8 3.582 8 8v48c0 4.418-3.582 8-8 8z" fill="#5ad7ff"/></g><g><path d="m160 136v-48c0-4.418 3.582-8 8-8h-16c-4.418 0-8 3.582-8 8v48c0 4.418 3.582 8 8 8h16c-4.418 0-8-3.582-8-8z" fill="#23aae6"/></g></g><g><path d="m16 352h480v32h-480z" fill="#555a6e"/></g><g><path d="m192 240h-112c-8.837 0-16 7.163-16 16v93.333h144v-93.333c0-8.837-7.163-16-16-16z" fill="#5ad7ff"/></g><g><path d="m96 240h-16c-8.836 0-16 7.164-16 16v93.333h16v-93.333c0-8.836 7.164-16 16-16z" fill="#23aae6"/></g></g><g><path d="m480 352h-208v-224c0-8.837 7.163-16 16-16h176c8.837 0 16 7.163 16 16z" fill="#a5c3dc"/></g><g><path d="m416 352h-144v-224c0-8.837 7.163-16 16-16h112c8.837 0 16 7.163 16 16z" fill="#d7e6f0"/></g><g><g><path d="m328 192h-32c-4.418 0-8-3.582-8-8v-32c0-4.418 3.582-8 8-8h32c4.418 0 8 3.582 8 8v32c0 4.418-3.582 8-8 8z" fill="#5ad7ff"/></g><g><path d="m304 184v-32c0-4.418 3.582-8 8-8h-16c-4.418 0-8 3.582-8 8v32c0 4.418 3.582 8 8 8h16c-4.418 0-8-3.582-8-8z" fill="#23aae6"/></g><g><path d="m392 192h-32c-4.418 0-8-3.582-8-8v-32c0-4.418 3.582-8 8-8h32c4.418 0 8 3.582 8 8v32c0 4.418-3.582 8-8 8z" fill="#5ad7ff"/></g><g><path d="m368 184v-32c0-4.418 3.582-8 8-8h-16c-4.418 0-8 3.582-8 8v32c0 4.418 3.582 8 8 8h16c-4.418 0-8-3.582-8-8z" fill="#23aae6"/></g><g><path d="m328 256h-32c-4.418 0-8-3.582-8-8v-32c0-4.418 3.582-8 8-8h32c4.418 0 8 3.582 8 8v32c0 4.418-3.582 8-8 8z" fill="#5ad7ff"/></g><g><path d="m304 248v-32c0-4.418 3.582-8 8-8h-16c-4.418 0-8 3.582-8 8v32c0 4.418 3.582 8 8 8h16c-4.418 0-8-3.582-8-8z" fill="#23aae6"/></g><g><path d="m392 256h-32c-4.418 0-8-3.582-8-8v-32c0-4.418 3.582-8 8-8h32c4.418 0 8 3.582 8 8v32c0 4.418-3.582 8-8 8z" fill="#5ad7ff"/></g><g><path d="m368 248v-32c0-4.418 3.582-8 8-8h-16c-4.418 0-8 3.582-8 8v32c0 4.418 3.582 8 8 8h16c-4.418 0-8-3.582-8-8z" fill="#23aae6"/></g></g><g><g><path d="m404.267 313.6c-8.219 0-15.566-5.085-18.493-12.765-.854-2.242-1.774-4.452-2.755-6.629-3.391-7.522-1.819-16.347 4.015-22.182l.008-.008c7.733-7.733 7.733-20.27 0-28.003l-14.989-14.989c-3.866-3.866-8.934-5.8-14.001-5.8h-32.067c-5.068 0-10.135 1.933-14.001 5.799l-.008.008c-.369.369-.751.721-1.143 1.056-7.406-3.047-12.284-10.245-12.284-18.288 0-10.936-8.865-19.801-19.801-19.801h-49.347c-10.936 0-19.801 8.865-19.801 19.801 0 8.043-4.877 15.24-12.284 18.288-.392-.335-.774-.686-1.143-1.056l-.008-.008c-3.866-3.866-8.934-5.799-14.001-5.799h-28.148c-5.067 0-10.135 1.933-14.001 5.8l-14.989 14.989c-7.733 7.733-7.733 20.27 0 28.003l.008.008c5.835 5.835 7.407 14.66 4.015 22.182-.981 2.176-1.9 4.386-2.755 6.629-2.927 7.68-10.274 12.765-18.493 12.765-10.936 0-19.801 8.865-19.801 19.801v21.198c0 10.936 8.865 19.801 19.801 19.801 8.219 0 15.566 5.085 18.493 12.765.854 2.242 1.774 4.452 2.755 6.629 3.391 7.522 1.819 16.347-4.015 22.182l-.008.008c-7.733 7.733-7.733 20.27 0 28.003l14.989 14.989c3.866 3.866 8.934 5.8 14.001 5.8h28.148c5.068 0 10.135-1.933 14.001-5.799l.008-.008c.369-.369.751-.721 1.143-1.056 7.406 3.047 12.284 10.245 12.284 18.288 0 10.936 8.865 19.801 19.801 19.801h47.657c10.936 0 21.491-8.865 21.491-19.801 0-8.043 4.877-15.24 12.284-18.288.392.335.774.686 1.143 1.056l.008.008c3.866 3.866 8.934 5.799 14.001 5.799h32.067c5.068 0 10.135-1.933 14.001-5.8l14.989-14.989c7.733-7.733 7.733-20.27 0-28.003l-.008-.008c-5.835-5.835-7.407-14.66-4.015-22.182.981-2.176 1.9-4.386 2.755-6.629 2.927-7.68 10.274-12.765 18.493-12.765 10.936 0 19.801-8.865 19.801-19.801v-21.198c-.001-10.936-8.866-19.801-19.801-19.801z" fill="#f06423"/></g><g><g><path d="m392 354.599v-21.198c0-10.936-8.865-19.801-19.801-19.801-8.219 0-15.566-5.085-18.493-12.765-.854-2.242-1.774-4.452-2.755-6.629-3.391-7.522-1.819-16.347 4.015-22.182l.008-.008c7.733-7.733 7.733-20.27 0-28.003l-14.989-14.989c-7.733-7.733-20.27-7.733-28.003 0l-.008.008c-5.835 5.834-14.659 7.406-22.181 4.015-2.176-.981-4.386-1.9-6.628-2.755-7.68-2.927-12.765-10.274-12.765-18.493 0-10.936-8.865-19.801-19.801-19.801h-21.198c-10.936 0-19.801 8.865-19.801 19.801 0 8.219-5.085 15.566-12.765 18.493-2.242.854-4.452 1.774-6.628 2.755-7.522 3.391-16.347 1.819-22.181-4.015l-.008-.008c-7.733-7.733-20.27-7.733-28.003 0l-14.989 14.989c-7.733 7.733-7.733 20.27 0 28.003l.008.008c5.835 5.835 7.407 14.66 4.015 22.182-.981 2.176-1.9 4.386-2.755 6.629-2.927 7.68-10.274 12.765-18.493 12.765-10.936 0-19.801 8.865-19.801 19.801v21.198c0 10.936 8.865 19.801 19.801 19.801 8.219 0 15.566 5.085 18.493 12.765.854 2.242 1.774 4.452 2.755 6.629 3.391 7.522 1.819 16.347-4.015 22.182l-.008.008c-7.733 7.733-7.733 20.27 0 28.003l14.989 14.989c7.733 7.733 20.27 7.733 28.003 0l.008-.008c5.835-5.834 14.659-7.406 22.181-4.015 2.176.981 4.386 1.9 6.628 2.755 7.68 2.927 12.765 10.274 12.765 18.493 0 10.936 8.865 19.801 19.801 19.801h21.198c10.936 0 19.801-8.865 19.801-19.801 0-8.219 5.085-15.566 12.765-18.493 2.242-.854 4.452-1.774 6.628-2.755 7.522-3.391 16.347-1.819 22.181 4.015l.008.008c7.733 7.733 20.27 7.733 28.003 0l14.989-14.989c7.733-7.733 7.733-20.27 0-28.003l-.008-.008c-5.835-5.835-7.407-14.66-4.015-22.182.981-2.176 1.9-4.386 2.755-6.629 2.927-7.68 10.274-12.765 18.493-12.765 10.936 0 19.801-8.865 19.801-19.801z" fill="#faa019"/></g></g><g><circle cx="240" cy="344" fill="#d7e6f0" r="80.314"/></g><g><path d="m216 392c-4.095 0-8.189-1.562-11.313-4.686l-24-24c-6.249-6.249-6.249-16.379 0-22.627 6.248-6.249 16.379-6.249 22.627 0l12.686 12.686 52.687-52.686c6.248-6.249 16.379-6.249 22.627 0 6.249 6.249 6.249 16.379 0 22.627l-64 64c-3.125 3.124-7.219 4.686-11.314 4.686z" fill="#91c83c"/></g></g></g></svg>