<?xml version="1.0" encoding="utf-8"?>
<!-- Generator: Adobe Illustrator 24.3.0, SVG Export Plug-In . SVG Version: 6.00 Build 0)  -->
<svg version="1.1" id="Layer_1" xmlns="http://www.w3.org/2000/svg" xmlns:xlink="http://www.w3.org/1999/xlink" x="0px" y="0px"
	 viewBox="0 0 150 150" style="enable-background:new 0 0 150 150;" xml:space="preserve">
<style type="text/css">
	.st0{fill:#CDEEFD;}
	.st1{fill:#111224;}
	.st2{fill:#005BAB;}
</style>
<path class="st0" d="M1465.3,1556.3c-2.4-0.2-4.3-1.3-4.4-4.1c-0.1-6.7,1.6-10,4.9-9.9c0.2,0,0.3,0,0.5,0c2.2,0.5,4.3,2.1,3.2,4
	C1467.7,1549.5,1473.1,1555.7,1465.3,1556.3z M1465.5,1554.4c1.3-0.1,2.3-0.6,2.3-2.1c-0.1-1.7-1.5-2.1-2.8-2.4c-1.6-0.4-2,0.8-2,2
	C1463,1553.5,1464,1554.2,1465.5,1554.4z M1467.8,1546.5c0-1.4-0.6-2.2-2.1-2.2c-0.9,0-1.6,0.4-1.7,1.4c-0.2,1.4,0.9,2.1,2,2.5
	C1467.3,1548.5,1467.6,1547.5,1467.8,1546.5z"/>
<path class="st0" d="M1455.8,1556.6c-0.5-2.9-1.8-4.2-4.6-3.6c-0.7,0.2-1.7,0.3-2.1-0.8c-0.4-1.1,0.1-1.5,1.2-2.1
	c2.1-1.2,2.1-3.9,3.2-5.8c0.6-1,1-2.2,2.5-1.9c1.4,0.3,0.9,1.6,0.8,2.5C1456.4,1548.6,1458.4,1552.5,1455.8,1556.6z"/>
<path class="st1" d="M1465.5,1554.4c-1.5-0.1-2.6-0.8-2.5-2.4c0-1.2,0.4-2.4,2-2c1.2,0.3,2.7,0.7,2.8,2.4
	C1467.8,1553.7,1466.8,1554.2,1465.5,1554.4z"/>
<path class="st1" d="M1467.8,1546.5c-0.2,1-0.5,2.1-1.8,1.7c-1.1-0.4-2.1-1-2-2.5c0.1-1,0.8-1.4,1.7-1.4
	C1467.2,1544.3,1467.8,1545,1467.8,1546.5z"/>
<g>
	<path class="st2" d="M33.1,134.7c-0.4-4.3-0.9-8.4-1.3-12.5c-0.9-8.2-1.8-16.3-2.7-24.4c0-0.6-0.5-1.4-1-1.7
		c-7.7-5.4-10.9-14.2-8.2-23.2c3-10.1,5.9-20.3,9-30.4c2-6.6,6.5-10.7,13.2-12.3c0.4-0.1,0.9-0.2,1.5-0.4c-3.4-3.9-5.1-8.3-4.7-13.5
		c0.3-3.8,1.7-7.1,4.2-10c4.8-5.6,12.9-7.5,19.8-4.7c6.8,2.8,11.3,9.9,10.7,17.4c-0.5,6.3-4.6,13.9-14.7,16c0.1,0.2,0.3,0.4,0.4,0.6
		c3.7,3.8,5.8,8.4,6,13.8c0,0.7,0.2,1.5,0.6,2c5.2,9.6,7.2,19.8,6.4,30.6c-0.4,5.6-2.6,10.2-7.9,13c-0.4,0.2-0.8,0.7-1,1.1
		c-3.8,9.3-4.9,19-5,28.9c0,0.4,0.3,1,0.6,1.3c2.7,2.1,4.1,4.9,4.3,8.5c0.5,0,1.1,0,1.6,0c9.2,0,18.3,0,27.6,0
		c2.7,0,3.4,0.8,3.4,3.4c0,2.9,0,5.7,0,8.5c0,2-0.9,3-3,3c-20.4,0-40.9,0-61.3,0c-2,0-3-0.9-3-2.9c0-2.9,0-5.7,0-8.5
		c0-2.7,0.7-3.4,3.4-3.4C32.4,134.7,32.7,134.7,33.1,134.7z M31,53c-0.1,0.2-0.2,0.3-0.3,0.5c-2.1,7.2-4.4,14.4-6.3,21.6
		c-1.8,6.7,1.2,13.6,7.2,17c1.5,0.9,2.2,1.9,2.4,3.6c1,9.9,2.1,19.9,3.2,29.8c0.3,3,0.7,5.9,1,8.8c3.3,0,6.3,0,9.9,0
		c-1.1-1-1.7-1.8-2.5-2.2c-1.6-0.8-2.1-2-2.1-3.7c0-6.7,0-13.4,0-20.1c0-1.3,0-2.6,0-3.9c0.1-1.2,0.8-2.2,2-2.2
		c0.8,0,1.8,0.5,2.5,1.1c0.4,0.4,0.4,1.4,0.4,2c0,7.1,0,14.2,0,21.3c0,0.5,0.2,1.3,0.6,1.6c2,1.6,3.4,3.6,4.1,6.1c1.7,0,3.4,0,5.2,0
		c-0.1-2.3-1.1-3.9-3.1-4.9c-1.1-0.6-1.9-1.3-1.9-2.6c0.3-8.2,0.3-16.3,2.6-24.2c0.5-1.9,1.2-3.8,1.7-5.8c-0.3,0-0.5,0-0.8,0
		c-4.1,0.4-7.9-0.7-11.6-2.3c-1.5-0.7-2.1-1.9-1.6-3.3c0.5-1.3,1.8-1.9,3.3-1.4c0.7,0.2,1.4,0.5,2,0.8c2.5,1.1,5.1,1.5,7.9,1.2
		c5.6-0.5,9.3-3.6,10-9.1c1.3-10.1-0.6-19.8-5.5-28.8c-0.8-1.6-1.3-3.1-1.4-4.9c-0.1-4.7-2.2-8.5-5.8-11.4
		c-6.8-5.5-16.5-3.7-19.9,3.8C33,45.2,32.2,49.2,31,53C31,53.1,31,53,31,53z M56.2,30.1c6.9,0,12.5-5.6,12.4-12.5
		c0-6.8-5.6-12.4-12.4-12.4c-6.9,0-12.6,5.6-12.5,12.6C43.8,24.6,49.3,30.1,56.2,30.1z M33.8,144.6c19.1,0,38.1,0,57.1,0
		c0-1.7,0-3.3,0-4.8c-19.1,0-38,0-57.1,0C33.8,141.4,33.8,142.9,33.8,144.6z"/>
	<path class="st2" d="M84.3,79.9c2.5,0.6,4.1-0.6,5.8-2.5c6.9-7.6,18.2-9.7,27.5-5.1c9.2,4.4,14.7,14.6,13.2,24.5
		c-1.6,10.5-9.3,18.5-19.6,20.3c-14.5,2.5-27.8-8.7-27.7-23.4c0-1.6-0.3-2.8-1.2-4.1c-1.2-1.8-2.2-3.6-3.3-5.4
		c-1.3-2.2-0.2-4.1,2.3-4.1C82.4,79.9,83.4,79.9,84.3,79.9z M85.6,84.7c0,0.2,0,0.3,0,0.5c0.5,0.9,1,1.8,1.6,2.6
		c1.1,1.6,1.5,3.2,1.4,5.1c-0.6,12,10.1,21.5,21.9,19.7c8.2-1.3,14.8-8,15.9-16.3c1.1-8.2-3.3-16.3-10.8-19.8
		C108,73,98.9,74.7,93.5,81C91.4,83.6,89.5,85.9,85.6,84.7z"/>
	<path class="st2" d="M86.5,127.3c-0.8,0.8-1.4,1.7-2.1,2.2c-1,0.6-2.1,0.2-2.7-0.8c-1.1-1.9-2.1-3.8-2.9-5.8c-0.4-1.1,0-2,1-2.7
		c1-0.7,2.2-0.8,2.8,0.1C83.9,122.5,85.1,124.8,86.5,127.3z"/>
	<path class="st2" d="M88.5,126.9c0.2-0.4,0.5-1.1,0.8-1.7c0.7-1.4,1.3-2.8,2.1-4.1c0.7-1.2,1.8-1.5,3.1-0.9
		c1.2,0.5,1.8,1.8,1.3,3.1c-0.8,1.8-1.7,3.6-2.7,5.4c-0.6,1-1.6,1.5-2.8,1.1C89.1,129.2,88.5,128.4,88.5,126.9z"/>
	<path class="st2" d="M31,53.1c1-0.8,1.9-1.6,3.3-1c1.4,0.7,1.6,1.9,1.6,3.3c0,4.2,0,8.4,0,12.6c0,3.3,1.3,4.9,4.4,5.7
		c5.6,1.5,11.2,3,16.8,4.5c0.3,0.1,0.7,0.2,1.1,0.2c1.5,0.2,2.7-0.5,3-1.8c0.3-1.3-0.4-2.5-1.9-2.9c-3-0.9-6-1.6-9-2.4
		c-1.2-0.3-2.3-0.6-3.4-1c-2.4-0.8-3.7-2.8-3.5-5.2c0.3-3.8,0.7-7.6,1.1-11.5c0.2-1.7,1.2-2.7,2.7-2.6c1.5,0.1,2.4,1.2,2.3,2.9
		c-0.3,3.8-0.7,7.6-1.1,11.6c2.8,0.8,5.6,1.5,8.4,2.3c1.3,0.3,2.5,0.6,3.7,1c4.2,1.2,6.6,5,5.5,9.1c-1,4.1-4.9,6.5-9.1,5.4
		c-6.3-1.6-12.6-3.3-18.9-5.1c-3.9-1.1-6.6-3.9-6.8-7.9C30.7,64.6,31,58.9,31,53.1C31,53,31,53.1,31,53.1z"/>
	<path class="st2" d="M118.7,84.7c-0.5,1-0.8,1.7-1.3,2.2c-5.6,5.7-11.3,11.3-16.9,16.9c-1.2,1.2-2.7,1.3-3.7,0.3
		c-1.1-1.1-1-2.5,0.2-3.8c5.6-5.6,11.2-11.2,16.8-16.8c0.8-0.8,1.8-1.5,2.9-0.8C117.5,83.1,118.1,84,118.7,84.7z"/>
	<path class="st2" d="M101,92.4c-2.7,0-5-2.2-5-4.9c0-2.8,2.2-5,5-5c2.7,0,4.9,2.3,4.9,4.9C106,90.1,103.7,92.4,101,92.4z"/>
	<path class="st2" d="M113.5,94.9c2.7,0,4.9,2.3,4.9,5c0,2.8-2.3,5-5.1,4.9c-2.7,0-4.9-2.4-4.9-5C108.5,97.1,110.8,94.9,113.5,94.9z
		"/>
</g>
</svg>
