<?xml version="1.0" encoding="utf-8"?>
<!-- Generator: Adobe Illustrator 24.3.0, SVG Export Plug-In . SVG Version: 6.00 Build 0)  -->
<svg version="1.1" id="Layer_1" xmlns="http://www.w3.org/2000/svg" xmlns:xlink="http://www.w3.org/1999/xlink" x="0px" y="0px"
	 viewBox="0 0 150 150" style="enable-background:new 0 0 150 150;" xml:space="preserve">
<style type="text/css">
	.st0{fill:#CDEEFD;}
	.st1{fill:#111224;}
	.st2{fill:#005BAB;}
</style>
<path class="st0" d="M1465.3,1556.3c-2.4-0.2-4.3-1.3-4.4-4.1c-0.1-6.7,1.6-10,4.9-9.9c0.2,0,0.3,0,0.5,0c2.2,0.5,4.3,2.1,3.2,4
	C1467.7,1549.5,1473.1,1555.7,1465.3,1556.3z M1465.5,1554.4c1.3-0.1,2.3-0.6,2.3-2.1c-0.1-1.7-1.5-2.1-2.8-2.4c-1.6-0.4-2,0.8-2,2
	C1463,1553.5,1464,1554.2,1465.5,1554.4z M1467.8,1546.5c0-1.4-0.6-2.2-2.1-2.2c-0.9,0-1.6,0.4-1.7,1.4c-0.2,1.4,0.9,2.1,2,2.5
	C1467.3,1548.5,1467.6,1547.5,1467.8,1546.5z"/>
<path class="st0" d="M1455.8,1556.6c-0.5-2.9-1.8-4.2-4.6-3.6c-0.7,0.2-1.7,0.3-2.1-0.8c-0.4-1.1,0.1-1.5,1.2-2.1
	c2.1-1.2,2.1-3.9,3.2-5.8c0.6-1,1-2.2,2.5-1.9c1.4,0.3,0.9,1.6,0.8,2.5C1456.4,1548.6,1458.4,1552.5,1455.8,1556.6z"/>
<path class="st1" d="M1465.5,1554.4c-1.5-0.1-2.6-0.8-2.5-2.4c0-1.2,0.4-2.4,2-2c1.2,0.3,2.7,0.7,2.8,2.4
	C1467.8,1553.7,1466.8,1554.2,1465.5,1554.4z"/>
<path class="st1" d="M1467.8,1546.5c-0.2,1-0.5,2.1-1.8,1.7c-1.1-0.4-2.1-1-2-2.5c0.1-1,0.8-1.4,1.7-1.4
	C1467.2,1544.3,1467.8,1545,1467.8,1546.5z"/>
<polygon class="st2" points="1346.8,29.4 1346.9,29.6 1346.6,29.6 "/>
<g>
	<path class="st2" d="M132.3,88c-1,2-2.7,3.3-4.2,4.8c-3.9,3.6-8,7.1-12,10.7c-0.5,0.4-0.6,0.9-0.6,1.5c0.1,2,0.1,4,0.2,5.9
		c0.1,1.1-0.3,1.9-1.3,2.5c-4.4,3.1-8.7,6.3-13.1,9.4c-2,1.4-2.9,3.2-3.1,5.6c-0.6,6.5-1.3,13-1.9,19.5c-0.1,0.5-0.3,1.1-0.6,1.5
		c-0.5,0.6-1.2,0.6-1.9,0.3c-0.8-0.3-1.1-1-1-1.8c0.2-1.9,0.4-3.9,0.6-5.8c0.4-3.8,0.8-7.7,1.1-11.5c0.1-1.3,0.3-2.6,0.4-3.9
		c0.3-2.8,1.7-4.9,4-6.5c4.1-2.9,8.2-5.9,12.3-8.8c0.7-0.5,1.1-1,1-2c-0.3-4.5-0.6-9-0.9-13.5c-0.1-1.6-0.4-3.1-0.5-4.7
		c-0.1-1.8-0.5-3.5-0.7-5.2c-0.5-2.9-1.1-5.8-1.8-8.9c-0.5,0.1-1,0.2-1.4,0.4c-6.8,2.1-13.8,3.1-20.9,3.9c-4.4,0.5-8.6-0.1-12.8-1.4
		c-0.4-0.1-0.8-0.2-1.2-0.3c-0.1,0-0.2,0-0.3,0c-0.1,0.1-0.2,0.3-0.3,0.5c-1.7,5.4-5.6,8.1-11,8.5c-2.8,0.2-5.6-0.1-8.3-0.3
		c-0.4,0-0.9-0.2-1.2-0.5c-0.4-0.2-0.7-0.3-1.2-0.3c-1.8-0.2-3.4-0.9-5-1.7c-0.7-0.4-1.5-0.7-1.5-1.7c0-0.1-0.1-0.2-0.1-0.2
		c-1.2-0.2-2-1-2.8-1.8c-0.1-0.1-0.6,0.1-0.9,0.2c-2.1,1-4.2,2-6.3,3c-0.4,0.2-0.7,0.5-0.9,0c-1.4,0.9-2.9,1.8-4.2,2.6
		c-0.4-0.3-0.7-0.6-1-0.8c0,0-0.1,0.1-0.1,0.1c0.1,0.2,0.2,0.4,0.3,0.8c-0.6,0.4-1.2,0.8-1.8,1.2c-2.4,1.3-4.9,2.6-7.4,3.9
		c-2,1-3.8,2.3-5.7,3.5c-1.6,1-2.7,2.5-3.2,4.3c-0.9,3.6-2,7.3-2.6,11c-1,6-1.6,12.1-2.4,18.1c0,0.2-0.1,0.5-0.1,0.7
		c-0.1,1.8,0.2,2.3,1.9,3c2.8,1.1,5.7,1.6,8.6,2c2,0.3,4.1,0.4,6.2,0.6c0.4,0,0.9,0,1.5,0c0-0.5,0.1-1,0.1-1.5c0-5.9,0-11.7,0-17.6
		c0-0.4,0-0.8,0-1.2c0.1-0.9,0.8-1.6,1.7-1.6c0.9,0,1.6,0.6,1.7,1.6c0,0.3,0,0.6,0,1c0,10,0,20,0,30c0,0.3,0,0.6,0,1
		c-0.1,1.1-0.7,1.7-1.7,1.7c-1,0-1.8-0.6-1.8-1.7c0-1.7,0-3.5,0-5.2c0-0.8,0-1.7,0-2.7c-0.5-0.1-0.8-0.1-1.2-0.1
		c-2.7-0.3-5.5-0.5-8.2-0.8c-1-0.1-1.9-0.5-2.9-0.7c-1.2-0.3-2.3-0.5-3.6-0.7c0,0.2-0.1,0.5-0.1,0.7c0,3.1,0.1,6.1,0.1,9.2
		c0,0.2,0,0.4,0,0.6c-0.1,0.9-0.8,1.4-1.7,1.5c-0.9,0-1.6-0.5-1.7-1.4c-0.1-0.6-0.1-1.1-0.1-1.7c0-2.2,0-4.5,0-6.7
		c0-0.8,0.3-1.6,0.5-2.7c-0.4-0.8-1.1-1.8-2.2-2.4c-0.5-0.3-0.6-0.8-0.6-1.5c0.4-9.3,1.6-18.4,3.6-27.5c0.6-2.6,1.5-5.2,2.4-7.7
		c0.5-1.5,1.6-2.7,2.9-3.6c2.9-2.1,5.9-4,9.2-5.5c0.7-0.3,1.3-1,2-1.2c2.5-0.8,4.4-2.7,7-3.2c0.6-0.1,1-1,1.9-0.7
		c0,0,0.2-0.1,0.2-0.1c0.1-1,1-1,1.6-1.3c2.3-1.1,4.7-2.3,7-3.3c0.7-0.3,1-0.7,0.9-1.5c0-2.1,0-4.2,0-6.3c0-0.9-0.2-1.7-0.8-2.3
		c-1.3-1.3-2.5-2.6-3.9-3.8c-2.5-2.2-5.2-4.3-7.6-6.6c-2.9-2.6-5.1-5.8-6.3-9.5c-1.2-3.8-1.3-7.5,0.4-11.1c0.6-1.4,0.9-2.7,0.8-4.3
		c-0.3-5,1.6-9.1,4.9-12.8c2.2-2.5,4.9-4.2,7.8-5.7c3.5-1.9,7.1-3.6,10.5-5.5c1.5-0.9,2.9-2,4.2-3.2c1.3-1.2,2-2.7,2.1-4.5
		c0.1-1.7,1.1-2.3,2.7-1.7c2.1,0.8,3.9,1.9,5.6,3.4c2.3,2.1,3,4.7,2.4,7.7c-0.3,1.5-0.8,2.9-1.3,4.6c0.1,0.1,0.2,0.3,0.4,0.5
		c2.7,2.1,4.9,4.6,6.9,7.3c0.6,0.8,1.3,1.3,2.2,1.8c2.1,1.3,4.3,2.6,6.3,4.1c0.7,0.5,1.4,1.3,1.9,2c0.9,1.2,1,2.6,0.2,4
		c-0.6,1.1-1.2,2.2-1.8,3.3c0.6,0.9,1.3,2,1.9,3.1c0.7,1.3,0.5,1.9-0.5,2.9c-0.9,0.9-1.8,1.9-2.8,2.9c1.3,0.8,2.6,0.8,3.9,1
		c1.7,0.2,2.2,0.6,2.2,2.3c0,1.4,0,2.8,0,4.2c0,3.2-1.5,5.5-4.4,6.8c-1.2,0.6-2.5,1.1-3.8,1.5c-1.1,0.4-1.6,1.1-1.6,2.4
		c0.1,2.9,0,5.9,0,8.9c0,0.8,0.2,1.2,1,1.3c2,0.5,4.1,1.2,6.1,1.5c1.7,0.3,3.5,0.2,5.3,0.1c7.3-0.5,14.5-1.6,21.4-3.8
		c3.5-1.1,6.8-2.5,10-4.2c0.8-0.4,1.1-0.9,0.8-1.8c-1.5-5.5-2.8-11.1-4.3-16.7c0,0,0-0.1,0-0.1c-0.3-1.1,0.1-2,1.1-2.4
		c0.9-0.3,1.9,0.2,2.3,1.3c0.4,1,0.7,2,0.9,3c1.3,5.3,2.6,10.7,3.8,16c0.3,1.3,0.1,1.9-1.1,2.5c-1.8,1-3.6,2-5.4,3
		c-0.7,0.4-1.5,0.7-2.3,1.1c0.3,1.7,0.7,3.3,0.9,5c0.3,2.2,0.5,4.5,0.8,6.7c0.1,0.7,0.5,1.4,0.6,2.1c0.2,1.7,0.6,3.4,0.5,5.3
		c-0.1,1.4,0.5,2.9,0.9,4.5c1-0.8,2-1.6,2.9-2.4c2.4-2.1,4.7-4.3,7.1-6.4c0.5-0.5,1.2-0.8,1.6-1.3c2.8-3.2,5.7-6.2,8-9.8
		c1.5-2.4,1.9-4.9,1.4-7.7c-0.9-5.5-2.5-10.8-4.2-16c-1.6-4.6-3.3-9.1-4.9-13.7c-0.1-0.3-0.2-0.5-0.3-0.8c-0.2-0.9,0.3-1.8,1.1-2
		c0.8-0.3,1.7,0,2.1,0.9c0.5,1,0.9,2.1,1.3,3.1c2.9,7.6,5.6,15.3,7.4,23.3c0.4,1.9,0.7,3.8,1.1,5.7c0.6,3.2-0.2,6.2-2,8.9
		c-1.3,1.9-2.8,3.8-4.2,5.6C133.3,87.3,132.7,87.6,132.3,88c0-0.1,0-0.1,0-0.2C132.3,87.9,132.3,87.9,132.3,88z M78,52.4
		c-0.6-0.1-1.1-0.2-1.7-0.3c-1.7-0.4-3.2-1-4.6-2.1c-1.3-1.1-1.3-2.1-0.2-3.3c1-1,2.1-2,3.1-3.1c0.4-0.4,0.5-0.8,0.2-1.3
		c-0.5-1-1-2-1.2-3c-0.2-0.6-0.1-1.5,0.1-2.1c0.4-0.8,1-1.5,1.7-2.2c0.8-0.9,0.8-0.8,0-1.6c-2.3-2.2-5.2-3.6-7.9-5.2
		c-0.7-0.4-1.4-1-1.9-1.6c-1.9-2.5-4-5-6.4-7.1c-1.2-1-1.2-1-2.5-0.1c-2.1,1.6-4.1,3.1-6.1,4.8c-1.6,1.4-3.1,3.1-4.6,4.7
		c-0.9,1-1.3,2.1-1.1,3.5c0.2,1.1,0.3,2.2,0.6,3.3c0.5,2.1,1.1,4.1,1.6,6.2c0.5,1.9-0.1,3.4-1.7,4.6c-0.5,0.4-1.1,0.8-1.6,1.2
		c-1.9,1.6-1.9,4.2,0,5.8c0.6,0.5,1.2,0.9,1.7,1.3c0.8,0.7,1.5,1.5,1.7,2.6c0.4,2.1,0.6,4.2,0.3,6.3c-0.5,3.1-1.7,5.6-4.5,7.3
		c-0.5,0.3-0.7,0.6-0.7,1.2c0,2.3,0,4.5,0,6.8c0,0.3,0,0.7,0.2,0.9c1,1.7,2.5,3,4.2,3.7c1.6,0.6,3.2,1.3,4.9,1.5
		c2.8,0.3,5.5,0.6,8.3,0.3c4.8-0.6,8.2-3.7,8-8.9c-0.1-3.7,0-7.4,0-11c0-1.7,0.7-3,2.2-4c0.5-0.3,1.1-0.6,1.7-0.9
		c1.2-0.5,2.5-1,3.7-1.5c1.2-0.5,2-1.4,2.1-2.8C78,55,78,53.7,78,52.4z M41.8,67.9c0.7-1,1.3-1.7,1.8-2.5c0.8-1.5,0.8-3.2,0.7-4.9
		c-0.1-1.7-0.4-3.2-2.2-4c-0.1-0.1-0.3-0.2-0.4-0.3c-3.7-3-3.6-8.3,0-11.3c0.7-0.6,1.8-1.2,2-1.9c0.2-0.8-0.3-1.9-0.5-2.8
		c0-0.2-0.1-0.4-0.2-0.6c-0.5-2.2-1-4.4-1.5-6.6c-0.4-2,0-3.9,1.2-5.5c1-1.3,2.1-2.7,3.3-3.9c3-3,6.3-5.5,9.8-7.9
		c0.7-0.5,1.3-1.2,1.7-2c0.5-1.1,0.8-2.2,0.9-3.4c0.3-2.6-1.3-4.8-3.9-5.6c-0.7,1.1-1.2,2.3-2,3.3c-2,2.6-4.8,4.3-7.7,5.8
		c-3,1.6-6.1,3.1-9.1,4.6c-3,1.6-5.7,3.5-7.8,6.2c-2.1,2.8-3.3,5.9-2.8,9.4c0.2,1.7,0,3.1-0.7,4.5c-0.5,1-0.8,2-1.1,3.1
		c-0.2,0.6-0.3,1.3-0.3,2c0,2.5,0.7,4.9,1.9,7.1c1.7,3.2,4.3,5.6,7,7.9C35.4,61.6,39.1,64,41.8,67.9z"/>
	<path class="st2" d="M118.8,10.7c4.4-4.3,9.9-6.7,14.9-9.7c3-1.8,6.6-0.7,8.3,2.3c2.3,3.9,4.6,7.9,6.8,11.9
		c1.7,3.1,0.8,6.7-2.2,8.5c-3.4,2-6.8,4.1-10.3,5.9c-2.1,1.1-4.4,1.7-6.7,2.5c-1,0.3-1.9,0.6-2.9,0.9c-2.7,0.9-4.9,2.6-6.7,4.8
		c-4.8,5.5-11,7.8-18.2,7.4c-1.2-0.1-2.3-0.3-3.5-0.6c-0.7-0.2-1.2-0.1-1.7,0.2c-1.2,0.7-2.5,1.5-3.8,2.2c-1.5,0.9-2.3,0.6-3.2-0.9
		c-1-1.8-2.1-3.6-3.1-5.4c-0.4-0.8-0.8-1.6-1.2-2.4c-0.3-0.6-0.1-1.2,0.4-1.7c0.3-0.3,0.7-0.5,1-0.7c1.3-0.8,2.6-1.5,3.9-2.3
		c0.3-0.2,0.6-0.6,0.7-0.9c1.2-4.7,3.8-8.3,7.5-11.3c0.6-0.5,0.8-0.9,0.6-1.6c-0.5-2.2,0.1-4.1,1.5-5.8c2.8-3.2,6.3-5.3,10.3-6.4
		c2.7-0.7,5.1,0.1,6.9,2.4C118.4,10.2,118.6,10.4,118.8,10.7z M92.2,43.4c1.2-0.7,2.3-1.2,3.3-1.9c1.1-0.7,2.2-1,3.4-0.3
		c0.3,0.2,0.8,0.3,1.2,0.3c6.8,1.1,12.6-0.7,17.2-5.9c2.6-3,5.6-5.2,9.5-6.2c0.9-0.3,1.9-0.5,2.8-0.8c1.7-0.6,3.4-1,5-1.9
		c3.5-1.9,6.9-3.9,10.3-5.9c0.8-0.5,1.3-1.2,1.4-2.2c0.2-1.3-0.7-2.6-1.8-2.6c-8.4,0-16.7,0-25.1,0c-0.4,0-1,0.2-1.3,0.5
		c-2.6,2.3-5.6,3.7-9,4.2c-3.4,0.5-6.2,2.2-8.7,4.4c-2.9,2.6-5,5.7-5.6,9.7c-0.1,0.6-0.6,1.2-1.1,1.5c-0.9,0.6-1.8,1-2.8,1.5
		c-0.9,0.4-1.3,0.9-1,1.5C90.6,40.5,91.4,41.9,92.2,43.4z M143,12.3c-0.1-0.3-0.1-0.5-0.2-0.6c-1.3-2.2-2.5-4.4-3.8-6.6
		c-0.9-1.4-2.4-1.7-3.9-0.9c-1.6,0.9-3.2,1.8-4.8,2.8c-2.4,1.5-4.8,3-7.1,4.5c-0.2,0.2-0.4,0.4-0.7,0.8
		C129.4,12.3,136.1,12.3,143,12.3z M102.8,18.7c0.4,0,0.5,0,0.7-0.1c2-0.6,4-1.2,6-1.7c2.2-0.5,4.1-1.4,5.8-2.9
		c0.8-0.7,0.8-0.9,0.2-1.8c-0.9-1.2-2.2-1.6-4-0.9c-2.6,1-5,2.4-7.1,4.3c-0.4,0.4-0.8,0.8-1,1.3C103.1,17.5,103,18,102.8,18.7z"/>
	<path class="st2" d="M132.3,88c0-0.1,0-0.1,0-0.2C132.3,87.9,132.2,87.9,132.3,88C132.2,88,132.3,88,132.3,88z"/>
</g>
</svg>
