<?xml version="1.0" encoding="utf-8"?>
<!-- Generator: Adobe Illustrator 24.3.0, SVG Export Plug-In . SVG Version: 6.00 Build 0)  -->
<svg version="1.1" id="Layer_1" xmlns="http://www.w3.org/2000/svg" xmlns:xlink="http://www.w3.org/1999/xlink" x="0px" y="0px"
	 viewBox="0 0 150 150" style="enable-background:new 0 0 150 150;" xml:space="preserve">
<style type="text/css">
	.st0{fill:#CDEEFD;}
	.st1{fill:#111224;}
	.st2{fill:#005BAB;}
</style>
<path class="st0" d="M1465.3,1556.3c-2.4-0.2-4.3-1.3-4.4-4.1c-0.1-6.7,1.6-10,4.9-9.9c0.2,0,0.3,0,0.5,0c2.2,0.5,4.3,2.1,3.2,4
	C1467.7,1549.5,1473.1,1555.7,1465.3,1556.3z M1465.5,1554.4c1.3-0.1,2.3-0.6,2.3-2.1c-0.1-1.7-1.5-2.1-2.8-2.4c-1.6-0.4-2,0.8-2,2
	C1463,1553.5,1464,1554.2,1465.5,1554.4z M1467.8,1546.5c0-1.4-0.6-2.2-2.1-2.2c-0.9,0-1.6,0.4-1.7,1.4c-0.2,1.4,0.9,2.1,2,2.5
	C1467.3,1548.5,1467.6,1547.5,1467.8,1546.5z"/>
<path class="st0" d="M1455.8,1556.6c-0.5-2.9-1.8-4.2-4.6-3.6c-0.7,0.2-1.7,0.3-2.1-0.8c-0.4-1.1,0.1-1.5,1.2-2.1
	c2.1-1.2,2.1-3.9,3.2-5.8c0.6-1,1-2.2,2.5-1.9c1.4,0.3,0.9,1.6,0.8,2.5C1456.4,1548.6,1458.4,1552.5,1455.8,1556.6z"/>
<path class="st1" d="M1465.5,1554.4c-1.5-0.1-2.6-0.8-2.5-2.4c0-1.2,0.4-2.4,2-2c1.2,0.3,2.7,0.7,2.8,2.4
	C1467.8,1553.7,1466.8,1554.2,1465.5,1554.4z"/>
<path class="st1" d="M1467.8,1546.5c-0.2,1-0.5,2.1-1.8,1.7c-1.1-0.4-2.1-1-2-2.5c0.1-1,0.8-1.4,1.7-1.4
	C1467.2,1544.3,1467.8,1545,1467.8,1546.5z"/>
<polygon class="st2" points="1346.8,29.4 1346.9,29.6 1346.6,29.6 "/>
<g>
	<g>
		<g>
			<path class="st2" d="M149,67.1c-0.4,2.4-0.7,4.9-1.2,7.2c-2,9.3-6.2,17.4-12.6,24.3c-0.6,0.6-1.7,1-2.5,0.9
				c-0.5,0-1.4-0.9-1.4-1.5c0-0.8,0.4-1.8,0.9-2.4c3.7-4.2,6.6-8.7,8.8-13.8c11.7-27.6-5.5-59.6-35-65.1c-27-5-52.4,13.4-56.1,40.6
				C46.5,83,64.9,107,90.4,110.5c12.2,1.7,23.4-1,33.6-7.9c0.2-0.1,0.4-0.3,0.6-0.4c1.2-0.8,2.5-0.6,3.2,0.4c0.7,1,0.4,2.4-0.8,3.2
				c-1.1,0.8-2.2,1.5-3.4,2.2c-12.2,7.1-25.1,9-38.8,5.8c-1.2-0.3-1.6-0.1-2.1,1.1c-5.6,12.8-15.3,21.6-27.9,27.3
				c-6.1,2.7-12.5,2.6-18.5-0.4c-16.7-8.1-27.7-20.7-30.6-39.4c-0.5-3.4-0.3-6.8-0.5-10.2c0-0.8-0.2-1.6-0.5-2.4
				c-5.1-12.5-5.2-25,0-37.5c0.2-0.6,0.3-1.3,0.3-1.9c-0.7-8.5,0.2-16.7,4.2-24.3C15.1,15,24.5,8.7,36.6,6.5c5.5-1,11-0.8,16.4,0.8
				c7,2.1,12.3,6.1,15.2,13.1c0.4-0.3,0.8-0.5,1.2-0.7c30.7-19.7,72.6-1.2,78.7,34.8c0.3,1.8,0.6,3.7,0.8,5.5
				C149,62.3,149,64.7,149,67.1z M61.1,25.9c-0.6-0.1-1.1-0.2-1.7-0.3c-0.3,0-0.6-0.1-0.9-0.1c-9.4-0.4-18.4,1.2-26.9,5.2
				c-18.5,8.7-29,27.7-25.7,47.2c0.4,2.2,1,4.4,1.5,6.7c2-2.8,3.6-5.4,5.6-7.7c2.2-2.5,4.8-4.7,7.3-6.9c1.2-1,2.5-0.9,3.3,0.1
				c0.8,1,0.5,2.4-0.8,3.4c-0.1,0.1-0.2,0.2-0.3,0.3c-5.7,4.2-9.8,9.6-12.5,16.1c-0.2,0.4-0.4,0.9-0.4,1.4c-0.1,5.2,0,10.5,1.3,15.6
				c3.7,14,12.8,23.6,25.3,30.3c6.8,3.7,13.6,3.2,20.2-0.4c6.7-3.7,12.4-8.5,17-14.5c2.4-3,4.2-6.3,5.5-9.9
				c-20.5-8.8-31.8-24.1-34-46.2c-0.5,0-1,0-1.5,0c-4.1,0.2-8.1,1.1-12,2.5c-1.5,0.6-2.7,0.1-3.1-1.1c-0.4-1.2,0.2-2.4,1.6-2.9
				c1.3-0.5,2.5-1,3.8-1.2c3.7-0.7,7.3-1.4,11.2-2c0.3-5.7,1.5-11.4,3.7-17.2c-6.3-0.4-12.2-0.1-17.6,3.1c-1.5,0.9-2.7,0.6-3.4-0.5
				c-0.7-1.1-0.3-2.5,1.2-3.2c2.1-1,4.3-2,6.5-2.7c4.3-1.2,8.7-1.4,13.2-1c1.4,0.1,2.2-0.2,2.9-1.5C53,36.2,54.4,34,56,32
				C57.5,29.9,59.3,28.1,61.1,25.9z M64.4,21.9c-0.9-1.4-1.6-2.9-2.6-4.3c-2.5-3.3-6.1-5.2-10-6.3C36,6.9,13.4,15.3,9.7,38.7
				c-0.2,1.6-0.3,3.2-0.5,4.8C21.6,26.2,45.4,18.1,64.4,21.9z"/>
		</g>
	</g>
	<g>
		<g>
			<path class="st2" d="M56.5,63.5c0-22.5,18.2-40.6,40.8-40.6c22.2,0,40.4,18.4,40.4,40.6c0,22.5-18.2,40.7-40.7,40.7
				C74.7,104.1,56.5,85.8,56.5,63.5z M133.5,64.5c-0.4-14.2-6-25.2-18.2-32.2c-12.9-7.4-26-7-38.3,1.2c-10.9,7.2-16,17.8-16.2,31
				c0.7,0,1.2,0,1.7,0c4.3,0,8.7-0.2,13,0c3.3,0.2,5.6-1.1,7.4-3.8c1.3-1.9,2.6-3.8,4.1-5.6c5.5-6.4,13.9-6.4,19.4,0.1
				c1.7,2,3.2,4.2,4.8,6.3c1.5,2,3.5,2.9,6,2.8c4.8-0.1,9.6,0,14.4,0C132.2,64.5,132.7,64.5,133.5,64.5z M61.4,68.8
				c1.8,15.6,16.5,32,37.7,30.9c10.5-0.5,19.2-5,25.9-13c4.3-5.1,7-11,8-17.9c-0.7,0-1.3,0-1.8,0c-4.7,0-9.4-0.1-14.2,0
				c-3.7,0.1-6.7-1.3-8.9-4.2c-1.6-2.1-3.1-4.3-4.8-6.3c-3.9-4.7-9.2-4.8-13.2,0c-1.3,1.6-2.5,3.3-3.7,5c-2.7,3.9-6.2,5.8-11,5.6
				C70.8,68.6,66.2,68.8,61.4,68.8z"/>
		</g>
	</g>
	<g>
		<g>
			<path class="st2" d="M46,117.8c2.4,0.3,4.8,0.5,7.1,1c1.7,0.3,2.4,1.8,1.7,3.1c-0.5,0.9-1.3,1.3-2.3,1.1c-4.3-0.9-8.6-0.9-12.9,0
				c-1.4,0.3-2.5-0.5-2.7-1.8c-0.2-1.1,0.5-2.2,1.9-2.4C41.2,118.3,43.6,118.1,46,117.8z"/>
		</g>
	</g>
	<g>
		<g>
			<path class="st2" d="M28.8,94.3c-2.2-0.1-4.1-0.8-5.7-2.3c-1.1-1-1.2-2.3-0.3-3.2c0.8-0.9,2-0.9,3.1-0.1c2.3,1.6,3.6,1.7,5.8,0
				c1.2-0.9,2.4-0.8,3.2,0.2c0.8,1,0.6,2.2-0.5,3.2C32.9,93.5,31,94.2,28.8,94.3z"/>
		</g>
	</g>
	<g>
		<g>
			<path class="st2" d="M24.2,105.6c0,1.2-1,2.1-2.3,2.1c-1.2-0.1-2.1-1-2.1-2.2c0-1.2,1.1-2.2,2.3-2.1
				C23.3,103.5,24.2,104.4,24.2,105.6z"/>
		</g>
	</g>
	<g>
		<g>
			<path class="st2" d="M38.2,79.3c-1.1,0-2.1-1-2.1-2.1c0-1.2,1.1-2.2,2.2-2.2c1.1,0,2.1,1,2.1,2.1C40.4,78.4,39.4,79.3,38.2,79.3z
				"/>
		</g>
	</g>
	<g>
		<g>
			<path class="st2" d="M55.1,110c-1.2,0-2.2-0.9-2.2-2.1c0-1.1,1-2.1,2.1-2.2c1.2,0,2.2,1,2.2,2.2C57.2,109,56.3,109.9,55.1,110z"
				/>
		</g>
	</g>
	<g>
		<g>
			<path class="st2" d="M36.6,105.5c0.1-1.2,1.1-2.2,2.3-2.1c1.1,0.1,2,1.1,2,2.2c0,1.2-1.1,2.1-2.3,2
				C37.4,107.6,36.5,106.6,36.6,105.5z"/>
		</g>
	</g>
	<g>
		<g>
			<path class="st2" d="M27,115.3c1.2,0,2.1,0.9,2.1,2.1c0,1.2-1,2.2-2.2,2.1c-1.2,0-2.1-1-2.1-2.1C24.7,116.3,25.7,115.3,27,115.3z
				"/>
		</g>
	</g>
	<g>
		<g>
			<path class="st2" d="M89.4,46.9c-0.4,0.5-0.8,1.4-1.4,1.6c-0.6,0.3-1.7,0.2-2.2-0.1c-1.2-0.9-2.2-2-3.2-3.1
				c-0.8-0.9-0.8-2,0.1-2.9c0.8-0.9,2-0.9,3-0.1c1,0.9,2,1.9,2.9,3C88.9,45.7,89,46.2,89.4,46.9z"/>
		</g>
	</g>
	<g>
		<g>
			<path class="st2" d="M112.3,43.7c-0.3,0.7-0.4,1.2-0.7,1.6c-1,1.1-2,2.2-3.1,3.2c-0.9,0.8-2,0.7-2.8-0.2
				c-0.8-0.8-0.9-1.9-0.2-2.7c1-1.2,2.1-2.4,3.4-3.3c0.5-0.4,1.5-0.3,2.1-0.1C111.6,42.4,111.9,43.2,112.3,43.7z"/>
		</g>
	</g>
	<g>
		<g>
			<path class="st2" d="M99.3,40.5c0,0.7,0.1,1.4,0,2.2c-0.1,1.2-1,2.1-2.2,2c-1.3-0.1-2-0.8-2.1-2c-0.1-1.4-0.1-2.9,0-4.3
				c0.1-1.2,0.9-1.9,2.1-1.9c1.2,0,2,0.7,2.1,1.9C99.3,39.1,99.3,39.8,99.3,40.5C99.3,40.5,99.3,40.5,99.3,40.5z"/>
		</g>
	</g>
	<g>
		<g>
			<path class="st2" d="M88.9,70.7c0.1-2.7,0.9-5.1,2.6-7.1c3-3.5,7.9-3.5,11-0.2c3.6,3.9,3.6,10.6,0,14.5c-3.1,3.4-8,3.4-11-0.1
				C89.7,75.9,89,73.4,88.9,70.7z M92.8,70.8c0.7,1.5,1.1,3,2,4.2c1.2,1.7,3.2,1.6,4.6,0.1c2.1-2.2,2-6.5-0.1-8.7
				c-1.4-1.4-3.3-1.5-4.5,0.1C94,67.7,93.5,69.2,92.8,70.8z"/>
		</g>
	</g>
</g>
</svg>
