<?xml version="1.0" encoding="utf-8"?>
<!-- Generator: Adobe Illustrator 24.3.0, SVG Export Plug-In . SVG Version: 6.00 Build 0)  -->
<svg version="1.1" id="Layer_1" xmlns="http://www.w3.org/2000/svg" xmlns:xlink="http://www.w3.org/1999/xlink" x="0px" y="0px"
	 viewBox="0 0 150 150" style="enable-background:new 0 0 150 150;" xml:space="preserve">
<style type="text/css">
	.st0{fill:#5F6368;}
	.st1{fill:#005BAB;}
</style>
<path class="st0" d="M2053.7-657.2c-2.1,0-3.6,0-5.1,0C2049.8-661.3,2051.5-660.2,2053.7-657.2z"/>
<g>
	<path class="st1" d="M66.6,85.1c3,0.9,6,1.7,8.9,2.5c1,0.3,2,0.5,2.9,1.1c1.1,0.8,2.2,1.4,3.2,2.2c0.4,0.3,0.7,0.4,1,0
		c0,0,0.1,0,0.2,0c-0.1,0.2-0.3,0.4-0.5,0.7c0.3,0.3,0.6,0.4,0.7,0.7c1,1.7,1.9,3.4,2.8,5.2c0.5,0.9,1,1.3,1.8,1
		c0.7-0.3,1-1,0.7-1.9c-1.6-4.4-4.2-7.8-8.3-10.1c-1.1-0.6-2-1.1-2.9,0.2c0,0-0.1,0-0.2,0c0.3-0.4,0.6-0.7,1-1.2
		c-0.7-0.2-1.3-0.4-2.1-0.6c0.1,0.4,0.1,0.6,0.2,1c-0.8-1.1-0.8-1.1-2.1-1.4c-4-1.1-7.9-2.3-11.4-4.4c-1.5-0.9-2.8-1.8-3.8-3.3
		c-1-1.5-0.8-3,0.3-4.3c0.7-0.9,1.4-1.8,1.9-2.7c1.3-2.2,1.9-4.7,2.4-7.2c0.1-0.4,0.4-0.8,0.8-1c1.5-0.8,2.6-1.8,3.2-3.3
		c1.1-2.6,1.2-5.3,0.3-8c-0.1-0.3-0.2-0.7-0.1-1.1c1-4.4,1-8.9,0.3-13.3c-0.9-5.4-3.9-9.2-9.4-10.5c-0.9-0.2-1.8-0.4-2.7-0.5
		c-1.7-0.2-3.5-0.2-5.2-0.7c-2.4-0.8-4.8-0.9-7.3-0.6c-3.2,0.4-6.4,1.2-9.7,1.6c-5.8,0.7-9.4,4.1-10.7,9.8c-1,4.6-1,9.3,0,13.9
		c0.1,0.4,0.1,0.8,0,1.2c-0.2,1.6-0.7,3.1-0.6,4.6c0.1,2.8,1.1,5.2,3.8,6.6c0.8,0.4,1,0.9,1.2,1.7c0.8,3.8,2,7.4,4.8,10.2
		c0.2,0.2,0.3,0.5,0.3,0.7c0.1,1.4-0.1,2.6-1.2,3.6c-1,0.9-2,1.8-3.1,2.5c-3.9,2.3-8.1,3.6-12.5,4.7C9.3,86.3,4.8,90.1,2.5,96.3
		c-1,2.7-1.6,5.4-1.7,8.3c-0.1,6.8-0.1,13.6-0.2,20.4c0,0.2,0,0.4,0.1,0.6c0.2,0.6,0.7,1,1.3,1c0.7,0,1.1-0.4,1.2-1.1
		c0.1-0.3,0-0.6,0-0.9c0-5.6-0.1-11.2,0-16.8c0-2.3,0.3-4.6,0.7-6.8c0.7-4.1,2.5-7.8,5.6-10.6c-0.1-0.6-0.1-1.3,0.1-1.7
		c0.2-0.4,0.9-0.4,1.4-0.7c-0.6,0.4-1.1,0.8-1.5,1.2c-0.1,0.1,0,0.6,0.1,0.8c0.2,0,0.5,0,0.7-0.1c1.8-1.3,3.8-2,5.9-2.5
		c2.3-0.6,4.6-1.4,6.9-2.1c0.3-0.1,0.6-0.2,1-0.3c0.1,0.3,0.2,0.6,0.3,0.8c1.5,3.8,3.9,6.8,7.3,9c5.7,3.7,12,4.7,18.6,3.4
		c7.5-1.5,13.1-5.6,15.9-12.9C66.5,85.1,66.6,85.1,66.6,85.1z M63.5,31.6c1.3,1.8,1.9,4,2.1,6.2c0.3,3.1,0.3,6.2-0.1,9.3
		c0,0.1-0.1,0.2-0.2,0.5c-1.5-1.2-2.1-2.8-2.3-4.5c-0.2-1.8-0.3-3.6-0.4-5.4c-0.2-3.6-1.3-6.8-4.2-9.2c-0.1-0.1-0.1-0.2-0.2-0.4
		C60.6,28.7,62.3,29.8,63.5,31.6z M35,29.6c6-4.7,14.9-4.6,20.9,0c2.8,2.2,4.1,5,4.2,8.5c0,1,0.1,2,0.1,3c0.1,2.7,0.6,5.4,2.5,7.6
		c-1.3,0.6-2.3,0.6-3.6-0.1c-3.2-1.9-8.2-1.4-11,1c-0.3,0.2-0.8,0.3-1.1,0.3c-1,0-2,0-3,0c-0.4,0-1,0-1.2-0.3
		c-3.1-2.9-9.1-2.5-11.8-0.5c-0.6,0.4-1.4,0.3-2.7-0.3c2.3-2.6,2.4-5.9,2.5-9.1c0-1,0.1-2,0.2-3.1C31.2,33.6,32.7,31.4,35,29.6z
		 M58.6,53c-0.2,2.1-1.2,3.2-3.3,3.6c-0.9,0.2-1.9,0.2-2.8,0.1c-2.1-0.2-3.6-2.3-3.2-4.4c0.1-0.3,0.3-0.6,0.6-0.8
		c1.3-1.1,2.8-1.5,4.4-1.5c0.9,0.1,1.7,0.2,2.6,0.4C58.6,50.9,58.8,51.4,58.6,53z M41.5,52.8c-0.1,1.9-0.8,3.7-3.4,4
		c-0.6,0.1-1.3,0.1-1.9,0c-2.7-0.4-4-1.7-3.9-4.9c0-0.3,0.4-0.8,0.6-0.9c1.2-0.4,2.4-0.7,3.6-1c1.7,0.1,3.2,0.5,4.4,1.6
		C41.2,51.8,41.5,52.4,41.5,52.8z M25.8,34.7c1-3.2,2.9-5.4,6.1-6.5c0.1,0,0.3-0.1,0.6-0.1c-0.1,0.2-0.2,0.3-0.2,0.4
		c-2.9,2.5-3.9,5.7-4.2,9.3c-0.1,1.9-0.2,3.7-0.4,5.6c-0.2,1.6-0.9,3-2.3,4.2c-0.1-0.7-0.2-1.2-0.3-1.8C25,42.1,24.7,38.3,25.8,34.7
		z M32,68.5c-1.2-2.3-1.8-4.7-2.2-7.3c-0.2-1-0.5-1.6-1.7-1.9c-1.9-0.5-2.7-2-2.9-3.8c-0.2-1.5-0.3-3,0.5-4.5
		c1.2,0.3,2.2,0.6,3.3,0.8c0.5,0.1,0.7,0.4,0.7,0.9c0.1,0.8,0.2,1.6,0.4,2.4c0,0,0,0.1,0,0.1c1.1,3,3.5,4.1,6.4,4.3
		c2.8,0.2,5.3-0.4,6.8-3.1c0.6-1.1,0.8-2.5,1.2-3.9c0.1,0,0.4-0.1,0.7-0.2c1-0.2,1.5,0.2,1.6,1.2c0.4,3.3,2.4,5.7,5.9,5.9
		c1.4,0.1,2.8-0.1,4.1-0.4c2.8-0.8,4.2-2.8,4.5-5.5c0.2-1.5,0.2-1.5,1.7-1.9c0.7-0.2,1.4-0.3,2.1-0.5c0.1,0,0.1,0,0.2,0
		c1.3,2,0.7,6.2-1.2,7.7c-0.4,0.3-0.9,0.6-1.3,0.6c-1,0.2-1.3,0.7-1.5,1.6c-0.6,2.3-1.1,4.7-2,6.9c-1,2.6-2.9,4.4-5.7,5.2
		c-0.7,0.2-1.3,0.7-1.9,1.1c-1.2,0.9-2.6,1.3-4.1,1.4c-1.3,0-2.5,0-3.8,0c-1.7,0-3.2-0.5-4.6-1.6c-0.7-0.5-1.4-0.9-2.2-1.1
		C34.6,72.2,33.1,70.5,32,68.5z M32.5,80.2c1.6-1.4,2.2-2.6,2.7-5c0.6,0.2,1.3,0.3,1.7,0.7c3.2,2.7,7,2.6,10.9,2.4
		c2.1-0.1,3.9-0.9,5.6-2.1c0.6-0.4,1.4-0.7,2.2-1.1c0.2,2.2,1.2,3.8,2.6,5.1c0.2,0.2,0.2,0.7,0.1,1c-2.1,5.1-5.9,8-11.3,8.8
		c-6.2,0.9-12.4-2.8-14.8-8.5C32,81,32,80.6,32.5,80.2z M60,90.6c-3.2,3.1-7.1,4.7-11.5,5.2c-5,0.6-9.8-0.1-14.3-2.6
		c-3.4-2-5.8-4.8-7.2-8.4c-0.1-0.2-0.2-0.4-0.2-0.6c0-0.1,0-0.2,0-0.3c0.9-0.5,1.8-0.9,2.8-1.4c3.1,6.6,8.3,10.4,15.7,10.4
		c7.4,0,12.5-3.8,15.7-10.6c1.1,0.6,2.1,1.1,3.1,1.7C63.3,86.5,61.9,88.7,60,90.6z"/>
	<path class="st1" d="M149.4,124.5c-0.2-2.8-0.8-5.5-2.1-8c-2.6-5.2-6.7-8.8-11.8-11.3c-2.8-1.4-5.8-2.3-8.7-3.6
		c-2.3-1-4.5-2.2-6.7-3.3c-1.1-0.6-1.9-1.5-2.4-2.8c2.9-1.7,4.5-4.4,5.5-7.5c0.5-1.5,0.9-3,1.2-4.6c0.1-0.6,0.3-1,1-1.3
		c1.8-0.8,3-2.2,3.4-4.1c0.2-1.4,0.1-2.9,0.1-4.3c0-0.3,0-0.7,0.1-1c1.9-4.7,2.3-9.4,0-14.1c-1.5-3.2-3.9-5.7-6.7-7.8
		c-0.5-0.4-0.7-0.8-0.7-1.5c-0.1-5.4-2.7-9.1-7.6-11.2c-2.9-1.3-6-1.5-9.1-1.1c-7,0.9-11.3,5.6-11.6,12.6c0,0.4-0.3,0.8-0.6,1.1
		c-1.6,1.6-3.4,3.1-4.8,4.9c-4,4.7-4.2,10.2-2.4,15.8c0.4,1.3,0.6,2.5,0.5,3.8c-0.2,3,0.8,5.4,3.6,6.8c0.6,0.3,0.8,0.7,1,1.3
		c1,4.7,2.3,9.3,6.7,12.1c-0.5,1.2-1.3,2.1-2.3,2.7c-1.6,1-3.3,1.9-5,2.6c-3.1,1.3-6.3,2.4-9.3,3.8c-5.1,2.3-9.4,5.7-12.2,10.6
		c-1.7,3-2.6,6.2-2.7,9.7c0,1,0.5,1.6,1.3,1.6c0.8,0,1.3-0.6,1.3-1.5c0-0.1,0-0.2,0-0.3c0.1-3.4,1.2-6.5,3.1-9.2
		c2.6-3.9,6.3-6.7,10.6-8.6c3.3-1.4,6.7-2.7,10-4c0,0,0.1,0,0.1,0c2.4,7.3,7.3,11.7,15,11.8c8.1,0.2,13.2-4.4,15.7-12
		c1.9,0.7,3.7,1.5,5.6,2.2c3,1.1,6,2.3,8.7,4.1c4.7,3.2,8.2,7.3,9.4,13c0.2,1,0.2,2.1,0.3,3.1c0.1,0.8,0.5,1.3,1.3,1.3
		c0.8,0,1.2-0.5,1.3-1.3C149.4,125,149.4,124.8,149.4,124.5z M97,45.1c1.8-3.4,5-4.9,8.6-5.4c4.1-0.5,7.8,0.4,10.8,3.3
		c1.5,1.5,2.3,3.3,2.5,5.6c-7.6-4-15.2-4-22.7-0.1c-0.1-0.1-0.2-0.1-0.2-0.2C96.3,47.3,96.5,46.1,97,45.1z M87.5,69.1
		c-1.3-5.5,0.4-10.1,4.3-14c4.4-4.3,9.6-6.8,15.8-6.9c5,0,9.5,1.8,13.4,4.9c2.6,2.1,4.8,4.5,6.1,7.6c1.4,3.3,0.8,6.5,0.1,9.9
		c-3.7-0.5-7.2-0.9-10.7-1.6c-5.9-1.2-11.4-3.6-16.4-7c-1.4-0.9-2-0.7-2.7,0.7c-0.7,1.7-1.9,3-3.3,4.2c-1.8,1.5-3.9,2.6-6.3,3.4
		C87.7,70,87.6,69.5,87.5,69.1z M95.9,90.6c-1.6-2.4-2.3-5.2-2.8-8c-0.1-0.4,0-0.9-0.2-1.3c-0.3-0.5-0.6-1.1-1.1-1.2
		c-2.8-1-4-3.6-2.9-6.4c0.3-0.7,0.7-1.1,1.4-1.4c3.7-1.5,6.9-3.7,9-7.2c0-0.1,0.1-0.2,0.1-0.2c2.1,1.1,4.1,2.2,6.2,3.2
		c6.1,2.8,12.5,4.5,19.3,4.7c0.9,0,1.4,0.4,1.5,1.2c0.1,0.9,0.2,1.8,0.1,2.7c-0.1,1.7-1.3,2.9-2.9,3.3c-0.9,0.2-1.3,0.7-1.4,1.6
		c-0.4,3-1.1,5.9-2.6,8.5c-0.9,1.5-2.1,2.7-3.8,3.4c-0.9,0.4-1.8,0.8-2.6,1.4c-1.1,0.8-2.3,1.3-3.7,1.3c-1.2,0-2.5,0-3.7,0
		c-1.4,0-2.7-0.5-3.9-1.4c-0.7-0.5-1.6-1-2.4-1.3C97.9,92.9,96.8,92,95.9,90.6z M120.1,102.3c-1,4.8-5.3,8.9-10.2,9.8
		c-6.7,1.2-13.3-2.9-15.1-9.5c-0.2-0.7-0.1-1,0.5-1.4c1.9-1.1,3.4-2.4,4.4-4.6c2.3,2.1,5,2.5,7.8,2.5c2.8,0,5.5-0.3,7.8-2.4
		c1,2.2,2.7,3.6,4.6,4.8C120,101.5,120.1,102,120.1,102.3z"/>
	<path class="st1" d="M93.1,113.1c-0.8,0-1.4,0.7-1.4,1.5c0,0.8,0.6,1.3,1.4,1.3c0.8,0,1.4-0.6,1.4-1.4
		C94.5,113.7,93.9,113,93.1,113.1z"/>
	<path class="st1" d="M99.2,119.7c-0.8,0-1.3,0.6-1.4,1.4c0,0.8,0.6,1.4,1.4,1.4c0.8,0,1.4-0.7,1.4-1.4
		C100.6,120.3,100,119.7,99.2,119.7z"/>
	<path class="st1" d="M107.5,122.4c-0.8,0-1.4,0.5-1.4,1.4c0,0.8,0.5,1.4,1.4,1.4c0.8,0,1.4-0.6,1.4-1.4
		C108.9,123,108.3,122.4,107.5,122.4z"/>
	<path class="st1" d="M91.6,106c0-0.8-0.6-1.4-1.4-1.4c-0.8,0-1.4,0.6-1.4,1.4c0,0.8,0.6,1.3,1.4,1.4
		C90.9,107.4,91.5,106.8,91.6,106z"/>
	<path class="st1" d="M125.1,104.6c-0.8,0-1.4,0.6-1.4,1.4c0,0.8,0.6,1.4,1.4,1.4c0.8,0,1.4-0.6,1.4-1.4
		C126.5,105.2,125.9,104.6,125.1,104.6z"/>
	<path class="st1" d="M92.7,110.3c0-0.8-0.7-1.4-1.5-1.4c-0.8,0-1.3,0.6-1.3,1.4c0,0.8,0.6,1.4,1.4,1.4
		C92.1,111.7,92.7,111.1,92.7,110.3z"/>
	<path class="st1" d="M122.1,113.1c-0.8,0-1.4,0.6-1.4,1.4c0,0.8,0.6,1.4,1.4,1.4c0.8,0,1.4-0.6,1.4-1.4
		C123.5,113.7,122.9,113.1,122.1,113.1z"/>
	<path class="st1" d="M116,119.7c-0.8,0-1.4,0.5-1.4,1.4c0,0.8,0.6,1.4,1.4,1.4c0.8,0,1.4-0.6,1.4-1.4
		C117.4,120.3,116.8,119.7,116,119.7z"/>
	<path class="st1" d="M103.3,121.6c-0.8,0-1.4,0.7-1.4,1.4c0,0.8,0.6,1.4,1.4,1.4c0.8,0,1.4-0.6,1.4-1.4
		C104.7,122.3,104,121.6,103.3,121.6z"/>
	<path class="st1" d="M119.5,116.8c-0.8,0-1.4,0.6-1.4,1.4c0,0.8,0.6,1.4,1.4,1.4c0.8,0,1.4-0.6,1.4-1.4
		C120.8,117.3,120.2,116.8,119.5,116.8z"/>
	<path class="st1" d="M123.9,108.9c-0.8,0-1.4,0.6-1.4,1.4c0,0.8,0.6,1.4,1.3,1.4c0.8,0,1.4-0.5,1.5-1.3
		C125.3,109.6,124.7,109,123.9,108.9z"/>
	<path class="st1" d="M95.8,116.8c-0.8,0-1.4,0.6-1.4,1.4c0,0.8,0.6,1.3,1.3,1.4c0.8,0,1.4-0.6,1.4-1.4
		C97.2,117.4,96.6,116.7,95.8,116.8z"/>
	<path class="st1" d="M112.6,121.8c-0.3-0.1-0.8,0-0.9,0.2c-0.2,0.3-0.3,0.9-0.1,1.1c0.2,0.2,0.7,0.2,1.1,0.3
		c-0.4,0.1-0.8,0.3-0.9,0.2c-0.4-0.5-0.6-1.1-0.8-1.7c-0.6,0.4-0.8,1.1-0.3,1.7c0.3,0.4,0.9,0.7,1.4,0.7c0.6,0,1.1-0.3,0.9-1.1
		c0,0,0,0,0,0c0,0,0,0,0,0c0,0,0,0,0,0c0,0,0,0,0,0c0,0,0,0,0,0c0,0,0,0,0,0c0-0.1,0.1-0.2,0.1-0.2
		C113.5,122.5,113.1,122,112.6,121.8z"/>
</g>
<g>
	<path class="st1" d="M235.1,374.5c0.3-2.9,0.6-5.8,0.8-8.7c0.8-10.9,1.6-21.9,2.4-32.8c0.7-9.9,1.4-19.8,2.1-29.7
		c-0.3-0.1-0.7-0.3-1.1-0.4c-2-0.8-3-2.3-3.1-4.4c0-1.8,0-3.6,0-5.3c0.1-2.6,1.8-4.5,4.4-4.7c0.7-0.1,1-0.3,1.2-0.9
		c0.6-2.5,2-4.4,4-6c0.4-0.3,0.7-0.8,0.7-1.3c0.6-3.7,2.9-5.8,6.7-5.9c0.4,0,0.9-0.3,1.2-0.6c1.6-1.7,3.4-2.8,5.6-3.4
		c0.4-0.1,0.9-0.6,0.9-1c1.5-7.1,6.6-11.8,13.9-12.7c0.4,0,0.9-0.5,1-0.9c1.7-5.4,5.9-8.4,11.5-8.3c0.4,0,1-0.2,1.3-0.5
		c2.8-2.8,6.6-2.8,9.5,0c0.3,0.3,0.8,0.5,1.2,0.6c2.2,0.5,3.8-0.3,5.6-1.8c6.4-5.5,16.2-4.5,21.6,2c0.5,0.7,1.1,0.9,1.9,0.9
		c4.8,0.2,8.9,3.2,10.3,7.7c1.5,4.5,0,9.2-3.7,12.2c-0.6,0.5-0.8,1-0.7,1.8c0.7,7.2-4.7,12.8-11.9,12.4c-1.1-0.1-1.7,0.2-2.4,1.1
		c-5,6.8-14.6,8.3-21.4,3.3c-0.6-0.5-1.1-0.6-1.9-0.3c-1,0.3-2.1,0.5-3,0.2c-2.2-0.7-4.3,0.2-6.4-0.2c-0.2,0-0.6,0.2-0.7,0.4
		c-0.6,0.8-1.2,1.6-1.8,2.4c1.5,1.3,1.9,2.9,1.8,4.8c0,1,0,2,0,3.1c0,3.6-0.8,4.7-4.2,6c0.3,4,0.5,8,0.8,12c0.1,1-0.1,1.8-0.9,2.3
		c-1.3,0.8-2.8,0-3-1.7c-0.3-3.2-0.5-6.5-0.7-9.7c-0.1-1-0.2-2-0.3-3.1c-11.3,0-22.6,0-33.9,0c-0.1,1.8-0.3,3.6-0.4,5.3
		c-1.3,18.1-2.6,36.2-3.8,54.2c-0.3,4.4-0.7,8.8-1,13.2c-0.1,1.2-0.4,2.1-1.4,2.7c-0.9,0-1.8,0-2.7,0
		C235.1,377.2,235.1,375.8,235.1,374.5z M245.7,288.3c1.6,0,3,0,4.4,0c1.3,0,2.1,0.8,2.1,1.9c0,1.1-0.8,1.9-2,2c-0.4,0-0.7,0-1.1,0
		c-2.5,0-5.1,0-7.6,0c-1,0-1.4,0.4-1.3,1.3c0.1,1.3,0.1,2.6,0,3.9c-0.1,1.3,0.4,1.6,1.6,1.6c6.8,0,13.5,0,20.3,0
		c6.3,0,12.6,0,18.9,0c1.3,0,1.7-0.4,1.6-1.6c-0.1-1.1,0-2.1,0-3.2c0-1.9,0-1.9-1.9-1.9c-6.7,0-13.4,0-20.1,0c-0.5,0-1.1,0-1.6-0.2
		c-1-0.3-1.5-1-1.4-2c0.1-1,0.7-1.6,1.7-1.8c0.4-0.1,0.9,0,1.3,0c5.3,0,10.7,0,16,0c2.8,0,5-1.1,6.5-3.5c1.1-1.9,1.4-3.9,0.6-6
		c-0.1-0.4-0.3-0.7-0.4-1.1c-0.4-1.1,0-2.2,1-2.6c0.9-0.4,2.2-0.1,2.6,0.9c0.7,2.1,1.2,4.2,1.8,6.5c0.5,0,1.3,0,2.1-0.2
		c1.1-0.3,2-0.3,3.1,0.2c0.6,0.3,1.6,0.2,2.2-0.2c2-1.1,2.2-1.1,3.8,0.3c3.7,3.3,8,4.1,12.5,2.1c4.5-2,6.8-5.7,6.7-10.6
		c0-1.9-0.9-3.7-1.5-5.6c-0.4-1.2-0.2-2.2,0.8-2.8c1-0.5,2.1-0.2,2.7,0.9c0.4,0.6,0.6,1.3,0.9,1.9c1.3,3.1,1.4,6.4,0.6,9.6
		c4.8,0.9,8.9-4.1,7.5-9.1c-0.6-2-0.4-2.4,1.4-3.4c3.1-1.7,4.5-5.2,3.4-8.5c-1.1-3.4-4.3-5.3-7.9-4.8c-1.2,0.2-1.9-0.2-2.6-1.2
		c-4.9-7-13.7-7.3-19-0.6c-0.8,1-1.6,1.2-2.8,1c-1.3-0.2-2.7-0.4-4-0.2c-1.5,0.2-2.5-0.1-3.2-1.6c-0.8-1.6-3.1-1.7-3.9-0.1
		c-0.9,1.9-2.1,2-3.9,1.7c-3.6-0.7-7.2,1.9-7.8,5.4c0.3,0.1,0.6,0.2,0.8,0.3c1.5,0.7,3,1.4,4.4,2.2c1,0.6,1.2,1.8,0.6,2.7
		c-0.6,0.9-1.7,1.2-2.7,0.6c-0.3-0.2-0.6-0.4-0.9-0.6c-6.6-3.8-14.9-0.5-16.9,6.7c-0.1,0.4-0.2,0.8-0.2,0.9c1.8,1,3.4,1.8,4.9,2.8
		c1.4,1,1.5,2.2,0.7,3.2c-0.8,0.9-1.9,0.9-3.2-0.1c-3.5-2.8-8.2-2.2-10.7,1.6c-1,1.5-1.4,1.7-3.2,1.2c-1.7-0.5-3.3,0.7-3,2.5
		c0.3,1.7-0.3,2.5-1.7,3.3C247.3,285,246.2,286.4,245.7,288.3z"/>
	<path class="st1" d="M298.6,378.5c-1-0.7-1.3-1.7-1.2-3c1-11.2,1.9-22.5,2.8-33.7c0.3-3.8,0.7-7.7,1-11.6c-0.3-0.1-0.5-0.2-0.8-0.3
		c-2.2-0.8-3.3-2.3-3.3-4.6c0-1.7,0-3.4,0-5.1c0.1-2.8,1.8-4.6,4.6-4.8c0.7,0,1-0.3,1.2-0.9c1.2-4,4-6.5,8-7.5
		c0.4-0.1,0.9-0.5,1-0.9c1-3.2,3-5.6,6.1-7c0.4-0.2,0.8-0.7,0.8-1.1c0.7-5.1,4.4-7.9,9.5-7.1c0.4,0.1,0.9-0.2,1.2-0.5
		c1.7-2.1,4-3.4,6.6-3.9c0.4-0.1,0.9-0.4,1-0.8c2.4-7.5,12-10,17.7-4.2c0.1,0.1,0.2,0.1,0.3,0.2c1.9-1.3,4.1-1.8,6.4-1.2
		c3.4,0.8,5.7,3.9,5.8,7.4c0,0.6,0.3,1.4,0.8,1.8c5.3,4.9,4.4,13.4-1.8,17.1c-0.5,0.3-1,0.7-1.3,1.2c-4.3,7.6-12.9,10.4-20.7,6.6
		c-0.2-0.1-0.5-0.2-0.7-0.3c-0.4,0.6-0.9,1.2-1.3,1.8c2.1,1.3,2.6,3.2,2.5,5.4c-0.1,1,0,2,0,2.9c0,3.5-0.7,4.6-4.1,6
		c0.2,2.4,0.4,4.8,0.6,7.2c0,0.5,0.1,1,0.1,1.5c0,1.4-0.7,2.3-1.8,2.3c-1.1,0.1-2-0.7-2.1-2.1c-0.2-2.4-0.4-4.9-0.6-7.3
		c0-0.6-0.1-1.1-0.2-1.7c-10.5,0-20.8,0-31.3,0c-0.3,3-0.5,5.9-0.8,8.8c-1,11.5-1.9,23-2.9,34.5c-0.1,0.9-0.2,1.8-0.2,2.7
		c0,1.1-0.5,2-1.5,2.5C299.5,378.5,299.1,378.5,298.6,378.5z M306.9,315.3c6.3,0,12.5,0,18.8,0c4,0,5.6-2.7,3.6-6.2
		c-0.6-1-0.4-2.1,0.4-2.7c0.9-0.7,2.1-0.6,2.8,0.5c0.7,1.1,1.4,2.3,1.5,3.5c0.2,1.6-0.2,3.2-0.3,4.8c2.9,0.4,5.7-1.3,6.9-4.4
		c0.8-2.1,2-2.4,3.7-1.1c2.6,1.9,5.6,2.7,8.8,2.2c2.7-0.4,5-1.7,6.6-3.5c-1.9-1-3.8-1.8-5.5-2.9c-1-0.6-1.1-1.9-0.4-2.8
		c0.7-0.9,1.8-1,2.8-0.3c0.2,0.1,0.4,0.3,0.6,0.5c3.1,2.1,7.1,1.3,9.2-1.7c2.1-3.1,1.3-7.2-1.8-9.3c-1.7-1.2-1.8-1.4-1.4-3.4
		c0.6-2.7-1.9-5.1-4.6-4.3c-0.9,0.3-1.3,0.7-1.2,1.9c0.3,1.9,0.2,3.9-0.1,5.8c-0.1,1.2-1.3,1.8-2.4,1.5c-1.1-0.3-1.7-1.3-1.4-2.5
		c0-0.3,0.2-0.5,0.2-0.8c0.7-3.8-1.7-7.3-5.4-7.9c-3.8-0.6-7.1,1.9-7.6,5.7c-0.3,1.8-0.8,2.3-2.7,2.3c-2,0-3.6,0.7-5,2.1
		c-0.5,0.5-0.5,0.9-0.2,1.6c0.6,1.3,1.1,2.7,1.3,4.1c0.2,1.1-0.7,2-1.8,2.1c-1.1,0.1-1.9-0.6-2.1-1.7c-0.1-0.4-0.1-0.8-0.2-1.2
		c-0.5-1.9-2.4-3-4.3-2.6c-1.8,0.4-3.1,2.3-2.8,4.1c0.4,2.6,0.2,2.9-2.2,3.5c-2.8,0.7-4.8,3-5,5.7c-0.2,2.3-0.5,2.5-2.9,2.7
		C309.9,310.9,307.7,312.5,306.9,315.3z M320.9,326c6.1,0,12.3,0,18.4,0c1.2,0,1.6-0.4,1.5-1.5c-0.1-1.1,0-2.3,0-3.5
		c0-1.8,0-1.8-1.8-1.8c-9.3,0-18.6,0-28,0c-2.8,0-5.7,0-8.5,0c-1,0-1.4,0.4-1.4,1.4c0.1,1.2,0.1,2.5,0,3.7c-0.1,1.3,0.4,1.7,1.7,1.7
		C308.8,326,314.8,326,320.9,326z"/>
	<path class="st1" d="M285,378.5c-1-0.6-1.3-1.4-1.4-2.5c-0.7-10.9-1.5-21.9-2.3-32.8c-0.4-5.6-0.8-11.2-1.2-16.7
		c0-0.4-0.1-0.7-0.1-1.1c0-1.2,0.8-2.1,1.9-2.1c1.1-0.1,2,0.7,2.1,2c0.3,3.5,0.5,7.1,0.8,10.6c0.8,10.8,1.5,21.5,2.3,32.3
		c0.2,2.6,0.3,5.2,0.6,7.8c0.1,1.2-0.4,1.9-1.3,2.6C285.9,378.5,285.5,378.5,285,378.5z"/>
	<path class="st1" d="M341.8,378.5c-0.9-0.6-1.3-1.4-1.4-2.5c-0.7-8.9-1.5-17.9-2.2-26.8c-0.1-1.5,0.5-2.5,1.8-2.7
		c1.2-0.1,2.1,0.7,2.2,2.2c0.7,8.2,1.4,16.4,2.1,24.5c0.1,0.7,0.1,1.4,0.2,2.1c0.2,1.3-0.1,2.4-1.3,3.1
		C342.7,378.5,342.2,378.5,341.8,378.5z"/>
	<path class="st1" d="M300.9,276.1c-1.2-0.6-2.5-1.1-3.6-1.8c-1-0.7-1.1-1.9-0.4-2.8c0.7-0.9,1.8-1.1,2.8-0.3
		c0.9,0.6,1.7,0.9,2.5,0.1c0.9-0.9,0.6-1.7-0.1-2.6c-0.7-1-0.5-2.2,0.4-2.8c0.9-0.6,1.9-0.5,2.7,0.4c1.5,1.5,1.9,4,1,6.1
		C305.4,274.4,303.3,275.8,300.9,276.1z"/>
	<path class="st1" d="M314.3,252.9c3,0,5.5,2.2,5.7,5.2c0.1,1.4-0.5,2.3-1.7,2.4c-1.1,0.1-2-0.5-2.2-1.8c-0.2-1-0.6-1.8-1.7-1.8
		c-1.2,0-1.6,0.7-1.7,1.8c-0.2,1.3-1.1,2-2.2,1.8c-1.2-0.1-1.8-1-1.8-2.4C308.8,255.2,311.3,252.9,314.3,252.9z"/>
	<path class="st1" d="M349.8,297.6c0,1.4-0.5,2.2-1.7,2.4c-1.1,0.2-2.1-0.5-2.3-1.8c-0.2-1.1-0.6-1.9-1.8-1.9
		c-1.1,0-1.5,0.9-1.7,1.9c-0.2,1.3-1.1,1.9-2.2,1.8c-1-0.2-1.7-1-1.7-2.2c0-3,2.7-5.5,5.8-5.5C347.2,292.4,349.8,295,349.8,297.6z"
		/>
</g>
<g>
	<path class="st1" d="M18.1,415.3c-0.2-3.1-1.1-6-2.6-8.7c-0.1-0.1-0.2-0.3-0.3-0.4c0-0.1,0-0.1,0-0.2c-0.6-0.9-1.2-1.9-1.9-2.7
		c-0.1-0.2-0.3-0.4-0.4-0.6c-1.3-1.4-2.7-2.6-4.3-3.7c-2.7-1.7-5.6-2.9-8.7-3.2c-2.1-0.2-4.1-0.4-6.1-0.9c-1.9-0.5-3.9-0.8-5.9-1.3
		c-2.7-0.6-5.4-1.2-8.2-1.4c-0.5,0-0.6-0.3-0.7-0.7c0-0.1,0-0.3,0-0.4c-0.2-2.5-0.4-5-0.7-7.5c-0.2-1.5-0.6-3-1.5-4.3
		c-0.3-0.5-0.3-0.7,0.1-1.1c2.7-2.7,4.7-5.8,5.7-9.5c0.2-0.6,0.4-1,1-1.1c0.2,0,0.4-0.1,0.6-0.2c1.4-0.5,2.2-1.6,2.8-2.9
		c1-2.3,1.7-4.8,2.2-7.3c0.4-2.2-0.8-4.1-2.7-4.7c-0.4-0.1-0.4-0.3-0.4-0.5c0.1-1.1,0.1-2.1,0.2-3.2c0-0.3,0.1-0.5,0.2-0.7
		c0.6-1.1,1.2-2.2,1.6-3.4c0.5-1.3,0.9-2.6,1-3.9c0.1-0.1,0.1-0.3,0.1-0.4c0.1-0.3,0.2-0.5,0.1-0.8c0.1-0.1,0.1-0.2,0.1-0.3
		c0.2-1.2,0.3-2.4,0.3-3.6c0.1-3.5-0.3-6.9-1.1-10.3c-0.6-2.5-1.4-4.9-2.6-7.1c-0.6-1.2-1.4-2.4-2.4-3.3c-1.2-1.1-2.8-1.5-4.2-0.1
		c-0.2,0.2-0.4,0.3-0.6,0.3c-0.7,0.2-1.3,0.3-2,0.4c-2.2,0.2-4.5,0.2-6.8,0.1c-5.3-0.2-10.6-0.3-15.9,0.1c-0.8,0.1-1.6,0.1-2.4,0.3
		c-0.1,0-0.2,0-0.3,0c-1.3,0.1-2.5,0.4-3.8,0.7c-3.4,0.8-6.5,2-9.4,4c-2.1,1.5-3.5,3.4-4.4,5.8c-0.9,2.6-1.3,5.3-1.4,8.1
		c-0.1,1.3,0,2.5-0.1,3.8c-0.2,2.4-0.1,4.7,0.3,7c0.4,2.2,0.7,4.4,1.1,6.6c0.1,0.5-0.1,0.6-0.4,0.8c-1.6,0.8-2.4,2.4-2.2,4.1
		c0.1,1.1,0.4,2.2,0.7,3.2c0.5,1.7,0.9,3.4,1.8,5c0.9,1.6,2.2,2.7,4.1,2.7c0.2,0,0.2,0.1,0.3,0.3c0.8,3.8,2.7,6.9,5.4,9.6
		c0.5,0.5,0.7,1.8,0.4,2.4c-0.3,0.7-0.6,1.5-0.7,2.2c-0.3,1.3-0.4,2.7-0.5,4.1c-0.2,1.7-0.4,3.4-0.6,5.1c0,0.4-0.2,0.6-0.6,0.6
		c-1.9,0.2-3.9,0.4-5.8,0.8c-2.8,0.6-5.6,1.2-8.4,1.8c-1.7,0.3-3.3,0.8-5,0.8c-1.8,0.1-3.6,0.5-5.3,1.1c-6.7,2.4-11.2,7.1-13.5,13.9
		c-0.5,1.6-0.9,3.3-0.9,5c-0.1,6.8,0,13.5,0,20.3c0,0.9,0.4,1.4,1.1,1.4c0.8,0.1,1.3-0.4,1.5-1.3c0.1,0,0.2,0,0.4,0
		c-0.1,0-0.2,0-0.4-0.1c0-0.1,0-0.2,0-0.3c0-5.9,0-11.9,0-17.8c0-2,0.1-4,0.7-5.9c1-3.7,3-6.8,5.9-9.3c2.7-2.3,5.8-3.7,9.3-4.2
		c1-0.2,2.1-0.1,3.1-0.3c1.5-0.3,3-0.6,4.5-0.9c2.7-0.6,5.4-1.1,8.1-1.7c0.3-0.1,0.5,0,0.5,0.3c0.1,0.4,0.2,0.8,0.4,1.2
		c0.8,2.1,1.7,4.1,3,6c0.1,0.2,0.2,0.3,0.1,0.5c-0.3,2.5-0.6,5-0.8,7.4c-0.3,2.7-0.6,5.4-0.9,8.1c-0.1,0.8,0.5,1.4,1.3,1.4
		c8.4,0,16.9,0,25.3,0c1,0,1.5-0.8,1.3-1.7c-0.3-1.2,0-1.9,1.1-2.4c1.1-0.5,2.2-0.7,3.4-0.8c0.5,0,0.7,0.1,0.9,0.5
		c1,2.2,2,4.4,3.1,6.7c1.5,3.1,2.9,6.3,4.4,9.4c0.5,1.1,1.1,2.2,1.5,3.4c0,0.1,0,0.2,0.1,0.3c0,0,0,0,0,0c0,0,0,0.1,0,0.1
		c0,0,0,0,0,0c0,0,0,0,0,0l0,0c0,0,0,0,0,0c0.1,0.3,0.2,0.5,0.4,0.8c0.3,0.5,0.9,0.7,1.5,0.5c0.6-0.2,0.9-0.7,0.9-1.3
		c-0.2-1.1-0.8-2-1.3-2.9c-0.1-0.2-0.1-0.4-0.2-0.7c-3.4-7.3-6.8-14.6-10.2-21.9c-0.1-0.3-0.2-0.4,0.1-0.6c2.1-1.3,4.1-2.6,6.2-4
		c0.3-0.2,0.4-0.2,0.6,0.1c0.7,0.9,1.4,1.8,2.1,2.7c0,0.1,0,0.1,0.1,0.1c0.1,0.1,0.2,0.3,0.2,0.4c4.1,5.5,8.1,10.9,12.2,16.3
		c2,2.7,4.1,5.5,6.2,8.2c1.2,1.5,2.3,3.1,3.5,4.6c0.5,0.7,1.3,0.8,1.9,0.3c0.6-0.5,0.7-1.2,0.2-1.9c-0.2-0.2-0.3-0.4-0.4-0.6
		c0,0,0,0,0,0c0-0.1,0.2-0.1,0.3-0.2c-0.1,0-0.3,0-0.4,0c-1.3-1.7-2.6-3.5-3.9-5.2c-0.9-1.2-1.7-2.3-2.6-3.5
		c-0.3-0.3-0.4-0.7-0.4-1.1c0-2.4,0-4.8,0-7.2c0-1-1-1.7-1.9-1.2c-0.5,0.3-0.7,0.7-0.7,1.3c0,1.4,0,2.7,0,4.3
		c-0.9-1.2-1.8-2.4-2.6-3.5c-2.6-3.4-5.2-6.9-7.7-10.3c-0.5-0.7-1.1-1.4-1.6-2.1c-0.2-0.3-0.4-0.6-0.8-0.7c-0.1,0-0.3-0.2-0.3-0.3
		c-0.1-0.8-0.7-1.3-1.1-1.9c-0.4-0.8-0.7-1.6-0.2-2.5c1.1-2,2-4.1,2.6-6.2c0.1-0.4,0.2-0.4,0.6-0.4c1.7,0.4,3.4,0.8,5.2,1.1
		c0.6,0.1,1.2,0.3,1.8,0.4c0,0,0,0,0,0c0.3,0,0.5,0.2,0.8,0.1c0.8,0.2,1.6,0.3,2.3,0.5c1.7,0.5,3.4,0.4,5.1,0.7
		c3.4,0.5,6.5,1.8,9.2,4c2.6,2.1,4.5,4.8,5.7,7.9c0.7,1.9,1.2,3.9,1.2,5.9c0,5.5,0,11.1,0,16.6c0,0.2,0,0.3,0,0.5c0,0,0.1,0,0.1,0
		c0,0-0.1,0-0.1,0c0,0.1,0,0.3,0,0.4c0,0,0,0,0,0c0,0.5,0,0.9,0,1.4c0.1,0.2,0,0.5,0,0.7c0,0,0,0.1,0,0.1c0,0,0,0,0,0c0,0,0,0,0,0
		c0,0-0.1,0-0.1,0c0,0,0.1,0,0.1,0c0.1,0.6,0.4,1.1,1,1.2c0.9,0.2,1.6-0.3,1.6-1.3c0-1.6,0-3.2,0-4.8c0-0.1,0-0.3,0-0.4
		c0-0.4,0-0.7,0-1.1c0,0,0-0.1,0-0.1c0-0.3,0.1-0.7-0.1-1c0,0,0,0,0,0c0.1-0.2,0.1-0.4,0.1-0.6c0-1.9,0-3.9,0-5.8
		C18.1,419.9,18.2,417.6,18.1,415.3z M-11.7,338.7C-11.7,338.7-11.7,338.7-11.7,338.7C-11.7,338.7-11.7,338.7-11.7,338.7
		C-11.7,338.7-11.7,338.7-11.7,338.7c0.2-0.2,0.2-0.4,0.1-0.5C-11.5,338.3-11.5,338.5-11.7,338.7c-0.1,0.1-0.2,0.1-0.4,0.1
		C-11.9,338.8-11.8,338.8-11.7,338.7z M-12.1,337.9C-12.1,337.9-12.1,337.9-12.1,337.9C-12.1,337.9-12.1,337.9-12.1,337.9
		C-12.1,337.9-12.1,337.9-12.1,337.9z M-65,335.5c0-0.1,0-0.3,0.1-0.4c0.1-2.8,0.5-5.6,1.5-8.2c0.7-1.8,1.9-3,3.5-4.1
		c1.8-1.2,3.7-2.1,5.8-2.8c1.8-0.6,3.6-1,5.5-1.2c3.5-0.5,7-0.6,10.5-0.6c4,0,8.1,0.2,12.1,0.2c1.7,0,3.4-0.1,5.1-0.5
		c0.8-0.2,1.5-0.5,2.1-1.1c0.3-0.2,0.4-0.1,0.6,0.1c0.7,0.5,1.2,1.3,1.6,2c1.3,2.3,2.1,4.8,2.7,7.3c0.5,2.1,0.9,4.3,1,6.5
		c0.1,1.5,0.1,2.9,0,4.4c-0.1,1.7-0.4,3.3-0.8,5c-0.1,0.1-0.1,0.2-0.1,0.3c-0.3,0.9-0.6,1.9-1,2.7c0,0.1-0.1,0.2-0.2,0.3
		c-0.1-0.1-0.2-0.2-0.3-0.2c0-0.1,0-0.1-0.1-0.1c-0.1-0.3-0.3-0.6-0.5-0.8c0-0.1,0-0.2-0.1-0.2c-0.9-1.5-1.8-3-2.8-4.5
		c-0.9-1.5-1.9-3-2.8-4.5c-0.6-1-1.7-1-2.4-0.3c-0.8,0.9-2,1.2-3.2,1.6c-1.2,0.4-2.4,0.7-3.7,1c-4,0.9-8,1.4-12,1.9c0,0,0,0,0,0
		c-0.1,0-0.2,0-0.3,0c-0.8,0.1-1.5,0.2-2.3,0.3c-0.1,0.1-0.2,0.1-0.4,0.2c0.1-0.1,0.2-0.1,0.4-0.2c0,0,0,0,0,0
		c-2.4,0.3-4.8,0.6-7.3,1c-1.6,0.2-3.1,0.5-4.7,0.9c-0.5,0.1-0.9,0.3-1.4,0.6c-0.6,0.4-0.9,0.9-0.9,1.6c0,0.6-0.3,1.1-0.6,1.6
		c-0.7,1.2-1.5,2.5-2.4,3.6c-0.5,0.6-1,1.1-1.4,1.8c-0.4-2.3-0.6-4.5-0.9-6.8c0-0.5-0.1-1.1-0.1-1.6c-0.1-0.5,0-1-0.1-1.5
		C-65.1,338.8-65.1,337.1-65,335.5z M-59.4,368.7c-0.4-1.3-0.5-2.7-0.6-4.1c-0.1-1.8-0.3-3.5-0.4-5.3c0-0.4-0.1-0.8-0.1-1.1
		c-0.1-0.8-0.7-1.4-1.5-1.3c-0.8,0.1-1.2,0.8-1.1,1.6c0.1,1.5,0.2,2.9,0.4,4.4c0.1,0.8,0.1,1.6,0.2,2.5c-0.5-0.1-0.8-0.3-1.1-0.6
		c-0.6-0.7-1-1.4-1.2-2.3c-0.5-1.8-1.2-3.5-1.5-5.4c-0.1-0.8,0.1-1.3,0.7-1.7c0.1-0.1,0.3-0.2,0.4-0.1c0.5,0.1,1-0.1,1.5-0.2
		c0.5-0.1,0.9-0.6,0.9-1.2c0-0.3,0.1-0.5,0.2-0.7c1.7-2.1,3.3-4.2,4.7-6.5c0.4-0.8,0.8-1.5,1-2.4c0-0.3,0.3-0.3,0.4-0.3
		c1.5-0.4,3-0.6,4.4-0.8c1.6-0.2,3.2-0.4,4.7-0.6c0,0,0,0,0,0c0.3,0,0.7-0.1,1-0.1c0.4,0,0.7,0,1.1-0.2c1.1,0,2.2-0.2,3.2-0.4
		c0.3,0.1,0.7-0.1,1-0.1c0.2,0,0.5-0.1,0.7-0.1c-0.1-0.5-0.4-0.9-0.7-1.3c0.4,0.4,0.6,0.8,0.7,1.3c3.7-0.5,7.4-1,11.1-1.9
		c2-0.5,4-1,5.8-2c0.3-0.2,0.4,0,0.5,0.2c1.8,2.8,3.5,5.6,5.3,8.4c0,0,0,0,0,0c0.1,0.1,0.1,0.2,0.2,0.3c0.2,0.4,0.4,0.8,0.7,1.2
		c0.4,0.4,0.4,0.9,0.4,1.5c-0.1,1.6-0.3,3.2-0.4,4.8c-0.1,1,0.7,1.7,1.7,1.4c0.8-0.2,1.6,0.4,1.6,1.3c0,0.9-0.3,1.8-0.6,2.7
		c-0.5,1.4-0.8,2.9-1.4,4.3c-0.3,0.6-0.6,1.1-1.2,1.6c-0.1-0.5,0.1-1,0.2-1.4c0.2-1.7,0.5-3.5,0.7-5.2c0.1-1.2-0.7-2-1.7-1.6
		c-0.5,0.2-0.8,0.5-0.8,1c-0.2,1.8-0.4,3.6-0.7,5.4c-0.3,2.4-0.8,4.8-1.7,7.1c-1,2.5-2.7,4.5-4.6,6.4c-0.2,0.2-0.2,0.1-0.4,0
		c-1.5-1-3.2-1.5-5-1.8c-4-0.6-7.9-0.3-11.9-0.4c-1.2,0-2.4,0.1-3.6,0.1c0,0,0,0,0,0c-0.1,0-0.2,0-0.2,0.1c-0.1,0-0.2,0-0.3,0l0,0
		c-2.4,0.2-4.7,0.7-6.8,2.1c-0.2,0.1-0.3,0.2-0.4,0C-56.5,374.6-58.4,372-59.4,368.7z M-45.8,375.3c0,0-0.1,0-0.1,0
		C-45.9,375.3-45.8,375.3-45.8,375.3z M-58.6,395.2c-0.1,0.8-0.2,1.5-0.2,2.3c-0.1,0.5-0.1,0.9-0.2,1.5c-0.6-1.2-1-2.4-1.4-3.6
		c-0.1-0.2,0-0.3,0.2-0.3c0.5,0,0.9-0.1,1.4-0.1C-58.6,394.9-58.6,394.9-58.6,395.2z M-36.4,418c-7.3,0-14.5,0-21.8,0
		c-0.3,0-0.3-0.1-0.3-0.3c0.1-1,0.2-2.1,0.3-3.1c0.3-2.3,0.5-4.6,0.8-6.9c0.3-2.6,0.6-5.1,0.9-7.7c0.2-2.2,0.5-4.4,0.7-6.6
		c0.2-2,0.4-4,0.7-5.9c0.2-1.4,0.2-2.8,0.5-4.2c0.6-2.9,2.4-4.6,5.3-5.3c0,0,0.1,0,0.1-0.1c0.1,0,0.2,0,0.3-0.1c0.2,0,0.5,0,0.7-0.1
		c0,0,0.1,0,0.1,0c1.5-0.2,3-0.3,4.5-0.3c0,0,0,0,0,0c0.2,0,0.4,0,0.6,0c0.3,0,0.7,0,1,0c0.2,0.1,0.3,0.1,0.5,0c-0.1,0-0.2,0-0.2,0
		c0.1,0,0.2,0,0.2,0c0.2,0,0.3,0,0.5,0c0.2,0.1,0.4,0,0.6,0c-0.1,0-0.2,0-0.3,0c0.1,0,0.2,0,0.3,0c0.1,0,0.2,0,0.4,0
		c0.2,0.1,0.4,0.1,0.6,0c0.3,0,0.5,0,0.8,0c0,0,0,0,0,0c0,0,0,0,0,0l0,0c0.1,0,0.2,0,0.4,0c0,0,0,0,0,0c0.4,0.1,0.8,0.1,1.2,0
		c2.1,0.1,4.2,0.1,6.3,0.5c1.2,0.2,2.4,0.6,3.5,1.3c1.7,1.1,2.5,2.8,2.8,4.8c0.3,2.4,0.5,4.7,0.7,7.1c0,0.2,0.1,0.4,0.1,0.6
		c-0.2-0.1-0.3-0.4-0.4-0.6c-2.2-3.2-4.8-6.2-8.1-8.3c-2.4-1.6-5-2.6-7.9-2.6c-3.9,0-7.3,2.7-8.3,6.4c-0.8,2.8-0.3,5.6,0.6,8.3
		c0.6,1.8,1.5,3.4,2.6,4.9c0.1,0.1,0.2,0.2,0.2,0.3l0,0c0.1,0.3,0.3,0.5,0.5,0.7c0.2,0.3,0.4,0.6,0.6,0.8c0.1,0.3,0.4,0.5,0.6,0.7
		c0,0,0.1,0.1,0.1,0.1c0,0,0,0,0,0c0,0.1,0.1,0.2,0.2,0.1c0.1,0.5,0.5,0.7,0.8,1c0.2,0.3,0.5,0.6,0.8,0.8c0.2,0.2,0.3,0.4,0.5,0.5
		c0,0.2,0.1,0.2,0.3,0.3c0.2-0.2,0.3-0.4,0.4-0.7c-0.1,0.2-0.2,0.5-0.4,0.7c1.1,1.2,2.4,2.2,3.7,3.2c0.2,0.2,0.4,0.3,0.4,0.7
		c0.1,1.6,0.2,3.3,0.3,4.9c0,0.8,0.2,1.6,0.1,2.4c0,0.4,0.1,0.9,0.2,1.3C-36,417.9-36.1,418-36.4,418z M-33.7,414.2
		c-0.1-1.3-0.2-2.6-0.2-4c1.1,0.6,2.3,1.2,3.4,1.6c0.6,0.2,0.9,0.6,1.1,1.2C-30.9,413.2-32.3,413.5-33.7,414.2z M-22,403.3
		c-2.7,1.7-5.4,3.5-8.1,5.3c-0.6,0.4-1,0.3-1.5,0c-3.1-1.6-5.8-3.8-8.3-6.3c-0.1-0.1-0.2-0.3-0.4-0.3c0,0,0,0,0,0v0c0,0,0,0,0,0
		c0,0,0,0,0,0c0,0,0,0,0,0c0,0,0-0.1,0-0.1c-0.5-0.6-1-1.2-1.6-1.8c-0.5-0.7-1-1.4-1.5-2.1c-1.4-2-2.4-4.2-2.8-6.7
		c-0.4-2.2-0.2-4.4,1.2-6.3c1.1-1.4,2.5-2.2,4.3-2.3c2.3-0.2,4.3,0.5,6.2,1.6c2.8,1.7,5.1,3.9,7,6.5c2.4,3.1,4.2,6.5,5.3,10.3
		c0.2,0.5,0.2,1.1,0.4,1.6C-21.7,403-21.8,403.1-22,403.3z M4.9,436.3c0,0-0.1-0.1-0.1-0.1C4.9,436.2,4.9,436.2,4.9,436.3z
		 M-20,398.7c0,0.1,0,0.2-0.1,0.2c-0.7-1.2-0.4-2.7-0.7-4c0.7,0,1.4,0.1,2.2,0.2C-19,396.3-19.5,397.5-20,398.7z"/>
	<path class="st1" d="M-91.8,374.9c-0.6,0.4-1.3,0.8-1.9,1.3c-0.7,0.4-0.8,1.1-0.5,1.7c0.3,0.6,0.9,0.8,1.6,0.6
		c0.7-0.2,1.3-0.4,2-0.6c0.2-0.1,0.3-0.1,0.5,0.2c0.6,1,1.4,1.8,2.3,2.5c0.2,0.2,0.2,0.3,0.1,0.5c-0.3,0.6-0.5,1.2-0.8,1.9
		c-0.3,0.7-0.1,1.3,0.5,1.7c0.6,0.4,1.3,0.2,1.7-0.4c0.5-0.6,1-1.2,1.5-1.8c0.1-0.1,0.1-0.3,0.4-0.2c1.4,0.4,2.8,0.4,4.3,0.1
		c0.3-0.1,0.5,0,0.7,0.3c0.4,0.5,0.8,1,1.3,1.6c0.4,0.5,1.2,0.7,1.7,0.4c0.6-0.3,0.8-1,0.5-1.7c-0.2-0.5-0.4-1.1-0.6-1.6
		c-0.1-0.2-0.1-0.3,0.1-0.4c1.1-0.7,1.9-1.6,2.6-2.7c0.1-0.2,0.2-0.2,0.4-0.1c0.6,0.2,1.2,0.4,1.8,0.5c0.7,0.2,1.2-0.1,1.5-0.7
		c0.2-0.6,0.1-1.2-0.5-1.6c-0.6-0.4-1.2-0.8-1.8-1.2c-0.2-0.2-0.1-0.4,0-0.6c0.1-0.8,0.3-1.7,0.1-2.5c-0.3-0.4-0.7-0.7-1.1-0.9
		c0.4,0.1,0.8,0.4,1.1,0.9c0-0.5-0.1-0.9-0.2-1.3c0.2-0.1,0.4-0.2,0.5-0.3c0.5-0.2,0.9-0.5,1.4-0.7c0.7-0.4,1-1,0.7-1.6
		c-0.2-0.6-0.9-1-1.6-0.8c-0.7,0.1-1.3,0.2-2,0.4c-0.2,0.1-0.3,0-0.4-0.2c-0.7-1-1.5-1.9-2.6-2.6c-0.2-0.1-0.2-0.2-0.1-0.4
		c0.2-0.6,0.5-1.1,0.7-1.7c0.3-0.8,0.1-1.4-0.5-1.8c-0.6-0.4-1.3-0.2-1.8,0.5c-0.5,0.6-0.9,1.1-1.4,1.7c-0.1,0.2-0.3,0.2-0.5,0.2
		c-1.4-0.3-2.7-0.3-4.1,0.1c-0.3,0.1-0.4,0-0.6-0.2c-0.5-0.6-1-1.2-1.5-1.8c-0.5-0.6-1.2-0.7-1.7-0.4c-0.6,0.3-0.8,1-0.5,1.7
		c0.3,0.7,0.5,1.3,0.8,2c0.1,0.2,0.1,0.3-0.1,0.4c-0.9,0.7-1.7,1.5-2.3,2.4c-0.1,0.1-0.2,0.2-0.4,0.2c-0.6-0.2-1.2-0.3-1.9-0.4
		c-0.8-0.2-1.5,0.2-1.7,0.8c-0.2,0.7,0.1,1.3,0.8,1.7c0.5,0.3,1,0.6,1.5,0.8c0.1,0.1,0.3,0.1,0.2,0.4c-0.2,1.2-0.3,2.4,0,3.6
		C-91.5,374.8-91.6,374.8-91.8,374.9z M-88.9,371.2c0.1-0.9,0.5-1.5,1-2.2c0.5-0.7,1.1-1.4,1.9-1.9c0.3-0.2,0.6-0.4,0.8-0.7
		c0.1-0.1,0.1-0.2,0.2-0.2c0.6,0.1,1.1-0.2,1.7-0.3c1-0.2,2-0.2,3,0.1c0.3,0.1,0.6,0.2,0.9,0.1c0.1,0,0.2,0,0.2,0.1
		c0.4,0.6,1.1,0.8,1.6,1.2c0.7,0.6,1.3,1.2,1.7,2c0.1,0.2,0.2,0.3,0.3,0.5c0.3-0.3,0.6-0.3,1-0.4c-0.4,0-0.7,0.1-1,0.4
		c0.1,0.3,0.5,0.4,0.3,0.8c-0.1,0.3,0.1,0.6,0.2,0.9c0.1-0.1,0.1-0.2,0.2-0.2c-0.1,0-0.2,0.1-0.2,0.2c0,0.3,0.1,0.5,0.1,0.8
		c0.1,0,0.2,0,0.2,0c-0.1,0-0.2,0-0.2,0c0,0.6,0,1.2-0.1,1.9c-0.1,0.1-0.1,0.2-0.1,0.3c-0.2,0.1-0.1,0.3-0.1,0.5
		c-0.1,0.2-0.1,0.3,0,0.5c0,0,0,0,0,0.1c0,0.3-0.3,0.4-0.4,0.6c-0.1,0.1-0.3,0.2-0.4,0.4c-0.6,1.1-1.4,1.9-2.5,2.6
		c-0.2,0.1-0.4,0.3-0.6,0.5c-0.1,0.1-0.1,0.2-0.2,0.2c-0.9-0.1-1.6,0.3-2.5,0.3c-0.8,0-1.7-0.2-2.5-0.3c-0.7-0.1-1.2-0.4-1.7-0.8
		c-0.9-0.7-1.6-1.5-2.3-2.5c-0.5-0.7-0.7-1.4-0.8-2.2C-89.1,373.2-89,372.2-88.9,371.2z"/>
	<path class="st1" d="M-90.3,329c-0.5,0.3-0.6,0.9-0.5,1.4c0.2,0.7,1,1.1,1.8,0.8c0.8-0.3,1.4-0.3,1.9,0.5c0.2,0.4,0.8,0.6,0.9,1
		c0,0.4-0.3,0.8-0.5,1.2c-0.2,0.6,0,1.3,0.6,1.6c0.6,0.3,1.3,0.2,1.7-0.4c0.2-0.3,0.5-0.6,0.7-0.9c0.2-0.3,0.5-0.3,0.8-0.3
		c0.8,0.1,1.6,0.1,2.4,0c0.2,0,0.3,0,0.5,0.2c0.3,0.4,0.6,0.7,0.9,1.1c0.4,0.5,1.1,0.6,1.6,0.2c0.5-0.3,0.7-0.9,0.5-1.5
		c-0.1-0.3-0.2-0.5-0.3-0.7c-0.1-0.3-0.1-0.5,0.2-0.7c0.3-0.2,0.6-0.4,0.8-0.7c0.5-0.9,1.1-0.9,2-0.6c0.6,0.2,1.2-0.1,1.5-0.7
		c0.3-0.6,0.1-1.2-0.4-1.6c-0.3-0.2-0.6-0.4-0.9-0.6c-0.2-0.1-0.3-0.3-0.2-0.5c0.1-0.7,0.1-1.3,0-2c0-0.2,0-0.4,0.2-0.5
		c0.3-0.2,0.7-0.4,1-0.6c0.5-0.3,0.7-0.9,0.5-1.4c-0.2-0.5-0.7-0.9-1.2-0.9c-0.4,0-0.7,0.1-1,0.2c-0.4,0.1-0.8,0.1-1.1-0.4
		c-0.1-0.2-0.3-0.5-0.5-0.6c-0.9-0.5-0.9-1.1-0.4-2c0.3-0.6,0.1-1.3-0.5-1.6c-0.6-0.3-1.2-0.2-1.7,0.3c-0.3,0.4-0.6,0.8-0.9,1.1
		c-0.1,0.1-0.2,0.2-0.4,0.2c-0.8-0.1-1.7-0.1-2.5,0c-0.3,0.1-0.4-0.1-0.6-0.2c-0.3-0.4-0.6-0.8-1-1.2c-0.4-0.5-1.1-0.5-1.6-0.2
		c-0.5,0.3-0.7,0.9-0.5,1.5c0.1,0.4,0.3,0.8,0.5,1.2c0.1,0.2,0.1,0.3-0.1,0.5c-0.5,0.4-0.9,0.8-1.2,1.3c-0.1,0.2-0.2,0.2-0.4,0.1
		c-0.4-0.1-0.9-0.2-1.3-0.3c-0.3,0-0.5,0.1-0.7,0.2c-0.8,0.4-1,1.8,0.2,2.3c0.8,0.3,1.1,0.7,0.8,1.6c-0.2,0.5,0.3,1.1-0.1,1.5
		C-89.3,328.4-89.9,328.7-90.3,329z M-81.7,322.1c2.7,0,4.8,2.5,4.7,4.6c0.2,2.6-2.2,4.7-4.6,4.7c-2.5,0-4.6-2.2-4.7-4.6
		C-86.4,324.3-84.2,322.2-81.7,322.1z"/>
	<path class="st1" d="M-1,334.6c-0.4,0.2-0.7,0.6-0.6,1.1c0,0.7,0.5,1.2,1.2,1.3c0.3,0,0.7-0.1,1-0.2c0.6-0.2,1.1-0.3,1.5,0.4
		c0.2,0.4,0.9,0.7,1,1.1c0.1,0.4-0.3,0.9-0.5,1.4c-0.2,0.6,0.1,1.2,0.6,1.5c0.6,0.3,1.2,0.2,1.6-0.3c0.2-0.2,0.4-0.5,0.6-0.7
		c0.3-0.5,0.7-0.6,1.3-0.5c0.2,0.1,0.5,0.1,0.8,0c0.5,0,1.1-0.2,1.5,0c0.4,0.2,0.7,0.8,1.1,1.2c0.4,0.5,1.1,0.6,1.6,0.3
		c0.5-0.3,0.9-1,0.6-1.5c-0.5-0.9-0.2-1.4,0.5-2c0.7-0.7,1.2-1.1,2.2-0.7c0.6,0.3,1.2-0.1,1.5-0.7c0.2-0.6,0.1-1.2-0.5-1.6
		c-0.3-0.2-0.6-0.4-0.9-0.6c-0.1-0.1-0.2-0.2-0.2-0.4c0.1-0.4,0.1-0.7,0.1-1.1c0-0.4-0.2-1,0-1.3c0.2-0.3,0.7-0.5,1.1-0.7
		c0.5-0.3,0.8-0.9,0.6-1.5c-0.2-0.6-0.7-0.9-1.3-0.9c-0.3,0-0.6,0.1-0.9,0.2c-0.5,0.2-0.8,0.1-1.1-0.4c-0.1-0.2-0.3-0.4-0.5-0.5
		c-0.8-0.5-1-1.1-0.5-2c0.3-0.6,0.1-1.3-0.5-1.6c-0.6-0.4-1.2-0.3-1.7,0.3c-0.3,0.4-0.6,0.7-0.9,1.1c-0.1,0.2-0.2,0.2-0.5,0.2
		c-0.8-0.1-1.6-0.1-2.5,0.1c-0.2,0.1-0.4,0-0.5-0.2c-0.3-0.4-0.6-0.9-1-1.2c-0.7-0.7-1.8-0.4-2.1,0.5c-0.2,0.5,0.1,0.9,0.3,1.4
		c0.3,0.8,0.3,0.8-0.3,1.4c-0.1,0.1-0.2,0.2-0.3,0.3c-0.4,0.7-0.9,0.9-1.7,0.6c-0.1,0-0.1,0-0.2,0c-0.8-0.2-1.4,0-1.6,0.7
		c-0.3,0.7,0,1.4,0.7,1.7c0.8,0.3,0.9,0.8,1,1.7C0.4,333.5,0,334.1-1,334.6z M7.5,327.9c2.7-0.1,4.7,2.4,4.7,4.7
		c0,2.6-2.2,4.7-4.7,4.7c-2.5,0-4.7-2.2-4.6-4.7C2.8,330.1,4.9,327.8,7.5,327.9z"/>
	<path class="st1" d="M-74.3,432.5c0-0.3,0-0.6,0-0.9c0-0.1,0-0.1-0.1-0.2c0-0.1,0-0.1,0-0.2c0-0.1,0-0.1,0-0.2c0-4,0-7.9,0-11.9
		c0-0.2,0-0.4-0.1-0.5c-0.3-0.7-0.8-1.1-1.5-1c-0.7,0.1-1.1,0.7-1.1,1.4c0,3,0,6,0,9c0,0.9,0,1.9,0,2.8c0,0,0,0.1,0,0.1
		c0,1.6,0,3.2,0,4.9c0.4,0.4,0.8,0.6,1.3,0.7c-0.5-0.1-0.9-0.3-1.3-0.7c0,0.1,0,0.1-0.1,0.2c0.1,0.6,0.4,1.1,1.1,1.2
		c0.6,0.1,1-0.1,1.3-0.6c0.2-0.2,0.2-0.4,0.2-0.6c0-0.1,0-0.2,0-0.3C-74.3,434.7-74.3,433.6-74.3,432.5z"/>
	<path class="st1" d="M18.5,369c0.1-0.4,0-0.8-0.3-1.1c-0.4-0.4-0.8-0.5-1.4-0.4c-0.7,0.1-1.3,0.2-2,0.4c-0.3,0.1-0.4,0-0.5-0.2
		c-0.7-1-1.5-1.9-2.6-2.6c-0.2-0.1-0.3-0.2-0.1-0.5c0.3-0.6,0.5-1.1,0.7-1.7c0.3-0.8,0.1-1.4-0.5-1.8c-0.6-0.4-1.2-0.2-1.8,0.4
		c-0.5,0.6-1,1.2-1.5,1.8c-0.1,0.2-0.2,0.2-0.5,0.2c-1.4-0.3-2.8-0.3-4.2,0.1c-0.2,0.1-0.3,0-0.5-0.1c-0.5-0.6-1-1.2-1.5-1.9
		c-0.5-0.6-1.1-0.8-1.8-0.5c-0.6,0.3-0.8,1-0.5,1.7c0.3,0.7,0.5,1.3,0.8,2c0.1,0.2,0.1,0.4-0.1,0.5c-0.9,0.7-1.6,1.4-2.2,2.4
		c-0.1,0.2-0.2,0.2-0.4,0.2c-0.7-0.2-1.3-0.3-2-0.4c-0.7-0.1-1.3,0.2-1.5,0.8c-0.3,0.7,0,1.3,0.6,1.7c0.5,0.3,1,0.6,1.6,0.9
		c0.3,0.1,0.3,0.3,0.3,0.6c-0.3,1.1-0.2,2.3,0,3.4c0,0.2,0,0.3-0.2,0.4c-0.7,0.4-1.3,0.8-1.9,1.3c-0.7,0.4-0.9,1.1-0.6,1.7
		c0.3,0.6,0.9,0.9,1.7,0.7c0.7-0.2,1.4-0.4,2-0.6c0.2-0.1,0.3-0.1,0.4,0.1c0.6,1,1.4,1.9,2.4,2.6c0.2,0.2,0.2,0.3,0.1,0.5
		c-0.3,0.6-0.5,1.2-0.7,1.9c-0.3,0.7-0.1,1.4,0.5,1.7c0.6,0.3,1.2,0.2,1.7-0.4c0.5-0.6,0.9-1.1,1.4-1.7c0.2-0.2,0.3-0.3,0.6-0.2
		c1.3,0.3,2.7,0.4,4.1,0.1c0.3-0.1,0.5,0,0.7,0.2c0.4,0.6,0.9,1.1,1.3,1.6c0.5,0.6,1.1,0.7,1.7,0.3c0.6-0.3,0.8-1,0.5-1.7
		c-0.2-0.5-0.4-1.1-0.7-1.6c-0.1-0.2-0.1-0.3,0.1-0.4c1.1-0.7,2-1.6,2.7-2.7c0.2-0.2,0.3-0.2,0.5-0.2c0.6,0.2,1.2,0.4,1.9,0.5
		c0.7,0.1,1.2-0.2,1.4-0.8c0.2-0.6,0.1-1.2-0.5-1.6c-0.5-0.4-1-0.7-1.6-1c-0.3-0.2-0.4-0.4-0.3-0.8c0.2-1.1,0.2-2.3,0-3.4
		c-0.1-0.4,0-0.6,0.4-0.7c0.5-0.2,1-0.5,1.5-0.8c0.3-0.1,0.5-0.3,0.6-0.6l0,0l0,0C18.5,369.2,18.6,369.1,18.5,369z M11.8,378.8
		c0,0,0.1-0.1,0.1-0.1C11.9,378.7,11.9,378.7,11.8,378.8z M13.4,375.8c0.1,0.2,0.2,0.4-0.2,0.3c-0.1,0-0.2,0.1-0.2,0.3l0,0
		c-0.1,0-0.2,0-0.2,0.1c-0.2,0.2-0.4,0.5-0.5,0.8c0,0,0,0,0,0c-0.1,0-0.2,0-0.2,0.2c-0.1,0.1-0.2,0.2-0.3,0.3
		c-0.1,0-0.1,0.1-0.1,0.2c-0.3,0.1-0.5,0.3-0.6,0.6c-0.1,0-0.1,0.1-0.2,0.2c-0.1,0-0.2,0-0.2,0.1c-0.7,0.3-1,1.1-1.9,1.2
		c-0.8,0-1.5,0.3-2.3,0.3c-0.8,0-1.5-0.1-2.3-0.3c-0.7-0.1-1.3-0.4-1.8-0.8c-1-0.8-1.7-1.7-2.4-2.6c-0.5-0.6-0.6-1.3-0.7-2
		c-0.2-1.1-0.1-2.3,0.1-3.4c0.1-0.8,0.5-1.3,0.9-1.9c0.6-0.9,1.3-1.6,2.2-2.2c0.6-0.4,1.1-0.7,1.8-0.8c1.3-0.3,2.6-0.3,4-0.1
		c0.7,0.1,1.2,0.3,1.7,0.7c1.2,0.8,2.1,1.7,2.8,2.9c0.9,1.5,0.9,3.1,0.7,4.7C13.3,374.9,13.2,375.4,13.4,375.8z M13.5,376.5
		c0.1,0,0.1,0,0.2-0.1C13.6,376.5,13.6,376.5,13.5,376.5z M18.1,369C18.1,369,18.1,369,18.1,369C18.1,369,18.1,369,18.1,369
		C18.1,369,18.1,369,18.1,369z"/>
	<polygon class="st1" points="-46.9,374.8 -46.9,374.9 -46.9,374.9 	"/>
	<path class="st1" d="M-17.5,406.5c0,0,0,0.1,0.1,0.1c0,0,0.1,0,0.2-0.1C-17.3,406.5-17.3,406.5-17.5,406.5
		C-17.4,406.4-17.5,406.5-17.5,406.5z"/>
	<path class="st1" d="M-43.5,350c-0.1-0.7-0.8-1.2-1.6-1c-1.2,0.2-2.4,0.5-3.5,0.7c-2.4,0.5-4.8,1-7.2,1.5c-0.7,0.2-1.1,0.7-1,1.4
		c0.1,0.6,0.6,1.1,1.3,1.1c0.1,0,0.2,0,0.3,0c3.5-0.7,7.1-1.5,10.6-2.2C-43.9,351.3-43.4,350.6-43.5,350z"/>
	<path class="st1" d="M-33.8,351.5c2.7,0.6,5.3,1.1,8,1.7c1,0.2,1.9,0.4,2.7,0.6c0.9,0,1.3-0.4,1.4-1.2c0.1-0.6-0.3-1.2-1-1.4
		c-3.6-0.8-7.1-1.5-10.7-2.3c-0.7-0.1-1.5,0.4-1.6,1C-35.1,350.7-34.6,351.3-33.8,351.5z"/>
	<path class="st1" d="M-45.1,357c-2.4-0.3-4.7-0.6-7.1-0.9c-0.7-0.1-1.3,0.5-1.3,1.2c-0.1,0.7,0.4,1.3,1.1,1.4
		c0.4,0.1,0.8,0.1,1.2,0.1c0.2,0,0.3,0,0.2,0.3c-0.3,0.5-0.1,1,0.2,1.4c0.4,0.4,0.9,0.5,1.4,0.3c1.5-0.5,2.9-0.9,4.4-1.4
		c0.6-0.2,1-0.7,1-1.3C-44.1,357.6-44.5,357.1-45.1,357z"/>
	<path class="st1" d="M-26.7,356.2c-0.4,0.1-0.7,0.1-1.1,0.1c-1.9,0.2-3.8,0.4-5.7,0.7c-0.8,0.1-1.1,0.5-1.2,1.2
		c0,0.7,0.3,1.1,1,1.3c0.8,0.2,1.5,0.5,2.3,0.7c0.8,0.2,1.6,0.4,2.3,0.6c1,0,1.7-0.8,1.4-1.6c-0.1-0.4,0-0.4,0.3-0.4
		c0.4,0,0.7-0.1,1-0.1c0.7-0.1,1.2-0.8,1.2-1.4C-25.2,356.6-25.9,356.1-26.7,356.2z"/>
	<path class="st1" d="M-42.4,370.4c0,0,0.1,0.1,0.1,0.1c1.6,1.3,4.4,1.1,5.8-0.4c0.5-0.5,0.5-1.3,0-1.8c-0.4-0.5-1.2-0.6-1.8-0.1
		c-0.4,0.3-0.8,0.5-1.3,0.6c0,0,0.1,0,0.1,0.1c0,0-0.1,0-0.1-0.1c-0.1,0-0.2,0-0.2,0c-0.2-0.1-0.5-0.1-0.7-0.2
		c-0.1,0-0.2-0.1-0.2-0.1c-0.4-0.4-0.8-0.7-1.4-0.6c0,0,0,0,0,0c-0.3,0-0.6,0.1-0.8,0.4c-0.1,0-0.1,0.1-0.1,0.1c0,0,0,0,0,0
		C-43.3,369.2-43.1,369.9-42.4,370.4z M-42.3,368.3c0.1,0,0.2,0,0.4,0c0,0,0,0,0-0.1c0,0,0,0,0,0.1c0.1,0.1,0.1,0.2,0.2,0.3
		c-0.1-0.1-0.1-0.2-0.2-0.3C-42,368.2-42.1,368.3-42.3,368.3C-42.3,368.3-42.3,368.3-42.3,368.3C-42.3,368.2-42.3,368.2-42.3,368.3
		C-42.3,368.2-42.3,368.2-42.3,368.3z"/>
</g>
<g>
	<path class="st1" d="M-350.2,203.3c-4.8-0.2-8.7-1.6-11.8-4.8c-0.8-0.8-1.6-1.6-2.2-2.4c-5.2-6.7-12.2-6.5-17.9-4.1
		c-3.2,1.3-6.1,3.5-8.9,5.4c-3.4,2.3-6.9,4.5-11,5.4c-7.7,1.6-14.3,0.1-19.6-6.2c-5.8-6.8-13.1-8-20.9-3.5c-2.3,1.3-4.5,2.9-6.7,4.5
		c-5,3.6-10.4,6-16.7,5.8c-4.7-0.2-8.8-1.7-12-5.2c-0.6-0.7-1.3-1.3-1.9-2c-5.1-6.8-12.5-6.5-18.1-4.1c-3.1,1.3-6,3.4-8.8,5.4
		c-4.1,2.8-8.3,5.3-13.4,5.9c-4.2,0.5-5.9,0.2-4.6-5c12.5-51,24.9-101.9,37.4-152.9c0.9-3.8,1.9-7.6,2.8-11.5c0.3-1.3,1-2,2.4-2
		c4.7-0.1,8.8-1.9,12.6-4.6c2.9-2,5.7-4,8.8-5.7c4.5-2.5,9.4-3,14.5-2.1c2.9,0.5,5.4,1.7,7.5,3.7c1.1,1,2.2,2.1,3.2,3.3
		c4.5,5.7,10.3,6.6,16.7,4.5c2.7-0.9,5.2-2.6,7.8-4.1c2.8-1.7,5.4-3.7,8.2-5.2c4.6-2.5,9.6-3.2,14.7-2c2.5,0.6,4.9,2.1,7.2,3.5
		c1.3,0.8,2.3,2.1,3.2,3.3c5.1,6.6,12.2,6.5,17.9,4.2c3-1.2,5.8-3.2,8.5-5.1c4.3-3,8.7-5.6,14-6.2c6.5-0.7,12.1,0.8,16.4,5.9
		c0.7,0.8,1.4,1.5,2.1,2.3c2.4,2.8,5.4,4.2,9,4.4c3.1,0.2,3.6,1,2.9,4c-4.1,16.8-8.2,33.7-12.3,50.5c-9.3,38.2-18.7,76.4-28,114.6
		C-347.7,202.9-348.3,203.3-350.2,203.3z M-430.4,186.2c3.6,0.5,6.5,1.8,9,4.1c1.4,1.3,2.7,2.7,3.9,4.2c2.9,3.4,6.7,4.7,11,4.4
		c3.1-0.2,6.1-0.9,8.7-2.6c2.5-1.6,4.9-3.3,7.3-5c3.6-2.5,7.5-4.5,12-5c1.2-0.1,1.6-0.8,1.8-1.9c3.8-15.6,7.6-31.3,11.4-46.9
		c1.1-4.4,2.2-8.7,3.2-13.1c0.4-1.5,1.3-2.3,2.8-1.9c1.5,0.4,1.7,1.6,1.5,2.9c0,0.2-0.1,0.4-0.2,0.5c-3.9,16.1-7.8,32.1-11.8,48.2
		c-1,3.9-1.9,7.9-2.9,12.1c6.2,0.4,9.8,4.6,13.5,8.8c0.4,0.5,0.9,1,1.5,1.3c1.3,0.7,2.7,1.4,4.1,2c1.5,0.6,2.3,0.2,2.8-1.6
		c12.9-53.1,25.9-106.1,38.9-159.2c0.1-0.5,0.1-1,0.2-1.7c-5.2-0.5-8.8-3.5-11.9-7.2c-0.2-0.2-0.4-0.5-0.6-0.7
		c-3.2-3.9-7.5-5.1-12.4-4.6c-4.3,0.5-7.9,2.5-11.4,4.9c-2.7,1.9-5.4,3.9-8.4,5.4c-9.2,4.7-18.1,2.8-24.9-4.8
		c-0.3-0.4-0.7-0.7-1-1.1c-3.2-3.8-7.4-4.8-12.1-4.4c-3.8,0.4-7.1,1.9-10.2,4c-2.9,2-5.7,4.1-8.7,5.8c-9.5,5.2-18.7,3.5-25.9-4.5
		c-0.3-0.4-0.7-0.7-1-1.1c-3.1-3.7-7.2-4.7-11.8-4.3c-3.7,0.3-6.9,1.7-9.9,3.7c-1.9,1.3-3.7,2.6-5.6,3.9c-3.6,2.5-7.4,4.4-11.8,4.8
		c-1.3,0.1-1.5,0.9-1.8,1.9c-3.1,12.8-6.2,25.6-9.3,38.3c-9.8,40.3-19.7,80.6-29.5,120.9c-0.1,0.5-0.1,1-0.3,2
		c2.5-1,4.6-1.6,6.5-2.7c2.5-1.4,4.8-3.2,7.2-4.8c3.7-2.6,7.7-4.7,12.3-5.1c1.3-0.1,1.5-0.9,1.8-1.9c3.9-15.8,7.7-31.6,11.6-47.5
		c1-4.2,2-8.4,3.1-12.5c0.3-1.4,1.2-2.2,2.7-1.9c1.5,0.3,1.9,1.4,1.6,2.8c-0.1,0.3-0.1,0.6-0.2,0.9c-3.9,15.9-7.8,31.8-11.7,47.6
		c-1,4-1.9,8.1-3,12.3c3.5,0.5,6.5,1.7,8.9,4c1.4,1.3,2.7,2.7,3.9,4.2c3.1,3.6,7.1,4.8,11.8,4.4c3.5-0.3,6.6-1.5,9.5-3.4
		c1.8-1.2,3.6-2.5,5.4-3.8c3.8-2.7,7.8-4.9,12.6-5.3c1.2-0.1,1.4-0.8,1.7-1.8c3.6-15,7.3-30,11-45c1.2-5,2.5-10,3.7-15
		c0.4-1.5,1.2-2.3,2.8-2c1.5,0.3,1.8,1.5,1.5,2.9c-0.1,0.3-0.1,0.6-0.2,0.9c-3.3,13.4-6.5,26.7-9.8,40.1
		C-427.2,172.9-428.8,179.4-430.4,186.2z"/>
	<path class="st1" d="M-373,69.4c-0.8,3.3-1.4,6-2.1,8.8c-8.2,33.7-16.4,67.3-24.7,101c-0.1,0.4-0.2,0.7-0.3,1.1
		c-0.3,1.5-1.3,2.1-2.7,1.8c-1.5-0.4-1.9-1.5-1.5-2.9c0.9-3.9,1.9-7.9,2.9-11.8c7.9-32.2,15.7-64.3,23.6-96.5
		c0.1-0.6,0.1-1.4,0.5-1.7c0.7-0.6,1.6-1.4,2.3-1.3C-374.2,67.9-373.5,68.9-373,69.4z"/>
	<path class="st1" d="M-460.1,182c-1.6,0-2.4-1.2-2-3c1.7-7,3.4-14,5.1-21c7.1-29.1,14.2-58.1,21.3-87.2c0.6-2.6,1.5-3.5,3-3.2
		c1.6,0.3,2,1.6,1.3,4.3c-8.7,35.9-17.5,71.7-26.3,107.6C-458,180.8-458.4,182-460.1,182z"/>
	<path class="st1" d="M-461.5,69.7c-2.1,0-3.7-1.5-3.7-3.5c0-2.4,2.1-4.5,4.5-4.5c2.1,0,3.7,1.5,3.7,3.6
		C-457,67.6-459.1,69.7-461.5,69.7z"/>
	<path class="st1" d="M-403.7,69.7c-2.1,0-3.6-1.5-3.7-3.6c0-2.3,2.1-4.5,4.5-4.5c2.1,0,3.6,1.5,3.6,3.6
		C-399.2,67.7-401.2,69.7-403.7,69.7z"/>
	<path class="st1" d="M-345.9,69.7c-2.1,0-3.6-1.5-3.6-3.6c0-2.4,2.1-4.4,4.5-4.4c2.1,0,3.6,1.5,3.6,3.6
		C-341.4,67.7-343.4,69.7-345.9,69.7z"/>
</g>
<g>
	<path class="st1" d="M494.5,461.9c3.5-3.6,6.9-7.2,10.5-10.7c1.3-1.3,2.9-1,4.4,0.5c4,4,8.1,8.1,12.1,12.1
		c6.8,6.8,13.6,13.6,20.3,20.3c0.4,0.4,0.6,0.8,1,1.3c0.7-0.6,1.1-1,1.5-1.4c8.2-8.2,16.4-16.3,24.5-24.5c6.3-6.4,13.6-8.6,22.3-6.9
		c12.8,2.4,25.7,4.5,38.5,6.7c0.7,0.1,1.4,0.1,2.2,0.1c6,0,11.9,0,17.9,0c2.9,0,4,1.1,4,3.9c0,14.2,0,28.4,0,42.6
		c0,2.8-1,3.9-3.8,3.9c-3.6,0-7.2,0.1-10.7,0c-7.8-0.3-15.5,0.8-23.2,1.7c-1.4,0.2-2.9,0.4-4.3,0.5c-3.8,0.3-7.3,1.4-10.5,3.4
		c-4.8,3-9.8,5.9-14.6,8.9c-4.1,2.6-8.3,3.2-12.8,0.9c-0.3-0.2-1.1,0-1.4,0.3c-1.9,1.8-3.7,3.7-5.5,5.5c-1.9,1.9-3.5,1.8-5.4,0
		c-4.4-4.4-8.9-8.9-13.3-13.3c-0.4-0.4-0.7-0.9-1.2-1.8c-1.6,1.8-2.8,3.3-4.2,4.6c-7,6.5-18.2,3.1-20.3-6.2c-0.9-4.1,0-7.9,2.9-11.1
		c1.3-1.4,2.8-2.6,4.5-4.2c-0.8-0.6-1.3-0.9-1.8-1.3c-10.5-10.5-21-21-31.5-31.6c-0.7-0.7-1.3-1.6-2-2.4
		C494.5,463.1,494.5,462.5,494.5,461.9z M627.2,484.6c0-6,0-11.9,0-17.9c0-1.1-0.3-1.6-1.5-1.8c-11.8-2-23.7-3.9-35.5-6.2
		c-7-1.3-12.6,0.5-17.5,5.6c-11.4,11.7-23,23.1-34.6,34.7c-2.7,2.7-5.5,5.4-8.1,8.2c-3.3,3.5-1.8,9,2.7,10.2
		c2.5,0.6,4.5-0.1,6.3-1.9c10.2-10.2,20.3-20.4,30.6-30.6c4.8-4.7,12.2-4.8,16.7-0.2c4.6,4.6,4.5,11.8-0.2,16.6
		c-1.4,1.4-2.8,2.8-4.2,4.2c-2.1,2.1-4.2,4.1-6.1,6.2c-2.7,2.8-1.7,7.1,1.8,8.4c1.7,0.6,3.3,0.3,4.9-0.7c5.2-3.2,10.4-6.4,15.6-9.6
		c3.2-2,6.6-3.3,10.3-3.8c5.7-0.7,11.4-1.3,17.1-1.9c1.3-0.1,1.7-0.6,1.7-1.9C627.2,496.4,627.2,490.5,627.2,484.6z M633.6,465.8
		c0,12.7,0,25.2,0,37.8c4.7,0,9.3,0,13.9,0c0-12.7,0-25.2,0-37.8C642.7,465.8,638.2,465.8,633.6,465.8z M568.8,510.7
		c1.3-1.5,2.5-3.1,3.9-4.5c2.9-3,6-6,9-9c2.4-2.4,2.5-5.8,0.3-8c-2.2-2.2-5.6-2.1-8,0.3c-3.6,3.5-7.1,7.1-10.7,10.6
		c-0.9,0.9-1.9,1.6-2.7,2.4C563.5,505.4,566.2,508.1,568.8,510.7z M538.3,489.9c-7.6-7.6-15.2-15.2-22.7-22.7c-1.4,1.4-3,3-4.4,4.3
		c7.6,7.6,15.2,15.2,22.7,22.7C535.4,492.8,537,491.3,538.3,489.9z M556.2,507.5c-1.5,1.5-3.1,3-4.5,4.4c4.2,4.2,8.4,8.4,12.5,12.5
		c1.5-1.4,3.1-2.9,4.6-4.3C564.6,515.9,560.4,511.7,556.2,507.5z M507.1,458.3c-1.6,1.6-3.2,3.2-4.7,4.7c1.2,1.3,2.6,2.7,3.7,3.9
		c1.7-1.5,3.3-3.1,4.8-4.5C509.7,461,508.3,459.6,507.1,458.3z"/>
	<path class="st1" d="M529.7,378.9c3.9,0,7.8,0,11.7,0c1.3,0,2.6,0.4,3,1.7c0.3,0.9,0.2,2.1-0.1,3.1c-0.5,1.2-1.7,1.5-3,1.5
		c-7.3,0-14.5,0-21.8,0c-0.5,0-1,0-1.6,0c-2.7,0.2-4.6,2.3-4.5,4.8c0.1,2.5,2,4.4,4.6,4.5c1.5,0.1,3,0,4.5,0.3
		c6.5,1.4,10.9,7.4,10.3,13.8c-0.6,6.9-5.9,11.9-12.8,12.2c-5.9,0.2-10.6,3.7-11.7,9.1c-0.5,2.4-0.3,4.8-0.4,7.3c-0.1,1.5,0,3,0,4.5
		c-0.1,1.7-1.3,3-3,3c-1.5,0.1-3.1-1-3.1-2.6c0-4.4-0.3-9,0.5-13.3c1.6-8.3,8.7-13.9,17.2-14.1c4.2-0.1,7.3-3.1,7.2-7
		c0-3.9-3-6.8-7.2-6.8c-3.5,0-6.6-0.7-9.1-3.2c-3.2-3.3-4.2-7.3-2.5-11.6c1.7-4.5,5.3-6.9,10.1-7
		C521.9,378.8,525.8,378.9,529.7,378.9C529.7,378.9,529.7,378.9,529.7,378.9z"/>
	<path class="st1" d="M566,400.9c3.6,1.6,7.1,3.1,10.7,4.7c1.2,0.5,2.2,1.4,2.1,2.8c-0.1,1-0.6,2.1-1.3,2.7
		c-0.9,0.9-2.2,0.6-3.3,0.1c-6.6-3-13.3-5.9-19.9-8.8c-0.5-0.2-0.9-0.4-1.4-0.6c-2.5-0.9-5.1,0.3-6.1,2.6c-0.9,2.3,0,4.8,2.4,6
		c1.3,0.7,2.8,1.3,4,2.1c5.4,3.9,7,11.2,3.9,16.8c-3.4,6.1-10.2,8.5-16.7,5.9c-5.5-2.2-11.2-0.9-14.4,3.6c-1.4,2-2.3,4.3-3.3,6.5
		c-0.7,1.4-1.2,2.8-1.9,4.1c-0.8,1.5-2.4,2.2-3.9,1.6c-1.4-0.6-2.4-2.2-1.8-3.7c1.8-4.1,3.3-8.3,5.8-12c4.8-7,13.6-9.2,21.4-6
		c3.9,1.6,7.9,0.1,9.4-3.5c1.5-3.6,0-7.4-3.8-9.1c-3.2-1.4-5.8-3.3-7-6.6c-1.6-4.3-0.9-8.3,2.4-11.6c3.4-3.4,7.6-4.2,12-2.4
		C558.9,397.7,562.4,399.3,566,400.9C565.9,400.9,565.9,400.9,566,400.9z"/>
	<path class="st1" d="M558.9,382c0,1.7-1.4,3.1-3,3.1c-1.7,0-3.1-1.3-3.2-3c-0.1-1.7,1.4-3.3,3.1-3.2
		C557.4,379,558.9,380.4,558.9,382z"/>
</g>
</svg>
