<?xml version="1.0" encoding="utf-8"?>
<!-- Generator: Adobe Illustrator 24.3.0, SVG Export Plug-In . SVG Version: 6.00 Build 0)  -->
<svg version="1.1" id="Layer_1" xmlns="http://www.w3.org/2000/svg" xmlns:xlink="http://www.w3.org/1999/xlink" x="0px" y="0px"
	 viewBox="0 0 150 150" style="enable-background:new 0 0 150 150;" xml:space="preserve">
<style type="text/css">
	.st0{fill:#075CAA;}
</style>
<g>
	<path class="st0" d="M1.4,102.9c0.6-2.3,1.3-4.5,3-6.4c2.2-2.5,4.9-4,8.2-4.2c4.4-0.2,8.8-0.1,13.2-0.1c1.6,0,2.2,0.7,2.6,2.7
		c0.4,2,2.6,2.9,4,1.5c0.5-0.5,0.8-1.4,0.8-2.2c0.1-1.4,0-2.8,0-4.2c0-1.3,0.6-2.3,1.9-2.7c1.3-0.3,2.3,0.3,3,1.7
		c1.5,3.2,2.9,3.7,6.1,2.3c1.9-0.9,3.6,0.1,3.7,2.2c0,1.8,0,3.5,0,5.3c0,1.9,0.9,3.1,2.4,3.1c1.5,0,2.5-1.1,2.5-3.1
		c0-3.7,0-7.5,0-11.2c0-1.1,0.3-2.2,1.5-2.6c0.7-0.2,1.8-0.2,2.4,0.3c0.6,0.5,0.9,1.5,1.1,2.3c0.6,2.9,2.8,4.7,5.4,4.4
		c2.9-0.4,4.7-2.9,4.3-5.7c-0.4-2.7-3.1-4.4-5.9-3.9c-0.4,0.1-0.8,0.2-1.3,0.3C59,83,58,82.3,57.6,81.1c-0.3-1.2,0.3-2.4,1.5-2.9
		c5.6-2.5,12.8,1.7,13.3,7.8c0.1,0.7,0.1,1.4,0.1,2.1c0,14.9,0,29.9,0,44.8c0,4.3-1.4,8-4.9,10.6c-2.1,1.6-4.4,2.5-7.1,2.5
		c-8.5,0-17,0.2-25.6-0.1c-6.3-0.2-10.8-4.9-11.4-11.1c0-0.2-0.1-0.5-0.1-0.9c-1,0-2.1,0-3.1,0c-2.7,0-5.4,0.1-8-0.2
		c-5.6-0.5-9.6-4.5-10.7-10c0-0.2-0.2-0.4-0.2-0.7C1.4,116.3,1.4,109.6,1.4,102.9z M38,96.4c0,0.1-0.1,0.2-0.2,0.4
		c-1.1,3.1-3.3,4.9-6.6,5.2c-3.1,0.2-5.5-1.3-7-4.1c-0.2-0.4-0.9-0.7-1.3-0.7c-2.9-0.1-5.7,0-8.6,0c-5,0-8,3-8,8.1
		c0,5.1,0,10.2,0,15.4c0,5.5,2.9,8.4,8.4,8.4c3.6,0,7.2,0,10.8,0c1.4,0,2.4,0.5,2.8,2c0.1,0.6,0.1,1.3,0.1,2c0,5.3,2.9,8.3,8.2,8.3
		c7.6,0,15.1,0,22.7,0c5.4,0,8.3-2.9,8.3-8.2c0-11.8,0-23.7,0-35.5c0-0.5-0.1-1-0.1-1.7c-3.3,1.7-6.4,1.6-9.7,0c0,1.3,0,2.4,0,3.5
		c-0.1,4.4-3.2,7.6-7.4,7.6c-4.1,0-7.2-3.2-7.3-7.5c0-0.8,0-1.5,0-2.1C41.3,97,39.7,96.7,38,96.4z"/>
	<path class="st0" d="M82.4,141.2c0.6,0,1.1,0,1.6,0c5.5,0,11,0,16.5,0c0.5,0,1.1,0,1.6,0.1c1.4,0.2,2.2,1.1,2.2,2.4
		c0,1.3-0.8,2.2-2.2,2.4c-0.4,0.1-0.9,0.1-1.3,0.1c-6.6,0-13.2,0-19.8,0c-2.9,0-3.6-0.7-3.6-3.6c0-24.7,0-49.4,0-74.1
		c0-7.6,4.4-13.4,11.4-15.1c1-0.2,2.1-0.3,3.2-0.5c0-8.1,0-16.1,0-24.3c-0.4-0.1-0.9-0.2-1.3-0.4c-2-0.6-3.4-2.2-3.4-4.3
		c-0.1-5.1-0.1-10.2,0-15.4c0-2.7,2.1-4.5,5.1-4.6c3.6-0.1,7.2,0,10.8,0c2.7,0,5.5,0,8.2,0c3.4,0.1,5.3,2,5.3,5.4
		c0,4.3,0,8.5,0,12.8c0,4.1-0.9,5.4-4.8,6.5c0,8.1,0,16.1,0,24.4c1.6,0,3.2-0.1,4.8,0c1.2,0.1,2.2,0.7,2.4,2
		c0.2,1.2-0.3,2.1-1.4,2.6c-0.6,0.2-1.3,0.3-2,0.3c-7.6,0-15.2,0-22.8,0c-4.2,0-7.5,1.7-9.5,5.5c-0.4,0.8-0.8,1.7-0.8,2.6
		c-0.1,3.8,0,7.5,0,11.5c0.5,0,1.1,0,1.7,0c5.5,0,11,0,16.5,0c0.6,0,1.3,0,1.9,0.1c1.2,0.3,1.8,1.1,1.8,2.3c0,1.2-0.6,2-1.7,2.3
		c-0.6,0.2-1.2,0.2-1.8,0.2c-5.6,0-11.1,0-16.7,0c-0.5,0-1,0-1.6,0c0,11.5,0,22.8,0,34.3c0.5,0,1,0,1.5,0c8.9,0,17.8,0,26.7,0
		c0.6,0,1.3,0,1.8,0.2c1.1,0.4,1.7,1.2,1.6,2.4c-0.1,1.2-0.8,1.9-1.9,2.2c-0.5,0.1-1,0.1-1.6,0.1c-8.9,0-17.7,0-26.6,0
		c-0.5,0-1,0-1.6,0C82.4,128.1,82.4,134.5,82.4,141.2z M111.7,8.9c-6.6,0-13,0-19.4,0c0,4.9,0,9.7,0,14.5c6.5,0,13,0,19.4,0
		C111.7,18.6,111.7,13.8,111.7,8.9z M97.2,28.5c0,8.2,0,16.3,0,24.3c3.3,0,6.4,0,9.6,0c0-8.2,0-16.2,0-24.3
		C103.5,28.5,100.4,28.5,97.2,28.5z"/>
	<path class="st0" d="M128.9,146.1c-5.3,0-10.6,0-15.9,0c-1.4,0-2.8,0.1-3.4-1.5c-0.6-1.4,0.2-2.4,1.1-3.5
		c3.4-4.1,6.8-8.1,10.2-12.3c0.4-0.5,0.7-1.3,0.7-1.9c0.1-5.2,0-10.3,0-15.5c0-0.8-0.2-1.3-1-1.7c-7.6-3.8-11.2-10-11.3-18.3
		c-0.1-6.8,0-13.7,0-20.5c0-2.5,0.8-3.3,3.4-3.3c10.8,0,21.6,0,32.5,0c2.5,0,3.4,0.8,3.4,3.4c0,6.9,0.1,13.8,0,20.7
		c-0.1,8.2-3.8,14.4-11.2,18.1c-0.8,0.4-1.1,0.8-1.1,1.7c0,5.1,0,10.2,0.1,15.4c0,0.7,0.3,1.5,0.8,2c3.4,4.2,6.9,8.3,10.4,12.5
		c0.8,0.9,1.5,1.9,0.9,3.2c-0.6,1.4-1.9,1.5-3.1,1.5C139.8,146.1,134.3,146.1,128.9,146.1z M114.4,89.8c-0.8,5.9,2,12,6.7,14.8
		c5.5,3.2,11.8,3,16.5-0.5c4.8-3.6,6.9-9.4,5.9-14.3C133.8,89.8,124.1,89.8,114.4,89.8z M114.3,72.6c0,4.1,0,8.1,0,12.1
		c9.8,0,19.5,0,29.2,0c0-4.1,0-8.1,0-12.1C133.8,72.6,124.1,72.6,114.3,72.6z M126.5,111.7c0,0.6,0,1.1,0,1.6c0,4.7-0.1,9.5,0,14.2
		c0,1.6-0.4,2.9-1.5,4.1c-2.3,2.7-4.6,5.4-6.8,8.1c-0.3,0.4-0.6,0.8-1,1.2c7.9,0,15.6,0,23.5,0c-0.3-0.4-0.5-0.7-0.7-0.9
		c-2.4-2.8-4.7-5.7-7.1-8.5c-1.1-1.3-1.6-2.6-1.5-4.3c0.1-4.7,0-9.4,0-14.1c0-0.5,0-1,0-1.6C129.7,111.7,128.1,111.7,126.5,111.7z"
		/>
	<path class="st0" d="M33.6,75.3c0.9-1.3,1.5-2.6,2.4-3.7c5-6,14.5-4.9,18.1,2.1c0.8,1.5,0.5,2.9-0.8,3.6C52,78,50.7,77.5,49.8,76
		c-1.4-2.5-3.5-3.8-6.4-3.3c-2.8,0.4-4.5,2.2-5.1,5c-0.3,1.5-1.2,2.3-2.7,2.3c-0.2,0-0.4,0-0.6,0c-2.3,0.8-4.1,0.6-5.6-1.6
		c-0.8-1.2-2.4-1.1-3.7-0.6c-1.4,0.6-2.1,1.7-2.2,3.3c0,1.5,0.7,2.6,2,3.3c0.5,0.3,1,0.4,1.5,0.6c1.3,0.6,1.8,2,1.2,3.3
		c-0.5,1.2-1.8,1.8-3.1,1.3c-3.6-1.3-6-3.6-6.4-7.5c-0.4-3.6,1.4-6.8,4.5-8.5c3.2-1.7,6.8-1.2,9.9,1.3C33.1,75,33.3,75.1,33.6,75.3z
		"/>
	<path class="st0" d="M101.2,87.3c1.9,0,3,0.7,3.1,2.2c0.1,1.6-0.9,2.5-3,2.7c-3.2,0.3-5.6,2.3-6.5,5.3c-0.8,2.9,0.2,6.2,2.7,7.9
		c1.2,0.8,2.7,1.2,4.1,1.5c1.8,0.4,2.8,1.2,2.6,2.8c-0.2,1.4-1.3,2.2-3,2.1c-6.5-0.5-11.1-5.1-11.5-11.8c-0.3-5.3,3.1-10.7,9.2-12.3
		C99.7,87.5,100.5,87.4,101.2,87.3z"/>
	<path class="st0" d="M16.2,106.9c0,4.1,0,8.1,0,12.1c2.4,0,4.7,0,7.3,0c0-1.4,0-2.8,0-4.2c0-1.9,0.9-3,2.4-3c1.5,0,2.5,1.1,2.5,3
		c0,2.1,0,4.1,0,6.2c0,2.1-0.9,3-3,3c-3.7,0-7.5,0-11.2,0c-2.1,0-3-1-3-3c0-5.4,0-10.7,0-16.1c0-2.1,0.9-3,3-3c3.7,0,7.5,0,11.2,0
		c1.8,0,3,1,2.9,2.4c0,1.5-1.2,2.4-3,2.4C22.4,106.9,19.3,106.9,16.2,106.9z"/>
	<path class="st0" d="M35.7,119.1c0-3.8,0-7.6,0-11.3c0-0.7,0.1-1.5,0.4-2.1c0.4-1,1.4-1.5,2.4-1.1c0.8,0.3,1.4,1.1,2,1.8
		c0.3,0.4,0.2,1,0.2,1.5c0,7.5,0,14.9,0,22.4c0,0.2,0,0.5,0,0.7c-0.1,1.7-1,2.8-2.5,2.8c-1.4,0-2.4-1.1-2.4-2.8
		C35.7,127.1,35.8,123.1,35.7,119.1C35.8,119.1,35.7,119.1,35.7,119.1z"/>
	<path class="st0" d="M55.4,121.6c0-3.1,0-6.1,0-9.2c0-1.9,0.9-2.9,2.4-3c1.6,0,2.5,1,2.5,3c0,6.2,0,12.3,0,18.5
		c0,2.2-1.7,3.5-3.4,2.7c-1.1-0.5-1.5-1.4-1.5-2.6C55.4,127.9,55.4,124.7,55.4,121.6z"/>
	<path class="st0" d="M50.5,121.6c0,1.5,0,3,0,4.4c-0.1,1.8-1,2.9-2.5,2.9c-1.5,0-2.4-1.1-2.4-3c0-2.9,0-5.8,0-8.7
		c0-1.9,0.9-2.9,2.4-2.9c1.6,0,2.4,1,2.5,3c0,0,0,0.1,0,0.1C50.5,118.8,50.5,120.2,50.5,121.6z"/>
</g>
</svg>
