<?xml version="1.0" encoding="utf-8"?>
<!-- Generator: Adobe Illustrator 24.3.0, SVG Export Plug-In . SVG Version: 6.00 Build 0)  -->
<svg version="1.1" id="Layer_1" xmlns="http://www.w3.org/2000/svg" xmlns:xlink="http://www.w3.org/1999/xlink" x="0px" y="0px"
	 viewBox="0 0 150 150" style="enable-background:new 0 0 150 150;" xml:space="preserve">
<style type="text/css">
	.st0{fill:#CDEEFD;}
	.st1{fill:#111224;}
	.st2{fill:#005BAB;}
</style>
<path class="st0" d="M1465.3,1556.3c-2.4-0.2-4.3-1.3-4.4-4.1c-0.1-6.7,1.6-10,4.9-9.9c0.2,0,0.3,0,0.5,0c2.2,0.5,4.3,2.1,3.2,4
	C1467.7,1549.5,1473.1,1555.7,1465.3,1556.3z M1465.5,1554.4c1.3-0.1,2.3-0.6,2.3-2.1c-0.1-1.7-1.5-2.1-2.8-2.4c-1.6-0.4-2,0.8-2,2
	C1463,1553.5,1464,1554.2,1465.5,1554.4z M1467.8,1546.5c0-1.4-0.6-2.2-2.1-2.2c-0.9,0-1.6,0.4-1.7,1.4c-0.2,1.4,0.9,2.1,2,2.5
	C1467.3,1548.5,1467.6,1547.5,1467.8,1546.5z"/>
<path class="st0" d="M1455.8,1556.6c-0.5-2.9-1.8-4.2-4.6-3.6c-0.7,0.2-1.7,0.3-2.1-0.8c-0.4-1.1,0.1-1.5,1.2-2.1
	c2.1-1.2,2.1-3.9,3.2-5.8c0.6-1,1-2.2,2.5-1.9c1.4,0.3,0.9,1.6,0.8,2.5C1456.4,1548.6,1458.4,1552.5,1455.8,1556.6z"/>
<path class="st1" d="M1465.5,1554.4c-1.5-0.1-2.6-0.8-2.5-2.4c0-1.2,0.4-2.4,2-2c1.2,0.3,2.7,0.7,2.8,2.4
	C1467.8,1553.7,1466.8,1554.2,1465.5,1554.4z"/>
<path class="st1" d="M1467.8,1546.5c-0.2,1-0.5,2.1-1.8,1.7c-1.1-0.4-2.1-1-2-2.5c0.1-1,0.8-1.4,1.7-1.4
	C1467.2,1544.3,1467.8,1545,1467.8,1546.5z"/>
<g>
	<path class="st2" d="M71.2,133.4c-0.1,1.5-0.6,2.2-1.5,2.6c-1,0.4-1.9,0.3-2.7-0.4c-0.6-0.6-1.3-1.2-1.9-1.8
		c-2.8-2.8-5.6-5.6-8.4-8.4c-0.8-0.8-1-2-0.6-3c0.4-0.9,1.4-1.5,2.5-1.4c0.6,0.1,1.2,0.4,1.7,0.8c3.4,3.3,6.8,6.7,10.1,10.1
		C70.9,132.4,71.1,133.1,71.2,133.4z"/>
	<path class="st2" d="M56.4,139.8c-0.9,0-1.7-0.4-2.1-1.2c-1.4-2.5-2.9-5-4.2-7.5c-0.7-1.3-0.2-2.7,1-3.4c1.2-0.7,2.7-0.3,3.4,1
		c1.4,2.5,2.8,4.9,4.2,7.4C59.6,137.8,58.4,139.8,56.4,139.8z"/>
	<g>
		<path class="st2" d="M146,57.7c0,11.6-0.6,20.1-2.8,28.4c-0.7,2.7-1.7,5.4-2.8,8.1c-2.6,6.4-7.4,10.1-14.2,11.5
			c-8.5,1.7-17.1,3.2-25.8,4c-8.7,0.9-17.4,1.2-26.1,0.2c-3.5-0.4-7-1.1-10.4-2c-6.6-1.7-12.8,0.9-16,6.9c-0.6,1-1.1,2.1-1.9,3
			c-1.2,1.4-2.5,2.6-3.9,3.8c-0.4,0.4-0.6,0.7-0.6,1.3c0.5,4.1,0.4,8.2-0.3,12.3c-0.8,4.4-2.2,8.6-4.9,12.2c-0.3,0.5-0.7,1-1.2,1.4
			c-1,1-2.5,1-3.5,0.1c-1-0.9-1.1-2.4-0.2-3.5c3.2-3.7,4.4-8.1,5.1-12.9c0.5-3.9,0.3-7.7-0.2-11.5c-0.2-1.3,0.3-2.4,1.4-2.8
			c2.1-0.8,3.5-2.4,4.7-4.2c0.3-0.6,0.7-1.1,1-1.7c3.8-7.7,12.7-11.9,21.6-9.4c5.8,1.6,11.7,2.3,17.8,2.5c9.3,0.2,18.6-0.6,27.8-2.1
			c5.2-0.8,10.4-1.8,15.5-2.8c4.3-0.8,7.3-3.3,9.2-7.2c2.1-4.3,3.3-8.9,4.2-13.5c1.6-9,1.7-18.1,1.2-27.2c-1-16.2-4-32.1-7.7-47.8
			c-0.1-0.2-0.1-0.5-0.2-0.7c-0.3-1.5,0.5-2.8,1.8-3.1c1.4-0.3,2.7,0.4,3.1,1.9c0.7,2.7,1.3,5.4,1.9,8.1c2.2,10.1,4.1,20.3,5.2,30.7
			C145.4,47.8,145.7,54.3,146,57.7z"/>
		<path class="st2" d="M94.7,57.4c-0.1-1.3-0.2-2.4-0.3-3.5c-0.8-11.5,2-22.1,8.2-31.9c2.5-3.9,4.7-8,6-12.6c0.6-2,0.9-4,0.8-6.2
			c-0.1-1.4,0.8-2.6,2.2-2.7c1.4-0.1,2.6,0.8,2.8,2.2c0.3,2.7-0.1,5.3-0.8,7.9c-1.4,5-3.8,9.6-6.5,13.9c-4.2,6.5-6.7,13.6-7.4,21.3
			c-0.6,7.2,0.3,14.2,2.9,20.9c0.6,1.5,0.2,2.8-1,3.5c-1.3,0.7-2.6,0.2-3.5-1.2c-3.7-5.7-8.3-10.4-14.5-13.5
			c-6.2-3.1-12.8-4-19.6-3.5c-5.2,0.4-10.2,1.6-15,3.7c-1.2,0.5-2.3,0.1-3.2-1c-3.9-5.2-8.6-9.5-14.4-12.5c-7.6-4.1-15.6-6-24.2-5.4
			c-2.3,0.1-3.5-1.9-2.8-3.5c0.5-1.1,1.4-1.5,2.5-1.5c2.3,0,4.6-0.1,6.9,0c9.6,0.8,18.2,4,25.9,9.7c3.2,2.4,6,5.2,8.5,8.3
			c0.4,0.5,0.7,0.6,1.3,0.4c6.5-2.2,13.2-3.3,20.1-3c9.2,0.4,17.4,3.4,24.5,9.5C94.2,57,94.4,57.1,94.7,57.4z"/>
		<path class="st2" d="M72.7,124.2c-0.2-0.1-0.6-0.1-1-0.3c-2.7-1.4-5.5-2.7-8.2-4.2c-1.3-0.7-1.7-2.2-1.1-3.4
			c0.6-1.2,2.1-1.7,3.4-1c2.7,1.4,5.5,2.7,8.2,4.2c1.1,0.6,1.6,1.7,1.3,2.8C75.1,123.4,74.1,124.2,72.7,124.2z"/>
		<path class="st2" d="M38.2,86c0.1-0.9,0.1-1.7,0.1-2.6c0.1-1.4,1.2-2.4,2.5-2.4c1.4,0,2.5,1.1,2.5,2.5c0,1.8-0.1,3.6-0.3,5.4
			c-0.1,1.3-1.4,2.2-2.7,2.1c-1.3-0.1-2.3-1.2-2.3-2.6C38.1,87.6,38.2,86.8,38.2,86C38.2,86,38.2,86,38.2,86z"/>
		<path class="st2" d="M38.2,97.8c0-0.8,0-1.7,0-2.5c0.1-1.5,1.2-2.5,2.6-2.5c1.5,0.1,2.5,1.1,2.4,2.6c0,1.6-0.1,3.3-0.2,4.9
			c-0.1,1.5-1.3,2.5-2.7,2.4c-1.4-0.1-2.4-1.2-2.4-2.6c0-0.8,0-1.5,0-2.3C38.1,97.8,38.2,97.8,38.2,97.8z"/>
		<path class="st2" d="M19.8,104.9c0-0.8,0.1-1.7,0.1-2.5c0.1-1.4,1.2-2.4,2.5-2.4c1.4,0,2.5,1.1,2.5,2.5c0,1.7-0.1,3.4-0.2,5.1
			c-0.1,1.5-1.3,2.4-2.8,2.3c-1.3-0.1-2.3-1.2-2.3-2.6C19.7,106.4,19.7,105.6,19.8,104.9C19.8,104.9,19.8,104.9,19.8,104.9z"/>
		<path class="st2" d="M33.6,109.5c-0.7-0.2-1.7-0.5-2.8-0.8c-0.6-0.2-1.3-0.3-1.9-0.5c-1.4-0.4-2.1-1.7-1.8-3
			c0.3-1.4,1.6-2.2,3-1.9c1.6,0.4,3.2,0.8,4.7,1.3c1.2,0.4,1.8,1.6,1.5,2.8C36.1,108.7,35.1,109.5,33.6,109.5z"/>
		<path class="st2" d="M33.1,99.3c-0.8-0.2-2-0.5-3.1-0.8c-0.5-0.1-1-0.3-1.6-0.4c-1.4-0.4-2.1-1.7-1.8-3c0.3-1.4,1.6-2.2,3-1.9
			c1.6,0.3,3.1,0.8,4.7,1.3c1.2,0.4,1.8,1.6,1.6,2.9C35.7,98.5,34.6,99.4,33.1,99.3z"/>
		<path class="st2" d="M45.4,86.8c0.1-1.6,1.5-2.7,3.1-2.3c1.5,0.3,3,0.8,4.4,1.2c1.4,0.4,2.1,1.8,1.7,3.1c-0.4,1.3-1.7,2.1-3.1,1.7
			c-1.5-0.4-2.9-0.8-4.3-1.2C46.1,88.9,45.4,88,45.4,86.8z"/>
	</g>
</g>
</svg>
