<?xml version="1.0" encoding="utf-8"?>
<!-- Generator: Adobe Illustrator 24.3.0, SVG Export Plug-In . SVG Version: 6.00 Build 0)  -->
<svg version="1.1" id="Layer_1" xmlns="http://www.w3.org/2000/svg" xmlns:xlink="http://www.w3.org/1999/xlink" x="0px" y="0px"
	 viewBox="0 0 150 150" style="enable-background:new 0 0 150 150;" xml:space="preserve">
<style type="text/css">
	.st0{fill:#005BAB;}
</style>
<g>
	<path d="M497.3,446.7c0,7.3,0,14.7,0,22c0,1.5,0.4,2.9,0.5,4.4c0.1,1.3,0.2,2.7,0.3,4c-1.2,0-2.5,0.1-3.7,0.1c-0.3,0-0.6-0.1-1-0.2
		c-8.3-2.2-15.2-1.8-20.8,6.4c-5.1,7.5-11.8,14-17.8,20.9c-7,8-15.8,7.7-22.5-0.5c-6.6-8.1-13.4-16.2-19.8-24.5
		c-2.1-2.7-4.3-4.1-7.6-3.4c-4.5,0.9-9,2-13.6,2.8c-1.3,0.2-2.7-0.2-4.1-0.3c0.4-1.3,0.8-2.5,1.1-3.8c0.4-1.7,1.2-3.4,1.2-5.1
		c0.1-14-0.4-28,0.2-42c0.9-21.7,9.4-40.1,26-54.2c18.4-15.5,40.9-14.5,58.2,2.3c15.3,14.9,23.2,33,23.3,54.5
		C497.3,435.7,497.3,441.2,497.3,446.7z M449.8,393.9c-10,11.5-20.9,20.9-34,27.5c-0.9,0.4-1.5,2.4-1.4,3.5
		c0.4,4.4,1.3,8.8,1.7,13.2c0.7,8,4.3,12.3,12.1,14.4c2.2,0.6,4.4,1.5,6.3,2.7c7.3,4.7,13.5,4.6,20.8-0.4c1.9-1.3,3.9-2.6,6.1-3
		c10.6-2.2,14.4-6.8,14.7-17.5c0.1-5.8,0.6-11.5,0.7-17.2c0-1.2-0.7-3.2-1.5-3.5C464.7,410,456.9,403,449.8,393.9z M472.2,476.5
		c-9.6-2.1-10-2.7-9.9-12.4c0-2.3,0-4.7,0-8.7c-11.7,10.4-22.5,10.4-33.4,2.1c-2.8,7.5,2,18.9-11.6,18.6c0.1,0.7,0,1.1,0.2,1.3
		c5.1,6.4,10.1,12.8,15.3,19.1c9.6,11.7,12.3,11.7,22.2,0.3C460.7,490.1,466.3,483.4,472.2,476.5z M394.6,470.9c8.4,0,15.8,0,23.3,0
		c1.1,0,2.5-0.2,3.2-0.8c3-2.5,2.2-13.4-1.2-15.6c-4.2-2.8-7.2-6.5-8.1-11.5c-1.6-8.9-3.3-17.9-4.5-26.9c-0.6-4.2-0.6-8.7,0-12.9
		c0.9-6,2.6-11.8,4.1-18.6c-8.9,10.9-14.8,22.6-16.1,35.9c-0.9,9.6-0.7,19.3-0.8,28.9C394.5,456.7,394.6,464,394.6,470.9z
		 M492,470.9c0.2-0.6,0.5-1.3,0.5-1.9c0-15,0.4-29.9-0.2-44.9c-0.5-12.1-4.8-23.2-12.3-32.9c-0.1,1.7,0.5,3.3,0.6,4.8
		c0.3,7.7,0.7,15.5,0.8,23.2c0.1,4.1-0.7,8.2-0.5,12.3c0.3,9.7-1.4,18.2-11.2,23.1c-2.6,1.3-3.6,13.8-1.4,15.5
		c0.6,0.5,1.5,0.7,2.3,0.7C477.6,470.9,484.7,470.9,492,470.9z M412.6,401c2.3-1.3,4.1-1.9,5.4-3c5.1-3.9,10.1-8.2,15.3-12
		c1.9-1.4,4.3-1.8,6.5-2.7c-1.1,2.1-1.7,4.9-3.5,6.3c-6.1,5.1-12.4,10-19.1,14.4c-6.5,4.2-7.2,5-4.4,13.1
		c20.4-9.9,34.5-25.9,45.9-44.8C443.2,360.6,417.8,370.3,412.6,401z M477.3,408.9c-0.5-13.5-4.5-24.6-14.1-33.9
		c-1.7,2.6-3.1,4.7-4.4,6.8c-6.3,9.3-6.3,9.4,2.1,17.2C465.4,403.3,470.4,407,477.3,408.9z"/>
	<path d="M368.8,492.5c-6.9,8-6.9,8-14.4,0.7c-10.7-10.3-21.3-20.6-32.1-30.7c-2.7-2.6-2.8-4.4-0.1-6.9c5.5-5.1,10.8-10.4,16-15.8
		c3.1-3.2,5-2.8,7.3,0.8c5.7,8.8,11.6,17.4,17.9,26.8c1.8-2.4,3.2-4.3,4.6-6.2c2.9-4,4.5-4,6.5,0.5c5.7,12.9,11.2,26,16.8,39
		c1.6,3.8,3.4,7.6,4.9,11.5c0.4,1.2,0,2.7-0.1,4.1c-1.4-0.4-3.3-0.3-4.2-1.2c-7.1-6.8-14-13.8-21-20.7
		C370.3,493.7,369.7,493.2,368.8,492.5z M326.4,459.5c11.5,11,23.2,22.2,34.9,33.4c0.9-0.8,1.4-1,1.6-1.4c5.2-8.4,6.4-5.8,11.2-0.9
		c3.6,3.7,7.3,7.2,11,10.7c0.3-0.3,0.6-0.5,0.9-0.8c-4.9-11.3-9.8-22.6-15.3-35.4c-0.9,1.7-1.1,2.4-1.5,2.9c-5.9,7.9-6,7.9-11.4-0.4
		c-0.1-0.1-0.2-0.3-0.3-0.4c-5.3-7.8-10.5-15.6-16-23.6C336.4,449.1,331.7,454,326.4,459.5z"/>
	<path d="M517.7,491.6c-7.5,7.8-14.5,15.2-21.7,22.4c-1.2,1.2-3.3,1.7-4.9,2.5c0-1.9-0.6-4.1,0.1-5.8c6.7-16,13.6-31.9,20.5-47.7
		c0.8-1.7,2.2-3.1,3.4-4.7c1.5,1.4,3.1,2.7,4.5,4.1c1.2,1.3,2.2,2.8,3.7,4.9c5.8-8.5,11.3-16.6,16.6-24.8c4.4-6.7,4.5-6.8,10.1-1.3
		c4.9,4.8,9.6,9.7,14.6,14.3c2.8,2.6,2.6,4.3-0.1,6.9c-12,11.3-23.9,22.8-35.8,34.1c-4.2,4-4.7,3.9-7.9-0.7
		C520.1,494.8,519.3,493.8,517.7,491.6z M515.9,465.8c-5.3,12.3-10.2,23.6-15.2,35.2c0.9,0,1.3,0.1,1.5,0c3.3-3.2,6.7-6.5,10-9.8
		c6.8-6.9,6.6-7.2,12.2,0.9c0.2,0.2,0.6,0.3,1.4,0.7c11.5-11.1,23.2-22.3,33.6-32.1c-5.1-5.7-9.7-11-14.4-16.3
		c-0.6,0.8-1.1,1.4-1.5,2.1c-5.7,8.4-11.3,16.8-17,25.3c-2.2,3.2-4.2,3.5-6.4,0C519,469.8,517.6,468.2,515.9,465.8z"/>
	<path d="M359.2,558.7c1.6-14,3.3-28.8,5-43.7c0.1-0.7,0-1.5,0.4-1.9c1-1.3,2.2-2.5,3.2-3.7c0.5,1.5,1.6,3.1,1.4,4.5
		c-0.9,7.8-2.4,15.4-3.2,23.2c-2.3,23-0.8,45.9,2.7,68.6c0.4,2.6-0.5,5.4-0.8,8.1c-4.6-0.7-3.5-4.8-3.8-7.4
		C362.3,590.8,360.9,575.2,359.2,558.7z"/>
	<path d="M530,563.7c-1.3,12.2-3.1,28.6-4.9,44.9c-0.1,0.8-0.1,1.8-0.6,2.4c-0.8,1-1.9,1.8-2.8,2.7c-0.6-1.2-1.8-2.5-1.6-3.6
		c0.7-6.8,1.8-13.5,2.7-20.3c3.2-24.8,2.6-49.5-2.2-74.1c-0.2-1-0.7-2.1-0.5-2.9c0.3-1.2,1.2-2.3,1.9-3.5c0.9,0.8,2.3,1.5,2.5,2.5
		c1.4,7,2.9,14,3.6,21.1C529,541.7,529.2,550.6,530,563.7z"/>
	<path d="M385,590.1c4.5-13.3,0-26.8-2.7-40.6c-1-5.1,0-10.6,0.5-15.8c0.1-1.2,1.9-2.2,2.9-3.4c0.6,1.3,1.9,2.8,1.6,4
		c-2.4,11.3,0.6,21.8,4.1,32.3c0.7,2.1,1.1,4.6,0.7,6.7c-2.3,11.9-2.2,23.8,0,35.7c0.3,1.5-0.7,3.2-1.1,4.8
		c-1.2-1.3-3.2-2.5-3.4-3.9C386.5,603.6,385.9,597.4,385,590.1z"/>
	<path d="M506.5,543.9c-1.9,7.7-4,15.4-5.8,23.1c-0.6,2.7-0.8,5.5-0.8,8.2c0,10.3,0.3,20.5,0.3,30.8c0,1.4-0.4,3-1.2,4.3
		c-0.6,1-1.9,1.5-2.8,2.3c-0.5-1.2-1.8-2.6-1.5-3.7c3.2-11.9,1.7-23.8,0-35.7c-0.3-2.3,0.3-5,1.1-7.2c3.7-10.3,6.1-20.7,3.9-31.8
		c-0.2-1.1,1.1-2.6,1.7-3.9c0.9,1,2.4,1.8,2.7,2.9c0.8,3.4,1,6.9,1.5,10.3C505.9,543.6,506.2,543.7,506.5,543.9z"/>
</g>
<g>
	<path d="M712.6-38c-4.2,6.7-8.8,7.2-14.5,1.5c-2.9-2.9-5.7-6-8.2-8.7c-8.6,8.6-16.7,16.7-25.1,25.1c7.7,7.7,15.7,15.7,23.7,23.7
		c1,1,2,1.9,2.9,2.9c3.2,3.5,3.3,8.1,0.3,11c-3,2.9-7.4,2.8-10.7-0.4c-1.9-1.8-3.4-3.9-5.3-6.1c-1.6,1.5-2.6,2.4-3.5,3.3
		c-20.4,20.4-40.8,40.8-61.1,61.1c-12.1,12.1-25.4,12.1-37.6-0.1c-0.8-0.8-1.6-1.5-2.2-2.1c-5,5-9.9,9.9-15.1,15
		c2.1,0.5,4.4,1,6.8,1.6c20.8,5.1,39.7,13.9,55.1,29.2c1.9,1.9,3.8,4,5.4,6.2c2.5,3.5,1.7,7.8-1.6,10.3c-3.2,2.4-7.5,2.1-10.1-1.2
		c-16.9-21.6-40.9-28.5-66.4-32.4c-1.7-0.3-4.1,0.7-5.5,2c-4.4,3.9-8.3,8.2-12.5,12.3c-3.6,3.6-8.2,3.9-11.3,1
		c-3.4-3.2-3.1-7.6,0.8-11.5c1.5-1.5,3.2-2.7,4.9-4c-0.2-0.5-0.5-0.9-0.7-1.4c-5.8,0.5-11.7,0.8-17.5,1.5
		c-21.2,2.8-41.1,9.3-57.8,23.2c-9.8,8.1-17,18.2-21.3,30.2c-0.3,0.9-0.7,1.9-1.1,2.8c-1.9,3.9-5.9,5.6-9.6,4
		c-3.6-1.5-5.8-5.4-4.2-9.2c3.2-7.4,6.5-14.8,10.7-21.7c2.4-3.9,3.5-7.8,3.7-12.2c1.1-22.6-1.1-44.8-5.6-66.9
		c-2.8-14,4.6-23.3,18.8-23.4c12.4,0,24.7,0,37.1,0c1.2,0,2.5,0,3.7-0.1c4.9-0.4,8.2-3.9,8.2-8.5c0-4.4-3.3-7.9-8.1-8.1
		c-5.5-0.2-11,0-16.5-0.2c-16.8-0.6-27.4-16.2-21.2-31.1c3.3-7.9,9.3-12.6,17.7-13.7c3.3-0.4,6.7-0.5,10.1-0.2
		c4.2,0.4,6.8,3.6,6.7,7.6c-0.1,4-3,6.8-7.2,7.1c-2.1,0.1-4.2,0-6.4,0.1c-4.7,0.4-7.6,3.3-7.6,7.6c0,4.2,2.9,7.4,7.6,7.5
		c5.4,0.2,10.8,0.4,16.1-0.1c13.6-1.1,21.1-13,17.3-26.9c-3.6-13.3-16.9-24.1-31.4-25c-7.2-0.4-14.5-0.3-21.6,0.6
		c-9.6,1.2-17.4,6.4-22.7,14.5c-15.1,23.4-30.3,46.6-44.5,70.5c-14.4,24.2-21.5,50.9-23.9,78.8c-1,12-0.6,24.2-1.3,36.2
		c-0.3,4.9-0.8,10.1-2.7,14.6c-4.2,9.6-1.6,17.2,5.5,23.6c6.9,6.3,14,12.4,21.7,17.7c24.5,16.8,52,26.1,81.2,30.1
		c42.9,5.9,84.8,1.1,126-11.4c0.8-0.3,1.7-0.5,2.5-0.8c4.7-1.3,8.6,0.6,9.9,4.8c1.3,4-0.9,8.1-5.6,9.5c-8.1,2.4-16.2,4.8-24.5,6.8
		c-32.1,7.6-64.7,10.5-97.7,7.5c-38.4-3.5-74.2-14.7-105.6-37.8c-6.9-5.1-13.6-10.7-19.6-16.8c-10.6-10.8-14.1-23.4-8.1-38
		c1.5-3.7,1.8-8,1.8-12c-0.6-34.8,3.8-68.7,17.8-100.8c4.9-11.3,10.9-22.1,17.3-32.6c11.6-18.9,23.7-37.5,35.7-56.2
		c10-15.3,24.3-23.3,42.6-23.7c10.1-0.2,20.3-0.9,29.9,3.1c17.9,7.4,29.8,19.7,32.6,39.4c1.7,12.1-2.1,22.4-11.1,30.7
		c-0.5,0.4-0.9,0.8-1.4,1.2c-0.5,0.4-0.9,0.8-1.5,1.4c4.3,6.2,6,12.9,4.2,20.2c-2.6,10.2-11.5,17.5-21.9,17.7
		c-13.8,0.2-27.7,0.1-41.5,0.1c-4.1,0-4.8,0.7-4.1,4.5c3.9,20.1,6.4,40.4,6.3,60.9c0,0.2,0.2,0.4,0.4,1c0.7-0.4,1.5-0.7,2.1-1.2
		c20.5-14.3,43.6-21,68.3-22.7c8.2-0.6,16.4-0.2,24.7-0.3c1.1,0,2.5-0.5,3.3-1.2c7.5-7.3,14.8-14.8,22.5-22.4c-1-1.1-1.9-2.1-2.8-3
		c-11.7-11.8-11.7-25.3,0.1-37.1c20.4-20.4,40.8-40.8,61.1-61.1c1-1,1.9-2,3.5-3.7c-2.1-1.8-4.2-3.3-6-5.2c-3.4-3.5-3.5-8-0.5-11
		c3.1-3.1,7.5-3,11,0.4c8.1,8,16.1,16,24.1,24.1c1,1,1.6,2.3,2.3,3.2c8.8-8.8,16.9-16.9,25.7-25.8c-3.2-2.9-6.7-5.9-9.9-9.1
		c-3.8-3.7-4-8.1-0.9-11.3c3.1-3.2,7.8-3,11.6,0.8c10.1,10,20.1,20.1,30.2,30.2c1.1,1.1,2,2.5,3,3.7C712.6-41,712.6-39.5,712.6-38z
		 M603.3-2.1c-12.3,12.3-25.1,24.7-37.6,37.4c-3.5,3.6-2.9,8.3,1,12.3c6,6.1,12.1,12.2,18.2,18.2c5,5,9.6,5,14.5,0
		c7.7-7.6,15.3-15.3,23-23c4.4-4.4,8.8-8.7,13-12.9C624.5,19.1,613.9,8.5,603.3-2.1z M615.2-13.6c3.3,3.4,6.8,6.9,10,10.2
		c5.7-5.7,11.5-11.5,17.3-17.2c-3.3-3.3-6.7-6.9-10-10.2C626.6-25,620.8-19.1,615.2-13.6z M663.6,0.9c-3.4-3.4-6.8-6.9-10-10.1
		C647.9-3.5,642,2.4,636.3,8.1c3.3,3.3,6.8,6.8,10,10C652.1,12.4,658,6.5,663.6,0.9z"/>
	<path d="M527.2,189.2c-15.4,0-36.1-4-55.3-14.4c-4.3-2.3-5.6-6.5-3.6-10.4c2-3.7,6.1-4.8,10.3-2.9c0.6,0.3,1.1,0.6,1.7,0.8
		c11.4,5.8,23.5,9.4,36.3,10.9c22.9,2.8,45.3,0,67-7.3c9.7-3.3,19-7.9,28.6-11.8c1.9-0.8,4-1.7,6-1.6c3.4,0.2,5.7,2.3,6.4,5.8
		c0.8,3.6-0.7,6.6-3.9,8.1c-8.1,3.9-16.1,7.9-24.5,11.1C576,185.1,555,189.1,527.2,189.2z"/>
	<path d="M609.9,214.4c0-4.1,3.2-7.5,7.2-7.5c4-0.1,7.5,3.3,7.6,7.2c0.1,4.1-3.4,7.7-7.5,7.7C613.1,221.7,609.9,218.5,609.9,214.4z"
		/>
</g>
<g>
	<path d="M640.9-301.2c-1.5,3.1-2.5,5.7-3.9,8c-23.6,36.7-57.3,58.6-99.6,67.9c-5.1,1.1-9-1.8-9.4-7c-0.1-1.2,0-2.5,0-3.7
		c0-44.9,0-89.8,0-134.8c0-1.4-0.1-2.8,0.1-4.2c0.6-4,3-6.5,7.2-6.7c3.6-0.2,6.8,2.8,7.3,6.6c0.2,1.5,0.1,3.1,0.1,4.7
		c0,40.9,0,81.7,0,122.6c0,1.9,0,3.7,0,6.5c6-2,11.4-3.7,16.7-5.7c26.7-10.3,47.9-27.6,63.8-51.4c1.4-2,2.3-4.9,2.2-7.3
		c-0.2-34.8,0.2-69.6-1.2-104.3c-2-53.3-7.3-106.3-20.4-158.2c-5.1-20-11.6-39.4-21.4-57.6c-5.9-10.9-13.1-20.7-22.5-29
		c-21.8-19.2-56.2-12.1-70.4-0.3c-5.3,4.4-6.4,4.3-12.4,0.8c-10.9-6.3-22.2-6.6-33.7-1.6c-14.4,6.3-24.7,17.2-33.4,29.8
		c-16.8,24.2-26,51.6-32.9,79.9c-8.3,34.5-12.3,69.6-14.2,105c-2,36-1.9,72-0.1,108c0.1,1.1,0.2,2.2,0.3,3.3
		c0.6,0.1,1.1,0.4,1.4,0.2c17.1-7.1,34.2-14.1,51.2-21.4c3.9-1.7,7.5-4.4,11-7c7.8-5.9,12.4-13.3,11.5-23.6
		c-0.5-6.4,0.1-12.8-0.2-19.2c-0.1-1.8-0.8-4.1-2-5.3c-16.8-16.3-27.8-35.8-33.6-58.4c-0.4-1.4-1.5-3.2-2.8-3.8
		c-11.2-5.6-17.2-14.9-19.7-26.9c-2.4-11.4-2.5-22.6,2.2-33.5c2.4-5.6,5.5-10.2,12.8-10.6c4.7-0.3,5.7-4.5,6-8.7
		c0.8-13.6,2.5-27,7.4-39.8c3.5-9.2,8.1-17.5,16.3-23.4c2.7-2,5.5-3.6,9-1.8c3.4,1.7,4.1,4.7,4.4,8.2c1.3,15.5,3.4,30.9,9,45.7
		c1.7,4.4,4.1,7,8.9,8.4c39.2,11.4,79,15.8,119.7,13c2.2-0.2,4.4-0.3,6.5-0.3c8.8,0,15.8,4.8,18.2,13.3c3.8,13.5,3,26.9-2.6,39.7
		c-3.2,7.2-8.5,12.5-15.5,16.3c-1.7,0.9-3.3,3.2-3.9,5.1c-7.9,28.1-22.5,51.7-47.1,68.1c-24.1,16.1-49.2,18-75,4
		c-0.7-0.4-1.4-0.7-2.1-1c-0.1-0.1-0.3,0-1,0.1c-0.6,11.2,1.2,22.9-5.5,33.2c-6.5,10-16.1,16.2-26.6,22.3
		c10.6,7.8,21.5,13.1,33.2,16.9c15.6,5,31.6,6.8,48,5.1c5-0.5,8.4,1.9,8.9,6.1c0.5,4.7-2.2,7.7-7.3,8.2
		c-34.9,3.4-66.3-5.9-94.3-26.8c-2.5-1.9-4.5-2.3-7.6-1.1c-17.2,7.3-34.9,13.4-51.6,21.7c-21.5,10.6-40,25.4-52.3,46.7
		c-6.1,10.6-9.6,21.9-9.8,34.2c-0.1,5.2-3.1,8.6-7.3,8.5c-4.4,0-7.4-3.6-7.2-9.1c0.8-22.6,9.8-41.9,24.6-58.7
		c12.6-14.3,27.8-25.4,44.7-34.2c4.3-2.2,5.8-4.5,5.8-9.5c-0.3-37.1-1.3-74.2,0-111.3c1.7-47.3,8-94,23.1-139.2
		c8.1-24.4,18.8-47.5,36.1-67c9.3-10.5,20.1-19.1,33.5-24c12.8-4.6,25.4-4.2,37.8,1c2.3,1,4,1,6.4-0.4c27.6-16.3,67.6-18.3,94.9,15
		c15,18.3,24.2,39.5,31.4,61.7c9.5,29.3,15,59.4,19.1,89.9c8,59.5,10,119.3,9.3,179.2c0,4.1,1.2,6.4,4.8,8.4
		c21.4,12.4,39.8,27.9,51.9,50c6.9,12.6,10.9,26.1,10.7,40.6c-0.1,4.6-2.9,7.5-7,7.7c-4.2,0.1-7.4-2.7-7.5-7.1
		c-0.5-20.9-9.1-38.2-23-53.2C661.1-286.9,651.3-294.5,640.9-301.2z M424.5-589c-0.9,1.7-1.4,2.3-1.6,3c-5.1,12.1-7.2,24.8-7.7,37.8
		c-0.5,12.3-5.6,19.2-17.2,23.2c-1.7,0.6-3.3,2.8-3.8,4.6c-2.7,9.7-2.2,19.5,1.7,28.8c2.3,5.4,6.1,9.4,12.1,10.7
		c4.4,1,6.3,3.8,7.2,8.1c5.2,24.6,16.9,45.4,36.7,61.2c11.1,8.8,23.5,14.8,38,14.8c15.8,0,29-6.7,40.7-16.6
		c18.5-15.7,29.5-35.9,34.6-59.5c0.9-4,2.5-7,6.8-7.9c6.7-1.5,10.7-6,13.1-12.2c3.2-8.5,3.4-17.3,1.7-26.2c-0.7-3.5-2.7-4.8-6.3-4.5
		c-20.7,1.7-41.4,1.5-62.1-0.6c-24.9-2.5-49.3-7-73-15c-2.8-1-6.1-3.3-7.3-5.8c-3.6-7.7-6.8-15.7-9.3-23.8
		C426.8-574.9,426.1-581.5,424.5-589z"/>
</g>
<g>
	<path d="M946,586.9c-0.2,5-1.9,7.7-5.2,9.1c-3.4,1.5-6.7,0.9-9.4-1.5c-2.2-2-4.3-4.2-6.4-6.3c-9.6-9.6-19.3-19.3-28.9-28.9
		c-2.9-2.9-3.6-6.9-2-10.3c1.5-3.2,4.9-5.3,8.5-4.7c2,0.3,4.2,1.3,5.7,2.7c11.7,11.5,23.4,23.1,34.9,34.9
		C944.7,583.4,945.4,585.8,946,586.9z"/>
	<path d="M895.1,608.9c-3.2,0-5.7-1.3-7.3-4c-4.9-8.6-9.9-17.1-14.6-25.8c-2.4-4.3-0.8-9.4,3.4-11.7c4.1-2.3,9.3-1,11.8,3.3
		c4.9,8.5,9.8,16.9,14.5,25.5C906.1,602.2,901.9,609,895.1,608.9z"/>
	<g>
		<path d="M1202.9,326.5c-0.1,39.9-2,69.1-9.7,97.6c-2.5,9.4-5.8,18.7-9.5,27.7c-9,22-25.4,34.9-48.8,39.4
			c-29.4,5.7-58.8,11-88.6,13.9c-29.8,3-59.8,4.2-89.6,0.6c-12-1.5-24-3.9-35.7-7c-22.7-5.9-44.1,3-55.1,23.8
			c-1.9,3.6-3.8,7.3-6.4,10.3c-4.1,4.7-8.7,9.1-13.4,13.2c-1.5,1.4-2.1,2.5-1.9,4.4c1.6,14.1,1.3,28.2-1.2,42.2
			c-2.7,15.2-7.7,29.5-16.8,42.1c-1.2,1.7-2.5,3.3-4,4.8c-3.4,3.4-8.6,3.4-12,0.3c-3.4-3.1-3.9-8.4-0.8-12
			c10.9-12.7,15.3-28,17.5-44.2c1.8-13.3,1-26.5-0.8-39.7c-0.6-4.3,1.2-8.1,4.9-9.5c7.3-2.7,12.1-8.1,16.2-14.3
			c1.2-1.9,2.4-3.8,3.4-5.9c12.9-26.5,43.8-40.8,74.2-32.4c20,5.6,40.4,8,61.1,8.5c32.1,0.8,63.9-2.2,95.6-7.3
			c17.8-2.9,35.6-6.3,53.3-9.7c14.7-2.8,25.1-11.5,31.6-24.9c7.1-14.8,11.4-30.5,14.3-46.5c5.5-31,6-62.3,4.2-93.7
			c-3.3-55.7-13.6-110.3-26.5-164.5c-0.2-0.8-0.4-1.6-0.6-2.5c-1.1-5,1.6-9.5,6.3-10.7c4.7-1.2,9.3,1.5,10.5,6.5
			c2.3,9.3,4.4,18.7,6.5,28c7.7,34.8,14.2,69.9,17.8,105.4C1200.9,292.7,1202,314.9,1202.9,326.5z"/>
		<path d="M1026.6,325.5c-0.4-4.3-0.8-8.1-1.1-11.9c-2.9-39.7,6.8-76.1,28.1-109.6c8.6-13.5,16.1-27.6,20.6-43.2
			c2-6.9,3.2-13.9,2.6-21.2c-0.4-4.9,2.9-8.8,7.6-9.2c4.8-0.5,8.9,2.6,9.6,7.6c1.2,9.2-0.4,18.2-2.8,27c-4.8,17.2-13,32.9-22.5,47.8
			c-14.4,22.5-23.2,46.8-25.5,73.4c-2.1,24.8,1,48.8,10.1,72c2,5.1,0.7,9.7-3.5,11.9c-4.3,2.3-9.1,0.7-12.1-4
			c-12.6-19.7-28.6-35.8-49.7-46.4c-21.3-10.7-44-13.8-67.5-11.9c-17.8,1.4-35.1,5.6-51.6,12.6c-4.2,1.8-8,0.5-11.1-3.6
			c-13.4-17.8-29.7-32.5-49.4-43.1c-26-14-53.7-20.5-83.2-18.5c-7.8,0.5-12.2-6.4-9.5-12.2c1.7-3.7,4.8-5.2,8.7-5.2
			c7.9-0.1,15.8-0.5,23.7,0.1c32.9,2.7,62.7,13.6,89.1,33.5c11,8.3,20.7,17.8,29.3,28.4c1.3,1.7,2.4,2,4.5,1.3
			c22.4-7.6,45.4-11.3,69.1-10.3c31.7,1.4,60,11.6,84.1,32.6C1024.8,324.1,1025.6,324.7,1026.6,325.5z"/>
		<path d="M951,555.4c-0.6-0.2-2.1-0.3-3.3-0.9c-9.4-4.7-18.8-9.4-28.2-14.3c-4.5-2.3-6-7.5-3.8-11.8c2.1-4.1,7.2-5.8,11.6-3.6
			c9.4,4.7,18.8,9.4,28.2,14.3c3.8,2,5.5,5.8,4.5,9.7C959.1,552.7,955.9,555.3,951,555.4z"/>
		<path d="M832.3,424.1c0.2-3,0.3-6,0.5-9c0.4-4.8,4-8.3,8.6-8.3c4.7,0,8.7,3.7,8.7,8.6c-0.1,6.2-0.4,12.4-0.9,18.6
			c-0.4,4.4-4.7,7.4-9.3,7.1c-4.4-0.3-7.8-4-7.8-8.8c0-2.7,0.3-5.4,0.4-8.2C832.4,424.1,832.3,424.1,832.3,424.1z"/>
		<path d="M832.4,464.5c0-2.9-0.1-5.8,0-8.7c0.2-5.1,4-8.7,8.9-8.5c5,0.2,8.5,3.8,8.4,9c-0.1,5.6-0.3,11.3-0.7,16.9
			c-0.3,5-4.4,8.6-9.2,8.3c-4.7-0.3-8.1-4-8.1-9.1c0-2.6,0-5.3,0-7.9C832,464.5,832.2,464.5,832.4,464.5z"/>
		<path d="M769.2,488.8c0.1-2.9,0.3-5.8,0.5-8.7c0.3-4.7,4.1-8.3,8.7-8.3c4.7,0,8.7,3.8,8.6,8.6c-0.1,5.9-0.3,11.8-0.8,17.7
			c-0.4,5.1-4.5,8.3-9.5,7.9c-4.6-0.3-7.8-4.1-7.8-9.1c0-2.7,0-5.4,0-8.2C769,488.8,769.1,488.8,769.2,488.8z"/>
		<path d="M816.5,504.9c-2.4-0.7-6-1.6-9.5-2.6c-2.2-0.6-4.4-1.2-6.5-1.8c-4.7-1.5-7.2-5.8-6.2-10.2c1.1-4.7,5.5-7.7,10.3-6.5
			c5.5,1.3,10.9,2.8,16.3,4.5c4,1.3,6.1,5.5,5.2,9.8C825.3,502,821.8,504.9,816.5,504.9z"/>
		<path d="M814.8,469.8c-2.9-0.8-6.8-1.8-10.7-2.9c-1.8-0.5-3.6-1-5.4-1.5c-4.7-1.5-7.2-5.8-6.1-10.3c1.2-4.7,5.5-7.6,10.3-6.5
			c5.4,1.2,10.7,2.8,16,4.5c4.2,1.4,6.3,5.5,5.4,9.9C823.6,467.1,820.1,469.9,814.8,469.8z"/>
		<path d="M857.2,426.7c0.2-5.5,5.2-9.4,10.8-8c5.1,1.2,10.2,2.6,15.2,4.2c4.7,1.5,7.1,6.1,5.9,10.7c-1.3,4.5-5.9,7.1-10.7,5.9
			c-5-1.3-10-2.7-14.9-4.1C859.4,434.1,857.1,430.8,857.2,426.7z"/>
	</g>
</g>
<g>
	<path d="M1113.6-192.7c4,3.1,7.1,5.5,10.2,8.1c6.3,5.4,8.7,12.1,6.7,20.2c-6.3,25.5,6.1,42.8,32.3,45.2c20.6,1.9,40.9-0.9,61.1-4.6
		c13.6-2.5,27-5.8,40.5-8.8c5.5-1.2,8,0.4,8.2,6c0.9,28.5,1.8,57,2.7,85.4c0.1,3.8-0.8,6.9-5.1,7c-4.3,0.1-5.4-3-5.5-6.7
		c-0.7-24.8-1.4-49.6-2.2-74.5c0-1.6-0.2-3.3-0.3-5.5c-9.4,2-18.3,4-27.2,5.8c-22.8,4.4-45.7,8.2-69,6.5c-8-0.6-16.3-2.2-23.7-5.3
		c-19.7-8.3-29.1-30.3-22.8-50.7c2-6.4,1.2-8.8-3.9-13.1c-1.8-1.5-3.6-2.9-5.4-4.4c-7.4-6-8.2-11.5-2.8-19.4
		c1.5-2.2,3.3-4.2,5.1-6.4c-2.9-2.7-6-5.1-8.6-8.1c-6.4-7.2-6.7-13.8-0.2-20.9c5.6-6.1,7.7-13,8-21.3c-9.4-1.9-18.8-3.8-28.2-5.7
		c-14.9-3-24.7-17-21.8-31.9c0.6-3.4,2.4-7,4.5-9.8c13.8-17.7,27.6-35.5,42.1-52.8c6.9-8.2,6.3-15.9,2.4-24.9
		c-3.9-9.1-7.6-18.5-10-28.1c-3.6-14.4-0.2-28.8,2.9-43c10.8-50.2,32.1-95,69.2-131.1c52.6-51.2,116.1-73.7,189.1-67.2
		c61.8,5.5,112.6,32.8,150.2,82.9c21.5,28.7,33.9,61.4,39.8,96.6c6.5,39.1,5.3,78-2.3,116.8c-2.8,14.2-9.6,26.9-16.4,39.5
		c-5.1,9.4-10.2,18.7-15,28.2c-9.8,19.8-14.4,40.8-13.2,62.9c2.2,40.1,4.8,80.1,7.2,120.2c0.2,3.3,1.2,4.7,4.6,5.6
		c11.2,2.8,18.7,11.7,19.6,22c0.9,10.6-4.7,20-15.5,25c-2.6,1.2-3.5,2.4-2.9,5.3c0.6,2.8,1.1,5.7,0.6,8.4c-0.4,1.8-2.6,4.5-4.1,4.5
		c-1.9,0.1-5.6-2.2-5.6-3.2c0.8-10.2-5.6-13-13.6-16.4c-8.9-3.7-13.3-11.9-13.2-21.8c0.2-9.9,4.9-17.6,13.8-21.4
		c5.4-2.3,5.8-5.2,5.4-10.2c-2.5-38.9-4.9-77.8-7-116.7c-1.5-27.5,5.3-53.2,18.2-77.3c2.7-5,5.2-10.1,8.1-14.9
		c12.4-20.6,20.2-42.5,22.5-66.6c3.6-36.4,3.4-72.5-5.6-108.2c-24.1-95.1-99.6-142.4-172.3-150.3
		c-108.7-11.8-206.6,51.2-241.7,155.5c-5.6,16.5-9.3,33.7-12.8,50.8c-3.2,16.1,0.9,31.3,8.2,45.9c2.5,5.1,4.2,10.9,5.2,16.5
		c1.2,6.9-1.2,13.1-5.6,18.5c-14.5,18.1-28.9,36.2-43.3,54.3c-7.4,9.3-2.2,23.3,9.5,25.6c9.3,1.9,18.6,3.7,27.9,5.5
		c7.6,1.5,10.5,5.3,9.5,13c-1.2,9.5-2.9,18.8-10.6,25.7c-2.8,2.5-2.4,5.1,0.1,7.2c3.4,2.9,7,5.7,10.8,8c5.8,3.6,6.3,6.3,1.4,11.2
		C1120.4-200.2,1117.2-196.6,1113.6-192.7z M1509.2-61.2c9-0.1,16.1-6.4,16-14.4c0-7.8-7.3-14.4-16.2-14.4
		c-8.9-0.1-16.6,6.9-16.4,14.8C1492.9-67.4,1500.3-61.1,1509.2-61.2z"/>
	<path d="M1353.8-41.1c-10.4,0-19.7-3.2-27.6-9.9c-15.9-13.5-16.1-36.6-0.5-50.4c15.3-13.5,40-13.8,55.7-0.7
		c16.9,14.1,16.6,38.3-0.7,52C1372.9-43.9,1363.9-41,1353.8-41.1z M1353.7-52c7.4,0,14.1-1.9,20-6.5c12.1-9.4,12.4-25.4,0.7-35.3
		c-11.7-9.9-31.1-9.3-42.2,1.2c-9.6,9.2-9.6,23.2,0,32.3C1338.3-54.6,1345.6-52.2,1353.7-52z"/>
	<path d="M1436-166.4c15.2,0,27.2,11.2,27.2,25.3c0,14.1-12.3,25.5-27.3,25.4c-14.9-0.1-26.8-11.3-26.9-25.2
		C1409-155.2,1420.8-166.4,1436-166.4z M1436.1-155.5c-9,0-16.1,6.2-16.2,14.2c-0.1,8,7.5,14.7,16.5,14.6c8.9-0.2,16-6.7,15.9-14.6
		C1452.2-149.3,1445.1-155.5,1436.1-155.5z"/>
</g>
<g>
	<path d="M1404.7,499.1c-8.3,3.2-15.8,4-23.4,1.9c-13.8-3.8-22.5-15.2-22.6-29.9c-0.3-30-0.5-60-0.7-90c-0.2-19-0.4-38-0.5-57
		c-0.1-35.8,27.1-66.3,62.9-69.5c15.9-1.4,31.9-0.7,47.9-0.8c12-0.1,24,0.1,36,0.3c23.9,0.5,44.1,9.5,59.7,27.8
		c9,10.5,13.3,23,13.4,36.8c0.3,50.6,0.3,101.3,1.2,151.9c0.4,22.9-20.5,36.4-39.1,31.7c-1.2-0.3-2.5-0.5-4.4-0.8c0,2.5,0,4.6,0,6.7
		c0,60.3,0,120.6,0,180.9c0,17.5-7,28.8-21.3,34.3c-15.5,6-31.7,2.1-42.7-10.4c-0.4-0.5-0.9-1-1.5-1.7c-0.5,0.4-1.2,0.6-1.5,1.1
		c-10.9,14.7-28.7,15.4-40.9,10.9c-13.9-5.2-22.3-18-22.3-34.6c-0.1-34.2,0-68.3,0-102.5c0-26.8,0-53.7,0-80.5
		C1404.7,503.9,1404.7,501.9,1404.7,499.1z M1521.6,515.5c0-58.7,0-117.3,0-176c0-7.9,2-11.1,6.9-11c4.7,0.1,6.6,3.2,6.6,10.8
		c0,47.2,0.1,94.3-0.1,141.5c0,5.1,2,7.2,6.3,8.4c12.3,3.6,23.8-4.7,23.8-17.3c-0.2-51-0.5-102-0.9-153c-0.1-13.3-5.4-24.6-15-33.7
		c-11-10.5-24.3-17.1-39.4-17.5c-28.6-0.8-57.3-1.3-86-0.1c-30.2,1.3-53.6,27.5-53.3,57c0.6,48.6,1.4,97.3,1.3,145.9
		c0,13.9,14.9,22.9,27.8,16c3.5-1.9,5.2-4.3,5.2-8.7c-0.1-46.3,0.1-92.6,0.2-139c0-7.4,1.8-10.3,6.4-10.4c4.8-0.1,6.8,3,6.8,10.5
		c0,116.6-0.1,233.3-0.1,349.9c0,14.4,9,23.6,22.7,23.6c12.6,0,21.5-9.8,21.5-23.8c0-67.3,0-134.6,0-202c0-1.7-0.1-3.3,0.1-5
		c0.3-3.9,2.6-6.2,6.5-6.2c3.8,0,6.2,2.2,6.5,6.1c0.1,1.5,0.1,3,0.1,4.5c0,67.7,0,135.3,0,203c0,13.2,10.6,23.6,24,23.6
		c14.3,0,22.2-8.2,22.2-22.8C1521.6,631.8,1521.6,573.7,1521.6,515.5z"/>
	<path d="M1707.4,182c0,10.8-0.2,21.7,0.1,32.5c0.1,2.8,1.1,5.9,2.5,8.3c11.4,19.6,23,39,34.4,58.5c4.3,7.3,5.7,15.3,5.7,23.9
		c-0.2,118.3-0.1,236.6-0.1,354.9c0,36.6-23.4,67-57.7,75.2c-48,11.5-93.3-24.2-93.7-73.9c-0.2-29.8,0-59.7,0-89.5
		c0-89.3,0-178.6-0.1-267.9c0-7.2,1-14,4.6-20.2c12.1-20.9,24.4-41.6,36.4-62.6c1.7-3,2.9-6.7,2.9-10.2c0.3-20,0-40,0.2-60
		c0.1-13.9,6.2-24.5,18.9-30.4c12.3-5.7,24.1-3.9,34.6,4.7c7.5,6.2,11.3,14.3,11.3,24.1C1707.5,160.3,1707.4,171.1,1707.4,182z
		 M1736.2,307.7c1.3-7.7,0.4-14.2-3.3-20.4c-11.5-19.1-22.7-38.4-34.4-57.4c-2.9-4.8-4.3-9.4-4.3-14.9c0.2-21,0.1-42,0.1-63
		c0-12.3-8.1-21-19.2-21c-11.2,0-19.1,8.6-19.1,21.1c0,20.7-0.1,41.3,0.1,62c0,5.3-1.5,9.4-4.5,14.1c-13.1,20.9-25.3,42.3-37.5,63.7
		c-1.5,2.7-2,6.4-2,9.6c-0.1,120-0.1,239.9-0.1,359.9c0,35,27.6,62.9,62.1,63.1c34.4,0.2,62.4-27.8,62.5-62.7
		c0.1-30.8,0-61.7,0-92.5c0-1.7-0.2-3.5-0.4-5.6c-5.4,0-10.2,0.1-15,0c-5.1-0.1-7.8-2.3-8-6.3c-0.2-4.2,2.7-6.7,8-6.8
		c4.9-0.1,9.9,0,14.9,0c0-9.4,0-18.1,0-27.2c-2.1,0-3.7,0-5.4,0c-7.5,0-15,0-22.5,0c-5.6,0-8.7-2.5-8.7-6.7c0-4.2,3.1-6.5,8.8-6.6
		c4.3-0.1,8.7,0,13,0c4.9,0,9.8,0,14.8,0c0-9.4,0-18,0-27.2c-5.3,0-10.2,0-15.2,0c-5.2-0.1-7.7-2.2-7.8-6.3c-0.1-4.2,2.7-6.6,8-6.7
		c4.9-0.1,9.9,0,14.9,0c0-9.4,0-18.1,0-27.2c-2.2,0-4,0-5.8,0c-7.7,0-15.3,0.1-23,0c-4.8-0.1-7.8-2.7-7.8-6.6c0-4,2.9-6.4,7.8-6.6
		c2.2-0.1,4.3,0,6.5,0c7.4,0,14.9,0,22.4,0c0-9.4,0-18,0-27.2c-5.3,0-10.3,0.1-15.2,0c-5.2-0.1-7.7-2.4-7.8-6.5
		c0-4.2,2.8-6.6,8.1-6.7c4.9-0.1,9.9,0,14.7,0c0-9.4,0-18.2,0-27.2c-2.1,0-3.7,0-5.4,0c-7.7,0-15.3,0-23,0c-5.2,0-8.2-2.5-8.1-6.7
		c0.1-4,2.9-6.3,7.9-6.4c1.5,0,3,0,4.5,0c8,0,15.9,0,24.2,0c0-9.3,0-18,0-26.6c-0.6-0.3-0.9-0.5-1.2-0.5c-4.3-0.1-8.7-0.1-13-0.2
		c-5.8-0.1-8.7-2.3-8.8-6.6c-0.1-4.3,2.9-6.7,8.6-6.8C1726.6,307.6,1731.3,307.7,1736.2,307.7z"/>
	<path d="M1802.3,287.9c-8.2,0-15.8,0-23.5,0c-3.7,0-7.1-0.4-8.9-4.2c-1.8-3.8-0.6-7,2-10.1c20.5-24.5,40.9-49.2,61.4-73.7
		c4.4-5.3,9.3-5.2,13.8,0.1c20.5,24.6,40.9,49.2,61.3,73.7c2.4,2.9,3.7,5.9,2.1,9.6c-1.7,3.8-4.9,4.6-8.7,4.5
		c-7.8-0.1-15.6,0-23.8,0c0,2.5,0,4.3,0,6.1c0,21.5,0,43,0,64.4c0,8.1-2.6,10.7-10.8,10.7c-18.2,0-36.3,0-54.5,0
		c-7.9,0-10.5-2.6-10.5-10.5c0-21.5,0-43,0-64.4C1802.3,292.4,1802.3,290.6,1802.3,287.9z M1789.1,274.4c5.8,0,10.2,0,14.6,0
		c10.1,0,12.2,2.1,12.2,12.4c0,21.2,0.1,42.3-0.1,63.5c0,4.1,1.2,5.4,5.4,5.4c12.7-0.3,25.3-0.1,38-0.1c1.6,0,3.2-0.2,5.2-0.3
		c0-2.5,0-4.5,0-6.5c0-21.2,0-42.3,0-63.5c0-8.1,2.7-10.8,10.7-10.9c5,0,10,0,16.1,0c-17.5-21-34.1-41-51-61.4
		C1823.1,233.4,1806.5,253.4,1789.1,274.4z"/>
	<path d="M1802.3,567.2c0-3,0-5.1,0-7.3c0-21.3,0-42.7,0-64c0-7.2,2.8-10,9.9-10.1c18.5,0,37,0,55.5,0c7.5,0,10.3,2.8,10.3,10.3
		c0,21.7,0,43.3,0,65c0,1.8,0,3.6,0,6c8,0,15.4,0.1,22.9,0c4,0,7.8,0.3,9.6,4.6c1.7,4,0,7-2.5,10c-20.3,24.3-40.5,48.7-60.7,73
		c-4.7,5.6-9.5,5.7-14.1,0.2c-20.5-24.6-40.9-49.2-61.4-73.7c-2.5-3-3.5-6.1-1.9-9.7c1.6-3.8,5.1-4.4,8.8-4.4
		C1786.2,567.2,1793.9,567.2,1802.3,567.2z M1789,580.6c17.5,21.1,34.2,41.1,51.2,61.6c17.1-20.6,33.8-40.6,51.2-61.6
		c-6,0-10.8,0-15.5,0c-8.9,0-11.3-2.5-11.4-11.2c0-21.2,0-42.3,0-63.5c0-1.9,0-3.9,0-6.1c-16.5,0-32.3,0-48.7,0c0,2.2,0,4,0,5.8
		c0,21.2,0,42.3,0,63.5c0,9.1-2.3,11.5-11.5,11.5C1799.6,580.6,1795,580.6,1789,580.6z"/>
	<path d="M1411.2,187.3c-0.1-32.3,25.8-58.5,57.8-58.5c31.8,0,57.8,25.9,58,57.9c0.2,32-26,58.4-57.9,58.5
		C1437.3,245.2,1411.3,219.2,1411.2,187.3z M1513.6,187c0-24.9-19.9-44.9-44.7-44.8c-24.6,0-44.8,20.4-44.6,45
		c0.1,24.5,20.1,44.5,44.6,44.6C1493.7,231.8,1513.6,211.8,1513.6,187z"/>
	<path d="M1667.7,435.9c0-60.1,0-120.3,0-180.4c0-7.7,1.9-10.8,6.6-10.8c4.7,0,6.7,3.2,6.7,10.7c0,120.3,0,240.6-0.1,360.8
		c0,4.5,0.8,6.8,5.6,8.6c14.6,5.2,23.2,21.2,20.3,36.1c-3.2,16.2-16.7,27.4-32.9,27.2c-15.9-0.2-29-11.5-32-27.7
		c-2.8-14.9,6.1-30.7,20.7-35.9c4-1.4,5.2-3.2,5.2-7.3C1667.6,556.9,1667.7,496.4,1667.7,435.9
		C1667.7,435.9,1667.7,435.9,1667.7,435.9z M1655.1,654.9c-0.2,10.8,8.2,19.6,18.9,19.7c10.8,0.1,19.4-8.3,19.6-19.1
		c0.1-10.7-8.5-19.5-19.2-19.5C1663.9,635.9,1655.3,644.3,1655.1,654.9z"/>
</g>
<g>
	<path d="M1719.4-115.3c-0.9-8.8-1.8-17.3-2.7-25.7c-1.8-16.8-3.7-33.6-5.6-50.3c-0.1-1.3-1-2.8-2-3.5c-15.9-11.1-22.5-29.2-17-47.9
		c6.1-20.9,12.2-41.8,18.5-62.6c4.1-13.5,13.4-22,27.2-25.4c0.9-0.2,1.8-0.5,3-0.8c-7.1-8.1-10.5-17.2-9.7-27.8
		c0.6-7.8,3.6-14.6,8.7-20.6c9.9-11.6,26.5-15.5,40.9-9.6c14.1,5.8,23.2,20.4,22,35.8c-1,12.9-9.4,28.6-30.3,33
		c0.3,0.5,0.6,0.9,0.9,1.3c7.7,7.9,11.9,17.3,12.4,28.4c0.1,1.4,0.5,3,1.2,4.2c10.8,19.7,14.9,40.8,13.2,63.1
		c-0.9,11.5-5.4,21-16.2,26.7c-0.8,0.4-1.6,1.4-2,2.3c-7.8,19.1-10.1,39.2-10.4,59.6c0,0.9,0.6,2.1,1.3,2.6
		c5.6,4.3,8.4,10.1,8.9,17.5c1.1,0,2.2,0,3.4,0c18.9,0,37.8,0,56.8,0c5.5,0,7.1,1.6,7.1,7c0,5.9,0,11.8,0,17.6
		c0,4.2-1.9,6.1-6.1,6.1c-42.1,0-84.2,0-126.4,0c-4.2,0-6.1-1.9-6.1-6c0-5.9,0-11.8,0-17.6c0-5.5,1.5-7,7-7.1
		C1717.9-115.2,1718.5-115.3,1719.4-115.3z M1715.1-283.5c-0.2,0.4-0.5,0.7-0.7,1.1c-4.4,14.8-9,29.6-13,44.5
		c-3.8,13.8,2.4,28.1,14.8,35.1c3.1,1.8,4.6,4,5,7.5c2.1,20.5,4.4,41,6.6,61.5c0.7,6.1,1.4,12.2,2.1,18.2c6.7,0,13,0,20.3,0
		c-2.2-2-3.5-3.7-5.2-4.5c-3.4-1.6-4.4-4.1-4.3-7.7c0.1-13.8,0.1-27.6,0.1-41.4c0-2.7-0.1-5.4,0.1-8c0.2-2.5,1.7-4.5,4.2-4.5
		c1.7,0,3.8,1.1,5.1,2.3c0.9,0.8,0.9,2.8,0.9,4.2c0.1,14.6,0,29.3,0.1,43.9c0,1.1,0.4,2.7,1.2,3.3c4.2,3.3,7,7.5,8.5,12.5
		c3.6,0,7.1,0,10.8,0c-0.2-4.7-2.3-8.1-6.4-10.1c-2.3-1.2-3.9-2.7-3.9-5.4c0.6-16.8,0.7-33.6,5.4-49.9c1.1-4,2.4-7.9,3.6-12
		c-0.7,0-1.1-0.1-1.6-0.1c-8.5,0.9-16.3-1.4-23.9-4.8c-3-1.4-4.3-4-3.3-6.7c1-2.7,3.8-3.9,6.9-2.8c1.4,0.5,2.8,1,4.2,1.6
		c5.2,2.3,10.6,3,16.3,2.5c11.6-1.1,19.2-7.4,20.7-18.8c2.7-20.9-1.2-40.8-11.3-59.4c-1.7-3.2-2.7-6.3-2.9-10
		c-0.3-9.6-4.5-17.5-12-23.5c-14.1-11.3-34-7.7-41.1,7.9c-3.3,7.4-4.9,15.6-7.2,23.5C1715-283.3,1715.1-283.5,1715.1-283.5z
		 M1766.9-330.7c14.2,0,25.7-11.5,25.6-25.7c0-14-11.5-25.5-25.5-25.6c-14.3,0-25.9,11.5-25.8,25.9
		C1741.3-342.2,1752.8-330.7,1766.9-330.7z M1720.8-94.9c39.4,0,78.6,0,117.6,0c0-3.5,0-6.7,0-9.9c-39.3,0-78.4,0-117.6,0
		C1720.8-101.4,1720.8-98.3,1720.8-94.9z"/>
	<path d="M1824.8-228.1c5.2,1.2,8.4-1.2,11.9-5.1c14.2-15.7,37.6-19.9,56.7-10.6c18.9,9.1,30.3,30.1,27.3,50.4
		c-3.2,21.6-19.2,38.2-40.3,41.8c-29.9,5.1-57.2-18-57-48.3c0-3.2-0.7-5.8-2.4-8.4c-2.4-3.7-4.6-7.4-6.8-11.2
		c-2.6-4.6-0.5-8.4,4.8-8.5C1821-228.1,1822.9-228.1,1824.8-228.1z M1827.5-218.3c0,0.4,0.1,0.7,0.1,1.1c1.1,1.8,2.1,3.7,3.3,5.4
		c2.2,3.2,3,6.5,2.8,10.5c-1.2,24.8,20.8,44.3,45.2,40.5c17-2.7,30.5-16.5,32.8-33.6c2.3-16.8-6.9-33.6-22.3-40.7
		c-15.7-7.3-34.4-3.8-45.6,9.3C1839.4-220.5,1835.6-215.7,1827.5-218.3z"/>
	<path d="M1829.4-130.4c-1.6,1.7-2.8,3.6-4.4,4.5c-2.1,1.2-4.4,0.4-5.6-1.6c-2.2-3.9-4.3-7.9-6-12c-0.9-2.2,0.1-4.2,2-5.6
		c2-1.4,4.6-1.6,5.8,0.3C1824.1-140.4,1826.4-135.7,1829.4-130.4z"/>
	<path d="M1833.6-131.4c0.4-0.9,1-2.3,1.6-3.6c1.4-2.9,2.7-5.8,4.4-8.5c1.4-2.4,3.7-3.1,6.4-1.9c2.5,1.1,3.7,3.8,2.6,6.4
		c-1.7,3.8-3.5,7.5-5.6,11.2c-1.2,2.1-3.4,3-5.8,2.2C1834.8-126.5,1833.6-128.3,1833.6-131.4z"/>
	<path d="M1715-283.3c2-1.6,3.9-3.4,6.8-2c2.9,1.4,3.2,4,3.2,6.7c0,8.7-0.1,17.3,0,26c0,6.7,2.6,10,9,11.7
		c11.5,3.1,23.1,6.2,34.6,9.3c0.7,0.2,1.4,0.4,2.2,0.5c3.1,0.4,5.5-1.1,6.2-3.8c0.6-2.6-0.9-5.2-3.9-6c-6.2-1.8-12.4-3.4-18.5-5
		c-2.4-0.6-4.8-1.2-7.1-2c-4.9-1.6-7.6-5.8-7.2-10.8c0.7-7.9,1.5-15.7,2.3-23.6c0.4-3.6,2.4-5.5,5.5-5.4c3.1,0.2,5,2.4,4.7,6
		c-0.6,7.9-1.5,15.7-2.3,24c5.8,1.6,11.6,3.1,17.3,4.7c2.6,0.7,5.2,1.3,7.7,2c8.7,2.5,13.5,10.4,11.4,18.7
		c-2.1,8.4-10.1,13.3-18.8,11.2c-13-3.3-26-6.7-38.9-10.5c-8-2.3-13.5-8-14-16.2c-0.8-11.8-0.1-23.7,0-35.5
		C1715.1-283.5,1715-283.3,1715-283.3z"/>
	<path d="M1895.8-218.3c-1.1,2-1.7,3.5-2.7,4.6c-11.6,11.7-23.2,23.3-34.9,34.9c-2.5,2.5-5.5,2.6-7.7,0.6c-2.3-2.2-2.1-5.2,0.5-7.9
		c11.5-11.6,23.1-23.1,34.6-34.7c1.7-1.7,3.7-3,6-1.7C1893.3-221.5,1894.4-219.8,1895.8-218.3z"/>
	<path d="M1859.3-202.4c-5.6,0-10.3-4.5-10.3-10.1c-0.1-5.7,4.6-10.4,10.3-10.4c5.6,0,10.2,4.7,10.2,10.2
		C1869.5-207.1,1864.9-202.5,1859.3-202.4z"/>
	<path d="M1885-197.3c5.6,0.1,10.2,4.7,10.2,10.3c0,5.7-4.8,10.4-10.5,10.2c-5.6-0.1-10.1-4.9-10-10.4
		C1874.7-192.8,1879.4-197.3,1885-197.3z"/>
</g>
<g>
	<path d="M568.2,1288.1c-4.4,4.8-7.3,8.3-10.5,11.5c-22.8,22.9-45.8,45.8-68.6,68.7c-2,2-4.1,4.6-4.5,7.3
		c-8.6,55.4-4.9,109.3,20.8,160.3c3.8,7.5,8.8,14.5,13.4,21.6c2,3.1,3.9,6.6-0.1,8.7c-1.8,0.9-6.3-0.7-7.8-2.5
		c-17.5-22.5-27.9-48.3-34.3-75.8c-12.3-53.7-7.3-106.7,7.6-159.1c6.6-23.3,15.7-46,21.7-69.5c14-55.3,11.1-109.6-14.2-161.6
		c-1.5-3.1-3.3-6-5.2-9.5c-2.9,3.3-5.5,6.4-7.3,8.5c5.9,18.3,13.3,36.6,17.6,55.6c10.8,47.8,5.2,94.9-10.5,140.9
		c-7.3,21.4-17.1,42.1-23.8,63.7c-21,67.4-16.7,133.9,9.4,199.2c0.5,1.3,1.7,2.6,1.5,3.8c-0.4,2.4-1.5,4.8-2.2,7.1
		c-2.3-1-4.8-1.6-6.7-3.1c-1.3-1-1.6-3.2-2.3-4.9c-29.6-75.9-31.6-152-1.2-228c11.3-28.4,22.5-56.6,27.2-87
		c7-44.7,3.7-88.2-14.3-130.2c-1.2-2.9-2.7-5.7-4.2-8.9c-3.2,3.4-6,6.3-9.2,9.7c17.5,32.8,21.3,69,18.1,106.1
		c-3,34.6-12.4,67.6-26.6,99.2c-19,42.6-28.6,87-26.6,133.7c1.5,35.6,8.7,70,22.4,102.9c0.5,1.3,1.7,2.7,1.5,3.8
		c-0.5,2.4-1.7,4.6-2.6,6.9c-2.1-0.9-5.1-1.2-6.1-2.8c-2.3-3.6-3.8-7.8-5.3-11.9c-14.8-39.6-21.5-80.5-19.7-122.8
		c0.1-2.3,0-4.6,0-8.1c-21,10.9-43.8,16.2-60.7,33.5c-25.8,26.5-52.2,52.3-78.3,78.5c-1.5,1.5-2.8,3.5-4.6,4c-1.8,0.6-4.9,0.5-6-0.6
		c-1.2-1.2-1.3-4.2-0.7-6c0.6-1.8,2.6-3.1,4.1-4.6c25.1-25.2,50.4-50.2,75.4-75.5c10.6-10.8,22.6-19.3,36.6-25.1
		c10.4-4.3,20.6-8.9,30.7-13.8c2.2-1.1,4.7-3.8,5-6.1c3.9-31.2,13-60.8,25.6-89.6c14.7-33.6,24.3-68.7,26.2-105.5
		c1.6-30.7-2.6-60.3-16.9-90.7c-3.3,4-5.5,7.6-8.6,10c-1.6,1.3-4.8,0.7-7.2,1c0.1-2.6-0.3-5.4,0.3-7.9c0.4-1.5,2.4-2.7,3.7-4
		c38.8-38.8,77.5-77.6,116.4-116.3c6.7-6.7,10.9-14.3,10.2-23.8c-1-11.7-6.9-20.3-18.1-24.6c-10.8-4.1-20.7-2-29.4,5.6
		c-1.9,1.7-3.6,3.5-5.4,5.3c-62.8,62.8-125.6,125.6-188.4,188.4c-2.6,2.6-5.3,5-7.2,6.8c6.1,15.3,12.9,30.1,17.7,45.5
		c2.9,9.4,3.1,19.8,3.8,29.8c0.1,1.9-3.1,4.1-4.8,6.2c-1.6-2.1-4.7-4.2-4.7-6.2c0.1-24.5-9.1-46.1-20.9-66.8
		c-5.8-10.1-12.3-19.9-19.3-29.3c-3.6-4.9-3.8-8.3-0.1-13.3c18.2-24.5,36.2-49.1,54-73.9c12.6-17.6,2.6-40.4-18.4-42.1
		c-9.1-0.8-16.8,2.5-22.4,9.7c-24.1,31-48.3,61.8-71.8,93.2c-4.3,5.8-7.4,13.6-8,20.8c-3.4,39.3-6,78.7-8.5,118.1
		c-1.4,21.3-8.9,39.7-23.9,54.8c-23.8,23.9-47.7,47.7-71.6,71.6c-2.6,2.6-5.4,6.2-9.2,2.6c-4.1-3.8-0.7-6.9,2.1-9.8
		c23-23,45.9-46.3,69.2-69.1c15.1-14.8,22.3-32.4,23.6-53.3c2.4-38.2,5.3-76.4,8-114.7c0.7-10.6,4.5-20.1,10.9-28.4
		c23.4-30.3,46.8-60.7,70.4-90.9c13-16.7,34.5-19.8,50.7-7.8c16.3,12,19.5,34.1,7.1,51.4c-16.6,23.1-33.4,46.1-50.4,68.9
		c-3.2,4.3-3.2,7.2,0.1,11.2c3.5,4.2,6.4,9,11.2,15.9c1.7-2.8,2.7-5.5,4.5-7.3c64-64.2,128.1-128.3,192.3-192.4
		c21.4-21.4,55.4-14.4,64.9,13.3c1.4,4,1.9,8.3,3.2,14.1c6.6-6.9,12.3-13.4,18.6-19.3c11.5-11,25.1-14.2,40-8.8
		c15,5.4,23.3,16.6,25.2,32.3c1.4,11.5-2.7,21.6-10.8,31c3.2,0.4,5.6,0.6,7.9,1.1c14.6,3.2,24.9,11.7,29.5,26
		c4.5,14.2,1.8,27.4-8.6,38.3c-12.4,12.9-25.2,25.4-37.9,38.1c-1.6,1.6-3,3.2-5,5.4c3.4,0.5,6.1,0.7,8.7,1.3
		c29.8,6.6,40.9,41.8,19.9,64.1c-16.1,17-32.9,33.3-49.6,49.7c-4,3.9-5,7.6-4,12.8c7.1,36,14.1,72,20.9,108
		c8.1,42.7,10.6,85.5,3.6,128.7c-0.6,3.7-1.5,7.6-5.9,6.4c-1.8-0.5-4.2-4.8-3.9-7c8.9-57.2,0.5-112.9-12.8-168.3
		c-4.7-19.7-7.6-39.8-11.6-60.8c-0.8,2.3-1.4,3.7-1.8,5.1c-4.6,16.3-9.5,32.6-13.5,49c-1.4,5.5-1.8,11.8-0.7,17.3
		c9.1,45.4,14.3,91.1,10.1,137.5c-2.8,31-8.8,61.3-22.2,89.6c-1.8,3.7-3,10.3-9.4,7.1c-5.9-3-1.5-7.6,0.2-11.2
		c12.9-28.1,18.7-58,21.2-88.5c3.3-40.7,0.2-81.1-9-121.3c-2.8,8.2-5.7,16.3-8.3,24.5c-12.6,40.1-18.6,81.3-20.7,123.1
		c-0.3,6.2-0.6,12.4-0.9,18.6c-0.1,3.5-1.1,7.2-5.2,6.3c-2-0.4-4.7-4.4-4.6-6.6c0.7-17.4,1.7-34.8,3.2-52.2
		c3.8-43.7,15.1-85.7,30-126.7c2.5-6.7,3-13.1,1.4-20.1C570.4,1305.1,569.7,1297.8,568.2,1288.1z M488,1352c0.7,0.3,1.5,0.7,2.2,1
		c24.8-24.8,49.6-49.6,74.2-74.6c1.4-1.4,1.8-4.6,1.6-6.8c-0.8-10.1-2.1-20.1-3-30.1c-1.1-12.2-2.1-24.5-3.3-38.7
		c-7.6,7.8-14.1,14.4-20.6,21c-2.7,2.7-6.1,4.7-8.6,0.9c-1.1-1.6,0-6.2,1.7-8c7.4-8.1,15.6-15.5,23.1-23.6c2.2-2.4,3.7-6.3,3.7-9.4
		c-0.1-22.7-0.6-45.4-1.1-68.1c0-1.2-0.5-2.3-0.9-4.5c-8.1,8.3-15.3,16.1-23,23.2c-1.5,1.4-5.1,0.6-7.8,0.8c0.2-2.6,0.1-5.4,0.9-7.9
		c0.5-1.6,2.5-2.6,3.8-3.9c37.3-37.3,74.6-74.6,111.9-111.9c12.1-12.2,12.4-29.9,1.1-41.2c-11.4-11.3-28.7-11.1-40.7,0.8
		c-35.3,35.1-70.4,70.4-105.7,105.5c-2.8,2.8-3.2,4.7-1.1,8.1c18.9,32.2,27.3,67.3,28.4,104.3c1.2,39.1-7.7,76.3-21,112.8
		C497.6,1318.2,493.1,1335.2,488,1352z M587.3,1082.7c-0.7-0.7-1.3-1.3-2-2c-2.2,2.9-3.8,6.5-6.6,8.6c-8.6,6.6-11.5,14.9-10.9,25.6
		c2.1,43.3,3.3,86.6,5.6,129.8c1,17.7,4.1,35.3,6.2,52.9c0.6,0.1,1.2,0.1,1.8,0.2c4.5-17.9,9.5-35.7,13.4-53.7
		c1.9-8.6,2.7-17.6,2.2-26.4c-1-18.1-3.6-36-4.9-54.1C590.3,1136.7,588.9,1109.7,587.3,1082.7z M625.3,1120.5
		c16.3-15.7,33.5-31.1,49.4-47.8c8.5-9,7.4-23.3,0.1-33.2c-7.5-10.1-21-14.7-32.4-9.5c-6.2,2.9-12.2,7.6-16.4,13
		c-2.3,3-0.7,9-0.7,13.7C625.3,1078.3,625.3,1099.8,625.3,1120.5z M608.5,1232.7c17.9-17.5,35.3-33.5,51.5-50.5
		c8.7-9.1,8.1-23.6,0.7-33.8c-7.3-10.1-20.6-14-32.6-9.8c-3.7,1.3-5.3,3.3-5.8,7.3c-2.3,18-4.9,35.9-7.8,53.7
		C612.9,1210.4,610.6,1221.1,608.5,1232.7z M615,1055.6c-0.8-0.5-1.7-0.9-2.5-1.4c-2.8,3.3-5.2,7-8.5,9.8c-4.9,4.2-6.8,8.9-6.4,15.5
		c1.4,22,2,44,3.2,66c0.9,15.1,2.4,30.2,3.7,45.3C613.1,1146,617.5,1101.1,615,1055.6z"/>
	<path d="M619.9,1432.3c-1.4,18.7-2.3,33.3-3.9,47.9c-0.2,2.2-3.4,4-5.2,6c-1.6-2.4-3.2-4.7-4.7-7.1c-0.2-0.3,0.1-0.9,0.1-1.4
		c0.4-23.1,2.4-46.3,0.9-69.3c-1.6-24.6-6.5-49-10-73.5c-0.2-1.1-1-2.4-0.7-3.3c1-2.6,2.5-5.1,3.8-7.6c2,1.8,5.2,3.3,5.7,5.4
		c2.6,10.7,5.2,21.4,6.5,32.3C615.5,1386.5,617.7,1411.3,619.9,1432.3z"/>
	<path d="M608.4,1567.6c-5.2-1-6.8-3.7-5.2-7.7c4.7-11.2,9.5-22.3,14.6-33.2c0.8-1.6,3.9-2.2,6-3.2c1.1,2.2,3.6,4.9,3,6.5
		c-4.5,11.5-9.4,22.8-14.5,34C611.6,1565.6,609.5,1566.7,608.4,1567.6z"/>
</g>
<g>
	<path d="M1248.8,917.4c4.1,1,8.3,1.9,12.4,3c14.3,3.8,26.9,10.8,37.4,21.2c3.9,3.8,8.2,5.5,13.6,5.7c37.2,1.3,65.5,23.7,76,59.2
		c1.3,4.3,4.5,8.7,8.1,11.5c26.8,20.9,37.6,47.8,31.3,81.3c-1.3,6.7,0.1,11.6,4.9,16.4c13.9,13.6,22,30.3,25.2,49.4
		c0.3,1.7,0.5,3.5,0.5,5.3c0,5.1-3.2,9-7.9,9.3c-5,0.3-8.2-2.4-9.4-7.1c-0.7-2.8-0.9-5.8-1.5-8.7c-2.8-13.4-8.8-25.2-18.6-34.7
		c-10.1-9.8-12.9-20.7-10.3-34.6c4.8-25.1-3.7-46.1-24.2-61.5c-7.9-5.9-13.1-12.9-15.6-22.5c-6.9-26.3-30.6-44.9-58.3-45.5
		c-10.7-0.3-19.1-4-26.8-11.2c-22.4-21-54.9-24.2-81.8-9.7c-8.7,4.7-12.5,9.6-11.5,19.7c1.1,10.8,0.2,21.9,0.2,33.6
		c2.1-0.9,3.7-1.5,5.2-2.2c28.6-13.4,57.3-13.9,85.4,1.1c58.9,31.6,90.8,81.6,98.7,147.4c2.3,19,1.3,37.9-2,56.8
		c-0.3,1.9-0.1,4.4,0.9,6.1c4.1,7.9,5.7,16.1,5.7,24.9c0,2.3,1.4,5.1,3.1,6.8c3.7,3.7,7.9,6.9,12.3,10.6
		c14.8-8.8,26.1-20.9,32.9-36.9c3.6-8.5,7.6-11.2,13.1-8.9c5.6,2.3,6.7,7.3,3.2,15.5c-7.7,18.5-20.4,32.8-37.2,43.7
		c33.8,50,35.6,101,5,153.4c1.2,1.2,2.5,2.7,3.8,4c17.3,17.3,34.3,35,52.1,51.9c14.5,13.7,11.9,30.8,2.7,40.2
		c-8.5,8.7-25.9,12.8-40.6-2.7c-16.6-17.5-34-34.2-51-51.3c-1.5-1.5-2.5-3.6-3.5-5.1c-7.4,4.1-13.4,7.4-20.1,11
		c2.4,1.1,4.4,2,6.3,2.9c17.9,8,31,20.9,39.5,38.6c3,6.2,1.7,11.1-3.3,13.6c-5,2.4-9.5,0.4-12.6-5.9c-10.4-21.1-27.6-32.8-50.7-35.3
		c-16.3-1.8-32.8-1.9-49-3.7c-9.6-1.1-19.2-3.8-28.6-6.5c-7.5-2.1-10.2-6.9-8.1-12.4c1.9-5.2,6.8-6.6,13.9-4.2
		c40.3,13.2,77.5,7,110.7-19.3c35.8-28.4,50.5-76.2,37.8-120.6c-12.5-43.5-51.1-76.5-95.8-81.8c-72.6-8.6-133.9,49.6-128.7,122.5
		c2.2,30.2,15.1,55.6,37.4,76.2c1.3,1.2,2.7,2.3,3.9,3.6c3.5,3.8,3.7,8.6,0.4,12.2c-3.2,3.5-8.4,4.3-12.1,0.7
		c-7.9-7.8-15.2-16.3-22.9-24.4c-1.4-1.5-3.8-3.5-5.4-3.2c-17.2,3.3-32.6-1.9-47.6-9.2c-3.3-1.6-6.5-3.4-10.5-5.5
		c0,7.6,0,14.3,0,21.1c-0.2,22.4-14.7,39.1-36.8,42.6c-26.3,4.2-52.6,8.4-78.9,12.8c-20.8,3.5-35.8,15-45.3,33.7
		c-0.4,0.7-0.6,1.4-1,2.1c-2.8,5-7.2,6.8-11.7,4.7c-4.8-2.2-6.5-6.9-4-12.4c9.3-20.5,24.4-35.3,45.9-41.9
		c13.4-4.1,27.5-5.8,41.4-8.2c17.4-3,34.8-5.6,52.2-8.4c12.4-2.1,20.5-11.5,20.6-24.1c0.1-10,0.2-20-0.1-30
		c-0.1-2.1-1.5-4.7-3.2-6.1c-15.3-13.4-30.8-26.6-46.9-40.4c0.2-0.1-1.1,0.7-2.2,1.6c-24.9,18.9-52.4,22.1-81.9,13.5
		c-6.4-1.9-9-6.2-7.5-11.2c1.6-5.4,6.2-7.4,12.8-5.5c23.2,6.6,45,4.5,64.8-10.1c1.5-1.1,2.9-2.5,4.2-3.6
		c-4.6-9.5-8.8-18.7-13.5-27.7c-0.8-1.5-3.3-2.5-5.2-2.9c-31.9-6.4-53.7-28.8-58.5-61c-1.7-11.6-1.2-23.1,4.7-33.8
		c1-1.8,1.2-4.5,0.8-6.6c-8.4-54.3,1.1-104.6,33.5-149.6c19.2-26.7,43.9-46.9,74.5-59.2c24.3-9.8,48.7-8.3,72.4,2.8
		c1.9,0.9,3.8,1.9,6.8,3.3c0-5.3,0-9.9,0-14.4c0-8.6-0.3-17.3,0.1-25.9c0.3-5-1.5-7.3-5.8-9.8c-13.1-7.8-26.9-12.7-42.3-12.1
		c-16.7,0.7-31.6,6.1-43.7,17.6c-8.4,8-17.6,11.9-29.4,12.3c-27.4,0.9-49.9,19.6-57.1,46.2c-2.4,8.7-6.9,15.4-14.3,20.8
		c-22,16-30.4,37.7-25.1,64.4c2.4,12.2-0.4,22.2-9.2,31.1c-28.3,28.9-29.2,70.7-2.2,100.7c9.8,10.9,12,22.5,6.7,36.3
		c-7.8,20.2-5.7,39.6,6.3,57.7c4,6.1,3.6,11.4-1.1,14.4c-4.5,2.9-9.5,1.5-13.4-4.3c-15.2-22.8-18.3-47.2-8.8-72.8
		c3.1-8.3,2-14.1-3.9-20.7c-31.7-35-30.7-88.1,2.3-122.1c5.5-5.7,7-11.1,5.6-18.9c-5.6-32.5,4.9-59.1,31.1-79.1
		c4.6-3.5,7.6-7.4,9.2-13c9.5-34.2,38.5-57.1,74-58.4c6.5-0.2,11.4-2.3,16.2-6.7c12.9-12.2,28.2-19.5,45.8-22.2
		c1.1-0.2,2.2-0.7,3.3-1c6.7,0,13.3,0,20,0c14,2.9,27.4,7.4,39.7,15c2.5,1.5,7.5,1.4,9.9-0.1c12.3-7.6,25.7-12.1,39.8-14.9
		C1235.5,917.4,1242.2,917.4,1248.8,917.4z M1004.1,1189.1c3.3-1.2,6.2-3.3,9.1-3.2c10.4,0,12-6,13.4-14.9
		c5.1-32.1,21.3-58.6,44.4-80.9c4.1-3.9,9.1-3.8,12.6-0.2c3.6,3.6,3.5,8.4-0.2,12.6c-1.8,2.1-3.9,3.9-5.7,5.9
		c-24.8,27.1-39.1,58.3-34.5,95.7c2.7,22.1,7.4,44,11.3,66c4.4,24.4,13.8,46.9,30.5,65.1c13,14.2,27.9,26.9,43.2,38.8
		c10.8,8.4,23.3,15.1,35.7,21.2c7.1,3.4,15.6,4,24.1,6c-3.4-11.3-6.9-20.7-9-30.4c-2.1-9.7-2.8-19.6-4.1-29.6
		c-10.5,2.1-20.9,1.2-31-2.9c-6.7-2.7-9.1-6.9-7.3-12c2-5.5,6.6-6.8,13.7-4.5c4.4,1.4,9.1,2.5,13.7,2.7c10.4,0.4,12.8-1.8,15.2-11.7
		c1.5-6.1,3.3-12.2,4.8-17.6c-8.2-1.7-16-2.9-23.5-4.9c-6.4-1.7-8.9-6.1-7.3-11.2c1.6-5.4,6.1-6.8,12.8-5.5c7.4,1.4,15,2,22.6,2.4
		c3.6,0.2,6.4-1.6,8.5-5c3.4-5.5,7.3-10.7,11.7-15.4c6.6-7.1,13.9-13.6,21.1-20.7c-2.2-0.9-4.6-1.6-6.8-2.8c-5.6-3-7-10.7-1.9-14.1
		c2.6-1.7,7.2-2.3,10.3-1.4c12.6,3.9,24.7,4.4,37.4-0.1c7.7-2.7,15.9-4.3,24.1-5c10.2-0.8,20.6-0.2,31-0.2c2.2-14.4,2.5-28-0.4-41.6
		c-13.5-64.1-78.4-108.2-136.1-109.9c-25.3-0.8-48.7,6.4-70.8,18.4c-6.1,3.3-11.1,2.2-13.8-2.7c-2.6-4.9-0.9-9.8,5.4-12.8
		c9.2-4.4,18.3-9.2,27.9-12.2c12.4-3.9,25.3-6.3,38.9-9.6c0-6.1,0.1-13.1-0.1-20.2c-0.1-1.4-1.5-3.1-2.7-4
		c-24.8-17-51-19.4-77.8-5.8c-42.8,21.7-70.3,56.5-84.4,102.1C1002.3,1138,1000.8,1163.2,1004.1,1189.1z M1363.9,1188.6
		c2.4-17.9,2.3-35.7-0.9-53.4c-10.1-55.4-38.8-97.8-89.3-123.9c-26.8-13.9-53-10.5-78,5.6c-1.3,0.8-2.7,2.6-2.8,3.9
		c-0.3,7-0.1,14-0.1,20.2c82,14.9,136.2,57.8,151.7,142.4C1350.3,1185,1356.8,1186.7,1363.9,1188.6z M1024.4,1202.2
		c-12.3-0.3-23.5,9.6-25,22.3c-2.9,24.4,11.6,48.1,34.6,56.8c1.3,0.5,2.8,0.7,4.6,1.1C1033.8,1255.2,1029.1,1228.7,1024.4,1202.2z
		 M1422.6,1469.6c10.1,10.1,19.8,19.9,29.7,29.7c3.7,3.7,8,3.9,12.1,0.6c3.7-3,4.5-8.4,1-12c-10-10.3-20.4-20.3-30.5-30.1
		C1430.9,1461.7,1427,1465.4,1422.6,1469.6z M1396.9,1441.4c4.5,5.2,8.8,10.2,12.3,14.2c4.4-3.9,8.5-7.6,11.7-10.4
		c-4.6-5-9-9.9-13.1-14.3C1403.8,1434.7,1399.9,1438.4,1396.9,1441.4z M1342.8,1202.1c-0.5,4.4-0.9,8.4-1.3,12.1
		c9.1,3.4,17.6,6.6,26.1,9.9C1366.6,1211.7,1356.2,1202.2,1342.8,1202.1z"/>
	<path d="M1307.9,1245.7c53.2,0,97.4,43.9,97.3,96.7c-0.1,54-43.7,97.4-97.8,97.4c-53.1,0-96.4-43.9-96.3-97.6
		C1211.1,1289.4,1255,1245.7,1307.9,1245.7z M1348.5,1410.7c-1.5-1.8-2.9-3.6-4.4-5.4c-5.1-6-10.3-11.8-15.3-17.9
		c-3.4-4.2-3-8.9,0.5-12.2c3.5-3.3,8.3-3.2,12.2,0.3c1.7,1.6,3.2,3.5,4.7,5.2c5.5,6.3,10.9,12.7,16.7,19.4
		c18.2-18.9,26.5-40.5,24-66.1c-0.3-3.2-1.8-4.3-4.7-4.7c-7.7-1.2-15.4-3-23.2-3.8c-2.4-0.3-5.7,1-7.4,2.7c-5,5.2-9.3,11.1-14,16.6
		c-4.1,4.9-9.3,5.8-13.3,2.6c-4-3.2-4.3-8.7-0.4-13.6c5.1-6.4,10.3-12.8,15.8-19c5.4-6.2,12.3-8.8,20.6-7.2c6.5,1.2,13,2.2,19.8,3.4
		c-7.1-24.8-44-49.9-68.9-46.9c0.2,2.9,0.3,5.8,0.5,8.6c1,13.1,2.2,26.2,3,39.3c0.4,6.4-2.8,10.6-7.9,11.1
		c-5.2,0.5-9.1-3.7-9.7-10.3c-0.3-3.2-0.6-6.4-0.9-9.6c-1.2,0.2-1.6,0.2-1.9,0.4c-4.1,2.3-8.1,4.7-12.2,7c-6.8,3.9-12,3.5-14.9-1.3
		c-2.9-4.8-0.8-9.8,5.8-13.8c6.2-3.7,12.6-7.2,18.7-11.1c1.4-0.9,2.8-2.9,2.8-4.4c-0.1-5-0.8-10-1.3-15.5
		c-29.1,7-49.6,23.5-59.6,51.2c-9.7,26.6-5.2,51.5,11.2,74.9c8.1-6.1,15.9-11.7,23.3-17.8c1.6-1.3,2.4-4.4,2.4-6.7
		c0.2-7-0.2-14.1-0.3-21.2c-0.1-6.9,3.2-11,8.6-11.1c5.4-0.2,8.9,3.9,9,10.7c0.2,7.1,0.1,14.1,0.5,21.2c0.5,9.4-2.7,16.7-10.5,22.2
		c-6.8,4.8-13.4,10.1-20.1,15.2C1278.6,1424.8,1321.3,1428.3,1348.5,1410.7z"/>
	<path d="M1121.8,1158.6c11.7,0.1,23,2.2,33.6,7.1c5.9,2.7,8.1,7.3,6,12.2c-2,4.7-7.2,6.6-12.9,4c-18.9-8.7-37.8-6.1-56.9-0.9
		c-2.1,0.6-4.1,1.4-6.2,1.8c-5,1.2-9.4-1.2-10.9-5.6c-1.6-4.8,0.5-9.9,5.8-11.2c13.6-3.3,27.4-6.1,41.1-9.1
		C1121.6,1157.6,1121.7,1158.1,1121.8,1158.6z"/>
	<path d="M1247,1157.2c13.3,2.9,26.7,5.5,40,8.8c5.6,1.4,8,6.5,6.3,11.5c-1.5,4.5-6.1,6.4-11.6,5.3c-11.5-2.3-23-5.6-34.5-6.1
		c-8.9-0.3-18.1,2.5-26.8,5c-7,2-11.8,1.3-13.9-3.9c-2.2-5.2,0.3-9.5,7.1-12.6C1224.1,1160.6,1235.2,1158.7,1247,1157.2z"/>
	<path d="M1116.6,1238.8c-9-2.1-17.6-3.7-26-6.1c-5.3-1.5-7.6-6.2-6.3-10.9c1.4-4.9,6.2-7.5,11.7-5.6c13.8,4.8,27.5,4.9,41.4,0
		c5.7-2,10.1,0.4,11.8,5.4c1.7,4.8-0.6,9.6-6.5,11.2C1134.2,1235.2,1125.3,1236.8,1116.6,1238.8z"/>
</g>
<g>
	<path class="st0" d="M71.2,0.6C74,1,76.9,1.3,79.6,2c18.9,4.3,32.1,15.5,39.8,33.1c3,6.7,5.1,13.8,8,20.5
		c4.4,10.2,9.2,20.2,13.7,30.3c2.1,4.7-0.3,10.1-5.1,11.6c-1,0.3-2.2,0.3-3.3,0.4c-1.2,0.1-2.5,0-3.9,0c0,2.3,0,4.5,0,6.7
		c-0.1,3.8,0.2,7.7-0.3,11.5c-0.9,7-4.8,10.4-11.9,11c-3.3,0.3-6.6,0.2-9.9,0.5c-7,0.8-10.1,3.9-10.8,11c-0.2,2.4-0.3,4.8-0.4,7.2
		c-0.1,2.6-1.1,3.6-3.7,3.6c-20.5,0-41,0-61.5,0c-2.6,0-3.7-1-3.7-3.7c0-11.8-1-23.5-3.8-35c-2.1-8.8-5.5-17.2-8.9-25.6
		C11.5,78.5,9,71.8,8.3,64.6C6.1,42.2,16,19,39.1,7.2c7.1-3.6,14.7-5.7,22.6-6.4c0.4,0,0.7-0.2,1.1-0.2C65.6,0.6,68.4,0.6,71.2,0.6z
		 M89.6,143.5c0.3-2.5,0.4-4.9,0.8-7.3c1.2-7.6,5.6-12.4,13-14c2.4-0.5,4.9-0.5,7.3-0.8c2.4-0.2,4.8-0.2,7.2-0.6
		c2.9-0.5,4.2-1.9,4.7-4.8c0.2-1.1,0.3-2.3,0.3-3.5c0-5.4,0-10.9,0-16.3c0-3.6,0.8-4.3,4.4-4.3c1.8,0,3.6,0,5.4,0
		c2.9,0,4-1.7,2.8-4.4c-2-4.4-4.1-8.8-6.1-13.2c-5-10.9-9.9-21.8-13.8-33.2c-4.1-12.1-11.6-21.9-22.9-28.1C76,3.9,58.7,4,41.6,12.5
		C18.4,24.1,11.1,48.4,14.7,67.9c1.1,6,3.3,11.7,5.7,17.3c7.1,16.5,11.3,33.6,11.9,51.6c0.1,2.2,0,4.4,0,6.7
		C51.7,143.5,70.7,143.5,89.6,143.5z"/>
	<path class="st0" d="M28.4,58c0.2-20.9,17.5-37.6,38.4-37.3c20.6,0.3,37.5,17.5,37.3,37.9c-0.3,21.7-16.8,38-38.4,37.6
		C44.6,95.7,28.7,80.5,28.4,58z M66.2,90.6c17.5,0.1,32.2-14.3,32-31.7C98,38.3,82.9,26.7,66.4,26.7c-18.3,0-32.1,13.6-32.1,32
		C34.2,76.1,48.6,90.5,66.2,90.6z"/>
	<path class="st0" d="M66.2,58.5c7.5,0.3,13.4,3.4,17.5,9.8c1.1,1.7,0.8,3.4-0.7,4.3c-1.4,0.9-3.1,0.4-4.2-1.2
		c-6.3-9.5-18.6-9.5-25,0c-1.1,1.6-2.7,2.1-4.1,1.2c-1.5-0.9-1.9-2.6-0.8-4.3C52.8,62,58.7,58.8,66.2,58.5z"/>
	<path class="st0" d="M54.7,48.2c0-0.6-0.1-1.2,0-1.7c0.2-1.4,1.2-2.4,2.6-2.5c1.3-0.1,2.7,0.7,2.9,2c0.2,1.5,0.2,3.1,0,4.6
		c-0.2,1.4-1.6,2.2-3,2.1c-1.4-0.1-2.4-1.2-2.6-2.7C54.6,49.4,54.6,48.8,54.7,48.2C54.6,48.2,54.6,48.2,54.7,48.2z"/>
	<path class="st0" d="M77.9,48.4c0,0.5,0,1.1,0,1.6c-0.2,1.6-1.3,2.7-2.9,2.7c-1.5,0-2.8-1.1-2.9-2.7c-0.1-1-0.1-2,0-3
		c0.1-1.8,1.3-3,2.9-3c1.6,0,2.8,1.2,2.9,3C77.9,47.4,77.9,47.9,77.9,48.4C77.9,48.4,77.9,48.4,77.9,48.4z"/>
</g>
</svg>
