<?xml version="1.0" encoding="utf-8"?>
<!-- Generator: Adobe Illustrator 24.3.0, SVG Export Plug-In . SVG Version: 6.00 Build 0)  -->
<svg version="1.1" id="Layer_1" xmlns="http://www.w3.org/2000/svg" xmlns:xlink="http://www.w3.org/1999/xlink" x="0px" y="0px"
	 viewBox="0 0 150 150" style="enable-background:new 0 0 150 150;" xml:space="preserve">
<style type="text/css">
	.st0{fill:#005BAB;}
</style>
<g>
	<path class="st0" d="M54.5,6.8c2-3.1,4.8-5.5,8.7-5.7c8.9-0.3,17.9-1.2,26.7,0.4c10,1.8,17.2,11,17.3,21.2c0.1,7.7,0,15.5,0.1,23.2
		c0,0.8,0.5,1.6,0.8,2.3c0.5,1.5,1.4,2.9,1.6,4.4c0.3,2.6,0.1,5.1,0.1,7.7c-0.1,4.1-3.3,7.2-7.3,7.3c-1.1,0-2.3,0-3.4,0
		c-0.4,1.1-0.7,2.1-1.1,3.1c-2.4,6.1-6.3,11-11.8,14.5c-0.8,0.5-1.1,1-1.1,2c0.1,1.5,0,3.1,0,4.6c0,2.1,0.9,3,3,3
		c4.5,0,9.1-0.1,13.6,0c2.6,0.1,5.1,0.6,7.7,0.8c0.6,0,1.3-0.3,1.9-0.5c0.4-0.2,0.6-0.6,1-0.8c2.4-1.1,2.6-3,2.6-5.4
		c-0.1-25.9-0.1-51.9-0.1-77.8c0-6,4.4-10.5,10.1-10.4c5.1,0.1,9.4,4.2,9.7,9.4c0,0.6,0,1.2,0,1.9c0,26.3,0,52.6,0,78.9
		c0,1.2,0.3,1.8,1.3,2.5c12.1,8.2,11.3,26.5-1.6,33.5c-1.1,0.6-1.4,1.2-1.3,2.4c0.5,5.3,0.9,10.6,1.4,15.9c0.3,3.3-0.4,4.1-3.7,4.1
		c-40.4,0-80.9,0-121.3,0c-3.1,0-3.9-0.9-3.6-4c0.8-7.7,1.7-15.5,2.3-23.2c1.2-15.1,13.9-27,29-27.2c4.9-0.1,9.9,0,14.9,0
		c2.3,0,3-0.9,3.2-3.2c0.4-3.7-0.4-6.4-3.9-8.7c-5-3.3-7.9-8.4-9.7-14.2c-0.3-1-0.7-1.3-1.7-1.3c-0.8,0.1-1.5,0-2.3,0
		c-4-0.1-7.1-3.3-7.2-7.2c-0.1-2.6-0.2-5.2,0.1-7.7c0.2-1.6,1.1-3,1.6-4.5c0.3-0.7,0.7-1.5,0.7-2.2c0.1-9,0-17.9,0-26.9
		c0-8,5.2-13.2,13.3-13.2c1.4,0,2.8-0.1,4.2,0C51.7,6,53,6.5,54.5,6.8z M10.9,144.3c8.3,0,16.3,0,24.5,0c0-0.4,0-0.7,0-1
		c0-4.5,0-9,0-13.5c0-1.7,1.1-2.8,2.5-2.7c1.4,0,2.4,1.1,2.4,2.7c0,1,0,2,0,2.9c0,3.9,0,7.7,0,11.6c19.9,0,39.6,0,59.4,0
		c0-4.8,0-9.5,0-14.1c0-2,0.9-3.1,2.5-3.1c1.5,0,2.5,1.1,2.5,3.1c0,4.2,0,8.4,0,12.5c0,0.5,0,1.1,0,1.6c8.3,0,16.4,0,24.5,0
		c-0.4-5.1-0.9-10-1.3-15c-8.1,0.9-14.7-1.5-19.4-8c-4.7-6.5-4.9-13.6-1.5-20.9c-0.4-0.1-0.7-0.2-0.9-0.2
		c-5.4-0.1-10.7-0.2-16.1-0.3c-0.4,0-0.9,0.7-1.1,1.1c-2.9,8.3-10.3,13.7-18.9,13.7c-8.6,0-16-5.4-18.8-13.7c-0.3-1-0.8-1.1-1.7-1.1
		c-4.1,0-8.3,0-12.4,0c-11.2,0.1-21.1,8-23.5,18.9c-0.8,3.7-1,7.5-1.4,11.3C11.8,134.8,11.4,139.5,10.9,144.3z M70,30.6
		c-6,0-12-0.1-17.9,0c-3.8,0.1-6.8,3.4-6.8,7.3c0,7.8-0.1,15.6,0,23.3c0.3,12.6,11,23.3,23.6,23.7c14.3,0.5,25.8-10.6,25.8-24.9
		c0-7,0-14,0-21c0-6-3.9-9.3-9.8-8.3c-0.7,4.6-3.6,7.3-7.6,7.3C73.5,38,70.6,35.2,70,30.6z M102.2,45.4c0-0.4,0-0.7,0-1
		c0-7.1,0.1-14.1,0-21.2c-0.1-9.8-7.7-17.3-17.5-17.3c-6.4,0-12.9,0-19.3,0c-4.4,0-7.4,2.8-7.8,7.2c-0.1,1.7-1,2.7-2.4,2.7
		c-1.4,0.1-2.3-0.8-2.6-2.5c-0.3-1.7-1.1-2.4-2.8-2.4c-1.3,0-2.7,0-4,0c-4.9,0-8,3.1-8,8c0,8.3,0,16.7,0,25c0,0.5,0,1,0.1,1.5
		c0.8,0,1.5,0,2.4,0c0-2.3,0-4.6,0-6.8c0-7.6,5.3-12.9,13-12.9c5.6,0,11.2,0,16.9,0c1,0,1.6-0.2,2.2-1.2c0.9-1.7,1.9-3.4,3.1-5
		c1.1-1.6,3-1.6,4.2,0c0.8,1.1,1.7,2.2,2.1,3.4c0.9,2.5,2.6,3,5.1,2.9c7.7-0.1,12.9,5.2,13,12.8c0,2.3,0,4.5,0,6.8
		C100.6,45.4,101.3,45.4,102.2,45.4z M129.5,15.7c0-1.6,0-2.9,0-4.2c0-0.4,0-0.7,0-1.1c-0.2-2.5-2.2-4.4-4.7-4.6
		c-2.4-0.1-4.7,1.6-5.1,4c-0.1,0.7-0.1,1.3-0.1,2c0,27,0,54,0,81c0,1.9-0.6,3-2.3,3.9c-7.1,3.8-9.7,12.6-6,19.7
		c3.7,7.1,12.4,10.1,19.6,6.6c5.3-2.6,8.2-7,8.4-12.9c0.2-6-2.5-10.6-7.8-13.5c-1.4-0.8-2.2-1.8-2-3.4c0.1-1.1,0-2.1,0-3.2
		c-0.9,0-1.7,0-2.5,0c0,3.8,0,7.4,0,11.1c0,1.1,0.2,1.7,1.3,2.3c3,1.6,4.3,5.1,3.4,8.3c-0.9,3.3-3.8,5.5-7.2,5.4
		c-3.3,0-6.2-2.3-7.1-5.5c-0.9-3.3,0.5-6.8,3.4-8.3c1.1-0.6,1.3-1.2,1.3-2.3c0-21.2,0-42.5,0-63.7c0-0.6,0-1.2,0-2c2.6,0,5,0,7.3,0
		c0-1.7,0-3.2,0-4.9c-1.6,0-3.2,0-4.7,0c0-1.7,0-3.3,0-5c1.6,0,3.2,0,4.7,0c0-1.7,0-3.2,0-5c-1.7,0-3.2,0-4.8,0c0-1.7,0-3.2,0-4.9
		C126.2,15.7,127.7,15.7,129.5,15.7z M60.1,88.3c0,1.6,0,2.9,0,4.3c-0.1,2.5-1.1,4.5-3.1,5.9c-1,0.7-1.1,1.2-0.6,2.2
		c2.6,5.7,7,8.9,13.2,9.1c6.3,0.2,10.9-2.8,13.8-8.4c0.3-0.7,0.5-1.4,0.8-2.1c-4.6-2.4-4.4-6.6-4.2-10.9
		C73.3,90.5,66.8,90.5,60.1,88.3z M40.3,50.4c-0.7,0-1.3,0-1.8,0c-2.2,0-3.1,0.9-3.1,3.1c0,2.2,0,4.4,0,6.6c0,1.7,1,2.6,2.6,2.6
		c0.8,0,1.5,0,2.3,0C40.3,58.6,40.3,54.6,40.3,50.4z M99.8,62.7c0.9,0,1.7,0,2.5,0c1.4-0.1,2.4-1,2.4-2.5c0.1-2.5,0-4.9,0-7.4
		c0-1.3-0.8-2.2-2-2.4c-0.9-0.1-1.9,0-2.9,0C99.8,54.6,99.8,58.5,99.8,62.7z M77.8,25.5c-0.2,0-0.4,0-0.7,0.1
		c-0.7,1.6-1.5,3.1-2,4.8c-0.2,0.6,0.3,1.8,0.9,2.2c0.7,0.4,1.9,0.4,2.7,0.1c0.6-0.3,1.3-1.5,1.1-2.1C79.4,28.8,78.5,27.1,77.8,25.5
		z M124.5,112.3c1.3,0,2.5-1.1,2.5-2.4c0-1.4-1.1-2.6-2.5-2.5c-1.3,0-2.4,1.1-2.4,2.5C122,111.1,123.1,112.2,124.5,112.3z
		 M127.1,40.6c0,1.6,0,3.2,0,4.8c0.8,0,1.6,0,2.3,0c0-1.7,0-3.2,0-4.8C128.5,40.6,127.8,40.6,127.1,40.6z M127.1,55.2
		c0.8,0,1.6,0,2.3,0c0-1.7,0-3.2,0-4.8c-0.8,0-1.5,0-2.3,0C127.1,52.1,127.1,53.6,127.1,55.2z M127.1,60.4c0,1.6,0,3.2,0,4.8
		c0.8,0,1.6,0,2.3,0c0-1.7,0-3.2,0-4.8C128.5,60.4,127.8,60.4,127.1,60.4z M129.4,75.1c0-1.6,0-3.2,0-4.8c-0.8,0-1.5,0-2.3,0
		c0,1.7,0,3.2,0,4.8C127.9,75.1,128.6,75.1,129.4,75.1z M127.1,80.1c0,1.6,0,3.2,0,4.8c0.8,0,1.5,0,2.2,0c0-1.7,0-3.2,0-4.8
		C128.5,80.1,127.9,80.1,127.1,80.1z"/>
	<path class="st0" d="M25.4,92.5c-7,0-12.1-7.5-8.9-13.5c2-3.6,4.6-6.9,7-10.3c1-1.3,2.8-1.4,3.7,0c2.5,3.3,5.1,6.6,7,10.3
		C37.7,85,32.5,92.5,25.4,92.5z M25.8,74.1c-0.2,0-0.4,0-0.6-0.1c-1.4,2.3-2.9,4.5-4.1,6.8c-1.1,2-0.4,4.2,1.4,5.6
		c1.8,1.4,4.2,1.4,6,0c1.8-1.4,2.5-3.6,1.4-5.6C28.7,78.5,27.2,76.4,25.8,74.1z"/>
	<path class="st0" d="M23.1,50.4c-5,0-8.8-4.8-7.1-9.4c1.2-3.3,3.2-6.3,5-9.3c0.9-1.5,3-1.5,3.9,0c1.8,3,3.8,6.1,5,9.3
		C31.7,45.6,28,50.3,23.1,50.4z M23.3,37.9c-0.2,0-0.4,0-0.6,0c-0.7,1.6-1.5,3.1-2,4.8c-0.2,0.7,0.4,1.9,1,2.3c0.7,0.4,2,0.4,2.6,0
		c0.6-0.4,1.1-1.6,1-2.3C24.9,41,24,39.4,23.3,37.9z"/>
	<path class="st0" d="M57.6,50.2c-1.6,0.1-3.1,0.2-4.6,0.2c-1.7,0-2.8-1-2.7-2.5c0-1.5,1.1-2.5,2.8-2.4c4,0.1,7.3-1.2,10.1-4.1
		c1.2-1.2,2.7-1.2,3.7-0.2c1,1,0.9,2.5-0.2,3.7c-0.5,0.6-1.1,1.1-1.7,1.5c-1.5,1-2.6,2-2.4,4.1c0.1,1.3-0.9,2.1-2.3,2.2
		C58.9,52.9,58,52,57.6,50.2z"/>
	<path class="st0" d="M82.5,50.2c-0.5,1.9-1.4,2.8-2.8,2.7c-1.5-0.2-2.3-1.2-2.2-3.2c0.1-1.2-0.3-1.9-1.3-2.5
		c-1.1-0.7-2-1.6-2.9-2.5c-1-1.1-1-2.5,0-3.5c0.9-1,2.4-1.1,3.5,0c2.9,3.1,6.5,4.4,10.7,4.3c1.5,0,2.5,1.1,2.5,2.4
		c0,1.4-1,2.5-2.6,2.5C85.7,50.4,84.2,50.2,82.5,50.2z"/>
	<path class="st0" d="M70,69.3c3.6,0.1,6.5,1.4,8.9,3.8c1.3,1.3,1.4,2.8,0.3,3.8c-1,1-2.4,0.9-3.7-0.2c-3.6-3.2-7.3-3.2-11,0.1
		c-1.3,1.1-2.7,1.1-3.7,0.1c-1-1.1-0.9-2.5,0.3-3.7C63.6,70.6,66.7,69.4,70,69.3z"/>
	<path class="st0" d="M70.8,60.3c0.7,0,1.3,0,1.9,0c1.4,0.1,2.3,1.1,2.4,2.4c0,1.3-1,2.4-2.4,2.5c-1.7,0.1-3.4,0.1-5.1,0
		c-1.6-0.1-2.7-1.4-2.3-3c0.8-3.3,1.6-6.6,2.5-9.9c0.4-1.4,1.7-2.2,3-1.8c1.4,0.3,2.1,1.6,1.8,3.1C71.9,55.8,71.3,58,70.8,60.3z"/>
</g>
</svg>
