<?xml version="1.0" encoding="utf-8"?>
<!-- Generator: Adobe Illustrator 24.3.0, SVG Export Plug-In . SVG Version: 6.00 Build 0)  -->
<svg version="1.1" id="Layer_1" xmlns="http://www.w3.org/2000/svg" xmlns:xlink="http://www.w3.org/1999/xlink" x="0px" y="0px"
	 viewBox="0 0 150 150" style="enable-background:new 0 0 150 150;" xml:space="preserve">
<style type="text/css">
	.st0{fill:#075CAA;}
</style>
<g>
	<path class="st0" d="M132,87.9c-1,2-2.6,3.3-4.2,4.7c-3.9,3.6-8,7.1-12,10.6c-0.5,0.4-0.6,0.9-0.6,1.5c0.1,2,0.1,3.9,0.2,5.9
		c0.1,1.1-0.3,1.9-1.3,2.5c-4.4,3.1-8.7,6.3-13.1,9.3c-2,1.4-2.9,3.1-3.1,5.5c-0.6,6.5-1.3,13-1.9,19.4c-0.1,0.5-0.3,1.1-0.6,1.5
		c-0.5,0.6-1.2,0.6-1.9,0.3c-0.7-0.3-1.1-1-1-1.8c0.2-1.9,0.4-3.8,0.6-5.8c0.4-3.8,0.8-7.6,1.1-11.4c0.1-1.3,0.3-2.6,0.4-3.8
		c0.3-2.8,1.7-4.9,3.9-6.5c4.1-2.9,8.2-5.9,12.3-8.8c0.7-0.5,1.1-1,1-2c-0.3-4.5-0.6-9-0.9-13.5c-0.1-1.6-0.4-3.1-0.5-4.6
		c-0.1-1.8-0.5-3.4-0.7-5.2c-0.5-2.9-1.1-5.8-1.8-8.9c-0.5,0.1-1,0.2-1.4,0.4c-6.8,2.1-13.8,3.1-20.8,3.9c-4.4,0.4-8.6-0.1-12.7-1.4
		c-0.4-0.1-0.8-0.2-1.2-0.3c-0.1,0-0.2,0-0.3,0c-0.1,0.1-0.2,0.3-0.3,0.5c-1.7,5.4-5.6,8-11,8.5c-2.7,0.2-5.5-0.1-8.3-0.2
		c-0.4,0-0.9-0.2-1.2-0.5c-0.4-0.2-0.7-0.3-1.2-0.3c-1.8-0.2-3.4-0.9-5-1.7c-0.7-0.4-1.5-0.7-1.5-1.7c0-0.1-0.1-0.2-0.1-0.2
		c-1.2-0.2-2-1-2.8-1.8c-0.1-0.1-0.6,0.1-0.9,0.2c-2.1,1-4.2,2-6.3,3c-0.3,0.2-0.7,0.5-0.9,0c-1.4,0.9-2.8,1.8-4.2,2.6
		c-0.4-0.3-0.7-0.6-1-0.8c0,0-0.1,0.1-0.1,0.1c0.1,0.2,0.2,0.4,0.3,0.8c-0.6,0.4-1.2,0.8-1.8,1.2c-2.4,1.3-4.9,2.6-7.3,3.9
		c-2,1-3.8,2.3-5.6,3.5c-1.6,1-2.7,2.4-3.2,4.3c-0.9,3.6-2,7.2-2.6,10.9c-1,6-1.6,12-2.4,18.1c0,0.2-0.1,0.5-0.1,0.7
		c-0.1,1.8,0.2,2.2,1.9,3c2.8,1.1,5.7,1.6,8.6,2c2,0.3,4.1,0.4,6.1,0.6c0.4,0,0.9,0,1.5,0c0-0.5,0.1-1,0.1-1.5c0-5.8,0-11.7,0-17.5
		c0-0.4,0-0.8,0-1.2c0.1-0.9,0.8-1.6,1.7-1.6c0.9,0,1.6,0.6,1.7,1.5c0,0.3,0,0.6,0,1c0,9.9,0,19.9,0,29.8c0,0.3,0,0.6,0,1
		c-0.1,1.1-0.7,1.7-1.7,1.7c-1,0-1.7-0.6-1.8-1.7c0-1.7,0-3.5,0-5.2c0-0.8,0-1.7,0-2.7c-0.5-0.1-0.8-0.1-1.2-0.1
		c-2.7-0.3-5.4-0.5-8.2-0.8c-1-0.1-1.9-0.5-2.9-0.7c-1.2-0.3-2.3-0.5-3.6-0.7c0,0.2-0.1,0.5-0.1,0.7c0,3,0.1,6.1,0.1,9.1
		c0,0.2,0,0.4,0,0.6c-0.1,0.9-0.8,1.4-1.7,1.5c-0.9,0-1.6-0.5-1.7-1.4c-0.1-0.5-0.1-1.1-0.1-1.7c0-2.2,0-4.4,0-6.7
		c0-0.8,0.3-1.6,0.5-2.7c-0.4-0.8-1.1-1.8-2.2-2.4c-0.5-0.3-0.6-0.8-0.6-1.5c0.4-9.2,1.6-18.3,3.6-27.3c0.6-2.6,1.5-5.2,2.4-7.7
		c0.5-1.5,1.6-2.7,2.9-3.6c2.9-2.1,5.9-4,9.2-5.5c0.7-0.3,1.3-1,2-1.2c2.5-0.8,4.4-2.7,7-3.2c0.6-0.1,1-1,1.9-0.7
		c0,0,0.2-0.1,0.2-0.1c0.1-1,1-1,1.6-1.3c2.3-1.1,4.6-2.2,7-3.3c0.7-0.3,0.9-0.7,0.9-1.5c0-2.1,0-4.2,0-6.3c0-0.9-0.2-1.7-0.8-2.3
		c-1.3-1.3-2.5-2.6-3.8-3.8c-2.5-2.2-5.1-4.3-7.6-6.5c-2.8-2.6-5-5.7-6.3-9.5c-1.2-3.7-1.3-7.4,0.4-11c0.6-1.4,0.9-2.7,0.8-4.3
		c-0.3-4.9,1.6-9.1,4.9-12.7c2.2-2.4,4.9-4.2,7.7-5.7c3.5-1.9,7-3.6,10.5-5.5c1.5-0.9,2.9-2,4.2-3.2c1.3-1.2,2-2.7,2.1-4.5
		c0.1-1.7,1.1-2.3,2.6-1.7c2.1,0.8,3.9,1.9,5.5,3.4c2.3,2.1,3,4.7,2.4,7.7c-0.3,1.5-0.8,2.9-1.3,4.5c0.1,0.1,0.2,0.3,0.4,0.5
		c2.7,2.1,4.9,4.6,6.9,7.3c0.6,0.8,1.3,1.3,2.2,1.8c2.1,1.3,4.2,2.6,6.3,4c0.7,0.5,1.4,1.3,1.9,2c0.9,1.2,1,2.6,0.2,3.9
		c-0.6,1.1-1.2,2.2-1.8,3.3c0.6,0.9,1.3,2,1.9,3.1c0.7,1.3,0.5,1.9-0.5,2.8c-0.9,0.9-1.8,1.9-2.8,2.9c1.3,0.8,2.6,0.8,3.9,1
		c1.7,0.2,2.2,0.6,2.2,2.3c0,1.4,0,2.8,0,4.2c0,3.2-1.5,5.4-4.4,6.8c-1.2,0.6-2.5,1.1-3.8,1.5c-1.1,0.4-1.6,1.1-1.6,2.4
		c0.1,2.9,0,5.9,0,8.8c0,0.8,0.2,1.1,1,1.3c2,0.5,4,1.2,6.1,1.5c1.7,0.3,3.5,0.2,5.3,0.1c7.2-0.5,14.4-1.6,21.3-3.7
		c3.5-1.1,6.8-2.5,10-4.2c0.8-0.4,1.1-0.9,0.8-1.8c-1.4-5.5-2.8-11.1-4.2-16.6c0,0,0-0.1,0-0.1c-0.3-1.1,0.1-2,1.1-2.4
		c0.9-0.3,1.9,0.2,2.3,1.3c0.4,1,0.7,2,0.9,3c1.3,5.3,2.6,10.6,3.8,16c0.3,1.3,0.1,1.8-1.1,2.5c-1.8,1-3.6,2-5.4,3
		c-0.7,0.4-1.5,0.7-2.3,1.1c0.3,1.7,0.7,3.3,0.9,5c0.3,2.2,0.5,4.5,0.8,6.7c0.1,0.7,0.5,1.4,0.6,2.1c0.2,1.7,0.6,3.4,0.5,5.2
		c-0.1,1.4,0.5,2.8,0.9,4.5c1-0.8,2-1.6,2.9-2.4c2.4-2.1,4.7-4.3,7-6.4c0.5-0.5,1.1-0.8,1.6-1.3c2.8-3.2,5.6-6.2,7.9-9.8
		c1.5-2.4,1.9-4.9,1.4-7.6c-0.9-5.5-2.5-10.7-4.2-16c-1.5-4.6-3.3-9.1-4.9-13.6c-0.1-0.3-0.2-0.5-0.2-0.8c-0.2-0.9,0.3-1.8,1.1-2
		c0.8-0.3,1.7,0,2.1,0.9c0.5,1,0.9,2.1,1.3,3.1c2.9,7.6,5.6,15.3,7.4,23.2c0.4,1.9,0.7,3.8,1.1,5.7c0.6,3.2-0.2,6.2-2,8.8
		c-1.3,1.9-2.7,3.8-4.2,5.6C133,87.3,132.4,87.6,132,87.9c0-0.1,0-0.1,0-0.2C132,87.8,132,87.9,132,87.9z M78,52.5
		c-0.6-0.1-1.1-0.2-1.6-0.3c-1.7-0.4-3.2-1-4.6-2.1c-1.3-1.1-1.3-2.1-0.2-3.3c1-1,2-2,3.1-3c0.4-0.4,0.4-0.8,0.2-1.3
		c-0.5-1-1-2-1.2-3c-0.2-0.6-0.1-1.5,0.1-2.1c0.4-0.8,1-1.5,1.7-2.2c0.8-0.8,0.8-0.8,0-1.6c-2.3-2.2-5.1-3.6-7.8-5.2
		c-0.7-0.4-1.4-1-1.9-1.6c-1.9-2.5-3.9-5-6.4-7c-1.2-1-1.2-1-2.4-0.1c-2,1.6-4.1,3.1-6.1,4.8c-1.6,1.4-3.1,3-4.6,4.6
		c-0.9,1-1.3,2.1-1,3.5c0.2,1.1,0.3,2.2,0.6,3.3c0.5,2.1,1.1,4.1,1.6,6.2c0.5,1.9-0.1,3.4-1.6,4.6c-0.5,0.4-1.1,0.8-1.6,1.2
		c-1.9,1.6-1.9,4.1,0,5.7c0.6,0.5,1.2,0.9,1.7,1.3c0.8,0.7,1.5,1.5,1.7,2.6c0.4,2.1,0.6,4.1,0.3,6.2c-0.5,3-1.7,5.6-4.4,7.2
		c-0.5,0.3-0.7,0.6-0.7,1.2c0,2.3,0,4.5,0,6.8c0,0.3,0,0.7,0.2,0.9c1,1.7,2.5,3,4.2,3.7c1.5,0.6,3.1,1.3,4.9,1.5
		c2.8,0.3,5.5,0.6,8.3,0.3c4.7-0.6,8.2-3.7,8-8.9c-0.1-3.7,0-7.3,0-11c0-1.7,0.7-3,2.2-3.9c0.5-0.3,1.1-0.6,1.7-0.9
		c1.2-0.5,2.5-1,3.7-1.5c1.2-0.5,2-1.4,2.1-2.7C78,55.1,78,53.8,78,52.5z M42,68c0.7-1,1.3-1.7,1.7-2.5c0.8-1.5,0.8-3.2,0.7-4.8
		c-0.1-1.7-0.4-3.2-2.2-4c-0.1-0.1-0.3-0.2-0.4-0.3c-3.6-3-3.6-8.2,0-11.2c0.7-0.6,1.8-1.2,2-1.9c0.2-0.8-0.3-1.8-0.5-2.8
		c0-0.2-0.1-0.4-0.2-0.6c-0.5-2.2-1-4.4-1.5-6.6c-0.4-2,0-3.9,1.2-5.5c1-1.3,2.1-2.7,3.3-3.9c2.9-3,6.3-5.5,9.7-7.9
		c0.7-0.5,1.3-1.2,1.7-2c0.5-1,0.8-2.2,0.9-3.4c0.3-2.6-1.3-4.8-3.9-5.6c-0.7,1.1-1.2,2.3-2,3.3c-2,2.6-4.8,4.3-7.6,5.8
		c-3,1.6-6,3-9,4.6c-3,1.6-5.7,3.4-7.7,6.2c-2,2.8-3.3,5.9-2.8,9.3c0.2,1.7,0,3.1-0.7,4.5c-0.5,1-0.8,2-1.1,3.1
		c-0.2,0.6-0.3,1.3-0.3,2c0,2.5,0.7,4.8,1.9,7c1.7,3.2,4.3,5.6,7,7.9C35.5,61.7,39.2,64.1,42,68z"/>
	<path class="st0" d="M118.6,11c4.4-4.3,9.8-6.7,14.8-9.6c3-1.7,6.5-0.7,8.3,2.3c2.3,3.9,4.6,7.9,6.8,11.8c1.7,3.1,0.8,6.7-2.2,8.5
		c-3.4,2-6.7,4.1-10.2,5.9c-2.1,1.1-4.4,1.7-6.7,2.5c-0.9,0.3-1.9,0.6-2.9,0.9c-2.7,0.9-4.8,2.6-6.7,4.7c-4.8,5.5-10.9,7.7-18.1,7.4
		c-1.2-0.1-2.3-0.3-3.4-0.6c-0.7-0.2-1.2-0.1-1.7,0.2c-1.2,0.7-2.5,1.5-3.7,2.2c-1.5,0.9-2.3,0.6-3.2-0.9c-1-1.8-2.1-3.6-3.1-5.4
		c-0.4-0.8-0.8-1.6-1.2-2.4c-0.3-0.6-0.1-1.2,0.4-1.6c0.3-0.3,0.6-0.5,1-0.7c1.3-0.8,2.6-1.5,3.9-2.3c0.3-0.2,0.6-0.6,0.7-0.9
		c1.2-4.6,3.8-8.3,7.5-11.2c0.6-0.5,0.8-0.9,0.6-1.6c-0.5-2.1,0.1-4.1,1.5-5.7c2.8-3.2,6.3-5.3,10.3-6.4c2.7-0.7,5.1,0.1,6.9,2.4
		C118.2,10.6,118.4,10.7,118.6,11z M92.2,43.5c1.2-0.7,2.3-1.2,3.3-1.9c1.1-0.7,2.1-1,3.4-0.3c0.3,0.2,0.8,0.3,1.2,0.3
		c6.7,1.1,12.5-0.7,17.1-5.9c2.6-3,5.6-5.1,9.4-6.2c0.9-0.3,1.9-0.5,2.8-0.8c1.7-0.6,3.4-1,5-1.9c3.5-1.9,6.8-3.9,10.3-5.9
		c0.8-0.5,1.3-1.2,1.4-2.2c0.2-1.3-0.7-2.6-1.8-2.6c-8.3,0-16.6,0-25,0c-0.4,0-1,0.2-1.3,0.5c-2.6,2.3-5.6,3.7-8.9,4.2
		c-3.4,0.5-6.2,2.1-8.7,4.4c-2.9,2.6-4.9,5.7-5.6,9.6c-0.1,0.5-0.6,1.2-1.1,1.5c-0.8,0.6-1.8,1-2.8,1.4c-0.9,0.4-1.3,0.9-1,1.5
		C90.5,40.7,91.3,42,92.2,43.5z M142.7,12.6c-0.1-0.3-0.1-0.5-0.2-0.6c-1.3-2.2-2.5-4.4-3.8-6.6c-0.9-1.4-2.3-1.7-3.9-0.9
		c-1.6,0.9-3.2,1.8-4.8,2.8c-2.4,1.5-4.8,3-7.1,4.5c-0.2,0.2-0.4,0.4-0.7,0.8C129.2,12.6,135.8,12.6,142.7,12.6z M102.7,18.9
		c0.4,0,0.5,0,0.7-0.1c2-0.6,4-1.2,6-1.7c2.1-0.5,4.1-1.4,5.8-2.9c0.8-0.7,0.8-0.9,0.2-1.8c-0.9-1.2-2.2-1.6-4-0.9
		c-2.6,1-5,2.4-7,4.3c-0.4,0.4-0.8,0.8-1,1.3C103,17.7,102.9,18.3,102.7,18.9z"/>
	<path class="st0" d="M132,87.9c0-0.1,0-0.1,0-0.2C132,87.8,132,87.9,132,87.9C131.9,87.9,132,87.9,132,87.9z"/>
</g>
</svg>
