<?xml version="1.0" encoding="utf-8"?>
<!-- Generator: Adobe Illustrator 24.3.0, SVG Export Plug-In . SVG Version: 6.00 Build 0)  -->
<svg version="1.1" id="Layer_1" xmlns="http://www.w3.org/2000/svg" xmlns:xlink="http://www.w3.org/1999/xlink" x="0px" y="0px"
	 viewBox="0 0 150 150" style="enable-background:new 0 0 150 150;" xml:space="preserve">
<style type="text/css">
	.st0{fill:#5F6368;}
	.st1{fill:#005BAB;}
</style>
<path class="st0" d="M2053.7-657.2c-2.1,0-3.6,0-5.1,0C2049.8-661.3,2051.5-660.2,2053.7-657.2z"/>
<g>
	<path class="st1" d="M4,127.1c-1.9-0.4-2.6-1.6-2.6-3.4c0.1-6.3,0-12.6,0-18.9c0-2.1,0.5-2.9,2.6-3.3c1.4-0.3,1.8-1,2.1-2.3
		c0.8-3.5-0.3-6.8-0.8-10.2c-2-14.3-2.2-28.6-0.3-43c0.4-3,1.1-6,1.3-9.1c0.1-2-0.2-4-0.7-5.9c-1.3-4.9,1.1-8,6.2-8.2
		c6-0.3,12-0.9,18-1.4c14.2-1.1,28.4-3.4,42.6-2.9c7.9,0.2,15.8,1,23.7,1.7c6.3,0.5,12.6,1.1,18.9,1.7c1.2,0.1,1.8-0.4,2.4-1.6
		c-3,0-5.9,0-8.8,0c-2,0-3.2-0.9-3.2-2.5c0-1.6,1.1-2.6,3.1-2.6c4.7,0,9.4,0,14.1,0c1.3,0,2.3,0.4,2.8,1.6c0.5,1.2,0,2.1-0.7,3
		c-0.7,0.8-1.4,1.6-2.3,2.7c2.1,0.1,3.9,0.2,5.7,0.3c4.9,0,7.5,3.4,6,8c-1.1,3.5-0.7,6.9-0.1,10.3c2.6,16,2.7,32.1,0.3,48.1
		c-0.2,1.4,0,2.2,1.4,3c14.2,8.1,17.1,26.9,6.2,39.1c-0.5,0.6-0.9,1.5-0.9,2.3c-0.1,4.2,0,8.5,0,12.7c0,2.5-0.8,3.4-3.3,3.4
		c-43.5,0-87,0-130.5,0c-2.4,0-3.2-0.9-3.2-3.3C4,140.1,4,133.7,4,127.1z M50.9,99.2c-0.5-2.6-0.5-2.6-2.6-3.2
		c-5.2-1.6-8.8-6.4-8.9-11.9c-0.1-3.7-0.1-7.4,0-11.1c0.1-8.9,3-16.8,8.5-23.7c8.9-11.1,22.9-14.4,34.7-7.8
		c9.7,5.4,15.1,14.2,16.9,25c0.9,5.5,0.7,11.1,0.7,16.7c0.1,6.6-3.5,11.3-9.8,13.1c-0.4,0.1-0.9,0.4-1,0.8c-0.8,1.8-1.5,3.7-2.4,5.7
		c3.9,0.2,7.8,0.4,11.7,0.6c1.1,0.1,1.6-0.4,2.2-1.3c5-8.6,12.6-13,22.5-13.1c1.9,0,3.7,0.3,5.8,0.5c0.3-2.8,0.7-5.6,1-8.4
		c1.2-12.5,1-24.9-0.9-37.3c-0.7-4.9-1.7-9.7,0.1-14.5c0.3-0.9-0.1-1.2-1-1.3c-3-0.2-5.9-0.4-8.8-0.6c-0.5,0-1.2,0-1.4,0.3
		c-1.5,1.6-2.9,3.4-4.6,5.3c3.5,0,6.5,0,9.6,0c1.6,0,2.7,1.1,2.7,2.5c0,1.4-1,2.5-2.5,2.5c-5.1,0-10.1,0.1-15.2,0
		c-0.8,0-1.9-0.8-2.2-1.4c-0.3-0.8-0.1-2,0.4-2.7c1.5-2.1,3.3-4,5-5.9c0.3-0.3,0.5-0.7,0.9-1.2c-9.2-0.8-18.2-1.7-27.2-2.5
		c-9.1-0.8-18.2-1-27.4-0.2c-9.9,0.9-19.9,1.8-29.8,2.7c-5.4,0.5-10.8,0.8-16.3,1.2c-0.8,0.1-1.3,0.3-1,1.1c1.9,5,0.8,10,0.1,15
		c-1.8,12.2-2,24.4-1,36.7c0.5,6.3,2.7,12.4,1.8,18.8c0,0.1,0.1,0.1,0.2,0.3C24.6,97.6,37.7,97.5,50.9,99.2z M135.8,136.4
		c-0.5,0.2-0.9,0.3-1.2,0.5c-11.2,5.5-23.8,2.5-31.6-7.3c-0.4-0.5-1.3-1-1.9-1c-15.2-0.3-30.3-2.4-45.4-3.8
		c-10.8-1-21.6-2.2-32.4-1.1c-4.7,0.5-9.4,1.2-14.1,1.8c0,6.5,0,12.7,0,19c42.3,0,84.4,0,126.7,0
		C135.8,141.9,135.8,139.3,135.8,136.4z M6.6,121.2c0.8-0.2,1.4-0.3,2-0.4c10.9-2.3,21.9-3.1,32.9-2.2c16.9,1.4,33.8,3.2,50.8,4.8
		c2.3,0.2,4.7,0,7,0c-0.4-2.4-1.1-4.8-1.3-7.3c-0.2-2.5,0.2-5,0.3-7.5c-4.8-0.4-9.7-0.8-14.6-1.2c-10.5-1-20.9-1.9-31.4-3
		c-11.7-1.3-23.4-1.9-35.1-0.1c-3.6,0.5-7.1,1.2-10.7,1.9C6.6,111.3,6.6,116.2,6.6,121.2z M49.6,91c0-4.1,0-7.8,0-11.6
		c0-1.6,0.6-2.5,2-3.2c5.4-2.7,9-7,10.7-12.9c0.5-1.6,1.4-2.3,3.1-2.3c2.9,0,5.7,0,8.6,0c2.5,0,3,0.4,3.7,2.7
		c1.7,5.5,5,9.6,10.1,12.2c1.8,0.9,2.5,2.1,2.5,4.1c-0.1,3.6,0,7.1,0,10.7c2.9-0.8,5-3.6,5-6.8c0.1-3.7,0.1-7.5,0-11.2
		c-0.3-9.3-3.7-17.3-10.5-23.7c-8.3-7.9-21.6-7.7-29.9,0.2c-4.4,4.2-7.4,9.3-9.1,15.2c-1.9,6.7-1.3,13.6-1.1,20.5
		C44.8,87.8,46.7,89.8,49.6,91z M143.5,114.3c0-11.1-9.1-20.2-20.1-20.3c-11.3-0.1-20.5,9-20.5,20.2c0,11.3,9.1,20.4,20.3,20.4
		C134.4,134.6,143.5,125.5,143.5,114.3z M66.9,66.1c-0.1,0.1-0.2,0.2-0.2,0.3c-2.2,5.8-5.9,10.4-11.3,13.6c-0.4,0.2-0.6,0.9-0.6,1.4
		c-0.1,3.5-0.2,7.1,0.1,10.6c0.2,2.3,1.1,4.5,1.8,6.6c0.2,0.5,0.9,1,1.5,1.1c7.2,0.8,14.5,1.5,21.7,2.1c0.6,0.1,1.6-0.3,1.8-0.8
		c1.2-2.2,2.8-4.4,3.1-6.8c0.6-4.4,0.3-8.8,0.4-13.3c0-0.4-0.4-0.9-0.7-1.1c-5.2-3.1-8.8-7.4-11-13c-0.1-0.4-0.7-0.8-1.1-0.8
		C70.5,66.1,68.7,66.1,66.9,66.1z"/>
	<path class="st1" d="M94.3,10.3c1.1,0,2.3,0,3.4,0c1.6,0.1,2.7,1.1,2.7,2.5c0,1.4-1.1,2.5-2.7,2.5c-3.3,0-6.5,0.1-9.8-0.1
		c-0.9,0-1.9-0.8-2.4-1.6c-0.7-0.9-0.2-2,0.6-2.8c1.8-1.8,3.6-3.6,5.7-5.7c-1.5,0-2.7,0-3.8,0c-1.7,0-2.8-1.1-2.8-2.5
		c0-1.5,1.1-2.5,2.8-2.5c3.2,0,6.3,0,9.5,0c1.2,0,2.2,0.4,2.7,1.6c0.5,1.2,0.1,2.2-0.8,3c-1.8,1.7-3.5,3.5-5.3,5.2
		C94.2,10.1,94.2,10.2,94.3,10.3z"/>
	<path class="st1" d="M96.5,37.8c2.8,0.6,4,1.5,3.8,3.2c-0.1,1.7-1.3,2.4-3.9,2.4c-2,0-3.9,0-5.9,0c-1.2,0-2.2-0.4-2.7-1.6
		c-0.5-1.2-0.1-2.2,0.8-3c0.9-0.9,1.9-1.8,3.1-2.9c-0.9-0.1-1.3,0-1.8-0.1c-1.4-0.2-2.4-1.3-2.3-2.6c0.1-1.4,0.9-2.3,2.3-2.4
		c2.7-0.1,5.4-0.2,8.1,0c0.8,0.1,1.8,0.9,2.1,1.6c0.3,0.7,0,1.9-0.5,2.6C98.8,36,97.6,36.8,96.5,37.8z"/>
	<path class="st1" d="M125.7,105.6c0,2,0,3.9,0,5.9c0,0.9,0.2,1.4,1.1,1.8c2.4,1.1,4.7,2.3,7.1,3.5c1.8,0.9,2.4,2.2,1.7,3.7
		c-0.7,1.4-2.1,1.8-3.9,0.9c-3-1.5-6-3-9.1-4.5c-1.3-0.6-2-1.6-1.9-3.1c0-4.7,0-9.4,0-14.1c0-2,1-3.1,2.6-3.1c1.5,0,2.5,1.2,2.5,3
		C125.8,101.6,125.7,103.6,125.7,105.6z"/>
	<path class="st1" d="M70,100.6c-2-0.5-4-0.9-5.8-1.6c-1.6-0.6-2.2-2-1.6-3.4c0.6-1.4,2-1.9,3.6-1.3c2.6,1.1,5.2,1.1,7.8,0
		c1.5-0.7,2.8-0.1,3.4,1.2c0.6,1.4,0.1,2.8-1.5,3.4C73.9,99.6,72,100,70,100.6z"/>
	<path class="st1" d="M77.6,87.9c-1.6-0.8-3.1-1.3-4.3-2.2c-1.1-0.8-1.2-2.4-0.3-3.4c0.9-1.1,2.1-1.4,3.2-0.6c0.9,0.6,1.6,0.6,2.5,0
		c1.2-0.8,2.4-0.5,3.2,0.6c0.9,1.1,0.9,2.4-0.2,3.3C80.7,86.5,79.2,87.1,77.6,87.9z"/>
	<path class="st1" d="M62.3,87.9c-1.5-0.7-2.9-1.2-4.1-2c-1.2-0.9-1.3-2.4-0.5-3.5c0.8-1.1,2.2-1.4,3.4-0.6c0.9,0.6,1.5,0.5,2.4,0
		c1.2-0.8,2.3-0.5,3.3,0.5c0.9,1,0.9,2.6-0.3,3.4C65.3,86.6,63.9,87.1,62.3,87.9z"/>
</g>
</svg>
