<?xml version="1.0" encoding="utf-8"?>
<!-- Generator: Adobe Illustrator 24.3.0, SVG Export Plug-In . SVG Version: 6.00 Build 0)  -->
<svg version="1.1" id="Layer_1" xmlns="http://www.w3.org/2000/svg" xmlns:xlink="http://www.w3.org/1999/xlink" x="0px" y="0px"
	 viewBox="0 0 150 150" style="enable-background:new 0 0 150 150;" xml:space="preserve">
<style type="text/css">
	.st0{fill:#5F6368;}
	.st1{fill:#005BAB;}
</style>
<path class="st0" d="M2053.7-657.2c-2.1,0-3.6,0-5.1,0C2049.8-661.3,2051.5-660.2,2053.7-657.2z"/>
<g>
	<path class="st1" d="M43.2,0.3c3.1,0.7,6.3,1,9.2,2.1C67.8,8,76.9,19.1,79,35.3C81.8,56.6,66.6,75.9,45.6,79
		c-0.4,0.1-0.7,0.1-1.2,0.2c0,8.8,0,17.5,0,26.4c0.5,0,0.9,0.1,1.4,0.1c3.8,0,7.6,0,11.4,0c2.7,0,4.7,1.9,4.7,4.4
		c0,2.5-2,4.4-4.7,4.4c-4.2,0-8.4,0-12.8,0c0,1.4,0,2.6,0,3.8c0,3,0,5.9,0,8.9c0,2.8-1.9,4.8-4.4,4.8c-2.5,0-4.3-2-4.3-4.7
		c0-3.7,0-7.5,0-11.2c0-0.5,0-0.9,0-1.6c-4.2,0-8.2,0-12.2,0c-0.6,0-1.2,0-1.7-0.1c-2.2-0.4-3.7-2.5-3.5-4.7c0.2-2.2,2-3.9,4.3-4
		c3.7-0.1,7.5,0,11.2,0c0.6,0,1.2,0,1.8,0c0-8.8,0-17.6,0-26c-4-1.2-8-2.1-11.7-3.7C10.4,69.7,2.6,59.2,0.6,44.5
		c-0.1-0.4-0.2-0.8-0.3-1.2c0-2.1,0-4.3,0-6.4c0.1-0.4,0.2-0.8,0.3-1.3C3,19.4,11.8,8.4,27,2.6c3.1-1.2,6.5-1.5,9.7-2.3
		C38.9,0.3,41,0.3,43.2,0.3z M40,9.1C23,9,9.1,22.9,9,39.9c0,16.9,13.8,30.7,30.9,30.8c16.9,0,30.7-13.7,30.7-30.5
		C70.7,23,56.9,9.1,40,9.1z"/>
	<path class="st1" d="M105.6,70.8c0-12.4,0-24.9,0-37.5c-0.4,0.3-0.7,0.6-1,0.8c-2.9,2.8-5.7,5.7-8.6,8.6c-2.1,2.1-4.8,2.2-6.6,0.4
		c-1.8-1.8-1.7-4.5,0.4-6.6c5.6-5.6,11.1-11.1,16.7-16.7c2.2-2.2,4.7-2.3,6.9,0c5.6,5.6,11.2,11.2,16.8,16.8
		c2.1,2.1,2.2,4.8,0.3,6.6c-1.8,1.8-4.4,1.6-6.5-0.4c-3.1-3.1-6.2-6.3-9.6-9.6c0,12.7,0,25.1,0,37.7c12.2,1.7,22,7.5,28.8,17.9
		c5.3,8.1,7.3,17.1,6,26.7c-2.9,20.2-20.3,34.9-40.7,34.2c-19.7-0.6-35.3-15.9-37.7-34.8C68.3,93.2,83.7,73.5,105.6,70.8z M79.4,110
		c0,17.1,13.7,31,30.6,31c17,0,30.9-13.8,31-30.9c0-16.9-13.8-30.7-30.9-30.7C93.2,79.4,79.4,93.1,79.4,110z"/>
</g>
</svg>
