<?xml version="1.0" encoding="utf-8"?>
<!-- Generator: Adobe Illustrator 24.3.0, SVG Export Plug-In . SVG Version: 6.00 Build 0)  -->
<svg version="1.1" id="Layer_1" xmlns="http://www.w3.org/2000/svg" xmlns:xlink="http://www.w3.org/1999/xlink" x="0px" y="0px"
	 viewBox="0 0 150 150" style="enable-background:new 0 0 150 150;" xml:space="preserve">
<style type="text/css">
	.st0{fill:url(#SVGID_1_);}
	.st1{fill:url(#SVGID_2_);}
	.st2{fill:#075CAA;}
</style>
<g>
	<linearGradient id="SVGID_1_" gradientUnits="userSpaceOnUse" x1="1409.0724" y1="1183.1483" x2="1563.3518" y2="1183.1483">
		<stop  offset="0" style="stop-color:#02AE4D"/>
		<stop  offset="0.2754" style="stop-color:#128469"/>
		<stop  offset="0.5297" style="stop-color:#1A6476"/>
		<stop  offset="0.7415" style="stop-color:#214E7B"/>
		<stop  offset="0.9027" style="stop-color:#273E7D"/>
		<stop  offset="0.9944" style="stop-color:#29377D"/>
	</linearGradient>
	<path class="st0" d="M1483.6,1238.5c-0.8,2.4-1.5,4.5-2.2,6.6c-1,3-2,6-2.9,9c-0.5,1.6-1.5,2.3-3.2,2.3c-13.1,0-26.1,0-39.2,0
		c-2.1,0-2.9-0.7-3.2-2.8c-1.5-10.5-2.9-21-4.6-31.4c-0.6-3.5-2-6.7-2.9-10.1c-1.5-5.5-2.8-11.1-4.2-16.6c-0.2-0.7-0.7-1.4-1.2-1.9
		c-1.1-1-2.4-1.8-3.5-2.8c-9.5-7.9-9.9-21.9-0.9-30.3c5.5-5.1,11.1-9.9,16.7-14.9c0.7-0.6,1.3-1.6,1.6-2.5c3-10.2,6-20.4,9-30.6
		c0.6-2.1,1.3-2.6,3.4-2.6c25.1,0,50.1,0,75.2,0.1c1,0,2.3,0.5,3.1,1.2c10.7,10,21.4,20.1,32,30.2c9.3,8.8,9.1,21.9-0.2,30.6
		c-9.9,9.3-19.8,18.6-29.8,27.9c-0.9,0.9-1.2,1.7-1,2.9c1.3,10.3,2.5,20.5,3.7,30.8c0.8,6.4,1.6,12.9,2.3,19.3
		c0.2,2-0.9,3.1-3.2,3.2c-11.6,0.1-23.1,0.2-34.7,0.4c-0.3,0-0.6,0-1,0c-2.7,0-3.2-0.3-4-2.9c-1.4-4.4-2.8-8.8-4.2-13.1
		C1484.1,1239.9,1483.9,1239.4,1483.6,1238.5z M1437.8,1251.1c0.3,0.1,0.5,0.1,0.6,0.1c11.6,0,23.1,0,34.7,0c1,0,1.1-0.5,1.3-1.2
		c1.9-6.1,3.9-12.1,5.9-18.2c0.3-0.9,0.1-1.5-0.6-2.1c-1.7-1.5-3.5-2.9-5-4.6c-0.7-0.8-1.3-2-1.3-3c-0.1-4.2-0.1-8.5,0-12.7
		c0-1.1-0.2-1.6-1.4-1.8c-12.5-2.3-24.9-4.6-37.4-7c-2.4-0.5-4.9-0.9-7.8-1.4c1.3,4.2,2.5,8,3.6,11.8c1,3.5,2.4,7,3,10.6
		C1435.1,1231.6,1436.4,1241.3,1437.8,1251.1z M1451.6,1187.4c18.4,2.6,36.6,2.9,55,0.9c-0.7-2.7-1.2-5.2-1.9-7.6
		c-0.5-1.7,0-2.9,1.5-3.8c0.9-0.5,1.7-1.2,2.7-1.8c1-0.6,1.3-1.2,0.9-2.3c-1-2.8-1.9-5.7-2.6-8.6c-0.3-1-0.3-2.1-0.1-3.1
		c0.6-3.4,1.2-6.7,1.9-10.1c-17.3,0-34.4,0-51.6,0c0.2,1.2,0.3,2.3,0.6,3.4c1.7,6,1.6,11.7-1,17.6
		C1454.7,1176.9,1453.4,1182.1,1451.6,1187.4z M1509.7,1115.1c-17.6,0-35.1,0-52.6,0c-1.3,5-2.6,9.9-3.8,14.8
		c-1.2,5.1-0.6,10,1.4,14.8c0.3,0.8,0.7,1.2,1.8,1.2c17.6,0,35.1,0,52.7-0.1c0.5,0,1.4-0.5,1.5-0.9c0.9-2.8,2.1-5.7,2.4-8.6
		C1514,1128.9,1510.8,1122.2,1509.7,1115.1z M1478.5,1208.2c0,2.2,0,4.1,0,6.1c0,2.5-0.6,5.3,0.3,7.4c0.9,2.1,3.5,3.3,5.2,5.1
		c0.8,0.8,1.6,1.9,2,3c2.3,6.6,4.5,13.2,6.6,19.8c0.4,1.2,0.8,1.7,2.2,1.6c10-0.2,19.9-0.2,29.9-0.4c0.4,0,0.8-0.1,1.3-0.1
		c-1.9-16-3.8-31.8-5.7-47.8C1506.2,1204.8,1492.5,1206.5,1478.5,1208.2z M1514.9,1115c0.2,0.7,0.3,1.3,0.4,1.9
		c1,4.4,2,8.8,2.9,13.2c0.2,1.2,0.7,2,1.5,2.9c7.3,7.2,14.6,14.5,21.8,21.8c1.7,1.7,1.8,2.9,0.3,4.4c-5.1,5.2-10.1,10.3-15.2,15.4
		c-1.3,1.3-2.5,1.3-3.9,0.2c-1.1-0.9-2.1-1.9-3.2-2.7c-1.4-1.2-3-1.7-5-1.1c0.4,1.2,0.7,2.3,1.1,3.4c0.5,1.5,0.1,2.6-1.2,3.4
		c-1.1,0.7-2.2,1.5-3.3,2.2c-0.8,0.4-1,0.9-0.7,1.8c0.4,1.3,0.7,2.7,1,4c1.1,4.2,2.1,8.5,3.2,12.8c2.2-0.3,4.2-0.5,6.3-0.8
		c0.4-0.1,0.9-0.4,1.2-0.7c10.4-9.8,20.9-19.5,31.3-29.3c6.5-6.2,6.6-15.9,0.1-22.2c-10.4-10-21-19.9-31.5-29.8
		c-0.4-0.3-0.9-0.7-1.3-0.7C1518.7,1115,1516.9,1115,1514.9,1115z M1451.7,1150c-0.2-0.3-0.2-0.5-0.3-0.7c-4-7.3-4.7-15-2.4-23
		c1.1-3.7,1.9-7.4,2.9-11.2c-1.6,0-3,0-4.4,0c-0.1,0.4-0.3,0.8-0.4,1.1c-2.8,9.6-5.6,19.2-8.4,28.8c-0.5,1.7-1.3,3-2.7,4.2
		c-5.5,4.8-11,9.7-16.5,14.6c-5.6,5-6.7,11.6-2.9,18c0.8,1.4,1.8,2.8,2.7,4.2c0.2,0.3,0.3,0.7,0.5,1.1c0.3-2,0.4-3.6,0.3-5.2
		c-0.1-1.3,0.2-2.6,1.4-3.2c3.5-1.9,4.4-4.8,3.5-8.5c-0.3-1.3,0.3-2.3,1.4-3c1.9-1.3,3.8-2.6,5.7-3.9
		C1438.7,1158.9,1445.1,1154.5,1451.7,1150z M1536.3,1157.4c-6.2-6.2-12.2-12.2-18.1-18.1c-0.6,1.9-1.1,4.2-2.1,6.2
		c-1.4,2.8-2.1,5.8-2.6,8.9c-0.4,2.4-0.8,4.9-1.4,7.2c-0.4,1.6,0.1,2.9,0.8,4.3c4.5-1.1,8.2,0.4,11.2,3.3
		C1528.3,1165.1,1532.4,1161.2,1536.3,1157.4z M1473.3,1202.8c0-2.8,0-5.5,0-7.9c-15.9-2.2-31.6-4.3-47.6-6.5
		c0.2,1.9,0.3,3.7,0.5,5.6C1441.9,1197,1457.6,1199.9,1473.3,1202.8z M1453,1156.8c-0.6,0.4-1.1,0.6-1.6,0.9c-6.4,4-12.9,8-19.3,12
		c-2,1.3-2.1,1.5-1.3,4.4c6.4,0,12.8,0,19.3,0c0.4,0,0.9-0.6,1.1-1c1-2.7,1.9-5.4,2.9-8.2c0.1-0.4,0.3-0.8,0.2-1.2
		C1453.9,1161.4,1453.4,1159.2,1453,1156.8z M1478.6,1203.1c10.4-1.3,20.5-2.6,30.8-3.8c-0.5-2.1-1-3.9-1.4-5.5
		c-9.9,0.5-19.6,0.9-29.4,1.3C1478.6,1197.6,1478.6,1200.3,1478.6,1203.1z M1449.1,1179.1c-6,0-11.6,0.2-17.3-0.1
		c-2.8-0.1-4.4,1.3-6.1,2.8c-0.6,0.5-0.6,1.1,0.4,1.3c1,0.2,2,0.3,3,0.5c5.7,1,11.4,2,17.3,3
		C1447.3,1184.2,1448.1,1181.9,1449.1,1179.1z"/>
	<linearGradient id="SVGID_2_" gradientUnits="userSpaceOnUse" x1="1481.0624" y1="1172.8564" x2="1486.2136" y2="1172.8564">
		<stop  offset="0" style="stop-color:#02AE4D"/>
		<stop  offset="0.2754" style="stop-color:#128469"/>
		<stop  offset="0.5297" style="stop-color:#1A6476"/>
		<stop  offset="0.7415" style="stop-color:#214E7B"/>
		<stop  offset="0.9027" style="stop-color:#273E7D"/>
		<stop  offset="0.9944" style="stop-color:#29377D"/>
	</linearGradient>
	<path class="st1" d="M1486.2,1172.9c0,0.3,0,0.5,0,0.8c0,1.9-1.1,3-2.6,3c-1.5,0-2.5-1.2-2.5-3.1c0-0.6,0-1.2,0-1.8
		c0.1-1.7,1.1-2.9,2.6-2.8c1.5,0,2.5,1.1,2.5,2.9C1486.2,1172.2,1486.2,1172.6,1486.2,1172.9z"/>
</g>
<g>
	<path class="st2" d="M80.5,1.4c0.5,0.2,1,0.4,1.5,0.6c3.2,1.2,5.1,4.2,5.2,7.7c0,7.7,0,15.3,0,23c0,0.5,0,1,0,1.6
		c0.1,0,0.2,0,0.2,0c0.7-2.7,1.4-5.5,2.1-8.2c1.1-4.3,2.1-8.5,3.2-12.8c1.1-4.5,5.2-7.2,9.5-6.3c4.6,1,7.3,5,6.4,9.8
		c-1.1,6.4-2.3,12.7-3.4,19.1c-0.1,0.4-0.1,0.9,0.1,1.4c1.4-2.9,2.7-5.8,4.1-8.6c1.4-2.9,3.8-4.6,7-4.7c5.6-0.3,9.7,4.9,8.2,10.3
		c-0.7,2.4-1.6,4.7-2.5,7c-0.5,1.3-1.6,1.8-2.7,1.5c-1.2-0.4-1.8-1.5-1.3-2.9c0.7-2,1.4-4.1,2.2-6.1c0.8-2.3,0.1-4.3-1.9-5.2
		c-2-0.9-4,0-5.1,2.3c-3.7,7.7-7.3,15.5-10.9,23.3c-0.2,0.3-0.3,0.7-0.5,1c-0.5,1.1-1.4,1.7-2.7,1.4c-1.2-0.4-1.7-1.3-1.5-2.6
		c0.6-3.6,1.3-7.2,1.9-10.7c1.6-9.1,3.3-18.3,4.9-27.4c0.4-2.1-0.8-4-2.9-4.5c-2-0.5-4,0.7-4.5,2.9c-2.4,9.6-4.8,19.1-7.2,28.7
		c-0.8,3.4-1.7,6.8-2.5,10.2c-0.4,1.6-1.3,2.3-2.6,2.1c-1.2-0.2-1.8-1.1-1.8-2.7c0-14.1,0-28.3,0-42.4c0-3.3-2.6-5.2-5.7-4.2
		c-1.5,0.5-2.5,1.7-2.6,3.3c0,0.5,0,1.1,0,1.6c0,13.9,0,27.7,0,41.6c0,0.3,0,0.7,0,1c0,1.7-0.7,2.6-1.9,2.8
		c-1.3,0.2-2.1-0.5-2.5-2.2c-2.2-8.4-4.3-16.8-6.4-25.2c-0.8-3.2-1.6-6.5-2.5-9.7c-0.6-2.4-2.5-3.6-4.5-3.2
		c-2.1,0.5-3.2,2.3-2.8,4.8c0.5,2.9,1,5.8,1.6,8.8c0.3,1.6-0.4,2.7-1.7,3c-1.2,0.2-2.2-0.6-2.5-2.1c-0.6-3.1-1.2-6.3-1.7-9.5
		c-0.7-4.2,1.9-8.1,6.1-9.1c4.1-1,8.4,1.3,9.5,5.4c1.6,5.5,2.9,11.1,4.3,16.7c0.2,0.6,0.3,1.3,0.8,1.9c0-0.4,0-0.9,0-1.3
		c0-7.7,0.1-15.4,0-23.2c-0.1-4.5,1.3-8.2,6.7-9.8C78,1.4,79.2,1.4,80.5,1.4z"/>
	<path class="st2" d="M63.8,120.9c0.9-2.7-0.8-4.7-3.1-6.8c-4.8-4.4-9.5-8.8-14-13.5c-3-3.1-5.8-6.6-8.1-10.2
		c-4.3-6.9-8.3-14-12.3-21.1c-3-5.2,0.2-11.5,6.1-12.2c2.9-0.4,5.3,0.7,7.3,2.9c4.2,4.7,8.4,9.3,12.6,14c1.2,1.4,1.7,1.3,2.4-0.4
		c0,0,0-0.1,0.1-0.1c0.8-2.8,3-5.1,2.6-8.2c-0.4-2.8-1-5.7-1.5-8.5c-1-5.4-2-10.8-3-16.2c0-0.2-0.1-0.5-0.1-0.7
		c-0.1-1.4,0.5-2.3,1.7-2.6c1.2-0.2,2.3,0.5,2.6,1.9c0.5,2.5,0.9,5.1,1.4,7.6c1.1,6.1,2.3,12.2,3.3,18.4c0.2,1.2,0,2.5-0.4,3.6
		c-0.8,2.4-1.8,4.6-2.8,6.9c-1.7,4-6.1,4.8-9,1.6C45.3,72.5,41,67.8,36.7,63c-1-1.1-2.1-1.9-3.6-1.7c-2.6,0.2-4.2,2.8-3.2,5.3
		c0.2,0.6,0.6,1.1,0.9,1.6c3.5,6.1,7,12.1,10.5,18.2c2.7,4.7,6,8.9,9.9,12.6c5,4.7,9.9,9.5,14.9,14.2c1.5,1.4,2.2,3,2.1,5.1
		c-0.1,2.2,0,4.5,0,6.8c0,1.5-0.9,2.5-2.2,2.5c-1.3,0-2.1-1-2.2-2.5C63.8,123.8,63.8,122.6,63.8,120.9z"/>
	<path class="st2" d="M100.8,130.5c0-4.5,0.1-9,0-13.5c0-2.1,0.4-3.9,1.5-5.7c2-3.2,3.7-6.6,4.1-10.5c0.4-3.6,0.6-7.3,0.9-10.9
		c0.6-8.2,1.2-16.4,1.8-24.6c0-0.5,0.1-1.1,0.3-1.6c1.8-5,3.6-10,5.4-15c0.5-1.3,1.6-1.8,2.7-1.4c1.3,0.4,1.8,1.6,1.3,3.1
		c-1.1,3.3-2.3,6.6-3.5,9.9c-1.2,3.1-1.9,6.2-2.1,9.5c-0.6,9.7-1.4,19.3-2.1,29c-0.3,5.2-2,10-4.7,14.4c-0.8,1.3-1.1,2.7-1.1,4.2
		c0.1,9.3,0,18.6,0,27.9c0,0.5,0,1,0,1.4c-0.2,1.2-1.1,2.1-2.2,2c-1.1,0-2-0.9-2.1-2.2c0-0.4,0-0.9,0-1.3
		C100.8,140.3,100.8,135.4,100.8,130.5z"/>
	<path class="st2" d="M99.5,88.8c0,4.3-3.4,7.6-7.7,7.6c-4.2,0-7.6-3.4-7.6-7.6c0-4.2,3.5-7.7,7.7-7.7
		C96.1,81.1,99.6,84.6,99.5,88.8z M95.2,88.7c0-1.8-1.5-3.3-3.3-3.3c-1.8,0-3.3,1.5-3.3,3.3c0,1.8,1.5,3.4,3.4,3.3
		C93.8,92,95.2,90.6,95.2,88.7z"/>
	<path class="st2" d="M82.5,72.6c0,3.5-2.7,6.2-6.1,6.2c-3.4,0-6.2-2.8-6.2-6.2c0-3.3,2.8-6.1,6.1-6.2
		C79.7,66.3,82.5,69.1,82.5,72.6z M78.2,72.8c0-1.2-0.8-2.1-1.8-2c-1.1,0-1.8,0.7-1.9,1.8c-0.1,1,0.8,1.9,1.9,1.9
		C77.5,74.4,78.1,73.7,78.2,72.8z"/>
	<path class="st2" d="M85.1,137.5c-3.5,0-6.1-2.8-6.1-6.3c0-3.4,2.8-6.1,6.2-6.1c3.4,0,6.2,2.9,6.2,6.2
		C91.3,134.8,88.6,137.5,85.1,137.5z M85.2,133.2c1.1-0.1,1.8-0.8,1.8-1.9c0-1.1-0.7-1.7-1.8-1.8c-1-0.1-1.9,0.9-1.8,1.9
		C83.4,132.6,84.1,133.1,85.2,133.2z"/>
	<path class="st2" d="M75,96.9c3.4,0,6.2,2.8,6.2,6.2c0,3.4-2.8,6.2-6.2,6.2c-3.4,0-6.1-2.8-6.1-6.1C68.8,99.7,71.6,96.9,75,96.9z
		 M76.8,103c-0.1-1.1-0.7-1.8-1.8-1.8c-1.1,0-1.8,0.6-1.8,1.8c-0.1,1.1,0.8,2,1.8,1.9C76.1,104.8,76.8,104.2,76.8,103z"/>
	<path class="st2" d="M88.8,69.6c0-3.5,2.7-6.2,6.1-6.2c3.4,0,6.2,2.8,6.2,6.2c0,3.3-2.7,6.1-6.1,6.2C91.7,75.8,88.8,73,88.8,69.6z
		 M96.8,69.5c-0.2-1.1-0.7-1.8-1.8-1.8c-1.1,0-1.8,0.6-1.9,1.7c-0.1,1,0.8,1.9,1.9,1.9C96.1,71.3,96.7,70.6,96.8,69.5z"/>
	<path class="st2" d="M68.1,140.5c0,1.9,0,3.8,0,5.7c0,1.5-0.9,2.4-2.1,2.4c-1.3,0-2.2-0.9-2.2-2.5c0-3.7,0-7.5,0-11.2
		c0-1.6,0.8-2.5,2.2-2.5c1.3,0,2.1,0.9,2.1,2.5C68.1,136.8,68.1,138.6,68.1,140.5z"/>
	<path class="st2" d="M71.4,88c-0.4,0-0.8,0-1.1,0c-1.2-0.1-1.8-0.8-1.9-1.9c-0.1-1.2,0.6-2,1.7-2.3c0.8-0.1,1.6-0.1,2.4-0.1
		c1.3,0.1,2,1,2,2.2c0,1.2-0.8,2-2.1,2.1C72,88,71.7,88,71.4,88C71.4,88,71.4,88,71.4,88z"/>
	<path class="st2" d="M76.8,121.6c-1.9,0-2.8-0.7-2.9-2c-0.1-1.4,0.9-2.2,2.5-2.3c2.1-0.1,3.2,0.7,3.2,2.2
		C79.6,120.8,78.5,121.6,76.8,121.6z"/>
	<path class="st2" d="M58.3,94.9c-1.7,0-2.7-0.8-2.7-2.1c0-1.1,0.8-2.1,2-2.2c2-0.3,3.3,0.4,3.6,1.7C61.5,93.8,60.3,94.9,58.3,94.9z
		"/>
	<path class="st2" d="M90.2,111.1c1.6,0,2.6,0.8,2.6,2.2c0,1.3-1,2.2-2.6,2.2c-1.6,0-2.6-0.8-2.6-2.2
		C87.6,111.9,88.5,111.1,90.2,111.1z"/>
</g>
</svg>
