<?xml version="1.0" encoding="utf-8"?>
<!-- Generator: Adobe Illustrator 24.3.0, SVG Export Plug-In . SVG Version: 6.00 Build 0)  -->
<svg version="1.1" id="Layer_1" xmlns="http://www.w3.org/2000/svg" xmlns:xlink="http://www.w3.org/1999/xlink" x="0px" y="0px"
	 viewBox="0 0 150 150" style="enable-background:new 0 0 150 150;" xml:space="preserve">
<style type="text/css">
	.st0{fill:url(#SVGID_1_);}
	.st1{fill:url(#SVGID_2_);}
	.st2{fill:#075CAA;}
</style>
<g>
	<linearGradient id="SVGID_1_" gradientUnits="userSpaceOnUse" x1="1409.0724" y1="1183.1483" x2="1563.3518" y2="1183.1483">
		<stop  offset="0" style="stop-color:#02AE4D"/>
		<stop  offset="0.2754" style="stop-color:#128469"/>
		<stop  offset="0.5297" style="stop-color:#1A6476"/>
		<stop  offset="0.7415" style="stop-color:#214E7B"/>
		<stop  offset="0.9027" style="stop-color:#273E7D"/>
		<stop  offset="0.9944" style="stop-color:#29377D"/>
	</linearGradient>
	<path class="st0" d="M1483.6,1238.5c-0.8,2.4-1.5,4.5-2.2,6.6c-1,3-2,6-2.9,9c-0.5,1.6-1.5,2.3-3.2,2.3c-13.1,0-26.1,0-39.2,0
		c-2.1,0-2.9-0.7-3.2-2.8c-1.5-10.5-2.9-21-4.6-31.4c-0.6-3.5-2-6.7-2.9-10.1c-1.5-5.5-2.8-11.1-4.2-16.6c-0.2-0.7-0.7-1.4-1.2-1.9
		c-1.1-1-2.4-1.8-3.5-2.8c-9.5-7.9-9.9-21.9-0.9-30.3c5.5-5.1,11.1-9.9,16.7-14.9c0.7-0.6,1.3-1.6,1.6-2.5c3-10.2,6-20.4,9-30.6
		c0.6-2.1,1.3-2.6,3.4-2.6c25.1,0,50.1,0,75.2,0.1c1,0,2.3,0.5,3.1,1.2c10.7,10,21.4,20.1,32,30.2c9.3,8.8,9.1,21.9-0.2,30.6
		c-9.9,9.3-19.8,18.6-29.8,27.9c-0.9,0.9-1.2,1.7-1,2.9c1.3,10.3,2.5,20.5,3.7,30.8c0.8,6.4,1.6,12.9,2.3,19.3
		c0.2,2-0.9,3.1-3.2,3.2c-11.6,0.1-23.1,0.2-34.7,0.4c-0.3,0-0.6,0-1,0c-2.7,0-3.2-0.3-4-2.9c-1.4-4.4-2.8-8.8-4.2-13.1
		C1484.1,1239.9,1483.9,1239.4,1483.6,1238.5z M1437.8,1251.1c0.3,0.1,0.5,0.1,0.6,0.1c11.6,0,23.1,0,34.7,0c1,0,1.1-0.5,1.3-1.2
		c1.9-6.1,3.9-12.1,5.9-18.2c0.3-0.9,0.1-1.5-0.6-2.1c-1.7-1.5-3.5-2.9-5-4.6c-0.7-0.8-1.3-2-1.3-3c-0.1-4.2-0.1-8.5,0-12.7
		c0-1.1-0.2-1.6-1.4-1.8c-12.5-2.3-24.9-4.6-37.4-7c-2.4-0.5-4.9-0.9-7.8-1.4c1.3,4.2,2.5,8,3.6,11.8c1,3.5,2.4,7,3,10.6
		C1435.1,1231.6,1436.4,1241.3,1437.8,1251.1z M1451.6,1187.4c18.4,2.6,36.6,2.9,55,0.9c-0.7-2.7-1.2-5.2-1.9-7.6
		c-0.5-1.7,0-2.9,1.5-3.8c0.9-0.5,1.7-1.2,2.7-1.8c1-0.6,1.3-1.2,0.9-2.3c-1-2.8-1.9-5.7-2.6-8.6c-0.3-1-0.3-2.1-0.1-3.1
		c0.6-3.4,1.2-6.7,1.9-10.1c-17.3,0-34.4,0-51.6,0c0.2,1.2,0.3,2.3,0.6,3.4c1.7,6,1.6,11.7-1,17.6
		C1454.7,1176.9,1453.4,1182.1,1451.6,1187.4z M1509.7,1115.1c-17.6,0-35.1,0-52.6,0c-1.3,5-2.6,9.9-3.8,14.8
		c-1.2,5.1-0.6,10,1.4,14.8c0.3,0.8,0.7,1.2,1.8,1.2c17.6,0,35.1,0,52.7-0.1c0.5,0,1.4-0.5,1.5-0.9c0.9-2.8,2.1-5.7,2.4-8.6
		C1514,1128.9,1510.8,1122.2,1509.7,1115.1z M1478.5,1208.2c0,2.2,0,4.1,0,6.1c0,2.5-0.6,5.3,0.3,7.4c0.9,2.1,3.5,3.3,5.2,5.1
		c0.8,0.8,1.6,1.9,2,3c2.3,6.6,4.5,13.2,6.6,19.8c0.4,1.2,0.8,1.7,2.2,1.6c10-0.2,19.9-0.2,29.9-0.4c0.4,0,0.8-0.1,1.3-0.1
		c-1.9-16-3.8-31.8-5.7-47.8C1506.2,1204.8,1492.5,1206.5,1478.5,1208.2z M1514.9,1115c0.2,0.7,0.3,1.3,0.4,1.9
		c1,4.4,2,8.8,2.9,13.2c0.2,1.2,0.7,2,1.5,2.9c7.3,7.2,14.6,14.5,21.8,21.8c1.7,1.7,1.8,2.9,0.3,4.4c-5.1,5.2-10.1,10.3-15.2,15.4
		c-1.3,1.3-2.5,1.3-3.9,0.2c-1.1-0.9-2.1-1.9-3.2-2.7c-1.4-1.2-3-1.7-5-1.1c0.4,1.2,0.7,2.3,1.1,3.4c0.5,1.5,0.1,2.6-1.2,3.4
		c-1.1,0.7-2.2,1.5-3.3,2.2c-0.8,0.4-1,0.9-0.7,1.8c0.4,1.3,0.7,2.7,1,4c1.1,4.2,2.1,8.5,3.2,12.8c2.2-0.3,4.2-0.5,6.3-0.8
		c0.4-0.1,0.9-0.4,1.2-0.7c10.4-9.8,20.9-19.5,31.3-29.3c6.5-6.2,6.6-15.9,0.1-22.2c-10.4-10-21-19.9-31.5-29.8
		c-0.4-0.3-0.9-0.7-1.3-0.7C1518.7,1115,1516.9,1115,1514.9,1115z M1451.7,1150c-0.2-0.3-0.2-0.5-0.3-0.7c-4-7.3-4.7-15-2.4-23
		c1.1-3.7,1.9-7.4,2.9-11.2c-1.6,0-3,0-4.4,0c-0.1,0.4-0.3,0.8-0.4,1.1c-2.8,9.6-5.6,19.2-8.4,28.8c-0.5,1.7-1.3,3-2.7,4.2
		c-5.5,4.8-11,9.7-16.5,14.6c-5.6,5-6.7,11.6-2.9,18c0.8,1.4,1.8,2.8,2.7,4.2c0.2,0.3,0.3,0.7,0.5,1.1c0.3-2,0.4-3.6,0.3-5.2
		c-0.1-1.3,0.2-2.6,1.4-3.2c3.5-1.9,4.4-4.8,3.5-8.5c-0.3-1.3,0.3-2.3,1.4-3c1.9-1.3,3.8-2.6,5.7-3.9
		C1438.7,1158.9,1445.1,1154.5,1451.7,1150z M1536.3,1157.4c-6.2-6.2-12.2-12.2-18.1-18.1c-0.6,1.9-1.1,4.2-2.1,6.2
		c-1.4,2.8-2.1,5.8-2.6,8.9c-0.4,2.4-0.8,4.9-1.4,7.2c-0.4,1.6,0.1,2.9,0.8,4.3c4.5-1.1,8.2,0.4,11.2,3.3
		C1528.3,1165.1,1532.4,1161.2,1536.3,1157.4z M1473.3,1202.8c0-2.8,0-5.5,0-7.9c-15.9-2.2-31.6-4.3-47.6-6.5
		c0.2,1.9,0.3,3.7,0.5,5.6C1441.9,1197,1457.6,1199.9,1473.3,1202.8z M1453,1156.8c-0.6,0.4-1.1,0.6-1.6,0.9c-6.4,4-12.9,8-19.3,12
		c-2,1.3-2.1,1.5-1.3,4.4c6.4,0,12.8,0,19.3,0c0.4,0,0.9-0.6,1.1-1c1-2.7,1.9-5.4,2.9-8.2c0.1-0.4,0.3-0.8,0.2-1.2
		C1453.9,1161.4,1453.4,1159.2,1453,1156.8z M1478.6,1203.1c10.4-1.3,20.5-2.6,30.8-3.8c-0.5-2.1-1-3.9-1.4-5.5
		c-9.9,0.5-19.6,0.9-29.4,1.3C1478.6,1197.6,1478.6,1200.3,1478.6,1203.1z M1449.1,1179.1c-6,0-11.6,0.2-17.3-0.1
		c-2.8-0.1-4.4,1.3-6.1,2.8c-0.6,0.5-0.6,1.1,0.4,1.3c1,0.2,2,0.3,3,0.5c5.7,1,11.4,2,17.3,3
		C1447.3,1184.2,1448.1,1181.9,1449.1,1179.1z"/>
	<linearGradient id="SVGID_2_" gradientUnits="userSpaceOnUse" x1="1481.0624" y1="1172.8564" x2="1486.2136" y2="1172.8564">
		<stop  offset="0" style="stop-color:#02AE4D"/>
		<stop  offset="0.2754" style="stop-color:#128469"/>
		<stop  offset="0.5297" style="stop-color:#1A6476"/>
		<stop  offset="0.7415" style="stop-color:#214E7B"/>
		<stop  offset="0.9027" style="stop-color:#273E7D"/>
		<stop  offset="0.9944" style="stop-color:#29377D"/>
	</linearGradient>
	<path class="st1" d="M1486.2,1172.9c0,0.3,0,0.5,0,0.8c0,1.9-1.1,3-2.6,3c-1.5,0-2.5-1.2-2.5-3.1c0-0.6,0-1.2,0-1.8
		c0.1-1.7,1.1-2.9,2.6-2.8c1.5,0,2.5,1.1,2.5,2.9C1486.2,1172.2,1486.2,1172.6,1486.2,1172.9z"/>
</g>
<g>
	<path class="st2" d="M1.5,70.7c0.4-2.8,0.6-5.7,1.2-8.5c4.5-23.3,17.1-40.7,37.9-52.1c11.7-6.4,24.3-9.4,37.6-8.5
		c29.2,1.9,50.5,16.2,63.5,42.5c5.3,10.6,7.5,22.1,6.8,34c-1.9,29.1-16.1,50.3-42.2,63.4c-8.1,4.1-16.7,6.2-25.8,6.8
		c-0.4,0-0.7,0.2-1.1,0.2c-2.9,0-5.7,0-8.6,0c-0.3-0.1-0.5-0.2-0.8-0.2c-4.8-0.8-9.7-1.1-14.4-2.5c-29.1-9-46.8-28.5-52.9-58.4
		c-0.5-2.7-0.8-5.4-1.1-8.1C1.5,76.4,1.5,73.6,1.5,70.7z M142.7,75c0-37.3-30.3-67.7-67.6-67.7C37.8,7.2,7.4,37.6,7.3,75
		c-0.1,37.2,30.2,67.6,67.6,67.7C112.1,142.9,142.6,112.4,142.7,75z"/>
	<path class="st2" d="M76.3,134.1c-13.6-0.2-24.7-3.8-34.6-11.1c-1.8-1.3-2.1-2.9-0.7-4.7c7.3-9.6,14.6-19.2,21.9-28.7
		c1.4-1.8,2.8-1.9,5-0.4c4.1,2.6,8.3,2.9,12.7,0.9c0.5-0.2,1-0.5,1.5-0.8c2.6-1.6,3.7-1.4,5.6,1c4.4,5.7,8.7,11.5,13.1,17.2
		c2.7,3.5,5.3,7,8,10.5c1.7,2.3,1.5,3.7-0.9,5.4c-7.3,5.3-15.3,8.7-24.2,10.1C80.8,133.8,77.9,134,76.3,134.1z M102.8,119.6
		c-0.3-0.3-0.4-0.6-0.6-0.9c-5.8-7.6-11.7-15.3-17.4-23c-0.7-0.9-1.2-0.9-2.1-0.5c-2.7,1.3-5.6,2-8.6,1.6c-2.7-0.4-5.4-1.1-8.3-1.7
		c-6,7.9-12.3,16.2-18.6,24.4C63.2,130.9,85.8,131.4,102.8,119.6z"/>
	<path class="st2" d="M16.5,72.6c0.2-10.5,3-20.2,8.6-29.1c5.9-9.4,13.9-16.4,24-21.1c2-0.9,3.5-0.3,4.5,1.9c4,8.8,8,17.6,12,26.3
		c0.9,2,1.8,4,2.7,6c1,2.2,0.6,3.5-1.5,4.7c-4.8,2.6-7.2,6.6-7.3,12.1c0,2.5-0.9,3.5-3.4,3.7c-8.9,0.7-17.7,1.3-26.6,1.9
		c-3,0.2-6,0.4-9,0.6c-2.4,0.1-3.5-0.9-3.7-3.3C16.6,75.1,16.6,73.8,16.5,72.6z M49.2,28.8C29.6,39.1,21.7,59.4,22.6,73.6
		c0.2,0,0.4,0,0.7,0c9.8-0.7,19.7-1.4,29.5-2.1c0.4,0,0.9-0.6,1-1c0.5-3.1,1.5-6,3.5-8.4c1.4-1.8,3.1-3.3,4.8-5.1
		C57.7,47.8,53.5,38.3,49.2,28.8z"/>
	<path class="st2" d="M133.3,72.8c-0.1,1.1-0.1,2.3-0.2,3.4c-0.2,2.6-1.2,3.5-3.8,3.4c-4.3-0.3-8.6-0.6-12.9-0.9
		c-7.5-0.5-15-1.1-22.5-1.6c-2.5-0.2-3.3-1-3.4-3.5c-0.1-5.5-2.5-9.6-7.4-12.2c-2.1-1.1-2.5-2.4-1.5-4.5
		c4.9-10.9,9.8-21.8,14.8-32.6c1-2.2,2.5-2.7,4.7-1.7c16.3,8,26.6,20.9,30.8,38.6c0.9,3.8,1.1,7.7,1.6,11.6
		C133.5,72.8,133.4,72.8,133.3,72.8z M127.5,73.7c0.7-18.7-11.1-37.4-26.8-44.7c-4.3,9.4-8.5,18.9-12.8,28.3c0.5,0.4,0.9,0.7,1.3,1
		c3.8,3.1,6.2,7,6.9,11.8c0.2,1.1,0.6,1.4,1.6,1.4c6.2,0.4,12.3,0.9,18.5,1.3C119.9,73.2,123.7,73.4,127.5,73.7z"/>
	<path class="st2" d="M75,62.9c6.6,0,12.1,5.4,12.1,12c0,6.6-5.4,12.1-12,12.1c-6.6,0-12.1-5.5-12.1-12C62.9,68.4,68.4,63,75,62.9z
		 M68.7,75c0,3.4,2.9,6.3,6.3,6.3c3.4,0,6.3-2.9,6.3-6.4c0-3.4-2.9-6.2-6.2-6.2C71.6,68.7,68.7,71.6,68.7,75z"/>
</g>
</svg>
