<?xml version="1.0" encoding="utf-8"?>
<!-- Generator: Adobe Illustrator 24.3.0, SVG Export Plug-In . SVG Version: 6.00 Build 0)  -->
<svg version="1.1" id="Layer_1" xmlns="http://www.w3.org/2000/svg" xmlns:xlink="http://www.w3.org/1999/xlink" x="0px" y="0px"
	 viewBox="0 0 150 150" style="enable-background:new 0 0 150 150;" xml:space="preserve">
<style type="text/css">
	.st0{fill:#5F6368;}
	.st1{fill:#005BAB;}
</style>
<path class="st0" d="M2053.7-657.2c-2.1,0-3.6,0-5.1,0C2049.8-661.3,2051.5-660.2,2053.7-657.2z"/>
<g>
	<path class="st1" d="M92.3,120c3.5,0.3,6.9,0.4,10.1,1c12,2.3,21.6,12,24,23.9c0.7,3.7-0.2,4.9-4,4.9c-30.2,0-60.4,0-90.7,0
		c-4.1,0-5-1.2-4.1-5.3c3.2-14.1,15.4-23.9,29.9-24.2c1.3,0,2.5,0,4.1,0c0-2,0.1-3.9-0.1-5.8c0-0.4-0.7-0.9-1.2-1.1
		c-10.2-5.2-16.5-13.3-19-24.5c-0.1-0.6-0.9-1.3-1.5-1.5c-9.6-3-13.8-12.2-9.7-21.4c0.3-0.7,0.4-1.5,0.3-2.3
		C26.4,38,44.3,13.7,70.2,10c26-3.7,49.6,14,53.3,40.1c0.6,4.4,0,9,0,13.5c0,0.9,0,1.9,0.4,2.7c4,8.9-0.3,18.4-9.6,21.1
		c-1.2,0.3-1.5,0.9-1.8,2c-2.4,10.6-8.4,18.6-18,23.6c-1.7,0.9-2.4,1.8-2.2,3.6C92.4,117.7,92.3,118.9,92.3,120z M107.5,70.4
		C107.5,70.4,107.5,70.4,107.5,70.4c0-4.7,0-9.3,0-14c0-3.3-0.7-6.3-2.5-9.1c-0.7-1.2-1.4-1.6-2.9-1.1c-2,0.7-4.1,1.3-6.2,1.4
		c-7,0.2-14.1,0.2-21.2,0.2c-8.4,0-16.8-0.2-25.1-0.2c-0.5,0-1.4,0.6-1.5,1.1c-0.7,2.5-1.7,5.1-1.7,7.7c-0.2,8.7-0.1,17.4-0.1,26.1
		c0,4,0.8,7.8,2.4,11.4c5.8,13.2,20.8,20.3,35.4,16.9c15.1-3.4,23.9-16.2,23.4-29.5C107.4,77.8,107.5,74.1,107.5,70.4z M35.8,59.9
		c1-0.4,1.8-0.9,2.7-1.1c1.8-0.3,2.4-1.2,2.4-3.1c0-4.8,1.5-9.1,4.5-12.9c1-1.3,2.2-1.7,3.8-1.2c1.4,0.5,3,0.7,4.5,0.7
		c13.2,0.1,26.5,0.2,39.7-0.1c3,0,6-1,8.8-2c2.6-0.9,3.2-1,5.1,1c4,4.2,5.8,9.3,5.9,15.1c0,0.7,0.3,1.7,0.8,2
		c1.3,0.7,2.8,1.1,4.2,1.6c1.5-11.1-3.4-27.8-18.2-37.7c-13.9-9.3-32.2-9.2-46.2,0.2C39.3,32.1,34.3,48.5,35.8,59.9z M33.6,144.1
		c29,0,57.8,0,87,0c-1-2.1-1.7-3.9-2.6-5.6c-5.3-9.1-17-14.5-27-12.5c-0.5,0.1-1,0.4-1.4,0.7c-7.9,5.3-17.2,5.3-25.1,0.1
		c-0.5-0.3-1-0.7-1.6-0.8c-6.7-0.3-13.2,0.2-18.9,4.1C38.9,133.5,35.3,138.1,33.6,144.1z M86.7,116.1c-6.6,1.6-12.9,1.5-19.5,0
		c0,1.6-0.1,3,0.1,4.4c0.1,0.8,0.6,1.8,1.2,2.2c5.7,3.4,11.5,3.3,17.1-0.1c0.5-0.3,0.9-1,1-1.5C86.8,119.5,86.7,117.9,86.7,116.1z
		 M40.6,81.6c0-5.9,0-11.7,0-17.5c-4.1,1.3-6.5,4.8-6.4,9.1C34.2,77.2,36.8,80.6,40.6,81.6z M113.2,81.6c4.3-1.2,6.8-5.1,6.5-9.7
		c-0.3-3.8-3.2-7.3-6.5-7.7C113.2,70,113.2,75.7,113.2,81.6z"/>
	<path class="st1" d="M137.9,14.6c2.5,0.9,4.8,1.7,7,2.6c2.5,0.9,3.1,2.7,1.6,4.8c-3.2,4.4-6.5,8.7-9.8,13.1
		c-1.2,1.6-2.9,1.8-4.2,0.8c-1.3-1-1.4-2.6-0.2-4.2c2.5-3.4,5.1-6.8,7.7-10.3c-2.6-0.9-5-1.8-7.3-2.6c-2.9-1.1-3.3-3.1-1.2-5.4
		c3.6-3.9,7.2-7.8,10.9-11.7c1.6-1.7,3.1-2,4.5-0.7c1.3,1.2,1.2,2.8-0.4,4.5C143.7,8.5,140.9,11.4,137.9,14.6z"/>
	<path class="st1" d="M12.7,16.2c-1.6-2.8-3.2-5.4-4.7-8c-0.6-1-1.2-2-1.8-3.1C5.1,3.3,5.4,1.9,6.8,1C8.3,0,9.8,0.5,11,2.4
		c1.3,2,2.4,4.1,3.7,6.2c1.5,2.6,3.1,5.1,4.5,7.7c1.3,2.3,0.6,4-2,4.6c-2.3,0.6-4.6,1.1-7.2,1.8c0.4,0.6,0.7,1.1,1,1.5
		c2.2,2.9,4.4,5.9,6.5,8.8c1.2,1.6,1,3.2-0.2,4.2c-1.3,1-3,0.7-4.2-0.8c-3.4-4.5-6.7-8.9-10-13.4c-1.6-2.2-0.8-4.2,1.8-4.8
		C7.4,17.5,9.9,16.9,12.7,16.2z"/>
	<path class="st1" d="M79.2,89.1c2.6,0,6.7,1.6,10.1,4.8c1.5,1.4,1.7,3.2,0.6,4.4c-1.1,1.2-2.7,1.1-4.2-0.2
		c-5.6-4.6-11.8-4.6-17.4,0c-1.6,1.4-3.3,1.4-4.4,0.1c-1.1-1.3-0.8-2.9,0.8-4.3C68.1,90.7,72.4,89.1,79.2,89.1z"/>
	<path class="st1" d="M61.9,73c-1.7-1-3.2-1.7-4.6-2.6c-1.7-1-2.2-2.6-1.3-4c0.8-1.4,2.3-1.7,4-0.9c3,1.6,6.1,3.2,9.1,5
		c2.3,1.3,2.3,3.9,0,5.2c-3,1.6-6.1,3.1-9.3,4.6c-1.6,0.8-3.2,0.2-3.9-1.2c-0.7-1.4-0.1-3,1.5-3.8C58.8,74.5,60.2,73.9,61.9,73z"/>
	<path class="st1" d="M92,73c1.7,0.9,3.1,1.5,4.4,2.2c1.7,0.9,2.2,2.5,1.5,4c-0.7,1.4-2.3,1.8-4,1c-3-1.4-6-2.9-8.9-4.4
		c-2.5-1.3-2.6-3.9-0.1-5.3c3-1.7,6-3.4,9.1-5c1.7-0.9,3.2-0.4,4,0.9c0.8,1.4,0.3,2.9-1.3,3.9c-0.7,0.5-1.5,0.8-2.3,1.3
		C93.7,72,93,72.5,92,73z"/>
</g>
</svg>
