<?xml version="1.0" encoding="utf-8"?>
<!-- Generator: Adobe Illustrator 24.3.0, SVG Export Plug-In . SVG Version: 6.00 Build 0)  -->
<svg version="1.1" id="Layer_1" xmlns="http://www.w3.org/2000/svg" xmlns:xlink="http://www.w3.org/1999/xlink" x="0px" y="0px"
	 viewBox="0 0 150 150" style="enable-background:new 0 0 150 150;" xml:space="preserve">
<style type="text/css">
	.st0{fill:#005BAB;}
</style>
<g>
	<g>
		<path class="st0" d="M75,149.7c-6.8,0-12.5-5.3-13.1-12h-1.8c-7.2,0-13.1-5.9-13.1-13.1c0-7.2,5.9-13.1,13.1-13.1h1.8v-4.2
			c-11-2.7-20.9-8.9-28.3-17.6c-8.3-9.8-12.9-22.2-12.9-35C20.7,24.6,45.1,0.3,75,0.3s54.3,24.4,54.3,54.3c0,12.8-4.6,25.3-12.9,35
			c-7.4,8.7-17.3,14.9-28.3,17.6v4.2h1.8c7.2,0,13.1,5.9,13.1,13.1c0,7.2-5.9,13.1-13.1,13.1h-1.8C87.5,144.4,81.8,149.7,75,149.7z
			 M60.1,120.2c-2.4,0-4.4,2-4.4,4.4s2,4.4,4.4,4.4h6.1c2.4,0,4.4,2,4.4,4.4v3.2c0,2.4,2,4.4,4.4,4.4c2.4,0,4.4-2,4.4-4.4v-3.2
			c0-2.4,2-4.4,4.4-4.4h6.1c2.4,0,4.4-2,4.4-4.4s-2-4.4-4.4-4.4h-6.1c-2.4,0-4.4-2-4.4-4.4v-12.2c0-2.1,1.5-3.9,3.6-4.3
			c21.8-3.9,37.5-22.7,37.5-44.8C120.5,29.5,100.1,9,75,9S29.5,29.5,29.5,54.6c0,22.1,15.8,41,37.5,44.8c2.1,0.4,3.6,2.2,3.6,4.3
			v12.2c0,2.4-2,4.4-4.4,4.4H60.1z M75,91.3c-20.3,0-36.8-16.5-36.8-36.8S54.7,17.8,75,17.8s36.8,16.5,36.8,36.8S95.3,91.3,75,91.3z
			 M75,26.6c-15.4,0-28,12.6-28,28s12.6,28,28,28s28-12.6,28-28S90.4,26.6,75,26.6z"/>
	</g>
	<g>
		<g>
			<path class="st0" d="M66.2,70.9c-2.4,0-4.4-2-4.4-4.4V42.6c0-2.4,2-4.4,4.4-4.4c2.4,0,4.4,2,4.4,4.4v23.9
				C70.6,69,68.7,70.9,66.2,70.9z"/>
		</g>
		<g>
			<path class="st0" d="M83.8,70.9c-2.4,0-4.4-2-4.4-4.4V42.6c0-2.4,2-4.4,4.4-4.4c2.4,0,4.4,2,4.4,4.4v23.9
				C88.1,69,86.2,70.9,83.8,70.9z"/>
		</g>
	</g>
</g>
</svg>
