<?xml version="1.0" encoding="utf-8"?>
<!-- Generator: Adobe Illustrator 24.3.0, SVG Export Plug-In . SVG Version: 6.00 Build 0)  -->
<svg version="1.1" id="Layer_1" xmlns="http://www.w3.org/2000/svg" xmlns:xlink="http://www.w3.org/1999/xlink" x="0px" y="0px"
	 viewBox="0 0 150 150" style="enable-background:new 0 0 150 150;" xml:space="preserve">
<style type="text/css">
	.st0{fill:#075CAA;}
</style>
<path class="st0" d="M56.1,35c-0.4-1.9-0.7-3.5-2.1-5c-2.2-2.4-2.3-5.6-2-8.7C53.1,5.4,69.2-3.4,83.2,4.1c3.8,2,6.9,4.8,9.5,8.1
	c1.9,2.5,2.1,5.2,0.6,8c-0.5,0.8-0.5,1.5-0.2,2.3c1.6,4,1.7,8.2,0.6,12.4c2.1,0.6,4.3,1,6.3,1.7c23.7,7.9,38,24.2,42.7,48.8
	c1,5.1,1.6,10.4,0.3,15.6c-1.5,6.5-5.7,10.6-12.2,12.1c-1,0.2-1.5,0.8-2.1,1.6c-4,5.4-4.1,11.9-5.4,18c-0.9,4.4-1.6,8.9-2.4,13.4
	c-0.3,1.6-1.2,2.5-2.9,2.5c-0.5,0-0.9,0-1.4,0c-27.8,0-55.6,0-83.5,0c-3.4,0-3.8-0.3-4.4-3.6c-1.4-7.8-2.8-15.6-4.3-23.4
	c-0.2-1.1-0.7-2.1-1.2-3.1c-0.6-1.2-1.5-2.2-1.9-3.4c-0.6-1.4-1.5-1.9-2.9-2.2c-7.3-1.7-12.2-8.2-12.3-16.2
	c-0.1-14,3.7-26.9,12.2-38.2c9.2-12.2,21.3-20,36.3-23.3C55.2,35.2,55.6,35.1,56.1,35z M122.6,116.1c5.2-8.5,6.5-17.5,4.6-26.9
	c-2.6-12.8-9.3-23.2-19-31.7c-2.8-2.4-6-4.3-8.9-6.5c-0.7-0.6-1.4-1.7-1.4-2.6c0-0.7,1-1.6,1.8-1.9c0.6-0.2,1.7,0.2,2.3,0.6
	c5.5,3.2,10.5,7.2,14.8,11.9c1.1,1.2,2.1,2.4,3.2,3.7c0.8-0.9,1.5-1.6,2.2-2.3c0.8-0.7,1.6-1.4,2.4-2c-0.3-0.5-0.4-0.7-0.5-0.8
	c-8.5-9.4-19.1-15.2-31.5-17.6c-0.5-0.1-1.4,0.4-1.7,0.9c-8.1,11.1-24.1,11.1-32.1-0.1c-0.6-0.9-1.2-1-2.1-0.8
	c-6.5,1.3-12.6,3.6-18.3,7c-4.9,3-9.3,6.6-13.1,10.9c1.5,1.6,3,3.1,3.8,3.9c2.9-2.5,5.6-5.1,8.6-7.4c3.4-2.7,6.9-5.1,10.5-7.5
	c1.4-0.9,2.8-0.5,3.5,0.8c0.7,1.2,0.3,2.5-1,3.4c-0.2,0.2-0.5,0.3-0.7,0.4c-8.2,4.9-14.9,11.5-20,19.6c-6.3,10-9.6,20.7-7.6,32.7
	c0.8,4.5,2.4,8.7,4.9,12.5C62.5,96.7,92.2,100.3,122.6,116.1z M30.5,120.2c0.9,0.9,1.7,1.6,2.5,2.3c5.2,4.5,11.2,7.5,17.7,9.6
	c11.8,3.8,23.8,4.7,36,2.9c10.2-1.4,19.8-4.6,28.1-10.8c1.6-1.2,3-2.6,4.4-3.8C89.7,103.3,60.2,104.2,30.5,120.2z M60.6,31.7
	C60.9,37,65.4,42,71,43.7c5.8,1.7,12.2-0.5,15.8-5.5c3.1-4.3,3.8-10.6,1.6-13.9c-3,0.5-6,1.2-8.9,1.5c-3,0.3-6.1,0-9.2,0.2
	c-0.9,0-2,0.4-2.5,1C65.8,29.2,63.5,30.9,60.6,31.7z M73.9,21.2c4.7,0,9.1-0.4,13.4-2c2.3-0.8,2.7-2.5,1.2-4.4
	c-2.8-3.6-6.3-6.2-10.6-7.6c-9-3-18,1.6-20.4,10.8c-0.7,2.5-0.3,5.2-0.3,7.9c0,1,0.8,1.6,1.8,1.1c1.6-0.8,3.4-1.5,4.5-2.8
	c2.1-2.3,4.5-3.5,7.7-3.1C72.2,21.1,73.1,21.1,73.9,21.2z M33.5,143.6c13.1,0,26,0,38.9,0c0-1,0-1.9,0-3c-15.2-0.6-29.5-3.8-42-13.9
	C31.5,132.6,32.5,138.1,33.5,143.6z M119.4,126.7c-12.5,10.1-26.8,13.3-42,13.9c0,1.1,0,2,0,3c13,0,25.9,0,38.9,0
	C117.4,138.1,118.4,132.6,119.4,126.7z M131.7,107.6c3.9-1.3,6.8-5.2,7-9.3c0.5-11-1.8-21.4-7.4-31c-1.1-1.8-2.3-3.6-3.3-5.2
	c-1.7,1.7-3.3,3.2-4.9,4.7C132.8,84.4,134,90.1,131.7,107.6z M22.2,61.8c-0.3,0.3-0.4,0.5-0.5,0.7c-7.6,10.8-11,22.8-10.3,35.9
	c0.2,3.9,2.3,6.8,5.7,8.7c0.3,0.2,0.8,0.3,1.3,0.5c-3.5-15.2,0.7-28.5,8.5-40.9C25.2,65.1,23.7,63.5,22.2,61.8z"/>
</svg>
