<?xml version="1.0" encoding="utf-8"?>
<!-- Generator: Adobe Illustrator 24.3.0, SVG Export Plug-In . SVG Version: 6.00 Build 0)  -->
<svg version="1.1" id="Layer_1" xmlns="http://www.w3.org/2000/svg" xmlns:xlink="http://www.w3.org/1999/xlink" x="0px" y="0px"
	 viewBox="0 0 150 150" style="enable-background:new 0 0 150 150;" xml:space="preserve">
<style type="text/css">
	.st0{fill:url(#SVGID_1_);}
	.st1{fill:url(#SVGID_2_);}
	.st2{fill:#075CAA;}
</style>
<g>
	<linearGradient id="SVGID_1_" gradientUnits="userSpaceOnUse" x1="1409.0724" y1="1183.1483" x2="1563.3518" y2="1183.1483">
		<stop  offset="0" style="stop-color:#02AE4D"/>
		<stop  offset="0.2754" style="stop-color:#128469"/>
		<stop  offset="0.5297" style="stop-color:#1A6476"/>
		<stop  offset="0.7415" style="stop-color:#214E7B"/>
		<stop  offset="0.9027" style="stop-color:#273E7D"/>
		<stop  offset="0.9944" style="stop-color:#29377D"/>
	</linearGradient>
	<path class="st0" d="M1483.6,1238.5c-0.8,2.4-1.5,4.5-2.2,6.6c-1,3-2,6-2.9,9c-0.5,1.6-1.5,2.3-3.2,2.3c-13.1,0-26.1,0-39.2,0
		c-2.1,0-2.9-0.7-3.2-2.8c-1.5-10.5-2.9-21-4.6-31.4c-0.6-3.5-2-6.7-2.9-10.1c-1.5-5.5-2.8-11.1-4.2-16.6c-0.2-0.7-0.7-1.4-1.2-1.9
		c-1.1-1-2.4-1.8-3.5-2.8c-9.5-7.9-9.9-21.9-0.9-30.3c5.5-5.1,11.1-9.9,16.7-14.9c0.7-0.6,1.3-1.6,1.6-2.5c3-10.2,6-20.4,9-30.6
		c0.6-2.1,1.3-2.6,3.4-2.6c25.1,0,50.1,0,75.2,0.1c1,0,2.3,0.5,3.1,1.2c10.7,10,21.4,20.1,32,30.2c9.3,8.8,9.1,21.9-0.2,30.6
		c-9.9,9.3-19.8,18.6-29.8,27.9c-0.9,0.9-1.2,1.7-1,2.9c1.3,10.3,2.5,20.5,3.7,30.8c0.8,6.4,1.6,12.9,2.3,19.3
		c0.2,2-0.9,3.1-3.2,3.2c-11.6,0.1-23.1,0.2-34.7,0.4c-0.3,0-0.6,0-1,0c-2.7,0-3.2-0.3-4-2.9c-1.4-4.4-2.8-8.8-4.2-13.1
		C1484.1,1239.9,1483.9,1239.4,1483.6,1238.5z M1437.8,1251.1c0.3,0.1,0.5,0.1,0.6,0.1c11.6,0,23.1,0,34.7,0c1,0,1.1-0.5,1.3-1.2
		c1.9-6.1,3.9-12.1,5.9-18.2c0.3-0.9,0.1-1.5-0.6-2.1c-1.7-1.5-3.5-2.9-5-4.6c-0.7-0.8-1.3-2-1.3-3c-0.1-4.2-0.1-8.5,0-12.7
		c0-1.1-0.2-1.6-1.4-1.8c-12.5-2.3-24.9-4.6-37.4-7c-2.4-0.5-4.9-0.9-7.8-1.4c1.3,4.2,2.5,8,3.6,11.8c1,3.5,2.4,7,3,10.6
		C1435.1,1231.6,1436.4,1241.3,1437.8,1251.1z M1451.6,1187.4c18.4,2.6,36.6,2.9,55,0.9c-0.7-2.7-1.2-5.2-1.9-7.6
		c-0.5-1.7,0-2.9,1.5-3.8c0.9-0.5,1.7-1.2,2.7-1.8c1-0.6,1.3-1.2,0.9-2.3c-1-2.8-1.9-5.7-2.6-8.6c-0.3-1-0.3-2.1-0.1-3.1
		c0.6-3.4,1.2-6.7,1.9-10.1c-17.3,0-34.4,0-51.6,0c0.2,1.2,0.3,2.3,0.6,3.4c1.7,6,1.6,11.7-1,17.6
		C1454.7,1176.9,1453.4,1182.1,1451.6,1187.4z M1509.7,1115.1c-17.6,0-35.1,0-52.6,0c-1.3,5-2.6,9.9-3.8,14.8
		c-1.2,5.1-0.6,10,1.4,14.8c0.3,0.8,0.7,1.2,1.8,1.2c17.6,0,35.1,0,52.7-0.1c0.5,0,1.4-0.5,1.5-0.9c0.9-2.8,2.1-5.7,2.4-8.6
		C1514,1128.9,1510.8,1122.2,1509.7,1115.1z M1478.5,1208.2c0,2.2,0,4.1,0,6.1c0,2.5-0.6,5.3,0.3,7.4c0.9,2.1,3.5,3.3,5.2,5.1
		c0.8,0.8,1.6,1.9,2,3c2.3,6.6,4.5,13.2,6.6,19.8c0.4,1.2,0.8,1.7,2.2,1.6c10-0.2,19.9-0.2,29.9-0.4c0.4,0,0.8-0.1,1.3-0.1
		c-1.9-16-3.8-31.8-5.7-47.8C1506.2,1204.8,1492.5,1206.5,1478.5,1208.2z M1514.9,1115c0.2,0.7,0.3,1.3,0.4,1.9
		c1,4.4,2,8.8,2.9,13.2c0.2,1.2,0.7,2,1.5,2.9c7.3,7.2,14.6,14.5,21.8,21.8c1.7,1.7,1.8,2.9,0.3,4.4c-5.1,5.2-10.1,10.3-15.2,15.4
		c-1.3,1.3-2.5,1.3-3.9,0.2c-1.1-0.9-2.1-1.9-3.2-2.7c-1.4-1.2-3-1.7-5-1.1c0.4,1.2,0.7,2.3,1.1,3.4c0.5,1.5,0.1,2.6-1.2,3.4
		c-1.1,0.7-2.2,1.5-3.3,2.2c-0.8,0.4-1,0.9-0.7,1.8c0.4,1.3,0.7,2.7,1,4c1.1,4.2,2.1,8.5,3.2,12.8c2.2-0.3,4.2-0.5,6.3-0.8
		c0.4-0.1,0.9-0.4,1.2-0.7c10.4-9.8,20.9-19.5,31.3-29.3c6.5-6.2,6.6-15.9,0.1-22.2c-10.4-10-21-19.9-31.5-29.8
		c-0.4-0.3-0.9-0.7-1.3-0.7C1518.7,1115,1516.9,1115,1514.9,1115z M1451.7,1150c-0.2-0.3-0.2-0.5-0.3-0.7c-4-7.3-4.7-15-2.4-23
		c1.1-3.7,1.9-7.4,2.9-11.2c-1.6,0-3,0-4.4,0c-0.1,0.4-0.3,0.8-0.4,1.1c-2.8,9.6-5.6,19.2-8.4,28.8c-0.5,1.7-1.3,3-2.7,4.2
		c-5.5,4.8-11,9.7-16.5,14.6c-5.6,5-6.7,11.6-2.9,18c0.8,1.4,1.8,2.8,2.7,4.2c0.2,0.3,0.3,0.7,0.5,1.1c0.3-2,0.4-3.6,0.3-5.2
		c-0.1-1.3,0.2-2.6,1.4-3.2c3.5-1.9,4.4-4.8,3.5-8.5c-0.3-1.3,0.3-2.3,1.4-3c1.9-1.3,3.8-2.6,5.7-3.9
		C1438.7,1158.9,1445.1,1154.5,1451.7,1150z M1536.3,1157.4c-6.2-6.2-12.2-12.2-18.1-18.1c-0.6,1.9-1.1,4.2-2.1,6.2
		c-1.4,2.8-2.1,5.8-2.6,8.9c-0.4,2.4-0.8,4.9-1.4,7.2c-0.4,1.6,0.1,2.9,0.8,4.3c4.5-1.1,8.2,0.4,11.2,3.3
		C1528.3,1165.1,1532.4,1161.2,1536.3,1157.4z M1473.3,1202.8c0-2.8,0-5.5,0-7.9c-15.9-2.2-31.6-4.3-47.6-6.5
		c0.2,1.9,0.3,3.7,0.5,5.6C1441.9,1197,1457.6,1199.9,1473.3,1202.8z M1453,1156.8c-0.6,0.4-1.1,0.6-1.6,0.9c-6.4,4-12.9,8-19.3,12
		c-2,1.3-2.1,1.5-1.3,4.4c6.4,0,12.8,0,19.3,0c0.4,0,0.9-0.6,1.1-1c1-2.7,1.9-5.4,2.9-8.2c0.1-0.4,0.3-0.8,0.2-1.2
		C1453.9,1161.4,1453.4,1159.2,1453,1156.8z M1478.6,1203.1c10.4-1.3,20.5-2.6,30.8-3.8c-0.5-2.1-1-3.9-1.4-5.5
		c-9.9,0.5-19.6,0.9-29.4,1.3C1478.6,1197.6,1478.6,1200.3,1478.6,1203.1z M1449.1,1179.1c-6,0-11.6,0.2-17.3-0.1
		c-2.8-0.1-4.4,1.3-6.1,2.8c-0.6,0.5-0.6,1.1,0.4,1.3c1,0.2,2,0.3,3,0.5c5.7,1,11.4,2,17.3,3
		C1447.3,1184.2,1448.1,1181.9,1449.1,1179.1z"/>
	<linearGradient id="SVGID_2_" gradientUnits="userSpaceOnUse" x1="1481.0624" y1="1172.8564" x2="1486.2136" y2="1172.8564">
		<stop  offset="0" style="stop-color:#02AE4D"/>
		<stop  offset="0.2754" style="stop-color:#128469"/>
		<stop  offset="0.5297" style="stop-color:#1A6476"/>
		<stop  offset="0.7415" style="stop-color:#214E7B"/>
		<stop  offset="0.9027" style="stop-color:#273E7D"/>
		<stop  offset="0.9944" style="stop-color:#29377D"/>
	</linearGradient>
	<path class="st1" d="M1486.2,1172.9c0,0.3,0,0.5,0,0.8c0,1.9-1.1,3-2.6,3c-1.5,0-2.5-1.2-2.5-3.1c0-0.6,0-1.2,0-1.8
		c0.1-1.7,1.1-2.9,2.6-2.8c1.5,0,2.5,1.1,2.5,2.9C1486.2,1172.2,1486.2,1172.6,1486.2,1172.9z"/>
</g>
<g>
	<path class="st2" d="M138.8,72.5l-0.1-0.1l0,0l-0.4-0.6l-0.3-0.5l0,0l-0.1-0.2c-3-5-6.7-9.7-10.9-13.9c-4.5-4.5-9.6-8.4-15-11.6
		l-0.1-0.1l0,0l-0.8-0.4l-0.4-0.2l0,0l-0.2-0.1c-10.6-5.8-22.7-8.9-34.9-8.9h-0.3v0l-0.5,0H74v0l-0.2,0c-12.2,0.3-24.2,3.6-34.6,9.7
		l-0.1,0.1l0,0L38.6,46L38,46.3l0,0l-0.2,0.1c-4.9,3-9.5,6.6-13.6,10.7c-4.4,4.4-8.3,9.4-11.4,14.7L12.7,72l0,0l-0.2,0.4l-0.4,0.7
		l0,0L12,73.3c-5.8,10.5-9,22.4-9.1,34.6c0,0.6,0.2,1.1,0.6,1.5C4,109.8,4.5,110,5,110h25.5c1.1,0,2.1-0.9,2.1-2.1
		c0.1-6.9,1.9-13.8,5.2-19.8l0.4-0.7l0.4-0.7c3.5-5.9,8.4-11,14.2-14.7l0.7-0.4l0.7-0.4c6-3.5,12.9-5.5,19.8-5.7l0.9,0h0.8
		c7,0,14,1.7,20.1,5l0.7,0.4l0.7,0.4c6.2,3.6,11.4,8.6,15.1,14.7l0.4,0.6l0.4,0.7c3.6,6.3,5.5,13.4,5.6,20.6c0,1.1,1,2.1,2.1,2.1
		h25.5c0.6,0,1.1-0.2,1.5-0.6c0.4-0.4,0.6-0.9,0.6-1.5C148.2,95.4,144.9,83.2,138.8,72.5z M29.7,107.1H5.9c0.2-10.9,3-21.6,8-31.1
		l20.7,12C31.6,93.9,29.9,100.4,29.7,107.1z M36.8,84L16.1,72.1c2.9-4.7,6.3-9,10.2-12.9c3.6-3.6,7.6-6.8,11.8-9.5l12,20.7
		C44.7,73.9,40.2,78.6,36.8,84z M72.4,62.7C66,63.1,59.6,65,53.9,68L42,47.4c9.3-5.1,19.7-8.1,30.4-8.5L72.4,62.7z M76.9,62.6
		l0-23.8c10.8,0.2,21.4,2.9,30.9,7.8l-12,20.7C90,64.4,83.5,62.8,76.9,62.6z M99.8,69.5l11.9-20.7c4.8,2.9,9.2,6.4,13.2,10.4
		c3.7,3.7,6.9,7.7,9.7,12.1L114,83.2C110.3,77.7,105.5,73,99.8,69.5z M121.5,107.1c-0.2-7-2-13.8-5.3-19.9L137,75.2
		c5.3,9.7,8.2,20.7,8.4,31.9H121.5z"/>
	<g>
		<g>
			<path class="st2" d="M69.5,100.2l23-45.1c0.2-0.5,0.8-0.7,1.3-0.4c0.4,0.2,0.6,0.8,0.5,1.2l-18.7,47c-0.7,1.7-2.6,2.5-4.3,1.9
				c-1.7-0.7-2.5-2.6-1.9-4.3C69.4,100.4,69.4,100.3,69.5,100.2z"/>
		</g>
		<g>
			<ellipse transform="matrix(0.507 -0.862 0.862 0.507 -51.7747 112.5613)" class="st2" cx="72.5" cy="101.5" rx="6.3" ry="6.3"/>
		</g>
	</g>
	<g>
		<g>
			<path class="st2" d="M6.2,74.6L6,75.3l-3.8,0.8l3.1,1.2L4.9,78l-4.4-1.7l0.3-0.8l3.8-0.8l-3.1-1.2l0.3-0.8L6.2,74.6z"/>
			<path class="st2" d="M6.1,69.4c0.4,0.2,0.7,0.4,1,0.7c0.2,0.3,0.4,0.6,0.4,0.9c0,0.3,0,0.7-0.2,1c-0.2,0.3-0.4,0.6-0.7,0.8
				c-0.3,0.2-0.6,0.3-1,0.3c-0.4,0-0.8-0.1-1.2-0.3l-0.2-0.1c-0.4-0.2-0.7-0.4-1-0.7s-0.4-0.6-0.4-1c0-0.3,0-0.7,0.2-1
				c0.2-0.3,0.4-0.6,0.7-0.8c0.3-0.2,0.6-0.3,1-0.3c0.4,0,0.8,0.1,1.2,0.3L6.1,69.4z M5.6,70.1c-0.5-0.2-0.9-0.3-1.2-0.2
				c-0.3,0.1-0.6,0.3-0.7,0.6c-0.1,0.3-0.1,0.6,0,0.9c0.2,0.3,0.5,0.5,0.9,0.8l0.2,0.1c0.5,0.2,0.9,0.3,1.2,0.2
				c0.3-0.1,0.6-0.3,0.7-0.6c0.1-0.3,0.1-0.6,0-0.9c-0.2-0.3-0.5-0.5-1-0.8L5.6,70.1z"/>
			<path class="st2" d="M7.7,67.3l-0.4,0.8L8.8,69l-0.4,0.7l-4.1-2.2l0.8-1.5c0.2-0.5,0.5-0.8,0.9-0.9C6.3,65,6.7,65,7.1,65.2
				c0.3,0.1,0.5,0.3,0.6,0.6c0.1,0.2,0.2,0.5,0.1,0.8l2.2,0l0,0l-0.4,0.8L7.7,67.3z M6.7,67.8l0.4-0.7c0.1-0.2,0.2-0.5,0.1-0.7
				C7.1,66.2,7,66.1,6.8,66c-0.2-0.1-0.4-0.1-0.6-0.1C6,66,5.8,66.1,5.7,66.4l-0.4,0.8L6.7,67.8z"/>
			<path class="st2" d="M6.9,62.8l3.7,0.7l-2.4-3l0.5-0.9l4,2.4l-0.4,0.7l-1.3-0.8l-1.7-1.1l2.3,3l-0.3,0.5l-3.8-0.7l1.8,1l1.3,0.8
				l-0.4,0.7l-4-2.4L6.9,62.8z"/>
			<path class="st2" d="M14,58.5l-1,1.5l0.7,0.9l-0.5,0.7l-2.8-4.1l0.4-0.6l4.8,1.3l-0.5,0.7L14,58.5z M12.5,59.4l0.8-1.1l-2-0.6
				L12.5,59.4z"/>
			<path class="st2" d="M15.9,56.7l1.3-1.7l0.5,0.4l-1.8,2.3l-3.7-2.9l0.5-0.6L15.9,56.7z"/>
			<path class="st2" d="M54.1,29.6l0.5,1.7l-0.8,0.2L52.6,27l1.7-0.5c0.5-0.1,0.9-0.1,1.3,0.1c0.4,0.2,0.6,0.5,0.7,0.9
				c0.1,0.4,0.1,0.8-0.2,1.1c-0.2,0.3-0.6,0.6-1.1,0.7L54.1,29.6z M54,29l0.9-0.3c0.3-0.1,0.5-0.2,0.6-0.4c0.1-0.2,0.1-0.4,0.1-0.6
				c-0.1-0.2-0.2-0.4-0.4-0.5c-0.2-0.1-0.4-0.1-0.7-0.1l-1,0.3L54,29z"/>
			<path class="st2" d="M59.1,28.3l-0.9,0.2l0.4,1.8l-0.8,0.2l-1-4.6l1.6-0.3c0.5-0.1,1-0.1,1.3,0.1c0.3,0.2,0.6,0.5,0.6,0.9
				c0.1,0.3,0,0.6-0.1,0.8c-0.1,0.2-0.3,0.4-0.5,0.6l1.4,1.7l0,0l-0.8,0.2L59.1,28.3z M58.1,27.9l0.8-0.2c0.3-0.1,0.5-0.2,0.6-0.3
				c0.1-0.2,0.2-0.4,0.1-0.6c-0.1-0.2-0.2-0.4-0.3-0.5c-0.2-0.1-0.4-0.1-0.7-0.1l-0.8,0.2L58.1,27.9z"/>
			<path class="st2" d="M64.1,27.1l-1.9,0.3l0.2,1.4l2.2-0.4l0.1,0.6l-3,0.5L61,25l3-0.5l0.1,0.6l-2.2,0.4l0.2,1.3l1.9-0.3
				L64.1,27.1z"/>
			<path class="st2" d="M65.3,29l-0.5-4.6l1.4-0.1c0.4,0,0.8,0,1.1,0.2c0.3,0.1,0.6,0.4,0.8,0.7c0.2,0.3,0.3,0.7,0.4,1.1l0,0.2
				c0,0.4,0,0.8-0.1,1.2c-0.1,0.4-0.4,0.6-0.7,0.9c-0.3,0.2-0.7,0.3-1.1,0.4L65.3,29z M65.7,25l0.4,3.3l0.5-0.1
				c0.4,0,0.7-0.2,0.9-0.5c0.2-0.3,0.3-0.7,0.2-1.2l0-0.3c-0.1-0.5-0.2-0.9-0.5-1.1c-0.2-0.2-0.6-0.3-1-0.3L65.7,25z"/>
			<path class="st2" d="M70.4,28.6l-0.8,0.1L69.3,24l0.8-0.1L70.4,28.6z"/>
			<path class="st2" d="M74,27.3l-1.8,0l-0.4,1.1l-0.8,0l1.6-4.7l0.7,0l1.9,4.6l-0.8,0L74,27.3z M72.4,26.7l1.4,0L73,24.8L72.4,26.7
				z"/>
			<path class="st2" d="M75.7,28.4l0.1-4.7l1.6,0c0.5,0,0.9,0.1,1.2,0.4c0.3,0.2,0.4,0.5,0.4,1c0,0.2-0.1,0.4-0.2,0.6
				c-0.1,0.2-0.3,0.3-0.5,0.4c0.2,0.1,0.4,0.2,0.6,0.4c0.1,0.2,0.2,0.4,0.2,0.7c0,0.4-0.2,0.8-0.5,1c-0.3,0.2-0.7,0.3-1.2,0.3
				L75.7,28.4z M76.6,26.3l0,1.5l0.9,0c0.3,0,0.5,0,0.6-0.2c0.1-0.1,0.2-0.3,0.2-0.5c0-0.5-0.2-0.7-0.7-0.8L76.6,26.3z M76.6,25.7
				l0.8,0c0.3,0,0.5,0,0.6-0.2c0.1-0.1,0.2-0.3,0.2-0.5c0-0.2-0.1-0.4-0.2-0.5c-0.1-0.1-0.3-0.2-0.6-0.2l-0.8,0L76.6,25.7z"/>
			<path class="st2" d="M82.7,26.7l-1.9-0.2L80.7,28l2.2,0.2l-0.1,0.6l-3-0.2l0.4-4.6l3,0.2l-0.1,0.7l-2.2-0.2l-0.1,1.3l1.9,0.2
				L82.7,26.7z"/>
			<path class="st2" d="M87.4,25.4l-1.4-0.2l-0.5,4L84.6,29l0.5-4l-1.4-0.2l0.1-0.6l3.7,0.5L87.4,25.4z"/>
			<path class="st2" d="M90.4,27.9l-1.9-0.4l-0.3,1.4l2.2,0.4L90.4,30l-3-0.6l0.9-4.6l3,0.6L91.1,26l-2.2-0.4l-0.2,1.3l1.9,0.4
				L90.4,27.9z"/>
			<path class="st2" d="M93.6,29.5c0-0.2,0-0.4-0.1-0.5c-0.1-0.1-0.3-0.3-0.7-0.5c-0.3-0.2-0.6-0.4-0.8-0.6
				c-0.4-0.4-0.5-0.7-0.4-1.2c0.1-0.4,0.3-0.6,0.7-0.8c0.4-0.2,0.8-0.2,1.2-0.1c0.3,0.1,0.6,0.2,0.8,0.4c0.2,0.2,0.4,0.4,0.5,0.6
				s0.1,0.5,0,0.8l-0.8-0.2c0.1-0.2,0-0.4-0.1-0.6c-0.1-0.2-0.3-0.3-0.6-0.4c-0.3-0.1-0.5-0.1-0.6,0c-0.2,0.1-0.3,0.2-0.3,0.4
				c0,0.2,0,0.3,0.1,0.5c0.1,0.1,0.4,0.3,0.7,0.5c0.3,0.2,0.6,0.4,0.8,0.6c0.2,0.2,0.3,0.4,0.4,0.6c0.1,0.2,0.1,0.4,0,0.6
				c-0.1,0.4-0.3,0.6-0.7,0.8c-0.3,0.2-0.8,0.2-1.3,0.1c-0.3-0.1-0.6-0.2-0.9-0.4c-0.2-0.2-0.4-0.4-0.5-0.7c-0.1-0.3-0.1-0.5,0-0.8
				l0.8,0.2c-0.1,0.3,0,0.5,0.1,0.7c0.1,0.2,0.4,0.3,0.7,0.4c0.3,0.1,0.5,0.1,0.7,0C93.5,29.8,93.6,29.7,93.6,29.5z"/>
			<path class="st2" d="M131,53.8l3.6-3l0.9,1.1c0.3,0.3,0.4,0.7,0.5,1c0.1,0.4,0,0.7-0.1,1.1c-0.1,0.4-0.4,0.7-0.7,0.9l-0.2,0.1
				c-0.3,0.3-0.7,0.5-1.1,0.5c-0.4,0.1-0.7,0.1-1.1-0.1c-0.3-0.1-0.7-0.4-0.9-0.7L131,53.8z M134.6,51.9L132,54l0.3,0.4
				c0.3,0.3,0.6,0.5,0.9,0.5c0.3,0,0.7-0.2,1.1-0.5l0.2-0.2c0.4-0.3,0.6-0.7,0.7-1c0.1-0.3,0-0.7-0.3-1L134.6,51.9z"/>
			<path class="st2" d="M134.2,57.8l-0.5-0.6l3.7-2.8l0.5,0.6L134.2,57.8z"/>
			<path class="st2" d="M137.2,60.1l-1-1.5l-1.1,0.3l-0.5-0.7l4.8-1.2l0.4,0.6l-2.8,4.1l-0.5-0.7L137.2,60.1z M136.9,58.4l0.8,1.1
				l1.2-1.7L136.9,58.4z"/>
			<path class="st2" d="M137.3,62.1l4-2.5l0.8,1.4c0.3,0.4,0.4,0.8,0.4,1.2c0,0.3-0.2,0.6-0.6,0.9c-0.2,0.1-0.4,0.2-0.6,0.2
				c-0.2,0-0.4-0.1-0.6-0.2c0.1,0.2,0.1,0.5,0,0.7c-0.1,0.2-0.2,0.4-0.5,0.5c-0.4,0.2-0.7,0.3-1.1,0.2c-0.3-0.1-0.7-0.4-0.9-0.8
				L137.3,62.1z M139.5,61.7l-1.2,0.8l0.5,0.8c0.1,0.2,0.3,0.4,0.5,0.4c0.2,0.1,0.4,0,0.6-0.1c0.4-0.3,0.5-0.6,0.2-1L139.5,61.7z
				 M140,61.4l0.4,0.7c0.1,0.2,0.3,0.4,0.5,0.4c0.2,0.1,0.3,0,0.5-0.1c0.2-0.1,0.3-0.3,0.3-0.4c0-0.2,0-0.4-0.2-0.6l-0.4-0.7
				L140,61.4z"/>
			<path class="st2" d="M142.6,67l-0.9-1.7l-1.3,0.7l1.1,2l-0.6,0.3l-1.5-2.7l4.1-2.3L145,66l-0.6,0.3l-1.1-1.9l-1.1,0.6l0.9,1.7
				L142.6,67z"/>
			<path class="st2" d="M146.3,70.1l-0.6-1.3l-3.6,1.8l-0.4-0.7l3.6-1.8l-0.6-1.3l0.6-0.3l1.6,3.3L146.3,70.1z"/>
			<path class="st2" d="M145.9,74.1l-0.7-1.8l-1.3,0.6l0.9,2.1l-0.6,0.3l-1.2-2.8l4.3-1.8l1.2,2.8l-0.6,0.3l-0.9-2l-1.2,0.5l0.7,1.8
				L145.9,74.1z"/>
			<path class="st2" d="M146.3,77.6c0.2-0.1,0.3-0.2,0.4-0.4c0.1-0.2,0.1-0.5,0-0.8c0-0.4,0-0.7,0-1c0.1-0.5,0.4-0.8,0.8-1
				c0.4-0.1,0.7-0.1,1,0.1c0.3,0.2,0.6,0.5,0.8,1c0.1,0.3,0.2,0.6,0.1,0.9c0,0.3-0.1,0.5-0.3,0.7s-0.4,0.4-0.6,0.5l-0.3-0.8
				c0.2-0.1,0.4-0.2,0.5-0.4c0.1-0.2,0.1-0.4,0-0.7c-0.1-0.2-0.2-0.4-0.4-0.5c-0.2-0.1-0.3-0.1-0.5,0c-0.2,0.1-0.3,0.2-0.3,0.4
				c-0.1,0.2-0.1,0.5,0,0.8c0,0.4,0,0.7,0,0.9c-0.1,0.3-0.1,0.5-0.3,0.6c-0.1,0.2-0.3,0.3-0.5,0.4c-0.4,0.1-0.7,0.1-1-0.1
				c-0.3-0.2-0.6-0.5-0.7-1c-0.1-0.3-0.2-0.6-0.1-0.9c0-0.3,0.1-0.6,0.3-0.8c0.2-0.2,0.4-0.4,0.6-0.5l0.3,0.8
				c-0.2,0.1-0.4,0.2-0.5,0.5c-0.1,0.2-0.1,0.5,0.1,0.8c0.1,0.3,0.2,0.4,0.4,0.5C145.9,77.7,146.1,77.7,146.3,77.6z"/>
		</g>
	</g>
	<g>
		<g>
			<path class="st2" d="M11,125c-0.3,0.4-0.8,0.7-1.4,0.9c-0.6,0.2-1.3,0.3-2,0.3c-0.8,0-1.4-0.2-2-0.5c-0.6-0.3-1-0.8-1.3-1.4
				c-0.3-0.6-0.5-1.4-0.5-2.2v-0.6c0-0.9,0.1-1.6,0.4-2.3c0.3-0.6,0.7-1.1,1.3-1.5c0.6-0.3,1.2-0.5,2-0.5c1,0,1.8,0.2,2.4,0.7
				c0.6,0.5,0.9,1.2,1,2.2H9.2c-0.1-0.5-0.3-0.9-0.5-1.1c-0.3-0.2-0.7-0.3-1.1-0.3c-0.6,0-1.1,0.2-1.4,0.7s-0.5,1.1-0.5,2.1v0.6
				c0,0.9,0.2,1.6,0.5,2.1c0.3,0.5,0.9,0.7,1.5,0.7c0.7,0,1.2-0.1,1.4-0.4v-1.5H7.5v-1.3H11V125z"/>
			<path class="st2" d="M14.2,124.7h3.8v1.4h-5.6v-8.8h1.8V124.7z"/>
			<path class="st2" d="M25.6,117.4v5.8c0,1-0.3,1.7-0.9,2.3c-0.6,0.6-1.4,0.8-2.5,0.8c-1,0-1.8-0.3-2.4-0.8
				c-0.6-0.5-0.9-1.3-0.9-2.2v-5.8h1.8v5.8c0,0.6,0.1,1,0.4,1.3c0.3,0.3,0.7,0.4,1.1,0.4c1,0,1.5-0.5,1.5-1.6v-5.8H25.6z"/>
			<path class="st2" d="M33.9,123.2c-0.1,0.9-0.4,1.7-1,2.2c-0.6,0.5-1.5,0.8-2.5,0.8c-1.1,0-2-0.4-2.6-1.1c-0.6-0.8-1-1.8-1-3.1
				v-0.5c0-0.8,0.1-1.6,0.4-2.2c0.3-0.6,0.7-1.1,1.3-1.5c0.6-0.3,1.2-0.5,1.9-0.5c1,0,1.8,0.3,2.4,0.8c0.6,0.5,1,1.3,1.1,2.3h-1.8
				c0-0.6-0.2-1-0.5-1.2c-0.3-0.3-0.7-0.4-1.2-0.4c-0.6,0-1.1,0.2-1.3,0.6c-0.3,0.4-0.5,1.1-0.5,2v0.7c0,0.9,0.1,1.6,0.4,2.1
				c0.3,0.4,0.7,0.7,1.4,0.7c0.6,0,1-0.1,1.2-0.4c0.3-0.3,0.4-0.6,0.5-1.2H33.9z"/>
			<path class="st2" d="M42.3,122c0,0.9-0.2,1.6-0.5,2.3c-0.3,0.6-0.7,1.1-1.3,1.5c-0.6,0.4-1.2,0.5-2,0.5c-0.7,0-1.4-0.2-1.9-0.5
				c-0.6-0.3-1-0.8-1.3-1.5c-0.3-0.6-0.5-1.4-0.5-2.2v-0.4c0-0.9,0.2-1.6,0.5-2.3c0.3-0.7,0.7-1.2,1.3-1.5c0.6-0.4,1.2-0.5,1.9-0.5
				c0.7,0,1.4,0.2,1.9,0.5c0.6,0.4,1,0.9,1.3,1.5c0.3,0.7,0.5,1.4,0.5,2.3V122z M40.5,121.6c0-0.9-0.2-1.6-0.5-2.1
				c-0.3-0.5-0.8-0.7-1.4-0.7c-0.6,0-1.1,0.2-1.4,0.7c-0.3,0.5-0.5,1.2-0.5,2.1v0.4c0,0.9,0.2,1.6,0.5,2.1c0.3,0.5,0.8,0.7,1.4,0.7
				c0.6,0,1.1-0.2,1.4-0.7c0.3-0.5,0.5-1.2,0.5-2.1V121.6z"/>
			<path class="st2" d="M48.1,123.8c0-0.3-0.1-0.6-0.4-0.8c-0.2-0.2-0.7-0.4-1.3-0.6c-0.6-0.2-1.1-0.4-1.5-0.6
				c-1-0.5-1.5-1.3-1.5-2.2c0-0.5,0.1-0.9,0.4-1.3c0.3-0.4,0.6-0.7,1.1-0.9c0.5-0.2,1.1-0.3,1.7-0.3c0.6,0,1.2,0.1,1.7,0.3
				c0.5,0.2,0.9,0.5,1.1,1c0.3,0.4,0.4,0.9,0.4,1.4h-1.8c0-0.4-0.1-0.7-0.4-0.9c-0.3-0.2-0.6-0.3-1.1-0.3c-0.4,0-0.8,0.1-1,0.3
				c-0.2,0.2-0.4,0.4-0.4,0.7c0,0.3,0.1,0.5,0.4,0.7c0.3,0.2,0.7,0.4,1.3,0.5c1,0.3,1.8,0.7,2.2,1.1c0.5,0.5,0.7,1,0.7,1.7
				c0,0.8-0.3,1.4-0.9,1.8c-0.6,0.4-1.3,0.6-2.3,0.6c-0.7,0-1.3-0.1-1.8-0.4c-0.6-0.2-1-0.6-1.3-1s-0.4-0.9-0.4-1.5H45
				c0,1,0.6,1.4,1.7,1.4c0.4,0,0.8-0.1,1-0.3C48,124.4,48.1,124.1,48.1,123.8z"/>
			<path class="st2" d="M56.4,122.3H53v2.3H57v1.4h-5.9v-8.8H57v1.5H53v2.1h3.5V122.3z"/>
			<path class="st2" d="M62.9,124.7h3.8v1.4h-5.6v-8.8h1.8V124.7z"/>
			<path class="st2" d="M73.1,122.3h-3.5v2.3h4.1v1.4h-5.9v-8.8h5.9v1.5h-4.1v2.1h3.5V122.3z"/>
			<path class="st2" d="M78,124l2-6.6h2l-3,8.8H77l-3-8.8h2L78,124z"/>
			<path class="st2" d="M88,122.3h-3.5v2.3h4.1v1.4h-5.9v-8.8h5.9v1.5h-4.1v2.1H88V122.3z"/>
			<path class="st2" d="M91.5,124.7h3.8v1.4h-5.6v-8.8h1.8V124.7z"/>
			<path class="st2" d="M100.9,123.8c0-0.3-0.1-0.6-0.4-0.8c-0.2-0.2-0.7-0.4-1.3-0.6c-0.6-0.2-1.1-0.4-1.5-0.6
				c-1-0.5-1.5-1.3-1.5-2.2c0-0.5,0.1-0.9,0.4-1.3c0.3-0.4,0.6-0.7,1.1-0.9c0.5-0.2,1.1-0.3,1.7-0.3c0.6,0,1.2,0.1,1.7,0.3
				c0.5,0.2,0.9,0.5,1.1,1c0.3,0.4,0.4,0.9,0.4,1.4h-1.8c0-0.4-0.1-0.7-0.4-0.9c-0.3-0.2-0.6-0.3-1.1-0.3c-0.4,0-0.8,0.1-1,0.3
				c-0.2,0.2-0.4,0.4-0.4,0.7c0,0.3,0.1,0.5,0.4,0.7c0.3,0.2,0.7,0.4,1.3,0.5c1,0.3,1.8,0.7,2.2,1.1c0.5,0.5,0.7,1,0.7,1.7
				c0,0.8-0.3,1.4-0.9,1.8c-0.6,0.4-1.3,0.6-2.3,0.6c-0.7,0-1.3-0.1-1.8-0.4c-0.6-0.2-1-0.6-1.3-1s-0.4-0.9-0.4-1.5h1.8
				c0,1,0.6,1.4,1.7,1.4c0.4,0,0.8-0.1,1-0.3C100.8,124.4,100.9,124.1,100.9,123.8z"/>
			<path class="st2" d="M113.9,123.2c-0.1,0.9-0.4,1.7-1,2.2c-0.6,0.5-1.5,0.8-2.5,0.8c-1.1,0-2-0.4-2.6-1.1c-0.6-0.8-1-1.8-1-3.1
				v-0.5c0-0.8,0.1-1.6,0.4-2.2c0.3-0.6,0.7-1.1,1.3-1.5c0.6-0.3,1.2-0.5,1.9-0.5c1,0,1.8,0.3,2.4,0.8c0.6,0.5,1,1.3,1.1,2.3h-1.8
				c0-0.6-0.2-1-0.5-1.2c-0.3-0.3-0.7-0.4-1.2-0.4c-0.6,0-1.1,0.2-1.3,0.6c-0.3,0.4-0.5,1.1-0.5,2v0.7c0,0.9,0.1,1.6,0.4,2.1
				c0.3,0.4,0.7,0.7,1.4,0.7c0.6,0,1-0.1,1.2-0.4s0.4-0.6,0.5-1.2H113.9z"/>
			<path class="st2" d="M122.2,126.1h-1.8v-3.8h-3.5v3.8h-1.8v-8.8h1.8v3.5h3.5v-3.5h1.8V126.1z"/>
			<path class="st2" d="M128.8,124.3h-3.2l-0.6,1.8h-1.9l3.3-8.8h1.7l3.3,8.8h-1.9L128.8,124.3z M126.1,122.9h2.2l-1.1-3.3
				L126.1,122.9z"/>
			<path class="st2" d="M135.4,122.9h-1.4v3.2h-1.8v-8.8h3.3c1,0,1.8,0.2,2.4,0.7c0.6,0.5,0.8,1.1,0.8,2c0,0.6-0.1,1.1-0.4,1.5
				c-0.3,0.4-0.7,0.7-1.2,1l1.9,3.6v0.1H137L135.4,122.9z M133.9,121.5h1.5c0.5,0,0.8-0.1,1.1-0.3c0.2-0.2,0.4-0.5,0.4-1
				c0-0.4-0.1-0.7-0.4-1c-0.2-0.2-0.6-0.4-1.1-0.4h-1.4V121.5z"/>
			<path class="st2" d="M146.3,118.8h-2.7v7.3h-1.8v-7.3h-2.6v-1.5h7.1V118.8z"/>
		</g>
	</g>
</g>
</svg>
