<?xml version="1.0" encoding="utf-8"?>
<!-- Generator: Adobe Illustrator 24.3.0, SVG Export Plug-In . SVG Version: 6.00 Build 0)  -->
<svg version="1.1" id="Layer_1" xmlns="http://www.w3.org/2000/svg" xmlns:xlink="http://www.w3.org/1999/xlink" x="0px" y="0px"
	 viewBox="0 0 150 150" style="enable-background:new 0 0 150 150;" xml:space="preserve">
<style type="text/css">
	.st0{fill:url(#SVGID_1_);}
	.st1{fill:url(#SVGID_2_);}
	.st2{fill:#075CAA;}
</style>
<g>
	<linearGradient id="SVGID_1_" gradientUnits="userSpaceOnUse" x1="1409.0724" y1="1183.1483" x2="1563.3518" y2="1183.1483">
		<stop  offset="0" style="stop-color:#02AE4D"/>
		<stop  offset="0.2754" style="stop-color:#128469"/>
		<stop  offset="0.5297" style="stop-color:#1A6476"/>
		<stop  offset="0.7415" style="stop-color:#214E7B"/>
		<stop  offset="0.9027" style="stop-color:#273E7D"/>
		<stop  offset="0.9944" style="stop-color:#29377D"/>
	</linearGradient>
	<path class="st0" d="M1483.6,1238.5c-0.8,2.4-1.5,4.5-2.2,6.6c-1,3-2,6-2.9,9c-0.5,1.6-1.5,2.3-3.2,2.3c-13.1,0-26.1,0-39.2,0
		c-2.1,0-2.9-0.7-3.2-2.8c-1.5-10.5-2.9-21-4.6-31.4c-0.6-3.5-2-6.7-2.9-10.1c-1.5-5.5-2.8-11.1-4.2-16.6c-0.2-0.7-0.7-1.4-1.2-1.9
		c-1.1-1-2.4-1.8-3.5-2.8c-9.5-7.9-9.9-21.9-0.9-30.3c5.5-5.1,11.1-9.9,16.7-14.9c0.7-0.6,1.3-1.6,1.6-2.5c3-10.2,6-20.4,9-30.6
		c0.6-2.1,1.3-2.6,3.4-2.6c25.1,0,50.1,0,75.2,0.1c1,0,2.3,0.5,3.1,1.2c10.7,10,21.4,20.1,32,30.2c9.3,8.8,9.1,21.9-0.2,30.6
		c-9.9,9.3-19.8,18.6-29.8,27.9c-0.9,0.9-1.2,1.7-1,2.9c1.3,10.3,2.5,20.5,3.7,30.8c0.8,6.4,1.6,12.9,2.3,19.3
		c0.2,2-0.9,3.1-3.2,3.2c-11.6,0.1-23.1,0.2-34.7,0.4c-0.3,0-0.6,0-1,0c-2.7,0-3.2-0.3-4-2.9c-1.4-4.4-2.8-8.8-4.2-13.1
		C1484.1,1239.9,1483.9,1239.4,1483.6,1238.5z M1437.8,1251.1c0.3,0.1,0.5,0.1,0.6,0.1c11.6,0,23.1,0,34.7,0c1,0,1.1-0.5,1.3-1.2
		c1.9-6.1,3.9-12.1,5.9-18.2c0.3-0.9,0.1-1.5-0.6-2.1c-1.7-1.5-3.5-2.9-5-4.6c-0.7-0.8-1.3-2-1.3-3c-0.1-4.2-0.1-8.5,0-12.7
		c0-1.1-0.2-1.6-1.4-1.8c-12.5-2.3-24.9-4.6-37.4-7c-2.4-0.5-4.9-0.9-7.8-1.4c1.3,4.2,2.5,8,3.6,11.8c1,3.5,2.4,7,3,10.6
		C1435.1,1231.6,1436.4,1241.3,1437.8,1251.1z M1451.6,1187.4c18.4,2.6,36.6,2.9,55,0.9c-0.7-2.7-1.2-5.2-1.9-7.6
		c-0.5-1.7,0-2.9,1.5-3.8c0.9-0.5,1.7-1.2,2.7-1.8c1-0.6,1.3-1.2,0.9-2.3c-1-2.8-1.9-5.7-2.6-8.6c-0.3-1-0.3-2.1-0.1-3.1
		c0.6-3.4,1.2-6.7,1.9-10.1c-17.3,0-34.4,0-51.6,0c0.2,1.2,0.3,2.3,0.6,3.4c1.7,6,1.6,11.7-1,17.6
		C1454.7,1176.9,1453.4,1182.1,1451.6,1187.4z M1509.7,1115.1c-17.6,0-35.1,0-52.6,0c-1.3,5-2.6,9.9-3.8,14.8
		c-1.2,5.1-0.6,10,1.4,14.8c0.3,0.8,0.7,1.2,1.8,1.2c17.6,0,35.1,0,52.7-0.1c0.5,0,1.4-0.5,1.5-0.9c0.9-2.8,2.1-5.7,2.4-8.6
		C1514,1128.9,1510.8,1122.2,1509.7,1115.1z M1478.5,1208.2c0,2.2,0,4.1,0,6.1c0,2.5-0.6,5.3,0.3,7.4c0.9,2.1,3.5,3.3,5.2,5.1
		c0.8,0.8,1.6,1.9,2,3c2.3,6.6,4.5,13.2,6.6,19.8c0.4,1.2,0.8,1.7,2.2,1.6c10-0.2,19.9-0.2,29.9-0.4c0.4,0,0.8-0.1,1.3-0.1
		c-1.9-16-3.8-31.8-5.7-47.8C1506.2,1204.8,1492.5,1206.5,1478.5,1208.2z M1514.9,1115c0.2,0.7,0.3,1.3,0.4,1.9
		c1,4.4,2,8.8,2.9,13.2c0.2,1.2,0.7,2,1.5,2.9c7.3,7.2,14.6,14.5,21.8,21.8c1.7,1.7,1.8,2.9,0.3,4.4c-5.1,5.2-10.1,10.3-15.2,15.4
		c-1.3,1.3-2.5,1.3-3.9,0.2c-1.1-0.9-2.1-1.9-3.2-2.7c-1.4-1.2-3-1.7-5-1.1c0.4,1.2,0.7,2.3,1.1,3.4c0.5,1.5,0.1,2.6-1.2,3.4
		c-1.1,0.7-2.2,1.5-3.3,2.2c-0.8,0.4-1,0.9-0.7,1.8c0.4,1.3,0.7,2.7,1,4c1.1,4.2,2.1,8.5,3.2,12.8c2.2-0.3,4.2-0.5,6.3-0.8
		c0.4-0.1,0.9-0.4,1.2-0.7c10.4-9.8,20.9-19.5,31.3-29.3c6.5-6.2,6.6-15.9,0.1-22.2c-10.4-10-21-19.9-31.5-29.8
		c-0.4-0.3-0.9-0.7-1.3-0.7C1518.7,1115,1516.9,1115,1514.9,1115z M1451.7,1150c-0.2-0.3-0.2-0.5-0.3-0.7c-4-7.3-4.7-15-2.4-23
		c1.1-3.7,1.9-7.4,2.9-11.2c-1.6,0-3,0-4.4,0c-0.1,0.4-0.3,0.8-0.4,1.1c-2.8,9.6-5.6,19.2-8.4,28.8c-0.5,1.7-1.3,3-2.7,4.2
		c-5.5,4.8-11,9.7-16.5,14.6c-5.6,5-6.7,11.6-2.9,18c0.8,1.4,1.8,2.8,2.7,4.2c0.2,0.3,0.3,0.7,0.5,1.1c0.3-2,0.4-3.6,0.3-5.2
		c-0.1-1.3,0.2-2.6,1.4-3.2c3.5-1.9,4.4-4.8,3.5-8.5c-0.3-1.3,0.3-2.3,1.4-3c1.9-1.3,3.8-2.6,5.7-3.9
		C1438.7,1158.9,1445.1,1154.5,1451.7,1150z M1536.3,1157.4c-6.2-6.2-12.2-12.2-18.1-18.1c-0.6,1.9-1.1,4.2-2.1,6.2
		c-1.4,2.8-2.1,5.8-2.6,8.9c-0.4,2.4-0.8,4.9-1.4,7.2c-0.4,1.6,0.1,2.9,0.8,4.3c4.5-1.1,8.2,0.4,11.2,3.3
		C1528.3,1165.1,1532.4,1161.2,1536.3,1157.4z M1473.3,1202.8c0-2.8,0-5.5,0-7.9c-15.9-2.2-31.6-4.3-47.6-6.5
		c0.2,1.9,0.3,3.7,0.5,5.6C1441.9,1197,1457.6,1199.9,1473.3,1202.8z M1453,1156.8c-0.6,0.4-1.1,0.6-1.6,0.9c-6.4,4-12.9,8-19.3,12
		c-2,1.3-2.1,1.5-1.3,4.4c6.4,0,12.8,0,19.3,0c0.4,0,0.9-0.6,1.1-1c1-2.7,1.9-5.4,2.9-8.2c0.1-0.4,0.3-0.8,0.2-1.2
		C1453.9,1161.4,1453.4,1159.2,1453,1156.8z M1478.6,1203.1c10.4-1.3,20.5-2.6,30.8-3.8c-0.5-2.1-1-3.9-1.4-5.5
		c-9.9,0.5-19.6,0.9-29.4,1.3C1478.6,1197.6,1478.6,1200.3,1478.6,1203.1z M1449.1,1179.1c-6,0-11.6,0.2-17.3-0.1
		c-2.8-0.1-4.4,1.3-6.1,2.8c-0.6,0.5-0.6,1.1,0.4,1.3c1,0.2,2,0.3,3,0.5c5.7,1,11.4,2,17.3,3
		C1447.3,1184.2,1448.1,1181.9,1449.1,1179.1z"/>
	<linearGradient id="SVGID_2_" gradientUnits="userSpaceOnUse" x1="1481.0624" y1="1172.8564" x2="1486.2136" y2="1172.8564">
		<stop  offset="0" style="stop-color:#02AE4D"/>
		<stop  offset="0.2754" style="stop-color:#128469"/>
		<stop  offset="0.5297" style="stop-color:#1A6476"/>
		<stop  offset="0.7415" style="stop-color:#214E7B"/>
		<stop  offset="0.9027" style="stop-color:#273E7D"/>
		<stop  offset="0.9944" style="stop-color:#29377D"/>
	</linearGradient>
	<path class="st1" d="M1486.2,1172.9c0,0.3,0,0.5,0,0.8c0,1.9-1.1,3-2.6,3c-1.5,0-2.5-1.2-2.5-3.1c0-0.6,0-1.2,0-1.8
		c0.1-1.7,1.1-2.9,2.6-2.8c1.5,0,2.5,1.1,2.5,2.9C1486.2,1172.2,1486.2,1172.6,1486.2,1172.9z"/>
</g>
<g>
	<path class="st2" d="M15.3,149.2c-0.8-0.6-1.5-1.3-1.5-2.5c0.2-15.1,2.8-29.8,8.6-43.9c2.6-6.5,7.5-10.3,13.5-12.9
		c7.1-3,14.4-5.7,21.7-8.5c1-0.4,1.3-0.8,1.4-1.9c0.3-3.6-0.3-6.5-3.4-9.1c-3.7-3.1-4.8-7.8-5.8-12.3c-0.1-0.6-0.3-1.1-0.4-1.7
		c-6.2-0.3-10.6-3.1-11.9-9.3c-1.2-5.9,1.4-10.2,6.6-13c-2.7-6.5-0.8-12.3,2.2-18C55-0.5,73.7-1.7,84.3,3.6c3.2,1.6,6.2,3.2,9.7,3.8
		c3.1,0.5,5.6,2.6,7.5,5.2c4,5.5,5.7,11.5,4.8,18.3c-0.1,1-0.5,2-0.8,3.1c5.8,3.6,8,7.7,7.1,12.9c-1,5.4-4.5,8.2-12,9.6
		c-0.5,1.9-1,3.9-1.5,6.1c2.1,1.3,4.2,2.6,6.4,3.9c0.9,0.6,1.5,1.4,1.2,2.4c-0.3,0.7-1,1.4-1.7,1.7c-0.4,0.2-1.2-0.1-1.7-0.4
		c-1.9-1.1-3.8-2.2-5.5-3.2c-2.1,2.2-4.2,4.4-6.3,6.6c-0.3,0.3-0.4,0.9-0.4,1.3c0,1.6,0.1,3.3,0,4.9c-0.1,1,0.4,1.4,1.3,1.7
		c7,2.7,14,5.4,21,8.1c1.5,0.6,2.8,1.5,4.2,2.2c6.3,3,9.2,8.5,11.4,14.6c3.6,9.6,5.8,19.6,6.6,29.8c0.3,3.3,0.3,6.6,0.6,10
		c0.1,1.3-0.3,2.4-1.5,3.1C94.9,149.2,55.1,149.2,15.3,149.2z M63.4,76.6c0,2.3,0,4.4,0,6.4c0.1,5.7,4.6,10.6,10.2,11.2
		c6,0.6,11.5-3.1,12.7-8.8c0.6-2.8,0.4-5.7,0.5-8.9c-0.9,0.4-1.5,0.7-2,0.9c-0.6,0.2-1.2,0.5-1.7,0.7c-1.1,0.4-2.1,0.3-2.8-0.8
		c-0.9-1.3-0.2-2.6,1.3-3.4c2.4-1.2,4.8-2.4,7.1-3.9c2.3-1.5,4.1-3.6,5.1-5.9c-1.4-1.5-2.7-2.8-3.9-4.2c-1.1-1.2-1.1-2.4-0.1-3.3
		c1-0.9,2.2-0.8,3.3,0.4c0.7,0.7,1.4,1.5,2.3,2.5c1.8-7.3,2.8-14.3,3.4-21.3c-4.1-1-5.6-1.6-8.1-3.7c-2.2-1.9-4.2-4-6.2-6.1
		c-0.9-1-1.5-1.1-2.5-0.3c-1.2,1-2.5,1.8-3.8,2.6c-8.2,5-16.7,9.3-26.9,7.9c0,0.2-0.1,0.4,0,0.6c1.1,6.6,2,13.1,3.2,19.7
		c0.9,4.9,3.5,9,7.8,11.7c1.9,1.2,4,2.2,6,3.2c1.6,0.8,2.3,1.8,1.7,3.1c-0.5,1.2-1.7,1.5-3.4,0.9C65.6,77.5,64.6,77.1,63.4,76.6z
		 M73.3,5.2c-9.6,0-15.7,2.8-20.7,9.2c-3.2,4.1-5.3,8.7-5.4,14.1c0,3.5,1.2,4.9,4.5,5.7c4.7,1.2,9.2,0,13.6-1.7
		c5.4-2,10.2-5,14.9-8.3c2.5-1.8,5.1-1.4,7.1,0.8c0.6,0.7,1.2,1.4,1.8,2.1c2.2,2.4,4.5,4.7,7.5,6c3,1.4,4.7,0.5,5.3-2.7
		c0.8-4.6-0.3-8.8-2.4-12.9c-2.3-4.4-5.9-6.8-11-6.6c-0.7,0-1.5-0.2-2-0.7C82.6,6.6,77.7,5.3,73.3,5.2z M128.3,144.9
		c0-0.1,0.1-0.2,0.1-0.4c-0.4-0.4-0.8-0.7-1.2-1.1c-8.2-8.2-16.4-16.4-24.6-24.5c-4.1-4.1-6.8-8.8-8-14.5c-0.5-2.2-1.2-4.4-2-6.6
		c-0.2-0.5-1-1.1-1.4-1c-0.5,0.1-1.1,0.8-1.2,1.3c-0.2,1.1-0.1,2.2,0,3.3c0.1,1.2,0.5,2.4-0.7,3.3c-1.2,0.9-2.3,0.2-3.3-0.5
		c-0.3-0.2-0.6-0.4-0.9-0.5c-4.1-2.3-8.2-4.5-12.9-5.3c-2.7-0.5-4.1,0.3-5,2.9c-1.3,3.7-1.1,7.5,0.7,10.9c0.7,1.3,1.9,2.6,3.2,3.2
		c3.5,1.5,16.6,6.3,18.7,9c5.1,6.5,10.2,13,15.3,19.5c0.6,0.7,1.1,1,2,1c6.7,0,13.4,0,20.1,0C127.6,144.9,127.9,144.9,128.3,144.9z
		 M130.3,129.7c0-0.4,0.1-0.6,0-0.8c-1.5-8.9-3.7-17.5-7.5-25.7c-1.4-3-3.5-5.3-6.3-6.9c-5.5-3.2-11.3-5.6-17.2-7.8
		c-2.8-1-5.6-2-8.5-2.9c-1.2,5.3-4.1,9.1-8.9,11.7c1.3,0.6,2.3,1.2,3.4,1.7c0.1-0.6,0.2-1,0.3-1.4c0.6-3,2.4-4.7,5-5
		c2.6-0.3,4.7,0.8,5.9,3.7c0.9,2.2,1.7,4.5,2.2,6.9c1,4.7,2.9,8.9,6.3,12.3c4.6,4.6,9.2,9.2,13.9,13.8c0.3,0.3,0.8,0.7,1.2,0.7
		C123.5,129.7,126.8,129.7,130.3,129.7z M59,85.5c-1.3,0.4-2.8,0.9-4.2,1.4c-6.9,2.4-13.7,5-20.1,8.5c-3.8,2.1-6.5,4.9-8.2,9
		c-2.4,5.6-4.2,11.3-5.5,17.2c-0.6,2.6-1,5.3-1.6,8.1c3.7,0,7.1,0,10.5,0c0.4,0,0.8-0.4,1.2-0.7c4.5-4.5,9-9,13.6-13.5
		c3.2-3.2,5.2-7,6.3-11.4c0.7-2.5,1.7-5,2.9-7.4c1.5-3.1,3.6-5.7,7.6-5.1C60.6,89.5,59.9,87.6,59,85.5z M68.5,119.3
		c-2.7-1.7-4.3-4.1-5.3-6.9c-1.2-3.4-1.3-6.8-0.8-10.4c0.2-1.5,0.1-3.2-0.4-4.6c-0.6-1.8-2.1-2-3.2-0.4c-1.7,2.3-2.9,4.9-3.5,7.7
		c-1.2,5.7-4,10.4-8.2,14.5c-8.3,8.1-16.4,16.3-24.6,24.5c-0.3,0.3-0.6,0.7-1,1.1c0.3,0.1,0.5,0.1,0.6,0.1c7,0,14.1,0,21.1,0
		c0.5,0,1.2-0.5,1.6-0.9c4.4-5.5,8.6-11.1,13-16.7C60.6,123.7,63.4,120,68.5,119.3z M100.1,144.8c-0.1-0.2-0.1-0.4-0.2-0.5
		c-4.8-6-9.5-12.1-14.4-18.1c-0.8-0.9-2-1.7-3.2-2.1c-2.2-0.8-4.5-1.4-6.8-2c-0.3-0.1-0.8-0.1-1.1,0c-2,0.6-4.1,1.2-6.1,1.7
		c-1.7,0.5-3.2,1.4-4.3,2.8c-3.1,3.8-6.2,7.7-9.2,11.5c-1.7,2.1-3.3,4.3-5.1,6.6C66.7,144.8,83.4,144.8,100.1,144.8z M48.5,51.8
		c-0.6-4.6-1.2-9.1-1.8-13.7c-3.4,0.7-5.6,4.2-5,8C42.2,49.4,45.3,52.1,48.5,51.8z M101.5,51.8c3.3,0.2,6.4-2.6,6.8-6
		c0.4-3.7-1.8-7.1-5.1-7.6C102.7,42.7,102.1,47.2,101.5,51.8z M18.4,141.3c2.5-2.5,4.8-4.8,7.1-7.2c-1.9,0-3.9,0-5.9,0
		c-0.2,0-0.6,0.5-0.7,0.9C18.7,137,18.5,139.1,18.4,141.3z M124.8,134.2c2.2,2.2,4.5,4.5,6.8,6.8c-0.2-2.2-0.4-4.5-0.6-6.8
		C128.7,134.2,126.6,134.2,124.8,134.2z"/>
	<path class="st2" d="M133.6,77.1c0,5.8-5.5,9.9-11.1,8.1c-0.7-0.2-1.6-0.2-2.3,0c-4.6,1.3-9.4-1.1-11.1-5.5
		c-1.7-4.4,0.3-9.3,4.6-11.5c0.6-0.3,1.2-0.8,1.5-1.4c2-3.2,5.6-4.8,9.3-4c3.5,0.8,6.2,3.8,6.7,7.5c0.1,0.6,0.3,1.2,0.7,1.7
		C133,73.6,133.6,75.2,133.6,77.1z M129.5,77.1c-0.4-0.9-0.7-2-1.3-2.6c-1-1-1.3-2-1.3-3.3c0-2-1.4-3.6-3.5-4
		c-1.9-0.4-3.9,0.5-4.6,2.4c-0.5,1.4-1.3,2.1-2.8,2.6c-2.6,0.8-3.8,3.7-2.8,6.2c1,2.5,3.9,3.7,6.3,2.5c1.4-0.7,2.4-0.7,3.8,0.1
		C126,82.3,129.2,80.3,129.5,77.1z"/>
	<path class="st2" d="M105.4,78.4c0,1.9-1.4,3.2-2.7,2.5c-2.2-1.1-4.2-2.4-6.1-3.9c-0.9-0.7-0.8-1.9,0-2.8c0.8-0.9,1.8-0.9,2.9-0.3
		c1.6,1.1,3.3,2.1,4.9,3.2C104.9,77.4,105.2,78.1,105.4,78.4z"/>
	<path class="st2" d="M75.2,64.5c-2,0-4,0-6.1,0c-2.2,0-3.2-1.1-2.6-3.2c0.5-1.8,1.2-3.6,2.2-5.1c3.1-4.3,9.4-4.3,12.8-0.3
		c1.4,1.7,2.2,3.7,2.5,5.9c0.2,1.6-0.6,2.6-2.3,2.6C79.6,64.5,77.4,64.4,75.2,64.5C75.2,64.4,75.2,64.4,75.2,64.5z M79.1,60
		c-0.9-1.8-2.1-2.7-3.9-2.7c-1.7,0-2.9,0.9-3.6,2.7C74,60,76.4,60,79.1,60z"/>
	<path class="st2" d="M63.4,47c-0.7,0-1.3,0-2,0c-1.2-0.1-2-0.8-2.1-2c-0.1-1.2,0.6-2.1,1.8-2.2c1.6-0.2,3.2-0.1,4.7,0
		c1.1,0.1,1.8,1,1.7,2.2c-0.1,1.2-0.7,2-2,2.1C64.9,47,64.2,47,63.4,47C63.4,47,63.4,47,63.4,47z"/>
	<path class="st2" d="M85.9,47c-0.7,0-1.3,0-2,0c-1.2-0.1-1.9-0.8-2-1.9c-0.1-1.2,0.5-2.2,1.7-2.3c1.6-0.2,3.2-0.2,4.7,0
		c1.2,0.1,1.8,1,1.8,2.2c-0.1,1.2-0.8,1.9-2.1,2C87.3,47,86.6,47,85.9,47C85.9,47,85.9,47,85.9,47z"/>
</g>
</svg>
