<?xml version="1.0" encoding="utf-8"?>
<!-- Generator: Adobe Illustrator 24.3.0, SVG Export Plug-In . SVG Version: 6.00 Build 0)  -->
<svg version="1.1" id="Layer_1" xmlns="http://www.w3.org/2000/svg" xmlns:xlink="http://www.w3.org/1999/xlink" x="0px" y="0px"
	 viewBox="0 0 150 150" style="enable-background:new 0 0 150 150;" xml:space="preserve">
<style type="text/css">
	.st0{fill:#075CAA;}
</style>
<g>
	<path class="st0" d="M1,80.8c3.3-3.3,6.5-6.7,9.8-10c1.2-1.2,2.7-0.9,4.1,0.5c3.8,3.7,7.5,7.5,11.2,11.2
		c6.3,6.3,12.6,12.6,18.9,18.9c0.3,0.3,0.6,0.8,0.9,1.2c0.6-0.6,1-0.9,1.4-1.3c7.6-7.6,15.3-15.1,22.8-22.8c5.8-6,12.6-8,20.8-6.5
		c11.9,2.2,23.9,4.2,35.8,6.2c0.7,0.1,1.3,0.1,2,0.1c5.5,0,11.1,0,16.6,0c2.7,0,3.7,1,3.7,3.6c0,13.2,0,26.4,0,39.6
		c0,2.6-1,3.6-3.6,3.6c-3.3,0-6.7,0.1-10,0c-7.3-0.3-14.4,0.8-21.6,1.5c-1.3,0.1-2.7,0.3-4,0.4c-3.5,0.3-6.8,1.3-9.8,3.2
		c-4.5,2.8-9.1,5.5-13.5,8.3c-3.8,2.5-7.7,3-11.9,0.9c-0.3-0.2-1,0-1.3,0.3c-1.7,1.7-3.4,3.4-5.1,5.1c-1.7,1.7-3.2,1.7-5,0
		c-4.1-4.1-8.3-8.2-12.4-12.4c-0.4-0.4-0.6-0.9-1.2-1.6c-1.5,1.6-2.6,3-3.9,4.2c-6.5,6-17,2.9-18.9-5.8c-0.9-3.9,0-7.4,2.7-10.3
		c1.2-1.3,2.6-2.4,4.2-3.9c-0.7-0.5-1.2-0.8-1.6-1.2c-9.8-9.8-19.6-19.5-29.3-29.3c-0.7-0.7-1.2-1.5-1.8-2.2C1,82,1,81.4,1,80.8z
		 M124.3,101.9c0-5.5,0-11.1,0-16.6c0-1.1-0.2-1.5-1.4-1.7c-11-1.9-22-3.6-33-5.7c-6.5-1.2-11.7,0.5-16.3,5.2
		C63.1,94,52.3,104.6,41.6,115.4c-2.5,2.5-5.1,5-7.5,7.6c-3.1,3.2-1.7,8.4,2.5,9.5c2.3,0.6,4.2-0.1,5.9-1.8
		c9.5-9.5,18.9-19,28.4-28.4c4.4-4.4,11.3-4.4,15.6-0.1c4.2,4.3,4.2,11-0.2,15.4c-1.3,1.3-2.6,2.6-3.9,3.9c-1.9,1.9-3.9,3.8-5.7,5.7
		c-2.5,2.6-1.6,6.6,1.6,7.8c1.6,0.6,3.1,0.3,4.5-0.6c4.8-3,9.7-5.9,14.5-8.9c2.9-1.8,6.1-3.1,9.5-3.5c5.3-0.7,10.6-1.2,15.9-1.7
		c1.3-0.1,1.6-0.5,1.6-1.8C124.3,112.9,124.3,107.4,124.3,101.9z M130.2,84.4c0,11.8,0,23.4,0,35.1c4.4,0,8.6,0,12.9,0
		c0-11.8,0-23.4,0-35.1C138.8,84.4,134.5,84.4,130.2,84.4z M70,126.1c1.2-1.4,2.3-2.9,3.6-4.2c2.7-2.8,5.6-5.6,8.3-8.4
		c2.2-2.3,2.3-5.4,0.3-7.5c-2.1-2.1-5.2-2-7.5,0.3c-3.3,3.3-6.6,6.6-9.9,9.9c-0.8,0.8-1.7,1.5-2.5,2.2
		C65.1,121.2,67.6,123.7,70,126.1z M41.7,106.8c-7.1-7.1-14.2-14.1-21.1-21.1c-1.3,1.3-2.8,2.8-4.1,4c7,7,14.1,14.1,21.1,21.1
		C39,109.6,40.5,108.1,41.7,106.8z M58.3,123.2c-1.4,1.4-2.8,2.8-4.2,4.1c3.9,3.9,7.8,7.8,11.6,11.6c1.4-1.3,2.9-2.7,4.3-4
		C66.1,131,62.2,127.1,58.3,123.2z M12.7,77.5c-1.5,1.5-3,3-4.3,4.4c1.1,1.2,2.4,2.5,3.5,3.6c1.5-1.4,3.1-2.9,4.5-4.1
		C15.1,79.9,13.8,78.6,12.7,77.5z"/>
	<path class="st0" d="M33.7,3.7c3.6,0,7.2,0,10.8,0c1.2,0,2.4,0.4,2.8,1.6c0.3,0.9,0.2,2-0.1,2.8c-0.4,1.1-1.6,1.4-2.8,1.4
		c-6.7,0-13.5,0-20.2,0c-0.5,0-1,0-1.4,0c-2.5,0.2-4.2,2.1-4.2,4.5c0.1,2.3,1.8,4.1,4.3,4.2c1.4,0.1,2.8,0,4.2,0.3
		c6,1.3,10.1,6.9,9.6,12.8c-0.6,6.4-5.5,11.1-11.9,11.3c-5.5,0.2-9.8,3.4-10.9,8.4c-0.5,2.2-0.3,4.5-0.4,6.8c0,1.4,0,2.8,0,4.2
		c-0.1,1.6-1.3,2.7-2.7,2.8c-1.4,0.1-2.9-1-2.9-2.5c0-4.1-0.3-8.4,0.5-12.4c1.5-7.7,8.1-12.9,16-13.1c3.9-0.1,6.7-2.9,6.7-6.5
		c0-3.6-2.8-6.3-6.7-6.4c-3.2,0-6.1-0.6-8.4-3c-3-3.1-3.9-6.8-2.3-10.8c1.6-4.2,4.9-6.4,9.3-6.5C26.5,3.6,30.1,3.7,33.7,3.7
		C33.7,3.7,33.7,3.7,33.7,3.7z"/>
	<path class="st0" d="M67.4,24.1c3.3,1.5,6.6,2.9,9.9,4.4c1.1,0.5,2.1,1.3,2,2.6C79.2,32,78.6,33,78,33.6c-0.9,0.9-2,0.6-3.1,0.1
		c-6.2-2.7-12.3-5.5-18.5-8.2c-0.4-0.2-0.9-0.4-1.3-0.6c-2.3-0.8-4.7,0.2-5.6,2.4c-0.9,2.1,0,4.5,2.2,5.6c1.2,0.6,2.6,1.2,3.7,2
		c5,3.6,6.5,10.4,3.6,15.6c-3.1,5.6-9.5,7.9-15.5,5.5c-5.1-2-10.4-0.9-13.3,3.3c-1.3,1.8-2.1,4-3.1,6c-0.6,1.3-1.1,2.6-1.7,3.8
		c-0.7,1.4-2.3,2-3.6,1.5c-1.3-0.5-2.3-2.1-1.7-3.4c1.7-3.8,3.1-7.8,5.4-11.1c4.5-6.5,12.6-8.5,19.9-5.5c3.6,1.5,7.3,0.1,8.8-3.2
		c1.4-3.3,0-6.9-3.5-8.5c-2.9-1.3-5.4-3-6.5-6.2c-1.5-4-0.8-7.8,2.2-10.8c3.2-3.2,7-3.9,11.2-2.2C60.8,21.1,64.1,22.7,67.4,24.1
		C67.4,24.1,67.4,24.1,67.4,24.1z"/>
	<path class="st0" d="M60.8,6.6c0,1.5-1.3,2.8-2.8,2.9c-1.6,0-2.9-1.2-2.9-2.8c-0.1-1.6,1.3-3,2.9-3C59.4,3.7,60.8,5.1,60.8,6.6z"/>
</g>
</svg>
