<?xml version="1.0" encoding="utf-8"?>
<!-- Generator: Adobe Illustrator 24.3.0, SVG Export Plug-In . SVG Version: 6.00 Build 0)  -->
<svg version="1.1" id="Layer_1" xmlns="http://www.w3.org/2000/svg" xmlns:xlink="http://www.w3.org/1999/xlink" x="0px" y="0px"
	 viewBox="0 0 150 150" style="enable-background:new 0 0 150 150;" xml:space="preserve">
<style type="text/css">
	.st0{fill:#CDEEFD;}
	.st1{fill:#111224;}
	.st2{fill:#005BAB;}
</style>
<path class="st0" d="M1465.3,1556.3c-2.4-0.2-4.3-1.3-4.4-4.1c-0.1-6.7,1.6-10,4.9-9.9c0.2,0,0.3,0,0.5,0c2.2,0.5,4.3,2.1,3.2,4
	C1467.7,1549.5,1473.1,1555.7,1465.3,1556.3z M1465.5,1554.4c1.3-0.1,2.3-0.6,2.3-2.1c-0.1-1.7-1.5-2.1-2.8-2.4c-1.6-0.4-2,0.8-2,2
	C1463,1553.5,1464,1554.2,1465.5,1554.4z M1467.8,1546.5c0-1.4-0.6-2.2-2.1-2.2c-0.9,0-1.6,0.4-1.7,1.4c-0.2,1.4,0.9,2.1,2,2.5
	C1467.3,1548.5,1467.6,1547.5,1467.8,1546.5z"/>
<path class="st0" d="M1455.8,1556.6c-0.5-2.9-1.8-4.2-4.6-3.6c-0.7,0.2-1.7,0.3-2.1-0.8c-0.4-1.1,0.1-1.5,1.2-2.1
	c2.1-1.2,2.1-3.9,3.2-5.8c0.6-1,1-2.2,2.5-1.9c1.4,0.3,0.9,1.6,0.8,2.5C1456.4,1548.6,1458.4,1552.5,1455.8,1556.6z"/>
<path class="st1" d="M1465.5,1554.4c-1.5-0.1-2.6-0.8-2.5-2.4c0-1.2,0.4-2.4,2-2c1.2,0.3,2.7,0.7,2.8,2.4
	C1467.8,1553.7,1466.8,1554.2,1465.5,1554.4z"/>
<path class="st1" d="M1467.8,1546.5c-0.2,1-0.5,2.1-1.8,1.7c-1.1-0.4-2.1-1-2-2.5c0.1-1,0.8-1.4,1.7-1.4
	C1467.2,1544.3,1467.8,1545,1467.8,1546.5z"/>
<polygon class="st2" points="1346.8,29.4 1346.9,29.6 1346.6,29.6 "/>
<g>
	<path class="st2" d="M31.5,128c-3.9,1.8-6.5,4.4-7.3,8.6c-0.1,0.3-0.1,0.5-0.2,0.8c-0.1,0.9-0.8,1.5-1.6,1.2
		c-0.5-0.2-1.2-1.1-1-1.5c0.6-2.1,1.1-4.2,2.2-6c1.8-3,4.7-4.8,8-6c1.1-0.4,1.7,0.2,2.2,1.2c3.3,6.7,8.7,10.7,16.1,11.4
		c7.5,0.8,15.1,0.3,22.5-1.3c12.4-2.7,23.2-8.3,31.8-17.9c14.9-16.7,18.1-41.6,7.6-60.7c-2-3.7-4.4-7-7.4-10
		C99.3,42.5,93,40.6,85.9,42c-1.3,0.3-2.2-0.1-3.1-1c-7.3-7-10.9-15.7-11.5-25.7C71,11.1,71,6.8,70.9,2.5c0-1,0.2-1.8,1.3-1.8
		c1.2,0,1.4,0.9,1.4,1.9c0.2,5.4,0.2,10.8,0.7,16.2c0.8,7.8,4.3,14.4,9.9,19.8c0.4,0.4,1.2,0.6,1.8,0.5c7.7-1.1,14.5,0.8,20,6.3
		c8.6,8.7,13.2,19.4,14.4,31.5c2.5,24.8-12.1,53.8-46,61.7c-8.3,1.9-16.7,2.5-25.2,1.6c-7.3-0.8-12.9-4.5-16.8-10.8
		C32.2,129.1,31.9,128.6,31.5,128z"/>
	<path class="st2" d="M71.1,48.9c-1.7-2.2-3.4-4.2-4.9-6.4c-5.1-7.4-7.8-15.8-8.5-24.7c-0.4-5.1-0.4-10.2-0.5-15.3
		c0-0.1,0-0.2,0-0.3c0-0.9,0.3-1.8,1.4-1.8c1.1,0,1.4,0.8,1.4,1.8c0,3.6,0,7.1,0.1,10.7c0.3,7.5,1.6,14.9,4.9,21.8
		c2.2,4.6,5,8.7,8.5,12.3c1,1,1,1.9,0.2,3c-5.2,7.5-4.8,17.5,1.2,24.2c3.7,4.1,3.8,8.5,2.1,13.2c-1.6,4.3-4.9,7-9.1,8.5
		c-4.4,1.7-9,2.1-13.6,1.7C44,97.2,36,102.4,32.7,112.1c-0.4,1.1-1.1,1.3-2,1.6c-7,1.9-12.7,5.5-16.7,11.7c-2,3-3.2,6.4-3.7,10
		c-0.1,1-0.4,1.8-1.6,1.7c-1.1-0.2-1.2-1-1.1-2c1.4-9.2,6.2-16.1,14.2-20.6c2.3-1.3,4.9-2.1,7.3-3.1c0.5-0.2,1.1-0.7,1.3-1.2
		c3.8-9.7,12.3-15.4,22.8-14.9c4.2,0.2,8.3,0.2,12.3-1.1c5-1.6,8.6-4.6,9.5-10c0.5-2.8-0.1-5.3-2.1-7.5c-6.5-7.2-7.5-17.9-2.7-26.3
		C70.6,49.7,70.8,49.3,71.1,48.9z"/>
	<path class="st2" d="M86.1,79.9c-0.9,0.1-1.7,0.2-2.5,0.2c-0.9,0.1-1.6-0.4-1.6-1.3c0.1-0.5,0.7-1.2,1.3-1.4c0.8-0.3,2-0.1,2.5-0.6
		c0.5-0.5,0.3-1.6,0.4-2.5c0.1-0.7,0.3-1.5,0.4-2.3c-0.8-0.3-1.4-0.6-2.2-0.9c-0.9-0.4-1.4-0.9-1-1.9c0.4-0.9,1.1-1,2-0.7
		c0.7,0.3,1.4,0.6,2.2,0.9c0.9-1.3,1.7-2.5,2.6-3.8c-0.5-0.5-1-1.1-1.5-1.6c-0.7-0.7-0.9-1.4-0.2-2.1c0.8-0.8,1.6-0.5,2.2,0.2
		c0.5,0.5,1,1,1.4,1.5c1.3-0.7,2.5-1.4,3.7-2.1c0.2-0.1,0.4-0.6,0.4-0.9c0.1-0.7,0-1.4,0.1-2.2c0.1-0.8,0.5-1.4,1.4-1.3
		c0.9,0,1.5,0.6,1.3,1.4c-0.5,2.1,0.5,2.9,2.4,3.2c0.7,0.1,1.4,0.7,2.1,1.1c0.7-0.4,1.4-0.9,2.2-1.4c0.8-0.5,1.5-0.5,2,0.3
		c0.5,0.8,0.2,1.5-0.5,2c-0.6,0.4-1.3,0.8-1.9,1.3c0.9,1.9,1.2,3.8,0.7,5.9c-0.1,0.3,0.2,0.7,0.5,0.9c0.5,0.4,1.3,0.6,1.7,1.1
		c0.3,0.4,0.6,1.3,0.4,1.7c-0.1,0.4-1,0.4-1.6,0.6c-0.1,0-0.3-0.1-0.5-0.2c-1.4-1.3-2.5-0.9-3.7,0.3c-1.4,1.4-1.6,2.2-0.3,4
		c0.7-0.4,1.4-0.9,2.2-1.3c0.7-0.4,1.5-0.5,2,0.3c0.5,0.8,0.2,1.5-0.6,2.1c-0.6,0.4-1.3,0.8-1.8,1.1c0.2,1.3,0.4,2.4,0.6,3.6
		c0.1,0.3,0.4,0.7,0.7,0.8c0.6,0.3,1.5,0.4,2,0.8c0.4,0.3,0.9,1.2,0.7,1.6c-0.1,0.4-1,0.9-1.5,0.9c-0.9,0-1.7-0.5-2.6-0.7
		c0.1,0.2,0.3,0.3,0.4,0.5c-1.1,0.9-2.3,1.8-3.4,2.7c-0.2,0.2-0.3,0.7-0.3,1c0.1,0.7,0.5,1.3,0.4,2c0,0.6-0.4,1.3-0.9,1.6
		c-0.7,0.4-1.4,0-1.7-0.9c-0.3-0.8-0.5-1.6-0.7-2.3c-1.7-0.3-3.2-0.6-5-0.9c-0.4,0.4-0.9,1.1-1.4,1.7c-0.6,0.7-1.3,0.9-2,0.4
		c-0.7-0.6-0.7-1.3-0.2-2c0.5-0.7,1-1.3,1.5-2c-0.8-1.1-1.7-2.2-2.6-3.4c-0.7,0.4-1.3,0.8-2,1.2c-0.8,0.4-1.5,0.3-2-0.5
		c-0.4-0.8-0.1-1.4,0.6-1.8c0.7-0.4,1.4-0.8,2.1-1.3C87,82.9,86.6,81.5,86.1,79.9z M98.5,63.6c-0.9,0.3-1.9,0.5-2.7,1
		c-9.7,6.5-8.3,17.9-2.3,23.8c1.7,1.7,4,2,6,1c2-1.1,3.1-3.2,2.5-5.5c-0.3-1-0.9-2-1.5-2.8c-2.4-2.8-2.1-5.9,0.8-8.1
		c0.3-0.2,0.7-0.5,0.9-0.8c1.4-1.6,1.8-3.4,1-5.4C102.4,65,100.6,63.8,98.5,63.6z"/>
	<path class="st2" d="M65.1,127c-0.7-0.7-1.3-1.3-1.9-1.9c-1.3,0.5-2.6,1.1-4,1.7c0,0.7,0.1,1.5,0,2.3c-0.1,1.1,0.6,2.8-1.3,3
		c-1.1,0.1-1.5-0.3-1.4-3.1c0-0.8,0-1.6,0-2.3c-1.4-0.6-2.7-1.1-4.1-1.7c-0.4,0.6-1,1.3-1.6,2.1c0.1,0.1,0.5,0.4,0.6,0.7
		c0.1,0.6,0.2,1.5-0.1,1.8c-0.3,0.3-1.4,0.4-1.7,0.1c-1.3-1.1-2.6-2.4-3.7-3.7c-0.3-0.4-0.2-1.4,0.1-1.9c0.2-0.3,1.2-0.1,1.8,0
		c0.3,0.1,0.6,0.5,0.9,0.7c0.7-0.7,1.4-1.3,1.9-1.8c-0.6-1.3-1.1-2.6-1.7-4c-1.2,0-2.5,0-3.9,0c-0.9,0-1.5-0.4-1.5-1.4
		c0-0.9,0.6-1.4,1.5-1.4c1.3,0,2.8,0.4,3.7-0.2c0.9-0.5,1.1-2.1,1.6-3.2c0.1-0.2,0.2-0.3,0.3-0.5c-0.7-0.6-1.3-1.2-2-1.9
		c-0.3,0.3-0.6,0.7-1,0.8c-0.5,0.1-1.4,0.2-1.7-0.1c-0.3-0.4-0.4-1.4-0.1-1.8c1.2-1.4,2.4-2.7,3.8-3.8c0.4-0.3,1.4-0.3,1.7,0
		c0.3,0.3,0.2,1.2,0.2,1.8c-0.1,0.3-0.5,0.6-0.8,0.9c0.7,0.6,1.3,1.2,2.1,1.8c1-0.4,2.1-0.8,3.3-1.3c0.3-0.1,0.5-0.6,0.5-0.9
		c0.1-1,0-2,0-3c0-1,0.2-1.8,1.4-1.7c1.1,0,1.4,0.8,1.3,1.8c0,0.9-0.1,1.9,0,2.8c0.1,0.4,0.4,0.9,0.8,1.1c1,0.5,2.1,0.9,3.2,1.3
		c0.5-0.5,1.1-1.2,1.7-1.9c-0.3-0.3-0.7-0.7-0.8-1.1c-0.1-0.5-0.1-1.4,0.2-1.7c0.3-0.3,1.3-0.4,1.6-0.2c1.4,1.2,2.8,2.6,4,4
		c0.3,0.3,0.2,1.3-0.1,1.6c-0.3,0.3-1.1,0.3-1.7,0.2c-0.4-0.1-0.7-0.5-1-0.8c-0.6,0.7-1.2,1.4-1.8,2c0.4,0.9,0.7,2.1,1.3,3.2
		c0.1,0.3,0.6,0.6,1,0.6c1,0.1,2.1,0,3.1,0c0.9,0,1.5,0.4,1.5,1.3c0,1-0.6,1.4-1.5,1.4c-1.3,0.1-2.9-0.4-3.8,0.2
		c-0.9,0.5-1.1,2.1-1.6,3.3c-0.1,0.1-0.1,0.2-0.2,0.4c0.7,0.6,1.3,1.2,2.1,1.8c0.2-0.2,0.5-0.7,1-0.8c0.5-0.1,1.4-0.1,1.7,0.2
		c0.3,0.3,0.4,1.3,0.1,1.6c-1.2,1.4-2.5,2.7-3.9,3.9c-0.3,0.3-1.4,0.2-1.7-0.1c-0.3-0.3-0.2-1.2-0.1-1.8
		C64.3,127.6,64.8,127.3,65.1,127z M57.9,123.9c3.4,0,6.2-2.9,6.2-6.2c0-3.4-2.9-6.3-6.3-6.3c-3.5,0-6.2,2.9-6.2,6.4
		C51.6,121.2,54.5,123.9,57.9,123.9z"/>
	<path class="st2" d="M83.1,112.4c0-3.6,2.9-6.4,6.5-6.4c3.6,0,6.5,2.9,6.5,6.4c0,3.6-2.9,6.5-6.5,6.5
		C86,118.9,83.1,115.9,83.1,112.4z M89.5,116.1c2,0,3.8-1.6,3.8-3.6c0-2-1.7-3.7-3.7-3.8c-2,0-3.7,1.7-3.8,3.7
		C85.8,114.3,87.5,116.1,89.5,116.1z"/>
	<path class="st2" d="M122,122.3c0.6,0.3,1,0.5,1.3,0.8c5.7,4.3,11.4,8.7,17.1,13c0.8,0.6,1.4,1.3,0.7,2.3c-0.7,1-1.6,0.6-2.3,0
		c-5.7-4.4-11.4-8.7-17.1-13.1c-0.7-0.5-1.2-1.1-0.8-1.9C121.1,122.9,121.6,122.7,122,122.3z"/>
	<path class="st2" d="M28,65c-0.6-0.3-1-0.5-1.4-0.7c-6.1-3.5-12.2-7-18.3-10.5c-0.3-0.2-0.8-0.4-1-0.7c-0.2-0.4-0.3-1.1-0.1-1.5
		c0.2-0.4,0.8-0.6,1.3-0.7c0.4,0,0.8,0.3,1.2,0.5c6.1,3.5,12.2,7,18.3,10.5c0.3,0.2,0.7,0.3,0.9,0.6c0.2,0.4,0.4,1.1,0.2,1.5
		C29,64.4,28.4,64.7,28,65z"/>
	<path class="st2" d="M127.6,101.5c-0.3-0.3-1-0.7-1.2-1.2c-0.3-0.9,0.4-1.4,1.3-1.5c4.4-0.7,8.9-1.3,13.3-1.9
		c1-0.1,1.7,0.2,1.8,1.2c0.1,0.9-0.5,1.4-1.4,1.5C137,100.1,132.5,100.8,127.6,101.5z"/>
	<path class="st2" d="M49.1,49.3c-0.3,0.3-0.6,0.9-1.1,1c-0.8,0.3-1.4-0.2-1.6-1c-0.4-1.6-0.8-3.1-1.2-4.7c-0.7-2.7-1.4-5.4-2.1-8.1
		c-0.2-0.9-0.3-1.9,0.9-2.2c1.2-0.3,1.5,0.5,1.8,1.5c1,4.1,2.1,8.1,3.1,12.2C49,48.4,49,48.7,49.1,49.3z"/>
	<path class="st2" d="M12,88.9c-0.6,0.1-1.5-0.1-1.6-1.1c-0.1-1.2,0.7-1.5,1.7-1.6c3.5-0.4,7-0.9,10.4-1.3c0.4,0,0.7-0.1,1.1-0.1
		c1-0.1,1.6,0.3,1.7,1.3c0.1,0.9-0.6,1.3-1.4,1.4c-2.9,0.3-5.8,0.7-8.7,1.1C14.2,88.7,13.2,88.8,12,88.9z"/>
	<path class="st2" d="M107.5,148.5c-0.2,0.2-0.6,0.9-1,0.9c-0.5,0.1-1.1-0.3-1.6-0.6c-0.2-0.1-0.2-0.6-0.3-0.9c-1-3.5-2-7-2.9-10.5
		c-0.1-0.3-0.3-0.7-0.2-0.9c0.2-0.5,0.5-1.3,0.9-1.4c0.5-0.1,1.5,0.3,1.6,0.7c1.2,4,2.3,8,3.4,12.1
		C107.4,148,107.4,148.1,107.5,148.5z"/>
</g>
</svg>
