<?xml version="1.0" encoding="utf-8"?>
<!-- Generator: Adobe Illustrator 24.3.0, SVG Export Plug-In . SVG Version: 6.00 Build 0)  -->
<svg version="1.1" id="Layer_1" xmlns="http://www.w3.org/2000/svg" xmlns:xlink="http://www.w3.org/1999/xlink" x="0px" y="0px"
	 viewBox="0 0 150 150" style="enable-background:new 0 0 150 150;" xml:space="preserve">
<style type="text/css">
	.st0{fill:#075CAA;}
</style>
<g>
	<path class="st0" d="M28.1,0.5c4.5,1.2,9,2.2,13.4,3.7c3.6,1.2,7.1,2.9,10.6,4.3c0.7,0.3,1.6,0.5,2.4,0.5C59,8.7,63.2,9.5,67,12
		c0.3,0.2,0.9,0.2,1.3,0.1c10.1-4.7,20.2-4.3,30.3-0.5c1.1,0.4,2,1,1.9,2.4c-0.1,1.6-1.5,2.3-3.2,1.8c-3.3-0.9-6.6-2-10-2.5
		c-5.9-0.9-11.6,0-17,2.7c-0.6,0.3-1.1,1-1.3,1.7c-0.6,2.9-1.2,5.8-1.6,8.7c-0.1,0.6,0.1,1.4,0.4,1.9C72.4,36.3,79,42,88.1,44.8
		C92,45.9,96,47,99.3,49.5c1.3,0.9,2.5,1.3,4,1.1c4.6-0.5,9.3-0.9,14-1.4c0.3-3.7,0.1-7.1-0.6-10.5c-1.5-7.2-4.7-13.4-10.6-18
		c-1.2-1-1.4-2.3-0.6-3.3c0.8-1,2-1.1,3.3-0.1c3.3,2.5,5.9,5.6,8,9.2c0.4,0.7,0.9,1.1,1.8,1.2c7.2,1.1,14.5,2.3,21.3,5.2
		c1.8,0.8,3.6,1.7,5.1,3c3.5,2.8,3.6,6.8-0.1,9.4c-2.5,1.8-5.5,3.2-8.4,4.1c-4.4,1.4-9,2.2-13.5,3.3c-0.4,0.1-0.7,0.2-1.4,0.3
		c0.6,0.6,1.1,1,1.6,1.5c4.3,4,8.6,8,11.8,13c1.1,1.7,2,3.6,2.5,5.5c0.9,3.4-1,6-4.4,6.8c-3,0.6-5.9,0.2-8.8-0.5
		c-2.9-0.7-5.7-1.5-8.6-2.3c0,0.2-0.1,0.4,0,0.6c1.2,7.2-6.1,15.4-15.2,14.2c-1-0.1-1.7,0.1-2.4,0.9c-3.4,3.7-7.4,6.5-11.6,9.1
		c-0.9,0.6-1.1,1.2-1.1,2.2c-0.1,3.2,1.1,5.1,4.5,5.3c0.4,0,0.8,0.2,1.1,0.3c1.1,0.5,1.9,0.4,2.9-0.7c1.3-1.4,3.1-2,4.9-1.4
		c4.4,1.3,8.8,2.3,13,4c9.4,3.8,14.8,10.9,16.7,20.8c0.9,4.7,1.7,9.3,2.5,14c0.3,1.7-0.3,2.9-1.7,3.1c-1.3,0.2-2.3-0.6-2.6-2.3
		c-0.9-5.1-1.7-10.2-2.8-15.3c-1.8-8.4-6.9-14-15-16.8c-3.3-1.1-6.7-2.1-10-3.1c-1.9-0.6-2.3-0.3-2.6,1.7
		c-0.7,5.1-1.1,10.2-2.2,15.2c-1.4,6.4-3,12.8-6.1,18.7c-0.3,0.6-0.8,1.4-1.4,1.5c-0.7,0.2-1.8,0.1-2.2-0.3
		c-0.5-0.5-0.7-1.6-0.6-2.3c0.1-0.8,0.7-1.6,1.1-2.4c3.3-7.7,5.3-15.9,6.4-24.2c0.2-1.8,0.4-3.6,0.7-5.6c-1.9-0.6-3.6-1.1-5.5-1.7
		c-0.2,0.8-0.3,1.5-0.5,2.2c-1.2,4.6-4.2,7.9-8.4,9.8c-7.1,3.3-14.4,3.3-21.5,0c-4.9-2.3-8.1-6.2-8.8-12c-1.9,0.6-3.6,1.1-5.7,1.7
		c0.5,3.2,1.1,6.3,1.6,9.5c0.1,0.5,0.2,0.9,0.3,1.4c0.1,1.3-0.5,2.2-1.7,2.5c-1.1,0.2-2.2-0.4-2.5-1.7c-0.6-3.2-1.2-6.4-1.7-9.6
		c-0.2-1.1-0.2-2.2-0.3-3.3c-0.2-1.3-0.8-1.8-2.1-1.4c-3.4,1-6.9,1.9-10.3,3.1c-8.6,3-13.9,9.1-15.5,18.1c-0.8,4.6-1.6,9.2-2.4,13.7
		c-0.1,0.7-0.4,1.6-0.9,2c-0.6,0.4-1.7,0.6-2.2,0.3c-0.6-0.3-1.3-1.4-1.2-2c1.1-6.5,1.9-13.2,3.8-19.5c2.7-8.9,9.2-14.3,18-17.1
		c3.1-1,6.2-1.8,9.3-2.8c2.6-0.8,4.8-0.3,6.7,1.8c0.3,0.3,0.9,0.5,1.3,0.4c1.7-0.4,3.4-0.9,5-1.5c0.4-0.2,0.9-0.7,1-1.2
		c0.3-1.5,0.4-3.1,0.5-4.6c0-0.5-0.2-1-0.5-1.4c-7.5-7.9-11.9-17.4-14.3-28c-0.1-0.5-0.8-1.1-1.3-1.3c-6.2-3-9.4-9.9-7.3-16.4
		c0.5-1.6,1.5-3,2.2-4.3c-3.4-1.1-7-2.2-10.4-3.5c-1.8-0.7-3.5-1.7-5-2.9c-3.7-2.9-3.8-6.9,0.1-9.5c2.6-1.8,5.6-3.1,8.6-4.1
		c3.7-1.3,7.7-1.9,11.5-3c0.5-0.1,1.1-0.7,1.3-1.2c0.1-0.3-0.2-1.1-0.5-1.4c-1.8-1.8-3.7-3.6-5.5-5.4c-1.2-1.2-1.3-2.5-0.3-3.4
		c1-1,2.2-0.9,3.4,0.4c1.6,1.7,3.2,3.5,4.9,5.4c3-5.2,6.6-9,11.8-11.6c-0.9-0.4-1.6-0.7-2.3-1C39.1,7.8,33.7,5.8,28,5
		c-1.3-0.2-2.6-0.1-3.9,0c-1.1,0.1-1.5,0.8-1.2,1.9c0.2,0.7,0.6,1.4,0.9,2.2c0.5,1.3,0.1,2.5-0.9,3c-1.1,0.5-2.3,0.1-2.9-1.1
		c-0.6-1.2-1.1-2.4-1.3-3.7c-0.6-3,0.9-5.4,3.8-6.3c0.4-0.1,0.9-0.3,1.3-0.5C25.2,0.5,26.6,0.5,28.1,0.5z M40.4,53.3
		c-0.8,3.4-1.9,6.5-2.3,9.7c-0.5,3.1-0.9,6.4-0.4,9.4c1.7,9.3,5.7,17.6,11.9,24.7c6.2,7,13.9,9,22.8,6.4c7.1-2.1,13.2-5.9,19-10.5
		c3.9-3.1,6.9-7,8.5-11.7c1-2.9,1.9-5.8,2.9-8.7c0.3-0.7,0.1-1.1-0.6-1.5c-2.3-1-4.6-2.1-6.8-3.3c-0.6-0.3-1.3-1-1.4-1.6
		c-0.1-0.6,0.2-1.7,0.7-2c0.7-0.4,1.8-0.5,2.5-0.2c2.2,0.9,4.3,2,6.7,3.2c0.1-0.5,0.1-0.9,0.1-1.2c-0.2-3.6-1.4-6.8-3.6-9.7
		c-0.6-0.8-1.2-1.1-2.2-1c-4.9,0.2-9.8,0.4-14.7,0.5c-0.2,0-0.4,0.1-0.9,0.1c2,1.1,3.7,2.1,5.4,3.1c1.5,0.9,1.7,2.5,0.6,3.5
		c-1,0.9-2,0.7-3.1,0.1c-3.6-2.1-7.2-4.2-10.8-6.3c-0.6-0.4-1.4-0.6-2.2-0.6c-8.6-0.6-17.1-1.1-25.7-1.7
		C44.7,53.9,42.6,53.6,40.4,53.3z M38.4,25.3c4.5,3.5,9,7,13.3,10.5c0.8,0.7,1.5,0.6,2.3,0.1c3.7-2.1,6.3-5.4,8.7-8.8
		c0.2-0.2,0.2-0.5,0.3-0.8c0.6-3.1,1.1-6.2,1.7-9.3c0.2-0.9-0.2-1.4-0.9-1.8c-3.3-1.8-6.8-2.3-10.4-1.7C46.4,14.6,41.8,19,38.4,25.3
		z M81.3,104.7c-9.8,4.3-19.3,6.5-29.1,0.4c-0.2,1.7-0.4,3.1-0.5,4.5c-0.5,5.4,1.4,9.1,6.4,11.3c5.8,2.6,11.8,2.6,17.6-0.1
		c3.5-1.6,6-4.4,6.2-8.5C81.9,109.9,81.5,107.4,81.3,104.7z M121.8,48.2c0.4,0,0.7,0.1,1,0c4.4-1.1,8.9-2,13.2-3.3
		c2.2-0.7,4.2-1.9,6.2-3.1c1.4-0.9,1.4-1.8,0-2.7c-1.2-0.9-2.5-1.8-3.9-2.2c-4.5-1.4-9-2.6-13.5-3.8c-1.6-0.4-3.3-0.6-5.2-0.9
		C121.4,37.6,122,42.8,121.8,48.2z M57.1,39.7c-0.1,0,0.2,0.1,0.4,0.2c5.6,3.7,11.2,7.4,16.9,11.1c0.4,0.3,1,0.4,1.5,0.4
		c4.1,0,8.2,0,12.4-0.1c1.5,0,2.9-0.1,4.4-0.2c0.1-0.1,0.1-0.3,0.2-0.4C81.1,47.8,71.1,42.6,65.1,32C62.4,34.6,59.8,37.1,57.1,39.7z
		 M111.9,70.4c0,0.2,0,0.3,0,0.5c4.6,1.4,9.1,2.8,13.7,4.1c1.7,0.5,3.6,0.6,5.5,0.6c2.2,0,2.7-0.8,1.9-2.8c-0.6-1.4-1.3-2.8-2.2-3.9
		c-3.3-3.7-6.7-7.3-10-10.9c-0.1-0.1-0.3-0.1-0.5-0.2C118.5,62.8,116.2,67.2,111.9,70.4z M32.3,47.6c-2-5-1.8-9.9-1.1-14.9
		c-1.6,0.4-3.1,0.6-4.5,1c-4.2,1.1-8.5,2.1-12.2,4.6c-2,1.3-2.1,2.3,0,3.4c3,1.5,6.1,2.8,9.2,3.8C26.4,46.4,29.2,46.9,32.3,47.6z
		 M37.8,47.8c3.3-3.4,6.5-6.5,9.7-9.7c-3.4-2.7-7.1-5.6-10.8-8.6c-1.4,3.9-1.9,7.7-1.6,11.6C35.3,43.7,35.9,46.2,37.8,47.8z
		 M65.7,51.2c-0.1-0.4-0.1-0.5-0.2-0.5c-4.4-3-8.7-6-13.1-8.9c-0.3-0.2-1.1-0.2-1.5,0c-3.5,1.5-5.8,4.4-8.4,7.6
		C50.6,50,58.1,50.6,65.7,51.2z M116.7,53.6c-4.1,0.4-8,0.9-12.1,1.3c2.5,3.9,3.6,8,3.7,12.6C113.5,64.1,115.3,59.1,116.7,53.6z
		 M35.9,52.7c-3.5-0.5-6.4,1.1-7.2,4c-1.1,3.6,0.3,7.7,3.3,10c0.3,0.2,0.6,0.3,0.7,0.4C33.8,62.3,34.8,57.6,35.9,52.7z M107.2,73.5
		c-1.7,4.7-3.3,9.2-5,13.8c3.2,0.3,6.7-1.9,8.4-5.2C112.4,78.5,111,75.1,107.2,73.5z"/>
	<path class="st0" d="M50.1,147.7c-0.7,0.6-1.2,1.4-2,1.7c-1.2,0.4-2.1-0.3-2.5-1.4c-0.8-2-1.5-4-2.1-6c-0.6-1.9-1.3-3.9-1.8-5.8
		c-0.4-1.2,0.2-2.3,1.3-2.7c1.1-0.4,2.3,0.1,2.7,1.2c1.4,4,2.7,8,4.1,12.1c0.1,0.2,0.1,0.4,0.1,0.6C50,147.5,50,147.6,50.1,147.7z"
		/>
	<path class="st0" d="M60.9,87.5c3.9,0.3,6.8,1.4,8.8,4.3c1,1.4,0.8,2.8-0.3,3.6c-1.1,0.7-2.3,0.4-3.3-1.1c-1.4-2-4.4-2.9-6.7-1.9
		c-1.6,0.7-2.8,0.3-3.3-0.9c-0.5-1.2,0-2.4,1.6-3.1C58.9,87.9,60.1,87.7,60.9,87.5z"/>
	<path class="st0" d="M79.7,66.6c0.8,0.4,1.3,0.6,1.8,1c2,1.7,4,3.4,5.9,5.1c1.1,1,1.2,2.2,0.4,3.2c-0.8,1-2.1,1.1-3.2,0.1
		c-2-1.7-4.1-3.4-6-5.3c-0.5-0.5-0.8-1.7-0.6-2.4C78.1,67.7,79.1,67.2,79.7,66.6z"/>
	<path class="st0" d="M63.3,63.8c-0.1,0.9-0.5,1.7-1.6,1.9c-2.9,0.5-5.7,1-8.6,1.3c-1.2,0.1-2-0.6-2.3-1.8c-0.2-1.1,0.5-2.2,1.7-2.5
		c2.8-0.5,5.5-0.9,8.3-1.2C62.3,61.4,63.3,62.3,63.3,63.8z"/>
	<path class="st0" d="M69.5,82.2c-2.4-0.1-4.7-0.8-6.7-2.1c-1.3-0.8-1.6-2-1-3.1c0.7-1.2,1.8-1.3,3.3-0.7c1.5,0.6,3.2,1.2,4.8,1.5
		c1.8,0.3,2.8,1,2.7,2.4C72.4,81.5,71.3,82.2,69.5,82.2z"/>
</g>
</svg>
