<?xml version="1.0" encoding="utf-8"?>
<!-- Generator: Adobe Illustrator 24.3.0, SVG Export Plug-In . SVG Version: 6.00 Build 0)  -->
<svg version="1.1" id="Layer_1" xmlns="http://www.w3.org/2000/svg" xmlns:xlink="http://www.w3.org/1999/xlink" x="0px" y="0px"
	 viewBox="0 0 150 150" style="enable-background:new 0 0 150 150;" xml:space="preserve">
<style type="text/css">
	.st0{fill:#CDEEFD;}
	.st1{fill:#111224;}
	.st2{fill:#005BAB;}
</style>
<path class="st0" d="M1465.3,1556.3c-2.4-0.2-4.3-1.3-4.4-4.1c-0.1-6.7,1.6-10,4.9-9.9c0.2,0,0.3,0,0.5,0c2.2,0.5,4.3,2.1,3.2,4
	C1467.7,1549.5,1473.1,1555.7,1465.3,1556.3z M1465.5,1554.4c1.3-0.1,2.3-0.6,2.3-2.1c-0.1-1.7-1.5-2.1-2.8-2.4c-1.6-0.4-2,0.8-2,2
	C1463,1553.5,1464,1554.2,1465.5,1554.4z M1467.8,1546.5c0-1.4-0.6-2.2-2.1-2.2c-0.9,0-1.6,0.4-1.7,1.4c-0.2,1.4,0.9,2.1,2,2.5
	C1467.3,1548.5,1467.6,1547.5,1467.8,1546.5z"/>
<path class="st0" d="M1455.8,1556.6c-0.5-2.9-1.8-4.2-4.6-3.6c-0.7,0.2-1.7,0.3-2.1-0.8c-0.4-1.1,0.1-1.5,1.2-2.1
	c2.1-1.2,2.1-3.9,3.2-5.8c0.6-1,1-2.2,2.5-1.9c1.4,0.3,0.9,1.6,0.8,2.5C1456.4,1548.6,1458.4,1552.5,1455.8,1556.6z"/>
<path class="st1" d="M1465.5,1554.4c-1.5-0.1-2.6-0.8-2.5-2.4c0-1.2,0.4-2.4,2-2c1.2,0.3,2.7,0.7,2.8,2.4
	C1467.8,1553.7,1466.8,1554.2,1465.5,1554.4z"/>
<path class="st1" d="M1467.8,1546.5c-0.2,1-0.5,2.1-1.8,1.7c-1.1-0.4-2.1-1-2-2.5c0.1-1,0.8-1.4,1.7-1.4
	C1467.2,1544.3,1467.8,1545,1467.8,1546.5z"/>
<polygon class="st2" points="1346.8,29.4 1346.9,29.6 1346.6,29.6 "/>
<g>
	<path class="st2" d="M9.1,149.4c0-6.7-0.1-13.5,0.1-20.2c0.3-14.7,7-25.6,19.9-32.7c4.4-2.4,9.2-3.5,14.2-3.9c0.5,0,1.3-0.5,1.5-1
		c2.7-4.8,6.3-8.7,10.8-11.8c8.2-5.4,12.2-13,12.1-22.8c0-2.4,0.3-4.7,0.5-7.2c-0.7-0.1-1.6-0.3-2.4-0.5c-15.8-3.1-27.2-17-27.3-33
		c0-5.2,0-10.5,0-15.8c8.7,0,17.4,0,26.3,0c0,0.5,0,1,0,1.5c0,4.5,0,8.9,0,13.4c0,5.1,3.2,8.3,8.3,8.3c8.7,0,17.5,0,26.2,0
		c18.3,0,33,12.5,36.1,30.5c1.2,7,0.9,14-0.1,21c-0.1,0.7,0.1,1.7,0.5,2.2c11.9,17.1,1.7,40.4-19,43c-1.5,0.2-2.4,0.7-3.4,1.8
		c-6.4,7.1-13.7,13-22.6,16.7c-18.8,7.7-38.5-2-45.6-15.3c-0.8-1.4-1.4-2.9-2.3-4.6c-1.2,0.6-2.5,1.2-3.5,2
		c-2.1,1.5-3.5,3.7-3.6,6.2c-0.2,7.4-0.1,14.7-0.1,22.1C26.8,149.4,18,149.4,9.1,149.4z M26.8,140.7c0-0.7,0-1.2,0-1.7
		c0-3.2,0-6.5,0-9.7c-0.1-10.6,8.6-20.7,22.8-18.9c0.1,0.5,0.2,0.9,0.3,1.4C53,125,65,134,78.7,132.9c10.5-0.8,18.3-6.6,25.6-13.6
		c-18.1-6-24.8-29-10.9-45c0.9,1,1.9,2,2.9,3.1c0.4-0.6,0.7-1.1,1-1.5c2.5-3.8,5.3-7.4,9.5-9.5c3.5-1.8,6.1-4.2,8.1-7.5
		c0.8-1.4,1.8-2.7,2.9-4.2c1,2.7,1.8,5,2.7,7.4c1.3,3.5,1.4,7,0.4,10.5c-0.3,0.9-0.3,1.9-0.2,2.9c0.2,1.4,1.4,2.4,2.6,2.5
		c1.4,0.1,2.3-0.7,2.8-1.9c0.3-0.7,0.5-1.4,0.6-2.1c0.8-5.5,0.9-11.1,0-16.7c-0.6-4-1.8-7.8-3.7-11.4c-4.8-8.9-12.4-13.3-22.4-13.4
		c-9.5-0.2-18.9,0.1-28.4-0.1c-6.6-0.1-11.4-3.5-14.4-9.3c-1.2-2.4-1.7-5-1.7-7.7c0-2.1,0-4.1,0-6.1c-3.1,0-5.9,0-8.8,0
		c0,2.5,0,4.9,0,7.2c0.1,11.4,8.2,21.7,19.4,24c4,0.8,8.2,0.6,12.3,0.8c0.6,0,1.2,0.1,1.9,0.1c-0.4,1-0.7,1.8-1.1,2.6
		c-2.3,4.6-3.4,9.5-3.5,14.7c-0.2,11.4-5,20.6-14.3,27.2c-5.3,3.8-9.4,8.3-11.6,14.5c-0.1,0.4-0.8,0.8-1.2,0.8
		c-1.5,0.1-3.1,0-4.7,0.1c-12.9,0.3-24.3,10-26.1,22.7c-0.8,5.3-0.4,10.8-0.6,16.2c0,0.1,0.1,0.2,0.2,0.3
		C21,140.7,23.8,140.7,26.8,140.7z M95.6,88.6c-2.1,6.2,0,15.6,8.2,20.7c7.5,4.6,17.2,3.2,23.3-3.3c6.1-6.5,6.2-15.8,2.8-21.1
		c-4.1,2.5-8.2,2.6-12.4,0.1c-4.1-2.5-5.8-6.4-5.9-11.3c-6.9,4.2-9.4,10.9-11.4,18C98.5,90.5,97.1,89.5,95.6,88.6z"/>
</g>
</svg>
