<?xml version="1.0" encoding="utf-8"?>
<!-- Generator: Adobe Illustrator 24.3.0, SVG Export Plug-In . SVG Version: 6.00 Build 0)  -->
<svg version="1.1" id="Layer_1" xmlns="http://www.w3.org/2000/svg" xmlns:xlink="http://www.w3.org/1999/xlink" x="0px" y="0px"
	 viewBox="0 0 150 150" style="enable-background:new 0 0 150 150;" xml:space="preserve">
<style type="text/css">
	.st0{fill:#CDEEFD;}
	.st1{fill:#111224;}
	.st2{fill:#005BAB;}
</style>
<path class="st0" d="M1465.3,1556.3c-2.4-0.2-4.3-1.3-4.4-4.1c-0.1-6.7,1.6-10,4.9-9.9c0.2,0,0.3,0,0.5,0c2.2,0.5,4.3,2.1,3.2,4
	C1467.7,1549.5,1473.1,1555.7,1465.3,1556.3z M1465.5,1554.4c1.3-0.1,2.3-0.6,2.3-2.1c-0.1-1.7-1.5-2.1-2.8-2.4c-1.6-0.4-2,0.8-2,2
	C1463,1553.5,1464,1554.2,1465.5,1554.4z M1467.8,1546.5c0-1.4-0.6-2.2-2.1-2.2c-0.9,0-1.6,0.4-1.7,1.4c-0.2,1.4,0.9,2.1,2,2.5
	C1467.3,1548.5,1467.6,1547.5,1467.8,1546.5z"/>
<path class="st0" d="M1455.8,1556.6c-0.5-2.9-1.8-4.2-4.6-3.6c-0.7,0.2-1.7,0.3-2.1-0.8c-0.4-1.1,0.1-1.5,1.2-2.1
	c2.1-1.2,2.1-3.9,3.2-5.8c0.6-1,1-2.2,2.5-1.9c1.4,0.3,0.9,1.6,0.8,2.5C1456.4,1548.6,1458.4,1552.5,1455.8,1556.6z"/>
<path class="st1" d="M1465.5,1554.4c-1.5-0.1-2.6-0.8-2.5-2.4c0-1.2,0.4-2.4,2-2c1.2,0.3,2.7,0.7,2.8,2.4
	C1467.8,1553.7,1466.8,1554.2,1465.5,1554.4z"/>
<path class="st1" d="M1467.8,1546.5c-0.2,1-0.5,2.1-1.8,1.7c-1.1-0.4-2.1-1-2-2.5c0.1-1,0.8-1.4,1.7-1.4
	C1467.2,1544.3,1467.8,1545,1467.8,1546.5z"/>
<polygon class="st2" points="1346.8,29.4 1346.9,29.6 1346.6,29.6 "/>
<g>
	<g>
		<g>
			<g>
				<g>
					<g>
						<path class="st2" d="M75,39.9c-10.1,0-18.3-9-18.3-20C56.7,9,64.7,0.6,75,0.6S93.3,9,93.3,19.9C93.3,30.9,85.1,39.9,75,39.9z
							 M75,5.9c-7.4,0-13,6-13,13.9c0,8.1,5.8,14.7,13,14.7c7.1,0,13-6.6,13-14.7C88,11.9,82.4,5.9,75,5.9z"/>
					</g>
					<g>
						<path class="st2" d="M94.2,149.4H55.8c-1.5,0-2.7-1.2-2.7-2.7v-42.5c-7.8-2-13.4-9-13.4-17.2V48.3c0-6.5,4.1-12.1,10.3-14.1
							l12.4-4c1.4-0.5,2.9,0.3,3.4,1.7c0.5,1.4-0.3,2.9-1.7,3.4l-12.4,4c-3.9,1.3-6.6,4.9-6.6,9V87c0,6.3,4.7,11.6,11,12.3
							c1.3,0.2,2.4,1.3,2.4,2.7v42.1h33V102c0-1.4,1-2.5,2.4-2.7c6.3-0.7,11-6,11-12.3V48.3c0-4.1-2.6-7.8-6.6-9l-12.4-4
							c-1.4-0.5-2.2-2-1.7-3.4c0.5-1.4,2-2.2,3.4-1.7l12.4,4c6.1,2,10.3,7.7,10.3,14.1V87c0,8.2-5.6,15.2-13.4,17.2v42.5
							C96.9,148.2,95.7,149.4,94.2,149.4z"/>
					</g>
				</g>
			</g>
		</g>
	</g>
	<g>
		<g>
			<g>
				<path class="st2" d="M124.5,125.5c-0.7,0-1.4-0.3-1.9-0.8l-15.3-15.3c-1-1-1-2.7,0-3.8c1-1,2.7-1,3.8,0l13.4,13.4l13.4-13.4
					c1-1,2.7-1,3.8,0c1,1,1,2.7,0,3.8l-15.3,15.3C125.9,125.2,125.2,125.5,124.5,125.5z"/>
			</g>
			<g>
				<path class="st2" d="M124.5,124.5c-1.5,0-2.7-1.2-2.7-2.7V34.3c0-1.5,1.2-2.7,2.7-2.7c1.5,0,2.7,1.2,2.7,2.7v87.6
					C127.2,123.3,126,124.5,124.5,124.5z"/>
			</g>
		</g>
		<g>
			<g>
				<path class="st2" d="M25.5,125.5c-0.7,0-1.4-0.3-1.9-0.8L8.3,109.4c-1-1-1-2.7,0-3.8c1-1,2.7-1,3.8,0l13.4,13.4l13.4-13.4
					c1-1,2.7-1,3.8,0c1,1,1,2.7,0,3.8l-15.3,15.3C26.9,125.2,26.2,125.5,25.5,125.5z"/>
			</g>
			<g>
				<path class="st2" d="M25.5,124.5c-1.5,0-2.7-1.2-2.7-2.7V34.3c0-1.5,1.2-2.7,2.7-2.7c1.5,0,2.7,1.2,2.7,2.7v87.6
					C28.2,123.3,27,124.5,25.5,124.5z"/>
			</g>
		</g>
	</g>
	<g>
		<path class="st2" d="M75,94c-9.5,0-17.2-7.7-17.2-17.2c0-11,13.7-26,15.2-27.6c0.5-0.5,1.2-0.8,2-0.8c0,0,0,0,0,0
			c0.7,0,1.5,0.3,2,0.9c1.6,1.7,15.2,16.9,15.2,27.6C92.2,86.3,84.5,94,75,94z M75,55.1c-4.5,5.3-11.8,15.3-11.8,21.8
			c0,6.5,5.3,11.8,11.8,11.8c6.5,0,11.8-5.3,11.8-11.8C86.8,70.5,79.5,60.5,75,55.1z"/>
	</g>
	<g>
		<path class="st2" d="M75,148.1c-1.5,0-2.7-1.2-2.7-2.7v-31.3c0-1.5,1.2-2.7,2.7-2.7c1.5,0,2.7,1.2,2.7,2.7v31.3
			C77.7,146.9,76.5,148.1,75,148.1z"/>
	</g>
</g>
</svg>
