<?xml version="1.0" encoding="utf-8"?>
<!-- Generator: Adobe Illustrator 24.3.0, SVG Export Plug-In . SVG Version: 6.00 Build 0)  -->
<svg version="1.1" id="Layer_1" xmlns="http://www.w3.org/2000/svg" xmlns:xlink="http://www.w3.org/1999/xlink" x="0px" y="0px"
	 viewBox="0 0 150 150" style="enable-background:new 0 0 150 150;" xml:space="preserve">
<style type="text/css">
	.st0{fill:#CDEEFD;}
	.st1{fill:#111224;}
	.st2{fill:#005BAB;}
</style>
<path class="st0" d="M1465.3,1556.3c-2.4-0.2-4.3-1.3-4.4-4.1c-0.1-6.7,1.6-10,4.9-9.9c0.2,0,0.3,0,0.5,0c2.2,0.5,4.3,2.1,3.2,4
	C1467.7,1549.5,1473.1,1555.7,1465.3,1556.3z M1465.5,1554.4c1.3-0.1,2.3-0.6,2.3-2.1c-0.1-1.7-1.5-2.1-2.8-2.4c-1.6-0.4-2,0.8-2,2
	C1463,1553.5,1464,1554.2,1465.5,1554.4z M1467.8,1546.5c0-1.4-0.6-2.2-2.1-2.2c-0.9,0-1.6,0.4-1.7,1.4c-0.2,1.4,0.9,2.1,2,2.5
	C1467.3,1548.5,1467.6,1547.5,1467.8,1546.5z"/>
<path class="st0" d="M1455.8,1556.6c-0.5-2.9-1.8-4.2-4.6-3.6c-0.7,0.2-1.7,0.3-2.1-0.8c-0.4-1.1,0.1-1.5,1.2-2.1
	c2.1-1.2,2.1-3.9,3.2-5.8c0.6-1,1-2.2,2.5-1.9c1.4,0.3,0.9,1.6,0.8,2.5C1456.4,1548.6,1458.4,1552.5,1455.8,1556.6z"/>
<path class="st1" d="M1465.5,1554.4c-1.5-0.1-2.6-0.8-2.5-2.4c0-1.2,0.4-2.4,2-2c1.2,0.3,2.7,0.7,2.8,2.4
	C1467.8,1553.7,1466.8,1554.2,1465.5,1554.4z"/>
<path class="st1" d="M1467.8,1546.5c-0.2,1-0.5,2.1-1.8,1.7c-1.1-0.4-2.1-1-2-2.5c0.1-1,0.8-1.4,1.7-1.4
	C1467.2,1544.3,1467.8,1545,1467.8,1546.5z"/>
<polygon class="st2" points="1346.8,29.4 1346.9,29.6 1346.6,29.6 "/>
<g>
	<path class="st2" d="M95.5,129.9c0,0.4,0,0.8,0,1.2c0,5.3,0,10.6,0,15.9c0,0.3,0,0.7-0.1,1c-0.1,0.6-0.7,1-1.2,0.9
		c-0.5,0-1-0.5-1.1-1.1c0-0.2,0-0.5,0-0.7c0-6,0-12,0-18c0-1.5,0.3-1.8,1.7-1.8c5.2,0.1,9.4-2.1,12.5-6.2c2.4-3.1,4.3-6.6,6.1-10.1
		c2.5-5,4.9-10,7.4-15c2.3-4.6,5.7-8.4,10.3-10.9c2.2-1.2,4.5-2.1,6.9-2.6c0.7-0.2,1-0.5,1.1-1.1c1-4.5-2.1-8.4-6.7-8.5
		c-2.1-0.1-4,0.6-5.9,1.6c-2.7,1.5-5.1,3.5-7.4,5.5c-2.4,2.1-4.9,4-7.9,5.3c-0.8,0.4-1.7,0.6-2.6,0.8c-3.3,0.5-6.1-1.4-7.4-4.9
		c-0.8-2.2-0.9-4.4-0.8-6.7c0.2-6.3,1.8-12.3,3.1-18.4c2.5-11.7,5-23.5,7.6-35.2c0.7-3.3-1.1-6.1-3.7-7c-3.2-1.1-6.8,1-7.6,4.5
		c-1.7,7.6-3.3,15.3-5,22.9c-0.9,4-1.7,8-2.6,12c-0.4,2-2.1,3.3-4,3.2c-1.9-0.1-3.4-1.5-3.7-3.5c-0.1-0.4-0.1-0.9-0.1-1.3
		c0-14.1,0-28.1,0-42.2c0-2.5-1.2-4.4-3.5-5.4c-3.8-1.6-7.8,1-8,5.2c0,0.3,0,0.7,0,1c0,13.9,0,27.8,0,41.7c0,0.6,0,1.3-0.2,1.8
		c-0.6,1.7-2.1,2.6-3.9,2.4c-1.7-0.2-3.1-1.4-3.3-3.2c-0.6-4.6-1.1-9.2-1.7-13.8c-0.7-6.1-1.5-12.2-2.2-18.3
		c-0.2-1.4-0.3-2.9-0.5-4.3c-0.4-3.7-4.1-5.8-7.2-4.2c-1.9,0.9-3.1,3.1-2.8,5.4c0.4,3.9,0.9,7.7,1.4,11.6c0.7,5.5,1.3,10.9,2,16.4
		c0.4,3.3,0.8,6.5,1.2,9.8c0.1,0.4,0.1,0.9,0.1,1.3c0.1,1.9-1.3,3.5-3.1,3.7c-1.9,0.2-3.6-0.9-4-2.8c-0.8-3.7-1.5-7.5-2.3-11.2
		c-0.7-3.5-1.4-7-2.1-10.5c-0.1-0.5-0.2-0.9-0.4-1.4c-0.8-1.9-2.7-2.8-4.6-2.3c-1.9,0.6-3,2.4-2.6,4.5c0.5,2.8,1.1,5.5,1.7,8.2
		c1.8,9,3.7,18,5.5,27.1c0.3,1.6,0.1,3.3,0,5c-0.2,5.4-0.3,10.9,0,16.3c0.2,5.2,0.7,10.3,1.7,15.4c0.8,4.1,1.9,8.1,3.8,11.8
		c0.8,1.4,1.7,2.8,2.7,4c1.2,1.5,2.7,2.5,4.5,3.1c0.8,0.3,1.1,0.7,1.1,1.5c0,6.1,0,12.2,0,18.3c0,0.9-0.4,1.4-1.1,1.4
		c-0.7,0-1.2-0.5-1.2-1.5c0-5.4,0-10.9,0-16.3c0-0.3,0.1-0.6,0-0.8c-0.1-0.3-0.2-0.6-0.5-0.7c-4.1-1.9-6.4-5.4-8.2-9.3
		c-1.7-3.8-2.8-7.8-3.5-11.8c-1.7-9.4-2-18.9-1.8-28.4c0-1.9,0.3-3.8,0.3-5.7c0-1.5-0.3-3.1-0.6-4.6c-2.1-10.7-4.3-21.4-6.5-32.1
		c-0.6-2.8,0-5.1,2.3-6.8c3.7-2.7,8.8-0.6,9.8,4.1c1.5,7.2,2.9,14.4,4.4,21.6c0,0.1,0,0.2,0,0.3c0.2,0.9,0.7,1.3,1.4,1.2
		c0.7-0.1,1.1-0.7,1-1.6c-0.3-2.3-0.6-4.6-0.8-6.9c-0.7-6-1.5-12-2.2-18c-0.5-4.3-1.1-8.7-1.6-13c-0.4-3.1,0.5-5.7,3-7.7
		c4.3-3.3,10.8-0.8,11.7,4.7c0.5,3.3,0.8,6.7,1.3,10.1c0.8,6.3,1.5,12.5,2.3,18.8c0.3,2.6,0.6,5.2,0.9,7.7c0.1,0.7,0.3,1.4,1.1,1.6
		c0.8,0.2,1.6-0.2,1.7-1.1c0-0.2,0-0.5,0-0.7c0-4.8,0.1-9.6,0.1-14.5c0-9.1,0-18.2-0.1-27.3c0-1.9,0.3-3.7,1.3-5.3
		c1.9-3.1,5.6-4.5,9-3.5c3.5,1,6,4.1,6,7.8c0,7.1,0,14.2,0,21.3c0,7.1,0,14.2,0,21.3c0,0.3,0,0.6,0,0.9c0.1,0.7,0.7,1.3,1.4,1.4
		c0.7,0.1,1.3-0.4,1.6-1.1c0.3-0.9,0.4-1.9,0.6-2.8c2.1-9.8,4.2-19.6,6.3-29.3c0.2-1.2,0.5-2.3,0.8-3.4c0.9-3.5,4.1-6.1,7.5-6.2
		c5.4-0.3,9.5,4.6,8.3,9.9c-1.6,7.4-3.2,14.7-4.7,22c-1.6,7.6-3.3,15.2-4.9,22.8c-0.6,3.1-1.1,6.2-1.1,9.4c0,1.9,0.2,3.9,0.9,5.7
		c1.1,2.4,3.1,3.5,5.5,2.6c1.5-0.5,3-1.3,4.3-2.3c2.1-1.5,4-3.1,6-4.8c2.3-1.9,4.7-3.6,7.4-4.8c3.9-1.6,7.7-1.7,11.2,1
		c3.5,2.6,3.9,7.5,2.9,10.4c-0.4,1-1.1,1.6-2.2,1.9c-2.8,0.6-5.4,1.6-7.8,3.1c-3.3,2-5.8,4.7-7.6,8.1c-2.3,4.4-4.4,8.9-6.6,13.3
		c-1.9,3.9-3.8,7.7-6.2,11.3c-1.5,2.2-3.2,4.4-5.4,6c-2.6,1.9-5.4,2.9-8.6,3.2c-0.3,0-0.6,0-0.8,0.1
		C95.9,129.8,95.8,129.9,95.5,129.9z"/>
	<path class="st2" d="M20.7,95.1c-0.5,0.1-1,0.2-1.5,0.4c-1.7,0.6-3.3,1.3-5,1.9c-1.3,0.5-2.6,0.9-3.9,1.2c-0.7,0.2-1.4,0.2-2.2,0.1
		c-2.1-0.2-3.3-2.2-2.5-4.1c0.3-0.7,0.8-1.4,1.4-1.9c1.3-1.1,2.8-2,4.2-3c0.7-0.5,1.5-1.1,2.1-1.7c0.7-0.7,0.6-1.2-0.2-1.7
		c-0.9-0.6-1.9-1.1-2.9-1.6c-1.6-0.8-3.3-1.6-4.9-2.5c-1.1-0.7-2.2-1.6-3.1-2.6c-1.2-1.3-1.6-2.9-1.2-4.6c0.4-2,1.6-3.1,3.6-3.3
		c1.6-0.1,3.1,0.1,4.6,0.6c2.3,0.7,4.5,1.4,6.8,2c0.8,0.2,1.7,0.3,2.5,0.5c0.1-0.9-0.4-1.2-0.8-1.5c-1.1-0.9-2.3-1.8-3.4-2.8
		c-1-0.9-1.9-1.8-2.8-2.8c-0.9-1.1-1.2-2.5-0.8-3.9c0.5-1.9,1.9-3,3.9-2.8c1.2,0.1,2.3,0.4,3.4,0.8c1.4,0.5,2.7,1.3,4,2
		c0.1,0,0.1,0.1,0.2,0.1c0.6,0.5,0.8,1.1,0.5,1.7c-0.4,0.6-1,0.7-1.7,0.3c-0.7-0.4-1.3-0.8-2-1.1c-1.2-0.5-2.4-1-3.7-1.4
		c-0.7-0.2-1.5-0.3-2,0.4c-0.5,0.8-0.5,1.6,0.1,2.3c0.6,0.8,1.4,1.6,2.1,2.3c0.9,0.8,1.9,1.4,2.8,2.2c0.8,0.7,1.6,1.5,2.2,2.3
		c0.7,0.9,0.8,1.9,0.2,3c-0.5,1-1.6,1.3-2.6,1.2c-1.7-0.3-3.4-0.7-5.1-1.2c-1.9-0.5-3.7-1.1-5.6-1.6C7,74.1,6.4,74.1,5.8,74
		c-2-0.1-3,1.3-2.2,3.2c0.4,1,1.1,1.8,2,2.3c1.5,0.9,3,1.7,4.5,2.5c1,0.5,2.1,1,3.1,1.5c0.6,0.3,1.1,0.6,1.6,1
		c1.6,1.3,1.9,3,0.7,4.6c-0.5,0.7-1.2,1.3-1.9,1.8c-1.3,1-2.7,1.8-4,2.8c-0.6,0.4-1.1,0.9-1.6,1.5c-0.5,0.6-0.2,1.1,0.6,1.1
		c0.8,0,1.6-0.1,2.3-0.4c2.2-0.8,4.3-1.6,6.4-2.4c0.9-0.3,1.9-0.6,2.8-0.7c1.8-0.3,3.1,0.8,3,2.6c0,0.8-0.2,1.7-0.5,2.4
		c-0.6,1.2-1.4,2.3-2.1,3.5c-0.6,1-1.3,2-1.8,3.1c-0.3,0.5-0.4,1.1-0.4,1.7c0,1.1,0.8,1.7,1.9,1.5c0.9-0.2,1.7-0.5,2.5-0.9
		c1.8-0.8,3.6-1.8,5.4-2.6c0.8-0.4,1.7-0.6,2.6-0.6c2.1-0.1,3.7,1.3,3.8,3.4c0,1.1-0.2,2.2-0.5,3.2c-0.7,2.2-1.7,4.2-2.5,6.4
		c-0.3,0.7-0.4,1.5-0.5,2.3c-0.1,0.8,0.1,1.6,0.7,2.2c0.6,0.7,0.5,1.4,0,1.8c-0.6,0.5-1.3,0.3-1.9-0.4c-1.1-1.3-1.4-2.8-1.2-4.4
		c0.3-2.2,1.2-4.1,2-6.1c0.5-1.2,0.9-2.3,1.3-3.5c0.3-0.8,0.5-1.8-0.3-2.4c-0.7-0.6-1.5-0.3-2.3,0.1c-2,0.9-3.9,1.9-5.9,2.8
		c-0.9,0.4-1.9,0.8-2.9,1c-2.4,0.5-4.6-1.3-4.7-3.8c-0.1-1.3,0.4-2.5,1-3.6c0.7-1.2,1.5-2.4,2.3-3.6c0.5-0.8,0.9-1.5,1.3-2.3
		c0.2-0.4,0.2-0.9,0.3-1.3C20.9,95.3,20.8,95.2,20.7,95.1z"/>
	<path class="st2" d="M135.9,35.7c0.3,0.5,0.6,1,1,1.4c1,0.9,2.1,1.8,3.2,2.7c0.7,0.6,1.5,1.3,2.1,2c0.5,0.6,0.8,1.3,1,2
		c0.6,2.2-0.7,4.1-2.9,4.4c-1.8,0.3-3.6-0.1-5.4-0.3c-1.1-0.1-2.3-0.3-3.4-0.3c-1.2,0-1.8,0.7-1.3,1.8c0.5,1.1,1.2,2.1,1.9,3.1
		c0.9,1.2,1.9,2.2,2.8,3.3c0.5,0.6,1,1.3,1.4,2.1c0.7,1.3,0.8,2.7,0.2,4.1c-0.9,1.9-2.6,2.8-4.7,2.3c-1.4-0.3-2.5-1-3.4-2.1
		c-0.3-0.5-0.4-1-0.1-1.5c0.3-0.5,0.8-0.6,1.3-0.4c0.3,0.1,0.5,0.4,0.7,0.5c0.6,0.4,1.1,0.8,1.7,1.1c0.6,0.2,1.3,0.3,1.8-0.3
		c0.5-0.6,0.7-1.3,0.4-2c-0.2-0.6-0.5-1.1-0.9-1.6c-0.9-1.2-1.9-2.3-2.9-3.4c-0.8-1-1.6-2.1-2.3-3.2c-0.6-1-0.9-2.2-0.6-3.4
		c0.3-1.4,1.2-2.4,2.6-2.5c1.4-0.1,2.8,0,4.2,0.1c1,0.1,2,0.3,3,0.4c0.6,0.1,1.2,0.1,1.9,0.1c1.4-0.1,2-1.1,1.1-2.3
		c-0.6-0.8-1.4-1.5-2.2-2.2c-1.1-1-2.3-1.8-3.3-2.8c-0.9-0.8-1.5-1.9-1.5-3.2c0-1,0.5-1.8,1.5-2.1c0.8-0.2,1.6-0.4,2.3-0.4
		c2-0.1,4,0,6,0c0.7,0,1.4-0.1,2.1-0.2c0.4-0.1,0.9-0.2,1-0.7c0.1-0.6-0.3-0.9-0.8-1c-0.7-0.2-1.5-0.3-2.2-0.5
		c-1.4-0.3-2.8-0.6-4.2-1.1c-0.7-0.3-1.3-0.8-1.9-1.4c-1-1.1-1-2.3,0-3.5c0.8-1,1.8-1.8,2.8-2.7c1-0.9,2-1.7,2.9-2.6
		c0.5-0.5,0.9-1.1,1.2-1.7c0.4-0.7,0.3-1.3-0.1-1.9c-0.4-0.6-1.1-0.9-1.7-0.7c-1,0.3-2.1,0.6-3,1.1c-1.5,0.8-2.9,1.8-4.4,2.7
		c-0.8,0.5-1.7,1-2.6,1.3c-1,0.4-2.1,0.4-2.9-0.5c-0.8-0.8-0.9-2.1-0.3-3.2c0.6-1,1.3-1.8,2-2.7c0.6-0.7,1.2-1.4,1.7-2.1
		c0.5-0.7,0.2-1.3-0.6-1.3c-1.1,0-2.1,0.2-3.2,0.5c-1,0.3-1.9,0.7-2.8,1.2c-0.8,0.4-1.5,0.3-1.8-0.3c-0.4-0.7-0.1-1.3,0.7-1.8
		c1.8-0.9,3.6-1.7,5.6-1.9c0.9-0.1,2,0,2.8,0.3c1.7,0.6,2.3,2.3,1.5,3.9c-0.5,0.9-1.1,1.7-1.8,2.5c-0.5,0.6-1.1,1.2-1.6,1.8
		c-0.3,0.3-0.5,0.7-0.7,1.1c0.1,0.1,0.1,0.1,0.2,0.2c0.5-0.2,0.9-0.3,1.3-0.6c1.5-0.9,2.9-1.9,4.4-2.7c1.3-0.7,2.7-1.4,4.1-1.9
		c2.1-0.7,3.8,0.1,4.9,1.7c0.9,1.4,0.9,2.9,0.1,4.2c-0.7,1.2-1.7,2.2-2.6,3.2c-1,1.1-2.3,1.9-3.4,2.9c-0.3,0.2-0.5,0.5-0.7,0.7
		c-0.6,0.7-0.6,1,0.2,1.5c0.7,0.4,1.5,0.6,2.2,0.8c1.2,0.3,2.5,0.4,3.7,0.7c1,0.2,2,0.6,2.7,1.6c1.3,2,0.4,4.4-1.9,4.9
		c-1.5,0.3-3,0.4-4.5,0.5c-1.6,0.1-3.2,0-4.8,0c-0.4,0-0.7,0.1-1.1,0.1C136,35.5,136,35.6,135.9,35.7z"/>
	<path class="st2" d="M58.8,102c-3.1,0-5.6-2.5-5.6-5.7c0-3.1,2.5-5.6,5.7-5.5c3,0,5.6,2.5,5.6,5.5C64.6,99.5,62,102,58.8,102z
		 M62.1,96.5c0-1.8-1.4-3.3-3.2-3.3c-1.8,0-3.3,1.4-3.3,3.2c0,1.8,1.4,3.3,3.2,3.3C60.6,99.7,62.1,98.2,62.1,96.5z"/>
	<path class="st2" d="M74.6,66.7c0-2.9,2.2-5.2,5-5.3c0.8,0,1.4,0.3,1.4,1c0.1,0.7-0.4,1.2-1.2,1.3c-1.7,0.2-2.7,1.2-2.8,2.7
		c-0.1,1.4,0.7,2.7,2.1,3.1c1.5,0.5,3.2-0.4,3.7-1.9c0.1-0.3,0.1-0.5,0.2-0.8c0.1-0.9,0.6-1.4,1.3-1.3c0.7,0.1,1,0.6,1,1.5
		c-0.1,2.1-1.6,4.1-3.7,4.7C78,72.8,74.6,70.3,74.6,66.7z"/>
	<path class="st2" d="M98.3,99.7c-1.9,0-3.5,1.1-4.2,2.7c0.2,0,0.4,0,0.5,0.1c0.3,0.2,0.6,0.3,0.9,0.5c0.2,0.1,0.5,0.1,0.8,0.2
		c0.3-0.3,0.5-0.5,0.8-0.7c1-0.7,2.2-0.5,3,0.3c0.8,0.9,0.9,2.2,0,3c-0.5,0.5-0.8,1.3-1.8,1.4c-0.4,0-1.1,0.4-0.9,1.1
		c0.2,0.6,0.8,0.7,1.4,0.6c0.1,0,0.1,0,0.2,0c2.5-0.3,4.1-2.3,4-4.9C102.8,101.6,100.8,99.7,98.3,99.7z"/>
	<path class="st2" d="M120.8,30.3c-0.3-0.2-0.8-0.4-0.9-0.7c-0.2-0.3-0.1-0.8,0-1.2c0-0.2,0.3-0.4,0.5-0.5c1.5-1,2.9-2,4.4-3
		c0.2-0.1,0.3-0.2,0.5-0.3c0.6-0.2,1,0,1.4,0.4c0.4,0.5,0.3,1-0.1,1.4c-0.2,0.2-0.4,0.4-0.6,0.5c-1.3,0.9-2.7,1.8-4,2.7
		C121.6,29.9,121.3,30,120.8,30.3z"/>
	<path class="st2" d="M35.2,90.9c0.8,0,1.3,0.3,1.5,0.9c0.1,0.5-0.1,1.2-0.7,1.3c-1.9,0.5-3.7,1-5.6,1.5c-0.6,0.1-1.1-0.1-1.3-0.8
		c-0.2-0.6,0-1.2,0.6-1.4C31.5,91.9,33.5,91.3,35.2,90.9z"/>
	<path class="st2" d="M121.3,45.5c-0.7,0-1.3,0-2,0c-0.8,0-1.3-0.5-1.3-1.2c0-0.7,0.4-1.1,1.2-1.1c1.3,0,2.6,0,3.9,0
		c0.8,0,1.2,0.5,1.2,1.1c0,0.7-0.4,1.1-1.3,1.2c-0.3,0-0.6,0-0.9,0C122,45.5,121.6,45.5,121.3,45.5
		C121.3,45.5,121.3,45.5,121.3,45.5z"/>
	<path class="st2" d="M111.8,68.9c0,1-1.1,1.6-1.8,1c-0.9-0.8-1.7-1.7-2.5-2.6c-0.3-0.4-0.3-0.9,0.1-1.3c0.4-0.4,1-0.6,1.4-0.2
		c0.9,0.9,1.8,1.9,2.6,2.9C111.8,68.7,111.7,68.9,111.8,68.9z"/>
	<path class="st2" d="M34.5,76.2c-0.4,0-0.8,0-1.2,0c-0.6-0.1-1-0.6-1-1.2c0-0.6,0.3-1,0.9-1.1c0.9-0.1,1.7-0.1,2.6,0
		c0.6,0.1,0.9,0.6,0.9,1.2c0,0.6-0.4,1-0.9,1.1C35.3,76.2,34.9,76.2,34.5,76.2C34.5,76.2,34.5,76.2,34.5,76.2z"/>
	<path class="st2" d="M78.8,90.2c0-0.6,0.6-1.2,1.2-1.2c0.6,0,1.2,0.6,1.2,1.2c0,0.6-0.6,1.2-1.2,1.2C79.3,91.4,78.7,90.8,78.8,90.2
		z"/>
	<path class="st2" d="M83.8,118.2c0,0.7-0.4,1.2-1.1,1.3c-0.7,0-1.3-0.5-1.3-1.2c0-0.7,0.5-1.2,1.1-1.2
		C83.2,117,83.7,117.6,83.8,118.2z"/>
	<path class="st2" d="M81.1,66.7c0,0.7-0.5,1.2-1.2,1.2c-0.7,0-1.2-0.5-1.2-1.2c0-0.7,0.5-1.2,1.2-1.2
		C80.6,65.5,81.1,66.1,81.1,66.7z"/>
	<path class="st2" d="M114.6,92.1c0,0.7-0.6,1.1-1.2,1.1c-0.7,0-1.1-0.6-1.1-1.2c0-0.7,0.6-1.1,1.2-1.1
		C114.1,90.9,114.6,91.4,114.6,92.1z"/>
	<path class="st2" d="M60.1,96.5c0,0.7-0.5,1.2-1.2,1.2c-0.6,0-1.2-0.5-1.1-1.2c0-0.6,0.6-1.2,1.2-1.2
		C59.6,95.2,60.1,95.8,60.1,96.5z"/>
</g>
</svg>
