<?xml version="1.0" encoding="utf-8"?>
<!-- Generator: Adobe Illustrator 24.3.0, SVG Export Plug-In . SVG Version: 6.00 Build 0)  -->
<svg version="1.1" id="Layer_1" xmlns="http://www.w3.org/2000/svg" xmlns:xlink="http://www.w3.org/1999/xlink" x="0px" y="0px"
	 viewBox="0 0 150 150" style="enable-background:new 0 0 150 150;" xml:space="preserve">
<style type="text/css">
	.st0{fill:#005BAB;}
	.st1{fill:#FFFFFF;}
</style>
<g>
	<path class="st0" d="M118.1,55.5c-0.2,2.3-0.2,6.5,1.5,10.4c1.4,3.2,3.1,6.1,6.4,7.7c2.8,1.4,4.2,3.8,3.8,6.9
		c-0.4,3.2-2.3,5.5-5.5,6.1c-3.2,0.6-4.7,1.5-3.1,5.1c1.1,2.6-0.4,4.8-2.8,6.1c-2.1,1.1-3.3,1.9-0.5,3.9c2.3,1.6,2.6,4.3,0.5,6.4
		c-1.5,1.5-1.3,3-1,4.7c1,5.5-1.4,9-6.8,10.3c-3.6,0.8-7.3,1.1-11,0.5c-1.9-0.3-3.9-0.4-5.9-0.5c-6.7-0.3-10.7,2.5-13.2,8.8
		c-1.9,4.8-2.2,9.8-2.5,14.8c-0.1,1.3,0.3,3.1-1.6,3.1c-2.2,0-1.8-1.9-1.8-3.3c0-6.2,0.7-12.2,3.5-17.9c3.4-6.9,9.2-10.1,16.8-9.2
		c4.1,0.5,8.3,1,12.5,0.5c5.7-0.6,7.1-2.5,6.1-8.1c-0.3-1.9-0.2-3.7,1.3-5.1c1.6-1.5,1-2.4-0.6-3.3c-1.9-1-4.7-1.5-4.6-4.1
		c0.1-3.1,3.4-2.6,5.3-3.6c2.4-1.2,3.8-2.4,2.2-5.4c-1.8-3.4-0.6-5.4,3.2-6.5c1.5-0.4,3.2-0.4,4.5-1.5c2.1-1.6,2.2-4.1,0-5.4
		c-8.5-5.1-10.5-13.1-10-22.1c0.4-7.5-0.8-14.6-3.8-21.5c-1-2.3-2-3.2-4.6-1.7C98.5,36.2,90,38.1,81.5,40c-8.7,1.9-9.9,3.3-11.1,12
		c-0.7,5.1-1.5,10.2-3.8,14.9c-1,2-2.2,3.8-3.9,5.3c-3.3,3.1-5.9,2.5-7.3-1.8c-1.1-3.4-3.2-6.1-6.7-7.3c-6.2-2.2-11.5,0.8-12.5,7.4
		c-0.8,5.5,0,10.7,3.2,15.5c3.2,4.7,3,8.4-1,12.6c-2.5,2.7-5.1,5.3-8,7.6c-2.1,1.7-2.9,3.6-2.8,6.3c0.3,11.2-0.7,22.3-4.7,32.9
		c-0.3,0.8-0.6,1.6-1,2.4c-0.6,1.2-1.1,2.7-2.9,1.9c-1.5-0.7-1-2-0.5-3.2c4.6-10.8,5.7-22.2,5.4-33.9c-0.1-2-0.4-3.6-2.1-5.1
		c-3.2-3-4.6-7.2-6-11.2c-4.1-12.1-6.9-24.6-8.7-37.2C3.9,36.4,18.5,13,40.7,4.2c15.1-6,30.3-4.7,45.5-0.7
		c7.9,2.1,15.3,5.4,20.8,11.7c3,3.4,5.6,7.2,5.1,12.2c-0.1,0.9,0.4,1.6,0.8,2.4C116.9,37.3,118.6,45.2,118.1,55.5z M64.1,3.8
		C50.5,3.6,39,7.2,29.3,15.3C16.3,26,8.8,39.7,10.6,57c1.3,11.9,4.3,23.6,7.7,35.1c1.2,3.9,2.6,7.7,4.7,11.1
		c1.2,1.9,2.4,2.6,4.3,0.8c2.9-2.9,5.8-5.6,8.7-8.4c2.2-2.2,2.4-4.8,0.6-7.3c-4.3-5.8-5-12.4-3.9-19.3c1.3-7.6,8.3-11.9,15.7-9.8
		c4.4,1.2,7.6,3.8,9.5,8c1.5,3.3,1.9,3.3,4,0.2c3-4.5,4.1-9.7,4.6-14.9c0.9-10.6,3.2-13.4,13.5-15.8c8.9-2.2,17.9-4.1,26-8.8
		c2.5-1.5,2.7-3,1.5-5.4c-2.6-5-6.6-8.5-11.4-11.1C85.8,5.9,74.5,4.3,64.1,3.8z"/>
	<path class="st0" d="M92.6,67.3c0-1.3-0.1-2.7,0-4c0.1-1.3,0.4-2.7,2-2.5c1.6,0.1,1.6,1.5,1.4,2.8c-1.2,7.9,1.2,14.7,6.2,20.8
		c0.8,0.9,1.7,1.8,2.6,2.6c1,0.9,2.5,1.8,1.3,3.3c-1.4,1.6-2.7,0.1-3.7-0.8C96,83.4,92.6,76.1,92.6,67.3z"/>
	<path class="st0" d="M140,71c-0.1-7.7-2.9-14.7-9.1-20.2c-1-0.9-2.5-1.8-1.3-3.2c1.4-1.7,2.7-0.2,3.7,0.7c7.4,6.9,11,15.4,9.8,25.6
		c-0.1,1.4,0,3.1-1.8,3c-2-0.1-1.4-1.9-1.4-3.2C139.9,73.1,139.9,72.3,140,71z"/>
	<path class="st0" d="M100.3,69.3c0.1-1.3-0.3-2.6,1.3-2.8c1.8-0.3,1.8,1.2,2,2.4c0.6,3.5,1.6,6.8,3.8,9.7c0.7,0.8,1.5,1.9,0.3,2.9
		c-1.3,1-2.3,0.1-3.1-1C102.2,77,100.7,73.2,100.3,69.3z"/>
	<path class="st0" d="M135.2,68.4c0,1.2,0.5,2.7-1.2,3c-1.7,0.3-1.9-1.1-2-2.4c-0.3-3.6-1.7-6.8-3.9-9.8c-0.8-1-1.4-2.2,0.1-3.1
		c1.3-0.8,2,0.2,2.7,1.1C133.3,60.6,135.1,64.2,135.2,68.4z"/>
</g>
<g>
	<path class="st0" d="M304.6,16.8c0.7-0.8,1.2-1.4,1.8-1.9c23.8-23.9,47.7-47.8,71.5-71.6c8.5-8.5,18-15.5,29.8-18.6
		c13.1-3.5,25.3-1.5,36.4,6.3c1.8,1.2,3.7,2.4,5.7,3.3c3.8,1.8,7.6,1.8,11.4,0c1.6-0.8,3.2-1.6,4.7-2.6c13.8-10,28.4-10.4,43.7-4.1
		c8.8,3.6,16.4,9.2,23.3,15.7c24.6,23.1,47.7,47.7,70.2,72.9c0.3,0.3,0.5,0.7,1.2,1.6c-5.3-1.3-5.5,2.3-6.4,5.4
		c-10.3,34.7-22.1,68.8-38.7,101.1c-4.7,9.1-9.9,18-16,26.1c-11.2,15.1-27.1,22.9-45.3,26.3c-13.3,2.5-26.6,2.1-40,0.2
		c-4.3-0.6-8.8,0.6-13.2,1c-19.5,1.7-38.3-0.2-55.9-9.6c-10.2-5.4-18.4-13.1-24.7-22.7c-10.2-15.3-18.1-31.9-25.2-48.9
		c-10.4-24.9-19.2-50.4-26.6-76.3c-0.5-1.9-1.2-3-3.4-2.9C307.7,17.4,306.3,17,304.6,16.8z M322,21.1c-0.2,0.2-0.5,0.4-0.7,0.6
		c0.1,0.3,0.1,0.6,0.2,0.9c7.4,24.7,15.8,49,25.8,72.7c6.7,15.9,14.1,31.4,23.7,45.8c6.2,9.2,14.2,16.3,24.2,21
		c16.1,7.7,33.1,9.1,50.5,7.2c3.9-0.4,8-1.6,11.8-1c12.6,1.9,25.2,2.5,37.9,0.3c19-3.3,34.8-12.1,45.4-28.7c4.1-6.4,8-13,11.4-19.8
		c15.9-31.2,27.3-64.1,37.4-97.5c0.1-0.4,0.1-0.9,0.1-1.3c-2.3-0.5-2,1.4-2.4,2.4c-10.1,29.3-26.2,54.7-49.1,75.7
		c-7.6,7-15.8,13-25.2,17.3c-6.9,3.2-13.9,4.3-21.6,3.4c-12.2-1.5-24.2-0.5-35.4,5.3c-11.1-5.8-23-6.5-35.2-5.5
		c-3.2,0.3-6.5,0.7-9.7,0.4c-8.6-0.9-16.1-5-23.2-9.7c-19.8-13.2-34.9-30.7-47.4-50.8c-7.2-11.6-12.9-23.9-17.2-36.8
		C323.3,22.5,322.5,21.8,322,21.1z M323.5,10c0.1,0.2,0.2,0.5,0.2,0.7c2.7-0.3,5.5-0.4,8.1-0.9c11.6-2.3,22.2-7.2,33-11.6
		c18-7.4,36-14.9,54.2-21.9c24.2-9.3,48.6-9.4,72.8,0.2c14.2,5.7,28.4,11.7,42.5,17.7C546.7-0.4,558.8,5.4,572,8.8
		c4.6,1.2,9.3,2.1,14.5,1.6c-0.8-0.9-1.2-1.6-1.8-2.1C569-8,553.5-24.4,537.6-40.5c-6.3-6.4-13.2-12.3-20.2-17.9
		c-6-4.8-13-7.9-20.7-9.2c-8.9-1.5-17.1,0.1-24.6,5.3c-4.7,3.3-9.6,6.1-15.5,6.4c-6.4,0.3-11.9-2.4-16.9-6
		c-10.2-7.2-21.1-8.4-32.6-4.3c-9.1,3.2-16.5,9-23.2,15.7C364.1-30.8,344.5-11.2,325,8.5C324.5,9,324,9.5,323.5,10z M447.3,113.4
		c2.8,1,5.4,2,8.1,2.8c1.8,0.6,3.8-0.9,3.9-2.9c0.3-4.2,1.7-7.9,5-10.8c6.3-5.6,15-3.2,17.5,4.9c0.4,1.3,0.6,2.7,0.9,3.8
		c4.8,0.4,9.4,0.9,14,1.3c1.3,0.1,2.6,0.1,3.9-0.1c9.6-1.9,17.4-7.1,25.2-12.9c-4.8-5.1-7.8-11.1-10.3-17.2
		c-3.5-8.6-6.8-17.4-10.1-26.1c-1.3-3.5-4.3-5.5-7.8-5.4c-1.6,0-3.3,0-4.9-0.3c-16.4-3.3-31.3-10.8-46.3-17.6
		c-2.8-1.3-2.9-4.9-0.4-6.9c0.9-0.7,1.8-1.2,3.1-2.1c-0.8-0.1-1.2-0.2-1.6-0.2c-9.5-0.5-18.1,2.2-25.9,7.7
		c-7.1,5-12.5,11.5-17.2,18.8c-9.2,14.2-14.6,30-19,46.2c-0.3,1,0.6,3.1,1.5,3.6c5.7,3.6,11.4,7.1,17.4,10.2
		c6.4,3.4,13.2,2.4,19.9,1.2c1.9-9.1,7.4-14.4,14-13.4C444.7,99,448.3,105,447.3,113.4z M454.1-22c-0.5-0.1-0.9-0.2-1.2-0.1
		c-1.5,0.1-2.9,0.1-4.4,0.3c-14.6,1.6-28.3,6.4-41.8,11.7c-0.7,0.3-1.4,1.5-1.5,2.3c-0.2,3.6-0.1,7.2-0.1,10.7
		c0,3.7,1.5,5.2,5.2,5.2c12.9,0,25.8,0,38.8,0c3.7,0,5.2-1.5,5.2-5.2c0-7.7,0-15.4,0-23.2C454.2-20.8,454.1-21.3,454.1-22z
		 M457.3-22.6c-0.3,0.9-0.4,1.1-0.4,1.3c0,8.4-0.1,16.8,0,25.1c0,2.8,1.8,4.2,4.9,4.2c13.1,0,26.2,0,39.3,0c3.3,0,4.9-1.6,5-4.9
		c0.1-3.4,0-6.8,0-10.2c0-1.4-0.4-2.1-1.7-2.5c-10.2-3.4-20.4-7.2-30.7-10.2C468.4-21.3,462.7-21.7,457.3-22.6z M403.4-8.8
		c-1.2,0.5-2.1,0.7-2.9,1.1c-9.5,4-18.9,8.1-28.4,12.1c-5.7,2.5-5.7,2.5-5.6,8.7c0.1,2.7,1.4,3.9,4.1,3.2c10-2.7,20.1-5.4,30-8.2
		c1.1-0.3,2.6-1.7,2.6-2.7C403.6,0.7,403.4-3.9,403.4-8.8z M548.2,28.7c-1.9-3.7-4.7-5.9-7.5-7.9c-6-4.4-12.6-5.4-19.6-3
		c-6.4,2.2-11.6,6.1-16.4,10.7c-0.6,0.5-0.9,1.4-1.3,2.1c0.8,0.4,1.6,1,2.4,1c5.9,0.1,11.9,0.1,17.8,0c6.1-0.2,12.3-0.5,18.4-1
		C544,30.4,546,29.4,548.2,28.7z M507.6-8.2c0,4.4,0.1,8.3,0,12.2c-0.1,2.5,1,3.7,3.3,4.3c8.9,2.4,17.8,4.8,26.8,7.3
		c6.4,1.7,6.9,1.3,6.9-5.2c0-1.7-0.5-2.4-2-3.1c-5.1-2.2-10.1-4.5-15.1-6.7C521-2.3,514.5-5.2,507.6-8.2z M458,28.8
		c0.2,0.3,0.3,0.5,0.4,0.5c10.7,4.8,21.3,9.6,32.7,12.4c2.5,0.6,5,0.6,7.6,0.9c-0.1-8.1-8.2-17-16.3-18.4
		C473.8,22.7,465.9,25.4,458,28.8z M513.8,55.4c4.7,12.4,8.5,24.6,15.5,35.4c0.8,1.2,1.8,2.2,2.9,3.5c1-1.1,2.1-1.8,2.5-2.9
		c4.1-9.1,4.2-17.5-3.5-25.3C526.5,61.2,520.6,58.1,513.8,55.4z M547.3,68.9c2.7-7.6-1.9-19.3-9.4-23.9c-8.2-5-17.3-5.1-26.7-4.6
		c2.6,3.5,7.6,7.8,10.9,9.4c7.6,3.7,14.6,8.3,19.2,15.6C542.8,67.8,544.9,68.5,547.3,68.9z M365.1,7.8c-9.6,3.5-18.9,6.8-28.5,10.3
		c0,1.3-0.1,3,0,4.6c0.1,2.3,1.3,3.2,3.5,2.6c7.5-2,15-4.1,22.5-6.1c1.7-0.4,2.4-1.5,2.4-3.2C365.1,13.4,365.1,10.6,365.1,7.8z
		 M546.1,8.9c0,2.5,0.1,4.7,0,6.8c-0.1,2.1,0.8,3.2,2.9,3.7c6.5,1.7,13,3.4,19.5,5.3c6.6,2,6.2-0.3,6-5c0-0.6-0.9-1.6-1.6-1.8
		c-6.9-2.3-13.9-4.5-20.8-6.7C550.1,10.6,548.3,9.8,546.1,8.9z M439.8,112.2c-0.7-2.2-1.1-3.8-1.8-5.3c-0.2-0.3-1.6-0.5-2.1-0.2
		c-1.9,1-2.9,2.6-2.9,4.9C435,111.7,436.9,111.9,439.8,112.2z M467.8,112.9c2.2-0.3,4.2-0.7,6.3-1c0-1.9-0.1-3.5-2.1-4
		C470.4,107.6,468.7,109.6,467.8,112.9z"/>
	<path class="st1" d="M454.1-22c0.1,0.6,0.2,1.2,0.2,1.7c0,7.7,0,15.4,0,23.2c0,3.7-1.5,5.2-5.2,5.2c-12.9,0-25.8,0-38.8,0
		c-3.7,0-5.1-1.5-5.2-5.2c0-3.6-0.1-7.2,0.1-10.7c0-0.8,0.8-2,1.5-2.3c13.6-5.3,27.3-10.1,41.8-11.7c1.5-0.2,2.9-0.2,4.4-0.3
		C453.2-22.1,453.6-22,454.1-22z"/>
	<path class="st1" d="M457.3-22.6c5.4,0.9,11.1,1.2,16.4,2.8c10.3,3.1,20.5,6.8,30.7,10.2c1.3,0.4,1.7,1.1,1.7,2.5
		c-0.1,3.4,0,6.8,0,10.2c-0.1,3.3-1.7,4.9-5,4.9c-13.1,0-26.2,0-39.3,0c-3.1,0-4.8-1.5-4.9-4.2c-0.1-8.4,0-16.8,0-25.1
		C456.9-21.5,457-21.7,457.3-22.6z"/>
	<path class="st1" d="M403.4-8.8c0,4.9,0.2,9.5-0.1,14.1c-0.1,1-1.5,2.4-2.6,2.7c-10,2.9-20,5.6-30,8.2c-2.6,0.7-4-0.5-4.1-3.2
		c-0.1-6.2-0.1-6.2,5.6-8.7c9.5-4.1,18.9-8.1,28.4-12.1C401.4-8.1,402.2-8.4,403.4-8.8z"/>
	<path class="st1" d="M507.6-8.2c6.9,3.1,13.3,5.9,19.8,8.8c5,2.2,10.1,4.5,15.1,6.7c1.5,0.6,2,1.4,2,3.1c-0.1,6.5-0.5,6.9-6.9,5.2
		c-8.9-2.4-17.8-4.9-26.8-7.3c-2.3-0.6-3.4-1.8-3.3-4.3C507.7,0.1,507.6-3.8,507.6-8.2z"/>
	<path class="st1" d="M365.1,7.8c0,2.8,0,5.6,0,8.3c0,1.7-0.7,2.7-2.4,3.2c-7.5,2-15,4.1-22.5,6.1c-2.3,0.6-3.4-0.3-3.5-2.6
		c-0.1-1.7,0-3.4,0-4.6C346.2,14.6,355.5,11.3,365.1,7.8z"/>
	<path class="st1" d="M546.1,8.9c2.2,0.9,4.1,1.7,6,2.3c6.9,2.3,13.9,4.4,20.8,6.7c0.7,0.2,1.5,1.2,1.6,1.8c0.2,4.7,0.6,7-6,5
		c-6.4-1.9-13-3.6-19.5-5.3c-2.1-0.5-3-1.6-2.9-3.7C546.1,13.6,546.1,11.4,546.1,8.9z"/>
	<path class="st0" d="M409.4,74c4.2,0,7.9,2.5,9.7,6.6c2.5,5.8,0.5,13.3-4.4,17.2c-5.9,4.6-13.6,2.7-16.5-4.2
		C394.4,84.9,400.7,74.1,409.4,74z M404.7,88.3c0.9,1.4,1.6,3.2,2.6,3.4c1,0.2,2.9-0.9,3.4-1.9c0.8-1.6,1.1-3.7,0.9-5.5
		c-0.3-2.3-2.4-2.8-4-1C406.3,84.6,405.7,86.4,404.7,88.3z"/>
	<path class="st0" d="M481.1,75.5c0.1-5,1.9-9.1,5.8-12c5.9-4.5,13.5-2.3,16.3,4.5c2.4,5.8,0.5,13.1-4.5,16.9
		c-3.5,2.7-7.3,3.5-11.4,1.5C482.9,84.1,481.3,80.1,481.1,75.5z M496.5,73.1c-0.9-1.3-1.6-3.1-2.5-3.3c-1-0.2-2.8,0.9-3.4,1.9
		c-0.8,1.5-0.9,3.4-1,5.1c0,0.7,0.9,2,1.6,2.1c0.8,0.2,2.2-0.3,2.7-0.9C495,76.6,495.6,74.9,496.5,73.1z"/>
	<path class="st0" d="M432.4,50.2c0.2-3.9,2.1-8.2,6.3-11.1c5.5-3.7,12.4-1.9,15.3,4c2.4,4.9,1.9,9.8-1,14.4c-3,4.8-8.3,7-12.9,5.6
		C435.4,61.6,432.4,57,432.4,50.2z M447.8,49.2c-0.9-1.3-1.6-3.3-2.6-3.4c-1.1-0.2-2.8,1.1-3.5,2.2c-0.8,1.3-0.9,3.1-0.9,4.6
		c0,0.8,0.9,2.1,1.7,2.3c0.8,0.2,2.2-0.3,2.7-1C446.3,52.7,446.8,51.1,447.8,49.2z"/>
</g>
<g>
	<path class="st0" d="M856.9,261.5c-22.8,22.1-45.2,43.8-67.6,65.4c-4.1,3.9-8.5,7.5-12.6,11.4c-2.6,2.5-5,3.1-8.5,1.9
		c-21.2-7.1-42.4-13.9-63.6-20.9c-6.3-2.1-6.9-4.9-1.7-9.3c27.4-23.3,55-46.5,82.3-69.9c9.7-8.3,19-17.2,28.3-25.8
		c-10.1-13.2-20-25.7-29.4-38.7c-19.2-26.3-36-54.1-48.3-84.4c-32.2-79.3,15.5-172,98.2-189.4c76-16,145.8,32.5,159.7,103.5
		C999.3,34,995,61.2,982,87.1c-20.3,40.4-45.4,77.6-73.3,113c-1.5,1.9-3.1,3.9-5,6.4c10.4,9.7,20.2,19.6,30.8,28.7
		c29.4,25.3,59.1,50.4,88.7,75.5c1.1,1,2.5,1.8,3.4,3c1.1,1.5,2.7,3.5,2.4,4.9c-0.3,1.4-2.6,2.9-4.3,3.3
		c-16.4,4.5-32.8,8.8-49.2,13.2c-7.7,2.1-15.5,3.9-23.1,6.2c-4,1.2-6.9,0.7-10-2.1c-27.7-25.3-55.4-50.5-83.1-75.7
		C858.3,262.8,857.5,262,856.9,261.5z M760.3-41.5c-1.2,1.4-1.7,1.8-2,2.3c-27.8,41.8-33.3,86-13.6,132.5
		c11.7,27.7,27.5,53.3,45.1,77.6c44.3,61.4,98.2,113.6,156.3,161.6c1.4,1.2,4.3,1.5,6.3,1c14-3.5,28-7.4,42-11.2
		c7.7-2.1,15.4-4.1,23.8-6.3c-1.8-1.6-2.9-2.8-4.1-3.8c-11.2-9.5-22.2-19.1-33.6-28.4c-46.4-38-90.6-78.1-129.1-124.3
		c-28.4-34-55.1-69.1-74-109.4C763.7,21.6,754.4-8,760.3-41.5z M863,162.4c0.9-1.4,1.3-2.4,1.9-3.1c20.1-23.4,39.1-47.7,55.5-73.8
		c16-25.5,29.5-52.1,36.7-81.6c1.9-7.9,1.2-13.4-6.5-17.2c-2.7-1.3-4.9-3.4-7.4-5.1C884.4-57.5,820.9-49.8,770-10.2
		c-2.7,2.1-3.9,4.2-2.8,7.6c4.3,13.8,7.4,28.1,13,41.3c15.1,36.3,37.8,68.1,62.1,98.6C848.8,145.5,855.6,153.5,863,162.4z
		 M867.4,167.6c10.6,11.4,20.7,22.3,30.8,33.2c0.9-0.7,1.2-0.9,1.4-1.2c29.9-37.4,57.1-76.7,77.8-120c14.2-29.6,15.1-60.3,4-91.3
		c-3.7-10.3-8.7-20-16.1-29.9c0.2,2.4,0.3,3.5,0.3,4.5c0.3,8.1,1.4,16.3,0.8,24.4c-1.6,24.2-10,46.4-20.6,67.9
		c-19.4,39.2-45.6,73.8-73.9,107C870.6,163.8,869.2,165.4,867.4,167.6z M959.4-16.2c0-5.1,0.4-9.4-0.1-13.6
		c-1.4-13.4-4.9-26-15.7-35.1c-43.6-36.9-110.2-38.5-156.3-4.5c-12.3,9.1-18.8,20.8-20.9,35.4c-0.8,5.6-0.8,11.2-1.2,17.7
		C830.6-62.8,894.6-63.2,959.4-16.2z M710.5,313.6c2.2,0.8,3.7,1.4,5.2,1.9c16.9,5.6,33.9,11,50.7,16.7c3.4,1.2,5.7,0.8,8.4-1.8
		c24.4-23.9,48.9-47.7,73.3-71.5c1-1,1.8-2.2,2.8-3.3c-10.9-12-21.6-23.8-31.9-35C782.9,251.5,747,282.3,710.5,313.6z"/>
	<path class="st0" d="M907.1,35.9c6.7,4.4,13.1,8.3,19.1,12.6c1.7,1.2,2.6,3.4,3.8,5.2c-1.9,1-3.7,2.7-5.7,2.9
		c-7.4,0.7-14.9,1-23.2,1.4c3.7,7.3,7.2,13.9,10.3,20.7c0.8,1.8,0.4,4.2,0.6,6.4c-2.1-0.1-4.5,0.3-6.3-0.5
		c-6.8-3.1-13.3-6.5-20.7-10.2c-0.5,8.2-0.8,15.7-1.5,23.1c-0.2,2-1.8,3.8-2.7,5.7c-1.8-1.2-4.1-2.1-5.2-3.8
		c-4.2-6-8.1-12.2-12.7-19.1c-4,6.1-7.6,11.7-11.4,17.2c-1.7,2.4-2.7,7-6.6,5.3c-1.9-0.9-2.7-5.2-3-8c-0.7-6.6-0.8-13.2-1.2-20.5
		c-7.5,3.8-14.1,7.3-20.8,10.4c-1.8,0.8-4.2,0.2-6.3,0.3c0.1-2-0.3-4.3,0.5-6c3.1-6.8,6.7-13.4,10.4-20.8c-5.6-0.4-10.5-0.7-15.3-1
		c-2.5-0.2-5.1,0.1-7.5-0.4c-2.1-0.5-4-1.7-5.9-2.6c1.3-1.9,2.1-4.3,3.9-5.6c5.9-4.3,12.1-8.1,18.9-12.5c-6.7-4.4-13-8.4-19-12.6
		c-1.7-1.2-2.6-3.4-3.9-5.2c2-1,4-2.7,6.1-2.9c7.2-0.8,14.5-1,22.7-1.5c-3.6-7.2-7-13.6-10-20.2c-0.9-2-0.6-4.5-0.8-6.8
		c2.3,0.2,4.8-0.2,6.8,0.7c6.6,3,13.1,6.4,20.3,10.1c0.4-8,0.7-15.3,1.4-22.5c0.2-2.2,1.8-4.2,2.8-6.3c1.9,1.3,4.2,2.3,5.5,4.1
		c4.2,5.9,8.1,12.1,12.5,18.8c4.5-6.9,8.6-13.4,13-19.6c1.1-1.5,3.3-2.3,4.9-3.4c0.9,1.7,2.5,3.4,2.7,5.3c0.7,7.6,1.1,15.2,1.6,23.6
		c7.3-3.7,13.9-7.2,20.6-10.2c1.8-0.8,4.2-0.4,6.3-0.6c-0.1,2.1,0.4,4.5-0.5,6.3c-3.1,6.8-6.6,13.3-10.3,20.7
		c8.1,0.5,15.6,0.8,23,1.5c2,0.2,3.9,1.7,5.9,2.6c-1.2,1.8-2,4.1-3.7,5.3C920.3,27.5,913.9,31.4,907.1,35.9z M899.5,73.5
		c0.3-0.2,0.5-0.5,0.8-0.7c-2.4-4.7-4.8-9.4-7.1-14.2c-2.7-5.5-1.8-7,4.4-7.5c5.3-0.4,10.6-0.7,17.4-1.2c-5.8-3.8-10.2-6.7-14.7-9.6
		c-4.9-3.3-4.9-5.5,0.1-8.8c4.4-2.9,8.8-5.8,13.2-8.7c-5.8-1.4-11.4-1.6-16.9-2c-5.1-0.4-6.1-2.3-3.9-6.9c2.4-5,5-9.9,8.2-16.3
		c-6.1,3.1-10.8,5.5-15.6,7.8c-5.7,2.8-7.4,1.8-7.8-4.7c-0.3-5.1-0.5-10.2-0.8-15.3c-4,3.9-6.8,8.1-9.6,12.4c-3.7,5.5-5.6,5.5-9.3,0
		c-2.9-4.3-5.7-8.6-9.4-14.1c-0.4,6.9-0.7,12.2-1.1,17.5c-0.5,6.1-2,7-7.6,4.2c-4.8-2.3-9.5-4.7-15.5-7.7c2.8,5.5,4.8,9.7,6.9,13.9
		c3.9,7.7,3.1,9-5.7,9.4c-4.6,0.2-9.1,0.4-13.7,0.7c3.9,3.9,8.1,6.6,12.2,9.3c6.1,4,6.1,5.8-0.1,9.9c-4.1,2.8-8.3,5.5-12.4,8.3
		c5.7,1.2,10.8,1.5,16,1.9c6.4,0.5,7.3,2.1,4.4,7.9c-2.3,4.6-4.7,9.3-7,13.9c5.8-1.8,10.6-4.3,15.5-6.7c4.7-2.2,6.5-1.3,6.9,3.8
		c0.5,5.5,0.7,11.1,1.1,16.7c4-4.2,6.9-8.8,9.9-13.3c3-4.4,5.3-4.4,8.3-0.1c3.1,4.5,6,9.1,9,13.7c1.4-4.8,1.6-9.3,1.8-13.9
		c0.4-8.7,1.8-9.6,9.5-5.7C891.3,69.3,895.4,71.4,899.5,73.5z"/>
	<path class="st0" d="M854.5,38.3c-8-0.1-14.2-6.5-14.1-14.4c0.1-7.9,6.6-14.3,14.5-14.2c7.8,0.1,14.3,6.8,14.2,14.5
		C868.9,32.2,862.5,38.4,854.5,38.3z M861.7,24.3c0.1-3.9-2.8-7.1-6.7-7.2c-4-0.2-7.5,3.1-7.5,7.1c0,3.7,3.3,7,7,7.1
		C858.3,31.2,861.6,28.1,861.7,24.3z"/>
	<path class="st0" d="M861.2,44.8c6.5-0.1,12.4,5.1,12.2,11.2c-0.1,1.4-1.6,2.8-2.4,4.3c-1.5-1-3.1-1.7-4.4-2.9c-1.8-1.6-3-4.6-5-5
		c-3.3-0.8-4.6,2.1-5.4,5.1c-0.3,1.2-2.6,2.8-3.8,2.7c-1.2-0.2-2.7-2.3-2.9-3.7C848.9,50.5,854.7,44.9,861.2,44.8z"/>
	<path class="st0" d="M874.1,35.2c-0.1-6.3,4.1-11.6,10.2-12.1c1.7-0.1,3.5,1.5,5.2,2.3c-1.1,1.5-2.1,3.1-3.3,4.5
		c-1.5,1.7-4.8,3.4-4.5,4.7c0.4,2,3,3.5,4.6,5.4c1.2,1.4,2.2,3,3.3,4.5c-1.6,0.8-3.2,2.4-4.8,2.4C878.9,46.8,874.2,41.3,874.1,35.2z
		"/>
</g>
<g>
	<path class="st0" d="M435.3,663.9c14.7,0,28.8,0,43.1,0c0,4,0,7.8,0,11.8c-1.1,0.1-2.2,0.2-3.3,0.2c-86.3,0-172.7,0-259,0
		c-17.6,0-29.5-16.4-23.3-32.3c3.6-9.3,10.7-14.4,20.6-15.6c1.2-0.2,2.9-0.9,3.5-1.8c3.7-6.6,9.1-10.3,16.7-10.1
		c7.4,0.2,12.7,4,15.9,10.6c0.2,0.4,0.5,0.8,1.3,1.9c0-7.3,0.4-13.8-0.2-20.3c-0.3-3.4-3.6-4.3-6.9-4.3c-15.5,0.1-30.9,0.1-46.4,0
		c-12.3-0.1-20.8-11.6-17.3-23.2c2.2-7.3,9-12.5,16.8-12.7c4.2-0.1,8.5,0,12.7-0.1c7.4-0.2,13.4-4.5,16.2-12c-3.7,0-7.3,0-10.8,0
		c-4,0-8,0.1-12,0c-6.6-0.2-11.5-5.2-11.7-11.7c-0.1-3.4,0-6.7,0-10.1c0-8.6,3.2-12.5,11.8-14.3c0-3.8,0-7.6,0-11.5
		c-3.8-0.3-7.6-0.3-11.2-0.9c-14.2-2.5-24.5-14.5-24.5-28.9c-0.1-48.2-0.1-96.4,0-144.5c0-16.4,13.2-29.5,29.6-29.6
		c24.1-0.2,48.2-0.1,72.2,0c16.6,0.1,29.8,13.1,29.8,29.8c0.1,48.1,0.1,96.1,0,144.2c0,11.6-5.8,20.1-15.9,26.3
		c5.2,8.9,6.4,17.5-2.8,24.5c-5.7,4.4-16.9,4.1-22.7-0.1c-6.2-4.5-7.7-10.9-4.7-20.7c-4.5,0-8.8,0-13.5,0c0,3.7,0,7.5,0,11.3
		c9.3,2.6,11.7,5.9,11.7,15.7c0,2.9,0.1,5.7,0,8.6c-0.2,6.1-4,10.8-10,11.8c-1.8,0.3-2.7,0.9-3.3,2.7c-4.5,13.8-15.3,21.4-29.9,21.5
		c-3.1,0-6.2,0-9.4,0c-4.7,0-7.4,2.4-7.3,6.1c0.1,3.6,2.7,5.8,7.2,5.8c14.7,0,29.4,0,44.2,0c13.4,0,20.4,7.1,20.4,20.6
		c0,5,0,9.9,0,15.1c8.1,0,15.9,0,24,0c0.7-4.9,1.1-10,2.2-15c9.1-42.6,34.3-71.3,75-86.7c2.1-0.8,4.2-2.2,5.6-3.9
		c6.2-7.7,11-16.3,14.8-26.1c-15.5-1.8-28-8.5-35.8-22.1c-8-13.8-7.2-27.9,0.3-42.2c-2-1.3-3.9-2.7-5.9-3.9c-5.9-3.7-9-9-8.1-16
		c0.9-6.6,5.8-11.5,13-13.3c3.9-1,7.7-2.1,11.6-2.8c3.6-0.6,6-2.4,7.8-5.6c6.1-10.8,14.6-19.2,25.2-25.5c2.1-1.3,2.8-2.4,2.4-5
		c-1.1-7.3,0.3-14.5,4.9-20.2c11.2-13.8,24-25.7,41.4-31.5c32.2-10.6,67.2,1.8,85.4,30.3c18.3,28.7,14.8,65.5-8.6,90.5
		c-2.6,2.8-5.6,5.4-8.8,8.5c2.8,1.9,5.3,3.5,7.6,5.3c4.1,3.1,8.6,5.8,12,9.4c11.1,11.6,12.5,28.3,4,43c-15.5,26.8-31,53.5-46.6,80.2
		c-16.3,28-32.6,56.1-48.8,84.1C437.1,660.7,436.4,662,435.3,663.9z M179.3,405.9c0,23.7,0,47.4,0,71.1c0,11.7,7.5,19.2,19.2,19.2
		c23.1,0,46.1,0,69.2,0c11.9,0,19.3-7.5,19.3-19.4c0-46.9,0-93.8,0-140.7c0-12.2-7.4-19.5-19.6-19.5c-22.8,0-45.6,0-68.5,0
		c-12.4,0-19.7,7.3-19.7,19.8C179.3,359.4,179.3,382.6,179.3,405.9z M461.9,316.4c-13.4,0.2-27.9,5.8-40,17.4
		c-3.2,3.1-6.4,6.3-9.5,9.5c-6.8,7-7.5,16.3-1.8,24.2c18.1,24.9,36.4,49.7,54.6,74.5c5.5,7.4,14.9,8.1,21.4,1.7
		c7.7-7.6,15.7-15,22.9-23.1c17.6-19.5,21.8-41.9,12.1-66.3C512.5,331.3,489.8,316.5,461.9,316.4z M401.3,639.1
		c0.6-0.4,1.1-0.6,1.5-0.9c31.5-23.7,37.1-67.5,13.2-98.9c-4.1-5.4-8.2-7.5-15.1-7.4c-42.9,0.6-80.4,26.6-95.4,66.7
		c-3.5,9.4-5.7,19-6,29.3c5.7,0,11,0.1,16.4,0c22.9-0.7,41.7-9.8,56.2-27.5c6.8-8.2,11.2-17.6,13.9-27.9
		c2.7-10.2,11.4-16.9,20.6-16.1c0,3.8,0,7.6,0,11.5c-5.4,0.7-8.2,3.9-9.5,8.9c-0.5,2.1-1.1,4.1-1.8,6.1
		c-4.4,12.4-11.4,23.2-20.9,32.7C383.4,623.5,392.2,631.2,401.3,639.1z M364.2,427.1c-2.6,5.9-5,11.5-7.5,17.1
		c-0.9,2.1-0.3,3.2,1.5,4.6c6.6,4.9,13.4,7.9,21.3,2.7c2.4,3.5,4.4,6.5,6.7,9.8c-9.5,6.3-19,6.4-29.4,1c2.6,7.9,7.1,13.4,13.6,17.1
		c13.6,7.9,26.8,5.3,39.8-2.2c1.8,3.8,3.4,7.3,5.3,11.2c-5.3,2.1-10.3,4.1-15.2,6.2c-1.1,0.4-2.5,1-2.9,1.8
		c-3.8,8.1-7.3,16.3-10.7,23.8c6.1,0,12.8-0.1,19.4,0.1c2.5,0.1,4-0.6,5.4-2.8c5.9-9.1,11.9-18.1,18-27.1c1.6-2.3,2.1-4.6,1.8-7.3
		c-1.8-17.7,0.9-34.8,7.5-51.3c1-2.5,0.9-4.2-0.7-6.4c-11.9-16-23.6-32.1-35.5-48.2c-0.7-1-1.5-1.9-2.3-2.9
		c-9.7,5.6-17.4,12.9-22.7,22.6c-3.2,5.7-7.6,9.4-14.1,10.6c-4.3,0.8-8.6,1.8-12.7,3.1c-1.5,0.5-3.3,2.1-3.7,3.5
		c-0.3,1.1,1.3,3.1,2.5,4C354.4,421,359.2,423.9,364.2,427.1z M365.3,623.6c-0.6,0.3-1.1,0.5-1.5,0.8
		c-15.5,10.8-32.8,15.7-51.7,15.6c-22.9-0.2-45.9,0-68.8,0c-1.3,0-2.6,0-4.2,0c0-2.3,0.1-4.2,0-6.1c-0.2-3.5-2.8-5.9-6-5.9
		c-3.3,0-5.7,2.5-5.9,6c-0.1,1.9,0,3.9,0,5.9c-4.5,0-8.3-0.1-12.2,0c-4.4,0.1-7.9,2.1-10.1,6c-4.9,8.4,1.2,17.9,11.4,17.9
		c36.9,0,73.8,0.1,110.7-0.1c7.2,0,14.5-0.5,21.6-1.5c15.2-2.2,29.3-7.7,42.7-16C382.5,638.6,373.9,631.1,365.3,623.6z M386.4,663.9
		c9.9,0,20.7-0.1,31.6,0.1c2.7,0,3.9-1,5.2-3.1c27.7-47.9,55.5-95.7,83.3-143.6c0.7-1.1,1.3-2.3,1.9-3.5c-6.3,0-12.2,0-17.1,0
		c-6.2,9.9-12.2,19.4-18.4,29.4c-3.3-4.9-6.1-9.1-9.2-13.6c-7.1,10.6-13.8,20.8-20.7,30.9c-1.7,2.5-2.2,4.8-1.7,7.9
		c4.9,29.6-3.9,54.9-26.1,74.8C406.3,651.1,395.8,657.2,386.4,663.9z M436.2,548.8c-0.2,0.1,0.1,0,0.2-0.1
		c6.6-9.8,13.2-19.7,19.7-29.5c0.4-0.7,0.5-1.9,0.2-2.7c-2.6-8-1.9-15.7,1.1-23.4c0.5-1.3,0.7-2.6,1.1-4c-5.9,2.2-11.3,4.1-16.6,6.2
		c-1,0.4-2,1.1-2.6,1.9c-6.4,9.5-12.8,19.1-18.9,28.2C425.9,533.2,431,541,436.2,548.8z M483.6,463.1c2.1,3.1,3.7,5.6,5.5,8
		c0.7,0.9,1.7,1.7,2.8,2c11.5,2.9,19.6,10,24.9,20.4c0.5,0.9,1,1.8,1.7,3.1c2.1-3.7,4-6.7,5.6-10c4.7-9.6,2.7-21.1-5.5-27.9
		c-5.4-4.5-11.5-8.2-17.9-12.6C496.5,453.6,487.2,455.6,483.6,463.1z M443.3,482.2c2.6-1.2,4.6-2.1,6.7-2.9c3.1-1.3,5-3.2,6-6.8
		c1.6-5.9,6-9.6,11.8-11.4c1.1-0.3,2.2-0.6,3.2-0.8c-11.2-2.6-15.9-12.1-22.4-20.5C443.9,453.8,441.9,467.4,443.3,482.2z M239,532.4
		c-12.1,0-23.8,0-35.5,0c0,4.1,0,7.8,0,11.5c12,0,23.6,0,35.5,0C239,540,239,536.3,239,532.4z M507.6,502.2c-4-9.3-9.4-15-17.9-17.3
		c-1.6,2.3-3.1,4.4-4.8,6.8c3.3,2.6,2.3,9,8.3,9.6C497.7,501.7,502.2,501.8,507.6,502.2z M469.1,496.3c-4,9.9-2.6,18.6,3.8,24.3
		c6.9-8.8,7.4-13.9,2.6-21.6C473.9,496.5,472.2,495.6,469.1,496.3z M226.9,520c0-4.2,0-7.9,0-11.7c-4,0-7.7,0-11.5,0
		c0,4,0,7.7,0,11.7C219.3,520,223,520,226.9,520z M478.7,478c-0.1-3.2-2.9-5.9-6.1-5.8c-3.3,0.1-5.9,2.9-5.8,6.1
		c0.1,3.2,2.9,5.9,6.1,5.8C476.1,484,478.7,481.3,478.7,478z M268.8,520.1c4.3,0,6.1-1,6.2-3.6c0.1-2.9-3.8-8.4-5.9-8.3
		c-2.3,0-6.2,5.1-6,8.2C263.4,519.9,266,520.2,268.8,520.1z"/>
	<path class="st0" d="M191.2,393.9c0-9.5,0-19,0-28.5c0-8.1,4.9-13.1,13-13.1c19.3,0,38.7,0,58,0c7.9,0,12.8,4.9,12.8,12.9
		c0,19.3,0,38.7,0,58c0,7.9-4.9,12.9-12.8,12.9c-19.5,0-38.9,0-58.4,0c-7.7,0-12.6-5-12.6-12.7C191.2,413.6,191.2,403.8,191.2,393.9
		z M262.9,364.6c-20,0-39.8,0-59.4,0c0,20,0,39.8,0,59.5c19.9,0,39.6,0,59.4,0C262.9,404.2,262.9,384.5,262.9,364.6z"/>
	<path class="st0" d="M383,406.4c3.9,0,7.6,0,11.6,0c0.7,3.9-0.8,8.6,3.7,11c4.6,2.5,7.5-2.2,11.8-3.1c1.7,3,3.5,6.2,5.2,9.4
		c-4.7,5.6-14,7.9-20.8,5.2C386.3,425.7,382.4,418.1,383,406.4z"/>
	<path class="st0" d="M239.2,400.2c0,4.3,0,7.9,0,11.8c-3.9,0-7.7,0-11.9,0c0-3.7,0-7.5,0-11.5c-4.1,0-7.8,0-11.8,0c0-4,0-7.8,0-12
		c3.7,0,7.5,0,11.5,0c0-4.1,0-7.8,0-11.8c4,0,7.8,0,12,0c0,3.7,0,7.5,0,11.5c4.1,0,7.8,0,11.8,0c0,4,0,7.8,0,12
		C247.1,400.2,243.3,400.2,239.2,400.2z"/>
</g>
<g>
	<path class="st0" d="M-365-485.3c-6.4-2.4-11.6-6.1-13.5-13.2c-3-11.1,4.9-22.1,16.4-22.7c2.1-0.1,4.2,0,6.6,0c0-12,0-23.8,0-36
		c-5.6,0-11.2,0-16.8,0c-9.2-0.1-16.1-5.2-18.3-13.6c-2.1-8.2,1.3-15.9,9.5-20.3c2.3-1.2,1.9-2.9,1.9-4.7c0-50.5,0-101.1,0-151.6
		c0-10.2,0-20.5,0-30.7c0.1-11.2,7.7-18.7,18.9-18.8c3.5,0,7,0,11.1,0c0-4.3,0-8.5,0-12.7c0-3.6,0-7.2,0-10.9
		c0.1-7.4,5.1-12.3,12.6-12.4c1.6,0,3.2,0,5.4,0c0-1.7,0-3.3,0-4.9c0-8.1,0-16.2,0-24.3c0-4.1,2.4-6.7,6-6.7c3.5,0,6,2.6,6,6.7
		c0.1,9.6,0,19.2,0,29.2c1.6,0,2.9,0,4.2,0c9.1,0,13.7,4.7,13.7,13.9c0,7.2,0,14.4,0,22c4,0,7.7,0,11.4,0
		c10.7,0.1,18.4,7.7,18.5,18.4c0.1,6,0,11.9,0,18.3c1.5-0.7,2.5-1.3,3.6-1.7c6.8-2.7,13.6-5.6,20.5-7.9c5.7-1.9,5.8-1.6,5.8-7.4
		c0-0.6-0.1-1.3,0-1.9c0.4-4.1-0.3-7.1-4.5-9.6c-6.7-3.9-8.9-12.5-6.6-19.8c2.3-7.1,9-12.2,16.6-12.3c8.2-0.1,16.5-0.1,24.7,0
		c8.3,0.1,15.1,5.6,17.1,13.6c2,7.7-1.4,15.9-8.5,19.7c-2.5,1.3-3,2.8-2.9,5.2c0.2,3.5-1.1,7.9,0.5,10.2c1.6,2.2,6.3,2.1,9.4,3.4
		c8.7,3.6,17.3,7.4,26.9,11.5c2.2-2.2,5.3-5.3,8.2-8.5c0.6-0.7,0.7-2.3,0.5-3.3c-2.3-8.8,0.7-16.8,7.9-21.1
		c7.2-4.3,15.9-3.1,22.3,3.2c5.4,5.3,10.8,10.7,16.1,16.2c6.2,6.4,7.4,15.1,3,22.3c-4.2,7-12.4,10-20.9,7.9
		c-1.2-0.3-3.1,0.2-4.1,1.1c-3.1,2.5-5.9,5.4-8.8,8.2c7.2,10.9,12.1,22.1,14.7,34.3c0.2,0.7,1.4,1.6,2.2,1.7c1.6,0.3,3.2,0,4.9,0.1
		c4.7,0.3,8.3-0.1,11.3-5.1c3.8-6.4,12.2-8.3,19.3-6c7,2.2,12.2,8.8,12.3,16.2c0.2,8.5,0.2,17,0,25.5c-0.2,8.2-5.9,14.9-14,16.8
		c-7.5,1.8-15.7-1.6-19.4-8.6c-1.3-2.5-2.8-3-5.2-2.9c-3.5,0.2-7.9-1.1-10.2,0.5c-2.2,1.6-2.1,6.3-3.4,9.4
		c-3.6,8.7-7.4,17.3-11.5,26.9c2.2,2.2,5.3,5.3,8.5,8.2c0.7,0.6,2.3,0.7,3.3,0.5c8.8-2.2,16.9,0.8,21.1,7.9c4.3,7.3,3,15.9-3.5,22.5
		c-5.1,5.1-10.2,10.3-15.4,15.4c-6.6,6.6-15.1,7.9-22.5,3.7c-7.4-4.2-10.3-12.2-8-21.4c0.2-1,0-2.5-0.7-3.2
		c-2.8-3.2-5.8-6.1-8.8-9.2c-10.7,7.1-22,12-34.2,14.6c-0.7,0.2-1.6,1.4-1.7,2.2c-0.3,1.6,0,3.2-0.1,4.9c-0.3,4.7,0.1,8.3,5.1,11.3
		c6.4,3.8,8.3,12.2,6,19.3c-2.3,7.1-9,12.2-16.6,12.4c-8.4,0.1-16.7,0.2-25.1,0c-8.2-0.2-14.9-5.9-16.8-14
		c-1.8-7.5,1.6-15.7,8.6-19.4c2.5-1.3,3-2.8,2.9-5.2c-0.2-3.5,1.1-7.9-0.5-10.2c-1.6-2.2-6.2-2.2-9.4-3.4
		c-6.6-2.5-13.2-5.2-20.3-8.1c0.8,0.9,1.3,1.8,2,2.2c8.5,5.1,12,12.5,9.6,20.9c-2.3,8.3-9.3,13.2-19,13.2c-5.2,0-10.5,0-16,0
		c0,11.9,0,23.7,0,35.9c1.7,0,3.4,0,5,0c9.6,0.1,17,6.3,18.4,15.3c1.4,8.5-3.7,16.6-12.4,19.8c-0.6,0.2-1.1,0.5-1.6,0.8
		C-312.1-485.3-338.6-485.3-365-485.3z M-122.1-683c-3.5,0-7,0-10.5,0c-5.5,0-7.3-1.3-8.1-6.6c-2.3-13.8-7.5-26.3-15.7-37.6
		c-2.7-3.6-2.4-6.1,0.8-9.3c5.3-5.3,10.6-10.6,15.9-15.9c3.4-3.4,5.6-3.5,9.5-0.8c3.1,2.1,6.3,1.9,8.5-0.4c2.3-2.5,2.1-5.8-0.7-8.7
		c-5.2-5.4-10.5-10.6-15.9-15.9c-2.9-2.8-6.1-3-8.7-0.8c-2.5,2.2-2.6,5.3-0.3,8.7c2.5,3.6,2.4,5.9-0.6,9c-5.4,5.5-10.9,11-16.4,16.4
		c-3,3-5.6,3.3-9,0.8c-11.5-8.5-24.2-13.7-38.3-15.9c-4.4-0.7-6-2.6-6-7.1c0-7.4,0-14.7,0-22.1c0-5.2,1.3-6.7,6.6-7.7
		c3.4-0.7,5.5-3.1,5.4-6.2c-0.1-3.2-2.6-5.7-6.2-5.7c-7.9-0.1-15.7-0.1-23.6,0c-3.4,0-5.8,2.4-6.1,5.4c-0.3,3.2,1.9,5.8,5.5,6.4
		c5.1,1,6.5,2.5,6.5,7.8c0,6.6,0,13.2,0,19.8c0,7.3-1.1,8.6-8.3,9.7c-11.2,1.8-21.5,6.1-31.1,12.1c-1.9,1.2-2.5,2.6-2.5,4.8
		c0.1,43.7,0.1,87.3,0,131c0,2.5,0.9,3.8,2.9,5c10.2,6.4,21.2,10.5,33,12.4c4.5,0.7,6.1,2.6,6.1,7c0.1,7.6,0.1,15.2,0,22.8
		c0,4.4-1.7,6.3-6.1,7c-3.9,0.7-6.1,3.2-5.8,6.5c0.3,3.2,2.7,5.4,6.4,5.5c7.6,0.1,15.2,0.1,22.8,0c3.9,0,6.4-2.4,6.6-5.7
		c0.1-3.2-2.1-5.6-5.7-6.2c-4.6-0.8-6.2-2.6-6.2-7.3c0-7.5,0-15,0-22.5c0-4.5,1.5-6.4,6-7.1c14-2.3,26.8-7.5,38.3-15.9
		c3.4-2.5,5.9-2.3,9,0.7c5.5,5.4,11,10.9,16.4,16.4c3,3,3.1,5.4,0.6,9c-2.3,3.4-2.2,6.5,0.3,8.7c2.6,2.3,5.9,2,8.9-1
		c5.2-5.1,10.3-10.2,15.4-15.4c2.9-3,3.3-6.1,1.2-8.7c-2.1-2.7-5.5-2.9-9-0.5c-3.5,2.4-5.9,2.2-9-0.8c-5.5-5.4-11-10.9-16.4-16.4
		c-2.9-3-3.2-5.5-0.6-9c8.5-11.5,13.6-24.3,15.9-38.3c0.7-4.2,2.6-5.8,6.8-5.9c7.7-0.1,15.5-0.1,23.2,0c4.2,0,6.1,1.8,6.8,5.9
		c0.7,4,3,6.2,6.3,6c3.4-0.2,5.6-2.8,5.6-6.7c0.1-7.5,0.1-15,0-22.5c0-4-2.2-6.5-5.6-6.7c-3.3-0.2-5.7,2-6.4,6
		c-0.7,4.3-2.7,5.9-7.1,6C-114.6-682.9-118.3-683-122.1-683z M-283.4-593.2c0-1.3,0-2.6,0-3.9c0-59.7,0-119.5,0-179.2
		c0-6.6-1.8-8.4-8.4-8.4c-22.3,0-44.7,0-67,0c-6.7,0-8.5,1.8-8.5,8.4c0,59.7,0,119.5,0,179.2c0,1.3,0,2.6,0,4
		C-339.2-593.2-311.6-593.2-283.4-593.2z M-307.7-521.4c0-12.1,0-23.8,0-35.5c-12,0-23.8,0-35.5,0c0,12,0,23.6,0,35.5
		C-331.3-521.4-319.6-521.4-307.7-521.4z M-325.6-569.2c10.2,0,20.5,0,30.7,0c5.7,0,11.5,0.1,17.2,0c3.8-0.1,6.3-2.7,6.2-6.1
		c-0.1-3.2-2.5-5.6-6.1-5.8c-0.7-0.1-1.5,0-2.2,0c-30.3,0-60.6,0-91,0c-1.1,0-2.5-0.4-3.3,0.2c-1.8,1.1-4,2.4-4.7,4.2
		c-0.6,1.6,0.2,4.4,1.4,5.6c1.3,1.3,3.8,1.9,5.7,1.9C-356.3-569.1-340.9-569.2-325.6-569.2z M-325.7-497.3c11.6,0,23.2,0,34.8,0
		c4.7,0,7.5-2.3,7.5-6c0-3.7-2.7-6-7.5-6c-23,0-45.9,0-68.9,0c-4.7,0-7.5,2.3-7.5,6c0,3.7,2.7,6,7.5,6
		C-348.4-497.3-337.1-497.3-325.7-497.3z M-337.3-797c8.2,0,15.9,0,23.7,0c0-8,0-15.8,0-23.4c-8,0-15.8,0-23.7,0
		c0,6.8,0,13.2,0,19.7C-337.3-799.6-337.3-798.5-337.3-797z"/>
	<path class="st0" d="M-241.5-671c-13.2,0-24-10.8-24-24c0-13.2,10.9-24,24.1-23.9c13.1,0.1,23.7,10.8,23.8,23.8
		C-217.5-681.9-228.3-671-241.5-671z M-253.5-695.5c-0.3,6.5,4.8,12.2,11.3,12.5c6.6,0.4,12.4-5,12.6-11.6c0.2-6.5-5-12.1-11.5-12.3
		C-247.6-707.2-253.2-702-253.5-695.5z"/>
	<path class="st0" d="M-181.3-706.9c9.9,0.2,17.9,8.5,17.6,18.5c-0.2,9.7-8.5,17.6-18.3,17.4c-9.9-0.2-17.9-8.5-17.6-18.5
		C-199.3-699.2-191.1-707.1-181.3-706.9z M-175.6-689.1c-0.1-3.2-2.9-5.9-6.1-5.8c-3.2,0.1-5.9,2.8-5.8,6.1c0.1,3.2,2.8,5.9,6.1,5.8
		C-178.2-683.1-175.6-685.9-175.6-689.1z"/>
	<path class="st0" d="M-217.5-659c9.9,0,18,8.2,17.9,18.2c-0.1,9.8-8.2,17.8-18,17.8c-9.9,0-18-8.2-17.9-18.2
		C-235.4-651-227.3-659-217.5-659z M-211.6-641.1c0-3.2-2.7-6-6-5.9c-3.2,0-6,2.7-5.9,6c0,3.2,2.7,6,6,5.9
		C-214.3-635.1-211.6-637.8-211.6-641.1z"/>
	<path class="st0" d="M-342.9-736.9c-3.7,0-7.5,0.1-11.2,0c-4.1-0.1-6.6-2.5-6.5-6.1c0.1-3.4,2.5-5.8,6.4-5.8
		c7.3-0.1,14.7-0.1,22,0.1c4.1,0.1,6.7,2.5,6.7,6c0,3.6-2.6,5.9-7,6c-1.7,0-3.5,0-5.2,0C-339.4-736.8-341.1-736.8-342.9-736.9
		C-342.9-736.8-342.9-736.9-342.9-736.9z"/>
	<path class="st0" d="M-343-706.9c-3.7,0-7.5,0.1-11.2,0c-3.9-0.1-6.3-2.4-6.4-5.9c-0.1-3.6,2.5-6,6.5-6.1c7.2-0.1,14.5,0,21.7,0.1
		c4.1,0.1,6.8,2.5,6.8,5.9c0.1,3.6-2.7,6-7,6c-1.7,0-3.5,0-5.2,0C-339.5-706.9-341.2-706.9-343-706.9
		C-343-706.9-343-706.9-343-706.9z"/>
	<path class="st0" d="M-343-677c-3.7,0-7.5,0.1-11.2,0c-3.9-0.1-6.3-2.5-6.3-5.9c0-3.4,2.4-5.9,6.3-6c7.4-0.1,14.7-0.1,22.1,0.1
		c4,0.1,6.7,2.7,6.6,6.2c-0.1,3.5-2.7,5.7-6.9,5.8C-336-676.9-339.5-676.9-343-677C-343-677-343-677-343-677z"/>
	<path class="st0" d="M-343.3-647c-3.6,0-7.2,0.1-10.8,0c-3.9-0.1-6.3-2.4-6.4-5.8c-0.1-3.6,2.4-6.1,6.5-6.1
		c7.2-0.1,14.4-0.1,21.6,0.1c4.1,0.1,6.6,2.5,6.6,6c0,3.6-2.5,5.8-6.6,5.9c-1.9,0-3.7,0-5.6,0C-339.8-647-341.6-647-343.3-647
		C-343.3-647-343.3-647-343.3-647z"/>
	<path class="st0" d="M-343.1-617.2c-3.6,0-7.2,0.1-10.8,0c-4.1-0.1-6.6-2.5-6.6-6c0-3.6,2.5-5.9,6.6-5.9c7.2,0,14.4,0,21.6,0.1
		c3.9,0.1,6.3,2.4,6.4,5.8c0.1,3.6-2.4,6.1-6.4,6.2C-335.9-617-339.5-617.1-343.1-617.2C-343.1-617.1-343.1-617.1-343.1-617.2z"/>
</g>
</svg>
