<svg id="Layer_1" enable-background="new 0 0 404 404" height="512" viewBox="0 0 404 404" width="512" xmlns="http://www.w3.org/2000/svg"><g><g><g><path d="m362.983 388h-320.01l32.168-216v-142c0-7.732 6.268-14 14-14h273.842c7.732 0 14 6.268 14 14v344c0 7.732-6.268 14-14 14z" fill="#fff"/></g><g><path d="m89.141 16c-7.732 0-14 6.268-14 14v142l-32.168 216h262.01l-5.207-4.694c-104.095-93.847-163.904-227.156-164.793-367.306z" fill="#e6e7e8"/></g><g><path d="m120.151 372h36.441v32h-36.441z" fill="#3e4d6c"/></g><g><path d="m362.982 404h-178.39v-32h176.39v-340h-269.841v65.084h-32v-67.084c0-16.542 13.458-30 30-30h273.842c16.542 0 30 13.458 30 30v344c-.001 16.542-13.459 30-30.001 30z" fill="#3e4d6c"/></g><g><g><g><path d="m119.716 224.747h212.533v32h-212.533z" fill="#3e4d6c"/></g><g><path d="m119.716 298.5h212.533v32h-212.533z" fill="#3e4d6c"/></g></g><path d="m281.379 112.5h-39v-39h-32v39h-39v32h39v39h32v-39h39z" fill="#3e4d6c"/></g></g><g><path d="m51.031 404c-22.099 0-40.013-17.914-40.013-40.013v-233.987h80.026v233.987c0 22.099-17.915 40.013-40.013 40.013z" fill="#0795fe"/></g></g></svg>