<svg xmlns="http://www.w3.org/2000/svg" viewBox="0 0 486.495 428.867">
  <defs>
    <style>
      .cls-1 {
        fill: #2e3168;
      }

      .cls-2 {
        fill: #d66ea6;
      }
    </style>
  </defs>
  <g id="vision" transform="translate(-6.768 -35.57)">
    <path id="Path_21" data-name="Path 21" class="cls-1" d="M250.01,126.82c-55.15,0-114.35,25.66-171.18,74.2C36.57,237.1,10.54,272.77,9.46,274.28a14.139,14.139,0,0,0,0,16.6c1.08,1.49,27.11,37.17,69.37,73.26,56.83,48.54,116.04,74.18,171.18,74.18,28.18,0,57.43-6.7,86.88-19.74l-6.15-6.15a19.84,19.84,0,0,1-4.97-19.74c-23.68,10.55-49.23,17.34-75.75,17.34-100.49,0-187.31-97.95-211.17-127.46,23.87-29.5,110.69-127.46,211.17-127.46s187.31,97.97,211.17,127.47c-12.57,15.56-42.58,50.12-82.9,79.33a19.167,19.167,0,0,1,1.58,1.41l18.78,18.78q11.325-8.37,22.56-17.97c42.25-36.09,68.28-71.77,69.36-73.26a14.139,14.139,0,0,0,0-16.6c-1.08-1.5-27.11-37.18-69.36-73.26C364.34,152.47,305.14,126.82,250.01,126.82Z"/>
    <path id="Path_22" data-name="Path 22" class="cls-1" d="M250,318.27a35.53,35.53,0,0,1-35.24-29.95,9.644,9.644,0,1,0-19.04,3.08A54.732,54.732,0,0,0,250,337.56a9.645,9.645,0,1,0,0-19.29Z"/>
    <path id="Path_23" data-name="Path 23" class="cls-1" d="M204.26,274.94a9.65,9.65,0,0,0,12.51-5.44l.23-.58a9.649,9.649,0,0,0-17.84-7.36c-.12.29-.24.58-.35.87A9.656,9.656,0,0,0,204.26,274.94Z"/>
    <circle id="Ellipse_5" data-name="Ellipse 5" class="cls-2" cx="20.38" cy="20.38" r="20.38" transform="translate(229.62 262.19)"/>
    <path id="Path_24" data-name="Path 24" class="cls-1" d="M370.76,372.42a6.971,6.971,0,0,0-9.87,0l-2.8,2.8-31.36-31.36a98.472,98.472,0,1,0-15.47,15.46l31.36,31.36-2.8,2.8a6.971,6.971,0,0,0,0,9.87l59.04,59.04a6.971,6.971,0,0,0,9.87,0l21.05-21.05a6.971,6.971,0,0,0,0-9.87ZM250,358.97a76.4,76.4,0,1,1,76.4-76.4A76.483,76.483,0,0,1,250,358.97Z"/>
    <path id="Path_25" data-name="Path 25" class="cls-2" d="M250.6,107.92a14.15,14.15,0,0,0,14.15-14.15V49.72a14.15,14.15,0,1,0-28.3,0V93.77A14.15,14.15,0,0,0,250.6,107.92Z"/>
    <path id="Path_26" data-name="Path 26" class="cls-2" d="M147.96,114.06a14.15,14.15,0,1,0,24.69-13.83L156.9,72.12a14.15,14.15,0,1,0-24.69,13.83Z"/>
    <path id="Path_27" data-name="Path 27" class="cls-2" d="M333.82,119.8a14.156,14.156,0,0,0,19.26-5.44l15.91-28.42a14.152,14.152,0,0,0-24.7-13.82l-15.91,28.42A14.156,14.156,0,0,0,333.82,119.8Z"/>
  </g>
</svg>
