<?xml version="1.0" encoding="utf-8"?>
<!-- Generator: Adobe Illustrator 24.3.0, SVG Export Plug-In . SVG Version: 6.00 Build 0)  -->
<svg version="1.1" id="Layer_1" xmlns="http://www.w3.org/2000/svg" xmlns:xlink="http://www.w3.org/1999/xlink" x="0px" y="0px"
	 viewBox="0 0 150 150" style="enable-background:new 0 0 150 150;" xml:space="preserve">
<style type="text/css">
	.st0{fill:#005BAB;}
</style>
<g>
	<path class="st0" d="M93.8,27c-1.5,0-2.6,0.7-3.5,2c-1.4,2.1-3.5,3.4-5.9,4.2c-0.4,0.1-0.9,0.1-0.9,0.7c0,0.6,0.3,1,0.8,1.3
		c0.2,0.1,0.4,0.2,0.5,0.2c4.9,1.6,7.8,5.1,9.7,9.7c1.6,3.9,2.1,8,2.7,12.1c0.2,1.6-1,3.1-2.7,3.4c-1.6,0.3-3.2-0.7-3.6-2.4
		c-0.5-2.4-0.9-4.9-1.4-7.4c-0.2-0.8-0.4-1.6-0.6-2.3c-0.4,0-0.4,0.2-0.4,0.4c0.1,6.6,0.3,13.2,0.4,19.8c0,0.8,0.5,0.9,1,1.2
		c1.7,0.9,2.6,2.4,2.9,4.3c0.1,0.9-0.2,1.4-1.1,1.4c-2.9,0-5.8,0-8.7,0c-1,0-1.2-0.5-1.3-1.4c-0.1-2.7-0.2-5.3-0.3-8
		c0-0.9,0-1.5-1.3-1.5c-1.4,0-1.3,0.6-1.4,1.6c-0.1,2.6-0.2,5.2-0.3,7.8c0,1-0.4,1.5-1.5,1.4c-2.8-0.1-5.5-0.1-8.3,0
		c-1.1,0-1.5-0.5-1.3-1.5c0.2-1.9,1.3-3.3,3-4.2c0.7-0.4,0.9-0.8,0.9-1.5c0-1.4,0-2.7,0.1-4.1c0.1-1.3-0.3-1.5-1.5-1.2
		c-5.2,1.2-10.4,2.3-15.5,3.5c-2.4,0.6-4.9,1.1-7.3,1.7c-0.9,0.2-1.6-0.1-2.1-0.9c-0.2-0.4-0.6-0.8-0.7-1.2
		c-0.6-1.5-1.6-1.9-3.2-1.6c-0.9,0.2-1.3,0.5-1.5,1.3c-1.1,4-1.2,3.9-5.1,2.6c-1.3-0.4-2.7-0.9-4-1.3c-1.4-0.5-1.7-1.1-1.3-2.5
		c0.1-0.4,0.2-0.8,0.4-1.2c0.6-2,0.4-2.5-1.3-3.6c-0.4-0.2-0.6-0.2-0.9,0c-0.7,0.4-1.4,0.8-2.2,1.2c-1.7,0.7-2.2,0.5-3-1.1
		c-0.9-1.7-1.8-3.5-2.7-5.3c-0.7-1.5-0.5-2.1,0.9-2.9c0.3-0.2,0.6-0.3,0.9-0.5c2-1.1,2.1-1.2,1.6-3.4c-0.1-0.6-0.5-0.7-0.9-0.8
		c-0.9-0.3-1.8-0.5-2.6-0.9c-1.1-0.4-1.5-1.2-1.1-2.3c0.4-1.1,0.9-2.1,1.4-3.2c0.3-0.7,0.8-0.8,1.5-0.8c2.6,0,5.2-0.1,7.8-0.1
		c0.9,0,1.3-0.3,1.1-1.3c-0.2-1.3-0.2-2.7-0.4-4c-0.2-1,0.2-1.5,1.1-1.9c0.9-0.4,1.9-0.7,2.8-1.2c1.6-0.9,3.2-1.3,4.9-0.4
		c0.7,0.3,1.1,0.1,1.2-0.6c0.2-1.1,0.6-2.1,0.9-3.2c0.4-1.4,1.1-1.8,2.5-1.4c2,0.6,3.9,1.3,5.9,1.9c1.3,0.4,1.8,1.2,1.4,2.5
		c-0.3,0.8-0.5,1.7-0.8,2.5c-0.1,0.4-0.2,0.7,0.1,1.1c1.3,1.5,1.9,1.7,3.7,0.7c0.3-0.2,0.7-0.3,1-0.5c1-0.6,1.8-0.5,2.7,0.5
		c1.9,2.1,3.8,4.2,5.7,6.3c1,1.1,2,2.2,3.1,3.3c0.2-0.1,0.2-0.2,0.2-0.2c0.2-0.4,0.4-0.8,0.6-1.1c1.8-3.6,4.6-6,8.3-7.4
		c0.3-0.1,0.6-0.2,0.9-0.4c0.4-0.3,0.7-0.7,0.7-1.2c0-0.6-0.5-0.6-0.9-0.8c-2.8-1-5.1-2.7-6.7-5.2c-0.3-0.4-0.5-0.8-1.1-0.8
		c-1.6,0.1-2.9-0.7-4-1.7c-1.6-2.7-1.4-4.7,0.8-6.9c0.4-0.4,0.4-0.6,0.1-1c-2.2-2.9-1.4-6.4,1.7-8c0.6-0.3,0.9-0.6,1-1.4
		c0.3-3.6,3.4-5.9,6.9-5c0.7,0.2,1.1,0,1.5-0.5c2.3-2.5,5.9-2.5,8.2,0c0.6,0.6,1,0.7,1.7,0.5c3.4-0.9,6.6,1.4,6.8,5
		c0,0.5,0,0.9,0.7,1.3c3.8,2.1,4.4,5.3,1.7,8.7C98.4,21.5,97.9,25.2,93.8,27z M27.8,58.2c0.2,0.1,0.5,0.1,0.7,0.2
		c2.5,1.2,3.2,2.9,2.4,5.5c-0.1,0.3-0.1,0.6-0.2,0.8c-0.3,0.7-0.2,1.1,0.6,1.4c1.6,0.5,3.2,1,4.8,1.6c0.9,0.3,1.3,0.2,1.4-0.7
		c0.3-2.7,1.7-4.1,4.6-3.8c1.2,0.1,2,0.3,2.6,1.3c1.6,2.7,1.6,2.7,4.4,1.2c2.9-1.5,2.9-1.5,1.5-4.4c-0.1-0.3-0.3-0.5-0.4-0.8
		c-0.2-0.5-0.1-1.1,0.3-1.5c2.8-3,1.6-3.4,5.8-2c0.1,0,0.2,0.1,0.3,0.1c0.8,0.4,1.2,0.2,1.4-0.7c0.4-1.5,0.7-2.9,1.3-4.3
		c0.5-1.2,0.2-1.9-1.1-2.1c-2.5-0.4-3.6-1.8-3.3-4.3c0-0.2,0-0.4-0.1-0.6c-0.1-0.8,0.3-1.4,1-1.8c1-0.6,2.7-0.8,2.8-1.8
		c0.1-1-0.9-2.1-1.4-3.2c0-0.1-0.1-0.2-0.1-0.3c-0.5-0.9-0.8-2.2-1.5-2.6c-0.9-0.4-1.9,0.7-2.8,1.2c-1.1,0.5-1.9,0.5-2.7-0.4
		c-0.3-0.4-0.7-0.7-1.1-1c-1.3-0.8-1.4-1.8-0.9-3.1c0.9-2.7,0.9-2.8-1.9-3.7c-1.3-0.4-2.8-1.5-3.8-1c-1.1,0.6-1,2.5-1.4,3.8
		c-0.5,1.8-0.8,2-2.6,1.3c-1.8-0.7-3.3-0.5-4.8,0.4c-0.4,0.2-0.9,0.5-1.3,0.6c-1.1,0.3-1.2,1-1.1,2c0.2,1.4,0.3,2.8,0.5,4.2
		c0.2,1.2-0.3,1.6-1.4,1.6c-2.8,0-5.5,0-8.3,0.1c-0.4,0-0.9-0.2-1.2,0.3c-0.4,0.9-1.2,1.8-1,2.8c0.1,0.7,1.3,0.6,2,0.9
		c0.4,0.2,0.9,0.3,1.4,0.5c0.6,0.2,1,0.6,1,1.3c0.2,4.3,1.3,3.6-2.8,5.7c-0.1,0-0.2,0.1-0.3,0.1c-0.8,0.2-0.7,0.7-0.4,1.3
		c0.9,1.6,1.7,3.1,2.5,4.8c0.4,0.8,0.7,0.8,1.4,0.4C25.7,59.1,26.6,58.4,27.8,58.2z M69.7,48.4c0.6-1.4,1.1-2.8,1.9-4
		c0.3-0.5,0.5-1.1,1.3-0.9c0.7,0.2,0.5,0.9,0.5,1.4c0,2.2-0.1,4.3-0.2,6.5c-0.1,0.9,0.3,1.1,1.1,1.1c3.9,0,7.7,0,11.6,0
		c0.8,0,1.1-0.3,1-1.1c-0.1-2.3-0.1-4.5-0.1-6.8c0-0.4-0.1-0.9,0.4-1.1c0.6-0.2,0.9,0.2,1.2,0.6c1,1.5,1.7,3.2,2.2,5
		c0.8,2.7,1.2,5.5,1.6,8.2c0.2,1.2,0.7,2,2,1.8c1.3-0.2,1.5-1.2,1.4-2.3c-0.5-3.3-1-6.7-2.1-9.9c-1.6-4.8-4.4-8.6-9.5-10.1
		c-0.9-0.3-1.7-0.8-1.8-1.7C82,34,81.4,33.8,80.4,34c-0.5,0.1-1,0-1.4,0c-0.4,0-0.7,0.1-0.8,0.6C78,35.9,77,36.6,75.7,37
		c-2.9,1-5.2,2.8-6.9,5.4c-2,3.1-1.9,3.3,0.7,5.8C69.5,48.3,69.5,48.3,69.7,48.4z M91.7,20.7c-0.3-0.4,0.6-1.4-0.7-1.8
		c-2.4-0.6-3.9-2.2-5-4.3c-0.3-0.6-0.5-0.7-1.1-0.3c-3.2,2-6.5,2-9.7,0c-0.6-0.4-0.8-0.3-1.1,0.3c-1.1,2.1-2.6,3.7-5,4.3
		c-0.7,0.2-0.6,0.6-0.7,1.1c-0.4,6.6,4.8,12.2,11.4,12.4C86.2,32.7,91.7,27.3,91.7,20.7z M60.7,41c0.2,1.8-1.1,2.4-2.4,2.9
		c-1.5,0.6-2.2,1.4-1.7,3.1c0.2,0.6,0.3,1,1,1.2c0.8,0.2,1.7,0.5,2.5,0.8c1.1,0.4,1.5,1.1,1.2,2.3c-0.4,1.3-0.8,2.7-1.2,4
		c-1.2,4.2-1.2,4.2-5.3,2.7c-0.6-0.2-1.2-0.4-1.6,0.4c-0.4,0.8-1.7,1.1-0.9,2.5c0.8,1.3,2,2.5,1.2,4.5c8.3-1.9,16.3-3.7,24.5-5.5
		C72.1,53.5,66.4,47.3,60.7,41z M91.2,8.8c0.1-3.2-3-5.2-5.7-3.8c-1,0.5-1.4,0.3-1.9-0.6c-1.6-2.7-5.1-2.7-6.8-0.1
		c-0.6,1-1.1,1.1-2.1,0.6C72,3.7,68.9,5.5,69,8.4c0.1,1.6-0.4,2.1-1.8,2.6c-1.5,0.5-2.2,1.8-2.2,3.4c0,1.3,0.6,2.2,1.7,2.8
		c1.4,0.7,2.6,0.3,3.8-0.6c1.2-0.9,2-2,2.6-3.4c0.7-1.8,0.7-1.8,2.2-0.6c2.8,2.3,6.6,2.4,9.5,0.1c1.6-1.3,1.6-1.3,2.3,0.6
		c0.5,1.3,1.3,2.4,2.4,3.2c1.2,1,2.5,1.4,4,0.7c1.2-0.6,1.7-1.7,1.6-3c-0.1-1.6-1-2.9-2.6-3.3C91.3,10.4,90.6,10,91.2,8.8z
		 M87.4,61.1c-0.2,0-0.3,0-0.5-0.1c-1.1,1.2-2.2,2.3-3.6,3.1c-0.6,0.3-0.5,0.7-0.5,1.2c0.1,2.6,0.2,5.1,0.3,7.7
		c0,0.9,0.3,1.3,1.3,1.2c1.5-0.1,3.1,0,4.6,0c0.7,0,1.8,0.4,2-0.2c0.2-0.9-0.6-1.6-1.4-2.2c-0.3-0.3-0.7-0.5-1.1-0.6
		c-0.9-0.2-1.1-0.7-1.1-1.6C87.4,66.8,87.4,63.9,87.4,61.1z M77,69.2c0.2-2.4,1.2-5.1-2-6.4c0,0-0.1-0.1-0.1-0.1
		c-0.4-0.5-0.9-0.4-1.5-0.2c-0.7,0.2-0.5,0.7-0.5,1.2c-0.1,1.9-0.2,3.8-0.2,5.6c0,1-0.2,1.6-1.3,1.9c-1,0.3-1.7,1-2.2,2
		c-0.3,0.6-0.3,1,0.6,1c2.1,0,4.2,0,6.2,0c0.7,0,0.9-0.3,0.9-1C76.9,71.9,77,70.5,77,69.2z M76.4,61.9c2.5,2,5,2,7.5,0
		c0.9-0.7,1.4-1.4,0.6-2.6c-0.5-0.8-1-1.7-1.2-2.6c-0.6-2.3-2-3-4.2-2.7c-0.8,0.1-1.2,0.3-1.7,1c-0.9,1.4-0.2,2.2,0.7,3.1
		c2,1.8,1.5,3.4-1,3.7C77,61.7,76.8,61.8,76.4,61.9z M92.4,25.6c2-0.1,3.2-1.3,3.3-3c0.1-1.6-0.9-2.8-2.4-3.2
		C93.3,21.5,93.1,23.6,92.4,25.6z M67.6,25.5c-0.2-1-0.5-2-0.6-3.1c-0.1-1-0.2-2.1-0.2-3.1c-1.7,0.6-2.6,2-2.3,3.6
		C64.8,24.5,66,25.5,67.6,25.5z M86.3,59.3c0.3-0.5,0.5-0.8,0.6-1.1c0.4-1.3,0.4-2.7-0.1-3.9c-0.2-0.7-1.4-0.2-2.1-0.3
		c-0.8-0.1-0.8,0.3-0.5,0.8C84.9,56.2,85.5,57.6,86.3,59.3z M71.7,50.7c0-1.1,0-1.9,0-2.7C71.5,48.8,70.3,49.7,71.7,50.7z"/>
	<path class="st0" d="M95.9,125.5c0-1-0.4-1.8-0.9-2.7c-3.3-5-4.8-10.5-4-16.5c0.1-1,0-1.6-1.1-2.1c-2.2-1.1-2.9-3.7-1.7-5.8
		c3-5.3,6-10.6,9.1-15.8c1.7-2.9,5.6-2.8,7.4,0.1c0.1,0.1,0.1,0.2,0.1,0.2c1.8,3.1,1.8,3.1,5.3,1.9c0.5-0.2,0.7-0.3,0.6-0.9
		c-1.4-5.2,1.1-8.8,5.1-11.7c1.2-0.9,2.6-1.7,3.9-2.5c3.6-2.3,5.5-5.7,5.9-9.9c0.1-0.8-0.2-1-0.9-1.1c-3-0.5-5.1-2.4-6.5-5
		c-2-3.9-2.9-8.1-3-12.4c0-0.2,0-0.4,0-0.6c0.1-0.2,0.1-0.4-0.2-0.5c-0.6-2.3,0.2-4.2,1.5-6c2.4-3.2,5.6-4.8,9.5-5.6
		c7.4-1.4,13.3,0.9,17.7,7.1c2.3,3.2,2.6,7,2.8,10.8c0.2,4.6-0.4,9.1-0.8,13.6c-0.5,6.2-0.4,12.4-0.3,18.5c0,0.9,0.1,1.8-1.3,1.7
		c-0.9-0.1-0.5,0.6-0.5,1c0.7,5.6,1,11.2,0.9,16.8c-0.1,5-0.6,9.9-1.5,14.8c-0.2,1.1-0.7,1.9-1.6,2.6c-7.5,5.7-15.2,11.1-23.8,15.1
		c-3.8,1.7-7.7,2.8-11.9,2.2C101.1,131.9,97.6,130,95.9,125.5z M98,125.4c-0.1,0-0.2,0-0.4-0.1c0,0.1,0.1,0.2,0.1,0.4
		c1,2.6,3,4,5.4,4.8c4.9,1.6,9.5,0.6,14-1.5c8.2-3.8,15.6-9,22.8-14.4c1-0.7,1.4-1.5,1.6-2.7c1.8-10.3,1.7-20.5,0.4-30.8
		c-0.1-1-0.5-1.5-1.5-1.5c-5-2.1-8.5-5.7-10.5-10.9c-0.5,0.7-0.8,1.2-1.2,1.7c-3.5,4.5-8,7.3-13.9,7.3c-2.3,0-2.7,0.3-3.1,2.6
		c-0.2,1.2-0.1,2.3,0.3,3.4c0.1,0.4,0.2,0.8,0.8,0.9c0.4,0,0.7,0.3,0.6,0.8c-0.1,0.5-0.5,0.6-0.9,0.7c-1.4,0.3-2.8,0.6-4.2,0.9
		c-0.9,0.2-1,0.5-0.5,1.4c1.9,3.2,3.8,6.4,5.6,9.7c2,3.5,0.1,6.9-4,6.9c-5.1,0-10.1,0.1-15.2,0c-1.3,0-1.8,0.4-1.9,1.6
		c-0.3,4.3,0.3,8.3,2,12.3c1.5,3.8,4.2,5.8,8.1,6.6c1.4,0.3,2.8,0.4,4.2,0.5c0.8,0,1.4-0.1,2-0.6c6.8-5.6,13.8-10.9,21.2-15.6
		c0.7-0.5,0.9-0.9,0.7-1.8c-0.9-3.2-1.5-6.4-2-9.6c-0.6-3.7-0.7-7.4-0.4-11.1c0.1-0.9,0.2-1.9,1.5-1.1c0,0.3,0.1,0.6,0,0.9
		c-0.8,6.9,0.5,13.5,2.2,20.2c0.1,0.3-0.1,1.1,0.6,0.9c0.6-0.2,1.1-0.2,1.3,0.4c0.2,0.7-0.4,0.9-0.9,1.2
		c-8.3,5.1-16.1,10.9-23.6,17.2c-0.6,0.5-1.3,0.8-2.1,0.8C104,127.3,100.9,126.6,98,125.4z M144.8,49c0-1.5,0.1-3.1,0-4.6
		c-0.3-2.9-0.8-5.7-2.6-8.2c-5-6.8-11.7-7.8-19.2-5.2c-3,1.1-5.3,3.1-6.4,6.3c-0.4,1.2-0.2,2,1.2,2.6c3.9,1.5,7.9,2.1,12.1,2
		c3.2-0.1,3.3-0.1,4.3,3c1.9,5.9,2.1,11.7-2,16.9c-0.7,0.9-0.9,1.9-0.9,3c-0.1,5.7,5.3,12.1,11.3,13.5c1.2,0.3,1.4-0.1,1.3-1.1
		c0-3.7,0.1-7.3,0.1-11C143.8,60.4,145,54.8,144.8,49z M100.9,103.2c2.9,0,5.8,0,8.7,0c2.6,0,3.8-2.2,2.6-4.4
		c-2.9-5.1-5.8-10.1-8.8-15.2c-1.3-2.3-3.7-2.3-5,0c-2.9,5-5.9,10.1-8.8,15.2c-1.3,2.3,0,4.4,2.6,4.4
		C95.2,103.3,98,103.2,100.9,103.2z M116.7,41.1c0.1,3.8,0.8,7.3,2.3,10.7c1.5,3.6,4.7,6.3,9,5.1c0.5-0.2,1.3-0.3,1.4,0.5
		c0.1,0.8-0.6,1-1.1,1c-1,0.1-1.2,0.6-1.2,1.5c-0.5,5.1-2.9,9-7.5,11.5c-1.8,1-3.5,2.1-4.9,3.5c-0.2,0.2-0.7,0.4-0.5,0.9
		c5.2,0.4,10-2.1,13.6-6.9c0.4-0.5,0.7-1.3,1.2-1.4c1-0.3,0.8-0.9,0.7-1.6c-0.2-2,0.2-3.9,1.5-5.6c0.9-1.1,1.6-2.4,2-3.8
		c1.3-4.3,0.5-8.4-1.1-12.4c-0.3-0.7-0.8-0.7-1.4-0.7c-2.5,0.1-5-0.1-7.5-0.5C121,42.6,118.9,42,116.7,41.1z"/>
	<path class="st0" d="M26.4,96.1c1.1-6.4,4.3-11.5,9.7-15.1c8.7-5.7,20.2-4.2,27.5,3.5c7,7.5,7.7,19.2,1.6,27.4
		c-0.3,0.4-0.7,0.7-0.8,1.4c3.8,0,7.5,0,11.2,0c1.3,0,2.6,0,3.9,0c1.8,0.1,2.6,0.9,2.5,2.7c-0.2,4.1-1.2,8-2.6,11.8
		c-0.2,0.5-0.4,1-0.5,1.5c-1,1.9-1.9,3.8-3.2,5.5c-3.6,5.1-8.4,8.5-14.3,10.4c-7.6,2.4-15.2,2.5-22.9,0.4
		c-11.4-3.1-17.9-11-20.9-22.1c-0.6-2.3-1.1-4.6-1.3-7c-0.2-2.2,0.6-3.2,2.8-3.3c4-0.1,8,0,12.4,0C27.2,108.2,25.6,102.4,26.4,96.1z
		 M62.5,114.9c0-0.6-0.1-1.1-0.4-1.6c0.2-0.2,0.3-0.5,0.5-0.7c5.8-6.6,6.8-15.8,2.6-23.3c-4.3-7.6-12.8-11.5-21.5-9.8
		c-9.8,1.9-16.9,11.3-16,21.3C28.6,111,37,119,47.1,119.2c4.1,0.1,7.8-1,11.3-3c0.2,0.5-0.3,1.1,0.1,1.5c-0.2,0.2-0.5,0.4-0.7,0.5
		c-4.3,2.2-8.9,2.9-13.6,2.1c-0.9-0.1-1.6-0.2-1.7,1c0,0.3-0.2,0.7-0.4,0.9c-0.4,0.6-0.4,1,0.2,1.6c1,1,1.6,2.3,1.7,3.8
		c0.2,2.6-1.1,4.9-3.4,6.1c-2.2,1.1-5,0.8-6.9-0.8c-1.9-1.6-2.7-4.3-1.8-6.7c0.3-0.9,0.4-1.4-0.5-2c-1-0.7-1.7-1.7-2.1-2.9
		c-1.2-3-1.1-3.2,2-2.9c1.9,0.2,3.9,0.1,6-0.4c-1.5-1-2.7-1.8-3.7-2.8c-0.3-0.3-0.8-0.4-1.2-0.4c-4.3,0-8.5,0-12.8,0
		c-1.3,0-1.8,0.5-1.6,1.8c0.3,2.5,0.8,5.1,1.5,7.5c2.8,9.5,8.3,16.5,18,19.7c5.7,1.9,11.6,2.2,17.6,1.4c5.2-0.7,10-2.3,14.1-5.6
		c7.5-5.9,10.3-14.2,11.5-23.2c0.2-1.2-0.6-1.5-1.6-1.5C73.4,114.9,68,114.9,62.5,114.9z M37.7,132.9c2.6,0,4.7-2.1,4.7-4.7
		c0-2.6-2.2-4.8-4.8-4.7c-2.6,0-4.7,2.1-4.7,4.7C32.9,130.8,35,132.9,37.7,132.9z M32.3,120.1c-0.5,0.1-1.6-0.5-1.9,0.2
		c-0.3,0.8,0.6,1.5,1.1,2.2c0.2,0.2,0.3,0.3,0.5,0.5c0.6,0.6,1.1,0.7,1.8,0.1c1.6-1.2,3.5-1.5,5.5-1c0.3,0.1,0.7,0.4,1-0.1
		c0.4-0.6,0.8-1.3,0.7-2c-0.1-0.7-1-0.6-1.5-0.9c-0.5-0.2-0.9,0-1.4,0.1C36.4,119.8,34.5,120,32.3,120.1z"/>
	<path class="st0" d="M29.4,29.1c0,0.4-0.1,0.6-0.4,0.7c-0.3,0.1-0.6,0.1-0.8-0.1c-0.1-0.1-0.3-0.3-0.3-0.5c-2.3-4.5-4.6-9.1-7-13.6
		c-0.2-0.5-0.3-0.9,0.3-1.2c0.5-0.3,0.8,0,1.1,0.4c2.4,4.6,4.7,9.3,7.1,13.9C29.4,28.9,29.4,29,29.4,29.1z"/>
	<path class="st0" d="M23.5,34.3c-0.2,0.6-0.6,0.9-1.2,0.5c-3.1-1.6-6.1-3.2-9.2-4.9c-0.4-0.2-0.7-0.6-0.4-1.1
		c0.3-0.5,0.7-0.5,1.2-0.2c3,1.6,5.9,3.2,8.9,4.7C23.2,33.6,23.5,33.8,23.5,34.3z"/>
	<path class="st0" d="M36.3,21.8c0,1.4,0,2.7,0,4.1c0,0.6-0.2,1.1-0.9,1.1c-0.6,0-0.7-0.6-0.7-1.1c0-2.7,0-5.4,0-8.1
		c0-0.5,0.1-1,0.7-1.1c0.7,0,0.9,0.5,0.9,1.1C36.3,19.1,36.3,20.4,36.3,21.8z"/>
	<path class="st0" d="M47.7,11.3c-0.1,0.7-0.5,0.8-0.9,1c-2.2,1-4.3,2.1-6.4,3.3c-0.5,0.3-1,0.6-1.4,0c-0.4-0.7,0.1-1,0.6-1.3
		c2.2-1.3,4.4-2.4,6.7-3.4C47.1,10.4,47.5,10.5,47.7,11.3z"/>
	<path class="st0" d="M83.5,148.8c-0.6,0-1.3,0-1.3-0.8c-0.1-0.7,0.6-0.8,1.1-0.8c2.4-0.4,4.8-0.7,7.3-1.1c0.6-0.1,1.1-0.1,1.2,0.6
		c0.1,0.7-0.5,0.9-1,1C88.3,148,85.9,148.4,83.5,148.8z"/>
	<path class="st0" d="M5.2,87.9c0.6,0.1,0.8,0.5,0.8,0.9c0.4,2.5,1,4.9,1.7,7.3c0.2,0.6,0.2,1.1-0.5,1.3c-0.6,0.2-0.8-0.3-1-0.8
		c-0.7-2.4-1.3-4.9-1.7-7.4C4.4,88.5,4.4,87.9,5.2,87.9z"/>
	<path class="st0" d="M4.7,63.7c0.5-2.6,1.1-5.3,1.9-7.8c0.1-0.4,0.4-0.8,1-0.6c0.5,0.2,0.6,0.6,0.5,1c-0.7,2.5-1.4,5.1-1.8,7.7
		c-0.1,0.5-0.4,0.8-0.9,0.7C4.7,64.6,4.6,64.2,4.7,63.7z"/>
	<path class="st0" d="M5.1,76.3c0,1.2,0,2.5,0,3.7c0,0.6-0.1,1.1-0.8,1.1c-0.6,0-0.7-0.5-0.8-1c-0.2-2.6-0.1-5.2,0.1-7.8
		c0-0.6,0.3-1,0.9-0.9c0.5,0,0.6,0.5,0.6,1C5.1,73.7,5.1,75,5.1,76.3C5.1,76.3,5.1,76.3,5.1,76.3z"/>
	<path class="st0" d="M109.6,13.4c-0.1,0.6-0.5,0.9-1.1,0.6c-2.4-1.2-4.9-2.3-7.4-3.3c-0.4-0.2-0.7-0.5-0.5-1
		c0.2-0.5,0.7-0.5,1.1-0.3c2.5,0.9,4.9,2,7.2,3.2C109.3,12.7,109.5,12.9,109.6,13.4z"/>
	<path class="st0" d="M10.1,49c-0.6-0.2-0.9-0.6-0.7-1.1c1.1-2.5,2.3-5,3.7-7.3c0.2-0.4,0.6-0.6,1.1-0.3c0.4,0.3,0.5,0.7,0.2,1.1
		c-1.3,2.3-2.5,4.7-3.6,7.1C10.8,48.8,10.5,48.9,10.1,49z"/>
	<path class="st0" d="M63.4,6.5c0,0.5-0.3,0.7-0.8,0.8c-2.5,0.5-5.1,1.1-7.5,1.9c-0.6,0.2-1,0.1-1.1-0.5c-0.2-0.5,0.2-0.8,0.6-1
		c2.6-0.8,5.2-1.5,7.8-1.9C63,5.7,63.4,5.9,63.4,6.5z"/>
	<path class="st0" d="M99.1,145.3c-0.5,0-0.8-0.2-0.9-0.5c-0.2-0.4,0.1-0.8,0.5-0.9c2.6-0.9,5.1-2,7.6-3.1c0.4-0.2,0.8,0,1,0.4
		c0.2,0.4,0,0.7-0.2,0.9C104.4,143.4,101.7,144.4,99.1,145.3z"/>
	<path class="st0" d="M14.1,111.5c0.1,0.6-0.1,0.9-0.4,1c-0.4,0.1-0.7,0-0.9-0.3c-1.4-2.4-2.6-4.9-3.7-7.5c-0.2-0.5,0-0.9,0.5-1
		c0.5-0.2,0.8,0.2,1,0.6c0.9,1.9,1.8,3.7,2.7,5.6C13.5,110.5,13.8,111.1,14.1,111.5z"/>
	<path class="st0" d="M113.8,138.2c-0.4,0-0.6-0.2-0.7-0.4c-0.2-0.4,0-0.7,0.3-0.9c2.3-1.5,4.5-3.1,6.7-4.8c0.3-0.3,0.7-0.2,1,0.1
		c0.3,0.4,0.2,0.8-0.1,1c-2.1,1.8-4.4,3.4-6.8,4.8C114.1,138.1,113.9,138.2,113.8,138.2z"/>
	<path class="st0" d="M123.3,22.5c-0.1,0.2-0.2,0.5-0.3,0.6c-0.3,0.2-0.6,0.2-0.9,0c-2.2-1.7-4.4-3.4-6.5-5c-0.4-0.3-0.4-0.7-0.1-1
		c0.2-0.3,0.6-0.4,0.9-0.2c2.4,1.5,4.6,3.2,6.7,5.1C123.1,22.1,123.1,22.3,123.3,22.5z"/>
	<path class="st0" d="M72.5,149.1c-2-0.2-3.9-0.4-5.9-0.6c-0.5-0.1-1-0.2-1-0.8c0-0.7,0.6-0.7,1.2-0.7c2.5,0.2,5,0.4,7.5,0.6
		c0.5,0,1,0.2,1,0.8c0,0.6-0.5,0.7-1,0.7C73.7,149.1,73.1,149.1,72.5,149.1C72.5,149.1,72.5,149.1,72.5,149.1z"/>
	<path class="st0" d="M62.5,114.9c-0.5,0.6-1.1,1.1-1.7,1.5c-0.1,0-0.1-0.1-0.2-0.1c0,0.1,0,0.1,0.1,0.2c0,0-0.1,0-0.1,0
		c-0.2-0.1-0.3,0-0.4,0.2c0.5,0.6,1,0.1,1.4,0c3.1-0.6,6.1,1,7.2,3.9c1.1,2.8-0.1,6.1-2.7,7.6c-2.7,1.6-6.1,0.9-8.1-1.6
		c-1.9-2.4-1.8-5.7,0.3-8c1.3,0,1.4-0.9,1.3-1.9c-0.6,0.2-0.2,0.9-0.7,1.1c-0.2,0-0.3,0-0.5,0.1c-0.4-0.5,0.1-1-0.1-1.5
		c0.3-0.2,0.6-0.4,0.9-0.6c0.7,0.5,0.5-0.1,0.5-0.4c0.4-0.3,0.7-0.6,1.1-0.9c0.1,0.2,0.2,0.4,0.4,0.3c0.4-0.2,0.2-0.6,0.2-0.9
		c0.2-0.2,0.4-0.4,0.6-0.6C62.4,113.8,62.5,114.3,62.5,114.9z M67.7,122.8c0-2.6-2.1-4.7-4.7-4.7c-2.6,0-4.8,2.2-4.8,4.7
		c0,2.5,2.2,4.7,4.7,4.8C65.5,127.6,67.7,125.4,67.7,122.8z"/>
	<path class="st0" d="M48.9,47.7c0,5.1-4,9.2-9.2,9.2c-5.1,0-9.2-4.1-9.2-9.2c0-5.1,4.1-9.2,9.2-9.2C44.8,38.5,48.9,42.6,48.9,47.7z
		 M32,47.8c0,4.2,3.5,7.6,7.7,7.6c4.2,0,7.7-3.5,7.7-7.8c0-4.2-3.5-7.6-7.7-7.6C35.4,40,32,43.5,32,47.8z"/>
	<path class="st0" d="M101.6,91c0,1.5,0,3.1,0,4.6c0,0.6,0,1.2-0.7,1.2c-0.7,0-0.8-0.6-0.8-1.2c0-3.1,0-6.3,0-9.4
		c0-0.6,0.1-1.1,0.8-1.1c0.6,0,0.7,0.6,0.7,1.1C101.6,87.9,101.6,89.4,101.6,91z"/>
	<path class="st0" d="M101.6,99.5c0,0.6-0.1,1.1-0.8,1.1c-0.7,0-0.7-0.7-0.7-1.2c0-0.6,0.1-1.1,0.8-1.1
		C101.7,98.4,101.6,99,101.6,99.5z"/>
	<path class="st0" d="M43.5,102.1c-0.8,0.1-1.2-0.3-1.1-1.1c0.3-2.3,0.6-4.6,0.8-6.9c0.1-0.8,0.5-1.1,1.2-1.2
		c2.3-0.6,4.6-1.1,6.9-1.7c1-0.2,1.4,0,1.6,1c0.4,2.4,0.8,4.8,1.2,7.3c0.1,0.7-0.1,1.1-0.8,1.2C49.9,101.2,46.7,101.6,43.5,102.1z
		 M44,99.6c-0.2,0.6,0.1,0.9,0.8,0.8c2.2-0.3,4.5-0.6,6.7-0.9c0.6-0.1,0.8-0.3,0.7-1c-0.3-1.6-0.5-3.2-0.8-4.8
		c-0.1-0.4-0.1-0.9-0.8-0.7c-2,0.5-4.3,0.5-5.7,1.7C43.8,95.5,44.4,97.8,44,99.6z"/>
	<path class="st0" d="M46.3,89.1c-1.2,0-2.3,0-3.5,0c-0.4,0-0.8,0-1-0.5c-0.2-0.4,0-0.7,0.3-1c1.6-1.6,3.3-3.3,4.9-4.9
		c0.4-0.4,0.9-0.5,1.4-0.4c2.3,0.5,4.5,0.9,6.8,1.3c0.4,0.1,0.9,0.2,1,0.7c0.2,0.6-0.3,0.9-0.7,1.1c-1.6,1.1-3.1,2.3-4.7,3.4
		C49.5,89.8,47.9,89,46.3,89.1z M44.2,87.4c3.9,0.6,6.9,0.4,9.2-2.6c-1.6-0.3-3.1-0.6-4.7-0.9c-0.4-0.1-0.7,0-1,0.3
		C46.6,85.2,45.5,86.2,44.2,87.4z"/>
	<path class="st0" d="M50,105.4c-0.4,1.2-0.7,2.5-1.1,3.8c-0.7,2.5-1.4,4.9-2.1,7.4c-0.3,1.2-0.9,1.3-1.7,0.4
		c-1.1-1.3-2-2.6-3.1-3.8c-0.5-0.6-0.4-1.1,0.1-1.6c2.1-2.2,4.2-4.5,6.4-6.7c0.3-0.3,0.6-0.6,1.1-0.4C50.1,104.6,50.1,105,50,105.4z
		 M47.4,108.5c-0.8,0.4-1.3,1.1-1.9,1.7c-2.2,2.3-2.2,2.3,0.1,4.9C46.2,112.8,47.1,110.7,47.4,108.5c0.1,0,0.3,0,0.1-0.2
		C47.5,108.3,47.4,108.4,47.4,108.5z"/>
	<path class="st0" d="M54.4,110.9c-0.5,0-1.1,0-1.6,0c-2.4-0.1-2.2,0-1.9-2.3c0.4-2.7,1.7-4.4,4.3-5.1c0.9-0.2,1.6-0.8,2.5-1.2
		c1.1-0.5,1.6-0.2,1.4,1c-0.2,2.1-0.6,4.1-0.8,6.2c-0.1,1.2-0.6,1.6-1.7,1.5C55.9,110.9,55.1,111,54.4,110.9
		C54.4,110.9,54.4,110.9,54.4,110.9z M57.4,104.1c-1.2,0.5-2.1,1-3.1,1.5c-0.9,0.4-2.2,2.7-1.8,3.4c0.5,0.9,1.5,0.2,2.3,0.4
		c0.3,0.1,0.7,0,1,0c0.7,0.1,1-0.2,1-0.9C57.1,107.1,57.2,105.7,57.4,104.1z"/>
	<path class="st0" d="M36.1,98.8c-3.3-0.2-2.6,0.3-3.4-2.7c-0.4-1.5-0.2-2.7,0.7-3.9c0.8-1.1,1.5-2.3,2.3-3.5c0.2-0.4,0.5-0.8,1-0.6
		c0.5,0.1,0.6,0.5,0.6,1c0.3,2.9,0.6,5.7,1,8.6c0.1,0.9-0.3,1.3-1.1,1.2C36.7,98.8,36.3,98.8,36.1,98.8z M36,91.1
		c-1.3,1.8-2.5,3.2-1.7,5.4c0.4,1.1,1.1,0.7,1.7,0.7c0.8,0.1,0.6-0.6,0.5-1C36.4,94.6,36.2,93,36,91.1z"/>
	<path class="st0" d="M36.1,100.6c2.4,0,4.3,1.9,4.3,4.3c0,2.4-2,4.3-4.4,4.3c-2.3,0-4.2-2-4.2-4.3
		C31.8,102.5,33.7,100.6,36.1,100.6z M38.9,104.8c0-1.4-1.4-2.8-2.9-2.7c-1.5,0-2.7,1.3-2.7,2.8c0,1.6,1.3,2.7,2.8,2.7
		C37.7,107.6,39,106.3,38.9,104.8z"/>
	<path class="st0" d="M61.5,93.4c0.5,0,0.6,0.3,0.8,0.7c1,2.4,2,4.8,3,7.2c0.2,0.4,0.3,0.7,0,1.1c-0.4,0.4-0.8,0.3-1.2,0.1
		c-2.1-0.8-4.1-1.7-6.2-2.5c-0.7-0.3-1.1-0.7-0.6-1.4c1.1-1.6,2.3-3.2,3.5-4.8C60.9,93.6,61.1,93.4,61.5,93.4z M59,98.8
		c1.4,0.6,2.7,1.1,4.3,1.7c-0.8-1.8-1.3-3.2-2-4.8C60.4,96.9,59.8,97.8,59,98.8z"/>
	<path class="st0" d="M61.6,113.8c0,0.3,0.2,0.7-0.2,0.9c-0.2,0.1-0.3-0.2-0.4-0.3C61.1,114.2,61.4,114,61.6,113.8z"/>
	<path class="st0" d="M59.8,115.3c0,0.3,0.1,0.9-0.5,0.4C59.5,115.6,59.6,115.4,59.8,115.3z"/>
	<path class="st0" d="M73.6,118.9c2.1,0,2.7,0.6,2.3,2.6c-1.3,6.6-5,11.6-10.4,15.4c-1.1,0.8-2.1,0.5-2.6-0.8c-1-2.2-0.9-2.5,1-3.9
		c3.9-2.9,6.3-6.7,7.5-11.4C71.6,119.5,72.3,118.8,73.6,118.9z M74.4,121.1c0.1-0.6-0.3-0.6-0.7-0.6c-0.8-0.1-0.8,0.5-0.9,1
		c-1.3,5-4,9-8.2,12.1c-0.1,0.1-0.2,0.2-0.3,0.3c-0.7,0.6-0.3,1.2,0,1.7c0.4,0.6,0.7-0.1,1-0.3c3.2-2.4,5.7-5.3,7.4-8.9
		C73.5,124.6,74.1,122.9,74.4,121.1z"/>
	<path class="st0" d="M55,140.1c-3.8,0-7.1-3-7.9-7c-0.8-3.8,1.2-6.7,5-7.3c0.9-0.1,1.3,0.1,1.7,0.9c1.8,3.4,3.6,6.8,5.4,10.2
		c0.5,0.9,0.3,1.4-0.5,1.9C57.4,139.5,56.1,140,55,140.1z M48.5,131.9c0.2,2.3,1.3,4.4,3.6,5.9c1.6,1,3.3,0.9,5,0.1
		c0.6-0.3,0.8-0.5,0.4-1.2c-1.6-2.9-3.1-5.9-4.7-8.8c-0.3-0.5-0.6-0.6-1.2-0.5C49.7,127.9,48.4,129.5,48.5,131.9z"/>
	<path class="st0" d="M24,118.6c0.5,0,1,0,1.4,0c0.7,0,1,0.2,1.2,0.9c0.3,1.9,0.9,3.6,1.9,5.3c0.3,0.5,0.3,1-0.3,1.2
		c-0.5,0.2-0.8-0.1-1-0.5c-0.8-1.4-1.5-2.9-1.8-4.6c-0.2-1.4-1.2-0.9-1.9-0.8c-0.9,0.1-0.3,0.8-0.2,1.2c1.1,4.4,3,8.3,5.8,11.8
		c0.2,0.3,0.5,0.6,0.6,0.9c0.1,0.3-0.1,0.6-0.4,0.8c-0.4,0.2-0.7-0.1-1-0.3c-1-1.1-1.9-2.4-2.8-3.7c-2-3.2-3.3-6.6-4.1-10.3
		c-0.4-1.9-0.3-2,1.6-2C23.4,118.6,23.7,118.6,24,118.6z"/>
	<path class="st0" d="M45.2,142.7c-4.1-0.3-8-1.5-11.5-3.6c-0.5-0.3-1.3-0.6-0.8-1.4c0.5-0.8,1.1-0.2,1.6,0.1
		c3.3,2.1,6.9,3.1,10.8,3.4c0.6,0.1,1.6-0.1,1.5,0.9C46.6,143,45.7,142.6,45.2,142.7z"/>
	<path class="st0" d="M59,117.8c0.5-0.2,0.1-0.9,0.7-1.1c0.1,1.1,0,1.9-1.3,1.9C58.6,118.3,58.8,118,59,117.8z"/>
	<path class="st0" d="M60.2,116.6c0.1-0.2,0.2-0.3,0.4-0.2C60.4,116.5,60.3,116.6,60.2,116.6z"/>
	<path class="st0" d="M60.6,116.4c0-0.1,0-0.1-0.1-0.2c0.1,0,0.1,0.1,0.2,0.1C60.7,116.4,60.7,116.4,60.6,116.4z"/>
</g>
</svg>
