<?xml version="1.0" encoding="utf-8"?>
<!-- Generator: Adobe Illustrator 24.3.0, SVG Export Plug-In . SVG Version: 6.00 Build 0)  -->
<svg version="1.1" id="Layer_1" xmlns="http://www.w3.org/2000/svg" xmlns:xlink="http://www.w3.org/1999/xlink" x="0px" y="0px"
	 viewBox="0 0 150 150" style="enable-background:new 0 0 150 150;" xml:space="preserve">
<style type="text/css">
	.st0{fill:#CDEEFD;}
	.st1{fill:#111224;}
	.st2{fill:#005BAB;}
</style>
<path class="st0" d="M1465.3,1556.3c-2.4-0.2-4.3-1.3-4.4-4.1c-0.1-6.7,1.6-10,4.9-9.9c0.2,0,0.3,0,0.5,0c2.2,0.5,4.3,2.1,3.2,4
	C1467.7,1549.5,1473.1,1555.7,1465.3,1556.3z M1465.5,1554.4c1.3-0.1,2.3-0.6,2.3-2.1c-0.1-1.7-1.5-2.1-2.8-2.4c-1.6-0.4-2,0.8-2,2
	C1463,1553.5,1464,1554.2,1465.5,1554.4z M1467.8,1546.5c0-1.4-0.6-2.2-2.1-2.2c-0.9,0-1.6,0.4-1.7,1.4c-0.2,1.4,0.9,2.1,2,2.5
	C1467.3,1548.5,1467.6,1547.5,1467.8,1546.5z"/>
<path class="st0" d="M1455.8,1556.6c-0.5-2.9-1.8-4.2-4.6-3.6c-0.7,0.2-1.7,0.3-2.1-0.8c-0.4-1.1,0.1-1.5,1.2-2.1
	c2.1-1.2,2.1-3.9,3.2-5.8c0.6-1,1-2.2,2.5-1.9c1.4,0.3,0.9,1.6,0.8,2.5C1456.4,1548.6,1458.4,1552.5,1455.8,1556.6z"/>
<path class="st1" d="M1465.5,1554.4c-1.5-0.1-2.6-0.8-2.5-2.4c0-1.2,0.4-2.4,2-2c1.2,0.3,2.7,0.7,2.8,2.4
	C1467.8,1553.7,1466.8,1554.2,1465.5,1554.4z"/>
<path class="st1" d="M1467.8,1546.5c-0.2,1-0.5,2.1-1.8,1.7c-1.1-0.4-2.1-1-2-2.5c0.1-1,0.8-1.4,1.7-1.4
	C1467.2,1544.3,1467.8,1545,1467.8,1546.5z"/>
<polygon class="st2" points="1346.8,29.4 1346.9,29.6 1346.6,29.6 "/>
<g>
	<path class="st2" d="M128.1,60.2c-0.1,0.7-0.3,1.3-0.4,2c-0.6,3.4-1.9,6.5-3.9,9.2c-3.7,5-3.5,10.1-0.4,15.3
		c1.6,2.6,2.5,5.3,2.4,8.3c-0.2,5.6-5.9,9.4-11.1,7.3c-0.5-0.2-1.1-0.4-1.8-0.7c-0.4,1.3-0.9,2.5-1.3,3.7c-0.8,2.2-1.5,2.6-3.8,2.1
		c-4.1-0.8-8.2-1.5-12.3-2.1c-1.3-0.2-2.5,0.2-3,1.6c-0.5,1.4,0.3,2.2,1.3,3c2.2,1.6,4.5,3.3,6.7,5c1.7,1.3,1.9,2.5,0.5,4.1
		c-3,3.6-6,7.3-9,10.9c-4.5,5.2-11.4,5.2-15.9,0c-3.1-3.6-6.3-7.3-9.5-11.1c-3.2,4.9-6.7,9.5-4.5,15.8c0.5,1.6,1.4,3.1,2.4,4.4
		c1.9,2.6,3.9,5,6,7.6c-1.2,1-2.4,2-3.7,3c-1-1.3-2-2.4-2.8-3.6c-0.7-0.9-1.5-1.3-2.6-1.5c-5.4-0.8-10.8-1.6-15.9-3.6
		c-11.1-4.2-19.8-11.3-26.2-21.3c-0.3-0.4-0.5-0.8-0.9-1.4c-4.9,5.7-9.7,11.3-14.7,17.1c-1.2-1-2.4-2-3.6-3.1
		c3-3.5,5.9-6.9,8.8-10.3C15.1,115,21,108,27,101c0.7-0.8,0.9-1.5,0.5-2.5c-4.3-13.7-6.5-27.8-6.4-42.1c0-10,2.5-19.3,7.5-27.9
		c0.2-0.3,0.3-0.6,0.5-0.9c0,0,0-0.1,0-0.3c-1-0.3-2.1-0.5-3.2-0.9c-2.3-0.8-4.7-1.5-6.9-2.7c-3.9-2.2-3.8-6,0.1-8.3
		c3.6-2.1,7.6-3.1,11.7-3.8c5-0.9,10-1.4,15-2.2c0.8-0.1,1.5-0.4,2.2-0.8C57,3.2,66.6,0.5,77,0.5c8.3,0,16.6,0,24.8,0
		c11,0,21,3.4,30,9.9c0.8,0.6,2,0.8,3,1.1c3.3,1,6.7,1.8,10,2.9c1.2,0.4,2.4,1.2,3.4,2.1c2,1.8,2.1,4.5,0,6.2c-1.4,1.2-3.2,2-4.8,3
		c0.4,2,1,4.1,1.2,6.2c1.1,13.2-2.3,25.3-9.5,36.4c-0.4,0.7-1.7,1.3-2.4,1.2c-0.8-0.1-1.7-1.1-2-1.9c-0.9-2.4-1.5-4.9-2.3-7.3
		C128.3,60.2,128.2,60.2,128.1,60.2z M63.9,88.6c-1-0.1-1.8-0.2-2.7-0.4c-1-0.2-2-0.5-3-0.9c-0.7-0.3-1.2-0.3-1.8,0.4
		c-6.5,7.1-14.4,11.9-23.6,14.5c-0.6,0.2-1.2,0.6-1.6,1c-2.9,3.3-5.7,6.7-8.7,10c-0.7,0.8-0.6,1.3-0.1,2.2
		c6,10.1,14.5,17.3,25.5,21.2c3.4,1.2,7,1.8,10.9,2.8c-0.3-0.7-0.3-1-0.4-1.2c-2.6-5.9-2.2-11.5,1.1-17c1.1-1.8,2.2-3.7,3.3-5.5
		c0.5-0.7,0.5-1.3,0-2c-1.1-1.6-2.2-3.2-3.3-4.9c1.3-0.9,2.6-1.7,3.9-2.6c0.2,0.2,0.4,0.4,0.5,0.5c4.4,7.4,10.4,13.4,15.9,20
		c2.4,2.9,6.2,2.8,8.6,0c0.8-0.9,1.6-1.9,2.4-2.9c1.8-2.1,3.5-4.2,5.3-6.4c-2-1.5-3.9-2.9-5.7-4.3c-2.3-1.9-3.3-4.3-2.5-7.3
		c0.7-3,2.7-4.8,5.7-5.3c1.4-0.2,3-0.2,4.4,0c3.1,0.4,6.2,1,9.5,1.5c0.5-1.4,1-3,1.5-4.5c0.7-1.9,1.9-2.4,3.8-1.5
		c1,0.5,1.9,1,2.9,1.4c2.9,1.3,5.6-0.4,5.1-3.5c-0.3-1.9-1.1-3.8-2-5.5c-3.4-6.2-4.1-12.7,0.1-18.5c4.8-6.6,4.4-13.9,4.3-21.3
		c-3.1,2.2-6,4.5-9.1,6.5C99.9,64.6,84,69.3,66.9,69.5c-1.5,0-2.2-0.7-3-2c-0.8-1.5-1.9-3-3.3-3.9c-2.4-1.7-5.1-1.8-7.7-0.3
		c-2.5,1.6-3.5,4-3.2,6.9c0.3,3.4,1.7,6.4,4.3,8.7c2.8,2.5,5.8,4.9,9.8,4.9C63.9,85.4,63.9,86.9,63.9,88.6z M32.1,97.6
		c8.5-2.6,15.4-6.9,21.1-13.2c-3.2-2.3-5.6-5-6.9-8.5c-1.5-3.8-2-7.6-0.3-11.4c1.8-4.1,5.1-6.5,9.6-6.8c5-0.4,9,1.7,11.7,5.9
		c0.5,0.7,0.9,1.2,1.9,1.2c14.3-0.6,27.7-4.3,39.8-11.9c5.2-3.3,10-7.3,14.9-11c1.9-1.5,3.6-1,4.3,1.3c0.5,1.7,1,3.3,1.5,5
		c1.3,4.3,2.6,8.6,3.9,12.9c5.4-10.8,8.3-22,5.1-34.1c-0.6,0.1-0.9,0.1-1.1,0.1c-8.8,2-17.8,3-26.8,3.4c-11.1,0.6-22.2,0.9-33.3,1
		c-13.9,0.1-27.8-1.1-41.6-3c-1.1-0.2-1.7,0.1-2.2,1c-5,8.1-7.6,16.9-7.7,26.5c-0.1,9.4,0.8,18.7,2.8,27.9
		C29.6,88.4,30.9,92.9,32.1,97.6z M37.6,23.9c33.2,3.9,66,3.9,99-1.3c-1.6-2.8-3.4-5-5.6-6.8c-8.1-6.7-17.4-10.3-27.9-10.5
		c-8.5-0.2-17.1,0-25.6,0c-9.6,0-18.5,2.4-26.7,7.3C45.8,15.5,41.5,19.2,37.6,23.9z M21.7,19.3c0,0.2-0.1,0.5-0.1,0.7
		c2.6,0.8,5.3,1.5,7.9,2.4c1.9,0.6,3.4,0.4,4.5-1.5c0.6-1,1.5-1.9,2.3-2.7c1-1,2.1-1.9,3.2-2.8c-0.1-0.2-0.3-0.3-0.4-0.5
		C33.1,16,27.2,16.7,21.7,19.3z M144.5,19.3c-1.9-0.7-3.6-1.4-5.6-2.2C141.1,21.4,141.8,21.6,144.5,19.3z"/>
	<path class="st2" d="M149.5,148c-1.5,0-2.9,0-4.6,0c0-1.1,0-2.3,0-3.4c0.1-4.7-0.1-9.4-1.8-13.9c-4.5-11.5-12.8-18.4-25-20.5
		c-0.6-0.1-1.2-0.2-1.9-0.3c0.1-1.5,0.2-3,0.3-4.7c9.1,0.9,16.7,4.4,22.9,10.8C148.1,124.9,150.6,135.9,149.5,148z"/>
	<path class="st2" d="M103.3,121.4c0.7-1.2,1.5-2.5,2.2-3.7c8.7,3.2,14.6,16.9,13,30.3c-1.5,0-2.9,0-4.6,0c0-0.5,0-1.1,0-1.7
		c-0.1-3.3,0.1-6.7-0.5-9.9c-1-6-4.3-10.7-9.2-14.2c-0.3-0.2-0.6-0.4-0.8-0.6C103.4,121.6,103.4,121.5,103.3,121.4z"/>
	<path class="st2" d="M140,140.6c-1.6,0.2-3,0.4-4.6,0.7c-0.3-2-0.6-3.9-0.9-5.8c-0.8-6-3.9-10.5-9.1-13.5c-0.2-0.1-0.3-0.2-0.6-0.4
		c0.7-1.4,1.3-2.7,2-4.1C134.8,121.4,139.2,128.1,140,140.6z"/>
	<path class="st2" d="M18.8,2.9c1.5,0,3,0,4.6,0c0,1.5,0,3,0,4.6c-1.5,0-3,0-4.6,0C18.8,6,18.8,4.5,18.8,2.9z"/>
	<path class="st2" d="M137.8,2.9c1.5,0,3,0,4.6,0c0,1.5,0,3,0,4.6c-1.5,0-3,0-4.6,0C137.8,6,137.8,4.5,137.8,2.9z"/>
	<path class="st2" d="M13.9,29c-1.5,0-3,0-4.6,0c0-1.5,0-3,0-4.6c1.5,0,3,0,4.6,0C13.9,25.9,13.9,27.4,13.9,29z"/>
	<path class="st2" d="M90.2,81.4c0-1.6,0-3.1,0-4.7c2.7,0,5.4,0,8.4,0c-2-1.9-3.7-3.6-5.5-5.3c1.3-1.3,2.4-2.3,3.6-3.4
		c3.1,3.1,6.4,6.3,9.4,9.5c0.5,0.5,0.6,1.8,0.3,2.4c-0.3,0.7-1.4,1.4-2.1,1.4C99.7,81.5,95,81.4,90.2,81.4z"/>
	<path class="st2" d="M54.5,76.6c0-1.6,0-3,0-4.6c2.7-0.5,2.4-2.7,2.3-4.8c1.6,0,3.1,0,4.6,0C62.5,72.2,59.4,76.4,54.5,76.6z"/>
	<path class="st2" d="M71.1,36.3c0,1.6,0,3,0,4.5c-1.5,0-3,0-4.6,0c0-1.4,0-2.9,0-4.5C67.9,36.3,69.4,36.3,71.1,36.3z"/>
	<path class="st2" d="M42.6,43.3c0-1.5,0-3,0-4.7c1.6,0,3.1,0,4.7,0c0,1.6,0,3.1,0,4.7l0,0C45.7,43.3,44.1,43.3,42.6,43.3L42.6,43.3
		z"/>
	<path class="st2" d="M42.6,48.1c-1.5,0-3,0-4.7,0c0-1.6,0-3.1,0-4.7c1.6,0,3.1,0,4.7,0c0,0,0,0,0,0C42.5,44.9,42.5,46.5,42.6,48.1
		L42.6,48.1z"/>
	<path class="st2" d="M47.3,43.3c1.5,0,3,0,4.7,0c0,1.6,0,3.1,0,4.7c-1.6,0-3.1,0-4.7,0l0,0C47.3,46.5,47.3,44.9,47.3,43.3
		L47.3,43.3z"/>
	<path class="st2" d="M47.3,48.1c0,1.5,0,3.1,0,4.7c-1.6,0-3.1,0-4.7,0c0-1.6,0-3.1,0-4.7l0,0C44.1,48.1,45.7,48.1,47.3,48.1
		L47.3,48.1z"/>
	<path class="st2" d="M87.8,14.8c0-1.5,0-3,0-4.7c1.6,0,3.1,0,4.7,0c0,1.6,0,3.1,0,4.7l0,0C90.9,14.7,89.3,14.7,87.8,14.8L87.8,14.8
		z"/>
	<path class="st2" d="M111.7,12.4c1.6,0,3,0,4.6,0c0,1.5,0,3,0,4.6c-1.5,0-3,0-4.6,0C111.7,15.5,111.7,14,111.7,12.4z"/>
	<path class="st2" d="M87.8,19.5c-1.5,0-3,0-4.7,0c0-1.6,0-3.1,0-4.7c1.6,0,3.1,0,4.7,0l0,0C87.7,16.3,87.7,17.9,87.8,19.5
		L87.8,19.5z"/>
	<path class="st2" d="M92.5,14.8c1.5,0,3,0,4.7,0c0,1.6,0,3.1,0,4.7c-1.6,0-3.1,0-4.7,0l0,0C92.5,17.9,92.5,16.3,92.5,14.8
		L92.5,14.8z"/>
	<path class="st2" d="M92.5,19.5c0,1.5,0,3.1,0,4.7c-1.6,0-3.1,0-4.7,0c0-1.6,0-3.1,0-4.7c0,0,0,0,0,0
		C89.3,19.5,90.9,19.5,92.5,19.5L92.5,19.5z"/>
</g>
</svg>
