<svg width="150" height="150" viewBox="0 0 150 150" fill="none" xmlns="http://www.w3.org/2000/svg">
<path d="M48.6001 1.39998C49.8001 1.99998 51.0001 2.49998 52.0001 3.39998C53.5001 4.69998 54.1001 6.39998 54.1001 8.39998C54.1001 10.8 54.1001 13.3 54.1001 15.7C54.1001 16.2 54.1001 16.7 54.1001 17.4C56.0001 17.4 57.8001 17.4 59.6001 17.4C64.3001 17.4 67.0001 20.2 67.0001 24.8C67.0001 28.9 67.0001 33 67.0001 37.2C67.8001 37.2 68.4001 37.2 69.1001 37.2C69.4001 35.6 69.7001 33.9 70.1001 32.3C73.0001 21.1 83.3001 13.2 94.8001 13.1C99.8001 13.1 104.8 13.1 109.7 13.1C113.6 13.1 116.4 15.7 116.5 19.6C116.6 23.4 116.6 27.2 116.5 31C116.4 35 113.7 37.6 109.7 37.6C105.1 37.6 100.5 37.6 95.9001 37.6C95.0001 37.6 94.0001 37.6 93.7001 38.7C93.3001 40.1 93.7001 41.4 94.7001 42C96.2001 43 97.6001 44.7 99.3001 45C100.9 45.3 102.8 44.3 104.6 44C105.4 43.8 106.3 43.8 107.2 43.8C112.4 43.8 117.5 43.8 122.7 43.8C126.4 43.8 129.2 46.5 129.3 50.2C129.4 54.1 129.4 58 129.3 61.8C129.2 65.5 126.4 68.1 122.7 68.2C119 68.3 115.2 68.2 111.5 68.2C111 68.2 110.5 68.2 109.9 68.2C109.9 72.8 109.9 77.2 109.9 81.4C112.5 81.4 115 81.3 117.5 81.4C129.1 82.2 139.5 91.8 141.2 103.4C142.5 112.7 139.8 120.7 133 127.2C132.5 127.7 132 128.1 131.5 128.5C130.5 129.2 129.5 129 128.7 128.1C127.9 127.2 128 126.2 128.8 125.2C129.1 124.9 129.4 124.7 129.7 124.4C134.1 120.6 136.6 115.8 137.3 109.9C134.9 109.7 132.5 109.3 130.7 111.5C130.1 112.2 129.4 112.7 128.6 113.3C127 114.5 125.3 113.9 124.9 112C124.4 109.6 124.1 107.1 123.4 104.6C123.2 105.2 123.1 105.8 122.9 106.4C121.7 112 120.4 117.5 119.2 123.1C118.9 124.3 118.5 125.3 117.1 125.4C115.6 125.5 115.1 124.4 114.7 123.2C114 120.6 113.3 117.9 112.6 115.3C112.5 115 112.4 114.7 112.2 114.2C111.3 117 110.5 119.5 109.8 122C109.4 123.2 108.9 124.1 107.4 124C106 123.9 105.5 123 105.3 121.7C104.6 116.6 103.8 111.6 103 106.5C102.9 106.1 102.8 105.7 102.7 104.9C102.1 106.2 101.7 107.2 101.3 108.2C100.8 109.4 100 109.9 98.8001 109.9C97.0001 109.9 95.2001 109.9 93.0001 109.9C93.5001 111.9 93.9001 113.8 94.6001 115.6C98.7001 126.3 110.1 132.1 121.2 129C121.5 128.9 121.8 128.8 122.2 128.7C123.4 128.5 124.4 129 124.8 130.2C125.1 131.3 124.6 132.5 123.4 132.8C121.3 133.3 119.2 133.8 117.1 134C110.6 134.5 104.8 132.7 99.4001 128.8C99.1001 129.2 98.7001 129.6 98.4001 130C87.5001 142.7 73.7001 148.9 57.0001 148.3C33.8001 147.5 13.7001 129.8 9.70006 107C9.10006 103.8 8.80006 100.4 8.80006 97.1C8.70006 73.1 8.80006 49.1 8.80006 25.1C8.80006 20.1 11.5001 17.4 16.5001 17.4C18.7001 17.4 20.8001 17.4 23.0001 17.4C25.1001 17.4 27.2001 17.4 29.4001 17.4C29.4001 15 29.4001 12.3 29.4001 9.59998C29.4001 4.59998 30.4001 2.89998 35.0001 1.09998C39.4001 1.39998 44.0001 1.39998 48.6001 1.39998ZM69.2001 41.7C68.6001 41.7 68.2001 41.7 67.8001 41.7C58.6001 41.7 49.4001 41.7 40.2001 41.7C25.2001 41.7 13.0001 53.7 12.8001 68.7C12.7001 78.6 12.7001 88.5 12.8001 98.4C13.0001 117.7 24.7001 134.4 42.7001 141.3C48.8001 143.6 55.1001 145 61.7001 144C67.9001 143 72.3001 139.4 75.1001 133.7C74.6001 133.6 74.3001 133.5 74.0001 133.4C71.5001 133.1 69.2001 132.1 67.2001 130.5C63.6001 127.7 61.7001 124 61.4001 119.6C61.3001 118.1 62.1001 117.1 63.4001 117C64.6001 116.9 65.5001 117.8 65.7001 119.3C65.8001 119.9 65.8001 120.4 65.9001 121C66.8001 125.9 71.8001 129.8 76.4001 129.2C76.9001 126.6 76.8001 124 76.1001 121.4C74.0001 113.5 66.9001 108 58.7001 107.8C58.6001 107.8 58.4001 107.8 58.3001 107.8C56.8001 107.8 55.9001 107 55.8001 105.7C55.7001 104.4 56.7001 103.5 58.2001 103.5C63.5001 103.5 68.2001 105.1 72.3001 108.3C73.2001 109 74.1001 109.9 75.0001 110.6C77.4001 107.4 77.1001 102.1 74.3001 98.7C73.9001 98.3 73.5001 97.9 73.2001 97.4C72.5001 96.4 72.6001 95.5 73.4001 94.7C74.2001 93.9 75.2001 93.8 76.1001 94.5C76.5001 94.8 76.9001 95.2 77.2001 95.6C81.6001 100.6 82.1001 107.9 78.5001 113.5C78.2001 113.9 77.9001 114.5 78.0001 114.9C79.0001 117.6 80.1001 120.3 81.1001 123C85.6001 122.2 89.4001 117 88.7001 112.5C86.7001 100.2 92.8001 88.8 104 83.7C104.8 83.3 105.1 82.9 105.1 82C105 77.5 105.1 73.1 105.1 68.6C105 63 103.4 58 100.2 53.4C98.4001 50.8 96.2001 48.5 93.3001 46.5C93.3001 47.5 93.3001 48.2 93.3001 48.9C93.3001 57.9 93.3001 66.9 93.3001 75.9C93.3001 77.6 92.4001 78.6 91.1001 78.6C89.9001 78.6 89.0001 77.7 89.0001 76.2C89.0001 63.7 89.0001 51.3 89.0001 38.8C89.0001 36.2 90.7001 34.1 93.3001 33.5C94.3001 33.3 95.4001 33.3 96.4001 33.3C98.8001 33.3 101.1 33.3 103.4 33.3C103.4 27.9 103.4 22.8 103.4 17.5C100.2 17.5 97.0001 17.4 93.8001 17.5C83.7001 17.8 74.9001 25.6 73.5001 35.5C73.0001 39.3 73.2001 43.1 73.1001 47C73.1001 48.6 72.2001 49.6 70.9001 49.6C69.6001 49.6 68.8001 48.6 68.8001 47C69.2001 45.4 69.2001 43.6 69.2001 41.7ZM137 105.7C136.2 94.3 125.3 85.1 113.9 85.8C100.4 86.7 93.3001 98.2 93.3001 105.8C94.3001 105.8 95.4001 105.7 96.4001 105.8C97.3001 105.9 97.8001 105.6 98.1001 104.7C99.2001 101.9 100.4 99.2 101.5 96.5C102 95.4 102.7 94.6 104 94.8C105.2 95 105.7 95.9 105.9 97C106.4 100.3 106.8 103.5 107.3 106.8C107.5 108.4 107.8 110.1 108.1 111.7C108.9 109.9 109.4 108.2 110 106.5C110.4 105.3 110.8 104.2 112.3 104.2C113.8 104.2 114.3 105.3 114.6 106.5C115.2 109 115.9 111.4 116.7 114.2C116.9 113.4 117 113.1 117.1 112.7C118.6 105.9 120.1 99.2 121.6 92.4C121.9 91.2 122.5 90.4 123.8 90.4C125.2 90.4 125.8 91.3 126 92.6C126.2 93.8 126.4 95.1 126.6 96.3C127.2 100.1 127.8 103.8 128.5 108C130.7 104.7 134 106.1 137 105.7ZM33.6001 15.1C33.6001 22.7 33.6001 30.3 33.6001 37.9C36.4001 37.7 39.2001 37.5 42.1001 37.2C42.1001 36.7 42.1001 36.1 42.1001 35.5C42.1001 31.7 42.0001 27.8 42.2001 24C42.3001 20.3 45.0001 17.7 48.7001 17.4C49.1001 17.4 49.4001 17.3 49.9001 17.2C49.9001 16.6 49.9001 16.2 49.9001 15.7C49.9001 15.4 49.8001 15.2 49.8001 15C44.3001 15.1 39.1001 15.1 33.6001 15.1ZM12.9001 52.8C18.0001 45.6 20.2001 43.8 28.5001 39.6C28.8001 39.5 29.2001 39.1 29.2001 38.8C29.3001 36.2 29.2001 33.7 29.2001 31.3C23.7001 31.3 18.3001 31.3 12.9001 31.3C12.9001 38.3 12.9001 45.4 12.9001 52.8ZM102.8 48.6C102.8 48.8 102.8 48.9 102.7 49.1C106.1 53.3 108.3 58.1 109.3 63.4C109.4 63.7 109.9 64.1 110.2 64.1C112.3 64.2 114.5 64.1 116.6 64.1C116.6 58.8 116.6 53.6 116.6 48.6C112 48.6 107.4 48.6 102.8 48.6ZM75.7001 141.1C83.9001 138.1 90.6001 133.1 95.8001 126.3C94.3001 124.3 93.0001 122.4 91.5001 120.4C89.2001 124.1 86.0001 126.5 81.7001 127.5C81.4001 127.6 81.1001 128.1 81.0001 128.5C80.7001 129.8 80.5001 131.1 80.2001 132.4C79.4001 135.6 77.7001 138.4 75.7001 141.1ZM62.6001 31C57.2001 31 51.8001 31 46.4001 31C46.4001 33.1 46.4001 35.1 46.4001 37.2C51.8001 37.2 57.2001 37.2 62.6001 37.2C62.6001 35 62.6001 32.9 62.6001 31ZM41.5001 10.9C43.3001 10.9 45.1001 10.9 46.9001 10.9C48.6001 10.9 49.7001 9.79998 49.7001 8.29998C49.7001 6.79998 48.6001 5.69998 46.9001 5.69998C43.4001 5.69998 39.8001 5.69998 36.3001 5.69998C34.6001 5.69998 33.5001 6.69998 33.5001 8.29998C33.5001 9.79998 34.6001 10.8 36.3001 10.9C38.1001 10.9 39.8001 10.9 41.5001 10.9ZM21.1001 22.1C19.3001 22.1 17.5001 22.1 15.7001 22.1C14.0001 22.1 13.0001 23.1 13.0001 24.6C13.0001 26.1 14.0001 27.2 15.7001 27.2C19.3001 27.3 23.0001 27.2 26.6001 27.2C28.2001 27.2 29.3001 26.1 29.3001 24.7C29.3001 23.2 28.2001 22.2 26.5001 22.1C24.6001 22 22.8001 22.1 21.1001 22.1ZM54.6001 21.7C52.8001 21.7 51.0001 21.7 49.2001 21.7C47.5001 21.7 46.5001 22.7 46.5001 24.2C46.5001 25.7 47.5001 26.8 49.2001 26.8C52.8001 26.9 56.5001 26.9 60.1001 26.8C61.9001 26.8 62.9001 25.7 62.8001 24.1C62.7001 22.6 61.7001 21.7 60.0001 21.7C58.1001 21.7 56.4001 21.7 54.6001 21.7ZM125 56.2C125 54.4 125 52.7 125 50.9C125 49.2 124.1 48.3 122.8 48.3C121.5 48.3 120.7 49.3 120.7 50.9C120.7 54.4 120.7 58 120.7 61.5C120.7 63.1 121.5 64 122.7 64.1C124 64.2 124.9 63.1 124.9 61.5C125 59.7 125 57.9 125 56.2ZM108 25.3C108 27.2 108 29 108 30.9C108 32.4 108.8 33.3 110.1 33.3C111.4 33.3 112.3 32.5 112.3 31C112.3 27.3 112.3 23.5 112.3 19.8C112.3 18.4 111.3 17.5 110.1 17.5C108.9 17.6 108.1 18.5 108.1 19.8C108 21.7 108 23.5 108 25.3Z" fill="#005BAB"/>
<path d="M34.5 82.3C30 83 26.5 87.1 26.2 91.9C26.1 93.2 25.7 94.2 24.4 94.5C23 94.8 21.9 93.7 21.9 92C21.9 85.3 27.2 79.1 33.9 77.9C35 77.7 35.4 77.3 35.8 76.3C36.8 74 38 71.8 39.2 69.3C36.7 67.6 33.7 67.1999 30.6 68.1999C29.1 68.6999 27.8 69.6 26.5 70.5C25.2 71.4 24.1 71.5999 23.2 70.5999C22.3 69.5999 22.4 68.3999 23.6 67.1999C28.2 62.8999 35.9 61.6 42.2 66C45.1 64.5 48 63 51 61.4C51 58.2 47.6 54.2999 43.6 53.2999C42.8 53.0999 41.9 53 41 53C39.5 52.8 38.7 52 38.7 50.7C38.7 49.4 39.6 48.7 41.1 48.7C47.5 48.7 53.5 53.3999 55.1 59.7999C55.2 60.1999 55.3 60.5 55.4 61C60.3 60.8 64.8 61.8999 69.2 64.5999C69.2 62.0999 69.2 59.9 69.2 57.7C69.2 57 69.2 56.4 69.2 55.7C69.3 54.6 70 53.9999 71.1 53.7999C72.2 53.6999 73 54.2 73.3 55.2C73.4 55.6 73.5 56.0999 73.5 56.5999C73.5 62.8999 73.5 69.1999 73.5 75.5999C73.5 76.3999 73.3 77.3 72.7 77.8C72.2 78.2 71.1 78.3999 70.5 78.1999C69.9 77.9999 69.3 77.1 69.2 76.4C69 74.6 69.2 72.8999 69.1 71.0999C69.1 70.6999 69 70.1 68.7 69.8C64 65.5 56.4 64.2 51.4 66.3C52.3 68.8 53.5 71.0999 54 73.6999C54.9 78.2999 53.4 82.4 50.3 85.9C49.2 87.1 48 87.3 47 86.4C45.9 85.5 46 84.3 47.1 83C50.9 78.4 50.9 72.5 46.9 68.5C46.6 68.7 46.3 68.8 46 69C37.6 75.2 36.2 87.5 43.1 95.5C43.5 96 44 96.4 44.3 96.9C44.9 97.8 44.8 98.8 44 99.5C43.2 100.3 42.2 100.4 41.3 99.6999C40.6 99.0999 40 98.3999 39.4 97.6999C35.8 93.3999 34.1 88.2 34.5 82.3Z" fill="#005BAB"/>
<path d="M114.7 130.7C127.237 130.7 137.4 120.537 137.4 108C137.4 95.4631 127.237 85.2999 114.7 85.2999C102.163 85.2999 92 95.4631 92 108C92 120.537 102.163 130.7 114.7 130.7Z" fill="white"/>
<path d="M115.9 104.9C117.6 105.9 119.3 106.8 120.9 107.8C122.2 108.5 122.2 109.5 121 110.3C117 113 112.9 115.7 108.9 118.5C108.1 119.1 107.3 119 106.9 118.4C106.5 117.7 106.6 117 107.5 116.5C109.3 115.3 111.2 114 113 112.8C114.7 111.6 116.4 110.5 118.2 109.3C116.5 108.3 115 107.4 113.4 106.5C112.3 105.9 112.2 105 113.1 104.1C116.7 100.8 120.3 97.5 123.9 94.2C124.4 93.8 124.8 93.5 125.5 93.8C126.4 94.2 126.5 95.2 125.7 96C123.9 97.7 122 99.4 120.2 101.1C118.8 102.2 117.4 103.5 115.9 104.9Z" fill="#005BAB"/>
<path d="M105.7 104.2C104.2 104.2 102.9 104.2 101.6 104.2C100.3 104.2 99.7001 103.4 100.2 102.2C101.6 98.4 103 94.6 104.5 90.8C104.8 90.1 105.3 89.7 105.9 89.8C106.5 89.9 106.9 90.3 106.9 90.9C106.9 91.2 106.8 91.4 106.7 91.7C105.6 94.7 104.4 97.8 103.3 100.8C103.2 101 103.1 101.3 103 101.6C104.6 101.6 106 101.6 107.5 101.6C108.9 101.6 109.4 102.5 108.8 103.7C106.7 107.5 104.5 111.3 102.3 115C101.9 115.7 101.2 115.9 100.5 115.5C99.8001 115.1 99.7001 114.4 100.2 113.6C101.8 110.8 103.4 108 105 105.1C105.3 104.9 105.5 104.6 105.7 104.2Z" fill="#005BAB"/>
<path d="M122.6 117.7C123.4 118.8 124.1 119.8 124.8 120.7C125.2 121.2 125.4 121.7 125.1 122.3C124.8 122.9 124.3 123 123.7 123.1C119.5 123.5 115.3 124 111.1 124.4C110.6 124.4 110 124.3 109.7 124C109.4 123.8 109.3 123.1 109.5 122.8C109.7 122.4 110.2 122 110.7 122C113.6 121.6 116.5 121.4 119.4 121C120.1 120.9 120.8 120.8 121.7 120.7C121 119.7 120.3 118.8 119.7 117.9C118.8 116.6 119.1 115.7 120.7 115.4C124.4 114.7 128.2 114 131.9 113.3C132.2 113.2 132.6 113.2 132.9 113.3C133.5 113.4 133.8 113.9 133.8 114.5C133.8 115.2 133.4 115.6 132.7 115.7C131.4 116 130.2 116.2 128.9 116.4C126.8 116.9 124.8 117.3 122.6 117.7Z" fill="#005BAB"/>
</svg>
