<?xml version="1.0" encoding="utf-8"?>
<!-- Generator: Adobe Illustrator 24.3.0, SVG Export Plug-In . SVG Version: 6.00 Build 0)  -->
<svg version="1.1" id="Layer_1" xmlns="http://www.w3.org/2000/svg" xmlns:xlink="http://www.w3.org/1999/xlink" x="0px" y="0px"
	 viewBox="0 0 150 150" style="enable-background:new 0 0 150 150;" xml:space="preserve">
<style type="text/css">
	.st0{fill:#005BAB;}
</style>
<g>
	<path class="st0" d="M5.3,94.1c5.6,0,10.9,0,16.3,0C10,83.7,14,69,21.9,63c8.9-6.7,22.3-5.3,29.1,5.6c0.3-0.3,0.6-0.5,0.9-0.8
		c11.8-11.1,25.6-15.4,41.6-13c3.5,0.5,6.2,2.3,7.9,5.4c0.6,1.1,1.2,1.3,2.4,1.3c8,0,16.1,0,24.1,0c12.1,0,20.8,8.7,20.8,20.8
		c0,21.3,0,42.5,0,63.8c0,0.5,0,1-0.1,1.4c-0.2,1.1-0.9,1.9-2,1.6c-0.7-0.2-1.4-0.9-1.9-1.6c-0.3-0.3-0.1-1-0.1-1.6
		c0-6.8,0-13.6,0-20.4c0-0.6,0-1.2,0-1.8c-46.5,0-92.8,0-139.4,0c0,0.6,0,1.2,0,1.7c0,6.8,0,13.6,0,20.4c0,0.5,0,1-0.1,1.4
		c-0.2,1.1-0.8,1.9-2,1.8c-1.2,0-1.8-0.8-1.9-1.9c0-0.4,0-0.9,0-1.3c0-33.3,0-66.6,0-99.9c0-0.3,0-0.6,0-1c0-1.3,0.5-2.2,1.9-2.3
		c1.3-0.1,2,0.7,2.1,2.2c0,0.5,0,1,0,1.4c0,15.1,0,30.1,0,45.2C5.3,92.6,5.3,93.3,5.3,94.1z M5.4,98.3c0,7.2,0,14.3,0,21.3
		c46.5,0,92.8,0,139.1,0c0-7.2,0-14.2,0-21.3C98.1,98.3,51.8,98.3,5.4,98.3z M86.8,70.2c-5,0.3-9.7,0.9-14,3
		c-1.1,0.5-1.6,1.2-1.6,2.6c0.1,4.5,0,9,0,13.6c0,1.6,0,3.2,0,4.8c24.6,0,49,0,73.5,0c0-2,0-3.9,0-5.8c0-3.1,0.2-6.2-0.3-9.2
		c-1.2-8-7.8-13.4-16.2-13.4c-7.9-0.1-15.9,0-23.8,0c-0.5,0-0.9,0.1-1.5,0.1c0,4.4,0,8.6,0,12.9c0,2-0.4,3.9-1.7,5.5
		c-2.1,2.8-5.7,3.9-9,2.9c-3.3-1-5.6-4-5.6-7.5C86.7,76.5,86.8,73.5,86.8,70.2z M67.1,94.1c0-6.6,0.1-13,0-19.4
		c0-1.9,0.6-3.2,2.2-4.1c0.6-0.4,1.2-0.7,1.8-1c5.4-2.7,11.1-3.3,17-3.5c2.1,0,2.7,0.6,2.7,2.6c0,3.4,0,6.8,0,10.2
		c0,2.7,1.7,4.5,4.1,4.5c2.4,0,4.1-1.8,4.1-4.5c0-4.3,0-8.5,0-12.8c0-3.9-2.4-6.8-6.2-7.3c-15.2-2.2-28.2,2.3-39.1,13.1
		c-0.7,0.7-0.8,1.3-0.6,2.3c1.6,7.2-0.4,13.3-5.5,18.5c-0.4,0.4-0.8,0.9-1.3,1.4C53.2,94.1,60,94.1,67.1,94.1z M35.6,93.9
		c0-0.3,0.1-0.4,0.1-0.6c0-9.7,0-19.4,0-29.2c0-1.3-0.7-1.3-1.6-1.3c-6.1,0.2-10.9,2.8-13.8,8.2c-2.9,5.4-2.6,11,0.8,16.1
		C24.3,92.1,30.6,95,35.6,93.9z M39.8,92.9c5.8-1.8,10.2-8.5,9.8-15.1c-0.4-6.3-5-12.7-9.8-13.5C39.8,73.8,39.8,83.3,39.8,92.9z"/>
	<path class="st0" d="M131,16.9c4.4,0,8.6,0,12.8,0c3.1,0,3.4,0.3,3.4,3.4c0,4.3,0,8.5,0,12.8c0,2.2-0.6,2.8-2.7,2.8
		c-4.4,0-8.8,0-13.5,0c0,1,0,2,0,2.9c0,3.6,0,7.1,0,10.7c0,2-0.7,2.7-2.7,2.7c-4.5,0-8.9,0-13.4,0c-2.1,0-2.8-0.7-2.8-2.8
		c0-4.4,0-8.8,0-13.5c-0.6,0-1.2,0-1.8,0c-3.9,0-7.9,0-11.8,0c-1.9,0-2.6-0.7-2.6-2.6c0-4.6,0-9.1,0-13.7c0-2,0.7-2.6,2.7-2.6
		c3.8,0,7.7,0,11.5,0c0.6,0,1.2,0,1.9,0c0-0.7,0.1-1.2,0.1-1.8c0-3.9,0-7.9,0-11.8c0-1.9,0.7-2.6,2.6-2.6c4.6,0,9.1,0,13.7,0
		c1.9,0,2.6,0.6,2.6,2.6c0,3.9,0,7.8,0,11.6C131,15.4,131,16,131,16.9z M143.1,20.8c-0.7,0-1.3,0-1.9,0c-3.6,0-7.2,0-10.8,0
		c-3.1,0-3.4-0.3-3.4-3.3c0-3.6,0-7.2,0-10.8c0-0.6,0-1.2,0-1.9c-3.7,0-7.2,0-10.8,0c0,0.6-0.1,1-0.1,1.5c0,4,0,8,0,12
		c0,1.9-0.7,2.6-2.6,2.6c-1.5,0-3,0-4.5,0c-3,0-6,0-9.1,0c0,3.7,0,7.2,0,10.9c0.7,0,1.3,0,1.8,0c3.8,0,7.7,0,11.5,0
		c2.1,0,2.8,0.7,2.8,2.7c0,2.2,0,4.5,0,6.7c0,2.2,0,4.4,0,6.6c3.7,0,7.2,0,10.9,0c0-4.6,0-9,0-13.5c0-1.9,0.7-2.6,2.6-2.6
		c3.9,0,7.9,0,11.8,0c0.6,0,1.1-0.1,1.7-0.1C143.1,28,143.1,24.6,143.1,20.8z"/>
</g>
</svg>
