<svg width="150" height="150" viewBox="0 0 150 150" fill="none" xmlns="http://www.w3.org/2000/svg">
<path d="M24.3 134.9C25 134 25.6 133.3 26.5 132.2C25.4 131.1 24.1 129.9 22.8 128.7C18.8 124.7 14.8 120.7 10.8 116.7C9.4 115.4 8.8 113.9 9.3 111.9C9.5 111.4 9.2 110.7 9 110.1C7.8 107.1 7.7 104 8.6 100.9C8.9 100 9.2 98.9 10.4 99.4C10.8 99.6 11.1 100.9 10.9 101.5C10.2 104.1 10.2 106.7 11.4 109.4C14.2 108.3 16.1 109.8 17.8 111.7C18.9 112.9 20 114 21.2 115.1C23.1 117 23.6 117 26.1 115.2C24.1 113.2 22.1 111.2 20 109.2C19.5 108.7 19 108.2 18.6 107.7C17 105.9 17.1 103.4 18.7 101.8C20.3 100.2 22.9 100.2 24.6 101.8C26.8 103.9 28.9 106.2 31.1 108.5C32.5 105.6 32.4 104.8 30.4 102.9C29.5 102 28.6 101.1 27.7 100.2C25.4 97.9 25.2 96.6 26.6 93.7C26.2 93.4 25.7 93.3 25.4 92.9C25.1 92.4 24.7 91.7 24.9 91.3C25.1 91 26 90.6 26.4 90.8C29.9 92.4 33.5 93.5 36.2 96.7C39.7 100.9 43.9 104.5 47.7 108.4C48.1 108.8 48.5 109.2 48.9 109.6C49.7 108.8 50.4 108.1 51.4 107.1C50.8 106.6 50.1 106.1 49.5 105.6C44.9 101.1 40.3 96.5 35.8 91.9C35 91.1 34.5 89.9 33.9 88.9C33.7 88.5 33.5 88.1 33.1 87.9C26.4 84 22 78.4 20.2 71.3C16.1 70.5 12.3 69.8 8.4 69.1C8 69 7.5 69 7.3 68.7C6.9 68.3 6.6 67.7 6.2 67.2C6.8 66.9 7.5 66.3 8 66.4C10 66.8 11.8 67.5 13.8 67.8C15.6 68.1 17.5 68.2 19.3 68.3C19.7 66 20 64 20.5 62C20.8 60.8 21.4 59.6 22 58.6C23.8 55.9 26.9 55.3 29.7 57C32.1 58.5 32.8 61.3 31.4 64.1C30.2 66.6 28.1 68.1 25.6 69.2C24.7 69.6 23.7 69.9 22.5 70.3C24.2 77.2 28.2 82.1 34.3 85.7C34.7 85.4 35.1 85.1 35.5 84.8C37 83.7 39.1 83.7 40.6 84.9C41.3 85.5 41.9 86.1 42.6 86.8C45.2 89.4 45.2 89.4 49.2 88.8C48.7 88.3 48.4 87.9 48 87.5C46.5 86 44.9 84.5 43.4 82.9C41.7 81 41.7 78.6 43.4 76.9C45.1 75.2 47.5 75.2 49.4 77C51.3 78.8 53.2 80.8 55.1 82.7C55.5 83.1 55.9 83.5 56.3 83.9C57.8 81.4 57.7 80.6 55.7 78.7C54.7 77.7 53.6 76.6 52.6 75.6C50.2 73.1 49.9 72 51.3 68.9C48.4 67.1 42.4 67.6 39.9 69.9C39.5 70.3 39.3 71 38.9 71.5C38.5 71.9 38 72.1 37.5 72.4C37.2 71.9 36.5 71.1 36.7 70.8C37.5 69.5 38.2 68 39.4 67.3C43.8 64.7 48.4 64.7 53 66.8C53.8 67.1 54.6 67.2 55.4 67.6C56.4 68.1 57.4 68.5 58.1 69.3C62.9 74 67.6 78.8 72.4 83.6C72.8 84 73.3 84.4 73.8 84.9C74.6 84.1 75.3 83.4 76.1 82.5C73.7 80.2 71.3 77.8 69 75.4C66 72.4 63 69.5 60.1 66.4C58.6 64.9 58.4 63.1 59.3 61.4C60.2 59.8 61.9 58.9 63.8 59.4C64.6 59.6 65.4 60 66 60.6C66.9 61.4 67.8 62.2 68.5 63.1C70.3 65.5 72.8 65.5 75.8 65.6C73.4 63.3 71.4 61.2 69.3 59.1C66.7 56.5 66.6 55.8 68.1 52.4C68.2 52.1 68.2 51.6 68 51.3C66.3 47.1 66.9 43.2 69.9 39.8C73 36.3 77.1 35.3 81.6 36.3C83.1 36.6 84.1 36.8 85.2 35.4C86.6 33.6 89.3 33.9 91.1 35.7C95 39.6 98.9 43.5 102.8 47.4C104.2 48.8 105.5 50.2 106.9 51.6C107.7 50.7 108.4 49.9 109.2 49C104.1 44 98.9 38.7 93.7 33.6C92.6 32.5 91.8 31.3 92 29.7C92.2 28 93.1 26.8 94.7 26.2C96.4 25.6 98 25.9 99.3 27.2C102 29.9 104.7 32.6 107.4 35.3C110 37.9 112.6 40.6 115.3 43.3C116.1 42.5 116.8 41.7 117.5 40.9C117.6 40.8 117.8 40.7 117.9 40.5C117.3 40.1 116.6 39.7 116.1 39.2C111.3 34.4 106.5 29.6 101.7 24.8C100.2 23.3 99.9 21.4 100.8 19.8C101.6 18.2 103.3 17.2 105 17.6C106.1 17.9 107.2 18.5 108 19.3C112.8 24 117.5 28.7 122.2 33.4C122.6 33.8 123 34.4 123.5 35C124.3 34 125 33.2 125.8 32.3C125.6 32 125.2 31.6 124.7 31.2C119.9 26.4 115.2 21.7 110.4 16.9C109.6 16.1 108.9 15 108.6 13.9C108.2 12.2 109.2 10.5 110.8 9.7C112.4 8.9 114.4 9.2 115.8 10.6C119.4 14.2 123 17.8 126.6 21.4C128.3 23.1 130 24.9 131.8 26.7C132.6 25.8 133.3 25.1 134.1 24.2C133.8 23.9 133.4 23.4 133 23C128.1 18.1 123.2 13.2 118.4 8.3C117.1 7 116.6 5.6 117.2 3.8C117.7 2.2 118.9 1 120.5 1C121.7 1 123.3 1.4 124.2 2.2C131.6 9.4 138.8 16.6 146 24C149.6 27.7 149.4 33.1 145.8 36.9C142.8 40 139.7 43 136.6 46.1C103.5 79.2 70.4 112.3 37.3 145.4C32.4 150.3 27.4 150.4 22.5 145.6C15.5 138.8 8.7 131.8 1.8 124.9C-0.100003 123 -0.100003 120.5 1.5 118.8C3.2 117.1 5.8 117.1 7.8 119C12.7 123.8 17.5 128.7 22.3 133.5C23.3 133.9 23.7 134.3 24.3 134.9ZM29.9 115.7C32.3 118.1 34.7 120.5 37.1 122.8C38 123.7 38.1 124.5 37.1 125.4C36.1 126.3 35.2 127.3 34.2 128.3C32.7 129.8 32.4 129.8 30.9 128.3C25.8 123.2 20.6 118.1 15.5 112.9C15.1 112.5 14.8 112 14.4 111.9C13.6 111.8 12.6 111.8 12.1 112.2C11.7 112.5 11.8 113.6 12 114.3C12.1 114.7 12.7 115.1 13 115.4C18.1 120.5 23.3 125.7 28.4 130.8C29.9 132.3 29.9 132.6 28.4 134.1C27.6 135 26.7 135.8 25.9 136.6C24.4 138 24.1 138 22.7 136.6C17.4 131.3 12.1 126 6.8 120.7C5.9 119.8 4.9 119.2 3.8 120.3C2.7 121.4 3.3 122.3 4.2 123.2C11.2 130.2 18.2 137.2 25.3 144.2C26.1 145 27.2 145.7 28.3 146.1C31.4 147.1 33.8 145.8 35.9 143.6C69.2 110.2 102.5 76.9 135.9 43.6C138.7 40.8 141.6 38 144.4 35.1C147.3 32.1 147.4 28.2 144.4 25.2C137.4 18.1 130.4 11.1 123.3 4.1C122.4 3.2 121.4 2.6 120.3 3.6C119.2 4.6 119.8 5.7 120.7 6.5C120.9 6.7 121.2 7 121.4 7.2C126.4 12.2 131.4 17.2 136.4 22.2C138 23.8 138 24 136.5 25.6C135.7 26.5 134.8 27.3 134 28.1C132.5 29.5 132.2 29.5 130.8 28.1C125.7 23 120.5 17.8 115.4 12.7C115 12.3 114.7 11.8 114.3 11.7C113.6 11.6 112.5 11.4 112 11.8C111.6 12.2 111.7 13.3 111.8 14C111.9 14.4 112.5 14.8 112.8 15.1C118 20.3 123.1 25.5 128.3 30.6C129.4 31.7 129.5 32.6 128.3 33.6C127.4 34.4 126.5 35.4 125.6 36.3C124.1 37.8 123.8 37.8 122.3 36.3C117.2 31.2 112.1 26 106.9 20.9C106.5 20.5 106.1 19.9 105.6 19.8C105 19.6 104 19.6 103.6 20C103.2 20.5 103.1 21.4 103.2 22.1C103.2 22.5 103.8 22.9 104.2 23.2C109.4 28.5 114.7 33.7 119.9 38.9C120.9 39.9 121 40.8 119.9 41.8C118.9 42.7 118 43.7 117.1 44.6C115.6 46.1 115.3 46.1 113.8 44.6C108.6 39.4 103.4 34.2 98.2 29C97.3 28.1 96.4 27.3 95.1 28.3C94.1 29.1 94.4 30.2 95.7 31.5C96 31.8 96.3 32.1 96.5 32.3C101.5 37.3 106.4 42.3 111.4 47.2C112.6 48.4 112.6 49.2 111.4 50.3C110.5 51.1 109.7 52 108.8 52.8C107.2 54.4 107 54.4 105.4 52.8C100.3 47.7 95.2 42.6 90.1 37.5C89.8 37.2 89.5 36.6 89.1 36.6C88.3 36.5 87.3 36.2 86.7 36.6C85.8 37.1 85.9 38.2 86.6 39C86.9 39.4 87.3 39.7 87.7 40.1C92.8 45.2 97.9 50.4 103.1 55.5C104.2 56.6 104.3 57.4 103.1 58.5C102.1 59.4 101.1 60.4 100.2 61.4C99.1 62.6 98.2 62.5 97.2 61.3C96.4 60.4 95.5 59.6 94.6 58.7C93.8 59.7 93.2 60.6 92.4 61.8C93.3 62.6 94.2 63.4 95.1 64.2C96 65 95.9 65.8 95.1 66.5C94 67.6 92.8 68.7 91.7 69.9C90.8 70.9 90 70.8 89.1 69.8C88.2 68.8 87.2 67.8 86.2 66.9C85.8 66.6 85.2 66.3 84.8 66.4C83.8 66.5 82.9 66.9 81.5 67.3C83.3 69.1 84.9 70.7 86.5 72.2C87.7 73.3 87.6 74.2 86.5 75.2C85.6 76 84.7 77 83.8 77.8C82.2 79.3 82 79.4 80.5 77.8C75.4 72.7 70.3 67.6 65.2 62.5C64.8 62.1 64.5 61.5 64.1 61.5C63.3 61.4 62.3 61.2 61.7 61.6C61.3 61.9 61.5 63.1 61.6 63.8C61.7 64.2 62.3 64.6 62.6 64.9C67.7 70 72.8 75.2 78 80.3C79.1 81.4 79.3 82.3 78 83.4C77.1 84.2 76.3 85.1 75.4 85.9C73.8 87.5 73.5 87.5 71.9 85.9C66.9 80.9 61.8 75.8 56.8 70.8C56.5 70.5 56.2 70.1 55.8 69.8C55 69 54.1 68.8 53.2 69.7C52.4 70.5 52.5 71.4 53.2 72.3C53.5 72.6 53.8 73 54.2 73.3C59.3 78.4 64.4 83.6 69.6 88.7C70.7 89.8 70.8 90.6 69.7 91.7C68.7 92.6 67.8 93.6 66.9 94.5C65.5 95.9 65.2 95.9 63.7 94.5C61.3 92.1 59 89.8 56.6 87.4C55.6 88.2 54.7 88.8 53.7 89.5C56.3 92.1 58.8 94.6 61.3 97.1C62.5 98.3 62.5 99.1 61.3 100.2C60.4 101 59.6 101.9 58.7 102.7C57.1 104.3 56.9 104.3 55.3 102.7C50.8 98.2 45.7 93.1 40.6 88C40.2 87.6 39.9 87.1 39.5 87C38.8 86.9 37.7 86.7 37.2 87.1C36.8 87.5 36.9 88.6 37 89.3C37.1 89.7 37.7 90.1 38 90.4C43.2 95.6 48.3 100.8 53.5 105.9C54.6 107 54.7 107.8 53.5 108.9C52.5 109.8 51.6 110.8 50.7 111.7C49.3 113.1 49 113.1 47.5 111.6C42.4 106.5 37.2 101.3 32.1 96.2C31.7 95.8 31.4 95.3 31 95.2C30.3 95.1 29.2 95 28.8 95.4C28.4 95.8 28.6 96.9 28.7 97.7C28.8 98.1 29.3 98.4 29.6 98.7C34.8 103.9 39.9 109 45.1 114.2C46.5 115.6 46.5 115.9 45.1 117.4C44.3 118.2 43.6 118.9 42.8 119.7C41 121.5 40.8 121.5 39 119.7C36.7 117.4 34.4 115.1 32.1 112.8C31.3 113.9 30.7 114.8 29.9 115.7ZM81.9 54.1C80.2 52.5 78.6 51.1 77.1 49.5C75.5 47.8 75.5 45.4 77 43.8C78.5 42.1 81 42 82.9 43.5C83.5 44 84 44.5 84.5 45C87.6 48.1 90.8 51.3 94.1 54.7C94.5 52.3 94.8 50.4 93 48.8C90.4 46.3 87.6 43.8 85.4 41C84.1 39.3 82.6 38.7 80.8 38.4C79.8 38.3 78.9 38.3 77.9 38.4C72.5 39 68.8 44.6 70.6 49.5C70.8 50 71.2 50.7 71.6 50.7C74 50.7 75.3 52.5 76.8 54C78.5 55.8 79.1 55.9 81.9 54.1ZM85.4 54.3C87.4 56.3 89.3 58.2 91.3 60.2C91.9 59.3 92.6 58.3 93.3 57.2C92 56 90.9 55 89.8 53.9C87 51.1 84.2 48.3 81.4 45.6C80.6 44.8 79.6 44.5 78.7 45.5C77.9 46.3 78.1 47.3 78.9 48.1C80.3 49.6 81.7 51.2 83.2 52.7C83.2 52.5 83.3 52.2 83.3 52C84.2 51.6 85.6 50.7 86 51C87.6 52.1 85.7 53.1 85.4 54.3ZM83.8 64.6C80.3 61.1 76.8 57.6 73.4 54.2C72.5 53.3 71.5 52.7 70.5 53.7C69.4 54.8 70 55.8 71 56.8C73.3 59 75.7 61.2 77.7 63.6C79.5 65.8 81.4 65.6 83.8 64.6ZM22.4 67.9C25.4 67 27.9 66 29.4 63.3C30.4 61.5 30.1 60 28.6 59.2C26.9 58.3 25.2 58.7 24.2 60.3C22.9 62.6 22.4 65.1 22.4 67.9ZM28.2 114C29 112.9 29.7 112 30.4 111.1C27.9 108.6 25.6 106.3 23.2 104C22.4 103.2 21.4 102.9 20.5 103.9C19.7 104.7 19.9 105.7 20.6 106.5C23 108.8 25.5 111.3 28.2 114ZM57.5 101.1C58.2 100.5 59 99.8 59.9 99C57.8 96.9 55.6 95.1 53.8 92.9C52 90.7 50.1 91.1 48.1 91.6C51.3 94.9 54.5 98.1 57.5 101.1ZM55.4 86.1C53 83.7 50.6 81.4 48.3 79C47.4 78.1 46.5 77.7 45.5 78.7C44.5 79.7 44.9 80.7 45.8 81.5C47.6 83.3 49.4 85 51.1 86.9C52.1 88.1 53 88.1 54.1 87.1C54.5 86.9 54.9 86.6 55.4 86.1ZM40.6 118C41.5 117.2 42.2 116.4 42.7 116C39.9 113.2 37 110.3 34.3 107.5C34.2 108 33.8 108.6 33.7 109.3C33.6 109.9 33.7 110.8 34.1 111.2C36.2 113.6 38.5 115.8 40.6 118ZM59.9 82.8C59.6 83.6 59.2 84.4 59 85.2C58.9 85.6 58.9 86.2 59.2 86.5C61.3 88.8 63.6 91 65.5 92.9C66.5 92.1 67.3 91.5 68 90.9C65.3 88.1 62.7 85.5 59.9 82.8ZM74.8 68.1C77.3 70.6 80.1 73.4 82.8 76.1C83.4 75.6 84.1 74.9 85 74.1C83 72.2 81.2 70.4 79.4 68.6C79.1 68.3 78.5 68 78.1 68C76.8 68 75.6 68.1 74.8 68.1ZM35 124.2C32.8 122 30.7 119.9 28.6 117.9C28.4 117.7 27.8 117.6 27.5 117.7C26.7 118 25.9 118.5 25.4 118.8C27.9 121.3 30.4 123.8 32.8 126.3C33.4 125.7 34.2 125 35 124.2ZM83.4 56.2C82.5 56.7 81.5 57.2 80.7 57.6C82.7 59.6 84.6 61.6 86.7 63.6C87.5 63.1 88.4 62.6 89.2 62C87.2 60.1 85.3 58.2 83.4 56.2ZM96.9 53.2C95.8 57 95.9 57.2 98.9 59.4C99.8 58.8 100.7 58.2 101.3 57.7C99.7 56.1 98.3 54.6 96.9 53.2ZM88.6 65.4C89.4 66.3 90.2 67.1 91 67.9C91.7 67.3 92.4 66.6 93.3 65.8C92.5 65 91.8 64.4 91.1 63.7C90.2 64.4 89.4 64.9 88.6 65.4Z" fill="#005BAB"/>
</svg>
