<?xml version="1.0" encoding="utf-8"?>
<!-- Generator: Adobe Illustrator 24.3.0, SVG Export Plug-In . SVG Version: 6.00 Build 0)  -->
<svg version="1.1" id="Layer_1" xmlns="http://www.w3.org/2000/svg" xmlns:xlink="http://www.w3.org/1999/xlink" x="0px" y="0px"
	 viewBox="0 0 150 150" style="enable-background:new 0 0 150 150;" xml:space="preserve">
<style type="text/css">
	.st0{fill:#005BAB;}
</style>
<g>
	<path class="st0" d="M149.4,96.5c-0.4,1.6-0.6,3.2-1.1,4.8c-2.1,5.9-5.6,7.8-11.6,6.2c-2.7-0.7-5.3-1.6-8-2.4c-0.5,2-1,4-1.6,5.9
		c-2,6.5-4.6,12.7-9.3,17.8c-6.1,6.6-12.9,6-18.8-0.1c-2.4-2.5-2.6-5.7-0.6-8.7c1.1-1.7,2.4-3.1,3.8-4.6c2.3-2.5,4.9-4.7,7.1-7.3
		c1.6-1.9,2.7-4.2,4.1-6.6c-2.9-0.3-5.5-0.4-8-1c-2.6-0.5-5.3-1.2-7.7-2.2c-2.9-1.2-4.2-3.8-4.3-6.9c-0.2-3.9,1.1-7.5,3-10.8
		c4.3-7.9,10.3-14.1,18.6-17.9c9.3-4.3,19.5-1.7,25.8,6.4c4.8,6.1,7.5,13.1,8.5,20.7c0.1,0.5,0.2,0.9,0.3,1.4
		C149.4,93,149.4,94.8,149.4,96.5z M142.3,103c1.5-1.2,1.9-2.7,2.2-4.3c0.7-3.4,0.5-6.8,0-10.1c-1.1-6.7-3.4-12.8-8.2-17.8
		c-4.8-5-10.6-6.8-17.3-4.8c-4.6,1.3-8.4,4.1-11.8,7.4c-4.6,4.5-8.1,9.7-9.3,16.3c-0.2,1.1,0,2.2,0.1,3.4c1.5-1,2.5-1.9,3.8-2.5
		c1.2-0.6,2.5-0.1,3,1c0.5,1.2,0.2,2.2-0.9,2.9c-0.4,0.3-0.9,0.6-1.3,0.9c0,0.1,0.1,0.3,0.1,0.4c3.9,0.5,7.8,1,11.8,1.4
		c0.3,0,0.8-0.3,0.9-0.6c0.4-0.7,0.6-1.4,1-2.2c-1.7-0.2-3.2-0.4-4.8-0.6c-1.5-0.2-2.2-1.1-2.1-2.4c0.1-1.3,1.1-2.1,2.6-2
		c7.8,0.7,15.3,2.2,22.4,5.6C137.8,96.6,141,98.7,142.3,103z M120.6,95.1c-0.2,0.5-0.4,1-0.6,1.4c-1.1,2.5-2.2,5-3.2,7.5
		c-1.7,4.1-4.3,7.5-7.5,10.6c-2.5,2.4-4.8,4.9-7.1,7.5c-0.7,0.8-1,1.9-0.5,3c1.2,2.4,5.4,4.4,8.1,3.8c3-0.8,4.9-2.9,6.5-5.3
		c3.6-5.1,5.7-10.8,7.1-16.7c0.8-3.4,1.3-6.9,2-10.4C123.7,95.8,122.2,95.5,120.6,95.1z M137,103c0.1-0.1,0.1-0.2,0.2-0.3
		c-1.9-2.6-4.7-3.7-7.6-4.9c-0.1,1-0.2,1.9-0.3,2.8C132,101.4,134.5,102.2,137,103z"/>
	<path class="st0" d="M49.3,78.6c-5.8,3.9-11.2,7.6-16.7,11.2c-3.7,2.4-7.7,4.5-12.1,5.4c-4.5,0.8-8.3-0.6-11.4-3.9
		C5.2,87,3.2,82,2,76.5c-2.9-13.8-1.6-27.2,4-40.2c3.5-8,8.6-14.9,16.1-19.6c6.8-4.4,14.4-6.5,22.5-6.4c17.7,0.2,32.9,6.5,45.4,19
		c2.9,2.9,5.3,6.3,6.7,10.3c2,5.7,0.7,10.4-3.7,14.4c-4.3,3.9-9.6,6.4-14.7,9c-1.6,0.8-3.2,1.5-5,2.4c1.8,2.1,3.5,4,5.3,5.9
		c3.7,4.1,6.5,8.7,8.9,13.6c0.7,1.5,0.4,2.8-0.8,3.4c-1.2,0.6-2.5,0.1-3.1-1.3c-3.1-7-8.1-12.6-13.1-18.2c-2.8-3.1-5.7-6.3-8.5-9.4
		c-0.4-0.5-0.8-0.9-1.6-0.5c-4.2,2.4-8.4,4.8-12.7,7.2c0.3,0.6,0.5,1.1,0.7,1.5c3.3,6.4,6.8,12.8,10,19.2c4.8,9.6,5.8,19.6,3.2,30
		c-1,3.9-1.1,7.6,0.8,11.3c0.7,1.4,0.1,2.7-1.1,3.2c-1.1,0.5-2.2,0-2.9-1.3c-2.1-3.9-2.5-8.1-1.5-12.4c1.3-5.4,2.2-10.9,1.3-16.4
		c-0.4-2.6-0.9-5.3-1.9-7.7C54.1,88.4,51.7,83.6,49.3,78.6z M88,52.6c1.2-1.2,2.3-2.2,3.3-3.3c1.9-2.1,2.3-4.6,1.6-7.3
		c-0.9-3.3-2.8-6.1-5-8.6c-8.1-8.7-18.2-14-29.6-17c-7.7-2-15.4-2.5-23.1-0.5c-11.5,2.9-19.3,10.3-24.4,20.8
		c-4.4,9.2-5.9,18.9-5.5,29c0.2,5.8,1.1,11.4,3.4,16.7c1.1,2.4,2.3,4.7,4.6,6.3c3.8,2.6,7.7,1.8,11.3,0.3c-1-1.2-2.3-2.3-2.9-3.7
		c-0.9-2.1,0.1-4.1,1.4-5.8c2.3-3.2,5.4-5.7,8.6-8c9.8-7.2,20.3-13.4,31.2-18.8c4.9-2.5,10-4.7,15.4-5.9
		C83.8,45.6,86.9,47.3,88,52.6z M43.8,68.5c-5.7,3.7-11.4,7.3-16.1,12.2c-0.7,0.7-1.2,1.5-1.7,2.3c-0.2,0.3-0.1,1,0.1,1.2
		c1,1,5,1.1,6.2,0.3c4.6-3.1,9.2-6.2,13.8-9.4c0.3-0.2,0.5-0.4,0.8-0.7C45.9,72.5,44.9,70.6,43.8,68.5z M70.2,62
		c3.9-2,7.8-3.9,11.6-5.8c1-0.5,1.9-3.2,1.5-4.3c-0.6-1.4-1.9-1-2.9-0.9c-5.4,0.6-10.2,3.1-15.2,5.4C66.9,58.3,68.5,60,70.2,62z"/>
	<path class="st0" d="M88.3,111.3c0.2-5.1-0.3-10.2-1.6-15.1c-0.1-0.4-0.2-0.8-0.2-1.1c-0.2-1.3,0.4-2.2,1.7-2.5
		c1.1-0.3,2.2,0.3,2.6,1.6c0.5,1.9,1,3.8,1.2,5.7c1.3,9,1.3,18-1.4,26.8c-1.3,4.2-3.3,7.9-7.1,10.3c-5.8,3.6-11.8,3.7-17.8,0.6
		c-1.2-0.6-1.6-1.9-1.1-3c0.5-1.1,1.8-1.6,3.1-1c2.6,1.3,5.2,1.9,8.1,1.5c4.7-0.6,7.7-3.3,9.6-7.5c1.6-3.4,2.3-7,2.6-10.7
		C88.2,115.1,88.3,113.2,88.3,111.3z"/>
	<path class="st0" d="M125.1,69.7c-0.4,0.8-0.7,1.5-1,2c-1.4,2.1-2.9,4.2-4.3,6.3c-0.7,1.1-1.8,1.6-2.8,1.1
		c-1.1-0.5-1.7-1.7-1.2-2.9c1.2-3,3.1-5.6,5.4-7.8c0.5-0.5,1.6-0.6,2.3-0.4C124.1,68.2,124.5,69.1,125.1,69.7z"/>
	<path class="st0" d="M133.4,79c0,0.4,0.1,0.9,0,1.3c-0.2,1.2-0.9,1.9-2.2,2c-1.1,0-2-0.9-2.2-2.1c-0.4-2.5-0.8-5-1.3-7.5
		c-0.4-1.8,0.1-2.9,1.4-3.3c1.4-0.4,2.4,0.3,2.9,2.1c0.6,2.5,1.2,5,1.7,7.4C133.6,78.9,133.5,78.9,133.4,79z"/>
	<path class="st0" d="M9.1,54.2c1.2-4.4,2.4-8.8,3.6-13.1c0.5-1.9,1.2-3.8,1.9-5.6c0.6-1.6,1.8-2.2,3-1.8c1.2,0.5,1.7,1.7,1.2,3.3
		c-1.4,4.5-2.9,9-4.2,13.6c-0.4,1.3-0.5,2.7-0.7,4c-0.2,2.1-0.9,3-2.4,3c-1.5-0.1-2.1-1.1-2-3.2C9.4,54.3,9.2,54.2,9.1,54.2z"/>
	<path class="st0" d="M37.6,24c5.8,0.6,11.8,2.5,16.7,7.2c1.2,1.2,1.3,2.4,0.3,3.4c-0.9,0.9-2.1,0.9-3.1-0.1
		c-4.1-4.1-9.2-5.7-14.8-6.1c-1.9-0.2-3-1.1-3-2.4C33.7,24.6,34.7,23.9,37.6,24z"/>
	<path class="st0" d="M45.4,16.5c5.5,0.4,10.8,1.4,15.5,4.3c1.1,0.7,2,1.5,2.9,2.3c1,0.9,1,2.3,0.1,3.1c-0.9,0.9-2,1-3,0.1
		c-4.2-3.8-9.3-4.9-14.7-5.4c-0.4,0-0.9-0.1-1.3-0.2c-1.5-0.3-2.3-1.2-2.1-2.4C43,17.2,44,16.4,45.4,16.5z"/>
	<path class="st0" d="M28.9,36.7c-0.2,3.7-0.1,7.3,1.2,10.9c0.5,1.5,0,2.7-1.2,3.1c-1.3,0.5-2.4-0.2-3-1.8
		c-1.6-4.4-1.6-8.9-1.4-13.5c0.1-1.1,0.1-2.1,0.2-3.2c0.1-1.5,1.1-2.5,2.3-2.4c1.3,0.1,2.1,1.1,2.1,2.6C29.1,33.9,29,35.3,28.9,36.7
		z"/>
</g>
</svg>
