<?xml version="1.0" encoding="utf-8"?>
<!-- Generator: Adobe Illustrator 24.3.0, SVG Export Plug-In . SVG Version: 6.00 Build 0)  -->
<svg version="1.1" id="Layer_1" xmlns="http://www.w3.org/2000/svg" xmlns:xlink="http://www.w3.org/1999/xlink" x="0px" y="0px"
	 viewBox="0 0 150 150" style="enable-background:new 0 0 150 150;" xml:space="preserve">
<style type="text/css">
	.st0{fill:#005BAB;}
</style>
<g>
	<path class="st0" d="M60.1,149.5c-1.2-0.8-1.5-1.8-1.5-3.2c0.3-9.9,2.9-19.2,7.1-28.1c2.9-6.3,6.6-12.2,10.9-17.6
		c0.3-0.4,0.6-0.9,0.6-1.4c0.1-2.3,0-4.6,0-7.2c-2.5,0.6-4.9,1.2-7.2,1.8c-4.7,1.1-8.6-0.1-11.7-3.8c-0.8-0.9-1.3-2-1.7-3.2
		c-0.7-1.7-0.3-2.6,1.3-3.5c1.6-0.8,3.2-1.6,4.8-2.3c-0.6-1.9-1.4-2.6-3.2-2.7c-1,0-2,0-3,0.2c-1.4,0.2-2.3-0.3-2.8-1.6
		c-0.2-0.4-0.4-0.8-0.4-1.2c-0.2-2.9-1.9-4.7-4.5-5.9c-1.1-0.5-2.1-1.2-3.1-1.9c-1.6-1-1.9-2.4-0.7-3.9c2-2.7,4.1-5.3,6.1-7.9
		c0.4-0.5,0.7-1.3,0.7-2c0.1-4.1,0-8.1,0-12.2c0-0.5-0.2-1.2-0.5-1.5c-5.6-4.4-8.3-10.5-9.9-17.2c-1.1-4.4-1.4-8.8-1.2-13.3
		c0.1-1.3,0.4-2.3,1.7-2.7c1.3-0.4,2.2,0.3,2.9,1.4c1.2,1.9,3.2,2.6,5.4,2.7c4.4,0.4,8.7-0.5,12.9-1.7c3.9-1,7.8-2.2,11.7-3.4
		c1.5-0.4,2.6,0.1,3.1,1.4c0.5,1.2,0,2.5-1.4,2.9c-7.5,2.2-14.9,4.9-22.9,5.4c-2.9,0.2-5.7,0-8.7-1.4c0.3,2.3,0.5,4.3,0.8,6.3
		c0.7,4.1,2,8.1,4.5,11.6c3.5,4.9,8.4,7.4,14.4,7.5c7,0.1,14,0,21,0.1c0.4,0,0.9,0,1.3,0c1.4,0.1,2.3,1.1,2.2,2.4
		c0,1.3-0.9,2.2-2.2,2.2c-8.3-0.1-16.7-0.1-25-0.3c-1.8,0-3.5-0.7-5.3-1.1c0,3.9,0.1,7.8,0,11.6c0,1.1-0.5,2.3-1.1,3.2
		c-1.6,2.3-3.5,4.5-5.3,6.9c1.3,0.8,2.5,1.7,3.7,2.3c1.8,0.9,2.9,2.2,3.2,4.2c0.2,1.5,0.9,2.1,2.6,2.1c3.5-0.1,6,1.6,7.4,4.9
		c0.1,0.3,0.2,0.5,0.4,0.8c1.5,3.4,1.2,4.1-2.2,5.7c-1,0.5-2.1,1-3.1,1.5c1,2.2,3.7,3.5,6.3,2.9c3.1-0.7,6.2-1.5,9.3-2.3
		c0.6-0.1,1.1-0.3,1.7-0.4c1.6-0.2,2.8,0.7,2.8,2.3c0,3.8,0.1,7.7,0,11.5c0,0.7-0.5,1.4-0.9,2.1c-1.1,1.5-2.3,3-3.4,4.5
		c0.1,0.1,0.1,0.3,0.2,0.4c3.3-0.7,6.6-1.2,9.9-2c7.4-1.9,14.4-4.7,21.3-8c0.8-0.4,1-0.9,1-1.7c0-2.2-0.1-4.4,0-6.5
		c0-1-0.3-1.5-1.2-2c-4.1-1.9-7.6-4.6-10.4-8.3c-1.2-1.5-0.6-3.3,1.1-3.8c1.2-0.4,2,0.2,2.7,1.2c2.1,2.7,4.7,4.9,7.8,6.4
		c0.5,0.2,1,0.4,1.7,0.8c2.7-4.2,5.5-8.2,8-12.5c5.1-8.8,8.9-18.1,10.5-28.2c1.1-6.7,1.3-13.3-1.1-19.8c-0.7-1.9-1.7-3.7-2.9-5.3
		c-1.6-2.3-4-3.6-6.9-3.9c-0.8-0.1-1.9-0.6-2.3-1.2c-3.8-7.3-10.4-7.8-17.4-7.2c-1.9,0.2-3.8,0.5-5.8,0.7c-1.5,0.2-2.4-0.6-2.6-1.9
		c-0.2-1.4,0.4-2.4,1.9-2.6c5.7-1.1,11.3-1.7,17-0.2c4.2,1.1,7.5,3.3,9.8,7c0.3,0.4,0.8,0.9,1.3,1c4.9,1.1,8.3,4.1,10.6,8.3
		c2.6,4.7,3.5,9.8,3.7,15.1c0.3,10-2.2,19.5-5.9,28.7c-3.6,8.8-8.5,16.9-14.2,24.5c-0.5,0.7-0.8,1.6-0.8,2.5
		c-0.1,2.9-0.6,5.9,0.1,8.5c0.7,2.6,2.8,4.8,4.3,7.1c8.5,13,12,27.4,11.7,42.8c0,0.9-0.9,1.8-1.4,2.7c-0.6,0-1.2,0-1.7,0
		c-0.5-0.9-1.2-1.8-1.4-2.8c-0.3-1.4-0.2-2.9-0.3-4.3c-0.2-3.5-0.3-7-0.8-10.4c-1.6-10.6-6.2-20-12.3-28.7c-0.4-0.6-0.9-1.2-1.3-1.8
		c-1.5,0.7-2.9,1.4-4.3,2c-9.5,4.3-19.3,7.7-29.9,8.6c-2.3,0.2-3.6,1-4.8,3c-5.4,10-9.1,20.4-9.2,31.9c0,1.2-0.6,2-1.5,2.6
		C61.3,149.5,60.7,149.5,60.1,149.5z"/>
	<path class="st0" d="M22.8,149.5c-1.2-0.8-1.6-1.9-1.5-3.4c0.6-8.8-0.7-17.5-3-26c-1.5-5.4-2.6-10.8-3.8-16.3
		c-0.1-0.6-0.1-1.4,0.1-2c2.1-5.8,4.2-11.5,6.4-17.3c1-2.7,1.9-3.1,4.7-2.3c3.8,1,6.4,4.8,5.6,8.7c-0.7,3.6-1.7,7.1-2.5,10.6
		c-0.2,0.8-0.1,1.7,0.1,2.5c0.9,3,1.9,5.9,2.9,8.8c0.3,1,0.8,1.8,2,1.6c1.3-0.2,1.5-1.1,1.5-2.3c0-1.6-0.1-3.3,0-4.9
		c0.1-3.7,3.1-6.6,6.8-6.7c3.7-0.1,6.9,2.6,7.1,6.3c0.4,6.7,0,13.3-2.8,19.5c-1,2.3-2.4,4.4-3.5,6.7c-0.3,0.6-0.5,1.3-0.5,1.9
		c0.3,3.9,0.6,7.8,0.9,11.7c0.1,1.4-0.5,2.2-1.7,2.8c-0.5,0-1,0-1.5,0c-1-0.6-1.5-1.5-1.6-2.7c-0.3-4.2-0.7-8.4-0.9-12.6
		c-0.1-1,0.4-2,0.8-2.9c1.1-2.1,2.4-4.1,3.4-6.2c2.6-5.6,2.8-11.5,2.6-17.5c0-1.3-1-2.2-2.3-2.2c-1.3,0-2.3,0.8-2.3,2.2
		c-0.1,1.6,0,3.3,0,4.9c0,3.6-2,6.1-5.4,6.7c-3.2,0.6-6-1.2-7.1-4.6c-1.2-3.4-2.3-6.8-3.4-10.2c-0.3-0.8-0.3-1.8-0.1-2.7
		c0.8-3.7,1.8-7.3,2.7-11c0.4-1.5-0.1-2.6-1.4-3.6c-0.2,0.3-0.3,0.5-0.4,0.8c-1.8,4.8-3.6,9.6-5.4,14.4c-0.2,0.6-0.2,1.3,0,2
		c1.1,4.8,2.2,9.5,3.3,14.3c1.7,7.5,4.1,14.9,3.3,22.7c-0.2,1.6-0.1,3.2,0,4.8c0.1,1.4-0.3,2.6-1.5,3.4
		C24,149.5,23.4,149.5,22.8,149.5z"/>
	<path class="st0" d="M113.7,149.5c-1.2-0.8-1.5-1.8-1.5-3.2c0.1-6,0.1-12,0-18c-0.1-5.1-3.5-9.5-8.5-10.9c-4.9-1.4-10,0.5-12.9,4.8
		c-1.3,2-1.9,4.2-1.9,6.6c0,5.9,0,11.7,0,17.6c0,1.4-0.3,2.5-1.5,3.2c-0.6,0-1.2,0-1.7,0c-1.2-0.8-1.5-1.8-1.5-3.2
		c0.1-6,0-11.9,0-17.9c0.1-9.2,7.7-16.4,16.9-16.1c8.3,0.2,15.4,7.1,15.7,15.4c0.2,6.4,0.1,12.9,0,19.3c0,0.8-0.9,1.7-1.4,2.5
		C114.8,149.5,114.3,149.5,113.7,149.5z"/>
	<path class="st0" d="M107.6,56.2c-0.1,2.9-0.6,5.7-2,8.2c-2.1,3.7-5.3,5.4-9.4,5.5c-1.5,0-2.4-0.8-2.5-2.1
		c-0.1-1.3,0.7-2.4,1.9-2.4c4.8,0,6.9-3.5,7.3-7.8c0.2-2.1,0.1-4.2-0.9-6.1c-0.8-1.5-2-2.3-3.3-2.2c-1.3,0.1-2.2,1.2-2.6,3
		c-0.1,0.5-0.1,1.1-0.2,1.6c-0.2,1.3-1.1,2.1-2.4,2.1c-1.3,0-2.2-0.8-2.3-2.2c-0.3-4,2.1-7.8,5.6-8.9c3.6-1,7.5,0.7,9.2,4.6
		c0.9,2.1,1.2,4.4,1.8,6.6C107.8,56.1,107.7,56.2,107.6,56.2z"/>
	<path class="st0" d="M42.1,93.8c-0.5-0.4-1.4-0.8-1.7-1.4c-0.3-0.6-0.3-1.8,0.1-2.3c1.7-1.9,3.5-3.7,5.4-5.4
		c0.9-0.8,1.9-0.4,2.7,0.4c0.7,0.8,1.1,1.8,0.4,2.6c-1.8,2-3.7,3.8-5.6,5.6C43.2,93.5,42.7,93.6,42.1,93.8z"/>
	<path class="st0" d="M42.4,79.6c-0.8,0-1.6,0.1-2.5,0c-1.3-0.1-2.2-1-2.2-2.2c0-1.3,0.9-2.3,2.2-2.4c1.6-0.1,3.3-0.1,4.9,0
		c1.3,0.1,2.1,1,2.1,2.3c0,1.3-0.8,2.2-2.1,2.3C44,79.7,43.2,79.6,42.4,79.6z"/>
	<path class="st0" d="M56.3,96c0,0.8,0,1.6,0,2.5c-0.1,1.3-1,2.2-2.3,2.2c-1.3,0-2.3-0.9-2.3-2.2c-0.1-1.6-0.1-3.2,0-4.8
		c0.1-1.4,1-2.3,2.3-2.2c1.3,0,2.2,0.9,2.3,2.3C56.4,94.4,56.3,95.2,56.3,96C56.3,96,56.3,96,56.3,96z"/>
	<path class="st0" d="M86.6,5.1c0,1.3-1,2.3-2.3,2.3c-1.4,0-2.4-1-2.4-2.4c0-1.3,1-2.3,2.3-2.2C85.6,2.9,86.6,3.8,86.6,5.1z"/>
</g>
</svg>
