<?xml version="1.0" encoding="utf-8"?>
<!-- Generator: Adobe Illustrator 24.3.0, SVG Export Plug-In . SVG Version: 6.00 Build 0)  -->
<svg version="1.1" id="Layer_1" xmlns="http://www.w3.org/2000/svg" xmlns:xlink="http://www.w3.org/1999/xlink" x="0px" y="0px"
	 viewBox="0 0 150 150" style="enable-background:new 0 0 150 150;" xml:space="preserve">
<style type="text/css">
	.st0{fill:#005BAB;}
</style>
<g>
	<path class="st0" d="M44.3,149.9c-3.2-1.8-5.1-4.7-6.9-7.7c-3.5-6.1-5-12.8-5.7-19.8c-0.6-5.9-0.3-11.8,0.3-17.7
		c0.1-0.6,0.1-1.2-0.1-1.7c-2.2-7.1-2.5-14.4-1.3-21.7c0-0.2,0.1-0.4,0.1-0.9c-0.8,0.6-1.4,1-2,1.4c-9.4,7.1-15.5,16.5-19.6,27.3
		c-0.2,0.6-0.4,1.2-0.7,1.8c-1,2.2-3.4,3.2-5.6,2.4c-2.2-0.8-3.4-3.2-2.6-5.5C6.5,90.8,16.5,77,33.3,69c0.4-0.2,0.7-0.5,0.9-0.8
		c0.2-0.2,0.2-0.4,0.3-0.7c0.6-1.4,1.2-2.9,1.8-4.4c-4.9,0.4-9.5,1.4-14,3c-5.4,2-10.2,4.8-14.3,8.8C5.8,76.9,3.1,77,1.3,75
		c-1.8-1.9-1.5-4.5,0.6-6.6c7.2-7,16-11,25.7-13c4.2-0.8,8.5-1,12.7-1.5c0.5-0.1,1.1-0.3,1.3-0.6c1.2-1.5,2.3-3.2,3.4-4.7
		c-1.8-1.2-3.7-2.3-5.4-3.7c-6.6-5.2-9.8-12.1-10.3-20.3c-0.2-3.3,0.2-6.7,0.5-10c0.3-2.7,2.5-4.4,4.9-4c2.6,0.4,4.1,2.7,3.7,5.5
		c-0.7,4.3-0.9,8.6,0.4,12.9c1.8,6.2,6,10.1,11.9,12.4c0.4,0.2,1.1,0,1.5-0.3c1.5-1,2.9-2.1,4.3-3.3c0.4-0.3,0.7-1,0.8-1.5
		c0.2-2.4,0-4.9,0.3-7.3c0.4-3.3,1.9-6.2,4.1-8.7c0.7-0.7,0.8-1.2,0.3-2.1c-2-4.1-3.2-8.5-3.3-13.1c-0.1-2.8,1.8-4.8,4.4-4.8
		c2.5,0,4.3,1.9,4.4,4.6c0.1,3.5,1.1,6.8,2.5,9.7c3.2,0,6.3,0,9.6,0c1.4-2.7,2.3-6,2.5-9.4c0.1-1,0.3-2.1,0.8-3
		c0.9-1.6,3-2.2,4.7-1.7c1.9,0.6,3.2,2.2,3.2,4.2c0,4.7-1.2,9.1-3.2,13.4c-0.4,0.9-0.4,1.5,0.3,2.3c2.9,3.2,4.3,7,4.4,11.3
		c0,1.8-0.5,3.9,0.2,5.3c0.7,1.4,2.8,2.2,4,3.4c1.3,1.3,2.3,1.2,3.8,0.5c7.2-3.5,11-9.3,11.3-17.2c0.1-2.6-0.3-5.2-0.5-7.9
		c-0.3-2.5,1.1-4.6,3.5-5.1c2.3-0.5,4.6,0.9,5.1,3.3c1.4,7.5,1.2,14.8-2.2,21.8c-2.5,5.3-6.5,9.2-11.6,12c-0.3,0.2-0.7,0.4-1,0.6
		c-0.1,0-0.1,0.1-0.3,0.2c1.2,1.7,2.3,3.4,3.5,4.9c0.3,0.4,1,0.5,1.5,0.5c9.3,0.3,18.3,2.1,26.6,6.4c3.6,1.9,6.9,4.4,10.1,6.8
		c1.3,0.9,2.2,2.4,3.2,3.7c0,0.8,0,1.6,0,2.3c-2.4,4-5,4.3-8.4,1.1c-3.6-3.4-7.7-5.8-12.2-7.6c-4.9-2-10.1-3.2-15.6-3.7
		c0.3,0.8,0.7,1.4,0.9,2.1c0.7,2.6,2.3,3.9,4.7,5.2c12.3,6.4,20.8,16.5,26.8,28.8c1.4,2.9,2.6,6,3.9,8.9c0,0.8,0,1.6,0,2.3
		c-0.1,0.2-0.3,0.5-0.4,0.7c-0.9,1.6-2.3,2.6-4.1,2.5c-1.9-0.1-3.2-1.1-3.9-2.8c-0.2-0.5-0.4-1.1-0.6-1.6
		c-4.1-10.9-10.2-20.3-19.7-27.4c-0.5-0.4-1.1-0.8-1.8-1.3c1.2,8.6,1.2,14.5-1.3,22.8c-0.1,0.4-0.1,1,0,1.4
		c0.6,5.9,0.9,11.8,0.3,17.6c-0.7,7-2.3,13.8-5.8,20c-1.7,2.9-3.6,5.8-6.7,7.5c-0.8,0-1.6,0-2.3,0c-0.1-0.1-0.2-0.2-0.3-0.3
		c-3.4-1.7-3.9-4.9-1.2-7.6c0.9-1,1.8-2,2.5-3.2c2.4-3.8,3.7-8,4.5-12.4c0.4-2.5,0.6-5,0.9-7.5c-9.5,10.3-21,15.9-34.9,15.9
		c-13.9,0-25.3-5.7-34.6-16c0.2,2.5,0.3,4.9,0.8,7.3c1.1,6.1,2.9,11.9,7.6,16.4c1.5,1.5,1.6,3.9,0.3,5.5c-0.6,0.8-1.6,1.2-2.3,1.9
		C45.9,149.9,45.1,149.9,44.3,149.9z M44.7,65.7c-1,2.7-2.2,5.4-3.2,8.2C39.2,80.8,38,87.8,39.1,95c3,19.9,21,33.3,41.1,30.6
		c17.1-2.3,30.6-17.4,31-34.7c0.2-7.1-1.4-13.8-3.9-20.4c-0.7-1.7-1.4-3.3-2.1-4.8C84.9,80.1,64.9,80.1,44.7,65.7z M100.6,57.7
		c-4.6-6.6-9.9-12.3-17.4-15.5c-5.9-2.6-11.9-2.3-17.6,0.5c-6.8,3.3-11.8,8.6-16,14.8c0,0.1,0,0.2,0,0.3
		C63.8,70.9,86.2,70.9,100.6,57.7z M83.7,33c0.3-3.7-0.9-6.7-4-8.6c-3.1-2-6.3-2-9.4-0.1c-3.1,2-4.4,4.9-4.1,8.8
		C72.1,31.3,77.9,31.3,83.7,33z"/>
</g>
</svg>
