<?xml version="1.0" encoding="utf-8"?>
<!-- Generator: Adobe Illustrator 24.3.0, SVG Export Plug-In . SVG Version: 6.00 Build 0)  -->
<svg version="1.1" id="Layer_1" xmlns="http://www.w3.org/2000/svg" xmlns:xlink="http://www.w3.org/1999/xlink" x="0px" y="0px"
	 viewBox="0 0 150 150" style="enable-background:new 0 0 150 150;" xml:space="preserve">
<style type="text/css">
	.st0{fill:#005BAB;}
</style>
<g>
	<path class="st0" d="M84.9,0.3c2.6,0.7,5.3,1.1,7.9,2c11.9,4.5,19.5,15.6,19.6,28.3c0,7.9,0,15.9,0,23.8c0,4.3-2.3,6.6-6.6,6.6
		c-0.1,0-0.3,0-0.5,0.1c-0.2,1.3-0.4,2.7-0.8,4c-1.4,6.2-4.7,11.3-9.6,15.3c-0.8,0.6-1,1.2-0.8,2.2c0.8,4.1,1.5,8.3,2.2,12.5
		c0.4,2.2,2,3.3,4.6,3.7c6.1,0.9,12.2,1.7,18.3,3c3.1,0.6,6.1,1.9,9,3.3c7.9,3.9,11.9,10.6,12.1,19.3c0.2,7.6,0.1,15.2,0.1,22.8
		c0,1.8-0.9,2.7-2.7,2.7c-1.2,0-2.4,0-3.6,0c-38.7,0-77.4,0-116.1,0c-3,0-3.6-0.6-3.6-3.6c0-7.2-0.1-14.5,0.1-21.7
		c0.1-6.6,2.5-12.3,7.7-16.6c3.1-2.5,6.6-4.1,10.3-5.3c6.1-2,12.5-2.8,18.9-3.5c1.3-0.1,2.6-0.3,3.9-0.6c1.8-0.4,2.9-1.6,3.2-3.5
		c0.7-4.2,1.4-8.4,2.2-12.6c0.1-0.8,0-1.2-0.6-1.7c-5.9-4.8-9.4-11-10.3-18.6c0-0.2-0.1-0.4-0.1-0.6c0-0.1-0.1-0.2-0.1-0.2
		c-0.9-0.1-1.9-0.1-2.7-0.4c-2.5-0.7-4.2-2.8-4.2-5.3c0-8.9-0.3-17.7,0.1-26.6C43,14.4,54.4,2.3,68.8,0.5c0.3,0,0.6-0.2,1-0.3
		C74.8,0.3,79.9,0.3,84.9,0.3z M40,145c0-4.5,0-9,0-13.4c0-1.8,0.9-2.9,2.3-2.9c1.5,0,2.3,1.1,2.3,2.9c0,3.9,0,7.9,0,11.8
		c0,0.5,0,1,0,1.5c21.9,0,43.6,0,65.4,0c0-4.6,0-9.1,0-13.5c0-1.6,0.9-2.6,2.3-2.7c1.4,0,2.4,1,2.4,2.7c0,3.2,0,6.4,0,9.6
		c0,1.3,0,2.6,0,3.9c7.1,0,14,0,21,0c0-0.6,0-1.1,0-1.5c0-6.5,0.1-13-0.1-19.5c-0.2-6.5-3.3-11.4-9-14.5c-1.4-0.7-2.8-1.4-4.2-1.9
		c-6.2-2.2-12.6-3-19.1-3.9c-2.2-0.3-4.4-0.7-6.5-1.3c-0.9-0.3-1.3-0.2-2,0.3c-5,4.4-10,8.8-15,13.2c-2,1.7-2.7,1.7-4.6,0
		c-5-4.4-10.1-8.8-15.2-13.2c-0.3-0.3-1-0.7-1.3-0.5c-3,1.6-6.3,1.4-9.5,1.8c-5.9,0.9-11.7,1.6-17.3,3.8c-8.9,3.4-12.7,9-12.7,18.5
		c0,5.8,0,11.7,0,17.5c0,0.5,0,0.9,0,1.4C26.1,145,32.9,145,40,145z M68.6,22.6c-3.7,5.2-8.5,8.7-13.9,11.4c-0.4,0.2-0.6,1-0.6,1.5
		c0,7.7-0.1,15.4,0,23c0,1.7,0.2,3.5,0.6,5.2C56.9,74.7,67.1,82.4,78.5,82c11-0.4,20.9-9.1,21.8-20.1c0.7-8.8,0.3-17.8,0.3-26.7
		c0,0-0.1-0.1-0.2-0.2C88.7,34.2,78.1,29.9,68.6,22.6z M47,39.9c0.9,0,1.5,0,2.4,0c0-1.9,0.1-3.8,0-5.7C49.1,32.1,50,30.9,52,30
		c5-2.2,9.3-5.3,12.6-9.8c0.8-1.1,1.2-2.1,1.1-3.5c-0.1-2.2,0-4.5,0-6.7c0-1.6,0.9-2.6,2.3-2.7c1.4,0,2.4,1,2.4,2.7
		c0,2.2-0.1,4.5,0,6.7c0,0.7,0.4,1.5,0.9,1.9c9.1,7.2,19.4,11.4,31,11.8c2.3,0.1,3,0.8,3,3.1c0,2.1,0,4.3,0,6.4c0.8,0,1.5,0,2.3,0
		c0-3.6,0.1-7.1,0-10.6C107.2,17.2,97.5,6.6,85.5,5.3C81.2,4.8,76.8,5,72.5,5c-10.6,0-20,6.6-23.9,16.6C46.3,27.5,47.2,33.7,47,39.9
		z M77.3,111.6c5.1-4.4,10.1-8.8,15-13.1c-0.9-5-1.7-9.8-2.6-14.7c-8.3,3.8-16.4,3.8-24.7,0c-0.9,5-1.7,9.7-2.6,14.7
		C67.3,102.8,72.3,107.1,77.3,111.6z M49.3,50.5c0-1.5,0.1-2.9-0.1-4.3c-0.1-0.5-0.7-1-1-1.5c-0.4,0.5-1.2,1-1.2,1.5
		c-0.1,2.9-0.1,5.8,0,8.7c0,0.5,0.7,1,1,1.5c0.4-0.5,1.1-0.9,1.2-1.5C49.4,53.4,49.3,51.9,49.3,50.5z M105.4,50.4
		c0,1.5-0.1,2.9,0.1,4.3c0.1,0.6,0.7,1,1.1,1.6c0.4-0.5,1.1-1,1.1-1.5c0.1-2.8,0.1-5.7,0-8.6c0-0.5-0.7-1-1.1-1.6
		c-0.4,0.5-1.1,1-1.1,1.5C105.3,47.6,105.4,49,105.4,50.4z"/>
	<path class="st0" d="M12,21.5c0-0.7,0-1.4,0-2c0-2.9,1.9-5,4.8-5.1c2.2-0.1,4.4-0.1,6.6,0c3,0.1,4.9,2.2,4.9,5.2c0,0.6,0,1.3,0,1.9
		c0.9,0.3,1.7,0.5,2.5,0.9c4.4,2.1,6.8,5.7,6.8,10.5c0.1,14.8,0.1,29.7,0,44.5c0,6.5-5.1,11.5-11.6,11.6c-3.9,0-7.9,0.1-11.8,0
		C7.8,88.9,2.7,83.8,2.6,77.3c0-14.8,0-29.6,0-44.4C2.7,27.5,5.8,23.6,12,21.5z M7.3,77.2c8.7,0,17.1,0,25.7,0c0-0.5,0-0.9,0-1.3
		c0-14.2,0-28.4,0-42.6c0-4.5-2.9-7.4-7.5-7.4c-3.5,0-6.9,0-10.4,0c-5,0-7.8,2.8-7.8,7.9c0,13.9,0,27.9,0,41.8
		C7.3,76.2,7.3,76.6,7.3,77.2z M31,82.1c-7.3,0-14.4,0-21.7,0c1.4,1.5,3.1,2.2,4.9,2.2c3.9,0,7.9,0,11.8,0
		C27.9,84.3,29.5,83.6,31,82.1z M16.7,21.2c2.4,0,4.6,0,6.8,0c0-0.8,0-1.5,0-2.2c-2.3,0-4.5,0-6.8,0C16.7,19.8,16.7,20.5,16.7,21.2z
		"/>
	<path class="st0" d="M138.7,28.3c-3.5,0-6.6,0.1-9.7-0.1c-0.8,0-1.9-0.7-2.3-1.4c-0.3-0.6-0.1-1.7,0.3-2.3c0.4-0.5,1.3-0.8,2-0.8
		c5.2-0.1,10.4,0,15.6,0c1.2,0,2.1,0.4,2.6,1.5c0.5,1.2,0,2.1-0.9,2.8c-3.3,2.8-6.6,5.6-9.9,8.5c-0.4,0.3-0.7,0.6-1.3,1.2
		c1.4,0,2.4,0,3.4,0c2,0,4.1,0,6.1,0c1.7,0,2.7,1,2.7,2.4c0,1.4-1.1,2.3-2.7,2.3c-5.2,0-10.4,0-15.6,0c-1.2,0-2.1-0.4-2.5-1.5
		c-0.4-1.2,0.1-2.1,0.9-2.8c3.3-2.8,6.6-5.6,9.9-8.4C137.7,29.2,138,28.9,138.7,28.3z"/>
	<path class="st0" d="M125.1,58.7c2.1,0,3.9,0,5.6,0c1.7,0,2.7,1,2.7,2.4c0,1.4-1.1,2.3-2.7,2.3c-3.6,0-7.3,0-10.9,0
		c-1.2,0-2.1-0.4-2.6-1.5c-0.4-1.1,0-2,0.8-2.7c2.4-2.4,4.8-4.7,7.5-7.4c-1.7,0-3,0-4.3,0c-0.6,0-1.3,0-1.9,0
		c-1.3-0.1-2.2-1.1-2.2-2.3c0-1.2,0.9-2.3,2.2-2.3c4-0.1,8-0.1,11.9,0c0.7,0,1.7,0.9,2,1.5c0.2,0.7-0.1,1.9-0.6,2.5
		c-1.9,2.2-4.1,4.2-6.1,6.2C126,57.6,125.7,58,125.1,58.7z"/>
	<path class="st0" d="M114.7,72.7c-1,0-1.7,0-2.4,0c-1.4-0.1-2.3-1.1-2.3-2.4c0-1.2,0.9-2.2,2.2-2.2c2.4-0.1,4.8-0.1,7.1,0
		c2,0.1,2.9,2.1,1.7,3.8c-1.3,1.8-2.6,3.5-4.1,5.5c1,0,1.7,0,2.4,0c1.4,0.1,2.3,1.1,2.3,2.4c0,1.2-0.9,2.2-2.2,2.2
		c-2.4,0.1-4.8,0.1-7.1,0c-2-0.1-2.9-2.1-1.7-3.8C111.9,76.4,113.2,74.7,114.7,72.7z"/>
	<path class="st0" d="M59,44.6c-1.4,0-2.5-0.8-2.6-2c-0.2-1.2,0.6-2.4,1.9-2.6c4.7-0.8,9.4-1.6,14.1-2.4c1.4-0.2,2.5,0.7,2.7,1.9
		c0.2,1.2-0.5,2.4-1.8,2.6C68.4,43.1,63.6,43.9,59,44.6z"/>
	<path class="st0" d="M82.3,37.7c3.7,0.6,7.5,1.2,11.2,1.9c1,0.2,1.9,0.3,2.9,0.5c1.4,0.3,2.2,1.4,2,2.6c-0.2,1.3-1.4,2.2-2.8,2
		c-4.7-0.7-9.3-1.5-13.9-2.3c-1.3-0.2-2.1-1.3-1.9-2.5C79.8,38.5,80.9,37.6,82.3,37.7z"/>
	<path class="st0" d="M65.9,53c-2-0.5-3.8-0.8-5.5-1.4c-1.5-0.5-2.1-1.8-1.6-3.1c0.5-1.3,1.7-1.8,3.2-1.3c2.5,0.9,4.9,1,7.3,0
		c1.3-0.6,2.5,0,3,1.1c0.5,1.2,0.2,2.5-1.1,3C69.6,52.1,67.7,52.5,65.9,53z"/>
	<path class="st0" d="M89.3,53c-2-0.5-3.8-0.8-5.5-1.4c-1.5-0.5-2.1-1.8-1.6-3.1c0.5-1.3,1.7-1.8,3.2-1.3c2.5,0.9,4.9,1,7.3,0
		c1.3-0.6,2.5,0,3,1.2c0.5,1.2,0.2,2.5-1.2,3C92.9,52.1,91.1,52.5,89.3,53z"/>
	<path class="st0" d="M84.3,68.5c0,2.1-1.6,3.3-3.1,2.7c-2.6-1.1-5.1-1-7.8,0c-1.3,0.5-2.5-0.1-3-1.3c-0.5-1.2,0-2.5,1.3-3
		c3.6-1.5,7.3-1.8,11,0C83.5,67.2,84,68.1,84.3,68.5z"/>
	<path class="st0" d="M16.5,48.4c-0.7-4.9-1.3-9.5-2-14.1c-0.3-1.9,0.1-2.9,1.3-3.5c1.2-0.5,2.1-0.1,3.2,1.5c3.6,5,7.1,10,10.7,14.9
		c1.3,1.8,1.3,2.4,0,4.2c-1.7,2.3-3.4,4.5-5,6.8c-0.5,0.7-0.7,1.7-0.6,2.5c0.5,3.7,1.2,7.4,1.8,11.1c0.2,1.3,0,2.4-1.3,3
		c-1.3,0.6-2.2,0-3-1c-3.7-4.4-7.3-8.8-11-13.2c-1.2-1.4-1.2-2.2,0-3.8c1.8-2.4,3.6-4.7,5.3-7.1C16.1,49.2,16.3,48.7,16.5,48.4z
		 M20.7,42.7c-0.1,0.1-0.2,0.1-0.3,0.2c0.3,1.8,0.5,3.6,0.8,5.3c0.2,1.2,0,2.2-0.8,3.1c-1.8,2.4-3.6,4.8-5.5,7.3
		c1.6,1.9,3.1,3.7,4.6,5.6c0.1-1.2,0-2.3-0.3-3.3c-0.6-2,0-3.5,1.3-5.1c1.7-2.1,3.3-4.3,4.9-6.5C23.8,47,22.2,44.8,20.7,42.7z"/>
</g>
</svg>
