<?xml version="1.0" encoding="utf-8"?>
<!-- Generator: Adobe Illustrator 24.3.0, SVG Export Plug-In . SVG Version: 6.00 Build 0)  -->
<svg version="1.1" id="Layer_1" xmlns="http://www.w3.org/2000/svg" xmlns:xlink="http://www.w3.org/1999/xlink" x="0px" y="0px"
	 viewBox="0 0 150 150" style="enable-background:new 0 0 150 150;" xml:space="preserve">
<style type="text/css">
	.st0{fill:#005BAB;}
</style>
<g>
	<path class="st0" d="M80.5,0.3c0.5,0.2,1,0.4,1.5,0.6c3.2,1.3,5.2,4.2,5.2,7.9c0,7.8,0,15.6,0,23.3c0,0.5,0,1.1,0,1.6
		c0.1,0,0.2,0,0.2,0c0.7-2.8,1.4-5.6,2.1-8.3c1.1-4.3,2.1-8.7,3.2-13c1.2-4.6,5.3-7.3,9.6-6.4c4.7,1,7.4,5.1,6.5,9.9
		c-1.2,6.5-2.3,12.9-3.5,19.3c-0.1,0.4-0.1,0.9,0.1,1.4c1.4-2.9,2.7-5.9,4.1-8.8c1.4-3,3.8-4.6,7.1-4.8c5.6-0.3,9.8,5,8.3,10.5
		c-0.7,2.4-1.6,4.8-2.5,7.1c-0.5,1.3-1.6,1.9-2.8,1.5c-1.2-0.4-1.8-1.6-1.3-2.9c0.7-2.1,1.5-4.1,2.2-6.2c0.8-2.4,0.1-4.4-2-5.3
		c-2.1-0.9-4.1,0-5.2,2.4c-3.7,7.9-7.4,15.7-11.1,23.6c-0.2,0.4-0.3,0.7-0.5,1c-0.5,1.2-1.4,1.8-2.7,1.4c-1.3-0.4-1.7-1.4-1.5-2.6
		c0.6-3.6,1.3-7.3,1.9-10.9c1.7-9.3,3.3-18.5,5-27.8c0.4-2.2-0.9-4.1-2.9-4.5c-2.1-0.5-4,0.7-4.6,3c-2.4,9.7-4.8,19.4-7.3,29.1
		c-0.9,3.4-1.7,6.9-2.6,10.3c-0.4,1.6-1.3,2.4-2.6,2.2c-1.2-0.2-1.8-1.1-1.8-2.7c0-14.3,0-28.7,0-43c0-3.4-2.6-5.2-5.8-4.2
		c-1.5,0.5-2.5,1.7-2.6,3.3c0,0.5,0,1.1,0,1.6c0,14,0,28.1,0,42.1c0,0.3,0,0.7,0,1c0,1.7-0.7,2.6-1.9,2.8c-1.3,0.2-2.1-0.5-2.6-2.2
		c-2.2-8.5-4.3-17-6.5-25.5c-0.8-3.3-1.7-6.6-2.5-9.9c-0.6-2.4-2.5-3.7-4.6-3.2c-2.1,0.5-3.2,2.4-2.8,4.8c0.5,3,1.1,5.9,1.6,8.9
		c0.3,1.6-0.4,2.8-1.7,3C52,32,51,31.2,50.7,29.6c-0.6-3.2-1.2-6.4-1.8-9.6c-0.7-4.2,2-8.2,6.2-9.2c4.1-1,8.5,1.3,9.7,5.5
		c1.6,5.6,2.9,11.3,4.4,16.9c0.2,0.6,0.4,1.3,0.8,1.9c0-0.4,0-0.9,0-1.3c0-7.8,0.1-15.7,0-23.5c-0.1-4.6,1.3-8.3,6.8-10
		C78,0.3,79.3,0.3,80.5,0.3z"/>
	<path class="st0" d="M63.6,121.5c0.9-2.7-0.8-4.8-3.1-6.9c-4.9-4.4-9.7-8.9-14.2-13.7c-3-3.2-5.9-6.7-8.2-10.4
		c-4.4-7-8.4-14.2-12.4-21.4c-3-5.3,0.2-11.6,6.2-12.4c3-0.4,5.4,0.8,7.4,3c4.3,4.7,8.5,9.5,12.8,14.2c1.2,1.4,1.7,1.3,2.4-0.4
		c0,0,0-0.1,0.1-0.1c0.8-2.8,3-5.2,2.6-8.3c-0.4-2.9-1-5.7-1.5-8.6c-1-5.5-2-11-3-16.5c0-0.2-0.1-0.5-0.1-0.7
		c-0.1-1.4,0.5-2.4,1.7-2.6c1.2-0.2,2.3,0.5,2.6,1.9c0.5,2.6,1,5.2,1.4,7.7c1.1,6.2,2.3,12.4,3.4,18.6c0.2,1.2,0,2.5-0.4,3.7
		c-0.8,2.4-1.9,4.7-2.8,7c-1.7,4.1-6.2,4.9-9.2,1.6c-4.3-4.8-8.7-9.6-13-14.4c-1-1.1-2.1-1.9-3.7-1.7c-2.6,0.2-4.3,2.9-3.3,5.3
		c0.2,0.6,0.6,1.1,0.9,1.7c3.5,6.1,7.1,12.3,10.6,18.4c2.7,4.8,6.1,9,10,12.8c5,4.8,10,9.7,15.1,14.4c1.5,1.4,2.3,3,2.2,5.1
		c-0.1,2.3,0,4.6,0,6.9c0,1.6-0.9,2.6-2.2,2.6c-1.3,0-2.2-1-2.2-2.6C63.6,124.5,63.6,123.3,63.6,121.5z"/>
	<path class="st0" d="M101.2,131.3c0-4.6,0.1-9.1,0-13.7c0-2.1,0.4-4,1.5-5.8c2-3.3,3.8-6.7,4.2-10.6c0.4-3.7,0.6-7.4,0.9-11
		c0.6-8.3,1.2-16.7,1.8-25c0-0.5,0.1-1.1,0.3-1.6c1.8-5.1,3.6-10.1,5.4-15.2c0.5-1.3,1.6-1.8,2.8-1.4c1.3,0.4,1.8,1.6,1.3,3.1
		c-1.2,3.3-2.3,6.7-3.6,10c-1.2,3.1-1.9,6.3-2.1,9.6c-0.6,9.8-1.5,19.6-2.1,29.4c-0.3,5.3-2,10.2-4.8,14.6c-0.8,1.3-1.1,2.7-1.1,4.3
		c0.1,9.4,0,18.8,0,28.3c0,0.5,0,1,0,1.5c-0.2,1.3-1.1,2.1-2.3,2c-1.2,0-2-0.9-2.1-2.2c0-0.4,0-0.9,0-1.3
		C101.2,141.2,101.2,136.2,101.2,131.3z"/>
	<path class="st0" d="M99.9,89c0,4.3-3.5,7.7-7.8,7.7c-4.2,0-7.7-3.5-7.7-7.7c0-4.2,3.5-7.8,7.8-7.8C96.4,81.2,99.9,84.7,99.9,89z
		 M95.5,88.9c0-1.8-1.5-3.3-3.3-3.3c-1.8,0-3.3,1.5-3.4,3.3c0,1.9,1.5,3.4,3.4,3.4C94.1,92.3,95.5,90.8,95.5,88.9z"/>
	<path class="st0" d="M82.6,72.5c0,3.5-2.7,6.3-6.2,6.3c-3.5,0-6.3-2.8-6.3-6.3c0-3.4,2.8-6.2,6.2-6.3C79.7,66.2,82.6,69,82.6,72.5z
		 M78.2,72.6c-0.1-1.2-0.7-1.9-1.8-1.9c-1.1,0-1.8,0.7-1.9,1.8c-0.1,1,0.8,2,1.9,1.9C77.6,74.4,78.1,73.7,78.2,72.6z"/>
	<path class="st0" d="M85.2,138.3c-3.5,0-6.2-2.8-6.2-6.4c0-3.4,2.8-6.2,6.2-6.2c3.4,0,6.3,2.9,6.3,6.3
		C91.6,135.6,88.7,138.4,85.2,138.3z M85.4,134c1.1-0.1,1.8-0.8,1.8-1.9c0-1.1-0.7-1.8-1.9-1.8c-1-0.1-1.9,0.9-1.8,2
		C83.6,133.4,84.3,133.9,85.4,134z"/>
	<path class="st0" d="M75,97.2c3.5,0,6.3,2.8,6.3,6.3c0,3.5-2.9,6.3-6.3,6.2c-3.4,0-6.2-2.8-6.2-6.2C68.7,100,71.5,97.2,75,97.2z
		 M76.8,103.5c0-1.1-0.8-2-1.8-1.9c-1.1,0-1.8,0.7-1.9,1.8c-0.1,1.1,0.8,2,1.9,1.9C76.2,105.2,76.8,104.6,76.8,103.5z"/>
	<path class="st0" d="M89,69.5c0-3.5,2.7-6.3,6.2-6.3c3.5,0,6.3,2.8,6.3,6.3c0,3.4-2.8,6.2-6.2,6.3C91.9,75.8,89,73,89,69.5z
		 M97.1,69.5c-0.2-1.1-0.7-1.8-1.9-1.8c-1.1,0-1.8,0.6-1.9,1.7c-0.1,1.1,0.8,2,1.9,1.9C96.4,71.3,97,70.6,97.1,69.5z"/>
	<path class="st0" d="M68,141.4c0,1.9,0,3.9,0,5.8c0,1.5-0.9,2.4-2.1,2.5c-1.3,0-2.2-0.9-2.2-2.5c0-3.8,0-7.6,0-11.4
		c0-1.6,0.9-2.5,2.2-2.5c1.3,0,2.2,0.9,2.2,2.5C68,137.7,68,139.5,68,141.4z"/>
	<path class="st0" d="M71.3,88.2c-0.4,0-0.8,0-1.2,0c-1.2-0.1-1.9-0.8-2-2c-0.1-1.2,0.6-2.1,1.8-2.3c0.8-0.1,1.6-0.1,2.5-0.1
		c1.3,0.1,2.1,1,2,2.2c0,1.2-0.8,2-2.1,2.1C72,88.2,71.6,88.2,71.3,88.2C71.3,88.2,71.3,88.2,71.3,88.2z"/>
	<path class="st0" d="M76.8,122.2c-1.9,0-2.9-0.7-2.9-2.1c-0.1-1.4,0.9-2.3,2.5-2.3c2.1-0.1,3.3,0.7,3.3,2.2
		C79.6,121.4,78.6,122.2,76.8,122.2z"/>
	<path class="st0" d="M58,95.1c-1.7,0-2.7-0.8-2.7-2.1c0-1.1,0.8-2.1,2-2.3c2-0.3,3.3,0.4,3.6,1.8C61.3,94.1,60.1,95.2,58,95.1z"/>
	<path class="st0" d="M90.4,111.6c1.7,0,2.7,0.8,2.7,2.2c0,1.4-1,2.2-2.7,2.2c-1.7,0-2.6-0.8-2.6-2.2
		C87.8,112.4,88.7,111.6,90.4,111.6z"/>
</g>
</svg>
