<?xml version="1.0" encoding="utf-8"?>
<!-- Generator: Adobe Illustrator 24.3.0, SVG Export Plug-In . SVG Version: 6.00 Build 0)  -->
<svg version="1.1" id="Layer_1" xmlns="http://www.w3.org/2000/svg" xmlns:xlink="http://www.w3.org/1999/xlink" x="0px" y="0px"
	 viewBox="0 0 150 150" style="enable-background:new 0 0 150 150;" xml:space="preserve">
<style type="text/css">
	.st0{fill:#005BAB;}
</style>
<g>
	<path class="st0" d="M120.5,56.7c0,2.3,0,4.6,0,7.1c-1.6,0-3.2,0-4.9,0c0-2.4,0-4.8,0-7.1c-3-0.9-5.9-1.7-8.9-2.6
		c-1.2,1.9-2.5,4-3.7,6.1c-0.2,0.3-0.2,0.9,0,1.2c1.3,3.2,2.6,6.3,3.9,9.5c0.2,0.4,0.7,0.9,1.1,1c3.5,0.9,7,1.6,10.4,2.5
		c1.5,0.4,2.5-0.3,3.6-1.1c4.6-3.5,11.1-2.3,14.2,2.6c3,4.9,1.3,11.4-3.9,13.9c-3.6,1.8-7.2,1.5-10.4-1c-1.3-1-2.5-1.3-4.1-0.9
		c-3.2,0.9-6.4,1.6-9.7,2.3c-0.9,0.2-1.1,0.6-1.4,1.3c-1.2,3-2.5,5.9-3.6,8.9c-0.2,0.6-0.2,1.4,0.1,1.9c1.8,3,3.6,5.9,5.4,8.9
		c0.7,1.1,1.6,1.6,2.9,1.8c5.3,0.5,9.2,4.9,9,10.1c-0.2,5.2-4.4,9.3-9.6,9.5c-5.2,0.2-9.4-3.7-10-9.1c-0.1-0.9-0.8-2-1.6-2.6
		c-3-2-6-3.9-9.1-5.7c-0.4-0.3-1.2-0.2-1.8,0c-3,1.2-6,2.4-8.9,3.7c-0.5,0.2-1.2,0.8-1.3,1.3c-0.9,3.3-1.6,6.7-2.5,10
		c-0.4,1.5,0,2.6,0.9,3.8c2.4,3.1,2.8,6.7,1.1,10.2c-1.7,3.6-4.7,5.5-8.7,5.5c-4,0-7-1.8-8.8-5.3c-1.8-3.5-1.5-7.1,0.9-10.2
		c1.1-1.5,1.4-2.8,0.9-4.5c-0.8-3.1-1.6-6.2-2.2-9.4c-0.2-0.8-0.6-1.1-1.3-1.4c-3-1.2-5.9-2.5-8.9-3.6c-0.6-0.2-1.4-0.2-1.9,0.1
		c-3,1.8-5.9,3.6-8.9,5.4c-1.1,0.7-1.6,1.5-1.8,2.8c-0.5,5.2-4.8,9.1-9.9,9c-5.2-0.1-9.4-4.3-9.6-9.5c-0.2-5.1,3.7-9.6,8.9-10.1
		c1.2-0.1,2.1-0.6,2.8-1.6c1.9-3.1,3.8-6.1,5.6-9.2c0.3-0.4,0.2-1.2,0-1.8c-1.2-3-2.4-5.9-3.6-8.9c-0.3-0.7-0.6-1.2-1.4-1.3
		c-3.3-0.7-6.6-1.5-9.8-2.3c-1.5-0.4-2.7,0-3.9,0.9c-3.1,2.4-6.7,2.8-10.2,1.1c-3.6-1.7-5.5-4.8-5.5-8.7c0-4,1.8-7,5.4-8.8
		c3.6-1.8,7.1-1.5,10.2,0.9c1.5,1.1,2.8,1.3,4.5,0.9c3.1-0.8,6.1-1.5,9.2-2.2c0.9-0.2,1.2-0.6,1.5-1.4c1.1-3,2.4-5.9,3.6-8.9
		c0.2-0.5,0.2-1.3,0-1.8c-1.8-3.1-3.7-6.2-5.7-9.1c-0.5-0.8-1.6-1.4-2.6-1.6c-5.3-0.7-9.3-4.9-9.1-10c0.2-5.2,4.3-9.4,9.5-9.6
		c5.1-0.2,9.5,3.7,10,9c0.1,1.3,0.7,2.2,1.8,2.8c3,1.8,5.9,3.7,8.9,5.4c0.5,0.3,1.2,0.3,1.8,0.1c3-1.2,6.1-2.4,9-3.7
		c0.5-0.2,1.1-0.8,1.2-1.3c0.9-3.4,1.6-6.8,2.5-10.1c0.4-1.5-0.1-2.6-1-3.8c-2.7-3.5-2.7-8.2-0.2-11.7c2.6-3.5,7.1-4.9,11.2-3.5
		c4.1,1.5,6.8,5.4,6.5,9.7c-0.1,2.2-0.8,4.1-2.3,5.7c-0.9,1-1.1,2.1-0.8,3.4c0.9,3.4,1.6,6.8,2.5,10.1c0.1,0.5,0.7,1.1,1.2,1.3
		c3,1.3,6.1,2.6,9.2,3.8c0.4,0.2,1,0.3,1.4,0.1c2.1-1.2,4.2-2.5,6.3-3.8c-0.5-1.5-1.1-2.8-1.5-4.2c-0.4-1.4-0.7-2.9-1-4.5
		c-2.3,0-4.8,0-7.3,0c0-1.7,0-3.2,0-4.9c2.4,0,4.8,0,7.3,0c0.6-4.9,2.3-9.2,5.5-13.1c-1.8-1.7-3.6-3.3-5.5-5.1
		c1.4-1.3,2.5-2.4,3.7-3.5c1.6,1.7,3.3,3.5,5,5.3c4-3.2,8.3-5,13.2-5.6c0-2.5,0-4.9,0-7.4c1.7,0,3.2,0,4.9,0c0,2.4,0,4.8,0,7.4
		c4.9,0.6,9.2,2.3,13.2,5.5c1.7-1.8,3.4-3.6,5-5.4c1.3,1.3,2.4,2.4,3.6,3.7c-1.8,1.7-3.6,3.3-5.4,5c3.2,4,5,8.3,5.6,13.2
		c2.5,0,4.9,0,7.4,0c0,1.7,0,3.2,0,4.9c-2.4,0-4.8,0-7.4,0c-0.6,4.9-2.4,9.3-5.5,13.2c1.8,1.7,3.5,3.4,5.2,5
		c-1.3,1.2-2.4,2.2-3.7,3.4c-1.4-1.5-3.1-3.3-4.6-4.9c-2.5,1.4-4.4,2.7-6.6,3.6C125.2,55.5,122.9,56,120.5,56.7z M110.6,127.7
		c2.6,0,4.8-2.1,4.9-4.7c0.1-2.5-1.8-4.8-4.4-5c-3.1-0.3-5.3-1.7-6.8-4.3c-2-3.4-4.1-6.8-6.3-10.2c-0.9-1.4-0.9-2.6,0-4.1
		c7.2-12.2,7.2-24.5-0.1-36.7c-0.8-1.4-0.8-2.5,0-3.8c2.2-3.4,4.3-6.8,6.4-10.3c1.6-2.6,3.7-4.1,6.8-4.3c2.6-0.2,4.5-2.5,4.4-5
		c-0.1-2.6-2.2-4.6-4.7-4.7c-2.6-0.1-4.8,1.8-5,4.4c-0.3,3.1-1.7,5.3-4.3,6.8c-3.4,2-6.8,4.1-10.2,6.3c-1.4,0.9-2.6,0.9-4.1,0
		c-12.2-7.2-24.4-7.2-36.6,0c-1.4,0.8-2.5,1-3.9,0.1c-3.5-2.2-7-4.4-10.6-6.6c-2.5-1.5-3.8-3.6-4-6.5c-0.3-2.7-2.4-4.7-5.1-4.5
		c-2.6,0.1-4.6,2.2-4.7,4.8c-0.1,2.6,1.9,4.7,4.6,5c2.9,0.2,5,1.6,6.5,4.1c2,3.4,4.1,6.8,6.3,10.2c1.1,1.6,1,2.9,0,4.6
		c-6.8,11.6-7,23.4-0.5,35.1c1.4,2.5,1.9,4.2-0.1,6.6c-2.3,2.7-3.9,6-5.7,9.1c-1.5,2.5-3.6,3.8-6.5,4c-2.8,0.3-4.7,2.4-4.6,5
		c0.1,2.6,2.2,4.6,4.7,4.8c2.6,0.1,4.8-1.8,5-4.6c0.2-2.9,1.6-5,4-6.5c3.4-2,6.8-4.1,10.2-6.3c1.6-1.1,2.9-1,4.6,0
		c11.5,6.8,23.3,7,35,0.6c2.6-1.4,4.3-2,6.9,0.1c2.5,2.2,5.6,3.7,8.5,5.4c2.7,1.6,4.3,3.8,4.5,7
		C105.9,125.9,108.1,127.7,110.6,127.7z M109.5,49.4c6.5,3.8,17.4,2.9,23.8-5.1c6.5-8.2,5.6-19.7-2-26.8c-7.4-6.9-19-6.8-26.5,0
		c-7.4,6.7-7.7,17.4-4.2,22.8c0.3-3.1,1-5.8,3.2-7.9c2.3-2.1,4.9-3.1,8-2.7c4.8,0.7,8.1,4.1,8.6,9c0.2,2.1-0.3,4.1-1.4,5.9
		C116.9,47.9,113.6,49.1,109.5,49.4z M73,41.9c-0.7-2.9-1.2-5.8-2-8.6c-0.9-3.1-0.3-5.7,1.7-8.1c1.7-2.1,1.5-4.9-0.5-6.6
		c-1.9-1.8-4.8-1.7-6.7,0.1c-1.9,1.8-2.2,4.5-0.4,6.6c2,2.4,2.5,5,1.7,8c-0.8,2.8-1.3,5.7-2,8.7C67.6,41.9,70.1,41.9,73,41.9z
		 M73,120.3c-2.9,0-5.4,0-8.2,0c0.7,3,1.3,5.9,2.1,8.8c0.7,2.9,0.3,5.4-1.7,7.7c-1.8,2.2-1.6,4.9,0.4,6.8c1.9,1.8,4.8,1.8,6.7,0
		c1.9-1.8,2.1-4.6,0.3-6.8c-1.9-2.3-2.4-4.8-1.7-7.7C71.7,126.3,72.3,123.3,73,120.3z M108.1,85.2c3.1-0.7,6-1.3,8.9-2.1
		c2.8-0.7,5.3-0.3,7.6,1.6c0.4,0.3,0.8,0.6,1.3,0.8c2.1,0.9,4.7,0.2,6-1.6c1.4-2,1.1-4.6-0.6-6.3c-1.7-1.7-4.3-2.1-6.1-0.5
		c-2.9,2.5-6,2.7-9.4,1.7c-2.5-0.7-5-1.2-7.6-1.8C108.1,79.8,108.1,82.4,108.1,85.2z M29.7,77.1c-0.4,0.1-0.8,0.1-1.2,0.2
		c-2.6,0.6-5.2,1.2-7.8,1.8c-2.8,0.7-5.3,0.2-7.6-1.7c-2.2-1.8-4.9-1.6-6.8,0.3c-1.7,1.8-1.8,4.7-0.2,6.6c1.8,2,4.7,2.3,6.9,0.5
		c2.3-1.9,4.9-2.5,7.7-1.6c0.5,0.1,1,0.2,1.5,0.4c2.4,0.6,4.8,1.1,7.3,1.7C29.7,82.4,29.7,79.8,29.7,77.1z"/>
	<path class="st0" d="M71.3,66.3c0,5.4-4.4,9.9-9.8,9.9c-5.4,0-9.8-4.4-9.8-9.9c0-5.4,4.4-9.8,9.7-9.8
		C66.9,56.5,71.3,60.9,71.3,66.3z M61.5,71.3c2.7,0,4.9-2.2,4.9-4.8c0-2.7-2.1-4.9-4.8-5c-2.7-0.1-5,2.2-5,4.9
		C56.6,69.1,58.8,71.3,61.5,71.3z"/>
	<path class="st0" d="M86.1,98.3c0,5.4-4.5,9.8-9.9,9.8c-5.4,0-9.7-4.4-9.8-9.8c0-5.4,4.4-9.9,9.8-9.9
		C81.7,88.5,86.1,92.9,86.1,98.3z M81.2,98.3c0-2.7-2.2-4.9-4.9-4.8c-2.7,0-5,2.3-4.9,5c0.1,2.7,2.3,4.8,5,4.8
		C79,103.2,81.2,100.9,81.2,98.3z"/>
	<path class="st0" d="M86,81.1c-4.1,0-7.4-3.4-7.3-7.5c0.1-4,3.4-7.2,7.4-7.2c4,0,7.3,3.3,7.3,7.3C93.4,77.8,90.1,81.1,86,81.1z
		 M86.1,71.3c-1.3,0-2.4,1.1-2.4,2.4c0,1.3,1,2.4,2.4,2.5c1.4,0,2.5-1.1,2.5-2.5C88.5,72.4,87.4,71.3,86.1,71.3z"/>
	<path class="st0" d="M54.2,83.6c4,0,7.3,3.3,7.4,7.3c0,4.1-3.3,7.4-7.4,7.4c-4,0-7.3-3.3-7.4-7.3C46.8,86.9,50.1,83.6,54.2,83.6z
		 M54.2,93.4c1.3,0,2.4-1.2,2.4-2.5c0-1.4-1.2-2.5-2.6-2.4c-1.3,0.1-2.4,1.2-2.3,2.5C51.8,92.4,52.9,93.4,54.2,93.4z"/>
	<path class="st0" d="M78.7,54.1c2.7,0,4.9,2.2,4.9,4.9c0,2.7-2.3,5-5,4.9c-2.7-0.1-4.8-2.3-4.8-5C73.8,56.3,76,54.1,78.7,54.1z"/>
	<path class="st0" d="M49.2,78.7c0,2.7-2.2,4.9-4.9,4.9c-2.7,0-5-2.3-4.9-5c0.1-2.7,2.3-4.8,5-4.8C47,73.8,49.2,76,49.2,78.7z"/>
	<path class="st0" d="M118,17.2c2.7,0,4.9,2.2,4.9,4.8c0,2.7-2.2,5-4.9,5c-2.7,0-4.9-2.2-4.9-4.9C113.1,19.5,115.3,17.3,118,17.2z"
		/>
	<path class="st0" d="M132.7,34.4c0,2.7-2.2,4.9-4.8,5c-2.7,0-4.9-2.1-5-4.8c-0.1-2.7,2.2-5,4.9-5C130.5,29.5,132.7,31.7,132.7,34.4
		z"/>
</g>
</svg>
