<?xml version="1.0" encoding="utf-8"?>
<!-- Generator: Adobe Illustrator 24.3.0, SVG Export Plug-In . SVG Version: 6.00 Build 0)  -->
<svg version="1.1" id="Layer_1" xmlns="http://www.w3.org/2000/svg" xmlns:xlink="http://www.w3.org/1999/xlink" x="0px" y="0px"
	 viewBox="0 0 150 150" style="enable-background:new 0 0 150 150;" xml:space="preserve">
<style type="text/css">
	.st0{fill:#005BAB;}
</style>
<g>
	<path class="st0" d="M49.3,13.9c1.7,0,3,1.3,3,2.9c0,1.6-1.4,2.9-3,2.9c-1.6,0-3-1.4-3-2.9C46.3,15.1,47.6,13.9,49.3,13.9z"/>
	<g>
		<path class="st0" d="M0.6,58.7c0.6-3.1,0.9-6.2,1.8-9.2c5.2-17.2,16.4-28.6,33.7-33.8c2.2-0.7,3.8,0.1,4.2,1.8
			c0.5,1.7-0.5,3.1-2.6,3.8c-16,5-26.5,15.5-30.2,31.9c-3.6,16.1,1.2,30,13.3,41.3c0.3,0.3,0.7,0.5,1.1,0.8c1.3-6,3.1-11.7,5.7-17
			c1.6-3.3,3.5-6.5,5.3-9.6c0.8-1.5,0.7-2.3-0.8-3.1c-0.3-0.2-0.7-0.3-1.1-0.5c-1.1-0.5-1.7-1.4-1.7-2.7c0-1.2,0.7-2.1,1.7-2.6
			c0.8-0.4,1.7-0.9,2.2-1.6c0.9-1.2,0.8-2.5,0-3.8c-0.8-1.2-1-2.4-0.1-3.6c0.9-1.2,2.1-1.3,3.4-1c2.4,0.6,4.2-0.7,4.4-3.1
			c0.1-1.4,0.6-2.6,2-3c1.4-0.4,2.5,0.1,3.4,1.2c1.6,1.9,3.8,1.8,5.4,0c1-1.1,2.1-1.6,3.5-1.2c1.3,0.4,1.9,1.5,2,2.9
			c0.2,2.5,2,3.8,4.4,3.2c1.3-0.3,2.5-0.2,3.4,1c0.8,1.2,0.7,2.3,0,3.5c-1.3,2.3-0.7,4.3,1.7,5.3c1.3,0.6,2.1,1.4,2.1,2.8
			c0,1.4-0.9,2.3-2.1,2.8c-2.3,1-3,3-1.7,5.2c0.7,1.2,0.9,2.4,0.1,3.5c-0.9,1.2-2,1.4-3.5,1.1c-2.4-0.6-4.2,0.8-4.4,3.3
			c-0.1,1.4-0.7,2.4-2,2.9c-1.4,0.5-2.4-0.1-3.3-1.1c-1.8-2-4.4-1.9-5.7,0.3c-4.2,6.9-6.8,14.4-7.8,22.5c0,0.3,0,0.6,0,1.2
			c2.8,0.4,5.6,1,8.4,1.1c22,1.3,41.6-14.7,44.7-36.5c0.9-6.4,0.5-12.8-1.5-19c-0.2-0.6-0.4-1.3-0.4-2c0-1.3,1.1-2.5,2.5-2.7
			c1.3-0.2,2.8,0.6,3.2,2c0.8,2.9,1.7,5.9,2,8.9c2.6,20.2-6.9,39-24.6,48.9c-10.4,5.8-21.6,7.4-33.3,5.1c-0.5-0.1-0.9-0.2-1.6-0.3
			c0,0.6,0,1.1,0,1.7c0,7.6,0,15.2,0,22.8c0,1.2-0.2,2.5-1.3,3c-0.8,0.4-2,0.4-2.9,0.2c-1.1-0.3-1.6-1.4-1.6-2.7c0-2.9,0-5.7,0-8.6
			c0.1-6.8-0.1-13.7,0.3-20.5c0.9-13.2,5.7-25,13.8-35.4c0.4-0.5,0.9-1,1.3-1.6c1.1-1.4,0.9-3.1-0.3-4.2c-1.2-1-3.1-0.9-4.1,0.5
			c-2.8,3.8-5.7,7.6-8,11.7c-6,10.7-8.8,22.3-8.8,34.6c0,11.3,0,22.7,0,34c0,0.5,0,1,0,1.5c-0.2,1.5-1.4,2.6-2.9,2.6
			c-1.4,0-2.7-1.1-2.9-2.6c-0.1-0.5,0-1,0-1.5c0-11.3,0-22.6,0-33.9c0-2.8,0.2-5.6,0.4-8.4c0.1-0.8-0.1-1.3-0.8-1.8
			C12.6,95.7,7.2,88.6,3.8,79.9c-1.6-4-2.6-8.2-3-12.5c0-0.4-0.2-0.7-0.3-1.1C0.6,63.8,0.6,61.2,0.6,58.7z M52.8,73.6
			c1.3-2,3-3.3,5.1-4.1c0.3-0.1,0.7-0.5,0.7-0.7c0-2.4,0.8-4.4,1.9-5.9c-0.8-2.6-1.6-4.9-2.4-7.4c-1.7-0.5-3.6-1.7-5-3.6
			c-0.2-0.2-0.8-0.4-1.1-0.3c-1.9,0.6-3.8,0.6-5.7,0c-0.3-0.1-0.9-0.1-1,0.1c-1.4,2-3.3,3.2-5.4,3.8c-0.3,1.8-0.6,3.3-0.9,4.9
			c4.7-3.1,8.9-3.1,12.2,0c1.4,1.3,2.3,3,2.6,4.9c0.5,2.9-0.5,5.4-2.4,7.7C51.9,73.2,52.3,73.4,52.8,73.6z"/>
		<path class="st0" d="M137.5,0.6c2.1,1.1,1.9,3.3,2.3,5.5c1.1-1.1,1.9-1.9,2.7-2.7c1.5-1.5,3.3-1.6,4.5-0.3
			c1.2,1.2,1.1,2.9-0.3,4.4c-0.8,0.8-1.7,1.6-2.5,2.4c0,0.1,0.1,0.3,0.1,0.4c0.7,0.1,1.4,0.3,2.1,0.3c2,0.3,3.2,1.5,3,3.2
			c-0.1,1.7-1.5,2.8-3.5,2.6c-2-0.3-3.9-0.8-6.1-1.3c-0.1,0.2-0.5,0.6-0.8,1.1c-3.4,4.2-7.7,6.9-13,8.2c-1.8,0.4-3.4-0.4-3.7-2
			c-0.4-1.7,0.5-3.1,2.3-3.6c4.3-1.1,7.9-3.4,10.5-7c0.5-0.7,0.5-1.2,0.2-2.1c-0.6-1.6-1.1-3.4-1.5-5.1c-0.4-1.8,0.4-3.1,2.1-3.9
			C136.4,0.6,136.9,0.6,137.5,0.6z"/>
		<path class="st0" d="M104.7,20.4c1.1-1.2,1.9-2.1,2.8-2.9c1.4-1.4,3.1-1.5,4.4-0.3c1.2,1.2,1.1,3-0.3,4.4
			c-0.8,0.8-1.7,1.5-2.6,2.3c0.1,0.2,0.1,0.3,0.2,0.5c0.7,0.1,1.4,0.3,2.2,0.3c1.8,0.2,3,1.4,3,3c0,1.7-1.4,3-3.2,2.8
			c-2.1-0.2-4.1-0.8-5.5-1.1c-1.8,1.5-3.6,3-5.3,4.4c-2.6,2.1-5.6,3.6-8.9,4.4c-2.2,0.5-3.7-0.2-4.1-2c-0.4-1.7,0.5-3.1,2.6-3.6
			c4.2-1.1,7.5-3.3,10-6.7c0.6-0.7,0.5-1.3,0.2-2.2c-0.7-1.9-1.2-3.9-1.5-5.8c-0.2-1.6,1-2.8,2.5-3c1.6-0.1,2.9,0.9,3.2,2.6
			C104.4,18.2,104.5,19.1,104.7,20.4z"/>
		<path class="st0" d="M128.2,38.7c0.8-0.9,1.6-1.8,2.4-2.7c1.4-1.4,3-1.4,4.3-0.2c1.2,1.2,1.2,2.9-0.1,4.3c-0.8,0.9-1.8,1.6-3,2.8
			c1.2,0.2,1.9,0.4,2.6,0.4c1.9,0.2,3,1.3,3,3.1c-0.1,1.7-1.4,2.9-3.3,2.7c-2-0.2-4-0.8-6.3-1.3c-0.1,0.2-0.5,0.7-0.9,1.1
			c-3.3,4-7.5,6.7-12.5,7.9c-2,0.5-3.6-0.3-4.1-1.9c-0.4-1.7,0.6-3.2,2.6-3.7c4.2-1.1,7.6-3.3,10.1-6.8c0.5-0.7,0.5-1.2,0.2-2.1
			c-0.7-1.8-1.2-3.7-1.5-5.5c-0.3-1.8,1-3.2,2.7-3.3c1.7-0.1,2.9,1,3.1,2.9c0.1,0.7,0.2,1.4,0.3,2.1
			C127.9,38.5,128.1,38.6,128.2,38.7z"/>
		<path class="st0" d="M61.2,15.4c0.4,0.1,1.1,0.2,1.8,0.5c6.8,2,12.8,5.4,18.2,10c1.6,1.4,1.9,3.1,0.7,4.4c-1.1,1.3-2.9,1.3-4.4,0
			c-5-4.3-10.7-7.4-17.1-9.2c-1.6-0.5-2.6-1.8-2.4-3.2C58.1,16.4,59.3,15.4,61.2,15.4z"/>
		<path class="st0" d="M73.1,35.7c0.7,0.6,1.8,1.1,2.2,1.9c0.3,0.8,0.3,2.3-0.2,2.9c-1.6,1.9-3.4,3.7-5.3,5.4
			c-1.1,1-2.8,0.8-3.8-0.3c-1-1-1.2-2.6-0.2-3.7c1.7-1.9,3.5-3.6,5.3-5.3C71.5,36.2,72.2,36.1,73.1,35.7z"/>
		<path class="st0" d="M52.1,32.5c0,1.1,0,2.2,0,3.3c-0.1,1.6-1.2,2.8-2.7,2.9c-1.6,0.1-3-1-3-2.7c-0.1-2.4-0.1-4.7,0-7.1
			c0.1-1.6,1.5-2.8,3-2.7c1.6,0.1,2.7,1.3,2.8,3c0,0.1,0,0.2,0,0.3C52.1,30.5,52.1,31.5,52.1,32.5C52.1,32.5,52.1,32.5,52.1,32.5z"
			/>
		<path class="st0" d="M79.2,59.6c1.2,0,2.3,0,3.5,0c1.6,0.1,2.8,1.3,2.8,2.8c0,1.5-1.1,2.9-2.6,3c-2.4,0.1-4.8,0.1-7.3,0
			c-1.6-0.1-2.7-1.5-2.6-3.1c0.1-1.5,1.2-2.6,2.9-2.7C76.9,59.5,78.1,59.6,79.2,59.6C79.2,59.6,79.2,59.6,79.2,59.6z"/>
		<path class="st0" d="M52.1,92.5c0,1.1,0,2.2,0,3.3c-0.1,1.6-1.2,2.8-2.7,2.8c-1.6,0.1-2.9-1.1-3-2.7c-0.1-2.4-0.1-4.7,0-7.1
			c0.1-1.7,1.4-2.8,3-2.7c1.5,0.1,2.7,1.2,2.7,2.8C52.1,90.2,52.1,91.4,52.1,92.5z"/>
		<path class="st0" d="M19.3,59.6c1.1,0,2.2,0,3.3,0c1.6,0.1,2.7,1.3,2.8,2.8c0.1,1.5-1,2.9-2.6,3c-2.4,0.1-4.8,0.1-7.3,0
			c-1.6-0.1-2.7-1.4-2.7-2.9c0-1.6,1.2-2.8,2.9-2.8C17,59.5,18.1,59.6,19.3,59.6z"/>
		<path class="st0" d="M33.5,43.9c-0.6,0.7-1.1,1.7-1.9,2.2c-0.9,0.7-2.1,0.5-3-0.3c-1.8-1.7-3.6-3.5-5.3-5.3
			c-1-1.1-0.8-2.7,0.2-3.7c1-1,2.7-1.3,3.8-0.3c1.9,1.7,3.6,3.5,5.3,5.3C33,42.3,33.1,43,33.5,43.9z"/>
		<path class="st0" d="M68.5,78.4c0.3,0.2,1.1,0.4,1.6,0.9c1.6,1.5,3.1,3,4.6,4.6c1.2,1.3,1.2,3,0.1,4.2c-1.1,1.2-2.9,1.2-4.2,0
			c-1.6-1.5-3.2-3.1-4.7-4.7c-0.9-0.9-1.1-2-0.6-3.2C65.9,79,66.8,78.4,68.5,78.4z"/>
		<path class="st0" d="M34.8,149.3c-1.6,0-2.9-1.3-2.9-2.9c0-1.6,1.3-2.9,3-2.9c1.6,0.1,2.8,1.4,2.8,2.9
			C37.7,148,36.4,149.3,34.8,149.3z"/>
	</g>
</g>
</svg>
