<?xml version="1.0" encoding="utf-8"?>
<!-- Generator: Adobe Illustrator 24.3.0, SVG Export Plug-In . SVG Version: 6.00 Build 0)  -->
<svg version="1.1" id="Layer_1" xmlns="http://www.w3.org/2000/svg" xmlns:xlink="http://www.w3.org/1999/xlink" x="0px" y="0px"
	 viewBox="0 0 150 150" style="enable-background:new 0 0 150 150;" xml:space="preserve">
<style type="text/css">
	.st0{fill:#005BAB;}
</style>
<g>
	<path class="st0" d="M93.3,149.4c-1.8-0.7-3.8-1.2-5.5-2.2c-6-3.7-7.8-10.9-5-17.6c0.5-1.2,1.6-1.7,2.7-1.3
		c1.1,0.4,1.7,1.4,1.4,2.7c-0.3,1.2-0.7,2.3-0.9,3.5c-0.5,4.1,1,7.3,4.5,9.3c3.4,1.9,6.8,1.7,10-0.6c3.3-2.5,4.3-5.9,3.4-9.8
		c-1.2-5.2-4.8-8.8-8.9-12.3c-1.2,1.1-2.4,2.2-3.6,3.3c-1.1,1-2.5,1.1-3.3,0c-0.8-0.9-0.9-2,0-2.8c1.9-1.8,3.8-3.5,5.8-5
		c0.5-0.4,1.8-0.4,2.3-0.1c5.7,4,10.4,8.9,12,16c1.8,8-2.8,15.1-10.8,16.7c-0.2,0-0.4,0.1-0.5,0.2C95.6,149.4,94.5,149.4,93.3,149.4
		z"/>
	<path class="st0" d="M56.2,103.2c-1.8-1.8-3.8-2.7-6.1-3.2c-0.3-0.1-0.6-0.1-0.9-0.1c-1.5-0.3-2.3-1.3-2.1-2.5
		c0.2-1.3,1.2-2.1,2.8-1.8c4.4,0.6,8,2.6,10.8,6.2c1.3,1.6,2.4,3.3,3.7,4.8c5.4,6,15.5,6.1,21,0.1c1.4-1.5,2.6-3.3,3.8-4.9
		c2.7-3.5,6.3-5.5,10.7-6.1c1.7-0.2,2.8,0.5,2.9,1.8c0.2,1.2-0.7,2.2-2.3,2.5c-2.6,0.4-4.8,1.4-6.8,3.3c2.2,1.6,4.5,2.5,6.9,2.9
		c1.5,0.2,3,0.4,4.5,0.2c5.3-0.6,8.2-4,9.1-9.9c1.2-8-1.4-14.8-6.5-20.8c-0.5-0.6-1-1.1-1.4-1.7c-0.7-1-0.6-2.2,0.3-3
		c1-0.8,2.1-0.8,2.9,0.1c7.9,8.5,11.5,18.2,8.1,29.7c-2.1,7.1-8.5,10.9-16.1,9.8c-1.9-0.3-3.7-0.7-5.5-1.3c-1.7-0.6-3.3-1.5-5.2-2.4
		c-3.7,5.5-8.9,8.5-15.9,8.5c-6.9,0-12.2-2.9-16-8.7c-3.1,1.9-6.4,3.3-9.9,3.8c-9.9,1.3-16.5-4-17.8-14c-1.2-9.7,1.9-17.9,8.4-24.6
		c5.6-5.8,8.3-12.7,9.9-20.2c1.9-8.5,3.8-17.1,5.8-25.6c0.5-2.3,1.5-3.1,3-2.7c1.5,0.4,1.8,1.6,1.3,3.9c-2.1,9.1-4.2,18.3-6.3,27.4
		c-0.6,2.4-1.3,4.8-2.1,7.2c-1.1,3.6-3,6.7-5.5,9.6c-2.5,2.8-4.9,5.8-7,8.9c-3.6,5.5-4.2,11.6-2.8,17.9c1.3,5.6,5,8.4,10.7,8.1
		C50.2,106.2,53.2,105.2,56.2,103.2z"/>
	<path class="st0" d="M74.8,0.6c4.5,0,7.8,1.9,10.6,5.1c3,3.5,4.9,7.6,6.5,11.9c3.1,8.5,4.7,17.4,6.7,26.2c1.4,6,3,11.9,4.6,17.8
		c0.3,1,0.8,2,1.2,2.9c0.6,1.4,0.3,2.6-0.9,3.2c-1.1,0.5-2.4,0.1-2.9-1.3c-1.4-3.6-2.8-7.1-3.7-10.8c-2.4-9.7-4.4-19.4-6.8-29.1
		c-1.1-4.4-2.9-8.7-4.6-12.9c-0.9-2-2.3-4-3.8-5.6c-4-4.3-9.6-4.3-13.4,0.3c-1.9,2.3-3.3,5.2-4.8,7.9c-0.3,0.6-0.5,1.3-0.8,1.9
		c-0.6,1.1-1.6,1.4-2.7,1c-1.1-0.4-1.6-1.6-1.2-2.7c1.6-4.3,3.7-8.4,7-11.7C68.2,2.1,71.3,0.6,74.8,0.6z"/>
	<path class="st0" d="M66.1,130.7c-0.2,4.2-2.1,7.4-5.9,9.2c-3.8,1.8-7.5,1.3-10.7-1.4c-3.4-2.8-4.4-6.5-3.3-10.7
		c1.3-4.9,4.5-8.3,8.5-11.1c0.6-0.4,1.8-0.4,2.4,0c4.3,3,7.7,6.7,8.8,12.1C66,129.3,66,130,66.1,130.7z M55.9,121.1
		c-2.6,2.2-4.7,4.5-5.6,7.8c-0.7,2.8,0.2,5.2,2.3,6.7c2,1.4,4.7,1.3,6.7-0.1c2-1.5,2.8-4,2.1-6.8C60.5,125.5,58.4,123.2,55.9,121.1z
		"/>
</g>
</svg>
