<?xml version="1.0" encoding="utf-8"?>
<!-- Generator: Adobe Illustrator 24.3.0, SVG Export Plug-In . SVG Version: 6.00 Build 0)  -->
<svg version="1.1" id="Layer_1" xmlns="http://www.w3.org/2000/svg" xmlns:xlink="http://www.w3.org/1999/xlink" x="0px" y="0px"
	 viewBox="0 0 150 150" style="enable-background:new 0 0 150 150;" xml:space="preserve">
<style type="text/css">
	.st0{fill:#005BAB;}
</style>
<g>
	<path class="st0" d="M93.7,127.5c-5.6,0.6-10.9,0.6-16.1-0.8c-2.7-0.7-5.3-1.7-8-2.6c-0.9-0.3-1.7-0.9-1.3-2
		c0.5-1.1,1.4-0.9,2.3-0.5c6.3,2.7,12.9,3.8,19.8,3.5c3.9-0.2,6.9-1.1,8.6-5.1c0.9-2.2,2.2-4.1,3.4-6.1c-3.5,0.1-6.9,0.3-10.4,0.4
		c-1,0-2.1-0.1-2.1-1.3c0-1.4,1.2-1.3,2.2-1.4c3.4-0.2,6.7-0.5,10.1-0.7c1.2-0.1,1.9-0.7,2.2-1.9c0.6-2,1.3-4,2.1-6.2
		c-19.8,2.4-34.8-4.3-44.5-22.1c-1.7,2.7-2.9,5.6-3.7,8.7c-0.1,0.5,0.3,1.2,0.6,1.7c4.4,8.6,11.4,14.3,20.4,17.8
		c2,0.8,4.1,1.3,6.1,1.8c0.9,0.3,1.9,0.5,1.7,1.7c-0.3,1.2-1.2,1.2-2.3,0.9c-11.5-2.7-20.8-8.6-27.1-18.8c-0.1-0.1-0.2-0.2-0.6-0.6
		c-0.3,1.8-0.5,3.3-0.8,4.9c-0.1,1-0.3,2-1.6,1.9c-1.2-0.1-1.2-1.2-1.1-2.1c0.7-6.2,2.2-12.2,5.1-17.8c0.2-0.4,0.4-0.9,0.8-1.7
		c-2.8,0-5.4,0.1-8,0c-2-0.1-3.9-0.4-5.9-0.6c-1-0.1-2-0.4-1.8-1.7c0.2-1.3,1.3-1,2.3-1c4.7,0.2,9.3,0.5,14,0.6c0.7,0,1.5-0.6,2.1-1
		c2.4-1.8,4.8-3.7,7.1-5.7c0.4-0.3,0.9-1,0.9-1.4c-1-11.5,5.3-20.1,16.5-22.6c0.3-0.1,0.6-0.2,1.1-0.3c-1.2-3.3-2.9-6-5-8.6
		c-6.1-7.4-14-12.4-23-15.4c-4.5-1.6-9.4-2.4-14.1-3.5c-1-0.2-2.1-0.3-1.9-1.6c0.2-1.3,1.3-1.2,2.3-1.1c14,2,26.4,7.2,36.5,17.4
		c0.3,0.3,0.6,0.7,0.9,1c0.1,0.1,0.2,0.1,0.5,0.3c-0.2-0.4-0.2-0.8-0.4-1C74.6,18.1,61.9,8.2,44.9,4.2c-5.6-1.3-11.2-1.3-16.7,0.5
		c-4,1.3-7.4,3.5-10,6.9c-0.1,0.1-0.1,0.2-0.2,0.3c-0.5,0.7-1.2,1.4-2.1,0.7c-1-0.7-0.7-1.5-0.1-2.3c2.8-3.8,6.5-6.4,10.9-7.9
		c7.3-2.5,14.7-2.2,21.9,0c19.9,6.2,34,18.7,41.7,38.3c0.5,1.4,0.9,2.8,1.3,4.3c0.7,0,1.4,0.1,1.9,0.1c0-2.6-0.3-5.1,0.1-7.4
		c0.5-2.8,1.5-5.5,2.5-8.2c0.2-0.5,1.4-1.1,1.9-1c1,0.3,0.9,1.2,0.5,2.1c-5.7,12.9-0.1,24.5,13.5,28.1c6.3,1.7,12.7,2,19,0
		c6.9-2.2,10-7,8.5-14.1c-2-9.5-7.5-16.7-15.9-21.7c-0.4-0.3-0.9-0.4-1.4-0.7c0,0.8,0.1,1.5,0,2.1c-0.2,2.2-1.9,3.9-4,4.2
		c-2.1,0.3-4.1-0.9-5-2.9c-0.3-0.7-0.5-1.5-0.7-2.2c-0.2-0.7-0.5-1.5-0.8-2.2c-3.4,0.6-6.4,2.1-9,4.3c-0.5,0.4-1.2,0.8-1.8,0.7
		c-1.1-0.1-1.3-1.5-0.3-2.5c2.5-2.3,5.5-3.9,8.8-4.8c0.3-0.1,0.7-0.2,1-0.3c0.1,0,0.2-0.1,0.3-0.3c-0.3-0.9-0.6-1.8-0.8-2.7
		c-0.2-0.8-0.4-1.7-0.1-2.5c0.6-2.1,1.2-4.2,2.3-6.1c1.8-3.4,4.9-5.1,8.7-5.1c2.7,0,5.4,0.4,8.1,0.7c0.5,0.1,1,1,1.5,1.5
		c-0.6,0.4-1.2,1.1-1.8,1.1c-2.2-0.1-4.4-0.4-6.6-0.6c-3.8-0.4-6.5,1.2-8.1,4.9c0.8-0.4,1.5-0.5,1.8-0.8c1.7-2.4,4-3,6.8-2.7
		c5.4,0.6,10.8,1.1,16.1,1.6c0.3,0,0.7,0.1,1,0c0.5-0.1,1-0.4,1.5-0.6c-0.5-0.3-1-0.7-1.5-0.7c-1.6-0.2-3.1-0.3-4.7-0.4
		c-1-0.1-1.9-0.4-1.8-1.6c0.1-1.1,1-1.2,1.9-1.1c1.8,0.2,3.7,0.3,5.5,0.5c2.2,0.3,3.5,1.8,3.3,3.7c-0.2,1.9-1.8,3.1-4,2.9
		c-5.8-0.5-11.7-1.1-17.5-1.6c-1.3-0.1-2.6,0.4-3.8,0.8c-0.3,0.1-0.7,0.9-0.6,1.2c0.9,2.4,1.8,4.7,2.8,7c1.9-4.3,5.2-5.6,9.8-4.9
		c4.6,0.8,9.3,1.2,13.9,1.8c2.3,0.3,3.7,1.8,3.5,3.8c-0.2,2-1.9,3.2-4.2,3c-2.1-0.2-4.3-0.5-6.3-0.9c-0.6-0.1-1.1-1-1.6-1.5
		c0.7-0.4,1.3-1,2-1c2,0.1,4,0.5,6,0.7c0.4,0,0.9-0.4,1.4-0.5c-0.4-0.3-0.7-0.7-1.1-0.7c-5.2-0.7-10.4-1.4-15.6-2
		c-2.4-0.3-4.4,1-5,3.2c-0.1,0.5,0.2,1.1,0.6,1.5c1.5-3.3,5.2-4.5,8.2-2.7c0.4,0.2,0.8,0.9,0.7,1.3c-0.1,0.4-0.7,1-1.1,1
		c-0.8,0.1-1.7-0.2-2.5-0.1c-0.7,0-1.3,0.2-2,0.3c0.3,0.9,0.3,2,0.9,2.6c1.5,1.6,3.4,3,4.9,4.6c4.5,5,8,10.6,9.1,17.4
		c1.3,8.4-2.4,14.5-10.7,16.8c-3.6,1-7.4,1-11.2,1.4c-0.3,0-0.7,0-1.1,0c0.4,1.2,0.9,2.3,1,3.5c0.1,0.6-0.5,1.3-0.8,1.9
		c-0.6-0.4-1.6-0.8-1.6-1.3c-0.5-3.6-2.7-4.8-6.1-5.6c-7.3-1.5-13-5.6-16.2-12.5c-0.2-0.4-0.8-0.9-1.2-0.9
		c-9.7-1-19.3,4.2-21.1,14.4c-1.1,6.5,1.1,12.1,5.2,17.1c6.8,8.3,18.5,12,28.1,8.7c6.8-2.3,11.3-8,11.8-15.1c0.1-1,0.2-2.1,1.5-2
		c1.3,0.1,1.3,1.2,1.2,2.2c-0.5,6.8-3.8,12-9.5,15.7c-0.5,0.3-1.1,1-1.1,1.5c-0.1,0.9,0.1,2-1.1,2.1c-0.6,0-1.3-0.8-2.4-1.5
		c-7,2.1-14.4,1.4-21.3-2.3c-6.9-3.6-11.8-9.1-14.4-16.7c-2.6,1.3-4.9,2.9-6.6,5.2c-0.3,0.4-0.2,1.4,0.1,2
		c3.5,8.3,9.5,14.1,17.6,17.9c7.2,3.4,14.8,4.4,22.7,3.1c1.7-0.3,2.6-0.9,2.6-2.7c0-1,0.2-2.1,1.5-2c1.3,0.1,1.3,1.2,1.2,2.2
		c-0.9,7-3.3,13.5-6.5,19.7c-4.3,8.2-9.8,15.5-17.4,21c-3.7,2.6-7.7,4.5-12.3,4.7c-0.4,0-0.9,0.5-1.3,0.9c-1.7,1.6-3.3,3.4-5,4.9
		c-1.3,1.1-2,0.8-2.8-0.7c-1.3-2.7-2.1-5.4-1.8-8.5c0-0.5-0.1-1.2-0.4-1.5c-4.8-5.2-7.1-11.6-8.2-18.4c-0.8-4.6-0.9-9.4-1.2-14.1
		c-0.1-1,0-2.1,1.4-2.1c1.3,0,1.5,1.1,1.3,2.1c-0.8,4.2,1.2,7.1,4.4,9.5c1.4,1,2.7,2.1,4,3.1c0.8,0.6,1.7,1.2,0.9,2.3
		c-0.7,1-1.6,0.6-2.4,0c-2.1-1.6-4.2-3.2-6.6-4.8c1,3.7,1.9,7.4,3,11.1c0.1,0.5,0.7,1,1.2,1.3c7,5,14.7,7.6,23.3,7.8
		c0.5,0,1.2,0,1.6-0.3C88.4,133.4,91.1,130.7,93.7,127.5z M119.8,24.2c-1.3-3.9-2.4-7.5-3.7-11.1c-0.2-0.5-1.7-1-2.2-0.8
		c-0.6,0.3-1.4,1.5-1.3,2.2c0.9,3.5,2,6.9,3.2,10.3c0.2,0.6,1.6,1.1,2.3,1C118.7,25.7,119.3,24.7,119.8,24.2z M80,138.7
		c-3.2-0.8-6.3-1.4-9.2-2.3c-2.9-1-5.7-2.3-8.7-3.6C66.2,139.9,73.4,142.2,80,138.7z M70.5,142.9c-1.9-0.8-3.3-1.4-5.1-2.3
		c0.5,2,0.9,3.7,1.3,5.3c0.2,0,0.4,0.1,0.6,0.1C68.3,145.1,69.3,144.2,70.5,142.9z"/>
	<path class="st0" d="M14.5,20.5c4.9-2.7,9.7-4.4,14.8-5.1c3.2-0.4,6.5-0.5,9.8-0.7c1-0.1,2.1,0,2.1,1.3c0,1.3-1.1,1.3-2.1,1.3
		c-6.4,0-12.7,0.8-18.7,3.2c-4.2,1.7-8.1,4-11,7.6c-5.3,6.5-6,13.7-2.8,21.2c3.5,8.1,9.8,13.8,17.2,18.3c4.6,2.8,9.5,4.9,14.7,6.3
		c0.5,0.2,1.2,0.2,1.6,0.6c0.4,0.4,0.7,1.1,0.6,1.5c-0.1,0.4-0.9,0.6-1.4,0.9c-0.1,0.1-0.3,0-0.5-0.1C27.3,73.7,17.1,68.3,9.4,59
		C4.9,53.7,2,47.8,2,40.8c0-7,2.9-12.6,8.2-17.1c1-0.8,1.5-1.7,1.6-3c0.2-1.3,0.4-2.7,0.9-3.9c0.2-0.5,1-0.8,1.6-1.2
		c0.3,0.6,0.9,1.2,0.9,1.9C15.2,18.3,14.8,19.2,14.5,20.5z"/>
</g>
</svg>
