<?xml version="1.0" encoding="utf-8"?>
<!-- Generator: Adobe Illustrator 24.3.0, SVG Export Plug-In . SVG Version: 6.00 Build 0)  -->
<svg version="1.1" id="Layer_1" xmlns="http://www.w3.org/2000/svg" xmlns:xlink="http://www.w3.org/1999/xlink" x="0px" y="0px"
	 viewBox="0 0 150 150" style="enable-background:new 0 0 150 150;" xml:space="preserve">
<style type="text/css">
	.st0{fill:#005BAB;}
</style>
<g>
	<path class="st0" d="M15.1,149.4c-0.8-0.6-1.5-1.3-1.5-2.5c0.2-15.2,2.8-29.9,8.6-44c2.7-6.5,7.5-10.4,13.6-13
		c7.1-3.1,14.5-5.7,21.7-8.5c1-0.4,1.3-0.8,1.4-1.9c0.3-3.6-0.3-6.5-3.4-9.1c-3.7-3.1-4.8-7.8-5.9-12.4c-0.1-0.6-0.3-1.1-0.4-1.7
		c-6.2-0.3-10.6-3.1-11.9-9.3c-1.2-5.9,1.4-10.2,6.6-13c-2.7-6.5-0.8-12.4,2.2-18.1C54.9-0.7,73.7-2,84.4,3.4
		c3.2,1.6,6.2,3.2,9.8,3.8c3.1,0.6,5.6,2.6,7.5,5.2c4,5.5,5.7,11.6,4.8,18.3c-0.1,1-0.5,2.1-0.8,3.1c5.8,3.6,8.1,7.7,7.1,13
		c-1,5.4-4.5,8.3-12,9.6c-0.5,1.9-1,3.9-1.5,6.1c2.1,1.3,4.2,2.6,6.4,3.9c0.9,0.6,1.6,1.4,1.2,2.4c-0.3,0.7-1,1.4-1.7,1.7
		c-0.4,0.2-1.2-0.1-1.7-0.4c-1.9-1.1-3.8-2.2-5.5-3.2c-2.1,2.2-4.2,4.4-6.3,6.6c-0.3,0.3-0.4,0.9-0.4,1.3c0,1.6,0.1,3.3,0,4.9
		c-0.1,1,0.4,1.4,1.3,1.7c7,2.7,14.1,5.4,21.1,8.2c1.5,0.6,2.8,1.5,4.3,2.2c6.3,3,9.2,8.5,11.5,14.7c3.6,9.7,5.8,19.7,6.7,29.9
		c0.3,3.3,0.3,6.7,0.6,10c0.1,1.3-0.3,2.4-1.5,3.1C94.9,149.4,55,149.4,15.1,149.4z M63.3,76.6c0,2.3,0,4.4,0,6.4
		c0.1,5.7,4.7,10.7,10.2,11.2c6.1,0.6,11.6-3.1,12.7-8.8c0.6-2.8,0.4-5.7,0.5-8.9c-1.5,0.6-2.6,1.1-3.8,1.5
		c-1.1,0.4-2.1,0.3-2.8-0.8c-0.9-1.3-0.2-2.6,1.3-3.4c2.4-1.2,4.8-2.4,7.1-3.9c2.3-1.5,4.1-3.6,5.1-6c-1.4-1.5-2.7-2.8-3.9-4.2
		c-1.1-1.2-1.1-2.4-0.1-3.3c1-0.9,2.2-0.8,3.3,0.4c0.7,0.7,1.4,1.5,2.4,2.6c1.8-7.3,2.8-14.3,3.4-21.3c-4.1-1-5.6-1.6-8.1-3.7
		c-2.2-1.9-4.2-4-6.2-6.1c-0.9-1-1.5-1.1-2.5-0.3c-1.2,1-2.5,1.8-3.8,2.6c-8.3,5.1-16.8,9.3-27,8c0,0.2-0.1,0.4,0,0.6
		c1.1,6.6,2,13.2,3.2,19.7c0.9,5,3.5,9,7.8,11.8c1.9,1.2,4,2.2,6,3.2c1.6,0.8,2.3,1.8,1.7,3.1c-0.5,1.2-1.7,1.5-3.4,0.9
		C65.6,77.5,64.6,77.1,63.3,76.6z M73.3,5c-9.6,0-15.8,2.8-20.7,9.2c-3.2,4.1-5.4,8.8-5.4,14.1c0,3.5,1.2,4.9,4.5,5.7
		c4.7,1.2,9.2,0,13.6-1.7c5.4-2,10.2-5,14.9-8.3c2.5-1.8,5.1-1.4,7.1,0.8c0.6,0.7,1.2,1.4,1.8,2.1c2.2,2.4,4.5,4.7,7.5,6.1
		c3,1.4,4.8,0.5,5.3-2.7c0.8-4.6-0.3-8.9-2.4-12.9c-2.3-4.4-5.9-6.8-11-6.7c-0.7,0-1.5-0.2-2-0.7C82.6,6.4,77.7,5.1,73.3,5z
		 M128.5,145.1c0.1-0.1,0.1-0.3,0.2-0.4c-0.4-0.3-0.9-0.6-1.2-1c-8.2-8.2-16.4-16.4-24.7-24.6c-4.1-4.1-6.8-8.9-8-14.5
		c-0.5-2.3-1.3-4.5-2-6.6c-0.2-0.5-1-1.1-1.4-1.1c-0.5,0.1-1.1,0.8-1.2,1.3c-0.2,1.1-0.1,2.2,0,3.3c0.1,1.2,0.5,2.4-0.7,3.3
		c-1.2,0.9-2.3,0.2-3.3-0.5c-0.3-0.2-0.6-0.4-0.9-0.5c-4.1-2.3-8.2-4.5-12.9-5.3c-2.7-0.5-4.1,0.3-5,2.9c-1.3,3.7-1.1,7.5,0.7,11
		c0.7,1.3,1.9,2.6,3.2,3.2c3.5,1.5,7.1,2.8,10.7,3.9c3.2,1,6,2.4,8.1,5.1c5.1,6.5,10.2,13,15.3,19.5c0.6,0.7,1.1,1,2,1
		c6.7,0,13.5,0,20.2,0C127.7,145.1,128.1,145.1,128.5,145.1z M130.4,129.9c0-0.4,0.1-0.6,0-0.8c-1.5-8.9-3.7-17.6-7.5-25.8
		c-1.4-3-3.5-5.3-6.3-7c-5.5-3.3-11.4-5.6-17.3-7.8c-2.8-1-5.6-2-8.5-3c-1.2,5.3-4.2,9.1-8.9,11.7c1.3,0.6,2.4,1.2,3.5,1.7
		c0.1-0.6,0.2-1,0.3-1.4c0.6-3,2.4-4.7,5.1-5.1c2.6-0.3,4.7,0.8,5.9,3.7c0.9,2.2,1.7,4.5,2.2,6.9c1,4.7,2.9,8.9,6.4,12.3
		c4.6,4.6,9.3,9.2,13.9,13.8c0.3,0.3,0.8,0.7,1.2,0.7C123.6,129.9,127,129.9,130.4,129.9z M59,85.6c-1.3,0.4-2.8,0.9-4.2,1.4
		c-6.9,2.4-13.7,5-20.2,8.5c-3.8,2.1-6.5,5-8.2,9c-2.4,5.6-4.2,11.3-5.5,17.2c-0.6,2.6-1.1,5.3-1.6,8.1c3.7,0,7.1,0,10.5,0
		c0.4,0,0.8-0.4,1.2-0.7c4.5-4.5,9.1-9,13.6-13.5c3.2-3.2,5.2-7,6.3-11.4c0.7-2.5,1.7-5,2.9-7.4c1.5-3.1,3.6-5.7,7.6-5.1
		C60.6,89.6,59.8,87.6,59,85.6z M68.4,119.4c-2.7-1.7-4.4-4.1-5.3-6.9c-1.2-3.4-1.3-6.9-0.8-10.4c0.2-1.5,0.1-3.2-0.4-4.7
		c-0.6-1.8-2.1-2-3.2-0.4c-1.7,2.3-2.9,4.9-3.5,7.7c-1.2,5.7-4,10.5-8.2,14.6c-8.3,8.1-16.5,16.4-24.7,24.6c-0.3,0.3-0.6,0.7-1,1.1
		c0.3,0.1,0.5,0.1,0.6,0.1c7.1,0,14.1,0,21.2,0c0.5,0,1.2-0.5,1.6-0.9c4.4-5.5,8.7-11.1,13-16.7C60.6,123.8,63.4,120.1,68.4,119.4z
		 M100.2,145c-0.1-0.2-0.1-0.4-0.2-0.5c-4.8-6.1-9.6-12.2-14.5-18.2c-0.8-1-2-1.7-3.2-2.1c-2.2-0.8-4.5-1.4-6.8-2
		c-0.3-0.1-0.8-0.1-1.1,0c-2,0.6-4.1,1.2-6.1,1.7c-1.7,0.5-3.2,1.4-4.3,2.8c-3.1,3.9-6.2,7.7-9.3,11.5c-1.7,2.1-3.3,4.3-5.1,6.7
		C66.6,145,83.4,145,100.2,145z M48.4,51.7c-0.6-4.6-1.2-9.2-1.8-13.7c-3.4,0.7-5.6,4.2-5.1,8C42.1,49.3,45.3,52,48.4,51.7z
		 M101.6,51.7c3.3,0.2,6.4-2.6,6.8-6.1c0.4-3.7-1.8-7.1-5.1-7.6C102.8,42.6,102.2,47.1,101.6,51.7z M18.2,141.5
		c2.5-2.5,4.8-4.9,7.1-7.2c-1.9,0-3.9,0-5.9,0c-0.2,0-0.7,0.5-0.7,0.9C18.5,137.2,18.4,139.3,18.2,141.5z M125,134.3
		c2.2,2.2,4.5,4.6,6.8,6.9c-0.2-2.2-0.4-4.5-0.6-6.9C128.9,134.3,126.7,134.3,125,134.3z"/>
	<path class="st0" d="M133.7,77.1c0,5.8-5.6,9.9-11.1,8.2c-0.7-0.2-1.6-0.2-2.3,0c-4.6,1.3-9.4-1.1-11.1-5.5
		c-1.7-4.5,0.3-9.4,4.6-11.5c0.6-0.3,1.2-0.8,1.5-1.4c2-3.2,5.6-4.8,9.4-4c3.6,0.8,6.2,3.8,6.7,7.5c0.1,0.6,0.3,1.2,0.7,1.7
		C133.1,73.6,133.8,75.2,133.7,77.1z M129.6,77.1c-0.4-0.9-0.7-2-1.3-2.6c-1-1-1.3-2-1.3-3.3c0-2-1.4-3.6-3.5-4
		c-1.9-0.4-3.9,0.5-4.6,2.4c-0.5,1.4-1.3,2.2-2.8,2.6c-2.6,0.8-3.9,3.7-2.8,6.2c1,2.5,3.9,3.7,6.4,2.5c1.4-0.7,2.4-0.7,3.8,0.1
		C126.1,82.3,129.3,80.3,129.6,77.1z"/>
	<path class="st0" d="M105.5,78.4c0,1.9-1.4,3.2-2.7,2.5c-2.2-1.1-4.2-2.4-6.2-3.9c-0.9-0.7-0.8-1.9,0-2.9c0.8-0.9,1.8-0.9,2.9-0.3
		c1.7,1.1,3.3,2.1,4.9,3.2C105,77.4,105.3,78.1,105.5,78.4z"/>
	<path class="st0" d="M75.2,64.4c-2,0-4.1,0-6.1,0c-2.3,0-3.2-1.1-2.6-3.2c0.5-1.8,1.2-3.6,2.2-5.1c3.1-4.3,9.4-4.3,12.8-0.3
		c1.4,1.7,2.2,3.7,2.5,5.9c0.2,1.6-0.6,2.6-2.3,2.7C79.6,64.5,77.4,64.4,75.2,64.4C75.2,64.4,75.2,64.4,75.2,64.4z M79.1,60
		c-0.9-1.8-2.1-2.7-3.9-2.7c-1.7,0-2.9,0.9-3.6,2.7C74,60,76.4,60,79.1,60z"/>
	<path class="st0" d="M63.4,46.9c-0.7,0-1.4,0-2,0c-1.2-0.1-2-0.8-2.1-2c-0.1-1.2,0.6-2.1,1.8-2.2c1.6-0.2,3.2-0.1,4.8,0
		c1.1,0.1,1.8,1,1.7,2.2c-0.1,1.2-0.7,2-2,2.1C64.9,46.9,64.1,46.9,63.4,46.9C63.4,46.9,63.4,46.9,63.4,46.9z"/>
	<path class="st0" d="M85.9,46.9c-0.7,0-1.4,0-2,0c-1.2-0.1-1.9-0.8-2-1.9c-0.1-1.2,0.5-2.2,1.7-2.3c1.6-0.2,3.2-0.2,4.8,0
		c1.2,0.1,1.9,1,1.8,2.3c-0.1,1.2-0.8,1.9-2.1,2C87.4,46.9,86.7,46.9,85.9,46.9C85.9,46.9,85.9,46.9,85.9,46.9z"/>
</g>
</svg>
