<?xml version="1.0" encoding="utf-8"?>
<!-- Generator: Adobe Illustrator 24.3.0, SVG Export Plug-In . SVG Version: 6.00 Build 0)  -->
<svg version="1.1" id="Layer_1" xmlns="http://www.w3.org/2000/svg" xmlns:xlink="http://www.w3.org/1999/xlink" x="0px" y="0px"
	 viewBox="0 0 150 150" style="enable-background:new 0 0 150 150;" xml:space="preserve">
<style type="text/css">
	.st0{fill:#5F6368;}
	.st1{fill:#005BAB;}
</style>
<path class="st0" d="M2053.7-657.2c-2.1,0-3.6,0-5.1,0C2049.8-661.3,2051.5-660.2,2053.7-657.2z"/>
<g>
	<path class="st1" d="M39.5,149.1c-1.2-0.8-1.5-1.9-1.5-3.4c0.1-9.4,0-18.7,0-28.1c0-0.4,0-0.8,0-1.2c0.1-1.3,1.1-2.1,2.3-2.1
		c1.2,0,2.2,0.9,2.3,2.2c0.1,0.7,0,1.4,0,2.2c0,8,0,16,0,24c0,0.5,0,1,0,1.6c4.6,0,9.1,0,13.8,0c0-3,0-6,0-9.1c1.6,0,3.1,0,4.7,0
		c0,3,0,6,0,9.1c4.7,0,9.3,0,13.9,0c-4.3-0.9-6.7-4.2-9.5-7.1c-9.6-10.3-19.2-20.6-28.8-30.9c-5.5-5.9-4.1-14.8,2.9-18.4
		c4.3-2.3,9.6-1.5,13.2,1.8c0.5,0.5,1,0.9,1.4,1.5c1.4,2.1,3.2,2.6,5.7,2.5c4.1-0.2,8.3-0.1,12.4-0.1c0.1,0,0.2-0.1,0.3-0.1
		c0.4-1.3,0-2.1-1.3-2.9c-6.3-3.9-9.7-9.6-10.1-17c0-0.8-0.3-1.1-1-1.4c-3.7-1.5-5.9-4.8-5.9-8.6c0-3.8,2.3-7.1,6-8.6
		c0.7-0.3,0.9-0.6,1-1.3c0.6-11.6,9.5-20.1,21.1-20.2c3.7,0,7.4-0.1,11,1.1c8.1,2.8,13.8,10.3,14.1,18.8c0,0.9,0.4,1.3,1.2,1.6
		c3.6,1.4,5.8,4.8,5.8,8.6c0,3.7-2.3,7.1-5.9,8.5c-0.8,0.3-1.1,0.7-1.1,1.5c-0.4,7.4-3.8,13.1-10.2,17c-1.3,0.8-1.6,1.6-1.2,3
		c2,0,4.1,0,6.1,0c1.8,0,2.9,0.8,2.9,2.3c0,1.5-1.1,2.4-3,2.4c-2.1,0-4.2,0-6.4,0c-1.8,5.9-5.6,9.3-11.9,9.2c-5.1,0-8.7-3.2-11-9.2
		c-0.2,0-0.5-0.1-0.7-0.1c-3.7,0-7.3,0-11.4,0c6,6.4,11.8,12.6,17.7,18.9c0.4-0.3,0.9-0.6,1.3-0.9c4-3.2,7.9-6.3,11.9-9.5
		c0.6-0.5,1.5-1,2.2-0.8c0.8,0.2,1.8,0.9,1.9,1.6c0.2,0.7-0.3,2-0.9,2.5c-2.1,1.9-4.5,3.7-6.7,5.5c-2.6,2.1-5.3,4.2-7.9,6.3
		c-1.6,1.2-2.6,1.2-4-0.3c-4.3-4.6-8.6-9.2-12.9-13.8c-0.3-0.4-0.6-0.7-1.1-1.2c-3.4,3.2-6.7,6.3-10.1,9.5c1.9,2,3.7,3.9,5.5,5.9
		c4.7,5.1,9.5,10.1,14.2,15.2c3.2,3.4,6.9,3.7,10.5,0.8c11.3-9,22.5-18,33.8-27c2.4-1.9,3.5-4.3,2.8-7.4c-0.7-2.9-2.6-4.6-5.4-5.2
		c-0.9-0.2-1.9-0.1-2.9,0.1c-1.5,0.2-2.7-0.5-3-1.8c-0.3-1.3,0.6-2.4,2.1-2.8c5.1-1.2,10.5,1.4,12.8,6.1c2.4,4.8,1.2,10.6-3.1,14.1
		c-3.1,2.6-6.4,5.1-9.6,7.7c-7.9,6.3-15.7,12.6-23.6,18.9c-2,1.6-4,3.1-6.6,3.7c9.2,0,18.4,0,27.8,0c0-0.5,0-1,0-1.5
		c0-4.7,0-9.4,0-14c0-1.8,0.8-2.9,2.3-2.9c1.4,0,2.3,1,2.3,2.9c0,5.6,0,11.3,0,16.9c0,1.4-0.3,2.5-1.5,3.4
		C86.9,149.1,63.2,149.1,39.5,149.1z M102.6,57.4c-4.3-0.4-8.2-2-11.6-4.9c-0.8-0.7-1.4-0.7-2.3-0.3c-5.2,2.2-10.7,3.5-16.3,4
		c-2.1,0.2-4.3,0.3-6.5,0.5c0,5.9-0.4,11.8,0.1,17.7c0.6,6.9,4.7,11.5,11.3,13.8c3.5,1.2,7.2,0.9,10.8,0.7
		c7.4-0.5,13.8-6.2,14.5-13.6C103,69.4,102.6,63.5,102.6,57.4z M97.6,41.9c-2.1-1.1-3.9-2.2-5.8-3c-3.4-1.4-7-1-10.6-0.9
		c-7.3,0.2-13.7,5.7-15.1,12.8c-0.1,0.3,0,0.6,0,1.1C77.5,51.7,87.9,48.9,97.6,41.9z M59,103c-3.3-3.4-6.3-6.9-9.6-10.1
		c-2.5-2.4-6.5-2.2-9.1,0.1c-2.6,2.4-3.2,6.4-1,9.1c3,3.6,6.3,6.9,9.5,10.4C52.3,109.3,55.6,106.2,59,103z M77.4,93.3
		c-0.3,3.2-0.1,6.3,3.1,8.3c2.5,1.6,5,1.6,7.5,0c3.2-2,3.5-5.2,3.1-8.3C86.6,93.3,82,93.3,77.4,93.3z M103.1,52.8
		c-0.9-2.6-1.7-4.9-2.5-7.3c-2.2,1.5-4,2.7-6,4C97.1,51.4,99.6,52.4,103.1,52.8z M61.1,67.2c0-2.5,0-5,0-7.5
		C57.9,61.4,58.4,66.1,61.1,67.2z M107.5,67.4c1.7-1.3,2.4-2.7,2.2-4.5c-0.2-1.3-0.8-2.5-2.2-3.2C107.5,62.2,107.5,64.7,107.5,67.4z
		"/>
	<path class="st1" d="M1,37.1c1.6-1.8,2.5-1.9,4.5-0.4c5.1,3.8,10.2,7.6,15.2,11.5c1,0.8,1.7,0.7,2.6,0.1c2.7-1.7,5.5-3.4,8.3-5
		c2-1.2,3.4-0.7,4.1,1.5C39.5,56,43.2,67.2,47,78.4c0.4,1.3,0.4,2.4-0.9,3.2c-1.2,0.8-2.3,0.3-3.2-0.7c-4.6-4.6-9.3-9.3-13.9-13.9
		c-0.7-0.7-1.2-0.8-2.1-0.5c-3.5,1.2-7.1,2.4-10.7,3.6c-2.1,0.7-3,0.3-3.8-1.8C8.9,58.9,5.2,49.5,1.6,40.1c-0.2-0.4-0.4-0.8-0.6-1.2
		C1,38.3,1,37.7,1,37.1z M39.2,70.6c0.1,0,0.2-0.1,0.3-0.1c-2.4-7.3-4.9-14.6-7.4-22.1c-2.9,1.8-5.8,3.4-8.5,5.1
		c-1.3,0.8-2.5,0.8-3.7-0.2c-1.3-1.1-2.8-2.1-4.2-3.1c-2.3-1.7-4.7-3.5-7-5.2c-0.1,0.1-0.1,0.1-0.2,0.2c2.6,6.7,5.1,13.3,7.7,20.1
		c3.7-1.3,7.4-2.4,10.9-3.7c1.6-0.6,2.7-0.3,3.9,0.9C33.7,65.2,36.5,67.9,39.2,70.6z"/>
	<path class="st1" d="M131.3,75.7c-2.7,3.8-5.4,7.6-8.1,11.4c-0.7,1-1.4,2-2.2,3.1c-0.7,1-1.7,1.5-2.9,0.9c-1.2-0.5-1.6-1.5-1.4-2.7
		c1.3-7.6,2.6-15.3,3.8-22.9c0.2-1.4,0.5-2.8,0.7-4.1c0.4-2,1.4-2.7,3.4-2.2c2,0.5,4,0.9,6,1.5c1,0.3,1.6,0,2.3-0.8
		c3.8-4.6,7.8-9.1,11.7-13.6c1.3-1.5,3-1.7,3.9-0.3c0.4,0.6,0.5,1.5,0.4,2.2c-2.2,9.8-4.5,19.5-6.7,29.3c-0.5,2.3-1.8,2.8-4,1.8
		C136,78,133.7,76.8,131.3,75.7z M138.3,73.9c1.3-5.9,2.7-11.6,4-17.3c-2.6,2.5-4.9,5.2-7.2,7.8c-0.9,1.1-1.9,1.5-3.3,1.1
		c-2-0.6-4.1-1-6.3-1.6c-0.8,5-1.7,9.9-2.5,14.8c1.9-2.2,3.6-4.6,5.3-6.9c1.2-1.7,2-1.9,3.9-1C134.2,71.9,136.2,72.9,138.3,73.9z"/>
	<path class="st1" d="M39.6,31.7c-2.3,1.1-4.5,2.3-6.7,3.4c-2.4,1.2-3.6,0.6-4.2-2c-2.2-9.6-4.5-19.3-6.7-28.9
		c-0.3-1.3,0-2.3,1.2-2.9c1.3-0.6,2.2-0.1,3,0.9c4,4.6,8,9.3,11.9,13.9c0.5,0.6,1,0.8,1.8,0.6c2.1-0.6,4.3-1.1,6.4-1.6
		c1.8-0.4,2.9,0.3,3.2,2.1c1.5,9.1,3,18.1,4.6,27.2c0.2,1.2-0.2,2.2-1.4,2.7c-1.3,0.6-2.2,0-3-1c-3.1-4.3-6.2-8.6-9.2-12.9
		C40.3,32.6,40,32.2,39.6,31.7z M29,12.5c-0.1,0.1-0.2,0.1-0.3,0.2c1.3,5.7,2.6,11.4,4,17.2c2-1,3.8-1.9,5.6-2.8
		c2.4-1.2,3-1,4.6,1.1c1.6,2.2,3.2,4.4,4.7,6.6c0.1,0,0.2-0.1,0.3-0.1c-0.8-4.9-1.6-9.8-2.5-14.8c-2,0.5-3.9,0.9-5.7,1.5
		c-1.8,0.6-3,0.1-4.1-1.3C33.4,17.5,31.2,15.1,29,12.5z"/>
	<path class="st1" d="M26.4,93.1c0,2.1-1.8,3.3-3.3,2.4c-2.5-1.5-5-3.2-7.4-4.9c-1-0.7-1.1-1.9-0.4-3c0.6-1,1.9-1.4,3-0.7
		c2.4,1.5,4.8,3.1,7.2,4.8C26,92.1,26.3,92.8,26.4,93.1z"/>
	<path class="st1" d="M24.5,105c0.5,0.4,1.3,0.9,1.7,1.6c0.6,0.9,0.2,2-0.6,2.6c-2.4,1.7-4.9,3.4-7.4,4.9c-1.1,0.7-2.2,0.2-2.9-0.8
		c-0.7-1-0.6-2.2,0.3-2.9c2.5-1.8,5.1-3.4,7.7-5.1C23.5,105.1,23.8,105.1,24.5,105z"/>
	<path class="st1" d="M17.1,102.8c-0.8,0-1.5,0-2.3,0c-1.4-0.1-2.3-1.1-2.3-2.3c0-1.2,0.9-2.2,2.2-2.2c1.6-0.1,3.2-0.1,4.8,0
		c1.4,0.1,2.3,1.1,2.3,2.3c0,1.2-0.9,2.1-2.2,2.2C18.8,102.8,18,102.8,17.1,102.8z"/>
	<path class="st1" d="M84.5,77.3c2.7,0,5.3,0.7,7.6,2.4c1.5,1.1,1.8,2.4,1,3.6c-0.8,1.2-2.1,1.3-3.7,0.2c-2.9-2.1-7.4-2.1-10.3,0
		c-1.5,1-2.8,1-3.7-0.3c-0.8-1.2-0.5-2.5,1-3.6C78.9,78,81.5,77.3,84.5,77.3z"/>
	<path class="st1" d="M85.1,70.3c1.5,1.3,1.9,2.4,1.2,3.5c-0.7,1.1-2.1,1.5-3.7,0.8c-1.7-0.7-2.9-2.5-2.9-4.3c0-1.9,1.2-3.6,3.1-4.3
		c1.6-0.6,2.9-0.2,3.6,0.9C87,68.1,86.6,69.1,85.1,70.3z"/>
	<path class="st1" d="M72.7,66.2c-0.8-0.7-1.6-1.2-2-2c-0.5-0.9-0.2-2,0.7-2.5c1.7-1,3.6-1.9,5.4-2.7c1-0.4,1.9,0,2.5,0.9
		c0.6,0.9,0.7,2.1-0.1,2.6C77.2,63.8,75,64.8,72.7,66.2z"/>
	<path class="st1" d="M91.6,58.8c0.2,0.1,0.6,0.2,1,0.4c1.5,0.7,3,1.5,4.5,2.3c1.1,0.6,1.4,1.9,0.9,3c-0.6,1.1-1.7,1.6-2.9,1.1
		c-1.7-0.7-3.3-1.6-4.9-2.4c-1-0.5-1.3-1.5-1-2.6C89.3,59.5,90.3,58.8,91.6,58.8z"/>
</g>
</svg>
