<?xml version="1.0" encoding="utf-8"?>
<!-- Generator: Adobe Illustrator 24.3.0, SVG Export Plug-In . SVG Version: 6.00 Build 0)  -->
<svg version="1.1" id="Layer_1" xmlns="http://www.w3.org/2000/svg" xmlns:xlink="http://www.w3.org/1999/xlink" x="0px" y="0px"
	 viewBox="0 0 150 150" style="enable-background:new 0 0 150 150;" xml:space="preserve">
<style type="text/css">
	.st0{fill:#CDEEFD;}
	.st1{fill:#111224;}
	.st2{fill:#005BAB;}
</style>
<path class="st0" d="M1465.3,1556.3c-2.4-0.2-4.3-1.3-4.4-4.1c-0.1-6.7,1.6-10,4.9-9.9c0.2,0,0.3,0,0.5,0c2.2,0.5,4.3,2.1,3.2,4
	C1467.7,1549.5,1473.1,1555.7,1465.3,1556.3z M1465.5,1554.4c1.3-0.1,2.3-0.6,2.3-2.1c-0.1-1.7-1.5-2.1-2.8-2.4c-1.6-0.4-2,0.8-2,2
	C1463,1553.5,1464,1554.2,1465.5,1554.4z M1467.8,1546.5c0-1.4-0.6-2.2-2.1-2.2c-0.9,0-1.6,0.4-1.7,1.4c-0.2,1.4,0.9,2.1,2,2.5
	C1467.3,1548.5,1467.6,1547.5,1467.8,1546.5z"/>
<path class="st0" d="M1455.8,1556.6c-0.5-2.9-1.8-4.2-4.6-3.6c-0.7,0.2-1.7,0.3-2.1-0.8c-0.4-1.1,0.1-1.5,1.2-2.1
	c2.1-1.2,2.1-3.9,3.2-5.8c0.6-1,1-2.2,2.5-1.9c1.4,0.3,0.9,1.6,0.8,2.5C1456.4,1548.6,1458.4,1552.5,1455.8,1556.6z"/>
<path class="st1" d="M1465.5,1554.4c-1.5-0.1-2.6-0.8-2.5-2.4c0-1.2,0.4-2.4,2-2c1.2,0.3,2.7,0.7,2.8,2.4
	C1467.8,1553.7,1466.8,1554.2,1465.5,1554.4z"/>
<path class="st1" d="M1467.8,1546.5c-0.2,1-0.5,2.1-1.8,1.7c-1.1-0.4-2.1-1-2-2.5c0.1-1,0.8-1.4,1.7-1.4
	C1467.2,1544.3,1467.8,1545,1467.8,1546.5z"/>
<polygon class="st2" points="1346.8,29.4 1346.9,29.6 1346.6,29.6 "/>
<g>
	<path class="st2" d="M47.7,149.4c-1.2-0.6-1.6-1.5-1.6-2.9c0-5.3,0-10.6,0.1-15.8c0-1.3-0.5-1.8-1.6-2.2c-4.2-1.2-8.3-2.5-12.5-3.8
		c-4.5-1.4-6.7-5.2-5.8-9.8c1.4-6.5,2.8-13,4.3-19.4c0.4-1.9,1.1-3.7,1.8-5.5c0.6-1.4,1.7-1.9,2.9-1.4c1.2,0.5,1.5,1.7,1.1,3.2
		c-1.1,3.7-2.2,7.4-3.3,11.3c4.6,0,8.7,0,13.1,0c0-1,0-1.9,0-2.9c0-1.5,0.9-2.4,2.1-2.4c1.2,0,2.2,0.9,2.2,2.4c0,3.4,0.1,6.9,0,10.3
		c0,1,0.2,1.5,1.3,1.9c5.1,1.9,10.1,3.9,15.2,5.9c0.8,0.3,1.5,0.3,2.3-0.2c1.5-0.9,3.1-1.8,4.7-2.7c4.1-2.3,6.7-1.4,8.5,3.1
		c0.9-0.3,1.8-0.6,2.7-1c4.4-1.7,8.9-3.4,13.3-5c0.9-0.3,1.2-0.8,1.2-1.8c-0.1-3.3,0-6.6,0-9.9c0-0.5,0-1,0.1-1.4
		c0.3-1.1,1.1-1.6,2.1-1.6c1.1,0,1.9,0.7,2,1.9c0.1,1.1,0,2.2,0,3.4c4.3,0,8.5,0,12.8,0c-1.1-5.6-2-11.3-5.8-15.9
		c-3.5-4.3-8-7.1-13.4-8.3c-0.6-0.1-1.4,0.1-1.8,0.5c-3.5,2.7-7.5,4-11.9,4.1c-5.8,0-11.6,0-17.4,0c-4.4,0-8.3-1.4-11.9-4.1
		c-0.5-0.4-1.4-0.6-2-0.4c-3.6,0.8-6.9,2.3-9.7,4.7c-0.2,0.2-0.4,0.4-0.7,0.5c-1.2,0.8-2.5,0.7-3.2-0.3c-0.7-1-0.6-2.2,0.5-3.1
		c2.8-2.5,6.1-4.3,9.7-5.5c0.4-0.1,0.7-0.2,0.9-0.3c-0.9-2.5-1.7-4.9-2.6-7.3c-0.1-0.3-0.8-0.4-1.3-0.5c-1.9-0.4-4-0.4-5.8-1.1
		c-3.9-1.7-5.9-5-6.1-9.3c-0.1-1.9,0-3.8,0.3-5.6c0.2-1.1,0.5-2.4,1.3-3.2c1.7-1.8,1.5-3.6,1-5.8c-1.2-5.2-1.7-10.5-0.3-15.8
		c0.1-0.4,0-0.9-0.1-1.3c-1.8-5.7-0.3-10.5,3.6-14.7c4.1-4.4,9.3-6.7,15-8.1c12.1-3,23.9-2,35.4,3c0.2,0.1,0.4,0.2,0.5,0.2
		c1.4,0.7,1.9,1.9,1.3,3.1c-0.5,1.1-1.7,1.4-3.1,0.9C85.4,8.3,82,6.8,78.5,6.1c-9.3-1.9-18.6-1.6-27.5,2.1c-3.3,1.4-6.3,3.2-8.6,6
		c-2.4,3-3.1,6.2-1.9,9.9c0.3,1,0.3,2.3,0.1,3.4c-1,4-0.6,11.9,0.8,15.6c1.8-0.2,3.5-0.3,5.5-0.5c0-1.9-0.1-3.9,0-5.9
		c0.1-1.7,0.4-3.5,1-5.1c1.5-3.6,4-4.5,7.6-3.3c10,3.4,20.2,3.9,30.4,1.1c2.2-0.6,4.3-1.5,6.3-2.5c2.2-1.1,4.3-1,6.3,0.5
		c3,2.2,4.5,5.2,4.5,9c0,2.1,0,4.1,0,6.2c1.9,0.2,3.7,0.3,5.6,0.5c0.9-3.9,1.6-7.9,1.3-12.1c-0.1-1.3-0.4-2.7-0.8-4
		c-0.7-2.4-2.4-3.8-5-3.9c-2.1-0.1-3.2-1.1-4-3c-0.8-1.7-1.9-3.2-3-4.8c-1-1.4-1.1-2.6-0.1-3.5c1-0.9,2.4-0.8,3.4,0.6
		c1.3,1.7,2.4,3.6,3.6,5.4c0.3,0.4,0.8,0.9,1.2,1c4.6,0.6,7.1,3.4,8.3,7.7c1.4,5,0.8,10.1-0.1,15.1c0,0.1,0,0.2-0.1,0.3
		c-0.7,2.2-0.4,4,0.9,6.2c2.6,4.4,2.5,9.2,0.1,13.7c-2,3.8-5.5,5.5-9.8,5.3c-1.3,0-1.9,0.2-2.2,1.6c-0.5,2.1-1.5,4-2.4,6.1
		c1.1,0.4,2.4,0.9,3.7,1.4c8.8,4,14,10.9,16,20.2c1.3,6.1,2.6,12.1,3.9,18.2c1.1,4.8-1,8.5-5.8,10c-4.2,1.3-8.4,2.7-12.6,3.9
		c-1.1,0.3-1.4,0.7-1.4,1.9c0.1,5.3,0,10.6,0,15.8c0,1.3-0.3,2.4-1.6,3c-0.5,0-1,0-1.5,0c-1.2-0.8-1.4-1.9-1.4-3.3c0-4.7,0-9.3,0-14
		c0-0.5,0-1,0-1.7c-5.2,1.6-10.1,3.1-15.1,4.7c-0.5,0.1-0.8,0.6-1.2,1c-3.1,2.7-6.6,4.7-10.8,3.5c-2-0.5-4-1.6-5.6-2.9
		c-4.8-3.7-10.6-4.5-16.2-6.5c0,0.7,0,1.3,0,1.8c0,4.7,0,9.3,0,14c0,1.3-0.2,2.5-1.4,3.3C48.6,149.4,48.2,149.4,47.7,149.4z
		 M98.8,50.3c0-4.6,0-9.1,0-13.7c0-1.9-0.5-3.6-1.8-5c-1-1-1.9-1.5-3.3-0.6c-0.6,0.4-1.4,0.7-2.1,1c-12,4.8-24.2,4.5-36.4,0.7
		c-2.7-0.8-3.4-0.5-3.8,2.5c-0.1,0.5-0.1,1-0.1,1.4c0,8.9,0,17.8,0,26.7c0,9.2,6.5,15.6,15.7,15.6c5.3,0,10.7,0,16,0
		c9.3,0,15.8-6.5,15.8-15.8C98.8,59,98.8,54.6,98.8,50.3z M46.1,107.6c-4.7,0-9.2,0-13.8,0c-0.6,3-1.3,5.9-1.8,8.8
		c-0.4,2.1,0.7,3.5,2.9,4.2c6,1.8,12,3.7,18,5.5c7,2.1,14.2,3.9,20.1,8.7c0.6,0.5,1.4,0.7,2.1,0.8c3.5,0.3,5.9-1.5,7.8-4.1
		c2.2-3,1.9-4.1-1.4-5.8c-2.1-1.1-2.9-2.7-2.6-5c0.1-0.7,0.1-1.4,0.2-2.4c-0.7,0.4-1.1,0.5-1.6,0.8c-1.9,1.1-3.9,2.2-5.8,3.3
		c-1.3,0.7-2.6,0.8-4,0.3c-6.1-2.4-12.3-4.7-18.4-7.1c-1.2-0.5-1.8-1.3-1.8-2.7C46.2,111.2,46.1,109.5,46.1,107.6z M117.6,107.6
		c-4.7,0-9.2,0-13.8,0c0,1.7,0,3.4,0,5c0,2.2-0.3,2.5-2.3,3.3c-5.5,2.1-10.9,4.1-16.4,6.2c-0.4,0.1-0.7,0.3-0.9,0.4
		c0.9,1.1,1.9,2,2.4,3.2c0.5,1.2,0.6,2.6,0.8,3.9c0,0,0.2,0,0.3,0c9.7-3,19.5-6.1,29.2-9.1c2-0.6,2.9-2.2,2.5-4.3
		C118.9,113.3,118.3,110.5,117.6,107.6z M46.8,62.7c0-5.2,0-10.4,0-15.5c-4.4-0.6-7.6,1.3-8.3,5.1c-0.2,1-0.1,2-0.1,3
		C38.4,60.7,41.3,63.3,46.8,62.7z M103.2,47.2c0,5.2,0,10.4,0,15.5c4.5,0.5,7.6-1.4,8.3-5.2c0.2-1,0.1-2.1,0.1-3.2
		C111.6,49.2,108.5,46.5,103.2,47.2z"/>
	<path class="st2" d="M114.2,136.7c-1.4-0.4-2.7-0.7-4-1c-1.5-0.4-2.3-1.5-1.9-2.7c0.4-1.3,1.5-1.9,3-1.5c1.7,0.4,3.5,0.9,5.2,1.3
		c3.5,0.9,4.2,2.7,2.1,5.9c1.3,0.3,2.5,0.6,3.8,1c1.7,0.4,2.4,1.4,2.1,2.8c-0.3,1.3-1.5,1.9-3.1,1.5c-1.9-0.4-3.7-0.9-5.6-1.4
		c-2.8-0.7-3.6-2.8-1.9-5.1C113.9,137.2,114,137,114.2,136.7z"/>
	<path class="st2" d="M31.5,138.6c-0.4-0.6-0.7-1-0.9-1.4c-0.9-1.7-0.1-3.6,1.8-4.1c2.1-0.6,4.3-1.2,6.5-1.7
		c1.5-0.3,2.5,0.3,2.9,1.5c0.3,1.2-0.4,2.3-1.8,2.7c-0.7,0.2-1.4,0.4-2.1,0.5c-0.6,0.2-1.3,0.3-2,0.5c0.3,0.5,0.6,0.8,0.8,1.2
		c1,1.7,0.4,3.7-1.5,4.3c-2.3,0.7-4.7,1.3-7,1.8c-1.3,0.3-2.3-0.5-2.5-1.6c-0.3-1.2,0.3-2.2,1.6-2.6
		C28.5,139.4,29.9,139.1,31.5,138.6z"/>
	<path class="st2" d="M85.3,103.6c-0.5,1.3-0.9,2.6-1.4,3.8c-0.6,1.5-1.7,2.1-2.9,1.6c-1.3-0.5-1.7-1.6-1.2-3.1
		c0.6-1.6,1.2-3.3,1.8-4.9c1.3-3.5,3.1-4,6.1-1.6c0.5-1.3,0.9-2.5,1.4-3.8c0.6-1.5,1.6-2.1,2.9-1.7c1.3,0.4,1.7,1.7,1.2,3.2
		c-0.6,1.8-1.3,3.6-1.9,5.3c-1.1,2.9-3.1,3.4-5.5,1.4C85.6,103.8,85.5,103.8,85.3,103.6z"/>
	<path class="st2" d="M62.3,99.5c0.4-0.4,0.7-0.6,1-0.9c1.6-1.3,3.8-0.8,4.6,1.1c0.9,2.1,1.7,4.3,2.4,6.5c0.4,1.3-0.2,2.4-1.3,2.8
		c-1.2,0.4-2.2-0.1-2.7-1.5c-0.5-1.3-1-2.6-1.5-4c-0.4,0.3-0.7,0.6-1,0.9c-1.6,1.2-3.7,0.8-4.5-1.1c-0.9-2.2-1.7-4.4-2.4-6.7
		c-0.4-1.2,0.2-2.3,1.3-2.7c1.2-0.4,2.3,0.1,2.8,1.4C61.3,96.7,61.8,98,62.3,99.5z"/>
	<path class="st2" d="M74.9,74.3c-2,0-4.1,0-6.1,0c-3.4-0.1-5.9-1.8-7-4.7c-1-2.7-0.2-5.6,1.9-7.5c2.3-2,5.6-2.5,8.4-0.9
		c2.1,1.2,3.8,1.2,5.8-0.1c2.6-1.6,6-1.1,8.2,0.9c2.2,1.9,3,4.9,2,7.5c-1,2.8-3.4,4.7-6.6,4.8C79.4,74.3,77.1,74.3,74.9,74.3
		C74.9,74.3,74.9,74.3,74.9,74.3z M75,69.9c2,0,4,0,6,0c0.6,0,1.3-0.1,1.8-0.3c1.3-0.6,1.8-2.2,1.2-3.4c-0.7-1.4-2.3-2-3.8-1.4
		c-1.2,0.5-2.3,1.1-3.4,1.5c-2.4,0.7-4.5-0.2-6.6-1.4c-1.2-0.7-2.5-0.5-3.5,0.5c-0.8,0.8-1.1,1.7-0.6,2.8c0.5,1.3,1.6,1.8,2.9,1.8
		C70.9,69.9,72.9,69.9,75,69.9z"/>
	<path class="st2" d="M59.7,48.5c-1.6,0-2.6-0.7-2.7-2c-0.1-1.3,0.8-2.2,2.5-2.3c2.6-0.2,4.9-1.1,6.8-2.9c1.3-1.2,2.6-1.2,3.5-0.2
		c0.9,1,0.7,2.2-0.6,3.4C66.5,47,63.3,48.3,59.7,48.5z"/>
	<path class="st2" d="M90.3,48.5c-3.7-0.2-6.9-1.5-9.6-4.1c-1.2-1.2-1.4-2.4-0.4-3.4c0.9-0.9,2.2-0.9,3.3,0.2c2,1.9,4.3,2.8,7,3
		c1.6,0.1,2.5,1,2.4,2.3C92.9,47.8,91.9,48.6,90.3,48.5z"/>
	<path class="st2" d="M64.6,51.5c0.5,0,1.1-0.1,1.6,0c1.1,0.2,1.8,0.8,1.9,2c0.1,1.2-0.5,2-1.7,2.2c-1.2,0.2-2.5,0.2-3.7,0
		c-1.2-0.2-1.9-1.1-1.8-2.3c0.1-1.2,0.8-1.9,2.1-2C63.5,51.4,64,51.5,64.6,51.5C64.6,51.5,64.6,51.5,64.6,51.5z"/>
	<path class="st2" d="M85.5,55.8c-0.6,0-1.2,0.1-1.7,0c-1.2-0.2-1.9-1-1.8-2.2c0.1-1.2,0.8-1.9,2-2c1-0.1,1.9-0.1,2.9,0
		c1.4,0.1,2.2,0.9,2.3,2.1c0,1.2-0.9,2.1-2.2,2.2C86.4,55.8,86,55.8,85.5,55.8C85.5,55.8,85.5,55.8,85.5,55.8z"/>
</g>
</svg>
