<?xml version="1.0" encoding="utf-8"?>
<!-- Generator: Adobe Illustrator 24.3.0, SVG Export Plug-In . SVG Version: 6.00 Build 0)  -->
<svg version="1.1" id="Layer_1" xmlns="http://www.w3.org/2000/svg" xmlns:xlink="http://www.w3.org/1999/xlink" x="0px" y="0px"
	 viewBox="0 0 150 150" style="enable-background:new 0 0 150 150;" xml:space="preserve">
<style type="text/css">
	.st0{fill:#CDEEFD;}
	.st1{fill:#111224;}
	.st2{fill:#005BAB;}
</style>
<path class="st0" d="M1465.3,1556.3c-2.4-0.2-4.3-1.3-4.4-4.1c-0.1-6.7,1.6-10,4.9-9.9c0.2,0,0.3,0,0.5,0c2.2,0.5,4.3,2.1,3.2,4
	C1467.7,1549.5,1473.1,1555.7,1465.3,1556.3z M1465.5,1554.4c1.3-0.1,2.3-0.6,2.3-2.1c-0.1-1.7-1.5-2.1-2.8-2.4c-1.6-0.4-2,0.8-2,2
	C1463,1553.5,1464,1554.2,1465.5,1554.4z M1467.8,1546.5c0-1.4-0.6-2.2-2.1-2.2c-0.9,0-1.6,0.4-1.7,1.4c-0.2,1.4,0.9,2.1,2,2.5
	C1467.3,1548.5,1467.6,1547.5,1467.8,1546.5z"/>
<path class="st0" d="M1455.8,1556.6c-0.5-2.9-1.8-4.2-4.6-3.6c-0.7,0.2-1.7,0.3-2.1-0.8c-0.4-1.1,0.1-1.5,1.2-2.1
	c2.1-1.2,2.1-3.9,3.2-5.8c0.6-1,1-2.2,2.5-1.9c1.4,0.3,0.9,1.6,0.8,2.5C1456.4,1548.6,1458.4,1552.5,1455.8,1556.6z"/>
<path class="st1" d="M1465.5,1554.4c-1.5-0.1-2.6-0.8-2.5-2.4c0-1.2,0.4-2.4,2-2c1.2,0.3,2.7,0.7,2.8,2.4
	C1467.8,1553.7,1466.8,1554.2,1465.5,1554.4z"/>
<path class="st1" d="M1467.8,1546.5c-0.2,1-0.5,2.1-1.8,1.7c-1.1-0.4-2.1-1-2-2.5c0.1-1,0.8-1.4,1.7-1.4
	C1467.2,1544.3,1467.8,1545,1467.8,1546.5z"/>
<polygon class="st2" points="1346.8,29.4 1346.9,29.6 1346.6,29.6 "/>
<g>
	<path class="st2" d="M127.9,60.2c-0.1,0.6-0.3,1.3-0.4,1.9c-0.6,3.3-1.9,6.4-3.9,9.2c-3.6,5-3.5,10.1-0.4,15.2
		c1.6,2.5,2.5,5.3,2.4,8.3c-0.2,5.6-5.8,9.3-11.1,7.3c-0.5-0.2-1.1-0.4-1.7-0.7c-0.4,1.3-0.8,2.5-1.3,3.7c-0.8,2.2-1.5,2.5-3.8,2.1
		c-4.1-0.8-8.1-1.4-12.2-2.1c-1.3-0.2-2.5,0.2-3,1.6c-0.5,1.4,0.3,2.2,1.3,3c2.2,1.6,4.4,3.3,6.6,5c1.7,1.3,1.9,2.5,0.5,4.1
		c-3,3.6-6,7.2-9,10.8c-4.5,5.2-11.3,5.2-15.8,0c-3.1-3.6-6.2-7.3-9.5-11c-3.1,4.8-6.7,9.5-4.5,15.7c0.5,1.6,1.4,3.1,2.4,4.4
		c1.9,2.5,3.9,5,6,7.5c-1.2,1-2.4,1.9-3.7,3c-1-1.2-2-2.4-2.8-3.5c-0.7-0.9-1.5-1.3-2.6-1.5c-5.4-0.8-10.7-1.6-15.8-3.6
		c-11-4.2-19.7-11.3-26.1-21.2c-0.3-0.4-0.5-0.8-0.9-1.4c-4.9,5.7-9.7,11.3-14.6,17c-1.2-1-2.4-2-3.6-3.1c3-3.5,5.9-6.9,8.8-10.3
		c5.9-6.9,11.9-13.9,17.9-20.8c0.7-0.8,0.9-1.5,0.5-2.5c-4.3-13.7-6.4-27.7-6.4-42c0-9.9,2.5-19.2,7.5-27.8c0.2-0.3,0.3-0.6,0.5-0.9
		c0,0,0-0.1,0-0.3c-1-0.3-2.1-0.5-3.2-0.9c-2.3-0.8-4.7-1.5-6.8-2.7c-3.9-2.2-3.8-6,0.1-8.2C23,13.4,27,12.5,31,11.8
		c5-0.9,10-1.4,14.9-2.2c0.8-0.1,1.5-0.4,2.2-0.8C57,3.5,66.7,0.8,77,0.7c8.2,0,16.5,0,24.7,0c11,0,20.9,3.4,29.9,9.8
		c0.8,0.6,2,0.8,3,1.1c3.3,1,6.7,1.8,9.9,2.8c1.2,0.4,2.4,1.2,3.4,2.1c2,1.8,2,4.5,0,6.2c-1.4,1.2-3.1,2-4.8,3c0.4,2,1,4.1,1.2,6.2
		c1.1,13.2-2.3,25.2-9.5,36.2c-0.4,0.7-1.7,1.3-2.4,1.2c-0.7-0.1-1.6-1.1-1.9-1.9c-0.9-2.4-1.5-4.8-2.3-7.3
		C128.1,60.2,128,60.2,127.9,60.2z M63.9,88.6c-1-0.1-1.8-0.2-2.6-0.4c-1-0.2-2-0.5-3-0.9c-0.7-0.3-1.2-0.3-1.8,0.4
		c-6.4,7.1-14.3,11.9-23.5,14.5c-0.6,0.2-1.2,0.6-1.5,1c-2.9,3.3-5.7,6.7-8.6,10c-0.7,0.8-0.6,1.3-0.1,2.2
		c5.9,10.1,14.4,17.2,25.5,21.1c3.4,1.2,7,1.8,10.8,2.8c-0.3-0.7-0.3-0.9-0.4-1.2c-2.6-5.9-2.2-11.5,1.1-17c1.1-1.8,2.1-3.7,3.3-5.4
		c0.5-0.7,0.5-1.3,0-2c-1.1-1.6-2.1-3.2-3.3-4.9c1.3-0.9,2.6-1.7,3.9-2.6c0.2,0.2,0.4,0.4,0.5,0.5c4.4,7.3,10.4,13.4,15.9,19.9
		c2.4,2.9,6.2,2.8,8.6,0c0.8-0.9,1.6-1.9,2.4-2.8c1.8-2.1,3.5-4.2,5.3-6.4c-2-1.5-3.9-2.8-5.7-4.3c-2.3-1.9-3.2-4.3-2.5-7.3
		c0.7-3,2.7-4.8,5.7-5.3c1.4-0.2,3-0.2,4.4,0c3.1,0.4,6.2,1,9.5,1.5c0.5-1.4,1-3,1.5-4.5c0.7-1.9,1.9-2.4,3.7-1.5
		c1,0.5,1.9,1,2.9,1.4c2.9,1.3,5.5-0.4,5.1-3.5c-0.3-1.9-1.1-3.8-2-5.5c-3.4-6.2-4.1-12.6,0.1-18.5c4.8-6.6,4.4-13.8,4.2-21.2
		c-3.1,2.2-6,4.5-9.1,6.5c-14.4,9.3-30.1,14-47.2,14.2c-1.5,0-2.2-0.7-3-2c-0.8-1.4-1.9-2.9-3.2-3.9c-2.4-1.7-5.1-1.8-7.7-0.3
		c-2.5,1.5-3.5,3.9-3.2,6.8c0.3,3.4,1.7,6.4,4.3,8.7c2.8,2.5,5.7,4.9,9.8,4.8C63.9,85.4,63.9,86.9,63.9,88.6z M32.2,97.5
		c8.4-2.6,15.3-6.8,21-13.2c-3.2-2.3-5.5-5-6.9-8.4c-1.4-3.7-2-7.6-0.3-11.4c1.8-4.1,5.1-6.4,9.5-6.8c5-0.4,8.9,1.7,11.7,5.9
		c0.5,0.7,0.9,1.2,1.9,1.2c14.2-0.6,27.6-4.3,39.7-11.9c5.2-3.2,9.9-7.3,14.9-11c1.9-1.5,3.6-1,4.3,1.3c0.5,1.6,1,3.3,1.5,5
		c1.3,4.3,2.6,8.6,3.9,12.8c5.4-10.8,8.3-21.9,5.1-34c-0.6,0.1-0.9,0.1-1.1,0.1c-8.8,2-17.7,2.9-26.7,3.4c-11,0.6-22.1,0.9-33.2,0.9
		c-13.9,0.1-27.7-1.1-41.5-3c-1.1-0.2-1.7,0.1-2.2,1c-5,8.1-7.6,16.9-7.7,26.4c-0.1,9.4,0.8,18.6,2.8,27.8
		C29.8,88.3,31.1,92.8,32.2,97.5z M37.7,24.1c33.1,3.9,65.7,3.9,98.6-1.3c-1.6-2.8-3.4-5-5.6-6.8C122.7,9.3,113.4,5.7,103,5.5
		c-8.5-0.2-17,0-25.5,0c-9.5,0-18.4,2.4-26.6,7.3C45.9,15.7,41.7,19.4,37.7,24.1z M21.9,19.5c0,0.2-0.1,0.5-0.1,0.7
		c2.6,0.8,5.3,1.5,7.9,2.3c1.9,0.6,3.3,0.4,4.4-1.5c0.6-1,1.5-1.8,2.3-2.7c1-1,2.1-1.9,3.2-2.8c-0.1-0.2-0.3-0.3-0.4-0.5
		C33.3,16.2,27.4,16.9,21.9,19.5z M144.3,19.5c-1.9-0.7-3.6-1.4-5.6-2.2C140.9,21.6,141.5,21.8,144.3,19.5z"/>
	<path class="st2" d="M149.2,147.8c-1.5,0-2.9,0-4.6,0c0-1.1,0-2.2,0-3.4c0.1-4.7-0.1-9.4-1.8-13.9c-4.4-11.5-12.7-18.4-24.9-20.5
		c-0.6-0.1-1.2-0.2-1.9-0.3c0.1-1.5,0.2-3,0.3-4.7c9,0.8,16.6,4.4,22.8,10.8C147.8,124.8,150.3,135.7,149.2,147.8z"/>
	<path class="st2" d="M103.2,121.2c0.7-1.2,1.5-2.5,2.2-3.7c8.7,3.2,14.5,16.8,13,30.2c-1.4,0-2.9,0-4.6,0c0-0.5,0-1.1,0-1.7
		c-0.1-3.3,0.1-6.7-0.5-9.9c-1-6-4.2-10.7-9.2-14.1c-0.3-0.2-0.6-0.4-0.8-0.6C103.3,121.4,103.2,121.3,103.2,121.2z"/>
	<path class="st2" d="M139.8,140.3c-1.6,0.2-3,0.4-4.6,0.7c-0.3-2-0.6-3.9-0.9-5.7c-0.8-6-3.9-10.4-9.1-13.5
		c-0.2-0.1-0.3-0.2-0.6-0.4c0.7-1.4,1.3-2.7,2-4.1C134.6,121.2,138.9,127.9,139.8,140.3z"/>
	<path class="st2" d="M19,3.2c1.5,0,3,0,4.6,0c0,1.5,0,3,0,4.6c-1.5,0-3,0-4.6,0C19,6.3,19,4.8,19,3.2z"/>
	<path class="st2" d="M137.6,3.2c1.5,0,3,0,4.5,0c0,1.5,0,3,0,4.6c-1.5,0-3,0-4.5,0C137.6,6.3,137.6,4.8,137.6,3.2z"/>
	<path class="st2" d="M14.1,29.1c-1.5,0-3,0-4.5,0c0-1.5,0-3,0-4.6c1.5,0,3,0,4.5,0C14.1,26.1,14.1,27.6,14.1,29.1z"/>
	<path class="st2" d="M90.2,81.4c0-1.6,0-3.1,0-4.7c2.7,0,5.4,0,8.4,0c-2-1.9-3.7-3.5-5.5-5.3c1.3-1.3,2.4-2.3,3.6-3.4
		c3.1,3.1,6.3,6.2,9.4,9.5c0.5,0.5,0.6,1.8,0.3,2.4c-0.3,0.7-1.4,1.4-2.1,1.4C99.6,81.4,95,81.4,90.2,81.4z"/>
	<path class="st2" d="M54.6,76.6c0-1.6,0-3,0-4.6c2.7-0.5,2.4-2.6,2.3-4.7c1.6,0,3.1,0,4.6,0C62.5,72.2,59.5,76.4,54.6,76.6z"/>
	<path class="st2" d="M71.1,36.4c0,1.6,0,3,0,4.5c-1.5,0-3,0-4.6,0c0-1.4,0-2.9,0-4.5C68,36.4,69.5,36.4,71.1,36.4z"/>
	<path class="st2" d="M42.7,43.5c0-1.5,0-3,0-4.7c1.5,0,3,0,4.7,0c0,1.6,0,3.1,0,4.7l0,0C45.8,43.4,44.2,43.4,42.7,43.5L42.7,43.5z"
		/>
	<path class="st2" d="M42.7,48.2c-1.5,0-3,0-4.7,0c0-1.5,0-3,0-4.7c1.6,0,3.1,0,4.7,0c0,0,0,0,0,0C42.6,45,42.6,46.6,42.7,48.2
		L42.7,48.2z"/>
	<path class="st2" d="M47.4,43.5c1.5,0,3,0,4.7,0c0,1.5,0,3,0,4.7c-1.5,0-3.1,0-4.7,0l0,0C47.4,46.6,47.4,45,47.4,43.5L47.4,43.5z"
		/>
	<path class="st2" d="M47.4,48.2c0,1.5,0,3,0,4.7c-1.5,0-3,0-4.7,0c0-1.6,0-3.1,0-4.7l0,0C44.2,48.2,45.8,48.2,47.4,48.2L47.4,48.2z
		"/>
	<path class="st2" d="M87.7,15c0-1.5,0-3,0-4.7c1.5,0,3,0,4.7,0c0,1.6,0,3.1,0,4.7l0,0C90.9,15,89.3,15,87.7,15L87.7,15z"/>
	<path class="st2" d="M111.5,12.7c1.6,0,3,0,4.6,0c0,1.5,0,3,0,4.6c-1.5,0-3,0-4.6,0C111.5,15.8,111.5,14.3,111.5,12.7z"/>
	<path class="st2" d="M87.7,19.7c-1.5,0-3,0-4.7,0c0-1.5,0-3,0-4.7c1.6,0,3.1,0,4.7,0l0,0C87.7,16.5,87.7,18.1,87.7,19.7L87.7,19.7z
		"/>
	<path class="st2" d="M92.4,15c1.5,0,3,0,4.7,0c0,1.5,0,3,0,4.7c-1.5,0-3.1,0-4.7,0l0,0C92.5,18.1,92.5,16.5,92.4,15L92.4,15z"/>
	<path class="st2" d="M92.4,19.7c0,1.5,0,3,0,4.7c-1.6,0-3,0-4.7,0c0-1.6,0-3.1,0-4.7c0,0,0,0,0,0C89.3,19.7,90.9,19.7,92.4,19.7
		L92.4,19.7z"/>
</g>
</svg>
