<?xml version="1.0" encoding="utf-8"?>
<!-- Generator: Adobe Illustrator 24.3.0, SVG Export Plug-In . SVG Version: 6.00 Build 0)  -->
<svg version="1.1" id="Layer_1" xmlns="http://www.w3.org/2000/svg" xmlns:xlink="http://www.w3.org/1999/xlink" x="0px" y="0px"
	 viewBox="0 0 150 150" style="enable-background:new 0 0 150 150;" xml:space="preserve">
<style type="text/css">
	.st0{fill:#CDEEFD;}
	.st1{fill:#111224;}
	.st2{fill:#005BAB;}
</style>
<path class="st0" d="M1465.3,1556.3c-2.4-0.2-4.3-1.3-4.4-4.1c-0.1-6.7,1.6-10,4.9-9.9c0.2,0,0.3,0,0.5,0c2.2,0.5,4.3,2.1,3.2,4
	C1467.7,1549.5,1473.1,1555.7,1465.3,1556.3z M1465.5,1554.4c1.3-0.1,2.3-0.6,2.3-2.1c-0.1-1.7-1.5-2.1-2.8-2.4c-1.6-0.4-2,0.8-2,2
	C1463,1553.5,1464,1554.2,1465.5,1554.4z M1467.8,1546.5c0-1.4-0.6-2.2-2.1-2.2c-0.9,0-1.6,0.4-1.7,1.4c-0.2,1.4,0.9,2.1,2,2.5
	C1467.3,1548.5,1467.6,1547.5,1467.8,1546.5z"/>
<path class="st0" d="M1455.8,1556.6c-0.5-2.9-1.8-4.2-4.6-3.6c-0.7,0.2-1.7,0.3-2.1-0.8c-0.4-1.1,0.1-1.5,1.2-2.1
	c2.1-1.2,2.1-3.9,3.2-5.8c0.6-1,1-2.2,2.5-1.9c1.4,0.3,0.9,1.6,0.8,2.5C1456.4,1548.6,1458.4,1552.5,1455.8,1556.6z"/>
<path class="st1" d="M1465.5,1554.4c-1.5-0.1-2.6-0.8-2.5-2.4c0-1.2,0.4-2.4,2-2c1.2,0.3,2.7,0.7,2.8,2.4
	C1467.8,1553.7,1466.8,1554.2,1465.5,1554.4z"/>
<path class="st1" d="M1467.8,1546.5c-0.2,1-0.5,2.1-1.8,1.7c-1.1-0.4-2.1-1-2-2.5c0.1-1,0.8-1.4,1.7-1.4
	C1467.2,1544.3,1467.8,1545,1467.8,1546.5z"/>
<g>
	<path class="st2" d="M41.3,8.2c1.9,0.3,2.3,2,3,3.2c6.2,10.7,12.3,21.3,18.4,32c0.9,1.6,1.6,3.5,4,1.6c1.5-1.2,2.9-0.5,4.1,0.8
		c1.5,1.7,3.1,3.3,4.5,5.1c1.5,2,3,3.4,6,2.5c2.8-0.8,4.2,1.4,5.5,3.6c9.4,16.4,18.8,32.7,28.2,49c1.1,2,2.2,4,3.4,5.9
		c1.5,2.4,2.2,6.4,6.6,3.4c0.7-0.5,1.7-0.1,2.1,0.9c0.4,1.1-0.1,2-1,2.6c-2.4,1.5-4.8,3-7.4,4.3c-2.1,1.1-2.7,2.2-1.3,4.2
		c0.8,1.1,1.4,2.5,2.1,3.7c0.8,1.5,1.7,2.6,3.6,1.4c1.2-0.7,2.8-1.5,3.6,0.4c0.7,1.7-1,2.4-2.2,3.1c-5.5,3.2-11,6.4-16.5,9.6
		c-1.2,0.7-2.6,1.7-3.7,0c-1-1.5,0.2-2.4,1.4-3c3.5-1.9,0.7-3.7,0-5.5c-1.5-4.2-3.9-5-7.5-2c-1.5,1.2-3.4,2-5.1,3
		c-1.1,0.6-2.2,0.9-3-0.3c-0.9-1.3-0.2-2.3,0.9-2.8c3.3-1.5,1.9-3.4,0.7-5.5c-10.8-18.6-21.5-37.3-32.3-56c-1.7-3-2.7-5.7,0.5-8.3
		c1.1-0.9,0.8-2,0.4-3.1c-0.8-2.4-1.5-4.9-2.4-7.3c-0.9-2.3-1.5-4.3,1.4-5.6c2.3-1.1,0.8-2.6,0.1-3.9c-6.1-10.6-12.1-21.1-18.2-31.7
		c-0.6-1-1.2-1.9-1.6-3C39.2,9.4,40,8.6,41.3,8.2z M89.7,69.6c-2.4-3.9-4.9-8.1-7.5-12.1c-0.5-0.8-1.5,0.1-2.3,0.5
		c-5.5,3.2-11,6.4-16.6,9.6c-1.7,1-1.9,2-0.9,3.7c11.1,19.1,22.1,38.2,33,57.4c1.2,2.2,2.4,2.3,4.3,1.1c3.1-1.9,6.4-3.7,9.6-5.5
		c8.8-4.9,8.8-4.9,3.8-13.5c-1.3-2.3-2.3-5.4-4.3-6.7c-2.5-1.5-4.6,1.9-7,2.8c-0.1,0-0.3,0.1-0.4,0.2c-1.2,0.5-2.6,1-3.3-0.5
		c-0.6-1.3,0.4-2.1,1.4-2.7c1.3-0.8,2.7-1.5,4-2.4c0.9-0.6,2.1-0.9,2.4-2.2c0.2-0.7-5-9.9-5.7-10.3c-1.2-0.7-1.8,0.4-2.7,0.8
		c-1.9,1-3.7,2.2-5.6,3.1c-0.9,0.4-2,0.3-2.5-0.8c-0.4-0.9-0.1-1.7,0.7-2.2c0.7-0.5,1.4-0.9,2.2-1.3C98.6,85,98.6,85,95,79
		c-0.1-0.2-0.3-0.5-0.4-0.7c-1.4-4-3.5-4.7-7.1-2c-1.5,1.1-4.3,4-5.7,1.3c-1.7-3,2.6-3.1,4.2-4.5C87.1,72,89.1,71.8,89.7,69.6z
		 M74.3,56c0-0.9-5.6-6.9-6.5-7c-1.7-0.1-6.7,3.6-6.2,4.8c1.2,2.8,0.7,6.5,3.9,8.1C66.5,62.4,74.4,56.7,74.3,56z M117.5,135.1
		c-0.9-1.6-1.8-3.3-2.7-4.8c-1.1-1.9-1.8-4.1-4.9-2.1c-2.6,1.7-3.8,3.1-1.6,5.9c0.8,1,1.3,2.2,1.9,3.3c0.6,1,1.2,2.2,2.6,1.3
		C114.4,137.5,116.4,137,117.5,135.1z"/>
	<path class="st2" d="M1,122c0-5.2,0.2-10.5-0.1-15.7c-0.2-4,1.2-7.2,4.1-9.8c1.4-1.2,2.7-2.5,3.9-3.9c2.5-3.1,2.1-7-0.9-9.5
		c-1.4-1.1-2.3-2.5-2.3-4.4c0-13.4-2-15.9,13.6-15.3c6.5,0.2,13,0,19.6,0.1c4.7,0,6.5,1.8,6.7,6.3c0.1,2.8,0.1,5.7,0,8.5
		c0,1.8-0.6,3.3-2,4.5c-3.5,3-4.2,7.3-0.8,9.9c7.3,5.5,8.3,12.8,7.8,21.1c-0.5,8.2-0.1,16.4-0.1,24.7c0,7-3.4,10.4-10.5,10.5
		c-9.5,0.1-19,0.1-28.5,0c-7.1,0-10.4-3.4-10.5-10.4C1,133,1,127.5,1,122z M4.8,122.2c0,5.1,0,10.2,0,15.3c0,6.1,1.5,7.6,7.4,7.7
		c9.1,0,18.2,0,27.2,0c5.6,0,7.3-1.7,7.3-7.4c0-10.1-0.1-20.1,0.1-30.2c0.1-3.7-0.9-6.6-3.8-9c-3.7-3.1-6.7-6.6-6-12
		c0.2-1.8-0.8-2.5-2.5-2.5c-6,0-11.9,0-17.9,0c-1.6,0-2.4,0.6-2.2,2.2c0.6,5.1-2,8.7-5.6,11.7c-3.1,2.5-4.4,5.6-4.1,9.7
		C5,112.6,4.8,117.4,4.8,122.2z M25.5,67.2c-2.5,0-5.1,0-7.6,0c-8.8,0.1-8.4-1.7-8.5,8.8c0,3.4,1.3,4.4,4.6,4.3
		c6.2-0.2,12.5,0,18.7-0.1c10.5-0.2,9,1.9,9.2-9.7c0-2.6-1.1-3.5-3.6-3.4C34,67.3,29.8,67.2,25.5,67.2z"/>
	<path class="st2" d="M149,65.3c0,4.3,0.1,8.5,0,12.7c-0.3,7.5-6.3,13.3-13.8,13.2c-7.5,0-13.7-5.8-13.9-13.3
		c-0.2-8.4-0.2-16.7,0-25.1c0.2-7.7,6.5-13.6,14.1-13.5c7.4,0.1,13.4,6,13.6,13.5C149.1,57,149,61.1,149,65.3z M145.2,74.6
		c0-2,0-3.6,0-5.1c0-1.6-0.8-2.3-2.3-2.3c-5.2,0-10.4,0-15.7,0c-1.3,0-2.2,0.6-2.2,2c0.1,3.7-0.6,7.4,0.5,10.9
		c2.2,7.5,11.6,9.9,17,4.3C145.2,81.5,145.5,77.9,145.2,74.6z M135.1,63.4c2.5,0,5.1,0,7.6,0c0.9,0,2.4,0.2,2.3-1.2
		c0-5,1.5-10.2-1.7-14.8c-2.7-3.9-7.7-5.3-12.1-3.5c-5.4,2.3-8.1,8.9-6.2,17.3c1,4.6,5.3,1.2,7.9,2.1
		C133.6,63.6,134.4,63.4,135.1,63.4z"/>
	<path class="st2" d="M99,1c10.3,0,18.8,8.2,18.9,18.4c0.2,10.3-8.6,19-18.9,19c-10.2,0-18.7-8.5-18.6-18.7C80.4,9.4,88.7,1,99,1z
		 M84.2,20.3c0,1.5,0.4,3.4,1.1,5.3c1.1,2.9,2.3,3,4.5,0.8c5.3-5.5,10.7-10.9,16.2-16.2c2.6-2.4,1.3-3.3-1.1-4.3
		C95,1.7,84.1,9,84.2,20.3z M98.8,34.6c10.6-0.1,17.7-10.2,14.4-19.9c-1.4-4.2-2.1-4.3-5.2-1.3c-4.5,4.5-9.1,8.9-13.5,13.5
		c-1.4,1.4-4.3,2.5-3.4,4.8c0.9,2.3,4,2.4,6.3,2.7C98,34.6,98.6,34.6,98.8,34.6z"/>
	<path class="st2" d="M36,120.6c0,4.3-0.1,8.5,0,12.8c0.1,2.5-0.9,3.6-3.5,3.5c-6.1-0.1-12.2,0-18.3-0.1c-1.3,0-3.2,0.3-3.2-1.8
		c0-2,1.7-1.9,3.1-1.9c4.8,0,9.7-0.1,14.5,0c2.6,0.1,3.9-0.5,3.8-3.5c-0.2-6.1-0.2-12.2,0-18.3c0.1-2.7-1-3.4-3.5-3.3
		c-4.1,0.2-8.2,0-12.3,0c-1.5,0-3.1,0-3.1-2c0-1.7,1.6-1.8,2.8-1.8c5.5,0,11.1,0,16.6,0c2.4,0,3.2,1.3,3.2,3.5
		C35.9,112.1,36,116.4,36,120.6z"/>
</g>
</svg>
