<?xml version="1.0" encoding="utf-8"?>
<!-- Generator: Adobe Illustrator 24.3.0, SVG Export Plug-In . SVG Version: 6.00 Build 0)  -->
<svg version="1.1" id="Layer_1" xmlns="http://www.w3.org/2000/svg" xmlns:xlink="http://www.w3.org/1999/xlink" x="0px" y="0px"
	 viewBox="0 0 150 150" style="enable-background:new 0 0 150 150;" xml:space="preserve">
<style type="text/css">
	.st0{fill:#005BAB;}
</style>
<g>
	<path class="st0" d="M72.7,134.6c0,2.2,0.1,4.4,0,6.5c-0.2,5.2-3.5,8.7-8.3,8.7c-4.9,0-8.5-3.6-8.6-9c-0.1-4.4-0.1-8.7,0-13.1
		c0-1.8,0-3.3-2.4-3.2c-1.7,0-2.1-1.2-2.2-2.8c-1-11.5-2.2-23-3.2-34.5c-0.3-3.2-0.4-5.7-4.9-5.6c-3.4,0.1-5.6-2.4-6.7-5.7
		c-1.9-6.1-4-12.1-5.9-18.2c-1.2-3.9-0.3-7.1,3-9.8c6.9-5.7,13.8-11.5,20.6-17.4c2.6-2.2,5.6-3.2,8.9-3.7c2.5-0.4,3.8-1,1.5-3.7
		c-5-6-4.5-14,0.9-19.1C70.6-1.1,79-1.2,84.5,3.8c5.5,5,6.2,13.1,1.3,19.1c-2.1,2.6-1.9,3.7,1.3,4c4.3,0.4,7.6,2.6,10.7,5.3
		c5.9,5.2,12,10.2,18,15.3c4.3,3.6,4.9,6.1,3,11.5c-2,5.6-4.1,11.2-6.1,16.9c-1.2,3.4-3.5,5.8-7,5.9c-3.1,0.1-3.5,1.6-3.7,4
		c-1,11.8-2.2,23.5-3.2,35.3c-0.2,1.9-0.3,3.6-2.8,3.6c-2.1,0-1.9,1.5-1.9,2.9c0,4.2,0,8.4,0,12.7c-0.1,6-3.6,9.8-8.7,9.7
		c-5-0.1-8.1-3.8-8.2-9.7c-0.1-4.2,0-8.4,0-12.7c0-1.8-0.5-3.5-2.4-3.5c-2,0-2.4,1.8-2.3,3.6C72.7,130,72.7,132.3,72.7,134.6z
		 M74.2,28.1c-5.3,1-12,0.1-17.2,4.1c-7.6,5.8-14.6,12.2-21.9,18.3c-1.6,1.4-2.7,3.1-2,5.4c2.1,6.6,4.1,13.2,6.4,19.8
		c1,2.8,3.4,4.1,6.2,3c2.8-1.1,3.8-3.3,2.8-6.3c-1.4-4.4-2.6-8.9-4.2-13.2c-0.8-2.2-0.5-3.5,1.3-4.9c3.4-2.7,6.7-5.6,10-8.4
		c0.8-0.7,1.6-1.7,2.8-1.2c1.2,0.5,1,1.8,1,2.9c0.4,6.9,0.8,13.8,1.1,20.8c0.1,3.1,1,4.6,4.5,4.4c6.8-0.3,13.6-0.2,20.4,0
		c3.1,0.1,4-1.2,4.1-4c0.3-7.2,0.8-14.4,1.2-21.6c0.1-2.7,1.1-3.6,3.4-1.6c3.5,3,7,6,10.6,8.9c1.6,1.3,1.6,2.4,0.9,4.2
		c-1.7,4.1-3.1,8.4-4.6,12.6c-1.1,3-1.1,5.7,2.3,7.2c2.9,1.3,5.3,0,6.8-3.9c2.2-5.6,4-11.2,6.3-16.8c1.4-3.5,0.5-5.9-2.3-8.2
		c-5.2-4.2-10.6-8.2-15.2-13C92.2,29.8,83.8,28.7,74.2,28.1z M75,82.5C75,82.5,75,82.5,75,82.5c-7.1,0-14.2,0.1-21.2,0
		c-2.2,0-3.6,0.3-3.3,3.2c1.2,11.1,2.1,22.2,3.1,33.3c0.2,2.1,1,2.9,3,2.8c3.9-0.1,7.9-0.2,11.8,0c2.7,0.1,3.5-1,3.6-3.5
		c0-6.4,0.3-12.8,1.1-19.1c0.2-1.3-0.1-3.1,1.7-3.3c2.2-0.2,1.9,1.9,2,3.3c0.9,6.4,1.1,12.7,1.1,19.1c0,2.6,0.9,3.7,3.6,3.5
		c3.8-0.2,7.6-0.2,11.4,0c2.4,0.1,3.3-0.8,3.5-3.2c0.9-10.8,1.9-21.7,3-32.5c0.3-2.7-0.4-3.7-3.2-3.6C89.2,82.6,82.1,82.5,75,82.5z
		 M74.9,25.1c6.1,0.1,11.3-4.8,11.4-10.9C86.5,8.4,81.1,3.1,75.1,3c-6-0.1-11.3,5-11.4,11C63.6,19.9,68.8,25.1,74.9,25.1z
		 M91.2,134.4c0-10.6,0-10.6-8.5-9.9c-1.8,0.2-2.7,0.6-2.7,2.6c0.1,4.7-0.1,9.5,0.1,14.3c0.1,3.3,2.9,5.9,5.8,5.6
		c3.3-0.3,5.1-2.3,5.2-5.7C91.3,139,91.2,136.7,91.2,134.4z M58.8,134.1c0,2.2-0.1,4.3,0,6.5c0.1,3.9,2.2,6.3,5.4,6.4
		c3.1,0,5.6-2.6,5.7-6.2c0.1-3.7,0-7.3,0-11c0-5.3,0-5.3-5.3-5.3c-5.9,0-5.9,0-5.9,5.9C58.8,131.7,58.8,132.9,58.8,134.1z
		 M74.4,79.8C74.4,79.8,74.4,79.8,74.4,79.8c7.2,0,14.4,0,21.6,0c1,0,2.9,0.7,2.7-1.3c-0.1-1.2-0.7-2.7-2.4-2.8
		c-0.8-0.1-1.6,0-2.4,0c-10.9,0-21.7,0-32.6,0c-2.4,0-4.9,0.1-7.3,0c-2.2-0.1-3.1,1.2-3.2,2.8c-0.2,2.3,1.9,1.3,3,1.4
		C60.5,79.8,67.5,79.8,74.4,79.8z M57.8,68.9c-0.3-4.3-0.5-8.2-0.9-12.1c-0.2-2.3,0.9-5.8-0.9-6.5c-2.1-0.9-3.7,2.5-5.8,3.7
		c-3,1.8-3.9,4.1-2.3,7.5c1.2,2.6,2,5.4,2.6,8.1c0.7,3.4,3.1,3.3,5.6,3C59.2,72.3,57.3,69.9,57.8,68.9z M93.6,49.5
		c-0.5,7.1-1,13.6-1.4,20.1c-0.1,1.2-0.7,2.9,1.5,3.1c1.9,0.1,3.9,0.7,4.7-1.9c1.3-4,2.8-8,4.2-11.9c0.4-1.2,0.5-2.1-0.6-2.9
		C99.3,53.9,97.1,51.2,93.6,49.5z"/>
</g>
</svg>
