<?xml version="1.0" encoding="utf-8"?>
<!-- Generator: Adobe Illustrator 24.3.0, SVG Export Plug-In . SVG Version: 6.00 Build 0)  -->
<svg version="1.1" id="Layer_1" xmlns="http://www.w3.org/2000/svg" xmlns:xlink="http://www.w3.org/1999/xlink" x="0px" y="0px"
	 viewBox="0 0 150 150" style="enable-background:new 0 0 150 150;" xml:space="preserve">
<style type="text/css">
	.st0{fill:#005BAB;}
</style>
<g>
	<path class="st0" d="M43,0.6c0.4,0.2,0.8,0.3,1.2,0.5c4.3,1.5,7,5.9,6.3,10.2c-0.8,4.6-4.6,7.9-9.2,7.9c-4.6,0-8.5-3.4-9.2-8
		c-0.7-4.3,2-8.6,6.3-10.1c0.4-0.1,0.8-0.3,1.2-0.5C40.7,0.6,41.8,0.6,43,0.6z M45.9,9.8c0-2.5-2.2-4.6-4.7-4.6
		c-2.5,0-4.6,2.1-4.6,4.7c0,2.6,2.2,4.7,4.8,4.6C43.9,14.5,45.9,12.3,45.9,9.8z"/>
	<path class="st0" d="M50.5,58.5c-0.5-0.2-0.9-0.4-1.4-0.6c-3.9-1.8-6.2-6-5.4-10.1c0.9-4.5,4.5-7.6,8.9-7.7
		c7.9-0.1,15.8-0.1,23.7,0c4.5,0,8.1,3.2,8.9,7.7c0.8,4.1-1.5,8.4-5.4,10.1c-1.1,0.5-1.5,0.9-1.2,2.1c0.3,1.6,0.4,3.2,0.8,4.8
		c1.6-4.9,3.9-9.4,7.6-13c8.7-8.6,19.1-11.4,30.7-7.8c11.6,3.6,18.7,11.9,20.7,23.9c3.3,19.1-12.3,36.3-31.7,34.9
		c-3.3-0.2-6.5-1.3-9.7-2.3c-1.6-0.5-2.8-0.6-4.4,0.3c0.2,0.5,0.4,1,0.7,1.5c4,7.3,8.1,14.6,12.1,21.8c1.2,2.1,1.2,2.5-0.3,4.4
		c-4.2,5.4-8.3,10.7-12.6,16.3c8.6,0,16.9,0,25.3,0c0,1.6,0,3.1,0,4.7c-32.5,0-64.9,0-97.5,0c0-1.4,0-2.9,0-4.5c5.2,0,10.5,0,16,0
		c-0.4-0.6-0.7-1-0.9-1.3c-3.9-5-7.7-9.9-11.6-14.9c-1.6-2.1-1.6-2.4-0.3-4.6c8.5-14.1,16.2-28.7,21.9-44.2c2.4-6.6,4.4-13.3,5-20.4
		C50.5,59.1,50.5,58.9,50.5,58.5z M55.5,58.8c-0.8,4.3-1.5,8.4-2.5,12.5c-3.3,12.7-8.7,24.6-14.8,36.2c-3.3,6.3-6.8,12.4-10.2,18.7
		c0,0,0.1,0.2,0.2,0.4c4.6,5.9,9.1,11.7,13.7,17.5c0.4,0.5,1.2,0.7,1.8,0.7c13.9,0,27.7,0,41.6,0.1c1,0,1.7-0.4,2.3-1.2
		c4.2-5.5,8.5-11,12.8-16.4c0.7-0.9,0.8-1.5,0.2-2.5c-3.9-6.9-7.7-13.8-11.4-20.7c-0.7-1.4-1.3-2-2.9-1.3c-0.7,0.3-1.9-0.1-2.4-0.6
		c-0.5-0.5-0.6-1.6-0.4-2.4c0.2-1,0.6-1.9,1.1-2.8c0.5-1,0.3-1.8-0.1-2.7c-2.5-6.3-5.2-12.5-7.2-19c-1.7-5.3-2.6-10.8-3.8-16.4
		C67.7,58.8,61.5,58.8,55.5,58.8z M89.6,96.6c0.2,0,0.3,0.1,0.4,0.1c1.3-0.4,2.6-0.8,3.9-1.3c1.2-0.5,2.3-0.3,3.5,0.2
		c9,4.3,17.9,3.8,26.1-1.8c8.2-5.6,11.8-13.7,11-23.7c-0.9-10.3-8.2-19.1-18.2-22.1c-10.1-3-21,0.5-27.4,8.6
		c-7.9,10-7.4,24,1.2,33.4c1.1,1.2,1.4,2.4,0.7,3.8C90.3,94.7,90,95.7,89.6,96.6z M64.6,44.8c-3.8,0-7.7,0-11.5,0
		c-2.8,0-4.9,2-4.9,4.7c0,2.6,2.1,4.6,4.9,4.6c7.6,0,15.1,0,22.7,0c2.9,0,4.9-2,5-4.6c0-2.7-2.1-4.7-5-4.7
		C72.1,44.8,68.3,44.8,64.6,44.8z"/>
	<path class="st0" d="M80.9,21.5c-3.9,0-7-3.1-7-7c0-3.8,3.1-6.9,6.9-6.9c3.9,0,7,3.1,7,7C87.8,18.3,84.7,21.5,80.9,21.5z
		 M80.8,16.9c1.3,0,2.3-1,2.3-2.3c0-1.3-1.1-2.4-2.4-2.4c-1.2,0-2.3,1.1-2.2,2.4C78.5,15.8,79.6,16.9,80.8,16.9z"/>
	<path class="st0" d="M57.6,37.8c-3.9,0-7-3.1-7-7c0-3.8,3.1-6.9,6.9-7c3.9,0,7,3.1,7,7C64.5,34.6,61.4,37.8,57.6,37.8z M59.9,30.8
		c0-1.3-1.1-2.3-2.3-2.3c-1.3,0-2.4,1.1-2.3,2.4c0.1,1.2,1.2,2.2,2.4,2.2C58.9,33.1,59.9,32,59.9,30.8z"/>
	<path class="st0" d="M34.3,37.8c-1.7,0-3.1,0-4.6,0c0-1.5,0-3,0-4.6c-1.6,0-3.1,0-4.6,0c0-1.6,0-3,0-4.6c1.5,0,2.9,0,4.6,0
		c0-1.6,0-3.1,0-4.6c1.6,0,3,0,4.6,0c0,1.5,0,2.9,0,4.6c1.6,0,3.1,0,4.6,0c0,1.6,0,3,0,4.6c-1.5,0-2.9,0-4.6,0
		C34.3,34.7,34.3,36.2,34.3,37.8z"/>
	<path class="st0" d="M90.1,37.8c-1.6,0-3,0-4.6,0c0-1.5,0-3,0-4.6c-1.6,0-3.1,0-4.6,0c0-1.6,0-3,0-4.6c1.5,0,2.9,0,4.6,0
		c0-1.6,0-3.1,0-4.6c1.6,0,3,0,4.6,0c0,1.5,0,2.9,0,4.6c1.6,0,3.1,0,4.6,0c0,1.6,0,3,0,4.6c-1.5,0-2.9,0-4.6,0
		C90.1,34.8,90.1,36.3,90.1,37.8z"/>
	<path class="st0" d="M29.7,68.1c0-1.7,0-3.1,0-4.6c1.5,0,3,0,4.6,0c0-1.6,0-3.1,0-4.6c1.6,0,3,0,4.6,0c0,1.4,0,2.9,0,4.5
		c1.6,0,3.1,0,4.6,0c0,1.6,0,3,0,4.6c-1.4,0-2.9,0-4.5,0c0,1.6,0,3.1,0,4.6c-1.6,0-3,0-4.6,0c0-1.4,0-2.9,0-4.5
		C32.7,68.1,31.2,68.1,29.7,68.1z"/>
	<path class="st0" d="M11.1,144.9c1.2,0,2.3,0,3.5,0c0.3,0,0.6,0,1,0c0,1.5,0,3,0,4.6c-1.4,0-2.9,0-4.4,0
		C11.1,147.9,11.1,146.4,11.1,144.9z"/>
	<path class="st0" d="M64.4,140.2c-5.9,0-11.8,0-17.7,0c-1.3,0-2.3-0.5-3.1-1.5c-2.7-3.5-5.5-6.9-8.2-10.3c-1.4-1.8-1.4-2.3-0.2-4.1
		c5.7-7.9,10.1-16.5,12.9-25.9c0.6-2.1,1.1-2.4,3.4-2.4c8.7,0,17.5,0,26.2,0c2.1,0,2.7,0.4,3.3,2.3c2.9,9.4,7.2,18,13,26
		c1.2,1.6,1.2,2.3-0.1,3.9c-2.8,3.5-5.7,7-8.4,10.6c-0.8,1.1-1.8,1.5-3.1,1.5C76.4,140.2,70.4,140.2,64.4,140.2z M76.8,100.6
		c-8,0-15.8,0-23.7,0c-0.4,0-1,0.6-1.1,1c-2.9,8.4-6.8,16.4-11.9,23.7c-0.4,0.6-0.5,1,0,1.6c2.2,2.6,4.2,5.3,6.4,7.9
		c0.3,0.4,1,0.7,1.4,0.7c11,0,22.1,0,33.1,0c0.4,0,1-0.2,1.3-0.5c2.4-2.9,4.7-5.9,7.1-8.9C83.9,118.3,79.7,109.8,76.8,100.6z"/>
	<path class="st0" d="M108.7,93.7c-2.2,0-4.4,0-6.5,0c-1.9,0-2.9-0.9-2.7-2.7c0.3-2.9-0.6-4.8-3-6.7C90.1,79,88.4,70,91.9,62.5
		c3.4-7.3,11.5-11.8,19.1-10.6c8.6,1.3,15,7.4,16.1,15.8c1,7.7-1.8,13.7-8.1,18.2c-0.7,0.5-1.1,1-1,1.9c0.1,1.1,0,2.2,0,3.3
		c0,1.7-0.9,2.6-2.6,2.6C113.2,93.7,111,93.7,108.7,93.7z M122.3,73.1c-1.6,2.8-3.8,4.5-7.2,4.3c-3.3-0.3-5.3-2.3-6.5-5.7
		c-1.1,3.5-3.1,5.5-6.4,5.7c-3.3,0.3-5.6-1.4-7.2-4.2c0.8,4.2,3.1,7.4,6.8,9.4c1.6,0.9,2.3,1.9,2.1,3.7c-0.1,0.9,0,1.8,0,2.7
		c0.9,0,1.6,0,2.4,0c0-1.5,0-3,0-4.4c1.6,0,3,0,4.7,0c0,1.6,0,3,0,4.5c0.8,0,1.5,0,2.3,0c0-0.7,0.1-1.3,0-1.9
		c-0.3-2.2,0.5-3.6,2.6-4.8C119.5,80.3,121.6,77.1,122.3,73.1z M95.1,68.1c1.7-3.3,4-4.9,7.3-4.6c3.3,0.3,5.3,2.4,6.4,5.7
		c1.1-3.4,3-5.4,6.3-5.7c3.4-0.3,5.7,1.3,7.3,4.4c-0.4-5.7-6.4-11.1-12.7-11.4C102.5,56.1,96.2,61,95.1,68.1z M104.1,70.4
		c0-1.3-1-2.3-2.3-2.3c-1.3,0-2.4,1.1-2.3,2.4c0,1.2,1.1,2.3,2.4,2.2C103.1,72.7,104.1,71.6,104.1,70.4z M118,70.4
		c0-1.2-1-2.3-2.2-2.4c-1.3-0.1-2.4,1-2.4,2.3c0,1.3,1.1,2.3,2.3,2.3C117,72.7,118,71.7,118,70.4z"/>
	<path class="st0" d="M64.5,112.4c0,3.8-3.2,6.9-7,6.9c-3.9,0-7-3.2-7-7.1c0-3.8,3.2-6.9,7-6.9C61.4,105.3,64.6,108.5,64.5,112.4z
		 M57.6,114.6c1.3,0,2.3-1.1,2.3-2.3c0-1.3-1.1-2.4-2.4-2.3c-1.2,0-2.3,1.1-2.2,2.4C55.3,113.6,56.3,114.6,57.6,114.6z"/>
	<path class="st0" d="M80.8,123.9c0,3.8-3.1,7-6.9,7c-3.9,0-7.1-3.1-7.1-6.9c0-3.8,3.1-7,6.9-7C77.6,116.9,80.8,120,80.8,123.9z
		 M76.2,123.9c0-1.3-1.1-2.3-2.3-2.3c-1.3,0-2.4,1.1-2.3,2.4c0.1,1.2,1.2,2.2,2.4,2.2C75.2,126.2,76.2,125.1,76.2,123.9z"/>
	<path class="st0" d="M69.2,109.8c0-1.5,0-2.9,0-4.5c1.5,0,3,0,4.5,0c0,1.5,0,2.9,0,4.5C72.3,109.8,70.9,109.8,69.2,109.8z"/>
	<path class="st0" d="M52.8,126.2c-1.5,0-2.9,0-4.5,0c0-1.5,0-2.9,0-4.5c1.5,0,2.9,0,4.5,0C52.8,123.1,52.8,124.6,52.8,126.2z"/>
	<path class="st0" d="M64.5,128.6c0,1.5,0,2.9,0,4.5c-1.5,0-2.9,0-4.5,0c0-1.5,0-2.9,0-4.5C61.4,128.6,62.9,128.6,64.5,128.6z"/>
</g>
</svg>
