<?xml version="1.0" encoding="utf-8"?>
<!-- Generator: Adobe Illustrator 24.3.0, SVG Export Plug-In . SVG Version: 6.00 Build 0)  -->
<svg version="1.1" id="Layer_1" xmlns="http://www.w3.org/2000/svg" xmlns:xlink="http://www.w3.org/1999/xlink" x="0px" y="0px"
	 viewBox="0 0 150 150" style="enable-background:new 0 0 150 150;" xml:space="preserve">
<style type="text/css">
	.st0{fill:#005BAB;}
</style>
<g>
	<path class="st0" d="M209.3,149.1c-1.4,0-2.7,0-4,0c-0.8,0-1.1-0.2-1.1-1.1c0-2.7,0-5.4,0-8.1c0-0.9,0.3-1.1,1.1-1.1
		c1.7,0.1,3.5,0,5.2,0c0.7,0,0.8-0.1,0.7-0.8c-0.6-3.6-2.6-6.4-5.1-8.8c-3.2-3.1-6-6.5-7.7-10.7c-0.5-1.4-0.9-2.8-1.1-4.3
		c0-0.5-0.1-0.6-0.6-0.6c-1.9-0.1-2.8-1.2-2.9-3.1c-0.2-3.1-0.4-6.2-0.6-9.3c-0.4-5.7-0.7-11.4-1.1-17c0-0.4-0.1-0.6-0.6-0.8
		c-1.1-0.3-1.6-1.2-1.6-2.3c0-0.7,0-1.4,0-2c0-2,0.9-2.9,2.9-2.9c3.4,0,6.8,0,10.2,0c2.8,0,5.6,0,8.5,0c1.1,0,2.5,1,2.5,2.3
		c-0.1,0.9,0,1.9,0,2.8c0,1.1-0.6,1.8-1.5,2.1c-0.5,0.2-0.6,0.4-0.6,0.9c0,7.9,0,15.9,0,23.8c0,0.5,0.1,0.7,0.7,0.7
		c1.4,0,2.9,0,4.3,0c9.5,0,19.1,0,28.6,0c1.5,0,2.9,0.3,4.2,1.1c1.2,0.8,2,1.8,1.9,3.3c-0.1,3.8-0.8,7.4-2.6,10.8
		c-1.3,2.4-3,4.5-5.1,6.2c-1.6,1.2-3.2,2.3-5.1,3c-0.3,0.1-0.5,0.3-0.5,0.7c0,3,0.3,5.9,1,8.8c1,3.7,2.4,7.2,4.4,10.5
		c0.8,1.3,0.6,1.6-0.9,1.6c-12.2,0-24.4,0-36.6,0c-0.4,0-0.9,0.2-1.1-0.4c-0.3-0.6,0.2-0.9,0.6-1.2
		C206.9,152,208.3,150.8,209.3,149.1z M242.2,153.4c-0.1-0.2-0.2-0.3-0.2-0.4c-2.4-4.2-3.9-8.7-4.7-13.5c-0.2-1.6-0.4-3.3-0.4-4.9
		c0-0.5,0-0.8-0.7-0.6c-2.8,0.7-5.7,0.9-8.5,0.4c-8.1-1.6-13.4-6.3-16.1-14.1c-0.2-0.7-0.2-1.6-0.6-1.9c-0.5-0.3-1.4-0.1-2.2-0.1
		c-2.7,0-4.5-1.3-5.3-4c-0.1-0.5-0.4-0.6-0.8-0.6c-1.1,0-2.2,0-3.3,0c-0.6,0-0.7,0.2-0.6,0.8c0.5,3.5,2.1,6.5,4.2,9.3
		c1.8,2.5,4.2,4.4,6.2,6.7c5.1,5.9,4.4,15.3,0.8,20.2c-0.7,0.9-1.6,1.8-2.4,2.7C219.1,153.4,230.6,153.4,242.2,153.4z M210.5,98
		C210.5,98,210.5,98,210.5,98c0-4.5,0-9.1,0-13.6c0-0.7-0.2-0.8-0.8-0.8c-5.1,0-10.2,0-15.2,0c-0.9,0-1,0.2-1,1.1
		c0.3,4.4,0.6,8.7,0.9,13.1c0.3,4.3,0.5,8.6,0.8,12.9c0.1,1.1,0.7,1.7,1.7,1.7c4.3,0,8.7,0,13,0c0.5,0,0.7-0.1,0.7-0.7
		C210.5,107.1,210.5,102.5,210.5,98z M212.5,118.3c1.7,8.2,8.6,14.7,18.1,15c9,0.2,17-5.7,19-15
		C237.2,118.3,224.9,118.3,212.5,118.3z M204.8,113.8c0.6,2.1,2,3.1,4,3.1c13.1,0,26.3,0,39.4,0c1.6,0,1.5,0,1.8-1.6
		c0-0.2,0.1-0.4,0.1-0.6c0.1-0.7,0-0.9-0.8-0.9c-4.5,0-9,0-13.6,0c-8.7,0-17.4,0-26,0C208.1,113.8,206.5,113.8,204.8,113.8z
		 M201.9,77.7c-3.1,0-6.2,0-9.3,0c-1.1,0-1.2,0.1-1.2,1.2c0,0.7,0,1.4,0,2.1c0,0.7,0.3,1.1,1,1.1c6.3,0,12.7,0,19,0
		c0.8,0,1.1-0.4,1.1-1.1c0-0.7,0-1.4,0-2c0-1.1-0.3-1.3-1.4-1.3C208.1,77.7,205,77.7,201.9,77.7z M250.1,112.3
		c-1.2-1.6-2.7-2.1-4.4-2.1c-11.1,0-22.2,0-33.3,0c-0.2,0-0.5-0.1-0.5,0.1c-0.1,0.6-0.1,1.2,0,1.7c0.1,0.4,0.6,0.2,0.9,0.2
		c8,0,16,0,24,0C241.1,112.3,245.5,112.3,250.1,112.3z M205.6,144C205.6,144,205.6,144,205.6,144c0,1.1,0,2.1,0,3.2
		c0,0.3,0,0.6,0.5,0.6c1.2,0,2.4,0,3.6,0c0.4,0,0.5-0.2,0.6-0.5c0.8-2.1,1.1-4.2,1.2-6.4c0-0.4-0.1-0.5-0.5-0.5c-1.6,0-3.2,0-4.8,0
		c-0.4,0-0.5,0.1-0.5,0.5C205.6,141.9,205.6,142.9,205.6,144z"/>
	<path class="st0" d="M261.7,139.7c0-5.2,0-10.4,0-15.6c0-0.6-0.1-0.9-0.8-1c-1.4-0.3-2.2-1.4-2.3-2.9c0-2,0-3.9,0-5.9
		c0-1.5,0.7-2.5,2.2-2.9c0.3-0.1,0.5-0.3,0.6-0.6c0.8-2.9,3.4-4.8,6.4-4.8c10.3,0,20.6,0,30.9,0c2.9,0,5.5,1.9,6.3,4.7
		c0.1,0.5,0.4,0.6,0.8,0.6c1.4,0.2,2.4,1.2,2.5,2.5c0.1,2.2,0.2,4.4-0.1,6.7c-0.2,1.5-0.9,2.3-2.3,2.5c-0.7,0.1-0.7,0.4-0.7,0.9
		c0,10.1,0,20.3,0,30.4c0,4.9-2.9,8.4-7.7,9.4c-1.1,0.2-2.2,0.1-3.2,0.1c-7.8,0-15.6,0-23.4,0c-5.1,0-9.3-4.3-9.2-9.3
		c0.1-2.5,0-5,0-7.5C261.7,144.6,261.7,142.1,261.7,139.7z M283.4,162.4c4.2,0,8.5,0,12.7,0c4.1,0,7.5-3.3,7.5-7.5
		c0-6.2,0-12.3,0-18.5c0-0.6-0.1-0.8-0.7-0.8c-1.1-0.1-2.3,0.1-3.4,0c-0.5,0-1.1-0.1-1-0.8c0-0.6,0.5-0.6,1-0.6c1.2,0,2.4,0,3.6,0
		c0.4,0,0.6-0.1,0.6-0.6c0-3.4,0-6.7,0-10.1c0-0.5-0.1-0.6-0.6-0.6c-2.2,0-4.3,0-6.5,0c-0.5,0-0.7,0.2-0.7,0.7c0,2.3,0.1,4.7,0,7
		c-0.1,2-0.1,4.1,0.1,6.1c0.3,2.2-1.3,4.9-3.6,5.3c-0.5,0.1-0.6,0.4-0.6,0.8c0,4.4,0.1,8.8,0,13.2c0,1.7-1.8,3.5-4,3.1
		c-1.9-0.4-2.9-1.7-3-3.6c0-4.2,0-8.4,0-12.6c0-0.4,0.1-0.7-0.5-0.9c-2.6-0.6-4-2.4-4-5c0-4.5,0-8.9,0.1-13.4c0-0.6-0.1-0.8-0.8-0.8
		c-5.4,0-10.8,0-16.2,0c-0.7,0-0.7,0.2-0.7,0.8c0,3.2,0,6.4,0,9.6c0,0.7,0.2,0.8,0.8,0.8c4.1,0,8.1,0,12.2,0c0.5,0,1.1,0,1.6,0
		c0.5,0,0.7,0.4,0.7,0.8c0,0.4-0.3,0.6-0.7,0.6c-0.3,0-0.7,0-1,0c-4.2,0-8.4,0-12.6,0c-0.6,0-0.9,0.1-0.9,0.8c0,6.1,0,12.2,0,18.3
		c0,4.3,3.3,7.6,7.6,7.6C274.9,162.5,279.2,162.4,283.4,162.4z M262.9,111.2c1.3,0,2.5,0,3.7,0c8.4,0,16.9,0,25.3,0
		c0.1,0,0.2,0,0.4,0c0.5,0.1,0.7,0.4,0.7,0.9c0,0.6-0.3,0.6-0.7,0.6c-0.2,0-0.5,0-0.7,0c-9.9,0-19.7,0-29.6,0
		c-1.4,0-1.9,0.5-1.9,1.8c0,1.8,0,3.5,0,5.3c0,1.2,0.6,1.8,1.8,1.8c14.4,0,28.7,0,43.1,0c1.4,0,2-0.5,2-1.9c0-1.8,0-3.6,0-5.4
		c0-1.1-0.6-1.6-1.7-1.6c-2.4,0-4.8,0-7.2,0c-0.6,0-1-0.1-1-0.8c0-0.7,0.5-0.7,1.1-0.7c1.7,0,3.4,0,5.1,0c0.6,0,0.6-0.1,0.4-0.6
		c-1-2.2-2.8-3.3-5-3.3c-10.2-0.1-20.4,0-30.6,0C265.6,107.3,263.4,109,262.9,111.2z M294.6,130.8
		C294.6,130.8,294.6,130.8,294.6,130.8c0-2.3,0-4.6,0-7c0-0.6-0.1-0.8-0.8-0.8c-2.1,0-4.1,0-6.2,0c-0.7,0-0.9,0.1-0.9,0.9
		c0,4.5,0,8.9,0,13.4c0,0.3,0,0.7,0.1,1c0.5,1.9,1.9,2.7,4.3,2.7c1.9,0,3.3-1.4,3.4-3.2C294.7,135.5,294.6,133.1,294.6,130.8z
		 M286.6,149.3C286.6,149.3,286.6,149.3,286.6,149.3c0,2,0,4.1,0,6.1c0,0.5,0,1.1,0.3,1.5c0.5,0.7,1.5,1.1,2.3,0.9
		c0.9-0.3,1.5-1.1,1.5-2.2c0-4.2,0-8.5,0-12.7c0-0.4-0.1-0.6-0.6-0.6c-0.9,0-1.9,0-2.8,0c-0.6,0-0.7,0.2-0.7,0.7
		C286.6,145.1,286.6,147.2,286.6,149.3z M286.8,140.9c-1.2-1.2-1.4-2.5-1.4-4c0-4.4,0-8.7,0-13.1c0-0.5-0.1-0.8-0.7-0.7
		c-0.6,0.1-1.3,0-1.9,0c-0.6,0-0.8,0.2-0.8,0.8c0,4.5,0,8.9,0,13.4c0,1.1,0.3,2.1,1.1,2.8C284.2,141,285.4,141,286.8,140.9z"/>
	<path class="st0" d="M283.3,78.9c3.3,0.2,5.9,1.5,7.8,4.2c4.4,6.2,0.9,14.5-6.4,15.8c-2.3,0.4-4.6,0.2-6.9,0.2
		c-16.6,0-33.2,0-49.8,0c-4.2,0-7.4-1.8-9.2-5.6c-1.8-3.7-1.4-7.2,1-10.6c1.8-2.5,4.3-3.5,7.2-3.9c0.1,0,0.3,0,0.5,0
		c-1.1-4.5,0-7.8,3.5-10.1c0.8-0.5,1.6-0.9,2.4-1.1c0.4-0.1,0.5-0.3,0.4-0.7c-1.3-4.8,2.3-9,7.1-9c3.4,0,6.8,0,10.1,0
		c3.3,0,5.6-2.3,5.7-5.7c0-2.1-0.2-4.1-1.5-5.9c-0.4-0.5,0-1,0.5-1c2.8,0,5.6-0.4,8.2,1c3.2,1.7,4.9,4.4,4.9,8.1c0,1,0,1.9,0,2.9
		c0,0.5,0.2,0.7,0.7,0.7c1.7-0.1,3.4,0.3,4.8,1.3c2.4,1.6,3.5,4.7,2.8,7.5c-0.1,0.3-0.3,0.6,0.3,0.8
		C282.6,69.5,284.7,73.5,283.3,78.9z M257.1,46.9c0.9,1.8,1,3.8,1,5.7c-0.1,4.1-2.9,6.8-7.1,6.8c-3.3,0-6.7,0-10,0
		c-3.4,0-6,2.5-6,5.7c0,3.2,2.6,5.6,6,5.6c2.7,0,5.4,0,8.1,0c0.5,0,1.1,0,1.1,0.7c0,0.7-0.6,0.7-1.1,0.7c-2.8,0-5.5,0-8.3,0
		c-2.4,0-4.4-0.9-5.9-2.8c-0.2-0.2-0.3-0.4-0.7-0.3c-3.4,0.6-6.1,4-5.8,7.5c0.3,3.6,3.5,6.6,7.1,6.6c4.9,0,9.7,0,14.6,0
		c8.4,0,16.7,0,25.1,0c3.7,0,6.7-2.7,7.1-6.1c0.4-3.7-1.9-7-5.5-7.8c-0.5-0.1-0.8,0-1.1,0.4c-1.5,1.8-3.4,2.7-5.8,2.7
		c-2.8,0-5.5,0-8.3,0c-0.5,0-1,0-1-0.6c0-0.7,0.5-0.7,1-0.7c2.8,0,5.6,0,8.4,0c2.8,0,5.3-2,5.7-4.6c0.5-2.8-1.2-5.4-4-6.3
		c-1.1-0.4-2.2-0.3-3.3-0.3c-0.9,0-1.2-0.3-1.1-1.1c0.1-1.2,0-2.5,0-3.7c-0.1-2.8-1.3-4.9-3.5-6.5C261.9,46.7,259.5,46.9,257.1,46.9
		z M255.3,97.7C255.3,97.7,255.3,97.7,255.3,97.7c8.3,0,16.5,0,24.8,0c2.1,0,4.2,0.2,6.2-0.7c3.9-1.7,5.8-5.6,5.3-9.2
		c-0.7-4.7-4.4-7.3-8.2-7.4c-0.5,0-0.8,0.1-1.1,0.5c-1.7,2.4-4.1,3.5-7,3.5c-13.2,0-26.5,0-39.7,0c-2.9,0-5.2-1.2-6.9-3.5
		c-0.3-0.5-0.7-0.6-1.2-0.5c-0.3,0.1-0.6,0.1-0.9,0.1c-4.3,0.6-7.7,4.5-7.4,9c0.3,4.9,4,8.2,9,8.2C237.2,97.7,246.2,97.7,255.3,97.7
		z"/>
	<path class="st0" d="M240.8,36.1c0,1.7-0.6,3.2-1.7,4.5c-0.8,0.9-1.8,1.8-2.1,3.1c-0.4,1.6-0.2,3.1,0.9,4.4
		c0.1,0.1,0.1,0.1,0.2,0.2c0.4,0.4,0.5,0.8,0,1.2c-0.4,0.4-0.8,0.1-1.1-0.3c-1.8-1.9-2.1-5.1-0.7-7.4c0.4-0.8,1-1.4,1.6-2
		c2-2.2,2.1-4.6,0.3-6.9c-0.3-0.4-0.5-0.7-0.1-1.1c0.4-0.4,0.8-0.2,1.1,0.2C240.1,32.9,240.7,34.5,240.8,36.1z"/>
	<path class="st0" d="M229.7,41.5c-0.1,1.6-0.6,3.1-1.7,4.3c-0.5,0.5-0.9,1-1.3,1.5c-1.4,1.8-1.4,4.3,0.1,6.1
		c0.1,0.1,0.1,0.1,0.2,0.2c0.4,0.4,0.6,0.8,0.1,1.2c-0.5,0.4-0.8,0.1-1.2-0.3c-2.1-2.3-2.1-5.9,0-8.4c0.5-0.6,1-1.1,1.5-1.7
		c1.4-1.9,1.3-4.4-0.2-6.1c-0.4-0.4-0.6-0.8-0.1-1.3c0.5-0.4,0.9,0,1.2,0.3C229.2,38.6,229.7,39.9,229.7,41.5z"/>
	<path class="st0" d="M251.9,31.8c0.1,1.7-0.6,3.1-1.7,4.3c-0.3,0.4-0.7,0.8-1.1,1.2c-1.7,2-1.7,4.4,0,6.4c0.3,0.4,0.7,0.8,0.1,1.3
		c-0.5,0.4-0.9,0.1-1.2-0.4c-2.1-2.6-2-6.1,0.3-8.5c0.6-0.6,1.1-1.2,1.5-1.9c1.2-1.8,1-4-0.5-5.7c-0.4-0.4-0.7-0.9-0.2-1.3
		c0.5-0.4,0.9,0,1.2,0.4C251.4,28.8,251.9,30.2,251.9,31.8z"/>
	<path class="st0" d="M314.2,89.9c0.1,0.6-0.2,0.9-0.5,1c-0.4,0.1-0.7-0.2-0.8-0.6c-0.6-2.4-1.3-4.7-2.1-7c-0.2-0.4,0-0.8,0.3-0.9
		c0.4-0.2,0.7-0.1,0.9,0.4C312.9,85.1,313.6,87.6,314.2,89.9z"/>
	<path class="st0" d="M214.4,50.8c-0.3-0.1-0.6-0.2-0.6-0.5c-0.1-0.4,0-0.7,0.4-0.9c1.1-0.7,2.2-1.3,3.3-2c1-0.6,2.1-1.1,3.1-1.6
		c0.4-0.2,0.8-0.2,1,0.2c0.2,0.4,0.1,0.8-0.3,1c-2.2,1.1-4.3,2.3-6.4,3.6C214.7,50.7,214.5,50.8,214.4,50.8z"/>
	<path class="st0" d="M192.2,136.3c0.3,0,0.5,0.2,0.6,0.5c1.1,2.1,2.4,4.1,3.8,6c0.3,0.4,0.4,0.8-0.1,1.1c-0.5,0.3-0.8,0-1.1-0.4
		c-1.3-1.9-2.6-3.9-3.7-6C191.3,136.9,191.6,136.3,192.2,136.3z"/>
	<path class="st0" d="M316,103.5c0,0.5,0,0.9,0,1.4c0,0.5-0.2,0.8-0.7,0.8c-0.5,0-0.7-0.3-0.7-0.8c-0.1-2.4-0.1-4.8-0.5-7.2
		c-0.1-0.5,0.2-0.8,0.6-0.9c0.6-0.1,0.8,0.4,0.8,0.9C315.8,99.7,315.9,101.6,316,103.5C316.1,103.5,316.1,103.5,316,103.5z"/>
	<path class="st0" d="M189.6,130.2c0,0.3-0.1,0.6-0.5,0.7c-0.3,0.1-0.6,0-0.8-0.3c-0.2-0.4-0.4-0.8-0.5-1.3c-0.8-1.9-1.4-3.9-2-5.9
		c-0.1-0.4-0.1-0.8,0.4-1c0.5-0.2,0.8,0.1,0.9,0.5c0.7,2.3,1.5,4.6,2.4,6.9C189.6,130,189.6,130.1,189.6,130.2z"/>
	<path class="st0" d="M229.7,168.7c-0.5-0.2-1-0.3-1.6-0.5c-1.8-0.6-3.5-1.3-5.2-2c-0.5-0.2-0.8-0.5-0.6-1c0.2-0.5,0.7-0.4,1.1-0.2
		c2.1,1,4.3,1.8,6.5,2.5c0.4,0.1,0.7,0.4,0.7,0.9C230.6,168.6,230.2,168.8,229.7,168.7z"/>
	<path class="st0" d="M290.1,53.1c0,0.3-0.1,0.5-0.4,0.6c-0.3,0.2-0.6,0.1-0.8-0.1c-1.6-1.2-3.2-2.3-4.8-3.3
		c-0.4-0.2-0.7-0.5-1.1-0.7c-0.5-0.3-0.6-0.6-0.3-1.1c0.3-0.4,0.7-0.4,1.1-0.1c1.6,1,3.2,2,4.8,3.2c0.4,0.3,0.9,0.7,1.3,1
		C290,52.7,290.1,52.9,290.1,53.1z"/>
	<path class="st0" d="M209,54.5c0,0.4-0.3,0.6-0.5,0.8c-1.8,1.4-3.5,3-5.1,4.6c-0.3,0.3-0.7,0.5-1.1,0.2c-0.4-0.4-0.3-0.8,0.1-1.1
		c1.7-1.7,3.5-3.3,5.3-4.9c0.3-0.2,0.6-0.3,0.9-0.2C208.9,54,208.9,54.3,209,54.5z"/>
	<path class="st0" d="M300.3,64.3c-0.3,0-0.5-0.2-0.7-0.4c-1.5-1.8-3-3.4-4.7-5c-0.4-0.4-0.7-0.8-0.2-1.3c0.4-0.4,0.8-0.1,1.2,0.2
		c1.7,1.6,3.2,3.3,4.7,5.1c0.2,0.3,0.5,0.6,0.2,1C300.7,64.1,300.5,64.2,300.3,64.3z"/>
	<path class="st0" d="M304.7,68.9c0.4-0.1,0.5,0.2,0.7,0.5c1.2,2.1,2.5,4.1,3.6,6.2c0.2,0.4,0.2,0.8-0.2,1c-0.5,0.3-0.8,0-1-0.4
		c-1.1-2.2-2.3-4.2-3.6-6.2C303.8,69.4,304.1,68.9,304.7,68.9z"/>
	<path class="st0" d="M277.2,45.5c0,0.6-0.5,0.8-1.1,0.5c-1.8-0.8-3.6-1.5-5.5-2.1c-0.4-0.1-0.8-0.3-1.2-0.4
		c-0.4-0.1-0.7-0.4-0.5-0.8c0.1-0.4,0.5-0.6,1-0.5c2.3,0.8,4.6,1.6,6.9,2.6C276.9,44.9,277.2,45.1,277.2,45.5z"/>
	<path class="st0" d="M183.6,100.5c0.2-2.4,0.5-4.8,0.9-7.1c0.1-0.5,0.4-0.7,0.8-0.7c0.5,0.1,0.6,0.4,0.6,0.9
		c-0.4,2.3-0.7,4.7-0.9,7c0,0.5-0.2,1-0.8,0.9C183.7,101.4,183.5,101,183.6,100.5z"/>
	<path class="st0" d="M315.7,112.7c-0.3,2.5-0.7,4.9-1.2,7.3c-0.1,0.4-0.3,0.8-0.8,0.7c-0.5-0.1-0.7-0.5-0.6-1
		c0.5-2.3,0.9-4.6,1.2-6.9c0-0.4,0.2-0.9,0.8-0.8C315.6,112,315.7,112.3,315.7,112.7z"/>
	<path class="st0" d="M267.1,169.5c-0.4,0-0.7-0.1-0.7-0.5c-0.1-0.4,0.1-0.7,0.5-0.8c1.7-0.5,3.5-1.1,5.2-1.7
		c0.6-0.2,1.2-0.5,1.8-0.7c0.4-0.1,0.8-0.1,0.9,0.4c0.1,0.4,0,0.7-0.4,0.9c-2.3,0.9-4.7,1.7-7.1,2.4
		C267.2,169.5,267.2,169.5,267.1,169.5z"/>
	<path class="st0" d="M185.6,115.8c0,0.2-0.2,0.5-0.6,0.6c-0.5,0-0.7-0.2-0.8-0.6c-0.1-1-0.3-1.9-0.4-2.9c-0.1-1.5-0.2-3-0.3-4.4
		c0-0.4,0.1-0.8,0.6-0.8c0.5,0,0.7,0.3,0.7,0.7C184.9,110.8,185.2,113.2,185.6,115.8z"/>
	<path class="st0" d="M253.2,171.7c-0.3,0-0.6,0-0.9,0c-0.4,0-0.8-0.2-0.8-0.6c0-0.5,0.3-0.7,0.8-0.7c1.5-0.1,3-0.2,4.5-0.4
		c0.8-0.1,1.6-0.2,2.4-0.3c0.5-0.1,1.1-0.1,1.2,0.6c0.1,0.7-0.5,0.8-1,0.9C257.3,171.3,255.3,171.5,253.2,171.7
		C253.2,171.7,253.2,171.7,253.2,171.7z"/>
	<path class="st0" d="M193.5,72.1c-0.5,0-0.8-0.5-0.5-1c1.3-2.2,2.7-4.3,4.3-6.3c0.3-0.4,0.7-0.3,1-0.1c0.4,0.3,0.3,0.7,0,1.1
		c-1.3,1.8-2.5,3.6-3.8,5.3C194.2,71.5,194.1,72.1,193.5,72.1z"/>
	<path class="st0" d="M244,171.5c-2.2-0.2-4.5-0.5-6.7-0.9c-0.5-0.1-0.8-0.3-0.7-0.8c0.1-0.6,0.5-0.6,0.9-0.5
		c1.4,0.2,2.8,0.4,4.2,0.6c0.9,0.1,1.8,0.2,2.7,0.3c0.6,0,1,0.1,1,0.8c-0.1,0.7-0.6,0.6-1.1,0.6C244.2,171.5,244.1,171.5,244,171.5z
		"/>
	<path class="st0" d="M312.3,127.3c0,0-0.1,0.2-0.1,0.3c-0.6,1.8-1.3,3.5-2.1,5.2c-0.2,0.5-0.5,0.8-1,0.6c-0.5-0.2-0.5-0.7-0.2-1.2
		c0.8-1.7,1.5-3.4,2.1-5.1c0.1-0.4,0.4-0.8,0.8-0.7C312.1,126.5,312.3,126.8,312.3,127.3z"/>
	<path class="st0" d="M211.6,158.1c0.1,0,0.3,0.1,0.4,0.2c1.5,1,3,2,4.5,2.9c0.4,0.3,0.7,0.6,0.4,1c-0.3,0.5-0.7,0.4-1.1,0.1
		c-1.6-0.9-3.1-1.9-4.5-3c-0.3-0.2-0.6-0.5-0.4-0.8C210.9,158.3,211.1,158.1,211.6,158.1z"/>
	<path class="st0" d="M281.8,153.8c-0.1,2.3-1.6,4.4-4.7,4.3c-2.2-0.1-4.1-1.7-4.1-4.4c0-2.4,2-4.4,4.4-4.4
		C279.9,149.3,281.8,151.3,281.8,153.8z M280.3,153.7c0-1.6-1.2-2.9-2.8-2.9c-1.6-0.1-2.9,1.2-3,2.8c-0.1,1.7,1.2,3.1,2.8,3.1
		C279,156.7,280.3,155.4,280.3,153.7z"/>
	<path class="st0" d="M266.5,144.1c0-1.8,1.3-3.1,3.1-3.1c1.8,0,3.1,1.4,3.1,3.2c0,1.8-1.4,3.1-3.3,3.1
		C267.8,147.2,266.5,145.8,266.5,144.1z M271.3,144.1c0-0.9-0.8-1.7-1.7-1.7c-0.9,0-1.7,0.8-1.7,1.6c0,0.9,0.8,1.7,1.7,1.8
		C270.4,145.8,271.3,144.9,271.3,144.1z"/>
</g>
<g>
	<g id="Layer_35_1_">
		<g>
			<g>
				<path class="st0" d="M41.2,112.9c0,4.2,3.4,7.8,7.8,7.8s7.8-3.4,7.8-7.8c0-4.2-3.4-7.8-7.8-7.8S41.2,108.7,41.2,112.9z
					 M54.3,112.9c0,2.9-2.4,5.3-5.3,5.3c-2.9,0-5.3-2.4-5.3-5.3s2.4-5.3,5.3-5.3C51.9,107.6,54.3,110,54.3,112.9z"/>
				<path class="st0" d="M85.5,112.2C75.8,98.6,62.8,91.1,49,91.1s-26.8,7.5-36.5,21.1c-0.3,0.4-0.3,1,0,1.4c1.5,2,3,4,4.7,5.8
					l0.2,0.2c9,9.8,20,15.1,31.7,15.1c13.8,0,26.8-7.5,36.5-21.1C85.8,113.2,85.8,112.7,85.5,112.2L85.5,112.2z M61.8,112.9
					c0,7.1-5.8,12.8-12.8,12.8s-12.8-5.7-12.8-12.8c0-3.7,1.6-7.2,4.4-9.6c5.6-0.7,11.3-0.7,16.8,0
					C60.2,105.7,61.8,109.2,61.8,112.9z M49,100.3c-10.4,0-20.7,2.4-29.5,7.3c8.5-9.1,18.8-14,29.5-14s21.1,5,29.5,14
					C69.7,102.7,59.3,100.3,49,100.3z M49,132.3c-10.5,0-20.6-4.7-28.9-13.4l2.8-1.7l3.6,1.2c0.2,0.1,0.2,0.1,0.4,0.1
					c0.5,0,1-0.3,1.1-0.8c0.2-0.7-0.1-1.3-0.7-1.6l-3.1-1.1l0.3-1.5c0.2-0.7-0.2-1.3-0.9-1.5s-1.3,0.2-1.5,0.9l-0.5,2l-3.3,2
					c-1.1-1.2-2.1-2.5-3.2-3.9c6.2-4.6,13.6-7.7,21.5-9.2c-1.9,2.6-2.9,5.7-2.9,9c0,2.5,0.7,4.9,1.7,7l-2.1,1l-3.4-1
					c-0.7-0.2-1.3,0.2-1.5,0.9c-0.2,0.7,0.2,1.3,0.9,1.5l3.9,1.1c0.2,0.1,0.6,0.1,0.9-0.1l2.8-1.3c2.7,3.7,7.1,6.1,12.1,6.1
					c6.9,0,12.7-4.6,14.6-10.9l5,0.6l2,2.2c0.2,0.2,0.6,0.4,0.9,0.4s0.6-0.1,0.8-0.3c0.5-0.5,0.5-1.2,0.1-1.7l-1.6-1.7l1-1
					c0.5-0.5,0.4-1.2-0.1-1.7s-1.2-0.4-1.7,0.1l-1.3,1.4l-4.6-0.6c0.1-0.7,0.2-1.3,0.2-2c0-3.3-1.1-6.4-2.9-9
					c7.8,1.6,15.3,4.7,21.5,9.2C73.6,125.6,61.6,132.3,49,132.3L49,132.3z"/>
				<path class="st0" d="M49,83.8c0.7,0,1.2-0.6,1.2-1.2V79c0-0.7-0.6-1.2-1.2-1.2c-0.7,0-1.2,0.6-1.2,1.2v3.5
					C47.8,83.2,48.3,83.8,49,83.8z"/>
				<path class="st0" d="M60.5,88.5c0.3,0,0.7-0.1,0.9-0.3l2.5-2.5c0.5-0.5,0.5-1.2,0-1.7s-1.2-0.5-1.7,0l-2.5,2.5
					c-0.5,0.5-0.5,1.2,0,1.7C59.9,88.4,60.2,88.5,60.5,88.5z"/>
				<path class="st0" d="M36.6,88.2c0.2,0.2,0.6,0.3,0.9,0.3c0.3,0,0.7-0.1,0.9-0.3c0.5-0.5,0.5-1.2,0-1.7l-2.5-2.5
					c-0.5-0.5-1.2-0.5-1.7,0s-0.5,1.2,0,1.7L36.6,88.2z"/>
				<path class="st0" d="M49,143.2c-0.7,0-1.2,0.6-1.2,1.2v3.5c0,0.7,0.6,1.2,1.2,1.2c0.7,0,1.2-0.6,1.2-1.2v-3.5
					C50.2,143.8,49.6,143.2,49,143.2z"/>
				<path class="st0" d="M36.6,138.8l-2.4,2.4c-0.5,0.5-0.5,1.2,0,1.7c0.2,0.2,0.6,0.3,0.9,0.3s0.7-0.1,0.9-0.3l2.5-2.5
					c0.5-0.5,0.5-1.2,0-1.7C37.9,138.3,37.1,138.3,36.6,138.8L36.6,138.8z"/>
				<path class="st0" d="M61.4,138.8c-0.5-0.5-1.2-0.5-1.7,0c-0.5,0.5-0.5,1.2,0,1.7l2.5,2.5c0.2,0.2,0.6,0.3,0.9,0.3
					c0.3,0,0.7-0.1,0.9-0.3c0.5-0.5,0.5-1.2,0-1.7L61.4,138.8z"/>
			</g>
		</g>
	</g>
	<path class="st0" d="M143.1,47.5c1.6-1.9,1.3-4.7-0.5-6.3c-1.8-1.5-4.4-1.4-6,0.2l-2.5,2.4l-0.1-18c0-2.6-2.1-4.8-4.8-4.8
		c-0.6,0-1.2,0.1-1.7,0.3c-0.5-2.1-2.4-3.7-4.7-3.7c-2.3,0-4.2,1.6-4.7,3.7c-0.5-0.2-1.1-0.3-1.7-0.3c-2.6,0-4.8,2.1-4.8,4.8v1.9
		c-0.5-0.2-1-0.3-1.6-0.3c-2.6,0-4.8,2.1-4.8,4.8v25.2c0,2.3,1,4.4,2.5,5.8c-1.5,1.1-2.5,2.8-2.5,4.8v56.8c0,0.9,0.7,1.6,1.6,1.6
		c0.9,0,1.6-0.7,1.6-1.6V74.7h21.2v50.1c0,0.9,0.7,1.6,1.6,1.6c0.9,0,1.6-0.7,1.6-1.6V73.1c0,0,0,0,0,0s0,0,0,0V68
		c0-2.1-1.1-3.9-2.7-4.9c0.2-0.2,0.4-0.4,0.5-0.6L143.1,47.5z M108.4,32.1c0-0.9,0.7-1.6,1.6-1.6c0.9,0,1.6,0.7,1.6,1.6v4.6v2.6
		c0,0.9,0.7,1.6,1.6,1.6s1.6-0.7,1.6-1.6v-2.6v-4.6v-6.4c0-0.9,0.7-1.6,1.6-1.6s1.6,0.7,1.6,1.6v13.6c0,0.9,0.7,1.6,1.6,1.6
		s1.6-0.7,1.6-1.6v-6.8c0,0,0,0,0,0V22.3c0-0.9,0.7-1.6,1.6-1.6c0.9,0,1.6,0.7,1.6,1.6v3.4v10.1v3.5c0,0.9,0.7,1.6,1.6,1.6
		c0.9,0,1.6-0.7,1.6-1.6v-3.5V25.7c0-0.9,0.7-1.6,1.6-1.6s1.6,0.7,1.6,1.6l0.2,20.2c0,0.9,0.5,1.7,1.4,2c0.8,0.3,1.8,0.2,2.4-0.4
		l4.1-3.9c0.5-0.5,1.3-0.5,1.8,0c0.5,0.5,0.6,1.3,0.2,1.9l-12.6,15c-0.9,1.1-2.2,1.7-3.7,1.7h-11.3c-2.6,0-4.8-2.1-4.8-4.8V32.1z
		 M108.4,71.5V68c0-1.5,1.2-2.7,2.7-2.7h2.1h11.3h2.5c1.5,0,2.7,1.2,2.7,2.7v3.5H108.4z"/>
	<g>
		<path class="st0" d="M9.7,25.2l-2.3-1.1C7,25,6.7,25.9,6.4,26.8l2.4,0.8C9.1,26.8,9.4,26,9.7,25.2z"/>
		<path class="st0" d="M81.7,18.5l-3.7-0.9c-1.6-0.4-3.3-0.6-5-0.6H60.3c-2.3-1.8-5.1-2.7-8-2.6h-7.3c-1.6-1.2-3.4-2.1-5.4-2.6
			c-2.7-0.8-5.6-1.2-8.4-1.2h-3.2c-7.9,0-15.1,4.1-19.2,10.8l2.2,1.4c3.7-5.9,10.1-9.6,17.1-9.6h3.2c2.6,0,5.2,0.4,7.7,1.1
			c2.3,0.6,4.4,1.8,6.1,3.5c3.7,3.8,4.7,5.8,4.7,11.6v8c0,4.1-1.8,7.9-5,10.5L19.6,68.6c-0.6,0.5-1.3,0.7-2,0.7
			c-1.4,0-2.7-1-3.1-2.3L7.7,39.2v-4.8c0-1.5,0.1-2.9,0.4-4.4l-2.5-0.5c-0.3,1.6-0.5,3.2-0.5,4.9v5c0,0.1,0,0.2,0,0.3L12,67.6
			c0.6,2.5,2.9,4.3,5.5,4.3c1.3,0,2.6-0.5,3.7-1.3l25.2-20.7c1.2-1,2.2-2.1,3.1-3.4c0.7,0.7,1.7,1.2,2.8,1.2c2,0,3-1.4,3.5-2.9
			l0.3,0.2c1.5,1,3.2,1.5,5,1.5h1.5c3,0,7-2.2,12.3-6.7l-1.7-1.9c-5.9,5-9,6.1-10.7,6.1h-1.5c-1.3,0-2.5-0.4-3.5-1.1l-1.3-0.9V31
			h-2.6v11.5c0,0-0.1,2.6-1.3,2.6c-0.1,0-0.2,0-0.2,0c-0.6-0.1-1.1-0.6-1-1.3H51c0.9-2,1.3-4.2,1.3-6.4v-8c0-6-1.2-8.7-4.5-12.4h4.5
			c1.9,0,3.7,0.4,5.4,1.3c-2.6,1.9-4.1,5-4.1,8.2v2h2.6v-2c0-3,1.7-5.6,4.4-6.9h12.4c1.5,0,2.9,0.2,4.4,0.5L81,21
			c0.7,0.2,1.3,0.5,1.8,1c1.7,1.6,1.9,4.2,0.3,6c-1.7,1.9-4.4,4.7-7.4,7.5l1.7,1.9c3.1-2.9,5.8-5.8,7.6-7.7c0.7-0.8,1.3-1.8,1.5-2.9
			C87.5,23.1,85.3,19.5,81.7,18.5z"/>
		<path class="st0" d="M43.5,25.1l2.4-0.8c-2-5.2-7.1-8.6-12.7-8.5v2.6C37.7,18.1,41.9,20.8,43.5,25.1z"/>
	</g>
	<path class="st0" d="M75.3,139.9c-1,0-2,0-3-0.1l0.2-4c1.9,0.1,3.8,0.1,5.7,0l0.2,4C77.4,139.9,76.3,139.9,75.3,139.9z"/>
	<path class="st0" d="M69.5,139.6c-2-0.2-4-0.4-6-0.8l0.7-3.9c1.9,0.3,3.8,0.6,5.7,0.7L69.5,139.6z"/>
	<path class="st0" d="M81.1,139.6l-0.3-4c1.9-0.2,3.8-0.4,5.7-0.7l0.7,3.9C85.2,139.2,83.1,139.5,81.1,139.6z"/>
	<path class="st0" d="M89.9,138.4l-0.8-3.9c1.9-0.4,3.7-0.9,5.5-1.4l1.2,3.8C93.8,137.4,91.9,137.9,89.9,138.4z"/>
	<path class="st0" d="M98.4,136l-1.3-3.8c1.8-0.6,3.6-1.3,5.3-2.1l1.6,3.6C102.2,134.5,100.3,135.3,98.4,136z"/>
	<path class="st0" d="M106.5,132.5l-1.8-3.6c1.7-0.9,3.4-1.8,5-2.8l2.1,3.4C110.1,130.6,108.3,131.6,106.5,132.5z"/>
	<path class="st0" d="M114.1,128l-2.2-3.3c1.6-1.1,3.1-2.2,4.6-3.4l2.5,3.1C117.5,125.7,115.8,126.9,114.1,128z"/>
	<path class="st0" d="M121.1,122.6l-2.6-3c1.4-1.3,2.8-2.6,4.1-4l2.9,2.8C124.1,119.9,122.7,121.3,121.1,122.6z"/>
	<path class="st0" d="M13.3,101.8c-0.9-1.8-1.8-3.7-2.5-5.5l3.7-1.5c0.7,1.8,1.5,3.5,2.4,5.2L13.3,101.8z"/>
	<path class="st0" d="M9.8,93.7c-0.7-1.9-1.3-3.9-1.8-5.8l3.9-1c0.5,1.8,1,3.7,1.7,5.5L9.8,93.7z"/>
	<path class="st0" d="M140.8,93.7l-3.8-1.3c0.6-1.8,1.2-3.6,1.7-5.5l3.9,1C142.1,89.8,141.5,91.8,140.8,93.7z"/>
	<path class="st0" d="M7.4,85.2c-0.4-2-0.8-4-1-6l4-0.5c0.2,1.9,0.6,3.8,1,5.6L7.4,85.2z"/>
	<path class="st0" d="M143.3,85.2l-3.9-0.8c0.4-1.9,0.7-3.8,1-5.6l4,0.5C144,81.2,143.7,83.2,143.3,85.2z"/>
	<path class="st0" d="M6.1,76.5c-0.2-2-0.3-4-0.3-6.1l4,0c0,1.9,0.1,3.8,0.2,5.7L6.1,76.5z"/>
	<path class="st0" d="M144.6,76.4l-4-0.3c0.2-1.9,0.2-3.8,0.2-5.7c0-1.1,0-2.1-0.1-3.2l4-0.2c0.1,1.1,0.1,2.2,0.1,3.4
		C144.8,72.4,144.7,74.4,144.6,76.4z"/>
	<path class="st0" d="M9.8,67.8l-4-0.2c0.1-2,0.2-4.1,0.5-6l4,0.5C10.1,64,9.9,65.9,9.8,67.8z"/>
	<path class="st0" d="M140.6,64.6c-0.2-1.9-0.4-3.8-0.7-5.7l3.9-0.7c0.3,2,0.6,4,0.8,6L140.6,64.6z"/>
	<path class="st0" d="M139.3,56.3c-0.4-1.9-0.9-3.7-1.5-5.5l3.8-1.2c0.6,1.9,1.1,3.9,1.6,5.9L139.3,56.3z"/>
	<path class="st0" d="M111.9,16c-1.6-1.1-3.2-2.1-4.9-3l1.9-3.5c1.8,1,3.5,2,5.2,3.2L111.9,16z"/>
	<path class="st0" d="M43.1,13.3l-2-3.5c1.8-1,3.6-1.9,5.4-2.8l1.6,3.6C46.5,11.5,44.8,12.3,43.1,13.3z"/>
	<path class="st0" d="M104.7,11.8c-1.7-0.9-3.5-1.6-5.2-2.3l1.5-3.7c1.9,0.7,3.7,1.6,5.5,2.5L104.7,11.8z"/>
	<path class="st0" d="M50.6,9.7L49.1,6c1.9-0.8,3.8-1.4,5.7-2L56,7.7C54.2,8.3,52.4,8.9,50.6,9.7z"/>
	<path class="st0" d="M97,8.5c-1.8-0.6-3.6-1.2-5.5-1.7l1-3.9c2,0.5,3.9,1.1,5.8,1.8L97,8.5z"/>
	<path class="st0" d="M58.5,7l-1-3.9c1.9-0.5,3.9-0.9,5.9-1.3l0.7,3.9C62.2,6.1,60.4,6.5,58.5,7z"/>
	<path class="st0" d="M89,6.3c-1.9-0.4-3.8-0.7-5.6-0.9l0.5-4c2,0.2,4,0.6,6,1L89,6.3z"/>
	<path class="st0" d="M66.7,5.4l-0.5-4c2-0.3,4-0.4,6-0.5l0.2,4C70.5,5,68.6,5.2,66.7,5.4z"/>
	<path class="st0" d="M80.7,5.1c-1.8-0.1-3.6-0.2-5.4-0.2l-0.3,0l0-4l0.3,0c1.9,0,3.8,0.1,5.7,0.2L80.7,5.1z"/>
</g>
<g>
	<path class="st0" d="M-204.7-21.1c-3.8-0.9-7.4-2.3-10.3-5.1c-3.8-3.6-5.6-8.1-5.9-13.3c-0.3-6.2,0.6-12.1,3-17.9
		c2.7-6.5,5-13.2,6.1-20.3c1.2-8.2,0.8-16.4-0.5-24.5c-2.4-15.5-4.8-31.1-7-46.6c-1.2-8.4-2.5-16.9-3-25.4
		c-0.6-9.5-0.3-19.1-0.3-28.6c0-1.6,1.1-2.7,2.5-2.7c1.4-0.1,2.6,1,2.8,2.5c0.1,0.6,0,1.2,0,1.8c0.1,9.6-0.1,19.2,0.5,28.8
		c0.5,8.1,1.8,16.2,3,24.3c2.3,15.6,4.5,31.1,7.1,46.6c2.7,16,0.2,31.3-6.1,46.1c-2.2,5.1-2.9,10.3-2.7,15.8
		c0.3,7.3,5.8,13.1,13.1,13.1c8.3,0.1,16.7,0.2,25-0.1c3.6-0.1,7.1-1.5,10.7-2.2c3.7-0.7,7.4-1.4,11.1-2c6.5-1,12.8,0.4,19.2,1.2
		c16,2,31.9,3.7,48.1,3.1c6.7-0.2,13.3,0,20,0c4.8,0,8.4-3,8.9-7.2c0.5-4.7-2.2-8.2-7.1-9.3c-5.3-1.1-10.6-2.2-15.8-3.4
		c-1.4-0.3-2.9-0.8-4.2-1.4c-16.4-8.4-32.6-17-49.1-25.4c-6.7-3.4-12-7.9-14.6-15.3c-1.7,1.6-3.3,3-4.8,4.5
		c-2.9,2.8-5.9,5.5-8.8,8.3c-1.7,1.6-3.4,1.8-4.5,0.6c-1.2-1.3-1-2.8,0.8-4.5c19.9-18.8,39.9-37.5,59.8-56.3
		c0.6-0.6,1.2-1.1,1.9-1.8c-3.6-3.5-6.5-7.4-8.5-11.9c-11.4-24.3,4.4-52.6,31.1-55.7c6.1-0.7,12.1,0,17.9,2.1c1.2,0.4,2.3,1.2,2,2.6
		c-0.2,0.9-0.9,2-1.6,2.5c-0.6,0.4-1.8,0.1-2.6-0.1c-3.9-1.3-7.9-1.9-12-1.9c-17,0.3-31.2,13.6-33,30.8
		c-1.7,16.6,9.8,32.6,26.2,36.2c22.7,5,43.4-13,41.4-36.2c-0.7-8.5-4.4-15.7-10.6-21.7c-0.2-0.2-0.5-0.4-0.7-0.6
		c-1.5-1.4-1.7-3-0.6-4.2c1.1-1.2,2.7-1.1,4.1,0.2c5.3,4.7,9.1,10.4,11.3,17.1c7.8,23.8-8.3,48.8-33.2,51.4c-9,0.9-17.4-1-25.1-5.9
		c-0.6-0.4-1.1-0.7-1.7-1.1c0,0-0.1,0-0.3-0.1c-3.6,3.4-7.2,6.8-10.8,10.2c-10.6,10-21.1,19.9-31.8,29.8c-1.1,1.1-1.3,2-0.9,3.4
		c1.7,5.2,5.1,9,10,11.5c15.8,8.2,31.6,16.2,47.2,24.6c5.8,3.1,12.1,3.8,18.2,5.3c2,0.5,4,0.8,6,1.3c6.1,1.7,10.1,7.1,10,13.4
		c-0.1,6.3-4.3,11.5-10.4,13.1c-0.4,0.1-0.8,0.3-1.2,0.4c-15.3,0-30.5,0-45.8,0c-0.4-0.1-0.8-0.3-1.2-0.3
		c-8.1-0.9-16.2-1.9-24.3-2.8c-4.9-0.5-9.9-1.4-14.8-1.4c-8.2,0.1-16,2.6-23.9,4.5C-185.2-21.1-194.9-21.1-204.7-21.1z"/>
	<path class="st0" d="M-143.1-155.4c-0.8,15.6-1.6,31.3-2.4,46.9c-0.1,2.1-1.2,3.3-2.8,3.2c-1.7-0.1-2.7-1.3-2.5-3.4
		c0.6-12.6,1.3-25.3,1.9-37.9c0.7-13,1.3-26,2-39c0.3-5.5,0.5-10.9,0.8-16.4c0-0.3,0-0.6,0.1-0.9c0.3-1.7,1.3-2.7,2.8-2.7
		c1.6,0.1,2.6,1.3,2.5,3.1c-0.3,6.2-0.6,12.5-0.9,18.7C-142.2-174.3-142.7-164.9-143.1-155.4C-143.2-155.4-143.2-155.4-143.1-155.4z
		"/>
	<path class="st0" d="M-78.5-153.3c-6.8,0-12-6.6-9.5-12.9c1.9-4.8,4.7-9.3,7.2-13.8c1-1.8,3.4-1.7,4.5,0.1
		c2.5,4.5,5.3,8.9,7.2,13.6C-66.6-160-71.6-153.3-78.5-153.3z M-78.1-173.3c-0.3,0-0.5,0-0.8,0c-1.4,3.1-2.9,6.1-4.1,9.2
		c-0.6,1.6,0.4,3.5,1.8,4.5c1.6,1.1,3.6,1.1,5.2,0.1c1.6-1,2.6-3,2-4.6C-75.2-167.2-76.7-170.2-78.1-173.3z"/>
	<path class="st0" d="M-163.5-97c-0.6,1-0.9,1.8-1.4,2.4c-8.3,8.4-16.7,16.7-25.1,25.1c-1.4,1.4-3,1.5-4.1,0.3
		c-1.2-1.2-1.1-2.7,0.3-4.1c8.3-8.4,16.7-16.7,25.1-25.1c0.9-0.9,2.1-1.4,3.2-0.8C-164.7-98.8-164.2-97.8-163.5-97z"/>
	<path class="st0" d="M-168-112.3c-0.6,1-0.8,1.8-1.4,2.3c-7.3,7.4-14.6,14.7-22,22c-1.4,1.4-3,1.4-4.1,0.2c-1.1-1.1-1.1-2.7,0.3-4
		c7.4-7.4,14.7-14.8,22.2-22.1c0.6-0.6,2.1-0.9,3-0.6C-169.2-114.2-168.7-113.1-168-112.3z"/>
	<path class="st0" d="M-51.4-158.1c-0.6,1-0.9,1.8-1.4,2.4c-5.1,5.2-10.3,10.4-15.5,15.5c-1.4,1.4-3,1.4-4.1,0.2
		c-1.1-1.1-1-2.7,0.3-4c5.2-5.2,10.3-10.4,15.5-15.5c0.9-0.9,2-1.5,3.2-0.8C-52.6-159.8-52.1-158.9-51.4-158.1z"/>
	<path class="st0" d="M-197.5-55.7c0-1.1,0-2.2,0-3.2c0.1-1.6,1.1-2.6,2.6-2.7c1.5,0,2.6,0.9,2.7,2.5c0.1,1.7,0,3.4,0.1,5
		c0.1,4.2,2.6,7,6.8,7.4c2,0.2,3.1,1.2,3,2.9c-0.1,1.6-1.3,2.6-3.3,2.5c-6.1-0.1-11.5-5.3-11.9-11.4
		C-197.5-53.7-197.5-54.7-197.5-55.7C-197.5-55.7-197.5-55.7-197.5-55.7z"/>
	<path class="st0" d="M-86.5-189.9c-0.6,1-0.9,1.8-1.5,2.3c-4.1,4.1-8.2,8.2-12.3,12.3c-1.4,1.3-3,1.4-4.1,0.2c-1.1-1.2-1-2.6,0.3-4
		c4.1-4.2,8.3-8.3,12.4-12.4c0.9-0.9,2.1-1.4,3.2-0.7C-87.6-191.7-87.2-190.7-86.5-189.9z"/>
	<path class="st0" d="M-175.6-71c0.5,0.5,1.6,0.9,1.9,1.7c0.3,0.8,0.2,2.2-0.3,2.8c-1.8,1.9-3.7,3.6-5.7,5.2
		c-1.1,0.9-2.3,0.7-3.3-0.3c-1-0.9-1.3-2.3-0.4-3.2c2-2.1,4.2-3.9,6.4-5.8C-176.9-70.9-176.4-70.8-175.6-71z"/>
	<path class="st0" d="M-64.9-190.1c0.1,2.4-5,7.4-6.8,7.3c-2-0.1-3.3-2.5-2-4.1c1.4-1.7,3-3.3,4.7-4.7c0.6-0.5,1.9-0.5,2.6-0.2
		C-65.6-191.4-65.2-190.5-64.9-190.1z"/>
	<path class="st0" d="M-95.2-159.1c-0.3,0.8-0.3,1.3-0.6,1.7c-1.6,1.6-3.1,3.3-4.8,4.8c-1,0.9-2.3,0.6-3.3-0.4c-1-1-1.2-2.2-0.4-3.3
		c1.5-1.7,3.1-3.4,4.8-4.8c0.6-0.5,1.9-0.4,2.6,0C-96.1-160.8-95.7-159.8-95.2-159.1z"/>
	<path class="st0" d="M-60.5-171.8c-0.5-0.4-1.6-0.9-1.8-1.6c-0.3-0.8-0.3-2.2,0.2-2.8c1.3-1.6,2.8-3.1,4.4-4.5
		c1-0.9,2.3-0.8,3.3,0.1c1,0.9,1.4,2.2,0.6,3.2c-1.5,1.8-3.3,3.4-5,5.1C-59.1-172-59.6-172-60.5-171.8z"/>
	<path class="st0" d="M-84.6-148.1c0.1,2.4-4.9,7.5-6.6,7.2c-0.8-0.1-1.9-0.8-2.2-1.5c-0.3-0.8-0.2-2.1,0.3-2.8
		c1.2-1.6,2.7-3.1,4.3-4.3c0.6-0.5,2-0.6,2.8-0.3C-85.4-149.4-84.9-148.4-84.6-148.1z"/>
</g>
<g>
	<g>
		<path class="st0" d="M345.9-210.5c-5.4-0.7-10.9-0.4-16.4-0.4c-8.7,0-16.7,2.6-23.7,7.8c-5.4,4.1-10.8,8.2-16.3,12.2
			c-0.9,0.7-2.2,1.1-3.4,1.1c-12.1,0.1-24.2,0.1-36.3,0c-1.2,0-2.6-0.5-3.6-1.3c-5.4-3.9-10.8-8-16.1-12c-4.7-3.6-9.9-6.3-15.8-7
			c-6.8-0.7-13.7-0.8-20.6-0.8c-12.8,0-23.4,9.4-24.3,22.2c-0.6,9-0.3,18.2-0.3,27.2c0,3.8-0.1,7.6,0.2,11.4c0.5,5.8,5,9.5,10.8,9.4
			c0.8,0,1.7,0,2.6,0c0,1.1,0.1,2,0,2.8c-1.5,15-3,30-4.5,45c-0.4,3.9-0.8,7.7-1.1,11.6c-0.4,5.5,3.9,10.4,9.6,11.1
			c5.6,0.7,11-3,11.9-8.5c1.4-8.5,2.5-17.1,3.7-25.7c0.6-4.2,1.2-8.4,1.8-12.6c0.7,0.7,0.9,1.3,1,2c1.7,12,3.3,23.9,5.1,35.9
			c0.9,6,6.4,9.8,12.4,8.9c5.8-0.9,9.7-6.1,9.1-12c-0.2-2-0.4-4-0.6-6.1c-2.3-26.2-6.5-52.2-5.7-78.6c0.1-4.2,0-8.4,0-13.2
			c3.8,2.5,6.8,4.7,10.1,6.6c3,1.7,5.3,4.6,9.3,4.6c14-0.1,28,0,42-0.1c2.8,0,5.7-0.1,8.2-1c2.7-1.1,5-3.3,7.5-4.9
			c2.5-1.6,5-3.2,8-5.1c0,4.6,0,8.4,0,12.3c-0.1,8.6,0.4,17.2-0.3,25.7c-1.7,20-4,40-5.8,60c-0.2,2.5,0.8,5.5,2.2,7.6
			c2.6,4,6.9,5.2,11.4,3.9c4.4-1.2,7.1-4.2,7.8-8.7c1.4-9.7,2.8-19.4,4.1-29.1c0.4-2.9,0.9-5.8,1.3-8.6c0.7,0.7,0.9,1.3,1,2
			c1.7,12,3.3,23.9,5.1,35.9c0.9,5.9,6.3,9.7,12.1,8.9c5.8-0.8,9.9-5.9,9.4-11.8c-1.3-12.7-2.6-25.4-3.8-38.2
			c-0.7-6.7-1.3-13.5-2-20.4c0.7-0.1,0.9-0.2,1.2-0.2c8.6,0.2,12.5-3.6,12.5-12.2c0-11.1,0.1-22.2,0.1-33.4
			C366.8-198.5,358.1-208.9,345.9-210.5z M254.2-175.8c-5.1,0.3-10,0.8-14.5-2.9c-4.7-3.7-9.9-6.8-15-10c-1.1-0.7-3-1.1-4-0.5
			c-1,0.5-1.8,2.4-1.8,3.7c-0.1,13.8-0.5,27.7,0.1,41.5c0.5,12,2.2,23.9,3.4,35.8c0.9,8.8,1.8,17.6,2.6,26.3c0.3,2.7-1,4.5-3.3,4.9
			c-2.5,0.4-4.3-0.9-4.7-3.8c-1.7-11.9-3.4-23.7-5.1-35.6c-1.3-9-2.5-18-3.8-27c-0.3-2.2-1.1-4.1-3.7-4c-2.5,0-3.1,1.9-3.4,4
			c-2.9,20.3-5.7,40.7-8.6,61c-0.2,1.6-0.7,3.5-1.8,4.5c-0.9,0.8-3.3,1.1-4.3,0.4c-1.1-0.7-2.2-2.7-2.1-4c0.7-8.9,1.4-17.8,2.6-26.6
			c3.4-25.8,3.9-51.7,3.5-77.6c0-2.3-0.9-3.8-3.3-4c-2.1-0.2-3.5,1.5-3.5,4c0,10.9,0,21.7,0,32.6c0,0.9,0.1,1.8-0.1,2.6
			c-0.3,1.9-1.6,3-3.5,3c-1.9,0.1-3.2-1-3.6-2.9c-0.1-0.5-0.2-1.1-0.2-1.6c0-11.7-0.1-23.5,0.1-35.2c0.2-8,5.4-15,13.1-16.2
			c9.9-1.6,20.1-2.2,29.7,1.7c2.6,1,5,2.6,7.3,4.2c5.4,3.9,10.7,7.8,15.9,11.9c2.4,1.9,4.7,2.9,7.7,2.6c1.4-0.2,2.8,0,4.2,0
			C254.2-180.4,254.2-178.2,254.2-175.8z M359.9-151.5c0,2.5-1.4,4.1-3.5,4.1c-2.1,0-3.5-1.5-3.7-4c0-0.7,0-1.4,0-2.1
			c0-10.1,0-20.1,0-30.2c0-0.5,0-1.1,0-1.6c0-2.8-1.3-4.4-3.4-4.4c-2.1,0-3.4,1.6-3.4,4.4c0,7.1,0,14.1,0,23.9
			c-1.1,17.8,2.3,38.1,4.1,58.4c0.6,6.9,1.3,13.7,2,20.5c0.3,3.3-0.9,5.2-3.5,5.5c-2.6,0.3-4.2-1.2-4.7-4.5
			c-1.5-10.4-2.9-20.8-4.4-31.2c-1.4-10.2-2.9-20.4-4.3-30.7c-0.3-2.1-1-4.1-3.6-4c-2.6,0.1-3.2,2.1-3.5,4.2
			c-2.9,20.3-5.7,40.7-8.6,61c-0.1,0.5-0.2,1-0.3,1.6c-0.6,2.7-2.2,4-4.6,3.6c-2.3-0.3-3.6-2.2-3.4-4.8c1-10.6,2-21.3,3.2-31.9
			c2.1-18.9,3.6-37.7,2.9-56.8c-0.2-5,0.1-10.1-0.1-15.1c0-1.3-0.8-3.1-1.7-3.7c-1-0.5-3-0.2-4,0.5c-5.6,3.5-11.1,7.1-16.5,10.9
			c-2.4,1.7-4.8,2.3-7.6,2.2c-7.4-0.1-14.8-0.1-22.2-0.1c-2.7,0-4.2-1.5-4.2-3.8c0.1-2.1,1.6-3.4,4.1-3.6c0.5,0,1.1,0,1.6,0
			c6.9,0,13.8,0.1,20.6-0.1c1.9-0.1,4-0.8,5.5-1.8c5.7-4,11.2-8.3,16.8-12.5c6.1-4.6,12.9-6.9,20.4-6.8c4.1,0,8.3-0.1,12.4,0
			c9.6,0.2,17.3,7.7,17.4,17.2C360-175.2,359.9-163.3,359.9-151.5z"/>
		<path class="st0" d="M323.4-220c7.7,3.2,15.1,2.2,21.6-3.1c6.2-5,8.2-11.9,7.6-19.1c0-2,0.1-3.6,0-5.2
			c-0.5-10.6-8.9-19.1-19.7-19.9c-10.5-0.8-20.2,6.6-21.9,17c-0.7,4.1-0.7,8.5-0.4,12.6C311.3-229.3,315.7-223.2,323.4-220z
			 M317.3-246.5c0.3-8.1,6.3-14,14.2-14c7.9,0,13.9,5.9,14.3,13.9c0.1,1.2,0,2.5,0,4.3c0.2,3.3,0,7.2-2.3,10.6
			c-3.4,5.3-9.7,7.7-15.6,6.1c-6.2-1.7-10.4-7-10.6-13.6C317.2-241.6,317.2-244,317.3-246.5z"/>
		<path class="st0" d="M196.1-220.1c7.6,3.3,14.9,2.4,21.4-2.7c6.5-5,8.6-12,8.1-19.3c0-2.1,0-3.5,0-4.9
			c-0.3-10.9-8.7-19.6-19.8-20.4c-10.5-0.8-20.3,6.7-21.9,17.3c-0.6,4.1-0.6,8.3-0.3,12.4C184.2-229.5,188.5-223.4,196.1-220.1z
			 M190.4-247.8c0.7-7.8,6.9-13,14.8-12.8c7.3,0.2,13.1,6,13.5,13.6c0.1,1.3,0,2.6,0,4c0.1,0,0.2,0,0.2,0c-0.2,2.4-0.2,5-0.8,7.3
			c-1.7,6.7-7.7,10.8-14.9,10.4c-6.3-0.3-11.9-5.3-12.7-11.8C190.1-240.5,190.1-244.2,190.4-247.8z"/>
	</g>
	<g>
		<g>
			<path class="st0" d="M261-232.5c0.1-0.3,0.1-0.7,0.2-1c0.3-0.7,1.1-1,1.8-0.7c0.3,0.1,0.6,0.3,0.8,0.4c0.7-1.5,1.5-2.9,2.3-4.4
				c-0.3-0.1-0.7-0.3-1.1-0.5c-1-0.5-1.3-1.3-0.8-2.3c3.1-6.1,6.3-12.3,9.4-18.4c0.7-1.5,2.1-2.1,3.5-1.9c0.1,0,0.2-0.1,0.3-0.1
				c0.2-0.2,0.3-0.5,0.4-0.7c0.4-0.6,1-1,1.8-0.9c0.3,0,0.4-0.1,0.5-0.3c1.1-2.2,2.3-4.5,3.4-6.7c0.1-0.1,0.1-0.2,0.2-0.3
				c0.2-0.2,0.4-0.3,0.7-0.2c0.2,0.1,0.3,0.4,0.3,0.6c0,0.1-0.1,0.2-0.2,0.4c-1.1,2.2-2.3,4.5-3.4,6.7c-0.1,0.2-0.1,0.4,0,0.6
				c0.4,0.6,0.6,1.2,0.3,1.9c-0.1,0.3-0.3,0.6-0.4,0.9c0.3,0.5,0.7,0.9,0.9,1.4c0.4,0.9,0.3,1.7-0.1,2.6c-0.5,1-1,2-1.5,3
				c-0.2,0.4-0.5,0.5-0.8,0.3c-0.3-0.2-0.4-0.5-0.2-0.9c0.3-0.6,0.6-1.1,0.8-1.6c-2-1-4-2-6-3.1c-0.2,0.4-0.4,0.8-0.6,1.2
				c0.3,0.2,0.7,0.3,1.1,0.5c0.4,0.2,0.5,0.5,0.3,0.8c-0.1,0.3-0.4,0.4-0.8,0.2c-0.4-0.2-0.7-0.4-1.1-0.6c-0.4,0.7-0.7,1.4-1.1,2.1
				c0.4,0.2,0.8,0.3,1.2,0.5c0.4,0.2,0.4,0.8,0,1c-0.2,0.1-0.4,0-0.6,0c-0.4-0.2-0.7-0.4-1.1-0.6c-0.4,0.7-0.7,1.4-1.1,2.1
				c0.4,0.2,0.7,0.3,1.1,0.5c0.4,0.2,0.4,0.6,0.2,0.9c-0.2,0.2-0.4,0.2-0.7,0c-0.4-0.2-0.7-0.4-1.1-0.6c-0.4,0.7-0.7,1.4-1.1,2.1
				c0.3,0.1,0.6,0.3,1,0.5c0.4,0.2,0.5,0.5,0.4,0.8c-0.2,0.3-0.5,0.4-0.9,0.2c-0.3-0.2-0.7-0.3-1-0.5c0,0,0,0,0,0
				c-0.3,0.7-0.7,1.3-1,2.1c0.3,0.1,0.7,0.3,1,0.5c0.4,0.2,0.5,0.5,0.3,0.8c-0.1,0.3-0.4,0.4-0.8,0.2c-0.4-0.2-0.7-0.4-1.1-0.6
				c-0.3,0.5-0.5,1-0.8,1.5c2,1,4,2,6,3.1c0-0.1,0.1-0.2,0.2-0.4c2-3.9,3.9-7.8,5.9-11.6c0.1-0.1,0.1-0.3,0.2-0.4
				c0.2-0.2,0.4-0.3,0.7-0.1c0.2,0.1,0.3,0.3,0.3,0.6c0,0.1-0.1,0.2-0.1,0.3c-2.3,4.6-4.6,9.1-7,13.7c-0.5,1-1.3,1.2-2.2,0.7
				c-0.4-0.2-0.7-0.4-1.2-0.7c-0.1,0.3-0.2,0.5-0.3,0.7c-0.2,0.3-0.5,0.4-0.7,0.3c-0.3-0.1-0.4-0.4-0.2-0.8c0-0.1,0.1-0.2,0.1-0.3
				c0-0.1,0.1-0.2,0.1-0.3c-0.3-0.1-0.5-0.2-0.7-0.3c-0.7,1.4-1.4,2.8-2.2,4.3c0.2,0.1,0.5,0.1,0.8,0.3c0.1-0.3,0.3-0.7,0.6-1.1
				c0.1-0.2,0.2-0.4,0.3-0.6c0.2-0.4,0.5-0.6,0.8-0.4c0.3,0.2,0.4,0.5,0.2,0.9c-0.3,0.6-0.6,1.2-1,1.9c0.3,0.2,0.6,0.3,0.8,0.5
				c0.7,0.4,0.9,1.3,0.6,2c-0.4,0.7-1.2,1.1-2,0.7c-1.5-0.7-2.9-1.5-4.3-2.2c-0.2-0.1-0.4-0.3-0.6-0.5
				C261.1-232.1,261.1-232.3,261-232.5z M280.7-255.8c0.7-1.2,0.4-2.4-0.9-3c-0.8-0.4-1.5-0.8-2.3-1.2c-1.2-0.6-2.4-0.1-2.8,1.1
				C276.7-257.8,278.7-256.8,280.7-255.8z M271.7-237.8c-2.1-1.1-4.1-2.1-6.2-3.1c-0.1,0.1-0.1,0.3-0.2,0.5
				c-0.2,0.4-0.2,0.6,0.3,0.8c0.9,0.4,1.8,0.9,2.6,1.3c0.8,0.4,1.6,0.8,2.4,1.2c0.4,0.2,0.5,0.1,0.7-0.2
				C271.4-237.5,271.6-237.7,271.7-237.8z M262.4-233.1c-0.1,0.2-0.2,0.3-0.2,0.4c0,0.2,0.1,0.4,0.3,0.4c1.3,0.7,2.7,1.4,4,2.1
				c0.3,0.1,0.5,0.1,0.6-0.2c0.2-0.3,0-0.5-0.2-0.6c-1.3-0.7-2.7-1.4-4.1-2.1C262.7-233.1,262.5-233.1,262.4-233.1z M280.1-260
				c0.1-0.3,0.3-0.5,0.4-0.8c0.1-0.4,0-0.9-0.4-1.1c-0.4-0.2-0.9-0.1-1.2,0.3c-0.2,0.3-0.3,0.5-0.4,0.8
				C279-260.5,279.5-260.3,280.1-260z"/>
			<path class="st0" d="M288-259.7c-1.3,0.4-2.4,0.1-3.3-0.7c-0.9-0.9-1.2-1.9-0.9-3.1c0.4-1.2,0.8-2.5,1.2-3.7
				c0.1-0.4,0.5-0.6,0.9-0.3c1.1,0.8,2.1,1.5,3.2,2.3c1,0.8,1.3,1.8,1.1,3C289.9-261,289.2-260.1,288-259.7z M285.8-266.3
				c-0.3,1.1-0.7,2.1-1,3.2c-0.2,1,0.4,2,1.4,2.3c1,0.3,2-0.1,2.6-0.9c0.5-0.9,0.4-2-0.4-2.7C287.6-265,286.7-265.6,285.8-266.3z"/>
		</g>
		<path class="st0" d="M265.3-279.1c-15.9,5.2-24.5,22.2-19.4,38c3.1,9.5,10.5,16.4,19.3,19.3l-4.3,31.5l8.8-30.4
			c4.6,0.8,9.5,0.5,14.3-1.1c15.9-5.2,24.5-22.2,19.4-38S281.2-284.2,265.3-279.1z M283-223.1c-14.8,4.8-30.6-3.3-35.4-18
			c-4.8-14.8,3.3-30.6,18-35.4c14.8-4.8,30.6,3.3,35.4,18C305.8-243.7,297.8-227.9,283-223.1z"/>
	</g>
</g>
<g>
	<path class="st0" d="M-302.5,106.2c-8.2,0-16.3,0.1-24.5-0.1c-2.7-0.1-4.9,0.5-6.2,3c-5.1,10.1-13.4,13.6-24.3,11.9
		c-0.8-0.1-1.7-0.1-2.5,0c-13,2.1-23.8-1.3-31.4-12.6c-1.3-2-3.3-2.2-5.7-2.3c-6.6-0.3-12.2,0.9-18,4.8c-17.5,11.8-41.1,7-53.9-9.9
		c-12.8-17-10.3-40.7,5.8-55c15.8-13.9,39.6-13.4,54.9,1.3c4.3,4.1,13,5.5,17.5,1.6c9.3-8.1,19.9-10.4,31.9-9.3
		c7.9,0.7,16,0.2,24,0.1c5.7-0.1,9.4,2.4,11.8,7.4c5.5,11.2,11.2,22.2,16.6,33.4c1.3,2.6,2.7,3.6,5.7,3.5c6.8-0.2,13.7-0.1,20.5-0.1
		c9.1,0,14,4,14,11.2c0,7.2-4.9,10.9-14.2,10.9C-287.9,106.3-295.2,106.2-302.5,106.2z M-340.9,106.2c-6.4,0-12-0.1-17.7,0.1
		c-2.8,0.1-4.1-0.3-4.1-3.7c0-3.3,1.2-3.7,4-3.7c14.7,0.1,29.3,0.1,44,0c1.4,0,3.8,1.1,3.9-1.5c0.2-3.2,2.4-2.1,3.9-2.2
		c1.5-0.1,3.6-0.6,3.4,2.2c-0.1,1.4,0.9,1.6,2,1.6c8,0,16,0,24-0.1c2.3,0,3.7-1.6,3.6-3.9c-0.1-2.1-1.6-3.2-3.7-3.4
		c-1.3-0.1-2.7-0.1-4-0.1c-14.3,0-28.7,0-43,0c-2.7,0-5,0.5-5-3.9c0-4.6,2.8-3.5,5.2-3.6c3.5-0.1,7.1,0,10.7,0
		c-1.2-5.9-4.1-8.2-9.6-7.4c-3.3,0.5-6.7-0.1-10,0.1c-3.1,0.2-3.6-1.1-3.5-3.8c0.1-2.4,0-4.2,3.3-3.9c4,0.3,8.1,0.1,12.2,0.1
		c-1-5.9-3.7-8-9-7.4c-3.4,0.4-7-0.1-10.5,0.1c-3.1,0.2-3.4-1.3-3.5-3.8c0-2.7,0.6-3.9,3.6-3.7c3.9,0.2,7.9,0.1,12,0.1
		c-2.1-7-2.6-7.4-9-7.4c-10.2,0-20.3,0.2-30.5-0.1c-4.5-0.1-8.2,1-12,3.7c-5.3,3.8-10.1,8.7-17.7,7.6c-3.3-0.5-1.6,1.9-1.1,3.2
		c4,10.4,4,20.8-0.2,31.1c-0.8,2-2.7,3.7-2.4,6.2c11.3,0.5,11.3,0.5,19.4,8.6c1.3,1.3,2.7,2.5,3.9,3.9c1.6,2,3.6,2.6,6.1,2.6
		c6.7-0.2,13.4-0.5,20,0.1C-346.2,114.4-343.3,111.5-340.9,106.2z M-469.7,76.7c0,18.5,14.8,33.4,33.3,33.3c18.2,0,33-14.7,33.1-33
		c0.1-18.5-14.5-33.5-33-33.6C-454.6,43.3-469.6,58.2-469.7,76.7z"/>
	<path class="st0" d="M-306,190.4c-1.9-2.7-3.9-5.5-5.9-8.3c-3.5-4.7-3.4-10,0.3-14.2c3.5-3.9,8.8-4.8,13.6-1.9
		c7.7,4.6,15.3,9.3,22.9,14.2c4.1,2.7,5.5,7.5,7.2,11.7c2.3,5.6,5.6,8.1,11.6,7c1.6-0.3,3.3,0.1,5-0.1c2.9-0.3,3.6,0.9,3.6,3.7
		c0,2.8-0.7,4.1-3.6,3.6c-0.3-0.1-0.7-0.1-1,0c-12.3,2.5-20.3-2-23.9-14.2c-1.2-4-4.2-6.5-7.8-8.6c-5.3-3-10.5-6.5-15.7-9.7
		c-2-1.2-4.1-3-6.2-0.7c-2.2,2.2-0.4,4.1,1,6.1c3.1,4.3,6.1,8.7,9.1,13.1c1.2,1.8,2.1,3.9,0.1,5.4c-2.6,1.9-0.9,2.9,0.4,4.1
		c0.7,0.7,1.4,1.6,2.3,1.9c12.6,4.3,9.2,16.1,11.5,25.1c0.8,2.9-3,4.8-5.5,2.6c-11.3-9.6-26-15.2-33.9-28.8
		c-1.6-2.7-3.7-3.7-6.9-3.6c-9.8,0.3-19.7,0.1-29.5,0.1c-2.6,0-4.7,0.4-5.1,3.4c-0.4,2.4-0.2,4,3.1,3.9c11.2-0.2,22.3,0,33.5-0.1
		c2.7,0,4.2,0.1,4.3,3.6c0,3.6-1.4,4.1-4.4,4c-12.7-0.1-25.3-0.1-38-0.1c-2.7,0-5.8-0.2-5.7,3.7c0.1,3.8,3.1,3.6,5.9,3.6
		c12.5,0,25,0,37.5,0c2.4,0,4.8-0.8,4.8,3.5c0,4.4-2.3,3.9-5,3.9c-10.5,0-21-0.1-31.5,0c-1.8,0-4.6-1.4-4.5,2.6
		c0.1,3.3,1.6,4.9,4.8,4.9c4.8,0,9.7,0,14.5,0c6.2,0,12.3,0.1,18.5-0.1c3-0.1,3,1.5,3,3.7c0,2.3-0.1,3.8-3.1,3.7
		c-5.3-0.2-10.7,0.1-16-0.1c-3.7-0.1-3.5,1.6-2.1,3.9c1.6,2.7,4.2,3.7,7.2,3.7c17,0,34,0,51,0c4.1,0,6.9-2.9,9.2-5.4
		c7.5-7.9,16.9-5.5,25.8-5.7c3-0.1,1.7,2.6,1.9,4.2c0.2,1.7,0.1,3.6-2.4,3.2c-11.1-1.9-20,2.1-27.9,9.6c-1.6,1.6-4,1.5-6.2,1.5
		c-17.2,0-34.3,0-51.5,0c-8,0-13.3-3.9-15.3-11.7c-0.7-2.6-1.6-3.3-4.2-3.3c-11,0-13.6-2.4-14.6-12.9c-0.2-2-1.3-2.7-2.6-3.8
		c-6.6-5-6.7-13.1,0.1-18.1c1.8-1.4,2.5-2.6,2.6-4.8c0.3-8.1,4.3-12,12.6-12.1c15.8-0.1,31.6,0,47.5,0
		C-308.6,191.3-307.4,191.7-306,190.4z M-313.6,199.2c4.8,10.2,15.2,13.2,23,19.5c-1.4-2.3,0.6-5.8-2.7-7.1c-5.1-2-8.6-6.1-12.2-10
		C-307.7,199.2-310.1,198.3-313.6,199.2z"/>
	<path class="st0" d="M-295.5,138.4c-0.3,5.2-2.2,8.7-6.2,10.9c-4.2,2.3-8.4,1.9-12.2-1c-3.6-2.7-5.6-6.6-4.3-11
		c2.2-7.1,4.9-14.1,7.7-21c1.2-3,5-3.6,6.2-1C-300.6,123-297.7,130.9-295.5,138.4z M-307,128.2c-1.4,3.7-2.5,6.6-3.5,9.5
		c-0.6,1.9-0.5,3.7,1.3,4.8c1.5,1,3.2,1,4.6-0.2c1.7-1.3,1.7-3.2,1-5C-304.5,134.5-305.6,131.8-307,128.2z"/>
	<path class="st0" d="M-457,93.2c0.4-3.7,6.2-3.9,3.9-8.7c-1.4-2.8-2.4-4.9-6-4.1c-3.1,0.6-3.4-1.2-3.4-3.7c-0.1-2.7,0.6-4,3.5-3.6
		c2.3,0.3,4.2,0.3,5.4-2.7c1.3-3.2,1.1-5.2-1.6-7.1c-3-2.1-0.8-3.4,0.7-5c1.5-1.7,2.8-2.5,4.6-0.2c1.5,1.9,2.8,3.7,6.1,2.1
		c2.9-1.4,4.1-2.8,3.6-5.9c-0.6-3.2,1.4-3.3,3.8-3.4c2.6-0.1,4.3,0.4,3.7,3.5c-0.6,3.2,1,4.4,3.7,5.8c3.1,1.6,4.3-0.1,5.7-1.9
		c1.8-2.2,3-2.1,5,0c2,2,2.9,3.5,0.1,5.4c-2.4,1.7-2.5,3.5-1.4,6.3c1.1,2.8,2.6,3.5,5.1,3.1c2.9-0.4,4,0.5,4,3.7
		c0,3.3-1.2,4.2-4.1,3.6c-3.2-0.6-4,1.4-5.2,3.7c-1.6,2.9-0.2,4.3,1.7,5.8c2,1.6,2.5,3,0.2,5c-1.9,1.7-3.3,3.3-5.4,0.4
		c-1.4-1.9-2.8-3.1-5.8-1.8c-3,1.3-4.2,2.8-3.7,5.9c0.5,3.1-1.3,3.4-3.8,3.5c-2.6,0-4.3-0.5-3.7-3.5c0.5-3.1-0.9-4.5-3.7-5.8
		c-3.1-1.5-4.2,0.2-5.8,1.9C-454.5,100.3-454.3,92.6-457,93.2z M-436,65.8c-6.2-0.2-11.3,4.5-11.4,10.6c-0.2,6.1,4.5,11.3,10.6,11.5
		c6,0.3,11.2-4.7,11.4-10.7C-425.2,71-429.9,66-436,65.8z"/>
	<path class="st0" d="M-432.7,76.9c-0.5,2.2-1.7,3.6-4.1,3.5c-2.2-0.1-3.4-1.6-3.4-3.5c0-2.2,1.3-3.8,3.7-3.7
		C-434,73.1-433,74.7-432.7,76.9z"/>
</g>
<g>
	<path class="st0" d="M12.7,182.3c2.5,0.7,5,1.4,7.1,3.1c3.8,3,5.9,6.8,6,11.6c0.1,6.2,2.3,11.5,6.9,15.7
		c5.9,5.5,10.3,11.9,12.2,19.8c0.8,3.5,1.3,7.1,1.4,10.7c0.2,10.3,0.1,20.7,0,31c0,0.9,0.3,1.6,0.9,2.2c8.7,8.7,17.4,17.4,26.2,26.1
		c1,1,1.8,2.1,1.8,3.6c0.1,2.1-0.8,3.8-2.6,4.8c-1.8,1-4,0.8-5.6-0.5c-0.4-0.3-0.7-0.6-1-1c-6.2-6.2-12.3-12.3-18.5-18.5
		c-0.3-0.3-0.6-0.7-1.1-0.9c0,3.7,0,7.3,0,11.2c1.1,0,2.2,0,3.3,0c3.1,0,5.3,2.1,5.4,5c0,2.9-2.3,5.1-5.4,5.1c-26,0-51.9,0-77.9,0
		c-3.1,0-5.5-2.2-5.4-5.1c0-2.9,2.3-5,5.4-5c1.1,0,2.2,0,3.4,0c0-0.6,0-1.2,0-1.7c0-18.5,0-37,0-55.5c0-7,1.2-13.6,4.5-19.8
		c0.4-0.7,0-1.1-0.4-1.5c-9.7-9.7-19.3-19.3-29-29c-0.7-0.7-1.4-1.4-2.1-2.1c-2.3-2.3-2.5-5.4-0.4-7.5c2.1-2.1,5.2-2,7.5,0.3
		c9.9,9.9,19.8,19.8,29.7,29.7c0.4,0.4,0.6,0.8,0.9,1.2c5-4.3,9-8.9,9.6-15.5c0.2-1.9,0.1-3.8,0.6-5.6c1.5-6.3,5.6-10.1,12-11.6
		c0.2-0.1,0.5-0.2,0.7-0.2C10,182.3,11.3,182.3,12.7,182.3z M36.1,301.1c0-0.5,0-0.9,0-1.3c0-6.3,0-12.7,0-19c0-0.9-0.3-1.5-0.9-2.1
		C21.3,264.8,7.4,250.9-6.5,237c-2-2-3.9-4-5.9-6c-0.3,0.6-0.5,1-0.6,1.5c-1.2,3.4-1.8,6.8-1.8,10.4c0,19,0,38,0,57
		c0,0.4,0,0.8,0,1.3C2.2,301.1,19.1,301.1,36.1,301.1z M36,265.1c0-0.3,0-0.5,0-0.7c0-7.4,0.2-14.9-0.1-22.3
		c-0.1-3.1-0.8-6.2-1.6-9.1c-1.6-5.4-5.1-9.6-9.2-13.5c-6.2-6-9.4-13.3-9.5-21.9c-0.1-3-2.2-5.2-5.1-5.2c-2.8,0-4.9,2.2-5,5.2
		c-0.1,1.6-0.2,3.1-0.4,4.6c-1,6.6-4.1,12.1-8.8,16.8c-1.1,1.1-2.3,2.1-3.4,3.1C7.5,236.6,21.7,250.8,36,265.1z"/>
</g>
<g>
	<path class="st0" d="M280.9,251.4c1,0.4,2,0.9,3,1.2c11.2,3.8,18.1,15.1,16.2,26.3c-2.1,11.9-11.9,20.3-23.7,20.3
		c-11.9,0-21.9-8.7-23.7-20.7c-1.7-11.2,5.2-22.2,16.3-26c1-0.3,2-0.8,3-1.2C274.9,251.4,277.9,251.4,280.9,251.4z M288.4,275.2
		c-0.1-6.5-5.6-11.8-12.1-11.7c-6.5,0.1-11.8,5.5-11.8,12c0,6.7,5.6,12.1,12.3,11.9C283.2,287.2,288.4,281.7,288.4,275.2z"/>
	<path class="st0" d="M300.1,400.6c-1.2-0.5-2.4-1-3.5-1.5c-10.1-4.6-15.9-15.4-13.9-26c2.2-11.5,11.5-19.7,23-19.8
		c20.3-0.1,40.7-0.2,61,0c11.5,0.1,20.8,8.3,23,19.8c2,10.6-3.7,21.6-14,25.9c-2.8,1.2-3.8,2.4-3.2,5.4c0.8,4.1,1.1,8.3,2,12.4
		c4-12.7,10.1-24.1,19.4-33.4c22.3-22.1,49.1-29.4,79-20.1c29.9,9.3,48.1,30.5,53.4,61.5c8.4,49.1-31.8,93.3-81.5,89.7
		c-8.4-0.6-16.8-3.3-24.9-5.9c-4.1-1.3-7.3-1.5-11.2,0.7c0.6,1.3,1.1,2.6,1.8,3.8c10.4,18.7,20.8,37.5,31.2,56.2
		c3.1,5.5,3.2,6.4-0.7,11.3c-10.7,13.8-21.4,27.6-32.5,41.9c22,0,43.5,0,65.2,0c0,4.2,0,8,0,12c-83.6,0-167.1,0-250.9,0
		c0-3.7,0-7.5,0-11.6c13.4,0,26.9,0,41.1,0c-1.1-1.5-1.7-2.5-2.4-3.5c-9.9-12.8-19.9-25.6-29.8-38.4c-4.2-5.4-4.2-6.2-0.7-11.9
		c21.8-36.4,41.6-73.8,56.2-113.7c6.2-17,11.2-34.3,12.8-52.5C300.1,402.1,300.1,401.4,300.1,400.6z M313,401.3
		c-2.2,11-3.8,21.7-6.4,32.2c-8.4,32.8-22.5,63.3-38,93.2c-8.4,16.1-17.5,31.9-26.4,48c0.1,0.1,0.3,0.6,0.6,0.9
		c11.7,15.1,23.4,30.2,35.2,45.1c0.9,1.2,3.1,1.9,4.7,1.9c35.7,0.1,71.4,0,107,0.1c2.7,0,4.3-0.9,5.9-3
		c10.9-14.1,21.8-28.2,32.8-42.2c1.8-2.3,2-3.8,0.5-6.4c-10-17.7-19.8-35.5-29.3-53.4c-1.9-3.6-3.3-5.1-7.5-3.4
		c-1.7,0.7-4.9-0.3-6.2-1.6c-1.2-1.2-1.4-4.1-1.1-6.1c0.4-2.5,1.6-5,2.8-7.3c1.2-2.5,0.9-4.5-0.1-7.1c-6.4-16.2-13.3-32.3-18.5-48.9
		c-4.3-13.6-6.6-27.8-9.8-42.1C344.3,401.3,328.5,401.3,313,401.3z M400.9,498.4c0.5,0.1,0.8,0.3,1,0.2c3.3-1.1,6.7-2,9.9-3.2
		c3.1-1.2,5.9-0.8,8.9,0.6c23.2,10.9,46,9.8,67-4.7c21.1-14.5,30.5-35.3,28.3-61c-2.3-26.5-21.2-49.2-46.8-56.8
		c-25.9-7.6-53.9,1.2-70.6,22.2c-20.4,25.7-19.1,61.7,3.2,86c2.8,3.1,3.5,6.1,1.8,9.8C402.6,493.8,401.8,496.1,400.9,498.4z
		 M336.5,365.2c-9.9,0-19.7,0-29.6,0c-7.3,0-12.6,5.2-12.6,12c0,6.8,5.4,11.9,12.7,11.9c19.5,0,38.9,0,58.4,0
		c7.3,0,12.7-5.1,12.7-11.8c0.1-6.9-5.3-12.1-12.9-12.1C355.7,365.2,346.1,365.2,336.5,365.2z"/>
	<path class="st0" d="M378.3,305.3c-10,0-18.1-8.1-18.1-18c0-9.8,8.1-17.8,17.8-17.9c9.9-0.1,18.1,8,18.1,18
		C396.2,297.2,388.1,305.3,378.3,305.3z M378.2,293.3c3.2,0,5.9-2.7,6-5.9c0.1-3.4-2.8-6.2-6.1-6.1c-3.2,0.1-5.8,2.8-5.8,6.1
		C372.3,290.7,375,293.3,378.2,293.3z"/>
	<path class="st0" d="M318.5,347.2c-10,0-18.1-8-18.1-18c0-9.8,8-17.8,17.8-17.9c9.9-0.1,18.1,8,18.1,18
		C336.3,339,328.2,347.2,318.5,347.2z M324.3,329.2c-0.1-3.2-2.8-5.9-6-5.9c-3.4,0-6.1,2.9-5.9,6.3c0.2,3.2,3,5.8,6.2,5.7
		C321.7,335.1,324.3,332.4,324.3,329.2z"/>
	<path class="st0" d="M258.5,347.2c-4.3,0-7.9,0-11.9,0c0-3.9,0-7.6,0-11.8c-4.2,0-8,0-11.9,0c0-4.1,0-7.8,0-11.9
		c3.8,0,7.5,0,11.7,0c0-4.2,0-8,0-11.9c4.1,0,7.8,0,11.9,0c0,3.8,0,7.5,0,11.7c4.2,0,8,0,11.9,0c0,4.1,0,7.8,0,11.9
		c-3.8,0-7.5,0-11.7,0C258.5,339.3,258.5,343.1,258.5,347.2z"/>
	<path class="st0" d="M402.1,347.2c-4.1,0-7.7,0-11.8,0c0-3.9,0-7.6,0-11.8c-4.2,0-8,0-11.9,0c0-4.1,0-7.8,0-11.9
		c3.8,0,7.6,0,11.7,0c0-4.2,0-8,0-11.9c4.1,0,7.8,0,11.9,0c0,3.8,0,7.6,0,11.7c4.2,0,8,0,11.9,0c0,4.1,0,7.8,0,11.9
		c-3.8,0-7.6,0-11.9,0C402.1,339.4,402.1,343.3,402.1,347.2z"/>
	<path class="st0" d="M246.5,425.2c0-4.3,0-7.9,0-11.9c3.8,0,7.6,0,11.8,0c0-4.2,0-8,0-11.9c4.1,0,7.8,0,11.9,0c0,3.7,0,7.5,0,11.7
		c4.2,0,8,0,11.9,0c0,4.1,0,7.8,0,11.9c-3.7,0-7.5,0-11.7,0c0,4.2,0,8,0,11.9c-4.1,0-7.8,0-11.9,0c0-3.7,0-7.5,0-11.7
		C254.4,425.2,250.6,425.2,246.5,425.2z"/>
	<path class="st0" d="M198.9,622.7c3.2,0,6,0,8.9,0c0.7,0,1.5,0,2.5,0c0,3.9,0,7.7,0,11.7c-3.7,0-7.5,0-11.4,0
		C198.9,630.5,198.9,626.7,198.9,622.7z"/>
	<path class="st0" d="M336,610.7c-15.2,0-30.4-0.1-45.7,0.1c-3.5,0-5.9-1.2-8-3.9c-7-8.9-14.1-17.8-21.2-26.6
		c-3.6-4.5-3.7-6-0.4-10.6c14.8-20.3,25.9-42.5,33.3-66.5c1.7-5.4,2.9-6.2,8.7-6.2c22.5,0,44.9,0,67.4,0c5.5,0,6.8,0.9,8.4,6
		c7.5,24.1,18.6,46.4,33.5,66.9c3.1,4.2,3,6-0.1,10c-7.2,9.1-14.6,18.1-21.7,27.2c-2.1,2.7-4.6,3.8-8,3.7
		C366.7,610.7,351.4,610.7,336,610.7z M367.7,508.9c-20.5,0-40.7,0-60.9,0.1c-1,0-2.5,1.4-2.8,2.5c-7.3,21.7-17.4,42.1-30.6,60.9
		c-1.1,1.5-1.3,2.6,0,4.2c5.5,6.7,10.9,13.6,16.5,20.3c0.8,1,2.5,1.7,3.7,1.7c28.4,0.1,56.9,0.1,85.3,0c1.1,0,2.6-0.4,3.2-1.2
		c6.2-7.5,12.2-15.1,18.4-22.8C386.2,554.4,375.3,532.5,367.7,508.9z"/>
	<path class="st0" d="M450.1,491c-5.6,0-11.2,0-16.8,0c-4.9,0-7.5-2.3-7-7.1c0.8-7.5-1.6-12.3-7.8-17.3
		c-16.4-13.2-20.7-36.6-11.8-55.7c8.7-18.8,29.5-30.3,49.2-27.3c22.2,3.3,38.6,19.1,41.5,40.5c2.7,19.7-4.6,35.4-20.8,46.8
		c-1.8,1.3-2.7,2.5-2.5,4.8c0.2,2.9,0.1,5.7,0,8.6c-0.1,4.4-2.3,6.6-6.7,6.7C461.5,491,455.8,491,450.1,491z M485,437.9
		c-4,7.3-9.9,11.7-18.4,11c-8.6-0.7-13.7-6-16.6-14.7c-2.7,8.9-8,14-16.4,14.7c-8.5,0.7-14.4-3.6-18.5-10.9
		c2.2,10.9,8,19.1,17.6,24.3c4.1,2.2,5.9,4.9,5.5,9.5c-0.2,2.3,0,4.6,0,6.9c2.3,0,4.1,0,6.1,0c0-4,0-7.7,0-11.4c4.1,0,7.8,0,12,0
		c0,4,0,7.8,0,11.5c2.1,0,3.8,0,5.8,0c0-1.8,0.2-3.4,0-5c-0.7-5.7,1.2-9.3,6.6-12.2C477.8,456.6,483.1,448.3,485,437.9z
		 M414.9,425.2c4.3-8.4,10.2-12.7,18.8-11.9c8.5,0.7,13.7,6.1,16.5,14.7c2.7-8.7,7.8-13.8,16.1-14.7c8.7-0.9,14.7,3.5,18.7,11.3
		c-0.9-14.7-16.6-28.7-32.7-29.4C434,394.3,417.8,406.9,414.9,425.2z M438,431.1c0-3.2-2.7-5.9-5.9-6c-3.4-0.1-6.2,2.8-6,6.2
		c0.1,3.2,2.9,5.8,6.1,5.8C435.4,437,438.1,434.3,438,431.1z M474,431.2c0.1-3.2-2.5-6-5.7-6.1c-3.4-0.1-6.2,2.7-6.2,6
		c0,3.2,2.7,5.9,5.9,5.9C471.2,437.1,473.9,434.4,474,431.2z"/>
	<path class="st0" d="M336.3,539.1c-0.1,9.7-8.3,17.8-18,17.7c-10-0.1-18-8.3-17.9-18.2c0.1-9.8,8.2-17.7,18-17.7
		C328.3,521,336.3,529.1,336.3,539.1z M318.4,544.8c3.2,0,5.9-2.7,5.9-5.9c0-3.4-2.8-6.1-6.2-6c-3.2,0.1-5.8,2.9-5.7,6.1
		C312.4,542.2,315.1,544.9,318.4,544.8z"/>
	<path class="st0" d="M378.2,568.7c0.1,9.7-8,17.9-17.7,18c-10,0.1-18.2-8-18.2-17.9c0-9.8,7.9-17.9,17.7-18
		C369.9,550.7,378.1,558.8,378.2,568.7z M366.2,568.7c-0.1-3.2-2.8-5.9-6-5.9c-3.4,0-6.1,2.9-5.9,6.3c0.2,3.2,3,5.8,6.2,5.7
		C363.6,574.7,366.3,571.9,366.2,568.7z"/>
	<path class="st0" d="M348.4,532.6c0-3.9,0-7.6,0-11.5c3.9,0,7.7,0,11.6,0c0,3.8,0,7.5,0,11.5C356.3,532.6,352.5,532.6,348.4,532.6z
		"/>
	<path class="st0" d="M306.1,574.6c-3.9,0-7.6,0-11.5,0c0-3.8,0-7.6,0-11.6c3.8,0,7.5,0,11.5,0C306.1,566.8,306.1,570.5,306.1,574.6
		z"/>
	<path class="st0" d="M336.1,581c0,3.8,0,7.5,0,11.5c-3.8,0-7.5,0-11.6,0c0-3.7,0-7.5,0-11.5C328.3,581,332,581,336.1,581z"/>
</g>
</svg>
