<?xml version="1.0" encoding="utf-8"?>
<!-- Generator: Adobe Illustrator 24.3.0, SVG Export Plug-In . SVG Version: 6.00 Build 0)  -->
<svg version="1.1" id="Layer_1" xmlns="http://www.w3.org/2000/svg" xmlns:xlink="http://www.w3.org/1999/xlink" x="0px" y="0px"
	 viewBox="0 0 150 150" style="enable-background:new 0 0 150 150;" xml:space="preserve">
<style type="text/css">
	.st0{fill:#005BAB;}
</style>
<g>
	<path class="st0" d="M111,42.8c0.2,5.2-1.5,8.9-6.7,10.5c0.9,2.5,0.9,4.9-0.1,7.3c-1,2.4-2.8,4-5.4,4.6c0.1,1.1,0.2,2.1,0.2,3.1
		c-0.1,6.5-3.5,10.2-10,11.2c-4.6,0.7-9.1,0.1-13.5-1c-11.1-2.8-22-6.1-32.8-10c-4.2-1.5-7.7-4.2-10.9-7.2c-2-1.8-4-3.7-6-5.4
		c-2.1-1.8-4.6-2.7-7.5-2.6c-4.9,0.1-9.8,0-14.7,0c-1.9,0-3-0.9-3-2.4c0-1.5,1.1-2.4,3-2.4c5.4,0,10.8,0,16.2,0
		c3.7,0,6.8,1.7,9.5,3.9c2.4,2,4.7,4.2,7,6.3c2.4,2.2,5.1,4,8.2,5.2c11.6,4.2,23.3,7.9,35.3,10.5c3.4,0.7,6.7,0.7,10.1-0.1
		c4.1-1,4.9-4.3,4.2-8.3c-0.1-0.5-0.7-1.1-1.3-1.4c-4-1.9-8.2-3.5-12.8-3.3c-0.9,0.1-2.2,0.5-2.4,1.1c-0.5,1.3,0.3,2.5,1.6,3
		c2.2,0.7,4.4,1.3,6.6,1.9c0.6,0.2,1.3,0.2,1.9,0.4c1.2,0.4,1.9,1.3,1.7,2.7c-0.1,1.2-1.3,2.3-2.6,2c-3.4-0.9-6.9-1.6-10.2-3
		c-3.1-1.3-4.5-4.7-4-8c0.3-1.7,1.1-2.8,3.6-4.3c-1.7-2.2-2.9-4.6-2.3-7.5c0.6-2.9,2.3-4.8,5.1-5.8c-0.4-0.9-0.9-1.7-1.2-2.6
		c-1.8-4.9,1.4-9.6,6.6-9.6c5.9,0.1,11.7,1,17.4,2.8c5.9,1.9,11.9,3.9,17.9,5.6c5.6,1.6,11.2,3,16.8,4.3c2,0.4,4.1,0.3,6.1,0.2
		c1.8-0.1,2.5-1.4,1.7-3c-0.7-1.3-1.8-2.6-3.1-3.3c-2.6-1.3-5.4-2.4-8.2-3.3c-10.4-3.5-20.9-6.8-31.3-10.2c-0.4-0.1-0.8-0.2-1.1-0.4
		c-1.3-0.6-1.9-1.8-1.5-3c0.5-1.3,1.7-1.9,3.2-1.5c4.2,1.4,8.4,2.9,12.6,4.3c8.3,2.7,16.6,5.3,24.9,8.1c2,0.7,3.9,1.8,5.7,2.9
		c1.7,1.1,3,2.7,3.5,4.7c1.5,5.3-1.1,9-6.6,9.4c-5.1,0.4-10.1-0.7-14.9-2c-4.9-1.3-9.7-2.8-14.5-4.2C112.3,43.1,111.8,43,111,42.8z
		 M86.5,36.6c-2,0-3.5-0.3-4.1,1.3c-0.6,1.6,0.3,2.9,1.5,3.8c1.8,1.3,3.8,2.6,5.9,3.5c2.5,1.1,5.2,1.8,7.8,2.5
		c1.7,0.5,3.4,0.8,5.1,0.9c1.4,0.1,2.5-0.6,3.1-2c1.1-2.5,0.6-4.2-1.7-5.7c-0.7-0.4-1.4-0.8-2.1-1.1C96.8,37.7,91.3,37,86.5,36.6z
		 M81.9,48.6c-2.3-0.1-3.3,0.7-3.3,2.5c0,0.8,0.4,1.8,0.9,2.4c1.5,1.7,3.4,3,5.7,3.5c2.1,0.5,4.1,1.2,6.1,1.9c1.5,0.5,3,1.1,4.5,1.5
		c2.2,0.5,3.6-0.4,4.1-2.6c0.5-2.2,0-3.2-2.4-4.6C92.6,50.5,87,49.3,81.9,48.6z"/>
	<path class="st0" d="M111,101c4.3-1.1,8.4-2.2,12.5-3.3c6.5-1.7,13-3.5,19.5-5.2c2.3-0.6,3.3,0,3.9,2.3c0.7,2.5,1.3,4.9,2,7.4
		c0.7,2.8,0.3,3.6-2.5,4.3c-10.1,2.7-20.2,5.4-30.2,8.1c-0.5,0.1-0.9,0.3-1.5,0.5c0.4,1.6,0.9,3.1,1.3,4.7c1.8,6.9-1.5,13-8.3,15.1
		c-14.9,4.7-29.8,9.3-44.8,13.8c-1.7,0.5-3.6,0.9-5.3,0.6c-2.9-0.5-4.7-2.5-5.5-5.4c-3.5-13-7.1-26-10.5-39.1
		c-1.2-4.5,1.2-8.3,5.8-9.3C63,92,78.5,88.5,94.1,85c7-1.6,13.1,2,15,9C109.7,96.3,110.3,98.6,111,101z M96.9,89.4
		c-0.2,0-0.7,0.1-1.3,0.2c-15.5,3.5-31.1,7-46.6,10.5c-2.7,0.6-3.2,1.5-2.5,4.1c3.2,12,6.5,24,9.7,36c1.3,4.8,1.6,5.1,6.5,3.6
		c14.6-4.5,29.3-9.1,43.9-13.7c3.8-1.2,5.9-4.8,4.9-8.7c-2.3-8.9-4.8-17.8-7.2-26.7C103.4,91.4,100.5,89.4,96.9,89.4z M131,100.7
		c-6.4,1.7-12.5,3.3-18.8,5c0.4,1.6,0.8,3.1,1.3,4.7c6.3-1.7,12.5-3.3,18.8-5C131.9,103.7,131.5,102.3,131,100.7z M135.7,99.4
		c0.4,1.6,0.8,3,1.2,4.6c2.4-0.6,4.7-1.2,7.1-1.9c-0.4-1.6-0.8-3.1-1.3-4.6C140.4,98.2,138.1,98.8,135.7,99.4z"/>
	<path class="st0" d="M14.6,17.2c4.1,0,8.2,0.2,12.3-0.1c5.3-0.4,10-2.6,14.8-4.7c4.9-2.3,9.8-4.6,14.8-6.8
		c4.2-1.8,8.5-2.8,13.1-2.7C75.2,3,80.9,2.8,86.5,3c4.9,0.1,9.7-0.4,14.4-1.6c1.9-0.5,3.9-0.8,5.9-0.8c5.9-0.1,7,4.2,6.4,8.1
		c-0.4,2.7-2.1,4.6-4.2,6.2c-4.1,3.2-8.8,4.6-13.9,4.9c-4.8,0.2-9.5,1.3-14,3c-0.8,0.3-1.6,0.9-2.3,1.3c-1.2,0.8-2.5,0.6-3.3-0.4
		c-0.8-1-0.8-2.5,0.4-3.3c1.5-1,3.1-2,4.9-2.6c4.6-1.6,9.4-2.6,14.3-2.8c4.1-0.2,7.9-1.3,11.1-3.9c1.3-1,2.4-2.3,2.3-4.1
		c0-1-0.4-1.6-1.4-1.5c-1.8,0.2-3.7,0.3-5.5,0.7C96.9,7.4,92,7.9,87,7.8C82,7.6,77,8,72,7.7c-6.2-0.3-11.8,1.3-17.3,3.8
		c-5.9,2.8-11.8,5.5-17.7,8c-4.5,1.9-9.2,2.7-14,2.6c-6.2-0.1-12.5,0-18.7,0c-0.4,0-0.8,0-1.2,0c-1.4-0.1-2.4-1-2.4-2.4
		c0-1.4,1-2.4,2.5-2.4c3.8,0,7.7,0,11.5,0C14.6,17.3,14.6,17.3,14.6,17.2z"/>
	<path class="st0" d="M12.7,72.6c2.9,0,5.9,0,8.8,0c2.2,0,3.2,1,3,3.1C23.4,87.2,22.2,98.6,21,110c-0.4,4.2-0.8,8.5-1.3,12.7
		c-0.2,1.9-0.8,2.6-2.7,2.7c-3.1,0.1-6.3,0.1-9.4,0c-1.4,0-2.1-1-2.3-2.4c-0.7-7-1.4-14-2.1-21c-0.9-8.5-1.7-17-2.6-25.5
		c-0.3-3,0.4-3.9,3.5-3.9C7,72.6,9.9,72.6,12.7,72.6z M5.6,77.4c1.4,14.5,2.9,28.8,4.3,43.1c1.8,0,3.5,0,5.3,0
		c1.4-14.4,2.9-28.7,4.3-43.1C14.8,77.4,10.3,77.4,5.6,77.4z"/>
	<path class="st0" d="M132.5,82.2c-7.2,0-11.3-5.4-9-12.3c0.8-2.3,2.2-4.5,3.3-6.7c1.2-2.6,2.4-5.3,3.5-7.9c0.4-1.1,1.1-1.8,2.3-1.8
		c1.1,0,2.1,0.5,2.3,1.6c0.9,4.1,3.4,7.4,5.2,11.1c0.9,1.9,1.9,4,2.1,6C142.7,78.5,139.1,82.2,132.5,82.2z M132.5,62.5
		c-1.6,3.2-3.2,5.9-4.4,8.7c-0.7,1.7-0.6,3.7,0.8,5.2c1.2,1.2,5.4,1.3,7,0.3c1.2-0.7,1.8-3.1,1.4-5.1c-0.2-0.7-0.4-1.3-0.7-2
		C135.3,67.5,134,65.2,132.5,62.5z"/>
	<path class="st0" d="M22.1,139.8c0,5.3-4.3,9.6-9.6,9.6c-5.3,0-9.6-4.3-9.6-9.6c0-5.2,4.3-9.5,9.5-9.6
		C17.8,130.2,22.1,134.5,22.1,139.8z M17.3,139.8c0-2.6-2.2-4.8-4.8-4.8c-2.6,0-4.8,2.1-4.8,4.7c0,2.7,2.2,4.9,4.9,4.9
		C15.2,144.6,17.4,142.4,17.3,139.8z"/>
	<path class="st0" d="M49.8,48.6c-0.1,0-0.3,0-0.4,0c-2,0-3.2-0.8-3.2-2.3c0-1.5,1.1-2.4,3.1-2.5c9-0.3,16.5-3.6,21.5-11.5
		c0.7-1.2,1.3-2.5,1.9-3.7c0.7-1.4,1.9-1.9,3.2-1.4c1.3,0.6,1.8,1.9,1.2,3.4c-4.2,9.7-11.6,15.4-21.9,17.4
		C53.4,48.3,51.6,48.4,49.8,48.6C49.8,48.6,49.8,48.6,49.8,48.6z"/>
	<path class="st0" d="M64.8,138.1c-2.7,0-4.4-1.4-5.1-4c-2.1-7.8-4.2-15.5-6.3-23.3c-0.1-0.5-0.3-1-0.4-1.4c-0.8-3.3,0.7-5.8,4-6.5
		c8.2-1.8,16.4-3.6,24.6-5.4c1.1-0.2,2.2-0.5,3.4-0.8c2.5-0.5,5,0.8,5.7,3.3c2.2,7.9,4.4,15.9,6.4,23.9c0.6,2.5-0.9,4.7-3.6,5.6
		c-7.3,2.3-14.7,4.6-22,6.8c-1.7,0.5-3.3,1-5,1.5C65.7,138,65.1,138.1,64.8,138.1z M64.4,133.3c9.4-2.9,18.5-5.7,27.9-8.6
		c-2.1-7.8-4.2-15.6-6.3-23.3c-9.6,2.1-19,4.2-28.5,6.3C59.8,116.4,62.1,124.7,64.4,133.3z"/>
	<path class="st0" d="M102.2,105.8c0.1,1.9-0.6,2.8-1.9,3c-1.2,0.2-2.2-0.3-2.6-1.5c-0.6-1.7-1-3.4-1.4-5.2
		c-0.3-1.2,0.4-2.1,1.6-2.5c1.2-0.4,2.3-0.1,2.8,1C101.4,102.4,101.8,104.4,102.2,105.8z"/>
	<path class="st0" d="M103.1,113.4c0.3,0.3,1.2,0.7,1.5,1.4c0.7,1.7,1.1,3.5,1.5,5.3c0.3,1.2-0.4,2.2-1.6,2.5
		c-1.2,0.3-2.3,0.1-2.8-1.1c-0.7-1.9-1.2-3.8-1.5-5.8C99.9,114.4,101.1,113.4,103.1,113.4z"/>
</g>
<g>
	<path class="st0" d="M520.4,186.7c0.3,0.1,0.6,0.3,0.9,0.4c10.3,2.1,16.1,9.1,16.4,19.6c0.3,9.2-2.3,17.2-9.4,23.5
		c-0.2,0.1-0.2,0.4-0.4,0.7c4,0.8,8.1,1.2,11.8,2.5c4.1,1.4,8.2,3.1,11.7,5.5c4.7,3.1,6.9,8,6.9,13.8c0,10.9,0,21.8,0,32.6
		c0,3.2-1.4,4.9-3.9,4.9c-2.6,0-4-1.7-4-4.9c0-10.5-0.1-20.9,0.1-31.4c0.1-5.2-2.2-8.9-6.8-10.7c-4.3-1.7-8.9-3-13.5-3.8
		c-11.8-2.1-23.6-1.5-35.2,1.8c-2,0.6-4,1.4-5.9,2.4c-4,2.1-6,5.3-5.9,10c0.1,10.6,0.1,21.3,0,31.9c0,2.8-1.2,4.4-3.4,4.7
		c-2.7,0.3-4.5-1.5-4.5-4.6c0-8.4,0-16.8,0-25.2c0-2.2,0.1-4.5,0-6.7c-0.3-7.9,3.4-13.3,10.1-17.1c5.7-3.2,12-4.3,18.4-5.4
		c0.6-0.1,1.3-0.2,2.2-0.4c-0.5-0.5-0.7-0.9-1.1-1.2c-8.5-8.3-10.7-18.3-7.7-29.5c1.9-7.1,7.1-11.3,14.3-12.9
		c0.6-0.1,1.2-0.4,1.9-0.5C515.8,186.7,518.1,186.7,520.4,186.7z M504,208.2c0,4.8,1.3,9.3,3.8,12.8c5.1,7.2,13.4,7.3,18.3-0.1
		c3.7-5.5,4.6-11.6,3-18c-0.9-3.9-3.5-6.5-7.3-7.7C511.9,192.1,504.1,197.8,504,208.2z"/>
	<path class="st0" d="M643.6,437.5c-1.3,1.5-2.7,3-5,2.3c-2.1-0.6-3-2.2-2.9-4.3c0-5.5-0.2-11,0.1-16.6c0.2-4.1-1.7-6.8-5.3-8
		c-4-1.4-8.2-2.4-12.4-3c-7.7-1.2-15.5-0.5-23,1.4c-1.7,0.4-3.5,1.1-5.1,1.9c-3.2,1.5-4.8,4-4.7,7.7c0.2,5.4,0.1,10.9,0,16.3
		c0,3-1.5,4.7-3.8,4.8c-2.4,0-4-1.8-4-4.9c0-5.6,0-11.2,0-16.8c-0.1-6,2.5-10.7,7.8-13.3c4.7-2.3,9.8-3.6,14.8-5.4
		c0,0-0.4-0.5-0.7-1c-5.3-6.3-6.8-13.6-4.9-21.5c1.9-8,8.9-12.4,18.2-11.7c7.8,0.5,13.8,6.1,14.8,13.8c1,7.6-0.7,14.4-6,20.1
		c-0.2,0.2-0.3,0.4-0.4,0.6c0,0.1,0,0.2,0,0.4c9.5,1.8,19.2,3.3,22.7,14.5C643.6,422.3,643.6,429.9,643.6,437.5z M610.4,373.1
		c-4.2,0-7.3,1.6-8.3,4.9c-1.7,5.6-0.9,10.9,3.1,15.4c3.1,3.5,7.4,3.4,10.5-0.1c3.1-3.4,4.2-7.6,3.7-12.1
		C619,375.7,616,373.1,610.4,373.1z"/>
	<path class="st0" d="M520.9,323.1c1.3,0,2.3,0,3.3,0c28.1,0,56.2,0,84.3,0c4.9,0,5.9,1,5.9,5.9c0,7,0,14,0,21c0,3.2-1.5,4.9-4,4.8
		c-2.4,0-3.9-1.8-3.9-4.8c0-6.3,0-12.5,0-18.9c-28.6,0-57,0-85.6,0c0,5.4,0,10.7,0,16c0,1.2,0,2.3,0,3.5c-0.1,2.5-1.7,4.2-3.9,4.2
		c-2.3,0-3.9-1.6-3.9-4.2c-0.1-5.6,0-11.2,0-16.8c0-0.9,0-1.8,0-2.8c-28.6,0-56.9,0-85.6,0c0,0.9,0,1.8,0,2.7c0,5.5,0,11,0,16.6
		c0,2.9-1.7,4.6-4.1,4.5c-2.3-0.1-3.8-1.8-3.8-4.6c0-7.3,0-14.7,0-22c0-3.9,1.2-5.2,5.2-5.2c16.2,0,32.5,0,48.7,0
		c12.2,0,24.4,0,36.6,0c0.9,0,1.8,0,3,0c0-1.9,0-3.6,0-5.3c0-4.3,0-8.6,0-12.9c0-2.7,1.6-4.5,3.9-4.5c2.3,0,3.9,1.7,4,4.4
		C520.9,310.9,520.9,316.8,520.9,323.1z"/>
	<path class="st0" d="M433.5,399.9c4,1,7.7,1.7,11.3,3c6.7,2.4,12.2,7,11.8,16.8c-0.2,5.3,0,10.5-0.1,15.8c0,2.2-1,4.1-3.2,4.3
		c-1.3,0.1-2.9-1-4.1-1.9c-0.6-0.5-0.5-1.8-0.6-2.8c0-5.4-0.2-10.7,0-16.1c0.1-4-1.6-6.8-5.2-8.1c-4-1.4-8.2-2.4-12.4-3
		c-7.7-1.2-15.4-0.6-23,1.4c-1.6,0.4-3.2,0.9-4.7,1.6c-3.4,1.6-5.4,4-5.2,8.1c0.2,5.3,0.1,10.7,0.1,16.1c0,3.1-1.5,4.9-4,4.9
		c-2.5,0-3.9-1.8-3.9-5c0-5.6,0.1-11.2,0-16.8c-0.1-5.9,2.4-10.6,7.6-13.1c4.3-2.1,9.1-3.1,13.7-4.6c0.4-0.1,0.9-0.2,1.8-0.3
		c-3.4-3.6-5.8-7.4-6.4-12c-0.4-3.3-0.7-6.8-0.1-10c1.6-8.8,8.8-13.6,18.5-12.8c8.3,0.6,14.3,6.8,14.9,15.4
		C440.8,388,438.8,394.5,433.5,399.9z M432.5,382.7c0-0.6,0-1.6-0.2-2.6c-0.6-4-3.4-6.6-7.5-6.9c-5.1-0.5-8.6,1.2-9.8,5.1
		c-1.7,5.6-0.8,10.8,3.1,15.2c3.1,3.5,7.3,3.4,10.5,0C431.4,390.5,432.4,387,432.5,382.7z"/>
	<path class="st0" d="M507,400.1c-3.5-3.6-5.9-7.6-6.5-12.2c-0.4-3.1-0.6-6.5-0.1-9.6c1.7-9.1,9.3-14.1,19.1-13
		c9,1,14.7,8.1,14.5,17.8c-0.2,6.4-2.3,12.1-7.1,16.9c3,0.7,5.8,0.9,8.4,1.9c3.3,1.2,6.6,2.7,9.4,4.6c3.6,2.4,5.3,6.3,5.3,10.7
		c0.1,6,0,12,0,18c0,2.9-1.6,4.7-4,4.7c-2.4,0-3.9-1.8-3.9-4.7c0-5.4-0.2-10.9,0-16.3c0.2-4.1-1.7-6.8-5.2-8c-4-1.4-8.2-2.4-12.4-3
		c-7.7-1.2-15.4-0.5-23,1.4c-1.6,0.4-3.2,0.9-4.7,1.6c-3.5,1.6-5.3,4.1-5.1,8.1c0.2,5.3,0.1,10.7,0,16.1c0,3.1-1.6,4.9-4,4.8
		c-2.4-0.1-3.9-1.8-3.9-4.8c0-5.6,0.1-11.2,0-16.8c-0.1-6,2.4-10.8,7.7-13.4c4.3-2.1,9.1-3.1,13.7-4.6
		C505.7,400.3,506.1,400.2,507,400.1z M526.1,382.5c0-0.5-0.1-1.7-0.3-2.8c-0.7-3.9-3.6-6.3-7.8-6.6c-5.1-0.3-8.5,1.4-9.6,5.5
		c-1.4,5.2-0.6,10.1,2.8,14.4c3.3,4,8,4,11.4-0.1C525,390.2,526,386.8,526.1,382.5z"/>
	<path class="st0" d="M500.4,273.2c0,4,0,8.1,0,12.1c0,3.1-1.5,4.9-4.1,4.8c-2.4-0.1-3.8-1.7-3.8-4.8c0-8.2,0-16.3,0-24.5
		c0-3,1.4-4.8,3.8-4.8c2.4-0.1,4.1,1.8,4.1,4.8C500.5,265,500.4,269.1,500.4,273.2z"/>
	<path class="st0" d="M541.3,273.2c0,4.1,0,8.2,0,12.4c0,2.9-1.4,4.5-3.8,4.5c-2.5,0.1-4.1-1.6-4.1-4.5c-0.1-8.3-0.1-16.6,0-25
		c0-2.9,1.7-4.7,4.1-4.6c2.3,0.1,3.8,1.8,3.8,4.6C541.4,264.8,541.3,269,541.3,273.2z"/>
</g>
</svg>
