<?xml version="1.0" encoding="utf-8"?>
<!-- Generator: Adobe Illustrator 24.3.0, SVG Export Plug-In . SVG Version: 6.00 Build 0)  -->
<svg version="1.1" id="Layer_1" xmlns="http://www.w3.org/2000/svg" xmlns:xlink="http://www.w3.org/1999/xlink" x="0px" y="0px"
	 viewBox="0 0 150 150" style="enable-background:new 0 0 150 150;" xml:space="preserve">
<style type="text/css">
	.st0{fill:#CDEEFD;}
	.st1{fill:#111224;}
	.st2{fill:#005BAB;}
</style>
<path class="st0" d="M1465.3,1556.3c-2.4-0.2-4.3-1.3-4.4-4.1c-0.1-6.7,1.6-10,4.9-9.9c0.2,0,0.3,0,0.5,0c2.2,0.5,4.3,2.1,3.2,4
	C1467.7,1549.5,1473.1,1555.7,1465.3,1556.3z M1465.5,1554.4c1.3-0.1,2.3-0.6,2.3-2.1c-0.1-1.7-1.5-2.1-2.8-2.4c-1.6-0.4-2,0.8-2,2
	C1463,1553.5,1464,1554.2,1465.5,1554.4z M1467.8,1546.5c0-1.4-0.6-2.2-2.1-2.2c-0.9,0-1.6,0.4-1.7,1.4c-0.2,1.4,0.9,2.1,2,2.5
	C1467.3,1548.5,1467.6,1547.5,1467.8,1546.5z"/>
<path class="st0" d="M1455.8,1556.6c-0.5-2.9-1.8-4.2-4.6-3.6c-0.7,0.2-1.7,0.3-2.1-0.8c-0.4-1.1,0.1-1.5,1.2-2.1
	c2.1-1.2,2.1-3.9,3.2-5.8c0.6-1,1-2.2,2.5-1.9c1.4,0.3,0.9,1.6,0.8,2.5C1456.4,1548.6,1458.4,1552.5,1455.8,1556.6z"/>
<path class="st1" d="M1465.5,1554.4c-1.5-0.1-2.6-0.8-2.5-2.4c0-1.2,0.4-2.4,2-2c1.2,0.3,2.7,0.7,2.8,2.4
	C1467.8,1553.7,1466.8,1554.2,1465.5,1554.4z"/>
<path class="st1" d="M1467.8,1546.5c-0.2,1-0.5,2.1-1.8,1.7c-1.1-0.4-2.1-1-2-2.5c0.1-1,0.8-1.4,1.7-1.4
	C1467.2,1544.3,1467.8,1545,1467.8,1546.5z"/>
<polygon class="st2" points="1346.8,29.4 1346.9,29.6 1346.6,29.6 "/>
<g>
	<path class="st2" d="M149.9,120.3c-0.9,1-2,1.2-3.2,1.2c-47.8,0-95.5,0-143.3,0c-2.7,0-3.3-0.5-3.2-3.2c0.1-3.8-0.2-7.7,0.6-11.3
		c2-10.4,10.9-17.6,21.6-17.7c2.9,0,5.8,0,8.6,0c0.5,0,1,0,1.7,0c0-1.3,0.1-2.4,0-3.5c0-0.4-0.4-0.8-0.8-1c-4.8-2.8-8.2-6.8-10.1-12
		c-0.4-1.1-1.1-0.9-1.8-0.9c-4.1-0.1-7-2.4-7.7-6c-0.7-4.2,2.4-8.2,6.6-8.5c0.4,0,0.9-0.1,1.5-0.1c0-1.9,0-3.6,0-5.4
		c0.2-9.1,4.2-16.1,12.2-20.5c14.5-7.8,32.5,2.3,33.5,18.8c0.1,2.3,0,4.7,0,7.2c3.6,0,6.4,1.4,7.7,4.7c1.4,3.3,0.4,6.1-2.1,8.4
		c4.2,7,1.6,15.6-6.7,19c0.9,0.1,1.6,0.1,2.3,0.3c2.4,0.7,4.7,1.6,7,2.3c0.5,0.1,1.2,0.2,1.6,0c3.5-1.8,7.2-2.6,11.1-2.5
		c3.1,0,6.1,0,9.4,0c0-1.3,0.1-2.5,0-3.7c0-0.3-0.5-0.7-0.8-0.9c-4.7-2.8-8.2-6.7-10.1-11.9c-0.4-1.1-1.1-1-1.9-1
		c-4.3-0.1-7.3-2.6-7.7-6.6c-0.2-2.1,0.4-4,1.9-5.5c0.6-0.6,0.5-1,0.3-1.8c-0.3-1.4-0.4-3-0.2-4.4c0.5-3.7,1.2-7.3,1.9-10.9
		c1-5.7,4-7.4,9.4-5.5c2.8-3.4,6.3-6,10.6-7.3c9.4-2.8,17.5-0.6,24.2,6.5c0.7,0.7,1.1,0.8,2.1,0.4c3.3-1.4,7.1,0.5,7.9,4
		c1,4.8,1.8,9.7,2.5,14.5c0.2,1.2-0.4,2.4-0.7,3.9c1.6,1.5,2.6,3.5,2.4,6c-0.4,3.9-3.3,6.6-7.3,6.6c-1.6,0-2.2,0.6-2.8,2
		c-1.8,4.5-4.8,8-9,10.5c-1.3,0.8-1.8,1.6-1.6,3c0.1,0.6,0,1.3,0,2.1c0.7,0,1.3,0,1.9,0c4.1,0.1,8.2-0.2,12.2,0.4
		c9.4,1.5,16.6,9,18,18.5c0,0.3,0.2,0.5,0.3,0.8C149.9,112.7,149.9,116.5,149.9,120.3z M90.1,93.2c-2.5,0.1-4.8,0-7.1,0.4
		c-11.6,2.4-16.4,12.2-14.8,23.7c2.8,0,5.5,0,8.3,0c0-2.6,0-5.2,0-7.7c0-1.3,0.6-2.2,1.9-2.4c1.2-0.2,2.2,0.8,2.2,2.3
		c0,2.6,0,5.1,0,7.7c17.6,0,35.1,0,52.6,0c0-2.7,0-5.3,0-7.9c0-1.5,1.2-2.5,2.5-2.1c1.2,0.3,1.6,1.3,1.6,2.5c0,2.5,0,5,0,7.6
		c2.9,0,5.7,0,8.4,0c0.8-7.7-0.2-14.7-6.5-19.9c-4.5-3.7-9.7-4.6-15.4-3.9c0.1,4.8-1.2,9-4.4,12.4c-3.2,3.5-7.2,5.3-11.9,5.5
		c-4.1,0.1-7.8-1.1-11-3.6C91.9,104.1,89.9,99.2,90.1,93.2z M12.7,117.4c0-0.6,0-1.2,0-1.7c0-2,0-4.1,0-6.1c0-1.4,0.9-2.3,2.1-2.3
		c1.1,0,1.9,0.9,2,2.3c0,0.6,0,1.2,0,1.8c0,2,0,4.1,0,6.1c15.8,0,31.3,0,47.2,0c-0.8-8.5,0.6-16.3,7.2-22.4
		c-2.4-1.2-4.7-1.6-7.1-1.6c-0.4,0-0.9,0.6-1,1c-0.6,2.4-1.1,4.7-1.6,7.1c-1.5,6.9-8.1,10.1-14.1,6.4c-3.1-1.9-5.4-2-8.6,0
		c-6,3.7-12.7,0.5-14.2-6.5c-0.5-2.3-1-4.7-1.5-7c-0.2-0.9-0.6-1.2-1.5-1.1c-3.6,0.2-6.9,1.2-9.8,3.3c-7.2,5.2-8.4,12.5-7.5,20.7
		C7.1,117.4,9.8,117.4,12.7,117.4z M123.1,60.3c-1.5-1.2-2.3-2.7-2.4-4.6c-0.2-3.8-0.5-7.7-0.6-11.5c0-1.3,0.6-2.6,0.8-3.9
		c0.1-0.4,0.1-1.1-0.1-1.4c-8-9.1-21.9-8-28.5,0.7c1.5,1.7,1.5,3.8,1.4,5.9c-0.2,2.7-0.4,5.3-0.5,8c-0.1,2.6-0.2,5.1-2.6,6.8
		c0.6,0.5,1,0.8,1.4,1.1c0.2-0.2,0.3-0.3,0.5-0.5c3.7-4.4,9.5-3.8,12.1,1.3c0.7,1.4,1.9,0.6,2.8,0.8c0.7,0.1,1.4,0.1,1.9-0.8
		c2.3-4.8,8.3-5.6,11.7-1.6c0.2,0.3,0.5,0.6,0.8,0.9C122.2,61,122.6,60.7,123.1,60.3z M41.2,67.1c-0.3,0.5-0.5,1-0.7,1.4
		c-1.4,2.4-3.5,3.6-6.3,3.5c-2.8-0.1-5.1-1.4-6.1-4c-0.6-1.8-1.8-2.9-3.2-4c-0.8-0.7-1.7-1.3-2.5-2c-1.2-1-3.6-1.1-4.9-0.2
		c-1.2,0.8-1.7,1.9-1.4,3.3c0.3,1.4,1.2,2.3,2.5,2.5c1,0.1,1.9,0.1,2.9,0.1c2.6,0,2.8,0.1,3.5,2.6C28,79.7,37.8,85.4,47.5,83
		c7-1.7,11.5-6.2,13.7-13c0.7-2.1,0.9-2.3,3.1-2.3c1.1,0,2.3,0,3.3-0.1c1.5-0.2,2.6-1.7,2.6-3.1c0-1.4-1.2-2.8-2.7-3
		c-1.5-0.2-2.9-0.2-4.2,1c-1,1-2.3,1.8-3.4,2.8c-0.6,0.6-1.1,1.3-1.4,2.1c-1.1,2.7-3,4.4-5.9,4.8c-2.7,0.3-5.2-0.6-6.5-3
		c-1-1.8-2.1-2.1-3.8-1.9C42,67.1,41.7,67.1,41.2,67.1z M108.8,67.1c-0.6,0-1.3,0.1-1.9,0c-1.4-0.2-2.1,0.3-2.8,1.6
		c-1.3,2.4-3.6,3.6-6.3,3.4c-2.7-0.2-5-1.5-5.9-4.1c-0.6-1.7-1.7-2.8-3.1-3.9c-0.9-0.6-1.7-1.3-2.5-2c-1.2-1-3.5-1.2-4.8-0.4
		c-1.2,0.7-1.9,2-1.6,3.3c0.3,1.4,1.2,2.4,2.6,2.6c1.1,0.1,2.1,0.1,3.2,0.1c2.1,0,2.5,0.3,3.1,2.4c2.3,8,9.5,13.5,17.8,13.6
		c8.7,0.1,16-5.3,18.5-13.8c0.4-1.5,1.2-2.2,2.8-2.1c1.2,0.1,2.3,0,3.5-0.1c1.5-0.2,2.6-1.6,2.6-3c0-1.5-1.2-3-2.7-3.1
		c-1.5-0.2-2.9-0.2-4.2,1.1c-1,1.1-2.4,1.9-3.5,2.9c-0.5,0.5-1,1.2-1.2,1.8c-1.3,3.7-5.2,5.8-8.9,4.6
		C111.2,71,109.7,69.4,108.8,67.1z M58.7,60.7c-1.9-1.2-2.3-2.9-2.3-4.9c0.1-2.2,0.1-4.5,0-6.7c-0.1-3.5-2.4-5.7-5.9-5.7
		c-4.9,0-9.7,0-14.6,0c-3.6,0-5.9,2.3-6,5.9c0,1.9,0,3.8,0,5.7c0.1,2.3,0,4.4-2.2,6c0.6,0,1.1-0.1,1.3-0.4c3.6-4.1,9.4-3.4,11.9,1.5
		c0.2,0.3,0.4,0.8,0.7,0.8c1.1,0.1,2.3,0.2,3.3,0c0.4-0.1,0.6-1,1-1.5c0.4-0.5,0.7-1,1.2-1.5c3-2.8,7.5-2.6,10.3,0.6
		C57.6,61,57.9,61.8,58.7,60.7z M24.4,57.1c1,0.3,1.3-0.1,1.3-1c0-2.3-0.1-4.6,0-6.9c0.2-5.8,4.3-9.8,10.1-9.8c4.7,0,9.5,0,14.2,0
		c6.4,0,10.4,4,10.5,10.4c0,2.1,0,4.3,0,6.4c0,1.1,0.5,1.2,1.4,0.9c0-2.3,0.1-4.6,0-6.9C61,37.5,47.6,29,36,34
		C25.9,38.3,23.3,47,24.4,57.1z M113.3,86.7c-4.3,1.2-8.5,1.2-12.8,0c0,3.1-0.2,6.2,0.1,9.2c0.3,3.1,3.4,5.4,6.5,5.3
		c3.1-0.1,6-2.5,6.2-5.5C113.4,92.8,113.3,89.8,113.3,86.7z M36.7,86.7c0,2.9,0,5.6,0,8.4c0.1,3.3,2.7,6,6,6.2
		c3.2,0.3,6.4-2,6.7-5.2c0.3-3.1,0.1-6.2,0.1-9.4C45.2,87.9,41,87.9,36.7,86.7z M89.3,49.5C89.3,49.5,89.3,49.5,89.3,49.5
		c0.1-1.3,0-2.6,0.3-3.9c0.5-2.5-0.6-3.9-2.7-4.9c-1.5-0.7-2.7-0.2-3,1.5c-0.8,4.3-1.5,8.6-2.3,12.9c-0.2,1.4,0.3,2,1.7,2.1
		c1.3,0.1,2.5,0,3.8,0c1.3,0,1.9-0.7,2-2C89.1,53.3,89.2,51.4,89.3,49.5z M128.5,57.1c0.7,0,1.4,0,2,0c1.3-0.1,1.9-0.8,1.7-2
		c-0.7-4.4-1.5-8.8-2.4-13.2c-0.1-0.6-1.1-1.5-1.7-1.6c-1.7-0.3-4,2.2-4,3.9c0.2,3.1,0.4,6.1,0.5,9.2
		C124.8,57.1,124.8,57.2,128.5,57.1z M55.9,83.8c3.5,2.5,7.8,2.3,10.8-0.4c2.9-2.6,3.6-6.9,1.8-10.4c-0.6-1.2-1.4-1.3-2.6-1.3
		c-1.1,0-1.1,0.9-1.4,1.5c-0.4,0.9-0.9,1.9-1.3,2.7C61.4,79.1,58.9,81.6,55.9,83.8z M94.4,93.3c-0.7,4.8,1.8,9.8,6.2,12.3
		c4.5,2.6,10.3,2.1,14.4-1.2c3.4-2.7,5.4-7.9,4.4-11c-0.6,0-1.1,0-1.8,0c0.1,3.1-0.5,6-2.6,8.3c-2.1,2.4-4.7,3.6-7.8,3.6
		c-2.5,0.1-4.8-0.7-6.8-2.3c-3-2.5-4.1-5.8-3.9-9.6c-0.3-0.1-0.5-0.1-0.7-0.1C95.2,93.3,94.8,93.3,94.4,93.3z M37.6,103.9
		c-3.7-2.6-5.3-6.1-5.1-10.5c-1.9,0-3.6,0-5.4,0c0.6,2.5,1.1,4.9,1.6,7.3C29.8,105.3,33.6,106.7,37.6,103.9z M53.7,93.4
		c0.3,4.5-1.4,7.9-5,10.4c2.8,2.4,6.8,1.9,8.1-1.2c1.2-2.9,1.7-6.1,2.5-9.3C57.2,93.4,55.5,93.4,53.7,93.4z M48.9,65.1
		c0,1.6,1.3,2.9,2.9,2.9c1.6,0,3-1.4,3-3c0-1.6-1.4-2.9-3.1-2.9C50.1,62.2,48.9,63.4,48.9,65.1z M98.2,62.1c-1.7,0-3,1.3-3,2.9
		c0,1.5,1.4,2.9,2.9,2.9c1.6,0,2.9-1.3,2.9-2.8C101.1,63.4,99.9,62.1,98.2,62.1z M112.7,65c0,1.7,1.3,3,3,3c1.5,0,2.9-1.4,2.9-2.9
		c0-1.6-1.4-2.9-3-2.9C113.9,62.1,112.7,63.4,112.7,65z M37.3,65.1c0-1.7-1.2-3-2.9-3c-1.6,0-2.9,1.2-2.9,2.8c0,1.6,1.3,3,2.9,3
		C36,68,37.3,66.7,37.3,65.1z M56.6,89.1c0-0.1,0-0.1,0-0.2c-1-0.5-1.9-0.9-2.9-1.4c0,0.6,0,1.1,0,1.7
		C54.7,89.1,55.7,89.1,56.6,89.1z"/>
	<path class="st2" d="M43.2,81c-3.2,0-5.8-2.4-6-5.6c-0.1-1.4,0.6-2.3,1.8-2.4c1.3-0.1,2,0.5,2.2,1.8c0.2,1.2,0.6,2.1,2,2.1
		c1.4,0,1.8-1,2-2.1c0.2-1.3,1-1.9,2.3-1.7c1.3,0.2,1.8,1.1,1.7,2.3C49,78.4,46.3,80.9,43.2,81z"/>
	<path class="st2" d="M106.9,81c-3.2,0-5.8-2.5-6-5.6c-0.1-1.2,0.4-2.1,1.7-2.4c1.2-0.2,2.1,0.5,2.3,1.8c0.2,1.2,0.7,2.1,2,2
		c1.3,0,1.7-0.9,1.9-2c0.3-1.4,1.2-2,2.3-1.8c1.1,0.2,1.8,1.1,1.7,2.5C112.6,78.6,110,80.9,106.9,81z"/>
</g>
</svg>
