<?xml version="1.0" encoding="utf-8"?>
<!-- Generator: Adobe Illustrator 24.3.0, SVG Export Plug-In . SVG Version: 6.00 Build 0)  -->
<svg version="1.1" id="Layer_1" xmlns="http://www.w3.org/2000/svg" xmlns:xlink="http://www.w3.org/1999/xlink" x="0px" y="0px"
	 viewBox="0 0 150 150" style="enable-background:new 0 0 150 150;" xml:space="preserve">
<style type="text/css">
	.st0{fill:#075CAA;}
</style>
<g>
	<path class="st0" d="M66.9,26.4c-8.8-7.8-6.2-17.1-1.5-21.6c5.3-5.1,14.3-5,19.5,0.2c6,6.1,5.4,14.2-1.6,21.2
		c0.4,1,1.4,0.8,2.2,0.9c4.6,0.4,8.5,2.3,12,5.4c6.1,5.5,12.5,10.6,18.8,16c3.2,2.7,4,5.7,2.6,9.5c-2.2,6.2-4.5,12.4-6.8,18.5
		c-1.3,3.6-3.9,5.4-7.6,5.2c-1.9-0.1-2.2,0.5-2.3,2.2c-1,12.1-2.2,24.1-3.3,36.2c-0.2,2.4-0.3,4.4-3.6,4.1c-1.7-0.2-1.3,1.3-1.3,2.2
		c0,4.5,0,9,0,13.5c0,5.7-3.3,9.1-8.4,9.1c-4.9,0-8.1-3.6-8.1-9.1c0-4.5-0.1-9,0-13.5c0.1-2-1.1-3.1-2.5-3.1c-1.1,0-2.3,1.1-2.3,3
		c0.2,4.4,0.1,8.8,0.1,13.2c0,5.9-3.3,9.5-8.4,9.4c-5.1-0.1-8.1-3.5-8.2-9.3c0-4.5,0-9,0-13.5c0-1.4-0.2-2.3-1.9-2
		c-2.4,0.3-2.8-1.1-3-3.1c-1.1-12.5-2.3-24.9-3.4-37.4c-0.2-1.9-0.6-2.3-2.5-2c-3.7,0.6-6.8-1.3-8.1-4.9c-2.3-6.7-4.5-13.4-6.5-20.1
		c-1-3.2,0.3-5.8,2.8-7.9c7.1-6,14.2-11.9,21.2-18c2.5-2.1,5.5-2.9,8.6-3.5C64.5,27.1,65.7,27.2,66.9,26.4z M75.7,28.8
		c-5,0.5-10.5,0.8-15.8,2.5c-0.9,0.3-1.8,0.7-2.5,1.3C50,38.7,42.6,45,35.3,51.2c-1.6,1.3-2.2,3-1.5,5.1c2,6.1,3.9,12.2,5.9,18.2
		c1.2,3.5,3.4,5,6.1,4.1c2.9-0.9,4-3.4,2.8-7c-1.4-4.4-2.8-8.7-4.2-13.1c-0.5-1.5-0.4-2.7,1-3.7c3.6-2.9,7-5.9,10.5-8.8
		c0.8-0.6,1.5-1.7,2.7-1.3c1.4,0.5,1.1,1.9,1.1,3c0.4,7.4,1,14.9,1.2,22.3c0.1,2.2,0.9,2.7,2.9,2.6c7.4-0.1,14.9-0.1,22.3,0
		c2.4,0.1,2.8-0.8,2.9-2.9c0.3-7.5,0.8-15.1,1.3-22.6c0.1-0.9,0-2,1.1-2.4c1-0.4,1.6,0.4,2.2,0.9c3.6,3,7.1,6.1,10.7,9
		c1.5,1.2,1.6,2.3,1,4c-1.7,4.3-3.2,8.6-4.7,12.9c-1.2,3.4-0.2,6.1,2.6,7.1c2.6,0.9,5.1-0.6,6.3-3.9c2-5.6,4.1-11.3,6.1-16.9
		c1.4-3.8,1.1-4.9-1.9-7.5c-6.5-5.5-13-10.9-19.4-16.5c-2.3-2-4.8-3.2-7.6-3.6C83.3,29.7,79.8,29.3,75.7,28.8z M74.9,82.5
		c-7.3,0-14.5,0.1-21.8,0c-1.9,0-2.4,0.5-2.2,2.5c1.1,11.4,2.2,22.8,3.1,34.2c0.2,1.8,0.9,2.2,2.5,2.1c4.2-0.1,8.4-0.1,12.6,0
		c2.1,0.1,2.7-0.4,2.8-2.6c0.2-6.9,0.7-13.7,1.2-20.6c0.1-1.2,0.3-2.7,2-2.6c1.5,0.1,1.5,1.5,1.8,2.5c0.2,0.6,0.2,1.3,0.2,2
		c0.3,6.4,0.7,12.8,1,19.1c0.1,1.6,0.5,2.2,2.1,2.1c4.5-0.1,9-0.1,13.5,0c1.6,0,2.1-0.5,2.3-2.1c1-11.5,2-23,3.1-34.5
		c0.2-1.9-0.5-2.2-2.1-2.2C89.6,82.6,82.3,82.5,74.9,82.5z M75.1,25.7c6.1,0,10.9-4.9,10.9-10.9c0-5.9-5.2-10.9-11.1-10.8
		C69,4,64,9,64.1,15C64.1,21,68.9,25.7,75.1,25.7z M59.1,133.5c0,2.4-0.1,4.8,0,7.1c0.1,3.2,2.1,5.2,5.2,5.3c3.1,0.1,5.4-2,5.5-5.3
		c0.1-4.9,0-9.7,0.1-14.6c0-1.4-0.4-2.1-1.9-2c-2.3,0.1-4.6,0.1-6.9,0c-1.5-0.1-2,0.6-1.9,2C59.2,128.5,59.1,131,59.1,133.5z
		 M90.9,133.3C90.9,133.3,90.9,133.3,90.9,133.3c-0.1-2.9,1-6.5-0.4-8.4c-1.6-2.3-5.5-0.5-8.3-0.8c-0.1,0-0.2,0-0.3,0
		c-1.2-0.1-1.8,0.3-1.8,1.6c0,5.1-0.1,10.3,0.1,15.4c0.1,2.9,2.5,4.9,5.3,4.8c3,0,5.1-1.9,5.2-4.9C91,138.5,90.9,135.9,90.9,133.3z
		 M98.6,79.6c-0.5-3.1-1.9-4.2-5-4.1c-12.9,0.2-25.7,0.1-38.6,0.1c-0.6,0-1.1,0-1.7,0c-2.1,0.1-2.2,2.2-2.4,3.3
		c-0.2,1.2,1.5,0.6,2.3,0.6c12.7,0,25.4,0,38,0C93.7,79.6,96.1,79.6,98.6,79.6z M56.7,49.3c-3.1,2.6-5.9,5-8.7,7.2
		c-0.9,0.7-0.6,1.4-0.4,2.3c1.1,3.3,2.5,6.7,3.1,10.1c0.6,3.5,2.5,4,5.6,3.8c1.6-0.1,1.9-0.6,1.8-2C57.6,63.8,57.2,56.8,56.7,49.3z
		 M93.4,49.3c-0.5,7.3-1,13.9-1.3,20.6c0,0.9-1.1,2.7,0.9,2.6c1.6,0,3.9,1.3,4.8-1.5c1.4-4.2,3-8.4,4.5-12.6
		c0.2-0.7,0.5-1.2-0.2-1.8C99.3,54.3,96.5,52,93.4,49.3z"/>
</g>
</svg>
