<?xml version="1.0" encoding="utf-8"?>
<!-- Generator: Adobe Illustrator 24.3.0, SVG Export Plug-In . SVG Version: 6.00 Build 0)  -->
<svg version="1.1" id="Layer_1" xmlns="http://www.w3.org/2000/svg" xmlns:xlink="http://www.w3.org/1999/xlink" x="0px" y="0px"
	 viewBox="0 0 150 150" style="enable-background:new 0 0 150 150;" xml:space="preserve">
<style type="text/css">
	.st0{fill:#005BAB;}
</style>
<g>
	<path class="st0" d="M33.2,126.3c-1.4,0-2.8,0-4.1,0c-0.8,0-1.1-0.2-1.1-1.1c0-2.8,0-5.6,0-8.4c0-0.9,0.3-1.2,1.2-1.1
		c1.8,0.1,3.6,0,5.4,0c0.7,0,0.8-0.1,0.7-0.8c-0.7-3.7-2.7-6.6-5.3-9.1c-3.3-3.2-6.2-6.7-7.9-11c-0.6-1.4-0.9-2.9-1.1-4.4
		c0-0.5-0.1-0.6-0.6-0.7c-2-0.1-2.9-1.2-3-3.2c-0.2-3.2-0.4-6.4-0.6-9.6c-0.4-5.9-0.8-11.7-1.1-17.6c0-0.5-0.1-0.7-0.6-0.8
		c-1.2-0.3-1.6-1.3-1.7-2.4c0-0.7,0-1.4,0-2.1c0-2,0.9-3,3-3c3.5,0,7,0,10.6,0c2.9,0,5.8,0,8.7,0c1.2,0,2.6,1,2.5,2.4
		c-0.1,1,0,1.9,0,2.9c0,1.1-0.6,1.8-1.5,2.2c-0.5,0.2-0.6,0.4-0.6,0.9c0,8.2,0,16.4,0,24.6c0,0.5,0.1,0.7,0.7,0.7c1.5,0,2.9,0,4.4,0
		c9.9,0,19.7,0,29.6,0c1.6,0,3,0.3,4.4,1.2c1.2,0.8,2,1.9,2,3.4c-0.1,3.9-0.8,7.7-2.7,11.1c-1.3,2.5-3.1,4.6-5.3,6.4
		c-1.6,1.3-3.3,2.4-5.3,3.1c-0.4,0.1-0.5,0.3-0.5,0.7c0,3.1,0.3,6.1,1.1,9c1,3.8,2.5,7.5,4.5,10.9c0.8,1.3,0.6,1.6-1,1.6
		c-12.6,0-25.2,0-37.8,0c-0.4,0-0.9,0.2-1.2-0.4c-0.3-0.6,0.2-0.9,0.6-1.3C30.8,129.3,32.1,128,33.2,126.3z M67.2,130.8
		c-0.1-0.2-0.2-0.3-0.2-0.4c-2.5-4.3-4.1-9-4.8-13.9c-0.3-1.7-0.4-3.4-0.4-5.1c0-0.5,0-0.8-0.7-0.6c-2.9,0.8-5.9,1-8.8,0.4
		c-8.3-1.6-13.9-6.5-16.6-14.5c-0.2-0.7-0.2-1.7-0.7-2c-0.5-0.4-1.5-0.1-2.2-0.1c-2.8,0-4.7-1.4-5.5-4.1c-0.1-0.5-0.4-0.6-0.9-0.6
		c-1.1,0-2.2,0-3.4,0c-0.7,0-0.7,0.2-0.6,0.8c0.5,3.7,2.2,6.7,4.4,9.7c1.9,2.5,4.3,4.6,6.3,6.9c5.3,6.1,4.6,15.8,0.8,20.9
		c-0.7,1-1.6,1.8-2.5,2.8C43.3,130.8,55.2,130.8,67.2,130.8z M34.5,73.5C34.5,73.5,34.5,73.5,34.5,73.5c0-4.7,0-9.3,0-14
		c0-0.7-0.2-0.8-0.8-0.8c-5.2,0-10.5,0-15.7,0c-0.9,0-1.1,0.2-1,1.1c0.3,4.5,0.6,9,0.9,13.5c0.3,4.4,0.5,8.9,0.8,13.3
		c0.1,1.1,0.7,1.7,1.7,1.7c4.5,0,9,0,13.4,0c0.5,0,0.7-0.1,0.7-0.7C34.5,82.9,34.5,78.2,34.5,73.5z M36.5,94.5
		c1.7,8.5,8.9,15.2,18.6,15.5c9.3,0.2,17.5-5.9,19.6-15.5C62,94.5,49.3,94.5,36.5,94.5z M28.6,89.9c0.7,2.1,2,3.2,4.1,3.2
		c13.6,0,27.1,0,40.7,0c1.6,0,1.6,0,1.8-1.6c0-0.2,0.1-0.4,0.1-0.7c0.1-0.7,0-0.9-0.8-0.9c-4.7,0-9.3,0-14,0c-9,0-17.9,0-26.9,0
		C32,89.9,30.3,89.9,28.6,89.9z M25.6,52.6c-3.2,0-6.4,0-9.6,0c-1.1,0-1.3,0.1-1.3,1.3c0,0.7,0,1.5,0,2.2c0,0.8,0.3,1.1,1.1,1.1
		c6.5,0,13.1,0,19.6,0c0.8,0,1.1-0.4,1.1-1.1c0-0.7,0-1.4,0-2.1c0-1.1-0.3-1.4-1.4-1.4C32,52.6,28.8,52.6,25.6,52.6z M75.3,88.3
		c-1.2-1.7-2.8-2.1-4.5-2.1c-11.4,0-22.9,0-34.3,0c-0.2,0-0.5-0.1-0.5,0.1c-0.1,0.6-0.1,1.2,0,1.8c0.1,0.5,0.6,0.2,0.9,0.2
		c8.2,0,16.5,0,24.7,0C66.1,88.3,70.6,88.3,75.3,88.3z M29.4,121C29.4,121,29.4,121,29.4,121c0,1.1,0,2.2,0,3.3c0,0.4,0,0.6,0.5,0.6
		c1.2,0,2.5,0,3.7,0c0.4,0,0.5-0.2,0.6-0.5c0.9-2.1,1.1-4.4,1.2-6.6c0-0.4-0.1-0.5-0.5-0.5c-1.7,0-3.3,0-5,0c-0.4,0-0.5,0.1-0.5,0.5
		C29.4,118.8,29.4,119.9,29.4,121z"/>
	<path class="st0" d="M87.3,116.6c0-5.4,0-10.8,0-16.1c0-0.6-0.1-0.9-0.8-1.1c-1.5-0.3-2.3-1.4-2.3-3c0-2,0-4,0-6.1
		c0-1.6,0.8-2.5,2.3-3c0.4-0.1,0.5-0.3,0.6-0.6c0.9-3,3.5-5,6.6-5c10.6,0,21.2,0,31.9,0c3,0,5.6,2,6.5,4.9c0.1,0.5,0.4,0.6,0.9,0.7
		c1.4,0.2,2.5,1.2,2.5,2.6c0.1,2.3,0.2,4.6-0.1,6.9c-0.2,1.6-0.9,2.4-2.4,2.6c-0.7,0.1-0.8,0.4-0.8,1c0,10.5,0,20.9,0,31.4
		c0,5-3,8.7-7.9,9.7c-1.1,0.2-2.2,0.1-3.3,0.1c-8.1,0-16.1,0-24.2,0c-5.3,0-9.6-4.4-9.5-9.6c0.1-2.6,0-5.2,0-7.8
		C87.3,121.7,87.3,119.1,87.3,116.6z M109.7,140c4.4,0,8.8,0,13.1,0c4.3,0,7.8-3.4,7.8-7.7c0-6.4,0-12.7,0-19.1
		c0-0.6-0.1-0.8-0.8-0.8c-1.2-0.1-2.4,0.1-3.5,0c-0.5,0-1.1-0.1-1.1-0.8c0-0.7,0.6-0.7,1.1-0.6c1.2,0,2.5,0,3.7,0
		c0.4,0,0.6-0.1,0.6-0.6c0-3.5,0-6.9,0-10.4c0-0.5-0.1-0.6-0.6-0.6c-2.2,0-4.5,0-6.7,0c-0.6,0-0.7,0.2-0.7,0.7c0,2.4,0.1,4.8,0,7.2
		c-0.1,2.1-0.1,4.2,0.1,6.3c0.3,2.3-1.3,5-3.7,5.4c-0.5,0.1-0.6,0.4-0.6,0.9c0,4.5,0.1,9.1,0.1,13.6c0,1.8-1.8,3.6-4.1,3.2
		c-1.9-0.4-3-1.7-3-3.7c0-4.3,0-8.6,0-13c0-0.4,0.2-0.8-0.5-0.9c-2.7-0.6-4.1-2.4-4.1-5.2c0-4.6,0-9.2,0.1-13.8
		c0-0.6-0.1-0.8-0.8-0.8c-5.6,0-11.1,0-16.7,0c-0.7,0-0.8,0.2-0.8,0.8c0,3.3,0,6.6,0,9.9c0,0.7,0.2,0.8,0.8,0.8c4.2,0,8.4,0,12.6,0
		c0.5,0,1.1,0,1.6,0c0.5,0,0.7,0.4,0.7,0.8c0,0.4-0.3,0.6-0.7,0.6c-0.4,0-0.7,0-1.1,0c-4.4,0-8.7,0-13.1,0c-0.6,0-0.9,0.1-0.9,0.8
		c0,6.3,0,12.6,0,18.9c0,4.4,3.4,7.8,7.8,7.9C101,140.1,105.3,140,109.7,140z M88.5,87.2c1.3,0,2.6,0,3.8,0c8.7,0,17.4,0,26.1,0
		c0.1,0,0.3,0,0.4,0c0.5,0.1,0.7,0.4,0.8,0.9c0,0.6-0.3,0.6-0.7,0.6c-0.3,0-0.5,0-0.8,0c-10.2,0-20.4,0-30.5,0
		c-1.4,0-1.9,0.5-1.9,1.9c0,1.8,0,3.6,0,5.5c0,1.3,0.6,1.9,1.9,1.9c14.8,0,29.6,0,44.5,0c1.5,0,2.1-0.5,2.1-2c0-1.9,0-3.7,0-5.6
		c0-1.2-0.6-1.7-1.7-1.7c-2.5,0-4.9,0-7.4,0c-0.6,0-1.1-0.2-1.1-0.8c0-0.7,0.5-0.7,1.1-0.7c1.7,0,3.5,0,5.2,0c0.6,0,0.6-0.1,0.4-0.6
		c-1-2.2-2.8-3.4-5.1-3.4c-10.5-0.1-21.1,0-31.6,0C91.3,83.2,89.1,84.9,88.5,87.2z M121.3,107.4
		C121.3,107.4,121.3,107.4,121.3,107.4c0-2.4,0-4.8,0-7.2c0-0.6-0.1-0.8-0.8-0.8c-2.1,0-4.3,0-6.4,0c-0.7,0-0.9,0.1-0.9,0.9
		c0,4.6,0,9.2,0,13.8c0,0.3,0,0.7,0.1,1c0.5,1.9,1.9,2.8,4.4,2.8c1.9,0,3.5-1.4,3.5-3.3C121.3,112.2,121.3,109.8,121.3,107.4z
		 M113,126.5C113,126.5,113,126.5,113,126.5c0,2.1,0,4.2,0,6.3c0,0.5,0,1.1,0.3,1.6c0.5,0.7,1.5,1.1,2.4,0.9
		c0.9-0.3,1.5-1.1,1.5-2.3c0-4.4,0-8.8,0-13.1c0-0.5-0.1-0.6-0.6-0.6c-1,0-1.9,0-2.9,0c-0.6,0-0.7,0.2-0.7,0.7
		C113,122.2,113,124.4,113,126.5z M113.2,117.9c-1.2-1.2-1.4-2.6-1.4-4.1c0-4.5,0-9,0-13.5c0-0.6-0.1-0.8-0.7-0.8
		c-0.7,0.1-1.3,0-2,0c-0.6,0-0.8,0.2-0.8,0.8c0,4.6,0,9.2,0,13.8c0,1.1,0.3,2.1,1.2,2.9C110.5,118,111.8,118,113.2,117.9z"/>
	<path class="st0" d="M109.6,53.9c3.4,0.2,6.1,1.6,8.1,4.3c4.6,6.4,0.9,15-6.6,16.3c-2.3,0.4-4.7,0.2-7.1,0.2c-17.1,0-34.3,0-51.4,0
		c-4.3,0-7.6-1.9-9.5-5.8c-1.9-3.8-1.4-7.5,1-10.9c1.8-2.6,4.5-3.6,7.5-4.1c0.2,0,0.3,0,0.5-0.1c-1.2-4.6,0-8,3.6-10.4
		c0.8-0.5,1.6-0.9,2.5-1.1c0.4-0.1,0.5-0.3,0.4-0.7c-1.4-5,2.4-9.3,7.3-9.3c3.5,0,7,0,10.5,0c3.4,0,5.8-2.4,5.8-5.8
		c0-2.2-0.2-4.3-1.5-6.1c-0.4-0.6,0-1.1,0.5-1.1c2.9,0,5.8-0.5,8.4,1c3.3,1.8,5.1,4.6,5.1,8.4c0,1,0,2,0,3c0,0.6,0.2,0.7,0.7,0.7
		c1.8-0.1,3.5,0.3,5,1.4c2.5,1.7,3.7,4.8,2.9,7.7c-0.1,0.3-0.3,0.6,0.3,0.8C108.9,44.1,111.1,48.2,109.6,53.9z M82.5,20.8
		c0.9,1.9,1.1,3.9,1,5.9c-0.1,4.3-3,7.1-7.3,7.1c-3.5,0-6.9,0-10.4,0c-3.6,0-6.2,2.5-6.2,5.9c0,3.3,2.7,5.7,6.2,5.7
		c2.8,0,5.6,0,8.4,0c0.5,0,1.1,0,1.1,0.7c0,0.7-0.6,0.7-1.1,0.7c-2.8,0-5.7,0-8.5,0c-2.5,0-4.5-0.9-6.1-2.9
		c-0.2-0.2-0.3-0.4-0.7-0.3c-3.6,0.6-6.3,4.1-6,7.8c0.3,3.7,3.6,6.8,7.3,6.8c5,0,10,0,15,0c8.6,0,17.3,0,25.9,0c3.8,0,7-2.8,7.4-6.3
		c0.5-3.8-1.9-7.2-5.6-8.1c-0.5-0.1-0.8,0-1.1,0.4c-1.5,1.9-3.5,2.8-6,2.8c-2.8,0-5.7,0-8.5,0c-0.5,0-1,0-1-0.7
		c0-0.7,0.5-0.7,1.1-0.7c2.9,0,5.8,0,8.6,0c2.9,0,5.4-2,5.9-4.8c0.5-2.9-1.2-5.6-4.1-6.5c-1.1-0.4-2.3-0.4-3.4-0.3
		c-0.9,0-1.2-0.3-1.2-1.2c0.1-1.3,0-2.6,0-3.8c-0.1-2.8-1.3-5.1-3.6-6.7C87.5,20.6,85,20.8,82.5,20.8z M80.7,73.2
		C80.7,73.2,80.7,73.2,80.7,73.2c8.5,0,17.1,0,25.6,0c2.2,0,4.3,0.2,6.4-0.7c4-1.8,6-5.8,5.4-9.5c-0.8-4.8-4.6-7.5-8.5-7.7
		c-0.5,0-0.8,0.1-1.2,0.5c-1.8,2.4-4.2,3.6-7.2,3.6c-13.7,0-27.3,0-41,0c-3,0-5.4-1.2-7.1-3.6c-0.3-0.5-0.7-0.6-1.2-0.5
		c-0.3,0.1-0.6,0.1-1,0.1c-4.4,0.6-7.9,4.6-7.6,9.3c0.4,5.1,4.2,8.4,9.3,8.4C62,73.2,71.3,73.2,80.7,73.2z"/>
	<path class="st0" d="M65.7,9.7c0,1.8-0.6,3.3-1.8,4.6c-0.9,1-1.9,1.8-2.2,3.2c-0.4,1.7-0.2,3.2,0.9,4.6c0.1,0.1,0.1,0.1,0.2,0.2
		c0.4,0.4,0.5,0.8,0,1.2c-0.5,0.4-0.8,0.1-1.1-0.3c-1.9-2-2.2-5.2-0.8-7.6c0.5-0.8,1.1-1.4,1.7-2.1c2.1-2.2,2.2-4.7,0.3-7.1
		c-0.3-0.4-0.6-0.7-0.1-1.1c0.4-0.4,0.8-0.2,1.2,0.2C65,6.4,65.6,8,65.7,9.7z"/>
	<path class="st0" d="M54.3,15.2c-0.1,1.7-0.6,3.2-1.8,4.4c-0.5,0.5-0.9,1-1.4,1.6c-1.5,1.8-1.4,4.4,0.1,6.3
		c0.1,0.1,0.1,0.1,0.2,0.2c0.4,0.4,0.6,0.8,0.1,1.2c-0.5,0.4-0.9,0.1-1.2-0.3c-2.2-2.4-2.2-6.1,0-8.6c0.5-0.6,1-1.1,1.5-1.7
		c1.5-1.9,1.4-4.5-0.2-6.3c-0.4-0.4-0.7-0.8-0.1-1.3c0.5-0.4,0.9,0,1.2,0.3C53.7,12.2,54.3,13.6,54.3,15.2z"/>
	<path class="st0" d="M77.2,5.2c0.1,1.7-0.6,3.2-1.8,4.5c-0.4,0.4-0.7,0.8-1.1,1.2c-1.7,2-1.7,4.6,0,6.6c0.3,0.4,0.7,0.9,0.1,1.3
		c-0.5,0.4-0.9,0.1-1.3-0.4c-2.2-2.7-2-6.3,0.3-8.8C74,9,74.6,8.4,75,7.7c1.2-1.9,1-4.1-0.5-5.9c-0.4-0.4-0.8-0.9-0.2-1.4
		c0.6-0.4,0.9,0,1.3,0.4C76.7,2.1,77.2,3.5,77.2,5.2z"/>
	<path class="st0" d="M141.5,65.1c0.1,0.7-0.2,1-0.6,1c-0.4,0.1-0.7-0.2-0.8-0.6c-0.6-2.4-1.3-4.8-2.2-7.2c-0.2-0.5,0-0.8,0.4-1
		c0.4-0.2,0.8-0.1,0.9,0.4C140.2,60.2,140.9,62.8,141.5,65.1z"/>
	<path class="st0" d="M38.4,24.9c-0.3-0.1-0.6-0.2-0.7-0.5c-0.1-0.4,0.1-0.7,0.4-0.9c1.1-0.7,2.2-1.4,3.4-2c1-0.6,2.1-1.1,3.2-1.7
		c0.4-0.2,0.8-0.2,1.1,0.2c0.2,0.4,0.1,0.8-0.4,1c-2.3,1.1-4.5,2.3-6.6,3.7C38.7,24.8,38.6,24.8,38.4,24.9z"/>
	<path class="st0" d="M15.6,113.1c0.3,0,0.5,0.3,0.7,0.5c1.2,2.2,2.5,4.2,3.9,6.2c0.3,0.4,0.4,0.8-0.1,1.2c-0.5,0.3-0.8,0-1.1-0.4
		c-1.4-2-2.7-4-3.8-6.2C14.7,113.7,14.9,113.1,15.6,113.1z"/>
	<path class="st0" d="M143.4,79.2c0,0.5,0,1,0,1.4c0,0.5-0.2,0.8-0.7,0.9c-0.5,0-0.7-0.3-0.7-0.8c-0.1-2.5-0.1-5-0.5-7.5
		c-0.1-0.5,0.2-0.8,0.6-0.9c0.6-0.1,0.8,0.5,0.8,0.9C143.1,75.3,143.3,77.3,143.4,79.2C143.4,79.2,143.4,79.2,143.4,79.2z"/>
	<path class="st0" d="M12.9,106.8c0,0.3-0.1,0.6-0.5,0.7c-0.4,0.1-0.7,0-0.8-0.3c-0.2-0.4-0.4-0.9-0.6-1.3c-0.8-2-1.4-4-2-6
		c-0.1-0.5-0.1-0.8,0.4-1c0.5-0.2,0.8,0.1,0.9,0.6c0.7,2.4,1.5,4.8,2.4,7.1C12.9,106.6,12.9,106.7,12.9,106.8z"/>
	<path class="st0" d="M54.3,146.5c-0.5-0.2-1-0.4-1.6-0.5c-1.8-0.6-3.6-1.3-5.4-2.1c-0.5-0.2-0.9-0.5-0.6-1.1
		c0.2-0.5,0.7-0.4,1.2-0.2c2.2,1,4.5,1.8,6.8,2.6c0.4,0.1,0.8,0.4,0.7,0.9C55.2,146.5,54.8,146.6,54.3,146.5z"/>
	<path class="st0" d="M116.6,27.2c0,0.3-0.1,0.5-0.4,0.6c-0.3,0.2-0.6,0.1-0.9-0.1c-1.6-1.2-3.3-2.3-5-3.4c-0.4-0.2-0.8-0.5-1.1-0.7
		c-0.5-0.3-0.6-0.7-0.4-1.1c0.3-0.5,0.7-0.4,1.1-0.1c1.7,1,3.3,2.1,4.9,3.3c0.5,0.3,0.9,0.7,1.4,1C116.5,26.8,116.6,27,116.6,27.2z"
		/>
	<path class="st0" d="M32.9,28.6c-0.1,0.4-0.3,0.6-0.5,0.8c-1.8,1.5-3.6,3.1-5.2,4.8c-0.3,0.4-0.7,0.6-1.2,0.2
		c-0.5-0.4-0.3-0.8,0.1-1.2c1.7-1.8,3.6-3.5,5.5-5c0.3-0.2,0.6-0.4,1-0.2C32.8,28.2,32.8,28.4,32.9,28.6z"/>
	<path class="st0" d="M127.1,38.7c-0.3,0-0.6-0.2-0.7-0.5c-1.5-1.8-3.1-3.5-4.8-5.2c-0.4-0.4-0.7-0.8-0.2-1.3
		c0.4-0.4,0.9-0.1,1.2,0.2c1.7,1.7,3.3,3.4,4.9,5.3c0.2,0.3,0.5,0.6,0.3,1C127.5,38.6,127.3,38.6,127.1,38.7z"/>
	<path class="st0" d="M131.7,43.5c0.4-0.1,0.5,0.2,0.7,0.5c1.3,2.1,2.6,4.2,3.7,6.4c0.2,0.4,0.2,0.8-0.2,1.1c-0.5,0.3-0.8,0-1.1-0.4
		c-1.1-2.2-2.4-4.3-3.7-6.4C130.7,44.1,131,43.5,131.7,43.5z"/>
	<path class="st0" d="M103.3,19.3c0,0.6-0.5,0.8-1.2,0.6c-1.9-0.8-3.7-1.5-5.7-2.2c-0.4-0.1-0.8-0.3-1.3-0.4
		c-0.4-0.1-0.7-0.4-0.5-0.9c0.2-0.4,0.5-0.7,1-0.5c2.4,0.8,4.8,1.7,7.1,2.7C103,18.7,103.3,19,103.3,19.3z"/>
	<path class="st0" d="M6.7,76.1c0.2-2.5,0.5-4.9,0.9-7.4C7.7,68.3,8,68,8.5,68C9,68.1,9.1,68.5,9.1,69c-0.4,2.4-0.7,4.8-0.9,7.3
		c0,0.5-0.2,1-0.8,0.9C6.8,77,6.6,76.6,6.7,76.1z"/>
	<path class="st0" d="M143,88.7c-0.3,2.5-0.7,5-1.3,7.5c-0.1,0.5-0.3,0.8-0.8,0.7c-0.5-0.1-0.7-0.5-0.6-1c0.6-2.4,1-4.7,1.2-7.2
		c0-0.5,0.2-0.9,0.8-0.8C142.9,88,143,88.3,143,88.7z"/>
	<path class="st0" d="M92.9,147.3c-0.4,0-0.7-0.1-0.8-0.6c-0.1-0.4,0.1-0.7,0.6-0.8c1.8-0.6,3.6-1.1,5.3-1.7
		c0.6-0.2,1.2-0.5,1.9-0.7c0.4-0.1,0.8-0.1,0.9,0.4c0.1,0.4,0,0.7-0.4,0.9c-2.4,1-4.8,1.8-7.3,2.5C93,147.3,92.9,147.3,92.9,147.3z"
		/>
	<path class="st0" d="M8.8,92c0,0.2-0.2,0.5-0.6,0.6c-0.5,0.1-0.7-0.2-0.8-0.6c-0.2-1-0.3-2-0.4-3c-0.1-1.5-0.2-3.1-0.3-4.6
		c0-0.5,0.1-0.8,0.7-0.9c0.5,0,0.7,0.3,0.8,0.7C8.1,86.7,8.4,89.3,8.8,92z"/>
	<path class="st0" d="M78.5,149.6c-0.3,0-0.6,0-1,0c-0.5,0-0.8-0.2-0.8-0.6c0-0.5,0.3-0.7,0.8-0.8c1.6-0.1,3.1-0.2,4.7-0.4
		c0.8-0.1,1.6-0.2,2.5-0.3c0.6-0.1,1.1-0.1,1.2,0.6c0.1,0.7-0.5,0.8-1,0.9C82.8,149.3,80.7,149.5,78.5,149.6
		C78.5,149.7,78.5,149.7,78.5,149.6z"/>
	<path class="st0" d="M16.9,46.8c-0.5,0-0.8-0.6-0.5-1.1c1.3-2.3,2.8-4.4,4.4-6.5c0.3-0.4,0.7-0.4,1-0.1c0.4,0.3,0.3,0.7,0,1.1
		c-1.3,1.8-2.6,3.7-4,5.5C17.6,46.2,17.5,46.8,16.9,46.8z"/>
	<path class="st0" d="M69,149.4c-2.3-0.2-4.6-0.5-6.9-0.9c-0.6-0.1-0.8-0.3-0.7-0.9c0.1-0.6,0.5-0.6,0.9-0.5
		c1.4,0.2,2.9,0.4,4.3,0.6c0.9,0.1,1.8,0.2,2.8,0.3c0.6,0,1.1,0.1,1,0.8c-0.1,0.7-0.6,0.6-1.1,0.6C69.2,149.4,69.1,149.4,69,149.4z"
		/>
	<path class="st0" d="M139.5,103.8c0,0-0.1,0.2-0.1,0.3c-0.6,1.8-1.4,3.6-2.2,5.4c-0.2,0.5-0.5,0.9-1.1,0.6
		c-0.6-0.2-0.5-0.7-0.3-1.2c0.8-1.7,1.5-3.5,2.1-5.3c0.1-0.4,0.4-0.8,0.9-0.7C139.3,103,139.6,103.3,139.5,103.8z"/>
	<path class="st0" d="M35.5,135.6c0.1,0,0.3,0.1,0.4,0.2c1.5,1,3.1,2.1,4.6,3c0.5,0.3,0.7,0.6,0.4,1.1c-0.3,0.5-0.7,0.4-1.1,0.2
		c-1.6-0.9-3.2-2-4.7-3.1c-0.3-0.2-0.6-0.5-0.4-0.9C34.8,135.8,35.1,135.6,35.5,135.6z"/>
	<path class="st0" d="M108.1,131.1c-0.1,2.3-1.7,4.6-4.8,4.5c-2.2-0.1-4.2-1.8-4.3-4.5c0-2.5,2.1-4.6,4.6-4.5
		C106.1,126.5,108.1,128.6,108.1,131.1z M106.5,131c0-1.6-1.3-3-2.9-3c-1.6-0.1-3,1.2-3.1,2.9c-0.1,1.7,1.2,3.1,2.9,3.2
		C105.1,134.1,106.5,132.8,106.5,131z"/>
	<path class="st0" d="M92.2,121.1c0-1.9,1.4-3.2,3.2-3.2c1.8,0,3.2,1.4,3.2,3.3c0,1.9-1.5,3.2-3.4,3.2
		C93.6,124.3,92.2,122.9,92.2,121.1z M97.2,121.1c0-0.9-0.8-1.7-1.8-1.7c-0.9,0-1.7,0.8-1.7,1.7c0,0.9,0.8,1.8,1.7,1.8
		C96.3,122.9,97.2,122,97.2,121.1z"/>
</g>
<g>
	<g>
		<path class="st0" d="M345.9-210.5c-5.4-0.7-10.9-0.4-16.4-0.4c-8.7,0-16.7,2.6-23.7,7.8c-5.4,4.1-10.8,8.2-16.3,12.2
			c-0.9,0.7-2.2,1.1-3.4,1.1c-12.1,0.1-24.2,0.1-36.3,0c-1.2,0-2.6-0.5-3.6-1.3c-5.4-3.9-10.8-8-16.1-12c-4.7-3.6-9.9-6.3-15.8-7
			c-6.8-0.7-13.7-0.8-20.6-0.8c-12.8,0-23.4,9.4-24.3,22.2c-0.6,9-0.3,18.2-0.3,27.2c0,3.8-0.1,7.6,0.2,11.4c0.5,5.8,5,9.5,10.8,9.4
			c0.8,0,1.7,0,2.6,0c0,1.1,0.1,2,0,2.8c-1.5,15-3,30-4.5,45c-0.4,3.9-0.8,7.7-1.1,11.6c-0.4,5.5,3.9,10.4,9.6,11.1
			c5.6,0.7,11-3,11.9-8.5c1.4-8.5,2.5-17.1,3.7-25.7c0.6-4.2,1.2-8.4,1.8-12.6c0.7,0.7,0.9,1.3,1,2c1.7,12,3.3,23.9,5.1,35.9
			c0.9,6,6.4,9.8,12.4,8.9c5.8-0.9,9.7-6.1,9.1-12c-0.2-2-0.4-4-0.6-6.1c-2.3-26.2-6.5-52.2-5.7-78.6c0.1-4.2,0-8.4,0-13.2
			c3.8,2.5,6.8,4.7,10.1,6.6c3,1.7,5.3,4.6,9.3,4.6c14-0.1,28,0,42-0.1c2.8,0,5.7-0.1,8.2-1c2.7-1.1,5-3.3,7.5-4.9
			c2.5-1.6,5-3.2,8-5.1c0,4.6,0,8.4,0,12.3c-0.1,8.6,0.4,17.2-0.3,25.7c-1.7,20-4,40-5.8,60c-0.2,2.5,0.8,5.5,2.2,7.6
			c2.6,4,6.9,5.2,11.4,3.9c4.4-1.2,7.1-4.2,7.8-8.7c1.4-9.7,2.8-19.4,4.1-29.1c0.4-2.9,0.9-5.8,1.3-8.6c0.7,0.7,0.9,1.3,1,2
			c1.7,12,3.3,23.9,5.1,35.9c0.9,5.9,6.3,9.7,12.1,8.9c5.8-0.8,9.9-5.9,9.4-11.8c-1.3-12.7-2.6-25.4-3.8-38.2
			c-0.7-6.7-1.3-13.5-2-20.4c0.7-0.1,0.9-0.2,1.2-0.2c8.6,0.2,12.5-3.6,12.5-12.2c0-11.1,0.1-22.2,0.1-33.4
			C366.8-198.5,358.1-208.9,345.9-210.5z M254.2-175.8c-5.1,0.3-10,0.8-14.5-2.9c-4.7-3.7-9.9-6.8-15-10c-1.1-0.7-3-1.1-4-0.5
			c-1,0.5-1.8,2.4-1.8,3.7c-0.1,13.8-0.5,27.7,0.1,41.5c0.5,12,2.2,23.9,3.4,35.8c0.9,8.8,1.8,17.6,2.6,26.3c0.3,2.7-1,4.5-3.3,4.9
			c-2.5,0.4-4.3-0.9-4.7-3.8c-1.7-11.9-3.4-23.7-5.1-35.6c-1.3-9-2.5-18-3.8-27c-0.3-2.2-1.1-4.1-3.7-4c-2.5,0-3.1,1.9-3.4,4
			c-2.9,20.3-5.7,40.7-8.6,61c-0.2,1.6-0.7,3.5-1.8,4.5c-0.9,0.8-3.3,1.1-4.3,0.4c-1.1-0.7-2.2-2.7-2.1-4c0.7-8.9,1.4-17.8,2.6-26.6
			c3.4-25.8,3.9-51.7,3.5-77.6c0-2.3-0.9-3.8-3.3-4c-2.1-0.2-3.5,1.5-3.5,4c0,10.9,0,21.7,0,32.6c0,0.9,0.1,1.8-0.1,2.6
			c-0.3,1.9-1.6,3-3.5,3c-1.9,0.1-3.2-1-3.6-2.9c-0.1-0.5-0.2-1.1-0.2-1.6c0-11.7-0.1-23.5,0.1-35.2c0.2-8,5.4-15,13.1-16.2
			c9.9-1.6,20.1-2.2,29.7,1.7c2.6,1,5,2.6,7.3,4.2c5.4,3.9,10.7,7.8,15.9,11.9c2.4,1.9,4.7,2.9,7.7,2.6c1.4-0.2,2.8,0,4.2,0
			C254.2-180.4,254.2-178.2,254.2-175.8z M359.9-151.5c0,2.5-1.4,4.1-3.5,4.1c-2.1,0-3.5-1.5-3.7-4c0-0.7,0-1.4,0-2.1
			c0-10.1,0-20.1,0-30.2c0-0.5,0-1.1,0-1.6c0-2.8-1.3-4.4-3.4-4.4c-2.1,0-3.4,1.6-3.4,4.4c0,7.1,0,14.1,0,23.9
			c-1.1,17.8,2.3,38.1,4.1,58.4c0.6,6.9,1.3,13.7,2,20.5c0.3,3.3-0.9,5.2-3.5,5.5c-2.6,0.3-4.2-1.2-4.7-4.5
			c-1.5-10.4-2.9-20.8-4.4-31.2c-1.4-10.2-2.9-20.4-4.3-30.7c-0.3-2.1-1-4.1-3.6-4c-2.6,0.1-3.2,2.1-3.5,4.2
			c-2.9,20.3-5.7,40.7-8.6,61c-0.1,0.5-0.2,1-0.3,1.6c-0.6,2.7-2.2,4-4.6,3.6c-2.3-0.3-3.6-2.2-3.4-4.8c1-10.6,2-21.3,3.2-31.9
			c2.1-18.9,3.6-37.7,2.9-56.8c-0.2-5,0.1-10.1-0.1-15.1c0-1.3-0.8-3.1-1.7-3.7c-1-0.5-3-0.2-4,0.5c-5.6,3.5-11.1,7.1-16.5,10.9
			c-2.4,1.7-4.8,2.3-7.6,2.2c-7.4-0.1-14.8-0.1-22.2-0.1c-2.7,0-4.2-1.5-4.2-3.8c0.1-2.1,1.6-3.4,4.1-3.6c0.5,0,1.1,0,1.6,0
			c6.9,0,13.8,0.1,20.6-0.1c1.9-0.1,4-0.8,5.5-1.8c5.7-4,11.2-8.3,16.8-12.5c6.1-4.6,12.9-6.9,20.4-6.8c4.1,0,8.3-0.1,12.4,0
			c9.6,0.2,17.3,7.7,17.4,17.2C360-175.2,359.9-163.3,359.9-151.5z"/>
		<path class="st0" d="M323.4-220c7.7,3.2,15.1,2.2,21.6-3.1c6.2-5,8.2-11.9,7.6-19.1c0-2,0.1-3.6,0-5.2
			c-0.5-10.6-8.9-19.1-19.7-19.9c-10.5-0.8-20.2,6.6-21.9,17c-0.7,4.1-0.7,8.5-0.4,12.6C311.3-229.3,315.7-223.2,323.4-220z
			 M317.3-246.5c0.3-8.1,6.3-14,14.2-14c7.9,0,13.9,5.9,14.3,13.9c0.1,1.2,0,2.5,0,4.3c0.2,3.3,0,7.2-2.3,10.6
			c-3.4,5.3-9.7,7.7-15.6,6.1c-6.2-1.7-10.4-7-10.6-13.6C317.2-241.6,317.2-244,317.3-246.5z"/>
		<path class="st0" d="M196.1-220.1c7.6,3.3,14.9,2.4,21.4-2.7c6.5-5,8.6-12,8.1-19.3c0-2.1,0-3.5,0-4.9
			c-0.3-10.9-8.7-19.6-19.8-20.4c-10.5-0.8-20.3,6.7-21.9,17.3c-0.6,4.1-0.6,8.3-0.3,12.4C184.2-229.5,188.5-223.4,196.1-220.1z
			 M190.4-247.8c0.7-7.8,6.9-13,14.8-12.8c7.3,0.2,13.1,6,13.5,13.6c0.1,1.3,0,2.6,0,4c0.1,0,0.2,0,0.2,0c-0.2,2.4-0.2,5-0.8,7.3
			c-1.7,6.7-7.7,10.8-14.9,10.4c-6.3-0.3-11.9-5.3-12.7-11.8C190.1-240.5,190.1-244.2,190.4-247.8z"/>
	</g>
	<g>
		<g>
			<path class="st0" d="M261-232.5c0.1-0.3,0.1-0.7,0.2-1c0.3-0.7,1.1-1,1.8-0.7c0.3,0.1,0.6,0.3,0.8,0.4c0.7-1.5,1.5-2.9,2.3-4.4
				c-0.3-0.1-0.7-0.3-1.1-0.5c-1-0.5-1.3-1.3-0.8-2.3c3.1-6.1,6.3-12.3,9.4-18.4c0.7-1.5,2.1-2.1,3.5-1.9c0.1,0,0.2-0.1,0.3-0.1
				c0.2-0.2,0.3-0.5,0.4-0.7c0.4-0.6,1-1,1.8-0.9c0.3,0,0.4-0.1,0.5-0.3c1.1-2.2,2.3-4.5,3.4-6.7c0.1-0.1,0.1-0.2,0.2-0.3
				c0.2-0.2,0.4-0.3,0.7-0.2c0.2,0.1,0.3,0.4,0.3,0.6c0,0.1-0.1,0.2-0.2,0.4c-1.1,2.2-2.3,4.5-3.4,6.7c-0.1,0.2-0.1,0.4,0,0.6
				c0.4,0.6,0.6,1.2,0.3,1.9c-0.1,0.3-0.3,0.6-0.4,0.9c0.3,0.5,0.7,0.9,0.9,1.4c0.4,0.9,0.3,1.7-0.1,2.6c-0.5,1-1,2-1.5,3
				c-0.2,0.4-0.5,0.5-0.8,0.3c-0.3-0.2-0.4-0.5-0.2-0.9c0.3-0.6,0.6-1.1,0.8-1.6c-2-1-4-2-6-3.1c-0.2,0.4-0.4,0.8-0.6,1.2
				c0.3,0.2,0.7,0.3,1.1,0.5c0.4,0.2,0.5,0.5,0.3,0.8c-0.1,0.3-0.4,0.4-0.8,0.2c-0.4-0.2-0.7-0.4-1.1-0.6c-0.4,0.7-0.7,1.4-1.1,2.1
				c0.4,0.2,0.8,0.3,1.2,0.5c0.4,0.2,0.4,0.8,0,1c-0.2,0.1-0.4,0-0.6,0c-0.4-0.2-0.7-0.4-1.1-0.6c-0.4,0.7-0.7,1.4-1.1,2.1
				c0.4,0.2,0.7,0.3,1.1,0.5c0.4,0.2,0.4,0.6,0.2,0.9c-0.2,0.2-0.4,0.2-0.7,0c-0.4-0.2-0.7-0.4-1.1-0.6c-0.4,0.7-0.7,1.4-1.1,2.1
				c0.3,0.1,0.6,0.3,1,0.5c0.4,0.2,0.5,0.5,0.4,0.8c-0.2,0.3-0.5,0.4-0.9,0.2c-0.3-0.2-0.7-0.3-1-0.5c0,0,0,0,0,0
				c-0.3,0.7-0.7,1.3-1,2.1c0.3,0.1,0.7,0.3,1,0.5c0.4,0.2,0.5,0.5,0.3,0.8c-0.1,0.3-0.4,0.4-0.8,0.2c-0.4-0.2-0.7-0.4-1.1-0.6
				c-0.3,0.5-0.5,1-0.8,1.5c2,1,4,2,6,3.1c0-0.1,0.1-0.2,0.2-0.4c2-3.9,3.9-7.8,5.9-11.6c0.1-0.1,0.1-0.3,0.2-0.4
				c0.2-0.2,0.4-0.3,0.7-0.1c0.2,0.1,0.3,0.3,0.3,0.6c0,0.1-0.1,0.2-0.1,0.3c-2.3,4.6-4.6,9.1-7,13.7c-0.5,1-1.3,1.2-2.2,0.7
				c-0.4-0.2-0.7-0.4-1.2-0.7c-0.1,0.3-0.2,0.5-0.3,0.7c-0.2,0.3-0.5,0.4-0.7,0.3c-0.3-0.1-0.4-0.4-0.2-0.8c0-0.1,0.1-0.2,0.1-0.3
				c0-0.1,0.1-0.2,0.1-0.3c-0.3-0.1-0.5-0.2-0.7-0.3c-0.7,1.4-1.4,2.8-2.2,4.3c0.2,0.1,0.5,0.1,0.8,0.3c0.1-0.3,0.3-0.7,0.6-1.1
				c0.1-0.2,0.2-0.4,0.3-0.6c0.2-0.4,0.5-0.6,0.8-0.4c0.3,0.2,0.4,0.5,0.2,0.9c-0.3,0.6-0.6,1.2-1,1.9c0.3,0.2,0.6,0.3,0.8,0.5
				c0.7,0.4,0.9,1.3,0.6,2c-0.4,0.7-1.2,1.1-2,0.7c-1.5-0.7-2.9-1.5-4.3-2.2c-0.2-0.1-0.4-0.3-0.6-0.5
				C261.1-232.1,261.1-232.3,261-232.5z M280.7-255.8c0.7-1.2,0.4-2.4-0.9-3c-0.8-0.4-1.5-0.8-2.3-1.2c-1.2-0.6-2.4-0.1-2.8,1.1
				C276.7-257.8,278.7-256.8,280.7-255.8z M271.7-237.8c-2.1-1.1-4.1-2.1-6.2-3.1c-0.1,0.1-0.1,0.3-0.2,0.5
				c-0.2,0.4-0.2,0.6,0.3,0.8c0.9,0.4,1.8,0.9,2.6,1.3c0.8,0.4,1.6,0.8,2.4,1.2c0.4,0.2,0.5,0.1,0.7-0.2
				C271.4-237.5,271.6-237.7,271.7-237.8z M262.4-233.1c-0.1,0.2-0.2,0.3-0.2,0.4c0,0.2,0.1,0.4,0.3,0.4c1.3,0.7,2.7,1.4,4,2.1
				c0.3,0.1,0.5,0.1,0.6-0.2c0.2-0.3,0-0.5-0.2-0.6c-1.3-0.7-2.7-1.4-4.1-2.1C262.7-233.1,262.5-233.1,262.4-233.1z M280.1-260
				c0.1-0.3,0.3-0.5,0.4-0.8c0.1-0.4,0-0.9-0.4-1.1c-0.4-0.2-0.9-0.1-1.2,0.3c-0.2,0.3-0.3,0.5-0.4,0.8
				C279-260.5,279.5-260.3,280.1-260z"/>
			<path class="st0" d="M288-259.7c-1.3,0.4-2.4,0.1-3.3-0.7c-0.9-0.9-1.2-1.9-0.9-3.1c0.4-1.2,0.8-2.5,1.2-3.7
				c0.1-0.4,0.5-0.6,0.9-0.3c1.1,0.8,2.1,1.5,3.2,2.3c1,0.8,1.3,1.8,1.1,3C289.9-261,289.2-260.1,288-259.7z M285.8-266.3
				c-0.3,1.1-0.7,2.1-1,3.2c-0.2,1,0.4,2,1.4,2.3c1,0.3,2-0.1,2.6-0.9c0.5-0.9,0.4-2-0.4-2.7C287.6-265,286.7-265.6,285.8-266.3z"/>
		</g>
		<path class="st0" d="M265.3-279.1c-15.9,5.2-24.5,22.2-19.4,38c3.1,9.5,10.5,16.4,19.3,19.3l-4.3,31.5l8.8-30.4
			c4.6,0.8,9.5,0.5,14.3-1.1c15.9-5.2,24.5-22.2,19.4-38S281.2-284.2,265.3-279.1z M283-223.1c-14.8,4.8-30.6-3.3-35.4-18
			c-4.8-14.8,3.3-30.6,18-35.4c14.8-4.8,30.6,3.3,35.4,18C305.8-243.7,297.8-227.9,283-223.1z"/>
	</g>
</g>
<g>
	<path class="st0" d="M-302.5,106.2c-8.2,0-16.3,0.1-24.5-0.1c-2.7-0.1-4.9,0.5-6.2,3c-5.1,10.1-13.4,13.6-24.3,11.9
		c-0.8-0.1-1.7-0.1-2.5,0c-13,2.1-23.8-1.3-31.4-12.6c-1.3-2-3.3-2.2-5.7-2.3c-6.6-0.3-12.2,0.9-18,4.8c-17.5,11.8-41.1,7-53.9-9.9
		c-12.8-17-10.3-40.7,5.8-55c15.8-13.9,39.6-13.4,54.9,1.3c4.3,4.1,13,5.5,17.5,1.6c9.3-8.1,19.9-10.4,31.9-9.3
		c7.9,0.7,16,0.2,24,0.1c5.7-0.1,9.4,2.4,11.8,7.4c5.5,11.2,11.2,22.2,16.6,33.4c1.3,2.6,2.7,3.6,5.7,3.5c6.8-0.2,13.7-0.1,20.5-0.1
		c9.1,0,14,4,14,11.2c0,7.2-4.9,10.9-14.2,10.9C-287.9,106.3-295.2,106.2-302.5,106.2z M-340.9,106.2c-6.4,0-12-0.1-17.7,0.1
		c-2.8,0.1-4.1-0.3-4.1-3.7c0-3.3,1.2-3.7,4-3.7c14.7,0.1,29.3,0.1,44,0c1.4,0,3.8,1.1,3.9-1.5c0.2-3.2,2.4-2.1,3.9-2.2
		c1.5-0.1,3.6-0.6,3.4,2.2c-0.1,1.4,0.9,1.6,2,1.6c8,0,16,0,24-0.1c2.3,0,3.7-1.6,3.6-3.9c-0.1-2.1-1.6-3.2-3.7-3.4
		c-1.3-0.1-2.7-0.1-4-0.1c-14.3,0-28.7,0-43,0c-2.7,0-5,0.5-5-3.9c0-4.6,2.8-3.5,5.2-3.6c3.5-0.1,7.1,0,10.7,0
		c-1.2-5.9-4.1-8.2-9.6-7.4c-3.3,0.5-6.7-0.1-10,0.1c-3.1,0.2-3.6-1.1-3.5-3.8c0.1-2.4,0-4.2,3.3-3.9c4,0.3,8.1,0.1,12.2,0.1
		c-1-5.9-3.7-8-9-7.4c-3.4,0.4-7-0.1-10.5,0.1c-3.1,0.2-3.4-1.3-3.5-3.8c0-2.7,0.6-3.9,3.6-3.7c3.9,0.2,7.9,0.1,12,0.1
		c-2.1-7-2.6-7.4-9-7.4c-10.2,0-20.3,0.2-30.5-0.1c-4.5-0.1-8.2,1-12,3.7c-5.3,3.8-10.1,8.7-17.7,7.6c-3.3-0.5-1.6,1.9-1.1,3.2
		c4,10.4,4,20.8-0.2,31.1c-0.8,2-2.7,3.7-2.4,6.2c11.3,0.5,11.3,0.5,19.4,8.6c1.3,1.3,2.7,2.5,3.9,3.9c1.6,2,3.6,2.6,6.1,2.6
		c6.7-0.2,13.4-0.5,20,0.1C-346.2,114.4-343.3,111.5-340.9,106.2z M-469.7,76.7c0,18.5,14.8,33.4,33.3,33.3c18.2,0,33-14.7,33.1-33
		c0.1-18.5-14.5-33.5-33-33.6C-454.6,43.3-469.6,58.2-469.7,76.7z"/>
	<path class="st0" d="M-306,190.4c-1.9-2.7-3.9-5.5-5.9-8.3c-3.5-4.7-3.4-10,0.3-14.2c3.5-3.9,8.8-4.8,13.6-1.9
		c7.7,4.6,15.3,9.3,22.9,14.2c4.1,2.7,5.5,7.5,7.2,11.7c2.3,5.6,5.6,8.1,11.6,7c1.6-0.3,3.3,0.1,5-0.1c2.9-0.3,3.6,0.9,3.6,3.7
		c0,2.8-0.7,4.1-3.6,3.6c-0.3-0.1-0.7-0.1-1,0c-12.3,2.5-20.3-2-23.9-14.2c-1.2-4-4.2-6.5-7.8-8.6c-5.3-3-10.5-6.5-15.7-9.7
		c-2-1.2-4.1-3-6.2-0.7c-2.2,2.2-0.4,4.1,1,6.1c3.1,4.3,6.1,8.7,9.1,13.1c1.2,1.8,2.1,3.9,0.1,5.4c-2.6,1.9-0.9,2.9,0.4,4.1
		c0.7,0.7,1.4,1.6,2.3,1.9c12.6,4.3,9.2,16.1,11.5,25.1c0.8,2.9-3,4.8-5.5,2.6c-11.3-9.6-26-15.2-33.9-28.8
		c-1.6-2.7-3.7-3.7-6.9-3.6c-9.8,0.3-19.7,0.1-29.5,0.1c-2.6,0-4.7,0.4-5.1,3.4c-0.4,2.4-0.2,4,3.1,3.9c11.2-0.2,22.3,0,33.5-0.1
		c2.7,0,4.2,0.1,4.3,3.6c0,3.6-1.4,4.1-4.4,4c-12.7-0.1-25.3-0.1-38-0.1c-2.7,0-5.8-0.2-5.7,3.7c0.1,3.8,3.1,3.6,5.9,3.6
		c12.5,0,25,0,37.5,0c2.4,0,4.8-0.8,4.8,3.5c0,4.4-2.3,3.9-5,3.9c-10.5,0-21-0.1-31.5,0c-1.8,0-4.6-1.4-4.5,2.6
		c0.1,3.3,1.6,4.9,4.8,4.9c4.8,0,9.7,0,14.5,0c6.2,0,12.3,0.1,18.5-0.1c3-0.1,3,1.5,3,3.7c0,2.3-0.1,3.8-3.1,3.7
		c-5.3-0.2-10.7,0.1-16-0.1c-3.7-0.1-3.5,1.6-2.1,3.9c1.6,2.7,4.2,3.7,7.2,3.7c17,0,34,0,51,0c4.1,0,6.9-2.9,9.2-5.4
		c7.5-7.9,16.9-5.5,25.8-5.7c3-0.1,1.7,2.6,1.9,4.2c0.2,1.7,0.1,3.6-2.4,3.2c-11.1-1.9-20,2.1-27.9,9.6c-1.6,1.6-4,1.5-6.2,1.5
		c-17.2,0-34.3,0-51.5,0c-8,0-13.3-3.9-15.3-11.7c-0.7-2.6-1.6-3.3-4.2-3.3c-11,0-13.6-2.4-14.6-12.9c-0.2-2-1.3-2.7-2.6-3.8
		c-6.6-5-6.7-13.1,0.1-18.1c1.8-1.4,2.5-2.6,2.6-4.8c0.3-8.1,4.3-12,12.6-12.1c15.8-0.1,31.6,0,47.5,0
		C-308.6,191.3-307.4,191.7-306,190.4z M-313.6,199.2c4.8,10.2,15.2,13.2,23,19.5c-1.4-2.3,0.6-5.8-2.7-7.1c-5.1-2-8.6-6.1-12.2-10
		C-307.7,199.2-310.1,198.3-313.6,199.2z"/>
	<path class="st0" d="M-295.5,138.4c-0.3,5.2-2.2,8.7-6.2,10.9c-4.2,2.3-8.4,1.9-12.2-1c-3.6-2.7-5.6-6.6-4.3-11
		c2.2-7.1,4.9-14.1,7.7-21c1.2-3,5-3.6,6.2-1C-300.6,123-297.7,130.9-295.5,138.4z M-307,128.2c-1.4,3.7-2.5,6.6-3.5,9.5
		c-0.6,1.9-0.5,3.7,1.3,4.8c1.5,1,3.2,1,4.6-0.2c1.7-1.3,1.7-3.2,1-5C-304.5,134.5-305.6,131.8-307,128.2z"/>
	<path class="st0" d="M-457,93.2c0.4-3.7,6.2-3.9,3.9-8.7c-1.4-2.8-2.4-4.9-6-4.1c-3.1,0.6-3.4-1.2-3.4-3.7c-0.1-2.7,0.6-4,3.5-3.6
		c2.3,0.3,4.2,0.3,5.4-2.7c1.3-3.2,1.1-5.2-1.6-7.1c-3-2.1-0.8-3.4,0.7-5c1.5-1.7,2.8-2.5,4.6-0.2c1.5,1.9,2.8,3.7,6.1,2.1
		c2.9-1.4,4.1-2.8,3.6-5.9c-0.6-3.2,1.4-3.3,3.8-3.4c2.6-0.1,4.3,0.4,3.7,3.5c-0.6,3.2,1,4.4,3.7,5.8c3.1,1.6,4.3-0.1,5.7-1.9
		c1.8-2.2,3-2.1,5,0c2,2,2.9,3.5,0.1,5.4c-2.4,1.7-2.5,3.5-1.4,6.3c1.1,2.8,2.6,3.5,5.1,3.1c2.9-0.4,4,0.5,4,3.7
		c0,3.3-1.2,4.2-4.1,3.6c-3.2-0.6-4,1.4-5.2,3.7c-1.6,2.9-0.2,4.3,1.7,5.8c2,1.6,2.5,3,0.2,5c-1.9,1.7-3.3,3.3-5.4,0.4
		c-1.4-1.9-2.8-3.1-5.8-1.8c-3,1.3-4.2,2.8-3.7,5.9c0.5,3.1-1.3,3.4-3.8,3.5c-2.6,0-4.3-0.5-3.7-3.5c0.5-3.1-0.9-4.5-3.7-5.8
		c-3.1-1.5-4.2,0.2-5.8,1.9C-454.5,100.3-454.3,92.6-457,93.2z M-436,65.8c-6.2-0.2-11.3,4.5-11.4,10.6c-0.2,6.1,4.5,11.3,10.6,11.5
		c6,0.3,11.2-4.7,11.4-10.7C-425.2,71-429.9,66-436,65.8z"/>
	<path class="st0" d="M-432.7,76.9c-0.5,2.2-1.7,3.6-4.1,3.5c-2.2-0.1-3.4-1.6-3.4-3.5c0-2.2,1.3-3.8,3.7-3.7
		C-434,73.1-433,74.7-432.7,76.9z"/>
</g>
<g>
	<path class="st0" d="M12.7,182.3c2.5,0.7,5,1.4,7.1,3.1c3.8,3,5.9,6.8,6,11.6c0.1,6.2,2.3,11.5,6.9,15.7
		c5.9,5.5,10.3,11.9,12.2,19.8c0.8,3.5,1.3,7.1,1.4,10.7c0.2,10.3,0.1,20.7,0,31c0,0.9,0.3,1.6,0.9,2.2c8.7,8.7,17.4,17.4,26.2,26.1
		c1,1,1.8,2.1,1.8,3.6c0.1,2.1-0.8,3.8-2.6,4.8c-1.8,1-4,0.8-5.6-0.5c-0.4-0.3-0.7-0.6-1-1c-6.2-6.2-12.3-12.3-18.5-18.5
		c-0.3-0.3-0.6-0.7-1.1-0.9c0,3.7,0,7.3,0,11.2c1.1,0,2.2,0,3.3,0c3.1,0,5.3,2.1,5.4,5c0,2.9-2.3,5.1-5.4,5.1c-26,0-51.9,0-77.9,0
		c-3.1,0-5.5-2.2-5.4-5.1c0-2.9,2.3-5,5.4-5c1.1,0,2.2,0,3.4,0c0-0.6,0-1.2,0-1.7c0-18.5,0-37,0-55.5c0-7,1.2-13.6,4.5-19.8
		c0.4-0.7,0-1.1-0.4-1.5c-9.7-9.7-19.3-19.3-29-29c-0.7-0.7-1.4-1.4-2.1-2.1c-2.3-2.3-2.5-5.4-0.4-7.5c2.1-2.1,5.2-2,7.5,0.3
		c9.9,9.9,19.8,19.8,29.7,29.7c0.4,0.4,0.6,0.8,0.9,1.2c5-4.3,9-8.9,9.6-15.5c0.2-1.9,0.1-3.8,0.6-5.6c1.5-6.3,5.6-10.1,12-11.6
		c0.2-0.1,0.5-0.2,0.7-0.2C10,182.3,11.3,182.3,12.7,182.3z M36.1,301.1c0-0.5,0-0.9,0-1.3c0-6.3,0-12.7,0-19c0-0.9-0.3-1.5-0.9-2.1
		C21.3,264.8,7.4,250.9-6.5,237c-2-2-3.9-4-5.9-6c-0.3,0.6-0.5,1-0.6,1.5c-1.2,3.4-1.8,6.8-1.8,10.4c0,19,0,38,0,57
		c0,0.4,0,0.8,0,1.3C2.2,301.1,19.1,301.1,36.1,301.1z M36,265.1c0-0.3,0-0.5,0-0.7c0-7.4,0.2-14.9-0.1-22.3
		c-0.1-3.1-0.8-6.2-1.6-9.1c-1.6-5.4-5.1-9.6-9.2-13.5c-6.2-6-9.4-13.3-9.5-21.9c-0.1-3-2.2-5.2-5.1-5.2c-2.8,0-4.9,2.2-5,5.2
		c-0.1,1.6-0.2,3.1-0.4,4.6c-1,6.6-4.1,12.1-8.8,16.8c-1.1,1.1-2.3,2.1-3.4,3.1C7.5,236.6,21.7,250.8,36,265.1z"/>
</g>
<g>
	<path class="st0" d="M280.9,251.4c1,0.4,2,0.9,3,1.2c11.2,3.8,18.1,15.1,16.2,26.3c-2.1,11.9-11.9,20.3-23.7,20.3
		c-11.9,0-21.9-8.7-23.7-20.7c-1.7-11.2,5.2-22.2,16.3-26c1-0.3,2-0.8,3-1.2C274.9,251.4,277.9,251.4,280.9,251.4z M288.4,275.2
		c-0.1-6.5-5.6-11.8-12.1-11.7c-6.5,0.1-11.8,5.5-11.8,12c0,6.7,5.6,12.1,12.3,11.9C283.2,287.2,288.4,281.7,288.4,275.2z"/>
	<path class="st0" d="M300.1,400.6c-1.2-0.5-2.4-1-3.5-1.5c-10.1-4.6-15.9-15.4-13.9-26c2.2-11.5,11.5-19.7,23-19.8
		c20.3-0.1,40.7-0.2,61,0c11.5,0.1,20.8,8.3,23,19.8c2,10.6-3.7,21.6-14,25.9c-2.8,1.2-3.8,2.4-3.2,5.4c0.8,4.1,1.1,8.3,2,12.4
		c4-12.7,10.1-24.1,19.4-33.4c22.3-22.1,49.1-29.4,79-20.1c29.9,9.3,48.1,30.5,53.4,61.5c8.4,49.1-31.8,93.3-81.5,89.7
		c-8.4-0.6-16.8-3.3-24.9-5.9c-4.1-1.3-7.3-1.5-11.2,0.7c0.6,1.3,1.1,2.6,1.8,3.8c10.4,18.7,20.8,37.5,31.2,56.2
		c3.1,5.5,3.2,6.4-0.7,11.3c-10.7,13.8-21.4,27.6-32.5,41.9c22,0,43.5,0,65.2,0c0,4.2,0,8,0,12c-83.6,0-167.1,0-250.9,0
		c0-3.7,0-7.5,0-11.6c13.4,0,26.9,0,41.1,0c-1.1-1.5-1.7-2.5-2.4-3.5c-9.9-12.8-19.9-25.6-29.8-38.4c-4.2-5.4-4.2-6.2-0.7-11.9
		c21.8-36.4,41.6-73.8,56.2-113.7c6.2-17,11.2-34.3,12.8-52.5C300.1,402.1,300.1,401.4,300.1,400.6z M313,401.3
		c-2.2,11-3.8,21.7-6.4,32.2c-8.4,32.8-22.5,63.3-38,93.2c-8.4,16.1-17.5,31.9-26.4,48c0.1,0.1,0.3,0.6,0.6,0.9
		c11.7,15.1,23.4,30.2,35.2,45.1c0.9,1.2,3.1,1.9,4.7,1.9c35.7,0.1,71.4,0,107,0.1c2.7,0,4.3-0.9,5.9-3
		c10.9-14.1,21.8-28.2,32.8-42.2c1.8-2.3,2-3.8,0.5-6.4c-10-17.7-19.8-35.5-29.3-53.4c-1.9-3.6-3.3-5.1-7.5-3.4
		c-1.7,0.7-4.9-0.3-6.2-1.6c-1.2-1.2-1.4-4.1-1.1-6.1c0.4-2.5,1.6-5,2.8-7.3c1.2-2.5,0.9-4.5-0.1-7.1c-6.4-16.2-13.3-32.3-18.5-48.9
		c-4.3-13.6-6.6-27.8-9.8-42.1C344.3,401.3,328.5,401.3,313,401.3z M400.9,498.4c0.5,0.1,0.8,0.3,1,0.2c3.3-1.1,6.7-2,9.9-3.2
		c3.1-1.2,5.9-0.8,8.9,0.6c23.2,10.9,46,9.8,67-4.7c21.1-14.5,30.5-35.3,28.3-61c-2.3-26.5-21.2-49.2-46.8-56.8
		c-25.9-7.6-53.9,1.2-70.6,22.2c-20.4,25.7-19.1,61.7,3.2,86c2.8,3.1,3.5,6.1,1.8,9.8C402.6,493.8,401.8,496.1,400.9,498.4z
		 M336.5,365.2c-9.9,0-19.7,0-29.6,0c-7.3,0-12.6,5.2-12.6,12c0,6.8,5.4,11.9,12.7,11.9c19.5,0,38.9,0,58.4,0
		c7.3,0,12.7-5.1,12.7-11.8c0.1-6.9-5.3-12.1-12.9-12.1C355.7,365.2,346.1,365.2,336.5,365.2z"/>
	<path class="st0" d="M378.3,305.3c-10,0-18.1-8.1-18.1-18c0-9.8,8.1-17.8,17.8-17.9c9.9-0.1,18.1,8,18.1,18
		C396.2,297.2,388.1,305.3,378.3,305.3z M378.2,293.3c3.2,0,5.9-2.7,6-5.9c0.1-3.4-2.8-6.2-6.1-6.1c-3.2,0.1-5.8,2.8-5.8,6.1
		C372.3,290.7,375,293.3,378.2,293.3z"/>
	<path class="st0" d="M318.5,347.2c-10,0-18.1-8-18.1-18c0-9.8,8-17.8,17.8-17.9c9.9-0.1,18.1,8,18.1,18
		C336.3,339,328.2,347.2,318.5,347.2z M324.3,329.2c-0.1-3.2-2.8-5.9-6-5.9c-3.4,0-6.1,2.9-5.9,6.3c0.2,3.2,3,5.8,6.2,5.7
		C321.7,335.1,324.3,332.4,324.3,329.2z"/>
	<path class="st0" d="M258.5,347.2c-4.3,0-7.9,0-11.9,0c0-3.9,0-7.6,0-11.8c-4.2,0-8,0-11.9,0c0-4.1,0-7.8,0-11.9
		c3.8,0,7.5,0,11.7,0c0-4.2,0-8,0-11.9c4.1,0,7.8,0,11.9,0c0,3.8,0,7.5,0,11.7c4.2,0,8,0,11.9,0c0,4.1,0,7.8,0,11.9
		c-3.8,0-7.5,0-11.7,0C258.5,339.3,258.5,343.1,258.5,347.2z"/>
	<path class="st0" d="M402.1,347.2c-4.1,0-7.7,0-11.8,0c0-3.9,0-7.6,0-11.8c-4.2,0-8,0-11.9,0c0-4.1,0-7.8,0-11.9
		c3.8,0,7.6,0,11.7,0c0-4.2,0-8,0-11.9c4.1,0,7.8,0,11.9,0c0,3.8,0,7.6,0,11.7c4.2,0,8,0,11.9,0c0,4.1,0,7.8,0,11.9
		c-3.8,0-7.6,0-11.9,0C402.1,339.4,402.1,343.3,402.1,347.2z"/>
	<path class="st0" d="M246.5,425.2c0-4.3,0-7.9,0-11.9c3.8,0,7.6,0,11.8,0c0-4.2,0-8,0-11.9c4.1,0,7.8,0,11.9,0c0,3.7,0,7.5,0,11.7
		c4.2,0,8,0,11.9,0c0,4.1,0,7.8,0,11.9c-3.7,0-7.5,0-11.7,0c0,4.2,0,8,0,11.9c-4.1,0-7.8,0-11.9,0c0-3.7,0-7.5,0-11.7
		C254.4,425.2,250.6,425.2,246.5,425.2z"/>
	<path class="st0" d="M198.9,622.7c3.2,0,6,0,8.9,0c0.7,0,1.5,0,2.5,0c0,3.9,0,7.7,0,11.7c-3.7,0-7.5,0-11.4,0
		C198.9,630.5,198.9,626.7,198.9,622.7z"/>
	<path class="st0" d="M336,610.7c-15.2,0-30.4-0.1-45.7,0.1c-3.5,0-5.9-1.2-8-3.9c-7-8.9-14.1-17.8-21.2-26.6
		c-3.6-4.5-3.7-6-0.4-10.6c14.8-20.3,25.9-42.5,33.3-66.5c1.7-5.4,2.9-6.2,8.7-6.2c22.5,0,44.9,0,67.4,0c5.5,0,6.8,0.9,8.4,6
		c7.5,24.1,18.6,46.4,33.5,66.9c3.1,4.2,3,6-0.1,10c-7.2,9.1-14.6,18.1-21.7,27.2c-2.1,2.7-4.6,3.8-8,3.7
		C366.7,610.7,351.4,610.7,336,610.7z M367.7,508.9c-20.5,0-40.7,0-60.9,0.1c-1,0-2.5,1.4-2.8,2.5c-7.3,21.7-17.4,42.1-30.6,60.9
		c-1.1,1.5-1.3,2.6,0,4.2c5.5,6.7,10.9,13.6,16.5,20.3c0.8,1,2.5,1.7,3.7,1.7c28.4,0.1,56.9,0.1,85.3,0c1.1,0,2.6-0.4,3.2-1.2
		c6.2-7.5,12.2-15.1,18.4-22.8C386.2,554.4,375.3,532.5,367.7,508.9z"/>
	<path class="st0" d="M450.1,491c-5.6,0-11.2,0-16.8,0c-4.9,0-7.5-2.3-7-7.1c0.8-7.5-1.6-12.3-7.8-17.3
		c-16.4-13.2-20.7-36.6-11.8-55.7c8.7-18.8,29.5-30.3,49.2-27.3c22.2,3.3,38.6,19.1,41.5,40.5c2.7,19.7-4.6,35.4-20.8,46.8
		c-1.8,1.3-2.7,2.5-2.5,4.8c0.2,2.9,0.1,5.7,0,8.6c-0.1,4.4-2.3,6.6-6.7,6.7C461.5,491,455.8,491,450.1,491z M485,437.9
		c-4,7.3-9.9,11.7-18.4,11c-8.6-0.7-13.7-6-16.6-14.7c-2.7,8.9-8,14-16.4,14.7c-8.5,0.7-14.4-3.6-18.5-10.9
		c2.2,10.9,8,19.1,17.6,24.3c4.1,2.2,5.9,4.9,5.5,9.5c-0.2,2.3,0,4.6,0,6.9c2.3,0,4.1,0,6.1,0c0-4,0-7.7,0-11.4c4.1,0,7.8,0,12,0
		c0,4,0,7.8,0,11.5c2.1,0,3.8,0,5.8,0c0-1.8,0.2-3.4,0-5c-0.7-5.7,1.2-9.3,6.6-12.2C477.8,456.6,483.1,448.3,485,437.9z
		 M414.9,425.2c4.3-8.4,10.2-12.7,18.8-11.9c8.5,0.7,13.7,6.1,16.5,14.7c2.7-8.7,7.8-13.8,16.1-14.7c8.7-0.9,14.7,3.5,18.7,11.3
		c-0.9-14.7-16.6-28.7-32.7-29.4C434,394.3,417.8,406.9,414.9,425.2z M438,431.1c0-3.2-2.7-5.9-5.9-6c-3.4-0.1-6.2,2.8-6,6.2
		c0.1,3.2,2.9,5.8,6.1,5.8C435.4,437,438.1,434.3,438,431.1z M474,431.2c0.1-3.2-2.5-6-5.7-6.1c-3.4-0.1-6.2,2.7-6.2,6
		c0,3.2,2.7,5.9,5.9,5.9C471.2,437.1,473.9,434.4,474,431.2z"/>
	<path class="st0" d="M336.3,539.1c-0.1,9.7-8.3,17.8-18,17.7c-10-0.1-18-8.3-17.9-18.2c0.1-9.8,8.2-17.7,18-17.7
		C328.3,521,336.3,529.1,336.3,539.1z M318.4,544.8c3.2,0,5.9-2.7,5.9-5.9c0-3.4-2.8-6.1-6.2-6c-3.2,0.1-5.8,2.9-5.7,6.1
		C312.4,542.2,315.1,544.9,318.4,544.8z"/>
	<path class="st0" d="M378.2,568.7c0.1,9.7-8,17.9-17.7,18c-10,0.1-18.2-8-18.2-17.9c0-9.8,7.9-17.9,17.7-18
		C369.9,550.7,378.1,558.8,378.2,568.7z M366.2,568.7c-0.1-3.2-2.8-5.9-6-5.9c-3.4,0-6.1,2.9-5.9,6.3c0.2,3.2,3,5.8,6.2,5.7
		C363.6,574.7,366.3,571.9,366.2,568.7z"/>
	<path class="st0" d="M348.4,532.6c0-3.9,0-7.6,0-11.5c3.9,0,7.7,0,11.6,0c0,3.8,0,7.5,0,11.5C356.3,532.6,352.5,532.6,348.4,532.6z
		"/>
	<path class="st0" d="M306.1,574.6c-3.9,0-7.6,0-11.5,0c0-3.8,0-7.6,0-11.6c3.8,0,7.5,0,11.5,0C306.1,566.8,306.1,570.5,306.1,574.6
		z"/>
	<path class="st0" d="M336.1,581c0,3.8,0,7.5,0,11.5c-3.8,0-7.5,0-11.6,0c0-3.7,0-7.5,0-11.5C328.3,581,332,581,336.1,581z"/>
</g>
</svg>
