<?xml version="1.0" encoding="utf-8"?>
<!-- Generator: Adobe Illustrator 24.3.0, SVG Export Plug-In . SVG Version: 6.00 Build 0)  -->
<svg version="1.1" id="Layer_1" xmlns="http://www.w3.org/2000/svg" xmlns:xlink="http://www.w3.org/1999/xlink" x="0px" y="0px"
	 viewBox="0 0 150 150" style="enable-background:new 0 0 150 150;" xml:space="preserve">
<style type="text/css">
	.st0{fill:#005BAB;}
	.st1{fill:#5F6368;}
</style>
<g>
	<path class="st0" d="M172.8-135.1C172.9-135.1,172.9-135.1,172.8-135.1c0.2-0.1,0.2,0,0.2,0c0,0,0,0,0,0c0.3,0.4,0.4,0.6,0.6,0.9
		c1.8,2.4,5.5,2.3,7-0.1c0.5-0.5,0.7-1.1,0.8-1.8c0.2-0.8,0.1-1.5-0.1-2.3c0-0.5-0.1-1-0.3-1.5c0-0.4,0-0.7-0.2-1
		c0-0.4-0.1-0.8-0.2-1.2c-0.4-1.8-0.8-3.7-1.2-5.5c-0.7-3.1-3.4-4.7-6.4-4.2c-2.7,0.5-5.4,1.2-8.1,1.7c-0.2,0-0.4,0.1-0.6,0
		c-0.6-0.5-1.4-0.9-2.2-1.2c0.1-0.1,0.2-0.2,0.3-0.3c4.6-4.2,3.9-11.6-1.4-14.9c-1.8-1.1-3.7-1.6-5.8-1.3c-0.2,0-0.3,0-0.5,0
		c-0.1,0-0.2,0-0.4,0.1c-0.1,0-0.2,0-0.2,0.1c-0.8,0.1-1.6,0.4-2.3,0.8c-3,1.6-4.7,4-5,7.4c-0.6,3.7,1.9,8.1,5.6,9.6
		c1.1,0.5,2.3,0.7,3.5,0.8c0,0.2-0.1,0.3-0.1,0.4c-1.4,1.7-2,3.7-2,5.9c0,0.3-0.1,0.5-0.2,0.8c-0.3,0.8-0.7,1.6-1,2.5
		c-0.5,1.3-0.5,1.3-1.9,0.8c-1.4-0.6-2.8-1.2-4.3-1.7c-0.1-0.1-0.2-0.2-0.4-0.2c-0.2-0.1-0.4-0.2-0.7-0.2c-0.3-0.2-0.7-0.2-1.1-0.2
		c-2.8,0-4.9,2.4-4.4,5c0,0.5,0.2,1,0.5,1.5c0.5,1,1.3,1.6,2.3,2c2.3,0.9,4.7,1.9,7,2.8c0.8,0.3,1.6,0.7,2.5,0.9
		c0.3,0.2,0.7,0.3,1.1,0.3c0.8,0.3,1.7,0.1,2.5-0.2c0.4-0.1,0.5,0,0.5,0.3c0.1,1,0.3,1.9,0.4,2.9c0,0.6,0.1,1.2,0.1,1.9
		c0,7.8,0,15.6,0,23.3c0,0.4,0,0.8,0,1.3c0.3,3.8,4.2,5.9,7.6,4.2c0.3-0.2,0.5-0.2,0.8,0c3.6,1.8,7.7-0.6,7.7-4.7
		c0-7.7,0-15.5,0-23.2c0-0.9,0-1.7,0.7-2.4c0.1-0.1,0.1-0.2,0.1-0.3c0-0.1-0.1-0.2-0.1-0.2c0,0-0.1,0-0.1,0c0,0,0.1,0,0.1,0
		c0,0.1,0.1,0.2,0.1,0.2c0.1-0.1,0.1-0.2,0.2-0.4c0,0,0,0,0-0.1c0.4-0.6,0.5-1.3,0.4-2c-0.2-1.9-0.5-3.7-0.9-5.5
		c-0.1-0.5-0.3-1-0.4-1.7c0,0,0,0,0,0C172.9-135,172.9-135,172.8-135.1z M151.1-152.6c-2.5-2.2-3.2-4.9-2.3-8.1
		c0-0.1,0.1-0.3,0.1-0.4c0.8-1.9,2.2-3.4,4.1-4.3c0.1-0.1,0.2-0.3,0.3-0.4c-0.1,0.1-0.2,0.2-0.3,0.4c1.7-0.6,3.4-0.8,5.2-0.3
		c3.1,0.9,5.5,4,5.5,7.1c0,3.2-1.5,5.7-4.4,7.1C156.3-150.1,153.5-150.5,151.1-152.6z M155.4-130.4c-0.6,0.2-1.2,0.3-1.8,0.3
		c-1.1-0.2-2.1-0.8-3.1-1.1c-2.3-1-4.6-1.9-7-2.9c-0.7-0.3-1.3-0.7-1.7-1.3c-0.1-0.2-0.2-0.4-0.2-0.6c-0.4-0.2-0.6-0.4-0.8-0.5
		c0.2,0.1,0.4,0.2,0.8,0.5c-0.3-1.9,0.5-3,2.2-3.4c0.5-0.1,1.1,0,1.6,0.2c2.4,0.9,4.7,1.9,7.1,2.9c0.4,0.2,0.6,0.1,0.7-0.3
		c0.3-0.9,0.7-1.7,1.1-2.8c0.5,2.2,0.8,4.3,1.2,6.3c0.1,0.6,0.2,1.3,0.3,1.9C155.9-130.7,155.8-130.5,155.4-130.4z M172.6-135.8
		c-0.7-2.1-1.5-4-2.4-5.9c-0.1-0.2-0.1-0.3,0.2-0.4c0,0,0.1,0,0.1,0c1.1-0.2,0.9-0.4,1.1,0.7c0.4,1.6,0.7,3.2,1.1,4.8
		C172.7-136.4,172.7-136.2,172.6-135.8z M172.4-144.3c-1.9,0.4-3.9,0.8-5.7,1.3c-0.3,0-0.6,0.1-0.8,0.1c-1.2,0.3-1.2,0.3-0.8,1.5
		c0,0.1,0,0.2,0,0.2c0,0.1,0,0.2,0.2,0.2c0.9-0.2,1.8-0.3,2.7-0.6c0.3-0.1,0.5,0,0.6,0.3c2.2,4.2,3.6,8.7,4.1,13.5
		c0.1,1.2-0.6,1.9-1.2,2.7c0,0,0,0-0.1,0c-0.3,0.1-0.2,0.3-0.1,0.5c0,0,0,0.1,0,0.1c0,0,0,0.1,0,0.1c0,1.5,0,2.9,0,4.4
		c0,2.8,0,5.6,0,8.4c-0.1,0.3,0,0.7,0,1c-0.1,0.1-0.1,0.2,0,0.4c0,0.2,0,0.3,0,0.5v0c0,0,0,0.1,0,0.1l0,0c0,2.6,0,5.3,0,7.9
		c0,0.8,0,1.6,0,2.5c0,0,0.1,0.1,0.1,0.1c0,0-0.1-0.1-0.1-0.1c0,0.1,0,0.2,0,0.3v0c-0.5,1.9-1.7,3-3.3,3c-0.3,0-0.5,0-0.8-0.1
		c-1.2-0.2-1.3-0.4-1.3-1.6c0-7.9,0-15.7,0-23.6c0-0.2,0.2-0.4-0.2-0.5c-0.3,0-0.6,0-1,0c-0.3,0-0.7-0.2-0.6,0.4c0,2.9,0,5.7,0,8.6
		c0,2.7,0,5.4,0,8.1c0,2.5,0,5,0,7.6c0,0.5-0.2,0.7-0.6,0.9c-2.2,1-4.8-0.5-4.9-2.9c0-0.3,0-0.6,0-0.9c0-7.9,0-15.7,0-23.6
		c0.1-1.8-0.3-3.6-0.5-5.3c-0.6-4.4-1.4-8.7-2.3-13c-0.6-2.9,1.1-5.9,3.6-7.2c1.3-0.6,2.6-0.5,3.7,0.4c0.1,0.1,0.3,0.1,0.3,0.3
		c0,0.6,0.4,0.6,0.9,0.5c3-0.7,6.1-1.3,9.1-2c2-0.4,3.9,0.8,4.4,2.8c0.4,1.7,0.8,3.5,1.1,5.2c0.1,0.4,0.1,0.8,0.3,1.2
		c0,0.3,0.1,0.7,0.2,1c0,0.3,0.1,0.7,0.2,1c-0.1,0.5,0.2,0.9,0.2,1.3c0.1,0.6,0.1,1.1-0.1,1.7c-0.2,0.3-0.3,0.6-0.5,0.8
		c-0.3,0.4-0.9,0.6-1.3,0.9c0,0.1,0.1,0.1,0.1,0.1c0,0-0.1-0.1-0.1-0.1c-2.1,0.1-3.1-0.7-3.5-2.8c-0.5-2.4-1-4.7-1.5-7.1
		C172.7-144.2,172.7-144.4,172.4-144.3z"/>
	<path class="st0" d="M173-135.1C173-135,173-135,173-135.1C173-135,173-135,173-135.1C173-135,173-135,173-135.1z"/>
	<path class="st0" d="M192.7-121.1c-0.2-0.9-0.9-1.5-1.8-1.8c-1.3-0.4-2.3,0.1-3.3,1c-0.9,0.9-1.8,1.8-2.6,2.7
		c-0.3,0.3-0.4,0.3-0.7,0c-0.7-0.9-1.5-1.7-2.2-2.6c0-0.1-0.1-0.1-0.1-0.2c0,0-0.1-0.1-0.1-0.1c0-0.1-0.1-0.2-0.2-0.3
		c0-0.1-0.1-0.2-0.2-0.2c-0.3-0.6-0.8-1.1-1.2-1.6c-0.4-0.5-0.9-0.6-1.5-0.3c-0.5,0.2-0.8,0.8-0.7,1.4c0.3,1.4,0.7,2.8,1.1,4.2
		c0.6,2.5,1.2,5.1,1.9,7.6c0.4,1.4,1.8,2.1,3.3,1.8c1.1-0.2,1.7-1.1,2.3-1.8c0.7-0.7,1.4-1.4,2.1-2.1c0.2-0.2,0.3-0.1,0.4,0
		c0.4,0.4,0.8,0.9,1.1,1.3c1,1.3,2.1,2.5,3.1,3.8c0.4,0.5,1,0.6,1.5,0.3c0.5-0.3,0.8-0.8,0.6-1.4
		C194.7-113.5,193.7-117.3,192.7-121.1z M180.2-121.9C180.2-121.9,180.2-121.9,180.2-121.9C180.2-121.9,180.2-121.9,180.2-121.9
		C180.2-121.9,180.2-121.9,180.2-121.9z M180.5-123.2C180.5-123.2,180.5-123.2,180.5-123.2C180.5-123.2,180.5-123.2,180.5-123.2
		C180.5-123.2,180.5-123.2,180.5-123.2z M191.6-113.5c-0.7-0.9-1.4-1.7-2.1-2.6c-0.2-0.3-0.3-0.2-0.5,0c-0.9,1-1.9,1.9-2.8,2.9
		c-0.3,0.2-0.5,0.4-0.7,0.7l0,0c0,0,0,0,0,0c-0.2,0.1-0.3,0.2-0.4,0.4c0,0,0,0,0,0v0c-0.2,0.1-0.3,0.2-0.4,0.5c0,0,0,0,0,0
		c-1.1,0.6-1.6,0.4-2-0.8c-0.5-1.9-1-3.7-1.4-5.6c0-0.2-0.1-0.4-0.2-0.6c-0.1-0.7-0.3-1.4-0.5-2.1c0,0,0,0,0,0c0,0,0-0.1,0-0.1
		c0-0.2-0.1-0.4,0.2-0.2c0.1,0.1,0.2,0.2,0.4,0.4c0-0.1,0.1-0.2,0.2-0.3c-0.1,0.1-0.1,0.2-0.2,0.3c1.1,1.3,2.2,2.6,3.3,3.9
		c0.3,0.3,0.4,0.3,0.7,0c1.4-1.4,2.8-2.8,4.2-4.2c0.9-0.8,1.7-0.6,2,0.5c0.8,2.9,1.5,5.8,2.2,8.7c0,0.1,0,0.1,0,0.3
		C192.7-112.2,192.1-112.9,191.6-113.5z"/>
	<path class="st0" d="M192.4-140c-0.9-0.4-1.7-0.3-2.5,0.3c-1.1,0.8-1.4,1.9-1.2,3.2c0.2,1.2,0.3,2.5,0.5,3.7
		c0.1,0.4-0.1,0.5-0.5,0.5c-1.1,0-2.2,0.1-3.4,0.2c-0.1,0-0.1,0-0.2,0c0,0-0.1,0-0.1,0c-0.1-0.1-0.2,0-0.4,0c-0.1,0-0.2,0-0.3,0.1
		c-0.7-0.1-1.4,0-2,0c-0.6,0-1,0.4-1.2,1c-0.1,0.6,0.1,1.1,0.7,1.4c1.3,0.6,2.7,1.1,4,1.7c2.4,1,4.8,2.1,7.2,3
		c1.4,0.5,2.8-0.2,3.4-1.5c0.4-1,0.1-2,0-3c-0.1-1-0.2-2-0.4-2.9c0-0.3,0.1-0.3,0.3-0.3c0.6,0,1.2-0.1,1.7-0.1
		c1.6-0.1,3.3-0.1,4.9-0.2c0.6,0,1.1-0.5,1.2-1c0.1-0.6-0.1-1.1-0.8-1.3C199.7-137,196-138.5,192.4-140z M184.2-130.5
		C184.2-130.5,184.2-130.5,184.2-130.5C184.2-130.5,184.2-130.5,184.2-130.5C184.2-130.5,184.2-130.5,184.2-130.5z M183.3-131.5
		C183.3-131.5,183.3-131.5,183.3-131.5C183.3-131.5,183.3-131.5,183.3-131.5C183.3-131.5,183.3-131.5,183.3-131.5z M197.7-134.5
		c-1.1,0-2.2,0.1-3.4,0.1c-0.3,0-0.3,0.2-0.3,0.4c0.2,1.3,0.4,2.7,0.6,4c0,0.3,0.1,0.6,0.1,0.9l0,0c0,0,0,0,0,0c0,0.2,0,0.4,0.1,0.5
		c0,0,0,0,0,0l0,0c0,0.2,0,0.4,0.1,0.6c0,0,0,0,0,0c-0.2,1.2-0.7,1.5-1.8,1c-1.8-0.7-3.5-1.5-5.3-2.2c-0.2-0.1-0.4-0.1-0.6-0.2
		c-0.6-0.4-1.3-0.6-2-0.9c0,0,0,0,0,0c0,0-0.1,0-0.1,0c-0.1-0.1-0.3-0.1-0.1-0.3c0.2-0.1,0.3-0.1,0.5-0.1c-0.1-0.1-0.1-0.2-0.1-0.3
		c0,0.1,0.1,0.2,0.1,0.3c1.7-0.1,3.4-0.2,5.1-0.2c0.4,0,0.5-0.2,0.4-0.5c-0.3-2-0.5-3.9-0.8-5.9c-0.2-1.2,0.5-1.7,1.6-1.3
		c2.8,1.1,5.5,2.3,8.2,3.5c0.1,0,0.1,0.1,0.2,0.2C199.5-134.6,198.6-134.5,197.7-134.5z"/>
</g>
<g>
	<path class="st0" d="M499.9,82.2c-0.8-0.5-1.3-1.2-1.3-2.2c0.2-13.6,2.5-26.7,7.7-39.4c2.4-5.8,6.7-9.3,12.1-11.6
		c6.4-2.7,12.9-5.1,19.4-7.6c0.9-0.3,1.2-0.7,1.3-1.7c0.3-3.2-0.3-5.8-3.1-8.1c-3.3-2.8-4.3-7-5.2-11.1c-0.1-0.5-0.2-1-0.4-1.5
		c-5.6-0.3-9.5-2.8-10.6-8.3c-1.1-5.3,1.2-9.2,5.9-11.7c-2.4-5.8-0.7-11.1,2-16.2c7.8-15,24.5-16.1,34.1-11.2
		c2.8,1.4,5.5,2.9,8.7,3.4c2.8,0.5,5,2.3,6.7,4.6c3.6,4.9,5.1,10.4,4.3,16.4c-0.1,0.9-0.4,1.8-0.7,2.8c5.2,3.3,7.2,6.9,6.4,11.6
		c-0.9,4.9-4,7.4-10.8,8.6c-0.4,1.7-0.9,3.5-1.4,5.4c1.9,1.1,3.8,2.3,5.7,3.5c0.8,0.5,1.4,1.2,1,2.1c-0.2,0.6-0.9,1.2-1.5,1.5
		c-0.4,0.2-1.1-0.1-1.6-0.3c-1.7-1-3.4-2-4.9-2.9c-1.9,2-3.8,3.9-5.6,5.9c-0.2,0.3-0.3,0.8-0.4,1.2c0,1.5,0,2.9,0,4.4
		c-0.1,0.9,0.3,1.2,1.1,1.5c6.3,2.4,12.6,4.8,18.9,7.3c1.3,0.5,2.5,1.4,3.8,2c5.6,2.7,8.2,7.6,10.3,13.1c3.2,8.7,5.2,17.6,6,26.8
		c0.3,3,0.3,6,0.5,8.9c0.1,1.2-0.3,2.1-1.3,2.7C571.3,82.2,535.6,82.2,499.9,82.2z M543,17c0,2.1,0,3.9,0,5.8
		c0.1,5.1,4.2,9.5,9.1,10c5.4,0.5,10.3-2.7,11.4-7.9c0.5-2.5,0.3-5.1,0.5-8c-0.8,0.4-1.3,0.6-1.8,0.8c-0.5,0.2-1,0.4-1.6,0.6
		c-1,0.4-1.9,0.3-2.5-0.7c-0.8-1.1-0.2-2.3,1.2-3c2.2-1.1,4.3-2.2,6.3-3.5c2-1.4,3.6-3.3,4.6-5.3c-1.3-1.3-2.4-2.5-3.5-3.7
		c-1-1.1-1-2.2-0.1-3c0.9-0.8,2-0.7,3,0.4c0.7,0.7,1.3,1.4,2.1,2.3c1.7-6.6,2.5-12.8,3.1-19.1c-3.7-0.9-5-1.4-7.3-3.3
		c-2-1.7-3.8-3.6-5.5-5.5c-0.8-0.9-1.3-1-2.2-0.2c-1.1,0.9-2.2,1.6-3.4,2.3c-7.4,4.5-15,8.3-24.1,7.1c0,0.2-0.1,0.3,0,0.5
		c1,5.9,1.8,11.8,2.9,17.7c0.8,4.4,3.1,8.1,7,10.5c1.7,1.1,3.5,2,5.4,2.8c1.4,0.7,2,1.6,1.5,2.8c-0.5,1.1-1.6,1.4-3,0.8
		C545.1,17.9,544.1,17.5,543,17z M551.9-47c-8.6,0-14.1,2.5-18.5,8.3c-2.9,3.7-4.8,7.8-4.8,12.6c0,3.1,1.1,4.4,4.1,5.1
		c4.2,1,8.2,0,12.2-1.5c4.8-1.8,9.1-4.5,13.3-7.5c2.2-1.6,4.6-1.3,6.4,0.8c0.6,0.6,1.1,1.2,1.6,1.9c2,2.1,4,4.2,6.7,5.4
		c2.7,1.2,4.3,0.5,4.8-2.4c0.7-4.1-0.3-7.9-2.1-11.5c-2.1-4-5.3-6.1-9.8-6c-0.6,0-1.3-0.2-1.8-0.6C560.3-45.7,555.9-46.9,551.9-47z
		 M601.3,78.3c0-0.1,0.1-0.2,0.1-0.3c-0.4-0.3-0.7-0.6-1.1-1c-7.4-7.3-14.7-14.7-22.1-22c-3.7-3.6-6.1-7.9-7.2-13
		c-0.4-2-1.1-4-1.8-5.9c-0.2-0.4-0.9-1-1.3-0.9c-0.4,0.1-1,0.7-1.1,1.2c-0.2,1-0.1,2,0,3c0.1,1.1,0.5,2.2-0.6,3
		c-1.1,0.8-2,0.2-3-0.4c-0.3-0.2-0.5-0.3-0.8-0.5c-3.7-2.1-7.4-4-11.6-4.8c-2.4-0.4-3.7,0.3-4.5,2.6c-1.2,3.3-1,6.7,0.6,9.8
		c0.6,1.1,1.7,2.3,2.9,2.8c3.1,1.4,14.9,5.7,16.8,8.1c4.5,5.8,9.2,11.6,13.7,17.5c0.5,0.6,1,0.9,1.8,0.9c6,0,12,0,18.1,0
		C600.6,78.3,601,78.3,601.3,78.3z M603.1,64.7c0-0.3,0.1-0.5,0-0.7c-1.3-8-3.3-15.7-6.7-23.1c-1.3-2.7-3.1-4.7-5.7-6.2
		c-4.9-2.9-10.2-5-15.5-7c-2.5-0.9-5-1.7-7.6-2.6c-1,4.8-3.7,8.1-8,10.5c1.2,0.6,2.1,1,3.1,1.5c0.1-0.5,0.2-0.9,0.3-1.3
		c0.6-2.7,2.1-4.2,4.5-4.5c2.3-0.3,4.2,0.7,5.3,3.3c0.8,2,1.5,4.1,1.9,6.2c0.9,4.2,2.6,8,5.7,11c4.1,4.1,8.3,8.3,12.4,12.4
		c0.3,0.3,0.7,0.6,1.1,0.6C597,64.7,600,64.7,603.1,64.7z M539.2,25.1c-1.2,0.4-2.5,0.8-3.7,1.2c-6.2,2.2-12.3,4.5-18,7.6
		c-3.4,1.8-5.9,4.4-7.4,8c-2.1,5-3.7,10.1-4.9,15.4c-0.5,2.4-0.9,4.7-1.4,7.3c3.3,0,6.4,0,9.4,0c0.4,0,0.8-0.4,1-0.7
		c4.1-4,8.1-8.1,12.2-12.1c2.9-2.9,4.6-6.3,5.7-10.2c0.6-2.3,1.5-4.5,2.6-6.6c1.4-2.8,3.2-5.1,6.8-4.6
		C540.6,28.7,539.9,26.9,539.2,25.1z M547.6,55.4c-2.4-1.6-3.9-3.6-4.8-6.2c-1.1-3-1.2-6.1-0.7-9.3c0.2-1.3,0.1-2.9-0.3-4.2
		c-0.5-1.7-1.9-1.8-2.9-0.4c-1.5,2.1-2.6,4.4-3.2,6.9c-1.1,5.1-3.6,9.4-7.3,13c-7.4,7.3-14.7,14.7-22.1,22c-0.3,0.3-0.5,0.6-0.9,1
		c0.3,0,0.4,0.1,0.5,0.1c6.3,0,12.6,0,19,0c0.5,0,1.1-0.4,1.4-0.8c3.9-5,7.8-10,11.7-14.9C540.6,59.3,543.1,56,547.6,55.4z
		 M576,78.3c-0.1-0.2-0.1-0.3-0.2-0.4c-4.3-5.4-8.6-10.9-12.9-16.2c-0.7-0.9-1.8-1.5-2.9-1.9c-2-0.7-4-1.3-6.1-1.8
		c-0.3-0.1-0.7-0.1-1,0c-1.8,0.5-3.7,1.1-5.5,1.6c-1.5,0.4-2.8,1.2-3.9,2.5c-2.8,3.4-5.5,6.9-8.3,10.3c-1.5,1.9-3,3.9-4.6,6
		C546,78.3,561,78.3,576,78.3z M529.7-5.2c-0.5-4.1-1.1-8.2-1.6-12.3c-3.1,0.7-5,3.8-4.5,7.2C524-7.3,526.9-4.9,529.7-5.2z
		 M577.3-5.2c3,0.2,5.8-2.3,6.1-5.4c0.4-3.3-1.6-6.3-4.5-6.8C578.3-13.4,577.8-9.3,577.3-5.2z M502.6,75.1c2.2-2.3,4.3-4.4,6.4-6.5
		c-1.7,0-3.5,0-5.3,0c-0.2,0-0.6,0.5-0.6,0.8C502.9,71.3,502.8,73.1,502.6,75.1z M598.2,68.7c2,2,4,4.1,6.1,6.1
		c-0.2-2-0.3-4-0.5-6.1C601.7,68.7,599.8,68.7,598.2,68.7z"/>
	<path class="st0" d="M606,17.6c0,5.2-5,8.8-10,7.3c-0.6-0.2-1.4-0.2-2.1,0c-4.2,1.1-8.4-1-10-4.9c-1.5-4,0.3-8.4,4.1-10.3
		c0.5-0.3,1-0.8,1.4-1.3c1.8-2.9,5-4.3,8.4-3.6c3.2,0.7,5.6,3.4,6,6.7c0.1,0.5,0.3,1.1,0.6,1.5C605.5,14.3,606.1,15.8,606,17.6z
		 M602.3,17.5c-0.4-0.8-0.6-1.8-1.2-2.3c-0.9-0.9-1.2-1.8-1.2-3c0-1.8-1.3-3.2-3.1-3.6c-1.7-0.4-3.5,0.5-4.1,2.1
		c-0.5,1.2-1.2,1.9-2.5,2.3c-2.4,0.7-3.4,3.3-2.5,5.6c0.9,2.3,3.5,3.3,5.7,2.2c1.2-0.6,2.2-0.6,3.4,0.1
		C599.2,22.2,602.1,20.4,602.3,17.5z"/>
	<path class="st0" d="M580.8,18.7c0,1.7-1.2,2.8-2.4,2.2c-1.9-1-3.8-2.2-5.5-3.5c-0.8-0.6-0.7-1.7,0-2.6c0.7-0.8,1.6-0.8,2.6-0.2
		c1.5,1,3,1.9,4.4,2.9C580.3,17.8,580.6,18.4,580.8,18.7z"/>
	<path class="st0" d="M553.6,6.2c-1.8,0-3.6,0-5.4,0c-2,0-2.9-1-2.3-2.9c0.5-1.6,1-3.2,2-4.6c2.8-3.8,8.4-3.9,11.5-0.3
		c1.3,1.5,2,3.3,2.3,5.3c0.2,1.4-0.6,2.3-2,2.4C557.6,6.2,555.6,6.2,553.6,6.2C553.6,6.2,553.6,6.2,553.6,6.2z M557.1,2.2
		c-0.8-1.6-1.9-2.4-3.5-2.4c-1.5,0-2.6,0.8-3.2,2.4C552.6,2.2,554.8,2.2,557.1,2.2z"/>
	<path class="st0" d="M543.1-9.5c-0.6,0-1.2,0-1.8,0c-1.1-0.1-1.8-0.7-1.8-1.8c-0.1-1.1,0.5-1.9,1.6-2c1.4-0.1,2.8-0.1,4.3,0
		c1,0.1,1.6,0.9,1.5,1.9c0,1.1-0.7,1.8-1.8,1.8C544.4-9.5,543.7-9.5,543.1-9.5C543.1-9.5,543.1-9.5,543.1-9.5z"/>
	<path class="st0" d="M563.3-9.5c-0.6,0-1.2,0-1.8,0c-1-0.1-1.7-0.7-1.8-1.7c-0.1-1.1,0.5-1.9,1.5-2c1.4-0.2,2.8-0.2,4.3,0
		c1.1,0.1,1.7,0.9,1.6,2c-0.1,1.1-0.7,1.7-1.8,1.8C564.5-9.5,563.9-9.5,563.3-9.5C563.3-9.5,563.3-9.5,563.3-9.5z"/>
</g>
<path class="st1" d="M2053.7-657.2c-2.1,0-3.6,0-5.1,0C2049.8-661.3,2051.5-660.2,2053.7-657.2z"/>
<g>
	<path class="st0" d="M143.8,28.6c-2.1,6.2,2.7,7.6,0.5,15.4c0.1,1.9,3.2,2.9,3.8,5.3c1.6,4.6-2.6,6.4-1.2,9.2
		c3.1,6.1,1.9,12.3-3.3,16.7c-1.1,0.9-1.2,1.6-0.9,3c2.3,7.8-2,15.3-9.9,17.1c-4.3,0.5,0.8,11.9-12.8,15.1
		c-14.4,2.1-13.6-11.2-17.4-9.4c-10.2,3.8-20.8-7.4-16.5-17.4c2-3.6-14.2-4.5-7.4-20.5c0.5-1.1,0.5-1.4-0.6-2.1
		c-7.1-4-7.5-12.2-0.9-16.9c1-0.7,1.1-1.1,0.5-2.1c-3.1-6.4,0.1-12.7,7-14.1c1.4-0.3,1.7-0.8,1.9-2.1c1.7-10,11.5-14.7,20.3-9.7
		c1.3,0.7,1.8,0.4,2.6-0.6c5.1-5.9,12.8-6.4,18.5-1c1,0.9,1.9,1.1,3.2,1.1C138.4,15.7,143.8,21.1,143.8,28.6z M117.5,108.2
		c6.6,0,11.6-5.6,10.9-12.5c-0.2-1.9,0.1-2.5,2.1-2.7c8.1-0.5,12.7-8.2,9.4-15.7c-0.7-1.6-0.4-2.3,1-3.2c11.8-8.8-0.2-16,3.3-18.9
		c2.9-3,2.1-7.1-1.8-8.6c-2.1-0.8-2.1-1.6-1-3.3c1.8-2.8,1.7-5.7-0.4-8.2c-0.9-1.2-0.9-2.1-0.4-3.4c2.7-7.3-2.6-14.3-10.5-13.7
		c-1.3,0.1-2.1-0.2-3-1.2c-5-5.5-12.8-4.7-16.6,1.8c-2.3,4.8-6.2-6-15.3-1.1c-9.4,4.2-3.5,13.3-8.6,12.6c-6.3-0.7-10.2,7.9-5.5,12.1
		c1.6,1.6,1.4,2.4-0.8,3.1c-7.5,2.1-6.7,12.7,0.8,14c2.7,0.6,2.8,0.9,1,3.1c-5.1,6.2-2.2,15,5.7,16.9c2.7,0.7,2.8,0.8,1.5,3.3
		c-2.4,4.4-1.9,9.4,1.4,12.9c8.4,8.7,15.5-2.2,16.2,3.8C108.1,104.8,112.3,108.2,117.5,108.2z"/>
	<path class="st0" d="M79.5,90.6c-0.2,33.6-50.9,34.6-52.3,0.8c-0.1-2.2-0.4-2.9-2.8-2.4c-3.1,0.5-12,1.6-14-0.8
		c-0.2-0.9,0.5-1.3,1.2-1.7C25.7,77.7,24,71.7,25,57.1c1.6-11.9,9.1-16.6,20.9-15c6.2,0.8,9.8,5.3,12,10.9c1.4,3.6,3.6,6.9,2.7,11.1
		c-0.4,1.6,1.2,1.6,2.1,2C73,70.1,79.5,79.6,79.5,90.6z M77.1,90.4C76.3,59,30,59.4,29.6,90.7C30.5,121.8,76.6,121.6,77.1,90.4z
		 M15.4,86.9c21.2,1.2,6.1-6.3,23.6-18.3c3-2.1,0-7.4,2.5-10.8c1.5-3.1,4.4-4.1,7.1-2.1c1.3,1.2,9.1,2.8,7.6-0.3
		c-2-7.4-7.6-11.7-14.8-11.3C26.6,44,26.8,59.4,26.7,70.4C26.3,77.9,21.1,82.3,15.4,86.9z M53.4,59.6c-4.7-0.1-5.2-0.7-4.5,4.5
		c0.3,1.2,1.6,0.3,2.4,0.3c1.8-0.1,3.5-0.1,5.3,0.2c0.6,0.1,1.3,0.4,1.5-0.7C59.3,59.9,56.6,59.4,53.4,59.6z M46.2,61.4
		c0-0.8,0.1-1.4,0-2c-0.2-0.7,0.7-1.7-0.3-2c-3.3,0.1-3.2,5.4-3.1,7.8c0.1,1,0.6,0.9,1.4,0.8C47.3,65.4,45.9,62.9,46.2,61.4z"/>
	<path class="st0" d="M54.1,121.4c21.9-1,46.1-1.3,52.1,24.8c0.2,1,0.7,2.2-0.8,2.5c-1.5,0.3-1.4-1.2-1.6-2
		c-3.3-13.9-14.8-22.8-29-22.8c-24.5,1.9-62.8-9.5-70.7,22.7c-0.2,0.9-0.2,2.4-1.6,2.1c-1.6-0.3-0.9-1.7-0.7-2.7
		C7.7,119.9,32.5,120.4,54.1,121.4C54.1,121.4,54.1,121.4,54.1,121.4z"/>
	<path class="st0" d="M83,1.3c11,0,11,16.7,0,16.7C72.2,17.9,72.2,1.4,83,1.3z M82.9,15.5c7.8,0.1,7.9-11.7,0.1-11.8
		C75.5,3.6,75.4,15.5,82.9,15.5z"/>
	<path class="st0" d="M64.6,7.2c8.6,0,8.7,13.1,0,13.1C56,20.2,56.1,7.4,64.6,7.2z M68.7,14c0.3-5.3-8-5.6-8.2-0.3
		C60.3,18.9,68.6,19.3,68.7,14z"/>
	<path class="st0" d="M49.8,35.1c0.1,5.4-8.4,5.6-8.4,0.1C41.3,29.8,49.8,29.7,49.8,35.1z M45.7,36.9c2.2-0.1,2.2-3.5,0-3.4
		C43.3,33.3,43.3,37,45.7,36.9z"/>
	<path class="st0" d="M56.9,23.9c0.4,3.1-4.8,8.1-7,5c-0.2-1,0.4-1.4,1.3-1.5c2-0.3,3.3-1.5,3.3-3.5c0-2-1.3-3.2-3.3-3.5
		c-0.8-0.1-1.5-0.5-1.2-1.5C52.1,15.8,57.4,20.8,56.9,23.9z"/>
	<path class="st0" d="M116,75.3c5,0.9,5,0.9,2.3,5.5c-1.1,1.9-2.4,2.8-4.7,2.7c-4.6-0.2-9.1-0.3-13.7,0c-3.8,0.3-5.9-1.2-7.5-4.5
		c-1-2.1-1.3-3.4,1.3-3.9c-5.6-0.8-14.4-9.6-5.3-12.4c0.5-0.1,1.2,0.1,1.3-0.5c0.1-2.7,2.1-2.1,3.7-2.1c8.5,0,17.1,0,25.6,0
		c6.8-1,0.5,11.4-1.8,13.6C116.7,74.2,116,74.4,116,75.3z M106.2,62.5c-4.1,0-8.1,0-12.2,0c-0.9,0-1.6-0.1-1.5,1.3
		c0.6,8.4,9.2,13,16.8,11.8c5.2-0.5,8.4-6.1,9.8-10.7c0.5-1.7,0.3-2.5-1.8-2.4C113.6,62.6,109.9,62.5,106.2,62.5z M95.1,78
		c0.5,2.1,1.4,3,3.5,3c4.8-0.1,9.6-0.1,14.4,0c2.2,0.1,3.2-0.9,3.7-3C109.5,78,102.4,78,95.1,78z M93,71.9c-0.9-2-1.7-3.6-2.3-5.4
		c-0.5-1.6-1.5-1.8-2.7-1.3C84.7,67.6,90.2,71.6,93,71.9z"/>
	<path class="st0" d="M125.7,31.3c3.4,0.6,8.8-1.5,11.1,1.3c5,8.1,2.4,22.4-6.9,26.1c-2.7,0.5-3.1,1.9-3,4.4c0.2,4.9,0.1,9.8,0,14.7
		c0,1.4,0.1,2.3,1.9,2.1c2.2-0.5,2.3,2.7,0,2.4c-2-0.5-7.4,1.2-7.9-1.2c0-1,0.7-1.3,1.6-1.2c1.8,0.3,2.1-0.6,2.1-2.1
		c-0.1-5.4,0-10.8,0-16.2c0-0.9,0.3-1.7-1.1-2.1c-11-3-13.7-16.9-9.1-26.1C116.3,29.3,122.1,32,125.7,31.3
		C125.7,31.2,125.7,31.3,125.7,31.3z M118,40.7c-1.1,0.4-3.4-0.6-3.3,2.2c-0.4,7.6,6.9,17.6,15,13.2c4.6-2.6,6.5-6.9,7-11.9
		c0.1-0.9-0.1-1.4-1.2-1.1C129.2,44.6,124.2,40.9,118,40.7z M125.9,33.7C125.9,33.7,125.9,33.7,125.9,33.7
		c-3.7,0.2-10.7-1.5-10.6,4.1c0.2,0.7,0.7,0.6,1.1,0.5c6.3-0.8,11.8,3.5,18.1,2.4c4.7-0.3,0.6-7.5-2.6-7.1
		C129.9,33.7,127.9,33.7,125.9,33.7z"/>
	<path class="st0" d="M106.6,54.2c-0.1-3.8,3.4-7.1,0.8-10.9c-1-1.5,1.4-2.7,2.1-1.1c4.1,5-2.6,10.1,0.5,15.2
		c0.4,0.5,0.1,1.2-0.5,1.5C107.3,59.5,106.6,55.9,106.6,54.2z"/>
	<path class="st0" d="M106.1,47.5c-0.4,3-3.3,6.6-0.8,9.7c0.9,1.4-1.4,2.4-2.1,1.1c-4.3-5,3-10.2-0.6-15.3c-0.4-0.5-0.1-1.2,0.5-1.5
		C105.7,41.2,106.1,45.1,106.1,47.5z"/>
	<path class="st0" d="M54.4,106.2c-2.7,0.4-12.5-2.6-10.8-5.8c0.7-0.8,1.5-0.2,2.2,0.3c2.1,1.8,4.6,2.9,7.4,3c6,0.4-2-7.6,3.9-9.2
		c5.6-1,4.3,5.2,7,5.9C67.3,102.5,56,106.8,54.4,106.2z M58.1,102.8c5.5-2.8-1.5-9.4-0.9-4.2C57.7,99.9,58,101.2,58.1,102.8z"/>
</g>
</svg>
