<?xml version="1.0" encoding="utf-8"?>
<!-- Generator: Adobe Illustrator 24.3.0, SVG Export Plug-In . SVG Version: 6.00 Build 0)  -->
<svg version="1.1" id="Layer_1" xmlns="http://www.w3.org/2000/svg" xmlns:xlink="http://www.w3.org/1999/xlink" x="0px" y="0px"
	 viewBox="0 0 150 150" style="enable-background:new 0 0 150 150;" xml:space="preserve">
<style type="text/css">
	.st0{fill:#005BAB;}
</style>
<g>
	<path class="st0" d="M107.8,144.3c5.9,0,11.5,0,17.2,0c0,1.6,0,3.1,0,4.7c-0.4,0-0.9,0.1-1.3,0.1c-34.4,0-68.8,0-103.2,0
		c-7,0-11.7-6.5-9.3-12.9c1.4-3.7,4.3-5.7,8.2-6.2c0.5-0.1,1.2-0.3,1.4-0.7c1.5-2.6,3.6-4.1,6.6-4c2.9,0.1,5,1.6,6.4,4.2
		c0.1,0.2,0.2,0.3,0.5,0.8c0-2.9,0.2-5.5-0.1-8.1c-0.1-1.4-1.4-1.7-2.8-1.7c-6.2,0-12.3,0-18.5,0c-4.9,0-8.3-4.6-6.9-9.3
		c0.9-2.9,3.6-5,6.7-5c1.7,0,3.4,0,5.1,0c2.9-0.1,5.3-1.8,6.5-4.8c-1.5,0-2.9,0-4.3,0c-1.6,0-3.2,0-4.8,0c-2.6-0.1-4.6-2.1-4.7-4.7
		c0-1.3,0-2.7,0-4c0-3.4,1.3-5,4.7-5.7c0-1.5,0-3,0-4.6c-1.5-0.1-3-0.1-4.5-0.4C5.1,80.9,1,76.1,1,70.4C1,51.2,1,32,1,12.8
		C1.1,6.3,6.3,1.1,12.8,1C22.4,1,32,1,41.6,1c6.6,0,11.9,5.2,11.9,11.9c0,19.2,0,38.3,0,57.5c0,4.6-2.3,8-6.3,10.5
		c2.1,3.5,2.6,7-1.1,9.8c-2.3,1.8-6.7,1.6-9,0c-2.5-1.8-3.1-4.3-1.9-8.3c-1.8,0-3.5,0-5.4,0c0,1.5,0,3,0,4.5
		c3.7,1.1,4.7,2.3,4.7,6.3c0,1.1,0,2.3,0,3.4c-0.1,2.4-1.6,4.3-4,4.7c-0.7,0.1-1.1,0.4-1.3,1.1c-1.8,5.5-6.1,8.5-11.9,8.6
		c-1.2,0-2.5,0-3.7,0c-1.9,0-3,0.9-2.9,2.4c0,1.4,1.1,2.3,2.9,2.3c5.9,0,11.7,0,17.6,0c5.4,0,8.1,2.8,8.1,8.2c0,2,0,4,0,6
		c3.2,0,6.3,0,9.6,0c0.3-2,0.5-4,0.9-6c3.6-17,13.7-28.4,29.9-34.5c0.8-0.3,1.7-0.9,2.2-1.6c2.5-3.1,4.4-6.5,5.9-10.4
		c-6.2-0.7-11.1-3.4-14.3-8.8c-3.2-5.5-2.9-11.1,0.1-16.8c-0.8-0.5-1.6-1.1-2.3-1.5c-2.4-1.5-3.6-3.6-3.2-6.4
		c0.3-2.6,2.3-4.6,5.2-5.3c1.5-0.4,3.1-0.8,4.6-1.1c1.4-0.3,2.4-1,3.1-2.2c2.4-4.3,5.8-7.7,10.1-10.2c0.8-0.5,1.1-0.9,0.9-2
		c-0.5-2.9,0.1-5.8,2-8c4.4-5.5,9.5-10.3,16.5-12.5c12.8-4.2,26.8,0.7,34,12.1c7.3,11.4,5.9,26.1-3.4,36.1c-1.1,1.1-2.2,2.1-3.5,3.4
		c1.1,0.8,2.1,1.4,3,2.1c1.6,1.2,3.4,2.3,4.8,3.7c4.4,4.6,5,11.3,1.6,17.1c-6.2,10.7-12.4,21.3-18.6,32c-6.5,11.2-13,22.3-19.5,33.5
		C108.5,143,108.2,143.5,107.8,144.3z M5.8,41.4c0,9.4,0,18.9,0,28.3c0,4.6,3,7.6,7.7,7.6c9.2,0,18.4,0,27.6,0c4.7,0,7.7-3,7.7-7.8
		c0-18.7,0-37.4,0-56.1c0-4.8-3-7.8-7.8-7.8c-9.1,0-18.2,0-27.3,0c-4.9,0-7.8,2.9-7.9,7.9C5.8,22.9,5.8,32.2,5.8,41.4z M118.4,5.8
		c-5.3,0.1-11.1,2.3-15.9,6.9c-1.3,1.2-2.6,2.5-3.8,3.8c-2.7,2.8-3,6.5-0.7,9.6c7.2,9.9,14.5,19.8,21.8,29.7c2.2,3,5.9,3.2,8.5,0.7
		c3.1-3,6.2-6,9.1-9.2c7-7.8,8.7-16.7,4.8-26.4C138.6,11.7,129.5,5.8,118.4,5.8z M94.3,134.4c0.3-0.2,0.4-0.2,0.6-0.4
		c12.5-9.5,14.8-26.9,5.3-39.4c-1.6-2.1-3.3-3-6-3c-17.1,0.2-32,10.6-38,26.6c-1.4,3.7-2.3,7.6-2.4,11.7c2.3,0,4.4,0.1,6.5,0
		c9.1-0.3,16.6-3.9,22.4-11c2.7-3.3,4.5-7,5.6-11.1c1.1-4.1,4.6-6.7,8.2-6.4c0,1.5,0,3,0,4.6c-2.2,0.3-3.3,1.6-3.8,3.5
		c-0.2,0.8-0.5,1.6-0.7,2.4c-1.7,5-4.5,9.3-8.3,13C87.2,128.1,90.7,131.2,94.3,134.4z M79.5,49.9c-1,2.4-2,4.6-3,6.8
		c-0.4,0.8-0.1,1.3,0.6,1.8c2.6,2,5.3,3.2,8.5,1.1c0.9,1.4,1.8,2.6,2.7,3.9c-3.8,2.5-7.6,2.6-11.7,0.4c1,3.2,2.8,5.3,5.4,6.8
		c5.4,3.2,10.7,2.1,15.9-0.9c0.7,1.5,1.4,2.9,2.1,4.5c-2.1,0.9-4.1,1.6-6.1,2.5c-0.4,0.2-1,0.4-1.2,0.7c-1.5,3.2-2.9,6.5-4.3,9.5
		c2.4,0,5.1,0,7.7,0c1,0,1.6-0.2,2.2-1.1c2.3-3.6,4.7-7.2,7.2-10.8c0.6-0.9,0.8-1.8,0.7-2.9c-0.7-7.1,0.3-13.9,3-20.4
		c0.4-1,0.4-1.7-0.3-2.6c-4.7-6.4-9.4-12.8-14.1-19.2c-0.3-0.4-0.6-0.8-0.9-1.2c-3.9,2.2-6.9,5.1-9.1,9c-1.3,2.3-3,3.7-5.6,4.2
		c-1.7,0.3-3.4,0.7-5.1,1.2c-0.6,0.2-1.3,0.8-1.5,1.4c-0.1,0.4,0.5,1.2,1,1.6C75.6,47.5,77.5,48.6,79.5,49.9z M79.9,128.2
		c-0.3,0.1-0.4,0.2-0.6,0.3c-6.2,4.3-13.1,6.3-20.6,6.2c-9.1-0.1-18.3,0-27.4,0c-0.5,0-1.1,0-1.7,0c0-0.9,0-1.7,0-2.4
		c-0.1-1.4-1.1-2.4-2.4-2.4c-1.3,0-2.3,1-2.3,2.4c0,0.8,0,1.5,0,2.4c-1.8,0-3.3,0-4.8,0c-1.8,0-3.2,0.8-4,2.4
		c-1.9,3.3,0.5,7.1,4.6,7.2c14.7,0,29.4,0,44.1,0c2.9,0,5.8-0.2,8.6-0.6c6.1-0.9,11.7-3,17-6.4C86.8,134.2,83.4,131.2,79.9,128.2z
		 M88.3,144.3c3.9,0,8.3,0,12.6,0c1.1,0,1.6-0.4,2.1-1.3c11-19.1,22.1-38.2,33.2-57.2c0.3-0.5,0.5-0.9,0.8-1.4c-2.5,0-4.9,0-6.8,0
		c-2.5,3.9-4.8,7.7-7.3,11.7c-1.3-2-2.4-3.6-3.7-5.4c-2.8,4.2-5.5,8.3-8.2,12.3c-0.7,1-0.9,1.9-0.7,3.2c1.9,11.8-1.5,21.9-10.4,29.8
		C96.3,139.1,92.1,141.6,88.3,144.3z M108.2,98.4C108.1,98.4,108.2,98.4,108.2,98.4c2.7-4,5.4-7.9,8-11.8c0.2-0.3,0.2-0.8,0.1-1.1
		c-1.1-3.2-0.8-6.3,0.4-9.3c0.2-0.5,0.3-1,0.4-1.6c-2.3,0.9-4.5,1.6-6.6,2.5c-0.4,0.1-0.8,0.4-1,0.8c-2.6,3.8-5.1,7.6-7.5,11.2
		C104.1,92.2,106.1,95.3,108.2,98.4z M127.1,64.2c0.8,1.2,1.5,2.2,2.2,3.2c0.3,0.3,0.7,0.7,1.1,0.8c4.6,1.2,7.8,4,9.9,8.1
		c0.2,0.4,0.4,0.7,0.7,1.2c0.8-1.5,1.6-2.7,2.2-4c1.9-3.8,1.1-8.4-2.2-11.1c-2.2-1.8-4.6-3.3-7.1-5
		C132.2,60.5,128.5,61.2,127.1,64.2z M111,71.8c1-0.5,1.8-0.8,2.7-1.2c1.2-0.5,2-1.3,2.4-2.7c0.6-2.3,2.4-3.8,4.7-4.6
		c0.4-0.1,0.9-0.2,1.3-0.3c-4.5-1-6.3-4.8-8.9-8.2C111.2,60.5,110.5,65.9,111,71.8z M29.6,91.8c-4.8,0-9.5,0-14.1,0
		c0,1.6,0,3.1,0,4.6c4.8,0,9.4,0,14.1,0C29.6,94.9,29.6,93.4,29.6,91.8z M136.6,79.8c-1.6-3.7-3.7-6-7.1-6.9
		c-0.7,0.9-1.2,1.8-1.9,2.7c1.3,1,0.9,3.6,3.3,3.8C132.7,79.6,134.5,79.7,136.6,79.8z M121.3,77.4c-1.6,4-1,7.4,1.5,9.7
		c2.8-3.5,3-5.5,1-8.6C123.2,77.6,122.5,77.2,121.3,77.4z M24.8,86.9c0-1.7,0-3.2,0-4.6c-1.6,0-3.1,0-4.6,0c0,1.6,0,3.1,0,4.6
		C21.8,86.9,23.2,86.9,24.8,86.9z M125.1,70.2c0-1.3-1.1-2.4-2.4-2.3c-1.3,0-2.3,1.1-2.3,2.4c0,1.3,1.1,2.4,2.4,2.3
		C124.1,72.6,125.1,71.5,125.1,70.2z M41.5,87c1.7,0,2.4-0.4,2.5-1.5c0-1.2-1.5-3.3-2.3-3.3c-0.9,0-2.5,2-2.4,3.3
		C39.3,86.9,40.4,87,41.5,87z"/>
	<path class="st0" d="M10.6,36.7c0-3.8,0-7.6,0-11.3c0-3.2,2-5.2,5.2-5.2c7.7,0,15.4,0,23.1,0c3.2,0,5.1,2,5.1,5.1
		c0,7.7,0,15.4,0,23.1c0,3.2-2,5.1-5.1,5.1c-7.8,0-15.5,0-23.3,0c-3.1,0-5-2-5-5.1C10.5,44.5,10.6,40.6,10.6,36.7z M39.1,25
		c-8,0-15.8,0-23.7,0c0,8,0,15.8,0,23.7c7.9,0,15.8,0,23.7,0C39.1,40.8,39.1,32.9,39.1,25z"/>
	<path class="st0" d="M87,41.6c1.6,0,3,0,4.6,0c0.3,1.5-0.3,3.4,1.5,4.4c1.8,1,3-0.9,4.7-1.2c0.7,1.2,1.4,2.5,2.1,3.7
		c-1.9,2.2-5.6,3.1-8.3,2.1C88.3,49.3,86.7,46.3,87,41.6z"/>
	<path class="st0" d="M29.7,39.2c0,1.7,0,3.1,0,4.7c-1.6,0-3.1,0-4.7,0c0-1.5,0-3,0-4.6c-1.6,0-3.1,0-4.7,0c0-1.6,0-3.1,0-4.8
		c1.5,0,3,0,4.6,0c0-1.6,0-3.1,0-4.7c1.6,0,3.1,0,4.8,0c0,1.5,0,3,0,4.6c1.6,0,3.1,0,4.7,0c0,1.6,0,3.1,0,4.8
		C32.8,39.2,31.3,39.2,29.7,39.2z"/>
</g>
<g>
	<path class="st0" d="M-365-485.3c-6.4-2.4-11.6-6.1-13.5-13.2c-3-11.1,4.9-22.1,16.4-22.7c2.1-0.1,4.2,0,6.6,0c0-12,0-23.8,0-36
		c-5.6,0-11.2,0-16.8,0c-9.2-0.1-16.1-5.2-18.3-13.6c-2.1-8.2,1.3-15.9,9.5-20.3c2.3-1.2,1.9-2.9,1.9-4.7c0-50.5,0-101.1,0-151.6
		c0-10.2,0-20.5,0-30.7c0.1-11.2,7.7-18.7,18.9-18.8c3.5,0,7,0,11.1,0c0-4.3,0-8.5,0-12.7c0-3.6,0-7.2,0-10.9
		c0.1-7.4,5.1-12.3,12.6-12.4c1.6,0,3.2,0,5.4,0c0-1.7,0-3.3,0-4.9c0-8.1,0-16.2,0-24.3c0-4.1,2.4-6.7,6-6.7c3.5,0,6,2.6,6,6.7
		c0.1,9.6,0,19.2,0,29.2c1.6,0,2.9,0,4.2,0c9.1,0,13.7,4.7,13.7,13.9c0,7.2,0,14.4,0,22c4,0,7.7,0,11.4,0
		c10.7,0.1,18.4,7.7,18.5,18.4c0.1,6,0,11.9,0,18.3c1.5-0.7,2.5-1.3,3.6-1.7c6.8-2.7,13.6-5.6,20.5-7.9c5.7-1.9,5.8-1.6,5.8-7.4
		c0-0.6-0.1-1.3,0-1.9c0.4-4.1-0.3-7.1-4.5-9.6c-6.7-3.9-8.9-12.5-6.6-19.8c2.3-7.1,9-12.2,16.6-12.3c8.2-0.1,16.5-0.1,24.7,0
		c8.3,0.1,15.1,5.6,17.1,13.6c2,7.7-1.4,15.9-8.5,19.7c-2.5,1.3-3,2.8-2.9,5.2c0.2,3.5-1.1,7.9,0.5,10.2c1.6,2.2,6.3,2.1,9.4,3.4
		c8.7,3.6,17.3,7.4,26.9,11.5c2.2-2.2,5.3-5.3,8.2-8.5c0.6-0.7,0.7-2.3,0.5-3.3c-2.3-8.8,0.7-16.8,7.9-21.1
		c7.2-4.3,15.9-3.1,22.3,3.2c5.4,5.3,10.8,10.7,16.1,16.2c6.2,6.4,7.4,15.1,3,22.3c-4.2,7-12.4,10-20.9,7.9
		c-1.2-0.3-3.1,0.2-4.1,1.1c-3.1,2.5-5.9,5.4-8.8,8.2c7.2,10.9,12.1,22.1,14.7,34.3c0.2,0.7,1.4,1.6,2.2,1.7c1.6,0.3,3.2,0,4.9,0.1
		c4.7,0.3,8.3-0.1,11.3-5.1c3.8-6.4,12.2-8.3,19.3-6c7,2.2,12.2,8.8,12.3,16.2c0.2,8.5,0.2,17,0,25.5c-0.2,8.2-5.9,14.9-14,16.8
		c-7.5,1.8-15.7-1.6-19.4-8.6c-1.3-2.5-2.8-3-5.2-2.9c-3.5,0.2-7.9-1.1-10.2,0.5c-2.2,1.6-2.1,6.3-3.4,9.4
		c-3.6,8.7-7.4,17.3-11.5,26.9c2.2,2.2,5.3,5.3,8.5,8.2c0.7,0.6,2.3,0.7,3.3,0.5c8.8-2.2,16.9,0.8,21.1,7.9c4.3,7.3,3,15.9-3.5,22.5
		c-5.1,5.1-10.2,10.3-15.4,15.4c-6.6,6.6-15.1,7.9-22.5,3.7c-7.4-4.2-10.3-12.2-8-21.4c0.2-1,0-2.5-0.7-3.2
		c-2.8-3.2-5.8-6.1-8.8-9.2c-10.7,7.1-22,12-34.2,14.6c-0.7,0.2-1.6,1.4-1.7,2.2c-0.3,1.6,0,3.2-0.1,4.9c-0.3,4.7,0.1,8.3,5.1,11.3
		c6.4,3.8,8.3,12.2,6,19.3c-2.3,7.1-9,12.2-16.6,12.4c-8.4,0.1-16.7,0.2-25.1,0c-8.2-0.2-14.9-5.9-16.8-14
		c-1.8-7.5,1.6-15.7,8.6-19.4c2.5-1.3,3-2.8,2.9-5.2c-0.2-3.5,1.1-7.9-0.5-10.2c-1.6-2.2-6.2-2.2-9.4-3.4
		c-6.6-2.5-13.2-5.2-20.3-8.1c0.8,0.9,1.3,1.8,2,2.2c8.5,5.1,12,12.5,9.6,20.9c-2.3,8.3-9.3,13.2-19,13.2c-5.2,0-10.5,0-16,0
		c0,11.9,0,23.7,0,35.9c1.7,0,3.4,0,5,0c9.6,0.1,17,6.3,18.4,15.3c1.4,8.5-3.7,16.6-12.4,19.8c-0.6,0.2-1.1,0.5-1.6,0.8
		C-312.1-485.3-338.6-485.3-365-485.3z M-122.1-683c-3.5,0-7,0-10.5,0c-5.5,0-7.3-1.3-8.1-6.6c-2.3-13.8-7.5-26.3-15.7-37.6
		c-2.7-3.6-2.4-6.1,0.8-9.3c5.3-5.3,10.6-10.6,15.9-15.9c3.4-3.4,5.6-3.5,9.5-0.8c3.1,2.1,6.3,1.9,8.5-0.4c2.3-2.5,2.1-5.8-0.7-8.7
		c-5.2-5.4-10.5-10.6-15.9-15.9c-2.9-2.8-6.1-3-8.7-0.8c-2.5,2.2-2.6,5.3-0.3,8.7c2.5,3.6,2.4,5.9-0.6,9c-5.4,5.5-10.9,11-16.4,16.4
		c-3,3-5.6,3.3-9,0.8c-11.5-8.5-24.2-13.7-38.3-15.9c-4.4-0.7-6-2.6-6-7.1c0-7.4,0-14.7,0-22.1c0-5.2,1.3-6.7,6.6-7.7
		c3.4-0.7,5.5-3.1,5.4-6.2c-0.1-3.2-2.6-5.7-6.2-5.7c-7.9-0.1-15.7-0.1-23.6,0c-3.4,0-5.8,2.4-6.1,5.4c-0.3,3.2,1.9,5.8,5.5,6.4
		c5.1,1,6.5,2.5,6.5,7.8c0,6.6,0,13.2,0,19.8c0,7.3-1.1,8.6-8.3,9.7c-11.2,1.8-21.5,6.1-31.1,12.1c-1.9,1.2-2.5,2.6-2.5,4.8
		c0.1,43.7,0.1,87.3,0,131c0,2.5,0.9,3.8,2.9,5c10.2,6.4,21.2,10.5,33,12.4c4.5,0.7,6.1,2.6,6.1,7c0.1,7.6,0.1,15.2,0,22.8
		c0,4.4-1.7,6.3-6.1,7c-3.9,0.7-6.1,3.2-5.8,6.5c0.3,3.2,2.7,5.4,6.4,5.5c7.6,0.1,15.2,0.1,22.8,0c3.9,0,6.4-2.4,6.6-5.7
		c0.1-3.2-2.1-5.6-5.7-6.2c-4.6-0.8-6.2-2.6-6.2-7.3c0-7.5,0-15,0-22.5c0-4.5,1.5-6.4,6-7.1c14-2.3,26.8-7.5,38.3-15.9
		c3.4-2.5,5.9-2.3,9,0.7c5.5,5.4,11,10.9,16.4,16.4c3,3,3.1,5.4,0.6,9c-2.3,3.4-2.2,6.5,0.3,8.7c2.6,2.3,5.9,2,8.9-1
		c5.2-5.1,10.3-10.2,15.4-15.4c2.9-3,3.3-6.1,1.2-8.7c-2.1-2.7-5.5-2.9-9-0.5c-3.5,2.4-5.9,2.2-9-0.8c-5.5-5.4-11-10.9-16.4-16.4
		c-2.9-3-3.2-5.5-0.6-9c8.5-11.5,13.6-24.3,15.9-38.3c0.7-4.2,2.6-5.8,6.8-5.9c7.7-0.1,15.5-0.1,23.2,0c4.2,0,6.1,1.8,6.8,5.9
		c0.7,4,3,6.2,6.3,6c3.4-0.2,5.6-2.8,5.6-6.7c0.1-7.5,0.1-15,0-22.5c0-4-2.2-6.5-5.6-6.7c-3.3-0.2-5.7,2-6.4,6
		c-0.7,4.3-2.7,5.9-7.1,6C-114.6-682.9-118.3-683-122.1-683z M-283.4-593.2c0-1.3,0-2.6,0-3.9c0-59.7,0-119.5,0-179.2
		c0-6.6-1.8-8.4-8.4-8.4c-22.3,0-44.7,0-67,0c-6.7,0-8.5,1.8-8.5,8.4c0,59.7,0,119.5,0,179.2c0,1.3,0,2.6,0,4
		C-339.2-593.2-311.6-593.2-283.4-593.2z M-307.7-521.4c0-12.1,0-23.8,0-35.5c-12,0-23.8,0-35.5,0c0,12,0,23.6,0,35.5
		C-331.3-521.4-319.6-521.4-307.7-521.4z M-325.6-569.2c10.2,0,20.5,0,30.7,0c5.7,0,11.5,0.1,17.2,0c3.8-0.1,6.3-2.7,6.2-6.1
		c-0.1-3.2-2.5-5.6-6.1-5.8c-0.7-0.1-1.5,0-2.2,0c-30.3,0-60.6,0-91,0c-1.1,0-2.5-0.4-3.3,0.2c-1.8,1.1-4,2.4-4.7,4.2
		c-0.6,1.6,0.2,4.4,1.4,5.6c1.3,1.3,3.8,1.9,5.7,1.9C-356.3-569.1-340.9-569.2-325.6-569.2z M-325.7-497.3c11.6,0,23.2,0,34.8,0
		c4.7,0,7.5-2.3,7.5-6c0-3.7-2.7-6-7.5-6c-23,0-45.9,0-68.9,0c-4.7,0-7.5,2.3-7.5,6c0,3.7,2.7,6,7.5,6
		C-348.4-497.3-337.1-497.3-325.7-497.3z M-337.3-797c8.2,0,15.9,0,23.7,0c0-8,0-15.8,0-23.4c-8,0-15.8,0-23.7,0
		c0,6.8,0,13.2,0,19.7C-337.3-799.6-337.3-798.5-337.3-797z"/>
	<path class="st0" d="M-241.5-671c-13.2,0-24-10.8-24-24c0-13.2,10.9-24,24.1-23.9c13.1,0.1,23.7,10.8,23.8,23.8
		C-217.5-681.9-228.3-671-241.5-671z M-253.5-695.5c-0.3,6.5,4.8,12.2,11.3,12.5c6.6,0.4,12.4-5,12.6-11.6c0.2-6.5-5-12.1-11.5-12.3
		C-247.6-707.2-253.2-702-253.5-695.5z"/>
	<path class="st0" d="M-181.3-706.9c9.9,0.2,17.9,8.5,17.6,18.5c-0.2,9.7-8.5,17.6-18.3,17.4c-9.9-0.2-17.9-8.5-17.6-18.5
		C-199.3-699.2-191.1-707.1-181.3-706.9z M-175.6-689.1c-0.1-3.2-2.9-5.9-6.1-5.8c-3.2,0.1-5.9,2.8-5.8,6.1c0.1,3.2,2.8,5.9,6.1,5.8
		C-178.2-683.1-175.6-685.9-175.6-689.1z"/>
	<path class="st0" d="M-217.5-659c9.9,0,18,8.2,17.9,18.2c-0.1,9.8-8.2,17.8-18,17.8c-9.9,0-18-8.2-17.9-18.2
		C-235.4-651-227.3-659-217.5-659z M-211.6-641.1c0-3.2-2.7-6-6-5.9c-3.2,0-6,2.7-5.9,6c0,3.2,2.7,6,6,5.9
		C-214.3-635.1-211.6-637.8-211.6-641.1z"/>
	<path class="st0" d="M-342.9-736.9c-3.7,0-7.5,0.1-11.2,0c-4.1-0.1-6.6-2.5-6.5-6.1c0.1-3.4,2.5-5.8,6.4-5.8
		c7.3-0.1,14.7-0.1,22,0.1c4.1,0.1,6.7,2.5,6.7,6c0,3.6-2.6,5.9-7,6c-1.7,0-3.5,0-5.2,0C-339.4-736.8-341.1-736.8-342.9-736.9
		C-342.9-736.8-342.9-736.9-342.9-736.9z"/>
	<path class="st0" d="M-343-706.9c-3.7,0-7.5,0.1-11.2,0c-3.9-0.1-6.3-2.4-6.4-5.9c-0.1-3.6,2.5-6,6.5-6.1c7.2-0.1,14.5,0,21.7,0.1
		c4.1,0.1,6.8,2.5,6.8,5.9c0.1,3.6-2.7,6-7,6c-1.7,0-3.5,0-5.2,0C-339.5-706.9-341.2-706.9-343-706.9
		C-343-706.9-343-706.9-343-706.9z"/>
	<path class="st0" d="M-343-677c-3.7,0-7.5,0.1-11.2,0c-3.9-0.1-6.3-2.5-6.3-5.9c0-3.4,2.4-5.9,6.3-6c7.4-0.1,14.7-0.1,22.1,0.1
		c4,0.1,6.7,2.7,6.6,6.2c-0.1,3.5-2.7,5.7-6.9,5.8C-336-676.9-339.5-676.9-343-677C-343-677-343-677-343-677z"/>
	<path class="st0" d="M-343.3-647c-3.6,0-7.2,0.1-10.8,0c-3.9-0.1-6.3-2.4-6.4-5.8c-0.1-3.6,2.4-6.1,6.5-6.1
		c7.2-0.1,14.4-0.1,21.6,0.1c4.1,0.1,6.6,2.5,6.6,6c0,3.6-2.5,5.8-6.6,5.9c-1.9,0-3.7,0-5.6,0C-339.8-647-341.6-647-343.3-647
		C-343.3-647-343.3-647-343.3-647z"/>
	<path class="st0" d="M-343.1-617.2c-3.6,0-7.2,0.1-10.8,0c-4.1-0.1-6.6-2.5-6.6-6c0-3.6,2.5-5.9,6.6-5.9c7.2,0,14.4,0,21.6,0.1
		c3.9,0.1,6.3,2.4,6.4,5.8c0.1,3.6-2.4,6.1-6.4,6.2C-335.9-617-339.5-617.1-343.1-617.2C-343.1-617.1-343.1-617.1-343.1-617.2z"/>
</g>
</svg>
