<?xml version="1.0" encoding="utf-8"?>
<!-- Generator: Adobe Illustrator 24.3.0, SVG Export Plug-In . SVG Version: 6.00 Build 0)  -->
<svg version="1.1" id="Layer_1" xmlns="http://www.w3.org/2000/svg" xmlns:xlink="http://www.w3.org/1999/xlink" x="0px" y="0px"
	 viewBox="0 0 150 150" style="enable-background:new 0 0 150 150;" xml:space="preserve">
<style type="text/css">
	.st0{fill:url(#SVGID_1_);}
	.st1{fill:url(#SVGID_2_);}
	.st2{fill:url(#SVGID_3_);}
	.st3{fill:url(#SVGID_4_);}
	.st4{fill:url(#SVGID_5_);}
	.st5{fill:url(#SVGID_6_);}
	.st6{fill:url(#SVGID_7_);}
	.st7{fill:url(#SVGID_8_);}
	.st8{fill:#CDEEFD;}
	.st9{fill:#111224;}
	.st10{fill:#005BAB;}
</style>
<g>
	
		<linearGradient id="SVGID_1_" gradientUnits="userSpaceOnUse" x1="249.2936" y1="420.9963" x2="289.6348" y2="420.9963" gradientTransform="matrix(-1 0 0 -1 1028.9943 531.0285)">
		<stop  offset="0" style="stop-color:#00AE4D"/>
		<stop  offset="0.2214" style="stop-color:#0C8D5A"/>
		<stop  offset="0.5722" style="stop-color:#1D5D6D"/>
		<stop  offset="0.8413" style="stop-color:#274079"/>
		<stop  offset="0.9944" style="stop-color:#2B357D"/>
	</linearGradient>
	<path class="st0" d="M779.7,112c-0.5,1.9-0.8,3.8-1.5,5.6c-3.2,8.1-11.4,13.5-20.6,12.6c-9.4-1-16.7-7.9-18-17
		c-1.7-11.5,6.3-22,17.8-23.2c10.9-1.2,20.9,6.8,22.1,17.6c0,0.2,0.1,0.4,0.2,0.6C779.7,109.4,779.7,110.7,779.7,112z M755.5,107.7
		c-1.1,0-2.1,0-3.1,0c-0.7,0-1.3,0.2-1.6,0.9c-0.3,0.7,0,1.3,0.4,1.8c2.3,2.7,4.7,5.4,7,8.1c1,1.2,1.8,1.2,2.9-0.1
		c2.3-2.7,4.5-5.4,6.8-8.1c0.5-0.6,0.7-1.1,0.5-1.8c-0.3-0.8-1-0.9-1.7-0.9c-1,0-1.9,0-3,0c0-1.7,0-3.3,0-4.9c0-1.1-0.3-1.4-1.4-1.4
		c-1.8,0-3.6,0-5.4,0c-1,0-1.4,0.3-1.4,1.4C755.5,104.3,755.5,105.9,755.5,107.7z"/>
	<linearGradient id="SVGID_2_" gradientUnits="userSpaceOnUse" x1="686.402" y1="83.0627" x2="773.5789" y2="83.0627">
		<stop  offset="0" style="stop-color:#00AE4D"/>
		<stop  offset="0.2214" style="stop-color:#0C8D5A"/>
		<stop  offset="0.5722" style="stop-color:#1D5D6D"/>
		<stop  offset="0.8413" style="stop-color:#274079"/>
		<stop  offset="0.9944" style="stop-color:#2B357D"/>
	</linearGradient>
	<path class="st1" d="M737.9,126.3c-0.5,0-0.9,0-1.2,0c-13.2,0-26.4,0-39.6,0c-6.3,0-10.7-4.4-10.7-10.7c0-20,0-39.9,0-59.9
		c0-6.1,4.4-10.5,10.5-10.5c5.2,0,10.4,0,15.7,0c0.5,0,1.1-0.2,1.6-0.5c5.7-4,12-5.4,18.8-4.7c4.9,0.4,9.4,2.1,13.4,5
		c0.3,0.2,0.7,0.3,1.1,0.3c5.2,0,10.4,0.1,15.6,0c5.7-0.1,9.7,4,10.4,8.4c0.1,0.7,0.2,1.4,0.2,2.1c0,10.1,0,20.2,0,30.2
		c0,0.3,0,0.6,0,1c-1-0.5-2-0.9-2.8-1.5c-0.2-0.1-0.3-0.6-0.3-1c0-9.6,0-19.1,0-28.7c0-3.1-1.3-5.4-4.1-6.7c-1-0.5-2.2-0.7-3.3-0.7
		c-5.4-0.1-10.9,0-16.3,0c-0.9,0-1.6-0.2-2.3-0.8c-3.5-2.8-7.6-4.2-12.1-4.6c-6-0.5-11.7,0.6-16.6,4.3c-1,0.8-2,1.1-3.3,1.1
		c-5.2,0-10.4,0-15.6,0c-4.6,0-7.6,3-7.6,7.6c0,19.8,0,39.7,0,59.5c0,5,2.9,7.8,7.9,7.8c12.5,0,24.9,0,37.4,0c0.9,0,1.4,0.2,1.8,1
		C736.9,124.9,737.4,125.5,737.9,126.3z"/>
	<linearGradient id="SVGID_3_" gradientUnits="userSpaceOnUse" x1="712.637" y1="66.5754" x2="747.8466" y2="66.5754">
		<stop  offset="0" style="stop-color:#00AE4D"/>
		<stop  offset="0.2214" style="stop-color:#0C8D5A"/>
		<stop  offset="0.5722" style="stop-color:#1D5D6D"/>
		<stop  offset="0.8413" style="stop-color:#274079"/>
		<stop  offset="0.9944" style="stop-color:#2B357D"/>
	</linearGradient>
	<path class="st2" d="M730.2,84.2c-9.7,0-17.6-7.9-17.6-17.7c0-9.6,8-17.5,17.6-17.5c9.8,0,17.7,8,17.6,17.7
		C747.8,76.4,739.9,84.2,730.2,84.2z M714.8,65.5c0.9,0,1.6,0,2.4,0c0.7,0,1.3,0.2,1.3,1.1c0,0.8-0.6,1.1-1.3,1.1
		c-0.8,0-1.6,0-2.4,0c0.3,3.5,1.5,6.5,3.8,9.1c0.5-0.5,1-1,1.4-1.5c0.5-0.5,1.1-0.7,1.7-0.2c0.6,0.5,0.4,1.2-0.1,1.7
		c-0.5,0.5-1,0.9-1.6,1.4c2.8,2.3,5.7,3.6,9.2,3.8c0-0.7,0-1.3,0-1.8c0-0.8,0.3-1.3,1.1-1.3c0.7,0,1,0.5,1,1.2c0,0.6,0,1.2,0,1.9
		c3.6-0.3,6.5-1.5,9.2-3.8c-0.6-0.5-1-1-1.5-1.4c-0.5-0.5-0.6-1.1-0.1-1.7c0.5-0.5,1.1-0.4,1.6,0.2c0.5,0.5,0.9,1,1.4,1.5
		c2.3-2.8,3.6-5.8,3.7-9.3c-0.8,0-1.4,0-2.1,0c-0.9,0-1.4-0.5-1.4-1.1c0.1-0.8,0.6-1.1,1.3-1c0.7,0,1.4,0,2.1,0
		c-0.3-3.5-1.6-6.4-4-9.1c-0.5,0.5-0.8,1-1.2,1.4c-0.5,0.5-1.1,0.7-1.7,0.1c-0.5-0.5-0.4-1.1,0.1-1.6c0.4-0.4,0.9-0.8,1.4-1.3
		c-2.7-2.2-5.6-3.4-9.1-3.7c0,0.8,0,1.6,0,2.3c0,0.7-0.3,1.3-1.1,1.3c-0.8,0-1.1-0.5-1.1-1.3c0-0.8,0-1.5,0-2.3
		c-3.4,0.3-6.4,1.5-9,3.8c0.6,0.5,1.1,1,1.6,1.5c0.5,0.5,0.7,1.1,0.1,1.7c-0.5,0.5-1.1,0.4-1.6-0.1c-0.5-0.5-0.9-1-1.4-1.6
		C716.3,59.1,715.2,62,714.8,65.5z"/>
	<linearGradient id="SVGID_4_" gradientUnits="userSpaceOnUse" x1="716.556" y1="115.371" x2="733.4299" y2="115.371">
		<stop  offset="0" style="stop-color:#00AE4D"/>
		<stop  offset="0.2214" style="stop-color:#0C8D5A"/>
		<stop  offset="0.5722" style="stop-color:#1D5D6D"/>
		<stop  offset="0.8413" style="stop-color:#274079"/>
		<stop  offset="0.9944" style="stop-color:#2B357D"/>
	</linearGradient>
	<path class="st3" d="M716.6,117.3c0-0.2-0.1-0.4-0.1-0.6c0-1,0-2.1,0-3.1c5.4,0,10.7,0,16.1,0c0.2,1.2,0.5,2.5,0.8,3.8
		C727.8,117.3,722.2,117.3,716.6,117.3z"/>
	<linearGradient id="SVGID_5_" gradientUnits="userSpaceOnUse" x1="759.1" y1="57.4209" x2="764.9484" y2="57.4209">
		<stop  offset="0" style="stop-color:#00AE4D"/>
		<stop  offset="0.2214" style="stop-color:#0C8D5A"/>
		<stop  offset="0.5722" style="stop-color:#1D5D6D"/>
		<stop  offset="0.8413" style="stop-color:#274079"/>
		<stop  offset="0.9944" style="stop-color:#2B357D"/>
	</linearGradient>
	<path class="st4" d="M764.9,57.4c0,1.6-1.3,3-2.9,3c-1.6,0-2.9-1.3-2.9-3c0-1.6,1.3-2.9,2.9-2.9C763.6,54.4,764.9,55.7,764.9,57.4z
		"/>
	<linearGradient id="SVGID_6_" gradientUnits="userSpaceOnUse" x1="695.0318" y1="57.4123" x2="700.9091" y2="57.4123">
		<stop  offset="0" style="stop-color:#00AE4D"/>
		<stop  offset="0.2214" style="stop-color:#0C8D5A"/>
		<stop  offset="0.5722" style="stop-color:#1D5D6D"/>
		<stop  offset="0.8413" style="stop-color:#274079"/>
		<stop  offset="0.9944" style="stop-color:#2B357D"/>
	</linearGradient>
	<path class="st5" d="M700.9,57.4c0,1.6-1.4,3-3,2.9c-1.6,0-2.9-1.4-2.9-3c0-1.6,1.4-2.9,2.9-2.9C699.6,54.5,700.9,55.8,700.9,57.4z
		"/>
	<linearGradient id="SVGID_7_" gradientUnits="userSpaceOnUse" x1="695.0323" y1="115.3878" x2="700.9096" y2="115.3878">
		<stop  offset="0" style="stop-color:#00AE4D"/>
		<stop  offset="0.2214" style="stop-color:#0C8D5A"/>
		<stop  offset="0.5722" style="stop-color:#1D5D6D"/>
		<stop  offset="0.8413" style="stop-color:#274079"/>
		<stop  offset="0.9944" style="stop-color:#2B357D"/>
	</linearGradient>
	<path class="st6" d="M700.9,115.3c0,1.6-1.3,3-2.9,3c-1.6,0-3-1.3-3-2.9c0-1.6,1.3-2.9,2.9-2.9
		C699.5,112.4,700.9,113.7,700.9,115.3z"/>
	<linearGradient id="SVGID_8_" gradientUnits="userSpaceOnUse" x1="729.0515" y1="64.1856" x2="737.2925" y2="64.1856">
		<stop  offset="0" style="stop-color:#00AE4D"/>
		<stop  offset="0.2214" style="stop-color:#0C8D5A"/>
		<stop  offset="0.5722" style="stop-color:#1D5D6D"/>
		<stop  offset="0.8413" style="stop-color:#274079"/>
		<stop  offset="0.9944" style="stop-color:#2B357D"/>
	</linearGradient>
	<path class="st7" d="M730.2,68.8c-0.4-0.3-0.9-0.5-1.1-0.9c-0.2-0.4-0.2-1.1,0.1-1.4c1.9-2.2,3.8-4.4,5.7-6.6
		c0.5-0.6,1.2-0.5,1.8,0c0.6,0.5,0.7,1.2,0.2,1.8c-1.9,2.2-3.8,4.4-5.7,6.5C731.1,68.5,730.7,68.6,730.2,68.8z"/>
</g>
<path class="st8" d="M1465.3,1556.3c-2.4-0.2-4.3-1.3-4.4-4.1c-0.1-6.7,1.6-10,4.9-9.9c0.2,0,0.3,0,0.5,0c2.2,0.5,4.3,2.1,3.2,4
	C1467.7,1549.5,1473.1,1555.7,1465.3,1556.3z M1465.5,1554.4c1.3-0.1,2.3-0.6,2.3-2.1c-0.1-1.7-1.5-2.1-2.8-2.4c-1.6-0.4-2,0.8-2,2
	C1463,1553.5,1464,1554.2,1465.5,1554.4z M1467.8,1546.5c0-1.4-0.6-2.2-2.1-2.2c-0.9,0-1.6,0.4-1.7,1.4c-0.2,1.4,0.9,2.1,2,2.5
	C1467.3,1548.5,1467.6,1547.5,1467.8,1546.5z"/>
<path class="st8" d="M1455.8,1556.6c-0.5-2.9-1.8-4.2-4.6-3.6c-0.7,0.2-1.7,0.3-2.1-0.8c-0.4-1.1,0.1-1.5,1.2-2.1
	c2.1-1.2,2.1-3.9,3.2-5.8c0.6-1,1-2.2,2.5-1.9c1.4,0.3,0.9,1.6,0.8,2.5C1456.4,1548.6,1458.4,1552.5,1455.8,1556.6z"/>
<path class="st9" d="M1465.5,1554.4c-1.5-0.1-2.6-0.8-2.5-2.4c0-1.2,0.4-2.4,2-2c1.2,0.3,2.7,0.7,2.8,2.4
	C1467.8,1553.7,1466.8,1554.2,1465.5,1554.4z"/>
<path class="st9" d="M1467.8,1546.5c-0.2,1-0.5,2.1-1.8,1.7c-1.1-0.4-2.1-1-2-2.5c0.1-1,0.8-1.4,1.7-1.4
	C1467.2,1544.3,1467.8,1545,1467.8,1546.5z"/>
<polygon class="st10" points="1346.8,29.4 1346.9,29.6 1346.6,29.6 "/>
<g>
	<path class="st10" d="M44.5,0.6c1.1,0,2.1,0,3.2,0c1.8,1,3.5,2,5.3,2.9c0.4,0.2,0.9,0.2,1.3,0.1c2.8-0.6,5.6-1.4,8.5-1.9
		c2.6-0.5,5.3-0.7,7.9-1.1c2.9,0,5.8,0,8.7,0c0.4,0.1,0.8,0.2,1.3,0.2c12.2,0.9,23.5,4.7,33.9,11.1c0.6,0.4,1.4,0.6,2.2,0.6
		c2.8,0.1,5.6,0,8.4,0c6.7,0.1,12.1,4,14,10c1.4,4.3,0.7,8.3-1.5,12.2c0.3,0.6,0.7,1.1,1,1.6c9.8,16.4,13.1,34,9.5,52.8
		c-3.3,17.1-11.6,31.3-24.9,42.5c-16.8,14.2-36.3,19.9-58.1,17.1c-15.1-1.9-28.3-8.2-39.6-18.3C12.7,119,4.7,104.7,1.7,87.8
		c-0.5-2.7-0.8-5.5-1.1-8.2c0-3.1,0-6.2,0-9.3c0.1-0.1,0.2-0.3,0.2-0.4c0.6-4.1,1.3-8.2,1.9-12.3c0-0.3,0-0.7-0.1-1
		c-0.6-1.4-1.3-2.8-2-4.1c0-1.1,0-2.1,0-3.2c0.7-1.4,1.1-2.9,2-4.1c2.6-3.5,7.5-4.8,11.9-3.3c1.5,0.5,2.9,1.1,4.4,1.6
		c1.8,0.6,3.1-0.3,3.3-2.1c0.1-0.9,0.1-1.7,0.2-2.6c0.1-1.4-0.4-2.3-1.7-2.9c-1.5-0.7-3.1-1.3-4.6-2.1C9.2,30.2,8.1,21.5,13.9,17
		c4.8-3.8,12.1-1.9,15.2,3.9c0.4,0.8,0.8,1.5,1.1,2.2c2.8-1.6,5.6-3.2,8.4-4.8c-0.4-1.2-1-2.6-1.5-4c-1.6-5.1,0.3-10.4,4.7-12.6
		C42.7,1.2,43.6,0.9,44.5,0.6z M30.1,78.9c-0.1,0.3-0.3,0.8-0.6,1.2c-0.9,1.3-1.7,2.8-2.8,3.9c-3.9,3.9-9.7,4.1-13.6,0.4
		c-3.8-3.7-3.9-9.6-0.2-13.7c1.6-1.8,3.8-2.8,5.9-3.8c3-1.3,3.5-2.2,3.3-5.5c-0.2-2.9-1.4-3.7-4.1-2.6c-3.5,1.4-7.1,2.6-10.9,1.4
		c-5.5,15.2,1.7,47,12.8,57.2c2.8-3.8,6.5-6.1,11.3-6.2c8.4-0.1,16.8-0.1,25.1,0c8.8,0.1,15.4,8.7,13.5,17.3
		c-1.5,6.7-7,11.3-13.9,11.5c-1.8,0-3.7,0-5.9,0c7.4,3.6,22,5.4,31.1,4.6c12.5-1.1,25.7-6.8,29.3-9.8c-0.2-0.1-0.4-0.2-0.6-0.2
		c-6.5-1.3-11.9-4.5-16.5-9.2c-14.1-14.3-15.1-39.1-2.3-54.7c6.6-8.1,15.1-12.6,25.8-12.3c9.2,0.3,16.6,4.4,22.6,11.3
		c1.8,2.1,3.3,4.4,5,6.8c0.2-13.8-3.3-26.3-10.4-37.9c-2.5,1.8-5.1,2.9-8,2.9c-8.5,0-17.1,0.2-25.6,0c-5.7-0.1-9.8-3.1-12.2-8.2
		C86,28,86.6,23,89.9,18.4c3-4,7.1-5.8,12.1-5.8c1,0,2,0,3,0C89,4.7,72.5,3.4,55.4,8.2c1.2,3.8-0.5,7-1.7,10.2
		c1.6,0.8,3,1.4,4.3,2.1c1.4,0.8,2.7,1.8,4.1,2.7c0.4-0.8,0.8-1.6,1.2-2.4c3.2-6,10.6-7.7,15.4-3.6c5.3,4.5,4.1,13.1-2.4,16.6
		c-1.3,0.7-2.7,1.3-4.1,1.9c-1.6,0.7-2.2,1.8-2.2,3.5c0,4.4,1.4,5.4,5.4,3.6c2.6-1.2,5.3-1.8,8.2-1.3c4.4,0.7,7.9,4.5,8.2,8.9
		c0.3,4.4-2.7,8.5-7,9.7c-2.4,0.7-4.8,0.6-7.1-0.2c-1.3-0.5-2.6-1-3.9-1.5c-2-0.7-3.3,0.2-3.5,2.3c-0.1,0.9-0.1,1.7-0.2,2.6
		c-0.1,1.2,0.4,2,1.5,2.5c1.3,0.6,2.8,1,3.9,1.8c1.8,1.2,3.7,2.5,4.9,4.2c4.1,5.5,1,13.3-5.7,14.7c-4.5,1-9.3-1.5-11.6-5.9
		c-0.4-0.7-0.7-1.4-0.9-1.9c-2.9,1.6-5.6,3.2-8.4,4.8c0.3,0.9,0.9,1.9,1.1,3c0.4,1.8,0.8,3.7,0.8,5.5c-0.1,4.3-3.2,8-7.3,8.9
		c-4.2,1-8.4-0.8-10.5-4.6c-1.6-2.9-1.8-5.9-0.8-9c0.4-1.4,1-2.7,1.4-3.8C35.6,82.1,32.9,80.5,30.1,78.9z M63.4,69.8
		c1.3,2.9,2.4,5.6,3.8,8.2c0.6,1.2,1.5,2.3,2.5,3.1c1.5,1.3,4,1.3,5.6,0.3c1.6-1,2.5-3,2.1-4.9c-0.4-2.1-1.9-3.4-3.6-4.3
		c-1.5-0.8-3-1.3-4.5-2.1c-2.7-1.4-4-3.6-4-6.6c0-1.2,0.1-2.4,0.2-3.6c0.4-4.4,4.8-7.4,9-6.2c1.5,0.4,2.9,1.1,4.4,1.5
		c1.2,0.3,2.5,0.5,3.7,0.5c2.1,0,3.9-1.7,4.3-3.7c0.5-2.1-0.5-4.1-2.4-5.2c-1.7-1-3.5-1-5.3-0.3c-1.6,0.5-3.1,1.2-4.6,1.7
		c-3.9,1.1-8-1.1-8.8-5.1c-0.4-1.6-0.4-3.4-0.3-5c0.1-2.9,1.7-5.1,4.3-6.4c1.2-0.6,2.6-1.1,3.8-1.8c1-0.6,2-1.4,2.8-2.3
		c1.7-2.1,1.4-4.9-0.4-6.6c-1.9-1.7-4.7-1.7-6.7,0.3c-0.8,0.8-1.5,1.8-2,2.8c-1.3,2.6-2.4,5.2-3.8,8.1c-4-5.9-9.2-9.5-16.1-10.2
		c1.1-3,2.3-5.8,3.2-8.6c0.4-1.2,0.5-2.6,0.4-3.8c-0.2-2.4-2.4-4.3-4.7-4.3c-2.4,0-4.5,1.8-4.7,4.3c-0.1,1.3,0.1,2.7,0.5,4
		c0.9,2.8,2,5.5,3.1,8.5c-7.1,0.7-12.2,4.3-16.2,10.1c-1.3-3-2.5-5.7-3.8-8.2c-0.6-1.2-1.5-2.3-2.5-3.1c-1.6-1.3-4-1.3-5.6-0.3
		c-1.6,1.1-2.5,3.1-2,5.1c0.5,2,1.9,3.2,3.7,4.1c1.4,0.7,2.9,1.3,4.3,2c2.6,1.3,4,3.5,4,6.4c0,1.3-0.1,2.5-0.2,3.8
		c-0.5,4.8-5,7.6-9.5,6.2c-1.3-0.4-2.6-1.1-4-1.4c-1.1-0.3-2.3-0.5-3.4-0.5c-2.6,0.1-4.7,2.3-4.7,4.8c0,2.7,2.1,4.7,4.9,4.7
		c1.1,0,2.2-0.2,3.3-0.5c1.5-0.4,2.9-1.1,4.4-1.5c3.9-1.1,8,1.3,8.8,5.2c0.3,1.3,0.3,2.7,0.3,4c0,3.5-1.7,6-4.7,7.6
		c-1.1,0.6-2.4,0.9-3.4,1.6c-1.1,0.7-2.2,1.5-2.9,2.5c-1.5,2-1.1,4.7,0.5,6.2c1.7,1.6,4.3,1.8,6.1,0.3c1-0.9,1.9-2,2.6-3.3
		c1.3-2.6,2.4-5.3,3.8-8.2c4,5.8,9.1,9.5,16.2,10.1c-1.1,3-2.3,5.7-3.1,8.5c-0.4,1.3-0.6,2.8-0.4,4.1c0.3,2.6,2.5,4.2,5,4.1
		c2.5-0.2,4.3-2.1,4.4-4.7c0-1.2-0.2-2.4-0.6-3.5c-0.9-2.7-2-5.4-3.1-8.4C54.3,79.2,59.4,75.6,63.4,69.8z M133.1,113.2
		c4.7-6.7,9-17.4,10.2-24.8c0.1-0.6,0.1-1.4-0.1-2c-1.3-4.6-3.3-8.9-6.3-12.6c-10.7-13.6-29-14.3-40.6-1.8
		c-12.1,13.2-12.4,35.3-0.5,48.7c5.3,5.9,11.8,9.3,19.8,9.6c1.2,0,2.3-0.2,3.2-1.1c3.1-3,6.3-5.9,9.2-9.1c2.7-3,3.1-2.4-0.1-5.7
		c-1.5-1.6-2.4-3.3-2.3-5.7c1.6,0,3.1,0,4.1,0C130.9,110.4,131.9,111.7,133.1,113.2z M113.4,36.5c0.2,0.1,0.4,0.1,0.5,0.1
		c3.9,0,7.7,0.1,11.6,0c5.3-0.1,9.4-4.4,9.4-9.6c0-5.3-4.1-9.5-9.5-9.5c-8-0.1-16.1-0.1-24.1,0c-5.1,0-9.3,4-9.5,8.9
		c-0.3,5.3,3.3,9.8,8.6,10.2c3.6,0.3,7.3,0.1,11.1,0.1c-3.4-1.6-6.5-6.1-5.1-9.5c1.8,0,3.3,0.5,4.4,2c1.5,2,3.3,3.9,2.6,6.8
		C113.4,36,113.4,36.2,113.4,36.5z M29.4,127.8c3.1,2.2,6.1,4.4,9.3,6.5c0.7,0.4,1.6,0.7,2.4,0.7c4.6,0.1,9.3,0,13.9,0
		c1,0,2,0,3-0.3c4.7-1.1,7.9-5.6,7.3-10.3c-0.6-5-4.5-8.6-9.7-8.6c-7.9-0.1-15.9-0.1-23.8,0c-3.6,0-6.3,1.6-8.2,4.7
		c-0.2,0.3-0.4,1-0.2,1.1c1.1,1.2,2.3,2.2,3.6,3.5c0-0.7,0-1.3,0-1.9c2.7-2.6,5.1-5.6,9.5-4.8c0,1.5,0,3,0,4.6
		c-2-0.1-3.3,0.7-4.3,2.2C31.5,126.2,30.5,126.8,29.4,127.8z"/>
	<path class="st10" d="M48.6,53.3c0-1.5,0-3,0-4.6c1.5,0,3,0,4.6,0c0,1.5,0,3,0,4.6C51.8,53.3,50.2,53.3,48.6,53.3z"/>
	<path class="st10" d="M58.2,53.3c0-1.6,0-3.1,0-4.6c1.5,0,3.1,0,4.7,0c0,1.5,0,3,0,4.6C61.4,53.3,59.8,53.3,58.2,53.3z"/>
	<path class="st10" d="M36.5,65.3c-1.5,0-3,0-4.6,0c0-1.5,0-3,0-4.6c1.5,0,3,0,4.6,0C36.5,62.2,36.5,63.7,36.5,65.3z"/>
	<path class="st10" d="M34.3,53.3c0-1.5,0-3,0-4.6c1.5,0,3,0,4.6,0c0,1.5,0,3,0,4.6C37.4,53.3,35.9,53.3,34.3,53.3z"/>
	<path class="st10" d="M31.8,41.2c0-1.5,0-3,0-4.5c1.5,0,3.1,0,4.7,0c0,1.4,0,2.9,0,4.5C35,41.2,33.5,41.2,31.8,41.2z"/>
	<path class="st10" d="M60.5,60.7c0,1.6,0,3.1,0,4.6c-1.5,0-3,0-4.6,0c0-1.5,0-3,0-4.6C57.4,60.7,58.9,60.7,60.5,60.7z"/>
	<path class="st10" d="M48.5,70.3c0,1.6,0,3.1,0,4.6c-1.5,0-3,0-4.6,0c0-1.5,0-3,0-4.6C45.4,70.3,46.9,70.3,48.5,70.3z"/>
	<path class="st10" d="M48.5,63c-1.6,0-3,0-4.5,0c0-1.6,0-3.1,0-4.7c1.5,0,3,0,4.5,0C48.5,59.8,48.5,61.3,48.5,63z"/>
	<path class="st10" d="M43.9,36.7c1.5,0,3,0,4.5,0c0,1.5,0,3,0,4.6c-1.5,0-3,0-4.5,0C43.9,39.8,43.9,38.3,43.9,36.7z"/>
	<path class="st10" d="M55.9,38.9c0-1.6,0-3.1,0-4.6c1.5,0,3,0,4.6,0c0,1.5,0,3,0,4.6C58.9,38.9,57.5,38.9,55.9,38.9z"/>
	<path class="st10" d="M43.9,27.1c1.5,0,3,0,4.5,0c0,1.5,0,3,0,4.6c-1.5,0-3,0-4.5,0C43.9,30.2,43.9,28.7,43.9,27.1z"/>
	<path class="st10" d="M113.4,67.8c1.6,0,3.1,0,4.9,0c-0.4,3.7,2.4,5.4,4.6,7.5c3.5,3.3,5.2,7.3,4.8,11.5c-1.5,0-3,0-4.6,0
		c-0.1-0.6-0.1-1.3-0.2-1.9c-0.3-2.6-1.6-4.7-3.6-6.4c-1.4-1.3-2.8-2.6-4-4.1C113.9,72.6,113.5,70.3,113.4,67.8z"/>
	<path class="st10" d="M103.7,106.1c-1.6,0-3.1,0-4.7,0c0.2-4.1-2.3-6.8-4.4-9.9c-2.1-3-3-6.2-2.7-9.3c0.7,0,1.5,0,2.2,0
		c0.7,0,1.4,0,2.3,0c0.1,1,0.1,2.1,0.5,2.9c0.9,1.9,1.9,3.9,3.1,5.7C102.7,99.4,103.9,102.5,103.7,106.1z"/>
	<path class="st10" d="M127.8,101.4c0,1.7,0,3.1,0,4.7c-3.2,0.2-6.4,0-9.1-1.7c-3-1.9-6.1-3.3-9.9-2.9c0-1.7,0-3.2,0-4.9
		c3.1,0,6.3,0,9,1.7C120.8,100.3,124,101.7,127.8,101.4z"/>
	<path class="st10" d="M113.3,110.6c-2,0.8-3.8,1.3-5.4,2.2c-3.5,1.9-7,3.2-11.2,3c0-1.5,0-3,0-4.7c3.8,0.2,7-1.6,10.2-3.2
		c1.9-1,4.1-1.3,6.4-1.9C113.3,107.8,113.3,109.4,113.3,110.6z"/>
	<path class="st10" d="M105.8,89.4c-1.3,0-2.8,0-4.3,0c-0.6-5,1.9-9.4,2.3-14.3c1.5,0,3.1,0,4.9,0C107.8,79.9,106.8,84.5,105.8,89.4
		z"/>
	<path class="st10" d="M137.4,103.8c-1.6,0-3.1,0-4.2,0c-1.1-1.4-2-2.7-3.1-3.8c-1.4-1.6-2.4-3.4-2.2-5.6c1.6,0,3,0,4.1,0
		c1,1.3,1.8,2.5,2.8,3.5C136.3,99.5,137.4,101.3,137.4,103.8z"/>
	<path class="st10" d="M114,82.3c1,0,2.5,0,4.1,0c0.1,2.3-0.8,4-2.2,5.6c-1,1.2-1.9,2.4-3.1,3.8c-1.1,0-2.6,0-4.1,0
		c-0.1-2.4,0.9-4.1,2.4-5.8C112,84.9,112.9,83.7,114,82.3z"/>
	<path class="st10" d="M115.9,111.1c1.6,0,3.1,0,4.2,0c1,1.3,1.8,2.5,2.8,3.5c1.5,1.7,2.6,3.5,2.5,5.9c-1.5,0-3,0-4.2,0
		c-1-1.3-1.9-2.6-2.9-3.7C116.8,115.3,115.8,113.5,115.9,111.1z"/>
	<path class="st10" d="M139.8,91.8c-1.4,0-2.7,0-4,0c-0.3,0-0.6-0.2-0.8-0.5c-0.8-1.1-1.6-2.4-2.5-3.5c-1.4-1.6-2.3-3.3-2.2-5.6
		c1.4,0,2.7,0,4.1,0c0.2,0,0.5,0.2,0.7,0.4c0.9,1.2,1.6,2.5,2.6,3.6C138.9,87.8,139.8,89.5,139.8,91.8z"/>
	<path class="st10" d="M115.7,125.3c-1.6,0-3,0-4.1,0c-1.1-1.4-2-2.6-3-3.7c-1.4-1.6-2.4-3.4-2.3-5.7c1.6,0,3,0,4.1,0
		c1.1,1.4,2,2.6,3,3.7C114.8,121.2,115.8,123,115.7,125.3z"/>
	<path class="st10" d="M96.6,29.3c0-1.6,0-3.1,0-4.5c0.2,0.2,0.4,0.4,0.7,0.6c0.5-0.8,0.8-1.7,1.4-2.4c1.8-2.5,4.4-3.3,7.4-3.3
		c0,1.6,0,3.1,0,4.8c-2.3-0.3-3.5,1.2-4.7,2.7C100.2,28.8,98.6,29.4,96.6,29.3z"/>
	<path class="st10" d="M132.6,31.7c-1.6,0-3.1,0-4.1,0c-1.2-1.4-2.1-2.7-3.1-3.8c-1.4-1.6-2.3-3.4-2.3-5.7c1.6,0,3.1,0,4.2,0
		c1.1,1.4,2,2.6,2.9,3.7C131.6,27.6,132.6,29.3,132.6,31.7z"/>
	<path class="st10" d="M111.3,19.8c1.7,0,3.3,0.5,4.4,2c1.7,2.2,3.6,4.3,2.3,7.6c-1.6,0.1-3.1-0.4-4.2-1.8
		C111.9,25.3,110.1,23.1,111.3,19.8z"/>
	<path class="st10" d="M53.5,120.7c1.6,0,3.1,0,4.1,0c1,1.3,1.9,2.5,2.8,3.5c1.5,1.7,2.5,3.5,2.5,5.9c-1.6,0-3.1,0-4.2,0
		c-1.1-1.4-1.9-2.6-2.9-3.7C54.4,124.9,53.4,123.1,53.5,120.7z"/>
	<path class="st10" d="M41.6,123.1c1.7,0,3.2,0.5,4.3,1.9c1.7,2.2,3.6,4.4,2.4,7.6c-1.6,0.1-3.1-0.4-4.1-1.7
		C42.4,128.7,40.3,126.5,41.6,123.1z"/>
</g>
</svg>
