<?xml version="1.0" encoding="utf-8"?>
<!-- Generator: Adobe Illustrator 24.3.0, SVG Export Plug-In . SVG Version: 6.00 Build 0)  -->
<svg version="1.1" id="Layer_1" xmlns="http://www.w3.org/2000/svg" xmlns:xlink="http://www.w3.org/1999/xlink" x="0px" y="0px"
	 viewBox="0 0 150 150" style="enable-background:new 0 0 150 150;" xml:space="preserve">
<style type="text/css">
	.st0{fill:#CDEEFD;}
	.st1{fill:#111224;}
	.st2{fill:#005BAB;}
</style>
<path class="st0" d="M1465.3,1556.3c-2.4-0.2-4.3-1.3-4.4-4.1c-0.1-6.7,1.6-10,4.9-9.9c0.2,0,0.3,0,0.5,0c2.2,0.5,4.3,2.1,3.2,4
	C1467.7,1549.5,1473.1,1555.7,1465.3,1556.3z M1465.5,1554.4c1.3-0.1,2.3-0.6,2.3-2.1c-0.1-1.7-1.5-2.1-2.8-2.4c-1.6-0.4-2,0.8-2,2
	C1463,1553.5,1464,1554.2,1465.5,1554.4z M1467.8,1546.5c0-1.4-0.6-2.2-2.1-2.2c-0.9,0-1.6,0.4-1.7,1.4c-0.2,1.4,0.9,2.1,2,2.5
	C1467.3,1548.5,1467.6,1547.5,1467.8,1546.5z"/>
<path class="st0" d="M1455.8,1556.6c-0.5-2.9-1.8-4.2-4.6-3.6c-0.7,0.2-1.7,0.3-2.1-0.8c-0.4-1.1,0.1-1.5,1.2-2.1
	c2.1-1.2,2.1-3.9,3.2-5.8c0.6-1,1-2.2,2.5-1.9c1.4,0.3,0.9,1.6,0.8,2.5C1456.4,1548.6,1458.4,1552.5,1455.8,1556.6z"/>
<path class="st1" d="M1465.5,1554.4c-1.5-0.1-2.6-0.8-2.5-2.4c0-1.2,0.4-2.4,2-2c1.2,0.3,2.7,0.7,2.8,2.4
	C1467.8,1553.7,1466.8,1554.2,1465.5,1554.4z"/>
<path class="st1" d="M1467.8,1546.5c-0.2,1-0.5,2.1-1.8,1.7c-1.1-0.4-2.1-1-2-2.5c0.1-1,0.8-1.4,1.7-1.4
	C1467.2,1544.3,1467.8,1545,1467.8,1546.5z"/>
<polygon class="st2" points="1346.8,29.4 1346.9,29.6 1346.6,29.6 "/>
<g>
	<path class="st2" d="M107.2,6.1c1.5,2.8,1.2,5.7,0.6,8.6c-1.3,7-4.8,13-9.4,18.2c-2.8,3.2-6.1,5.9-9.1,8.9
		c-0.3,0.2-0.5,0.5-0.9,0.8c0.9,0.9,1.8,1.7,2.7,2.5c5.6,5.3,10.4,11.2,13.4,18.3c4.5,10.5,2.7,20.4-3.5,29.7
		c-3.3,5-7.3,9.3-11.9,13.1c-0.6,0.5-1.1,1-1.7,1.5c-0.1,0.1-0.1,0.2-0.3,0.4c0.5,0.5,1.1,1,1.6,1.5c6.3,5.9,11.8,12.3,14.9,20.5
		c0.9,2.3,1.4,4.8,1.8,7.2c0.5,2.7,0.4,5.4-1,7.9c-0.7,0.6-1.3,1.3-2,1.9c-1,0.3-2,0.8-3,1c-4,0.7-7.6-1.9-8.4-5.9
		c-0.1-0.3-0.1-0.6-0.1-0.8c-11.4-0.2-22.8-0.5-34.3-0.7c-0.4,1.9-1.2,3.8-3.1,5.1c-2.5,1.7-5.1,1.9-7.7,0.5c-2.7-1.4-4-3.8-4-6.8
		c0.1-5.4,1.8-10.4,4.5-15.1c3.6-6.2,8.5-11.4,14-15.9c0.4-0.3,0.8-0.6,1.3-1.1c-0.9-0.8-1.7-1.6-2.5-2.4
		c-5.2-4.8-9.6-10.2-12.8-16.6c-4.9-10.1-4.3-19.9,1.3-29.5c3.4-5.8,7.9-10.7,13-15c0.7-0.6,1.4-1.3,2.3-2c-0.6-0.5-1-0.9-1.5-1.4
		C55,34.8,49.5,28.3,46.3,20c-1.3-3.4-2-7-2-10.7c0.1-4.2,3.2-7.5,7.3-7.5c4.2-0.1,7.4,3.1,7.5,7.4c0,0.7,0.1,1.4,0.1,1.9
		c11.4,0.2,22.6,0.5,34,0.7c0-0.5,0.1-1.1,0.2-1.7c0.4-6,6-9.1,11.3-6.2c0.2,0.1,0.3,0.1,0.5,0.2C105.9,4.7,106.5,5.4,107.2,6.1z
		 M90.9,35c2.4-3,5-5.8,7.2-8.9c3.3-4.6,5.5-9.7,5.7-15.5c0.1-2-1.1-3.4-2.9-3.6c-1.8-0.1-3.2,1.2-3.3,3.2
		c-0.2,4.1-1.6,7.8-3.9,11.3C88.9,29,82.3,34.6,74.7,39.3C66,44.6,58.2,50.8,52.5,59.4c-6.5,9.7-7,19.7-1,29.8
		c5.1,8.6,12.3,15.2,20.5,20.7c6.6,4.4,12.5,9.4,17.3,15.8c3.3,4.3,5.6,9.1,5.8,14.7c0.1,2.2,1.3,3.6,3.2,3.6c1.9,0,3.1-1.5,3-3.7
		c0-4.5-1.3-8.7-3.4-12.6c-5-9.2-12.4-16.2-20.9-21.9c-7.4-5-14.1-10.6-19-18.1c-5.3-8-5.9-16.1-0.5-24.3c4.6-7.1,10.6-12.6,17.7-17
		C80.6,42.9,86,39.3,90.9,35z M79.4,48.8c0.3,0.3,0.4,0.4,0.5,0.5c0.2,0.2,0.5,0.4,0.7,0.6c4.4,3.7,8.4,7.8,11.5,12.6
		c5.3,8.1,5.7,16.2,0.3,24.4c-2.9,4.4-6.6,8.2-10.6,11.6c-1.2,1-2.3,1.9-3.6,2.9c1.8,1.3,3.5,2.5,5.2,3.7c6.5-5.3,12.4-11,16.2-18.6
		c3.4-6.9,3.8-13.9,0.9-21c-3.4-8.3-9.3-14.5-15.9-20.3C83,46.5,81.2,47.6,79.4,48.8z M70.2,113.9c-1.3-0.9-2.7-1.7-3.8-2.8
		c-1-0.9-1.6-0.7-2.5,0c-4.3,3.5-8.3,7.4-11.6,11.9c-3.5,4.8-6,10.1-6.3,16.2c-0.1,2.1,1,3.6,2.8,3.7c1.9,0.1,3-1.2,3.4-3.4
		c0.4-2.4,0.9-4.9,1.8-7.2c1.7-4.4,4.7-8,8.1-11.3C64.7,118.6,67.5,116.4,70.2,113.9z M71.9,35.9c-4.3-3.5-8.1-7.1-11.2-11.3
		c-3.3-4.5-5.8-9.2-5.9-15c0-2.1-1.3-3.5-3.1-3.5c-1.8,0-3.2,1.5-3,3.5c0.3,2.7,0.5,5.5,1.4,8c3,8.8,9,15.4,15.9,21.3
		c0.2,0.2,0.8,0.3,1.1,0.2C68.6,38.1,70.2,37,71.9,35.9z M57.9,77.5c11.5,0.2,22.6,0.5,34,0.7c0-1.9,0.1-3.9,0.1-5.7
		c-11.4-0.2-22.5-0.5-34-0.7C58,73.7,58,75.7,57.9,77.5z M59.6,82.4c1.2,1.9,2.4,3.7,3.7,5.5c0.2,0.3,0.8,0.5,1.2,0.5
		c6.8,0.2,13.6,0.3,20.3,0.4c0.4,0,0.9-0.1,1.1-0.3c1.4-1.8,2.7-3.7,4-5.5C79.8,82.8,69.9,82.6,59.6,82.4z M60.1,66.9
		c10.1,0.2,20,0.4,30.1,0.6c-1.2-1.7-2.4-3.6-3.6-5.4c-0.2-0.3-0.8-0.5-1.2-0.5c-6.7-0.2-13.5-0.3-20.2-0.4c-0.5,0-1.1,0.3-1.4,0.6
		C62.5,63.5,61.3,65.3,60.1,66.9z M90.4,136.6c-0.6-1.4-1.2-2.9-2-4.4c-0.2-0.3-0.7-0.7-1.1-0.7c-9-0.2-17.9-0.4-26.9-0.5
		c-0.4,0-0.9,0.3-1.1,0.6c-0.8,1.4-1.5,2.9-2.2,4.4C68.3,136.2,79.2,136.4,90.4,136.6z M60.5,15.9c0.9,1.5,1.6,3,2.6,4.4
		c0.3,0.4,0.9,0.8,1.4,0.8c7.8,0.2,15.5,0.4,23.3,0.5c0.4,0,0.9-0.1,1.1-0.3c1.1-1.5,2-3.1,3-4.7C81.3,16.4,71,16.2,60.5,15.9z
		 M74.4,116.5c-4.3,3.2-8.2,6.2-11.1,9.9c7.2,0.2,14.4,0.3,22,0.5C81.5,123.3,78,119.9,74.4,116.5z M84.6,26.3
		c-5.9-0.1-11.6-0.2-17.3-0.3c2.7,2.5,5.6,5,8.5,7.6C78.9,31.1,81.8,28.7,84.6,26.3z M81.2,93.6c-4.4-0.1-8.8-0.2-13.1-0.3
		c1.9,1.7,3.9,3.4,6,5.1c0.2,0.2,0.7,0.2,0.9,0C77.1,96.8,79.2,95.2,81.2,93.6z M82.1,56.9c-2.1-1.8-4.2-3.6-6.3-5.3
		c-0.2-0.1-0.7-0.1-0.8,0c-2.1,1.6-4.2,3.3-6.5,5.1C73.2,56.8,77.5,56.9,82.1,56.9z"/>
</g>
</svg>
