<?xml version="1.0" encoding="utf-8"?>
<!-- Generator: Adobe Illustrator 24.3.0, SVG Export Plug-In . SVG Version: 6.00 Build 0)  -->
<svg version="1.1" id="Layer_1" xmlns="http://www.w3.org/2000/svg" xmlns:xlink="http://www.w3.org/1999/xlink" x="0px" y="0px"
	 viewBox="0 0 150 150" style="enable-background:new 0 0 150 150;" xml:space="preserve">
<style type="text/css">
	.st0{fill:#005BAB;}
</style>
<g>
	<path class="st0" d="M562.6-175.4c0.7,0.2,1.4,0.4,2.1,0.6c7.3,2.1,14.4,4.8,21.2,8.2c5,2.5,10.3,3.8,15.9,3.8
		c8.8,0,17.6,0.1,26.4,0.3c5.9,0.2,11.5-0.8,16.9-3c1.6-0.7,3.3-1.2,4.9-1.8c2.3-0.7,4.8,0,6.3,1.8c1.5,1.8,1.8,4.5,0.6,6.5
		c-0.6,0.9-1.5,1.7-2.3,2.6c0.1,0.1,0.3,0.3,0.5,0.4c2.2,1.9,3.1,4.8,2.2,7.6c-0.9,2.7-3.3,4.6-6.2,4.8c-0.4,0-0.8,0-1.3,0
		c-8.3,0-16.5,0-24.8,0c-0.5,0-1.1,0.2-1.5,0.5c-2.1,1.4-4,3-5.3,5.3c-0.4,0.7-0.7,1.5-0.9,2.3c-0.6,1.8-0.2,3.4,1.1,4.7
		c1,1,2.2,1.9,3.3,2.8c1.1,0.8,2.3,1.5,3.4,2.2c4.6,3.1,5.6,9.4,2.1,13.7c-0.4,0.5-0.9,1.1-1.3,1.6c-0.7,0.8-1.2,0.9-2.1,0.3
		c-3.2-2.1-6.4-4.2-9.5-6.4c-4.6-3.3-9.7-5.2-15.3-5.8c-3.7-0.4-6.9-2.1-9.3-4.9c-1.8-2.1-3.6-4.2-5.4-6.2c-1.6-1.9-3.7-2.8-6.2-2.8
		c-7.7-0.1-15.5-0.2-23.2-0.5c-10.5-0.5-20.9-1.4-31.3-3.6c-2-0.4-4-1-5.9-1.5c-0.9-0.2-1.4-0.9-1.2-1.6c0.2-0.7,0.9-1,1.8-0.7
		c7.1,2,14.4,3.1,21.7,3.8c12.7,1.3,25.5,1.7,38.2,1.7c3.1,0,5.7,1.2,7.8,3.5c1.6,1.9,3.3,3.7,4.8,5.6c2.4,3,5.5,4.6,9.3,5
		c5.5,0.6,10.5,2.6,15,5.7c2.9,2,5.8,4,8.8,5.9c0.2,0.1,0.4,0.2,0.6,0.4c3.4-2.9,3.2-8.3-0.4-10.9c-1.6-1.1-3.3-2.2-5-3.3
		c-0.4-0.3-0.8-0.6-1.2-1c-3.4-3-4.1-6.4-2.1-10.4c1.1-2.2,2.7-4,4.6-5.5c3.4-2.7,7.3-4.6,11.4-6.2c5-1.9,10-3.7,14.9-5.7
		c2.4-0.9,4.6-2.1,6.8-3.4c1.7-1,2.2-2.8,1.4-4.4c-0.8-1.6-2.6-2.3-4.5-1.7c-3.1,1.1-6.3,2.3-9.5,3.3c-4.5,1.4-9.2,1.5-13.9,1.4
		c-8.4-0.2-16.9-0.2-25.3-0.3c-6,0-11.7-1.4-17-4.1c-11.5-5.8-23.6-9.6-36.3-11.5c-8.5-1.3-17.1-1.6-25.6-0.8
		c-1.7,0.2-3.4,0.4-5.1,0.7c-0.9,0.1-1.5-0.2-1.7-0.9c-0.1-0.8,0.3-1.3,1.2-1.5c1.8-0.3,3.5-0.5,5.3-0.7c0.3,0,0.7-0.1,1.1-0.1
		c-1.3-2.1-0.3-4.2,0.1-6.2c0.9-5.2,1.9-10.3,2.8-15.5c0.4-2.1,1.5-3.8,3.4-5c5.6-3.4,11.2-6.9,16.8-10.3c3-1.9,6.4-2.8,9.9-3.2
		c8.3-1.1,16.6-2.3,24.9-3.4c2.8-0.4,5.5-0.8,8.3-1.2c0.4-0.1,0.7-0.1,1.1-0.3c21.6-8.5,43.2-16.9,64.8-25.4c0.1,0,0.2-0.1,0.4-0.1
		c0.8-0.2,1.4,0,1.7,0.6c0.2,0.6-0.1,1.3-0.8,1.6c-0.8,0.3-1.7,0.7-2.5,1c-20.9,8.2-41.8,16.4-62.7,24.5c-1.7,0.6-3.6,0.7-5.4,1
		c-7.1,1-14.2,2-21.3,2.9c-3.5,0.5-7,1-10.5,1.5c-2.4,0.4-4.6,1.3-6.6,2.6c-5.4,3.3-10.7,6.6-16.1,9.8c-1.7,1-2.6,2.4-3,4.3
		c-1.1,6-2.2,12-3.3,18c-0.2,1,0.1,1.6,1.1,2c2.5,1.1,5.5-0.4,6.2-3.1c1.2-4.2,2.3-8.5,3.5-12.7c0.2-0.6,0.5-1.1,1.1-1.4
		c2.3-1.4,4.6-2.8,6.9-4.1c3-1.7,6.1-2.1,9.5-1.2c5.2,1.3,10.4,2.6,15.6,3.8c0.3,0.1,0.7,0,1.1-0.1c4.2-1.4,8.4-2.8,12.6-4.2
		c0.2-0.1,0.3-0.1,0.5-0.1c0.8-0.2,1.4,0.1,1.6,0.7c0.2,0.6-0.1,1.3-0.9,1.5c-2.2,0.7-4.3,1.4-6.5,2.2c-3.3,1.1-6.5,2.2-9.8,3.3
		c-0.3,0.1-0.7,0.3-1,0.5c-4.4,3.8-8.8,7.6-13.1,11.4c-1.7,1.5-1.6,3.2,0.3,4.4c3.3,2.2,7.6,2,10.8-0.5c2.7-2.2,5.3-4.4,7.9-6.6
		c0.6-0.5,1.2-0.7,2-0.6c2.1,0.2,4.2,0.4,6.3,0.5c10.2,0.9,18.4-2.8,24.4-11.2c1.5-2,3.3-3.4,5.7-4c14.9-3.7,29.8-7.3,44.7-11
		c1.2-0.3,2,0.4,1.9,1.2c-0.1,0.7-0.6,1-1.2,1.1c-2.9,0.7-5.7,1.4-8.6,2.1c-12,3-24.1,5.9-36.1,8.9c-1.8,0.4-3.2,1.4-4.2,2.9
		c-4.9,7-11.5,11.1-20,12.3c-3,0.4-6,0.1-9-0.1c-1.2-0.1-2.4-0.2-3.6-0.3c-0.3,0-0.7,0.1-1,0.3c-2.2,1.8-4.3,3.5-6.4,5.3
		C566-177.3,564.5-176.2,562.6-175.4z M551.3-178.1c0,0,0-0.1-0.1-0.1c-1.8-2.5-1.5-5,0.8-7c4.3-3.7,8.6-7.5,12.9-11.2
		c0.2-0.2,0.5-0.2,0.7-0.3c-0.1-0.1-0.2-0.2-0.2-0.3c-0.2-0.1-0.3-0.1-0.5-0.2c-4.2-1-8.4-2.1-12.7-3.1c-1-0.2-2-0.1-3.1-0.2
		c-0.7,0-1,0.4-1.1,1c-1.2,4.2-2.4,8.5-3.6,12.7c-0.8,2.8-2.6,4.5-5.5,5c-1.1,0.2-2.3-0.1-3.5-0.1c-0.2,0-0.6,0-0.7,0.2
		c-0.4,0.7-0.7,1.4-1,2C539.6-179.2,545.5-178.6,551.3-178.1z M629.1-146c0,0.1,0,0.1,0.1,0.2c0.1,0,0.2,0,0.2,0
		c7.1,0,14.2,0,21.3,0c2,0,3.9-1.5,4.4-3.5c0.5-2-0.4-4.2-2.3-5.2c-0.6-0.3-1.2-0.5-1.9-0.1c-0.4,0.3-0.9,0.5-1.4,0.7
		c-5,1.9-10.1,3.8-15.1,5.7C632.7-147.5,630.9-146.8,629.1-146z M545.4-199c0,0-0.1-0.1-0.1-0.1c-2.1,1.2-4.1,2.5-6.2,3.7
		c-0.3,0.2-0.6,0.6-0.8,1c-0.9,3.1-1.7,6.1-2.5,9.2c-0.1,0.3-0.1,0.6-0.2,0.8c3,1.1,5.6-0.3,6.5-3.2c0.4-1.4,0.8-2.7,1.2-4.1
		C544-194.1,544.7-196.6,545.4-199z"/>
	<path class="st0" d="M539.2-122.3c0-2.2,0-4.4,0-6.6c0-1,0.5-1.5,1.2-1.5c0.7,0,1.2,0.5,1.2,1.5c0,4.4,0,8.8,0,13.2
		c0,1.1-0.8,1.7-1.7,1.4c-0.6-0.3-0.7-0.8-0.7-1.4C539.2-117.9,539.2-120.1,539.2-122.3z"/>
	<path class="st0" d="M533.5-128.8c0,0.2-0.1,0.4-0.2,0.6c-0.8,2.5-1.7,5.1-2.5,7.6c-0.1,0.4-0.4,0.8-0.7,1
		c-0.3,0.1-0.9,0.1-1.2-0.1c-0.6-0.3-0.6-0.9-0.4-1.5c0.6-1.8,1.2-3.6,1.8-5.4c0.3-0.9,0.6-1.8,0.9-2.7c0.2-0.6,0.8-0.8,1.4-0.7
		C533.2-129.9,533.4-129.5,533.5-128.8z"/>
	<path class="st0" d="M548.9-130.1c0.5,0,0.9,0.3,1.1,0.9c0.7,2.6,1.4,5.1,2.1,7.7c0.2,0.7-0.2,1.3-0.8,1.5
		c-0.7,0.2-1.3-0.1-1.5-0.8c-0.7-2.6-1.4-5.2-2.1-7.7C547.4-129.4,548-130.1,548.9-130.1z"/>
	<path class="st0" d="M533.6-170.2c0.4,0.3,0.8,0.4,1.1,0.7c1.2,1.5,2.4,2.9,3.6,4.4c0.5,0.6,0.4,1.3-0.1,1.8
		c-0.5,0.4-1.3,0.4-1.8-0.2c-1.2-1.5-2.5-3-3.6-4.5c-0.2-0.3-0.3-0.9-0.1-1.3C532.7-169.7,533.2-169.9,533.6-170.2z"/>
	<path class="st0" d="M537.8-156.9c0.4,0.3,0.8,0.5,1.1,0.8c1.2,1.4,2.4,2.9,3.5,4.3c0.5,0.6,0.5,1.4-0.1,1.8
		c-0.6,0.5-1.3,0.3-1.8-0.3c-1.2-1.5-2.4-2.9-3.5-4.4c-0.2-0.3-0.3-1-0.2-1.4C536.9-156.4,537.4-156.6,537.8-156.9z"/>
	<path class="st0" d="M560.6-163c0.4,0.3,0.8,0.4,1,0.7c1.2,1.4,2.4,2.9,3.6,4.4c0.5,0.7,0.5,1.4-0.1,1.8c-0.5,0.4-1.2,0.3-1.7-0.3
		c-1.2-1.5-2.4-2.9-3.6-4.5c-0.2-0.3-0.3-1-0.1-1.4C559.7-162.6,560.2-162.7,560.6-163z"/>
	<path class="st0" d="M550.7-163.7c-0.2,0.5-0.4,0.8-0.6,1.1c-1,1.3-2,2.6-3,3.8c-0.5,0.7-1.3,0.9-1.9,0.4c-0.6-0.4-0.6-1.2-0.1-1.9
		c1-1.3,2.1-2.7,3.1-4c0.4-0.5,0.9-0.7,1.4-0.4C550.1-164.4,550.4-164,550.7-163.7z"/>
	<path class="st0" d="M526.1-155.1c-1.2,0-1.8-1-1.2-1.8c1.1-1.5,2.3-3,3.5-4.5c0.4-0.5,1.1-0.5,1.6-0.1c0.5,0.4,0.7,1,0.3,1.6
		c-1.1,1.5-2.3,3-3.5,4.4C526.6-155.2,526.2-155.1,526.1-155.1z"/>
	<path class="st0" d="M557.5-153.4c-0.2,0.4-0.4,0.8-0.6,1c-1,1.3-2,2.6-3,3.9c-0.6,0.7-1.3,0.8-1.9,0.4c-0.5-0.4-0.6-1.2-0.1-1.8
		c1-1.3,2.1-2.7,3.1-4c0.4-0.5,0.9-0.7,1.5-0.4C557-154.2,557.2-153.8,557.5-153.4z"/>
</g>
<g>
	<path class="st0" d="M0.6,56c0.6,0.5,1.1,1.1,1.7,1.5c10.2,6.8,21.2,11.7,33.3,14.4c4.5,1,9.1,0.9,13.7,0.6
		c1.4-0.1,2.8-0.2,4.2-0.1c0.9,0,1.9,0.3,3.2,0.5c-0.6,0.9-1,1.6-1.5,2.1c-0.8,0.8-1.7,1.5-2.6,2.1c-4.1,2.8-7.1,6.4-9.3,10.9
		c-5.4,10.9-10.7,21.8-16.1,32.7c-1.8,3.6-3.8,7.1-5.8,10.6c-0.8,1.4-0.6,2.6,0.5,3.3c1.1,0.7,2.4,0.4,3.2-1.1
		c3-5.6,6-11.1,8.8-16.8c4.4-8.9,8.8-17.8,13.1-26.7c1.9-3.9,4.5-7.1,8.1-9.6c1.4-0.9,2.6-2,3.7-3.2c1.5-1.6,2.3-3.6,1.5-5.8
		c-0.8-2.1-2.6-2.9-4.7-3.2c-1.1-0.2-2.2-0.3-3.3-0.2c-13.9,1.7-26.4-2.5-38.5-8.8c-3.1-1.6-6.1-3.6-9.2-5.4c-2-1.2-2.7-1.1-4,0.6
		C0.6,55,0.6,55.5,0.6,56z"/>
	<path class="st0" d="M103,65.3c0.1-6.6-2.5-12.3-9-16.1c-1.2-0.7-2.5-1.2-3.5-2.1c-1.6-1.3-3.5-2.6-4.5-4.3
		c-7.3-12.1-17.9-20-30.8-25.1c-6.9-2.8-14.1-5.1-21.1-7.5c-1.5-0.5-2.7,0-3.1,1.3c-0.4,1.2,0.3,2.3,1.8,2.8
		c6.7,2.4,13.5,4.6,20.2,7.2c8.1,3.2,15.5,7.5,21.6,13.8c2.5,2.6,4.8,5.5,6.8,8.6c2.1,3.2,4.7,5.8,8,7.7c0.6,0.4,1.3,0.7,1.9,1.1
		c5.6,3.2,8,8.2,7.2,14.5c-0.6,5.3-2.5,10.1-5.3,14.5c-5.3,8.5-11.9,16-18.7,23.3c-10,10.8-20.7,20.9-31.8,30.5
		c-0.2,0.2-0.4,0.3-0.6,0.5c-1,1-1.1,2.2-0.2,3.1c0.8,0.9,2,0.9,3,0.1c1.1-0.9,2.1-1.8,3.1-2.7c14-12.5,27.6-25.5,39.6-40
		c4.2-5,8.1-10.2,11.2-16C101.3,76,102.7,71.2,103,65.3z"/>
	<path class="st0" d="M28,23.8c-1.4-0.1-2.4,0.7-2.5,1.8c-0.1,1.1,0.6,2.1,1.9,2.4c4.4,1,9,1.8,13.3,3.1c12.6,3.9,22.9,11,30,22.3
		c0.8,1.4,2.1,1.7,3.2,0.9c1.1-0.7,1.2-1.9,0.3-3.3c-6.8-10.9-16.5-18.2-28.4-22.7C39.9,26.1,33.9,24.6,28,23.8z"/>
	<path class="st0" d="M122.9,86.5c2.6-1,5-1.9,7.8-2.9C123,80,115.5,76.5,108.1,73c3.6,3.7,7.1,7.4,10.7,11.2
		c-2.1,1-4.3,2.1-6.7,3.3c7.1,3.6,14.1,7.1,21.1,10.6c0.1-0.1,0.1-0.1,0.2-0.2C129.9,94.1,126.4,90.4,122.9,86.5z"/>
	<path class="st0" d="M119.3,43.5c-0.1,2.5-0.2,4.9-0.3,7.5c6.5-4.5,12.8-8.8,19-13.1c0-0.1-0.1-0.2-0.1-0.2
		c-4.8,1.2-9.6,2.4-14.7,3.6c0.4-2.6,0.7-5.1,1.1-8c-6.7,4.8-13.2,9.4-19.7,14c0,0.1,0.1,0.2,0.1,0.2
		C109.5,46.2,114.3,44.9,119.3,43.5z"/>
	<path class="st0" d="M127.7,72.4c7.4-0.3,14.5-0.7,21.6-1c0-0.1,0-0.2,0.1-0.2c-4.4-1.4-8.9-2.9-13.4-4.4c1.6-2,3.1-3.8,4.8-6
		c-7.8,0.6-15.2,1.1-22.6,1.6c0,0.1,0,0.2-0.1,0.3c4.5,1.3,9,2.6,13.7,3.9C130.4,68.5,129.2,70.3,127.7,72.4z"/>
	<path class="st0" d="M91.5,69.7c0-2.5-0.9-4.7-2.3-6.8c-0.6-0.8-1.3-1.2-2.2-0.6c-0.8,0.6-0.7,1.4-0.2,2.2c2.3,3.2,2.4,6.4,0.6,9.8
		c-0.5,0.9-0.6,1.7,0.3,2.3c1.1,0.6,1.8,0,2.2-1c0.7-1.9,1.3-3.9,2-5.8C91.7,69.8,91.6,69.8,91.5,69.7z"/>
</g>
<g>
	<path class="st0" d="M-370.6-554.3c6.5,3,8.7,8.1,8.3,15.1c-0.4,7.5,0.1,15-0.1,22.4c-0.7,21.3,1.5,23.8,23,23.2
		c15.2-0.4,30.2,1.6,44.5,6.6c55,19.1,88.8,57.3,98.4,114.6c12.8,76.8-40.1,149.4-117,162.5c-8.4,1.4-17.1,2-25.7,2.1
		c-19.3,0.3-38.7,0.1-58,0.1c-8.8,0-13.1,4.3-13.1,13.1c0,4.1,0.1,8.2,0,12.3c-0.2,6.4-4.8,11.2-11.2,11.2c-20,0.1-39.9,0.1-59.9,0
		c-6.5,0-11.2-4.9-11.3-11.5c0-19.6-0.6-39.2,0.2-58.7c1.1-28.1,12.2-52,33.3-70.8c14.5-12.9,25.1-27.9,29-47.2
		c2.8-13.6,1.7-27-2.2-40.3c-3.9-13.1-7.7-26.3-11-39.5c-1.3-5.1-1.3-10.6-1.3-16c-0.1-28.1,0.1-56.1-0.2-84.2
		c-0.1-7,1.9-12.1,8.3-15.1C-414.5-554.3-392.6-554.3-370.6-554.3z M-433-193.7c0.1-0.6,0.2-1,0.2-1.3
		c-0.8-18.9,14.5-35.9,36.6-35.3c19.1,0.6,38.2,0.4,57.3,0c8.6-0.2,17.3-0.7,25.6-2.5c66.2-13.7,108-78.8,93.2-144.8
		c-10.4-46.4-48.8-83.5-95.3-91.3c-11.7-2-23.8-1.9-35.8-2.3c-16.6-0.5-30.4-11.8-33-28.1c-0.9-5.4-0.5-10.9-0.6-16.4
		c-0.1-5.3,0-10.6,0-15.9c-12.7,0-25,0-37.3,0c0,0.9-0.1,1.5-0.1,2.1c0,25.7,0,51.4,0.1,77.1c0,3.8,0.2,7.8,1.2,11.5
		c3.2,12,6.8,23.9,10.4,35.9c6.1,20.4,6.1,40.8-0.4,61.1c-5.7,17.9-15.6,33.1-29.8,45.3c-19.9,17.1-29.7,38.6-29.4,64.8
		c0.2,12.1,0,24.2,0,36.3c0,1.2,0,2.4,0,3.8C-457.6-193.7-445.5-193.7-433-193.7z"/>
	<path class="st0" d="M-226.8-554.3c8.9,5.3,9.1,6.3,5.4,24.7c1.4,0,2.7-0.1,3.9,0c7.2,0.4,12.1,6.7,10.5,13.8c-1.8,8-3.8,16-6,23.9
		c-1.8,6.5-7.8,10-13.8,8.3c-6.2-1.7-9.4-7.5-7.9-14c0.7-3,1.4-6,2.3-9.6c-1.6,0-2.9,0.1-4.2,0c-6.8-0.5-11.7-6.7-10.3-13.3
		c1.9-8.5,4.1-16.9,6.1-25.4c1-4.2,4.3-6.5,7.8-8.4C-230.8-554.3-228.8-554.3-226.8-554.3z"/>
	<path class="st0" d="M-172.5-453.1c-1.9-0.1-3.2-0.1-4.6-0.2c-6.7-0.8-11.3-6.8-9.9-13.3c1.9-8.3,3.9-16.5,6.2-24.6
		c1.7-6.2,7.9-9.6,13.7-7.9c6,1.7,9.4,7.5,8,13.7c-0.7,3.2-1.5,6.3-2.3,9.4c0.4,0.2,0.6,0.4,0.8,0.4c11.6,0.6,15.5,6,12.7,17.1
		c-1.7,6.5-3.2,13.1-4.9,19.6c-1.8,7.1-7.5,11-13.7,9.5c-6.6-1.6-9.8-7.5-8-14.9C-173.9-447.2-173.2-450-172.5-453.1z"/>
	<path class="st0" d="M-361.5-255.6c-9,0-18,0-26.9,0c-10.2,0-18.2-4.1-23.2-13.1c-5-9-4.2-17.9,1.3-26.6
		c3.9-6.1,7.7-12.2,11.5-18.4c9.3-15.1,13.9-31.6,14-49.3c0-15.8,0-31.7,0-47.5c0-20.8,14.4-35,35.3-35.3
		c15.3-0.2,30.3,0.6,44.9,5.9c39.1,14.3,65.5,55.2,61.8,95.9c-4.1,44.6-36.2,80.4-78.8,86.7c-13.1,1.9-26.6,1.6-39.9,2.3
		C-361.4-255.2-361.5-255.4-361.5-255.6z M-362.4-369.2c0,2,0,3.7,0,5.4c0.1,22.8-5.9,43.8-18,63.1c-3.5,5.6-7,11.2-10.5,16.8
		c-2.5,4.2-1.6,5.8,3.4,5.8c16.5,0,32.9,0.1,49.4,0c36-0.2,65.8-25.2,72-60.7c1-6,0.9-12.2,1.3-18.6c-2.3,0-3.5,0-4.8,0
		c-17.1,0.5-33.8-1.9-50.1-7.3C-333.3-369.3-347.5-369.9-362.4-369.2z M-362.3-391.7c14.8-0.5,29,0.2,42.9,3.7
		c9.2,2.3,18.2,5.1,27.5,6.9c6.6,1.2,13.4,1.1,20.9,1.6c-6.4-14-15.4-24.2-27.1-32.1c-16.7-11.1-35.3-12.7-54.6-11.5
		c-5,0.3-9.2,4.7-9.5,9.7C-362.6-406.4-362.3-399.3-362.3-391.7z"/>
	<path class="st0" d="M-290.5-332.8c0.1,6.1-4.9,11.2-11,11.4c-6.2,0.1-11.5-5.1-11.5-11.3c0-6.1,5.1-11.1,11.2-11.2
		C-295.7-343.9-290.6-338.9-290.5-332.8z"/>
	<path class="st0" d="M-343.7-320c6.1,0,11.2,5,11.3,11.1c0.1,6.2-5.2,11.4-11.4,11.3c-6.1-0.1-11.1-5.2-11.1-11.3
		C-354.8-314.9-349.7-319.9-343.7-320z"/>
</g>
</svg>
