<?xml version="1.0" encoding="utf-8"?>
<!-- Generator: Adobe Illustrator 24.3.0, SVG Export Plug-In . SVG Version: 6.00 Build 0)  -->
<svg version="1.1" id="Layer_1" xmlns="http://www.w3.org/2000/svg" xmlns:xlink="http://www.w3.org/1999/xlink" x="0px" y="0px"
	 viewBox="0 0 150 150" style="enable-background:new 0 0 150 150;" xml:space="preserve">
<style type="text/css">
	.st0{fill:#005BAB;}
</style>
<g>
	<path class="st0" d="M55.5,1.4c2.5,1.1,3.3,3.1,3.2,5.8c-0.2,2.9,0,5.7,0,8.6c-0.3,8.2,0.6,9.1,8.8,8.9c5.8-0.2,11.6,0.6,17.1,2.5
		c21.1,7.3,34.1,22,37.8,44c4.9,29.5-15.4,57.3-44.9,62.4c-3.2,0.6-6.6,0.8-9.9,0.8c-7.4,0.1-14.8,0-22.3,0c-3.4,0-5,1.7-5,5
		c0,1.6,0,3.2,0,4.7c-0.1,2.5-1.8,4.3-4.3,4.3c-7.7,0-15.3,0-23,0c-2.5,0-4.3-1.9-4.3-4.4c0-7.5-0.2-15,0.1-22.6
		c0.4-10.8,4.7-20,12.8-27.2c5.6-5,9.6-10.7,11.1-18.1c1.1-5.2,0.7-10.4-0.9-15.5c-1.5-5-3-10.1-4.2-15.2c-0.5-2-0.5-4.1-0.5-6.1
		c0-10.8,0-21.5-0.1-32.3c0-2.7,0.7-4.6,3.2-5.8C38.7,1.4,47.1,1.4,55.5,1.4z M31.6,139.9c0-0.2,0.1-0.4,0.1-0.5
		c-0.3-7.2,5.6-13.8,14-13.5c7.3,0.2,14.7,0.1,22,0c3.3-0.1,6.6-0.3,9.8-0.9c25.4-5.2,41.5-30.2,35.8-55.6
		c-4-17.8-18.7-32.1-36.6-35.1c-4.5-0.8-9.1-0.7-13.7-0.9c-6.4-0.2-11.7-4.5-12.7-10.8c-0.3-2.1-0.2-4.2-0.2-6.3c0-2,0-4.1,0-6.1
		c-4.9,0-9.6,0-14.3,0c0,0.3,0,0.6,0,0.8c0,9.9,0,19.7,0,29.6c0,1.5,0.1,3,0.5,4.4c1.2,4.6,2.6,9.2,4,13.8
		c2.3,7.8,2.4,15.7-0.1,23.5c-2.2,6.9-6,12.7-11.5,17.4c-7.6,6.6-11.4,14.8-11.3,24.9c0.1,4.6,0,9.3,0,13.9c0,0.5,0,0.9,0,1.5
		C22.1,139.9,26.8,139.9,31.6,139.9z"/>
	<path class="st0" d="M110.7,1.4c3.4,2,3.5,2.4,2.1,9.5c0.5,0,1,0,1.5,0c2.8,0.2,4.6,2.6,4,5.3c-0.7,3.1-1.5,6.1-2.3,9.2
		c-0.7,2.5-3,3.8-5.3,3.2c-2.4-0.7-3.6-2.9-3-5.4c0.3-1.2,0.6-2.3,0.9-3.7c-0.6,0-1.1,0-1.6,0c-2.6-0.2-4.5-2.6-3.9-5.1
		c0.7-3.3,1.6-6.5,2.4-9.8c0.4-1.6,1.6-2.5,3-3.2C109.2,1.4,110,1.4,110.7,1.4z"/>
	<path class="st0" d="M131.6,40.3c-0.7,0-1.2,0-1.8-0.1c-2.6-0.3-4.3-2.6-3.8-5.1c0.7-3.2,1.5-6.3,2.4-9.5c0.7-2.4,3-3.7,5.2-3.1
		c2.3,0.7,3.6,2.9,3.1,5.3c-0.3,1.2-0.6,2.4-0.9,3.6c0.1,0.1,0.2,0.1,0.3,0.2c4.4,0.2,6,2.3,4.9,6.6c-0.6,2.5-1.2,5-1.9,7.5
		c-0.7,2.7-2.9,4.2-5.3,3.6c-2.5-0.6-3.8-2.9-3.1-5.7C131.1,42.5,131.3,41.5,131.6,40.3z"/>
	<path class="st0" d="M59,116.1c-3.4,0-6.9,0-10.3,0c-3.9,0-7-1.6-8.9-5c-1.9-3.4-1.6-6.9,0.5-10.2c1.5-2.3,3-4.7,4.4-7.1
		c3.6-5.8,5.3-12.1,5.4-18.9c0-6.1,0-12.2,0-18.2c0-8,5.5-13.5,13.6-13.5c5.9-0.1,11.6,0.2,17.3,2.3c15,5.5,25.2,21.2,23.7,36.8
		C103,99.3,90.7,113,74.4,115.5c-5,0.7-10.2,0.6-15.3,0.9C59.1,116.3,59.1,116.2,59,116.1z M58.7,72.5c0,0.8,0,1.4,0,2.1
		c0,8.7-2.3,16.8-6.9,24.2c-1.3,2.2-2.7,4.3-4,6.5c-1,1.6-0.6,2.2,1.3,2.2c6.3,0,12.6,0,19,0c13.8-0.1,25.3-9.7,27.6-23.3
		c0.4-2.3,0.3-4.7,0.5-7.1c-0.9,0-1.4,0-1.8,0c-6.6,0.2-13-0.7-19.2-2.8C69.9,72.5,64.4,72.2,58.7,72.5z M58.7,63.8
		c5.7-0.2,11.1,0.1,16.5,1.4c3.5,0.9,7,2,10.6,2.6c2.5,0.5,5.1,0.4,8,0.6c-2.5-5.4-5.9-9.3-10.4-12.3c-6.4-4.3-13.6-4.9-20.9-4.4
		c-1.9,0.1-3.5,1.8-3.6,3.7C58.6,58.2,58.7,60.9,58.7,63.8z"/>
	<path class="st0" d="M86.3,86.4c0,2.3-1.9,4.3-4.2,4.4c-2.4,0.1-4.4-1.9-4.4-4.3c0-2.3,2-4.3,4.3-4.3
		C84.3,82.2,86.3,84.1,86.3,86.4z"/>
	<path class="st0" d="M65.9,91.4c2.3,0,4.3,1.9,4.3,4.3c0,2.4-2,4.4-4.4,4.4c-2.3,0-4.3-2-4.3-4.3C61.6,93.3,63.6,91.4,65.9,91.4z"
		/>
</g>
</svg>
