<?xml version="1.0" encoding="utf-8"?>
<!-- Generator: Adobe Illustrator 24.3.0, SVG Export Plug-In . SVG Version: 6.00 Build 0)  -->
<svg version="1.1" id="Layer_1" xmlns="http://www.w3.org/2000/svg" xmlns:xlink="http://www.w3.org/1999/xlink" x="0px" y="0px"
	 viewBox="0 0 150 150" style="enable-background:new 0 0 150 150;" xml:space="preserve">
<style type="text/css">
	.st0{fill:#CDEEFD;}
	.st1{fill:#111224;}
	.st2{fill:#005BAB;}
</style>
<path class="st0" d="M1465.3,1556.3c-2.4-0.2-4.3-1.3-4.4-4.1c-0.1-6.7,1.6-10,4.9-9.9c0.2,0,0.3,0,0.5,0c2.2,0.5,4.3,2.1,3.2,4
	C1467.7,1549.5,1473.1,1555.7,1465.3,1556.3z M1465.5,1554.4c1.3-0.1,2.3-0.6,2.3-2.1c-0.1-1.7-1.5-2.1-2.8-2.4c-1.6-0.4-2,0.8-2,2
	C1463,1553.5,1464,1554.2,1465.5,1554.4z M1467.8,1546.5c0-1.4-0.6-2.2-2.1-2.2c-0.9,0-1.6,0.4-1.7,1.4c-0.2,1.4,0.9,2.1,2,2.5
	C1467.3,1548.5,1467.6,1547.5,1467.8,1546.5z"/>
<path class="st0" d="M1455.8,1556.6c-0.5-2.9-1.8-4.2-4.6-3.6c-0.7,0.2-1.7,0.3-2.1-0.8c-0.4-1.1,0.1-1.5,1.2-2.1
	c2.1-1.2,2.1-3.9,3.2-5.8c0.6-1,1-2.2,2.5-1.9c1.4,0.3,0.9,1.6,0.8,2.5C1456.4,1548.6,1458.4,1552.5,1455.8,1556.6z"/>
<path class="st1" d="M1465.5,1554.4c-1.5-0.1-2.6-0.8-2.5-2.4c0-1.2,0.4-2.4,2-2c1.2,0.3,2.7,0.7,2.8,2.4
	C1467.8,1553.7,1466.8,1554.2,1465.5,1554.4z"/>
<path class="st1" d="M1467.8,1546.5c-0.2,1-0.5,2.1-1.8,1.7c-1.1-0.4-2.1-1-2-2.5c0.1-1,0.8-1.4,1.7-1.4
	C1467.2,1544.3,1467.8,1545,1467.8,1546.5z"/>
<g>
	<path class="st2" d="M137.6,34.3c-0.4,0.7-0.7,1.5-1.3,2.1c-2.3,2.3-4.6,4.6-6.9,6.8c-1,0.9-2.3,0.9-3.2-0.1
		c-1-0.9-1.1-2.3-0.2-3.2c2.3-2.4,4.6-4.8,7-7.1c1.6-1.5,3.1-1.3,4,0.2C137.3,33.4,137.4,33.7,137.6,34.3z"/>
	<g>
		<path class="st2" d="M117.8,91.6c5.5-1.2,10.7-2.4,15.6-4.8c0.7-0.4,1.2-0.6,0.9-1.7c-3.2-8.9-6.6-17.8-10.9-26.2
			c-2-3.8-4.7-6.7-8.4-8.8c-8.6-4.9-17.4-8.8-27.2-10.5C82.3,38.6,77,39.1,71.6,40c-9.9,1.7-19.4,4.7-28.2,9.5
			c-4.5,2.5-7.9,6.1-10.9,10.1c-4.7,6.4-9.4,13-14,19.4c-0.1,0.2-0.2,0.4-0.3,0.6c4.8,5.2,10,10,16,14c2.5-2,4.9-3.9,7.3-5.9
			c0.3-0.3,0.5-1.2,0.3-1.6c-1.5-4.1-3.1-8.1-4.7-12.2c-0.7-1.8-0.1-3.5,1.6-3.7c1.3-0.2,2.2,0.5,2.7,1.6c1.4,3.3,2.8,6.6,4,10
			c2.5,7.1,4.7,14.3,5.6,21.9c0.1,0.7,0.1,1.5,0.1,2.2c0,1.5-1,2.6-2.3,2.6c-1.4,0-2.2-1-2.5-2.5c-0.8-4.5-1.7-8.9-2.5-13.4
			c0-0.1-0.1-0.2-0.3-0.4c-1.6,1.3-3.1,2.5-4.7,3.7c-1.6,1.2-2.7,3.2-5.1,3c-0.2,0-0.6,0.7-0.8,1.1c3,2.1,6,4,8.8,6.2
			c7.1,5.5,13.7,11.5,19.2,18.6c2.8,3.7,2.9,7.5,1.4,11.6c-1.5,4.1-5.4,6.3-9.8,5.6c-0.3,0-0.7-0.1-1.2-0.2c0,1.6,0,3.2,0,4.7
			c0,1.7-1,2.8-2.5,2.8c-1.4,0-2.3-1.1-2.3-2.8c0-0.1,0-0.3,0-0.4c0-2.3,0.6-5-0.3-7c-1.1-2.4-3.2-4.5-5.3-6.3
			c-4.2-3.7-8.6-7-12.8-10.6c-3.8-3.1-7.6-6.2-11.3-9.4c-5.7-5-7.7-11.3-5.7-18.7c0.9-3.4,2.2-6.8,3.5-10.2c0.3-0.7,0.3-1.1-0.2-1.7
			c-2-2.3-2.1-2.7-0.4-5.2c4.9-6.9,9.9-13.7,14.7-20.6c5.2-7.4,12.3-12.1,20.6-15.3c2-0.8,4.1-1.6,6.2-2.4
			c-1.6-3.4-2.4-6.8-2.2-10.5c0-0.4-0.4-0.9-0.7-1.2c-2.9-3.4-5-7.2-6-11.6c-0.2-0.8-0.2-1.6-0.2-2.4c0-2.4,1.1-3.3,3.5-2.9
			c1.6,0.3,2.7-0.5,3.8-1.4c1.4-1.2,2.7-2.5,4.1-3.7C63.9,0.1,71-0.3,78.5,1.7c2,0.5,3.9,1.1,5.9,1.7c3.3,1.1,5.2,3.4,6.3,6.5
			c1.5,4,1.3,8.1,0.8,12.3c-0.5,3.9-1.1,7.7-1.6,11.6c0,0.3,0,0.7,0,0.9c4.1,1.3,8.1,2.4,12,3.8c6,2.2,11.6,5.1,17.1,8.3
			c3.4,2,5.9,4.8,7.8,8.1c5,9,8.6,18.6,12,28.2c0.2,0.6,0.4,1.1,0.6,1.7c0.9,2.7,0.7,3.9-1.9,5.2c-3.3,1.6-6.8,3-10.4,4.2
			c-3.1,1-6.4,1.7-9.5,2.5c-1.2,7.7-2,21.5-1.4,25.2c4.2-3.6,8.7-6.7,11.8-11.2c1.8-2.6,2.2-5.6,2.3-8.7c0.1-1.8,0-3.6,0.1-5.4
			c0.1-1.4,1-2.2,2.4-2.2c1.3,0,2.4,0.9,2.4,2.2c-0.2,3.8-0.3,7.6-0.8,11.3c-0.6,4.1-3.2,7.3-6.2,10c-3.6,3.3-7.5,6.4-11.1,9.6
			c-0.5,0.4-0.9,1.3-0.9,2c-0.1,5.7-0.1,11.5,0,17.2c0,1.4-0.5,2.4-1.8,2.8c-1.5,0.5-2.9-0.7-3-2.5c0-1.9,0-3.9,0-5.8
			c0-7.9-0.2-15.8,0-23.7c0.2-6,0.9-12.1,1.2-18.1c0.5-9,0.8-18.1,1.2-27.1c0-0.5,0-1.1,0-1.6c0-1.6,1-2.7,2.4-2.7
			c1.3,0,2.4,1,2.3,2.6c0,4.9-0.1,9.8-0.1,14.7C118.1,87.2,117.9,89.3,117.8,91.6z M18.3,87.1c-1.7,3.3-2.4,7-3.1,10.7
			c-0.7,4.1,0.6,7.3,3.3,10.2c0.2,0.3,0.5,0.5,0.7,0.8c4.4,3.7,8.7,7.7,13.3,11.2c5.7,4.3,11.6,8.3,15.7,14.4
			c0.7,1.1,1.9,1.9,3.1,2.5c3,1.5,5.7,0.1,6.6-3.1c0.7-2.7,0-4.9-1.8-7c-8-9.1-16.7-17.5-27.6-23.1c-1.3-0.7-1.8-1.6-1.3-3
			c0.4-1.2,1.1-2.3,1.6-3.6c0.1-0.4,0-1.2-0.3-1.4C25.2,92.8,21.9,90,18.3,87.1z M55.6,24.1c6.1-2.9,7.9-2.5,11.6,2.7
			c0.2,0.3,0.6,0.5,1,0.5c2.7,0.1,5.4,0.5,8.1,0.2c2.9-0.3,5.8-1.2,8.7-2c0.6-0.2,1.3-0.9,1.5-1.5c1-4.2,1.2-8.4-0.2-12.5
			c-0.6-1.7-1.8-3-3.6-3.5c-1-0.3-1.9-0.6-2.9-0.9c-7.8-2.7-15.1-2.6-21.2,4.1c-1.9,2.1-4.1,3.9-7.5,4.3
			C52.6,18.4,54.1,21.2,55.6,24.1z M60.3,37.6c8.1-2.2,16.3-3.6,24.6-3.3c0.2-1.3,0.3-2.4,0.5-3.7c-5.9,1.9-11.7,2.2-17.7,1.6
			c-2.5-0.2-4.6-0.8-5.2-3.6c-0.2-1-0.9-1.8-2.1-1.4c-1.1,0.4-2.5,0.6-2.4,2.4C58.1,32.3,58.7,35,60.3,37.6z"/>
		<path class="st2" d="M84.7,116.3c-0.3,0.3-0.7,1.2-1.4,1.6c-3.1,1.7-6.3,3.2-9.5,4.8c-1.4,0.7-2.7,0.2-3.3-1.1
			c-0.6-1.2-0.2-2.5,1.2-3.1c3.1-1.6,6.3-3.2,9.5-4.7C82.9,112.9,84.7,114,84.7,116.3z"/>
		<path class="st2" d="M62.9,111.2c-0.6-0.5-1.5-0.8-1.8-1.5c-0.3-0.7-0.3-2,0.1-2.5c2.5-2.7,5-5.3,7.7-7.8c1-0.9,2.2-0.7,3.1,0.3
			c0.9,0.9,1.1,2.1,0.2,3c-2.5,2.7-5.1,5.2-7.7,7.7C64.2,110.8,63.6,110.9,62.9,111.2z"/>
		<path class="st2" d="M24.9,44.1c-0.5,0.6-0.9,1.5-1.5,1.8c-0.7,0.3-1.9,0.4-2.3,0c-2.7-2.5-5.3-5.1-7.9-7.8
			c-0.9-0.9-0.7-2.1,0.2-3c0.9-1,2.1-1.2,3.1-0.3c2.7,2.5,5.2,5.1,7.7,7.7C24.5,42.8,24.6,43.3,24.9,44.1z"/>
		<path class="st2" d="M84.7,137.3c-0.1,1.6-1.4,2.8-2.9,2.4c-3.2-0.7-6.5-1.6-9.7-2.4c-1.3-0.4-2-1.7-1.7-2.9c0.3-1.3,1.6-2,3-1.7
			c3.1,0.7,6.2,1.5,9.3,2.3C83.9,135.4,84.6,136.2,84.7,137.3z"/>
		<path class="st2" d="M36.8,34.6c-0.4,0.5-0.9,1.3-1.6,1.8c-1,0.6-2,0.3-2.7-0.6c-1.8-2.5-3.5-5.1-5.1-7.7
			c-0.7-1.1-0.3-2.2,0.7-2.9c1-0.8,2.3-0.8,3,0.1c1.9,2.6,3.7,5.4,5.5,8.2C36.7,33.6,36.6,33.9,36.8,34.6z"/>
	</g>
	<path class="st2" d="M123.2,26.9c-0.4,0.9-0.7,1.7-1.2,2.5c-1.4,2.1-2.8,4.1-4.2,6.2c-0.8,1.2-2.1,1.4-3.3,0.7
		c-1.1-0.7-1.5-2-0.8-3.1c1.5-2.4,3.1-4.8,4.7-7.1c1.2-1.7,2.7-1.8,3.9-0.6C122.8,25.8,122.9,26.3,123.2,26.9z"/>
</g>
</svg>
