<?xml version="1.0" encoding="utf-8"?>
<!-- Generator: Adobe Illustrator 24.3.0, SVG Export Plug-In . SVG Version: 6.00 Build 0)  -->
<svg version="1.1" id="Layer_1" xmlns="http://www.w3.org/2000/svg" xmlns:xlink="http://www.w3.org/1999/xlink" x="0px" y="0px"
	 viewBox="0 0 150 150" style="enable-background:new 0 0 150 150;" xml:space="preserve">
<style type="text/css">
	.st0{fill:#CDEEFD;}
	.st1{fill:#111224;}
	.st2{fill:#005BAB;}
</style>
<path class="st0" d="M1465.3,1556.3c-2.4-0.2-4.3-1.3-4.4-4.1c-0.1-6.7,1.6-10,4.9-9.9c0.2,0,0.3,0,0.5,0c2.2,0.5,4.3,2.1,3.2,4
	C1467.7,1549.5,1473.1,1555.7,1465.3,1556.3z M1465.5,1554.4c1.3-0.1,2.3-0.6,2.3-2.1c-0.1-1.7-1.5-2.1-2.8-2.4c-1.6-0.4-2,0.8-2,2
	C1463,1553.5,1464,1554.2,1465.5,1554.4z M1467.8,1546.5c0-1.4-0.6-2.2-2.1-2.2c-0.9,0-1.6,0.4-1.7,1.4c-0.2,1.4,0.9,2.1,2,2.5
	C1467.3,1548.5,1467.6,1547.5,1467.8,1546.5z"/>
<path class="st0" d="M1455.8,1556.6c-0.5-2.9-1.8-4.2-4.6-3.6c-0.7,0.2-1.7,0.3-2.1-0.8c-0.4-1.1,0.1-1.5,1.2-2.1
	c2.1-1.2,2.1-3.9,3.2-5.8c0.6-1,1-2.2,2.5-1.9c1.4,0.3,0.9,1.6,0.8,2.5C1456.4,1548.6,1458.4,1552.5,1455.8,1556.6z"/>
<path class="st1" d="M1465.5,1554.4c-1.5-0.1-2.6-0.8-2.5-2.4c0-1.2,0.4-2.4,2-2c1.2,0.3,2.7,0.7,2.8,2.4
	C1467.8,1553.7,1466.8,1554.2,1465.5,1554.4z"/>
<path class="st1" d="M1467.8,1546.5c-0.2,1-0.5,2.1-1.8,1.7c-1.1-0.4-2.1-1-2-2.5c0.1-1,0.8-1.4,1.7-1.4
	C1467.2,1544.3,1467.8,1545,1467.8,1546.5z"/>
<g>
	<path class="st2" d="M32.5,148c-1.7,0-3.1,0-4.7,0c-0.2-3-0.4-5.9-0.5-8.9c-0.6-11.6-1.2-23.3-1.8-34.9c-0.1-2.2,0.3-2.7,2.4-3.4
		c6.4-2.2,11.8-5.8,16.1-11c0.7-0.8,0.8-1.5,0.5-2.6c-1.1-3.4-1.9-7-2.9-10.6c-1.1,0.6-2.6,1.2-4,2c-0.3,0.2-0.4,0.9-0.4,1.3
		c0,3,0,6,0,9.1c-1.6,0-3.1,0-4.7,0c0-0.5,0-0.9,0-1.3c0-6.3,0-12.7,0-19c0-1,0.4-2.1,1-2.9C39.7,58.1,45.9,50.5,52,43
		c0.5-0.6,1.1-1.3,1.4-2c0.6-1.3,0.3-2.4-0.8-3.3c-1.1-0.9-2.3-0.8-3.4,0c-1.1,0.9-2,1.9-3,2.8c-7.6,7.1-15.2,14.3-23,21.2
		c-3.2,2.8-4.7,6-5.3,10.2c-2.2,16.1-4.8,32.2-7.2,48.3c-1.3,8.7-2.6,17.5-4,26.2c-0.1,0.6-0.2,1.2-0.3,1.9c-1.5-0.2-3-0.4-4.6-0.7
		c0.5-3.5,1-6.9,1.5-10.4c2-13.4,4.1-26.8,6.1-40.2c1.3-8.7,2.6-17.4,3.9-26.1c0.1-0.9,0.2-1.8,0.3-2.6c0.5-3.3,2-6,4.5-8.3
		c4.4-4,8.7-8.1,13.1-12.1c0.9-0.8,1.2-1.7,1.2-2.9c-0.1-5.7,0-11.4,0-17.1C32.5,13.1,44,1.7,58.8,1.6c8.3,0,16.6,0,24.9,0
		c8.8,0,15.1,5.1,17,13.7c0,0.1,0.1,0.2,0.2,0.4c3,0.1,6,0.8,8.6,2.5c5.1,3.2,7.8,7.8,8,13.8c0.1,4.5,0,9.1,0.1,13.6
		c0,0.7,0.4,1.5,0.9,2c3.7,3.5,7.3,7.2,11.2,10.4c4.4,3.6,6.4,8,7.1,13.6c1.8,14.1,4.2,28.2,6.3,42.3c1.7,11.2,3.4,22.3,5.1,33.7
		c-1.5,0.2-3,0.5-4.6,0.8c-0.5-3.3-1-6.6-1.5-9.8c-2-13.4-4.1-26.8-6.1-40.2c-1.4-9.2-2.9-18.4-4.1-27.7c-0.4-3.3-1.7-5.8-4.1-8
		c-8.8-8.1-17.5-16.3-26.3-24.4c-0.6-0.6-1.6-1.2-2.4-1.2c-0.8,0-1.8,0.7-2.4,1.4c-0.8,1.1-0.4,2.4,0.5,3.4c2.5,3.1,5,6.2,7.6,9.3
		c4,4.8,7.9,9.7,11.8,14.5c0.5,0.6,1,1.6,1,2.4c0.1,6.7,0,13.5,0,20.2c0,0.2,0,0.4-0.1,0.6c-1.5,0-3,0-4.6,0c0-2.2-0.2-4.5,0.1-6.7
		c0.3-2.8-0.6-4.5-3.3-5.2c-0.5-0.1-0.9-0.4-1.5-0.7c-0.3,1.8-0.4,3.5-0.8,5.1c-0.5,2-1.1,4-1.8,5.9c-0.3,0.8-0.3,1.4,0.3,2.1
		c4.3,5.2,9.6,8.9,16,11.1c2.6,0.9,2.8,1.3,2.7,4c-0.8,14.2-1.5,28.4-2.3,42.6c0,0.3,0,0.6-0.1,0.8c-1.6,0-3.1,0-4.7,0
		c0.1-2.6,0.2-5,0.4-7.4c0.3-5,0.5-9.9,0.8-14.9c0.1-1.1-0.3-1.5-1.3-1.8c-3.1-0.9-6.1-1.8-9.1-2.8c-0.7-0.2-1.1-0.2-1.6,0.5
		c-5.6,9.2-14,14.4-24.3,16.3c-10.8,2-20.8-0.1-29.9-6.4c-3.7-2.6-6.8-5.8-9-9.8c-0.5-0.8-0.9-0.9-1.8-0.7c-3,1-6.1,1.9-9.1,2.8
		c-1,0.3-1.3,0.7-1.2,1.8c0.4,6.6,0.7,13.3,1.1,19.9C32.4,146.3,32.5,147,32.5,148z M88,40.9c-0.3,0.5-0.4,0.6-0.5,0.8
		c-5,9.5-13,14.2-23.7,14.2c-4.9,0-9.8,0-14.7,0c-2,0-2.4,0.4-2.4,2.4c0,5.5,0,10.9,0,16.4c0,1.7,0.1,3.5,0.4,5.1
		c2.9,15.2,16.2,24.9,31.5,23.1c12.5-1.4,23.1-11.9,24.3-24.4c0.5-5.1,0-10.3,0.4-15.5c0.3-4.2-0.6-7.7-3.8-10.5
		c-0.5-0.4-0.8-1-1.2-1.5C95,47.7,91.5,44.3,88,40.9z M112.7,42.4c0-3.9,0.1-7.4,0-10.8c-0.2-5.1-4-9.6-8.9-10.7
		c-1.5-0.3-3.1-0.3-4.7-0.4c-2-0.1-2.8-0.8-2.9-2.7c-0.4-6.7-5.4-11.4-12.1-11.4c-8.6,0-17.2,0-25.8,0c-11.7,0.1-21.1,9.5-21.1,21.1
		c0,4.5,0,9,0,13.6c0,0.4,0.1,0.7,0.1,1.1c0.2-0.1,0.2-0.1,0.3-0.1c2.7-2.5,5.4-5,8.1-7.5c3.1-2.9,7.3-3,10.3-0.3
		c3,2.6,3.3,7,0.7,10.4c-1.4,1.9-3,3.7-4.5,5.5c-0.2,0.3-0.4,0.6-0.7,1.1c4.2,0,8.3,0,12.3,0c9.9,0,17.1-5.1,20.5-14.4
		c0.8-2.3,2.5-2.7,4.3-1.2c1,0.8,1.9,1.6,2.9,2.5c2.6-6.3,8.3-7.6,13.1-3.1C107.3,37.4,109.9,39.8,112.7,42.4z M56.5,116.5
		c9.8,10.5,27.3,10.5,37.1,0c-1.5-0.5-3-1-4.5-1.4c-1.7-0.6-2.2-1.2-2.2-3c0-2,0-4.1,0-6.3c-7.9,2.9-15.7,2.9-23.6,0
		c0,2.3,0,4.3,0,6.4c0,1.6-0.6,2.5-2.1,2.9C59.6,115.4,58,116,56.5,116.5z M47.1,93.1c-0.1,0.2-0.3,0.5-0.5,0.7
		c-3.8,4.2-8.3,7.5-13.5,9.9c-2.8,1.3-2.9,1.3-2.7,4.5c0.2,3.7,0.4,7.4,0.6,11.3c0.7-0.2,1.2-0.3,1.7-0.5c7.1-2.2,14.2-4.4,21.4-6.7
		c1.4-0.5,3.4-0.6,4.1-1.6c0.7-1,0.1-2.9,0.3-4.4c0.2-1.9-0.3-3.3-2.2-4.3c-1.2-0.6-2.2-1.5-3.1-2.4C51.2,97.5,49.2,95.4,47.1,93.1z
		 M102.4,93.2c-2.7,4-6.2,7.3-10.4,9.9c-0.3,0.2-0.5,0.8-0.5,1.2c-0.1,1.8,0,3.5,0,5.3c0,1,0.3,1.3,1.2,1.6c5,1.5,9.9,3.1,14.9,4.6
		c3.7,1.2,7.5,2.3,11.3,3.6c0.3-4.8,0.5-9.4,0.7-14c0-0.4-0.7-0.8-1.1-1.1c-3.1-1.7-6.3-3.2-9.2-5.2
		C106.9,97.5,104.8,95.2,102.4,93.2z M102.7,119.3c-0.8-0.3-1.4-0.4-1.8-0.6c-1.5-0.8-2.5-0.4-3.8,0.9c-7.6,7.8-16.9,10.8-27.7,9
		c-6.8-1.2-12.4-4.5-17-9.5c-0.7-0.8-1.3-1-2.3-0.6c-0.8,0.4-1.6,0.5-2.5,0.8c3.7,7.3,13.9,14.3,26.3,14.6
		C85.9,134,95.6,129.6,102.7,119.3z M41.9,63.3c-2.5,2.8-6.1,5.2-4.5,9.9c1.3-0.6,2.6-1.3,3.9-2c0.3-0.2,0.5-0.7,0.6-1
		C42,67.9,41.9,65.6,41.9,63.3z M112.8,73.4c-0.1-1.9,0.3-3.7-0.3-4.9c-1-2-2.8-3.6-4.5-5.7c0,2.8,0,5.2,0,7.5c0,0.3,0.3,0.8,0.6,1
		C110,72,111.2,72.6,112.8,73.4z"/>
	<path class="st2" d="M56.6,72.4c-0.3-1.7-0.6-3.1-0.9-4.6c2.2-0.5,4.2-0.9,6.5-1.4c-1.8-1.4-3.4-2.6-5.1-3.9
		c0.9-1.2,1.8-2.4,2.8-3.8c3.3,2.5,6.5,4.8,9.6,7.4c1.5,1.2,0.8,3.5-1.1,3.9C64.5,70.9,60.6,71.6,56.6,72.4z"/>
	<path class="st2" d="M90.1,58.8c1,1.3,1.8,2.4,2.8,3.7c-1.7,1.3-3.3,2.5-5.1,3.9c2.3,0.5,4.3,0.9,6.5,1.4c-0.3,1.5-0.6,2.9-0.9,4.6
		c-2.4-0.5-4.7-0.9-7.1-1.4c-1.5-0.3-3.1-0.5-4.6-1c-0.8-0.3-1.6-1-1.9-1.8c-0.2-0.6,0.1-1.8,0.7-2.2C83.6,63.6,86.8,61.2,90.1,58.8
		z"/>
</g>
</svg>
