<?xml version="1.0" encoding="utf-8"?>
<!-- Generator: Adobe Illustrator 24.3.0, SVG Export Plug-In . SVG Version: 6.00 Build 0)  -->
<svg version="1.1" id="Layer_1" xmlns="http://www.w3.org/2000/svg" xmlns:xlink="http://www.w3.org/1999/xlink" x="0px" y="0px"
	 viewBox="0 0 150 150" style="enable-background:new 0 0 150 150;" xml:space="preserve">
<style type="text/css">
	.st0{fill:#CDEEFD;}
	.st1{fill:#111224;}
	.st2{fill:#005BAB;}
</style>
<path class="st0" d="M1465.3,1556.3c-2.4-0.2-4.3-1.3-4.4-4.1c-0.1-6.7,1.6-10,4.9-9.9c0.2,0,0.3,0,0.5,0c2.2,0.5,4.3,2.1,3.2,4
	C1467.7,1549.5,1473.1,1555.7,1465.3,1556.3z M1465.5,1554.4c1.3-0.1,2.3-0.6,2.3-2.1c-0.1-1.7-1.5-2.1-2.8-2.4c-1.6-0.4-2,0.8-2,2
	C1463,1553.5,1464,1554.2,1465.5,1554.4z M1467.8,1546.5c0-1.4-0.6-2.2-2.1-2.2c-0.9,0-1.6,0.4-1.7,1.4c-0.2,1.4,0.9,2.1,2,2.5
	C1467.3,1548.5,1467.6,1547.5,1467.8,1546.5z"/>
<path class="st0" d="M1455.8,1556.6c-0.5-2.9-1.8-4.2-4.6-3.6c-0.7,0.2-1.7,0.3-2.1-0.8c-0.4-1.1,0.1-1.5,1.2-2.1
	c2.1-1.2,2.1-3.9,3.2-5.8c0.6-1,1-2.2,2.5-1.9c1.4,0.3,0.9,1.6,0.8,2.5C1456.4,1548.6,1458.4,1552.5,1455.8,1556.6z"/>
<path class="st1" d="M1465.5,1554.4c-1.5-0.1-2.6-0.8-2.5-2.4c0-1.2,0.4-2.4,2-2c1.2,0.3,2.7,0.7,2.8,2.4
	C1467.8,1553.7,1466.8,1554.2,1465.5,1554.4z"/>
<path class="st1" d="M1467.8,1546.5c-0.2,1-0.5,2.1-1.8,1.7c-1.1-0.4-2.1-1-2-2.5c0.1-1,0.8-1.4,1.7-1.4
	C1467.2,1544.3,1467.8,1545,1467.8,1546.5z"/>
<polygon class="st2" points="1346.8,29.4 1346.9,29.6 1346.6,29.6 "/>
<g>
	<path class="st2" d="M100.4,48.8c0.6,6.9,1.1,13.9,1.7,20.8c0,0.4,0.3,0.8,0.4,1.2c0.4,1.8,1.1,3.7,1.1,5.5
		c0.1,7.2,0,14.5,0.1,21.7c0,9.4-2.3,18.1-7.2,26c-0.3,0.5-0.6,1.2-0.5,1.7c0.3,2.4,0.7,4.9,1.3,7.3c1.2,4.7,3.8,8.6,6.9,12.2
		c1.1,1.2,1,2.6-0.1,3.5c-1.1,0.9-2.4,0.7-3.5-0.5c-3.2-3.8-5.9-7.9-7.4-12.8c-0.5-1.6-0.9-3.2-1.4-5c-0.3,0.3-0.6,0.5-0.8,0.7
		c-5.3,5.6-10.6,11.1-15.9,16.7c-0.3,0.3-0.6,0.6-1,0.9c-1,0.7-2,0.6-2.9-0.2c-0.9-0.9-0.9-1.9-0.3-2.9c0.2-0.4,0.6-0.7,1-1.1
		c5.4-5.7,10.9-11.3,16.2-17c7-7.6,10.7-16.8,11.1-27.1c0.3-8.3,0.2-16.5,0-24.8c0-1.5-0.8-3.1-1.6-4.4c-1.7-2.4-4.9-3.1-7.6-2.1
		c-2.8,1-4.7,3.6-4.7,6.7c0,9.6-0.1,19.3,0,28.9c0.1,7.2-2.2,13.4-6.7,18.9c-6.5,7.9-12.9,16-19.3,23.9c-0.3,0.4-0.6,0.8-1,1.1
		c-0.9,0.7-1.9,0.8-2.8,0.1c-1-0.7-1.2-1.7-0.7-2.9c0.2-0.5,0.6-0.9,0.9-1.3c6.5-8.1,13-16.1,19.5-24.2c3.7-4.5,5.5-9.6,5.5-15.5
		c0-7.1,0-14.3,0-21.4c0-3.1,0-6.2,0-9.4c-0.3,0-0.4,0-0.6,0.1c-4.7,1.7-9.6,2.5-14.6,2.1c-0.4,0-0.8,0.1-1.1,0.3
		c-6,4.2-9.6,10-10.7,17.3c4.3,2,3.9,2.1,6.6,5.6c2.3,2.9,2.4,6.9,0.5,10c-1.9,3.1-5.8,4.8-9.3,4.2c-3.1-0.5-5.3-2.3-6.9-5.1
		c-7.2,3.8-11.6,9.6-12.3,17.8c-0.7,7.1,1.3,13.5,6.4,18.7c1.1,1.1,1.1,2.4,0.2,3.4c-1,1-2.3,1-3.5-0.1c-0.1-0.1-0.3-0.3-0.4-0.4
		c-6.6-7.1-8.7-15.5-6.9-24.8c1.6-8.2,6.3-14.2,13.6-18.2c0.7-0.4,1.1-0.7,1-1.7c-0.4-3.6,1.7-7.1,5-8.6c1-0.4,1.4-1,1.5-2
		c0-0.4,0.1-0.8,0.2-1.1c1.7-8.1,6.1-14.4,12.9-19.1c3.1-2.2,6-4.6,8.9-7.1c1.5-1.3,2.7-3.1,4-4.7c-0.9-0.2-1.5,0-2.1,0.1
		c-3.5,0.8-6.6,0.2-9.2-2.3C59.8,55.2,57.5,51,57,46c-0.2-1.3-0.6-2-1.9-2.5c-2.7-1.1-3.5-3.7-2-6.2c0.5-0.7,1-1.5,1.5-2.2
		c1.4-2,2.1-4.3,1.8-6.7c-0.2-1.9-0.4-3.8-0.7-5.6C54.3,10.9,63.2,0.7,75.2,0.6c4.6,0,9.1,0,13.7,0c1.4,0,2.8,0.1,4.2,0.4
		c8.3,1.8,14.2,8.3,15.6,17.2c0.2,1.1,0.5,1.6,1.7,1.8c7.7,1.2,13.1,8.1,12.6,15.9c-0.6,7.7-7.1,13.9-14.9,13.8
		c-2.5,0-5-0.9-7.6-1.4C100.4,48.4,100.4,48.6,100.4,48.8z M60.5,24.2c0.3,2.8,0.6,5.8,0.1,8.5c-0.4,2.3-1.9,4.4-2.9,6.8
		c-0.1-0.2-0.1-0.1,0-0.1c2.7,0.9,3.7,2.8,3.9,5.5c0.3,3.9,2,7.2,4.7,9.9c1.4,1.4,3,1.9,4.9,1.5c3.5-0.8,7-1.6,10.5-2.3
		c1.7-0.4,2.9,0.3,3.2,1.7c0.3,1.3-0.5,2.6-2.2,2.9c-1.5,0.2-2.2,1-2.9,2.3c-1.8,3.6-4.4,6.7-7.4,9.5c-0.3,0.3-0.7,0.5-1,0.8
		c0.1,0.1,0.2,0.3,0.2,0.4c0.9-0.2,1.8-0.3,2.7-0.5c4-1,7.7-2.5,11.1-4.9c3.6-2.5,7.5-2.6,11.8-0.8c-0.2-2.4-0.3-4.7-0.5-6.9
		c-0.4-4.2-0.8-8.3-1.3-12.5c0-0.3-0.4-0.7-0.7-1c-1.8-1.6-3.6-2.2-5.8-0.6c-0.8,0.6-2.1,0.6-3.2,0.7c-1.4,0.1-2.4-0.8-2.6-2.1
		c-0.1-1.3,0.7-2.4,2.2-2.6c2.3-0.3,4.2-1.2,5.5-3.2c0.9-1.4,1-2.9,0.2-4.4c-0.8-1.5-2.1-1.8-3.6-1c-2.7,1.5-4.7,1.2-6.7-1.2
		c-2.5-2.9-4.5-6.1-5.7-9.8c-0.1-0.4-0.7-0.9-1.1-0.9c-5.1-0.1-9.2-2-12.5-6.2C59.9,17.4,60.2,20.8,60.5,24.2z M93.8,28.8
		c2.7,2.6,3.3,6.5,1.4,10.8c0.6,0.4,1.2,0.9,1.8,1.4c6-8,9.7-16.3,5.8-26.3c-2.2-5.7-7.6-9.3-13.7-9.4c-4.7,0-9.4,0-14.1,0
		c-3.3,0-6.3,1.1-8.9,3.1c-1.6,1.2-1.6,1.4-0.4,3c2,2.8,4.8,4,8.2,4.1c3.8,0.1,4.8,0.8,6,4.4c1.1,3.1,2.8,5.9,5,8.3
		C88.6,26.3,91.3,26.5,93.8,28.8z M113.5,43.6c3.8-2.4,5.5-6.9,4.4-11.3c-1-4.1-4.7-7.3-9-7.6c-0.2,6.9-3.8,12.6-7.5,18.2
		C105,45.8,109.8,46,113.5,43.6z M51.7,98.7c-1.6-0.2-3,0.3-4,1.6c-1,1.3-1.2,2.8-0.5,4.2c0.5,1,1.1,2.1,1.7,3
		c1.1,1.6,3,2.1,5.1,1.5c1.8-0.6,3-2.2,3-4C57,102.7,54,99,51.7,98.7z"/>
</g>
</svg>
