<?xml version="1.0" encoding="utf-8"?>
<!-- Generator: Adobe Illustrator 24.3.0, SVG Export Plug-In . SVG Version: 6.00 Build 0)  -->
<svg version="1.1" id="Layer_1" xmlns="http://www.w3.org/2000/svg" xmlns:xlink="http://www.w3.org/1999/xlink" x="0px" y="0px"
	 viewBox="0 0 150 150" style="enable-background:new 0 0 150 150;" xml:space="preserve">
<style type="text/css">
	.st0{fill:#005BAB;}
</style>
<g>
	<path class="st0" d="M19,32.8c0-0.7,0-1.2,0-1.7c0-3.1,0-6.1,0-9.4c-1.8,0-3.5,0-5.2,0c-2.6,0-3.4-0.8-3.5-3.5c0-4.8,0-9.5,0-14.3
		c0-2.8,0.8-3.6,3.5-3.6c23.1,0,46.1,0,69.2,0c2.7,0,3.5,0.8,3.5,3.4c0,4.9,0,9.9,0,14.8c0,2.3-0.9,3.1-3.1,3.2c-1.7,0-3.3,0-5,0
		c-0.1,0-0.2,0.1-0.4,0.2c0,3.6,0,7.2,0,10.9c1.9,0,3.6,0,5.4,0c7.7,0.1,13.2,5.5,13.3,13.2c0.1,5.4,0,10.7,0,16.1
		c0,24.6,0,49.1,0,73.7c0,5.8-2.3,10.2-7.6,12.7c-1.6,0.7-3.5,1.1-5.3,1.2c-23.6,0.1-47.1,0.1-70.7,0c-7.3,0-12.9-5.6-12.9-12.9
		c0-30.4,0-60.7,0-91.1c0-7.3,5.6-12.8,12.9-12.9C15.1,32.8,16.9,32.8,19,32.8z M5.5,114.5c28.7,0,57.3,0,86,0c0-15.6,0-31.1,0-46.6
		c-28.7,0-57.3,0-86,0C5.5,83.4,5.5,98.9,5.5,114.5z M91.5,62.6c0.1-0.3,0.2-0.5,0.2-0.6c0-5.5,0.1-10.9,0-16.4
		c-0.1-4.6-3.4-7.6-8.1-7.6c-23.3,0-46.7,0-70,0c-4.8,0-8.1,3.3-8.1,8.1c0,4.9,0,9.8,0,14.6c0,0.6,0,1.2,0,1.9
		C34.2,62.6,62.8,62.6,91.5,62.6z M5.4,119.8c0,5.7,0,11.2,0,16.7c0,4.7,3.3,8,8.1,8c23.3,0,46.7,0,70,0c4.7,0,8-3.2,8.1-7.9
		c0.1-5.3,0-10.5,0-15.8c0-0.3-0.1-0.6-0.2-1C62.8,119.8,34.3,119.8,5.4,119.8z M15.7,16.4c22,0,43.8,0,65.7,0c0-3.7,0-7.2,0-10.9
		c-21.9,0-43.8,0-65.7,0C15.7,9.1,15.7,12.7,15.7,16.4z M24.3,32.7c16.3,0,32.3,0,48.5,0c0-3.7,0-7.2,0-10.9c-16.2,0-32.3,0-48.5,0
		C24.3,25.4,24.3,29,24.3,32.7z"/>
	<path class="st0" d="M126.2,127.1c4,0,7.7,0,11.5,0c3.4,0,6.4,1.2,8.8,3.7c3.2,3.4,4.1,7.4,2.4,11.7c-1.7,4.3-5.1,6.9-9.7,7
		c-10.3,0.2-20.6,0.2-30.9,0c-7.5-0.1-12.7-8.1-9.9-15.1c3.9-9.4,8-18.7,12.3-27.9c2.5-5.5,9-7.6,14.5-5.2c5.5,2.4,8.1,8.6,5.9,14.2
		c-1.3,3.3-2.8,6.5-4.2,9.7C126.7,125.8,126.5,126.4,126.2,127.1z M121.3,125.1c1.6-3.6,3.3-7.2,4.9-10.7c1.5-3.4,0.2-6.8-2.9-8.3
		c-3.2-1.5-6.8-0.2-8.3,3.2c-1.5,3.2-2.9,6.5-4.3,9.8c-0.1,0.3-0.2,0.7-0.3,1.1C114,121.9,117.6,123.5,121.3,125.1z M108,125
		c-1.6,3.7-3.2,7.1-4.7,10.7c-1.4,3.4-0.2,6.9,2.9,8.3c3.2,1.5,6.7,0.1,8.2-3.4c1.5-3.2,2.9-6.4,4.3-9.7c0.1-0.3,0.2-0.7,0.3-1.1
		C115.3,128.2,111.7,126.6,108,125z M126.5,144.5c4,0,7.8,0,11.7,0c3.4,0,6-2.4,6.3-5.7c0.2-3.2-2-6.2-5.4-6.4
		c-4.1-0.3-8.3-0.1-12.5-0.1C126.5,136.4,126.5,140.3,126.5,144.5z M121.2,144.4c0-1.9,0-3.6,0-5.8c-1,2.2-1.9,3.9-2.7,5.8
		C119.4,144.4,120.3,144.4,121.2,144.4z"/>
	<path class="st0" d="M48.9,93.8c-2.6,0-4.7,0-6.9,0c-1.2,0-2.2-0.5-2.7-1.7c-0.4-1.2,0-2.1,0.8-2.9c4.3-4.3,8.5-8.6,12.8-12.9
		c1-1,2.1-1.4,3.3-0.7c1.1,0.6,1.6,1.6,1.2,2.9c-0.2,0.6-0.7,1.2-1.1,1.7c-2.3,2.4-4.7,4.7-7,7.1c-0.4,0.4-0.7,0.8-1.3,1.4
		c2.3,0,4.3,0,6.2,0c1.4,0,2.6,0.2,3.2,1.6c0.6,1.4-0.1,2.4-1.1,3.4c-4.1,4.1-8.2,8.2-12.2,12.4c-0.9,0.9-1.8,1.5-3.1,1.1
		c-1.9-0.6-2.3-2.8-0.8-4.4c2.4-2.5,4.9-4.9,7.4-7.4C47.9,94.9,48.3,94.5,48.9,93.8z"/>
</g>
</svg>
