<?xml version="1.0" encoding="utf-8"?>
<!-- Generator: Adobe Illustrator 24.3.0, SVG Export Plug-In . SVG Version: 6.00 Build 0)  -->
<svg version="1.1" id="Layer_1" xmlns="http://www.w3.org/2000/svg" xmlns:xlink="http://www.w3.org/1999/xlink" x="0px" y="0px"
	 viewBox="0 0 150 150" style="enable-background:new 0 0 150 150;" xml:space="preserve">
<style type="text/css">
	.st0{fill:#FCF9F7;}
	.st1{fill:#E39A57;}
	.st2{fill:#DC6956;}
	.st3{fill:#D53451;}
	.st4{fill:#FEFEFE;}
	.st5{fill:#EDEDED;}
	.st6{fill:#005BAB;}
</style>
<path class="st0" d="M752.7,29.3c0-2,0-4.1,0-6.1c0.8-2.7,1.5-5.4,2.3-8.1c0.3-1.1,0.5-2.2,2.3-1.7c6.3,2,12.7,3.9,19,5.8
	c2.3,0.7,2.1,1.7,0.9,3.6c-3.6,5.6-3.9,11.6-0.6,17.5c3.7,6.7,7.8,13.1,11.7,19.7c0.8,1.6,1.4,3.4,2.4,4.9c4.2,6.6,3.7,13,0.1,19.8
	c-6.3,11.9-12.2,24-18.4,36c-4.4,8.6-10.7,9.7-17.9,3c-2-4.1-1.3-7.9,0.7-11.8c5.9-11.2,11.5-22.5,17.4-33.6
	c1.5-2.9,1.2-5.1-0.2-7.9C765.6,56.9,756.7,44.2,752.7,29.3z"/>
<path class="st1" d="M788.4,60c-3.9-6.5-8-13-11.7-19.7c-3.3-5.8-3-11.8,0.6-17.5c1.2-1.9,1.4-2.9-0.9-3.6c-6.4-1.9-12.7-3.8-19-5.8
	c-1.8-0.6-2,0.6-2.3,1.7c-0.8,2.7-1.6,5.4-2.3,8.1c0-6.4,0-12.7,0-19.1c2.9,5.1,7.6,7,12.6,8.4c10.2,2.9,20.5,5.9,30.7,8.8
	c4.6,1.3,8.4-0.2,9.6-3.8c1.4-4.1-0.9-7.8-5.9-9.3c-10.1-2.9-20.2-5.7-30.3-8.6c-1.1-0.3-2.2-0.7-3.3-1c-0.8-0.3-1.5-0.8-1.4-1.8
	c0.2-1.2,1.3-1.7,2.3-1.3c11.7,4.6,21.1-3.6,31.5-5.9c0.6-0.1,1.2-0.5,1.9-0.6c1.1-0.2,2.5-0.6,3.1,0.8c0.7,1.8-0.9,2.3-2.1,2.7
	c-5,1.8-10.1,3.5-15.1,5.2c-1.1,0.4-2.3,0.4-3.3,2c6.6,1.9,13,4,19.5,5.5c4.2,1,6.8-2.3,9-5.1c4.1-5.4,3.7-12.4-0.8-18.6
	c-3.7-5.1-9.4-7.2-15.9-4.8c-10.7,3.8-21.7,6.6-32.2,11c-4.3,1.8-7,4.8-9.3,8.8c-1-2.7-0.3-5.1,0.5-7.5c2.2-1.5,4-3.8,6.7-4.2
	c6.5-1,12.1-4.4,18.2-6.7c1-0.3,2-0.6,3-0.9c5.1-1.5,10.3-3,15.1-5.3c0.2,0.1,0.5,0.1,0.7,0c1.6,0,3.2,0.1,4.9,0.1c0,0,0-0.1,0-0.1
	c0.5,0.7,1.3,0.8,2,0.6c0.7,0.2,1.3,0.4,2,0.7c13.1,7.9,14.8,23.3,5,32.5c-0.3,0.2-0.7,0.4-1,0.6c-1.9,0.8-3.8,1.6-1.8,4.2
	c1.3,1.8,0.8,4.1,1.2,6.2c-0.2,1-0.5,1.9-0.7,2.9c-1.7,1.6-2.5,3.1,0.5,4.3c1.4,0.5,2.6,1.2,4,1.8c0.9,0.5,1.9,0.9,2.8,1.4
	c5.4,3.7,11.3,6.5,17.2,9.4c0.2,0.2,0.4,0.4,0.7,0.4c6,7.5,5.2,12.8-2.8,18.4c-2.3,0.5-4.5,0.5-6.8,0.2c-7.7-4-15.3-8-23-12
	c-0.6-0.3-1.2-0.6-1.9-0.8c-1.7-1.7-3.9-2.4-6.1-3.3c-0.7-0.9-1.5-1.6-2.7-1.7c-3.2-3.4-6.2-6.9-7.4-11.6c-0.3-1.1-0.1-2.6-1.6-2.7
	c-1.2,0-1.9,1.3-2.4,2.3c-1.1,2.4-2.1,4.9-1.6,7.6c0.9,4.9,3.5,8.9,6.3,12.8c0.1,1.2,0.8,2.1,1.7,2.9c1.5,3,2.9,5.9,4.4,8.9
	C789.4,58.2,788.8,59,788.4,60z M834.5,44.7c0-3.5-3-5.4-6.2-6.9c-11-5.1-20.7-13.7-33.9-13.4c-2.5,0.1-6-2.9-7.3-0.9
	c-1.5,2.4,1.3,5.5,3.1,7.9c0.8,1,1.7,2.1,2.8,2.8c10.2,6.6,21.1,11.9,32,17.3C829.5,53.7,834.4,50.3,834.5,44.7z"/>
<path class="st2" d="M977.7,22.8c0-1,0-2,0-3c0.4-3.6,2.1-4.5,5.4-3c1.5,0.7,3.1,1.3,4.7,1.7c5,1.5,7.3-0.5,7.2-5.9
	c-0.3-1.3-0.6-2.6-0.8-3.9c-0.2-0.4-0.4-0.7-0.5-1.1c0,0,0.1,0,0.1,0c-1.7-11.6-5-22.9-7.4-34.4c-0.6-2.9-2.5-4.9-5.7-4.3
	c-3.5,0.6-4.5,3.3-3.9,6.4c1.1,6.4,1.7,12.8,3.6,19c0.1,0.8,0.2,1.6,0.3,2.5c0,6.7,0,6.7-6.6,5.7c-6.9-1.1-13.9-0.8-20.9-0.4
	c-5.5,0.3-6.1-0.1-5.3-5.5c1.1-7,2.5-14,3.5-21.1c0.4-3-0.2-5.9-3.8-6.5c-3.5-0.6-5.3,1.5-5.9,4.6c-2,9.4-4,18.8-5.9,28.2
	c-0.1,0.8-0.1,1.6-0.2,2.4c-0.4,1.2-1,2.4-1.3,3.7c-0.8,3.3-2.7,6.9,0.6,9.6c2.8,2.2,5.9,0.2,8.7-0.8c2-0.7,3.8-1.2,5.1,1.1
	c0,1,0,2,0.1,3c-0.1,2-0.2,4-0.2,6c0,8.8,0,17.6,0,26.4c0,2.3-0.1,4.8-3.6,2.9c0-10.1,0-20.2-0.1-30.3c0.6-3.5,0.7-6.5-4.5-4.4
	c-2.6,1-5.1,0-7.6-0.9c-0.6-0.6-1.1-1.2-1.7-1.8c-1.3-3-1.7-5.9-0.7-9.2c0.9-3,1.1-6.2,1.6-9.3c0,0-0.1-0.1-0.1-0.1
	c0.2-0.4,0.4-0.8,0.5-1.2c0.1-0.7,0.2-1.3,0.4-2c0.7-0.6,0.7-1.3,0.6-2.1c0.5-2.6,1.1-5.2,1.6-7.9c0.8-3.3,1.8-6.6,2.4-10
	c0.8-4.3,1.7-8.3,5.5-11l0.4,0l0.3-0.2l0.5,0l0.4-0.2c0.7-0.1,1.4-0.1,2.1-0.2c2.4-0.4,4.5,2.9,7.1,0.7c1-0.5,1.9-1,2.9-1.4
	c4.1-1.3,8.7-2.7,12.3-0.1c4.4,3.2,8.3,2.7,12.7,0.6c1.2,0.3,2.4,0.6,3.6,0.8c2,1.6,3.6,3.6,4.7,6c0.2,1,0.5,1.9,0.7,2.9
	c0.5,4.3-0.1,8.8,2.9,12.5c0.1,0.5,0.2,1,0.2,1.4c0.3,4.2,1.4,8.2,2.8,12.1c0.1,1.7-0.1,3.5,1,5c0.5,3.3,1,6.6,1.4,9.9
	c-0.2,0.6-0.4,1.3-0.5,1.9c-4.4,7-10.4,4.7-16.6,2.1c0,2.4,0,4.2,0,6c0,4.1,0.1,8.2,0.1,12.3c0,0.5,0,0.9-0.1,1.4
	c0,1.4-0.1,2.9-0.1,4.3c-0.1,3.5-0.1,7-0.2,10.4c0,1.2-0.1,2.5-1.7,2.5c-1.6,0-1.6-1.4-1.7-2.6c-0.1-1.3-0.1-2.7-0.1-4
	C977.8,41.1,977.7,31.9,977.7,22.8z M974.4-16.4c-0.4-2.8-1.3-5.6-1.1-8.4c0.4-4.8-2.5-6.6-6-7.9c-7-2.7-12.3,0.8-12.8,8
	c-0.1,2.1-0.5,4.3-0.9,6.4c-1.1,6.9,2.8,11.2,9.9,10.8C969.4-7.8,974.5-11.9,974.4-16.4z M977-0.6c-0.2-2-0.5-3.5-0.6-5
	c-0.1-3.7-1.5-3.8-4.1-1.6c-2.4,2-5.4,2.6-8.4,2.9c-4.4,0.4-8.2-1.7-12-3.5c-1.2,6.7-1.2,6.7,5.2,6.5C963.6-1.5,970.1-1.5,977-0.6z"
	/>
<path class="st3" d="M918.5,211.7l-0.2,0.2c0,0,0,0.3,0,0.3c-1.4,2.1-2.8,4.2-4.3,6.4c-0.2,0.3-0.5,0.6-0.7,0.9
	c-0.9,0.8-1.7,1.5-2.6,2.3c-1.1,0.9-2.1,2.6-3.7,1.7c-1.7-0.9-0.6-2.6-0.3-4c0.6-2.2,1.7-4.3,1.5-6.7c0.1-1.3,0.3-2.7,0.4-4
	c0.9-3.1,0.2-5.6-3-6.9c-5.6-2.3-7-7-7.2-12.4c-0.1-3.1,0.3-6.3-1.4-9.2c0.3-0.9,0.4-2,1.4-2.5c2.5,4,3.6,8.4,3.6,13.1
	c0,3.9,1.4,6.8,5.2,8.2c3.9,1.5,5,4.6,4.9,8.4c-0.1,2.4-0.4,4.9-0.6,7.6c5.1-5.3,5.7-9.2,2.7-16.5c-2.9-7.1-2.6-8.3,2.7-13.5
	c1.2-1.2,2.2-2.5,3.2-3.8c0.8-1.2,1.3-2.4-0.7-3.1c-1.2-0.4-3.1-0.8-2.5-2.5c0.7-2,2.5-0.8,3.8-0.6c0.5,0.1,1,0.3,1.5,0.4
	c3.3,0.4,5.8-1.1,7.7-3.7c2.1-2.8-0.3-3.6-2-4.9c-0.4-0.3-0.5-1.2-0.4-1.8c0.3-1,1.2-1,2.1-0.7c1.9,0.7,3.9,1.3,5.7,0
	c0.8-0.5,1.7-1.5,1.7-2.3c0-1.3-1.5-1-2.4-1c-17.3,0.1-34.6,0.2-51.9,0.3c-0.4-1.3,0.1-2.4,0.7-3.5c0.7,0.1,1.3,0.1,2,0.2
	c1.1,1,2.5,0.7,3.8,0.7c21.1,0,42.2,0,63.4,0c1.3,0,2.7,0.3,3.8-0.7c0.7-0.1,1.5-0.1,2.2-0.2c1.2-0.8,0.9-1.9,0.7-3.1
	c-0.1-0.3-0.1-0.6,0-0.9c0-3.4,0.9-6.8-0.5-10.1l-0.3-0.2c-0.3-0.5-0.6-0.6-1-0.2c-20.3,0-40.6,0-60.9-0.1c-0.4-2.3-3.4-0.7-4-2.8
	c13.3-0.1,26.6-0.1,39.9-0.2c3.8,0,7.1-0.1,10.9-2.4c8.3-5,11.1-11.6,6.2-19.6c-1.4-2.3-2.1-3.5,1.3-4.5c4.6-1.5,6.5-5.5,5-9.3
	c-1.6-4-5.5-5.8-9.9-3.8c-3.3,1.5-3.9,0.3-4.4-2.6c-1-6.8-4.4-12.3-10.3-16.1c0.4-0.9,0.9-1.7,1.9-2.1c4.2,2.8,7,6.9,9.7,10.9
	c0.5,1,0.9,2,1.4,3c-0.1,2.2,0.5,3.5,3,3.1c3.4-0.6,6.4,0.8,9.3,2.5c0,0,0.2,0.2,0.2,0.2c4,8.1,3.9,9.6-2.5,16.4
	c-1.9,2.1-0.3,3.2,0.3,4.7c0.2,2.7,0.4,5.4,0.5,8.1c-1.4,3.6-2.7,7.4-6.7,9.2c-0.7,0.3-1.7,0.7-1.4,1.5c0.3,1,1.4,1.2,2.5,1.1
	c2.9-0.3,5.8-0.5,8.8-0.7c1,0,2,0,3,0c4.4,1,9.1-0.8,13.3,1.3c0,0,0.2,0.2,0.2,0.2c1.4,4.4,0.3,8.9,0.7,13.3
	c0.5,4.7-1.3,6.6-6.2,6.4c-8.1-0.3-16.3-0.1-24.4-0.1c-2.2,0-3.4,0.6-5.1,2.6c-3.3,4-5.6,9.4-9.6,12c-5.2,3.3-7.7,8.2-11.4,12.5
	c0,0-0.2,0.1-0.2,0.1c-2.9,1.1-3.5,3.4-2.6,5.9c0.8,2.4,2,4.8,3,7.1c0,2.9,0,5.8,0,8.8C919,210.6,918.7,211.2,918.5,211.7z
	 M962.2,150.8c1.1,2.1-1.6,5.5,1.8,6.8c5.6,2.1,8.5-0.1,8.5-6c0-0.8-0.1-1.7,0-2.5c0.8-4.6-1.2-5.6-5.7-5.8
	C960.1,143.1,963,147.8,962.2,150.8z"/>
<path class="st2" d="M892.5,140.5c0.5,2.1,3.6,0.5,4,2.8c-4.3,1.1-10.1-1.8-12.6,1.5c-2.3,3.1-0.9,8.6-0.4,13
	c-0.6,1.1-1.1,2.2-0.7,3.5c1.1,9.1,5.3,13,13.3,12.4c1.2-0.1,2.6-1.3,3.7,0.2c1.3,1.7-1.1,2.5-1.2,3.9c-1,0.5-1.1,1.5-1.4,2.5
	c-2.2-2-4.5-3.5-7.6-3.4c-1-0.4-2-0.8-2.9-1.2c-0.6-0.5-1.3-0.9-1.9-1.4c-0.6-0.5-1.1-1.1-1.7-1.6c-1-1.9-2.7-3.8-2.8-5.7
	c-0.3-6.4-4-6.6-8.7-5.3c-1.3,0-2.7,0-4,0c-7.1-0.1-14.2-0.1-21.3-0.2c-2.8,0-5.7,0.2-7.7-2.5c-0.1-0.7-0.2-1.3-0.2-2
	c0.1-3.5,0.3-6.9,0.1-10.4c-0.2-4.4,1.8-6.4,6.2-6.3c3.8,0.1,7.7,0,11.9,0c-1-2.8-1.9-4.5-2.4-6.4c-0.4-1.9-0.4-3.9-0.5-5.9
	c0.4-1.3,0.7-2.6,1.1-3.9c0.8-0.7,0.7-1.4-0.1-2.1c-0.2-0.7-0.4-1.4-0.7-2.1c-0.1-2-0.3-3.9-0.4-5.9c0.1-1,0.3-1.9,0.4-2.9
	c2.1-4.6,5.2-8.4,9.9-10.5c1.3-0.3,2.5-0.5,3.8-0.8c3.3,0.7,5-0.2,3.7-3.9c0.2-2.3,0.4-4.6,0.6-6.9c0.2-0.7,0.5-1.4,0.7-2.1
	c0.2-0.1,0.3-0.3,0.2-0.6c1.3-1.8,2.7-3.6,4-5.4c0.2-0.2,0.5-0.4,0.7-0.6c2.5-1.8,5.3-3,8.3-4c3.7-0.7,7.2,0.1,10.7,1
	c4.3,4.1,8.7,5.1,13.4,0.7c0.3-0.3,0.8-0.5,1.2-0.8c0.5-0.2,1-0.3,1.5-0.5c0.8,0.1,1.5,0,2.1-0.7c3.6,0,7.3,0,10.9-0.1
	c2.5,1.6,5.8,1.5,7.8,4c-1,0.4-1.5,1.2-1.9,2.1c-8.8-4.5-17.4-4.3-25.2,2.1c-2.9,2.4-4.4,2-6.9-0.5c-5.2-5.2-12.8-5.6-18.7-1.5
	c-5.5,3.9-7.5,11.1-4.8,17.8c0.5,1.2,1.7,2.4,0.8,3.7c-1.2,1.7-2.8,0.4-4.1,0.1c-10-2.2-17.8,5.7-14.8,15.4c0.8,2.7,0.9,4.9,0,7.6
	c-2.5,7.8,1.8,13.3,9.9,13.5C875.9,140.3,884.2,139.5,892.5,140.5z M860.4,157.7C860.4,157.7,860.4,157.8,860.4,157.7
	c3.2,0,6.3,0,9.5,0c10,0,9.8,0,9.8-10.1c0-3.4-1.2-4.2-4.3-4.1c-8,0.2-15.9,0-23.9,0c-10.2,0-10.1,0-9.9,10.1c0.1,2.9,0.8,4.2,4,4.1
	C850.5,157.6,855.4,157.7,860.4,157.7z"/>
<path class="st1" d="M900.8-40.2c-0.5-1.3-1-2.6-1.5-3.9c-0.9-10.8,4.4-17.4,14.3-20.7c1-0.1,1.9-0.3,2.9-0.4
	c4.6,1.1,8.9,0.9,12.1-3.2c0.5-0.6,1.3-0.9,2-1.4c1.6-0.2,3.3-0.3,4.9-0.5c3.2,0.3,5.6,2.4,8.1,4.2c0,0,0.1,0.1,0.1,0.1
	c0.6,1.5,1.8,2.8,1.8,4.6c0,1.6,0.9,3.8-1.2,4.3c-2.7,0.6-1.7-2.1-2.1-3.4c-1.5-4.9-6.2-7.2-11-5.1c-2.6,1.1-4.1,2.5-1,4.9
	c1.7,1.2,3.1,2.5,2.4,4.9c0,0,0,0,0,0c-3.1,0.5-4.2-3-6.9-3.3c-0.7-0.2-1.3-0.5-2-0.7c-0.4-0.2-0.7-0.4-1.1-0.6
	c-3.4-0.9-6.8-1.1-10.1,0.5c-7.2,2.4-11.1,8.8-9.5,15.3c1.6,6.4,3.7,7.2,8.7,3.2c0.4-0.3,0.8-0.7,1.2-0.9c1.4-0.7,3-2.4,4.2-0.3
	c1.1,1.8-1.2,2.3-2.3,3.2c-0.9,0.7-1.9,1.4-2.6,2.3c-3.8,4.6-2.6,8.5,3.1,9.9c4.2,1.1,7.4,3.6,10.2,6.8c1,1.2,2,2.8,0.5,3.9
	c-1.4,1.1-2.3-0.6-3.1-1.5c-2.3-2.7-4.6-5.3-8.4-5.6c-3.4-0.7-6.8-1.1-10,0.6c-7.5,3.5-10.6,9.7-7.9,16.4c1.3,3.4,3.7,6.1,7.1,7.3
	c2.8,0.9,2.7-2.8,4.5-3.8c0.1-0.1,0.2-0.2,0.3-0.4c1-0.8,2.1-2,3.4-0.7c1.1,1.2,0.1,2-0.6,3c-3.8,5.2-3.5,8.5,0.7,11.4
	c3.9,2.6,9.6,1.3,12.2-2.8c0.8-1.3,1-4,3.1-2.8c2.4,1.4,0.5,3.6-0.5,5.1c-3.8,6-10.7,6.9-18.4,2.5c0,0-0.1,0-0.1,0
	c-2.6-4-4.4-8.9-9.9-10.1c-0.7-0.6-1.4-1.3-2.1-1.9c-5.8-8.6-5.8-13.5,0.3-22.9c0.3-0.2,0.6-0.5,0.9-0.7c10.8-6,10.8-6,3.8-15.7
	C901.2-39.8,901-40,900.8-40.2z"/>
<path class="st2" d="M788.4,60c0.4-1,1-1.8,2-2.1c1.5,3.3,3.2,6.5,5.8,9c0.3,0.7,0.7,1.3,1,2c2.7,5.6,5.3,11.3,9.1,16.3
	c0,0.3,0.1,0.6,0.5,0.7c-0.2,1.2,0.4,2.2,1.1,3.1c0.7,1.3,1.4,2.6,2.2,4c3.7,7,7.3,14,11,21c0.2,1.9,0.4,3.9,0.7,5.8
	c-2.2,7.4-5.8,11-12,11.3c-6.6,0.4-10.9-3-13.5-8.8c-0.6-1.3-1.6-2.5-2.4-3.7c-0.3-0.7-0.6-1.3-1-2c-1.8-3.5-3.5-7.1-5.4-10.6
	c-0.4-0.8-1.1-2-1.8-2.1c-1.4-0.2-1.6,1.4-2.1,2.4c-2.9,5.8-5.8,11.5-8.7,17.3c-0.5,1-1.1,2-1.6,3c-7.5,6.1-11.9,6.3-19.7,1.1
	c-0.3-1.3-1.2-2.4-0.6-3.8c0.5-0.1,1-0.1,1.5-0.2c7.2,6.6,13.5,5.6,17.9-3c6.1-12,12-24.1,18.4-36c3.6-6.8,4.1-13.2-0.1-19.8
	C789.8,63.4,789.2,61.6,788.4,60z M797.6,76.9c-2.5,7.5-6,13.2-8.9,19.1c-0.6,1.3-1.5,2.5-0.6,4.2c4.3,7.9,8.3,15.9,12.9,23.6
	c2.5,4.3,8.1,5.1,12.4,2.7c4.3-2.5,6.3-7.6,4-12C811.1,102.3,804.6,90.1,797.6,76.9z"/>
<path class="st0" d="M919,188.1c3.6-4.3,6.2-9.2,11.4-12.5c4-2.6,6.3-8,9.6-12c1.7-2,2.9-2.6,5.1-2.6c8.1,0,16.3-0.2,24.4,0.1
	c4.9,0.2,6.7-1.7,6.2-6.4c-0.4-4.4,0.7-8.9-0.7-13.3c2.9-0.1,5.7,3.3,4.9,5.7c-1.5,4.4-2.8,8.5,0.5,13.3c1.4,2,2.5,6.7,0.4,9.7
	c-1.6,2.3-4.5,1.2-6.9,0.4c1.1-0.8,2.1-1.6,3.2-2.4c1.1-0.8,2.4-1.7,1.2-3.2c-1-1.2-2.2-0.2-3.1,0.4c-3.3,2.2-6.6,4.4-10,6.6
	c-1.1,0.7-2.5,1.5-1.5,3.1c0.9,1.3,2.1,0.3,3.1-0.2c1.9-1,3.7-2.1,5.6-3.2c0.9,1.9,1.6,3.5-0.9,5.1c-2.8,1.8-5.6,3.9-8.6,1.3
	c-1.6-1.4-5.9-2.1-1.6-6.8c2.4-2.6,3.9-5.5,7.9-6.4c-1.3-3-4.1-2.4-6-1.9c-5.7,1.4-11.5,1.4-17.3,0.9c-1.3-0.1-2.9,0.5-2.7,1.6
	c0.6,3.1,1.2,5.9-2.5,7.7c-0.5,0.2,0.5,1.7,1.3,1.5c2.5-0.4,4.6,4.6,7.4,0.7c0.3-0.4,0.5-0.8,0.8-1.2c1.7,0.7,0,3.2,2.1,3.4
	c2.5,0.2,4.5,1.6,3.7,4.1c-0.7,2.2-3.1,3.3-5.7,3.1c-0.7-0.1-1.3-0.1-2-0.2c0.6-0.3,1.1-0.7,1.7-1c1-0.7,3-0.8,2.3-2.6
	c-0.8-2.1-2.5-0.7-3.8-0.3c-3.6,1.3-7.1,2.7-10.7,4.1c-1.1,0.4-2.5,0.7-2.2,2.2c0.3,1.5,1.7,1.4,2.8,1.1c3.3-1.1,6.6-2.2,9.9-3.4
	c1.2,4.2-4.8,4.2-4.6,7.8c0,0-0.3,0.2-0.5,0.1c-0.5-0.1-1-0.2-1.3-0.4c-3.4-2.7-10.7-0.9-9.8-8.6c4.5,1.5,6.2-4.7,10.7-4.4
	c0.6,0,0.5-1.7-0.3-2c-1.8-0.6-3.4-1.7-5.7-0.8c-5.7,2.2-10.6,5.3-13.6,10.8C922.2,188.8,920.7,189.1,919,188.1z"/>
<path class="st0" d="M908.4,11.9c7.7,4.4,14.7,3.4,18.4-2.5c1-1.6,2.9-3.8,0.5-5.1C925.2,3,925,5.8,924.2,7
	c-2.6,4.1-8.3,5.4-12.2,2.8c-4.3-2.8-4.5-6.1-0.7-11.4c0.7-0.9,1.8-1.8,0.6-3c-1.3-1.3-2.4-0.2-3.4,0.7c-0.1,0.1-0.2,0.3-0.3,0.4
	c-1.8,0.9-1.7,4.7-4.5,3.8c-3.4-1.1-5.8-3.9-7.1-7.3c-2.7-6.7,0.4-12.8,7.9-16.4c0,1.4,1.1,2.4,1.6,3.6c0.7,1.7,1.1,3.7-0.4,5.1
	c-4.3,4.4-4.3,4.5,1.1,6.9c1.4-1.1-1.7-3.4,1-4.1c4.4-1.1,9.2,3.4,7.4,7.5c-2.3,5.2-1.2,5.7,3.5,3.6c0.7-0.3,1.3-0.1,1.7,0.6
	c2.2,3.5,5.1,2.1,7.7,0.8c1.3-0.6,2.4-0.9,3.8-0.5c-0.5,3.1-0.7,6.3-1.6,9.3c-1,3.3-0.7,6.2,0.7,9.2c-3.9-0.4-7.9,1.9-11.8-0.7
	c-2.1-1.4-3.8,1.3-5.6,2.1c-1.3,0.6-1.3,3.4-3.6,2.4c-2.2-0.9,0-2.6-0.3-3.9C908.9,16.5,908.7,14.2,908.4,11.9z"/>
<path class="st1" d="M869.2-1.1c0.7,1.6,1.3,3.3,2,4.9c3.3,5.4,4.7,10.8,3.3,17.5c-0.8,3.6-0.1,7.4-3.1,10.4c-1,0.5-2.1,1-3.1,1.5
	c-5.5-1.2-10.6-0.2-15.3,2.6c-0.1,0.1-0.3,0.1-0.5,0.1c-1-0.2-1.9-0.4-2.9-0.6c-2-1.4-4.3-2.6-5.2-5.1c-0.6-1.7-0.7-3.7-3-4.2
	c-0.2-0.3-0.5-0.4-0.8-0.4c-1-1.3-1.9-2.7-2.9-4c0-1.9,0-3.9,0-5.8c3.9-3.9,4.6-8.5,2.8-13.6c-0.1-0.2-0.1-0.3-0.1-0.5
	c0-1.5-1.1-3.8,1-4.3c2.4-0.5,2,2.1,2.4,3.5c0.5,1.7,0.7,3.4,1.2,5.8c2.4-2.7,4.5-4.6,7.7-5c2.2-0.3,2.2-1.7,0.6-3.1
	c-0.9-0.8-1.9-1.3-2.7-2.2c-1-0.9-3.2-1.7-1.8-3.4c1.3-1.6,2.8-0.1,3.8,0.8c2.7,2.2,5.2,4.2,8.8,2c0.6,0,1.2,0,1.9,0
	C865.3-3,867.2-2,869.2-1.1z M867.3,6.7c0.2-4-0.9-6.2-3.7-6.8c-3-0.6-5.3,0.4-6.2,3.5c-0.7,2.4-2.1,2.5-4.2,2.3
	c-2.8-0.2-4.8,1.3-4.3,4.1c0.6,3.3-1,3.6-3.4,3.8c-2.4,0.2-3.9,1.8-4.1,4.3c-0.2,2.3,0.3,4.4,2.8,5.3c2.1,0.8,3.4,1.9,3.4,4.3
	c0,2.5,1.6,3.9,3.9,4.4c2.6,0.5,4.7-0.2,5.8-2.7c1.4-3.1,2.9-3,5.2-0.8c2.3,2.2,4.8,1.9,7.2-0.1c2.5-2.2,2.3-4.7,0.4-7.1
	c-1.5-2-1.6-3.2,0.5-4.8c2.9-2.2,2.5-4.7-1-5.9C867.3,9.7,866.4,8.8,867.3,6.7z"/>
<path class="st2" d="M986.7-53.5c-1.4,1.6,1.2,5.6-3.2,5.3c-2.2-8.9,2.5-14.4,13-15.3c0.7,0.1,1.3,0.2,2,0.2
	c1.1,0.6,2.2,0.5,3.2-0.3c9.1-6.8,18.6-6,28.3-1.2c0,0,0.2,0.1,0.2,0.1c1.8,1.8,3.5,3.7,5.2,5.5c1.3,7.3,1.7,14.6-0.2,21.8
	c-2.1,3.4-7.9,4.5-6.6,10.1c-0.1,0.8-0.1,1.7-0.2,2.5c-1.1,2.2-2.2,4.4-3.3,6.6c-0.8,0.8-1.6,1.7-2.4,2.5c-1.7,1.1-3.5,2.2-5.2,3.4
	c0,0,0,0,0,0c-0.5,0.3-1.1,0.6-1.6,0.9c-1.4-0.4-3,0.2-4.3-0.9c-0.3-3,2.7-2.5,4.1-3.6c0.7-0.3,1.3-0.6,2-0.8
	c2.3-1.1,4.2-2.7,5.2-5.2c0,0,0-0.1,0-0.1c0.5-0.8,1.3-1.5,1.6-2.4c1.6-5.9-0.1-10.8-4.7-14.7c-1.1-0.9-3.1-1.9-1.9-3.4
	c1.5-1.9,3.1,0,4.2,1c1.5,1.3,2.8,2.9,3.9,4.5c1.2,1.8,2.1,2.1,3.8,0.6c6.1-5.3,7.1-14.3,2-21c-0.4-1.4-1.2-2.4-2.6-2.8
	c-10.1-8.6-23.9-5.7-30.1,6.2c-0.6,1.1-0.8,3-2.5,2.5c-1.8-0.5-0.7-2.2-0.7-3.4c0-1.5,2.5-3.1,0.7-4.4c-1.9-1.3-4.2-0.2-6.1,0.9
	C988.3-57.4,986.6-56,986.7-53.5z"/>
<path class="st0" d="M935.5,1.8c2-9.4,3.9-18.8,5.9-28.2c0.7-3.1,2.5-5.2,5.9-4.6c3.6,0.6,4.3,3.5,3.8,6.5c-1,7.1-2.4,14.1-3.5,21.1
	c-0.9,5.4-0.3,5.8,5.3,5.5c7-0.4,13.9-0.7,20.9,0.4c6.6,1.1,6.6,1.1,6.6-5.7c2.1,2.1,2.1,9.9-0.5,11.2c-2.6,1.2-6,2.6-7.9-1.6
	c-0.9-1.9-2.7-1.6-4.4-1.6c-6.3,0-12.6,0-18.9,0c-1.3,0-3.5,0.4-3.7-0.6c-0.9-6.8-4.8-2.8-7.7-2.4C936.8,1.9,936.1,1.8,935.5,1.8z"
	/>
<path class="st0" d="M977.7,22.8c0.1,9.1,0.1,18.2,0.2,27.3c0,1.3,0,2.7,0.1,4c0.1,1.1,0.1,2.5,1.7,2.6c1.6,0,1.7-1.3,1.7-2.5
	c0.1-3.5,0.2-7,0.2-10.4c1.7,0.1,2.7,2.4,4.9,1.3c1.3-0.7,2.2,0.7,2.9,2c1.7,3.5,3.2,3.6,5.2,0.3c1.3-2.1,2.2-4.5,4.4-5.9
	c4.2,3.1,5,7,2.2,10.5c-3.6,4.4-10.5,4-14.1-0.9c-0.9-1.2-1.2-3.9-3.4-2.3c-1.7,1.3-0.2,3,0.7,4.4c4.9,7.5,13.5,7.3,21-0.4
	c0.7,3.4-3,5.8-2.4,9.2c0,0.1-0.2,0.4-0.3,0.3c-4.9-0.2-10.4,0.8-14.6-1.1c-2.6-1.2-4-2.2-6.7-0.9c-3.1,1.6-5.7,1.9-6.1-2.8
	c-0.1-0.9-0.8-1.7-1.4-2.5c-0.7-1-2.9-1.2-2.3-2.9c0.8-2.1,1.7,0.5,2.7,0.2c1.5-0.5,0.8-1.4,0.5-2.4c-2.3-7.3-2.2-14.9-2.3-22.4
	C972.5,24.8,974.1,22.4,977.7,22.8z"/>
<path class="st1" d="M858.3-38.1c1.8,5.8,1.2,11.4-0.9,16.9c-5,7.4-11.9,11.1-20.9,10.6c-2.2-0.6-4.4-1.2-6.7-1.8
	c-8.2-5.4-11.8-13-10.7-22.8c0.1-0.6,0.3-1.3,0.4-1.9c1.3-2.3,2.7-4.7,4-7c1.3-1.2,2.6-2.4,4-3.7C841.7-54,851.5-50.9,858.3-38.1z
	 M822.5-31c-0.1,9.4,7.3,17,16.6,17c9,0,16.8-7.4,17.2-16.2c0.3-9.1-7.3-17-16.6-17.2C830.1-47.6,822.6-40.4,822.5-31z"/>
<path class="st0" d="M836.5-10.6c9,0.5,15.9-3.2,20.9-10.6c0.5,0.4,1.5,1.1,1.5,1.2c-3.4,6.1,2.1,10.7,2.6,16
	c-3.6,2.2-6.2,0.2-8.8-2c-1-0.9-2.6-2.4-3.8-0.8c-1.4,1.7,0.9,2.5,1.8,3.4c0.8,0.8,1.8,1.4,2.7,2.2c1.6,1.4,1.5,2.8-0.6,3.1
	c-3.2,0.4-5.3,2.3-7.7,5c-0.5-2.4-0.7-4.1-1.2-5.8c-0.4-1.4,0-4-2.4-3.5c-2.1,0.5-0.9,2.8-1,4.3c0,0.2,0,0.3,0.1,0.5
	c1.8,5.1,1.1,9.7-2.8,13.6c-1.3-5-4.3-9.7-1.8-15.4c1.5-3.3,3.5-6.9,0.6-10.7C836.5-10.2,836.5-10.4,836.5-10.6z"/>
<path class="st0" d="M996.4-63.5c-10.5,0.9-15.2,6.4-13,15.3c-1.8,1-3.5,2.4-5.5,2.9c-3.6,0.9-1.6,3.4-0.7,3.6
	c4.1,0.9,3.2,4.3,4.1,6.8c-4.3,2.2-8.2,2.6-12.7-0.6c-3.6-2.6-8.2-1.2-12.3,0.1c-0.3-2.1-0.5-4.2-0.8-6.3c3-0.1,2.6-1.9,1.9-3.7
	c-1-2.6-2.1-5.2-3.2-7.7c3.6,1.7,4.4,6.3,8.2,7.8c1.1,0.4,0.4,1.7-0.5,2.3c-1,0.7-1.8,1.6-0.8,2.9c0.7,0.8,1.7,1,2.7,0.6
	c1-0.5,2.4-0.8,2-2.4c-1.1-4.4,1.9-3,4-3.1c-0.1,1.1-0.6,2.5,0.9,3c1.5,0.5,2-0.7,2.5-1.8c0.9-2.1,1.9-4.2,2.7-6.4
	c0.4-1.1,0.8-2.4-0.8-2.9c-1.2-0.4-1.8,0.5-2.3,1.4c-0.8,1.6-1.6,3.2-2.5,4.8c-0.2-4.7-1.4-10.6,4.1-12.3c6.4-1.9,12.2-5.1,18.7-6.6
	C995.5-66.1,996.1-65.1,996.4-63.5z M981.2-57c0.1-0.2-0.2-1-1.3-1c-1.4,0-2.7,0.5-3.2,1.9c-0.4,0.9,0.2,1.6,1.2,1.8
	C979.5-54,980.4-54.9,981.2-57z"/>
<path class="st0" d="M1019.5,52.3c-2,3.1-4.2,2.8-6.3,0.1c-1.7-2.3-3.8-3.6-6.7-3.6c-0.1-1.3-0.2-2.7-0.2-4c3.6,1.5,5.1-0.5,6-3.5
	c0.3-0.9,0.1-2.1,1.4-2.3c1.4-0.1,1.7,1,1.6,2c-0.3,3.6,3.5,2.3,4.8,4c2.1,2.8,3.6-0.1,5.5-0.4c6.5-1,5.8-6.2,5.3-9.6
	c-0.6-4.2-5.1-5.6-9.2-6.2c-1.4-0.2-3.2,0.1-3.3-2c-0.2-4.6-2.6-8.4-4.2-12.5c5.4-1.7,10.1-1.1,13.7,3.6c1.1,1.5,2,3.3,1.2,5.1
	c-0.8,1.8-2.6,0.5-4,0.5c-1.2,0-2.5-0.1-2.8,1.4c-0.3,1.9,1.3,2.1,2.6,2.2c5.4,0.4,8.5,3.8,11,8.2c0,2,0.1,4,0.1,6
	c-6.7,9-10.8,9.9-21.5,4.6c-1-0.5-1.8-0.9-2.6,0.1c-0.8,1-0.2,1.9,0.5,2.6C1014.5,50.4,1017.1,51.2,1019.5,52.3z"/>
<path class="st1" d="M754.7,123.7c-0.5,0.1-1,0.1-1.5,0.2c-0.6-5.7-0.9-11.4,0.7-16.9c1.8-2.4,3.2-5,3.9-7.9c0,0-0.1-0.1-0.1-0.1
	c1.7-1.3,2.4-3.1,2.8-5.2c0.3-0.6,0.7-1.3,1-1.9c0.4-0.7,0.7-1.4,1.1-2c0.8-0.4,0.9-1.1,1-1.9c1.8-2.5,3.2-5.2,4.1-8.1
	c0.3-0.6,0.6-1.2,1-1.8c1-1.3,2.3-2.5,1.2-4.3c-0.4-1-0.9-1.9-1.3-2.9c-0.3-0.4-0.6-0.8-0.8-1.2c0,0,0.1,0,0.1,0
	c-0.9-2.8-2.3-5.5-4.2-7.8c-0.1-1.3-0.7-2.3-1.7-3.1c-2.3-5.2-5-10.2-8-15c-1.7-4.7-0.9-9.5-1.2-14.3c4,14.9,12.9,27.6,19.9,41.1
	c1.4,2.8,1.7,5,0.2,7.9c-5.9,11.2-11.5,22.5-17.4,33.6C753.3,115.8,752.7,119.6,754.7,123.7z"/>
<path class="st2" d="M907.5,61c-2.3-0.4-4.6-0.8-6.6-2c-1.3-1.5-2.6-2.9-3.9-4.4c-1.2-2.3-1.3-4.9-1.3-7.4c0.2-0.4,0.3-0.9,0.5-1.3
	c2.2-2.6,1-4.9-0.7-7.1c0-2.3,0.1-4.7,0.1-7c0,0,0.2-0.2,0.2-0.2s-0.1-0.3-0.1-0.3c1.3-1.4,2.7-2.9,4-4.3c0,0-0.1,0-0.1,0
	c0.7,0,1.3-0.3,1.6-1c2.9,0,5.8,0,8.8,0c0.7,1.2,0.7,2.4,0.4,3.7c0,0,0-0.1,0-0.1c-1.5-0.2-2.9-0.5-4.4-0.5c-3.9-0.1-7.5,3-7.4,6.5
	c0.1,2.8,0.7,5.2,4.5,3.4c2-0.9,4.1-1.4,6.3-1c0,0-0.1,0-0.1,0c0.3,1.4,0.4,2.6-1.5,3c-1.4,0.3-3,0.4-3.7,2.1c-0.2,0-0.4,0-0.5,0.1
	c-3.7,0.8-4.4,3.7-4.3,6.8c0.1,3.5,2.6,5.5,5.6,6.9c3.2,1.5,6.1,0.6,8.9-1.2c1.3-0.8,1-1.9,0.2-2.9c-0.8-1-1.4-2.1-0.2-3
	c1.1-1,2.1,0.4,3.2,0.5c0,0,0.1,0.1,0.1,0.1c2,3.8,5,4.2,8.6,2.7c0.7-0.4,1.3-0.8,2-1.2c1.8-0.5,2.2-3.4,4.7-2.7
	c0,1.1,0.1,2.2,0.1,3.3c-0.6,0.7-1.3,1.5-1.9,2.2c0,0,0,0,0,0c-0.4,0.3-0.8,0.6-1.2,0.9c-2.5,1-5.1,1.7-7.8,1.7
	c-3.7-2.1-5.6,0.9-7.8,2.9c-1.8,0.2-3.5,0.4-5.3,0.6C908.1,60.9,907.8,60.9,907.5,61z"/>
<path class="st0" d="M819.2-35.2c-1.2,9.8,2.5,17.3,10.7,22.8c-9.5,2.4-9.6-0.3-7.2,10.1c0.8,3.6-1,5-3.5,5.8
	c-1.9,0.6-2.9,1.2-2.7,3.2c-1.8,0.1-3.6-0.1-5.2-1.1c9.9-9.2,8.1-24.6-5-32.5c0.2-2.3,1.6-2.8,3.5-2.1c3.8,1.4,5.4-0.4,5.6-3.8
	C815.6-35.4,817.4-35.1,819.2-35.2z"/>
<path class="st0" d="M980.2-5.6c-2-6.2-2.6-12.6-3.6-19c-0.5-3.1,0.5-5.8,3.9-6.4c3.2-0.6,5.1,1.4,5.7,4.3
	c2.4,11.5,5.7,22.8,7.4,34.4c-2.9-0.1-4.1-1.8-4.2-4.5c-0.1-1.5,0-3,0-4.4c0-5.9-0.4-6.6-6.2-12.6C982.2-11,981.2-8.3,980.2-5.6z"/>
<path class="st0" d="M1031.5-57.5c5.1,6.7,4.1,15.7-2,21c-1.8,1.5-2.6,1.2-3.8-0.6c-1.1-1.6-2.4-3.2-3.9-4.5c-1.1-1-2.7-2.8-4.2-1
	c-1.2,1.6,0.8,2.5,1.9,3.4c4.6,3.9,6.4,8.8,4.7,14.7c-0.2,0.9-1,1.6-1.6,2.4c-0.7-4.2-4.2-7.5-3.8-12.3c0.1-1.3-2.5-2.4-4.2-3
	c-3-1.1-3-3.8-1.6-5.6c1.3-1.7,2.3-5.4,6-3.1c0.4,0.3,0.8,0.5,1.3,0.7c7.4,3.5,7.6,3.5,7.5,2.1c-0.3-3.5,3.9-4.9,3.5-8.4
	C1031.1-53.5,1031.5-55.5,1031.5-57.5z"/>
<path class="st0" d="M932.5-56.1c0.7-2.4-0.8-3.7-2.4-4.9c-3.1-2.3-1.6-3.8,1-4.9c4.8-2.1,9.6,0.2,11,5.1c0.4,1.3-0.6,4,2.1,3.4
	c2.1-0.5,1.1-2.7,1.2-4.3c0.1-1.8-1.1-3-1.8-4.6c5.9,1.2,8.9,5.4,8.9,12.5c-0.5,0.8-0.9,1.7-1.4,2.5c-1.8-0.3-2.6,1-3.5,2.2
	c-0.9,1.2-2.1,2.3-3.8,1.3c-1.6-0.9-1.1-2.1-0.2-3.3c0.7-1,0.6-2.2-0.7-2.1c-4,0.2-4.4-2.4-4.7-5.4c-0.1-1-0.6-2.4-2-2.5
	c-1.7-0.1-1.6,1.3-1.7,2.4C934.4-57.1,933.9-56.3,932.5-56.1z"/>
<path class="st0" d="M778.6-21.9c-6.1,2.2-11.7,5.6-18.2,6.7c-2.7,0.4-4.5,2.7-6.7,4.2c-2.3-2.6-1-5.7-1-8.5c0-1.5,1.5-1.6,2.6-1.5
	c1.1,0.1,2.2,0.6,3.4,0.8c1.9,0.4,4.6,0.2,5.7-0.5c2.8-1.8-1.4-2.7-1.4-4.5c0-1,0.1-1.6,0.9-2c2.1,0.2,2.7-1.4,3.6-2.8
	c1.7-2.6,3.2-5.4,5.9-7.2c0.6,2.7-0.2,5.5-1.2,7.6c-2.3,5.2,0,6.3,4.4,6.5C777.5-23.1,778.1-22.7,778.6-21.9z"/>
<path class="st0" d="M986.7-53.5c-0.1-2.5,1.6-4,3.4-5.1c1.8-1.1,4.1-2.3,6.1-0.9c1.9,1.3-0.7,2.8-0.7,4.4c0,1.2-1.1,2.9,0.7,3.4
	c1.7,0.5,1.9-1.3,2.5-2.5c6.2-11.9,20-14.7,30.1-6.2c-2.4,0.5-4.5-0.7-6.7-1.2c-5.5-1.3-10.9-2.2-15.5,2.5c-0.6,0.6-1.3,1.1-1,2
	c1.1,3.6,0.1,5.1-3.8,4.1c-0.6-0.1-1.2,0.5-1.2,1.3c0,1.8,2.2,4.4-1.9,4.6c-3.5,0.2-6.7-0.6-8.1-4C989.7-53.2,988.2-53.1,986.7-53.5
	z"/>
<path class="st0" d="M916.8,50.3c-1.1-0.1-2.1-1.5-3.2-0.5c-1.2,1-0.5,2.1,0.2,3c0.8,1,1.2,2.1-0.2,2.9c-2.8,1.8-5.6,2.7-8.9,1.2
	c-3-1.4-5.4-3.3-5.6-6.9c-0.1-3.1,0.6-6,4.3-6.8c0,1.3-0.3,2.8,0.1,3.9c0.8,2.2,3,4.5,4.9,4c2.1-0.6,3.3-3.5,3.7-5.9
	c0.2-1.4-1.4-1.3-2-0.5c-3.7,5.1-4.5,0.3-6.1-1.7c0.7-1.7,2.3-1.8,3.7-2.1c1.9-0.4,1.8-1.6,1.5-3c1.3,0,3.3-0.6,3.6,0.6
	C914,42.6,916.6,46,916.8,50.3z"/>
<path class="st0" d="M793.8,118.6c0.8,1.2,1.8,2.4,2.4,3.7c2.7,5.8,6.9,9.2,13.5,8.8c6.1-0.4,9.7-3.9,12-11.3
	c1.9,0.4,2.2,1.8,1.2,2.9c-2.5,2.8,0.8,6.8-2.2,9.6c-0.7,0.7,1.7,1.5,0.9,3.6c-5.6-4.8-11,1-16.8-0.1c-1.4-0.3-3.1,0.4-4.2-1
	c-3.3-3.9-6.2-8-9.6-11.8C789.4,121.1,792.7,120,793.8,118.6z"/>
<path class="st0" d="M1030.9,61c-2.3-0.5-3.6-1.9-1-3.2c5.8-2.8,2.5-3.4-0.8-4.4c-0.4-0.1-0.6-0.7-0.9-1.1c2.3-1.2,4.5-2.4,6.8-3.6
	c0.8,0.4,1.3,1.1,1.3,2c0,9.2,0,18.3,0,27.5c0,1-0.2,2.5-1.3,2.1c-2.6-0.9-4.9,0.6-7.4,0.6c-3.3,0-4-2.1-3.1-4.2
	c1-2.3,2.1-5.1,5.2-5.8c-0.1,1.5-0.3,3-0.4,4.5c-0.1,1.1-0.5,2.6,1.1,2.8c1.6,0.2,1.8-1.1,1.9-2.3c0.5-4.3,1-8.6,1.4-12.9
	C1034.1,60.8,1033.1,59.9,1030.9,61z"/>
<path class="st2" d="M1006.3,44.8c0.1,1.3,0.2,2.7,0.2,4c-0.4,1.3-0.8,2.6-1.2,3.9c-7.5,7.7-16.2,7.9-21,0.4
	c-0.9-1.3-2.4-3.1-0.7-4.4c2.2-1.6,2.5,1.1,3.4,2.3c3.7,4.9,10.5,5.4,14.1,0.9c2.8-3.4,2-7.4-2.2-10.5c-0.8-0.4-1.6-0.7-2.4-1.1
	c-0.7-0.3-1.3-0.7-2-1c0.1-0.8,0.2-1.6,0.3-2.4c2.3-0.7,4.2,0.6,6.3,1.1c0,0,0,0,0.1,0c1.4,1.4,2.7,2.8,4.1,4.1
	C1005.6,43.1,1006,43.9,1006.3,44.8z"/>
<path class="st0" d="M944.7,56.1c3.5,1.8,3.6-0.6,3.6-2.9c0-8.8,0-17.6,0-26.4c0-2,0.2-4,0.2-6c3.1,1.2,4,3.6,4,6.7
	c0,5.6,0,11.3,0,16.9c0,1.2-0.5,2.7,0.1,3.4c4.2,5-1.1,7.8-2.5,11.4c-0.5,1.2-1.7,1.7-2.9,1.2C945.3,59.7,944.2,58.3,944.7,56.1z"/>
<path class="st2" d="M1036.1,35.2c-2.5-4.3-5.6-7.7-11-8.2c-1.3-0.1-2.9-0.3-2.6-2.2c0.2-1.5,1.6-1.3,2.8-1.4c1.4,0,3.2,1.3,4-0.5
	c0.8-1.8-0.1-3.6-1.2-5.1c-3.6-4.7-8.4-5.4-13.7-3.6c-0.6-0.2-1.3-0.3-1.9-0.5c0.1-1,0.1-1.9,0.2-2.9c0,0-0.1,0.1-0.1,0.1
	c0.7-0.3,1.4-0.5,2-0.8c0.9-0.2,1.9-0.4,2.8-0.5c4.8-0.2,8.9,1.8,12.7,4.4c1.3,2.6,3.2,5.2,2.9,8.1c-0.4,3.3,1.3,5.1,3.3,7
	C1036.2,31.2,1036.2,33.2,1036.1,35.2z"/>
<path class="st0" d="M853.5,127.8c0.1,2,0.1,4,0.5,5.9c0.4,1.9,1.3,3.7,2.4,6.4c-4.2,0-8,0.1-11.9,0c-4.4-0.1-6.4,1.9-6.2,6.3
	c0.2,3.5-0.1,6.9-0.1,10.4c-1.4,0-2.9-0.2-2.7-2.1c0.5-5.1,0.7-10.2,0.4-15.4c-0.1-1.3,0.5-3.6,3.4-2.8c2.8,0.8,9.3-3.2,9.8-6.1
	C849.7,127.6,851.5,127.7,853.5,127.8z"/>
<path class="st0" d="M889.4,176.8c3.1-0.1,5.5,1.5,7.6,3.4c1.6,2.9,1.2,6.1,1.4,9.2c0.2,5.4,1.5,10.1,7.2,12.4
	c3.1,1.3,3.8,3.8,3,6.9c-3-1.2-6.3,0.2-9.4-2.5c-2.1-1.8-2.6-2.5-1.8-4.8c1.7-5.1-1.4-10-1.3-15c0-0.4-0.5-1-0.9-1.1
	C890.1,184.6,890.4,180.3,889.4,176.8z"/>
<path class="st0" d="M913.5-64.9c-9.9,3.3-15.2,9.9-14.3,20.7c-2.3-1.5-5.5-2.6-1.9-6c0.3-0.3,0.7-1.2,0.5-1.3
	c-3.5-3-0.4-6.6-0.9-10.1c1.9,0,3.6,2.9,5.5,0.2c1.7-2.3,0-3.3-1.3-4.9c-1.8-2.4,0.6-3.2,2.2-3.7c2-0.6,4.4,0.4,6.3-2.8
	C910.3-69,911.2-66.5,913.5-64.9z"/>
<path class="st0" d="M838.4,158.8c1.9,2.7,4.9,2.5,7.7,2.5c7.1,0.1,14.2,0.2,21.3,0.2c-0.5,2.2,1.2,3.1,2.5,4.6
	c-7.6,0.1-15.1,2.1-22.5-0.7c-2.9-1.1-6.2-0.8-8.9-2.4c-1-0.6-2.9,0.1-2.8-2C835.8,159.4,837,158.9,838.4,158.8z"/>
<path class="st0" d="M784.3,46.1c-2.9-3.9-5.5-7.9-6.3-12.8c-0.5-2.8,0.4-5.2,1.6-7.6c0.5-1,1.1-2.3,2.4-2.3c1.5,0,1.3,1.6,1.6,2.7
	c1.2,4.7,4.2,8.2,7.4,11.6C785.8,38.2,787.1,43.7,784.3,46.1z"/>
<path class="st0" d="M1029.9-64.7c-9.6-4.8-19.1-5.6-28.3,1.2c-1,0.7-2.1,0.9-3.2,0.3c0-0.5-0.1-1,0-1.5c0.5-2.5-3.6-6-1.3-6.3
	c3.4-0.4,7-2.3,10.9-0.3c3.2,1.7,7.3,1.4,10.9,0.9c2.5-0.3,4.8-0.1,7.2,0C1030.5-70.2,1031.1-68.3,1029.9-64.7z"/>
<path class="st0" d="M774.9,123.6c2.9-5.8,5.7-11.6,8.7-17.3c0.5-1,0.6-2.6,2.1-2.4c0.7,0.1,1.4,1.3,1.8,2.1
	c1.8,3.5,3.6,7.1,5.4,10.6c-4,1.2-8.1,2-11.8,3.7C779,121.2,778.3,124.9,774.9,123.6z M784.3,114c-0.1-0.8-0.7-1.1-1.3-1.1
	c-0.8,0-1.2,0.6-1,1.2c0.2,0.5,0.8,1,1.3,1.1C784.1,115.5,784.2,114.7,784.3,114z"/>
<path class="st0" d="M821.4-59.4c0.6,1.5,1.2,3,1.9,4.9c-3.8-0.1-7.2-0.7-10.7,0.1c-1.9,0.4-2.4-1.1-2.1-2.5c1-3.5,0.8-7.6,5.1-9.5
	c1.8-0.8,3.4-2.1,4.8-3.5c3.6-3.6,5.8-1.3,8,1.6c-3.1,1.9-6.2,3.6-9.1,5.7c-1.7,1.2-5.6,2-4.2,4.3C816.9-55.1,819.2-59.1,821.4-59.4
	z"/>
<path class="st0" d="M948.4,17.8c-1.3-2.3-3.1-1.8-5.1-1.1c-2.8,1-5.9,3-8.7,0.8c-3.4-2.7-1.4-6.3-0.6-9.6c0.3-1.2,0.8-2.4,1.3-3.7
	c0.2,1,0.3,2.5,1.4,2.3c4.7-1.1,4.7,1.9,4.8,5.1c0,1.1-0.3,2.6,1.2,2.9c1.8,0.4,2.1-1.3,2.6-2.4c1.3-3.3,2.5-3,3.4,0.1
	C949.1,14,956,16.2,948.4,17.8z"/>
<path class="st0" d="M813.5,169.6c-2.3,1.8-4.9,0-7.4,0.6c-1.7,0.4-1.8-2.4-1.6-4c0.3-2.1-1-6.3,1.4-5.9c4.1,0.7,8.4-1.3,12.4,1.3
	c3.8,2.5,5.7,5.3,4.9,9.8c-2.4-1.5-4.6-3.1-7.1-4.4c-2.3-1.1-4.5-5.5-6.7-2.9C807.4,166.5,812.5,167.3,813.5,169.6z"/>
<path class="st0" d="M763.3-30.2c-3.2-0.3-0.5-5.3-4.2-5.2c1-1.5,2.2-2.9,2.9-4.5c1.1-2.5,5.2-3.4,4.1-7.1c4.3,1.4,8.5,0.7,13.1-1.7
	c-0.7,2.9-3.8,3.2-2.8,5.6c-1.9-0.4-3,0.7-4.3,1.8C768.4-38.2,765.9-34.1,763.3-30.2z"/>
<path class="st0" d="M831.3,55.3c8-5.6,8.8-10.9,2.8-18.4c2.3-0.1,3.8-2.7,6.3-2.1c2.3,7.6,2.9,14.4-4,20.7c-2.2,2-2.7,5.8-6.8,6.1
	c-0.7,0-1.3,0.1-1.9-1C830,59.6,832.2,58.4,831.3,55.3z"/>
<path class="st0" d="M900.8-40.2c0.2,0.2,0.4,0.5,0.6,0.7c7,9.7,7,9.7-3.8,15.7c0-2.3-3.9-6.1,4.2-5.7c-6.1-2.4-6.9-6.2-6.1-10
	C896.3-42.5,899.1-39.2,900.8-40.2z"/>
<path class="st0" d="M796.1,149.2c2.5-0.6,4.2,0.8,5.6,2.4c1.4,1.7,2.6,3.9,1.4,5.9c-1.2,2.2-3.6,1.3-5.4,0.7
	c-2.8-0.9-5.6-0.2-8.4-0.6c-2.7-0.4-5.2-1.2-2.7-4.8c1.5-2.2,0.5-4.9,0.8-7.3c1.8,1.9,3.5,4,5.5,5.6c1.9,1.5,3.4,5.8,5.8,3.8
	C801.3,152.9,796.5,151.5,796.1,149.2z"/>
<path class="st0" d="M858.3-38.1c-6.8-12.7-16.7-15.8-30.7-9.6c0-0.7-0.2-1.5,0-2c1-1.8,12.5-5.2,14.4-5.1
	c6.5,0.4,10.4,5.7,15.8,8.3C860.9-45,860-41.1,858.3-38.1z"/>
<path class="st0" d="M796.7-28.1c-4.9,2.3-10,3.7-15.1,5.3c0.6-4.8,4.1-6.2,9.5-7c-6.7-3.6-3.3-9-2.6-12.7c0.6-2.9,5.5-5.9,10.2-4.6
	c-1.9,2-3.8,4.1-5.8,6.1c-1.3,1.3-2.8,2.5-1.5,4.6C790.6-30.1,791.8-28.3,796.7-28.1z"/>
<path class="st0" d="M805.2-47.5c0.1,0.5,0.2,1,0.4,1.4c1,2.2,4.5-1,4.3,1.2c-0.2,2.3-2.5,4.5-4,6.7c-0.2,0.4-0.9,0.5-1.1,0.9
	c-0.5,1.3,1.5,4.4-1,3.7c-3.5-0.9-7.8,1.4-10.5-2.6C797.4-40,801.3-43.8,805.2-47.5z"/>
<path class="st0" d="M821,113.9c-3.7-7-7.3-14-11-21c2.3,0.1,5.6,3.2,6.1-2.1c0.1-0.8,1.2-0.9,2.1-0.4c1.8,1,3.2,8.1,1.6,9.6
	c-1.7,1.7-1.5,2.9-0.1,4.6C822,107.4,822.5,110.6,821,113.9z"/>
<path class="st0" d="M753.7,127.7c7.8,5.2,12.2,5,19.7-1.1c2.5,6.9,0.3,9.6-7,8.3c-2.4-0.4-4.6,0.6-6.9,0.8
	C753.5,136.4,751.2,133.1,753.7,127.7z"/>
<path class="st0" d="M796.3,66.9c-2.7-2.5-4.3-5.7-5.8-9c-1.5-3-2.9-5.9-4.4-8.9c3.2,1.1,6.2,2.7,9.7,3.1c1.2,0.2,2.7,0.9,2.7,2.5
	C798.3,58.8,799.5,63.2,796.3,66.9z"/>
<path class="st2" d="M1035.1,48.7c-2.3,1.2-4.5,2.4-6.8,3.6c-1.6,0.2-3.2,0.5-4.9,0.7c-0.7-0.1-1.3-0.1-2-0.2
	c-0.6-0.2-1.3-0.3-1.9-0.5c-2.4-1.1-5-1.9-6.9-3.8c-0.7-0.7-1.3-1.6-0.5-2.6c0.8-1,1.7-0.6,2.6-0.1c10.7,5.3,14.8,4.4,21.5-4.6
	C1036.2,43.8,1036.6,46.4,1035.1,48.7z"/>
<path class="st0" d="M994.9,12.7c0.2,5.4-2.2,7.4-7.2,5.9c-1.6-0.5-3.2-1-4.7-1.7c-3.3-1.5-5-0.6-5.4,3c-4.5,0.3-4.4-4.3-6.6-6.5
	c-0.9-0.9,0.8-1.6,1.7-1.4c4.3,1,8.9-0.3,12.8,2.5C989.3,17,992.4,16.4,994.9,12.7z"/>
<path class="st0" d="M930.5-69.9c-0.7,0.5-1.5,0.8-2,1.4c-3.2,4.1-7.5,4.3-12.1,3.2c1.4-2.8,3.1-5.7-3.1-5.4c3.3-2,6.2-1.7,9.1-2
	c0.9-0.1,1.9,0.2,2.9,0.2c2-0.1,0.4-5,3.5-2.9C930-74.5,930-71.8,930.5-69.9z"/>
<path class="st0" d="M909.3,38c-2.2-0.4-4.3,0.1-6.3,1c-3.8,1.8-4.4-0.6-4.5-3.4c-0.1-3.5,3.5-6.7,7.4-6.5c1.5,0,3,0.4,4.4,0.5
	C910,32.4,909.6,35.2,909.3,38z"/>
<path class="st0" d="M954.7,120.6c-0.6-1.5-2.3-2.7-0.3-4.7c6.4-6.8,6.6-8.3,2.5-16.4c2.7-1.2,4.3-1.1,4.6,2.5
	c0.3,2.9,1.2,5.8,1.7,8.7C963.9,114.6,960.3,118.7,954.7,120.6z"/>
<path class="st0" d="M933.3,79.8c-2-2.5-5.4-2.4-7.8-4c0.1-1.1,0.7-2.4,1.7-1.8c3.1,1.6,7.6,0.4,9.5,4.6c0.6,1.4,1.8,2.1,3.5,2.3
	c3.6,0.3,6.3,6.1,4.6,9.3c-0.2,0.4-1.2,0.4-1.8,0.6C940.2,86.7,937.4,82.7,933.3,79.8z"/>
<path class="st0" d="M908.2,212.7c0.2,2.4-0.9,4.5-1.5,6.7c-0.4,1.4-1.4,3,0.3,4c1.6,0.9,2.6-0.8,3.7-1.7c0.9-0.7,1.7-1.5,2.6-2.3
	c0.1,2.3,2.8,5.2-0.3,6.7c-3.1,1.4-6.8,0.9-10.2,0.1c-0.3-0.1-0.7-0.5-0.7-0.7c0.5-3.6,1.5-7.1,1.7-10.8
	C903.8,212.5,906.4,212.8,908.2,212.7z"/>
<path class="st0" d="M981.6,25.8c0-1.8,0-3.6,0-6c6.2,2.5,12.2,4.8,16.6-2.1c1.6,0.9,1.7,2.8,2.5,4.1c1.3,2.2,1.5,3.8-2.4,3.6
	C992.7,25,987.1,25.6,981.6,25.8z"/>
<path class="st0" d="M1022.7-21.9c-1,2.5-2.8,4-5.2,5.2c0-0.2-0.1-0.3,0-0.5c0.1-2.8-1.6-3.5-3.9-2.8c-1.4,0.4-4.1,0.4-3.9,2.2
	c0.4,3,3-0.2,4.3,0.8c0.5,0.4,1,0.8,1.5,1.2c-1.4,1.2-4.4,0.6-4.1,3.6c-3,2-4.2,0.3-4.7-2.4c-1.3-7.7-1.1-7.8,7.3-7.6
	C1017-22.1,1019.9-23.8,1022.7-21.9z"/>
<path class="st0" d="M896.7-23.1c-6.1,9.4-6.2,14.3-0.3,22.9c-1.8,0-3.7,0.2-4.2-2.3c-0.6-3.1-1.6-6-4.8-7.5c-0.9-0.4-1.3-2-0.4-2.5
	c3-1.9,2.2-4.8,2.5-7.5C890-25.5,894.2-22.3,896.7-23.1z"/>
<path class="st0" d="M871.4,31.8c2.9-3,2.3-6.8,3.1-10.4c1.4-6.7,0.1-12.1-3.3-17.5c5.5,0.9,9.6,10.8,6.5,16.9
	c-0.9,1.9-1.5,3.7-1.3,5.6C876.8,30.2,875.2,31.9,871.4,31.8z"/>
<path class="st0" d="M1027.2,99.7c1.9,1.7,1.1,4.7,3,6.5c0.2,0.2,0.2,1.1-0.1,1.4c-2.3,2.8-6.3,1.5-8.8,3.6
	c-0.9-2.4-4.3-3.8-3.6-6.5c0.8-2.6,0.9-6.7,5.7-5.9c-0.6,1.9-1.3,3.7-1.8,5.6c-0.3,1.1-0.8,2.5,0.6,3c1.5,0.6,2-0.7,2.4-1.8
	C1025.6,103.7,1026.4,101.7,1027.2,99.7z"/>
<path class="st0" d="M871.5,193.4c-0.5,3.4-3.2,2.5-5,2.1c-2.2-0.5-4.5-1.6-4.9-4.3c-0.5-2.7,1.7-3.1,3.5-4c5.9-2.8,7.7-2.5,12.4,3
	c-1.6-0.2-3.3-0.5-4.9-0.4c-2.1,0.1-5.5-2.3-6.2,0.5C865.6,193.6,869.9,192.1,871.5,193.4z"/>
<path class="st0" d="M1007.7,130.8c-2.8-2.8-0.7-5.6,0.9-7.4c2.1-2.4,2-4.7,0.5-6.7c-3.1-4,0.6-3.6,3-5.2c-0.6,3.2-1.4,6,3.1,4.6
	c2.9-1,3.5,0.8,2.9,3.3c-2.2-1.6-3.1,0-4.1,1.6C1011.9,124.3,1010.4,127.9,1007.7,130.8z"/>
<path class="st1" d="M805.2-47.5c-3.9,3.8-7.9,7.5-11.8,11.3c-0.7,0-1.3,0-2,0c-1.3-2.1,0.3-3.3,1.5-4.6c1.9-2,3.8-4.1,5.8-6.1
	c0.3-0.2,0.6-0.5,0.9-0.7c1.7-1,3-3.1,5.4-2.2C805.1-49.2,805.2-48.4,805.2-47.5z"/>
<path class="st0" d="M801.6,43.6c7.7,4,15.3,8,23,12c-4.1,1.7-6.8-1.8-10.1-2.9c-3.5-1.3-6.6-3-10.6-2.9
	C798.5,49.8,802,45.7,801.6,43.6z"/>
<path class="st0" d="M863.7,100.4c-4.7,2.2-7.8,5.9-9.9,10.5c-1-3.2-2.7-6.3-3.8-7C856.4,98,859.1,97.3,863.7,100.4z"/>
<path class="st2" d="M871.5,193.4c-1.6-1.3-5.9,0.2-5.2-3c0.7-2.8,4-0.3,6.2-0.5c1.6-0.1,3.3,0.3,4.9,0.4c2.3,1.1,5.6-0.7,7.3,2.4
	c-0.2,0.5-0.3,1-0.5,1.5c-2.2,0-4.4,0-6.7,0.1c-1.3-0.7-2.7-0.7-4.1-0.6C872.8,193.7,872.2,193.5,871.5,193.4z"/>
<path class="st1" d="M821.4-59.4c-2.2,0.3-4.5,4.3-6.2,1.3c-1.4-2.3,2.5-3.1,4.2-4.3c2.9-2.1,6.1-3.8,9.1-5.7
	c0.9,0.1,1.9,0.2,2.8,0.3c0.4,2.3-1.3,3.1-2.9,4c-1.9,1-3.9,1.8-5.4,3.5C822.5-60,821.9-59.7,821.4-59.4z"/>
<path class="st2" d="M813.5,169.6c-1-2.2-6.1-3.1-4.1-5.5c2.2-2.6,4.4,1.8,6.7,2.9c2.5,1.2,4.7,2.9,7.1,4.4c0.3,0.2,0.7,0.3,1,0.5
	c0.5,1,1.3,2,0,3c-0.9,0.7-1.8,0.2-2.7-0.3c-1.7-0.9-3.3-1.9-5-2.9c0,0,0,0,0,0c-0.4-0.3-0.7-0.6-1.1-0.8
	C815.1,170,814.3,169.7,813.5,169.6z"/>
<path class="st1" d="M763.3-30.2c2.6-4,5.1-8,8.8-11.1c1.3-1.1,2.4-2.3,4.3-1.8c0,1,0,1.9,0,2.9c-1.4,0.6-2.5,1.5-3.1,2.9
	c0,0,0,0,0,0c-2.8,1.7-4.2,4.6-5.9,7.2c-0.9,1.4-1.5,3-3.6,2.8C763.6-28.3,763.5-29.2,763.3-30.2z"/>
<path class="st0" d="M839.4,179.7c0.1-1,0.4-2.4,1.4-2.4c4.4,0.1,4.9-2.5,3.8-6c0.8,0.1,1.3,0.1,1.3,0.2c0.5,5.5,4.2,9.4,7.1,13.6
	C848.3,183.8,843.7,182.1,839.4,179.7z"/>
<path class="st3" d="M1027.2,99.7c-0.8,2-1.6,4-2.4,5.9c-0.5,1.1-1,2.4-2.4,1.8c-1.4-0.6-1-1.9-0.6-3c0.6-1.9,1.2-3.8,1.8-5.6
	c1.1-1.4,1.1-3.2,1.5-4.9c0.7-1.3,1.4-2.6,2.1-3.9c0,0,0.3,0.2,0.3,0.2c0,0,0.4,0.2,0.4,0.2l0.5,0c1,0.9,0.8,2.1,0.7,3.3
	c-0.3,1-0.5,2.1-0.8,3.1C1027.8,97.8,1027.5,98.7,1027.2,99.7z"/>
<path class="st3" d="M972.4,171.6c-1.9,1.1-3.7,2.2-5.6,3.2c-1,0.5-2.2,1.5-3.1,0.2c-1.1-1.6,0.4-2.4,1.5-3.1
	c3.3-2.2,6.6-4.5,10-6.6c0.9-0.6,2.1-1.6,3.1-0.4c1.2,1.5-0.2,2.4-1.2,3.2c-1,0.8-2.1,1.6-3.2,2.4
	C973.3,170.8,972.9,171.2,972.4,171.6z"/>
<path class="st0" d="M1030.1,14.1c-3.8-2.6-7.9-4.6-12.7-4.4c1-6.9,6.3-3.1,9.7-3.7c3.2-0.6,3.4,2.3,3.3,4.7
	C1030.4,11.8,1030.2,13,1030.1,14.1z"/>
<path class="st0" d="M993.3,154.2c2.3,0.8,1.4,1.9,0.4,3.3c-1.4,2-3.5,3.2-5.4,2.6c-1.3-0.4-3.6-0.9-3.8-3.3
	c-0.4-4.5,4.9-9.3,9.5-8.5c-1,1.1-2.1,2.1-2.9,3.3c-1.2,1.7-5,3-3.1,5.1C990.1,159.1,991.3,154.9,993.3,154.2z"/>
<path class="st0" d="M998.7,15.8c-0.5-3.3-1-6.6-1.4-9.9c2.1-1.2,3.6-2.9,6.7-3.1c2.7-0.2,3.3,1.4,4.7,2.2c0.7,0.4,0.2,1.4-0.6,2
	c-2.1,1.5-3.5,0.5-4.5-2C1001.4,8.8,1001.6,13,998.7,15.8z"/>
<path class="st2" d="M796.1,149.2c0.4,2.3,5.3,3.7,2.7,5.8c-2.4,2-4-2.2-5.8-3.8c-2-1.7-3.7-3.7-5.5-5.6c-0.7-1.7-3.1-3.8,0.9-4.6
	c2.5,2.7,4.6,5.9,7.8,8L796.1,149.2z"/>
<path class="st0" d="M871.5,161.5c4.7-1.2,8.4-1,8.7,5.3c0.1,2,1.8,3.8,2.8,5.7c-3.8-0.7-7.1-2.9-10.9-3c-0.2-1.7,0.8-1.7,1.5-2
	c1.2-0.6,2.6-1.3,2.4-2.8c-0.2-1.6-1.9-0.9-2.9-1.1C871.8,163.4,871.5,162.6,871.5,161.5z"/>
<path class="st0" d="M756.7-36.6c-1,1.5-2.6,2.1-3.6,0.6c-1.2-1.8-1.2-4.3,0.1-6c1.1-1.4,2.3-2.5,2.4-4.6c0.1-1.5,1.4-1.9,2.5-0.9
	c1.4,1.4,3,1.2,4.6,1.4C760.5-43,757.6-40.4,756.7-36.6z"/>
<path class="st2" d="M839.4,179.7c4.3,2.4,8.9,4.1,13.7,5.3c0,0,0.1-0.1,0.1-0.1c0.5,1.1,0.5,2.2,0,3.3c-0.5,0.1-1.1,0.1-1.6,0.2
	c-3.4-1.2-6.7-2.4-10.1-3.6l-0.3-0.2c0,0-0.4,0-0.4,0c-1.2-1-2.7-1.7-4.2-1.9c0,0,0,0,0,0c-0.3-0.4-0.7-0.8-1-1.1
	C835.9,179.1,837.8,179.7,839.4,179.7z"/>
<path class="st3" d="M1007.7,130.8c2.7-2.9,4.2-6.5,6.3-9.8c1-1.6,1.9-3.3,4.1-1.6c0.1,0.3,0.1,0.7,0.2,1c-0.2,0.5-0.4,0.9-0.6,1.4
	c-0.6,1-1.1,1.9-1.7,2.9c-2.2,3.3-4.4,6.7-6.7,10C1006.5,134.4,1007.3,132.5,1007.7,130.8z"/>
<path class="st3" d="M1030.9,61c2.2-1.1,3.2-0.1,3,2.1c-0.4,4.3-0.9,8.6-1.4,12.9c-0.1,1.2-0.3,2.6-1.9,2.3
	c-1.6-0.3-1.2-1.7-1.1-2.8c0.1-1.5,0.3-3,0.4-4.5C1030.2,67.6,1030.5,64.3,1030.9,61z"/>
<path class="st3" d="M993.3,154.2c-2,0.7-3.2,4.8-5.3,2.5c-1.9-2.1,1.9-3.4,3.1-5.1c0.8-1.2,1.9-2.2,2.9-3.3c0,0,0-0.2,0-0.2
	c0.9-0.9,1.8-1.8,2.8-2.7c0.9-0.8,1.8-2.5,3.2-1.6c1.8,1.2-0.1,2.6-0.4,3.9c-0.3,0.4-0.7,0.7-1,1.1c-1.8,1-2.9,2.6-3.9,4.3
	C994.1,153.6,993.7,153.9,993.3,154.2z"/>
<path class="st0" d="M956.7,99.3c-2.8-1.7-5.8-3.1-9.3-2.5c-2.6,0.5-3.2-0.9-3-3.1c1.4-0.1,2.9,0.2,4.2-0.9c1.1-0.9,1.3-4.1,3.8-1.9
	C954.9,93.1,959.3,94.5,956.7,99.3z"/>
<path class="st0" d="M816.5,171.7c1.7,1,3.3,1.9,5,2.9c0.8,0.5,1.8,1,2.7,0.3c1.3-0.9,0.5-2,0-3c2.1,0,4.8-0.7,5,2.5
	c0.2,2.6-2.1,3.5-4.3,4.1C819.1,180,817.4,178.7,816.5,171.7z"/>
<path class="st0" d="M796.2,149c-3.2-2.1-5.2-5.3-7.8-8c0.2-2,1.8-3,3.2-4.1c0.5-0.4,1.5-0.4,2.2-0.6c-2.6,4.3,7.2,5.4,2.7,10.4
	C796.1,147.1,796.3,148.2,796.2,149z"/>
<path class="st0" d="M958.4,140c-2.9,0.2-5.9,0.4-8.8,0.7c-1.1,0.1-2.1-0.2-2.5-1.1c-0.3-0.9,0.7-1.2,1.4-1.5
	c3.9-1.8,5.2-5.6,6.7-9.2c0.8,0.1,2,0.2,1.7,1.2C955.9,133.6,958.2,136.6,958.4,140z"/>
<path class="st0" d="M823-60.3c1.4-1.7,3.5-2.4,5.4-3.5c1.6-0.9,3.3-1.7,2.9-4c1.5-2.6,2.4-2.8,3.6,0.3c1.6,4.3-3.2,5.4-4.1,8.6
	c-0.5,1.6-2.9-0.3-4.4-0.5C825.2-59.5,824.1-60,823-60.3z"/>
<path class="st0" d="M910.9,77c-0.4,0.3-0.9,0.4-1.2,0.8c-4.7,4.5-9.1,3.5-13.4-0.7c0.8-2.3,1.8-3.5,4.7-2.5
	C904.2,75.7,907.8,75.6,910.9,77z"/>
<path class="st1" d="M845.5-75.9c4.9-1.1,9.6-3.1,14.8-2.2c-0.5,2.9-3.6,1.5-4.9,3c-2.4,0.8-4.7,1.5-7.1,2.3c-0.3,0.2-0.7,0.4-1,0.6
	c0,0,0,0,0,0c-0.6,0.1-1.3,0.3-1.9,0.4c-1-0.1-2-0.3-2.9-0.4C842.3-74.5,844.5-74.8,845.5-75.9z"/>
<path class="st0" d="M999.5,147.8c0.3-1.3,2.2-2.6,0.4-3.9c-1.4-0.9-2.3,0.7-3.2,1.6c-1,0.9-1.9,1.8-2.8,2.7
	c-0.6-4.4,1.2-6.6,6.6-7.3c1.8-0.2,3.4-0.7,5.6-2.1C1005,143.2,1005.4,147.7,999.5,147.8z"/>
<path class="st0" d="M806.3,85.2c-3.8-5-6.4-10.7-9.1-16.3c4,0.1,5.9,2.3,6.2,6.2c0.2,3.1,0.7,6.1,4.9,5.9c0.8,0,1.7,0.7,1.6,1.6
	C809.9,84.9,807.9,84.7,806.3,85.2z"/>
<path class="st0" d="M1036.3,29.3c-2-1.9-3.7-3.8-3.3-7c0.3-2.9-1.6-5.5-2.9-8.1c6.3-0.6,6.3-0.6,6.3,5.7
	C1036.4,23,1036.3,26.1,1036.3,29.3z"/>
<path class="st0" d="M852.4,36c0.2,0,0.3,0,0.5-0.1c4.8-2.8,9.9-3.8,15.3-2.6c0.1,0.8,0.1,1.7,0.2,2.5c-3.2,0.6-6.4,1.6-9.6,1.8
	C856.7,37.7,853.8,39.3,852.4,36z"/>
<path class="st0" d="M932.5,20.5c2.5,0.9,5,1.9,7.6,0.9c5.1-2.1,5,0.9,4.5,4.4c-2.2,0.2-4.3-0.9-6.7-0.2
	C933.7,26.8,931.6,25.1,932.5,20.5z"/>
<path class="st1" d="M756.7-36.6c0.9-3.8,3.8-6.4,6-9.5c1.2-0.3,2.3-0.6,3.5-0.9c1.1,3.8-3,4.6-4.1,7.1c-0.7,1.6-1.9,3-2.9,4.5
	C758.1-35.3,757.4-35.9,756.7-36.6z"/>
<path class="st0" d="M753.8,43.6c3,4.8,5.7,9.8,8,15c-1.1,0.1-2.5,0.4-3.1-0.8c-1.4-2.6-1.3-6.5-5.9-5.9
	C752.6,49.1,751.4,46.2,753.8,43.6z"/>
<path class="st0" d="M1009.3,134.6c2.2-3.3,4.4-6.7,6.7-10c3.2,2.6-0.1,6.5,2.3,9.5C1015,132.8,1012.4,136.5,1009.3,134.6z"/>
<path class="st0" d="M823.6-44.1c-1.3,2.3-2.7,4.7-4,7c-2.1-4.3-0.9-9.8-4.9-13.5c-0.6-0.5,0.5-1.5,1.4-1.5c2-0.1,3.3,0.8,3.2,2.8
	C819.3-46.2,819.9-43.9,823.6-44.1z"/>
<path class="st0" d="M974.8,141.2c-4.3-2.1-9-0.3-13.3-1.3c1.7-2.3,2.3-7.6,6.8-2.6c0.6,0.7,1.9,0.4,2.8,0c1.2-0.6,2.4-2.4,3.8-0.8
	C976,137.9,975.5,139.7,974.8,141.2z"/>
<path class="st0" d="M757.7,99c-0.7,2.9-2.1,5.5-3.9,7.9c-2.9-4.6-0.7-9.6-1.3-14.4c-0.1-0.9,0.6-1.6,1.6-1.1c1.2,0.6,1.6,1.8,0.9,3
	C753.1,97.6,754.3,98.9,757.7,99z"/>
<path class="st2" d="M970.6-46.8c0.8-1.6,1.6-3.2,2.5-4.8c0.5-0.9,1.1-1.8,2.3-1.4c1.6,0.5,1.2,1.8,0.8,2.9
	c-0.8,2.2-1.8,4.3-2.7,6.4c-0.5,1.1-1,2.3-2.5,1.8c-1.5-0.5-1-1.9-0.9-3C970.2-45.6,970.4-46.2,970.6-46.8z"/>
<path class="st0" d="M1028.5-27.2c-1.2-5.6,4.5-6.7,6.6-10.1c2.5,4.9,1.9,6.7-2.8,8.2C1031-28.7,1029.8-27.8,1028.5-27.2z"/>
<path class="st0" d="M841.4,26.2c2.2,0.5,2.4,2.5,3,4.2c0.9,2.6,3.1,3.7,5.2,5.1c-1.2,2.2-2.4,3.6-4.3,0.5c-1.2-2-3.2-0.9-4.8-1.2
	C840.8,31.9,841.1,29,841.4,26.2z"/>
<path class="st1" d="M951.1-51.1c0.5-0.8,0.9-1.7,1.4-2.5c0.6,0.2,1.3,0.4,1.9,0.6c1.1,2.6,2.2,5.1,3.2,7.7c0.7,1.8,1.1,3.7-1.9,3.7
	c-0.3-0.2-0.6-0.4-0.9-0.6c-0.9-2.5-1.5-5.1-3.2-7.1C951.4-50,951.2-50.6,951.1-51.1z"/>
<path class="st0" d="M869.2-1.1c-1.9-1-3.9-1.9-5.8-2.9c0.4-0.5,1-0.9,1.3-1.5c1.3-2.7,3.5-4.1,5.8-1.8
	C872.4-5.3,872.1-2.6,869.2-1.1z"/>
<path class="st0" d="M805-50c-2.5-0.8-3.7,1.2-5.4,2.2c0-2-3.5-6.1,2.7-4.6c0.6,0.1,1.4-0.7,2.1-1.2c1.2-0.8,1.8-3.8,3.6-1.7
	c1.4,1.7,0.9,4.2-1.9,5.1C805.7-50.1,805.4-50.1,805-50z"/>
<path class="st0" d="M989.7-28c-1.1-2.4-2.7-4.4-4.7-6c1.5-0.1,3-0.3,4.4-0.1c1.5,0.2,4.1-1.9,4.1,1.9
	C993.5-29.3,992.7-27.8,989.7-28z"/>
<path class="st0" d="M919.2,201.3c-1-2.4-2.2-4.7-3-7.1c-0.8-2.6-0.2-4.8,2.6-5.9C920.4,192.5,920.8,196.9,919.2,201.3z"/>
<path class="st0" d="M996.3,0.9c-1.4-3.9-2.5-7.9-2.8-12.1c2.5-0.2,4.4,0.4,3.9,3.5C997-4.8,998.6-1.7,996.3,0.9z"/>
<path class="st0" d="M898.5,1.8c5.5,1.2,7.2,6.1,9.9,10.1C904.6,11.5,899.7,6.4,898.5,1.8z"/>
<path class="st0" d="M1025-18.1c1.1-2.2,2.2-4.4,3.3-6.6c0.3,1.6,0.3,3.3,0.9,4.8c1,2.2,2.2,4.8-0.7,5.9
	C1025.4-13,1026.4-16.9,1025-18.1z"/>
<path class="st0" d="M943.5-66.3c-2.5-1.8-4.8-3.8-8.1-4.2c2.2-3.2,5.6-2,8-1.2C945.8-70.8,942.8-68.1,943.5-66.3z"/>
<path class="st0" d="M841.4,184.9c3.4,1.2,6.7,2.4,10.1,3.6C847.4,191.7,844.1,190.5,841.4,184.9z"/>
<path class="st0" d="M885.6,76.2c-2.9,1-5.7,2.2-8.3,4c-1.2-0.5-2.3-1.4-1-2.4c2.1-1.5,3.9-4.1,7.1-3.4
	C884.2,74.6,884.9,75.6,885.6,76.2z"/>
<path class="st0" d="M763.5,61.8c1.9,2.3,3.2,5,4.2,7.8c-1.5-0.3-3.2,2.5-3.6,1.3C763.4,68,761,64.9,763.5,61.8z"/>
<path class="st0" d="M767.6,79.8c-0.9,2.9-2.3,5.6-4.1,8.1c-0.3-1.4-0.6-2.8-0.9-4.3c-0.3-1.8-0.3-3.8,1.2-5
	C765.3,77.4,766,80.3,767.6,79.8z"/>
<path class="st0" d="M1035.3-59.1c-1.7-1.8-3.5-3.7-5.2-5.5c1.9-0.6,4.1-2.8,5.7-0.7C1037.1-63.7,1037.1-61.1,1035.3-59.1z"/>
<path class="st0" d="M932.3,49.3c-2.5-0.7-2.9,2.2-4.7,2.7c-0.1-0.8,0-1.7-0.3-2.5c-0.7-1.9-1.3-4,1.2-4.4
	C931.2,44.6,932.8,46.3,932.3,49.3z"/>
<path class="st0" d="M913.7,60.4c2.2-2,4.1-5,7.8-2.9C921.2,64.8,916.7,60.4,913.7,60.4z"/>
<path class="st0" d="M896.9,54.6c1.3,1.5,2.6,2.9,3.9,4.4c-0.9,1.9-2.6,2.7-5.2,3.9C897.2,59.8,894.8,57.1,896.9,54.6z"/>
<path class="st0" d="M880.7,22.8c1.1,3,0.7,5.3,0.6,7.6c-0.1,1.2-0.8,2.4-2.3,2c-1.4-0.4-1.8-1.7-0.8-2.7
	C880.2,27.9,878.6,24.9,880.7,22.8z"/>
<path class="st0" d="M855.4-75.1c1.3-1.6,4.5-0.1,4.9-3c1.3,0.1,2.4,0.7,1.8,2.1c-0.7,1.8-2,3.4-4.1,3.7
	C856.3-72.1,855.6-73.4,855.4-75.1z"/>
<path class="st0" d="M925.6,53.1c-3.6,1.4-6.6,1-8.6-2.7C920.5,49.3,923.4,50,925.6,53.1z"/>
<path class="st0" d="M993.2-12.6c-3-3.7-2.4-8.3-2.9-12.5C994.1-21.6,992.5-16.8,993.2-12.6z"/>
<path class="st0" d="M914,218.6c1.4-2.1,2.8-4.2,4.3-6.4c0,0.7-0.1,1.4,0.2,2C921.5,220.2,918,219.7,914,218.6z"/>
<path class="st0" d="M1017.4-12.2c1.7-1.1,3.5-2.2,5.2-3.4c1.6,0.8,3,2,2.2,3.7c-0.7,1.5-2.3-0.1-3.5-0.2
	C1020-12.1,1018.7-12.2,1017.4-12.2z"/>
<path class="st0" d="M1001.1,38.1c-2.1-0.5-4-1.8-6.3-1.1c-1.4-0.8-1.4-2.5-0.2-2.5C997.2,34.6,1001,33.3,1001.1,38.1z"/>
<path class="st0" d="M1027.1,90c-0.7,1.3-1.4,2.6-2.1,3.9c-3.9-0.5-2.2-4-3.3-6.2C1023.5,88.6,1024.9,90.3,1027.1,90z"/>
<path class="st0" d="M896,8.5c0.3-0.1,0.6-0.4,0.9-0.3c2.3,0.7,4.8,2.1,5,4.3c0.2,2-1.6,1.1-2.6,0c-0.8-0.9-1.6-1.7-2.4-2.5
	C896.4,9.6,895.8,9.3,896,8.5z"/>
<path class="st0" d="M853.2,188.2c0.5-1.1,0.5-2.2,0-3.3c3.1-0.4,3.4,2.4,5.1,3.9C856,190.1,854.4,190.1,853.2,188.2z"/>
<path class="st0" d="M895.5,31.8c0,2.3-0.1,4.7-0.1,7C891.3,36.5,891.4,34.6,895.5,31.8z"/>
<path class="st0" d="M942.1,79.4c-1.7-1.4-4.1-1.5-3.2-4.1c0.3-0.8,1.1-1.5,1.9-1.1C942.9,75.2,942.5,77,942.1,79.4z"/>
<path class="st0" d="M876.6,80.8c-1.3,1.8-2.7,3.6-4,5.4c0-0.2,0-0.3-0.1-0.5C870.9,80.1,870.9,80.1,876.6,80.8z"/>
<path class="st0" d="M853.4,113.8c0.1,2,0.3,3.9,0.4,5.9c-1.2,0-3.1,0.5-3.1-1.3C850.8,116.6,850.8,114.3,853.4,113.8z"/>
<path class="st0" d="M784.4-41.1c0,1.2-0.6,1.9-1.9,1.7c-1.1-0.2-1.8-0.9-1.8-2c-0.1-1.3,0.9-1.6,2-1.6
	C783.9-43,784.4-42.2,784.4-41.1z"/>
<path class="st0" d="M845.5-75.9c-1.1,1.2-3.3,1.5-2.9,3.7c-2.7-0.2-2.3-1.8-1.3-3.4C842.5-77.6,844-77.8,845.5-75.9z"/>
<path class="st0" d="M994.6,153.2c1.1-1.7,2.1-3.4,3.9-4.3C1000.4,153.3,998.5,154.2,994.6,153.2z"/>
<path class="st0" d="M910.2,29.7c0.4-1.3,0.3-2.5-0.4-3.7c1.4,0.2,3.7-1.3,4,1.2C914,28.8,912.2,29.8,910.2,29.7z"/>
<path class="st0" d="M871.1,95.8c1.3,3.7-0.4,4.6-3.7,3.9C867.7,97.5,869,96.2,871.1,95.8z"/>
<path class="st0" d="M802.3-28c-1.6,0-3.2-0.1-4.9-0.1c0.1-1.6,0.7-3,2.5-2.9C801.8-31,802.4-29.7,802.3-28z"/>
<path class="st0" d="M899.5,220.5c-1.4,0.1-1.9-0.5-1.9-1.4c0-0.8-0.1-1.8,1.1-1.8c0.9,0,1.4,0.7,1.6,1.5
	C900.4,219.7,899.9,220.2,899.5,220.5z"/>
<path class="st0" d="M1012.6,10.9c-0.1,1-0.1,1.9-0.2,2.9c-1.2-0.4-3.5,0.9-3.4-1.4C1009.1,10.7,1011.1,10.8,1012.6,10.9z"/>
<path class="st0" d="M760.5,93.8c-0.4,2-1.2,3.8-2.8,5.2C757.7,96.7,756.2,93.7,760.5,93.8z"/>
<path class="st0" d="M793.6,39.4c2.1,0.9,4.4,1.6,6.1,3.3C797.2,42.5,793.7,44.1,793.6,39.4z"/>
<path class="st0" d="M882.1,9c-0.3,0.8-0.7,1.5-1.7,1.4c-1.1-0.2-1-1.1-0.9-1.9c0-0.7,0.5-1.3,1.2-1.2C881.6,7.4,882.2,8,882.1,9z"
	/>
<path class="st0" d="M919.5,43.7c-1.5-1.8-1.2-3.1-0.3-4.9C920.7,40.5,920.7,41.8,919.5,43.7z"/>
<path class="st0" d="M834.7,174.1c0.1-0.8,0.7-1.2,1.3-0.9c0.7,0.3,1.8,0.8,1.9,1.4c0.2,1.1-0.9,1.2-1.7,1.1
	C835.2,175.6,834.6,175.2,834.7,174.1z"/>
<path class="st0" d="M1005.3,42.2c-1.4-1.4-2.7-2.8-4.1-4.1C1004.7,37.4,1005.7,39.1,1005.3,42.2z"/>
<path class="st0" d="M887.9,29.6c-0.7-0.1-1.2-0.6-1.2-1.3c0-1,0.6-1.5,1.6-1.3c0.8,0.2,1,0.7,1,1.4
	C889.1,29.3,888.5,29.5,887.9,29.6z"/>
<path class="st0" d="M899.6,27c-1.3,1.4-2.7,2.9-4,4.3C895.2,28.2,896.1,26.4,899.6,27z"/>
<path class="st0" d="M1003.9,16.4c0.1,0.5,0.4,1,0.4,1.6c0,0.6-0.1,1.5-1,1.2c-0.7-0.2-0.8-0.9-0.7-1.6
	C1002.6,17,1002.6,16.3,1003.9,16.4z"/>
<path class="st0" d="M813.5-70.2c-0.2,1.6-0.7,2.5-1.8,2.6c-0.8,0.1-1.2-0.6-1-1.3C811-70.4,812.4-70,813.5-70.2z"/>
<path class="st0" d="M1001.3-9.6c1-0.1,1,0.7,1.1,1.3c0.1,0.7,0,1.4-0.8,1.6c-0.9,0.2-1-0.6-1-1.3C1000.4-8.7,1000.5-9.3,1001.3-9.6
	z"/>
<path class="st0" d="M892-77.6c0.5-0.1,1.1-0.4,1.6-0.4c0.6,0,1.5,0.1,1.2,1c-0.2,0.7-0.9,0.8-1.6,0.7
	C892.6-76.3,891.9-76.4,892-77.6z"/>
<path class="st0" d="M1003,154.6c-0.7-0.1-1.3-0.3-1.4-1.1c-0.1-0.7,0.1-1.4,1-1.3c0.5,0.1,1.2,0.6,1.4,1.1
	C1004.2,154,1003.8,154.5,1003,154.6z"/>
<path class="st0" d="M837.4,170.2c-0.9-0.1-0.9-0.8-0.9-1.4c0-0.6,0-1.4,0.9-1.4c0.9,0,0.9,0.8,0.9,1.4
	C838.4,169.4,838.3,170.1,837.4,170.2z"/>
<path class="st0" d="M836.5,182.7c1.6,0.3,3,0.9,4.2,1.9C839,184.6,836.1,187.2,836.5,182.7z"/>
<path class="st0" d="M884.2,194.3c0.2-0.5,0.3-1,0.5-1.5c1.5,0.3,1.8,1.2,1.5,2.5c-0.1,0.4-0.6,0.9-0.9,0.9
	C884.3,196,884.5,195,884.2,194.3z"/>
<path class="st0" d="M873.4,193.8c1.4-0.2,2.8-0.1,4.1,0.6C875.9,196.2,874.5,196.8,873.4,193.8z"/>
<path class="st0" d="M997.4,157.8c0.6-0.6,0.9-1.2,1.4-1.5c0.6-0.3,1.4-0.1,1.2,0.8c-0.1,0.5-0.7,1-1.2,1.3
	C998.6,158.5,998.1,158.1,997.4,157.8z"/>
<path class="st0" d="M838.2,191c-0.6,0.3-1,0.6-1.4,0.6c-0.7,0-1.1-0.5-0.8-1.2c0.2-0.3,0.8-0.4,1.2-0.3
	C837.6,190.1,837.8,190.6,838.2,191z"/>
<path class="st0" d="M883.5,20.6c-0.4-0.5-0.8-0.8-0.9-1.1c0-0.4,0.2-1.1,0.4-1.2c0.7-0.3,1.2,0.3,1.1,0.9
	C884.2,19.7,883.9,20,883.5,20.6z"/>
<path class="st0" d="M779.1-36.1c-0.3,0.2-0.5,0.6-0.9,0.7c-0.7,0.2-1.3-0.1-1.5-0.8c-0.1-0.2-0.8-0.9,0.2-0.9
	C777.7-37.1,778.6-37.3,779.1-36.1z"/>
<path class="st0" d="M769.7,73.7c1.2,1.9-0.2,3-1.2,4.3C768.6,76.5,767.9,74.7,769.7,73.7z"/>
<path class="st0" d="M762.5,74c0.3,0.6,0.7,0.9,0.7,1.3c0,0.7-0.4,1.2-1.1,1c-0.3-0.1-0.5-0.8-0.5-1.2
	C761.7,74.8,762.1,74.5,762.5,74z"/>
<path class="st0" d="M773.4-37.2c0.6-1.4,1.7-2.4,3.1-2.9c0,1,0,2,0,3C775.4-37.2,774.4-37.2,773.4-37.2z"/>
<path class="st0" d="M815.4-71.9c0.1,0.2,0.6,0.6,0.5,0.9c-0.3,1-1.2,0.8-2,0.8c-1.1,0-0.3-0.7-0.2-0.9
	C813.9-71.8,814.4-72,815.4-71.9z"/>
<path class="st0" d="M981.2,137.7c-0.5,0.4-0.8,0.8-1.1,0.9c-0.4,0-1.1-0.2-1.2-0.4c-0.3-0.7,0.3-1.2,0.9-1.1
	C980.3,137,980.7,137.3,981.2,137.7z"/>
<path class="st0" d="M981.6,39.5c0-0.5,0-0.9,0.1-1.4c1.1-0.1,3-0.7,3,0.5C984.6,40.6,982.8,39.4,981.6,39.5z"/>
<path class="st0" d="M931.5,60.6c-0.4-0.5-0.8-0.8-0.9-1.1c0-0.4,0.2-1.1,0.4-1.2c0.7-0.3,1.2,0.3,1.1,0.9
	C932.2,59.7,931.9,60,931.5,60.6z"/>
<path class="st0" d="M1028.2,96.8c0.3-1,0.5-2.1,0.8-3.1C1031.1,95.3,1030.7,96.3,1028.2,96.8z"/>
<path class="st0" d="M807.9,89c-0.7-0.9-1.3-1.9-1.1-3.1C808.4,86.5,810.6,86.8,807.9,89z"/>
<path class="st0" d="M921.8-78.1c0.6,0.1,1.2,0.3,0.8,0.9c-0.2,0.3-0.7,0.6-1.1,0.7c-0.5,0.1-0.9-0.4-0.6-0.9
	C921.1-77.7,921.6-77.9,921.8-78.1z"/>
<path class="st0" d="M848.8,123c0.1-0.3,0.2-0.7,0.4-0.8c0.2-0.1,0.5,0.2,0.8,0.3c-0.1,0.3-0.2,0.7-0.4,0.8
	C849.4,123.4,849.1,123.2,848.8,123z"/>
<path class="st0" d="M850.1,112.1c-0.3,0.1-0.6,0.4-0.8,0.3c-0.2-0.1-0.2-0.5-0.3-0.8c0.3-0.1,0.6-0.4,0.8-0.3
	C849.9,111.3,850,111.8,850.1,112.1z"/>
<path class="st0" d="M872.4,86.8c-0.2,0.7-0.5,1.4-0.7,2.1C869.9,87.5,870.9,87.1,872.4,86.8z"/>
<path class="st0" d="M911.1-76.9c-0.3,0.1-0.6,0.4-0.8,0.3c-0.2-0.1-0.2-0.5-0.3-0.8c0.3-0.1,0.6-0.4,0.8-0.3
	C910.9-77.6,910.9-77.2,911.1-76.9z"/>
<path class="st0" d="M914.5,75.9c-0.5,0.7-1.3,0.7-2.1,0.7C912.7,75.2,913.2,74.3,914.5,75.9z"/>
<path class="st0" d="M873.1-72.9c-0.3,0.1-0.6,0.4-0.8,0.3c-0.2-0.1-0.2-0.5-0.3-0.8c0.3-0.1,0.6-0.4,0.8-0.3
	C872.9-73.6,873-73.2,873.1-72.9z"/>
<path class="st0" d="M851.1,195.5c-0.1,0.3-0.2,0.7-0.4,0.8c-0.2,0.1-0.5-0.2-0.8-0.3c0.1-0.3,0.2-0.7,0.4-0.8
	C850.4,195.1,850.8,195.4,851.1,195.5z"/>
<path class="st0" d="M984-67.4c-0.1,0.3-0.2,0.6-0.4,0.8c-0.3-0.1-0.7-0.2-0.8-0.4c-0.1-0.2,0.2-0.5,0.3-0.8
	C983.4-67.7,983.7-67.5,984-67.4z"/>
<path class="st0" d="M856.1,193c-0.3,0.1-0.6,0.4-0.8,0.3c-0.2-0.1-0.2-0.5-0.3-0.8c0.3-0.1,0.6-0.4,0.8-0.3
	C855.9,192.3,856,192.7,856.1,193z"/>
<path class="st0" d="M957-58.4c-0.1,0.3-0.2,0.6-0.4,0.8c-0.3-0.1-0.7-0.2-0.8-0.4c-0.1-0.2,0.2-0.5,0.3-0.8
	C956.5-58.7,956.7-58.6,957-58.4z"/>
<path class="st0" d="M994.6,39.5c0.7,0.3,1.3,0.7,2,1c-0.3,0.6-0.9,1.2-1.5,0.8C994.7,40.9,994.7,40.1,994.6,39.5z"/>
<path class="st0" d="M870,36.5c-0.1,0.4-0.3,0.6-0.4,0.9c-0.3-0.2-0.7-0.4-1-0.6c0.2-0.2-0.8-0.9,0.3-0.8
	C869.3,35.9,869.6,36.3,870,36.5z"/>
<path class="st0" d="M813.1-37.9c-0.3,0.1-0.6,0.4-0.8,0.3c-0.2-0.1-0.2-0.5-0.3-0.8c0.3-0.1,0.6-0.4,0.8-0.3
	C812.9-38.6,813-38.2,813.1-37.9z"/>
<path class="st0" d="M888.2-0.8c0.3,0.1,0.7,0.2,0.8,0.4c0.1,0.2-0.2,0.5-0.3,0.8c-0.3-0.1-0.7-0.2-0.8-0.4
	C887.8-0.2,888-0.5,888.2-0.8z"/>
<path class="st0" d="M884.6,174.2c0.6,0.5,1.3,0.9,1.9,1.4C884.1,177.6,884.8,175.4,884.6,174.2z"/>
<path class="st0" d="M1021.4,52.8c0.7,0.1,1.3,0.1,2,0.2c-0.3,0.5-0.5,1.3-0.9,1.4C1021.5,54.5,1021.5,53.5,1021.4,52.8z"/>
<path class="st0" d="M808.8,154c0.1-0.3,0.2-0.7,0.4-0.8c0.2-0.1,0.5,0.2,0.8,0.3c-0.1,0.3-0.2,0.7-0.4,0.8
	C809.4,154.4,809.1,154.2,808.8,154z"/>
<path class="st0" d="M1014.6,10.2c-0.7,0.3-1.4,0.5-2,0.8c0.2-0.6,0.2-1.5,0.6-1.7C1013.8,8.9,1014.3,9.6,1014.6,10.2z"/>
<path class="st0" d="M854.5,121.7c0.8,0.7,0.9,1.4,0.1,2.1C853.5,123.2,853.4,122.5,854.5,121.7z"/>
<path class="st0" d="M930.5,54.8c0.6-0.7,1.3-1.5,1.9-2.2C932.5,54,931.8,54.7,930.5,54.8z"/>
<path class="st0" d="M845.5-71.8c0.6-0.1,1.3-0.3,1.9-0.4C847-71.2,846.4-71,845.5-71.8z"/>
<path class="st0" d="M804.4-27.4c-0.8,0.1-1.5,0.1-2-0.6C803.1-28.2,803.8-28.1,804.4-27.4z"/>
<path class="st0" d="M762.6,89.8c-0.4,0.7-0.7,1.4-1.1,2C761.5,91,761.7,90.2,762.6,89.8z"/>
<path class="st0" d="M907.5,61c0.3-0.1,0.6-0.2,1,0C908.1,61.5,907.8,61.5,907.5,61z"/>
<path class="st0" d="M929.3,55.8c0.4-0.3,0.8-0.6,1.2-0.9C930.1,55.1,929.7,55.4,929.3,55.8z"/>
<path class="st0" d="M896.1,45.9c-0.2,0.4-0.3,0.9-0.5,1.3C895.7,46.8,895.9,46.3,896.1,45.9z"/>
<path class="st0" d="M901.1,26c-0.3,0.7-0.8,1-1.6,1C899.8,26.3,900.3,26,901.1,26z"/>
<path class="st0" d="M1015.8-11.4c0.5-0.3,1.1-0.6,1.6-0.9C1016.9-11.9,1016.3-11.7,1015.8-11.4z"/>
<path class="st0" d="M993.5,7.7c0.2,0.4,0.4,0.7,0.5,1.1C993.9,8.4,993.7,8,993.5,7.7z"/>
<path class="st0" d="M835.5,181.6c0.3,0.4,0.7,0.8,1,1.1C836.2,182.3,835.8,182,835.5,181.6z"/>
<path class="st0" d="M918.5,211.7c0.3-0.6,0.5-1.1,0.8-1.7C919,210.6,918.7,211.2,918.5,211.7z"/>
<path class="st0" d="M1017.6,121.7c0.2-0.5,0.4-0.9,0.6-1.4C1018.1,120.8,1017.9,121.3,1017.6,121.7z"/>
<path class="st0" d="M815.4,170.9c0.4,0.3,0.7,0.6,1.1,0.8C816.2,171.4,815.8,171.1,815.4,170.9z"/>
<path class="st0" d="M1028.2,90.4l-0.5,0c0,0-0.4-0.2-0.4-0.2c0.2-0.2,0.4-0.5,0.6-0.7C1028.1,89.8,1028.1,90.1,1028.2,90.4z"/>
<path class="st0" d="M767.6,69.6c0.3,0.4,0.6,0.8,0.8,1.2C768.1,70.4,767.8,70,767.6,69.6z"/>
<path class="st0" d="M847.4-72.2c0.3-0.2,0.7-0.4,1-0.6C848-72.6,847.7-72.4,847.4-72.2z"/>
<path class="st4" d="M811.3,5.7c1.6,1,3.3,1.2,7.5,2c1.8,0.1,0.8-0.6-0.3-0.7c-3.1-0.3-2.5,3.9-5,4.5c-0.5,0.1-0.6,1.3,0.2,1.6
	c2.7,1.3,2.9-3,5.4-2.5c0.9,0.2,1.9-0.5-0.2-3c-2.5-3-1.4-3.5,0.4-4.1c2.5-0.8,4.3-2.2,3.5-5.8c-2.4-10.5-2.3-7.7,7.2-10.1
	c2.2,0.6,4.4,1.2,6.7,1.8c0,0.2-0.1,0.4,0,0.5c2.9,3.7,0.9,7.4-0.6,10.7c-2.6,5.6,0.5,10.3,1.8,15.4c0,1.9,0,3.9,0,5.8
	c-5,5.7-11.4,5.3-18,4.1c-1.3-0.2-2.7-0.2-3.4,1.3c-0.9-0.5-1.9-0.9-2.8-1.4c0.1-3.2-2.9-4.2-4.4-6.2c0.2-1,0.5-1.9,0.7-2.9
	c2.6-3.3,0.4-6.9,0.6-10.4C810.6,6.1,811,5.9,811.3,5.7z"/>
<path class="st0" d="M834.5,44.7c-0.1,5.5-5,9-9.6,6.7c-10.8-5.4-21.8-10.7-32-17.3c-1.1-0.7-2-1.7-2.8-2.8
	c-1.8-2.4-4.6-5.4-3.1-7.9c1.3-2,4.7,1,7.3,0.9c13.2-0.3,22.9,8.3,33.9,13.4C831.4,39.3,834.4,41.2,834.5,44.7z"/>
<path class="st0" d="M816.3,27.2c0.7-1.5,2.1-1.6,3.4-1.3c6.6,1.2,13,1.6,18-4.1c1,1.3,1.9,2.7,2.9,4c-2-0.1-3.4,0.8-5.1,2.1
	c-3.4,2.6-0.5,6.1-2.1,8.8C827.6,33.7,821.7,30.9,816.3,27.2z"/>
<path class="st4" d="M833.5,36.6c1.6-2.7-1.3-6.2,2.1-8.8c1.7-1.3,3.1-2.1,5.1-2.1c0.3,0,0.6,0.2,0.8,0.4c-0.3,2.9-0.7,5.8-1,8.7
	c-2.5-0.6-4,2.1-6.3,2.1C833.8,36.9,833.6,36.8,833.5,36.6z"/>
<path class="st0" d="M809,19.6c1.6,2,4.5,3,4.4,6.2c-1.3-0.6-2.6-1.3-4-1.8C806.5,22.8,807.3,21.3,809,19.6z"/>
<path class="st0" d="M810.3,6.3c-0.2,3.5,2,7.1-0.6,10.4c-0.4-2.1,0.1-4.4-1.2-6.2C806.5,7.9,808.3,7.2,810.3,6.3z"/>
<path class="st4" d="M954.8-42.3c0.3,0.2,0.6,0.4,0.9,0.6c0.3,2.1,0.5,4.2,0.8,6.3c-1,0.5-1.9,1-2.9,1.4c-2.3-1-4.2-5.4-7.1-0.7
	c-0.7,0.1-1.4,0.1-2.1,0.2c-0.4-0.4-0.7-0.3-0.9,0.2l-0.3,0.2c0,0-0.4,0-0.4,0c-0.7,0-1.5-0.3-2-0.1c-2,1.1-5.7-3.6-6.2,1.4
	c-0.3,2.9-5.2,2.3-3.6,6.6c0.9,2.6-2.3,1.9-3.8,1.2c-6.9-3.4-7.8-5.2-6.8-13.2c1.1-8.6,0.4-9.5-6.3-9.1c-1.7,0.1-4,2.1-5.1-1
	c-0.9-2.7-1.1-5.2,1.3-7.3c1.4-1.3,2.4-2.7,2.1-4.8c3.3-1.7,6.7-1.4,10.1-0.5c0.4,0.2,0.7,0.4,1.1,0.6c0.7,0.2,1.3,0.5,2,0.7
	c-0.4,2.6,0.6,4,3.2,4.6c1.6,0.4,3.2,1.5,3.7-1.2c0,0,0,0,0,0c1.4-0.1,1.9-1,2-2.3c0-1.1-0.1-2.5,1.7-2.4c1.4,0.1,1.9,1.5,2,2.5
	c0.3,3,0.7,5.6,4.7,5.4c1.4-0.1,1.4,1.1,0.7,2.1c-0.9,1.2-1.4,2.4,0.2,3.3c1.7,1,2.8-0.1,3.8-1.3c0.9-1.2,1.7-2.5,3.5-2.2
	c0.2,0.6,0.3,1.1,0.5,1.7C951.6-46.6,950.4-43.2,954.8-42.3z"/>
<path class="st0" d="M912.4-60.3c0.3,2-0.7,3.5-2.1,4.8c-2.4,2.1-2.2,4.6-1.3,7.3c1.1,3.1,3.4,1.1,5.1,1c6.7-0.3,7.4,0.5,6.3,9.1
	c-1,8-0.1,9.7,6.8,13.2c1.5,0.8,4.7,1.5,3.8-1.2c-1.5-4.3,3.3-3.7,3.6-6.6c0.5-5,4.2-0.3,6.2-1.4c0.5-0.3,1.3,0,2,0.1
	c-3.8,2.7-4.7,6.8-5.5,11c-0.6,3.4-1.6,6.6-2.4,10c-2.2,0.5-2.9-2.3-5-2.7c0.7,3.9-0.6,5.2-4.2,4.2c-2.8-0.7-4.7-1.5-5.8-4.9
	c-0.9-2.7-5.5-3.6-5.4-7.5c3.8,0.4,6.2,2.9,8.4,5.6c0.8,1,1.7,2.7,3.1,1.5c1.4-1.2,0.5-2.7-0.5-3.9c-2.7-3.2-5.9-5.7-10.2-6.8
	c-5.6-1.4-6.8-5.4-3.1-9.9c0.7-0.9,1.7-1.6,2.6-2.3c1.1-0.9,3.3-1.4,2.3-3.2c-1.2-2.1-2.9-0.4-4.2,0.3c-0.4,0.2-0.8,0.6-1.2,0.9
	c-5,4-7.1,3.2-8.7-3.2C901.3-51.5,905.2-57.8,912.4-60.3z"/>
<path class="st0" d="M974.4-16.4c0.1,4.5-5,8.6-10.9,8.9c-7.1,0.4-11.1-3.9-9.9-10.8c0.4-2.1,0.7-4.3,0.9-6.4
	c0.5-7.2,5.9-10.7,12.8-8c3.5,1.3,6.5,3.1,6,7.9C973.1-22,974-19.2,974.4-16.4z"/>
<path class="st4" d="M914.4-24c0,4,4.5,4.8,5.4,7.5c1.1,3.4,3,4.2,5.8,4.9c3.6,0.9,4.9-0.3,4.2-4.2c2.1,0.4,2.8,3.2,5,2.7
	c-0.5,2.6-1.1,5.2-1.6,7.9c-1.5,0.3-2.3,0.8-0.6,2.1c-0.1,0.7-0.2,1.3-0.4,2c-0.2,0.4-0.4,0.8-0.5,1.2c0,0,0.1,0.1,0.1,0.1
	c-1.3-0.4-2.5-0.1-3.8,0.5c-2.6,1.3-5.5,2.7-7.7-0.8c-0.4-0.6-1-0.9-1.7-0.6c-4.6,2.2-5.7,1.6-3.5-3.6c1.8-4.1-3-8.6-7.4-7.5
	c-2.8,0.7,0.3,3-1,4.1c-5.4-2.4-5.4-2.6-1.1-6.9c1.5-1.5,1-3.4,0.4-5.1c-0.5-1.2-1.6-2.1-1.6-3.6C907.6-25.1,911-24.6,914.4-24z
	 M920-5.5c-1-0.3-1.3,0.2-1.3,0.6c0,0.6,0.2,1.4,0.6,1.7c0.8,0.6,1.1-0.1,1.1-0.8C920.3-4.6,920.1-5.2,920-5.5z"/>
<path class="st5" d="M977-0.6c-7-1-13.4-0.9-19.9-0.8c-6.4,0.2-6.4,0.2-5.2-6.5c3.9,1.8,7.6,4,12,3.5c3-0.3,6-0.9,8.4-2.9
	c2.6-2.2,3.9-2.1,4.1,1.6C976.5-4.1,976.8-2.6,977-0.6z"/>
<path class="st0" d="M946.4-34.6c2.9-4.7,4.8-0.3,7.1,0.7C950.9-31.8,948.9-35.1,946.4-34.6z"/>
<path class="st0" d="M932.6-3.1c-1.6-1.2-0.9-1.8,0.6-2.1C933.3-4.4,933.3-3.7,932.6-3.1z"/>
<path class="st0" d="M943.4-34.3c0.2-0.5,0.5-0.6,0.9-0.2c0,0-0.4,0.2-0.4,0.2L943.4-34.3z"/>
<path class="st0" d="M931.7,0.1c0.2-0.4,0.4-0.8,0.5-1.2C932.1-0.7,931.9-0.3,931.7,0.1z"/>
<path class="st0" d="M892.5,140.5c-8.3-1-16.6-0.3-24.9-0.4c-8.1-0.2-12.4-5.6-9.9-13.5c0.8-2.7,0.8-4.9,0-7.6
	c-3-9.7,4.8-17.6,14.8-15.4c1.3,0.3,2.9,1.6,4.1-0.1c0.9-1.3-0.3-2.5-0.8-3.7c-2.7-6.7-0.7-13.9,4.8-17.8c5.9-4.1,13.6-3.7,18.7,1.5
	c2.5,2.5,4,2.9,6.9,0.5c7.8-6.4,16.3-6.6,25.2-2.1c5.8,3.8,9.3,9.3,10.3,16.1c0.4,3,1.1,4.1,4.4,2.6c4.3-1.9,8.2-0.1,9.9,3.8
	c1.5,3.7-0.3,7.8-5,9.3c-3.4,1.1-2.7,2.2-1.3,4.5c4.9,8,2.1,14.7-6.2,19.6c-3.8,2.3-7.2,2.3-10.9,2.4
	C919.1,140.5,905.8,140.5,892.5,140.5z M875.7,112.5c0,7,5.5,12.9,11.5,12.9c1.3,0,2.9,0.1,3-1.8c0-1.6-1.5-1.4-2.6-1.7
	c-7.3-1.7-9.2-4.7-7.8-12.2c0.2-1.1,1-2.4-0.5-3c-1.8-0.7-2.4,0.8-2.8,2C876.1,110.2,875.9,111.7,875.7,112.5z"/>
<path class="st0" d="M883.4,157.9c-0.5-4.4-1.9-9.9,0.4-13c2.5-3.3,8.4-0.4,12.6-1.5c20.3,0,40.6,0,60.9,0.1c0.3,0.1,0.7,0.1,1,0.2
	c0,0,0.3,0.2,0.3,0.2c0.2,3.4,0.4,6.7,0.5,10.1c-0.1,0.3-0.1,0.6,0,0.9c-0.2,1-0.5,2-0.7,3.1c-0.7,0.1-1.5,0.1-2.2,0.2
	c-23.7-0.4-47.3-0.4-71,0C884.8,158,884.1,157.9,883.4,157.9z"/>
<path class="st0" d="M898.5,177.8c0.1-1.4,2.4-2.2,1.2-3.9c-1.1-1.5-2.5-0.3-3.7-0.2c-7.9,0.7-12.2-3.3-13.3-12.4
	c17.3-0.1,34.6-0.2,51.9-0.3c0.9,0,2.3-0.3,2.4,1c0,0.8-0.9,1.7-1.7,2.3c-1.8,1.3-3.8,0.7-5.7,0c-0.8-0.3-1.8-0.3-2.1,0.7
	c-0.2,0.5,0,1.5,0.4,1.8c1.7,1.2,4.1,2.1,2,4.9c-1.9,2.6-4.3,4.1-7.7,3.7c-0.5-0.1-1-0.3-1.5-0.4c-1.4-0.3-3.2-1.4-3.8,0.6
	c-0.5,1.6,1.3,2,2.5,2.5c1.9,0.7,1.5,1.9,0.7,3.1c-1,1.3-2,2.6-3.2,3.8c-5.3,5.2-5.6,6.5-2.7,13.5c3,7.2,2.4,11.1-2.7,16.5
	c0.2-2.7,0.5-5.1,0.6-7.6c0.1-3.8-1-6.9-4.9-8.4c-3.8-1.4-5.2-4.3-5.2-8.2C902.1,186.2,901,181.8,898.5,177.8z"/>
<path class="st0" d="M962.2,150.8c0.9-3-2.1-7.7,4.7-7.4c4.4,0.2,6.4,1.2,5.7,5.8c-0.1,0.8,0,1.7,0,2.5c0,5.9-2.9,8.1-8.5,6
	C960.5,156.4,963.2,153,962.2,150.8z"/>
<path class="st2" d="M885.4,158c23.7-0.5,47.3-0.4,71,0c-1.1,1-2.5,0.7-3.8,0.7c-21.1,0-42.2,0-63.4,0
	C887.9,158.8,886.5,159,885.4,158z"/>
<path class="st2" d="M959.3,153.8c-0.2-3.4-0.4-6.7-0.5-10.1C960.2,147,959.4,150.4,959.3,153.8z"/>
<path class="st2" d="M958.6,157.8c0.2-1,0.5-2,0.7-3.1C959.5,155.8,959.8,157,958.6,157.8z"/>
<path class="st2" d="M958.5,143.6c-0.3-0.1-0.7-0.1-1-0.2C957.9,143,958.2,143.1,958.5,143.6z"/>
<path class="st0" d="M860.4,157.7c-5,0-10-0.2-14.9,0.1c-3.2,0.1-3.9-1.2-4-4.1c-0.2-10.1-0.3-10.1,9.9-10.1c8,0,15.9,0.1,23.9,0
	c3.1-0.1,4.3,0.7,4.3,4.1c0,10,0.2,10-9.8,10.1C866.7,157.8,863.6,157.8,860.4,157.7C860.4,157.8,860.4,157.7,860.4,157.7z"/>
<path class="st0" d="M932.4-56.1c-0.5,2.7-2.1,1.6-3.7,1.2c-2.6-0.6-3.6-2-3.2-4.6C928.2-59.2,929.4-55.6,932.4-56.1z"/>
<path class="st0" d="M923.6-60.2c-0.4-0.2-0.7-0.4-1.1-0.6C922.9-60.6,923.2-60.4,923.6-60.2z"/>
<path class="st0" d="M797.6,76.9c7,13.2,13.5,25.3,19.8,37.6c2.3,4.4,0.3,9.5-4,12c-4.3,2.5-9.8,1.6-12.4-2.7
	c-4.6-7.7-8.6-15.8-12.9-23.6c-0.9-1.7,0-2.8,0.6-4.2C791.6,90.1,795.1,84.4,797.6,76.9z"/>
<path class="st3" d="M948.3,184.5c-3.3,1.1-6.6,2.3-9.9,3.4c-1.1,0.4-2.5,0.5-2.8-1.1c-0.3-1.5,1.1-1.8,2.2-2.2
	c3.6-1.3,7.1-2.7,10.7-4.1c1.3-0.5,2.9-1.9,3.8,0.3c0.7,1.8-1.3,1.9-2.3,2.6C949.4,183.9,948.9,184.2,948.3,184.5
	C948.3,184.5,948.3,184.5,948.3,184.5z"/>
<path class="st0" d="M867.3,6.7c-0.9,2.1,0,3,2.2,3.8c3.5,1.2,3.9,3.7,1,5.9c-2.2,1.7-2.1,2.9-0.5,4.8c1.8,2.4,2.1,4.9-0.4,7.1
	c-2.3,2-4.9,2.3-7.2,0.1c-2.3-2.2-3.8-2.3-5.2,0.8c-1.1,2.5-3.3,3.2-5.8,2.7c-2.4-0.5-3.9-1.9-3.9-4.4c0-2.4-1.3-3.5-3.4-4.3
	c-2.4-0.9-3-3-2.8-5.3c0.2-2.5,1.7-4,4.1-4.3c2.4-0.2,4-0.5,3.4-3.8c-0.5-2.8,1.6-4.3,4.3-4.1c2,0.2,3.5,0,4.2-2.3
	c0.9-3.1,3.3-4.1,6.2-3.5C866.4,0.5,867.5,2.7,867.3,6.7z"/>
<path class="st4" d="M1015.6-15.8c-0.5-0.4-1-0.8-1.5-1.2c-1.4-1-3.9,2.2-4.3-0.8c-0.3-1.8,2.4-1.8,3.9-2.2c2.2-0.6,3.9,0,3.9,2.8
	c0,0.2,0,0.3,0,0.5C1016.9-16.4,1016.2-16.1,1015.6-15.8z"/>
<path class="st0" d="M822.5-31c0.1-9.3,7.6-16.5,17.1-16.4c9.2,0.1,16.9,8.1,16.6,17.2c-0.3,8.8-8.1,16.2-17.2,16.2
	C829.8-14.1,822.4-21.7,822.5-31z"/>
<path class="st4" d="M981.2-57c-0.8,2.1-1.7,3-3.3,2.7c-1-0.2-1.5-0.8-1.2-1.8c0.5-1.4,1.8-1.9,3.2-1.9C981-58,981.3-57.2,981.2-57z
	"/>
<path class="st4" d="M904,43c1.6,2,2.4,6.8,6.1,1.7c0.6-0.9,2.3-0.9,2,0.5c-0.4,2.4-1.6,5.3-3.7,5.9c-1.9,0.5-4-1.8-4.9-4
	c-0.4-1.2-0.1-2.6-0.1-3.9C903.7,43.1,903.8,43,904,43z"/>
<path class="st4" d="M784.3,114c0,0.7-0.1,1.4-1,1.3c-0.5-0.1-1.1-0.6-1.3-1.1c-0.3-0.7,0.2-1.2,1-1.2
	C783.6,113,784.1,113.3,784.3,114z"/>
<path class="st0" d="M954.8-42.3c-4.3-0.9-3.1-4.3-3.2-7.1C953.3-47.4,953.9-44.7,954.8-42.3z"/>
<g>
	<path class="st6" d="M39.2,33.1c0.4,3.8-0.6,7-3.9,9.1c-1,0.6-0.9,1.2-0.4,2.1c0.6,1,0.9,2.5,0.3,3.4c-1.4,2.4-0.1,3.1,1.6,4
		c2.9,1.5,5.7,3.2,8.6,4.9c3,1.8,4,4.6,2.6,7.3c-1.2,2.4-4.2,3.1-7.1,1.6c-4-2.2-8-4.4-12.1-6.6c-3.1-2.1-5.3-4.8-5.8-9
		c-2.6,2.7-3,5.4-1.2,8.9c1.9,3.5,3.8,6.9,5.7,10.4c4.3,8.5,8.5,17,12.8,25.5c0.9,1.8,0.6,3.6,0.4,5.5c-4.5,5.5-8.6,4.9-11.9-1.5
		c-1.4-2.8-2.8-5.7-4.6-9.1c-1.8,3.9-3.4,7.2-5,10.5c-1.2,2.5-3.2,3.8-5.8,3.7c-2.6-0.1-4.3-1.6-5.3-4.1C7.6,97.7,8,96,8.8,94.2
		c2.6-5.6,5.2-11.1,7.9-16.6c0.6-1.3,0.7-2.2,0-3.5c-2.2-4.2-4.3-8.5-6.4-12.8c-2.5-4.9-3.3-10-1.4-15.4c0.4-1.2,0.4-2.1-0.2-3.3
		c-2.1-4.4-0.5-9.2,3.8-11c5.5-2.3,11.1-4.3,16.8-6.1C33.5,24.1,37.2,27.1,39.2,33.1z M14.1,102.4c1.6-0.2,3.1-1.1,4-2.9
		c3.1-6.6,6.3-13.2,9.4-19.8c1.3-2.7,1.3-5.5-0.2-8.2c-2.1-3.7-4-7.6-6.2-11.2c-1.9-3.3-2.4-6.6-0.4-10c0.7-1.1,0.4-1.5-0.7-1.9
		c-2.6-0.8-5.2-1.4-7.7-2.5c-1.7-0.8-2.1,0.1-2.4,1.5c-1.2,4.7-0.4,9.2,1.7,13.4c2.1,4.2,4.1,8.4,6.4,12.5c1,1.8,0.9,3.3,0,5.2
		c-2.7,5.5-5.4,11-8,16.6C8.4,98.5,10.5,102.3,14.1,102.4z M22.4,38.6c3.2,1,5.8,1.7,8.4,2.7c2.4,1,4.1-0.1,5.6-1.9
		c1.7-2.1,1.9-5.6,0.6-8.4c-1.4-2.9-4-4.8-6.8-4c-6.1,1.7-12,3.9-17.8,6.5c-2.4,1.1-3.4,3.5-3.1,6.4c0.3,2.7,2,4.2,4.3,4.9
		c5.2,1.6,10.3,3.1,15.5,4.8c2.1,0.7,3.9,0.5,4.8-2c0.7-2.2-0.4-3.8-3-4.6c-4.6-1.4-9.3-2.8-13.9-4.3c-0.7-0.2-2.1-0.1-1.9-1.2
		c0.2-1.3,1.5-0.5,2.1-0.2c2.1,0.8,4,0.3,5.9-0.5c2.4-1,4.9-1.8,7.3-2.7c0.7-0.3,1.5-0.9,2.6,0.5C29.5,35.9,26.2,37.1,22.4,38.6z
		 M30.2,77.2c-1.6,3.4-3,6.5-4.4,9.5c-0.4,0.8-0.3,1.5,0.1,2.2c1.8,3.5,3.5,7.2,5.4,10.7c1.4,2.6,3.6,3.3,5.9,2.1
		c2.3-1.2,3.3-3.8,2-6.5C36.3,89.3,33.2,83.4,30.2,77.2z M26.1,50.2c-1.6-0.1-1.2,0.9-1,1.5c0.6,2.2,1.9,3.8,3.7,4.9
		c4.4,2.5,8.8,5,13.2,7.5c1.9,1.1,3.6,0.9,4.7-1.2c1.2-2.3,0.1-3.9-1.8-5c-2.8-1.6-5.7-2.9-8.2-4.8C33.3,50.6,29.2,52,26.1,50.2z"/>
	<path class="st6" d="M49.4,109c2.5-1.3,5.1-0.1,8.1-0.8c-2.8-3.8-0.6-8.2-1.3-12.4c-0.6-3.8,2.3-6.8,6.4-7.4
		c1.5-0.2,1.7-0.6,1.6-2.2c-0.3-3.6,1.2-6.5,4.2-8.4c2.9-1.8,5.9-1.7,8.6,0.3c1.4,1,2.4,1.1,3.9,0.1c6.7-4.2,14.3-1.1,16.9,6.7
		c0.5,1.5,1,1.9,2.5,1.8c2.1-0.1,3.7,1.1,4.5,3.3c0.7,2.1,0.3,4.1-1.3,5.7c-0.6,0.6-1.5,0.8-1,2.1c1.6,4.2,0.3,7.5-2.9,10.1
		c0.8,0.7,1.5,0.4,2.2,0.3c2.8,0,5.6,0.1,8.3,0c1.9-0.1,2.7,0.8,2.7,2.8c-0.1,8.5,0.9,7.2-6.4,7.3c-1.6,0-3.2,0.2-4.7,0
		c-4.5-0.9-6.7,2.1-8.6,5.7c-0.3,0.5-0.5,1.2-0.9,1.4c-2.5,1.3-3.6,4-5.5,5.9c-1.7,1.7-1.8,3.1-1,5.2c1.8,4.7,0.5,9.2-3.3,12.2
		c-0.5,0.4-0.9,0.9-1.4,0.5c-0.5-0.4-0.2-1.1-0.1-1.7c0.3-1.3,0.6-2.5,0.8-3.7c0.4-2.4,0.6-4.6-2.3-5.8c-2-0.8-2.2-3.1-2.2-5.1
		c0-3.8-1.1-6.4-5-7.3c-2.2-0.5-3.5-2.6-3.8-5c-0.2-2-1.1-2.3-2.7-2.3c-4.5,0.1-9.1-0.1-13.6,0.1c-2.2,0.1-3.1-0.9-3-3.1
		C49.1,113.3,48.6,111.1,49.4,109z M78.2,108.4c4.8,0,9.6,0,14.4,0c1.9,0,3.7,0,5.5-1.5c3.5-2.8,4.5-5.3,2.5-9.2
		c-0.7-1.3-1-1.9,0.7-2.5c1.9-0.6,2.8-2.4,2-4.5c-0.8-2.2-2.4-3.1-4.5-2c-1.6,0.8-1.8,0-2.1-1.4c-1.8-8.9-9.8-12.2-16.5-6.8
		c-1.2,1-1.8,1.1-2.9-0.1c-2.4-2.7-5.9-3-8.6-1.1c-2.7,1.8-3.9,5.3-2.6,8.8c0.8,2.2,0.5,2.5-1.6,2c-4.8-1-8.2,3.1-6.6,8.1
		c0.4,1.2,0.3,2.2-0.1,3.4c-1.2,4,0.9,6.8,4.7,6.8C67.8,108.4,73,108.4,78.2,108.4z M87.2,117.1c4.4,0,8.7,0,13.1,0
		c5,0,4.9,0,4.7-5.2c-0.1-1.4-0.4-1.9-1.7-1.9c-10.7,0-21.3,0-32,0c-1.2,0-1.9,0.3-1.8,1.8c0.1,0.9,0.1,1.8,0,2.7
		c-0.3,2.1,0.5,2.7,2.5,2.6C77,117,82.1,117.1,87.2,117.1z M82.8,145.6c2.2-2.5,2.9-5,1.6-7.8c-1.4-3-1.6-5.5,1.3-7.8
		c0.9-0.7,2.7-2.2,0.1-3.5c-0.3-0.1-0.5-0.6-0.3-1c0.3-0.5,0.8-0.3,1.2-0.2c1.9,0.5,3.4,0.3,4.7-1.6c1.3-1.9-1.5-1.9-1.2-3.5
		c1.5-0.3,3.9,1.4,4.6-1.9c-8,0-15.9,0-23.8,0c-1.7,0-1.8,0.8-1.5,2.2c0.6,2.7,2.9,4.3,5.9,4.3c0.6,0,1.6-1,1.8,0.7
		c0.3,2.9,1.3,5.7,1.2,8.8c0,1.3,0.9,2.3,2.2,2.8c2.2,0.9,2.7,2.8,2.5,5.1C83.1,143.3,83,144.3,82.8,145.6z M59.4,117.1
		c1.9,0,3.7-0.2,5.6,0c2.8,0.4,3.7-0.8,3.3-3.6c-0.1-0.4-0.1-0.8,0-1.2c0.2-1.8-0.4-2.4-2.2-2.4c-3.7,0.1-7.4,0-11.1,0
		c-4.8,0-4.8,0-4.5,5.2c0.1,1.7,0.7,2,2,1.9C54.8,117.1,57.1,117.1,59.4,117.1z M111.2,113.3c-0.2-1.3,0.9-3.4-2.3-3.4
		c-2.7,0-2.8,1.3-2.6,3.4c0.2,1.8-0.8,3.9,2.5,3.9C111.7,117.2,111.2,115.4,111.2,113.3z"/>
	<path class="st6" d="M94.7,27.8c0.7-2.8,1.1-5.8,4.7-5.9c1.5,0.8,2.8,0.9,4.3-0.2c1.5-1.1,3.5-1.4,5-0.4c2.4,1.6,4.7,1.5,7.2,0.7
		c2.4,0.7,3,2.8,3.5,5.1c0.3,1.6,0.7,3.2,1.1,4.8c0.8,4,1.5,8.1,2.4,12.1c0.7,2.9,0.1,4.8-2.5,6c-0.3,0.1-0.7,0.2-1,0.3
		c-4.4-1.5-4.4-1.5-4.4,3.4c0,3.9,0,7.9,0,11.8c0,1.2-0.1,2.4-1.4,0.7c0-5.1,0.1-10.3,0.1-15.4c0-4.4,0-4.4,3.7-2.9
		c1.2,0.5,2.3,1,3.4,0c1.1-1,0.9-2.3,0.7-3.6c-1.2-6-2.5-11.9-3.8-17.9c-0.4-1.7-1.1-3.2-2.9-2.9c-2.1,0.4-2.1,2.1-1.8,3.9
		c0.6,3.4,1.1,6.8,1.7,10.2c0.3,1.9,0.3,3-2.2,2.5c-3.5-0.6-7-0.6-10.5-0.2c-2.1,0.3-2.9-0.3-2.4-2.7c0.7-3.3,1-6.6,1.5-9.9
		c0.3-1.7,0.2-3.4-1.7-3.8c-1.9-0.4-2.5,1.1-2.9,2.8c-1.2,5.7-2.4,11.4-3.6,17c-0.3,1.5-0.8,2.9,0.5,4.1c1.2,1.2,2.5,0.4,3.6-0.2
		c2.1-1,2.8-0.3,2.8,2.1c-0.1,5.7,0,11.5,0,17.2c-1.8,0.6-1.5-0.8-1.5-1.8c0-4.5,0-9.1,0-13.6c0-1.6,0-2.5-2.1-1.9
		c-3.6,1-5.6-1.3-4.8-5.3C92.6,38.6,93.7,33.2,94.7,27.8z M102.2,31.3c-0.1,2.2,1.6,3.8,4.2,4c2.7,0.2,5.8-2,5.8-4.2
		c0.2-5.6-1.4-8.3-4.9-8.6C103.7,22.1,102.6,24,102.2,31.3z M112.6,34.2c-3.5,3.1-7,3.4-10.7,0.9c-1.2,3.3-1.2,3.2,1.9,3.2
		c2.2,0,4.5-0.3,6.6,0.2c2.8,0.6,3.2-0.4,2.5-2.9C112.8,35.1,112.8,34.8,112.6,34.2z"/>
	<path class="st6" d="M98.2,10.9c-1.1-0.3-0.8-1.3-1.1-2.1c-0.7-2.2-2.1-3.2-4.3-2.9C92,6,91,6.4,90.6,7.4c-0.3,1,0.8,1.2,1.2,1.7
		c0.4,0.5,1.3,0.9,0.6,1.6c-0.6,0.7-1.1-0.2-1.6-0.6c-3.3-2.4-6.7-2.5-9.6-0.3c-2.8,2.2-3.4,6.2-1.4,9.2c0.7,1,1.1,1.3,2.1,0.2
		c1.6-1.8,1.7-1.7,3.5-1.7c-0.3,1.5-1.7,1.6-2.4,2.7c-1.6,2.4-1.1,4.1,1.5,4.9c2,0.6,3.7,1.8,5.1,3.5c0.1,0.6,0.3,1.2,0.4,1.8
		c-1.4,0.5-1.7-0.9-2.3-1.6c-2.4-2.5-5.8-3.1-8.7-1.4c-2.7,1.5-3.9,4.1-3.4,7.1c0.4,2.1,1.6,3.6,3.3,4.5c1.8,1,1.5-1.5,2.5-1.9
		c0.5-0.2,0.9-0.9,1.4-0.4c0.6,0.6,0,1-0.3,1.5c-1.6,2.6-1.4,4.4,0.6,5.8c2.1,1.4,4.3,0.7,5.7-1.6c0.3-0.6,0.5-1.3,1.2-1.6
		c1.2,1.7,0,2.8-0.9,3.8c-2.3,2.4-6.6,2-8.3-0.9c-0.9-1.6-2.1-2.8-3.5-3.9c-5.1-3.7-4.4-11.1,1.2-13.9c2.5-1.3,2.9-2.6,1-4.7
		c-1.2-1.4-2-3.1-2.4-4.9c0.4-6.5,3.8-9.7,9.9-9.4c0.8,0,1.5,0.2,2.3-0.5c3.8-3.2,6.1-2.9,9,1.1c0.1,0.4,0.2,0.7,0.2,1.1
		C98.5,9.4,98.3,10.1,98.2,10.9z"/>
	<path class="st6" d="M129.5,33.5c-0.4-1.3,0.4-1.6,1.3-2.1c5.6-2.9,6.3-7.4,1.9-12.1c-0.4-0.4-1.1-0.8-0.7-1.4
		c0.6-0.8,1.2-0.1,1.6,0.3c0.6,0.6,1.4,1.1,1.7,1.9c1,2.2,1.9,1.4,3,0.1c3.2-4,1.8-10.2-2.8-12.5c-4.6-2.3-9.8-0.6-12.1,3.8
		c-0.4,0.7-0.5,2.2-1.5,1.7c-1.1-0.6-0.1-1.7,0.2-2.6c0.1-0.4,0.2-0.7,0.4-1.1c-3.5-0.4-5,0.7-5.4,4.2c-0.1,0.6,0,1.2-0.6,1.5
		c-1.7-4,1-8,5.4-7.5c1.6,0.2,2.8-0.2,4.1-1.1c5.9-3.8,13.9-0.3,15.3,6.5c0.7,3.6-0.4,6.6-2.9,9.1c-0.7,0.7-1.6,1.2-1.6,2.6
		C136.8,29.8,133.9,32.4,129.5,33.5z"/>
	<path class="st6" d="M56.2,19.3c1.4,5.3,0.3,9.4-3.2,12.1c-3.5,2.6-7.8,2.3-11.8-0.8c-3-3.6-3.9-7.5-1.8-11.9
		c1.7-3.6,5.4-5.7,9.2-5.2C52.1,13.8,54.6,15.9,56.2,19.3z M55.4,23.4c0-4.6-3.3-8.3-7.7-8.4c-4.5-0.1-8,3.5-8.1,8.2
		c0,4.5,3.5,8.4,7.7,8.5C51.7,31.8,55.4,28,55.4,23.4z"/>
	<path class="st6" d="M129.3,61.9c1.3-1.2,2,0.4,2.8,0.8c2.7,1.3,6.1,0.5,7.7-2c1.4-2.2,1.1-5-0.8-6.9c-0.9-0.9-2.1-1.2-3.3-1.5
		c-0.5-0.1-1.3-0.1-1.2-0.9c0.1-0.8,0.8-0.7,1.3-0.7c3,0.4,2-1.5,1.2-2.8c-1.2-2-3-2.8-5.3-2.4c-0.8,0.1-1.6,0.8-2.3-0.1
		c1.6-2.2,3.7-1.8,5.7-1c2.4,0.9,3.7,2.8,4,5.5c0.1,1.1,0,1.9,0.9,2.9c3,3.4,2.8,7.6-0.3,10.3C136.5,66,131.9,65.4,129.3,61.9z"/>
	<path class="st6" d="M116.3,62.9c1.2-0.3,1.3,0.8,1.8,1.5c1.1,1.6,2.7,2.1,4.4,1.7c1.6-0.4,2.7-1.4,2.8-3.2c0.2-2-0.8-3.1-2.4-3.9
		c-0.9-0.5-2.5-1.1-0.1-1.7c2.3,0.9,4,2.4,4,5.3c0,3.2-2.1,4.5-4.6,5.4C118.1,67.6,116.7,66.4,116.3,62.9z"/>
	<path class="st6" d="M56,131.2c-0.2,0.7-0.7,0.9-1.1,0.7c-2.2-0.8-4.3-1.7-6.4-2.6c-0.5-0.2-0.8-0.6-0.5-1.1
		c0.2-0.4,0.6-0.5,0.9-0.3c2.1,0.9,4.3,1.8,6.4,2.7C55.6,130.6,55.8,131,56,131.2z"/>
	<path class="st6" d="M45.6,6.2c-0.2,0.2-0.3,0.5-0.5,0.6c-1.9,1.2-3.8,2.4-5.7,3.7c-0.4,0.3-0.9,0.4-1.2-0.2c-0.2-0.4,0-0.8,0.3-1
		c2-1.3,3.9-2.6,5.9-3.8C44.9,5.2,45.4,5.4,45.6,6.2z"/>
	<path class="st6" d="M36,119.6c1.2,0.9,2.5,1.7,3.6,2.7c0.9,0.9,3.4,1.5,2.7,2.6c-1.1,1.6-2.3-0.8-3.5-1.4
		c-1.1-0.6-2.1-1.5-3.1-2.4c-0.2-0.2-0.3-0.7-0.3-1C35.4,120,35.8,119.8,36,119.6z"/>
	<path class="st6" d="M62,132.6c2.5,0.3,5,0.6,7.5,1c0.5,0.1,0.9,0.4,0.7,1c-0.1,0.3-0.6,0.6-0.8,0.5c-2.6-0.1-5.2-0.3-7.6-1.4
		C61.9,133.3,62,132.9,62,132.6z"/>
	<path class="st6" d="M139.6,72.1c-0.6,1.7,0.6,4.5-1.6,5.1c-0.6,0.2,0.1-3.3-0.1-5.1c0-0.1,0-0.2,0-0.3c0.4-1-0.4-2.9,1.1-2.8
		C140.3,69.2,139.4,71,139.6,72.1z"/>
	<path class="st6" d="M28.1,21.3c-0.6-0.4-1-0.5-1-0.6c-0.1-0.3-0.1-0.9,0.1-1.1c1.6-1.7,3.3-3.4,5-5.1c0.2-0.2,0.7-0.2,1-0.1
		c0.1,0,0.3,0.6,0.2,0.7C31.7,17.1,29.9,19.2,28.1,21.3z"/>
	<path class="st6" d="M134.7,92.1c-0.7,0-0.8-0.5-0.7-1c0.6-2.3,1.3-4.5,2-6.7c0.1-0.4,0.5-0.7,0.9-0.5c0.2,0.1,0.5,0.4,0.4,0.6
		c-0.5,2.5-1.1,5-2.2,7.2C135,91.9,134.8,92,134.7,92.1z"/>
	<path class="st6" d="M101.8,129.1c0,0-0.3,0.2-0.6,0.3c-2,0.8-3.9,1.7-5.9,2.4c-0.3,0.1-0.8,0-1-0.2c-0.3-0.3-0.2-0.8,0.2-1
		c2.2-1,4.4-1.9,6.7-2.8C101.5,127.8,101.8,128,101.8,129.1z"/>
	<path class="st6" d="M25.3,108.8c0.3,0.2,0.6,0.2,0.7,0.4c1.5,1.7,3,3.4,4.5,5.2c0.3,0.4,0.6,0.8,0.1,1.3c-0.3,0.3-0.7,0.2-1-0.1
		c-1.6-1.9-3.3-3.7-4.8-5.7C24.6,109.5,24.9,109.1,25.3,108.8z"/>
	<path class="st6" d="M124.2,110.8c-0.1,0.8-4.6,5.7-5.2,5.8c-0.8,0.1-1.1-0.6-0.6-1.1c1.5-1.8,3.1-3.6,4.8-5.3
		C123.6,109.8,124.3,110.1,124.2,110.8z"/>
	<path class="st6" d="M107.8,125.7c-0.4,0.1-0.8,0-0.9-0.5c0-0.3,0.2-0.8,0.5-0.9c1.7-1.3,3.5-2.5,5.3-3.8c0.3-0.2,0.7-0.4,1,0
		c0.3,0.3,0.3,0.7,0.1,1C113.6,121.9,108.3,125.6,107.8,125.7z"/>
	<path class="st6" d="M15,25.2c-0.8-0.1-0.8-0.8-0.6-1.3c1.1-2.4,2.6-4.4,4.7-6c0.3-0.2,0.7-0.4,0.9,0.1c0.1,0.2,0.1,0.6,0,0.8
		c-1.7,1.9-3.4,3.8-4.6,6.2C15.3,25.1,15.1,25.1,15,25.2z"/>
	<path class="st6" d="M58.8,1c-2.2,0.8-4.4,1.6-6.7,2.4c-0.3,0.1-0.8,0-0.9-0.3c-0.3-0.5,0-1,0.5-1.2C53.9,1,56.1-0.2,58.8,1z"/>
	<path class="st6" d="M132.3,98.7c-1.3,2.1-2.5,4.3-3.8,6.4c-0.2,0.3-0.7,0.4-0.9,0.1c-0.1-0.2-0.3-0.6-0.2-0.8
		c1.2-2.1,2.3-4.2,3.5-6.3c0.2-0.4,0.6-0.5,0.9-0.3C132.1,97.9,132.1,98.2,132.3,98.7z"/>
	<path class="st6" d="M11.8,21.2c-0.7-0.2-0.8-0.8-0.5-1.4c0.8-1.3,1.5-2.7,2.7-3.6c0.4-0.3,0.8-0.6,1.2-0.1
		c0.1,0.2,0.2,0.6,0.1,0.8c-1,1.4-2,2.8-3,4.1C12.2,21.1,12,21.1,11.8,21.2z"/>
	<path class="st6" d="M101.4,13.8c0-0.3,0-0.6,0-0.8c1.2,0.1,3.5,3.6,3,4.7c-0.1,0.2-0.4,0.5-0.6,0.5c-0.3-0.1-0.7-0.4-0.8-0.7
		C102.4,16.3,101.9,15,101.4,13.8z"/>
	<path class="st6" d="M110.7,18.1c-0.7-0.2-0.8-0.7-0.6-1.1c0.9-1.4,0.5-3.7,2.5-4.2c0.5-0.1,0.5,0.7,0.4,1.2
		c-0.5,1.3-1.1,2.5-1.7,3.7C111.2,17.9,110.9,18,110.7,18.1z"/>
	<path class="st6" d="M53.5,36.3c0.2-1.6,1.1-1.1,1.8-0.5c1.4,1.3,2.8,2.2,4.7,1.4c0.5-0.2,1.3,0.1,1.9,0.4c1.9,0.9,4.7,7.5,3.9,9.6
		c-0.4,1-0.2,1.9-0.1,2.8c0.5,3.6-2,6-5.2,4.9c-1-0.3-1.6-0.4-2.4,0.5c-0.5,0.5-1.3,0.9-2,1c-1.6,0.3-3.3-0.4-3.7-1.9
		c-0.9-2.9-5.5-4.5-3.1-8.2c1.4-2.1,1.2-3.9,0.9-6c-0.1-0.9-1-2.5,1-2.6c0.3,1.6,0.5,3.3,0.9,5.3c0.9-1.3,1.4-2.5,2.6-2.8
		c3.4-0.6,1.8-1.7,0.3-2.9C54.4,37,53.9,36.7,53.5,36.3z M62.4,42.1c0-2.1-0.5-3-1.9-3.2c-1.1-0.2-6.8,3.6-6.7,4.7
		c0.1,1.5-0.5,1.8-1.7,2c-1.2,0.2-1.9,1.2-2,2.5c-0.1,1.2,0.5,2.2,1.5,2.6c0.9,0.4,1.4,0.8,1.5,1.9c0.1,1.3,0.8,2.2,2.1,2.4
		c1.3,0.2,2.1-0.4,2.8-1.5c0.4-0.6,0.7-1.7,1.6-0.8c1.2,1.2,2.5,1.8,3.9,0.5c1.4-1.3,1.1-2.7,0.1-4.2c-1.1-1.7,1.8-1.9,1.3-3.7
		C64.4,43.7,61.8,44.4,62.4,42.1z"/>
	<path class="st6" d="M82.5,52.6c-0.3,1.1-0.9,0.9-1.7,0.7c-1.5-0.4-2.7,0.5-3.6,1.7c-0.6,0.8-0.7,1.8-0.2,2.8
		c0.6,1.1,1.3,0.7,2.2,0.4c0.9-0.3,1.9-0.6,2.8,0.2c-0.7,1.3-1.9,1-2.7,1.5c-1.3,0.8-2.1,1.9-2.1,3.5c0,1.8,0.9,3,2.3,3.7
		c1.4,0.7,2.8,0.6,4.3-0.3c1.5-0.9-0.6-2.1,0.6-3.4c2.6,3.6,5.3,2.7,8-0.1c0.1,2.6-1.9,4.4-4.6,4c-1.2-0.2-2-0.1-3,0.7
		c-2.3,1.7-4.8,1.6-7-0.2c-2-1.7-2.6-4-1.6-6.6c0.3-0.7,0.3-1.2,0-1.9c-1.2-2.1-1-4.3,0.6-5.9C78.3,51.6,80.4,51.3,82.5,52.6z"/>
	<path class="st6" d="M66.3,94.6c0.1-0.5,0.3-1.2,0.5-2c0.1-0.4,0.4-1,1-0.8c0.8,0.2,0.5,0.8,0.4,1.4c-0.6,3.8,0.2,5.1,3.6,6.1
		c0.5,0.2,1.3,0.1,1.2,0.8c-0.1,0.9-0.9,0.8-1.5,0.8C68.8,100.8,66.3,97.8,66.3,94.6z"/>
</g>
<path class="st0" d="M821.1,8.6c-0.2,1.6-1.2,2.2-2.1,2.1c-2.5-0.5-2.6,3.8-5.4,2.5c-0.7-0.4-0.7-1.5-0.2-1.6c2.6-0.6,1.9-4.8,5-4.5
	C819.6,7.1,820.5,7.8,821.1,8.6z"/>
<path class="st0" d="M920-5.5c0.1,0.4,0.4,0.9,0.4,1.5c0,0.7-0.3,1.4-1.1,0.8c-0.4-0.3-0.6-1.1-0.6-1.7C918.6-5.4,919-5.9,920-5.5z"
	/>
<path class="st2" d="M875.7,112.5c0.2-0.8,0.4-2.3,0.9-3.7c0.4-1.2,1-2.8,2.8-2c1.5,0.6,0.7,1.9,0.5,3c-1.4,7.5,0.5,10.5,7.8,12.2
	c1.1,0.3,2.6,0.1,2.6,1.7c-0.1,1.9-1.7,1.8-3,1.8C881.2,125.4,875.7,119.5,875.7,112.5z"/>
</svg>
