<?xml version="1.0" encoding="utf-8"?>
<!-- Generator: Adobe Illustrator 24.3.0, SVG Export Plug-In . SVG Version: 6.00 Build 0)  -->
<svg version="1.1" id="Layer_1" xmlns="http://www.w3.org/2000/svg" xmlns:xlink="http://www.w3.org/1999/xlink" x="0px" y="0px"
	 viewBox="0 0 150 150" style="enable-background:new 0 0 150 150;" xml:space="preserve">
<style type="text/css">
	.st0{fill:#005BAB;}
</style>
<g>
	<g>
		<path class="st0" d="M11.1,78.6C-8.9,36.7,39.4-3.3,74.9,27.9c6.6-5.9,14.5-9.8,23.4-10.6c1.6-0.2,2.6,0.5,2.8,1.7
			c1.2,4.6-12.5,0.7-24.5,13.4c-1.3,1.3-2.3,1.2-3.9-0.3C54,12.1,17.9,21.9,12,48.8C9.6,59,11.3,68.6,16,77.8
			c0.2,0.4,0.8,0.8,1.3,0.8c3.3,0.1,6.6,0,10,0.1c1,0,1.3-0.6,1.6-1.3c3.4-7,6.7-13.9,10.2-20.8c1.1-2.3,3.8-2.7,4.6,0.2
			c3.6,10.8,7.3,21.4,11,32.1c3.1-9.4,5.6-18.9,8.5-28.4c0.4-1.2,0.7-2.3,2.2-2.5c1.4-0.1,2,0.8,2.6,1.9c2.7,4.6,5.3,9.1,8.2,13.6
			c3.5-8.1,6.6-16.3,10-24.4c0.5-1.2,1-2.2,2.5-2.2c1.4,0,1.9,1.1,2.4,2.2c1.5,3.4,3,6.8,4.5,10.3c1.6,2.7-2.4,5.1-3.9,2
			c-1-2.1-1.9-4.2-2.9-6.5C85,62.5,82,70.5,78.7,78.4c-0.4,1.1-0.9,2-2.2,2.1c-1.3,0.1-1.9-0.8-2.5-1.8c-2.7-4.4-5.1-8.8-7.9-13.2
			c-3.2,10.3-6,20.5-9.2,30.8c-0.4,2.6-3.9,2.6-4.4,0.1C48.6,85.2,45,73.9,41,62.7c-3.2,6.1-6,12.1-9,18.3c-0.7,1.5-1.7,2.1-3.3,2.1
			c-3.1-0.1-6.2,0-9.7,0c13.4,20.3,35.7,31.3,55,44.9c0.4,0.3,1.2,0.3,1.6,0.1c19.9-12.9,41.4-25,55.2-44.9c-2.2,0-4-0.1-5.8,0
			c-1.7,0.1-2.7-0.6-3.4-2.1c-1.7-3.5-3.4-7-5.3-10.7c-2.4,7.4-4.6,14.1-6.9,21.4c-0.4,1.1-0.8,2-2.2,2.1c-1.3,0.1-1.9-0.8-2.4-1.8
			c-3.2-7.4-6.5-14.7-9.6-22.1c-0.3-0.8-0.3-2,0.1-2.7c1.2-1.4,3.2-0.6,3.9,1.1c2.6,5.7,4.9,11.4,7.6,17.1c2.4-7,4.5-13.9,6.8-20.9
			c0.4-1.1,0.9-2,2.2-2.1c1.3-0.1,1.9,0.8,2.4,1.8c2.2,4.5,4.5,8.9,6.6,13.4c0.5,0.9,1,1.3,2,1.2c1.8-0.3,6.1,0.7,7.1-0.8
			c12.1-20.9,1.7-50.3-22.8-55.5c-1.5-0.4-2.3-1.4-2-2.7c0.3-1.3,1.5-2,3-1.6c26.6,5.7,38.7,37.1,26.3,60.6c3.1,0,5.8,0,8.8,0
			c3.3-0.1,3.3,4.4,0,4.4c-2.4,0.3-10.6-0.8-11.7,0.9c-14.2,21.9-37.7,34.9-59,48.9c-1,0.6-1.9,0.7-2.9,0.1
			c-21.3-14-44.9-27-59.2-48.9c-0.3-0.5-1.2-0.8-1.8-0.8C9.3,83,6,83,2.7,83c-2.4,0.1-3.1-2.2-1.6-3.9c0.3-0.4,1.2-0.5,1.9-0.5
			C5.7,78.6,8.4,78.6,11.1,78.6z"/>
	</g>
</g>
</svg>
