<?xml version="1.0" encoding="utf-8"?>
<!-- Generator: Adobe Illustrator 24.3.0, SVG Export Plug-In . SVG Version: 6.00 Build 0)  -->
<svg version="1.1" id="Layer_1" xmlns="http://www.w3.org/2000/svg" xmlns:xlink="http://www.w3.org/1999/xlink" x="0px" y="0px"
	 viewBox="0 0 150 150" style="enable-background:new 0 0 150 150;" xml:space="preserve">
<style type="text/css">
	.st0{fill:#005BAB;}
</style>
<g>
	<path class="st0" d="M105.6,24.4c0.4-1.2,0.8-2.4,1.2-3.6c0.4-1.2,1.1-2,2.5-2.1c1.3-0.1,2.2,0.7,2.7,1.8c1.3,3.1,2.8,6.2,4,9.3
		c0.4,1.2,0.3,2.6,0.4,3.9c0.1,0.8,0,1.7,0.3,2.4c2,4.3,2.6,8.8,2.4,13.4c0,1.1,0.2,1.9,0.8,2.8c2.8,4.1-0.3,12-5.1,13.1
		c-0.3,0.1-0.5,0.2-0.8,0.2c-0.2,4.5-1.5,8.6-4.2,12.2c-0.3,0.4-0.5,0.8-0.9,1.1c-1.5,1.2-1.4,2.6-0.9,4.2c0.9,2.8,2.8,4.6,5.3,5.9
		c3,1.6,6.2,2.2,9.5,2.7c6.5,0.9,11.2,4.4,13.4,10.5c3.2,8.7,6,17.4,8.8,26.2c1.7,5.4,3,10.9,4.4,16.4c0.2,0.6,0.2,1.4-0.1,1.9
		c-0.2,0.4-1.1,0.7-1.4,0.6c-0.5-0.2-1.1-0.8-1.2-1.4c-1-3.6-1.9-7.3-2.9-11c-2.9-10.5-6-21-10.1-31.1c-2.1-5.3-6-8.3-11.7-9.1
		c-3.3-0.5-6.6-1.5-10-2.3c-0.4,0.8-0.8,2-1.4,3c-0.9,1.6-1.9,3.2-3,4.7c-1.5,1.9-3.5,2.6-5.8,1.8c-2.4-0.8-4.8-1.6-7.3-2.3
		c-0.7-0.2-1.7-0.1-2.4,0.2c-2.1,0.7-4,1.7-6.1,2.3c-2.1,0.7-4,0.2-5.6-1.5c-2.2-2.2-3.7-4.9-4.9-7.7c-0.2-0.4-0.3-0.7-0.4-0.9
		c-2.8,0.8-5.6,1.6-8.4,2.4c-1.1,0.3-2.3,0.3-3.4,0.5c-4.7,1-8.1,3.7-10,8.1c-3.4,7.9-5.7,16.2-7.7,24.6c-1.5,5.9-2.7,11.9-4.1,17.8
		c0,0.1,0,0.2-0.1,0.3c-0.3,1.3-1,1.9-2,1.6c-1.2-0.3-1.3-1.2-1-2.2c0.6-2.7,1.2-5.5,1.8-8.2c2.6-11.1,5.4-22.2,9.4-32.9
		c2-5.4,5.3-9.6,10.9-11.4c1.9-0.6,4-0.8,6-1.2c3.1-0.6,6.1-1.5,8.7-3.5c1.9-1.5,3.2-3.3,3.5-5.8c0.1-0.5-0.1-1.2-0.5-1.5
		c-3.7-3.8-5.9-8.2-6.4-13.5c0-0.4-0.5-1-0.9-1.2c-2.8-1.3-4.4-3.6-4.8-6.6c-0.3-2.5-0.4-5,1-7.3c0.2-0.3,0.1-1,0-1.4
		c-2.2-13.5,6.8-26.4,20.3-29.1c5.9-1.2,11.6-0.5,17.1,2.2C104.7,24,105.1,24.1,105.6,24.4z M82.8,37.6c-0.3,0.1-0.4,0.2-0.6,0.2
		c-4.5,2.6-6.6,6.6-6.7,11.7c0,1.9,0.1,3.8-0.1,5.7c0,0.6-0.6,1.4-1.1,1.5c-0.5,0.1-1.2-0.4-1.7-0.8c-0.6-0.5-0.9-1.3-1.5-1.7
		c-1.1-0.7-1.9-0.3-2.1,0.9c-0.1,1.3-0.2,2.6,0,3.9c0.3,2.1,1.5,3.7,3.6,4.3c1.5,0.5,2,1.3,2.1,3C75.3,78.7,88,86.9,99.5,82.3
		c7-2.8,11.3-9.4,11.4-17.2c0-2.1,0.3-2.3,2.2-2.5c1-0.1,2.1-0.4,2.7-1c1.8-1.9,2.1-4.3,1.8-6.7c-0.2-1.5-1.4-1.9-2.6-1
		c-0.8,0.6-1.5,1.4-2.1,2.2c-0.6,0.7-1.4,1-2.1,0.4c-0.4-0.4-0.7-1.1-0.6-1.7c0.1-2.2,0.3-4.3,0.5-6.1c-2.8-0.7-5.6-0.9-8-2
		c-2.5-1-4.7-2.8-7.1-4.4c-0.7,0.6-1.7,1.4-2.5,2.3c-0.9,1-1.8,1-3,0.5C86.5,43.6,83.9,41.3,82.8,37.6z M113.8,37.7
		c-0.2,0.1-0.3,0.1-0.4,0.2c-2.7,1.5-5.5,1.3-7.6-0.5c-2.2-1.8-2.9-4.5-2-7.5c0.3-0.8,0.5-1.7,0.8-2.5c-5.2-3.4-12.5-4.2-18.8-2.3
		c-10.3,3.1-17.4,13.5-16.1,23.5c0.3,2.2,0.3,2.2,2.7,2.6c0-0.7,0-1.3,0-2c0-6.8,4-12.6,10.4-15.1c1.6-0.6,2.4-0.2,2.6,1.5
		c0.4,2.7,2,4.6,4.3,6c1,0.6,1.6,0.5,2.4-0.3c0.6-0.7,1.3-1.2,2-1.8c1.7-1.5,2-1.5,3.6,0.1c3.9,4,8.4,6.3,14.1,5.3
		c1.4-0.2,2.1,0.5,2,1.9c-0.1,1.4-0.2,2.7-0.3,4.2c0.9-0.4,1.7-0.7,2.4-0.9C116.1,45.8,115.7,41.6,113.8,37.7z M81.5,83.4
		c-0.6,2.5-1.9,4.6-3.8,6.4c-0.2,0.2-0.2,0.7-0.1,0.9c1,2.9,2.4,5.5,4.5,7.8c0.9,1,1.9,1.3,3.1,0.8c1.7-0.7,3.5-1.3,5.2-2.1
		c1.6-0.8,3.2-0.9,4.9-0.3c2.2,0.7,4.4,1.4,6.6,2.2c1.6,0.6,2.8,0.1,3.6-1.2c1.3-2.2,2.5-4.5,3.6-6.8c0.1-0.2,0-0.7-0.2-0.9
		c-2.2-1.9-3.7-4.2-4.3-7.1C97,87.7,89.4,87.8,81.5,83.4z M109.4,22.4c-1.1,3.4-2.1,6.3-3,9.4c-0.4,1.4,0.4,2.8,1.6,3.5
		c1.2,0.7,2.8,0.6,3.9-0.2c1.1-0.9,1.8-2.4,1.3-3.7C112.1,28.5,110.8,25.7,109.4,22.4z"/>
	<path class="st0" d="M7.9,25.8c0-4.3,0-8.7,0-13C7.9,7,12.3,2.5,18,2.4c5.7,0,10.2,4.5,10.2,10.3c0,8.8,0,17.7,0,26.5
		c0,0.9,0.3,1.5,1,2.1c6.1,5,8,13.4,4.9,20.5C30.9,69,23.4,73.2,15.8,72.2c-7.8-1-14-7.1-15-14.9C-0.1,50.9,2,45.5,6.9,41.4
		c0.7-0.6,1-1.2,1-2.1C7.9,34.8,7.9,30.3,7.9,25.8z M25.1,26.7c0-4.7,0-9.4,0-14c0-3.3-1.9-5.8-4.9-6.8c-4.7-1.5-9.3,2-9.3,7.2
		c0,9.1,0,18.2,0,27.3c0,1.3-0.4,2.2-1.5,3C5.9,45.8,4,49.4,3.6,53.7c-0.6,6.9,4,13.3,10.7,15.1c6.7,1.8,13.8-1.5,16.8-7.8
		c3-6.2,1.1-13.7-4.6-17.8c-1.1-0.8-1.5-1.6-1.4-2.9C25.1,35.8,25.1,31.2,25.1,26.7z"/>
	<path class="st0" d="M55,80.9c0-0.2,0.1-0.7,0.2-1.2c0.8-2.5,1.6-5,2.4-7.5c0.3-1.1,1-1.8,2.2-1.8c1.1-0.1,1.9,0.5,2.3,1.5
		c1.1,2.5,2.2,5,3.2,7.5c0.8,2.1,0.3,4.4-1.4,5.9c-1.7,1.5-3.6,1.8-5.7,1C56.2,85.4,55,83.4,55,80.9z M60,74.6
		c-0.7,2.2-1.3,4.1-1.9,5.9c-0.3,1.1,0,2,0.9,2.6c0.9,0.6,1.9,0.6,2.7,0c0.9-0.7,1.2-1.6,0.8-2.6C61.7,78.6,60.9,76.8,60,74.6z"/>
	<path class="st0" d="M129.9,74.9c-3.6,0-6.1-3.3-5.2-6.8c0.7-2.6,1.7-5.2,2.5-7.8c0.3-1,1-1.6,2-1.6c1.1-0.1,1.9,0.4,2.4,1.4
		c1.1,2.5,2.3,5,3.3,7.6C136.2,71.3,133.6,74.9,129.9,74.9z M129.5,63c-0.7,2.2-1.4,4.1-1.9,5.9c-0.3,1.1,0.1,2,1,2.7
		c0.9,0.5,1.8,0.5,2.6-0.2c0.9-0.7,1.1-1.6,0.8-2.6C131.3,66.9,130.5,65.1,129.5,63z"/>
	<path class="st0" d="M63.7,124.3c1.6,0,2.1,0.9,1.9,2.2c-1,5.1-2.1,10.2-3.2,15.3c-0.3,1.4-0.6,2.8-0.9,4.2c-0.2,1-0.7,1.7-1.8,1.5
		c-1.1-0.2-1.4-1-1.2-2c1.4-6.5,2.7-13.1,4.1-19.6C62.8,125.2,63.4,124.7,63.7,124.3z"/>
	<path class="st0" d="M124.4,124.3c0.3,0.4,0.9,0.9,1,1.5c1.2,5.5,2.3,11.1,3.5,16.6c0.2,1,0.4,2,0.6,3c0.2,1-0.1,1.8-1.1,2
		c-1.1,0.2-1.6-0.5-1.8-1.5c-1-4.8-2-9.7-3-14.5c-0.4-1.7-0.7-3.4-1-5.1C122.3,125.1,122.8,124.3,124.4,124.3z"/>
	<path class="st0" d="M39.6,31.5c-1.4,0-2.8,0-4.1,0c-1.1,0-1.9-0.4-1.9-1.6c0-1.1,0.9-1.5,1.9-1.5c2.8,0,5.6,0,8.4,0
		c1,0,1.8,0.4,1.8,1.5c0,1.1-0.8,1.5-1.8,1.5C42.4,31.5,41,31.5,39.6,31.5z"/>
	<path class="st0" d="M39.6,38.9c-1.4,0-2.8,0-4.1,0c-1,0-1.8-0.4-1.8-1.5c0-1.2,0.8-1.6,1.9-1.6c2.8,0,5.5,0,8.3,0
		c1.1,0,1.9,0.3,1.9,1.6c0,1.2-0.9,1.5-1.9,1.5C42.3,38.9,40.9,38.9,39.6,38.9z"/>
	<path class="st0" d="M39.6,24c-1.4,0-2.8,0-4.3,0c-1,0-1.8-0.5-1.7-1.6c0-1,0.7-1.4,1.7-1.4c2.9,0,5.8,0,8.7,0c1,0,1.7,0.4,1.7,1.5
		c0,1-0.7,1.5-1.6,1.5C42.5,24,41.1,24,39.6,24z"/>
	<path class="st0" d="M39.7,13.5c1.4,0,2.8,0,4.3,0c1,0,1.7,0.5,1.6,1.5c0,1-0.7,1.5-1.7,1.5c-2.9,0-5.8,0-8.7,0
		c-1,0-1.7-0.4-1.7-1.5c0-1.1,0.7-1.6,1.7-1.6C36.8,13.5,38.3,13.5,39.7,13.5z"/>
	<path class="st0" d="M19.5,33.2c0,5.2,0,10.3,0,15.5c0,0.8,0.2,1.3,1,1.8c2.1,1.1,3,3.4,2.3,5.7c-0.6,2.1-2.6,3.7-4.9,3.6
		c-2.3,0-4.2-1.5-4.8-3.8c-0.6-2.2,0.3-4.5,2.4-5.6c0.8-0.4,1-0.9,1-1.8c0-10.3,0-20.5,0-30.8c0-0.3,0-0.5,0-0.8
		c0-1.1,0.4-1.9,1.6-1.9c1.1,0,1.5,0.8,1.5,1.9C19.5,22.5,19.5,27.8,19.5,33.2z"/>
</g>
</svg>
