<?xml version="1.0" encoding="utf-8"?>
<!-- Generator: Adobe Illustrator 24.3.0, SVG Export Plug-In . SVG Version: 6.00 Build 0)  -->
<svg version="1.1" id="Layer_1" xmlns="http://www.w3.org/2000/svg" xmlns:xlink="http://www.w3.org/1999/xlink" x="0px" y="0px"
	 viewBox="0 0 150 150" style="enable-background:new 0 0 150 150;" xml:space="preserve">
<style type="text/css">
	.st0{fill:#005BAB;}
</style>
<g>
	<path class="st0" d="M0.6,143.6c1.6,0,3.2,0,4.8,0c0,1.7,0,3.3,0,4.9c-1.6,0-3.2,0-4.8,0C0.6,146.9,0.6,145.3,0.6,143.6z"/>
	<path class="st0" d="M97.6,2.9c1.6-0.5,3-1,4.6-1.5c0.2,0.5,0.4,0.9,0.5,1.3c2.6,7.7,5.1,15.4,7.7,23c1.5,4.5,1.2,8.7-1.7,12.4
		c-1.7,2.2-1.8,4.7-2.1,7.1c-2.4,16.9-4.8,33.8-7.2,50.6c-1.3,9.4-2.7,18.8-4,28.2c-0.1,0.4,0.3,1,0.6,1.2c5.5,2.8,11,5.5,16.5,8.3
		c0.4,0.2,0.9,0.2,1.4,0.2c1.6,0,3.2,0,4.8,0c6.2,0,9.3,3.7,8.3,9.9c7.5,0,15,0,22.6,0c0,1.7,0,3.3,0,4.9c-46.3,0-92.5,0-138.9,0
		c0-1.6,0-3.1,0-4.9c8.5,0,17.1,0,25.7,0c-4-7.9-7.8-15.7-11.7-23.4c-1.6-3-1.9-6.2-1.5-9.5c0.4-4,3.5-7.4,7.6-8.2
		c2.2-0.4,3.2-1.5,4-3.6c4.7-12.1,9.6-24.1,14.4-36.1c2.9-7.1,6.6-13.8,11.1-20.1c2.9-4.2,5.8-8.4,8.8-12.5c0.7-0.9,0.7-1.6,0.3-2.6
		c-2.8-6.9-5.5-13.7-8.3-20.6c-0.2-0.4-0.3-0.9-0.6-1.5c1.5-0.6,2.9-1.2,4.5-1.8c0.2,0.5,0.4,0.9,0.6,1.4c3,7.5,5.9,14.9,9,22.4
		c0.7,1.6,0.5,2.9-0.5,4.3c-4.2,5.9-8.3,11.8-12.4,17.8c-5.5,8.1-8.8,17.3-12.4,26.3c-3.7,9.3-7.5,18.6-11.1,27.9
		c-0.6,1.6-1.6,2.5-3.3,2.8c-1.1,0.2-2.2,0.5-3.2,0.8c-2.2,0.7-3.5,2.4-3.6,4.7c-0.1,2.3,0.3,4.4,1.4,6.4c3.4,6.6,6.7,13.3,10,20
		c1.7,3.5,4.3,5.1,8.2,5c6.3-0.1,12.6,0,18.9,0c0.3,0,0.6,0,0.9,0c1.7,0,2.8-1,2.8-2.5c0-1.4-1.1-2.5-2.8-2.5c-2.2,0-4.5,0-6.7,0
		c-1.8,0-2.6-0.6-2.9-2.4c-1.6-7-3.1-14-4.7-21c-0.3-1.5,0-2.6,0.8-3.8C70.6,86.3,87.4,61,104.3,35.7c1.9-2.9,2.3-5.7,1.2-8.9
		c-2.6-7.4-5-14.8-7.4-22.2C97.9,4.1,97.8,3.6,97.6,2.9z M100.7,50.7c-0.1,0-0.2,0-0.3-0.1c-0.1,0.1-0.2,0.3-0.4,0.4
		c-8,12-16,23.9-23.9,35.9c-0.3,0.5-0.5,1.1-0.5,1.6c-0.9,9.5-1.8,19-2.6,28.5c-0.3,3.3-0.9,6.3-3.1,9c-1.6,2-2.9,4.2-4.3,6.4
		c-0.2,0.3-0.4,0.7-0.7,1.3c3-0.1,5.7,0,7.9,2.2c2.1,2.2,2.6,4.7,1.9,7.6c0.3,0,0.5,0.1,0.7,0.1c14.7,0,29.5,0,44.2,0
		c1.6,0,2.5-1,2.6-2.4c0-1.4-1-2.5-2.6-2.6c-2.2-0.1-4.5,0-6.7,0c-0.7,0-1.6-0.2-2.2-0.5c-6.3-3.1-12.7-6.3-19-9.5
		c-1.5-0.8-1.9-1.6-1.7-3.3c1.4-9.7,2.8-19.4,4.2-29.1c1.7-12.1,3.5-24.3,5.2-36.4C99.9,56.9,100.3,53.8,100.7,50.7z M61.3,130
		c2.2-3.4,4.2-6.4,6.2-9.4c0.2-0.3,0.2-0.6,0.2-1c0.6-6.3,1.2-12.5,1.7-18.8c0.1-1.3,0.2-2.6,0.3-3.9c-4,5.6-7.8,11.3-11.6,17
		c-0.2,0.3-0.3,0.7-0.2,1.1C59,119.9,60.1,124.7,61.3,130z"/>
	<path class="st0" d="M52.6,33c1.6,0,3.2,0,4.9,0c0,2.8,0.1,5.6,0,8.4c-0.1,1.2-1.1,1.7-2.2,2c-1.8,0.4-3.6,0.9-5.3,1.3
		c0,1.8,0,3.6,0,5.3c0,2.1-0.5,2.8-2.6,3.4c-1.6,0.4-3.2,0.8-4.8,1.2c0,0-0.1,0.1,0,0c0,1.7-0.1,3.3,0,5c0.1,1.4-0.4,2.3-1.5,3.1
		c-1.1,0.7-2.2,1.5-3.2,2.3c-0.3,0.3-0.5,1-0.4,1.4c0.5,1.4,1.2,2.7,1.8,4c0.8,1.9,0.6,2.7-0.9,3.9c-1.4,1.1-2.8,2.2-4.3,3.4
		c0.8,1.7,1.5,3.3,2.2,4.9c0.8,1.8,0.6,2.7-1,3.9c-1.9,1.5-3.8,3-5.8,4.5c-1-1.3-2-2.6-3-3.9c1.6-1.2,3.1-2.4,4.7-3.7
		c-0.7-1.5-1.4-3.1-2.1-4.6c-1-2.2-0.8-2.9,1.1-4.5c1.3-1,2.6-2,4-3.1c-0.7-1.5-1.3-3-2-4.4c-1.2-2.6-1-3.2,1.3-4.8
		c0.9-0.7,1.8-1.5,2.8-2c1.1-0.6,1.3-1.4,1.2-2.5c-0.1-1.3-0.2-2.7-0.2-4.1c-0.1-2,0.5-2.7,2.5-3.2c1.4-0.3,2.7-0.7,4.1-1
		c0.8-0.2,1.1-0.6,1-1.4c-0.1-1.5-0.1-3-0.1-4.5c0-1.8,0.7-2.5,2.4-3c1.5-0.4,2.9-0.8,4.4-1.1c0.8-0.2,1.1-0.6,1-1.4
		C52.6,36.3,52.6,34.7,52.6,33z"/>
	<path class="st0" d="M109.5,94.4c-1.7-0.2-3.2-0.4-4.9-0.7c2.1-14.9,4.3-29.7,6.4-44.7c1.7,0.2,3.2,0.5,4.9,0.7
		C113.8,64.6,111.7,79.4,109.5,94.4z"/>
	<path class="st0" d="M108.8,99.4c-0.3,1.7-0.5,3.3-0.7,4.9c-1.6-0.2-3.2-0.4-4.9-0.7c0.2-1.6,0.4-3.2,0.7-4.9
		C105.5,98.9,107.1,99.1,108.8,99.4z"/>
</g>
<g>
	<path class="st0" d="M-196.1,122.1c2.3,0.5,4.8,0.9,7,1.6c13.7,4.4,22.7,17.1,22.6,31.5c-0.1,14.1-9.6,26.7-23.2,30.8
		c-0.3,0.1-0.7,0.2-1.2,0.4c0,0.5,0,1,0,1.6c0,15.1,0,30.2,0,45.3c0,9.6-6.4,17.6-15.8,19.6c-1.5,0.3-3,0.4-4.5,0.4
		c-10.5,0-21,0-31.4,0c-0.9,0-1.6,0.3-2.3,0.9c-2.4,2.5-4.8,4.9-7.3,7.3c-1.6,1.5-3,1.5-4.5,0c-13.7-13.7-27.4-27.4-41.1-41.1
		c-5.1-5.2-8.1-11.4-9-18.7c0-0.3-0.2-0.6-0.2-0.9c0-1.9,0-3.8,0-5.8c0.7-2.9,1.3-5.9,2.2-8.7c1.4-4,3.8-7.5,6.7-10.6
		c1.4-1.5,3-1.6,4.2-0.4c1.2,1.2,1.1,2.7-0.3,4.2c-7.3,8.1-9.2,17.3-5.8,27.6c0.3,1,0.8,1.4,1.9,1.4c5.9-0.1,11.9-0.1,17.8,0
		c1,0,1.5-0.3,2-1.2c2.9-5.6,5.8-11.1,8.7-16.6c0.9-1.7,1.8-2.3,3.2-2.1c1.6,0.2,2.2,1.4,2.5,2.9c2.4,9.8,4.8,19.5,7.2,29.3
		c0.1,0.2,0.1,0.4,0.4,0.6c0.6-2.6,1.2-5.2,1.7-7.7c0.7-3.2,1.4-6.3,2.1-9.5c0.3-1.3,0.9-2.3,2.3-2.5c1.4-0.2,2.3,0.3,3.1,1.9
		c1.5,2.7,2.9,5.5,4.6,8.6c0.8-3,1.5-5.7,2.1-8.4c1.2-4.6,2.3-9.2,3.5-13.8c0.4-1.7,1.3-2.5,2.6-2.5c1.4-0.1,2.4,0.7,2.9,2.4
		c1.8,5.8,3.6,11.7,5.4,17.5c0.1,0.4,0.3,0.8,0.4,1.2c5,0,10,0,15,0c0.3,0,0.7-0.4,0.8-0.7c2.9-7.4,2.6-14.7-1-21.9
		c-0.2-0.4-0.8-0.8-1.2-1c-5.9-2.5-10.7-6.4-14.5-11.6c-0.4-0.5-1-0.9-1.6-1.1c-9-2-16.9,0-23.9,6c-0.6,0.5-1.1,1-1.7,1.4
		c-1.1,0.7-2.3,0.4-3.6-0.8c-4-3.8-8.7-6.1-14.1-7.1c-0.8-0.1-1.6-0.2-2.4-0.3c-1.7-0.3-2.6-1.4-2.5-3c0.2-1.5,1.4-2.5,3.1-2.4
		c6.1,0.4,11.7,2.6,16.6,6.2c0.5,0.4,0.9,0.7,1.4,1.1c0,0,0.1,0,0.2,0.1c7.1-5.8,15.3-8.2,24.4-7.3c-0.5-2.6-1.2-5.1-1.5-7.6
		c-2.1-16.4,9-32.1,25.1-35.7c1.4-0.3,2.9-0.6,4.3-0.8C-200.1,122.1-198.1,122.1-196.1,122.1z M-226.3,154.8
		c0,15,12.1,27.2,27.1,27.2c15,0,27.3-12.2,27.3-27.2c0-15-12.2-27.2-27.1-27.2C-214.1,127.5-226.3,139.7-226.3,154.8z
		 M-248.3,212.2c-0.9,4.2-1.8,8.1-2.7,11.9c-0.8,3.5-1.5,7-2.3,10.4c-0.4,1.5-1.3,2.3-2.7,2.3c-1.4,0-2.3-0.7-2.7-2.2
		c-0.1-0.3-0.2-0.5-0.2-0.8c-2.7-11.2-5.5-22.3-8.2-33.5c-0.1-0.3-0.2-0.6-0.4-1.1c-2.3,4.4-4.6,8.6-6.7,12.8c-0.7,1.4-1.8,2-3.4,2
		c-5.6-0.1-11.2,0-16.7,0c-0.4,0-0.9,0-1.1,0c13.8,13.8,27.7,27.6,41.6,41.4c3.5-2.8,40.3-40.2,40.8-41.5c-4.5,0-9,0-13.5,0
		c-2,0-2.7-0.6-3.3-2.4c-1-3.2-2-6.4-3-9.6c-0.1-0.4-0.3-0.9-0.6-1.7c-1.7,6.7-3.3,13-4.9,19.3c-0.5,1.8-1.2,2.7-2.6,2.8
		c-1.6,0.1-2.4-0.8-3-2.1C-245.4,217.7-246.7,215.2-248.3,212.2z M-238.4,247.8c0.7,0,1.2,0,1.6,0c8.5,0,16.9,0,25.4,0
		c8.9,0,15-6.1,15-15.1c0-14.5,0-29.1,0-43.6c0-0.5,0-1,0-1.5c-1.9,0-3.6,0-5.5,0c0,0.6,0,1.2,0,1.7c0,14.5,0,29.1,0,43.6
		c0,5.7-3.7,9.4-9.5,9.4c-6.8,0-13.6,0-20.5,0c-0.5,0-1.1,0-1.4,0.3C-234.9,244.2-236.5,245.9-238.4,247.8z M-207.3,216.4
		c-3.3,3.4-6.6,6.8-9.9,10.1c-3.3,3.4-6.7,6.7-10.2,10.2c5.9,0,11.4,0,17,0c1.8,0,3.1-1.4,3.1-3.2
		C-207.3,227.9-207.3,222.1-207.3,216.4z"/>
	<path class="st0" d="M-285.3,167.9c1.5,0,2.8,1.2,2.8,2.7c0,1.5-1.2,2.7-2.7,2.7c-1.5,0-2.8-1.3-2.8-2.8
		C-288,169.2-286.8,167.9-285.3,167.9z"/>
	<path class="st0" d="M-189.8,141.6c-5-4.1-13.3-4.1-18.8,0c-4.3,3.2-6.5,7.4-6.7,12.7c-0.1,2.4-2,3.8-3.9,2.9
		c-1.2-0.6-1.6-1.5-1.6-2.8c-0.1-10.3,8.2-19.8,18.4-21.1c12.7-1.7,23.4,6.7,24.9,19.4c0.1,0.5,0.1,1.1,0.1,1.6
		c0,1.9-1.1,3.1-2.7,3.1c-1.6,0-2.7-1.2-2.7-3c-0.1-2.8-0.8-5.5-2.2-8c-0.2-0.3-0.4-0.6-0.7-1c-0.3,0.2-0.6,0.4-0.8,0.7
		c-1,1-1.9,2-2.9,2.9c-1.5,1.2-2,2.4-1.5,4.5c1.1,4.2-2.2,8.5-6.7,9.3c-4.3,0.8-8.5-2.1-9.5-6.6c-0.9-4.2,1.9-8.6,6.1-9.5
		c1.5-0.3,3.1,0,4.6,0.2c0.7,0.1,1.1,0.2,1.7-0.4C-193.2,145-191.5,143.4-189.8,141.6z M-199.2,152c-1.5,0-2.7,1.3-2.7,2.9
		c0.1,1.5,1.3,2.6,2.8,2.6c1.5,0,2.7-1.2,2.7-2.7C-196.3,153.3-197.7,152-199.2,152z"/>
</g>
<g>
	<path class="st0" d="M-130.7,264.1c-1.1-0.7-1.4-1.6-1.4-2.9c0-7-0.1-14,0.1-21c0.1-3.5,0.8-6.9,1.3-10.4c0.2-1.6,1.3-2.3,2.6-2
		c1.3,0.3,1.8,1.5,1.4,3.1c-1.5,5.4-1.2,10.9-1.2,16.5c5.2,0,10.2,0,15.5,0c0-2.7,0-5.4,0-8c0-0.5,0-1,0-1.5c0.1-1.2,1-2.1,2.1-2.1
		c1.1,0,1.9,0.9,2,2c0.1,2.2,0,4.4,0,6.5c0,0.3,0,0.5,0,1c1.7-1.2,3.2-2.3,4.7-3.4c-0.6-1.8-1.3-3.5-1.7-5.2c-0.7-2.9,0-5.5,2.5-7.2
		c2.5-1.7,5-1.1,7.4,0.3c0.3,0.2,0.7,0.4,1.1,0.7c0.7-0.7,1.4-1.4,2.2-2c3.7-3.2,8-4.6,12.9-3.7c5.8,1.1,10.1,6.3,10.4,12.4
		c0.5,8.9-5.3,15.7-14.4,16.9c-1,0.1-2,0.2-3,0.3c-0.4,0.1-0.9,0.1-1.3,0.4c-2.1,1.5-4.2,3.1-6.6,4.9c9.4,0,18.4,0,27.7,0
		c0-0.4,0-0.9,0-1.4c0-6.5,0-12.9,0-19.4c0-0.3,0-0.6,0-1c0-1.4,0.9-2.4,2.1-2.3c1.2,0,2,0.9,2,2.3c0,2.6,0,5.3,0,7.9
		c0,0.4,0,0.9,0,1.4c5.2,0,10.3,0,15.4,0c0-3.2,0.1-6.4,0-9.5c-0.4-6.5-2.4-12.5-6.1-18c-0.9-1.4-0.8-2.5,0.3-3.2
		c1.1-0.7,2.2-0.4,3.2,1c4.3,6.4,6.6,13.5,6.8,21.2c0.2,7.5,0,15.1,0.1,22.6c0,1.1-0.5,1.9-1.4,2.5
		C-72.9,264.1-101.8,264.1-130.7,264.1z M-120.9,259.8c0,0.1,0.1,0.2,0.1,0.3c0.3,0,0.6,0,0.9,0c6,0,12.1,0,18.1,0
		c0.5,0,1.1-0.3,1.6-0.6c3.5-2.6,7-5.3,10.5-7.8c0.8-0.6,1.9-0.8,2.9-1c1.5-0.3,3.1-0.3,4.6-0.7c6.3-1.5,9.7-6,9.4-12.1
		c-0.4-6.4-5.7-10.3-11.9-8.6c-2.9,0.8-5.2,2.6-7,5c-1.6,2.1-2.3,2.2-4.3,0.5c-0.6-0.5-1.2-1.1-1.9-1.3c-0.8-0.3-1.9-0.5-2.6-0.2
		c-1.1,0.5-1.2,1.7-0.9,2.7c0.6,1.6,1.2,3.2,2,4.7c1.1,2,1,2.6-0.8,4c-4.5,3.3-9,6.6-13.5,9.9C-116.1,256.3-118.5,258-120.9,259.8z
		 M-62.2,260c5.2,0,10.3,0,15.3,0c0-2.8,0-5.5,0-8.2c-5.2,0-10.2,0-15.3,0C-62.2,254.5-62.2,257.2-62.2,260z M-127.8,251.7
		c0,2.7,0,5.2,0,8c3.7-2.7,7.1-5.2,10.9-8C-120.8,251.7-124.3,251.7-127.8,251.7z"/>
	<path class="st0" d="M-126.6,147.2c0.4,7.6,2.6,14.4,6.3,20.8c1.7-0.1,3.3-0.3,5-0.4c0.1-0.6,0.1-1.2,0.2-1.8
		c0.7-2.5,2.2-4.1,4.8-4.7c6.7-1.4,13.1-3.8,18.9-7.3c4-2.4,7.6-5.3,10.8-8.7c2.2-2.3,4.4-2.2,6.2,0.5c3.7,5.3,7.5,10.5,12.2,15
		c1.6,1.5,2,2.8,2.8,6.9c2.2,0.4,4.4,0.7,6.9,1.1c0.4-1.3,1-3,1.4-4.6c1.8-7,2.1-13.9-0.5-20.8c-0.1-0.3-0.2-0.6-0.4-0.9
		c-4.3-9.6-12.1-11.9-21.5-8.3c-2.2,0.9-2.3,0.9-3.8-1c-1.7-2.2-4.2-3.1-6.8-3.7c-6.9-1.5-13.2-0.4-18.7,4.2
		c-0.3,0.2-0.6,0.5-0.9,0.6c-1,0.6-2.2,0.4-2.8-0.4c-0.7-0.9-0.6-2,0.3-2.8c4-3.3,8.4-5.8,13.7-6.2c5.1-0.4,10.2,0.1,14.8,2.7
		c0.5,0.3,1,0.5,1.4,0.9c1.2,1.6,2.6,1.4,4.4,0.9c11-3.1,20.4,2,24.3,13.1c2.7,7.6,2.3,15.2,0.4,22.8c-0.2,0.7-0.4,1.5-0.6,2.2
		c-1,2.6-2.1,5.2-0.1,7.9c2,7.2-4.3,13.9-11.6,12.6c-0.3-0.1-0.6-0.1-1-0.1c-1.7,5.7-5,10.5-9.5,14.1c2.9,1.5,5.9,2.9,8.6,4.5
		c1.8,1.1,3.5,2.5,5.1,3.8c1.3,1,1.4,2.2,0.6,3.2c-0.8,1-2,1-3.2-0.1c-4.1-3.6-8.8-6.2-14.1-7.8c-2,8.1-6.9,12.7-15.4,12.4
		c-6.4-0.2-10.6-4.3-13.2-12.4c-5.5,1.5-10.3,4.3-14.4,8.1c-2.9,2.7-5.3,5.7-7.2,9.1c-0.3,0.5-0.6,1-1,1.3c-0.8,0.7-1.7,0.7-2.5,0
		c-0.9-0.7-1-1.6-0.5-2.6c0.7-1.3,1.4-2.5,2.2-3.7c4.9-7.2,11.5-12.3,19.6-15.3c0.3-0.1,0.5-0.2,0.9-0.4c-4.7-3.8-7.9-8.5-9.7-14.3
		c-5.3,1-9.5-0.5-12-5.5c-2.1-4.4-1-8.4,2.3-11.9c-2.8-4.7-4.9-9.7-5.9-15c-0.6-3.3-0.8-6.7-1-10.1c-0.1-1.8,1-2.6,2.7-2.3
		c4.9,1,9.2,0.1,12.8-3.6c0.9-0.9,1.8-1.8,2.8-2.6c1-0.9,2.2-0.9,3-0.1c0.8,0.9,0.8,2.1-0.2,3c-1.6,1.5-3.2,2.9-4.9,4.3
		c-2.9,2.4-6.3,3.5-10.1,3.3C-125.3,147.2-125.8,147.2-126.6,147.2z M-77.7,148.1c-0.2,0.2-0.4,0.4-0.6,0.6
		c-5.3,5.3-11.4,9.5-18.3,12.3c-3.9,1.6-8.1,2.7-12.2,3.9c-1.8,0.5-2.2,0.9-2.3,2.8c0,1.3,0,2.5,0,3.8c0.1,3.9-0.2,7.9,0.3,11.8
		c1.6,12.1,12.7,21,24.8,20.2c12.4-0.8,22.2-10.9,22.4-23.2c0.1-4.3,0-8.5,0-12.8c0-1.8-0.7-3.3-1.9-4.6c-1.5-1.5-3-3-4.3-4.6
		C-72.5,155-75.1,151.6-77.7,148.1z M-97.1,206c0.7,4.5,5.4,8,10.4,7.7c4.3-0.2,8.8-3.9,9-7.7C-84.1,208.3-90.6,208.3-97.1,206z
		 M-115.1,171.8c-1.4,0.1-2.7,0-3.8,0.3c-2.9,0.8-4.7,4-4.1,6.9c0.7,3.1,3.6,5.2,6.7,4.7c0.4-0.1,1.1-0.5,1.1-0.8
		C-115.1,179.3-115.1,175.7-115.1,171.8z M-59.5,177.7C-59.5,177.7-59.5,177.7-59.5,177.7c-0.1,1.6,0,3.2-0.1,4.8
		c0,0.8,0.2,1,0.9,1.2c2.2,0.5,4.7-0.6,6-2.6c1.4-2,1.4-4.6,0-6.6c-1.3-1.9-3.8-3-5.9-2.6c-0.7,0.1-1,0.4-1,1.2
		C-59.4,174.5-59.5,176.1-59.5,177.7z"/>
	<path class="st0" d="M-106.8,218.4c0.8,0.1,1.5,0.1,2.1,0.2c1.5,0.2,2.3,1.6,1.6,2.9c-1,1.9-2.2,3.8-3.4,5.6
		c-0.7,1-1.8,1.2-2.8,0.6c-0.9-0.6-1.2-1.7-0.6-2.7c0.2-0.4,0.4-0.7,0.6-1.1c0.2-0.3,0.3-0.6,0.6-1.1c-0.7,0-1.3-0.1-1.8-0.1
		c-1.7-0.2-2.6-1.6-1.7-3.1c1.1-2,2.3-3.9,3.5-5.8c0.7-1,1.8-1.3,2.7-0.7c1,0.6,1.3,1.7,0.7,2.8
		C-105.7,216.5-106.2,217.3-106.8,218.4z"/>
	<path class="st0" d="M-65.5,224.4c-0.5,0-1.1,0-1.7,0c-1.6-0.1-2.5-1.5-1.8-2.9c1.1-2.1,2.4-4.2,3.7-6.2c0.6-1,1.7-1.1,2.7-0.5
		c1,0.6,1.3,1.5,0.8,2.6c-0.4,0.9-1,1.8-1.7,2.9c0.7,0,1.3,0,1.8,0c1.8,0.2,2.6,1.6,1.8,3.2c-1,1.7-2,3.4-3.1,5.1
		c-0.7,1.2-1.9,1.4-2.9,0.8c-0.9-0.6-1.2-1.7-0.6-2.9c0.3-0.6,0.7-1.3,1-1.9C-65.3,224.6-65.4,224.6-65.5,224.4z"/>
	<path class="st0" d="M-87.5,194.1c-2.6,0-5.2,0-7.8,0c-1.8,0-2.5-0.8-2.5-2.6c0.1-5.4,4.9-9.8,10.4-9.8c5.6,0,10.3,4.6,10.4,10
		c0,1.7-0.7,2.4-2.4,2.4C-82,194.1-84.8,194.1-87.5,194.1z M-81.5,190c-1-2.8-3.6-4.4-6.5-4.1c-2.5,0.2-4.8,2.1-5,4.1
		C-89.2,190-85.4,190-81.5,190z"/>
	<path class="st0" d="M-100.8,173.6c-0.8-0.4-1.4-0.7-2-1.1c-0.9-0.6-1.2-1.5-0.7-2.6c0.5-1,1.6-1.5,2.6-0.9
		c1.8,0.9,3.7,1.8,5.4,2.8c1.5,0.9,1.5,2.6,0,3.5c-1.7,1.1-3.5,2.1-5.3,3c-1.1,0.6-2.1,0.2-2.7-0.8c-0.5-0.9-0.3-2.1,0.7-2.7
		C-102.2,174.4-101.6,174.1-100.8,173.6z"/>
	<path class="st0" d="M-73.9,173.6c0.8,0.5,1.4,0.8,1.9,1.1c1,0.7,1.3,1.8,0.8,2.7c-0.6,1-1.7,1.4-2.8,0.8c-1.8-0.9-3.5-1.9-5.2-2.9
		c-1.5-1-1.5-2.7,0-3.6c1.7-1,3.4-1.8,5.2-2.7c1.1-0.6,2.3-0.2,2.8,0.8c0.5,1,0.2,2.1-0.9,2.8C-72.6,173-73.1,173.2-73.9,173.6z"/>
</g>
<g>
	<path class="st0" d="M322.9,26.9c0.2,4.4-1.2,7.6-5.6,8.9c0.8,2.1,0.8,4.1-0.1,6.2c-0.9,2-2.4,3.3-4.5,3.9c0,0.9,0.1,1.8,0.1,2.7
		c-0.1,5.5-3,8.6-8.4,9.5c-3.9,0.6-7.7,0.1-11.4-0.8c-9.4-2.3-18.6-5.2-27.7-8.5c-3.6-1.3-6.5-3.5-9.2-6.1c-1.7-1.6-3.3-3.1-5.1-4.6
		c-1.8-1.5-3.9-2.2-6.3-2.2c-4.1,0.1-8.3,0-12.4,0c-1.6,0-2.5-0.7-2.5-2c0-1.3,0.9-2,2.5-2.1c4.6,0,9.1,0,13.7,0
		c3.1,0,5.7,1.4,8,3.3c2,1.7,4,3.6,5.9,5.4c2,1.9,4.3,3.4,6.9,4.4c9.8,3.5,19.7,6.6,29.8,8.9c2.8,0.6,5.7,0.6,8.5-0.1
		c3.5-0.8,4.1-3.7,3.5-7c-0.1-0.4-0.6-1-1.1-1.2c-3.4-1.6-6.9-3-10.8-2.8c-0.7,0-1.9,0.4-2.1,0.9c-0.4,1.1,0.3,2.1,1.4,2.5
		c1.8,0.6,3.7,1.1,5.6,1.6c0.5,0.1,1.1,0.2,1.6,0.4c1.1,0.4,1.6,1.1,1.4,2.2c-0.1,1-1.1,1.9-2.2,1.7c-2.9-0.7-5.8-1.4-8.6-2.5
		c-2.6-1.1-3.8-3.9-3.4-6.8c0.2-1.5,1-2.4,3.1-3.6c-1.5-1.9-2.5-3.9-1.9-6.4c0.5-2.4,1.9-4.1,4.3-4.9c-0.4-0.7-0.8-1.4-1-2.2
		c-1.5-4.2,1.2-8.1,5.6-8.1c5,0.1,9.9,0.8,14.7,2.4c5,1.6,10,3.3,15.1,4.7c4.7,1.3,9.5,2.5,14.2,3.6c1.6,0.4,3.4,0.3,5.1,0.1
		c1.5-0.1,2.2-1.1,1.4-2.5c-0.6-1.1-1.5-2.2-2.6-2.8c-2.2-1.1-4.5-2-6.9-2.8c-8.8-2.9-17.6-5.8-26.5-8.7c-0.3-0.1-0.6-0.2-1-0.3
		c-1.1-0.5-1.6-1.5-1.3-2.6c0.4-1.1,1.5-1.6,2.7-1.2c3.6,1.2,7.1,2.5,10.7,3.7c7,2.3,14.1,4.5,21,6.9c1.7,0.6,3.3,1.5,4.8,2.5
		c1.5,0.9,2.5,2.3,3,4c1.3,4.5-0.9,7.6-5.6,8c-4.3,0.3-8.5-0.6-12.6-1.7c-4.1-1.1-8.2-2.4-12.3-3.5
		C324.1,27.3,323.6,27.1,322.9,26.9z M302.2,21.7c-1.7,0-3-0.2-3.5,1.1c-0.5,1.4,0.3,2.5,1.3,3.2c1.6,1.1,3.2,2.2,5,2.9
		c2.1,0.9,4.4,1.5,6.6,2.1c1.4,0.4,2.9,0.7,4.3,0.8c1.2,0.1,2.1-0.5,2.6-1.6c0.9-2.1,0.5-3.6-1.4-4.8c-0.6-0.4-1.2-0.7-1.8-0.9
		C310.9,22.7,306.3,22,302.2,21.7z M298.3,31.9c-2-0.1-2.8,0.6-2.8,2.1c0,0.7,0.3,1.5,0.8,2c1.3,1.5,2.9,2.5,4.9,3
		c1.8,0.4,3.5,1,5.2,1.6c1.3,0.4,2.5,1,3.8,1.3c1.9,0.4,3-0.4,3.4-2.2c0.4-1.9,0-2.7-2-3.9C307.4,33.5,302.7,32.5,298.3,31.9z"/>
	<path class="st0" d="M322.9,76.2c3.6-1,7.1-1.9,10.6-2.8c5.5-1.5,11-2.9,16.5-4.4c2-0.5,2.8,0,3.3,2c0.6,2.1,1.1,4.2,1.7,6.2
		c0.6,2.3,0.2,3-2.1,3.7c-8.5,2.3-17,4.5-25.6,6.8c-0.4,0.1-0.8,0.2-1.3,0.4c0.4,1.4,0.7,2.7,1.1,4c1.5,5.8-1.3,11-7,12.8
		c-12.6,3.9-25.2,7.8-37.8,11.7c-1.4,0.4-3,0.8-4.5,0.5c-2.4-0.4-4-2.1-4.6-4.5c-3-11-6-22-8.9-33c-1-3.8,1-7,4.9-7.9
		c13.1-3,26.3-5.9,39.4-8.9c5.9-1.3,11,1.7,12.7,7.6C321.9,72.1,322.4,74.1,322.9,76.2z M311,66.3c-0.2,0-0.6,0.1-1.1,0.2
		c-13.1,2.9-26.3,5.9-39.4,8.8c-2.3,0.5-2.7,1.3-2.1,3.5c2.7,10.1,5.5,20.3,8.2,30.4c1.1,4.1,1.4,4.3,5.5,3
		c12.4-3.8,24.7-7.7,37.1-11.5c3.2-1,5-4.1,4.2-7.4c-2-7.6-4-15.1-6.1-22.6C316.5,68.1,314.1,66.3,311,66.3z M339.9,75.9
		c-5.4,1.4-10.6,2.8-15.9,4.2c0.4,1.3,0.7,2.6,1.1,3.9c5.4-1.4,10.6-2.8,15.9-4.2C340.6,78.4,340.2,77.2,339.9,75.9z M343.8,74.8
		c0.4,1.3,0.7,2.6,1,3.9c2-0.5,4-1.1,6-1.6c-0.4-1.4-0.7-2.6-1.1-3.9C347.8,73.8,345.9,74.3,343.8,74.8z"/>
	<path class="st0" d="M241.5,5.4c3.5,0,6.9,0.2,10.4,0c4.4-0.3,8.5-2.2,12.5-4c4.2-1.9,8.3-3.9,12.5-5.8c3.5-1.5,7.2-2.4,11.1-2.3
		c4.8,0.1,9.5-0.1,14.3,0c4.1,0.1,8.2-0.3,12.2-1.3c1.6-0.4,3.3-0.6,5-0.7c5-0.1,5.9,3.5,5.4,6.8c-0.4,2.3-1.8,3.9-3.5,5.2
		c-3.5,2.7-7.4,3.9-11.8,4.1c-4.1,0.2-8,1.1-11.8,2.5c-0.7,0.3-1.3,0.7-2,1.1c-1,0.7-2.1,0.5-2.8-0.4c-0.7-0.9-0.6-2.1,0.4-2.8
		c1.3-0.9,2.7-1.7,4.1-2.2c3.9-1.4,7.9-2.2,12.1-2.4c3.4-0.1,6.7-1.1,9.4-3.3c1.1-0.9,2-1.9,2-3.5c0-0.9-0.4-1.3-1.2-1.3
		c-1.5,0.1-3.1,0.2-4.6,0.6c-4.1,1.1-8.2,1.5-12.4,1.4c-4.2-0.1-8.5,0.2-12.7-0.1c-5.2-0.3-10,1.1-14.7,3.2c-5,2.3-9.9,4.6-15,6.8
		c-3.8,1.6-7.7,2.3-11.9,2.2c-5.3-0.1-10.6,0-15.8,0c-0.3,0-0.7,0-1,0c-1.2-0.1-2-0.9-2.1-2c0-1.2,0.8-2,2.1-2c3.3,0,6.5,0,9.8,0
		C241.5,5.4,241.5,5.4,241.5,5.4z"/>
	<path class="st0" d="M239.9,52.1c2.5,0,5,0,7.5,0c1.9,0,2.7,0.9,2.5,2.7c-1,9.7-2,19.3-2.9,29c-0.4,3.6-0.7,7.1-1.1,10.7
		c-0.2,1.6-0.7,2.2-2.3,2.3c-2.7,0.1-5.3,0.1-8,0c-1.2,0-1.8-0.8-1.9-2c-0.6-5.9-1.2-11.9-1.8-17.8c-0.7-7.2-1.4-14.4-2.2-21.6
		c-0.3-2.6,0.3-3.3,2.9-3.3C235,52.1,237.4,52.1,239.9,52.1z M233.9,56.2c1.2,12.2,2.4,24.3,3.6,36.4c1.5,0,2.9,0,4.5,0
		c1.2-12.2,2.4-24.3,3.6-36.4C241.6,56.2,237.8,56.2,233.9,56.2z"/>
	<path class="st0" d="M341.1,60.3c-6.1,0-9.5-4.6-7.6-10.4c0.6-2,1.9-3.8,2.8-5.7c1-2.2,2-4.4,2.9-6.7c0.4-0.9,0.9-1.5,1.9-1.5
		c0.9,0,1.7,0.4,1.9,1.3c0.7,3.5,2.8,6.3,4.4,9.4c0.8,1.6,1.6,3.3,1.8,5.1C349.7,57.1,346.7,60.3,341.1,60.3z M341.1,43.6
		c-1.4,2.7-2.7,5-3.7,7.4c-0.6,1.5-0.5,3.1,0.7,4.4c1,1,4.5,1.1,5.9,0.3c1-0.6,1.6-2.6,1.1-4.3c-0.1-0.6-0.3-1.1-0.6-1.6
		C343.5,47.8,342.4,45.9,341.1,43.6z"/>
	<path class="st0" d="M247.8,108.9c0,4.5-3.6,8.2-8.1,8.2c-4.5,0-8.1-3.7-8.1-8.1c0-4.4,3.6-8.1,8-8.1
		C244.1,100.8,247.8,104.5,247.8,108.9z M243.8,108.9c0-2.2-1.8-4-4-4c-2.2,0-4,1.8-4.1,4c0,2.3,1.8,4.1,4.1,4.1
		C242,113,243.8,111.1,243.8,108.9z"/>
	<path class="st0" d="M271.2,31.8c-0.1,0-0.3,0-0.4,0c-1.7,0-2.7-0.7-2.7-2c0-1.3,0.9-2,2.6-2.1c7.6-0.3,14-3,18.2-9.7
		c0.6-1,1.1-2.1,1.6-3.1c0.6-1.2,1.6-1.6,2.7-1.2c1.1,0.5,1.5,1.6,1,2.9c-3.5,8.2-9.8,13-18.5,14.7
		C274.3,31.6,272.7,31.7,271.2,31.8C271.2,31.9,271.2,31.9,271.2,31.8z"/>
	<path class="st0" d="M283.9,107.5c-2.3,0-3.7-1.2-4.3-3.4c-1.8-6.6-3.5-13.1-5.3-19.7c-0.1-0.4-0.2-0.8-0.3-1.2
		c-0.7-2.8,0.6-4.9,3.4-5.5c6.9-1.5,13.8-3.1,20.8-4.6c0.9-0.2,1.9-0.4,2.8-0.6c2.1-0.4,4.2,0.7,4.8,2.8c1.9,6.7,3.7,13.4,5.4,20.2
		c0.5,2.1-0.8,4-3.1,4.7c-6.2,1.9-12.4,3.9-18.6,5.8c-1.4,0.4-2.8,0.9-4.2,1.3C284.7,107.4,284.1,107.5,283.9,107.5z M283.6,103.4
		c7.9-2.4,15.7-4.8,23.6-7.3c-1.8-6.6-3.5-13.2-5.3-19.7c-8.1,1.8-16.1,3.6-24.1,5.4C279.7,89.1,281.6,96.2,283.6,103.4z"/>
	<path class="st0" d="M315.5,80.2c0.1,1.6-0.5,2.4-1.6,2.6c-1,0.2-1.9-0.3-2.2-1.3c-0.5-1.4-0.9-2.9-1.2-4.4c-0.2-1,0.3-1.8,1.3-2.1
		c1-0.4,2-0.1,2.4,0.9C314.8,77.4,315.2,79,315.5,80.2z"/>
	<path class="st0" d="M316.2,86.6c0.3,0.2,1,0.6,1.3,1.2c0.6,1.4,0.9,3,1.2,4.5c0.2,1-0.4,1.8-1.4,2.1c-1,0.3-2,0.1-2.3-0.9
		c-0.6-1.6-1-3.2-1.3-4.9C313.5,87.5,314.5,86.6,316.2,86.6z"/>
</g>
<g>
	<path class="st0" d="M520.4,186.7c0.3,0.1,0.6,0.3,0.9,0.4c10.3,2.1,16.1,9.1,16.4,19.6c0.3,9.2-2.3,17.2-9.4,23.5
		c-0.2,0.1-0.2,0.4-0.4,0.7c4,0.8,8.1,1.2,11.8,2.5c4.1,1.4,8.2,3.1,11.7,5.5c4.7,3.1,6.9,8,6.9,13.8c0,10.9,0,21.8,0,32.6
		c0,3.2-1.4,4.9-3.9,4.9c-2.6,0-4-1.7-4-4.9c0-10.5-0.1-20.9,0.1-31.4c0.1-5.2-2.2-8.9-6.8-10.7c-4.3-1.7-8.9-3-13.5-3.8
		c-11.8-2.1-23.6-1.5-35.2,1.8c-2,0.6-4,1.4-5.9,2.4c-4,2.1-6,5.3-5.9,10c0.1,10.6,0.1,21.3,0,31.9c0,2.8-1.2,4.4-3.4,4.7
		c-2.7,0.3-4.5-1.5-4.5-4.6c0-8.4,0-16.8,0-25.2c0-2.2,0.1-4.5,0-6.7c-0.3-7.9,3.4-13.3,10.1-17.1c5.7-3.2,12-4.3,18.4-5.4
		c0.6-0.1,1.3-0.2,2.2-0.4c-0.5-0.5-0.7-0.9-1.1-1.2c-8.5-8.3-10.7-18.3-7.7-29.5c1.9-7.1,7.1-11.3,14.3-12.9
		c0.6-0.1,1.2-0.4,1.9-0.5C515.8,186.7,518.1,186.7,520.4,186.7z M504,208.2c0,4.8,1.3,9.3,3.8,12.8c5.1,7.2,13.4,7.3,18.3-0.1
		c3.7-5.5,4.6-11.6,3-18c-0.9-3.9-3.5-6.5-7.3-7.7C511.9,192.1,504.1,197.8,504,208.2z"/>
	<path class="st0" d="M643.6,437.5c-1.3,1.5-2.7,3-5,2.3c-2.1-0.6-3-2.2-2.9-4.3c0-5.5-0.2-11,0.1-16.6c0.2-4.1-1.7-6.8-5.3-8
		c-4-1.4-8.2-2.4-12.4-3c-7.7-1.2-15.5-0.5-23,1.4c-1.7,0.4-3.5,1.1-5.1,1.9c-3.2,1.5-4.8,4-4.7,7.7c0.2,5.4,0.1,10.9,0,16.3
		c0,3-1.5,4.7-3.8,4.8c-2.4,0-4-1.8-4-4.9c0-5.6,0-11.2,0-16.8c-0.1-6,2.5-10.7,7.8-13.3c4.7-2.3,9.8-3.6,14.8-5.4
		c0,0-0.4-0.5-0.7-1c-5.3-6.3-6.8-13.6-4.9-21.5c1.9-8,8.9-12.4,18.2-11.7c7.8,0.5,13.8,6.1,14.8,13.8c1,7.6-0.7,14.4-6,20.1
		c-0.2,0.2-0.3,0.4-0.4,0.6c0,0.1,0,0.2,0,0.4c9.5,1.8,19.2,3.3,22.7,14.5C643.6,422.3,643.6,429.9,643.6,437.5z M610.4,373.1
		c-4.2,0-7.3,1.6-8.3,4.9c-1.7,5.6-0.9,10.9,3.1,15.4c3.1,3.5,7.4,3.4,10.5-0.1c3.1-3.4,4.2-7.6,3.7-12.1
		C619,375.7,616,373.1,610.4,373.1z"/>
	<path class="st0" d="M520.9,323.1c1.3,0,2.3,0,3.3,0c28.1,0,56.2,0,84.3,0c4.9,0,5.9,1,5.9,5.9c0,7,0,14,0,21c0,3.2-1.5,4.9-4,4.8
		c-2.4,0-3.9-1.8-3.9-4.8c0-6.3,0-12.5,0-18.9c-28.6,0-57,0-85.6,0c0,5.4,0,10.7,0,16c0,1.2,0,2.3,0,3.5c-0.1,2.5-1.7,4.2-3.9,4.2
		c-2.3,0-3.9-1.6-3.9-4.2c-0.1-5.6,0-11.2,0-16.8c0-0.9,0-1.8,0-2.8c-28.6,0-56.9,0-85.6,0c0,0.9,0,1.8,0,2.7c0,5.5,0,11,0,16.6
		c0,2.9-1.7,4.6-4.1,4.5c-2.3-0.1-3.8-1.8-3.8-4.6c0-7.3,0-14.7,0-22c0-3.9,1.2-5.2,5.2-5.2c16.2,0,32.5,0,48.7,0
		c12.2,0,24.4,0,36.6,0c0.9,0,1.8,0,3,0c0-1.9,0-3.6,0-5.3c0-4.3,0-8.6,0-12.9c0-2.7,1.6-4.5,3.9-4.5c2.3,0,3.9,1.7,4,4.4
		C520.9,310.9,520.9,316.8,520.9,323.1z"/>
	<path class="st0" d="M433.5,399.9c4,1,7.7,1.7,11.3,3c6.7,2.4,12.2,7,11.8,16.8c-0.2,5.3,0,10.5-0.1,15.8c0,2.2-1,4.1-3.2,4.3
		c-1.3,0.1-2.9-1-4.1-1.9c-0.6-0.5-0.5-1.8-0.6-2.8c0-5.4-0.2-10.7,0-16.1c0.1-4-1.6-6.8-5.2-8.1c-4-1.4-8.2-2.4-12.4-3
		c-7.7-1.2-15.4-0.6-23,1.4c-1.6,0.4-3.2,0.9-4.7,1.6c-3.4,1.6-5.4,4-5.2,8.1c0.2,5.3,0.1,10.7,0.1,16.1c0,3.1-1.5,4.9-4,4.9
		c-2.5,0-3.9-1.8-3.9-5c0-5.6,0.1-11.2,0-16.8c-0.1-5.9,2.4-10.6,7.6-13.1c4.3-2.1,9.1-3.1,13.7-4.6c0.4-0.1,0.9-0.2,1.8-0.3
		c-3.4-3.6-5.8-7.4-6.4-12c-0.4-3.3-0.7-6.8-0.1-10c1.6-8.8,8.8-13.6,18.5-12.8c8.3,0.6,14.3,6.8,14.9,15.4
		C440.8,388,438.8,394.5,433.5,399.9z M432.5,382.7c0-0.6,0-1.6-0.2-2.6c-0.6-4-3.4-6.6-7.5-6.9c-5.1-0.5-8.6,1.2-9.8,5.1
		c-1.7,5.6-0.8,10.8,3.1,15.2c3.1,3.5,7.3,3.4,10.5,0C431.4,390.5,432.4,387,432.5,382.7z"/>
	<path class="st0" d="M507,400.1c-3.5-3.6-5.9-7.6-6.5-12.2c-0.4-3.1-0.6-6.5-0.1-9.6c1.7-9.1,9.3-14.1,19.1-13
		c9,1,14.7,8.1,14.5,17.8c-0.2,6.4-2.3,12.1-7.1,16.9c3,0.7,5.8,0.9,8.4,1.9c3.3,1.2,6.6,2.7,9.4,4.6c3.6,2.4,5.3,6.3,5.3,10.7
		c0.1,6,0,12,0,18c0,2.9-1.6,4.7-4,4.7c-2.4,0-3.9-1.8-3.9-4.7c0-5.4-0.2-10.9,0-16.3c0.2-4.1-1.7-6.8-5.2-8c-4-1.4-8.2-2.4-12.4-3
		c-7.7-1.2-15.4-0.5-23,1.4c-1.6,0.4-3.2,0.9-4.7,1.6c-3.5,1.6-5.3,4.1-5.1,8.1c0.2,5.3,0.1,10.7,0,16.1c0,3.1-1.6,4.9-4,4.8
		c-2.4-0.1-3.9-1.8-3.9-4.8c0-5.6,0.1-11.2,0-16.8c-0.1-6,2.4-10.8,7.7-13.4c4.3-2.1,9.1-3.1,13.7-4.6
		C505.7,400.3,506.1,400.2,507,400.1z M526.1,382.5c0-0.5-0.1-1.7-0.3-2.8c-0.7-3.9-3.6-6.3-7.8-6.6c-5.1-0.3-8.5,1.4-9.6,5.5
		c-1.4,5.2-0.6,10.1,2.8,14.4c3.3,4,8,4,11.4-0.1C525,390.2,526,386.8,526.1,382.5z"/>
	<path class="st0" d="M500.4,273.2c0,4,0,8.1,0,12.1c0,3.1-1.5,4.9-4.1,4.8c-2.4-0.1-3.8-1.7-3.8-4.8c0-8.2,0-16.3,0-24.5
		c0-3,1.4-4.8,3.8-4.8c2.4-0.1,4.1,1.8,4.1,4.8C500.5,265,500.4,269.1,500.4,273.2z"/>
	<path class="st0" d="M541.3,273.2c0,4.1,0,8.2,0,12.4c0,2.9-1.4,4.5-3.8,4.5c-2.5,0.1-4.1-1.6-4.1-4.5c-0.1-8.3-0.1-16.6,0-25
		c0-2.9,1.7-4.7,4.1-4.6c2.3,0.1,3.8,1.8,3.8,4.6C541.4,264.8,541.3,269,541.3,273.2z"/>
</g>
</svg>
