<svg xmlns="http://www.w3.org/2000/svg" viewBox="0 0 485.809 495.73">
  <defs>
    <style>
      .cls-1 {
        fill: #d66ea6;
      }

      .cls-2 {
        fill: #2e3168;
      }
    </style>
  </defs>
  <g id="mission" transform="translate(144.907 -2.14)">
    <g id="Group_2" data-name="Group 2" transform="translate(-152)">
      <path id="Path_8" data-name="Path 8" class="cls-1" d="M138.08,118.26a15.985,15.985,0,0,0,14.77,9.87H260.18v52.45L184.5,282.38l19.31,27.65,72.05-96.91,59.04,83.65,22.26-23.92-64.98-92.07V112.23c0-.03.01-.07.01-.1V38.41c0-.03-.01-.07-.01-.1V18.13a15.99,15.99,0,1,0-31.98,0v4.29H152.85a16,16,0,0,0-11.31,27.3l25.57,25.54-25.57,25.56A16.03,16.03,0,0,0,138.08,118.26Zm62.95-54.3-9.55-9.55h68.71V96.15H191.47l9.57-9.57a15.994,15.994,0,0,0-.01-22.62Z"/>
      <path id="Path_9" data-name="Path 9" class="cls-2" d="M490.11,361.81l-71.7-104.79a15.989,15.989,0,0,0-24.91-1.86L253.04,406.01,138.26,241.51a16,16,0,0,0-25.56-.9L10.65,366.89A15.992,15.992,0,1,0,35.52,387L124.2,277.27,273.36,491.02a15.991,15.991,0,1,0,26.23-18.3l-27.83-39.88L403.28,291.59l60.42,88.29a16,16,0,0,0,26.41-18.07Z"/>
    </g>
  </g>
</svg>
