<?xml version="1.0" encoding="utf-8"?>
<!-- Generator: Adobe Illustrator 24.3.0, SVG Export Plug-In . SVG Version: 6.00 Build 0)  -->
<svg version="1.1" id="Layer_1" xmlns="http://www.w3.org/2000/svg" xmlns:xlink="http://www.w3.org/1999/xlink" x="0px" y="0px"
	 viewBox="0 0 150 150" style="enable-background:new 0 0 150 150;" xml:space="preserve">
<style type="text/css">
	.st0{fill:#005BAB;}
</style>
<g>
	<path class="st0" d="M61.5,62.6c0.5-0.6,1.4-0.8,2-0.3c0.6,0.5,0.8,1.4,0.3,2c-1.4,1.8-2,3.5-2,5.2c0,1.7,0.5,3.5,1.5,5.2
		c0.4,0.7,0.1,1.6-0.5,1.9c-0.7,0.4-1.6,0.1-1.9-0.5c-1.2-2.2-1.9-4.4-1.9-6.7C58.9,67.2,59.7,64.9,61.5,62.6L61.5,62.6L61.5,62.6z
		 M9.6,60.8l4.8,6L0.3,71.4l22.4,1l-4.1-5.8l14.4-4.1L9.6,60.8L9.6,60.8L9.6,60.8z M26,33.4l1.2,8l-15.4-3.8l19.7,13.6l-0.4-7.6
		l15.3,4.3L26,33.4L26,33.4L26,33.4z M19.7,83.6l7.8,2.9l-11,12l21.9-11l-7-3.4L43,72.7L19.7,83.6L19.7,83.6L19.7,83.6z M116.5,10.2
		c1.1-0.4,2.3,0.3,2.7,1.4c0.4,1.1-0.3,2.3-1.4,2.7l-1.3,0.4c-19.5,6.3-37.3,12.1-48.2,30c-0.6,1-1.2,1.8-1.9,2.6
		c-0.7,0.8-1.5,1.5-2.3,2.2c-1.6,1.2-3,2-4.4,2.8c-2.2,1.2-4.3,2.4-6,5.2c-1.3,2-1.9,4.4-2,7.1c-0.1,2.9,0.5,6.1,1.7,9.7
		c2.2,6.6,9,15.7,17.3,25.1c12.5,14.2,28.4,28.8,37.5,36.6c0.9,0.8,1,2.1,0.2,3s-2.1,1-3,0.2c-9.2-7.9-25.2-22.7-37.9-37
		C58.9,92.6,51.8,83,49.3,75.7c-1.4-4.1-2-7.8-2-11.2c0.1-3.5,0.9-6.6,2.6-9.3c2.4-3.8,4.9-5.2,7.6-6.7c1.3-0.7,2.6-1.4,3.8-2.4
		c0.6-0.5,1.2-1,1.8-1.7c0.6-0.6,1.1-1.3,1.5-2c11.7-19.2,30.2-25.3,50.5-31.9L116.5,10.2L116.5,10.2L116.5,10.2z M146.3,53.5
		c1-0.7,2.3-0.4,3,0.6c0.7,1,0.4,2.3-0.6,3c-4.7,3.2-9.4,5.9-14.2,8.1c-4.8,2.2-9.7,4-14.6,5.5c-7.8,2.3-12.5,2.1-19.1,1.9
		c-1.1,0-2.3-0.1-3.4-0.1c-0.7,0-1.4,0-2,0.1c-0.5,0.1-0.9,0.2-1.2,0.3c0,0-0.1,0-0.1,0.1C94.1,73,94,73.1,94,73.1
		c0,0.2,0.1,0.4,0.2,0.7c0,0.1,0.1,0.1,0.2,0.3c0.5,0.9,1.9,1.9,3.5,3.1c2.1,1.6,4.5,3.4,6.2,5.8c3,4.3,7.8,14.3,12.7,24.4
		c4.7,9.8,9.4,19.7,12.4,24.2c0.7,1,0.4,2.3-0.6,3c-1,0.7-2.3,0.4-3-0.6c-3.2-4.8-8-14.8-12.7-24.7c-4.8-10-9.5-19.9-12.3-23.8
		c-1.3-1.9-3.4-3.5-5.3-4.8c-1.9-1.4-3.6-2.7-4.5-4.3c-0.1-0.2-0.2-0.3-0.3-0.6c-0.6-1.1-0.8-2.2-0.6-3.3c0.2-1.3,0.9-2.4,2.2-3.2
		c0.1-0.1,0.2-0.1,0.4-0.2c0.7-0.3,1.5-0.6,2.5-0.8c0.8-0.1,1.8-0.2,2.8-0.2c1.3,0,2.4,0.1,3.4,0.1c6.2,0.2,10.5,0.4,17.7-1.7
		c4.7-1.4,9.4-3.1,14-5.3C137.4,59.1,141.9,56.6,146.3,53.5L146.3,53.5L146.3,53.5z M79.6,53.7c-0.6,1-1.9,1.3-3,0.7
		c-1-0.6-1.3-1.9-0.7-3c4.7-7.6,10.9-13.8,18.7-18.4c7.7-4.6,17-7.7,27.8-9.3c1.2-0.2,2.3,0.6,2.4,1.8c0.2,1.2-0.6,2.3-1.8,2.4
		c-10.2,1.5-19,4.5-26.2,8.8C89.6,41.1,83.9,46.7,79.6,53.7L79.6,53.7L79.6,53.7z"/>
</g>
</svg>
