<svg width="129" height="129" viewBox="0 0 129 129" fill="none" xmlns="http://www.w3.org/2000/svg">
<g clip-path="url(#clip0_216_46)">
<path d="M82.7465 105.244C76.8734 105.444 70.6625 105.544 64.2846 105.544C45.8481 105.544 29.5356 104.717 20.6469 103.331C11.1499 101.851 7.37646 97.426 6.22509 86.4241C4.9663 74.387 4.9663 55.5286 6.22509 43.4915C7.37646 32.4895 11.1499 28.0657 20.6469 26.5853C22.1889 26.344 24.0005 26.1155 26.0327 25.9046C27.4067 25.762 28.4048 24.5335 28.2622 23.1595C28.1196 21.7864 26.8891 20.7874 25.5171 20.931C23.3999 21.1507 21.5024 21.3909 19.8764 21.6439C13.9526 22.5677 9.80028 24.5569 6.81005 27.9036C3.73291 31.345 1.96728 36.1331 1.25146 42.972C-0.0375973 55.301 -0.0375973 74.6155 1.25146 86.9446C1.96728 93.7834 3.73291 98.5705 6.81005 102.013C9.80028 105.36 13.9526 107.349 19.8764 108.272C29.0044 109.696 45.6059 110.545 64.2846 110.545C70.7182 110.545 76.9867 110.444 82.9154 110.242C84.2953 110.196 85.3764 109.039 85.3295 107.659C85.2826 106.279 84.1322 105.198 82.7465 105.244Z" fill="white"/>
<path d="M127.318 42.972C126.602 36.1341 124.836 31.346 121.76 27.9036C118.769 24.5569 114.617 22.5677 108.693 21.6448C99.5639 20.221 82.9624 19.3714 64.2846 19.3714C57.8511 19.3714 51.5835 19.4739 45.6548 19.6741C44.2739 19.721 43.1929 20.8773 43.2397 22.2571C43.2866 23.638 44.438 24.721 45.8237 24.6722C51.6958 24.473 57.9077 24.3724 64.2856 24.3724C82.7202 24.3724 99.0336 25.1995 107.923 26.5853C117.419 28.0667 121.194 32.4905 122.344 43.4925C123.604 55.5296 123.604 74.3879 122.344 86.425C121.194 97.427 117.419 101.851 107.923 103.332C106.381 103.572 104.569 103.801 102.537 104.012C101.164 104.154 100.165 105.383 100.308 106.757C100.442 108.043 101.527 108.999 102.791 108.999C102.878 108.999 102.965 108.994 103.053 108.986C105.169 108.766 107.067 108.527 108.693 108.273C114.617 107.349 118.769 105.361 121.76 102.014C124.836 98.5715 126.602 93.7834 127.318 86.9455C128.607 74.6164 128.607 55.301 127.318 42.972Z" fill="white"/>
<path d="M84.8901 62.8313L53.9468 43.7132C53.1753 43.2366 52.2065 43.2151 51.4145 43.6565C50.6235 44.0979 50.1323 44.9339 50.1323 45.8401V84.0754C50.1323 84.9817 50.6235 85.8176 51.4145 86.259C51.7944 86.4699 52.2134 86.5754 52.6323 86.5754C53.0894 86.5754 53.5444 86.4504 53.9468 86.2024L84.8901 67.0852C85.6274 66.6292 86.0766 65.8245 86.0766 64.9583C86.0766 64.0911 85.6274 63.2864 84.8901 62.8313ZM55.1333 79.592V50.3245L78.8188 64.9583L55.1333 79.592Z" fill="white"/>
<path d="M35.7456 25.1302C35.8013 25.1302 35.8579 25.1282 35.9146 25.1253C37.2925 25.0335 38.3345 23.8421 38.2427 22.4642C38.1509 21.0862 36.9575 20.0423 35.5816 20.1351H35.5796C34.2017 20.2269 33.1607 21.4183 33.2525 22.7962C33.3403 24.1175 34.44 25.1302 35.7456 25.1302Z" fill="white"/>
<path d="M92.6556 104.792C91.2777 104.883 90.2347 106.074 90.3265 107.452C90.4144 108.774 91.514 109.786 92.8187 109.786C92.8754 109.786 92.931 109.784 92.9877 109.781H92.9896C94.3676 109.69 95.4086 108.498 95.3168 107.12C95.225 105.742 94.0355 104.701 92.6556 104.792Z" fill="white"/>
</g>
<defs>
<clipPath id="clip0_216_46">
<rect width="128" height="128" fill="white" transform="translate(0.284668 0.871346)"/>
</clipPath>
</defs>
</svg>
