<?xml version="1.0" encoding="utf-8"?>
<!-- Generator: Adobe Illustrator 24.3.0, SVG Export Plug-In . SVG Version: 6.00 Build 0)  -->
<svg version="1.1" id="Layer_1" xmlns="http://www.w3.org/2000/svg" xmlns:xlink="http://www.w3.org/1999/xlink" x="0px" y="0px"
	 viewBox="0 0 150 150" style="enable-background:new 0 0 150 150;" xml:space="preserve">
<style type="text/css">
	.st0{fill:#5F6368;}
	.st1{fill:#005BAB;}
</style>
<path class="st0" d="M2053.7-657.2c-2.1,0-3.6,0-5.1,0C2049.8-661.3,2051.5-660.2,2053.7-657.2z"/>
<g>
	<path class="st1" d="M75,1c1,0.3,1.9,0.5,2.9,0.9C82.7,4,85.6,7.7,86,13.1c0.2,2,0.1,3.9,0.1,5.9c-0.1,3.9-1.8,7-4.9,9.7
		c3,0.6,5.7,1.2,8.4,1.8c1.2,0.3,2.4,0.5,3.4,1c2.6,1.2,3.9,3.2,3.9,6.2c0,14.7-0.1,29.4,0.1,44.1c0.1,4.7-3,8.8-8.7,7.7
		c0,19.8,0,39.5,0,59.4c-10.2,0-20.2,0-30.4,0c0-19.8,0-39.5,0-59.3c-1.3,0-2.4,0.2-3.5,0c-3-0.5-5.2-3.1-5.2-6.1
		c0-11.2,0-22.4,0-33.7c0-0.1,0-0.2,0.1-0.4c1.3,0,2.7,0,4.2,0c0,8.3,0,16.6,0,25c1.5,0,2.8,0,4.3,0c0-9.7,0-19.5,0-29.3
		c1.5,0,2.9,0,4.4,0c0,9.7,0,19.5,0,29.3c7.3,0,14.4,0,21.7,0c0-9.8,0-19.5,0-29.3c1.5,0,2.8,0,4.3,0c0,9.7,0,19.5,0,29.3
		c1.5,0,2.9,0,4.3,0c0-0.4,0.1-0.9,0.1-1.3c0-11.7,0-23.3,0-35c0-1.8-0.5-2.6-2.3-3c-5.6-1.3-11.3-2.6-16.9-3.6
		c-1.4-0.3-3,0.4-4.5,0.7c-4.1,0.8-8.1,1.7-12.1,2.6c-2.7,0.6-3.2,1.2-3.2,3.9c0,1.9,0,3.9,0,5.8c0,0.1-0.1,0.2-0.1,0.3
		c-1.3,0-2.6,0-3.9,0c0-3.1-0.3-6.2,0.1-9.3c0.4-2.9,2.9-4.2,5.6-4.8c2.8-0.6,5.6-1.2,8.3-1.8c0.5-0.1,0.9-0.2,1.7-0.7
		c-0.4-0.2-0.8-0.4-1.1-0.7c-2.3-2.3-3.8-5.1-3.9-8.4c-0.1-2.6-0.3-5.3,0.2-7.8c1-5.2,4.3-8.6,9.5-10c0.5-0.1,0.9-0.3,1.3-0.4
		C72.5,1,73.8,1,75,1z M62.4,78.9c0,19.1,0,38,0,57c2.9,0,5.7,0,8.6,0c0-15.8,0-31.6,0-47.3c1.5,0,2.8,0,4.3,0c0,15.8,0,31.5,0,47.3
		c3,0,5.8,0,8.6,0c0-19,0-38,0-57C76.7,78.9,69.6,78.9,62.4,78.9z M81.7,16.3c-5.8,0-11.5,0-17.2,0c-0.4,4.1,0.7,7.4,4.3,9.5
		c3.2,1.8,6.5,1.6,9.5-0.5C81.5,23.1,82.1,19.9,81.7,16.3z M81.3,11.8c-0.6-3.7-4.4-6.5-8.5-6.4C69,5.5,65.3,8.4,65,11.8
		C70.4,11.8,75.8,11.8,81.3,11.8z M70.9,140.4c-2.9,0-5.7,0-8.5,0c0,1.4,0,2.8,0,4.1c2.9,0,5.7,0,8.5,0
		C70.9,143.1,70.9,141.8,70.9,140.4z M83.9,144.6c0-1.5,0-2.8,0-4.2c-2.9,0-5.7,0-8.5,0c0,1.5,0,2.8,0,4.2
		C78.3,144.6,81,144.6,83.9,144.6z M53.6,78.9c0,1.5-0.1,3,0,4.4c0.1,1.2,1,2.1,2.2,2.1c1.2-0.1,2-0.7,2.1-2c0.1-1.5,0-2.9,0-4.5
		C56.5,78.9,55.2,78.9,53.6,78.9z M92.6,78.9c-1.5,0-2.8,0-4.3,0c0,1.6-0.1,3,0,4.5c0.1,1.2,0.9,1.9,2.1,1.9c1.2,0,2-0.7,2.1-1.9
		C92.7,81.9,92.6,80.4,92.6,78.9z"/>
	<path class="st1" d="M149,149c-1.4,0-2.8,0-4.3,0c0-0.7,0-1.2,0-1.8c0-18.6,0-37.2,0-55.8c0-2.7,0-4-3.6-4.1
		c-0.2,0-0.5-0.1-0.8-0.2c0,9.7,0,19.4,0,29.2c-1.5,0-2.8,0-4.3,0c0-11.8,0-23.5,0-35.2c-7.2,0-14.4,0-21.6,0c0,18.2,0,36.4,0,54.8
		c2.8,0,5.6,0,8.6,0c0-12.8,0-25.7,0-38.6c1.5,0,2.9,0,4.3,0c0,12.9,0,25.7,0,38.6c2.9,0,5.8,0,8.7,0c0-2.1,0-4.1,0-6.3
		c1.5,0,2.8,0,4.3,0c0,6.4,0,12.8,0,19.3c-10.1,0-20.1,0-30.2,0c0-17.7,0-35.3,0-52.9c-1.3,0-2.5,0.2-3.6,0c-2.9-0.6-5-3.2-5-6.2
		c0-14.6,0-29.3,0-43.9c0-2.9,1.9-5.2,5-6.1c2.5-0.7,5.2-1.2,7.7-1.7c0.3-0.1,0.6-0.2,1.1-0.3c-0.3-0.4-0.5-0.8-0.7-1.1
		c-1.3-1.9-2.2-4.1-2.2-6.5c0-2.9-0.2-5.8,0.4-8.6c1.3-6.2,7.3-10.1,13.9-9.6c6,0.5,11,5.7,11.5,11.8c0.1,1.9,0.1,3.8,0.1,5.6
		c0,3-1.1,5.7-3.1,8.3c2.3,0.5,4.5,0.9,6.7,1.5c1.3,0.3,2.7,0.8,3.9,1.3c1.8,0.8,2.7,2.4,3.3,4.1c0,12.5,0,25,0,37.6
		c-0.5,1.1-1,2.1-1.5,3.1c0.5,1,1,2,1.5,2.9C149,108.5,149,128.8,149,149z M114.3,53.7c0,7.7,0,15.3,0,22.9c7.3,0,14.4,0,21.7,0
		c0-7.7,0-15.3,0-22.9c1.5,0,2.9,0,4.4,0c0,6.3,0,12.4,0,18.6c1.5,0,2.8,0,4.3,0c0-0.6,0-1.1,0-1.7c0-7.7,0-15.4,0-23.1
		c0-2.8-0.4-3.3-3.1-3.9c-3.5-0.8-7.1-1.5-10.6-2.2c-0.4-0.1-1,0-1.4,0.1c-3,1-5.9,1-8.9,0c-0.3-0.1-0.8-0.2-1.1-0.1
		c-3.9,0.8-7.7,1.6-11.6,2.5c-1.9,0.4-2.3,1.1-2.3,3.1c0,10.9,0,21.8,0,32.6c0,0.5,0,0.9,0,1.5c1.5,0,2.9,0,4.4,0
		c0-9.1,0-18.2,0-27.3C111.5,53.7,112.8,53.7,114.3,53.7z M116.3,26.9c0.1,0,0.1,0,0.2,0c0,1-0.1,2,0,3c0.4,4.5,4.1,7.9,8.6,7.8
		c4.5,0,8.2-3.4,8.5-7.8c0.2-2,0.1-4,0-6.1c-0.3-4.1-3.5-7.3-7.5-7.7c-4.3-0.4-8.1,2-9.2,6C116.5,23.8,116.5,25.4,116.3,26.9z
		 M122.9,144.6c0-1.5,0-2.8,0-4.2c-2.9,0-5.7,0-8.5,0c0,1.5,0,2.8,0,4.2C117.3,144.6,120.1,144.6,122.9,144.6z M135.9,144.6
		c0-1.5,0-2.9,0-4.2c-2.9,0-5.7,0-8.5,0c0,1.4,0,2.8,0,4.2C130.3,144.6,133,144.6,135.9,144.6z M144.7,76.8c-1.5,0-2.9,0-4.3,0
		c0,1.5-0.1,2.9,0,4.3c0.1,1.2,1,2.1,2.1,2.1c1.2,0,2.1-0.8,2.1-2.1C144.7,79.7,144.7,78.3,144.7,76.8z M105.7,85.4
		c0,1.6-0.1,3.1,0,4.5c0.1,1.1,0.9,1.8,2,1.9c1.2,0,2-0.6,2.2-1.7c0.2-1.5,0-3.1,0-4.7C108.5,85.4,107.2,85.4,105.7,85.4z"/>
	<path class="st1" d="M30.6,76.6c2.7,0.7,5.2,1.3,7.7,1.9c4.4,1.1,6.1,3.3,6.1,7.8c0,8.1,0,16.2,0,24.3c0,5.2-3.4,8-8.6,7
		c0,10.4,0,20.8,0,31.3c-8.7,0-17.3,0-26,0c0-10.4,0-20.8,0-31.2c-1.3,0-2.5,0.2-3.7,0c-2.9-0.6-5-3.2-5-6.2c0-8.9,0-17.7,0-26.6
		c0-2.9,1.8-5.1,5.1-6.1c2.3-0.7,4.6-1.2,6.8-1.7c0.6-0.1,1.1-0.3,1.8-0.5c-0.3-0.4-0.5-0.6-0.8-0.9c-2.8-2.6-4.3-5.9-4.3-9.7
		c0-2.9-0.1-5.9,0.3-8.8c1-6.4,6.9-10.9,13.5-10.6C30,47,35.3,52.2,35.6,58.7c0.1,2.8,0.1,5.6,0,8.4C35.5,70.3,34.3,72.5,30.6,76.6z
		 M35.7,92.6c0,2.2,0,4.3,0,6.3c0,4,0,8.1,0,12.1c0,1.5,0.9,2.4,2.1,2.4c1.3,0,2.1-0.9,2.2-2.4c0-0.3,0-0.7,0-1c0-8,0-16,0-24
		c0-2.3-0.4-2.8-2.6-3.4c-3.7-1-7.5-1.7-11.2-2.8c-2.4-0.7-4.7-0.7-7,0c-3.8,1.1-7.7,1.9-11.5,2.9c-1.9,0.5-2.3,1.1-2.3,3.1
		c0,8.3,0,16.6,0,24.9c0,1.8,0.8,2.8,2.2,2.8c1.4,0,2.1-1,2.1-2.7c0-5.5,0-11,0-16.5c0-0.5,0-1,0-1.6c1.5,0,2.9,0,4.4,0
		c0,2.6,0,5.1,0,7.7c5.8,0,11.5,0,17.4,0c0-2.6,0-5.2,0-7.7C32.9,92.6,34.2,92.6,35.7,92.6z M20.3,144.6c0.1-0.2,0.1-0.3,0.1-0.3
		c0-8.5,0-16.9,0-25.4c0-0.4-0.3-0.9-0.5-1c-1.9-1-3.8-1.9-5.8-2.9c0,10,0,19.9,0,29.7C16.3,144.6,18.3,144.6,20.3,144.6z
		 M31.3,114.9c-1.9,0.9-3.5,1.8-5.2,2.5c-1,0.4-1.3,1-1.3,2.1c0,7.9,0,15.8,0,23.7c0,0.5,0.1,0.9,0.1,1.4c2.2,0,4.3,0,6.4,0
		C31.3,134.6,31.3,124.9,31.3,114.9z M14.1,63.7c-0.4,4,0.5,7.5,4.2,9.8c3,1.8,6.2,1.7,9.1-0.2c3.5-2.3,4.3-5.8,3.9-9.6
		C25.6,61.5,19.9,61.6,14.1,63.7z M31.2,104.8c-5.4,0-10.7,0-16,0c-0.3,0-0.7,0-1,0.1c-0.8,4.5-0.6,4.9,3.2,6.8
		c0.1,0.1,0.3,0.1,0.4,0.2c1.6,0.8,3.2,2.1,4.8,2.1c1.6,0,3.2-1.3,4.8-2.1c4.2-2,4.2-2,3.8-6.7C31.3,105.1,31.3,105.1,31.2,104.8z
		 M31.2,59.3c-0.1-4.8-4.1-8.5-8.7-8.4c-4.5,0.1-8.4,3.8-8.3,8.3C19.8,57.2,25.5,57.1,31.2,59.3z"/>
	<path class="st1" d="M136,125c0-1.4,0-2.7,0-4.1c1.4,0,2.8,0,4.2,0c0,1.3,0,2.7,0,4.1C138.9,125,137.5,125,136,125z"/>
	<path class="st1" d="M75.4,45c1.4,0,2.7,0,4.1,0c0,1.4,0,2.8,0,4.2c-1.4,0-2.7,0-4.1,0C75.4,47.8,75.4,46.5,75.4,45z"/>
	<path class="st1" d="M79.5,57.9c-1.4,0-2.7,0-4.2,0c0-1.4,0-2.7,0-4.2c1.3,0,2.7,0,4.2,0C79.5,55,79.5,56.4,79.5,57.9z"/>
</g>
</svg>
