<?xml version="1.0" encoding="utf-8"?>
<!-- Generator: Adobe Illustrator 24.3.0, SVG Export Plug-In . SVG Version: 6.00 Build 0)  -->
<svg version="1.1" id="Layer_1" xmlns="http://www.w3.org/2000/svg" xmlns:xlink="http://www.w3.org/1999/xlink" x="0px" y="0px"
	 viewBox="0 0 150 150" style="enable-background:new 0 0 150 150;" xml:space="preserve">
<style type="text/css">
	.st0{fill:#5F6368;}
	.st1{fill:#005BAB;}
</style>
<path class="st0" d="M2053.7-657.2c-2.1,0-3.6,0-5.1,0C2049.8-661.3,2051.5-660.2,2053.7-657.2z"/>
<g>
	<path class="st1" d="M125,103.1c2.1,0,3.8,0,5.4,0c6.6,0.1,11.2,4.7,11.3,11.2c0.1,10.5,0,20.9,0,31.4c0,1.8-0.1,3.6-2.4,3.5
		c-2.1,0-2.6-1.6-2.6-3.5c0-10-0.2-19.9,0.1-29.9c0.1-5.4-2.6-7.9-8-7.9c-22.1,0.1-44.2,0-66.3,0c-0.6,0-1.3,0.2-1.7,0
		c-1.1-0.7-3-1.5-3.1-2.3c-0.1-1.7,1.3-2.5,3.2-2.5c10.8,0.1,21.7,0,32.5,0c6.3,0,5.2,0.5,5.3-5.3c0-1.2-0.3-2.5,0.1-3.5
		c0.4-0.9,1.4-1.6,2.2-2.4c0.7,0.8,2,1.6,2.1,2.5c0.3,2,0.2,4.1,0.1,6.1c-0.1,1.9,0.7,2.6,2.6,2.6c4-0.1,8,0,12-0.1
		c0.7,0,2-0.9,2-1.3c-0.2-6.6,1.1-13.3-1.1-19.8C115.5,72,103,67.1,93.6,72c-11,5.8-22.5,6.1-33.4,0.3c-12.1-6.4-26.7,1.9-26.9,15.6
		c-0.2,11.3-0.2,22.7,0,34c0.1,7.7,3.9,11.1,11.6,11.2c11.6,0.1,23.3,0.1,34.9,0c4.8,0,8.2-3.3,8.1-7.7c-0.1-4.3-3.4-7.3-8.2-7.3
		c-7.2-0.1-14.5,0-21.7,0c-5.9,0-8.4-2.3-8.6-8.2c-0.2-5-0.2-10-0.4-14.9c-0.1-1.8,0.3-3.7,2.4-3.7c2.1,0,2.4,1.8,2.4,3.6
		c0,4.7,0,9.4,0.1,14.1c0,3.5,0.7,4.1,4.1,4.2c7.3,0,14.7,0,22,0c7.4,0.1,12.5,5,12.6,12.1c0.1,7.3-4.8,12.6-12.3,12.7
		c-11.8,0.2-23.7,0.3-35.5,0c-11.1-0.2-16.2-5.9-16.3-17c0-3.5-0.1-7,0-10.6c0.1-1.9-0.7-2.7-2.6-2.6c-2,0.1-4.1,0-6.2,0
		c-4.2,0.2-6.6,2.7-6.6,6.9c0,10.2,0,20.3,0,30.5c0,1.8,0.1,3.9-2.4,3.8c-2.3,0-2.6-1.8-2.6-3.8c0-10.1,0.1-20.1,0-30.2
		c0-7.1,5.3-12.5,12.1-12.1c1.9,0.1,3.9-0.1,5.9,0c1.8,0.1,2.4-0.7,2.4-2.4c-0.1-3.8,0.2-7.6-0.1-11.4c-1-17.7,17.6-29.6,34.4-21.1
		c9.1,4.6,18.4,4.5,27.5-0.1c12.9-6.4,27-1.6,32.7,11.6c1.3,3,1.5,6.6,1.8,10C125.2,94,125,98.4,125,103.1z"/>
	<path class="st1" d="M36.2,3.8c0.4,0,1.2-0.1,1.7,0.3c4.3,2.9,8.5,0.5,12.5-0.3C64.2,0.8,78.1-0.2,92,2c6.1,1,12.2,2.4,18.3,3.5
		c0.7,0.1,1.7-0.3,2.4-0.6c3.5-1.7,6.9-1.5,9,0.6c2.5,2.6,2.4,5.1,0.9,9.1c-0.8,2.1-0.3,4.9,0.1,7.3c1.6,8.8,1.6,17.6-0.1,26.5
		c-0.6,3-1.4,5.9,0.5,9c1.8,3-0.2,7.3-3.2,8.6c-3.2,1.4-8.6-0.2-9.8-3.1c-0.3-0.8,0.1-2.3,0.7-3c0.4-0.4,1.8-0.1,2.7,0.1
		c0.5,0.1,0.9,0.8,1.5,0.9c1,0.3,2,0.4,3.1,0.5c0-1.2,0.5-2.9,0-3.5c-2-2.1-1.5-4.3-0.9-6.6c2.6-11,2.6-22-0.1-33.1
		c-0.5-2.2-0.8-4.1,1-6c0.6-0.6,0.1-2.2,0.2-3.4c-1,0.1-2.3-0.1-3.1,0.5c-2,1.5-3.7,1.4-6.2,0.7C93.5,5.8,77.7,4.6,61.7,6.6
		c-6.5,0.8-12.9,2.9-19.4,4.1c-1.3,0.2-2.8-0.9-4.2-1.2c-1.1-0.2-2.2-0.2-3.3-0.3c0.1,1.1,0.2,2.3,0.4,3.4c0.3,1.6,1.2,3.4,0.9,4.9
		c-1.7,8.2-2.5,16.4-1.7,24.7c0.4,3.6,1.3,7.1,1.7,10.7c0.2,1.5-0.5,3.1-0.7,4.7c-0.2,1.3-0.2,2.6-0.3,3.9c1.1-0.2,2.3-0.3,3.3-0.8
		c1.5-0.8,2.9-2.7,4.4-0.4c1.4,2.1-0.1,3.4-1.7,4.6c-2.9,2.1-6.6,2.4-9,0.5c-2.6-2-3.5-5.2-1.8-8.6c1.7-3.4,0.4-6.6-0.2-9.7
		c-1.7-9.2-1.2-18.3,0.6-27.4c0.5-2.4,0.3-4.5-0.8-6.7C27.8,8.6,31,3.8,36.2,3.8z"/>
	<path class="st1" d="M104.4,40.7c-0.1,15.1-13.2,27.9-29,27.2c-14.6-0.7-27-12.5-26.6-28.4c0.4-15.4,13-27.1,28.4-26.9
		C92.6,12.7,104.8,25.9,104.4,40.7z M76.7,62.9C89.2,63,99.3,53,99.5,40.5c0.2-12.7-9.8-23.2-22.8-23.2c-13.1,0-22.6,10.2-23,22.5
		C53.3,51.7,63.6,63.4,76.7,62.9z"/>
	<path class="st1" d="M76.5,49.8c2.5,0.8,4.9,1.4,7.3,2.3c1.8,0.7,2.3,2.4,1.2,3.8c-0.5,0.7-2.5,0.9-3.5,0.5
		c-3.3-1.6-6.4-1.6-9.8-0.1c-1,0.5-3.1,0.2-3.7-0.5c-1.2-1.5-0.2-3,1.5-3.7C71.8,51.2,74.1,50.6,76.5,49.8z"/>
	<path class="st1" d="M66.3,45.3c-1.9-0.8-3.7-1.3-5.1-2.4c-0.7-0.6-0.6-2.2-0.8-3.3c1.1-0.2,2.2-0.5,3.3-0.6c1.7-0.1,3.5-0.1,5.2,0
		c1.1,0.1,2.2,0.4,3.3,0.6c-0.3,1.1-0.2,2.6-0.9,3.2C69.9,43.9,68.1,44.4,66.3,45.3z"/>
	<path class="st1" d="M86.8,45.3c-1.9-1-3.7-1.7-5.2-2.8c-0.6-0.5-0.7-2.3-0.2-2.9c0.4-0.6,2.1-1,2.8-0.6c1.9,1,3.6,0.9,5.5,0
		c0.8-0.4,2.4,0.1,3,0.8c0.4,0.5,0.1,2.4-0.5,2.8C90.7,43.7,88.8,44.4,86.8,45.3z"/>
	<circle class="st1" cx="65.8" cy="33.7" r="3.6"/>
	<circle class="st1" cx="86.6" cy="33.7" r="3.6"/>
</g>
</svg>
