<?xml version="1.0" encoding="utf-8"?>
<!-- Generator: Adobe Illustrator 24.3.0, SVG Export Plug-In . SVG Version: 6.00 Build 0)  -->
<svg version="1.1" id="Layer_1" xmlns="http://www.w3.org/2000/svg" xmlns:xlink="http://www.w3.org/1999/xlink" x="0px" y="0px"
	 viewBox="0 0 150 150" style="enable-background:new 0 0 150 150;" xml:space="preserve">
<style type="text/css">
	.st0{fill:#075CAA;}
</style>
<g>
	<path class="st0" d="M1.4,112.7c1.2-2.3,3.1-2.9,5.6-2.8c7,0.1,14.1,0,21.1,0c0.5,0,1,0,1.7,0c-0.4-1.2-0.8-2.3-1-3.4
		c-0.4-2.3,0.1-4.5,1.3-6.6c3.9-7,7.8-14,11.7-21.1c0.6-1.1,0.8-2.1,0.6-3.4c-0.2-1.3-0.2-2.7,0.1-4c0.7-2.4,1.6-4.7,2.8-6.9
		c1.3-2.4,3.5-3.9,6.1-4.8c0-4.8-0.3-9.7,0.1-14.5c0.4-6.1,5.9-11,12.1-11.2c5.7-0.1,11.4-0.1,17.1,0c4.1,0.1,6.3,2,7.6,5.9
		c0.1,0.4,0.7,0.9,1.1,0.9c4.4,0.4,7,3.1,7,7.5c0,3.1,0,6.1,0,9.2c0,0.5,0,1,0,1.6c3,0.5,5.6,1.6,7.3,4c2.7,3.8,4.7,7.9,3.8,12.8
		c-0.1,0.8,0.2,1.9,0.6,2.7c3.5,6.4,6.9,12.8,10.6,19.1c2.3,3.9,3.7,7.7,1.2,12.1c2.4,0,4.5,0,6.7,0c0.6,0,1.3-0.1,1.7,0.2
		c0.6,0.5,1.4,1.4,1.4,2c0,0.7-0.8,1.5-1.5,2c-0.5,0.3-1.4,0.2-2.1,0.2c-30.3,0-60.6,0-90.9,0c-9.2,0-18.5,0-27.7,0.1
		c-0.5,0-1,0-1.6,0c0,2.4,0,4.8,0,7.3c46,0,92,0,138.1,0c0-2.4,0-4.8,0-7.4c-2,0-3.9,0-5.9,0c-1.1,0-2.1-0.3-2.6-1.4
		c-0.6-1.4,0.4-3,2.1-3c2.3-0.1,4.7-0.1,7,0c2.4,0.2,3.8,1.8,3.8,4.2c0,2.5,0,5.1,0,7.6c0,2.9-1.3,4.3-4.1,4.6
		c-0.2,0-0.5,0.1-0.9,0.1c0,0.5,0,1,0,1.6c0,4.6-0.1,9.3,0,13.9c0.1,3.1-0.9,5.4-3.9,6.6c-20.9,0-41.8,0-62.7,0c0,0-0.1-0.1-0.1-0.1
		c-1.1-0.7-1.7-1.6-1.3-2.9c0.4-1.2,1.5-1.4,2.7-1.4c19.6,0,39.3,0,58.9,0c1.4,0,1.9-0.4,1.8-1.8c-0.1-4.8,0-9.7,0-14.5
		c0-0.4-0.1-0.8-0.1-1.3c-0.5,0-0.9-0.1-1.3-0.1c-36.6,0-73.3,0-109.9,0c-1.3,0-1.7,0.4-1.6,1.6c0.1,4.7,0,9.4,0,14.1c0,2,0,2,1.9,2
		c13,0,26,0,38.9,0c0.7,0,1.6,0.1,2.1,0.5c1.4,0.9,1,2.5-0.7,3.9c-19.4,0-38.7,0-58.1,0c-3-1.2-4-3.4-3.9-6.6c0.1-4.7,0-9.3,0-14
		c0-0.5,0-1-0.1-1.6c-2.4,0.2-3.9-0.9-5-2.8C1.4,119.9,1.4,116.3,1.4,112.7z M65,65c0.4,1.4,0.8,2.6,0.9,3.9
		c0.1,1.3,0.2,2.6-0.1,3.8c-0.5,1.9-1.3,3.8-2.1,5.6c-0.4,0.9-0.4,1.4,0.1,2.2c5,7.4,16.4,7.7,21.9,0.6c0.8-1.1,1.1-2,0.4-3.3
		c-2.5-4.9-3.4-9.8,0.3-14.5c-0.5-0.6-1-1.2-1.6-1.9c-3.1,3-6.9,3.7-11,3.6C70.9,64.9,67.9,65,65,65z M65.5,109.8
		c0.6-2.7,1.1-5.5,1.9-8.1c0.9-3,1-5.8-0.1-8.8c-0.4-1.1-0.6-2.3-0.9-3.5c-0.1-0.4-0.3-0.9-0.7-1.2c-1.9-1.7-3.9-3.4-6-5.2
		c-2.2,0.8-3.6,2.7-4.6,5.1c-2.1,5.5-4.5,10.9-6.7,16.3c-0.7,1.7-1.4,3.5-2.2,5.3c2.5,0,4.8,0,7.3,0c0-2.3,0-4.4,0-6.6
		c0-1.7,0.9-2.8,2.3-2.7c1.3,0,2.1,1,2.1,2.7c0,2.2,0,4.4,0,6.6C60.4,109.8,62.8,109.8,65.5,109.8z M103.9,109.8
		c-3.1-7.5-6.2-14.8-9.2-22.1c-0.9-2.3-2.4-3.9-4.7-4.7c-1,1.1-1.9,2.5-3.1,3.2c-2.9,1.6-3.7,4.3-4.3,7.3c-0.5,2.1-1.1,4-0.5,6.3
		c1,3.3,1.6,6.7,2.4,10.1c2.6,0,5.1,0,7.7,0c0-0.6,0-1.1,0-1.6c0-1.8,0-3.6,0-5.5c0.1-1.4,1.1-2.3,2.3-2.3c1.2,0.1,2,0.9,2.1,2.3
		c0,0.6,0,1.2,0,1.9c0,1.7,0,3.4,0,5.2C99.2,109.8,101.5,109.8,103.9,109.8z M104,81.3c-0.3-2.1-1.1-3.9-0.8-5.6
		c0.6-3.4-0.8-6.1-2.2-8.8c-1.4-2.6-3.9-3.6-6.8-3.3c-2.7,0.3-5,2.4-5.7,5.1c-0.8,3.2,1.3,8.9,4.2,10.7c2.1,1.3,4.2,2.5,5.2,5
		C100.2,83.2,102.3,82.2,104,81.3z M45.5,81.1c2.3,1.1,4.4,2.1,6.2,3c1.4-1.3,2.4-2.9,3.8-3.6c3.4-1.6,4.7-4.6,5.8-7.8
		c0.9-2.9-0.1-6.1-2.4-7.8c-2.4-1.7-5.7-1.9-8,0c-2.9,2.4-4.3,5.8-4.1,9.5C46.8,76.6,47,78.9,45.5,81.1z M50.3,88.3
		c-2.4-1.2-4.7-2.2-7-3.3c-3.3,6-6.6,11.9-9.8,17.8c-1.3,2.4-0.2,5.4,2.2,6.6c2.4,1.2,5.6,0.3,6.7-2.2
		C45.1,100.9,47.7,94.6,50.3,88.3z M99.7,88.3c2.6,6.3,5.2,12.5,7.8,18.6c0.8,2,2.5,3,4.7,2.9c2.1,0,3.6-1,4.4-2.9
		c0.8-1.7,0.5-3.3-0.4-4.9c-3-5.4-6-10.8-9-16.3c-0.2-0.3-0.4-0.5-0.6-0.8C104.3,86.1,102,87.2,99.7,88.3z M79.7,109.6
		c0.1-0.3,0.1-0.4,0.1-0.5c-0.4-2-0.9-4-1.4-6c-0.9-3.8-0.9-3.8-4.8-3.7c0,0-0.1,0-0.1,0c-0.8-0.1-1.2,0.2-1.3,1.1
		c-0.3,1.8-0.8,3.5-1.2,5.3c-0.3,1.2-0.6,2.4-0.9,3.8C73.5,109.6,76.5,109.6,79.7,109.6z M71.4,90.7c0.3,3.9,0.5,4.1,4.2,4.1
		c0.5,0,1,0,1.4,0c0.3,0,0.6-0.3,0.7-0.5c0.4-1.2,0.6-2.4,1-3.6C76.2,90.7,73.8,90.7,71.4,90.7z"/>
	<path class="st0" d="M100,29.5c0-1.1,0-2.1,0-3.2c0-1.9,0.7-2.7,2.7-2.8c4.5-0.2,7.8-3.5,8.4-8.1c0.5-3.9-2.2-8-6.2-9.3
		c-5.5-1.8-11.2,2.2-11.6,7.9c-0.1,2.1-1.4,3.2-3,2.6c-1-0.4-1.4-1.2-1.4-2.3c0-6.5,5.4-12.4,11.9-13c6.9-0.6,13.1,4,14.4,10.5
		c1.4,7.1-2.7,13.7-9.7,15.5c-1,0.3-1.2,0.7-1.2,1.6c0,1.4,0,2.8,0,4.2c-0.1,1.4-0.9,2.2-2.1,2.2c-1.2,0-2.1-0.9-2.2-2.2
		c0-0.1,0-0.2,0-0.3C100,31.8,100,30.7,100,29.5z"/>
	<path class="st0" d="M41,29.4c0-1.1,0-2.1,0-3.2c0-1.9,0.7-2.6,2.6-2.7c4.3-0.2,7.9-3.6,8.4-7.7c0.5-4.4-2-8.4-6.2-9.7
		c-5.6-1.8-11,2-11.6,8.1c-0.1,1.2-0.4,2.1-1.6,2.4c-1.5,0.5-2.7-0.6-2.8-2.4c-0.1-5.3,3.8-10.6,9-12.3c7.2-2.4,14.9,1.6,17,8.8
		c2.1,7.1-2.1,14.7-9.4,16.6c-1,0.3-1.2,0.6-1.2,1.5c0.1,1.3,0,2.7,0,4c0,1.4-0.9,2.4-2.2,2.4c-1.3,0-2.1-0.9-2.2-2.3
		c0-0.1,0-0.2,0-0.3C41,31.7,41,30.6,41,29.4z"/>
	<path class="st0" d="M45.4,41.4c0,1.2-1.1,2.1-2.3,2.1c-1.2,0-2.1-1-2-2.3c0.1-1.1,1-2.1,2.2-2.1C44.4,39.2,45.4,40.2,45.4,41.4z"
		/>
	<path class="st0" d="M104.4,41.3c0,1.3-0.9,2.2-2.2,2.2c-1.1,0-2.1-1-2.1-2.1c0-1.2,1-2.2,2.1-2.3
		C103.4,39.1,104.4,40.1,104.4,41.3z"/>
</g>
</svg>
