<?xml version="1.0" encoding="utf-8"?>
<!-- Generator: Adobe Illustrator 24.3.0, SVG Export Plug-In . SVG Version: 6.00 Build 0)  -->
<svg version="1.1" id="Layer_1" xmlns="http://www.w3.org/2000/svg" xmlns:xlink="http://www.w3.org/1999/xlink" x="0px" y="0px"
	 viewBox="0 0 150 150" style="enable-background:new 0 0 150 150;" xml:space="preserve">
<style type="text/css">
	.st0{fill:#5F6368;}
	.st1{fill:#005BAB;}
</style>
<path class="st0" d="M2053.7-657.2c-2.1,0-3.6,0-5.1,0C2049.8-661.3,2051.5-660.2,2053.7-657.2z"/>
<path class="st0" d="M647.6-31.1c1.8-3.6,3.4-2.9,5.2,0C651-31.1,649.5-31.1,647.6-31.1z"/>
<g>
	<path class="st1" d="M122.9,9.3c0.3-1.4,0.7-2.7,1-4.1c0.8-0.3,1.3-0.8,0.5-1.6c0.1-0.5,0.2-1,0.2-1.5c0.4-0.4,0.8-0.7,1.2-1.1
		c1.6,0.1,2,1.1,1.6,2.4c-5.1,19.7-12.1,38.5-27.4,53c-6.7,6.4-14.8,10.2-23.9,11.2c-10.1,1.1-18.8-2.8-26.3-9.4
		c-10.9-9.8-17.2-22.3-22-36c-2.1-5.9-3.7-11.9-5.5-17.8C22,3,21.6,1.7,23.2,1.2c1.4-0.4,2.3,0.6,2.5,2.2C26,5.9,26.6,8.5,27,11
		c0.3,3.5,0.8,7,3.2,9.8c2.8,6.4,5.2,12.9,8.8,18.9c4.1,6.9,8.8,13.3,15.4,18.3c13.9,10.4,28.4,8.2,41-1.7
		c12.6-9.9,19.2-23.8,24.7-38.4c0.1-0.4,0.3-0.7,0.5-1C122.6,14.7,123,12.1,122.9,9.3z"/>
	<path class="st1" d="M90,124c-0.7,0.4-1.4,0.9-2,1.3c-0.9-0.2-1.6-0.2-2,0.8c-1.5,0.4-3.2,1.5-4.1-1c0.3-0.3,0.7-0.7,1-1
		c0.6,0,1.2,0,1.8,0c1,0.3,1.7,0.2,2.1-0.9c1.8-0.9,2.7-3.5,5.4-2.7c0.8,1,1.6,1,2.3-0.1c5.6-2.3,7.2-5.2,6-10.9
		c-0.3-1.6,0.1-2.9,1.1-4.3c3.8-5.5,1.6-11.4-4.8-12.9c-2.2-0.5-2.9-1.6-3.2-3.7c-0.6-5-4.1-7.8-9.1-7.2c-1.4,0.2-2.8,0.3-3.3-1.1
		c-0.6-1.7-0.9-3.7,0.2-5.2c0.8-1.1,2.2-0.4,2.1,0.8c-0.1,2.3,1,2.3,2.8,2.5c4.8,0.3,9.6,4.2,10.3,9c0.2,1.5,0.9,1.9,2.1,2.2
		c6.5,2.2,10.9,10.9,5,17.2c-0.6,0.7-1.3,1.4-0.5,2.9c2.4,5.1-3.6,15.3-10.9,13.3C90.8,121.6,90.3,122.6,90,124z"/>
	<path class="st1" d="M48,69c-0.2,10.7-2.4,20.8-10.6,28.6c-4.5,4.2-10.1,6.2-16,7.4c-1,0.2-2.3,0.4-2.5-1c-0.3-1.5,1.1-1.5,2-1.7
		c7.5-1.8,14.3-4.9,18.5-11.7c4.8-7.6,5.8-16.2,5.6-25c0-0.8-0.1-1.6-0.2-2.3c-0.1-1,0.1-1.8,1.3-2c1.4-0.1,1.8,0.8,1.8,1.9
		C48,65.2,48,67.1,48,69z"/>
	<path class="st1" d="M102.1,69.5c0-1.7,0-3.2,0-4.6c0-1.2,0.1-2.5,1.7-2.5c1.8,0,1.5,1.4,1.4,2.6c-0.6,6.4,0.4,12.7,2.4,18.7
		c3.1,9.7,9.8,15.5,19.7,18c1.4,0.4,4.5-0.2,3.9,2.4c-0.5,2.1-2.9,0.6-4.4,0.3c-12.8-2.8-21.9-12.6-23.6-25.6
		C102.6,75.6,101.7,72.5,102.1,69.5z"/>
	<path class="st1" d="M61.7,81.9c-1.3,0.9-3.2,0.9-3.8,2.7c-2.4,1.5-2.7,3.8-2.2,6.3c-1.3,1.9-3.8,1-5.4,2.4c-1.6,0-2.4,0.8-2.4,2.4
		c-0.2,0.4-0.4,0.8-0.6,1.2c-1.2,0.8-1.1,1.8-0.6,2.9c0,0.5,0,1,0.1,1.5c-0.5,0.9-0.4,1.6,0.5,2.1c0.7,2,3,3.5,2.1,6.1
		c-1,0.2-1,0.9-0.7,1.6c-0.1,6.6,4.6,9.7,9.3,9.1c1.4-0.2,2.6,0,3.6,0.9c1.8,1.6,3.6,2.9,6.2,2.7c0.9-0.1,1.6,0.4,1.6,1.3
		c0,0.9-0.7,1.3-1.6,1.3c-0.4,0-0.8,0.1-1.2,0c-5.3-2.7-11.8-2.6-16.6-6.2c-3.2-2.4-4.7-6.1-3.5-10.2c0.4-1.4,0.2-2.4-0.7-3.5
		c-4.7-6.5-1-14.8,5.5-16.8c1.4-0.4,2.6-0.8,2.6-3.1c0.1-3.9,5.1-7.7,9.2-7.7c1.9,0,3.7,0.2,3.3-2.7c-0.2-1,0.5-1.3,1.4-1.2
		c1.1,0.1,1.2,0.7,1.1,1.6c-0.2,1.5,0.5,3.1-0.5,4.5c-0.8,0-1.6,0-2.4,0c-0.8,0-1.5,0-2.3-0.1C62.9,80.7,62.2,80.9,61.7,81.9z"/>
	<path class="st1" d="M94.9,39.1c-4.4-0.7-8.9-1.7-12.8-4.2c-2-1.3-3.7-1.8-5.4,0.4c-1,1.2-2.4,1.3-3.3,0.1
		c-1.8-2.4-3.5-1.4-5.3-0.1c-3.4,2.4-7.3,3.2-11.3,3.8c-0.9,0.1-2.3,0.5-2.5-1c-0.2-1.5,0.7-1.9,2.1-2c4.4-0.3,8.3-1.8,11.8-4.5
		c0.2-0.2,0.4-0.3,0.7-0.4c2.7-2.1,4.8,2.2,7,0.8c2.5-1.5,4.5-1.6,6.7-0.1c3.8,2.6,8.2,3.9,12.7,4.2c1.3,0.1,3-0.2,2.7,1.7
		C97.9,39.5,96.2,38.9,94.9,39.1z"/>
	<path class="st1" d="M40.5,112.2c0-0.3-0.1-0.5,0-0.8c0.7-1.6-0.4-4.8,2.3-4.4c2.8,0.4,0.8,2.9,0.6,4.4c-0.4,4.1,2.5,9.9,6.1,12.1
		c1.6,1,5.2,1.6,3.7,4.1c-1.2,2-3.8-0.5-5.4-1.6C43.2,122.7,40.6,118.1,40.5,112.2z"/>
	<path class="st1" d="M74.9,18.4c-1.7-0.2-3.2-1-4.5-2c-1.1-0.9-2.3-1.7-3.8-1.6c-1.1,0-1.8-0.3-1.8-1.5c0-1.6,1.2-1.3,2.2-1.4
		c2-0.2,3.5,0.7,4.9,1.9c2.2,2,4.3,2,6.5,0c1.6-1.5,3.5-2.1,5.7-1.9c0.7,0.1,1.3,0.2,1.4,1c0.1,0.7-0.1,1.7-0.6,1.7
		c-3.6-0.3-5.6,3-8.8,3.7C75.6,18.4,75.3,18.4,74.9,18.4z"/>
	<path class="st1" d="M83.2,139.2c0,2.6,0,5.2,0,7.8c0,1.2-0.2,2.2-1.5,2.2c-1.3,0-1.6-0.9-1.6-2.1c0-5.2,0-10.4,0-15.6
		c0-1.2,0.1-2.1,1.5-2.1c1.7,0,1.7,1.1,1.6,2.4C83.1,134.2,83.2,136.7,83.2,139.2z"/>
	<path class="st1" d="M74.6,45.1c-2.3-0.2-4.8-0.6-7.2-1.8c-0.9-0.5-2.1-0.9-1.4-2.2c0.5-0.9,1.4-1.4,2.6-0.7
		c4.7,2.6,9.5,2,14.2-0.1c1-0.4,2-1,2.6,0.5c0.4,1.2-0.1,1.9-1.3,2.4C81.1,44.3,78.1,45,74.6,45.1z"/>
	<path class="st1" d="M72.2,139.2c0,2.6,0,5.2,0,7.8c0,0.9,0.2,2-1.1,2.1c-1.2,0.1-1.6-0.7-1.6-1.8c0-5.4,0-10.9,0.1-16.3
		c0-1,0.4-1.8,1.6-1.7c1,0.1,1,1,1,1.8C72.1,133.8,72.1,136.5,72.2,139.2C72.1,139.2,72.1,139.2,72.2,139.2z"/>
	<path class="st1" d="M109.7,111.7c-0.1,7.4-3.5,11.9-8.4,15.4c-0.9,0.6-2.5,1.3-3.4-0.3c-0.8-1.6,0.8-1.8,1.7-2.4
		c5.6-3.4,8-8.8,6.6-15c-0.2-0.9-0.6-1.9,0.6-2.3c1.2-0.4,2,0.3,2.3,1.4C109.4,109.9,109.6,111.3,109.7,111.7z"/>
	<path class="st1" d="M93.2,74.8c2.3,0.7,3.8,2.1,5.1,3.7c1.1,1.3,2,2.7,2.6,4.3c0.6,1.8,2.8,4.4,0.2,5.4c-2.7,1-2-2.6-2.7-4
		c-1.3-2.7-3.3-4.4-5.7-6c-0.7-0.5-1.6-1.1-1.1-2.2C91.9,75.1,92.6,74.8,93.2,74.8z"/>
	<path class="st1" d="M57.1,77.6c-0.5,0.6-0.8,1.1-1.3,1.6c-2.2,2-3.9,4.4-4.6,7.4c-0.2,1-0.6,2.2-2,1.7c-1.2-0.4-1.2-1.3-0.9-2.5
		c0.9-3.6,2.8-6.6,5.5-9.1c0.6-0.5,1.2-1.1,2-0.6C56.4,76.4,56.7,77,57.1,77.6z"/>
	<path class="st1" d="M30.2,20.8C27.8,18,27.3,14.5,27,11C29.1,13.9,29.4,17.5,30.2,20.8z"/>
	<path class="st1" d="M122.9,9.3c0.1,2.8-0.3,5.4-2.3,7.6C120.9,14.2,121.6,11.7,122.9,9.3z"/>
	<path class="st1" d="M55.6,90.9c-0.5-2.5-0.2-4.8,2.2-6.3C57.3,86.8,57.2,89.1,55.6,90.9z"/>
	<path class="st1" d="M47.9,95.7c0-1.6,0.7-2.4,2.4-2.4C49.8,94.4,49,95.2,47.9,95.7z"/>
	<path class="st1" d="M94.6,120.4c-0.7,1-1.5,1.1-2.3,0.1C93,120.5,93.8,120.5,94.6,120.4z"/>
	<path class="st1" d="M46.7,99.8c-0.5-1.1-0.7-2.1,0.6-2.9C47.5,98,47.5,99,46.7,99.8z"/>
	<path class="st1" d="M90,124c0.3-1.4,0.8-2.4,2.3-1C91.5,123.3,90.8,123.7,90,124z"/>
	<path class="st1" d="M48.6,111.2c-0.2-0.8-0.2-1.4,0.7-1.6C50.4,110.7,48.9,110.7,48.6,111.2z"/>
	<path class="st1" d="M86.8,123.2c-0.3,1.1-1.1,1.2-2.1,0.9C85.3,123.6,85.9,123.2,86.8,123.2z"/>
	<path class="st1" d="M82.9,124.2c-0.3,0.3-0.7,0.7-1,1C81.5,124.2,82,123.9,82.9,124.2z"/>
	<path class="st1" d="M85.9,126.2c0.4-1,1.1-1.1,2-0.8C87.4,126,86.8,126.3,85.9,126.2z"/>
	<path class="st1" d="M66.1,81.3c0.8,0,1.6,0,2.4,0C67.7,82.3,66.9,82.2,66.1,81.3z"/>
	<path class="st1" d="M124.4,3.6c0.7,0.8,0.3,1.3-0.5,1.6C123.7,4.6,123.9,4,124.4,3.6z"/>
	<path class="st1" d="M61.7,81.9c0.5-1,1.2-1.2,2.1-0.7C63.2,81.8,62.6,82.2,61.7,81.9z"/>
	<path class="st1" d="M125.8,1c-0.4,0.4-0.8,0.7-1.2,1.1C124.3,1,124.7,0.6,125.8,1z"/>
	<path class="st1" d="M47.3,103.5c-0.9-0.5-1-1.3-0.5-2.1C47.4,102,47.5,102.7,47.3,103.5z"/>
</g>
<path class="st0" d="M691.6,329c0-2.3,0-4.5,0-6.8c0-1.4,0.2-2.6,2-2.8c1.8-0.1,3.3,0.2,4.2,1.8c0.9,1.7,0.1,3.2-1.3,3.7
	c-2.2,0.7-3.3,2.1-3.5,4.7C692.7,329.4,692.1,329.2,691.6,329z"/>
<path class="st0" d="M689,328.4c-0.3-3.8-7.9-2.3-4.5-7.9c0.9-1.4,2.8-1.7,4-0.7C691.2,322.1,690.8,324.9,689,328.4z"/>
<path class="st0" d="M716.9,323.8c-0.5,1.7,0.2,3.6-1.1,5.5c-2.1-1.2-0.4-3.8-2.1-5.2c-2,1.1-0.4,3.7-2.2,5.2c-1.6-2-1.6-4.4-0.4-6
	c1.3-1.7,3.6-0.8,5.4,0.1C716.6,323.4,716.7,323.6,716.9,323.8z"/>
<path class="st0" d="M716.5,323.3c1.1-1.2,2.5-1.3,3.4,0c1.3,1.8,1.1,3.9,0.3,5.9c-2.9-1.1,0.4-5.2-3.3-5.5
	C716.7,323.6,716.6,323.4,716.5,323.3z"/>
</svg>
