<?xml version="1.0" encoding="utf-8"?>
<!-- Generator: Adobe Illustrator 24.3.0, SVG Export Plug-In . SVG Version: 6.00 Build 0)  -->
<svg version="1.1" id="Layer_1" xmlns="http://www.w3.org/2000/svg" xmlns:xlink="http://www.w3.org/1999/xlink" x="0px" y="0px"
	 viewBox="0 0 150 150" style="enable-background:new 0 0 150 150;" xml:space="preserve">
<style type="text/css">
	.st0{fill:#5F6368;}
	.st1{fill:#005BAB;}
</style>
<path class="st0" d="M2053.7-657.2c-2.1,0-3.6,0-5.1,0C2049.8-661.3,2051.5-660.2,2053.7-657.2z"/>
<path class="st0" d="M647.6-31.1c1.8-3.6,3.4-2.9,5.2,0C651-31.1,649.5-31.1,647.6-31.1z"/>
<g>
	<path class="st1" d="M523,122.7c0.4-1.7,0.8-3.5,1.3-5.2c1-0.4,1.6-1,0.6-2.1c0.1-0.6,0.2-1.3,0.3-1.9c0.5-0.5,1-0.9,1.5-1.4
		c2.1,0.1,2.5,1.5,2.1,3.1c-6.5,25.3-15.5,49.4-35.1,68c-8.6,8.2-18.9,13.1-30.6,14.4c-13,1.4-24.2-3.5-33.7-12.1
		c-13.9-12.6-22.1-28.6-28.2-46.1c-2.6-7.6-4.7-15.2-7-22.9c-0.5-1.8-1.1-3.5,1-4.1c1.8-0.5,2.9,0.8,3.2,2.8
		c0.4,3.3,1.1,6.5,1.7,9.8c0.4,4.5,1,9,4.1,12.6c3.6,8.2,6.7,16.6,11.3,24.3c5.3,8.9,11.3,17.1,19.7,23.4
		c17.8,13.3,36.5,10.5,52.6-2.2c16.1-12.7,24.6-30.5,31.7-49.2c0.2-0.5,0.4-0.9,0.7-1.3C522.6,129.7,523.1,126.3,523,122.7z"/>
	<path class="st1" d="M480.8,269.8c-0.9,0.6-1.7,1.1-2.6,1.7c-1.1-0.3-2.1-0.2-2.6,1.1c-1.9,0.5-4.1,1.9-5.2-1.2
		c0.4-0.4,0.9-0.9,1.3-1.3c0.8,0,1.6,0,2.4,0c1.2,0.4,2.2,0.2,2.6-1.2c2.3-1.2,3.5-4.6,7-3.5c1,1.3,2,1.2,3-0.1
		c7.1-2.9,9.2-6.7,7.7-13.9c-0.4-2.1,0.1-3.8,1.4-5.6c4.8-7.1,2-14.7-6.2-16.5c-2.9-0.6-3.7-2.1-4.1-4.7c-0.8-6.4-5.3-10-11.7-9.2
		c-1.9,0.2-3.6,0.4-4.2-1.5c-0.7-2.1-1.1-4.8,0.2-6.7c1-1.5,2.8-0.5,2.7,1c-0.1,2.9,1.2,3,3.6,3.2c6.2,0.4,12.3,5.4,13.2,11.5
		c0.3,1.9,1.1,2.4,2.6,2.9c8.3,2.8,14,14,6.4,22c-0.8,0.8-1.6,1.8-0.7,3.8c3.1,6.6-4.6,19.6-13.9,17
		C481.8,266.7,481.2,268,480.8,269.8z"/>
	<path class="st1" d="M427,199.3c-0.3,13.8-3,26.7-13.6,36.6c-5.8,5.4-12.9,7.9-20.5,9.5c-1.3,0.3-2.9,0.5-3.2-1.3
		c-0.4-1.9,1.4-1.9,2.6-2.2c9.6-2.3,18.3-6.2,23.8-15c6.1-9.8,7.5-20.8,7.2-32.1c0-1-0.1-2-0.2-3c-0.1-1.3,0.2-2.4,1.7-2.5
		c1.8-0.2,2.3,1,2.3,2.5C427,194.3,427,196.8,427,199.3z"/>
	<path class="st1" d="M496.4,199.9c0-2.2,0-4.1,0-5.9c0-1.6,0.2-3.2,2.2-3.3c2.3,0,1.9,1.9,1.8,3.3c-0.7,8.2,0.5,16.3,3,24
		c4,12.4,12.6,19.9,25.2,23.1c1.8,0.5,5.8-0.2,5,3.1c-0.7,2.7-3.7,0.8-5.7,0.4c-16.4-3.6-28-16.2-30.3-32.9
		C497,207.8,495.8,203.7,496.4,199.9z"/>
	<path class="st1" d="M444.5,215.8c-1.7,1.1-4.1,1.2-4.9,3.5c-3.1,2-3.5,4.9-2.8,8.1c-1.6,2.5-4.9,1.3-6.9,3.1c-2.1,0-3.1,1-3,3
		c-0.3,0.5-0.5,1.1-0.8,1.6c-1.6,1-1.4,2.3-0.7,3.7c0,0.7,0.1,1.3,0.1,2c-0.7,1.1-0.6,2,0.6,2.7c0.9,2.6,3.8,4.5,2.7,7.8
		c-1.2,0.3-1.2,1.1-1,2.1c-0.1,8.5,5.9,12.4,12,11.7c1.8-0.2,3.3,0,4.6,1.2c2.3,2,4.7,3.7,8,3.5c1.1-0.1,2,0.5,2,1.7
		c0,1.2-0.9,1.7-2,1.7c-0.5,0-1.1,0.2-1.5,0c-6.8-3.4-15.1-3.4-21.3-8c-4.1-3-6-7.8-4.5-13.1c0.5-1.8,0.2-3-0.9-4.6
		c-6-8.3-1.3-19,7.1-21.5c1.7-0.5,3.3-1,3.4-4c0.1-5,6.5-9.9,11.8-9.9c2.5,0,4.8,0.2,4.2-3.4c-0.2-1.3,0.6-1.7,1.9-1.6
		c1.4,0.1,1.5,1,1.4,2c-0.3,1.9,0.6,4-0.6,5.8c-1,0-2.1,0-3.1,0.1c-1,0-2,0-2.9-0.1C446,214.3,445.1,214.5,444.5,215.8z"/>
	<path class="st1" d="M487.1,160.9c-5.7-0.9-11.4-2.1-16.4-5.4c-2.6-1.7-4.7-2.3-6.9,0.5c-1.3,1.6-3,1.7-4.2,0.1
		c-2.3-3.1-4.4-1.8-6.8-0.2c-4.3,3-9.4,4.1-14.5,4.9c-1.2,0.2-2.9,0.7-3.2-1.3c-0.3-2,1-2.4,2.7-2.6c5.6-0.4,10.7-2.3,15.1-5.8
		c0.3-0.2,0.6-0.3,0.8-0.5c3.4-2.7,6.1,2.8,8.9,1.1c3.1-2,5.7-2.1,8.6-0.1c4.9,3.3,10.5,5,16.3,5.4c1.7,0.1,3.8-0.2,3.5,2.2
		C491,161.5,488.7,160.7,487.1,160.9z"/>
	<path class="st1" d="M417.4,254.7c0-0.3-0.1-0.7,0-1c0.9-2-0.5-6.1,3-5.7c3.6,0.5,1,3.7,0.8,5.7c-0.6,5.3,3.3,12.7,7.8,15.5
		c2.1,1.3,6.7,2,4.7,5.2c-1.6,2.5-4.9-0.6-6.9-2.1C420.8,268.1,417.4,262.3,417.4,254.7z"/>
	<path class="st1" d="M461.4,134.4c-2.2-0.2-4.1-1.2-5.8-2.6c-1.4-1.2-3-2.1-4.9-2.1c-1.4,0-2.3-0.4-2.3-1.9c0-2.1,1.6-1.6,2.8-1.7
		c2.5-0.2,4.5,0.9,6.3,2.5c2.8,2.6,5.6,2.6,8.3,0c2.1-2,4.5-2.7,7.3-2.4c0.9,0.1,1.7,0.2,1.8,1.2c0.1,0.8-0.1,2.2-0.8,2.2
		c-4.6-0.3-7.2,3.8-11.2,4.7C462.4,134.3,461.9,134.3,461.4,134.4z"/>
	<path class="st1" d="M472,289.2c0,3.3,0,6.7,0,10c0,1.5-0.2,2.8-1.9,2.8c-1.7,0-2.1-1.1-2.1-2.7c0-6.7,0-13.3,0-20
		c0-1.5,0.1-2.7,2-2.7c2.1,0,2.2,1.4,2.1,3.1C472,282.9,472,286.1,472,289.2z"/>
	<path class="st1" d="M461.1,168.6c-2.9-0.2-6.2-0.8-9.2-2.3c-1.2-0.6-2.8-1.1-1.8-2.9c0.6-1.2,1.8-1.8,3.4-0.9
		c6,3.4,12.1,2.6,18.2-0.1c1.3-0.5,2.6-1.2,3.3,0.6c0.5,1.5-0.1,2.5-1.7,3.1C469.4,167.6,465.6,168.5,461.1,168.6z"/>
	<path class="st1" d="M457.9,289.3c0,3.3,0,6.6,0,10c0,1.1,0.3,2.5-1.4,2.7c-1.5,0.1-2-0.9-2-2.3c0-7,0.1-14,0.1-20.9
		c0-1.3,0.5-2.4,2-2.2c1.3,0.1,1.3,1.3,1.3,2.3C457.9,282.3,457.9,285.8,457.9,289.3C457.9,289.3,457.9,289.3,457.9,289.3z"/>
	<path class="st1" d="M506.1,254c-0.1,9.5-4.4,15.3-10.8,19.8c-1.1,0.8-3.2,1.7-4.3-0.4c-1.1-2.1,1-2.3,2.2-3.1
		c7.2-4.4,10.2-11.3,8.5-19.3c-0.3-1.2-0.7-2.4,0.7-2.9c1.5-0.5,2.6,0.3,2.9,1.8C505.7,251.7,506,253.4,506.1,254z"/>
	<path class="st1" d="M485,206.7c3,0.8,4.9,2.7,6.6,4.7c1.3,1.6,2.6,3.5,3.3,5.5c0.8,2.3,3.5,5.7,0.3,6.9c-3.4,1.3-2.6-3.3-3.5-5.2
		c-1.6-3.5-4.3-5.7-7.4-7.6c-0.9-0.6-2-1.4-1.5-2.8C483.3,207.1,484.2,206.7,485,206.7z"/>
	<path class="st1" d="M438.7,210.2c-0.6,0.8-1.1,1.5-1.7,2c-2.9,2.6-5,5.7-5.9,9.5c-0.3,1.3-0.8,2.8-2.6,2.2
		c-1.6-0.5-1.5-1.7-1.1-3.2c1.2-4.6,3.6-8.5,7.1-11.7c0.7-0.7,1.6-1.5,2.6-0.8C437.7,208.7,438.1,209.5,438.7,210.2z"/>
	<path class="st1" d="M404.1,137.5c-3.1-3.6-3.7-8.1-4.1-12.6C402.8,128.7,403.1,133.2,404.1,137.5z"/>
	<path class="st1" d="M523,122.7c0.1,3.6-0.4,6.9-2.9,9.7C520.4,129,521.3,125.7,523,122.7z"/>
	<path class="st1" d="M436.8,227.4c-0.6-3.3-0.2-6.2,2.8-8.1C438.8,222.1,438.7,225.1,436.8,227.4z"/>
	<path class="st1" d="M426.8,233.5c0-2.1,1-3.1,3-3C429.2,231.8,428.3,232.9,426.8,233.5z"/>
	<path class="st1" d="M486.7,265.2c-1,1.3-2,1.4-3,0.1C484.7,265.3,485.7,265.3,486.7,265.2z"/>
	<path class="st1" d="M425.3,238.8c-0.7-1.4-0.9-2.7,0.7-3.7C426.3,236.4,426.3,237.7,425.3,238.8z"/>
	<path class="st1" d="M480.8,269.8c0.4-1.8,1-3.1,2.9-1.3C482.8,268.9,481.8,269.4,480.8,269.8z"/>
	<path class="st1" d="M427.8,253.4c-0.3-1-0.3-1.8,1-2.1C430.1,252.8,428.1,252.7,427.8,253.4z"/>
	<path class="st1" d="M476.7,268.8c-0.4,1.4-1.4,1.6-2.6,1.2C474.8,269.2,475.6,268.7,476.7,268.8z"/>
	<path class="st1" d="M471.7,270c-0.4,0.4-0.9,0.9-1.3,1.3C470,270,470.5,269.7,471.7,270z"/>
	<path class="st1" d="M475.6,272.6c0.5-1.3,1.5-1.4,2.6-1.1C477.5,272.3,476.7,272.8,475.6,272.6z"/>
	<path class="st1" d="M450.1,215c1,0,2.1,0,3.1-0.1C452.2,216.3,451.2,216.2,450.1,215z"/>
	<path class="st1" d="M524.9,115.4c1,1.1,0.4,1.6-0.6,2.1C524,116.6,524.3,116,524.9,115.4z"/>
	<path class="st1" d="M444.5,215.8c0.6-1.2,1.5-1.5,2.7-0.8C446.5,215.7,445.6,216.2,444.5,215.8z"/>
	<path class="st1" d="M526.7,112.1c-0.5,0.5-1,0.9-1.5,1.4C524.8,112.1,525.3,111.6,526.7,112.1z"/>
	<path class="st1" d="M426,243.5c-1.2-0.7-1.3-1.6-0.6-2.7C426.2,241.5,426.4,242.5,426,243.5z"/>
</g>
<path class="st0" d="M691.6,329c0-2.3,0-4.5,0-6.8c0-1.4,0.2-2.6,2-2.8c1.8-0.1,3.3,0.2,4.2,1.8c0.9,1.7,0.1,3.2-1.3,3.7
	c-2.2,0.7-3.3,2.1-3.5,4.7C692.7,329.4,692.1,329.2,691.6,329z"/>
<path class="st0" d="M689,328.4c-0.3-3.8-7.9-2.3-4.5-7.9c0.9-1.4,2.8-1.7,4-0.7C691.2,322.1,690.8,324.9,689,328.4z"/>
<path class="st0" d="M716.9,323.8c-0.5,1.7,0.2,3.6-1.1,5.5c-2.1-1.2-0.4-3.8-2.1-5.2c-2,1.1-0.4,3.7-2.2,5.2c-1.6-2-1.6-4.4-0.4-6
	c1.3-1.7,3.6-0.8,5.4,0.1C716.6,323.4,716.7,323.6,716.9,323.8z"/>
<path class="st0" d="M716.5,323.3c1.1-1.2,2.5-1.3,3.4,0c1.3,1.8,1.1,3.9,0.3,5.9c-2.9-1.1,0.4-5.2-3.3-5.5
	C716.7,323.6,716.6,323.4,716.5,323.3z"/>
<g>
	<path class="st1" d="M37.1,143.3c0-0.4,0-0.8,0-1.1c0-5-0.1-9.9,0-14.9c0.2-12.1,5.2-21.9,14.6-29.4c1.4-1.1,3-0.9,4,0.4
		c0.9,1.2,0.7,2.8-0.6,3.9c-6.5,5.2-10.6,11.8-12.1,20.1c-0.3,1.5-0.4,3-0.4,4.5c0,5.3,0,10.6,0,15.9c0,0.2,0,0.4,0,0.6
		c3.9,0,7.8,0,11.8,0c0-0.3,0-0.7,0-1c0-4.8,0-9.5,0-14.3c0-1.1,0.5-2,1.5-2.5c1-0.5,1.9-0.4,2.8,0.3c0.8,0.6,1.1,1.4,1,2.4
		c0,4.6,0,9.2,0,13.9c0,0.4,0,0.8,0,1.2c10.2,0,20.4,0,30.7,0c0-0.4,0-0.7,0-1.1c0-4.7,0-9.5,0-14.2c0-1.3,0.8-2.3,2-2.6
		c1.2-0.3,2.4,0.2,3,1.2c0.3,0.5,0.4,1.1,0.4,1.7c0,4.7,0,9.3,0,14c0,0.3,0,0.7,0,1.1c4,0,7.8,0,11.8,0c0-0.4,0-0.7,0-1
		c0-4.9,0.1-9.9,0-14.8c-0.2-10.1-4.1-18.6-11.8-25.2c-0.9-0.8-1.4-1.6-1.2-2.8c0.4-2,2.7-2.9,4.4-1.5c2.7,2.1,4.9,4.6,6.9,7.4
		c4.7,6.7,7,14.2,7.1,22.4c0,4.8,0,9.7,0,14.5c0,0.3,0,0.7,0,1.1c0.4,0,0.7,0,1.1,0c4.5,0,9,0,13.4,0c1.9,0,3,1.1,3,2.8
		c-0.1,1.3-1.1,2.4-2.4,2.5c-0.3,0-0.6,0-0.8,0c-34.7,0-69.5,0-104.2,0c-2.1,0-3.3-1-3.2-2.8c0-1.3,0.9-2.3,2.2-2.5
		c0.4-0.1,0.8-0.1,1.2-0.1C27.7,143.3,32.3,143.3,37.1,143.3z"/>
	<path class="st1" d="M96.2,77.5c0,11.7-9.5,21.2-21.2,21.2c-11.8,0-21.2-9.4-21.3-21.2C53.7,65.9,63.4,56.2,75,56.3
		C86.7,56.3,96.2,65.8,96.2,77.5z M74.9,93.4c8.6,0.1,15.9-7,16-15.7c0.1-8.6-6.9-15.9-15.5-16c-8.9-0.1-16.1,6.8-16.2,15.7
		C59,86,66.1,93.2,74.9,93.4z"/>
	<path class="st1" d="M109.8,45.2c-1.7-1.7-3.4-3.4-5-5c-1.9-1.9-1.4-4.1,1.2-5c7.9-2.6,15.8-5.2,23.6-7.8c0.6-0.2,1.2-0.3,1.7-0.3
		c1.3,0.1,2.2,1.1,2.4,2.3c0.2,1.3-0.5,2.5-1.8,2.9c-2.8,1-5.7,1.9-8.6,2.9c-4,1.3-7.9,2.6-12,4c0.2,0.2,0.4,0.4,0.5,0.6
		c1.5,1.5,3,3,4.5,4.5c1.5,1.6,1.1,3.8-1,4.6c-6.3,2.5-12.5,5-18.8,7.5c-1.5,0.6-3.1,0-3.6-1.4c-0.6-1.4,0.1-2.9,1.7-3.5
		c4.7-1.9,9.5-3.8,14.2-5.7C109.1,45.5,109.4,45.3,109.8,45.2z"/>
	<path class="st1" d="M22.2,79c0-2.4,0-4.7,0-6.9c0-2.5,1.8-3.7,4.1-2.7c6.1,2.6,12.2,5.2,18.3,7.9c1.7,0.7,2.4,2.3,1.6,3.8
		c-0.7,1.4-2.2,1.9-3.7,1.2c-4.2-1.8-8.4-3.6-12.6-5.4c-0.7-0.3-1.4-0.6-2.3-1c0,0.4-0.1,0.7-0.1,0.9c0,2.1,0,4.2,0,6.3
		c0,2.5-1.9,3.7-4.2,2.6C15.7,81.8,8.2,78,0.6,74.2c-1.6-0.8-2.1-2.3-1.4-3.7c0.7-1.4,2.3-1.8,3.8-1c6,3,12.1,6.1,18.1,9.1
		C21.4,78.6,21.7,78.8,22.2,79z"/>
	<path class="st1" d="M127.8,76c0,2.4,0,4.7,0,6.9c0,2.5-1.8,3.7-4.1,2.7c-6.1-2.6-12.3-5.3-18.4-7.9c-1.3-0.6-1.9-1.6-1.8-2.9
		c0.1-1.2,1-2.2,2.3-2.3c0.6,0,1.3,0.1,1.9,0.4c4.6,1.9,9.2,3.9,13.7,5.9c0.3,0.1,0.6,0.2,1,0.4c0-0.4,0-0.7,0.1-0.9
		c0-2.1,0-4.2,0-6.3c0-2.5,2-3.7,4.2-2.6c7.6,3.8,15.1,7.6,22.7,11.4c1.6,0.8,2.2,2.3,1.4,3.8c-0.7,1.4-2.3,1.8-3.8,1
		c-6.1-3-12.1-6.1-18.2-9.1C128.5,76.4,128.2,76.2,127.8,76z"/>
	<path class="st1" d="M43.1,43c-1.8,1.7-3.4,3.3-5.1,5c-1.9,1.8-4.1,1.3-4.9-1.2c-2.6-8.1-5.1-16.2-7.7-24.2c-0.4-1.2-0.2-2.2,0.7-3
		C27,18.8,28,18.6,29,19c0.9,0.4,1.4,1.1,1.6,2c2,6.4,4.1,12.9,6.1,19.3c0.1,0.3,0.2,0.6,0.3,1c0.7-0.7,1.3-1.3,2-1.9
		c1.1-1,2.1-2.1,3.2-3.1c1.5-1.4,3.7-0.9,4.4,1c2.5,6.4,4.9,12.7,7.3,19.1c0.6,1.5-0.1,3-1.5,3.6c-1.4,0.6-2.9-0.1-3.5-1.7
		c-1.8-4.7-3.6-9.5-5.4-14.2C43.4,43.7,43.3,43.4,43.1,43z"/>
	<path class="st1" d="M73.5,24.7c2.5,0,4.8,0,7.2,0c1.9,0,3.2,1.5,2.8,3.3c-0.1,0.3-0.2,0.5-0.3,0.8c-2.6,6.1-5.2,12.2-7.9,18.3
		c-0.7,1.6-2.2,2.3-3.7,1.7c-1.4-0.6-1.9-2.2-1.2-3.8c2-4.6,3.9-9.2,5.9-13.7c0.2-0.4,0.3-0.7,0.5-1.2c-2.5,0-4.8,0-7.1,0
		c-0.4,0-0.9,0-1.3-0.1c-1.6-0.5-2.3-2.2-1.6-3.8c1.8-3.7,3.7-7.3,5.5-11c2-4,4-8,6-12c0.5-0.9,1.1-1.6,2.2-1.7c1-0.1,1.9,0.2,2.5,1
		c0.7,0.9,0.7,1.9,0.2,2.9c-1.2,2.5-2.5,4.9-3.7,7.4c-1.9,3.7-3.7,7.4-5.6,11.1C73.8,24,73.7,24.3,73.5,24.7z"/>
</g>
</svg>
