<?xml version="1.0" encoding="utf-8"?>
<!-- Generator: Adobe Illustrator 24.3.0, SVG Export Plug-In . SVG Version: 6.00 Build 0)  -->
<svg version="1.1" id="Layer_1" xmlns="http://www.w3.org/2000/svg" xmlns:xlink="http://www.w3.org/1999/xlink" x="0px" y="0px"
	 viewBox="0 0 150 150" style="enable-background:new 0 0 150 150;" xml:space="preserve">
<style type="text/css">
	.st0{fill:#005BAB;}
	.st1{fill:#FFFFFF;}
</style>
<g>
	<g>
		<path class="st0" d="M48.6,1.4c1.2,0.6,2.4,1.1,3.4,2c1.5,1.3,2.1,3,2.1,5c0,2.4,0,4.9,0,7.3c0,0.5,0,1,0,1.7c1.9,0,3.7,0,5.5,0
			c4.7,0,7.4,2.8,7.4,7.4c0,4.1,0,8.2,0,12.4c0.8,0,1.4,0,2.1,0c0.3-1.6,0.6-3.3,1-4.9c2.9-11.2,13.2-19.1,24.7-19.2
			c5,0,10,0,14.9,0c3.9,0,6.7,2.6,6.8,6.5c0.1,3.8,0.1,7.6,0,11.4c-0.1,4-2.8,6.6-6.8,6.6c-4.6,0-9.2,0-13.8,0c-0.9,0-1.9,0-2.2,1.1
			c-0.4,1.4,0,2.7,1,3.3c1.5,1,2.9,2.7,4.6,3c1.6,0.3,3.5-0.7,5.3-1c0.8-0.2,1.7-0.2,2.6-0.2c5.2,0,10.3,0,15.5,0
			c3.7,0,6.5,2.7,6.6,6.4c0.1,3.9,0.1,7.8,0,11.6c-0.1,3.7-2.9,6.3-6.6,6.4c-3.7,0.1-7.5,0-11.2,0c-0.5,0-1,0-1.6,0
			c0,4.6,0,9,0,13.2c2.6,0,5.1-0.1,7.6,0c11.6,0.8,22,10.4,23.7,22c1.3,9.3-1.4,17.3-8.2,23.8c-0.5,0.5-1,0.9-1.5,1.3
			c-1,0.7-2,0.5-2.8-0.4c-0.8-0.9-0.7-1.9,0.1-2.9c0.3-0.3,0.6-0.5,0.9-0.8c4.4-3.8,6.9-8.6,7.6-14.5c-2.4-0.2-4.8-0.6-6.6,1.6
			c-0.6,0.7-1.3,1.2-2.1,1.8c-1.6,1.2-3.3,0.6-3.7-1.3c-0.5-2.4-0.8-4.9-1.5-7.4c-0.2,0.6-0.3,1.2-0.5,1.8
			c-1.2,5.6-2.5,11.1-3.7,16.7c-0.3,1.2-0.7,2.2-2.1,2.3c-1.5,0.1-2-1-2.4-2.2c-0.7-2.6-1.4-5.3-2.1-7.9c-0.1-0.3-0.2-0.6-0.4-1.1
			c-0.9,2.8-1.7,5.3-2.4,7.8c-0.4,1.2-0.9,2.1-2.4,2c-1.4-0.1-1.9-1-2.1-2.3c-0.7-5.1-1.5-10.1-2.3-15.2c-0.1-0.4-0.2-0.8-0.3-1.6
			c-0.6,1.3-1,2.3-1.4,3.3c-0.5,1.2-1.3,1.7-2.5,1.7c-1.8,0-3.6,0-5.8,0c0.5,2,0.9,3.9,1.6,5.7c4.1,10.7,15.5,16.5,26.6,13.4
			c0.3-0.1,0.6-0.2,1-0.3c1.2-0.2,2.2,0.3,2.6,1.5c0.3,1.1-0.2,2.3-1.4,2.6c-2.1,0.5-4.2,1-6.3,1.2c-6.5,0.5-12.3-1.3-17.7-5.2
			c-0.3,0.4-0.7,0.8-1,1.2c-10.9,12.7-24.7,18.9-41.4,18.3c-23.2-0.8-43.3-18.5-47.3-41.3c-0.6-3.2-0.9-6.6-0.9-9.9
			c-0.1-24,0-48,0-72c0-5,2.7-7.7,7.7-7.7c2.2,0,4.3,0,6.5,0c2.1,0,4.2,0,6.4,0c0-2.4,0-5.1,0-7.8c0-5,1-6.7,5.6-8.5
			C39.4,1.4,44,1.4,48.6,1.4z M69.2,41.7c-0.6,0-1,0-1.4,0c-9.2,0-18.4,0-27.6,0c-15,0-27.2,12-27.4,27c-0.1,9.9-0.1,19.8,0,29.7
			c0.2,19.3,11.9,36,29.9,42.9c6.1,2.3,12.4,3.7,19,2.7c6.2-1,10.6-4.6,13.4-10.3c-0.5-0.1-0.8-0.2-1.1-0.3
			c-2.5-0.3-4.8-1.3-6.8-2.9c-3.6-2.8-5.5-6.5-5.8-10.9c-0.1-1.5,0.7-2.5,2-2.6c1.2-0.1,2.1,0.8,2.3,2.3c0.1,0.6,0.1,1.1,0.2,1.7
			c0.9,4.9,5.9,8.8,10.5,8.2c0.5-2.6,0.4-5.2-0.3-7.8c-2.1-7.9-9.2-13.4-17.4-13.6c-0.1,0-0.3,0-0.4,0c-1.5,0-2.4-0.8-2.5-2.1
			c-0.1-1.3,0.9-2.2,2.4-2.2c5.3,0,10,1.6,14.1,4.8c0.9,0.7,1.8,1.6,2.7,2.3c2.4-3.2,2.1-8.5-0.7-11.9c-0.4-0.4-0.8-0.8-1.1-1.3
			c-0.7-1-0.6-1.9,0.2-2.7c0.8-0.8,1.8-0.9,2.7-0.2c0.4,0.3,0.8,0.7,1.1,1.1c4.4,5,4.9,12.3,1.3,17.9c-0.3,0.4-0.6,1-0.5,1.4
			c1,2.7,2.1,5.4,3.1,8.1c4.5-0.8,8.3-6,7.6-10.5c-2-12.3,4.1-23.7,15.3-28.8c0.8-0.4,1.1-0.8,1.1-1.7c-0.1-4.5,0-8.9,0-13.4
			c-0.1-5.6-1.7-10.6-4.9-15.2c-1.8-2.6-4-4.9-6.9-6.9c0,1,0,1.7,0,2.4c0,9,0,18,0,27c0,1.7-0.9,2.7-2.2,2.7c-1.2,0-2.1-0.9-2.1-2.4
			c0-12.5,0-24.9,0-37.4c0-2.6,1.7-4.7,4.3-5.3c1-0.2,2.1-0.2,3.1-0.2c2.4,0,4.7,0,7,0c0-5.4,0-10.5,0-15.8c-3.2,0-6.4-0.1-9.6,0
			c-10.1,0.3-18.9,8.1-20.3,18c-0.5,3.8-0.3,7.6-0.4,11.5c0,1.6-0.9,2.6-2.2,2.6c-1.3,0-2.1-1-2.1-2.6
			C69.2,45.4,69.2,43.6,69.2,41.7z M137,105.7c-0.8-11.4-11.7-20.6-23.1-19.9c-13.5,0.9-20.6,12.4-20.6,20c1,0,2.1-0.1,3.1,0
			c0.9,0.1,1.4-0.2,1.7-1.1c1.1-2.8,2.3-5.5,3.4-8.2c0.5-1.1,1.2-1.9,2.5-1.7c1.2,0.2,1.7,1.1,1.9,2.2c0.5,3.3,0.9,6.5,1.4,9.8
			c0.2,1.6,0.5,3.3,0.8,4.9c0.8-1.8,1.3-3.5,1.9-5.2c0.4-1.2,0.8-2.3,2.3-2.3c1.5,0,2,1.1,2.3,2.3c0.6,2.5,1.3,4.9,2.1,7.7
			c0.2-0.8,0.3-1.1,0.4-1.5c1.5-6.8,3-13.5,4.5-20.3c0.3-1.2,0.9-2,2.2-2c1.4,0,2,0.9,2.2,2.2c0.2,1.2,0.4,2.5,0.6,3.7
			c0.6,3.8,1.2,7.5,1.9,11.7C130.7,104.7,134,106.1,137,105.7z M33.6,15.1c0,7.6,0,15.2,0,22.8c2.8-0.2,5.6-0.4,8.5-0.7
			c0-0.5,0-1.1,0-1.7c0-3.8-0.1-7.7,0.1-11.5c0.1-3.7,2.8-6.3,6.5-6.6c0.4,0,0.7-0.1,1.2-0.2c0-0.6,0-1,0-1.5c0-0.3-0.1-0.5-0.1-0.7
			C44.3,15.1,39.1,15.1,33.6,15.1z M12.9,52.8c5.1-7.2,7.3-9,15.6-13.2c0.3-0.1,0.7-0.5,0.7-0.8c0.1-2.6,0-5.1,0-7.5
			c-5.5,0-10.9,0-16.3,0C12.9,38.3,12.9,45.4,12.9,52.8z M102.8,48.6c0,0.2,0,0.3-0.1,0.5c3.4,4.2,5.6,9,6.6,14.3
			c0.1,0.3,0.6,0.7,0.9,0.7c2.1,0.1,4.3,0,6.4,0c0-5.3,0-10.5,0-15.5C112,48.6,107.4,48.6,102.8,48.6z M75.7,141.1
			c8.2-3,14.9-8,20.1-14.8c-1.5-2-2.8-3.9-4.3-5.9c-2.3,3.7-5.5,6.1-9.8,7.1c-0.3,0.1-0.6,0.6-0.7,1c-0.3,1.3-0.5,2.6-0.8,3.9
			C79.4,135.6,77.7,138.4,75.7,141.1z M62.6,31c-5.4,0-10.8,0-16.2,0c0,2.1,0,4.1,0,6.2c5.4,0,10.8,0,16.2,0
			C62.6,35,62.6,32.9,62.6,31z M41.5,10.9c1.8,0,3.6,0,5.4,0c1.7,0,2.8-1.1,2.8-2.6c0-1.5-1.1-2.6-2.8-2.6c-3.5,0-7.1,0-10.6,0
			c-1.7,0-2.8,1-2.8,2.6c0,1.5,1.1,2.5,2.8,2.6C38.1,10.9,39.8,10.9,41.5,10.9z M21.1,22.1c-1.8,0-3.6,0-5.4,0c-1.7,0-2.7,1-2.7,2.5
			c0,1.5,1,2.6,2.7,2.6c3.6,0.1,7.3,0,10.9,0c1.6,0,2.7-1.1,2.7-2.5c0-1.5-1.1-2.5-2.8-2.6C24.6,22,22.8,22.1,21.1,22.1z M54.6,21.7
			c-1.8,0-3.6,0-5.4,0c-1.7,0-2.7,1-2.7,2.5c0,1.5,1,2.6,2.7,2.6c3.6,0.1,7.3,0.1,10.9,0c1.8,0,2.8-1.1,2.7-2.7
			c-0.1-1.5-1.1-2.4-2.8-2.4C58.1,21.7,56.4,21.7,54.6,21.7z M125,56.2c0-1.8,0-3.5,0-5.3c0-1.7-0.9-2.6-2.2-2.6
			c-1.3,0-2.1,1-2.1,2.6c0,3.5,0,7.1,0,10.6c0,1.6,0.8,2.5,2,2.6c1.3,0.1,2.2-1,2.2-2.6C125,59.7,125,57.9,125,56.2z M108,25.3
			c0,1.9,0,3.7,0,5.6c0,1.5,0.8,2.4,2.1,2.4c1.3,0,2.2-0.8,2.2-2.3c0-3.7,0-7.5,0-11.2c0-1.4-1-2.3-2.2-2.3c-1.2,0.1-2,1-2,2.3
			C108,21.7,108,23.5,108,25.3z"/>
		<path class="st0" d="M34.5,82.3c-4.5,0.7-8,4.8-8.3,9.6c-0.1,1.3-0.5,2.3-1.8,2.6c-1.4,0.3-2.5-0.8-2.5-2.5
			c0-6.7,5.3-12.9,12-14.1c1.1-0.2,1.5-0.6,1.9-1.6c1-2.3,2.2-4.5,3.4-7c-2.5-1.7-5.5-2.1-8.6-1.1c-1.5,0.5-2.8,1.4-4.1,2.3
			c-1.3,0.9-2.4,1.1-3.3,0.1c-0.9-1-0.8-2.2,0.4-3.4c4.6-4.3,12.3-5.6,18.6-1.2c2.9-1.5,5.8-3,8.8-4.6c0-3.2-3.4-7.1-7.4-8.1
			c-0.8-0.2-1.7-0.3-2.6-0.3c-1.5-0.2-2.3-1-2.3-2.3c0-1.3,0.9-2,2.4-2c6.4,0,12.4,4.7,14,11.1c0.1,0.4,0.2,0.7,0.3,1.2
			c4.9-0.2,9.4,0.9,13.8,3.6c0-2.5,0-4.7,0-6.9c0-0.7,0-1.3,0-2c0.1-1.1,0.8-1.7,1.9-1.9c1.1-0.1,1.9,0.4,2.2,1.4
			c0.1,0.4,0.2,0.9,0.2,1.4c0,6.3,0,12.6,0,19c0,0.8-0.2,1.7-0.8,2.2c-0.5,0.4-1.6,0.6-2.2,0.4c-0.6-0.2-1.2-1.1-1.3-1.8
			c-0.2-1.8,0-3.5-0.1-5.3c0-0.4-0.1-1-0.4-1.3c-4.7-4.3-12.3-5.6-17.3-3.5c0.9,2.5,2.1,4.8,2.6,7.4c0.9,4.6-0.6,8.7-3.7,12.2
			c-1.1,1.2-2.3,1.4-3.3,0.5c-1.1-0.9-1-2.1,0.1-3.4c3.8-4.6,3.8-10.5-0.2-14.5c-0.3,0.2-0.6,0.3-0.9,0.5
			c-8.4,6.2-9.8,18.5-2.9,26.5c0.4,0.5,0.9,0.9,1.2,1.4c0.6,0.9,0.5,1.9-0.3,2.6c-0.8,0.8-1.8,0.9-2.7,0.2c-0.7-0.6-1.3-1.3-1.9-2
			C35.8,93.4,34.1,88.2,34.5,82.3z"/>
	</g>
	<circle class="st1" cx="114.7" cy="108" r="22.7"/>
	<g>
		<path class="st0" d="M115.9,104.9c1.7,1,3.4,1.9,5,2.9c1.3,0.7,1.3,1.7,0.1,2.5c-4,2.7-8.1,5.4-12.1,8.2c-0.8,0.6-1.6,0.5-2-0.1
			c-0.4-0.7-0.3-1.4,0.6-1.9c1.8-1.2,3.7-2.5,5.5-3.7c1.7-1.2,3.4-2.3,5.2-3.5c-1.7-1-3.2-1.9-4.8-2.8c-1.1-0.6-1.2-1.5-0.3-2.4
			c3.6-3.3,7.2-6.6,10.8-9.9c0.5-0.4,0.9-0.7,1.6-0.4c0.9,0.4,1,1.4,0.2,2.2c-1.8,1.7-3.7,3.4-5.5,5.1
			C118.8,102.2,117.4,103.5,115.9,104.9z"/>
		<path class="st0" d="M105.7,104.2c-1.5,0-2.8,0-4.1,0c-1.3,0-1.9-0.8-1.4-2c1.4-3.8,2.8-7.6,4.3-11.4c0.3-0.7,0.8-1.1,1.4-1
			c0.6,0.1,1,0.5,1,1.1c0,0.3-0.1,0.5-0.2,0.8c-1.1,3-2.3,6.1-3.4,9.1c-0.1,0.2-0.2,0.5-0.3,0.8c1.6,0,3,0,4.5,0
			c1.4,0,1.9,0.9,1.3,2.1c-2.1,3.8-4.3,7.6-6.5,11.3c-0.4,0.7-1.1,0.9-1.8,0.5c-0.7-0.4-0.8-1.1-0.3-1.9c1.6-2.8,3.2-5.6,4.8-8.5
			C105.3,104.9,105.5,104.6,105.7,104.2z"/>
		<path class="st0" d="M122.6,117.7c0.8,1.1,1.5,2.1,2.2,3c0.4,0.5,0.6,1,0.3,1.6c-0.3,0.6-0.8,0.7-1.4,0.8
			c-4.2,0.4-8.4,0.9-12.6,1.3c-0.5,0-1.1-0.1-1.4-0.4c-0.3-0.2-0.4-0.9-0.2-1.2c0.2-0.4,0.7-0.8,1.2-0.8c2.9-0.4,5.8-0.6,8.7-1
			c0.7-0.1,1.4-0.2,2.3-0.3c-0.7-1-1.4-1.9-2-2.8c-0.9-1.3-0.6-2.2,1-2.5c3.7-0.7,7.5-1.4,11.2-2.1c0.3-0.1,0.7-0.1,1,0
			c0.6,0.1,0.9,0.6,0.9,1.2c0,0.7-0.4,1.1-1.1,1.2c-1.3,0.3-2.5,0.5-3.8,0.7C126.8,116.9,124.8,117.3,122.6,117.7z"/>
	</g>
</g>
<g>
	<path class="st0" d="M-137.4,132.3c-0.3,4.2-1,7.9-0.8,11.5c0.4,10.9-3.4,20.1-11.2,27.6c-0.4,0.4-0.6,1.2-0.6,1.8
		c-0.1,2.9,0,5.8,0,8.7c0,2.4-1.1,3.5-3.5,3.5c-5.5,0-11.1,0-16.6,0c-2.4,0-3.5-1.1-3.5-3.5c0-2.8,0.1-5.7,0-8.5
		c0-0.8-0.4-1.7-0.9-2.2c-7.2-7.1-11.1-15.6-10.9-25.9c0-4.1-0.5-8.3-0.8-12.6c-2.2,2.3-3.9,4.4-6,6.2c-3.7,3.2-8.1,4.9-13,5.1
		c-0.6,0-1.2,0.2-1.8,0.4c-3,1.4-6.1,1.4-9.2,0.5c-6.9-2.1-12.7-9.4-12.2-17c0.2-2.4-1-4.9-1.2-7.4c-0.9-10.4,2.4-19.2,10.9-25.5
		c7.9-5.8,18.5-5.4,26,0.7c1,0.8,1.9,1,3.1,0.6c8.4-2.7,16.9-5,25.7-5.4c9.8-0.4,19.1,2.1,28.4,5c2,0.6,3.3,0.6,5.1-0.7
		c10-7.5,23.6-5,31.1,5.6c5.2,7.3,6.4,15.4,4.3,24.1c-0.3,1.3-0.5,2.7-0.5,4c0.1,9.1-8.2,17.2-17.3,16.7c-0.4,0-0.7,0-1.1-0.1
		c-3.2-0.7-6.3-1.3-9.4-2.2c-5.2-1.4-9.4-4.5-12.6-8.9C-136.2,133.9-136.6,133.3-137.4,132.3z M-179.4,151.4c6.5-2,9.2-6,8.3-11.6
		c-0.2-1.4-0.2-2.8-0.5-4.2c-0.8-5.4-2.1-10.7-5.4-15.3c-2.1-2.9-4.7-5.1-8.3-5.7c-1.6-0.2-2.9-0.8-3.2-2.5
		c-0.3-1.8,0.8-2.8,2.3-3.5c10.2-4.6,20.8-7.1,32.1-5.1c5.8,1,11.4,2.7,16.6,5.2c1.4,0.7,2.3,1.7,2,3.3c-0.3,1.6-1.4,2.3-3,2.5
		c-1.4,0.2-2.8,0.7-4,1.4c-3.2,1.8-5.2,4.6-6.7,7.9c-2.4,5.1-3.1,10.5-3.8,16.1c-0.6,5,1.4,9.5,8.3,11.4c0.1-1.4,0.3-2.7,0.4-4
		c0.3-4.3,0.2-8.6,0.8-12.9c0.6-4.2,1.7-8.4,2.8-12.6c0.4-1.5,1.5-2.3,3-2.2c1.5,0.1,2.3,1,2.7,2.4c0.1,0.5,0.2,1,0.3,1.4
		c1.1,4,3,7.5,6.1,10.3c1.8,1.6,3.9,2.9,6.2,3.6c0.2-1.9,0.4-3.6,0.5-5.3c0-0.4-0.4-0.9-0.8-1.2c-8.1-5.4-9.3-18.3-2.3-25.1
		c4.3-4.2,10.3-4.1,14.5,0.1c2.3,2.2,3.6,5,4.1,8.1c0.3,1.6,0.4,3.3,0.5,4.7c1.9,0.5,3.7,0.9,5.4,1.4c1-3.4-0.1-9.4-2.4-13.7
		c-5.9-10.8-18.5-12.8-26.6-4.4c-1.2,1.2-2.5,1.4-4,0.9c-3.6-1.2-7.3-2.3-10.9-3.3c-7.2-1.8-14.5-3.3-22-2.5
		c-8.1,0.9-15.8,2.9-23.4,5.5c-2.2,0.7-3.8,0.5-5.5-1.2c-3.7-3.6-8.2-5.3-13.3-4.4c-8.2,1.5-12.5,7-14.7,14.6
		c-0.8,2.8-1.1,5.6-0.5,8.4c2-0.5,3.7-0.9,5.7-1.4c0-0.5,0-1.2,0-1.8c0.2-3.6,1.2-6.9,3.5-9.7c4.6-5.7,12-5.8,16.6,0
		c6.1,7.6,3.9,19.8-3.4,24c-0.3,0.2-0.7,0.7-0.7,1.1c0.1,1.8,0.3,3.5,0.5,5.6c1.6-0.9,3.2-1.5,4.5-2.5c4.4-3.1,6.9-7.4,8-12.6
		c0.4-1.6,1.1-2.7,2.9-2.8c1.8-0.1,2.8,1,3.1,2.6c1.1,5.2,2.3,10.4,3,15.7C-179.6,142.4-179.6,146.8-179.4,151.4z M-167.9,179.4
		c4.1,0,7.9,0,11.8,0c0-2.6,0.1-5,0-7.5c-0.1-1.8,0.6-3.1,2-4.3c3.3-2.9,5.9-6.4,7.6-10.4c-1.8-0.9-3.5-1.6-5.1-2.5
		c-4.7-2.8-7.3-7-7.2-12.5c0.1-6.9,1.3-13.6,4-19.9c1.8-4.2,4.4-7.9,8.3-10.8c-10.4-3.6-20.5-3.6-30.8-0.1c0.2,0.3,0.3,0.5,0.5,0.6
		c3.6,2.7,6,6.3,7.7,10.4c2.4,5.7,3.4,11.8,3.9,17.9c0.5,6.4-2.3,11.8-8,14.8c-1.4,0.7-2.8,1.4-4.3,2.1c1.9,4.2,4.5,7.7,7.9,10.6
		c1.2,1,1.7,2.1,1.7,3.7C-167.9,174.1-167.9,176.7-167.9,179.4z M-217.9,124.8c-3.1-0.1-4.8,1.7-4.7,4.8c0.1,5.1,5.6,10.3,10.6,10.1
		c2.6-0.1,4.2-1.7,4.3-4.3C-207.5,130.3-212.8,124.9-217.9,124.8z M-101.3,129.5c0-3-1.7-4.7-4.7-4.7c-5.1,0.1-10.3,5.5-10.2,10.5
		c0,2.7,1.7,4.3,4.4,4.4C-106.8,139.8-101.4,134.5-101.3,129.5z M-204.4,125.8c4-1.3,6.3-11,1.2-15.9c-1.9-1.8-4.2-1.8-6.1,0.1
		c-2.6,2.6-3.1,5.9-2.6,9.4c0.1,0.5,0.5,1,0.9,1.3C-209,122.4-206.9,124-204.4,125.8z M-119.4,125.8c2.4-1.8,4.6-3.5,6.8-5.2
		c0.3-0.2,0.6-0.6,0.7-1c0.6-3.6,0-6.9-2.6-9.6c-1.9-1.9-4.5-2-6.1,0.1c-1.3,1.6-2.2,3.7-2.7,5.7
		C-124.3,120.1-122.3,124.4-119.4,125.8z"/>
	<path class="st0" d="M-95.8,200.2c2.1,2.1,4.1,4.1,6.2,6.1c1.1,1,1.9,2.1,1.3,3.7c-0.5,1.5-1.7,1.9-3.2,2.1
		c-6.5,0.9-12.9,1.9-19.3,2.8c-2.6,0.4-4.1-1.2-3.8-3.8c0.9-6.6,1.8-13.2,2.9-19.7c0.2-1,1.1-2.4,2-2.7c0.9-0.3,2.4,0.2,3.2,0.9
		c2.2,1.9,4.2,4.1,6.3,6.4c3.9-4.3,7.1-8.8,9.8-13.6c26.8-47.2,2.7-106.1-49.5-121C-186.9,48-236.5,79.5-243.5,128
		c-5.1,35.4,8.2,63.3,37.8,83.3c0.7,0.4,1.4,0.9,1.8,1.5c0.8,1.2,0.7,2.5-0.3,3.5c-1.1,1.2-2.5,1.3-3.8,0.4c-3.9-2.8-8-5.3-11.6-8.5
		c-17.7-15.3-28-34.7-30.5-58c-4.4-42.1,21.1-80.7,59.9-93.1c34.7-11.1,65.5-3.4,91.5,22c14.4,14,22.4,31.6,24.6,51.6
		c2.9,25.7-4.3,48.4-20.9,68.2C-95.2,199.4-95.4,199.7-95.8,200.2z M-98,207.1c-2.9-2.9-5.9-5.9-8.8-8.8c-0.4,3.2-0.9,6.6-1.4,10.2
		C-104.5,208-101.2,207.5-98,207.1z"/>
	<path class="st0" d="M-164.9,205.2c0,6.2-4.2,10.1-9.6,9.7c-5.4-0.4-8.9-4.9-8-10.4c0.8-4.9,3.4-8.8,6.7-12.3
		c1.2-1.2,2.8-1.4,4-0.1C-168,196-165.2,200.4-164.9,205.2z M-173.3,199.1c-0.3,0-0.6,0-0.9,0c-0.8,1.9-1.7,3.8-2.4,5.8
		c-0.4,1.3-0.4,2.9,1.1,3.5c1,0.4,2.4,0.4,3.4,0c1.5-0.6,1.5-2.2,1.1-3.5C-171.6,203-172.5,201-173.3,199.1z"/>
	<path class="st0" d="M-159,219.9c0.4-4.8,3.2-9.3,7-13.1c1.2-1.2,2.8-1,4,0.3c3.3,3.5,5.9,7.4,6.6,12.3c0.8,5.5-2.7,10-8.1,10.4
		C-154.9,230.1-159,226.2-159,219.9z M-149.6,213.8c-0.3,0-0.7,0-1,0c-0.8,2.1-1.8,4.1-2.3,6.2c-0.2,1,0.4,2.6,1.1,3.1
		c0.8,0.5,2.3,0.4,3.4,0.1c1.4-0.5,1.5-2,1.2-3.2C-147.9,218-148.8,215.9-149.6,213.8z"/>
</g>
<g>
	<path class="st0" d="M-203-20.2c-0.8,1-1.5,1.8-2.1,2.7c-0.8-0.6-1.6-1.1-2.5-1.7c0.6-1,1.1-1.9,1.7-3
		C-204.9-21.5-204-20.9-203-20.2z"/>
	<path class="st0" d="M-210.3-20.5c-1-0.3-1.9-0.6-2.8-0.9c0.3-1.1,0.5-2.2,0.8-3.4c1.1,0.4,2.2,0.7,3.3,1.1
		C-209.5-22.6-209.9-21.6-210.3-20.5z"/>
	<path class="st0" d="M-200.4-17.9c0.8,0.9,1.5,1.7,2.2,2.6c-1,0.7-1.9,1.4-2.8,2c-0.6-0.8-1.3-1.5-1.8-2.2
		C-202-16.1-201.2-16.9-200.4-17.9z"/>
	<g>
		<path class="st0" d="M-300.5-11c0.2-1.6,0.3-3.3,0.6-4.9c1.4-8.1,2.7-16.3,4.2-24.4c1-5.2,2-10.4,3.4-15.5
			c1.1-4.3,2.7-8.6,4.2-12.8c0.8-2.3,2.7-3.7,5.1-4.2c5.6-1.2,11.2-2.5,16.8-3.6c3.5-0.7,6.5,0.5,8.7,3.3c1.5,1.8,2.8,3.8,4.1,5.7
			c1.7,2.5,1.5,5.7-0.4,8.2c-1,1.2-1.9,2.4-3,3.6c1.6,1.9,1.8,4,0.7,6.2c-1,2-2.6,3-4.8,3.2c-3,0.2-5.7-0.6-8.4-1.7
			c-1.5-0.6-2.9-1.4-4.3-2.1c-0.3-0.1-0.6-0.3-1.2-0.6c-0.3,3.4-0.8,6.5-0.8,9.7c-0.1,9.4,0.1,18.7,0.2,28.1c0,0.4,0.4,0.9,0.7,1.2
			c3.3,2.4,7,3.1,10.9,2.2c8.3-1.7,16.6-1.6,25-0.4c1.6,0.2,3.1,0.2,4.8-0.3c9.4-2.9,19-3.3,28.6-0.8c6.3,1.6,10.2,7.5,9.3,13.9
			c-0.4,2.7-0.9,5.4-1.6,8.1c-1.2,4.4-4,7-8.7,7.7c-9.9,1.4-19.7,0.9-29.2-2.2c-1.1-0.3-2-0.9-3.1-1.3c-0.3-0.1-0.8-0.3-1.1-0.1
			c-5,1.7-10.1,2.5-15.3,2.8c-8.4,0.4-16.8,0.2-25.1-1.5c-3.4-0.7-6.6-1.8-9.7-3.3c-6-3.1-9.5-7.9-10.1-14.7c-0.1-1-0.3-2-0.4-3
			C-300.5-6.8-300.5-8.9-300.5-11z M-235.3,13c0.5,0.2,1,0.4,1.5,0.5c4.3,1.4,8.7,2,13.1,2.3c5.2,0.3,10.4,0.3,15.5-1
			c1.1-0.3,2-0.8,2.6-1.8c0.5-0.8,1-1.6,1.2-2.4c0.7-2.6,1.3-5.3,1.7-7.9c0.8-4.9-2.1-9.1-6.9-10.3c-9.6-2.4-19.1-1.8-28.4,1.5
			c-0.4,0.1-0.9,0.2-1.3,0.2c-0.9-0.1-1.9-0.2-2.8-0.3c-8.1-1.1-16.2-1.3-24.4,0.4c-5.4,1.1-10.3-0.2-14.5-3.8
			c-0.5-0.4-0.9-1.2-0.9-1.9c-0.5-11.4-0.9-22.8,0.2-34.2c0.2-2.4,0.8-4.9,1.4-7.3c0.5-1.9,1.6-2,3.3-1.1c2.6,1.3,5.3,2.7,8,3.7
			c1.5,0.6,3.2,0.7,4.9,0.8c1.1,0.1,1.8-0.7,2-1.8c0.2-0.9-0.2-1.7-0.9-2.1c-1-0.5-2.1-0.8-3.2-1.2c-1.1-0.4-2.3-0.6-3.3-1.2
			c-2.4-1.6-3.9-4.1-5.3-6.7c1.1-0.5,2.1-1,3.1-1.6c1,1.8,2,3.4,3.5,4.8c0.1,0,0.2-0.1,0.3-0.1c0-1.3,0-2.6,0-3.8c1.2,0,2.3,0,3.6,0
			c-0.3,1.8-0.6,3.5-0.9,5.2c0.5,0.1,1.1,0.2,1.7,0.4c0.6,0.3,1,0.1,1.4-0.4c0.8-1,1.6-1.9,2.4-2.9c1.3-1.6,1.3-3,0.2-4.7
			c-1.1-1.6-2.3-3.2-3.4-4.8c-1.4-1.9-3.3-2.8-5.6-2.3c-5.6,1.1-11.2,2.4-16.8,3.6c-1.2,0.3-2.2,1.1-2.6,2.3c-1.4,4-3,7.9-3.9,12
			c-2.8,12.1-5.4,24.2-7.2,36.5c-0.8,5.5-1.2,11.1-0.5,16.7c0.7,5.4,3.3,9.3,8.1,11.8c4.1,2.2,8.5,3.2,13,3.8
			c7.9,1.1,15.8,1.3,23.7,0.4c6-0.7,11.9-1.8,16.9-5.7c0.9,0.7,1.8,1.4,2.7,2.1C-233.2,11.4-234.2,12.1-235.3,13z"/>
		<path class="st0" d="M-225.3-41.4c0.9-0.7,1.8-1.4,2.7-2.2c1.2,1.5,2.4,3,3.8,4.8c0-9.5,0-18.7,0-27.9c1.2,0,2.3,0,3.5,0
			c0,9.2,0,18.4,0,27.9c1.4-1.7,2.6-3.2,3.8-4.7c0.9,0.7,1.8,1.4,2.7,2.1c-0.3,0.4-0.5,0.7-0.8,1.1c-1.9,2.4-3.9,4.8-5.8,7.2
			c-1.1,1.4-2.2,1.4-3.3,0C-220.8-35.8-223-38.5-225.3-41.4z"/>
		<path class="st0" d="M-243-33.9c0-3.7,0-7.5,0-11.2c0-3.7,0-7.4,0-11.2c1.2,0,2.2,0,3.4,0c0,7.5,0,14.9,0,22.4
			c0.1,0,0.2,0.1,0.2,0.1c1.2-1.5,2.4-3,3.6-4.5c0.9,0.7,1.8,1.4,2.7,2.2c-1.9,2.4-3.8,4.7-5.7,7.1c-0.4,0.5-0.8,1-1.2,1.5
			c-0.9,1-2,1-2.8,0c-2.3-2.8-4.6-5.7-6.9-8.6c0.9-0.7,1.8-1.4,2.7-2.2c1.2,1.5,2.4,3,3.6,4.5C-243.2-33.8-243.1-33.9-243-33.9z"/>
		<path class="st0" d="M-235.7-17.1c-0.5,1.1-0.9,2.1-1.4,3.2c-1-0.4-1.9-0.7-2.9-1.1c0.4-1.1,0.7-2.1,1.1-3.3
			C-237.8-17.9-236.8-17.5-235.7-17.1z"/>
		<path class="st0" d="M-242.2-19.4c-0.3,1.2-0.6,2.2-0.9,3.3c-1-0.2-2-0.5-3.1-0.7c0.2-1.1,0.4-2.2,0.6-3.4
			C-244.4-19.9-243.4-19.7-242.2-19.4z"/>
		<path class="st0" d="M-259.3-20.3c1.2-0.2,2.2-0.3,3.4-0.5c0.1,1.2,0.2,2.3,0.3,3.4c-1,0.2-2,0.3-3.1,0.4
			C-258.9-18-259.1-19.1-259.3-20.3z"/>
		<path class="st0" d="M-262.7-19.4c0.4,1.2,0.7,2.2,1.1,3.3c-0.9,0.4-1.8,0.7-2.9,1.1c-0.5-1-0.9-2-1.4-3.1
			C-264.9-18.5-263.9-19-262.7-19.4z"/>
		<path class="st0" d="M-216.1-22c-1,0-2,0-3,0c0-1.1,0-2.2,0-3.4c1,0,2.1,0,3.4,0C-215.9-24.2-216-23.1-216.1-22z"/>
		<path class="st0" d="M-231.1-19.5c-0.5-1.1-0.9-2.1-1.4-3.2c1.1-0.4,2.1-0.8,3.2-1.2c0.3,1.2,0.7,2.2,1,3.3
			C-229.3-20.2-230.2-19.9-231.1-19.5z"/>
		<path class="st0" d="M-222.2-21.8c-1.1,0.2-2,0.3-3.1,0.5c-0.2-1.1-0.4-2.2-0.7-3.4c1.1-0.2,2.1-0.4,3.3-0.6
			C-222.5-24-222.4-23-222.2-21.8z"/>
		<path class="st0" d="M-252.3-20.9c1.2,0.1,2.2,0.1,3.4,0.2c-0.1,1.2-0.2,2.3-0.3,3.3c-1,0-2,0-3.1,0
			C-252.3-18.5-252.3-19.6-252.3-20.9z"/>
		<path class="st0" d="M-269.1-16.5c0.6,1,1.2,1.9,1.8,3c-1.1,0.5-2.1,1-3.2,1.5c-0.4-1.1-0.8-2.1-1.3-3.2
			C-270.9-15.6-270.1-16-269.1-16.5z"/>
	</g>
</g>
<g>
	<path class="st0" d="M-70.7,292.4c5.6,0,10.9,0,16.3,0c-11.6-10.4-7.7-25.1,0.3-31.1c8.9-6.7,22.3-5.3,29.1,5.6
		c0.3-0.3,0.6-0.5,0.9-0.8c11.8-11.1,25.6-15.4,41.6-13c3.5,0.5,6.2,2.3,7.9,5.4c0.6,1.1,1.2,1.3,2.4,1.3c8,0,16.1,0,24.1,0
		c12.1,0,20.8,8.7,20.8,20.8c0,21.3,0,42.5,0,63.8c0,0.5,0,1-0.1,1.4c-0.2,1.1-0.9,1.9-2,1.6c-0.7-0.2-1.4-0.9-1.9-1.6
		c-0.3-0.3-0.1-1-0.1-1.6c0-6.8,0-13.6,0-20.4c0-0.6,0-1.2,0-1.8c-46.5,0-92.8,0-139.4,0c0,0.6,0,1.2,0,1.7c0,6.8,0,13.6,0,20.4
		c0,0.5,0,1-0.1,1.4c-0.2,1.1-0.8,1.9-2,1.8c-1.2,0-1.8-0.8-1.9-1.9c0-0.4,0-0.9,0-1.3c0-33.3,0-66.6,0-99.9c0-0.3,0-0.6,0-1
		c0-1.3,0.5-2.2,1.9-2.3c1.3-0.1,2,0.7,2.1,2.2c0,0.5,0,1,0,1.4c0,15.1,0,30.1,0,45.2C-70.7,290.8-70.7,291.5-70.7,292.4z
		 M-70.6,296.6c0,7.2,0,14.3,0,21.3c46.5,0,92.8,0,139.1,0c0-7.2,0-14.2,0-21.3C22.1,296.6-24.2,296.6-70.6,296.6z M10.7,268.4
		c-5,0.3-9.7,0.9-14,3c-1.1,0.5-1.6,1.2-1.6,2.6c0.1,4.5,0,9,0,13.6c0,1.6,0,3.2,0,4.8c24.6,0,49,0,73.5,0c0-2,0-3.9,0-5.8
		c0-3.1,0.2-6.2-0.3-9.2c-1.2-8-7.8-13.4-16.2-13.4c-7.9-0.1-15.9,0-23.8,0c-0.5,0-0.9,0.1-1.5,0.1c0,4.4,0,8.6,0,12.9
		c0,2-0.4,3.9-1.7,5.5c-2.1,2.8-5.7,3.9-9,2.9c-3.3-1-5.6-4-5.6-7.5C10.7,274.8,10.7,271.7,10.7,268.4z M-8.9,292.4
		c0-6.6,0.1-13,0-19.4c0-1.9,0.6-3.2,2.2-4.1c0.6-0.4,1.2-0.7,1.8-1c5.4-2.7,11.1-3.3,17-3.5c2.1,0,2.7,0.6,2.7,2.6
		c0,3.4,0,6.8,0,10.2c0,2.7,1.7,4.5,4.1,4.5c2.4,0,4.1-1.8,4.1-4.5c0-4.3,0-8.5,0-12.8c0-3.9-2.4-6.8-6.2-7.3
		c-15.2-2.2-28.2,2.3-39.1,13.1c-0.7,0.7-0.8,1.3-0.6,2.3c1.6,7.2-0.4,13.3-5.5,18.5c-0.4,0.4-0.8,0.9-1.3,1.4
		C-22.8,292.4-16,292.4-8.9,292.4z M-40.4,292.2c0-0.3,0.1-0.4,0.1-0.6c0-9.7,0-19.4,0-29.2c0-1.3-0.7-1.3-1.6-1.3
		c-6.1,0.2-10.9,2.8-13.8,8.2c-2.9,5.4-2.6,11,0.8,16.1C-51.7,290.4-45.4,293.2-40.4,292.2z M-36.3,291.2c5.8-1.8,10.2-8.5,9.8-15.1
		c-0.4-6.3-5-12.7-9.8-13.5C-36.3,272.1-36.3,281.5-36.3,291.2z"/>
	<path class="st0" d="M55,215.1c4.4,0,8.6,0,12.8,0c3.1,0,3.4,0.3,3.4,3.4c0,4.3,0,8.5,0,12.8c0,2.2-0.6,2.8-2.7,2.8
		c-4.4,0-8.8,0-13.5,0c0,1,0,2,0,2.9c0,3.6,0,7.1,0,10.7c0,2-0.7,2.7-2.7,2.7c-4.5,0-8.9,0-13.4,0c-2.1,0-2.8-0.7-2.8-2.8
		c0-4.4,0-8.8,0-13.5c-0.6,0-1.2,0-1.8,0c-3.9,0-7.9,0-11.8,0c-1.9,0-2.6-0.7-2.6-2.6c0-4.6,0-9.1,0-13.7c0-2,0.7-2.6,2.7-2.6
		c3.8,0,7.7,0,11.5,0c0.6,0,1.2,0,1.9,0c0-0.7,0.1-1.2,0.1-1.8c0-3.9,0-7.9,0-11.8c0-1.9,0.7-2.6,2.6-2.6c4.6,0,9.1,0,13.7,0
		c1.9,0,2.6,0.6,2.6,2.6c0,3.9,0,7.8,0,11.6C55,213.7,55,214.3,55,215.1z M67.1,219.1c-0.7,0-1.3,0-1.9,0c-3.6,0-7.2,0-10.8,0
		c-3.1,0-3.4-0.3-3.4-3.3c0-3.6,0-7.2,0-10.8c0-0.6,0-1.2,0-1.9c-3.7,0-7.2,0-10.8,0c0,0.6-0.1,1-0.1,1.5c0,4,0,8,0,12
		c0,1.9-0.7,2.6-2.6,2.6c-1.5,0-3,0-4.5,0c-3,0-6,0-9.1,0c0,3.7,0,7.2,0,10.9c0.7,0,1.3,0,1.8,0c3.8,0,7.7,0,11.5,0
		c2.1,0,2.8,0.7,2.8,2.7c0,2.2,0,4.5,0,6.7c0,2.2,0,4.4,0,6.6c3.7,0,7.2,0,10.9,0c0-4.6,0-9,0-13.5c0-1.9,0.7-2.6,2.6-2.6
		c3.9,0,7.9,0,11.8,0c0.6,0,1.1-0.1,1.7-0.1C67.1,226.2,67.1,222.8,67.1,219.1z"/>
</g>
</svg>
