<?xml version="1.0" encoding="utf-8"?>
<!-- Generator: Adobe Illustrator 24.3.0, SVG Export Plug-In . SVG Version: 6.00 Build 0)  -->
<svg version="1.1" id="Layer_1" xmlns="http://www.w3.org/2000/svg" xmlns:xlink="http://www.w3.org/1999/xlink" x="0px" y="0px"
	 viewBox="0 0 150 150" style="enable-background:new 0 0 150 150;" xml:space="preserve">
<style type="text/css">
	.st0{fill:#005BAB;}
</style>
<g>
	<path class="st0" d="M95.6,67.7c-0.3,3.5-0.8,6.6-0.7,9.6c0.3,9.2-2.8,16.9-9.4,23.2c-0.3,0.3-0.5,1-0.5,1.5c-0.1,2.4,0,4.9,0,7.3
		c0,2-0.9,2.9-2.9,2.9c-4.6,0-9.3,0-13.9,0c-2,0-2.9-0.9-2.9-2.9c0-2.4,0-4.8,0-7.1c0-0.6-0.3-1.4-0.7-1.9c-6.1-6-9.3-13.1-9.2-21.7
		c0-3.5-0.4-7-0.6-10.6c-1.8,1.9-3.3,3.7-5,5.2c-3.1,2.7-6.8,4.1-10.9,4.3c-0.5,0-1,0.1-1.5,0.3c-2.5,1.2-5.1,1.2-7.7,0.4
		c-5.8-1.7-10.7-7.9-10.2-14.3c0.1-2-0.8-4.1-1-6.2c-0.7-8.7,2-16.1,9.2-21.4c6.6-4.9,15.5-4.5,21.8,0.6c0.9,0.7,1.6,0.9,2.6,0.5
		c7-2.3,14.2-4.2,21.6-4.5c8.2-0.3,16.1,1.7,23.8,4.2c1.7,0.5,2.8,0.5,4.3-0.6c8.4-6.3,19.8-4.2,26.1,4.7c4.3,6.1,5.4,12.9,3.6,20.2
		c-0.3,1.1-0.4,2.2-0.4,3.3c0.1,7.6-6.9,14.4-14.5,14c-0.3,0-0.6,0-0.9-0.1c-2.6-0.6-5.3-1.1-7.9-1.8c-4.4-1.2-7.8-3.8-10.6-7.4
		C96.6,69,96.3,68.5,95.6,67.7z M60.4,83.7c5.4-1.6,7.7-5,6.9-9.7c-0.2-1.2-0.2-2.4-0.4-3.5c-0.7-4.6-1.8-9-4.5-12.9
		c-1.7-2.4-3.9-4.3-7-4.7c-1.4-0.2-2.4-0.6-2.7-2.1c-0.3-1.5,0.6-2.4,1.9-3c8.6-3.9,17.5-5.9,26.9-4.3c4.9,0.8,9.5,2.2,14,4.4
		c1.2,0.6,1.9,1.4,1.7,2.8c-0.2,1.4-1.2,1.9-2.5,2.1c-1.1,0.2-2.3,0.6-3.3,1.2c-2.7,1.5-4.4,3.9-5.6,6.6c-2,4.3-2.6,8.8-3.2,13.5
		c-0.5,4.2,1.2,8,6.9,9.6c0.1-1.1,0.2-2.3,0.3-3.4c0.2-3.6,0.2-7.2,0.7-10.8c0.5-3.6,1.5-7.1,2.3-10.6c0.3-1.2,1.2-1.9,2.5-1.8
		c1.2,0.1,2,0.8,2.2,2c0.1,0.4,0.2,0.8,0.3,1.2c0.9,3.4,2.6,6.3,5.2,8.7c1.5,1.4,3.2,2.5,5.2,3c0.1-1.6,0.3-3,0.4-4.4
		c0-0.3-0.4-0.8-0.7-1c-6.8-4.5-7.8-15.3-1.9-21c3.6-3.5,8.6-3.5,12.2,0c1.9,1.9,3,4.2,3.5,6.8c0.2,1.4,0.3,2.7,0.4,3.9
		c1.6,0.4,3.1,0.8,4.5,1.2c0.8-2.9-0.1-7.9-2.1-11.5c-5-9-15.5-10.7-22.3-3.7c-1,1-2.1,1.1-3.4,0.7c-3-1-6.1-2-9.2-2.7
		c-6.1-1.5-12.2-2.8-18.5-2.1c-6.8,0.7-13.3,2.5-19.7,4.7c-1.8,0.6-3.2,0.4-4.6-1c-3.1-3-6.9-4.5-11.2-3.7
		c-6.8,1.2-10.5,5.9-12.3,12.2c-0.7,2.3-0.9,4.7-0.4,7.1c1.6-0.4,3.1-0.8,4.8-1.2c0-0.4,0-1,0-1.6c0.1-3,1-5.8,2.9-8.2
		c3.8-4.8,10.1-4.9,13.9,0c5.1,6.4,3.3,16.6-2.9,20.1c-0.3,0.2-0.6,0.6-0.6,0.9c0.1,1.5,0.2,2.9,0.4,4.7c1.3-0.7,2.6-1.3,3.8-2.1
		c3.7-2.6,5.8-6.2,6.7-10.6c0.3-1.3,1-2.3,2.4-2.4c1.5-0.1,2.3,0.9,2.6,2.2c0.9,4.4,1.9,8.8,2.5,13.2C60.3,76.1,60.2,79.8,60.4,83.7
		z M70.1,107.2c3.4,0,6.6,0,9.9,0c0-2.2,0.1-4.2,0-6.3c-0.1-1.5,0.5-2.6,1.6-3.6c2.8-2.4,4.9-5.3,6.4-8.7c-1.5-0.7-2.9-1.3-4.3-2.1
		c-3.9-2.4-6.1-5.9-6.1-10.5c0.1-5.8,1.1-11.4,3.3-16.7c1.5-3.5,3.7-6.6,7-9.1c-8.7-3.1-17.2-3.1-25.8,0c0.2,0.2,0.3,0.4,0.4,0.5
		c3,2.3,5,5.3,6.5,8.7c2,4.8,2.9,9.9,3.3,15c0.4,5.4-1.9,9.9-6.7,12.4c-1.2,0.6-2.4,1.1-3.6,1.7c1.6,3.5,3.8,6.5,6.6,8.9
		c1,0.8,1.5,1.8,1.4,3.1C70,102.7,70.1,104.9,70.1,107.2z M28.1,61.4c-2.6-0.1-4,1.4-4,4c0.1,4.3,4.7,8.6,8.9,8.5
		c2.2-0.1,3.5-1.4,3.6-3.6C36.8,66,32.4,61.5,28.1,61.4z M125.9,65.3c0-2.5-1.4-3.9-3.9-3.9c-4.3,0.1-8.7,4.6-8.6,8.8
		c0,2.3,1.4,3.6,3.7,3.7C121.3,74,125.9,69.5,125.9,65.3z M39.4,62.2c3.4-1.1,5.3-9.2,1-13.4c-1.6-1.5-3.6-1.5-5.1,0.1
		c-2.2,2.2-2.6,4.9-2.2,7.9c0.1,0.4,0.4,0.8,0.7,1.1C35.6,59.3,37.4,60.7,39.4,62.2z M110.7,62.2c2-1.5,3.9-2.9,5.7-4.4
		c0.3-0.2,0.5-0.5,0.6-0.9c0.5-3,0-5.8-2.2-8c-1.6-1.6-3.8-1.7-5.2,0.1c-1.1,1.4-1.9,3.1-2.2,4.8C106.6,57.4,108.3,61,110.7,62.2z"
		/>
	<path class="st0" d="M130.5,124.6c1.7,1.7,3.5,3.4,5.2,5.1c0.9,0.9,1.6,1.8,1.1,3.1c-0.4,1.2-1.5,1.6-2.7,1.7
		c-5.4,0.8-10.8,1.6-16.2,2.3c-2.2,0.3-3.5-1-3.2-3.2c0.8-5.5,1.5-11,2.4-16.5c0.1-0.9,0.9-2,1.7-2.3c0.7-0.3,2,0.2,2.7,0.8
		c1.9,1.6,3.5,3.5,5.3,5.3c3.2-3.6,5.9-7.4,8.2-11.4c22.5-39.6,2.3-89-41.5-101.5C54.1-3.1,12.5,23.4,6.6,64.1
		c-4.3,29.7,6.9,53.1,31.7,69.9c0.5,0.4,1.2,0.7,1.5,1.3c0.7,1,0.6,2.1-0.2,3c-0.9,1-2.1,1.1-3.2,0.4c-3.3-2.3-6.7-4.5-9.7-7.1
		C11.8,118.6,3.2,102.4,1.1,82.8C-2.6,47.5,18.8,15.1,51.3,4.7c29.1-9.3,55-2.9,76.8,18.5c12,11.8,18.8,26.5,20.7,43.3
		c2.4,21.6-3.6,40.6-17.5,57.2C131.1,123.9,130.9,124.2,130.5,124.6z M128.7,130.4c-2.5-2.5-4.9-4.9-7.4-7.4
		c-0.4,2.7-0.8,5.5-1.2,8.6C123.2,131.2,126,130.8,128.7,130.4z"/>
	<path class="st0" d="M72.5,128.9c0,5.2-3.5,8.5-8,8.1c-4.5-0.4-7.5-4.1-6.8-8.8c0.6-4.1,2.8-7.4,5.6-10.3c1-1,2.3-1.1,3.3-0.1
		C69.9,121.1,72.3,124.8,72.5,128.9z M65.5,123.7c-0.3,0-0.5,0-0.8,0c-0.7,1.6-1.5,3.2-2,4.9c-0.3,1.1-0.4,2.5,0.9,3
		c0.8,0.3,2,0.4,2.9,0c1.3-0.5,1.3-1.9,0.9-2.9C67,127,66.2,125.4,65.5,123.7z"/>
	<path class="st0" d="M77.5,141.2c0.3-4,2.7-7.8,5.9-11c1-1,2.4-0.8,3.3,0.2c2.8,2.9,5,6.2,5.6,10.3c0.7,4.6-2.3,8.4-6.8,8.7
		C81,149.7,77.5,146.5,77.5,141.2z M85.4,136.1c-0.3,0-0.6,0-0.9,0c-0.7,1.7-1.5,3.4-1.9,5.2c-0.2,0.8,0.3,2.2,1,2.6
		c0.7,0.5,2,0.4,2.8,0.1c1.1-0.4,1.3-1.6,1-2.6C86.8,139.6,86.1,137.8,85.4,136.1z"/>
</g>
<g>
	<path class="st0" d="M-203-20.2c-0.8,1-1.5,1.8-2.1,2.7c-0.8-0.6-1.6-1.1-2.5-1.7c0.6-1,1.1-1.9,1.7-3
		C-204.9-21.5-204-20.9-203-20.2z"/>
	<path class="st0" d="M-210.3-20.5c-1-0.3-1.9-0.6-2.8-0.9c0.3-1.1,0.5-2.2,0.8-3.4c1.1,0.4,2.2,0.7,3.3,1.1
		C-209.5-22.6-209.9-21.6-210.3-20.5z"/>
	<path class="st0" d="M-200.4-17.9c0.8,0.9,1.5,1.7,2.2,2.6c-1,0.7-1.9,1.4-2.8,2c-0.6-0.8-1.3-1.5-1.8-2.2
		C-202-16.1-201.2-16.9-200.4-17.9z"/>
	<g>
		<path class="st0" d="M-300.5-11c0.2-1.6,0.3-3.3,0.6-4.9c1.4-8.1,2.7-16.3,4.2-24.4c1-5.2,2-10.4,3.4-15.5
			c1.1-4.3,2.7-8.6,4.2-12.8c0.8-2.3,2.7-3.7,5.1-4.2c5.6-1.2,11.2-2.5,16.8-3.6c3.5-0.7,6.5,0.5,8.7,3.3c1.5,1.8,2.8,3.8,4.1,5.7
			c1.7,2.5,1.5,5.7-0.4,8.2c-1,1.2-1.9,2.4-3,3.6c1.6,1.9,1.8,4,0.7,6.2c-1,2-2.6,3-4.8,3.2c-3,0.2-5.7-0.6-8.4-1.7
			c-1.5-0.6-2.9-1.4-4.3-2.1c-0.3-0.1-0.6-0.3-1.2-0.6c-0.3,3.4-0.8,6.5-0.8,9.7c-0.1,9.4,0.1,18.7,0.2,28.1c0,0.4,0.4,0.9,0.7,1.2
			c3.3,2.4,7,3.1,10.9,2.2c8.3-1.7,16.6-1.6,25-0.4c1.6,0.2,3.1,0.2,4.8-0.3c9.4-2.9,19-3.3,28.6-0.8c6.3,1.6,10.2,7.5,9.3,13.9
			c-0.4,2.7-0.9,5.4-1.6,8.1c-1.2,4.4-4,7-8.7,7.7c-9.9,1.4-19.7,0.9-29.2-2.2c-1.1-0.3-2-0.9-3.1-1.3c-0.3-0.1-0.8-0.3-1.1-0.1
			c-5,1.7-10.1,2.5-15.3,2.8c-8.4,0.4-16.8,0.2-25.1-1.5c-3.4-0.7-6.6-1.8-9.7-3.3c-6-3.1-9.5-7.9-10.1-14.7c-0.1-1-0.3-2-0.4-3
			C-300.5-6.8-300.5-8.9-300.5-11z M-235.3,13c0.5,0.2,1,0.4,1.5,0.5c4.3,1.4,8.7,2,13.1,2.3c5.2,0.3,10.4,0.3,15.5-1
			c1.1-0.3,2-0.8,2.6-1.8c0.5-0.8,1-1.6,1.2-2.4c0.7-2.6,1.3-5.3,1.7-7.9c0.8-4.9-2.1-9.1-6.9-10.3c-9.6-2.4-19.1-1.8-28.4,1.5
			c-0.4,0.1-0.9,0.2-1.3,0.2c-0.9-0.1-1.9-0.2-2.8-0.3c-8.1-1.1-16.2-1.3-24.4,0.4c-5.4,1.1-10.3-0.2-14.5-3.8
			c-0.5-0.4-0.9-1.2-0.9-1.9c-0.5-11.4-0.9-22.8,0.2-34.2c0.2-2.4,0.8-4.9,1.4-7.3c0.5-1.9,1.6-2,3.3-1.1c2.6,1.3,5.3,2.7,8,3.7
			c1.5,0.6,3.2,0.7,4.9,0.8c1.1,0.1,1.8-0.7,2-1.8c0.2-0.9-0.2-1.7-0.9-2.1c-1-0.5-2.1-0.8-3.2-1.2c-1.1-0.4-2.3-0.6-3.3-1.2
			c-2.4-1.6-3.9-4.1-5.3-6.7c1.1-0.5,2.1-1,3.1-1.6c1,1.8,2,3.4,3.5,4.8c0.1,0,0.2-0.1,0.3-0.1c0-1.3,0-2.6,0-3.8c1.2,0,2.3,0,3.6,0
			c-0.3,1.8-0.6,3.5-0.9,5.2c0.5,0.1,1.1,0.2,1.7,0.4c0.6,0.3,1,0.1,1.4-0.4c0.8-1,1.6-1.9,2.4-2.9c1.3-1.6,1.3-3,0.2-4.7
			c-1.1-1.6-2.3-3.2-3.4-4.8c-1.4-1.9-3.3-2.8-5.6-2.3c-5.6,1.1-11.2,2.4-16.8,3.6c-1.2,0.3-2.2,1.1-2.6,2.3c-1.4,4-3,7.9-3.9,12
			c-2.8,12.1-5.4,24.2-7.2,36.5c-0.8,5.5-1.2,11.1-0.5,16.7c0.7,5.4,3.3,9.3,8.1,11.8c4.1,2.2,8.5,3.2,13,3.8
			c7.9,1.1,15.8,1.3,23.7,0.4c6-0.7,11.9-1.8,16.9-5.7c0.9,0.7,1.8,1.4,2.7,2.1C-233.2,11.4-234.2,12.1-235.3,13z"/>
		<path class="st0" d="M-225.3-41.4c0.9-0.7,1.8-1.4,2.7-2.2c1.2,1.5,2.4,3,3.8,4.8c0-9.5,0-18.7,0-27.9c1.2,0,2.3,0,3.5,0
			c0,9.2,0,18.4,0,27.9c1.4-1.7,2.6-3.2,3.8-4.7c0.9,0.7,1.8,1.4,2.7,2.1c-0.3,0.4-0.5,0.7-0.8,1.1c-1.9,2.4-3.9,4.8-5.8,7.2
			c-1.1,1.4-2.2,1.4-3.3,0C-220.8-35.8-223-38.5-225.3-41.4z"/>
		<path class="st0" d="M-243-33.9c0-3.7,0-7.5,0-11.2c0-3.7,0-7.4,0-11.2c1.2,0,2.2,0,3.4,0c0,7.5,0,14.9,0,22.4
			c0.1,0,0.2,0.1,0.2,0.1c1.2-1.5,2.4-3,3.6-4.5c0.9,0.7,1.8,1.4,2.7,2.2c-1.9,2.4-3.8,4.7-5.7,7.1c-0.4,0.5-0.8,1-1.2,1.5
			c-0.9,1-2,1-2.8,0c-2.3-2.8-4.6-5.7-6.9-8.6c0.9-0.7,1.8-1.4,2.7-2.2c1.2,1.5,2.4,3,3.6,4.5C-243.2-33.8-243.1-33.9-243-33.9z"/>
		<path class="st0" d="M-235.7-17.1c-0.5,1.1-0.9,2.1-1.4,3.2c-1-0.4-1.9-0.7-2.9-1.1c0.4-1.1,0.7-2.1,1.1-3.3
			C-237.8-17.9-236.8-17.5-235.7-17.1z"/>
		<path class="st0" d="M-242.2-19.4c-0.3,1.2-0.6,2.2-0.9,3.3c-1-0.2-2-0.5-3.1-0.7c0.2-1.1,0.4-2.2,0.6-3.4
			C-244.4-19.9-243.4-19.7-242.2-19.4z"/>
		<path class="st0" d="M-259.3-20.3c1.2-0.2,2.2-0.3,3.4-0.5c0.1,1.2,0.2,2.3,0.3,3.4c-1,0.2-2,0.3-3.1,0.4
			C-258.9-18-259.1-19.1-259.3-20.3z"/>
		<path class="st0" d="M-262.7-19.4c0.4,1.2,0.7,2.2,1.1,3.3c-0.9,0.4-1.8,0.7-2.9,1.1c-0.5-1-0.9-2-1.4-3.1
			C-264.9-18.5-263.9-19-262.7-19.4z"/>
		<path class="st0" d="M-216.1-22c-1,0-2,0-3,0c0-1.1,0-2.2,0-3.4c1,0,2.1,0,3.4,0C-215.9-24.2-216-23.1-216.1-22z"/>
		<path class="st0" d="M-231.1-19.5c-0.5-1.1-0.9-2.1-1.4-3.2c1.1-0.4,2.1-0.8,3.2-1.2c0.3,1.2,0.7,2.2,1,3.3
			C-229.3-20.2-230.2-19.9-231.1-19.5z"/>
		<path class="st0" d="M-222.2-21.8c-1.1,0.2-2,0.3-3.1,0.5c-0.2-1.1-0.4-2.2-0.7-3.4c1.1-0.2,2.1-0.4,3.3-0.6
			C-222.5-24-222.4-23-222.2-21.8z"/>
		<path class="st0" d="M-252.3-20.9c1.2,0.1,2.2,0.1,3.4,0.2c-0.1,1.2-0.2,2.3-0.3,3.3c-1,0-2,0-3.1,0
			C-252.3-18.5-252.3-19.6-252.3-20.9z"/>
		<path class="st0" d="M-269.1-16.5c0.6,1,1.2,1.9,1.8,3c-1.1,0.5-2.1,1-3.2,1.5c-0.4-1.1-0.8-2.1-1.3-3.2
			C-270.9-15.6-270.1-16-269.1-16.5z"/>
	</g>
</g>
<g>
	<path class="st0" d="M-70.7,292.4c5.6,0,10.9,0,16.3,0c-11.6-10.4-7.7-25.1,0.3-31.1c8.9-6.7,22.3-5.3,29.1,5.6
		c0.3-0.3,0.6-0.5,0.9-0.8c11.8-11.1,25.6-15.4,41.6-13c3.5,0.5,6.2,2.3,7.9,5.4c0.6,1.1,1.2,1.3,2.4,1.3c8,0,16.1,0,24.1,0
		c12.1,0,20.8,8.7,20.8,20.8c0,21.3,0,42.5,0,63.8c0,0.5,0,1-0.1,1.4c-0.2,1.1-0.9,1.9-2,1.6c-0.7-0.2-1.4-0.9-1.9-1.6
		c-0.3-0.3-0.1-1-0.1-1.6c0-6.8,0-13.6,0-20.4c0-0.6,0-1.2,0-1.8c-46.5,0-92.8,0-139.4,0c0,0.6,0,1.2,0,1.7c0,6.8,0,13.6,0,20.4
		c0,0.5,0,1-0.1,1.4c-0.2,1.1-0.8,1.9-2,1.8c-1.2,0-1.8-0.8-1.9-1.9c0-0.4,0-0.9,0-1.3c0-33.3,0-66.6,0-99.9c0-0.3,0-0.6,0-1
		c0-1.3,0.5-2.2,1.9-2.3c1.3-0.1,2,0.7,2.1,2.2c0,0.5,0,1,0,1.4c0,15.1,0,30.1,0,45.2C-70.7,290.8-70.7,291.5-70.7,292.4z
		 M-70.6,296.6c0,7.2,0,14.3,0,21.3c46.5,0,92.8,0,139.1,0c0-7.2,0-14.2,0-21.3C22.1,296.6-24.2,296.6-70.6,296.6z M10.7,268.4
		c-5,0.3-9.7,0.9-14,3c-1.1,0.5-1.6,1.2-1.6,2.6c0.1,4.5,0,9,0,13.6c0,1.6,0,3.2,0,4.8c24.6,0,49,0,73.5,0c0-2,0-3.9,0-5.8
		c0-3.1,0.2-6.2-0.3-9.2c-1.2-8-7.8-13.4-16.2-13.4c-7.9-0.1-15.9,0-23.8,0c-0.5,0-0.9,0.1-1.5,0.1c0,4.4,0,8.6,0,12.9
		c0,2-0.4,3.9-1.7,5.5c-2.1,2.8-5.7,3.9-9,2.9c-3.3-1-5.6-4-5.6-7.5C10.7,274.8,10.7,271.7,10.7,268.4z M-8.9,292.4
		c0-6.6,0.1-13,0-19.4c0-1.9,0.6-3.2,2.2-4.1c0.6-0.4,1.2-0.7,1.8-1c5.4-2.7,11.1-3.3,17-3.5c2.1,0,2.7,0.6,2.7,2.6
		c0,3.4,0,6.8,0,10.2c0,2.7,1.7,4.5,4.1,4.5c2.4,0,4.1-1.8,4.1-4.5c0-4.3,0-8.5,0-12.8c0-3.9-2.4-6.8-6.2-7.3
		c-15.2-2.2-28.2,2.3-39.1,13.1c-0.7,0.7-0.8,1.3-0.6,2.3c1.6,7.2-0.4,13.3-5.5,18.5c-0.4,0.4-0.8,0.9-1.3,1.4
		C-22.8,292.4-16,292.4-8.9,292.4z M-40.4,292.2c0-0.3,0.1-0.4,0.1-0.6c0-9.7,0-19.4,0-29.2c0-1.3-0.7-1.3-1.6-1.3
		c-6.1,0.2-10.9,2.8-13.8,8.2c-2.9,5.4-2.6,11,0.8,16.1C-51.7,290.4-45.4,293.2-40.4,292.2z M-36.3,291.2c5.8-1.8,10.2-8.5,9.8-15.1
		c-0.4-6.3-5-12.7-9.8-13.5C-36.3,272.1-36.3,281.5-36.3,291.2z"/>
	<path class="st0" d="M55,215.1c4.4,0,8.6,0,12.8,0c3.1,0,3.4,0.3,3.4,3.4c0,4.3,0,8.5,0,12.8c0,2.2-0.6,2.8-2.7,2.8
		c-4.4,0-8.8,0-13.5,0c0,1,0,2,0,2.9c0,3.6,0,7.1,0,10.7c0,2-0.7,2.7-2.7,2.7c-4.5,0-8.9,0-13.4,0c-2.1,0-2.8-0.7-2.8-2.8
		c0-4.4,0-8.8,0-13.5c-0.6,0-1.2,0-1.8,0c-3.9,0-7.9,0-11.8,0c-1.9,0-2.6-0.7-2.6-2.6c0-4.6,0-9.1,0-13.7c0-2,0.7-2.6,2.7-2.6
		c3.8,0,7.7,0,11.5,0c0.6,0,1.2,0,1.9,0c0-0.7,0.1-1.2,0.1-1.8c0-3.9,0-7.9,0-11.8c0-1.9,0.7-2.6,2.6-2.6c4.6,0,9.1,0,13.7,0
		c1.9,0,2.6,0.6,2.6,2.6c0,3.9,0,7.8,0,11.6C55,213.7,55,214.3,55,215.1z M67.1,219.1c-0.7,0-1.3,0-1.9,0c-3.6,0-7.2,0-10.8,0
		c-3.1,0-3.4-0.3-3.4-3.3c0-3.6,0-7.2,0-10.8c0-0.6,0-1.2,0-1.9c-3.7,0-7.2,0-10.8,0c0,0.6-0.1,1-0.1,1.5c0,4,0,8,0,12
		c0,1.9-0.7,2.6-2.6,2.6c-1.5,0-3,0-4.5,0c-3,0-6,0-9.1,0c0,3.7,0,7.2,0,10.9c0.7,0,1.3,0,1.8,0c3.8,0,7.7,0,11.5,0
		c2.1,0,2.8,0.7,2.8,2.7c0,2.2,0,4.5,0,6.7c0,2.2,0,4.4,0,6.6c3.7,0,7.2,0,10.9,0c0-4.6,0-9,0-13.5c0-1.9,0.7-2.6,2.6-2.6
		c3.9,0,7.9,0,11.8,0c0.6,0,1.1-0.1,1.7-0.1C67.1,226.2,67.1,222.8,67.1,219.1z"/>
</g>
</svg>
