<?xml version="1.0" encoding="utf-8"?>
<!-- Generator: Adobe Illustrator 24.3.0, SVG Export Plug-In . SVG Version: 6.00 Build 0)  -->
<svg version="1.1" id="Layer_1" xmlns="http://www.w3.org/2000/svg" xmlns:xlink="http://www.w3.org/1999/xlink" x="0px" y="0px"
	 viewBox="0 0 150 150" style="enable-background:new 0 0 150 150;" xml:space="preserve">
<style type="text/css">
	.st0{fill:#005BAB;}
	.st1{fill:#FFFFFF;}
</style>
<g>
	<path class="st0" d="M59.3,85.8c0,8.6,6.9,15.7,15.7,15.7s15.7-6.9,15.7-15.7c0-8.6-6.9-15.7-15.7-15.7S59.3,77.2,59.3,85.8z
		 M85.7,85.8c0,5.9-4.8,10.7-10.7,10.7c-5.9,0-10.7-4.8-10.7-10.7S69.1,75.1,75,75.1C80.9,75.1,85.7,80.1,85.7,85.8z"/>
	<path class="st0" d="M148.7,84.5L148.7,84.5c-4.6-6.4-9.5-12.2-14.7-17.2c4.8-7.3,2.8-17.1-4.4-22c-7.2-4.9-16.8-3.1-21.9,3.8
		c-10.4-4.8-21.4-7.2-32.6-7.2C47.1,41.8,20.9,57,1.3,84.5c-0.7,0.8-0.7,2,0,2.8c3,4.1,6.1,8.1,9.4,11.7l0.5,0.5
		c18.1,19.8,40.4,30.5,64,30.5c27.9,0,54.1-15.2,73.7-42.7C149.3,86.5,149.3,85.3,148.7,84.5z M75,46.8c21.8,0,42.5,10.1,59.7,28.4
		C116.9,65.2,95.9,60.4,75,60.4s-41.9,4.9-59.7,14.7C32.5,56.8,53.2,46.8,75,46.8z M100.9,85.8c0,14.3-11.7,25.9-25.9,25.9
		s-25.9-11.5-25.9-25.9c0-7.4,3.3-14.5,8.9-19.5c11.2-1.5,22.7-1.5,34,0C97.6,71.3,100.9,78.4,100.9,85.8z M75,125.1
		c-21.2,0-41.5-9.5-58.3-27c0,0,0,0-0.1,0c-1.3-1-2.1-2.6-3.4-3.7l-0.1,0c-2.1-2.5-4.3-5.1-6.4-7.9C19.3,77.3,34.3,71,50.1,67.9
		c-3.8,5.3-5.9,11.5-5.9,18.1c0,5.1,1.3,9.9,3.5,14.2l0,0c0,0.1,0.1,0.2,0.1,0.3c0.1,0.3,0.4,0.8,0.5,1.1c0.2,0.4,0.6,0.7,0.9,1.1
		c0.4,0.6,1,1.1,1.4,1.6l0.1,0c5.4,7.4,14.3,12.4,24.4,12.4c14,0,25.6-9.2,29.5-22c0-0.1,0-0.2,0-0.3c0.2-0.7,0.6-1.3,0.8-2.1
		c0.2-0.8,0.3-1.6,0.3-2.3c0-0.1,0-0.1,0-0.2l0,0c0.2-1.3,0.3-2.6,0.3-4c0-6.6-2.1-12.9-5.9-18.1c15.8,3.1,30.8,9.4,43.4,18.6
		C124.8,111.4,100.5,125.1,75,125.1z"/>
	<path class="st0" d="M120.7,32.5c1,1.6,1.9,3.1,2.9,4.6c0.2,0.3,0.4,0.5,0.5,0.8c0.2,0.8,0,1.5-0.7,1.9c-0.7,0.4-1.5,0.3-1.9-0.4
		c-1.4-2.2-2.8-4.4-4.1-6.6c-0.2-0.4,0-1.3,0.4-1.7c0.5-0.7,1.2-1.3,1.9-2c-1.2-2.1-2.4-4.1-3.6-6.1c-0.9-1.4-0.9-2.3,0-2.8
		c0.9-0.6,1.8-0.1,2.6,1.3c1.3,2.3,2.7,4.5,4.1,6.8c0.7,1.1,0.6,1.6-0.3,2.6c-0.3,0.3-0.6,0.5-0.9,0.8
		C121.3,31.9,121,32.2,120.7,32.5z"/>
	<path class="st0" d="M138.2,33.2c0.3-2.4,0.6-4.8,1-7.2c0.2-1.3,0.8-2,1.7-1.9c1,0.1,1.5,1,1.3,2.3c-0.3,2.7-0.7,5.3-1.1,8
		c-0.2,1.3-0.7,1.8-2,1.9c-2.3,0.2-2.3,0.2-2.6,2.5c-0.1,1.1-0.3,2.3-0.4,3.4c-0.2,1.1-0.9,1.8-1.8,1.6c-0.9-0.1-1.4-0.9-1.2-2.1
		c0.3-2.2,0.5-4.3,0.8-6.5c0.2-1.3,0.6-1.7,2-1.8c0.7-0.1,1.4-0.1,2-0.2C138,33.4,138,33.3,138.2,33.2z"/>
	<path class="st0" d="M129.6,35.3c0.4,0.9,0.7,1.7,1.1,2.6c0.4,0.8,0.2,1.5-0.6,1.9c-0.7,0.4-1.6,0.2-2-0.6
		c-0.7-1.3-1.3-2.6-1.8-3.9c-0.3-0.7,0-1.3,0.6-1.8c0.7-0.5,1.4-1.1,2.3-1.7c-0.5-1.2-1-2.4-1.6-3.6c-0.5-1.1-0.3-1.9,0.5-2.3
		c0.9-0.4,1.7,0,2.2,1.1c0.7,1.5,1.3,3,2,4.5c0.4,0.9,0.2,1.6-0.6,2.2C131,34.2,130.3,34.8,129.6,35.3z"/>
</g>
<g>
	<path class="st0" d="M-46.5-3.4c6.1,1,11.3-3.9,10.6-9.9c-0.1-1.3-0.6-2.6-0.8-4c-0.7-5.6-0.7-11.2-0.5-16.9
		c0.3-7,2.2-13.8,3.8-20.5c0.7-2.8,1.2-5.7,1.8-8.5c0.3-1.6,1.5-2.5,3-2.2c1.4,0.3,2.2,1.6,1.9,3.2c-0.9,4.3-1.7,8.5-2.9,12.7
		c-2.1,7.7-3.1,15.5-2.8,23.5c0.1,3,0.4,6.1,0.7,9.1c0.1,0.9,0.5,1.8,0.6,2.7c1.1,7.1-3.8,14.2-10.7,15.8c-0.4,0.1-0.9,0.1-1.3,0.1
		c-18.8,0-37.6,0-56.5,0c-4.8,0-8.7-3.4-9-8.3c-0.3-4.8,3.3-8.9,8.2-9.3c0.4,0,0.8-0.1,1.2-0.3c1.1-0.4,2.2-0.9,3.4-1.1
		c4.3-1,7.6-3.7,11.1-6.2c3.8-2.7,7.7-5.3,11.5-8c0.3-0.2,0.7-0.6,0.9-0.9c0.6-0.9,1.6-1.3,2.6-1.1c1,0.2,1.8,1,2,2
		c0.3,1.4-0.2,2.4-1.3,3.2c-6.4,4.4-12.7,8.8-19,13.2c-0.6,0.4-1.3,0.8-2,1c-2.7,1-5.4,1.9-8.1,2.8c-0.6,0.2-1.2,0.2-1.9,0.3
		c-2.5,0.3-4,2.6-3.4,5c0.4,1.6,1.7,2.6,3.4,2.7c0.3,0,0.5,0,0.8,0c14.2,0,28.3,0,42.5,0c1.4,0,2.7-0.4,3.9-1.1
		c3.3-2.1,5.1-6,4.3-9.5c-1.6-7-1.4-14.1-1.1-21.1c0.3-6.4,2-12.5,3.5-18.6c2.6-10.4,4.1-21,4.4-31.7c0.1-3,0.2-6,0-8.9
		c-0.3-5.7-2.3-10.9-5.2-15.8c-0.6-1.1-1.4-2.2-2.1-3.2c-0.9-1.3-0.7-2.8,0.4-3.6c1.1-0.9,2.7-0.6,3.6,0.6c4.4,6,7.4,12.7,8.1,20.2
		c0.4,4,0.3,8.1,0.1,12.1c-0.2,7.2-0.9,14.4-2.3,21.5c-1,5.1-2.1,10.1-3.5,15.1c-1.8,6.7-2.5,13.5-2.3,20.4
		c0.1,3.4,0.4,6.8,0.7,10.2c0.1,1.3,0.6,2.6,0.7,4c0.2,3.2-0.9,6.1-2.8,8.8C-46.2-3.8-46.4-3.6-46.5-3.4z"/>
	<path class="st0" d="M-63.7-73.3c3-0.7,6.1-1.4,9.1-2.1c1.5-0.3,2.8,0.5,3.1,1.9c0.2,0.7,0,1.4-0.5,2c-2.9,3.6-3.7,7.8-3,12.3
		c0.2,1.4,0.6,2.8,1,4.1c1.6,5,0.2,9.2-4.1,12.2c-2.8,2-6,3-9.3,3.7c-4.4,0.9-8.8,1.2-13.2,1.1c-4.4-0.1-8.7-0.6-12.9-2
		c-1.5-0.5-3-1.2-4.4-2c-4.8-2.9-6.8-7.3-5.9-12.9c0.8-5.6,0.8-11.1-0.8-16.6c-0.3-0.9-0.7-1.9-1-2.8c-0.4-1-0.4-1.9,0.3-2.8
		c0.7-0.8,1.6-1,2.6-0.8c3.2,0.8,5.9,2,9.2,4.3c0.4-0.7,0.8-1.4,1.1-2.2c0.8-1.9,1-4,1-6c-0.1-4.7,1.9-8.5,5.2-11.7
		c1.6-1.5,3.5-2.8,5.5-3.8c1.2-0.6,2.2-0.5,3.1,0.3c0.8,0.8,0.9,1.8,0.5,3.1c-0.1,0.3-0.1,0.7,0.1,1c0.6,1,1.2,2,2.1,2.8
		c1.7,1.6,3.5,3.2,5.4,4.5c4,2.7,5.7,6.5,5.8,11.2c0,0.3,0,0.5,0,0.8C-63.8-73.5-63.8-73.4-63.7-73.3z M-71.4-43.7
		c0,0.1,0.1,0.2,0.1,0.2c1.8-0.4,3.7-0.8,5.5-1.3c2.1-0.6,4.1-1.4,5.7-2.9c1.5-1.3,2.1-3,1.6-5c-0.1-0.4-0.3-0.8-0.4-1.3
		c-1.3-4-1.7-8-0.9-12.1c0.2-1.1,0.5-2.2,0.8-3.3c-1,0.2-1.9,0.3-2.9,0.6c-1.1,0.3-2.2,0.6-3.2,1.1c-1,0.5-1.8,0.8-2.8,0.3
		c-1-0.5-1.4-1.5-1.3-2.6c0.1-0.9,0.2-1.8,0.3-2.6c0.4-3.8-0.4-7.2-4-9.3c-0.2-0.1-0.4-0.3-0.5-0.4c-3.2-2.4-6.3-4.9-8.2-8.5
		c0,0-0.1,0-0.1,0c-3.1,2.4-4.6,5.1-4.7,9c-0.1,2.8-0.4,5.6-1.6,8.3c-0.9,2-2.1,3.7-3.9,5c-1.2,0.8-2.3,0.8-3.5-0.1
		c-0.8-0.6-1.5-1.2-2.3-1.8c-0.5-0.4-1.1-0.6-1.6-1c0,0.2,0,0.3,0,0.4c1.3,5.8,1.2,11.6,0.3,17.4c-0.4,2.9,0.6,5.2,3,6.8
		c1.2,0.8,2.6,1.3,3.9,1.9c0.2,0.1,0.3,0.1,0.6,0.1c-1.3-2.9-1.4-5.7-0.2-8.5c2.2-4.9,5.4-9,9-12.9c0.9-1,2.5-0.9,3.5,0.1
		c0.4,0.4,0.7,0.8,1,1.2c2.9,3.5,5.6,7.1,7.4,11.2c0.6,1.5,1.1,3,1,4.6C-69.9-47.1-70.5-45.3-71.4-43.7z M-81.1-60.5
		c-2.4,3-4.7,5.9-6.1,9.4c-0.2,0.5-0.3,1-0.4,1.6c-0.1,2.5,1.5,4.9,3.8,5.9c2.4,1,5.1,0.5,7-1.3c1.9-1.8,2.4-4.4,1.3-6.8
		C-76.8-54.9-78.9-57.6-81.1-60.5z"/>
	<path class="st0" d="M-24.3-88.9c0,2.1,0,4.1,0,6.2c0,1.5-1.2,2.6-2.5,2.5c-1.4-0.1-2.4-1.2-2.4-2.7c0.1-3,0.2-6.1,0.2-9.1
		c0-6.7-2.1-12.8-5.5-18.6c-0.6-0.9-1.2-1.9-1.9-2.7c-0.8-1.1-0.7-2.7,0.4-3.5c1.1-0.9,2.7-0.7,3.5,0.4c1.4,2.2,2.9,4.3,4.1,6.7
		C-25.2-103.2-23.7-96.2-24.3-88.9z"/>
	<path class="st0" d="M-79.8-110.1c0-1.6,0-3.1,0-4.7c0-1.5,1-2.6,2.3-2.6c1.4-0.1,2.6,0.9,2.6,2.4c0.1,3.3,0.2,6.5,0.3,9.8
		c0,1.4-1.1,2.5-2.4,2.5c-1.4,0-2.5-1-2.5-2.5c0-1.6,0-3.3,0-4.9C-79.6-110.1-79.7-110.1-79.8-110.1z"/>
	<path class="st0" d="M-25.1-72.8c0,1.4-1.1,2.5-2.5,2.5c-1.3,0-2.4-1.1-2.4-2.5c0-1.4,1.1-2.5,2.5-2.5
		C-26.2-75.3-25.1-74.2-25.1-72.8z"/>
	<path class="st0" d="M-56.4-82.7c0,1.4-1.1,2.5-2.5,2.5c-1.4,0-2.5-1.1-2.4-2.5c0-1.4,1.1-2.5,2.5-2.5
		C-57.5-85.2-56.4-84.1-56.4-82.7z"/>
	<path class="st0" d="M-93.6-92.6c0,1.4-1.1,2.5-2.5,2.5c-1.4,0-2.5-1.2-2.5-2.5c0-1.4,1.1-2.5,2.5-2.5
		C-94.7-95.1-93.6-94-93.6-92.6z"/>
	<path class="st0" d="M-78.7-72.8c0,1.4-1.1,2.5-2.5,2.5c-1.4,0-2.5-1.1-2.5-2.5c0-1.3,1.2-2.5,2.5-2.5
		C-79.8-75.3-78.7-74.1-78.7-72.8z"/>
	<path class="st0" d="M-66.4-57.9c-1.4,0-2.5-1.2-2.4-2.5c0-1.4,1.2-2.5,2.6-2.4c1.4,0,2.5,1.2,2.4,2.6
		C-63.9-58.9-65-57.9-66.4-57.9z"/>
</g>
<g>
	<path class="st0" d="M239.8-28c0.1,0.4,0.2,0.8,0.3,1.1c0.5,1.9-0.2,3.8-1.8,5c-1.6,1.1-3.8,1.1-5.3,0c-1.6-1.2-2.4-3.1-1.8-5
		c0.4-1.3,1-2.6,1.6-4c-0.9-0.6-1.8-1.2-2.7-1.8c-3-1.9-6-3.9-9-5.8c-3.4-2.2-6.8-4.3-10.2-6.5c-1-0.6-2-1.3-2.9-2
		c-1.1-0.8-1.6-2-1.4-3.4c0.2-1.4,1-2.4,2.3-2.9c0.4-0.2,0.9-0.2,1.4-0.4c-0.5-0.3-0.8-0.6-1.2-0.8c-1.5-1-2.1-2.4-1.8-4
		c0.3-1.3,1.4-2.7,3.3-2.9c0.1,0,0.2-0.1,0.5-0.2c-1.3-0.8-2.5-1.7-2.5-3.2c0-0.8,0.2-1.8,0.6-2.5c1.1-1.8,2.8-2,5.8-0.7
		c0-0.2,0-0.5,0-0.7c-0.3-1.6,0.1-2.9,1.4-3.8c1.3-1,2.8-1,4.2-0.1c2.6,1.7,5.2,3.4,7.8,5c4.1,2.6,8.2,5.2,12.2,7.9
		c0.2,0.1,0.5,0.3,0.9,0.5c-0.3-0.9-0.6-1.7-0.9-2.4c-1-2.9,0.7-5.7,3.7-6.2c2.1-0.3,4.1,0.9,4.9,3c1.3,3.4,2.6,6.8,3.9,10.2
		c0.6,1.7,1.2,3.4,1.9,5c1.3,2.8,3.4,4.9,6,6.5c3.5,2.2,6.9,4.4,10.4,6.7c0.8,0.5,1.6,1,2.4,1.5c1.1,0.7,1.1,0.9,0.4,2
		c-2.9,4.5-5.8,9-8.7,13.5c-0.6,1-1.2,1.9-1.8,2.9c-0.7,1-0.9,1.1-1.9,0.4c-5-3.2-10-6.4-14.9-9.6C244.7-26.8,242.5-27.6,239.8-28z
		 M272.7-33.2c-0.1-0.2-0.1-0.2-0.2-0.3c-3.2-2-6.3-4-9.5-6.1c-1.7-1.1-3.6-2.2-5.2-3.5c-2.3-1.9-4-4.4-5-7.3
		c-1.6-4.5-3.4-9-5.1-13.5c-0.7-1.8-2.4-2.6-4-2c-1.7,0.6-2.4,2.3-1.7,4.2c0.4,1.2,0.9,2.3,1.3,3.5c0.2,0.6,0.8,1.2,0.1,1.8
		c-0.7,0.5-1.2-0.1-1.7-0.5c-7.2-4.6-14.5-9.3-21.7-14c-1.5-1-2.7-0.9-3.5,0.3c-0.8,1.2-0.4,2.3,1.2,3.3c5.2,3.3,10.4,6.7,15.6,10
		c0.3,0.2,0.5,0.3,0.7,0.5c0.5,0.5,0.6,1.1,0.3,1.7c-0.3,0.6-0.9,0.8-1.6,0.6c-0.4-0.1-0.7-0.4-1.1-0.6c-5.5-3.5-11-7.1-16.5-10.6
		c-0.8-0.5-1.5-1-2.3-1.4c-1-0.5-2.1-0.2-2.7,0.7c-0.6,0.9-0.4,2,0.4,2.7c0.3,0.3,0.7,0.5,1.1,0.8c5.8,3.8,11.7,7.5,17.5,11.2
		c0.3,0.2,0.6,0.4,0.9,0.6c0.6,0.5,0.6,1.1,0.3,1.8c-0.3,0.7-1,0.7-1.6,0.5c-0.5-0.2-1-0.5-1.5-0.8c-5.1-3.3-10.3-6.6-15.4-9.9
		c-1.2-0.8-2.4-0.6-3.1,0.4c-0.7,1.1-0.4,2.3,0.8,3.1c4.9,3.2,9.8,6.3,14.7,9.4c0.6,0.4,1.2,0.7,1.7,1.1c0.7,0.5,0.8,1.5,0.3,2.1
		c-0.4,0.6-1,0.6-1.9,0.1c-0.9-0.5-1.8-1.1-2.7-1.7c-3.5-2.3-7-4.6-10.6-6.9c-1.3-0.8-2.5-0.6-3.2,0.5c-0.7,1-0.4,2.2,0.8,3
		c1.5,1,3,2,4.6,3c2.8,1.8,5.6,3.5,8.4,5.3c3.6,2.3,7.2,4.7,10.8,7c0.2,0.1,0.4,0.2,0.7,0.4c0.4-0.7,0.8-1.3,1.1-1.9
		c0.6-0.9,1.1-0.9,1.7,0c0.7,1.1,1.3,2.1,1.9,3.3c0.4,0.8,1,1.2,1.9,1.4c3.2,0.5,6.1,1.8,8.7,3.6c3.4,2.3,6.9,4.5,10.3,6.7
		c1,0.7,2.1,1.3,3.2,2C265.9-22.6,269.3-27.9,272.7-33.2z M237.4-23.5c-0.4,0.1-0.7,0.2-1.1,0.3c-1.5,0.3-3.2-0.8-3.3-2.2
		c0-0.3,0.2-0.8,0.4-1c0.4-0.2,0.8,0,1,0.5c0,0.1,0.1,0.2,0.1,0.3c0.5,1,1.3,1.2,2.2,0.6c1-0.7,1.1-0.7,1.9,0.2
		c0.2-3-1.6-5.2-3.1-7.7c-1.1,1.9-2.1,3.8-2.9,5.8c-0.5,1.3,0,2.7,1.2,3.5C235.1-22.3,236.4-22.4,237.4-23.5z"/>
	<path class="st0" d="M242.1-16c-2.1,0-3.7-1.9-3.1-3.9c0.6-1.8,1.6-3.5,2.5-5.2c0.3-0.6,1-0.6,1.4,0.1c0.9,1.6,1.8,3.2,2.4,5
		C246-18,244.3-16,242.1-16z M243.7-18.7c0.1-0.2,0.2-0.5,0.2-0.7c-0.4-1.3-0.9-2.5-1.8-3.8c-0.6,1.2-1.1,2.2-1.5,3.2
		c-0.4,1,0,1.9,1,2.3C242.5-17.3,243.3-17.7,243.7-18.7C243.8-18.7,243.7-18.7,243.7-18.7z"/>
	<path class="st0" d="M245.7-41.2c-1.4,0.3-1.5,0.4-1.2,1.6c0.1,0.4,0.3,0.9,0.3,1.3c0,0.3-0.3,0.7-0.6,0.9
		c-0.2,0.1-0.7-0.3-0.8-0.6c-0.3-0.6-0.4-1.3-0.5-2c-0.7,0.2-1.2,0.3-1.8,0.5c0.2,0.6,0.3,1.1,0.4,1.7c0.1,0.5,0.2,1-0.5,1.2
		c-0.6,0.1-0.9-0.3-1-0.8c-0.1-0.5-0.3-1.1-0.5-1.8c-0.6,0.1-1.1,0.2-1.6,0.3c0.1,0.4,0.2,0.7,0.3,0.9c0.2,0.5,0.3,1.1-0.4,1.3
		c-0.6,0.2-0.9-0.3-1-0.8c-0.1-0.5-0.3-0.9-0.5-1.4c-0.6,0-1.3,0-1.8-0.1c-0.4-0.1-0.8-0.3-1-0.6c-0.1-0.2,0.2-0.6,0.4-0.9
		c0-0.1,0.1-0.2,0.2-0.2c1-0.7,1.3-1.5,0.7-2.6c-0.1-0.2-0.2-0.4-0.1-0.5c0.1-0.3,0.3-0.8,0.5-0.9c0.2-0.1,0.7,0.2,0.9,0.4
		c0.3,0.4,0.4,0.9,0.7,1.5c0.6-0.3,1.1-0.5,1.7-0.8c-0.3-1.2-0.6-2.3-0.8-3.4c-0.1-0.5,0.1-0.9,0.6-0.9c0.3,0,0.6,0.3,0.8,0.5
		c0.2,0.2,0.1,0.5,0.2,0.8c0.2,0.7,0.5,1.5,0.7,2.3c0.3-0.1,0.5-0.1,0.7-0.2c1.1-0.4,1.1-0.4,0.9-1.5c-0.1-0.5-0.2-1-0.3-1.6
		c-0.1-0.5-0.1-1,0.5-1.2c0.7-0.2,0.9,0.4,1,0.9c0.2,0.8,0.4,1.6,0.6,2.5c0.5-0.1,1-0.1,1.5-0.2c0-0.6-0.1-1.2,0-1.8
		c0.1-0.3,0.4-0.6,0.5-0.9c0.3,0.2,0.9,0.5,0.9,0.7c-0.1,1.9,1.1,2,2.5,1.9c0.3,0,0.9,0.2,1,0.5c0.3,0.5,0,0.9-0.5,1.3
		c-0.7,0.6-1.4,1.2-2.2,1.8c0,0.3,0.1,0.8,0.2,1.2c0,0.5,0,1-0.7,1.1c-0.6,0-0.8-0.4-0.8-1C245.8-41,245.8-41.1,245.7-41.2z
		 M240.2-42.9c0.2,0.7,0.3,1.2,0.5,1.9c0.6-0.3,1.1-0.5,1.7-0.7c-0.1-0.5-0.2-1-0.4-1.6C241.4-43.2,240.9-43.1,240.2-42.9z
		 M239.1-40.9c-0.1-0.4-0.2-0.8-0.4-1.3c-0.5,0.3-0.9,0.6-1.3,0.9c-0.1,0.1-0.2,0.3-0.1,0.5c0.1,0.1,0.3,0.3,0.4,0.3
		C238.1-40.7,238.6-40.8,239.1-40.9z M245.2-44.1c-0.5,0.1-1,0.1-1.6,0.2c0.1,0.6,0.2,1,0.4,1.6C244.7-42.8,245.7-42.8,245.2-44.1z"
		/>
	<path class="st0" d="M243.8-18.7c-0.5,0.5-1,0.9-1.8,0.7c-0.7-0.1-1.2-0.6-1.2-1.3c0-0.3,0.1-0.6,0.3-0.7c0.2-0.1,0.5,0,0.8,0
		c0.3,0.1,0.5,0.3,0.7,0.3C243.5-19.9,243.7-19.4,243.8-18.7L243.8-18.7z"/>
</g>
<g>
	<path class="st0" d="M394.7,15.1c0.3,0.2,0.5,0.4,0.7,0.6c0.5,0.6,0.6,1.2,0.6,2c0,0.8-0.1,1.6-0.1,2.4c0,0.9-0.5,1.5-1.2,2
		c-0.6,0.3-1.2,0.7-1.8,1c0.4,0.6,0.8,1.2,1.2,1.8c0.5,0.8,0.6,1.5,0.3,2.4c-0.2,0.5-0.3,0.9-0.6,1.4c-0.3,0.4-0.6,0.8-1,1.1
		c-0.2,0.2-0.4,0.3-0.7,0.5c-0.6,0.3-1,0.7-0.7,1.5c0.2,0.7-0.1,1.4-0.6,1.9c-0.9,1.1-1.8,2.2-2.8,3.2c-1.4,1.4-2.9,2.6-4.6,3.7
		c-0.4,0.3-0.7,0.6-1,1c-1.6,3.4-4.3,5.5-8,6.3c-4.4,0.9-8.1,3.2-10.8,6.7c-2,2.5-3.7,5.3-5.5,7.9c-3.3,4.8-6.5,9.5-9.8,14.3
		c-1.8,2.6-3.6,5.1-5.2,7.7c-2,3.3-2.8,6.9-2.6,10.7c0.1,1.3,0.4,2.6,0.4,3.9c0.1,5.2-4,9.9-9,10.8c-6.1,1.1-11.7-2.9-12.9-8.5
		c0,0,0-0.1,0,0c-1.2,0-2.4,0-3.6-0.2c-4.5-0.6-8.3-4.3-9.2-8.7c-1.2-6.2,2.7-12,9-13.2c4.4-0.9,8-3.2,10.7-6.8
		c1.4-1.8,2.7-3.8,4-5.7c1.6-2.3,3.2-4.6,4.7-6.9c3.7-5.4,7.3-10.7,11-16.1c1.5-2.3,2.6-4.8,3.1-7.5c0.1-0.3,0-0.6-0.2-0.9
		c-3.8-4.3-6-9.2-6.7-14.9c-0.7-6.1,0.5-11.7,3.6-17c0.1-0.2,0.1-0.5,0.1-0.7c-1.2-4.9-0.2-9.3,3.1-13.1c1.9-2.2,3.5-4.5,4.6-7.2
		c1-2.4,1.7-5,1.8-7.6c0.1-1.1,0.1-2.3,0.1-3.4c0-1.3,1-2.3,2.2-2.3c1.3,0,2.3,0.9,2.4,2.2c0.1,2.1-0.1,4.1-0.4,6.2
		c-0.6,3.6-1.8,7-3.6,10.1c-1.1,1.9-2.3,3.6-3.8,5.1c-1.7,1.9-2.6,4.1-2.4,6.7c0.2,3.6,2.1,6.2,5.3,7.9c2.5,1.3,5,1.2,7.5,0.1
		c1.9-0.8,3.5-2.1,4.3-4c0.8-1.7,3.2-2.1,4.4-0.2c2,3.3,5.7,4.8,9.5,4.2c3.5-0.6,6.6-3.6,7.3-7.3c0.6-3.2-0.3-6-2.6-8.3
		c-4-3.9-6.7-8.6-8.1-14c-0.6-2.2-0.9-4.5-1-6.8c-0.1-1.3,0.9-2.4,2.1-2.5c1.3-0.1,2.4,0.8,2.6,2.1c0.2,1.6,0.3,3.1,0.6,4.7
		c1,5.1,3.3,9.4,7,13c2.8,2.7,4.3,6.1,4.3,10c0,1.4-0.1,2.7-0.6,4c-0.1,0.4-0.1,0.7,0.1,1c1.7,2.7,2.8,5.7,3.4,8.8
		C395.7,13.4,395.6,14.3,394.7,15.1z M353.7,32.4c0,5.2-1.2,9.4-3.6,13.2c-1.6,2.5-3.3,4.9-4.9,7.3c-4.8,7-9.6,14.1-14.4,21.1
		c-3.6,5.3-8.6,8.7-14.9,10c-3.7,0.8-5.9,4.5-4.9,8.1c1.1,3.9,5.3,5.8,9,4.1c1.8-0.8,3.6,0.4,3.4,2.3c-0.2,3.6,2.2,6.5,5.7,7
		c4.1,0.5,7.8-3.2,7.1-7.4c-0.1-0.8-0.2-1.6-0.3-2.3c-0.3-4.5,0.5-8.8,2.7-12.7c1-1.8,2.2-3.5,3.3-5.2c5.7-8.3,11.3-16.6,17-24.9
		c3.6-5.2,8.5-8.5,14.7-9.8c3.3-0.7,5.5-3.9,5.1-7.2c-0.6-4.3-5.2-6.8-9.2-4.9c-1.7,0.8-3.6-0.4-3.5-2.3c0.3-3.7-2.4-6.8-6.1-7
		c-4.1-0.2-7.1,3.2-6.8,6.9C353.4,30.1,353.6,31.6,353.7,32.4z M380.1,12.4c-4.2,0.3-7.9-1-11-4c-2.8,3.1-6.3,4.6-10.4,4.6
		c-4.2,0-7.6-1.7-10.4-4.8c-1.4,3.1-2,6.3-2,9.6c0,3.1,1.3,8.4,2.3,9.5c0.4-5.2,4.4-9.6,9.9-10.2c2.3-0.2,4.5,0.2,6.5,1.3
		c2.9,1.7,4.8,4.2,5.5,7.4c2.5-0.4,4.8,0,6.9,1.1C381.5,23.4,381.8,17.2,380.1,12.4z M391.4,18.5c-0.6-0.5-1.2-0.9-1.8-1.3
		c-1.2-0.9-1.3-2.6-0.2-3.6c0.3-0.3,0.6-0.6,0.9-0.9c0.3-0.2,0.4-0.5,0.3-0.9c0-0.1-0.1-0.2-0.1-0.3c-0.4-1.2-0.8-2.4-1.3-3.7
		c-0.8,0.7-1.5,1.3-2.2,1.9c-0.8,0.6-1.6,1-2.4,1.5c1.7,6.8,1.5,13.3-3.6,18.8c1.1,1.4,1.8,3,2.2,4.9c1-1,1.8-1.9,2.7-2.8
		c0.4-0.4,0.4-0.7,0.3-1.2c-0.5-1.4-0.1-2.3,1.1-3.1c0.7-0.5,1.3-0.9,2-1.4c-0.3-0.5-0.6-0.9-0.8-1.3c-0.3-0.4-0.6-0.9-0.9-1.3
		c-0.9-1.4-0.6-2.8,0.9-3.6C389.5,19.6,390.4,19.1,391.4,18.5z"/>
	<path class="st0" d="M398.8,38.4c-1.2,3.1-3.2,5.5-5.9,7.3c1,1.6,2,3.2,3,4.8c4.3,6.8,8.5,13.6,12.8,20.5c0.7,1.1,0.6,2.2-0.1,3
		c-0.7,0.8-1.9,1-2.8,0.5c-0.4-0.2-0.8-0.6-1-1c-3.6-5.7-7.1-11.3-10.6-17c-2.1-3.4-4.3-6.8-6.4-10.3c-0.9-1.4-0.4-2.9,1.2-3.6
		c3.3-1.5,5.3-4,6-7.5c0.3-1.6,1.7-2.4,3.2-1.9c5.4,1.9,10.8,3.8,16.2,5.7c2,0.7,4.1,1.4,6.1,2.2c1.4,0.5,2.1,1.8,1.6,3.1
		c-0.4,1.2-1.8,1.8-3.1,1.3c-6.5-2.3-13.1-4.6-19.6-6.9C399.1,38.5,399,38.5,398.8,38.4z"/>
	<path class="st0" d="M416.8,6.6c1.3-0.1,2.2,1.1,2.3,1.9c0.2,1.1-0.5,2.2-1.6,2.6c-2.5,0.7-5,1.5-7.5,2.2c-2.2,0.6-4.3,1.3-6.5,1.9
		c-1.3,0.4-2.5-0.1-3-1.2c-0.6-1.3,0.1-2.8,1.4-3.2c4-1.2,8.1-2.4,12.1-3.6c0.9-0.2,1.7-0.4,2.6-0.7C416.7,6.6,416.8,6.6,416.8,6.6z
		"/>
	<path class="st0" d="M369.3,74.8c-2-0.3-2.8-0.9-2.9-2.3c0-1.4,0.8-2.1,2.9-2.4c0-0.9,0.1-1.7,0.9-2.3c0.5-0.4,1-0.5,1.6-0.5
		c1.3,0.1,2,1,2.2,2.9c0.9,0,1.8,0.2,2.4,1c0.3,0.5,0.4,1,0.4,1.6c-0.1,1.3-0.9,1.9-2.9,2.1c0,0.9-0.1,1.8-0.9,2.4
		c-0.5,0.4-1,0.5-1.6,0.5C370.2,77.6,369.6,76.7,369.3,74.8z"/>
	<path class="st0" d="M413.8,25.9c-0.9,0.1-1.7-0.1-2.3-0.8c-0.4-0.4-0.5-1-0.5-1.5c0-1.4,0.8-2.1,2.9-2.3c0-0.9,0.1-1.8,0.9-2.3
		c0.4-0.3,1-0.5,1.5-0.5c0.7-0.1,1.4,0.3,1.8,0.9c0.3,0.6,0.4,1.3,0.7,2c0.8-0.1,1.6,0.1,2.2,0.9c0.4,0.5,0.5,1,0.5,1.6
		c-0.1,1.3-1,2-2.9,2.2c0,1-0.1,1.9-1,2.4c-0.4,0.3-0.9,0.4-1.4,0.4C414.7,28.8,414,27.9,413.8,25.9z"/>
	<path class="st0" d="M324.5,27.6c-0.1-0.9,0.1-1.7,0.8-2.3c0.4-0.4,0.9-0.6,1.5-0.6c0.7,0,1.4,0.3,1.8,0.9c0.5,0.6,0.5,1.3,0.5,2
		c0.9-0.1,1.8,0.1,2.4,0.8c0.3,0.4,0.5,1,0.5,1.5c0.1,1.4-0.8,2.1-2.9,2.3c0.1,1-0.2,1.8-1,2.4c-0.4,0.3-1,0.4-1.5,0.4
		c-0.7,0.1-1.4-0.3-1.7-0.9c-0.3-0.6-0.4-1.2-0.6-1.9c-0.7,0-1.6-0.1-2.1-0.8c-0.3-0.4-0.5-1-0.6-1.5c-0.1-0.8,0.3-1.4,0.9-1.9
		C323,27.6,323.7,27.6,324.5,27.6z"/>
</g>
<g>
	<g>
		<path class="st0" d="M227.4,89.6c1,0.5,2,1,2.9,1.6c1.3,1,1.8,2.5,1.8,4.2c0,2,0,4.1,0,6.1c0,0.4,0,0.9,0,1.4c1.6,0,3.1,0,4.6,0
			c3.9,0,6.2,2.3,6.2,6.2c0,3.4,0,6.9,0,10.4c0.6,0,1.2,0,1.8,0c0.3-1.3,0.5-2.7,0.8-4.1c2.5-9.4,11.1-16,20.7-16.1
			c4.2,0,8.4,0,12.5,0c3.3,0,5.6,2.2,5.7,5.5c0.1,3.2,0.1,6.4,0,9.5c-0.1,3.4-2.3,5.5-5.7,5.5c-3.9,0-7.7,0-11.6,0
			c-0.8,0-1.6,0-1.9,0.9c-0.4,1.2,0,2.2,0.9,2.8c1.3,0.9,2.5,2.3,3.9,2.6c1.4,0.3,2.9-0.6,4.4-0.9c0.7-0.1,1.4-0.2,2.2-0.2
			c4.3,0,8.7,0,13,0c3.1,0,5.4,2.2,5.5,5.3c0.1,3.3,0.1,6.5,0,9.8c-0.1,3.1-2.4,5.3-5.5,5.4c-3.1,0-6.3,0-9.4,0c-0.4,0-0.9,0-1.4,0
			c0,3.8,0,7.5,0,11.1c2.2,0,4.3-0.1,6.4,0c9.8,0.6,18.5,8.7,19.8,18.4c1.1,7.8-1.2,14.5-6.9,20c-0.4,0.4-0.8,0.8-1.3,1.1
			c-0.9,0.6-1.7,0.4-2.4-0.3c-0.7-0.8-0.6-1.6,0.1-2.4c0.2-0.2,0.5-0.4,0.7-0.6c3.7-3.2,5.8-7.2,6.3-12.1c-2-0.2-4-0.5-5.5,1.4
			c-0.5,0.6-1.1,1-1.7,1.5c-1.3,1-2.8,0.5-3.1-1.1c-0.4-2-0.7-4.1-1.3-6.2c-0.1,0.5-0.3,1-0.4,1.5c-1,4.7-2.1,9.3-3.1,14
			c-0.2,1-0.6,1.9-1.8,1.9c-1.3,0.1-1.7-0.8-2-1.9c-0.6-2.2-1.2-4.4-1.8-6.6c-0.1-0.3-0.2-0.5-0.4-1c-0.7,2.3-1.4,4.4-2,6.5
			c-0.3,1-0.8,1.8-2,1.7c-1.2-0.1-1.6-0.9-1.7-1.9c-0.6-4.3-1.3-8.5-1.9-12.7c-0.1-0.3-0.1-0.7-0.3-1.4c-0.5,1.1-0.8,2-1.2,2.8
			c-0.4,1-1.1,1.4-2.1,1.4c-1.5,0-3,0-4.8,0c0.5,1.7,0.7,3.3,1.3,4.8c3.4,9,13,13.8,22.3,11.3c0.3-0.1,0.5-0.2,0.8-0.2
			c1-0.2,1.9,0.3,2.2,1.2c0.3,0.9-0.2,1.9-1.2,2.2c-1.7,0.4-3.5,0.9-5.3,1c-5.4,0.4-10.3-1.1-14.8-4.3c-0.3,0.3-0.6,0.7-0.8,1
			c-9.1,10.7-20.7,15.9-34.7,15.4c-19.4-0.7-36.3-15.5-39.7-34.6c-0.5-2.7-0.7-5.5-0.7-8.3c-0.1-20.1,0-40.3,0-60.4
			c0-4.2,2.2-6.4,6.5-6.4c1.8,0,3.6,0,5.4,0c1.8,0,3.5,0,5.4,0c0-2,0-4.3,0-6.5c0-4.2,0.9-5.6,4.7-7.2
			C219.6,89.6,223.5,89.6,227.4,89.6z M244.7,123.4c-0.5,0-0.8,0-1.2,0c-7.7,0-15.4,0-23.1,0c-12.6,0-22.8,10.1-22.9,22.7
			c-0.1,8.3-0.1,16.6,0,25c0.2,16.2,10,30.2,25.1,35.9c5.1,1.9,10.4,3.1,15.9,2.2c5.2-0.8,8.9-3.8,11.3-8.6
			c-0.4-0.1-0.6-0.2-0.9-0.2c-2.1-0.3-4-1.1-5.7-2.4c-3-2.3-4.6-5.4-4.9-9.2c-0.1-1.3,0.6-2.1,1.7-2.2c1-0.1,1.7,0.7,1.9,1.9
			c0.1,0.5,0.1,1,0.2,1.4c0.8,4.1,4.9,7.4,8.8,6.9c0.5-2.2,0.3-4.4-0.2-6.5c-1.8-6.7-7.7-11.3-14.6-11.4c-0.1,0-0.2,0-0.4,0
			c-1.3,0-2-0.7-2.1-1.7c0-1.1,0.8-1.9,2-1.9c4.4,0,8.4,1.3,11.8,4.1c0.8,0.6,1.5,1.3,2.2,2c2-2.7,1.7-7.1-0.6-10
			c-0.3-0.4-0.7-0.7-0.9-1.1c-0.6-0.8-0.5-1.6,0.2-2.3c0.7-0.7,1.5-0.7,2.3-0.2c0.4,0.3,0.7,0.6,0.9,0.9c3.7,4.2,4.1,10.3,1.1,15
			c-0.2,0.3-0.5,0.8-0.4,1.1c0.8,2.3,1.7,4.5,2.6,6.8c3.8-0.7,7-5,6.4-8.8c-1.7-10.3,3.4-19.9,12.9-24.1c0.7-0.3,0.9-0.7,0.9-1.4
			c0-3.7,0-7.5,0-11.2c-0.1-4.7-1.4-8.9-4.1-12.8c-1.5-2.2-3.4-4.1-5.8-5.7c0,0.8,0,1.4,0,2c0,7.6,0,15.1,0,22.7
			c0,1.4-0.7,2.2-1.8,2.2c-1,0-1.8-0.8-1.8-2c0-10.4,0-20.9,0-31.3c0-2.2,1.5-3.9,3.6-4.4c0.8-0.2,1.7-0.2,2.6-0.2c2,0,4,0,5.9,0
			c0-4.5,0-8.8,0-13.2c-2.7,0-5.4-0.1-8,0c-8.5,0.3-15.9,6.8-17,15.1c-0.4,3.2-0.2,6.4-0.3,9.6c0,1.4-0.8,2.2-1.9,2.2
			c-1.1,0-1.7-0.8-1.7-2.2C244.7,126.5,244.7,125,244.7,123.4z M301.5,177.1c-0.6-9.6-9.8-17.3-19.4-16.7
			c-11.3,0.7-17.3,10.4-17.3,16.7c0.9,0,1.8,0,2.6,0c0.8,0.1,1.1-0.2,1.4-0.9c0.9-2.3,1.9-4.6,2.8-6.9c0.4-1,1-1.6,2.1-1.4
			c1,0.2,1.4,0.9,1.6,1.9c0.4,2.7,0.8,5.5,1.2,8.2c0.2,1.4,0.4,2.8,0.7,4.1c0.7-1.5,1.1-2.9,1.6-4.4c0.3-1,0.7-2,2-1.9
			c1.2,0,1.7,0.9,1.9,2c0.5,2.1,1.1,4.1,1.7,6.5c0.2-0.6,0.3-0.9,0.3-1.2c1.3-5.7,2.5-11.4,3.8-17c0.2-1,0.8-1.7,1.9-1.7
			c1.2,0,1.7,0.8,1.8,1.9c0.1,1,0.3,2.1,0.5,3.1c0.5,3.2,1,6.3,1.6,9.8C296.3,176.2,299,177.4,301.5,177.1z M214.8,101
			c0,6.3,0,12.7,0,19.1c2.4-0.2,4.7-0.4,7.1-0.6c0-0.5,0-0.9,0-1.4c0-3.2-0.1-6.4,0-9.6c0.1-3.1,2.3-5.3,5.4-5.5
			c0.3,0,0.6-0.1,1-0.1c0-0.5,0-0.9,0-1.3c0-0.2-0.1-0.5-0.1-0.6C223.8,101,219.4,101,214.8,101z M197.5,132.7
			c4.3-6.1,6.1-7.6,13-11.1c0.2-0.1,0.6-0.4,0.6-0.7c0-2.1,0-4.3,0-6.3c-4.6,0-9.1,0-13.6,0C197.5,120.5,197.5,126.5,197.5,132.7z
			 M272.8,129.2c0,0.1,0,0.3-0.1,0.4c2.8,3.6,4.7,7.5,5.5,12c0,0.2,0.5,0.5,0.7,0.6c1.8,0,3.6,0,5.3,0c0-4.4,0-8.8,0-13
			C280.6,129.2,276.7,129.2,272.8,129.2z M250.1,206.8c6.9-2.5,12.5-6.8,16.9-12.4c-1.2-1.7-2.4-3.3-3.6-4.9
			c-1.9,3.1-4.6,5.1-8.2,5.9c-0.3,0.1-0.5,0.5-0.6,0.9c-0.3,1.1-0.4,2.2-0.7,3.3C253.3,202.2,251.8,204.5,250.1,206.8z M239.2,114.4
			c-4.6,0-9,0-13.5,0c0,1.7,0,3.5,0,5.2c4.6,0,9.1,0,13.5,0C239.2,117.8,239.2,116,239.2,114.4z M221.5,97.6c1.5,0,3,0,4.6,0
			c1.5,0,2.4-0.9,2.4-2.2c0-1.3-0.9-2.1-2.4-2.2c-3,0-5.9,0-8.9,0c-1.5,0-2.4,0.9-2.4,2.2c0,1.3,0.9,2.1,2.4,2.2
			C218.6,97.6,220,97.6,221.5,97.6z M204.3,106.9c-1.5,0-3,0-4.6,0c-1.4,0-2.3,0.8-2.3,2.1c0,1.2,0.8,2.1,2.2,2.2c3,0,6.1,0,9.1,0
			c1.4,0,2.3-0.9,2.3-2.1c0-1.3-0.9-2.1-2.4-2.2C207.2,106.9,205.8,106.9,204.3,106.9z M232.4,106.6c-1.5,0-3,0-4.6,0
			c-1.4,0-2.3,0.9-2.3,2.1c0,1.2,0.8,2.1,2.2,2.2c3,0.1,6.1,0.1,9.1,0c1.5,0,2.3-0.9,2.3-2.2c0-1.2-0.9-2-2.3-2
			C235.4,106.6,233.9,106.6,232.4,106.6z M291.5,135.5c0-1.5,0-3,0-4.4c0-1.4-0.7-2.2-1.9-2.2c-1.1,0-1.7,0.8-1.7,2.2
			c0,3,0,5.9,0,8.9c0,1.3,0.7,2.1,1.7,2.2c1.1,0,1.9-0.8,1.9-2.2C291.5,138.5,291.5,137,291.5,135.5z M277.2,109.7
			c0,1.6,0,3.1,0,4.7c0,1.3,0.7,2,1.7,2c1.1,0,1.8-0.7,1.8-1.9c0-3.1,0-6.3,0-9.4c0-1.2-0.9-2-1.9-1.9c-1,0-1.7,0.8-1.7,2
			C277.2,106.6,277.2,108.1,277.2,109.7z"/>
		<path class="st0" d="M215.5,157.4c-3.8,0.6-6.7,4-6.9,8.1c-0.1,1.1-0.4,1.9-1.5,2.2c-1.2,0.3-2.1-0.7-2.1-2.1
			c0-5.6,4.4-10.8,10-11.8c0.9-0.2,1.2-0.5,1.6-1.3c0.8-1.9,1.8-3.8,2.9-5.9c-2.1-1.4-4.6-1.8-7.2-0.9c-1.2,0.4-2.3,1.2-3.4,2
			c-1.1,0.8-2,0.9-2.8,0.1c-0.8-0.8-0.7-1.9,0.4-2.8c3.8-3.6,10.3-4.7,15.6-1c2.5-1.3,4.8-2.5,7.3-3.9c0-2.7-2.8-6-6.2-6.8
			c-0.7-0.2-1.4-0.2-2.1-0.3c-1.2-0.1-1.9-0.8-1.9-1.9c0-1.1,0.8-1.7,2-1.7c5.4,0,10.4,4,11.8,9.3c0.1,0.3,0.2,0.6,0.3,1
			c4.1-0.2,7.9,0.7,11.6,3c0-2.1,0-3.9,0-5.8c0-0.6,0-1.1,0-1.7c0.1-0.9,0.7-1.5,1.6-1.6c0.9-0.1,1.6,0.3,1.9,1.2
			c0.1,0.4,0.1,0.8,0.2,1.2c0,5.3,0,10.6,0,15.9c0,0.6-0.2,1.4-0.6,1.8c-0.4,0.4-1.3,0.5-1.8,0.3c-0.5-0.2-1-1-1.1-1.5
			c-0.2-1.5,0-3-0.1-4.5c0-0.4-0.1-0.9-0.3-1.1c-4-3.6-10.3-4.7-14.5-3c0.7,2.1,1.7,4.1,2.1,6.2c0.7,3.9-0.5,7.3-3.1,10.2
			c-0.9,1-1.9,1.1-2.7,0.4c-0.9-0.7-0.9-1.8,0.1-2.9c3.2-3.8,3.2-8.8-0.2-12.1c-0.2,0.1-0.5,0.3-0.8,0.4c-7.1,5.2-8.2,15.6-2.4,22.2
			c0.3,0.4,0.7,0.8,1,1.2c0.5,0.8,0.4,1.6-0.3,2.2c-0.7,0.7-1.5,0.8-2.3,0.2c-0.6-0.5-1.1-1.1-1.6-1.7
			C216.6,166.7,215.3,162.4,215.5,157.4z"/>
	</g>
	<circle class="st1" cx="282.9" cy="179" r="19.1"/>
	<g>
		<path class="st0" d="M283.8,176.4c1.5,0.8,2.8,1.6,4.2,2.4c1.1,0.6,1.1,1.4,0.1,2.1c-3.4,2.3-6.8,4.6-10.1,6.8
			c-0.7,0.5-1.3,0.4-1.7-0.1c-0.4-0.6-0.2-1.1,0.5-1.6c1.5-1,3.1-2.1,4.6-3.1c1.4-1,2.9-1.9,4.4-3c-1.4-0.8-2.7-1.6-4-2.3
			c-0.9-0.5-1-1.3-0.2-2c3-2.8,6-5.5,9-8.3c0.4-0.4,0.8-0.6,1.3-0.4c0.8,0.4,0.8,1.2,0.2,1.8c-1.5,1.4-3.1,2.9-4.6,4.3
			C286.3,174.1,285.1,175.2,283.8,176.4z"/>
		<path class="st0" d="M275.3,175.8c-1.2,0-2.3,0-3.4,0c-1.1,0-1.6-0.6-1.2-1.7c1.2-3.2,2.4-6.4,3.6-9.5c0.2-0.6,0.7-0.9,1.2-0.8
			c0.5,0.1,0.8,0.4,0.9,1c0,0.2-0.1,0.4-0.1,0.7c-1,2.5-1.9,5.1-2.9,7.6c-0.1,0.2-0.1,0.4-0.2,0.7c1.3,0,2.5,0,3.8,0
			c1.2,0,1.6,0.7,1.1,1.7c-1.8,3.2-3.6,6.3-5.4,9.5c-0.3,0.6-1,0.7-1.5,0.4c-0.6-0.3-0.7-0.9-0.3-1.6c1.3-2.4,2.7-4.7,4-7.1
			C275,176.4,275.1,176.2,275.3,175.8z"/>
		<path class="st0" d="M289.4,187.2c0.6,0.9,1.2,1.7,1.8,2.6c0.3,0.4,0.5,0.8,0.3,1.4c-0.2,0.5-0.7,0.6-1.2,0.6
			c-3.5,0.4-7,0.8-10.6,1.1c-0.4,0-0.9-0.1-1.2-0.3c-0.2-0.2-0.3-0.8-0.2-1c0.2-0.3,0.6-0.6,1-0.7c2.4-0.3,4.9-0.5,7.3-0.8
			c0.6-0.1,1.2-0.1,1.9-0.2c-0.6-0.8-1.1-1.6-1.7-2.4c-0.8-1.1-0.5-1.8,0.8-2.1c3.1-0.6,6.3-1.2,9.4-1.8c0.3-0.1,0.6-0.1,0.8,0
			c0.5,0.1,0.7,0.5,0.7,1c0,0.6-0.3,0.9-0.9,1c-1.1,0.2-2.1,0.4-3.2,0.6C293,186.5,291.3,186.8,289.4,187.2z"/>
	</g>
</g>
<g>
	<path class="st0" d="M-137.4,132.3c-0.3,4.2-1,7.9-0.8,11.5c0.4,10.9-3.4,20.1-11.2,27.6c-0.4,0.4-0.6,1.2-0.6,1.8
		c-0.1,2.9,0,5.8,0,8.7c0,2.4-1.1,3.5-3.5,3.5c-5.5,0-11.1,0-16.6,0c-2.4,0-3.5-1.1-3.5-3.5c0-2.8,0.1-5.7,0-8.5
		c0-0.8-0.4-1.7-0.9-2.2c-7.2-7.1-11.1-15.6-10.9-25.9c0-4.1-0.5-8.3-0.8-12.6c-2.2,2.3-3.9,4.4-6,6.2c-3.7,3.2-8.1,4.9-13,5.1
		c-0.6,0-1.2,0.2-1.8,0.4c-3,1.4-6.1,1.4-9.2,0.5c-6.9-2.1-12.7-9.4-12.2-17c0.2-2.4-1-4.9-1.2-7.4c-0.9-10.4,2.4-19.2,10.9-25.5
		c7.9-5.8,18.5-5.4,26,0.7c1,0.8,1.9,1,3.1,0.6c8.4-2.7,16.9-5,25.7-5.4c9.8-0.4,19.1,2.1,28.4,5c2,0.6,3.3,0.6,5.1-0.7
		c10-7.5,23.6-5,31.1,5.6c5.2,7.3,6.4,15.4,4.3,24.1c-0.3,1.3-0.5,2.7-0.5,4c0.1,9.1-8.2,17.2-17.3,16.7c-0.4,0-0.7,0-1.1-0.1
		c-3.2-0.7-6.3-1.3-9.4-2.2c-5.2-1.4-9.4-4.5-12.6-8.9C-136.2,133.9-136.6,133.3-137.4,132.3z M-179.4,151.4c6.5-2,9.2-6,8.3-11.6
		c-0.2-1.4-0.2-2.8-0.5-4.2c-0.8-5.4-2.1-10.7-5.4-15.3c-2.1-2.9-4.7-5.1-8.3-5.7c-1.6-0.2-2.9-0.8-3.2-2.5
		c-0.3-1.8,0.8-2.8,2.3-3.5c10.2-4.6,20.8-7.1,32.1-5.1c5.8,1,11.4,2.7,16.6,5.2c1.4,0.7,2.3,1.7,2,3.3c-0.3,1.6-1.4,2.3-3,2.5
		c-1.4,0.2-2.8,0.7-4,1.4c-3.2,1.8-5.2,4.6-6.7,7.9c-2.4,5.1-3.1,10.5-3.8,16.1c-0.6,5,1.4,9.5,8.3,11.4c0.1-1.4,0.3-2.7,0.4-4
		c0.3-4.3,0.2-8.6,0.8-12.9c0.6-4.2,1.7-8.4,2.8-12.6c0.4-1.5,1.5-2.3,3-2.2c1.5,0.1,2.3,1,2.7,2.4c0.1,0.5,0.2,1,0.3,1.4
		c1.1,4,3,7.5,6.1,10.3c1.8,1.6,3.9,2.9,6.2,3.6c0.2-1.9,0.4-3.6,0.5-5.3c0-0.4-0.4-0.9-0.8-1.2c-8.1-5.4-9.3-18.3-2.3-25.1
		c4.3-4.2,10.3-4.1,14.5,0.1c2.3,2.2,3.6,5,4.1,8.1c0.3,1.6,0.4,3.3,0.5,4.7c1.9,0.5,3.7,0.9,5.4,1.4c1-3.4-0.1-9.4-2.4-13.7
		c-5.9-10.8-18.5-12.8-26.6-4.4c-1.2,1.2-2.5,1.4-4,0.9c-3.6-1.2-7.3-2.3-10.9-3.3c-7.2-1.8-14.5-3.3-22-2.5
		c-8.1,0.9-15.8,2.9-23.4,5.5c-2.2,0.7-3.8,0.5-5.5-1.2c-3.7-3.6-8.2-5.3-13.3-4.4c-8.2,1.5-12.5,7-14.7,14.6
		c-0.8,2.8-1.1,5.6-0.5,8.4c2-0.5,3.7-0.9,5.7-1.4c0-0.5,0-1.2,0-1.8c0.2-3.6,1.2-6.9,3.5-9.7c4.6-5.7,12-5.8,16.6,0
		c6.1,7.6,3.9,19.8-3.4,24c-0.3,0.2-0.7,0.7-0.7,1.1c0.1,1.8,0.3,3.5,0.5,5.6c1.6-0.9,3.2-1.5,4.5-2.5c4.4-3.1,6.9-7.4,8-12.6
		c0.4-1.6,1.1-2.7,2.9-2.8c1.8-0.1,2.8,1,3.1,2.6c1.1,5.2,2.3,10.4,3,15.7C-179.6,142.4-179.6,146.8-179.4,151.4z M-167.9,179.4
		c4.1,0,7.9,0,11.8,0c0-2.6,0.1-5,0-7.5c-0.1-1.8,0.6-3.1,2-4.3c3.3-2.9,5.9-6.4,7.6-10.4c-1.8-0.9-3.5-1.6-5.1-2.5
		c-4.7-2.8-7.3-7-7.2-12.5c0.1-6.9,1.3-13.6,4-19.9c1.8-4.2,4.4-7.9,8.3-10.8c-10.4-3.6-20.5-3.6-30.8-0.1c0.2,0.3,0.3,0.5,0.5,0.6
		c3.6,2.7,6,6.3,7.7,10.4c2.4,5.7,3.4,11.8,3.9,17.9c0.5,6.4-2.3,11.8-8,14.8c-1.4,0.7-2.8,1.4-4.3,2.1c1.9,4.2,4.5,7.7,7.9,10.6
		c1.2,1,1.7,2.1,1.7,3.7C-167.9,174.1-167.9,176.7-167.9,179.4z M-217.9,124.8c-3.1-0.1-4.8,1.7-4.7,4.8c0.1,5.1,5.6,10.3,10.6,10.1
		c2.6-0.1,4.2-1.7,4.3-4.3C-207.5,130.3-212.8,124.9-217.9,124.8z M-101.3,129.5c0-3-1.7-4.7-4.7-4.7c-5.1,0.1-10.3,5.5-10.2,10.5
		c0,2.7,1.7,4.3,4.4,4.4C-106.8,139.8-101.4,134.5-101.3,129.5z M-204.4,125.8c4-1.3,6.3-11,1.2-15.9c-1.9-1.8-4.2-1.8-6.1,0.1
		c-2.6,2.6-3.1,5.9-2.6,9.4c0.1,0.5,0.5,1,0.9,1.3C-209,122.4-206.9,124-204.4,125.8z M-119.4,125.8c2.4-1.8,4.6-3.5,6.8-5.2
		c0.3-0.2,0.6-0.6,0.7-1c0.6-3.6,0-6.9-2.6-9.6c-1.9-1.9-4.5-2-6.1,0.1c-1.3,1.6-2.2,3.7-2.7,5.7
		C-124.3,120.1-122.3,124.4-119.4,125.8z"/>
	<path class="st0" d="M-95.8,200.2c2.1,2.1,4.1,4.1,6.2,6.1c1.1,1,1.9,2.1,1.3,3.7c-0.5,1.5-1.7,1.9-3.2,2.1
		c-6.5,0.9-12.9,1.9-19.3,2.8c-2.6,0.4-4.1-1.2-3.8-3.8c0.9-6.6,1.8-13.2,2.9-19.7c0.2-1,1.1-2.4,2-2.7c0.9-0.3,2.4,0.2,3.2,0.9
		c2.2,1.9,4.2,4.1,6.3,6.4c3.9-4.3,7.1-8.8,9.8-13.6c26.8-47.2,2.7-106.1-49.5-121C-186.9,48-236.5,79.5-243.5,128
		c-5.1,35.4,8.2,63.3,37.8,83.3c0.7,0.4,1.4,0.9,1.8,1.5c0.8,1.2,0.7,2.5-0.3,3.5c-1.1,1.2-2.5,1.3-3.8,0.4c-3.9-2.8-8-5.3-11.6-8.5
		c-17.7-15.3-28-34.7-30.5-58c-4.4-42.1,21.1-80.7,59.9-93.1c34.7-11.1,65.5-3.4,91.5,22c14.4,14,22.4,31.6,24.6,51.6
		c2.9,25.7-4.3,48.4-20.9,68.2C-95.2,199.4-95.4,199.7-95.8,200.2z M-98,207.1c-2.9-2.9-5.9-5.9-8.8-8.8c-0.4,3.2-0.9,6.6-1.4,10.2
		C-104.5,208-101.2,207.5-98,207.1z"/>
	<path class="st0" d="M-164.9,205.2c0,6.2-4.2,10.1-9.6,9.7c-5.4-0.4-8.9-4.9-8-10.4c0.8-4.9,3.4-8.8,6.7-12.3
		c1.2-1.2,2.8-1.4,4-0.1C-168,196-165.2,200.4-164.9,205.2z M-173.3,199.1c-0.3,0-0.6,0-0.9,0c-0.8,1.9-1.7,3.8-2.4,5.8
		c-0.4,1.3-0.4,2.9,1.1,3.5c1,0.4,2.4,0.4,3.4,0c1.5-0.6,1.5-2.2,1.1-3.5C-171.6,203-172.5,201-173.3,199.1z"/>
	<path class="st0" d="M-159,219.9c0.4-4.8,3.2-9.3,7-13.1c1.2-1.2,2.8-1,4,0.3c3.3,3.5,5.9,7.4,6.6,12.3c0.8,5.5-2.7,10-8.1,10.4
		C-154.9,230.1-159,226.2-159,219.9z M-149.6,213.8c-0.3,0-0.7,0-1,0c-0.8,2.1-1.8,4.1-2.3,6.2c-0.2,1,0.4,2.6,1.1,3.1
		c0.8,0.5,2.3,0.4,3.4,0.1c1.4-0.5,1.5-2,1.2-3.2C-147.9,218-148.8,215.9-149.6,213.8z"/>
</g>
<g>
	<path class="st0" d="M-203-20.2c-0.8,1-1.5,1.8-2.1,2.7c-0.8-0.6-1.6-1.1-2.5-1.7c0.6-1,1.1-1.9,1.7-3
		C-204.9-21.5-204-20.9-203-20.2z"/>
	<path class="st0" d="M-210.3-20.5c-1-0.3-1.9-0.6-2.8-0.9c0.3-1.1,0.5-2.2,0.8-3.4c1.1,0.4,2.2,0.7,3.3,1.1
		C-209.5-22.6-209.9-21.6-210.3-20.5z"/>
	<path class="st0" d="M-200.4-17.9c0.8,0.9,1.5,1.7,2.2,2.6c-1,0.7-1.9,1.4-2.8,2c-0.6-0.8-1.3-1.5-1.8-2.2
		C-202-16.1-201.2-16.9-200.4-17.9z"/>
	<g>
		<path class="st0" d="M-300.5-11c0.2-1.6,0.3-3.3,0.6-4.9c1.4-8.1,2.7-16.3,4.2-24.4c1-5.2,2-10.4,3.4-15.5
			c1.1-4.3,2.7-8.6,4.2-12.8c0.8-2.3,2.7-3.7,5.1-4.2c5.6-1.2,11.2-2.5,16.8-3.6c3.5-0.7,6.5,0.5,8.7,3.3c1.5,1.8,2.8,3.8,4.1,5.7
			c1.7,2.5,1.5,5.7-0.4,8.2c-1,1.2-1.9,2.4-3,3.6c1.6,1.9,1.8,4,0.7,6.2c-1,2-2.6,3-4.8,3.2c-3,0.2-5.7-0.6-8.4-1.7
			c-1.5-0.6-2.9-1.4-4.3-2.1c-0.3-0.1-0.6-0.3-1.2-0.6c-0.3,3.4-0.8,6.5-0.8,9.7c-0.1,9.4,0.1,18.7,0.2,28.1c0,0.4,0.4,0.9,0.7,1.2
			c3.3,2.4,7,3.1,10.9,2.2c8.3-1.7,16.6-1.6,25-0.4c1.6,0.2,3.1,0.2,4.8-0.3c9.4-2.9,19-3.3,28.6-0.8c6.3,1.6,10.2,7.5,9.3,13.9
			c-0.4,2.7-0.9,5.4-1.6,8.1c-1.2,4.4-4,7-8.7,7.7c-9.9,1.4-19.7,0.9-29.2-2.2c-1.1-0.3-2-0.9-3.1-1.3c-0.3-0.1-0.8-0.3-1.1-0.1
			c-5,1.7-10.1,2.5-15.3,2.8c-8.4,0.4-16.8,0.2-25.1-1.5c-3.4-0.7-6.6-1.8-9.7-3.3c-6-3.1-9.5-7.9-10.1-14.7c-0.1-1-0.3-2-0.4-3
			C-300.5-6.8-300.5-8.9-300.5-11z M-235.3,13c0.5,0.2,1,0.4,1.5,0.5c4.3,1.4,8.7,2,13.1,2.3c5.2,0.3,10.4,0.3,15.5-1
			c1.1-0.3,2-0.8,2.6-1.8c0.5-0.8,1-1.6,1.2-2.4c0.7-2.6,1.3-5.3,1.7-7.9c0.8-4.9-2.1-9.1-6.9-10.3c-9.6-2.4-19.1-1.8-28.4,1.5
			c-0.4,0.1-0.9,0.2-1.3,0.2c-0.9-0.1-1.9-0.2-2.8-0.3c-8.1-1.1-16.2-1.3-24.4,0.4c-5.4,1.1-10.3-0.2-14.5-3.8
			c-0.5-0.4-0.9-1.2-0.9-1.9c-0.5-11.4-0.9-22.8,0.2-34.2c0.2-2.4,0.8-4.9,1.4-7.3c0.5-1.9,1.6-2,3.3-1.1c2.6,1.3,5.3,2.7,8,3.7
			c1.5,0.6,3.2,0.7,4.9,0.8c1.1,0.1,1.8-0.7,2-1.8c0.2-0.9-0.2-1.7-0.9-2.1c-1-0.5-2.1-0.8-3.2-1.2c-1.1-0.4-2.3-0.6-3.3-1.2
			c-2.4-1.6-3.9-4.1-5.3-6.7c1.1-0.5,2.1-1,3.1-1.6c1,1.8,2,3.4,3.5,4.8c0.1,0,0.2-0.1,0.3-0.1c0-1.3,0-2.6,0-3.8c1.2,0,2.3,0,3.6,0
			c-0.3,1.8-0.6,3.5-0.9,5.2c0.5,0.1,1.1,0.2,1.7,0.4c0.6,0.3,1,0.1,1.4-0.4c0.8-1,1.6-1.9,2.4-2.9c1.3-1.6,1.3-3,0.2-4.7
			c-1.1-1.6-2.3-3.2-3.4-4.8c-1.4-1.9-3.3-2.8-5.6-2.3c-5.6,1.1-11.2,2.4-16.8,3.6c-1.2,0.3-2.2,1.1-2.6,2.3c-1.4,4-3,7.9-3.9,12
			c-2.8,12.1-5.4,24.2-7.2,36.5c-0.8,5.5-1.2,11.1-0.5,16.7c0.7,5.4,3.3,9.3,8.1,11.8c4.1,2.2,8.5,3.2,13,3.8
			c7.9,1.1,15.8,1.3,23.7,0.4c6-0.7,11.9-1.8,16.9-5.7c0.9,0.7,1.8,1.4,2.7,2.1C-233.2,11.4-234.2,12.1-235.3,13z"/>
		<path class="st0" d="M-225.3-41.4c0.9-0.7,1.8-1.4,2.7-2.2c1.2,1.5,2.4,3,3.8,4.8c0-9.5,0-18.7,0-27.9c1.2,0,2.3,0,3.5,0
			c0,9.2,0,18.4,0,27.9c1.4-1.7,2.6-3.2,3.8-4.7c0.9,0.7,1.8,1.4,2.7,2.1c-0.3,0.4-0.5,0.7-0.8,1.1c-1.9,2.4-3.9,4.8-5.8,7.2
			c-1.1,1.4-2.2,1.4-3.3,0C-220.8-35.8-223-38.5-225.3-41.4z"/>
		<path class="st0" d="M-243-33.9c0-3.7,0-7.5,0-11.2c0-3.7,0-7.4,0-11.2c1.2,0,2.2,0,3.4,0c0,7.5,0,14.9,0,22.4
			c0.1,0,0.2,0.1,0.2,0.1c1.2-1.5,2.4-3,3.6-4.5c0.9,0.7,1.8,1.4,2.7,2.2c-1.9,2.4-3.8,4.7-5.7,7.1c-0.4,0.5-0.8,1-1.2,1.5
			c-0.9,1-2,1-2.8,0c-2.3-2.8-4.6-5.7-6.9-8.6c0.9-0.7,1.8-1.4,2.7-2.2c1.2,1.5,2.4,3,3.6,4.5C-243.2-33.8-243.1-33.9-243-33.9z"/>
		<path class="st0" d="M-235.7-17.1c-0.5,1.1-0.9,2.1-1.4,3.2c-1-0.4-1.9-0.7-2.9-1.1c0.4-1.1,0.7-2.1,1.1-3.3
			C-237.8-17.9-236.8-17.5-235.7-17.1z"/>
		<path class="st0" d="M-242.2-19.4c-0.3,1.2-0.6,2.2-0.9,3.3c-1-0.2-2-0.5-3.1-0.7c0.2-1.1,0.4-2.2,0.6-3.4
			C-244.4-19.9-243.4-19.7-242.2-19.4z"/>
		<path class="st0" d="M-259.3-20.3c1.2-0.2,2.2-0.3,3.4-0.5c0.1,1.2,0.2,2.3,0.3,3.4c-1,0.2-2,0.3-3.1,0.4
			C-258.9-18-259.1-19.1-259.3-20.3z"/>
		<path class="st0" d="M-262.7-19.4c0.4,1.2,0.7,2.2,1.1,3.3c-0.9,0.4-1.8,0.7-2.9,1.1c-0.5-1-0.9-2-1.4-3.1
			C-264.9-18.5-263.9-19-262.7-19.4z"/>
		<path class="st0" d="M-216.1-22c-1,0-2,0-3,0c0-1.1,0-2.2,0-3.4c1,0,2.1,0,3.4,0C-215.9-24.2-216-23.1-216.1-22z"/>
		<path class="st0" d="M-231.1-19.5c-0.5-1.1-0.9-2.1-1.4-3.2c1.1-0.4,2.1-0.8,3.2-1.2c0.3,1.2,0.7,2.2,1,3.3
			C-229.3-20.2-230.2-19.9-231.1-19.5z"/>
		<path class="st0" d="M-222.2-21.8c-1.1,0.2-2,0.3-3.1,0.5c-0.2-1.1-0.4-2.2-0.7-3.4c1.1-0.2,2.1-0.4,3.3-0.6
			C-222.5-24-222.4-23-222.2-21.8z"/>
		<path class="st0" d="M-252.3-20.9c1.2,0.1,2.2,0.1,3.4,0.2c-0.1,1.2-0.2,2.3-0.3,3.3c-1,0-2,0-3.1,0
			C-252.3-18.5-252.3-19.6-252.3-20.9z"/>
		<path class="st0" d="M-269.1-16.5c0.6,1,1.2,1.9,1.8,3c-1.1,0.5-2.1,1-3.2,1.5c-0.4-1.1-0.8-2.1-1.3-3.2
			C-270.9-15.6-270.1-16-269.1-16.5z"/>
	</g>
</g>
<g>
	<path class="st0" d="M-70.7,292.4c5.6,0,10.9,0,16.3,0c-11.6-10.4-7.7-25.1,0.3-31.1c8.9-6.7,22.3-5.3,29.1,5.6
		c0.3-0.3,0.6-0.5,0.9-0.8c11.8-11.1,25.6-15.4,41.6-13c3.5,0.5,6.2,2.3,7.9,5.4c0.6,1.1,1.2,1.3,2.4,1.3c8,0,16.1,0,24.1,0
		c12.1,0,20.8,8.7,20.8,20.8c0,21.3,0,42.5,0,63.8c0,0.5,0,1-0.1,1.4c-0.2,1.1-0.9,1.9-2,1.6c-0.7-0.2-1.4-0.9-1.9-1.6
		c-0.3-0.3-0.1-1-0.1-1.6c0-6.8,0-13.6,0-20.4c0-0.6,0-1.2,0-1.8c-46.5,0-92.8,0-139.4,0c0,0.6,0,1.2,0,1.7c0,6.8,0,13.6,0,20.4
		c0,0.5,0,1-0.1,1.4c-0.2,1.1-0.8,1.9-2,1.8c-1.2,0-1.8-0.8-1.9-1.9c0-0.4,0-0.9,0-1.3c0-33.3,0-66.6,0-99.9c0-0.3,0-0.6,0-1
		c0-1.3,0.5-2.2,1.9-2.3c1.3-0.1,2,0.7,2.1,2.2c0,0.5,0,1,0,1.4c0,15.1,0,30.1,0,45.2C-70.7,290.8-70.7,291.5-70.7,292.4z
		 M-70.6,296.6c0,7.2,0,14.3,0,21.3c46.5,0,92.8,0,139.1,0c0-7.2,0-14.2,0-21.3C22.1,296.6-24.2,296.6-70.6,296.6z M10.7,268.4
		c-5,0.3-9.7,0.9-14,3c-1.1,0.5-1.6,1.2-1.6,2.6c0.1,4.5,0,9,0,13.6c0,1.6,0,3.2,0,4.8c24.6,0,49,0,73.5,0c0-2,0-3.9,0-5.8
		c0-3.1,0.2-6.2-0.3-9.2c-1.2-8-7.8-13.4-16.2-13.4c-7.9-0.1-15.9,0-23.8,0c-0.5,0-0.9,0.1-1.5,0.1c0,4.4,0,8.6,0,12.9
		c0,2-0.4,3.9-1.7,5.5c-2.1,2.8-5.7,3.9-9,2.9c-3.3-1-5.6-4-5.6-7.5C10.7,274.8,10.7,271.7,10.7,268.4z M-8.9,292.4
		c0-6.6,0.1-13,0-19.4c0-1.9,0.6-3.2,2.2-4.1c0.6-0.4,1.2-0.7,1.8-1c5.4-2.7,11.1-3.3,17-3.5c2.1,0,2.7,0.6,2.7,2.6
		c0,3.4,0,6.8,0,10.2c0,2.7,1.7,4.5,4.1,4.5c2.4,0,4.1-1.8,4.1-4.5c0-4.3,0-8.5,0-12.8c0-3.9-2.4-6.8-6.2-7.3
		c-15.2-2.2-28.2,2.3-39.1,13.1c-0.7,0.7-0.8,1.3-0.6,2.3c1.6,7.2-0.4,13.3-5.5,18.5c-0.4,0.4-0.8,0.9-1.3,1.4
		C-22.8,292.4-16,292.4-8.9,292.4z M-40.4,292.2c0-0.3,0.1-0.4,0.1-0.6c0-9.7,0-19.4,0-29.2c0-1.3-0.7-1.3-1.6-1.3
		c-6.1,0.2-10.9,2.8-13.8,8.2c-2.9,5.4-2.6,11,0.8,16.1C-51.7,290.4-45.4,293.2-40.4,292.2z M-36.3,291.2c5.8-1.8,10.2-8.5,9.8-15.1
		c-0.4-6.3-5-12.7-9.8-13.5C-36.3,272.1-36.3,281.5-36.3,291.2z"/>
	<path class="st0" d="M55,215.1c4.4,0,8.6,0,12.8,0c3.1,0,3.4,0.3,3.4,3.4c0,4.3,0,8.5,0,12.8c0,2.2-0.6,2.8-2.7,2.8
		c-4.4,0-8.8,0-13.5,0c0,1,0,2,0,2.9c0,3.6,0,7.1,0,10.7c0,2-0.7,2.7-2.7,2.7c-4.5,0-8.9,0-13.4,0c-2.1,0-2.8-0.7-2.8-2.8
		c0-4.4,0-8.8,0-13.5c-0.6,0-1.2,0-1.8,0c-3.9,0-7.9,0-11.8,0c-1.9,0-2.6-0.7-2.6-2.6c0-4.6,0-9.1,0-13.7c0-2,0.7-2.6,2.7-2.6
		c3.8,0,7.7,0,11.5,0c0.6,0,1.2,0,1.9,0c0-0.7,0.1-1.2,0.1-1.8c0-3.9,0-7.9,0-11.8c0-1.9,0.7-2.6,2.6-2.6c4.6,0,9.1,0,13.7,0
		c1.9,0,2.6,0.6,2.6,2.6c0,3.9,0,7.8,0,11.6C55,213.7,55,214.3,55,215.1z M67.1,219.1c-0.7,0-1.3,0-1.9,0c-3.6,0-7.2,0-10.8,0
		c-3.1,0-3.4-0.3-3.4-3.3c0-3.6,0-7.2,0-10.8c0-0.6,0-1.2,0-1.9c-3.7,0-7.2,0-10.8,0c0,0.6-0.1,1-0.1,1.5c0,4,0,8,0,12
		c0,1.9-0.7,2.6-2.6,2.6c-1.5,0-3,0-4.5,0c-3,0-6,0-9.1,0c0,3.7,0,7.2,0,10.9c0.7,0,1.3,0,1.8,0c3.8,0,7.7,0,11.5,0
		c2.1,0,2.8,0.7,2.8,2.7c0,2.2,0,4.5,0,6.7c0,2.2,0,4.4,0,6.6c3.7,0,7.2,0,10.9,0c0-4.6,0-9,0-13.5c0-1.9,0.7-2.6,2.6-2.6
		c3.9,0,7.9,0,11.8,0c0.6,0,1.1-0.1,1.7-0.1C67.1,226.2,67.1,222.8,67.1,219.1z"/>
</g>
</svg>
