<?xml version="1.0" encoding="utf-8"?>
<!-- Generator: Adobe Illustrator 24.3.0, SVG Export Plug-In . SVG Version: 6.00 Build 0)  -->
<svg version="1.1" id="Layer_1" xmlns="http://www.w3.org/2000/svg" xmlns:xlink="http://www.w3.org/1999/xlink" x="0px" y="0px"
	 viewBox="0 0 150 150" style="enable-background:new 0 0 150 150;" xml:space="preserve">
<style type="text/css">
	.st0{fill:#005BAB;}
</style>
<g>
	<path class="st0" d="M77,0.6c0.2,0.1,0.3,0.2,0.5,0.2c6,1.2,9.5,5.3,9.7,11.5c0.2,5.4-1.4,10.1-5.5,13.8c-0.1,0.1-0.1,0.2-0.2,0.4
		c2.4,0.5,4.7,0.7,7,1.5c2.4,0.8,4.8,1.8,6.9,3.2c2.8,1.8,4.1,4.7,4.1,8.1c0,6.4,0,12.8,0,19.2c0,1.9-0.8,2.9-2.3,2.9
		c-1.5,0-2.3-1-2.3-2.9c0-6.2-0.1-12.3,0-18.5c0.1-3.1-1.3-5.2-4-6.3c-2.5-1-5.2-1.8-7.9-2.2c-7-1.2-13.9-0.9-20.7,1
		c-1.2,0.3-2.4,0.8-3.5,1.4c-2.3,1.2-3.5,3.1-3.5,5.9c0.1,6.2,0,12.5,0,18.7c0,1.6-0.7,2.6-2,2.7c-1.6,0.2-2.6-0.9-2.6-2.7
		c0-4.9,0-9.9,0-14.8c0-1.3,0-2.6,0-3.9c-0.2-4.6,2-7.8,5.9-10c3.4-1.9,7.1-2.5,10.8-3.1c0.4-0.1,0.7-0.1,1.3-0.2
		c-0.3-0.3-0.4-0.5-0.6-0.7C63,21,61.7,15,63.5,8.5c1.1-4.2,4.2-6.6,8.4-7.6c0.4-0.1,0.7-0.2,1.1-0.3C74.3,0.6,75.7,0.6,77,0.6z
		 M67.4,13.2c0,2.8,0.8,5.4,2.2,7.5c3,4.3,7.9,4.3,10.8,0c2.2-3.2,2.7-6.8,1.8-10.5c-0.5-2.3-2-3.8-4.3-4.5
		C72,3.8,67.4,7.1,67.4,13.2z"/>
	<path class="st0" d="M149.4,148c-0.8,0.9-1.6,1.8-2.9,1.4c-1.2-0.4-1.7-1.3-1.7-2.5c0-3.2-0.1-6.5,0-9.7c0.1-2.4-1-4-3.1-4.7
		c-2.4-0.8-4.8-1.4-7.3-1.8c-4.5-0.7-9.1-0.3-13.5,0.8c-1,0.3-2,0.6-3,1.1c-1.9,0.9-2.8,2.3-2.7,4.5c0.1,3.2,0,6.4,0,9.6
		c0,1.7-0.9,2.8-2.3,2.8c-1.4,0-2.4-1.1-2.4-2.9c0-3.3,0-6.6,0-9.9c0-3.5,1.5-6.3,4.6-7.8c2.7-1.3,5.8-2.1,8.7-3.2
		c0,0-0.2-0.3-0.4-0.6c-3.1-3.7-4-8-2.9-12.7c1.1-4.7,5.3-7.3,10.7-6.9c4.6,0.3,8.1,3.6,8.7,8.1c0.6,4.5-0.4,8.5-3.5,11.8
		c-0.1,0.1-0.2,0.2-0.2,0.4c0,0,0,0.1,0,0.2c5.6,1,11.3,2,13.3,8.5C149.4,139,149.4,143.5,149.4,148z M130,110.1
		c-2.5,0-4.3,0.9-4.9,2.9c-1,3.3-0.5,6.4,1.8,9.1c1.8,2,4.3,2,6.2,0c1.8-2,2.4-4.5,2.2-7.1C135,111.7,133.2,110.1,130,110.1z"/>
	<path class="st0" d="M77.3,80.7c0.8,0,1.4,0,1.9,0c16.5,0,33,0,49.6,0c2.9,0,3.5,0.6,3.5,3.5c0,4.1,0,8.2,0,12.4
		c0,1.9-0.9,2.9-2.4,2.8c-1.4,0-2.3-1.1-2.3-2.8c0-3.7,0-7.3,0-11.1c-16.8,0-33.5,0-50.3,0c0,3.2,0,6.3,0,9.4c0,0.7,0,1.4,0,2
		c-0.1,1.5-1,2.5-2.3,2.5c-1.3,0-2.3-1-2.3-2.4c0-3.3,0-6.6,0-9.9c0-0.5,0-1,0-1.6c-16.8,0-33.5,0-50.3,0c0,0.5,0,1,0,1.6
		c0,3.2,0,6.5,0,9.7c0,1.7-1,2.7-2.4,2.7c-1.4,0-2.2-1-2.2-2.7c0-4.3,0-8.6,0-12.9c0-2.3,0.7-3,3-3c9.5,0,19.1,0,28.6,0
		c7.2,0,14.3,0,21.5,0c0.5,0,1.1,0,1.8,0c0-1.1,0-2.1,0-3.1c0-2.5,0-5,0-7.6c0-1.6,1-2.6,2.3-2.6c1.4,0,2.3,1,2.3,2.6
		C77.3,73.6,77.3,77,77.3,80.7z"/>
	<path class="st0" d="M26,125.9c2.3,0.6,4.5,1,6.6,1.7c3.9,1.4,7.2,4.1,6.9,9.9c-0.1,3.1,0,6.2,0,9.3c0,1.3-0.6,2.4-1.9,2.5
		c-0.8,0-1.7-0.6-2.4-1.1c-0.3-0.3-0.3-1.1-0.3-1.6c0-3.1-0.1-6.3,0-9.4c0.1-2.4-1-4-3.1-4.7c-2.4-0.8-4.8-1.4-7.3-1.8
		c-4.5-0.7-9.1-0.3-13.5,0.8c-0.9,0.2-1.9,0.5-2.7,0.9c-2,0.9-3.2,2.4-3,4.8c0.1,3.1,0,6.3,0,9.4c0,1.8-0.9,2.9-2.3,2.9
		c-1.4,0-2.3-1.1-2.3-2.9c0-3.3,0-6.6,0-9.9c-0.1-3.5,1.4-6.2,4.5-7.7c2.5-1.2,5.4-1.8,8.1-2.7c0.3-0.1,0.5-0.1,1.1-0.2
		c-2-2.1-3.4-4.4-3.8-7c-0.2-1.9-0.4-4,0-5.9c1-5.2,5.2-8,10.9-7.5c4.9,0.4,8.4,4,8.7,9C30.3,118.9,29.1,122.7,26,125.9z
		 M25.4,115.8c0-0.4,0-0.9-0.1-1.5c-0.4-2.4-2-3.9-4.4-4.1c-3-0.3-5.1,0.7-5.8,3c-1,3.3-0.5,6.3,1.8,8.9c1.8,2,4.3,2,6.2,0
		C24.7,120.4,25.3,118.3,25.4,115.8z"/>
	<path class="st0" d="M69.2,126c-2.1-2.1-3.5-4.4-3.8-7.2c-0.2-1.8-0.4-3.8,0-5.6c1-5.4,5.5-8.3,11.2-7.6c5.3,0.6,8.6,4.7,8.5,10.5
		c-0.1,3.8-1.3,7.1-4.1,9.9c1.8,0.4,3.4,0.6,4.9,1.1c1.9,0.7,3.9,1.6,5.6,2.7c2.1,1.4,3.1,3.7,3.1,6.3c0,3.5,0,7.1,0,10.6
		c0,1.7-0.9,2.8-2.3,2.8c-1.4,0-2.3-1-2.3-2.8c0-3.2-0.1-6.4,0-9.6c0.1-2.4-1-4-3.1-4.7c-2.4-0.8-4.8-1.4-7.3-1.8
		c-4.5-0.7-9.1-0.3-13.5,0.8c-0.9,0.2-1.9,0.5-2.7,0.9c-2,0.9-3.1,2.4-3,4.8c0.1,3.1,0,6.3,0,9.4c0,1.8-0.9,2.9-2.4,2.8
		c-1.4,0-2.3-1.1-2.3-2.8c0-3.3,0-6.6,0-9.9c-0.1-3.5,1.4-6.3,4.5-7.8c2.5-1.2,5.4-1.8,8.1-2.7C68.4,126.1,68.7,126.1,69.2,126z
		 M80.4,115.7c0-0.3,0-1-0.2-1.6c-0.4-2.3-2.1-3.7-4.6-3.9c-3-0.2-5,0.9-5.6,3.2c-0.8,3.1-0.4,6,1.7,8.5c2,2.4,4.7,2.3,6.7,0
		C79.8,120.2,80.3,118.2,80.4,115.7z"/>
	<path class="st0" d="M65.3,51.4c0,2.4,0,4.7,0,7.1c0,1.9-0.9,2.9-2.4,2.8c-1.4,0-2.2-1-2.2-2.8c0-4.8,0-9.6,0-14.4
		c0-1.8,0.8-2.8,2.2-2.8c1.4-0.1,2.4,1.1,2.4,2.8C65.3,46.6,65.3,49,65.3,51.4z"/>
	<path class="st0" d="M89.3,51.4c0,2.4,0,4.8,0,7.3c0,1.7-0.8,2.6-2.2,2.7c-1.5,0-2.4-0.9-2.4-2.7c0-4.9,0-9.8,0-14.7
		c0-1.7,1-2.8,2.4-2.7c1.3,0,2.2,1.1,2.2,2.7C89.4,46.5,89.3,49,89.3,51.4z"/>
</g>
</svg>
