<svg width="150" height="150" viewBox="0 0 150 150" fill="none" xmlns="http://www.w3.org/2000/svg">
<path d="M101.1 149.4C101.1 148 101.1 146.6 101.1 145.1C104 145.1 106.8 145.1 109.6 145.1C110.2 142.8 109.1 125.9 107.8 120C107.1 122.2 106.4 124.5 105.7 126.8C104.4 126.4 103.1 126.1 101.6 125.7C101.9 124.5 102.2 123.3 102.6 122.2C105.8 113.6 108.8 104.9 112.2 96.4C114 91.8 114.6 87.4 113.1 82.8C112.8 81.8 112.7 80.8 112.6 79.7C107.6 82.6 101.9 82.2 96.6 83.1C94 83.5 91.4 83.8 88.7 84.1C88.5 82.6 88.3 81.2 88.2 79.8C93.4 79.2 98.3 78.5 103.3 77.9C110.5 77.2 115.1 73.5 116.5 66.9C116.8 65.5 116.9 64.1 116.9 62.7C117 59.4 116.9 56.1 116.9 52.7C118.3 52.7 119.7 52.7 121.3 52.7C120.9 58.4 122.1 64.2 120.2 69.7C119.6 71.4 118.7 73.1 117.7 74.6C117 75.7 116.7 76.6 116.8 77.9C117.3 84.1 119.3 89.9 120.8 95.9C121.2 97.6 121.7 99.3 122.2 101.2C123.2 99.9 124 98.8 125 97.5C126.2 98.4 127.3 99.2 128.5 100.1C127.9 100.9 127.5 101.6 126.9 102.3C123 106.8 121.4 112.1 121.7 117.9C122 123.7 122.6 129.5 123.2 135.3C123.6 138.5 124.3 141.7 124.8 145.1C127.2 145.1 129.6 145.1 132 145.1C135.5 145.1 135.5 145.1 136.4 141.8C138.3 135.3 140.1 128.8 140.3 122C140.4 116.8 139.9 111.7 137.9 106.9C136.6 103.7 135.6 100.4 135.8 96.9C135.8 96.4 135.9 95.9 136.1 95.5C138.6 90.7 139.5 85.5 139.9 80.2C140.8 69.3 139.7 58.5 137.6 47.8C137.6 47.6 137.5 47.3 137.3 46.9C136.6 48 135.9 49 135.2 50C134 49.2 132.9 48.4 131.7 47.6C132.5 46.2 133.3 45 134 43.7C135.7 40.4 136.8 36.9 136.1 33.1C135.1 27.8 130.5 24 124.2 23.2C117.1 22.3 110.1 21.4 103 20.5C95.7 19.5 90.2 14.3 88.5 6.69998C88.4 6.09998 88.3 5.59998 88.1 4.89998C79.4 4.89998 70.8 4.89998 62.1 4.89998C61.5 8.09998 60.5 11 58.6 13.6C55.2 18.5 50.3 20.4 44.7 20.8C42.7 21 40.7 21.3 38.5 21.5C38.3 20.1 38.1 18.7 37.9 17.2C40 16.9 42 16.7 44 16.4C45 16.3 46 16.2 47 16C52.5 15.1 56.6 10.7 57.6 4.69998C57.7 3.39998 57.8 1.99998 58 0.599976C69.3 0.599976 80.7 0.599976 92 0.599976C92.2 2.29998 92.3 3.89998 92.6 5.39998C94.1 12.3 98.2 15.6 105.8 16.5C112.6 17.3 119.5 18.1 126.3 19.2C133.9 20.4 142.4 27.4 140.3 38.7C140.2 39.5 140.2 40.3 140.4 41.1C143.6 53.9 145.2 66.9 144.2 80.1C143.8 85.7 142.7 91.2 140.5 96.5C139.9 97.9 140.3 99.9 140.7 101.6C141.5 104.7 142.9 107.6 143.6 110.7C145.3 118 144.9 125.4 143.3 132.8C142 138.4 140.5 144 139 149.5C133.1 149.5 127.2 149.5 121.3 149.5C120.2 142.6 118.8 135.7 117.9 128.7C117 122.1 116.9 115.4 118.2 108.7C119 104.8 117.7 101.1 116.5 97.1C114.7 101.7 112.9 106.1 111.2 110.5C111 110.9 111.1 111.4 111.2 111.9C113.4 124.3 114.3 136.9 114.2 149.5C109.9 149.4 105.5 149.4 101.1 149.4Z" fill="#005BAB"/>
<path d="M11 149.4C9.29999 141.6 6.39999 134.1 5.59999 126.1C4.89999 119 5.29999 112.1 7.99999 105.4C8.89999 103 9.29999 100.5 9.89999 98C9.99999 97.5 9.79999 96.9 9.59999 96.5C7.09999 91.2 6.09999 85.6 5.69999 80C4.79999 66.8 6.29999 53.8 9.59999 41C9.79999 40.3 9.79999 39.5 9.69999 38.7C7.69999 27.4 16.1 20.5 23.7 19.2C26.5 18.7 29.3 18.4 32.1 18.1C32.5 18 33 18.1 33.5 18.1C33.7 19.5 33.8 20.8 34 22.3C31.3 22.7 28.7 22.9 26.1 23.4C24.4 23.7 22.7 24 21.2 24.6C15.2 27.2 12.4 33 14.3 39.4C15.2 42.3 16.7 45 18 47.9C17.1 48.5 16 49.3 14.8 50.2C14.1 49.2 13.5 48.2 12.6 47C12.1 49.6 11.6 52 11.2 54.4C9.89999 63 9.19999 71.6 9.99999 80.3C10.5 85.6 11.4 90.7 13.7 95.6C14.3 96.9 14.1 98.7 13.9 100.3C13.6 102.2 13.2 104 12.4 105.7C9.09999 113.5 8.79999 121.6 10.4 129.8C11.4 135 12.9 140 14.2 145.1C18 145.1 21.5 145.1 25.1 145.1C26.8 134.9 28.8 124.8 28.1 114.4C27.8 110.3 26.3 106.7 23.8 103.5C23 102.5 22.3 101.4 21.4 100.3C22.6 99.4 23.7 98.6 24.8 97.7C25.7 98.9 26.6 100 27.6 101.3C28 99.7 28.4 98.3 28.7 97C30 91.5 31.4 86 32.7 80.5C33 79.3 33 78.1 33 76.9C33 76.5 32.8 75.9 32.6 75.6C30.3 72.6 28.9 69.3 28.7 65.6C28.5 61.4 28.7 57.2 28.7 52.9C30 52.9 31.3 52.9 32.9 52.9C32.9 53.4 32.9 54 32.9 54.5C33 58.4 32.8 62.3 33.2 66.1C33.9 72.5 38.7 77 45 77.8C50.3 78.4 55.7 79.1 61 79.8C61.2 79.8 61.4 79.9 61.7 80C61.5 81.4 61.4 82.7 61.2 84.2C59.4 84 57.7 83.8 56 83.6C51.9 83.1 47.7 82.7 43.6 82C41.5 81.7 39.4 80.8 37.3 80.2C36.9 82.4 36.4 84.9 35.9 87.3C35.6 88.7 35.5 90 36 91.4C38.4 97.8 40.9 104.2 43.2 110.7C44.8 115.2 46.3 119.9 47.8 124.5C47.9 124.9 48 125.4 48.2 126C46.8 126.4 45.5 126.7 44.1 127.1C43.4 124.8 42.7 122.5 42 120.3C41.8 120.3 41.6 120.3 41.5 120.3C40.9 128.6 40.3 136.8 39.7 145.2C58.8 145.2 77.7 145.2 96.7 145.2C96.7 146.8 96.7 148.2 96.7 149.6C76.3 149.6 56 149.6 35.6 149.6C35.5 137.4 36.4 125.2 38.4 113.1C38.5 112.3 38.8 111.3 38.5 110.6C36.9 106.2 35.1 101.9 33.4 97.5C32.1 100.1 31.3 106.6 31.7 109.3C32.1 112.3 32.6 115.4 32.6 118.4C32.6 129 30.7 139.3 28.6 149.6C22.8 149.4 16.9 149.4 11 149.4Z" fill="#005BAB"/>
<path d="M67.5 38.5C66.3 39.4 65.2 40.3 64.1 41.2C62.8 39.5 61.5 37.9 60.2 36.4C59.7 35.8 58.8 35.3 58.1 35.2C50.2 34 42.4 33 34.5 31.9C34.4 31.9 34.3 31.8 34.1 31.7C34.3 30.4 34.4 29.1 34.6 27.6C35.8 27.7 36.9 27.8 38 28C45.5 29 53 30.1 60.4 31.2C61.1 31.3 61.9 31.8 62.4 32.3C64.2 34.2 65.8 36.3 67.5 38.5Z" fill="#005BAB"/>
<path d="M85.8 41.2C84.6 40.3 83.6 39.4 82.4 38.5C84.2 36.2 86 33.9 87.8 31.7C88.1 31.3 88.7 31.1 89.2 31.1C97.5 29.9 105.9 28.8 114.2 27.6C114.5 27.6 114.9 27.6 115.3 27.6C115.5 29 115.7 30.3 115.9 31.8C112.9 32.2 109.9 32.7 106.9 33.1C101.8 33.8 96.6 34.5 91.5 35.2C90.9 35.3 90.2 35.8 89.7 36.3C88.4 37.8 87.2 39.5 85.8 41.2Z" fill="#005BAB"/>
<path d="M107.8 59.7C109.1 60.5 110.3 61.2 111.5 61.9C106.6 69.9 98.6 71.1999 90.3 72.1999C90.1 70.7999 89.9 69.5 89.6 68C91.4 67.7 93 67.4999 94.7 67.1999C100 66.2999 104.7 64.6 107.8 59.7Z" fill="#005BAB"/>
<path d="M72.9 48.9C74.3 48.9 75.6 48.9 77 48.9C77 55.9 77 62.9 77 70C75.6 70 74.3 70 72.9 70C72.9 63 72.9 56 72.9 48.9Z" fill="#005BAB"/>
<path d="M79.3 127.7C79.3 129.2 79.3 130.5 79.3 131.9C76.4 131.9 73.7 131.9 70.8 131.9C70.8 130.5 70.8 129.2 70.8 127.7C73.5 127.7 76.3 127.7 79.3 127.7Z" fill="#005BAB"/>
<path d="M48.4 72C46.9 71.2 45.5 70.6 44 69.8C44.7 68.5 45.3 67.2 45.9 65.9C47.4 66.6 48.7 67.3 50.2 68.1C49.7 69.3 49.1 70.6 48.4 72Z" fill="#005BAB"/>
<path d="M134.5 63.6C133.1 63.6 131.7 63.6 130.3 63.6C130.3 62.2 130.3 60.9 130.3 59.4C131.7 59.4 133 59.4 134.5 59.4C134.5 60.8 134.5 62.1 134.5 63.6Z" fill="#005BAB"/>
<path d="M130.3 68.1C131.8 68.1 133.1 68.1 134.5 68.1C134.5 69.5 134.5 70.8 134.5 72.3C133.1 72.3 131.8 72.3 130.3 72.3C130.3 70.9 130.3 69.6 130.3 68.1Z" fill="#005BAB"/>
</svg>
