<?xml version="1.0" encoding="utf-8"?>
<!-- Generator: Adobe Illustrator 24.3.0, SVG Export Plug-In . SVG Version: 6.00 Build 0)  -->
<svg version="1.1" id="Layer_1" xmlns="http://www.w3.org/2000/svg" xmlns:xlink="http://www.w3.org/1999/xlink" x="0px" y="0px"
	 viewBox="0 0 150 150" style="enable-background:new 0 0 150 150;" xml:space="preserve">
<style type="text/css">
	.st0{fill:#CDEEFD;}
	.st1{fill:#111224;}
	.st2{fill:#005BAB;}
</style>
<path class="st0" d="M1465.3,1556.3c-2.4-0.2-4.3-1.3-4.4-4.1c-0.1-6.7,1.6-10,4.9-9.9c0.2,0,0.3,0,0.5,0c2.2,0.5,4.3,2.1,3.2,4
	C1467.7,1549.5,1473.1,1555.7,1465.3,1556.3z M1465.5,1554.4c1.3-0.1,2.3-0.6,2.3-2.1c-0.1-1.7-1.5-2.1-2.8-2.4c-1.6-0.4-2,0.8-2,2
	C1463,1553.5,1464,1554.2,1465.5,1554.4z M1467.8,1546.5c0-1.4-0.6-2.2-2.1-2.2c-0.9,0-1.6,0.4-1.7,1.4c-0.2,1.4,0.9,2.1,2,2.5
	C1467.3,1548.5,1467.6,1547.5,1467.8,1546.5z"/>
<path class="st0" d="M1455.8,1556.6c-0.5-2.9-1.8-4.2-4.6-3.6c-0.7,0.2-1.7,0.3-2.1-0.8c-0.4-1.1,0.1-1.5,1.2-2.1
	c2.1-1.2,2.1-3.9,3.2-5.8c0.6-1,1-2.2,2.5-1.9c1.4,0.3,0.9,1.6,0.8,2.5C1456.4,1548.6,1458.4,1552.5,1455.8,1556.6z"/>
<path class="st1" d="M1465.5,1554.4c-1.5-0.1-2.6-0.8-2.5-2.4c0-1.2,0.4-2.4,2-2c1.2,0.3,2.7,0.7,2.8,2.4
	C1467.8,1553.7,1466.8,1554.2,1465.5,1554.4z"/>
<path class="st1" d="M1467.8,1546.5c-0.2,1-0.5,2.1-1.8,1.7c-1.1-0.4-2.1-1-2-2.5c0.1-1,0.8-1.4,1.7-1.4
	C1467.2,1544.3,1467.8,1545,1467.8,1546.5z"/>
<polygon class="st2" points="1346.8,29.4 1346.9,29.6 1346.6,29.6 "/>
<g>
	<path class="st2" d="M77.7,96.2c-8-19.8,2.6-38.4,17.3-45.2c16.4-7.7,38.2-1.2,46.6,17.6c1.1-1.3,2.1-2.5,3.2-3.6
		c1.3-1.3,2.7-1.4,3.8-0.3c1.1,1.1,1,2.5-0.3,3.8c-13.2,13.5-28.9,22.4-47.4,26c-18.1,3.6-34.2,10.9-48,23.3
		c-8.7,7.8-15.9,16.9-21.8,27c-0.5,0.9-1,1.8-1.5,2.7c-1.1,1.8-2.4,2.3-3.8,1.5c-1.3-0.8-1.6-2.2-0.6-3.9c1.7-2.9,3.4-5.9,5.3-8.7
		c10.2-15.5,23.2-28,39.7-36.7c1.2-0.6,2.5-1.2,3.7-1.8C75.3,97.3,76.5,96.7,77.7,96.2z"/>
	<path class="st2" d="M3.1,86.6c-0.9-0.8-1.7-1.3-2.2-2c-0.7-1.1-0.2-2.1,0.7-2.9c3.3-3,6.5-6.1,9.9-8.9
		c11.8-9.3,25.2-14.9,39.9-17.9c26.5-5.3,47-19.7,62.3-41.7c2.4-3.5,4.4-7.2,6.7-10.7c0.5-0.8,1.5-1.6,2.3-1.7
		c2-0.3,3.3,1.9,2.1,3.9c-2.4,4-4.7,8-7.4,11.8C105.9,33,91.1,45.7,72.4,53.7c-7.6,3.3-15.6,5.2-23.7,7C32,64.3,17.8,72.3,5.8,84.4
		C5.1,85.1,4.2,85.7,3.1,86.6z"/>
	<path class="st2" d="M2.9,73c-0.8-0.7-1.6-1.3-2.1-2c-0.6-1-0.1-2,0.7-2.8c1.7-1.4,3.3-2.8,5.1-4.1c12.7-9.7,27-15.7,42.6-18.8
		c23.8-4.7,42.3-17.6,56.2-37.3c1.3-1.9,2.5-3.9,3.8-5.8c1-1.5,2.4-1.9,3.7-1.1c1.2,0.8,1.5,2.2,0.5,3.7
		c-14.1,22.8-33.6,38.5-60,44.7c-6.9,1.6-13.9,3-20.6,5.6c-10.1,3.9-19.3,9.4-27.5,16.4C4.7,72,3.9,72.3,2.9,73z"/>
	<path class="st2" d="M39.1,149.4c-2.6,0-3.7-2.1-2.6-3.9c1.3-2.1,2.6-4.2,4.1-6.2c12-17,27.4-29.6,47.2-36.1
		c6.1-2,12.6-3.2,18.9-4.8c13.8-3.5,26.1-9.8,37-18.9c0.6-0.5,1.1-1,1.7-1.4c1.2-0.9,2.6-0.7,3.5,0.3c0.9,1.1,0.8,2.5-0.3,3.5
		c-2.5,2-4.9,4.1-7.5,5.9c-12.4,8.9-26.3,14.3-41.2,17.3c-21,4.2-38,15.1-51.2,31.9c-2.8,3.5-5.1,7.3-7.7,10.9
		C40.3,148.5,39.5,149,39.1,149.4z"/>
	<path class="st2" d="M134.6,27.9c-4.1,0-7.5-3.4-7.5-7.5c0-4,3.4-7.4,7.4-7.4c4.1,0,7.5,3.4,7.5,7.5
		C141.9,24.5,138.6,27.9,134.6,27.9z M134.5,18c-1.4,0-2.4,1.1-2.4,2.5c0,1.4,1.1,2.4,2.4,2.5c1.4,0,2.5-1.2,2.5-2.6
		C136.9,19,135.8,17.9,134.5,18z"/>
	<path class="st2" d="M127.1,35.3c0,4.1-3.4,7.5-7.5,7.4c-4,0-7.4-3.4-7.4-7.4c0-4.1,3.4-7.5,7.5-7.4
		C123.8,27.9,127.1,31.3,127.1,35.3z M119.6,32.8c-1.4,0-2.4,1.1-2.4,2.5c0,1.4,1.1,2.4,2.5,2.4c1.4,0,2.5-1.2,2.5-2.6
		C122.1,33.9,120.9,32.8,119.6,32.8z"/>
	<path class="st2" d="M142,32.8c4.1,0,7.5,3.5,7.4,7.6c-0.1,4-3.4,7.3-7.5,7.3c-4.1,0-7.4-3.5-7.4-7.6C134.6,36.1,138,32.8,142,32.8
		z M141.9,37.8c-1.4,0-2.4,1.1-2.4,2.5c0,1.4,1.1,2.4,2.4,2.5c1.4,0,2.6-1.1,2.5-2.5C144.4,38.8,143.3,37.8,141.9,37.8z"/>
	<path class="st2" d="M70,72.6c0,4.1-3.5,7.5-7.6,7.4c-4-0.1-7.3-3.4-7.3-7.5c0-4.1,3.5-7.4,7.6-7.4C66.8,65.1,70.1,68.5,70,72.6z
		 M65.1,72.5c0-1.4-1.1-2.4-2.4-2.5c-1.4,0-2.5,1-2.5,2.4c0,1.4,1.1,2.6,2.5,2.6C64,75,65.1,73.9,65.1,72.5z"/>
	<path class="st2" d="M20.4,99.8c0,4.1-3.5,7.4-7.6,7.4c-4-0.1-7.3-3.5-7.3-7.5c0-4.1,3.5-7.4,7.6-7.4
		C17.2,92.4,20.5,95.8,20.4,99.8z M15.5,99.8c0-1.4-1.1-2.4-2.4-2.5c-1.4,0-2.5,1-2.5,2.4c0,1.4,1.1,2.6,2.5,2.5
		C14.4,102.2,15.5,101.1,15.5,99.8z"/>
	<path class="st2" d="M45.2,107.2c-4.1,0-7.4-3.5-7.4-7.6c0.1-4,3.4-7.3,7.5-7.3c4.1,0,7.5,3.5,7.4,7.5
		C52.6,103.9,49.2,107.2,45.2,107.2z M47.7,99.9c0-1.4-1-2.5-2.4-2.5c-1.4-0.1-2.5,1-2.6,2.3c-0.1,1.4,1,2.6,2.4,2.6
		C46.6,102.3,47.7,101.2,47.7,99.9z"/>
</g>
</svg>
