<?xml version="1.0" encoding="utf-8"?>
<!-- Generator: Adobe Illustrator 24.3.0, SVG Export Plug-In . SVG Version: 6.00 Build 0)  -->
<svg version="1.1" id="Layer_1" xmlns="http://www.w3.org/2000/svg" xmlns:xlink="http://www.w3.org/1999/xlink" x="0px" y="0px"
	 viewBox="0 0 150 150" style="enable-background:new 0 0 150 150;" xml:space="preserve">
<style type="text/css">
	.st0{fill:#005BAB;}
</style>
<g>
	<path class="st0" d="M71,14.5c3.9,2.1,7.3,4,10.9,5.9c0.2-0.4,0.6-1,1.1-1.6c1.3-1.7,2.8-2.6,5.2-2c2.4,0.6,3.6,2,3.8,4.3
		c0.2,2.4-1,4.3-3.2,4.8c-2.9,0.7-3.1,2.1-2,4.4c0.2,0.4,0.4,1,0.4,1.4c0.1,2.6,1.4,3.1,3.7,2.1c2-0.8,4-0.5,4.9,1.6
		c0.5,1.2,0.4,3.2-0.3,4.1c-0.7,0.9-2.5,1.2-3.9,1.4c-0.8,0.1-1.7-0.8-2.6-0.9c-0.7,0-1.9,0.3-2.2,0.8c-0.8,1.5-1.3,3.2-2,5
		c0.8,0.4,1.7,0.7,2.5,1.1c1.8,0.9,3.1,2.5,2.5,4.4c-0.4,1.4-1.8,2.9-3.1,3.4C84.6,56,82.8,55,81.7,53c-0.4-0.6-0.7-1.3-0.9-1.6
		c-4,1.7-7.8,3.4-11.9,5.2c0.1,0.6,0.4,1.4,0.6,2.3c0.7,2.5-0.1,4.8-2.1,5.9c-2,1.1-3.9,0.6-5.5-1c-1.7-1.8-1.7-3.7-0.4-5.7
		c1-1.5,1-2.5-1-3.1c-1.5-0.5-2.9-1.2-4.3-2.1c-1.7-1.1-2.7-0.8-3.3,1.2c-0.6,1.9-2.1,2.7-4,2.7c-2-0.1-3.3-1.2-4-2.9
		c-0.9-2.1,0.1-4.2,2.4-5.3c0.8-0.4,1.6-0.8,2.5-1.2c-1.1-2.7-2-5.2-3.2-8.1c-1.4,0.5-3,1-4.5,1.7c-1.8,0.8-3.6,0.9-4.7-0.7
		c-0.7-1.1-1-2.9-0.7-4.1c0.5-1.9,2.3-2.5,4.2-2.2c0.3,0,0.7,0.1,1,0.2c4.4,0.6,4.3,0.6,5.5-3.4c0.6-1.9,1.4-3.8,2.3-5.5
		c1.3-2.6,1.1-4.2-1.4-5.9c-0.5-0.3-1.2-0.6-1.4-1c-0.4-1.3-1.2-2.8-0.8-3.8c0.4-1.1,2-2.2,3.1-2.3c1.1,0,2.8,1,3.3,2
		c2.4,4.5,2.3,4.5,6.9,2.7c1.2-0.4,2.4-1,3.6-1.1c2.4-0.2,2.4-1.7,2-3.4c-0.1-0.7-0.6-1.4-0.9-2.1c-0.9-2.3-0.3-4.6,1.6-5.7
		c2.2-1.4,4.6-0.9,6.5,1.3c1.7,2,1.5,3.4-0.2,5.7C71.5,12.4,71.3,13.7,71,14.5z M83.9,29.1c-0.5,0.3-0.6,0.3-0.7,0.4
		c-0.8,0.5-1.6,1.1-2.3,1.6c0.2-1,0-2.4,0.6-3c1.9-1.6,4-2.9,6.1-4.1c1.4-0.8,2.4-1.6,1.9-3.3c-0.5-1.5-1.7-2.2-3.1-1.6
		c-0.8,0.3-1.5,1.3-1.8,2.2c-1,2.4-2.6,4.3-5,5.3c-0.6,0.2-1.4-0.2-2.1-0.4c0.3-0.6,0.5-1.2,1-1.7c0.5-0.5,1.1-0.8,1.9-1.4
		c-2.7-2.9-5.8-4.3-9.5-5.2c0.1,0.8,0.3,1.2,0.2,1.6c-0.2,0.9-0.5,1.8-0.8,2.7c-0.6-0.7-1.6-1.3-1.8-2c-0.6-3.3-0.7-6.7,1.6-9.5
		c1.1-1.3,1.6-2.8,0.3-4c-0.6-0.6-2.3-0.7-3.1-0.3c-1.5,0.8-1.1,2.3-0.4,3.7c1.6,3.5-0.2,9.7-3.4,11.6C63,22.1,62.5,22,62,22.1
		c0-0.5-0.2-1.1,0-1.5c0.5-0.9,1.2-1.7,1.9-2.7c-7.8,0-15.1,8.3-15.3,17c-0.2,8.9,6.5,17.7,13.8,17.9c-0.3-1.1-0.7-2.2-1-3.3
		c0.3-0.2,0.6-0.3,0.9-0.5c0.6,0.9,1.5,1.8,1.9,2.8c1,2.6,0.6,5-0.6,7.5c-0.4,0.7-0.1,2.2,0.4,2.9c0.4,0.5,2.1,0.7,2.6,0.2
		c0.6-0.6,1.1-2.1,0.8-2.7c-1.8-3.5-0.1-6.3,1.6-9c0.4-0.7,1.9-0.8,2.9-1.2c-0.2,0.8-0.4,1.7-0.5,2.5c0,0.2,0,0.4,0.1,1.3
		c2.3-1.2,4.4-2.2,6.2-3.1c-0.1-1.3-0.2-2.2-0.3-3.3c3.5,0.5,5.3,2.3,6.5,5c0.3,0.6,1.3,1.1,1.9,1.1c0.5,0,1.4-0.9,1.4-1.4
		c0-0.8-0.6-1.6-1.2-2.2c-0.5-0.5-1.4-0.6-2-0.9c-2.9-1.6-3.1-3-0.8-5.1c0.2-0.2,0.4-0.6,0.5-0.9C85.6,38.1,85.5,33.7,83.9,29.1z
		 M52.7,50c-0.1-0.2-0.3-0.5-0.4-0.7c-1.3,0.4-2.6,0.8-3.8,1.4c-0.6,0.3-1.3,1.2-1.2,1.8c0.1,0.6,0.9,1.5,1.5,1.6
		c0.6,0.2,1.7-0.2,2.1-0.8C51.7,52.4,52.1,51.2,52.7,50z M46.7,37.1c-0.1-0.2-0.1-0.3-0.2-0.5c-2-0.3-4-0.7-6.1-0.7
		c-0.6,0-1.2,0.9-1.8,1.5c0.6,0.6,1.2,1.8,1.7,1.7C42.5,38.6,44.6,37.8,46.7,37.1z M52.5,20.4c0.2-0.1,0.4-0.1,0.6-0.2
		c-0.9-1.9-1.7-3.9-2.7-5.7c-0.2-0.3-1.3,0-2,0c0,0.8-0.3,1.9,0.1,2.4C49.7,18.2,51.2,19.2,52.5,20.4z M86.5,37.1
		c1,0.5,1.4,0.8,1.9,0.9c1.1,0.3,2.2,0.5,3.4,0.6c0.6,0.1,1.3,0,1.7-0.3c0.3-0.2,0.4-1.3,0.2-1.5c-0.4-0.4-1.1-0.7-1.7-0.6
		C90.5,36.4,89,36.7,86.5,37.1z"/>
	<path class="st0" d="M87.3,116.7c-1.5-0.8-2.6-1.3-3.8-2c-1.6-0.9-2.3-2.1-0.9-3.9c1.2-1.5,0.6-2.1-1.1-2.5c-5-1.2-5.7-3.5-2.5-7.6
		c0.5-0.7,1-1.4,1.6-2c2.4-2.4,4.2-5,1.9-8.5c-0.5-0.8-0.5-1.9-0.5-2.9c0.4-19.2,20.8-33.7,39.1-27.8c11.6,3.7,18.7,13.9,19,27.2
		c0.1,6-0.8,11.7-4.1,16.8c-2.5,4-2.6,8.3-2.3,12.8c0.2,3,0.3,6,0.6,9c0.3,2.5,0.8,5.1,1.2,7.6c0.1,0.6,0.3,1.2,0.2,1.7
		c-0.2,0.8-0.6,1.6-0.9,2.5c-0.5-0.7-1.4-1.4-1.5-2.2c-0.6-8.3-1.4-16.6-1.4-24.9c0-3.1,1.7-6.4,3.3-9.3c5.6-10.6,3.4-28.5-7.3-35.8
		c-16-11-38.1-2.2-43,17.1c-0.9,3.5-1.4,6.9,0.4,10.5c0.5,1.1,0,3.1-0.7,4.3c-1.1,2-2.8,3.7-4.3,5.6c-1.7,2.2-1.3,3.3,1.5,3.8
		c0.1,0,0.2,0,0.2,0c3.6,0.6,4.2,1.7,2.8,5.1c-0.1,0.3-0.3,0.6-0.5,1.1c1.2,0.6,2.3,1,3.3,1.6c0.9,0.6,2.2,1.7,2.2,2.4
		c-0.1,1-1.3,1.9-2.2,2.7c-0.5,0.5-1.3,0.7-1.5,0.8c0.3,2.1,0.7,3.9,0.9,5.7c0.2,2.1,1.3,3.5,3.2,3.5c3,0.1,6,0,8.9-0.5
		c6.9-1.1,6-1.4,6.2,5.1c0.1,1.9,0,3.8-0.1,5.8c0,0.5-0.6,1-0.9,1.5c-0.4-0.5-1.1-0.9-1.2-1.4c-0.2-1.7-0.2-3.5-0.2-5.2
		c0-1.2,0-2.4,0-3.6c-3.7,0.4-7.1,0.9-10.5,1c-5.7,0.1-7.6-1.8-7.7-7.5c0-0.5-0.3-1.1-0.6-1.6c-1.8-2.3-1.6-3.4,1-4.9
		C85.7,117.7,86.3,117.3,87.3,116.7z"/>
	<path class="st0" d="M15,42.9c2.6-1.2,3.5,0.2,4,2.5c1.7,8.4,3.6,16.8,5.3,25.2c0.5,2.6,1.6,4.2,4.5,4.5c2.6,0.2,5.1,0.9,7.6,1.4
		c2.6,0.5,3.7,1.9,3.5,4.6c-0.1,2-0.3,4-0.5,6c-0.2,2.4-1.4,3.8-3.9,4.1c-6.8,0.6-13.6,1.4-20.4,1.9c-4.1,0.3-7.3-2.5-8.1-6.6
		c-1.7-8.7-3.5-17.5-5.1-26.2c-0.3-1.9,0.3-4,0.4-6c0.1-1.2,0-2.5-0.2-3.6c-1.8-8.9-2.7-9.2,7.2-11C12.6,38.9,13.6,39.4,15,42.9z
		 M16.6,44.5c-3.8,3.1-7.2,6.1-10.8,8.8c-2.2,1.7-2.7,3.5-2.1,6.1c2,8.6,3.9,17.3,5.8,25.9c0.8,3.6,2.6,5.2,6.2,5
		c6.4-0.4,12.8-0.9,19.2-1.6c0.7-0.1,1.7-1.2,1.9-2c0.4-1.7,0.3-3.5,0.5-5.2c0.2-1.6-0.3-2.5-2-2.7c-2.6-0.3-5.3-0.8-7.9-1.2
		c-3.1-0.5-4.9-2-5.4-4.7c-1.2-5.8-2.3-11.6-3.5-17.4C18,52,17.4,48.5,16.6,44.5z M4.5,51.4c2.9-2.3,5.3-4.1,7.6-6.2
		c0.5-0.4,0.4-1.8,0.1-2.5c-0.2-0.5-1.3-1.1-1.9-1.1c-1.7,0.1-3.5,0.5-5.2,0.7c-1.7,0.2-2.4,1-2,2.7C3.5,46.9,3.9,48.8,4.5,51.4z"/>
	<path class="st0" d="M70.8,129.1c-0.2,1.2-0.2,2.5-0.6,3.6c-1.5,3.6-5.6,5.3-9.3,4.3c-1.1-0.3-2.5-0.4-3.5,0
		c-4.1,1.6-8.3,0.2-10.2-3.6c-1.9-3.7-0.4-8.2,3.3-10.4c0.7-0.4,1.2-1.3,1.8-1.9c-0.8-0.7-1.5-1.5-2.4-2c-3-1.5-5.6-3.5-5.6-7.2
		c0-2.9,0.9-5.8,3.9-7.3c1.4-0.7,1.8-1.6,1.6-3.2c-0.4-4.5,3-7.9,7.9-8.2c3.7-0.2,7.6,3.3,7.8,7c0,0.6-0.5,1.2-0.8,1.9
		c-0.4-0.5-1.1-1-1.2-1.5c-1.1-3.9-4-6-7.3-5.1c-3.4,0.9-4.9,3.9-4,7.9c0.3,1.3,0,1.9-1.3,2.4c-3.2,1.3-4.5,3.2-4.2,6
		c0.3,2.8,2,4.4,5.2,5.2c0.8,0.2,1.5,1.2,1.9,2c1.5,2.8,2.3,4.9-2.3,6c-3.2,0.8-4,4.9-2.5,7.7c1.5,2.6,5,3.7,7.9,2.2
		c1.3-0.7,2.3-0.8,3.6-0.1c3.5,1.7,7.1,0.1,8.4-3.7c0.2-0.7,0.5-1.5,0.7-2.2C70,129,70.4,129.1,70.8,129.1z"/>
	<path class="st0" d="M54.9,106.8c0.6,0,1.2-0.1,1.7,0c7.4,1.9,14.8,3.8,22.2,5.8c0.1,0,0.2,0,0.2,0.1c0.5,0.5,1.1,1,1.6,1.6
		c-0.7,0.2-1.5,0.7-2.1,0.5c-3.6-0.8-7.3-1.8-10.9-2.8c-3.6-1-7.2-2.2-10.7-3.3c-0.8-0.3-1.5-0.7-2.2-1.1
		C54.8,107.3,54.9,107,54.9,106.8z"/>
	<path class="st0" d="M103.5,36.9c-2.8,0-4.8-1.8-4.8-4.6c0-2.5,2.4-4.9,5-4.9c2.7,0,5,2.1,5,4.5C108.6,34.7,106.4,36.8,103.5,36.9z
		 M106.5,32.5c0-0.4,0.1-0.7,0.1-1.1c-0.9-0.7-1.7-1.9-2.7-2.1c-1.7-0.4-2.5,0.9-2.7,2.5c-0.2,1.6,0.6,2.9,2.1,2.7
		C104.4,34.4,105.5,33.2,106.5,32.5z"/>
	<path class="st0" d="M57.6,126.9c0.6-0.4,1.1-0.8,1.7-1c5.8-2.3,11.6-4.6,17.4-6.9c0.5-0.2,1.1-0.5,1.7-0.5c0.6,0,1.2,0.2,1.8,0.4
		c-0.4,0.5-0.7,1.3-1.2,1.6c-3.2,1.4-6.4,2.8-9.7,4c-3,1.1-6,2.1-9,3.1c-0.7,0.2-1.5,0.3-2.3,0.4C57.8,127.5,57.7,127.2,57.6,126.9z
		"/>
	<path class="st0" d="M76.5,6c0-2.2,2-4,4.5-4c2.5,0,5,2.2,5,4.6c0.1,2.4-2.1,4.5-4.7,4.6C78.6,11.2,76.5,9.1,76.5,6z M83.8,7.4
		c0-0.3,0.1-0.7,0.1-1C83,5.7,82,4.5,81,4.5c-0.8,0-2.2,1.2-2.4,2.1c-0.4,1.7,1.2,2.4,2.5,2.3C82,8.8,82.9,7.9,83.8,7.4z"/>
	<path class="st0" d="M77.5,116.8c-0.5,0.2-1,0.5-1.5,0.6c-5.5,0.3-11,0.6-16.4,0.8c-0.8,0-1.5-0.6-2.3-0.9c0.8-0.4,1.5-1.2,2.3-1.2
		c5.2-0.2,10.5-0.2,15.7-0.3c0.7,0,1.5,0.3,2.2,0.4C77.5,116.4,77.5,116.6,77.5,116.8z"/>
	<path class="st0" d="M82.7,62.9c0,2.2-2,4-4.3,3.9c-2.4-0.1-4.3-2.1-4.2-4.6c0-1.9,1.8-3.5,4.1-3.5C80.6,58.7,82.8,60.7,82.7,62.9z
		 M75.3,62.7c1.4,0.9,2.2,1.6,2.9,1.7c0.6,0,1.3-0.8,2-1.3c-0.7-0.7-1.3-1.6-2.1-1.9C77.6,60.9,76.7,61.8,75.3,62.7z"/>
	<path class="st0" d="M80.8,148.6c-0.5-0.4-1.2-0.9-1.8-1.5c0.7-0.5,1.3-1.1,2-1.3c1.8-0.4,3.6-0.6,5.4-0.7c0.6,0,1.2,0.5,1.8,0.8
		c-0.5,0.5-0.9,1.1-1.4,1.3C85,147.7,83.2,148,80.8,148.6z"/>
	<path class="st0" d="M124.5,19.1c0.5,0.3,0.9,0.6,1.3,0.9c1.4,1.2,2.9,2.3,4.1,3.6c0.5,0.6,0.5,1.7,0.7,2.5
		c-0.8-0.2-1.8-0.2-2.4-0.7c-1.5-1.3-2.9-2.7-4.3-4.2c-0.3-0.3-0.4-1-0.4-1.5C123.5,19.5,124.1,19.3,124.5,19.1z"/>
	<path class="st0" d="M3.8,85.4c-0.2,0.6-0.6,1.7-1,2.8c-0.5-0.9-1.3-1.8-1.5-2.8c-0.4-1.7-0.5-3.4-0.6-5.1c0-0.4,0.6-1.3,0.8-1.2
		c0.5,0.1,1.4,0.5,1.5,0.9C3.3,81.5,3.4,83.2,3.8,85.4z"/>
	<path class="st0" d="M139.8,36.8c-0.5,0.7-0.7,1.4-1,1.5c-0.4,0.1-1.2,0-1.4-0.4c-1.4-1.9-2.6-3.8-3.8-5.8c-0.2-0.4,0-1.1,0.2-1.6
		c0.1-0.2,0.9-0.3,1.1-0.1C136.4,32.6,138.1,34.7,139.8,36.8z"/>
	<path class="st0" d="M3.9,92.8c0.9,0.7,1.4,0.9,1.6,1.3c0.8,2.1,1.6,4.2,2.2,6.3c0.1,0.5-0.4,1.2-0.7,1.8c-0.5-0.4-1.2-0.7-1.4-1.1
		c-0.9-1.9-1.7-3.8-2.3-5.7C3.1,94.8,3.6,94,3.9,92.8z"/>
	<path class="st0" d="M17.3,118.9c1,0.5,1.3,0.6,1.5,0.8c1.6,1.8,3.2,3.5,4.8,5.3c0.2,0.3,0.1,1.1-0.1,1.5c-0.1,0.2-1,0.2-1.2-0.1
		c-1.7-1.6-3.4-3.1-4.9-4.9C17,121.1,17.3,120,17.3,118.9z"/>
	<path class="st0" d="M148.9,64.4c-0.4,0.5-0.9,1-1.4,1.6c-0.4-0.6-0.9-1.1-1.1-1.7c-0.5-1.8-1-3.7-1.3-5.5c-0.1-0.6,0.6-1.3,0.9-2
		c0.5,0.5,1.3,0.9,1.5,1.5C148,60.2,148.4,62.1,148.9,64.4z"/>
	<path class="st0" d="M149.4,75.9c-0.1,0.7-0.2,2-0.5,3.3c-0.1,0.5-0.7,1-1,1.5c-0.3-0.5-0.9-0.9-1-1.4c-0.1-2-0.2-4-0.1-5.9
		c0-0.7,0.7-1.3,1-1.9c0.5,0.6,1.1,1.2,1.5,1.9C149.5,73.9,149.4,74.6,149.4,75.9z"/>
	<path class="st0" d="M44.3,7.6c-0.7,0.9-0.9,1.3-1.2,1.5c-2,1.2-4.1,2.3-6.1,3.3c-0.3,0.2-1.1-0.1-1.4-0.4c-0.1-0.1,0-1,0.3-1.2
		c1.9-1.3,3.9-2.6,5.9-3.6C42.3,6.8,43.2,7.4,44.3,7.6z"/>
	<path class="st0" d="M9.3,106.9c0.7,0.1,0.8,0.1,0.8,0.1c1.5,2.5,3,5,4.5,7.5c-0.6,0.1-1.6,0.6-1.7,0.4c-1.4-1.9-2.8-3.9-4-6
		C8.6,108.5,9.2,107.6,9.3,106.9z"/>
	<path class="st0" d="M148.2,87.8c-0.6,2.2-1.1,4.3-1.8,6.3c-0.2,0.5-0.9,0.7-1.4,1.1c-0.2-0.6-0.7-1.1-0.6-1.7
		c0.3-2,0.6-4.1,1.1-6.1c0.2-0.6,1.1-0.9,1.7-1.4C147.5,86.6,147.8,87.2,148.2,87.8z"/>
	<path class="st0" d="M100.2,3.9c2.1,0.9,4.2,1.7,6.2,2.6c0.4,0.2,0.6,1,0.9,1.5c-0.6,0.2-1.4,0.9-1.8,0.7C103.4,8,101.4,7,99.4,6
		c-0.4-0.2-0.5-0.9-0.7-1.4C99.1,4.4,99.6,4.2,100.2,3.9z"/>
	<path class="st0" d="M56.1,1.4c0.6,0.5,1.3,0.7,1.4,1.1C57.6,3,57.3,3.9,56.9,4c-2.4,0.8-4.7,1.4-7.2,2c-0.3,0.1-0.9-0.4-1.1-0.8
		c-0.1-0.2,0.2-0.9,0.5-1C51.5,3.3,53.8,2.4,56.1,1.4z"/>
	<path class="st0" d="M113.1,10c2.2,1.6,4.4,3.2,6.6,4.8c0.2,0.1,0.1,1.1-0.1,1.3c-0.4,0.3-1.2,0.5-1.5,0.3c-2-1.3-3.9-2.8-5.8-4.3
		c-0.2-0.2-0.4-0.8-0.3-1.1C112,10.7,112.5,10.5,113.1,10z"/>
	<path class="st0" d="M145.7,50.4c-0.4,0.5-0.7,1.2-1,1.2c-0.4,0.1-1.1-0.4-1.3-0.8c-1-1.9-2-3.8-2.7-5.8c-0.2-0.6,0.3-1.4,0.4-2.2
		c0.6,0.3,1.6,0.5,1.9,1C143.9,46,144.7,48.1,145.7,50.4z"/>
	<path class="st0" d="M23.4,20.4c0.3-0.5,0.5-1,0.8-1.3c1.7-1.3,3.3-2.7,5.1-3.9c0.3-0.2,1,0,1.6,0c-0.1,0.5,0,1.2-0.4,1.5
		c-1.6,1.6-3.2,3.1-4.9,4.5c-0.4,0.3-1.1,0.3-1.6,0.2C23.8,21.4,23.6,20.8,23.4,20.4z"/>
	<path class="st0" d="M69.2,148.1c-1.1,0-2.3,0.2-3.4-0.1c-0.6-0.1-1-1-1.5-1.5c0.6-0.4,1.1-1,1.7-1c2.1,0,4.3,0.2,6.4,0.4
		c0.5,0.1,0.9,0.7,1.4,1.1c-0.5,0.4-1,1-1.6,1.1c-1,0.1-2,0-3-0.1C69.2,148.1,69.2,148.1,69.2,148.1z"/>
	<path class="st0" d="M21.1,25.6c-2.2,2.7-3.9,4.9-5.7,7c-0.1,0.2-1,0-1.1-0.2C14,32,13.8,31.2,14,30.9c1.5-1.9,3.1-3.8,4.8-5.6
		C19,25,19.9,25.4,21.1,25.6z"/>
	<path class="st0" d="M28.7,129.4c2.3,1.7,4.5,3.4,6.7,5.1c0.1,0.1,0,0.9-0.2,1.1c-0.3,0.2-1,0.4-1.3,0.3c-2.1-1.2-4.1-2.5-6-3.8
		c-0.4-0.3-0.5-1.2-0.4-1.7C27.4,130,28.1,129.8,28.7,129.4z"/>
	<path class="st0" d="M49.3,84.5c-0.5-0.3-1.1-0.7-1.6-1c0.4-0.5,0.8-1.1,1.3-1.4c0.8-0.5,1.7-0.9,2.5-0.9c0.6-0.1,1.3,0.5,1.9,0.8
		c-0.3,0.6-0.5,1.4-1,1.7C51.5,84,50.5,84.1,49.3,84.5z"/>
	<path class="st0" d="M45.8,79.8c-0.9-0.8-1.5-1.2-2-1.7c1.4-0.6,2.7-1.4,4.1-1.8c0.4-0.1,1.2,0.7,1.8,1.2
		C48.4,78.2,47.1,79,45.8,79.8z"/>
	<path class="st0" d="M58.4,85.1c0.9,0.4,1.6,0.8,2.2,1.1c-0.6,0.6-1.1,1.5-1.8,1.7c-1.1,0.3-2.4,0.1-3.6,0c-0.2,0-0.4-1.2-0.3-1.2
		C56,86.2,57.1,85.7,58.4,85.1z"/>
	<path class="st0" d="M47.4,90.8c-0.7-0.8-1.7-1.4-1.6-1.8c0.4-2.1,2.3-1.5,3.6-1.6c0.7,0,1.4,0.7,2.1,1
		C50.3,89.2,49,89.9,47.4,90.8z"/>
	<path class="st0" d="M55.1,77.7c-0.8-0.5-1.5-0.9-2.3-1.2c0.6-0.6,1.2-1.5,1.9-1.6c1.1-0.3,2.4-0.1,3.5,0c0.1,0,0.3,1.2,0.2,1.3
		C57.5,76.7,56.4,77.1,55.1,77.7z"/>
	<path class="st0" d="M58.2,82.6c-0.5-0.4-1-0.8-1.5-1.2c0.4-0.4,0.7-1,1.2-1.3c1-0.4,2-0.8,3-1c0.5-0.1,1,0.6,1.6,0.9
		c-0.3,0.5-0.5,1.2-1,1.5C60.5,82,59.5,82.2,58.2,82.6z"/>
	<path class="st0" d="M57.6,40.6c-2.2-0.1-3.9-1-4.7-3c-0.9-2.2-0.4-4.4,1.5-5.6c1.2-0.8,3.2-0.6,4.8-0.5c0.6,0.1,1.1,1.4,1.6,2.1
		c-0.8,0-1.6,0-2.4,0.1c-1.1,0.1-2.4,0-3.1,0.6c-0.5,0.5-0.6,2.3-0.1,2.8c0.6,0.7,2,0.8,3,1c0.8,0.1,1.7,0,2.5,0
		c-0.7,0.7-1.2,1.5-2,2.1C58.5,40.5,57.9,40.5,57.6,40.6z"/>
	<path class="st0" d="M73.1,32.3c-0.2,1.4-0.3,2.4-0.3,3.3c0,0.5,0.2,1.2,0.5,1.5c0.4,0.2,1.3,0.2,1.6,0c0.4-0.4,0.7-1.2,0.5-1.7
		c-0.2-1-1.3-2.2,0.5-2.4c0.6-0.1,1.8,1.5,1.9,2.5c0.4,2.1-0.7,3.5-2.8,4c-2,0.4-3.4-0.3-4.3-2.1C69.9,35.5,70.6,33.8,73.1,32.3z"/>
</g>
</svg>
