<?xml version="1.0" encoding="utf-8"?>
<!-- Generator: Adobe Illustrator 24.3.0, SVG Export Plug-In . SVG Version: 6.00 Build 0)  -->
<svg version="1.1" id="Layer_1" xmlns="http://www.w3.org/2000/svg" xmlns:xlink="http://www.w3.org/1999/xlink" x="0px" y="0px"
	 viewBox="0 0 150 150" style="enable-background:new 0 0 150 150;" xml:space="preserve">
<style type="text/css">
	.st0{fill:#005BAB;}
</style>
<g>
	<path class="st0" d="M100.4,99.9c-3.9,0.2-7.6,0.6-11.1,2.4c-2.8,1.4-4.5,3.5-4.4,7c0.2,5.9,0.1,11.8,0.1,17.7
		c0,4.6,2.7,7.3,7.3,7.6c7.2,0.4,12.8,4.5,14.7,11c0.8,2.8-0.5,4.3-3.3,3.7c-7-1.3-14-2.5-21.1-1.8c-2.1,0.2-4.1,1.1-6.2,1.6
		c-0.8,0.2-1.8,0.4-2.4,0.1c-3.1-1.7-6.4-2-9.8-1.8c-6,0.4-11.9,1.2-17.9,2c-2.7,0.3-4-1-3.3-3.6c1.7-6,7.1-10.5,13.4-11.1
		c6.9-0.6,8.7-2.6,8.7-9.5c0-5.5-0.1-10.9,0-16.4c0-2.6-1.1-4.3-3.1-5.7c-2.6-1.8-5.7-2.5-8.8-2.9c-1.2-0.2-2.3-0.2-3.6-0.3
		c-0.4,1-0.7,2-1,2.9c-3.7,9.7-13.3,15.5-23.9,14.2c-9.9-1.2-17.9-9.4-19.1-19.5c-1.2-10.2,4.5-19.7,14-23.4
		c9.5-3.7,20.2-0.5,26.2,7.7c0.5,0.6,1.2,1.2,1.9,1.5c4,1.7,8.1,3.1,12.5,3.3c1,0.1,2.1,0,3.1-0.1c1.5-0.2,2.7-0.9,3.3-2.4
		c0.6-1.5,0.2-2.8-0.9-3.8c-1.6-1.3-3.2-2.7-5-3.6c-8-4.4-16-8.7-24-13c-0.4-0.2-1.3,0-1.8,0.3C22.5,72,6.2,66.1,1.5,52.1
		C-2.9,38.8,6.3,24.5,20.1,23c14.9-1.7,27,10.7,25,25.6c-0.1,0.4,0.1,1.1,0.4,1.3c4.8,3.5,9.8,6.7,15.3,9.1c1.1,0.5,2.2,0.7,3.4,1
		c1.2,0.4,1.9-0.3,2-1.3c0.2-2.6,0.5-5.3,0.4-7.9c0-2.1-0.5-4.2-0.7-6.3c-0.1-0.9-0.5-1.5-1.3-1.9c-8.2-4.4-12.7-13.1-11.7-22.3
		c1-9,7.6-16.6,16.5-19c13.1-3.5,26.5,5.8,27.8,19.2c0.9,9.3-3.5,17.6-11.7,22.1c-0.5,0.3-1,0.9-1.1,1.3c-0.4,4.3-0.6,8.5-0.9,12.8
		c0,0.1,0,0.2,0,0.3c0.4,3.1,1.1,3.6,4,2.6c5.3-1.8,9.8-4.9,14.5-7.9c2.2-1.4,3.1-2.7,2.9-5.5c-0.7-11.8,7.9-21.8,19.3-23.2
		c11.7-1.4,22.1,6,24.7,17.4c2,8.6-1.6,17.7-8.8,22.9c-7.4,5.3-17.1,5.6-24.9,0.8c-1-0.6-1.6-0.7-2.7-0.1c-8.5,4.7-17,9.3-25.5,14
		c-1.1,0.6-2,1.5-2.9,2.3c-1.2,1.1-1.5,2.5-1,3.9c0.5,1.5,1.8,2.2,3.3,2.4c3.5,0.4,7-0.3,10.3-1.4c0.6-0.2,1.2-0.4,1.8-0.6
		c2.7-0.8,4.8-2.1,6.7-4.4c6.4-7.7,17.4-9.8,26.5-5.4c8.8,4.2,13.9,14.1,12.3,23.6c-1.7,10.1-9.6,17.6-19.6,18.7
		c-10.9,1.2-20.8-5.5-24-16C100.7,100.8,100.5,100.4,100.4,99.9z M71.1,45.1c0.2,2.1,0.4,4.1,0.6,6.1c0.2,3.4,0.2,6.7-1.1,9.9
		c-1.1,2.9-3.2,4.3-6.3,3.9c-1.5-0.2-3-0.6-4.4-1.1c-5.3-2-10.1-5.1-14.8-8.2c-0.6-0.4-1.1-0.8-1.6-1.1c-1.2,1.8-2.2,3.5-3.2,5.2
		c6.6,3.5,13.1,7,19.6,10.6c3.5,2,7.2,3.8,10,7c4.4,4.9,2,12.7-4.5,14c-2.2,0.4-4.5,0.4-6.7,0.1c-2.9-0.4-5.8-1.2-8.8-1.8
		c0.2,1.7,0.4,3.5,0.7,5.3c1.5,0.2,3.1,0.3,4.6,0.5c4.1,0.6,8,1.8,11.2,4.5c2.2,1.9,3.8,4.2,3.9,7.2c0.1,7.1,0.1,14.2,0,21.3
		c-0.1,4.7-3.4,9-7.9,10.4c-1.5,0.5-3.1,0.6-4.6,0.7c-3.1,0.2-5.7,1.3-7.7,4c2.9-0.3,5.6-0.7,8.2-0.9c5.6-0.4,11.1-0.7,16.5,1.3
		c0.3,0.1,0.8,0.1,1.1,0c4-1.5,8.2-1.7,12.4-1.5c4.1,0.2,8.1,0.6,12.2,1c-2.1-2.7-4.9-3.8-8.2-3.9c-6.9-0.1-12-5.3-12-12.2
		c0-6.3,0.1-12.5,0-18.8c-0.1-3.8,1.6-6.7,4.5-9c2.3-1.8,4.9-2.9,7.7-3.5c2.5-0.5,5-0.8,7.6-1.2c0.2-1.7,0.4-3.5,0.7-5.4
		c-0.6,0.2-0.9,0.3-1.3,0.4c-4,1.3-8.1,2.1-12.4,1.8c-3.7-0.3-6.6-2-8-5.6c-1.4-3.5-0.5-6.7,2.2-9.3c1.2-1.2,2.5-2.3,4-3.1
		c7.9-4.4,15.8-8.7,23.6-13.1c0.5-0.3,1-0.5,1.5-0.8c-1.1-1.8-2.2-3.5-3.3-5.2c-1.6,1.1-3.2,2.1-4.8,3.2c-4.6,2.9-9.2,5.8-14.5,7.1
		c-4.3,1-7.3-0.6-8.2-4.9c-0.6-2.6-0.6-5.4-0.7-8c0-2.3,0.3-4.6,0.5-6.8C76.4,45.1,73.8,45.1,71.1,45.1z M31.8,47.3
		c2.2,2.1,4.2,4.2,6.3,6.2c3.6-5.4,3.2-15.3-3.8-21.3c-6.7-5.8-17-5.6-23.4,0.6c-6.4,6.1-6.6,15.7-3.1,20.7c2-2,4.1-4.1,6.3-6.1
		c-1.9-5.4-0.9-9.6,2.9-12.4c3.5-2.6,8.3-2.7,11.8,0C32.7,37.7,33.7,41.8,31.8,47.3z M60,31.4c0.9-1.1,1.8-2.3,2.8-3.4
		c1-1,2.3-1.9,3.4-2.8c-2-5.6-1.1-9.8,2.8-12.7c3.4-2.5,8.1-2.6,11.6-0.2c4.1,2.9,5,6.9,3.2,12.6c2.2,2.1,4.2,4.2,6.3,6.2
		c4.1-6,2.5-15.8-3.7-21.3c-6.6-5.8-16.6-5.7-23.2,0.3C57.4,15.5,55.8,25.5,60,31.4z M43,103.4c4.3-6.9,2.4-16.9-4.3-22.1
		c-7-5.5-17.1-4.8-23.3,1.6c-6.2,6.4-5.8,15.9-2.6,20.2c2.1-2,4.1-4.1,6.3-6.1c-1.9-4.9-1.1-9.1,2.6-12.1c3.3-2.7,8-3,11.6-0.7
		c1.8,1.1,3.1,2.7,3.9,4.7c1.2,2.9,0.8,5.8-0.4,8.4c1.2,1,2.4,1.8,3.4,2.8C41.1,101,42,102.2,43,103.4z M142.2,53.7
		c4.2-6.3,2.6-16.1-3.6-21.5c-6.6-5.8-16.6-5.7-23.1,0.1c-6.1,5.4-7.6,15.2-3.4,21.4c0.9-1.1,1.8-2.3,2.9-3.3c1-1,2.2-1.9,3.4-2.8
		c-2-5.6-1-9.8,2.9-12.7c3.4-2.6,8.2-2.6,11.7-0.1c4,2.9,4.9,7,3,12.8c1.1,0.9,2.4,1.8,3.4,2.8C140.4,51.4,141.3,52.6,142.2,53.7z
		 M131,97.2c1.2,1,2.4,1.9,3.5,2.9c1,1,1.9,2.2,2.8,3.3c4.4-7.2,2.3-17.1-4.6-22.3c-7.1-5.4-17.2-4.5-23.2,2
		c-6.1,6.5-5.5,15.9-2.4,20c2.1-2,4.1-4.1,6.3-6.1c-2-4.9-1-9.4,2.8-12.3c3.5-2.7,8.3-2.8,12-0.1C132,87.4,133,91.7,131,97.2z
		 M34.5,58.1c-1.1-2.8-2.9-4.9-5.5-6.2c-0.5-0.3-1.3-0.3-1.9-0.1c-2.8,1.2-5.6,1.2-8.4,0c-0.4-0.2-1.1-0.2-1.5,0
		c-2.7,1.4-4.7,3.5-5.8,6.4C17.1,64.1,28.3,64.1,34.5,58.1z M127.2,62.7c3.9-0.1,7.3-1.2,10.4-3.5c0.9-0.7,1.2-1.2,0.6-2.3
		c-1.2-2.1-2.8-3.9-4.9-5c-0.5-0.3-1.4-0.3-2-0.1c-2.4,1-4.9,1.4-7.2,0.3c-2.1-1-3.5-0.3-4.8,1c-1.2,1.2-2.2,2.6-3.2,4
		c-0.6,0.7-0.3,1.3,0.4,1.8C119.7,61.4,123.2,62.6,127.2,62.7z M39.3,107.8c-0.9-2.7-3.2-5.3-5.7-6.4c-0.4-0.2-1.1-0.2-1.5,0
		c-2.9,1.3-5.7,1.3-8.6,0c-0.4-0.2-1.1-0.2-1.5,0c-2.5,1.2-4.3,3.1-5.4,5.6c-0.2,0.4,0.1,1.2,0.4,1.4c1.4,0.9,2.8,1.9,4.3,2.6
		C27.4,113.6,35.3,112.1,39.3,107.8z M122.2,112.3c4-0.1,7.6-1.3,10.8-3.8c0.7-0.5,0.7-1,0.4-1.7c-1.2-2.3-2.9-4.1-5.1-5.3
		c-0.5-0.3-1.3-0.3-1.9,0c-2.8,1.2-5.5,1.2-8.3,0c-0.5-0.2-1.4-0.2-1.9,0.1c-2.2,1.2-3.9,3-5.1,5.2c-0.4,0.8-0.4,1.3,0.4,1.8
		C114.7,111,118.2,112.2,122.2,112.3z M63.5,35.8c6.1,6,17.3,6,23,0c-1.1-2.8-3.1-5-5.8-6.4c-0.4-0.2-1.1-0.1-1.5,0
		c-2.9,1.3-5.7,1.3-8.6,0c-0.4-0.2-1-0.2-1.3-0.1C66.6,30.7,64.7,32.9,63.5,35.8z M132.1,42.8c0-2.8-2.2-5-4.9-5
		c-2.8,0-4.9,2.2-4.9,5c0,2.7,2.2,4.9,4.9,4.9C129.8,47.8,132.1,45.6,132.1,42.8z M27.9,42.9c0-2.7-2.2-5-5-5c-2.7,0-4.9,2.2-5,4.8
		c-0.1,2.7,2.2,5,4.9,5.1C25.5,47.9,27.9,45.6,27.9,42.9z M75.1,25.4c2.8,0,5-2.3,4.9-5c0-2.7-2.2-4.8-4.9-4.9c-2.8,0-5,2.2-5,4.9
		C70.1,23.2,72.3,25.4,75.1,25.4z M27.9,87.5c-2.8,0-4.9,2.3-4.9,5c0,2.7,2.2,4.9,4.9,4.9c2.7,0,5-2.2,5-5
		C32.8,89.7,30.6,87.5,27.9,87.5z M127.2,92.5c0-2.8-2.2-5-4.9-5c-2.7,0-4.9,2.1-4.9,4.8c0,2.8,2.1,5,4.9,5.1
		C124.9,97.4,127.1,95.2,127.2,92.5z"/>
</g>
</svg>
