<?xml version="1.0" encoding="utf-8"?>
<!-- Generator: Adobe Illustrator 24.3.0, SVG Export Plug-In . SVG Version: 6.00 Build 0)  -->
<svg version="1.1" id="Layer_1" xmlns="http://www.w3.org/2000/svg" xmlns:xlink="http://www.w3.org/1999/xlink" x="0px" y="0px"
	 viewBox="0 0 150 150" style="enable-background:new 0 0 150 150;" xml:space="preserve">
<style type="text/css">
	.st0{fill:#075CAA;}
</style>
<g>
	<path class="st0" d="M76.8,66.8c0.1,0,0.1-0.1,0.2-0.1c0.2-0.1,0.2,0.1,0.2,0.2c0,0,0,0,0,0.1c0.5,0.8,0.9,1.3,1.2,1.8
		c3.6,4.8,11.1,4.7,14.1-0.1c0.9-1.1,1.5-2.3,1.5-3.7c0.4-1.6,0.3-3.1-0.3-4.6c0-1.1-0.2-2.1-0.7-3c0.1-0.7-0.1-1.4-0.4-2
		c0-0.9-0.2-1.7-0.5-2.5c-0.8-3.7-1.5-7.4-2.4-11c-1.4-6.3-6.9-9.5-12.8-8.4c-5.5,1-10.9,2.3-16.4,3.5c-0.4,0.1-0.8,0.2-1.1-0.1
		c-1.3-1.1-2.8-1.7-4.4-2.3c0.3-0.3,0.5-0.4,0.6-0.6c9.2-8.5,7.9-23.4-2.8-30c-3.6-2.2-7.5-3.2-11.7-2.6c-0.3,0-0.6,0.1-1,0.1
		c-0.2,0-0.5,0.1-0.7,0.1c-0.2,0-0.3,0.1-0.5,0.1c-1.7,0.2-3.2,0.8-4.6,1.7c-6,3.2-9.4,8.1-10.1,14.9c-1.2,7.5,3.9,16.2,11.3,19.2
		c2.3,0.9,4.7,1.4,7.1,1.5c0.1,0.4-0.1,0.6-0.3,0.7c-2.8,3.5-4.1,7.4-4,11.8c0,0.6-0.2,1-0.4,1.5c-0.7,1.7-1.3,3.3-2,4.9
		c-1.1,2.6-1.1,2.6-3.8,1.5c-2.9-1.1-5.6-2.4-8.6-3.3c-0.2-0.3-0.5-0.4-0.8-0.4c-0.4-0.3-0.9-0.4-1.4-0.5c-0.7-0.4-1.5-0.4-2.2-0.3
		c-5.6,0-9.8,4.9-8.8,10.2c0,1.1,0.4,2,1,3c1,2,2.6,3.3,4.6,4.1c4.7,1.9,9.4,3.8,14.1,5.6c1.6,0.7,3.2,1.5,5,1.9
		c0.7,0.4,1.4,0.6,2.2,0.5c1.7,0.5,3.4,0.2,5-0.3c0.8-0.3,1,0,1,0.7c0.2,1.9,0.5,3.8,0.8,5.7c0,1.3,0.1,2.5,0.1,3.8
		c0,15.6,0,31.3,0,46.9c0,0.9,0,1.7,0.1,2.5c0.7,7.6,8.5,11.9,15.3,8.4c0.6-0.3,1-0.3,1.7,0c7.3,3.7,15.4-1.3,15.4-9.5
		c0-15.6,0-31.1,0-46.7c0-1.8,0-3.5,1.5-4.8c0.1-0.1,0.2-0.4,0.3-0.5c-0.1-0.2-0.1-0.3-0.2-0.5c-0.1,0-0.2,0-0.2,0
		c0.1,0,0.2,0,0.2,0c0.1,0.2,0.1,0.3,0.2,0.5c0.1-0.2,0.3-0.5,0.4-0.7c0.1,0,0.1-0.1,0.1-0.2c0.8-1.2,0.9-2.6,0.8-4
		c-0.3-3.8-1-7.4-1.8-11.1c-0.2-1-0.6-2-0.8-3.4c0,0,0,0,0,0C76.9,66.9,76.8,66.8,76.8,66.8z M32.9,31.4c-5-4.3-6.4-9.9-4.6-16.3
		c0.1-0.3,0.2-0.5,0.2-0.8c1.7-3.9,4.5-6.8,8.3-8.7c0.2-0.3,0.4-0.6,0.7-0.8c-0.3,0.2-0.5,0.5-0.7,0.8c3.4-1.3,6.9-1.6,10.5-0.6
		c6.3,1.9,11.1,7.9,11,14.3c-0.1,6.5-2.9,11.5-8.9,14.3C43.5,36.4,37.8,35.7,32.9,31.4z M41.8,76.1c-1.1,0.5-2.3,0.6-3.5,0.7
		c-2.2-0.4-4.2-1.6-6.3-2.2c-4.7-1.9-9.3-3.9-14-5.7c-1.4-0.6-2.6-1.3-3.4-2.6c-0.2-0.4-0.3-0.7-0.5-1.1c-0.8-0.5-1.2-0.8-1.6-0.9
		c0.4,0.1,0.9,0.4,1.6,0.9c-0.5-3.8,0.9-6.1,4.4-6.8c1.1-0.2,2.2,0,3.2,0.4c4.8,1.9,9.5,3.8,14.3,5.8c0.8,0.3,1.2,0.3,1.5-0.6
		c0.6-1.8,1.4-3.5,2.2-5.6c1,4.5,1.7,8.6,2.3,12.7c0.2,1.3,0.3,2.6,0.6,3.8C42.6,75.6,42.4,75.9,41.8,76.1z M76.3,65.2
		c-1.4-4.2-3-8.1-4.9-11.9c-0.2-0.5-0.1-0.7,0.3-0.8c0.1,0,0.2,0,0.2,0c2.2-0.4,1.8-0.7,2.2,1.4c0.7,3.2,1.4,6.5,2.1,9.7
		C76.4,64.1,76.6,64.6,76.3,65.2z M75.8,48.1c-3.8,0.9-7.7,1.6-11.6,2.6c-0.6,0.1-1.1,0.2-1.7,0.3c-2.4,0.5-2.4,0.5-1.7,2.9
		c0,0.2,0.1,0.3,0.1,0.5c0,0.3,0,0.5,0.4,0.3c1.8-0.4,3.6-0.7,5.3-1.1c0.6-0.1,0.9,0,1.2,0.6c4.5,8.5,7.2,17.6,8.2,27.1
		c0.2,2.3-1.1,3.8-2.5,5.4c-0.1,0-0.1,0-0.1,0.1c-0.5,0.2-0.4,0.6-0.3,1c-0.1,0.1-0.1,0.1,0,0.2c0,0.1,0,0.2,0,0.2
		c0,3-0.1,5.9-0.1,8.9c0,5.6,0,11.3,0.1,16.9c-0.1,0.7-0.1,1.3,0,2c-0.1,0.2-0.1,0.5,0,0.7c0,0.3,0,0.6,0,1v0c0,0.1,0,0.2,0,0.3l0,0
		c0,5.3-0.1,10.6-0.1,15.9c0,1.7,0,3.3,0,5c0.1,0.1,0.2,0.1,0.2,0.2c0,0-0.1-0.1-0.2-0.2c0,0.2,0,0.4-0.1,0.5v0
		c-1,3.8-3.3,6-6.7,6.1c-0.5,0-1.1,0-1.6-0.1c-2.4-0.5-2.7-0.9-2.7-3.3c0-15.8,0-31.7,0-47.5c0-0.3,0.3-0.8-0.3-1
		c-0.6,0-1.3,0-1.9,0c-0.5,0.1-1.4-0.5-1.2,0.7c0,5.7,0,11.5,0,17.2c0,5.5,0,10.9,0,16.4c0,5.1-0.1,10.1,0,15.2
		c0,0.9-0.3,1.4-1.1,1.7c-4.4,2-9.6-1.1-9.8-5.9c0-0.6,0-1.2,0-1.8c0-15.8,0-31.6,0-47.4c0.1-3.6-0.6-7.2-1.1-10.7
		c-1.1-8.8-2.8-17.5-4.6-26.2c-1.1-5.7,2.1-11.9,7.3-14.4c2.7-1.3,5.2-1,7.5,0.7c0.2,0.2,0.6,0.3,0.6,0.6c0.1,1.3,0.8,1.2,1.7,0.9
		c6.1-1.4,12.3-2.7,18.4-4c4.1-0.9,7.9,1.5,8.8,5.6c0.8,3.5,1.5,7,2.3,10.4c0.2,0.8,0.2,1.6,0.6,2.4c0,0.7,0.1,1.3,0.4,2
		c0.1,0.7,0.2,1.4,0.5,2c-0.2,0.9,0.4,1.8,0.5,2.6c0.3,1.1,0.2,2.3-0.1,3.4c-0.3,0.6-0.7,1.1-1,1.7c-0.7,0.9-1.7,1.3-2.6,1.9
		c0,0.1,0.1,0.2,0.2,0.3c-0.1-0.1-0.1-0.2-0.2-0.3c-4.3,0.2-6.2-1.3-7.1-5.5c-1-4.7-2.1-9.5-3.1-14.2C76.6,48.4,76.5,48,75.8,48.1z"
		/>
	<path class="st0" d="M77,66.8c0,0.1,0,0.1,0,0.2c0,0,0,0,0.1-0.1C77.1,66.8,77,66.8,77,66.8z"/>
	<path class="st0" d="M116.8,94.8c-0.5-1.9-1.7-3.1-3.5-3.7c-2.6-0.9-4.7,0.1-6.5,2c-1.7,1.8-3.5,3.6-5.3,5.4
		c-0.6,0.6-0.9,0.5-1.4-0.1c-1.4-1.8-2.9-3.4-4.4-5.2c-0.1-0.1-0.2-0.2-0.3-0.3c-0.1-0.1-0.1-0.1-0.2-0.2c-0.1-0.3-0.2-0.4-0.5-0.6
		c-0.1-0.2-0.2-0.4-0.5-0.4c-0.6-1.3-1.7-2.2-2.5-3.2c-0.8-0.9-1.8-1.2-2.9-0.7c-1.1,0.5-1.7,1.5-1.4,2.8c0.7,2.8,1.5,5.6,2.2,8.4
		c1.3,5.1,2.5,10.2,3.9,15.2c0.8,2.8,3.7,4.2,6.6,3.6c2.1-0.5,3.3-2.2,4.7-3.6c1.4-1.4,2.9-2.8,4.3-4.2c0.4-0.4,0.6-0.3,0.8,0.1
		c0.7,0.9,1.5,1.8,2.3,2.6c2.1,2.5,4.2,5.1,6.3,7.5c0.8,1,2,1.2,3.1,0.6c1.1-0.6,1.5-1.5,1.2-2.9
		C120.8,110.2,118.8,102.5,116.8,94.8z M91.7,93.3c0,0-0.1,0-0.1-0.1C91.6,93.3,91.6,93.3,91.7,93.3C91.7,93.3,91.7,93.3,91.7,93.3z
		 M92.1,90.5c0,0,0.1,0,0.1,0.1C92.2,90.6,92.1,90.6,92.1,90.5C92.1,90.5,92.1,90.5,92.1,90.5z M114.4,110.1
		c-1.4-1.8-2.9-3.5-4.3-5.3c-0.4-0.6-0.7-0.3-1,0c-1.9,1.9-3.8,3.9-5.7,5.8c-0.5,0.3-0.9,0.8-1.3,1.3l0,0c0,0,0,0,0,0
		c-0.3,0.2-0.6,0.4-0.7,0.8c0,0-0.1,0.1-0.1,0.1v0c-0.3,0.3-0.7,0.5-0.8,0.9c0,0,0,0,0,0c-2.2,1.2-3.3,0.7-3.9-1.7
		c-1-3.7-1.9-7.5-2.9-11.2c-0.1-0.4-0.3-0.8-0.4-1.1c-0.1-1.5-0.6-2.8-1-4.2c0,0,0,0,0,0c0,0,0-0.1,0-0.1c-0.1-0.3-0.2-0.7,0.4-0.4
		c0.3,0.2,0.5,0.5,0.7,0.7c0.1-0.2,0.2-0.4,0.3-0.5c-0.1,0.2-0.2,0.3-0.3,0.5c2.2,2.6,4.4,5.3,6.6,7.9c0.5,0.6,0.8,0.5,1.3,0
		c2.8-2.8,5.6-5.6,8.4-8.4c1.7-1.7,3.3-1.3,3.9,1c1.5,5.8,3,11.6,4.5,17.4c0,0.1,0,0.2,0,0.6C116.8,112.8,115.6,111.4,114.4,110.1z"
		/>
	<path class="st0" d="M116.1,56.8c-1.8-0.7-3.5-0.5-5.1,0.6c-2.3,1.6-2.8,3.8-2.4,6.4c0.4,2.5,0.7,5,1.1,7.5c0.1,0.8-0.1,1-0.9,1.1
		c-2.3,0.1-4.5,0.3-6.8,0.4c-0.1,0-0.3,0-0.4,0c-0.1,0-0.2,0-0.2,0c-0.2-0.1-0.5-0.1-0.7,0c-0.2-0.1-0.4,0-0.6,0.1
		c-1.4-0.3-2.7,0-4.1,0.1c-1.2,0-2,0.7-2.3,1.9c-0.3,1.2,0.2,2.3,1.4,2.8c2.7,1.2,5.3,2.2,8,3.3c4.8,2,9.6,4.2,14.5,6.1
		c2.7,1.1,5.6-0.4,6.8-3.1c0.9-2,0.3-4-0.1-5.9c-0.2-2-0.5-4-0.7-5.9c-0.1-0.5,0.1-0.6,0.6-0.6c1.2-0.1,2.3-0.2,3.5-0.2
		c3.3-0.1,6.5-0.3,9.8-0.4c1.3-0.1,2.1-0.9,2.3-2.1c0.2-1.2-0.3-2.2-1.6-2.7C130.8,62.9,123.4,59.8,116.1,56.8z M99.7,75.9
		c0,0-0.1,0-0.1,0.1C99.6,75.9,99.7,75.9,99.7,75.9C99.7,75.9,99.7,75.9,99.7,75.9z M97.7,73.9c0,0,0.1,0,0.1-0.1
		C97.8,73.9,97.8,73.9,97.7,73.9C97.7,73.9,97.7,73.9,97.7,73.9z M126.8,67.9c-2.3,0.1-4.5,0.2-6.8,0.2c-0.7,0-0.6,0.4-0.6,0.8
		c0.4,2.7,0.8,5.4,1.2,8c-0.1,0.6,0.1,1.2,0.3,1.8l0,0c0,0,0,0,0,0c0,0.4,0,0.7,0.1,1c0,0,0,0.1,0,0.1l0,0c0,0.4,0,0.8,0.3,1.2
		c0,0,0,0,0,0c-0.3,2.5-1.4,3.1-3.7,2.1c-3.6-1.5-7.1-3-10.7-4.5c-0.4-0.2-0.8-0.2-1.1-0.4c-1.2-0.8-2.6-1.2-4-1.8c0,0,0,0,0,0
		c0,0-0.1,0-0.1,0c-0.3-0.1-0.7-0.3-0.1-0.5c0.3-0.1,0.7-0.1,1-0.1c-0.1-0.2-0.2-0.4-0.2-0.6c0.1,0.2,0.1,0.4,0.2,0.6
		c3.4-0.2,6.9-0.3,10.3-0.5c0.8,0,0.9-0.3,0.8-1c-0.6-3.9-1.1-7.9-1.6-11.8c-0.3-2.4,1-3.4,3.2-2.5c5.5,2.3,11,4.6,16.6,7
		c0.1,0,0.2,0.1,0.5,0.3C130.4,67.7,128.6,67.8,126.8,67.9z"/>
</g>
</svg>
