<?xml version="1.0" encoding="utf-8"?>
<!-- Generator: Adobe Illustrator 24.3.0, SVG Export Plug-In . SVG Version: 6.00 Build 0)  -->
<svg version="1.1" id="Layer_1" xmlns="http://www.w3.org/2000/svg" xmlns:xlink="http://www.w3.org/1999/xlink" x="0px" y="0px"
	 viewBox="0 0 150 150" style="enable-background:new 0 0 150 150;" xml:space="preserve">
<style type="text/css">
	.st0{fill:#005BAB;}
</style>
<g>
	<path class="st0" d="M33.4,98.6c-8.6-5.9-13.9-13.7-15.8-23.9c-1.3-0.1-2.6,0-3.8-0.2C7.7,73.6,4,67.8,5.7,61.9
		c0.2-0.6-0.1-1.4-0.4-2c-5.6-9.4-6.5-19.1-1.9-29.1C6,25,10.5,21.6,17,21.2c0.6,0,1.3-0.7,1.6-1.2c2.6-4.3,5.6-8.2,9.6-11.3
		c6.3-4.9,13.6-6.4,21.4-5.9c9,0.5,17.5,3.3,26.2,5.4c4.7,1.2,9.5,2.2,14.4,2.9c5.3,0.7,10.3-0.2,14.7-3.6c2-1.5,4.2-0.5,4.3,1.9
		c0.4,11.2-0.3,22.3-3.8,33c-1.7,5.3-4.1,10.4-7.1,15.1c-0.5,0.8-0.7,1.4-0.2,2.3c3.5,6.7-0.9,14.2-8.5,14.6
		c-2.6,0.1-2.6,0.1-3.2,2.5c-2.1,8.7-6.8,15.6-14.1,20.8c-0.3,0.2-0.6,0.4-0.9,0.7c0,0,0,0.1-0.1,0.3c8.6,3.9,18.1,6.4,24.5,14.4
		c0.4-0.3,0.8-0.6,1.2-1c9.1-7.8,19.9-7.7,29,0.1c2.8,2.5,5.7,4.9,8.6,7.4c1.3,1.1,2.8,1.6,4.5,1.8c4.5,0.3,6.8,3.3,5.7,7.7
		c-1.8,7.4-6,13.2-12.6,17c-1.4,0.8-3.3,1.2-4.9,1.2c-38.6,0.1-77.3,0.1-115.9,0c-4.9,0-8.2-3.2-8.1-8.1c0.1-5,0-10.2,0.8-15.1
		c1.5-8.8,6.9-14.9,14.7-18.9c4.1-2.1,8.5-3.8,12.8-5.7C32,99.2,32.6,99,33.4,98.6z M104.6,14c-5.5,2.6-11,2.9-16.5,2
		c-4.6-0.7-9.1-1.9-13.7-3C67,11.4,59.7,9.3,52.2,8C44.5,6.7,37,8,30.6,13.2c-3.6,3-6.4,6.7-8.5,10.8c-0.8,1.6-1.9,2.3-3.8,2.2
		c-4.5-0.3-7.8,1.7-10,5.5c-2.5,4.3-3.3,9.1-2.7,14c0.4,4,1.6,7.7,3.7,10.7c2.8-0.7,5.4-1.3,8.1-2c0-1.1,0-2.4,0-3.8
		c0.1-3,1.3-5.4,3.8-7.1c5.5-3.8,11.5-5.6,18.2-5.2c5,0.3,9.8,1.8,14.6,3.4c8.2,2.8,16.5,4.7,25.3,2.6c4.8-1.1,8.3,2.2,8.6,7.2
		c0.1,1,0,2,0,3.1c1,0.1,1.7,0.1,2.4,0.2c0.8,0.1,1.6,0.1,2.4,0.5c0.9,0.4,1.4,0.2,1.9-0.6C102.4,42.3,104.7,28.6,104.6,14z
		 M83.2,62.3c-0.1,0-0.3,0-0.4,0c0-3.2,0-6.5,0-9.7c0-2.7-1.2-3.7-3.9-3.1c-6.2,1.4-12.3,1.2-18.3-0.5c-5.1-1.4-10.1-3-15.1-4.5
		c-7.2-2-14.2-1.6-20.8,2.5c-1.8,1.2-2.7,2.6-2.7,4.8c0,3.6-0.1,7.2,0,10.8c0.1,3.7-0.1,7.4,0.4,10.9c2.1,13.9,14.1,25,27.7,25.7
		c15.1,0.8,28.1-8.3,31.6-22.6C82.8,72,82.7,67.1,83.2,62.3z M34.8,103.1c-5.4,2.6-10.8,4.8-15.8,7.6c-6.3,3.5-10,9.1-10.7,16.3
		c-0.4,3.9-0.3,7.8-0.4,11.8c0,2.6,0.8,3.5,3.5,3.5c24.4,0,48.9,0,73.3,0c0.4,0,0.9-0.1,1.5-0.1c-0.9-1-1.6-1.9-2.3-2.8
		c-2.6-3.4-4.9-7-5.3-11.4c-0.3-3.7,1.5-6.3,5.1-6.5c3.7-0.3,5.8-2.7,8.4-4.8c-5.8-7.6-14.7-9.6-22.5-13.4
		c-3.5,11-9.3,16.3-17.5,16.2C45.7,119.4,37.6,115.3,34.8,103.1z M111.5,126.1c-8.7,0-17.3,0-26,0c-2.2,0-2.6,0.4-1.9,2.5
		c1.6,5.4,4.8,9.7,9.6,12.7c0.9,0.6,2.1,0.8,3.2,0.8c10.2,0.1,20.3,0.1,30.5,0c0.9,0,2-0.2,2.8-0.6c4.9-2.9,8.2-7.3,9.8-12.7
		c0.7-2.2,0.1-2.7-2.1-2.7C128.7,126.1,120.1,126.1,111.5,126.1z M128.6,121.2c-2.5-2.2-4.6-4.2-6.9-6.1c-4.3-3.5-9.3-4.3-14.6-3
		c-5.3,1.3-8.6,5.4-12.6,9.1C106,121.2,117.1,121.2,128.6,121.2z M40.1,102c0.3,7.1,6.6,13.1,12.9,12.6c6-0.5,12-7.1,11.4-12.6
		C56.4,105,48.3,105,40.1,102z M87.6,69.6c2.6,0.4,4.7-0.1,6.1-2.3c1-1.6,0.9-3.9-0.3-5.5c-1.5-1.9-3.4-2.3-5.8-1.9
		c0,0.5-0.1,1-0.1,1.5C87.6,64.1,87.6,66.8,87.6,69.6z M17,59.9c-2.6-0.4-4.7,0.1-6.1,2.3c-1.1,1.7-1,3.9,0.2,5.4
		c1.5,1.9,3.4,2.3,5.8,2c0-0.3,0.1-0.6,0.1-0.9C17,65.8,17,62.9,17,59.9z"/>
	<path class="st0" d="M119.8,52.8c-1.2-1.1-2.3-2-3.3-3c-3.4-3.5-3.5-8.8-0.1-12.2c3.3-3.3,8.7-3.3,12.2,0.1c1,1,1.9,2,3,3.3
		c1.2-1.3,2.1-2.4,3.1-3.4c3.5-3.3,8.8-3.3,12.1,0c3.3,3.3,3.3,8.6,0,12.1c-1,1-2.2,1.9-3.3,2.9c1.3,1.1,2.2,1.9,3.1,2.7
		c3.7,3.2,4.1,8.8,0.8,12.4c-3.2,3.5-8.8,3.7-12.3,0.4c-1.1-1-2-2.2-3.3-3.6c-1.2,1.3-2.1,2.4-3.1,3.4c-3.6,3.4-9,3.4-12.3-0.1
		c-3.3-3.4-3.2-8.6,0.3-12.2C117.5,54.8,118.5,53.9,119.8,52.8z M123.2,40.1c-2,0.1-3.2,0.7-3.9,2.1c-0.7,1.4-0.5,2.8,0.6,3.9
		c1.3,1.4,2.7,2.8,4.1,4.1c2,2,2,3.3,0,5.3c-1.3,1.3-2.5,2.5-3.8,3.8c-1.7,1.8-1.8,3.7-0.2,5.3c1.6,1.6,3.6,1.5,5.4-0.2
		c1.3-1.3,2.6-2.6,3.9-3.9c1.9-1.9,2.9-1.9,4.7-0.1c1.3,1.3,2.6,2.6,3.9,3.9c1.7,1.6,3.9,1.7,5.4,0.3c1.5-1.4,1.4-3.8-0.3-5.5
		c-1.3-1.4-2.8-2.7-4.1-4.1c-1.4-1.5-1.4-2.9,0-4.4c1.4-1.4,2.8-2.8,4.2-4.2c1.7-1.7,1.7-3.8,0.2-5.3c-1.5-1.5-3.5-1.5-5.3,0.2
		c-1.2,1.2-2.4,2.3-3.5,3.5c-2.5,2.5-3.1,2.5-5.7-0.1c-1.2-1.2-2.3-2.4-3.6-3.5C124.5,40.7,123.6,40.3,123.2,40.1z"/>
	<path class="st0" d="M100,92.6c0-1.2,0.7-2.9,2-4.5c1.9-2.3,1.9-3.3,0.3-5.7c-0.9-1.3-0.7-2.5,0.4-3.4c1-0.8,2.3-0.7,3.4,0.3
		c2.9,2.8,3.2,7.6,0.6,11.1c-2,2.8-2,3-0.3,5.8c0.7,1.2,0.6,2.3-0.4,3.2c-1.1,0.9-2.4,0.9-3.4,0C100.8,97.8,100,95.8,100,92.6z"/>
	<path class="st0" d="M123.3,85.1c-0.1,2.2-0.8,4-2.1,5.6c-1.8,2.1-1.8,3.1-0.3,5.3c0.9,1.3,0.8,2.6-0.2,3.5c-1,0.8-2.7,0.7-3.7-0.3
		c-2.9-2.8-3-7.7-0.3-10.9c2.1-2.4,2.2-3.2,0.4-5.9c-0.8-1.2-0.6-2.5,0.4-3.3c1-0.8,2.4-0.7,3.3,0.3
		C122.5,80.9,123.3,82.9,123.3,85.1z"/>
	<path class="st0" d="M52.2,81.7c2.9,0,5.5,0.9,7.7,2.8c1.3,1.1,1.5,2.4,0.6,3.5c-0.9,1.2-2.3,1.3-3.7,0.3c-3-2.2-5.8-2.2-8.9-0.1
		c-1.4,1-2.9,0.9-3.7-0.2c-0.9-1.2-0.6-2.7,0.7-3.8C47,82.5,49.4,81.7,52.2,81.7z"/>
	<path class="st0" d="M69.9,70.2C66.2,70,63,68.9,60.6,66c-0.8-0.9-1.2-2.1-0.3-3.1c0.6-0.6,1.7-1.1,2.6-1.1c0.6,0,1.3,0.7,1.8,1.2
		c1.6,1.6,3.5,2.6,5.8,2.2c2.1-0.3,3.3,0.9,3.3,2.3c0.1,1.5-1.2,2.5-3.2,2.6C70.3,70.2,70.1,70.2,69.9,70.2z"/>
	<path class="st0" d="M34.8,65.2c1.9,0,3.8-0.8,5.4-2.6c0.9-1,1.9-1.5,3.1-0.8c1.5,0.8,1.9,2.4,0.7,3.8c-2.6,3.2-6.1,4.6-10.1,4.5
		c-2.1,0-3.2-1.1-3.1-2.7C31,65.7,32.1,64.9,34.8,65.2z"/>
</g>
<g>
	<path class="st0" d="M264.2,50.2c-0.4-18.3,2.4-34.3,12-48.9c5.9-9,11.3-18.7,9.3-30.3c-1.3-7.8-5.1-14.7-8.6-21.7
		c-4.2-8.5-8-17.2-10.4-26.4c-0.5-2-0.3-3.8,1.9-4.5c2.3-0.7,3.4,0.8,3.8,2.8c2.9,11.9,8.4,22.8,14,33.5c8.1,15.6,6.6,30.3-2,45
		C280,7,275,13.9,272.9,22.3c-4.5,18.2-2.8,36.4,0.7,54.5c0.2,1,0.5,1.9,0.6,2.9c0.2,1.6-0.1,3.1-1.9,3.6c-2,0.6-3.2-0.5-3.7-2.4
		c-1.7-6.1-2.7-12.4-3.4-18.6C264.7,57.9,264.5,53.4,264.2,50.2z"/>
	<path class="st0" d="M393-13.2c0.2,13.1-3.6,25.2-9.1,37c-6.3,13.7-13.4,27.2-15.5,42.5c-0.6,4.3-0.7,8.6-0.8,12.9
		c-0.1,2.3-0.8,4.2-3.2,4.2c-2.5,0-3-2.1-3-4.3c-0.1-16.5,5-31.7,11.8-46.5c2.1-4.5,4-9.1,6.2-13.6c13.3-27.7,7.9-54-6-79.7
		c-2.9-5.4-5.7-10.9-8-16.6c-0.7-1.8-0.4-3.4,1.5-4.2c1.9-0.8,3.3,0.2,4,1.9c6,14.9,15.7,28.2,19.2,44.3
		C391.8-28,392.7-20.7,393-13.2z"/>
	<path class="st0" d="M327.1-59.9c2.5-1.1,4.4-2.3,6.6-2.9c10.4-2.8,19.8-0.8,27.6,6.9c12.8,12.7,14.5,35.2,3.6,49
		c-7,8.8-16.7,11.9-27.3,12c-4,0.1-4.7,1.1-4.4,4.7c0.3,4.1,0.3,8.3-0.8,12.4c-0.5,1.9-1.5,2.9-3.5,2.6c-1.9-0.4-2.4-1.8-2.1-3.4
		c1.2-6.6,1.1-13.2,0-19.8c-0.5-3,1-4.1,4.2-3.3c13.8,3.5,27.1-2.1,32.6-13.6c6.1-12.6,2-30.5-8.7-38.5c-7.2-5.4-16.8-5.6-24.2-0.7
		c-4.7,3.1-8.4,1.5-9.3-4.1c-1.1-6.9,0.2-13.6,1.6-20.3c0.4-1.8,1.7-3,3.7-2.5c2.1,0.6,2.1,2.4,1.8,4.1
		C327.3-71.7,326.2-66.1,327.1-59.9z"/>
	<path class="st0" d="M315.1-69.1c0,3.9,0.1,7.8,0.1,11.7c-1,0.6-0.5,0.9,0.3,1.2c2.7,6.5,7.4,11.2,12.7,15.5
		c4.9,4.1,9.2,8.7,11,15.1c1.2,4.5,0.8,8.7-3.1,11.8c-3.7,3-7.6,2.7-11.6,0.4c-3.4-1.9-7.3-3.7-10.3,0.1c-3.2,3.9-1.8,7.9,1.3,11.3
		c5.9,6.3,4.9,13.3,2.2,20.5c-0.7,2-2,3.7-4.5,2.6c-2.2-1-2-2.8-1.1-4.6c2.9-6.1,1.7-11.1-2.5-16.5c-6.5-8.3-2.4-19.5,7-21.1
		c3.8-0.7,7.2,0.8,10.5,2.4c1.9,0.9,3.8,1.8,5.5,0.2c1.7-1.6,1.2-3.6,0.6-5.6c-1.1-3.8-3.5-6.8-6.3-9.5c-1.7-1.6-3.4-3.2-5.3-4.6
		c-12.5-9.4-13.7-22.3-11.6-36.4c0.3-2,1.2-3.8,3.5-3.2c2.6,0.7,3.4,2.4,1.7,4.8C313.3-71.9,313.3-70.6,315.1-69.1z"/>
	<path class="st0" d="M406.7-1.8c3.5,3.2,8.7,0.9,13,2.9c2.1,1,4.4,2.5,3.2,5.3c-1.3,2.8-3.4,1.7-5.3,0.5c-2.1-1.4-4.1,1-6.2,0.4
		c-3-0.9-5.4-3.3-9-2.4c-1.2,0.3-1.9-1.6-1.6-3.1C401.4-1.1,403.8-1.3,406.7-1.8z"/>
	<path class="st0" d="M405.3-51.2c-1.5-0.6-2.6,0.2-3.7,1.4c-1,1.1-2.3,1.2-3.6,0.3c-1.5-1-1.4-2.5-0.9-4c0.4-1.3,1.2-2.7,2.5-2.9
		c4.6-0.9,8.7-3.3,13-4.7c2.2-0.7,5.5-0.3,5.8,2.9c0.3,2.8-2.1,3.2-4.5,3c-1.3-0.1-2.1,0.8-2.8,1.8
		C409.7-51.5,407.8-50.7,405.3-51.2z"/>
	<path class="st0" d="M407.1-20.6c3,2.2,6.1,0.6,9.3,0c2-0.4,4,0.2,5.6,1.4c1.2,0.9,1.7,2,1.1,3.5c-0.6,1.4-1.9,2.3-3.1,1.7
		c-2.5-1.3-4.3-0.5-6.3,0.9c-1.3,1-2.9,0.4-4.3-0.2c-1.2-0.5-2.3-1.6-3.7-0.6c-2,1.3-4,1.6-4.8-1c-0.9-2.6,1.2-3.9,3.2-4.9
		C404.9-20.2,406-20.3,407.1-20.6z"/>
	<path class="st0" d="M406.8-38.4c2,1.2,3.8-0.1,5.8-1.4c1.8-1.1,3.8-1.1,5.7-0.4c1.8,0.6,3.6,1.3,3.3,3.6c-0.3,2.3-2.1,2.8-4.1,2.4
		c-1.6-0.3-2.9-0.1-4,1.2c-1.5,1.8-3.4,1.8-5.5,1.2c-1.4-0.4-2.8-0.8-4.1,0.4c-1.4,1.3-3.1,1.4-4.3-0.3c-1.2-1.7-0.3-3.1,0.8-4.5
		C402.1-37.9,403.9-38.7,406.8-38.4z"/>
	<path class="st0" d="M401.9,16.2c3.3,4.1,10.2,3.8,14.1,8.7c1.2,1.5,1.6,3.4-0.2,4.9c-1.7,1.4-3.3,0.6-4.3-0.9
		c-1.1-1.6-2.3-2.2-4.2-1.8c-2.3,0.4-3.8-1-4.9-2.7c-0.7-1.1-1.3-2.3-3-2.2c-2.2,0.2-3.7-0.8-3.4-3.1
		C396.4,16.6,398.7,16.4,401.9,16.2z"/>
	<path class="st0" d="M315.1-69.1c-1.7-1.5-1.8-2.8,0.3-4C315.2-71.8,315.1-70.4,315.1-69.1z"/>
	<path class="st0" d="M315.5-56.2c-0.7-0.2-1.3-0.5-0.3-1.2C315.3-57,315.4-56.6,315.5-56.2z"/>
</g>
<g>
	<path class="st0" d="M287-625.2c7.4,1,14.6,2.8,21.9,4.6c1.5,0.4,3,1.2,2.3,3.1c-0.6,1.8-2.2,1.6-3.8,1.3c-7-1.6-13.9-3.1-20.9-4.6
		c-1.5-0.3-3.2-0.6-2.9-2.6C283.8-625.4,285.4-625.4,287-625.2z"/>
	<path class="st0" d="M212.9-624.7c1.1-0.1,2.4,0.1,2.7,1.7c0.4,1.6-0.7,2.5-2.1,2.8c-7.4,1.8-14.8,3.5-22.2,5.2
		c-1.4,0.3-2.8,0-3.2-1.6c-0.3-1.6,0.8-2.3,2.2-2.8C197.6-621.6,205.1-623.2,212.9-624.7z"/>
	<path class="st0" d="M249.7-623.7c-3.7,0.2-7.3,0.4-11,0.6c-1.7,0.1-3.1-0.4-3.2-2.3c0-1.6,1.3-2.3,2.7-2.3
		c7.5-0.1,15-0.1,22.5-0.1c1.6,0,3.1,0.5,2.9,2.5c-0.2,1.7-1.6,1.9-3,1.9c-3.7,0-7.3,0-11,0C249.7-623.5,249.7-623.6,249.7-623.7z"
		/>
	<g>
		<path class="st0" d="M177.3-269.8c8.1-1.6,12-7.2,15.5-14.3c7.6-15.6,8.3-17.1,1.6-32.3c-2.6-5.7-6.3-11-7.6-17.3
			c-5.4-26.1,11.1-51.1,38.2-57.2c20.7-4.7,40.8-1.9,59.8,7.2c7.9,3.8,15.5,5.9,23.8,2c2.8-1.3,4,0.2,4.1,3
			c0.3,7.9-0.7,15.7-4.5,22.7c-1.4,2.6-1.9,5.2-1.7,8.1c0.5,10.2-1.7,19.7-6.1,29c-3.1,6.7-5.3,13.8,0,21c3,4.1,5.3,8.9,7.1,13.7
			c3,8.2,8.5,13.1,16.7,15.4c8.8,6.6,15.8,14.5,18,25.8c0.8,4.3,0.7,8.6,0.6,12.9c0,2.9-1.7,3.3-4,2.1c-0.6-4.6-0.1-9.3-1-13.9
			c-2.2-11-11.7-22.3-21.1-24.4c6.5,12.2,12.8,24.3,19.2,36.3c-0.1,1.4-0.1,2.8-1.9,3.1c-2.2,0.3-2.7-1.6-3.4-3
			c-8.3-16.1-16.6-32.2-24.9-48.3c-7.1-13.7-14-27.6-21.3-41.2c-7.8-14.6-29.5-15.7-38.4-2.2c-4.1,6.3-4.1,12.7-0.7,19.4
			c11.7,22.8,23.3,45.6,34.9,68.4c0.2,0.4,0.5,0.9,0.7,1.3c0.7,1.7,2.7,3.7,0.3,5.2c-2.6,1.6-3.1-1.5-4.4-2.8
			c-5.6-11.1-11.7-22-16.6-33.5c-2.7-6.3-6.1-8.9-12.9-7.9c-1.9,0.3-3,0.6-3.8,2.3c-6.1,12.7-12.3,25.4-18.5,38.1
			c-0.6,1-1.2,2-1.8,3c-0.7,0.9-1.6,1.3-2.6,0.7c-1.1-0.6-1.7-1.6-1.1-2.9c0.5-1,0.9-2.1,1.5-3.2c8.3-16.9,16.5-33.8,24.9-50.6
			c1.3-2.7,1.6-4.9-0.1-7.4c-1-1.5-1.6-3.3-2.5-4.9c-6.9-11.2-7-22,2.3-32c-11.1-5.8-24.2-1.8-29.9,9.3
			c-14.3,27.6-28.5,55.3-42.8,83c-0.8,1.5-1.4,3-2.3,4.4c-1.8,2.8-3.5,2.9-4.9-0.4c6-11.5,12-23.1,18.5-35.7
			c-10.9,4.8-17.6,11.8-21.3,21.8c-1.9,5.1-1.1,10.5-2.3,15.7c-3.7,1.1-3.8-1.3-3.8-3.9c-0.2-13.2,5.1-23.8,15.4-31.9
			C173.8-267.3,175.6-268.5,177.3-269.8z M194.2-325.9c5.1-24.6,24.9-29.2,41.4-25.1c3.4,0.8,6.8,1.7,10.1,2.6
			c10.6,2.9,21.2,5.7,32.4,5.3c18.1-0.7,28.9-11.3,29.9-28.9c0.2-2.9,0.1-4.4-3.6-3.5c-6.5,1.6-12.9,0.5-18.8-2.7
			c-16.1-8.4-33.2-11.6-51.2-9.7c-16.1,1.6-29.4,8.5-38,22.6C189-353.2,188.4-340.4,194.2-325.9z M203-304.4
			c2.9-5.7,5.3-10.8,7.9-15.8c6.9-13.3,21.3-18.8,35.2-13.2c2.9,1.2,5.1,1.2,7.9,0c13.2-5.6,27.9-0.2,34.6,12.4
			c1.5,2.8,2.9,5.5,4.8,9.1c2.5-9.7,2.1-18.3-0.3-26.9c-0.6-2.2-1.6-2.3-3.6-1.7c-8.7,2.5-17.4,2-26.2,0.8
			c-10.8-1.5-20.9-5.6-31.5-7.5c-10.9-2-21-0.2-27.8,9.1C196.2-327.7,197.9-316.3,203-304.4z M301.7-346.7
			c-5.7,3.7-5.9,6.7-1.6,16.1C301.7-335.8,302.1-341,301.7-346.7z M247.2-276.2c2,0.7,3.9,0.8,5.9-0.1c-0.6-2.2-1.5-4.1-3.1-5.9
			C248.6-280.1,247.5-278.4,247.2-276.2z"/>
		<path class="st0" d="M215.8-451.6c1.3,0.6,3.1,1,2.6,3c-0.4,1.6-1.8,1.7-3.2,1.7c-2.2,0-4.2,0.4-5.9,1.3c2.7,2.9,5.3,5.8,8,8.7
			c0.9,1,1.9,2.1,0.8,3.5c-1.3,1.6-2.7,1-3.9-0.1c-3.1-2.8-6.1-5.7-9.1-8.6c-1.2-1.1-2.4-2-3.9-0.8c-2,1.7,0.2,2.5,1,3.5
			c1.2,1.6,2.7,3,4,4.4c0.9,1,1.8,2.2,0.4,3.5c-1.2,1.2-2.4,0.7-3.5-0.3c-1.9-1.9-3.7-3.8-5.5-5.7c-1.7-1.8-3.4-3.5-5.9-1.5
			c-2.8,2.2,0.7,3.3,1.3,4.8c0.6,1.7,2,3,3,4.5c0.9,1.3,0.9,2.5-0.5,3.4c-1.2,0.8-2.3,0.2-3.1-0.8c-1.7-2.3-3.5-4.5-4.9-6.9
			c-1.7-3.1-3.9-2.5-6.3-1.6c-3.4,1.3-0.8,3.3-0.5,4.9c0.4,1.9,1.4,3.7,2,5.6c0.4,1.3-0.3,2.3-1.6,2.7c-1.1,0.3-2-0.4-2.4-1.3
			c-1-2.1-2.1-4.2-2.6-6.5c-1-3.9-3.4-3.6-6.4-2.9c-3.7,0.8-1.5,3.2-1.6,5.1c0,2.4,2.4,6.2-1.2,6.8c-3.8,0.7-2.6-3.7-3.4-5.9
			c-0.7-2,0.4-4.8-3.2-5.2c-3.6-0.4-5.8,0.5-5.6,4.6c0,0.7,0,1.3-0.1,2c-0.2,1.9,0.1,4.6-2.8,4.3c-2.9-0.3-2-3-1.8-4.8
			c0.2-3.2,2.4-7.1-3.5-7.7c-2.5-0.3-3.7,0.4-4.4,2.7c-0.5,1.9-1.3,3.8-2,5.6c-0.5,1.3-1.2,2.7-2.8,2.1c-1.8-0.6-1.9-2.1-1.4-3.7
			c0.5-1.4,1.2-2.8,1.5-4.2c0.3-1.8,2.8-3.8-0.8-5.2c-2.7-1-4.9-1.8-6.5,1.6c-0.9,1.9-2.3,3.6-3.4,5.5c-1.5,2.4-3.3,1.5-5.1,0.6
			c0.9-3.3,3.2-5.8,5-8.6c1.3-2,0.9-2.9-1.1-4.2c-4.5-3.1-5.7,1.5-8,3.2c-2.4,1.8-5,4,0.3,5.8c1.5,0.5,2.6,2.4,3.9,3.7
			c0.1,3.3,1.1,5.4,4.8,6.3c3.8,0.9,6.4,4,6.7,7.9c0.2,3.1,1.6,4,4.2,5c5.5,2.3,7.6,7.6,4.6,12.7c-8.3,14.3-17.5,27.9-31.9,36.9
			c-2.7,1.7-5.6,3-8.4,4.4c-5.7,1.8-8.4,6.7-11.7,11.1c-1.1,1.4-2,3.7-4.2,2.2c-2.2-1.5-0.5-3.3,0.4-4.7c4-6.1,8.7-10.9,15.8-13.9
			c13.4-5.7,22.2-16.7,30-28.4c1.9-2.9,3.8-5.9,5.6-8.9c1.3-2.3,1.8-4.7-0.8-6.6c-2.4-1.7-4.7-1.6-6.8,0.4c-1.1,1.1-2.2,2.5-3.8,1.3
			c-1.8-1.3-0.7-2.9,0.2-4.4c0.6-1,1.3-1.9,1.8-3c1.3-3,0.6-5.6-2.2-7.4c-2.6-1.6-5-1.7-6.8,1.3c-0.8,1.4-2.1,2.5-3.7,1.3
			c-1.6-1.1-0.8-2.6,0-4c0.7-1.1,1.5-2.3,1.9-3.5c0.8-2.3,0.1-4.3-1.8-5.8c-1.9-1.6-4-1.6-6-0.2c-1.2,0.9-2.2,2-3.2,3.1
			c-0.9,0.9-1.9,1.4-3.1,0.7c-1.3-0.7-1.4-2.1-0.7-3c5.8-7.8,8.3-19,20.6-20.4c2.7-0.3,5.5-1.4,8-2.7c2.7-1.5,4-4.2,2.9-7.2
			c-1.2-3.4-4-2-6.3-1.4c-0.2,0-0.3,0.1-0.5,0.2c-16.7,2.7-28,11.7-35.5,27c-4.6,9.5-11.1,18.1-16.9,27.1c-4.6,7-6.4,14.3-5,22.8
			c1.6,9.2-4.6,15.5-9.5,22.2c-0.8,1-2,1.3-3.1,0.4c-1.3-1.1-1-2.3-0.1-3.5c2.1-3.2,4.3-6.3,6.3-9.6c1.9-3.1,2.7-6.5,1.9-10
			c-2-9.1,0.8-17,5.6-24.6c8.6-13.6,17.1-27.3,25.7-41c0.2-0.4,0.5-0.8,0.7-1.1c0,0,0-0.1,0-0.1c2-2.5,4.1-4.9,6.4-7.6
			c-2.4,1.2-4.8,2.3-7.3,3.5c-0.8,0.3-1.5,0.6-2.3,0.9c-1.6,0.6-3.4,1.1-4.2-1c-0.6-1.8,1-2.5,2.4-3.2c2.1-0.9,4.2-1.9,6.3-2.9
			c-0.1-1.8-1.6-2-2.7-2.6c-1.4-0.8-3.3-1.5-2.4-3.6c1.2-2.5,3-1,4.6-0.3c0.8,0.3,1.5,0.7,2.2,1c5.9,6.5,12.7,8,20.6,3.6
			c1.6-0.9,3.4-1.2,5.2-1.7c6.1-1.9,9.7-1,11.7,3c2.3,4.8,0.3,10.9-4.5,13.9c-1.3,0.8-3.2,0.6-4,2.3c9.8,6,23.8,8.9,36.1,7.6
			c10.8-0.9,20.7-4.7,30.5-8.7C202.6-448.5,209-451,215.8-451.6z"/>
		<path class="st0" d="M159.6-540.1c24.8,6.2,48.7,14.6,71.5,26c4.6,2.3,7,4.9,6.3,10.3c-0.7,5.4-0.5,11-0.7,16.4
			c-0.2,5.5-2,6.6-6.8,3.8c-25.3-14.4-52.3-24.6-80.4-31.9c-5.1-1.3-10.3-2.7-15.7-2.8c-11.5-1.3-22.5,0.6-32.9,5.8
			c-8.8,4.4-16.7,10.3-24.9,15.8c-1.2,0.8-2.5,2.1-4,0.6c-1.3-1.4-0.5-2.8,0.3-4.1c12.7-20,29-35.6,52.6-41.8
			c9.9-2.6,19.9-0.9,29.7,1.1C156.4-540.4,158-539.9,159.6-540.1z M85.2-508.5c0.6-0.4,1.3-0.7,1.9-1.1
			c20.7-14.7,43.2-16.4,67.1-9.5c25.8,7.5,50.9,16.6,74.5,29.6c2.6,1.5,4.1,2,3.9-2c-0.2-4.2-0.1-8.3,0.2-12.5
			c0.3-3.2-1-4.7-3.7-6.1c-21.5-10.8-43.9-19.1-67.3-24.7c-10.2-2.5-20.5-5.2-31.1-3.6c-18.7,2.8-33,13.4-44.8,27.7
			c-0.4,0.5-0.9,1.1-1.3,1.6c-0.4,0.2-0.8,0.4-0.5,0.9C84.2-508,84.9-508.3,85.2-508.5z"/>
		<path class="st0" d="M409.2-435.3c-18.2,20-40.6,30.1-67.7,29.2c-46.8-1.6-84.7-45.1-79.6-91.2c0.2-2,0.3-4.1,2.9-4.7
			c3.2,1.5,1.8,4.4,1.7,6.6c-1.4,28.6,9.1,51.8,31.8,69.1c26.5,20.2,63.7,20.9,91.3,2.3c28.1-18.9,41.2-53.3,32.7-85.8
			c-0.2-0.6-0.4-1.3-0.5-1.9c-0.3-1.7-1.5-3.9,1.2-4.5c2.5-0.5,2.8,1.9,3.2,3.6c6.8,26.2,2.6,50.5-13.3,72.6
			C411.7-438.5,410.4-436.9,409.2-435.3z"/>
		<path class="st0" d="M355.8-498.9c7.8-5.4,15.5-10.8,23.4-16.1c2.1-1.4,1.9-2.6,0.6-4.4c-3.1-4.3-6-8.8-9.1-13.1
			c-1.9-2.6-1.8-4.3,1.2-5.9c12.6-7.1,25.1-14.4,37.6-21.7c2.2-1.3,3.9-1.1,5.9,0.4c8.1,6.1,16.3,12.1,24.4,18.1
			c1.1,0.8,2.4,1.5,2.2,3c-0.2,1.9-1.9,2.1-3.3,2.6c-11,3.2-22,6.6-33,9.6c-3,0.8-3.5,1.7-1.7,4.3c2.5,3.5,4.7,7.3,7,10.9
			c2.6,4.3,2.3,4.9-2.7,6.3c-16.2,4.3-32.4,8.7-48.6,13c-0.4,0.2-0.8,0.3-1.2,0.5c0,0-0.2,0-0.2,0c-2.4,0.5-4.8,1-7.2,1.6
			c-1.2,0.3-2.3,0.3-3-0.9c-0.9-1.5,0-2.5,1.1-3.3C351.3-495.6,353.6-497.2,355.8-498.9z M363.9-498.8c0.1,0.3,0.2,0.7,0.3,1
			c14.1-3.7,28.1-7.5,42.7-11.3c-3.3-5.2-6.3-9.9-9.3-14.7c-1.9-2.9-1.3-4.6,2.1-5.4c1.1-0.3,2.2-0.6,3.3-1
			c10.4-3.1,20.7-6.1,31.8-9.4c-7.4-5.5-14.1-10.4-20.7-15.4c-1.6-1.2-2.9-1-4.5,0c-10.8,6.3-21.5,12.6-32.4,18.7
			c-2.1,1.2-2.4,2-0.9,4.1c3.1,4.1,5.7,8.6,8.8,12.7c2.2,2.9,1.8,4.8-1.2,6.8C377.1-508.3,370.6-503.5,363.9-498.8z"/>
		<path class="st0" d="M345.5-445.1c-22.9,0.1-42.5-17.6-44.6-40.3c-0.1-1.5-0.2-3-0.1-4.5c0.1-1.3,0.8-2.2,2.2-2.2
			c1.1,0,1.9,0.7,2,1.8c0.2,1.1,0.2,2.3,0.4,3.5c1.9,20.8,18.5,36.6,38.9,37c21.3,0.4,38.4-14.5,41.2-35.7c0.1-0.7,0.1-1.3,0.2-2
			c0.1-1.7,0.1-3.7,2.5-3.4c2.4,0.2,2.1,2.2,2,3.9c-0.8,10.5-4.6,19.7-11.7,27.5C370-450.5,357.9-445.2,345.5-445.1z"/>
		<path class="st0" d="M121.9-501.5c8.3-2.5,16.6-4.7,25.3-5.2c19.9-1.1,36.2,7,50.7,19.8c5.2,4.7,9.8,10,14.2,15.4
			c1.4,1.8,2.8,3.5,0.6,5.7c-2.2,0.2-3.1-1.5-4.3-2.9c-6.5-8.1-13.6-15.5-22.1-21.5c-22.2-15.8-45.4-14.5-69.1-4
			c-5.8,2.6-11.2,5.8-16.3,9.6c-1.4,1-3,3-4.7,0.9c-1.8-2.3,0.6-3.6,2.1-4.7C105.5-494.1,113.7-497.8,121.9-501.5z"/>
		<path class="st0" d="M345.9-573.9c12.6,0.3,24.8,2.8,36.1,8.5c1.6,0.8,4.1,1.3,3.1,3.7c-1.1,2.8-3.3,1.2-5,0.4
			c-23.1-10.8-46.3-10.6-69.4,0c-1.6,0.7-3.5,2.5-4.8,0.1c-1.4-2.6,1.1-3.3,2.9-4.2C320.5-571.1,332.9-573.7,345.9-573.9z"/>
		<path class="st0" d="M354.4-500.4c-1.9,1.2-3.5-0.1-5.2-0.6c-6.6-1.9-12.5,1.1-14.8,7.3c-2,5.5,1,12.1,6.6,14.4
			c6,2.4,12.5-0.2,15.2-6.5c0.9-2.1,1.4-4.2,4.4-3.2c1.2,8.3-7.2,15.9-16.8,14.9c-6.8-0.7-11.5-4.4-13.6-10.9
			c-2.1-6.4-0.7-12.3,4.3-16.9c4.8-4.5,10.5-5.4,16.7-3.2C353.3-504.2,355.4-503.3,354.4-500.4z"/>
		<path class="st0" d="M153.7-480.9c7.4,8.1,10.9,17.3,8,28.3c-0.5,1.9-1.3,3.7-2.2,5.5c-0.6,1.2-1.6,2.2-3.2,1.3
			c-1.6-0.8-1.3-2.1-0.7-3.4c1-2.3,2-4.5,2.3-7.1c2.3-17.7-12.6-30.7-30.2-26.2c-3.3,0.8-6.2,1.7-4-3.5c0,0,0.1,0,0.1,0
			c0.5-0.2,1-0.5,1.5-0.7c9.9-2.7,19-1.2,27.4,4.8C153-481.6,153.3-481.2,153.7-480.9L153.7-480.9z"/>
		<path class="st0" d="M289.8-550c-2.4-3.2-4.8-6.3-7.2-9.5c-0.9-1.2-1.8-2.7-0.2-4c1.6-1.3,2.7-0.1,3.7,1.1
			c2.4,2.9,4.9,5.8,7.3,8.8c7.1,9.2,14.3,18.4,21.4,27.6c0.9,1.2,1.8,2.4,2.8,3.5c0.9,1.2,1.2,2.4-0.1,3.5c-1.4,1.2-2.5,0.4-3.4-0.7
			c-2.9-3.6-5.8-7.3-8.7-10.9C300.2-537,295-543.5,289.8-550z"/>
		<path class="st0" d="M269-517.3c-3.8-1.5-7.6-3.1-11.4-4.6c-1.6-0.6-3.4-1.4-2.6-3.5c0.8-2.2,2.6-1.4,4.2-0.8
			c3.8,1.5,7.7,2.9,11.5,4.3c10.5,4.2,21,8.4,31.4,12.6c0.9,0.4,1.8,0.8,2.8,1.1c1.7,0.7,3.9,1.2,2.8,3.7c-0.9,2.2-2.8,1.1-4.3,0.5
			c-7.3-2.8-14.5-5.7-21.8-8.6C277.3-514.2,273.1-515.7,269-517.3z"/>
		<path class="st0" d="M365.5-528.4c-0.9,2.8-2.8,2.1-4.8,1.2c-8.4-3.5-17.1-3.9-25.9-1.6c-2.1,0.5-4.1,1.4-6.1,2.2
			c-1.4,0.6-2.7,0.5-3.3-1.1c-0.6-1.6,0.3-2.5,1.6-3.1c12.1-5.2,24.2-5.4,36.3-0.1C365-530.2,365.6-529.3,365.5-528.4z"/>
		<path class="st0" d="M374.1-230.4c-0.9,0-1.6-0.4-2.1-1.1c-0.6-1-0.5-2,0.4-2.7c6.4-5,12.9-10,19.3-14.9c0.9-0.7,1.9-0.5,2.7,0.3
			c0.8,0.8,0.9,1.9,0.1,2.7c-6.2,5.8-12.8,11-20,15.5C374.5-230.5,374.3-230.5,374.1-230.4z"/>
		<path class="st0" d="M355.9-600c-0.2,1.4-1.2,2.5-2.9,1.7c-7.3-3.3-14.5-6.7-21.7-10.1c-1.1-0.5-1.9-1.5-1.3-2.8
			c0.5-1.1,1.5-1.8,2.9-1.3c7.4,2.9,14.6,6.3,21.7,10.1C355.3-602,355.9-601.4,355.9-600z"/>
		<path class="st0" d="M456.1-348.2c1.7-7.3,3.4-14.5,5.2-21.8c0.4-1.6,1.1-3,3-2.4c1.6,0.5,1.6,1.9,1.4,3.3
			c-1.4,7.5-3.2,14.9-5.5,22.2c-0.4,1.4-1.4,2.4-2.9,1.9C455.6-345.5,455.6-346.9,456.1-348.2z"/>
		<path class="st0" d="M36.6-446.6c1.8-7.4,3.5-14.9,5.3-22.3c0.3-1.4,1.2-2.5,2.9-2.1c1.6,0.4,1.9,1.5,1.5,3.1
			c-1.7,7.3-3.2,14.6-4.8,21.9c-0.3,1.5-1,3.1-2.9,2.6C37-443.7,36.6-445.1,36.6-446.6z"/>
		<path class="st0" d="M51.9-489.6c-1.7-0.4-2.5-1.5-1.8-3.2c3-7.4,6.4-14.6,10.3-21.6c0.6-1.1,1.6-1.8,2.9-1c1.1,0.7,1.6,1.7,1,3
			c-3.4,7.2-6.9,14.4-10.3,21.6C53.7-490,52.9-489.7,51.9-489.6z"/>
		<path class="st0" d="M467.1-443.6c0.2,1.7-0.1,3.2-2,3.4c-1.6,0.2-2.1-1.2-2.4-2.6c-1.5-7.2-2.9-14.3-4.5-21.4
			c-0.3-1.6-0.5-3.1,1.3-3.7c1.9-0.6,2.7,0.8,3.1,2.4C464.4-458.3,466.1-451,467.1-443.6z"/>
		<path class="st0" d="M464.9-406.6c0-3.5,0-7,0-10.5c0-1.7,0.3-3.2,2.1-3.4c1.8-0.2,2.5,1.4,2.5,3c0.1,7.5,0.3,15-0.5,22.4
			c-0.2,1.6-0.6,3.2-2.6,2.9c-1.9-0.3-1.9-2-1.9-3.5c0-3.7,0-7.3,0-11C464.7-406.6,464.8-406.6,464.9-406.6z"/>
		<path class="st0" d="M78.6-284.8c-0.2,1.1-0.6,1.8-1.5,2.1c-1.1,0.4-2,0.1-2.6-0.8c-4.7-6.4-9-13.1-12.8-20.1
			c-0.6-1.1-0.6-2.4,0.6-3.1c1.4-0.8,2.6-0.3,3.4,1c4.1,6.4,8.2,12.9,12.2,19.3C78.2-285.9,78.4-285.3,78.6-284.8z"/>
		<path class="st0" d="M451.6-323.8c-0.1,0.3-0.3,0.9-0.6,1.5c-3.3,6.5-6.5,13-9.8,19.5c-0.7,1.4-1.8,2.6-3.5,1.7
			c-1.8-0.9-1.2-2.4-0.5-3.9c3.3-6.5,6.5-13,9.8-19.5c0.6-1.2,1.4-2.4,3-2C451.1-326.2,451.7-325.3,451.6-323.8z"/>
		<path class="st0" d="M169.7-608.8c-0.2,1.8-1.6,2.2-2.7,2.8c-6.2,3.1-12.5,6.1-18.8,9.2c-1.4,0.7-2.8,1.6-3.9-0.1
			c-1.3-2,0.3-3.1,1.8-3.8c6.5-3.3,13.1-6.5,19.6-9.7C167.6-611.4,169.2-611.2,169.7-608.8z"/>
		<path class="st0" d="M38.7-409.3c0,3.6,0,7.3,0,10.9c0,1.5-0.3,2.8-1.9,3c-2,0.3-2.6-1.3-2.6-2.8c-0.1-7.5-0.1-14.9-0.1-22.4
			c0-1.6,0.6-3.2,2.5-3c1.8,0.1,2.1,1.7,2.1,3.4C38.6-416.6,38.6-413,38.7-409.3C38.6-409.3,38.7-409.3,38.7-409.3z"/>
		<path class="st0" d="M128-236c7,4.4,14.3,8.9,21.5,13.6c0.7,0.5,0.7,1.8-0.1,2.7c-0.8,0.8-1.8,0.9-2.7,0.4
			c-7-3.7-13.7-8-20.2-12.6c-1-0.7-1.5-1.8-0.9-3C126-235.8,126.8-236.1,128-236z"/>
		<path class="st0" d="M454.7-489.6c0,1.4-0.1,2.4-1.3,2.8c-1.3,0.4-2.3,0.1-2.9-1.2c-3.3-7.2-6.6-14.5-9.9-21.7
			c-0.6-1.2-0.1-2.3,1.2-2.9c1.1-0.5,2-0.1,2.6,0.8C448.5-504.7,451.8-497.1,454.7-489.6z"/>
		<path class="st0" d="M427.7-282.1c-0.3,0.6-0.8,1.5-1.4,2.2c-4.4,5.4-8.9,10.8-13.3,16.1c-1.1,1.3-2.4,2.8-4.1,1.2
			c-1.8-1.6-0.2-3,0.8-4.2c4.4-5.4,8.9-10.8,13.3-16.2c0.9-1,1.7-2.2,3.2-1.8C427.2-284.5,427.7-283.6,427.7-282.1z"/>
		<path class="st0" d="M127.8-586.5c-0.1,2.8-1.2,3.4-2.1,4.1c-5.4,4.4-10.8,8.8-16.2,13.2c-1.3,1.1-2.7,2.3-4.2,0.5
			c-1.3-1.6-0.1-2.8,1.1-3.8c5.6-4.6,11.3-9.2,17-13.7c0.9-0.8,2-1.3,3.2-0.8C127.4-586.7,127.8-586,127.8-586.5z"/>
		<path class="st0" d="M92.2-552.6c-0.4,0.6-0.8,1.5-1.4,2.2c-4.3,5.5-8.6,10.9-12.9,16.4c-1,1.3-2.1,2.9-4,1.6
			c-1.9-1.4-0.7-2.9,0.3-4.2c4.4-5.6,8.8-11.2,13.2-16.8c0.9-1.1,1.8-2,3.4-1.5C91.7-554.6,92-553.8,92.2-552.6z"/>
		<path class="st0" d="M395.6-573.2c-0.3,1.9-1.6,3.2-3,2.1c-6.7-4.9-13.2-10-19.7-15.2c-0.8-0.6-0.9-1.8-0.2-2.7
			c0.7-0.9,1.7-1.3,2.6-0.7c7,4.5,13.5,9.7,19.6,15.2C395.2-574.1,395.4-573.6,395.6-573.2z"/>
		<path class="st0" d="M110.7-249.1c-0.1,1-0.4,1.7-1.3,2.1c-1,0.4-1.9,0.1-2.7-0.6c-5.9-5.1-11.4-10.6-16.5-16.5
			c-0.8-0.9-1.2-2.1-0.2-3.1c0.9-1.1,2.1-1.1,3.1-0.2c5.8,5.7,11.5,11.4,17.2,17.2C110.6-250,110.6-249.5,110.7-249.1z"/>
		<path class="st0" d="M149.5-291.8c-1.3,0-2.2-0.4-2.5-1.5c-0.5-1.7,0.7-2.4,1.9-3.1c4.4-2.4,8.8-4.6,13.2-6.9
			c4.7-2.4,9.4-4.9,14.1-7.3c1.4-0.7,3-1.3,4,0.4c1.2,2.1-0.6,3-2.1,3.7c-8.8,4.6-17.6,9.2-26.4,13.8
			C150.9-292.3,150.1-292,149.5-291.8z"/>
		<path class="st0" d="M315.3-311c0.6,0.3,1.8,0.8,3,1.4c8.1,4.2,16.2,8.4,24.3,12.7c1.5,0.8,4,1.4,2.9,3.8
			c-1.1,2.4-3.1,1.2-4.7,0.4c-8.7-4.5-17.4-9-26.1-13.5c-1.3-0.7-2.8-1.4-2.4-3.3C312.5-310.7,313.4-311.3,315.3-311z"/>
		<path class="st0" d="M180.5-320.7c-0.6,1.9-2,2.3-3.5,1.5c-9.6-4.9-19.2-9.9-28.8-14.9c-1.1-0.6-1.7-1.6-1-2.9
			c0.7-1.3,1.9-1.4,3-1c1.7,0.7,3.3,1.5,4.9,2.4c7.4,3.8,14.8,7.7,22.1,11.5C178.7-323.3,180.4-322.7,180.5-320.7z"/>
		<path class="st0" d="M345.7-336.4c-0.3,2.1-1.7,2.6-2.8,3.2c-8.5,4.5-17.1,8.9-25.7,13.3c-1.6,0.8-3.5,2.2-4.8-0.1
			c-1.3-2.4,1.2-3.1,2.7-3.9c8.5-4.5,17.1-8.9,25.6-13.3C342.9-338.3,344.8-338.9,345.7-336.4z"/>
		<path class="st0" d="M152-458.9c0.2,3.9-1.7,8.1-5.2,11.5c-1.2,1.2-2.6,3.3-4.6,1.4c-2-1.9,0.1-3.1,1.3-4.4
			c4.9-5.3,5.5-12,1.6-17.2c-4.2-5.8-11.6-7-18.2-3c-1.5,0.9-3,2.9-4.6,0.5c-1.4-2.2,0.7-3.3,2.2-4.3c5.7-3.8,11.8-4.4,17.9-1.2
			C148.8-472.4,152.1-467.1,152-458.9z"/>
	</g>
</g>
<g>
	<path class="st0" d="M562.6-175.4c0.7,0.2,1.4,0.4,2.1,0.6c7.3,2.1,14.4,4.8,21.2,8.2c5,2.5,10.3,3.8,15.9,3.8
		c8.8,0,17.6,0.1,26.4,0.3c5.9,0.2,11.5-0.8,16.9-3c1.6-0.7,3.3-1.2,4.9-1.8c2.3-0.7,4.8,0,6.3,1.8c1.5,1.8,1.8,4.5,0.6,6.5
		c-0.6,0.9-1.5,1.7-2.3,2.6c0.1,0.1,0.3,0.3,0.5,0.4c2.2,1.9,3.1,4.8,2.2,7.6c-0.9,2.7-3.3,4.6-6.2,4.8c-0.4,0-0.8,0-1.3,0
		c-8.3,0-16.5,0-24.8,0c-0.5,0-1.1,0.2-1.5,0.5c-2.1,1.4-4,3-5.3,5.3c-0.4,0.7-0.7,1.5-0.9,2.3c-0.6,1.8-0.2,3.4,1.1,4.7
		c1,1,2.2,1.9,3.3,2.8c1.1,0.8,2.3,1.5,3.4,2.2c4.6,3.1,5.6,9.4,2.1,13.7c-0.4,0.5-0.9,1.1-1.3,1.6c-0.7,0.8-1.2,0.9-2.1,0.3
		c-3.2-2.1-6.4-4.2-9.5-6.4c-4.6-3.3-9.7-5.2-15.3-5.8c-3.7-0.4-6.9-2.1-9.3-4.9c-1.8-2.1-3.6-4.2-5.4-6.2c-1.6-1.9-3.7-2.8-6.2-2.8
		c-7.7-0.1-15.5-0.2-23.2-0.5c-10.5-0.5-20.9-1.4-31.3-3.6c-2-0.4-4-1-5.9-1.5c-0.9-0.2-1.4-0.9-1.2-1.6c0.2-0.7,0.9-1,1.8-0.7
		c7.1,2,14.4,3.1,21.7,3.8c12.7,1.3,25.5,1.7,38.2,1.7c3.1,0,5.7,1.2,7.8,3.5c1.6,1.9,3.3,3.7,4.8,5.6c2.4,3,5.5,4.6,9.3,5
		c5.5,0.6,10.5,2.6,15,5.7c2.9,2,5.8,4,8.8,5.9c0.2,0.1,0.4,0.2,0.6,0.4c3.4-2.9,3.2-8.3-0.4-10.9c-1.6-1.1-3.3-2.2-5-3.3
		c-0.4-0.3-0.8-0.6-1.2-1c-3.4-3-4.1-6.4-2.1-10.4c1.1-2.2,2.7-4,4.6-5.5c3.4-2.7,7.3-4.6,11.4-6.2c5-1.9,10-3.7,14.9-5.7
		c2.4-0.9,4.6-2.1,6.8-3.4c1.7-1,2.2-2.8,1.4-4.4c-0.8-1.6-2.6-2.3-4.5-1.7c-3.1,1.1-6.3,2.3-9.5,3.3c-4.5,1.4-9.2,1.5-13.9,1.4
		c-8.4-0.2-16.9-0.2-25.3-0.3c-6,0-11.7-1.4-17-4.1c-11.5-5.8-23.6-9.6-36.3-11.5c-8.5-1.3-17.1-1.6-25.6-0.8
		c-1.7,0.2-3.4,0.4-5.1,0.7c-0.9,0.1-1.5-0.2-1.7-0.9c-0.1-0.8,0.3-1.3,1.2-1.5c1.8-0.3,3.5-0.5,5.3-0.7c0.3,0,0.7-0.1,1.1-0.1
		c-1.3-2.1-0.3-4.2,0.1-6.2c0.9-5.2,1.9-10.3,2.8-15.5c0.4-2.1,1.5-3.8,3.4-5c5.6-3.4,11.2-6.9,16.8-10.3c3-1.9,6.4-2.8,9.9-3.2
		c8.3-1.1,16.6-2.3,24.9-3.4c2.8-0.4,5.5-0.8,8.3-1.2c0.4-0.1,0.7-0.1,1.1-0.3c21.6-8.5,43.2-16.9,64.8-25.4c0.1,0,0.2-0.1,0.4-0.1
		c0.8-0.2,1.4,0,1.7,0.6c0.2,0.6-0.1,1.3-0.8,1.6c-0.8,0.3-1.7,0.7-2.5,1c-20.9,8.2-41.8,16.4-62.7,24.5c-1.7,0.6-3.6,0.7-5.4,1
		c-7.1,1-14.2,2-21.3,2.9c-3.5,0.5-7,1-10.5,1.5c-2.4,0.4-4.6,1.3-6.6,2.6c-5.4,3.3-10.7,6.6-16.1,9.8c-1.7,1-2.6,2.4-3,4.3
		c-1.1,6-2.2,12-3.3,18c-0.2,1,0.1,1.6,1.1,2c2.5,1.1,5.5-0.4,6.2-3.1c1.2-4.2,2.3-8.5,3.5-12.7c0.2-0.6,0.5-1.1,1.1-1.4
		c2.3-1.4,4.6-2.8,6.9-4.1c3-1.7,6.1-2.1,9.5-1.2c5.2,1.3,10.4,2.6,15.6,3.8c0.3,0.1,0.7,0,1.1-0.1c4.2-1.4,8.4-2.8,12.6-4.2
		c0.2-0.1,0.3-0.1,0.5-0.1c0.8-0.2,1.4,0.1,1.6,0.7c0.2,0.6-0.1,1.3-0.9,1.5c-2.2,0.7-4.3,1.4-6.5,2.2c-3.3,1.1-6.5,2.2-9.8,3.3
		c-0.3,0.1-0.7,0.3-1,0.5c-4.4,3.8-8.8,7.6-13.1,11.4c-1.7,1.5-1.6,3.2,0.3,4.4c3.3,2.2,7.6,2,10.8-0.5c2.7-2.2,5.3-4.4,7.9-6.6
		c0.6-0.5,1.2-0.7,2-0.6c2.1,0.2,4.2,0.4,6.3,0.5c10.2,0.9,18.4-2.8,24.4-11.2c1.5-2,3.3-3.4,5.7-4c14.9-3.7,29.8-7.3,44.7-11
		c1.2-0.3,2,0.4,1.9,1.2c-0.1,0.7-0.6,1-1.2,1.1c-2.9,0.7-5.7,1.4-8.6,2.1c-12,3-24.1,5.9-36.1,8.9c-1.8,0.4-3.2,1.4-4.2,2.9
		c-4.9,7-11.5,11.1-20,12.3c-3,0.4-6,0.1-9-0.1c-1.2-0.1-2.4-0.2-3.6-0.3c-0.3,0-0.7,0.1-1,0.3c-2.2,1.8-4.3,3.5-6.4,5.3
		C566-177.3,564.5-176.2,562.6-175.4z M551.3-178.1c0,0,0-0.1-0.1-0.1c-1.8-2.5-1.5-5,0.8-7c4.3-3.7,8.6-7.5,12.9-11.2
		c0.2-0.2,0.5-0.2,0.7-0.3c-0.1-0.1-0.2-0.2-0.2-0.3c-0.2-0.1-0.3-0.1-0.5-0.2c-4.2-1-8.4-2.1-12.7-3.1c-1-0.2-2-0.1-3.1-0.2
		c-0.7,0-1,0.4-1.1,1c-1.2,4.2-2.4,8.5-3.6,12.7c-0.8,2.8-2.6,4.5-5.5,5c-1.1,0.2-2.3-0.1-3.5-0.1c-0.2,0-0.6,0-0.7,0.2
		c-0.4,0.7-0.7,1.4-1,2C539.6-179.2,545.5-178.6,551.3-178.1z M629.1-146c0,0.1,0,0.1,0.1,0.2c0.1,0,0.2,0,0.2,0
		c7.1,0,14.2,0,21.3,0c2,0,3.9-1.5,4.4-3.5c0.5-2-0.4-4.2-2.3-5.2c-0.6-0.3-1.2-0.5-1.9-0.1c-0.4,0.3-0.9,0.5-1.4,0.7
		c-5,1.9-10.1,3.8-15.1,5.7C632.7-147.5,630.9-146.8,629.1-146z M545.4-199c0,0-0.1-0.1-0.1-0.1c-2.1,1.2-4.1,2.5-6.2,3.7
		c-0.3,0.2-0.6,0.6-0.8,1c-0.9,3.1-1.7,6.1-2.5,9.2c-0.1,0.3-0.1,0.6-0.2,0.8c3,1.1,5.6-0.3,6.5-3.2c0.4-1.4,0.8-2.7,1.2-4.1
		C544-194.1,544.7-196.6,545.4-199z"/>
	<path class="st0" d="M539.2-122.3c0-2.2,0-4.4,0-6.6c0-1,0.5-1.5,1.2-1.5c0.7,0,1.2,0.5,1.2,1.5c0,4.4,0,8.8,0,13.2
		c0,1.1-0.8,1.7-1.7,1.4c-0.6-0.3-0.7-0.8-0.7-1.4C539.2-117.9,539.2-120.1,539.2-122.3z"/>
	<path class="st0" d="M533.5-128.8c0,0.2-0.1,0.4-0.2,0.6c-0.8,2.5-1.7,5.1-2.5,7.6c-0.1,0.4-0.4,0.8-0.7,1
		c-0.3,0.1-0.9,0.1-1.2-0.1c-0.6-0.3-0.6-0.9-0.4-1.5c0.6-1.8,1.2-3.6,1.8-5.4c0.3-0.9,0.6-1.8,0.9-2.7c0.2-0.6,0.8-0.8,1.4-0.7
		C533.2-129.9,533.4-129.5,533.5-128.8z"/>
	<path class="st0" d="M548.9-130.1c0.5,0,0.9,0.3,1.1,0.9c0.7,2.6,1.4,5.1,2.1,7.7c0.2,0.7-0.2,1.3-0.8,1.5
		c-0.7,0.2-1.3-0.1-1.5-0.8c-0.7-2.6-1.4-5.2-2.1-7.7C547.4-129.4,548-130.1,548.9-130.1z"/>
	<path class="st0" d="M533.6-170.2c0.4,0.3,0.8,0.4,1.1,0.7c1.2,1.5,2.4,2.9,3.6,4.4c0.5,0.6,0.4,1.3-0.1,1.8
		c-0.5,0.4-1.3,0.4-1.8-0.2c-1.2-1.5-2.5-3-3.6-4.5c-0.2-0.3-0.3-0.9-0.1-1.3C532.7-169.7,533.2-169.9,533.6-170.2z"/>
	<path class="st0" d="M537.8-156.9c0.4,0.3,0.8,0.5,1.1,0.8c1.2,1.4,2.4,2.9,3.5,4.3c0.5,0.6,0.5,1.4-0.1,1.8
		c-0.6,0.5-1.3,0.3-1.8-0.3c-1.2-1.5-2.4-2.9-3.5-4.4c-0.2-0.3-0.3-1-0.2-1.4C536.9-156.4,537.4-156.6,537.8-156.9z"/>
	<path class="st0" d="M560.6-163c0.4,0.3,0.8,0.4,1,0.7c1.2,1.4,2.4,2.9,3.6,4.4c0.5,0.7,0.5,1.4-0.1,1.8c-0.5,0.4-1.2,0.3-1.7-0.3
		c-1.2-1.5-2.4-2.9-3.6-4.5c-0.2-0.3-0.3-1-0.1-1.4C559.7-162.6,560.2-162.7,560.6-163z"/>
	<path class="st0" d="M550.7-163.7c-0.2,0.5-0.4,0.8-0.6,1.1c-1,1.3-2,2.6-3,3.8c-0.5,0.7-1.3,0.9-1.9,0.4c-0.6-0.4-0.6-1.2-0.1-1.9
		c1-1.3,2.1-2.7,3.1-4c0.4-0.5,0.9-0.7,1.4-0.4C550.1-164.4,550.4-164,550.7-163.7z"/>
	<path class="st0" d="M526.1-155.1c-1.2,0-1.8-1-1.2-1.8c1.1-1.5,2.3-3,3.5-4.5c0.4-0.5,1.1-0.5,1.6-0.1c0.5,0.4,0.7,1,0.3,1.6
		c-1.1,1.5-2.3,3-3.5,4.4C526.6-155.2,526.2-155.1,526.1-155.1z"/>
	<path class="st0" d="M557.5-153.4c-0.2,0.4-0.4,0.8-0.6,1c-1,1.3-2,2.6-3,3.9c-0.6,0.7-1.3,0.8-1.9,0.4c-0.5-0.4-0.6-1.2-0.1-1.8
		c1-1.3,2.1-2.7,3.1-4c0.4-0.5,0.9-0.7,1.5-0.4C557-154.2,557.2-153.8,557.5-153.4z"/>
</g>
<g>
	<path class="st0" d="M562.5-406.8c0.7,0.6,1.2,1.3,2,1.8c11.8,7.9,24.6,13.6,38.4,16.6c5.2,1.1,10.5,1,15.8,0.7
		c1.6-0.1,3.3-0.2,4.9-0.1c1.1,0,2.2,0.3,3.7,0.6c-0.7,1.1-1.2,1.8-1.8,2.4c-0.9,0.9-1.9,1.7-3,2.4c-4.7,3.2-8.2,7.4-10.7,12.5
		c-6.2,12.6-12.3,25.2-18.6,37.8c-2.1,4.2-4.4,8.2-6.7,12.3c-0.9,1.6-0.7,3,0.5,3.8c1.3,0.8,2.8,0.5,3.7-1.2
		c3.5-6.4,6.9-12.8,10.2-19.4c5.1-10.2,10.1-20.6,15.2-30.8c2.2-4.5,5.2-8.2,9.4-11.1c1.6-1.1,3-2.3,4.3-3.7
		c1.7-1.9,2.6-4.1,1.7-6.7c-0.9-2.4-3.1-3.3-5.4-3.7c-1.3-0.2-2.6-0.4-3.9-0.2c-16,1.9-30.6-2.9-44.5-10.1
		c-3.6-1.9-7.1-4.1-10.6-6.3c-2.3-1.4-3.1-1.3-4.7,0.7C562.5-407.9,562.5-407.4,562.5-406.8z"/>
	<path class="st0" d="M680.9-396c0.1-7.6-2.9-14.3-10.3-18.6c-1.4-0.8-2.9-1.4-4.1-2.4c-1.9-1.5-4-3-5.2-4.9
		c-8.4-13.9-20.7-23.1-35.5-29c-8-3.2-16.3-5.9-24.4-8.7c-1.7-0.6-3.1,0-3.6,1.5c-0.5,1.4,0.3,2.6,2.1,3.3
		c7.8,2.8,15.6,5.3,23.3,8.3c9.3,3.7,18,8.6,24.9,16c2.9,3,5.5,6.4,7.8,9.9c2.5,3.7,5.4,6.7,9.3,8.9c0.7,0.4,1.5,0.8,2.2,1.2
		c6.4,3.7,9.2,9.4,8.3,16.8c-0.7,6.1-2.9,11.6-6.1,16.8c-6.2,9.8-13.8,18.5-21.6,26.9c-11.6,12.4-23.9,24.1-36.7,35.3
		c-0.2,0.2-0.4,0.4-0.6,0.6c-1.1,1.1-1.2,2.6-0.3,3.6c0.9,1,2.3,1.1,3.5,0.1c1.2-1,2.4-2,3.6-3.1c16.2-14.5,31.8-29.5,45.8-46.3
		c4.8-5.8,9.3-11.8,12.9-18.5C678.9-383.6,680.5-389.3,680.9-396z"/>
	<path class="st0" d="M594.2-444.1c-1.7-0.1-2.8,0.8-2.9,2.1c-0.2,1.3,0.7,2.4,2.2,2.7c5.1,1.2,10.4,2.1,15.4,3.6
		c14.6,4.5,26.5,12.7,34.7,25.8c1,1.6,2.4,1.9,3.7,1.1c1.3-0.9,1.4-2.2,0.4-3.9c-7.9-12.6-19.1-21-32.8-26.3
		C608-441.4,601.1-443.1,594.2-444.1z"/>
	<path class="st0" d="M703.9-371.5c3-1.1,5.8-2.2,9-3.3c-8.9-4.2-17.5-8.2-26.1-12.3c4.1,4.3,8.2,8.5,12.4,12.9
		c-2.5,1.2-5,2.4-7.8,3.8c8.3,4.2,16.3,8.2,24.4,12.3c0.1-0.1,0.2-0.2,0.2-0.3C711.9-362.8,708-367.1,703.9-371.5z"/>
	<path class="st0" d="M699.7-421.2c-0.1,2.9-0.3,5.6-0.4,8.7c7.5-5.2,14.7-10.2,22-15.2c0-0.1-0.1-0.2-0.1-0.3
		c-5.6,1.4-11.1,2.7-16.9,4.2c0.4-3,0.8-5.9,1.3-9.2c-7.8,5.5-15.3,10.8-22.8,16.1c0,0.1,0.1,0.2,0.1,0.3
		C688.4-418.1,693.9-419.6,699.7-421.2z"/>
	<path class="st0" d="M709.5-387.8c8.6-0.4,16.8-0.8,25-1.2c0-0.1,0.1-0.2,0.1-0.3c-5.1-1.7-10.2-3.4-15.5-5.1
		c1.8-2.3,3.5-4.4,5.5-6.9c-9,0.6-17.6,1.3-26.2,1.9c0,0.1,0,0.2-0.1,0.3c5.2,1.5,10.4,3,15.8,4.6
		C712.6-392.3,711.2-390.2,709.5-387.8z"/>
	<path class="st0" d="M667.5-391c0.1-2.9-1-5.5-2.7-7.8c-0.7-0.9-1.5-1.4-2.6-0.7c-1,0.7-0.8,1.6-0.2,2.5c2.7,3.6,2.8,7.4,0.7,11.4
		c-0.5,1-0.7,2,0.4,2.6c1.2,0.7,2.1,0,2.5-1.1c0.8-2.2,1.5-4.5,2.3-6.8C667.8-390.9,667.7-390.9,667.5-391z"/>
</g>
<g>
	<path class="st0" d="M-370.6-554.3c6.5,3,8.7,8.1,8.3,15.1c-0.4,7.5,0.1,15-0.1,22.4c-0.7,21.3,1.5,23.8,23,23.2
		c15.2-0.4,30.2,1.6,44.5,6.6c55,19.1,88.8,57.3,98.4,114.6c12.8,76.8-40.1,149.4-117,162.5c-8.4,1.4-17.1,2-25.7,2.1
		c-19.3,0.3-38.7,0.1-58,0.1c-8.8,0-13.1,4.3-13.1,13.1c0,4.1,0.1,8.2,0,12.3c-0.2,6.4-4.8,11.2-11.2,11.2c-20,0.1-39.9,0.1-59.9,0
		c-6.5,0-11.2-4.9-11.3-11.5c0-19.6-0.6-39.2,0.2-58.7c1.1-28.1,12.2-52,33.3-70.8c14.5-12.9,25.1-27.9,29-47.2
		c2.8-13.6,1.7-27-2.2-40.3c-3.9-13.1-7.7-26.3-11-39.5c-1.3-5.1-1.3-10.6-1.3-16c-0.1-28.1,0.1-56.1-0.2-84.2
		c-0.1-7,1.9-12.1,8.3-15.1C-414.5-554.3-392.6-554.3-370.6-554.3z M-433-193.7c0.1-0.6,0.2-1,0.2-1.3
		c-0.8-18.9,14.5-35.9,36.6-35.3c19.1,0.6,38.2,0.4,57.3,0c8.6-0.2,17.3-0.7,25.6-2.5c66.2-13.7,108-78.8,93.2-144.8
		c-10.4-46.4-48.8-83.5-95.3-91.3c-11.7-2-23.8-1.9-35.8-2.3c-16.6-0.5-30.4-11.8-33-28.1c-0.9-5.4-0.5-10.9-0.6-16.4
		c-0.1-5.3,0-10.6,0-15.9c-12.7,0-25,0-37.3,0c0,0.9-0.1,1.5-0.1,2.1c0,25.7,0,51.4,0.1,77.1c0,3.8,0.2,7.8,1.2,11.5
		c3.2,12,6.8,23.9,10.4,35.9c6.1,20.4,6.1,40.8-0.4,61.1c-5.7,17.9-15.6,33.1-29.8,45.3c-19.9,17.1-29.7,38.6-29.4,64.8
		c0.2,12.1,0,24.2,0,36.3c0,1.2,0,2.4,0,3.8C-457.6-193.7-445.5-193.7-433-193.7z"/>
	<path class="st0" d="M-226.8-554.3c8.9,5.3,9.1,6.3,5.4,24.7c1.4,0,2.7-0.1,3.9,0c7.2,0.4,12.1,6.7,10.5,13.8c-1.8,8-3.8,16-6,23.9
		c-1.8,6.5-7.8,10-13.8,8.3c-6.2-1.7-9.4-7.5-7.9-14c0.7-3,1.4-6,2.3-9.6c-1.6,0-2.9,0.1-4.2,0c-6.8-0.5-11.7-6.7-10.3-13.3
		c1.9-8.5,4.1-16.9,6.1-25.4c1-4.2,4.3-6.5,7.8-8.4C-230.8-554.3-228.8-554.3-226.8-554.3z"/>
	<path class="st0" d="M-172.5-453.1c-1.9-0.1-3.2-0.1-4.6-0.2c-6.7-0.8-11.3-6.8-9.9-13.3c1.9-8.3,3.9-16.5,6.2-24.6
		c1.7-6.2,7.9-9.6,13.7-7.9c6,1.7,9.4,7.5,8,13.7c-0.7,3.2-1.5,6.3-2.3,9.4c0.4,0.2,0.6,0.4,0.8,0.4c11.6,0.6,15.5,6,12.7,17.1
		c-1.7,6.5-3.2,13.1-4.9,19.6c-1.8,7.1-7.5,11-13.7,9.5c-6.6-1.6-9.8-7.5-8-14.9C-173.9-447.2-173.2-450-172.5-453.1z"/>
	<path class="st0" d="M-361.5-255.6c-9,0-18,0-26.9,0c-10.2,0-18.2-4.1-23.2-13.1c-5-9-4.2-17.9,1.3-26.6
		c3.9-6.1,7.7-12.2,11.5-18.4c9.3-15.1,13.9-31.6,14-49.3c0-15.8,0-31.7,0-47.5c0-20.8,14.4-35,35.3-35.3
		c15.3-0.2,30.3,0.6,44.9,5.9c39.1,14.3,65.5,55.2,61.8,95.9c-4.1,44.6-36.2,80.4-78.8,86.7c-13.1,1.9-26.6,1.6-39.9,2.3
		C-361.4-255.2-361.5-255.4-361.5-255.6z M-362.4-369.2c0,2,0,3.7,0,5.4c0.1,22.8-5.9,43.8-18,63.1c-3.5,5.6-7,11.2-10.5,16.8
		c-2.5,4.2-1.6,5.8,3.4,5.8c16.5,0,32.9,0.1,49.4,0c36-0.2,65.8-25.2,72-60.7c1-6,0.9-12.2,1.3-18.6c-2.3,0-3.5,0-4.8,0
		c-17.1,0.5-33.8-1.9-50.1-7.3C-333.3-369.3-347.5-369.9-362.4-369.2z M-362.3-391.7c14.8-0.5,29,0.2,42.9,3.7
		c9.2,2.3,18.2,5.1,27.5,6.9c6.6,1.2,13.4,1.1,20.9,1.6c-6.4-14-15.4-24.2-27.1-32.1c-16.7-11.1-35.3-12.7-54.6-11.5
		c-5,0.3-9.2,4.7-9.5,9.7C-362.6-406.4-362.3-399.3-362.3-391.7z"/>
	<path class="st0" d="M-290.5-332.8c0.1,6.1-4.9,11.2-11,11.4c-6.2,0.1-11.5-5.1-11.5-11.3c0-6.1,5.1-11.1,11.2-11.2
		C-295.7-343.9-290.6-338.9-290.5-332.8z"/>
	<path class="st0" d="M-343.7-320c6.1,0,11.2,5,11.3,11.1c0.1,6.2-5.2,11.4-11.4,11.3c-6.1-0.1-11.1-5.2-11.1-11.3
		C-354.8-314.9-349.7-319.9-343.7-320z"/>
</g>
</svg>
