<?xml version="1.0" encoding="utf-8"?>
<!-- Generator: Adobe Illustrator 24.3.0, SVG Export Plug-In . SVG Version: 6.00 Build 0)  -->
<svg version="1.1" id="Layer_1" xmlns="http://www.w3.org/2000/svg" xmlns:xlink="http://www.w3.org/1999/xlink" x="0px" y="0px"
	 viewBox="0 0 150 150" style="enable-background:new 0 0 150 150;" xml:space="preserve">
<style type="text/css">
	.st0{fill:#075CAA;}
</style>
<g>
	<path class="st0" d="M27.8,49.8c5,0,10,0.1,15,0.1c5,0,8.1,2.3,9.5,7.1c2.3,8,4.5,15.9,6.7,23.9c0.5,1.9,0.1,3.6-1.4,4.8
		C56,87,54.3,87,52.6,86.1c-0.3-0.2-0.6-0.6-1.1-0.3c-1.7,1.3-3.5,1.1-5.5,0.1c0,0.8,0,1.4,0,2c0,10.8,0,21.6,0,32.4
		c0,0.6-0.1,1.1-0.1,1.7c-1.2,3.9-4.2,5.5-8,4.1c-0.3-0.1-0.6-0.3-1-0.1c-2.5,1.4-5.2-0.1-7.8,0.6c-0.2,0.1-0.5,0-0.8-0.1
		c-1.2-0.5-2.2-0.4-3.5,0c-3.4,1-6.8-1.7-6.9-5.3c-0.1-2.2,0-4.4,0-6.6c0-9.5,0-18.9,0-28.5c-1.3,0.5-2.6,1.2-3.9,0.7
		c-1.4-0.6-2.5-0.6-4-0.1c-3.1,1.1-6-1.9-5.2-5.2c2.3-8.4,4.6-16.8,7-25.2c1.1-3.7,4.5-6.1,8.5-6.2C22.9,49.9,25.3,49.9,27.8,49.8z
		 M35.8,120.6c0.1,0.4,0.2,0.9,0.3,1.3c0.2,0.6,0.5,1.5,1.1,1.5c0.7,0,0.8-1,1.1-1.7c0-0.1,0.1-0.3,0.1-0.5c0.1-1.9,0.1-3.8-0.1-5.7
		c0-0.7,0.1-1.3,0.1-2c0-16.9,0-33.8,0-50.7c0-0.6-0.3-1.5,0.7-1.7c1-0.1,0.9,0.8,1.1,1.4c0.7,2.2,1.3,4.3,1.9,6.5
		c0.7,2.4,1.4,4.9,2.2,7.3c0.3-4.6,0.3-9.2,0.3-13.7c0-0.5-0.2-1.3,0.4-1.4c1.4-0.2,0.7-0.9,0.6-1.5c-0.3-1-0.6-2.1-0.9-3.1
		c-1-3.2-3.7-5.3-7.1-5.3c-1.8,0-3.7-0.1-5.5,0c-2.2,0.1-4.4-0.3-6.6,0.2c-2.3,0.3-4,1.5-5.2,3.4c-1.1,1.7-1.3,3.8-1.9,5.7
		c0,0.2-0.2,0.5,0.1,0.5c1.7,0.1,1.1,1.4,1.1,2.2c0.1,4.3,0,8.6,0,12.8c0.1,0,0.2,0,0.3,0.1c0.3-1.4,0.7-2.7,1-4.1
		c1.2-3,1.8-6.2,2.8-9.2c0.2-0.6,0-1.8,1.2-1.6c1,0.2,0.6,1.2,0.6,1.8c0,7.6,0,15.1,0,22.7c0,4.9,0,9.8,0,14.6c0,0.5,0,1,0,1.6
		c0,0.2,0,0.4,0,0.6c0,0.5,0,1,0,1.6c0,0.2,0,0.4,0,0.6c0,5.5,0,10.9,0,16.4c0,0-0.1,0.1,0,0.1c0,0.1,0.1,0.2,0.1,0.3
		c0.2,0.8,0.3,1.8,1,1.9c0.7,0,1-1,1.3-1.7c0.2-0.5,0.3-1,0.3-1.5c0-5.5,0-11.1,0-16.6c0-4.7,0-9.5,0.1-14.2c0-0.4,0-0.7,0-1.1
		c0-0.4,0.2-0.7,0.7-0.7c0.5,0,0.8,0.3,0.8,0.7c0,0.4,0,0.8,0,1.2c0,5.7,0,11.4,0,17.1c0,4.6,0,9.1,0,13.7c0,1.4,1.5,4,2.1,3.8
		c1.4-0.5,2-1.8,2.2-3.2c0.3-0.4,0.2-0.8,0.1-1.3c0-2.3,0-4.5,0-6.8c0-0.1,0-0.2,0-0.3c0-0.3,0-0.6-0.1-0.9c0-0.6,0.1-1.1,0.1-1.7
		c0-6.8,0-13.6,0-20.4c0-0.7-0.5-2,0.7-2c1.1,0,0.7,1.3,0.7,2c0.1,8,0.1,16,0.1,24c0,0.3,0,0.6,0,0.8
		C35.6,116.6,35.5,118.6,35.8,120.6z M20.4,79.5c-0.7,1.7-1,3.5-1,5.4c0,11.5,0,23,0,34.5c0,0.7,0,1.4,0.1,2.2c0.4,2.3,2.9,4,5,3.4
		c0.6-0.2,0.8-0.3,0.4-0.9c-0.9-1.3-1-2.9-1-4.4c0-5.5,0-11,0-16.5c0-2.9-0.1-5.9-0.1-8.8c0-0.4,0.1-0.7,0.1-1.1
		c0-8.2,0-16.3,0-24.5c0-0.2,0.1-0.4-0.3-0.5C22.5,72,21.5,75.8,20.4,79.5z M40,117.8c-0.2,2.2,0.4,4.5-1.2,6.5
		c-0.3,0.4,0.1,0.5,0.4,0.6c0.6,0.2,1.2,0.2,1.8,0.1c2.3-0.6,3.3-2.2,3.4-4.4c0-0.3,0.1-0.5,0.1-0.8c0-12.1,0-24.2,0-36.2
		c0-0.7-0.2-1.3-0.3-2c-1-3.5-2-7.1-3.1-10.6c-0.3-1-0.4-2-1.1-3.1c0,5.6,0,11,0,16.4C39.9,95.5,39.9,106.6,40,117.8z M21.3,51.6
		c-3.9-0.3-6.9,1.7-8,5.2c-0.9,3-1.7,6-2.6,9C9.3,71,7.9,76.1,6.4,81.3c-0.5,1.9,0.2,3.4,2,3.9c1.6,0.4,2.6-0.4,2.4-2
		c-0.1-0.8,0-1.6,0.3-2.4c2.1-7.6,4.3-15.2,6.3-22.8C18.1,55.5,19,53.3,21.3,51.6z M42.6,51.5c1.8,1.5,2.9,3.1,3.5,5.1
		c2.2,8.1,4.5,16.1,6.8,24.2c0.3,1,0.5,1.9,0.1,2.9c-0.2,0.6,0.1,1,0.6,1.2c1,0.5,2,0.5,2.9-0.1c1-0.7,1.5-1.7,1.1-3
		c-2.4-8.5-4.7-16.9-7.1-25.3C49.5,53.2,46.5,51.4,42.6,51.5z M17.9,68.1c-0.1,0-0.2,0-0.3-0.1c-1.5,5.2-3,10.4-4.6,15.6
		c-0.2,0.7,0.2,0.9,0.7,1.2c2,1.1,4.2-0.4,4.2-3C18,77.3,17.9,72.7,17.9,68.1z M46.3,68.3c-0.1,0-0.2,0-0.3,0c0,0.7,0,1.3,0,2
		c0,3.9,0,7.8,0,11.7c0,2.6,2.3,4,4.2,2.9c0.5-0.3,0.8-0.5,0.6-1.2C49.3,78.5,47.8,73.4,46.3,68.3z M28.9,123.2
		c-0.3,0.6-1.2,1.1-0.8,1.5c0.4,0.5,1.3,0.6,2.2,0.3C29.8,124.3,29.4,123.8,28.9,123.2z M33.6,125c0.9,0.3,1.7,0.2,2.1-0.3
		c0.3-0.4-0.4-1-0.8-1.4C34.4,123.9,34.1,124.4,33.6,125z"/>
	<path class="st0" d="M80,129.2c-0.3-1.6-0.4-3.2-0.3-4.7c0-0.8-0.3-1-1-1.2c-7-1.6-10.1-8.9-6.3-15c0.4-0.6,0.5-1.2,0.5-1.9
		c0-5.4-0.1-10.9,0.1-16.3c0.4-9.3,8.3-17.1,17.6-17.3c10.7-0.2,21.5,0,32.2-0.1c1,0,1.6,0.3,1.4,1.4c0,0.3,0.1,0.7-0.1,0.9
		c-1.4,2.8,0.1,4.1,2.5,5.1c3.5,3.2,4.9,7.2,4.8,11.9c-0.1,4.7,0,9.4,0,14c0,0.8,0.2,1.4,0.6,2.1c3.9,5.9,0.7,13.6-6.2,15
		c-1,0.2-1.2,0.6-1.2,1.5c-0.2,9.2-5.4,16.3-13.8,18.4c-5.7,1.4-11.7,1.4-17.4,0c-6.8-1.7-11.1-6.3-13.1-13.1
		C80.2,129.8,80.1,129.5,80,129.2z M102.2,84.9c-2.8,0.1-5.6-0.2-8.4,0.6c-6.9,1.9-13,8.5-12.6,17.5c0.1,1.5-0.1,2.4-2,2.5
		c-3.9,0.4-6.8,4-6.9,7.9c-0.1,4.1,2.7,7.6,6.6,8.4c2.4,0.5,2.4,0.5,2.4,2.8c0,0.2,0,0.3,0,0.5c0.1,8.9,6.3,15.9,15.1,17.2
		c3,0.4,6.1,0.2,9.1,0.2c9.9,0,17.3-7,17.8-16.9c0.1-1-0.2-2.2,0.2-3c0.5-1.1,1.9-0.5,2.9-0.9c3.8-1.2,6.3-4.9,5.9-8.7
		c-0.4-4-3.5-7.2-7.6-7.5c-1.2-0.1-1.6-0.5-1.4-1.6c0.1-0.6,0-1.1,0-1.7c-0.3-7.4-3.8-12.7-10.6-15.9
		C109.2,84.7,105.7,84.9,102.2,84.9z M74.2,106c1.5-1,2.7-1.7,4.1-1.9c1.1-0.1,1.3-0.7,1.3-1.7c0.1-10.9,8.2-18.9,19-19
		c4.6,0,9.3,0.1,13.9,0c4.8-0.1,8.7-3.1,9.9-7.6c0.3-1.2,0.2-1.7-1.3-1.7c-10,0.1-19.9,0-29.9,0c-8,0-15,5.5-16.5,13.3
		C73.6,93.5,74.6,99.6,74.2,106z M129.9,105.8c0-1.6,0-2.9,0-4.1c-0.1-4.2,0.3-8.4-0.2-12.6c-0.4-3.9-2.4-6.9-5.9-8.9
		c-0.9-0.5-1.5-0.5-2.2,0.4c-1.5,2.1-3.6,3.3-6.1,3.9c-0.6,0.2-1.2,0.3-2,0.4c7.4,3.9,11.1,9.9,11,18c0,0.6,0.2,0.8,0.7,0.9
		C126.9,104.2,128.4,104.8,129.9,105.8z"/>
	<path class="st0" d="M111.7,39.9c-0.5,2.8-0.7,5.6-1.5,8.3c-1.5,5.5-3.5,9-7.1,12.1c2,0.6,4.1,0.7,6,1c0.8,0.1,2.2-0.2,2.1,0.9
		c-0.1,1.3-1.4,0.6-2.2,0.5c-10.6-1.3-20.8-4.1-30.9-7.8c-3.9-1.4-7.8-3-11.4-5.1c-1-0.6-2-1.2-2.9-1.8c-1.9-1.4-2.2-2.4-1.5-4.7
		c1-3.5,3.1-6.3,5.4-9.1c2.9-3.6,6.2-6.7,9.8-9.6c0.4-0.3,0.7-0.7,1.1-1.1c3.2-2.2,6.3-4.5,9.6-6.4c6.6-3.8,13.5-6.8,21-8.3
		c0.8-0.2,2.2-1.1,2.5,0.3c0.3,1.3-1.3,0.9-2.1,1.1c-2.3,0.6-4.7,1.1-7.1,2c0.8,0.7,1.6,1.2,2.3,1.8c3.2,3.2,4.6,7.2,5.7,11.4
		C111.7,30.3,111.8,35.1,111.7,39.9z M92.5,57.9c-7-13.6-6.8-27.1-0.8-40.8c-6.2,3.4-11.9,7.4-17,12.2c-3.8,3.6-7.4,7.4-9.8,12.2
		c-1.8,3.7-1.6,4.5,1.9,6.5c4.9,2.9,10.2,4.8,15.5,6.7C85.7,56,89.1,57,92.5,57.9z M110.3,36.3c-0.1-5.4-0.8-10.6-2.8-15.5
		c-1.1-2.5-2.4-4.9-4.8-6.5c-1-0.6-2-1.2-3.2-0.8c-2.9,0.9-5.3,2.4-6.7,5.3c-0.6,1.3-1.2,2.5-1.7,3.8c-2.6,7.2-2.9,14.7-1.7,22.2
		c0.7,4.2,1.9,8.3,4.4,11.9c2.3,3.3,7.8,4.5,10.7,0.3c0.8-1.2,1.7-2.4,2.3-3.7C109.4,47.9,110.1,42.1,110.3,36.3z"/>
	<path class="st0" d="M42.4,33.2c2,4.8,0.8,9.2-3.1,11.5c-1.7,1-3.6,1.4-5.5,1c-1.4-0.3-2.7-0.2-4.1,0.1c-6,0.3-9.4-4.4-9.3-8.8
		c0.2-5.1,5-8.9,10-7.9c1,0.2,1.9,0.2,2.8,0C37.2,28.4,40.2,30,42.4,33.2z M37.4,37.2c-0.1,2.8-1.2,5.1-3.5,7.1
		c3.1,0.2,5.3-0.8,6.8-3.1c1.4-2.1,1.7-4.5,0.4-6.8c-1.2-2.8-4-4.3-7-3.8C36.2,32.4,37.2,34.6,37.4,37.2z M35.9,37.4
		c0-2.3-1-4.1-2.8-5.6c-0.8-0.7-1.5-0.7-2.3,0c-2.5,1.9-3.5,5.3-2.3,8.3c0.7,1.6,1.7,3.3,3.3,3.4c1.7,0,2.7-1.8,3.5-3.3
		C35.7,39.2,35.9,38.4,35.9,37.4z M29.9,44.3c-2.3-2-3.4-4.2-3.4-7c0-2.7,1.3-4.8,3.4-6.8c-3.2-0.1-5.4,0.9-6.9,3.4
		c-1.5,2.4-1.4,4.9,0.1,7.3C24.6,43.4,26.7,44.5,29.9,44.3z"/>
	<path class="st0" d="M119.2,48.4c-0.4,0-0.8,0-1.2,0c-0.5,0-1,0-1.2-0.5c-0.2-0.6,0.3-0.8,0.6-1.1c0.3,0,0.5,0.1,0.8,0.1
		c7.7,0.2,15.5,0.2,23.2,0c0.3,0,0.7,0,1,0c0.6,0.1,1.3,0.2,1.9,0c0.2,0,0.5,0,0.7,0c0-0.1,0.1-0.2,0.1-0.2
		c-1.5-0.8-3.1-1.6-4.6-2.5c-0.5-0.3-1.3-0.5-0.9-1.3c0.4-0.8,1.1-0.3,1.6,0c1.9,1,3.8,2,5.7,3c0.9,0.5,1.2,0.3,1.1-0.7
		c0-1.7,0-3.4,0-5.1c0-0.5,0-1.1,0.7-1.1c0.7,0,0.7,0.6,0.7,1.1c0,5.1,0,10.2,0,15.3c0,0.5,0,1.1-0.7,1.1c-0.8,0-0.8-0.7-0.8-1.2
		c0-1.6-0.1-3.2,0-4.8c0.1-1.3-0.4-1.3-1.4-0.8c-1.7,1-3.5,1.9-5.3,2.8c-0.5,0.3-1.2,1-1.7,0.1c-0.5-1,0.5-1.2,1.1-1.5
		c1.3-0.8,2.7-1.5,4.1-2.2c0.1-0.1,0.4-0.1,0.4-0.2c0.1-0.6-0.4-0.3-0.6-0.3c-2.9,0-5.8,0-8.6,0c-5.4,0-10.8,0.1-16.2,0.1
		C119.6,48.4,119.4,48.4,119.2,48.4z"/>
	<path class="st0" d="M70.4,23c-3.8,3.7-7.2,7.6-9.6,12.3c-0.1,0.2-0.2,0.5-0.4,0.7c-0.2,0.4-0.5,0.7-1,0.5
		c-0.5-0.3-0.5-0.7-0.3-1.2c0.8-1.7,1.8-3.3,2.9-4.9c1.6-2.4,3.6-4.5,5.4-6.7c4.4-4.3,9-8.4,14.1-11.9C88.5,7.1,95.7,3.3,103.8,1
		c0.2-0.1,0.4-0.1,0.6-0.2c0.5-0.1,1.2-0.4,1.5,0.3c0.3,0.9-0.5,1-1.1,1.1C97.3,4.3,90.5,7.7,84,11.9C79.1,15.2,74.5,18.8,70.4,23z"
		/>
	<path class="st0" d="M131.3,26.7c-1.6-0.9-3.3-1.7-4.9-2.6c-0.5-0.3-1.1-0.6-0.7-1.3c0.3-0.6,0.9-0.3,1.3-0.1
		c2.3,1.2,4.6,2.4,7.1,3.7c0-2.2,0-4.1,0-6.1c0-0.6-0.2-1.4,0.7-1.4c0.9,0,0.7,0.8,0.7,1.4c0,4.9,0,9.8,0,14.7
		c0,0.6,0.2,1.4-0.7,1.4c-0.9,0-0.8-0.8-0.8-1.4c0-1.9,0-3.9,0-6.1c-1.8,1-3.5,1.8-5.1,2.6c-0.5,0.3-1.1,0.6-1.6,0.9
		c-0.6,0.2-1.2,1-1.7,0.1c-0.5-0.9,0.4-1.1,1-1.4c1.5-0.8,3-1.6,4.4-2.6c-0.5,0-1-0.1-1.6-0.1c-3.5,0-7.1,0-10.6,0
		c-0.6,0-1.3,0-1.3-0.7c-0.1-0.9,0.7-0.8,1.3-0.8c4.1,0,8.2,0,12.3,0C131.3,26.9,131.3,26.8,131.3,26.7z"/>
	<path class="st0" d="M55.3,7c-0.6,0.1-1,0-1.1-0.5c-0.1-0.5,0.2-0.8,0.6-0.9c2.6-0.8,5.3-1.2,8-1.7c0.5-0.1,0.8,0.1,0.9,0.6
		c0.1,0.5-0.2,0.8-0.6,0.9C60.5,5.8,57.8,6.4,55.3,7z"/>
	<path class="st0" d="M143.9,96.7c-0.3,0.9-0.6,2-1,3.2c-0.5,1.4-1.1,2.9-1.6,4.3c-0.2,0.5-0.5,1-1.1,0.6c-0.5-0.3-0.5-0.7-0.3-1.2
		c1-2.4,1.8-4.8,2.5-7.2c0.1-0.5,0.4-0.9,1-0.7C143.7,95.8,143.9,96.1,143.9,96.7z"/>
	<path class="st0" d="M75.7,4.7c-1.4,0-2.7,0-4,0c-0.6,0-1.1-0.1-1-0.8c0-0.6,0.5-0.7,1-0.7c2.5-0.1,5,0,7.6,0.2
		c0.5,0,1.1,0,1.1,0.8c0,0.8-0.7,0.7-1.3,0.7C77.9,4.8,76.7,4.8,75.7,4.7z"/>
	<path class="st0" d="M1.9,77.1C2,78.3,2,79.6,2.1,80.8c0,0.5,0,1.1-0.7,1.2c-0.7,0.1-0.8-0.5-0.8-1c-0.2-2.5-0.2-5-0.1-7.5
		c0-0.6,0-1.2,0.8-1.2C2.2,72.3,2,73,2,73.6C2,74.8,2,75.9,1.9,77.1C2,77.1,1.9,77.1,1.9,77.1z"/>
	<path class="st0" d="M1.5,64.3c0.4-2.5,1-5,1.7-7.5c0.1-0.5,0.3-1,1-0.9c0.6,0.2,0.6,0.7,0.5,1.2c-0.7,2.4-1.2,4.9-1.6,7.3
		c-0.1,0.5-0.3,1.1-1,0.9C1.4,65.2,1.4,64.7,1.5,64.3z"/>
	<path class="st0" d="M146.7,80.8c-0.3,2.3-0.6,4.7-0.9,7c-0.1,0.6-0.2,1.3-0.9,1.1c-0.7-0.1-0.6-0.8-0.6-1.4
		c0.3-2.3,0.5-4.6,0.8-6.9c0.1-0.6-0.1-1.4,0.7-1.4C146.8,79.3,146.7,80.1,146.7,80.8z"/>
	<path class="st0" d="M146.6,70.8c0,1,0,1.6-0.7,1.6c-0.7,0-0.7-0.5-0.8-1.1c-0.3-2.4-0.6-4.9-0.9-7.3c-0.1-0.5-0.3-1.1,0.5-1.3
		c0.8-0.2,0.9,0.5,1,1C146,66.3,146.3,68.7,146.6,70.8z"/>
	<path class="st0" d="M11,41.3c-0.1,0.2-0.2,0.6-0.4,0.9c-1,2.1-2,4.2-3,6.2c-0.2,0.5-0.4,1.2-1.1,1c-0.9-0.3-0.5-1-0.2-1.5
		c1.1-2.2,2.1-4.4,3.2-6.6c0.2-0.4,0.5-0.8,1.1-0.7C10.8,40.6,10.9,40.9,11,41.3z"/>
	<path class="st0" d="M11.8,112.7c0,0.4-0.2,0.7-0.5,0.8c-0.5,0.1-0.8-0.1-1-0.5c-0.9-1.6-1.7-3.2-2.6-4.9c-0.4-0.7-0.7-1.5-1-2.2
		c-0.2-0.4-0.2-0.8,0.3-1.1c0.5-0.3,0.9,0,1.1,0.5c1.1,2.4,2.3,4.7,3.5,7C11.7,112.4,11.7,112.6,11.8,112.7z"/>
	<path class="st0" d="M47.8,8.9c-0.1,0.5-0.5,0.7-0.8,0.9c-2.2,1-4.5,2.1-6.7,3.1c-0.5,0.2-1,0.5-1.3-0.1c-0.4-0.7,0.2-1,0.7-1.3
		c2.2-1.2,4.5-2.2,6.8-3.2C47.2,8.1,47.6,8.2,47.8,8.9z"/>
	<path class="st0" d="M20.7,27.8c-0.2,0.2-0.3,0.6-0.6,0.8c-1.5,1.8-3,3.7-4.4,5.5c-0.4,0.5-0.7,1.2-1.5,0.6c-0.6-0.5-0.1-1,0.2-1.5
		c1.4-2,3-3.9,4.6-5.7c0.3-0.3,0.6-0.6,1-0.5C20.5,27.1,20.6,27.4,20.7,27.8z"/>
	<path class="st0" d="M1.7,89.6c0-0.3,0.1-0.8,0.7-0.8c0.5-0.1,0.7,0.3,0.8,0.7C3.8,92,4.4,94.6,5,97.1c0.1,0.5,0.1,1-0.4,1.1
		c-0.6,0.2-0.8-0.2-1-0.7C2.8,95,2.2,92.4,1.7,89.6z"/>
	<path class="st0" d="M79.7,149.3c-0.6,0-1.4,0.1-1.4-0.8c0-0.7,0.7-0.7,1.3-0.8c2.3-0.3,4.6-0.6,6.8-0.9c0.6-0.1,1.4-0.4,1.5,0.5
		c0.1,0.9-0.7,0.9-1.3,1C84.4,148.6,82.1,148.9,79.7,149.3z"/>
	<path class="st0" d="M33.1,16.6c0,0.6-0.4,0.8-0.7,1.1c-1.9,1.5-3.8,3-5.7,4.4c-0.4,0.3-0.9,0.8-1.4,0.2c-0.5-0.6,0-0.9,0.4-1.3
		c1.9-1.6,3.9-3.2,5.9-4.6C32.2,16,32.8,15.8,33.1,16.6z"/>
	<path class="st0" d="M68.8,149.3c-2-0.2-4.1-0.5-6.1-0.7c-0.5-0.1-1.1-0.2-1-0.9c0.1-0.7,0.6-0.7,1.2-0.6c2.4,0.4,4.9,0.6,7.3,0.7
		c0.6,0,1.2,0,1.2,0.9c-0.1,0.8-0.8,0.6-1.3,0.6C69.7,149.3,69.3,149.3,68.8,149.3C68.9,149.3,68.8,149.3,68.8,149.3z"/>
	<path class="st0" d="M54,146.8c-2.6-0.7-5.2-1.6-7.7-2.6c-0.4-0.2-0.7-0.5-0.5-1c0.2-0.5,0.6-0.6,1-0.4c2.5,1,5.1,1.9,7.7,2.6
		c0.5,0.1,0.7,0.5,0.5,1C54.8,146.8,54.4,146.9,54,146.8z"/>
	<path class="st0" d="M39.6,139.9c-0.1,0.6-0.5,0.8-1.1,0.5c-2.4-1.3-4.8-2.8-7-4.4c-0.4-0.3-0.4-0.7-0.2-1.1c0.2-0.3,0.6-0.4,1-0.2
		c2.3,1.5,4.7,2.9,7,4.4C39.5,139.4,39.6,139.6,39.6,139.9z"/>
	<path class="st0" d="M111.2,117.2c-3.7,0-6.6-2.6-6.8-6.4c-0.1-0.9-0.4-1.3-1.2-1.4c-0.8-0.2-1.6-0.3-2.4-0.2
		c-1.3,0.2-2.2,0.3-2.4,2.2c-0.3,3.6-3.4,5.9-7,5.8c-3.5-0.1-6.2-2.7-6.5-6.4c-0.1-0.9-0.4-1.2-1.2-1.5c-1.3-0.4-2.7-0.8-4-1.2
		c-0.5-0.2-1.1-0.4-0.8-1.1c0.2-0.6,0.8-0.6,1.3-0.4c1.4,0.4,2.8,0.8,4.1,1.3c0.6,0.2,0.9,0.1,1.2-0.5c2.3-5.1,9.7-5.4,12.3-0.1
		c0.3,0.5,0.5,0.8,1.2,0.6c1.6-0.5,3.2-0.5,4.9,0c0.6,0.2,0.9,0,1.2-0.5c2.9-5,8.8-5.4,12-0.6c0.4,0.6,0.8,0.8,1.5,0.6
		c1.2-0.3,2.5-0.6,3.8-0.9c0.6-0.1,1.2-0.3,1.4,0.5c0.1,0.7-0.5,0.8-1,0.9c-0.3,0.1-0.7,0.2-1.1,0.2c-2.2,0.2-3.8,0.7-3.9,3.6
		C117.5,115.2,114.4,117.2,111.2,117.2z M91.7,105.1c-2.9,0-5.3,2.4-5.3,5.3c0,2.9,2.4,5.3,5.3,5.4c3,0,5.4-2.4,5.4-5.4
		C97,107.5,94.6,105.1,91.7,105.1z M116.5,110.4c0-2.9-2.3-5.3-5.2-5.3c-2.9,0-5.3,2.3-5.4,5.2c0,3,2.3,5.4,5.3,5.4
		C114.2,115.7,116.5,113.4,116.5,110.4z"/>
	<path class="st0" d="M107.8,35.9c0,3.6-0.5,6.5-2,9.3c-2,3.7-6,3-7.5-0.2c-2.6-5.5-2.5-11,0-16.5c0.4-0.8,0.9-1.6,1.8-2.1
		c2.3-1.4,4.1-1,5.6,1.3C107.4,30.4,107.8,33.4,107.8,35.9z M106.4,36.7c0-3.3-0.7-6.2-1.7-7.9c-1.4-2.4-3.4-2.2-4.6,0
		c-2.8,5.1-2.8,10.5-0.2,15.8c1.2,2.3,3.1,2.2,4.6,0.1C106,42.2,106.3,39.4,106.4,36.7z"/>
</g>
</svg>
