<?xml version="1.0" encoding="utf-8"?>
<!-- Generator: Adobe Illustrator 24.3.0, SVG Export Plug-In . SVG Version: 6.00 Build 0)  -->
<svg version="1.1" id="Layer_1" xmlns="http://www.w3.org/2000/svg" xmlns:xlink="http://www.w3.org/1999/xlink" x="0px" y="0px"
	 viewBox="0 0 150 150" style="enable-background:new 0 0 150 150;" xml:space="preserve">
<style type="text/css">
	.st0{fill:#005BAB;}
</style>
<g>
	<path class="st0" d="M74.9,149.4c-41.6-0.2-74.6-33.5-74.4-75.1C0.8,33.5,34.4,0.1,76,0.6c40.3,0.5,73.6,33.3,73.4,74.8
		C149.3,116.3,115.7,149.5,74.9,149.4z M125.2,126.9c-0.5-0.5-0.8-0.8-1.1-1.2c-10-10-19.9-19.9-29.9-29.9c-0.6-0.6-1.3-1-2.2-1
		c-0.5,0-1.4-0.9-1.3-1.1c0.5-1.2-0.3-1.6-0.9-2.2c-1.1-1.1-2.3-2.1-3.2-3.3c-1.1-1.4-2.4-1.5-4.1-0.8c0.6,0.4,1,0.6,1.4,0.9
		c1,0.6,2.1,1.2,3.1,1.9c1.5,1.2,1.6,2.6,0.3,4.1c-0.2,0.2-0.4,0.5-0.7,0.7c-0.7,0.6-0.8,1.3-0.6,2.2c0.2,1,0.5,2.2,0.3,3.2
		c-0.5,2.7-2.4,4-5.5,4.1c-5.6,0.1-10.8-1.3-15.6-4.2c-4.7-2.8-8.1-6.6-10.1-11.8c-0.3-0.8-0.4-1.5,0.5-1.8c0.8-0.3,1.3,0.1,1.6,0.9
		c2.4,6.1,6.9,10,12.8,12.5c3.6,1.5,7.3,2.3,11.2,2c2.2-0.2,3.4-1.5,2.8-3.4c-0.9-2.5-0.3-4.5,1.6-6.1c0,0,0-0.2,0-0.3
		c-0.2-0.2-0.5-0.5-0.8-0.6c-1.3-0.8-2.8-1.5-4-2.5c-0.6-0.5-1-1.6-0.9-2.3c0.1-0.7,1.1-1.2,1.7-1.8c0.2-0.2,0.6-0.2,0.8-0.2
		c-14-14-27.9-28-42.1-42.2c-1.3,1.2-2.7,2.4-3.9,3.8c-5,5.8-6.1,12.8-5.4,20.1c0.5,5.5,2.3,10.7,4.6,15.7
		c4.1,8.9,5.1,18.2,3.1,27.8c-0.2,0.9-0.1,2.3-1.6,2c-1.4-0.3-0.8-1.5-0.7-2.4c0.7-4.3,1.1-8.6,0.8-12.9c-0.4-5.2-2.3-10.1-4.3-14.8
		c-2.8-6.6-4.7-13.3-4.4-20.5c0.3-8.1,3.2-15,9.8-20c0.2-0.1,0.4-0.2,0.4-0.2c-5.4-5.4-10.6-10.7-15.9-16
		c-15.7,15.6-25,41.5-18,67.4c7.7,28.7,26.6,46.8,55.7,53C85.2,150.7,106.7,143.7,125.2,126.9z M127,125.1
		c17.1-18.9,23.6-40.7,18.4-65.7C139.7,32.1,117.7,10.2,90,4.5c-24.8-5-46.5,1.6-65.2,18.6c5.5,5.5,10.7,10.8,16,16
		c0.2,0.2,0.8,0.2,1.1,0c5-2.6,10.3-3.4,15.8-3.1c12.6,0.5,22.9,8.7,26.2,20.9c0.3,1.3,0.5,2.9,0,4.1c-0.7,1.8-0.4,3.1,0.8,4.5
		c2.3,2.5,4.5,5.1,6.7,7.8c2.2,2.7,1.4,4.9-1.8,5.9c-2.5,0.8-2.6,1-1.1,3.1c0.1,0.1,0.2,0.2,0.2,0.3c1.6,2.1,1.5,2.4-0.7,4
		c1.7,1.7,3.4,3.3,5.1,5c0.6,0.7,1.3,0.9,2.2,0.9c5.1,0,10.2-0.1,15.3,0c2.5,0,4.4,1.2,5.4,3.5c1,2.3,0.7,4.4-0.9,6.3
		c-1.7,2-4,2.3-6.4,2c-0.4,0-0.9-0.8-0.9-1.1c0.1-0.4,0.6-0.9,1.1-1.1c0.4-0.2,0.9,0,1.3,0c2.3,0,4-1.6,4-3.7c0-2.1-1.6-3.6-4-3.6
		c-4.2,0-8.4,0-12.6,0c-0.3,0-0.6,0.1-0.8,0.1C106.9,105,116.9,114.9,127,125.1z M42.6,41.5c0.8,0.6,1.3,0.9,1.8,1.4
		c9.8,9.8,19.7,19.6,29.5,29.5c3.8,3.8,7.6,7.6,11.4,11.3c0.5,0.5,0.9,1.1,1.6,0.3c-0.3-0.5-0.7-1-0.9-1.5c-1.4-2.6-0.6-4.5,2.2-5.4
		c2.6-0.8,2.7-1.1,0.9-3.2c-0.3-0.3-0.6-0.7-0.9-1c-2-2.4-4-4.7-6-7.1c-1.2-1.4-1.4-3-0.7-4.7c0.7-1.5,0.5-2.9,0-4.4
		c-3.8-11.5-13.2-18.4-25.3-18.4C51.6,38.2,47.2,39,42.6,41.5z"/>
	<path class="st0" d="M74.6,142.1c-17.9-0.2-33.4-6.4-46.4-18.8c-0.1-0.1-0.1-0.1-0.2-0.2c-0.6-0.6-1.4-1.2-0.5-2
		c0.8-0.7,1.4-0.1,1.9,0.5c5.6,5.5,12,9.9,19.2,13c9.2,4,18.8,5.9,28.8,5.5c0.5,0,1.1-0.2,1.6,0c0.5,0.2,0.9,0.6,1.3,0.9
		c-0.4,0.4-0.8,1-1.3,1C77.6,142.2,76.1,142.1,74.6,142.1z"/>
	<path class="st0" d="M70.4,104c-0.2,2.3-0.3,4.6-0.6,6.9c0,0.4-0.7,1-1.1,1c-0.4,0-1.1-0.6-1.1-1c0.1-2.4,0.3-4.7,0.6-7.1
		c0.1-0.4,0.9-0.9,1.4-1c0.3-0.1,0.7,0.6,1.1,0.9C70.6,103.8,70.5,103.9,70.4,104z"/>
	<path class="st0" d="M108.8,133c-0.8,0.4-1.5,0.9-2.3,1.1c-0.2,0.1-0.6-0.7-0.9-1.1c0.7-0.5,1.3-1.1,2.1-1.4
		c0.2-0.1,0.8,0.5,1.1,0.7C108.8,132.7,108.8,132.8,108.8,133z"/>
	<path class="st0" d="M102.2,133.9c0.5,0.6,1.1,1,1.1,1.4c0,1.2-1.1,1.3-1.9,1.5c-0.3,0.1-0.8-0.6-1.2-0.9
		C100.8,135.3,101.3,134.7,102.2,133.9z"/>
	<path class="st0" d="M96.7,136.1c0.5,0.7,1,1,1.1,1.4c0.2,0.7-1.1,1.6-2.1,1.4c-0.4-0.1-0.7-0.6-1-1
		C95.2,137.4,95.8,136.8,96.7,136.1z"/>
	<path class="st0" d="M90,141c-0.5-0.7-1.1-1.1-1.1-1.5c0-1.2,1.1-1.1,1.9-1.2c0.4,0,0.8,0.6,1.2,0.9C91.5,139.7,90.9,140.3,90,141z
		"/>
	<path class="st0" d="M84.9,138.9c0.6,0.7,1.3,1.1,1.3,1.5c0,1.2-1.2,1.1-1.9,1.1c-0.4,0-0.8-0.6-1.2-0.9
		C83.6,140.1,84.1,139.6,84.9,138.9z"/>
	<path class="st0" d="M75.2,7.7c18.3,0.4,33.8,6.7,46.8,19.1c0.3,0.3,0.7,0.6,0.8,0.9c0.1,0.4,0,0.9-0.2,1.2
		c-0.2,0.2-0.8,0.3-1.1,0.1c-0.4-0.2-0.8-0.6-1.1-0.9C108.9,17.3,95.5,11.2,80,10c-3.1-0.2-6.3-0.1-9.4-0.1c-0.8,0-1.7,0.1-1.7-1
		C68.7,8,69.6,8,70.4,7.9C72.1,7.8,73.8,7.8,75.2,7.7z"/>
	<path class="st0" d="M114.7,89.6c-1.8,0-3.5,0-5.3,0c-0.9,0-2.1,0.3-2.1-1.2c0-1.4,1.3-1.1,2.2-1.1c3.6,0,7.1,0,10.7,0
		c2.9,0,4.7-2.6,3.6-5c-0.6-1.5-1.9-2.2-3.5-2.3c-0.6,0-1.2,0.1-1.7-0.1c-0.4-0.1-0.8-0.6-0.9-1c0-0.4,0.4-1.1,0.7-1.1
		c2.2-0.3,4.4-0.2,6.2,1.5c1.8,1.8,2.3,3.9,1.5,6.3c-0.8,2.3-2.5,3.6-4.9,3.9c-0.4,0.1-0.8,0-1.2,0
		C118.2,89.6,116.4,89.6,114.7,89.6z"/>
	<path class="st0" d="M97.8,84.3c-1.2,0-2.3,0-3.5,0c-0.8,0-1.5-0.4-1.4-1.2c0.1-0.4,0.9-1,1.4-1.1c2.1-0.1,4.2,0,6.3-0.1
		c2.4,0,4.1-1.5,4.1-3.7c0-2.1-1.6-3.6-4-3.6c-0.4,0-1,0.1-1.3,0c-0.4-0.2-1-0.7-1-1.2c0-0.3,0.6-1,0.9-1.1c3.3-0.4,6.5,0.6,7.5,4.3
		c1.1,3.8-1.6,7.4-5.6,7.6C100,84.4,98.9,84.3,97.8,84.3z"/>
	<path class="st0" d="M97.7,90.1c-0.7-0.7-1.5-1.1-1.6-1.6c-0.2-1,0.7-1.2,1.5-1.2c0.8,0,1.6,0.2,1.5,1.1
		C99,88.9,98.4,89.3,97.7,90.1z"/>
	<path class="st0" d="M64.7,8.1c0.6,0.6,1.2,1,1.2,1.4c0.1,1.2-1,1.1-1.8,1.2c-0.7,0.1-1.5-0.2-1.2-0.9C63.1,9.1,63.9,8.7,64.7,8.1z
		"/>
	<path class="st0" d="M53.3,10.9c0.5,0.7,0.9,1,1,1.4c0.1,0.7-1.2,1.6-2.1,1.4c-0.4-0.1-0.7-0.7-1-1C51.8,12.2,52.5,11.7,53.3,10.9z
		"/>
	<path class="st0" d="M103.2,90.1c-0.7-0.8-1.4-1.2-1.5-1.7c-0.1-1,0.7-1.2,1.5-1.2c0.8,0,1.6,0.3,1.4,1.2
		C104.6,88.9,103.9,89.4,103.2,90.1z"/>
	<path class="st0" d="M58.1,12.5c-0.6-0.7-1.1-1.2-1.1-1.5c0.1-1.2,1.2-1.2,2.1-1.2c0.3,0,0.7,0.6,1,0.9
		C59.5,11.2,58.9,11.7,58.1,12.5z"/>
	<path class="st0" d="M49,14.9c-0.7,0.4-1.4,0.9-2.2,1c-0.3,0.1-0.7-0.7-1-1c0.7-0.5,1.4-1,2.1-1.3c0.2-0.1,0.8,0.5,1.1,0.7
		C49,14.6,49,14.7,49,14.9z"/>
	<path class="st0" d="M41.6,19.3c-0.5-0.6-1.1-1.3-1.1-1.3c0.6-0.6,1.2-1.2,1.9-1.6c0.2-0.1,0.8,0.6,1.1,0.9
		C43,17.8,42.4,18.4,41.6,19.3z"/>
</g>
</svg>
