<?xml version="1.0" encoding="utf-8"?>
<!-- Generator: Adobe Illustrator 24.3.0, SVG Export Plug-In . SVG Version: 6.00 Build 0)  -->
<svg version="1.1" id="Layer_1" xmlns="http://www.w3.org/2000/svg" xmlns:xlink="http://www.w3.org/1999/xlink" x="0px" y="0px"
	 viewBox="0 0 150 150" style="enable-background:new 0 0 150 150;" xml:space="preserve">
<style type="text/css">
	.st0{fill:#005BAB;}
</style>
<g>
	<path class="st0" d="M41.4,94.1c-9-1.4-16.3-5.7-22.7-11.8c-1.7-1.7-1.8-2.4-0.7-4.5c5.7-10.2,12.1-20,20.5-28.2
		c3.5-3.4,7.3-6.4,12.2-7.7c4.9-1.3,9.9-1.2,14.9,0c1.8,0.5,2.6,1.6,2.2,3.1c-0.4,1.4-1.6,1.9-3.4,1.5c-7.8-1.7-14.8-0.5-20.9,5.1
		c-6.8,6.3-12.2,13.7-17.2,21.6c-1.3,2-2.4,4-3.7,6.2c3.4,3.2,7.1,6,11.4,7.6c3,1.1,6.1,1.7,9.2,2.5c1,0.3,1.6-0.2,2.1-1.1
		c2.6-4.7,5.3-9.4,8-14.1c0.7-1.2,1.5-1.9,2.9-1.5c1.7,0.5,2.2,2.1,1.3,3.7c-1.7,3-3.5,6-5.2,9c-1.3,2.2-2.4,4.5-3.8,6.7
		c-0.5,0.8-1.3,1.3-1.9,2.1c-0.5,0.7-0.8,1.5-1.3,2.3c0.1,0.1,0.2,0.2,0.3,0.3c0.6-0.2,1.2-0.5,1.8-0.8
		c11.4-5.2,22.9-10.3,34.9-14.2c2.4-0.8,4.9-1.5,7.4-1.8c2.1-0.2,4.4,0,6.5,0.6c4.2,1.3,5.9,5,4.4,9.2c-1.2,3.6-3.7,6.2-6.5,8.7
		c-6.4,5.7-13.7,9.9-21.3,13.7c-12.4,6.2-25.1,11.4-38.5,15.1c-0.7,0.2-1.2,0.5-1.2,1.4c-0.5,6-1.2,12-1.7,17.9
		c-0.2,1.8-1,3-2.5,2.9c-1.4-0.1-2.4-1.1-2.3-2.9c0.5-5.8,1-11.6,1.5-17.3c0-0.2,0-0.5,0.1-0.9c-3.1-0.4-5.9-1.6-8.3-3.5
		c-3.8-3-6.9-6.6-7.5-11.5c-0.3-2.6,0-5.4,0.7-8c1.1-4.4,2.5-8.6,3.9-12.9c0.6-1.8,1.7-2.4,3.2-1.8c1.4,0.5,1.8,1.6,1.3,3.3
		c-1.1,3.6-2.3,7.2-3.4,10.9c-0.5,1.7-0.9,3.4-1,5.1c-0.1,1.6,0.1,3.2,0.7,4.7c1.3,3.2,3.6,5.7,6.6,7.5c2.2,1.3,4.5,1.6,6.9,1.1
		c8.6-2,16.7-5.2,24.8-8.6c10.5-4.4,20.8-9.2,30.1-15.8c2.6-1.8,5-4,7.3-6.2c1.2-1.2,1.9-2.8,2.6-4.3c0.7-1.7,0.1-3-1.8-3.2
		c-2-0.3-4.2-0.5-6,0.1c-7.1,2.3-14.2,4.6-21,7.5c-9.7,4-19.2,8.5-28.8,12.8c-0.5,0.2-0.9,0.4-1.4,0.6c-1.3,0.5-2.5,0-3-1.2
		c-0.6-1.2-0.2-2.4,1-3.1c0.1-0.1,0.3-0.2,0.4-0.2C39.6,100.7,40.3,97.3,41.4,94.1z"/>
	<path class="st0" d="M89.4,60.6c-8.3,0-14.4-4.5-17.4-12.9c-0.5-1.5-0.9-3.1-1.2-4.6c-0.4-2.3-0.9-4.4-2.3-6.5
		c-2.7-3.9-1.8-9.8,1.3-13.4c0.3-0.4,0.4-1,0.5-1.5c0.7-3.3,1-6.7,2.1-9.8c2.4-6.5,7.6-9.6,14.5-9.5c1.2,0,2.4-0.2,3.6-0.6
		c8.3-2.8,15.9-1.8,21.4,5c2.2,2.6,4,5.5,6,8.2c0.7,1,1.5,2,2.4,2.9c1.2,1.4,2.8,2,4.7,1.8c2.4-0.3,3.4,0.8,2.7,3.1
		c-1.7,6-5.1,10.6-11,13.1c-0.9,0.4-1,0.9-1.2,1.6C113.5,48.8,103.7,60.6,89.4,60.6z M110.8,36.4c-4.4-0.5-8.4-2-12.1-4.3
		c-3.7-2.3-6.8-5.3-9.5-8.6c-2.9,2.6-5.9,4.6-9.6,5.6c-1.1,0.3-1.8,0.1-2.7-0.6c-0.9-0.7-2.1-1.1-3.2-1.5c-0.3-0.1-1,0.3-1.2,0.6
		c-1.4,2.2-0.6,6.2,1.2,8.1c0.6,0.6,1.1,1.6,1.3,2.5c0.5,2.3,0.6,4.8,1.3,7.1c2.4,8,8,11.5,16.2,10.3c6.5-0.9,11.3-4.6,14.8-10
		C109,42.8,110.3,39.8,110.8,36.4z M74.7,22c1.6,0.7,2.6,1.2,3.7,1.6c0.6,0.2,1.4,0.4,1.9,0.1c2.4-1.7,4.7-3.3,6.9-5.2
		c1.7-1.5,3.1-1.6,4.5,0.3c0.4,0.5,0.7,1,1.1,1.5c4.3,5.4,9.5,9.6,16.5,11c2.4,0.5,5,1,7.3-0.4c2.5-1.5,4-3.8,5.3-6.4
		c-3.2-1-5.4-3.1-7.2-5.6c-2-2.7-4-5.5-5.9-8.3C104,4,95.9,4.3,90.9,7c-0.8,0.4-1.8,0.6-2.7,0.4c-5.3-0.9-9.7,1.3-11.5,6.4
		C75.8,16.5,75.4,19.3,74.7,22z"/>
	<path class="st0" d="M104.2,137.8c-0.1,1.8-0.3,3.6-0.4,5.4c-0.1,1.2,0,2.3-0.1,3.5c0,1.8-0.9,2.9-2.4,2.9c-1.5,0-2.4-1.1-2.4-2.8
		c0-11,1.7-21.7,5.6-32.1c2.8-7.5,5.9-14.9,8.6-22.4c1.2-3.2,1.8-6.7,2.6-10c0.4-1.7,1.5-2.6,2.9-2.4c1.5,0.3,2.2,1.6,1.8,3.4
		c-1.4,8-4.3,15.5-7.4,22.9c-0.2,0.4-0.3,0.7-0.6,1.5c2.5,0.3,4.8,1,7.2,0.9c3.9-0.2,7.8-0.9,11.7-1.4c0.4-0.1,1-0.7,1-1.1
		c-1.1-11.4-2.3-22.7-3.5-34.1c-0.2-2.4-1.4-4.3-3.2-5.8c-4.3-3.6-8.7-7-13.1-10.5c-0.2-0.2-0.5-0.3-0.7-0.5c-1-0.8-1.2-2.1-0.5-3.1
		c0.8-1.1,1.8-1.4,3-0.9c0.5,0.2,0.9,0.5,1.3,0.8c3.9,3,7.7,6.1,11.6,9.1c4.4,3.4,6.4,7.9,6.9,13.3c1,11.1,2.2,22.2,3.2,33.3
		c0.2,2.2-0.3,2.9-2.4,3.5c-8,2.3-16,3.3-24.3,0.7c-1.4,4.3-3.8,8.2-2.9,13.1c1.2,7.1,2.1,14.3,3.1,21.4c0.2,1.6-0.5,2.8-1.8,3.1
		c-1.4,0.3-2.6-0.6-2.9-2.3c-0.5-2.9-1-5.7-1.5-8.6c0-0.3-0.1-0.5-0.2-0.8C104.4,137.8,104.3,137.8,104.2,137.8z"/>
	<path class="st0" d="M125.4,126.7c0-2.6,0-5.1,0-7.7c0-1.8,0.9-2.8,2.4-2.9c1.5,0,2.4,1.1,2.4,2.8c0,3.9,0.2,7.7,0,11.6
		c-0.3,4.9,1.1,9.4,3.1,13.7c0.3,0.6,0.6,1.3,0.9,1.9c0.5,1.3,0.1,2.4-1.1,3c-1.2,0.6-2.5,0.3-3.1-0.9c-2.4-4.8-4.6-9.8-4.6-15.4
		C125.4,130.9,125.4,128.8,125.4,126.7z"/>
	<path class="st0" d="M85.1,124.6c-3.4,0-7.5-1.3-11.2-3.8c-1.4-0.9-1.8-2.3-1-3.5c0.8-1.2,2.2-1.5,3.5-0.6
		c6.5,4.5,15.1,3.9,20.8-1.2c1.2-1,2.6-0.9,3.5,0.1c0.9,1.1,0.8,2.4-0.5,3.6C96.8,122.5,91.4,124.6,85.1,124.6z"/>
	<path class="st0" d="M83.3,62.7c1.4,0,2.5,0.9,2.6,2.2c0.1,1.3-0.7,2.4-2.2,2.6c-6.3,0.7-10.9,3.9-13.8,9.5c-0.7,1.4-2,1.7-3.3,1.1
		c-1.2-0.6-1.6-1.8-1-3.1C68.7,68.1,75.7,63.3,83.3,62.7z"/>
	<path class="st0" d="M88.2,114.1c-0.9-0.2-2.3-0.4-3.6-0.7c-1.4-0.4-2.1-1.7-1.8-2.9c0.4-1.3,1.6-2.1,3-1.7c3.9,1.1,7.1,0,9.6-3.1
		c0.9-1.1,2.3-1.3,3.3-0.5c1.1,0.8,1.3,2.2,0.4,3.5C96.6,112.1,93.1,113.8,88.2,114.1z"/>
	<path class="st0" d="M94.6,74.3c0.1,2.2-1.3,3.5-2.9,3c-4-1.2-7.6-0.5-10.8,2.2c-1.1,0.9-2.4,0.7-3.3-0.4c-0.8-1-0.8-2.2,0.2-3.2
		c3.4-3.6,10.5-5.1,15.1-3.2C93.7,73.1,94.2,74,94.6,74.3z"/>
</g>
</svg>
