<?xml version="1.0" encoding="utf-8"?>
<!-- Generator: Adobe Illustrator 24.3.0, SVG Export Plug-In . SVG Version: 6.00 Build 0)  -->
<svg version="1.1" id="Layer_1" xmlns="http://www.w3.org/2000/svg" xmlns:xlink="http://www.w3.org/1999/xlink" x="0px" y="0px"
	 viewBox="0 0 150 150" style="enable-background:new 0 0 150 150;" xml:space="preserve">
<style type="text/css">
	.st0{fill:#005BAB;}
</style>
<g>
	<path class="st0" d="M118.2,93.4c4-5.3,8-10.7,12-16c4.4-5.7,13.2-5.6,17.2,0.2c2.3,3.4,2.7,7.2,0.3,10.5
		c-10.3,14.1-20.4,28.4-33.5,40.2c-5.5,5-11.6,9.2-19.1,10.6c-10.9,2.1-21.4,0.8-31.4-4c-1-0.5-1.8-0.5-2.8-0.1
		c-9.2,4-18.9,4.6-28.7,3.7c-7.6-0.6-14.8-2.6-21.1-6.9C6.6,128.4,3,124.2,0.8,119c-0.3-0.8-0.3-2.1,0.1-2.7
		c5.4-7.3,10.9-14.5,17.7-20.4c2-1.7,4.4-3.2,6.9-4.1c3.3-1.2,6.6-0.6,9.7,1.3c0.9,0.6,2,1.3,3,1.3c1.3,0.1,2.6-0.5,3.9-0.8
		c1.8-0.5,1.5-1.9,1.5-3.3c-0.1-16.5-0.1-33.1-0.1-49.6c0-3.2,1.3-5.6,4.1-7.1c2.9-1.5,5.8-1.4,8.6,0.4c2.3,1.5,3.4,3.7,3.4,6.4
		c0,8.4,0,16.8,0,25.2c0,0.5-0.1,1.1,0.1,1.6c0.2,0.4,0.7,0.7,1.1,1.1c0.3-0.4,0.8-0.7,0.9-1.1c0.2-0.5,0.1-1,0.1-1.6
		c0-13.8,0-27.6,0-41.5c0-4.3,2.9-7.6,7.3-8.3c4.1-0.6,8.1,1.7,9.4,5.6c0.4,1.3,0.5,2.7,0.5,4c0,13.2,0,26.3,0,39.5
		c0,0.5-0.1,1.1,0,1.6c0.2,0.6,0.7,1.1,1,1.7c0.3-0.6,0.8-1.2,0.9-1.8c0.2-0.5,0-1.2,0-1.8c0-15.1,0-30.2,0-45.4
		c0-6.7,6.2-10.9,12.2-8.3c3.6,1.6,5.2,4.4,5.2,8.3c0,15.1,0,30.1,0,45.2c0,0.9-0.1,1.8,0.1,2.6c0.1,0.4,0.7,0.7,1.1,1.1
		c0.3-0.4,0.7-0.7,0.9-1.1c0.2-0.5,0-1.1,0-1.6c0-13.1,0-26.2,0-39.3c0-4,2.2-7,5.9-8.2c3.7-1.2,7.7,0.1,10,3.1
		c1.3,1.8,1.6,3.8,1.6,5.9c0,21.3,0,42.5,0,63.8c0,0.9,0,1.7,0,2.6C118,93.3,118.1,93.3,118.2,93.4z M46.9,53.1
		c0,12.8,0,25.4,0,38.1c1.1,0,2.1,0,3.1,0c4.3,0.1,7.4,2.6,10.3,5.3c6.3,5.9,11.7,12.7,16.8,19.6c0.5,0.6,0.5,1.9,0.2,2.7
		c-2,5-5.3,9-9.7,12.2c-0.5,0.4-1,0.7-1.6,1.2c4.5,2.2,9.1,3.3,13.8,3.9c11.3,1.5,21.5-0.7,30.1-8.6c4.2-3.9,8.3-7.9,12.2-12.1
		c4.2-4.6,8.1-9.5,12.2-14.5c-4-3-7.6-5.7-11.3-8.5c-1.3,1.7-2.4,3.2-3.5,4.7c-0.9,1.1-2.1,1.7-3.2,1c-0.8-0.5-1.2-1.7-1.7-2.6
		c-0.2-0.4,0-1,0-1.6c0-16.8,0-33.5,0-50.3c0-0.7,0-1.5,0-2.2c-3.7,0-7.2,0-10.8,0c0,0.8,0,1.5,0,2.2c0,7.6,0,15.1,0,22.7
		c0,3.2-1.6,5.1-4.4,5c-2.7,0-4.3-1.9-4.3-5c0-9.9,0-19.8,0-29.8c0-0.7,0-1.4,0-2c-3.8,0-7.2,0-10.8,0c0,3.6,0,7,0,10.4
		c0,7.2,0,14.4,0,21.6c0,2.6-1.6,4.4-3.9,4.6c-2.8,0.3-4.8-1.7-4.8-4.6c0-8,0-15.9,0-23.9c0-0.7-0.1-1.4-0.1-2.1
		c-3.5,0-6.9,0-10.4,0c0,0.9,0,1.6,0,2.4c0,7.9,0,15.7,0,23.6c0,2.9-1.7,4.7-4.3,4.7c-2.7,0-4.3-1.8-4.4-4.7c0-2.3,0-4.6,0-6.9
		c0-2.2,0-4.5,0-6.8C53.1,53.1,50.1,53.1,46.9,53.1z M4.1,118.4c0.7,1.2,1,1.9,1.4,2.5c3.3,5.3,7.9,9.1,13.7,11.2
		c12.6,4.7,25.4,4.7,38.2,0.6c6.5-2.1,11.7-6,15.3-12c0.4-0.6,0.7-1.3,1.2-2.3c-6.1-1.1-11.8-2.1-17.6-3.1c-3.1-0.5-6.1-0.4-9.2,0.7
		c-5.7,1.9-11.5,1.5-17.2-0.2c-1.7-0.5-3.5-0.9-5.2-0.7C18,116,11.3,117.2,4.1,118.4z M6.5,114.7c0.4-0.1,0.8-0.1,1.1-0.2
		c4.5-0.8,9-1.7,13.6-2.4c3.5-0.5,6.9-0.6,10.5,0.7c5.3,1.9,10.8,1.5,16.2-0.3c1.6-0.5,3.3-0.8,5-0.7c2.3,0.1,4.7,0.4,7,0.8
		c3.9,0.7,7.8,1.4,12.2,2.2c-5.3-6.6-10.2-12.9-16.5-18c-3.6-2.9-7.2-3.2-11.1-0.8c-3.6,2.2-7.1,2.3-10.6-0.1
		c-2.1-1.4-4.5-2-6.9-1.2c-1.8,0.6-3.8,1.5-5.1,2.9c-5.1,5.4-10,11-15,16.5C6.6,114.2,6.6,114.4,6.5,114.7z M125,89.9
		c3.8,2.8,7.5,5.6,11.2,8.3c3-4,6-7.7,8.6-11.6c0.9-1.3,1.2-3.2,1-4.8c-0.4-2.8-2.4-4.5-5.1-5.2c-3-0.7-5.6,0.1-7.5,2.4
		C130.4,82.6,127.8,86.2,125,89.9z M75.5,37.4c0-4.5,0-8.9,0-13.2c0-2.9-2.3-5.1-5.2-5.2c-3-0.1-5.3,2.1-5.3,5.1
		C65,27,65,30,65,32.9c0,1.5,0,2.9,0,4.4C68.6,37.4,71.9,37.4,75.5,37.4z M95,31.2c0-4.5,0.1-8.8,0-13.1c-0.1-2.6-2.5-4.6-5.2-4.7
		c-2.6-0.1-5.3,1.7-5.4,4.1c-0.2,4.5-0.1,9-0.1,13.7C87.9,31.2,91.4,31.2,95,31.2z M103.8,38c3.7,0,7.1,0,10.7,0
		c0-4.3,0.1-8.4,0-12.5c-0.1-2.5-2.5-4.6-5.2-4.7c-2.6-0.1-5.3,1.7-5.4,4.1C103.7,29.2,103.8,33.6,103.8,38z M56.3,49.6
		c0-3.4,0.1-6.7,0-9.9c-0.1-2.2-2.1-3.9-4.4-4c-2.3-0.1-4.7,1.4-4.8,3.5c-0.2,3.4-0.1,6.9-0.1,10.4C50,49.6,53,49.6,56.3,49.6z"/>
</g>
</svg>
