<?xml version="1.0" encoding="utf-8"?>
<!-- Generator: Adobe Illustrator 24.3.0, SVG Export Plug-In . SVG Version: 6.00 Build 0)  -->
<svg version="1.1" id="Layer_1" xmlns="http://www.w3.org/2000/svg" xmlns:xlink="http://www.w3.org/1999/xlink" x="0px" y="0px"
	 viewBox="0 0 150 150" style="enable-background:new 0 0 150 150;" xml:space="preserve">
<style type="text/css">
	.st0{fill:#005BAB;}
</style>
<g>
	<path class="st0" d="M85.1,95.7c2.1,0.8,3.9,1.4,5.6,2.2c12.2,6,19.5,15.7,21.4,29.2c0.5,3.1,0.3,6.3,0.3,9.5c0,2.5,0,5,0,7.4
		c0,3.3-2.4,5.7-5.7,5.7c-7.2,0-14.4,0-21.6,0c-1.5,0-2.1-0.5-2.1-1.6c0-1.2,0.6-1.7,2.1-1.7c1.1,0,2.1,0,3.2,0
		c0.8,0,1.1-0.2,1.1-1.1c0-5.2,0-10.4,0.1-15.6c0-0.4,0-0.9,0-1.3c0.1-0.9,0.6-1.4,1.5-1.4c1-0.1,1.5,0.4,1.8,1.3
		c0.1,0.4,0,0.8,0,1.2c0,5.2,0,10.4,0,15.6c0,1,0.3,1.4,1.3,1.4c4,0,8,0,12.1,0c1.6,0,2.6-0.7,2.7-2.1c0.1-7.3,1-14.7-1.3-21.8
		c-4.2-13.5-13.3-21.9-27.3-24.2c-18.7-3.2-35.9,9.5-39,28.2c-0.5,2.9-0.4,5.9-0.5,8.9c-0.1,2.6,0,5.3,0,7.9c0,2.4,0.8,3.1,3.2,3.1
		c3.9,0,7.7,0,11.6,0c1.1,0,1.4-0.3,1.4-1.4c0-5.1,0-10.2,0-15.3c0-0.4,0-0.7,0-1.1c0.1-1.1,0.7-1.7,1.7-1.7c1,0,1.6,0.6,1.6,1.6
		c0,1.4,0,2.8,0,4.3c0,4.1,0.1,8.3,0.1,12.4c0,1,0.4,1.2,1.3,1.2c1.1,0,2.3,0,3.4,0c1,0,1.7,0.5,1.7,1.6c0,1.1-0.6,1.7-1.8,1.7
		c-7.5,0-14.9,0-22.4,0c-2.6,0-5.1-2.3-5.1-5c0-6.7-0.8-13.5,0.7-20.1c3.1-14.1,11.6-23.4,25.1-28.3c0.4-0.1,0.8-0.3,1.6-0.5
		c-9.3-4.9-14.3-12.3-14.4-22.6c0-7.1,2.8-13.2,8.1-18C69.3,45.8,85,47.1,94,58c5,6.1,6.5,13.3,4.8,20.9C97,86.6,92.3,92,85.1,95.7z
		 M75,94.4c11.7,0,21-9.3,21-21c0-11.5-9.5-21-21-21c-11.5,0-21,9.5-21,21.1C54,85,63.4,94.3,75,94.4z"/>
	<path class="st0" d="M32.8,49.2c0,1.9-1.3,2.6-2.8,1.8c-2.9-1.7-5.8-3.3-8.7-5c-3.4-1.9-6.7-3.9-10.1-5.9c-0.5-0.3-1-1.1-1.1-1.7
		c-0.1-1.4,1.3-2,2.7-1.3c2.6,1.4,5.1,2.9,7.7,4.4c3.7,2.1,7.4,4.2,11,6.4C32.1,48.3,32.6,49,32.8,49.2z"/>
	<path class="st0" d="M32.8,100.7c-0.2,0.2-0.5,0.8-1,1.1c-6.3,3.7-12.7,7.4-19,11c-1,0.6-2.1,0.4-2.6-0.5c-0.5-0.9-0.2-1.8,0.9-2.5
		c6.3-3.6,12.5-7.3,18.8-10.9C31.5,98.2,32.9,98.8,32.8,100.7z"/>
	<path class="st0" d="M139.9,38.8c-0.2,0.2-0.5,0.9-1,1.1c-6.4,3.7-12.7,7.4-19.1,11.1c-1,0.6-2,0.3-2.5-0.4c-0.5-0.9-0.2-2,0.9-2.6
		c6.3-3.6,12.5-7.3,18.8-10.9C138.5,36.4,139.9,37,139.9,38.8z"/>
	<path class="st0" d="M119.1,98.7c0.2,0.1,0.6,0.2,1,0.4c6.2,3.6,12.4,7.2,18.6,10.7c0.1,0.1,0.2,0.1,0.3,0.2
		c0.9,0.6,1.2,1.5,0.7,2.4c-0.5,0.8-1.5,1.1-2.4,0.5c-2.6-1.4-5.1-2.9-7.7-4.4c-3.8-2.2-7.5-4.3-11.2-6.5c-0.5-0.3-1-1-1.2-1.7
		C117,99.3,117.8,98.7,119.1,98.7z"/>
	<path class="st0" d="M113.4,11.6c-0.3,0.7-0.5,1.2-0.8,1.6c-3.5,6.1-7.1,12.3-10.6,18.4c-0.7,1.1-1.7,1.5-2.6,1
		c-0.8-0.5-1-1.6-0.3-2.7c3.2-5.6,6.4-11.2,9.7-16.7c0.5-0.8,0.8-1.7,1.4-2.4c0.5-0.4,1.4-0.7,2-0.6C112.6,10.3,113,11.1,113.4,11.6
		z"/>
	<path class="st0" d="M38.8,10.1c0.2,0.2,0.9,0.5,1.2,0.9c3.7,6.4,7.4,12.7,11.1,19.1c0.6,1,0.3,2.1-0.5,2.5
		c-0.9,0.4-1.9,0.1-2.5-0.9c-3.6-6.3-7.3-12.6-10.9-18.8C36.4,11.5,37,10.1,38.8,10.1z"/>
	<path class="st0" d="M76.7,13.1c0,3.6,0,7.2,0,10.8c0,1.5-0.5,2-1.6,2.1c-1.2,0-1.7-0.6-1.7-2c0-7.2,0-14.4,0-21.7
		c0-1.4,0.5-2.1,1.6-2.1c1.1,0,1.7,0.7,1.7,2.1C76.7,6,76.7,9.6,76.7,13.1z"/>
	<path class="st0" d="M13.1,76.7c-3.7,0-7.4,0-11.1,0c-1.3,0-2.1-1-1.7-2.2c0.3-0.9,1-1.1,1.9-1.1c4.9,0,9.9,0,14.8,0
		c2.4,0,4.7,0,7.1,0c1.3,0,1.9,0.6,1.9,1.7c0,1.1-0.6,1.6-1.8,1.6C20.5,76.7,16.8,76.7,13.1,76.7z"/>
	<path class="st0" d="M136.9,73.3c3.7,0,7.3,0,11,0c1.4,0,2.2,1,1.8,2.2c-0.3,0.9-1,1.2-1.9,1.2c-4.3,0-8.6,0-12.9,0
		c-2.9,0-5.8,0-8.8,0c-1.5,0-2.1-0.5-2.1-1.7c0-1.1,0.6-1.6,2.1-1.6C129.6,73.3,133.2,73.3,136.9,73.3z"/>
</g>
</svg>
