<?xml version="1.0" encoding="utf-8"?>
<!-- Generator: Adobe Illustrator 24.3.0, SVG Export Plug-In . SVG Version: 6.00 Build 0)  -->
<svg version="1.1" id="Layer_1" xmlns="http://www.w3.org/2000/svg" xmlns:xlink="http://www.w3.org/1999/xlink" x="0px" y="0px"
	 viewBox="0 0 150 150" style="enable-background:new 0 0 150 150;" xml:space="preserve">
<style type="text/css">
	.st0{fill:#005BAB;}
</style>
<g>
	<path class="st0" d="M112,89.2c0-9.4,0-18.9,0-28.3c0-1.1,0.1-2.2-0.1-3.2c-0.1-0.6-0.8-1.4-1.3-1.5c-4.4-1.2-5.3-3-3.8-7.4
		c0.2-0.7,0-1.6,0-2c-3,3-5.7,5.8-8.4,8.7c-0.7,0.7-0.9,1.8-1.3,2.8c0.9,0.2,1.8,0.7,2.6,0.7c3,0,4.8,1.3,5.5,4.3
		c1.8,8.1,3.6,16.1,5.3,24.2c0.7,3.3-0.6,5.3-3.3,5.8c-2.7,0.5-4.8-1.1-5.5-4.3c-1.1-4.4-2.1-8.8-3.3-13.2c-0.3-0.9-1.3-2.3-1.9-2.3
		c-2.1,0-5.1-0.2-6.2,1.1c-3.7,4.1-4,4.4-9.5,1.3c0,4.7,0,9.1,0,13.4c-0.4,0-0.8,0-1.1,0c0-3.7,0-7.5,0-11.2c0-4.7,0-4.7-4.7-4.8
		c-2,0-3.9,0-5.9,0c-2.2,0-3.3-1.1-3.3-3.3c-0.1-11.2-0.1-22.4-0.3-33.6c0-2.8,1.6-3.4,3.7-3.4c2.3-0.1,3.3,1.2,3.3,3.5
		c0,5,0.1,10,0.2,15.1c0,1,0.2,2,0.3,3.7c1.2-0.9,1.9-1.3,2.5-1.8c4.6-4,9.2-8,13.8-12c6.1-5.2,7.9-5.4,14.9-1.5
		c1.1-3.1,2.7-5.8,6.1-6.8c4.7-1.5,9.7,1.6,10.2,6.4c0.2,1.6,0.1,3,2.3,3c2-0.1,4,0.6,4.9-2.4c1.5-5,3.5-9.8,5.2-14.7
		c0.7-2.1,2-2.9,4-2.1c2.1,0.8,1.8,2.5,1.2,4.2c-2.1,6-4.2,12.1-6.4,18.1c-0.7,1.9-0.1,2.5,1.7,2.5c4,0,8.1,0.1,12.1,0
		c2.2,0,3.4,0.8,3.3,3.1c-0.1,2,0.9,5-2.8,5c-2.3,0-2.1,1.6-2.1,3.1c0,9.1,0,18.1,0,27.2c0,0.9,0,1.9,0,2.8c-0.2,0-0.5,0-0.7,0.1
		c-0.1-1-0.2-2-0.2-3c0-8.8-0.1-17.5,0.1-26.3c0-2.8-0.7-4-3.8-3.9c-7.6,0.3-15.2,0.2-22.7,0.1c-2.9-0.1-3.5,1.1-3.5,3.6
		c0.1,8.9,0,17.7,0,26.6c0,1,0,2,0,3.1C112.8,89.2,112.4,89.2,112,89.2z M99.1,52.6c3.5-1.6,5.1-3.7,5.3-6.6c0.3-3.1-1.1-5.6-3.9-7
		c-2.6-1.4-5.3-1.3-7.5,0.5c-4,3.2-7.8,6.6-11.6,10c-2.5,2.1-5,4.2-7.3,6.5c-2.3,2.3-2.8,5-1.7,8.1c1.1,3.1,3.6,2.9,6.1,2.8
		c0.5,0,1-0.1,1.5,0c2.9,0.6,4.2-0.9,5.2-3.4c2.7-6.7,5.5-13.2,8.3-19.8c1.2-2.9,3.6-4.1,6-3.1c2.2,1,2.9,3.4,1.8,6.3
		C100.7,48.6,100,50.3,99.1,52.6z M93.8,66.6c1.7,0.6,4.2-0.2,4.8,2.7c1.3,6.5,2.8,13,4.1,19.5c0.5,2.3,1.8,3.5,4,3.4
		c2-0.1,3.4-2.2,2.9-4.7c-1.7-8.2-3.6-16.3-5.5-24.4c-0.5-2.3-2-3.2-4.2-3.2C95.6,59.9,94,61.6,93.8,66.6z M127.8,48.9
		C127.8,48.8,127.8,48.8,127.8,48.9c-5.7,0-11.4,0-17.1-0.1c-2.2,0-3.3,0.8-3.3,3c0,2.2,0.9,3.1,3.2,3.1c11.5-0.1,23-0.1,34.5,0
		c2.2,0,3-1,3-3c0-2.1-0.8-3.2-3.2-3.1C139.2,49,133.5,48.9,127.8,48.9z M82,73.9c0.8,0.8,1.6,2.3,2.7,2.6c1,0.3,2.4-0.6,3.5-1.3
		c0.6-0.4,0.8-1.3,1.1-2.1c3.7-8.8,7.3-17.6,11-26.4c0.9-2.1,1.1-4.2-1.3-5.3c-2.5-1.2-3.8,0.6-4.7,2.6c-3.8,9-7.5,17.9-11.3,26.9
		C82.7,71.8,82.5,72.6,82,73.9z M112.6,47.6c3.9-0.1,7.1-3.3,7-7.2c0-3.8-3.4-7-7.3-6.9c-3.7,0.1-7,3.4-6.9,7.1
		C105.5,44.5,108.8,47.6,112.6,47.6z M66.4,44.7c0.1,0,0.1,0,0.2,0c0,2.7-0.2,5.5,0.1,8.2c0.1,0.9,1.1,2.3,1.9,2.5
		c1.6,0.4,2.9-0.4,2.9-2.4c-0.1-5.5-0.1-11-0.2-16.5c0-1.7-0.9-2.6-2.6-2.5c-1.7,0-2.3,1.1-2.3,2.7C66.5,39.4,66.4,42,66.4,44.7z
		 M82.6,67.9c-4.5,0-8.9-0.1-13.2,0.1c-0.9,0-1.7,1.3-2.6,2c0.9,0.7,1.7,1.9,2.7,2c3,0.3,6.1-0.1,9.1,0.1
		C81.4,72.4,82.3,70.9,82.6,67.9z M137.3,25.8c0.2-0.3,0.5-0.6,0.7-0.9c-0.6-0.2-1.4-0.8-1.9-0.6c-0.8,0.3-1.8,0.9-2.1,1.6
		c-1.7,4.6-3.4,9.2-4.8,13.9c-0.2,0.6,0.6,1.5,0.9,2.2c0.7-0.5,1.7-0.9,2-1.6c1.5-4,2.9-8.1,4.3-12.2
		C136.6,27.5,137,26.6,137.3,25.8z M71.3,66.4c0-3.6,0-6.8,0-9.9c-4.6,0.4-4.6,0.4-4.6,4.9c0,0.5,0,1,0,1.5
		C66.7,67,67.5,67.5,71.3,66.4z M119.2,45.4c0.1,0.4,0.3,0.9,0.4,1.3c2.9,0,5.8,0.1,8.7-0.1c0.5,0,1-0.9,1.5-1.4
		c-0.6-0.5-1.1-1.3-1.8-1.4c-2-0.2-4.1-0.3-6.2,0C121,43.9,120.1,44.8,119.2,45.4z M91.7,71.8c3.9,0.9,5.9,0.4,5.8-1.4
		c-0.1-0.8-1.1-2.1-1.9-2.3C93,67.4,92,68.4,91.7,71.8z"/>
	<path class="st0" d="M120.6,123.4c0.6,0.1,1.1,0.3,1.7,0.4c1.9,0.6,3.4,2,2.6,3.9c-0.5,1.2-2.3,2.5-3.6,2.6
		c-4.4,0.3-8.8,0.1-13.3,0.1c-3.3,0-3.4,0.2-2.3,3.4c1.2,3.3,0.4,6-2.2,7c-2.7,1.1-5.1-0.2-6.5-3.3c-3.9-8.6-1.5-6.9-10.8-7
		c-9.3-0.1-18.7,0-28,0.1c-1,0-2,0.7-2.9,1.1c0.8,0.6,1.5,1.4,2.4,1.7c2.3,0.8,4.7,1.4,7,2.2c3.2,1,4.5,3.2,3.7,6
		c-0.7,2.5-3.1,3.5-6.3,2.6c-2.4-0.7-4.7-1.7-7.1-2c-5.1-0.7-7.7-3.8-9.1-8.4c-0.7-2.4-1.9-3.4-4.6-3.4c-8.8,0.2-17.5,0.1-26.3,0
		c-1.2,0-2.7-0.3-3.5-1c-0.7-0.6-1.2-2.4-0.8-3.1c0.7-1.1,2.1-2.2,3.3-2.4c3-0.4,6.1-0.2,9.1-0.2c0.8,0,1.7,0,2.9,0
		c-1.3-5.5-0.9-10.1,5-12.1c3.7-1.3,6.4,0.2,10.1,5.1c0.4-0.5,0.8-1,1.2-1.5c2.3-3,5.3-4.6,9.1-4.6c6.7,0,13.4,0,20.1,0
		c0.9,0,1.9-0.1,2.6,0.3c3.2,1.9,5.7,0.4,8.4-1.2c3.3-1.9,6.8-3.6,10.2-5.4c2-1.1,3.9-1,5.8,0.3c6.4,4.3,12.9,8.3,19.1,12.7
		c1.6,1.1,2.4,3.4,3.5,5.2C120.9,122.9,120.8,123.2,120.6,123.4z M61.4,111.6c-3.1,0-6.3-0.1-9.4,0c-8,0.2-11.9,6.1-8.8,13.5
		c1.6,3.9,3.3,7.8,5.3,11.5c0.7,1.4,2.2,2.8,3.7,3.4c3.3,1.3,6.8,2,10.1,3.1c2.5,0.8,4.4,0.5,5.3-2.1c0.9-2.6-0.9-3.9-3-4.6
		c-2.6-0.9-5.3-1.4-7.9-2.5c-1.1-0.4-2-1.6-2.7-2.6c-0.6-1-0.8-2.2-1.2-3.3c-1.4-3.9-1.1-4.3,3.2-4.3c5,0,10-0.1,15.1,0
		c4.1,0.1,8.2,0.5,10.7-3.7c0.2-0.4,0.8-0.6,1.2-0.8c3.1-1.6,6.3-3.2,9.4-4.9c2-1.2,3.6-1.1,5.6,0.3c4.8,3.4,9.8,6.5,14.8,9.7
		c2.5,1.6,4.7,1.3,6-0.6c1.2-1.8,0.5-4.1-1.9-5.7c-6.2-4.1-12.4-8.3-18.8-12.1c-1.3-0.8-3.5-0.8-4.9-0.3c-3.8,1.6-7.4,3.7-11,5.7
		c-2.5,1.4-4.9,2.9-7.8,0.8c-0.8-0.6-2.3-0.4-3.5-0.4C67.7,111.6,64.5,111.6,61.4,111.6z M53.4,124.8c0.1,2.9,0.4,4.7,3.3,4.7
		c21.3,0,42.6,0,64-0.1c1.1,0,2.9-1.2,3.1-2.1c0.4-2.3-1.7-2.2-3.2-2.3c-0.7,0-1.5,0.5-2.2,0.6c-1.8,0.1-3.5,0.2-5.3,0.1
		c-0.9-0.1-1.9-0.7-2.8-0.7c-15.8-0.1-31.6-0.1-47.4-0.1C59.8,124.8,56.7,124.8,53.4,124.8z M26.4,119.4c0.1,3.7,3.2,6.7,6.9,6.6
		c3.5,0,6.8-3.4,6.7-6.9c-0.1-3.7-3.2-6.8-6.8-6.8C29.3,112.3,26.3,115.4,26.4,119.4z M43.1,129.2c-0.5-4.4-2.1-5.4-5.6-3.5
		c-3.1,1.6-6,1.7-9,0c-0.6-0.4-1.5-0.7-2.2-0.7c-3.7-0.1-7.5-0.1-11.2-0.1c-1.7,0-3.9,0.1-3.5,2.4c0.1,0.9,2.2,2,3.5,2.1
		c8.6,0.2,17.1,0.1,25.7,0.1C41.6,129.4,42.4,129.3,43.1,129.2z M80.6,122.6c0.2,0.3,0.3,0.5,0.5,0.8c6.1,0,12.2,0,18.4,0
		c-1.3-5.3-3.4-6.7-8-5.5c-2.6,0.6-5.2,1.2-7.6,2.2C82.6,120.5,81.7,121.7,80.6,122.6z M99.6,130.5c-4.4,0.1-4.4,0.1-2.7,4.3
		c0.5,1.3,0.9,2.8,1.8,3.6c1,0.9,2.8,1.7,4,1.4c1.1-0.2,2.4-1.9,2.6-3.1C105.9,133.4,102.9,130.4,99.6,130.5z M108.3,123.2
		c-0.2-0.3-0.3-0.8-0.6-1c-3.9-2.5-7.7-5.1-11.7-7.5c-0.8-0.5-2.3,0.1-3.5,0.2c5.5,2.5,5.5,2.5,7.3,5.4
		C101.8,123.9,103.9,124.6,108.3,123.2z"/>
	<path class="st0" d="M40.1,47.9c-3.6,2.6-4,4.4-2.3,7.4c1.7,3.1,3.7,6.1,5,9.4c0.9,2.2,1.4,4.8,1.1,7.1c-0.8,7.3-2.1,14.6-3.1,21.9
		c-0.6,4.1-3.4,6.6-6.8,6.1c-3.5-0.5-5.5-3.5-5-7.7c0.2-1.7,0.4-3.4,0.6-5.1c-0.3-0.1-0.6-0.3-0.9-0.4c-1.5,2.5-3.1,5-4.6,7.5
		c-1.7,2.7-4.2,4.1-6.8,3.5c-4.4-1-6.3-5.3-3.9-9.4c2.9-5.1,6.1-10.1,9.1-15.2c0.6-1,1-2.4,0.8-3.6c-1-6-2-12-3.4-17.9
		c-1.1-4.9-0.4-9.3,2.6-13.4c3.2-4.5,6.4-9,9.6-13.4c2.6-3.7,6.4-5.1,10.2-4.1c4.9,1.4,7.4,4.2,7.5,9.2c0.2,7.9,0.2,15.7,0.1,23.6
		c0,3.4-2.1,5.6-4.9,5.5c-2.8,0-4.7-2.2-4.8-5.6C40,51.7,40.1,50,40.1,47.9z M40.1,31.4c0.4,0,0.7,0,1.1,0c0,0.9,0,1.9,0,2.8
		c0,6.4,0,12.8,0,19.2c0,2.5,1,4.3,3.7,4.5c2.1,0.2,3.7-1.7,3.7-4.4c0-8.3,0-16.5-0.1-24.8c0-1.4-0.5-3-1.4-4
		c-4.2-4.8-10.6-4.5-14.4,0.7c-3,4.1-5.9,8.3-8.9,12.5c-4.6,6.2-4.8,12.1-0.4,18.5c2.6,3.9,5.4,7.7,7.8,11.8c1,1.6,1.5,3.8,1.4,5.7
		c-0.6,6-1.6,11.9-2.5,17.8c-0.6,3.8,1,6.5,4.1,7c2.8,0.4,5.2-1.8,5.7-5.4c0.6-3.8,0.7-7.7,1.7-11.4c2.5-9.6,1.4-18.4-4.9-26.3
		c-1.5-2-1.5-3.9,0.1-5.9c2.6-3.3,3.9-6.9,3.4-11.2C39.9,36.1,40.1,33.7,40.1,31.4z M23.3,58.6c-0.3,0.1-0.5,0.3-0.8,0.4
		c0.5,3.1,1.3,6.1,1.5,9.2c0.1,2-0.3,4.3-1.2,6c-2.6,4.8-5.8,9.4-8.5,14.1c-1.8,3.1-1.1,5.9,1.4,7.5c2.7,1.6,5.5,0.8,7.4-2.4
		c1.8-2.9,3.6-5.9,5.3-8.9c3.6-6.4,5.3-12.8-0.1-19.3c-1.2-1.4-2-3.1-3.1-4.7C24.6,60,23.9,59.3,23.3,58.6z"/>
	<path class="st0" d="M51.1,20.8c-4.5-0.1-7.6-3.2-7.5-7.7c0-4.3,3.4-7.6,7.7-7.6c4.3,0,7.6,3.5,7.6,7.8
		C58.8,17.6,55.5,20.8,51.1,20.8z M51.5,6.5c-3.5-0.1-6.8,2.8-7,6.2c-0.2,3.7,2.6,7,6.3,7.2c3.8,0.2,6.9-2.5,7.1-6.3
		C58.1,9.8,55.3,6.7,51.5,6.5z"/>
	<path class="st0" d="M12.8,118.1c-1.2-2.1-2.5-4.3-3.7-6.4c0.3-0.2,0.5-0.3,0.8-0.5c1.3,2.1,2.5,4.3,3.8,6.4
		C13.4,117.8,13.1,117.9,12.8,118.1z"/>
	<path class="st0" d="M95.4,9.9c2.3,0.9,4.6,1.8,6.9,2.7c-0.1,0.3-0.2,0.6-0.3,0.9c-2.3-0.9-4.6-1.8-6.9-2.7
		C95.2,10.5,95.3,10.2,95.4,9.9z"/>
	<path class="st0" d="M70.6,7.3c-2.3,0.2-4.5,0.4-6.8,0.6c0-0.3-0.1-0.6-0.1-0.9c2.3-0.2,4.6-0.3,6.9-0.5C70.6,6.8,70.6,7,70.6,7.3z
		"/>
	<path class="st0" d="M126.6,31.9c-1.6-1.7-3.1-3.3-4.7-5c0.2-0.2,0.4-0.4,0.6-0.6c1.6,1.7,3.2,3.3,4.8,5
		C127,31.5,126.8,31.7,126.6,31.9z"/>
	<path class="st0" d="M130.6,119.9c1.3-2.1,2.7-4.1,4-6.2c0.2,0.1,0.5,0.3,0.7,0.4c-1.3,2.1-2.6,4.2-3.9,6.3
		C131.1,120.3,130.9,120.1,130.6,119.9z"/>
	<path class="st0" d="M1.9,81.1c0.2,2.3,0.4,4.6,0.6,7c-0.3,0-0.5,0-0.8,0.1c-0.2-2.3-0.4-4.6-0.6-7C1.4,81.1,1.7,81.1,1.9,81.1z"/>
	<path class="st0" d="M4.4,56.3c0.9-2.3,1.8-4.7,2.7-7c0.3,0.1,0.6,0.2,0.8,0.3c-0.9,2.3-1.7,4.7-2.6,7C5,56.5,4.7,56.4,4.4,56.3z"
		/>
	<path class="st0" d="M5.5,103.5c-0.8-2.3-1.5-4.6-2.3-6.9c0.3-0.1,0.6-0.2,0.9-0.3c0.7,2.3,1.5,4.6,2.2,6.9
		C6.1,103.3,5.8,103.4,5.5,103.5z"/>
	<path class="st0" d="M11,41.6c1.4-2.1,2.8-4.2,4.2-6.3c0.2,0.2,0.5,0.3,0.7,0.5c-1.4,2.1-2.7,4.2-4.1,6.3
		C11.6,42,11.3,41.8,11,41.6z"/>
	<path class="st0" d="M141.7,99.6c-0.8,2.2-1.6,4.4-2.4,6.6c-0.3-0.1-0.5-0.2-0.8-0.3c0.8-2.2,1.5-4.5,2.3-6.7
		C141.1,99.3,141.4,99.4,141.7,99.6z"/>
	<path class="st0" d="M115.6,21.5c-2.1-1.4-4.1-2.8-6.2-4.2c0.2-0.2,0.3-0.5,0.5-0.7c2.1,1.4,4.1,2.8,6.2,4.2
		C115.9,21,115.7,21.3,115.6,21.5z"/>
</g>
</svg>
