<?xml version="1.0" encoding="utf-8"?>
<!-- Generator: Adobe Illustrator 24.3.0, SVG Export Plug-In . SVG Version: 6.00 Build 0)  -->
<svg version="1.1" id="Layer_1" xmlns="http://www.w3.org/2000/svg" xmlns:xlink="http://www.w3.org/1999/xlink" x="0px" y="0px"
	 viewBox="0 0 150 150" style="enable-background:new 0 0 150 150;" xml:space="preserve">
<style type="text/css">
	.st0{fill:#005BAB;}
</style>
<g>
	<path class="st0" d="M124.9,86.3c1.4,0,2.3,1,2.4,2.6c0.1,2.3,0.1,4.6,0.2,6.8c0.6,12.1,5.5,22.4,14,31c0.8,0.8,1.6,1.6,2.4,2.4
		c1.1,1.2,1.2,2.6,0.2,3.6c-1,1-2.5,1-3.6-0.1c-8.7-8-14.8-17.6-16.9-29.4c-0.8-4.6-0.8-9.5-1-14.2
		C122.3,87.3,123.4,86.2,124.9,86.3z"/>
	<g>
		<path class="st0" d="M149.7,75.3c-0.2,0.3-0.3,0.7-0.5,1c-1.2,2.9-3.3,4.6-6.5,4.8c-0.6,0-1.2,0-1.7,0c-44,0-88,0-132,0
			c-1,0-2.1,0-3-0.3c-3.5-0.9-5.6-3.8-5.6-7.7c0-9.5,0-19.1,0-28.6c0-6.3,0.2-12.6-0.1-19c-0.2-5.5,2.8-9.3,9.4-9.3
			c22.3,0.2,44.5,0.1,66.8,0.1c21.5,0,43.1,0,64.6,0c3,0,5.6,0.7,7.3,3.3c0.6,0.8,0.9,1.8,1.3,2.7C149.7,40.1,149.7,57.7,149.7,75.3
			z M12.8,56.4c41.6,0,82.9,0,124.5,0c0,6.6,0,13.2,0,19.8c1.4,0,2.6,0,3.8,0c3,0,3.7-0.7,3.7-3.7c0-15.8,0-31.5,0-47.3
			c0-3.1-0.7-3.8-3.8-3.8c-43.9,0-87.9,0-131.8,0c-3.1,0-3.8,0.7-3.8,3.8c0,15.8,0,31.5,0,47.3c0,0.5-0.1,1.2,0.1,1.6
			c0.5,0.8,1.1,1.9,1.8,2c1.8,0.3,3.6,0.1,5.6,0.1C12.8,69.5,12.8,63,12.8,56.4z M17.9,66.2c38.2,0,76.2,0,114.3,0
			c0-1.7,0-3.2,0-4.8c-38.2,0-76.2,0-114.3,0C17.9,63,17.9,64.6,17.9,66.2z M132.2,71.4c-38.2,0-76.2,0-114.3,0c0,1.7,0,3.2,0,4.8
			c38.1,0,76.2,0,114.3,0C132.2,74.5,132.2,73,132.2,71.4z"/>
		<path class="st0" d="M27.7,93.8c-0.2,10-2.9,19.1-8.3,27.5c-2.7,4.3-6.2,8-9.9,11.5c-1.1,1-2.6,1-3.5,0c-1-1-1-2.4,0-3.5
			c1.3-1.4,2.7-2.8,4.1-4.2c8.5-9.2,12.5-20.1,12.6-32.5c0-1.3,0-2.5,0-3.8c0.1-1.5,1-2.4,2.3-2.5c1.4-0.1,2.5,0.8,2.6,2.4
			C27.8,90.3,27.7,92.1,27.7,93.8z"/>
		<path class="st0" d="M52.6,99.9c0.2,8.7-2,17.4-7.1,25.2c-1.7,2.6-3.8,5-5.9,7.4c-1.1,1.3-2.5,1.3-3.6,0.4c-1.1-1-1.2-2.5,0-3.7
			c3.3-3.5,6.1-7.3,8-11.7c2.4-5.3,3.6-10.9,3.6-16.8c0-2.1,0-4.3,0-6.4c0-1.9,0.9-3,2.5-3c1.6,0,2.5,1.1,2.5,3.1
			C52.6,96,52.6,97.6,52.6,99.9z"/>
		<path class="st0" d="M97.5,98.8c0-1.4,0-3.1,0-4.8c0-1.7,1-2.7,2.4-2.7c1.4,0,2.5,1,2.5,2.7c0.1,2.1,0,4.3,0,6.4
			c0,10.8,3.5,20.2,10.9,28.1c1.7,1.8,1.9,3.3,0.7,4.4c-1.2,1.1-2.6,0.8-4.3-1.1C101.1,122.6,97.2,111.7,97.5,98.8z"/>
		<path class="st0" d="M70.1,111.2c0-6.3,0-12.5,0-18.8c0-0.5,0-1,0-1.5c0.2-1.2,1.2-2.1,2.4-2.2c1.2,0,2.2,0.8,2.5,2.1
			c0.1,0.4,0.1,0.9,0.1,1.3c0,12.6,0,25.3,0,37.9c0,0.5,0,1-0.1,1.5c-0.3,1.3-1.3,2-2.5,2c-1.3-0.1-2.1-0.8-2.3-2
			c-0.1-0.5-0.1-1-0.1-1.5C70.1,123.7,70.1,117.4,70.1,111.2z"/>
		<path class="st0" d="M50.2,38.8c0-1.6,0-3.2,0-4.8c16.5,0,33,0,49.6,0c0,1.6,0,3.1,0,4.8C83.3,38.8,66.9,38.8,50.2,38.8z"/>
	</g>
	<path class="st0" d="M139.7,26.6c0,1.6,0,3.1,0,4.7c-1.6,0-3.2,0-4.8,0c0-1.6,0-3.1,0-4.7C136.5,26.6,138,26.6,139.7,26.6z"/>
	<path class="st0" d="M129.8,26.6c0,1.6,0,3.1,0,4.7c-1.6,0-3.1,0-4.8,0c0-1.5,0-3.1,0-4.7C126.5,26.6,128,26.6,129.8,26.6z"/>
</g>
</svg>
