<?xml version="1.0" encoding="utf-8"?>
<!-- Generator: Adobe Illustrator 24.3.0, SVG Export Plug-In . SVG Version: 6.00 Build 0)  -->
<svg version="1.1" id="Layer_1" xmlns="http://www.w3.org/2000/svg" xmlns:xlink="http://www.w3.org/1999/xlink" x="0px" y="0px"
	 viewBox="0 0 150 150" style="enable-background:new 0 0 150 150;" xml:space="preserve">
<style type="text/css">
	.st0{fill:#005BAB;}
</style>
<g>
	<path class="st0" d="M40.8,116.2c-1.2,0.1-2.5,0.1-3.7,0c-0.6-0.5-1.3-0.6-1.9,0c-4,0-8.1,0.1-12.1,0.1c-1.2,0-1.6,0.3-1.5,1.5
		c0.1,0.9,0,1.8,0,2.6c-0.2,3.2-2.5,5.5-5.6,5.5c-3.1,0-5.8-2.2-5.8-5.3c0-7.7-0.3-15.5,0.1-23.2c0.4-7.5,3.6-13.8,9-19
		c0.8-0.7,0.9-1.1,0-1.9c-6.1-5.8-9.1-13-9.2-21.3c-0.1-5.9,0-11.9,0-17.8c0-3.5,2.4-6,5.7-6c3.2,0,5.6,2.5,5.7,5.9
		c0,2.3,0,2.3,2.4,2.3c6.2,0,12.5,0,18.7,0c1.9,0,1.7,0.2,1.7-1.7c0-1,0-1.9,0.3-2.9c1-2.5,3.3-3.9,6.1-3.7c2.4,0.2,4.8,2.4,4.8,4.9
		c0.1,8.2,0.7,16.5-0.5,24.7c-0.2,1.7-0.8,3.3-1.5,4.9c-0.4,0.9-0.8,1.2-1.7,0.6c-2.8-1.8-5.6-3.5-8.4-5.3c-0.6-0.4-0.8-0.8-0.5-1.5
		c0.4-1.1,0.6-2.3,0.9-3.4c0.3-1.1,0-1.5-1.2-1.5c-2.5,0.1-5,0-7.5,0c-4,0-8.1,0-12.1,0c-1.1,0-1.5,0.2-1.2,1.4
		c1.1,5.6,4,10.1,9,13.1c3.2,2,6.7,3.6,10,5.3c4.2,2.2,7.8,5.2,10.3,9.3c0.3,0.6,0.6,1.2,0.8,1.8c-0.4,0.1-0.9,0.1-1.3,0.2
		c0,0,0.1-0.1,0.1-0.1c0-0.2-0.1-0.3-0.3-0.3c-2.5-4.2-6-7.3-10.4-9.6c-2.9-1.5-5.8-3-8.6-4.5c-7.3-4-11.2-10.1-11.4-18.3
		c-0.1-4.9,0-9.8,0-14.7c0-0.5,0-1-0.1-1.4c-0.4-2.5-2.2-4.2-4.4-4.1c-2.4,0.1-4.1,2-4.1,4.6c0,6.1,0,12.3,0,18.4
		c0,1.6,0.1,3.1,0.5,4.6c1.3,6.2,4.3,11.5,9.1,15.7c1.3,1.1,1.3,1.1,0,2.3c-5.7,5.1-9.1,11.4-9.4,19c-0.3,7.6-0.1,15.3-0.1,22.9
		c0,1.8,1.3,3.3,3,3.8c2.9,0.8,5.5-1.2,5.5-4.3c0-6.1-0.1-12.2,0-18.3c0.1-7.4,3.5-13.2,9.7-17.3c2-1.3,4-1.3,6-0.1
		c1.5,0.9,2.8,2.1,4,3.4c3.4,3.5,5.3,7.6,5.7,12.4c-0.2,0.1-0.2,0.2,0,0.3c0,0.1,0,0.2,0,0.3c-0.5,0.4-0.3,0.9-0.3,1.4
		c0,2.3,0,4.6,0,7c0,0.3,0.2,0.8-0.3,1c-0.7-0.6,0.3-1.7-0.7-2.2c0-1.9-0.1-3.9,0-5.8c0-0.8-0.2-1.1-1.1-1.1c-6.9,0-13.7,0-20.6,0
		c-0.9,0-1.1,0.3-1.1,1.1c0,3.9,0.1,7.7,0,11.6c0,1.1,0.3,1.3,1.3,1.3c4.4,0,8.7,0,13.1,0c0.2,0.6,0.7,0.4,1.1,0.4
		c0.9,0,1.8,0,2.8,0C40.5,115.3,40.8,115.5,40.8,116.2z M32.9,53.4C32.9,53.4,32.9,53.4,32.9,53.4c3.4,0,6.8,0,10.3,0
		c0.8,0,1.2-0.2,1.2-1.1c-0.1-3.4,0-6.8,0-10.1c0-0.8-0.3-1-1.1-1c-6.8,0-13.7,0-20.5,0c-1,0-1.2,0.3-1.2,1.2c0,3.3,0.1,6.6,0,9.9
		c0,0.9,0.3,1.2,1.2,1.2C26.1,53.4,29.5,53.4,32.9,53.4z M54.3,48.3c0-3.9,0-7.1,0-10.3c0-0.6,0-1.1-0.1-1.7
		c-0.4-2.1-2.4-3.6-4.4-3.5c-2.1,0.2-3.9,1.8-4,3.9c-0.3,6.3,0.4,12.6-0.4,18.9c-0.2,1.2-0.2,2.4-0.7,3.5c-0.3,0.5-0.2,0.8,0.3,1.1
		c2.3,1.4,4.6,2.9,6.8,4.4c0.6,0.4,0.8,0.2,1-0.4c0.4-1.4,0.8-2.9,1.1-4.3C54.6,55.9,54.1,51.8,54.3,48.3z M32.8,99.4
		c3.3,0,6.7,0,10,0c1.1,0,1.3-0.3,1.1-1.3c-1.2-5.5-4.2-9.7-8.9-12.8c-1.5-1-2.9-0.9-4.3,0.1c-4.6,3-7.6,7.2-8.7,12.6
		c-0.2,1.1-0.1,1.4,1.1,1.4C26.3,99.4,29.6,99.4,32.8,99.4z"/>
	<path class="st0" d="M98.2,125c-1.7-0.4-2.6-1.5-2.7-3.2c-0.1-1-0.4-1.1-1.2-1.1c-5.3,0-10.7,0-16,0c-2.5,0-3.4-1.2-2.8-3.6
		c0.8-3.4,2.9-5.9,6.2-7.9c-1.1,0-1.8,0-2.5,0c-2.2,0-3.7-1.1-4.2-2.9c-0.5-1.7,0.3-3.1,2.3-4.3c1.2-0.7,1.3-1.7,0-2.2
		c-3.4-1.5-3-5.8,0.1-6.9c0.8-0.3,0.9-0.9,0.9-1.6c0-1.2-0.1-2.5,0.2-3.7c0.9-3.9,4.6-6.9,8.8-7c2.1-0.1,4.3-0.1,6.4,0
		c5.1,0.2,9,4.2,9,9.2c0,0.5,0,1.1,0,1.6c0,0.9,0.4,1.3,1.2,1.7c1.4,0.7,2.2,1.8,2.2,3.4c0,1.5-0.8,2.6-2.1,3.2
		c-0.6,0.3-1.2,0.6-1.2,1.3c0.1,0.9,0.8,1.5,1.4,1.9c1.7,1,2.3,2.3,1.6,4.1c-0.1,0.3-0.3,0.5-0.4,0.9c1.5,0.2,2.6,0.8,2.9,2.3
		c0.1,0.5,0.1,1-0.5,1.2c-0.6,0.2-0.8-0.3-1-0.8c-0.2-0.9-0.7-1.3-1.6-1.1c-0.7,0.1-1.1,0.7-1,1.4c0.1,0.9,0.7,1.3,1.5,1.3
		c1.2,0,2.4,0.1,3.5,0.6c0.5,0.2,0.8,0,1.1-0.3c1.9-2.3,4.4-3.6,7.4-4.2c0.7-0.1,0.9-0.3,0.9-1c0.1-1.4,0-2.6-1.5-3.4
		c-1.5-0.9-2.2-2.4-2.5-4.2c-0.1-0.6-0.4-1-1-1.2c-2-1-2.7-2.9-1.9-5c0.2-0.5,0.3-1.1,0.3-1.7c0-2.1-0.1-4.2,0.1-6.3
		c0.2-3.4,3.1-6,6.5-6c3.6-0.1,7.1,0,10.7,0c1,0,1.4,0.4,1.2,1.4c-0.2,0.6,0,0.9,0.6,1.3c1.4,0.9,1.8,2.4,1.9,4c0,1.4,0,2.9,0,4.3
		c0,1.2,0,2.3,0.5,3.5c0.8,1.8-0.2,3.7-2.1,4.6c-0.5,0.2-0.8,0.5-0.9,1.1c-0.4,2.1-1.5,3.7-3.3,4.9c-1.1,0.7-0.9,3.3,0.2,4
		c-0.9,0.8-1.5-0.3-2.2-0.3c-0.3-0.8,0.3-2-0.3-2.5c-0.6-0.4-1.7-0.1-2.6-0.1c-0.1,0-0.2,0-0.3,0c-2.1,0-2.1,0-2.1,2.1
		c0,1.2,0.2,2.2,1.3,2.8c1.2,0.6,2.2,0.3,3.2-0.4c0.1,0.5,0.2,0.9,0.5,1.3c-2,1.5-4.5,1.1-5.9-0.9c-0.3-0.4-0.4-0.9-1.1-0.8
		c-2.6,0.5-4.7,1.6-6.5,3.6c-0.3,0.3-0.5,0.6,0,1c1.3,1,2,2.6,2.6,4c-0.3,0.5-1.3-0.1-1.4,0.8c-1.1-3.7-3.4-5.6-7.4-5.4
		c-0.5,0-1-0.2-1.6-0.4c0,0.5-0.1,1-0.7,1.3c-1.6,0.9-2.6,2.3-3,4c-0.1,0.4-0.2,0.9-0.8,0.9c-1.3,0.1-2.1,0.8-2.3,2
		c-0.2,1.2,0.6,1.9,1.6,2.5C97.9,124.1,98.2,124.6,98.2,125z M98.4,107.7c0.5,0,1,0,1.5,0s1,0,1.5,0c1.6,0,2.7-0.6,3-1.7
		c0.3-1.2-0.2-2-1.8-2.8c-2-1.1-2-3.4,0-4.6c0.3-0.2,0.6-0.3,0.8-0.4c1.4-1,1.5-3,0-3.7c-2-0.9-2.3-2.4-2.2-4.3
		c0.1-4.8-3.1-8.1-8-8.3c-1.8-0.1-3.7-0.1-5.5,0c-4.1,0.2-7.3,2.7-7.9,6.3c-0.2,1.1-0.1,2.2-0.1,3.3c0,1.2-0.5,2-1.6,2.5
		c-1,0.5-1.8,1.1-1.7,2.2c0,1.2,0.8,1.8,1.8,2.2c1,0.4,1.5,1.2,1.5,2.3c0,1.1-0.6,1.9-1.6,2.4c-1.5,0.7-1.9,1.6-1.6,2.8
		c0.3,1.1,1.3,1.7,2.8,1.7c1.9,0,3.7,0,5.6,0c0.5,0,1.4,0.4,1.4-0.4c0-0.9,0.6-1.9-0.6-2.6c-1.8-1.1-2.9-2.8-3.3-4.9
		c-0.1-0.6-0.3-0.9-0.9-1.1c-1.8-0.8-2.6-2.5-2.2-4.3c0.4-1.7,1.8-2.8,3.8-2.8c1.2,0,2.4,0,3.6,0c1.8-0.1,2.8-1.2,2.9-3
		c0-0.4,0-0.8,0-1.2c0-0.5-0.1-1.2,0.7-1.2c0.7,0,0.7,0.6,0.7,1.1c0,0.3,0,0.6,0,0.9c0,2.1,1.1,3.1,3.3,3.3c1.4,0.1,2.8-0.1,4.2,0.3
		c1.6,0.5,2.7,1.3,2.9,2.9c0.2,1.7-0.6,3.1-2.3,3.9c-0.4,0.2-0.7,0.3-0.8,0.8c-0.4,2.3-1.6,4.1-3.6,5.4c-0.9,0.6-0.4,1.6-0.4,2.4
		c0,0.8,0.8,0.4,1.3,0.4C96.5,107.8,97.5,107.7,98.4,107.7z M122.6,85.6c-4.7,0-6.4,1.5-6.8,5.9c-0.1,0.7-0.4,0.9-1.1,1.1
		c-1.2,0.2-2,1-2,2.3c0,1.2,0.7,2.1,2,2.3c0.9,0.1,1,0.6,1.1,1.3c0,1,0.2,1.9,0.7,2.7c1.6,2.4,4.5,3.4,7.9,2.7
		c2.6-0.6,4.3-2.5,4.6-5.4c0.1-0.6,0-1.2,0.9-1.3c1.5-0.2,2.2-1.1,2.1-2.3c0-1.3-0.8-2.1-2.1-2.3c-0.7-0.1-0.9-0.5-0.9-1.2
		c0-1.3-0.3-2.5-1.1-3.6C126.6,85.9,124.6,85.4,122.6,85.6z M86.7,119.3C86.7,119.3,86.7,119.3,86.7,119.3c2.8,0,5.7,0,8.5,0
		c0.4,0,0.8,0,1.2-0.3c1.3-0.9,2.5-1.7,3.1-3.3c0.3-0.8,0.9-1.4,1.6-1.9c0.4-0.3,0.6-0.6,0.1-1c-1.7-1.7-3.7-2.9-6.1-3.3
		c-0.7-0.1-1,0-1.3,0.7c-0.7,1.5-2,2.3-3.7,2.3c-1.7,0-2.9-0.8-3.6-2.3c-0.3-0.7-0.6-0.8-1.3-0.7c-4,0.7-7.8,4.3-8.5,8.3
		c-0.2,1.2,0,1.6,1.4,1.6C81,119.3,83.8,119.3,86.7,119.3z M90.3,104.4c4,0,6.2-1.9,6.6-5.8c0.1-0.8,0.5-1,1.2-1.1
		c1.3-0.3,2-1.3,1.9-2.5c-0.2-1.2-1.1-2-2.4-2c-1.1,0-2.2,0-3.3,0c-1.3,0-2.5-0.3-3.4-1.3c-0.4-0.5-0.7-0.5-1.1,0
		c-0.9,1-2.1,1.3-3.5,1.3c-1.1,0-2.1,0-3.2,0c-1.4,0-2.4,0.8-2.5,2.1c-0.1,1.2,0.6,2.2,2,2.5c0.8,0.2,1,0.5,1.1,1.2
		C84.1,102.5,86.4,104.4,90.3,104.4z M123.3,80.6C123.3,80.6,123.3,80.6,123.3,80.6c-1.5,0-3,0-4.5,0c-3.1,0.1-5.3,2.4-5.3,5.4
		c0,1.4,0,2.7,0,4.1c0,0.4-0.3,1,0.3,1.1c0.6,0.1,0.5-0.6,0.6-1c0.5-2.9,2-5.1,5-5.7c2.7-0.6,5.5-0.8,8,0.7c0.1,0,0.1,0.1,0.2,0.2
		c1.8,1.3,2.8,2.9,3,5.1c0,0.4,0.1,0.7,0.6,0.7c0.5-0.1,0.2-0.5,0.3-0.7c0-1.5,0-3.1,0-4.6c0-1.6-0.6-2.9-2.3-3.5
		c-0.4-0.2-0.7-0.5-0.5-0.9c0.4-1-0.3-0.9-0.9-0.9C126.2,80.6,124.8,80.6,123.3,80.6z M87.7,107.9c0,0.1,0,0.5,0.1,0.9
		c0.2,1.2,1.2,2.2,2.4,2.2c1.1,0.1,2.3-0.7,2.6-1.9c0.3-1,0.1-2,0.1-3c0-0.6-0.4-0.4-0.7-0.4c-1.1,0-2.3,0.1-3.4,0
		c-0.8-0.1-1.1,0-1,0.8C87.7,106.9,87.7,107.2,87.7,107.9z M98.9,109.2c1.6,0.9,2.7,1.8,3.9,3.1c-0.4-1.3-0.5-2.2-0.1-3.1
		C101.5,109.2,100.4,109.2,98.9,109.2z"/>
	<path class="st0" d="M125.1,107.9c0.7,0,1.4,1.1,2.2,0.3c5.2,0.5,9.6,4.8,10.3,10.1c0.2,1.5-0.9,2.5-2.6,2.5c-4.4,0-8.7,0-13.1,0
		c-0.7,0-1.4,0-2.1,0c-0.8,0-1.6-0.2-2.4,0c-1,0.3-0.3,1.3-0.7,2c-0.5,0.9-1,1.7-2,2c-0.8,0.3-1.1,0.8-1.3,1.4
		c-0.6,1.7-1.8,2.9-3.4,3.8c-0.3,0.1-0.7,0.2-0.7,0.6c0,0.4,0.4,0.4,0.7,0.5c3.8,1.4,5.8,4.6,5.5,8.7c-0.1,1.3-0.9,2.1-2.2,2.1
		c-4.7,0-9.4,0-14.2,0c-1.4,0-2.1-0.8-2.3-2.1c-0.4-4.2,1.6-7.2,5.5-8.7c0.4-0.2,1.1-0.4,0.3-0.8c-2.1-1.1-3.4-2.9-4.2-5
		c0-0.1-0.2-0.2-0.3-0.2c0-0.4-0.3-1,0.3-1.3c0.9-0.1,1.3,0.4,1.6,1.2c0.9,3,3.2,4.7,6.2,4.6c2.9,0,5.3-1.8,6.1-4.6
		c0.2-0.8,0.5-1.2,1.4-1.3c1-0.2,1.6-0.9,1.7-1.9c0.1-1-0.3-1.8-1.2-2.3c-0.5-0.3-1.1-0.5-1.6-0.7c0.1-0.9,1.1-0.3,1.4-0.8
		c0.7,0,1.2,0.4,1.6,0.8c0.4,0.4,0.9,0.6,1.5,0.6c5.8,0,11.7,0,17.5,0c1.5,0,1.8-0.4,1.4-1.7c-1.1-4.2-3.9-6.8-8-8
		c-1-0.3-2-0.6-2.4,0.9c-0.1,0.2-0.4,0.4-0.7,0.6c-0.4-0.4-0.4-0.8-0.5-1.3c0.2-0.3,0.3-0.6,0.5-0.9c0.1,0.1-0.1,0.4,0.2,0.3
		c-0.1-0.1-0.1-0.2-0.2-0.3C124.9,108.6,125,108.2,125.1,107.9z M106.1,140.5c2.2,0,4.4,0,6.7,0c0.5,0,1.2,0,1.2-0.7
		c0.4-3-0.8-6-4-7.3c-0.5-0.2-0.8-0.1-1.2,0.4c-1.5,2.1-3.8,2.1-5.2,0c-0.4-0.6-0.7-0.6-1.3-0.4c-2.5,0.9-4,3.4-4,6.5
		c0,1,0.3,1.4,1.4,1.4C101.8,140.5,103.9,140.5,106.1,140.5z M105.8,131.1c-0.3,0.3-1.1-0.6-1.2,0.3c-0.1,0.7,0.3,1.3,0.9,1.6
		c0.7,0.3,1.3,0.2,1.8-0.4c0.3-0.4,0.6-0.8,0.4-1.3c-0.2-0.6-0.7-0.1-1-0.1C106.4,131,106.2,131.1,105.8,131.1z"/>
	<path class="st0" d="M111.2,16.4c4.2,6.9,8.2,13.9,11.5,21.3c1.5,3.4,3.1,6.8,3.6,10.6c1,6.7-1.4,12.3-6,17
		C110,75.6,91.8,75.7,81.4,65.5c-0.2-0.2-0.5-0.5-0.7-0.8c0.5-0.1,1.1,0.1,1.2-0.6c1.1,0.9,2.1,1.9,3.3,2.8
		c10.6,7.5,26,6.1,34.5-3.3c4.9-5.4,6.6-11.6,4.1-18.7c-1.4-4-3.1-7.9-5-11.7c-2.6-5.2-5.6-10.3-8.4-15.4
		C110.8,17.4,110.6,16.7,111.2,16.4z"/>
	<path class="st0" d="M81.9,64.1c-0.1,0.8-0.7,0.6-1.2,0.6c-5.2-5.7-7.2-12.2-4.8-19.7c2.2-7.1,5.7-13.6,9.3-20.1
		c4.4-8,9.2-15.7,14.2-23.3c1.2-1.9,1.4-1.9,2.7,0c3.1,4.8,6.3,9.7,9.1,14.7c-0.6,0.3-0.3,1-0.7,1.4c-1.2-2-2.5-4-3.7-6
		c-2-3.1-3.9-6.2-6-9.5c-0.4,0.6-0.7,1-1,1.5c-3.6,5.5-7,11-10.2,16.6c-4.2,7.3-8.4,14.7-11.4,22.7c-1.2,3.1-2.1,6.2-1.6,9.6
		C77,57.1,79,60.8,81.9,64.1z"/>
	<path class="st0" d="M137.2,131.4c0,2.3,0,4.7,0,7c0,1.4-0.4,1.8-1.8,1.8c-3.3,0-6.7,0-10,0c-0.7,0-1.2-0.1-1.4,0.9
		c-0.2,1-1.4,1.2-2.1,0.4c-1.5-1.8-2.9-3.7-4.4-5.5c-0.4-0.6-0.4-1.1,0.1-1.7c1.4-1.7,2.7-3.5,4.1-5.2c0.9-1.1,1.8-0.8,2.3,0.5
		c0.5,1.3,1.7,0.5,2.5,0.6c0.8,0.1,0.5-0.6,0.6-1c0-1.7,0-3.3,0-5c0-1.2,0.5-1.8,1.8-1.8c2.2,0,4.4,0,6.5,0c1.2,0,1.8,0.6,1.8,1.8
		C137.1,126.5,137.2,129,137.2,131.4z M122.5,140c0-1.2,0.6-1.3,1.4-1.3c3.6,0,7.2,0,10.8,0c0.7,0,1-0.2,1-0.9c0-4.4,0-8.8,0-13.2
		c0-0.7-0.2-0.9-0.9-0.9c-1.7,0-3.5,0-5.2,0c-0.8,0-1.1,0.2-1.1,1c0,1.8-0.1,3.7,0,5.5c0,1-0.4,1.4-1.4,1.4c-1-0.1-2,0-3.1,0
		c-0.8,0-1.6,0.1-1.6-1.2c-1.2,1.6-2.3,2.9-3.3,4.2c-0.3,0.4-0.4,0.7,0,1.1C120.2,137,121.2,138.4,122.5,140z"/>
	<path class="st0" d="M74.7,131.3c0-2.3,0-4.7,0-7c0-1.5,0.5-1.9,2-1.9c2,0,3.9,0,5.9,0c1.9,0,2.2,0.4,2.2,2.2c0,1.5,0,3.1,0,4.6
		c0,0.7,0.2,1.1,1,1c1-0.1,2,0.3,2.4-1.2c0.2-0.8,1.3-0.8,1.9-0.1c1.5,1.8,3,3.7,4.4,5.6c0.4,0.6,0.2,1.2-0.2,1.7
		c-1.3,1.7-2.6,3.4-4,5.1c-0.9,1.1-1.9,0.9-2.3-0.4c-0.2-0.8-0.7-0.6-1.2-0.6c-3.3,0-6.6,0-9.9,0c-1.7,0-2.1-0.4-2.2-2.1
		C74.7,135.8,74.7,133.5,74.7,131.3z M89.4,140c1.3-1.6,2.3-2.9,3.4-4.3c0.2-0.3,0.4-0.5,0.1-0.9c-1.1-1.4-2.2-2.8-3.5-4.4
		c-0.1,1.1-0.6,1.3-1.4,1.3c-1.2,0-2.3-0.1-3.5,0c-0.9,0-1.3-0.4-1.2-1.2c0-1.9,0-3.8,0-5.7c0-0.7-0.2-1-1-1c-1.7,0-3.4,0-5.1,0
		c-0.8,0-1.2,0.2-1.1,1.1c0,4.3,0.1,8.5,0,12.8c0,1.1,0.4,1.2,1.3,1.2c3.5,0,7,0,10.5,0C88.8,138.7,89.4,138.8,89.4,140z"/>
	<path class="st0" d="M44.3,107.7c1,0.5,0,1.6,0.7,2.2c0.5-0.2,0.3-0.7,0.3-1c0-2.3,0-4.6,0-7c0-0.5-0.2-1,0.3-1.4
		c0,0.1,0.1,0.1,0,0.2c0,0.1,0,0.2,0,0.3c0.2,5.5,0.1,10.9,0,16.4c-0.1,0.1-0.1,0.3,0,0.4c0,0.9,0,1.8,0.1,2.8
		c0.1,1.7,1.3,3.2,3,3.6c2.9,0.8,5.5-1.2,5.5-4.3c0-6.9,0-13.8,0-20.8c0-1.2-0.1-2.4-0.3-3.5c-0.4-3.4-1.7-6.6-3.2-9.7
		c0.4-0.1,0.9-0.1,1.3-0.2c1.7,2.4,2.4,5.1,3.1,7.9c0.4,1.7,0.6,3.5,0.6,5.2c0,7.1,0,14.2,0,21.3c0,2.4-1.2,4.2-3.4,5.2
		c-2.2,1-4.4,0.6-6.2-1c-1.2-1.1-1.7-2.4-1.8-4c0-0.8,0-1.7,0-2.5c0.1-0.3,0.8-0.7,0-1c0-0.6-0.5-0.6-0.9-0.6
		c-0.9,0-1.8-0.1-2.6-0.1c0.1-0.7-0.2-0.9-0.9-0.9c-0.9,0-1.8,0-2.8,0c-0.4,0-0.9,0.2-1.1-0.4c2.4,0,4.9-0.1,7.3,0
		c0.8,0,1.1-0.2,1-1C44.3,111.8,44.3,109.7,44.3,107.7z M45,114.1c0,0.1-0.1,0.2-0.1,0.2c0,0.1,0.1,0.1,0.2,0.1
		c0-0.1,0.1-0.2,0.1-0.2C45.2,114.1,45,114.1,45,114.1z"/>
	<path class="st0" d="M64,77.1c1.9,0,3.8,0,5.7,0c0.6,0,1.3,0,1.2,0.8c0,0.7-0.7,0.7-1.2,0.7c-3.8,0-7.6,0-11.4,0
		c-0.6,0-1.1-0.1-1.1-0.8c0-0.6,0.6-0.7,1.1-0.7C60.2,77.1,62.1,77.1,64,77.1C64,77.1,64,77.1,64,77.1z"/>
	<path class="st0" d="M57.9,88.9c0.4,0,0.6,0.2,0.8,0.4c2.7,2.7,5.4,5.3,8.1,8c0.4,0.4,0.8,0.8,0.2,1.3c-0.5,0.5-0.9,0.1-1.3-0.3
		c-2.7-2.7-5.5-5.4-8.2-8.1c-0.3-0.3-0.5-0.5-0.3-0.9C57.4,89.1,57.6,89,57.9,88.9z"/>
	<path class="st0" d="M67.2,57.6c0,0.3-0.3,0.5-0.5,0.8c-2.7,2.6-5.3,5.3-8,7.9c-0.4,0.4-0.8,0.9-1.3,0.3c-0.5-0.5-0.1-1,0.3-1.3
		c2.7-2.6,5.3-5.3,8-7.9c0.3-0.3,0.6-0.7,1.1-0.4C67.1,57.1,67.2,57.4,67.2,57.6z"/>
	<path class="st0" d="M142.2,101.4c-0.2,0.6-0.4,1.2-0.6,1.8c-0.7,1.7-1.4,3.5-2.1,5.2c-0.2,0.5-0.5,0.9-1.1,0.6
		c-0.5-0.2-0.4-0.7-0.2-1.1c0.9-2.2,1.8-4.3,2.6-6.6c0.1-0.4,0.4-0.7,0.9-0.6C142,100.7,142.1,101,142.2,101.4z"/>
	<path class="st0" d="M56.8,13.8c0,0.5-0.4,0.7-0.8,0.8c-2.3,0.6-4.5,1.4-6.7,2.2c-0.5,0.2-0.9,0.2-1.1-0.3
		c-0.3-0.6,0.1-0.9,0.6-1.1c2.2-0.9,4.5-1.7,6.8-2.3C56.2,13,56.6,13.1,56.8,13.8z"/>
	<path class="st0" d="M5.3,69c0.4-2.2,0.9-4.7,1.6-7.1c0.1-0.4,0.4-0.7,0.9-0.6c0.5,0.1,0.6,0.5,0.5,0.9c-0.6,2.4-1.1,4.8-1.5,7.2
		c-0.1,0.4-0.4,0.7-0.8,0.6C5.4,70.1,5.2,69.7,5.3,69z"/>
	<path class="st0" d="M93.2,147.4c-0.4,0-0.7-0.2-0.8-0.6c-0.1-0.5,0.2-0.7,0.6-0.9c0.8-0.3,1.6-0.4,2.4-0.7c1.4-0.5,2.8-1,4.3-1.5
		c0.5-0.2,1.1-0.4,1.3,0.3c0.2,0.6-0.3,0.8-0.8,1c-2.2,0.8-4.4,1.6-6.7,2.2C93.5,147.4,93.3,147.4,93.2,147.4z"/>
	<path class="st0" d="M133.7,42.4c0.5,0.1,0.7,0.3,0.9,0.6c1.3,2,2.5,4,3.5,6.2c0.2,0.5,0.3,1-0.2,1.2c-0.5,0.2-0.8-0.1-1-0.5
		c-1.2-2.1-2.3-4.1-3.5-6.2C133,43,133.2,42.6,133.7,42.4z"/>
	<path class="st0" d="M143.6,63.7c0.1,0.5-0.1,0.8-0.6,0.9c-0.4,0.1-0.7-0.1-0.8-0.5c-0.7-2.4-1.5-4.8-2.2-7.1
		c-0.1-0.5,0-0.8,0.5-0.9c0.4-0.1,0.7,0.1,0.9,0.4C142.2,58.8,142.9,61.3,143.6,63.7z"/>
	<path class="st0" d="M55.9,146.3c-0.1,0.5-0.5,0.7-1,0.6c-2.4-0.7-4.8-1.5-7.1-2.5c-0.4-0.2-0.7-0.5-0.5-0.9
		c0.2-0.5,0.6-0.5,1.1-0.3c2.2,0.8,4.5,1.6,6.8,2.4C55.6,145.7,55.9,145.8,55.9,146.3z"/>
	<path class="st0" d="M69.2,149.6c-2-0.3-4.1-0.6-6.2-0.8c-0.5-0.1-1-0.3-1-0.8c0.1-0.7,0.7-0.6,1.2-0.6c2.1,0.3,4.1,0.5,6.2,0.8
		c0.6,0.1,1.6-0.2,1.5,0.8C70.9,150,69.9,149.4,69.2,149.6z"/>
	<path class="st0" d="M29.3,131.6c-0.2,0.6-0.6,1-1.1,0.6c-2-1.6-3.8-3.5-5.6-5.4c-0.3-0.3-0.2-0.7,0.1-0.9c0.3-0.3,0.7-0.3,0.9,0
		c1.8,1.8,3.6,3.6,5.5,5.3C29.2,131.3,29.2,131.5,29.3,131.6z"/>
	<path class="st0" d="M30,28.1c0,0.3-0.2,0.5-0.4,0.7c-1.7,1.5-3.4,3.1-5,4.7c-0.4,0.4-0.8,0.8-1.3,0.3c-0.4-0.5-0.1-0.9,0.3-1.2
		c1.6-1.7,3.3-3.3,5.1-4.8c0.3-0.2,0.5-0.5,0.9-0.3C29.7,27.5,29.9,27.7,30,28.1z"/>
	<path class="st0" d="M79.8,149.6c-0.5,0-1.1,0.1-1.6,0.1c-0.4,0-0.8-0.1-0.9-0.6c0-0.5,0.3-0.8,0.7-0.8c2.5-0.1,5-0.4,7.4-0.7
		c0.4-0.1,0.8,0.1,0.9,0.6c0,0.5-0.3,0.8-0.8,0.8C83.6,149.2,81.7,149.5,79.8,149.6C79.8,149.7,79.8,149.6,79.8,149.6z"/>
	<path class="st0" d="M145.2,87.2c-0.4,2.2-0.7,4.3-1.1,6.5c-0.1,0.6-0.2,1.1-1,1c-0.7-0.1-0.5-0.7-0.4-1.2c0.3-2.2,0.6-4.3,1-6.5
		c0.1-0.5,0.1-1.2,0.8-1.1C145.4,85.9,145.2,86.6,145.2,87.2z"/>
	<path class="st0" d="M145.5,77c0,0.7,0,1.3,0,2c0,0.4-0.3,0.7-0.7,0.7c-0.4,0-0.7-0.2-0.7-0.6c-0.2-2.5-0.4-5-0.5-7.5
		c0-0.5,0.2-0.8,0.7-0.8c0.5,0,0.7,0.3,0.7,0.8C145.2,73.3,145.3,75.1,145.5,77C145.5,77,145.5,77,145.5,77z"/>
	<path class="st0" d="M42.6,19.4c-0.1,0.5-0.4,0.7-0.7,0.9c-2,1.1-3.9,2.3-5.8,3.5c-0.4,0.3-0.9,0.6-1.3,0c-0.4-0.5,0-0.9,0.4-1.2
		c1.9-1.3,4-2.5,6-3.6C41.8,18.7,42.3,18.7,42.6,19.4z"/>
	<path class="st0" d="M41.8,140.5c-0.2,0.5-0.6,0.8-1.1,0.5c-2.3-1.2-4.4-2.6-6.5-4.1c-0.3-0.2-0.4-0.6-0.2-0.9
		c0.3-0.4,0.7-0.4,1-0.2c2.1,1.4,4.2,2.7,6.4,4C41.7,140,41.8,140.2,41.8,140.5z"/>
	<path class="st0" d="M5.5,92.7c-0.1-0.8,0-1.2,0.5-1.3c0.5-0.1,0.7,0.3,0.8,0.8c0.5,2.3,1.1,4.6,1.6,6.9c0.1,0.5,0,0.9-0.5,1
		c-0.5,0.1-0.8-0.2-0.9-0.6C6.5,97.2,5.9,94.8,5.5,92.7z"/>
	<path class="st0" d="M70,10.7c0.3,0,0.5,0,0.8,0c0.5,0,1,0,1,0.7c0,0.6-0.4,0.7-0.9,0.7c-2.3,0.2-4.6,0.5-6.9,0.7
		c-0.5,0.1-1.1,0.1-1.2-0.5c-0.1-0.8,0.5-0.8,1-0.9C65.9,11.1,67.9,10.9,70,10.7C70,10.6,70,10.7,70,10.7z"/>
	<path class="st0" d="M124.2,30.7c0.3,0,0.6,0.2,0.8,0.4c1.6,1.6,3.2,3.3,4.6,5.1c0.3,0.4,0.7,0.9,0.1,1.3c-0.5,0.4-0.9,0-1.2-0.4
		c-1.5-1.8-3-3.5-4.6-5.1c-0.3-0.3-0.5-0.6-0.3-0.9C123.7,30.8,123.9,30.7,124.2,30.7z"/>
	<path class="st0" d="M80.3,10.7c1.7,0.2,3.7,0.5,5.8,0.7c0.6,0.1,1.1,0.2,1,0.9C87,13,86.5,12.9,86,12.8c-2.2-0.3-4.4-0.5-6.6-0.7
		c-0.5-0.1-1.2,0-1.2-0.7c0-0.9,0.8-0.7,1.3-0.7C79.7,10.7,79.8,10.7,80.3,10.7z"/>
	<path class="st0" d="M5.8,80.8C5.9,81.9,5.9,83,6,84.1c0,0.5,0,1-0.6,1.1c-0.7,0.1-0.8-0.4-0.8-0.9c0-2.4,0-4.7,0-7.1
		c0-0.5,0.2-0.9,0.8-0.9c0.6,0,0.7,0.5,0.7,1C5.9,78.5,5.9,79.6,5.8,80.8C5.9,80.8,5.8,80.8,5.8,80.8z"/>
	<path class="st0" d="M35.2,116.2c0.6-0.6,1.3-0.5,1.9,0C36.4,116.2,35.8,116.2,35.2,116.2z"/>
	<path class="st0" d="M44.3,116.9c0.8,0.3,0.1,0.7,0,1C44.3,117.6,44.3,117.2,44.3,116.9z"/>
	<path class="st0" d="M45.6,100c0,0.1,0,0.2,0,0.3C45.4,100.2,45.4,100.1,45.6,100z"/>
	<path class="st0" d="M50.8,85.9c-0.1-0.1-0.2-0.2-0.3-0.3C50.7,85.6,50.8,85.7,50.8,85.9z"/>
	<path class="st0" d="M124.9,109c0.1,0.1,0.1,0.2,0.2,0.3C124.8,109.3,125,109,124.9,109C124.9,108.9,124.9,109,124.9,109z"/>
	<path class="st0" d="M45,114.1c0.1,0,0.2,0,0.2,0.1c0,0.1-0.1,0.1-0.1,0.2c-0.1,0-0.2,0-0.2-0.1C44.9,114.2,44.9,114.2,45,114.1z"
		/>
	<path class="st0" d="M45.7,117.4c0,0.1,0,0.3,0,0.4C45.6,117.7,45.6,117.6,45.7,117.4z"/>
	<path class="st0" d="M45.6,100.7c0,0.1,0.1,0.1,0.1,0.2c0,0,0,0.1,0,0.1C45.6,100.9,45.6,100.8,45.6,100.7z"/>
	<path class="st0" d="M110.3,34.6c0.5,1.4,0.3,3,0.2,4.4c-0.3,2.8,0.3,4.7,3.4,5.6c1.7,0.5,3.2,1.5,4.8,2.2c0.7,0.3,1.1,0.7,1.1,1.6
		c-0.1,2.5,0,4.9,0,7.4c0,0.8-0.2,1.2-1,1.5c-2.7,1.2-5.3,2.5-7.9,3.8c-0.7,0.3-1.2,0.3-1.9,0c-2.3-1.1-4.6-2.1-6.8-3.3
		c-0.9-0.5-1.6-0.5-2.6,0c-2.2,1.2-4.6,2.2-6.8,3.3c-0.7,0.4-1.3,0.4-2,0c-2-1-4.1-2-6.1-3c0.2-0.4,0.3-0.8,0.5-1.2
		c1.7,0.8,3.4,1.5,5.1,2.4c0.7,0.4,0.9,0.2,0.9-0.6c0-1.8,0-3.5,0-5.3c0-0.6-0.2-0.9-0.7-1.1c0.9-0.5,1.8-0.3,2.7-0.1
		c-0.1,0.3-0.6,0.3-0.6,0.8c0,2.2,0,4.3,0,6.7c2.5-1.2,4.9-2.3,7.2-3.4c0.4-0.2,0.5-0.5,0.5-0.9c0-1.8,0-3.7,0-5.5
		c0-0.7-0.3-0.7-0.8-0.5c-1,0.5-2,0.9-3.1,1.4c-0.1-0.2,0.4-0.7-0.4-0.6c-0.6,0.1-0.1-0.4-0.2-0.6c1.1-0.6,2.3-0.9,3.3-1.8
		c-0.9-0.5-1.7-0.9-2.5-1.3c0.1-0.4,0.2-0.9,0.4-1.3c0.2,0.1,0.4,0.2,0.5,0.3c0,0.2-0.1,0.4,0.2,0.5c0.2,0.1,0.3-0.1,0.4-0.2
		c0.7,0.2,1.4,0.6,2.1,1.1c0.4-1.6,0-3.1,0.2-4.7c0.4,0.1,0.9,0.2,1.3,0.3c0,1.1,0.1,2.3,0,3.4c0,0.8,0.2,0.9,0.9,0.5
		c2-1,4-1.9,6-2.8c0.7-0.3,0.9-0.7,0.9-1.4c0-1.9,0-3.8,0-5.8c-0.4-0.4-0.8-0.5-1.1,0.2c-0.1,0-0.2,0.1-0.3,0.1
		c-0.3-0.3-0.6-0.7-0.6-1.2c0.2-0.3,0.7-0.2,0.8-0.7c0.6,0.4,1.2,0.8,1.8,0C109.9,34.6,110.1,34.6,110.3,34.6z M118.2,48.9
		c-2.5,1.2-4.9,2.3-7.2,3.4c-0.3,0.1-0.5,0.3-0.5,0.6c0,2.2,0,4.3,0,6.6c2.5-1.2,4.8-2.2,7-3.3c0.4-0.2,0.7-0.3,0.7-0.9
		C118.2,53.3,118.2,51.2,118.2,48.9z M109.1,59.5c0-2.3,0-4.3,0-6.3c0-0.5-0.3-0.8-0.7-1c-2-1-4.1-1.9-6.1-2.9
		c-0.6-0.3-0.9-0.3-0.9,0.5c0,1.8,0,3.7,0,5.5c0,0.3,0,0.6,0.4,0.8C104.2,57.2,106.5,58.3,109.1,59.5z M102.3,47.8
		c2.5,1.2,4.7,2.2,7,3.3c0.2,0.1,0.5,0.2,0.8,0.1c2.3-1.1,4.7-2.2,7.1-3.4c-2.4-1.1-4.6-2.2-6.8-3.2c-0.5-0.2-0.9-0.2-1.4,0.1
		C106.9,45.6,104.8,46.6,102.3,47.8z"/>
	<path class="st0" d="M107.2,35.4c-0.1,0.5,0.2,0.8,0.6,1.2c-1.3,0.6-2.5,1.4-3.8,1.8c-2,0.7-3.1,1.8-2.7,4
		c-0.4-0.1-0.9-0.2-1.3-0.3c-0.2-0.8,0.4-2-0.4-2.5c-2.3-1.3-4.8-2.3-7.3-3.6c0,2.2,0,4.2,0,6.2c0,0.6,0.2,0.9,0.8,1.2
		c1.2,0.6,2.4,1.2,3.6,1.7c-0.1,0.4-0.2,0.9-0.4,1.3c-1.4-0.6-2.7-1.3-4.1-1.9c-0.4-0.2-0.8-0.3-1.2-0.1c-2.2,1.1-4.4,2.2-6.8,3.3
		c1.1,0.6,2.2,0.9,3,1.5c2.7,1.8,5.5,2.4,8.3,0.2c0.1,0.2-0.4,0.7,0.2,0.6c0.8-0.1,0.3,0.4,0.4,0.6c-1.1,0.5-2,1.2-3.2,1.4
		c-0.9-0.2-1.8-0.4-2.7,0.1c-2-0.9-4-1.8-6-2.8c-0.9-0.4-1-0.2-1,0.7c0,1.3,0.1,2.5,0,3.8c-0.2,1.5,0.3,2.5,1.8,3
		c-0.2,0.4-0.3,0.8-0.5,1.2c-2.7-1.1-2.7-1.1-2.7-3.9c0-1.9,0-3.8,0-5.7c0-0.9,0.3-1.4,1.1-1.7c2.3-1.1,4.6-2.3,6.9-3.3
		c0.8-0.4,1.2-0.8,1.2-1.8c-0.1-2,0-3.9-0.1-5.9c0-1,0.3-1.5,1.2-1.9c2.6-1.2,5.2-2.5,7.8-3.8c0.5-0.2,0.9-0.3,1.4-0.1
		c2.8,1.4,5.7,2.7,8.5,4.1c0.3,0.1,0.6,0.3,0.6,0.6c-0.2,0-0.4,0-0.5,0.1c-0.6,0.8-1.2,0.4-1.8,0c-2.2-1-4.4-2-6.6-3.1
		c-0.4-0.2-0.8-0.4-1.4-0.1c-2.2,1.1-4.4,2.2-6.7,3.3c2.3,1.1,4.5,2.1,6.6,3.2c0.6,0.3,1.1,0.3,1.7,0
		C103.4,37.1,105.3,36.2,107.2,35.4z"/>
	<path class="st0" d="M109.1,36.2c-0.4-0.2-0.7,0.2-1.1,0.2C108.3,35.8,108.7,35.9,109.1,36.2z"/>
	<path class="st0" d="M97.2,45.4c0.2,0.1,0.4,0.2,0.5,0.3c-0.1,0.1-0.1,0.3-0.4,0.2C97.1,45.8,97.2,45.6,97.2,45.4z"/>
</g>
</svg>
