<?xml version="1.0" encoding="utf-8"?>
<!-- Generator: Adobe Illustrator 24.3.0, SVG Export Plug-In . SVG Version: 6.00 Build 0)  -->
<svg version="1.1" id="Layer_1" xmlns="http://www.w3.org/2000/svg" xmlns:xlink="http://www.w3.org/1999/xlink" x="0px" y="0px"
	 viewBox="0 0 150 150" style="enable-background:new 0 0 150 150;" xml:space="preserve">
<style type="text/css">
	.st0{fill:#005BAB;}
</style>
<g>
	<path class="st0" d="M109.4,75.9c10,0.8,18.5,4.8,25.2,12.4c4.9,5.6,7.8,12.2,8.6,19.6c1.7,16.5-8,31-22.3,36.8
		c-15.2,6.2-34.7,1.5-44.6-14.3c-11.4,3.4-22.8,4.9-34.5,1c0.4,2.5,0.9,5,1.1,7.4c0.2,3,0.1,6.1,0.1,9.1c0,0.8-0.3,1.5-1.3,1.4
		c-1-0.1-1.1-0.8-1-1.6c0.4-5.6-0.1-11.1-1.5-16.6c-0.3-1.1-0.9-1.7-1.8-2.3c-3.9-2.5-7.8-5-11.6-7.6c-0.7-0.5-1.4-1.2-2-1.8
		c-0.5-0.5-0.7-1.2-0.1-1.7c0.4-0.3,1.3-0.2,1.7,0.1c1.4,1,2.5,2.2,3.9,3.1c3.1,2.1,6.4,4,9.6,6c6.4,4.1,13.5,4.8,20.8,4.2
		c4.7-0.4,9.3-1.6,13.9-2.4c0.5-0.1,1-0.3,1.6-0.5c-4.2-8.4-5.3-17.1-2.8-26.1c2.4-9,7.8-15.8,15.6-20.9c-3.4-6.2-6.7-12.4-10-18.6
		c-8,1.8-14-1-16.3-7.4c-2.1-5.8,0.4-12.2,5.9-15c5.5-2.9,12.4-1.2,16,3.8c4,5.6,2.8,11.8-3.4,17.6c3.3,6.1,6.6,12.3,9.8,18.2
		c2.8-1,5.5-2.2,8.3-2.9c2.8-0.7,5.7-1,8.9-1.5c-0.2-2.5-0.2-5.2-0.6-7.9c-1.2-9.4-4.2-18.1-9.6-25.9c-6.3-9-14.5-15.4-25.4-17.8
		c-8.8-2-17.2-0.9-25.2,3.5c-1.4,0.8-2.8,1.8-4,3c-6.3,6-6.2,15.1,0.2,20.9c4.8,4.4,9.3,9,13.1,14.3c3.7,5,6.8,10.3,8.2,16.5
		c0.8,3.5,1.1,7,0.6,10.6c-0.6,4.7-2.8,8.5-6.5,11.4c-1.2,1-2.6,1.8-3.7,2.9c-1.5,1.4-2.9,2.8-4.1,4.4c-2.2,3.2-1.4,6.4,1.9,8.5
		c2.2,1.4,4.7,2.2,7.3,2.4c2.3,0.2,4.7,0.2,7.1,0.2c0.8,0,1.5,0.3,1.4,1.1c0,0.4-0.7,1.2-1.2,1.2c-5.2,0.4-10.4,0.1-15.1-2.5
		c-5-2.7-6.3-7.9-3-12.5c1.7-2.3,3.8-4.4,6.1-6c6.8-4.6,8.6-11,7.5-18.7c-0.8-5.4-3.1-10.2-6-14.7c-4.2-6.5-9.4-12.1-15.1-17.3
		c-4-3.7-6.1-8.3-5.6-13.8c0.4-5,2.8-8.8,6.6-11.9c4.5-3.6,9.8-5.5,15.4-6.2c15.7-2.1,28.3,3.7,38.4,15.5c7.1,8.4,11,18.3,12.6,29.1
		C108.9,69.1,109,72.4,109.4,75.9z M73.3,111.6c0,18.4,15.1,33.4,33.7,33.5c18.9,0,34.1-14.9,34.1-33.5c0-18.4-15.3-33.4-33.9-33.4
		C88.5,78.1,73.4,93.1,73.3,111.6z M73.3,41.2c-5.6,0-10.1,4.4-10.1,10c0,5.5,4.5,10,10.1,10c5.6,0,10.1-4.4,10.2-10
		C83.4,45.7,78.9,41.2,73.3,41.2z"/>
	<path class="st0" d="M19.8,92.7c5,0.1,10.4,2,15.3,5c4.1,2.6,8.2,2.6,12.3,0.3c4.1-2.4,5.4-6.2,5.2-10.7c-0.2-5.2-2.2-9.9-4.9-14.3
		c-3.3-5.4-7.8-9.8-12.5-14c-3.9-3.5-8-6.8-11.8-10.3c-6.2-5.7-11.3-12.2-14.5-20c-2.6-6.4-3.2-13.1-2.8-20c0.1-2.2,0.4-4.4,0.6-6.5
		C6.8,1.3,7,0.5,8,0.6c1.1,0.1,1.1,1,1,1.9C8.3,7.9,8,13.3,8.7,18.8c0.8,6.1,3.1,11.7,6.4,16.8c3.9,5.9,9,10.8,14.3,15.4
		c4.5,3.9,9,7.8,13.2,11.9c5.5,5.4,9.6,11.7,11.6,19.3c0.9,3.4,1.1,6.8,0.2,10.2c-2.4,8.5-12.3,12.4-19.8,7.7
		c-5.1-3.1-10.5-5.2-16.6-5c-5,0.2-8.8,2.4-11.4,6.6c-4.2,7-4.4,14.1,0.1,20.9c1.8,2.7,3.9,5.3,6.1,7.8c4.6,5.1,5.6,10.9,3.7,17.4
		c-0.1,0.2-0.1,0.6-0.3,0.7c-0.5,0.3-1,0.9-1.5,0.8c-0.8-0.1-0.8-0.8-0.7-1.6c0.4-2.3,1-4.5,1-6.8c0-3.4-1.7-6.3-3.9-8.9
		c-2.5-2.9-5-5.9-7-9.2c-4.9-8.1-3.8-16.1,1.4-23.6C8.7,94.5,13.4,92.7,19.8,92.7z"/>
	<path class="st0" d="M28,9.8c0.1-2.5,0.3-5.1,0.4-7.6c0.1-0.8,0.3-1.6,1.3-1.6c1.1,0.1,1,0.9,1,1.7c0,4.6-0.2,9.3,0,13.9
		c0.1,1.6,0.6,3.3,1.3,4.8c0.9,2.2,2.5,2.5,4.5,1.2c0.2-0.1,0.4-0.3,0.6-0.5c6.1-5.3,13.4-7.8,21.4-8.5c11.6-1,22.4,1.2,32,7.9
		c6.1,4.3,11,9.7,14.9,16c6.1,10,10.2,20.6,10.8,32.5c0,0.2,0,0.3,0,0.5c0.1,0.8-0.1,1.5-1.1,1.6c-0.9,0-1.1-0.6-1.2-1.4
		c-0.1-1.5-0.1-3.1-0.4-4.6c-2.8-17.2-10-32-24.4-42.6c-7.6-5.6-16.3-7.9-25.6-7.8c-4.3,0.1-8.6,0.4-12.7,1.6
		c-3.8,1-7.2,2.7-10.3,5.1c-1.1,0.8-2.1,1.7-3.2,2.4c-2.6,1.6-5.5,1.1-6.9-1.7c-1-1.9-1.4-4.2-2-6.3c-0.3-1.1-0.2-2.2-0.3-3.3
		c0-1.1,0-2.2,0-3.3C28,9.8,28,9.8,28,9.8z"/>
	<path class="st0" d="M141.5,63.1c-0.2,0.4-0.3,0.7-0.5,1c-2.5,3.6-5,7.1-7.5,10.7c-0.4,0.6-1,1-1.7,0.6c-0.9-0.5-0.7-1.3-0.1-2
		c2.2-3.1,4.4-6.2,6.6-9.3c0.4-0.6,0.7-1.2,1.2-1.6c0.3-0.3,0.9-0.4,1.4-0.3C141.1,62.3,141.3,62.8,141.5,63.1z"/>
	<path class="st0" d="M149,70.8c-0.4,0.4-0.6,0.8-1,1.1c-3.5,2.4-7,4.9-10.6,7.3c-0.6,0.4-1.3,0.6-1.8-0.1c-0.5-0.7-0.2-1.3,0.4-1.7
		c3.6-2.5,7.2-5,10.8-7.4c0.3-0.2,1-0.2,1.4-0.1C148.6,69.8,148.7,70.3,149,70.8z"/>
	<path class="st0" d="M131.5,58.9c-0.2,0.6-0.2,0.9-0.3,1.3c-1,3.7-2.1,7.5-3.1,11.2c-0.1,0.3-0.1,0.7-0.3,0.8
		c-0.4,0.3-0.9,0.7-1.2,0.6c-0.4-0.2-0.9-0.8-0.9-1.2c0-0.7,0.3-1.5,0.5-2.2c1-3.5,1.9-6.9,2.9-10.4c0.1-0.5,0.8-0.9,1.3-1
		C130.8,58,131.2,58.6,131.5,58.9z"/>
	<path class="st0" d="M107.2,87.7c1.8,0,3.5,0,5.3,0c3.1,0,4.8,1.9,4.4,4.9c-0.9,6.7-1.8,13.4-2.7,20.1c-0.1,1.1-0.3,2.2-0.4,3.3
		c-0.4,2.5-1.9,3.9-4.4,3.9c-1.5,0-3,0-4.5,0c-2.3,0-3.9-1.5-4.2-3.7c-1.1-7.9-2.2-15.7-3.3-23.6c-0.4-2.9,1.3-4.9,4.3-5
		C103.5,87.7,105.4,87.7,107.2,87.7z M107.2,90c-1.7,0-3.4,0-5.1,0c-1.9,0-2.5,0.8-2.3,2.7c0.3,2.3,0.6,4.6,1,6.9
		c0.8,5.4,1.5,10.9,2.3,16.3c0.2,1.3,0.9,1.9,2.2,1.9c1.5,0,2.9,0,4.4,0c1.2,0,1.8-0.6,2-1.8c1.1-7.9,2.1-15.7,3.2-23.6
		c0.2-1.6-0.4-2.3-2.1-2.3C110.8,90,109,90,107.2,90z"/>
	<path class="st0" d="M107.2,136.6c-3.6,0-6.6-2.9-6.6-6.5c-0.1-3.6,3-6.6,6.6-6.6c3.7,0,6.7,3,6.6,6.6
		C113.7,133.7,110.8,136.6,107.2,136.6z M107.2,134.3c2.4,0,4.3-1.9,4.3-4.2c0-2.3-1.9-4.3-4.3-4.3c-2.4,0-4.4,2-4.4,4.3
		C102.8,132.4,104.8,134.3,107.2,134.3z"/>
</g>
</svg>
