<?xml version="1.0" encoding="utf-8"?>
<!-- Generator: Adobe Illustrator 24.3.0, SVG Export Plug-In . SVG Version: 6.00 Build 0)  -->
<svg version="1.1" id="Layer_1" xmlns="http://www.w3.org/2000/svg" xmlns:xlink="http://www.w3.org/1999/xlink" x="0px" y="0px"
	 viewBox="0 0 150 150" style="enable-background:new 0 0 150 150;" xml:space="preserve">
<style type="text/css">
	.st0{fill:#005BAB;}
</style>
<g>
	<path class="st0" d="M52,0.3c2.7,0.4,5.4,0.6,8,1.2c4.7,0.9,9.4,1.9,14.1,3.1C86.8,8,94.3,16.7,98,29c1.1,3.8,2.1,7.5,3.7,11.2
		c1.8,3.9,1.1,6.4-2.2,9.2c-1.2,1-1.6,2-1,3.6c1.3,3.5,2.8,6.9,5.5,9.6c1.8,1.8,3.3,3.8,4.7,5.9c1.9,2.8,1.2,5.7-1.6,7.6
		c-1,0.7-2.2,1.3-3.3,1.9c-1.7,0.9-1.9,1.6-1,3.3c0.4,0.8,0.9,1.5,1.2,2.3c0.9,2,0.6,3.4-1.1,4.8c-0.8,0.6-1.1,1.1-0.7,2.2
		c0.6,1.8-0.1,3.1-1.7,4.2c-2.7,1.8-2.7,1.8-2.1,5c0.5,2.7,0,5.3-1.1,7.8c-1.6,3.4-5.4,5.1-9.1,4.1c-5.1-1.4-10.3-3-15.4-4.5
		c-1-0.3-1.6-0.2-2.4,0.4c-3.5,2.6-4.8,6.3-5,10.4c-0.3,5.5,1.2,10.3,5.4,14.2c3.1,2.9,5.7,6.3,6.5,10.6c0.7,3.6-0.6,6.2-3.6,6.9
		c-0.6,0.1-1.2,0.1-1.7,0.1c-22,0-44,0-66,0c-3.9,0-5.9-2.2-5.6-6.1c0.8-10.4,3.9-20,9.4-28.8c4-6.5,6.7-13.3,7.3-21
		c0.6-8.6-1.7-16.3-6.9-23.2c-2.9-3.9-5.8-7.8-7.6-12.4C0,52.2,0,46,0.6,39.7c0.7-7.2,2.5-14.1,6.9-20.2c3.2-4.5,7.5-7.7,12-10.7
		c6.8-4.6,14.2-7.6,22.4-8.3c0.2,0,0.4-0.1,0.7-0.2C45.7,0.3,48.8,0.3,52,0.3z M105,71.5c-1.8-2.2-3.2-4.2-4.9-6
		c-3.6-3.6-5.4-8-6.7-12.7c-0.7-2.6,0.2-4.7,2-6.5c0.4-0.4,0.8-0.7,1.2-1.1c1-0.8,1.2-1.7,0.7-2.8c-2.2-4.3-3-9.1-4.6-13.6
		c-3-9-8.5-15.8-17.8-18.8c-6.4-2.1-13-3.5-19.8-4.2c-6-0.7-11.9-0.8-17.9,0.5c-8.1,1.7-14.8,6-21,11.2c-4.7,3.9-7.9,8.9-9.3,15
		c-0.7,3.4-1.3,6.8-1.6,10.2c-0.7,7.6,0.9,14.6,5.5,20.8c1.1,1.4,2.1,2.9,3.2,4.3c3.5,4.7,6.1,9.9,7.2,15.8
		c1.8,9.1,0.3,17.9-3.4,26.3c-0.5,1.1-0.3,1.8,0.4,2.7c3.6,4.5,8.1,7.8,13.2,10.3c7.5,3.7,15.5,5.6,23.8,6.5
		c2.4,0.3,4.9,0.4,7.5,0.6c-3.8-9.1-3.5-17.6,3-25.3c-1.6-0.6-3.1-1.1-4.6-1.6c-3.1-1.1-6.1-2.4-8.5-4.6c-2-1.8-3.4-4-3.3-6.9
		c0-1.5,0.9-2.5,2.2-2.6c1.4-0.1,2.6,0.7,2.7,2.2c0.1,2,1.2,3.3,2.7,4.3c1.4,0.9,2.9,1.8,4.5,2.3c8.8,2.9,17.7,5.8,26.6,8.6
		c3.5,1.1,5.1,0,5.6-3.7c0.1-0.8,0-1.7-0.2-2.4c-1-4-0.2-7.2,3.7-9.4c-2.5-3.1,0.2-4.4,2.1-5.9c-0.3-0.6-0.5-1-0.7-1.4
		c-2.2-4.4-1.2-7.7,3.1-10C102.6,73,103.7,72.3,105,71.5z M14.6,116.3c-5.5,8.5-8.6,18-9.3,28.3c22.5,0,44.8,0,67.2,0
		c-0.1-0.7-0.2-1.3-0.3-1.8c-0.7-3-2.8-5.2-4.9-7.3c-0.4-0.4-1.2-0.7-1.7-0.7c-6.3,0-12.5-0.6-18.7-1.8c-8.7-1.7-17-4.5-24.2-9.8
		C19.8,121.2,17.3,118.7,14.6,116.3z"/>
	<path class="st0" d="M149.7,91.6c-0.9,3.3-3.3,5.1-6.4,6.3c-5.4,2-10.7,4.2-16,6.3c-2.1,0.9-4.1,0.8-5.9-0.8
		c-0.3-0.2-0.9-0.3-1.2-0.2c-1,0.3-2,0.8-3,1.1c-2.5,0.9-5.2-0.1-6.2-2.6c-1.2-2.8-2.3-5.6-3.3-8.4c-0.8-2.3,0.2-4.8,2.4-5.9
		c0.4-0.2,0.9-0.4,1.3-0.6c1.6-0.6,3.1-1.1,3.7-3.2c0.2-1,1.6-1.9,2.7-2.5c1.9-1,3.9-1.7,5.9-2.5c0.9-0.3,1.2-0.8,1.2-1.8
		c0-7.1,0-14.2,0-21.3c0-1.9,0.5-3.4,1.9-4.7c0.3-0.3,0.5-0.8,0.5-1.2c0.1-1.5,0-3,0-4.5c0.1-3.1,2-5.1,5.1-5.2
		c3.3-0.1,6.5-0.1,9.8,0c3.1,0.1,4.9,2,5.1,5.1c0,0.7,0,1.4,0,2c0,1.8-0.4,3.7,1.5,5c0.5,0.3,0.7,1.2,1,1.7
		C149.7,66.5,149.7,79.1,149.7,91.6z M124.9,99.9c6-2.4,11.7-4.7,17.5-7c2.1-0.8,2.4-1.3,2.4-3.6c0-10.8,0-21.7,0-32.5
		c0-0.5,0-1,0-1.6c-5.1,0-9.9,0-14.8,0c0,1.7,0,3.2,0,4.9c2.5,0,4.9,0,7.3,0c1.2,0,2.2,0.6,2.3,1.7c0.1,0.8-0.3,1.9-0.8,2.6
		c-0.4,0.5-1.4,0.6-2.1,0.6c-2.2,0.1-4.4,0-6.8,0c0,0.6-0.1,1.1-0.1,1.6c0,3.6,0,7.2,0,10.8c0,3.3-0.9,4.7-4,6
		c-2.1,0.9-4.1,1.7-6.3,2.6C121.3,90.7,123.1,95.2,124.9,99.9z M142.2,45.2c-3.4,0-6.6,0-9.8,0c0,1.7,0,3.2,0,4.8c3.3,0,6.5,0,9.8,0
		C142.2,48.4,142.2,46.9,142.2,45.2z M119,98.5c-1.1-2.7-2.1-5.3-3.1-7.8c-1.3,0.5-2.3,1-3.5,1.4c1.1,2.6,2.1,5.2,3.1,7.8
		C116.7,99.4,117.7,98.9,119,98.5z"/>
	<path class="st0" d="M48.8,12.5c0,1.7-1,2.7-2.7,2.7c-4.1,0.1-8.1,1-11.8,2.7c-6.5,3.1-11.2,7.9-14.2,14.5c-0.2,0.5-0.4,1-0.7,1.5
		c-0.7,1.2-1.8,1.5-3,1.1c-1.1-0.3-1.8-1.5-1.6-2.8c0.1-0.3,0.2-0.7,0.3-1C20,19,32.7,10.3,45.7,10.3c0.9,0,1.8,0.6,2.7,1.1
		C48.7,11.6,48.7,12.3,48.8,12.5z"/>
	<path class="st0" d="M17.8,43.9c0,0.3,0,0.6,0,0.9c0,1.7-1,2.8-2.5,2.8c-1.5,0-2.4-1-2.4-2.7c0-0.8,0-1.6,0-2.3
		c0.1-1.5,1.2-2.5,2.6-2.4c1.3,0,2.3,1,2.4,2.4C17.8,43.1,17.8,43.5,17.8,43.9C17.8,43.9,17.8,43.9,17.8,43.9z"/>
</g>
</svg>
