<?xml version="1.0" encoding="utf-8"?>
<!-- Generator: Adobe Illustrator 24.3.0, SVG Export Plug-In . SVG Version: 6.00 Build 0)  -->
<svg version="1.1" id="Layer_1" xmlns="http://www.w3.org/2000/svg" xmlns:xlink="http://www.w3.org/1999/xlink" x="0px" y="0px"
	 viewBox="0 0 150 150" style="enable-background:new 0 0 150 150;" xml:space="preserve">
<style type="text/css">
	.st0{fill:#005BAB;}
</style>
<g>
	<path class="st0" d="M69.4,95.5c0.7-0.6,1.3-1.1,1.9-1.7c0.1-0.1,0.2-0.4,0.2-0.6c-0.1-5.9-0.3-11.8-0.5-17.7c0-0.2,0-0.4,0-0.7
		c0.1-0.6,0.5-0.9,1.1-1c0.7-0.1,1.1,0.3,1.2,0.9c0.1,0.4,0.1,0.9,0.1,1.3c0.2,6,0.3,12,0.5,17.9c0,0.5-0.1,0.9-0.5,1.2
		c-1,0.8-2,1.7-3,2.6c-0.2,0.2-0.4,0.5-0.4,0.7c0.1,2,0.3,3.9,0.5,6c0.7-0.6,1.4-1.2,2.1-1.8c1.7-1.4,3.7-1.4,5.3,0.2
		c0.6,0.6,1.1,1.1,1.8,1.8c0.1-1,0.1-1.9,0.2-2.8c0.1-1.1,0.2-2.1,0.3-3.2c0-0.3-0.1-0.7-0.4-0.9c-1-0.9-2.1-1.8-3.1-2.7
		c-0.2-0.2-0.4-0.6-0.4-0.9c0.1-4.8,0.3-9.6,0.5-14.4c0-0.9,0.5-1.4,1.3-1.4c0.7,0,1.1,0.6,1.1,1.4c-0.2,4.3-0.3,8.6-0.5,12.9
		c0,0.6,0.1,1,0.6,1.4c0.5,0.4,1,0.8,1.3,1.1c0.7-1.8,1.3-3.5,2.1-5.2c0.7-1.5,1.7-2.8,2.9-3.8c0.9-0.8,1.9-1,3-0.7
		c4.5,1.1,8,3.6,11,7c3.6,4.2,5.9,9.1,7.4,14.3c0.8,3,1.5,6.1,2,9.2c0.5,3.6,0.8,7.2,0.9,10.8c0.1,2.5-0.5,5-1.8,7.2
		c-1.4,2.3-3.6,3.1-6.1,2.1c-0.5-0.2-0.9-0.5-1.3-0.9c-2.1-1.7-4.3-3.4-6.8-4.4c-1.2-0.5-2.5-0.7-3.8-0.9c-5-0.8-8.1-4.1-8.9-9.1
		c-0.7-4.2-1.2-8.4-1.4-12.6c0-0.2-0.1-0.5-0.3-0.7c-1-1.1-2.1-2.1-3.1-3.1c-0.7-0.7-1.4-0.8-2.2-0.1c-1.1,1-2.3,1.9-3.3,2.9
		c-0.2,0.2-0.3,0.6-0.4,0.9c-0.3,2.7-0.4,5.4-0.7,8.1c-0.2,2-0.5,4-0.9,5.9c-1,4.4-4,7-8.3,7.6c-4.3,0.6-7.6,2.7-10.9,5.3
		c-2.8,2.3-6,1.8-7.7-1.4c-1.4-2.5-1.8-5.3-1.7-8.1c0.2-5,0.8-9.9,1.9-14.8c1.4-6.3,3.6-12.2,7.6-17.3c3-3.7,6.6-6.5,11.2-7.9
		c1.7-0.5,3-0.1,4.2,1.1c2.1,2.1,3.2,4.7,4,7.4C69.1,94.6,69.2,95,69.4,95.5z M82,105.5c0,5.5,0.6,10.6,1.5,15.7
		c0.6,3.5,2.7,5.6,6.1,6.5c1.1,0.3,2.4,0.3,3.5,0.7c3.4,1,6.3,3.1,9.1,5.3c1.3,1,2.6,0.9,3.6-0.4c0.2-0.3,0.5-0.7,0.6-1.1
		c0.8-1.8,1.2-3.8,1.1-5.8c-0.1-2.5-0.3-5-0.6-7.5c-0.5-4.3-1.3-8.6-2.7-12.7c-1.5-4.3-3.4-8.3-6.4-11.8c-2.5-2.9-5.5-5.2-9.2-6.3
		c-0.9-0.3-1.5-0.1-2.1,0.6c-1.4,1.5-2.3,3.2-2.9,5C82.2,97.6,82,101.7,82,105.5z M68.1,107.3c-0.1-5.7-0.3-9.7-1.6-13.5
		c-0.6-1.9-1.6-3.7-3-5.2c-0.6-0.6-1.2-0.8-2.1-0.6c-3,1-5.6,2.7-7.9,4.9c-4,4-6.4,8.8-8,14.1c-1.7,5.4-2.5,11-2.9,16.7
		c-0.1,1.9-0.3,3.8,0.1,5.7c0.4,1.5,0.7,3,1.8,4.2c0.9,0.9,2.2,1,3.1,0.2c0.6-0.5,1.3-1,1.9-1.5c2.6-1.9,5.3-3.6,8.5-4.3
		c0.8-0.2,1.6-0.2,2.4-0.4c3.3-0.8,5.4-2.8,6-6.2c0.3-1.9,0.6-3.8,0.8-5.7C67.7,112.4,67.9,109,68.1,107.3z"/>
	<path class="st0" d="M102.6,47.2c0.8,1,1.6,1.9,2.4,2.7c0.5,0.5,0.7,1.1,0.7,1.8c-0.4,2.8-1.1,5.5-3,7.7c-1.5,1.8-3.6,2.5-5.8,2.9
		c-2.8,0.5-4.2,4.1-2.5,6.3c0.3,0.4,0.7,0.6,1.2,0.7c5.5,1.3,10.7,3.4,15.7,5.9c5.1,2.6,9.7,5.8,13.6,10c4.2,4.4,7.2,9.5,8.6,15.5
		c0.4,1.7,0.5,3.4,0.7,5.2c0.5,4.1,0.9,8.2,1.4,12.3c0.5,4.5,1,9,1.5,13.5c0.4,3.6,0.8,7.2,1.3,10.8c0.2,1.8,0.4,3.6,0.6,5.4
		c0.1,0.8-0.3,1.4-1,1.5c-0.7,0.1-1.2-0.4-1.3-1.2c-0.8-6.8-1.6-13.7-2.3-20.5c-0.9-7.4-1.9-14.8-2.5-22.3
		c-0.8-8.8-5-15.5-11.4-21.1c-6.5-5.7-14.1-9.2-22.2-11.8c-0.9-0.3-1.8-0.6-2.7-0.7c-2.2-0.4-3.4-1.9-3.9-4c-0.4-1.9-0.1-3.7,1-5.4
		c0.9-1.5,2.3-2.2,4-2.4c0.7-0.1,1.4-0.3,2.1-0.5c1.6-0.5,2.8-1.6,3.4-3.2c0.5-1.3,0.8-2.6,1.3-3.9c0.2-0.5,0-0.9-0.4-1.3
		c-0.9-1.1-1.8-2.2-2.5-3.4c-0.7-1.1-0.2-2.1,1-2.5c1-0.3,2.1-0.6,3.1-0.9c0.4-0.1,0.6-0.3,0.6-0.7c0.1-3.1,0.1-2.8,2.7-4.1
		c0.8-0.4,1.7-0.9,2.5-1.3c0.8-0.4,0.9-0.8,0.6-1.6c-0.1-0.3-0.3-0.5-0.4-0.7c-2.8-3.6-5.6-7.3-8.4-10.9c-0.5-0.7-0.8-1.3-0.6-2.2
		c0.9-7.6-2.8-14.2-9.9-17.4C85.8,2.6,80,2.4,74,3.8c-7,1.7-12.4,5.4-16.3,11.4c-2.4,3.7-4.1,7.7-4.6,12.2c-0.7,6.1,1,11.6,4.5,16.5
		c1.6,2.3,3.5,4.4,5.1,6.7c1.6,2.3,2.9,4.8,3.2,7.6c0.4,3-0.5,5.7-2,8.3c-0.3,0.6-1.1,0.7-1.6,0.4c-0.5-0.3-0.7-0.9-0.4-1.6
		c0.5-1.4,1.2-2.7,1.5-4.1c0.7-3-0.3-5.8-2-8.2c-1.5-2.3-3.2-4.4-4.9-6.5c-3.1-3.9-5.1-8.3-5.7-13.2c-0.5-4-0.1-7.9,1.2-11.7
		c1.6-4.6,4-8.7,7.4-12.2c4-4.1,8.9-6.6,14.4-7.9c4-0.9,7.9-1.2,12-0.4c6.3,1.2,11.7,3.9,15.3,9.5c2.2,3.4,3,7.2,2.7,11.3
		c-0.1,1,0.1,1.8,0.7,2.6c2.6,3.3,5.2,6.6,7.7,10c0.4,0.5,0.7,1.1,0.9,1.7c0.6,1.7,0,3.1-1.6,4c-1.1,0.6-2.3,1.2-3.5,1.8
		c-0.5,0.2-0.6,0.5-0.7,1c0,0.5-0.1,0.9-0.1,1.4c0,1.2-0.7,1.8-1.8,2.1C104.7,46.6,103.7,46.9,102.6,47.2z"/>
	<path class="st0" d="M11.1,148.1c0.3-1.7,0.6-3.4,0.9-5.2c1-5.3,1.9-10.6,2.9-15.9c1.2-6.4,2.3-12.8,3.4-19.3
		c0.5-2.6,0.8-5.3,1.3-7.9c1.5-6.7,5-12.1,9.9-16.7c5.2-4.8,11.2-8.3,17.8-10.9c0.5-0.2,1-0.4,1.5-0.6c0.8-0.3,1.5-0.1,1.8,0.6
		c0.3,0.7-0.1,1.2-0.9,1.6c-3.1,1.4-6.2,2.7-9.2,4.4c-5.2,2.8-9.8,6.6-13.4,11.4c-3,4.1-4.9,8.6-5.6,13.7c-0.5,3.5-1.2,7.1-1.8,10.6
		c-1,5.8-2.1,11.6-3.1,17.3c-1,5.3-1.9,10.7-2.9,16c-0.1,0.4-0.1,0.9-0.2,1.3c-0.1,0.7-0.7,1.1-1.3,1
		C11.4,149.3,11,148.8,11.1,148.1z"/>
	<path class="st0" d="M111.8,141c-1.1,2.6-2.1,5-3.1,7.5c-0.3,0.6-0.7,1-1.4,0.9c-0.8-0.1-1.2-0.9-0.8-1.7c0.9-2.3,1.8-4.5,2.8-6.8
		c0.5-1.1,0.9-2.2,1.4-3.4c0.2-0.6,0.6-0.9,1.2-0.9c0.6,0,1,0.4,1.1,0.9c1.2,3.3,2.5,6.7,3.7,10c0.3,0.8,0,1.4-0.7,1.7
		c-0.6,0.2-1.2-0.1-1.5-0.9C113.6,146,112.8,143.6,111.8,141z"/>
	<path class="st0" d="M38.5,141c-1.1,2.6-2.1,5-3.1,7.4c-0.4,0.9-0.9,1.2-1.6,0.9c-0.7-0.3-0.9-1-0.5-1.8c1.3-3.3,2.7-6.6,4-9.9
		c0.2-0.6,0.6-1,1.3-1c0.7,0,1,0.5,1.2,1c1.2,3.3,2.4,6.6,3.7,9.9c0.2,0.6,0.2,1.1-0.3,1.5c-0.7,0.6-1.5,0.3-1.9-0.7
		c-0.8-2.2-1.7-4.4-2.5-6.7C38.7,141.5,38.7,141.3,38.5,141z"/>
	<path class="st0" d="M128.2,57.2c0,1-0.8,1.6-1.5,1.3c-0.8-0.3-1.6-0.7-2.4-1.1c-0.5-0.3-0.7-0.9-0.4-1.4c0.2-0.6,0.9-0.8,1.4-0.6
		c0.8,0.3,1.6,0.6,2.3,1.1C127.9,56.6,128,57,128.2,57.2z"/>
	<path class="st0" d="M120.9,46.5c-0.2,0-0.3,0-0.5,0c-0.7,0-1.1-0.3-1.2-1c-0.1-0.6,0.3-1.2,0.9-1.3c0.9-0.1,1.7-0.2,2.6-0.2
		c0.6,0,1.1,0.5,1.1,1.1c0,0.6-0.4,1.1-1.1,1.2c-0.3,0-0.6,0.1-0.9,0.1C121.5,46.5,121.2,46.5,120.9,46.5
		C120.9,46.5,120.9,46.5,120.9,46.5z"/>
	<path class="st0" d="M114.4,59.2c0.2,0,0.2,0,0.3,0c0.7,0.1,2.7,2.2,2.6,2.9c-0.1,0.4-0.3,0.8-0.6,1c-0.3,0.2-0.9,0.2-1.2-0.1
		c-0.7-0.6-1.3-1.3-1.9-2c-0.2-0.3-0.2-0.9,0-1.2C113.8,59.5,114.2,59.3,114.4,59.2z"/>
	<path class="st0" d="M112.1,49.2c1.1,0.6,2.2,1,3.1,1.6c0.4,0.3,0.4,0.9,0.1,1.3c-0.3,0.5-0.7,0.7-1.3,0.5
		c-0.8-0.3-1.6-0.7-2.4-1.1c-0.5-0.3-0.7-0.8-0.5-1.3C111.3,49.9,111.7,49.6,112.1,49.2z"/>
	<path class="st0" d="M119.3,64.4c0.8,0,2.8,2.2,2.8,3c-0.1,0.9-1.2,1.4-1.8,0.8c-0.7-0.6-1.3-1.3-1.9-2
		C117.8,65.4,118.4,64.4,119.3,64.4z"/>
	<path class="st0" d="M112.7,57.1c-0.2,0.3-0.4,0.7-0.8,0.8c-0.3,0.1-0.9,0.1-1.2-0.1c-0.7-0.6-1.3-1.3-1.8-2
		c-0.4-0.5-0.3-1,0.1-1.4c0.4-0.4,1-0.6,1.4-0.2c0.8,0.7,1.4,1.5,2.1,2.3C112.6,56.6,112.6,56.8,112.7,57.1z"/>
	<path class="st0" d="M114,47.1c-1.2,0.1-1.7-0.3-1.7-1.1c0-0.6,0.4-1.1,1-1.2c0.8-0.1,1.5-0.1,2.3-0.2c0.7,0,1.2,0.4,1.3,1
		c0,0.7-0.4,1.2-1.2,1.3c-0.3,0-0.6,0-0.9,0.1C114.4,47,114.1,47,114,47.1z"/>
	<path class="st0" d="M120.7,55.8c-1.1-0.6-2.1-1-3-1.6c-0.2-0.2-0.3-1-0.1-1.3c0.2-0.3,0.8-0.6,1.2-0.6c0.9,0.3,1.8,0.7,2.6,1.2
		c0.3,0.2,0.5,0.9,0.4,1.3C121.6,55.2,121.1,55.5,120.7,55.8z"/>
	<path class="st0" d="M127.3,46c-0.6,0-1.1-0.4-1.1-1.1c0-0.7,0.3-1.1,1-1.2c0.5-0.1,0.9-0.1,1.4-0.1c0.6,0,1.1,0.5,1.1,1.1
		c0,0.6-0.4,1.1-1,1.2C128.2,46,127.8,46,127.3,46z"/>
	<path class="st0" d="M79.6,75c0,0.7-0.5,1.2-1.2,1.2c-0.6,0-1.1-0.5-1.1-1.2c0-0.6,0.5-1.1,1.1-1.2C79.1,73.8,79.6,74.3,79.6,75z"
		/>
	<path class="st0" d="M57.5,70.1c0,0.6-0.5,1.2-1.1,1.2c-0.6,0-1.2-0.5-1.2-1.2c0-0.6,0.5-1.2,1.2-1.2C56.9,69,57.4,69.5,57.5,70.1z
		"/>
	<path class="st0" d="M98.1,111c-1.9-0.2-3.6-1-5.1-2.3c-2.5-2.1-4-4.7-5.1-7.7c-0.2-0.7,0.1-1.4,0.7-1.6c0.6-0.2,1.2,0.1,1.5,0.8
		c0.7,2,1.6,3.8,3,5.3c1.4,1.6,3.1,2.8,5.3,3.1c0.7,0.1,1.1,0.6,1,1.2C99.4,110.6,98.9,111,98.1,111z"/>
	<path class="st0" d="M98.1,125c-1.9-0.2-3.7-1-5.2-2.3c-2.4-2.1-4-4.7-5-7.7c-0.2-0.7,0.1-1.4,0.7-1.6c0.6-0.2,1.2,0.1,1.5,0.8
		c0.6,1.8,1.5,3.5,2.7,5c1.4,1.8,3.2,3.1,5.5,3.4c0.7,0.1,1.1,0.7,1.1,1.3C99.3,124.6,98.8,125,98.1,125z"/>
	<path class="st0" d="M49.5,125.1c-0.7-0.1-1.2-0.5-1.3-1.1c-0.1-0.6,0.3-1.2,0.9-1.3c3.7-0.6,5.8-3.1,7.4-6.2
		c0.4-0.8,0.7-1.6,1-2.4c0.3-0.6,0.8-0.9,1.4-0.7c0.6,0.2,1,0.8,0.8,1.4c-1.4,3.9-3.4,7.3-7.2,9.2C51.6,124.6,50.6,124.8,49.5,125.1
		z"/>
	<path class="st0" d="M49.6,111.2c-0.7-0.1-1.2-0.5-1.3-1.1c-0.1-0.6,0.3-1.2,0.8-1.3c3.9-0.6,6-3.3,7.6-6.5c0.3-0.6,0.6-1.3,0.8-2
		c0.3-0.7,0.9-1,1.5-0.8c0.6,0.2,1,0.9,0.7,1.5c-1.4,3.8-3.4,7.1-7.1,9.1C51.7,110.6,50.6,110.8,49.6,111.2z"/>
</g>
</svg>
