<?xml version="1.0" encoding="utf-8"?>
<!-- Generator: Adobe Illustrator 24.3.0, SVG Export Plug-In . SVG Version: 6.00 Build 0)  -->
<svg version="1.1" id="Layer_1" xmlns="http://www.w3.org/2000/svg" xmlns:xlink="http://www.w3.org/1999/xlink" x="0px" y="0px"
	 viewBox="0 0 150 150" style="enable-background:new 0 0 150 150;" xml:space="preserve">
<style type="text/css">
	.st0{fill:#005BAB;}
</style>
<g>
	<g>
		<g>
			<g>
				<g>
					<g>
						<g>
							<path class="st0" d="M25.4,125.3c-0.4,0-0.9-0.3-1-0.7c-0.2-0.6-0.5-1.2-0.8-1.7l-0.7-1c-0.3-0.5-0.2-1.1,0.3-1.5
								c0.5-0.3,1.1-0.2,1.5,0.3l0.7,1c0.5,0.7,0.9,1.5,1.1,2.3c0.2,0.6-0.1,1.1-0.7,1.3C25.6,125.2,25.5,125.3,25.4,125.3z"/>
						</g>
					</g>
				</g>
			</g>
		</g>
		<g>
			<g>
				<g>
					<g>
						<g>
							<path class="st0" d="M18.5,134.6c-2.1,0-4.2-0.8-5.8-2.4c-2.8-2.8-3.2-7.2-1-10.5l5.9-8.6c0.2-0.3,0.5-0.5,0.9-0.5l0,0
								c0.3,0,0.7,0.2,0.9,0.5l2.9,4.2c0.3,0.5,0.2,1.1-0.3,1.5c-0.5,0.3-1.1,0.2-1.5-0.3l-2-2.9l-5.1,7.3c-1.7,2.4-1.4,5.8,0.7,7.9
								c2.4,2.4,6.3,2.4,8.7,0c0.6-0.6,1.1-1.4,1.4-2.2c0.2-0.5,0.8-0.8,1.3-0.6c0.5,0.2,0.8,0.8,0.6,1.3c-0.4,1.1-1.1,2.1-1.9,3
								C22.8,133.8,20.7,134.6,18.5,134.6z"/>
						</g>
					</g>
				</g>
			</g>
		</g>
	</g>
	<g>
		<g>
			<g>
				<g>
					<g>
						<path class="st0" d="M34.3,122.3c-1.5,0-2.9-0.6-4.1-1.7c-2-2-2.2-5.1-0.7-7.3l3.9-5.6c0.4-0.6,1.3-0.6,1.7,0l3.9,5.6
							c1.6,2.3,1.3,5.4-0.7,7.3C37.3,121.8,35.8,122.3,34.3,122.3z M34.3,110.1l-3,4.4c-1,1.5-0.8,3.4,0.4,4.7
							c1.4,1.4,3.8,1.4,5.2,0c1.3-1.3,1.4-3.2,0.4-4.7l0,0L34.3,110.1z"/>
					</g>
				</g>
			</g>
		</g>
	</g>
	<g>
		<g>
			<g>
				<g>
					<g>
						<g>
							<path class="st0" d="M99.9,114.9c-0.7,0-1.5-0.2-2.8-0.7c-0.7-0.3-1.6-0.6-2.8-0.9c-0.5-0.2-0.8-0.6-0.7-1.1
								c0.2-1.5,0.4-2.7,0.6-3.7c0.6-3.4,0.6-3.4-2-6.8c-0.7-0.9-1.5-2-2.5-3.3c-1.2,0-2.1,0-2.9,0c-3.5,0-3.8,0.1-5.5-1.6
								c-0.3-0.3-0.6-0.6-1.1-1.1c-0.3-0.2-0.4-0.6-0.3-1c0.3-1.6,0.6-2.9,0.7-3.9c0.8-4.2,0.9-4.4,3.9-6.3c0.7-0.4,1.5-0.9,2.5-1.6
								c0.1-0.1,0.3-0.1,0.4-0.2c1.9-0.3,3.3-0.5,4.4-0.6c1.2-0.2,2.1-0.3,2.6-0.4c0,0,0,0,0-0.1c0-0.2,0-0.5,0-0.9
								c0-0.8,0-1.4,0-1.9c0-0.6,0-1.2,0-1.3c-0.1-0.1-0.6-0.4-1.1-0.7c-0.4-0.2-0.9-0.5-1.5-0.8c-0.8,0-1.5,0-2-0.1
								c-0.6,0-1.3-0.1-1.5,0c-0.2,0.1-0.4,1.1-0.7,2.1c-0.2,0.8-0.5,1.7-0.9,3c-0.1,0.4-0.4,0.6-0.8,0.7c-0.4,0.1-0.8-0.1-1-0.3
								l-3.3-3.9c-0.2-0.2-0.2-0.4-0.2-0.7v-7.1c0-0.3,0.2-0.7,0.4-0.9l4.6-3.3l1.2-1.7c0.3-0.5,1-0.6,1.5-0.3
								c0.5,0.3,0.6,1,0.3,1.5L88,67.2c-0.1,0.1-0.2,0.2-0.3,0.3l-4.3,3.1v6.2l1.9,2.2c0.1-0.4,0.2-0.7,0.3-1.1
								c0.9-3.3,1.2-3.8,4.3-3.6c0.6,0,1.3,0.1,2.2,0.1c0.2,0,0.4,0,0.5,0.1c0.7,0.4,1.2,0.7,1.7,0.9c2.1,1.1,2.3,1.5,2.2,3.9
								c0,0.5,0,1.1,0,1.8c0,0.3,0,0.5,0,0.7c0.2,2.1-0.8,2.2-4.4,2.7c-1.1,0.1-2.4,0.3-4.2,0.6c-1,0.6-1.7,1.1-2.4,1.5
								c-2.3,1.4-2.3,1.4-3,4.9c-0.2,0.9-0.4,2-0.6,3.3c0.3,0.3,0.5,0.5,0.7,0.7c1,1,1.1,1,4,1c0.9,0,2,0,3.4,0
								c0.3,0,0.6,0.2,0.8,0.4c1.2,1.6,2.1,2.8,2.8,3.7c3,3.9,3.1,4.2,2.5,8.4c-0.1,0.7-0.3,1.6-0.4,2.7c0.8,0.3,1.4,0.5,2,0.7
								c2.1,0.8,2.1,0.8,3.3-1.6c0.4-0.8,0.9-1.8,1.6-3c0.1-1,0.1-1.8,0.1-2.5c0.1-3.7,0.3-3.9,3.6-8.4c0.8-1.1,1.9-2.5,3.2-4.4
								c0.2-1,0.3-1.9,0.4-2.5c0.5-3,0.6-3.6,3.2-4c0.4-0.1,1-0.2,1.7-0.3c0.6-0.1,1.1,0.2,1.2,0.8c0.1,0.6-0.2,1.1-0.8,1.2
								c-0.7,0.2-1.3,0.3-1.8,0.3c-0.4,0.1-1,0.2-1.1,0.2c-0.1,0.2-0.3,1.1-0.4,2c-0.1,0.7-0.3,1.7-0.5,2.8c0,0.2-0.1,0.3-0.2,0.4
								c-1.4,1.9-2.5,3.4-3.3,4.6c-3.1,4.2-3.1,4.2-3.2,7.3c0,0.7-0.1,1.6-0.1,2.8c0,0.2-0.1,0.3-0.1,0.4c-0.7,1.3-1.2,2.3-1.6,3.1
								C101.9,114,101.2,114.9,99.9,114.9z"/>
						</g>
					</g>
				</g>
			</g>
		</g>
		<g>
			<g>
				<g>
					<g>
						<g>
							<path class="st0" d="M57,119.5c-0.7,0-1.3-0.2-1.9-0.5c-2.8-1.6-2.9-6.2-2.5-10l-0.6-1.2c-0.3-0.5-0.1-1.1,0.4-1.4
								c0.5-0.3,1.1-0.1,1.4,0.4l0.8,1.5c0.1,0.2,0.1,0.4,0.1,0.6c-0.5,4.3,0,7.5,1.4,8.3c1,0.6,2.8-0.1,5.1-1.8
								c2.1-3.2,4.2-5.7,5.9-7.7c2.4-2.8,4.1-4.8,3.9-6.4c-0.1-1-0.9-2-2.4-3.2L65.1,97l-5-2.4c-0.5-0.2-0.7-0.9-0.5-1.4
								c0.2-0.5,0.9-0.7,1.4-0.5l4.9,2.3l3.5,1.2c0.1,0,0.2,0.1,0.3,0.2c2.1,1.6,3.2,3.1,3.4,4.7c0.3,2.5-1.6,4.7-4.4,8
								c-1.7,2-3.8,4.5-5.9,7.7c-0.1,0.1-0.1,0.2-0.2,0.2C60.4,118.7,58.5,119.5,57,119.5z"/>
						</g>
					</g>
				</g>
			</g>
		</g>
		<g>
			<g>
				<g>
					<g>
						<g>
							<path class="st0" d="M49.2,75.3c-0.2,0-0.4-0.1-0.6-0.2c-0.5-0.3-0.6-1-0.3-1.4l0.9-1.4c0.9-1.4,2.4-2.3,4-2.6
								c4.6-0.8,6.9-3.2,7.4-7.4c0.1-0.6-0.2-1.2-0.7-1.4c-1.1-0.7-1.4-0.8-1.5-0.8c0,0-0.1,0.1-0.3,0.2c-1,0.7-3,2.1-10.1,2.2
								c-1.1,0-1.9-0.5-2.5-1.3c-0.6-0.8-0.7-1.8-0.4-2.7c1.1-3.2,3.8-4.8,5.7-5.7c1.2-0.5,2.5-0.6,3.7-0.1c1.8,0.8,2.4,0.6,2.5,0.6
								c0,0,0.1-0.5-0.6-1.8l-1.2-0.7c-0.5-0.3-0.7-0.9-0.4-1.4c0.3-0.5,0.9-0.7,1.4-0.4l1.5,0.8c0.2,0.1,0.3,0.2,0.4,0.4
								c0.4,0.8,1.7,3.1,0.4,4.5c-1.3,1.4-3.9,0.3-4.8,0c-0.7-0.3-1.4-0.3-2.1,0c-1.7,0.8-3.9,2.1-4.6,4.4c-0.1,0.4,0,0.6,0.1,0.8
								c0.2,0.3,0.5,0.3,0.8,0.4c6.5,0,8.1-1.2,8.9-1.8c1.4-1,2.1-0.8,4.1,0.6c1.1,0.7,1.8,2.1,1.6,3.4c-0.5,5.2-3.6,8.3-9.1,9.3
								c-1.1,0.2-2.1,0.8-2.6,1.7l-0.9,1.4C49.9,75.1,49.6,75.3,49.2,75.3z"/>
						</g>
					</g>
				</g>
			</g>
		</g>
		<g>
			<g>
				<g>
					<g>
						<g>
							<path class="st0" d="M67,59c-0.6,0-1.2-0.3-1.5-0.8l-3.2-4.8c-0.1-0.2-0.2-0.4-0.2-0.6c0-1.2,0-2.7-0.1-3c0,0-0.1,0-0.2-0.1
								c-0.2-0.1-0.4-0.2-0.6-0.4c-0.1-0.1-0.2-0.1-0.2-0.2l-0.8-1c-0.4-0.5-0.3-1.1,0.2-1.5c0.5-0.4,1.1-0.3,1.5,0.2l0.7,0.9
								c0.1,0.1,0.2,0.2,0.3,0.2c1.3,0.8,1.3,1.4,1.3,4.6l2.8,4.1c1.8-3.2,3.4-3.5,5.1-3.6c1.2,0,2-0.1,3.3-3.2
								c0.2-0.3,0.6-1.3,6.7-3.8c0.5-0.2,1.1,0,1.4,0.6c0.2,0.5,0,1.1-0.6,1.4c-2.4,1-5.2,2.4-5.6,2.8c-1.7,3.9-3.2,4.2-5.1,4.3
								c-1.1,0-2.1,0.1-3.5,2.8c-0.3,0.6-0.9,0.9-1.5,1C67,59,67,59,67,59z"/>
						</g>
					</g>
				</g>
			</g>
		</g>
		<g>
			<g>
				<g>
					<g>
						<g>
							<path class="st0" d="M97.8,124.3c-0.3,0-0.7-0.2-0.9-0.5c-0.3-0.5-0.2-1.1,0.3-1.4c12.5-7.8,20-21.2,20.2-35.9
								c0-0.3,0-0.4,0-0.6c0-3.4-0.4-6.7-1.2-9.9c-0.1-0.6,0.2-1.1,0.8-1.3c0.6-0.1,1.1,0.2,1.3,0.8c0.8,3.4,1.2,6.9,1.2,10.4
								c0,0.3,0,0.5,0,0.7c-0.2,15.3-8.1,29.3-21.2,37.5C98.2,124.2,98,124.3,97.8,124.3z"/>
						</g>
					</g>
				</g>
			</g>
		</g>
		<g>
			<g>
				<g>
					<g>
						<g>
							<path class="st0" d="M78.1,130.8c-0.5,0-1-0.4-1-1c0-0.6,0.4-1.1,1-1.1c4.5-0.4,8.9-1.4,13.1-3.2c0.5-0.2,1.1,0,1.4,0.6
								c0.2,0.5,0,1.1-0.6,1.4C87.6,129.3,83,130.4,78.1,130.8C78.2,130.8,78.2,130.8,78.1,130.8z"/>
						</g>
					</g>
				</g>
			</g>
		</g>
		<g>
			<g>
				<g>
					<g>
						<g>
							<path class="st0" d="M67.9,130.4c-0.1,0-0.1,0-0.2,0c-5.9-0.9-11.4-2.9-16.5-6c-0.5-0.3-0.7-0.9-0.4-1.4
								c0.3-0.5,0.9-0.7,1.4-0.4c4.8,2.9,10.1,4.9,15.7,5.7c0.6,0.1,1,0.6,0.9,1.2C68.8,130.1,68.4,130.4,67.9,130.4z"/>
						</g>
					</g>
				</g>
			</g>
		</g>
		<g>
			<g>
				<g>
					<g>
						<g>
							<path class="st0" d="M32.9,72.6c-0.1,0-0.2,0-0.3-0.1c-0.5-0.2-0.8-0.8-0.6-1.3C36.2,58.8,45.7,48.8,58,44
								c5.3-2.1,10.9-3.2,16.6-3.2c2.2,0,4.4,0.2,6.5,0.5c0.6,0.1,1,0.6,0.9,1.2c-0.1,0.6-0.6,0.9-1.2,0.9c-2-0.3-4.1-0.4-6.2-0.4
								c-5.4,0-10.7,1-15.8,3C47.1,50.5,38,60,33.9,71.9C33.8,72.3,33.4,72.6,32.9,72.6z"/>
						</g>
					</g>
				</g>
			</g>
		</g>
	</g>
	<g>
		<g>
			<g>
				<g>
					<g>
						<path class="st0" d="M39.3,105.4l-19.4,0c-0.6,0-1-0.5-1-1c0-0.6,0.5-1,1-1c0,0,0,0,0,0l19.4,0c7.9,0,14.4-5.5,14.4-12.3
							c0-6.8-6.4-12.3-14.4-12.3c-4.5,0-8.7,1.8-11.4,4.9c-0.4,0.4-1,0.5-1.5,0.1c-0.4-0.4-0.5-1-0.1-1.5c3.1-3.6,7.9-5.6,13-5.6
							c9.1,0,16.4,6.4,16.4,14.4C55.7,99,48.4,105.4,39.3,105.4z"/>
					</g>
				</g>
			</g>
		</g>
	</g>
	<g>
		<g>
			<g>
				<g>
					<g>
						<path class="st0" d="M8.4,105.4c-4.6,0-8.4-3.8-8.4-8.4c0-4.1,3.1-7.7,7.1-8.3c2-4.9,7.4-8.3,13.4-8.3c0.6,0,1,0.5,1,1
							c0,0.6-0.5,1-1,1c-5.4,0-10.2,3.1-11.7,7.5c-0.1,0.4-0.5,0.7-0.9,0.7c-3.3,0.2-5.9,3-5.9,6.3c0,3.5,2.8,6.3,6.3,6.3l3.7,0
							c0,0,0,0,0,0c0.6,0,1,0.5,1,1c0,0.6-0.5,1-1,1L8.4,105.4z"/>
					</g>
				</g>
			</g>
		</g>
	</g>
	<g>
		<g>
			<g>
				<g>
					<g>
						<path class="st0" d="M135.7,67.1c-0.6,0-1-0.5-1-1c0-0.6,0.5-1,1-1c8.4,0,12.1-5.4,12.1-10.8c0-6-4.8-10.8-10.8-10.8
							c-1.6,0-3.2,0.4-4.7,1.1c-0.5,0.3-1.1,0-1.4-0.5c-0.3-0.5,0-1.1,0.5-1.4c1.8-0.9,3.7-1.3,5.6-1.3c7.1,0,12.9,5.8,12.9,12.9
							C150,60.4,145.5,67.1,135.7,67.1z"/>
					</g>
				</g>
			</g>
		</g>
	</g>
	<g>
		<g>
			<g>
				<g>
					<g>
						<path class="st0" d="M118,67.1c-0.6,0-1-0.5-1-1c0-0.6,0.5-1,1-1l11.8,0l0,0c0.6,0,1,0.5,1,1c0,0.6-0.5,1-1,1L118,67.1
							L118,67.1z"/>
					</g>
				</g>
			</g>
		</g>
	</g>
	<g>
		<g>
			<g>
				<g>
					<g>
						<path class="st0" d="M104.3,67.2c-6.5,0-11.8-5.3-11.8-11.8c0-6.5,5.3-11.8,11.8-11.8c1.1,0,2.2,0.2,3.3,0.5
							c2.7-4.5,7.6-7.3,12.9-7.3c2.6,0,5.2,0.7,7.5,2c0.5,0.3,0.7,0.9,0.4,1.4c-0.3,0.5-0.9,0.7-1.4,0.4c-2-1.1-4.2-1.7-6.5-1.7
							c-4.8,0-9.3,2.7-11.5,6.9c-0.2,0.5-0.8,0.7-1.3,0.5c-1.1-0.4-2.3-0.6-3.4-0.6c-5.4,0-9.7,4.4-9.7,9.7c0,5.4,4.4,9.7,9.7,9.7
							c1.4,0,4.5,0,7.6,0c0,0,0,0,0,0c0.6,0,1,0.5,1,1c0,0.6-0.5,1-1,1.1C108.7,67.1,105.7,67.2,104.3,67.2z"/>
					</g>
				</g>
			</g>
		</g>
	</g>
	<g>
		<g>
			<g>
				<g>
					<g>
						<path class="st0" d="M95,44.2c-0.5,0-1-0.4-1-0.9c-0.1-0.5-0.1-1-0.1-1.5c0-3.3,1.5-6.4,4-8.5c2-1.7,4.5-2.6,7.1-2.6
							c2.8,0,5.5,1.1,7.6,3c0.4,0.4,0.4,1.1,0,1.5c-0.4,0.4-1.1,0.4-1.5,0c-3.2-3-8.6-3.2-12-0.3c-2.1,1.7-3.2,4.2-3.2,6.9
							c0,0.4,0,0.8,0.1,1.2c0.1,0.6-0.3,1.1-0.9,1.2C95.1,44.2,95,44.2,95,44.2z"/>
					</g>
				</g>
			</g>
		</g>
	</g>
	<g>
		<g>
			<g>
				<g>
					<g>
						<path class="st0" d="M109.4,30.3c-0.1,0-0.3,0-0.4-0.1c-0.5-0.2-0.8-0.9-0.5-1.4l4.9-11c0.2-0.5,0.9-0.8,1.4-0.5
							c0.5,0.2,0.8,0.9,0.5,1.4l-4.9,11C110.2,30.1,109.8,30.3,109.4,30.3z"/>
					</g>
				</g>
			</g>
		</g>
	</g>
	<g>
		<g>
			<g>
				<g>
					<g>
						<path class="st0" d="M114,32.8c-0.2,0-0.5-0.1-0.7-0.3c-0.4-0.4-0.5-1-0.1-1.5l7.9-9c0.4-0.4,1-0.5,1.5-0.1
							c0.4,0.4,0.5,1,0.1,1.5l-7.9,9C114.6,32.7,114.3,32.8,114,32.8z"/>
					</g>
				</g>
			</g>
		</g>
	</g>
	<g>
		<g>
			<g>
				<g>
					<g>
						<path class="st0" d="M104.1,29.5C104.1,29.5,104.1,29.5,104.1,29.5c-0.6,0-1-0.5-1-1.1l0.1-12c0-0.6,0.5-1,1-1c0,0,0,0,0,0
							c0.6,0,1,0.5,1,1.1l-0.1,12C105.2,29.1,104.7,29.5,104.1,29.5z"/>
					</g>
				</g>
			</g>
		</g>
	</g>
	<g>
		<g>
			<g>
				<g>
					<g>
						<path class="st0" d="M98.8,30.7c-0.3,0-0.7-0.2-0.9-0.5l-6.7-10c-0.3-0.5-0.2-1.1,0.3-1.4c0.5-0.3,1.1-0.2,1.4,0.3l6.7,10
							c0.3,0.5,0.2,1.1-0.3,1.4C99.2,30.7,99,30.7,98.8,30.7z"/>
					</g>
				</g>
			</g>
		</g>
	</g>
	<g>
		<g>
			<g>
				<g>
					<g>
						<path class="st0" d="M93.9,34.1c-0.2,0-0.4,0-0.5-0.2l-10.2-6.3c-0.5-0.3-0.6-0.9-0.3-1.4c0.3-0.5,1-0.6,1.4-0.3l10.2,6.3
							c0.5,0.3,0.6,0.9,0.3,1.4C94.6,34,94.3,34.1,93.9,34.1z"/>
					</g>
				</g>
			</g>
		</g>
	</g>
</g>
</svg>
