<?xml version="1.0" encoding="utf-8"?>
<!-- Generator: Adobe Illustrator 24.3.0, SVG Export Plug-In . SVG Version: 6.00 Build 0)  -->
<svg version="1.1" id="Layer_1" xmlns="http://www.w3.org/2000/svg" xmlns:xlink="http://www.w3.org/1999/xlink" x="0px" y="0px"
	 viewBox="0 0 150 150" style="enable-background:new 0 0 150 150;" xml:space="preserve">
<style type="text/css">
	.st0{fill:#005BAB;}
</style>
<g>
	<path class="st0" d="M0.9,21.4c0.2-1,0.4-2.1,0.7-3.1c2.3-9,10.1-16.1,19-17.2c9.9-1.3,18.9,3.2,23.7,11.6c0.2,0.4,0.5,0.8,0.7,1.2
		c8-6.1,16.6-7.6,25.7-3.1c9.2,4.7,13.1,12.7,12.8,23c1.9,0.3,3.9,0.7,5.8,1c0.7,0.1,1.3,0.3,2,0.5c1.4,0.5,2.1,1.5,1.7,2.7
		c-0.4,1.2-1.5,1.8-2.9,1.4c-3.8-1.1-7.8-1.5-11.7-1.2c-5,0.4-9.5,2.2-13.3,5.4c-0.7,0.6-1,1.2-0.9,2.1c0.2,1.5,0.5,3,0.5,4.5
		c0,1.9,0.9,3,2.2,4.1c4.7,4,10,6.2,16.2,6.4c2.6,0.1,5.2,0.1,7.8,0.6c6.1,1.3,10.5,4.8,12.9,10.9c1.4-1.7,1.9-3.7,2.1-5.8
		c0.8-8.3-1.5-15.5-7.2-21.7c-0.2-0.2-0.3-0.3-0.5-0.5c-0.9-1-0.9-2.3,0-3.1c0.8-0.8,2.1-0.8,3.1,0.1c3.6,3.4,6,7.5,7.5,12.2
		c0.5,1.7,0.9,3.4,1.3,5.2c12.1-6,22.9-4.6,31.4,6.4c5.7,7.3,6.3,18.7-0.7,27.8c1.5,1.8,3.1,3.5,4.5,5.4c1.4,1.9,1.4,3.2,0.1,4
		c-1.1,0.7-2.4,0.5-3.7-1.6c-5.1-7.9-15.3-10.6-23.8-6.6c-8.4,4.1-12.6,13.7-9.8,22.7c0.3,1.1,0.9,1.7,1.9,2.1
		c4.7,1.8,8.3,5,10.7,9.5c0.5,0.8,1,1.2,1.9,1.3c11.7,2,22.2-6.7,22.3-18.6c0-0.8,0.1-1.8,0.6-2.2c0.5-0.5,1.5-0.7,2.2-0.6
		c1.1,0.2,1.5,1.1,1.5,2.2c0.1,3.5-0.5,6.8-1.9,10c-4,9.2-13.4,14.7-23.5,13.8c-0.2,0-0.5,0-0.9,0c0.6,3.5,1.2,6.8,1.8,10.2
		c0.1,0.6,0.2,1.2,0.3,1.7c0.4,1.4-0.2,2.3-1.3,3.1c-0.5,0-1,0-1.4,0c-0.5-0.9-1.3-1.7-1.5-2.6c-0.7-3.1-1.2-6.1-1.7-9.2
		c-1-6.6-4.2-11.7-10.5-14.2c-2.9-1.2-6-1.9-9.1-2.9c-0.2-0.1-0.5,0-0.9,0c-0.2,1.9-0.4,3.7-0.6,5.5c-1,7.4-2.6,14.6-5.8,21.4
		c-0.4,0.8-1.1,1.4-1.7,2.1c-0.5,0-1,0-1.4,0c-1.5-1.3-1.7-2-0.9-3.5c2.3-4.5,3.5-9.4,4.6-14.3c0.7-3.1,1-6.3,1.5-9.4
		c-1.3-0.4-2.3-0.7-3.3-1c-3.2,7.9-7.5,10.8-15.6,10.9c-8,0.1-12.4-3-15.7-10.9c-1,0.3-2.1,0.6-3.2,1c0.3,2,0.6,3.8,0.9,5.6
		c0.1,0.7,0.3,1.5,0,2c-0.5,0.7-1.3,1.4-2.1,1.4c-1.2,0.1-1.9-0.8-2.1-2c-0.5-2.9-0.9-5.9-1.4-8.9c-0.4,0.1-0.8,0-1.1,0.2
		c-2.6,0.8-5.3,1.5-7.9,2.4c-6,2.2-9.8,6.5-11.1,12.8c-0.7,3.6-1.3,7.3-2,10.9c-0.2,0.9-1,1.8-1.5,2.6c-0.5,0-1,0-1.4,0
		c-1.4-0.8-1.6-1.9-1.3-3.5c0.6-3,1.2-6.1,1.6-9.1c1.3-8.7,5.9-14.8,14.2-18c2.8-1.1,5.8-1.8,8.7-2.7c1.7-0.5,3.3-0.3,4.6,1
		c0.7,0.7,1.4,0.9,2.3,0.5c0.4-0.2,0.9-0.3,1.4-0.4c1.3-0.2,2-0.8,2-2.3c0-1.4,0.2-2.9,0.5-4.3c0.2-0.9-0.1-1.5-0.9-2.1
		c-4.4-3.8-8.1-8.2-10.8-13.3c-0.1-0.2-0.3-0.3-0.5-0.6c0.5,14-8.9,22.4-17.7,24.5c-9.8,2.4-20.1-1.9-25.3-10.6
		C0,99.6,1.1,88.5,8.1,80.8c3.5-3.8,7.7-6.2,12.8-7.2c6.9-1.3,13.2,0.4,18.6,4.4c0.9-1,1.7-1.9,2.6-2.8c-2.9-4-3.9-8.8-3.7-14
		c0.2-5.2,1.5-10,4.7-14c-1.3-2-2.6-3.8-3.9-5.7c-0.2,0.2-0.5,0.4-0.7,0.5c-6.7,5.1-14,6.4-22,3.8c-1.8-0.6-2.5-1.7-2-3
		c0.5-1.3,1.6-1.6,3.4-1.1c1.7,0.5,3.5,1,5.2,1c12.1,0.6,21.5-9.8,19.5-21.9c-1.2-7.1-5.4-12-12.1-14.5C23.7,3.9,17.3,5,11.9,9.7
		c-8,6.8-8.9,17.8-2.4,26.2c1.1,1.4,1.1,2.7,0,3.5c-1.1,0.8-2.4,0.7-3.3-0.8c-1.4-2.2-2.7-4.4-3.8-6.8c-0.7-1.6-1-3.5-1.4-5.3
		C0.9,24.9,0.9,23.2,0.9,21.4z M63.5,58c-1.6,4.5-4.7,7.8-8.9,10.3c-1.9,1.1-3.3,2.9-3.6,5c-0.7,6.2-1.3,12.7,1.3,18.5
		c3.3,7.4,8.8,13.2,16.1,17.1c4.4,2.3,9,2.3,13.5,0c7.3-3.8,12.4-9.7,16.1-16.9c0.8-1.6,1.2-3.6,1.4-5.4c0.3-3.5,0.3-7,0.3-10.6
		c0-2.8-1.2-5.1-3.3-7c-2.7-2.5-5.9-3.6-9.5-3.7c-5.2-0.1-10.5-0.2-15.3-2.6C68.9,61.4,66.3,59.6,63.5,58z M26.2,77.6
		c-12.5,0-21.3,10.2-19.6,21.6c1.6,10.4,11.2,17.3,21.8,15.7c9.9-1.5,17-11.3,15.3-21.4c-0.1-0.5-0.4-1.2-0.9-1.5
		c-2.7-2.1-4.2-4.8-4.6-8.2c-0.1-0.6-0.4-1.3-0.9-1.7C33.9,79.1,29.8,77.7,26.2,77.6z M136.8,90.7c3.7-4.6,5.2-9.7,4.2-15.4
		c-1.3-6.9-5.3-11.8-11.7-14.3c-6.5-2.5-12.7-1.5-18.3,2.7c-0.4,0.3-0.8,0.8-0.8,1.2c-0.2,3.7-1,7.1-3.1,10.3c3,1.7,4.7,4.1,4.9,7.5
		c0.2,3.3-1.1,6.1-3.4,8.5c0.6,0.6,1.1,1.1,1.6,1.6c0.3,0.3,0.6,0.5,0.9,0.7C119.1,87.3,127.6,86.4,136.8,90.7z M46,44.3
		c4.7-3.3,9.4-4.4,14.7-3.1c0.4,0.1,0.9-0.2,1.2-0.4c4.6-3.9,9.9-6,15.9-6.5c1-0.1,1.3-0.5,1.2-1.3c-0.2-2-0.1-4-0.6-5.9
		C75.1,13.2,57.9,8,47.5,17.7c-0.4,0.4-0.9,1.2-0.8,1.7c1.2,6.6-0.1,12.5-3.8,18c-0.2,0.3-0.3,0.9-0.2,1.2
		C43.8,40.4,44.9,42.3,46,44.3z M46.1,73.5c1.2-4.1,3.2-7.2,6.7-9.2c4-2.3,6.1-5.9,7.5-10.1c0.1-0.4,0.2-0.8,0.2-1.3
		c-0.2-2.1-0.5-4.2-0.6-6.3c-0.1-1-0.5-1.4-1.5-1.5c-5.2-0.8-10.7,2-13.3,7.2c-2.9,5.8-3.2,11.8-0.8,17.9
		C44.7,71.4,45.5,72.4,46.1,73.5z M64.8,111.9c-0.3,2.3-0.6,4.2-0.7,6.2c-0.4,3.8,1.1,6.5,4.6,8.1c4.3,2,8.7,1.9,13,0
		c2-0.9,3.7-2.4,4.3-4.6c0.9-3.2-0.3-6.3-0.5-9.7C78.5,116,71.7,116,64.8,111.9z M103.5,116.8c-0.9-3.8-0.9-7.3-0.1-10.7
		c0.8-3.5,2.4-6.7,4.3-9.2c-0.8-0.9-1.4-1.8-2.1-2.6c-0.9-1-3.5-0.7-4.1,0.5c-2.4,4.6-5.5,8.7-9.4,12c-2.1,1.8-2.6,3.5-2.1,6
		c0.7,3.6,0.5,3.7,4,4.6c0.5,0.1,1.2,0,1.5-0.3c1.5-1.4,3.2-1.7,5.1-1.1C101.5,116.3,102.3,116.5,103.5,116.8z M46.2,79
		c-1.9,0.1-3.4,1.7-3.5,3.8c-0.2,2.7,2,6,4.1,6.3C46.5,85.7,46.3,82.3,46.2,79z M103.5,89.1c2.5-0.9,4.3-3.7,4.1-6.4
		c-0.2-2-1.5-3.4-3.5-3.7C103.9,82.3,103.7,85.7,103.5,89.1z"/>
	<path class="st0" d="M59.6,149.1c-0.5-0.8-1.2-1.6-1.5-2.5c-0.9-2.2-1.6-4.5-2.3-6.8c-0.5-1.5,0-2.7,1.2-3.1
		c1.3-0.4,2.4,0.2,2.9,1.8c0.8,2.2,1.4,4.5,2.3,6.7c0.6,1.6,0.6,2.9-0.8,4C60.8,149.1,60.2,149.1,59.6,149.1z"/>
	<path class="st0" d="M102.8,24c0-12.8,10.5-23.2,23.3-23.1c12.7,0,23.1,10.5,23,23.2c0,12.8-10.5,23.2-23.3,23.1
		C113.1,47.1,102.8,36.7,102.8,24z M126.1,5.2c-10.3,0-18.9,8.3-18.9,18.6c-0.1,10.4,8.3,19,18.7,19c10.3,0,18.9-8.3,18.9-18.6
		C144.9,13.8,136.5,5.2,126.1,5.2z"/>
	<path class="st0" d="M117.1,113.2c-1.2,0-2.2-1.1-2.1-2.3c0.1-1.1,1.1-2.1,2.2-2c1.2,0,2.2,1.1,2.1,2.3
		C119.2,112.3,118.2,113.2,117.1,113.2z"/>
	<path class="st0" d="M128,111.1c0,1.2-1.1,2.2-2.3,2.1c-1.1-0.1-2.1-1.1-2-2.2c0-1.2,1.1-2.2,2.3-2.1C127.1,109,128,110,128,111.1z
		"/>
	<path class="st0" d="M136.7,111.1c0,1.2-1.1,2.2-2.3,2.1c-1.1,0-2.1-1-2.1-2.2c0-1.2,1.1-2.2,2.2-2.1
		C135.8,108.9,136.7,109.9,136.7,111.1z"/>
	<path class="st0" d="M22,24.6c0-0.4,0-0.9,0-1.3c0-2.8,0.1-2.9,2.8-3.6c1.3-0.3,2.2-1.4,2.2-2.8c0-1.4-0.9-2.6-2.4-2.9
		c-1.3-0.3-2.7,0.5-3.2,1.7c-0.2,0.4-0.2,0.8-0.3,1.3c-0.2,1.4-1.1,2.2-2.3,2.1c-1.3-0.1-2.1-1.2-2-2.7c0.3-3.4,2.9-6.2,6.3-6.7
		c3.3-0.5,6.6,1.6,7.8,4.8c1.2,3.4-0.2,7.2-3.5,8.9c-0.9,0.5-1.3,1-1.2,2c0.1,0.7,0,1.4,0,2c-0.1,1.3-1,2.2-2.2,2.2
		c-1.2,0-2-0.9-2.1-2.3c0-0.1,0-0.2,0-0.3C22,26.1,22,25.3,22,24.6z"/>
	<path class="st0" d="M26.3,36.2c0,1.2-1,2.3-2.1,2.3c-1.2,0-2.2-1-2.2-2.2C22,35,23,34,24.1,34C25.3,33.9,26.3,34.9,26.3,36.2z"/>
	<path class="st0" d="M63.5,84.5c-0.9-0.6-1.7-1-2.5-1.5c-1.1-0.7-1.3-1.9-0.8-2.9c0.6-1,1.8-1.4,2.9-0.8c2,1.1,4,2.2,5.9,3.4
		c1.5,0.9,1.5,2.7,0,3.7c-1.9,1.2-3.8,2.3-5.7,3.3c-1.2,0.6-2.4,0.3-3-0.8c-0.6-1.1-0.3-2.2,0.9-3C61.9,85.4,62.6,85,63.5,84.5z"/>
	<path class="st0" d="M86.5,84.5c0.8,0.5,1.6,0.9,2.3,1.4c1.2,0.8,1.5,1.9,1,2.9c-0.6,1.1-1.8,1.5-3.1,0.8c-1.9-1-3.7-2.1-5.5-3.2
		c-1.7-1.1-1.7-2.9,0-3.9c1.8-1.1,3.6-2.1,5.4-3.1c1.3-0.7,2.5-0.4,3.1,0.7c0.6,1.1,0.3,2.3-1,3.1C88.1,83.6,87.4,84,86.5,84.5z"/>
	<path class="st0" d="M75.1,99.3c0.8,0,1.5,0,2.3,0c1.2,0.1,2.1,1,2.1,2.2c0,1.2-0.8,2.1-2.1,2.1c-1.6,0.1-3.2,0.1-4.8,0
		c-1.2-0.1-2.1-1-2.1-2.2c0-1.2,0.8-2.1,2.1-2.1C73.4,99.3,74.3,99.3,75.1,99.3z"/>
	<path class="st0" d="M75,95c-1.2-0.4-2.3-0.7-3.3-1.3c-1-0.6-1.3-1.7-0.7-2.8c0.6-1.1,1.5-1.3,2.7-1c0.9,0.2,1.9,0.2,2.7,0
		c1.2-0.3,2.1,0,2.7,1c0.6,1.1,0.3,2.2-0.7,2.8C77.3,94.3,76.1,94.6,75,95z"/>
	<path class="st0" d="M27.5,92.1c0,2.4,0,4.8,0,7.2c0,1.6-0.9,2.7-2.2,2.6c-1.3,0-2.1-1-2.1-2.6c0-4.9,0-9.8,0-14.8
		c0-1.6,0.9-2.7,2.2-2.6c1.3,0,2.1,1,2.1,2.6C27.5,87.1,27.5,89.6,27.5,92.1z"/>
	<path class="st0" d="M25.3,110.9c-1.2,0-2.1-1.1-2.1-2.3c0-1.2,1-2.2,2.2-2.2c1.2,0,2.1,1.1,2.1,2.3
		C27.5,109.9,26.5,110.9,25.3,110.9z"/>
	<path class="st0" d="M120.4,79c0-0.5,0-1.1,0-1.6c0-2.4,0.3-2.7,2.7-3.2c1.5-0.3,2.4-1.5,2.3-3c-0.1-1.4-1.1-2.5-2.5-2.7
		c-1.4-0.2-2.7,0.7-3.1,2c-0.1,0.3-0.1,0.7-0.2,1c-0.2,1.3-1.2,2.2-2.3,2c-1.2-0.1-2-1.2-2-2.6c0.2-4.8,5.1-8.1,9.7-6.4
		c2.8,1,4.5,3.1,4.8,6.1c0.3,3.1-1,5.6-3.8,7.1c-1.1,0.6-1.3,1.2-1.2,2.2c0.1,0.7,0.1,1.4,0,2c-0.1,1.2-1.1,2.1-2.2,2
		c-1.1,0-2-0.9-2.1-2.2c0-0.1,0-0.2,0-0.3C120.4,80.6,120.4,79.8,120.4,79z"/>
	<path class="st0" d="M62.5,27.2c0,2.4,0,4.8,0,7.2c0,1.7-0.9,2.7-2.2,2.6c-1.3,0-2.1-1-2.1-2.6c0-4.9,0-9.8,0-14.8
		c0-1.7,0.9-2.7,2.2-2.6c1.3,0,2.1,1,2.1,2.6C62.6,22.2,62.5,24.7,62.5,27.2z"/>
	<path class="st0" d="M126.1,26c-1.2,0-2.2-1-2.2-2.2c0-1.1,1-2.1,2.2-2.1c1.2,0,2.2,1,2.2,2.2C128.2,25.1,127.3,26,126.1,26z"/>
	<path class="st0" d="M117.5,26c-1.2,0-2.2-1-2.2-2.2c0-1.1,1-2.1,2.1-2.1c1.1,0,2.1,0.9,2.2,2C119.7,25,118.7,26,117.5,26z"/>
	<path class="st0" d="M137,23.8c0,1.2-1,2.2-2.2,2.2c-1.1,0-2.1-1-2.1-2.1c0-1.2,1-2.2,2.2-2.2C136,21.7,136.9,22.7,137,23.8z"/>
</g>
</svg>
