<?xml version="1.0" encoding="utf-8"?>
<!-- Generator: Adobe Illustrator 24.3.0, SVG Export Plug-In . SVG Version: 6.00 Build 0)  -->
<svg version="1.1" id="Layer_1" xmlns="http://www.w3.org/2000/svg" xmlns:xlink="http://www.w3.org/1999/xlink" x="0px" y="0px"
	 viewBox="0 0 150 150" style="enable-background:new 0 0 150 150;" xml:space="preserve">
<style type="text/css">
	.st0{fill:#005BAB;}
</style>
<g>
	<path class="st0" d="M51.9,93.7c-3.8-5.2-5.8-10.9-6.1-17.1c-0.8-15.4,9.9-29.4,25.3-31.8c14.4-2.2,28.9,8,32.3,22.7
		c2.1,9.2,0.5,17.7-4.8,25.4c-0.1,0.2-0.3,0.4-0.5,0.7c3.1,3.8,6.2,7.5,9.2,11.3c4.6,5.6,9.1,11.1,13.7,16.7c0.5,0.7,1,1.7,0.9,2.5
		c-0.1,0.7-1,1.6-1.7,1.7c-0.7,0.1-1.9-0.3-2.4-0.9c-2.3-2.5-4.4-5.2-6.6-7.9c-7.5-9.2-15-18.4-22.5-27.5c-2.4-2.9-6.3-3.2-9-0.6
		c-2.2,2.2-3.7,4.8-3.6,8c0,1,0.4,2.1,1,2.8c12,14.8,24.1,29.6,36.2,44.4c0.4,0.5,1.3,0.9,1.9,0.9c4.3,0.1,8.7,0.1,13,0
		c2.1,0,2.8-0.7,2.8-2.8c0-10.4,0.1-20.8,0-31.2c-0.2-13.5-9.1-24.8-22.2-28.3c-0.2-0.1-0.5-0.2-0.8-0.3c0.2-1.5,0.4-2.9,0.7-4.5
		c0.6,0.1,1.1,0.2,1.7,0.3c14.3,4.3,22.5,14,24.9,28.7c0.3,1.6,0.3,3.2,0.3,4.8c0,10.1,0,20.2,0,30.3c0,0.9-0.1,1.8-0.1,3
		c2.4,0,4.9,0,7.4,0c1.5,0,3,0,4.5,0c1.4,0.1,2.3,1,2.3,2.2c0.1,1.3-0.8,2.3-2.3,2.5c-0.5,0.1-0.9,0-1.4,0c-47.3,0-94.6,0-142,0
		c-0.6,0-1.1,0-1.7,0c-1.5-0.1-2.4-1.1-2.3-2.4c0-1.3,1-2.3,2.4-2.3c3.2,0,6.4,0,9.6,0c0.7,0,1.4,0,2,0c0-1.6,0-2.9,0-4.3
		c0-10.5-0.4-20.9,0.1-31.4C15,94.7,25.1,82,40,78.3c0.3-0.1,0.7-0.1,1.1-0.1c0.2,1.5,0.5,2.9,0.7,4.4c-1.5,0.5-2.9,0.9-4.3,1.4
		c-10.7,4.1-18.4,14.7-18.6,26.2c-0.2,10.8-0.1,21.5-0.1,32.3c0,1.9,0.8,2.7,2.6,2.7c4.5,0,8.9,0.1,13.4,0c0.6,0,1.4-0.5,1.9-1
		c10.4-12.6,20.7-25.3,31-38c1.2-1.5,2.5-2.9,3.6-4.5c0.3-0.4,0.5-1.1,0.3-1.6c-0.6-2.4-0.6-4.7,0.2-7c0.4-1.1,0.2-1.9-0.5-2.8
		c-3.2-4-7.5-3.9-10.7,0.1c-8.5,10.5-17.2,21-25.8,31.5c-0.9,1-1.7,2.1-2.6,3.1c-1.1,1.3-2.4,1.5-3.5,0.7c-1.2-0.9-1.2-2.3-0.1-3.7
		c5.6-6.9,11.2-13.7,16.8-20.5C47.7,98.8,49.8,96.3,51.9,93.7z M94.8,89.7c6.5-8.4,6.9-23.8-3.2-33.7C82.1,46.8,67.4,47,58,56.4
		c-9.9,9.9-9.1,25.4-2.8,33.4c2.3-3.3,4.8-6.5,9.2-7.1c4.4-0.7,7.9,1,10.7,4.6c0.2-0.4,0.3-0.6,0.4-0.7c5.3-5.7,12.8-5.3,17.5,1
		C93.6,88.2,94.2,89,94.8,89.7z M107.8,145c-0.2-0.4-0.3-0.5-0.4-0.7c-10.4-12.7-20.7-25.4-31.1-38.1c-1.1-1.3-1.5-1.2-2.8,0.3
		c-8.1,9.9-16.2,19.9-24.3,29.8c-2.3,2.8-4.6,5.7-7.1,8.7C64.1,145,85.8,145,107.8,145z"/>
	<path class="st0" d="M15.2,40.6c-4.3-2.3-8.3-4.5-12.3-6.7c-0.4-0.2-0.8-0.5-1.2-0.7c-1-0.5-1.6-1.3-1.5-2.5c0.1-1.2,0.9-1.8,2-2.1
		c3-0.8,6-1.6,9-2.4c0.5-0.1,1-0.3,1.7-0.5c-1.5-1.9-3-3.7-4.4-5.5c-0.8-1-1.6-2-2.5-3c-0.7-0.9-1.1-2-0.3-2.8
		c0.6-0.6,1.8-1.2,2.6-1.1c3.4,0.2,6.8,0.7,10.3,1.1c0-2.9,0-5.8,0-8.7c0-0.8,0-1.6,0-2.3c-0.1-1.1,0.3-2,1.3-2.4
		c1.1-0.5,2-0.2,2.8,0.6c2.6,2.3,5.2,4.6,7.8,6.9c0.4,0.3,0.8,0.6,1.3,1.1c0.7-2.5,1.4-4.9,2-7.3c0.3-1.2,0.9-2.1,2.2-2.2
		c1.4-0.1,2.1,0.7,2.6,1.8c1.2,2.6,2.5,5.2,3.8,8.1c0.8-0.5,1.5-1,2.2-1.4c1.9-1.2,3.7-2.5,5.6-3.6C52,3.9,54,5,53.9,7
		c-0.1,3.2-0.4,6.3-0.6,9.4C53.2,18,52,19,50.7,18.8c-1.3-0.2-2.1-1.2-2.1-2.8c0-1.4,0-2.9,0-4.4c-1.8,1.2-3.5,2.3-5.3,3.4
		c-2,1.3-3.3,1-4.3-1.2c-0.7-1.3-1.3-2.7-2-4c0-0.1-0.2-0.1-0.4-0.2c-0.4,1.5-0.9,3.1-1.3,4.6c-0.7,2.4-2.4,2.9-4.3,1.2
		c-2-1.7-3.9-3.5-5.9-5.3c-0.5-0.5-1.1-0.9-1.8-1.5c0,2.7,0,5.2,0,7.7c0,2.5-0.9,3.4-3.4,3.1c-2.2-0.3-4.4-0.5-6.9-0.7
		c1.8,2.3,3.5,4.3,5.2,6.3c2,2.4,1.5,4-1.5,4.8c-2.5,0.6-5,1.3-7.8,2c0.7,0.4,1.2,0.7,1.6,1c3.4,1.8,6.7,3.6,10.1,5.5
		c2.2,1.2,2.3,3.2,0.1,4.6c-1.9,1.2-3.8,2.3-5.9,3.7c0.9,0.2,1.4,0.3,2,0.5c1.5,0.4,2.3,1.4,2.1,2.8c-0.2,1.4-1.3,2.1-2.9,1.8
		c-2.6-0.5-5.3-0.9-7.9-1.6c-0.8-0.2-1.8-1.1-1.9-1.9c-0.1-0.7,0.5-1.9,1.1-2.4c2.2-1.6,4.6-2.9,6.9-4.4
		C14.6,41.1,14.8,40.9,15.2,40.6z"/>
	<path class="st0" d="M131.4,14.5c3.5-0.4,6.8-0.7,10.1-1.1c1.2-0.1,2.3,0,2.9,1.2c0.6,1.1,0.2,2.1-0.6,3c-1.8,2.2-3.6,4.4-5.4,6.6
		c-0.4,0.5-0.8,1-1.4,1.7c3.6,0.9,6.9,1.8,10.2,2.7c0.7,0.2,1.5,0.5,2,1c1.1,1.1,0.6,2.8-1.1,3.7c-4,2.2-8,4.3-12,6.5
		c-0.4,0.2-0.9,0.5-1.5,0.9c2.5,1.6,4.9,3.1,7.2,4.5c1.1,0.7,2,1.4,1.8,2.8c-0.2,1.4-1.3,1.9-2.5,2.1c-2.4,0.4-4.8,1-7.1,1.4
		c-1.7,0.3-2.9-0.4-3.1-1.8c-0.3-1.5,0.5-2.5,2.2-2.8c0.6-0.1,1.1-0.3,1.9-0.4c-2.1-1.3-4-2.4-5.8-3.6c-2.2-1.4-2.2-3.4,0.1-4.6
		c3.1-1.7,6.3-3.4,9.4-5.1c0.7-0.4,1.3-0.8,2.3-1.3c-2.8-0.7-5.3-1.4-7.7-2c-3-0.8-3.6-2.4-1.6-4.8c1.7-2,3.3-4.1,5.2-6.4
		c-2.6,0.3-4.9,0.5-7.2,0.8c-2.1,0.2-3.1-0.6-3.1-2.8c0-2.6,0-5.1,0-8c-2.1,1.9-4,3.6-5.9,5.3c-0.7,0.6-1.4,1.3-2.1,1.9
		c-1.6,1.2-3.3,0.7-3.9-1.2c-0.5-1.6-0.9-3.3-1.5-5.3c-0.9,1.7-1.6,3.2-2.3,4.6c-1.1,2.2-2.3,2.5-4.3,1.2c-1.7-1.1-3.4-2.2-5.3-3.4
		c0,1.6,0,2.9,0,4.3c0.1,1.7-0.7,2.8-2.1,2.9c-1.3,0.1-2.4-0.9-2.6-2.5c-0.3-3-0.5-6.1-0.6-9.1c0-0.8,0.6-1.9,1.2-2.2
		c0.6-0.4,1.9-0.2,2.6,0.2c2.6,1.5,5,3.2,7.7,4.9c1.3-2.7,2.5-5.2,3.7-7.8c0.6-1.2,1.2-2.2,2.7-2c1.4,0.2,1.9,1.2,2.2,2.4
		c0.6,2.3,1.3,4.6,2,7c0.5-0.3,0.8-0.6,1.1-0.9c2.5-2.2,5-4.5,7.5-6.7c0.9-0.8,1.9-1.5,3.2-1c1.4,0.6,1.4,1.9,1.4,3.1
		C131.4,7.6,131.4,11,131.4,14.5z"/>
	<path class="st0" d="M112.1,35.4c1.4-1.3,2.8-2.6,4.2-3.9c1.2-1.1,2.6-1.3,3.6-0.3c1,0.9,0.9,2.4-0.2,3.6c-2,2.1-4,4.2-6,6.3
		c-1.8,1.9-3.4,1.6-4.6-0.8c-0.2-0.4-0.4-0.8-0.6-1.2c-1.5,1.5-3,2.9-4.5,4.3c-1.4,1.3-2.6,1.5-3.7,0.5c-1.1-1-1-2.5,0.3-3.8
		c2.1-2.2,4.2-4.3,6.3-6.5c2-2,3.5-1.7,4.8,0.8C111.8,34.9,112,35.2,112.1,35.4z"/>
	<path class="st0" d="M37.9,35.4c0.2-0.5,0.5-1.1,0.8-1.7c0.8-1.5,2.5-1.9,3.8-0.7c2.5,2.5,4.9,5,7.3,7.6c0.9,1,0.8,2.4-0.1,3.2
		c-0.9,0.9-2.3,0.9-3.3-0.1c-1.6-1.5-3.2-3-5-4.7c-0.2,0.5-0.5,1.1-0.9,1.7c-0.9,1.5-2.5,1.9-3.8,0.6c-2.3-2.3-4.6-4.7-6.8-7.1
		c-0.9-1-0.8-2.5,0.1-3.3c0.9-0.8,2.2-0.8,3.2,0.1C34.8,32.6,36.3,34,37.9,35.4z"/>
	<path class="st0" d="M35.9,56.2c0.2,0.6,0.3,0.9,0.4,1.2c0.6,1.8-0.3,3.3-2.2,3.3c-2.7,0.1-5.5,0.1-8.2,0.1c-1.4,0-2.3-0.8-2.4-2.1
		c-0.1-1.3,0.7-2.3,2.1-2.4c1.5-0.1,3,0,4.7,0c-0.2-0.6-0.3-0.9-0.4-1.3c-0.4-1.6,0.5-3,2.1-3.1c3.4-0.2,6.8-0.2,10.2-0.3
		c1.4,0,2.4,1.1,2.4,2.4c0,1.2-0.9,2.2-2.3,2.3C40.2,56.3,38.2,56.2,35.9,56.2z"/>
	<path class="st0" d="M119.7,56.2c1.4,0,2.7,0,4,0c1.7,0.1,2.6,1,2.6,2.4c0,1.5-1,2.2-2.7,2.2c-2.2,0-4.4-0.1-6.7-0.1
		c-3.3,0-4.1-1.1-3.1-4.5c-1.9,0-3.7,0-5.4,0c-2.1-0.1-3.2-0.9-3.1-2.4c0-1.6,1.2-2.3,3.4-2.3c2.8,0.1,5.7,0.2,8.5,0.2
		c2.5,0.1,3.4,1.3,2.5,3.8C119.8,55.7,119.8,55.9,119.7,56.2z"/>
</g>
</svg>
