<?xml version="1.0" encoding="utf-8"?>
<!-- Generator: Adobe Illustrator 24.3.0, SVG Export Plug-In . SVG Version: 6.00 Build 0)  -->
<svg version="1.1" id="Layer_1" xmlns="http://www.w3.org/2000/svg" xmlns:xlink="http://www.w3.org/1999/xlink" x="0px" y="0px"
	 viewBox="0 0 150 150" style="enable-background:new 0 0 150 150;" xml:space="preserve">
<style type="text/css">
	.st0{fill:#005BAB;}
</style>
<g>
	<path class="st0" d="M31.4,100.9c3.1-3.2,6.3-6.3,9.4-9.5c0.4-0.4,0.7-0.9,1.2-1.1c0.8-0.3,1.8-0.7,2.6-0.6
		c1.1,0.2,1.5,1.2,1.5,2.3c0,1.8,0,3.7,0,5.5c0,5.8,0,11.7,0,17.5c0,0.8-0.3,1.9-0.9,2.4c-0.5,0.4-1.6,0.5-2.3,0.4
		c-1.1-0.3-1.5-1.3-1.5-2.3c0-2.9,0-5.8,0-8.7c0-2.9,0-5.9,0-9.2c-0.5,0.4-0.8,0.6-1.1,0.9c-2,2-4,3.9-5.9,5.9
		c-1.2,1.2-2.4,2.3-4.1,1.2c-0.9,1-0.2,1.4,0.3,1.9c4,4.5,8.1,9,12,13.6c1.8,2.1,3.2,4.5,4.5,6.9c2.1,3.7,1.8,7.3-0.6,10.9
		c-0.3,0.4-0.4,1-0.4,1.5c0,2,0,4.1,0,6.1c0,1.7-1,2.7-2.4,2.7c-1.4,0-2.3-1.1-2.3-2.8c0-1.4,0-2.8,0-4.2c0-0.1-0.1-0.2-0.2-0.4
		c-4.8,1.1-8.2-1.7-11.4-4.5c-9.5-8.1-17.8-17.3-23.6-28.4c-1.4-2.6-2.2-5.4-2.9-8.3c-0.9-3.9,1.7-9,5.1-10.9c1.1-0.6,2.1-0.5,3,0.5
		c0.9,1,0.8,2.1-0.1,3.1c-0.8,0.9-1.6,1.7-2.3,2.5c-1.1,1.4-1.6,3.1-0.9,4.8c1.2,3.1,2.3,6.2,3.9,9c5.4,9.1,12.5,16.9,20.6,23.8
		c1.3,1.1,2.8,2.1,4.3,3c1.9,1.2,4.3,1,5.8-0.4c1.3-1.2,1.7-3.5,0.7-5.5c-2.2-4.6-5.5-8.4-8.8-12.1c-2.8-3.1-5.7-6.2-8.6-9.2
		c-1.1-1.1-1.6-2.3-0.8-3.7c0-0.1,0.1-0.2,0.1-0.3c0.8-2.2,0.8-2.2-1-3.7c-6-5-10.4-11.1-13.6-18.2c-0.5-1.1-0.4-2,0.3-2.9
		c8.6-11.7,18.4-22.1,30.6-30.2c3.8-2.5,8.1-3.4,12.5-3.8c2-0.2,4.1-0.3,6.1-0.3c1.7,0,2.8,0.9,2.8,2.2c0.1,1.4-1.1,2.3-2.8,2.4
		c-3.6,0.3-7.2,0.5-10.7,1.1c-4.7,0.8-8.2,4-11.8,6.9C29.5,65.4,22.5,73,16.1,81.2c-0.7,1-0.7,1.7-0.2,2.7c3.6,6.7,8,12.5,14.6,16.5
		C30.8,100.6,31.1,100.7,31.4,100.9z"/>
	<path class="st0" d="M132,123c3.1,0,5.3-0.7,7.2-2.2c2.3-1.8,3.5-4.2,2.8-7.2c-0.4-1.7-0.8-3.4-1.2-5.1c-0.3-1.3,0.3-2.3,1.5-2.7
		c1.2-0.5,2.3,0,2.7,1.1c1.2,3.2,2.2,6.6,1.7,10.1c-0.9,5.3-5.7,9.5-11.4,10.4c-5.5,0.9-10.5-1-15.2-3.3
		c-10.5-5.1-19.6-12.1-28-20.1c-4.2-4-8-8.5-11.8-12.9c-3.1-3.6-3.5-7.8-2-12.3c1.2-3.4,3.4-5.6,7.1-6.1c5.9-0.7,9.8,1.2,11.9,5.5
		c2.2,4.4,5.6,7.4,9.8,9.7c8.3,4.6,16.6,9.1,25.4,12.7c2.3,0.9,4.1,0.7,5.9-0.9c0.8-0.7,1-1.3,0.5-2.3c-2-3.8-3.8-7.6-5.7-11.4
		c-0.8-1.6-0.5-2.9,0.8-3.6c1.3-0.7,2.5-0.2,3.4,1.5c2.3,4.5,4.6,9,6.7,13.5c0.3,0.7,0.4,2,0,2.6c-1.8,2.9-4.3,5.2-7.9,5.7
		c-1.5,0.2-3.2,0-4.5-0.6c-7.1-3.2-14.2-6.6-21.2-10.1c-2.7-1.3-5.2-3-7.8-4.4c-4-2.2-7-5.3-8.9-9.4c-1.5-3.2-3.9-4.3-7.3-4
		c-1.8,0.1-3.1,1-3.6,2.6c-0.9,2.6-1.1,5.2,0.7,7.7c3.2,4.7,7.1,8.8,11.3,12.6c8.3,7.7,17.1,14.6,27.2,19.6
		C125.3,121.6,128.8,123,132,123z"/>
	<path class="st0" d="M64,30.8c-0.5-0.9-1-1.8-1.5-2.7c-3.3-6.8-1.9-13.4,4-18.1c2.3-1.8,4.7-3.7,7.4-5c3.3-1.7,7-1.7,10.7-1.9
		c3.5-0.1,7-0.3,10.4-0.6c0.8-0.1,1.6-0.6,2.4-1.1c1.3-1,2.7-0.8,3.6,0.6c4.3,6.9,6.4,14.3,3.8,22.4c-0.2,0.8-0.1,1.2,0.6,1.6
		c2.1,1.3,3,3.3,3.1,5.6c0.1,2.7-0.5,5.3-1.9,7.7c-0.4,0.6-0.5,1.4-0.7,2.1c-0.3,1.3-1.3,2-2.5,1.8c-1.3-0.2-2-0.9-2-2.2
		c0-1.5,0.1-2.9,1.2-4.2c1.3-1.6,1.4-3.6,1.2-5.6c-0.1-1.2-1.1-1.7-2.2-1.8c-1.9-0.3-2.4-0.9-2.5-2.8c-0.2-4.8-2.9-8-6.6-10.7
		c-0.2-0.2-0.8-0.1-1,0c-5.5,3-11.3,4.5-17.5,4.3c-0.4,0-1,0.4-1.3,0.7c-2,3.1-3.4,6.4-2.5,10.3c0.3,1.4-0.4,2.5-1.7,2.9
		c-2.4,0.8-3.2,2.7-1.9,4.9c0.4,0.7,1.1,1.5,1.8,1.8c1.8,0.7,2.5,2.1,3.2,3.7c2.2,5.2,5.7,9.3,11.4,10.9c2.9,0.8,5.8,0.7,8.7-0.1
		c0.7-0.2,1.7-0.4,2.3,0c0.6,0.4,1.1,1.3,1.3,2.1c0.2,1.1-0.7,1.8-1.7,2.1c-5.5,1.8-10.8,1.4-15.9-1.3c-4.8-2.6-8-6.7-10.2-11.6
		c-0.3-0.6-0.6-1.2-1.1-1.6C60.4,40.8,59.7,36.2,64,30.8z M101.2,17.5c-0.1,0.1,0,0,0-0.1c0.1-3.7-1-7.1-2.8-10.3
		c-0.1-0.3-0.7-0.4-1.1-0.4C93.6,7,89.9,7.4,86.1,7.8c-2.6,0.2-5.2,0.2-7.7,0.6c-5.1,0.9-8.6,4.4-11.7,8.3c-1.5,1.9-1.7,4.4-0.8,7.1
		c0.3-0.7,0.5-1.2,0.7-1.6c1.3-2,2.6-4.1,4-6.1c0.4-0.6,1.6-1.1,2.2-0.9c2.5,0.9,5,0.3,7.4-0.2c3.3-0.7,6.6-1.5,9.4-3.6
		c1.8-1.4,2.4-1.6,4.2-0.2C96.4,13.2,98.8,15.4,101.2,17.5z"/>
	<path class="st0" d="M116.9,75.2c2.7,2.6,5.8,3.5,9.3,2.6c3.8-1,6.1-3.5,7-7.3c0.7-3-0.1-5.7-2-8.1c-0.8-1-1.1-1.9-0.5-3
		c0.7-1.3,2.3-1.5,3.5-0.5c0.4,0.4,0.8,0.9,1.2,1.3c2.1-1.4,3.1-5.1,2.1-8.1c-1.7-5.3-7.8-7.4-12.4-4.4c-0.5,0.3-1,0.7-1.6,0.8
		c-1.1,0.3-2.1-0.1-2.6-1.2c-0.6-1.2-0.2-2.2,0.8-2.9c3.8-2.9,8.1-3.6,12.6-1.9c8.8,3.3,11.1,14.6,4.4,21.2
		c-0.7,0.7-1.1,1.3-0.9,2.4c1,6-1.9,12-7.1,14.8c-5.4,3-12,2.2-16.6-1.9c-0.8-0.7-1.3-0.8-2.4-0.5c-4.1,1.3-7.7,0.3-10.7-2.8
		c-2.8-3-3.5-6.6-2.1-10.6c0.4-1.1,1.1-1.9,2.4-1.8c1.2,0,1.9,0.7,2.1,1.8c0.1,0.6-0.1,1.3-0.2,1.9c-0.8,2.8,0.3,5.6,2.8,6.9
		c2.5,1.3,5.5,0.5,7.2-1.8c1.3-1.8,2.4-2.2,3.7-1.3c1.2,0.8,1.3,2.1,0.2,3.9C117.1,74.8,117,75,116.9,75.2z"/>
	<path class="st0" d="M118.1,138.6c0,2.6,0,5.2,0,7.8c0,1.8-0.9,2.9-2.3,2.9c-1.5,0-2.4-1.1-2.4-3c0-5.1,0-10.3,0-15.4
		c0-1.9,0.9-3,2.4-3c1.4,0,2.3,1.2,2.3,3.1C118.1,133.5,118.1,136,118.1,138.6z"/>
	<path class="st0" d="M105.3,55.6c0,2.4-1.9,3.5-3.6,2.4c-2.1-1.3-4.1-2.7-6.1-4c-1.6-1.1-3.2-2.1-4.8-3.2c-1.3-0.9-1.6-2.2-0.9-3.3
		c0.7-1.1,2.1-1.4,3.4-0.5c3.7,2.4,7.3,4.8,10.9,7.3C104.7,54.5,105.1,55.3,105.3,55.6z"/>
	<path class="st0" d="M110.5,48.4c0.9,0.3,1.4,0.5,1.9,0.7c2.9,1.4,5.8,2.9,8.7,4.3c1.6,0.8,2.2,2,1.5,3.3c-0.7,1.3-2,1.6-3.6,0.8
		c-3-1.5-6-3-9.1-4.5c-1.1-0.6-1.7-1.6-1.3-2.7C109,49.6,109.9,49,110.5,48.4z"/>
	<path class="st0" d="M96.6,41.4c0.3,0.1,0.7,0.2,1,0.3c1.7,0.8,3.3,1.6,4.9,2.5c1.3,0.7,1.8,1.9,1.2,3.1c-0.6,1.2-1.9,1.7-3.3,1
		c-1.7-0.8-3.3-1.6-4.9-2.5c-1-0.5-1.7-1.5-1.2-2.6c0.4-0.8,1.3-1.4,1.9-2.1C96.4,41.3,96.5,41.4,96.6,41.4z"/>
	<path class="st0" d="M109.3,58c0.8,0.3,1.2,0.3,1.6,0.6c1.3,0.8,2.5,1.6,3.7,2.5c1.1,0.8,1.3,2.1,0.6,3.2c-0.7,1.1-2,1.4-3.1,0.7
		c-1.3-0.8-2.7-1.6-3.8-2.6c-0.6-0.5-0.9-1.7-0.7-2.5C107.8,59.1,108.8,58.6,109.3,58z"/>
</g>
</svg>
