<?xml version="1.0" encoding="utf-8"?>
<!-- Generator: Adobe Illustrator 24.3.0, SVG Export Plug-In . SVG Version: 6.00 Build 0)  -->
<svg version="1.1" id="Layer_1" xmlns="http://www.w3.org/2000/svg" xmlns:xlink="http://www.w3.org/1999/xlink" x="0px" y="0px"
	 viewBox="0 0 150 150" style="enable-background:new 0 0 150 150;" xml:space="preserve">
<style type="text/css">
	.st0{fill:#005BAB;}
</style>
<g>
	<path class="st0" d="M49.5,79.5c0.7,0.2,1.5,0.4,2.2,0.6c7.7,2.2,15.1,5.1,22.2,8.7c5.3,2.6,10.8,4,16.7,4c9.3,0,18.5,0.1,27.8,0.3
		c6.2,0.2,12.1-0.8,17.8-3.1c1.7-0.7,3.4-1.3,5.2-1.9c2.4-0.8,5,0,6.6,1.9c1.6,1.9,1.9,4.7,0.6,6.8c-0.6,1-1.6,1.8-2.4,2.7
		c0.1,0.1,0.3,0.3,0.5,0.5c2.3,2,3.2,5.1,2.3,8c-0.9,2.8-3.5,4.8-6.5,5.1c-0.4,0-0.9,0-1.3,0c-8.7,0-17.3,0-26,0
		c-0.5,0-1.2,0.2-1.6,0.5c-2.2,1.5-4.3,3.2-5.6,5.5c-0.4,0.7-0.7,1.6-1,2.4c-0.6,1.9-0.2,3.6,1.1,5c1.1,1.1,2.3,2,3.5,2.9
		c1.1,0.8,2.4,1.6,3.6,2.3c4.9,3.2,5.9,9.9,2.2,14.4c-0.5,0.6-0.9,1.1-1.4,1.7c-0.8,0.9-1.3,0.9-2.2,0.3c-3.3-2.2-6.7-4.4-10-6.8
		c-4.8-3.4-10.1-5.5-16.1-6.1c-3.9-0.4-7.2-2.2-9.8-5.2c-1.9-2.2-3.8-4.4-5.7-6.6c-1.7-2-3.9-2.9-6.5-3c-8.1-0.1-16.3-0.2-24.4-0.6
		c-11-0.5-22-1.5-32.8-3.8c-2.1-0.4-4.2-1-6.2-1.5c-1-0.3-1.4-0.9-1.2-1.7c0.2-0.8,0.9-1,1.9-0.8c7.5,2.1,15.1,3.2,22.8,4
		c13.3,1.4,26.7,1.8,40.1,1.8c3.3,0,6,1.3,8.2,3.7c1.7,1.9,3.4,3.9,5.1,5.9c2.6,3.1,5.8,4.9,9.8,5.3c5.8,0.6,11,2.7,15.7,6
		c3,2.1,6.1,4.2,9.2,6.2c0.2,0.1,0.4,0.3,0.6,0.4c3.6-3,3.4-8.7-0.4-11.4c-1.7-1.2-3.5-2.3-5.2-3.5c-0.5-0.3-0.9-0.7-1.3-1
		c-3.6-3.2-4.3-6.7-2.2-11c1.1-2.3,2.9-4.2,4.9-5.8c3.6-2.8,7.7-4.8,11.9-6.5c5.2-2,10.5-3.9,15.7-6c2.5-1,4.9-2.2,7.2-3.5
		c1.8-1,2.3-2.9,1.5-4.6c-0.8-1.7-2.7-2.4-4.7-1.7c-3.3,1.2-6.6,2.4-9.9,3.5c-4.8,1.5-9.7,1.6-14.6,1.5c-8.9-0.2-17.7-0.2-26.6-0.3
		c-6.3,0-12.2-1.4-17.9-4.3C60.7,85,48,81,34.6,79c-8.9-1.3-17.9-1.7-26.9-0.8c-1.8,0.2-3.6,0.5-5.4,0.7c-0.9,0.1-1.6-0.2-1.8-1
		c-0.1-0.8,0.3-1.4,1.3-1.5c1.8-0.3,3.7-0.5,5.5-0.7c0.4,0,0.7-0.1,1.2-0.1c-1.3-2.2-0.3-4.4,0.1-6.5c0.9-5.4,2-10.8,3-16.3
		c0.4-2.3,1.6-4,3.6-5.2c5.9-3.6,11.7-7.2,17.6-10.8c3.2-1.9,6.7-2.9,10.4-3.4c8.7-1.2,17.4-2.4,26.2-3.6c2.9-0.4,5.8-0.8,8.7-1.2
		c0.4-0.1,0.8-0.2,1.1-0.3c22.7-8.9,45.4-17.8,68-26.6c0.1-0.1,0.3-0.1,0.4-0.2c0.8-0.3,1.5,0,1.7,0.7c0.3,0.7-0.1,1.4-0.8,1.7
		c-0.9,0.4-1.8,0.7-2.6,1c-22,8.6-43.9,17.2-65.9,25.7c-1.8,0.7-3.7,0.8-5.6,1c-7.4,1-14.9,2.1-22.3,3.1c-3.7,0.5-7.4,1-11.1,1.6
		c-2.5,0.4-4.8,1.4-7,2.7c-5.6,3.4-11.2,6.9-16.9,10.3c-1.7,1.1-2.7,2.5-3.1,4.5c-1.1,6.3-2.3,12.6-3.4,18.9c-0.2,1,0.2,1.6,1.1,2
		c2.7,1.1,5.7-0.4,6.5-3.3c1.2-4.5,2.4-8.9,3.6-13.4c0.2-0.7,0.5-1.1,1.1-1.5c2.4-1.4,4.8-2.9,7.2-4.3c3.1-1.8,6.4-2.2,10-1.3
		c5.4,1.4,10.9,2.7,16.4,4c0.3,0.1,0.8,0,1.1-0.1c4.4-1.5,8.8-2.9,13.2-4.4c0.2-0.1,0.3-0.1,0.5-0.2c0.8-0.2,1.5,0.1,1.7,0.8
		c0.2,0.7-0.2,1.4-0.9,1.6c-2.3,0.8-4.5,1.5-6.8,2.3c-3.4,1.1-6.9,2.3-10.3,3.4c-0.4,0.1-0.7,0.3-1,0.6c-4.6,4-9.2,8-13.8,12
		c-1.8,1.6-1.7,3.3,0.3,4.7c3.5,2.4,8,2.1,11.4-0.6c2.8-2.3,5.5-4.6,8.3-6.9c0.6-0.5,1.2-0.8,2-0.7c2.2,0.2,4.4,0.4,6.6,0.6
		c10.8,0.9,19.3-3,25.7-11.7c1.5-2.1,3.5-3.6,6-4.2c15.6-3.9,31.3-7.7,46.9-11.6c1.2-0.3,2.1,0.4,2,1.3c-0.1,0.8-0.7,1-1.3,1.2
		c-3,0.7-6,1.5-9,2.2c-12.6,3.1-25.3,6.2-37.9,9.4c-1.9,0.5-3.3,1.5-4.4,3.1c-5.1,7.4-12.1,11.6-21,12.9c-3.2,0.5-6.3,0.1-9.4-0.1
		c-1.2-0.1-2.5-0.2-3.7-0.3c-0.3,0-0.8,0.1-1,0.3c-2.3,1.8-4.5,3.7-6.8,5.6C53.2,77.5,51.5,78.7,49.5,79.5z M37.7,76.7
		c0,0,0-0.1-0.1-0.1c-1.9-2.6-1.6-5.3,0.9-7.4c4.5-3.9,9-7.9,13.5-11.8c0.2-0.2,0.5-0.2,0.7-0.4c-0.1-0.1-0.2-0.2-0.3-0.3
		c-0.2-0.1-0.4-0.1-0.6-0.2c-4.4-1.1-8.8-2.2-13.3-3.3c-1-0.2-2.2-0.1-3.2-0.2c-0.8,0-1,0.4-1.2,1.1c-1.2,4.4-2.5,8.9-3.8,13.3
		c-0.8,2.9-2.8,4.8-5.7,5.3c-1.2,0.2-2.4-0.1-3.6-0.1c-0.2,0-0.6,0-0.7,0.2c-0.4,0.7-0.8,1.5-1.1,2.1C25.4,75.6,31.6,76.1,37.7,76.7
		z M119.4,110.4c0,0.1,0,0.1,0.1,0.2c0.1,0,0.2,0,0.2,0c7.5,0,14.9,0,22.4,0c2.2,0,4.1-1.6,4.6-3.7c0.5-2.1-0.5-4.4-2.4-5.5
		c-0.6-0.4-1.3-0.5-1.9-0.1c-0.5,0.3-1,0.5-1.5,0.7c-5.3,2-10.6,4-15.8,6C123.2,108.8,121.3,109.6,119.4,110.4z M31.5,54.7
		c0,0-0.1-0.1-0.1-0.1c-2.2,1.3-4.3,2.6-6.5,3.9c-0.4,0.2-0.7,0.7-0.8,1.1c-0.9,3.2-1.8,6.4-2.6,9.7c-0.1,0.3-0.1,0.6-0.2,0.9
		c3.1,1.1,5.9-0.3,6.8-3.4c0.4-1.4,0.8-2.9,1.2-4.3C30,59.8,30.8,57.3,31.5,54.7z"/>
	<path class="st0" d="M24.9,135.4c0-2.3,0-4.6,0-6.9c0-1,0.5-1.6,1.3-1.6c0.8,0,1.2,0.6,1.2,1.6c0,4.6,0,9.2,0,13.9
		c0,1.2-0.8,1.8-1.7,1.4c-0.6-0.3-0.8-0.8-0.8-1.4C25,140,24.9,137.7,24.9,135.4z"/>
	<path class="st0" d="M18.9,128.5c-0.1,0.2-0.1,0.4-0.2,0.7c-0.9,2.7-1.7,5.3-2.6,8c-0.1,0.4-0.4,0.9-0.7,1
		c-0.4,0.2-0.9,0.1-1.3-0.1c-0.6-0.3-0.6-1-0.4-1.6c0.6-1.9,1.2-3.8,1.9-5.7c0.3-1,0.6-1.9,1-2.8c0.3-0.7,0.8-0.9,1.5-0.7
		C18.6,127.3,18.9,127.8,18.9,128.5z"/>
	<path class="st0" d="M35.1,127.1c0.5,0,1,0.3,1.1,0.9c0.8,2.7,1.5,5.4,2.2,8c0.2,0.8-0.2,1.4-0.9,1.6c-0.7,0.2-1.3-0.1-1.6-0.9
		c-0.8-2.7-1.5-5.4-2.2-8.1C33.6,127.8,34.2,127.1,35.1,127.1z"/>
	<path class="st0" d="M19.1,85c0.5,0.3,0.9,0.4,1.1,0.7c1.3,1.5,2.5,3.1,3.8,4.7c0.5,0.7,0.4,1.4-0.1,1.9c-0.6,0.5-1.3,0.4-1.8-0.2
		c-1.3-1.6-2.6-3.1-3.8-4.8c-0.2-0.3-0.3-1-0.1-1.4C18.2,85.5,18.7,85.3,19.1,85z"/>
	<path class="st0" d="M23.5,98.9c0.4,0.3,0.9,0.5,1.1,0.8c1.3,1.5,2.5,3,3.7,4.5c0.5,0.7,0.5,1.5-0.1,1.9c-0.6,0.5-1.3,0.4-1.9-0.3
		c-1.3-1.5-2.5-3-3.7-4.6c-0.3-0.4-0.3-1-0.2-1.5C22.5,99.5,23.1,99.3,23.5,98.9z"/>
	<path class="st0" d="M47.5,92.5c0.4,0.3,0.8,0.5,1.1,0.8c1.3,1.5,2.5,3.1,3.7,4.6c0.6,0.7,0.5,1.5-0.1,1.9
		c-0.6,0.4-1.3,0.3-1.8-0.3c-1.3-1.5-2.6-3.1-3.8-4.7c-0.3-0.3-0.3-1-0.1-1.4C46.5,93,47.1,92.8,47.5,92.5z"/>
	<path class="st0" d="M37,91.9c-0.2,0.5-0.4,0.9-0.6,1.2c-1,1.3-2.1,2.7-3.1,4c-0.6,0.7-1.4,0.9-1.9,0.4c-0.6-0.5-0.6-1.2-0.1-2
		c1.1-1.4,2.2-2.8,3.3-4.2c0.4-0.5,0.9-0.7,1.5-0.4C36.4,91,36.7,91.5,37,91.9z"/>
	<path class="st0" d="M11.2,100.9c-1.2,0-1.9-1-1.3-1.9c1.2-1.6,2.4-3.2,3.7-4.7c0.4-0.5,1.1-0.5,1.7-0.1c0.6,0.4,0.7,1.1,0.3,1.6
		c-1.2,1.6-2.4,3.1-3.7,4.7C11.7,100.7,11.3,100.8,11.2,100.9z"/>
	<path class="st0" d="M44.2,102.6c-0.2,0.5-0.4,0.8-0.6,1.1c-1,1.4-2.1,2.7-3.2,4.1c-0.6,0.7-1.4,0.9-2,0.4
		c-0.6-0.5-0.6-1.2-0.1-1.9c1.1-1.4,2.2-2.8,3.3-4.2c0.4-0.5,0.9-0.8,1.5-0.4C43.6,101.8,43.9,102.2,44.2,102.6z"/>
</g>
<g>
	<path class="st0" d="M-370.6-554.3c6.5,3,8.7,8.1,8.3,15.1c-0.4,7.5,0.1,15-0.1,22.4c-0.7,21.3,1.5,23.8,23,23.2
		c15.2-0.4,30.2,1.6,44.5,6.6c55,19.1,88.8,57.3,98.4,114.6c12.8,76.8-40.1,149.4-117,162.5c-8.4,1.4-17.1,2-25.7,2.1
		c-19.3,0.3-38.7,0.1-58,0.1c-8.8,0-13.1,4.3-13.1,13.1c0,4.1,0.1,8.2,0,12.3c-0.2,6.4-4.8,11.2-11.2,11.2c-20,0.1-39.9,0.1-59.9,0
		c-6.5,0-11.2-4.9-11.3-11.5c0-19.6-0.6-39.2,0.2-58.7c1.1-28.1,12.2-52,33.3-70.8c14.5-12.9,25.1-27.9,29-47.2
		c2.8-13.6,1.7-27-2.2-40.3c-3.9-13.1-7.7-26.3-11-39.5c-1.3-5.1-1.3-10.6-1.3-16c-0.1-28.1,0.1-56.1-0.2-84.2
		c-0.1-7,1.9-12.1,8.3-15.1C-414.5-554.3-392.6-554.3-370.6-554.3z M-433-193.7c0.1-0.6,0.2-1,0.2-1.3
		c-0.8-18.9,14.5-35.9,36.6-35.3c19.1,0.6,38.2,0.4,57.3,0c8.6-0.2,17.3-0.7,25.6-2.5c66.2-13.7,108-78.8,93.2-144.8
		c-10.4-46.4-48.8-83.5-95.3-91.3c-11.7-2-23.8-1.9-35.8-2.3c-16.6-0.5-30.4-11.8-33-28.1c-0.9-5.4-0.5-10.9-0.6-16.4
		c-0.1-5.3,0-10.6,0-15.9c-12.7,0-25,0-37.3,0c0,0.9-0.1,1.5-0.1,2.1c0,25.7,0,51.4,0.1,77.1c0,3.8,0.2,7.8,1.2,11.5
		c3.2,12,6.8,23.9,10.4,35.9c6.1,20.4,6.1,40.8-0.4,61.1c-5.7,17.9-15.6,33.1-29.8,45.3c-19.9,17.1-29.7,38.6-29.4,64.8
		c0.2,12.1,0,24.2,0,36.3c0,1.2,0,2.4,0,3.8C-457.6-193.7-445.5-193.7-433-193.7z"/>
	<path class="st0" d="M-226.8-554.3c8.9,5.3,9.1,6.3,5.4,24.7c1.4,0,2.7-0.1,3.9,0c7.2,0.4,12.1,6.7,10.5,13.8c-1.8,8-3.8,16-6,23.9
		c-1.8,6.5-7.8,10-13.8,8.3c-6.2-1.7-9.4-7.5-7.9-14c0.7-3,1.4-6,2.3-9.6c-1.6,0-2.9,0.1-4.2,0c-6.8-0.5-11.7-6.7-10.3-13.3
		c1.9-8.5,4.1-16.9,6.1-25.4c1-4.2,4.3-6.5,7.8-8.4C-230.8-554.3-228.8-554.3-226.8-554.3z"/>
	<path class="st0" d="M-172.5-453.1c-1.9-0.1-3.2-0.1-4.6-0.2c-6.7-0.8-11.3-6.8-9.9-13.3c1.9-8.3,3.9-16.5,6.2-24.6
		c1.7-6.2,7.9-9.6,13.7-7.9c6,1.7,9.4,7.5,8,13.7c-0.7,3.2-1.5,6.3-2.3,9.4c0.4,0.2,0.6,0.4,0.8,0.4c11.6,0.6,15.5,6,12.7,17.1
		c-1.7,6.5-3.2,13.1-4.9,19.6c-1.8,7.1-7.5,11-13.7,9.5c-6.6-1.6-9.8-7.5-8-14.9C-173.9-447.2-173.2-450-172.5-453.1z"/>
	<path class="st0" d="M-361.5-255.6c-9,0-18,0-26.9,0c-10.2,0-18.2-4.1-23.2-13.1c-5-9-4.2-17.9,1.3-26.6
		c3.9-6.1,7.7-12.2,11.5-18.4c9.3-15.1,13.9-31.6,14-49.3c0-15.8,0-31.7,0-47.5c0-20.8,14.4-35,35.3-35.3
		c15.3-0.2,30.3,0.6,44.9,5.9c39.1,14.3,65.5,55.2,61.8,95.9c-4.1,44.6-36.2,80.4-78.8,86.7c-13.1,1.9-26.6,1.6-39.9,2.3
		C-361.4-255.2-361.5-255.4-361.5-255.6z M-362.4-369.2c0,2,0,3.7,0,5.4c0.1,22.8-5.9,43.8-18,63.1c-3.5,5.6-7,11.2-10.5,16.8
		c-2.5,4.2-1.6,5.8,3.4,5.8c16.5,0,32.9,0.1,49.4,0c36-0.2,65.8-25.2,72-60.7c1-6,0.9-12.2,1.3-18.6c-2.3,0-3.5,0-4.8,0
		c-17.1,0.5-33.8-1.9-50.1-7.3C-333.3-369.3-347.5-369.9-362.4-369.2z M-362.3-391.7c14.8-0.5,29,0.2,42.9,3.7
		c9.2,2.3,18.2,5.1,27.5,6.9c6.6,1.2,13.4,1.1,20.9,1.6c-6.4-14-15.4-24.2-27.1-32.1c-16.7-11.1-35.3-12.7-54.6-11.5
		c-5,0.3-9.2,4.7-9.5,9.7C-362.6-406.4-362.3-399.3-362.3-391.7z"/>
	<path class="st0" d="M-290.5-332.8c0.1,6.1-4.9,11.2-11,11.4c-6.2,0.1-11.5-5.1-11.5-11.3c0-6.1,5.1-11.1,11.2-11.2
		C-295.7-343.9-290.6-338.9-290.5-332.8z"/>
	<path class="st0" d="M-343.7-320c6.1,0,11.2,5,11.3,11.1c0.1,6.2-5.2,11.4-11.4,11.3c-6.1-0.1-11.1-5.2-11.1-11.3
		C-354.8-314.9-349.7-319.9-343.7-320z"/>
</g>
</svg>
