<?xml version="1.0" encoding="utf-8"?>
<!-- Generator: Adobe Illustrator 24.3.0, SVG Export Plug-In . SVG Version: 6.00 Build 0)  -->
<svg version="1.1" id="Layer_1" xmlns="http://www.w3.org/2000/svg" xmlns:xlink="http://www.w3.org/1999/xlink" x="0px" y="0px"
	 viewBox="0 0 150 150" style="enable-background:new 0 0 150 150;" xml:space="preserve">
<style type="text/css">
	.st0{fill:#FFFFFF;}
	.st1{fill:#005BAB;}
</style>
<path d="M1039.5,165c8.9-7.7,16.8-14.5,24.7-21.3c9.4-8.2,18.8-16.4,28.3-24.5c8.3-7.1,18.9-7.8,28.8-2.3c1.9,1,4.2,1.2,7,0.9
	c-7.2-6.3-11.8-13.5-10.4-22.9c0.7-4.6,2.4-9.5,5.1-13.1c6.6-8.8,18.2-11,27.9-6.1c6.2,3.1,11.3,7.9,12,15
	c0.6,6.3-0.4,12.9-0.8,19.7c5.4-1.2,11.8-2.5,18.2-3.9c4.9-1.1,9.7-2.3,14.6-3.2c6.9-1.3,11.8,0.9,14.4,6.2
	c2.8,5.8,1.7,10.4-3.6,15.6c-0.7,0.6-1.2,1.5-2.4,3c8.3,0,15.7,0.3,23.1-0.2c1.5-0.1,3.4-2.9,4.1-4.8c5.1-14.2,10-28.5,14.9-42.8
	c2.2-6.3,4.3-8.1,9.3-7.7c6.6,0.6,9.5,5.3,7.3,11.5c-6.7,18.8-13.3,37.6-19.9,56.4c-0.2,0.6-0.2,1.3-0.3,2.2c1.1,0.3,2,0.7,2.9,0.6
	c9.2-0.8,9.6,2.8,10.4,10.3c0.2,2.3-0.3,4.6-0.4,6.9c-0.4,4.7-2.9,6.9-7.6,6.3c-5.1-0.6-6.1,1.9-6.1,6.4c0.1,27.8,0.1,55.7,0,83.5
	c0,2-0.5,4-0.7,5.9c-0.6,0-1.2,0-1.8,0c-0.3-1.9-0.8-3.8-0.8-5.7c-0.1-27.7,0-55.3,0-83c0-7.1,0-7.1-7.3-7.2
	c-23.5,0-47,0.1-70.5-0.1c-4.9,0-6.3,1.6-6.2,6.3c0.2,28.2,0.1,56.3,0.1,84.5c0,1.8-0.6,3.7-0.9,5.5c-0.7,0-1.3-0.1-2-0.1
	c-0.2-1.8-0.6-3.7-0.6-5.5c0-27.8,0-55.7-0.1-83.5c0-6.9-0.1-7-6.9-7.1c-7.2-0.1-8.7-1.5-9.1-8.6c-0.1-1.7-0.1-3.3,0-5
	c0.3-8.2,1.9-9.8,10.1-9.8c9.8,0,19.7,0,29.5,0c1.8,0,3.6-0.2,5.6-0.3c-0.4-3.6-0.7-6.6-1.1-10.4c-5.2,1.1-10,2.1-14.8,3.2
	c-9.6,2.2-19.1,4.3-28.6,6.7c-1.7,0.4-3.1,2.4-4.4,3.9c-2.7,3.2-4.8,6.8-7.7,9.6c-5.3,5-11.1,9.6-16.6,14.4c-1.2,1-2.2,2.3-4.3,4.5
	c4.5,0,7.5,0,10.6,0c13.6-0.2,17,2.5,19.9,15.6c4.7,21.2,9.5,42.5,14.1,63.7c1.2,5.3,1.2,10.8-3.3,14.9c-3.9,3.6-8.6,4.1-13.6,2.6
	c-6.6-2.1-8.1-7.9-9.5-13.6c-3.2-13.1-6.1-26.2-9.4-39.2c-0.3-1.3-2.6-2.9-4-2.9c-13.2-0.2-26.3,0.1-39.5-0.1
	c-4.4-0.1-5.8,1.4-5.7,5.7c0.2,12,0.1,24,0,36c0,1.8-0.5,3.6-0.8,5.4c-0.6,0-1.1,0.1-1.7,0.1c-0.3-1.7-0.9-3.5-0.9-5.2
	c-0.1-12.2-0.2-24.3,0-36.5c0.1-4-1.2-5.7-5.4-5.5c-8,0.3-16,0.1-24,0.1c-7,0-9.8-2.8-9.9-9.6c-0.3-31.8-0.7-63.6-1-95.5
	c-0.1-7,2.7-9.6,10.1-9.6c7.6,0,10.1,2.4,10.2,9.6c0.3,16.5,0.7,33,1,49.5C1039.1,161.4,1039.2,162.5,1039.5,165z M1117.5,120.2
	c-1-1.1-1.4-2-2-2.2c-6.7-2.2-13.4-2-18.9,2.6c-18,15.3-35.9,30.7-53.7,46.3c-5.9,5.2-7.1,12.2-5.5,19.7c1.7,7.4,5.3,10.1,12.9,10.1
	c17.5,0,35,0,52.5,0c7.2,0,9.9,2.9,9.9,10.1c0,2.5-0.2,5.1,0.4,7.4c3.4,14.6,6.9,29.1,10.5,43.6c1,4.2,2.1,8.6,6.8,10.3
	c5.9,2.2,14.5-1.6,12.5-12c-0.9-4.9-2.3-9.7-3.4-14.5c-4.2-18.5-8.3-36.9-12.5-55.4c-1.3-5.6-4.2-7.8-9.9-7.8
	c-5.8-0.1-11.7,0.2-17.5,0c-1.6,0-3.2-0.9-4.9-1.4c1-1.4,1.7-3.2,2.9-4.3c7.5-6.6,15.1-13,22.6-19.7c2.4-2.2,4.3-5,6.4-7.5
	c-0.3-0.4-0.6-0.8-1-1.2c-4.4,0.8-8.7,1.7-13.1,2.4c-7.1,1-13-3-14.2-9.5c-1.2-6.7,2.4-12.6,9.1-14.5
	C1110.7,122,1113.8,121.2,1117.5,120.2z M1111.7,143.4c1.8-0.3,4.4-0.7,7-1.2c14.9-3.4,29.8-6.7,44.7-10.2
	c12.5-2.9,24.9-5.7,37.3-8.8c4.4-1.1,6.9-5.7,6.1-9.6c-1-4.7-5-7.7-9.9-7.2c-2.5,0.3-4.9,0.8-7.4,1.4c-14.7,3.3-29.5,6.7-44.2,10
	c-12.5,2.9-24.9,5.7-37.3,8.8c-4.5,1.1-6.8,5.4-6.1,9.6C1102.6,140.4,1106.3,143.3,1111.7,143.4z M1194.4,162.7
	c16.8,0,33.7,0,50.5,0c5.5,0,6.4-1,6.4-7.4c0-6.8-1-8.3-6.3-8.3c-33.7,0-67.3,0-101,0c-5.7,0-6.3,1-6.2,8.7c0,6.4,0.5,7,6.1,7
	C1160.7,162.7,1177.5,162.7,1194.4,162.7z M1140.9,76.7c-10.5-0.2-19.5,8.7-19.8,19.6c-0.2,9.4,8.2,19.4,16.5,19.5
	c13,0.2,22.6-7.8,23-19.1C1160.8,86.6,1151.3,76.9,1140.9,76.7z M1065.9,202c-11.8,0-23.7,0-35.5,0c-3.3,0-6.5-0.3-6.6,4.6
	c0,4.9,3.4,4.1,6.3,4.1c17.8,0,35.7,0,53.5,0c6.5,0,13,0,19.5,0c3,0,5.4-0.8,5.3-4.4c-0.1-3.6-2.6-4.2-5.5-4.2
	C1090.5,202,1078.2,202,1065.9,202z M1033.8,134.6c-0.3,0-0.6,0-0.9,0c0-8.1,0-16.3,0-24.4c0-3.7-2.3-4.3-5.3-4.3
	c-2.7,0.1-5.1,0.4-5,3.9c0.4,16.8,0.7,33.5,1.3,50.3c0,1.3,2.4,3.3,3.9,3.6c4.1,0.7,6-1.5,6-5.7
	C1033.8,150.2,1033.8,142.4,1033.8,134.6z M1210.6,132.1c-7.5,0-15,0-22.5,0c-2.8,0-5.5-0.1-5.5,3.9c0,3.8,2.1,4.8,5.4,4.8
	c15.2-0.1,30.3-0.1,45.5,0c3.3,0,5.1-1.1,5.1-4.6c-0.1-3.2-2-4.2-5-4.2C1225.9,132.1,1218.2,132.1,1210.6,132.1z M1233.2,127.5
	c4.1-1.1,7.5,4,9.4-1.1c5.5-14.8,10.5-29.7,15.6-44.6c1.1-3.3-0.8-4.6-3.5-5.2c-3.6-0.8-4.6,2-5.5,4.5c-2.5,6.9-4.8,13.7-7.2,20.6
	C1239.2,109.8,1236.5,117.9,1233.2,127.5z M1037.2,167.1c-4.1,0.7-8,1.2-11.8,2.2c-1.1,0.3-2.6,2-2.6,3.1c-0.2,7-0.2,14,0,21
	c0,1.2,1.2,3.2,2,3.3c4.2,0.3,8.4,0.2,13.1,0.2C1032.1,185,1032,178.2,1037.2,167.1z"/>
<path class="st0" d="M1117.5,120.2c-3.7,1-6.8,1.8-9.9,2.7c-6.7,1.9-10.4,7.7-9.1,14.5c1.2,6.4,7.2,10.5,14.2,9.5
	c4.4-0.6,8.7-1.6,13.1-2.4c0.3,0.4,0.6,0.8,1,1.2c-2.1,2.5-4,5.3-6.4,7.5c-7.4,6.7-15.1,13.1-22.6,19.7c-1.3,1.1-2,2.8-2.9,4.3
	c1.6,0.5,3.2,1.3,4.9,1.4c5.8,0.1,11.7-0.1,17.5,0c5.7,0.1,8.7,2.3,9.9,7.8c4.2,18.4,8.3,36.9,12.5,55.4c1.1,4.9,2.5,9.7,3.4,14.5
	c2,10.4-6.6,14.1-12.5,12c-4.7-1.8-5.8-6.2-6.8-10.3c-3.6-14.5-7.1-29-10.5-43.6c-0.6-2.4-0.4-5-0.4-7.4c0-7.2-2.7-10.1-9.9-10.1
	c-17.5,0-35,0-52.5,0c-7.6,0-11.3-2.7-12.9-10.1c-1.7-7.5-0.5-14.5,5.5-19.7c17.8-15.6,35.6-31.1,53.7-46.3
	c5.5-4.6,12.2-4.9,18.9-2.6C1116.2,118.2,1116.6,119.1,1117.5,120.2z"/>
<path class="st0" d="M1111.7,143.4c-5.4,0-9.1-3-9.8-7.2c-0.7-4.2,1.7-8.5,6.1-9.6c12.4-3.1,24.9-6,37.3-8.8
	c14.7-3.4,29.5-6.7,44.2-10c2.4-0.5,4.9-1.1,7.4-1.4c4.9-0.5,8.9,2.4,9.9,7.2c0.8,3.9-1.7,8.5-6.1,9.6c-12.4,3.1-24.9,5.9-37.3,8.8
	c-14.9,3.4-29.8,6.8-44.7,10.2C1116.1,142.7,1113.5,143.1,1111.7,143.4z"/>
<path class="st0" d="M1194.4,162.7c-16.8,0-33.6,0-50.5,0c-5.7,0-6.1-0.6-6.1-7c0-7.7,0.6-8.7,6.2-8.7c33.7,0,67.3,0,101,0
	c5.2,0,6.2,1.5,6.3,8.3c0,6.4-0.8,7.4-6.4,7.4C1228,162.7,1211.2,162.7,1194.4,162.7z"/>
<path class="st0" d="M1140.9,76.7c10.4,0.2,19.9,9.9,19.6,20c-0.3,11.3-10,19.3-23,19.1c-8.2-0.1-16.7-10.2-16.5-19.5
	C1121.4,85.4,1130.3,76.5,1140.9,76.7z"/>
<path class="st0" d="M1065.9,202c12.3,0,24.7,0,37,0c2.9,0,5.4,0.6,5.5,4.2c0.1,3.6-2.3,4.4-5.3,4.4c-6.5,0-13,0-19.5,0
	c-17.8,0-35.7,0-53.5,0c-2.9,0-6.3,0.8-6.3-4.1c0-4.8,3.3-4.6,6.6-4.6C1042.2,202,1054,202,1065.9,202z"/>
<path class="st0" d="M1033.8,134.6c0,7.8-0.1,15.6,0,23.4c0.1,4.2-1.9,6.5-6,5.7c-1.5-0.3-3.9-2.3-3.9-3.6
	c-0.6-16.8-0.9-33.5-1.3-50.3c-0.1-3.5,2.3-3.9,5-3.9c3-0.1,5.3,0.6,5.3,4.3c0,8.1,0,16.3,0,24.4
	C1033.3,134.6,1033.6,134.6,1033.8,134.6z"/>
<path class="st0" d="M1210.6,132.1c7.7,0,15.3,0.1,23,0c3,0,4.9,0.9,5,4.2c0.1,3.4-1.8,4.6-5.1,4.6c-15.2-0.1-30.3-0.1-45.5,0
	c-3.4,0-5.5-0.9-5.4-4.8c0-4,2.7-3.9,5.5-3.9C1195.6,132.1,1203.1,132.1,1210.6,132.1z"/>
<path class="st0" d="M1233.2,127.5c3.3-9.5,6-17.6,8.8-25.7c2.4-6.9,4.8-13.8,7.2-20.6c0.9-2.5,1.9-5.2,5.5-4.5
	c2.8,0.6,4.7,1.9,3.5,5.2c-5.2,14.9-10.1,29.8-15.6,44.6C1240.8,131.4,1237.3,126.4,1233.2,127.5z"/>
<path class="st0" d="M1037.2,167.1c-5.2,11.1-5.1,17.9,0.6,29.8c-4.7,0-8.9,0.2-13.1-0.2c-0.8-0.1-2-2.1-2-3.3c-0.2-7-0.2-14,0-21
	c0-1.1,1.5-2.8,2.6-3.1C1029.1,168.3,1033,167.8,1037.2,167.1z"/>
<g>
	<path class="st1" d="M149.5,48.2c-0.3,1.3-0.6,2.6-1,3.8c-4.5,13.9-20.7,19.9-33.1,12.2c-1-0.6-1.8-0.6-2.8-0.1
		c-8.4,4.7-16.9,9.3-25.3,14c-1.1,0.6-2,1.5-2.9,2.3c-1.2,1.1-1.5,2.4-1,3.9c0.5,1.5,1.8,2.2,3.3,2.4c3.5,0.4,7-0.3,10.3-1.3
		c0.5-0.2,1-0.3,1.5-0.5c2.8-0.9,5.1-2.2,7.1-4.6c6.3-7.6,17.3-9.7,26.4-5.3c8.8,4.2,13.9,14.1,12.3,23.7
		c-1.7,10-9.7,17.5-19.5,18.5c-10.9,1.2-20.8-5.4-24-16c-0.1-0.4-0.2-0.7-0.4-1.2c-3.9,0.2-7.8,0.6-11.3,2.5
		c-2.7,1.5-4.2,3.5-4.1,6.9c0.2,5.9,0.1,11.8,0.1,17.7c0,4.6,2.7,7.4,7.2,7.6c7.2,0.4,12.7,4.4,14.7,10.8c0.9,2.9-0.4,4.5-3.4,3.9
		c-6.9-1.3-13.9-2.4-21-1.8c-2.1,0.2-4.1,1.1-6.2,1.6c-0.8,0.2-1.8,0.4-2.4,0.1c-3.1-1.7-6.4-2-9.8-1.8c-6,0.4-12,1.3-18,2
		c-2.5,0.3-3.8-1-3.2-3.4c1.6-6.1,7.1-10.7,13.4-11.2c0.2,0,0.5,0,0.7-0.1c5.8-0.4,8-2.8,8-8.7c0-5.7-0.1-11.4,0-17.1
		c0-2.5-1-4.3-2.9-5.6c-2.7-1.9-5.7-2.5-8.9-3c-1.2-0.2-2.4-0.2-3.7-0.3c-0.2,0.5-0.3,1-0.5,1.5c-3,9.7-12.4,16.4-22.1,15.8
		c-10.9-0.6-19.5-8.2-21.3-18.6C4.2,88.4,9.8,78.3,19.5,74.3c9.4-3.9,20.5-0.7,26.5,7.6c0.5,0.7,1.3,1.2,2,1.6
		c4,1.7,8.1,3.1,12.5,3.3c1,0,2.1,0,3.1-0.1c1.5-0.2,2.6-0.9,3.1-2.3c0.6-1.5,0.2-2.8-0.9-3.8c-1.6-1.4-3.4-2.8-5.2-3.8
		c-7.9-4.4-15.8-8.6-23.7-12.9c-0.9-0.5-1.4,0-2,0.4c-10.4,6.6-23.9,3.7-30.7-6.5C-5,43.8,3.8,24.9,20.2,23
		c14.7-1.7,26.9,10.8,24.9,25.4c-0.1,0.5,0.1,1.3,0.5,1.6c4.7,2.9,9.4,5.8,14.1,8.5c1.3,0.7,2.8,1,4.1,1.5c1.4,0.5,2.3-0.2,2.4-1.5
		c0.2-2.5,0.4-5.1,0.3-7.6c-0.1-2.2-0.4-4.3-0.8-6.4c-0.1-0.6-0.7-1.4-1.2-1.8c-7.9-4.6-12-11.4-11.7-20.5
		c0.3-8.9,4.7-15.4,12.7-19.3C79.2-4,95.9,5.4,97.2,20.5c0.9,9.9-3.2,17.2-11.8,22.2c-0.4,0.3-0.9,0.8-1,1.3
		c-0.8,4.3-1.3,8.7-0.9,13.1c0.3,3.1,1,3.6,4,2.6c5.2-1.8,9.7-4.9,14.4-7.8c2.2-1.4,3.3-2.8,3.1-5.7c-0.6-11.7,8.1-21.9,19.4-23.1
		c12.2-1.3,22.7,6.5,24.8,18.5c0,0.2,0.2,0.4,0.3,0.7C149.5,44.2,149.5,46.2,149.5,48.2z M106.8,54.6c-1.7,1.1-3.3,2.2-4.9,3.2
		c-4.6,2.8-9.1,5.7-14.4,7c-4.4,1.1-7.3-0.6-8.3-5c-0.6-2.6-0.6-5.3-0.7-7.9c0-2.3,0.3-4.6,0.5-6.8c-2.7,0-5.3,0-8,0
		c0.2,2,0.4,4,0.6,6c0.2,3.3,0.2,6.6-1,9.8c-1.2,3.1-3.2,4.5-6.5,4.1c-1.4-0.2-3-0.4-4.3-1.1c-4.4-2.2-8.7-4.6-13-7
		c-1.2-0.7-2.4-1.6-3.5-2.3c-1.1,1.8-2.2,3.5-3.3,5.2c5.9,3.1,11.8,6.1,17.5,9.4c3.9,2.2,7.8,4.7,11.3,7.4c3,2.4,3.9,5.8,2.4,9.5
		c-1.4,3.6-4.4,5.3-8.2,5.6c-4.3,0.3-8.4-0.6-12.5-1.9c-0.3-0.1-0.7-0.2-1-0.2c0.2,1.9,0.5,3.6,0.7,5.4c1.6,0.2,3.1,0.3,4.7,0.5
		c4.1,0.6,8,1.8,11.2,4.6c2.2,1.9,3.8,4.3,3.8,7.4c0.1,6.9,0.1,13.8,0,20.7c-0.1,6.3-5.3,11.3-11.6,11.4c-1,0-2,0.1-2.9,0.3
		c-2.3,0.5-4.2,1.6-5.7,3.7c3-0.3,5.7-0.8,8.3-0.9c5.5-0.4,11-0.7,16.4,1.3c0.3,0.1,0.8,0.1,1.1,0c4-1.6,8.2-1.7,12.4-1.5
		c4.1,0.2,8.1,0.6,12.2,1c-2-2.7-4.8-3.8-8-3.8c-7.2-0.2-12.2-5.2-12.2-12.4c0-6.2,0.1-12.3,0-18.5c-0.1-3.9,1.5-7,4.6-9.1
		c2.3-1.5,4.9-2.6,7.6-3.4c2.4-0.8,5-0.9,7.6-1.3c0.2-1.7,0.4-3.5,0.7-5.4c-0.7,0.2-1.3,0.4-1.8,0.6c-3.9,1.2-7.8,1.9-11.9,1.6
		c-3.7-0.3-6.5-2-7.9-5.5c-1.4-3.5-0.5-6.7,2.1-9.3c1.2-1.2,2.5-2.3,3.9-3.1c7.8-4.4,15.8-8.7,23.6-13.1c0.5-0.3,1-0.6,1.5-0.8
		C108.9,58,107.9,56.4,106.8,54.6z M38.1,53.5c3.5-5.1,3.3-14.9-3.4-21c-6.5-6-16.7-6-23.3-0.1c-6.8,6-7.2,15.8-3.4,21.3
		c0.9-1.1,1.8-2.3,2.8-3.3c1-1,2.2-1.9,3.4-2.8c-1.9-5.7-1-9.6,2.7-12.6c3.3-2.6,7.9-2.8,11.5-0.5c1.7,1.1,3,2.7,3.8,4.6
		c1.2,2.9,0.8,5.8-0.3,8.2C34.1,49.5,36.1,51.5,38.1,53.5z M90.3,31.2c4.2-6.8,2.3-16.6-4.5-21.9c-6.9-5.4-17-4.8-23.1,1.5
		C56.2,17.5,56.9,27,60,31.2c2.1-2,4.1-4.1,6.3-6.2c-1.9-4.8-1.1-9.1,2.5-12.1c3.3-2.8,8.1-3.1,11.7-0.7c1.8,1.2,3.1,2.8,3.9,4.8
		c1.1,2.8,0.7,5.6-0.4,8C86.1,27.1,88.2,29.1,90.3,31.2z M43,103.4c4.4-7.1,2.4-17-4.4-22.2c-7.1-5.4-17.1-4.7-23.2,1.8
		c-6.1,6.5-5.7,15.9-2.5,20.1c2.1-2,4.1-4.1,6.3-6.1c-1.9-4.8-1.1-9,2.4-12.1c3.2-2.8,7.9-3.1,11.6-0.9c1.8,1.1,3.2,2.7,4,4.6
		c1.2,2.9,0.9,5.8-0.4,8.5c1.2,1,2.4,1.8,3.4,2.8C41.1,101,42,102.2,43,103.4z M118.3,47.3c-1.9-5.2-1-9.4,2.8-12.4
		c3.4-2.6,8.2-2.7,11.7-0.2c4,2.8,5,7,3.1,12.9c1.1,0.9,2.4,1.8,3.4,2.8c1,1,1.9,2.2,2.9,3.3c4.2-6.5,2.5-16.3-3.7-21.6
		c-6.7-5.7-16.6-5.6-23.1,0.3c-7,6.4-6.7,16.1-3.4,21C114.1,51.5,116.2,49.4,118.3,47.3z M137.4,103.2c4.2-6.7,2.3-16.5-4.3-21.8
		c-6.9-5.5-16.9-5-23.2,1.2c-6.4,6.4-6.1,15.9-2.8,20.5c2.1-2,4.1-4.1,6.3-6.2c-1.9-5.1-1-9.3,2.7-12.2c3.4-2.7,8.1-2.9,11.7-0.5
		c1.8,1.2,3,2.8,3.8,4.8c1.1,2.8,0.7,5.6-0.4,7.9C133.3,99.1,135.3,101.1,137.4,103.2z M34.5,58.2c-1.1-2.9-3-5-5.7-6.4
		c-0.4-0.2-1.1-0.2-1.6,0c-2.9,1.3-5.7,1.3-8.6,0c-0.4-0.2-1-0.2-1.3,0c-2.8,1.4-4.7,3.6-5.9,6.4C17.5,64.1,27.9,64.1,34.5,58.2z
		 M127.1,62.7c3.9,0,7.5-1.3,10.7-3.6c0.8-0.6,1-1.1,0.5-2c-1.2-2.2-2.8-4-5.1-5.2c-0.5-0.3-1.3-0.3-1.9-0.1c-2.8,1.2-5.5,1.2-8.3,0
		c-0.5-0.2-1.4-0.2-1.9,0c-2.2,1.2-3.9,3-5.1,5.2c-0.5,0.9-0.3,1.4,0.4,2C119.7,61.4,123.2,62.6,127.1,62.7z M27.9,112.3
		c4-0.1,7.6-1.3,10.7-3.7c0.8-0.6,0.8-1,0.4-1.8c-1.2-2.2-2.8-3.9-4.9-5.2c-0.7-0.4-1.3-0.5-2.2-0.1c-2.3,1.1-4.8,1.5-7,0.4
		c-2.3-1.1-3.8-0.2-5.2,1.2c-1.1,1.1-2,2.5-3,3.8c-0.5,0.7-0.3,1.2,0.4,1.7C20.4,111,24,112.2,27.9,112.3z M133.7,107.8
		c-1.1-2.8-2.9-4.8-5.5-6.2c-0.5-0.3-1.3-0.3-1.9-0.1c-2.8,1.2-5.6,1.2-8.4,0c-0.5-0.2-1.2-0.2-1.6,0c-2.4,1.2-4.2,3.1-5.3,5.5
		c-0.2,0.4,0,1.2,0.3,1.4C117.3,113.8,128,113.5,133.7,107.8z M63.6,35.8c6.1,6,17.4,6,23-0.1c-1.1-2.8-3.1-5-5.8-6.4
		c-0.4-0.2-1-0.1-1.5,0.1c-2.9,1.3-5.7,1.3-8.6,0c-0.4-0.2-1-0.2-1.3-0.1C66.7,30.8,64.7,32.9,63.6,35.8z M132.1,42.8
		c0-2.8-2.2-5-4.9-5c-2.8,0-4.9,2.2-4.9,5c0,2.7,2.2,4.9,4.9,4.9C129.9,47.8,132.1,45.6,132.1,42.8z M28,42.8c0-2.7-2.3-5-5-5
		c-2.7,0-5,2.3-5,5c0,2.7,2.2,4.9,4.9,4.9C25.6,47.8,27.9,45.6,28,42.8z M75,25.4c2.8,0,5-2.2,5-4.9c0-2.7-2.2-5-5-5
		c-2.7,0-4.9,2.1-4.9,4.8C70.1,23.1,72.3,25.4,75,25.4z M23,92.4c0,2.8,2.2,5,4.9,5c2.7,0,5-2.2,5-5c0-2.7-2.2-4.9-4.9-4.9
		C25.3,87.5,23,89.6,23,92.4z M117.3,92.4c0,2.8,2.2,5,4.9,5c2.7,0,5-2.2,4.9-5c0-2.7-2.2-4.9-4.9-4.9
		C119.6,87.5,117.3,89.6,117.3,92.4z"/>
</g>
</svg>
