<?xml version="1.0" encoding="utf-8"?>
<!-- Generator: Adobe Illustrator 24.3.0, SVG Export Plug-In . SVG Version: 6.00 Build 0)  -->
<svg version="1.1" id="Layer_1" xmlns="http://www.w3.org/2000/svg" xmlns:xlink="http://www.w3.org/1999/xlink" x="0px" y="0px"
	 viewBox="0 0 150 150" style="enable-background:new 0 0 150 150;" xml:space="preserve">
<style type="text/css">
	.st0{fill:#5F6368;}
	.st1{fill:#005BAB;}
</style>
<path class="st0" d="M2053.7-657.2c-2.1,0-3.6,0-5.1,0C2049.8-661.3,2051.5-660.2,2053.7-657.2z"/>
<g>
	<path class="st1" d="M43,131.5c-1.6,5.6-1.2,11.2-1.3,16.8c-1.6,0-3.1,0-4.6,0c0-3.5-0.1-7,0-10.5c0.2-5.5,2.3-10.6,3.4-15.9
		c0.6-2.9,1-6,1.1-9c0.1-6.2,0.4-12.5-0.8-18.7c-0.9-4.6-2.7-8.9-4.7-13.1c0.2,11.6,0,23.1-1.8,34.6c-1.8,11.5-5.6,22.3-9.4,33.4
		c-0.8-0.2-1.5-0.5-2.2-0.7c-0.7-0.2-1.4-0.5-2.3-0.8c0.2-0.6,0.3-1.2,0.5-1.8c2.8-8.5,5.8-16.9,7.6-25.8
		c2.1-10.4,2.9-20.9,2.6-31.5c-0.2-7.5-0.9-14.9-1.4-22.4c-0.1-1.4-0.1-2.6,1.4-3.3c1.4-0.6,2.3,0.1,3.2,1.2
		c2.4,2.8,4.7,5.6,7.2,8.4c5,5.7,11.3,7.9,18.8,6.5c3.1-0.6,6.1-1.2,9.3-1.8c0.3,1.5,0.6,3,1,4.6c-1.9,0.4-3.7,0.8-5.5,1.1
		c-4.4,0.9-8.8,1.8-13.4,0.9c-4.3-0.9-8.1-2.8-11.7-5.9c1.2,3.1,2.3,5.9,3.5,8.7c0.2,0.4,1,0.6,1.5,0.6c4.3,0.4,8.7,0.8,13,1.2
		c4.5,0.4,7.8,2.5,9.2,6.8c1.5,4.6,0.1,8.5-3.2,11.8c-0.5,0.5-1.2,0.9-1.7,1.4c-2.2,1.8-2.2,4.9,0.1,6.7c0.7,0.6,1.5,1,2.2,1.5
		c5.1,3.9,4.1,11.5-1.8,13.9c-3.4,1.3-6.8,2.4-10.3,3.4C49.1,134.8,45.9,133.8,43,131.5z M45.2,91.8c0.2,0.8,0.3,1.5,0.4,2.2
		c1.2,5.9,1,11.8,0.8,17.8c-0.1,4.1-0.8,8.2-1.4,12.2c-0.3,2,0,3.1,1.6,4.3c1.7,1.2,3.5,1.3,5.4,0.7c2.4-0.8,4.9-1.6,7.3-2.4
		c1.7-0.6,3.5-1.1,3.8-3.3c0.3-2.1-1.2-3-2.7-4c-5.7-3.9-5.9-10.9-0.5-15.3c1.1-0.9,2.2-2.1,2.7-3.4c1.6-3.8-0.6-7.2-4.6-7.6
		c-1.5-0.1-3-0.3-4.4-0.5C50.9,92.3,48.1,92.1,45.2,91.8z"/>
	<path class="st1" d="M113.4,148.3c-2,0-3.5,0-5,0c0-1.9,0-3.8,0-5.8c-3.7-0.6-7.3-1.2-10.9-1.8c-2.3-0.4-4.6-0.7-6.9-1.2
		c-3.8-0.8-6.3-4.1-6.1-7.9c0.2-3.7,3.2-6.7,7-7c1.3-0.1,2.2-0.5,2.4-1.9c1-6.5,3.2-8.8,9.7-10.2c-0.9-11.9,0.4-23.6,6.3-34.4
		c-0.1-0.1-0.3-0.1-0.4-0.2c-0.3,0.2-0.6,0.4-0.8,0.6c-5.9,4.7-12.5,6.4-20,4.9c-3.1-0.6-6.3-1.3-9.6-1.9c0.3-1.6,0.6-3,0.9-4.6
		c3.2,0.6,6.3,1.3,9.4,1.8c7.4,1.4,13.6-0.7,18.6-6.3c2.5-2.8,4.9-5.7,7.4-8.6c0.9-1,1.8-1.7,3.2-1.1c1.4,0.6,1.5,1.8,1.4,3.1
		c-1.7,13.5-1.9,27-0.8,40.5c1,11.6,3.9,22.8,7.8,33.8c0.8,2.4,1.6,4.8,2.4,7.3c-1.5,0.5-2.9,1-4.3,1.4c-9-21.9-12.7-44.6-11.1-68.1
		c-0.2,0-0.4-0.1-0.6-0.1c-1.4,4-3,7.9-4,12c-0.8,3.6-1.1,7.3-1.2,11c-0.1,5.8-0.5,11.6,0.9,17.3c0.9,4,2.4,8,3,12.1
		C113,138.2,113.1,143.2,113.4,148.3z M108.1,137.6c-0.3-7-3.8-13.3-4.1-20.1c-3,0.2-4.9,2.1-5.1,5c-0.2,4-2.6,6.5-6.6,6.9
		c-1.7,0.1-2.8,1.1-2.9,2.6c-0.1,1.5,0.9,2.6,2.5,3c1.2,0.2,2.3,0.4,3.5,0.6C99.6,136.2,103.8,136.9,108.1,137.6z"/>
	<path class="st1" d="M144.1,148.7c-1.6-0.2-3.1-0.4-4.7-0.7c1.1-8.6,2.9-17,2.2-25.8c-1.8,0-3.6,0.1-5.4,0
		c-6.1-0.2-11.1-5.4-11.1-11.4c0-2.5,1-4.6,3.2-5.8c1.2-0.7,1.5-1.6,1.6-2.9c0.2-3-0.5-5.5-2.6-7.9c-2.8-3.2-2.5-7.2-1.7-11
		c1.2-6.5,4.5-11.7,9.7-15.7c1.4-1.1,1.8-2.2,1.6-3.9c-0.4-5.5-1-11.1-2.8-16.4c-3.9-11.2-12-17.9-23.5-20.5
		c-3.4-0.8-6.9-1.5-10.2-2.6c-6.6-2.3-10.9-8.7-11-15.7c0-2.5,0-4.9,0-7.5c1.6,0,3,0,4.8,0c0,1.5-0.1,3.1,0,4.6
		c0.1,1.9,0,3.9,0.5,5.7c1.2,4.6,4.3,7.6,8.9,8.9c3.5,0.9,7.1,1.6,10.5,2.6c13.6,3.9,22.1,12.8,25.5,26.5c1.5,6.2,2.1,12.5,2.1,18.9
		c0,7.4-0.2,14.9,0.4,22.3c0.5,6.9,1.8,13.8,3,20.7c1.6,9.3,1.8,18.6,0.4,28C145,142.3,144.5,145.5,144.1,148.7z M136.9,72.5
		c-3.9,3.3-6,7.4-6.9,12.3c-0.5,3.1-0.2,5.7,2.2,8.1c0.9,0.9,1.6,2.3,1.9,3.6c0.4,1.9,0.4,3.9,0.5,5.9c0.1,2.8-1,4.9-3.4,6.3
		c-1.1,0.6-1.5,1.5-1.3,2.7c0.5,2.8,2,4.9,4.7,5.6c2.1,0.5,4.4,0.4,7,0.6C138,102.5,136.2,87.7,136.9,72.5z"/>
	<path class="st1" d="M14.4,52.4c-0.4,4.5-1,9-1.2,13.6c-0.2,5.2-0.1,10.4,0,15.6c0.1,10.2-1.3,20.2-3.3,30.1
		c-1.9,9-1.8,18.1-0.4,27.2c0.5,3,0.9,6.1,1.3,9.2c-1.6,0.2-3,0.5-4.7,0.7c-0.4-2.7-0.8-5.3-1.2-7.9c-1-6.9-1.8-13.9-1-20.9
		c0.6-5.2,1.5-10.4,2.5-15.5c1.3-7.4,2-14.8,2-22.3c0-7.1-0.1-14.3,0.3-21.4c0.5-7.5,1.8-15,5.7-21.6c5.3-9,13.2-14.5,23.3-16.8
		c2.9-0.7,5.8-1.3,8.7-2.1c5.8-1.5,9.5-6.3,9.5-12.3c0-2.3,0-4.6,0-6.9c1.6,0,3.1,0,4.7,0c-0.1,4.9,0.7,9.8-1.6,14.4
		c-2.4,4.8-6.1,8-11.3,9.4c-1.1,0.3-1.4,0.7-1.4,1.8c0,5.6-3.8,9.6-9.5,10c-1.7,0.1-2.6,1-2.3,2.7c0.2,1.3,0.6,2.5,1.1,3.7
		c0.9,2.3,1.5,4.6,1.2,7.1c-0.8,5.3-5.5,8.6-10.9,7.9c-3.4-0.5-6.5-1.8-9.1-4.1c-0.6-0.5-1.2-1-1.8-1.5
		C14.8,52.3,14.6,52.3,14.4,52.4z M41.6,26.3c-1.2,0.3-2.2,0.5-3.3,0.7c-10.4,2.6-17.7,8.8-21.8,18.8c-0.4,0.9-0.3,1.4,0.5,2
		c1.3,1,2.5,2.1,3.8,3.1c2,1.5,4.3,2.3,6.8,2.3c2.7,0,4.7-2,4.6-4.7c-0.1-1.2-0.5-2.3-0.8-3.4c-0.3-0.9-0.7-1.8-1-2.8
		c-1.7-6,0.7-9.7,6.9-10.5C39.9,31.4,41.7,29.2,41.6,26.3z"/>
	<path class="st1" d="M81.1,69.8c-2.6,0.2-5.3-0.5-7.6-2.5c-5-4.5-4.1-12.5,1.7-15.8c3.1-1.7,6.2-3.3,9.9-3.3c2.2,0,3.8-1.4,5.1-3.2
		c3.5-4.7,10.7-5.3,15-1.3c5,4.6,3.7,12.8-2.4,15.9c-3.6,1.9-7.5,2.8-11.6,2.9c-1.3,0-1.9,0.4-2.1,1.8c-0.3,3.1-2.8,5.3-5.9,5.3
		C82.7,69.8,82.1,69.8,81.1,69.8z M81.4,65C81.4,65,81.4,65.1,81.4,65c0.6,0,1.3,0.2,1.8,0c0.5-0.2,1.2-0.7,1.3-1.2
		c0.8-4.2,2.6-5.7,6.8-5.9c3.3-0.1,6.4-0.9,9.3-2.4c2.3-1.2,3.5-3.6,2.8-5.9c-0.6-2-1.9-3.2-3.9-3.5C97.4,45.8,95.4,46,94,48
		c-2.1,3-4.9,4.9-8.5,5c-3.1,0.1-5.5,1.4-8,2.8c-1.9,1-2.8,3.2-2.3,5.2c0.5,2.1,2.1,3.6,4.2,3.9C80,65.1,80.7,65,81.4,65z"/>
	<path class="st1" d="M127.4,48.4c0,3.9-3.2,7.1-7.1,7.1c-4,0-7.2-3.2-7.2-7.2c0-3.9,3.2-7.1,7.1-7.1
		C124.2,41.3,127.4,44.5,127.4,48.4z M120.3,46c-1.3,0-2.3,1.1-2.4,2.3c0,1.3,1.1,2.4,2.5,2.4c1.3,0,2.3-1.1,2.3-2.4
		C122.6,47.1,121.6,46,120.3,46z"/>
	<path class="st1" d="M94.1,96c0,3.9-3.2,7.1-7,7.2c-4,0-7.2-3.2-7.2-7.1c0-3.9,3.1-7.1,7-7.2C90.8,88.8,94.1,92,94.1,96z M89.3,96
		c0-1.3-1.1-2.3-2.4-2.3c-1.3,0-2.4,1-2.4,2.3c0,1.3,1.1,2.5,2.4,2.4C88.3,98.4,89.3,97.3,89.3,96z"/>
	<path class="st1" d="M27.4,110.3c0,3.9-3.2,7.1-7,7.2c-4,0-7.2-3.2-7.2-7.1c0-3.9,3.1-7.1,7-7.2C24.1,103.1,27.4,106.3,27.4,110.3z
		 M20.3,107.9c-1.3,0-2.4,1-2.4,2.3c0,1.3,1,2.4,2.2,2.5c1.3,0.1,2.5-1,2.5-2.4C22.7,109,21.6,108,20.3,107.9z"/>
	<path class="st1" d="M63.1,55.5c0,3.9-3.1,7.1-7,7.2c-4,0.1-7.2-3.1-7.2-7.1c0-3.9,3.2-7.1,7-7.2C59.9,48.4,63.1,51.6,63.1,55.5z
		 M56,53.2c-1.3,0-2.3,1-2.4,2.3c0,1.3,1,2.4,2.3,2.4c1.3,0,2.5-1.1,2.4-2.4C58.3,54.2,57.3,53.2,56,53.2z"/>
	<path class="st1" d="M72.4,33.1c-1.5,0.7-2.8,1.4-4.2,2.1c-0.2-0.3-0.4-0.5-0.4-0.7c-0.7-2.4-2.3-3.4-4.8-3.7
		c-2.4-0.2-4.8-0.9-7.4-1.5c0.3-1.6,0.6-3,0.9-4.6c2.7,0.5,5.3,1,7.9,1.5c6.2,1.4,4.5,0,7.6,5.9C72.1,32.4,72.2,32.7,72.4,33.1z"/>
	<path class="st1" d="M81.9,35.2c-1.5-0.7-2.8-1.4-4.2-2.1c0.9-1.7,1.6-3.3,2.5-4.9c0.2-0.4,0.8-0.9,1.3-1c4-0.9,8-1.7,12.2-2.5
		c0.3,1.6,0.6,3,0.9,4.7c-2.7,0.5-5.3,1.2-7.9,1.5c-2.1,0.3-3.5,1-4.1,3.1C82.4,34.3,82.2,34.7,81.9,35.2z"/>
	<path class="st1" d="M77.4,124.7c0,1.6,0,3,0,4.6c-1.5,0-3,0-4.6,0c0-1.5,0-3,0-4.6C74.3,124.7,75.7,124.7,77.4,124.7z"/>
</g>
</svg>
