<?xml version="1.0" encoding="utf-8"?>
<!-- Generator: Adobe Illustrator 24.3.0, SVG Export Plug-In . SVG Version: 6.00 Build 0)  -->
<svg version="1.1" id="Layer_1" xmlns="http://www.w3.org/2000/svg" xmlns:xlink="http://www.w3.org/1999/xlink" x="0px" y="0px"
	 viewBox="0 0 150 150" style="enable-background:new 0 0 150 150;" xml:space="preserve">
<style type="text/css">
	.st0{fill:#005BAB;}
</style>
<g>
	<path class="st0" d="M8,149.4c-0.5-0.8-1.3-1.7-1.3-2.5c0.2-15,2.8-29.6,8.4-43.6c2.7-6.6,7.5-10.7,13.8-13.3
		c7.1-3,14.4-5.7,21.6-8.5c1-0.4,1.4-0.7,1.5-2c0.3-3.6-0.3-6.5-3.4-9.1c-3.8-3.1-4.8-8-5.9-12.7c-0.1-0.3-0.2-0.7-0.2-1
		c0-0.1-0.1-0.3-0.2-0.4c-7.1-1-10.7-3.9-11.9-9.2c-1.2-5.3,0.9-9.5,6.6-13.2c-2.8-7.3-0.4-13.7,3.3-19.9
		c9.3-15.5,28.6-15.9,38.3-10c2.3,1.4,4.5,2.4,7.2,2.8c4.2,0.6,7.4,3.2,9.7,6.8c3.9,6.2,5.2,12.9,3.1,20.2c0.4,0.2,0.9,0.5,1.3,0.7
		c4.5,2.5,6.8,7.6,5.7,12.6c-1.1,4.9-5.2,8.6-10.2,9c-1.4,0.1-2,0.5-2.2,1.9c-1.1,6-3.6,11.3-8.6,15.2c-0.3,0.3-0.5,0.9-0.6,1.4
		c-0.1,1.7,0,3.4-0.1,5.1c-0.1,1,0.4,1.4,1.3,1.7c7.1,2.7,14.2,5.4,21.2,8.2c8,3.2,13,9.1,15.8,17.2c4.4,12.9,6.8,26.1,7,39.7
		c0,1.3-0.4,2.2-1.5,2.9C87.8,149.4,47.9,149.4,8,149.4z M56,110.1c0.5-0.3,1-0.6,1.5-0.8c3.8-1.6,7.4-3.5,11.3-4.7
		c5.9-1.8,9.5,0.5,11.2,6.4c1.5,5.2,1.2,10.4-0.8,15.5c-1.1,2.8-2.9,5.1-5.8,6.1c-3.9,1.4-7.9,3-11.9,3.9c-3.7,0.9-7.1,2.2-9.8,4.9
		c-1,1-2.2,1.9-3.3,2.9c-0.2,0.2-0.4,0.4-0.6,0.7c19.1,0,38.1,0,57.2,0c-0.1-0.8-0.1-1.4-0.2-2.1c-0.9-7-1.9-14-2.8-21
		c-0.2-1.9,0.4-2.9,1.8-3.1c1.4-0.2,2.3,0.7,2.6,2.6c0.3,2.4,0.7,4.7,0.9,7.1c0.1,1,0.5,1.4,1.5,1.4c4.6-0.1,9.1,0,13.7,0
		c0.4,0,0.7-0.1,1.2-0.1c0-0.5,0-0.9-0.1-1.2c-1.4-8.3-3.5-16.3-6.8-24.1c-1.8-4.1-4.6-7.1-8.5-9.1c-7.2-3.8-14.8-6.7-22.5-9.2
		c-0.6-0.2-1.2-0.3-1.7-0.5c-2.3,7.8-7.5,12.6-14.2,13c-9.3,0.5-15-4.3-17.6-13c-8.4,2.9-16.8,5.8-24.6,10c-3.7,2-6.5,4.7-7.9,8.7
		c-1.8,5.1-3.6,10.2-5.1,15.4c-1,3.3-1.4,6.7-2.2,10.1c5.6,0,10.9,0,16.3,0c0.1-0.7,0.2-1.4,0.3-2c0.3-2.3,0.6-4.6,0.9-6.9
		c0.2-1.4,1.1-2.2,2.4-2.1c1.2,0.1,2,1,2,2.4c0,0.5-0.1,1.1-0.2,1.6c-0.2,1.8-0.5,3.7-0.7,5.5c0.1,0.1,0.3,0.2,0.4,0.3
		c1.5-1.3,3.1-2.5,4.4-4.1c2.4-2.8,3.6-6.2,4.5-9.8c0.7-2.9,1.5-5.8,2.9-8.4c2-3.8,7.1-3.6,9.2,0.2C55.3,107.6,55.5,108.8,56,110.1z
		 M79.9,76.5c-1.7,0.7-2.9,1.3-4.2,1.7c-1.2,0.4-2.3-0.2-2.7-1.3c-0.4-1.1,0-2.2,1.2-2.8c0.4-0.2,0.9-0.4,1.3-0.6
		c6.8-2.9,11.6-7.4,13.1-14.9c0.7-3.7,1.5-7.3,2.1-11c0.5-3.1,0.8-6.3,1.2-9.6c-4.3-0.5-7.5-2.8-10.4-5.6c-1.2-1.1-2.2-2.3-3.3-3.5
		c-1.9-2.1-1.3-2.3-4-0.4c-5.2,3.6-10.7,6.7-16.8,8.7c-4.3,1.4-8.6,2-13.3,1.2c0.9,8.2,1.8,16.1,4.3,23.8c0.9,2.8,2.6,5.2,4.9,6.9
		c2.5,1.8,5.2,3.2,8,4.7c1.5,0.8,2.2,1.8,1.7,3c-0.5,1.3-1.7,1.7-3.4,1.1c-1.1-0.4-2.2-0.9-3.4-1.4c0,2.3-0.1,4.4,0,6.6
		c0.3,5.8,4.8,10.4,10.8,11c5.4,0.5,10.8-3.2,12-8.6C79.8,82.7,79.6,79.7,79.9,76.5z M66.2,5c-4.4,0-8.9,0.7-11.5,1.9
		c-8,3.7-12.7,10.2-14.4,18.7c-1.2,6.1,1,8.6,7.3,8.9c3.7,0.2,7.2-0.8,10.6-2.1c5.1-2,9.8-4.8,14.3-7.9c3.3-2.3,5.6-2,8.2,1
		c1.4,1.6,2.9,3.2,4.6,4.7c1.3,1.2,2.8,2.2,4.4,3c2.9,1.4,4.6,0.5,5.2-2.6c0.9-4.7-0.2-9.1-2.5-13.3c-2.3-4.3-5.9-6.5-10.9-6.4
		c-0.7,0-1.5-0.2-2-0.6C75.6,6.4,70.7,5.1,66.2,5z M16.6,144.8c0,0.1,0.1,0.2,0.1,0.3c7.6,0,15.2,0,22.8,0c0.8,0,1.7-0.4,2.3-0.9
		c3-2.5,6-5,8.9-7.6c2.2-2,4.8-3.1,7.8-3.7c4.5-0.9,9-2,13.1-4.1c1.7-0.8,2.8-2,3.5-3.7c1.9-4.5,2-9.1,0.4-13.8
		c-0.9-2.7-2.2-3.4-4.9-2.6c-2.9,0.8-5.7,1.9-8.4,3.2c-2.6,1.2-4.9,2.9-7.5,4.2c-0.7,0.3-1.8,0.4-2.4,0.1c-0.6-0.4-0.8-1.4-1-2.2
		c-0.1-0.5,0.2-1.1,0.1-1.6c-0.1-1.1-0.2-2.3-0.5-3.4c-0.1-0.4-0.6-0.8-1-0.8c-0.3,0-0.7,0.4-0.9,0.7c-0.4,0.7-0.7,1.4-0.9,2.1
		c-0.6,2.2-1.1,4.4-1.7,6.6c-1.7,5.9-4.6,11-10.1,14.3c-3.3,2-6.4,4.2-9.6,6.3C23.3,140.3,19.9,142.5,16.6,144.8z M124.2,134.3
		c-5.5,0-10.9,0-16.4,0c0.5,3.6,1,7.2,1.4,10.7c5.2,0,10.3,0,15.6,0C124.7,141.4,124.5,138,124.2,134.3z M41.3,51.8
		c-0.6-4.7-1.2-9.3-1.8-13.8c-3.2,0.7-5.4,3.9-5.1,7.5C34.7,49,37.7,51.7,41.3,51.8z M96.3,38c-0.6,4.6-1.2,9.2-1.8,13.8
		c3.7-0.1,6.5-2.8,6.9-6.5C101.8,42,99.5,38.8,96.3,38z M24.5,134.3c-4.5,0-8.6,0-12.8,0c-0.2,2.9-0.4,5.7-0.6,8.8
		C15.6,140.1,19.9,137.3,24.5,134.3z"/>
	<path class="st0" d="M122,29.7c0.3-3.2,0.5-6.1,0.7-9.1c0.2-3,0.4-6,0.7-9c0.1-0.7,0.5-1.4,0.8-2.1c0.2-0.4,0.4-0.9,0.4-1.3
		c0.2-1.1,0.2-2.1,0.4-3.2c0.4-2.6,2.4-4.3,5-4.3c2.7,0,5.3,0,8,0c3.1,0,5,2.3,5.2,5.4c0.6,10.3-1,20.4-1.6,30.7
		c-0.3,6-5,10.3-11,10.4c-4.5,0-8.9,0-13.4,0c-3.6,0-6.3-2.5-6.5-6.1c-0.1-1.8-0.1-3.7,0-5.5c0.3-3.4,3-5.8,6.4-5.9
		C118.7,29.7,120.3,29.7,122,29.7z M139.1,13.4c-3.9,0-7.6,0-11.4,0c-0.8,9.8-1.5,19.5-2.3,29.4c1.8,0,3.4,0,5,0
		c3.9,0,6.6-2.6,6.9-6.6c0.2-3.3,0.5-6.6,0.8-9.8C138.4,22.1,138.7,17.8,139.1,13.4z M121.7,34.1c-1.6,0-3,0-4.4,0
		c-1.3,0.1-2.1,0.8-2.1,2.1c-0.1,1.5-0.1,3,0,4.5c0,1.1,0.7,2,1.8,2.1c1.3,0.1,2.7,0,4.1,0C121.3,39.8,121.5,37,121.7,34.1z
		 M138.5,8.8c0.1-0.9,0.2-1.6,0.3-2.4c0.2-1.1-0.2-1.5-1.3-1.5c-1.6,0.1-3.2,0-4.8,0c-3.8,0-3.2-0.6-3.6,3.4c0,0.1,0.1,0.3,0.1,0.5
		C132.2,8.8,135.3,8.8,138.5,8.8z"/>
	<path class="st0" d="M120.8,72.7c0,6.1-5.9,10.3-11.8,8.6c-0.6-0.2-1.4-0.2-2,0c-3.6,1.1-7.5,0-9.7-3.1c-2.2-3-2.2-7.1,0-10.2
		c0.4-0.5,0.7-1.2,0.8-1.8c0.5-3.6,3.1-6.6,6.8-7.4c3.5-0.8,7.2,0.8,9.2,3.8c0.4,0.7,1.1,1.3,1.8,1.7
		C118.9,66.1,120.8,69.2,120.8,72.7z M116.4,72.6c0-2-1.2-3.9-3.1-4.4c-1.5-0.4-2.3-1.2-2.8-2.6c-0.7-1.9-2.8-2.8-4.8-2.4
		c-1.9,0.4-3.3,2.1-3.3,4c0,1.4-0.4,2.4-1.3,3.3c-1.4,1.4-1.3,3.7-0.2,5.2c1.2,1.6,3.3,2.2,5.1,1.2c1.4-0.8,2.5-0.7,3.9,0
		C113,78.4,116.5,76,116.4,72.6z"/>
	<path class="st0" d="M16.4,70.3c0-4.1,2.5-7.9,6.3-9.4c3.8-1.6,8.2-0.7,11.2,2.2c0.5,0.5,1.1,0.9,1.7,1.2c3.9,1.9,5.8,6.2,4.5,10.2
		c-1.3,4.1-5.4,6.5-9.7,5.8c-0.7-0.1-1.4-0.1-2.1,0C22.1,81.4,16.5,76.6,16.4,70.3z M20.8,70.3c0,3.8,3.5,6.5,7.2,5.7
		c0.9-0.2,2-0.2,2.9,0c2.2,0.5,4.3-0.6,5-2.7c0.7-2.1-0.3-4.2-2.3-5.2c-1-0.5-1.9-1.1-2.6-1.9c-1.7-1.7-4.3-2.4-6.5-1.4
		C22.2,65.8,20.8,67.9,20.8,70.3z"/>
	<path class="st0" d="M95.1,112c-4.7,0-8.5-3.7-8.5-8.4c0-4.7,3.8-8.5,8.5-8.5c4.7,0,8.5,3.9,8.4,8.6C103.6,108.3,99.8,112,95.1,112
		z M95.1,107.6c2.3,0,4.1-1.9,4.1-4.2c-0.1-2.2-1.9-4-4.1-4c-2.3,0-4.1,1.9-4,4.2C91.1,105.9,92.9,107.7,95.1,107.6z"/>
	<path class="st0" d="M68.2,64.4c-2,0-4,0-5.9,0c-2.5,0-3.3-1-2.8-3.4c0.8-3.6,2.5-6.5,6.2-7.7c5-1.6,9.8,1.5,11.1,7.1
		c0.1,0.4,0.2,0.8,0.2,1.1c0.3,1.7-0.6,2.8-2.3,2.9C72.5,64.4,70.4,64.4,68.2,64.4C68.2,64.4,68.2,64.4,68.2,64.4z M64.4,60
		c2.6,0,5,0,7.6,0c-0.7-1.6-1.7-2.5-3.4-2.7C66.7,57.1,65.5,57.9,64.4,60z"/>
	<path class="st0" d="M53.9,45.6c-0.2-0.1-0.3-0.2-0.5-0.3c-1.4-0.8-1.9-1.8-1.4-3c0.5-1.1,1.7-1.5,3.1-1c1.5,0.6,3.1,1.1,4.6,1.8
		c0.7,0.3,1.5,1.2,1.5,1.9c0,0.7-0.6,1.7-1.2,2.2C59.1,48,58,48.5,57,49.1c-1.6,1-2.7,1-3.5,0.1C52.7,48.3,52.8,47.2,53.9,45.6z"/>
	<path class="st0" d="M81.9,45.7c0.2,0.3,0.4,0.5,0.6,0.7c0.6,0.9,0.7,1.8,0,2.7c-0.7,0.9-1.7,1.1-2.7,0.5c-1.4-0.7-2.8-1.6-4.1-2.4
		C74,46,74.2,44,76,43.2c1.5-0.7,3.1-1.3,4.7-1.9c1.4-0.5,2.6-0.1,3.1,1c0.5,1.1,0,2.2-1.3,3C82.3,45.5,82.2,45.6,81.9,45.7z"/>
</g>
</svg>
