<?xml version="1.0" encoding="utf-8"?>
<!-- Generator: Adobe Illustrator 24.3.0, SVG Export Plug-In . SVG Version: 6.00 Build 0)  -->
<svg version="1.1" id="Layer_1" xmlns="http://www.w3.org/2000/svg" xmlns:xlink="http://www.w3.org/1999/xlink" x="0px" y="0px"
	 viewBox="0 0 150 150" style="enable-background:new 0 0 150 150;" xml:space="preserve">
<style type="text/css">
	.st0{fill:#005BAB;}
</style>
<g>
	<path class="st0" d="M75.6,0.9c1.7,0.4,3.5,0.6,5.2,1.1c2.8,0.7,5.2,2,7.3,3.9c0.3,0.3,1.1,0.4,1.6,0.3c3.7-1.2,7.6-1.6,11.4-1.1
		c5.4,0.7,9.5,3.6,12.6,8c3.7,5.1,5.3,10.9,5.5,17.1c0.3,6.9-1.2,13.5-3.5,20c-0.2,0.6-0.2,1.4,0.1,2c2.1,4,2,7.9-0.6,11.6
		c-2.6,3.7-6.3,5-10.8,4.3c-0.2,0-0.4-0.1-0.6-0.1c-0.1,0-0.2,0-0.4,0.1c-1.8,6-5.2,11-10.1,15c2.7,1.3,5.3,2.4,7.8,3.8
		c6.2,3.6,11.2,8.5,14.9,14.6c0.4,0.7,0.6,1.8,0.4,2.5c-0.1,0.5-1.1,1.2-1.7,1.2c-0.7,0-1.6-0.6-2.1-1.2c-2.2-2.6-4.2-5.6-6.6-8
		c-4.4-4.5-9.8-7.4-15.9-9.2c-0.8,4.6-3,8.3-6.7,10.8c2.2,2,4.3,4,6.5,6c0.4-0.2,0.9-0.6,1.4-0.9c3.9-2,8.5,0.5,9,4.8
		c0.3,3-0.7,5.7-2.2,8.2c-0.5,0.9-0.5,1.4,0.2,2.2c6.4,7.4,12.7,14.8,19,22.2c0.2,0.2,0.4,0.4,0.6,0.7c0.1-0.2,0.2-0.3,0.2-0.4
		c-0.1-6.9,0-13.8-0.3-20.7c-0.1-2.6-0.9-5.1-1.5-7.6c-0.4-1.8-0.1-2.9,1.3-3.3c1.3-0.4,2.3,0.3,2.9,2.1c1.3,4,2,8.1,2,12.2
		c0.1,7.8,0,15.5,0,23.3c0,2-0.8,2.8-2.7,2.8c-16,0-32,0-47.9,0c-1.8,0-2.8-1-2.7-2.4c0.1-1.2,1-1.9,2.6-1.9c6.1,0,12.2,0,18.2,0
		c0.4,0,0.9,0,1.5,0c-0.3-0.5-0.6-0.8-0.8-1.1c-3.9-4.6-7.8-9.2-11.7-13.8c-0.7-0.8-1.7-1.6-2.7-2c-4.4-2.1-8.4-4.8-11.1-9
		c-4.1-6.4-3.7-14.9,2.6-20.7c-4.4-2.6-7.1-6.4-7.9-11.5C42,90.5,29.3,110.9,32,131.4c5.4,0,10.7,0,16.3,0c0-2.2,0-4.4,0-6.6
		c0-1.1,0-2.2,0-3.3c0-1.4,0.9-2.4,2.2-2.4c1.2,0,2.2,1,2.2,2.4c0,3.2,0,6.4,0,9.6c0,4.5,0,9.1,0,13.7c2.9,0,5.7,0,8.5,0
		c0.5,0,1.1,0,1.6,0c1.2,0.1,1.9,0.9,2,2.1c0.1,1.1-0.8,2.1-2,2.2c-0.3,0-0.7,0-1,0c-10.4,0-20.8,0-31.1,0c-2.4,0-3.1-0.7-3.1-3.1
		c0-7.2,0-14.5,0-21.7c0-18.7,10.9-34.4,28.4-41c0.2-0.1,0.4-0.2,0.8-0.4c-5-4-8.4-9-10.3-15.2c-5.7,1-10.3-0.7-12.8-6.1
		c-2.1-4.6-0.9-8.8,2.6-12.4c-2.5-4.3-4.4-8.8-5.7-13.5c-1.1-4.4-1.8-8.8-1.7-13.3c0-1.8,1.1-2.7,2.8-2.3c5.3,1.1,9.8,0.1,13.7-3.9
		c0.9-0.9,1.8-1.7,2.8-2.6c1.1-1,2.4-1,3.2-0.1c0.9,0.9,0.9,2.2-0.2,3.2c-1.7,1.6-3.3,3.1-5.1,4.5c-3.1,2.6-6.8,3.7-10.9,3.6
		c-0.6,0-1.2,0-1.9,0c0.4,8,2.7,15.3,6.7,22.1c1.8-0.1,3.5-0.3,5.3-0.4c0-0.2,0.1-0.5,0.1-0.9c0.2-3.1,2.1-5.4,5.2-6
		c8.1-1.7,15.7-4.6,22.4-9.3c3.3-2.3,6.3-5.1,9.3-7.8c2.3-2.1,4.6-2.1,6.4,0.5c3.9,5.7,8,11.2,13,16.1c2.1,2,2.9,4.6,2.9,7.3
		c2.4,0.4,4.8,0.8,7.5,1.3c0.7-2.5,1.5-5.2,2.1-8c1.3-6.4,1.1-12.8-1.2-18.9c-0.2-0.4-0.3-0.8-0.5-1.2c-4.6-10.1-12.9-12.4-22.7-8.6
		c-2.4,0.9-2.6,0.9-4.1-1c-1.8-2.3-4.3-3.3-7.1-3.9c-7.2-1.6-13.9-0.5-19.8,4.2c-0.4,0.3-0.8,0.7-1.3,0.9c-1.1,0.7-2.3,0.5-3-0.4
		C53.8,9.7,54,8.4,55,7.5c3.9-3.2,8.3-5.7,13.4-6.4c0.3,0,0.5-0.2,0.8-0.3C71.3,0.9,73.5,0.9,75.6,0.9z M85.2,25.9
		c-1.3,1.2-2.6,2.5-3.9,3.6c-8.4,7.2-18.1,11.8-28.9,14.1c-2.2,0.5-2.6,0.9-2.6,3.3c0,3.1-0.1,6.2,0,9.3c0.1,2.7,0,5.4,0.4,8.1
		c2.3,12.5,14,21.5,26.5,20.5C90,83.7,100,73.1,100.2,59.9c0.1-4.4,0-8.8,0-13.2c0-2.1-0.8-3.8-2.2-5.3c-1.5-1.5-3-2.9-4.3-4.5
		C90.9,33.3,88.1,29.6,85.2,25.9z M115.4,144.8c-0.5-0.6-0.8-0.9-1-1.3c-6.9-8.1-13.8-16.1-20.7-24.2c-1.6-1.8-1.6-2.2-0.3-4.3
		c1.2-2,2.5-4.1,2.4-6.5c0-0.7-0.5-1.6-1.1-2c-0.4-0.3-1.4,0-2,0.3c-0.5,0.2-1,0.8-1.4,1.2c-2,2.1-3.1,1.9-4.5-0.5
		c-1.8-3.1-4.2-5.5-7.6-6.8c-5.7-2.1-10.7,0.6-12,6.5c-0.9,4,0.2,7.5,2.7,10.7c2.4,2.9,5.6,4.7,8.9,6.3c1.1,0.5,2.3,1.3,3.1,2.3
		c5,5.8,9.9,11.7,14.9,17.5c0.3,0.4,0.8,0.8,1.3,0.8C103.7,144.8,109.4,144.8,115.4,144.8z M48.3,136c-5.5,0-10.9,0-16.3,0
		c0,3,0,5.9,0,8.7c5.5,0,10.9,0,16.3,0C48.3,141.8,48.3,138.9,48.3,136z M64.7,87.3c0.7,4.8,5.7,8.5,11,8.2c4.6-0.2,9.3-4.2,9.6-8.2
		C78.4,89.8,71.6,89.8,64.7,87.3z M45.4,63.3c0-3.7-0.1-7.2,0-10.8c0-1.2-0.5-1.5-1.5-1.6c-2.5-0.2-5,1.2-6.2,3.5
		c-1.2,2.3-0.9,5,0.8,7C40.3,63.4,42.9,64.2,45.4,63.3z M104.6,63.7c1.4-0.1,2.7,0,4-0.3c3-0.9,4.9-4.1,4.3-7.1
		c-0.7-3.3-3.6-5.5-6.8-5.2c-0.7,0.1-1.5,0-1.5,1.1C104.6,55.8,104.6,59.5,104.6,63.7z"/>
	<path class="st0" d="M107.2,76.9c1.7,0.6,3.1,1.1,4.5,1.6c1.4,0.5,2.7,1.1,4.1,1.7c1.1,0.4,1.7,1.2,1.5,2.4c-0.2,1.2-1,1.9-2.2,1.8
		c-0.8,0-1.7-0.3-2.5-0.6c-1.1-0.4-2.1-1-3.1-1.6c-1.6-0.9-3.2-0.8-4.8,0.3c-1.3,0.9-2.6,0.7-3.3-0.4c-0.7-1-0.5-2.4,0.8-3.1
		C103.8,78.2,105.5,77.6,107.2,76.9z"/>
	<path class="st0" d="M49,80.5c0,2.2-1.9,3.3-3.3,2.3c-2-1.5-3.9-1.2-5.9-0.1c-1.3,0.7-2.7,1.3-4.1,1.7c-1.4,0.4-2.6-0.4-2.9-1.7
		c-0.3-1.2,0.6-2.1,2.1-2.6c1.6-0.6,3.2-1.4,4.7-2.1c2.9-1.3,5.7-0.8,8.2,1C48.4,79.4,48.7,80.2,49,80.5z"/>
	<path class="st0" d="M96.1,93.5c3.8,0.1,7.4,3.3,8,7c0.2,1.1-0.3,1.9-1.3,2.3c-1,0.5-1.9,0.1-2.6-0.7c-0.3-0.5-0.5-1-0.8-1.6
		c-0.7-1.7-1.9-2.6-3.7-2.8c-1.6-0.2-2.4-1.1-2.3-2.4C93.7,94.1,94.6,93.4,96.1,93.5z"/>
	<path class="st0" d="M55.2,93.5c2-0.1,2.9,0.6,3.1,1.9c0.1,1.3-0.6,2.3-2.1,2.4c-2,0.2-3.3,1.1-3.9,2.9c-0.6,1.9-2.2,2.7-3.3,2.1
		c-1.4-0.7-1.6-1.9-0.7-4C49.7,95.6,52.2,93.8,55.2,93.5z"/>
	<path class="st0" d="M75,63.7c3.6,0,6.8,3.7,6.4,7.3c-0.1,1.2-0.8,1.8-2,1.9c-1.2,0.1-2-0.6-2.3-1.8c-0.1-0.6-0.1-1.2-0.4-1.7
		c-0.4-0.6-1.1-1.3-1.7-1.3c-0.6,0-1.3,0.7-1.8,1.3c-0.3,0.4-0.2,1.1-0.4,1.7c-0.3,1.2-1,1.9-2.3,1.8c-1.2-0.1-1.8-0.8-2-1.9
		C68.2,67.4,71.4,63.7,75,63.7z"/>
	<path class="st0" d="M59.1,56.5c-1.4,0-2.2-0.5-2.5-1.6c-0.3-1.1,0.1-1.9,1-2.5c2-1.2,3.9-2.4,5.9-3.5c0.9-0.6,1.9-0.5,2.7,0.2
		c0.8,0.7,1.1,1.8,0.4,2.6C64.6,54.2,61.8,55.6,59.1,56.5z"/>
	<path class="st0" d="M85.1,48.3c0.8,0.5,1.4,0.8,2,1.1c1.6,0.9,3.1,1.9,4.7,2.8c1.4,0.7,2.1,1.7,1.6,2.9c-0.5,1.3-1.7,1.9-3.1,1.2
		c-2.2-1.1-4.3-2.4-6.3-3.9c-0.5-0.4-0.8-1.7-0.6-2.4C83.5,49.3,84.4,48.8,85.1,48.3z"/>
</g>
</svg>
