<?xml version="1.0" encoding="utf-8"?>
<!-- Generator: Adobe Illustrator 24.3.0, SVG Export Plug-In . SVG Version: 6.00 Build 0)  -->
<svg version="1.1" id="Layer_1" xmlns="http://www.w3.org/2000/svg" xmlns:xlink="http://www.w3.org/1999/xlink" x="0px" y="0px"
	 viewBox="0 0 150 150" style="enable-background:new 0 0 150 150;" xml:space="preserve">
<style type="text/css">
	.st0{fill:#CDEEFD;}
	.st1{fill:#111224;}
	.st2{fill:#005BAB;}
</style>
<path class="st0" d="M1465.3,1556.3c-2.4-0.2-4.3-1.3-4.4-4.1c-0.1-6.7,1.6-10,4.9-9.9c0.2,0,0.3,0,0.5,0c2.2,0.5,4.3,2.1,3.2,4
	C1467.7,1549.5,1473.1,1555.7,1465.3,1556.3z M1465.5,1554.4c1.3-0.1,2.3-0.6,2.3-2.1c-0.1-1.7-1.5-2.1-2.8-2.4c-1.6-0.4-2,0.8-2,2
	C1463,1553.5,1464,1554.2,1465.5,1554.4z M1467.8,1546.5c0-1.4-0.6-2.2-2.1-2.2c-0.9,0-1.6,0.4-1.7,1.4c-0.2,1.4,0.9,2.1,2,2.5
	C1467.3,1548.5,1467.6,1547.5,1467.8,1546.5z"/>
<path class="st0" d="M1455.8,1556.6c-0.5-2.9-1.8-4.2-4.6-3.6c-0.7,0.2-1.7,0.3-2.1-0.8c-0.4-1.1,0.1-1.5,1.2-2.1
	c2.1-1.2,2.1-3.9,3.2-5.8c0.6-1,1-2.2,2.5-1.9c1.4,0.3,0.9,1.6,0.8,2.5C1456.4,1548.6,1458.4,1552.5,1455.8,1556.6z"/>
<path class="st1" d="M1465.5,1554.4c-1.5-0.1-2.6-0.8-2.5-2.4c0-1.2,0.4-2.4,2-2c1.2,0.3,2.7,0.7,2.8,2.4
	C1467.8,1553.7,1466.8,1554.2,1465.5,1554.4z"/>
<path class="st1" d="M1467.8,1546.5c-0.2,1-0.5,2.1-1.8,1.7c-1.1-0.4-2.1-1-2-2.5c0.1-1,0.8-1.4,1.7-1.4
	C1467.2,1544.3,1467.8,1545,1467.8,1546.5z"/>
<g>
	<path class="st2" d="M115.2,82.8c-1,1.1-1.7,2-2.5,2.7c-5.4,5.5-10.9,10.9-16.3,16.4c-0.5,0.5-1,1.1-1.1,1.7c-2,13.2-1.2,26,5,38.2
		c0.9,1.8,2.1,3.5,3.2,5.1c0.5,0.7,0.9,1.6,0,2.1c-0.4,0.2-1.5-0.2-1.9-0.6c-4.2-5.4-6.6-11.5-8.2-18c-2.9-12.8-1.7-25.4,1.8-37.9
		c1.6-5.5,3.7-10.9,5.2-16.5c3.3-13.2,2.6-26.1-3.4-38.5c-0.4-0.7-0.8-1.4-1.2-2.3c-0.7,0.8-1.3,1.5-1.7,2c1.4,4.4,3.2,8.7,4.2,13.2
		c2.6,11.4,1.2,22.6-2.5,33.5c-1.7,5.1-4.1,10-5.7,15.2c-5,16-4,31.9,2.2,47.4c0.1,0.3,0.4,0.6,0.4,0.9c-0.1,0.6-0.4,1.1-0.5,1.7
		c-0.5-0.2-1.1-0.4-1.6-0.7c-0.3-0.2-0.4-0.8-0.5-1.2c-7-18.1-7.5-36.2-0.3-54.3c2.7-6.8,5.4-13.5,6.5-20.7c1.7-10.6,0.9-21-3.4-31
		c-0.3-0.7-0.6-1.4-1-2.1c-0.8,0.8-1.4,1.5-2.2,2.3c4.2,7.8,5.1,16.4,4.3,25.3c-0.7,8.2-3,16.1-6.3,23.6
		c-4.5,10.1-6.8,20.7-6.3,31.8c0.4,8.5,2.1,16.7,5.3,24.5c0.1,0.3,0.4,0.6,0.4,0.9c-0.1,0.6-0.4,1.1-0.6,1.6
		c-0.5-0.2-1.2-0.3-1.5-0.7c-0.5-0.9-0.9-1.9-1.3-2.8c-3.5-9.4-5.1-19.2-4.7-29.2c0-0.5,0-1.1,0-1.9c-5,2.6-10.4,3.9-14.4,8
		c-6.1,6.3-12.4,12.4-18.6,18.7c-0.4,0.4-0.7,0.8-1.1,1c-0.4,0.1-1.2,0.1-1.4-0.1c-0.3-0.3-0.3-1-0.2-1.4c0.1-0.4,0.6-0.7,1-1.1
		c6-6,12-11.9,17.9-18c2.5-2.6,5.4-4.6,8.7-6c2.5-1,4.9-2.1,7.3-3.3c0.5-0.3,1.1-0.9,1.2-1.5c0.9-7.4,3.1-14.5,6.1-21.3
		c3.5-8,5.8-16.4,6.2-25.1c0.4-7.3-0.6-14.4-4-21.6c-0.8,1-1.3,1.8-2,2.4c-0.4,0.3-1.1,0.2-1.7,0.2c0-0.6-0.1-1.3,0.1-1.9
		c0.1-0.4,0.6-0.6,0.9-1c9.2-9.2,18.4-18.5,27.7-27.7c1.6-1.6,2.6-3.4,2.4-5.7c-0.2-2.8-1.6-4.8-4.3-5.9c-2.6-1-4.9-0.5-7,1.3
		c-0.5,0.4-0.9,0.8-1.3,1.3C87.3,21,72.4,35.9,57.4,50.9c-0.6,0.6-1.3,1.2-1.7,1.6c1.5,3.6,3.1,7.2,4.2,10.8
		c0.7,2.2,0.7,4.7,0.9,7.1c0,0.5-0.7,1-1.1,1.5c-0.4-0.5-1.1-1-1.1-1.5c0-5.8-2.2-11-5-15.9c-1.4-2.4-2.9-4.7-4.6-7
		c-0.9-1.2-0.9-2,0-3.2c4.3-5.8,8.6-11.7,12.9-17.6c3-4.2,0.6-9.6-4.4-10c-2.2-0.2-4,0.6-5.3,2.3C46.4,26.5,40.6,33.8,35,41.3
		c-1,1.4-1.8,3.2-1.9,5c-0.8,9.4-1.4,18.7-2,28.1c-0.3,5.1-2.1,9.4-5.7,13c-5.7,5.7-11.4,11.4-17,17c-0.6,0.6-1.3,1.5-2.2,0.6
		c-1-0.9-0.2-1.6,0.5-2.3c5.5-5.5,10.9-11,16.5-16.4c3.6-3.5,5.3-7.7,5.6-12.7c0.6-9.1,1.3-18.2,1.9-27.3c0.2-2.5,1.1-4.8,2.6-6.8
		C38.8,32.3,44.4,25,50,17.9c3.1-4,8.2-4.7,12.1-1.9c3.9,2.9,4.6,8.1,1.7,12.2c-4,5.5-7.9,11-12,16.4c-0.8,1-0.8,1.7,0,2.7
		c0.8,1,1.5,2.1,2.7,3.8c0.4-0.7,0.6-1.3,1.1-1.7C70.8,34.1,86,18.8,101.3,3.6c5.1-5.1,13.2-3.4,15.4,3.2c0.3,1,0.5,2,0.8,3.4
		c1.6-1.6,2.9-3.2,4.4-4.6c2.7-2.6,6-3.4,9.5-2.1c3.6,1.3,5.5,4,6,7.7c0.3,2.7-0.6,5.1-2.6,7.4c0.8,0.1,1.3,0.1,1.9,0.3
		c3.5,0.8,5.9,2.8,7,6.2c1.1,3.4,0.4,6.5-2,9.1c-3,3.1-6,6-9,9.1c-0.4,0.4-0.7,0.8-1.2,1.3c0.8,0.1,1.5,0.2,2.1,0.3
		c7.1,1.6,9.7,9.9,4.7,15.3c-3.8,4-7.8,7.9-11.8,11.8c-1,0.9-1.2,1.8-1,3c1.7,8.6,3.4,17.1,5,25.7c1.9,10.2,2.5,20.4,0.9,30.6
		c-0.1,0.9-0.4,1.8-1.4,1.5c-0.4-0.1-1-1.1-0.9-1.7c2.1-13.6,0.1-26.9-3-40.1c-1.1-4.7-1.8-9.5-2.8-14.5c-0.2,0.5-0.3,0.9-0.4,1.2
		c-1.1,3.9-2.3,7.8-3.2,11.7c-0.3,1.3-0.4,2.8-0.2,4.1c2.2,10.8,3.4,21.7,2.4,32.7c-0.7,7.4-2.1,14.6-5.3,21.3
		c-0.4,0.9-0.7,2.5-2.2,1.7c-1.4-0.7-0.4-1.8,0-2.7c3.1-6.7,4.5-13.8,5-21.1c0.8-9.7,0-19.3-2.1-28.9c-0.7,2-1.4,3.9-2,5.8
		c-3,9.5-4.4,19.4-4.9,29.3c-0.1,1.5-0.1,3-0.2,4.4c0,0.8-0.3,1.7-1.2,1.5c-0.5-0.1-1.1-1-1.1-1.6c0.2-4.1,0.4-8.3,0.8-12.4
		c0.9-10.4,3.6-20.4,7.1-30.2c0.6-1.6,0.7-3.1,0.3-4.8C115.7,86.9,115.5,85.2,115.2,82.8z M96.1,98.1c0.2,0.1,0.4,0.2,0.5,0.2
		c5.9-5.9,11.8-11.8,17.7-17.8c0.3-0.3,0.4-1.1,0.4-1.6c-0.2-2.4-0.5-4.8-0.7-7.2c-0.3-2.9-0.5-5.8-0.8-9.2c-1.8,1.9-3.4,3.4-4.9,5
		c-0.6,0.6-1.5,1.1-2,0.2c-0.3-0.4,0-1.5,0.4-1.9c1.8-1.9,3.7-3.7,5.5-5.6c0.5-0.6,0.9-1.5,0.9-2.2c0-5.4-0.1-10.8-0.3-16.2
		c0-0.3-0.1-0.5-0.2-1.1c-1.9,2-3.6,3.8-5.5,5.5c-0.4,0.3-1.2,0.1-1.9,0.2c0-0.6,0-1.3,0.2-1.9c0.1-0.4,0.6-0.6,0.9-0.9
		c8.9-8.9,17.8-17.8,26.6-26.6c2.9-2.9,3-7.1,0.3-9.8c-2.7-2.7-6.8-2.6-9.7,0.2c-8.4,8.4-16.8,16.8-25.2,25.1
		c-0.7,0.7-0.8,1.1-0.3,1.9c4.5,7.7,6.5,16,6.8,24.8c0.3,9.3-1.8,18.2-5,26.8C98.4,90,97.3,94.1,96.1,98.1z M119.7,34
		c-0.2-0.2-0.3-0.3-0.5-0.5c-0.5,0.7-0.9,1.5-1.6,2c-2,1.6-2.7,3.5-2.6,6.1c0.5,10.3,0.8,20.6,1.3,30.9c0.2,4.2,1,8.4,1.5,12.6
		c0.1,0,0.3,0,0.4,0c1.1-4.3,2.3-8.5,3.2-12.8c0.5-2,0.6-4.2,0.5-6.3c-0.2-4.3-0.9-8.6-1.2-12.9C120.4,46.8,120.1,40.4,119.7,34z
		 M128.8,42.9c3.9-3.7,8-7.4,11.8-11.4c2-2.1,1.8-5.5,0-7.9c-1.8-2.4-5-3.5-7.7-2.3c-1.5,0.7-2.9,1.8-3.9,3.1
		c-0.5,0.7-0.2,2.1-0.2,3.3C128.8,32.9,128.8,38,128.8,42.9z M124.8,69.7c4.3-4.2,8.4-8,12.3-12c2.1-2.2,1.9-5.6,0.2-8
		c-1.7-2.4-4.9-3.3-7.8-2.3c-0.9,0.3-1.3,0.8-1.4,1.7c-0.5,4.3-1.2,8.5-1.9,12.8C125.8,64.3,125.3,66.9,124.8,69.7z M126.3,27.5
		c-0.2-0.1-0.4-0.2-0.6-0.3c-0.7,0.8-1.2,1.7-2,2.3c-1.2,1-1.6,2.1-1.5,3.7c0.3,5.2,0.5,10.5,0.8,15.7c0.2,3.6,0.6,7.2,0.9,10.8
		C125.9,49,126.9,38.3,126.3,27.5z"/>
	<path class="st2" d="M127.5,117.2c-0.3,4.5-0.5,7.9-0.9,11.4c0,0.5-0.8,1-1.2,1.4c-0.4-0.6-0.8-1.1-1.1-1.7c0-0.1,0-0.2,0-0.3
		c0.1-5.5,0.6-11,0.2-16.5c-0.4-5.9-1.5-11.7-2.4-17.5c0-0.3-0.2-0.6-0.2-0.8c0.2-0.6,0.6-1.2,0.9-1.8c0.5,0.4,1.2,0.8,1.4,1.3
		c0.6,2.5,1.2,5.1,1.5,7.7C126.4,106.3,127,112.2,127.5,117.2z"/>
	<path class="st2" d="M124.7,149.4c-1.2-0.2-1.6-0.9-1.2-1.8c1.1-2.7,2.3-5.3,3.5-7.9c0.2-0.4,0.9-0.5,1.4-0.8
		c0.3,0.5,0.9,1.2,0.7,1.5c-1.1,2.7-2.2,5.4-3.5,8.1C125.5,148.9,125,149.2,124.7,149.4z"/>
</g>
</svg>
