<?xml version="1.0" encoding="utf-8"?>
<!-- Generator: Adobe Illustrator 24.3.0, SVG Export Plug-In . SVG Version: 6.00 Build 0)  -->
<svg version="1.1" id="Layer_1" xmlns="http://www.w3.org/2000/svg" xmlns:xlink="http://www.w3.org/1999/xlink" x="0px" y="0px"
	 viewBox="0 0 150 150" style="enable-background:new 0 0 150 150;" xml:space="preserve">
<style type="text/css">
	.st0{fill:#CDEEFD;}
	.st1{fill:#111224;}
	.st2{fill:#005BAB;}
</style>
<path class="st0" d="M1465.3,1556.3c-2.4-0.2-4.3-1.3-4.4-4.1c-0.1-6.7,1.6-10,4.9-9.9c0.2,0,0.3,0,0.5,0c2.2,0.5,4.3,2.1,3.2,4
	C1467.7,1549.5,1473.1,1555.7,1465.3,1556.3z M1465.5,1554.4c1.3-0.1,2.3-0.6,2.3-2.1c-0.1-1.7-1.5-2.1-2.8-2.4c-1.6-0.4-2,0.8-2,2
	C1463,1553.5,1464,1554.2,1465.5,1554.4z M1467.8,1546.5c0-1.4-0.6-2.2-2.1-2.2c-0.9,0-1.6,0.4-1.7,1.4c-0.2,1.4,0.9,2.1,2,2.5
	C1467.3,1548.5,1467.6,1547.5,1467.8,1546.5z"/>
<path class="st0" d="M1455.8,1556.6c-0.5-2.9-1.8-4.2-4.6-3.6c-0.7,0.2-1.7,0.3-2.1-0.8c-0.4-1.1,0.1-1.5,1.2-2.1
	c2.1-1.2,2.1-3.9,3.2-5.8c0.6-1,1-2.2,2.5-1.9c1.4,0.3,0.9,1.6,0.8,2.5C1456.4,1548.6,1458.4,1552.5,1455.8,1556.6z"/>
<path class="st1" d="M1465.5,1554.4c-1.5-0.1-2.6-0.8-2.5-2.4c0-1.2,0.4-2.4,2-2c1.2,0.3,2.7,0.7,2.8,2.4
	C1467.8,1553.7,1466.8,1554.2,1465.5,1554.4z"/>
<path class="st1" d="M1467.8,1546.5c-0.2,1-0.5,2.1-1.8,1.7c-1.1-0.4-2.1-1-2-2.5c0.1-1,0.8-1.4,1.7-1.4
	C1467.2,1544.3,1467.8,1545,1467.8,1546.5z"/>
<polygon class="st2" points="1346.8,29.4 1346.9,29.6 1346.6,29.6 "/>
<g>
	<path class="st2" d="M0.5,48.5c0.6-2.9,0.9-5.8,1.8-8.7c3.4-11.6,10.3-20.3,21.3-25.5c0.5-0.2,1-0.5,1.5-0.6c1.8-0.7,3.4,0,4,1.6
		c0.6,1.5-0.1,2.9-1.7,3.8c-2.7,1.5-5.7,2.8-8.1,4.8C9.4,32,5.6,42.8,6.5,55.3c0.7,9.7,5.3,17.6,11.2,25c0.3,0.4,1,0.5,1.5,0.5
		c4,0,8.1,0,12.1,0.1c1.1,0,1.5-0.4,1.7-1.4c2.7-10,5.5-20,8.2-30c0.1-0.4,0.2-0.8,0.3-1.1c0.5-1.6,1.5-2.4,2.8-2.5
		c1.4,0,2.4,0.8,2.9,2.4c2.5,7.5,5.1,15.1,7.5,22.6c0.3,0.9,0.7,1.3,1.7,1.3c4.3-0.1,8.6,0,12.9,0c2.8,0,3.4,0.4,4.3,3.1
		c1.7,5,3.3,9.9,5,14.9c0.2,0.5,0.3,0.9,0.6,1.7c0.3-0.7,0.5-1.1,0.6-1.5c4.6-13.7,9.1-27.4,13.7-41.1c0.8-2.4,1.7-3.3,3.3-3.3
		c1.6,0.1,2.4,1,3.1,3.5c2.7,10,5.5,20,8.2,30c0.3,1.2,0.8,1.5,2,1.5c6.8-0.1,13.7,0,20.5,0c0.9,0,1.4-0.2,1.9-0.9
		c4.8-6.1,8.8-12.7,10.3-20.5c3.1-15.5-3.7-32.5-18.3-39.6c-12-5.8-25.1-3.6-34.9,5.8C84.4,30.9,80.7,37,78.2,44
		c-0.1,0.2-0.2,0.5-0.2,0.7c-0.6,1.8-1.5,2.6-2.9,2.6c-1.4,0-2.3-0.8-3-2.5c-2.6-7.1-6.3-13.6-11.7-19.1c-2.7-2.7-5.8-4.9-9.4-6.6
		c-1.3-0.6-2-1.6-1.8-3c0.2-1.3,1-2.3,2.3-2.5c0.8-0.1,1.7,0.1,2.5,0.5c7.9,3.7,13.6,9.8,18.1,17.2c1,1.6,1.9,3.4,3,5.2
		c0.4-0.7,0.7-1.4,1.1-2c4.1-7.7,9.4-14.3,16.9-18.8c14.7-8.8,34.3-5.5,45.9,7.8c12.2,14,14,33.7,4.6,50.5c-1.3,2.2-2.7,4.4-4.1,6.7
		c0.5,0,0.9,0.1,1.3,0.1c1.7,0,3.4,0,5.1,0c2.3,0,3.7,1.1,3.7,3c0,1.8-1.4,2.9-3.6,2.9c-3.3,0-6.6,0-9.9,0c-1,0-1.6,0.3-2.2,1
		c-8.5,9.6-18.2,17.9-27.9,26.2c-9.4,8-18.8,16-28.1,24c-2.1,1.8-3.2,1.8-5.3,0c-13-11.1-26.1-22.1-39-33.5
		c-6-5.3-11.5-11.2-17.2-16.7c-0.5-0.5-1.3-0.9-1.9-0.9c-3.2-0.1-6.5-0.1-9.7,0c-1.8,0.1-3.1-0.5-4-2.1c0-0.6,0-1.2,0-1.7
		c0.9-1.6,2.2-2.2,4-2.1c2,0.1,4,0,6.2,0c-0.4-0.6-0.7-1.1-1-1.5c-3.3-4.9-6.1-10-7.6-15.8C1.4,61,1,58.4,0.5,55.8
		C0.5,53.3,0.5,50.9,0.5,48.5z M96.7,59.4c-0.1,0-0.2,0-0.3,0c-0.2,0.4-0.3,0.9-0.5,1.3C91.5,74.1,87,87.6,82.5,101
		c-0.7,2.2-1.6,3.1-3.1,3.1c-1.5,0-2.4-0.9-3.2-3.2c-2.4-7.3-4.9-14.5-7.2-21.8c-0.3-1-0.7-1.3-1.7-1.2c-4.5,0.1-8.9,0-13.4,0
		c-2.2,0-3-0.6-3.6-2.6c-1.6-4.9-3.3-9.7-4.9-14.6c-0.2-0.5-0.3-0.9-0.6-1.7c-0.3,0.8-0.4,1.2-0.5,1.6c-2.1,7.5-4.1,15.1-6.2,22.6
		c-0.8,3-1.4,3.4-4.6,3.4c-3.3,0-6.5,0-9.8,0c15.9,16.7,34.2,30.4,51.4,45.8c17.2-15.3,35.5-29.1,51.8-45.8c-0.9,0-1.4,0-1.9,0
		c-6,0-12,0-18,0c-2,0-2.9-0.7-3.5-2.6c-0.7-2.4-1.3-4.9-2-7.3C99.9,71,98.3,65.2,96.7,59.4z"/>
	<path class="st2" d="M42.1,13.8c0,1.6-1.4,2.9-3,2.8c-1.5-0.1-2.8-1.4-2.8-3c0-1.6,1.4-2.9,3-2.8C40.9,10.9,42.1,12.3,42.1,13.8z"
		/>
</g>
</svg>
