<?xml version="1.0" encoding="utf-8"?>
<!-- Generator: Adobe Illustrator 24.3.0, SVG Export Plug-In . SVG Version: 6.00 Build 0)  -->
<svg version="1.1" id="Layer_1" xmlns="http://www.w3.org/2000/svg" xmlns:xlink="http://www.w3.org/1999/xlink" x="0px" y="0px"
	 viewBox="0 0 150 150" style="enable-background:new 0 0 150 150;" xml:space="preserve">
<style type="text/css">
	.st0{fill:#CDEEFD;}
	.st1{fill:#111224;}
	.st2{fill:#005BAB;}
</style>
<path class="st0" d="M1465.3,1556.3c-2.4-0.2-4.3-1.3-4.4-4.1c-0.1-6.7,1.6-10,4.9-9.9c0.2,0,0.3,0,0.5,0c2.2,0.5,4.3,2.1,3.2,4
	C1467.7,1549.5,1473.1,1555.7,1465.3,1556.3z M1465.5,1554.4c1.3-0.1,2.3-0.6,2.3-2.1c-0.1-1.7-1.5-2.1-2.8-2.4c-1.6-0.4-2,0.8-2,2
	C1463,1553.5,1464,1554.2,1465.5,1554.4z M1467.8,1546.5c0-1.4-0.6-2.2-2.1-2.2c-0.9,0-1.6,0.4-1.7,1.4c-0.2,1.4,0.9,2.1,2,2.5
	C1467.3,1548.5,1467.6,1547.5,1467.8,1546.5z"/>
<path class="st0" d="M1455.8,1556.6c-0.5-2.9-1.8-4.2-4.6-3.6c-0.7,0.2-1.7,0.3-2.1-0.8c-0.4-1.1,0.1-1.5,1.2-2.1
	c2.1-1.2,2.1-3.9,3.2-5.8c0.6-1,1-2.2,2.5-1.9c1.4,0.3,0.9,1.6,0.8,2.5C1456.4,1548.6,1458.4,1552.5,1455.8,1556.6z"/>
<path class="st1" d="M1465.5,1554.4c-1.5-0.1-2.6-0.8-2.5-2.4c0-1.2,0.4-2.4,2-2c1.2,0.3,2.7,0.7,2.8,2.4
	C1467.8,1553.7,1466.8,1554.2,1465.5,1554.4z"/>
<path class="st1" d="M1467.8,1546.5c-0.2,1-0.5,2.1-1.8,1.7c-1.1-0.4-2.1-1-2-2.5c0.1-1,0.8-1.4,1.7-1.4
	C1467.2,1544.3,1467.8,1545,1467.8,1546.5z"/>
<polygon class="st2" points="1346.8,29.4 1346.9,29.6 1346.6,29.6 "/>
<g>
	<path class="st2" d="M73.4,110.3c0.3,1,0.4,1.7,0.6,2.4c1.1,4.2-0.4,8.4-4,10.9c-3.5,2.4-8.2,2.4-11.6-0.1
		c-3.6-2.5-5.2-6.8-3.8-10.9c0.9-2.9,2.2-5.7,3.4-8.6c-2-1.3-4-2.6-6-3.9c-6.5-4.2-13-8.5-19.5-12.7C25,82.7,17.5,78,10.1,73.2
		c-2.2-1.4-4.3-2.8-6.3-4.3c-2.5-1.8-3.4-4.4-3-7.4c0.4-3,2.1-5.2,5-6.3c0.9-0.3,1.9-0.5,3.1-0.8c-1-0.7-1.8-1.3-2.6-1.8
		C3,50.5,1.6,47.3,2.4,44c0.6-2.8,3.1-6,7.1-6.2c0.2,0,0.4-0.2,1-0.4c-2.9-1.7-5.5-3.6-5.5-7c0-1.8,0.3-3.9,1.2-5.4
		c2.3-4,6.2-4.3,12.6-1.5c0-0.5,0-1-0.1-1.4c-0.7-3.4,0.3-6.3,3.1-8.3c2.9-2.1,6.1-2.1,9.1-0.2c5.7,3.6,11.4,7.3,17.1,11
		C57,30.3,65.9,36,74.8,41.7c0.5,0.3,1,0.6,2,1.2c-0.7-2.1-1.3-3.6-1.9-5.2c-2.1-6.3,1.6-12.5,8.2-13.5c4.5-0.7,8.9,2,10.7,6.6
		c2.9,7.4,5.7,14.8,8.5,22.2c1.4,3.6,2.5,7.4,4.1,10.9c2.8,6.1,7.4,10.6,13,14.2c7.6,4.8,15.1,9.7,22.7,14.6
		c1.7,1.1,3.5,2.2,5.2,3.4c2.4,1.6,2.4,1.9,0.9,4.3c-6.3,9.8-12.6,19.6-18.9,29.4c-1.3,2.1-2.7,4.2-4,6.3c-1.5,2.2-1.9,2.3-4.2,0.9
		c-10.8-7-21.7-13.9-32.5-21C84.1,113,79.2,111.1,73.4,110.3z M145.1,99c-0.2-0.3-0.2-0.5-0.4-0.6c-6.9-4.4-13.8-8.8-20.7-13.2
		c-3.8-2.5-7.8-4.7-11.3-7.6c-5.1-4.2-8.7-9.5-11-15.9c-3.5-9.9-7.3-19.7-11.1-29.4c-1.5-4-5.2-5.7-8.7-4.4
		c-3.7,1.4-5.3,5.1-3.8,9.2c0.9,2.6,2,5.1,2.9,7.6c0.4,1.2,1.7,2.7,0.2,3.8c-1.4,1.1-2.6-0.3-3.7-1C61.8,37.4,46.1,27.2,30.3,17.1
		c-3.4-2.2-5.9-1.9-7.6,0.6c-1.7,2.5-0.8,5,2.5,7.1c11.3,7.3,22.7,14.6,34,21.9c0.6,0.4,1.2,0.7,1.6,1.1c1.1,1,1.3,2.3,0.6,3.6
		c-0.7,1.3-2,1.8-3.4,1.3c-0.8-0.3-1.6-0.8-2.4-1.3c-12-7.7-23.9-15.4-35.9-23.1c-1.7-1.1-3.3-2.2-5.1-3.1c-2.2-1.1-4.6-0.4-5.9,1.6
		c-1.3,2-0.9,4.4,1,6c0.8,0.6,1.6,1.1,2.5,1.7c12.7,8.2,25.4,16.3,38.2,24.5c0.7,0.4,1.4,0.9,2,1.4c1.3,1,1.3,2.5,0.7,3.8
		c-0.7,1.5-2.1,1.6-3.4,1.2c-1.1-0.4-2.2-1.2-3.2-1.8c-11.2-7.2-22.4-14.4-33.6-21.6c-2.6-1.7-5.3-1.2-6.8,1c-1.6,2.4-0.9,5,1.8,6.8
		c10.7,6.9,21.4,13.7,32.2,20.5c1.3,0.8,2.6,1.5,3.7,2.4c1.5,1.2,1.7,3.2,0.7,4.6c-0.9,1.3-2.2,1.4-4.1,0.3c-2-1.2-4-2.3-5.9-3.6
		c-7.7-5-15.4-10-23.1-15c-2.8-1.8-5.4-1.3-7,1.1c-1.4,2.3-0.8,4.8,1.8,6.6c3.3,2.2,6.6,4.4,9.9,6.5c6.1,3.9,12.3,7.7,18.4,11.6
		c7.8,5.1,15.6,10.2,23.4,15.3c0.5,0.3,1,0.5,1.5,0.8c0.9-1.5,1.6-2.8,2.5-4.2c1.3-2,2.5-2,3.7,0c1.4,2.3,2.9,4.6,4,7.1
		c0.9,1.9,2.1,2.7,4.1,3c7,1.1,13.2,4,19.1,7.9c7.4,5,15,9.7,22.5,14.5c2.3,1.5,4.5,2.9,7,4.5C130.3,122.1,137.7,110.5,145.1,99z
		 M68.2,120.2c-0.8,0.2-1.5,0.5-2.3,0.7c-3.2,0.7-6.9-1.8-7.2-4.9c-0.1-0.7,0.4-1.8,1-2.2c0.9-0.5,1.7,0,2.1,1.1
		c0.1,0.2,0.1,0.5,0.3,0.7c1,2.1,2.8,2.6,4.7,1.3c2.2-1.4,2.3-1.4,4.1,0.5c0.5-6.6-3.6-11.4-6.7-16.8c-2.4,4.2-4.5,8.4-6.3,12.7
		c-1.2,2.9,0.1,5.9,2.6,7.6C63,122.6,65.9,122.5,68.2,120.2z"/>
	<path class="st2" d="M78.4,136.5c-4.5-0.1-8.2-4.2-6.8-8.5c1.3-3.9,3.5-7.6,5.5-11.3c0.7-1.3,2.2-1.3,3,0.2c1.9,3.5,4,7.1,5.3,10.8
		C86.9,132.2,83.2,136.6,78.4,136.5z M81.9,130.6c0.2-0.5,0.5-1.1,0.4-1.6c-0.8-2.8-2-5.4-4-8.2c-1.2,2.6-2.4,4.8-3.3,7
		c-0.9,2.2,0,4.2,2.1,5.1C79.1,133.7,80.9,132.9,81.9,130.6C82,130.5,81.9,130.6,81.9,130.6z"/>
	<path class="st2" d="M86.3,81.4c-3.1,0.7-3.2,0.9-2.6,3.5c0.2,1,0.7,2,0.6,2.9c-0.1,0.7-0.7,1.6-1.4,1.9c-0.3,0.2-1.5-0.6-1.7-1.2
		c-0.6-1.3-0.8-2.8-1.1-4.4c-1.4,0.4-2.6,0.7-3.9,1c0.3,1.3,0.7,2.5,0.9,3.7c0.2,1.1,0.4,2.2-1.1,2.5c-1.4,0.3-1.9-0.7-2.2-1.8
		c-0.3-1.2-0.6-2.4-1-3.9c-1.2,0.2-2.3,0.4-3.6,0.7c0.3,0.8,0.5,1.4,0.6,2.1c0.4,1.2,0.6,2.4-0.9,2.8c-1.3,0.4-1.9-0.6-2.2-1.7
		c-0.3-1-0.7-2-1-3.1c-1.4-0.1-2.8,0-4-0.2c-0.8-0.2-1.8-0.7-2.1-1.3c-0.2-0.4,0.5-1.4,0.8-2.1c0.1-0.2,0.3-0.4,0.5-0.5
		c2.2-1.4,2.8-3.2,1.5-5.6c-0.2-0.3-0.4-0.9-0.2-1.2c0.3-0.7,0.6-1.7,1.2-1.9c0.5-0.2,1.5,0.4,1.9,0.9c0.6,0.9,0.9,2,1.5,3.2
		c1.3-0.6,2.5-1.2,3.7-1.8c-0.6-2.6-1.3-5.1-1.8-7.5c-0.3-1.1,0.2-1.9,1.3-1.9c0.6,0,1.4,0.6,1.8,1.2c0.3,0.4,0.3,1.1,0.5,1.6
		c0.5,1.6,1.1,3.2,1.6,5c0.7-0.2,1.1-0.2,1.6-0.4c2.4-0.8,2.5-0.9,1.9-3.3c-0.3-1.1-0.4-2.3-0.7-3.4c-0.3-1.2-0.3-2.3,1.1-2.6
		c1.5-0.4,1.9,0.8,2.2,2c0.4,1.8,0.9,3.5,1.4,5.4c1.2-0.1,2.2-0.3,3.3-0.4c0-1.4-0.1-2.6,0.1-3.8c0.1-0.7,0.8-1.2,1.2-1.9
		c0.7,0.5,1.9,1,1.9,1.4c-0.2,4.2,2.4,4.3,5.4,4.2c0.8,0,1.9,0.5,2.2,1.1c0.6,1.1-0.1,2-1,2.7c-1.5,1.2-3,2.5-4.8,4
		c0.1,0.7,0.2,1.7,0.3,2.6c0.1,1.1,0,2.3-1.5,2.4c-1.4,0.1-1.8-0.8-1.8-2.1C86.5,82,86.3,81.7,86.3,81.4z M74.1,77.8
		c0.4,1.5,0.7,2.6,1.2,4.1c1.4-0.6,2.5-1,3.7-1.5c-0.3-1.2-0.5-2.2-0.8-3.5C76.9,77.1,75.7,77.4,74.1,77.8z M71.8,82.1
		c-0.3-1-0.5-1.8-0.8-2.8c-1.1,0.7-2.1,1.2-2.9,1.9c-0.2,0.2-0.4,0.8-0.2,1c0.1,0.3,0.6,0.6,0.9,0.6C69.7,82.7,70.6,82.4,71.8,82.1z
		 M85.2,75.3c-1.2,0.1-2.2,0.3-3.5,0.4c0.3,1.3,0.5,2.2,0.8,3.4C84,78.1,86.2,78.1,85.2,75.3z"/>
	<path class="st2" d="M82,130.5c-1.1,1.1-2.2,1.9-3.9,1.6c-1.6-0.3-2.5-1.2-2.6-2.8c0-0.5,0.3-1.4,0.7-1.6c0.4-0.3,1.2,0,1.8,0.1
		c0.6,0.1,1.1,0.7,1.6,0.6C81.4,128,81.9,129,82,130.5L82,130.5z"/>
</g>
</svg>
