<?xml version="1.0" encoding="utf-8"?>
<!-- Generator: Adobe Illustrator 24.3.0, SVG Export Plug-In . SVG Version: 6.00 Build 0)  -->
<svg version="1.1" id="Layer_1" xmlns="http://www.w3.org/2000/svg" xmlns:xlink="http://www.w3.org/1999/xlink" x="0px" y="0px"
	 viewBox="0 0 150 150" style="enable-background:new 0 0 150 150;" xml:space="preserve">
<style type="text/css">
	.st0{fill:#CDEEFD;}
	.st1{fill:#111224;}
	.st2{fill:#005BAB;}
</style>
<path class="st0" d="M1465.3,1556.3c-2.4-0.2-4.3-1.3-4.4-4.1c-0.1-6.7,1.6-10,4.9-9.9c0.2,0,0.3,0,0.5,0c2.2,0.5,4.3,2.1,3.2,4
	C1467.7,1549.5,1473.1,1555.7,1465.3,1556.3z M1465.5,1554.4c1.3-0.1,2.3-0.6,2.3-2.1c-0.1-1.7-1.5-2.1-2.8-2.4c-1.6-0.4-2,0.8-2,2
	C1463,1553.5,1464,1554.2,1465.5,1554.4z M1467.8,1546.5c0-1.4-0.6-2.2-2.1-2.2c-0.9,0-1.6,0.4-1.7,1.4c-0.2,1.4,0.9,2.1,2,2.5
	C1467.3,1548.5,1467.6,1547.5,1467.8,1546.5z"/>
<path class="st0" d="M1455.8,1556.6c-0.5-2.9-1.8-4.2-4.6-3.6c-0.7,0.2-1.7,0.3-2.1-0.8c-0.4-1.1,0.1-1.5,1.2-2.1
	c2.1-1.2,2.1-3.9,3.2-5.8c0.6-1,1-2.2,2.5-1.9c1.4,0.3,0.9,1.6,0.8,2.5C1456.4,1548.6,1458.4,1552.5,1455.8,1556.6z"/>
<path class="st1" d="M1465.5,1554.4c-1.5-0.1-2.6-0.8-2.5-2.4c0-1.2,0.4-2.4,2-2c1.2,0.3,2.7,0.7,2.8,2.4
	C1467.8,1553.7,1466.8,1554.2,1465.5,1554.4z"/>
<path class="st1" d="M1467.8,1546.5c-0.2,1-0.5,2.1-1.8,1.7c-1.1-0.4-2.1-1-2-2.5c0.1-1,0.8-1.4,1.7-1.4
	C1467.2,1544.3,1467.8,1545,1467.8,1546.5z"/>
<polygon class="st2" points="1346.8,29.4 1346.9,29.6 1346.6,29.6 "/>
<g id="Obese_man_on_the_scales_Icon">
	<path class="st2" d="M52.6,111.4l2.3,15.3c0.8,5.5,3.7,8.7,7.7,8.7c3.8,0,6.3-3,7.7-9.1c0.9-4,1.1-10.5,1.3-16.8
		c0.2-6.6,0.5-14.9,1.8-17c0.5-0.8,1.3-1.6,2.1-2.5c3.3-3.5,8.2-8.8,8.2-22.3c0-1.3-1.3-11.1-3.9-20.9c-1.4-5.2-3-10.9-5.3-15.5
		c2.6-0.1,5.2-1.9,8-5.7c2.7-3.6,8.2-12.9,2-21.1c-2.1-2.8-4.3-3.8-6.3-3.8c-4.1,0-7.9,4-9.7,6.4c-3.6,4.7-4.1,10.9-2.6,15.7
		c-1-0.3-2.1-0.5-3.3-0.5c-9.5,0-20.5,12.8-20.5,48.9c0,9.3,1.7,12.8,3.8,17.2C48,92.7,50.6,98,52.6,111.4z M70.4,9.5
		c0.9-1.3,4.3-5.3,7.8-5.3c1.6,0,3.1,0.9,4.5,2.7c2,2.6,2.5,5.4,1.7,8.8c-0.8,3.4-2.9,6.3-3.7,7.4c-2.3,3.1-4.5,4.6-6.3,4.6
		c-1.5,0-2.9-1-4.4-3C67.3,21.3,66.7,14.4,70.4,9.5z M62.7,25.8c8.7,0,11.8,11.3,14.7,22.2c2.7,9.9,3.7,19,3.8,19.8
		c0,11.9-4,16.2-7.2,19.6c-0.9,1-1.8,2-2.5,3c-1.9,3-2.2,10.4-2.4,19.1c-0.2,6-0.4,12.3-1.2,15.9c-1.4,5.9-3.5,6.7-5.2,6.7
		c-3.7,0-4.8-3.7-5.1-5.9l-2.3-15.3c-2.1-14.1-4.8-19.7-7-24.2c-2-4.2-3.4-7-3.4-15.3C44.8,37.7,54.4,25.8,62.7,25.8z M54.9,61.3
		c-2.6-9.6-2.3-19.4,1-27c0.4-0.8,1.2-1.1,1.8-0.7c0.6,0.5,0.9,1.5,0.5,2.4c-4.1,9.4-1.9,20-0.8,24c1.7,6,11.2,18.8,14.8,18.8
		c0,0,0,0,0,0c0.8,0,1.5-0.7,2-1.7c0.2-0.5,0.6-1.7,0.1-3.1c-0.6-1.6-2.5-3.9-4.3-6.2c-2.5-3.2-4.8-6.2-5.4-8.7
		c-0.5-2.1-0.4-2.9,1.1-12.6c0.3-2,0.7-4.5,1.1-7.5c0.1-0.9,0.8-1.6,1.6-1.4c0.7,0.2,1.2,1.1,1,2c-0.4,3-0.8,5.4-1.1,7.5
		c-1.3,9-1.4,9.7-1.1,11c0.4,1.6,2.8,4.7,4.7,7.2c2,2.6,3.9,5,4.7,7.1c0.8,2.1,0.8,4.5-0.1,6.6c-0.9,2.1-2.5,3.4-4.2,3.4h-0.1
		C66.8,82.4,56.6,67.4,54.9,61.3z"/>
	<g>
		<path class="st2" d="M80.1,137.1H42.3v12.2h58.2v-17.5H84L80.1,137.1z M97.8,135.3v10.5H44.9v-5.2h36.3l4-5.2H97.8z"/>
		<path class="st2" d="M87.9,117v-14c0-1,0.6-1.7,1.3-1.7c0.7,0,1.3,0.8,1.3,1.7v14c0,1-0.6,1.7-1.3,1.7
			C88.5,118.7,87.9,117.9,87.9,117z M93.6,119.8c0.2,0.1,0.3,0.1,0.5,0.1c0.5,0,1-0.4,1.2-1.1l6.3-20c0.3-0.9,0-1.9-0.7-2.3
			c-0.7-0.4-1.4,0.1-1.7,0.9l-6.3,20C92.6,118.4,93,119.4,93.6,119.8z M107.5,109c-0.5-0.7-1.4-0.7-1.9,0l-7.5,9.9
			c-0.5,0.7-0.5,1.8,0,2.5c0.3,0.3,0.6,0.5,0.9,0.5c0.3,0,0.7-0.2,0.9-0.5l7.5-9.9C108,110.8,108,109.7,107.5,109z"/>
	</g>
</g>
</svg>
