<?xml version="1.0" encoding="utf-8"?>
<!-- Generator: Adobe Illustrator 24.3.0, SVG Export Plug-In . SVG Version: 6.00 Build 0)  -->
<svg version="1.1" id="Layer_1" xmlns="http://www.w3.org/2000/svg" xmlns:xlink="http://www.w3.org/1999/xlink" x="0px" y="0px"
	 viewBox="0 0 150 150" style="enable-background:new 0 0 150 150;" xml:space="preserve">
<style type="text/css">
	.st0{fill:#CDEEFD;}
	.st1{fill:#111224;}
	.st2{fill:#005BAB;}
</style>
<path class="st0" d="M1465.3,1556.3c-2.4-0.2-4.3-1.3-4.4-4.1c-0.1-6.7,1.6-10,4.9-9.9c0.2,0,0.3,0,0.5,0c2.2,0.5,4.3,2.1,3.2,4
	C1467.7,1549.5,1473.1,1555.7,1465.3,1556.3z M1465.5,1554.4c1.3-0.1,2.3-0.6,2.3-2.1c-0.1-1.7-1.5-2.1-2.8-2.4c-1.6-0.4-2,0.8-2,2
	C1463,1553.5,1464,1554.2,1465.5,1554.4z M1467.8,1546.5c0-1.4-0.6-2.2-2.1-2.2c-0.9,0-1.6,0.4-1.7,1.4c-0.2,1.4,0.9,2.1,2,2.5
	C1467.3,1548.5,1467.6,1547.5,1467.8,1546.5z"/>
<path class="st0" d="M1455.8,1556.6c-0.5-2.9-1.8-4.2-4.6-3.6c-0.7,0.2-1.7,0.3-2.1-0.8c-0.4-1.1,0.1-1.5,1.2-2.1
	c2.1-1.2,2.1-3.9,3.2-5.8c0.6-1,1-2.2,2.5-1.9c1.4,0.3,0.9,1.6,0.8,2.5C1456.4,1548.6,1458.4,1552.5,1455.8,1556.6z"/>
<path class="st1" d="M1465.5,1554.4c-1.5-0.1-2.6-0.8-2.5-2.4c0-1.2,0.4-2.4,2-2c1.2,0.3,2.7,0.7,2.8,2.4
	C1467.8,1553.7,1466.8,1554.2,1465.5,1554.4z"/>
<path class="st1" d="M1467.8,1546.5c-0.2,1-0.5,2.1-1.8,1.7c-1.1-0.4-2.1-1-2-2.5c0.1-1,0.8-1.4,1.7-1.4
	C1467.2,1544.3,1467.8,1545,1467.8,1546.5z"/>
<polygon class="st2" points="1346.8,29.4 1346.9,29.6 1346.6,29.6 "/>
<g>
	<path class="st2" d="M15.5,149c-0.8-0.6-1.5-1.3-1.5-2.5c0.2-15.1,2.8-29.7,8.6-43.8c2.6-6.4,7.5-10.3,13.5-12.9
		c7.1-3,14.4-5.7,21.6-8.5c1-0.4,1.3-0.8,1.4-1.9c0.3-3.6-0.3-6.5-3.4-9c-3.7-3.1-4.8-7.8-5.8-12.3c-0.1-0.6-0.3-1.1-0.4-1.7
		c-6.2-0.3-10.5-3.1-11.8-9.3c-1.2-5.9,1.4-10.2,6.6-13c-2.7-6.4-0.8-12.3,2.2-18C55-0.3,73.7-1.6,84.3,3.8C87.5,5.4,90.5,7,94,7.6
		c3.1,0.5,5.6,2.6,7.4,5.2c4,5.4,5.6,11.5,4.7,18.2c-0.1,1-0.5,2-0.8,3.1c5.8,3.6,8,7.7,7.1,12.9c-1,5.4-4.5,8.2-12,9.6
		c-0.5,1.9-1,3.9-1.5,6.1c2.1,1.3,4.2,2.6,6.3,3.8c0.9,0.6,1.5,1.4,1.2,2.4c-0.3,0.7-1,1.3-1.7,1.7c-0.4,0.2-1.2-0.1-1.7-0.4
		c-1.9-1.1-3.8-2.2-5.5-3.2c-2.1,2.2-4.2,4.3-6.3,6.5c-0.3,0.3-0.4,0.9-0.4,1.3c0,1.6,0.1,3.3,0,4.9c-0.1,1,0.4,1.4,1.3,1.7
		c7,2.7,14,5.4,21,8.1c1.5,0.6,2.8,1.5,4.2,2.2c6.2,3,9.2,8.5,11.4,14.6c3.6,9.6,5.8,19.6,6.6,29.8c0.3,3.3,0.3,6.6,0.6,9.9
		c0.1,1.3-0.3,2.3-1.5,3C94.8,149,55.1,149,15.5,149z M63.4,76.5c0,2.3,0,4.3,0,6.4c0.1,5.7,4.6,10.6,10.2,11.2
		c6,0.6,11.5-3,12.6-8.8c0.6-2.8,0.4-5.7,0.5-8.9c-0.9,0.4-1.5,0.7-2,0.9c-0.6,0.2-1.2,0.5-1.7,0.7c-1.1,0.4-2.1,0.3-2.8-0.8
		C79.3,76,80,74.7,81.5,74c2.4-1.2,4.8-2.4,7-3.9c2.3-1.5,4.1-3.6,5.1-5.9c-1.4-1.5-2.7-2.8-3.9-4.2c-1.1-1.2-1.1-2.4-0.1-3.3
		c1-0.9,2.2-0.8,3.3,0.4c0.7,0.7,1.4,1.5,2.3,2.5c1.8-7.3,2.8-14.2,3.4-21.2c-4.1-1-5.6-1.6-8.1-3.7c-2.2-1.9-4.2-4-6.1-6.1
		c-0.9-1-1.5-1.1-2.5-0.3c-1.2,1-2.5,1.8-3.8,2.6c-8.2,5-16.7,9.3-26.8,7.9c0,0.2-0.1,0.4,0,0.6c1.1,6.5,2,13.1,3.2,19.6
		c0.9,4.9,3.5,9,7.8,11.7c1.9,1.2,3.9,2.2,6,3.2c1.6,0.8,2.3,1.8,1.7,3.1c-0.5,1.2-1.7,1.5-3.3,0.9C65.6,77.5,64.6,77.1,63.4,76.5z
		 M73.3,5.4c-9.6,0-15.7,2.8-20.6,9.2c-3.2,4.1-5.3,8.7-5.4,14c0,3.5,1.2,4.9,4.5,5.7c4.7,1.2,9.2,0,13.5-1.7c5.3-2,10.2-5,14.8-8.3
		c2.5-1.7,5.1-1.4,7.1,0.8c0.6,0.7,1.2,1.4,1.8,2.1c2.2,2.4,4.5,4.7,7.5,6c3,1.4,4.7,0.5,5.3-2.7c0.8-4.6-0.3-8.8-2.4-12.8
		c-2.3-4.4-5.9-6.7-10.9-6.6c-0.7,0-1.5-0.2-2-0.7C82.6,6.8,77.7,5.5,73.3,5.4z M128.2,144.7c0-0.1,0.1-0.2,0.1-0.4
		c-0.4-0.4-0.8-0.7-1.2-1.1c-8.2-8.2-16.4-16.3-24.6-24.5c-4.1-4-6.7-8.8-8-14.4c-0.5-2.2-1.2-4.4-2-6.6c-0.2-0.5-1-1.1-1.4-1
		c-0.5,0.1-1.1,0.8-1.2,1.3c-0.2,1.1-0.1,2.2,0,3.3c0.1,1.2,0.5,2.4-0.7,3.3c-1.2,0.9-2.3,0.2-3.3-0.5c-0.3-0.2-0.6-0.4-0.9-0.5
		c-4.1-2.3-8.2-4.5-12.9-5.3c-2.7-0.5-4.1,0.3-5,2.9c-1.3,3.7-1.1,7.4,0.7,10.9c0.7,1.3,1.9,2.6,3.2,3.1c3.5,1.5,7,2.8,10.7,3.9
		c3.2,1,5.9,2.4,8,5.1c5.1,6.5,10.2,12.9,15.2,19.4c0.6,0.7,1.1,1,2,1c6.7,0,13.4,0,20.1,0C127.4,144.7,127.8,144.7,128.2,144.7z
		 M130.1,129.6c0-0.4,0.1-0.6,0-0.8c-1.5-8.9-3.7-17.5-7.5-25.7c-1.4-3-3.5-5.2-6.3-6.9c-5.4-3.2-11.3-5.6-17.2-7.8
		c-2.8-1-5.6-1.9-8.5-2.9c-1.1,5.3-4.1,9.1-8.9,11.6c1.3,0.6,2.3,1.2,3.4,1.7c0.1-0.6,0.2-1,0.3-1.4c0.6-3,2.4-4.7,5-5
		c2.6-0.3,4.7,0.8,5.9,3.7c0.9,2.2,1.6,4.5,2.2,6.9c1,4.7,2.9,8.9,6.3,12.3c4.6,4.6,9.2,9.2,13.8,13.8c0.3,0.3,0.8,0.7,1.2,0.7
		C123.4,129.6,126.7,129.6,130.1,129.6z M59.1,85.5c-1.3,0.4-2.8,0.9-4.2,1.4c-6.9,2.4-13.6,5-20,8.5c-3.8,2.1-6.5,4.9-8.2,8.9
		c-2.3,5.6-4.2,11.3-5.5,17.2c-0.6,2.6-1,5.3-1.6,8.1c3.7,0,7.1,0,10.5,0c0.4,0,0.8-0.4,1.2-0.7c4.5-4.5,9-9,13.5-13.5
		c3.2-3.2,5.1-7,6.3-11.3c0.7-2.5,1.7-5,2.8-7.4c1.5-3.1,3.6-5.7,7.6-5.1C60.7,89.5,59.9,87.5,59.1,85.5z M68.5,119.2
		c-2.7-1.7-4.3-4-5.3-6.8c-1.2-3.4-1.3-6.8-0.8-10.4c0.2-1.5,0.1-3.2-0.4-4.6c-0.6-1.8-2.1-1.9-3.2-0.4c-1.7,2.3-2.9,4.9-3.5,7.7
		c-1.2,5.7-4,10.4-8.1,14.5c-8.2,8.1-16.4,16.3-24.6,24.4c-0.3,0.3-0.6,0.7-1,1.1c0.3,0.1,0.5,0.1,0.6,0.1c7,0,14.1,0,21.1,0
		c0.5,0,1.2-0.4,1.6-0.9c4.3-5.5,8.6-11.1,13-16.6C60.7,123.6,63.4,119.9,68.5,119.2z M100.1,144.6c-0.1-0.2-0.1-0.4-0.2-0.5
		c-4.8-6-9.5-12.1-14.4-18.1c-0.8-0.9-2-1.7-3.2-2.1c-2.2-0.8-4.5-1.4-6.8-2c-0.3-0.1-0.8-0.1-1.1,0c-2,0.6-4.1,1.2-6.1,1.7
		c-1.7,0.5-3.2,1.4-4.3,2.8c-3.1,3.8-6.2,7.6-9.2,11.5c-1.7,2.1-3.3,4.3-5.1,6.6C66.7,144.6,83.3,144.6,100.1,144.6z M48.5,51.8
		c-0.6-4.6-1.2-9.1-1.7-13.6c-3.4,0.7-5.6,4.2-5,8C42.3,49.5,45.4,52.1,48.5,51.8z M101.5,51.9c3.3,0.2,6.4-2.6,6.8-6
		c0.4-3.7-1.8-7.1-5-7.6C102.6,42.8,102.1,47.3,101.5,51.9z M18.5,141.1c2.5-2.5,4.8-4.8,7.1-7.2c-1.9,0-3.9,0-5.9,0
		c-0.2,0-0.6,0.5-0.7,0.9C18.8,136.9,18.7,138.9,18.5,141.1z M124.7,134c2.2,2.2,4.5,4.5,6.8,6.8c-0.2-2.2-0.4-4.5-0.6-6.8
		C128.6,134,126.5,134,124.7,134z"/>
	<path class="st2" d="M133.4,77.1c0,5.8-5.5,9.8-11.1,8.1c-0.7-0.2-1.6-0.2-2.3,0c-4.6,1.3-9.4-1.1-11.1-5.5
		c-1.7-4.4,0.3-9.3,4.6-11.5c0.6-0.3,1.1-0.8,1.5-1.4c2-3.2,5.6-4.8,9.3-4c3.5,0.8,6.2,3.8,6.7,7.4c0.1,0.6,0.3,1.2,0.7,1.7
		C132.8,73.6,133.5,75.2,133.4,77.1z M129.3,77.1c-0.4-0.9-0.7-1.9-1.3-2.6c-1-1-1.3-2-1.3-3.3c0-2-1.4-3.6-3.5-4
		c-1.9-0.4-3.9,0.5-4.6,2.4c-0.5,1.4-1.3,2.1-2.8,2.6c-2.6,0.8-3.8,3.7-2.8,6.2c1,2.5,3.9,3.7,6.3,2.5c1.4-0.7,2.4-0.7,3.8,0.1
		C125.9,82.3,129.1,80.3,129.3,77.1z"/>
	<path class="st2" d="M105.4,78.4c0,1.9-1.4,3.1-2.7,2.5c-2.1-1.1-4.2-2.4-6.1-3.9c-0.9-0.7-0.8-1.9,0-2.8c0.8-0.9,1.8-0.9,2.9-0.3
		c1.6,1.1,3.3,2.1,4.9,3.2C104.9,77.4,105.2,78.1,105.4,78.4z"/>
	<path class="st2" d="M75.2,64.5c-2,0-4,0-6.1,0c-2.2,0-3.2-1.1-2.6-3.2c0.5-1.8,1.2-3.6,2.2-5.1c3.1-4.3,9.4-4.3,12.8-0.3
		c1.4,1.7,2.2,3.7,2.5,5.9c0.2,1.6-0.6,2.6-2.2,2.6C79.6,64.5,77.4,64.5,75.2,64.5C75.2,64.5,75.2,64.5,75.2,64.5z M79.1,60
		c-0.9-1.8-2.1-2.7-3.9-2.7c-1.7,0-2.9,0.9-3.6,2.7C74,60,76.4,60,79.1,60z"/>
	<path class="st2" d="M63.5,47c-0.7,0-1.3,0-2,0c-1.2-0.1-2-0.8-2.1-2c-0.1-1.2,0.6-2.1,1.8-2.2c1.6-0.2,3.2-0.1,4.7,0
		c1.1,0.1,1.8,1,1.7,2.1c-0.1,1.2-0.7,2-2,2.1C64.9,47.1,64.2,47,63.5,47C63.5,47,63.5,47,63.5,47z"/>
	<path class="st2" d="M85.9,47c-0.7,0-1.3,0-2,0c-1.2-0.1-1.9-0.8-2-1.9c-0.1-1.2,0.5-2.1,1.7-2.3c1.6-0.2,3.2-0.2,4.7,0
		c1.2,0.1,1.8,1,1.8,2.2c-0.1,1.2-0.8,1.9-2,2C87.3,47.1,86.6,47,85.9,47C85.9,47,85.9,47,85.9,47z"/>
</g>
</svg>
