<?xml version="1.0" encoding="utf-8"?>
<!-- Generator: Adobe Illustrator 24.3.0, SVG Export Plug-In . SVG Version: 6.00 Build 0)  -->
<svg version="1.1" id="Layer_1" xmlns="http://www.w3.org/2000/svg" xmlns:xlink="http://www.w3.org/1999/xlink" x="0px" y="0px"
	 viewBox="0 0 150 150" style="enable-background:new 0 0 150 150;" xml:space="preserve">
<style type="text/css">
	.st0{fill:#5F6368;}
	.st1{fill:#005BAB;}
</style>
<path class="st0" d="M2053.7-657.2c-2.1,0-3.6,0-5.1,0C2049.8-661.3,2051.5-660.2,2053.7-657.2z"/>
<path class="st0" d="M647.6-31.1c1.8-3.6,3.4-2.9,5.2,0C651-31.1,649.5-31.1,647.6-31.1z"/>
<g>
	<path class="st1" d="M33.5,34.9c0-0.8,0-1.6,0-2.4c0-0.5,0.1-1,0.7-1c0.6,0,1.2,0.1,1.5,0.7c0.3,0.6,0,1.2-0.5,1.3
		c-0.8,0.3-1.2,0.8-1.2,1.7C33.9,35.1,33.7,35,33.5,34.9z"/>
	<path class="st1" d="M32.6,34.7c-0.1-1.4-2.9-0.8-1.6-2.8c0.3-0.5,1-0.6,1.4-0.2C33.4,32.4,33.2,33.4,32.6,34.7z"/>
	<path class="st1" d="M42.6,33c-0.2,0.6,0.1,1.3-0.4,2c-0.7-0.4-0.1-1.4-0.8-1.9c-0.7,0.4-0.1,1.3-0.8,1.9c-0.6-0.7-0.6-1.6-0.1-2.2
		c0.5-0.6,1.3-0.3,1.9,0C42.5,32.9,42.6,33,42.6,33z"/>
	<path class="st1" d="M42.5,32.9c0.4-0.4,0.9-0.5,1.2,0c0.5,0.7,0.4,1.4,0.1,2.1c-1-0.4,0.1-1.9-1.2-2C42.6,33,42.5,32.9,42.5,32.9z
		"/>
	<path class="st1" d="M79,1.4c2.8,0.4,5.6,0.6,8.4,1.1c16.2,2.8,30,10.2,41.2,22.2c10.3,10.9,16.6,23.9,19,38.7
		c6,36.5-16.5,71.8-52.2,82.2c-6.2,1.8-12.6,2.7-19.1,2.9c-0.4,0-0.7,0-1.2,0c0-1.5,0-2.9,0-4.4c25.3-1,45.3-11.8,58.7-33.4
		c9.7-15.6,12.3-32.8,8.3-50.7C134,23.7,98.4,0.1,61.1,7.6c-37.1,7.5-63,45-52.7,85.2c-1.4,0.4-2.8,0.8-4.5,1.2
		c-0.5-2.8-1.1-5.4-1.6-8.1c-0.4-2.1-0.6-4.2-0.9-6.4c0-3,0-5.9,0-8.9c0.1-0.4,0.2-0.8,0.2-1.3c0.4-2.9,0.6-5.9,1.2-8.8
		c6-29.9,29.5-52.8,59.6-58.1c2.7-0.5,5.5-0.8,8.2-1.1C73.5,1.4,76.2,1.4,79,1.4z"/>
	<path class="st1" d="M1.4,113.5c0.7-1.4,1.5-2.8,2.1-4.2c0.5-1.2,1.4-1.9,2.5-2.4c4.4-1.9,8.8-3.9,13.3-5.7
		c1.3-0.5,1.2-1.7,1.7-2.6c0.6-1.1,0.3-1.9-0.6-2.8c-3.5-3.4-5-7.7-5.1-12.4c-0.2-6.5-0.1-13,0-19.5c0-0.8,0.6-1.8,1.2-2.3
		c3.9-3.2,8.4-4.7,13.5-4.9c5.9-0.2,11.3,1,16,4.7c1,0.8,1.4,1.7,1.4,2.9c0,5.9,0,11.8,0,17.7c0,5.6-1.6,10.7-5.8,14.6
		c-0.2,0.2-0.4,0.3-0.4,0.6c-0.2,0.9,1.3,3.8,2.2,4.2c4.4,1.9,8.8,3.8,13.2,5.7c1.3,0.5,2,1.4,2.7,2.6c1.6,2.6,2.1,5.4,2,8.5
		c-0.1,9.6,0,19.3,0,28.9c0,0.5,0,1,0,1.6c-1.5,0-2.9,0-4.6,0c0-0.5,0-1.1,0-1.6c0-10.3,0-20.7,0-31c0-2.4-0.9-4.4-3.4-5.4
		c-3.6-1.5-7.2-3.1-10.8-4.7c-1-0.4-1.5-0.3-2.2,0.5c-1.9,2-3.9,3.8-5.8,5.8c-0.4,0.4-0.7,1.1-0.7,1.7c-0.1,2.3,0,4.7,0,7.1
		c-1.5,0-3,0-4.6,0c0-2.4,0.1-4.7,0-7c0-0.6-0.3-1.4-0.8-1.9c-1.9-2-3.9-3.9-5.8-5.9c-0.6-0.6-1.1-0.7-1.9-0.4
		c-3.7,1.6-7.3,3.3-11.1,4.8c-2.4,1-3.4,3-3.4,5.3c-0.1,10.3,0,20.6,0,30.9c0,0.6,0,1.1,0,1.9c-1.6,0-3.1,0-4.6,0
		C1.4,136.9,1.4,125.2,1.4,113.5z M19.9,79.4c-0.4,4.3,0.4,8.1,2.2,11.2c3.4,6,12.7,6.9,17.2,1.6c3.2-3.7,3.6-8.2,3.4-12.9
		c-2.6-0.5-4.7-1.7-6.1-3.9c-0.2-0.3-0.8-0.5-1.2-0.5c-2.7,0-5.5,0-8.2,0c-0.4,0-1,0.2-1.2,0.5C24.6,77.7,22.6,79,19.9,79.4z
		 M19.8,74.5c1.6-0.3,2-0.6,2.3-1.9c0.5-1.7,1.1-2.2,2.8-2.2c4.2,0,8.4,0,12.6,0c1.8,0,2.4,0.5,2.9,2.3c0.3,1.1,1,1.7,2.3,1.8
		c0-3.1,0-6.1,0-9.1c0-0.4-0.4-1-0.7-1.2c-7.1-4-14.3-4-21.4,0c-0.4,0.2-0.8,0.7-0.8,1C19.8,68.3,19.8,71.4,19.8,74.5z M31.4,108.5
		c1.8-1.8,3.5-3.5,5.1-5.1c1.6-1.6,1.6-1.9,0.3-4.1c-3.6,1.2-7.3,1.2-11.3-0.1c-0.1,1.2-0.6,2.6-0.1,3.2
		C27.1,104.5,29.2,106.4,31.4,108.5z"/>
	<path class="st1" d="M112,34.2c-2.7,2.7-5.2,5.3-7.8,7.9c-1.1-1.1-2.1-2.1-3.2-3.2c2.5-2.5,5-5,7.5-7.4C100.8,24.8,87.7,20,77.3,20
		c0,3.7,0,7.4,0,11.2c-1.6,0-3,0-4.6,0c0-3.7,0-7.5,0-11.2c-9.2-0.4-23.9,4.9-30.9,11c2.5,2.5,5,4.9,7.5,7.4
		c-1.3,1.2-2.3,2.2-3.4,3.2c-2.5-2.5-5.1-5.1-7.7-7.8c-4.9,4.3-8.7,9.2-11.8,14.9c-1.3-0.7-2.6-1.4-4-2.2c2-3.8,4.4-7.3,7.1-10.5
		c10.1-11.5,22.7-18.6,37.9-20.3c21.8-2.5,39.8,4.9,53.9,21.6c7.2,8.5,11.5,18.6,12.7,29.7c2.7,25.4-6.9,45.2-28.3,59
		c-9.1,5.9-19.4,8.5-30.2,8.6c-1.9,0-2.8-0.8-2.9-2.6c0-3.6,0-7.3,0-11c1.5,0,2.9,0,4.6,0c0,2.9,0,5.9,0,8.9c9.9-0.1,22-4,31.1-11.2
		c-2.5-2.5-5-5-7.6-7.5c1.2-1.2,2.3-2.3,3.3-3.3c2.6,2.6,5.2,5.2,7.9,7.9c11.2-10.5,17.1-23.3,18.1-38.5c-3.8,0-7.5,0-11.3,0
		c0-1.6,0-3,0-4.7c3.7,0,7.5,0,11.3,0C129.2,57.5,123.3,44.8,112,34.2z"/>
	<path class="st1" d="M72.8,49.8c1.5,0,2.9,0,4.5,0c0,1.1,0,2.2,0,3.3c0,3.9,0,7.8,0,11.8c0,0.8,0.1,1.2,1,1.6c5,2,7.2,7.3,5.1,12.3
		c-0.3,0.8-0.2,1.2,0.3,1.7c3.4,3.4,6.8,6.8,10.2,10.1c0.4,0.4,0.9,0.6,1.5,0.9c-1.5,1.3-2.5,2.3-3.7,3.4c-0.3-0.3-0.6-0.6-1-1
		c-3.3-3.3-6.6-6.5-9.8-9.9c-0.7-0.8-1.3-1-2.4-0.5c-4.6,1.9-10-0.4-11.9-5c-1.9-4.7,0.3-10,5-11.9c1-0.4,1.2-0.9,1.2-1.9
		c0-4.8,0-9.7,0-14.5C72.7,50.1,72.8,50,72.8,49.8z M79.6,75c0-2.5-2-4.6-4.5-4.6c-2.5,0-4.6,2-4.6,4.5c0,2.5,2.1,4.7,4.6,4.7
		C77.5,79.6,79.6,77.5,79.6,75z"/>
	<path class="st1" d="M13,148.5c0-4.6,0-9.1,0-13.6c1.5,0,2.9,0,4.4,0c0,4.5,0,9,0,13.6C16,148.5,14.6,148.5,13,148.5z"/>
	<path class="st1" d="M49.6,148.5c-1.5,0-2.9,0-4.4,0c0-4.5,0-9,0-13.6c1.4,0,2.9,0,4.4,0C49.6,139.4,49.6,143.9,49.6,148.5z"/>
</g>
</svg>
