<?xml version="1.0" encoding="utf-8"?>
<!-- Generator: Adobe Illustrator 24.3.0, SVG Export Plug-In . SVG Version: 6.00 Build 0)  -->
<svg version="1.1" id="Layer_1" xmlns="http://www.w3.org/2000/svg" xmlns:xlink="http://www.w3.org/1999/xlink" x="0px" y="0px"
	 viewBox="0 0 150 150" style="enable-background:new 0 0 150 150;" xml:space="preserve">
<style type="text/css">
	.st0{fill:#5F6368;}
	.st1{fill:#005BAB;}
</style>
<path class="st0" d="M2053.7-657.2c-2.1,0-3.6,0-5.1,0C2049.8-661.3,2051.5-660.2,2053.7-657.2z"/>
<g>
	<path class="st1" d="M119.9,138.1c-3.3-0.1-5.9-1.1-8.1-3.3c-0.5-0.5-1.1-1.1-1.5-1.7c-3.5-4.6-8.4-4.5-12.2-2.8
		c-2.2,0.9-4.1,2.4-6.1,3.7c-2.3,1.6-4.7,3.1-7.5,3.7c-5.3,1.1-9.8,0.1-13.4-4.2c-4-4.7-8.9-5.5-14.3-2.4c-1.6,0.9-3.1,2-4.6,3.1
		c-3.4,2.5-7.1,4.1-11.4,3.9c-3.2-0.1-6-1.2-8.2-3.6c-0.4-0.5-0.9-0.9-1.3-1.4c-3.5-4.6-8.5-4.5-12.4-2.8c-2.1,0.9-4.1,2.3-6,3.7
		c-2.8,1.9-5.7,3.6-9.1,4c-2.9,0.3-4,0.2-3.1-3.4C9.1,99.7,17.6,64.9,26.1,30c0.6-2.6,1.3-5.2,1.9-7.8c0.2-0.9,0.7-1.4,1.7-1.4
		c3.2,0,6-1.3,8.6-3.1c2-1.4,3.9-2.8,6-3.9c3.1-1.7,6.5-2.1,9.9-1.5c2,0.3,3.7,1.2,5.1,2.5c0.8,0.7,1.5,1.5,2.2,2.3
		c3.1,3.9,7.1,4.5,11.4,3.1c1.9-0.6,3.6-1.8,5.3-2.8c1.9-1.1,3.7-2.5,5.6-3.6c3.1-1.7,6.6-2.2,10-1.4c1.7,0.4,3.4,1.5,4.9,2.4
		c0.9,0.5,1.6,1.4,2.2,2.2c3.5,4.5,8.4,4.5,12.3,2.9c2.1-0.8,4-2.2,5.8-3.5c2.9-2,5.9-3.8,9.6-4.2c4.4-0.5,8.3,0.6,11.2,4.1
		c0.5,0.5,1,1.1,1.4,1.6c1.6,1.9,3.7,2.9,6.2,3c2.1,0.1,2.5,0.7,2,2.7c-2.8,11.5-5.6,23-8.4,34.5c-6.4,26.1-12.8,52.2-19.1,78.3
		C121.6,137.8,121.2,138.1,119.9,138.1z M65,126.4c2.4,0.4,4.5,1.2,6.1,2.8c0.9,0.9,1.8,1.9,2.7,2.9c2,2.3,4.6,3.2,7.5,3
		c2.1-0.1,4.2-0.6,6-1.8c1.7-1.1,3.3-2.3,5-3.4c2.5-1.7,5.1-3.1,8.2-3.4c0.9-0.1,1.1-0.5,1.2-1.3c2.6-10.7,5.2-21.4,7.8-32.1
		c0.7-3,1.5-6,2.2-8.9c0.3-1,0.9-1.6,1.9-1.3c1,0.3,1.2,1.1,1,2c0,0.1-0.1,0.2-0.1,0.4c-2.7,11-5.4,22-8,32.9
		c-0.7,2.7-1.3,5.4-2,8.3c4.3,0.3,6.7,3.2,9.2,6c0.3,0.3,0.6,0.7,1,0.9c0.9,0.5,1.8,1,2.8,1.4c1.1,0.4,1.6,0.1,1.9-1.1
		c8.8-36.3,17.7-72.6,26.6-108.8c0.1-0.3,0.1-0.7,0.1-1.2c-3.6-0.3-6-2.4-8.1-4.9c-0.1-0.2-0.3-0.3-0.4-0.5
		c-2.2-2.7-5.1-3.5-8.5-3.1c-3,0.3-5.4,1.7-7.8,3.4c-1.9,1.3-3.7,2.7-5.7,3.7c-6.3,3.2-12.4,1.9-17-3.3c-0.2-0.3-0.5-0.5-0.7-0.7
		c-2.2-2.6-5-3.3-8.3-3c-2.6,0.3-4.8,1.3-6.9,2.8c-2,1.3-3.9,2.8-6,4c-6.5,3.6-12.8,2.4-17.7-3c-0.2-0.3-0.5-0.5-0.7-0.7
		c-2.1-2.5-4.9-3.2-8.1-3c-2.5,0.2-4.7,1.2-6.8,2.5c-1.3,0.9-2.5,1.8-3.8,2.7c-2.4,1.7-5.1,3-8.1,3.3c-0.9,0.1-1,0.6-1.2,1.3
		c-2.1,8.7-4.3,17.5-6.4,26.2c-6.7,27.5-13.5,55.1-20.2,82.6c-0.1,0.3-0.1,0.7-0.2,1.4c1.7-0.7,3.2-1.1,4.4-1.8
		c1.7-1,3.3-2.2,4.9-3.3c2.5-1.8,5.2-3.2,8.4-3.5c0.9-0.1,1-0.6,1.2-1.3c2.6-10.8,5.3-21.6,7.9-32.4c0.7-2.9,1.4-5.7,2.1-8.6
		c0.2-1,0.8-1.5,1.8-1.3c1,0.2,1.3,1,1.1,1.9c0,0.2-0.1,0.4-0.1,0.6c-2.7,10.9-5.3,21.7-8,32.6c-0.7,2.8-1.3,5.5-2,8.4
		c2.4,0.4,4.4,1.2,6.1,2.8c0.9,0.9,1.8,1.9,2.7,2.8c2.1,2.5,4.9,3.3,8,3c2.4-0.2,4.5-1,6.5-2.3c1.3-0.8,2.5-1.7,3.7-2.6
		c2.6-1.8,5.4-3.3,8.6-3.6c0.8-0.1,1-0.5,1.1-1.2c2.5-10.2,5-20.5,7.5-30.7c0.8-3.4,1.7-6.9,2.5-10.3c0.2-1,0.8-1.6,1.9-1.3
		c1.1,0.2,1.2,1,1,2c0,0.2-0.1,0.4-0.1,0.6c-2.2,9.1-4.5,18.3-6.7,27.4C67.3,117.3,66.2,121.8,65,126.4z"/>
	<path class="st1" d="M104.3,46.5c-0.5,2.2-1,4.1-1.4,6c-5.6,23-11.2,46-16.9,69c-0.1,0.2-0.1,0.5-0.2,0.7c-0.2,1-0.9,1.4-1.9,1.2
		c-1-0.2-1.3-1-1-2c0.6-2.7,1.3-5.4,2-8.1c5.4-22,10.7-44,16.1-66c0.1-0.4,0.1-0.9,0.3-1.2c0.4-0.4,1.1-0.9,1.6-0.9
		C103.5,45.5,103.9,46.2,104.3,46.5z"/>
	<path class="st1" d="M44.7,123.5c-1.1,0-1.6-0.8-1.3-2c1.1-4.8,2.3-9.6,3.5-14.3c4.9-19.9,9.7-39.7,14.6-59.6c0.4-1.8,1-2.4,2-2.2
		c1.1,0.2,1.4,1.1,0.9,2.9c-6,24.5-12,49-17.9,73.6C46.2,122.7,45.9,123.5,44.7,123.5z"/>
	<path class="st1" d="M43.8,46.7c-1.4,0-2.5-1-2.5-2.4c0-1.6,1.4-3.1,3.1-3.1c1.4,0,2.5,1.1,2.5,2.4C46.9,45.3,45.4,46.7,43.8,46.7z
		"/>
	<path class="st1" d="M83.3,46.7c-1.4,0-2.5-1-2.5-2.4c0-1.6,1.4-3,3.1-3.1c1.4,0,2.5,1,2.5,2.5C86.4,45.4,85,46.7,83.3,46.7z"/>
	<path class="st1" d="M122.8,46.7c-1.5,0-2.5-1-2.4-2.5c0-1.6,1.4-3,3.1-3c1.4,0,2.5,1,2.4,2.5C125.9,45.4,124.5,46.8,122.8,46.7z"
		/>
</g>
<g>
	<path class="st1" d="M494.5,461.9c3.5-3.6,6.9-7.2,10.5-10.7c1.3-1.3,2.9-1,4.4,0.5c4,4,8.1,8.1,12.1,12.1
		c6.8,6.8,13.6,13.6,20.3,20.3c0.4,0.4,0.6,0.8,1,1.3c0.7-0.6,1.1-1,1.5-1.4c8.2-8.2,16.4-16.3,24.5-24.5c6.3-6.4,13.6-8.6,22.3-6.9
		c12.8,2.4,25.7,4.5,38.5,6.7c0.7,0.1,1.4,0.1,2.2,0.1c6,0,11.9,0,17.9,0c2.9,0,4,1.1,4,3.9c0,14.2,0,28.4,0,42.6
		c0,2.8-1,3.9-3.8,3.9c-3.6,0-7.2,0.1-10.7,0c-7.8-0.3-15.5,0.8-23.2,1.7c-1.4,0.2-2.9,0.4-4.3,0.5c-3.8,0.3-7.3,1.4-10.5,3.4
		c-4.8,3-9.8,5.9-14.6,8.9c-4.1,2.6-8.3,3.2-12.8,0.9c-0.3-0.2-1.1,0-1.4,0.3c-1.9,1.8-3.7,3.7-5.5,5.5c-1.9,1.9-3.5,1.8-5.4,0
		c-4.4-4.4-8.9-8.9-13.3-13.3c-0.4-0.4-0.7-0.9-1.2-1.8c-1.6,1.8-2.8,3.3-4.2,4.6c-7,6.5-18.2,3.1-20.3-6.2c-0.9-4.1,0-7.9,2.9-11.1
		c1.3-1.4,2.8-2.6,4.5-4.2c-0.8-0.6-1.3-0.9-1.8-1.3c-10.5-10.5-21-21-31.5-31.6c-0.7-0.7-1.3-1.6-2-2.4
		C494.5,463.1,494.5,462.5,494.5,461.9z M627.2,484.6c0-6,0-11.9,0-17.9c0-1.1-0.3-1.6-1.5-1.8c-11.8-2-23.7-3.9-35.5-6.2
		c-7-1.3-12.6,0.5-17.5,5.6c-11.4,11.7-23,23.1-34.6,34.7c-2.7,2.7-5.5,5.4-8.1,8.2c-3.3,3.5-1.8,9,2.7,10.2
		c2.5,0.6,4.5-0.1,6.3-1.9c10.2-10.2,20.3-20.4,30.6-30.6c4.8-4.7,12.2-4.8,16.7-0.2c4.6,4.6,4.5,11.8-0.2,16.6
		c-1.4,1.4-2.8,2.8-4.2,4.2c-2.1,2.1-4.2,4.1-6.1,6.2c-2.7,2.8-1.7,7.1,1.8,8.4c1.7,0.6,3.3,0.3,4.9-0.7c5.2-3.2,10.4-6.4,15.6-9.6
		c3.2-2,6.6-3.3,10.3-3.8c5.7-0.7,11.4-1.3,17.1-1.9c1.3-0.1,1.7-0.6,1.7-1.9C627.2,496.4,627.2,490.5,627.2,484.6z M633.6,465.8
		c0,12.7,0,25.2,0,37.8c4.7,0,9.3,0,13.9,0c0-12.7,0-25.2,0-37.8C642.7,465.8,638.2,465.8,633.6,465.8z M568.8,510.7
		c1.3-1.5,2.5-3.1,3.9-4.5c2.9-3,6-6,9-9c2.4-2.4,2.5-5.8,0.3-8c-2.2-2.2-5.6-2.1-8,0.3c-3.6,3.5-7.1,7.1-10.7,10.6
		c-0.9,0.9-1.9,1.6-2.7,2.4C563.5,505.4,566.2,508.1,568.8,510.7z M538.3,489.9c-7.6-7.6-15.2-15.2-22.7-22.7c-1.4,1.4-3,3-4.4,4.3
		c7.6,7.6,15.2,15.2,22.7,22.7C535.4,492.8,537,491.3,538.3,489.9z M556.2,507.5c-1.5,1.5-3.1,3-4.5,4.4c4.2,4.2,8.4,8.4,12.5,12.5
		c1.5-1.4,3.1-2.9,4.6-4.3C564.6,515.9,560.4,511.7,556.2,507.5z M507.1,458.3c-1.6,1.6-3.2,3.2-4.7,4.7c1.2,1.3,2.6,2.7,3.7,3.9
		c1.7-1.5,3.3-3.1,4.8-4.5C509.7,461,508.3,459.6,507.1,458.3z"/>
	<path class="st1" d="M529.7,378.9c3.9,0,7.8,0,11.7,0c1.3,0,2.6,0.4,3,1.7c0.3,0.9,0.2,2.1-0.1,3.1c-0.5,1.2-1.7,1.5-3,1.5
		c-7.3,0-14.5,0-21.8,0c-0.5,0-1,0-1.6,0c-2.7,0.2-4.6,2.3-4.5,4.8c0.1,2.5,2,4.4,4.6,4.5c1.5,0.1,3,0,4.5,0.3
		c6.5,1.4,10.9,7.4,10.3,13.8c-0.6,6.9-5.9,11.9-12.8,12.2c-5.9,0.2-10.6,3.7-11.7,9.1c-0.5,2.4-0.3,4.8-0.4,7.3c-0.1,1.5,0,3,0,4.5
		c-0.1,1.7-1.3,3-3,3c-1.5,0.1-3.1-1-3.1-2.6c0-4.4-0.3-9,0.5-13.3c1.6-8.3,8.7-13.9,17.2-14.1c4.2-0.1,7.3-3.1,7.2-7
		c0-3.9-3-6.8-7.2-6.8c-3.5,0-6.6-0.7-9.1-3.2c-3.2-3.3-4.2-7.3-2.5-11.6c1.7-4.5,5.3-6.9,10.1-7
		C521.9,378.8,525.8,378.9,529.7,378.9C529.7,378.9,529.7,378.9,529.7,378.9z"/>
	<path class="st1" d="M566,400.9c3.6,1.6,7.1,3.1,10.7,4.7c1.2,0.5,2.2,1.4,2.1,2.8c-0.1,1-0.6,2.1-1.3,2.7
		c-0.9,0.9-2.2,0.6-3.3,0.1c-6.6-3-13.3-5.9-19.9-8.8c-0.5-0.2-0.9-0.4-1.4-0.6c-2.5-0.9-5.1,0.3-6.1,2.6c-0.9,2.3,0,4.8,2.4,6
		c1.3,0.7,2.8,1.3,4,2.1c5.4,3.9,7,11.2,3.9,16.8c-3.4,6.1-10.2,8.5-16.7,5.9c-5.5-2.2-11.2-0.9-14.4,3.6c-1.4,2-2.3,4.3-3.3,6.5
		c-0.7,1.4-1.2,2.8-1.9,4.1c-0.8,1.5-2.4,2.2-3.9,1.6c-1.4-0.6-2.4-2.2-1.8-3.7c1.8-4.1,3.3-8.3,5.8-12c4.8-7,13.6-9.2,21.4-6
		c3.9,1.6,7.9,0.1,9.4-3.5c1.5-3.6,0-7.4-3.8-9.1c-3.2-1.4-5.8-3.3-7-6.6c-1.6-4.3-0.9-8.3,2.4-11.6c3.4-3.4,7.6-4.2,12-2.4
		C558.9,397.7,562.4,399.3,566,400.9C565.9,400.9,565.9,400.9,566,400.9z"/>
	<path class="st1" d="M558.9,382c0,1.7-1.4,3.1-3,3.1c-1.7,0-3.1-1.3-3.2-3c-0.1-1.7,1.4-3.3,3.1-3.2
		C557.4,379,558.9,380.4,558.9,382z"/>
</g>
</svg>
