<?xml version="1.0" encoding="utf-8"?>
<!-- Generator: Adobe Illustrator 24.3.0, SVG Export Plug-In . SVG Version: 6.00 Build 0)  -->
<svg version="1.1" id="Layer_1" xmlns="http://www.w3.org/2000/svg" xmlns:xlink="http://www.w3.org/1999/xlink" x="0px" y="0px"
	 viewBox="0 0 150 150" style="enable-background:new 0 0 150 150;" xml:space="preserve">
<style type="text/css">
	.st0{fill:#5F6368;}
	.st1{fill:#005BAB;}
</style>
<path class="st0" d="M2053.7-657.2c-2.1,0-3.6,0-5.1,0C2049.8-661.3,2051.5-660.2,2053.7-657.2z"/>
<g>
	<path class="st1" d="M149,32.4c-2.6,4.6-5.1,9.2-7.7,13.7c-7.7,13.4-15.4,26.7-23.1,40.1c-0.3,0.5-0.6,1-0.9,1.6
		c1,0.6,1.9,1.1,2.8,1.7c2,1.2,2.4,2.6,1.2,4.7c-1.9,3.3-3.8,6.5-5.6,9.8c-0.3,0.6-0.4,1.4-0.5,2.1c-0.1,0.5,0,1,0,1.4
		c0,11.3,0,22.6,0,33.9c0,2.4-0.4,3.1-2.7,4c-4.3,1.8-8.7,3-13.4,3.4c-0.3,0-0.6,0.2-1,0.2c-2.3,0-4.6,0-6.9,0
		c-2.5-0.5-5-0.8-7.5-1.4c-17.6-4.4-30.8-19-33.5-37c-0.1-0.5-0.1-1-0.2-1.4c-0.3-2.3,0-3,2-4.1c7.7-4.4,15.3-8.9,23-13.3
		c2.8-1.6,5.6-3.1,8.4-4.7c0.3-0.2,0.6-0.6,0.8-1c1.9-3.3,3.8-6.6,5.7-9.9c1.3-2.2,2.7-2.6,4.9-1.3c0.8,0.5,1.7,1,2.6,1.5
		c0.3-0.5,0.6-0.9,0.8-1.3c3.2-5.5,6.3-11,9.6-16.5c0.5-0.8,1.3-1.5,2.1-1.8c1.1-0.5,2.2,0,2.9,1c0.8,1,0.8,2.2,0.2,3.3
		c-1.1,1.9-2.2,3.9-3.3,5.8c-2.2,3.8-4.3,7.5-6.5,11.3c-0.2,0.4-0.4,0.8-0.7,1.3c3.1,1.8,6.1,3.6,9.4,5.4
		c10.2-17.7,20.4-35.5,30.7-53.3c-3.1-1.8-6.2-3.6-9.4-5.4c-0.3,0.5-0.6,0.9-0.8,1.4c-2.4,4.1-4.8,8.3-7.2,12.4
		c-0.1,0.3-0.3,0.5-0.4,0.8c-1,1.7-2.7,2.2-4.2,1.3c-1.4-0.8-1.8-2.5-0.9-4.2c0.7-1.2,1.4-2.4,2.1-3.6c2.1-3.7,4.2-7.4,6.4-11
		c1.8-3,4.7-3.8,7.8-2.1c2.9,1.6,5.7,3.4,8.6,5c1.9,1,3.3,2.3,3.9,4.4C149,31.1,149,31.7,149,32.4z M72.4,136
		c0.3-0.5,0.6-0.9,0.8-1.3c2.2-3.8,4.3-7.5,6.5-11.3c1.2-2,2.3-4,3.5-6c0.9-1.4,2.5-1.7,3.8-1c1.3,0.7,1.8,2.3,1.2,3.8
		c-0.2,0.4-0.5,0.9-0.7,1.3c-3.1,5.3-6.2,10.7-9.2,16c-0.3,0.4-0.5,0.9-0.8,1.5c5.1,2.6,10.4,4,16.2,4.2c0.2-2.3,0.5-4.5,0.7-6.7
		c0.4-3.8,0.8-7.6,1.2-11.4c0.2-1.7,1.3-2.7,2.8-2.8c1.4,0,2.7,0.9,2.9,2.3c0.1,0.6,0,1.3,0,1.9c-0.4,4.1-0.9,8.1-1.3,12.2
		c-0.1,1.4-0.2,2.7-0.4,4.5c3.3-0.9,6.3-1.7,9.2-2.6c0.4-0.1,0.9-0.9,0.9-1.3c0-10.1,0-20.3,0-30.4c0-0.5-0.4-1.2-0.8-1.4
		c-7.9-4.6-15.8-9.2-23.7-13.7c-0.4-0.2-1.1-0.2-1.5,0c-8.8,5-17.6,10.1-26.4,15.2c-0.3,0.2-0.8,0.7-0.8,1c0.6,2.8,1.3,5.5,2,8.5
		c0.8-0.6,1.3-0.9,1.7-1.2c3.9-2.8,7.7-5.6,11.6-8.4c1.6-1.2,3.3-1,4.3,0.4c1,1.4,0.6,3-0.9,4.3c-0.5,0.4-1,0.7-1.5,1.1
		c-4.1,3-8.2,6-12.4,9C64,128.7,67.7,132.7,72.4,136z M94.2,81.1c-1.7,2.9-3.3,5.7-4.9,8.5c7.1,4.1,14,8.1,21,12.1
		c1.7-2.9,3.3-5.7,4.9-8.5C108.2,89.2,101.3,85.2,94.2,81.1z"/>
	<path class="st1" d="M73.6,0.9c1.4,0.4,2.8,0.7,4.1,1.2c4.1,1.7,7,4.6,8.9,8.6c0.3,0.6,0.9,1.2,1.5,1.5c6.1,2.5,9.8,8.8,8.8,15.2
		c-1.1,6.5-6.5,11.3-13.2,11.7c-0.5,0-1.2,0.4-1.5,0.8c-4.6,5.2-10.3,7.5-17.1,6c-6.8-1.5-11.3-5.8-13.3-12.5
		c-0.1-0.2-0.1-0.4-0.2-0.5c0-0.1-0.1-0.2-0.2-0.3c-3.6,0.3-7-0.5-10-2.8c-2.3-1.7-3.9-4-4.8-6.7c-1.8-5.4,0-11.5,4.5-15.1
		c4.1-3.3,10.7-4.6,17-0.4C60,5.2,62.2,3.3,65,2.2c1.4-0.5,2.8-0.9,4.2-1.3C70.7,0.9,72.1,0.9,73.6,0.9z M49.2,10.6
		c-2.8,0.1-5.3,1.7-6.7,4.8c-1.4,3.1-1,6.1,1.3,8.6c2.2,2.6,5.1,3.3,8.4,2.4c3.4-0.9,4.6-0.1,4.9,3.3c0.4,5,3.8,9.1,8.7,10.4
		c4.8,1.3,9.9-0.6,12.6-4.8c1-1.6,2.2-2.3,4.2-2.1c4.3,0.4,8.1-2.6,8.7-6.7c0.6-4.4-2-8.2-6.3-9.2c-1.7-0.4-2.7-1.2-3.2-2.9
		c-1.3-4.4-5-7.4-9.4-7.7c-4.6-0.3-8.6,2-10.7,6.2c-1.4,2.8-3.5,3.1-5.6,0.7C54.4,11.6,52.3,10.6,49.2,10.6z"/>
	<path class="st1" d="M18,57.8c0.7-3.1,2.2-5.9,4.7-8.2c6.2-5.7,15.8-5.2,21.3,1.1c0.7,0.8,1.3,0.9,2.3,0.6c6.8-2.4,13-1.2,18.1,3.8
		c5.1,4.9,6.6,11.1,4.3,17.8c-2.3,6.8-7.2,10.9-14.4,11.6c-2.6,0.3-3.9,1.1-5.2,3.4c-7.5,12.8-26,12.6-33.7-0.1
		c-0.5-0.8-1-1.2-2-1.4C6.3,85.4,1.1,79.6,1,72.6c-0.1-7.1,4.6-13.1,11.6-14.5C14.3,57.8,16.1,57.9,18,57.8z M32.1,91.7
		c0.8-0.1,1.5-0.1,2.2-0.2c0.3,0,0.6-0.1,0.9-0.1c5.5-1.3,9.1-4.6,10.7-10.1c0.7-2.3,1.8-3,4-2.6c0.9,0.2,1.9,0.3,2.9,0.3
		c5-0.2,9.2-3.4,10.7-8.1c1.4-4.6-0.2-9.6-4-12.6c-3.9-3-9.1-3.2-13.4-0.5c-2.2,1.4-3.7,1-5-1.3c-2.2-4-6.4-5.9-10.6-4.8
		c-4.3,1.1-7,4.8-7,9.5c0.1,3.2-1.7,4.4-4.6,3.2c-3.4-1.4-7.1-0.8-9.6,1.8c-2.5,2.5-3.2,6.1-1.9,9.4c1.3,3.3,4.5,5.5,8.2,5.3
		c2-0.1,3.1,0.8,4,2.6C22.1,88.7,26.4,91.4,32.1,91.7z"/>
	<path class="st1" d="M9.7,114.7c0-2.3,1.1-3.6,3-3.6c1.7,0,2.7,1.2,2.8,3.3c0.4,5.5,3,9.6,8,11.9c1.6,0.8,3.5,1,5.3,1.3
		c2.1,0.3,3.3,1.3,3.2,3.1c-0.1,1.7-1.4,2.8-3.4,2.7C18.6,133.4,9.9,124.7,9.7,114.7z"/>
	<path class="st1" d="M12.6,143.1c-1.5,0-2.9-1.2-2.9-2.8c-0.1-1.6,1.2-2.9,2.7-3c1.6-0.1,3,1.3,3,2.9
		C15.4,141.7,14.2,143,12.6,143.1z"/>
	<path class="st1" d="M43.5,130.6c0,1.6-1.2,2.9-2.8,2.9c-1.6,0-3-1.4-2.9-2.9c0-1.6,1.3-2.8,2.9-2.8
		C42.3,127.7,43.5,129,43.5,130.6z"/>
	<path class="st1" d="M117,46.3c1.6,0,2.8,1.2,2.8,2.8c0,1.6-1.2,2.9-2.8,2.9c-1.6,0-3-1.3-2.9-2.9C114.2,47.5,115.5,46.3,117,46.3z
		"/>
	<path class="st1" d="M33.7,109.8c-1.6,0-2.8-1.3-2.8-2.9c0-1.6,1.3-2.8,2.9-2.8c1.6,0,2.9,1.3,2.9,3
		C36.6,108.7,35.3,109.9,33.7,109.8z"/>
	<path class="st1" d="M137.7,108.3c-0.1,5.8-5.3,11-11.1,11c-1.8,0-3-1.1-3.1-2.7c-0.1-1.7,1-2.8,2.8-3c3.5-0.4,5.3-2.2,5.6-5.6
		c0.2-1.8,1.3-2.9,3-2.8C136.6,105.1,137.7,106.4,137.7,108.3z"/>
	<path class="st1" d="M127.3,140.3c-1.6,0-2.8-1.3-2.8-2.9c0-1.6,1.4-2.9,3-2.8c1.6,0.1,2.8,1.4,2.7,3
		C130.1,139.1,128.8,140.3,127.3,140.3z"/>
</g>
<g>
	<path class="st1" d="M10.6-54.6c-0.6-0.3-0.8-0.8-0.8-1.5c0-1.4,0.1-2.7,0-4.1c-0.1-2.2,1-3.6,2.9-4.3c1-0.4,2.2-0.6,3.3-1
		c-0.1-0.2-0.3-0.4-0.5-0.6c-1.3-1.7-1.6-3.6-1.1-5.6c0.6-2.1,2.4-3.3,4.9-3.1c2.1,0.2,3.7,1.7,4,3.7c0.3,2-0.2,3.9-1.6,5.4
		c-0.1,0.1-0.1,0.1-0.2,0.2c2.6,0.5,5.3,0.9,6.2,3.9c0,2.3,0,4.5,0,6.8c-0.5,0-1,0-1.5,0c-0.5-0.4-0.7-0.9-0.7-1.5
		c0-1.4,0-2.8,0-4.2c0-1-0.4-1.6-1.2-2c-0.4-0.2-0.9-0.4-1.4-0.5c-2.1-0.5-4.2-0.7-6.3-0.4c-1.2,0.2-2.3,0.5-3.4,0.9
		c-0.9,0.3-1.3,1-1.3,2c0,1.4,0,2.8,0,4.3c0,0.6-0.2,1.1-0.7,1.5C11.1-54.6,10.8-54.6,10.6-54.6z M16.3-69.6c0,0.7,0.3,1.7,1,2.5
		c0.9,0.9,2,0.9,2.9,0c0.9-1,1.2-2.2,1-3.5c-0.2-1.3-0.9-2-2.2-2C17.2-72.7,16.3-71.8,16.3-69.6z"/>
	<path class="st1" d="M-40.1-54.6c-0.5-0.4-0.7-0.9-0.7-1.5c0-1.4,0-2.8,0-4.3c0-1.7,0.7-3,2.2-3.7c1.1-0.5,2.4-0.8,3.6-1.2
		c0.1,0,0.2,0,0.5-0.1c-0.9-1-1.6-2-1.7-3.2c-0.1-0.9-0.2-1.8,0-2.7c0.4-2.4,2.4-3.7,5-3.5c2.2,0.2,3.9,1.8,4,4.2
		c0.1,2-0.3,3.2-1.8,5.2c0.7,0.2,1.5,0.2,2.2,0.5c0.8,0.3,1.7,0.7,2.5,1.2c1,0.7,1.5,1.8,1.5,3c0,1.6,0,3.2,0,4.8
		c0,0.6-0.3,1-0.8,1.3c-0.2,0-0.4,0-0.7,0c-0.5-0.3-0.7-0.8-0.7-1.5c0-1.4,0-2.8,0-4.2c0-1.1-0.5-1.8-1.4-2.2
		c-0.4-0.2-0.8-0.3-1.3-0.4c-2.1-0.5-4.2-0.7-6.3-0.4c-1.1,0.2-2.3,0.5-3.3,0.9c-0.9,0.3-1.3,1-1.3,2c0.1,1.4,0,2.8,0,4.2
		c0,0.7-0.1,1.2-0.7,1.5C-39.5-54.6-39.8-54.6-40.1-54.6z M-29.3-70c0-0.2,0-0.4-0.1-0.7c-0.2-1.1-0.9-1.7-2-1.9
		c-1.4-0.1-2.3,0.3-2.7,1.3c-0.5,1.3-0.1,3.3,0.9,4.2c0.9,0.8,1.9,0.8,2.8,0C-29.6-67.9-29.3-68.9-29.3-70z"/>
	<path class="st1" d="M-14.8-54.6c-0.5-0.4-0.7-0.9-0.7-1.6c0-1.4,0-2.8,0-4.3c0-1.7,0.7-2.9,2.1-3.6c1.1-0.6,2.4-0.8,3.6-1.2
		c0.1,0,0.3,0,0.5-0.1c-0.9-1-1.6-2-1.8-3.3c-0.1-0.9-0.2-1.7,0-2.6c0.4-2.5,2.5-3.8,5.1-3.5c2.4,0.3,4,2.2,3.9,4.8
		c0,1.7-0.6,3.3-1.9,4.6c0.8,0.2,1.5,0.3,2.2,0.5c0.8,0.3,1.6,0.6,2.3,1c1.2,0.7,1.7,1.9,1.7,3.3c0,1.4,0,2.9,0,4.3
		c0,0.7-0.1,1.2-0.7,1.6c-0.3,0-0.5,0-0.8,0c-0.5-0.3-0.7-0.8-0.7-1.5c0-1.4,0-2.8,0-4.3c0-1-0.4-1.6-1.2-2
		c-0.4-0.2-0.9-0.4-1.4-0.5c-2.1-0.5-4.3-0.7-6.4-0.4C-9.8-63-11-62.7-12-62.4c-0.9,0.3-1.3,1-1.3,2c0,1.4,0,2.8,0,4.3
		c0,0.6-0.2,1.1-0.7,1.5C-14.3-54.6-14.5-54.6-14.8-54.6z M-4-70.1c0-0.1,0-0.4-0.1-0.7c-0.2-1.1-0.9-1.8-2.1-1.8
		c-1.4-0.1-2.3,0.4-2.6,1.5C-9.2-69.7-9-68.4-8-67.2c0.9,1.1,2.2,1.1,3.1,0C-4.3-68-4.1-68.9-4-70.1z"/>
	<path class="st1" d="M-7.6-84c-7.7,0-15.4,0-23.1,0c0,0.2,0,0.4,0,0.7c0,1.4,0,2.9,0,4.3c0,0.9-0.4,1.4-1.1,1.4
		c-0.7,0-1.1-0.5-1.1-1.4c0-1.9,0-3.8,0-5.7c0-1.1,0.3-1.5,1.5-1.5c7.6,0,15.3,0,22.9,0c0.3,0,0.5,0,0.9,0c0-0.8,0-1.6,0-2.3
		c0-0.9,0-1.8,0-2.7c0-0.7,0.5-1.1,1.1-1.1c0.6,0,1,0.5,1.1,1.1c0,1.4,0,2.8,0,4.1c0,0.2,0,0.5,0,0.8c0.3,0,0.6,0,0.8,0
		c7.6,0,15.2,0,22.8,0c1.4,0,1.7,0.2,1.7,1.7c0,1.9,0,3.7,0,5.6c0,0.8-0.4,1.3-1,1.3c-0.7,0-1.1-0.5-1.1-1.3c0-1.7,0-3.4,0-5.1
		C10-84,2.3-84-5.4-84c0,1.5,0,3,0,4.5c0,0.2,0,0.5,0,0.7c0,0.7-0.5,1.1-1.1,1.1c-0.6,0-1-0.4-1.1-1.1c0-1.5,0-3,0-4.5
		C-7.6-83.4-7.6-83.7-7.6-84z"/>
	<path class="st1" d="M-9.4-111.1c-2-1.8-2.8-3.9-2.7-6.4c0.1-3.7,2.9-6,6.5-5.5c2.9,0.4,4.6,2.4,4.7,5.3c0.1,2.6-0.7,4.8-2.7,6.5
		c1,0.2,1.9,0.3,2.7,0.5c1.4,0.3,2.7,0.8,3.8,1.6c1.1,0.9,1.8,2.1,1.8,3.5c0,3.1,0,6.1,0,9.2c0,0.5-0.1,1-0.7,1.1
		c-0.4,0.1-0.9,0-1.1-0.2c-0.2-0.2-0.3-0.7-0.3-1c0-2.8-0.1-5.6,0-8.4c0-1.5-0.6-2.5-1.9-3c-1.5-0.5-3-0.9-4.6-1.1
		c-2.8-0.4-5.7-0.2-8.5,0.6c-0.6,0.2-1.1,0.4-1.6,0.6c-1.1,0.6-1.7,1.4-1.6,2.7c0,2.9,0,5.7,0,8.6c0,0.6-0.2,1.1-0.8,1.2
		c-0.7,0.2-1.3-0.3-1.3-1c0-3.2,0-6.4,0-9.6c0-1.6,0.9-2.7,2.2-3.6c1.4-1,3-1.3,4.7-1.6C-10.4-110.9-9.9-111-9.4-111.1z M-3-116.7
		c0-2.5-0.9-3.8-2.7-4.1c-1.8-0.3-3.3,0.4-3.9,1.8c-0.7,1.8-0.2,4.5,1.2,5.9c1.2,1.1,2.8,1.1,3.9,0C-3.4-114.2-3.1-115.6-3-116.7z"
		/>
	<path class="st1" d="M-13.1-99.6c0-1.1,0-2.3,0-3.4c0-0.8,0.4-1.2,1-1.2c0.6,0,1.1,0.5,1.1,1.2c0,2.2,0,4.5,0,6.7
		c0,0.8-0.4,1.2-1.1,1.2c-0.6,0-1-0.4-1-1.2C-13.1-97.4-13.1-98.5-13.1-99.6z"/>
	<path class="st1" d="M0.1-99.7c0,1.1,0,2.3,0,3.4c0,0.8-0.4,1.2-1,1.2C-1.6-95-2-95.5-2-96.3c0-2.2,0-4.5,0-6.7
		c0-0.8,0.5-1.3,1.1-1.2c0.6,0,1,0.5,1,1.2C0.1-101.9,0.1-100.8,0.1-99.7z"/>
</g>
<g>
	<path class="st1" d="M149.4-46.5c-0.1,0.3-0.2,0.5-0.3,0.8c-0.7,2.2-2.7,3.7-5,3.7c-0.2,0-0.4,0-0.6,0c-24.6,0-49.2,0-73.8,0
		c-3,0-5.2-1.6-5.7-4.3c-0.5-2.5,0.7-5,3-6c0.5-0.2,0.7-0.5,0.8-1.1c1.2-8.6,7-15,15.2-16.9c3.7-0.8,7.4-0.6,11,0.8
		c0.5,0.2,0.8,0.1,1.2-0.3c0.9-1,1.8-1.9,2.7-2.8c0.2-0.2,0.4-0.6,0.4-1c0-3.5,0-7.1,0-10.6c0-1,0.7-1.6,1.8-1.6c1.3,0,2.6,0,3.8,0
		c0.3,0,0.6,0,0.9,0c0-7.7,0-15.3,0-22.9c-0.6,0-1.1,0-1.7,0c-2.8-0.1-4.9-2.2-5-4.9c0-1.1,0-2.2,0-3.3c0-1.2,0.7-1.8,1.8-1.8
		c4.3,0,8.7,0,13,0c1.2,0,1.8,0.7,1.8,1.8c0,1.1,0,2.2,0,3.3c-0.1,2.8-2.2,4.9-5,5c-0.5,0-1.1,0-1.6,0c0,7.6,0,15.2,0,22.9
		c1.5,0,2.9,0,4.3,0c1.8,0,2.3,0.5,2.3,2.3c0,1.2,0,2.4,0,3.6c2.1,0.1,4.1,0.3,6.1,0.4c0.6,0,1.1,0.2,1.6,0.3c1,0.2,1.5,1,1.4,1.9
		c-0.2,0.9-0.9,1.5-2,1.4c-1.6-0.2-3.3-0.5-4.9-0.5c-7.6,0-14,2.8-19.1,8.4c-0.1,0.1-0.2,0.3-0.3,0.3c1.4,1.3,2.9,2.5,4.1,3.9
		c2.5,2.8,3.9,6,4.5,9.7c0.1,0.6,0.3,0.8,0.8,0.8c1.9,0.2,3.8,0.5,5.7,0.5c9.5,0,18.9,0,28.4,0c0.2,0,0.4,0,0.8,0
		c-0.2-1.3-0.3-2.6-0.6-3.8c-1-4.7-3.3-8.8-6.7-12.3c-0.2-0.2-0.3-0.3-0.5-0.5c-0.7-0.8-0.7-1.7,0-2.4c0.7-0.7,1.7-0.7,2.4,0.1
		c1.5,1.8,3.1,3.5,4.4,5.4c2.6,3.9,3.9,8.4,4.3,13.1c0,0.2,0.1,0.6,0.3,0.7c2,0.8,3,2.3,3.6,4.2C149.4-47.7,149.4-47.1,149.4-46.5z
		 M106.6-45.3c12.2,0,24.4,0,36.6,0c0.3,0,0.6,0,0.9,0c1.1-0.1,2-1,2-2.1c0-1.1-0.8-2-2-2.1c-0.3,0-0.7,0-1,0c-9.9,0-19.9,0-29.8,0
		c-3.9,0-7.7-0.5-11.3-1.8c-2.7-0.9-5.4-2-8.2-2.8c-2.7-0.8-5.5-1.2-8.2,0c-1.3,0.6-2.6,1.4-3.9,2.1c-2.7,1.7-5.6,2.6-8.9,2.4
		c-1.2-0.1-2.4,0-3.6,0c-1.1,0-2,1-2,2.1c0,1.1,0.8,2,2,2.1c0.3,0,0.6,0,0.9,0C82.3-45.3,94.4-45.3,106.6-45.3z M71.2-52.9
		c2.6,0.2,5.1,0.2,7.4-1.2c1.2-0.7,2.4-1.4,3.6-2.1c2.7-1.5,5.5-2.2,8.6-1.9c2.4,0.3,4.7,1,7,1.8c1.7,0.6,3.4,1.2,5.1,1.8
		c-0.6-5.3-6.3-12.9-15.6-13C78-67.4,71.6-59.7,71.2-52.9z M111.7-82.4c-3.4,0-6.7,0-10,0c0,2.3,0,4.6,0,6.9c0.1,0,0.1,0,0.1,0
		c3-1.7,6.1-3.1,9.5-3.7c0.2,0,0.4-0.3,0.4-0.5C111.7-80.6,111.7-81.5,111.7-82.4z M111.6-115.4c-3.3,0-6.6,0-10,0
		c0,0.4,0,0.8,0,1.2c0,1.5,0.6,2.1,2.1,2.1c1.6,0,3.3-0.1,4.9,0c3,0.1,3.1-0.9,3-3.2C111.6-115.3,111.6-115.3,111.6-115.4z"/>
	<path class="st1" d="M131.2-75.1c0,0.9-0.7,1.7-1.6,1.7c-0.9,0-1.7-0.8-1.7-1.7c0-0.9,0.8-1.6,1.7-1.6
		C130.5-76.7,131.2-76,131.2-75.1z"/>
	<path class="st1" d="M115.9-69.3c0.9,0,1.7,0.7,1.7,1.6c0,0.9-0.7,1.7-1.6,1.7c-1,0-1.7-0.7-1.7-1.7
		C114.3-68.6,115-69.3,115.9-69.3z"/>
	<path class="st1" d="M128-58.1c-0.9,0-1.7-0.7-1.7-1.6c0-0.9,0.7-1.7,1.7-1.7c0.9,0,1.6,0.8,1.7,1.7
		C129.7-58.9,128.9-58.1,128-58.1z"/>
	<path class="st1" d="M83.3-63.7c0.9,0,1.6,0.8,1.6,1.7c0,0.9-0.8,1.7-1.7,1.7c-0.9,0-1.7-0.8-1.6-1.8C81.6-63,82.4-63.7,83.3-63.7z
		"/>
</g>
</svg>
