<?xml version="1.0" encoding="utf-8"?>
<!-- Generator: Adobe Illustrator 24.3.0, SVG Export Plug-In . SVG Version: 6.00 Build 0)  -->
<svg version="1.1" id="Layer_1" xmlns="http://www.w3.org/2000/svg" xmlns:xlink="http://www.w3.org/1999/xlink" x="0px" y="0px"
	 viewBox="0 0 150 150" style="enable-background:new 0 0 150 150;" xml:space="preserve">
<style type="text/css">
	.st0{fill:#5F6368;}
	.st1{fill:#005BAB;}
</style>
<path class="st0" d="M2053.7-657.2c-2.1,0-3.6,0-5.1,0C2049.8-661.3,2051.5-660.2,2053.7-657.2z"/>
<g>
	<path class="st1" d="M112.4,149.7c-1.3-0.7-1.7-1.8-1.7-3.2c0.1-3,0.1-5.9,0-8.9c-0.2-4.7,2.1-7.8,6.3-9.4c2.3-0.9,4.7-1.4,7.2-2.1
		c-0.3-0.4-0.7-0.9-1.1-1.4c-2.8-3.7-3.5-7.9-2.4-12.3c1.2-4.7,5.3-7.1,10.7-6.7c4.6,0.3,8.1,3.6,8.7,8.2c0.6,4.5-0.4,8.5-3.6,11.9
		c-0.1,0.1-0.2,0.3-0.3,0.5c5.7,1.1,11.5,2,13.5,8.6c0,5,0,9.9,0,14.9c-1.1,0-2.1,0-3.2,0c-1.2-0.8-1.5-2-1.5-3.4
		c0.1-3.1,0-6.1,0.1-9.2c0.1-2.1-0.9-3.5-2.7-4.4c-1-0.5-2-0.8-3-1.1c-4.6-1.1-9.2-1.6-13.9-0.8c-2.5,0.4-5,1.1-7.4,1.9
		c-1.9,0.7-2.9,2.3-2.8,4.5c0.1,3.1,0,6.2,0,9.3c0,1.4-0.3,2.5-1.5,3.2C113.3,149.7,112.9,149.7,112.4,149.7z M124.8,116.9
		c0,1.5,0.6,3.7,2.3,5.4c1.9,2,4.4,2,6.2,0c1.9-2.1,2.5-4.7,2.2-7.6c-0.4-2.8-2-4.3-4.9-4.4C126.8,110.2,124.8,112.1,124.8,116.9z"
		/>
	<path class="st1" d="M1.8,149.7c-1.2-0.8-1.5-2-1.5-3.4c0.1-3.1,0.1-6.2,0-9.3c-0.1-3.7,1.5-6.5,4.7-8c2.5-1.2,5.2-1.7,7.8-2.6
		c0.3-0.1,0.5-0.1,1.1-0.2c-2-2.1-3.4-4.4-3.8-7.1c-0.2-1.9-0.4-4,0-5.9c1-5.2,5.2-8,10.9-7.6c4.9,0.4,8.4,4,8.8,9.1
		c0.3,4.4-0.6,6.9-4,11.4c1.6,0.4,3.3,0.5,4.8,1.1c1.9,0.7,3.7,1.4,5.3,2.5c2.3,1.5,3.4,3.9,3.4,6.6c0,3.5,0,7,0,10.5
		c0,1.3-0.6,2.2-1.7,2.8c-0.5,0-1,0-1.5,0c-1.2-0.7-1.6-1.8-1.5-3.2c0.1-3.1-0.1-6.1,0.1-9.2c0.1-2.4-1-3.9-3.1-4.8
		c-0.9-0.4-1.8-0.7-2.7-0.9c-4.6-1.1-9.2-1.6-13.9-0.8c-2.5,0.4-4.9,1.1-7.3,1.9c-1.9,0.7-2.9,2.2-2.8,4.4c0.1,3.1,0,6.1,0.1,9.2
		c0,1.4-0.3,2.6-1.5,3.4C2.9,149.7,2.4,149.7,1.8,149.7z M25.2,115.9c0-0.4,0-1-0.1-1.5c-0.4-2.3-1.9-3.8-4.3-4.1
		c-3-0.3-5,0.7-5.9,2.9c-1.1,2.8-0.2,7.1,1.9,9.2c1.9,1.8,4.2,1.8,6-0.1C24.5,120.7,25.2,118.5,25.2,115.9z"/>
	<path class="st1" d="M56.9,149.7c-1.1-0.9-1.5-2-1.5-3.4c0.1-3.1,0.1-6.2,0-9.3c-0.1-3.6,1.5-6.4,4.6-8c2.5-1.2,5.3-1.8,8-2.6
		c0.3-0.1,0.5-0.1,1.1-0.2c-2.1-2.1-3.5-4.4-3.8-7.2c-0.2-1.9-0.4-3.8-0.1-5.6c1-5.4,5.4-8.3,11.2-7.7c5.3,0.6,8.7,4.7,8.6,10.5
		c-0.1,3.8-1.3,7.1-4.1,10c1.7,0.4,3.4,0.6,4.9,1.1c1.7,0.6,3.5,1.3,5,2.3c2.5,1.6,3.8,4.1,3.7,7.2c0,3.2-0.1,6.3,0,9.5
		c0,1.4-0.2,2.7-1.5,3.6c-0.6,0-1.2,0-1.8,0c-1.2-0.8-1.5-1.8-1.5-3.2c0.1-3.1,0-6.2,0-9.3c0.1-2.1-0.9-3.5-2.7-4.4
		c-1-0.5-2-0.9-3-1.1c-4.6-1.1-9.3-1.6-14-0.8c-2.5,0.4-4.9,1.1-7.3,1.9c-1.9,0.7-2.9,2.2-2.8,4.5c0.1,3.1,0,6.2,0,9.3
		c0,1.4-0.3,2.5-1.5,3.2C58.1,149.7,57.5,149.7,56.9,149.7z M80.4,115.9c0-0.3,0-0.9-0.1-1.5c-0.4-2.4-2.1-3.9-4.6-4
		c-3.1-0.2-5.1,0.9-5.7,3.4c-0.8,3-0.3,5.9,1.7,8.4c2,2.4,4.7,2.4,6.7,0C79.8,120.4,80.3,118.4,80.4,115.9z"/>
	<path class="st1" d="M72.7,85.5c-16.9,0-33.6,0-50.4,0c0,0.5-0.1,1-0.1,1.4c0,3.2,0,6.3,0,9.5c0,2-0.8,3.1-2.3,3.1
		c-1.5,0-2.3-1-2.4-3c0-4.2,0-8.4,0-12.5c0-2.5,0.7-3.2,3.2-3.2c16.7,0,33.4,0,50,0c0.6,0,1.2,0,1.9,0c0-1.8,0-3.4,0-5
		c0-1.9,0-3.9,0-5.8c0-1.5,1-2.5,2.3-2.5c1.3,0,2.3,1,2.3,2.5c0,3,0,6,0,9c0,0.5,0,1.1,0,1.8c0.7,0,1.2,0,1.8,0
		c16.6,0,33.2,0,49.7,0c3.1,0,3.6,0.5,3.6,3.7c0,4.1,0,8.2,0,12.3c0,1.8-0.8,2.8-2.2,2.8c-1.5,0-2.4-1-2.4-2.8c0-3.7,0-7.4,0-11.2
		c-16.9,0-33.6,0-50.5,0c0,3.3,0,6.6,0,9.9c0,0.5,0,1.1,0,1.6c-0.1,1.5-1,2.5-2.3,2.4c-1.3,0-2.3-1-2.3-2.5c0-3.3,0-6.5,0-9.8
		C72.7,86.8,72.7,86.2,72.7,85.5z"/>
	<path class="st1" d="M68.7,26.4c-4.4-3.9-6.1-8.5-6-14C62.9,4.4,69-0.7,77,0.4c6.3,1,10.1,5.2,10.3,11.6c0.2,5.6-1.5,10.4-5.9,14.3
		c2.1,0.4,4.1,0.7,6,1.1c3,0.6,5.8,1.6,8.2,3.6c2.4,2,3.9,4.5,3.9,7.6c0.1,6.7,0,13.3,0,20c0,1.1-0.3,2.2-1.4,2.4
		c-0.8,0.2-1.9,0-2.5-0.5c-0.5-0.4-0.7-1.4-0.7-2.2c-0.1-6.1-0.1-12.3,0-18.4c0.1-3.2-1.3-5.5-4.2-6.5c-3.2-1.1-6.6-2-10-2.5
		c-6.2-0.9-12.4-0.4-18.5,1.3c-1.2,0.3-2.4,0.8-3.5,1.4c-2.4,1.2-3.6,3.2-3.6,6c0.1,6.3,0,12.5,0,18.8c0,1.3-0.4,2.3-1.8,2.7
		c-1.5,0.4-2.9-0.6-2.9-2.3c0-7-0.1-13.9,0-20.9c0.1-3.4,2-5.9,4.8-7.8c3.1-2.1,6.7-2.9,10.2-3.5C66.5,26.7,67.5,26.6,68.7,26.4z
		 M82.6,14c0-5.5-1.9-8.2-6-8.9c-3.9-0.7-7.3,0.9-8.6,3.9c-1.6,3.9-0.4,9.9,2.7,12.9c2.6,2.5,6,2.5,8.6-0.1
		C81.7,19.5,82.5,16.5,82.6,14z"/>
	<path class="st1" d="M60.6,51.4c0-2.5,0-5,0-7.4c0-1.7,0.9-2.7,2.2-2.7c1.4-0.1,2.4,1,2.4,2.7c0,4.9,0,9.8,0,14.7
		c0,1.7-0.9,2.7-2.4,2.7c-1.4,0-2.2-1-2.2-2.7C60.6,56.3,60.6,53.8,60.6,51.4z"/>
	<path class="st1" d="M89.4,51.3c0,2.5,0,5,0,7.4c0,1.7-0.9,2.6-2.2,2.7c-1.5,0-2.4-0.9-2.4-2.7c0-4.9,0-9.8,0-14.7
		c0-1.7,1-2.8,2.4-2.7c1.3,0.1,2.2,1.1,2.2,2.7C89.4,46.4,89.4,48.8,89.4,51.3z"/>
</g>
<g>
	<path class="st1" d="M149.4-46.5c-0.1,0.3-0.2,0.5-0.3,0.8c-0.7,2.2-2.7,3.7-5,3.7c-0.2,0-0.4,0-0.6,0c-24.6,0-49.2,0-73.8,0
		c-3,0-5.2-1.6-5.7-4.3c-0.5-2.5,0.7-5,3-6c0.5-0.2,0.7-0.5,0.8-1.1c1.2-8.6,7-15,15.2-16.9c3.7-0.8,7.4-0.6,11,0.8
		c0.5,0.2,0.8,0.1,1.2-0.3c0.9-1,1.8-1.9,2.7-2.8c0.2-0.2,0.4-0.6,0.4-1c0-3.5,0-7.1,0-10.6c0-1,0.7-1.6,1.8-1.6c1.3,0,2.6,0,3.8,0
		c0.3,0,0.6,0,0.9,0c0-7.7,0-15.3,0-22.9c-0.6,0-1.1,0-1.7,0c-2.8-0.1-4.9-2.2-5-4.9c0-1.1,0-2.2,0-3.3c0-1.2,0.7-1.8,1.8-1.8
		c4.3,0,8.7,0,13,0c1.2,0,1.8,0.7,1.8,1.8c0,1.1,0,2.2,0,3.3c-0.1,2.8-2.2,4.9-5,5c-0.5,0-1.1,0-1.6,0c0,7.6,0,15.2,0,22.9
		c1.5,0,2.9,0,4.3,0c1.8,0,2.3,0.5,2.3,2.3c0,1.2,0,2.4,0,3.6c2.1,0.1,4.1,0.3,6.1,0.4c0.6,0,1.1,0.2,1.6,0.3c1,0.2,1.5,1,1.4,1.9
		c-0.2,0.9-0.9,1.5-2,1.4c-1.6-0.2-3.3-0.5-4.9-0.5c-7.6,0-14,2.8-19.1,8.4c-0.1,0.1-0.2,0.3-0.3,0.3c1.4,1.3,2.9,2.5,4.1,3.9
		c2.5,2.8,3.9,6,4.5,9.7c0.1,0.6,0.3,0.8,0.8,0.8c1.9,0.2,3.8,0.5,5.7,0.5c9.5,0,18.9,0,28.4,0c0.2,0,0.4,0,0.8,0
		c-0.2-1.3-0.3-2.6-0.6-3.8c-1-4.7-3.3-8.8-6.7-12.3c-0.2-0.2-0.3-0.3-0.5-0.5c-0.7-0.8-0.7-1.7,0-2.4c0.7-0.7,1.7-0.7,2.4,0.1
		c1.5,1.8,3.1,3.5,4.4,5.4c2.6,3.9,3.9,8.4,4.3,13.1c0,0.2,0.1,0.6,0.3,0.7c2,0.8,3,2.3,3.6,4.2C149.4-47.7,149.4-47.1,149.4-46.5z
		 M106.6-45.3c12.2,0,24.4,0,36.6,0c0.3,0,0.6,0,0.9,0c1.1-0.1,2-1,2-2.1c0-1.1-0.8-2-2-2.1c-0.3,0-0.7,0-1,0c-9.9,0-19.9,0-29.8,0
		c-3.9,0-7.7-0.5-11.3-1.8c-2.7-0.9-5.4-2-8.2-2.8c-2.7-0.8-5.5-1.2-8.2,0c-1.3,0.6-2.6,1.4-3.9,2.1c-2.7,1.7-5.6,2.6-8.9,2.4
		c-1.2-0.1-2.4,0-3.6,0c-1.1,0-2,1-2,2.1c0,1.1,0.8,2,2,2.1c0.3,0,0.6,0,0.9,0C82.3-45.3,94.4-45.3,106.6-45.3z M71.2-52.9
		c2.6,0.2,5.1,0.2,7.4-1.2c1.2-0.7,2.4-1.4,3.6-2.1c2.7-1.5,5.5-2.2,8.6-1.9c2.4,0.3,4.7,1,7,1.8c1.7,0.6,3.4,1.2,5.1,1.8
		c-0.6-5.3-6.3-12.9-15.6-13C78-67.4,71.6-59.7,71.2-52.9z M111.7-82.4c-3.4,0-6.7,0-10,0c0,2.3,0,4.6,0,6.9c0.1,0,0.1,0,0.1,0
		c3-1.7,6.1-3.1,9.5-3.7c0.2,0,0.4-0.3,0.4-0.5C111.7-80.6,111.7-81.5,111.7-82.4z M111.6-115.4c-3.3,0-6.6,0-10,0
		c0,0.4,0,0.8,0,1.2c0,1.5,0.6,2.1,2.1,2.1c1.6,0,3.3-0.1,4.9,0c3,0.1,3.1-0.9,3-3.2C111.6-115.3,111.6-115.3,111.6-115.4z"/>
	<path class="st1" d="M131.2-75.1c0,0.9-0.7,1.7-1.6,1.7c-0.9,0-1.7-0.8-1.7-1.7c0-0.9,0.8-1.6,1.7-1.6
		C130.5-76.7,131.2-76,131.2-75.1z"/>
	<path class="st1" d="M115.9-69.3c0.9,0,1.7,0.7,1.7,1.6c0,0.9-0.7,1.7-1.6,1.7c-1,0-1.7-0.7-1.7-1.7
		C114.3-68.6,115-69.3,115.9-69.3z"/>
	<path class="st1" d="M128-58.1c-0.9,0-1.7-0.7-1.7-1.6c0-0.9,0.7-1.7,1.7-1.7c0.9,0,1.6,0.8,1.7,1.7
		C129.7-58.9,128.9-58.1,128-58.1z"/>
	<path class="st1" d="M83.3-63.7c0.9,0,1.6,0.8,1.6,1.7c0,0.9-0.8,1.7-1.7,1.7c-0.9,0-1.7-0.8-1.6-1.8C81.6-63,82.4-63.7,83.3-63.7z
		"/>
</g>
</svg>
