<?xml version="1.0" encoding="utf-8"?>
<!-- Generator: Adobe Illustrator 24.3.0, SVG Export Plug-In . SVG Version: 6.00 Build 0)  -->
<svg version="1.1" id="Layer_1" xmlns="http://www.w3.org/2000/svg" xmlns:xlink="http://www.w3.org/1999/xlink" x="0px" y="0px"
	 viewBox="0 0 150 150" style="enable-background:new 0 0 150 150;" xml:space="preserve">
<style type="text/css">
	.st0{fill:#5F6368;}
	.st1{fill:#005BAB;}
</style>
<path class="st0" d="M2053.7-657.2c-2.1,0-3.6,0-5.1,0C2049.8-661.3,2051.5-660.2,2053.7-657.2z"/>
<g>
	<path class="st1" d="M47.2,143.8c1.1-1.4,2.1-2.8,3.2-4.2c0.3,0.2,0.5,0.4,0.8,0.6c-1.3,1.8-2.5,3.5-3.7,5.2
		c-2.5-1.2-4.4-2.1-6.4-3.1c-0.3,0.3-0.5,0.5-0.8,0.8c0.4,0.9,0.7,2,1.3,2.6c2.8,2.7,8.7,2.2,11.1-0.9c1.4-1.8,2.4-3.8,3.5-5.7
		c1.2-1.9,2-4.1,3.5-5.7c2.9-3.1,3.8-6.6,3.4-10.7c0-0.4,0-0.8,0-1.1c-1.6-9.2,0.3-17.7,4.9-25.9c3.4-6.2,3.5-13.3,0.9-19.6
		c-4.9-11.8-3.9-23.7-1.9-35.7C69,28.7,70.3,17,69.7,5c0-0.9,0.2-1.8,0.3-2.7c0.3,0,0.7-0.1,1-0.1c0.2,1.2,0.7,2.4,0.7,3.6
		c-0.2,7.2-0.2,14.5-0.8,21.7c-0.9,9.2-2.3,18.3-3.5,27.4c-0.7,5.5,0.3,10.6,2,15.8c1.1,3.3,2.1,6.7,2.6,10.1c1,6.5,0,12.7-3.3,18.4
		c-3.6,6.2-4.9,12.7-3.6,19.8c0.4,2.3,0.4,4.7,0.2,7.1c-0.1,1.7-0.5,3.5-1.4,5c-2.8,4.7-5.7,9.4-8.8,13.9c-3.2,4.8-9.3,6.3-13.7,2.8
		c-2.8-2.3-7.2-2.5-8.5-6.6c-3.4-0.7-3.4-4.6-5.8-6.4c-0.7-0.5-0.6-2-0.8-3.1c-0.2-1,0-2.1-0.4-2.9c-1.4-2.5-0.6-4.5,0.9-6.6
		c0.5-0.7,1-1.4,1.6-2.1c2.4-2.7,3.3-5.7,3.1-9.3c-0.2-5.2,0-10.3,3.3-14.7c-3.2-5.6-2.7-11.4-1.8-17.3
		C16.7,55.3,11.8,29.3,15.4,1.5c0.6-0.1,1.1-0.2,1.7-0.3c0,1.1,0.1,2.3,0,3.4c-2.5,21.2,0.7,41.5,10.1,60.8
		c4.5,9.2,10.6,17.2,18.9,23.4c0.7,0.5,1.2,1.3,1.6,2.2c-3.1,0.1-4.7-2.2-6.7-3.9c-2.1-1.7-3.9-3.7-6.2-6
		c-0.6,5.4-1.2,10.5,2.3,14.3c3.2,3.4,7.5,5.8,11.8,9.1c-3.1,0.5-4.9-1.3-6.9-2.4c-2-1.1-3.9-2.6-6.3-4.3c-0.7,2.3-1.5,4.2-1.9,6.2
		c-0.4,2.1-0.6,4.2-0.4,6.3c0.3,4.4-0.9,8.1-3.8,11.4c-1.1,1.2-1.7,2.8-2.9,4.9c2.7-1.3,3.2-4.4,6.5-3.6c-2.6,3.2-5.8,5.9-4.4,11
		c1.9-3.3,2.8-6.9,6.7-7.7c-2.1,3.9-6,7-3,12.8c1.5-4.3,2.2-8.4,6-10.4c0.3,0.1,0.5,0.3,0.8,0.4c-0.4,0.7-0.6,1.6-1.1,2.2
		c-1.8,2.3-3,4.9-3,7.9c0,1.8,0.5,3.2,2.8,3.6c1.1-4.5,3.4-8.2,7.5-10.7c-0.3,3.4-4,5.1-4.5,8.3C42.8,141.7,44.8,142.7,47.2,143.8z"
		/>
	<path class="st1" d="M79.9,2.1c0.1,0.8,0.4,1.6,0.3,2.4c-0.9,13.7,1.2,27.1,3.3,40.6c1.6,10,1.8,19.8-2,29.4
		c-3.3,8.2-2.7,16.4,1.7,24.2c3.4,5.9,5.1,12.2,3.8,19c-0.2,1.3-0.1,2.7-0.2,4.1c-0.5,4.5,0.5,8.5,3.6,12.1c2.4,2.8,3.8,6.4,5.8,9.6
		c2.4,3.8,5.5,4.9,9.6,3.6c1.9-0.6,3.7-1.5,3.6-4c-2.8-1.2-4.1,1.5-6.2,2.2c-2.6-0.7-3.3-3-4.4-5c0.2-0.2,0.4-0.4,0.6-0.5
		c1.1,1.4,2.2,2.8,3.3,4.1c2.1-1,4.1-1.9,6.5-3.1c-0.8-1.3-1.7-2.7-2.7-4.1c-0.8-1.2-1.8-2.4-2.4-3.7c3.5,0.8,5.9,4,8,10.3
		c2-0.2,3-1.6,2.6-3.3c-0.5-2.5-1.4-4.9-2.3-7.3c-0.4-1-1.2-1.8-2-2.9c3.4,0.1,4.3,1.4,6.8,9c2.6-2.7,2.4-3.6-2.9-11.7
		c2.5-0.5,2.5-0.5,6.7,6.6c1.1-3.4,1.1-3.4-3.8-10.1c2-0.4,2-0.4,5.6,2.6c-0.7-1.3-1.1-2.8-2.1-3.8c-3.2-3.6-4.3-7.6-4.1-12.4
		c0.2-3.9,0-8-2.6-11.6c-2.1,1.4-4.1,2.9-6.2,4.1c-1.9,1.1-3.7,2.7-7.1,2c5.6-4.1,12.6-5.7,14.1-12.8c0.7-3.2,0.6-6.6,0.9-9.9
		c-0.3-0.1-0.5-0.2-0.8-0.3c-1.9,1.9-3.7,3.9-5.8,5.6c-2,1.7-3.7,3.9-7.2,4.4c0.7-1.1,0.9-1.8,1.4-2.2c14.2-10.6,21.8-25.4,26.4-42
		c4-14.1,5.1-28.4,3.2-43c-0.1-0.7-0.1-1.5-0.1-2.2c0-0.3,0.3-0.6,0.8-1.9c0.6,1.9,1.2,3,1.3,4.2c2.1,16.7,0.3,33.1-5,49.1
		c-2.9,9-7.1,17.3-12.8,25c0.7,5.8,1.5,11.8-1.9,17.6c3.2,4.4,3.6,9.5,3.3,14.6c-0.2,3.5,0.7,6.6,3.1,9.3c2.4,2.8,4.7,5.7,2.1,9.7
		c1.4,4-1.7,6.8-3.7,9c-2.2,2.3-3.7,5.9-7.6,6.5c-0.6,0.1-1.2,0.7-1.8,1.2c-5.5,4.8-12.1,4-16-2c-2.9-4.4-5.7-8.8-8.3-13.3
		c-0.9-1.5-1.3-3.5-1.4-5.3c-0.1-2.7,0-5.5,0.3-8.2c0.8-5.7,0.3-11.2-2.8-16.3c-5.9-9.7-6-19.9-1.9-30.2c3-7.4,2.6-14.9,1.6-22.5
		c-1.2-9.6-2.7-19.3-3.7-28.9c-0.5-4.6-0.2-9.2-0.2-13.8c0-1.3,0.4-2.6,0.6-3.9C79.2,2,79.6,2.1,79.9,2.1z"/>
	<path class="st1" d="M22.7,6.6c-0.3,5.2-0.6,9.6-0.9,14.3C20.4,17.8,20.7,10.9,22.7,6.6z"/>
	<path class="st1" d="M128,20.7c-0.3-4.4-0.5-8.8-0.8-13.2c0.3,0,0.6,0,0.8,0c1,4.4,1.1,8.8,0.8,13.2
		C128.6,20.6,128.3,20.7,128,20.7z"/>
	<path class="st1" d="M46.4,97.3c3.3,1.6,6.6,3.3,9.9,4.9c-0.1,0.3-0.3,0.6-0.4,0.9c-3.5-1.2-6.7-3.1-9.9-4.8
		C46.1,98,46.2,97.7,46.4,97.3z"/>
	<path class="st1" d="M104.1,98.4c-3.3,1.6-6.6,3.3-9.9,4.9c-0.2-0.4-0.3-0.7-0.5-1.1c3.3-1.6,6.6-3.3,9.9-4.9
		C103.7,97.7,103.9,98.1,104.1,98.4z"/>
</g>
<g>
	<path class="st1" d="M104.5,283.1c2.9,0.8,5.8,1.6,8.7,2.5c1,0.3,2,0.4,2.8,1.1c1,0.8,2.1,1.4,3.1,2.2c0.4,0.3,0.6,0.4,1,0
		c0,0,0.1,0,0.2,0c-0.1,0.2-0.3,0.4-0.5,0.7c0.3,0.2,0.6,0.4,0.7,0.7c0.9,1.7,1.9,3.3,2.8,5c0.4,0.9,1,1.2,1.8,0.9
		c0.7-0.3,1-0.9,0.7-1.8c-1.5-4.2-4.1-7.6-8.1-9.8c-1-0.6-2-1-2.8,0.2c0,0-0.1,0-0.2,0c0.3-0.4,0.6-0.7,0.9-1.2
		c-0.7-0.2-1.3-0.4-2-0.6c0.1,0.4,0.1,0.6,0.2,0.9c-0.8-1-0.8-1-2-1.4c-3.8-1-7.6-2.2-11.1-4.3c-1.4-0.8-2.7-1.8-3.6-3.2
		c-0.9-1.4-0.8-2.9,0.3-4.2c0.7-0.8,1.3-1.7,1.8-2.7c1.2-2.2,1.8-4.6,2.4-7c0.1-0.4,0.4-0.8,0.7-1c1.4-0.7,2.5-1.8,3.1-3.2
		c1.1-2.5,1.2-5.1,0.3-7.7c-0.1-0.3-0.2-0.7-0.1-1c1-4.3,1-8.6,0.3-12.9c-0.9-5.3-3.8-8.9-9.2-10.2c-0.9-0.2-1.8-0.3-2.7-0.5
		c-1.7-0.2-3.4-0.2-5.1-0.7c-2.3-0.7-4.7-0.9-7.1-0.6c-3.1,0.4-6.2,1.1-9.4,1.5c-5.7,0.7-9.1,3.9-10.4,9.5c-1,4.5-0.9,9,0,13.5
		c0.1,0.4,0.1,0.8,0,1.2c-0.2,1.5-0.6,3-0.6,4.5c0.1,2.7,1.1,5.1,3.6,6.4c0.7,0.4,1,0.8,1.2,1.6c0.8,3.7,1.9,7.1,4.7,9.9
		c0.2,0.2,0.3,0.5,0.3,0.7c0.1,1.3-0.1,2.6-1.2,3.5c-1,0.9-1.9,1.8-3,2.4c-3.8,2.2-7.9,3.5-12.1,4.6c-6.2,1.5-10.6,5.2-12.9,11.2
		c-1,2.6-1.6,5.3-1.6,8c-0.1,6.6-0.1,13.2-0.2,19.8c0,0.2,0,0.4,0.1,0.6c0.2,0.6,0.6,1,1.3,0.9c0.6,0,1.1-0.4,1.2-1
		c0.1-0.3,0-0.6,0-0.9c0-5.4,0-10.9,0-16.3c0-2.2,0.3-4.4,0.6-6.6c0.7-4,2.4-7.6,5.5-10.2c-0.1-0.6-0.1-1.2,0.1-1.6
		c0.2-0.3,0.9-0.4,1.4-0.7c-0.6,0.4-1,0.7-1.4,1.1c-0.1,0.1,0,0.5,0.1,0.8c0.2,0,0.5,0,0.7-0.1c1.7-1.2,3.7-1.9,5.8-2.5
		c2.2-0.6,4.4-1.3,6.6-2c0.3-0.1,0.6-0.2,0.9-0.3c0.1,0.3,0.2,0.5,0.3,0.8c1.4,3.7,3.8,6.6,7.1,8.8c5.6,3.6,11.7,4.5,18.1,3.3
		c7.3-1.4,12.7-5.4,15.5-12.5C104.4,283.2,104.5,283.1,104.5,283.1z M101.5,231.2c1.3,1.8,1.8,3.9,2.1,6c0.3,3,0.3,6-0.1,9
		c0,0.1-0.1,0.2-0.1,0.5c-1.4-1.2-2-2.7-2.2-4.3c-0.2-1.7-0.3-3.5-0.4-5.2c-0.2-3.5-1.3-6.6-4-9c-0.1-0.1-0.1-0.1-0.2-0.3
		C98.6,228.4,100.2,229.5,101.5,231.2z M73.8,229.3c5.8-4.5,14.4-4.5,20.2,0c2.7,2.1,4,4.9,4.1,8.3c0,1,0.1,1.9,0.1,2.9
		c0.1,2.7,0.6,5.2,2.4,7.4c-1.3,0.6-2.3,0.6-3.5-0.1c-3.1-1.9-7.9-1.3-10.7,0.9c-0.3,0.2-0.7,0.3-1.1,0.3c-1,0-1.9,0-2.9,0
		c-0.4,0-0.9,0-1.2-0.3c-3.1-2.8-8.9-2.4-11.5-0.5c-0.6,0.4-1.3,0.3-2.7-0.3c2.2-2.6,2.4-5.7,2.5-8.8c0-1,0.1-2,0.2-3
		C70.1,233.2,71.6,231.1,73.8,229.3z M96.7,252c-0.2,2-1.2,3.1-3.2,3.5c-0.9,0.2-1.8,0.2-2.7,0.1c-2-0.2-3.5-2.3-3.1-4.2
		c0.1-0.3,0.3-0.6,0.5-0.8c1.2-1.1,2.7-1.4,4.3-1.4c0.8,0.1,1.7,0.2,2.5,0.4C96.7,250,96.9,250.4,96.7,252z M80.1,251.8
		c-0.1,1.9-0.7,3.6-3.3,3.9c-0.6,0.1-1.3,0.1-1.9,0c-2.6-0.3-3.9-1.6-3.8-4.7c0-0.3,0.3-0.8,0.6-0.9c1.2-0.4,2.3-0.7,3.5-1
		c1.6,0.1,3.1,0.5,4.2,1.5C79.8,250.9,80.1,251.4,80.1,251.8z M64.9,234.3c0.9-3.1,2.8-5.3,5.9-6.3c0.1,0,0.3-0.1,0.5-0.1
		c-0.1,0.2-0.1,0.3-0.2,0.4c-2.8,2.4-3.8,5.5-4,9c-0.1,1.8-0.2,3.6-0.4,5.4c-0.2,1.6-0.8,2.9-2.2,4.1c-0.1-0.7-0.2-1.2-0.3-1.7
		C64.1,241.4,63.8,237.8,64.9,234.3z M70.8,267c-1.2-2.2-1.8-4.6-2.2-7c-0.2-1-0.5-1.6-1.6-1.8c-1.8-0.5-2.6-2-2.8-3.7
		c-0.2-1.5-0.3-2.9,0.5-4.4c1.1,0.3,2.1,0.5,3.2,0.8c0.5,0.1,0.6,0.4,0.7,0.9c0.1,0.8,0.2,1.5,0.4,2.3c0,0,0,0.1,0,0.1
		c1.1,2.9,3.4,4,6.2,4.2c2.7,0.2,5.2-0.3,6.6-3c0.6-1.1,0.8-2.4,1.2-3.8c0.1,0,0.4-0.1,0.7-0.2c1-0.2,1.5,0.2,1.6,1.2
		c0.4,3.2,2.3,5.6,5.7,5.7c1.3,0.1,2.7,0,4-0.4c2.7-0.7,4-2.7,4.4-5.4c0.2-1.5,0.2-1.5,1.6-1.9c0.7-0.2,1.3-0.3,2-0.5
		c0.1,0,0.1,0,0.2,0c1.3,1.9,0.7,6.1-1.2,7.5c-0.4,0.3-0.8,0.5-1.3,0.6c-0.9,0.2-1.2,0.7-1.5,1.6c-0.6,2.3-1.1,4.6-2,6.7
		c-1,2.5-2.8,4.3-5.5,5.1c-0.7,0.2-1.3,0.7-1.9,1.1c-1.2,0.9-2.5,1.3-4,1.3c-1.2,0-2.5,0-3.7,0c-1.6,0-3.1-0.5-4.5-1.5
		c-0.6-0.5-1.4-0.8-2.1-1.1C73.4,270.6,71.9,269,70.8,267z M71.4,278.4c1.5-1.4,2.1-2.5,2.6-4.8c0.6,0.2,1.3,0.3,1.7,0.7
		c3.1,2.6,6.8,2.5,10.6,2.3c2-0.1,3.8-0.8,5.4-2c0.6-0.4,1.3-0.7,2.1-1.1c0.2,2.2,1.2,3.7,2.5,5c0.2,0.2,0.2,0.7,0.1,1
		c-2,4.9-5.7,7.8-11,8.6c-6,0.9-12-2.7-14.4-8.2C70.8,279.2,70.9,278.8,71.4,278.4z M98,288.5c-3.1,3-6.9,4.6-11.1,5.1
		c-4.9,0.6-9.5-0.1-13.9-2.6c-3.3-1.9-5.6-4.6-7-8.1c-0.1-0.2-0.2-0.4-0.2-0.6c0-0.1,0-0.2,0-0.3c0.9-0.5,1.7-0.9,2.7-1.4
		c3.1,6.4,8.1,10.1,15.2,10.1c7.2,0,12.2-3.7,15.2-10.3c1,0.5,2,1.1,3,1.6C101.2,284.5,99.9,286.6,98,288.5z"/>
	<path class="st1" d="M184.8,321.4c-0.2-2.7-0.8-5.3-2-7.7c-2.5-5-6.5-8.5-11.5-11c-2.7-1.3-5.6-2.3-8.4-3.5c-2.2-1-4.4-2.1-6.5-3.2
		c-1-0.6-1.8-1.5-2.3-2.7c2.8-1.7,4.3-4.3,5.3-7.2c0.5-1.4,0.8-3,1.2-4.4c0.1-0.6,0.3-1,0.9-1.3c1.7-0.8,2.9-2.1,3.3-4
		c0.2-1.4,0.1-2.8,0.1-4.2c0-0.3,0-0.6,0.1-0.9c1.8-4.5,2.2-9.1,0-13.6c-1.5-3.1-3.8-5.5-6.5-7.6c-0.5-0.4-0.7-0.8-0.7-1.4
		c-0.1-5.2-2.6-8.8-7.4-10.9c-2.8-1.2-5.8-1.5-8.8-1.1c-6.7,0.9-10.9,5.4-11.3,12.2c0,0.4-0.3,0.8-0.6,1.1c-1.6,1.6-3.3,3-4.7,4.7
		c-3.8,4.6-4.1,9.9-2.4,15.3c0.4,1.3,0.6,2.4,0.5,3.7c-0.2,2.9,0.8,5.3,3.5,6.6c0.6,0.3,0.8,0.6,0.9,1.3c0.9,4.6,2.2,9,6.5,11.7
		c-0.5,1.2-1.3,2.1-2.3,2.7c-1.6,0.9-3.2,1.8-4.9,2.6c-3,1.3-6.1,2.3-9,3.7c-5,2.3-9.1,5.5-11.9,10.3c-1.7,2.9-2.6,6-2.6,9.4
		c0,0.9,0.5,1.5,1.3,1.5c0.7,0,1.2-0.6,1.3-1.4c0-0.1,0-0.2,0-0.3c0.1-3.3,1.1-6.3,3-9c2.6-3.8,6.1-6.5,10.3-8.3
		c3.2-1.4,6.5-2.6,9.7-3.9c0,0,0.1,0,0.1,0c2.3,7.1,7.1,11.3,14.6,11.5c7.9,0.2,12.8-4.3,15.3-11.6c1.8,0.7,3.6,1.4,5.4,2.1
		c2.9,1.1,5.8,2.2,8.4,3.9c4.6,3.1,8,7,9.1,12.6c0.2,1,0.2,2,0.3,3c0.1,0.8,0.5,1.2,1.3,1.2c0.8,0,1.2-0.5,1.3-1.2
		C184.8,321.9,184.8,321.6,184.8,321.4z M133.9,244.4c1.8-3.3,4.8-4.8,8.4-5.2c3.9-0.5,7.6,0.3,10.5,3.2c1.5,1.4,2.2,3.2,2.4,5.4
		c-7.4-3.9-14.7-3.9-22.1-0.1c-0.1-0.1-0.2-0.1-0.2-0.2C133.2,246.5,133.4,245.4,133.9,244.4z M124.7,267.6
		c-1.3-5.3,0.4-9.8,4.2-13.5c4.3-4.2,9.3-6.6,15.3-6.7c4.8,0,9.2,1.7,13,4.7c2.5,2,4.6,4.4,5.9,7.4c1.4,3.2,0.7,6.4,0.1,9.6
		c-3.6-0.5-7-0.8-10.4-1.5c-5.7-1.2-11-3.5-15.9-6.7c-1.3-0.9-2-0.7-2.6,0.7c-0.7,1.6-1.8,3-3.2,4.1c-1.8,1.5-3.8,2.5-6.1,3.3
		C124.9,268.5,124.8,268,124.7,267.6z M132.9,288.5c-1.6-2.4-2.2-5-2.7-7.8c-0.1-0.4,0-0.9-0.2-1.2c-0.3-0.5-0.6-1-1-1.2
		c-2.7-0.9-3.9-3.5-2.8-6.2c0.3-0.6,0.6-1,1.3-1.3c3.6-1.5,6.7-3.6,8.7-7c0-0.1,0.1-0.2,0.1-0.2c2.1,1.1,4,2.2,6,3.1
		c5.9,2.8,12.2,4.3,18.7,4.6c0.9,0,1.3,0.4,1.4,1.2c0.1,0.9,0.2,1.7,0.1,2.6c-0.1,1.6-1.2,2.8-2.8,3.2c-0.9,0.2-1.2,0.7-1.4,1.5
		c-0.4,2.9-1.1,5.7-2.5,8.2c-0.9,1.5-2,2.7-3.7,3.3c-0.9,0.3-1.7,0.8-2.5,1.4c-1.1,0.8-2.3,1.3-3.6,1.3c-1.2,0-2.4,0-3.6,0
		c-1.4,0-2.6-0.5-3.8-1.4c-0.7-0.5-1.5-1-2.3-1.3C134.8,290.8,133.7,289.8,132.9,288.5z M156.3,299.8c-1,4.7-5.1,8.6-9.9,9.5
		c-6.5,1.2-12.9-2.8-14.6-9.2c-0.2-0.6-0.1-1,0.5-1.4c1.8-1,3.3-2.4,4.3-4.5c2.2,2.1,4.8,2.4,7.6,2.4c2.7,0,5.4-0.3,7.5-2.4
		c1,2.1,2.6,3.5,4.4,4.6C156.3,299,156.4,299.5,156.3,299.8z"/>
	<path class="st1" d="M130.2,310.3c-0.8,0-1.3,0.6-1.3,1.4c0,0.7,0.6,1.3,1.3,1.3c0.8,0,1.4-0.6,1.4-1.4
		C131.6,310.9,130.9,310.3,130.2,310.3z"/>
	<path class="st1" d="M136.1,316.7c-0.8,0-1.3,0.6-1.3,1.3c0,0.8,0.6,1.4,1.4,1.4c0.8,0,1.4-0.6,1.4-1.4
		C137.5,317.3,136.8,316.7,136.1,316.7z"/>
	<path class="st1" d="M144.2,319.3c-0.8,0-1.4,0.5-1.4,1.3c0,0.8,0.5,1.4,1.3,1.4c0.8,0,1.4-0.5,1.4-1.3
		C145.5,319.9,144.9,319.3,144.2,319.3z"/>
	<path class="st1" d="M128.7,303.4c0-0.8-0.6-1.4-1.4-1.4c-0.8,0-1.4,0.6-1.3,1.4c0,0.7,0.6,1.3,1.3,1.3
		C128,304.8,128.7,304.2,128.7,303.4z"/>
	<path class="st1" d="M161.2,302.1c-0.8,0-1.4,0.6-1.4,1.3c0,0.7,0.6,1.4,1.3,1.4c0.7,0,1.4-0.6,1.4-1.3
		C162.6,302.7,162,302.1,161.2,302.1z"/>
	<path class="st1" d="M129.8,307.6c0-0.8-0.6-1.4-1.4-1.3c-0.7,0-1.3,0.6-1.3,1.4c0,0.8,0.6,1.4,1.4,1.4
		C129.2,309,129.8,308.4,129.8,307.6z"/>
	<path class="st1" d="M158.3,310.3c-0.8,0-1.4,0.6-1.4,1.3c0,0.8,0.6,1.4,1.3,1.4c0.8,0,1.4-0.6,1.4-1.3
		C159.7,310.9,159.1,310.3,158.3,310.3z"/>
	<path class="st1" d="M152.4,316.7c-0.8,0-1.4,0.5-1.4,1.3c0,0.8,0.6,1.4,1.3,1.4c0.8,0,1.4-0.6,1.4-1.3
		C153.8,317.3,153.2,316.7,152.4,316.7z"/>
	<path class="st1" d="M140,318.6c-0.7,0-1.4,0.6-1.4,1.4c0,0.7,0.6,1.4,1.4,1.4c0.8,0,1.4-0.6,1.4-1.4
		C141.4,319.2,140.8,318.6,140,318.6z"/>
	<path class="st1" d="M155.7,313.9c-0.8,0-1.4,0.6-1.4,1.4c0,0.8,0.6,1.4,1.4,1.3c0.8,0,1.3-0.6,1.3-1.4
		C157,314.4,156.5,313.9,155.7,313.9z"/>
	<path class="st1" d="M160.1,306.3c-0.8,0-1.4,0.6-1.4,1.4c0,0.7,0.6,1.3,1.3,1.4c0.8,0,1.4-0.5,1.4-1.3
		C161.4,306.9,160.9,306.3,160.1,306.3z"/>
	<path class="st1" d="M132.8,313.9c-0.8,0-1.4,0.6-1.3,1.4c0,0.8,0.5,1.3,1.3,1.3c0.8,0,1.4-0.5,1.4-1.3
		C134.1,314.5,133.5,313.9,132.8,313.9z"/>
	<path class="st1" d="M149.1,318.8c-0.2-0.1-0.8,0-0.9,0.2c-0.2,0.3-0.3,0.9-0.1,1.1c0.2,0.2,0.7,0.2,1.1,0.3
		c-0.4,0.1-0.8,0.3-0.8,0.2c-0.4-0.5-0.5-1.1-0.8-1.6c-0.5,0.4-0.7,1.1-0.3,1.7c0.3,0.4,0.9,0.7,1.4,0.7c0.5,0,1-0.3,0.9-1
		c0,0,0,0,0,0c0,0,0,0,0,0c0,0,0,0,0,0c0,0,0,0,0,0c0,0,0,0,0,0c0,0,0,0,0,0c0-0.1,0.1-0.2,0.1-0.2
		C149.9,319.4,149.6,319,149.1,318.8z"/>
</g>
<g>
	<path class="st1" d="M235.1,374.5c0.3-2.9,0.6-5.8,0.8-8.7c0.8-10.9,1.6-21.9,2.4-32.8c0.7-9.9,1.4-19.8,2.1-29.7
		c-0.3-0.1-0.7-0.3-1.1-0.4c-2-0.8-3-2.3-3.1-4.4c0-1.8,0-3.6,0-5.3c0.1-2.6,1.8-4.5,4.4-4.7c0.7-0.1,1-0.3,1.2-0.9
		c0.6-2.5,2-4.4,4-6c0.4-0.3,0.7-0.8,0.7-1.3c0.6-3.7,2.9-5.8,6.7-5.9c0.4,0,0.9-0.3,1.2-0.6c1.6-1.7,3.4-2.8,5.6-3.4
		c0.4-0.1,0.9-0.6,0.9-1c1.5-7.1,6.6-11.8,13.9-12.7c0.4,0,0.9-0.5,1-0.9c1.7-5.4,5.9-8.4,11.5-8.3c0.4,0,1-0.2,1.3-0.5
		c2.8-2.8,6.6-2.8,9.5,0c0.3,0.3,0.8,0.5,1.2,0.6c2.2,0.5,3.8-0.3,5.6-1.8c6.4-5.5,16.2-4.5,21.6,2c0.5,0.7,1.1,0.9,1.9,0.9
		c4.8,0.2,8.9,3.2,10.3,7.7c1.5,4.5,0,9.2-3.7,12.2c-0.6,0.5-0.8,1-0.7,1.8c0.7,7.2-4.7,12.8-11.9,12.4c-1.1-0.1-1.7,0.2-2.4,1.1
		c-5,6.8-14.6,8.3-21.4,3.3c-0.6-0.5-1.1-0.6-1.9-0.3c-1,0.3-2.1,0.5-3,0.2c-2.2-0.7-4.3,0.2-6.4-0.2c-0.2,0-0.6,0.2-0.7,0.4
		c-0.6,0.8-1.2,1.6-1.8,2.4c1.5,1.3,1.9,2.9,1.8,4.8c0,1,0,2,0,3.1c0,3.6-0.8,4.7-4.2,6c0.3,4,0.5,8,0.8,12c0.1,1-0.1,1.8-0.9,2.3
		c-1.3,0.8-2.8,0-3-1.7c-0.3-3.2-0.5-6.5-0.7-9.7c-0.1-1-0.2-2-0.3-3.1c-11.3,0-22.6,0-33.9,0c-0.1,1.8-0.3,3.6-0.4,5.3
		c-1.3,18.1-2.6,36.2-3.8,54.2c-0.3,4.4-0.7,8.8-1,13.2c-0.1,1.2-0.4,2.1-1.4,2.7c-0.9,0-1.8,0-2.7,0
		C235.1,377.2,235.1,375.8,235.1,374.5z M245.7,288.3c1.6,0,3,0,4.4,0c1.3,0,2.1,0.8,2.1,1.9c0,1.1-0.8,1.9-2,2c-0.4,0-0.7,0-1.1,0
		c-2.5,0-5.1,0-7.6,0c-1,0-1.4,0.4-1.3,1.3c0.1,1.3,0.1,2.6,0,3.9c-0.1,1.3,0.4,1.6,1.6,1.6c6.8,0,13.5,0,20.3,0
		c6.3,0,12.6,0,18.9,0c1.3,0,1.7-0.4,1.6-1.6c-0.1-1.1,0-2.1,0-3.2c0-1.9,0-1.9-1.9-1.9c-6.7,0-13.4,0-20.1,0c-0.5,0-1.1,0-1.6-0.2
		c-1-0.3-1.5-1-1.4-2c0.1-1,0.7-1.6,1.7-1.8c0.4-0.1,0.9,0,1.3,0c5.3,0,10.7,0,16,0c2.8,0,5-1.1,6.5-3.5c1.1-1.9,1.4-3.9,0.6-6
		c-0.1-0.4-0.3-0.7-0.4-1.1c-0.4-1.1,0-2.2,1-2.6c0.9-0.4,2.2-0.1,2.6,0.9c0.7,2.1,1.2,4.2,1.8,6.5c0.5,0,1.3,0,2.1-0.2
		c1.1-0.3,2-0.3,3.1,0.2c0.6,0.3,1.6,0.2,2.2-0.2c2-1.1,2.2-1.1,3.8,0.3c3.7,3.3,8,4.1,12.5,2.1c4.5-2,6.8-5.7,6.7-10.6
		c0-1.9-0.9-3.7-1.5-5.6c-0.4-1.2-0.2-2.2,0.8-2.8c1-0.5,2.1-0.2,2.7,0.9c0.4,0.6,0.6,1.3,0.9,1.9c1.3,3.1,1.4,6.4,0.6,9.6
		c4.8,0.9,8.9-4.1,7.5-9.1c-0.6-2-0.4-2.4,1.4-3.4c3.1-1.7,4.5-5.2,3.4-8.5c-1.1-3.4-4.3-5.3-7.9-4.8c-1.2,0.2-1.9-0.2-2.6-1.2
		c-4.9-7-13.7-7.3-19-0.6c-0.8,1-1.6,1.2-2.8,1c-1.3-0.2-2.7-0.4-4-0.2c-1.5,0.2-2.5-0.1-3.2-1.6c-0.8-1.6-3.1-1.7-3.9-0.1
		c-0.9,1.9-2.1,2-3.9,1.7c-3.6-0.7-7.2,1.9-7.8,5.4c0.3,0.1,0.6,0.2,0.8,0.3c1.5,0.7,3,1.4,4.4,2.2c1,0.6,1.2,1.8,0.6,2.7
		c-0.6,0.9-1.7,1.2-2.7,0.6c-0.3-0.2-0.6-0.4-0.9-0.6c-6.6-3.8-14.9-0.5-16.9,6.7c-0.1,0.4-0.2,0.8-0.2,0.9c1.8,1,3.4,1.8,4.9,2.8
		c1.4,1,1.5,2.2,0.7,3.2c-0.8,0.9-1.9,0.9-3.2-0.1c-3.5-2.8-8.2-2.2-10.7,1.6c-1,1.5-1.4,1.7-3.2,1.2c-1.7-0.5-3.3,0.7-3,2.5
		c0.3,1.7-0.3,2.5-1.7,3.3C247.3,285,246.2,286.4,245.7,288.3z"/>
	<path class="st1" d="M298.6,378.5c-1-0.7-1.3-1.7-1.2-3c1-11.2,1.9-22.5,2.8-33.7c0.3-3.8,0.7-7.7,1-11.6c-0.3-0.1-0.5-0.2-0.8-0.3
		c-2.2-0.8-3.3-2.3-3.3-4.6c0-1.7,0-3.4,0-5.1c0.1-2.8,1.8-4.6,4.6-4.8c0.7,0,1-0.3,1.2-0.9c1.2-4,4-6.5,8-7.5
		c0.4-0.1,0.9-0.5,1-0.9c1-3.2,3-5.6,6.1-7c0.4-0.2,0.8-0.7,0.8-1.1c0.7-5.1,4.4-7.9,9.5-7.1c0.4,0.1,0.9-0.2,1.2-0.5
		c1.7-2.1,4-3.4,6.6-3.9c0.4-0.1,0.9-0.4,1-0.8c2.4-7.5,12-10,17.7-4.2c0.1,0.1,0.2,0.1,0.3,0.2c1.9-1.3,4.1-1.8,6.4-1.2
		c3.4,0.8,5.7,3.9,5.8,7.4c0,0.6,0.3,1.4,0.8,1.8c5.3,4.9,4.4,13.4-1.8,17.1c-0.5,0.3-1,0.7-1.3,1.2c-4.3,7.6-12.9,10.4-20.7,6.6
		c-0.2-0.1-0.5-0.2-0.7-0.3c-0.4,0.6-0.9,1.2-1.3,1.8c2.1,1.3,2.6,3.2,2.5,5.4c-0.1,1,0,2,0,2.9c0,3.5-0.7,4.6-4.1,6
		c0.2,2.4,0.4,4.8,0.6,7.2c0,0.5,0.1,1,0.1,1.5c0,1.4-0.7,2.3-1.8,2.3c-1.1,0.1-2-0.7-2.1-2.1c-0.2-2.4-0.4-4.9-0.6-7.3
		c0-0.6-0.1-1.1-0.2-1.7c-10.5,0-20.8,0-31.3,0c-0.3,3-0.5,5.9-0.8,8.8c-1,11.5-1.9,23-2.9,34.5c-0.1,0.9-0.2,1.8-0.2,2.7
		c0,1.1-0.5,2-1.5,2.5C299.5,378.5,299.1,378.5,298.6,378.5z M306.9,315.3c6.3,0,12.5,0,18.8,0c4,0,5.6-2.7,3.6-6.2
		c-0.6-1-0.4-2.1,0.4-2.7c0.9-0.7,2.1-0.6,2.8,0.5c0.7,1.1,1.4,2.3,1.5,3.5c0.2,1.6-0.2,3.2-0.3,4.8c2.9,0.4,5.7-1.3,6.9-4.4
		c0.8-2.1,2-2.4,3.7-1.1c2.6,1.9,5.6,2.7,8.8,2.2c2.7-0.4,5-1.7,6.6-3.5c-1.9-1-3.8-1.8-5.5-2.9c-1-0.6-1.1-1.9-0.4-2.8
		c0.7-0.9,1.8-1,2.8-0.3c0.2,0.1,0.4,0.3,0.6,0.5c3.1,2.1,7.1,1.3,9.2-1.7c2.1-3.1,1.3-7.2-1.8-9.3c-1.7-1.2-1.8-1.4-1.4-3.4
		c0.6-2.7-1.9-5.1-4.6-4.3c-0.9,0.3-1.3,0.7-1.2,1.9c0.3,1.9,0.2,3.9-0.1,5.8c-0.1,1.2-1.3,1.8-2.4,1.5c-1.1-0.3-1.7-1.3-1.4-2.5
		c0-0.3,0.2-0.5,0.2-0.8c0.7-3.8-1.7-7.3-5.4-7.9c-3.8-0.6-7.1,1.9-7.6,5.7c-0.3,1.8-0.8,2.3-2.7,2.3c-2,0-3.6,0.7-5,2.1
		c-0.5,0.5-0.5,0.9-0.2,1.6c0.6,1.3,1.1,2.7,1.3,4.1c0.2,1.1-0.7,2-1.8,2.1c-1.1,0.1-1.9-0.6-2.1-1.7c-0.1-0.4-0.1-0.8-0.2-1.2
		c-0.5-1.9-2.4-3-4.3-2.6c-1.8,0.4-3.1,2.3-2.8,4.1c0.4,2.6,0.2,2.9-2.2,3.5c-2.8,0.7-4.8,3-5,5.7c-0.2,2.3-0.5,2.5-2.9,2.7
		C309.9,310.9,307.7,312.5,306.9,315.3z M320.9,326c6.1,0,12.3,0,18.4,0c1.2,0,1.6-0.4,1.5-1.5c-0.1-1.1,0-2.3,0-3.5
		c0-1.8,0-1.8-1.8-1.8c-9.3,0-18.6,0-28,0c-2.8,0-5.7,0-8.5,0c-1,0-1.4,0.4-1.4,1.4c0.1,1.2,0.1,2.5,0,3.7c-0.1,1.3,0.4,1.7,1.7,1.7
		C308.8,326,314.8,326,320.9,326z"/>
	<path class="st1" d="M285,378.5c-1-0.6-1.3-1.4-1.4-2.5c-0.7-10.9-1.5-21.9-2.3-32.8c-0.4-5.6-0.8-11.2-1.2-16.7
		c0-0.4-0.1-0.7-0.1-1.1c0-1.2,0.8-2.1,1.9-2.1c1.1-0.1,2,0.7,2.1,2c0.3,3.5,0.5,7.1,0.8,10.6c0.8,10.8,1.5,21.5,2.3,32.3
		c0.2,2.6,0.3,5.2,0.6,7.8c0.1,1.2-0.4,1.9-1.3,2.6C285.9,378.5,285.5,378.5,285,378.5z"/>
	<path class="st1" d="M341.8,378.5c-0.9-0.6-1.3-1.4-1.4-2.5c-0.7-8.9-1.5-17.9-2.2-26.8c-0.1-1.5,0.5-2.5,1.8-2.7
		c1.2-0.1,2.1,0.7,2.2,2.2c0.7,8.2,1.4,16.4,2.1,24.5c0.1,0.7,0.1,1.4,0.2,2.1c0.2,1.3-0.1,2.4-1.3,3.1
		C342.7,378.5,342.2,378.5,341.8,378.5z"/>
	<path class="st1" d="M300.9,276.1c-1.2-0.6-2.5-1.1-3.6-1.8c-1-0.7-1.1-1.9-0.4-2.8c0.7-0.9,1.8-1.1,2.8-0.3
		c0.9,0.6,1.7,0.9,2.5,0.1c0.9-0.9,0.6-1.7-0.1-2.6c-0.7-1-0.5-2.2,0.4-2.8c0.9-0.6,1.9-0.5,2.7,0.4c1.5,1.5,1.9,4,1,6.1
		C305.4,274.4,303.3,275.8,300.9,276.1z"/>
	<path class="st1" d="M314.3,252.9c3,0,5.5,2.2,5.7,5.2c0.1,1.4-0.5,2.3-1.7,2.4c-1.1,0.1-2-0.5-2.2-1.8c-0.2-1-0.6-1.8-1.7-1.8
		c-1.2,0-1.6,0.7-1.7,1.8c-0.2,1.3-1.1,2-2.2,1.8c-1.2-0.1-1.8-1-1.8-2.4C308.8,255.2,311.3,252.9,314.3,252.9z"/>
	<path class="st1" d="M349.8,297.6c0,1.4-0.5,2.2-1.7,2.4c-1.1,0.2-2.1-0.5-2.3-1.8c-0.2-1.1-0.6-1.9-1.8-1.9
		c-1.1,0-1.5,0.9-1.7,1.9c-0.2,1.3-1.1,1.9-2.2,1.8c-1-0.2-1.7-1-1.7-2.2c0-3,2.7-5.5,5.8-5.5C347.2,292.4,349.8,295,349.8,297.6z"
		/>
</g>
<g>
	<path class="st1" d="M18.1,415.3c-0.2-3.1-1.1-6-2.6-8.7c-0.1-0.1-0.2-0.3-0.3-0.4c0-0.1,0-0.1,0-0.2c-0.6-0.9-1.2-1.9-1.9-2.7
		c-0.1-0.2-0.3-0.4-0.4-0.6c-1.3-1.4-2.7-2.6-4.3-3.7c-2.7-1.7-5.6-2.9-8.7-3.2c-2.1-0.2-4.1-0.4-6.1-0.9c-1.9-0.5-3.9-0.8-5.9-1.3
		c-2.7-0.6-5.4-1.2-8.2-1.4c-0.5,0-0.6-0.3-0.7-0.7c0-0.1,0-0.3,0-0.4c-0.2-2.5-0.4-5-0.7-7.5c-0.2-1.5-0.6-3-1.5-4.3
		c-0.3-0.5-0.3-0.7,0.1-1.1c2.7-2.7,4.7-5.8,5.7-9.5c0.2-0.6,0.4-1,1-1.1c0.2,0,0.4-0.1,0.6-0.2c1.4-0.5,2.2-1.6,2.8-2.9
		c1-2.3,1.7-4.8,2.2-7.3c0.4-2.2-0.8-4.1-2.7-4.7c-0.4-0.1-0.4-0.3-0.4-0.5c0.1-1.1,0.1-2.1,0.2-3.2c0-0.3,0.1-0.5,0.2-0.7
		c0.6-1.1,1.2-2.2,1.6-3.4c0.5-1.3,0.9-2.6,1-3.9c0.1-0.1,0.1-0.3,0.1-0.4c0.1-0.3,0.2-0.5,0.1-0.8c0.1-0.1,0.1-0.2,0.1-0.3
		c0.2-1.2,0.3-2.4,0.3-3.6c0.1-3.5-0.3-6.9-1.1-10.3c-0.6-2.5-1.4-4.9-2.6-7.1c-0.6-1.2-1.4-2.4-2.4-3.3c-1.2-1.1-2.8-1.5-4.2-0.1
		c-0.2,0.2-0.4,0.3-0.6,0.3c-0.7,0.2-1.3,0.3-2,0.4c-2.2,0.2-4.5,0.2-6.8,0.1c-5.3-0.2-10.6-0.3-15.9,0.1c-0.8,0.1-1.6,0.1-2.4,0.3
		c-0.1,0-0.2,0-0.3,0c-1.3,0.1-2.5,0.4-3.8,0.7c-3.4,0.8-6.5,2-9.4,4c-2.1,1.5-3.5,3.4-4.4,5.8c-0.9,2.6-1.3,5.3-1.4,8.1
		c-0.1,1.3,0,2.5-0.1,3.8c-0.2,2.4-0.1,4.7,0.3,7c0.4,2.2,0.7,4.4,1.1,6.6c0.1,0.5-0.1,0.6-0.4,0.8c-1.6,0.8-2.4,2.4-2.2,4.1
		c0.1,1.1,0.4,2.2,0.7,3.2c0.5,1.7,0.9,3.4,1.8,5c0.9,1.6,2.2,2.7,4.1,2.7c0.2,0,0.2,0.1,0.3,0.3c0.8,3.8,2.7,6.9,5.4,9.6
		c0.5,0.5,0.7,1.8,0.4,2.4c-0.3,0.7-0.6,1.5-0.7,2.2c-0.3,1.3-0.4,2.7-0.5,4.1c-0.2,1.7-0.4,3.4-0.6,5.1c0,0.4-0.2,0.6-0.6,0.6
		c-1.9,0.2-3.9,0.4-5.8,0.8c-2.8,0.6-5.6,1.2-8.4,1.8c-1.7,0.3-3.3,0.8-5,0.8c-1.8,0.1-3.6,0.5-5.3,1.1c-6.7,2.4-11.2,7.1-13.5,13.9
		c-0.5,1.6-0.9,3.3-0.9,5c-0.1,6.8,0,13.5,0,20.3c0,0.9,0.4,1.4,1.1,1.4c0.8,0.1,1.3-0.4,1.5-1.3c0.1,0,0.2,0,0.4,0
		c-0.1,0-0.2,0-0.4-0.1c0-0.1,0-0.2,0-0.3c0-5.9,0-11.9,0-17.8c0-2,0.1-4,0.7-5.9c1-3.7,3-6.8,5.9-9.3c2.7-2.3,5.8-3.7,9.3-4.2
		c1-0.2,2.1-0.1,3.1-0.3c1.5-0.3,3-0.6,4.5-0.9c2.7-0.6,5.4-1.1,8.1-1.7c0.3-0.1,0.5,0,0.5,0.3c0.1,0.4,0.2,0.8,0.4,1.2
		c0.8,2.1,1.7,4.1,3,6c0.1,0.2,0.2,0.3,0.1,0.5c-0.3,2.5-0.6,5-0.8,7.4c-0.3,2.7-0.6,5.4-0.9,8.1c-0.1,0.8,0.5,1.4,1.3,1.4
		c8.4,0,16.9,0,25.3,0c1,0,1.5-0.8,1.3-1.7c-0.3-1.2,0-1.9,1.1-2.4c1.1-0.5,2.2-0.7,3.4-0.8c0.5,0,0.7,0.1,0.9,0.5
		c1,2.2,2,4.4,3.1,6.7c1.5,3.1,2.9,6.3,4.4,9.4c0.5,1.1,1.1,2.2,1.5,3.4c0,0.1,0,0.2,0.1,0.3c0,0,0,0,0,0c0,0,0,0.1,0,0.1
		c0,0,0,0,0,0c0,0,0,0,0,0l0,0c0,0,0,0,0,0c0.1,0.3,0.2,0.5,0.4,0.8c0.3,0.5,0.9,0.7,1.5,0.5c0.6-0.2,0.9-0.7,0.9-1.3
		c-0.2-1.1-0.8-2-1.3-2.9c-0.1-0.2-0.1-0.4-0.2-0.7c-3.4-7.3-6.8-14.6-10.2-21.9c-0.1-0.3-0.2-0.4,0.1-0.6c2.1-1.3,4.1-2.6,6.2-4
		c0.3-0.2,0.4-0.2,0.6,0.1c0.7,0.9,1.4,1.8,2.1,2.7c0,0.1,0,0.1,0.1,0.1c0.1,0.1,0.2,0.3,0.2,0.4c4.1,5.5,8.1,10.9,12.2,16.3
		c2,2.7,4.1,5.5,6.2,8.2c1.2,1.5,2.3,3.1,3.5,4.6c0.5,0.7,1.3,0.8,1.9,0.3c0.6-0.5,0.7-1.2,0.2-1.9c-0.2-0.2-0.3-0.4-0.4-0.6
		c0,0,0,0,0,0c0-0.1,0.2-0.1,0.3-0.2c-0.1,0-0.3,0-0.4,0c-1.3-1.7-2.6-3.5-3.9-5.2c-0.9-1.2-1.7-2.3-2.6-3.5
		c-0.3-0.3-0.4-0.7-0.4-1.1c0-2.4,0-4.8,0-7.2c0-1-1-1.7-1.9-1.2c-0.5,0.3-0.7,0.7-0.7,1.3c0,1.4,0,2.7,0,4.3
		c-0.9-1.2-1.8-2.4-2.6-3.5c-2.6-3.4-5.2-6.9-7.7-10.3c-0.5-0.7-1.1-1.4-1.6-2.1c-0.2-0.3-0.4-0.6-0.8-0.7c-0.1,0-0.3-0.2-0.3-0.3
		c-0.1-0.8-0.7-1.3-1.1-1.9c-0.4-0.8-0.7-1.6-0.2-2.5c1.1-2,2-4.1,2.6-6.2c0.1-0.4,0.2-0.4,0.6-0.4c1.7,0.4,3.4,0.8,5.2,1.1
		c0.6,0.1,1.2,0.3,1.8,0.4c0,0,0,0,0,0c0.3,0,0.5,0.2,0.8,0.1c0.8,0.2,1.6,0.3,2.3,0.5c1.7,0.5,3.4,0.4,5.1,0.7
		c3.4,0.5,6.5,1.8,9.2,4c2.6,2.1,4.5,4.8,5.7,7.9c0.7,1.9,1.2,3.9,1.2,5.9c0,5.5,0,11.1,0,16.6c0,0.2,0,0.3,0,0.5c0,0,0.1,0,0.1,0
		c0,0-0.1,0-0.1,0c0,0.1,0,0.3,0,0.4c0,0,0,0,0,0c0,0.5,0,0.9,0,1.4c0.1,0.2,0,0.5,0,0.7c0,0,0,0.1,0,0.1c0,0,0,0,0,0c0,0,0,0,0,0
		c0,0-0.1,0-0.1,0c0,0,0.1,0,0.1,0c0.1,0.6,0.4,1.1,1,1.2c0.9,0.2,1.6-0.3,1.6-1.3c0-1.6,0-3.2,0-4.8c0-0.1,0-0.3,0-0.4
		c0-0.4,0-0.7,0-1.1c0,0,0-0.1,0-0.1c0-0.3,0.1-0.7-0.1-1c0,0,0,0,0,0c0.1-0.2,0.1-0.4,0.1-0.6c0-1.9,0-3.9,0-5.8
		C18.1,419.9,18.2,417.6,18.1,415.3z M-11.7,338.7C-11.7,338.7-11.7,338.7-11.7,338.7C-11.7,338.7-11.7,338.7-11.7,338.7
		C-11.7,338.7-11.7,338.7-11.7,338.7c0.2-0.2,0.2-0.4,0.1-0.5C-11.5,338.3-11.5,338.5-11.7,338.7c-0.1,0.1-0.2,0.1-0.4,0.1
		C-11.9,338.8-11.8,338.8-11.7,338.7z M-12.1,337.9C-12.1,337.9-12.1,337.9-12.1,337.9C-12.1,337.9-12.1,337.9-12.1,337.9
		C-12.1,337.9-12.1,337.9-12.1,337.9z M-65,335.5c0-0.1,0-0.3,0.1-0.4c0.1-2.8,0.5-5.6,1.5-8.2c0.7-1.8,1.9-3,3.5-4.1
		c1.8-1.2,3.7-2.1,5.8-2.8c1.8-0.6,3.6-1,5.5-1.2c3.5-0.5,7-0.6,10.5-0.6c4,0,8.1,0.2,12.1,0.2c1.7,0,3.4-0.1,5.1-0.5
		c0.8-0.2,1.5-0.5,2.1-1.1c0.3-0.2,0.4-0.1,0.6,0.1c0.7,0.5,1.2,1.3,1.6,2c1.3,2.3,2.1,4.8,2.7,7.3c0.5,2.1,0.9,4.3,1,6.5
		c0.1,1.5,0.1,2.9,0,4.4c-0.1,1.7-0.4,3.3-0.8,5c-0.1,0.1-0.1,0.2-0.1,0.3c-0.3,0.9-0.6,1.9-1,2.7c0,0.1-0.1,0.2-0.2,0.3
		c-0.1-0.1-0.2-0.2-0.3-0.2c0-0.1,0-0.1-0.1-0.1c-0.1-0.3-0.3-0.6-0.5-0.8c0-0.1,0-0.2-0.1-0.2c-0.9-1.5-1.8-3-2.8-4.5
		c-0.9-1.5-1.9-3-2.8-4.5c-0.6-1-1.7-1-2.4-0.3c-0.8,0.9-2,1.2-3.2,1.6c-1.2,0.4-2.4,0.7-3.7,1c-4,0.9-8,1.4-12,1.9c0,0,0,0,0,0
		c-0.1,0-0.2,0-0.3,0c-0.8,0.1-1.5,0.2-2.3,0.3c-0.1,0.1-0.2,0.1-0.4,0.2c0.1-0.1,0.2-0.1,0.4-0.2c0,0,0,0,0,0
		c-2.4,0.3-4.8,0.6-7.3,1c-1.6,0.2-3.1,0.5-4.7,0.9c-0.5,0.1-0.9,0.3-1.4,0.6c-0.6,0.4-0.9,0.9-0.9,1.6c0,0.6-0.3,1.1-0.6,1.6
		c-0.7,1.2-1.5,2.5-2.4,3.6c-0.5,0.6-1,1.1-1.4,1.8c-0.4-2.3-0.6-4.5-0.9-6.8c0-0.5-0.1-1.1-0.1-1.6c-0.1-0.5,0-1-0.1-1.5
		C-65.1,338.8-65.1,337.1-65,335.5z M-59.4,368.7c-0.4-1.3-0.5-2.7-0.6-4.1c-0.1-1.8-0.3-3.5-0.4-5.3c0-0.4-0.1-0.8-0.1-1.1
		c-0.1-0.8-0.7-1.4-1.5-1.3c-0.8,0.1-1.2,0.8-1.1,1.6c0.1,1.5,0.2,2.9,0.4,4.4c0.1,0.8,0.1,1.6,0.2,2.5c-0.5-0.1-0.8-0.3-1.1-0.6
		c-0.6-0.7-1-1.4-1.2-2.3c-0.5-1.8-1.2-3.5-1.5-5.4c-0.1-0.8,0.1-1.3,0.7-1.7c0.1-0.1,0.3-0.2,0.4-0.1c0.5,0.1,1-0.1,1.5-0.2
		c0.5-0.1,0.9-0.6,0.9-1.2c0-0.3,0.1-0.5,0.2-0.7c1.7-2.1,3.3-4.2,4.7-6.5c0.4-0.8,0.8-1.5,1-2.4c0-0.3,0.3-0.3,0.4-0.3
		c1.5-0.4,3-0.6,4.4-0.8c1.6-0.2,3.2-0.4,4.7-0.6c0,0,0,0,0,0c0.3,0,0.7-0.1,1-0.1c0.4,0,0.7,0,1.1-0.2c1.1,0,2.2-0.2,3.2-0.4
		c0.3,0.1,0.7-0.1,1-0.1c0.2,0,0.5-0.1,0.7-0.1c-0.1-0.5-0.4-0.9-0.7-1.3c0.4,0.4,0.6,0.8,0.7,1.3c3.7-0.5,7.4-1,11.1-1.9
		c2-0.5,4-1,5.8-2c0.3-0.2,0.4,0,0.5,0.2c1.8,2.8,3.5,5.6,5.3,8.4c0,0,0,0,0,0c0.1,0.1,0.1,0.2,0.2,0.3c0.2,0.4,0.4,0.8,0.7,1.2
		c0.4,0.4,0.4,0.9,0.4,1.5c-0.1,1.6-0.3,3.2-0.4,4.8c-0.1,1,0.7,1.7,1.7,1.4c0.8-0.2,1.6,0.4,1.6,1.3c0,0.9-0.3,1.8-0.6,2.7
		c-0.5,1.4-0.8,2.9-1.4,4.3c-0.3,0.6-0.6,1.1-1.2,1.6c-0.1-0.5,0.1-1,0.2-1.4c0.2-1.7,0.5-3.5,0.7-5.2c0.1-1.2-0.7-2-1.7-1.6
		c-0.5,0.2-0.8,0.5-0.8,1c-0.2,1.8-0.4,3.6-0.7,5.4c-0.3,2.4-0.8,4.8-1.7,7.1c-1,2.5-2.7,4.5-4.6,6.4c-0.2,0.2-0.2,0.1-0.4,0
		c-1.5-1-3.2-1.5-5-1.8c-4-0.6-7.9-0.3-11.9-0.4c-1.2,0-2.4,0.1-3.6,0.1c0,0,0,0,0,0c-0.1,0-0.2,0-0.2,0.1c-0.1,0-0.2,0-0.3,0l0,0
		c-2.4,0.2-4.7,0.7-6.8,2.1c-0.2,0.1-0.3,0.2-0.4,0C-56.5,374.6-58.4,372-59.4,368.7z M-45.8,375.3c0,0-0.1,0-0.1,0
		C-45.9,375.3-45.8,375.3-45.8,375.3z M-58.6,395.2c-0.1,0.8-0.2,1.5-0.2,2.3c-0.1,0.5-0.1,0.9-0.2,1.5c-0.6-1.2-1-2.4-1.4-3.6
		c-0.1-0.2,0-0.3,0.2-0.3c0.5,0,0.9-0.1,1.4-0.1C-58.6,394.9-58.6,394.9-58.6,395.2z M-36.4,418c-7.3,0-14.5,0-21.8,0
		c-0.3,0-0.3-0.1-0.3-0.3c0.1-1,0.2-2.1,0.3-3.1c0.3-2.3,0.5-4.6,0.8-6.9c0.3-2.6,0.6-5.1,0.9-7.7c0.2-2.2,0.5-4.4,0.7-6.6
		c0.2-2,0.4-4,0.7-5.9c0.2-1.4,0.2-2.8,0.5-4.2c0.6-2.9,2.4-4.6,5.3-5.3c0,0,0.1,0,0.1-0.1c0.1,0,0.2,0,0.3-0.1c0.2,0,0.5,0,0.7-0.1
		c0,0,0.1,0,0.1,0c1.5-0.2,3-0.3,4.5-0.3c0,0,0,0,0,0c0.2,0,0.4,0,0.6,0c0.3,0,0.7,0,1,0c0.2,0.1,0.3,0.1,0.5,0c-0.1,0-0.2,0-0.2,0
		c0.1,0,0.2,0,0.2,0c0.2,0,0.3,0,0.5,0c0.2,0.1,0.4,0,0.6,0c-0.1,0-0.2,0-0.3,0c0.1,0,0.2,0,0.3,0c0.1,0,0.2,0,0.4,0
		c0.2,0.1,0.4,0.1,0.6,0c0.3,0,0.5,0,0.8,0c0,0,0,0,0,0c0,0,0,0,0,0l0,0c0.1,0,0.2,0,0.4,0c0,0,0,0,0,0c0.4,0.1,0.8,0.1,1.2,0
		c2.1,0.1,4.2,0.1,6.3,0.5c1.2,0.2,2.4,0.6,3.5,1.3c1.7,1.1,2.5,2.8,2.8,4.8c0.3,2.4,0.5,4.7,0.7,7.1c0,0.2,0.1,0.4,0.1,0.6
		c-0.2-0.1-0.3-0.4-0.4-0.6c-2.2-3.2-4.8-6.2-8.1-8.3c-2.4-1.6-5-2.6-7.9-2.6c-3.9,0-7.3,2.7-8.3,6.4c-0.8,2.8-0.3,5.6,0.6,8.3
		c0.6,1.8,1.5,3.4,2.6,4.9c0.1,0.1,0.2,0.2,0.2,0.3l0,0c0.1,0.3,0.3,0.5,0.5,0.7c0.2,0.3,0.4,0.6,0.6,0.8c0.1,0.3,0.4,0.5,0.6,0.7
		c0,0,0.1,0.1,0.1,0.1c0,0,0,0,0,0c0,0.1,0.1,0.2,0.2,0.1c0.1,0.5,0.5,0.7,0.8,1c0.2,0.3,0.5,0.6,0.8,0.8c0.2,0.2,0.3,0.4,0.5,0.5
		c0,0.2,0.1,0.2,0.3,0.3c0.2-0.2,0.3-0.4,0.4-0.7c-0.1,0.2-0.2,0.5-0.4,0.7c1.1,1.2,2.4,2.2,3.7,3.2c0.2,0.2,0.4,0.3,0.4,0.7
		c0.1,1.6,0.2,3.3,0.3,4.9c0,0.8,0.2,1.6,0.1,2.4c0,0.4,0.1,0.9,0.2,1.3C-36,417.9-36.1,418-36.4,418z M-33.7,414.2
		c-0.1-1.3-0.2-2.6-0.2-4c1.1,0.6,2.3,1.2,3.4,1.6c0.6,0.2,0.9,0.6,1.1,1.2C-30.9,413.2-32.3,413.5-33.7,414.2z M-22,403.3
		c-2.7,1.7-5.4,3.5-8.1,5.3c-0.6,0.4-1,0.3-1.5,0c-3.1-1.6-5.8-3.8-8.3-6.3c-0.1-0.1-0.2-0.3-0.4-0.3c0,0,0,0,0,0v0c0,0,0,0,0,0
		c0,0,0,0,0,0c0,0,0,0,0,0c0,0,0-0.1,0-0.1c-0.5-0.6-1-1.2-1.6-1.8c-0.5-0.7-1-1.4-1.5-2.1c-1.4-2-2.4-4.2-2.8-6.7
		c-0.4-2.2-0.2-4.4,1.2-6.3c1.1-1.4,2.5-2.2,4.3-2.3c2.3-0.2,4.3,0.5,6.2,1.6c2.8,1.7,5.1,3.9,7,6.5c2.4,3.1,4.2,6.5,5.3,10.3
		c0.2,0.5,0.2,1.1,0.4,1.6C-21.7,403-21.8,403.1-22,403.3z M4.9,436.3c0,0-0.1-0.1-0.1-0.1C4.9,436.2,4.9,436.2,4.9,436.3z
		 M-20,398.7c0,0.1,0,0.2-0.1,0.2c-0.7-1.2-0.4-2.7-0.7-4c0.7,0,1.4,0.1,2.2,0.2C-19,396.3-19.5,397.5-20,398.7z"/>
	<path class="st1" d="M-91.8,374.9c-0.6,0.4-1.3,0.8-1.9,1.3c-0.7,0.4-0.8,1.1-0.5,1.7c0.3,0.6,0.9,0.8,1.6,0.6
		c0.7-0.2,1.3-0.4,2-0.6c0.2-0.1,0.3-0.1,0.5,0.2c0.6,1,1.4,1.8,2.3,2.5c0.2,0.2,0.2,0.3,0.1,0.5c-0.3,0.6-0.5,1.2-0.8,1.9
		c-0.3,0.7-0.1,1.3,0.5,1.7c0.6,0.4,1.3,0.2,1.7-0.4c0.5-0.6,1-1.2,1.5-1.8c0.1-0.1,0.1-0.3,0.4-0.2c1.4,0.4,2.8,0.4,4.3,0.1
		c0.3-0.1,0.5,0,0.7,0.3c0.4,0.5,0.8,1,1.3,1.6c0.4,0.5,1.2,0.7,1.7,0.4c0.6-0.3,0.8-1,0.5-1.7c-0.2-0.5-0.4-1.1-0.6-1.6
		c-0.1-0.2-0.1-0.3,0.1-0.4c1.1-0.7,1.9-1.6,2.6-2.7c0.1-0.2,0.2-0.2,0.4-0.1c0.6,0.2,1.2,0.4,1.8,0.5c0.7,0.2,1.2-0.1,1.5-0.7
		c0.2-0.6,0.1-1.2-0.5-1.6c-0.6-0.4-1.2-0.8-1.8-1.2c-0.2-0.2-0.1-0.4,0-0.6c0.1-0.8,0.3-1.7,0.1-2.5c-0.3-0.4-0.7-0.7-1.1-0.9
		c0.4,0.1,0.8,0.4,1.1,0.9c0-0.5-0.1-0.9-0.2-1.3c0.2-0.1,0.4-0.2,0.5-0.3c0.5-0.2,0.9-0.5,1.4-0.7c0.7-0.4,1-1,0.7-1.6
		c-0.2-0.6-0.9-1-1.6-0.8c-0.7,0.1-1.3,0.2-2,0.4c-0.2,0.1-0.3,0-0.4-0.2c-0.7-1-1.5-1.9-2.6-2.6c-0.2-0.1-0.2-0.2-0.1-0.4
		c0.2-0.6,0.5-1.1,0.7-1.7c0.3-0.8,0.1-1.4-0.5-1.8c-0.6-0.4-1.3-0.2-1.8,0.5c-0.5,0.6-0.9,1.1-1.4,1.7c-0.1,0.2-0.3,0.2-0.5,0.2
		c-1.4-0.3-2.7-0.3-4.1,0.1c-0.3,0.1-0.4,0-0.6-0.2c-0.5-0.6-1-1.2-1.5-1.8c-0.5-0.6-1.2-0.7-1.7-0.4c-0.6,0.3-0.8,1-0.5,1.7
		c0.3,0.7,0.5,1.3,0.8,2c0.1,0.2,0.1,0.3-0.1,0.4c-0.9,0.7-1.7,1.5-2.3,2.4c-0.1,0.1-0.2,0.2-0.4,0.2c-0.6-0.2-1.2-0.3-1.9-0.4
		c-0.8-0.2-1.5,0.2-1.7,0.8c-0.2,0.7,0.1,1.3,0.8,1.7c0.5,0.3,1,0.6,1.5,0.8c0.1,0.1,0.3,0.1,0.2,0.4c-0.2,1.2-0.3,2.4,0,3.6
		C-91.5,374.8-91.6,374.8-91.8,374.9z M-88.9,371.2c0.1-0.9,0.5-1.5,1-2.2c0.5-0.7,1.1-1.4,1.9-1.9c0.3-0.2,0.6-0.4,0.8-0.7
		c0.1-0.1,0.1-0.2,0.2-0.2c0.6,0.1,1.1-0.2,1.7-0.3c1-0.2,2-0.2,3,0.1c0.3,0.1,0.6,0.2,0.9,0.1c0.1,0,0.2,0,0.2,0.1
		c0.4,0.6,1.1,0.8,1.6,1.2c0.7,0.6,1.3,1.2,1.7,2c0.1,0.2,0.2,0.3,0.3,0.5c0.3-0.3,0.6-0.3,1-0.4c-0.4,0-0.7,0.1-1,0.4
		c0.1,0.3,0.5,0.4,0.3,0.8c-0.1,0.3,0.1,0.6,0.2,0.9c0.1-0.1,0.1-0.2,0.2-0.2c-0.1,0-0.2,0.1-0.2,0.2c0,0.3,0.1,0.5,0.1,0.8
		c0.1,0,0.2,0,0.2,0c-0.1,0-0.2,0-0.2,0c0,0.6,0,1.2-0.1,1.9c-0.1,0.1-0.1,0.2-0.1,0.3c-0.2,0.1-0.1,0.3-0.1,0.5
		c-0.1,0.2-0.1,0.3,0,0.5c0,0,0,0,0,0.1c0,0.3-0.3,0.4-0.4,0.6c-0.1,0.1-0.3,0.2-0.4,0.4c-0.6,1.1-1.4,1.9-2.5,2.6
		c-0.2,0.1-0.4,0.3-0.6,0.5c-0.1,0.1-0.1,0.2-0.2,0.2c-0.9-0.1-1.6,0.3-2.5,0.3c-0.8,0-1.7-0.2-2.5-0.3c-0.7-0.1-1.2-0.4-1.7-0.8
		c-0.9-0.7-1.6-1.5-2.3-2.5c-0.5-0.7-0.7-1.4-0.8-2.2C-89.1,373.2-89,372.2-88.9,371.2z"/>
	<path class="st1" d="M-90.3,329c-0.5,0.3-0.6,0.9-0.5,1.4c0.2,0.7,1,1.1,1.8,0.8c0.8-0.3,1.4-0.3,1.9,0.5c0.2,0.4,0.8,0.6,0.9,1
		c0,0.4-0.3,0.8-0.5,1.2c-0.2,0.6,0,1.3,0.6,1.6c0.6,0.3,1.3,0.2,1.7-0.4c0.2-0.3,0.5-0.6,0.7-0.9c0.2-0.3,0.5-0.3,0.8-0.3
		c0.8,0.1,1.6,0.1,2.4,0c0.2,0,0.3,0,0.5,0.2c0.3,0.4,0.6,0.7,0.9,1.1c0.4,0.5,1.1,0.6,1.6,0.2c0.5-0.3,0.7-0.9,0.5-1.5
		c-0.1-0.3-0.2-0.5-0.3-0.7c-0.1-0.3-0.1-0.5,0.2-0.7c0.3-0.2,0.6-0.4,0.8-0.7c0.5-0.9,1.1-0.9,2-0.6c0.6,0.2,1.2-0.1,1.5-0.7
		c0.3-0.6,0.1-1.2-0.4-1.6c-0.3-0.2-0.6-0.4-0.9-0.6c-0.2-0.1-0.3-0.3-0.2-0.5c0.1-0.7,0.1-1.3,0-2c0-0.2,0-0.4,0.2-0.5
		c0.3-0.2,0.7-0.4,1-0.6c0.5-0.3,0.7-0.9,0.5-1.4c-0.2-0.5-0.7-0.9-1.2-0.9c-0.4,0-0.7,0.1-1,0.2c-0.4,0.1-0.8,0.1-1.1-0.4
		c-0.1-0.2-0.3-0.5-0.5-0.6c-0.9-0.5-0.9-1.1-0.4-2c0.3-0.6,0.1-1.3-0.5-1.6c-0.6-0.3-1.2-0.2-1.7,0.3c-0.3,0.4-0.6,0.8-0.9,1.1
		c-0.1,0.1-0.2,0.2-0.4,0.2c-0.8-0.1-1.7-0.1-2.5,0c-0.3,0.1-0.4-0.1-0.6-0.2c-0.3-0.4-0.6-0.8-1-1.2c-0.4-0.5-1.1-0.5-1.6-0.2
		c-0.5,0.3-0.7,0.9-0.5,1.5c0.1,0.4,0.3,0.8,0.5,1.2c0.1,0.2,0.1,0.3-0.1,0.5c-0.5,0.4-0.9,0.8-1.2,1.3c-0.1,0.2-0.2,0.2-0.4,0.1
		c-0.4-0.1-0.9-0.2-1.3-0.3c-0.3,0-0.5,0.1-0.7,0.2c-0.8,0.4-1,1.8,0.2,2.3c0.8,0.3,1.1,0.7,0.8,1.6c-0.2,0.5,0.3,1.1-0.1,1.5
		C-89.3,328.4-89.9,328.7-90.3,329z M-81.7,322.1c2.7,0,4.8,2.5,4.7,4.6c0.2,2.6-2.2,4.7-4.6,4.7c-2.5,0-4.6-2.2-4.7-4.6
		C-86.4,324.3-84.2,322.2-81.7,322.1z"/>
	<path class="st1" d="M-1,334.6c-0.4,0.2-0.7,0.6-0.6,1.1c0,0.7,0.5,1.2,1.2,1.3c0.3,0,0.7-0.1,1-0.2c0.6-0.2,1.1-0.3,1.5,0.4
		c0.2,0.4,0.9,0.7,1,1.1c0.1,0.4-0.3,0.9-0.5,1.4c-0.2,0.6,0.1,1.2,0.6,1.5c0.6,0.3,1.2,0.2,1.6-0.3c0.2-0.2,0.4-0.5,0.6-0.7
		c0.3-0.5,0.7-0.6,1.3-0.5c0.2,0.1,0.5,0.1,0.8,0c0.5,0,1.1-0.2,1.5,0c0.4,0.2,0.7,0.8,1.1,1.2c0.4,0.5,1.1,0.6,1.6,0.3
		c0.5-0.3,0.9-1,0.6-1.5c-0.5-0.9-0.2-1.4,0.5-2c0.7-0.7,1.2-1.1,2.2-0.7c0.6,0.3,1.2-0.1,1.5-0.7c0.2-0.6,0.1-1.2-0.5-1.6
		c-0.3-0.2-0.6-0.4-0.9-0.6c-0.1-0.1-0.2-0.2-0.2-0.4c0.1-0.4,0.1-0.7,0.1-1.1c0-0.4-0.2-1,0-1.3c0.2-0.3,0.7-0.5,1.1-0.7
		c0.5-0.3,0.8-0.9,0.6-1.5c-0.2-0.6-0.7-0.9-1.3-0.9c-0.3,0-0.6,0.1-0.9,0.2c-0.5,0.2-0.8,0.1-1.1-0.4c-0.1-0.2-0.3-0.4-0.5-0.5
		c-0.8-0.5-1-1.1-0.5-2c0.3-0.6,0.1-1.3-0.5-1.6c-0.6-0.4-1.2-0.3-1.7,0.3c-0.3,0.4-0.6,0.7-0.9,1.1c-0.1,0.2-0.2,0.2-0.5,0.2
		c-0.8-0.1-1.6-0.1-2.5,0.1c-0.2,0.1-0.4,0-0.5-0.2c-0.3-0.4-0.6-0.9-1-1.2c-0.7-0.7-1.8-0.4-2.1,0.5c-0.2,0.5,0.1,0.9,0.3,1.4
		c0.3,0.8,0.3,0.8-0.3,1.4c-0.1,0.1-0.2,0.2-0.3,0.3c-0.4,0.7-0.9,0.9-1.7,0.6c-0.1,0-0.1,0-0.2,0c-0.8-0.2-1.4,0-1.6,0.7
		c-0.3,0.7,0,1.4,0.7,1.7c0.8,0.3,0.9,0.8,1,1.7C0.4,333.5,0,334.1-1,334.6z M7.5,327.9c2.7-0.1,4.7,2.4,4.7,4.7
		c0,2.6-2.2,4.7-4.7,4.7c-2.5,0-4.7-2.2-4.6-4.7C2.8,330.1,4.9,327.8,7.5,327.9z"/>
	<path class="st1" d="M-74.3,432.5c0-0.3,0-0.6,0-0.9c0-0.1,0-0.1-0.1-0.2c0-0.1,0-0.1,0-0.2c0-0.1,0-0.1,0-0.2c0-4,0-7.9,0-11.9
		c0-0.2,0-0.4-0.1-0.5c-0.3-0.7-0.8-1.1-1.5-1c-0.7,0.1-1.1,0.7-1.1,1.4c0,3,0,6,0,9c0,0.9,0,1.9,0,2.8c0,0,0,0.1,0,0.1
		c0,1.6,0,3.2,0,4.9c0.4,0.4,0.8,0.6,1.3,0.7c-0.5-0.1-0.9-0.3-1.3-0.7c0,0.1,0,0.1-0.1,0.2c0.1,0.6,0.4,1.1,1.1,1.2
		c0.6,0.1,1-0.1,1.3-0.6c0.2-0.2,0.2-0.4,0.2-0.6c0-0.1,0-0.2,0-0.3C-74.3,434.7-74.3,433.6-74.3,432.5z"/>
	<path class="st1" d="M18.5,369c0.1-0.4,0-0.8-0.3-1.1c-0.4-0.4-0.8-0.5-1.4-0.4c-0.7,0.1-1.3,0.2-2,0.4c-0.3,0.1-0.4,0-0.5-0.2
		c-0.7-1-1.5-1.9-2.6-2.6c-0.2-0.1-0.3-0.2-0.1-0.5c0.3-0.6,0.5-1.1,0.7-1.7c0.3-0.8,0.1-1.4-0.5-1.8c-0.6-0.4-1.2-0.2-1.8,0.4
		c-0.5,0.6-1,1.2-1.5,1.8c-0.1,0.2-0.2,0.2-0.5,0.2c-1.4-0.3-2.8-0.3-4.2,0.1c-0.2,0.1-0.3,0-0.5-0.1c-0.5-0.6-1-1.2-1.5-1.9
		c-0.5-0.6-1.1-0.8-1.8-0.5c-0.6,0.3-0.8,1-0.5,1.7c0.3,0.7,0.5,1.3,0.8,2c0.1,0.2,0.1,0.4-0.1,0.5c-0.9,0.7-1.6,1.4-2.2,2.4
		c-0.1,0.2-0.2,0.2-0.4,0.2c-0.7-0.2-1.3-0.3-2-0.4c-0.7-0.1-1.3,0.2-1.5,0.8c-0.3,0.7,0,1.3,0.6,1.7c0.5,0.3,1,0.6,1.6,0.9
		c0.3,0.1,0.3,0.3,0.3,0.6c-0.3,1.1-0.2,2.3,0,3.4c0,0.2,0,0.3-0.2,0.4c-0.7,0.4-1.3,0.8-1.9,1.3c-0.7,0.4-0.9,1.1-0.6,1.7
		c0.3,0.6,0.9,0.9,1.7,0.7c0.7-0.2,1.4-0.4,2-0.6c0.2-0.1,0.3-0.1,0.4,0.1c0.6,1,1.4,1.9,2.4,2.6c0.2,0.2,0.2,0.3,0.1,0.5
		c-0.3,0.6-0.5,1.2-0.7,1.9c-0.3,0.7-0.1,1.4,0.5,1.7c0.6,0.3,1.2,0.2,1.7-0.4c0.5-0.6,0.9-1.1,1.4-1.7c0.2-0.2,0.3-0.3,0.6-0.2
		c1.3,0.3,2.7,0.4,4.1,0.1c0.3-0.1,0.5,0,0.7,0.2c0.4,0.6,0.9,1.1,1.3,1.6c0.5,0.6,1.1,0.7,1.7,0.3c0.6-0.3,0.8-1,0.5-1.7
		c-0.2-0.5-0.4-1.1-0.7-1.6c-0.1-0.2-0.1-0.3,0.1-0.4c1.1-0.7,2-1.6,2.7-2.7c0.2-0.2,0.3-0.2,0.5-0.2c0.6,0.2,1.2,0.4,1.9,0.5
		c0.7,0.1,1.2-0.2,1.4-0.8c0.2-0.6,0.1-1.2-0.5-1.6c-0.5-0.4-1-0.7-1.6-1c-0.3-0.2-0.4-0.4-0.3-0.8c0.2-1.1,0.2-2.3,0-3.4
		c-0.1-0.4,0-0.6,0.4-0.7c0.5-0.2,1-0.5,1.5-0.8c0.3-0.1,0.5-0.3,0.6-0.6l0,0l0,0C18.5,369.2,18.6,369.1,18.5,369z M11.8,378.8
		c0,0,0.1-0.1,0.1-0.1C11.9,378.7,11.9,378.7,11.8,378.8z M13.4,375.8c0.1,0.2,0.2,0.4-0.2,0.3c-0.1,0-0.2,0.1-0.2,0.3l0,0
		c-0.1,0-0.2,0-0.2,0.1c-0.2,0.2-0.4,0.5-0.5,0.8c0,0,0,0,0,0c-0.1,0-0.2,0-0.2,0.2c-0.1,0.1-0.2,0.2-0.3,0.3
		c-0.1,0-0.1,0.1-0.1,0.2c-0.3,0.1-0.5,0.3-0.6,0.6c-0.1,0-0.1,0.1-0.2,0.2c-0.1,0-0.2,0-0.2,0.1c-0.7,0.3-1,1.1-1.9,1.2
		c-0.8,0-1.5,0.3-2.3,0.3c-0.8,0-1.5-0.1-2.3-0.3c-0.7-0.1-1.3-0.4-1.8-0.8c-1-0.8-1.7-1.7-2.4-2.6c-0.5-0.6-0.6-1.3-0.7-2
		c-0.2-1.1-0.1-2.3,0.1-3.4c0.1-0.8,0.5-1.3,0.9-1.9c0.6-0.9,1.3-1.6,2.2-2.2c0.6-0.4,1.1-0.7,1.8-0.8c1.3-0.3,2.6-0.3,4-0.1
		c0.7,0.1,1.2,0.3,1.7,0.7c1.2,0.8,2.1,1.7,2.8,2.9c0.9,1.5,0.9,3.1,0.7,4.7C13.3,374.9,13.2,375.4,13.4,375.8z M13.5,376.5
		c0.1,0,0.1,0,0.2-0.1C13.6,376.5,13.6,376.5,13.5,376.5z M18.1,369C18.1,369,18.1,369,18.1,369C18.1,369,18.1,369,18.1,369
		C18.1,369,18.1,369,18.1,369z"/>
	<polygon class="st1" points="-46.9,374.8 -46.9,374.9 -46.9,374.9 	"/>
	<path class="st1" d="M-17.5,406.5c0,0,0,0.1,0.1,0.1c0,0,0.1,0,0.2-0.1C-17.3,406.5-17.3,406.5-17.5,406.5
		C-17.4,406.4-17.5,406.5-17.5,406.5z"/>
	<path class="st1" d="M-43.5,350c-0.1-0.7-0.8-1.2-1.6-1c-1.2,0.2-2.4,0.5-3.5,0.7c-2.4,0.5-4.8,1-7.2,1.5c-0.7,0.2-1.1,0.7-1,1.4
		c0.1,0.6,0.6,1.1,1.3,1.1c0.1,0,0.2,0,0.3,0c3.5-0.7,7.1-1.5,10.6-2.2C-43.9,351.3-43.4,350.6-43.5,350z"/>
	<path class="st1" d="M-33.8,351.5c2.7,0.6,5.3,1.1,8,1.7c1,0.2,1.9,0.4,2.7,0.6c0.9,0,1.3-0.4,1.4-1.2c0.1-0.6-0.3-1.2-1-1.4
		c-3.6-0.8-7.1-1.5-10.7-2.3c-0.7-0.1-1.5,0.4-1.6,1C-35.1,350.7-34.6,351.3-33.8,351.5z"/>
	<path class="st1" d="M-45.1,357c-2.4-0.3-4.7-0.6-7.1-0.9c-0.7-0.1-1.3,0.5-1.3,1.2c-0.1,0.7,0.4,1.3,1.1,1.4
		c0.4,0.1,0.8,0.1,1.2,0.1c0.2,0,0.3,0,0.2,0.3c-0.3,0.5-0.1,1,0.2,1.4c0.4,0.4,0.9,0.5,1.4,0.3c1.5-0.5,2.9-0.9,4.4-1.4
		c0.6-0.2,1-0.7,1-1.3C-44.1,357.6-44.5,357.1-45.1,357z"/>
	<path class="st1" d="M-26.7,356.2c-0.4,0.1-0.7,0.1-1.1,0.1c-1.9,0.2-3.8,0.4-5.7,0.7c-0.8,0.1-1.1,0.5-1.2,1.2
		c0,0.7,0.3,1.1,1,1.3c0.8,0.2,1.5,0.5,2.3,0.7c0.8,0.2,1.6,0.4,2.3,0.6c1,0,1.7-0.8,1.4-1.6c-0.1-0.4,0-0.4,0.3-0.4
		c0.4,0,0.7-0.1,1-0.1c0.7-0.1,1.2-0.8,1.2-1.4C-25.2,356.6-25.9,356.1-26.7,356.2z"/>
	<path class="st1" d="M-42.4,370.4c0,0,0.1,0.1,0.1,0.1c1.6,1.3,4.4,1.1,5.8-0.4c0.5-0.5,0.5-1.3,0-1.8c-0.4-0.5-1.2-0.6-1.8-0.1
		c-0.4,0.3-0.8,0.5-1.3,0.6c0,0,0.1,0,0.1,0.1c0,0-0.1,0-0.1-0.1c-0.1,0-0.2,0-0.2,0c-0.2-0.1-0.5-0.1-0.7-0.2
		c-0.1,0-0.2-0.1-0.2-0.1c-0.4-0.4-0.8-0.7-1.4-0.6c0,0,0,0,0,0c-0.3,0-0.6,0.1-0.8,0.4c-0.1,0-0.1,0.1-0.1,0.1c0,0,0,0,0,0
		C-43.3,369.2-43.1,369.9-42.4,370.4z M-42.3,368.3c0.1,0,0.2,0,0.4,0c0,0,0,0,0-0.1c0,0,0,0,0,0.1c0.1,0.1,0.1,0.2,0.2,0.3
		c-0.1-0.1-0.1-0.2-0.2-0.3C-42,368.2-42.1,368.3-42.3,368.3C-42.3,368.3-42.3,368.3-42.3,368.3C-42.3,368.2-42.3,368.2-42.3,368.3
		C-42.3,368.2-42.3,368.2-42.3,368.3z"/>
</g>
<g>
	<path class="st1" d="M-350.2,203.3c-4.8-0.2-8.7-1.6-11.8-4.8c-0.8-0.8-1.6-1.6-2.2-2.4c-5.2-6.7-12.2-6.5-17.9-4.1
		c-3.2,1.3-6.1,3.5-8.9,5.4c-3.4,2.3-6.9,4.5-11,5.4c-7.7,1.6-14.3,0.1-19.6-6.2c-5.8-6.8-13.1-8-20.9-3.5c-2.3,1.3-4.5,2.9-6.7,4.5
		c-5,3.6-10.4,6-16.7,5.8c-4.7-0.2-8.8-1.7-12-5.2c-0.6-0.7-1.3-1.3-1.9-2c-5.1-6.8-12.5-6.5-18.1-4.1c-3.1,1.3-6,3.4-8.8,5.4
		c-4.1,2.8-8.3,5.3-13.4,5.9c-4.2,0.5-5.9,0.2-4.6-5c12.5-51,24.9-101.9,37.4-152.9c0.9-3.8,1.9-7.6,2.8-11.5c0.3-1.3,1-2,2.4-2
		c4.7-0.1,8.8-1.9,12.6-4.6c2.9-2,5.7-4,8.8-5.7c4.5-2.5,9.4-3,14.5-2.1c2.9,0.5,5.4,1.7,7.5,3.7c1.1,1,2.2,2.1,3.2,3.3
		c4.5,5.7,10.3,6.6,16.7,4.5c2.7-0.9,5.2-2.6,7.8-4.1c2.8-1.7,5.4-3.7,8.2-5.2c4.6-2.5,9.6-3.2,14.7-2c2.5,0.6,4.9,2.1,7.2,3.5
		c1.3,0.8,2.3,2.1,3.2,3.3c5.1,6.6,12.2,6.5,17.9,4.2c3-1.2,5.8-3.2,8.5-5.1c4.3-3,8.7-5.6,14-6.2c6.5-0.7,12.1,0.8,16.4,5.9
		c0.7,0.8,1.4,1.5,2.1,2.3c2.4,2.8,5.4,4.2,9,4.4c3.1,0.2,3.6,1,2.9,4c-4.1,16.8-8.2,33.7-12.3,50.5c-9.3,38.2-18.7,76.4-28,114.6
		C-347.7,202.9-348.3,203.3-350.2,203.3z M-430.4,186.2c3.6,0.5,6.5,1.8,9,4.1c1.4,1.3,2.7,2.7,3.9,4.2c2.9,3.4,6.7,4.7,11,4.4
		c3.1-0.2,6.1-0.9,8.7-2.6c2.5-1.6,4.9-3.3,7.3-5c3.6-2.5,7.5-4.5,12-5c1.2-0.1,1.6-0.8,1.8-1.9c3.8-15.6,7.6-31.3,11.4-46.9
		c1.1-4.4,2.2-8.7,3.2-13.1c0.4-1.5,1.3-2.3,2.8-1.9c1.5,0.4,1.7,1.6,1.5,2.9c0,0.2-0.1,0.4-0.2,0.5c-3.9,16.1-7.8,32.1-11.8,48.2
		c-1,3.9-1.9,7.9-2.9,12.1c6.2,0.4,9.8,4.6,13.5,8.8c0.4,0.5,0.9,1,1.5,1.3c1.3,0.7,2.7,1.4,4.1,2c1.5,0.6,2.3,0.2,2.8-1.6
		c12.9-53.1,25.9-106.1,38.9-159.2c0.1-0.5,0.1-1,0.2-1.7c-5.2-0.5-8.8-3.5-11.9-7.2c-0.2-0.2-0.4-0.5-0.6-0.7
		c-3.2-3.9-7.5-5.1-12.4-4.6c-4.3,0.5-7.9,2.5-11.4,4.9c-2.7,1.9-5.4,3.9-8.4,5.4c-9.2,4.7-18.1,2.8-24.9-4.8
		c-0.3-0.4-0.7-0.7-1-1.1c-3.2-3.8-7.4-4.8-12.1-4.4c-3.8,0.4-7.1,1.9-10.2,4c-2.9,2-5.7,4.1-8.7,5.8c-9.5,5.2-18.7,3.5-25.9-4.5
		c-0.3-0.4-0.7-0.7-1-1.1c-3.1-3.7-7.2-4.7-11.8-4.3c-3.7,0.3-6.9,1.7-9.9,3.7c-1.9,1.3-3.7,2.6-5.6,3.9c-3.6,2.5-7.4,4.4-11.8,4.8
		c-1.3,0.1-1.5,0.9-1.8,1.9c-3.1,12.8-6.2,25.6-9.3,38.3c-9.8,40.3-19.7,80.6-29.5,120.9c-0.1,0.5-0.1,1-0.3,2
		c2.5-1,4.6-1.6,6.5-2.7c2.5-1.4,4.8-3.2,7.2-4.8c3.7-2.6,7.7-4.7,12.3-5.1c1.3-0.1,1.5-0.9,1.8-1.9c3.9-15.8,7.7-31.6,11.6-47.5
		c1-4.2,2-8.4,3.1-12.5c0.3-1.4,1.2-2.2,2.7-1.9c1.5,0.3,1.9,1.4,1.6,2.8c-0.1,0.3-0.1,0.6-0.2,0.9c-3.9,15.9-7.8,31.8-11.7,47.6
		c-1,4-1.9,8.1-3,12.3c3.5,0.5,6.5,1.7,8.9,4c1.4,1.3,2.7,2.7,3.9,4.2c3.1,3.6,7.1,4.8,11.8,4.4c3.5-0.3,6.6-1.5,9.5-3.4
		c1.8-1.2,3.6-2.5,5.4-3.8c3.8-2.7,7.8-4.9,12.6-5.3c1.2-0.1,1.4-0.8,1.7-1.8c3.6-15,7.3-30,11-45c1.2-5,2.5-10,3.7-15
		c0.4-1.5,1.2-2.3,2.8-2c1.5,0.3,1.8,1.5,1.5,2.9c-0.1,0.3-0.1,0.6-0.2,0.9c-3.3,13.4-6.5,26.7-9.8,40.1
		C-427.2,172.9-428.8,179.4-430.4,186.2z"/>
	<path class="st1" d="M-373,69.4c-0.8,3.3-1.4,6-2.1,8.8c-8.2,33.7-16.4,67.3-24.7,101c-0.1,0.4-0.2,0.7-0.3,1.1
		c-0.3,1.5-1.3,2.1-2.7,1.8c-1.5-0.4-1.9-1.5-1.5-2.9c0.9-3.9,1.9-7.9,2.9-11.8c7.9-32.2,15.7-64.3,23.6-96.5
		c0.1-0.6,0.1-1.4,0.5-1.7c0.7-0.6,1.6-1.4,2.3-1.3C-374.2,67.9-373.5,68.9-373,69.4z"/>
	<path class="st1" d="M-460.1,182c-1.6,0-2.4-1.2-2-3c1.7-7,3.4-14,5.1-21c7.1-29.1,14.2-58.1,21.3-87.2c0.6-2.6,1.5-3.5,3-3.2
		c1.6,0.3,2,1.6,1.3,4.3c-8.7,35.9-17.5,71.7-26.3,107.6C-458,180.8-458.4,182-460.1,182z"/>
	<path class="st1" d="M-461.5,69.7c-2.1,0-3.7-1.5-3.7-3.5c0-2.4,2.1-4.5,4.5-4.5c2.1,0,3.7,1.5,3.7,3.6
		C-457,67.6-459.1,69.7-461.5,69.7z"/>
	<path class="st1" d="M-403.7,69.7c-2.1,0-3.6-1.5-3.7-3.6c0-2.3,2.1-4.5,4.5-4.5c2.1,0,3.6,1.5,3.6,3.6
		C-399.2,67.7-401.2,69.7-403.7,69.7z"/>
	<path class="st1" d="M-345.9,69.7c-2.1,0-3.6-1.5-3.6-3.6c0-2.4,2.1-4.4,4.5-4.4c2.1,0,3.6,1.5,3.6,3.6
		C-341.4,67.7-343.4,69.7-345.9,69.7z"/>
</g>
<g>
	<path class="st1" d="M494.5,461.9c3.5-3.6,6.9-7.2,10.5-10.7c1.3-1.3,2.9-1,4.4,0.5c4,4,8.1,8.1,12.1,12.1
		c6.8,6.8,13.6,13.6,20.3,20.3c0.4,0.4,0.6,0.8,1,1.3c0.7-0.6,1.1-1,1.5-1.4c8.2-8.2,16.4-16.3,24.5-24.5c6.3-6.4,13.6-8.6,22.3-6.9
		c12.8,2.4,25.7,4.5,38.5,6.7c0.7,0.1,1.4,0.1,2.2,0.1c6,0,11.9,0,17.9,0c2.9,0,4,1.1,4,3.9c0,14.2,0,28.4,0,42.6
		c0,2.8-1,3.9-3.8,3.9c-3.6,0-7.2,0.1-10.7,0c-7.8-0.3-15.5,0.8-23.2,1.7c-1.4,0.2-2.9,0.4-4.3,0.5c-3.8,0.3-7.3,1.4-10.5,3.4
		c-4.8,3-9.8,5.9-14.6,8.9c-4.1,2.6-8.3,3.2-12.8,0.9c-0.3-0.2-1.1,0-1.4,0.3c-1.9,1.8-3.7,3.7-5.5,5.5c-1.9,1.9-3.5,1.8-5.4,0
		c-4.4-4.4-8.9-8.9-13.3-13.3c-0.4-0.4-0.7-0.9-1.2-1.8c-1.6,1.8-2.8,3.3-4.2,4.6c-7,6.5-18.2,3.1-20.3-6.2c-0.9-4.1,0-7.9,2.9-11.1
		c1.3-1.4,2.8-2.6,4.5-4.2c-0.8-0.6-1.3-0.9-1.8-1.3c-10.5-10.5-21-21-31.5-31.6c-0.7-0.7-1.3-1.6-2-2.4
		C494.5,463.1,494.5,462.5,494.5,461.9z M627.2,484.6c0-6,0-11.9,0-17.9c0-1.1-0.3-1.6-1.5-1.8c-11.8-2-23.7-3.9-35.5-6.2
		c-7-1.3-12.6,0.5-17.5,5.6c-11.4,11.7-23,23.1-34.6,34.7c-2.7,2.7-5.5,5.4-8.1,8.2c-3.3,3.5-1.8,9,2.7,10.2
		c2.5,0.6,4.5-0.1,6.3-1.9c10.2-10.2,20.3-20.4,30.6-30.6c4.8-4.7,12.2-4.8,16.7-0.2c4.6,4.6,4.5,11.8-0.2,16.6
		c-1.4,1.4-2.8,2.8-4.2,4.2c-2.1,2.1-4.2,4.1-6.1,6.2c-2.7,2.8-1.7,7.1,1.8,8.4c1.7,0.6,3.3,0.3,4.9-0.7c5.2-3.2,10.4-6.4,15.6-9.6
		c3.2-2,6.6-3.3,10.3-3.8c5.7-0.7,11.4-1.3,17.1-1.9c1.3-0.1,1.7-0.6,1.7-1.9C627.2,496.4,627.2,490.5,627.2,484.6z M633.6,465.8
		c0,12.7,0,25.2,0,37.8c4.7,0,9.3,0,13.9,0c0-12.7,0-25.2,0-37.8C642.7,465.8,638.2,465.8,633.6,465.8z M568.8,510.7
		c1.3-1.5,2.5-3.1,3.9-4.5c2.9-3,6-6,9-9c2.4-2.4,2.5-5.8,0.3-8c-2.2-2.2-5.6-2.1-8,0.3c-3.6,3.5-7.1,7.1-10.7,10.6
		c-0.9,0.9-1.9,1.6-2.7,2.4C563.5,505.4,566.2,508.1,568.8,510.7z M538.3,489.9c-7.6-7.6-15.2-15.2-22.7-22.7c-1.4,1.4-3,3-4.4,4.3
		c7.6,7.6,15.2,15.2,22.7,22.7C535.4,492.8,537,491.3,538.3,489.9z M556.2,507.5c-1.5,1.5-3.1,3-4.5,4.4c4.2,4.2,8.4,8.4,12.5,12.5
		c1.5-1.4,3.1-2.9,4.6-4.3C564.6,515.9,560.4,511.7,556.2,507.5z M507.1,458.3c-1.6,1.6-3.2,3.2-4.7,4.7c1.2,1.3,2.6,2.7,3.7,3.9
		c1.7-1.5,3.3-3.1,4.8-4.5C509.7,461,508.3,459.6,507.1,458.3z"/>
	<path class="st1" d="M529.7,378.9c3.9,0,7.8,0,11.7,0c1.3,0,2.6,0.4,3,1.7c0.3,0.9,0.2,2.1-0.1,3.1c-0.5,1.2-1.7,1.5-3,1.5
		c-7.3,0-14.5,0-21.8,0c-0.5,0-1,0-1.6,0c-2.7,0.2-4.6,2.3-4.5,4.8c0.1,2.5,2,4.4,4.6,4.5c1.5,0.1,3,0,4.5,0.3
		c6.5,1.4,10.9,7.4,10.3,13.8c-0.6,6.9-5.9,11.9-12.8,12.2c-5.9,0.2-10.6,3.7-11.7,9.1c-0.5,2.4-0.3,4.8-0.4,7.3c-0.1,1.5,0,3,0,4.5
		c-0.1,1.7-1.3,3-3,3c-1.5,0.1-3.1-1-3.1-2.6c0-4.4-0.3-9,0.5-13.3c1.6-8.3,8.7-13.9,17.2-14.1c4.2-0.1,7.3-3.1,7.2-7
		c0-3.9-3-6.8-7.2-6.8c-3.5,0-6.6-0.7-9.1-3.2c-3.2-3.3-4.2-7.3-2.5-11.6c1.7-4.5,5.3-6.9,10.1-7
		C521.9,378.8,525.8,378.9,529.7,378.9C529.7,378.9,529.7,378.9,529.7,378.9z"/>
	<path class="st1" d="M566,400.9c3.6,1.6,7.1,3.1,10.7,4.7c1.2,0.5,2.2,1.4,2.1,2.8c-0.1,1-0.6,2.1-1.3,2.7
		c-0.9,0.9-2.2,0.6-3.3,0.1c-6.6-3-13.3-5.9-19.9-8.8c-0.5-0.2-0.9-0.4-1.4-0.6c-2.5-0.9-5.1,0.3-6.1,2.6c-0.9,2.3,0,4.8,2.4,6
		c1.3,0.7,2.8,1.3,4,2.1c5.4,3.9,7,11.2,3.9,16.8c-3.4,6.1-10.2,8.5-16.7,5.9c-5.5-2.2-11.2-0.9-14.4,3.6c-1.4,2-2.3,4.3-3.3,6.5
		c-0.7,1.4-1.2,2.8-1.9,4.1c-0.8,1.5-2.4,2.2-3.9,1.6c-1.4-0.6-2.4-2.2-1.8-3.7c1.8-4.1,3.3-8.3,5.8-12c4.8-7,13.6-9.2,21.4-6
		c3.9,1.6,7.9,0.1,9.4-3.5c1.5-3.6,0-7.4-3.8-9.1c-3.2-1.4-5.8-3.3-7-6.6c-1.6-4.3-0.9-8.3,2.4-11.6c3.4-3.4,7.6-4.2,12-2.4
		C558.9,397.7,562.4,399.3,566,400.9C565.9,400.9,565.9,400.9,566,400.9z"/>
	<path class="st1" d="M558.9,382c0,1.7-1.4,3.1-3,3.1c-1.7,0-3.1-1.3-3.2-3c-0.1-1.7,1.4-3.3,3.1-3.2
		C557.4,379,558.9,380.4,558.9,382z"/>
</g>
</svg>
