<?xml version="1.0" encoding="utf-8"?>
<!-- Generator: Adobe Illustrator 24.3.0, SVG Export Plug-In . SVG Version: 6.00 Build 0)  -->
<svg version="1.1" id="Layer_1" xmlns="http://www.w3.org/2000/svg" xmlns:xlink="http://www.w3.org/1999/xlink" x="0px" y="0px"
	 viewBox="0 0 150 150" style="enable-background:new 0 0 150 150;" xml:space="preserve">
<style type="text/css">
	.st0{fill:#005BAB;}
</style>
<g>
	<path class="st0" d="M0.6,21.2c0.2-1,0.4-2.1,0.7-3.1C3.6,9.1,11.4,2,20.4,0.8c9.9-1.3,19,3.2,23.8,11.7c0.2,0.4,0.5,0.8,0.7,1.2
		c8-6.2,16.7-7.7,25.8-3.1c9.3,4.7,13.2,12.8,12.8,23.1c1.9,0.3,3.9,0.7,5.8,1.1c0.7,0.1,1.3,0.3,2,0.5c1.4,0.5,2.1,1.6,1.7,2.7
		c-0.4,1.2-1.5,1.8-2.9,1.4c-3.9-1.1-7.8-1.6-11.8-1.2c-5,0.4-9.5,2.2-13.4,5.4c-0.7,0.6-1,1.2-0.9,2.1c0.2,1.5,0.5,3,0.5,4.5
		c0,1.9,0.9,3,2.2,4.1c4.7,4,10.1,6.2,16.3,6.4c2.6,0.1,5.3,0.1,7.8,0.6c6.2,1.3,10.5,4.8,12.9,10.9c1.4-1.7,1.9-3.7,2.1-5.8
		c0.8-8.3-1.5-15.6-7.2-21.7c-0.2-0.2-0.3-0.3-0.5-0.5c-0.9-1-0.9-2.3,0-3.1c0.9-0.8,2.1-0.8,3.1,0.1c3.6,3.4,6,7.5,7.5,12.2
		c0.5,1.7,0.9,3.5,1.3,5.2c12.1-6,23-4.6,31.6,6.4c5.7,7.3,6.3,18.8-0.7,27.9c1.5,1.8,3.1,3.5,4.5,5.4c1.4,1.9,1.4,3.2,0.1,4
		c-1.1,0.7-2.4,0.5-3.7-1.6c-5.1-7.9-15.4-10.6-23.9-6.6c-8.5,4.1-12.6,13.8-9.9,22.7c0.3,1.1,0.9,1.7,1.9,2.1
		c4.7,1.8,8.3,5,10.8,9.5c0.5,0.8,1,1.2,1.9,1.3c11.8,2,22.3-6.8,22.4-18.7c0-0.8,0.1-1.8,0.6-2.3c0.5-0.5,1.5-0.7,2.2-0.6
		c1.1,0.2,1.5,1.1,1.5,2.2c0.1,3.5-0.5,6.8-1.9,10c-4.1,9.2-13.5,14.8-23.5,13.9c-0.2,0-0.5,0-0.9,0c0.6,3.5,1.2,6.8,1.8,10.2
		c0.1,0.6,0.2,1.2,0.3,1.7c0.4,1.4-0.2,2.3-1.3,3.1c-0.5,0-1,0-1.5,0c-0.5-0.9-1.3-1.7-1.5-2.6c-0.7-3.1-1.2-6.2-1.7-9.3
		c-1-6.7-4.2-11.7-10.6-14.3c-3-1.2-6.1-1.9-9.1-2.9c-0.2-0.1-0.5,0-0.9,0c-0.2,1.9-0.4,3.7-0.6,5.6c-1,7.4-2.6,14.7-5.8,21.4
		c-0.4,0.8-1.1,1.4-1.7,2.1c-0.5,0-1,0-1.5,0c-1.5-1.3-1.7-2-1-3.5c2.3-4.5,3.5-9.4,4.6-14.3c0.7-3.1,1-6.3,1.5-9.4
		c-1.3-0.4-2.3-0.7-3.3-1c-3.3,7.9-7.5,10.9-15.6,10.9c-8,0.1-12.5-3-15.8-10.9c-1,0.3-2.1,0.7-3.2,1c0.3,2,0.6,3.8,0.9,5.6
		c0.1,0.7,0.3,1.5,0,2c-0.5,0.7-1.3,1.4-2.1,1.4c-1.2,0.1-1.9-0.8-2.1-2c-0.5-3-0.9-5.9-1.4-9c-0.4,0.1-0.8,0-1.1,0.2
		c-2.6,0.8-5.3,1.5-7.9,2.4c-6.1,2.2-9.8,6.5-11.1,12.9c-0.7,3.7-1.3,7.3-2,11c-0.2,0.9-1,1.8-1.5,2.6c-0.5,0-1,0-1.5,0
		c-1.4-0.8-1.6-2-1.3-3.5c0.6-3,1.2-6.1,1.6-9.1c1.3-8.7,5.9-14.9,14.3-18c2.8-1.1,5.8-1.8,8.7-2.7c1.7-0.5,3.3-0.3,4.6,1
		c0.7,0.7,1.4,0.9,2.3,0.5c0.4-0.2,0.9-0.3,1.4-0.4c1.3-0.2,2-0.8,2-2.3c0-1.4,0.2-2.9,0.5-4.3c0.2-0.9-0.1-1.5-0.9-2.1
		c-4.4-3.8-8.1-8.2-10.9-13.3c-0.1-0.2-0.3-0.3-0.5-0.6c0.5,14.1-8.9,22.5-17.8,24.6c-9.9,2.4-20.2-1.9-25.4-10.7
		c-5.3-8.8-4.2-20,2.8-27.6c3.5-3.8,7.8-6.2,12.8-7.2c6.9-1.3,13.2,0.4,18.7,4.5c0.9-1,1.7-1.9,2.6-2.8c-2.9-4-3.9-8.9-3.8-14
		c0.2-5.2,1.5-10,4.7-14.1c-1.3-2-2.6-3.8-3.9-5.8c-0.2,0.2-0.5,0.4-0.7,0.5c-6.7,5.1-14.1,6.4-22.1,3.8c-1.9-0.6-2.5-1.7-2.1-3.1
		c0.5-1.3,1.6-1.6,3.4-1.1c1.7,0.5,3.5,1,5.2,1c12.2,0.6,21.5-9.9,19.6-22C41.2,13.6,37,8.6,30.3,6.1c-6.8-2.5-13.2-1.3-18.6,3.3
		c-8,6.9-9,17.8-2.4,26.3c1.1,1.4,1.1,2.7,0,3.6c-1.1,0.8-2.4,0.7-3.3-0.8c-1.4-2.2-2.8-4.4-3.8-6.8c-0.7-1.6-1-3.5-1.5-5.3
		C0.6,24.7,0.6,23,0.6,21.2z M63.4,57.9c-1.6,4.5-4.7,7.9-8.9,10.4c-1.9,1.1-3.4,2.9-3.6,5.1c-0.7,6.3-1.3,12.7,1.3,18.6
		c3.3,7.4,8.8,13.3,16.1,17.1c4.5,2.3,9,2.4,13.5,0c7.3-3.8,12.5-9.7,16.1-17c0.8-1.6,1.2-3.6,1.4-5.4c0.3-3.5,0.3-7.1,0.3-10.6
		c0-2.8-1.2-5.1-3.3-7c-2.7-2.5-5.9-3.6-9.5-3.7c-5.2-0.1-10.5-0.2-15.3-2.7C68.8,61.3,66.3,59.6,63.4,57.9z M26,77.6
		c-12.6,0-21.4,10.3-19.7,21.7c1.6,10.5,11.2,17.4,21.9,15.8c10-1.5,17-11.4,15.4-21.5c-0.1-0.5-0.4-1.2-0.9-1.5
		c-2.7-2.1-4.2-4.8-4.6-8.2c-0.1-0.6-0.4-1.3-0.9-1.7C33.7,79.1,29.6,77.7,26,77.6z M137.1,90.7c3.7-4.6,5.2-9.7,4.2-15.5
		c-1.3-6.9-5.3-11.8-11.8-14.3c-6.5-2.6-12.7-1.5-18.4,2.7c-0.4,0.3-0.8,0.8-0.8,1.3c-0.2,3.7-1,7.2-3.1,10.3c3,1.7,4.7,4.1,4.9,7.5
		c0.2,3.3-1.1,6.1-3.4,8.5c0.6,0.6,1.1,1.1,1.7,1.6c0.3,0.3,0.6,0.5,0.9,0.7C119.3,87.4,127.8,86.4,137.1,90.7z M45.9,44.2
		c4.8-3.3,9.5-4.4,14.7-3.1c0.4,0.1,0.9-0.2,1.2-0.4c4.6-3.9,10-6,16-6.6c1-0.1,1.3-0.5,1.2-1.3c-0.2-2-0.1-4-0.6-5.9
		c-3.3-13.8-20.7-19-31-9.3c-0.4,0.4-0.9,1.2-0.8,1.7c1.2,6.6-0.1,12.6-3.8,18.1c-0.2,0.3-0.3,0.9-0.2,1.2
		C43.7,40.3,44.8,42.2,45.9,44.2z M46,73.5c1.2-4.1,3.3-7.2,6.7-9.2c4-2.3,6.2-5.9,7.5-10.1c0.1-0.4,0.2-0.9,0.2-1.3
		c-0.2-2.1-0.5-4.2-0.6-6.3c-0.1-1-0.5-1.4-1.5-1.5c-5.2-0.8-10.8,2-13.4,7.2c-2.9,5.8-3.2,11.9-0.8,18C44.6,71.4,45.4,72.4,46,73.5
		z M64.7,112.1c-0.3,2.3-0.6,4.2-0.7,6.2c-0.4,3.8,1.1,6.5,4.6,8.1c4.3,2,8.7,1.9,13.1,0c2-0.9,3.7-2.4,4.4-4.6
		c0.9-3.2-0.3-6.3-0.5-9.7C78.5,116.2,71.7,116.1,64.7,112.1z M103.6,117c-0.9-3.8-0.9-7.3-0.1-10.8c0.8-3.5,2.4-6.7,4.4-9.2
		c-0.8-0.9-1.4-1.8-2.1-2.6c-0.9-1-3.5-0.7-4.1,0.5c-2.4,4.6-5.5,8.7-9.4,12.1c-2.1,1.8-2.6,3.5-2.2,6c0.7,3.6,0.5,3.7,4.1,4.6
		c0.5,0.1,1.2,0,1.5-0.3c1.5-1.4,3.2-1.7,5.1-1.1C101.6,116.4,102.4,116.7,103.6,117z M46,79c-1.9,0.1-3.4,1.7-3.5,3.8
		c-0.2,2.7,2,6.1,4.1,6.3C46.4,85.7,46.2,82.3,46,79z M103.6,89.1c2.5-0.9,4.3-3.7,4.1-6.4c-0.2-2.1-1.5-3.5-3.5-3.8
		C104,82.3,103.8,85.7,103.6,89.1z"/>
	<path class="st0" d="M59.6,149.4c-0.5-0.8-1.2-1.6-1.5-2.5c-0.9-2.3-1.6-4.6-2.3-6.9c-0.5-1.5,0-2.7,1.2-3.1
		c1.3-0.4,2.4,0.2,2.9,1.8c0.8,2.2,1.4,4.5,2.3,6.7c0.6,1.6,0.6,2.9-0.8,4C60.8,149.4,60.2,149.4,59.6,149.4z"/>
	<path class="st0" d="M102.9,23.8c0-12.8,10.5-23.2,23.4-23.2c12.8,0,23.1,10.5,23.1,23.3c0,12.8-10.5,23.3-23.4,23.2
		C113.3,47,102.9,36.6,102.9,23.8z M126.3,4.9c-10.4,0-18.9,8.4-19,18.7c-0.1,10.5,8.4,19,18.8,19.1c10.4,0,18.9-8.4,19-18.7
		C145.1,13.6,136.7,5,126.3,4.9z"/>
	<path class="st0" d="M117.3,113.4c-1.2,0-2.2-1.1-2.1-2.3c0.1-1.2,1.1-2.1,2.2-2.1c1.2,0,2.2,1.1,2.1,2.3
		C119.4,112.5,118.4,113.4,117.3,113.4z"/>
	<path class="st0" d="M128.2,111.3c0,1.2-1.1,2.2-2.3,2.1c-1.2-0.1-2.1-1.1-2-2.2c0-1.2,1.1-2.2,2.3-2.1
		C127.3,109.1,128.2,110.1,128.2,111.3z"/>
	<path class="st0" d="M136.9,111.2c0,1.2-1.1,2.2-2.3,2.2c-1.2,0-2.1-1-2.1-2.2c0-1.2,1.1-2.2,2.3-2.2
		C136,109.1,136.9,110.1,136.9,111.2z"/>
	<path class="st0" d="M21.8,24.4c0-0.4,0-0.9,0-1.3c0-2.8,0.1-3,2.8-3.6c1.3-0.3,2.2-1.4,2.2-2.8c0-1.4-0.9-2.6-2.4-2.9
		c-1.3-0.3-2.7,0.5-3.2,1.7c-0.2,0.4-0.2,0.8-0.3,1.3c-0.2,1.4-1.1,2.2-2.3,2.1c-1.3-0.1-2.1-1.2-2-2.7c0.3-3.4,2.9-6.2,6.4-6.7
		c3.3-0.5,6.6,1.6,7.8,4.8c1.2,3.4-0.2,7.2-3.5,8.9c-1,0.5-1.3,1-1.2,2c0.1,0.7,0,1.4,0,2c-0.1,1.3-1,2.3-2.2,2.2
		c-1.2,0-2-0.9-2.1-2.3c0-0.1,0-0.2,0-0.3C21.8,25.9,21.8,25.1,21.8,24.4z"/>
	<path class="st0" d="M26.1,36c0,1.2-1,2.3-2.1,2.3c-1.2,0-2.2-1-2.2-2.2c0-1.2,1-2.3,2.1-2.3C25.1,33.8,26.1,34.8,26.1,36z"/>
	<path class="st0" d="M63.5,84.5c-0.9-0.6-1.7-1-2.5-1.5c-1.1-0.7-1.4-1.9-0.8-2.9c0.6-1,1.8-1.4,2.9-0.9c2,1.1,4,2.2,5.9,3.4
		c1.5,0.9,1.5,2.7,0,3.7c-1.9,1.2-3.8,2.3-5.8,3.3c-1.2,0.6-2.4,0.3-3-0.8c-0.6-1.1-0.3-2.2,0.9-3C61.8,85.5,62.6,85,63.5,84.5z"/>
	<path class="st0" d="M86.6,84.5c0.8,0.5,1.6,0.9,2.3,1.4c1.2,0.8,1.5,1.9,1,3c-0.6,1.1-1.8,1.5-3.1,0.8c-1.9-1-3.7-2.1-5.5-3.2
		c-1.7-1.1-1.7-2.9,0-3.9c1.8-1.1,3.6-2.1,5.4-3.1c1.3-0.7,2.5-0.4,3.2,0.7c0.6,1.1,0.3,2.3-1,3.1C88.1,83.6,87.4,84,86.6,84.5z"/>
	<path class="st0" d="M75.1,99.4c0.8,0,1.5,0,2.3,0c1.3,0.1,2.1,1,2.1,2.2c0,1.2-0.8,2.1-2.1,2.1c-1.6,0.1-3.2,0.1-4.8,0
		c-1.3-0.1-2.1-1-2.1-2.2c0-1.2,0.8-2.1,2.1-2.1C73.4,99.4,74.3,99.4,75.1,99.4z"/>
	<path class="st0" d="M75,95.1c-1.2-0.4-2.3-0.7-3.3-1.3c-1-0.6-1.3-1.7-0.7-2.8c0.6-1.1,1.5-1.3,2.7-1.1c0.9,0.2,1.9,0.2,2.7,0
		c1.2-0.3,2.1,0,2.7,1c0.6,1.1,0.3,2.2-0.7,2.8C77.3,94.4,76.1,94.6,75,95.1z"/>
	<path class="st0" d="M27.3,92.1c0,2.4,0,4.8,0,7.3c0,1.7-0.9,2.7-2.2,2.6c-1.3,0-2.1-1-2.1-2.6c0-4.9,0-9.9,0-14.8
		c0-1.6,0.9-2.7,2.2-2.6c1.3,0,2.1,1,2.1,2.6C27.3,87.1,27.3,89.6,27.3,92.1z"/>
	<path class="st0" d="M25.1,111c-1.2,0-2.2-1.1-2.1-2.3c0-1.2,1-2.2,2.2-2.2c1.2,0,2.2,1.1,2.1,2.3C27.3,110,26.3,111,25.1,111z"/>
	<path class="st0" d="M120.6,79c0-0.5,0-1.1,0-1.6c0-2.4,0.3-2.7,2.7-3.2c1.5-0.3,2.4-1.5,2.3-3c-0.1-1.4-1.1-2.6-2.5-2.7
		c-1.4-0.2-2.7,0.7-3.1,2c-0.1,0.3-0.1,0.7-0.2,1c-0.2,1.3-1.2,2.2-2.4,2.1c-1.2-0.1-2-1.2-2-2.6c0.2-4.8,5.2-8.1,9.7-6.4
		c2.8,1,4.5,3.1,4.8,6.1c0.3,3.2-1,5.6-3.8,7.1c-1.1,0.6-1.4,1.2-1.3,2.2c0.1,0.7,0.1,1.4,0,2c-0.1,1.2-1.1,2.1-2.2,2
		c-1.2,0-2-0.9-2.1-2.2c0-0.1,0-0.2,0-0.3C120.6,80.6,120.6,79.8,120.6,79z"/>
	<path class="st0" d="M62.5,27c0,2.4,0,4.8,0,7.3c0,1.7-0.9,2.7-2.2,2.6c-1.3,0-2.1-1-2.1-2.6c0-4.9,0-9.9,0-14.8
		c0-1.7,0.9-2.7,2.2-2.6c1.3,0,2.1,1,2.1,2.6C62.5,22,62.5,24.5,62.5,27z"/>
	<path class="st0" d="M126.3,25.9c-1.2,0-2.2-1-2.2-2.3c0-1.2,1-2.1,2.2-2.1c1.2,0,2.2,1.1,2.2,2.3
		C128.4,24.9,127.5,25.9,126.3,25.9z"/>
	<path class="st0" d="M117.6,25.9c-1.2,0-2.2-1-2.2-2.2c0-1.1,1-2.1,2.1-2.2c1.1,0,2.2,0.9,2.2,2C119.8,24.8,118.9,25.8,117.6,25.9z
		"/>
	<path class="st0" d="M137.2,23.6c0,1.2-1,2.2-2.2,2.2c-1.1,0-2.1-1-2.2-2.1c0-1.2,1-2.2,2.2-2.2C136.2,21.5,137.2,22.5,137.2,23.6z
		"/>
</g>
</svg>
