<?xml version="1.0" encoding="utf-8"?>
<!-- Generator: Adobe Illustrator 24.3.0, SVG Export Plug-In . SVG Version: 6.00 Build 0)  -->
<svg version="1.1" id="Layer_1" xmlns="http://www.w3.org/2000/svg" xmlns:xlink="http://www.w3.org/1999/xlink" x="0px" y="0px"
	 viewBox="0 0 150 150" style="enable-background:new 0 0 150 150;" xml:space="preserve">
<style type="text/css">
	.st0{fill:#CDEEFD;}
	.st1{fill:#111224;}
	.st2{fill:#005BAB;}
</style>
<path class="st0" d="M1465.3,1556.3c-2.4-0.2-4.3-1.3-4.4-4.1c-0.1-6.7,1.6-10,4.9-9.9c0.2,0,0.3,0,0.5,0c2.2,0.5,4.3,2.1,3.2,4
	C1467.7,1549.5,1473.1,1555.7,1465.3,1556.3z M1465.5,1554.4c1.3-0.1,2.3-0.6,2.3-2.1c-0.1-1.7-1.5-2.1-2.8-2.4c-1.6-0.4-2,0.8-2,2
	C1463,1553.5,1464,1554.2,1465.5,1554.4z M1467.8,1546.5c0-1.4-0.6-2.2-2.1-2.2c-0.9,0-1.6,0.4-1.7,1.4c-0.2,1.4,0.9,2.1,2,2.5
	C1467.3,1548.5,1467.6,1547.5,1467.8,1546.5z"/>
<path class="st0" d="M1455.8,1556.6c-0.5-2.9-1.8-4.2-4.6-3.6c-0.7,0.2-1.7,0.3-2.1-0.8c-0.4-1.1,0.1-1.5,1.2-2.1
	c2.1-1.2,2.1-3.9,3.2-5.8c0.6-1,1-2.2,2.5-1.9c1.4,0.3,0.9,1.6,0.8,2.5C1456.4,1548.6,1458.4,1552.5,1455.8,1556.6z"/>
<path class="st1" d="M1465.5,1554.4c-1.5-0.1-2.6-0.8-2.5-2.4c0-1.2,0.4-2.4,2-2c1.2,0.3,2.7,0.7,2.8,2.4
	C1467.8,1553.7,1466.8,1554.2,1465.5,1554.4z"/>
<path class="st1" d="M1467.8,1546.5c-0.2,1-0.5,2.1-1.8,1.7c-1.1-0.4-2.1-1-2-2.5c0.1-1,0.8-1.4,1.7-1.4
	C1467.2,1544.3,1467.8,1545,1467.8,1546.5z"/>
<g>
	<path class="st2" d="M44,149.1c-1.7-0.7-2.3-2.1-2.2-3.8c0.1-2,0-4,0-5.9c0.2-4.7-1.5-8.7-4.6-12.3c-2.4-2.9-4.8-5.9-6.7-9.1
		c-6-10.3-8.1-21.5-6.4-33.3c1.2-8.1,4.3-15.5,8.9-22.2c0.5-0.7,0.5-1.4,0.4-2.2c-0.2-1.7-0.4-3.5,0-5.1c1.5-5.9,6.1-9.3,12.1-9.4
		c2.1,0,4.2,0,6.5,0c-0.2-0.4-0.3-0.5-0.3-0.7c-3.7-6.5-2.6-13.5,3-18.6c9-8.1,18-16.1,26.9-24.2c0.4-0.3,0.7-0.6,1.1-0.9
		c1.2-0.7,2.6-0.5,3.6,0.4c0.9,1,1,2.6,0.1,3.7c-0.5,0.6-1.1,1.2-1.7,1.7C76.3,15,67.7,22.7,59.1,30.4c-0.6,0.5-1.2,1.1-1.7,1.8
		c-2,2.6-2.6,5.5-1.3,8.6c1.3,3.1,3.7,4.7,7,5c0.5,0,1,0,1.4,0.1c7,1.2,14.1,2.4,21.1,3.6c2.5,0.4,5,0.8,7.7,1.3c0-0.8,0-1.3,0-1.9
		c0-9.4,0-18.7,0-28.1c0-0.7,0-1.5,0.2-2.2c0.4-1.5,2.1-2.4,3.5-1.9c1.4,0.5,2,1.6,2,3c0,2.3,0,4.6,0,7c0,7.8,0,15.5,0,23.3
		c0,4.4-3.1,7.1-7.2,6.4c-4.1-0.7-8.2-1.4-12.3-2.1C74.3,53.4,69,52,63.6,51.6c-6.1-0.5-12.4-0.2-18.5-0.1c-3,0.1-5.5,2.4-6,5.2
		c-0.5,2.6,0.5,3.7,3.1,3.7c5.5,0,11,0.1,16.5,0c3.5-0.1,6.6,0.6,9.8,1.9c9.1,3.9,18.3,7.8,27.6,11.3c7.1,2.7,13.6,1.1,19.1-4.1
		c3.9-3.8,5.4-8.5,5.4-13.9c0-13.9,0-27.7,0-41.6c0-0.7,0-1.5,0.2-2.2c0.3-1.2,1.5-2.1,2.8-2.1c1.3,0,2.4,1,2.7,2.2
		c0.1,0.5,0.1,1.1,0.1,1.6c0,14.1,0,28.2,0,42.3c0,8-2.8,14.8-9.3,19.5c-2.7,1.9-3,3.9-3.1,6.8c-0.1,6.1,0.6,12,2.4,17.8
		c1.3,4.3,2.1,8.8,2.6,13.3c1.3,11.1,0.1,21.9-2.9,32.7c-0.4,1.4-1,2.5-2.3,3.2c-0.6,0-1.2,0-1.7,0c-2-1.6-2.3-2.2-1.7-4.5
		c1.4-5.2,2.5-10.4,2.9-15.7c0.8-9.1,0.2-18.2-2.4-26.9c-1.9-6.3-3.1-12.5-2.7-19.1c0.1-0.9,0-1.9,0-3c-6.6,1.7-12.5,0.2-18.4-2.3
		c-8.6-3.7-17.4-7.2-26.1-10.7c-0.7-0.3-1.6-0.5-2.4-0.5c-6.4,0-12.8,0-19.3,0c-1.1,0-2.1-0.1-3.1-0.4c-0.8-0.3-1.2-0.1-1.6,0.6
		c-1.3,2.4-2.8,4.9-4,7.3c-0.3,0.5-0.3,1.2-0.2,1.8c0.7,3.5,3.4,5.7,7.5,6c6.3,0.4,10.4,3.6,12.5,9.5c0.1,0.4,0.5,0.9,0.9,0.9
		c2.7,0.4,4.6,2,6.3,4c0.4,0.5,1.1,0.8,1.7,1.2c0.1-0.1,0.2-0.2,0.2-0.3c-0.2-0.3-0.3-0.6-0.5-0.8c-3.8-5.3-3.3-12.4,1.2-17.1
		c4.3-4.5,11.7-5.3,17-1.8c5.3,3.6,7.4,10.7,4.8,16.5c-0.3,0.6-0.4,1.4-0.3,2.1c0.4,4.7,0,9.4-2.1,13.7c-2.7,5.6-7.4,8.8-13.2,10.7
		c-3.4,1.1-6.9,1.8-10.5,1.3c-4.6-0.6-8.3-2.9-10.6-6.7c-1.1,0.9-2,2.2-3.2,2.7c-3.7,1.5-8.3-1.5-9.1-5.7
		c-1.1-5.8,3.7-12.7,9.7-14.1c1.3-0.3,2.6-2.2,2.5-3.6c-0.3-3.4-3.2-6.4-6.5-6.6c-4.2-0.2-8-1.4-10.9-4.6c-0.1,0.2-0.2,0.2-0.2,0.3
		c-0.1,0.2-0.2,0.5-0.2,0.7c-1.5,8.1-0.9,16,1.9,23.8c2.1,5.9,5.4,11.2,9.7,15.8c4,4.3,6,9.4,5.9,15.3c0,2.2-0.1,4.3,0,6.5
		c0.1,1.8-0.5,3.1-2.2,3.9C45,149.1,44.5,149.1,44,149.1z M45.1,109.1c2.5-1.7,5.6-1.4,6.9,1.2c3.1,6.1,9.2,6.4,14.8,4.6
		c4.1-1.3,7.8-3.3,10-7.3c1.2-2.2,1.9-4.6,2-7.2c-1.4,0.4-2.7,0.8-4,1c-1.1,0.2-2.3,0.1-3.4,0.1c-0.7,0-1.4,0.2-2.1,0.3
		c-2.3,0.3-4.5,0.9-6.8,1c-2.5,0.1-4.7-0.9-6.3-3c-0.4-0.5-0.8-1.1-1.4-1.5c-0.5-0.3-1.3-0.6-1.7-0.4c-0.4,0.2-0.6,1.2-0.4,1.6
		c0.4,1,0.9,2.1,1.7,2.7c1.6,1.2,3.4,2.1,5.2,3c1.1,0.5,2.3,0.8,3.4,1.3c1.3,0.6,1.9,2.1,1.5,3.4c-0.4,1.4-1.9,2.4-3.3,2
		c-5.1-1.4-10-3.3-13.1-8.1c-0.5-0.8-1.1-0.6-1.7-0.4c-2.3,0.7-4.8,3.9-4.9,6.4c0,0.7,0.4,1.4,0.5,1.9
		C43.2,110.7,44.1,109.8,45.1,109.1z M65.1,88.2c0,4.2,3.3,7.6,7.5,7.6c4.1,0,7.6-3.4,7.6-7.5c0-4.2-3.3-7.6-7.5-7.6
		C68.5,80.7,65.1,84,65.1,88.2z"/>
	<path class="st2" d="M123.5,6.6c1.5,0,2.8-1.3,2.8-2.9c0-1.6-1.3-2.9-2.8-2.9c-1.5,0-2.8,1.3-2.8,2.9C120.7,5.3,122,6.6,123.5,6.6z
		"/>
</g>
</svg>
