<?xml version="1.0" encoding="utf-8"?>
<!-- Generator: Adobe Illustrator 24.3.0, SVG Export Plug-In . SVG Version: 6.00 Build 0)  -->
<svg version="1.1" id="Layer_1" xmlns="http://www.w3.org/2000/svg" xmlns:xlink="http://www.w3.org/1999/xlink" x="0px" y="0px"
	 viewBox="0 0 150 150" style="enable-background:new 0 0 150 150;" xml:space="preserve">
<style type="text/css">
	.st0{fill:#CDEEFD;}
	.st1{fill:#111224;}
	.st2{fill:#005BAB;}
</style>
<path class="st0" d="M1465.3,1556.3c-2.4-0.2-4.3-1.3-4.4-4.1c-0.1-6.7,1.6-10,4.9-9.9c0.2,0,0.3,0,0.5,0c2.2,0.5,4.3,2.1,3.2,4
	C1467.7,1549.5,1473.1,1555.7,1465.3,1556.3z M1465.5,1554.4c1.3-0.1,2.3-0.6,2.3-2.1c-0.1-1.7-1.5-2.1-2.8-2.4c-1.6-0.4-2,0.8-2,2
	C1463,1553.5,1464,1554.2,1465.5,1554.4z M1467.8,1546.5c0-1.4-0.6-2.2-2.1-2.2c-0.9,0-1.6,0.4-1.7,1.4c-0.2,1.4,0.9,2.1,2,2.5
	C1467.3,1548.5,1467.6,1547.5,1467.8,1546.5z"/>
<path class="st0" d="M1455.8,1556.6c-0.5-2.9-1.8-4.2-4.6-3.6c-0.7,0.2-1.7,0.3-2.1-0.8c-0.4-1.1,0.1-1.5,1.2-2.1
	c2.1-1.2,2.1-3.9,3.2-5.8c0.6-1,1-2.2,2.5-1.9c1.4,0.3,0.9,1.6,0.8,2.5C1456.4,1548.6,1458.4,1552.5,1455.8,1556.6z"/>
<path class="st1" d="M1465.5,1554.4c-1.5-0.1-2.6-0.8-2.5-2.4c0-1.2,0.4-2.4,2-2c1.2,0.3,2.7,0.7,2.8,2.4
	C1467.8,1553.7,1466.8,1554.2,1465.5,1554.4z"/>
<path class="st1" d="M1467.8,1546.5c-0.2,1-0.5,2.1-1.8,1.7c-1.1-0.4-2.1-1-2-2.5c0.1-1,0.8-1.4,1.7-1.4
	C1467.2,1544.3,1467.8,1545,1467.8,1546.5z"/>
<g>
	<path class="st2" d="M31.9,111.3c0.9,0.7,1.6,1.3,2.3,1.9c1.4,1.3,1.9,2.9,1.5,4.9c-1.4,6.1,1.3,10.3,7.1,10.9
		c4.5,0.5,9-0.2,13.5-1.1c3-0.6,6-1.4,8.9-2.1c1.2-0.3,1.8,0.1,1.8,1.4c0.2,6.8,0.4,13.7,0.6,20.5c0,0.9-0.2,1.7-1.1,1.7
		c-0.9,0-1.2-0.7-1.2-1.6c-0.2-6-0.3-11.9-0.5-17.9c0-0.4,0-0.8-0.1-1.3c-2.1,0.5-4,1-6,1.4c-5,1.1-10.1,2-15.2,1.6
		c-1.8-0.1-3.6-0.5-5.2-1.3c-4.3-2-6.4-7.3-5-12.2c0.4-1.5,0.3-2.1-0.9-3.1c-0.4-0.4-0.8-0.7-1.2-1.1c-1.6-1.4-1.8-2.8-0.6-4.7
		c0.3-0.5,0.7-1,1.1-1.5c-0.6-0.6-1.3-1.2-1.9-1.9c-1.4-1.7-1.5-3.3,0-5c1.2-1.5,1.7-3.1,1.8-5.1c-2.1-0.5-4.2-0.9-6.2-1.4
		c-3.3-0.7-5.5-4.1-4.8-7.7c0.1-0.8,0.5-1.7,1-2.4c3-4.3,6.1-8.5,9.3-12.7c1.5-2,1.4-3.8,0.5-6c-0.9-2.2-1.7-4.4-2.2-6.8
		c-0.8-3.5,0-6.9,0.6-10.3C32.1,36.4,36.8,25.7,45,17C56.6,4.7,70.6-0.7,86.8,0.8c13.6,1.3,24.9,7.9,33.2,19.9
		c4.7,6.9,7.5,14.8,8.8,23.2c1.4,9.4,1.2,18.7-0.5,28.1c-0.6,3.4-2.1,6.5-3.6,9.5c-1.1,2.3-2.3,4.5-3.3,6.8
		c-2.2,4.8-3.2,9.8-2.9,15.1c0.5,9.6,1.1,19.2,1.6,28.9c0,0.8,0.3,1.1,1,1.3c2.5,0.7,4.1,2.8,4.3,5.3c0.2,2.5-1,4.8-3.4,6
		c-0.6,0.3-0.8,0.6-0.6,1.3c0.1,0.7,0.2,1.4,0.1,2c-0.1,0.4-0.6,1.1-0.9,1.1c-0.4,0-1.2-0.5-1.2-0.8c0.2-2.5-1.2-3.1-3-3.9
		c-2-0.9-2.9-2.9-2.9-5.2c0-2.4,1.1-4.2,3-5.1c1.2-0.6,1.3-1.2,1.2-2.5c-0.6-9.3-1.1-18.7-1.5-28c-0.3-6.6,1.2-12.8,4-18.6
		c0.6-1.2,1.1-2.4,1.8-3.6c2.7-4.9,4.5-10.2,5-16c0.8-8.7,0.8-17.4-1.2-26c-5.3-22.8-22-34.2-38-36.1c-24-2.8-45.6,12.3-53.4,37.4
		c-1.2,4-2.1,8.1-2.8,12.2c-0.7,3.9,0.2,7.5,1.8,11c0.6,1.2,0.9,2.6,1.1,4c0.3,1.7-0.3,3.1-1.2,4.4c-3.2,4.3-6.4,8.7-9.6,13
		c-1.6,2.2-0.5,5.6,2.1,6.2c2.1,0.5,4.1,0.9,6.2,1.3c1.7,0.4,2.3,1.3,2.1,3.1c-0.3,2.3-0.6,4.5-2.3,6.2c-0.6,0.6-0.5,1.2,0,1.7
		c0.8,0.7,1.5,1.4,2.4,1.9c1.3,0.9,1.4,1.5,0.3,2.7C33.4,109.5,32.7,110.4,31.9,111.3z M119.3,142.9c2,0,3.6-1.5,3.5-3.5
		c0-1.9-1.6-3.5-3.6-3.5c-2,0-3.7,1.7-3.6,3.6C115.7,141.5,117.3,143,119.3,142.9z"/>
	<path class="st2" d="M85,147.8c-2.3,0-4.3-0.8-6.1-2.4c-3.5-3.2-3.6-8.8-0.1-12.1c3.4-3.2,8.8-3.3,12.3-0.2
		c3.7,3.4,3.7,9.2-0.2,12.5C89.2,147.1,87.2,147.8,85,147.8z M84.9,145.2c1.6,0,3.1-0.5,4.4-1.6c2.7-2.3,2.7-6.1,0.2-8.5
		c-2.6-2.4-6.9-2.2-9.3,0.3c-2.1,2.2-2.1,5.6,0,7.8C81.5,144.5,83.2,145.1,84.9,145.2z"/>
	<path class="st2" d="M103.1,117.7c3.4,0,6,2.7,6,6.1c0,3.4-2.7,6.1-6,6.1c-3.3,0-5.9-2.7-5.9-6.1
		C97.2,120.4,99.8,117.7,103.1,117.7z M103.1,120.3c-2,0-3.6,1.5-3.6,3.4s1.7,3.5,3.6,3.5c2,0,3.5-1.6,3.5-3.5
		C106.7,121.8,105.1,120.3,103.1,120.3z"/>
</g>
</svg>
