<?xml version="1.0" encoding="utf-8"?>
<!-- Generator: Adobe Illustrator 24.3.0, SVG Export Plug-In . SVG Version: 6.00 Build 0)  -->
<svg version="1.1" id="Layer_1" xmlns="http://www.w3.org/2000/svg" xmlns:xlink="http://www.w3.org/1999/xlink" x="0px" y="0px"
	 viewBox="0 0 150 150" style="enable-background:new 0 0 150 150;" xml:space="preserve">
<style type="text/css">
	.st0{fill:#CDEEFD;}
	.st1{fill:#111224;}
	.st2{fill:#005BAB;}
</style>
<path class="st0" d="M1465.3,1556.3c-2.4-0.2-4.3-1.3-4.4-4.1c-0.1-6.7,1.6-10,4.9-9.9c0.2,0,0.3,0,0.5,0c2.2,0.5,4.3,2.1,3.2,4
	C1467.7,1549.5,1473.1,1555.7,1465.3,1556.3z M1465.5,1554.4c1.3-0.1,2.3-0.6,2.3-2.1c-0.1-1.7-1.5-2.1-2.8-2.4c-1.6-0.4-2,0.8-2,2
	C1463,1553.5,1464,1554.2,1465.5,1554.4z M1467.8,1546.5c0-1.4-0.6-2.2-2.1-2.2c-0.9,0-1.6,0.4-1.7,1.4c-0.2,1.4,0.9,2.1,2,2.5
	C1467.3,1548.5,1467.6,1547.5,1467.8,1546.5z"/>
<path class="st0" d="M1455.8,1556.6c-0.5-2.9-1.8-4.2-4.6-3.6c-0.7,0.2-1.7,0.3-2.1-0.8c-0.4-1.1,0.1-1.5,1.2-2.1
	c2.1-1.2,2.1-3.9,3.2-5.8c0.6-1,1-2.2,2.5-1.9c1.4,0.3,0.9,1.6,0.8,2.5C1456.4,1548.6,1458.4,1552.5,1455.8,1556.6z"/>
<path class="st1" d="M1465.5,1554.4c-1.5-0.1-2.6-0.8-2.5-2.4c0-1.2,0.4-2.4,2-2c1.2,0.3,2.7,0.7,2.8,2.4
	C1467.8,1553.7,1466.8,1554.2,1465.5,1554.4z"/>
<path class="st1" d="M1467.8,1546.5c-0.2,1-0.5,2.1-1.8,1.7c-1.1-0.4-2.1-1-2-2.5c0.1-1,0.8-1.4,1.7-1.4
	C1467.2,1544.3,1467.8,1545,1467.8,1546.5z"/>
<g>
	<path class="st2" d="M35.3,0.3c0.4,0.4,0.9,0.8,1.3,1.3c4,6.1,8,7.8,15.2,6.1c4.5-1.1,8.9-2.6,13.3-3.8c9.1-2.5,18-2.1,26.6,1.9
		c4.2,1.9,7.5,4.9,9.6,9.2c0.2,0.4,0.8,0.8,1.3,0.8c12.1,0.4,17,9.5,17.3,18.4c0.3,7.5-1.9,14.6-4.8,21.5c-0.3,0.9-0.7,1.7-1.1,2.5
		c-1.3,2.4-2,4.8-1.8,7.7c0.3,4.4-1.2,8.4-4.3,11.7c-1.7,1.9-3.9,3.1-6.4,3.5c-0.7,0.1-1.1,0.3-1.2,1.1c-0.8,6.9-4.7,12.1-9.5,16.8
		c-0.7,0.7-1,1.4-1,2.4c0.1,2.8,0.1,5.5,0,8.3c0,0.9,0.3,1.3,1.2,1.6c9.9,3.3,19.7,6.7,29,11.3c2.2,1.1,4.4,2.3,6.6,3.5
		c7.2,4.1,11.5,10.6,13.8,18.4c1.3,4.3,0.5,5.3-4,5.3c-44.2,0-88.4,0-132.6,0c-3.2,0-4-0.9-3.3-4c1.9-7.8,5.9-14.4,12.8-18.8
		c7.2-4.6,15.1-7.8,23.1-10.7c4.5-1.7,9.1-3.3,13.7-4.8c1-0.3,1.4-0.8,1.3-1.8c-0.1-2.7-0.1-5.4,0-8.2c0-1-0.3-1.7-1-2.4
		c-1.6-1.7-3.2-3.4-4.6-5.2c-2.5-3.2-4.2-6.8-4.7-10.8c-0.1-1.1-0.5-1.7-1.8-1.9c-3.2-0.6-5.8-2.4-7.4-5.2
		c-2.9-4.8-4.2-9.8-1.8-15.3c0.2-0.4,0-1.1-0.3-1.6c-4.2-8.6-6.7-17.6-6.7-27.2c0-10.4,2.8-20.1,8.5-28.8c0.6-1,1.5-1.7,2.3-2.6
		C34.3,0.3,34.8,0.3,35.3,0.3z M136.1,145.3c-0.2-0.7-0.4-1.3-0.6-1.8c-2.7-6.7-7.1-11.8-13.6-15.1c-10.4-5.2-21.3-9.2-32.3-12.9
		c-0.4-0.1-1.1,0.2-1.5,0.5c-1,0.9-1.8,2-2.8,2.9c-3.6,3.1-8,4.4-12.6,4.7c-7.7,0.4-14.7-1.3-19.7-7.9c-0.2-0.3-0.9-0.4-1.2-0.3
		c-11.3,3.7-22.5,7.8-33.1,13.3c-6.3,3.3-10.4,8.3-13,14.7c-0.2,0.6-0.4,1.2-0.6,1.8C48.9,145.3,92.4,145.3,136.1,145.3z M42.3,40.4
		c0,0.6,0,1.1,0,1.6c0.2,4.4,0.3,8.7,0.5,13.1c0.2,4.6,0.2,4.6-4.3,5c-3,0.3-4.9,1.8-5.1,4.6c-0.3,3.6,0.6,6.9,2.9,9.6
		c1.4,1.6,3.2,2.6,5.4,2.5c2.3-0.1,2.9,0.4,3.3,2.7c0.5,3.6,1.2,7.1,3.3,10.1c3.6,5.3,8.2,9.5,13.9,12.4c3.7,1.9,7.5,3,11.7,1.9
		c6.2-1.5,11.1-5.2,15.5-9.7c4-4.1,6.5-9,7-14.8c0.2-2.2,1-2.8,3.1-2.7c2.5,0.1,4.5-0.9,5.7-2.9c1.1-1.8,2.1-3.8,2.4-5.8
		c1.1-5.7-0.9-8-6.7-8.1c-1.8,0-2.5-0.8-2.7-2.5c-0.2-1.3-0.4-2.7-1-3.9C95.7,51,94,48.5,92.3,46c0,0-0.1,0.1-0.2,0.3
		c-1.5,3.7-3.3,4.9-7.2,4.9c-9.7,0-19.3,0-29,0c-4.3,0-6.9-2.7-7-6.9c0-1.1,0-2.3,0-3.5C46.7,40.6,44.6,40.5,42.3,40.4z M49,36.4
		c0-1.2,0-2.3,0-3.3c0-4.4,2.7-7.1,7.1-7.1c9.7,0,19.5,0,29.2,0c3.9,0,6.3,2,7.1,5.8c1.3,6.7,3.9,12.8,7.9,18.3
		c1,1.4,1.5,3.1,2.3,4.7c0.2,0.4,0.5,0.8,0.8,0.9c2,0.7,4,1.3,6.2,2c0.6-1.4,1.4-3.2,2.1-4.9c2.4-5.9,4.2-12,4-18.5
		c-0.3-9.2-5.7-14.3-14.9-13.9c-1.3,0.1-2.2-0.5-2.6-1.8c-1.3-3.9-3.9-6.6-7.4-8.4C83.4,6.6,75.8,5.9,68,7.8
		c-4.9,1.2-9.6,2.8-14.4,4c-7.3,1.9-13.8,1-18.9-5.2c0,0-0.1,0-0.1-0.1c-9,12-9.3,39-0.6,50.2c1.5-0.4,3-0.8,4.5-1.3
		c0-0.4,0-0.7,0-1.1c-0.2-5.2-0.4-10.5-0.6-15.7c-0.1-2.3,0.8-3,3.1-2.9C43.6,36,46.2,36.2,49,36.4z M70.6,46.8c4.8,0,9.6,0,14.4,0
		c2.2,0,2.9-0.7,2.9-2.8c0-3.6,0-7.2,0-10.8c0-2.1-0.8-2.8-2.8-2.8c-9.6,0-19.2,0-28.9,0c-2.1,0-2.8,0.7-2.8,2.8c0,3.6,0,7.2,0,10.8
		c0,2.1,0.7,2.8,2.8,2.8C60.9,46.8,65.8,46.8,70.6,46.8z M55.8,103.3c0,2.4,0.2,4.3,0,6.1c-0.3,2.6,0.9,4.4,2.8,5.9
		c1.1,0.9,2.3,1.7,3.5,2.2c5.6,2.3,11.3,2.3,17,0.1c2.4-1,4.3-2.5,5.8-4.7c0.2-0.4,0.5-0.8,0.5-1.2c0-2.7,0-5.4,0-8.5
		C75.5,110.5,65.7,110.4,55.8,103.3z"/>
	<path class="st2" d="M149.7,64.8c-0.2,0.6-0.4,1.2-0.5,1.8c-1.5,5.2-6.1,8.9-11.5,9.3c-5.4,0.3-10.6-2.8-12.7-7.8
		c-2.1-5-0.9-10.8,3.1-14.4c1-0.9,1.3-1.8,1.3-3.1c0-13.7,0.1-27.3-0.1-41c0-4.6,1.5-7.8,6-9.2c1,0,1.9,0,2.9,0c4.5,1.5,6,4.7,6,9.3
		c-0.2,13.3,0,26.6-0.1,40c0,1.8,0.2,3.3,1.8,4.5c2.2,1.7,2.9,4.4,3.7,6.9C149.7,62.3,149.7,63.5,149.7,64.8z M133.8,47.8
		c0,1.7-0.1,3.3,0,5c0.1,1.4-0.4,2.4-1.7,3.3c-3.2,2.1-4.5,6-3.4,9.6c1.1,3.5,4.4,5.9,8,5.9c3.7,0,7-2.4,8.1-5.9
		c1.1-3.6-0.1-7.4-3.3-9.5c-1.4-0.9-1.8-2-1.8-3.5c0-9.4,0-18.9,0-28.3c0-0.6,0-1.1-0.1-1.7c-2.1,0-3.9,0-5.9,0c0,2.7,0,5.4,0,8
		c2.8,0.4,3.6,0.8,3.6,2.2c0,2.5-2,2.2-3.6,2.4c0,2.7,0,5.3,0,7.9c3,0.5,3.7,1,3.7,2.5C137.5,47,136.7,47.5,133.8,47.8z M139.9,18.1
		c0-3.4,0-6.7,0-9.9c0-2.2-1.2-3.5-3-3.5c-1.8,0-3,1.3-3,3.4c0,3,0,5.9,0,8.9c0,0.4,0.1,0.7,0.1,1.1
		C135.9,18.1,137.8,18.1,139.9,18.1z"/>
	<path class="st2" d="M116.1,96.4c-0.3,1.1-0.7,3.2-1.4,5.1c-1,2.7-2.4,5.2-2.4,8.2c0,1.2-1.2,2.1-2.3,2c-1.1-0.1-2.1-1-2-2.3
		c0.3-2.1,0.8-4.3,1.3-6.4c0.2-0.9,0.7-1.7,1.1-2.5c2-4.2,1.6-8.2-0.7-12.1c-0.3-0.5-0.7-1.3-0.5-1.7c0.3-0.7,0.8-1.5,1.5-1.9
		c1-0.5,1.9,0.1,2.5,0.9C115.1,88.7,116,91.9,116.1,96.4z"/>
	<path class="st2" d="M29.5,84.7c2.3,0,3.1,1.8,2.3,3.5c-0.8,1.6-1.5,3.2-2,5c-0.7,2.5-0.1,5,1,7.3c1.3,2.7,2.4,5.4,2.4,8.5
		c0,1.7-0.8,2.7-2.1,2.8c-1.3,0-2-1-2.3-2.6c-0.5-2.4-1.2-4.9-2.2-7.2c-2.3-5.4-1.8-10.6,1.1-15.6C28.3,85.6,29.1,85.1,29.5,84.7z"
		/>
	<path class="st2" d="M9.5,102.2c0.4-2,0.8-4,1.4-5.9c0.4-1.4,1.6-2,2.8-1.6c1.2,0.4,1.8,1.6,1.3,3.1c-1.3,3.5-1,6.9,0.7,10.3
		c1.3,2.5,2.2,5.1,2.2,7.9c0,1.5-0.8,2.5-2,2.5c-1.2,0.1-2.1-0.9-2.4-2.3c-0.4-2.1-0.9-4.1-1.7-6.1C10.7,107.5,9.7,105,9.5,102.2z"
		/>
	<path class="st2" d="M131.8,102.6c-0.5,1.9-0.9,4-1.6,5.9c-1,2.6-2.3,5.1-2.4,8c0,1.2-1.2,2-2.3,2c-1.1-0.1-2-1-2-2.3
		c-0.1-2.8,0.8-5.3,2-7.8c1.1-2.4,2-4.8,1.5-7.6c-0.2-1-0.5-2.1-0.7-3.1c-0.4-1.5,0.1-2.7,1.4-3.1c1.2-0.4,2.4,0.3,2.8,1.7
		C130.9,98.3,131.3,100.3,131.8,102.6z"/>
	<path class="st2" d="M70.4,79.3c3.9,0,6.8,1.7,8.7,5c0.9,1.5,0.7,2.9-0.5,3.6c-1.2,0.7-2.3,0.2-3.2-1.3c-2.4-3.9-7.3-3.9-9.6,0
		c-0.9,1.5-2,1.9-3.2,1.3c-1.2-0.7-1.4-2-0.5-3.6C64,81,66.8,79.3,70.4,79.3z"/>
	<path class="st2" d="M53.2,66.2c-1.6,0.1-2.8-0.2-3.2-1.6c-0.4-1.4,0.6-2.6,2.2-2.8c1.2-0.1,2.5-0.2,3.6-0.6
		c0.8-0.3,1.6-1.1,2.2-1.8c1-1.1,2.1-1.5,3.2-0.8c1,0.7,1.3,2,0.6,3.2c-1.8,3-4.6,4-7.8,4.3C53.4,66.2,53.1,66.2,53.2,66.2z"/>
	<path class="st2" d="M88.6,66.3c-3.2-0.2-6-0.9-8-3.2c-0.5-0.6-1-1.4-1.2-2.1c-0.3-1,0.1-2.1,1.1-2.4c0.8-0.2,2.1-0.1,2.4,0.4
		c1.5,2.4,3.8,2.8,6.3,2.8c1.2,0,1.9,0.7,2.1,1.8c0.2,1.1-0.3,1.9-1.3,2.3C89.5,66.2,88.9,66.2,88.6,66.3z"/>
</g>
</svg>
