<?xml version="1.0" encoding="utf-8"?>
<!-- Generator: Adobe Illustrator 24.3.0, SVG Export Plug-In . SVG Version: 6.00 Build 0)  -->
<svg version="1.1" id="Layer_1" xmlns="http://www.w3.org/2000/svg" xmlns:xlink="http://www.w3.org/1999/xlink" x="0px" y="0px"
	 viewBox="0 0 150 150" style="enable-background:new 0 0 150 150;" xml:space="preserve">
<style type="text/css">
	.st0{fill:#CDEEFD;}
	.st1{fill:#111224;}
	.st2{fill:#005BAB;}
</style>
<path class="st0" d="M1465.3,1556.3c-2.4-0.2-4.3-1.3-4.4-4.1c-0.1-6.7,1.6-10,4.9-9.9c0.2,0,0.3,0,0.5,0c2.2,0.5,4.3,2.1,3.2,4
	C1467.7,1549.5,1473.1,1555.7,1465.3,1556.3z M1465.5,1554.4c1.3-0.1,2.3-0.6,2.3-2.1c-0.1-1.7-1.5-2.1-2.8-2.4c-1.6-0.4-2,0.8-2,2
	C1463,1553.5,1464,1554.2,1465.5,1554.4z M1467.8,1546.5c0-1.4-0.6-2.2-2.1-2.2c-0.9,0-1.6,0.4-1.7,1.4c-0.2,1.4,0.9,2.1,2,2.5
	C1467.3,1548.5,1467.6,1547.5,1467.8,1546.5z"/>
<path class="st0" d="M1455.8,1556.6c-0.5-2.9-1.8-4.2-4.6-3.6c-0.7,0.2-1.7,0.3-2.1-0.8c-0.4-1.1,0.1-1.5,1.2-2.1
	c2.1-1.2,2.1-3.9,3.2-5.8c0.6-1,1-2.2,2.5-1.9c1.4,0.3,0.9,1.6,0.8,2.5C1456.4,1548.6,1458.4,1552.5,1455.8,1556.6z"/>
<path class="st1" d="M1465.5,1554.4c-1.5-0.1-2.6-0.8-2.5-2.4c0-1.2,0.4-2.4,2-2c1.2,0.3,2.7,0.7,2.8,2.4
	C1467.8,1553.7,1466.8,1554.2,1465.5,1554.4z"/>
<path class="st1" d="M1467.8,1546.5c-0.2,1-0.5,2.1-1.8,1.7c-1.1-0.4-2.1-1-2-2.5c0.1-1,0.8-1.4,1.7-1.4
	C1467.2,1544.3,1467.8,1545,1467.8,1546.5z"/>
<polygon class="st2" points="1346.8,29.4 1346.9,29.6 1346.6,29.6 "/>
<g>
	<path class="st2" d="M66.6,85.1c3,0.9,6,1.7,9,2.6c1,0.3,2.1,0.5,2.9,1.1c1.1,0.8,2.2,1.4,3.3,2.2c0.4,0.3,0.7,0.4,1,0
		c0,0,0.1,0,0.2,0c-0.1,0.2-0.3,0.4-0.5,0.7c0.3,0.3,0.6,0.4,0.7,0.7c1,1.7,1.9,3.5,2.9,5.2c0.5,0.9,1,1.3,1.8,1
		c0.7-0.3,1-1,0.7-1.9c-1.6-4.4-4.2-7.9-8.4-10.1c-1.1-0.6-2-1.1-2.9,0.2c0,0-0.1,0-0.2,0c0.3-0.4,0.6-0.7,1-1.2
		c-0.7-0.2-1.3-0.4-2.1-0.6c0.1,0.4,0.1,0.6,0.2,1c-0.8-1.1-0.8-1.1-2.1-1.4c-4-1.1-7.9-2.3-11.5-4.4c-1.5-0.9-2.8-1.8-3.8-3.3
		c-1-1.5-0.8-3,0.3-4.3c0.7-0.9,1.4-1.8,1.9-2.8c1.3-2.2,1.9-4.7,2.5-7.2c0.1-0.4,0.4-0.8,0.8-1c1.5-0.8,2.6-1.8,3.2-3.4
		c1.1-2.6,1.2-5.3,0.3-8c-0.1-0.3-0.2-0.7-0.1-1.1c1-4.4,1-8.9,0.3-13.4c-0.9-5.5-3.9-9.2-9.5-10.5c-0.9-0.2-1.8-0.4-2.8-0.5
		c-1.7-0.2-3.5-0.2-5.2-0.8c-2.4-0.8-4.8-0.9-7.3-0.6c-3.3,0.4-6.5,1.2-9.7,1.6c-5.9,0.7-9.4,4.1-10.7,9.8c-1,4.6-1,9.3,0,14
		c0.1,0.4,0.1,0.8,0,1.3c-0.2,1.6-0.7,3.1-0.6,4.7c0.1,2.8,1.1,5.3,3.8,6.7c0.8,0.4,1,0.9,1.2,1.7c0.8,3.8,2,7.4,4.8,10.2
		c0.2,0.2,0.3,0.5,0.3,0.7c0.1,1.4-0.1,2.6-1.2,3.6c-1,0.9-2,1.8-3.1,2.5c-3.9,2.3-8.2,3.7-12.5,4.7C9,86.3,4.5,90.1,2.2,96.4
		c-1,2.7-1.6,5.4-1.7,8.3c-0.1,6.8-0.1,13.6-0.2,20.5c0,0.2,0,0.4,0.1,0.6c0.2,0.7,0.7,1,1.3,1c0.7,0,1.1-0.4,1.3-1.1
		c0.1-0.3,0-0.6,0-0.9c0-5.6-0.1-11.3,0-16.9c0-2.3,0.3-4.6,0.7-6.9c0.7-4.1,2.5-7.8,5.7-10.6c-0.1-0.6-0.1-1.3,0.1-1.7
		c0.2-0.4,0.9-0.4,1.4-0.7c-0.6,0.4-1.1,0.8-1.5,1.2c-0.1,0.1,0,0.6,0.1,0.8c0.2,0,0.5,0,0.7-0.1c1.8-1.3,3.8-2,6-2.6
		c2.3-0.6,4.6-1.4,6.9-2.1c0.3-0.1,0.6-0.2,1-0.3c0.1,0.3,0.2,0.6,0.3,0.8c1.5,3.8,3.9,6.8,7.3,9.1c5.8,3.8,12.1,4.7,18.7,3.4
		c7.6-1.5,13.1-5.6,16-13C66.5,85.2,66.6,85.1,66.6,85.1z M63.5,31.4c1.3,1.9,1.9,4,2.1,6.2c0.3,3.1,0.3,6.2-0.1,9.3
		c0,0.1-0.1,0.2-0.2,0.5c-1.5-1.3-2.1-2.8-2.3-4.5c-0.2-1.8-0.3-3.6-0.4-5.4c-0.2-3.6-1.4-6.8-4.2-9.3c-0.1-0.1-0.1-0.2-0.2-0.4
		C60.5,28.5,62.2,29.6,63.5,31.4z M34.9,29.4c6-4.7,14.9-4.6,21,0c2.8,2.2,4.1,5.1,4.2,8.6c0,1,0.1,2,0.1,3c0.1,2.8,0.6,5.4,2.5,7.6
		c-1.3,0.6-2.4,0.6-3.6-0.1c-3.2-1.9-8.2-1.4-11.1,1c-0.3,0.2-0.8,0.3-1.1,0.3c-1,0-2,0-3,0c-0.4,0-1,0-1.2-0.3
		c-3.2-2.9-9.2-2.5-11.9-0.5c-0.6,0.4-1.4,0.3-2.7-0.3c2.3-2.7,2.5-5.9,2.5-9.1c0-1,0.1-2.1,0.2-3.1C31.1,33.5,32.6,31.2,34.9,29.4z
		 M58.5,52.9c-0.2,2.1-1.2,3.2-3.3,3.6c-0.9,0.2-1.9,0.2-2.8,0.1c-2.1-0.2-3.6-2.3-3.2-4.4c0.1-0.3,0.3-0.6,0.6-0.8
		c1.3-1.1,2.8-1.5,4.4-1.5c0.9,0.1,1.7,0.2,2.6,0.4C58.5,50.9,58.7,51.3,58.5,52.9z M41.3,52.7c-0.1,1.9-0.8,3.7-3.4,4
		c-0.6,0.1-1.3,0.1-2,0c-2.7-0.4-4-1.7-3.9-4.9c0-0.3,0.4-0.8,0.6-0.9c1.2-0.4,2.4-0.7,3.6-1c1.7,0.1,3.2,0.5,4.4,1.6
		C41.1,51.8,41.4,52.3,41.3,52.7z M25.6,34.6c1-3.2,2.9-5.5,6.1-6.5c0.1,0,0.3-0.1,0.6-0.1c-0.1,0.2-0.2,0.3-0.2,0.4
		c-2.9,2.5-4,5.7-4.2,9.4c-0.1,1.9-0.2,3.7-0.4,5.6c-0.2,1.6-0.9,3-2.3,4.2c-0.1-0.7-0.2-1.2-0.3-1.8C24.8,41.9,24.5,38.2,25.6,34.6
		z M31.8,68.4c-1.2-2.3-1.8-4.8-2.2-7.3c-0.2-1-0.5-1.6-1.7-1.9c-1.9-0.5-2.7-2-2.9-3.8c-0.2-1.5-0.3-3,0.5-4.5
		c1.2,0.3,2.2,0.6,3.3,0.8c0.5,0.1,0.7,0.4,0.7,0.9c0.1,0.8,0.2,1.6,0.4,2.4c0,0,0,0.1,0,0.1c1.1,3,3.5,4.2,6.5,4.4
		c2.8,0.2,5.4-0.4,6.8-3.1c0.6-1.1,0.8-2.5,1.2-3.9c0.1,0,0.4-0.1,0.7-0.2c1-0.2,1.5,0.2,1.7,1.2c0.4,3.3,2.4,5.8,5.9,5.9
		c1.4,0.1,2.8-0.1,4.1-0.4c2.8-0.8,4.2-2.8,4.5-5.6c0.2-1.5,0.2-1.6,1.7-1.9c0.7-0.2,1.4-0.3,2.1-0.5c0.1,0,0.1,0,0.2,0
		c1.3,2,0.7,6.3-1.2,7.7c-0.4,0.3-0.9,0.6-1.3,0.6c-1,0.2-1.3,0.7-1.5,1.6c-0.6,2.3-1.2,4.7-2,7c-1,2.6-2.9,4.5-5.7,5.2
		c-0.7,0.2-1.3,0.7-1.9,1.1c-1.2,0.9-2.6,1.3-4.1,1.4c-1.3,0-2.6,0-3.8,0c-1.7,0-3.2-0.6-4.6-1.6c-0.7-0.5-1.4-0.9-2.2-1.1
		C34.4,72.1,32.9,70.5,31.8,68.4z M32.4,80.2c1.6-1.4,2.2-2.6,2.7-5c0.6,0.2,1.3,0.3,1.8,0.7c3.2,2.7,7.1,2.6,10.9,2.4
		c2.1-0.1,3.9-0.9,5.6-2.1c0.6-0.4,1.4-0.7,2.2-1.1c0.2,2.2,1.3,3.8,2.6,5.2c0.2,0.2,0.2,0.7,0.1,1c-2.1,5.1-5.9,8.1-11.3,8.9
		C40.7,91,34.5,87.3,32,81.6C31.8,81,31.9,80.7,32.4,80.2z M59.9,90.6c-3.2,3.1-7.1,4.7-11.5,5.3c-5,0.6-9.9-0.1-14.3-2.6
		c-3.4-2-5.8-4.8-7.2-8.4c-0.1-0.2-0.2-0.4-0.2-0.6c0-0.1,0-0.2,0-0.3c0.9-0.5,1.8-0.9,2.8-1.5c3.2,6.7,8.4,10.4,15.8,10.4
		c7.4,0,12.6-3.8,15.7-10.6c1.1,0.6,2.1,1.1,3.2,1.7C63.2,86.5,61.8,88.7,59.9,90.6z"/>
	<path class="st2" d="M149.7,124.7c-0.2-2.8-0.8-5.5-2.1-8c-2.6-5.2-6.7-8.8-11.8-11.4c-2.8-1.4-5.8-2.3-8.7-3.6
		c-2.3-1-4.5-2.2-6.8-3.4c-1.1-0.6-1.9-1.5-2.4-2.8c2.9-1.8,4.5-4.5,5.5-7.5c0.5-1.5,0.9-3.1,1.2-4.6c0.1-0.6,0.3-1,1-1.3
		c1.8-0.8,3-2.2,3.4-4.1c0.2-1.4,0.1-2.9,0.1-4.3c0-0.3,0-0.7,0.1-1c1.9-4.7,2.3-9.4,0-14.1c-1.5-3.2-3.9-5.7-6.7-7.9
		c-0.5-0.4-0.7-0.8-0.7-1.5c-0.1-5.4-2.7-9.1-7.7-11.3c-2.9-1.3-6-1.6-9.2-1.1c-7,0.9-11.3,5.6-11.7,12.6c0,0.4-0.3,0.8-0.6,1.1
		c-1.6,1.6-3.4,3.1-4.9,4.9c-4,4.8-4.2,10.2-2.4,15.9c0.4,1.3,0.6,2.5,0.5,3.8c-0.2,3,0.8,5.5,3.6,6.9c0.6,0.3,0.8,0.7,1,1.3
		c1,4.7,2.3,9.3,6.7,12.1c-0.5,1.2-1.3,2.1-2.3,2.8c-1.6,1-3.3,1.9-5,2.7c-3.1,1.3-6.3,2.4-9.3,3.8c-5.1,2.3-9.4,5.7-12.3,10.7
		c-1.7,3-2.7,6.2-2.7,9.7c0,1,0.6,1.6,1.3,1.6c0.8,0,1.3-0.6,1.3-1.5c0-0.1,0-0.2,0-0.3c0.1-3.4,1.2-6.5,3.1-9.3
		c2.7-3.9,6.3-6.7,10.6-8.6c3.3-1.4,6.7-2.7,10-4c0,0,0.1,0,0.1,0c2.4,7.3,7.3,11.7,15.1,11.9c8.2,0.2,13.3-4.4,15.8-12
		c1.9,0.7,3.7,1.5,5.6,2.2c3,1.1,6,2.3,8.7,4.1c4.8,3.2,8.2,7.3,9.4,13c0.2,1,0.2,2.1,0.3,3.2c0.1,0.8,0.5,1.3,1.3,1.3
		c0.8,0,1.2-0.5,1.3-1.3C149.7,125.2,149.7,125,149.7,124.7z M97.1,45c1.8-3.4,5-5,8.6-5.4c4.1-0.5,7.8,0.4,10.9,3.3
		c1.5,1.5,2.3,3.3,2.5,5.6c-7.7-4-15.3-4-22.8-0.1c-0.1-0.1-0.2-0.1-0.2-0.2C96.4,47.2,96.6,46,97.1,45z M87.5,69.1
		c-1.3-5.5,0.4-10.1,4.3-14c4.4-4.3,9.6-6.9,15.8-6.9c5,0,9.5,1.8,13.4,4.9c2.6,2.1,4.8,4.5,6.1,7.6c1.4,3.3,0.8,6.6,0.1,10
		c-3.7-0.5-7.3-0.9-10.8-1.6c-5.9-1.2-11.4-3.7-16.5-7c-1.4-0.9-2-0.7-2.7,0.7c-0.7,1.7-1.9,3.1-3.3,4.2c-1.8,1.5-3.9,2.6-6.3,3.4
		C87.7,69.9,87.6,69.5,87.5,69.1z M96,90.7c-1.6-2.4-2.3-5.2-2.8-8c-0.1-0.4,0-0.9-0.2-1.3c-0.3-0.5-0.6-1.1-1.1-1.2
		c-2.8-1-4-3.6-2.9-6.4c0.3-0.7,0.7-1.1,1.4-1.4c3.7-1.5,6.9-3.7,9-7.2c0-0.1,0.1-0.2,0.1-0.2c2.1,1.1,4.1,2.2,6.2,3.2
		c6.1,2.8,12.6,4.5,19.4,4.7c0.9,0,1.4,0.4,1.5,1.2c0.1,0.9,0.2,1.8,0.1,2.7c-0.2,1.7-1.3,2.9-2.9,3.3c-0.9,0.2-1.3,0.7-1.4,1.6
		c-0.4,3-1.1,5.9-2.6,8.5c-0.9,1.5-2.1,2.8-3.8,3.4c-0.9,0.4-1.8,0.8-2.6,1.4c-1.1,0.8-2.3,1.3-3.7,1.3c-1.2,0-2.5,0-3.7,0
		c-1.4,0-2.7-0.5-3.9-1.4c-0.7-0.6-1.6-1-2.4-1.3C98,93,96.8,92,96,90.7z M120.2,102.4c-1,4.8-5.3,8.9-10.3,9.8
		c-6.7,1.2-13.4-2.9-15.1-9.5c-0.2-0.7-0.1-1,0.5-1.4c1.9-1.1,3.4-2.5,4.4-4.6c2.3,2.1,5,2.5,7.8,2.5c2.8,0,5.5-0.3,7.8-2.5
		c1,2.2,2.7,3.6,4.6,4.8C120.2,101.6,120.3,102.1,120.2,102.4z"/>
	<path class="st2" d="M93.2,113.2c-0.8,0-1.4,0.7-1.4,1.5c0,0.8,0.6,1.3,1.4,1.3c0.8,0,1.4-0.6,1.4-1.4
		C94.6,113.8,94,113.2,93.2,113.2z"/>
	<path class="st2" d="M99.3,119.9c-0.8,0-1.3,0.6-1.4,1.4c0,0.8,0.6,1.4,1.4,1.4c0.8,0,1.4-0.7,1.4-1.4
		C100.7,120.4,100.1,119.8,99.3,119.9z"/>
	<path class="st2" d="M107.7,122.5c-0.8,0-1.4,0.5-1.4,1.4c0,0.8,0.5,1.4,1.4,1.4c0.8,0,1.4-0.6,1.4-1.4
		C109,123.2,108.5,122.6,107.7,122.5z"/>
	<path class="st2" d="M91.6,106.1c0-0.8-0.6-1.4-1.4-1.4c-0.8,0-1.4,0.6-1.4,1.4c0,0.8,0.6,1.4,1.4,1.4
		C91,107.5,91.6,106.9,91.6,106.1z"/>
	<path class="st2" d="M125.3,104.7c-0.8,0-1.4,0.6-1.5,1.4c0,0.8,0.6,1.4,1.4,1.4c0.8,0,1.4-0.6,1.5-1.4
		C126.7,105.3,126.1,104.7,125.3,104.7z"/>
	<path class="st2" d="M92.8,110.4c0-0.8-0.7-1.4-1.5-1.4c-0.8,0-1.3,0.6-1.3,1.4c0,0.8,0.6,1.4,1.4,1.4
		C92.2,111.9,92.8,111.2,92.8,110.4z"/>
	<path class="st2" d="M122.3,113.2c-0.8,0-1.4,0.6-1.5,1.4c0,0.8,0.6,1.4,1.4,1.4c0.8,0,1.4-0.6,1.5-1.4
		C123.7,113.9,123.1,113.2,122.3,113.2z"/>
	<path class="st2" d="M116.2,119.9c-0.8,0-1.4,0.5-1.4,1.4c0,0.8,0.6,1.4,1.4,1.4c0.8,0,1.4-0.6,1.4-1.4
		C117.6,120.5,117,119.9,116.2,119.9z"/>
	<path class="st2" d="M103.4,121.8c-0.8,0-1.4,0.7-1.4,1.4c0,0.8,0.6,1.4,1.4,1.4c0.8,0,1.4-0.6,1.4-1.4
		C104.8,122.4,104.1,121.8,103.4,121.8z"/>
	<path class="st2" d="M119.6,116.9c-0.8,0-1.4,0.6-1.4,1.4c0,0.8,0.6,1.4,1.4,1.4c0.8,0,1.4-0.6,1.4-1.4
		C121,117.5,120.4,116.9,119.6,116.9z"/>
	<path class="st2" d="M124.1,109.1c-0.8,0-1.4,0.6-1.4,1.4c0,0.8,0.6,1.4,1.3,1.4c0.8,0,1.4-0.5,1.5-1.4
		C125.5,109.7,124.9,109.1,124.1,109.1z"/>
	<path class="st2" d="M95.9,116.9c-0.8,0-1.4,0.6-1.4,1.4c0,0.8,0.6,1.3,1.4,1.4c0.8,0,1.4-0.6,1.4-1.4
		C97.3,117.5,96.7,116.9,95.9,116.9z"/>
	<path class="st2" d="M112.8,122c-0.3-0.1-0.8,0-0.9,0.2c-0.2,0.3-0.3,0.9-0.1,1.1c0.2,0.2,0.7,0.2,1.1,0.3
		c-0.4,0.1-0.8,0.3-0.9,0.2c-0.4-0.5-0.6-1.1-0.8-1.7c-0.6,0.4-0.8,1.1-0.3,1.7c0.3,0.4,0.9,0.7,1.4,0.7c0.6,0,1.1-0.3,1-1.1
		c0,0,0,0,0,0c0,0,0,0,0,0c0,0,0,0,0,0c0,0,0,0,0,0c0,0,0,0,0,0c0,0,0,0,0,0c0-0.1,0.1-0.2,0.1-0.3
		C113.6,122.6,113.3,122.2,112.8,122z"/>
</g>
</svg>
