<?xml version="1.0" encoding="utf-8"?>
<!-- Generator: Adobe Illustrator 24.3.0, SVG Export Plug-In . SVG Version: 6.00 Build 0)  -->
<svg version="1.1" id="Layer_1" xmlns="http://www.w3.org/2000/svg" xmlns:xlink="http://www.w3.org/1999/xlink" x="0px" y="0px"
	 viewBox="0 0 150 150" style="enable-background:new 0 0 150 150;" xml:space="preserve">
<style type="text/css">
	.st0{fill:#5F6368;}
	.st1{fill:#005BAB;}
</style>
<path class="st0" d="M2053.7-657.2c-2.1,0-3.6,0-5.1,0C2049.8-661.3,2051.5-660.2,2053.7-657.2z"/>
<g>
	<path class="st1" d="M113.9,118.3c0,1.8,0,3.4,0,5c0,7.2,0,14.3,0,21.4c0,1-0.3,2.2-1,2.8c-0.6,0.5-2,0.8-2.6,0.4
		c-0.8-0.5-1.6-1.6-1.7-2.6c-0.2-3-0.1-6-0.1-9c0-6.1,0-12.2,0-18.3c0-11.6-10.5-21.1-23.1-20.7c-0.5,0-1.2,1-1.3,1.6
		c-1.3,5.9-6.1,10.5-11.9,11.4c-8,1.3-15.1-3.5-17-11.4c-0.1-0.5-0.2-1-0.4-1.5c-8.9-1.6-16.4,4.9-16.2,12.9
		c0.3,11.2,0.1,22.4,0.1,33.6c0,0.6,0.1,1.2-0.1,1.8c-0.3,1.4-1.1,2.4-2.6,2.4c-1.6,0-2.4-0.9-2.7-2.4c-0.1-0.6-0.1-1.2-0.1-1.8
		c0-7.7,0-15.4,0-23c0-1.7-0.3-2.3-2.2-2.5c-8.3-0.7-16.4-0.4-24.2,2.6c-2.1,0.8-3.7-0.4-3.7-2.8c0-5.7,1.5-11,3.8-16.1
		c0.3-0.6,0.3-1.6,0-2.1C3.3,94,3,87.6,5.5,81.1c3.2-8.6,3.9-17.3,3-26.3C8.4,54,8,53.2,7.7,52.6c-2.6-5.1-4.6-10.5-4.9-16.2
		c-0.1-2.2,0.1-4.4,0.5-6.6c0.3-2,1.8-2.8,3.6-2.1c9.4,3.4,18.7,1.9,28-0.6c0.5-0.1,1-0.9,1-1.5c0.2-1.5,0-3,0.2-4.5
		c0.9-5.5,5.3-9.5,10.9-9.6c9.7-0.1,19.4-0.1,29.1,0c5.4,0.1,9.8,4,10.7,9.3c0.2,1.3,0.7,2,2,2.5c1.4,0.5,2.6,2,3.9,2.1
		c9.6,1,18.7,5.4,28.7,4.2c2.8-0.3,5.5-0.9,8.2-1.7c2.6-0.7,3.9,0,4.4,2.6c1.1,6.1-0.4,11.8-2.5,17.5c-0.2,0.4-0.3,0.9-0.6,1.3
		c-3.2,5.1-2.9,10.8-2.7,16.4c0.2,5.2,1.3,10.2,3.2,15.1c2.5,6.7,2.4,13.3-1.4,19.6c-0.3,0.5-0.2,1.5,0.1,2.1
		c2.1,4.8,3.5,9.7,3.8,15c0.2,3.7-1.3,4.8-4.7,3.6C124.3,119.1,119.3,118.3,113.9,118.3z M79,91.9c2.2,0,4.1,0,6,0
		c14.5-0.3,25.5,9.2,28.2,19.9c0.1,0.4,0.7,1,1.1,1c4.6,0.6,9.2,1,13.8,1.6c0-0.3,0-0.7-0.1-1.1c-1.3-3.6-2.5-7.1-3.9-10.7
		c-0.5-1.3-0.9-2.5,0.1-3.6c4.2-5,4.5-10.6,2.3-16.4c-2.3-6.2-3.5-12.5-3.6-19c-0.1-5.6-0.1-11.1,2.9-16.2c1.1-1.8,1.7-3.9,2.2-5.9
		c0.6-2.5,0.9-5.1,1.3-8c-12,3.3-23,0.1-34.2-2.7c0,5.1,0,9.8,0,14.5c0,0.5,0.4,1.1,0.7,1.6c2.8,4.7,2.7,9.4,0.1,14.2
		c-0.4,0.8-0.7,1.8-0.8,2.7c-0.3,2.6-0.1,5.3-0.7,7.8c-1.9,7.4-6.8,12.3-13.6,15.3c-1.3,0.6-2.1,1.2-1.8,2.7C79,90.2,79,91,79,91.9z
		 M33.3,113.5c0-1.3,0-2.5,0-3.6c0.1-5.2,2-9.6,5.9-13c3.5-3.1,7.6-4.7,12.2-4.8c2.9-0.1,5.7,0,8.6,0c0.7-4,0.6-3.9-2.6-5.6
		c-8-4.1-12.8-10.4-13.2-19.7c-0.1-1.4-0.5-2.3-1.5-3.2c-5.1-5.1-5.5-13.6-0.5-18.4c2.2-2.1,1.9-4.3,1.7-6.9c-0.9,0-1.8,0-2.6,0
		c-0.9,0-1.7,0-2.6,0c-1.7-0.1-2.6-1-2.7-2.7c-0.1-1,0-2,0-3.2c-9.4,2.7-18.5,3.8-28,1.5c0.1,1.4-0.1,2.6,0.3,3.7
		c1.3,4.2,2.8,8.3,4.1,12.4c0.6,2,1.4,4,1.6,6c1,9.5-0.2,18.7-3.5,27.6c-1.9,5.1-1.5,10.3,1.9,14.7c1.4,1.8,1.4,3.2,0.3,5.1
		c-2,3.5-3.3,7.3-3.7,11.6C17,112.6,25,112.5,33.3,113.5z M41.5,32.9c1,0,1.8,0,2.6,0c13.2,0,26.4,0,39.5,0c2.5,0,3.4,0.9,3.5,3.4
		c0,1.6,0,3.1,0,4.7c0.9,0.2,1.6,0.4,2.4,0.6c0.1-0.3,0.2-0.5,0.2-0.7c0-2.5,0.1-5,0-7.5c-0.1-3.7-1.7-5.5-5.4-6
		c-1.8-0.3-2.7-1.2-2.7-3c0-0.8,0-1.6,0-2.4c-0.3-2.9-2.6-5.3-5.4-5.3c-9.8-0.1-19.5-0.1-29.3,0c-2.7,0-5.2,2.2-5.4,4.9
		C41.3,25.3,41.5,28.9,41.5,32.9z M68.1,46.3c-5.1,0-10.2,0-15.3,0c-1,0-2.1,0-3.1,0.2c-3.7,0.9-5.9,4.2-5.5,8.2
		c0.4,4.2,3.6,7.4,7.9,7.6c1.6,0.1,3.1,0,4.7,0c3.7,0,3.5,0.5,3.5-3.3c0-0.7,0.1-1.3,0.2-2c0.6-3.2,3.2-5.4,6.5-5.5
		c3.3,0,6.1,2.3,6.6,5.5c0.2,1.2,0,2.5,0.2,3.7c0.1,0.6,0.8,1.4,1.3,1.4c3.3,0.1,6.6,0.2,9.8,0c4.7-0.3,7.8-4.3,7.5-9.1
		c-0.2-4.2-3.4-6.9-8.2-6.9C78.8,46.3,73.4,46.3,68.1,46.3z M49.7,67.8c0.5,9.8,10.8,17,22.7,15.9c9.5-0.9,18-9.3,17.1-16.3
		c-5,0.1-9.9,0.4-14.9,0.4c-3.9,0-6.3-2.6-6.4-6.5c0-0.9,0.1-1.9-0.1-2.7c-0.1-0.6-0.8-1-1.3-1.5c-0.5,0.5-1.1,0.9-1.3,1.4
		c-0.2,0.7-0.1,1.6-0.1,2.3c0,4.5-2.4,6.9-6.9,7C55.7,67.8,52.8,67.8,49.7,67.8z M65.5,89.1c0,1.8,0,3.6,0,5.3c0,1.7-1,2.6-2.6,2.8
		c-0.8,0.1-1.6,0.1-2.4,0.2c1,4.9,4.8,8,9.5,7.9c4.4-0.1,8.1-3.4,8.7-7.9c-0.4,0-0.8-0.1-1.1-0.1c-3.3-0.1-3.9-0.7-3.9-4
		c0-1.4,0-2.8,0-4.2C70.8,89.1,68.3,89.1,65.5,89.1z M49.5,40.8c10.8,0,21.5,0,32.1,0c0-1,0-1.7,0-2.5c-10.7,0-21.4,0-32.1,0
		C49.5,39.2,49.5,40,49.5,40.8z"/>
	<path class="st1" d="M116.7,14c2,0,3.5,0,5,0c1.7,0,2.8,0.8,2.9,2.6c0.1,1.8-1,2.7-2.7,2.8c-3.5,0.1-7.1,0.2-10.6,0
		c-0.9,0-2.2-0.9-2.6-1.7c-0.3-0.8,0-2.2,0.6-3c2.1-2.8,4.4-5.5,7-8.7c-1.8,0-3.2,0-4.5,0c-2.1-0.1-3.4-1.2-3.3-2.8
		c0.1-1.6,1.3-2.5,3.3-2.5c3.2,0,6.4-0.1,9.6,0.1c1,0.1,2.4,0.7,2.7,1.4c0.4,0.9,0.1,2.4-0.5,3.2C121.6,8.2,119.3,10.9,116.7,14z"/>
	<path class="st1" d="M52.1,133.6c0,3.8,0,7.6,0,11.4c0,2.1-0.9,3.2-2.6,3.2c-1.7,0-2.8-1.1-2.8-3.3c0-7.6,0-15.2,0-22.8
		c0-2.1,1.1-3.4,2.7-3.4c1.6,0,2.7,1.3,2.7,3.4C52.1,126,52.1,129.8,52.1,133.6z"/>
	<path class="st1" d="M97.8,133.7c0,3.7,0,7.5,0,11.2c0,2.2-0.9,3.4-2.7,3.4c-1.7,0-2.7-1.1-2.7-3.4c0-7.6,0-15.2,0-22.8
		c0-2.1,1.1-3.4,2.8-3.3c1.6,0.1,2.6,1.3,2.6,3.3C97.8,126,97.8,129.8,97.8,133.7z"/>
	<path class="st1" d="M140.8,147c-3.4,2.7-4.4,3-5.7,1.7c-1.3-1.3-1-2.4,1.7-5.7c-1.2-1.7-4.1-3.2-1.6-5.6c2.4-2.4,3.9,0.5,5.3,1.5
		c1.5-0.8,2.9-1.7,4.3-2.3c0.4-0.2,1.2,0.4,1.7,0.8c1.3,1.3,1,2.3-1.7,5.6c2.7,3.3,3,4.4,1.6,5.8C145,150,143.9,149.6,140.8,147z"/>
	<path class="st1" d="M112.5,74.1c-0.4,0.3-0.9,1.4-1.8,1.7c-4.4,1.5-7.4,4.2-8.5,8.9c-0.3,1.6-1.7,2.2-3.2,1.7
		c-1.4-0.4-2.1-1.5-1.9-3c0.6-5.5,6.7-11.9,12.2-12.7C111.2,70.4,112.6,71.7,112.5,74.1z"/>
	<path class="st1" d="M28.1,86.5c1.9,0,3.3,0,4.6,0c2,0,3.2,1.1,3.2,2.7c0,1.6-1.2,2.7-3.2,2.7c-3.3,0-6.6,0.1-9.8-0.1
		c-1-0.1-2.4-0.7-2.8-1.5c-0.4-0.8,0-2.3,0.6-3.2c2.1-2.8,4.4-5.5,6.9-8.6c-1.8,0-3.2,0-4.6,0c-2-0.1-3.2-1.1-3.1-2.8
		c0-1.5,1.2-2.6,3.1-2.6c3.3,0,6.7-0.1,10,0.1c0.9,0.1,2.2,0.8,2.6,1.6c0.4,0.8,0.1,2.2-0.5,3C33,80.6,30.7,83.4,28.1,86.5z"/>
	<path class="st1" d="M35.9,61.7c-0.1,2.6-1.9,3.9-3.7,3.1c-6-2.9-11-6.8-13.7-13.2c-0.8-2-0.3-3.6,1.3-4.1c1.6-0.6,2.8,0.2,3.7,2.2
		c1.9,4.6,5.7,7.4,9.8,9.8C34.5,60.1,35.3,61.2,35.9,61.7z"/>
	<path class="st1" d="M65.7,70.4c1.6,0,3.3-0.2,4.9,0.1c1,0.2,2.3,0.8,2.6,1.6c0.3,0.9,0,2.4-0.6,3.2C69,79.6,62,79.6,58.5,75.2
		c-0.6-0.7-1-2.2-0.6-3c0.3-0.8,1.6-1.5,2.6-1.7C62.1,70.2,63.9,70.4,65.7,70.4z"/>
</g>
</svg>
