<?xml version="1.0" encoding="utf-8"?>
<!-- Generator: Adobe Illustrator 24.3.0, SVG Export Plug-In . SVG Version: 6.00 Build 0)  -->
<svg version="1.1" id="Layer_1" xmlns="http://www.w3.org/2000/svg" xmlns:xlink="http://www.w3.org/1999/xlink" x="0px" y="0px"
	 viewBox="0 0 150 150" style="enable-background:new 0 0 150 150;" xml:space="preserve">
<style type="text/css">
	.st0{fill:#5F6368;}
	.st1{fill:#005BAB;}
</style>
<path class="st0" d="M2053.7-657.2c-2.1,0-3.6,0-5.1,0C2049.8-661.3,2051.5-660.2,2053.7-657.2z"/>
<g>
	<path class="st1" d="M76.7,118.4c-3,2.7-5.9,5.4-9,8c-2.8,2.4-5.8,4.7-9.1,6.4c-4.4,2.2-8.8,2.2-13-0.3c-3.5-2.1-6.8-4.5-10-6.9
		c-2.8-2.1-5.4-4.3-8.2-6.6c0,0.3,0,0.7,0,1.1c0.2,8.3-0.6,16.4-3.5,24.2c-0.3,0.7-0.5,1.3-0.8,2c-0.4,0.9-1.3,1.3-2.1,0.9
		c-0.8-0.3-1.2-1.3-0.8-2.1c3.6-8.2,4.4-16.9,4-25.7c0-0.8-0.2-1.6-0.1-2.4c0.1-1.4-0.6-2.5-1.5-3.5c-3.4-4.1-6-8.7-8.1-13.6
		c-0.4-0.8-0.7-1.7-1.1-2.5c-0.1-0.2-0.4-0.5-0.6-0.5c-3-0.3-5.1-2-6.4-4.7c-1-2-1.7-4.2-2.3-6.4c-0.7-2.4-1.3-4.8-1.8-7.2
		c-0.6-3,1-5.9,3.8-7.1c0.6-0.3,0.7-0.6,0.5-1.1c-0.7-3.4-1.4-6.7-2-10.1C2.8,49.3,3.6,38.8,8.5,28.8c6.6-13.4,17.2-22,31.7-25.3
		c13.1-3,25.5-0.8,36.7,6.7c9.6,6.4,15.9,15.4,19.1,26.5c1.6,5.6,2,11.2,1.7,17c-0.2,5.6-0.4,11.3-0.6,16.9c0,0.1,0,0.2,0,0.4
		c1.8,0.4,3.1,1.4,4.2,2.9c1.1,1.5,1.3,3.2,0.8,5c13.3-3.4,25.1-0.8,35,8.7c6,5.7,9.4,12.9,10.3,21.2c1.9,16.7-8.5,32.5-24.5,37.5
		c-16.4,5.1-34.9-2.3-42.8-19.3c0.1,0.9,0.1,1.7,0.2,2.6c0.6,4.7,1.4,9.4,3.3,13.8c0.2,0.5,0.4,0.9,0.6,1.4c0.5,1,0.3,1.9-0.6,2.3
		c-0.9,0.4-1.8,0.1-2.2-1c-1-2.6-2-5.2-2.7-7.8c-1.1-3.9-1.5-7.9-1.8-11.9c-0.2-2.6-0.2-5.2-0.3-7.7
		C76.7,118.5,76.7,118.4,76.7,118.4z M12,93.5c0.1-0.1,0.2-0.1,0.2-0.2c0-0.2-0.1-0.4-0.1-0.7c-0.2-1.4-0.5-2.7-0.7-4.1
		c-0.4-3-0.7-6-1-8.9c-0.1-0.9,0.4-1.7,1.3-1.9c0.8-0.1,1.6,0.4,1.7,1.4c0.3,2.2,0.4,4.5,0.8,6.7c0.5,2.9,0.7,6,1.6,8.7
		c2.6,7.7,6.6,14.6,12.2,20.5c5.3,5.6,11.6,9.9,18,14.2c3.9,2.6,7.9,2.7,12,0.3c3.1-1.8,5.8-4,8.5-6.3c3.6-3,7-6.1,10-9.7
		c0.4-0.5,0.6-1,0.6-1.7c0-3.1,0.5-6.1,1.3-9c1.9-6.7,5.6-12.3,10.8-16.9c0.2-0.2,0.4-0.5,0.4-0.8c0.1-1.5,0.2-2.9,0.3-4.4
		c0.1-0.6,0.1-1.3,0.3-1.9c0.2-0.8,0.9-1.3,1.7-1.2c0.8,0.1,1.4,0.8,1.4,1.6c-0.1,1.2-0.2,2.5-0.4,3.8c1.3-0.7,2.4-1.5,3.7-2
		c1.5-0.5,2.1-1.5,2.3-3c0.3-1.7-0.3-3.1-1.8-3.9c-0.3-0.1-0.7-0.2-1-0.2c-1.5,0.2-2.4-0.6-2.3-2.1c0.1-2.2,0.2-4.4,0.3-6.7
		c0.1-1.4-0.2-2.5-0.8-3.8c-3.5-7.3-8.4-13.4-15.4-17.7c-3.5-2.2-6.1-5.2-8.1-8.7c-1.2-2-2.2-4-3.3-6.1c-2.2,2.7-5.1,4.7-8.1,6.5
		c-3.1,1.9-6.3,3.6-9.9,4.4c-3.4,0.8-6.7,1.6-10.1,2.6c-5.7,1.6-11.1,3.7-16.3,6.6c-5.9,3.4-10.4,8.1-12.9,14.6
		c-0.4,1.1-0.5,2.2-0.3,3.4c0.4,1.7,0.6,3.5,0.9,5.2c0.2,1.1-0.7,2-1.7,1.8c-0.8-0.2-1.3,0.1-1.8,0.6c-1.4,1.1-1.5,2.6-1.1,4.2
		c0.9,3.1,1.7,6.3,2.7,9.4c0.4,1.3,1.2,2.6,2,3.7C10.7,92.6,11.4,93,12,93.5z M112.5,80.5C94.2,80.5,80,95.6,80.4,113.3
		c0.4,17.3,14.6,31.7,32.6,31.4c17.8-0.3,31.9-15,31.6-32.7C144.3,94.7,129.7,80.3,112.5,80.5z M94.6,56.4
		C94.6,56.5,94.6,56.4,94.6,56.4c0.2-4.8,0.3-9.6-0.5-14.4C90.7,22.5,75.3,7.9,55.9,5.7c-9-1-17.5,0.5-25.5,4.7
		C20.2,15.8,13.2,24.1,9.4,34.9c-2.3,6.5-3,13.2-2.2,20.1c0.2,1.6,0.4,3.3,0.7,5.1c0.2-0.3,0.3-0.4,0.4-0.6c1.3-1.9,2.5-4,4-5.8
		c3.7-4.4,8.4-7.3,13.5-9.6c5.4-2.5,11.1-4.3,16.9-5.8c2.5-0.6,5.1-1.1,7.5-1.9c4.9-1.8,9.4-4.5,13.3-8.2c1.1-1.1,2-2.2,2.1-3.9
		c0-0.7,0.5-1.2,1.2-1.3c0.7-0.1,1.4,0.3,1.7,1c1,2.9,2.3,5.7,3.8,8.4c2,3.4,4.3,6.6,7.7,8.7c3.6,2.3,6.9,4.9,9.6,8.2
		C91.2,51.6,92.9,54,94.6,56.4z"/>
	<path class="st1" d="M71.4,66.9c2.1-0.1,4.1,0.5,6,1.3c1.9,0.9,3.7,1.8,5.6,2.7c1,0.5,1.3,1.4,0.8,2.3c-0.4,0.8-1.3,0.9-2.3,0.5
		c-2-1-4-1.9-6-2.9c-1.8-0.8-3.7-0.9-5.6-0.7c-2.6,0.2-5.2,0.9-7.7,1.7c-0.7,0.2-1.3,0.1-1.7-0.5c-0.4-0.5-0.5-1.2-0.1-1.7
		c0.2-0.3,0.5-0.6,0.9-0.7c2.6-0.8,5.3-1.6,8.1-1.7C70,67,70.7,67,71.4,66.9z"/>
	<path class="st1" d="M20.8,72.4c-0.1-0.6,0.3-1.1,0.9-1.4c2.8-1.4,5.5-3,8.5-3.8c2.6-0.6,5.3-0.3,7.9,0.2c1.7,0.3,3.5,0.8,5.2,1.3
		c1,0.3,1.5,1.2,1.2,2.1c-0.3,0.9-1.1,1.1-2.2,0.9c-2.6-0.6-5.1-1.2-7.7-1.6c-1.7-0.3-3.5-0.1-5.2,0.6c-2.2,1-4.3,2-6.5,3
		C21.8,74.2,20.8,73.7,20.8,72.4z"/>
	<path class="st1" d="M34.4,94.4c2.9,0,5.2,2.3,5.2,5.2c0,2.9-2.3,5.2-5.2,5.2c-2.9,0-5.3-2.3-5.3-5.2
		C29.1,96.7,31.4,94.4,34.4,94.4z M36.5,99.6c0-1.2-0.9-2.1-2.1-2.1c-1.2,0-2.2,0.9-2.2,2.1c0,1.2,1,2.1,2.2,2.1
		C35.6,101.7,36.5,100.9,36.5,99.6z"/>
	<path class="st1" d="M56.1,55.8c0,2.9-2.3,5.2-5.2,5.3c-2.9,0-5.3-2.3-5.3-5.2c0-3,2.3-5.3,5.2-5.3C53.8,50.6,56.1,52.9,56.1,55.8z
		 M50.9,53.7c-1.2,0-2.1,0.9-2.2,2c0,1.2,0.9,2.2,2.1,2.2c1.2,0,2.1-0.9,2.2-2.1C53,54.7,52.1,53.7,50.9,53.7z"/>
	<path class="st1" d="M68.4,92.1c3,0,5.3,2.3,5.2,5.3c0,2.9-2.4,5.2-5.3,5.2c-3,0-5.2-2.3-5.2-5.4C63.2,94.3,65.5,92.1,68.4,92.1z
		 M68.4,99.4c1.2,0,2.1-0.9,2.1-2.1c0-1.2-0.9-2.2-2.1-2.2c-1.2,0-2.1,0.9-2.1,2.2C66.3,98.5,67.2,99.4,68.4,99.4z"/>
	<path class="st1" d="M34.5,86.1c-2.7-0.1-5.7-1.2-8.4-2.9c-0.8-0.5-1.1-1.4-0.6-2.2c0.5-0.8,1.4-1,2.3-0.4c1.8,1.1,3.7,2,5.9,2.3
		c2.7,0.4,5.1-0.1,7.1-2c0.8-0.8,1.7-0.8,2.4-0.2c0.7,0.7,0.6,1.6-0.3,2.4C40.6,85.1,38,86.1,34.5,86.1z"/>
	<path class="st1" d="M69.3,86.1c-3.4,0-5.9-1-8-3c-0.8-0.8-0.9-1.7-0.2-2.4c0.6-0.6,1.5-0.6,2.3,0.2c2.5,2.4,5.5,2.7,8.7,1.7
		c1.5-0.5,2.8-1.2,4.2-1.9c0.9-0.5,1.9-0.4,2.4,0.3c0.5,0.8,0.3,1.8-0.7,2.4C75.2,84.9,72.2,86.1,69.3,86.1z"/>
	<path class="st1" d="M52.8,115.6c-2.9-0.1-5.5-0.7-8.1-1.5c-0.9-0.3-1.3-1.1-1.1-1.9c0.3-0.9,1.1-1.2,2.1-1c2,0.4,4,1,6.1,1.2
		c2.6,0.3,5.2-0.3,7.7-1.1c1.1-0.4,1.9-0.1,2.3,0.7c0.4,0.9-0.1,1.8-1.1,2.2C58,115.1,55.3,115.5,52.8,115.6z"/>
	<path class="st1" d="M52.4,103.7c-2.4-0.1-4.3-1.1-6-2.8c-0.7-0.7-0.6-1.6,0-2.2c0.6-0.6,1.6-0.6,2.2,0.1c1,1,2.1,1.7,3.5,1.8
		c1.6,0.1,2.9-0.7,4-1.7c0.3-0.2,0.6-0.5,0.9-0.6c0.7-0.2,1.3,0,1.7,0.6c0.4,0.6,0.4,1.3-0.1,1.9C57,102.6,55,103.7,52.4,103.7z"/>
	<path class="st1" d="M64,55.9c0,0.9-0.7,1.6-1.7,1.5c-1,0-1.6-0.7-1.6-1.6c0-0.9,0.7-1.5,1.6-1.5C63.3,54.3,64,55,64,55.9z"/>
	<path class="st1" d="M50.9,120.5c0.9,0,1.6,0.7,1.6,1.5c0,0.9-0.7,1.6-1.7,1.6c-1,0-1.6-0.7-1.6-1.6
		C49.2,121.1,49.9,120.4,50.9,120.5z"/>
	<path class="st1" d="M52.7,91.8c-1,0-1.6-0.6-1.6-1.6c0-0.9,0.7-1.5,1.6-1.5c1,0,1.7,0.6,1.7,1.5C54.3,91.1,53.6,91.8,52.7,91.8z"
		/>
	<path class="st1" d="M35.8,55.8c-0.9,0-1.6-0.7-1.6-1.6c0-0.9,0.7-1.6,1.7-1.5c1,0,1.6,0.7,1.6,1.6C37.5,55.2,36.9,55.8,35.8,55.8z
		"/>
	<path class="st1" d="M22,96.3c0.9,0,1.6,0.7,1.5,1.6c0,0.8-0.7,1.5-1.6,1.5c-0.9,0-1.6-0.7-1.5-1.6C20.5,96.9,21.2,96.2,22,96.3z"
		/>
	<path class="st1" d="M75.2,102.7c0-0.9,0.7-1.6,1.6-1.5c0.9,0,1.5,0.7,1.5,1.5c0,0.9-0.7,1.6-1.6,1.5
		C75.9,104.2,75.2,103.5,75.2,102.7z"/>
	<path class="st1" d="M118.3,112.5c0.4,6.8-5.3,14.1-13.7,14.5c-8.2,0.4-14.8-5.9-15.2-13.6c-0.5-8.5,6.1-15,13.8-15.3
		C112.2,97.7,118.7,105.3,118.3,112.5z M104,123.9c6.2,0,11.2-5.1,11.3-10.9c0.1-7.7-6-11.9-11.4-11.8c-6.3,0.1-11.4,5.1-11.3,11.5
		C92.6,118.9,97.7,123.9,104,123.9z"/>
	<path class="st1" d="M135.3,122.1c0,2.9-2.4,5.2-5.3,5.2c-2.9,0-5.3-2.4-5.2-5.3c0-2.9,2.4-5.2,5.3-5.2
		C133,116.8,135.3,119.2,135.3,122.1z M132.2,122.1c0-1.2-1-2.2-2.2-2.2c-1.1,0-2.1,1-2.1,2.1c0,1.1,1,2.2,2.1,2.2
		C131.2,124.2,132.1,123.3,132.2,122.1z"/>
	<path class="st1" d="M122.8,104c0-2.9,2.3-5.3,5.3-5.3c2.8,0,5.2,2.3,5.2,5.2c0,2.9-2.3,5.3-5.2,5.3
		C125.2,109.3,122.9,106.9,122.8,104z M125.9,104.1c0,1.2,0.9,2.1,2.1,2.1c1.2,0,2.2-1,2.2-2.2c0-1.1-1-2.1-2.2-2.1
		C126.9,101.9,125.9,102.8,125.9,104.1z"/>
	<path class="st1" d="M17.2,42.9c-1.3-0.2-2.1-1.4-1.5-2.4c0.8-1.3,1.7-2.6,2.7-3.7c3.4-3.5,7.6-6,12.1-8c5.7-2.7,11.8-4.1,18.1-4.5
		c2.5-0.2,5-0.7,7.4-1.8c0.8-0.4,1.6-0.9,2.3-1.4c0.4-0.4,0.7-0.9,1-1.4c0.4-0.8,1.2-1.3,2-1c0.8,0.3,1.2,1.1,1,2
		c-0.4,1.6-1.5,2.7-2.9,3.6c-2.5,1.6-5.3,2.4-8.1,2.8c-3.4,0.5-6.9,0.7-10.3,1.5c-7.2,1.6-13.8,4.7-19.4,9.6
		c-1.3,1.1-2.3,2.3-3.1,3.8C18.2,42.3,17.6,42.6,17.2,42.9z"/>
	<path class="st1" d="M103.9,120c-4.2,0-7.5-3.3-7.5-7.4c0-4.2,3.3-7.5,7.5-7.5c4.2,0,7.5,3.3,7.5,7.5
		C111.4,116.7,108.1,120,103.9,120z M103.9,116.9c2.4,0,4.4-2,4.4-4.4c0-2.5-1.9-4.4-4.4-4.4c-2.4,0-4.3,2-4.3,4.4
		C99.5,115,101.5,116.9,103.9,116.9z"/>
</g>
<g>
	<path class="st1" d="M-37.7-104.7c-0.7-0.2-1.2-0.3-1.8-0.5c-1.2-0.5-1.9-1.6-1.7-2.9c0.9-7.9,2.6-15.6,5.8-22.8
		c4.3-9.6,10.8-17.3,20.2-22.1c5.5-2.8,11.4-4.4,17.6-5c5.5-0.5,11-0.6,16.3,0.8c14.8,3.8,25.7,12.6,32.4,26.4
		c3.1,6.5,4.8,13.4,5.3,20.6c0.1,1.1,0.1,2.2,0.2,3.4c-0.9,0-1.8,0-2.7,0c0.2,0.6,0.3,1.1,0.4,1.7c0.9,3.6,1.7,7.2,2.6,10.7
		c0.4,1.6,1.2,3.1,1.3,4.7c0.7,7.3,1.9,14.6,1.1,21.9c-0.6,5.6-2,10.9-5.4,15.5c-3.7,5.1-8.9,8-14.8,9.6c-4.8,1.3-9.7,1.8-14.7,2
		c-0.5,0-1,0.1-1.4,0.4c-9.9,4.9-19.7,4.9-29.6,0c-0.5-0.2-1-0.4-1.5-0.4c-5.5-0.3-11-0.8-16.3-2.5c-10.3-3.3-16.1-10.5-18.1-21
		c-1.1-6.1-0.8-12.3-0.1-18.4c0.2-2.1,0.4-4.2,0.6-6.3c0.1-1.1,0.2-2.2,0.6-3.1c1.4-3.4,1.9-7,2.9-10.5
		C-38-103.2-37.9-103.9-37.7-104.7z M39-81c0.4-1.2,0.8-2.3,1.2-3.6c1.6,0.6,3.1,1.1,4.6,1.7c0.1-0.7,0.1-1.3,0.2-2
		c0.1-0.6,0.1-1.3,0.1-1.9c0.3-6.8-0.3-13.5-2.2-20.1c-0.1-0.5-0.3-0.7-0.8-0.7c-4.2-0.5-8.4-1-12.5-1.7c-7.6-1.2-15-2.9-22.3-5.5
		c-6.1-2.2-11.8-5-16.6-9.5c0,0-0.1,0-0.2,0c0,0-0.1,0.1-0.1,0.1c-3.6,6.8-9,11.7-15.5,15.5c-0.3,0.2-0.6,0.6-0.7,1
		c-2.1,6.7-2.7,13.6-2.5,20.6c0,1.4,0.2,2.8,0.3,4.2c1.5-0.6,3-1.1,4.5-1.6c0.4,1.3,0.8,2.4,1.2,3.7c-0.4,0.1-0.8,0.2-1.1,0.4
		c-1.1,0.5-2.3,1-3.4,1.5c-0.5,0.2-0.6,0.5-0.5,1c0.9,4.7,2.2,9.3,4.2,13.6c3.3,7.2,7.8,13.6,14.3,18.2c7.3,5.2,15.3,7.1,24.1,4.9
		c6.2-1.5,11.3-5,15.6-9.7c7-7.5,10.9-16.4,12.9-26.3c0.3-1.6,0.3-1.6-1.2-2.3C41.4-80.1,40.2-80.5,39-81z M52.5-110.6
		c0-0.4,0-0.6,0-0.8c-0.7-3.5-1.1-7.1-2-10.5c-3.3-11.7-10-20.9-20.7-26.9c-9-5.1-18.7-6.6-28.9-5.2c-13.8,1.9-24.1,8.9-30.8,21.1
		c-3.4,6.1-5.4,12.6-6.6,19.5c-0.3,1.6-0.5,3.2-0.8,5c6.5-0.9,11.8-4,16.6-8c4.9-4.1,8.1-9.2,10-15.3c0.2,0.1,0.2,0.1,0.3,0.2
		c0.2,0.3,0.5,0.6,0.7,0.9c2.7,3.8,6.2,6.6,10.3,8.8c6,3.2,12.4,5.1,18.9,6.7c7.4,1.8,14.9,2.9,22.5,3.7
		C45.5-111.2,48.9-110.9,52.5-110.6z M-39-77.2c-0.3,4.6-0.2,9,0.7,13.3c1.2,5.7,3.8,10.6,8.8,14c2.8,1.9,6,3.1,9.3,3.9
		c1.1,0.3,2.2,0.5,3.3,0.7c1.1,0.2,2.2,0.3,3.6,0.5c-0.3-0.3-0.4-0.4-0.5-0.5c-4.4-3.9-7.9-8.5-10.7-13.6c-2.1-3.8-3.7-7.9-4.9-12.1
		c-0.1-0.4-0.1-0.7-0.7-0.8c-3.3-0.2-5.8-1.8-7.8-4.3C-38.4-76.5-38.7-76.8-39-77.2z M30.5-44.9c2.9-0.3,6-0.9,9-1.8
		c7.4-2.4,12.5-7.1,14.8-14.6c1.1-3.5,1.5-7.1,1.6-10.8c0-1.6,0-3.3,0-4.9c-0.1,0-0.2,0-0.3,0c-0.3,0.3-0.5,0.7-0.8,1
		c-2,2.3-4.4,3.9-7.5,4.2c-0.6,0.1-0.8,0.3-1,0.8c-2,6.8-4.9,13.2-9.3,18.8C34.9-49.7,32.6-47.3,30.5-44.9z M-32-96.4
		c-1.9,0.3-3.6,1.5-4.7,3.5c-2.6,4.7-1.5,11.8,2.4,15.4c1,0.9,2,1.5,3.5,1.8C-32.2-82.6-32.6-89.5-32-96.4z M47.5-75.7
		c1.5-0.3,2.7-1,3.6-2c3-3.1,4-6.9,3.5-11.2c-0.3-2.5-1.2-4.7-3.2-6.3c-0.8-0.7-1.7-1.1-2.8-1.2C49.2-89.5,48.9-82.6,47.5-75.7z
		 M51.8-99.6c-0.6-2.3-1.2-4.7-1.8-7c0-0.2-0.3-0.3-0.5-0.4c-0.9-0.1-1.8-0.1-2.7-0.2c0.5,2.3,1,4.6,1.4,6.7
		C49.4-100.2,50.5-99.9,51.8-99.6z M-30.3-106.2c-1,0.3-2,0.6-2.9,0.9c-0.2,0.1-0.3,0.2-0.4,0.4c-0.5,1.7-0.9,3.5-1.4,5.3
		c1.2-0.3,2.4-0.5,3.5-0.8C-31.1-102.4-30.7-104.3-30.3-106.2z"/>
	<path class="st1" d="M13.1-72.8c0,1.3,0,2.5,0,3.8c-1.9-0.1-3.8,0.3-5.6-0.4c-2.6-1-4.4-4.3-3.9-7.2c0.7-3.8,1.4-7.6,2.2-11.3
		c0-0.1,0.1-0.2,0.1-0.4c1.2,0.2,2.4,0.5,3.7,0.7c-0.3,1.8-0.6,3.5-1,5.2c-0.4,2-0.9,4.1-1.1,6.1c-0.1,0.8,0.1,1.7,0.4,2.4
		c0.3,0.8,0.9,1.1,1.8,1.1C10.8-72.8,11.9-72.8,13.1-72.8z"/>
	<path class="st1" d="M-19.8-95.9c-0.5-1.3-1-2.4-1.4-3.6c7.5-3.4,14.9-4,22.4,0.2c-0.2,0.5-0.5,1.1-0.8,1.6
		c-0.3,0.6-0.5,1.1-0.9,1.8C-6.8-99.5-13.3-98.9-19.8-95.9z"/>
	<path class="st1" d="M36.4-95.9c-6.5-3-12.9-3.6-19.3,0.1c-0.6-1.2-1.1-2.3-1.6-3.4c4.4-3.8,15.5-3.9,22.3-0.2
		C37.4-98.3,37-97.2,36.4-95.9z"/>
	<path class="st1" d="M-18.9-88.4c0.6-1.1,1.1-2.2,1.8-3.3c2.3,1.2,4.7,2.4,7.4,2.5c2.7,0.1,5.1-1.1,7.4-2.6c0.7,1.1,1.3,2.1,2,3.2
		C-6.4-84.3-12-84.3-18.9-88.4z"/>
	<path class="st1" d="M33.8-91.7c0.6,1.2,1.2,2.3,1.8,3.4c-6.7,4.1-12.6,4.1-18.4-0.2c0.6-1,1.3-2.1,2-3.2
		C24-88,28.9-88.7,33.8-91.7z"/>
	<path class="st1" d="M16.4-58.3c-0.3,1.3-0.5,2.4-0.8,3.7c-4.8-1.3-9.6-1.4-14.5,0c-0.3-1.3-0.5-2.5-0.8-3.7
		C5.7-59.8,11-59.8,16.4-58.3z"/>
	<path class="st1" d="M-2.1-82.7c0.9,1,1.7,1.8,2.6,2.7c-2.3,3-5.3,3.7-8.1,1.9c-1-0.7-2.2-0.8-3.4-0.5c-0.6,0.1-1.1,0.3-1.8,0.4
		c-0.3-1.2-0.6-2.4-0.8-3.7c2.9-1,5.6-1,8.2,0.6c0.9,0.6,1.4,0.5,2.2-0.2C-2.9-81.9-2.5-82.3-2.1-82.7z"/>
	<path class="st1" d="M29.9-81.9c-0.3,1.2-0.6,2.4-0.9,3.6c-0.7-0.2-1.2-0.3-1.8-0.4c-1.1-0.3-2.2-0.2-3.3,0.4
		c-2.7,1.5-4.7,1.2-6.9-0.9c-0.3-0.3-0.6-0.5-0.9-0.9c0.9-0.9,1.7-1.8,2.6-2.8c0.5,0.4,0.9,0.8,1.4,1.3c0.5,0.4,1,0.6,1.6,0.2
		C24.2-83,27-82.9,29.9-81.9z"/>
	<path class="st1" d="M-8.3-71.1c-1.3,0-2.5,0-3.7,0c0-1.3,0-2.5,0-3.7c1.2,0,2.4,0,3.7,0C-8.3-73.6-8.3-72.4-8.3-71.1z"/>
	<path class="st1" d="M25.6-74.9c1.3,0,2.5,0,3.7,0c0,1.3,0,2.5,0,3.8c-1.2,0-2.5,0-3.7,0C25.6-72.3,25.6-73.6,25.6-74.9z"/>
	<path class="st1" d="M-19.6-69.1c1.3,0,2.5,0,3.7,0c0,1.2,0,2.4,0,3.7c-1.2,0-2.5,0-3.7,0C-19.6-66.7-19.6-67.9-19.6-69.1z"/>
	<path class="st1" d="M-4.4-69.1c1.3,0,2.5,0,3.7,0c0,1.2,0,2.4,0,3.7c-1.2,0-2.5,0-3.7,0C-4.4-66.7-4.4-67.9-4.4-69.1z"/>
	<path class="st1" d="M18-65.4c0-1.3,0-2.5,0-3.7c1.3,0,2.5,0,3.7,0c0,1.2,0,2.5,0,3.7C20.5-65.4,19.3-65.4,18-65.4z"/>
	<path class="st1" d="M-10.2-57.8c-1.3,0-2.5,0-3.7,0c0-1.2,0-2.5,0-3.7c1.2,0,2.4,0,3.7,0C-10.2-60.3-10.2-59-10.2-57.8z"/>
	<path class="st1" d="M33.2-65.4c0-1.2,0-2.4,0-3.7c1.3,0,2.5,0,3.7,0c0,1.2,0,2.4,0,3.7C35.8-65.4,34.5-65.4,33.2-65.4z"/>
	<path class="st1" d="M31.2-57.8c-1.3,0-2.4,0-3.7,0c0-1.2,0-2.5,0-3.7c1.2,0,2.4,0,3.7,0C31.2-60.3,31.2-59.1,31.2-57.8z"/>
	<path class="st1" d="M-17.8-76.7c0,1.2,0,2.4,0,3.7c-1.2,0-2.4,0-3.7,0c0-1.2,0-2.4,0-3.7C-20.3-76.7-19.1-76.7-17.8-76.7z"/>
	<path class="st1" d="M38.8-73c-1.2,0-2.4,0-3.7,0c0-1.2,0-2.5,0-3.7c1.2,0,2.4,0,3.7,0C38.8-75.5,38.8-74.3,38.8-73z"/>
</g>
<g>
	<path class="st1" d="M-101.2,168.7c-3.1,1.5-6.2,2.6-9.5,2.6c-3.3,0-6.4-1-9.5-2.4c0,1.2,0,2.2,0,3.2c-0.1,5.3-2.5,9.2-7.2,11.7
		c-1.7,0.9-3.6,1.1-5.5,1.5c-5.9,1.2-11.8,2.3-17.7,3.5c-0.5,0.1-0.9,0.2-1.4,0.4c-0.5,0.2-0.9,0.1-1.1-0.4c-0.2-0.5,0.1-0.9,0.6-1
		c1.3-0.3,2.5-0.7,3.8-1c5.9-1.2,11.8-2.3,17.6-3.4c4.7-0.9,8.6-4.9,9.2-9.7c0.2-1.8,0.1-3.5,0.1-5.3c0-0.2-0.2-0.5-0.4-0.6
		c-3.3-2-6.1-4.4-8.5-7.5c-2.8-3.6-4.6-7.6-5.2-12.1c-0.1-0.7-0.1-1.5-0.1-2.2c0-0.8,0-1.5,0-2.3c-0.5-0.1-0.9-0.1-1.4-0.2
		c-1.6-0.3-2.8-1.8-2.8-3.5c0-1.5,0.1-3,0-4.4c-0.1-2.1,1.6-4,3.8-3.9c0.1,0,0.2,0,0.5,0c-0.1-1.6-0.1-3.2-0.3-4.8
		c-0.7-5.6,0.1-10.8,2.9-15.7c0.8-1.3,1.8-2.5,2.7-3.8c0.1-0.2,0.2-0.3,0.3-0.5c1.1-5.2,4-9.3,8.2-12.5c3.6-2.8,7.6-4.5,12.1-5.1
		c6.2-0.8,11.7,0.9,16.1,5.4c0.2,0.2,0.5,0.4,0.8,0.5c1.5,0.6,3,1.4,4.2,2.6c1.2,1.2,1.4,2,0.7,3.6c-0.2,0.5-0.5,1-0.8,1.5
		c-0.3,0.5-0.6,0.9-0.9,1.4c1.3,1.4,2.2,3,2.9,4.7c1.1,2.7,1.6,5.6,1.9,8.6c0.3,3.4,0.1,6.8-0.2,10.2c-0.1,1.3,0,2.6,0,3.9
		c0.2,0,0.4,0,0.5,0c1.8-0.1,3.7,1.7,3.6,3.6c-0.1,1.6,0,3.1,0,4.7c0,1.9-1.5,3.5-3.5,3.6c-0.2,0-0.4,0-0.7,0c0,0.7,0,1.4,0,2.1
		c0,3.9-1,7.5-2.9,10.9c-2.5,4.5-6.1,8-10.4,10.6c-0.7,0.4-1,0.8-0.9,1.6c0.1,1.8,0,3.7,0.3,5.5c0.9,4.7,4.8,8.3,9.6,9.1
		c5.2,0.9,10.3,1.9,15.4,2.9c1.6,0.3,3.1,0.7,4.7,1.1c0.2,0,0.3,0.1,0.5,0.1c0.7,0.2,1.1,0.6,0.9,1.1c-0.2,0.5-0.6,0.5-1.4,0.4
		c-2.5-0.6-5-1.2-7.5-1.7c-4.5-0.9-9-1.7-13.4-2.5c-6.1-1.2-10.5-6.5-10.5-12.7C-101.2,171-101.2,169.9-101.2,168.7z M-86.9,130.4
		C-86.9,130.4-87,130.4-86.9,130.4c0-0.8,0-1.5,0-2.3c0-0.3-0.1-0.6-0.3-0.9c-2.7-6.9-7.6-11.2-15-12.3c-0.3,0-0.6-0.1-0.8,0
		c-3.1,1.4-6.4,2.1-9.8,2.4c-4.3,0.4-8.4,1.4-12.3,3.3c-3.5,1.7-6.6,3.9-8.9,7.2c-0.2,0.3-0.3,0.7-0.3,1c0,1.2,0,2.3,0,3.5
		c0,0.8-0.2,1-1,1c-0.4,0-0.8,0-1.1,0c-1.2,0.1-2,0.8-2.1,2c-0.1,1.6-0.1,3.3,0,4.9c0,1.2,1,2,2.2,2c0.4,0,0.8,0,1.1,0
		c0.7,0,0.9,0.2,0.9,0.9c0,0.7,0,1.3,0,2c-0.1,2.4,0.2,4.8,1,7.1c2.8,7.6,8.1,12.8,15.5,16c3.4,1.4,6.8,1.9,10.4,1.2
		c4.4-1,8.3-3.1,11.7-6c3.2-2.8,5.8-6,7.4-10c1.2-3,1.6-6.2,1.5-9.4c0-1.8-0.1-1.8,1.8-1.8c1.5,0,2.4-0.8,2.4-2.3c0-1.5,0-3,0-4.5
		c0-1.3-0.8-2.1-2.2-2.1c-0.4,0-0.8,0-1.2,0c-0.5,0-0.8-0.3-0.8-0.9C-86.9,131.7-86.9,131.1-86.9,130.4z M-134.8,125.8
		c1.4-1.2,2.6-2.5,4-3.6c5.2-4,11.2-5.7,17.6-6.4c2.3-0.3,4.6-0.5,6.9-1.2c5.5-1.9,10.1-5.1,13.9-9.6c1-1.2,1.9-2.6,2.7-4
		c0.6-1,0.5-1.4-0.4-2.2c-0.6-0.5-1.2-0.9-1.8-1.3c-2.7-1.5-5.7-2.2-8.8-2.3c-6.2-0.3-11.9,1.5-17.3,4.5c-2.5,1.4-4.9,3.2-7.2,4.9
		c-5.5,4-8.8,9.3-9.5,16.2C-134.9,122.5-134.8,124.2-134.8,125.8z M-97.1,94C-97.1,93.9-97.1,93.9-97.1,94c-1-0.7-2-1.3-3-1.8
		c-3.7-1.7-7.6-1.9-11.5-1c-6.4,1.5-11.4,4.9-14.9,10.5c-0.7,1-1.1,2.2-1.7,3.3c0.1,0,0.1,0.1,0.2,0.1c0.1-0.1,0.1-0.1,0.2-0.2
		c2.6-2.2,5.4-4.3,8.4-5.9c2-1.1,4.1-2.1,6.2-3c3.7-1.5,7.5-2.3,11.5-2.3C-100.3,93.7-98.7,93.9-97.1,94z M-86.7,124.7
		c0.5-3.3-0.1-9.8-1.1-13.1c-0.7-2.2-1.6-4.3-3.2-6.1c-2.7,3.3-5.9,6-9.7,8.1C-94.1,115.2-89.7,118.9-86.7,124.7z"/>
	<path class="st1" d="M-105.8,158.4c0.3,0.1,0.6,0.1,0.8,0.2c-0.2,0.3-0.4,0.6-0.5,0.9c-0.5,1.3-1.4,2.2-2.7,2.7
		c-2.1,0.7-4.2,0.7-6.1-0.7c-0.8-0.5-1.2-1.3-1.6-2.1c-0.1-0.3-0.3-0.5-0.4-0.8c0.2,0,0.5-0.1,0.8-0.2c0,0,0,0,0,0
		c0.2,0.1,0.3,0.2,0.5,0.2c3,0,5.9,0,8.9,0C-106.1,158.6-106,158.4-105.8,158.4L-105.8,158.4z M-106.3,159.3c-3,1.1-5.9,1.1-8.8,0
		C-113.4,161.4-107.9,161.4-106.3,159.3z"/>
	<path class="st1" d="M-90.7,130.1c-1.5-0.1-3.2-0.3-4.9-0.2c-3.4,0.1-6.5,1.1-9.1,3.4c-0.6,0.5-1.1,0.5-1.5,0
		c-0.4-0.5-0.3-1.1,0.3-1.5c1.9-1.4,4.1-2.1,6.4-2.5C-96.5,128.8-93.6,129.1-90.7,130.1C-90.7,130.1-90.6,130.1-90.7,130.1z"/>
	<path class="st1" d="M-130.9,130c1.7-0.3,3.4-0.7,5.1-0.9c3.4-0.3,6.7,0.4,9.7,2.2c0.2,0.1,0.4,0.3,0.6,0.4c0.5,0.4,0.6,1,0.2,1.5
		c-0.3,0.4-1,0.5-1.4,0.1c-1.2-1.1-2.6-1.9-4.1-2.4c-2.8-1.1-5.8-1.2-8.7-0.8c-0.4,0.1-0.8,0.1-1.2,0.2c0,0,0,0-0.1,0
		C-130.8,130.1-130.9,130-130.9,130z"/>
	<path class="st1" d="M-108.4,149.1c0.2,0.6,0.4,1.2,0.5,1.8c0.1,0.7-0.4,1.2-1.1,1.3c-1,0.1-1.9,0.2-2.9,0.2
		c-1.2,0-2.1-1.1-1.9-2.3c0.5-3,1.3-6,2.6-8.8c0,0.5-0.1,0.9-0.1,1.4c0,0.5,0,1-0.1,1.5c-0.3,1.9-0.6,3.8-1,5.7
		c-0.2,0.9,0.1,1.2,1,1.3c0.7,0,1.4,0.1,2.1,0.1c0.7,0,1.1-0.3,1-1c0-0.4-0.1-0.8-0.2-1.2C-108.6,149.2-108.5,149.2-108.4,149.1z"/>
	<path class="st1" d="M-91.4,137.2c-3.5,4.8-10,3.4-12.5,0C-99.7,139.2-95.5,139.5-91.4,137.2z"/>
	<path class="st1" d="M-130,137.2c4.1,2.3,8.2,2,12.4,0C-119.9,140.6-126.6,142-130,137.2z"/>
	<path class="st1" d="M-115.6,158.4c1.1-0.7,2.1-1.5,3.2-2.2c0.2-0.1,0.7,0.1,0.9,0.3c0.5,0.4,1,0.4,1.4,0c0.5-0.4,1-0.3,1.5,0.1
		c0.8,0.6,1.7,1.2,2.6,1.8c0,0,0,0,0,0c-0.9-0.3-1.9-0.6-2.8-0.9c-0.3-0.1-0.6-0.1-0.8,0.1c-1.2,1.2-1.2,1.3-2.5,0
		c-0.2-0.2-0.4-0.3-0.8-0.2C-113.7,157.7-114.6,158-115.6,158.4C-115.6,158.4-115.6,158.4-115.6,158.4z"/>
	<path class="st1" d="M-99.1,157.5c0,0.5,0,1,0,1.5c0,0.2-0.2,0.3-0.4,0.5c-0.1-0.2-0.3-0.4-0.3-0.6c0.1-0.5,0.3-1,0.5-1.5
		C-99.2,157.4-99.1,157.4-99.1,157.5z"/>
	<path class="st1" d="M-122.2,157.4c0.2,0.5,0.4,1,0.5,1.5c0,0.1-0.2,0.4-0.2,0.5c-0.1-0.2-0.4-0.3-0.4-0.5c-0.1-0.5,0-1,0-1.5
		C-122.3,157.4-122.2,157.4-122.2,157.4z"/>
	<path class="st1" d="M-126.5,150.1c0.4,0.3,0.9,0.6,1.3,0.9c0.1,0.1,0.1,0.4,0.1,0.6c-0.2,0-0.5,0-0.6-0.1
		C-126,151.1-126.3,150.6-126.5,150.1C-126.5,150.2-126.5,150.1-126.5,150.1z"/>
	<path class="st1" d="M-129.8,150.7c0.4,0.3,0.9,0.6,1.3,0.9c0.1,0.1,0.1,0.4,0.1,0.6c-0.2,0-0.5,0-0.6-0.1
		C-129.3,151.7-129.6,151.2-129.8,150.7C-129.9,150.8-129.9,150.7-129.8,150.7z"/>
	<path class="st1" d="M-119,158.2c0.1,0.5,0.3,0.9,0.4,1.4c0,0.2,0,0.4-0.1,0.5c0,0.1-0.3,0.1-0.3,0c-0.1-0.1-0.2-0.3-0.2-0.5
		c0-0.5,0.1-1,0.2-1.5C-119.1,158.2-119.1,158.2-119,158.2z"/>
	<path class="st1" d="M-97.6,157.4c0.2,0.5,0.5,1,0.6,1.5c0,0.1-0.1,0.4-0.2,0.5c-0.1-0.1-0.4-0.3-0.4-0.4c-0.1-0.5-0.1-1-0.1-1.6
		C-97.6,157.4-97.6,157.4-97.6,157.4z"/>
	<path class="st1" d="M-102.3,158.2c0.1,0.5,0.1,1,0.2,1.6c0,0.1-0.2,0.3-0.4,0.4c-0.1-0.2-0.3-0.4-0.3-0.5c0.1-0.5,0.3-1,0.4-1.5
		C-102.3,158.2-102.3,158.2-102.3,158.2z"/>
	<path class="st1" d="M-123.7,157.4c0,0.5,0,1.1-0.1,1.6c0,0.1-0.3,0.3-0.4,0.4c-0.1-0.2-0.3-0.4-0.2-0.5c0.2-0.5,0.4-1,0.6-1.5
		C-123.8,157.4-123.8,157.4-123.7,157.4z"/>
	<path class="st1" d="M-118.6,160.7c0,0.7,0,1.2,0,1.6c0,0.2-0.3,0.3-0.4,0.5c-0.1-0.2-0.2-0.4-0.2-0.6
		C-119.1,161.8-118.9,161.3-118.6,160.7z"/>
	<path class="st1" d="M-100.8,155.5c0.1,0.5,0.3,1,0.4,1.5c0,0.2-0.2,0.4-0.3,0.5c-0.1-0.2-0.4-0.3-0.4-0.5c0-0.5,0.1-1,0.2-1.5
		C-100.9,155.5-100.8,155.5-100.8,155.5z"/>
	<path class="st1" d="M-120.5,155.5c0.1,0.5,0.2,1,0.2,1.5c0,0.2-0.2,0.4-0.3,0.5c-0.1-0.2-0.3-0.4-0.3-0.5
		C-120.9,156.5-120.7,156-120.5,155.5C-120.5,155.5-120.5,155.5-120.5,155.5z"/>
	<path class="st1" d="M-98.6,153.9c-0.4,0.3-0.8,0.7-1.2,1c-0.1,0.1-0.4,0-0.6,0c0.1-0.2,0.1-0.5,0.2-0.5
		C-99.7,154.2-99.2,154-98.6,153.9C-98.7,153.9-98.7,153.9-98.6,153.9z"/>
	<path class="st1" d="M-122.7,153.8c0.5,0.2,1,0.3,1.5,0.5c0.1,0.1,0.2,0.3,0.3,0.5c-0.2,0-0.5,0.1-0.6,0.1c-0.4-0.3-0.8-0.6-1.2-1
		C-122.7,153.9-122.7,153.9-122.7,153.8z"/>
	<path class="st1" d="M-102.4,152.7c0.1,0.5,0.3,1,0.3,1.6c0,0.1-0.2,0.3-0.3,0.5c-0.1-0.2-0.3-0.3-0.3-0.5c0-0.5,0.1-1,0.2-1.5
		C-102.5,152.8-102.4,152.7-102.4,152.7z"/>
	<path class="st1" d="M-118.9,152.8c0.1,0.5,0.1,1,0.2,1.5c0,0.2-0.2,0.3-0.3,0.5c-0.1-0.2-0.3-0.3-0.3-0.5c0.1-0.5,0.2-1,0.3-1.5
		C-119,152.8-118.9,152.8-118.9,152.8z"/>
	<path class="st1" d="M-127.6,147.5c-0.1,0.5-0.2,0.9-0.4,1.4c-0.1,0.2-0.2,0.3-0.4,0.5c0,0-0.3-0.1-0.3-0.2c0-0.2,0-0.4,0.1-0.6
		C-128.3,148.2-128,147.8-127.6,147.5C-127.6,147.4-127.6,147.5-127.6,147.5z"/>
	<path class="st1" d="M-102.8,160.7c0.3,0.6,0.5,1,0.6,1.5c0.1,0.2-0.1,0.4-0.2,0.6c-0.2-0.1-0.4-0.3-0.5-0.4
		C-102.8,161.9-102.8,161.4-102.8,160.7z"/>
	<path class="st1" d="M-94.4,146.1c-0.3,0.4-0.7,0.8-1,1.2c-0.1,0.1-0.4,0-0.6,0.1c0-0.2,0-0.5,0.1-0.6
		C-95.4,146.5-94.9,146.3-94.4,146.1C-94.4,146.1-94.4,146.1-94.4,146.1z"/>
	<path class="st1" d="M-127,146c0.5,0.2,0.9,0.5,1.3,0.7c0.1,0.1,0.2,0.2,0.3,0.4c0,0.1-0.1,0.3-0.2,0.3c-0.2,0-0.4-0.1-0.5-0.2
		C-126.4,146.9-126.7,146.5-127,146C-127,146.1-127,146.1-127,146z"/>
	<path class="st1" d="M-97.7,152.9c0.3,0.4,0.7,0.7,1,1.1c0.1,0.1,0,0.4,0,0.6c-0.2-0.1-0.5-0.1-0.5-0.2
		C-97.5,153.9-97.6,153.4-97.7,152.9C-97.8,152.9-97.8,152.9-97.7,152.9z"/>
	<path class="st1" d="M-123.6,152.9c-0.2,0.5-0.3,0.9-0.5,1.4c-0.1,0.2-0.4,0.2-0.6,0.3c0-0.2-0.1-0.5,0-0.6c0.3-0.4,0.6-0.7,1-1.1
		C-123.6,152.9-123.6,152.9-123.6,152.9z"/>
	<path class="st1" d="M-125.2,155.4c0,0.6,0,1.1,0,1.6c0,0.2-0.1,0.3-0.3,0.4c-0.1,0-0.3,0-0.3-0.1c-0.1-0.2-0.1-0.4,0-0.5
		C-125.7,156.5-125.5,156-125.2,155.4z"/>
	<path class="st1" d="M-120.7,160.2c-0.2,0.5-0.3,1-0.6,1.5c-0.1,0.1-0.3,0.2-0.5,0.2c0-0.2-0.1-0.5,0-0.6
		C-121.5,160.9-121.1,160.5-120.7,160.2C-120.8,160.1-120.7,160.2-120.7,160.2z"/>
	<path class="st1" d="M-100.6,160.1c0.3,0.4,0.7,0.7,1,1.2c0.1,0.1,0,0.4,0,0.6c-0.2-0.1-0.5-0.1-0.5-0.2c-0.2-0.5-0.4-1-0.6-1.5
		C-100.7,160.2-100.6,160.2-100.6,160.1z"/>
	<path class="st1" d="M-101.1,151.4c0.4,0.4,0.7,0.8,1.1,1.2c0.1,0.1,0,0.4,0,0.6c-0.2-0.1-0.5-0.1-0.6-0.3
		C-100.9,152.4-101,151.9-101.1,151.4C-101.2,151.4-101.1,151.4-101.1,151.4z"/>
	<path class="st1" d="M-97.9,149.9c-0.4,0.3-0.8,0.7-1.2,1c-0.1,0.1-0.4,0-0.5-0.1c0.1-0.2,0.1-0.5,0.2-0.5c0.5-0.2,1-0.4,1.5-0.5
		C-97.9,149.9-97.9,149.9-97.9,149.9z"/>
	<path class="st1" d="M-123.5,149.8c0.5,0.2,1.1,0.3,1.6,0.5c0.1,0,0.1,0.3,0.1,0.5c-0.2,0-0.4,0.1-0.5,0c-0.4-0.3-0.8-0.6-1.2-1
		C-123.5,149.9-123.5,149.9-123.5,149.8z"/>
	<path class="st1" d="M-124.1,147.3c0.1,0.5,0.1,1,0.2,1.5c0,0.2-0.1,0.4-0.2,0.5c0,0.1-0.3,0-0.4,0c-0.1-0.1-0.1-0.4-0.1-0.5
		c0.1-0.5,0.2-0.9,0.3-1.4C-124.2,147.3-124.2,147.3-124.1,147.3z"/>
	<path class="st1" d="M-120.2,151.5c-0.2,0.5-0.3,1-0.5,1.4c-0.1,0.1-0.2,0.3-0.4,0.3c-0.1,0-0.3-0.1-0.3-0.2c0-0.2,0-0.4,0.1-0.6
		C-121,152.1-120.6,151.8-120.2,151.5C-120.3,151.4-120.2,151.4-120.2,151.5z"/>
	<path class="st1" d="M-128.7,144.9c0,0.6,0,1.1,0,1.6c0,0.2-0.1,0.3-0.3,0.4c0,0-0.3,0-0.3-0.1c-0.1-0.2-0.1-0.4,0-0.5
		C-129.2,145.9-129,145.4-128.7,144.9z"/>
	<path class="st1" d="M-92.7,144.9c0.3,0.5,0.5,1,0.7,1.5c0,0.1-0.2,0.3-0.3,0.5c-0.1-0.1-0.4-0.3-0.4-0.4
		C-92.7,146-92.7,145.5-92.7,144.9z"/>
	<path class="st1" d="M-127.2,152.8c0,0.5,0,1,0,1.6c0,0.2-0.3,0.3-0.4,0.4c-0.1-0.2-0.3-0.4-0.2-0.5c0.1-0.5,0.3-1,0.5-1.4
		C-127.3,152.8-127.3,152.8-127.2,152.8z"/>
	<path class="st1" d="M-97.2,147.3c0.1,0.5,0.3,1,0.3,1.5c0,0.2-0.2,0.3-0.3,0.5c-0.1-0.1-0.3-0.3-0.3-0.4c0-0.5,0.1-1,0.2-1.5
		C-97.2,147.3-97.2,147.3-97.2,147.3z"/>
	<path class="st1" d="M-133.1,123.1c0.4-0.8,0.7-1.6,1.1-2.3c1.4-2.8,3.1-5.5,5.7-7.4c1.6-1.2,3.3-2,5.2-2.4
		c0.7-0.1,1.1,0.2,1.2,0.8c0.1,0.6-0.2,1.1-0.9,1.1c-3.5,0.4-6.2,2.1-8.3,4.7c-1.3,1.5-2.3,3.3-3.4,4.9c-0.1,0.2-0.3,0.5-0.4,0.7
		C-133.1,123.2-133.1,123.2-133.1,123.1z"/>
	<path class="st1" d="M-88,118.4c-0.5-1.3-1.1-2.5-2.2-3.3c-0.9-0.7-2-1.3-3-1.9c-0.4-0.2-0.8-0.5-0.8-1c0-0.3,0.2-0.7,0.4-0.9
		c0.4-0.3,0.9-0.2,1.3,0.1C-90,113.1-88.3,115.3-88,118.4z"/>
</g>
<g>
	<path class="st1" d="M237.3-106.8c-1.5,1.2-2.7,2.4-4.1,3.3c-2.1,1.4-4.4,2.6-7,2.3c-1.6-0.2-3.1-0.5-4.5-1.4
		c-1.1-0.8-2.4-1.4-3.5-2.2c-0.9-0.6-1.6-1.3-2.5-2.1c0,0.3,0,0.5,0,0.7c0,1.4,0.1,2.8,0,4.2c0,1.2-0.6,2.3-1.1,3.4
		c-0.4,1-1.1,1.7-1.9,2.3c-1.4,1.1-2.9,1.9-4.8,2c-4.7,0.1-9.4,0.2-14.1,0.4c-1.5,0.1-2.9,0.5-4.4,0.8c-1.5,0.3-2.8,0.9-4.1,1.5
		c-2,0.9-3.8,2.2-5.3,3.7c-1.2,1.2-2.3,2.5-3.2,3.8c-0.7,1.1-1.2,2.3-1.7,3.5c-0.4,0.9-0.8,1.8-1,2.8c-0.5,1.7-0.6,3.5-0.6,5.3
		c0,10.4,0,20.8,0,31.3c0,5.1,0,10.3,0,15.4c0,0.8-0.3,1.4-1.1,1.7c-0.8,0.3-1.7,0-2-0.8c-0.1-0.4-0.2-0.8-0.2-1.2
		c0-15.4,0-30.7,0-46.1c0-1.8,0.3-3.5,0.6-5.3c0.3-2.2,1.2-4.1,2-6c0.8-1.7,1.8-3.3,3.1-4.7c1.5-1.7,3.1-3.3,5-4.6
		c1.2-0.8,2.5-1.6,3.9-2.2c3.6-1.6,7.4-2.4,11.4-2.4c3.7,0,7.4-0.2,11.1-0.2c1.4,0,2.7-0.6,3.7-1.5c0.9-0.8,1.4-2,1.5-3.3
		c0.2-2.8-0.1-5.6-0.7-8.4c-0.1-0.5-0.4-0.9-0.8-1.3c-0.6-0.6-1.1-1.3-1.5-2c-0.8-1.3-1.7-2.6-2.5-4c-0.8-1.5-1.6-3-2.3-4.6
		c-0.5-1-0.7-2.1-1.1-3.2c-0.6-1.4-1-2.8-1.8-4.2c-0.8-1.4-1.5-2.9-1.8-4.5c-0.6-3.2-1-6.5-0.8-9.7c0.2-3,0.6-6,0.7-9
		c0.1-2.3,0.6-4.5,1-6.7c0.3-1.7,0.6-3.4,1-5.1c0.2-1,0.7-1.3,1.7-1.4c2.6,0,5.3-0.1,7.9-0.1c5.3,0,10.5,0,15.8,0
		c1.7,0,3.3,0.2,5,0.3c1.2,0.1,2.5,0.1,3.7,0.4c1.2,0.2,2.4,0.7,3.6,0.9c1.6,0.3,2.9,1.1,4.3,1.7c0.5,0.2,0.9,0.7,1.5,1
		c0.8,0.4,1.5,1.1,2.1,1.7c0.8,0.8,1.6,1.5,2.1,2.5c0.2,0.4,0.6,0.7,0.8,1.1c1.2,2.6,2.1,5.2,2,8.1c0,1,0,2,0,3.1
		c0.1,3-0.4,5.9-0.8,8.8c-0.1,0.9-0.2,1.9-0.3,2.8c0,0.3-0.1,0.7-0.2,1c-0.2,0.3-0.4,0.6-0.7,0.9c0,0-0.1-0.1-0.1-0.1
		c-0.3,1.5-0.4,3.1-0.8,4.6c-0.3,1.2-0.8,2.4-1.2,3.6c-0.4,1.3-1,2.5-1.5,3.7c-0.4,1-0.9,1.9-1.5,2.9c-0.6,1-1.1,2.1-1.7,3
		c-0.6,0.9-1.4,1.7-1.9,2.7c-0.4,0.8-0.6,1.7-0.8,2.6c-0.1,0.5-0.1,1.1-0.2,1.6c0,1.7,0,3.3,0,5c0,0.2,0.1,0.3,0.1,0.5
		c0.3,2.7,2.2,4.5,4.9,4.7c2.6,0.1,5.2,0.2,7.9,0.2c2.4,0,4.7-0.1,7,0.4c1.3,0.3,2.6,0.8,4,1c1.8,0.3,3.3,1.2,4.7,2
		c2.8,1.6,5.2,3.6,7.1,6.2c0.3,0.4,0.6,0.5,1.1,0.6c1,0.1,2,0.4,3,0.7c1.6,0.5,3.2,1.1,4.7,1.7c1.3,0.5,2.5,1.1,3.7,1.9
		c1.4,0.9,3,1.8,4.2,2.9c0.7,0.7,1.6,1.2,2.3,1.8c0.8,0.7,1.5,1.6,2.2,2.4c0.8,1,1.7,2,2.5,3c0.7,0.9,1.2,1.9,1.8,2.9
		c0,0.1,0.1,0.1,0.1,0.2c0.8,1.6,1.7,3.1,2.3,4.7c0.8,2.2,1.5,4.4,1.9,6.7c0.5,3.2,0.6,6.5,0.3,9.8c-0.3,2.3-0.7,4.6-1.4,6.8
		c-0.5,1.4-1,2.7-1.6,4.1c-0.4,1-1,1.9-1.5,2.9c-0.9,2-2.3,3.7-3.6,5.4c-0.8,1-1.7,1.9-2.6,2.8c-0.8,0.8-1.7,1.4-2.6,2.1
		c-1,0.8-2,1.7-3.2,2.4c-1.1,0.7-2.4,1.3-3.6,1.9c-0.4,0.2-0.8,0.5-1.2,0.6c-1.4,0.6-2.9,1.2-4.3,1.6c-5.5,1.5-11.1,1.9-16.8,0.7
		c-1.7-0.3-3.4-0.8-5.1-1.4c-1.5-0.5-3-1.1-4.4-1.8c-1.4-0.7-2.6-1.6-3.9-2.4c-0.9-0.6-1.7-1.1-2.5-1.7c-0.6-0.5-1.2-1.1-1.8-1.7
		c-1.1-1.1-2.1-2.3-3.1-3.4c-1.2-1.3-2.2-2.8-3.1-4.4c-0.7-1.3-1.5-2.6-2.1-3.9c-0.6-1.4-1.2-2.8-1.5-4.3c-1-4.1-1.7-8.2-1.3-12.5
		c0.2-2.1,0.7-4.2,1.1-6.3c0.3-1.8,1.2-3.4,1.7-5.2c0.1-0.4,0.3-0.7,0.5-1.1c0.8-1.5,1.6-3.1,2.5-4.5c0.6-0.9,1.3-1.8,2-2.7
		c1.4-1.8,3-3.5,4.8-4.9c0.9-0.8,1.8-1.6,2.9-2.2c1.3-0.7,2.4-1.6,3.6-2.3c1.4-0.7,2.8-1.4,4.2-1.9c1.7-0.6,3.5-1.2,5.3-1.5
		c2.5-0.4,5.1-0.8,7.7-0.6c0.2,0,0.3,0,0.6,0c-0.2-0.2-0.3-0.4-0.4-0.5c-0.9-0.8-1.9-1.5-2.9-2.2c-1.3-0.9-2.7-1.6-4.2-2.1
		c-1.8-0.6-3.7-1.1-5.7-1.3c-2.5-0.3-5-0.3-7.5-0.4c-2.3-0.1-4.6-0.1-6.9-0.2c-0.5,0-1-0.2-1.5-0.4c-1.7-0.7-3.1-1.7-4.2-3.2
		c-1.1-1.6-1.3-3.3-1.5-5.1C237.2-104.2,237.3-105.4,237.3-106.8z M303.3-51.9c0.1,0,0.1,0,0.2,0c-0.2-1.9-0.2-3.8-0.5-5.7
		c-0.2-1.3-0.8-2.6-1-4c-0.3-1.7-1.1-3.2-1.8-4.7c-1-2.2-2.3-4.3-3.9-6.1c-1.3-1.5-2.6-2.9-4.1-4.2c-1.4-1.3-3-2.4-4.7-3.3
		c-0.9-0.5-1.8-1.1-2.7-1.5c-1.2-0.5-2.3-1.1-3.5-1.4c-1.1-0.3-2.2-0.6-3.2-1c-1.4-0.4-2.9-0.5-4.4-0.6c-2.9-0.2-5.7-0.2-8.6,0.3
		c-2.1,0.4-4.1,1-6.1,1.8c-1.6,0.6-3.2,1.3-4.7,2.3c-1.3,0.8-2.6,1.6-3.8,2.6c-0.1,0.1-0.3,0.2-0.4,0.4c-0.7,0.6-1.5,1.1-2.1,1.8
		c-0.7,0.7-1.4,1.6-2.1,2.4c-0.7,0.9-1.5,1.7-2,2.6c-0.6,1.1-1.4,2.1-1.9,3.3c-0.4,1-0.9,2.1-1.4,3.1c-0.9,2.1-1.4,4.3-1.8,6.5
		c-0.9,4.6-0.4,9.2,0.6,13.7c0.3,1.5,0.9,3,1.5,4.4c0.6,1.4,1.4,2.7,2.2,4.1c0.2,0.4,0.4,0.7,0.6,1.1c0.6,0.8,1.1,1.6,1.7,2.4
		c0,0,0.1,0.1,0.1,0.1c0.2,0.2,0.5,0.5,0.7,0.7c0.6,0.7,1.2,1.4,1.8,2.1c0.5,0.5,1,1,1.6,1.4c0.8,0.6,1.7,1.2,2.5,1.8
		c1.3,0.8,2.5,1.8,3.8,2.4c1.4,0.7,3,1.2,4.5,1.8c1.9,0.7,3.9,1.2,6,1.4c3.5,0.5,7,0.3,10.4-0.2c2.4-0.4,4.8-1.2,7-2.2
		c0.4-0.2,0.7-0.5,1.1-0.6c1.3-0.3,2.3-1.1,3.4-1.8c1.7-1.1,3.5-2.3,4.8-3.9c0.9-1,1.9-1.9,2.8-3c0.7-0.8,1.3-1.8,1.9-2.6
		c0.3-0.4,0.6-0.8,0.9-1.2c0.6-1.2,1.2-2.4,1.8-3.6c0.4-0.9,0.8-1.8,1.1-2.7c0.2-0.5,0.2-1,0.4-1.5c0.2-0.8,0.5-1.6,0.7-2.5
		C303.3-47.6,303.3-49.7,303.3-51.9z M228.8-146.1c-2.5,0.1-4.4,0.2-6.2,0.3c-1.2,0.1-2.4,0.3-3.6,0.4c-1.4,0-2.7,0.3-4,0.8
		c-0.7,0.3-1.2,0.8-1.8,1.3c-0.2,0.2-0.3,0.5-0.5,0.7c-1.2,1.3-1.9,2.8-2.5,4.4c-0.3,0.8-0.5,1.6-0.7,2.4c-0.3,1.1-0.7,2.2-1.1,3.3
		c-0.6,1.3-1.2,2.6-1.9,3.9c-0.1,0.2-0.2,0.6-0.2,0.8c0.3,1.2,0.6,2.4,1.1,3.6c0.7,1.6,1.5,3.1,2.3,4.7c0.1,0.2,0.2,0.4,0.3,0.5
		c0.6,1,1.1,2,1.8,2.9c0.8,1.1,1.6,2.1,2.5,3.1c0.7,0.8,1.3,1.7,2.1,2.5c0.7,0.7,1.5,1.2,2.1,1.9c0.7,0.9,1.6,1.3,2.5,2
		c0.7,0.5,1.4,0.8,2.1,1.3c1.2,0.8,2.5,1,3.8,1c0.9,0,1.7-0.1,2.5-0.6c1-0.6,2.1-1.1,2.9-1.9c0.8-0.8,1.8-1.5,2.6-2.3
		c1.2-1.1,2.3-2.3,3.3-3.7c0.6-0.8,1.4-1.6,1.9-2.5c0.7-1.2,1.5-2.2,2.1-3.5c0.4-1,1-1.9,1.5-2.9c0.5-1.2,1-2.3,1.5-3.5
		c0.8-2.2,1.3-4.5,1.6-6.8c0.1-0.8-0.1-1.1-0.8-1.5c-0.4-0.2-0.7-0.6-1-0.9c-0.2-0.2-0.5-0.5-0.7-0.8c-0.2-0.2-0.5-0.5-0.6-0.7
		c-0.7-1.4-1.4-2.7-2-4.1c-0.4-0.7-0.6-1.5-1-2.3c-0.7-1.3-1.4-2.7-3.1-2.9c-0.5-0.1-1-0.1-1.4-0.1
		C233.5-145.7,230.8-145.9,228.8-146.1z M204.3-131.9c0.1,0,0.2,0,0.3,0c0.4-0.9,0.9-1.8,1.2-2.8c0.6-1.8,1.1-3.6,1.7-5.4
		c0.3-0.7,0.7-1.5,1.1-2.1c0.6-1,1.2-1.9,1.9-2.8c0.1-0.1,0.2-0.2,0.3-0.3c0.3-0.3,0.6-0.6,0.9-0.9c0.1-0.1,0.2-0.3,0.4-0.4
		c1.3-0.5,2.6-1.1,4-1.5c1.2-0.3,2.4-0.4,3.6-0.5c5.4-0.6,10.7-0.8,16.1,0c1.4,0.2,2.8,0.3,4.1,0.9c0.7,0.3,1.4,0.7,1.9,1.2
		c0.5,0.5,0.8,1.1,1.1,1.7c0.2,0.4,0.5,0.7,0.6,1.1c0.8,1.7,1.5,3.4,2.3,5c0.5,1,1,2.1,2.2,2.5c0.2-1.1,0.4-2.2,0.5-3.3
		c0.4-3.2,0.8-6.4,0.4-9.7c-0.2-2-0.7-3.9-1.7-5.7c-0.5-1-1.3-1.9-2.1-2.7c-0.9-0.8-1.8-1.7-2.9-2.2c-1.4-0.7-2.7-1.3-4.2-1.7
		c-3-0.7-6-1.3-9.2-1.3c-7.8,0-15.6,0-23.4,0c-0.3,0-0.6,0-0.9,0c-0.1,1.1-0.2,2-0.4,2.9c-0.6,3.4-1.3,6.7-1.5,10.2
		c-0.1,3-0.4,5.9-0.3,8.9c0.1,1.5,0.1,3.1,0.4,4.6C203.3-134.8,203.9-133.4,204.3-131.9z"/>
	<path class="st1" d="M220.4-75.3c-0.9,1.1-1.7,2-2.4,3c-0.3,0.5-0.5,1.1-0.7,1.7c0.3,0.2,0.5,0.3,0.7,0.4c1,0.5,1.9,1.3,2.3,2.2
		c0.4,0.9,0.5,1.9,0.6,2.9c0,0.4,0.1,0.7,0.5,1c1.7,1,2.8,2.5,3.2,4.3c0.4,1.9,0.5,3.9-0.5,5.8c-0.7,1.2-1.5,2.3-2.6,3
		c-1.7,1-3.5,1.6-5.5,1.3c-0.5-0.1-0.8,0-1.1,0.5c-0.8,1.4-2,2.3-3.4,2.9c-1.3,0.5-2.7,0.8-4.2,0.5c-0.8-0.1-1.6-0.2-2.3-0.6
		c-1.1-0.5-2.1-1.2-2.8-2.2c-1.5-1.9-2.3-4.1-1.7-6.6c0.2-0.8-0.4-0.9-0.8-1.2c-1.2-0.9-2.1-2-2.7-3.5c-0.3-0.8-0.6-1.5-1-2.4
		c-0.5-0.1-1.1-0.1-1.6-0.2c-1.4-0.3-2.6-0.9-3.8-1.7c-1.6-1-2.9-2.5-3.5-4.3c-0.9-2.2-1-4.4-0.4-6.8c0.4-1.4,1.1-2.5,1.9-3.6
		c0.8-1.1,1.9-1.9,3.2-2.5c1.5-0.7,2.9-1.1,4.5-1.2c0.2,0,0.5-0.2,0.6-0.4c0.7-1.2,1.8-2.1,3-2.8c0.5-0.3,1-0.6,1.5-0.8
		c0.6-0.3,1.2-0.5,1.9-0.6c0.7-0.2,1.4-0.4,2-0.9c1.9-1.2,3.9-1.9,6.2-1.8c0.7,0,1.3,0.3,2,0.2c0.6-0.1,1.1-0.6,1.7-0.9
		c2.4-1.3,6.1,0.1,7,2.5c0.1,0.3,0.4,0.6,0.5,1c0.1,0.7,0.6,0.9,1.1,1.1c1.1,0.3,1.9,1.1,2.5,2c0.7,1.1,1.2,2.4,0.9,3.7
		c-0.1,0.7-0.5,1.4-0.8,2.1c-0.3,1-1.2,1.6-2,2.1c-1.1,0.8-2.4,0.7-3.6,0.6C220.8-75.2,220.5-75.3,220.4-75.3z M197.1-79
		c-1.7-0.2-3.1,0.2-4.2,1c-1.5,1-2.7,2.3-3,4.2c-0.2,1.4-0.2,2.7,0.2,4c0.3,1,1,1.9,1.8,2.6c1.5,1.4,3.4,2.1,5.5,1.8
		c0.9-0.2,1.9,0.6,2,1.4c0,1,0.3,2,0.7,2.9c0.6,1.6,1.8,2.5,3.2,3.3c1,0.6,1.4,1.1,1,2.2c-0.2,0.5-0.4,0.9-0.5,1.4
		c-0.2,1.6,0.3,3,1.6,4.1c0.9,0.8,1.9,1.2,3.1,1.1c0.3,0,0.5,0,0.8,0c0.4-0.1,0.8-0.2,1.1-0.3c1.4-0.7,2.2-1.8,2.8-3.2
		c0.3-0.8,0.9-1.1,1.7-0.9c0.3,0.1,0.5,0.2,0.8,0.3c1.9,0.8,4.5-0.1,5.7-2.2c1.7-3-0.4-6.1-3-6.8c-0.6-0.2-0.8-0.5-0.8-1
		c0-0.6,0.1-1.1,0.2-1.7c0.2-1.1-0.2-2.1-1.2-2.6c-0.5-0.2-0.9-0.3-1.5-0.3c-1.2,0.2-1.8-0.5-1.9-1.6c0-0.7,0.4-1.1,0.7-1.6
		c0.3-0.4,0.5-0.9,0.7-1.4c0.3-0.8,0.5-1.7,1.3-2.4c0.4-0.3,0.6-0.7,0.9-1.1c0.5-0.6,0.7-1.4,0.9-2.1c0.4-1.4,1.8-1.9,2.8-1
		c1.4,1.3,3.3,0.4,3.7-1.4c0.3-1.2-0.5-2.8-2.4-2.8c-1.2,0-2-0.7-1.9-1.9c0.1-1.2-0.5-2.1-1.5-2.5c-1-0.4-2-0.1-2.8,0.8
		c-0.7,0.8-1.2,0.9-2.3,0.6c-0.6-0.2-1.2-0.4-1.8-0.4c-1.7-0.1-3.3,0.4-4.6,1.4c-0.6,0.5-1.2,0.9-2.1,0.8c-0.2,0-0.4,0-0.5,0.1
		c-2.1,0.7-3.9,1.9-5.1,3.8C198.6-79.3,198-78.7,197.1-79z"/>
	<path class="st1" d="M224.5-22.1c-3.6,0-7.2,0-10.8,0c-1.3,0-1.9-0.5-2.2-1.8c-0.1-0.5-0.3-1.1-0.5-1.6c-0.3-1-0.6-2-0.9-3
		c-0.3-1-0.8-2-1.1-3c-0.2-0.5-0.3-1.1-0.3-1.7c0-0.6,0.6-1.2,1.2-1.3c1-0.1,1.4,0.1,1.7,0.9c0.4,1.1,0.8,2.3,1.2,3.4
		c0.5,1.4,1,2.8,1.4,4.2c0.2,0.6,0.5,0.7,1,0.7c6.6,0,13.3,0,19.9,0c0.6,0,1.1,0.1,1.6,0.6c0.4,0.5,0.6,1.1,0.3,1.6
		c-0.3,0.5-0.7,0.9-1.4,1c-0.8,0-1.7,0-2.5,0C230.3-22.1,227.4-22.1,224.5-22.1C224.5-22.1,224.5-22.1,224.5-22.1z"/>
	<path class="st1" d="M195.6-36.6c0,3.6,0,7.2,0,10.8c0,1.2-0.3,1.6-1.3,1.9c-0.8,0.2-1.7-0.2-1.9-1c-0.1-0.3-0.1-0.5-0.1-0.8
		c0-7.2,0-14.4,0-21.6c0-1.1,0.3-1.6,1.2-1.8c0.9-0.3,1.9,0.3,2,1.3c0,0.2,0,0.4,0,0.6C195.6-43.7,195.6-40.1,195.6-36.6
		C195.6-36.6,195.6-36.6,195.6-36.6z"/>
	<path class="st1" d="M219.6-47.5c2.6,0,5.6,2.2,5.6,5.6c0,3.3-2.7,5.7-5.7,5.6c-3-0.1-5.4-2.4-5.4-5.6
		C214.1-45.3,216.9-47.5,219.6-47.5z M221.9-41.9c0-1.3-1.1-2.4-2.3-2.4c-1.2,0-2.3,1.1-2.3,2.4c0,1.3,1,2.4,2.3,2.4
		C220.9-39.5,221.9-40.5,221.9-41.9z"/>
	<path class="st1" d="M293.9-63.9c1,1.3,1.6,2.6,1.6,4.2c0,1.3-0.5,2.5-1.2,3.3c-2.8,3.1-6.7,2.3-8.6,0.1c-0.9,0.4-1.9,0.9-2.9,1.2
		c-0.9,0.2-1.5,0.7-2.1,1.3c0.8,1.1,1,2.3,0.9,3.6c-0.1,1.3-0.3,2.5-1.4,3.4c0.8,1.2,1.1,2.5,1,3.9c-0.1,2.2-0.9,4.1-2.7,5.6
		c-0.3,0.2-0.5,0.5-0.7,0.7c-2.3,1.4-4.7,1.9-7.2,0.9c-0.9-0.4-1.8-0.7-2.5-1.5c-0.3-0.4-0.8-0.2-1.2-0.1c-2,0.9-4,0.8-6.1,0
		c-1.9-0.7-3.2-2-4-3.7c-0.9-1.9-1.2-3.9-0.5-6c0.3-0.9,0.6-1.9,1.4-2.6c0.7-0.6,0.7-1.4,0.4-2.2c-0.6-1.9-0.6-3.8,0-5.8
		c0.3-1,0.2-1.2-0.7-1.8c-1-0.7-1.8-1.7-2.3-2.8c-0.3-0.7-0.7-1.5-0.9-2.2c-0.7-2.4-0.3-4.7,0.7-6.9c0.5-1,1.1-1.8,1.7-2.5
		c0.6-0.7,1.4-1.5,2.4-1.8c0.6-0.2,1.1-0.6,1.7-0.8c2.7-1,5.3-0.8,7.8,0.6c0.9,0.5,1.8,0.3,2.7,0.1c2-0.6,4-0.5,6.1,0
		c1,0.3,2.1,0.6,3.2,0.5c1.3-0.1,2.5,0.4,3.7,0.8c1.3,0.5,2.3,1.4,3.3,2.3c0.2,0.2,0.5,0.2,0.8,0.2c1.6-0.1,3.1,0.4,4.2,1.5
		c1.6,1.6,2.3,3.6,1.5,5.9C294-64.1,293.9-64,293.9-63.9z M264.1-73.5c-1.5-0.1-2.9,0.5-4.1,1.4c-1.1,0.7-1.8,1.8-2.3,3
		c-0.9,2.2-0.7,5.1,1.7,7.3c0.1,0.1,0.2,0.2,0.3,0.3c0.4,0.3,0.8,0.6,1.2,0.8c1.1,0.4,1.7,1.7,1,2.6c-0.5,0.7-0.8,1.5-0.9,2.4
		c-0.2,1.8-0.1,3.5,0.9,5c0.1,0.1,0.1,0.2,0.2,0.3c0.2,0.5,0.1,1.2-0.3,1.6c-0.6,0.5-1.1,1-1.7,1.5c-0.2,0.2-0.4,0.3-0.4,0.6
		c-0.2,0.7-0.5,1.4-0.5,2.2c-0.1,1.1,0.2,2.1,0.8,2.9c0.6,0.8,1.4,1.5,2.5,1.8c1.6,0.4,3,0.1,4.2-0.8c1-0.7,1.6-0.8,2.4,0.1
		c0.4,0.4,0.7,0.8,1,1.2c1.2,1.1,4,1.4,5.3,0.5c1.6-1.1,2.7-2.6,2.4-4.7c-0.1-0.9-0.6-1.8-1-2.6c-0.3-0.7-0.4-1.3,0-1.9
		c0.2-0.3,0.5-0.6,0.8-0.8c1-0.7,1-2.5,0.1-3.2c-0.4-0.4-0.9-0.7-1.3-1c-0.8-0.6-0.8-1.4-0.1-2.1c0.3-0.3,0.6-0.5,1-0.7
		c1-0.5,2.1-0.8,2.7-1.7c0.1-0.1,0.3-0.1,0.4-0.2c0.8-0.3,1.5-0.4,2.3-0.8c0.8-0.4,1.6-0.8,2.3-1.4c0.7-0.7,1.9-0.5,2.3,0.4
		c0.1,0.3,0.3,0.7,0.6,1c0.2,0.3,0.5,0.7,0.8,0.8c0.7,0.3,1.5,0.3,2.3,0c0.4-0.1,0.6-0.6,0.9-1c0.8-1.2,0.2-2.8-1.1-3.3
		c-0.5-0.2-0.7-0.6-0.7-1c-0.1-0.6,0.2-1.1,0.5-1.6c0.9-1.1,0.4-2.9-0.9-3.4c-0.6-0.3-1.2-0.2-1.9,0c-1,0.3-1.6,0.1-2.1-0.9
		c-0.1-0.1-0.1-0.3-0.2-0.3c-0.9-0.5-1.4-1.4-2.5-1.7c-1.2-0.3-2.4-0.6-3.6-0.5c-0.3,0-0.7,0-1-0.1c-0.8-0.3-1.6-0.7-2.6-0.8
		c-1.9-0.1-3.7-0.1-5.4,0.8c-0.2,0.1-0.3,0.2-0.5,0.2c-0.4,0-0.9,0.1-1.1-0.1c-0.5-0.4-1.1-0.7-1.6-1
		C266.2-73.2,265.2-73.5,264.1-73.5z"/>
	<path class="st1" d="M248-47.8c-3.1,0-5.6-2.6-5.6-5.6c0-3.1,2.5-5.6,5.6-5.6c3,0,5.7,2.6,5.7,5.6C253.6-50.4,251.1-47.8,248-47.8z
		 M250.4-53.3c0.1-1.3-1.3-2.4-2.4-2.4c-1.2,0-2.3,1.1-2.4,2.4c0,1.1,1.1,2.4,2.4,2.4C249.1-51,250.5-52.2,250.4-53.3z"/>
	<path class="st1" d="M267-34.2c2.9,0,5.6,2.8,5.6,5.5c0,3.1-2.6,5.7-5.7,5.7c-3.1,0-5.6-2.6-5.6-5.7C261.4-31.5,264-34.2,267-34.2z
		 M267-30.9c-1.2-0.1-2.4,1.2-2.4,2.4c0,1.2,1.1,2.3,2.3,2.4c1.1,0,2.4-1.1,2.4-2.4C269.4-29.7,268.1-31,267-30.9z"/>
	<path class="st1" d="M287.1-42.6c-0.1-1.9,0.9-3.3,2.2-4.3c1.6-1.2,3.5-1.5,5.5-0.8c1,0.4,1.8,1,2.4,1.8c0.6,0.8,1,1.8,1.1,2.8
		c0.1,1-0.1,1.8-0.5,2.7c-0.4,1-1.1,1.7-1.9,2.4c-1.1,0.9-2.5,1-3.8,0.9c-2.2-0.1-3.7-1.5-4.6-3.4C287.2-41.1,287.2-41.9,287.1-42.6
		z M292.6-40.2c1.5,0.3,2.4-1.3,2.4-2.4c0-1.2-1.1-2.3-2.3-2.3c-1.5,0-2.4,1-2.4,2.3C290.2-41.4,291.4-40.2,292.6-40.2z"/>
	<path class="st1" d="M226.3-127.9c0.1,0.8-0.1,1.5-0.5,2.2c-0.2,0.3-0.1,0.5,0,0.9c0.5,1.6,0.4,3-0.6,4.4c-0.8,1.2-1.8,2-3.2,2.5
		c-1.7,0.5-3.3,0.1-4.6-1c-0.8-0.7-1.6-1.4-2.6-1.7c-0.6-0.2-1.1-0.7-1.5-1.2c-1.3-1.7-1.7-3.5-0.8-5.5c0.6-1.3,1.5-2.3,2.8-2.9
		c0.6-0.2,1-0.6,1.4-1.1c1.3-1.7,3.9-2.7,6.1-1.7c1.7,0.7,2.8,1.9,3.3,3.7C226.3-128.9,226.3-128.4,226.3-127.9z M220.6-121
		c1.6,0,2.6-1.7,2-3c-0.1-0.3-0.4-0.6-0.5-0.9c-0.3-0.5-0.2-1.1,0.2-1.5c1.2-1.2,1-2.6-0.4-3.5c-0.9-0.6-2.9,0.1-3,1.2
		c-0.1,0.6-0.4,0.9-0.9,1.1c-0.3,0.1-0.7,0.2-1,0.3c-0.9,0.1-1.3,0.7-1.6,1.5c-0.4,1.2,0.3,2.4,1.5,2.7c0.9,0.2,1.6,0.5,2,1.4
		C219.3-121.2,220-121,220.6-121z"/>
</g>
<g>
	<path class="st1" d="M281.3,33.7c0.4,0.1,0.8,0.3,1.1,0.4c2.5,1,4,3.3,4,6.1c0,6,0,12.1,0,18.1c0,0.4,0,0.8,0,1.2
		c0.1,0,0.1,0,0.2,0c0.5-2.2,1.1-4.3,1.6-6.5c0.8-3.4,1.7-6.7,2.5-10.1c0.9-3.5,4.1-5.7,7.4-5c3.6,0.8,5.7,3.9,5,7.7
		c-0.9,5-1.8,10-2.7,15c-0.1,0.3-0.1,0.7,0.1,1.1c1.1-2.3,2.1-4.5,3.2-6.8c1.1-2.3,3-3.6,5.5-3.7c4.4-0.2,7.6,3.9,6.4,8.1
		c-0.5,1.9-1.3,3.7-2,5.5c-0.4,1-1.3,1.5-2.1,1.2c-1-0.3-1.4-1.2-1-2.3c0.5-1.6,1.1-3.2,1.7-4.8c0.6-1.8,0-3.4-1.5-4.1
		c-1.6-0.7-3.2,0-4,1.8c-2.9,6.1-5.7,12.2-8.6,18.3c-0.1,0.3-0.3,0.5-0.4,0.8c-0.4,0.9-1.1,1.4-2.1,1.1c-1-0.3-1.3-1.1-1.2-2
		c0.5-2.8,1-5.6,1.5-8.4c1.3-7.2,2.6-14.4,3.9-21.5c0.3-1.7-0.7-3.1-2.3-3.5c-1.6-0.4-3.1,0.5-3.6,2.3c-1.9,7.5-3.8,15-5.6,22.5
		c-0.7,2.7-1.3,5.3-2,8c-0.3,1.3-1,1.8-2,1.7c-0.9-0.1-1.4-0.8-1.4-2.1c0-11.1,0-22.2,0-33.3c0-2.6-2-4.1-4.5-3.3
		c-1.2,0.4-1.9,1.3-2,2.6c0,0.4,0,0.8,0,1.2c0,10.9,0,21.8,0,32.7c0,0.3,0,0.5,0,0.8c0,1.3-0.5,2-1.5,2.2c-1,0.1-1.7-0.4-2-1.7
		c-1.7-6.6-3.4-13.2-5.1-19.8c-0.7-2.5-1.3-5.1-2-7.6c-0.5-1.9-2-2.9-3.6-2.5c-1.6,0.4-2.5,1.8-2.2,3.7c0.4,2.3,0.8,4.6,1.2,6.9
		c0.2,1.3-0.3,2.1-1.3,2.3c-1,0.2-1.7-0.4-2-1.7c-0.5-2.5-0.9-5-1.4-7.4c-0.6-3.3,1.5-6.3,4.8-7.1c3.2-0.8,6.6,1,7.5,4.2
		c1.2,4.3,2.3,8.7,3.4,13.1c0.1,0.5,0.3,1,0.6,1.5c0-0.3,0-0.7,0-1c0-6.1,0.1-12.1,0-18.2c-0.1-3.6,1-6.4,5.3-7.7
		C279.3,33.7,280.3,33.7,281.3,33.7z"/>
	<path class="st1" d="M268.1,127.6c0.7-2.1-0.6-3.7-2.4-5.3c-3.8-3.4-7.5-6.9-11-10.6c-2.3-2.5-4.5-5.2-6.3-8
		c-3.4-5.4-6.5-11-9.6-16.6c-2.3-4.1,0.1-9,4.8-9.6c2.3-0.3,4.2,0.6,5.7,2.3c3.3,3.7,6.6,7.3,9.9,11c1,1.1,1.3,1,1.9-0.3
		c0,0,0-0.1,0-0.1c0.6-2.2,2.4-4,2-6.4c-0.3-2.2-0.8-4.4-1.2-6.7c-0.8-4.3-1.6-8.5-2.4-12.8c0-0.2-0.1-0.4-0.1-0.6
		c-0.1-1.1,0.4-1.8,1.3-2c1-0.2,1.8,0.4,2,1.5c0.4,2,0.7,4,1.1,6c0.9,4.8,1.8,9.6,2.6,14.4c0.2,0.9,0,2-0.3,2.8
		c-0.6,1.8-1.4,3.6-2.2,5.4c-1.3,3.2-4.8,3.8-7.1,1.2c-3.4-3.7-6.7-7.4-10.1-11.2c-0.8-0.9-1.6-1.5-2.8-1.4c-2,0.2-3.3,2.2-2.5,4.1
		c0.2,0.5,0.4,0.9,0.7,1.3c2.7,4.8,5.5,9.5,8.2,14.3c2.1,3.7,4.7,7,7.8,9.9c3.9,3.7,7.8,7.5,11.7,11.2c1.2,1.1,1.8,2.3,1.7,4
		c-0.1,1.8,0,3.5,0,5.3c0,1.2-0.7,2-1.7,2c-1,0-1.7-0.8-1.7-2C268.1,129.9,268.1,129,268.1,127.6z"/>
	<path class="st1" d="M297.2,135.2c0-3.5,0.1-7.1,0-10.6c0-1.6,0.3-3.1,1.2-4.5c1.5-2.5,2.9-5.2,3.2-8.2c0.3-2.8,0.5-5.7,0.7-8.6
		c0.5-6.5,1-12.9,1.4-19.4c0-0.4,0.1-0.8,0.2-1.2c1.4-3.9,2.8-7.9,4.2-11.8c0.4-1,1.2-1.4,2.1-1.1c1,0.3,1.4,1.2,1,2.4
		c-0.9,2.6-1.8,5.2-2.8,7.7c-0.9,2.4-1.5,4.9-1.6,7.4c-0.5,7.6-1.1,15.2-1.6,22.7c-0.3,4.1-1.6,7.9-3.7,11.3c-0.6,1-0.9,2.1-0.9,3.3
		c0,7.3,0,14.6,0,21.9c0,0.4,0,0.8,0,1.1c-0.1,1-0.9,1.6-1.7,1.6c-0.9,0-1.5-0.7-1.6-1.7c0-0.3,0-0.7,0-1
		C297.2,142.9,297.2,139,297.2,135.2z"/>
	<path class="st1" d="M296.2,102.4c0,3.4-2.7,6-6,6c-3.3,0-5.9-2.7-6-6c0-3.3,2.7-6,6-6C293.6,96.4,296.2,99.1,296.2,102.4z
		 M292.8,102.4c0-1.4-1.1-2.6-2.6-2.6c-1.4,0-2.6,1.2-2.6,2.6c0,1.5,1.2,2.6,2.7,2.6C291.7,104.9,292.8,103.8,292.8,102.4z"/>
	<path class="st1" d="M282.9,89.6c0,2.7-2.1,4.9-4.8,4.9c-2.7,0-4.9-2.2-4.9-4.9c0-2.6,2.2-4.8,4.8-4.9
		C280.6,84.8,282.9,86.9,282.9,89.6z M279.5,89.8c0-0.9-0.6-1.6-1.4-1.6c-0.9,0-1.4,0.5-1.5,1.4c-0.1,0.8,0.6,1.5,1.5,1.5
		C278.9,91.1,279.4,90.6,279.5,89.8z"/>
	<path class="st1" d="M284.9,140.6c-2.7,0-4.8-2.2-4.8-4.9c0-2.6,2.2-4.8,4.8-4.8c2.7,0,4.9,2.2,4.9,4.9
		C289.8,138.5,287.6,140.7,284.9,140.6z M285,137.2c0.9-0.1,1.4-0.6,1.4-1.5c0-0.9-0.6-1.4-1.4-1.4c-0.8,0-1.5,0.7-1.4,1.5
		C283.6,136.8,284.1,137.2,285,137.2z"/>
	<path class="st1" d="M277,108.7c2.7,0,4.9,2.2,4.9,4.9c0,2.7-2.2,4.9-4.9,4.8c-2.6,0-4.8-2.2-4.8-4.8
		C272.1,110.9,274.3,108.7,277,108.7z M278.4,113.6c-0.1-0.9-0.5-1.4-1.4-1.4c-0.9,0-1.4,0.5-1.4,1.4c-0.1,0.8,0.6,1.6,1.4,1.5
		C277.9,115,278.3,114.5,278.4,113.6z"/>
	<path class="st1" d="M287.8,87.3c0-2.7,2.1-4.9,4.8-4.9c2.7,0,4.9,2.2,4.9,4.9c0,2.6-2.1,4.8-4.8,4.9C290,92.2,287.8,90,287.8,87.3
		z M294.1,87.3c-0.1-0.8-0.5-1.4-1.4-1.4c-0.9,0-1.4,0.5-1.5,1.4c-0.1,0.8,0.6,1.5,1.5,1.5C293.6,88.7,294,88.1,294.1,87.3z"/>
	<path class="st1" d="M271.5,143c0,1.5,0,3,0,4.5c0,1.1-0.7,1.9-1.6,1.9c-1,0-1.7-0.7-1.7-1.9c0-2.9,0-5.9,0-8.8
		c0-1.2,0.7-2,1.7-1.9c1,0,1.7,0.7,1.7,2C271.6,140.1,271.5,141.6,271.5,143z"/>
	<path class="st1" d="M274.1,101.8c-0.3,0-0.6,0-0.9,0c-0.9-0.1-1.4-0.6-1.5-1.5c-0.1-1,0.4-1.6,1.4-1.8c0.6-0.1,1.3-0.1,1.9,0
		c1,0.1,1.6,0.8,1.6,1.7c0,0.9-0.6,1.6-1.7,1.6C274.6,101.8,274.4,101.8,274.1,101.8C274.1,101.8,274.1,101.8,274.1,101.8z"/>
	<path class="st1" d="M278.3,128.2c-1.5,0-2.2-0.5-2.3-1.6c-0.1-1.1,0.7-1.8,2-1.8c1.7,0,2.5,0.5,2.5,1.7
		C280.5,127.5,279.7,128.2,278.3,128.2z"/>
	<path class="st1" d="M263.8,107.2c-1.3,0-2.1-0.6-2.1-1.6c0-0.9,0.6-1.6,1.6-1.7c1.5-0.2,2.6,0.3,2.8,1.4
		C266.3,106.3,265.4,107.2,263.8,107.2z"/>
	<path class="st1" d="M288.9,119.9c1.3,0,2.1,0.6,2.1,1.7c0,1.1-0.8,1.7-2.1,1.7c-1.3,0-2-0.6-2-1.7
		C286.9,120.5,287.6,119.9,288.9,119.9z"/>
</g>
<g>
	<path class="st1" d="M222.4,161c1.6-2.1,2.6-4.5,3.3-6.9c0.8-2.9,1.1-5.9,1.2-8.9c0-0.4,0-0.7,0-1.1c0-0.6,0.4-1,0.9-1
		c0.5,0,0.9,0.4,0.9,1c-0.1,1.6-0.1,3.2-0.3,4.7c-0.4,3.8-1.2,7.4-3,10.8c-0.6,1.1-1.4,2.1-2.1,3.1c-0.1,0.2-0.3,0.4-0.3,0.6
		c-0.7,3-1.3,6-2,8.9c-0.2,0.7,0,1.3,0.4,1.8c1,1.3,2.1,2.5,3.1,3.8c0.6,0.7,1.1,1.3,1.7,1.9c1.7,1.7,1.9,3.7,1.3,5.9
		c-0.9,3.2-3.1,5.2-6.4,5.8c-2.4,0.4-4.6,1.4-6.7,2.6c-3,1.8-5.9,3.6-8.9,5.4c0,0.1,0,0.1,0.1,0.2c0.2,0,0.4,0,0.6,0
		c2.9,0,5.7,0,8.6,0c0.2,0,0.4,0,0.5,0c0.6,0,0.9,0.3,0.9,0.9c0,0.5-0.3,0.9-0.9,1c-0.2,0-0.4,0-0.6,0c-8.4,0-16.9,0-25.3,0
		c-1.8,0-2.5-0.9-2.7-2.3c-0.2-1.2-0.1-2.4-0.2-3.6c0-0.1,0.1-0.3,0.1-0.4c0.5-1,1-1.9,1.5-2.9c0.2-0.5,0.6-0.7,1.2-0.7
		c1.6,0,3.3,0.2,4.9,0c1.4-0.2,2.7-0.8,4-1.3c0.2-0.1,0.4-0.4,0.5-0.7c2.4-4.4,4.8-8.9,7.2-13.3c0.2-0.3,0.2-0.7,0.2-1
		c0.2-5.3,0.3-10.5,0.5-15.8c0.1-5.1,0.3-10.3,0.4-15.4c0-0.8,0.4-1.1,1-1.1c0.6,0,0.9,0.4,0.9,1.2c-0.1,4.9-0.3,9.7-0.4,14.6
		c-0.2,5.7-0.3,11.4-0.5,17c0,0.4-0.1,0.7-0.2,1c-2.4,4.4-4.6,8.9-7.2,13.2c-1.2,2-2.7,3.7-4.2,5.5c-0.2,0.2-0.6,0.4-0.9,0.5
		c-2.3,0.8-4.6,1.5-7,2.2c0,0.3,0,0.5,0.1,0.8c0.1,0.5,0.3,0.7,0.9,0.7c3.8,0,7.6,0,11.3,0c0.8,0,1.4-0.2,2.1-0.6
		c2.7-1.7,5.4-3.5,8.1-5.2c2.4-1.5,4.9-3,7.7-3.8c0.7-0.2,1.4-0.4,2.2-0.5c3-0.5,5.3-3.1,5.2-6.1c0-0.8-0.3-1.6-0.8-2.2
		c-1.6-1.8-3.1-3.6-4.7-5.3c-1.3-1.5-1.7-3.1-1.2-5.1c0.6-2.5,1.2-5.1,1.7-7.6c0.1-0.3,0-0.8-0.2-1.1c-0.3-0.6-0.8-1.2-1.2-1.8
		c-0.3-0.5-0.3-1.1,0.2-1.4c0.5-0.3,1-0.2,1.4,0.4c0.2,0.3,0.4,0.5,0.5,0.8C222,160.4,222.2,160.7,222.4,161z M195.9,193.5
		c-0.1-0.1-0.1-0.2-0.2-0.2c-2.4,0.9-4.9,1.6-7.2,2.9c0.2,0,0.4,0,0.6,0c1.8-0.6,3.6-1.1,5.4-1.7C195,194.2,195.4,193.8,195.9,193.5
		z"/>
	<path class="st1" d="M216.6,145.7c0.1,3.9,0.9,7.3,2.6,10.5c0.2,0.3,0.3,0.9,0.1,1.2c-0.3,0.7-1.2,0.6-1.7-0.2
		c-1.3-2.3-2.2-4.8-2.6-7.5c-0.2-1.8-0.2-3.6-0.3-5.3c0-0.2,0-0.5,0.1-0.7c0.1-0.5,0.5-0.7,1-0.7c0.5,0.1,0.8,0.4,0.8,0.9
		C216.7,144.6,216.6,145.3,216.6,145.7z"/>
	<path class="st1" d="M229.7,176.4c-1.5,0-2.8-1.3-2.8-2.8c0-1.5,1.3-2.8,2.8-2.8c1.5,0,2.8,1.2,2.8,2.7
		C232.5,175.2,231.3,176.4,229.7,176.4z M229.7,174.6c0.5,0,0.9-0.4,0.9-0.9c0-0.5-0.4-0.9-0.9-0.9c-0.5,0-0.9,0.4-0.9,1
		C228.8,174.2,229.2,174.6,229.7,174.6z"/>
	<path class="st1" d="M198.6,167.2c0.6-0.4,1.1-1.5,2-0.7c0.5,0.4,0.4,0.9-0.7,2c0.3,0.7,1.6,1.1,0.6,2.1c-0.4,0.5-0.8,0.3-2-0.7
		c-0.7,0.3-1.1,1.6-2.1,0.6c-0.5-0.4-0.3-0.9,0.7-1.9c-0.3-0.7-1.6-1.2-0.6-2.1C197.5,165.7,198,166.8,198.6,167.2z"/>
	<path class="st1" d="M214.4,172.7c0.4,0,0.9,0,1.3,0c0.6,0,0.9,0.3,1,0.9c0,0.5-0.4,0.9-1,0.9c-0.5,0-1,0-1.6,0
		c-0.2,0-0.5,0.2-0.6,0.4c-0.2,0.5-0.3,1-0.5,1.5c-0.2,0.7-0.7,1-1.2,0.8c-0.6-0.2-0.8-0.7-0.6-1.4c0.2-0.8,0.5-1.5,0.7-2.3
		c0.2-0.7,0.6-1,1.3-1C213.7,172.8,214.1,172.7,214.4,172.7C214.4,172.7,214.4,172.7,214.4,172.7z"/>
	<path class="st1" d="M233.4,151.4c-0.6,0-1.1,0-1.7,0c-0.7,0-1.1-0.4-1.1-1c0-0.5,0.4-0.9,1-0.9c1.2,0,2.3,0,3.5,0
		c0.7,0,1,0.4,1,0.9c0,0.6-0.4,0.9-1.1,1C234.5,151.4,234,151.4,233.4,151.4z"/>
	<path class="st1" d="M233.9,154.8c-0.1,0.2-0.3,0.5-0.5,0.6c-0.3,0.1-0.8,0.1-1-0.1c-0.6-0.4-1.1-1-1.5-1.5c-0.2-0.2-0.2-0.8,0-1.1
		c0.2-0.2,0.8-0.4,1-0.3c0.7,0.5,1.3,1.2,1.9,1.8C233.9,154.3,233.8,154.5,233.9,154.8z"/>
	<path class="st1" d="M231.4,148.6c-0.2-0.1-0.5-0.3-0.7-0.6c-0.1-0.3-0.1-0.7,0.1-0.9c0.5-0.6,1-1.1,1.6-1.6
		c0.2-0.2,0.8-0.1,1.1,0.1c0.2,0.2,0.4,0.8,0.2,1c-0.5,0.7-1.2,1.2-1.8,1.8C231.9,148.6,231.7,148.6,231.4,148.6z"/>
	<path class="st1" d="M233.4,164.3c0,0.5-0.4,0.9-0.9,0.9c-0.5,0-1-0.4-1-0.9c0-0.5,0.4-0.9,0.9-0.9
		C233,163.5,233.4,163.8,233.4,164.3z"/>
</g>
<g>
	<path class="st1" d="M5,327.8c-1.2,0-2.2,0-3.3,0c0-0.5,0-0.9,0-1.3c0-18.1,0-36.2,0-54.3c0-0.5-0.1-1.1-0.3-1.6
		c-5-14.6-10-29.2-15.1-43.8c-0.9-2.6-1.7-5.1-1.7-7.9c0-8.7,5.9-16.1,14.3-18.1c8.5-2,17.2,2.2,21,10c0.1,0.2,0.2,0.5,0.4,0.7
		c9.8-12.8,26.3-13.9,37.5-7c10.9,6.8,18,23.1,9,38.5c2.8,0,5.5,0.1,8.2,0c6.7-0.2,11.8,2.6,15.6,8.2c8.4,12.4,16.9,24.7,25.3,37.1
		c2.7,3.9,3.4,7.8,1.1,12c-2,3.8-6.3,5.8-10.6,5.3c-3.8-0.4-7.6-0.7-11.4-1c-3.6-0.3-7.1-0.6-10.9-0.9c0,7.9,0,15.9,0,23.9
		c-1.2,0-2.2,0-3.4,0c0-8,0-16,0-24.2c-1.4-0.1-2.6-0.3-3.9-0.4c-5.3-0.4-10.5-0.9-15.8-1.3c-2.7-0.2-5.3-0.7-7.5-2.5
		c-3.4-2.9-4.8-7.6-3.2-11.8c1.6-4.4,5.6-7.1,10.1-6.9c4,0.2,8,0.6,12.1,1c2.7,0.2,5.4,0.5,8.1,0.7c0-0.4,0-0.7,0-1
		c0-2.4,0-4.8,0-7.2c0-0.9,0.2-1.8,1.2-2.1c1-0.3,1.7,0.2,2.2,1c2.3,3.4,4.6,6.9,7,10.3c0.5,0.8,0.9,1.5,0.3,2.4
		c-0.5,0.8-1.4,0.8-2.2,0.7c-4.6-0.4-9.2-0.8-13.8-1.2c-4.5-0.4-9-0.7-13.5-1.2c-4.4-0.5-7.8,1.7-8.7,5.8c-0.9,4,2.3,8.2,6.4,8.5
		c6.2,0.5,12.3,1.1,18.5,1.6c5.3,0.5,10.7,0.9,16,1.3c4.4,0.4,8.7,0.8,13.1,1.1c2.9,0.2,5.2-0.9,6.8-3.3c1.7-2.7,1.6-5.4-0.2-8.1
		c-1.7-2.5-3.5-5.1-5.2-7.6c-7.1-10.4-14.2-20.7-21.3-31.1c-2.8-4.1-6.6-6-11.5-6c-3.5,0-7,0-10.6,0c-0.5,0-1.1,0.3-1.4,0.6
		c-4.2,4.5-9.2,7.6-15.3,8.7c-8.9,1.7-16.9-0.3-23.8-6.2c-5.1-4.3-8.2-9.9-9.4-16.5c-1-5.9-0.3-11.7,2.5-17.1
		c0.3-0.7,0.3-1.2,0.1-1.9c-2.1-5.3-5.8-8.8-11.4-10.1c-8.4-1.9-17,4.1-18.2,12.5c-0.4,3,0,5.8,1.1,8.6c2,5.6,3.9,11.2,5.9,16.9
		c3.2,9.3,6.4,18.6,9.6,27.9c0.2,0.6,0.3,1.2,0.3,1.8c0,18.3,0,36.6,0,54.9C5,327,5,327.3,5,327.8z M18.2,228.3
		c0,13.7,11,24.7,24.7,24.7c13.4,0,24.9-11.1,24.6-25.1c-0.2-13.5-11.4-24.2-24.6-24.2C29.3,203.6,18.2,214.6,18.2,228.3z
		 M86.7,282.9c-0.9-1.3-1.7-2.5-2.5-3.7c0,1.3,0,2.3,0,3.5C85,282.8,85.7,282.8,86.7,282.9z"/>
	<path class="st1" d="M126,292.9c-0.5-2.1-0.9-4.3-1.4-6.4c-0.3-1.3-0.1-2.2,0.8-2.5c1.1-0.4,1.9,0.1,2.4,1.5
		c4.7,13.2-3.6,27.6-17.4,30.2c-0.9,0.2-1.8,0.2-2.8,0.3c-1.2,0.1-2-0.4-2.1-1.5c-0.1-1,0.6-1.7,1.8-1.9c1.6-0.2,3.1-0.4,4.6-0.9
		c8.2-2.5,13.8-10.1,13.8-18.7C125.8,292.9,125.9,292.9,126,292.9z"/>
	<path class="st1" d="M-25.1,211.6c0.4-8.3,5.4-16.5,14.2-20.1c5.1-2.1,10.4-2.3,15.7-0.6c1.1,0.3,1.7,1.1,1.6,2
		c-0.2,1.1-1.1,1.5-2.4,1.3c-2.2-0.4-4.4-1-6.6-1c-8.9-0.1-17.1,6.8-18.7,15.5c-0.2,1.1-0.3,2.2-0.4,3.4c-0.1,1.3-0.7,2-1.7,2
		c-1,0-1.6-0.7-1.6-2C-25.1,211.9-25.1,211.7-25.1,211.6z"/>
	<path class="st1" d="M42.7,305.9c-0.2-0.1-0.7-0.4-1-0.8c-8.4-13.6-1.1-30.4,13.3-34.3c1.3-0.3,2.2,0.1,2.4,1
		c0.3,1.1-0.2,1.8-1.5,2.2c-7.9,2.5-12.7,7.8-14.2,15.9c-0.8,4.6,0.1,8.9,2.4,12.9c0.1,0.2,0.3,0.5,0.4,0.7
		C45.1,304.7,44.4,305.9,42.7,305.9z"/>
	<path class="st1" d="M29.2,289.1c0.3-8.4,3.2-14.5,9.2-19.2c0.7-0.6,1.5-0.9,2.3-0.3c0.7,0.5,0.9,1.2,0.5,2
		c-0.2,0.4-0.5,0.6-0.8,0.9c-5.1,4-7.7,9.3-7.8,15.8c0,1.8,0.4,3.6,0.8,5.4c0.3,1.3,0,2.2-1,2.4c-1,0.3-1.9-0.2-2.2-1.5
		C29.8,292.6,29.4,290.4,29.2,289.1z"/>
	<path class="st1" d="M-6.5,182.7c0,0.9-0.6,1.6-1.6,1.6c-3.5,0.3-6.8,1.3-9.7,3.2c-3.8,2.5-6.5,6-7.9,10.4
		c-0.5,1.6-1.3,2.2-2.3,1.9c-1.1-0.3-1.4-1.3-0.9-2.9c2.9-9,10.9-15.2,20.2-15.9C-7.3,181-6.4,181.6-6.5,182.7z"/>
	<path class="st1" d="M136.9,299.4c-0.4,9-4.4,15.8-12.5,20.3c-0.3,0.2-0.6,0.3-0.9,0.4c-1,0.4-1.8,0.1-2.3-0.8
		c-0.4-0.9,0-1.7,0.9-2.3c1.5-0.9,3.1-1.7,4.4-2.9c5.1-4.4,7.4-10.1,6.9-16.8c-0.1-1.1,0.4-1.8,1.4-1.9c0.9-0.1,1.7,0.4,1.9,1.5
		C136.8,297.7,136.8,298.5,136.9,299.4z"/>
	<path class="st1" d="M26.2,319.5c-0.9,0-1.6-0.7-1.6-1.7c0-1,0.8-1.7,1.7-1.7c0.9,0,1.6,0.8,1.6,1.7
		C27.9,318.9,27.2,319.6,26.2,319.5z"/>
	<path class="st1" d="M18.1,315.4c-0.9,0-1.7-0.7-1.7-1.6c0-1,0.7-1.7,1.6-1.7c0.9,0,1.6,0.7,1.7,1.6
		C19.7,314.6,19.1,315.4,18.1,315.4z"/>
	<path class="st1" d="M62.9,317.6c1,0,1.7,0.8,1.7,1.7c0,0.9-0.8,1.6-1.7,1.6c-0.9,0-1.6-0.8-1.7-1.7
		C61.2,318.4,61.9,317.6,62.9,317.6z"/>
	<path class="st1" d="M19.3,320.7c0,0.9-0.7,1.6-1.7,1.6c-1,0-1.7-0.8-1.6-1.7c0.1-0.9,0.8-1.6,1.7-1.6
		C18.7,318.9,19.3,319.7,19.3,320.7z"/>
	<path class="st1" d="M1.7,213.1c0,0.9-0.7,1.6-1.6,1.7c-0.9,0-1.7-0.7-1.7-1.7c0-1,0.7-1.6,1.6-1.7C0.9,211.4,1.7,212.1,1.7,213.1z
		"/>
	<path class="st1" d="M9.9,217.3c0,0.9-0.8,1.7-1.7,1.7c-0.9,0-1.7-0.8-1.7-1.6c0-0.9,0.7-1.6,1.6-1.7
		C9.1,215.6,9.8,216.3,9.9,217.3z"/>
	<path class="st1" d="M1.2,220c0,0.9-0.8,1.7-1.6,1.7c-0.9,0-1.7-0.8-1.7-1.7c0-1,0.7-1.7,1.7-1.6C0.5,218.3,1.2,219.1,1.2,220z"/>
	<path class="st1" d="M14.1,252c0,0.9-0.7,1.6-1.6,1.6c-0.9,0-1.7-0.8-1.7-1.7c0-0.9,0.8-1.6,1.7-1.6C13.4,250.2,14.2,251,14.1,252z
		"/>
	<path class="st1" d="M3.8,256.2c-0.9,0-1.7-0.8-1.6-1.8c0-0.9,0.8-1.6,1.7-1.6c0.9,0,1.7,0.9,1.6,1.8
		C5.5,255.5,4.7,256.3,3.8,256.2z"/>
	<path class="st1" d="M6,247.6c0,0.9-0.7,1.6-1.6,1.7c-1,0-1.7-0.6-1.7-1.6c0-1,0.7-1.7,1.7-1.7C5.2,246,6,246.8,6,247.6z"/>
	<path class="st1" d="M57.6,319.5c0,1-0.7,1.7-1.7,1.7c-0.9,0-1.6-0.7-1.7-1.6c0-0.9,0.8-1.7,1.7-1.7
		C57,317.9,57.6,318.6,57.6,319.5z"/>
	<path class="st1" d="M26.7,283.5c-0.9,0-1.6-0.7-1.7-1.6c0-1,0.6-1.7,1.6-1.7c0.9,0,1.6,0.7,1.7,1.6
		C28.4,282.7,27.6,283.4,26.7,283.5z"/>
	<path class="st1" d="M18.4,279.2c-0.9,0-1.6-0.8-1.6-1.7c0-0.9,0.8-1.7,1.7-1.7c1,0,1.6,0.8,1.6,1.8
		C20.1,278.6,19.4,279.3,18.4,279.2z"/>
	<path class="st1" d="M71.3,256.2c0.9,0,1.7,0.7,1.7,1.6c0,0.9-0.7,1.7-1.6,1.8c-0.9,0-1.7-0.8-1.7-1.7
		C69.7,256.9,70.4,256.2,71.3,256.2z"/>
	<path class="st1" d="M57.8,311c0-1,0.6-1.6,1.6-1.6c1,0,1.7,0.7,1.7,1.7c0,0.9-0.8,1.7-1.7,1.7C58.5,312.7,57.8,312,57.8,311z"/>
	<path class="st1" d="M19.7,284.5c0,0.9-0.7,1.6-1.6,1.6c-0.9,0-1.7-0.8-1.7-1.7c0-0.9,0.7-1.6,1.7-1.6
		C19,282.8,19.7,283.5,19.7,284.5z"/>
	<path class="st1" d="M72.5,264.7c0,1-0.7,1.7-1.6,1.8c-0.9,0-1.6-0.7-1.7-1.6c0-1,0.6-1.7,1.6-1.7
		C71.8,263.1,72.5,263.8,72.5,264.7z"/>
	<path class="st1" d="M79.5,263.8c-0.9,0-1.7-0.8-1.7-1.7c0-0.9,0.7-1.6,1.7-1.6c1,0,1.7,0.7,1.7,1.7
		C81.1,263,80.4,263.8,79.5,263.8z"/>
</g>
<g>
	<path class="st1" d="M272.1,314.4c-0.2,0.9-0.4,1.8-0.7,2.7c-3.1,9.7-14.4,13.8-23,8.4c-0.7-0.5-1.2-0.4-1.9,0
		c-5.9,3.2-11.7,6.4-17.6,9.7c-0.7,0.4-1.4,1-2,1.6c-0.8,0.7-1,1.7-0.7,2.7c0.4,1,1.2,1.5,2.3,1.6c2.5,0.3,4.8-0.2,7.2-0.9
		c0.4-0.1,0.7-0.2,1.1-0.3c1.9-0.6,3.5-1.5,4.9-3.2c4.4-5.3,12-6.7,18.3-3.7c6.1,2.9,9.7,9.8,8.5,16.5c-1.2,6.9-6.7,12.1-13.6,12.9
		c-7.6,0.8-14.5-3.8-16.6-11.1c-0.1-0.3-0.2-0.5-0.3-0.8c-2.7,0.1-5.4,0.4-7.9,1.7c-1.9,1-2.9,2.4-2.9,4.8c0.1,4.1,0,8.2,0,12.3
		c0,3.2,1.8,5.1,5,5.3c5,0.3,8.8,3.1,10.2,7.5c0.6,2-0.3,3.1-2.3,2.7c-4.8-0.9-9.6-1.7-14.6-1.2c-1.5,0.1-2.9,0.7-4.3,1.1
		c-0.5,0.1-1.2,0.3-1.6,0.1c-2.1-1.2-4.5-1.4-6.8-1.3c-4.2,0.3-8.3,0.9-12.5,1.4c-1.7,0.2-2.7-0.7-2.2-2.4c1.1-4.2,4.9-7.4,9.3-7.8
		c0.2,0,0.3,0,0.5,0c4-0.3,5.6-2,5.6-6c0-4,0-7.9,0-11.9c0-1.7-0.7-3-2-3.9c-1.8-1.3-4-1.8-6.2-2.1c-0.8-0.1-1.6-0.1-2.6-0.2
		c-0.1,0.4-0.2,0.7-0.3,1c-2.1,6.7-8.6,11.4-15.4,11c-7.6-0.4-13.5-5.7-14.8-12.9c-1.2-7.1,2.7-14.1,9.4-16.9
		c6.5-2.7,14.2-0.5,18.4,5.2c0.3,0.5,0.9,0.9,1.4,1.1c2.8,1.2,5.6,2.1,8.7,2.3c0.7,0,1.4,0,2.1-0.1c1-0.1,1.8-0.6,2.2-1.6
		c0.4-1,0.2-2-0.6-2.6c-1.1-1-2.3-1.9-3.6-2.6c-5.5-3-11-6-16.5-9c-0.6-0.3-0.9,0-1.4,0.2c-7.2,4.6-16.6,2.6-21.3-4.5
		c-6.4-9.6-0.3-22.7,11.1-24c10.2-1.2,18.6,7.5,17.3,17.6c0,0.4,0.1,0.9,0.3,1.1c3.2,2,6.5,4,9.8,5.9c0.9,0.5,1.9,0.7,2.9,1
		c1,0.3,1.6-0.1,1.7-1.1c0.2-1.8,0.3-3.5,0.2-5.3c0-1.5-0.3-3-0.6-4.5c-0.1-0.5-0.5-1-0.9-1.2c-5.5-3.2-8.4-7.9-8.1-14.3
		c0.2-6.2,3.3-10.7,8.8-13.4c9.5-4.7,21.1,1.8,22,12.3c0.6,6.9-2.2,12-8.2,15.4c-0.3,0.2-0.6,0.5-0.7,0.9c-0.6,3-0.9,6-0.6,9.1
		c0.2,2.2,0.7,2.5,2.8,1.8c3.6-1.2,6.8-3.4,10-5.4c1.6-1,2.3-1.9,2.1-4c-0.4-8.2,5.6-15.2,13.5-16c8.4-0.9,15.7,4.5,17.2,12.9
		c0,0.2,0.1,0.3,0.2,0.5C272.1,311.6,272.1,313,272.1,314.4z M242.4,318.8c-1.2,0.8-2.3,1.5-3.4,2.2c-3.2,2-6.3,4-10,4.8
		c-3,0.7-5.1-0.4-5.7-3.5c-0.4-1.8-0.4-3.7-0.5-5.5c0-1.6,0.2-3.2,0.3-4.7c-1.9,0-3.7,0-5.5,0c0.1,1.4,0.3,2.8,0.4,4.2
		c0.2,2.3,0.1,4.6-0.7,6.8c-0.8,2.2-2.2,3.1-4.5,2.8c-1-0.1-2.1-0.3-3-0.8c-3-1.5-6-3.2-9-4.9c-0.9-0.5-1.6-1.1-2.4-1.6
		c-0.8,1.2-1.5,2.4-2.3,3.6c4.1,2.2,8.2,4.2,12.1,6.5c2.7,1.6,5.4,3.2,7.9,5.2c2.1,1.6,2.7,4,1.7,6.6c-1,2.5-3,3.7-5.7,3.9
		c-3,0.2-5.8-0.4-8.7-1.3c-0.2-0.1-0.5-0.1-0.7-0.2c0.2,1.3,0.3,2.5,0.5,3.8c1.1,0.1,2.2,0.2,3.3,0.4c2.8,0.4,5.5,1.2,7.8,3.2
		c1.5,1.4,2.6,3,2.7,5.1c0,4.8,0.1,9.6,0,14.4c-0.1,4.4-3.7,7.8-8.1,7.9c-0.7,0-1.4,0-2,0.2c-1.6,0.4-2.9,1.1-3.9,2.6
		c2.1-0.2,3.9-0.5,5.8-0.7c3.8-0.3,7.7-0.5,11.4,0.9c0.2,0.1,0.5,0.1,0.8,0c2.8-1.1,5.7-1.2,8.6-1.1c2.8,0.1,5.6,0.4,8.5,0.7
		c-1.4-1.8-3.3-2.6-5.6-2.7c-5-0.1-8.4-3.6-8.4-8.6c0-4.3,0-8.5,0-12.8c0-2.7,1-4.9,3.2-6.3c1.6-1.1,3.4-1.8,5.3-2.4
		c1.7-0.5,3.5-0.6,5.3-0.9c0.1-1.2,0.3-2.4,0.5-3.7c-0.5,0.2-0.9,0.3-1.3,0.4c-2.7,0.8-5.4,1.3-8.3,1.1c-2.6-0.2-4.5-1.4-5.5-3.8
		c-1-2.4-0.4-4.7,1.5-6.5c0.8-0.8,1.7-1.6,2.7-2.1c5.4-3.1,10.9-6.1,16.4-9.1c0.3-0.2,0.7-0.4,1-0.6
		C243.9,321.2,243.2,320.1,242.4,318.8z M194.7,318.1c2.4-3.6,2.3-10.3-2.4-14.6c-4.5-4.1-11.6-4.2-16.2-0.1c-4.7,4.2-5,11-2.4,14.8
		c0.7-0.8,1.3-1.6,2-2.3c0.7-0.7,1.6-1.3,2.3-1.9c-1.3-4-0.7-6.7,1.9-8.7c2.3-1.8,5.5-1.9,8-0.4c1.2,0.8,2.1,1.8,2.6,3.2
		c0.8,2,0.6,4-0.2,5.7C191.9,315.3,193.3,316.7,194.7,318.1z M230.9,302.6c2.9-4.7,1.6-11.6-3.1-15.2c-4.8-3.8-11.8-3.3-16.1,1.1
		c-4.5,4.6-4,11.3-1.9,14.1c1.4-1.4,2.9-2.8,4.4-4.3c-1.3-3.3-0.8-6.3,1.7-8.4c2.3-1.9,5.6-2.1,8.1-0.5c1.3,0.8,2.2,1.9,2.7,3.4
		c0.8,2,0.5,3.9-0.3,5.5C228.1,299.8,229.5,301.2,230.9,302.6z M198.1,352.7c3-4.9,1.6-11.8-3.1-15.4c-4.9-3.8-11.9-3.2-16.1,1.2
		c-4.3,4.5-3.9,11-1.7,14c1.4-1.4,2.9-2.8,4.4-4.3c-1.3-3.3-0.8-6.3,1.7-8.4c2.3-1.9,5.5-2.2,8-0.6c1.3,0.8,2.2,1.8,2.8,3.2
		c0.9,2,0.6,4.1-0.3,5.9c0.8,0.7,1.7,1.3,2.4,2C196.8,351,197.4,351.9,198.1,352.7z M250.4,313.8c-1.3-3.6-0.7-6.5,2-8.6
		c2.4-1.8,5.7-1.9,8.1-0.2c2.8,2,3.5,4.8,2.2,8.9c0.8,0.6,1.6,1.2,2.4,2c0.7,0.7,1.3,1.5,2,2.3c2.9-4.5,1.8-11.3-2.6-15
		c-4.6-4-11.5-3.9-16,0.2c-4.8,4.4-4.7,11.2-2.4,14.6C247.5,316.7,248.9,315.2,250.4,313.8z M263.7,352.5c2.9-4.7,1.6-11.5-3-15.1
		c-4.8-3.8-11.7-3.5-16.1,0.9c-4.4,4.4-4.2,11-2,14.2c1.4-1.4,2.9-2.8,4.4-4.3c-1.3-3.5-0.7-6.4,1.8-8.5c2.3-1.9,5.6-2,8.1-0.4
		c1.2,0.8,2.1,1.9,2.6,3.3c0.7,2,0.5,3.9-0.3,5.5C260.8,349.7,262.2,351.1,263.7,352.5z M192.2,321.3c-0.8-2-2.1-3.5-3.9-4.4
		c-0.3-0.2-0.8-0.2-1.1,0c-2,0.9-4,0.9-5.9,0c-0.3-0.1-0.7-0.2-0.9,0c-1.9,1-3.3,2.5-4.1,4.5C180.4,325.4,187.7,325.5,192.2,321.3z
		 M256.5,324.4c2.7,0,5.2-0.9,7.4-2.5c0.5-0.4,0.7-0.7,0.3-1.4c-0.8-1.5-2-2.8-3.5-3.6c-0.3-0.2-0.9-0.2-1.3,0
		c-1.9,0.8-3.8,0.8-5.8,0c-0.4-0.2-0.9-0.2-1.3,0c-1.6,0.8-2.7,2.1-3.5,3.6c-0.3,0.6-0.2,1,0.3,1.4
		C251.4,323.5,253.8,324.4,256.5,324.4z M187.7,358.9c2.8-0.1,5.2-0.9,7.4-2.6c0.5-0.4,0.6-0.7,0.3-1.3c-0.8-1.5-1.9-2.7-3.4-3.6
		c-0.5-0.3-0.9-0.4-1.5-0.1c-1.6,0.8-3.3,1-4.9,0.3c-1.6-0.8-2.6-0.2-3.6,0.8c-0.8,0.8-1.4,1.7-2.1,2.6c-0.3,0.5-0.2,0.8,0.2,1.2
		C182.4,358,184.9,358.8,187.7,358.9z M261.1,355.7c-0.8-1.9-2-3.4-3.8-4.3c-0.3-0.2-0.9-0.2-1.3-0.1c-2,0.8-3.9,0.8-5.9,0
		c-0.3-0.1-0.8-0.2-1.1,0c-1.7,0.8-2.9,2.1-3.7,3.8c-0.1,0.3,0,0.8,0.2,1C249.7,359.9,257.1,359.7,261.1,355.7z M212.4,305.8
		c4.3,4.2,12.1,4.1,16,0c-0.8-2-2.1-3.5-4-4.4c-0.3-0.1-0.7-0.1-1,0c-2,0.9-4,0.9-5.9,0c-0.3-0.1-0.7-0.2-0.9,0
		C214.5,302.3,213.2,303.8,212.4,305.8z M260,310.7c0-1.9-1.5-3.5-3.4-3.5c-1.9,0-3.4,1.6-3.4,3.5c0,1.9,1.5,3.4,3.4,3.4
		C258.4,314.1,260,312.6,260,310.7z M187.7,310.7c0-1.9-1.6-3.5-3.5-3.5c-1.9,0-3.5,1.6-3.4,3.5c0,1.8,1.6,3.4,3.4,3.4
		C186.1,314.1,187.7,312.5,187.7,310.7z M220.4,298.6c1.9,0,3.5-1.5,3.5-3.4c0-1.9-1.5-3.4-3.5-3.4c-1.9,0-3.4,1.5-3.4,3.4
		C216.9,297,218.4,298.6,220.4,298.6z M184.2,345.1c0,1.9,1.5,3.5,3.4,3.5c1.9,0,3.4-1.5,3.4-3.5c0-1.9-1.5-3.4-3.4-3.4
		C185.8,341.6,184.3,343.2,184.2,345.1z M249.7,345.1c0,1.9,1.5,3.5,3.4,3.5c1.9,0,3.4-1.5,3.4-3.5c0-1.9-1.5-3.4-3.4-3.4
		C251.3,341.6,249.7,343.1,249.7,345.1z"/>
</g>
</svg>
