<?xml version="1.0" encoding="utf-8"?>
<!-- Generator: Adobe Illustrator 24.3.0, SVG Export Plug-In . SVG Version: 6.00 Build 0)  -->
<svg version="1.1" id="Layer_1" xmlns="http://www.w3.org/2000/svg" xmlns:xlink="http://www.w3.org/1999/xlink" x="0px" y="0px"
	 viewBox="0 0 150 150" style="enable-background:new 0 0 150 150;" xml:space="preserve">
<style type="text/css">
	.st0{fill:#5F6368;}
	.st1{fill:#005BAB;}
</style>
<path class="st0" d="M2053.7-657.2c-2.1,0-3.6,0-5.1,0C2049.8-661.3,2051.5-660.2,2053.7-657.2z"/>
<g>
	<path class="st1" d="M149,79.7c-0.5,2-0.8,3.9-1.4,5.8c-6,18.1-27.5,24.7-42.7,13.1c-0.3-0.2-0.6-0.4-1-0.7c-1.4,1.1-2.7,2-3.6,3.8
		c-5.8,11.5-13.3,21.8-22.7,30.8c-5.6,5.3-11.6,10-18.2,13.9c-1.3,0.8-2.4,0.7-3.6-0.1c-16.6-10.1-29.4-23.8-38.9-40.7
		C9.2,91.8,4.4,77,2.1,61.4c-0.4-3-0.7-6.1-1.1-9.2c-0.2-1.5,0.4-2.6,1.8-3.3c11.9-6.4,24.5-10.4,37.8-12.3c9.3-1.3,18.6-1.5,28-0.7
		c0.2,0,0.4,0,0.7,0c0-0.5,0.1-1,0.1-1.5c0-3.8-0.1-7.6,0.1-11.4c0.6-8.6,4.9-14.8,12.7-18.1C90,1.6,97.5,2.8,104,8.3
		c5.1,4.2,7.4,9.9,7.4,16.4c0,8.3,0,16.6,0,24.9c0,0.5,0,1.1,0,1.7c2-0.5,3.8-1,5.7-1.3c15.1-2.5,29.4,8,31.6,23.1
		c0.1,0.4,0.2,0.8,0.3,1.2C149,76.1,149,77.9,149,79.7z M69.3,41.4c-0.4,0-0.6-0.1-0.9-0.1c-9.5-0.9-18.9-0.6-28.4,0.8
		c-11.5,1.8-22.5,5.2-32.8,10.6c-0.4,0.2-0.7,0.9-0.7,1.3c0.6,4.2,1,8.5,1.8,12.7c3,15.4,8.5,29.8,17.1,43c8.2,12.6,18.5,23,31.3,31
		c0.4,0.2,1.1,0.3,1.5,0c1.7-1,3.4-2.1,5.1-3.3c10.8-7.8,19.6-17.5,26.8-28.7c1.2-1.9,2.3-3.9,3.5-5.9c-2,0-4,0.4-5.6-0.1
		c-2.5-0.8-3.4,0.4-4.5,2.2c-6.3,9.9-14,18.6-23.5,25.6c-2,1.5-2.8,1.5-4.9,0c-1.3-1-2.7-2-4-3.1c-10.4-8.7-18.5-19.2-24.7-31.1
		c-5.9-11.4-9.7-23.4-11.6-36.1c-0.3-2.2,0.1-3.1,2-3.8c16-6.6,32.7-9.2,50-7.7c0.8,0.1,1.6,0.1,2.5,0.1
		C69.3,46.3,69.3,43.9,69.3,41.4z M105.9,49.3c0.1-0.2,0.1-0.4,0.1-0.5c0-8.7,0.2-17.3-0.1-26c-0.3-8.8-9.3-15.7-18-14.1
		c-7.8,1.4-13.1,7.7-13.2,15.6c0,8,0,16,0,24c0,0.3,0.1,0.6,0.1,1C85.2,49.3,95.5,49.3,105.9,49.3z M74.7,54.9c0,0.6,0,1,0,1.5
		c0,8.3,0,16.7,0,25c0,5.6,2.2,10,6.6,13.4c5.3,4.1,13.9,3.8,18.5-0.6c-9.1-14.5-7.7-27.6,4.9-39.3C94.8,54.9,84.9,54.9,74.7,54.9z
		 M20.4,60.7c1.1,6.5,2.7,12.8,4.8,18.9c0.3,1,0.8,1.3,1.8,1.3c8.8,0,17.6,0,26.4,0c0.5,0,0.9-0.1,1.3-0.1c0-9.1,0-18.1,0-27.1
		C42.9,54.1,31.5,56.2,20.4,60.7z M108.1,94.3c8.6,7.4,22.2,6,30.1-2.9c8-9.1,6.1-22,0.4-28.1C128.5,73.7,118.3,84,108.1,94.3z
		 M104.4,90.6c10.2-10.3,20.3-20.6,30.5-31c-7.9-7.1-21.7-6.1-29.4,2.1C96.8,70.9,98.5,84.1,104.4,90.6z M27.9,86.4
		c6.2,14.4,14.8,26.8,27,37c0-12.5,0-24.7,0-37C45.8,86.4,36.9,86.4,27.9,86.4z M60.3,123.2c5.8-4,16.7-16.8,19.7-23
		c-0.1-0.1-0.1-0.2-0.2-0.2c-5-3-8.4-7.3-9.9-13c-0.1-0.3-0.6-0.7-0.9-0.7c-2.9-0.1-5.8,0-8.8,0C60.3,98.7,60.3,110.9,60.3,123.2z
		 M60.4,53.6c0,9.3,0,18.2,0,27.2c3,0,6,0,8.9,0c0-8.9,0-17.7,0-26.6C66.3,54,63.4,53.8,60.4,53.6z"/>
</g>
</svg>
