<?xml version="1.0" encoding="utf-8"?>
<!-- Generator: Adobe Illustrator 24.3.0, SVG Export Plug-In . SVG Version: 6.00 Build 0)  -->
<svg version="1.1" id="Layer_1" xmlns="http://www.w3.org/2000/svg" xmlns:xlink="http://www.w3.org/1999/xlink" x="0px" y="0px"
	 viewBox="0 0 150 150" style="enable-background:new 0 0 150 150;" xml:space="preserve">
<style type="text/css">
	.st0{fill:#5F6368;}
	.st1{fill:#005BAB;}
</style>
<path class="st0" d="M2053.7-657.2c-2.1,0-3.6,0-5.1,0C2049.8-661.3,2051.5-660.2,2053.7-657.2z"/>
<g>
	<path class="st1" d="M62.5,0.2c3,0.7,5.9,1.7,8.5,3.6c6.4,4.9,8.7,13.3,5.7,20.8c-3,7.4-10.8,11.9-18.8,10.9c-7.7-1-14-7.3-15.2-15
		c-1.4-9.4,5.1-18.3,14.4-20c0.3-0.1,0.6-0.2,1-0.3C59.5,0.2,61,0.2,62.5,0.2z M74.3,17.9c0-7.8-6.3-14-14-14
		c-7.8,0-14.1,6.3-14.1,14.1c0,7.7,6.5,14.1,14.2,14C68,32,74.3,25.6,74.3,17.9z"/>
	<path class="st1" d="M102.9,53.3c2.6,2.4,4.9,4.5,7.3,6.7c1.7-1.2,3.7-2.5,5.7-3.9c-0.2-0.4-0.3-0.7-0.5-1.1
		c-0.4-0.9-0.1-1.8,0.7-2.3c0.9-0.5,1.8-0.4,2.3,0.5c1.1,1.6,2,3.2,3,4.8c0.5,0.9,0.3,1.9-0.6,2.2c-0.6,0.3-1.5,0-2.3-0.2
		c-0.3-0.1-0.4-0.5-0.7-0.9c-2,1.3-3.9,2.6-5.8,3.9c3.6,10.1,3.9,12.8,2.4,19.9c1.6,0.6,3.3,1.2,5.1,1.8c0.2-0.4,0.3-0.9,0.6-1
		c0.7-0.3,1.5-0.8,2.2-0.6c0.9,0.2,1.3,1.1,1.1,2.1c-0.4,1.6-0.9,3.2-1.4,4.7c-0.4,1.1-1.1,1.6-2.3,1.3c-1.1-0.3-1.4-1.1-1.2-2.2
		c0-0.2,0.1-0.5,0.1-0.8c-1.7-0.6-3.4-1.2-5.1-1.8c-1.4,2.3-2.7,4.5-4.1,6.9c0.4,0,0.6,0,0.9-0.1c0.9-0.3,1.8-0.2,2.3,0.6
		c0.6,0.9,0.3,1.8-0.4,2.5c-0.7,0.8-1.4,1.6-2.2,2.4c-0.7,0.8-1.5,1.1-2.5,0.5c-0.9-0.6-1-1.5-0.6-2.4c0.1-0.2,0.1-0.5,0.1-0.9
		c-4.6,3.8-9.8,6.2-15.8,6.7c0,2.6,0,5.1,0,7.8c0.5,0.1,1.2,0,1.6,0.2c0.6,0.4,1.3,1,1.4,1.7c0.2,1-0.5,1.7-1.5,1.8
		c-2.3,0.1-4.6,0.1-6.9,0c-1,0-1.6-0.7-1.6-1.8c0-1,0.5-1.6,1.6-1.8c0.5-0.1,1-0.1,1.5-0.1c0-2.6,0-5.1,0-7.6
		c-2.8-0.7-5.7-1.4-8.1-2c-0.8,0.6-1.8,1.9-2.3,1.7c-1.4-0.4-2.7-1.3-3.7-2.3c-0.4-0.4,0.2-1.7,0.3-2.3c-1.6-1.7-3.4-3.5-5.2-5.4
		c-1.9,1.3-4.1,2.7-6.3,4.2c0.2,0.5,0.4,0.8,0.5,1.2c0.4,1,0.1,1.9-0.8,2.3c-0.9,0.5-1.8,0.2-2.4-0.7c-0.8-1.3-1.5-2.7-2.2-4.1
		c-0.8-1.5-0.7-2.5,0.3-3.1c1.3-0.7,2.1-0.1,2.9,1.1c2.1-1.4,4.2-2.8,6.3-4.3c-3.9-7.5-4.4-15.2-1.4-23.2c-1.1-0.6-2.1-1.1-3.2-1.7
		c-0.3,0.3-0.5,0.8-0.8,0.9c-0.7,0.2-1.7,0.5-2.1,0.2c-0.5-0.4-1-1.5-0.8-2c0.6-1.7,1.5-3.3,2.5-4.8c0.3-0.5,1.5-0.8,2-0.5
		c0.6,0.3,0.8,1.2,1.1,1.9c0.1,0.2-0.2,0.6-0.3,1.1c1,0.5,2,1,3.1,1.6c4.1-6.1,9.3-10.5,16.6-12.4c-0.5-2.9-0.9-5.8-1.4-8.7
		c-0.9,0.2-1.7,0.3-2.5,0.4c-1.1,0.1-1.8-0.4-2-1.5c-0.2-1.1,0.3-1.9,1.4-2.1c2.9-0.6,5.7-1.1,8.6-1.5c1.1-0.2,1.8,0.4,2,1.4
		c0.2,1.1-0.3,1.9-1.5,2.1c-0.7,0.2-1.5,0.3-2.4,0.5c0.5,2.9,0.9,5.8,1.4,8.8c4.3-0.3,8.5,0.3,12.9,2.2c0-0.9-0.1-1.5-0.1-2.1
		c0-0.7-0.1-1.6,0.3-2.1c0.3-0.4,1.4-0.6,1.9-0.4c1.1,0.4,2.2,0.9,3.1,1.6c0.5,0.4,0.9,1.3,0.7,1.8c-0.1,0.5-0.9,1-1.4,1.4
		C103.9,52.8,103.4,53.1,102.9,53.3z M111.6,76.4c0-12.3-10.2-22.8-22.2-22.9C78,53.5,66.9,64.9,67,76.5
		C67,89.1,77.1,99.3,89.4,99.2C101.7,99.2,111.7,89,111.6,76.4z"/>
	<path class="st1" d="M60.1,147.4c-1.9,2.1-4.5,2.5-7.2,2.4c-1.6-0.1-3.3,0-4.9-0.3c-3.2-0.6-5.3-3.3-5.5-6.5c0-0.6,0-1.2,0-1.8
		c0-27.6,0-55.3,0-82.9c0-0.6-0.2-1.3,0.1-1.7c0.4-0.6,1-1.4,1.6-1.5c0.9-0.2,1.7,0.5,1.8,1.5c0.1,0.5,0,1.1,0,1.6
		c0,27.7,0,55.5,0,83.2c0,3.6,1.2,4.8,4.8,4.9c1.1,0,2.1,0,3.2,0c2.9-0.1,4.3-1.4,4.3-4.3c0-10.9,0-21.8,0-32.7c0-0.4,0-0.9,0-1.3
		c0.1-1.1,0.7-1.7,1.8-1.7c1.1,0,1.7,0.7,1.8,1.7c0.1,0.5,0,1,0,1.5c0,10.7,0,21.4,0,32.1c0,3.6,1.2,4.8,4.8,4.8c1.2,0,2.3,0,3.5,0
		c2.5-0.1,3.8-1.4,3.9-4c0.1-2.1,0-4.2,0-6.3c0-7.6,0-15.2,0-22.8c0-0.5,0-1,0.1-1.5c0.2-1,0.8-1.6,1.8-1.6c1,0,1.6,0.6,1.8,1.6
		c0.1,0.4,0,0.8,0,1.2c0,9.6,0,19.2,0,28.8c0,5.2-2.9,8.1-8.1,8.1c-1,0-1.9,0-2.9,0C63.7,149.7,62.6,149.4,60.1,147.4z"/>
	<path class="st1" d="M30.3,74.8c0,6.9,0,13.8,0,20.7c0,3.1,1.3,4.4,4.4,4.4c0.9,0,1.9,0,2.8,0c1,0.1,1.6,0.7,1.6,1.7
		c0,1.1-0.6,1.8-1.7,1.8c-1.6,0.1-3.2,0.1-4.8-0.1c-3.7-0.5-6.1-3.6-6.1-7.6c0-13.7,0-27.4,0-41.1c0-1.3,0.1-2.6,0.4-3.9
		c1.7-7.6,8-12.7,16-12.8c9.1-0.1,18.3,0,27.4,0c1.5,0,2.3,0.6,2.3,1.8c0,1.2-0.8,1.9-2.4,1.9c-9.1,0-18.3,0-27.4,0
		c-6.2,0-11.2,4.2-12.4,10.3c-0.2,1-0.2,2.1-0.2,3.2C30.3,61.7,30.3,68.3,30.3,74.8z"/>
	<path class="st1" d="M104.4,68.3c-0.1,4.4-3.7,7.9-8,7.8c-4.4-0.1-7.8-3.8-7.6-8.3c0.1-4.3,3.8-7.8,8-7.6
		C101,60.3,104.5,64,104.4,68.3z M96.6,72.4c2.3,0,4.1-1.9,4.1-4.2c0-2.4-1.9-4.3-4.2-4.3c-2.3,0-4.1,1.9-4.1,4.2
		C92.4,70.5,94.3,72.4,96.6,72.4z"/>
	<path class="st1" d="M92.5,82.8c3.3,0,5.9,2.6,5.9,5.9c0,3.3-2.6,5.9-5.8,5.9c-3.3,0-5.9-2.6-5.9-5.9
		C86.7,85.5,89.2,82.8,92.5,82.8z M94.7,88.7c0-1.2-1-2.3-2.1-2.3c-1.2,0-2.2,1-2.2,2.3c0,1.2,1,2.3,2.2,2.3
		C93.7,91,94.7,90,94.7,88.7z"/>
	<path class="st1" d="M71.4,76.5c0-2.8,2.2-5.2,5-5.2c2.8,0,5.1,2.3,5.1,5.1c0,2.9-2.2,5.2-5,5.2C73.7,81.6,71.4,79.3,71.4,76.5z
		 M78.1,76.8c0-0.2,0-0.4,0-0.6C77.6,75.7,77,75,76.4,75c-0.5,0-1.4,0.9-1.3,1.3c0.1,0.6,0.8,1.4,1.3,1.5
		C76.9,77.9,77.5,77.1,78.1,76.8z"/>
</g>
</svg>
