<?xml version="1.0" encoding="utf-8"?>
<!-- Generator: Adobe Illustrator 24.3.0, SVG Export Plug-In . SVG Version: 6.00 Build 0)  -->
<svg version="1.1" id="Layer_1" xmlns="http://www.w3.org/2000/svg" xmlns:xlink="http://www.w3.org/1999/xlink" x="0px" y="0px"
	 viewBox="0 0 150 150" style="enable-background:new 0 0 150 150;" xml:space="preserve">
<style type="text/css">
	.st0{fill:#5F6368;}
	.st1{fill:#005BAB;}
</style>
<path class="st0" d="M2053.7-657.2c-2.1,0-3.6,0-5.1,0C2049.8-661.3,2051.5-660.2,2053.7-657.2z"/>
<g>
	<path class="st1" d="M65.4,39.6c2.6-0.9,5-2.6,7.5-3.8c1.5-0.7,3-1.5,4.6-1.8c1.1-0.2,2.1-0.1,2.7,1c0.6,1,0.4,2.1-0.3,3
		c-0.9,1.2-2.1,2-3.3,2.7c-9.8,5.6-18.4,12.9-27.5,19.4c-3.1,2.2-5.5,5.1-7.8,8.2c-4.9,6.6-9.9,13.2-14.8,19.7
		c-0.4,0.5-0.7,1.1-1.5,0.9c-0.6-0.2-0.6-0.7-0.7-1.2c1-1.2,1.9-2.4,2.9-3.6c0.8-0.9,0.2-1.3-0.6-1.4c-0.7-0.1-1.7,0-1.4-1.1
		c0.2-1,1.3-1,1.9-0.6c2.1,1.5,2.7-0.3,3.6-1.5c1.3-1.6,2.5-3.3,3.7-5c0.6-0.8,0.5-1.2-0.5-1.3c-0.7,0-1.5-0.1-1.4-1
		c0.1-1,1.2-1.1,1.7-0.8c2.1,1.2,2.9-0.4,3.7-1.7c4.1-6.3,9.7-10.9,15.7-15.3c7.3-5.3,14.4-10.9,22.2-15.4c0.9-0.5,1.7-1.1,2.4-1.9
		c0.3-0.3,0.6-0.7,0.4-1.1c-0.3-0.5-0.7-0.3-1.1-0.2c-1.7,0.4-3.3,1.3-4.8,2.1c-2,1-3.9,2.1-5.9,3.1c-0.6,0.3-1.3,0.6-2.1,0.6
		c-1.5,0.1-2.3-0.9-1.8-2.3c0.3-0.8,0.9-1.5,1.5-2.2c2.1-2.3,4.5-4.1,6.9-6c2.1-1.6,4.1-3.3,5.7-5.4c0.4-0.6,1.1-1.3,0.6-1.9
		c-0.6-0.7-1.3,0-1.9,0.3c-2.8,1.5-5.3,3.6-7.8,5.6c-2,1.5-3.9,3-5.9,4.5c-0.7,0.5-1.4,0.9-2.2,1.2c-0.6,0.3-1.2,0.3-1.7-0.2
		c-0.5-0.5-0.5-1.1-0.3-1.7c0.5-1.3,1.2-2.4,2.1-3.4c2.5-3.1,5-6.2,7.5-9.3c1.1-1.4,2.2-2.9,2.8-4.6c0.2-0.6,0.5-1.3-0.2-1.7
		c-0.6-0.4-1.1,0.2-1.5,0.5c-2.2,1.7-3.9,3.8-5.7,6c-1.9,2.4-3.8,4.8-5.7,7.1c-0.9,1-1.8,2-2.9,2.7c-0.7,0.4-1.4,0.5-2.1,0.1
		c-0.7-0.4-0.8-1.1-0.8-1.9c0-1,0.4-1.8,0.8-2.7c1.4-3.1,3.2-6,4.9-9c0.8-1.3,1.6-2.7,2.1-4.1c0.3-0.8,0.8-1.7-0.1-2.3
		c-1-0.7-1.5,0.4-2,1c-2,2.4-3.5,5.1-5,7.8c-1.9,3.3-3.7,6.7-5.6,10c-0.9,1.5-1.9,3-3.3,4c-2.1,1.6-4.2,1-5.3-1.4
		c-0.6-1.4-0.7-2.8-0.7-4.3c0-2.4-0.5-4.5-2.2-6.3c-0.3-0.3-0.5-0.8-1-0.6c-0.4,0.2-0.3,0.6-0.3,1c-0.5,4.2,0,8.4,0.5,12.5
		c0.4,2.8,0.7,5.6,0.8,8.5c0.1,2.3-0.5,4.3-2.1,6c-0.6,0.7-1.2,1.5-1.8,2.1c-0.9,0.9-1.6,1.6-0.2,2.7c0.3,0.3,0.4,0.9,0.5,1.4
		c0.1,0.6,0,1.2-0.7,1.4c-0.7,0.2-0.9-0.3-1.1-1c-0.5-1.7-1-1.8-2.3-0.6c-2,1.9-3.9,3.8-5.9,5.7c-0.5,0.5-0.8,0.8-0.1,1.4
		c0.7,0.5,0.9,1.4,0.9,2.2c0,0.5-0.2,0.9-0.8,1c-0.6,0.1-0.8-0.3-1-0.7c-0.8-2.1-0.9-2.1-2.5-0.6c-1.8,1.7-3.7,3.4-5.5,5
		c-0.6,0.5-1.1,0.9-0.3,1.7c0.5,0.4,0.6,1.1,0.6,1.7c0.1,0.6-0.1,1.1-0.7,1.2c-0.6,0.2-0.9-0.2-1.1-0.8c-0.7-1.9-0.7-1.9-2.1-0.6
		c-0.5,0.4-1,0.9-1.5,1.3c-0.5,0.4-1,0.7-1.5,0.2c-0.5-0.6-0.2-1.1,0.3-1.6c2.1-1.8,4.1-3.6,6.1-5.5c3-2.8,6.1-5.4,8.9-8.4
		c3.9-3.5,7.7-7.2,10.9-11.4c0.5-0.6,0.9-1.3,0.9-2.1c0.1-2,0.2-3.9-0.3-5.8c-0.3-3.4-0.7-6.8-1-10.2c-0.2-2.4-0.2-4.9,0.1-7.3
		c0.1-1.1,0.4-2.1,1.5-2.6c1.2-0.4,2,0.4,2.7,1.1c2.3,2.1,3,4.8,3,7.7c0,1.4-0.1,2.9,0.9,4.1c0.5,0.9,1.2,0.7,1.8,0.3
		c0.9-0.6,1.8-1.4,2.2-2.5c0,0,0,0,0,0c0.1-0.1,0.2-0.2,0.3-0.3c2.1-3,3.7-6.3,5.5-9.5c1.7-2.9,3.2-5.8,5.2-8.4
		c0.5-0.7,1.2-1.4,1.8-2.1c0.9-0.9,2-1.1,3.1-0.4c1.1,0.6,1.6,1.6,1.5,2.8c-0.1,1.5-0.8,2.8-1.5,4c-1.5,2.7-3,5.3-4.5,7.9
		c-0.9,1.5-1.8,3.1-2.2,5.3c2.2-1.8,3.8-3.8,5.2-5.8c2-2.4,4-4.8,6-7.1c1.1-1.3,2.3-2.5,3.8-3.4c1-0.6,2-1,3-0.3
		c1.1,0.8,1.3,2,1,3.2c-0.4,2-1.7,3.6-2.8,5.3c-1.1,1.4-2.3,2.8-3.4,4.2c-1.9,2.4-4.1,4.6-5.6,7.4c-0.1,0.1-0.1,0.1-0.2,0.2
		c0,0,0.1,0,0.1,0c0-0.1,0-0.2,0-0.2c0.8,0.1,1.2-0.5,1.7-0.9c4.6-3.3,8.8-7.3,13.9-10c1,0,2.1-0.3,3.1,0.3c1,1.3,0.8,2.6,0.1,3.9
		c-1.2,2.1-3,3.7-4.8,5.2c-2.4,2-5,3.8-7.3,6c-0.6,0.6-1.3,1.2-1.7,2c0,0.1-0.1,0.2-0.1,0.3C65.1,39.6,65.3,39.6,65.4,39.6z"/>
	<path class="st1" d="M35.2,114.6c-0.3-5.4,0.3-10.6,2.4-15.6C42.9,86.9,56,79.4,69.1,81.2c13.5,1.8,24.2,12.4,26,25.5
		c0.9,6.2,0,12.2-2.8,17.8c-0.2,0.3-0.3,0.7-0.4,1c-2.5,4-5.4,7.6-9.3,10.3c-18.3,12.8-43.7,2.1-47.2-20
		C35.4,115.4,35.3,115,35.2,114.6z M65.3,82.8c-15.8,0-28.4,12.7-28.3,28.5c0,15.5,12.8,28.2,28.4,28.2c15.7,0,28.3-12.8,28.2-28.6
		C93.5,95.4,80.8,82.7,65.3,82.8z"/>
	<path class="st1" d="M148.6,69.1c0,1.7,0,3.3-0.3,5c-0.1,0.6-0.3,1.2-1,1.1c-0.7-0.1-0.9-0.6-0.8-1.3c0.9-7.9-0.7-15.4-2.6-23
		c-1.2-4.7-4-7.4-8.7-8.5c-0.7-0.2-0.7,0.1-1,0.5c-1.3,2.5-3.8,3.4-6.1,2.3c-2.3-1.1-3.1-3.8-1.7-6.2c0.4-0.7,0.3-1-0.3-1.3
		c-2.4-1.6-4-4-5.7-6.3c-0.4-0.5-0.6-1.1-0.1-1.5c0.6-0.5,1.2-0.2,1.5,0.4c3.7,6.1,9.7,8.9,16.1,11.1c3.7,1.2,6.1,3.9,7.2,7.6
		C147.1,55.5,148.5,62.2,148.6,69.1z M127.7,41.2c0,1.1,0.6,2.2,1.5,2.5c1.1,0.3,2.1,0.2,2.8-0.7c0.7-0.8,1-1.6-0.3-2.2
		c-0.7-0.3-1.3-0.7-1.9-1C128.3,39.2,127.7,39.6,127.7,41.2z"/>
	<path class="st1" d="M83.9,74.3c-0.3,0.5-0.5,1.1-1.3,0.8c-0.7-0.3-0.7-1-0.7-1.6c-0.7-6.7-0.1-13.3,1.6-19.8
		c0.3-1.1,0.6-2.2,0.9-3.3c1.4-4.3,4.1-7.3,8.3-9.1c3.8-1.6,7.4-3.4,10.9-5.6c0.8-0.5,1.6-0.9,2.2-1.7c1.3-0.8,2-2.1,2.6-3.4
		c0.3-0.6,0.6-1.2,1.4-0.8c0.8,0.3,0.6,1,0.3,1.6c-0.9,2-2.2,3.6-4,4.8c-3.7,2.6-7.7,4.7-11.8,6.4c-4.5,1.8-7.2,5.1-8.5,9.7
		c-1.8,6.7-2.7,13.5-2,20.4C83.7,73.2,83.8,73.8,83.9,74.3z"/>
	<path class="st1" d="M132.9,69.6c-0.4,2.4-0.7,4.9-1.1,7.3c-0.7,4.2-0.2,8.4,0.1,12.5c0.1,1,0.1,2,0.2,2.9c0,0.6-0.2,1.2-0.9,1.2
		c-0.7,0-0.9-0.5-0.9-1c-0.4-6.1-1.2-12.2,0-18.4c1.1-5.6,1.8-11.2,4.3-16.4c0.4-0.8,0.5-1.7,0.6-2.5c0.1-0.7,0.3-1.3,1.1-1.2
		c0.8,0.1,0.8,0.8,0.7,1.5c-0.2,1.3-0.4,2.6-1,3.7c-2.6,4.5-1.5,8.9,0,13.3c0.1,0.4,0.3,0.9,0.5,1.3c0.3,0.6,0.2,1-0.4,1.3
		c-0.6,0.3-1,0-1.3-0.5C134.1,73,133.6,71.4,132.9,69.6z"/>
	<path class="st1" d="M100,92.6c-0.2,0.6-0.4,1.1-1.2,1c-0.7-0.1-0.7-0.8-0.7-1.3c0.1-3.7,0.7-7.3,0.7-11c-0.1-3.7-0.9-7.4-1.4-11
		c0-0.2-0.2-0.3-0.3-0.6c-0.5,1.7-0.9,3.2-1.6,4.6c-0.7,1.3-1.2,1.3-2,0c1.5-3.1,2.1-6.4,2.4-9.7c0.1-1.1-0.3-2.1-0.7-3.1
		c-0.8-1.9-1.6-3.7-1.9-5.7C93.2,55,93,54.1,94,54c0.9-0.1,0.9,0.7,1.1,1.4c0.2,1.1,0.5,2.1,0.9,3.1c3.8,10,5.4,20.3,4.2,31
		C100.1,90.5,100.1,91.5,100,92.6z"/>
	<path class="st1" d="M106.2,64.9c2.4,0,4.4,2.1,4.4,4.5c-0.1,2.5-2.1,4.3-4.6,4.3c-2.4-0.1-4.3-2-4.3-4.4
		C101.7,66.8,103.7,64.9,106.2,64.9z M108.7,69.4c0-1.4-1-2.5-2.5-2.6c-1.3,0-2.7,1.2-2.7,2.5c0,1.4,1.1,2.6,2.6,2.6
		C107.6,71.8,108.7,70.8,108.7,69.4z"/>
	<path class="st1" d="M126,45.3c0,1.7-1.3,2.9-3,2.9c-1.6,0-3-1.3-3-2.9c0-1.7,1.4-3,3.1-3C124.7,42.3,126,43.6,126,45.3z
		 M124.1,45.2c-0.1-0.6-0.4-1.1-1.1-1.1c-0.7,0-1.2,0.5-1.1,1.2c0,0.7,0.5,1.1,1.2,1C123.8,46.3,124.1,45.8,124.1,45.2z"/>
	<path class="st1" d="M106.7,80.4c-1.6,0-3-1.3-3-2.9c0-1.6,1.2-3,2.9-3c1.7,0,3.1,1.3,3.1,3C109.7,79.1,108.3,80.4,106.7,80.4z
		 M107.8,77.3c-0.1-0.5-0.5-0.9-1.1-0.9c-0.7,0-1.1,0.5-1.1,1.2c0,0.7,0.5,1,1.1,1C107.4,78.6,107.8,78.1,107.8,77.3z"/>
	<path class="st1" d="M9.6,107.8c0.6,0.1,0.8,0.5,1.1,0.9c1.3,2.3,2.6,4.6,4.1,6.7c0.4,0.5,0.7,1.1,0.1,1.6
		c-0.8,0.6-1.2-0.1-1.6-0.6c-1.5-2.2-2.9-4.5-4.2-6.8C8.6,108.8,8.6,108.1,9.6,107.8z"/>
	<path class="st1" d="M7.4,48.3c-0.8-0.1-1.1-0.6-0.8-1.3c1.1-2.8,2.5-5.4,4.1-8c0.3-0.4,0.7-0.7,1.2-0.4c0.5,0.3,0.7,0.8,0.3,1.3
		c-1.5,2.5-2.8,5.1-4,7.7C8,48.1,7.7,48.2,7.4,48.3z"/>
	<path class="st1" d="M3.3,91.1c0.6,0,0.9,0.4,1,1c0.7,2.7,1.4,5.3,2.4,7.8c0.2,0.6,0.3,1.3-0.5,1.5c-0.7,0.2-1-0.4-1.2-0.9
		c-1-2.6-1.8-5.3-2.5-8C2.3,91.8,2.5,91.3,3.3,91.1z"/>
	<path class="st1" d="M4.3,54.9c0.7,0.1,1,0.6,0.8,1.3c-0.8,2.7-1.4,5.4-1.8,8.2c-0.1,0.6-0.4,1.2-1.1,1.1c-0.7-0.1-0.8-0.7-0.7-1.3
		c0.4-2.8,1-5.6,1.9-8.3C3.5,55.4,3.7,55,4.3,54.9z"/>
	<path class="st1" d="M141.7,91.9c-0.7,3-1.5,5.8-2.6,8.5c-0.2,0.5-0.6,0.9-1.2,0.6c-0.6-0.3-0.7-0.8-0.5-1.3c1-2.7,1.8-5.4,2.5-8.2
		c0.1-0.6,0.5-1,1.1-0.8C141.6,91,141.7,91.5,141.7,91.9z"/>
	<path class="st1" d="M135.4,108.6c-0.1,0.2-0.2,0.6-0.4,0.9c-1.2,2.3-2.6,4.5-4,6.6c-0.4,0.5-0.8,1.3-1.6,0.8
		c-0.9-0.6-0.3-1.2,0.1-1.8c1.5-2.1,2.8-4.3,4-6.6c0.3-0.5,0.6-0.9,1.2-0.8C135.1,107.7,135.4,108,135.4,108.6z"/>
	<path class="st1" d="M33.7,133.9c0.3,0.2,0.7,0.3,1,0.5c2.2,1.4,4.4,2.7,6.7,3.8c0.6,0.3,1.3,0.6,0.9,1.5c-0.4,0.8-1,0.5-1.6,0.2
		c-2.5-1.2-4.8-2.5-7.1-4c-0.5-0.3-0.8-0.6-0.7-1.3C33,134.2,33.3,134.1,33.7,133.9z"/>
	<path class="st1" d="M94.4,7.7c2.6,0.9,5.4,2,8.1,3.3c0.5,0.2,0.7,0.6,0.5,1.2c-0.2,0.6-0.7,0.7-1.3,0.5c-2.6-1.2-5.3-2.3-8-3.2
		c-0.5-0.2-0.8-0.5-0.7-1C93.2,7.8,93.6,7.6,94.4,7.7z"/>
	<path class="st1" d="M102.8,140.1c-0.4-0.1-0.7-0.2-0.8-0.6c-0.2-0.5,0-0.9,0.4-1.1c2.7-1.4,5.3-2.9,7.8-4.4
		c0.4-0.3,0.9-0.1,1.2,0.4c0.2,0.4,0.2,0.8-0.2,1.1c-2.6,1.8-5.3,3.3-8.1,4.6C103,140.1,102.9,140.1,102.8,140.1z"/>
	<path class="st1" d="M77.4,4.3c2.5,0.3,4.9,0.7,7.4,1c0.7,0.1,1.5,0.2,1.3,1.2c-0.2,1-1,0.7-1.6,0.6c-2.5-0.4-5-0.8-7.5-0.9
		c-0.7,0-1.5,0-1.4-1c0-1,0.8-0.9,1.5-0.9C77.1,4.3,77.3,4.3,77.4,4.3C77.4,4.3,77.4,4.3,77.4,4.3z"/>
	<path class="st1" d="M22.5,24.5c0.3,0,0.6,0.2,0.8,0.4c0.2,0.4,0.1,0.8-0.2,1.1c-2,2.1-4,4.2-5.8,6.5c-0.4,0.5-0.9,0.6-1.4,0.2
		c-0.5-0.4-0.4-0.9,0-1.4c1.8-2.3,3.7-4.4,5.8-6.5C21.9,24.7,22.2,24.5,22.5,24.5z"/>
	<path class="st1" d="M110.2,15.3c0.3,0.1,0.6,0.3,0.9,0.5c2.2,1.4,4.3,3,6.4,4.7c0.5,0.4,1.1,0.9,0.5,1.7c-0.5,0.6-1.1,0.2-1.6-0.2
		c-2.1-1.7-4.2-3.3-6.5-4.8c-0.5-0.3-0.8-0.6-0.6-1.3C109.4,15.5,109.7,15.4,110.2,15.3z"/>
	<path class="st1" d="M86.4,145.7c-0.8,0.1-1.3,0-1.4-0.7c-0.1-0.6,0.3-1,0.9-1.1c2.8-0.6,5.5-1.3,8.2-2.2c0.5-0.2,1.1-0.1,1.3,0.5
		c0.2,0.6-0.1,1-0.7,1.2C91.9,144.4,89.1,145.2,86.4,145.7z"/>
	<path class="st1" d="M117.1,71.4c0,1.4-1.2,2.6-2.5,2.6c-1.5,0-2.7-1.2-2.7-2.6c0-1.4,1.2-2.5,2.6-2.5
		C115.9,68.8,117.1,70,117.1,71.4z M115.2,71.5c0-0.5-0.3-0.8-0.7-0.8c-0.4,0-0.7,0.2-0.7,0.6c0,0.4,0.2,0.7,0.6,0.8
		C114.8,72.2,115.1,71.9,115.2,71.5z"/>
	<path class="st1" d="M124.2,122.2c0.8,0.3,1.3,0.8,0.7,1.5c-2,2.3-4.2,4.4-6.5,6.4c-0.4,0.3-0.9,0.3-1.2-0.1
		c-0.3-0.4-0.4-0.8,0-1.1c2.3-2.1,4.5-4.2,6.6-6.4C123.8,122.3,124,122.3,124.2,122.2z"/>
	<path class="st1" d="M27.4,129.4c0,0.4-0.1,0.6-0.4,0.8c-0.3,0.2-0.7,0.3-1,0c-2.4-1.9-4.6-4.1-6.7-6.4c-0.3-0.3-0.3-0.8,0.1-1.1
		c0.3-0.3,0.8-0.4,1.1-0.1c2.2,2.1,4.5,4.3,6.7,6.4C27.3,129.1,27.3,129.3,27.4,129.4z"/>
	<path class="st1" d="M46.5,49.2c1.9,0,3.3,1.3,3.5,3c0,0.6-0.1,1.2-0.8,1.3c-0.6,0.1-1-0.3-1-0.9C48,51.5,47.4,51,46.4,51
		c-0.7,0-1.1-0.3-1.1-1C45.4,49.3,46,49.2,46.5,49.2z"/>
	<path class="st1" d="M28.6,61.2c2.1,0,3.6,1.3,3.7,3c0,0.6-0.1,1.2-0.8,1.3c-0.6,0.1-1-0.3-1-0.9c-0.1-1.1-0.7-1.5-1.8-1.5
		c-0.7,0-1.1-0.3-1-1C27.7,61.4,28.3,61.3,28.6,61.2z"/>
	<path class="st1" d="M37.5,50.3c1.8,0,3.2,1.4,3.2,3.1c0,0.6-0.2,1.1-0.8,1.2c-0.6,0.1-1-0.3-1-0.9c-0.1-1-0.5-1.5-1.6-1.5
		c-0.7,0-1.3-0.2-1.2-1C36.2,50.4,36.8,50.3,37.5,50.3z"/>
	<path class="st1" d="M58.4,43.5c0,0.6-0.1,1.2-0.8,1.2c-0.6,0.1-0.9-0.4-1-0.9c-0.1-1.1-0.7-1.5-1.8-1.5c-0.6,0-1-0.2-1-0.9
		c0-0.7,0.5-0.9,1.2-1C56.7,40.3,58.3,41.8,58.4,43.5z"/>
	<path class="st1" d="M21.3,70.9c1.9,0,3.3,1.3,3.4,3c0.1,0.6-0.1,1.2-0.8,1.3c-0.6,0.1-1-0.3-1-0.9c-0.1-1.1-0.7-1.6-1.7-1.6
		c-0.6,0-1.2-0.2-1.1-1C20.2,70.9,20.9,71,21.3,70.9z"/>
	<path class="st1" d="M38.6,58.3c1.7,0.1,3,1.4,3.1,3c0,0.6-0.1,1.1-0.7,1.2c-0.7,0.1-1-0.3-1.1-1c-0.1-0.9-0.6-1.4-1.5-1.4
		c-0.7,0-1.3-0.2-1.3-1C37.1,58.2,37.9,58.3,38.6,58.3z"/>
	<path class="st1" d="M47.2,41.7c1.8,0,3.1,1.3,3.3,2.9c0.1,0.6,0,1.2-0.7,1.3c-0.7,0.1-1-0.3-1.1-0.9c-0.1-1-0.7-1.5-1.6-1.5
		c-0.6,0-1.2-0.1-1.1-0.9C46,41.8,46.6,41.8,47.2,41.7z"/>
	<path class="st1" d="M38.2,40.6c1.7,0.1,3,1.3,3.1,2.9c0,0.6,0,1.2-0.7,1.3c-0.7,0.1-1.1-0.3-1.1-1C39.4,43,39,42.5,38,42.5
		c-0.7,0-1.3-0.2-1.3-0.9C36.8,40.6,37.5,40.6,38.2,40.6z"/>
	<path class="st1" d="M50.7,37.5c0,0.6,0,1.1-0.7,1.2c-0.7,0.2-1.1-0.3-1.1-0.9c-0.1-1.1-0.7-1.5-1.8-1.5c-0.6,0-1-0.3-1-0.9
		c0-0.6,0.4-0.8,1-0.9C48.9,34.2,50.6,35.7,50.7,37.5z"/>
	<path class="st1" d="M44.1,29.8c-0.1,0.1-0.2,0.2-0.3,0.3C43.9,30,44,29.9,44.1,29.8z"/>
	<path class="st1" d="M60.2,32.9c0,0.1,0,0.2,0,0.2c0,0-0.1,0-0.1,0C60.1,33,60.2,33,60.2,32.9C60.3,32.9,60.2,32.9,60.2,32.9z"/>
	<path class="st1" d="M54.6,124.3c0-5.3,4.3-9.6,9.6-9.6c5.3,0,9.5,4.3,9.6,9.6c0,5.3-4.3,9.6-9.6,9.5
		C58.9,133.9,54.6,129.7,54.6,124.3z M71.8,124.4c0-4.4-3.4-7.8-7.7-7.9c-4.1,0-7.6,3.5-7.6,7.6c0,4.4,3.3,7.9,7.7,7.9
		C68.5,132.1,71.8,128.8,71.8,124.4z"/>
	<path class="st1" d="M58.7,106.9c0,4.7-3.9,8.6-8.6,8.6c-4.7,0-8.6-3.9-8.6-8.6c0-4.7,3.9-8.6,8.6-8.6
		C54.9,98.3,58.7,102.1,58.7,106.9z M56.9,106.8c0-3.7-3-6.7-6.7-6.8c-3.7,0-6.8,3.1-6.8,6.8c0,3.7,3.1,6.8,6.8,6.8
		C53.9,113.7,56.9,110.6,56.9,106.8z"/>
	<path class="st1" d="M80,103.1c3.6,0,6.6,2.8,6.6,6.5c0,3.5-2.9,6.4-6.4,6.4c-3.6,0-6.5-2.8-6.5-6.3C73.6,106,76.4,103.1,80,103.1z
		 M80.1,114.1c2.6,0,4.7-2.1,4.7-4.6c0-2.5-2-4.5-4.6-4.5c-2.6,0-4.7,2-4.7,4.5C75.5,112.1,77.5,114.1,80.1,114.1z"/>
	<path class="st1" d="M68.2,89.7c2.8,0,5,2.2,5,4.9c0,2.7-2.2,4.9-4.9,5c-2.7,0-4.9-2.2-4.9-4.9C63.3,91.9,65.4,89.7,68.2,89.7z
		 M68.3,91.6c-1.8,0-3.1,1.2-3.1,2.9c0,1.9,1.3,3.3,3.1,3.3c1.5,0,3-1.6,3.1-3.1C71.4,93,70,91.6,68.3,91.6z"/>
</g>
</svg>
