<?xml version="1.0" encoding="utf-8"?>
<!-- Generator: Adobe Illustrator 24.3.0, SVG Export Plug-In . SVG Version: 6.00 Build 0)  -->
<svg version="1.1" id="Layer_1" xmlns="http://www.w3.org/2000/svg" xmlns:xlink="http://www.w3.org/1999/xlink" x="0px" y="0px"
	 viewBox="0 0 150 150" style="enable-background:new 0 0 150 150;" xml:space="preserve">
<style type="text/css">
	.st0{fill:#5F6368;}
	.st1{fill:#005BAB;}
</style>
<path class="st0" d="M2053.7-657.2c-2.1,0-3.6,0-5.1,0C2049.8-661.3,2051.5-660.2,2053.7-657.2z"/>
<g>
	<path class="st1" d="M66.6,85.1c3,0.9,6,1.7,8.9,2.5c1,0.3,2,0.5,2.9,1.1c1.1,0.8,2.2,1.4,3.2,2.2c0.4,0.3,0.7,0.4,1,0
		c0,0,0.1,0,0.2,0c-0.1,0.2-0.3,0.4-0.5,0.7c0.3,0.3,0.6,0.4,0.7,0.7c1,1.7,1.9,3.4,2.8,5.2c0.5,0.9,1,1.3,1.8,1
		c0.7-0.3,1-1,0.7-1.9c-1.6-4.4-4.2-7.8-8.3-10.1c-1.1-0.6-2-1.1-2.9,0.2c0,0-0.1,0-0.2,0c0.3-0.4,0.6-0.7,1-1.2
		c-0.7-0.2-1.3-0.4-2.1-0.6c0.1,0.4,0.1,0.6,0.2,1c-0.8-1.1-0.8-1.1-2.1-1.4c-4-1.1-7.9-2.3-11.4-4.4c-1.5-0.9-2.8-1.8-3.8-3.3
		c-1-1.5-0.8-3,0.3-4.3c0.7-0.9,1.4-1.8,1.9-2.7c1.3-2.2,1.9-4.7,2.4-7.2c0.1-0.4,0.4-0.8,0.8-1c1.5-0.8,2.6-1.8,3.2-3.3
		c1.1-2.6,1.2-5.3,0.3-8c-0.1-0.3-0.2-0.7-0.1-1.1c1-4.4,1-8.9,0.3-13.3c-0.9-5.4-3.9-9.2-9.4-10.5c-0.9-0.2-1.8-0.4-2.7-0.5
		c-1.7-0.2-3.5-0.2-5.2-0.7c-2.4-0.8-4.8-0.9-7.3-0.6c-3.2,0.4-6.4,1.2-9.7,1.6c-5.8,0.7-9.4,4.1-10.7,9.8c-1,4.6-1,9.3,0,13.9
		c0.1,0.4,0.1,0.8,0,1.2c-0.2,1.6-0.7,3.1-0.6,4.6c0.1,2.8,1.1,5.2,3.8,6.6c0.8,0.4,1,0.9,1.2,1.7c0.8,3.8,2,7.4,4.8,10.2
		c0.2,0.2,0.3,0.5,0.3,0.7c0.1,1.4-0.1,2.6-1.2,3.6c-1,0.9-2,1.8-3.1,2.5c-3.9,2.3-8.1,3.6-12.5,4.7C9.3,86.3,4.8,90.1,2.5,96.3
		c-1,2.7-1.6,5.4-1.7,8.3c-0.1,6.8-0.1,13.6-0.2,20.4c0,0.2,0,0.4,0.1,0.6c0.2,0.6,0.7,1,1.3,1c0.7,0,1.1-0.4,1.2-1.1
		c0.1-0.3,0-0.6,0-0.9c0-5.6-0.1-11.2,0-16.8c0-2.3,0.3-4.6,0.7-6.8c0.7-4.1,2.5-7.8,5.6-10.6c-0.1-0.6-0.1-1.3,0.1-1.7
		c0.2-0.4,0.9-0.4,1.4-0.7c-0.6,0.4-1.1,0.8-1.5,1.2c-0.1,0.1,0,0.6,0.1,0.8c0.2,0,0.5,0,0.7-0.1c1.8-1.3,3.8-2,5.9-2.5
		c2.3-0.6,4.6-1.4,6.9-2.1c0.3-0.1,0.6-0.2,1-0.3c0.1,0.3,0.2,0.6,0.3,0.8c1.5,3.8,3.9,6.8,7.3,9c5.7,3.7,12,4.7,18.6,3.4
		c7.5-1.5,13.1-5.6,15.9-12.9C66.5,85.1,66.6,85.1,66.6,85.1z M63.5,31.6c1.3,1.8,1.9,4,2.1,6.2c0.3,3.1,0.3,6.2-0.1,9.3
		c0,0.1-0.1,0.2-0.2,0.5c-1.5-1.2-2.1-2.8-2.3-4.5c-0.2-1.8-0.3-3.6-0.4-5.4c-0.2-3.6-1.3-6.8-4.2-9.2c-0.1-0.1-0.1-0.2-0.2-0.4
		C60.6,28.7,62.3,29.8,63.5,31.6z M35,29.6c6-4.7,14.9-4.6,20.9,0c2.8,2.2,4.1,5,4.2,8.5c0,1,0.1,2,0.1,3c0.1,2.7,0.6,5.4,2.5,7.6
		c-1.3,0.6-2.3,0.6-3.6-0.1c-3.2-1.9-8.2-1.4-11,1c-0.3,0.2-0.8,0.3-1.1,0.3c-1,0-2,0-3,0c-0.4,0-1,0-1.2-0.3
		c-3.1-2.9-9.1-2.5-11.8-0.5c-0.6,0.4-1.4,0.3-2.7-0.3c2.3-2.6,2.4-5.9,2.5-9.1c0-1,0.1-2,0.2-3.1C31.2,33.6,32.7,31.4,35,29.6z
		 M58.6,53c-0.2,2.1-1.2,3.2-3.3,3.6c-0.9,0.2-1.9,0.2-2.8,0.1c-2.1-0.2-3.6-2.3-3.2-4.4c0.1-0.3,0.3-0.6,0.6-0.8
		c1.3-1.1,2.8-1.5,4.4-1.5c0.9,0.1,1.7,0.2,2.6,0.4C58.6,50.9,58.8,51.4,58.6,53z M41.5,52.8c-0.1,1.9-0.8,3.7-3.4,4
		c-0.6,0.1-1.3,0.1-1.9,0c-2.7-0.4-4-1.7-3.9-4.9c0-0.3,0.4-0.8,0.6-0.9c1.2-0.4,2.4-0.7,3.6-1c1.7,0.1,3.2,0.5,4.4,1.6
		C41.2,51.8,41.5,52.4,41.5,52.8z M25.8,34.7c1-3.2,2.9-5.4,6.1-6.5c0.1,0,0.3-0.1,0.6-0.1c-0.1,0.2-0.2,0.3-0.2,0.4
		c-2.9,2.5-3.9,5.7-4.2,9.3c-0.1,1.9-0.2,3.7-0.4,5.6c-0.2,1.6-0.9,3-2.3,4.2c-0.1-0.7-0.2-1.2-0.3-1.8C25,42.1,24.7,38.3,25.8,34.7
		z M32,68.5c-1.2-2.3-1.8-4.7-2.2-7.3c-0.2-1-0.5-1.6-1.7-1.9c-1.9-0.5-2.7-2-2.9-3.8c-0.2-1.5-0.3-3,0.5-4.5
		c1.2,0.3,2.2,0.6,3.3,0.8c0.5,0.1,0.7,0.4,0.7,0.9c0.1,0.8,0.2,1.6,0.4,2.4c0,0,0,0.1,0,0.1c1.1,3,3.5,4.1,6.4,4.3
		c2.8,0.2,5.3-0.4,6.8-3.1c0.6-1.1,0.8-2.5,1.2-3.9c0.1,0,0.4-0.1,0.7-0.2c1-0.2,1.5,0.2,1.6,1.2c0.4,3.3,2.4,5.7,5.9,5.9
		c1.4,0.1,2.8-0.1,4.1-0.4c2.8-0.8,4.2-2.8,4.5-5.5c0.2-1.5,0.2-1.5,1.7-1.9c0.7-0.2,1.4-0.3,2.1-0.5c0.1,0,0.1,0,0.2,0
		c1.3,2,0.7,6.2-1.2,7.7c-0.4,0.3-0.9,0.6-1.3,0.6c-1,0.2-1.3,0.7-1.5,1.6c-0.6,2.3-1.1,4.7-2,6.9c-1,2.6-2.9,4.4-5.7,5.2
		c-0.7,0.2-1.3,0.7-1.9,1.1c-1.2,0.9-2.6,1.3-4.1,1.4c-1.3,0-2.5,0-3.8,0c-1.7,0-3.2-0.5-4.6-1.6c-0.7-0.5-1.4-0.9-2.2-1.1
		C34.6,72.2,33.1,70.5,32,68.5z M32.5,80.2c1.6-1.4,2.2-2.6,2.7-5c0.6,0.2,1.3,0.3,1.7,0.7c3.2,2.7,7,2.6,10.9,2.4
		c2.1-0.1,3.9-0.9,5.6-2.1c0.6-0.4,1.4-0.7,2.2-1.1c0.2,2.2,1.2,3.8,2.6,5.1c0.2,0.2,0.2,0.7,0.1,1c-2.1,5.1-5.9,8-11.3,8.8
		c-6.2,0.9-12.4-2.8-14.8-8.5C32,81,32,80.6,32.5,80.2z M60,90.6c-3.2,3.1-7.1,4.7-11.5,5.2c-5,0.6-9.8-0.1-14.3-2.6
		c-3.4-2-5.8-4.8-7.2-8.4c-0.1-0.2-0.2-0.4-0.2-0.6c0-0.1,0-0.2,0-0.3c0.9-0.5,1.8-0.9,2.8-1.4c3.1,6.6,8.3,10.4,15.7,10.4
		c7.4,0,12.5-3.8,15.7-10.6c1.1,0.6,2.1,1.1,3.1,1.7C63.3,86.5,61.9,88.7,60,90.6z"/>
	<path class="st1" d="M149.4,124.5c-0.2-2.8-0.8-5.5-2.1-8c-2.6-5.2-6.7-8.8-11.8-11.3c-2.8-1.4-5.8-2.3-8.7-3.6
		c-2.3-1-4.5-2.2-6.7-3.3c-1.1-0.6-1.9-1.5-2.4-2.8c2.9-1.7,4.5-4.4,5.5-7.5c0.5-1.5,0.9-3,1.2-4.6c0.1-0.6,0.3-1,1-1.3
		c1.8-0.8,3-2.2,3.4-4.1c0.2-1.4,0.1-2.9,0.1-4.3c0-0.3,0-0.7,0.1-1c1.9-4.7,2.3-9.4,0-14.1c-1.5-3.2-3.9-5.7-6.7-7.8
		c-0.5-0.4-0.7-0.8-0.7-1.5c-0.1-5.4-2.7-9.1-7.6-11.2c-2.9-1.3-6-1.5-9.1-1.1c-7,0.9-11.3,5.6-11.6,12.6c0,0.4-0.3,0.8-0.6,1.1
		c-1.6,1.6-3.4,3.1-4.8,4.9c-4,4.7-4.2,10.2-2.4,15.8c0.4,1.3,0.6,2.5,0.5,3.8c-0.2,3,0.8,5.4,3.6,6.8c0.6,0.3,0.8,0.7,1,1.3
		c1,4.7,2.3,9.3,6.7,12.1c-0.5,1.2-1.3,2.1-2.3,2.7c-1.6,1-3.3,1.9-5,2.6c-3.1,1.3-6.3,2.4-9.3,3.8c-5.1,2.3-9.4,5.7-12.2,10.6
		c-1.7,3-2.6,6.2-2.7,9.7c0,1,0.5,1.6,1.3,1.6c0.8,0,1.3-0.6,1.3-1.5c0-0.1,0-0.2,0-0.3c0.1-3.4,1.2-6.5,3.1-9.2
		c2.6-3.9,6.3-6.7,10.6-8.6c3.3-1.4,6.7-2.7,10-4c0,0,0.1,0,0.1,0c2.4,7.3,7.3,11.7,15,11.8c8.1,0.2,13.2-4.4,15.7-12
		c1.9,0.7,3.7,1.5,5.6,2.2c3,1.1,6,2.3,8.7,4.1c4.7,3.2,8.2,7.3,9.4,13c0.2,1,0.2,2.1,0.3,3.1c0.1,0.8,0.5,1.3,1.3,1.3
		c0.8,0,1.2-0.5,1.3-1.3C149.4,125,149.4,124.8,149.4,124.5z M97,45.1c1.8-3.4,5-4.9,8.6-5.4c4.1-0.5,7.8,0.4,10.8,3.3
		c1.5,1.5,2.3,3.3,2.5,5.6c-7.6-4-15.2-4-22.7-0.1c-0.1-0.1-0.2-0.1-0.2-0.2C96.3,47.3,96.5,46.1,97,45.1z M87.5,69.1
		c-1.3-5.5,0.4-10.1,4.3-14c4.4-4.3,9.6-6.8,15.8-6.9c5,0,9.5,1.8,13.4,4.9c2.6,2.1,4.8,4.5,6.1,7.6c1.4,3.3,0.8,6.5,0.1,9.9
		c-3.7-0.5-7.2-0.9-10.7-1.6c-5.9-1.2-11.4-3.6-16.4-7c-1.4-0.9-2-0.7-2.7,0.7c-0.7,1.7-1.9,3-3.3,4.2c-1.8,1.5-3.9,2.6-6.3,3.4
		C87.7,70,87.6,69.5,87.5,69.1z M95.9,90.6c-1.6-2.4-2.3-5.2-2.8-8c-0.1-0.4,0-0.9-0.2-1.3c-0.3-0.5-0.6-1.1-1.1-1.2
		c-2.8-1-4-3.6-2.9-6.4c0.3-0.7,0.7-1.1,1.4-1.4c3.7-1.5,6.9-3.7,9-7.2c0-0.1,0.1-0.2,0.1-0.2c2.1,1.1,4.1,2.2,6.2,3.2
		c6.1,2.8,12.5,4.5,19.3,4.7c0.9,0,1.4,0.4,1.5,1.2c0.1,0.9,0.2,1.8,0.1,2.7c-0.1,1.7-1.3,2.9-2.9,3.3c-0.9,0.2-1.3,0.7-1.4,1.6
		c-0.4,3-1.1,5.9-2.6,8.5c-0.9,1.5-2.1,2.7-3.8,3.4c-0.9,0.4-1.8,0.8-2.6,1.4c-1.1,0.8-2.3,1.3-3.7,1.3c-1.2,0-2.5,0-3.7,0
		c-1.4,0-2.7-0.5-3.9-1.4c-0.7-0.5-1.6-1-2.4-1.3C97.9,92.9,96.8,92,95.9,90.6z M120.1,102.3c-1,4.8-5.3,8.9-10.2,9.8
		c-6.7,1.2-13.3-2.9-15.1-9.5c-0.2-0.7-0.1-1,0.5-1.4c1.9-1.1,3.4-2.4,4.4-4.6c2.3,2.1,5,2.5,7.8,2.5c2.8,0,5.5-0.3,7.8-2.4
		c1,2.2,2.7,3.6,4.6,4.8C120,101.5,120.1,102,120.1,102.3z"/>
	<path class="st1" d="M93.1,113.1c-0.8,0-1.4,0.7-1.4,1.5c0,0.8,0.6,1.3,1.4,1.3c0.8,0,1.4-0.6,1.4-1.4
		C94.5,113.7,93.9,113,93.1,113.1z"/>
	<path class="st1" d="M99.2,119.7c-0.8,0-1.3,0.6-1.4,1.4c0,0.8,0.6,1.4,1.4,1.4c0.8,0,1.4-0.7,1.4-1.4
		C100.6,120.3,100,119.7,99.2,119.7z"/>
	<path class="st1" d="M107.5,122.4c-0.8,0-1.4,0.5-1.4,1.4c0,0.8,0.5,1.4,1.4,1.4c0.8,0,1.4-0.6,1.4-1.4
		C108.9,123,108.3,122.4,107.5,122.4z"/>
	<path class="st1" d="M91.6,106c0-0.8-0.6-1.4-1.4-1.4c-0.8,0-1.4,0.6-1.4,1.4c0,0.8,0.6,1.3,1.4,1.4
		C90.9,107.4,91.5,106.8,91.6,106z"/>
	<path class="st1" d="M125.1,104.6c-0.8,0-1.4,0.6-1.4,1.4c0,0.8,0.6,1.4,1.4,1.4c0.8,0,1.4-0.6,1.4-1.4
		C126.5,105.2,125.9,104.6,125.1,104.6z"/>
	<path class="st1" d="M92.7,110.3c0-0.8-0.7-1.4-1.5-1.4c-0.8,0-1.3,0.6-1.3,1.4c0,0.8,0.6,1.4,1.4,1.4
		C92.1,111.7,92.7,111.1,92.7,110.3z"/>
	<path class="st1" d="M122.1,113.1c-0.8,0-1.4,0.6-1.4,1.4c0,0.8,0.6,1.4,1.4,1.4c0.8,0,1.4-0.6,1.4-1.4
		C123.5,113.7,122.9,113.1,122.1,113.1z"/>
	<path class="st1" d="M116,119.7c-0.8,0-1.4,0.5-1.4,1.4c0,0.8,0.6,1.4,1.4,1.4c0.8,0,1.4-0.6,1.4-1.4
		C117.4,120.3,116.8,119.7,116,119.7z"/>
	<path class="st1" d="M103.3,121.6c-0.8,0-1.4,0.7-1.4,1.4c0,0.8,0.6,1.4,1.4,1.4c0.8,0,1.4-0.6,1.4-1.4
		C104.7,122.3,104,121.6,103.3,121.6z"/>
	<path class="st1" d="M119.5,116.8c-0.8,0-1.4,0.6-1.4,1.4c0,0.8,0.6,1.4,1.4,1.4c0.8,0,1.4-0.6,1.4-1.4
		C120.8,117.3,120.2,116.8,119.5,116.8z"/>
	<path class="st1" d="M123.9,108.9c-0.8,0-1.4,0.6-1.4,1.4c0,0.8,0.6,1.4,1.3,1.4c0.8,0,1.4-0.5,1.5-1.3
		C125.3,109.6,124.7,109,123.9,108.9z"/>
	<path class="st1" d="M95.8,116.8c-0.8,0-1.4,0.6-1.4,1.4c0,0.8,0.6,1.3,1.3,1.4c0.8,0,1.4-0.6,1.4-1.4
		C97.2,117.4,96.6,116.7,95.8,116.8z"/>
	<path class="st1" d="M112.6,121.8c-0.3-0.1-0.8,0-0.9,0.2c-0.2,0.3-0.3,0.9-0.1,1.1c0.2,0.2,0.7,0.2,1.1,0.3
		c-0.4,0.1-0.8,0.3-0.9,0.2c-0.4-0.5-0.6-1.1-0.8-1.7c-0.6,0.4-0.8,1.1-0.3,1.7c0.3,0.4,0.9,0.7,1.4,0.7c0.6,0,1.1-0.3,0.9-1.1
		c0,0,0,0,0,0c0,0,0,0,0,0c0,0,0,0,0,0c0,0,0,0,0,0c0,0,0,0,0,0c0,0,0,0,0,0c0-0.1,0.1-0.2,0.1-0.2
		C113.5,122.5,113.1,122,112.6,121.8z"/>
</g>
</svg>
