<?xml version="1.0" encoding="utf-8"?>
<!-- Generator: Adobe Illustrator 24.3.0, SVG Export Plug-In . SVG Version: 6.00 Build 0)  -->
<svg version="1.1" id="Layer_1" xmlns="http://www.w3.org/2000/svg" xmlns:xlink="http://www.w3.org/1999/xlink" x="0px" y="0px"
	 viewBox="0 0 150 150" style="enable-background:new 0 0 150 150;" xml:space="preserve">
<style type="text/css">
	.st0{fill:#5F6368;}
	.st1{fill:#005BAB;}
</style>
<path class="st0" d="M2053.7-657.2c-2.1,0-3.6,0-5.1,0C2049.8-661.3,2051.5-660.2,2053.7-657.2z"/>
<g>
	<path class="st1" d="M-37.7-104.7c-0.7-0.2-1.2-0.3-1.8-0.5c-1.2-0.5-1.9-1.6-1.7-2.9c0.9-7.9,2.6-15.6,5.8-22.8
		c4.3-9.6,10.8-17.3,20.2-22.1c5.5-2.8,11.4-4.4,17.6-5c5.5-0.5,11-0.6,16.3,0.8c14.8,3.8,25.7,12.6,32.4,26.4
		c3.1,6.5,4.8,13.4,5.3,20.6c0.1,1.1,0.1,2.2,0.2,3.4c-0.9,0-1.8,0-2.7,0c0.2,0.6,0.3,1.1,0.4,1.7c0.9,3.6,1.7,7.2,2.6,10.7
		c0.4,1.6,1.2,3.1,1.3,4.7c0.7,7.3,1.9,14.6,1.1,21.9c-0.6,5.6-2,10.9-5.4,15.5c-3.7,5.1-8.9,8-14.8,9.6c-4.8,1.3-9.7,1.8-14.7,2
		c-0.5,0-1,0.1-1.4,0.4c-9.9,4.9-19.7,4.9-29.6,0c-0.5-0.2-1-0.4-1.5-0.4c-5.5-0.3-11-0.8-16.3-2.5c-10.3-3.3-16.1-10.5-18.1-21
		c-1.1-6.1-0.8-12.3-0.1-18.4c0.2-2.1,0.4-4.2,0.6-6.3c0.1-1.1,0.2-2.2,0.6-3.1c1.4-3.4,1.9-7,2.9-10.5
		C-38-103.2-37.9-103.9-37.7-104.7z M39-81c0.4-1.2,0.8-2.3,1.2-3.6c1.6,0.6,3.1,1.1,4.6,1.7c0.1-0.7,0.1-1.3,0.2-2
		c0.1-0.6,0.1-1.3,0.1-1.9c0.3-6.8-0.3-13.5-2.2-20.1c-0.1-0.5-0.3-0.7-0.8-0.7c-4.2-0.5-8.4-1-12.5-1.7c-7.6-1.2-15-2.9-22.3-5.5
		c-6.1-2.2-11.8-5-16.6-9.5c0,0-0.1,0-0.2,0c0,0-0.1,0.1-0.1,0.1c-3.6,6.8-9,11.7-15.5,15.5c-0.3,0.2-0.6,0.6-0.7,1
		c-2.1,6.7-2.7,13.6-2.5,20.6c0,1.4,0.2,2.8,0.3,4.2c1.5-0.6,3-1.1,4.5-1.6c0.4,1.3,0.8,2.4,1.2,3.7c-0.4,0.1-0.8,0.2-1.1,0.4
		c-1.1,0.5-2.3,1-3.4,1.5c-0.5,0.2-0.6,0.5-0.5,1c0.9,4.7,2.2,9.3,4.2,13.6c3.3,7.2,7.8,13.6,14.3,18.2c7.3,5.2,15.3,7.1,24.1,4.9
		c6.2-1.5,11.3-5,15.6-9.7c7-7.5,10.9-16.4,12.9-26.3c0.3-1.6,0.3-1.6-1.2-2.3C41.4-80.1,40.2-80.5,39-81z M52.5-110.6
		c0-0.4,0-0.6,0-0.8c-0.7-3.5-1.1-7.1-2-10.5c-3.3-11.7-10-20.9-20.7-26.9c-9-5.1-18.7-6.6-28.9-5.2c-13.8,1.9-24.1,8.9-30.8,21.1
		c-3.4,6.1-5.4,12.6-6.6,19.5c-0.3,1.6-0.5,3.2-0.8,5c6.5-0.9,11.8-4,16.6-8c4.9-4.1,8.1-9.2,10-15.3c0.2,0.1,0.2,0.1,0.3,0.2
		c0.2,0.3,0.5,0.6,0.7,0.9c2.7,3.8,6.2,6.6,10.3,8.8c6,3.2,12.4,5.1,18.9,6.7c7.4,1.8,14.9,2.9,22.5,3.7
		C45.5-111.2,48.9-110.9,52.5-110.6z M-39-77.2c-0.3,4.6-0.2,9,0.7,13.3c1.2,5.7,3.8,10.6,8.8,14c2.8,1.9,6,3.1,9.3,3.9
		c1.1,0.3,2.2,0.5,3.3,0.7c1.1,0.2,2.2,0.3,3.6,0.5c-0.3-0.3-0.4-0.4-0.5-0.5c-4.4-3.9-7.9-8.5-10.7-13.6c-2.1-3.8-3.7-7.9-4.9-12.1
		c-0.1-0.4-0.1-0.7-0.7-0.8c-3.3-0.2-5.8-1.8-7.8-4.3C-38.4-76.5-38.7-76.8-39-77.2z M30.5-44.9c2.9-0.3,6-0.9,9-1.8
		c7.4-2.4,12.5-7.1,14.8-14.6c1.1-3.5,1.5-7.1,1.6-10.8c0-1.6,0-3.3,0-4.9c-0.1,0-0.2,0-0.3,0c-0.3,0.3-0.5,0.7-0.8,1
		c-2,2.3-4.4,3.9-7.5,4.2c-0.6,0.1-0.8,0.3-1,0.8c-2,6.8-4.9,13.2-9.3,18.8C34.9-49.7,32.6-47.3,30.5-44.9z M-32-96.4
		c-1.9,0.3-3.6,1.5-4.7,3.5c-2.6,4.7-1.5,11.8,2.4,15.4c1,0.9,2,1.5,3.5,1.8C-32.2-82.6-32.6-89.5-32-96.4z M47.5-75.7
		c1.5-0.3,2.7-1,3.6-2c3-3.1,4-6.9,3.5-11.2c-0.3-2.5-1.2-4.7-3.2-6.3c-0.8-0.7-1.7-1.1-2.8-1.2C49.2-89.5,48.9-82.6,47.5-75.7z
		 M51.8-99.6c-0.6-2.3-1.2-4.7-1.8-7c0-0.2-0.3-0.3-0.5-0.4c-0.9-0.1-1.8-0.1-2.7-0.2c0.5,2.3,1,4.6,1.4,6.7
		C49.4-100.2,50.5-99.9,51.8-99.6z M-30.3-106.2c-1,0.3-2,0.6-2.9,0.9c-0.2,0.1-0.3,0.2-0.4,0.4c-0.5,1.7-0.9,3.5-1.4,5.3
		c1.2-0.3,2.4-0.5,3.5-0.8C-31.1-102.4-30.7-104.3-30.3-106.2z"/>
	<path class="st1" d="M13.1-72.8c0,1.3,0,2.5,0,3.8c-1.9-0.1-3.8,0.3-5.6-0.4c-2.6-1-4.4-4.3-3.9-7.2c0.7-3.8,1.4-7.6,2.2-11.3
		c0-0.1,0.1-0.2,0.1-0.4c1.2,0.2,2.4,0.5,3.7,0.7c-0.3,1.8-0.6,3.5-1,5.2c-0.4,2-0.9,4.1-1.1,6.1c-0.1,0.8,0.1,1.7,0.4,2.4
		c0.3,0.8,0.9,1.1,1.8,1.1C10.8-72.8,11.9-72.8,13.1-72.8z"/>
	<path class="st1" d="M-19.8-95.9c-0.5-1.3-1-2.4-1.4-3.6c7.5-3.4,14.9-4,22.4,0.2c-0.2,0.5-0.5,1.1-0.8,1.6
		c-0.3,0.6-0.5,1.1-0.9,1.8C-6.8-99.5-13.3-98.9-19.8-95.9z"/>
	<path class="st1" d="M36.4-95.9c-6.5-3-12.9-3.6-19.3,0.1c-0.6-1.2-1.1-2.3-1.6-3.4c4.4-3.8,15.5-3.9,22.3-0.2
		C37.4-98.3,37-97.2,36.4-95.9z"/>
	<path class="st1" d="M-18.9-88.4c0.6-1.1,1.1-2.2,1.8-3.3c2.3,1.2,4.7,2.4,7.4,2.5c2.7,0.1,5.1-1.1,7.4-2.6c0.7,1.1,1.3,2.1,2,3.2
		C-6.4-84.3-12-84.3-18.9-88.4z"/>
	<path class="st1" d="M33.8-91.7c0.6,1.2,1.2,2.3,1.8,3.4c-6.7,4.1-12.6,4.1-18.4-0.2c0.6-1,1.3-2.1,2-3.2
		C24-88,28.9-88.7,33.8-91.7z"/>
	<path class="st1" d="M16.4-58.3c-0.3,1.3-0.5,2.4-0.8,3.7c-4.8-1.3-9.6-1.4-14.5,0c-0.3-1.3-0.5-2.5-0.8-3.7
		C5.7-59.8,11-59.8,16.4-58.3z"/>
	<path class="st1" d="M-2.1-82.7c0.9,1,1.7,1.8,2.6,2.7c-2.3,3-5.3,3.7-8.1,1.9c-1-0.7-2.2-0.8-3.4-0.5c-0.6,0.1-1.1,0.3-1.8,0.4
		c-0.3-1.2-0.6-2.4-0.8-3.7c2.9-1,5.6-1,8.2,0.6c0.9,0.6,1.4,0.5,2.2-0.2C-2.9-81.9-2.5-82.3-2.1-82.7z"/>
	<path class="st1" d="M29.9-81.9c-0.3,1.2-0.6,2.4-0.9,3.6c-0.7-0.2-1.2-0.3-1.8-0.4c-1.1-0.3-2.2-0.2-3.3,0.4
		c-2.7,1.5-4.7,1.2-6.9-0.9c-0.3-0.3-0.6-0.5-0.9-0.9c0.9-0.9,1.7-1.8,2.6-2.8c0.5,0.4,0.9,0.8,1.4,1.3c0.5,0.4,1,0.6,1.6,0.2
		C24.2-83,27-82.9,29.9-81.9z"/>
	<path class="st1" d="M-8.3-71.1c-1.3,0-2.5,0-3.7,0c0-1.3,0-2.5,0-3.7c1.2,0,2.4,0,3.7,0C-8.3-73.6-8.3-72.4-8.3-71.1z"/>
	<path class="st1" d="M25.6-74.9c1.3,0,2.5,0,3.7,0c0,1.3,0,2.5,0,3.8c-1.2,0-2.5,0-3.7,0C25.6-72.3,25.6-73.6,25.6-74.9z"/>
	<path class="st1" d="M-19.6-69.1c1.3,0,2.5,0,3.7,0c0,1.2,0,2.4,0,3.7c-1.2,0-2.5,0-3.7,0C-19.6-66.7-19.6-67.9-19.6-69.1z"/>
	<path class="st1" d="M-4.4-69.1c1.3,0,2.5,0,3.7,0c0,1.2,0,2.4,0,3.7c-1.2,0-2.5,0-3.7,0C-4.4-66.7-4.4-67.9-4.4-69.1z"/>
	<path class="st1" d="M18-65.4c0-1.3,0-2.5,0-3.7c1.3,0,2.5,0,3.7,0c0,1.2,0,2.5,0,3.7C20.5-65.4,19.3-65.4,18-65.4z"/>
	<path class="st1" d="M-10.2-57.8c-1.3,0-2.5,0-3.7,0c0-1.2,0-2.5,0-3.7c1.2,0,2.4,0,3.7,0C-10.2-60.3-10.2-59-10.2-57.8z"/>
	<path class="st1" d="M33.2-65.4c0-1.2,0-2.4,0-3.7c1.3,0,2.5,0,3.7,0c0,1.2,0,2.4,0,3.7C35.8-65.4,34.5-65.4,33.2-65.4z"/>
	<path class="st1" d="M31.2-57.8c-1.3,0-2.4,0-3.7,0c0-1.2,0-2.5,0-3.7c1.2,0,2.4,0,3.7,0C31.2-60.3,31.2-59.1,31.2-57.8z"/>
	<path class="st1" d="M-17.8-76.7c0,1.2,0,2.4,0,3.7c-1.2,0-2.4,0-3.7,0c0-1.2,0-2.4,0-3.7C-20.3-76.7-19.1-76.7-17.8-76.7z"/>
	<path class="st1" d="M38.8-73c-1.2,0-2.4,0-3.7,0c0-1.2,0-2.5,0-3.7c1.2,0,2.4,0,3.7,0C38.8-75.5,38.8-74.3,38.8-73z"/>
</g>
<g>
	<path class="st1" d="M80.4,2.3c0.5,0.2,1,0.4,1.4,0.6c3.1,1.2,5.1,4.1,5.1,7.7c0,7.6,0,15.1,0,22.7c0,0.5,0,1,0,1.6
		c0.1,0,0.2,0,0.2,0c0.7-2.7,1.4-5.4,2-8.1c1.1-4.2,2.1-8.4,3.1-12.7c1.1-4.5,5.2-7.1,9.4-6.3c4.6,1,7.2,4.9,6.3,9.7
		c-1.1,6.3-2.3,12.6-3.4,18.8c-0.1,0.4-0.1,0.9,0.1,1.4c1.3-2.8,2.7-5.7,4-8.5c1.4-2.9,3.7-4.5,6.9-4.7c5.5-0.3,9.6,4.9,8.1,10.2
		c-0.7,2.4-1.6,4.6-2.5,6.9c-0.5,1.3-1.6,1.8-2.7,1.5c-1.2-0.4-1.8-1.5-1.3-2.9c0.7-2,1.4-4,2.1-6c0.8-2.3,0-4.3-1.9-5.1
		c-2-0.9-4,0-5.1,2.3c-3.6,7.7-7.2,15.3-10.8,23c-0.2,0.3-0.3,0.7-0.5,1c-0.5,1.1-1.4,1.7-2.6,1.4c-1.2-0.4-1.7-1.3-1.5-2.6
		c0.6-3.5,1.2-7.1,1.9-10.6c1.6-9,3.3-18.1,4.9-27.1c0.4-2.1-0.8-3.9-2.8-4.4c-2-0.5-3.9,0.7-4.5,2.9c-2.4,9.4-4.7,18.9-7.1,28.3
		c-0.8,3.3-1.7,6.7-2.5,10c-0.4,1.6-1.3,2.3-2.5,2.1c-1.2-0.2-1.8-1.1-1.8-2.6c0-14,0-27.9,0-41.9c0-3.3-2.5-5.1-5.7-4.1
		c-1.5,0.5-2.4,1.7-2.6,3.2c0,0.5,0,1,0,1.6c0,13.7,0,27.4,0,41c0,0.3,0,0.7,0,1c0,1.7-0.6,2.6-1.9,2.7c-1.3,0.1-2.1-0.5-2.5-2.1
		c-2.1-8.3-4.2-16.6-6.3-24.9c-0.8-3.2-1.6-6.4-2.5-9.6c-0.6-2.3-2.5-3.6-4.5-3.1c-2.1,0.5-3.1,2.3-2.7,4.7c0.5,2.9,1,5.8,1.6,8.7
		c0.3,1.6-0.4,2.7-1.7,2.9c-1.2,0.2-2.2-0.6-2.5-2.1c-0.6-3.1-1.2-6.2-1.7-9.3c-0.7-4.1,1.9-8,6-9c4-1,8.3,1.3,9.4,5.3
		c1.5,5.5,2.9,11,4.3,16.5c0.2,0.6,0.3,1.3,0.8,1.9c0-0.4,0-0.8,0-1.3c0-7.6,0.1-15.2,0-22.9c-0.1-4.5,1.3-8.1,6.6-9.7
		C77.9,2.3,79.2,2.3,80.4,2.3z"/>
	<path class="st1" d="M63.9,120.3c0.9-2.7-0.8-4.7-3-6.7c-4.7-4.3-9.4-8.7-13.8-13.3c-2.9-3.1-5.7-6.5-8-10.1
		C34.9,83.4,31,76.3,27,69.3c-2.9-5.2,0.2-11.3,6-12.1c2.9-0.4,5.3,0.7,7.2,2.9c4.1,4.6,8.3,9.2,12.4,13.8c1.2,1.3,1.7,1.3,2.3-0.4
		c0,0,0-0.1,0.1-0.1c0.7-2.7,3-5.1,2.6-8.1c-0.4-2.8-1-5.6-1.5-8.4c-1-5.3-2-10.7-3-16c0-0.2-0.1-0.5-0.1-0.7
		c-0.1-1.4,0.5-2.3,1.7-2.5c1.2-0.2,2.2,0.5,2.5,1.9c0.5,2.5,0.9,5,1.4,7.5c1.1,6,2.3,12.1,3.3,18.1c0.2,1.1,0,2.5-0.4,3.6
		c-0.8,2.3-1.8,4.6-2.8,6.8c-1.7,4-6,4.8-8.9,1.6c-4.2-4.7-8.4-9.3-12.6-14c-1-1.1-2.1-1.8-3.6-1.7c-2.6,0.2-4.1,2.8-3.2,5.2
		c0.2,0.6,0.6,1.1,0.9,1.6c3.4,6,6.9,12,10.3,17.9c2.6,4.6,5.9,8.8,9.8,12.5c4.9,4.7,9.7,9.4,14.7,14c1.5,1.4,2.2,2.9,2.1,5
		c-0.1,2.2,0,4.4,0,6.7c0,1.5-0.9,2.5-2.1,2.5c-1.3,0-2.1-1-2.1-2.5C63.9,123.2,63.9,122,63.9,120.3z"/>
	<path class="st1" d="M100.5,129.8c0-4.4,0.1-8.9,0-13.3c0-2.1,0.4-3.9,1.4-5.6c1.9-3.2,3.7-6.5,4-10.3c0.4-3.6,0.6-7.2,0.9-10.7
		c0.6-8.1,1.2-16.2,1.8-24.3c0-0.5,0.1-1.1,0.3-1.5c1.7-4.9,3.5-9.9,5.3-14.8c0.5-1.3,1.5-1.8,2.7-1.4c1.2,0.4,1.8,1.6,1.2,3
		c-1.1,3.3-2.2,6.5-3.5,9.7c-1.2,3-1.9,6.1-2.1,9.3c-0.6,9.5-1.4,19.1-2,28.6c-0.3,5.2-2,9.9-4.7,14.3c-0.8,1.3-1.1,2.6-1.1,4.2
		c0.1,9.2,0,18.4,0,27.5c0,0.5,0,1,0,1.4c-0.2,1.2-1.1,2-2.2,2c-1.1,0-1.9-0.9-2-2.1c0-0.4,0-0.9,0-1.3
		C100.5,139.5,100.5,134.7,100.5,129.8z"/>
	<path class="st1" d="M99.2,88.6c0,4.2-3.4,7.5-7.6,7.5c-4.1,0-7.5-3.4-7.5-7.5c0-4.1,3.4-7.6,7.6-7.6C95.9,81,99.2,84.4,99.2,88.6z
		 M94.9,88.6c0-1.8-1.4-3.2-3.2-3.2c-1.7,0-3.3,1.5-3.3,3.2c0,1.8,1.5,3.3,3.3,3.3C93.6,91.8,94.9,90.4,94.9,88.6z"/>
	<path class="st1" d="M82.4,72.6c0,3.4-2.6,6.1-6.1,6.1c-3.4,0-6.2-2.7-6.1-6.1c0-3.3,2.7-6,6-6.1C79.6,66.5,82.4,69.2,82.4,72.6z
		 M78.1,72.8c0-1.2-0.8-2-1.7-2c-1.1,0-1.7,0.7-1.9,1.7c-0.1,1,0.8,1.9,1.8,1.9C77.5,74.4,78,73.7,78.1,72.8z"/>
	<path class="st1" d="M85,136.7c-3.4,0-6.1-2.8-6-6.2c0-3.3,2.8-6,6.1-6c3.3,0,6.1,2.8,6.1,6.2C91.1,134,88.4,136.7,85,136.7z
		 M85.1,132.4c1.1-0.1,1.8-0.8,1.7-1.8c0-1.1-0.7-1.7-1.8-1.8c-1-0.1-1.9,0.9-1.8,1.9C83.3,131.8,84,132.4,85.1,132.4z"/>
	<path class="st1" d="M75,96.6c3.4,0,6.1,2.7,6.1,6.1c0,3.4-2.8,6.1-6.2,6.1c-3.3,0-6-2.7-6-6.1C68.9,99.4,71.6,96.6,75,96.6z
		 M76.8,102.7c-0.1-1.1-0.7-1.8-1.8-1.8c-1.1,0-1.7,0.6-1.8,1.7c-0.1,1.1,0.8,2,1.8,1.9C76.1,104.4,76.7,103.8,76.8,102.7z"/>
	<path class="st1" d="M88.6,69.7c0-3.4,2.7-6.1,6.1-6.2c3.4,0,6.1,2.7,6.1,6.1c0,3.3-2.7,6-6,6.1C91.5,75.8,88.6,73.1,88.6,69.7z
		 M96.6,69.6c-0.2-1-0.7-1.8-1.8-1.8c-1.1,0-1.8,0.6-1.8,1.7c-0.1,1,0.8,1.9,1.8,1.9C95.9,71.4,96.4,70.7,96.6,69.6z"/>
	<path class="st1" d="M68.2,139.6c0,1.9,0,3.8,0,5.7c0,1.4-0.8,2.4-2.1,2.4c-1.3,0-2.2-0.9-2.2-2.4c0-3.7,0-7.4,0-11.1
		c0-1.5,0.8-2.5,2.1-2.4c1.3,0,2.1,0.9,2.1,2.5C68.2,136,68.2,137.8,68.2,139.6z"/>
	<path class="st1" d="M71.4,87.8c-0.4,0-0.8,0-1.1,0c-1.2-0.1-1.8-0.8-1.9-1.9c-0.1-1.2,0.6-2,1.7-2.2c0.8-0.1,1.6-0.1,2.4,0
		c1.2,0.1,2,1,2,2.2c0,1.2-0.8,2-2.1,2.1C72.1,87.9,71.7,87.8,71.4,87.8C71.4,87.8,71.4,87.8,71.4,87.8z"/>
	<path class="st1" d="M76.7,121c-1.8,0-2.8-0.7-2.9-2c-0.1-1.3,0.9-2.2,2.5-2.3c2.1-0.1,3.2,0.7,3.2,2.1
		C79.5,120.2,78.5,121,76.7,121z"/>
	<path class="st1" d="M58.5,94.6c-1.7,0-2.6-0.8-2.7-2.1c0-1.1,0.8-2,2-2.2c1.9-0.3,3.2,0.4,3.5,1.7C61.6,93.6,60.5,94.6,58.5,94.6z
		"/>
	<path class="st1" d="M90,110.7c1.6,0,2.6,0.8,2.6,2.1c0,1.3-1,2.1-2.6,2.1c-1.6,0-2.6-0.8-2.6-2.2C87.5,111.4,88.4,110.7,90,110.7z
		"/>
</g>
<g>
	<path class="st1" d="M5,327.8c-1.2,0-2.2,0-3.3,0c0-0.5,0-0.9,0-1.3c0-18.1,0-36.2,0-54.3c0-0.5-0.1-1.1-0.3-1.6
		c-5-14.6-10-29.2-15.1-43.8c-0.9-2.6-1.7-5.1-1.7-7.9c0-8.7,5.9-16.1,14.3-18.1c8.5-2,17.2,2.2,21,10c0.1,0.2,0.2,0.5,0.4,0.7
		c9.8-12.8,26.3-13.9,37.5-7c10.9,6.8,18,23.1,9,38.5c2.8,0,5.5,0.1,8.2,0c6.7-0.2,11.8,2.6,15.6,8.2c8.4,12.4,16.9,24.7,25.3,37.1
		c2.7,3.9,3.4,7.8,1.1,12c-2,3.8-6.3,5.8-10.6,5.3c-3.8-0.4-7.6-0.7-11.4-1c-3.6-0.3-7.1-0.6-10.9-0.9c0,7.9,0,15.9,0,23.9
		c-1.2,0-2.2,0-3.4,0c0-8,0-16,0-24.2c-1.4-0.1-2.6-0.3-3.9-0.4c-5.3-0.4-10.5-0.9-15.8-1.3c-2.7-0.2-5.3-0.7-7.5-2.5
		c-3.4-2.9-4.8-7.6-3.2-11.8c1.6-4.4,5.6-7.1,10.1-6.9c4,0.2,8,0.6,12.1,1c2.7,0.2,5.4,0.5,8.1,0.7c0-0.4,0-0.7,0-1
		c0-2.4,0-4.8,0-7.2c0-0.9,0.2-1.8,1.2-2.1c1-0.3,1.7,0.2,2.2,1c2.3,3.4,4.6,6.9,7,10.3c0.5,0.8,0.9,1.5,0.3,2.4
		c-0.5,0.8-1.4,0.8-2.2,0.7c-4.6-0.4-9.2-0.8-13.8-1.2c-4.5-0.4-9-0.7-13.5-1.2c-4.4-0.5-7.8,1.7-8.7,5.8c-0.9,4,2.3,8.2,6.4,8.5
		c6.2,0.5,12.3,1.1,18.5,1.6c5.3,0.5,10.7,0.9,16,1.3c4.4,0.4,8.7,0.8,13.1,1.1c2.9,0.2,5.2-0.9,6.8-3.3c1.7-2.7,1.6-5.4-0.2-8.1
		c-1.7-2.5-3.5-5.1-5.2-7.6c-7.1-10.4-14.2-20.7-21.3-31.1c-2.8-4.1-6.6-6-11.5-6c-3.5,0-7,0-10.6,0c-0.5,0-1.1,0.3-1.4,0.6
		c-4.2,4.5-9.2,7.6-15.3,8.7c-8.9,1.7-16.9-0.3-23.8-6.2c-5.1-4.3-8.2-9.9-9.4-16.5c-1-5.9-0.3-11.7,2.5-17.1
		c0.3-0.7,0.3-1.2,0.1-1.9c-2.1-5.3-5.8-8.8-11.4-10.1c-8.4-1.9-17,4.1-18.2,12.5c-0.4,3,0,5.8,1.1,8.6c2,5.6,3.9,11.2,5.9,16.9
		c3.2,9.3,6.4,18.6,9.6,27.9c0.2,0.6,0.3,1.2,0.3,1.8c0,18.3,0,36.6,0,54.9C5,327,5,327.3,5,327.8z M18.2,228.3
		c0,13.7,11,24.7,24.7,24.7c13.4,0,24.9-11.1,24.6-25.1c-0.2-13.5-11.4-24.2-24.6-24.2C29.3,203.6,18.2,214.6,18.2,228.3z
		 M86.7,282.9c-0.9-1.3-1.7-2.5-2.5-3.7c0,1.3,0,2.3,0,3.5C85,282.8,85.7,282.8,86.7,282.9z"/>
	<path class="st1" d="M126,292.9c-0.5-2.1-0.9-4.3-1.4-6.4c-0.3-1.3-0.1-2.2,0.8-2.5c1.1-0.4,1.9,0.1,2.4,1.5
		c4.7,13.2-3.6,27.6-17.4,30.2c-0.9,0.2-1.8,0.2-2.8,0.3c-1.2,0.1-2-0.4-2.1-1.5c-0.1-1,0.6-1.7,1.8-1.9c1.6-0.2,3.1-0.4,4.6-0.9
		c8.2-2.5,13.8-10.1,13.8-18.7C125.8,292.9,125.9,292.9,126,292.9z"/>
	<path class="st1" d="M-25.1,211.6c0.4-8.3,5.4-16.5,14.2-20.1c5.1-2.1,10.4-2.3,15.7-0.6c1.1,0.3,1.7,1.1,1.6,2
		c-0.2,1.1-1.1,1.5-2.4,1.3c-2.2-0.4-4.4-1-6.6-1c-8.9-0.1-17.1,6.8-18.7,15.5c-0.2,1.1-0.3,2.2-0.4,3.4c-0.1,1.3-0.7,2-1.7,2
		c-1,0-1.6-0.7-1.6-2C-25.1,211.9-25.1,211.7-25.1,211.6z"/>
	<path class="st1" d="M42.7,305.9c-0.2-0.1-0.7-0.4-1-0.8c-8.4-13.6-1.1-30.4,13.3-34.3c1.3-0.3,2.2,0.1,2.4,1
		c0.3,1.1-0.2,1.8-1.5,2.2c-7.9,2.5-12.7,7.8-14.2,15.9c-0.8,4.6,0.1,8.9,2.4,12.9c0.1,0.2,0.3,0.5,0.4,0.7
		C45.1,304.7,44.4,305.9,42.7,305.9z"/>
	<path class="st1" d="M29.2,289.1c0.3-8.4,3.2-14.5,9.2-19.2c0.7-0.6,1.5-0.9,2.3-0.3c0.7,0.5,0.9,1.2,0.5,2
		c-0.2,0.4-0.5,0.6-0.8,0.9c-5.1,4-7.7,9.3-7.8,15.8c0,1.8,0.4,3.6,0.8,5.4c0.3,1.3,0,2.2-1,2.4c-1,0.3-1.9-0.2-2.2-1.5
		C29.8,292.6,29.4,290.4,29.2,289.1z"/>
	<path class="st1" d="M-6.5,182.7c0,0.9-0.6,1.6-1.6,1.6c-3.5,0.3-6.8,1.3-9.7,3.2c-3.8,2.5-6.5,6-7.9,10.4
		c-0.5,1.6-1.3,2.2-2.3,1.9c-1.1-0.3-1.4-1.3-0.9-2.9c2.9-9,10.9-15.2,20.2-15.9C-7.3,181-6.4,181.6-6.5,182.7z"/>
	<path class="st1" d="M136.9,299.4c-0.4,9-4.4,15.8-12.5,20.3c-0.3,0.2-0.6,0.3-0.9,0.4c-1,0.4-1.8,0.1-2.3-0.8
		c-0.4-0.9,0-1.7,0.9-2.3c1.5-0.9,3.1-1.7,4.4-2.9c5.1-4.4,7.4-10.1,6.9-16.8c-0.1-1.1,0.4-1.8,1.4-1.9c0.9-0.1,1.7,0.4,1.9,1.5
		C136.8,297.7,136.8,298.5,136.9,299.4z"/>
	<path class="st1" d="M26.2,319.5c-0.9,0-1.6-0.7-1.6-1.7c0-1,0.8-1.7,1.7-1.7c0.9,0,1.6,0.8,1.6,1.7
		C27.9,318.9,27.2,319.6,26.2,319.5z"/>
	<path class="st1" d="M18.1,315.4c-0.9,0-1.7-0.7-1.7-1.6c0-1,0.7-1.7,1.6-1.7c0.9,0,1.6,0.7,1.7,1.6
		C19.7,314.6,19.1,315.4,18.1,315.4z"/>
	<path class="st1" d="M62.9,317.6c1,0,1.7,0.8,1.7,1.7c0,0.9-0.8,1.6-1.7,1.6c-0.9,0-1.6-0.8-1.7-1.7
		C61.2,318.4,61.9,317.6,62.9,317.6z"/>
	<path class="st1" d="M19.3,320.7c0,0.9-0.7,1.6-1.7,1.6c-1,0-1.7-0.8-1.6-1.7c0.1-0.9,0.8-1.6,1.7-1.6
		C18.7,318.9,19.3,319.7,19.3,320.7z"/>
	<path class="st1" d="M1.7,213.1c0,0.9-0.7,1.6-1.6,1.7c-0.9,0-1.7-0.7-1.7-1.7c0-1,0.7-1.6,1.6-1.7C0.9,211.4,1.7,212.1,1.7,213.1z
		"/>
	<path class="st1" d="M9.9,217.3c0,0.9-0.8,1.7-1.7,1.7c-0.9,0-1.7-0.8-1.7-1.6c0-0.9,0.7-1.6,1.6-1.7
		C9.1,215.6,9.8,216.3,9.9,217.3z"/>
	<path class="st1" d="M1.2,220c0,0.9-0.8,1.7-1.6,1.7c-0.9,0-1.7-0.8-1.7-1.7c0-1,0.7-1.7,1.7-1.6C0.5,218.3,1.2,219.1,1.2,220z"/>
	<path class="st1" d="M14.1,252c0,0.9-0.7,1.6-1.6,1.6c-0.9,0-1.7-0.8-1.7-1.7c0-0.9,0.8-1.6,1.7-1.6C13.4,250.2,14.2,251,14.1,252z
		"/>
	<path class="st1" d="M3.8,256.2c-0.9,0-1.7-0.8-1.6-1.8c0-0.9,0.8-1.6,1.7-1.6c0.9,0,1.7,0.9,1.6,1.8
		C5.5,255.5,4.7,256.3,3.8,256.2z"/>
	<path class="st1" d="M6,247.6c0,0.9-0.7,1.6-1.6,1.7c-1,0-1.7-0.6-1.7-1.6c0-1,0.7-1.7,1.7-1.7C5.2,246,6,246.8,6,247.6z"/>
	<path class="st1" d="M57.6,319.5c0,1-0.7,1.7-1.7,1.7c-0.9,0-1.6-0.7-1.7-1.6c0-0.9,0.8-1.7,1.7-1.7
		C57,317.9,57.6,318.6,57.6,319.5z"/>
	<path class="st1" d="M26.7,283.5c-0.9,0-1.6-0.7-1.7-1.6c0-1,0.6-1.7,1.6-1.7c0.9,0,1.6,0.7,1.7,1.6
		C28.4,282.7,27.6,283.4,26.7,283.5z"/>
	<path class="st1" d="M18.4,279.2c-0.9,0-1.6-0.8-1.6-1.7c0-0.9,0.8-1.7,1.7-1.7c1,0,1.6,0.8,1.6,1.8
		C20.1,278.6,19.4,279.3,18.4,279.2z"/>
	<path class="st1" d="M71.3,256.2c0.9,0,1.7,0.7,1.7,1.6c0,0.9-0.7,1.7-1.6,1.8c-0.9,0-1.7-0.8-1.7-1.7
		C69.7,256.9,70.4,256.2,71.3,256.2z"/>
	<path class="st1" d="M57.8,311c0-1,0.6-1.6,1.6-1.6c1,0,1.7,0.7,1.7,1.7c0,0.9-0.8,1.7-1.7,1.7C58.5,312.7,57.8,312,57.8,311z"/>
	<path class="st1" d="M19.7,284.5c0,0.9-0.7,1.6-1.6,1.6c-0.9,0-1.7-0.8-1.7-1.7c0-0.9,0.7-1.6,1.7-1.6
		C19,282.8,19.7,283.5,19.7,284.5z"/>
	<path class="st1" d="M72.5,264.7c0,1-0.7,1.7-1.6,1.8c-0.9,0-1.6-0.7-1.7-1.6c0-1,0.6-1.7,1.6-1.7
		C71.8,263.1,72.5,263.8,72.5,264.7z"/>
	<path class="st1" d="M79.5,263.8c-0.9,0-1.7-0.8-1.7-1.7c0-0.9,0.7-1.6,1.7-1.6c1,0,1.7,0.7,1.7,1.7
		C81.1,263,80.4,263.8,79.5,263.8z"/>
</g>
<g>
	<path class="st1" d="M272.1,314.4c-0.2,0.9-0.4,1.8-0.7,2.7c-3.1,9.7-14.4,13.8-23,8.4c-0.7-0.5-1.2-0.4-1.9,0
		c-5.9,3.2-11.7,6.4-17.6,9.7c-0.7,0.4-1.4,1-2,1.6c-0.8,0.7-1,1.7-0.7,2.7c0.4,1,1.2,1.5,2.3,1.6c2.5,0.3,4.8-0.2,7.2-0.9
		c0.4-0.1,0.7-0.2,1.1-0.3c1.9-0.6,3.5-1.5,4.9-3.2c4.4-5.3,12-6.7,18.3-3.7c6.1,2.9,9.7,9.8,8.5,16.5c-1.2,6.9-6.7,12.1-13.6,12.9
		c-7.6,0.8-14.5-3.8-16.6-11.1c-0.1-0.3-0.2-0.5-0.3-0.8c-2.7,0.1-5.4,0.4-7.9,1.7c-1.9,1-2.9,2.4-2.9,4.8c0.1,4.1,0,8.2,0,12.3
		c0,3.2,1.8,5.1,5,5.3c5,0.3,8.8,3.1,10.2,7.5c0.6,2-0.3,3.1-2.3,2.7c-4.8-0.9-9.6-1.7-14.6-1.2c-1.5,0.1-2.9,0.7-4.3,1.1
		c-0.5,0.1-1.2,0.3-1.6,0.1c-2.1-1.2-4.5-1.4-6.8-1.3c-4.2,0.3-8.3,0.9-12.5,1.4c-1.7,0.2-2.7-0.7-2.2-2.4c1.1-4.2,4.9-7.4,9.3-7.8
		c0.2,0,0.3,0,0.5,0c4-0.3,5.6-2,5.6-6c0-4,0-7.9,0-11.9c0-1.7-0.7-3-2-3.9c-1.8-1.3-4-1.8-6.2-2.1c-0.8-0.1-1.6-0.1-2.6-0.2
		c-0.1,0.4-0.2,0.7-0.3,1c-2.1,6.7-8.6,11.4-15.4,11c-7.6-0.4-13.5-5.7-14.8-12.9c-1.2-7.1,2.7-14.1,9.4-16.9
		c6.5-2.7,14.2-0.5,18.4,5.2c0.3,0.5,0.9,0.9,1.4,1.1c2.8,1.2,5.6,2.1,8.7,2.3c0.7,0,1.4,0,2.1-0.1c1-0.1,1.8-0.6,2.2-1.6
		c0.4-1,0.2-2-0.6-2.6c-1.1-1-2.3-1.9-3.6-2.6c-5.5-3-11-6-16.5-9c-0.6-0.3-0.9,0-1.4,0.2c-7.2,4.6-16.6,2.6-21.3-4.5
		c-6.4-9.6-0.3-22.7,11.1-24c10.2-1.2,18.6,7.5,17.3,17.6c0,0.4,0.1,0.9,0.3,1.1c3.2,2,6.5,4,9.8,5.9c0.9,0.5,1.9,0.7,2.9,1
		c1,0.3,1.6-0.1,1.7-1.1c0.2-1.8,0.3-3.5,0.2-5.3c0-1.5-0.3-3-0.6-4.5c-0.1-0.5-0.5-1-0.9-1.2c-5.5-3.2-8.4-7.9-8.1-14.3
		c0.2-6.2,3.3-10.7,8.8-13.4c9.5-4.7,21.1,1.8,22,12.3c0.6,6.9-2.2,12-8.2,15.4c-0.3,0.2-0.6,0.5-0.7,0.9c-0.6,3-0.9,6-0.6,9.1
		c0.2,2.2,0.7,2.5,2.8,1.8c3.6-1.2,6.8-3.4,10-5.4c1.6-1,2.3-1.9,2.1-4c-0.4-8.2,5.6-15.2,13.5-16c8.4-0.9,15.7,4.5,17.2,12.9
		c0,0.2,0.1,0.3,0.2,0.5C272.1,311.6,272.1,313,272.1,314.4z M242.4,318.8c-1.2,0.8-2.3,1.5-3.4,2.2c-3.2,2-6.3,4-10,4.8
		c-3,0.7-5.1-0.4-5.7-3.5c-0.4-1.8-0.4-3.7-0.5-5.5c0-1.6,0.2-3.2,0.3-4.7c-1.9,0-3.7,0-5.5,0c0.1,1.4,0.3,2.8,0.4,4.2
		c0.2,2.3,0.1,4.6-0.7,6.8c-0.8,2.2-2.2,3.1-4.5,2.8c-1-0.1-2.1-0.3-3-0.8c-3-1.5-6-3.2-9-4.9c-0.9-0.5-1.6-1.1-2.4-1.6
		c-0.8,1.2-1.5,2.4-2.3,3.6c4.1,2.2,8.2,4.2,12.1,6.5c2.7,1.6,5.4,3.2,7.9,5.2c2.1,1.6,2.7,4,1.7,6.6c-1,2.5-3,3.7-5.7,3.9
		c-3,0.2-5.8-0.4-8.7-1.3c-0.2-0.1-0.5-0.1-0.7-0.2c0.2,1.3,0.3,2.5,0.5,3.8c1.1,0.1,2.2,0.2,3.3,0.4c2.8,0.4,5.5,1.2,7.8,3.2
		c1.5,1.4,2.6,3,2.7,5.1c0,4.8,0.1,9.6,0,14.4c-0.1,4.4-3.7,7.8-8.1,7.9c-0.7,0-1.4,0-2,0.2c-1.6,0.4-2.9,1.1-3.9,2.6
		c2.1-0.2,3.9-0.5,5.8-0.7c3.8-0.3,7.7-0.5,11.4,0.9c0.2,0.1,0.5,0.1,0.8,0c2.8-1.1,5.7-1.2,8.6-1.1c2.8,0.1,5.6,0.4,8.5,0.7
		c-1.4-1.8-3.3-2.6-5.6-2.7c-5-0.1-8.4-3.6-8.4-8.6c0-4.3,0-8.5,0-12.8c0-2.7,1-4.9,3.2-6.3c1.6-1.1,3.4-1.8,5.3-2.4
		c1.7-0.5,3.5-0.6,5.3-0.9c0.1-1.2,0.3-2.4,0.5-3.7c-0.5,0.2-0.9,0.3-1.3,0.4c-2.7,0.8-5.4,1.3-8.3,1.1c-2.6-0.2-4.5-1.4-5.5-3.8
		c-1-2.4-0.4-4.7,1.5-6.5c0.8-0.8,1.7-1.6,2.7-2.1c5.4-3.1,10.9-6.1,16.4-9.1c0.3-0.2,0.7-0.4,1-0.6
		C243.9,321.2,243.2,320.1,242.4,318.8z M194.7,318.1c2.4-3.6,2.3-10.3-2.4-14.6c-4.5-4.1-11.6-4.2-16.2-0.1c-4.7,4.2-5,11-2.4,14.8
		c0.7-0.8,1.3-1.6,2-2.3c0.7-0.7,1.6-1.3,2.3-1.9c-1.3-4-0.7-6.7,1.9-8.7c2.3-1.8,5.5-1.9,8-0.4c1.2,0.8,2.1,1.8,2.6,3.2
		c0.8,2,0.6,4-0.2,5.7C191.9,315.3,193.3,316.7,194.7,318.1z M230.9,302.6c2.9-4.7,1.6-11.6-3.1-15.2c-4.8-3.8-11.8-3.3-16.1,1.1
		c-4.5,4.6-4,11.3-1.9,14.1c1.4-1.4,2.9-2.8,4.4-4.3c-1.3-3.3-0.8-6.3,1.7-8.4c2.3-1.9,5.6-2.1,8.1-0.5c1.3,0.8,2.2,1.9,2.7,3.4
		c0.8,2,0.5,3.9-0.3,5.5C228.1,299.8,229.5,301.2,230.9,302.6z M198.1,352.7c3-4.9,1.6-11.8-3.1-15.4c-4.9-3.8-11.9-3.2-16.1,1.2
		c-4.3,4.5-3.9,11-1.7,14c1.4-1.4,2.9-2.8,4.4-4.3c-1.3-3.3-0.8-6.3,1.7-8.4c2.3-1.9,5.5-2.2,8-0.6c1.3,0.8,2.2,1.8,2.8,3.2
		c0.9,2,0.6,4.1-0.3,5.9c0.8,0.7,1.7,1.3,2.4,2C196.8,351,197.4,351.9,198.1,352.7z M250.4,313.8c-1.3-3.6-0.7-6.5,2-8.6
		c2.4-1.8,5.7-1.9,8.1-0.2c2.8,2,3.5,4.8,2.2,8.9c0.8,0.6,1.6,1.2,2.4,2c0.7,0.7,1.3,1.5,2,2.3c2.9-4.5,1.8-11.3-2.6-15
		c-4.6-4-11.5-3.9-16,0.2c-4.8,4.4-4.7,11.2-2.4,14.6C247.5,316.7,248.9,315.2,250.4,313.8z M263.7,352.5c2.9-4.7,1.6-11.5-3-15.1
		c-4.8-3.8-11.7-3.5-16.1,0.9c-4.4,4.4-4.2,11-2,14.2c1.4-1.4,2.9-2.8,4.4-4.3c-1.3-3.5-0.7-6.4,1.8-8.5c2.3-1.9,5.6-2,8.1-0.4
		c1.2,0.8,2.1,1.9,2.6,3.3c0.7,2,0.5,3.9-0.3,5.5C260.8,349.7,262.2,351.1,263.7,352.5z M192.2,321.3c-0.8-2-2.1-3.5-3.9-4.4
		c-0.3-0.2-0.8-0.2-1.1,0c-2,0.9-4,0.9-5.9,0c-0.3-0.1-0.7-0.2-0.9,0c-1.9,1-3.3,2.5-4.1,4.5C180.4,325.4,187.7,325.5,192.2,321.3z
		 M256.5,324.4c2.7,0,5.2-0.9,7.4-2.5c0.5-0.4,0.7-0.7,0.3-1.4c-0.8-1.5-2-2.8-3.5-3.6c-0.3-0.2-0.9-0.2-1.3,0
		c-1.9,0.8-3.8,0.8-5.8,0c-0.4-0.2-0.9-0.2-1.3,0c-1.6,0.8-2.7,2.1-3.5,3.6c-0.3,0.6-0.2,1,0.3,1.4
		C251.4,323.5,253.8,324.4,256.5,324.4z M187.7,358.9c2.8-0.1,5.2-0.9,7.4-2.6c0.5-0.4,0.6-0.7,0.3-1.3c-0.8-1.5-1.9-2.7-3.4-3.6
		c-0.5-0.3-0.9-0.4-1.5-0.1c-1.6,0.8-3.3,1-4.9,0.3c-1.6-0.8-2.6-0.2-3.6,0.8c-0.8,0.8-1.4,1.7-2.1,2.6c-0.3,0.5-0.2,0.8,0.2,1.2
		C182.4,358,184.9,358.8,187.7,358.9z M261.1,355.7c-0.8-1.9-2-3.4-3.8-4.3c-0.3-0.2-0.9-0.2-1.3-0.1c-2,0.8-3.9,0.8-5.9,0
		c-0.3-0.1-0.8-0.2-1.1,0c-1.7,0.8-2.9,2.1-3.7,3.8c-0.1,0.3,0,0.8,0.2,1C249.7,359.9,257.1,359.7,261.1,355.7z M212.4,305.8
		c4.3,4.2,12.1,4.1,16,0c-0.8-2-2.1-3.5-4-4.4c-0.3-0.1-0.7-0.1-1,0c-2,0.9-4,0.9-5.9,0c-0.3-0.1-0.7-0.2-0.9,0
		C214.5,302.3,213.2,303.8,212.4,305.8z M260,310.7c0-1.9-1.5-3.5-3.4-3.5c-1.9,0-3.4,1.6-3.4,3.5c0,1.9,1.5,3.4,3.4,3.4
		C258.4,314.1,260,312.6,260,310.7z M187.7,310.7c0-1.9-1.6-3.5-3.5-3.5c-1.9,0-3.5,1.6-3.4,3.5c0,1.8,1.6,3.4,3.4,3.4
		C186.1,314.1,187.7,312.5,187.7,310.7z M220.4,298.6c1.9,0,3.5-1.5,3.5-3.4c0-1.9-1.5-3.4-3.5-3.4c-1.9,0-3.4,1.5-3.4,3.4
		C216.9,297,218.4,298.6,220.4,298.6z M184.2,345.1c0,1.9,1.5,3.5,3.4,3.5c1.9,0,3.4-1.5,3.4-3.5c0-1.9-1.5-3.4-3.4-3.4
		C185.8,341.6,184.3,343.2,184.2,345.1z M249.7,345.1c0,1.9,1.5,3.5,3.4,3.5c1.9,0,3.4-1.5,3.4-3.5c0-1.9-1.5-3.4-3.4-3.4
		C251.3,341.6,249.7,343.1,249.7,345.1z"/>
</g>
</svg>
