<?xml version="1.0" encoding="utf-8"?>
<!-- Generator: Adobe Illustrator 24.3.0, SVG Export Plug-In . SVG Version: 6.00 Build 0)  -->
<svg version="1.1" id="Layer_1" xmlns="http://www.w3.org/2000/svg" xmlns:xlink="http://www.w3.org/1999/xlink" x="0px" y="0px"
	 viewBox="0 0 150 150" style="enable-background:new 0 0 150 150;" xml:space="preserve">
<style type="text/css">
	.st0{fill:#5F6368;}
	.st1{fill:#005BAB;}
</style>
<path class="st0" d="M2053.7-657.2c-2.1,0-3.6,0-5.1,0C2049.8-661.3,2051.5-660.2,2053.7-657.2z"/>
<g>
	<path class="st1" d="M18.8,66.2c-0.8-0.2-1.5-0.4-2.2-0.6c-1.5-0.6-2.3-2-2.1-3.5c1.1-9.6,3.2-19,7.1-27.9
		c5.2-11.7,13.1-21.1,24.7-27C53.1,3.7,60.3,1.8,67.8,1c6.7-0.7,13.4-0.7,20,1c18.1,4.7,31.4,15.4,39.5,32.3
		c3.8,7.9,5.8,16.4,6.5,25.2c0.1,1.4,0.2,2.7,0.3,4.2c-1.1,0-2.1,0-3.3,0c0.2,0.7,0.3,1.4,0.5,2c1.1,4.4,2.1,8.7,3.2,13.1
		c0.5,1.9,1.4,3.8,1.6,5.7c0.8,8.9,2.4,17.8,1.4,26.8c-0.7,6.8-2.5,13.3-6.6,18.9c-4.5,6.2-10.8,9.7-18.1,11.8
		c-5.9,1.6-11.9,2.2-17.9,2.5c-0.6,0-1.2,0.2-1.7,0.4c-12,6-24.1,6-36.1,0c-0.6-0.3-1.2-0.4-1.9-0.5c-6.7-0.3-13.4-1-19.9-3.1
		c-12.5-4.1-19.7-12.8-22-25.6c-1.4-7.5-1-15-0.1-22.5c0.3-2.5,0.4-5.1,0.7-7.7c0.1-1.3,0.3-2.6,0.8-3.8c1.7-4.2,2.4-8.6,3.6-12.9
		C18.4,68.1,18.6,67.2,18.8,66.2z M112.4,95.1c0.5-1.5,0.9-2.9,1.4-4.4c1.9,0.7,3.8,1.4,5.6,2.1c0.1-0.8,0.2-1.6,0.2-2.4
		c0.1-0.8,0.1-1.6,0.1-2.4c0.3-8.3-0.4-16.5-2.7-24.5c-0.2-0.6-0.4-0.8-1-0.9c-5.1-0.6-10.2-1.2-15.3-2c-9.3-1.5-18.4-3.5-27.2-6.8
		c-7.4-2.7-14.4-6.1-20.2-11.6c0,0-0.1,0-0.2,0c-0.1,0-0.1,0.1-0.1,0.1c-4.4,8.3-10.9,14.3-18.9,19c-0.4,0.2-0.7,0.7-0.9,1.2
		c-2.5,8.2-3.3,16.6-3,25.1c0.1,1.7,0.2,3.4,0.4,5.1c1.9-0.7,3.6-1.3,5.5-2c0.5,1.6,1,3,1.4,4.5c-0.5,0.2-0.9,0.3-1.3,0.4
		c-1.4,0.6-2.8,1.2-4.1,1.8c-0.6,0.2-0.7,0.6-0.6,1.2c1.1,5.8,2.7,11.3,5.1,16.7c4,8.8,9.5,16.6,17.4,22.3c8.9,6.4,18.7,8.7,29.5,6
		c7.6-1.9,13.8-6.1,19.1-11.8c8.5-9.1,13.3-20,15.7-32.1c0.4-1.9,0.4-2-1.5-2.8C115.4,96.2,113.9,95.7,112.4,95.1z M128.9,59
		c0-0.5,0-0.7,0-1c-0.8-4.3-1.3-8.6-2.5-12.8c-4-14.3-12.2-25.5-25.3-32.9C90.2,6,78.3,4.2,65.9,6C49,8.3,36.4,16.8,28.2,31.7
		c-4.1,7.4-6.5,15.4-8,23.8c-0.3,1.9-0.6,3.9-1,6.1c8-1.1,14.4-4.8,20.3-9.7c5.9-5,9.9-11.2,12.2-18.7c0.2,0.1,0.3,0.2,0.3,0.2
		c0.3,0.4,0.6,0.7,0.9,1.1c3.2,4.7,7.6,8.1,12.6,10.7c7.3,3.9,15.1,6.3,23.1,8.2c9.1,2.2,18.2,3.5,27.5,4.5
		C120.3,58.3,124.6,58.6,128.9,59z M17.1,99.7c-0.4,5.6-0.3,11,0.8,16.2c1.5,7,4.7,12.9,10.7,17.1c3.4,2.4,7.3,3.8,11.3,4.8
		c1.3,0.3,2.7,0.6,4,0.8c1.3,0.2,2.7,0.4,4.3,0.6c-0.4-0.3-0.5-0.5-0.7-0.6c-5.4-4.7-9.7-10.4-13.1-16.7c-2.5-4.7-4.5-9.6-6-14.7
		c-0.1-0.4-0.1-0.9-0.9-0.9c-4-0.3-7.1-2.2-9.5-5.2C17.9,100.7,17.6,100.3,17.1,99.7z M102,139.2c3.6-0.4,7.3-1.1,11-2.2
		c9.1-2.9,15.3-8.6,18.1-17.8c1.3-4.3,1.8-8.7,1.9-13.2c0-2,0-4,0-6c-0.1,0-0.2,0-0.3,0c-0.3,0.4-0.7,0.8-1,1.3
		c-2.4,2.9-5.4,4.8-9.2,5.1c-0.8,0.1-1,0.4-1.2,1c-2.4,8.3-6,16.1-11.4,23C107.5,133.4,104.6,136.3,102,139.2z M25.8,76.3
		c-2.4,0.3-4.3,1.8-5.7,4.2c-3.2,5.7-1.9,14.4,2.9,18.8c1.2,1.1,2.5,1.9,4.2,2.2C25.5,93.2,25,84.8,25.8,76.3z M122.8,101.6
		c1.9-0.4,3.3-1.2,4.4-2.4c3.7-3.8,4.9-8.5,4.3-13.6c-0.3-3-1.5-5.7-3.9-7.7c-1-0.8-2.1-1.4-3.5-1.5
		C124.9,84.8,124.5,93.2,122.8,101.6z M128.1,72.4c-0.7-2.9-1.5-5.7-2.3-8.6c-0.1-0.2-0.4-0.4-0.6-0.4c-1.1-0.1-2.2-0.1-3.3-0.2
		c0.6,2.8,1.2,5.6,1.7,8.2C125.1,71.7,126.5,72,128.1,72.4z M27.8,64.3c-1.2,0.4-2.4,0.7-3.6,1.1c-0.2,0.1-0.4,0.3-0.4,0.5
		c-0.6,2.1-1.1,4.3-1.7,6.4c1.5-0.3,2.9-0.6,4.2-0.9C26.8,69.1,27.3,66.7,27.8,64.3z"/>
	<path class="st1" d="M80.8,105.2c0,1.6,0,3.1,0,4.7c-2.3-0.2-4.6,0.4-6.8-0.4c-3.2-1.2-5.4-5.2-4.8-8.8C70,96,71,91.4,71.9,86.8
		c0-0.1,0.1-0.3,0.1-0.5c1.5,0.3,2.9,0.6,4.5,0.8c-0.4,2.2-0.8,4.3-1.2,6.3c-0.5,2.5-1,5-1.4,7.5c-0.1,1,0.1,2,0.5,2.9
		c0.3,0.9,1.1,1.4,2.2,1.3C78,105.2,79.4,105.2,80.8,105.2z"/>
	<path class="st1" d="M40.7,76.9c-0.6-1.5-1.2-2.9-1.7-4.3c9.2-4.2,18.2-4.8,27.3,0.2c-0.3,0.7-0.6,1.3-0.9,2
		c-0.3,0.7-0.6,1.4-1.1,2.2C56.5,72.5,48.6,73.3,40.7,76.9z"/>
	<path class="st1" d="M109.3,76.9c-7.9-3.6-15.7-4.4-23.6,0.1c-0.7-1.5-1.3-2.8-2-4.1c5.4-4.6,18.9-4.7,27.3-0.3
		C110.5,74,109.9,75.4,109.3,76.9z"/>
	<path class="st1" d="M41.7,86.2c0.7-1.4,1.4-2.6,2.1-4.1c2.9,1.5,5.7,2.9,9,3.1c3.4,0.2,6.2-1.3,9-3.2c0.8,1.3,1.6,2.6,2.4,3.9
		C57,91.1,50.1,91.1,41.7,86.2z"/>
	<path class="st1" d="M106.1,82c0.8,1.5,1.5,2.8,2.2,4.1c-8.2,5-15.4,5-22.5-0.2c0.8-1.3,1.6-2.5,2.5-4
		C94.2,86.7,100.1,85.8,106.1,82z"/>
	<path class="st1" d="M84.8,122.8c-0.3,1.6-0.7,3-1,4.5c-5.9-1.6-11.8-1.7-17.7,0c-0.3-1.6-0.7-3-1-4.6
		C71.7,121,78.2,121,84.8,122.8z"/>
	<path class="st1" d="M62.3,93c1.1,1.2,2.1,2.2,3.1,3.3c-2.8,3.6-6.4,4.6-9.9,2.3c-1.3-0.8-2.7-1-4.2-0.7c-0.7,0.1-1.4,0.3-2.2,0.5
		c-0.3-1.5-0.7-3-1-4.5c3.5-1.2,6.8-1.2,10,0.7c1.1,0.7,1.7,0.6,2.7-0.3C61.3,94,61.7,93.6,62.3,93z"/>
	<path class="st1" d="M101.3,94.1c-0.4,1.4-0.7,2.9-1.1,4.4c-0.8-0.2-1.5-0.4-2.2-0.5c-1.4-0.3-2.7-0.2-4,0.5
		c-3.3,1.8-5.7,1.5-8.5-1.1c-0.4-0.3-0.7-0.7-1.1-1c1-1.1,2.1-2.2,3.1-3.4c0.6,0.5,1.1,1,1.7,1.5c0.6,0.5,1.2,0.8,2,0.3
		C94.4,92.7,97.7,92.8,101.3,94.1z"/>
	<path class="st1" d="M54.7,107.3c-1.5,0-3,0-4.5,0c0-1.5,0-3,0-4.6c1.5,0,3,0,4.5,0C54.7,104.2,54.7,105.7,54.7,107.3z"/>
	<path class="st1" d="M96.1,102.7c1.6,0,3,0,4.6,0c0,1.5,0,3,0,4.6c-1.5,0-3,0-4.6,0C96.1,105.7,96.1,104.2,96.1,102.7z"/>
	<path class="st1" d="M40.8,109.6c1.6,0,3,0,4.6,0c0,1.5,0,3,0,4.5c-1.5,0-3,0-4.6,0C40.8,112.7,40.8,111.2,40.8,109.6z"/>
	<path class="st1" d="M59.4,109.7c1.5,0,3,0,4.6,0c0,1.5,0,3,0,4.5c-1.5,0-3,0-4.6,0C59.4,112.7,59.4,111.2,59.4,109.7z"/>
	<path class="st1" d="M86.8,114.2c0-1.6,0-3,0-4.5c1.5,0,3,0,4.6,0c0,1.5,0,3,0,4.5C89.9,114.2,88.4,114.2,86.8,114.2z"/>
	<path class="st1" d="M52.4,123.5c-1.6,0-3,0-4.5,0c0-1.5,0-3,0-4.6c1.5,0,3,0,4.5,0C52.4,120.5,52.4,122,52.4,123.5z"/>
	<path class="st1" d="M105.4,114.2c0-1.5,0-3,0-4.5c1.5,0,3,0,4.6,0c0,1.5,0,3,0,4.5C108.5,114.2,107,114.2,105.4,114.2z"/>
	<path class="st1" d="M103,123.5c-1.5,0-3,0-4.5,0c0-1.5,0-3,0-4.6c1.5,0,2.9,0,4.5,0C103,120.5,103,121.9,103,123.5z"/>
	<path class="st1" d="M43.1,100.4c0,1.5,0,3,0,4.5c-1.5,0-3,0-4.5,0c0-1.5,0-3,0-4.5C40,100.4,41.5,100.4,43.1,100.4z"/>
	<path class="st1" d="M112.2,104.9c-1.5,0-3,0-4.5,0c0-1.5,0-3,0-4.5c1.5,0,2.9,0,4.5,0C112.2,101.9,112.2,103.4,112.2,104.9z"/>
</g>
<g>
	<path class="st1" d="M272.1,314.4c-0.2,0.9-0.4,1.8-0.7,2.7c-3.1,9.7-14.4,13.8-23,8.4c-0.7-0.5-1.2-0.4-1.9,0
		c-5.9,3.2-11.7,6.4-17.6,9.7c-0.7,0.4-1.4,1-2,1.6c-0.8,0.7-1,1.7-0.7,2.7c0.4,1,1.2,1.5,2.3,1.6c2.5,0.3,4.8-0.2,7.2-0.9
		c0.4-0.1,0.7-0.2,1.1-0.3c1.9-0.6,3.5-1.5,4.9-3.2c4.4-5.3,12-6.7,18.3-3.7c6.1,2.9,9.7,9.8,8.5,16.5c-1.2,6.9-6.7,12.1-13.6,12.9
		c-7.6,0.8-14.5-3.8-16.6-11.1c-0.1-0.3-0.2-0.5-0.3-0.8c-2.7,0.1-5.4,0.4-7.9,1.7c-1.9,1-2.9,2.4-2.9,4.8c0.1,4.1,0,8.2,0,12.3
		c0,3.2,1.8,5.1,5,5.3c5,0.3,8.8,3.1,10.2,7.5c0.6,2-0.3,3.1-2.3,2.7c-4.8-0.9-9.6-1.7-14.6-1.2c-1.5,0.1-2.9,0.7-4.3,1.1
		c-0.5,0.1-1.2,0.3-1.6,0.1c-2.1-1.2-4.5-1.4-6.8-1.3c-4.2,0.3-8.3,0.9-12.5,1.4c-1.7,0.2-2.7-0.7-2.2-2.4c1.1-4.2,4.9-7.4,9.3-7.8
		c0.2,0,0.3,0,0.5,0c4-0.3,5.6-2,5.6-6c0-4,0-7.9,0-11.9c0-1.7-0.7-3-2-3.9c-1.8-1.3-4-1.8-6.2-2.1c-0.8-0.1-1.6-0.1-2.6-0.2
		c-0.1,0.4-0.2,0.7-0.3,1c-2.1,6.7-8.6,11.4-15.4,11c-7.6-0.4-13.5-5.7-14.8-12.9c-1.2-7.1,2.7-14.1,9.4-16.9
		c6.5-2.7,14.2-0.5,18.4,5.2c0.3,0.5,0.9,0.9,1.4,1.1c2.8,1.2,5.6,2.1,8.7,2.3c0.7,0,1.4,0,2.1-0.1c1-0.1,1.8-0.6,2.2-1.6
		c0.4-1,0.2-2-0.6-2.6c-1.1-1-2.3-1.9-3.6-2.6c-5.5-3-11-6-16.5-9c-0.6-0.3-0.9,0-1.4,0.2c-7.2,4.6-16.6,2.6-21.3-4.5
		c-6.4-9.6-0.3-22.7,11.1-24c10.2-1.2,18.6,7.5,17.3,17.6c0,0.4,0.1,0.9,0.3,1.1c3.2,2,6.5,4,9.8,5.9c0.9,0.5,1.9,0.7,2.9,1
		c1,0.3,1.6-0.1,1.7-1.1c0.2-1.8,0.3-3.5,0.2-5.3c0-1.5-0.3-3-0.6-4.5c-0.1-0.5-0.5-1-0.9-1.2c-5.5-3.2-8.4-7.9-8.1-14.3
		c0.2-6.2,3.3-10.7,8.8-13.4c9.5-4.7,21.1,1.8,22,12.3c0.6,6.9-2.2,12-8.2,15.4c-0.3,0.2-0.6,0.5-0.7,0.9c-0.6,3-0.9,6-0.6,9.1
		c0.2,2.2,0.7,2.5,2.8,1.8c3.6-1.2,6.8-3.4,10-5.4c1.6-1,2.3-1.9,2.1-4c-0.4-8.2,5.6-15.2,13.5-16c8.4-0.9,15.7,4.5,17.2,12.9
		c0,0.2,0.1,0.3,0.2,0.5C272.1,311.6,272.1,313,272.1,314.4z M242.4,318.8c-1.2,0.8-2.3,1.5-3.4,2.2c-3.2,2-6.3,4-10,4.8
		c-3,0.7-5.1-0.4-5.7-3.5c-0.4-1.8-0.4-3.7-0.5-5.5c0-1.6,0.2-3.2,0.3-4.7c-1.9,0-3.7,0-5.5,0c0.1,1.4,0.3,2.8,0.4,4.2
		c0.2,2.3,0.1,4.6-0.7,6.8c-0.8,2.2-2.2,3.1-4.5,2.8c-1-0.1-2.1-0.3-3-0.8c-3-1.5-6-3.2-9-4.9c-0.9-0.5-1.6-1.1-2.4-1.6
		c-0.8,1.2-1.5,2.4-2.3,3.6c4.1,2.2,8.2,4.2,12.1,6.5c2.7,1.6,5.4,3.2,7.9,5.2c2.1,1.6,2.7,4,1.7,6.6c-1,2.5-3,3.7-5.7,3.9
		c-3,0.2-5.8-0.4-8.7-1.3c-0.2-0.1-0.5-0.1-0.7-0.2c0.2,1.3,0.3,2.5,0.5,3.8c1.1,0.1,2.2,0.2,3.3,0.4c2.8,0.4,5.5,1.2,7.8,3.2
		c1.5,1.4,2.6,3,2.7,5.1c0,4.8,0.1,9.6,0,14.4c-0.1,4.4-3.7,7.8-8.1,7.9c-0.7,0-1.4,0-2,0.2c-1.6,0.4-2.9,1.1-3.9,2.6
		c2.1-0.2,3.9-0.5,5.8-0.7c3.8-0.3,7.7-0.5,11.4,0.9c0.2,0.1,0.5,0.1,0.8,0c2.8-1.1,5.7-1.2,8.6-1.1c2.8,0.1,5.6,0.4,8.5,0.7
		c-1.4-1.8-3.3-2.6-5.6-2.7c-5-0.1-8.4-3.6-8.4-8.6c0-4.3,0-8.5,0-12.8c0-2.7,1-4.9,3.2-6.3c1.6-1.1,3.4-1.8,5.3-2.4
		c1.7-0.5,3.5-0.6,5.3-0.9c0.1-1.2,0.3-2.4,0.5-3.7c-0.5,0.2-0.9,0.3-1.3,0.4c-2.7,0.8-5.4,1.3-8.3,1.1c-2.6-0.2-4.5-1.4-5.5-3.8
		c-1-2.4-0.4-4.7,1.5-6.5c0.8-0.8,1.7-1.6,2.7-2.1c5.4-3.1,10.9-6.1,16.4-9.1c0.3-0.2,0.7-0.4,1-0.6
		C243.9,321.2,243.2,320.1,242.4,318.8z M194.7,318.1c2.4-3.6,2.3-10.3-2.4-14.6c-4.5-4.1-11.6-4.2-16.2-0.1c-4.7,4.2-5,11-2.4,14.8
		c0.7-0.8,1.3-1.6,2-2.3c0.7-0.7,1.6-1.3,2.3-1.9c-1.3-4-0.7-6.7,1.9-8.7c2.3-1.8,5.5-1.9,8-0.4c1.2,0.8,2.1,1.8,2.6,3.2
		c0.8,2,0.6,4-0.2,5.7C191.9,315.3,193.3,316.7,194.7,318.1z M230.9,302.6c2.9-4.7,1.6-11.6-3.1-15.2c-4.8-3.8-11.8-3.3-16.1,1.1
		c-4.5,4.6-4,11.3-1.9,14.1c1.4-1.4,2.9-2.8,4.4-4.3c-1.3-3.3-0.8-6.3,1.7-8.4c2.3-1.9,5.6-2.1,8.1-0.5c1.3,0.8,2.2,1.9,2.7,3.4
		c0.8,2,0.5,3.9-0.3,5.5C228.1,299.8,229.5,301.2,230.9,302.6z M198.1,352.7c3-4.9,1.6-11.8-3.1-15.4c-4.9-3.8-11.9-3.2-16.1,1.2
		c-4.3,4.5-3.9,11-1.7,14c1.4-1.4,2.9-2.8,4.4-4.3c-1.3-3.3-0.8-6.3,1.7-8.4c2.3-1.9,5.5-2.2,8-0.6c1.3,0.8,2.2,1.8,2.8,3.2
		c0.9,2,0.6,4.1-0.3,5.9c0.8,0.7,1.7,1.3,2.4,2C196.8,351,197.4,351.9,198.1,352.7z M250.4,313.8c-1.3-3.6-0.7-6.5,2-8.6
		c2.4-1.8,5.7-1.9,8.1-0.2c2.8,2,3.5,4.8,2.2,8.9c0.8,0.6,1.6,1.2,2.4,2c0.7,0.7,1.3,1.5,2,2.3c2.9-4.5,1.8-11.3-2.6-15
		c-4.6-4-11.5-3.9-16,0.2c-4.8,4.4-4.7,11.2-2.4,14.6C247.5,316.7,248.9,315.2,250.4,313.8z M263.7,352.5c2.9-4.7,1.6-11.5-3-15.1
		c-4.8-3.8-11.7-3.5-16.1,0.9c-4.4,4.4-4.2,11-2,14.2c1.4-1.4,2.9-2.8,4.4-4.3c-1.3-3.5-0.7-6.4,1.8-8.5c2.3-1.9,5.6-2,8.1-0.4
		c1.2,0.8,2.1,1.9,2.6,3.3c0.7,2,0.5,3.9-0.3,5.5C260.8,349.7,262.2,351.1,263.7,352.5z M192.2,321.3c-0.8-2-2.1-3.5-3.9-4.4
		c-0.3-0.2-0.8-0.2-1.1,0c-2,0.9-4,0.9-5.9,0c-0.3-0.1-0.7-0.2-0.9,0c-1.9,1-3.3,2.5-4.1,4.5C180.4,325.4,187.7,325.5,192.2,321.3z
		 M256.5,324.4c2.7,0,5.2-0.9,7.4-2.5c0.5-0.4,0.7-0.7,0.3-1.4c-0.8-1.5-2-2.8-3.5-3.6c-0.3-0.2-0.9-0.2-1.3,0
		c-1.9,0.8-3.8,0.8-5.8,0c-0.4-0.2-0.9-0.2-1.3,0c-1.6,0.8-2.7,2.1-3.5,3.6c-0.3,0.6-0.2,1,0.3,1.4
		C251.4,323.5,253.8,324.4,256.5,324.4z M187.7,358.9c2.8-0.1,5.2-0.9,7.4-2.6c0.5-0.4,0.6-0.7,0.3-1.3c-0.8-1.5-1.9-2.7-3.4-3.6
		c-0.5-0.3-0.9-0.4-1.5-0.1c-1.6,0.8-3.3,1-4.9,0.3c-1.6-0.8-2.6-0.2-3.6,0.8c-0.8,0.8-1.4,1.7-2.1,2.6c-0.3,0.5-0.2,0.8,0.2,1.2
		C182.4,358,184.9,358.8,187.7,358.9z M261.1,355.7c-0.8-1.9-2-3.4-3.8-4.3c-0.3-0.2-0.9-0.2-1.3-0.1c-2,0.8-3.9,0.8-5.9,0
		c-0.3-0.1-0.8-0.2-1.1,0c-1.7,0.8-2.9,2.1-3.7,3.8c-0.1,0.3,0,0.8,0.2,1C249.7,359.9,257.1,359.7,261.1,355.7z M212.4,305.8
		c4.3,4.2,12.1,4.1,16,0c-0.8-2-2.1-3.5-4-4.4c-0.3-0.1-0.7-0.1-1,0c-2,0.9-4,0.9-5.9,0c-0.3-0.1-0.7-0.2-0.9,0
		C214.5,302.3,213.2,303.8,212.4,305.8z M260,310.7c0-1.9-1.5-3.5-3.4-3.5c-1.9,0-3.4,1.6-3.4,3.5c0,1.9,1.5,3.4,3.4,3.4
		C258.4,314.1,260,312.6,260,310.7z M187.7,310.7c0-1.9-1.6-3.5-3.5-3.5c-1.9,0-3.5,1.6-3.4,3.5c0,1.8,1.6,3.4,3.4,3.4
		C186.1,314.1,187.7,312.5,187.7,310.7z M220.4,298.6c1.9,0,3.5-1.5,3.5-3.4c0-1.9-1.5-3.4-3.5-3.4c-1.9,0-3.4,1.5-3.4,3.4
		C216.9,297,218.4,298.6,220.4,298.6z M184.2,345.1c0,1.9,1.5,3.5,3.4,3.5c1.9,0,3.4-1.5,3.4-3.5c0-1.9-1.5-3.4-3.4-3.4
		C185.8,341.6,184.3,343.2,184.2,345.1z M249.7,345.1c0,1.9,1.5,3.5,3.4,3.5c1.9,0,3.4-1.5,3.4-3.5c0-1.9-1.5-3.4-3.4-3.4
		C251.3,341.6,249.7,343.1,249.7,345.1z"/>
</g>
</svg>
