<?xml version="1.0" encoding="utf-8"?>
<!-- Generator: Adobe Illustrator 24.3.0, SVG Export Plug-In . SVG Version: 6.00 Build 0)  -->
<svg version="1.1" id="Layer_1" xmlns="http://www.w3.org/2000/svg" xmlns:xlink="http://www.w3.org/1999/xlink" x="0px" y="0px"
	 viewBox="0 0 150 150" style="enable-background:new 0 0 150 150;" xml:space="preserve">
<style type="text/css">
	.st0{fill:#5F6368;}
	.st1{fill:#005BAB;}
</style>
<path class="st0" d="M2053.7-657.2c-2.1,0-3.6,0-5.1,0C2049.8-661.3,2051.5-660.2,2053.7-657.2z"/>
<path class="st0" d="M647.6-31.1c1.8-3.6,3.4-2.9,5.2,0C651-31.1,649.5-31.1,647.6-31.1z"/>
<g>
	<path class="st1" d="M106.1,0.7c1.9,0.4,3.8,0.8,5.6,1.4c3.5,1.1,6.2,3.3,8.2,6.4c0.3,0.5,0.9,1,1.4,1.1c4.5,1,7.7,3.6,10,7.4
		c2.9,4.7,4,9.9,4.2,15.4c0.4,10.2-2,19.8-5.9,29.2c-3.6,8.8-8.5,16.8-14.1,24.4c-0.5,0.7-0.8,1.7-0.9,2.6c-0.1,2.6-0.1,5.1,0,7.7
		c0,0.8,0.3,1.7,0.8,2.4c6,8.4,10.8,17.3,13.3,27.3c1.7,6.9,2.2,13.8,2.2,20.9c0,1.5-0.9,2.5-2.2,2.6c-1.3,0.1-2.2-0.7-2.4-2.2
		c-0.2-1.6-0.3-3.2-0.3-4.8c0.2-15.2-5.4-28.5-14.1-40.6c-0.1-0.1-0.2-0.2-0.3-0.3c-3,1.3-6,2.8-9.1,4c-8.7,3.6-17.7,6.1-27.2,6.8
		c-0.5,0-1.1,0.5-1.4,0.9c-5.1,8.5-8.7,17.5-9.9,27.3c-0.3,2.1-0.3,4.1-0.4,6.2c-0.1,1.8-0.9,2.7-2.4,2.7c-1.5,0-2.3-1-2.3-2.7
		c0.1-8.9,2.3-17.3,5.7-25.4c3.1-7.4,7.2-14.3,12.3-20.6c0.3-0.4,0.6-0.9,0.6-1.4c0.1-2.3,0-4.6,0-7.2c-2.5,0.6-4.9,1.2-7.2,1.8
		c-4.7,1.1-8.6-0.1-11.7-3.8c-0.8-0.9-1.3-2-1.8-3.1c-0.7-1.7-0.3-2.6,1.3-3.5c1.6-0.8,3.2-1.6,4.8-2.3c-0.6-1.9-1.4-2.6-3.2-2.7
		c-1,0-2,0-3,0.2c-1.4,0.2-2.3-0.3-2.8-1.5c-0.2-0.4-0.4-0.9-0.5-1.4c-0.3-2.8-1.9-4.5-4.3-5.6c-1.1-0.5-2.2-1.3-3.2-2
		c-1.6-1-1.9-2.4-0.7-3.9c2-2.6,4.1-5.2,6.1-7.9c0.4-0.5,0.7-1.3,0.7-2c0.1-4.1,0-8.1,0-12.2c0-0.5-0.2-1.2-0.5-1.5
		C45.6,36,42.9,30,41.3,23.3c-1.1-4.3-1.4-8.8-1.2-13.2c0.1-1.2,0.4-2.3,1.7-2.7C43.1,7,44,7.6,44.7,8.7c1.2,1.9,3.2,2.6,5.3,2.7
		c4.4,0.4,8.7-0.5,12.9-1.7c3.9-1,7.8-2.2,11.7-3.4c1.5-0.4,2.6,0.1,3,1.4c0.5,1.2,0,2.5-1.4,2.9c-7.6,2.2-15,4.9-23,5.4
		c-2.9,0.2-5.7-0.1-8.5-1.3c0.4,6.4,1.5,12.4,5.2,17.6c3.5,5,8.4,7.5,14.4,7.6c7,0.1,14,0,20.9,0.1c0.4,0,0.9,0,1.3,0
		c1.4,0.1,2.3,1.1,2.2,2.4c0,1.3-0.9,2.2-2.2,2.2c-8.3-0.1-16.7-0.1-25-0.3c-1.7,0-3.5-0.7-5.3-1.1c0,3.9,0.1,7.7,0,11.6
		c0,1.1-0.5,2.3-1.1,3.2c-1.6,2.3-3.5,4.5-5.3,6.9c1.2,0.8,2.4,1.6,3.6,2.2c1.8,0.9,3,2.2,3.3,4.3c0.2,1.5,0.9,2.1,2.6,2.1
		c3.5-0.1,6,1.6,7.4,4.8c0.1,0.3,0.3,0.6,0.4,0.9c1.4,3.3,1.1,4-2.1,5.5c-1.1,0.5-2.2,1-3.3,1.5c1,2.2,3.7,3.5,6.3,2.9
		c3.1-0.7,6.2-1.5,9.3-2.3c0.6-0.1,1.1-0.3,1.7-0.4c1.6-0.2,2.8,0.7,2.8,2.3c0,3.8,0.1,7.6,0,11.5c0,0.7-0.5,1.4-0.9,2
		c-1.1,1.5-2.3,3-3.4,4.5c0.1,0.1,0.1,0.3,0.2,0.4c3.3-0.7,6.6-1.2,9.9-2c7.4-1.9,14.4-4.7,21.3-8c0.8-0.4,1-0.9,1-1.7
		c0-2.2-0.1-4.5,0-6.7c0-0.9-0.3-1.4-1.1-1.7c-4.1-1.9-7.6-4.6-10.4-8.2c-1.2-1.6-0.8-3.3,0.9-3.9c1.3-0.5,2.1,0.1,2.9,1.1
		c2.1,2.7,4.7,4.8,7.8,6.4c0.5,0.2,1,0.4,1.8,0.8c2.8-4.4,5.7-8.6,8.3-13.1c4.9-8.6,8.5-17.7,10.1-27.5c1.1-6.7,1.2-13.3-1-19.8
		c-0.9-2.5-2.2-4.9-4.2-6.7c-1.6-1.4-3.4-2.2-5.5-2.5c-0.9-0.1-2.1-0.6-2.4-1.3c-3.8-7.2-10.3-7.8-17.2-7.2C98,5.7,96.3,6,94.6,6.2
		c-2,0.3-3.1-0.3-3.3-1.8c-0.2-1.6,0.6-2.5,2.7-2.8c1.9-0.3,3.8-0.6,5.7-0.9C101.8,0.7,103.9,0.7,106.1,0.7z"/>
	<path class="st1" d="M25.4,87.1c-0.2,0.3-0.3,0.5-0.4,0.8c-1.8,4.8-3.6,9.6-5.4,14.4c-0.2,0.7-0.1,1.5,0,2.2
		c2.1,9.2,4.2,18.3,6.3,27.5c0.1,0.5,0.2,1,0.2,1.6c0,4.3,0,8.5,0,12.8c0,1.8-0.8,2.9-2.3,2.9c-1.5,0-2.5-1.1-2.3-3
		c0.9-10.3-1.4-20.1-3.9-30c-1-4.2-2-8.4-2.9-12.6c-0.1-0.6-0.1-1.4,0.1-2c2.1-5.8,4.2-11.5,6.4-17.2c1-2.6,1.9-3,4.6-2.3
		c3.9,1,6.4,4.8,5.6,8.7c-0.7,3.5-1.7,7-2.5,10.6c-0.2,0.8-0.1,1.6,0.1,2.4c0.9,3,2,6,2.9,8.9c0.3,1,0.9,1.8,2.1,1.6
		c1.2-0.2,1.5-1.1,1.5-2.2c0-1.6,0-3.2,0-4.8c0.1-3.9,3.2-7,7.1-6.9c3.8,0.1,6.8,3.2,6.9,7c0.2,6.4-0.2,12.8-2.9,18.7
		c-1,2.2-2.3,4.3-3.3,6.4c-0.3,0.7-0.6,1.5-0.6,2.3c0.2,3.9,0.6,7.7,0.9,11.6c0.1,1.6-0.8,2.6-2.2,2.7c-1.3,0.1-2.3-0.8-2.4-2.3
		c-0.4-4.4-0.8-8.8-1-13.2c-0.1-0.8,0.2-1.8,0.6-2.4c4.4-6.2,6.4-13,6.3-20.6c0-1.1,0-2.2,0-3.3c-0.1-1.4-1-2.3-2.3-2.3
		c-1.3,0-2.3,0.9-2.3,2.3c-0.1,1.7,0,3.5,0,5.2c0,3.4-2.1,5.8-5.4,6.3c-3,0.5-5.9-1.1-7-4.2c-1.3-3.6-2.5-7.3-3.6-11
		c-0.2-0.6-0.2-1.3,0-2c0.9-3.8,1.8-7.5,2.8-11.2C27.1,89.1,26.7,88,25.4,87.1z"/>
	<path class="st1" d="M116.8,137.1c0,3.1,0,6.2,0,9.3c0,1.9-0.8,2.9-2.3,2.8c-1.5,0-2.3-1-2.3-2.9c0-6.1,0.1-12.2,0-18.3
		c-0.1-6.3-5.3-11.3-11.5-11.3c-6.4,0-11.6,5-11.7,11.4c-0.1,6.1,0,12.2,0,18.3c0,1.1-0.2,2.1-1.4,2.6c-1.5,0.6-3.2-0.3-3.2-1.9
		c0-7.2-0.3-14.4,0.3-21.6c0.7-7.7,8-13.5,15.9-13.5c7.9,0,15,5.8,15.9,13.6c0.4,3.8,0.1,7.6,0.1,11.4
		C116.6,137.1,116.7,137.1,116.8,137.1z"/>
	<path class="st1" d="M107.8,56.1c-0.4,3.1-0.9,6-2.4,8.6c-2.1,3.6-5.3,5.2-9.4,5.3c-1.4,0-2.3-0.9-2.4-2.2
		c-0.1-1.3,0.7-2.4,2.1-2.4c4.3-0.1,6.6-3.1,6.9-7c0.2-1.9-0.1-3.9-0.4-5.9c-0.1-0.8-0.8-1.7-1.4-2.3c-1.5-1.5-3.5-1.1-4.4,0.8
		c-0.4,0.9-0.5,1.9-0.6,2.8c-0.2,1.4-1.1,2.2-2.4,2.1c-1.3-0.1-2.1-0.9-2.2-2.2c-0.3-4.1,2.3-7.9,5.8-8.8c3.7-0.9,7.5,1,9.1,5
		C107,51.8,107.3,54,107.8,56.1z"/>
	<path class="st1" d="M42.2,93.7c-0.6-0.4-1.5-0.8-1.7-1.5c-0.3-0.7-0.2-1.9,0.2-2.4c1.6-1.8,3.3-3.5,5.1-5.1c0.9-0.8,2-0.6,2.9,0.2
		c0.8,0.8,1.2,1.9,0.4,2.7c-1.7,1.9-3.6,3.7-5.5,5.5C43.3,93.5,42.8,93.5,42.2,93.7z"/>
	<path class="st1" d="M42.5,79.6c-0.9,0-1.7,0.1-2.6,0c-1.3-0.1-2.2-1.1-2.1-2.3c0-1.2,0.9-2.2,2.2-2.3c1.7-0.1,3.4-0.1,5.1,0
		c1.3,0.1,2,1,2,2.2c0.1,1.2-0.8,2.2-2,2.4C44.1,79.7,43.3,79.6,42.5,79.6z"/>
	<path class="st1" d="M56.3,95.9c0,0.8,0,1.6,0,2.5c-0.1,1.3-1,2.2-2.2,2.2c-1.3,0-2.3-0.8-2.4-2.2c-0.1-1.6-0.1-3.3,0-4.9
		c0.1-1.3,1-2.1,2.3-2.1c1.3,0,2.2,0.8,2.3,2.1c0,0.1,0,0.2,0,0.3C56.3,94.4,56.3,95.1,56.3,95.9C56.3,95.9,56.3,95.9,56.3,95.9z"/>
	<path class="st1" d="M86.6,5.4c0,1.3-1,2.3-2.3,2.3c-1.4,0-2.4-1-2.4-2.4C82,4,83,3,84.3,3.1C85.6,3.1,86.6,4.1,86.6,5.4z"/>
</g>
</svg>
