<?xml version="1.0" encoding="utf-8"?>
<!-- Generator: Adobe Illustrator 24.3.0, SVG Export Plug-In . SVG Version: 6.00 Build 0)  -->
<svg version="1.1" id="Layer_1" xmlns="http://www.w3.org/2000/svg" xmlns:xlink="http://www.w3.org/1999/xlink" x="0px" y="0px"
	 viewBox="0 0 150 150" style="enable-background:new 0 0 150 150;" xml:space="preserve">
<style type="text/css">
	.st0{fill:#005BAB;}
</style>
<g>
	<path class="st0" d="M511.3-48c-0.8-0.5-1-1.3-1-2.2c0-2.4,0-4.8,0-7.2c-0.6,0-1.1,0-1.7-0.1c-1.7-0.1-2.7-1.2-2.7-2.8
		c0-2.9,0-5.9,0-8.8c0-1.7,1.1-2.7,2.7-2.8c0.4,0,0.7,0,1.1,0c21.5,0,43.1,0,64.6,0c0.4,0,0.9,0,1.4,0c0-0.5,0-0.8,0-1.2
		c0-3.2,0-6.5,0-9.7c0-1.2,0.3-2.1,1.1-2.9c2-2.3,4-4.7,6-7.1c-0.6-0.6-1.1-1.3-1.7-1.9c-1.9-2.2-3.9-4.4-5.8-6.6
		c-0.4-0.5-0.8-0.6-1.4-0.3c-2.2,1-4.1,2.4-6,4c-1.4,1.1-2,2.1-2,3.9c-0.1,4.3-3.9,7.6-8.3,7.5c-4.3-0.1-7.9-3.6-7.8-7.9
		c0-1.6-0.6-2.4-1.7-3.4c-1.9-1.7-4.1-2.9-6.3-4c-0.3-0.1-0.9-0.1-1,0.1c-2.5,2.8-5,5.7-7.5,8.6c0,0,0,0.1-0.1,0.2
		c2,2.4,4,4.8,6.1,7.2c0.6,0.7,1,1.5,0.9,2.5c-0.1,1.7,0,3.5,0,5.2c0,1.3-0.6,2-1.6,1.9c-1,0-1.4-0.7-1.4-1.9c0-1.6,0-3.1,0-4.7
		c0-0.5-0.2-1-0.5-1.4c-5.2-6.3-10.5-12.5-15.8-18.7c-1-1.2-1.9-2.5-2.5-3.9c-2.2-5,0.8-9.7,6.2-9.7c2.2,0,4.3,0.4,6.5,0.7
		c3.1,0.4,6.2,0.8,9.4,1.2c-0.3-6.1,1.2-11.5,6.1-15.4c3.6-2.9,7.9-4.1,12.5-3.8c5,0.2,9.3,2.1,12.7,5.9c3.3,3.8,4.2,8.4,4,13.4
		c2.7-0.4,5.2-0.7,7.8-1c2.2-0.3,4.4-0.6,6.7-0.9c4-0.5,7.5,1.9,8.2,5.4c0.3,1.9-0.1,3.7-1.1,5.3c-1.3,1.9-2.7,3.7-4.2,5.5
		c-4.5,5.4-9.1,10.8-13.6,16.1c-0.2,0.3-0.5,0.7-0.5,1c0,3.6,0,7.2,0,11c0.5,0,0.9,0,1.3,0c8.8,0,17.5,0,26.3,0
		c2.7,0,3.6,0.9,3.6,3.5c0,2.5,0,5,0,7.4c0,2.5-0.9,3.4-3.4,3.5c-0.3,0-0.5,0-0.9,0c0,1.5,0,2.9,0,4.4c0,1,0,1.9,0,2.9
		c0.1,0.9-0.2,1.7-1,2.2C573.6-48,542.5-48,511.3-48z M602.6-57.5c-0.5,0-0.9,0-1.4,0c-12.9,0-25.7,0-38.6,0c-0.4,0-0.9,0-1.3-0.1
		c-0.8-0.2-1.1-0.7-1.1-1.5c0-0.8,0.4-1.3,1.2-1.4c0.4-0.1,0.9-0.1,1.3-0.1c14.3,0,28.6,0,43,0c0.4,0,0.8,0,1.3,0c0-2.9,0-5.6,0-8.3
		c-32.7,0-65.3,0-97.9,0c0,2.8,0,5.5,0,8.3c0.5,0,0.9,0,1.4,0c14.5,0,29,0,43.5,0c0.4,0,0.8,0,1.2,0.1c0.8,0.1,1.2,0.6,1.3,1.4
		c0,0.8-0.4,1.4-1.2,1.5c-0.4,0.1-0.9,0.1-1.3,0.1c-13,0-26.1,0-39.1,0c-0.4,0-0.9,0-1.3,0c0,2.2,0,4.3,0,6.4c29.8,0,59.4,0,89.1,0
		C602.6-53.2,602.6-55.3,602.6-57.5z M543.6-114.9c0.2,4.3,1.1,8.2,3.4,11.6c3.3,4.9,8.9,7.1,14.3,5.8c8-2,11.4-10.4,11.3-17.3
		c-6.6-0.4-12.8-1.9-18.4-5.5C551.4-117,547.9-115.3,543.6-114.9z M542.5-104.8c-0.5-1.9-1-3.6-1.4-5.4c-0.2-0.9-0.6-1.2-1.4-1.3
		c-4-0.5-8.1-1.1-12.1-1.5c-1.3-0.2-2.7-0.3-4,0c-2.2,0.4-3.3,2.2-2.6,4.3c0.5,1.4,1.2,2.7,2.2,3.9c2.4,3.1,5,6,7.5,9
		c0.2,0.2,0.2,0.5,0.4,0.8c2.6-2.9,4.9-5.6,7.4-8.4c-0.6-0.3-1.2-0.6-1.7-0.9c-1-0.5-1.3-1.3-0.9-2.2c0.4-0.9,1.3-1.1,2.3-0.5
		C539.6-106.3,541-105.6,542.5-104.8z M585-95.1c0.1-0.3,0.2-0.4,0.3-0.5c2.6-3.1,5.3-6.3,7.9-9.4c0.6-0.8,1.1-1.6,1.5-2.5
		c1.5-3.2-0.2-5.7-3.7-5.7c-0.4,0-0.7,0-1.1,0.1c-1.8,0.2-3.6,0.5-5.5,0.7c-3,0.4-6,0.8-9,1.2c-0.6,2.2-1.2,4.2-1.8,6.4
		c1.5-0.8,2.9-1.5,4.3-2.2c0.9-0.4,1.8-0.2,2.2,0.6c0.4,0.8,0.1,1.6-0.7,2.1c-0.6,0.3-1.2,0.6-1.9,1C580.2-100.7,582.5-98,585-95.1z
		 M572.6-117.9c-0.5-5.1-2.8-8.8-7.1-11c-5.1-2.6-10.3-2.3-15.6,0.4C555.8-121.1,563.7-118.6,572.6-117.9z M553-94.9
		c-0.1,2.1,0.7,3.7,2.4,4.8c1.8,1.1,3.7,1.1,5.5-0.1c1.6-1.1,2.3-2.6,2.3-4.6C559.7-93.8,556.4-93.8,553-94.9z M543.7-118
		c3.3-0.3,5.9-1.7,7.9-4.1c-1.4-1.5-2.7-2.9-4.1-4.4C545.2-124.2,544-121.4,543.7-118z"/>
	<path class="st0" d="M520.3-149.4c-1.2,0-2.3,0-3.3,0c-1,0-1.7-0.6-1.7-1.5c0-0.9,0.6-1.5,1.7-1.6c2,0,4-0.1,6,0
		c0.6,0,1.4,0.4,1.6,0.9c0.2,0.4,0,1.3-0.3,1.7c-1.3,2-2.8,3.9-4.2,5.8c-0.2,0.3-0.4,0.5-0.7,1c1.4,0,2.7,0,4,0c0.4,0,0.8,0,1.1,0.1
		c0.8,0.2,1.2,0.8,1.2,1.6c-0.1,0.8-0.5,1.4-1.4,1.4c-2.7,0-5.4,0.1-8.1,0c-1.3,0-1.9-1.4-1-2.5c1.4-1.9,2.8-3.8,4.2-5.7
		C519.7-148.6,519.9-148.9,520.3-149.4z"/>
	<path class="st0" d="M530.3-132.6c-1,0-1.7,0-2.4,0c-1.3,0-1.9-0.5-1.9-1.5c0-1,0.6-1.5,1.9-1.5c1.7,0,3.4-0.1,5.1,0
		c0.6,0,1.3,0.4,1.7,0.8c0.5,0.6,0.1,1.3-0.3,1.9c-1,1.4-2,2.7-3,4.1c0,0,0,0.1,0,0.3c0.9,0,1.7,0,2.6,0c1,0,1.7,0.6,1.7,1.5
		c0,0.9-0.7,1.5-1.7,1.5c-1.9,0-3.8,0-5.7,0c-1.5,0-2.1-1.3-1.3-2.6C528-129.5,529.1-130.9,530.3-132.6z"/>
	<path class="st0" d="M558.1-101.8c-1.1-0.3-2.1-0.6-3.1-1c-0.9-0.4-1.2-1.2-0.8-2c0.4-0.8,1.2-1.1,2.1-0.7c1.2,0.6,2.4,0.6,3.6,0
		c0.9-0.4,1.7-0.1,2.1,0.7c0.4,0.8,0.1,1.6-0.8,2C560.2-102.4,559.1-102.2,558.1-101.8z"/>
	<path class="st0" d="M551.6-109c-0.8-0.3-1.6-0.5-2.3-0.8c-0.8-0.4-1-1.3-0.7-2c0.4-0.7,1.1-1.1,1.9-0.7c0.8,0.3,1.5,0.3,2.2,0
		c0.8-0.3,1.5,0,1.9,0.8c0.4,0.8,0.2,1.5-0.6,1.9C553.2-109.5,552.4-109.3,551.6-109z"/>
	<path class="st0" d="M564.6-109c-0.8-0.3-1.6-0.4-2.3-0.8c-0.8-0.4-1.1-1.2-0.7-2c0.3-0.8,1.1-1,2-0.8c0.7,0.1,1.4,0.1,2.1,0
		c0.9-0.2,1.7,0.1,2,0.8c0.3,0.8,0.1,1.5-0.6,1.9C566.2-109.5,565.4-109.3,564.6-109z"/>
</g>
<g>
	<path class="st0" d="M22.4,96.2c-2.2-2.5-3-5.6-3.3-8.9c-0.2-1.4-0.2-2.9-0.3-4.6c-0.7,0.9-1.1,1.7-1.9,2.3c-1.9,1.4-4.4,1.4-6.4,0
		c-1.8-1.3-2.7-3.6-1.9-5.8c1.8-5,3.6-10.1,5.8-14.9c1.3-2.8,3.4-5.3,5.2-7.9c0.8-1.2,1.6-2.4,2.4-3.7c2.5-3.8,6-5.6,10.9-5.9
		c-2.9-1-5-2.2-6.3-4.5c-1.3-2.4-1.6-4.8-0.6-7.4c1.6-4.2,6.3-6.6,10.8-5.5c4.5,1,7.5,4.8,7.2,9.2c-0.3,4.7-3.9,7.9-9.6,8.4
		c0.8,0.2,1.3,0.4,1.7,0.5c4.4,1.4,7.3,4.3,8.6,8.7c0.2,0.7,0.6,1.3,1,1.8c2.8,3.7,5.8,7.2,9.7,9.9c-0.2,0.7-0.9,0.5-1.3,1
		c-3.4-2.3-6.3-5.1-8.8-8.8c-0.3,3.4-0.3,3.4,1.5,5.6c2.2,2.7,3.8,5.7,4.7,9.1c-0.8-0.1-0.7,0.9-1.2,1.1c-1-3-1.9-6.2-4.2-8.4
		c-2.3-2.3-2.7-4.8-2.6-7.9c0.1-3.7-1.6-6.8-4.6-8.9c-3.1-2.2-6.5-2.7-10.5-1.2c0.4,0.2,0.5,0.3,0.6,0.3c3.7,2.1,4.4,5.1,2,8.6
		c-1.9,2.9-4,5.6-5.8,8.5c-2.7,4.2-4.7,8.7-4.9,13.8c-0.2,5.1-0.2,10.1,2.9,14.6c-0.2,0.6,0.1,1.3-0.4,1.8c0,0,0,0,0,0
		c-0.1-0.1-0.2-0.2-0.3-0.3c0,0,0,0,0,0C22.6,96.4,22.5,96.3,22.4,96.2z M31,54.5c0-1.6-1-3-2.5-3.5c-1.6-0.5-3.2-0.1-4.2,1.4
		c-1.6,2.2-3.1,4.4-4.6,6.7c-1.3,2-3,3.9-3.9,6c-2,4.7-3.7,9.5-5.5,14.3c-0.8,2.1,0.1,4,2.1,4.8c1.9,0.8,4-0.1,4.9-2.2
		c0.8-2.1,1.6-4.2,2.4-6.3c1.5-3.9,2.8-8,5.5-11.4c1.8-2.3,3.3-4.8,5-7.2C30.7,56.3,31.1,55.5,31,54.5z M34.7,45.2
		c4.2,0.1,7.8-3,7.9-7c0.2-3.9-3.3-7.3-7.6-7.4c-4.3-0.1-7.8,3.1-7.9,7C27,41.7,30.4,45.1,34.7,45.2z"/>
	<path class="st0" d="M23,96.9c0.5-0.5,0.3-1.2,0.4-1.8c0.8,0.7,1.5,1.7,2.4,2.3c3.2,2.1,6.7,2.7,10.4,3c0.5,0,1-0.1,1.2,0.5
		c0.7,2.1,2,4.1,2.1,6.4c0.3,5.3,0.6,10.7,0.8,16c0.1,2.7,1.7,4.4,4,4.4c2.4,0,4-1.9,3.9-4.6c-0.1-2.3-0.1-4.6-0.3-6.9
		c-0.5-5.6,0.2-11.4-2.6-16.7c-0.3-0.5-0.1-0.8,0.3-1c3.8-2.8,5.3-6.8,5.7-11.3c0.4-3.9-0.1-7.6-0.9-11.4c0.5-0.3,0.3-1.2,1.2-1.1
		c0.3,1.6,1.3,2.6,2.6,3.5c0.8,0.5,1.4,1.1,2.1,1.6c2,1.4,4.1,1.3,5.4-0.4c1.4-1.7,1-3.9-0.9-5.5c-2.2-1.8-4.5-3.5-6.7-5.2
		c0.4-0.4,1.1-0.3,1.3-1c2.2,1.7,4.5,3.4,6.7,5.1c1.7,1.4,2.3,3.2,1.9,5.3c-0.4,2-1.6,3.3-3.5,3.9c-1.7,0.5-3.4,0.3-4.8-0.8
		c-0.9-0.7-1.8-1.4-3-2.3c0.3,2.2,0.4,4.1,0.4,6c0,2.5-0.4,5-1.2,7.4c-0.8,2.5-2.1,4.6-4.1,6.4c-0.4,0.3-0.9,0.5-0.5,1.2
		c1.8,3.6,1.7,7.6,2,11.4c0.3,4,0.4,8,0.5,12c0.1,3.9-3.3,6.6-7,5.6c-2.4-0.6-3.9-2.6-4.1-5.4c-0.3-5.1-0.5-10.1-0.7-15.2
		c-0.1-2-0.4-3.9-1.6-5.6c-0.3,0.3-0.3,0.6-0.2,0.9c0.5,3-0.4,5.8-1.5,8.6c-1.6,4.3-3.2,8.7-4.8,13c-0.8,2.2-2.8,3.6-5.1,3.6
		c-2.3,0-4.4-1.4-5.3-3.6c-0.6-1.4-0.4-2.9,0.1-4.3c1.4-3.8,2.7-7.7,4.2-11.4c0.9-2.3,1.3-4.6,1.2-7C25.1,100.4,25.2,98.3,23,96.9z
		 M34.7,105.1c0-0.6,0-1,0-1.4c0.2-1.4-0.3-2-1.8-2.1c-1.7-0.1-3.3-0.5-4.8-1.2c-1.3-0.6-1.4-0.3-1.4,1c0,2.1,0.5,4.2-0.2,6.2
		c-1.8,4.9-3.6,9.8-5.4,14.8c-0.3,0.9-0.4,1.9,0.1,2.8c0.8,1.6,2.1,2.4,3.8,2.4c1.8-0.1,3-1.1,3.6-2.7c1.8-4.9,3.5-9.8,5.3-14.6
		C34.5,108.4,34.9,106.7,34.7,105.1z"/>
	<path class="st0" d="M106.3,11c2.4-0.3,4.7,0.3,7,0.9c2.1,0.6,4.1,0.5,6-0.3c3.3-1.5,6.6-1.5,9.9-0.3c2.5,0.9,5,0,7.6,0.1
		c3.8,0.1,6.2,4.1,4.3,7.5c-0.8,1.5-2.1,2.6-3.7,3.2c-2.3,0.9-4.1,2.3-5.7,4.1c-2.3,2.4-5,3.4-8.2,3.6c-2.7,0.2-5.5,0.2-8.1,1.4
		c-1,0.4-1.8,1.2-2.6,1.8c-1.4,1-2.8,2.1-4.2,3.2c-2,1.5-4.2,2.4-6.7,2.2c-0.3,0-0.7,0-1,0c-1.7,0.2-2,0.7-1.1,2.2
		c1.3,2,1.7,4.2,1.3,6.5c0,0.1-0.1,0.2-0.1,0.3c0.1,0,0.2,0,0.3,0c1.9-0.4,3.8-0.9,5.8-1.1c3.2-0.3,6.7,1.7,8.5,4.9
		c1.9,3.3,2.7,7,3.1,10.7c0.2,1.5,0.2,3.1,0.3,4.7c0,0.6,0.2,1.4-0.7,1.4c-1,0-0.9-0.8-0.9-1.5c-0.1-3.8-0.5-7.5-1.7-11.2
		c-0.4-1-0.8-2-1.3-3c-1.5-2.9-3.9-4.3-7.2-4.4c-2.3-0.1-4.4,0.7-6.5,1.4c-4.7,1.5-9.4,2.9-14.3,3.5c-3.1,0.4-6.1,0.2-8.9-1.5
		c0.6-0.1,0.7-1.1,1.5-0.9c1.7,0.6,3.4,1.1,5.3,1c4.8-0.3,9.4-1.5,14-2.9c0.5-0.2,0.8-0.5,1-0.9c0.7-1.6,0.7-3.1,0-4.7
		c-0.4-0.8-0.8-1.5-1.2-2.2c-0.6-1.3-0.4-2.3,0.8-3c1-0.6,2-0.8,3.1-0.7c2.2,0.2,4.1-0.6,5.8-1.9c0.9-0.7,1.9-1.3,2.7-2
		c3.5-3,7.4-4.6,12-4.5c3.3,0.1,6.3-1,8.6-3.6c1.5-1.7,3.4-3,5.6-3.8c1.3-0.5,2.4-1.4,3.1-2.6c1.2-2.1-0.2-5-2.5-5.2
		c-1.2-0.1-2.5-0.1-3.7,0.1c-1.8,0.3-3.5,0.3-5.2-0.3c-2.8-1-5.5-0.9-8.3,0.3c-2.4,1.1-4.9,1.1-7.5,0.4c-1.5-0.4-3-1-4.6-1.1
		c-0.1,0-0.3-0.1-0.4-0.1c-0.2,0-0.4,0.1-0.6,0.1C106.9,11.8,106.5,11.5,106.3,11z"/>
	<path class="st0" d="M103.4,101.3c0,1.9,0,3.8,0,5.7c-0.4,0.3-0.4,0.6,0,0.9c0,2.9,0,5.9,0,8.8c-1,0.1-0.8-0.6-0.9-1.2
		c-0.2-0.9,0.6-2-0.5-2.8c0-3.7,0-7.4-0.1-11.1c0-2-0.3-2.3-2.3-2.3c-9.6,0-19.2,0-28.8,0c-1.9,0-2.3,0.3-2.3,2.3c0,7,0,14,0,21
		c0,5.2,0,10.4,0,15.6c0,0.9,0.1,1.8,1.1,2.1c0.1,0.2,0.1,0.3,0.3,0c0.6,0,1.1,0,1.7,0c0.7,0.7,1.5,0.2,2.2,0.3
		c0.7,0.2,1.7-0.1,1.7,1.1c-1.9,0-3.8,0.1-5.7,0.1c-1.5,0-2.8-1.3-3-2.8c-0.1-0.7,0-1.3,0-2c0-11.8,0-23.5,0-35.3c0-3.1,1-4.1,4-4.1
		c2.7,0,5.5-0.1,8.2,0c1,0,1.2-0.3,1.2-1.2c0-3.8,0-7.6,0-11.3c0-2.5,1.1-3.6,3.6-3.6c0.9,0,1.9,0,2.8,0c2.1,0,3.2,1.2,3.3,3.3
		c0,3.9,0,7.8,0,11.6c0,1,0.3,1.3,1.3,1.3c3-0.1,6-0.1,8.9,0c2.1,0,3.2,1.2,3.1,3.3C103.2,101.1,103.2,101.2,103.4,101.3z M88.6,94
		c0-1.2,0-2.2,0-3.2c0-0.7-0.2-0.9-0.9-0.9c-1.6,0-3.2,0-4.8,0c-0.8,0-1,0.3-0.9,1c0,1.3,0,2.6,0,4c0,2.8,0,2.8,2.7,2.8
		c1.3,0,2.9,0.6,3.7-0.3C89.1,96.6,88.4,95,88.6,94z M85.3,88.3c0.8,0,1.6,0,2.4,0c0.4,0,0.8,0.1,0.8-0.5c0-1.2,0.2-2.5-0.1-3.7
		c-0.2-0.7-0.7-1-1.4-1c-1.2,0-2.4,0-3.5,0c-1,0-1.4,0.6-1.6,1.5c-0.5,3.5-0.3,3.7,3.2,3.7C85.2,88.3,85.2,88.3,85.3,88.3z"/>
	<path class="st0" d="M79,50.2c-0.8-0.2-0.9,0.7-1.5,0.9c-2.7-1.2-4.7-3.1-5.8-5.7C68,37,68.9,29.1,74.4,21.8
		c6.3-8.4,15-12.2,25.3-12.8c0.6,0,1.4-0.1,1.4,0.8c0,0.9-0.7,0.8-1.4,0.9c-4.5,0.4-9,1-13.2,3.1c-0.4,0.2-1,0.3-1.4,1.1
		c3.3-0.9,6.2,0.4,9.1,1.1c1.3,0.3,2.5,0,3.7-0.7c1.6-1,3.2-2.1,4.8-3.1c1.1-0.6,2.2-1.3,3.5-1.3c0.2,0.4,0.6,0.8,0.6,1.3
		c-2.7,0.6-4.8,2.1-7,3.7c-2.4,1.8-5,2.3-7.7,1.1c-3-1.3-6-0.9-9-0.3c-1.5,0.3-2.8,1-3.9,2.1c-5.1,4.7-8.2,10.3-8,17.4
		c0,0.7-0.5,1.4,0.1,2.1c0.1-0.1,0.2-0.1,0.2-0.1c0.2-0.3,0.4-0.5,0.5-0.8c2.2-3.6,5.4-5.9,9.5-6.9c3.6-0.9,7.4-1.2,11.1-1.2
		c0.1,0.4,1.1,0.3,0.7,1.1c0.2,0.1,0.7-0.2,1,0.2c-2.8,0.2-5.7,0.4-8.5,0.6c-1.3,0.1-2.6,0.2-3.9,0.9c0.8,0.3,1.4,0.5,2,0.8
		c3.4,1.6,6,3.9,7.4,7.4c0.2,0.5,0.4,1.2-0.4,1.4c-0.6,0.2-0.9-0.3-1.1-0.8c-1.9-4.3-5.4-6.6-9.9-7.6c-0.9-0.2-1.6-0.1-2.4,0.4
		c-2.6,1.7-4.2,4.1-5.6,6.8c-0.3,0.5-0.1,1,0,1.5C73.2,46,75.5,48.6,79,50.2z"/>
	<path class="st0" d="M127.2,90.8c-0.5,0.8-0.5,1.6-0.2,2.6c0.5,1.7,1.1,3.3,1.7,4.9c0.8,2.3,0.7,4.7,0.5,7
		c-0.6,7.1-1.2,14.2-1.8,21.3c-0.3,3.6-0.1,7.3,0.5,10.9c0.3,1.9,0.3,3.9,0.2,5.8c-0.2,3.7-3.3,6.6-7.1,6.6
		c-3.6,0.1-6.8-2.8-7.2-6.4c-0.3-3.1,0.2-6,0.6-9c0.7-5.8-0.3-11.5-0.7-17.3c-0.4-4.8-0.8-9.5-1.2-14.3c-0.1-1,0-2,0.2-3
		c0.4,0.5,0.1,1.7,1.3,1.4c0.1,1.2,0.1,2.4,0.2,3.5c0.6,7.8,1.3,15.5,1.9,23.3c0.2,3,0,5.9-0.5,8.9c-0.4,2.3-0.7,4.6-0.1,6.9
		c0.6,2.6,3,4.3,5.7,4.2c2.6-0.1,4.9-2.1,5.2-4.8c0.2-1.2,0.2-2.4,0.1-3.7c-0.2-2-0.5-3.9-0.7-5.9c-0.6-6.7,0.6-13.3,1-19.9
		c0.3-4,0.6-8,0.9-12c0.1-0.8,0.1-1.6-1.1-1.5c-0.2-0.2-0.4-0.2-0.5,0c-3.7,0-7.4,0-11.1,0c-0.1-0.3-0.6-0.1-0.6-0.5
		c1.2,0,2.4,0,3.5,0c0.7,0,1.1-0.2,1-1c2.4-0.1,4.8-0.2,7.2,0c0.4,0.2,0.8,0.3,1.1-0.2c-0.8-2.2-1.7-4.3-2-6.6
		c-0.3-0.4-1.1,0.1-1.2-0.6c0.6-0.1,0.8-0.3,1.2-0.9c0.4-0.3,0.5-0.8,0.7-1.3c0.1,0,1,1.1,1.1,1.2C127.1,90.8,127.1,90.8,127.2,90.8
		z"/>
	<path class="st0" d="M80.7,60.7c-4.2-0.2-7.6-2.2-10.6-4.9c-5-4.4-7.5-10-7.9-16.7c-0.3-4.9-0.2-9.7,1.6-14.3
		c3.5-9.1,10.1-15.3,18.9-19.1c5.2-2.3,10.7-3.5,16.4-3.8c0.6,0,1.4-0.3,1.5,0.6c0.1,1-0.8,0.9-1.4,1c-6.3,0.4-12.4,1.8-18.1,4.8
		c-9,4.7-15.1,11.6-16.9,21.8c-1,5.5-0.8,11.1,1.3,16.5c2.4,6,6.8,9.9,12.8,12.2c1.6,0.6,3.1,0.2,4.6,0.7c0.3,0.4,0.7,0.7-0.1,0.9
		C82.1,60.5,81.3,60.1,80.7,60.7z"/>
	<path class="st0" d="M119,99.2c0.1,0.8-0.3,1-1,1c-1.2,0-2.3,0-3.5,0c0,0.4,0.5,0.3,0.6,0.5c-0.7,0-0.9,0.4-0.9,1
		c-1.2,0.2-0.9-0.9-1.3-1.4c0.1-1.5,0.8-2.9,1.3-4.3c0.7-1.9,1-3.8,0.4-5.9c-1.4-4.7-0.8-9.5,0.3-14.1c0.3-1.4,1.6-2.3,3-2.3
		c2.1,0,4.2,0,6.2,0c1.5,0,2.8,0.9,3.1,2.4c0.9,4.2,1.5,8.4,0.5,12.6c-0.4,0.1-0.5-0.7-1-0.3c0.3,0.4,0.6,0.8,0.8,1.1
		c0,0.5-0.2,1-0.4,1.5c0,0-0.1,0-0.1-0.1c-0.1-0.1-1-1.2-1.1-1.2c1-4.3,0.6-8.5-0.2-12.8c-0.2-1.1-0.8-1.7-1.9-1.7
		c-1.9,0-3.9,0-5.8,0c-0.9,0-1.6,0.5-1.7,1.4c-0.8,4.3-1.4,8.6-0.3,12.9c0.3,1,0.6,1.5,1.8,1.4c1.4-0.1,2.7,0,4.1,0
		c0.6,0.8,1.1,0.8,1.7,0c0.6,0,1.1,0,1.7,0c-0.4,0.6-0.6,0.8-1.2,0.9c0.2,0.7,1,0.2,1.2,0.6c-2.5,0-5.1,0-7.6,0
		c-0.4,0-1-0.2-1.1,0.4c-0.2,2.2-1.2,4.1-1.8,6.4C116.3,99.2,117.6,99.2,119,99.2z"/>
	<path class="st0" d="M75.6,141.9c0-1.2-1-0.9-1.7-1.1c-0.7-0.2-1.6,0.3-2.2-0.3c9.1,0,18.2,0,27.4-0.1c2.8,0,3-0.2,3-2.9
		c0-8.3,0-16.5,0-24.8c1.2,0.7,0.4,1.8,0.5,2.8c0.1,0.6-0.1,1.3,0.9,1.2c0,7.5,0,14.9,0,22.4c0,1.8-1.2,2.9-3,2.9
		C92.2,141.9,83.9,141.9,75.6,141.9z"/>
	<path class="st0" d="M80.7,60.7c0.6-0.6,1.4-0.1,2-0.3c0.8-0.2,0.5-0.6,0.1-0.9c0.1-0.1,0.1-0.1,0.2,0c0.1,0,0.3-0.1,0.4-0.1
		c6-0.3,11.3-2.8,16.8-4.7c1.2-0.4,2.5-0.9,3.8-1.1c2.3-0.3,3.7,0.5,4.6,2.6c1.5,3.6,2.1,7.4,2.5,11.2c0.1,0.6,0,1.1-0.7,1.1
		c-0.8,0-0.9-0.6-0.9-1.2c-0.3-3.3-0.8-6.6-2-9.7c-0.9-2.5-1.8-3-4.3-2.2c-3.7,1.2-7.3,2.7-11,3.8C88.6,60.4,84.7,61.2,80.7,60.7z"
		/>
	<path class="st0" d="M134.9,119.8c-0.8-0.2-1-0.7-0.6-1.3c1.6-2.3,3.1-4.6,4.5-7c0.2-0.4,0.7-0.5,1.1-0.2c0.4,0.2,0.5,0.6,0.3,1
		c-1.4,2.5-2.9,4.9-4.7,7.2C135.3,119.7,135,119.7,134.9,119.8z"/>
	<path class="st0" d="M142.3,104.2c0.1-0.2,0.1-0.4,0.2-0.6c0.9-2.3,1.8-4.6,2.5-6.9c0.2-0.5,0.3-1.2,1.1-1c0.8,0.2,0.6,0.8,0.5,1.4
		c-0.7,2.5-1.6,4.9-2.6,7.3c-0.2,0.5-0.4,0.8-1,0.7C142.5,105,142.4,104.6,142.3,104.2z"/>
	<path class="st0" d="M149.4,69.7c0,0.5,0.1,0.9,0.1,1.4c0,0.5-0.1,0.9-0.7,0.9c-0.6,0.1-0.8-0.3-0.9-0.9c-0.2-1.6-0.3-3.1-0.5-4.7
		c-0.1-0.9-0.3-1.9-0.4-2.8c-0.1-0.6-0.4-1.4,0.5-1.5c1-0.2,1,0.7,1,1.3C149,65.6,149.2,67.6,149.4,69.7
		C149.5,69.7,149.5,69.7,149.4,69.7z"/>
	<path class="st0" d="M140,39.1c0,0.4-0.1,0.7-0.5,0.8c-0.4,0.2-0.8,0.1-1-0.3c-1.4-2.4-2.9-4.7-4.5-7c-0.3-0.4-0.2-0.8,0.2-1.1
		c0.4-0.3,0.8-0.2,1,0.1c1.8,2.3,3.3,4.7,4.7,7.2C140,38.9,140,39,140,39.1z"/>
	<path class="st0" d="M60.8,148.9c-2.7-0.5-5.3-1.2-7.9-2c-0.5-0.1-0.9-0.4-0.7-1.1c0.2-0.6,0.6-0.6,1.1-0.5
		c2.6,0.8,5.2,1.4,7.8,1.9c0.5,0.1,0.9,0.4,0.7,1C61.7,148.9,61.3,149,60.8,148.9z"/>
	<path class="st0" d="M6.9,101.8c0,0.6-0.1,0.9-0.6,1c-0.4,0.1-0.8-0.1-0.9-0.5c-1.1-2.6-1.9-5.3-2.6-8.1c-0.1-0.4,0.1-0.8,0.4-0.9
		c0.4-0.2,0.9-0.1,1,0.3C5.1,96.4,5.8,99.3,6.9,101.8z"/>
	<path class="st0" d="M8.9,44.7c-0.1,0.2-0.1,0.4-0.3,0.7c-1,2.2-1.9,4.4-2.7,6.7c-0.2,0.5-0.3,1.2-1.1,1c-0.8-0.2-0.6-0.9-0.4-1.5
		c0.8-2.4,1.8-4.8,2.8-7.1c0.2-0.4,0.4-0.9,1-0.8C8.7,43.9,8.9,44.2,8.9,44.7z"/>
	<path class="st0" d="M146.6,54.3c0.1,0.7,0,1-0.5,1.1c-0.5,0.2-0.9-0.1-1-0.5c-0.8-2.7-1.8-5.3-2.8-7.9c-0.2-0.4,0-0.9,0.5-1
		c0.4-0.1,0.8,0,1,0.4C144.9,49,145.8,51.7,146.6,54.3z"/>
	<path class="st0" d="M149.5,81.4c-0.2,2-0.5,3.9-0.8,5.9c-0.1,0.6,0,1.7-1.1,1.5c-1-0.2-0.6-1-0.5-1.6c0.2-2.4,0.5-4.7,0.8-7
		c0.1-0.6,0.1-1.2,0.9-1.2c0.7,0.1,0.7,0.7,0.7,1.3C149.5,80.7,149.5,81.1,149.5,81.4C149.5,81.4,149.5,81.4,149.5,81.4z"/>
	<path class="st0" d="M73.8,148.7c1.2,0,2.5,0,3.7,0c0.5,0,1.1,0,1.2,0.7c0.1,0.7-0.5,0.8-1,0.9c-2.6,0.1-5.3,0-7.9-0.1
		c-0.5,0-1-0.2-0.9-0.8c0-0.7,0.5-0.8,1.1-0.8C71.2,148.6,72.5,148.7,73.8,148.7C73.8,148.7,73.8,148.7,73.8,148.7z"/>
	<path class="st0" d="M9.5,109c0.5,0,0.8,0.3,1,0.6c1.2,2.3,2.5,4.5,4,6.7c0.3,0.5,0.5,1-0.1,1.4c-0.6,0.4-1,0-1.3-0.4
		c-1.5-2.2-2.8-4.5-4.1-6.8C8.7,109.8,8.8,109.3,9.5,109z"/>
	<path class="st0" d="M29.6,18.1c0,0.4-0.3,0.7-0.6,0.9c-2,1.6-3.9,3.3-5.7,5.1c-0.4,0.4-0.8,0.7-1.3,0.2c-0.5-0.5-0.1-1,0.2-1.3
		c1.9-1.9,3.8-3.6,5.9-5.3c0.3-0.2,0.6-0.5,1-0.3C29.4,17.6,29.5,17.8,29.6,18.1z"/>
	<path class="st0" d="M0.8,68.4c0.2-2.5,0.6-5,1.1-7.4C2,60.4,2.1,59.6,3,59.8c0.8,0.2,0.6,0.9,0.5,1.4c-0.4,2.5-0.7,4.9-1.1,7.4
		c-0.1,0.5-0.2,1.1-0.9,1C0.8,69.6,0.7,69,0.8,68.4z"/>
	<path class="st0" d="M86.7,149.4c-0.4,0.1-1,0.1-1.1-0.6c-0.2-0.8,0.4-0.9,1-1c2.5-0.4,4.9-0.9,7.3-1.6c0.5-0.2,1.2-0.3,1.4,0.5
		c0.2,0.7-0.4,0.9-0.9,1C91.9,148.4,89.4,149,86.7,149.4z"/>
	<path class="st0" d="M59.7,3.5c0,0.7-0.4,0.9-0.8,1c-2.6,0.6-5.1,1.3-7.6,2.2c-0.5,0.2-1,0.1-1.2-0.4c-0.2-0.6,0.1-0.9,0.6-1.1
		c2.6-0.9,5.2-1.6,7.9-2.3C59.2,2.7,59.6,2.9,59.7,3.5z"/>
	<path class="st0" d="M35.7,14c-0.4,0-0.6-0.2-0.8-0.5c-0.2-0.4,0-0.8,0.3-1c2.4-1.5,4.8-2.8,7.3-4c0.4-0.2,1-0.2,1.2,0.4
		c0.2,0.5,0,0.8-0.5,1c-2.4,1.2-4.8,2.5-7.1,4C36,14,35.9,14,35.7,14z"/>
	<path class="st0" d="M68.2,3c-0.9,0.1-1.6,0.1-1.6-0.7c-0.1-0.7,0.6-0.9,1.2-0.9c2.5-0.2,5.1-0.4,7.6-0.3c0.5,0,1.1,0,1.1,0.7
		c0,0.8-0.5,0.9-1.2,0.9C72.9,2.7,70.4,2.7,68.2,3z"/>
	<path class="st0" d="M12.2,37.9c-0.9-0.1-1.1-0.7-0.7-1.3c1.4-2.4,3-4.8,4.8-7c0.3-0.3,0.7-0.4,1-0.1c0.4,0.3,0.5,0.7,0.2,1
		c-1.7,2.3-3.3,4.6-4.8,7C12.6,37.7,12.4,37.8,12.2,37.9z"/>
	<path class="st0" d="M45.8,143.2c-0.1,0.6-0.6,0.9-1.1,0.6c-2.6-1.1-5.1-2.4-7.5-3.9c-0.4-0.3-0.6-0.6-0.3-1.1
		c0.3-0.4,0.7-0.5,1.1-0.2c2.4,1.3,4.8,2.6,7.3,3.7C45.6,142.5,45.8,142.8,45.8,143.2z"/>
	<path class="st0" d="M2.6,84.9c0,0.7,0.2,1.5-0.7,1.6c-0.9,0.1-0.9-0.7-0.9-1.3c-0.2-2.4-0.4-4.8-0.6-7.2c0-0.6-0.1-1.4,0.8-1.4
		c0.8,0,0.8,0.7,0.8,1.2C2.1,80.3,2.3,82.7,2.6,84.9z"/>
	<path class="st0" d="M127.5,89.4c-0.3-0.4-0.5-0.7-0.8-1.1c0.6-0.4,0.6,0.4,1,0.3C127.7,88.8,127.6,89.1,127.5,89.4z"/>
	<path class="st0" d="M103.4,107.8c-0.4-0.3-0.4-0.6,0-0.9C103.4,107.3,103.4,107.5,103.4,107.8z"/>
	<path class="st0" d="M103.4,101.3c-0.2-0.1-0.2-0.2,0-0.3C103.4,101.1,103.4,101.2,103.4,101.3z"/>
	<path class="st0" d="M22.7,96.5c0.1,0.1,0.2,0.2,0.3,0.3C22.9,96.7,22.8,96.6,22.7,96.5z"/>
	<path class="st0" d="M22.4,96.2c0.1,0.1,0.2,0.2,0.4,0.3C22.6,96.4,22.5,96.3,22.4,96.2z"/>
	<path class="st0" d="M83.5,59.3c-0.1,0-0.3,0.1-0.4,0.1C83.2,59.4,83.4,59.3,83.5,59.3z"/>
	<path class="st0" d="M107.9,12.3c-0.1,0-0.3-0.1-0.4-0.1C107.7,12.2,107.8,12.3,107.9,12.3z"/>
	<path class="st0" d="M69.7,140.4c0.1,0,0.2,0,0.3,0C69.8,140.7,69.7,140.6,69.7,140.4z"/>
	<path class="st0" d="M92.6,29.5c1.5-1.3,2.1-3.1,2.6-4.9c0.1-0.3,0.2-0.6,0.3-1c0.1-0.6,0.3-1.2,1-1.1c0.9,0.2,0.6,0.9,0.5,1.5
		c-0.4,1.7-1,3.2-1.8,4.9c1.4,0,2.5-0.6,3.6-1.2c2.3-1.2,4.1-3,6.3-4.3c1.4-0.8,2.7-1.7,3.4-3.4c0.5-1.3,1.6-2.2,2.7-3
		c0.4-0.3,0.9-0.6,1.4-0.1c0.4,0.5,0.1,0.9-0.4,1.3c-1,0.8-1.9,1.7-2.5,3c3.6-0.6,7.2-0.4,10.7-0.5c0.6,0,0.9-0.3,1.2-0.8
		c0.9-1.4,2-2.6,3.3-3.6c0.5-0.4,1-1.1,1.7-0.4c0.7,0.8-0.1,1.2-0.6,1.6c-1,0.8-1.9,1.7-2.8,3c2.5-0.1,4.5-0.8,6.5-1.7
		c0.7-0.3,1.4-0.8,2.1-1.1c0.5-0.3,1.2-0.7,1.6,0c0.4,0.7-0.2,1-0.7,1.3c-2.9,1.7-5.9,2.8-9.3,3.2c-2.2,0.2-4.5,0.2-7,0.3
		c1.1,1,2,1.7,3.2,2c0.6,0.1,1.1,0.3,1,0.9c-0.1,0.7-0.7,0.8-1.3,0.6c-1.8-0.4-3.2-1.4-4.4-2.7c-0.7-0.7-1.5-0.9-2.4-0.8
		c-3.9,0.3-7,2.4-10,4.9c1.4,0.6,2.7,1.2,3.9,1.9c0.5,0.3,1.3,0.5,0.8,1.4c-0.4,0.8-1,0.3-1.6,0c-0.6-0.3-1.2-0.6-1.8-0.9
		c-1.8-0.9-3.5-1.3-5.5-0.1c-1.2,0.8-2.6,1-4.1,1.1c-0.3-0.4-0.8-0.1-1-0.2C93.8,29.8,92.7,29.9,92.6,29.5z"/>
	<path class="st0" d="M126.2,99.2c0.4-0.1,0.7-0.1,1.1-0.2C127,99.5,126.6,99.3,126.2,99.2z"/>
	<path class="st0" d="M126.7,100.7c-0.2,0-0.4,0-0.5,0C126.3,100.4,126.5,100.4,126.7,100.7z"/>
	<path class="st0" d="M121.9,90.9c0.6,0,1.1,0,1.7,0C123,91.7,122.4,91.7,121.9,90.9z"/>
	<path class="st0" d="M85.1,128.8c-3,0-6.1,0-9.1,0c-1.8,0-3.1-1.1-3.2-2.9c-0.1-6.3-0.1-12.7,0-19c0-1.7,1.2-2.9,2.9-2.9
		c6.3,0,12.7,0,19,0c1.6,0,2.9,1.2,2.9,2.9c0,6.3,0,12.7,0,19c0,1.7-1.3,2.8-3.1,2.9C91.4,128.9,88.2,128.8,85.1,128.8
		C85.1,128.8,85.1,128.8,85.1,128.8z M96,116.4c0-2.9,0-5.9,0-8.8c0-1.7-0.2-2-2-2c-5.9,0-11.8,0-17.7,0c-1.5,0-1.9,0.5-1.9,2
		c0,5.9,0,11.8,0,17.7c0,1.6,0.4,1.9,1.9,1.9c5.9,0,11.8,0,17.7,0c1.6,0,1.9-0.4,1.9-1.9C96.1,122.3,96,119.4,96,116.4z"/>
	<path class="st0" d="M92.1,137.1c-0.9,0-1.9,0-2.8,0c-1.4-0.1-2.3-1-2.4-2.3c-0.1-1.4,0.8-2.6,2.2-2.7c2.2-0.1,4.3-0.1,6.5,0
		c1.3,0.1,2.2,1.3,2.2,2.6c-0.1,1.3-1.1,2.3-2.5,2.4c-0.1,0-0.2,0-0.3,0C94,137.1,93,137.1,92.1,137.1
		C92.1,137.1,92.1,137.1,92.1,137.1z M92.3,133.6c-0.9,0-1.8,0-2.7,0c-0.7,0-1.1,0.3-1.2,1c0,0.7,0.5,1,1.1,1c1.8,0,3.5,0,5.3,0
		c0.7,0,1.2-0.3,1.2-1.1c0-0.7-0.6-0.9-1.2-0.9C94,133.6,93.1,133.6,92.3,133.6z"/>
	<path class="st0" d="M78.3,137.1c-1,0-2,0-3,0c-1.4-0.1-2.4-1.1-2.5-2.4c0-1.2,0.8-2.5,2.2-2.6c2.2-0.1,4.3-0.1,6.5,0
		c1.4,0.1,2.2,1.3,2.1,2.7c-0.1,1.3-1,2.2-2.4,2.3C80.2,137.2,79.2,137.1,78.3,137.1z M78.1,135.6C78.1,135.6,78.1,135.6,78.1,135.6
		c0.9,0,1.9,0,2.8,0c0.6,0,1.1-0.4,1.1-1c0-0.7-0.5-0.9-1.2-0.9c-1.8,0-3.6,0-5.4,0c-0.6,0-1,0.2-1.1,0.9c-0.1,0.7,0.4,1.1,1,1.1
		C76.4,135.6,77.2,135.6,78.1,135.6z"/>
	<path class="st0" d="M123.9,108.3c0,0.6,0,1.2,0,1.8c-0.1,1.7-1.2,2.8-2.9,2.8c-1.7,0-2.9-1-2.9-2.7c-0.1-1.3-0.1-2.5,0-3.8
		c0.1-1.6,1.3-2.7,2.8-2.7c1.6,0,2.9,1.1,2.9,2.8C123.9,107,123.9,107.6,123.9,108.3z M122.3,108.3
		C122.3,108.3,122.3,108.3,122.3,108.3c0-0.6,0-1.2,0-1.8c-0.1-0.8-0.6-1.3-1.4-1.2c-0.8,0-1.3,0.4-1.3,1.2c-0.1,1.2,0,2.4,0,3.7
		c0,0.8,0.5,1.2,1.3,1.2c0.8,0,1.4-0.4,1.4-1.2C122.4,109.5,122.3,108.9,122.3,108.3z"/>
	<path class="st0" d="M89.3,117.6c0,2-1,3.4-2.5,4c-1.6,0.6-3.1,0.3-4.3-0.9c-1.2-1.1-1.6-2.9-0.9-4.4c0.9-1.9,1.9-3.7,2.9-5.5
		c0.4-0.7,1.1-1,1.5-0.2c1.1,2,2.2,4.1,3.2,6.1C89.3,117,89.2,117.4,89.3,117.6z M85.2,112.6c-0.8,1.5-1.5,2.8-2.2,4.1
		c-0.6,1.2-0.3,2.2,0.7,3c0.9,0.7,2,0.7,2.9,0c1-0.8,1.3-1.8,0.7-3C86.8,115.4,86.1,114.1,85.2,112.6z"/>
</g>
<g>
	<path class="st0" d="M44.7-251.8c0-30.3,0-60.7,0-91c0.3-0.7,0.5-1.3,0.8-2c1.5-3.9,4.3-6.8,8.4-7.3c6.8-0.8,13.7-1.5,20.4,1.2
		c0.1,0,0.2-0.1,0.3-0.2c4-8.7,11-12.5,20.7-12.3c12.7,0.2,25.5,0.1,38.2,0c1.1,0,2.5-0.6,3.4-1.3c3.1-2.7,6-5.6,8.9-8.5
		c3-3.1,6.6-4.3,10.9-4.1c5.6,0.2,11.1,0.1,16.3,0.1c0,0-0.6-0.2-1.1-0.4c-7.5-3.3-12-8.9-12.7-17c-0.7-8.3,2.9-14.8,10.3-19
		c2.3-1.3,5-1.8,7.5-2.7c1.9,0,3.8,0,5.7,0c0.3,0.1,0.6,0.3,1,0.4c9.1,1.9,16,9.4,16.5,18c0.6,9.6-5,17.7-14.1,20.7
		c-0.5,0.2-1,0.4-1.5,0.5c2.4,0.5,4.7,0.5,7,0.5c3.8-0.1,7.1,1,10.2,3c5.4,3.4,11,6.6,16.5,9.9c0.6,0.4,1.3,0.7,2.2,1.2
		c0.9-9.6,1.8-18.9,2.8-28.2c0.6-5.6,5.9-9.8,11.6-9.3c6,0.5,10.6,5.6,10,11.3c-0.8,8.2-1.8,16.3-2.7,24.5
		c-0.4,3.9-0.8,7.8-1.2,11.4c4.8,0,9.5,0,14.1,0c8,0,13.1,4.9,13.1,12.7c0,9.9,0,19.7,0,29.6c0,1.6,0,3.1,0,4.7
		c-0.1,2.1-1.5,3.5-3.3,3.5c-1.8,0-3.1-1.4-3.2-3.4c0-0.6,0-1.1,0-1.7c0-11,0-22,0-33c0-3.8-2.2-5.9-6.1-6c-2.8,0-5.7,0-8.5,0
		c-5.6,0-7.4,1.8-7.4,7.3c0,29.3,0,58.7,0,88c0,0.7,0.1,1.5,0.1,2.4c5.3,0,10.4,0,15.5,0c4.3,0,6.4-2.1,6.4-6.3c0-5.6,0-11.2,0-16.8
		c0-6.2,0-12.3,0-18.5c0-2.7,2.4-4.3,4.7-3.2c1.6,0.8,1.9,2.2,1.9,3.8c0,11.6,0,23.1,0,34.7c0,7.8-5,12.7-13.1,12.8
		c-1.9,0-3.7,0-5.7,0c0,4.9,0,9.5,0,14.1c0,5.5-3.5,8.8-9.2,8.8c-2.4,0-4.8,0-7.2,0c-6.7,0-9.8-3.1-9.8-9.7c0-4.4,0-8.7,0-12.9
		c-0.3-0.2-0.4-0.3-0.4-0.3c-11.7,0-23.4-0.1-35.1,0c-0.6,0-1.4,0.8-1.6,1.5c-1.3,3.5-2.4,7.1-3.6,10.7c-0.6,1.9-1.2,3.7-1.8,5.6
		c2,0.8,3.7,1.4,5.4,2.2c5.8,2.9,8.5,9.5,6.2,15.3c-2.2,5.8-8.7,9.5-14.8,7.5c-7.3-2.4-14.9-4.4-20.9-9c-2,1.1-3.8,2.5-5.8,3.3
		c-4.4,1.8-8.9,3.5-13.4,5.1c-6.9,2.5-14-0.4-16.6-6.8c-2.6-6.4,0.6-13.4,7.5-16.2c1.3-0.5,2.7-1.1,4.1-1.7
		c-1.8-5.4-3.6-10.7-5.3-16.1c-0.4-1.4-1.1-1.8-2.6-1.8c-3.9,0.1-7.9,0.1-11.8,0c-2.2,0-3.5-1.4-3.5-3.3c0.1-1.8,1.3-3,3.5-3.1
		c0.8,0,1.6,0,2.4,0c3,0,6,0,9.2,0c-3-8.9-5.8-17.4-8.6-25.8c-12.1,0-23.9,0-35.7,0c0,8.6,0,17.1,0,25.8c5.5,0,10.9,0,16.3,0
		c2.6,0,4.1,1.1,4.1,3.1c0,2-1.5,3.3-4.2,3.3c-2.1,0-4.3,0-6.5,0c0,2.8,0,5.2,0,7.6c0,2.4,0,4.8,0,7.2c-0.1,4.5-3.5,8-8.1,8.1
		c-3.3,0.1-6.7,0.1-10,0c-4.5-0.2-7.9-3.6-8-8c-0.1-3.4,0-6.8,0-10.2c0-1.5,0-3.1,0-4.7c-2.5,0-4.6,0.1-6.8,0
		c-3.7-0.1-6.9-1.4-9.1-4.3C46.3-248,45.6-250,44.7-251.8z M142.9-303c0.5,0.1,0.9,0.1,1.2,0.1c10.5,0,21,0,31.4,0
		c1.5,0,1.7-0.8,2-1.9c3.9-14.9,7.8-29.9,11.7-44.8c1.8-6.9,7.7-9.1,14-5.5c2.5,1.5,5.1,3,8,4.7c1.6-2.5,3-4.8,4.5-7.1
		c-0.8-0.6-1.2-0.9-1.6-1.1c-5.6-3.4-11.3-6.8-17-10c-1.3-0.7-2.8-1.2-4.3-1.3c-12.5-0.5-25-0.9-37.5-1.2c-1.5,0-3.3,0.8-4.4,1.8
		c-5.3,4.9-10.4,9.9-15.6,14.9c-2.9,2.8-2.9,4,0,6.9c0.8,0.8,1.9,1.5,3.4,2.6c0.5-0.8,0.9-1.5,1.4-2.1c3.2-3.1,6.4-6.2,9.6-9.2
		c1.6-1.5,3.7-1.6,5.4-0.6c1.7,1,2.5,2.9,2,5c-0.1,0.5-0.3,1-0.4,1.4c-2.8,9.6-5.7,19.2-8.5,28.8C146.5-315.4,144.7-309.2,142.9-303
		z M73.3-248.5c0-1.1,0-2,0-2.9c0-29.1,0-58.1,0-87.2c0-0.6,0-1.3,0-1.9c-0.2-3.6-2.3-5.6-6-5.7c-3-0.1-6,0-8.9,0
		c-5.1,0-7.1,1.9-7.1,7c0,27.9,0,55.8,0,83.8c0,0.6,0,1.1,0,1.7c0.2,2.7,2,5,4.6,5.1C61.6-248.3,67.3-248.5,73.3-248.5z
		 M148.7-346.1c-1,0.9-1.6,1.4-2.1,2c-3.9,3.7-7.7,7.6-11.7,11.2c-1.5,1.4-3.4,2.6-5.3,3.2c-9.4,3-18.8,5.8-28.3,8.4
		c-2.1,0.6-4.5,0.5-6.6,0c-4.5-1.1-7.5-5.3-7.6-9.8c-0.1-4.7,2.9-8.8,7.6-10.3c7.6-2.4,15.2-4.8,22.9-6.8c5-1.3,7.3-5.4,11.2-8.5
		c-1.1-0.1-1.5-0.1-1.9-0.1c-11.1,0-22.3,0-33.4,0c-1.2,0-2.5,0.1-3.7,0.4c-6.2,1.5-10,6.4-10,13.2c0,12.8,0,25.7,0,38.5
		c0,0.6,0.1,1.2,0.1,1.9c0.5,0,0.8,0.1,1.2,0.1c17.8,0,35.5,0,53.3,0c1.3,0,1.7-0.4,2.1-1.6c1.7-5.9,3.4-11.7,5.1-17.5
		C143.9-329.8,146.2-337.7,148.7-346.1z M232.9-302.9c0-10.4,0-20.6,0-31.1c-4.3,1.3-7.7-0.3-11-2.4c-7.2-4.4-14.5-8.6-21.8-12.9
		c-2.9-1.7-3.8-1.4-4.6,1.7c-3,11.2-6,22.5-8.9,33.7c-0.9,3.6-1.8,7.2-2.8,11C200.3-302.9,216.5-302.9,232.9-302.9z M232.9-248.5
		c0-8.7,0-17.2,0-25.8c-12,0-23.8,0-35.7,0c-2.9,8.6-5.7,17.1-8.6,25.8C203.5-248.5,218.1-248.5,232.9-248.5z M148.2-233.6
		c-1.4-4.3-2.6-8.5-3.9-12.6c-4.7-15-9.4-30-14-45.1c-0.6-2.1-1.6-3.8-3.7-4.7c-2.4-1-4.6-0.5-6.5,1.2c-2,1.8-3,3.9-2.1,6.7
		c5.1,15.2,10.1,30.4,15.2,45.6c1.4,4.3,2.9,8.6,4.3,13C141.1-230.9,144.6-232.2,148.2-233.6z M175.3-229.6c0.2-0.3,0.3-0.5,0.4-0.7
		c6.5-19.4,12.9-38.7,19.3-58.1c0.3-1,0.2-2.3-0.1-3.3c-0.9-2.8-3.6-4.7-6.3-4.7c-2.8,0-4.9,1.7-5.9,4.8
		c-3.4,11.1-6.8,22.2-10.2,33.3c-2.5,8.2-5.2,16.3-7.8,24.6C168.4-232.3,171.8-230.9,175.3-229.6z M193.6-396.3
		c0-7.6-6.2-13.6-14-13.7c-7.7,0-14,6.1-14.1,13.6c0,7.7,6.2,13.8,14.1,13.7C187.5-382.7,193.7-388.7,193.6-396.3z M135.5-296.3
		c1.4,4.7,2.9,9.3,4.2,13.9c0.4,1.4,1,1.7,2.4,1.7c8.5-0.1,17,0,25.5,0c5.1,0,5.2,0,6.6-4.7c1.1-3.6,2.2-7.2,3.3-10.9
		C163.3-296.3,149.5-296.3,135.5-296.3z M142.5-274.2c0,0.2-0.1,0.4,0,0.5c2.5,8.1,5,16.3,7.7,24.3c0.2,0.5,1.2,0.9,1.8,1
		c3.1,0.1,6.1,0,9.2,0.1c1.3,0,1.8-0.4,2.1-1.6c0.8-2.7,1.7-5.4,2.6-8.1c1.7-5.3,3.4-10.7,5.1-16.2
		C161.2-274.2,151.8-274.2,142.5-274.2z M216.8-346.9c3.7,2.2,7.3,4.5,11.1,6.5c2.8,1.5,5.1-0.1,5.5-3.1c1.6-14.7,3.3-29.4,4.9-44.1
		c0.4-3.2-1-5.4-3.7-5.7c-2.6-0.3-4.6,1.4-4.9,4.7c-1,10.1-2,20.2-2.9,30.2c-0.4,4.3-1.4,5.2-5.6,4.5
		C219.8-351.6,218.4-349.4,216.8-346.9z M80-296.3c0,5.3,0,10.4,0,15.5c11.2,0,22.2,0,33.4,0c-0.8-2.6-2-5.1-2.2-7.6
		c-0.2-2.6,0.6-5.2,0.9-7.9C101.8-296.3,91-296.3,80-296.3z M199.4-280.9c11.4,0,22.5,0,33.5,0c0-5.2,0-10.3,0-15.4
		c-11,0-21.8,0-33,0C203.5-290.9,201.2-286,199.4-280.9z M150.2-227.5c-3.2,1.2-6.4,2.3-9.4,3.6c-0.9,0.4-1.4,1.3-2.1,2
		c-1.2,1.2-2.4,2.6-3.8,3.5c-1.6,1-3.5,1.3-5.2,2.2c-2.9,1.5-4,4.9-2.7,7.7c1.3,2.7,4.5,4.1,7.5,3.1c4.9-1.8,9.8-3.6,14.6-5.6
		c3.2-1.3,4.7-4.4,3.9-7.7C152.2-221.6,151.1-224.5,150.2-227.5z M162.8-227.5c-0.8,2.5-1.6,4.8-2.3,7.2c-0.2,0.6-0.4,1.2-0.5,1.8
		c-0.6,3.5,0.9,6.3,4.3,7.7c4.6,1.8,9.2,3.6,13.8,5.3c3.3,1.2,6.8-0.1,8-3.1c1.3-3.1-0.1-6.4-3.5-7.9c-1.4-0.6-2.8-1.1-4.2-1.7
		c-2-0.7-3.4-2-4.2-4c-0.2-0.5-0.6-1.2-1.1-1.4C169.7-224.9,166.3-226.2,162.8-227.5z M127.4-346.5c-3.3,2.8-3.3,2.8-7.9,4.2
		c-2.8,0.8-5.7,1.7-8.5,2.5c-4.7,1.4-9.5,2.8-14.2,4.3c-2.2,0.7-3.5,2.5-3.3,4.5c0.2,2,1.7,3.6,3.8,3.8c1,0.1,2-0.2,3-0.5
		c8.1-2.4,16.2-5,24.4-7.2c3.6-1,6.3-2.8,8.4-5.4C131.3-342.4,129.4-344.4,127.4-346.5z M70-241.9c0,4.9,0,9.6,0,14.3
		c0,1.4,0.8,2.1,2.1,2.1c3,0,6,0.1,8.9-0.1c0.7,0,1.9-1.1,1.9-1.7c0.2-4.9,0.1-9.7,0.1-14.7C78.7-241.9,74.5-241.9,70-241.9z
		 M229.8-241.9c0,4.9,0,9.7,0,14.4c0,1.4,0.8,2.1,2.2,2.1c2.9,0,5.8,0.1,8.7-0.1c0.8,0,2.1-1,2.1-1.6c0.2-4.9,0.1-9.8,0.1-14.8
		C238.5-241.9,234.3-241.9,229.8-241.9z M160.5-241.8c-2.8,0-5.4,0-8.1,0c1.3,4.1,2.6,7.9,3.8,11.7c0.2,0,0.3-0.1,0.5-0.1
		C158-234,159.2-237.8,160.5-241.8z"/>
</g>
<g>
	<path class="st0" d="M-95.3-436.7c-1.4-1.2-1.8-2.7-1.8-4.6c0.1-4.2,0-8.4,0-12.6c-6.5-0.3-12.9-0.5-19.2-1
		c-10.8-0.9-21.6-1.9-32.4-2.9c-1.3-0.1-2.1-0.1-2.8,1.4c-3.3,7.1-11,11-18.4,9.6c-7.8-1.5-13.5-8-14-15.6
		c-0.5-8.1,4.4-15.1,12.2-17.4c1.5-0.5,1.8-1.1,1.8-2.5c0-22.9,0-45.9,0-68.8c0-1.3-0.2-2-1.7-2.4c-7.8-2.3-12.7-9.3-12.3-17.4
		c0.4-7.7,6.2-14.3,14.1-15.7c7.5-1.4,15.1,2.6,18.5,9.9c0.2,0.4,0.4,0.8,0.6,1.3c4.5-0.5,8.9-1,13.4-1.4c7.4-0.6,14.9-1.2,22.3-1.7
		c2.5-0.2,4.5-0.8,6.5-2.4c21.4-16.9,51.6-16.5,72.9,0.8c0.7,0.6,1.7,1.2,2.6,1.3c12.8,1.1,25.5,2.1,38.5,3.1
		c0.1-0.2,0.3-0.7,0.6-1.2c3.2-6.7,9.8-10.4,17.4-9.8c6.8,0.6,12.8,5.8,14.7,12.7c0.1,0.6,0.3,1.1,0.5,1.6c0,1.7,0,3.5,0,5.2
		c-0.1,0.2-0.3,0.4-0.3,0.6c-1.5,6.9-5.7,11.3-12.5,13.4c-0.5,0.2-1.1,1.2-1.1,1.8c-0.1,23.2,0,46.4-0.1,69.6c0,1.3,0.4,1.7,1.6,2
		c3.7,1,6.9,3,8.9,6.2c1.5,2.3,2.3,5,3.5,7.6c0,1.7,0,3.5,0,5.2c-0.1,0.4-0.3,0.8-0.4,1.2c-1.8,7.2-7.7,12.5-14.7,13.1
		c-7.6,0.7-14.2-3.1-17.4-9.9c-0.2-0.4-0.4-0.9-0.4-1c-18.1,1.3-35.8,2.6-53.8,4c0,4-0.1,8.2,0,12.3c0.1,1.9-0.4,3.4-1.8,4.6
		C-65.1-436.7-80.2-436.7-95.3-436.7z M-0.9-525.2c0-8.2-7.2-14-15.4-12.5c-3.1,0.6-4.3-0.3-4.7-3.3c-3.6-29.6-29.6-49.7-59.2-45.7
		c-22.9,3.1-41.2,22-44.1,45.5c-0.4,3.4-1.4,4.1-4.9,3.6c-7.2-1.2-13.5,3-15,10c-1.4,6.5,2.6,13.1,9.2,14.8c2,0.5,4.1,0.3,6.2,0.2
		c3.1-0.1,3.9,0.5,4.3,3.5c1.6,14.7,13.5,25.6,28.2,25.7c15.8,0.1,31.6,0.1,47.3,0c14.5-0.1,26.4-11.1,27.9-25.5
		c0.3-3.2,1.4-4.1,4.7-3.6C-7.9-511.4-0.9-517.1-0.9-525.2z M-48.2-460c7.7-0.4,15.2-0.6,22.6-1.2c10.8-0.9,21.6-2.1,32.4-3.2
		c2.2-0.2,3.4,0.6,3.9,2.8c0.1,0.6,0.3,1.1,0.5,1.7c1.8,5.2,7.3,8.2,12.7,7c5.4-1.2,9-6,8.6-11.6c-0.3-5.3-4.6-9.6-10-10
		c-3.4-0.3-4-1-4-4.5c0-24.5,0-49,0-73.5c0-5.5,0-5.5,5.3-6.7c0.1,0,0.1,0,0.2-0.1c5.3-1.3,8.8-6,8.5-11.4
		c-0.3-5.1-4.4-9.5-9.4-10.1c-5.5-0.7-10.4,2.5-12,7.8c-1.1,3.8-1.6,4-5.5,3.6c-10.7-1.1-21.5-2-32.2-3c-0.2,0-0.5,0.1-0.4,0.1
		c2.5,4.5,5.4,8.8,7.4,13.5c2.1,4.7,3.3,9.8,5,14.8c0.1,0,0.5,0,0.8,0c10.6,0.2,18.8,8.1,19,18.3c0.2,10.5-7.7,18.8-18.5,19.3
		c-1.3,0.1-1.8,0.4-2.1,1.8c-2.4,10.3-8.3,18-17.6,23.1c-4.7,2.6-9.8,3.8-15.2,4.2C-48.2-471.7-48.2-466-48.2-460z M-97.1-477.4
		c-0.6-0.1-1.1-0.1-1.6-0.2c-15.6-1.7-27.4-11.8-31-26.5c-0.4-1.8-1.1-2.3-3-2.4c-9.3-0.4-16.8-7.6-17.7-16.8
		c-1-9.2,5.2-17.9,14.2-20.1c1.9-0.5,4-0.5,5.6-0.7c1.6-5,2.9-10,4.9-14.7c2.1-4.7,5-9,7.5-13.5c0,0-0.3,0-0.6,0
		c-10.7,1-21.3,2-32,3c-4.1,0.4-4.4,0.3-5.7-3.7c-1.7-5.3-6.8-8.5-12.3-7.6c-5.4,0.9-9.3,5.8-9.1,11.3c0.2,5.5,4.5,9.9,10.1,10.4
		c3.1,0.3,3.9,1.1,3.9,4.2c0,25.4,0,50.8,0,76.2c0,3.1-0.8,3.9-3.9,4.2c-5.5,0.5-9.8,5-10,10.4c-0.2,5.5,3.8,10.4,9.2,11.2
		c5.7,0.9,10.9-2.6,12.4-8.4c0.8-2.9,1.7-3.5,4.7-3.1c17.5,2.2,35,3.6,52.6,4.1c0.6,0,1.2-0.1,1.8-0.1
		C-97.1-466.1-97.1-471.7-97.1-477.4z M-90.8-442.8c12.2,0,24.2,0,36.3,0c0-11.6,0-23,0-34.5c-12.2,0-24.2,0-36.3,0
		C-90.8-465.8-90.8-454.4-90.8-442.8z"/>
	<path class="st0" d="M-0.7-631.8c-3.8,0-7.5,0-11.3,0c-3.3,0-4.2-1-4.2-4.3c0-2.5,0-5.1,0-7.6c0-2.9,1-4,3.9-4
		c14.4,0,28.8,0,43.2,0c2.2,0,3.3,1,3.8,3c0.6,2.5,1.3,5,1.9,7.6c0.6,2.5,0.2,3.5-2.1,4.8c-5.2,2.9-10.4,5.7-16,8.8
		c0.9,0.1,1.4,0.2,1.9,0.2c3.5,0,7.1,0,10.6,0c2.3,0,3.5,1.2,3.5,3.5c0,3,0,5.9,0,8.9c0,2.4-1.1,3.5-3.4,3.5c-14.6,0-29.2,0-43.9,0
		c-1.8,0-3-0.9-3.4-2.7c-0.7-2.7-1.4-5.5-2.1-8.2c-0.5-2,0.1-3.5,2-4.5c4.5-2.4,8.9-4.8,13.3-7.3c0.8-0.4,1.6-0.9,2.4-1.4
		C-0.6-631.4-0.6-631.6-0.7-631.8z M28.5-617.2c-7.3,0-14.3,0-21.3,0c-1.8,0-3.4-0.2-3.9-2.3c-0.5-2,0.7-3,2.3-3.9
		c7.1-3.8,14.1-7.7,21.1-11.5c3.9-2.1,3.9-2.1,2.6-6.3c0-0.1-0.2-0.2-0.2-0.2c-13.1,0-26.1,0-39.1,0c0,1.2,0,2.3,0,3.6
		c0.9,0,1.7,0,2.4,0c6.4,0,12.7,0,19.1,0c1.9,0,3.3,0.5,3.7,2.5c0.3,1.8-0.8,2.8-2.2,3.6c-7.7,4.2-15.3,8.4-23,12.6
		c-0.7,0.4-1.3,0.8-2,1.2c0.2,0.6,0.3,1,0.4,1.4c1,3.8,0.2,3.1,4,3.1c11.2,0,22.4,0,33.6,0c0.8,0,1.5,0,2.3,0
		C28.5-614.8,28.5-615.9,28.5-617.2z"/>
	<path class="st0" d="M-32.1-659.5c4,1,8.1,2,12,3.2c1.1,0.3,2.1,1.7,2.5,2.8c0.5,1.6-0.9,2.5-2.2,3.3c-7.8,4.1-12.6,10.5-13.8,19.3
		c-1.5,10.7,3.8,20.7,13.3,25.8c0.8,0.4,1.7,0.9,2.2,1.6c1.3,1.7,0.5,3.8-1.9,4.8c-11.5,4.6-22.3,3.2-32.1-4.4
		c-10.4-8.1-14.3-22.3-9.9-34.8c4.4-12.6,16.4-21.1,29.7-21C-32.2-659.1-32.2-659.3-32.1-659.5z M-28.1-652.2
		c-8.5-2.5-19.9,2.4-25.4,10.8c-6.2,9.4-5.4,21.7,1.8,30.2c5.9,6.9,17.3,11,23.5,8.3C-43.9-615.9-43.9-639-28.1-652.2z"/>
	<path class="st0" d="M-73.8-515.9c6,0.1,10.7,0.7,14.9,3.3c2.9,1.7,5.2,4,6.4,7.1c0.7,1.7,0.1,3-1.4,3.8c-1.6,0.9-3.2,0.4-3.9-1.1
		c-2-4.1-5.5-6-9.6-6.4c-3.9-0.4-7.9-0.2-11.8,0.3c-3.5,0.5-6.4,2.5-8.1,5.9c-0.8,1.6-2.3,2.2-4,1.4c-1.7-0.9-2.1-2.3-1.4-4
		c2.5-5.5,7.2-8.1,12.8-9.4C-77.6-515.7-75.1-515.8-73.8-515.9z"/>
	<path class="st0" d="M-93.9-539.7c2.2,0.6,5.2,1.1,7.9,2.3c1.6,0.7,2.9,2.3,4,3.8c0.9,1.3,0.6,2.8-0.8,3.8c-1.3,1-2.9,1-3.9-0.3
		c-2.4-3.3-5.9-3.3-9.4-3.2c-1.8,0-3.6,0.5-5.4,0.7c-2.1,0.3-3.5-0.6-3.8-2.3c-0.4-1.8,0.6-3.3,2.8-3.7
		C-100-539-97.4-539.2-93.9-539.7z"/>
	<path class="st0" d="M-43.4-533.1c-3.3,0-6.6-0.1-9.9,0c-2,0.1-3.7,0.9-5,2.6c-1.1,1.5-2.6,1.8-4.2,0.7c-1.6-1.1-1.6-2.6-0.7-4.2
		c1.3-2.3,3.4-3.7,5.9-4.5c5-1.6,10-1.2,15,0c1.7,0.4,2.5,1.7,2.2,3.4c-0.3,1.8-1.6,2.5-3.3,2.4C-43.4-532.7-43.4-532.9-43.4-533.1z
		"/>
	<path class="st0" d="M-139.6-525.3c0-4.3,3.5-7.8,7.7-7.8c1.7,0,3,0.6,3.3,2.5c0.3,1.9-0.6,3.1-2.4,3.5c-1.2,0.3-2.4,0.4-2.4,2
		c0,1.5,1.2,1.7,2.4,2c1.8,0.4,2.7,1.6,2.4,3.5c-0.3,1.8-1.6,2.5-3.3,2.4C-136.2-517.3-139.7-520.9-139.6-525.3z"/>
	<path class="st0" d="M-5.7-525.1c0,4.4-3.6,7.9-7.8,7.8c-1.8,0-2.9-0.8-3.1-2.6c-0.2-1.8,0.7-2.9,2.4-3.3c1.2-0.3,2.4-0.4,2.4-1.9
		c0-1.5-1.1-1.8-2.3-2c-1.8-0.4-2.7-1.6-2.5-3.5c0.3-1.8,1.5-2.5,3.3-2.5C-9.2-533.1-5.7-529.5-5.7-525.1z"/>
</g>
<g>
	<path class="st0" d="M208.8-489.5c3.5,0.7,12.6-2,12.9,2.4c-0.2,4.3-9.5,1.7-12.8,2.4c0.1,5.8-1.9,14.1,6.6,14
		c5.9,0.6,13.2-1.7,18.3,1.9c4.2,5.9,1.5,14,2.2,20.9c19.6,0,39.1,0,58.6,0c2.7-15.2,10-28.4,22.3-38.1
		c43.2-32.9,31-98.9-19.9-116.4c-4.3-0.6-4-6.2,0.3-5c56.5,18.1,68.9,91.2,21,126.6c-10.8,8.4-16.4,19.9-18.6,33.2
		c0.1,2.2-1.1,3.6-2.8,4.7c-20.4,0.2-41,0-61.4,0.1c-3.6,0-4.1-0.5-4.1-4c0-5.2,0-10.5,0-15.7c0-2.9-0.3-3.2-3.1-3.2
		c-4.2,0-8.5,0-12.7,0c-16.8-0.5-10.1-21.4-11.4-32.5c0.7-3.9-2.9-2.4-5.5-2.7c-7.5-0.1-11.7-7.5-7.9-14
		c4.3-8.6,12.2-15.9,12.7-25.9c1.1-37.3,32.5-71.9,71.1-71c3.7-0.5,3.7,5.3,0,4.8c-36.9-0.9-65.8,33.3-66.4,68.5
		c0.7,9.7-16.2,23.9-13.4,30.6c1.6,3,5.2,2.1,8.1,2.3C211.2-505.5,208.3-495.4,208.8-489.5z"/>
	<path class="st0" d="M250.4-516.9c-14.7,13.1-38.1-4.6-28.9-22.2c0.6-1.2,0.6-2.1,0-3.3c-3.9-7.7-1.8-16.5,5-21.9
		c0.7-0.6,1.3-1.6,1.4-2.5c0.8-10.1,10.4-17.5,20.5-15.9c0.7,0.1,1.8-0.2,2.2-0.8c7.5-11.3,20.8-11.7,29.6-1.6
		c9.2-5.6,22.3-1.8,26.5,8.3c0.5,1.2,1.2,1.6,2.5,1.7c7.9,0.8,13.6,4.8,16.3,12.3c2.6,7.3,1,13.9-4.4,19.5c-0.7,0.7-1.1,1.2-0.6,2.3
		c4.6,11.1-0.4,21.6-11.5,25.8c3.7,5.3,7.8,12.6,2.2,18.1c-3,3.1-7.8,4-11.5,1.9c-6.3-3.4-7.2-12.4-13.2-15.7c-3-0.6-6.2-2.4-9.2-2
		C266.6-506.7,259.1-507.8,250.4-516.9z M233-567.7c3.7-1.7,18.8-3.2,17.5,3.4c-0.6,1.4-1.8,1.8-3.2,1.2c-11-5.6-28.2,6-21.6,18.1
		c5.3-4.1,11.7-5.5,17.8-2.6c1.3,0.6,2.1,1.6,1.5,3.1c-0.6,1.5-1.8,1.9-3.3,1.3c-5-2.1-10.5-1-14,3.2c-11.5,13.3,8.1,31.3,20.3,18.6
		c2.9-3,3.7-2.9,5.8,0.8c4.2,7.1,13.5,9,20,4c4.4-4.2,4.1-11.6,0.9-16.6c-0.9-1.3-0.8-2.6,0.6-3.5c3.6-1.9,4.7,4.1,5.8,6.4
		c1.2,4.3,0.7,8.5-0.8,13.2c4.3,1.5,9.6,0.4,12.1,4.8c3.7,4.3,6.6,16.3,13.9,12.7c5.5-3.3,0.3-9.3-1.9-13.2
		c-1.9-3.4,0.5-6.8,3.9-7.4c7.5-3,11-12,7.3-18.5c-0.2,0-0.4,0-0.6,0.1c-3.2,3.3-25.5,1.1-16-4.7c6,1.5,11.8,3.1,17.1-2.1
		c10.3-8.5,4.3-25.7-9.2-24.8c-3.1,0.2-3.3,0-4.2-2.9c-2.8-8.8-13.5-12.6-20.3-7.5c0.2,4.7,2.7,10.6-1.9,13.8
		c-2,1.2-4.3-0.8-3.5-2.7c2.5-3,1.4-6,0.5-9c-3-10.9-19.5-11.7-23.6-1c-1.3,3.1-1.7,3.3-4.9,2.3C242-579.8,234.3-575.3,233-567.7z"
		/>
	<path class="st0" d="M282.2-622.4c-3.3,0.5-11.6,4.4-10-1.9c2.7-7.1,5.4-14.2,8.1-21.4c1.4-4,12-1.4,15.8-2
		c6.4,0-0.6,11.1-0.9,14.9c3.1-0.3,10.1-1.5,7.9,3.7c-6.2,10.7-12.6,21.3-18.8,31.9c-1.3,3-5.6,1.5-4.7-1.7
		C280.5-606.8,281.5-614.5,282.2-622.4z M293.4-642.9c-3.1,0.4-7.3-1-9.2,0.9c-2,5-3.9,10.1-6,15.6c5.2-1,10.5-3.9,8.9,4
		c-0.5,4.3-1,8.6-1.5,12.9c0.1,0,0.3,0.1,0.4,0.1c3.6-6.1,7.2-12.1,11-18.5c-3.5,0.1-8.9,1.5-7.1-3.7
		C291-635.3,292.1-638.9,293.4-642.9z"/>
	<path class="st0" d="M218-636.6c2.7-1.9,8.1-6.3,8.7-0.7c-0.3,12.4-0.8,24.8-1.2,37.3c0.3,3.1-4,3.8-4.8,0.8
		c-3.1-7.4-5.9-14.7-9.2-22.1c-2.6,2-8.2,9.5-9.6,3c-1.1-7.5-2.2-15.1-3.1-22.7c0.3-4.4,9.5-6.8,12.9-9.3
		C217.3-653.2,216.4-640.1,218-636.6z M206-623.3c2.9-0.9,6.7-8,9-2.3c2,4.6,3.7,9.3,5.8,13.8c0.1,0,0.2-0.1,0.3-0.1
		c0.2-7,0.5-14,0.7-21.4c-2.6,1.6-6.5,5.3-7.9,0.9c-0.8-4.1-1.6-7.9-2.5-12.2c-2.3,1.9-8.1,2.7-7.7,5.9
		C204.6-633.6,205.3-628.5,206-623.3z"/>
	<path class="st0" d="M358-621.2c2.7,1,10.1,2.9,5.5,6.5c-10.4,7-20.8,13.9-31.1,20.9c-1.1,0.8-2.2,0.9-3.3-0.1
		c-1.1-1.1-0.9-2.3-0.1-3.5c4.2-6.8,8.5-13.4,12.6-20.3c-3.3-0.8-12.1-1.3-7.9-6.2c5.3-5.2,10.7-10.3,16.1-15.4
		c3.1-3.2,11.2,3.7,15.1,4.7C371.2-631.4,359.3-624.7,358-621.2z M339.1-604.5c0.1,0.1,0.2,0.2,0.3,0.3c5.9-3.9,11.8-7.9,17.9-12
		c-3.7-1.5-8.9-2.7-4.4-6.9c2.4-2.6,4.9-5.2,7.5-8.1c-2.8-1.3-5.4-2.6-8.1-3.9c-4.2,4-8.4,8-12.7,12.1c4,1.2,11,0.9,6.9,6.4
		C344.1-612.5,341.6-608.5,339.1-604.5z"/>
	<path class="st0" d="M262.2-561.6c5.3,3.3,9.7,8.4,7.4,15c-0.5,1.5-1.3,2.7-3,2.3c-1.8-0.4-2.1-1.8-1.6-3.5
		c1.5-3.7-2.5-10.9-6.7-8.4c-2.5,2.6-13.1,5.2-13.3,0c0.2-1.5,1.2-2.2,2.6-2.1c8.1,0.4,11.3-3.8,11.9-11.6c0.7-3,4.4-1.7,4.5,0.7
		C263.7-566.8,263-564.2,262.2-561.6z"/>
	<path class="st0" d="M290-532.2c5.5-0.2,13.9,8,8.7,12.6c-4.8,1.4-1.8-9.3-10.4-7.3c-1.4,0.7-3.5-0.3-3.9-1.4
		C284.1-531.6,287.7-531.8,290-532.2z"/>
	<path class="st0" d="M258.2-528.1c-5.9,0-10.8-4.6-11.3-10.5c-0.1-1.5,0.3-2.7,1.9-3c3.7-0.1,3.3,5.8,5.8,7.6
		c1.8,2.1,7.1-0.4,7.5,3.4C262.5-528.8,260.4-528,258.2-528.1z"/>
	<path class="st0" d="M299.4-564.4c-0.1,5.6-3.4,9.9-8.3,10.5c-1.4,0.2-2.4-0.2-2.8-1.6c-0.8-5,7.8-2,6.2-10.6c0-0.4-0.3-1-0.1-1.2
		C296.6-571.5,299.6-567.8,299.4-564.4z"/>
</g>
<g>
	<path class="st0" d="M926.5-2.3c-5.4-2.8-5.4-7.4-4.7-12.8c4.2-31.5-1.1-61.6-15.1-90.1c-8.6-17.6-17.9-34.8-26.3-52.4
		c-13.5-28.3-19.8-58.2-19-89.5c0.6-24.1,7-46.7,19.1-67.6c2.6-4.6,6.7-6,10.6-3.8c4,2.2,4.9,6.5,2.3,11.3c-0.1,0.1-0.1,0.2-0.2,0.3
		c-15.2,26.3-19.2,54.6-15.9,84.4c3,27.5,13,52.5,25.4,76.9c8.5,16.7,17.1,33.5,24.3,50.8c10,23.8,12.5,48.9,10.3,74.5
		c-0.1,0.8-0.1,1.7-0.2,2.7c34.8,0,69.4,0,104.2,0c2-10.3,6.2-19.4,13.3-27.1c8.9-9.6,19.8-14.9,33.1-14.6c9.1,0.2,18.2,0.1,27.3,0
		c12.8-0.1,22-9,23.1-21.8c0.2-2.3,1.7-4.5,2.9-6.6c0.6-1.2,1.9-2,2.8-2.9c3.9-4.1,3.9-7.9,0-12.1c-6.1-6.4-5.1-11.3,2.9-14.9
		c1.2-0.6,2.5-1.1,3.7-1.7c4.3-2.2,5.7-5.8,3.9-10.3c-2.4-5.7-5-11.4-7.5-17.1c-2.7-6.2-1-10,5.4-12.1c6.2-2,12.3-4,18.5-6
		c8.7-2.8,10.2-8.3,3.9-14.9c-9.9-10.4-19.7-20.9-29.8-31.1c-9.8-9.8-14.3-21.4-14.4-35.3c-0.8-59.9-45.3-112-104.3-122.4
		c-30.4-5.4-59-0.4-85.9,14.6c-0.5,0.3-1.1,0.6-1.6,0.9c-4.1,2-8.3,0.9-10.4-2.7c-2.1-3.7-1.1-8.2,3.1-10.2
		c10-4.7,19.9-10.1,30.4-13.3c69.8-21.3,143,12.7,172.3,79.6c7.4,16.9,11.4,34.6,11.5,53c0.1,10.1,3.2,18.3,10.4,25.5
		c10.2,10.2,20.1,20.8,30.1,31.3c13.4,14.1,8.7,32.8-9.8,39c-4.1,1.4-8.3,2.7-12.7,4.1c1.5,3.5,3,6.8,4.4,10.1
		c4.8,11,2.6,20.4-6.4,28.3c-0.8,0.7-1.2,2.6-0.9,3.6c3,9.2,1.2,17.1-5.3,24.3c-1.2,1.4-2.3,3.3-2.6,5.1
		c-3.3,17.9-18.2,30.8-36.4,31.1c-8.7,0.1-17.5,0.3-26.2,0c-15.2-0.7-24.7,7.1-30.7,20c-1.8,3.9-2.9,8.3-3.2,12.6
		c-0.4,4.3-1.7,7.4-5.5,9.4C1009.3-2.3,967.9-2.3,926.5-2.3z"/>
	<path class="st0" d="M1085.9-243.3c0,45.4-37,82.3-82.3,82.3c-45.4,0-82.3-37-82.3-82.4c0-45.4,37-82.3,82.3-82.3
		C1049-325.6,1085.9-288.7,1085.9-243.3z M1003.8-310.7c-37.2-0.1-67.5,30.1-67.6,67.2c-0.1,37.2,30.1,67.5,67.2,67.6
		c37.2,0.1,67.5-30.1,67.6-67.2C1071-280.3,1040.9-310.6,1003.8-310.7z"/>
	<path class="st0" d="M916-338.6c0.1,4.1-3.3,7.6-7.5,7.6c-4,0-7.3-3.3-7.4-7.3c-0.1-4.1,3.3-7.6,7.5-7.6
		C912.5-345.8,915.9-342.5,916-338.6z"/>
	<path class="st0" d="M1003.6-250.8c20,0,36.8,16.2,37.4,35.9c0.1,5.3-2.8,8.9-7.3,9c-4.4,0.1-7.3-3.1-7.7-8.3
		c-0.8-12.3-10.4-21.6-22.5-21.6c-12,0-21.6,9.3-22.4,21.6c-0.3,5.2-3.3,8.4-7.7,8.3c-4.5-0.1-7.4-3.7-7.3-9
		C966.7-234.6,983.6-250.8,1003.6-250.8z"/>
	<path class="st0" d="M981.1-273.1c-0.1,4.1-3.7,7.5-7.8,7.3c-4-0.2-7.2-3.6-7.1-7.6c0.1-4.1,3.6-7.5,7.8-7.3
		C977.9-280.5,981.1-277.1,981.1-273.1z"/>
	<path class="st0" d="M1041-273.4c0.1,4.1-3.4,7.6-7.5,7.6c-4,0-7.3-3.4-7.4-7.3c-0.1-4.1,3.4-7.6,7.5-7.6
		C1037.6-280.7,1040.9-277.4,1041-273.4z"/>
</g>
</svg>
