<?xml version="1.0" encoding="utf-8"?>
<!-- Generator: Adobe Illustrator 24.3.0, SVG Export Plug-In . SVG Version: 6.00 Build 0)  -->
<svg version="1.1" id="Layer_1" xmlns="http://www.w3.org/2000/svg" xmlns:xlink="http://www.w3.org/1999/xlink" x="0px" y="0px"
	 viewBox="0 0 150 150" style="enable-background:new 0 0 150 150;" xml:space="preserve">
<style type="text/css">
	.st0{fill:#005BAB;}
</style>
<g>
	<path class="st0" d="M77.3,0.9c2.9,0.8,5.7,1.6,8.1,3.5c4.3,3.4,6.8,7.8,6.9,13.3c0.1,7.2,2.7,13.2,7.9,18
		C107,42,112,49.3,114.2,58.4c0.9,4,1.5,8.2,1.6,12.3c0.2,11.9,0.1,23.7,0,35.6c0,1.1,0.3,1.8,1.1,2.5c10,10,20,20,30,30
		c1.2,1.2,2,2.4,2.1,4.1c0.1,2.5-0.9,4.3-3,5.5c-2,1.1-4.6,0.9-6.4-0.6c-0.4-0.3-0.8-0.7-1.1-1.1c-7.1-7.1-14.1-14.1-21.2-21.2
		c-0.4-0.4-0.7-0.8-1.3-1.1c0,4.2,0,8.4,0,12.8c1.2,0,2.5,0,3.8,0c3.5,0,6.1,2.4,6.2,5.7c0,3.3-2.6,5.8-6.2,5.8
		c-29.8,0-59.6,0-89.3,0c-3.6,0-6.3-2.5-6.2-5.8c0-3.3,2.6-5.7,6.2-5.7c1.2,0,2.5,0,3.9,0c0-0.7,0-1.3,0-1.9c0-21.2,0-42.5,0-63.7
		c0-8,1.4-15.6,5.2-22.7c0.5-0.9,0-1.2-0.5-1.7C27.8,36.1,16.7,25,5.6,13.9c-0.8-0.8-1.6-1.6-2.5-2.5C0.5,8.8,0.3,5.3,2.7,2.9
		c2.4-2.4,5.9-2.3,8.6,0.4C22.7,14.6,34,26,45.4,37.4c0.4,0.4,0.7,0.9,1.1,1.3c5.7-4.9,10.3-10.2,11.1-17.8c0.2-2.2,0.1-4.4,0.6-6.5
		c1.8-7.3,6.5-11.6,13.7-13.3c0.3-0.1,0.5-0.2,0.8-0.3C74.2,0.9,75.8,0.9,77.3,0.9z M104.2,137.2c0-0.6,0-1,0-1.4
		c0-7.3,0-14.6,0-21.9c0-1-0.3-1.7-1-2.4c-16-15.9-32-31.9-47.9-47.9c-2.2-2.2-4.5-4.5-6.8-6.9c-0.3,0.7-0.5,1.2-0.7,1.7
		c-1.4,3.8-2,7.8-2,11.9c0,21.8,0,43.6,0,65.4c0,0.5,0,0.9,0,1.5C65.3,137.2,84.7,137.2,104.2,137.2z M104.2,95.9
		c0-0.3,0.1-0.5,0.1-0.8c0-8.5,0.2-17.1-0.1-25.6c-0.1-3.5-0.9-7.1-1.9-10.5c-1.8-6.2-5.9-11-10.5-15.5C84.6,36.7,81,28.2,80.8,18.4
		c-0.1-3.4-2.5-5.9-5.8-5.9c-3.3,0-5.6,2.5-5.8,6c-0.1,1.8-0.2,3.6-0.5,5.3c-1.2,7.5-4.7,13.9-10.1,19.3c-1.3,1.2-2.6,2.4-3.9,3.5
		C71.4,63.1,87.7,79.4,104.2,95.9z"/>
</g>
<g>
	<path class="st0" d="M280.9,251.4c1,0.4,2,0.9,3,1.2c11.2,3.8,18.1,15.1,16.2,26.3c-2.1,11.9-11.9,20.3-23.7,20.3
		c-11.9,0-21.9-8.7-23.7-20.7c-1.7-11.2,5.2-22.2,16.3-26c1-0.3,2-0.8,3-1.2C274.9,251.4,277.9,251.4,280.9,251.4z M288.4,275.2
		c-0.1-6.5-5.6-11.8-12.1-11.7c-6.5,0.1-11.8,5.5-11.8,12c0,6.7,5.6,12.1,12.3,11.9C283.2,287.2,288.4,281.7,288.4,275.2z"/>
	<path class="st0" d="M300.1,400.6c-1.2-0.5-2.4-1-3.5-1.5c-10.1-4.6-15.9-15.4-13.9-26c2.2-11.5,11.5-19.7,23-19.8
		c20.3-0.1,40.7-0.2,61,0c11.5,0.1,20.8,8.3,23,19.8c2,10.6-3.7,21.6-14,25.9c-2.8,1.2-3.8,2.4-3.2,5.4c0.8,4.1,1.1,8.3,2,12.4
		c4-12.7,10.1-24.1,19.4-33.4c22.3-22.1,49.1-29.4,79-20.1c29.9,9.3,48.1,30.5,53.4,61.5c8.4,49.1-31.8,93.3-81.5,89.7
		c-8.4-0.6-16.8-3.3-24.9-5.9c-4.1-1.3-7.3-1.5-11.2,0.7c0.6,1.3,1.1,2.6,1.8,3.8c10.4,18.7,20.8,37.5,31.2,56.2
		c3.1,5.5,3.2,6.4-0.7,11.3c-10.7,13.8-21.4,27.6-32.5,41.9c22,0,43.5,0,65.2,0c0,4.2,0,8,0,12c-83.6,0-167.1,0-250.9,0
		c0-3.7,0-7.5,0-11.6c13.4,0,26.9,0,41.1,0c-1.1-1.5-1.7-2.5-2.4-3.5c-9.9-12.8-19.9-25.6-29.8-38.4c-4.2-5.4-4.2-6.2-0.7-11.9
		c21.8-36.4,41.6-73.8,56.2-113.7c6.2-17,11.2-34.3,12.8-52.5C300.1,402.1,300.1,401.4,300.1,400.6z M313,401.3
		c-2.2,11-3.8,21.7-6.4,32.2c-8.4,32.8-22.5,63.3-38,93.2c-8.4,16.1-17.5,31.9-26.4,48c0.1,0.1,0.3,0.6,0.6,0.9
		c11.7,15.1,23.4,30.2,35.2,45.1c0.9,1.2,3.1,1.9,4.7,1.9c35.7,0.1,71.4,0,107,0.1c2.7,0,4.3-0.9,5.9-3
		c10.9-14.1,21.8-28.2,32.8-42.2c1.8-2.3,2-3.8,0.5-6.4c-10-17.7-19.8-35.5-29.3-53.4c-1.9-3.6-3.3-5.1-7.5-3.4
		c-1.7,0.7-4.9-0.3-6.2-1.6c-1.2-1.2-1.4-4.1-1.1-6.1c0.4-2.5,1.6-5,2.8-7.3c1.2-2.5,0.9-4.5-0.1-7.1c-6.4-16.2-13.3-32.3-18.5-48.9
		c-4.3-13.6-6.6-27.8-9.8-42.1C344.3,401.3,328.5,401.3,313,401.3z M400.9,498.4c0.5,0.1,0.8,0.3,1,0.2c3.3-1.1,6.7-2,9.9-3.2
		c3.1-1.2,5.9-0.8,8.9,0.6c23.2,10.9,46,9.8,67-4.7c21.1-14.5,30.5-35.3,28.3-61c-2.3-26.5-21.2-49.2-46.8-56.8
		c-25.9-7.6-53.9,1.2-70.6,22.2c-20.4,25.7-19.1,61.7,3.2,86c2.8,3.1,3.5,6.1,1.8,9.8C402.6,493.8,401.8,496.1,400.9,498.4z
		 M336.5,365.2c-9.9,0-19.7,0-29.6,0c-7.3,0-12.6,5.2-12.6,12c0,6.8,5.4,11.9,12.7,11.9c19.5,0,38.9,0,58.4,0
		c7.3,0,12.7-5.1,12.7-11.8c0.1-6.9-5.3-12.1-12.9-12.1C355.7,365.2,346.1,365.2,336.5,365.2z"/>
	<path class="st0" d="M378.3,305.3c-10,0-18.1-8.1-18.1-18c0-9.8,8.1-17.8,17.8-17.9c9.9-0.1,18.1,8,18.1,18
		C396.2,297.2,388.1,305.3,378.3,305.3z M378.2,293.3c3.2,0,5.9-2.7,6-5.9c0.1-3.4-2.8-6.2-6.1-6.1c-3.2,0.1-5.8,2.8-5.8,6.1
		C372.3,290.7,375,293.3,378.2,293.3z"/>
	<path class="st0" d="M318.5,347.2c-10,0-18.1-8-18.1-18c0-9.8,8-17.8,17.8-17.9c9.9-0.1,18.1,8,18.1,18
		C336.3,339,328.2,347.2,318.5,347.2z M324.3,329.2c-0.1-3.2-2.8-5.9-6-5.9c-3.4,0-6.1,2.9-5.9,6.3c0.2,3.2,3,5.8,6.2,5.7
		C321.7,335.1,324.3,332.4,324.3,329.2z"/>
	<path class="st0" d="M258.5,347.2c-4.3,0-7.9,0-11.9,0c0-3.9,0-7.6,0-11.8c-4.2,0-8,0-11.9,0c0-4.1,0-7.8,0-11.9
		c3.8,0,7.5,0,11.7,0c0-4.2,0-8,0-11.9c4.1,0,7.8,0,11.9,0c0,3.8,0,7.5,0,11.7c4.2,0,8,0,11.9,0c0,4.1,0,7.8,0,11.9
		c-3.8,0-7.5,0-11.7,0C258.5,339.3,258.5,343.1,258.5,347.2z"/>
	<path class="st0" d="M402.1,347.2c-4.1,0-7.7,0-11.8,0c0-3.9,0-7.6,0-11.8c-4.2,0-8,0-11.9,0c0-4.1,0-7.8,0-11.9
		c3.8,0,7.6,0,11.7,0c0-4.2,0-8,0-11.9c4.1,0,7.8,0,11.9,0c0,3.8,0,7.6,0,11.7c4.2,0,8,0,11.9,0c0,4.1,0,7.8,0,11.9
		c-3.8,0-7.6,0-11.9,0C402.1,339.4,402.1,343.3,402.1,347.2z"/>
	<path class="st0" d="M246.5,425.2c0-4.3,0-7.9,0-11.9c3.8,0,7.6,0,11.8,0c0-4.2,0-8,0-11.9c4.1,0,7.8,0,11.9,0c0,3.7,0,7.5,0,11.7
		c4.2,0,8,0,11.9,0c0,4.1,0,7.8,0,11.9c-3.7,0-7.5,0-11.7,0c0,4.2,0,8,0,11.9c-4.1,0-7.8,0-11.9,0c0-3.7,0-7.5,0-11.7
		C254.4,425.2,250.6,425.2,246.5,425.2z"/>
	<path class="st0" d="M198.9,622.7c3.2,0,6,0,8.9,0c0.7,0,1.5,0,2.5,0c0,3.9,0,7.7,0,11.7c-3.7,0-7.5,0-11.4,0
		C198.9,630.5,198.9,626.7,198.9,622.7z"/>
	<path class="st0" d="M336,610.7c-15.2,0-30.4-0.1-45.7,0.1c-3.5,0-5.9-1.2-8-3.9c-7-8.9-14.1-17.8-21.2-26.6
		c-3.6-4.5-3.7-6-0.4-10.6c14.8-20.3,25.9-42.5,33.3-66.5c1.7-5.4,2.9-6.2,8.7-6.2c22.5,0,44.9,0,67.4,0c5.5,0,6.8,0.9,8.4,6
		c7.5,24.1,18.6,46.4,33.5,66.9c3.1,4.2,3,6-0.1,10c-7.2,9.1-14.6,18.1-21.7,27.2c-2.1,2.7-4.6,3.8-8,3.7
		C366.7,610.7,351.4,610.7,336,610.7z M367.7,508.9c-20.5,0-40.7,0-60.9,0.1c-1,0-2.5,1.4-2.8,2.5c-7.3,21.7-17.4,42.1-30.6,60.9
		c-1.1,1.5-1.3,2.6,0,4.2c5.5,6.7,10.9,13.6,16.5,20.3c0.8,1,2.5,1.7,3.7,1.7c28.4,0.1,56.9,0.1,85.3,0c1.1,0,2.6-0.4,3.2-1.2
		c6.2-7.5,12.2-15.1,18.4-22.8C386.2,554.4,375.3,532.5,367.7,508.9z"/>
	<path class="st0" d="M450.1,491c-5.6,0-11.2,0-16.8,0c-4.9,0-7.5-2.3-7-7.1c0.8-7.5-1.6-12.3-7.8-17.3
		c-16.4-13.2-20.7-36.6-11.8-55.7c8.7-18.8,29.5-30.3,49.2-27.3c22.2,3.3,38.6,19.1,41.5,40.5c2.7,19.7-4.6,35.4-20.8,46.8
		c-1.8,1.3-2.7,2.5-2.5,4.8c0.2,2.9,0.1,5.7,0,8.6c-0.1,4.4-2.3,6.6-6.7,6.7C461.5,491,455.8,491,450.1,491z M485,437.9
		c-4,7.3-9.9,11.7-18.4,11c-8.6-0.7-13.7-6-16.6-14.7c-2.7,8.9-8,14-16.4,14.7c-8.5,0.7-14.4-3.6-18.5-10.9
		c2.2,10.9,8,19.1,17.6,24.3c4.1,2.2,5.9,4.9,5.5,9.5c-0.2,2.3,0,4.6,0,6.9c2.3,0,4.1,0,6.1,0c0-4,0-7.7,0-11.4c4.1,0,7.8,0,12,0
		c0,4,0,7.8,0,11.5c2.1,0,3.8,0,5.8,0c0-1.8,0.2-3.4,0-5c-0.7-5.7,1.2-9.3,6.6-12.2C477.8,456.6,483.1,448.3,485,437.9z
		 M414.9,425.2c4.3-8.4,10.2-12.7,18.8-11.9c8.5,0.7,13.7,6.1,16.5,14.7c2.7-8.7,7.8-13.8,16.1-14.7c8.7-0.9,14.7,3.5,18.7,11.3
		c-0.9-14.7-16.6-28.7-32.7-29.4C434,394.3,417.8,406.9,414.9,425.2z M438,431.1c0-3.2-2.7-5.9-5.9-6c-3.4-0.1-6.2,2.8-6,6.2
		c0.1,3.2,2.9,5.8,6.1,5.8C435.4,437,438.1,434.3,438,431.1z M474,431.2c0.1-3.2-2.5-6-5.7-6.1c-3.4-0.1-6.2,2.7-6.2,6
		c0,3.2,2.7,5.9,5.9,5.9C471.2,437.1,473.9,434.4,474,431.2z"/>
	<path class="st0" d="M336.3,539.1c-0.1,9.7-8.3,17.8-18,17.7c-10-0.1-18-8.3-17.9-18.2c0.1-9.8,8.2-17.7,18-17.7
		C328.3,521,336.3,529.1,336.3,539.1z M318.4,544.8c3.2,0,5.9-2.7,5.9-5.9c0-3.4-2.8-6.1-6.2-6c-3.2,0.1-5.8,2.9-5.7,6.1
		C312.4,542.2,315.1,544.9,318.4,544.8z"/>
	<path class="st0" d="M378.2,568.7c0.1,9.7-8,17.9-17.7,18c-10,0.1-18.2-8-18.2-17.9c0-9.8,7.9-17.9,17.7-18
		C369.9,550.7,378.1,558.8,378.2,568.7z M366.2,568.7c-0.1-3.2-2.8-5.9-6-5.9c-3.4,0-6.1,2.9-5.9,6.3c0.2,3.2,3,5.8,6.2,5.7
		C363.6,574.7,366.3,571.9,366.2,568.7z"/>
	<path class="st0" d="M348.4,532.6c0-3.9,0-7.6,0-11.5c3.9,0,7.7,0,11.6,0c0,3.8,0,7.5,0,11.5C356.3,532.6,352.5,532.6,348.4,532.6z
		"/>
	<path class="st0" d="M306.1,574.6c-3.9,0-7.6,0-11.5,0c0-3.8,0-7.6,0-11.6c3.8,0,7.5,0,11.5,0C306.1,566.8,306.1,570.5,306.1,574.6
		z"/>
	<path class="st0" d="M336.1,581c0,3.8,0,7.5,0,11.5c-3.8,0-7.5,0-11.6,0c0-3.7,0-7.5,0-11.5C328.3,581,332,581,336.1,581z"/>
</g>
</svg>
