<?xml version="1.0" encoding="utf-8"?>
<!-- Generator: Adobe Illustrator 24.3.0, SVG Export Plug-In . SVG Version: 6.00 Build 0)  -->
<svg version="1.1" id="Layer_1" xmlns="http://www.w3.org/2000/svg" xmlns:xlink="http://www.w3.org/1999/xlink" x="0px" y="0px"
	 viewBox="0 0 150 150" style="enable-background:new 0 0 150 150;" xml:space="preserve">
<style type="text/css">
	.st0{fill:#005BAB;}
</style>
<g>
	<path class="st0" d="M23.5,89.4c-1.5,0-2.8,0-4.1,0c-3.6,0.1-6.4-1.1-8.2-4.3c-1.6-2.9-1.3-5.9,1.1-9.4c-1.4,0-2.7,0-4,0
		c-3.9-0.1-7.2-2.9-7.8-6.7c-0.9-5,2.8-9.5,7.9-9.6c1.2,0,2.5,0,3.9,0c-0.2-0.4-0.4-0.7-0.6-0.9c-1.7-2.7-2-5.5-0.5-8.3
		c1.5-2.9,4-4.4,7.2-4.4c5.8,0,11.6,0,17.4,0c0.5,0,1.1,0,1.8,0c-0.3-0.5-0.6-0.8-0.8-1.1c-1.9-2.9-2.1-5.9-0.6-8.9
		c1.5-3,4.1-4.7,7.5-4.7c10-0.1,20-0.1,30,0.1c7.8,0.2,15.3,2.1,22.4,5.3c17.3,7.7,34.6,15.4,51.8,23.2c0.9,0.4,2,0.7,1.6,2.1
		c-0.3,0.9-1.1,1-2.7,0.3c-17.4-7.8-34.8-15.5-52.2-23.3c-7.6-3.4-15.6-5-23.9-5.1c-8.8,0-17.6,0-26.5,0c-4.7,0-7.8,4.4-5.9,8.5
		c1.1,2.5,3.1,3.6,5.8,3.7c5.1,0,10.2,0,15.3,0c0.3,0,0.6,0,0.9,0c0.9,0,1.5,0.3,1.5,1.3c0,1-0.7,1.4-1.6,1.3c-0.5,0-0.9,0-1.4,0
		c-13.4,0-26.8,0-40.3,0c-3.8,0-6.5,3.1-5.7,6.7c0.5,2.4,2.5,4.2,5,4.4c0.5,0,1,0,1.5,0c12.8,0,25.7,0,38.5,0c0.4,0,0.9-0.1,1.2,0.1
		c0.4,0.3,1,0.8,1,1.2c0,0.4-0.5,1-0.9,1.3c-0.3,0.2-0.9,0.1-1.3,0.1c-16.3,0-32.6,0-48.9,0c-1.3,0-2.7,0.4-3.8,1
		c-2,1.2-2.8,3.7-2.2,5.9c0.6,2.3,2.6,3.9,5,4.1c0.5,0,1,0,1.5,0c16.7,0,33.4,0,50.1,0c0.5,0,1-0.1,1.4,0.1c0.4,0.3,1.1,0.8,1,1.2
		c0,0.5-0.6,1-1.1,1.3c-0.3,0.2-0.8,0.1-1.2,0.1c-13.6,0-27.3,0-40.9,0c-3.2,0-5.5,1.8-5.9,4.8c-0.5,3.1,1.9,6,4.9,6.2
		c0.5,0,0.9,0,1.4,0c15.1,0,30.3,0,45.4,0c0.5,0,1-0.1,1.4,0.1c0.4,0.3,0.9,0.8,0.9,1.2c0,0.4-0.5,1-1,1.2c-0.3,0.2-0.9,0.1-1.4,0.1
		c-11.5,0-23,0-34.5,0c-3.2,0-5.4,1.7-5.9,4.5c-0.6,2.9,1.3,5.7,4.2,6.3c0.7,0.1,1.4,0.2,2.1,0.2c20.9,0,41.7,0,62.6,0
		c4.3,0,8.4-1,12.1-3.2c1.7-1,3.5-1,5.3-0.1c12.7,6.4,25.3,12.7,38,19.1c0.9,0.4,1.6,0.9,1.1,2c-0.5,1.1-1.4,0.8-2.3,0.3
		c-12.5-6.3-25-12.6-37.5-18.9c-1.3-0.7-2.4-0.7-3.6,0.1c-4,2.3-8.3,3.3-12.8,3.3c-21,0-42,0-63,0c-3.4,0-6.1-1.2-7.8-4.3
		c-1.6-3.1-1.3-6,0.7-8.9C23.3,89.8,23.3,89.7,23.5,89.4z"/>
	<path class="st0" d="M91.8,63.9c0-5.4,4.3-9.7,9.7-9.8c5.4,0,9.9,4.4,9.8,9.8c-0.1,5.4-4.4,9.7-9.8,9.7
		C96.2,73.7,91.8,69.3,91.8,63.9z M108.7,64c0-4-3.1-7.2-7.1-7.2c-3.9,0-7.1,3.1-7.2,7c-0.1,3.9,3.1,7.1,7,7.2
		C105.4,71.1,108.6,68,108.7,64z"/>
	<path class="st0" d="M83.6,76.9c4.7,0,8.4,3.8,8.4,8.4c0,4.7-3.8,8.5-8.6,8.5c-4.7,0-8.4-3.8-8.4-8.5
		C75.1,80.6,78.9,76.9,83.6,76.9z M77.7,85.3c0,3.2,2.5,5.9,5.7,5.9c3.3,0.1,5.9-2.6,5.9-5.8c0-3.2-2.6-5.8-5.8-5.9
		C80.4,79.5,77.8,82.1,77.7,85.3z"/>
	<path class="st0" d="M74.2,45.8c3.8,0,6.8,3,6.8,6.7c0,3.7-3,6.8-6.7,6.8c-3.7,0-6.8-3-6.8-6.7C67.5,48.9,70.5,45.8,74.2,45.8z
		 M74.2,56.7c2.3,0,4.2-1.8,4.2-4.1c0-2.3-1.9-4.2-4.2-4.2c-2.3,0-4.1,1.9-4.1,4.2C70.1,54.9,71.9,56.7,74.2,56.7z"/>
</g>
</svg>
