<?xml version="1.0" encoding="utf-8"?>
<!-- Generator: Adobe Illustrator 24.3.0, SVG Export Plug-In . SVG Version: 6.00 Build 0)  -->
<svg version="1.1" id="Layer_1" xmlns="http://www.w3.org/2000/svg" xmlns:xlink="http://www.w3.org/1999/xlink" x="0px" y="0px"
	 viewBox="0 0 150 150" style="enable-background:new 0 0 150 150;" xml:space="preserve">
<style type="text/css">
	.st0{fill:#CDEEFD;}
	.st1{fill:#111224;}
	.st2{fill:#005BAB;}
</style>
<path class="st0" d="M1465.3,1556.3c-2.4-0.2-4.3-1.3-4.4-4.1c-0.1-6.7,1.6-10,4.9-9.9c0.2,0,0.3,0,0.5,0c2.2,0.5,4.3,2.1,3.2,4
	C1467.7,1549.5,1473.1,1555.7,1465.3,1556.3z M1465.5,1554.4c1.3-0.1,2.3-0.6,2.3-2.1c-0.1-1.7-1.5-2.1-2.8-2.4c-1.6-0.4-2,0.8-2,2
	C1463,1553.5,1464,1554.2,1465.5,1554.4z M1467.8,1546.5c0-1.4-0.6-2.2-2.1-2.2c-0.9,0-1.6,0.4-1.7,1.4c-0.2,1.4,0.9,2.1,2,2.5
	C1467.3,1548.5,1467.6,1547.5,1467.8,1546.5z"/>
<path class="st0" d="M1455.8,1556.6c-0.5-2.9-1.8-4.2-4.6-3.6c-0.7,0.2-1.7,0.3-2.1-0.8c-0.4-1.1,0.1-1.5,1.2-2.1
	c2.1-1.2,2.1-3.9,3.2-5.8c0.6-1,1-2.2,2.5-1.9c1.4,0.3,0.9,1.6,0.8,2.5C1456.4,1548.6,1458.4,1552.5,1455.8,1556.6z"/>
<path class="st1" d="M1465.5,1554.4c-1.5-0.1-2.6-0.8-2.5-2.4c0-1.2,0.4-2.4,2-2c1.2,0.3,2.7,0.7,2.8,2.4
	C1467.8,1553.7,1466.8,1554.2,1465.5,1554.4z"/>
<path class="st1" d="M1467.8,1546.5c-0.2,1-0.5,2.1-1.8,1.7c-1.1-0.4-2.1-1-2-2.5c0.1-1,0.8-1.4,1.7-1.4
	C1467.2,1544.3,1467.8,1545,1467.8,1546.5z"/>
<g>
	<path class="st2" d="M135.9,88.9c0,2.6-0.4,5.1-1.1,7.6c-0.2,0.7-0.4,1.3-1.3,1.1c-0.9-0.2-0.8-0.9-0.6-1.6
		c1.4-4.7,1.5-9.4-0.1-14.1c-0.2-0.6-0.2-1.2,0.5-1.4c0.7-0.3,1.1,0.3,1.3,0.9C135.6,83.8,136,86.3,135.9,88.9z"/>
	<g>
		<path class="st2" d="M80.8,149.1c-0.4,0-0.9-0.1-1-0.8c-0.1-0.7,0.4-1.1,1-1.1c2.9-0.3,5.7-0.7,8.5-1.4c0.6-0.1,1.2,0,1.4,0.7
			c0.1,0.8-0.4,1-1,1.2C86.8,148.4,83.9,148.9,80.8,149.1z"/>
		<path class="st2" d="M68.9,149.4c-2-0.2-4.2-0.5-6.4-0.8c-0.7-0.1-1.3-0.4-1.2-1.2c0.1-0.7,0.8-0.7,1.4-0.7
			c2.8,0.4,5.6,0.7,8.4,0.8c0.7,0,1.2,0.2,1.2,1c0,0.7-0.6,0.9-1.2,0.9C70.4,149.4,69.8,149.4,68.9,149.4z"/>
		<path class="st2" d="M136.4,38.7c0.7,0,1,0.5,1.2,0.9c1.4,2.4,2.6,4.8,3.7,7.4c0.3,0.6,0.5,1.3-0.3,1.7c-0.8,0.4-1.1-0.2-1.4-0.9
			c-1.1-2.5-2.3-5-3.7-7.4C135.4,39.7,135.4,39,136.4,38.7z"/>
		<path class="st2" d="M103.6,9.4c-0.1,0.7-0.6,1.1-1.3,0.8C99.4,9,96.6,8,93.7,7.1C93.2,6.9,93,6.5,93.1,6c0.1-0.5,0.6-0.9,1-0.7
			c3.1,0.9,6.1,1.9,9,3.3C103.4,8.7,103.5,9,103.6,9.4z"/>
		<g>
			<path class="st2" d="M74.2,117.3c1.4,0.9,1,1.6-0.3,2.1c-0.8-0.3-1.7-0.2-2.5-0.2c-0.2,0-0.5,0-0.7,0
				c-13.5-0.4-26.9-0.1-40.4-0.2c-0.6,0-1.6-0.2-1,0.9c2.6,5.4,6.1,9.9,12.3,11.4c1.1,0.3,2.3,0.3,3.5,0.3c8.8,0,17.7,0.1,26.5,0
				c1.7,0,2.3,0.5,2.2,2.2c-0.1,5.1,0.5,4.3-4.3,4.3c-13.4,0-26.8-0.1-40.2,0.1c-7.5,0.1-13.2-3-17.7-8.7
				c-4.6-5.8-6.8-12.5-7.5-19.7c-0.8-9.2,0.8-17.8,5.7-25.7c2.3-3.6,5.3-6.4,8.8-8.7c4.1-2.1,8.5-2.4,13-2.3c3.7,0.1,7.4,0.2,11.1,0
				c7.6-0.3,13.3,3.1,17.8,8.9c3.7,4.7,5.9,10.2,6.8,16.2c0.2,1.5,0.6,2.5,2.4,2.3c1-0.1,2,0.1,3,0.2c0.5,0,1.1,0.1,1.3,0.7
				c0.3,0.8-0.2,1-0.7,1.4c-0.2,0-0.4-0.1-0.6-0.1c-0.2,0-0.3,0-0.5-0.1c-1.9-0.1-3.7-0.3-5.6-0.5c-4.8-0.5-9.2,0.5-13.3,3
				c-0.5,0.3-1.2,0.6-1.8,0.7c-2.1,0.6-3.4-0.3-3.6-2.5c-0.1-0.9-0.3-1.3-1.2-1.3c-2.3,0-4.5-1.5-6.8,0c-0.3,0.2-0.8,0.1-1.2,0.1
				c-3.7-0.2-6.1,1.6-6.9,5.1c-0.7,3.3,0.2,6.1,2.8,8.2c2.3,1.9,4.8,1.3,7.3,0.2c1-0.4,1.8-1,2.8-1.5c3.5-1.6,6.9-2,10.1,0.9
				c1.4,1.3,3.3,1.9,5.2,2C64.7,117.1,69.5,117.1,74.2,117.3z M35.6,74.9c-3.5,0-6.7-0.3-9.7,0.1c-6.3,0.7-10.7,4.5-14.1,9.5
				c-8.1,12-8,30.5,0.2,42.4c5.4,7.9,13.9,11.2,23.3,9.1C15,124.2,15.3,86.4,35.6,74.9z M33.4,116.8c-2.1-1.9-3.4-4.2-3.7-6.9
				c-0.7-5.4,3.3-10.2,8.3-9.9c1.3,0.1,2.3-0.2,3.3-0.9c0.5-0.3,1.1-0.9,1.6-0.4c1.4,1.4,3.3,1,4.9,1.4c1.2,0.3,1.7,0.9,1.9,2
				c0.3,2.1,0.6,2.3,2.6,1.2c2.6-1.5,5.4-2.6,8.3-3.1c0.8-0.1,0.9-0.4,0.7-1.1c-0.9-5-2.8-9.7-6.1-13.6c-6.5-7.7-16-7.7-22.3,0.1
				c-6.3,7.9-7.7,17.1-5.9,26.7c1.1,6.1,0.1,4.6,6.1,4.7C33.1,117,33.2,116.9,33.4,116.8z M56.7,133.5c-4.2,0-8.4,0-12.7,0
				c-0.8,0-1.5-0.1-2.3-0.2c-6.6-1.3-10.7-5.7-13.6-11.4c-3.9-7.5-4.4-15.6-3-23.8c1.1-6.4,3.8-12,8.8-16.4
				c3.9-3.4,8.5-4.7,13.6-3.5c5.4,1.3,8.9,4.9,11.6,9.5c2,3.4,3.3,7.1,4,11c0.2,1,0.7,1.1,1.5,1c1.1-0.1,0.8-0.9,0.7-1.4
				C64,90.6,61,83.7,54.8,78.7c-4.8-3.8-10.2-5.1-16.1-2.9c-6.5,2.4-10.4,7.4-13.2,13.4c-2.7,5.8-3.6,11.9-3.3,18.3
				c0.3,7.8,2.5,15,7.5,21.1c3.7,4.6,8.4,7.5,14.4,7.6c8.7,0.1,17.5,0,26.2,0.1c1,0,1.6-0.1,1.6-1.4c0-1.3-0.6-1.4-1.6-1.4
				C65.8,133.5,61.2,133.5,56.7,133.5z M54.1,116.9c-3-3.1-6.5-3.1-10.5,0C47.1,116.9,50.5,116.9,54.1,116.9z"/>
			<path class="st2" d="M146.9,80.6c0-5.2-0.6-10.4-1.9-15.5c-0.8-2.9-2.3-5.1-4.8-6.8c-3.9-2.6-8.1-4.5-12.2-6.6
				c-1.2-0.6-2.4-1.2-3.4-2.2c-1.1-1.2-1.8-2.5-1.9-4.1c-0.1-0.7-0.2-1.4,0.7-1.5c0.9-0.1,1,0.5,1.1,1.2c0.3,1.9,1.3,3.3,3.1,4.2
				c3,1.5,5.8,3.2,8.9,4.6c7.6,3.3,10.8,9.2,11.6,17.1c0.8,8.4,0.8,16.8,1.3,25.2c0.2,3.7,0.3,7.5,0.4,11.2c0,0.8,0.3,1.9-0.9,1.9
				c-1.1,0-0.9-1-0.9-1.8c-0.2-4.5-0.4-9.1-0.6-14c-1.7,4.8-3.6,9.2-3.5,14.1c0,1.2-0.3,2.2-1.8,1.1c0.1-1.8,0.3-3.6,0.4-5.4
				c0.2-2.2-1.5-0.7-2.2-1c-1-0.5-0.8,0.4-0.7,1c0,1.9,0.4,3.8,0,5.8c-1.2,0.4-1.6-0.1-1.7-1.2c-0.1-1.5-0.2-2.9-0.3-4.4
				c-0.1-1.3-0.1-2.6-0.8-3.9c-0.6-1-0.4-2.3,0-3.4c1.7-5,1.6-10.1,0-15.2c-0.9-2.8,0.1-5.1,2.4-5.9c2.7-1,5.3,0.3,6.4,3
				c0.3,0.9,0.6,1.8,1,2.6c0.1,0.2,0,0.6,0.5,0.8C147,81.2,146.9,80.9,146.9,80.6z M145.7,88.7c0.3-3.4-0.7-6.7-1.9-9.9
				c-0.6-1.7-2.2-2.4-3.8-1.8c-1.5,0.5-2,1.8-1.4,3.6c1.8,5.4,1.7,10.8,0,16.2c-0.6,1.8-0.1,3.1,1.4,3.6c1.6,0.5,3.1-0.1,3.7-1.7
				C144.9,95.5,145.9,92.2,145.7,88.7z"/>
			<path class="st2" d="M94.5,24.9c0.1,1.7,0.3,3.5,0.4,5.2c0.1,1.2-0.4,1.7-1.6,1.7c-7.4,0-14.8,0-22.1,0c-1.2,0-1.7-0.4-1.8-1.6
				c-0.2-3.1-1.6-5.5-4.1-7.2c-0.6-0.4-1.1-0.9-0.9-1.7C68.1,15,71.8,8.6,75.5,2.2c1.2-2,1.3-2.1,3.2-0.8c8,5.2,13.2,12.5,15.4,21.8
				C94.2,23.8,94.4,24.3,94.5,24.9z M82.2,29.9C82.2,29.9,82.2,29.9,82.2,29.9c3,0,6.1-0.1,9.1,0c1.5,0.1,1.7-0.5,1.6-1.8
				C91.9,17.7,87,9.5,78.5,3.5c-0.8-0.5-1.2-0.6-1.7,0.3c-3.2,5.6-6.4,11.2-9.6,16.7c-0.4,0.7-0.4,1.1,0.2,1.6
				c2,1.7,3.4,3.9,3.8,6.5c0.2,1,0.6,1.2,1.5,1.2C75.9,29.8,79,29.9,82.2,29.9z"/>
			<path class="st2" d="M54,23.8c-2,1.6-3.1,3.8-3.2,6.4c-0.1,1.3-0.6,1.7-1.8,1.7c-3,0-6.1,0-9.1,0.1c-4.2,0-8.3-0.1-12.5-0.1
				c-1.5,0-2.1-0.4-2-2C25.9,17.3,31.6,7.8,42,1c1.1-0.7,1.7-0.4,2.4,0.7c3.6,6.3,7.2,12.7,11,19C56.6,22.7,54.7,22.9,54,23.8z
				 M37.9,29.9C37.9,29.9,37.9,29.9,37.9,29.9c3.2,0,6.4,0,9.7,0c0.9,0,1.3-0.2,1.5-1.2c0.4-2.5,1.6-4.7,3.6-6.3
				c0.9-0.7,0.9-1.2,0.3-2.1c-3.1-5.3-6.2-10.7-9.3-16.1C43,3,42.5,2.9,41.4,3.7c-8.5,6.1-13.3,14.4-14.2,24.9
				c-0.1,1,0.2,1.3,1.2,1.3C31.6,29.8,34.7,29.9,37.9,29.9z"/>
			<path class="st2" d="M86.6,108.5c-0.2,0.6-0.5,1.1-1.3,0.8c-0.5-0.2-0.7-0.6-0.7-1.1c0-13.9-0.9-27.8,1.9-41.6
				c1-4.9,3.4-8.5,7.8-11c3.4-1.9,6.9-3.7,10.4-5.5c2.3-1.1,4.2-2.5,4.6-5.3c0.2-1.5,1.2-1.2,1.9-0.2c-0.3,3.1-1.9,5.3-4.7,6.7
				c-3.3,1.6-6.5,3.5-9.8,5.1c-5.4,2.5-7.9,6.8-8.8,12.6c-1.5,9.8-1.7,19.6-1.5,29.4C86.5,101.7,86.5,105.1,86.6,108.5z"/>
			<path class="st2" d="M102,108.1c-0.4,0.5-1,0.7-1.6,0.4c-0.3-0.7-0.3-1.5-0.3-2.2c0-5.3,0-10.5,0-15.8c0-3-0.7-5.8-1.8-8.6
				c-0.5,1.9-0.9,3.7-1.4,5.6c-0.2,0.8-0.1,1.9-1.3,1.7c-1.4-0.3-0.7-1.4-0.5-2.2c0.5-2.6,1.1-5.1,1.8-7.7c0.3-1.1,0.2-2-0.2-3.1
				c-0.8-2-1.7-4-2.5-6c-0.3-0.6-0.7-1.4,0.2-1.8c1-0.5,1.3,0.4,1.6,1.1c1,2.4,2,4.9,2.9,7.3c0.2,0.6,0.3,1.4,1.3,0.8
				c0.4-0.3,1,0.3,1.5,0.5c4.3,1.5,8.5,1.7,12.1-1.7c0.5-0.5,1-0.8,1.6-0.2c0.6,0.7,0.1,1.2-0.4,1.6c-3.9,3.7-8.4,3.9-13.2,2.3
				c-0.3-0.1-0.5-0.2-0.8-0.3c-0.3-0.1-0.5-0.2-1.1-0.4C103.3,88.9,101.6,98.6,102,108.1z"/>
			<path class="st2" d="M124.1,92.1c0.5,0.3,1.1,0.6,0.7,1.3c-0.5,0.9-1.1,1.9-2.3,1.9c-1,0-1.8,0.2-2.7,0.6
				c-0.1,0.1-0.2,0.1-0.3,0.1c-1.3,0.2-4.9-2.5-5.2-3.8c0-0.1,0-0.3,0-0.3c-2.2-2.3-0.7-4.6,0-6.9c0.1-0.3,0.1-0.6,0.3-0.8
				c0.6-1,5-2.4,6-1.8c0.7,0.4,1.5,0.2,2.2,0.3c1.1,0.2,2,0.8,2.4,1.8c0.3,0.8-0.6,1-1,1.4c-1.2,0.3-1.6-1-2.5-1.3
				c-1.5-0.5-2.8-0.4-4.3,0.4c-0.9,0.5-1.3,0.8-1.4,1.7c-0.1,0.9-1.4,1.7-0.9,2.3c1.1,1.3,0.7,3.3,3,4.2c2,0.8,3,0.3,4.2-0.8
				C122.9,92,123.5,92,124.1,92.1z"/>
			<path class="st2" d="M126.4,81.1c-2.9,0-5.6-1.2-7.8-3.3c-0.5-0.5-0.9-1-0.3-1.7c0.5-0.6,1.1-0.2,1.5,0.2
				c3.6,3.5,7.7,3.3,12.1,1.8c0.7-0.2,1.5-0.8,1.9,0.2c0.4,1-0.5,1.3-1.2,1.6C130.8,80.7,128.7,81,126.4,81.1z"/>
			<path class="st2" d="M131.9,88.9c0,2.1-0.4,4.2-0.9,6.2c-0.2,0.7-0.4,1.3-1.3,1.1c-0.9-0.2-0.7-1-0.6-1.6c1-3.8,1.2-7.5,0-11.2
				c-0.2-0.6-0.3-1.2,0.5-1.5c0.8-0.3,1.1,0.3,1.4,1C131.6,84.8,131.9,86.8,131.9,88.9z"/>
			<path class="st2" d="M132,56.8c0,0.7-0.4,0.9-1,1c-3.7,0.5-7.3,1.5-10.7,3.2c-0.6,0.3-1.2,0.3-1.5-0.4c-0.3-0.7,0.1-1.1,0.7-1.4
				c3.5-1.8,7.3-2.8,11.2-3.3C131.6,55.8,132,56.2,132,56.8z"/>
			<path class="st2" d="M103,55.9c3.9,0.6,7.7,1.5,11.2,3.3c0.6,0.3,1,0.7,0.7,1.4c-0.3,0.7-0.9,0.6-1.5,0.3
				c-3.3-1.7-6.9-2.6-10.5-3.1c-0.6-0.1-1.1-0.3-1.1-1.1C101.7,56.2,102.3,55.9,103,55.9z"/>
			<path class="st2" d="M117.9,68.2c0,2,0,4,0,6c0,0.7-0.1,1.4-0.9,1.4c-0.9,0-1-0.7-1-1.4c0-3.9,0-7.8,0-11.8c0-0.7,0-1.4,0.9-1.4
				c1,0,1,0.8,1,1.5C117.9,64.5,117.9,66.3,117.9,68.2z"/>
			<path class="st2" d="M0.1,70.6c0.3-2.5,0.7-5.1,1-7.6c0.1-0.7,0.2-1.7,1.3-1.5c0.9,0.2,0.8,1,0.6,1.7c-0.4,2.5-0.8,4.9-0.9,7.4
				c0,0.8,0.1,1.9-1.1,1.8C-0.1,72.3,0.1,71.3,0.1,70.6z"/>
			<path class="st2" d="M3.2,89.5c0.1,0.7-0.1,1.2-0.7,1.3c-0.6,0.1-1-0.2-1.1-0.8c-0.7-3-0.9-6-1.2-9c-0.1-0.6,0.2-1.1,0.8-1.1
				c0.6-0.1,1,0.3,1.1,0.9C2.3,83.7,2.6,86.7,3.2,89.5z"/>
			<path class="st2" d="M110.9,12.6c0.3,0.1,0.6,0.3,1,0.5c2.2,1.4,4.4,2.8,6.5,4.4c0.6,0.5,1.4,1,0.7,1.8c-0.6,0.8-1.2,0.2-1.8-0.2
				c-2.1-1.6-4.3-3.2-6.6-4.5c-0.5-0.3-0.9-0.6-0.7-1.2C110.1,12.9,110.4,12.7,110.9,12.6z"/>
			<path class="st2" d="M128.8,124.2c-0.4,0-0.7-0.2-0.9-0.5c-0.2-0.4-0.1-0.8,0.1-1.1c1.9-2.3,3.7-4.6,5.4-7.1
				c0.3-0.5,0.8-0.7,1.3-0.3c0.5,0.3,0.6,0.8,0.3,1.2c-1.7,2.7-3.6,5.2-5.7,7.5C129.2,124,128.9,124.1,128.8,124.2z"/>
			<path class="st2" d="M12.4,37.8c-0.9-0.3-1.2-0.8-0.8-1.5c1.6-2.7,3.5-5.1,5.5-7.5c0.3-0.4,0.8-0.5,1.2-0.1
				c0.4,0.4,0.5,0.8,0.2,1.3c-1.8,2.5-3.7,5-5.5,7.5C12.9,37.6,12.6,37.7,12.4,37.8z"/>
			<path class="st2" d="M8.8,45.1c-0.1,0.1-0.2,0.4-0.3,0.7c-1.1,2.5-2.1,5-3,7.6c-0.2,0.6-0.5,1.1-1.3,0.9
				c-0.7-0.2-0.8-0.8-0.5-1.4c0.9-2.8,2-5.5,3.2-8.1c0.2-0.5,0.5-1,1.2-0.8C8.6,44.1,8.9,44.4,8.8,45.1z"/>
			<path class="st2" d="M98.8,145c-0.6,0-0.9-0.2-1-0.6c-0.2-0.5,0-0.9,0.5-1.2c2.9-1.1,5.7-2.4,8.4-3.7c0.5-0.2,0.9,0,1.2,0.5
				c0.2,0.4,0.1,0.9-0.3,1.1C104.8,142.7,101.8,143.9,98.8,145z"/>
			<path class="st2" d="M114.9,136.5c-0.4-0.1-0.7-0.2-0.8-0.6c-0.1-0.4-0.1-0.7,0.2-1c2.4-2,4.9-3.9,7.4-5.9
				c0.4-0.4,0.9-0.2,1.2,0.2c0.3,0.4,0.3,0.8,0,1.1c-2.3,2.2-4.8,4.2-7.5,6C115.2,136.5,115.1,136.5,114.9,136.5z"/>
			<path class="st2" d="M132.3,31.9c0,0.5-0.2,0.7-0.5,0.9c-0.4,0.2-0.8,0.1-1.1-0.3c-1.9-2.4-3.9-4.7-6-6.9c-0.3-0.4-0.4-0.9,0-1.3
				c0.4-0.4,0.9-0.4,1.3,0c2.3,2.2,4.3,4.6,6.2,7.2C132.2,31.6,132.2,31.8,132.3,31.9z"/>
			<path class="st2" d="M54.2,145.6c-0.2,0.9-0.7,1.1-1.4,0.8c-2.8-0.8-5.6-1.8-8.4-3c-0.6-0.3-1-0.7-0.6-1.4
				c0.3-0.6,0.8-0.6,1.4-0.4c2.7,1.2,5.4,2.1,8.2,3C53.8,144.8,54.1,145.1,54.2,145.6z"/>
			<path class="st2" d="M125.7,89.4c0-0.4-0.1-1.1-0.2-1.8c-0.1-0.7,0-1.2,0.7-1.3c0.7-0.1,1,0.4,1.1,1.1c0.3,1.2,0.2,2.3,0,3.5
				c-0.1,0.7-0.4,1.3-1.2,1.1c-0.8-0.2-0.7-0.8-0.6-1.4C125.6,90.3,125.6,90,125.7,89.4z"/>
			<path class="st2" d="M116.9,106.5c-0.7,0-1.6,0.2-1.6-1c0-1,0.9-0.9,1.6-0.9c0.7,0,1.7-0.2,1.7,0.9
				C118.7,106.7,117.7,106.5,116.9,106.5z"/>
			<path class="st2" d="M129.5,77.7c-0.6,0-1.4,0-1.4-0.9c0-1,0.7-1,1.5-1c0.7,0,1.4,0,1.4,0.9C131,77.7,130.2,77.7,129.5,77.7z"/>
			<path class="st2" d="M104.9,77.7c-0.8,0-1.5,0-1.5-0.9c0-1,0.8-1,1.5-1c0.7,0,1.4,0,1.4,0.9C106.3,77.8,105.5,77.7,104.9,77.7z"
				/>
			<path class="st2" d="M60.1,65.7c-5.8,0-11.2-1.4-16.4-4.1c-1.4-0.7-1.8-1.4-0.9-2.8c3.6-6.1,7.2-12.3,10.7-18.5
				c0.7-1.2,1.3-1.6,2.6-0.9c2.6,1.3,5.3,1.3,7.9,0c1.3-0.7,1.9-0.3,2.5,0.9c3.6,6.2,7.1,12.5,10.8,18.7c0.8,1.4,0.5,2-0.8,2.7
				C71.4,64.3,65.9,65.7,60.1,65.7z M60,63.8c5.2-0.1,10-1.2,14.6-3.4c0.8-0.4,1.1-0.7,0.6-1.6c-3.2-5.5-6.4-11-9.6-16.6
				c-0.5-0.9-1-1-1.9-0.7c-2.3,0.8-4.7,0.8-7.1,0c-1-0.4-1.5-0.2-2.1,0.8c-3.1,5.4-6.2,10.9-9.4,16.3c-0.6,1-0.4,1.5,0.6,1.9
				C50.3,62.7,55.2,63.7,60,63.8z"/>
			<path class="st2" d="M60,35.7c-2.7,0-4.8-2.3-4.8-5c0.1-2.7,2.3-4.9,5-4.8c2.6,0.1,4.8,2.3,4.7,4.9C65,33.5,62.7,35.8,60,35.7z
				 M60.1,33.7c1.7,0,2.9-1.1,2.9-2.8c0-1.7-1.2-2.9-3-3c-1.7,0-3,1.2-3,3C57.1,32.5,58.4,33.7,60.1,33.7z"/>
			<path class="st2" d="M73.8,114.6c-0.3,0.6-0.8,0.7-1.4,0.8c-3.3,0.4-6.6,0.1-10-0.2c-0.6-0.1-1.2-0.3-1.1-1c0-0.6,0.5-1,1.1-0.9
				c3.5,0.5,7.1,0.5,10.7,0.3c0.2,0,0.4,0.2,0.6,0.3C73.7,114.1,73.7,114.3,73.8,114.6z"/>
			<path class="st2" d="M73.5,107.1c-2.7-0.4-5.4-1-8.1-1c-1,0-2,0-3,0c-0.7,0-1.5,0-1.5-0.9c0-0.9,0.8-0.9,1.4-0.9
				c3.1-0.1,6.2,0.1,9.2,0.6c0.6,0.1,1.3,0.1,1.9,0.2C74.6,105.7,74.8,106.4,73.5,107.1z"/>
			<path class="st2" d="M72.6,102.4c-0.2,0-0.3,0-0.5-0.1C72.3,102.4,72.5,102.4,72.6,102.4z"/>
			<path class="st2" d="M122.4,89.3c-0.1,0.7-0.4,1.3-1.1,1.2c-0.7-0.1-0.8-0.7-0.8-1.3c0-0.7,0.2-1.2,0.9-1.2
				C122.1,87.9,122.4,88.5,122.4,89.3z"/>
			<path class="st2" d="M9.5,105.2c0-1.9,0.1-3.7,0.4-5.6c0.1-0.7,0.2-1.4,1.1-1.3c0.9,0.1,0.9,0.8,0.8,1.5
				c-0.5,4.2-0.5,8.4,0.2,12.6c0.8,4.7,2.3,9,4.7,13.1c0.4,0.6,1.1,1.4,0.1,1.9c-0.9,0.6-1.3-0.3-1.7-1
				C11.1,119.9,9.5,112.8,9.5,105.2z"/>
			<path class="st2" d="M11.3,92.8c0.6-2,1.5-4.3,2.7-6.5c1.1-2,2.3-3.9,3.8-5.6c0.4-0.5,0.8-0.9,1.5-0.4c0.7,0.5,0.4,1.1,0,1.6
				c-2.8,3.3-4.8,7.2-6.1,11.3c-0.2,0.7-0.4,1.3-1.3,1.1C11.3,94.3,11.2,93.7,11.3,92.8z"/>
		</g>
	</g>
</g>
</svg>
