<?xml version="1.0" encoding="utf-8"?>
<!-- Generator: Adobe Illustrator 24.3.0, SVG Export Plug-In . SVG Version: 6.00 Build 0)  -->
<svg version="1.1" id="Layer_1" xmlns="http://www.w3.org/2000/svg" xmlns:xlink="http://www.w3.org/1999/xlink" x="0px" y="0px"
	 viewBox="0 0 150 150" style="enable-background:new 0 0 150 150;" xml:space="preserve">
<style type="text/css">
	.st0{fill:#CDEEFD;}
	.st1{fill:#111224;}
	.st2{fill:#005BAB;}
</style>
<path class="st0" d="M1465.3,1556.3c-2.4-0.2-4.3-1.3-4.4-4.1c-0.1-6.7,1.6-10,4.9-9.9c0.2,0,0.3,0,0.5,0c2.2,0.5,4.3,2.1,3.2,4
	C1467.7,1549.5,1473.1,1555.7,1465.3,1556.3z M1465.5,1554.4c1.3-0.1,2.3-0.6,2.3-2.1c-0.1-1.7-1.5-2.1-2.8-2.4c-1.6-0.4-2,0.8-2,2
	C1463,1553.5,1464,1554.2,1465.5,1554.4z M1467.8,1546.5c0-1.4-0.6-2.2-2.1-2.2c-0.9,0-1.6,0.4-1.7,1.4c-0.2,1.4,0.9,2.1,2,2.5
	C1467.3,1548.5,1467.6,1547.5,1467.8,1546.5z"/>
<path class="st0" d="M1455.8,1556.6c-0.5-2.9-1.8-4.2-4.6-3.6c-0.7,0.2-1.7,0.3-2.1-0.8c-0.4-1.1,0.1-1.5,1.2-2.1
	c2.1-1.2,2.1-3.9,3.2-5.8c0.6-1,1-2.2,2.5-1.9c1.4,0.3,0.9,1.6,0.8,2.5C1456.4,1548.6,1458.4,1552.5,1455.8,1556.6z"/>
<path class="st1" d="M1465.5,1554.4c-1.5-0.1-2.6-0.8-2.5-2.4c0-1.2,0.4-2.4,2-2c1.2,0.3,2.7,0.7,2.8,2.4
	C1467.8,1553.7,1466.8,1554.2,1465.5,1554.4z"/>
<path class="st1" d="M1467.8,1546.5c-0.2,1-0.5,2.1-1.8,1.7c-1.1-0.4-2.1-1-2-2.5c0.1-1,0.8-1.4,1.7-1.4
	C1467.2,1544.3,1467.8,1545,1467.8,1546.5z"/>
<g>
	<path class="st2" d="M116.5,10.9c1.7,0,2.9,0,4.3,0c-0.6,4.4,2,4.7,5.2,4.5c2.2-0.2,4.4,0,6.5,0c6.7,0,9,2.2,9,8.9
		c0,13.2,0,26.4,0,39.6c0,7.1,0,14.3,0,21.4c0,5.9-2.3,8.1-8,8.5c-1.6,0.1-3.4,0.6-4.7,1.5c-7.3,5.3-14.5,10.9-21.9,16.2
		c-2.5,1.8-1.9,3.9-1.6,6.1c1.2,8.8,2.4,17.5,3.5,26.2c0.2,1.4,0.3,2.9,0.5,4.7c-20.8,0-41.2,0-62.3,0c0.5-4,0.9-8,1.5-12
		c0.8-6,1.5-12,2.4-18c0.4-2.4-0.3-3.3-2.6-4.2c-8-3-13.4-8.4-15.6-16.9c-0.5-1.8-1.7-3.7-3.2-4.9c-2.6-2.3-3.7-4.7-2.7-8
		c1.1-3.3,3.6-4.7,6.9-4.7c6.7,0,13.3,0,20,0c11,0,22,0,33,0c1.2,0,2.4,0,4.1,0c0-1.8,0-3.2,0-4.6c0-17.3,0-34.6,0-51.9
		c0-1-0.3-2,0.1-2.9c0.4-1,1.2-2.3,2-2.6c1.9-0.5,2.4,0.8,2.4,2.6c-0.1,5.6,0,11.1,0,16.7c0,15.3,0,30.5,0,45.8c0,0.8,0,1.7,0,2.5
		c0.1,1.6-0.5,3.6,2.2,3.7c2.7,0.1,2.4-1.8,2.4-3.5c0-3.6,0-7.3,0-10.9c0-16.5,0-32.9,0-49.4c0-8,2-10,10.1-10c0.5,0,1-0.1,1.5,0
		C115.1,15.9,117.1,14.8,116.5,10.9z M137.1,29.2c-10.5,0-20.4-0.1-30.3,0.1c-0.7,0-1.9,2-1.9,3c-0.1,17.8,0,35.6-0.1,53.4
		c0,2.8,1.2,3.5,3.7,3.4c7.7-0.1,15.5,0,23.2-0.1c5.1,0,5.4-0.3,5.4-5.3c0-16.6,0-33.2,0-49.8C137.1,32.7,137.1,31.2,137.1,29.2z
		 M55.9,117.3c-1,7.5-1.9,15.6-3.2,23.5c-0.5,3,0.5,3.7,3.4,3.7c14.9-0.1,29.8,0,44.7-0.1c1.1,0,2.3-0.2,3.7-0.3
		c-1.2-9.5-2.3-18.7-3.7-27.7c-0.1-0.8-1.8-1.7-2.9-1.8c-4-0.2-8-0.1-12-0.1c-2.7,0-5.4,0-8.5,0c0.5,4.8,0.9,8.7,1.3,12.7
		c0.4,4,0.7,8.1,1,12.3c-1.8,0.1-3.1,0.2-4.5,0.2c-0.2-1.4-0.3-2.5-0.4-3.6c-0.5-6-1.1-12.1-1.6-18.1c-0.1-1.5-0.2-3-2.4-2.7
		C66.1,116.1,61.3,116.6,55.9,117.3z M37.3,93.9c0.9,12.9,14.1,18.8,25.4,18.2c10.3-0.5,21.9-6.5,22.1-18.2
		C69.1,93.9,53.4,93.9,37.3,93.9z M83.8,109.7c9.4,0.4,19.3,2,27.2-6.5c2.5-2.7,5.9-4.6,8.9-6.8c0.7-0.5,1.7-0.8,2.6-1.2
		c-0.3-0.5-0.7-0.9-1-1.4c-9.8,0-19.5-0.1-29.3,0.1c-0.8,0-1.9,1.3-2.4,2.2C87.7,100.5,85.8,105,83.8,109.7z M61.1,89.1
		c8.1,0,16.2,0,24.3,0c0.8,0,1.8,0.3,2.5-0.1c1.1-0.6,2-1.6,3.1-2.4c-1-0.7-1.9-1.5-2.9-2.1c-0.5-0.3-1.2-0.1-1.8-0.1
		c-16.6,0-33.1,0-49.7,0c-1.2,0-2.5-0.1-3.6,0.3c-0.6,0.2-1.5,1.2-1.5,1.7c0,0.8,0.7,1.9,1.4,2.2c0.9,0.4,2.1,0.4,3.2,0.4
		C44.4,89.2,52.8,89.1,61.1,89.1z M121,24.5c4.5,0,9,0.1,13.4-0.1c0.9,0,1.8-1,2.7-1.5c-0.9-0.9-1.7-2.7-2.6-2.7
		c-8.9-0.2-17.9-0.2-26.8,0c-0.9,0-1.8,1.7-2.8,2.6c1,0.6,2,1.6,3,1.7C112.2,24.7,116.6,24.6,121,24.5z"/>
	<path class="st2" d="M68,31.1c0.3,16.5-13,30.2-29.6,30.4c-16.2,0.2-29.7-13-30-29.2C8,15.5,21.1,1.8,37.6,1.4
		C54,1.1,67.7,14.5,68,31.1z M63.5,31.5c0-13.9-11.2-25.2-25-25.3C24.2,6.1,12.8,17.4,12.8,31.6c0,13.8,11.3,25,25.2,25.1
		C52,56.9,63.5,45.5,63.5,31.5z"/>
	<path class="st2" d="M27.8,75.1c-1.2,1-2.5,2.1-4.2,3.5c-3.2-4.5-5.6-7.9-8.4-11.9c4.7-0.8,8.8-1.6,13.3-2.4c0.4,1.9,0.7,3.5,1,5.4
		c14.1,2.7,26.5-0.7,36.7-11c6.8-6.9,10.4-15.4,11.1-25c0.6-9.5-2.4-18.1-7.7-25.8c3.4-3.1,3.7-3.1,5.8,0.5
		c9.2,16.2,9.2,32.6-1.4,47.9C63.2,71.8,47.8,77.6,29.2,74.3c-0.7-0.1-1.4-0.3-2.1-0.4C27.3,74.3,27.6,74.7,27.8,75.1z"/>
	<path class="st2" d="M122.1,40c-1.6-1.9-2.9-2.8-3.1-4c-0.4-2.6,1.7-2.3,3.3-2.3c1.7,0,3.8-0.1,3.3,2.4
		C125.3,37.2,123.8,38.1,122.1,40z"/>
	<path class="st2" d="M38.8,19.5c1.7,0.4,2.9,0.7,4.3,1.1c-0.6,2.7-1.1,5.2-1.7,7.8c3.7,1.5,3.7,1.5,3.1,5.1c-2.9,0-5.8,0-9.1,0
		C36.5,28.7,37.6,24.3,38.8,19.5z"/>
	<path class="st2" d="M20.4,28.7c0.6,0.9,1.5,1.8,1.5,2.7c0,0.8-1.3,2.2-1.8,2.1c-0.9-0.1-2.2-1.1-2.4-1.9c-0.2-0.8,0.8-1.9,1.3-2.9
		C19.4,28.8,19.9,28.7,20.4,28.7z"/>
	<path class="st2" d="M59.3,32.1c-0.9,0.6-1.9,1.7-2.7,1.6c-0.9-0.2-2.1-1.4-2.1-2.2c0-0.8,1.2-2.1,2.1-2.3c0.7-0.2,1.8,1,2.6,1.5
		C59.3,31.1,59.3,31.6,59.3,32.1z"/>
	<path class="st2" d="M18.8,39.8c1.8-0.8,2.9-1.4,4.6-2.2c0.5,1.5,1.2,2.8,1.1,4c-0.1,0.6-2,1.7-2.5,1.5
		C20.9,42.5,20.1,41.2,18.8,39.8z"/>
	<path class="st2" d="M48.5,44.9c0.5,1,1.1,2,1.9,3.6c-1.4,0.5-2.7,1.3-3.9,1.2c-0.7,0-1.8-1.6-1.7-2.4c0.2-1.3,1.1-2.5,1.7-3.8
		C47.2,44,47.9,44.4,48.5,44.9z"/>
	<path class="st2" d="M53.7,25.1c-3.2-3.5-3.1-3.8,1.2-5.7c0.7,1,1.4,2.1,2.3,3.5C55.9,23.7,54.8,24.4,53.7,25.1z"/>
	<path class="st2" d="M29.5,12.7c0.7,1,1.5,2,2.5,3.3c-1.4,0.9-2.6,1.6-3.8,2.4C25.6,15.7,25.8,13.9,29.5,12.7z"/>
	<path class="st2" d="M25.6,48.4c1.2-1.7,1.9-2.7,2.6-3.8c0.5-0.3,0.9-0.6,1.4-0.9c0.6,1.1,1.6,2.2,1.7,3.4c0.1,0.8-0.9,2.5-1.5,2.6
		C28.8,49.8,27.5,49,25.6,48.4z"/>
	<path class="st2" d="M37.5,52.7C37,51.8,36,50.8,36.1,50c0.1-0.9,1.4-1.6,2.1-2.3c0.7,0.7,1.9,1.4,2,2.2c0.1,0.9-0.7,1.9-1.2,2.9
		C38.5,52.7,38,52.7,37.5,52.7z"/>
	<path class="st2" d="M37.4,15.8c-0.5-0.9-1.5-1.9-1.4-2.8c0.1-0.9,1.3-1.9,2.2-2.1c0.5-0.1,1.9,1.2,1.9,2c0.1,0.9-0.8,1.9-1.3,2.9
		C38.4,15.8,37.9,15.8,37.4,15.8z"/>
	<path class="st2" d="M44.6,16.5c1.1-4.4,3-3.9,5.5-1.5c-0.6,1.1-1.2,2.1-2,3.5C46.8,17.7,45.7,17.1,44.6,16.5z"/>
</g>
</svg>
