<?xml version="1.0" encoding="utf-8"?>
<!-- Generator: Adobe Illustrator 24.3.0, SVG Export Plug-In . SVG Version: 6.00 Build 0)  -->
<svg version="1.1" id="Layer_1" xmlns="http://www.w3.org/2000/svg" xmlns:xlink="http://www.w3.org/1999/xlink" x="0px" y="0px"
	 viewBox="0 0 150 150" style="enable-background:new 0 0 150 150;" xml:space="preserve">
<style type="text/css">
	.st0{fill:#CDEEFD;}
	.st1{fill:#111224;}
	.st2{fill:#005BAB;}
</style>
<path class="st0" d="M1465.3,1556.3c-2.4-0.2-4.3-1.3-4.4-4.1c-0.1-6.7,1.6-10,4.9-9.9c0.2,0,0.3,0,0.5,0c2.2,0.5,4.3,2.1,3.2,4
	C1467.7,1549.5,1473.1,1555.7,1465.3,1556.3z M1465.5,1554.4c1.3-0.1,2.3-0.6,2.3-2.1c-0.1-1.7-1.5-2.1-2.8-2.4c-1.6-0.4-2,0.8-2,2
	C1463,1553.5,1464,1554.2,1465.5,1554.4z M1467.8,1546.5c0-1.4-0.6-2.2-2.1-2.2c-0.9,0-1.6,0.4-1.7,1.4c-0.2,1.4,0.9,2.1,2,2.5
	C1467.3,1548.5,1467.6,1547.5,1467.8,1546.5z"/>
<path class="st0" d="M1455.8,1556.6c-0.5-2.9-1.8-4.2-4.6-3.6c-0.7,0.2-1.7,0.3-2.1-0.8c-0.4-1.1,0.1-1.5,1.2-2.1
	c2.1-1.2,2.1-3.9,3.2-5.8c0.6-1,1-2.2,2.5-1.9c1.4,0.3,0.9,1.6,0.8,2.5C1456.4,1548.6,1458.4,1552.5,1455.8,1556.6z"/>
<path class="st1" d="M1465.5,1554.4c-1.5-0.1-2.6-0.8-2.5-2.4c0-1.2,0.4-2.4,2-2c1.2,0.3,2.7,0.7,2.8,2.4
	C1467.8,1553.7,1466.8,1554.2,1465.5,1554.4z"/>
<path class="st1" d="M1467.8,1546.5c-0.2,1-0.5,2.1-1.8,1.7c-1.1-0.4-2.1-1-2-2.5c0.1-1,0.8-1.4,1.7-1.4
	C1467.2,1544.3,1467.8,1545,1467.8,1546.5z"/>
<g>
	<path class="st2" d="M144.2,0.6c-2.3,4.8-4.6,9.6-6.9,14.6c3.3,0,6.4,0,9.9,0c-10,9.3-19.8,18.3-29.8,27.6c1-7.6,2-14.7,3-22.1
		c-2.2,0-4.3,0-6.5,0c0.8-6.8,1.5-13.4,2.3-20C125.6,0.6,134.9,0.6,144.2,0.6z M118.9,16.2c2.2,0,4.3,0,6.6,0
		c-0.7,4.9-1.3,9.7-2,14.5c0.1,0,0.2,0.1,0.3,0.1c4-3.7,8-7.4,12.2-11.3c-2.1,0-3.7,0-5.6,0c2.3-4.9,4.6-9.7,6.8-14.5
		c-5.8,0-11.4,0-17,0C119.7,8.8,119.3,12.4,118.9,16.2z"/>
	<path class="st2" d="M33.6,0.6c0.8,6.6,1.5,13.3,2.3,20c-2.2,0-4.3,0-6.5,0c0.5,3.8,1,7.3,1.5,10.9c0.5,3.6,1,7.2,1.5,11.1
		c-10-9.2-19.7-18.2-29.7-27.5c3.4,0,6.5,0,9.9,0c-2.4-5-4.7-9.8-7-14.6C15,0.6,24.3,0.6,33.6,0.6z M13.9,19.5
		c4.3,4,8.3,7.7,12.3,11.4c0.1-0.1,0.2-0.1,0.3-0.2c-0.6-4.8-1.3-9.5-2-14.5c2.3,0,4.4,0,6.6,0c-0.4-3.8-0.9-7.5-1.3-11.2
		c-5.7,0-11.3,0-17,0c2.3,4.8,4.5,9.6,6.8,14.5C17.6,19.5,16,19.5,13.9,19.5z"/>
	<path class="st2" d="M60.1,15.8c-0.5-1.4-0.9-2.6-1.4-4.1c2.4-0.5,4.7-1.2,7.1-1.6c9.3-1.5,18.6-1,27.5,2.5
		c3.4,1.3,6.4,3.2,8.8,5.9c1.7,1.9,2.8,4.1,3.3,6.6c0.1,0.5,0.5,1.2,0.9,1.5c4,2.3,5.8,5.8,5.8,10.3c0,6.2,0,12.4,0,18.6
		c0,1,0.2,1.7,1.2,2.2c1.9,1,3,2.7,3.1,4.8c0.1,2.5,0.2,5-0.2,7.4c-0.9,5.1-5.3,8.5-10.6,8.6c-0.7,0-1.4,0-2.2,0
		c-0.4,4.3-1.6,8.2-3.7,11.8c-2.1,3.6-4.7,6.6-8.1,9c-0.7,0.5-0.7,1-0.6,1.8c0.4,3.1,1.9,4.6,4.9,5.6c7.4,2.5,14.6,5.4,21.9,8.2
		c3.7,1.4,7.1,3.4,10,6c3.1,2.8,5.2,6.3,5.3,10.5c0.2,5.9,0,11.9,0,18c-4.3,0-8.6,0-12.9,0c0-1.4,0-2.7,0-4.2c2.8,0,5.7,0,8.7,0
		c0-1.3,0-2.4,0-3.5c0-2.8,0-5.6,0-8.4c0-4.1-1.6-7.4-4.8-9.8c-2.1-1.6-4.4-3-6.9-4c-5.4-2.3-11-4.3-16.5-6.5
		c-4.4,12.9-13.1,20.4-26.9,19.8c-12.5-0.5-20.4-7.9-24.3-20c-6.9,2.9-13.8,5.6-20.5,8.9c-5.3,2.6-8,7.1-7.7,13.2
		c0.2,3.4,0,6.8,0,10.3c31.5,0,62.9,0,94.4,0c0,1.5,0,2.8,0,4.3c-32.8,0-65.7,0-98.5,0c0-0.1-0.1-0.1-0.1-0.2c0-5.8-0.2-11.5,0-17.3
		c0.2-5.6,3.3-9.7,7.7-12.9c4.6-3.2,9.8-5,15-7c5.8-2.2,11.5-4.3,17.3-6.5c0.6-0.2,1.1-0.9,1.4-1.4c1.3-2.6,0.9-4.5-1.7-6.6
		c-6-4.7-9-11.3-9.8-19.1c-0.6,0-1.3,0-1.9,0c-6.3-0.1-10.9-4.5-11.2-10.8c-0.1-1.6,0-3.3,0-4.9c0.1-2.3,1.2-4.1,3.2-5.2
		c0.9-0.5,1.1-1.1,1.1-2c0-6.1,0-12.2,0-18.3c-0.1-4.8,1.7-8.4,5.9-10.9c0.4-0.2,0.7-0.9,0.8-1.4c1.2-5.5,4.9-8.8,9.6-11.4
		c0.7,1.3,1.3,2.5,2,3.8c-1,0.6-1.9,1.2-2.8,1.9c-3,2.2-4.9,5.1-4.7,9c0.1,0.9-0.3,1.2-1.2,1.5c-3.6,1-5.3,3.3-5.3,7
		c0,6.2,0,12.3,0,18.5c0,0.4,0,0.9,0.1,1.4c1.4,0,2.8,0,4.3,0c0-1,0.1-1.9,0-2.8c-0.8-8.9,10.1-18,20.3-13.1
		c1.7,0.8,3.3,1.6,4.9,2.5c2.1,1,4.2,1.1,6.3,0c1.7-0.9,3.4-1.8,5.2-2.6c9.4-4.1,20,2.9,20,13.1c0,3.1,0,3,3.1,3
		c0.9,0,1.3-0.3,1.3-1.2c0-6.4,0-12.7,0-19.1c0-3.4-1.8-5.7-5.1-6.6c-1.1-0.3-1.4-0.8-1.4-1.9c0.1-3.4-1.6-5.9-4-8
		c-3.5-3-7.8-4.5-12.2-5.3c-8.1-1.5-16.1-1.3-24,1.1C60.7,15.7,60.5,15.7,60.1,15.8z M51,65.6c0,0.2,0,0.5,0,0.7
		c0.1,4.7-0.2,9.5,0.5,14.2c1.7,11.7,12.8,20.4,24.4,19.7C88.3,99.6,98.3,90.1,98.8,78c0.4-8.4,0.2-16.9,0.1-25.3
		c-0.1-5.2-6.3-10-11.4-8.9c-2.2,0.5-4.3,1.6-6.4,2.7c-4.2,2.2-8.3,2.3-12.5,0c-1.6-0.9-3.2-1.7-4.8-2.3C57.7,42.1,51,46.9,51,53.4
		C50.9,57.5,51,61.6,51,65.6z M63.1,102.1c-0.4,2.2-1.2,4.2-1,6.1c0.7,7.7,7.7,12.8,15.4,11.4c6.8-1.2,13.2-9,9-17.3
		C78.8,105.4,71.2,105.5,63.1,102.1z M92.1,109.9c-2.3,9.5-9.4,13.9-15.6,14.2c-10.1,0.5-16.1-4.7-18.9-14.1c-1.4,0.5-2.7,1-3.9,1.5
		c2.4,10.3,11.5,17.4,21.8,17.1c9.9-0.3,18.9-7.8,20.5-17.2C94.8,110.9,93.5,110.4,92.1,109.9z M46.5,61.1c-2.3,0-4.5-0.1-6.7,0
		c-1.2,0-1.8,0.9-1.8,2.1c-0.1,1.3,0,2.6,0,3.9c0.1,4.9,3.6,7.7,8.6,6.9C46.5,69.7,46.5,65.5,46.5,61.1z M103.4,73.9
		c4.7,1,8.5-1.9,8.6-6.5c0-1.4,0-2.8,0-4.2c0-1.1-0.6-2-1.7-2.1c-2.3-0.1-4.6,0-6.9,0C103.4,65.5,103.4,69.7,103.4,73.9z"/>
	<path class="st2" d="M24.6,84.4c-2.4-5.5-8.3-6.4-16.2-2.5c-0.8-1.1-1.5-2.2-2.3-3.4c6.8-6.2,18.2-4.2,22.5,3.9
		c0.5,0.9,0.9,1.3,2,1.5c5.1,0.9,8.6,5.3,8.9,11.2c0.1,2.7-0.4,5.3-0.7,8.2c-1.7-0.5-3-0.8-4.4-1.2c0.9-5.1,2.1-10.3-3.4-13.7
		c-0.2,2.7-0.3,5.3-0.7,7.9c-0.5,2.7-1.7,5.2-3.7,7.1c-2,1.9-4.4,2.8-7.2,1.8c-2.9-1-4.1-3.4-4.4-6.3c-0.6-5.9,2.8-11.5,8.5-14.1
		C23.9,84.7,24.3,84.5,24.6,84.4z M26.3,88.6c-3.7,1-6.5,4.5-6.9,8.2c-0.3,2.4,0.3,4,1.6,4.5c1.3,0.4,2.9-0.6,4-2.7
		C26.7,95.4,27,92.1,26.3,88.6z"/>
	<path class="st2" d="M118.9,88.4c-5.6,3.4-4.4,8.6-3.5,13.8c-1.3,0.4-2.7,0.7-4.1,1.1c-1.3-5.6-2-10.9,1.9-15.7
		c1.7-2.1,3.9-3.3,6.5-3.8c0.4-0.1,1-0.4,1.2-0.8c3.6-7.6,11.5-9.7,19.1-6.6c1.3,0.5,2.5,1.2,3.9,1.9c-0.9,1.3-1.7,2.4-2.4,3.6
		c-8.7-3.6-14-2.8-16.1,2.2c1.9,1.4,4,2.6,5.7,4.3c3.2,3.3,4.6,7.4,3.5,12c-1.3,5.4-6.9,7.1-11.1,3.4c-3.3-2.9-4.4-6.9-4.6-11.1
		C118.8,91.3,118.9,90,118.9,88.4z M123.5,88.3c0,2.5-0.1,4.5,0,6.5c0.2,2.2,1,4.2,2.8,5.6c0.7,0.5,1.9,1.1,2.6,0.8
		c0.7-0.3,1.5-1.5,1.6-2.3c0.4-3.4-0.9-6.3-3.5-8.4C126,89.6,124.9,89.1,123.5,88.3z"/>
	<path class="st2" d="M82.4,19.5c1.4,0,2.7,0,4.2,0c0,1.4,0,2.8,0,4.2c-1.4,0-2.7,0-4.2,0C82.4,22.3,82.4,21,82.4,19.5z"/>
	<path class="st2" d="M91.1,28.1c0-1.4,0-2.7,0-4.2c1.4,0,2.8,0,4.2,0c0,1.4,0,2.7,0,4.2C94,28.1,92.7,28.1,91.1,28.1z"/>
	<path class="st2" d="M69,91c-1.2-0.6-2.4-1.2-3.6-1.8c0.9-3.1,5-5.9,8.9-6c4.6-0.2,8.9,2.3,10.3,6c-1.2,0.6-2.4,1.2-3.6,1.8
		C76.5,86.3,73.1,86.2,69,91z"/>
	<path class="st2" d="M59.4,63.6c3.1,2.1,6.1,4.1,9.3,6.2c-3.1,2.1-6.1,4.1-9.3,6.2c-0.8-1.2-1.6-2.4-2.4-3.6
		c1.3-0.9,2.5-1.7,3.8-2.6c-1.3-0.9-2.5-1.7-3.8-2.6C57.8,65.9,58.6,64.8,59.4,63.6z"/>
	<path class="st2" d="M92.9,72.3c-0.8,1.2-1.6,2.4-2.4,3.6c-3.1-2-6.1-4-9.3-6.2c3.2-2.1,6.2-4.1,9.3-6.2c0.8,1.2,1.6,2.3,2.4,3.6
		c-1.2,0.9-2.4,1.7-3.7,2.6C90.4,70.6,91.6,71.4,92.9,72.3z"/>
</g>
</svg>
