<?xml version="1.0" encoding="utf-8"?>
<!-- Generator: Adobe Illustrator 24.3.0, SVG Export Plug-In . SVG Version: 6.00 Build 0)  -->
<svg version="1.1" id="Layer_1" xmlns="http://www.w3.org/2000/svg" xmlns:xlink="http://www.w3.org/1999/xlink" x="0px" y="0px"
	 viewBox="0 0 150 150" style="enable-background:new 0 0 150 150;" xml:space="preserve">
<style type="text/css">
	.st0{fill:#CDEEFD;}
	.st1{fill:#111224;}
	.st2{fill:#005BAB;}
</style>
<path class="st0" d="M1465.3,1556.3c-2.4-0.2-4.3-1.3-4.4-4.1c-0.1-6.7,1.6-10,4.9-9.9c0.2,0,0.3,0,0.5,0c2.2,0.5,4.3,2.1,3.2,4
	C1467.7,1549.5,1473.1,1555.7,1465.3,1556.3z M1465.5,1554.4c1.3-0.1,2.3-0.6,2.3-2.1c-0.1-1.7-1.5-2.1-2.8-2.4c-1.6-0.4-2,0.8-2,2
	C1463,1553.5,1464,1554.2,1465.5,1554.4z M1467.8,1546.5c0-1.4-0.6-2.2-2.1-2.2c-0.9,0-1.6,0.4-1.7,1.4c-0.2,1.4,0.9,2.1,2,2.5
	C1467.3,1548.5,1467.6,1547.5,1467.8,1546.5z"/>
<path class="st0" d="M1455.8,1556.6c-0.5-2.9-1.8-4.2-4.6-3.6c-0.7,0.2-1.7,0.3-2.1-0.8c-0.4-1.1,0.1-1.5,1.2-2.1
	c2.1-1.2,2.1-3.9,3.2-5.8c0.6-1,1-2.2,2.5-1.9c1.4,0.3,0.9,1.6,0.8,2.5C1456.4,1548.6,1458.4,1552.5,1455.8,1556.6z"/>
<path class="st1" d="M1465.5,1554.4c-1.5-0.1-2.6-0.8-2.5-2.4c0-1.2,0.4-2.4,2-2c1.2,0.3,2.7,0.7,2.8,2.4
	C1467.8,1553.7,1466.8,1554.2,1465.5,1554.4z"/>
<path class="st1" d="M1467.8,1546.5c-0.2,1-0.5,2.1-1.8,1.7c-1.1-0.4-2.1-1-2-2.5c0.1-1,0.8-1.4,1.7-1.4
	C1467.2,1544.3,1467.8,1545,1467.8,1546.5z"/>
<g>
	<path class="st2" d="M85,111.6c0.8-3,1.3-6,2.4-8.9c5-12.8,18.1-21.4,32.7-19.9c15,1.6,26.4,12.6,28.5,26.9
		c2.7,18.3-10,34.8-28.3,36.8c-17.2,1.8-33.1-10.8-35.1-27.9c0-0.3-0.2-0.6-0.3-1C85,115.6,85,113.6,85,111.6z M123.5,118.4
		c1.8,0,3.3,0,4.9,0c1.1,0,2.1-0.3,2.6-1.4c0.5-1.2,0-2-0.7-2.9c-3.7-4.3-7.4-8.6-11.1-12.9c-1.7-1.9-2.9-1.9-4.6,0.1
		c-3.6,4.3-7.2,8.5-10.8,12.8c-0.7,0.9-1.2,1.8-0.7,2.9c0.5,1.2,1.5,1.5,2.7,1.5c1.5,0,3.1,0,4.7,0c0,2.7,0,5.3,0,7.8
		c0,1.7,0.5,2.3,2.2,2.3c2.8,0,5.7,0,8.5,0c1.6,0,2.1-0.5,2.2-2.2C123.5,123.7,123.5,121.2,123.5,118.4z"/>
	<path class="st2" d="M82.7,140.5c-0.8,0-1.4,0-1.9,0c-21,0-41.9,0-62.9,0c-10,0-17-6.9-17-17c0-31.6,0-63.3,0-94.9
		c0-9.7,6.9-16.7,16.6-16.7c8.3,0,16.6,0,24.9,0c0.8,0,1.8-0.3,2.5-0.8c9-6.3,19-8.5,29.9-7.5c7.8,0.7,14.9,3.3,21.2,7.9
		c0.4,0.3,1.2,0.4,1.8,0.4c8.2,0,16.5,0.1,24.7,0c9.1-0.1,15.4,6.4,16.5,13.3c0.2,1.1,0.2,2.2,0.2,3.3c0,16,0,32,0,48
		c0,0.5,0,0.9,0,1.6c-1.6-0.8-3.1-1.5-4.5-2.3c-0.3-0.2-0.4-1-0.4-1.5c0-15.2,0-30.3,0-45.5c0-4.9-2-8.6-6.5-10.7
		c-1.5-0.7-3.4-1-5.2-1.1c-8.6-0.1-17.2-0.1-25.9,0c-1.4,0-2.5-0.3-3.6-1.2C87.7,11.2,81.2,9,74.2,8.4c-9.6-0.8-18.5,1-26.4,6.8
		c-1.6,1.2-3.2,1.7-5.2,1.7c-8.2-0.1-16.5,0-24.7,0c-7.3,0-12,4.7-12,12c0,31.5,0,62.9,0,94.4c0,7.9,4.6,12.4,12.5,12.4
		c19.8,0,39.5,0,59.3,0c1.4,0,2.2,0.3,2.8,1.6C81,138.2,81.8,139.2,82.7,140.5z"/>
	<path class="st2" d="M70.5,73.7c-15.5,0-27.9-12.6-27.9-28.1c0-15.3,12.7-27.8,27.9-27.8c15.5,0,28,12.6,27.9,28.1
		C98.4,61.3,85.9,73.8,70.5,73.7z M46.1,44c1.4,0,2.6,0,3.8,0c1.2,0,2,0.4,2,1.7c0,1.3-0.9,1.7-2,1.7c-1.2,0-2.5,0-3.8,0
		c0.5,5.5,2.4,10.3,6,14.5c0.8-0.9,1.5-1.6,2.3-2.4c0.8-0.8,1.8-1.1,2.7-0.2c0.9,0.9,0.6,1.8-0.2,2.7c-0.8,0.8-1.6,1.5-2.5,2.3
		c4.4,3.6,9,5.7,14.6,6c0-1.1,0-2,0-2.9c0-1.2,0.5-2,1.7-2c1.2,0,1.6,0.9,1.7,2c0,0.9,0,1.9,0,3c5.6-0.4,10.3-2.4,14.6-6.1
		c-0.9-0.8-1.6-1.5-2.4-2.2c-0.9-0.8-1-1.8-0.1-2.7c0.8-0.8,1.8-0.6,2.5,0.3c0.7,0.8,1.4,1.6,2.2,2.4c3.7-4.5,5.7-9.2,5.9-14.7
		c-1.2,0-2.3,0-3.3,0c-1.4,0-2.3-0.8-2.2-1.8c0.1-1.2,0.9-1.7,2.1-1.6c1.1,0,2.2,0,3.4,0c-0.5-5.5-2.5-10.2-6.3-14.5
		c-0.7,0.8-1.3,1.6-2,2.3c-0.8,0.8-1.8,1.1-2.6,0.1c-0.8-0.9-0.6-1.8,0.2-2.6c0.7-0.7,1.4-1.3,2.2-2c-4.3-3.5-8.9-5.4-14.4-5.8
		c0,1.3,0,2.5,0,3.7c0,1.1-0.4,2-1.7,2c-1.3,0-1.7-0.8-1.7-2c0-1.2,0-2.4,0-3.6c-5.5,0.5-10.1,2.4-14.3,6c0.9,0.9,1.7,1.6,2.5,2.4
		c0.9,0.8,1.1,1.8,0.2,2.6c-0.8,0.8-1.8,0.6-2.5-0.2c-0.8-0.8-1.5-1.7-2.3-2.6C48.5,33.8,46.6,38.5,46.1,44z"/>
	<path class="st2" d="M49,126.2c0-0.4-0.1-0.7-0.1-1c0-1.6,0-3.3,0-5c8.6,0,17,0,25.6,0c0.4,2,0.8,3.9,1.2,6
		C66.7,126.2,57.9,126.2,49,126.2z"/>
	<path class="st2" d="M125.6,31.2c0,2.6-2,4.7-4.6,4.7c-2.6,0-4.7-2.1-4.7-4.7c0-2.6,2-4.6,4.5-4.6
		C123.5,26.5,125.6,28.6,125.6,31.2z"/>
	<path class="st2" d="M24,31.2c0,2.6-2.2,4.7-4.7,4.6c-2.6-0.1-4.6-2.2-4.6-4.8c0.1-2.5,2.2-4.6,4.7-4.5C21.9,26.6,24,28.7,24,31.2z
		"/>
	<path class="st2" d="M24,123.1c0,2.5-2.1,4.7-4.6,4.8c-2.5,0-4.7-2.1-4.7-4.7c0-2.5,2-4.6,4.5-4.6C21.8,118.5,24,120.5,24,123.1z"
		/>
	<path class="st2" d="M70.5,49.3c-0.6-0.5-1.5-0.8-1.7-1.4c-0.3-0.6-0.3-1.8,0.1-2.3c3-3.5,6-7,9.1-10.4c0.8-0.9,2-0.9,2.9-0.1
		c0.9,0.8,1.1,1.9,0.3,2.8c-3,3.5-6,6.9-9,10.3C71.8,48.8,71.2,48.9,70.5,49.3z"/>
</g>
</svg>
