<?xml version="1.0" encoding="utf-8"?>
<!-- Generator: Adobe Illustrator 24.3.0, SVG Export Plug-In . SVG Version: 6.00 Build 0)  -->
<svg version="1.1" id="Layer_1" xmlns="http://www.w3.org/2000/svg" xmlns:xlink="http://www.w3.org/1999/xlink" x="0px" y="0px"
	 viewBox="0 0 150 150" style="enable-background:new 0 0 150 150;" xml:space="preserve">
<style type="text/css">
	.st0{fill:#005BAB;}
</style>
<g>
	<path class="st0" d="M149.1,117.8c-0.8,3-1.3,6-2.4,8.9c-5,12.8-18.1,21.5-32.8,20c-15-1.6-26.5-12.6-28.6-27
		c-2.7-18.3,10-34.9,28.3-36.9c17.2-1.9,33.2,10.8,35.1,28c0,0.3,0.2,0.6,0.3,1C149.1,113.8,149.1,115.8,149.1,117.8z M110.6,111
		c-1.8,0-3.3,0-4.9,0c-1.1,0-2.1,0.3-2.6,1.4c-0.5,1.2,0,2,0.7,2.9c3.7,4.3,7.4,8.6,11.1,13c1.7,1.9,2.9,1.9,4.6-0.1
		c3.6-4.3,7.2-8.6,10.8-12.8c0.7-0.9,1.2-1.8,0.7-2.9c-0.5-1.2-1.5-1.5-2.7-1.5c-1.5,0-3.1,0-4.8,0c0-2.7,0-5.3,0-7.8
		c0-1.7-0.6-2.3-2.2-2.3c-2.8,0-5.7,0-8.5,0c-1.6,0-2.1,0.5-2.2,2.2C110.6,105.7,110.6,108.2,110.6,111z"/>
	<path class="st0" d="M82.7,140.7c-0.8,0-1.4,0-1.9,0c-21,0-42,0-63,0c-10.1,0-17-7-17-17c0-31.7,0-63.4,0-95.1
		c0-9.7,6.9-16.7,16.6-16.8c8.3,0,16.6,0,24.9,0c0.8,0,1.8-0.3,2.5-0.8c9-6.3,19.1-8.5,29.9-7.5c7.8,0.7,14.9,3.3,21.3,7.9
		c0.4,0.3,1.2,0.4,1.8,0.4c8.3,0,16.5,0.1,24.8,0c9.1-0.1,15.4,6.4,16.6,13.3c0.2,1.1,0.2,2.2,0.2,3.3c0,16,0,32,0,48.1
		c0,0.5,0,0.9,0,1.6c-1.7-0.8-3.1-1.5-4.5-2.3c-0.3-0.2-0.4-1-0.4-1.5c0-15.2,0-30.4,0-45.6c0-4.9-2-8.6-6.5-10.7
		c-1.6-0.7-3.4-1-5.2-1.1c-8.6-0.1-17.3-0.1-25.9,0c-1.4,0-2.5-0.3-3.6-1.2c-5.6-4.4-12.2-6.6-19.2-7.2c-9.6-0.8-18.6,1-26.4,6.8
		c-1.6,1.2-3.2,1.7-5.2,1.7c-8.3-0.1-16.5,0-24.8,0c-7.3,0-12,4.7-12,12.1c0,31.5,0,63,0,94.6c0,7.9,4.6,12.4,12.5,12.4
		c19.8,0,39.6,0,59.4,0c1.4,0,2.2,0.3,2.9,1.6C81.1,138.4,81.9,139.3,82.7,140.7z"/>
	<path class="st0" d="M70.5,73.7c-15.5,0-27.9-12.6-27.9-28.2c0-15.3,12.7-27.9,28-27.9c15.5,0,28.1,12.7,28,28.1
		C98.4,61.3,85.9,73.8,70.5,73.7z M46,43.9c1.4,0,2.6,0,3.8,0c1.2,0,2,0.4,2.1,1.7c0,1.3-0.9,1.7-2,1.7c-1.2,0-2.5,0-3.8,0
		c0.5,5.6,2.4,10.3,6,14.5c0.8-0.9,1.5-1.6,2.3-2.4c0.8-0.8,1.8-1.1,2.7-0.2c0.9,0.9,0.6,1.9-0.2,2.7c-0.8,0.8-1.6,1.5-2.5,2.3
		c4.4,3.6,9,5.7,14.6,6c0-1.1,0-2,0-2.9c0-1.2,0.5-2,1.7-2c1.2,0,1.6,0.9,1.7,2c0,1,0,1.9,0,3c5.7-0.4,10.4-2.4,14.6-6.1
		c-0.9-0.8-1.6-1.5-2.4-2.2c-0.9-0.8-1-1.8-0.1-2.7c0.8-0.8,1.8-0.6,2.6,0.3c0.7,0.8,1.4,1.6,2.2,2.4c3.7-4.5,5.7-9.2,5.9-14.7
		c-1.2,0-2.3,0-3.4,0c-1.4,0-2.3-0.8-2.2-1.8c0.1-1.2,0.9-1.7,2.1-1.6c1.1,0,2.2,0,3.4,0c-0.5-5.5-2.5-10.2-6.3-14.5
		c-0.7,0.8-1.3,1.6-2,2.3c-0.8,0.8-1.8,1.1-2.6,0.1c-0.8-0.9-0.6-1.8,0.2-2.6c0.7-0.7,1.4-1.3,2.2-2c-4.3-3.6-9-5.4-14.4-5.8
		c0,1.3,0,2.5,0,3.7c0,1.1-0.4,2-1.7,2c-1.3,0-1.7-0.9-1.7-2c0-1.2,0-2.4,0-3.6c-5.5,0.5-10.1,2.4-14.3,6.1c0.9,0.9,1.7,1.6,2.5,2.4
		c0.9,0.8,1.1,1.8,0.2,2.6c-0.8,0.8-1.8,0.6-2.6-0.2c-0.8-0.8-1.5-1.7-2.3-2.6C48.4,33.7,46.6,38.4,46,43.9z"/>
	<path class="st0" d="M48.9,126.3c0-0.4-0.1-0.7-0.1-1c0-1.6,0-3.3,0-5c8.6,0,17.1,0,25.6,0c0.4,2,0.8,3.9,1.2,6
		C66.7,126.3,57.8,126.3,48.9,126.3z"/>
	<path class="st0" d="M125.7,31.1c0,2.6-2.1,4.7-4.6,4.7c-2.6,0-4.7-2.1-4.7-4.7c0-2.6,2-4.6,4.6-4.6
		C123.6,26.4,125.7,28.5,125.7,31.1z"/>
	<path class="st0" d="M23.9,31.2c0,2.6-2.2,4.7-4.7,4.6c-2.6-0.1-4.7-2.2-4.6-4.8c0.1-2.5,2.2-4.6,4.7-4.6
		C21.8,26.5,23.9,28.6,23.9,31.2z"/>
	<path class="st0" d="M23.9,123.2c0,2.6-2.1,4.7-4.6,4.8c-2.5,0-4.7-2.1-4.7-4.7c0-2.5,2-4.6,4.5-4.7
		C21.7,118.6,23.9,120.6,23.9,123.2z"/>
	<path class="st0" d="M70.5,49.3c-0.6-0.5-1.5-0.8-1.7-1.4c-0.3-0.6-0.3-1.8,0.1-2.3c3-3.6,6-7,9.1-10.5c0.8-0.9,2-0.9,2.9-0.1
		c0.9,0.8,1.1,1.9,0.3,2.9c-3,3.5-6,6.9-9,10.4C71.8,48.7,71.2,48.9,70.5,49.3z"/>
</g>
<g>
	<path class="st0" d="M999.4,88.7c0.5,5.4-0.7,10.5-3.7,15.1c-1.2,1.9-0.9,3.5-0.7,5.6c1.6,12.7,0.3,24.8-10.4,33.6
		c-8.7,7.1-18.7,5.3-24.9-4c-8.4-12.5-5.5-34.2,5.9-44c7.2-6.2,16.1-5.9,22.9,0.6c0.8,0.7,1.2,2.3,2.7,1.7c1.1-0.5,1.3-1.8,1.5-3
		c1.4-12.9-0.2-20.5-13.6-26c-17-6.9-34.1-8.3-51.1,0.3c-4,2-8.4,3.2-12.5,5.1c-12.6,6-24.6,3.1-36.5-2.2
		c-6.2-2.8-12.4-5.7-19.1-7.2c-16.3-3.7-31.5-0.8-45.8,7.8c-8,4.8-8,16.5-6.5,23c0.6,2.5,2,2.1,3.6,0.7c3.1-2.5,6.1-4.9,10.5-5.3
		c7.4-0.6,12.4,3.3,16.6,8.5c7.7,9.6,9,27.6,2.9,38.3c-7.5,13.1-23,13.2-31.1,0.3c-5.6-8.9-6.8-18.6-5.1-28.8c0.3-2,0-3.4-0.8-5.1
		c-8.3-16.6-4.4-35.2,15.9-42.6c8.5-3.1,17.3-5.5,26.3-5.2c13.5,0.4,25.9-3.4,38.3-7.9c10.2-3.7,20.5-3.7,30.7,0.1
		c12.4,4.5,24.8,8,38.3,7.9c11.1-0.1,22,2.6,32.1,8.1C995.5,69.5,1000.2,77.5,999.4,88.7z M989.2,119.7c0.1-8.4-1.2-13.2-3.9-17.4
		c-3.4-5.2-8.2-6.4-13.7-3.5c-11.8,6.4-13.8,32.1-3.2,40.1c3.7,2.8,8.4,2.5,12.3-0.9C986.7,132.5,988.8,125.4,989.2,119.7z
		 M810.5,117.1c0.4,7.7,2.4,14.8,8.1,20.3c5.4,5.3,11.9,4.4,16-1.9c6.4-9.9,4.6-26.6-3.8-34.8c-5.1-5-12.4-4.3-16.2,1.7
		C811.7,106.8,810.2,111.7,810.5,117.1z M870.8,60.5c18.3,12.7,39.2,12.8,58,0C909.4,49.2,889.9,50,870.8,60.5z"/>
	<path class="st0" d="M876.7,143.1c-1.7,13.5,0.9,25.4,3.5,37.2c0.8,3.6,1.1,7.2,1,10.9c-0.1,2.2-0.9,3.4-3.3,3.5
		c-2.3,0-3.2-1.3-3.4-3.4c-1.9-18.1-6.9-35.9-4.9-54.4c0.5-4.6-2.4-8.2-4.8-11.8c-6.4-9.6-12.4-19.3-14.9-30.7
		c-1.4-6.3-2.5-12.7-2.1-19.3c0.1-2.5,0.3-5.1,3.3-5.2c3.3-0.1,3.4,2.5,3.3,5c-0.7,16,4.8,30,13.7,42.9c7,10.1,13.8,20.4,20.8,30.5
		c1.6,2.3,2.4,4.6,2.4,7.4c-0.1,11.2,0,22.3-0.1,33.5c0,2.5,0.3,5.5-3.4,5.5c-3.7,0-3.3-3.1-3.3-5.5c0-9.7-0.4-19.3,0.1-29
		C885,153.2,881,148.9,876.7,143.1z"/>
	<path class="st0" d="M922.3,142.2c-4.6,5.7-8.5,10.2-8.1,17.4c0.6,9.9,0.2,20,0.2,30c0,2.3,0.3,5-3.2,5c-3.3,0-3.4-2.6-3.4-5
		c0-12,0-24,0-36c0-2.3,1-4.1,2.3-5.9c7.8-11.2,15.9-22.2,23.4-33.5c7.6-11.3,11.8-23.8,11.4-37.6c0-0.5-0.1-1,0-1.5
		c0.3-2.3,0-5.3,3.3-5.2c3,0,3.4,2.6,3.4,5.1c0.2,13.1-2.7,25.4-9,36.9c-1.1,2-2,4.3-3.5,6c-9,9.9-10.7,21.6-9.5,34.4
		c0.9,10.4-2.1,20.4-4.2,30.5c-0.5,2.6-0.9,5.2-0.8,7.9c0.1,2-0.4,3.7-2.8,3.8c-2.7,0.1-3.3-1.7-3.4-3.9c-0.5-6.9,1.6-13.5,2.9-20.2
		C922.7,161.5,923.9,152.5,922.3,142.2z"/>
	<path class="st0" d="M878.2,107.5c-6.7-0.4-10.2-3.5-9.8-8.5c0.6-6.8,7.2-13.7,12.7-12.6c3.2,0.6,6.5,1.1,9.3,3.2
		c3,2.3,4.1,8.2,2,11.2c-0.9,1.4-2.3,2-3.9,1.5c-2.1-0.6-2.4-2.5-2.7-4.3c-0.2-1.2,1.7-3.3-1.1-3.3c-2.1,0-4.6-2.1-6.4,0.4
		c-1.2,1.7-3.6,3.6,0.8,4.7c2.4,0.6,4.6,2.5,3.9,5.5C882.5,108,880.2,107.9,878.2,107.5z"/>
	<path class="st0" d="M904.3,122.6c-2.7,0.1-4.4-1.4-5.5-3.6c-1-2.2-0.2-4.4,2.1-4.5c3.6-0.2,7.3,0.1,10,3.3
		c2.5,2.9,1.8,5.6,0.9,9.2c-2.9,10.5-14.8,9.7-21.1,5.4c-3.5-2.4-4.2-8.1-1.9-11.7c0.8-1.3,2-1.7,3.4-1.5c2.1,0.3,3.1,2.3,2.8,3.6
		c-1.3,5.2,3,4.7,5.3,5c3,0.5,4.1-2.1,4.2-4.9c0.4-0.2,0.8-0.4,0.2-0.8C904.8,122,904.5,122.4,904.3,122.6z"/>
	<path class="st0" d="M920.2,82.8c2.8,0.8,6.5,1.8,10,3.1c2.1,0.8,3.4,2.7,3.9,4.9c1.2,5.3-1.2,9.8-4.3,13.7
		c-1.8,2.3-5.2,2.3-7.6,0.2c-1.4-1.2-1.2-4.1,0.1-4.3c3.9-0.6,2.6-4.2,4.2-6c1.6-1.8,0.6-1.9-1.4-2.6c-4.5-1.5-8.2,0.4-12,2
		c-2,0.9-3.5,0.5-4.7-1.3c-1.3-1.9,0-3.6,1.2-4.3C912.9,86.2,914.9,82.3,920.2,82.8z"/>
	<path class="st0" d="M904.3,122.6c0.2-0.2,0.5-0.5,0.5-0.5c0.6,0.4,0.2,0.6-0.2,0.8C904.6,122.9,904.3,122.6,904.3,122.6z"/>
</g>
<g>
	<path class="st0" d="M625.4-398.7c0.3,0.3,0.7,0.5,1,0.8c-0.3,0.1-0.7,0.1-1,0.2C625.4-398,625.4-398.4,625.4-398.7z"/>
	<path class="st0" d="M599.4-479c1.1-3.3,2-6.6,3.3-9.8c8.2-19.5,26-28.2,48.5-22.5c10.3,2.6,20.5,6.8,30,11.7
		c26.7,13.7,54.6,24.2,83.2,33.7c5.2-8.8,11.8-15.9,20.4-21c8.9-5.3,18.5-8.1,28.9-8.1c25.5,0,50.9,0.4,76.3-0.1
		c23.9-0.5,42.2,8.5,55.4,29.4c11.7-4.2,23.7-8,35.3-12.8c17.4-7.3,34.4-15.8,51.8-23.1c10-4.2,20.4-8.4,31-10.4
		c36.3-6.6,53.7,29.6,44.2,53.6c-3.8,9.7-9.9,17.6-17.6,24.4c-1.2,1-2.6,3.1-2.4,4.3c3.4,15.7-2.1,28.8-12.9,39.5
		c-17.7,17.5-38.9,25.4-63.7,19.1c-22.7-5.7-33-27.6-23-48.8c9.6-20.2,26.9-30.7,48.2-34.8c15.5-3,30.1-0.5,42.5,10
		c14-9.1,20-25.8,13.9-38.9c-5-10.9-14.6-16.3-27-13.6c-9.1,2-18.4,4.9-26.7,9.2c-26.9,13.9-55,24.9-83.7,34.7
		c-1.2,0.4-2.4,0.9-4.2,1.6c0.6,1.8,1.1,3.5,1.8,5.1c4.6,12.1,9,24.3,13.7,36.3c5.9,15.1,5.7,29.9-0.5,45.1
		c-14.9,36.6-29.3,73.4-43.8,110.2c-9.5,24.1-13.8,49.2-13.9,75c0,11.6,0.6,23.5-1.5,34.8c-5.2,28-29.9,46.2-57.4,43.7
		c-26.7-2.4-47.6-25.6-48.5-53.9c-0.4-13.8-0.2-27.6-0.9-41.4c-1.2-23.5-7.8-45.7-16.5-67.4c-13.8-34.3-27.3-68.8-41.2-103.2
		c-5.3-13.1-5.6-26.2-0.8-39.4c5.3-14.8,11-29.5,16.8-44.9c-5.6-2-11-4-16.4-5.8c-24.2-8.4-47.7-18.3-70.5-30
		c-8.6-4.4-18.1-7.8-27.6-9.6c-20.1-4-34.9,14.4-28,33.7c2.8,7.7,7.9,13.7,14.5,18.9c12.7-10.8,27.4-13.1,43.1-10.2
		c16.2,3,30,10.6,40.7,23.3c5.9,7,10,15,10.7,24.2c1.6,18.5-10.3,33.4-29.6,37.1c-4.7,0.9-9.6,1-14.4,1.1c-5.8,0-9.1-3.1-8.9-7.8
		c0.2-4.5,3.5-6.8,9-7.2c5.4-0.4,11.1-0.7,16.1-2.4c11.5-3.9,15.9-14.5,11.2-25.8c-6.1-14.4-18-22.2-32.4-26.6
		c-8.6-2.6-17.3-3-26-0.1c-12.4,4.3-17.2,14.9-12.1,27c3,7.3,8.3,12.8,14.5,17.4c5.1,3.8,6.2,7.9,3.2,11.8
		c-2.8,3.6-7.2,3.9-11.9,0.4c-14.1-10.6-24.2-23.6-22.4-42.4c0.5-5.5-0.7-8.6-4.7-12c-9.3-7.9-14.6-18.3-17.4-30.1
		C599.4-471,599.4-475,599.4-479z M855-480.1c-13.6,0-27.3-0.2-40.9,0.1c-18.2,0.4-31.5,9.2-38.5,25.9
		c-7.1,17.2-13.3,34.7-19.7,52.1c-3.5,9.6-3.2,19.1,0.6,28.7c14.2,35.3,28.1,70.6,42.3,105.9c8.9,22.2,15.2,45,16.5,69
		c0.8,13.9,0.6,27.9,0.9,41.9c0.5,22.2,17.2,39.7,38.2,40.2c20.3,0.5,37.7-16.3,39.2-38.1c0.6-8.8,0.3-17.6,0.3-26.4
		c0-27.4,4.7-53.9,14.7-79.4c14.7-37.5,29.6-75,44.7-112.4c4.1-10.1,4.3-20,0.6-30.1c-6.3-17-12.6-33.9-19.2-50.8
		c-6.4-16.4-21.5-26.5-39.2-26.5C881.9-480.1,868.5-480.1,855-480.1z M1024.1-383.7c21.8-2.2,38.3-9.3,47.4-27.9
		c6-12.3,0.8-23.3-12.1-27.6c-9.9-3.3-19.8-2.3-29.3,1.3c-13.9,5.2-25.2,13.4-29.8,28.4c-2.7,8.7,0.6,17.1,8.7,21.1
		C1014.3-385.9,1020.2-384.8,1024.1-383.7z"/>
	<path class="st0" d="M791-378c0.2-22.5,3.5-38.8,10.1-54.5c4.7-11.2,13.7-17.5,25.8-16.6c18.8,1.5,37.5,1.4,56.3,0
		c12-0.9,21.1,5.4,25.7,16.6c12.1,29.3,13.2,59,3.7,89.2c-1.8,5.7-3.7,11.4-5.6,17c-1.8,5.2-5.4,7.3-9.8,5.9
		c-4.2-1.3-5.7-5.4-4.3-10.6c3.6-13.6,8.1-27.1,10.3-40.9c3-18.9-0.6-37.4-8.1-55c-2.3-5.5-5.6-7.5-11.7-7.3
		c-13.8,0.3-27.6,0.9-41.3,1c-5,0.1-9.9-0.8-14.9-1c-6.6-0.3-9.7,1.7-12.3,7.9c-10.5,25.6-11.3,51.6-3.2,78
		c8,26,16.4,51.9,23.2,78.2c6.3,24.4,8.1,49.5,8.3,74.7c0.1,8.6,4.7,12.8,13.2,12.2c7-0.5,10.6-4.5,10.6-12.4
		c0.2-34.6,5.1-68.5,15-101.7c0.8-2.6,2.7-5.6,5-6.8c1.8-1,5.9-0.4,7.2,1.1c1.7,2,2.9,5.8,2.3,8.4c-2.1,10.6-5.3,20.9-7.5,31.5
		c-4.8,22.3-6.9,45-7,67.8c0,6.2-1.4,11.9-5.1,16.9c-6.6,8.9-19,12.6-30.6,9.1c-10.4-3.1-18.1-12.2-18.1-23.2
		c0.3-47.9-10.5-93.5-26.5-138.2C795.5-347.7,790.6-365.1,791-378z"/>
</g>
<g>
	<path class="st0" d="M1301.8-131.9c8.1,16.8,16.8,33.3,19.5,52.1c3.1,21.4-3.3,40.5-15,58.1c-1.5,2.3-3.6,3.1-6,1.6
		c-2.2-1.4-2.1-3.7-0.8-5.7c3.9-6.2,7.4-12.6,10.1-19.5c2.1-5.5,3.2-11.2,4-17c0.3-2.2,0.1-3.5-2.8-3.2
		c-16.1,1.6-31.5,5.2-45.1,14.6c-4.4,3-7.2,6.4-6.5,12.3c0.6,4.8,0.1,9.6,0.1,14.5c0,2.6-1,4.7-4,4.7c-3,0-3.9-2.1-4-4.7
		c0-5.5-0.3-11,0-16.5c0.2-3.8-1.3-6.4-4.1-8.5c-14.2-10.8-30.7-14.8-48-16.3c-3.3-0.3-2.4,2.1-2.2,3.7c1.2,11.3,5.3,21.6,11.1,31.3
		c0.9,1.6,1.9,3.1,2.8,4.7c1.2,2.1,1.4,4.3-0.8,5.7c-2.3,1.4-4.4,0.8-6-1.6c-3.1-4.6-5.7-9.4-8.1-14.3c-11.3-23.7-9.2-47.2,0.9-70.6
		c3.6-8.2,7.5-16.3,11.3-24.4c3,3.6,2.9,7.9,2.7,12.3c-3.4,8.3-7.4,16.4-10.2,24.9c-1.1,3.4-0.9,5,3.1,5.8
		c34.2,7.4,68.4,7.4,102.6,0c3.6-0.8,4.5-1.9,3.3-5.7c-3-8.8-7.2-17.2-10.5-25.9C1298.8-123.9,1299.2-128.1,1301.8-131.9z
		 M1255.4-53c0.9-0.7,1.6-1.2,2.4-1.9c6.4-5.4,13.7-9.4,21.6-12.1c9.9-3.5,20.2-5.6,30.6-6.6c3-0.3,4-1.5,3.4-4.5
		c-0.6-3-2.1-3.2-4.7-2.4c-3,0.9-6.1,1.4-9.2,2c-33,6-65.9,5.5-98.5-2.2c-2.4-0.6-3.2,0.2-3.9,2.4c-1.2,3.9,0.9,4.5,4,4.9
		c19,2.3,37.4,6.3,52.5,19.3C1254.1-53.7,1254.7-53.4,1255.4-53z"/>
	<path class="st0" d="M1301.8-131.9c-2.6,3.8-3,8-2.5,12.4c-3.5,2.2-3,6.1-3.6,9.3c-0.8,4.5-2.6,4.6-5.9,2.7c-3.9-2.2-8-4-11.9-6.2
		c-2.9-1.7-4.5-0.9-5.6,2.1c-1.9,5.3-4,10.5-6,15.7c-5.4-1.2-2.1-5.7-3.3-8.5c0-1.1,0-2.3,0-3.4c0.1-7.3,0.1-14.5,0.2-21.8
		c0-2.4-0.4-5.1,2.3-6.6c4.3,3,8.7,6,12.9,9.1c2.9,2.1,3.9,1.2,4.4-2c1.2-7.1,0.6-14.5,2.8-21.5c3.9-0.1,7.1,1.7,10.4,3.5
		c0.8,0.8,1.5,1.8,2.5,2.3c3.5,1.6,4.3,4.1,3,7.6C1300.9-135.4,1301.4-133.7,1301.8-131.9z"/>
	<path class="st0" d="M1241.3-105.1c-0.3-1.1-0.6-2.1-0.9-3.2c0-2.8-0.2-6.7-3.3-6.3c-3.6,0.4-8.2,0.5-10.4,4.9
		c-0.9,0.5-1.8,1-2.7,1.5c-3.9,0.8-8.5,3.8-9.9-3.4c-1.3-6.6-2.6-13.2-4.6-19.5c-2.7-8.7,0.2-14.5,7.8-19c4.3-2.5,7.4-1.3,8.1,3.6
		c0.4,2.6-1.2,5.4,1,7.7c0.2,1.2,0.4,2.4,0.6,3.6c-1.1,2-0.3,4.1-0.4,6.2c-0.1,1.9,0.7,3.8,2.5,4.2c1.8,0.3,3.8-0.4,4.3-2.8
		c0.7-0.4,1.3-0.9,2-1.3c1.5,0.3,2.3-0.3,2.4-1.9c1.2-0.8,2.4-1.7,3.6-2.5c0.7,0,1.5,0.3,2.1,0.1c5.8-2.3,5.9-2.3,5.9,4.2
		c0,8.7,0,17.4,0,26.1c0,2.9-0.1,5.9-2.4,8.5c-2.3-2.6-0.4-7.2-4.6-8.2C1241.8-103.5,1241.5-104.4,1241.3-105.1
		C1241.2-105.2,1241.3-105.1,1241.3-105.1z"/>
	<path class="st0" d="M1296.1-147.1c-3.2-1.8-6.5-3.5-10.4-3.5c0.9-2,0.9-4.1,0.7-6.3c-0.9-8.3,0.5-16.2,4-23.7
		c1.1-2.5,2.8-4.4,5.7-3.4c3.2,1.2,2.9,4,1.7,6.3C1293-167.7,1293.7-157.4,1296.1-147.1z"/>
	<path class="st0" d="M1215.2-149.1c1.8-10,2-19.7-2.6-29.1c-1.1-2.2-0.8-4.8,2.1-5.7c2.7-0.9,4.3,0.6,5.4,3
		c4.1,9,5.7,18.3,3.6,28.1C1221.4-150.6,1218.2-150.1,1215.2-149.1z"/>
	<path class="st0" d="M1240.2-106.6C1240.2-106.6,1240.2-106.7,1240.2-106.6C1240.2-106.7,1240.2-106.6,1240.2-106.6z"/>
</g>
<g>
	<path class="st0" d="M1165.1-329.6c0.8-5.7,2.9-11.1,8.2-15.9c-4.5,0.5-6.5-1.6-7.9-4.5c-1.4-3-1.9-6-1.2-9.2
		c1.4-6.8,5.2-12.1,11.2-15.2c18.5-9.4,36.9-8.6,54.9,1.4c8.9,5,12.8,13.5,13.1,23.3c0.3,9.8,1.7,18.9,6.1,27.9
		c5.8,11.8,5.4,24.9,5.2,37.7c-0.1,4.7-2.6,8.6-6.4,11.3c-2.5,1.8-3.5,4-3.9,7.1c-1.3,10-5,19.7-4.8,30c0,1.5-0.9,2.6-2.4,2.7
		c-1.9,0.1-2.6-1.3-2.7-3c-0.3-4.2,0.6-8.3,1.3-12.4c0.7-4.3,1.5-8.5,2.6-12.7c2.7-10.8,2.4-21.4-1-32c-2.1-6.4-3.1-12.9-2.5-19.7
		c0.5-6.1-1-11.4-5.9-15.7c-5.7-5-7.7-11.5-6.4-19c0.4-2.1,0.8-4.2,1.2-6.4c0.2-1.3,1-2.9-0.4-3.6c-1.7-0.9-2.1,1.1-2.9,2
		c-3,3.8-4.4,8.2-4.8,12.9c-0.3,3.5-0.5,7-0.3,10.5c1.4,17.8-16.2,28.9-33.4,23.9c-1.9-0.6-3.8-1.3-5.5-2.4
		c-4.6-2.9-8.9-6.4-12.9-9.8c-5-4.2-7.5-10.9-8.9-17.4c-6-27.6,10.1-49.8,38.4-53.1c10.8-1.3,21.1,0.4,31.4,3.9
		c23.1,8,46.1,7,68.9-1.5c19.4-7.2,44.1-1.7,56.8,12.5c10.5,11.7,13,32.7,5.3,46.4c-3.1,5.6-6.5,11-9.9,16.5c-0.8,1.2-1.8,2.4-3,3.3
		c-4,3.1-23.3,5-27.8,2.6c-2-1.1-3.9-1.4-6.1-1.5c-6.6-0.1-11.3-4.6-11.7-11.2c-0.1-2.1-0.6-3.7-1.9-5.4c-3.5-4.6-3.2-9,0.6-13.7
		c3-3.7-0.1-16.9-4.5-18.6c-2.1-0.8-2.1,1-1.9,2.3c0.4,2.8,1.1,5.6,1.5,8.3c1.2,7.3-1,13.6-6.5,18.5c-4.4,3.9-6.3,8.7-5.9,14.2
		c0.6,8-0.6,15.6-3,23.1c-3.8,11.7-2.3,23.4,0.5,35c1.4,6,2.7,12,3,18.2c0.1,2,0.5,4.9-2.7,4.8c-2.9,0-2.4-2.6-2.4-4.6
		c-0.2-10.4-4-20.2-5.2-30.5c-0.3-2.3-2.5-3.5-4-4.9c-4.3-3.9-5.8-8.6-5.7-14.3c0.4-15.1,1.3-29.8,9-43.5c2.9-5.3,1.8-11.7,2.1-17.7
		c0.6-13.7,7.3-23.1,20.2-28.1c3.7-1.5,7.5-2.6,11.5-3.2c11.1-1.7,21.9-1.3,32.4,3.2c7.5,3.3,13.1,8.4,15.2,16.7
		c0.6,2.3,1.1,4.9,0,6.9c-2.2,4.1-1.7,7.7,0.1,11.7c0.7,1.6,0.9,3.6,2.8,3.6c2.2,0.1,2.1-2.2,2.4-3.7c3.4-18.4-5.5-34.4-22.9-41.2
		c-12.3-4.8-24.7-5.1-37.1-0.6c-25.3,9.1-50.4,8.8-75.8-0.1c-16.4-5.7-32.3-4.1-46.6,6.2c-13.8,10-17.9,31.3-9.4,45.9
		C1163.1-330.4,1163.6-329.8,1165.1-329.6z M1245.5-277.6c3-1.4,4.1-3.7,4.2-6.2c0.3-11.7,0.9-23.7-4.2-34.4
		c-5-10.5-6.9-21.3-7.3-32.7c-0.3-7.8-3.9-14.1-10.9-18c-15.4-8.7-31.4-9.1-47.5-2.2c-5.4,2.3-9.3,6.5-10.6,12.5
		c-1.1,4.7,0.4,7,5,8.3c2.3,0.6,4.5,1.4,5.4,4c0.9,2.8-1.5,3.7-3.1,5.1c-6.5,5.7-8,14.4-3.4,21.1c4.7,7,15,10.2,24.2,7.5
		c8.3-2.4,13.1-9,13.3-18.3c0-2.5,0-5,0-7.5c0-7,1.5-13.7,5.7-19.3c2.4-3.2,0.6-4.9-1.3-6.7c-0.9-0.9-2.4-1.2-3.5-1.9
		c-1.1-0.7-1.8-1.6-1.2-2.9c0.5-1.2,1.7-2,2.8-1.5c2.5,1,5.8,0.8,7,4.1c0.7,1.8,2.1,3.2,3.9,3.6c6.6,1.6,6.6,5.8,4.8,11
		c-3,8.7-1.5,16.2,5.8,22.4c3.2,2.7,5.6,6.7,5.1,11C1238.1-304.7,1244-291.8,1245.5-277.6z M1333.7-311.6c4.3-0.4,7.8-2,8.5-5.3
		c0.9-4.5,1.9-8.4,6.3-10.7c0.4-0.2,0.7-1.2,0.8-1.8c0.1-5.5-6.5-7.9-6.1-13.7c0.1-1.7-2.3-2.6-4.1-3.1c-0.5-0.1-1-0.3-1.5-0.3
		c-1.9,0-3.1-0.8-3.8-2.6c-0.5-1.3-1.5-3.1-2.5-2.8c-5.9,1.6-12.1-1.7-17.9,1c-1.4,0.6-2.6,1.2-4.2,1.3c-5.3,0.4-7.2,3.2-5.1,7.9
		c1.2,2.6,0.9,4.1-1.8,5c-2.1,0.7-4.5,2.3-3.7,4c2.7,5.8,2.1,13.7,6.8,17.5c4.1,3.4,11.1,4.7,16.6,4.2
		C1326.1-311.5,1330-314,1333.7-311.6z M1268.2-277.4c0.5-5.2,0.8-9.8,2.2-14c2.5-7.3,3.9-14.7,3.3-22.5c-0.6-7.1,1.7-12.9,7.1-17.8
		c4.8-4.3,6.9-9.7,4.9-16.2c-0.8-2.7-1.2-5.5-1.8-8.3c-0.3-1.5-0.9-3.6,0.5-4.2c4.9-2,8.3-5.6,12-9.1c0.9-0.8,2.4-1,3.7-1.3
		c1.5-0.3,2.8,0.2,3.2,1.6c0.4,1.3-0.5,2.1-1.5,2.8c-6.5,4.9-6.5,4.9-2.6,11.6c0.6,1,0.6,2.9,2.7,2c2-0.9,1.4-2.1,0.6-3.6
		c-0.9-1.8-3-4.1-0.2-5.6c3.2-1.7,3.7,1.8,4.7,3.6c1.3,2.2,2.2,3,5.3,2c6.4-2.1,13.2-0.7,19.8-0.6c1.8,0,3.4,1.5,4.4,3.1
		c1.4,2.2,3.4,3.8,5.7,2.7c2.3-1.1,2.4-3.8,2-6.2c-1-6.5-4.8-10.9-10.6-13.6c-10.8-5.2-22.1-5.9-33.6-3.2
		c-18.8,4.3-24.6,11.4-25.4,30.7c-0.2,5.3,0,10.9-2.6,15.6c-7.5,13.5-8.3,28.2-8.3,43.1C1264-281.9,1264.9-279.5,1268.2-277.4z"/>
	<path class="st0" d="M1285.8-395.5c0.1,0.9-0.1,1.7-0.9,2.1c-1.6,0.9-2.8,0.2-4.1-0.8c-9-6.4-19.2-8-29.9-6.9
		c-7.4,0.8-14.2,3.4-19.9,8.3c-1.5,1.3-3.1,3.3-5,1.1c-1.8-2.1,0.1-3.6,1.6-4.9c13.8-12.4,41.3-13.5,55.9-2.1
		C1284.5-397.7,1285.7-397.1,1285.8-395.5z"/>
	<path class="st0" d="M1191-345.8c-0.5,0-1,0-1.5,0c-1.8,0-4,0.2-4.2-2.4c-0.2-2.7,2-2.5,3.8-2.6c1.5-0.1,3,0,4.5-0.2
		c5.8-0.5,10.5-2.6,13.2-8.3c0.8-1.6,1.7-4.2,4.3-2.7c2.5,1.4,0.9,3.5,0,5.2C1207-348.5,1199.6-345.9,1191-345.8z"/>
</g>
</svg>
