<?xml version="1.0" encoding="utf-8"?>
<!-- Generator: Adobe Illustrator 24.3.0, SVG Export Plug-In . SVG Version: 6.00 Build 0)  -->
<svg version="1.1" id="Layer_1" xmlns="http://www.w3.org/2000/svg" xmlns:xlink="http://www.w3.org/1999/xlink" x="0px" y="0px"
	 viewBox="0 0 150 150" style="enable-background:new 0 0 150 150;" xml:space="preserve">
<style type="text/css">
	.st0{fill:#005BAB;}
</style>
<g>
	<path class="st0" d="M30,149.9c-1.1-0.7-1.5-1.8-1.5-3.1c0-7.5,0-14.9,0-22.4c0-5.4,1.1-10.5,3.3-15.4c0.7-1.6,1.8-2.2,3.1-1.6
		c1.3,0.5,1.6,1.8,0.9,3.3c-2.2,4.7-3,9.7-3,14.9c0.1,6,0,12.1,0,18.1c0,0.5,0,1.1,0,1.7c4.4,0,8.6,0,13.1,0c0-0.5,0-1,0-1.5
		c0-5,0-9.9,0-14.9c0-1.8,0.8-2.8,2.2-2.8c1.4,0,2.1,1,2.1,2.7c0,5.5,0,10.9,0,16.5c16.4,0,32.7,0,49.1,0c0-0.5,0-1,0-1.5
		c0-5,0-9.9,0-14.9c0-1.8,0.8-2.7,2.1-2.8c1.4,0,2.3,0.9,2.3,2.8c0,5.5,0,10.9,0,16.5c4.4,0,8.6,0,13.1,0c0-1.3,0-2.6,0-3.8
		c0-1.4,0-2.8,0-4.2c0-1.4,0.9-2.3,2.1-2.3c1.3,0,2.3,0.8,2.3,2.3c0.1,3.2,0,6.3,0,9.5c0,1.3-0.3,2.4-1.5,3.1
		C90,149.9,60,149.9,30,149.9z"/>
	<path class="st0" d="M104.9,48.8c1.6,0.5,3.1,1,4.6,1.5c1-7.5,1-15-1-22.3C105.1,15.4,96.7,8,84.1,5.5c-9.9-2-19.5-1.1-28.5,3.7
		c-1.3,0.7-2.6,0.4-3.2-0.7c-0.6-1.1-0.2-2.4,1.1-3.2c5.6-3.1,11.6-4.6,18-5.1c7.6-0.5,15,0.4,22,3.5c11.1,4.9,17.3,13.7,19.8,25.3
		c1.7,8.1,1.4,16.2,0.3,24.3c-0.1,0.6,0.1,1.2,0.3,1.8c1.5,3.2,1.6,6.4,0.4,9.6c-0.2,0.5-0.1,1.3,0.2,1.8c4.1,6.1,3.4,13.7-1.6,18.7
		c-5,4.9-12.8,5.5-18.6,1.3c-0.7-0.5-1.2-0.6-1.9,0c-0.6,0.5-1.3,0.9-2,1.4c1.8,0.5,3.5,0.8,5.1,1.3c15.2,4.5,25.7,18.3,26,34.1
		c0,1.6,0,3.1,0,4.7c0,1.5-0.9,2.4-2.2,2.5c-1.3,0-2.2-1-2.2-2.5c0.1-4.8-0.1-9.5-1.7-14.1c-2.6-7.4-7.3-13.1-14-17.2
		c-0.3-0.2-0.6-0.3-0.9-0.5c-0.1,0-0.2,0-0.4-0.1c-0.2,1.8-0.3,3.5-0.5,5.3c-0.4,3.1-1.5,5.9-3.5,8.4c-3.8,4.8-13.3,7.4-19.4,0.7
		c-0.6-0.6-1.1-1.3-1.7-2c-0.3,0.4-0.6,0.7-0.9,1.1c-6.4,8.2-17.9,5.3-21.6-1.9c-1.6-3-2.3-6.3-2.4-9.7c0-0.6,0-1.2,0-1.8
		C50,96,49.8,96,49.7,95.9c-1.8,1.3-3.6,2.5-5.4,3.9c-1.2,0.9-2.2,2.1-3.2,3.1c-1.3,1.4-2.5,1.6-3.5,0.7c-1.1-0.9-1-2.2,0.2-3.6
		C43.2,93.9,50,90,58,88.4c0.4-0.1,0.9-0.2,1.3-0.3c0.1,0,0.2-0.1,0.3-0.2c-0.6-0.4-1.2-0.8-1.8-1.3c-4.9-3.5-8.5-8.1-10.7-13.7
		c-0.3-0.8-0.6-1.2-1.6-1.3c-8-0.6-12.9-9-9.5-16.3c0.3-0.7,0.5-1.6,0.4-2.3c-1-8-1.4-15.9,0.3-23.8c1.3-6.4,3.8-12.1,8.2-17
		c0.2-0.2,0.4-0.4,0.6-0.6c1.1-1.1,2.4-1.2,3.3-0.3c0.9,0.9,0.9,2,0,3.3c-1.7,2.4-3.6,4.6-4.9,7.2c-3.7,7.4-4.3,15.3-3.8,23.4
		c0.1,1.7,0.3,3.5,0.4,5.3c1.6-0.5,3-1,4.4-1.4c0.3-2.9,0.3-5.7,0.9-8.5c2.7-14,13.7-23.2,28-23.5c6.8-0.1,13.3,1.1,18.9,5.2
		c7.6,5.5,11.3,13.3,12.1,22.5c0.1,0.7,0,1.5,0,2.2C104.9,47.4,104.9,48.1,104.9,48.8z M77.7,54.7c2-9.9,13.5-15.2,22.6-8.1
		c1.1-7.5-4.6-18.1-12.1-22.3c-9-5-22.4-4-29.9,2.4c-5.5,4.6-10.1,15.4-8.5,19.9C58,40,69.9,44,72.3,54.7
		C74.1,54.7,75.9,54.7,77.7,54.7z M72.2,59.3c-2,9.8-13.1,14.9-22,8.5c1,10.5,13.1,20.2,25.1,20c11.8-0.2,23.7-10.1,24.4-20.1
		c-4.1,3-8.6,3.8-13.3,2c-4.8-1.8-7.5-5.5-8.6-10.4C75.9,59.3,74.1,59.3,72.2,59.3z M58.8,47.8c-5.1,0-9.2,4.1-9.2,9.2
		c0,5.1,4.1,9.2,9.2,9.2c5,0,9.2-4.2,9.2-9.2C68,52,63.8,47.8,58.8,47.8z M100.4,57.1c0-5.1-4-9.2-9.1-9.3c-5.1,0-9.2,4-9.3,9.1
		c0,5,4.1,9.2,9.1,9.3C96.2,66.3,100.4,62.1,100.4,57.1z M61.4,92.2c-2.1,0.5-4,0.9-6,1.4c-0.3,0.1-0.8,0.5-0.8,0.8
		c-0.2,4.1-0.1,8.1,2.2,11.7c2,3,4.9,4.2,8.4,3.9c3-0.2,4.9-2.1,6.4-4.5C64.6,102.2,63.8,101.3,61.4,92.2z M78.4,105.4
		c0.2,0.3,0.3,0.5,0.4,0.7c4.3,6.6,12.6,4.1,15-0.9c1.6-3.4,1.9-7,1.7-10.7c0-0.3-0.3-0.8-0.6-0.8c-2.1-0.6-4.2-1-6.4-1.5
		C87.5,98.6,85,103.6,78.4,105.4z M96.6,82.9c4.4,3.1,9.9,2.6,13.3-1c3.3-3.5,3.7-9,0.9-12.6c-2.1,1.5-4.4,2.4-7,2.5
		c-0.2,0-0.6,0.3-0.7,0.6C101.7,76.3,99.5,79.8,96.6,82.9z M66.1,92.3c0.8,6.4,4.3,9.5,10,9c4.5-0.4,7.9-4.4,7.7-9
		C77.9,92.3,72.1,92.3,66.1,92.3z M104.8,53.7c0,4.5,0,9.1,0,13.6c3.7-0.6,6.1-3.7,5.9-7.4C110.5,56.7,107.8,53.8,104.8,53.7z
		 M45.2,53.7c-3.1,0-5.8,3.1-5.9,6.4c-0.1,3.7,2.6,6.8,5.9,7C45.2,62.7,45.2,58.2,45.2,53.7z"/>
	<path class="st0" d="M74,76.5c-2.2-0.1-4.8-1.1-6.6-3.7c-0.9-1.4-0.8-2.7,0.3-3.5c1.1-0.8,2.3-0.4,3.3,1c1.8,2.5,6.2,2.5,8,0
		c1-1.4,2.2-1.8,3.3-1c1.1,0.8,1.2,2.1,0.3,3.5C81.1,75.1,78.3,76.5,74,76.5z"/>
	<path class="st0" d="M59.4,56.8c0-1,0-2,0-3.1c0.1-1.3,0.9-2.1,2.1-2.2c1.2,0,2.2,0.8,2.2,2.1c0.1,2.1,0.1,4.3,0,6.4
		c-0.1,1.3-1,2.1-2.2,2.1c-1.3,0-2-0.9-2.1-2.3c0-0.1,0-0.2,0-0.3C59.4,58.7,59.4,57.7,59.4,56.8C59.4,56.8,59.4,56.8,59.4,56.8z"/>
	<path class="st0" d="M90.6,56.9c0,1,0,2,0,3.1c-0.1,1.3-0.9,2.1-2.1,2.2c-1.2,0-2.2-0.7-2.2-2c-0.1-2.1-0.1-4.3,0-6.4
		c0.1-1.3,1-2.1,2.2-2.1c1.2,0,2.1,0.9,2.1,2.3C90.6,54.9,90.6,55.9,90.6,56.9C90.6,56.9,90.6,56.9,90.6,56.9z"/>
</g>
<g>
	<path class="st0" d="M218.8-83.2c-4.2,0-8.3,0-12.5,0c-3.4,0-4.7-1.7-4.6-5c0.9-54.4,38.7-99.4,88.3-111.2
		c54.8-13,107,11.2,132.9,61.3c8.1,15.6,11.6,32.5,12.1,50c0.1,3.4-1.4,4.9-4.7,4.9c-8.7-0.1-17.3,0-26,0c-2.3,0-4.6-0.6-4.6-3.4
		c0.1-2.6,2.4-2.9,4.4-2.9c6.5,0,13-0.2,19.5,0c3.7,0.1,5.1-0.9,4.8-4.8c-2.1-24.5-11-46.1-27.1-64.7c-2.2-2.5-3.5-2.6-5.8-0.1
		c-4.5,4.9-9.4,9.5-14.1,14.2c-1.7,1.6-3.6,3-5.6,0.9c-1.7-1.8-0.6-3.7,0.9-5.3c4.8-4.9,9.5-9.8,14.5-14.4c2.4-2.2,2.2-3.4-0.2-5.4
		c-15.9-13.9-34.3-22.6-55.2-26c-3.4-0.6-6.9-0.7-10.4-1.2c-3-0.4-4.1,0.8-4,3.9c0.2,6.5,0.1,13,0.1,19.5c0,2.4,0,5.2-3.2,5.2
		c-3.1,0-3.1-2.9-3.1-5.3c0-6.5-0.1-13,0.1-19.5c0.1-3.1-1.1-4.1-4.1-3.9c-25.1,1.8-47.1,10.9-66,27.6c-2,1.8-2,2.8-0.1,4.7
		c5,4.7,9.7,9.6,14.5,14.5c1.6,1.6,3.2,3.6,1.2,5.6c-2.3,2.4-4.2,0.5-5.9-1.2c-4.6-4.6-9.3-9-13.7-13.8c-2.4-2.6-3.8-2.1-5.8,0.2
		c-14.3,16.6-23.3,35.6-26.1,57.3c-1.5,12-1.2,12,10.9,12c3.8,0,7.7,0,11.5,0c2.3,0,5.3-0.2,5.3,3c0,3.5-3.1,3.3-5.6,3.3
		C227.1-83.1,222.9-83.1,218.8-83.2C218.8-83.1,218.8-83.1,218.8-83.2z"/>
	<path class="st0" d="M318.1-63c-10.5,0-19.9-7.2-22.5-17.3c-2.6-9.9,1.8-21,10.4-25.9c10-5.8,21.5-4.8,28.7,3.6
		c3.4,4,5.9,3.6,10,1.8c11.8-5.3,23.9-10.1,35.9-15.1c2.1-0.9,4.8-2.3,6.1,0.6c1.5,3.3-1.5,4.3-3.8,5.2
		c-12.4,5.2-24.8,10.5-37.3,15.6c-3.1,1.3-4.6,2.4-4.1,6.5C343.3-75.1,331.6-62.9,318.1-63z M335.3-85.9c0.5-8.1-5.4-17.1-16.5-17.7
		c-9.5-0.5-17.6,7.6-17.7,17.1c-0.1,9.7,7.1,17.2,16.8,17.5C327.4-68.8,335.2-76.4,335.3-85.9z"/>
	<path class="st0" d="M390.9-37.4c0-2.6,0-5.1,0-7.7c0-1.8,0.7-2.8,2.7-2.8c2.2-0.1,2.4,1.3,2.4,2.9c0,5,0.1,10,0,15
		c0,1.6,0.9,4-1.7,4.6c-2.6,0.7-4.3-0.6-5.5-3.1c-1.6-3.3-3.7-6.4-6.7-9.3c0,3.1,0,6.1,0,9.2c0,1.5,0,3.1-2.1,3.2
		c-2.4,0.1-2.6-1.4-2.6-3.3c0-5.2,0-10.3,0-15.5c0-1.6-0.5-3.6,2-3.8c2-0.2,3.9-0.4,5.2,1.9c1.6,3,3.4,5.9,5.2,8.8
		C390.1-37.2,390.5-37.3,390.9-37.4z"/>
	<path class="st0" d="M356-31.5c-0.5,1.7,1.3,4.4-2.1,5.6c-4.4,1.6-11.5,0.7-14.6-2.3c-3.7-3.7-4.3-10.3-1.4-14.7
		c2.8-4.2,10.8-6.6,15.2-4.7c1.2,0.5,2,1.2,1.6,2.6c-0.4,1.4-1.3,1.9-2.6,1.7c-2-0.3-4-0.4-5.9,0.1c-4.1,1.2-4.6,4.4-4.3,7.9
		c0.3,3.3,2.3,5,5.4,5.6c1.1,0.2,2.4,0.2,3-1.1c0.5-1.1,0.7-2.5-0.6-3.1c-1.5-0.7-3.1-1.3-2.1-3.1c1.3-2.3,3.9-1,5.9-1.2
		c2-0.2,2.5,1.1,2.5,2.9C356-34.1,356-33,356-31.5z"/>
	<path class="st0" d="M312.5-36.7c0.1-6.8,4.6-11.6,11.1-11.6c6.3,0,10.6,4.7,10.6,11.4c0,7.2-4.5,11.9-11.3,11.7
		C316.5-25.3,312.4-29.9,312.5-36.7z M318.1-37.5c-0.1,4.8,2,8.3,4.9,8.2c4.4-0.1,5.3-3.4,5.5-6.9c0.3-4.4-2.1-8-5.2-7.8
		C318.9-43.7,318.5-40.2,318.1-37.5z"/>
	<path class="st0" d="M294.1-36.7c0-1-0.2-2,0-3c0.5-2.6-1.7-6.4,1.4-7.7c3.6-1.5,7.9-1.2,11.7,0.7c3.1,1.5,4.1,5,2.4,7.2
		c-2.6,3.5-0.8,6-0.1,9.1c0.3,1.6,2.6,4-0.4,5c-2.8,1-4.3-0.9-4.8-3.6c-0.2-1.1-0.7-2.2-1.1-3.3c-0.5-1.2-1.5-1.9-2.8-1.6
		c-1.2,0.3-1.3,1.4-1.3,2.4c0,1-0.1,2,0,3c0,1.9-0.3,3.3-2.7,3.2c-2.5-0.1-2.4-1.7-2.4-3.5C294.1-31.4,294.1-34.1,294.1-36.7z
		 M301.6-44.1c-2.6-0.1-2.2,1.8-2.3,3.4c-0.1,1.9,0.7,2.8,2.6,2.6c1.9-0.2,3.1-1.2,3.1-3.2C304.9-43.3,303.4-44,301.6-44.1z"/>
	<path class="st0" d="M359.6-36.7c0-0.3,0-0.7,0-1c0-11.2,0-11.2,11.1-10.2c1.5,0.1,3.1,0,3.1,2.2c0.1,2.1-1.4,2.3-3,2.3
		c-0.5,0-1-0.1-1.5,0c-1.6,0.3-4.1-0.9-4.2,2c-0.1,3.1,2.4,1.9,4,2.2c1.5,0.3,3.7-0.8,3.8,1.8c0.2,3-2.2,2.3-3.9,2.3
		c-2,0.1-4.2-0.2-4,2.9c0.1,2.9,2.3,2.3,4,2.4c1,0.1,2,0,3,0c1.4,0,2.1,0.8,2.1,2.2c0,1.4-0.7,2.2-2.1,2.2c-3.3,0-6.6,0-10,0
		c-2.5,0-2.4-1.7-2.4-3.4C359.6-31.4,359.6-34,359.6-36.7z"/>
	<path class="st0" d="M240.5-36.8c0-0.3,0-0.7,0-1c0-11.3,0-11.3,11.3-10.1c1.4,0.1,2.8,0.1,2.8,2c0.1,2-1.2,2.5-2.9,2.5
		c-0.5,0-1-0.1-1.5,0c-1.6,0.3-4.1-0.9-4.2,2c-0.1,3,2.4,1.9,4,2.2c1.5,0.2,3.7-0.8,3.8,1.9c0.2,3-2.2,2.2-3.9,2.3
		c-1.9,0.1-4.2-0.5-4.1,2.8c0.2,3.2,2.6,2.3,4.4,2.5c1,0.1,2,0,3,0.1c1.8,0.3,2.3,2.2,1.4,2.9c-3.5,2.9-7.9,0.8-11.9,1.3
		c-2.6,0.3-2.2-1.9-2.3-3.5C240.5-31.5,240.5-34.2,240.5-36.8z"/>
	<path class="st0" d="M263.2-25.1c-0.7-0.1-1.9-0.1-3-0.4c-1.4-0.4-3.1-0.6-2.6-2.8c0.5-2.1,1.9-2,3.5-1.6c1,0.2,2,0.3,3,0.3
		c1.4,0,2.7-0.4,3-2.1c0.2-1.4-0.8-2.1-2-2.5c-1.2-0.5-2.5-0.9-3.6-1.6c-2.4-1.4-4.3-3.4-3.9-6.4c0.4-3.2,2.7-4.9,5.6-5.6
		c1.3-0.3,2.7-0.4,4-0.3c1.8,0.2,4.6-0.4,4.2,2.7c-0.3,2.8-2.4,1.9-4.2,1.5c-1.5-0.3-3.3-0.2-3.8,1.5c-0.5,1.8,1.1,2.5,2.5,3.1
		c0.3,0.1,0.6,0.2,0.9,0.4c3.6,1.5,6.8,3.6,5.8,8.1C271.6-26.3,267.9-25.2,263.2-25.1z"/>
	<path class="st0" d="M280.3-34.5c0-1.5-0.1-3,0-4.5c0.1-2.5,0-4.8-3.5-4.3c-1.6,0.2-2.5-0.5-2.5-2.3c0-1.7,0.9-2.3,2.5-2.3
		c4.1,0,8.3,0,12.4,0c1.2,0,2.4,0.2,2.5,1.8c0.1,1.5-0.5,2.8-2.1,2.7c-4.1-0.3-4,2.3-3.9,5.1c0.1,3.3,0,6.6,0,9.9
		c0,1.9-0.6,3.1-2.8,3.1c-2.4,0-2.6-1.5-2.6-3.3C280.3-30.5,280.3-32.5,280.3-34.5z"/>
	<path class="st0" d="M303.2-86.6c0.1-8.6,6.7-14.8,15.5-14.6c8.6,0.2,14.7,6.8,14.6,15.6c-0.2,8-7.1,14.7-15.2,14.6
		C309.7-71.2,303.1-78.1,303.2-86.6z M318.6-95.2c-5.3-0.2-9.3,3.5-9.4,8.8c-0.1,4.8,3.8,8.9,8.7,9.2c5.1,0.2,9.4-3.8,9.4-8.9
		C327.3-91.3,323.7-95.1,318.6-95.2z"/>
</g>
<g>
	<path class="st0" d="M-89.3-103.7c0,4.2,0,8.3,0,12.5c0.1,5.5-2.1,9.8-7,12.3c-2.4,1.2-2.8,2.7-2.9,5.1
		c-0.7,19.8,2.4,38.8,10.4,56.9c1,2.3,2.4,5-0.7,6.5c-3.3,1.6-4.7-1-5.8-3.6c-8.1-18.6-11.7-38.1-10.9-58.3c0.1-3.2-0.1-5.4-3.7-7
		c-4.3-1.8-6.1-6-6.3-10.6c-0.2-6.5,0-13-0.1-19.5c0-2.5,0.9-4.5,3.5-4.6c3.1-0.1,3.7,2.2,3.7,4.8c0,5.5,0,11,0,16.5
		c0,5.6,2.2,8.4,6.3,8.5c4.2,0.1,6.4-2.8,6.4-8.3c0-6.8,0.2-13.7-0.1-20.5c-0.3-7.8,1.1-15,6-21.1c9.7-12,10.9-26.9,14-41
		c1.2-5.4,2-10.8,3.3-16.1c0.7-3-0.1-3.8-3-3.7c-4.2,0.2-8.3,0.1-12.5,0.2c-7.6,0.1-14.8-1.4-21.8-4.5c-11.7-5.2-23.5-5.6-35.3-0.2
		c-9.5,4.3-19.6,5.1-29.8,4.4c-4.3-0.3-5.9,0.5-4.7,5.3c3,12.4,5.4,25,8.1,37.5c1.2,5.5,3.8,10.3,7.2,14.7c6.1,8,8.9,16.9,8.3,27
		c-0.3,6.3-0.1,12.7,0,19c0.1,4.8,2.4,7.3,6.3,7.2c4-0.1,6-2.5,6.1-7.5c0.1-5.7,0.1-11.3,0-17c0-2.8,0.7-5.3,3.9-5.2
		c3.1,0,3.3,2.6,3.3,5.1c0,6.2,0,12.3,0,18.5c0,5.1-2.2,9.3-6.8,11.4c-3.2,1.5-3.4,3.5-3.2,6.3c0.9,19.7-2.4,38.8-10.1,57
		c-0.5,1.2-1,2.5-1.6,3.6c-1,2-2.6,2.6-4.6,1.9c-2.2-0.7-2.5-2.7-1.8-4.5c1-3,2.3-5.9,3.4-8.8c6.2-16.6,8-33.9,7.6-51.5
		c0-1.7-0.5-2.5-2.1-3.4c-5.4-2.8-7.6-7.6-7.6-13.6c0-6.2-0.3-12.3,0.1-18.5c0.6-8.4-1.6-15.8-6.6-22.4c-1.6-2.1-2.9-4.5-4.3-6.7
		c-2.1-3.3-7.5-3.9-9.7-0.7c-5.3,7.9-12.6,9-21.1,7c-3.2-0.8-6.4-1.8-9.6-2.7c-17.4-4.8-29.2-22.2-26.8-39.4
		c2.7-19.3,17.8-32.8,36.6-32.9c4.4,0,8.5,1.2,12.6,2.8c14.3,5.7,28.9,5,42.7-0.4c15-5.9,29.4-6.1,44,0.5c4,1.8,8.2,3.1,12.5,3.1
		c11.8,0,23.5,1.2,35.3-3.4c18.4-7.1,39.2,5.5,44.5,25.2c5.3,19.9-7.3,41-27.2,45.2c-1.9,0.4-3.9,0.8-5.8,1.5
		c-9.4,3.2-15.7,1.5-22.2-6.1c-2.7-3.2-7.5-2.9-9.6,0.7c-0.3,0.6-0.6,1.2-1,1.7C-87.6-127.7-91.7-116.7-89.3-103.7z M-218.7-172
		c0,7.9,5.2,12.2,12.8,10.7c8.9-1.7,16.7,1.8,21.4,9.9c0.8,1.3,1.2,2.2,2.9,1.8c1.9-0.5,1.5-1.9,1.3-3.2c-0.9-6.1-1.9-12.1-2.7-18.2
		c-0.2-1.6-0.8-2.7-2.2-3.6c-5.3-3.4-10.7-6.7-16.6-9C-210.1-186.9-218.7-181-218.7-172z M-36.3-171c0.1-9.2-8.6-15.3-17.1-11.8
		c-2.8,1.1-5.3,2.7-8.1,3.9c-7,3-11.9,7.3-11.4,15.9c0.2,3.6-1,7.2-1.4,10.8c-0.1,1.1-1.2,2.7,1,3.1c1.5,0.3,2.2-0.2,3.1-1.6
		c5.5-8.9,13.3-12.2,23.3-9.3c3.3,1,5-0.1,6.9-2C-37.6-164.6-36.2-167.5-36.3-171z"/>
	<path class="st0" d="M-120.8-163.4c5.8,1.6,11.1,2.9,16.4,4.4c5.2,1.5,5.7,3.4,1.9,7c-11,10.2-22,20.4-32.9,30.6
		c-1.6,1.5-3.2,3.5-5.5,1.3c-2.1-2-0.7-3.9,0.6-5.7c3.9-5.8,7.6-11.7,11.7-17.4c2.1-2.9,1.2-3.7-1.7-4.6c-5.6-1.7-11-3.6-16.6-5.4
		c-1.7-0.6-3.7-1-4.2-3.1c-0.5-2.5,1.7-3.4,3.3-4.4c10.9-7.3,21.9-14.5,32.8-21.8c1.9-1.3,4.1-3.3,6.2-1.2c2.4,2.4,0,4.6-1.5,6.5
		C-113.7-172.7-117.1-168.2-120.8-163.4z"/>
</g>
<g>
	<path class="st0" d="M493.8,361.9c-1.8,0-3.3,0-4.8,0c-60.5,0-121,0-181.5,0c-13.8,0-20.7-6.9-20.7-20.7c0-90.1,0-180.1,0-270.2
		c0-13.5,7-20.5,20.6-20.5c98.1,0,196.1,0,294.2,0c13.7,0,20.6,6.9,20.6,20.8c0,64.7,0,129.5-0.1,194.2c0,2.6,0.8,4.2,2.9,5.9
		c27.7,22.5,38.9,51.5,30.5,86.1c-8.3,34.5-31.3,55.9-66.3,62.8c-40.9,7.9-80.9-16-94.3-55.3C494.6,364,494.2,363.1,493.8,361.9z
		 M586.2,254.9c0-1.7,0-3.1,0-4.4c0-45.8,0-91.5,0.1-137.3c0-2.7,0.8-5.7,2.1-8.1c6.6-11.9,13.4-23.6,20.1-35.4c1.8-3.2,0.6-6.1-3-7
		c-1.3-0.3-2.7-0.2-4.1-0.2c-97.9,0-195.8,0-293.7,0c-1,0-2-0.1-3,0c-4.7,0.4-6.4,3.6-4,7.7c6.7,11.7,13.4,23.3,19.9,35.1
		c1.2,2.2,2,4.9,2,7.4c0.1,62.4,0.1,124.7,0,187.1c0,2.5-0.8,5.2-2,7.4c-6.6,11.9-13.4,23.6-20.1,35.4c-2.1,3.7-0.5,6.8,3.7,7.4
		c1.1,0.1,2.2,0.1,3.4,0.1c59.7,0,119.5,0,179.2,0c1.3,0,2.7,0,4.4,0c-3.2-27.6,4-51.5,23.4-71.1
		C534.2,259.2,558.2,251.7,586.2,254.9z M502.4,338.1c-0.1,39.4,32.2,71.7,72,71.7c39.1,0.1,71.6-32.1,71.7-71.2
		c0.2-39.6-31.8-72.3-70.9-72.5C534.8,265.9,502.5,297.8,502.4,338.1z M298.9,319.9c0.2,0,0.4,0.1,0.6,0.1
		c3.3-5.7,6.6-11.4,9.8-17.2c0.8-1.6,1.4-3.5,1.4-5.3c0.1-60.9,0.1-121.8,0-182.6c0-1.1,0.2-2.4-0.3-3.3
		c-3.6-6.5-7.3-12.9-10.9-19.3c-0.2,0.1-0.4,0.2-0.6,0.3C298.9,168.3,298.9,244.1,298.9,319.9z M609.8,261.9c0-56.8,0-113.1,0-170.3
		c-3.7,6.4-7,12-10,17.7c-0.9,1.8-1.5,4-1.6,5.9c-0.1,46.3-0.1,92.5-0.1,138.8c0,1.2,0,2.4,0,3.5C602.3,259.1,606,260.5,609.8,261.9
		z"/>
	<path class="st0" d="M454.4,86.1c52.1,0.3,95.3,42.5,95.9,94.1c0.1,5.3-0.9,6.7-6,8.5c-28.7,9.6-57.4,19.2-86.2,28.6
		c-2.2,0.7-5,0.7-7.2,0c-28.6-9.4-57.2-19-85.8-28.5c-5.7-1.9-6.5-3.1-6.4-9.2c0.7-44.7,35.1-84.5,79.4-91.6
		C443.4,87.1,448.9,86.7,454.4,86.1z M472.6,199.2c0.7,0.2,0.8,0.3,0.9,0.3c20.9-6.9,41.8-13.8,62.7-20.9c0.9-0.3,1.9-2.2,1.7-3.3
		c-0.7-5.3-1.4-10.7-2.9-15.8c-1.8-6.1-4.5-11.9-6.8-17.8c-0.5-0.1-1.1-0.2-1.6-0.3c-2.5,3.1-5.1,6.1-7.2,8.7c-3.2-3-6-5.6-9.4-8.7
		c3.6-3.2,7.2-6.4,11-9.9c-15.8-19.7-35.7-30.4-60.7-32.8c0,6.1,0,11.8,0,17.4c-4.2,0-8,0-12,0c0-5.9,0-11.4,0-17.4
		c-24.9,2.4-44.7,13.1-60.8,33.2c3.9,3.5,7.5,6.8,10.8,9.9c-2.8,3-5.4,5.7-8.5,9.1c-2.8-3.2-5.5-6.2-8.4-9.5
		c-6.1,10.8-9.2,21.7-10.5,33.2c-0.3,2.6,0.4,3.7,2.9,4.5c25.2,8.3,50.4,16.6,75.5,25.1c2.5,0.8,3.8,0.3,5.3-1.6
		c10.9-13.8,21.9-27.5,32.9-41.2c0.7-0.8,1.2-1.7,2.2-3.1c-4,0-7.5,0-11,0c0-4.1,0-7.9,0-11.9c5.5,0,10.7,0,15.9,0
		c12.5,0,12.5-1.1,15.5,12.1c1.2,5.4,2.7,10.8,4.1,16.3c-4.1,1-7.7,1.9-11.5,2.9c-1.1-4-2.1-7.7-3.3-12
		C490.1,177.2,481.4,188.1,472.6,199.2z"/>
	<path class="st0" d="M556.3,319.3c0-7.4,0-14.9,0-22.4c0.1-10.8,7.8-18.9,18-18.9c10.2,0,17.9,8.1,17.9,19c0,7.5,0,14.9,0,22.9
		c7.2,0,14.3,0,21.3,0c2.4,0,4.8,0.1,7,0.6c8.7,2.1,14.3,10.2,13.5,19c-0.8,8.9-8.2,16-17.2,16.2c-8.1,0.2-16.2,0-24.6,0
		c0,8.3,0.1,16.2,0,24.2c-0.2,12.1-11.6,20.4-23.1,17c-7.4-2.2-12.6-9.1-12.7-17.1c-0.1-7.8,0-15.7,0-24.1c-6.6,0-13.1,0.1-19.5,0
		c-3,0-6,0-8.9-0.7c-8.8-2.1-14.5-10.5-13.4-19.4c1-8.7,8.4-15.6,17.2-15.8c8-0.2,16-0.1,23.9-0.2
		C555.7,319.9,555.8,319.7,556.3,319.3z M568.2,364.6c0,4.6,0,9.2,0,13.8c0,4.7,2.3,7.4,6.1,7.4c3.7-0.1,5.9-2.8,5.9-7.5
		c0-8.7,0-17.5,0-26.2c0-6.3,1.9-8.1,8.3-8.1c8.6,0,17.2,0,25.8,0c5,0,7.8-2.2,7.7-6.1c-0.1-3.8-2.8-5.9-7.9-5.9c-8.5,0-17,0-25.4,0
		c-6.8,0-8.5-1.8-8.5-8.7c0-8.5,0-17,0-25.4c0-5-2.2-7.8-6.1-7.7c-3.8,0.1-5.9,2.8-5.9,7.9c0,8.6,0,17.2,0,25.8
		c0,6.3-1.9,8.1-8.3,8.2c-8.6,0-17.2,0-25.8,0c-5,0-7.8,2.2-7.7,6.1c0.1,3.8,2.8,5.9,7.9,5.9c8.6,0,17.2,0,25.8,0
		c6.3,0,8.1,1.9,8.2,8.3C568.2,356.4,568.2,360.5,568.2,364.6z"/>
</g>
<g>
	<path class="st0" d="M679.4-73.4c-0.5,1.9-0.8,3.8-1.5,5.6c-3.2,8.1-11.4,13.5-20.6,12.6c-9.4-1-16.7-7.9-18-17
		c-1.7-11.5,6.3-22,17.8-23.2c10.9-1.2,20.9,6.8,22.1,17.6c0,0.2,0.1,0.4,0.2,0.6C679.4-76,679.4-74.7,679.4-73.4z M655.1-77.7
		c-1.1,0-2.1,0-3.1,0c-0.7,0-1.3,0.2-1.6,0.9c-0.3,0.7,0,1.3,0.4,1.8c2.3,2.7,4.7,5.4,7,8.1c1,1.2,1.8,1.2,2.9-0.1
		c2.3-2.7,4.5-5.4,6.8-8.1c0.5-0.6,0.7-1.1,0.5-1.8c-0.3-0.8-1-0.9-1.7-0.9c-1,0-1.9,0-3,0c0-1.7,0-3.3,0-4.9c0-1.1-0.3-1.4-1.4-1.4
		c-1.8,0-3.6,0-5.4,0c-1,0-1.4,0.3-1.4,1.4C655.1-81.1,655.1-79.5,655.1-77.7z"/>
	<path class="st0" d="M637.6-59.1c-0.5,0-0.9,0-1.2,0c-13.2,0-26.4,0-39.6,0c-6.3,0-10.7-4.4-10.7-10.7c0-20,0-39.9,0-59.9
		c0-6.1,4.4-10.5,10.5-10.5c5.2,0,10.4,0,15.7,0c0.5,0,1.1-0.2,1.6-0.5c5.7-4,12-5.4,18.8-4.7c4.9,0.4,9.4,2.1,13.4,5
		c0.3,0.2,0.7,0.3,1.1,0.3c5.2,0,10.4,0.1,15.6,0c5.7-0.1,9.7,4,10.4,8.4c0.1,0.7,0.2,1.4,0.2,2.1c0,10.1,0,20.2,0,30.2
		c0,0.3,0,0.6,0,1c-1-0.5-2-0.9-2.8-1.5c-0.2-0.1-0.3-0.6-0.3-1c0-9.6,0-19.1,0-28.7c0-3.1-1.3-5.4-4.1-6.7c-1-0.5-2.2-0.7-3.3-0.7
		c-5.4-0.1-10.9,0-16.3,0c-0.9,0-1.6-0.2-2.3-0.8c-3.5-2.8-7.6-4.2-12.1-4.6c-6-0.5-11.7,0.6-16.6,4.3c-1,0.8-2,1.1-3.3,1.1
		c-5.2,0-10.4,0-15.6,0c-4.6,0-7.6,3-7.6,7.6c0,19.8,0,39.7,0,59.5c0,5,2.9,7.8,7.9,7.8c12.5,0,24.9,0,37.4,0c0.9,0,1.4,0.2,1.8,1
		C636.5-60.5,637.1-59.9,637.6-59.1z"/>
	<path class="st0" d="M629.9-101.2c-9.7,0-17.6-7.9-17.6-17.7c0-9.6,8-17.5,17.6-17.5c9.8,0,17.7,8,17.6,17.7
		C647.5-109,639.6-101.2,629.9-101.2z M614.5-120c0.9,0,1.6,0,2.4,0c0.7,0,1.3,0.2,1.3,1.1c0,0.8-0.6,1.1-1.3,1.1
		c-0.8,0-1.6,0-2.4,0c0.3,3.5,1.5,6.5,3.8,9.1c0.5-0.5,1-1,1.4-1.5c0.5-0.5,1.1-0.7,1.7-0.2c0.6,0.5,0.4,1.2-0.1,1.7
		c-0.5,0.5-1,0.9-1.6,1.4c2.8,2.3,5.7,3.6,9.2,3.8c0-0.7,0-1.3,0-1.8c0-0.8,0.3-1.3,1.1-1.3c0.7,0,1,0.5,1,1.2c0,0.6,0,1.2,0,1.9
		c3.6-0.3,6.5-1.5,9.2-3.8c-0.6-0.5-1-1-1.5-1.4c-0.5-0.5-0.6-1.1-0.1-1.7c0.5-0.5,1.1-0.4,1.6,0.2c0.5,0.5,0.9,1,1.4,1.5
		c2.3-2.8,3.6-5.8,3.7-9.3c-0.8,0-1.4,0-2.1,0c-0.9,0-1.4-0.5-1.4-1.1c0.1-0.8,0.6-1.1,1.3-1c0.7,0,1.4,0,2.1,0
		c-0.3-3.5-1.6-6.4-4-9.1c-0.5,0.5-0.8,1-1.2,1.4c-0.5,0.5-1.1,0.7-1.7,0.1c-0.5-0.5-0.4-1.1,0.1-1.6c0.4-0.4,0.9-0.8,1.4-1.3
		c-2.7-2.2-5.6-3.4-9.1-3.7c0,0.8,0,1.6,0,2.3c0,0.7-0.3,1.3-1.1,1.3c-0.8,0-1.1-0.5-1.1-1.3c0-0.8,0-1.5,0-2.3
		c-3.4,0.3-6.4,1.5-9,3.8c0.6,0.5,1.1,1,1.6,1.5c0.5,0.5,0.7,1.1,0.1,1.7c-0.5,0.5-1.1,0.4-1.6-0.1c-0.5-0.5-0.9-1-1.4-1.6
		C616-126.4,614.8-123.4,614.5-120z"/>
	<path class="st0" d="M616.3-68.1c0-0.2-0.1-0.4-0.1-0.6c0-1,0-2.1,0-3.1c5.4,0,10.7,0,16.1,0c0.2,1.2,0.5,2.5,0.8,3.8
		C627.5-68.1,621.9-68.1,616.3-68.1z"/>
	<path class="st0" d="M664.6-128c0,1.6-1.3,3-2.9,3c-1.6,0-2.9-1.3-2.9-3c0-1.6,1.3-2.9,2.9-2.9C663.3-131,664.6-129.7,664.6-128z"
		/>
	<path class="st0" d="M600.6-128c0,1.6-1.4,3-3,2.9c-1.6,0-2.9-1.4-2.9-3c0-1.6,1.4-2.9,2.9-2.9C599.3-130.9,600.6-129.6,600.6-128z
		"/>
	<path class="st0" d="M600.6-70.1c0,1.6-1.3,3-2.9,3c-1.6,0-3-1.3-3-2.9c0-1.6,1.3-2.9,2.9-2.9C599.2-73,600.6-71.7,600.6-70.1z"/>
	<path class="st0" d="M629.9-116.6c-0.4-0.3-0.9-0.5-1.1-0.9c-0.2-0.4-0.2-1.1,0.1-1.4c1.9-2.2,3.8-4.4,5.7-6.6
		c0.5-0.6,1.2-0.5,1.8,0c0.6,0.5,0.7,1.2,0.2,1.8c-1.9,2.2-3.8,4.4-5.7,6.5C630.7-116.9,630.4-116.8,629.9-116.6z"/>
</g>
<g>
	<path class="st0" d="M999.4,88.7c0.5,5.4-0.7,10.5-3.7,15.1c-1.2,1.9-0.9,3.5-0.7,5.6c1.6,12.7,0.3,24.8-10.4,33.6
		c-8.7,7.1-18.7,5.3-24.9-4c-8.4-12.5-5.5-34.2,5.9-44c7.2-6.2,16.1-5.9,22.9,0.6c0.8,0.7,1.2,2.3,2.7,1.7c1.1-0.5,1.3-1.8,1.5-3
		c1.4-12.9-0.2-20.5-13.6-26c-17-6.9-34.1-8.3-51.1,0.3c-4,2-8.4,3.2-12.5,5.1c-12.6,6-24.6,3.1-36.5-2.2
		c-6.2-2.8-12.4-5.7-19.1-7.2c-16.3-3.7-31.5-0.8-45.8,7.8c-8,4.8-8,16.5-6.5,23c0.6,2.5,2,2.1,3.6,0.7c3.1-2.5,6.1-4.9,10.5-5.3
		c7.4-0.6,12.4,3.3,16.6,8.5c7.7,9.6,9,27.6,2.9,38.3c-7.5,13.1-23,13.2-31.1,0.3c-5.6-8.9-6.8-18.6-5.1-28.8c0.3-2,0-3.4-0.8-5.1
		c-8.3-16.6-4.4-35.2,15.9-42.6c8.5-3.1,17.3-5.5,26.3-5.2c13.5,0.4,25.9-3.4,38.3-7.9c10.2-3.7,20.5-3.7,30.7,0.1
		c12.4,4.5,24.8,8,38.3,7.9c11.1-0.1,22,2.6,32.1,8.1C995.5,69.5,1000.2,77.5,999.4,88.7z M989.2,119.7c0.1-8.4-1.2-13.2-3.9-17.4
		c-3.4-5.2-8.2-6.4-13.7-3.5c-11.8,6.4-13.8,32.1-3.2,40.1c3.7,2.8,8.4,2.5,12.3-0.9C986.7,132.5,988.8,125.4,989.2,119.7z
		 M810.5,117.1c0.4,7.7,2.4,14.8,8.1,20.3c5.4,5.3,11.9,4.4,16-1.9c6.4-9.9,4.6-26.6-3.8-34.8c-5.1-5-12.4-4.3-16.2,1.7
		C811.7,106.8,810.2,111.7,810.5,117.1z M870.8,60.5c18.3,12.7,39.2,12.8,58,0C909.4,49.2,889.9,50,870.8,60.5z"/>
	<path class="st0" d="M876.7,143.1c-1.7,13.5,0.9,25.4,3.5,37.2c0.8,3.6,1.1,7.2,1,10.9c-0.1,2.2-0.9,3.4-3.3,3.5
		c-2.3,0-3.2-1.3-3.4-3.4c-1.9-18.1-6.9-35.9-4.9-54.4c0.5-4.6-2.4-8.2-4.8-11.8c-6.4-9.6-12.4-19.3-14.9-30.7
		c-1.4-6.3-2.5-12.7-2.1-19.3c0.1-2.5,0.3-5.1,3.3-5.2c3.3-0.1,3.4,2.5,3.3,5c-0.7,16,4.8,30,13.7,42.9c7,10.1,13.8,20.4,20.8,30.5
		c1.6,2.3,2.4,4.6,2.4,7.4c-0.1,11.2,0,22.3-0.1,33.5c0,2.5,0.3,5.5-3.4,5.5c-3.7,0-3.3-3.1-3.3-5.5c0-9.7-0.4-19.3,0.1-29
		C885,153.2,881,148.9,876.7,143.1z"/>
	<path class="st0" d="M922.3,142.2c-4.6,5.7-8.5,10.2-8.1,17.4c0.6,9.9,0.2,20,0.2,30c0,2.3,0.3,5-3.2,5c-3.3,0-3.4-2.6-3.4-5
		c0-12,0-24,0-36c0-2.3,1-4.1,2.3-5.9c7.8-11.2,15.9-22.2,23.4-33.5c7.6-11.3,11.8-23.8,11.4-37.6c0-0.5-0.1-1,0-1.5
		c0.3-2.3,0-5.3,3.3-5.2c3,0,3.4,2.6,3.4,5.1c0.2,13.1-2.7,25.4-9,36.9c-1.1,2-2,4.3-3.5,6c-9,9.9-10.7,21.6-9.5,34.4
		c0.9,10.4-2.1,20.4-4.2,30.5c-0.5,2.6-0.9,5.2-0.8,7.9c0.1,2-0.4,3.7-2.8,3.8c-2.7,0.1-3.3-1.7-3.4-3.9c-0.5-6.9,1.6-13.5,2.9-20.2
		C922.7,161.5,923.9,152.5,922.3,142.2z"/>
	<path class="st0" d="M878.2,107.5c-6.7-0.4-10.2-3.5-9.8-8.5c0.6-6.8,7.2-13.7,12.7-12.6c3.2,0.6,6.5,1.1,9.3,3.2
		c3,2.3,4.1,8.2,2,11.2c-0.9,1.4-2.3,2-3.9,1.5c-2.1-0.6-2.4-2.5-2.7-4.3c-0.2-1.2,1.7-3.3-1.1-3.3c-2.1,0-4.6-2.1-6.4,0.4
		c-1.2,1.7-3.6,3.6,0.8,4.7c2.4,0.6,4.6,2.5,3.9,5.5C882.5,108,880.2,107.9,878.2,107.5z"/>
	<path class="st0" d="M904.3,122.6c-2.7,0.1-4.4-1.4-5.5-3.6c-1-2.2-0.2-4.4,2.1-4.5c3.6-0.2,7.3,0.1,10,3.3
		c2.5,2.9,1.8,5.6,0.9,9.2c-2.9,10.5-14.8,9.7-21.1,5.4c-3.5-2.4-4.2-8.1-1.9-11.7c0.8-1.3,2-1.7,3.4-1.5c2.1,0.3,3.1,2.3,2.8,3.6
		c-1.3,5.2,3,4.7,5.3,5c3,0.5,4.1-2.1,4.2-4.9c0.4-0.2,0.8-0.4,0.2-0.8C904.8,122,904.5,122.4,904.3,122.6z"/>
	<path class="st0" d="M920.2,82.8c2.8,0.8,6.5,1.8,10,3.1c2.1,0.8,3.4,2.7,3.9,4.9c1.2,5.3-1.2,9.8-4.3,13.7
		c-1.8,2.3-5.2,2.3-7.6,0.2c-1.4-1.2-1.2-4.1,0.1-4.3c3.9-0.6,2.6-4.2,4.2-6c1.6-1.8,0.6-1.9-1.4-2.6c-4.5-1.5-8.2,0.4-12,2
		c-2,0.9-3.5,0.5-4.7-1.3c-1.3-1.9,0-3.6,1.2-4.3C912.9,86.2,914.9,82.3,920.2,82.8z"/>
	<path class="st0" d="M904.3,122.6c0.2-0.2,0.5-0.5,0.5-0.5c0.6,0.4,0.2,0.6-0.2,0.8C904.6,122.9,904.3,122.6,904.3,122.6z"/>
</g>
<g>
	<path class="st0" d="M625.4-398.7c0.3,0.3,0.7,0.5,1,0.8c-0.3,0.1-0.7,0.1-1,0.2C625.4-398,625.4-398.4,625.4-398.7z"/>
	<path class="st0" d="M599.4-479c1.1-3.3,2-6.6,3.3-9.8c8.2-19.5,26-28.2,48.5-22.5c10.3,2.6,20.5,6.8,30,11.7
		c26.7,13.7,54.6,24.2,83.2,33.7c5.2-8.8,11.8-15.9,20.4-21c8.9-5.3,18.5-8.1,28.9-8.1c25.5,0,50.9,0.4,76.3-0.1
		c23.9-0.5,42.2,8.5,55.4,29.4c11.7-4.2,23.7-8,35.3-12.8c17.4-7.3,34.4-15.8,51.8-23.1c10-4.2,20.4-8.4,31-10.4
		c36.3-6.6,53.7,29.6,44.2,53.6c-3.8,9.7-9.9,17.6-17.6,24.4c-1.2,1-2.6,3.1-2.4,4.3c3.4,15.7-2.1,28.8-12.9,39.5
		c-17.7,17.5-38.9,25.4-63.7,19.1c-22.7-5.7-33-27.6-23-48.8c9.6-20.2,26.9-30.7,48.2-34.8c15.5-3,30.1-0.5,42.5,10
		c14-9.1,20-25.8,13.9-38.9c-5-10.9-14.6-16.3-27-13.6c-9.1,2-18.4,4.9-26.7,9.2c-26.9,13.9-55,24.9-83.7,34.7
		c-1.2,0.4-2.4,0.9-4.2,1.6c0.6,1.8,1.1,3.5,1.8,5.1c4.6,12.1,9,24.3,13.7,36.3c5.9,15.1,5.7,29.9-0.5,45.1
		c-14.9,36.6-29.3,73.4-43.8,110.2c-9.5,24.1-13.8,49.2-13.9,75c0,11.6,0.6,23.5-1.5,34.8c-5.2,28-29.9,46.2-57.4,43.7
		c-26.7-2.4-47.6-25.6-48.5-53.9c-0.4-13.8-0.2-27.6-0.9-41.4c-1.2-23.5-7.8-45.7-16.5-67.4c-13.8-34.3-27.3-68.8-41.2-103.2
		c-5.3-13.1-5.6-26.2-0.8-39.4c5.3-14.8,11-29.5,16.8-44.9c-5.6-2-11-4-16.4-5.8c-24.2-8.4-47.7-18.3-70.5-30
		c-8.6-4.4-18.1-7.8-27.6-9.6c-20.1-4-34.9,14.4-28,33.7c2.8,7.7,7.9,13.7,14.5,18.9c12.7-10.8,27.4-13.1,43.1-10.2
		c16.2,3,30,10.6,40.7,23.3c5.9,7,10,15,10.7,24.2c1.6,18.5-10.3,33.4-29.6,37.1c-4.7,0.9-9.6,1-14.4,1.1c-5.8,0-9.1-3.1-8.9-7.8
		c0.2-4.5,3.5-6.8,9-7.2c5.4-0.4,11.1-0.7,16.1-2.4c11.5-3.9,15.9-14.5,11.2-25.8c-6.1-14.4-18-22.2-32.4-26.6
		c-8.6-2.6-17.3-3-26-0.1c-12.4,4.3-17.2,14.9-12.1,27c3,7.3,8.3,12.8,14.5,17.4c5.1,3.8,6.2,7.9,3.2,11.8
		c-2.8,3.6-7.2,3.9-11.9,0.4c-14.1-10.6-24.2-23.6-22.4-42.4c0.5-5.5-0.7-8.6-4.7-12c-9.3-7.9-14.6-18.3-17.4-30.1
		C599.4-471,599.4-475,599.4-479z M855-480.1c-13.6,0-27.3-0.2-40.9,0.1c-18.2,0.4-31.5,9.2-38.5,25.9
		c-7.1,17.2-13.3,34.7-19.7,52.1c-3.5,9.6-3.2,19.1,0.6,28.7c14.2,35.3,28.1,70.6,42.3,105.9c8.9,22.2,15.2,45,16.5,69
		c0.8,13.9,0.6,27.9,0.9,41.9c0.5,22.2,17.2,39.7,38.2,40.2c20.3,0.5,37.7-16.3,39.2-38.1c0.6-8.8,0.3-17.6,0.3-26.4
		c0-27.4,4.7-53.9,14.7-79.4c14.7-37.5,29.6-75,44.7-112.4c4.1-10.1,4.3-20,0.6-30.1c-6.3-17-12.6-33.9-19.2-50.8
		c-6.4-16.4-21.5-26.5-39.2-26.5C881.9-480.1,868.5-480.1,855-480.1z M1024.1-383.7c21.8-2.2,38.3-9.3,47.4-27.9
		c6-12.3,0.8-23.3-12.1-27.6c-9.9-3.3-19.8-2.3-29.3,1.3c-13.9,5.2-25.2,13.4-29.8,28.4c-2.7,8.7,0.6,17.1,8.7,21.1
		C1014.3-385.9,1020.2-384.8,1024.1-383.7z"/>
	<path class="st0" d="M791-378c0.2-22.5,3.5-38.8,10.1-54.5c4.7-11.2,13.7-17.5,25.8-16.6c18.8,1.5,37.5,1.4,56.3,0
		c12-0.9,21.1,5.4,25.7,16.6c12.1,29.3,13.2,59,3.7,89.2c-1.8,5.7-3.7,11.4-5.6,17c-1.8,5.2-5.4,7.3-9.8,5.9
		c-4.2-1.3-5.7-5.4-4.3-10.6c3.6-13.6,8.1-27.1,10.3-40.9c3-18.9-0.6-37.4-8.1-55c-2.3-5.5-5.6-7.5-11.7-7.3
		c-13.8,0.3-27.6,0.9-41.3,1c-5,0.1-9.9-0.8-14.9-1c-6.6-0.3-9.7,1.7-12.3,7.9c-10.5,25.6-11.3,51.6-3.2,78
		c8,26,16.4,51.9,23.2,78.2c6.3,24.4,8.1,49.5,8.3,74.7c0.1,8.6,4.7,12.8,13.2,12.2c7-0.5,10.6-4.5,10.6-12.4
		c0.2-34.6,5.1-68.5,15-101.7c0.8-2.6,2.7-5.6,5-6.8c1.8-1,5.9-0.4,7.2,1.1c1.7,2,2.9,5.8,2.3,8.4c-2.1,10.6-5.3,20.9-7.5,31.5
		c-4.8,22.3-6.9,45-7,67.8c0,6.2-1.4,11.9-5.1,16.9c-6.6,8.9-19,12.6-30.6,9.1c-10.4-3.1-18.1-12.2-18.1-23.2
		c0.3-47.9-10.5-93.5-26.5-138.2C795.5-347.7,790.6-365.1,791-378z"/>
</g>
<g>
	<path class="st0" d="M1301.8-131.9c8.1,16.8,16.8,33.3,19.5,52.1c3.1,21.4-3.3,40.5-15,58.1c-1.5,2.3-3.6,3.1-6,1.6
		c-2.2-1.4-2.1-3.7-0.8-5.7c3.9-6.2,7.4-12.6,10.1-19.5c2.1-5.5,3.2-11.2,4-17c0.3-2.2,0.1-3.5-2.8-3.2
		c-16.1,1.6-31.5,5.2-45.1,14.6c-4.4,3-7.2,6.4-6.5,12.3c0.6,4.8,0.1,9.6,0.1,14.5c0,2.6-1,4.7-4,4.7c-3,0-3.9-2.1-4-4.7
		c0-5.5-0.3-11,0-16.5c0.2-3.8-1.3-6.4-4.1-8.5c-14.2-10.8-30.7-14.8-48-16.3c-3.3-0.3-2.4,2.1-2.2,3.7c1.2,11.3,5.3,21.6,11.1,31.3
		c0.9,1.6,1.9,3.1,2.8,4.7c1.2,2.1,1.4,4.3-0.8,5.7c-2.3,1.4-4.4,0.8-6-1.6c-3.1-4.6-5.7-9.4-8.1-14.3c-11.3-23.7-9.2-47.2,0.9-70.6
		c3.6-8.2,7.5-16.3,11.3-24.4c3,3.6,2.9,7.9,2.7,12.3c-3.4,8.3-7.4,16.4-10.2,24.9c-1.1,3.4-0.9,5,3.1,5.8
		c34.2,7.4,68.4,7.4,102.6,0c3.6-0.8,4.5-1.9,3.3-5.7c-3-8.8-7.2-17.2-10.5-25.9C1298.8-123.9,1299.2-128.1,1301.8-131.9z
		 M1255.4-53c0.9-0.7,1.6-1.2,2.4-1.9c6.4-5.4,13.7-9.4,21.6-12.1c9.9-3.5,20.2-5.6,30.6-6.6c3-0.3,4-1.5,3.4-4.5
		c-0.6-3-2.1-3.2-4.7-2.4c-3,0.9-6.1,1.4-9.2,2c-33,6-65.9,5.5-98.5-2.2c-2.4-0.6-3.2,0.2-3.9,2.4c-1.2,3.9,0.9,4.5,4,4.9
		c19,2.3,37.4,6.3,52.5,19.3C1254.1-53.7,1254.7-53.4,1255.4-53z"/>
	<path class="st0" d="M1301.8-131.9c-2.6,3.8-3,8-2.5,12.4c-3.5,2.2-3,6.1-3.6,9.3c-0.8,4.5-2.6,4.6-5.9,2.7c-3.9-2.2-8-4-11.9-6.2
		c-2.9-1.7-4.5-0.9-5.6,2.1c-1.9,5.3-4,10.5-6,15.7c-5.4-1.2-2.1-5.7-3.3-8.5c0-1.1,0-2.3,0-3.4c0.1-7.3,0.1-14.5,0.2-21.8
		c0-2.4-0.4-5.1,2.3-6.6c4.3,3,8.7,6,12.9,9.1c2.9,2.1,3.9,1.2,4.4-2c1.2-7.1,0.6-14.5,2.8-21.5c3.9-0.1,7.1,1.7,10.4,3.5
		c0.8,0.8,1.5,1.8,2.5,2.3c3.5,1.6,4.3,4.1,3,7.6C1300.9-135.4,1301.4-133.7,1301.8-131.9z"/>
	<path class="st0" d="M1241.3-105.1c-0.3-1.1-0.6-2.1-0.9-3.2c0-2.8-0.2-6.7-3.3-6.3c-3.6,0.4-8.2,0.5-10.4,4.9
		c-0.9,0.5-1.8,1-2.7,1.5c-3.9,0.8-8.5,3.8-9.9-3.4c-1.3-6.6-2.6-13.2-4.6-19.5c-2.7-8.7,0.2-14.5,7.8-19c4.3-2.5,7.4-1.3,8.1,3.6
		c0.4,2.6-1.2,5.4,1,7.7c0.2,1.2,0.4,2.4,0.6,3.6c-1.1,2-0.3,4.1-0.4,6.2c-0.1,1.9,0.7,3.8,2.5,4.2c1.8,0.3,3.8-0.4,4.3-2.8
		c0.7-0.4,1.3-0.9,2-1.3c1.5,0.3,2.3-0.3,2.4-1.9c1.2-0.8,2.4-1.7,3.6-2.5c0.7,0,1.5,0.3,2.1,0.1c5.8-2.3,5.9-2.3,5.9,4.2
		c0,8.7,0,17.4,0,26.1c0,2.9-0.1,5.9-2.4,8.5c-2.3-2.6-0.4-7.2-4.6-8.2C1241.8-103.5,1241.5-104.4,1241.3-105.1
		C1241.2-105.2,1241.3-105.1,1241.3-105.1z"/>
	<path class="st0" d="M1296.1-147.1c-3.2-1.8-6.5-3.5-10.4-3.5c0.9-2,0.9-4.1,0.7-6.3c-0.9-8.3,0.5-16.2,4-23.7
		c1.1-2.5,2.8-4.4,5.7-3.4c3.2,1.2,2.9,4,1.7,6.3C1293-167.7,1293.7-157.4,1296.1-147.1z"/>
	<path class="st0" d="M1215.2-149.1c1.8-10,2-19.7-2.6-29.1c-1.1-2.2-0.8-4.8,2.1-5.7c2.7-0.9,4.3,0.6,5.4,3
		c4.1,9,5.7,18.3,3.6,28.1C1221.4-150.6,1218.2-150.1,1215.2-149.1z"/>
	<path class="st0" d="M1240.2-106.6C1240.2-106.6,1240.2-106.7,1240.2-106.6C1240.2-106.7,1240.2-106.6,1240.2-106.6z"/>
</g>
<g>
	<path class="st0" d="M1165.1-329.6c0.8-5.7,2.9-11.1,8.2-15.9c-4.5,0.5-6.5-1.6-7.9-4.5c-1.4-3-1.9-6-1.2-9.2
		c1.4-6.8,5.2-12.1,11.2-15.2c18.5-9.4,36.9-8.6,54.9,1.4c8.9,5,12.8,13.5,13.1,23.3c0.3,9.8,1.7,18.9,6.1,27.9
		c5.8,11.8,5.4,24.9,5.2,37.7c-0.1,4.7-2.6,8.6-6.4,11.3c-2.5,1.8-3.5,4-3.9,7.1c-1.3,10-5,19.7-4.8,30c0,1.5-0.9,2.6-2.4,2.7
		c-1.9,0.1-2.6-1.3-2.7-3c-0.3-4.2,0.6-8.3,1.3-12.4c0.7-4.3,1.5-8.5,2.6-12.7c2.7-10.8,2.4-21.4-1-32c-2.1-6.4-3.1-12.9-2.5-19.7
		c0.5-6.1-1-11.4-5.9-15.7c-5.7-5-7.7-11.5-6.4-19c0.4-2.1,0.8-4.2,1.2-6.4c0.2-1.3,1-2.9-0.4-3.6c-1.7-0.9-2.1,1.1-2.9,2
		c-3,3.8-4.4,8.2-4.8,12.9c-0.3,3.5-0.5,7-0.3,10.5c1.4,17.8-16.2,28.9-33.4,23.9c-1.9-0.6-3.8-1.3-5.5-2.4
		c-4.6-2.9-8.9-6.4-12.9-9.8c-5-4.2-7.5-10.9-8.9-17.4c-6-27.6,10.1-49.8,38.4-53.1c10.8-1.3,21.1,0.4,31.4,3.9
		c23.1,8,46.1,7,68.9-1.5c19.4-7.2,44.1-1.7,56.8,12.5c10.5,11.7,13,32.7,5.3,46.4c-3.1,5.6-6.5,11-9.9,16.5c-0.8,1.2-1.8,2.4-3,3.3
		c-4,3.1-23.3,5-27.8,2.6c-2-1.1-3.9-1.4-6.1-1.5c-6.6-0.1-11.3-4.6-11.7-11.2c-0.1-2.1-0.6-3.7-1.9-5.4c-3.5-4.6-3.2-9,0.6-13.7
		c3-3.7-0.1-16.9-4.5-18.6c-2.1-0.8-2.1,1-1.9,2.3c0.4,2.8,1.1,5.6,1.5,8.3c1.2,7.3-1,13.6-6.5,18.5c-4.4,3.9-6.3,8.7-5.9,14.2
		c0.6,8-0.6,15.6-3,23.1c-3.8,11.7-2.3,23.4,0.5,35c1.4,6,2.7,12,3,18.2c0.1,2,0.5,4.9-2.7,4.8c-2.9,0-2.4-2.6-2.4-4.6
		c-0.2-10.4-4-20.2-5.2-30.5c-0.3-2.3-2.5-3.5-4-4.9c-4.3-3.9-5.8-8.6-5.7-14.3c0.4-15.1,1.3-29.8,9-43.5c2.9-5.3,1.8-11.7,2.1-17.7
		c0.6-13.7,7.3-23.1,20.2-28.1c3.7-1.5,7.5-2.6,11.5-3.2c11.1-1.7,21.9-1.3,32.4,3.2c7.5,3.3,13.1,8.4,15.2,16.7
		c0.6,2.3,1.1,4.9,0,6.9c-2.2,4.1-1.7,7.7,0.1,11.7c0.7,1.6,0.9,3.6,2.8,3.6c2.2,0.1,2.1-2.2,2.4-3.7c3.4-18.4-5.5-34.4-22.9-41.2
		c-12.3-4.8-24.7-5.1-37.1-0.6c-25.3,9.1-50.4,8.8-75.8-0.1c-16.4-5.7-32.3-4.1-46.6,6.2c-13.8,10-17.9,31.3-9.4,45.9
		C1163.1-330.4,1163.6-329.8,1165.1-329.6z M1245.5-277.6c3-1.4,4.1-3.7,4.2-6.2c0.3-11.7,0.9-23.7-4.2-34.4
		c-5-10.5-6.9-21.3-7.3-32.7c-0.3-7.8-3.9-14.1-10.9-18c-15.4-8.7-31.4-9.1-47.5-2.2c-5.4,2.3-9.3,6.5-10.6,12.5
		c-1.1,4.7,0.4,7,5,8.3c2.3,0.6,4.5,1.4,5.4,4c0.9,2.8-1.5,3.7-3.1,5.1c-6.5,5.7-8,14.4-3.4,21.1c4.7,7,15,10.2,24.2,7.5
		c8.3-2.4,13.1-9,13.3-18.3c0-2.5,0-5,0-7.5c0-7,1.5-13.7,5.7-19.3c2.4-3.2,0.6-4.9-1.3-6.7c-0.9-0.9-2.4-1.2-3.5-1.9
		c-1.1-0.7-1.8-1.6-1.2-2.9c0.5-1.2,1.7-2,2.8-1.5c2.5,1,5.8,0.8,7,4.1c0.7,1.8,2.1,3.2,3.9,3.6c6.6,1.6,6.6,5.8,4.8,11
		c-3,8.7-1.5,16.2,5.8,22.4c3.2,2.7,5.6,6.7,5.1,11C1238.1-304.7,1244-291.8,1245.5-277.6z M1333.7-311.6c4.3-0.4,7.8-2,8.5-5.3
		c0.9-4.5,1.9-8.4,6.3-10.7c0.4-0.2,0.7-1.2,0.8-1.8c0.1-5.5-6.5-7.9-6.1-13.7c0.1-1.7-2.3-2.6-4.1-3.1c-0.5-0.1-1-0.3-1.5-0.3
		c-1.9,0-3.1-0.8-3.8-2.6c-0.5-1.3-1.5-3.1-2.5-2.8c-5.9,1.6-12.1-1.7-17.9,1c-1.4,0.6-2.6,1.2-4.2,1.3c-5.3,0.4-7.2,3.2-5.1,7.9
		c1.2,2.6,0.9,4.1-1.8,5c-2.1,0.7-4.5,2.3-3.7,4c2.7,5.8,2.1,13.7,6.8,17.5c4.1,3.4,11.1,4.7,16.6,4.2
		C1326.1-311.5,1330-314,1333.7-311.6z M1268.2-277.4c0.5-5.2,0.8-9.8,2.2-14c2.5-7.3,3.9-14.7,3.3-22.5c-0.6-7.1,1.7-12.9,7.1-17.8
		c4.8-4.3,6.9-9.7,4.9-16.2c-0.8-2.7-1.2-5.5-1.8-8.3c-0.3-1.5-0.9-3.6,0.5-4.2c4.9-2,8.3-5.6,12-9.1c0.9-0.8,2.4-1,3.7-1.3
		c1.5-0.3,2.8,0.2,3.2,1.6c0.4,1.3-0.5,2.1-1.5,2.8c-6.5,4.9-6.5,4.9-2.6,11.6c0.6,1,0.6,2.9,2.7,2c2-0.9,1.4-2.1,0.6-3.6
		c-0.9-1.8-3-4.1-0.2-5.6c3.2-1.7,3.7,1.8,4.7,3.6c1.3,2.2,2.2,3,5.3,2c6.4-2.1,13.2-0.7,19.8-0.6c1.8,0,3.4,1.5,4.4,3.1
		c1.4,2.2,3.4,3.8,5.7,2.7c2.3-1.1,2.4-3.8,2-6.2c-1-6.5-4.8-10.9-10.6-13.6c-10.8-5.2-22.1-5.9-33.6-3.2
		c-18.8,4.3-24.6,11.4-25.4,30.7c-0.2,5.3,0,10.9-2.6,15.6c-7.5,13.5-8.3,28.2-8.3,43.1C1264-281.9,1264.9-279.5,1268.2-277.4z"/>
	<path class="st0" d="M1285.8-395.5c0.1,0.9-0.1,1.7-0.9,2.1c-1.6,0.9-2.8,0.2-4.1-0.8c-9-6.4-19.2-8-29.9-6.9
		c-7.4,0.8-14.2,3.4-19.9,8.3c-1.5,1.3-3.1,3.3-5,1.1c-1.8-2.1,0.1-3.6,1.6-4.9c13.8-12.4,41.3-13.5,55.9-2.1
		C1284.5-397.7,1285.7-397.1,1285.8-395.5z"/>
	<path class="st0" d="M1191-345.8c-0.5,0-1,0-1.5,0c-1.8,0-4,0.2-4.2-2.4c-0.2-2.7,2-2.5,3.8-2.6c1.5-0.1,3,0,4.5-0.2
		c5.8-0.5,10.5-2.6,13.2-8.3c0.8-1.6,1.7-4.2,4.3-2.7c2.5,1.4,0.9,3.5,0,5.2C1207-348.5,1199.6-345.9,1191-345.8z"/>
</g>
</svg>
