<?xml version="1.0" encoding="utf-8"?>
<!-- Generator: Adobe Illustrator 24.3.0, SVG Export Plug-In . SVG Version: 6.00 Build 0)  -->
<svg version="1.1" id="Layer_1" xmlns="http://www.w3.org/2000/svg" xmlns:xlink="http://www.w3.org/1999/xlink" x="0px" y="0px"
	 viewBox="0 0 150 150" style="enable-background:new 0 0 150 150;" xml:space="preserve">
<style type="text/css">
	.st0{fill:#5F6368;}
	.st1{fill:#005BAB;}
</style>
<path class="st0" d="M2053.7-657.2c-2.1,0-3.6,0-5.1,0C2049.8-661.3,2051.5-660.2,2053.7-657.2z"/>
<g>
	<path class="st1" d="M494.5,461.9c3.5-3.6,6.9-7.2,10.5-10.7c1.3-1.3,2.9-1,4.4,0.5c4,4,8.1,8.1,12.1,12.1
		c6.8,6.8,13.6,13.6,20.3,20.3c0.4,0.4,0.6,0.8,1,1.3c0.7-0.6,1.1-1,1.5-1.4c8.2-8.2,16.4-16.3,24.5-24.5c6.3-6.4,13.6-8.6,22.3-6.9
		c12.8,2.4,25.7,4.5,38.5,6.7c0.7,0.1,1.4,0.1,2.2,0.1c6,0,11.9,0,17.9,0c2.9,0,4,1.1,4,3.9c0,14.2,0,28.4,0,42.6
		c0,2.8-1,3.9-3.8,3.9c-3.6,0-7.2,0.1-10.7,0c-7.8-0.3-15.5,0.8-23.2,1.7c-1.4,0.2-2.9,0.4-4.3,0.5c-3.8,0.3-7.3,1.4-10.5,3.4
		c-4.8,3-9.8,5.9-14.6,8.9c-4.1,2.6-8.3,3.2-12.8,0.9c-0.3-0.2-1.1,0-1.4,0.3c-1.9,1.8-3.7,3.7-5.5,5.5c-1.9,1.9-3.5,1.8-5.4,0
		c-4.4-4.4-8.9-8.9-13.3-13.3c-0.4-0.4-0.7-0.9-1.2-1.8c-1.6,1.8-2.8,3.3-4.2,4.6c-7,6.5-18.2,3.1-20.3-6.2c-0.9-4.1,0-7.9,2.9-11.1
		c1.3-1.4,2.8-2.6,4.5-4.2c-0.8-0.6-1.3-0.9-1.8-1.3c-10.5-10.5-21-21-31.5-31.6c-0.7-0.7-1.3-1.6-2-2.4
		C494.5,463.1,494.5,462.5,494.5,461.9z M627.2,484.6c0-6,0-11.9,0-17.9c0-1.1-0.3-1.6-1.5-1.8c-11.8-2-23.7-3.9-35.5-6.2
		c-7-1.3-12.6,0.5-17.5,5.6c-11.4,11.7-23,23.1-34.6,34.7c-2.7,2.7-5.5,5.4-8.1,8.2c-3.3,3.5-1.8,9,2.7,10.2
		c2.5,0.6,4.5-0.1,6.3-1.9c10.2-10.2,20.3-20.4,30.6-30.6c4.8-4.7,12.2-4.8,16.7-0.2c4.6,4.6,4.5,11.8-0.2,16.6
		c-1.4,1.4-2.8,2.8-4.2,4.2c-2.1,2.1-4.2,4.1-6.1,6.2c-2.7,2.8-1.7,7.1,1.8,8.4c1.7,0.6,3.3,0.3,4.9-0.7c5.2-3.2,10.4-6.4,15.6-9.6
		c3.2-2,6.6-3.3,10.3-3.8c5.7-0.7,11.4-1.3,17.1-1.9c1.3-0.1,1.7-0.6,1.7-1.9C627.2,496.4,627.2,490.5,627.2,484.6z M633.6,465.8
		c0,12.7,0,25.2,0,37.8c4.7,0,9.3,0,13.9,0c0-12.7,0-25.2,0-37.8C642.7,465.8,638.2,465.8,633.6,465.8z M568.8,510.7
		c1.3-1.5,2.5-3.1,3.9-4.5c2.9-3,6-6,9-9c2.4-2.4,2.5-5.8,0.3-8c-2.2-2.2-5.6-2.1-8,0.3c-3.6,3.5-7.1,7.1-10.7,10.6
		c-0.9,0.9-1.9,1.6-2.7,2.4C563.5,505.4,566.2,508.1,568.8,510.7z M538.3,489.9c-7.6-7.6-15.2-15.2-22.7-22.7c-1.4,1.4-3,3-4.4,4.3
		c7.6,7.6,15.2,15.2,22.7,22.7C535.4,492.8,537,491.3,538.3,489.9z M556.2,507.5c-1.5,1.5-3.1,3-4.5,4.4c4.2,4.2,8.4,8.4,12.5,12.5
		c1.5-1.4,3.1-2.9,4.6-4.3C564.6,515.9,560.4,511.7,556.2,507.5z M507.1,458.3c-1.6,1.6-3.2,3.2-4.7,4.7c1.2,1.3,2.6,2.7,3.7,3.9
		c1.7-1.5,3.3-3.1,4.8-4.5C509.7,461,508.3,459.6,507.1,458.3z"/>
	<path class="st1" d="M529.7,378.9c3.9,0,7.8,0,11.7,0c1.3,0,2.6,0.4,3,1.7c0.3,0.9,0.2,2.1-0.1,3.1c-0.5,1.2-1.7,1.5-3,1.5
		c-7.3,0-14.5,0-21.8,0c-0.5,0-1,0-1.6,0c-2.7,0.2-4.6,2.3-4.5,4.8c0.1,2.5,2,4.4,4.6,4.5c1.5,0.1,3,0,4.5,0.3
		c6.5,1.4,10.9,7.4,10.3,13.8c-0.6,6.9-5.9,11.9-12.8,12.2c-5.9,0.2-10.6,3.7-11.7,9.1c-0.5,2.4-0.3,4.8-0.4,7.3c-0.1,1.5,0,3,0,4.5
		c-0.1,1.7-1.3,3-3,3c-1.5,0.1-3.1-1-3.1-2.6c0-4.4-0.3-9,0.5-13.3c1.6-8.3,8.7-13.9,17.2-14.1c4.2-0.1,7.3-3.1,7.2-7
		c0-3.9-3-6.8-7.2-6.8c-3.5,0-6.6-0.7-9.1-3.2c-3.2-3.3-4.2-7.3-2.5-11.6c1.7-4.5,5.3-6.9,10.1-7
		C521.9,378.8,525.8,378.9,529.7,378.9C529.7,378.9,529.7,378.9,529.7,378.9z"/>
	<path class="st1" d="M566,400.9c3.6,1.6,7.1,3.1,10.7,4.7c1.2,0.5,2.2,1.4,2.1,2.8c-0.1,1-0.6,2.1-1.3,2.7
		c-0.9,0.9-2.2,0.6-3.3,0.1c-6.6-3-13.3-5.9-19.9-8.8c-0.5-0.2-0.9-0.4-1.4-0.6c-2.5-0.9-5.1,0.3-6.1,2.6c-0.9,2.3,0,4.8,2.4,6
		c1.3,0.7,2.8,1.3,4,2.1c5.4,3.9,7,11.2,3.9,16.8c-3.4,6.1-10.2,8.5-16.7,5.9c-5.5-2.2-11.2-0.9-14.4,3.6c-1.4,2-2.3,4.3-3.3,6.5
		c-0.7,1.4-1.2,2.8-1.9,4.1c-0.8,1.5-2.4,2.2-3.9,1.6c-1.4-0.6-2.4-2.2-1.8-3.7c1.8-4.1,3.3-8.3,5.8-12c4.8-7,13.6-9.2,21.4-6
		c3.9,1.6,7.9,0.1,9.4-3.5c1.5-3.6,0-7.4-3.8-9.1c-3.2-1.4-5.8-3.3-7-6.6c-1.6-4.3-0.9-8.3,2.4-11.6c3.4-3.4,7.6-4.2,12-2.4
		C558.9,397.7,562.4,399.3,566,400.9C565.9,400.9,565.9,400.9,566,400.9z"/>
	<path class="st1" d="M558.9,382c0,1.7-1.4,3.1-3,3.1c-1.7,0-3.1-1.3-3.2-3c-0.1-1.7,1.4-3.3,3.1-3.2
		C557.4,379,558.9,380.4,558.9,382z"/>
</g>
<g>
	<path class="st1" d="M63.7,37.3c0-0.8-0.1-1.3,0-1.9c0.1-1-0.3-1.5-1.3-1.8c-4.3-1.7-7-4.9-7.6-9.5c-0.2-1.9,0.1-4,0.7-5.8
		c2-5.8,5.3-11,8.7-16.1c1.3-1.9,3.9-1.9,5.1,0c3.4,5.1,6.7,10.3,8.7,16.1c2.2,6.1-0.4,12.3-6.2,15c-2.3,1.1-2.3,1.1-1.8,4
		c2.4,0,4.7,0,7.1,0c4.5,0,7.2,2.6,7.2,7.1c0,2.1,0,4.3,0,6.4c0,2.6-1.1,4.5-3.2,5.9c-0.5,0.3-0.9,1.1-0.9,1.6
		c-0.1,7.6,0,15.1,0,22.7c0,2.4,0.8,4.5,2.1,6.4c8.9,12.7,17.8,25.4,26.7,38.1c4.1,5.9,3.8,13.1-0.8,18.5c-2.9,3.4-6.7,5.1-11.1,5.1
		c-20.4,0.1-40.7,0.1-61.1,0c-5.9,0-10.5-2.8-13.1-8.2c-2.6-5.2-2.2-10.5,1.2-15.3C33.1,112.9,42,100.2,51,87.5
		c1.6-2.2,2.3-4.6,2.3-7.3c0-7.2,0-14.5,0-21.7c0-0.9-0.2-1.4-1-1.9c-2.1-1.2-3.1-3.2-3.1-5.6c0-2.3,0-4.7,0-7
		c0-3.8,2.7-6.5,6.5-6.6C58.3,37.3,60.9,37.3,63.7,37.3z M69.9,109.5c0,4.5,0,9.1,0,13.8c0,2.9-1.1,4.5-3.2,4.4c-2-0.1-3-1.5-3-4.4
		c0-4.7,0-9.4,0-14.1c0-0.5-0.4-1.5-0.8-1.5c-4.5-1-9-1.9-13.6-1c-2.2,0.4-4.7,0.8-6.1,2.8c-4.6,6.5-9.2,13.1-13.8,19.6
		c-2,2.9-2.3,5.9-0.7,9c1.6,3.2,4.3,4.7,7.9,4.7c20.1,0,40.3,0,60.4,0c3.5,0,6.2-1.5,7.8-4.6c1.7-3.2,1.4-6.3-0.7-9.2
		c-4.2-6.1-8.5-12.1-12.7-18.2c-0.5-0.7-1-0.9-1.8-0.8c-2.1,0.3-4.1,0.7-6.2,0.6C78.9,110.5,74.5,109.9,69.9,109.5z M86.7,104.3
		c-0.4-0.7-0.7-1.1-1.1-1.6c-2.7-3.9-5.5-7.9-8.3-11.8c-2.2-3.1-3.3-6.5-3.2-10.3c0-7,0-14.1,0-21.1c0-0.6,0-1.1,0-1.8
		c-1.5,0-2.8,0-4.2,0c0,0.7,0,1.3,0,2c0,9.5,0,19.1,0,28.6c0,4.4,0,8.8,0,13.3c0,0.7,0,1.3,1,1.5C76,104.1,81.1,104.9,86.7,104.3z
		 M63.6,101.2c0-14.3,0-28.8,0-43.4c-1.4,0-2.7,0-4.2,0c0,0.7,0,1.2,0,1.8c0,7,0,14,0,20.9c0,3.9-1,7.3-3.3,10.5
		c-1.7,2.3-3.2,4.6-4.9,6.9c-0.5,0.7-1,1.5-1.4,2.1C54.4,100.4,59,100.8,63.6,101.2z M78.2,43.5c-7.4,0-14.7,0-22,0
		c-0.3,0-0.9,0.5-0.9,0.8c-0.1,2.3,0,4.6,0,6.9c7.7,0,15.3,0,22.9,0C78.2,48.7,78.2,46.3,78.2,43.5z M67.2,9.8c-0.3,0-0.5,0-0.8,0
		c-1.7,3.6-3.6,7.1-5.1,10.7c-1.1,2.5-0.2,5.1,2,6.6c2.1,1.6,5,1.6,7.1,0c2.1-1.6,3-4.1,2-6.6C70.7,16.9,68.9,13.3,67.2,9.8z"/>
	<path class="st1" d="M107,12.7c0-5.9,4.8-10.8,10.7-10.9c6,0,10.9,4.9,10.9,10.9c0,5.9-4.9,10.8-10.8,10.8
		C111.9,23.5,107,18.6,107,12.7z M122.4,12.7c0-2.6-2-4.7-4.6-4.7c-2.5,0-4.6,2-4.6,4.5c0,2.5,2.1,4.7,4.7,4.7
		C120.4,17.2,122.4,15.3,122.4,12.7z"/>
	<path class="st1" d="M33.7,27.7c-5.5,0-10.1-4.6-10-10.1c0.1-5.5,4.5-9.9,10-10c5.5,0,10.1,4.5,10.1,10
		C43.7,23.2,39.2,27.7,33.7,27.7z M29.9,17.7c0,2.1,1.7,3.9,3.8,3.8c2.1,0,3.8-1.8,3.8-3.9c0-2.1-1.8-3.8-3.9-3.8
		C31.5,13.9,29.9,15.5,29.9,17.7z"/>
	<path class="st1" d="M99.7,24.1c5.1,0,9.2,4.1,9.3,9.2c0,5.2-4.1,9.4-9.3,9.3c-5.1,0-9.2-4.2-9.2-9.3
		C90.5,28.2,94.6,24.1,99.7,24.1z M99.7,36.3c1.7,0,3.1-1.3,3.1-3c0-1.7-1.4-3.2-3.1-3.1c-1.7,0-3,1.4-3,3.1
		C96.7,35,98,36.3,99.7,36.3z"/>
</g>
<g>
	<path class="st1" d="M-28,37.4c-2.3,4.1-4.5,8.2-6.9,12.3c-6.9,12-13.8,23.9-20.6,35.8c-0.3,0.4-0.5,0.9-0.8,1.4
		c0.9,0.5,1.7,1,2.5,1.5c1.8,1.1,2.2,2.3,1.1,4.2c-1.7,2.9-3.4,5.8-5,8.7c-0.3,0.5-0.3,1.3-0.4,1.9c-0.1,0.4,0,0.9,0,1.3
		c0,10.1,0,20.2,0,30.3c0,2.2-0.4,2.8-2.4,3.6c-3.8,1.6-7.8,2.7-11.9,3.1c-0.3,0-0.6,0.1-0.9,0.2c-2.1,0-4.1,0-6.2,0
		c-2.2-0.4-4.5-0.7-6.7-1.3c-15.7-3.9-27.5-17-30-33.1c-0.1-0.4-0.1-0.9-0.1-1.3c-0.3-2.1,0-2.7,1.8-3.7c6.9-4,13.7-7.9,20.6-11.9
		c2.5-1.4,5-2.8,7.5-4.2c0.3-0.2,0.5-0.5,0.7-0.9c1.7-2.9,3.4-5.9,5.1-8.8c1.1-2,2.4-2.3,4.4-1.2c0.7,0.4,1.5,0.9,2.4,1.4
		c0.3-0.4,0.5-0.8,0.7-1.2c2.8-4.9,5.7-9.9,8.5-14.8c0.4-0.7,1.1-1.3,1.9-1.6c1-0.4,2,0,2.6,0.9c0.7,0.9,0.7,1.9,0.2,2.9
		c-1,1.7-2,3.4-3,5.2c-1.9,3.4-3.9,6.7-5.8,10.1c-0.2,0.4-0.4,0.7-0.6,1.2c2.8,1.6,5.5,3.2,8.4,4.8c9.1-15.9,18.3-31.7,27.5-47.7
		c-2.8-1.6-5.5-3.2-8.4-4.8c-0.3,0.5-0.5,0.8-0.8,1.2c-2.1,3.7-4.3,7.4-6.4,11.1c-0.1,0.2-0.2,0.5-0.4,0.7c-0.9,1.5-2.4,2-3.7,1.2
		c-1.3-0.8-1.6-2.2-0.8-3.7c0.6-1.1,1.2-2.2,1.9-3.2c1.9-3.3,3.8-6.6,5.7-9.8c1.6-2.7,4.2-3.4,6.9-1.9c2.6,1.5,5.1,3,7.7,4.4
		c1.7,0.9,3,2.1,3.5,3.9C-28,36.2-28,36.8-28,37.4z M-96.5,130c0.3-0.4,0.5-0.8,0.7-1.1c1.9-3.4,3.9-6.7,5.8-10.1
		c1-1.8,2-3.6,3.1-5.4c0.8-1.2,2.2-1.5,3.4-0.9c1.2,0.6,1.6,2.1,1.1,3.4c-0.2,0.4-0.4,0.8-0.6,1.1c-2.8,4.8-5.5,9.6-8.3,14.3
		c-0.2,0.4-0.4,0.8-0.7,1.3c4.6,2.3,9.3,3.6,14.5,3.8c0.2-2,0.4-4,0.7-6c0.4-3.4,0.7-6.8,1.1-10.2c0.2-1.5,1.2-2.4,2.5-2.5
		c1.3,0,2.4,0.8,2.6,2.1c0.1,0.5,0,1.1,0,1.7c-0.4,3.6-0.8,7.3-1.2,10.9c-0.1,1.2-0.2,2.4-0.3,4c2.9-0.8,5.6-1.5,8.2-2.3
		c0.4-0.1,0.8-0.8,0.8-1.2c0-9.1,0-18.1,0-27.2c0-0.4-0.4-1.1-0.7-1.3c-7.1-4.1-14.1-8.2-21.2-12.3c-0.4-0.2-1-0.2-1.4,0
		c-7.9,4.5-15.7,9-23.6,13.6c-0.3,0.2-0.7,0.6-0.7,0.9c0.5,2.5,1.2,4.9,1.8,7.6c0.7-0.5,1.1-0.8,1.5-1.1c3.4-2.5,6.9-5,10.3-7.5
		c1.4-1,3-0.9,3.9,0.4c0.9,1.2,0.6,2.7-0.8,3.8c-0.4,0.3-0.9,0.7-1.4,1c-3.7,2.7-7.4,5.4-11.1,8.1C-104,123.4-100.7,127-96.5,130z
		 M-77,80.9c-1.5,2.6-2.9,5.1-4.4,7.6c6.3,3.7,12.5,7.2,18.8,10.9c1.5-2.6,2.9-5.1,4.4-7.6C-64.5,88.1-70.7,84.6-77,80.9z"/>
	<path class="st1" d="M-95.4,9.1c1.2,0.4,2.5,0.6,3.7,1.1c3.7,1.5,6.3,4.1,8,7.7c0.3,0.5,0.8,1.1,1.4,1.3c5.5,2.2,8.8,7.9,7.8,13.6
		c-1,5.8-5.8,10.1-11.8,10.5c-0.5,0-1.1,0.3-1.4,0.7c-4.1,4.6-9.2,6.7-15.3,5.4c-6.1-1.3-10.1-5.2-11.9-11.2
		c-0.1-0.2-0.1-0.3-0.2-0.5c0-0.1-0.1-0.1-0.2-0.3c-3.2,0.3-6.3-0.5-8.9-2.5c-2-1.6-3.5-3.6-4.3-6c-1.6-4.9,0-10.3,4-13.5
		c3.7-3,9.6-4.1,15.2-0.3c1.6-2.1,3.6-3.8,6.1-4.8c1.2-0.5,2.5-0.8,3.8-1.2C-98,9.1-96.7,9.1-95.4,9.1z M-117.2,17.9
		c-2.5,0.1-4.8,1.5-6,4.2c-1.2,2.8-0.8,5.4,1.1,7.7c2,2.3,4.6,3,7.5,2.2c3-0.8,4.1-0.1,4.4,2.9c0.4,4.5,3.4,8.1,7.7,9.3
		c4.3,1.1,8.8-0.5,11.3-4.3c0.9-1.4,2-2,3.7-1.9c3.8,0.4,7.3-2.3,7.8-6c0.6-3.9-1.8-7.4-5.6-8.2c-1.5-0.3-2.4-1.1-2.8-2.6
		c-1.2-4-4.5-6.6-8.4-6.9c-4.1-0.3-7.7,1.8-9.5,5.6c-1.2,2.5-3.1,2.8-5,0.6C-112.6,18.8-114.4,17.9-117.2,17.9z"/>
	<path class="st1" d="M-145.1,60c0.6-2.8,2-5.3,4.2-7.3c5.6-5.1,14.1-4.7,19.1,1c0.7,0.8,1.1,0.8,2,0.5c6.1-2.2,11.6-1.1,16.2,3.4
		c4.5,4.4,5.9,9.9,3.9,15.9c-2.1,6.1-6.5,9.8-12.9,10.4c-2.3,0.2-3.5,1-4.7,3c-6.7,11.4-23.3,11.3-30.2-0.1
		c-0.4-0.7-0.9-1.1-1.8-1.2c-6.3-1-11-6.2-11.1-12.4c-0.1-6.3,4.1-11.7,10.4-13C-148.4,60-146.8,60.1-145.1,60z M-132.5,90.3
		c0.8-0.1,1.4-0.1,2-0.2c0.3,0,0.5-0.1,0.8-0.1c4.9-1.2,8.1-4.2,9.5-9c0.6-2.1,1.6-2.7,3.6-2.3c0.8,0.1,1.7,0.3,2.6,0.2
		c4.5-0.2,8.3-3.1,9.6-7.2c1.3-4.1-0.1-8.6-3.6-11.2c-3.5-2.7-8.1-2.9-12-0.4c-2,1.3-3.3,0.9-4.4-1.1c-1.9-3.6-5.7-5.3-9.4-4.3
		c-3.9,1-6.3,4.3-6.2,8.5c0.1,2.9-1.5,3.9-4.1,2.8c-3-1.3-6.3-0.7-8.6,1.6c-2.2,2.2-2.9,5.5-1.7,8.4c1.2,3,4,4.9,7.3,4.8
		c1.8-0.1,2.8,0.7,3.6,2.3C-141.5,87.7-137.6,90.1-132.5,90.3z"/>
	<path class="st1" d="M-152.6,110.9c0-2.1,0.9-3.3,2.6-3.2c1.5,0,2.4,1.1,2.5,3c0.3,4.9,2.7,8.6,7.2,10.7c1.4,0.7,3.1,0.9,4.7,1.1
		c1.9,0.2,3,1.1,2.9,2.8c-0.1,1.5-1.2,2.5-3,2.5C-144.6,127.6-152.4,119.9-152.6,110.9z"/>
	<path class="st1" d="M-149.9,136.3c-1.4,0-2.6-1.1-2.6-2.5c0-1.4,1.1-2.6,2.5-2.7c1.4-0.1,2.7,1.1,2.7,2.6
		C-147.4,135-148.5,136.2-149.9,136.3z"/>
	<path class="st1" d="M-122.3,125.1c0,1.4-1.1,2.6-2.5,2.6c-1.4,0-2.7-1.2-2.6-2.6c0-1.4,1.2-2.5,2.6-2.5
		C-123.4,122.6-122.3,123.7-122.3,125.1z"/>
	<path class="st1" d="M-56.6,49.8c1.4,0,2.5,1.1,2.5,2.5c0,1.4-1.1,2.6-2.5,2.6c-1.4,0-2.7-1.2-2.6-2.6
		C-59.1,50.9-58,49.8-56.6,49.8z"/>
	<path class="st1" d="M-131,106.6c-1.4,0-2.5-1.2-2.5-2.6c0-1.4,1.1-2.5,2.6-2.5c1.5,0,2.6,1.2,2.6,2.7
		C-128.5,105.5-129.6,106.6-131,106.6z"/>
	<path class="st1" d="M-38.1,105.2c-0.1,5.2-4.7,9.8-9.9,9.8c-1.6,0-2.7-1-2.8-2.5c-0.1-1.5,0.9-2.5,2.5-2.7c3.1-0.3,4.7-1.9,5-5
		c0.2-1.6,1.2-2.6,2.7-2.5C-39.1,102.3-38.1,103.5-38.1,105.2z"/>
	<path class="st1" d="M-47.4,133.8c-1.4,0-2.5-1.2-2.5-2.6c0-1.5,1.2-2.6,2.7-2.5c1.4,0.1,2.5,1.2,2.4,2.6
		C-44.9,132.7-46,133.8-47.4,133.8z"/>
</g>
<g>
	<path class="st1" d="M10.6-54.6c-0.6-0.3-0.8-0.8-0.8-1.5c0-1.4,0.1-2.7,0-4.1c-0.1-2.2,1-3.6,2.9-4.3c1-0.4,2.2-0.6,3.3-1
		c-0.1-0.2-0.3-0.4-0.5-0.6c-1.3-1.7-1.6-3.6-1.1-5.6c0.6-2.1,2.4-3.3,4.9-3.1c2.1,0.2,3.7,1.7,4,3.7c0.3,2-0.2,3.9-1.6,5.4
		c-0.1,0.1-0.1,0.1-0.2,0.2c2.6,0.5,5.3,0.9,6.2,3.9c0,2.3,0,4.5,0,6.8c-0.5,0-1,0-1.5,0c-0.5-0.4-0.7-0.9-0.7-1.5
		c0-1.4,0-2.8,0-4.2c0-1-0.4-1.6-1.2-2c-0.4-0.2-0.9-0.4-1.4-0.5c-2.1-0.5-4.2-0.7-6.3-0.4c-1.2,0.2-2.3,0.5-3.4,0.9
		c-0.9,0.3-1.3,1-1.3,2c0,1.4,0,2.8,0,4.3c0,0.6-0.2,1.1-0.7,1.5C11.1-54.6,10.8-54.6,10.6-54.6z M16.3-69.6c0,0.7,0.3,1.7,1,2.5
		c0.9,0.9,2,0.9,2.9,0c0.9-1,1.2-2.2,1-3.5c-0.2-1.3-0.9-2-2.2-2C17.2-72.7,16.3-71.8,16.3-69.6z"/>
	<path class="st1" d="M-40.1-54.6c-0.5-0.4-0.7-0.9-0.7-1.5c0-1.4,0-2.8,0-4.3c0-1.7,0.7-3,2.2-3.7c1.1-0.5,2.4-0.8,3.6-1.2
		c0.1,0,0.2,0,0.5-0.1c-0.9-1-1.6-2-1.7-3.2c-0.1-0.9-0.2-1.8,0-2.7c0.4-2.4,2.4-3.7,5-3.5c2.2,0.2,3.9,1.8,4,4.2
		c0.1,2-0.3,3.2-1.8,5.2c0.7,0.2,1.5,0.2,2.2,0.5c0.8,0.3,1.7,0.7,2.5,1.2c1,0.7,1.5,1.8,1.5,3c0,1.6,0,3.2,0,4.8
		c0,0.6-0.3,1-0.8,1.3c-0.2,0-0.4,0-0.7,0c-0.5-0.3-0.7-0.8-0.7-1.5c0-1.4,0-2.8,0-4.2c0-1.1-0.5-1.8-1.4-2.2
		c-0.4-0.2-0.8-0.3-1.3-0.4c-2.1-0.5-4.2-0.7-6.3-0.4c-1.1,0.2-2.3,0.5-3.3,0.9c-0.9,0.3-1.3,1-1.3,2c0.1,1.4,0,2.8,0,4.2
		c0,0.7-0.1,1.2-0.7,1.5C-39.5-54.6-39.8-54.6-40.1-54.6z M-29.3-70c0-0.2,0-0.4-0.1-0.7c-0.2-1.1-0.9-1.7-2-1.9
		c-1.4-0.1-2.3,0.3-2.7,1.3c-0.5,1.3-0.1,3.3,0.9,4.2c0.9,0.8,1.9,0.8,2.8,0C-29.6-67.9-29.3-68.9-29.3-70z"/>
	<path class="st1" d="M-14.8-54.6c-0.5-0.4-0.7-0.9-0.7-1.6c0-1.4,0-2.8,0-4.3c0-1.7,0.7-2.9,2.1-3.6c1.1-0.6,2.4-0.8,3.6-1.2
		c0.1,0,0.3,0,0.5-0.1c-0.9-1-1.6-2-1.8-3.3c-0.1-0.9-0.2-1.7,0-2.6c0.4-2.5,2.5-3.8,5.1-3.5c2.4,0.3,4,2.2,3.9,4.8
		c0,1.7-0.6,3.3-1.9,4.6c0.8,0.2,1.5,0.3,2.2,0.5c0.8,0.3,1.6,0.6,2.3,1c1.2,0.7,1.7,1.9,1.7,3.3c0,1.4,0,2.9,0,4.3
		c0,0.7-0.1,1.2-0.7,1.6c-0.3,0-0.5,0-0.8,0c-0.5-0.3-0.7-0.8-0.7-1.5c0-1.4,0-2.8,0-4.3c0-1-0.4-1.6-1.2-2
		c-0.4-0.2-0.9-0.4-1.4-0.5c-2.1-0.5-4.3-0.7-6.4-0.4C-9.8-63-11-62.7-12-62.4c-0.9,0.3-1.3,1-1.3,2c0,1.4,0,2.8,0,4.3
		c0,0.6-0.2,1.1-0.7,1.5C-14.3-54.6-14.5-54.6-14.8-54.6z M-4-70.1c0-0.1,0-0.4-0.1-0.7c-0.2-1.1-0.9-1.8-2.1-1.8
		c-1.4-0.1-2.3,0.4-2.6,1.5C-9.2-69.7-9-68.4-8-67.2c0.9,1.1,2.2,1.1,3.1,0C-4.3-68-4.1-68.9-4-70.1z"/>
	<path class="st1" d="M-7.6-84c-7.7,0-15.4,0-23.1,0c0,0.2,0,0.4,0,0.7c0,1.4,0,2.9,0,4.3c0,0.9-0.4,1.4-1.1,1.4
		c-0.7,0-1.1-0.5-1.1-1.4c0-1.9,0-3.8,0-5.7c0-1.1,0.3-1.5,1.5-1.5c7.6,0,15.3,0,22.9,0c0.3,0,0.5,0,0.9,0c0-0.8,0-1.6,0-2.3
		c0-0.9,0-1.8,0-2.7c0-0.7,0.5-1.1,1.1-1.1c0.6,0,1,0.5,1.1,1.1c0,1.4,0,2.8,0,4.1c0,0.2,0,0.5,0,0.8c0.3,0,0.6,0,0.8,0
		c7.6,0,15.2,0,22.8,0c1.4,0,1.7,0.2,1.7,1.7c0,1.9,0,3.7,0,5.6c0,0.8-0.4,1.3-1,1.3c-0.7,0-1.1-0.5-1.1-1.3c0-1.7,0-3.4,0-5.1
		C10-84,2.3-84-5.4-84c0,1.5,0,3,0,4.5c0,0.2,0,0.5,0,0.7c0,0.7-0.5,1.1-1.1,1.1c-0.6,0-1-0.4-1.1-1.1c0-1.5,0-3,0-4.5
		C-7.6-83.4-7.6-83.7-7.6-84z"/>
	<path class="st1" d="M-9.4-111.1c-2-1.8-2.8-3.9-2.7-6.4c0.1-3.7,2.9-6,6.5-5.5c2.9,0.4,4.6,2.4,4.7,5.3c0.1,2.6-0.7,4.8-2.7,6.5
		c1,0.2,1.9,0.3,2.7,0.5c1.4,0.3,2.7,0.8,3.8,1.6c1.1,0.9,1.8,2.1,1.8,3.5c0,3.1,0,6.1,0,9.2c0,0.5-0.1,1-0.7,1.1
		c-0.4,0.1-0.9,0-1.1-0.2c-0.2-0.2-0.3-0.7-0.3-1c0-2.8-0.1-5.6,0-8.4c0-1.5-0.6-2.5-1.9-3c-1.5-0.5-3-0.9-4.6-1.1
		c-2.8-0.4-5.7-0.2-8.5,0.6c-0.6,0.2-1.1,0.4-1.6,0.6c-1.1,0.6-1.7,1.4-1.6,2.7c0,2.9,0,5.7,0,8.6c0,0.6-0.2,1.1-0.8,1.2
		c-0.7,0.2-1.3-0.3-1.3-1c0-3.2,0-6.4,0-9.6c0-1.6,0.9-2.7,2.2-3.6c1.4-1,3-1.3,4.7-1.6C-10.4-110.9-9.9-111-9.4-111.1z M-3-116.7
		c0-2.5-0.9-3.8-2.7-4.1c-1.8-0.3-3.3,0.4-3.9,1.8c-0.7,1.8-0.2,4.5,1.2,5.9c1.2,1.1,2.8,1.1,3.9,0C-3.4-114.2-3.1-115.6-3-116.7z"
		/>
	<path class="st1" d="M-13.1-99.6c0-1.1,0-2.3,0-3.4c0-0.8,0.4-1.2,1-1.2c0.6,0,1.1,0.5,1.1,1.2c0,2.2,0,4.5,0,6.7
		c0,0.8-0.4,1.2-1.1,1.2c-0.6,0-1-0.4-1-1.2C-13.1-97.4-13.1-98.5-13.1-99.6z"/>
	<path class="st1" d="M0.1-99.7c0,1.1,0,2.3,0,3.4c0,0.8-0.4,1.2-1,1.2C-1.6-95-2-95.5-2-96.3c0-2.2,0-4.5,0-6.7
		c0-0.8,0.5-1.3,1.1-1.2c0.6,0,1,0.5,1,1.2C0.1-101.9,0.1-100.8,0.1-99.7z"/>
</g>
<g>
	<path class="st1" d="M149.4-46.5c-0.1,0.3-0.2,0.5-0.3,0.8c-0.7,2.2-2.7,3.7-5,3.7c-0.2,0-0.4,0-0.6,0c-24.6,0-49.2,0-73.8,0
		c-3,0-5.2-1.6-5.7-4.3c-0.5-2.5,0.7-5,3-6c0.5-0.2,0.7-0.5,0.8-1.1c1.2-8.6,7-15,15.2-16.9c3.7-0.8,7.4-0.6,11,0.8
		c0.5,0.2,0.8,0.1,1.2-0.3c0.9-1,1.8-1.9,2.7-2.8c0.2-0.2,0.4-0.6,0.4-1c0-3.5,0-7.1,0-10.6c0-1,0.7-1.6,1.8-1.6c1.3,0,2.6,0,3.8,0
		c0.3,0,0.6,0,0.9,0c0-7.7,0-15.3,0-22.9c-0.6,0-1.1,0-1.7,0c-2.8-0.1-4.9-2.2-5-4.9c0-1.1,0-2.2,0-3.3c0-1.2,0.7-1.8,1.8-1.8
		c4.3,0,8.7,0,13,0c1.2,0,1.8,0.7,1.8,1.8c0,1.1,0,2.2,0,3.3c-0.1,2.8-2.2,4.9-5,5c-0.5,0-1.1,0-1.6,0c0,7.6,0,15.2,0,22.9
		c1.5,0,2.9,0,4.3,0c1.8,0,2.3,0.5,2.3,2.3c0,1.2,0,2.4,0,3.6c2.1,0.1,4.1,0.3,6.1,0.4c0.6,0,1.1,0.2,1.6,0.3c1,0.2,1.5,1,1.4,1.9
		c-0.2,0.9-0.9,1.5-2,1.4c-1.6-0.2-3.3-0.5-4.9-0.5c-7.6,0-14,2.8-19.1,8.4c-0.1,0.1-0.2,0.3-0.3,0.3c1.4,1.3,2.9,2.5,4.1,3.9
		c2.5,2.8,3.9,6,4.5,9.7c0.1,0.6,0.3,0.8,0.8,0.8c1.9,0.2,3.8,0.5,5.7,0.5c9.5,0,18.9,0,28.4,0c0.2,0,0.4,0,0.8,0
		c-0.2-1.3-0.3-2.6-0.6-3.8c-1-4.7-3.3-8.8-6.7-12.3c-0.2-0.2-0.3-0.3-0.5-0.5c-0.7-0.8-0.7-1.7,0-2.4c0.7-0.7,1.7-0.7,2.4,0.1
		c1.5,1.8,3.1,3.5,4.4,5.4c2.6,3.9,3.9,8.4,4.3,13.1c0,0.2,0.1,0.6,0.3,0.7c2,0.8,3,2.3,3.6,4.2C149.4-47.7,149.4-47.1,149.4-46.5z
		 M106.6-45.3c12.2,0,24.4,0,36.6,0c0.3,0,0.6,0,0.9,0c1.1-0.1,2-1,2-2.1c0-1.1-0.8-2-2-2.1c-0.3,0-0.7,0-1,0c-9.9,0-19.9,0-29.8,0
		c-3.9,0-7.7-0.5-11.3-1.8c-2.7-0.9-5.4-2-8.2-2.8c-2.7-0.8-5.5-1.2-8.2,0c-1.3,0.6-2.6,1.4-3.9,2.1c-2.7,1.7-5.6,2.6-8.9,2.4
		c-1.2-0.1-2.4,0-3.6,0c-1.1,0-2,1-2,2.1c0,1.1,0.8,2,2,2.1c0.3,0,0.6,0,0.9,0C82.3-45.3,94.4-45.3,106.6-45.3z M71.2-52.9
		c2.6,0.2,5.1,0.2,7.4-1.2c1.2-0.7,2.4-1.4,3.6-2.1c2.7-1.5,5.5-2.2,8.6-1.9c2.4,0.3,4.7,1,7,1.8c1.7,0.6,3.4,1.2,5.1,1.8
		c-0.6-5.3-6.3-12.9-15.6-13C78-67.4,71.6-59.7,71.2-52.9z M111.7-82.4c-3.4,0-6.7,0-10,0c0,2.3,0,4.6,0,6.9c0.1,0,0.1,0,0.1,0
		c3-1.7,6.1-3.1,9.5-3.7c0.2,0,0.4-0.3,0.4-0.5C111.7-80.6,111.7-81.5,111.7-82.4z M111.6-115.4c-3.3,0-6.6,0-10,0
		c0,0.4,0,0.8,0,1.2c0,1.5,0.6,2.1,2.1,2.1c1.6,0,3.3-0.1,4.9,0c3,0.1,3.1-0.9,3-3.2C111.6-115.3,111.6-115.3,111.6-115.4z"/>
	<path class="st1" d="M131.2-75.1c0,0.9-0.7,1.7-1.6,1.7c-0.9,0-1.7-0.8-1.7-1.7c0-0.9,0.8-1.6,1.7-1.6
		C130.5-76.7,131.2-76,131.2-75.1z"/>
	<path class="st1" d="M115.9-69.3c0.9,0,1.7,0.7,1.7,1.6c0,0.9-0.7,1.7-1.6,1.7c-1,0-1.7-0.7-1.7-1.7
		C114.3-68.6,115-69.3,115.9-69.3z"/>
	<path class="st1" d="M128-58.1c-0.9,0-1.7-0.7-1.7-1.6c0-0.9,0.7-1.7,1.7-1.7c0.9,0,1.6,0.8,1.7,1.7
		C129.7-58.9,128.9-58.1,128-58.1z"/>
	<path class="st1" d="M83.3-63.7c0.9,0,1.6,0.8,1.6,1.7c0,0.9-0.8,1.7-1.7,1.7c-0.9,0-1.7-0.8-1.6-1.8C81.6-63,82.4-63.7,83.3-63.7z
		"/>
</g>
</svg>
