<?xml version="1.0" encoding="utf-8"?>
<!-- Generator: Adobe Illustrator 24.3.0, SVG Export Plug-In . SVG Version: 6.00 Build 0)  -->
<svg version="1.1" id="Layer_1" xmlns="http://www.w3.org/2000/svg" xmlns:xlink="http://www.w3.org/1999/xlink" x="0px" y="0px"
	 viewBox="0 0 150 150" style="enable-background:new 0 0 150 150;" xml:space="preserve">
<style type="text/css">
	.st0{fill:#CDEEFD;}
	.st1{fill:#111224;}
	.st2{fill:#005BAB;}
</style>
<path class="st0" d="M1465.3,1556.3c-2.4-0.2-4.3-1.3-4.4-4.1c-0.1-6.7,1.6-10,4.9-9.9c0.2,0,0.3,0,0.5,0c2.2,0.5,4.3,2.1,3.2,4
	C1467.7,1549.5,1473.1,1555.7,1465.3,1556.3z M1465.5,1554.4c1.3-0.1,2.3-0.6,2.3-2.1c-0.1-1.7-1.5-2.1-2.8-2.4c-1.6-0.4-2,0.8-2,2
	C1463,1553.5,1464,1554.2,1465.5,1554.4z M1467.8,1546.5c0-1.4-0.6-2.2-2.1-2.2c-0.9,0-1.6,0.4-1.7,1.4c-0.2,1.4,0.9,2.1,2,2.5
	C1467.3,1548.5,1467.6,1547.5,1467.8,1546.5z"/>
<path class="st0" d="M1455.8,1556.6c-0.5-2.9-1.8-4.2-4.6-3.6c-0.7,0.2-1.7,0.3-2.1-0.8c-0.4-1.1,0.1-1.5,1.2-2.1
	c2.1-1.2,2.1-3.9,3.2-5.8c0.6-1,1-2.2,2.5-1.9c1.4,0.3,0.9,1.6,0.8,2.5C1456.4,1548.6,1458.4,1552.5,1455.8,1556.6z"/>
<path class="st1" d="M1465.5,1554.4c-1.5-0.1-2.6-0.8-2.5-2.4c0-1.2,0.4-2.4,2-2c1.2,0.3,2.7,0.7,2.8,2.4
	C1467.8,1553.7,1466.8,1554.2,1465.5,1554.4z"/>
<path class="st1" d="M1467.8,1546.5c-0.2,1-0.5,2.1-1.8,1.7c-1.1-0.4-2.1-1-2-2.5c0.1-1,0.8-1.4,1.7-1.4
	C1467.2,1544.3,1467.8,1545,1467.8,1546.5z"/>
<polygon class="st2" points="1346.8,29.4 1346.9,29.6 1346.6,29.6 "/>
<g>
	<path class="st2" d="M65.3,0.6c2.9,1.3,6,2.1,8.8,3.8c6.5,3.9,11,9.4,13.7,16.5c6.5,16.9-1.9,35.3-18.8,41.8
		c-9,3.5-17.9,2.7-26.7-1.9c-14.4-7.6-21.1-25.6-14.5-40.9c4-9.2,10.7-15.6,20.5-18.5c0.5-0.2,1-0.4,1.5-0.7
		c4.3-0.8,8.5-0.7,12.8-0.6c0.2,0.1,0.4,0.2,0.6,0.3C64,0.5,64.6,0.6,65.3,0.6z M49.1,61.5c0.4,1,1.4,0.7,2.2,0.8
		c0.8,0.9,1.8,0.2,2.7,0.3c6.3,0.9,12.3-0.3,17.8-3.3c5.8-3.1,10.5-7.3,12.9-13.6c0.5-0.3,0.9-0.6,0.8-1.2c0.3-1,1-1.8,1-2.9
		c0.4-0.2,0.5-0.6,0.4-1c1.5-5.5,1.6-10.9,0-16.4c0.1-0.4,0-0.8-0.3-1C82.8,11.1,72.1,2.5,60,1.9c-1.6-0.5-3.3-0.5-4.9,0
		C51.2,2.2,47.4,3,44,5.2c-0.7,0.1-1.4,0.2-1.6,1c-5.3,2.4-8.8,6.6-11.4,11.6c-1.8,0.1-1.1,1.6-1.4,2.6c0,0.4-0.1,0.8-0.1,1.2
		c-0.5,0.2-0.9,0.6-0.8,1.2c-0.4,1.6-1.1,3.1-1.1,4.8c-0.6,0.7-0.4,1.6-0.4,2.4c-0.2,1.6-0.2,3.2,0,4.8c-0.1,0.7-0.2,1.4,0.3,2
		c0.8,5.7,2.8,10.7,6.7,15c0.2,0.6,0.5,1.1,1.1,1.3c1.8,2.6,4.6,4,7,5.9l0,0.2l0.1-0.1c0.3,0.1,0.7,0.2,1,0.4c0,0.3,0.2,0.4,0.5,0.4
		c0.3,0,0.6,0.1,0.8,0.1c0.3,0.8,0.9,0.9,1.6,0.8C47.3,61.4,48.1,61.6,49.1,61.5z"/>
	<path class="st2" d="M144,96.2c-0.8,1.3-1.4,2.7-2.3,3.9c-2.2,2.8-5,4-8.5,2.8c-2.8-1-4.9-0.5-7.2,1.4c-4.6,3.8-13,3.4-17.7-0.4
		c-0.7-0.6-1.5-1.1-2.3-1.7c0.3-1.6-1.3-2.6-1.6-4c1.5,0.7,2.8,1.7,3.6,3c3.2,5.3,15,5.4,18.7,0.2c1.3-1.8,2.9-3.4,5-4.5
		c2.1-1.1,3.9-0.7,4.8,1c0.3,0.5,0.7,1,0.1,1.5c-0.6,0.4-1-0.1-1.4-0.5c-1.3-1.2-3.6-0.8-4.5,0.7c-0.2,0.4-0.2,0.7,0.2,1
		c2.4,1.8,7.1,1.2,9.3-1.3c5-5.8,3.1-16-3.6-19.7c-0.7-0.4-1.8-0.5-1.9-1.6c0.2-0.5,0.6-0.7,1.1-0.7c3.7,1.7,6.2,4.5,8,8.1
		c0,0,0.1,0.1,0.1,0.1c0,0.4,0.1,0.7,0.5,0.9C144.5,89.7,144.9,92.9,144,96.2z"/>
	<path class="st2" d="M6,60.9c0.1-0.4,0.3-0.7,0.4-1.1c0.2-0.6,0.3-1.3,1.2-1.2c0.9,0.1,0.7,0.9,0.6,1.5c-0.3,2.1-0.7,4.2-0.9,6.3
		c-0.2,1.2-0.8,1.4-1.8,1.1C5.6,65.3,5.8,63.1,6,60.9z"/>
	<path class="st2" d="M5.5,74.7c0.7-0.2,1.3-0.3,1.4,0.7c0.3,2.3,0.5,4.6,0.8,6.8c0.1,1.3-0.5,1.5-1.6,1.3
		C5.2,80.6,5.4,77.6,5.5,74.7z"/>
	<path class="st2" d="M143.2,72c-0.1-1.5-0.2-3-0.3-4.5c-0.1-1.3,0.5-1.5,1.6-1.1c0,1.9,0,3.7,0,5.6C144,72,143.6,72,143.2,72z"/>
	<path class="st2" d="M143.2,72c0.4,0,0.9,0,1.3,0c0,1.1,0,2.1,0,3.2C141.9,75,143.5,73.1,143.2,72z"/>
	<path class="st2" d="M63.3,0.4c-0.2-0.1-0.4-0.2-0.6-0.3C62.9,0.2,63.1,0.3,63.3,0.4z"/>
	<path class="st2" d="M48.9,148.9c-2.2-0.1-4-1.4-5.8-2.5c-0.2-0.2-0.3-0.3-0.5-0.5c-2.3-2.6-4-5.5-5.4-8.7c0.1-0.6-0.2-1-0.8-1.3
		c-0.6-3.3-2-6.3-4-9c-2.3-3.2-4.4-6.6-6.1-10.2c0.3-0.3,0.7-0.6,1-0.9c0.7,2.3,2.4,3.9,3.9,5.8c0.1-2.3-0.2-4.6-0.2-6.8
		c0-1.4-0.3-2.5-1.5-3.2c0-0.5,0.3-0.9,0.8-1.2c1.3,0.8,1.5-0.2,1.8-1.1c0.7-1.9,1.8-3.3,3.4-4.5c3.9-3,8.1-2.7,12.3-0.9
		c2.4,1,4.5,1,6.9,0c7.5-3.1,14.1-0.2,16.2,6.6c0.3,1,0.6,1.4,1.6,0.6c1.6-1.2,3.3-2.3,5-3.4c0.9-0.6,1.1-1.1,0-1.7
		c-1.3-0.7-2.8-1.4-3.8-2.5c-3.8-4-8.3-5.3-13.6-4.4c-0.4-0.8-1.7-0.2-1.9-1.2c2.2-0.1,4.4-0.3,6.6-0.4c0.4,0,0.8,0.1,0.9-0.4
		c0-0.2-0.4-0.3-0.6-0.5c-1.8-1.3-3.7-2.5-5.5-3.8c0-0.5,0-1.1,0-1.6c2.6,1.5,5.1,3.1,7.5,5c3.3,2.6,6.3,5.4,9.9,7.6
		c0.8,0.5,1.6,1.3,2.9,1c-1.3-3.4-3.7-6.1-4.6-9.5c0.3-0.1,0.6-0.1,0.8-0.2c0.2,0.1,0.5,0.1,0.7,0.2c0,0.6,0.4,1,0.9,1.3
		c0.7,2.6,2.4,4.7,3.5,7c0.5,0.9,0.9,1.9,1.3,2.8c-0.1,0.3-0.2,0.6-0.4,1c-3.1,3.8-5.4,8.1-7.9,12.3c-1.8,3.1-3.6,6.2-5.5,9.3
		c-1.8,2.8-3.2,5.7-3.6,9c-0.5,0.3-0.8,0.7-0.8,1.3c-1.5,2.8-3,5.6-5.7,7.6c-1.6,1.2-3.4,2.1-5.5,2.1
		C51.8,148.9,50.3,148.9,48.9,148.9z M32.7,117.9c1.3,8.2,4.7,15.6,8.4,22.9c4.2,8.4,15.3,9,20,0.7c0.4-0.6,0.7-1.2,1-1.9
		c2.4-4.9,3.5-10.3,5.7-15.3c0.9-2,1.5-4.1,1.8-6.2c0.6-4,0.3-7.9-2.7-11.1c-3.8-4-8.2-3.1-12.7-1.3c-1.3,0.5-1.8,1.2-1.8,2.6
		c0.1,3.1-0.1,6.1-0.2,9.2c0,0.7-0.1,1.6-1.1,1.5c-0.8-0.2-0.6-1-0.5-1.6c0.1-1.8,0.2-3.7,0.2-5.5c0-5.7,0-5.7-5.6-7.1
		c-5.6-1.4-9.7,0.6-11.8,5.6c-0.4,1-0.6,2.2-0.8,3.2C31.7,115,31.6,116.5,32.7,117.9z M77.9,110.2c-0.2-0.2-0.4-0.3-0.5-0.5
		c-1.5,1-3,2.1-4.5,3.1c-0.6,0.4-1.4,0.7-1.3,1.6c0.2,2.4-0.5,4.7-0.4,7.2C73.4,117.8,75.7,114,77.9,110.2z"/>
	<path class="st2" d="M135.8,77.4c-0.5,0-0.9,0.2-1.1,0.7c-1-3.3-2.2-6.5-2.9-9.8c-1.6-7.9-3-15.9-4.6-23.9c-0.9-4.5-1.9-9-4.4-12.9
		c-2.7-4.3-7.1-4.7-10.3-0.8c-0.6,0.7-1.1,1.6-1.5,2.4c-1.9,3.8-2.8,7.8-3.7,11.9c-2,10.1-3.3,20.3-6.1,30.2
		c-0.5,1.6-0.6,3.5-2.6,4.4c-6.3,2.8-8.7,10.9-5.4,17.8c1.9,4,6,5.4,9.9,3.4c0.7-0.4,1.1-0.7,0.4-1.4c-1.1-1.3-2.8-1.5-4.1-0.3
		c-0.4,0.4-0.8,0.9-1.4,0.5c-0.6-0.4-0.3-1,0-1.5c1.1-2.3,4-2.2,6.1,0.1c0.2,1.5,1.8,2.4,1.6,4c-1.5,0-2.9,0.4-4.2,0.8
		c-3.5,1-6.4-0.1-8.6-2.8c-5.4-6.7-3.3-17.6,4.1-21.9c1.1-0.7,1.8-1.4,2.1-2.6c2.3-7.7,3.4-15.7,4.9-23.6c1.2-6.2,2.1-12.5,4.5-18.4
		c0.7-1.6,1.5-3.1,2.5-4.4c3.6-4.4,9.1-4.2,12.5,0.5c3,4.1,3.9,8.9,5.1,13.7c0.7,3,1.2,6.1,1.7,9.2c0,0.5-0.2,1.1,0.4,1.5
		c0.4,2.3,0.7,4.5,1.1,6.8c-0.1,0.4-0.1,0.7,0.2,1c0.4,2.1,0.8,4.2,1.2,6.2c-0.1,0.4-0.1,0.7,0.3,1c0.2,0.8,0.4,1.6,0.6,2.4
		c0.1,0.3,0.2,0.5,0.4,0.8c0.1,0.7,0.2,1.4,0.2,2.1c-0.1,0.4-0.1,0.7,0.2,1C135.4,76.1,135.6,76.7,135.8,77.4z"/>
	<path class="st2" d="M59.5,91.2c0,0.5,0,1.1,0,1.6c-7.7-3.8-14.9-2.8-21.5,2.4c-0.5,0.4-1.3,0.7-1,1.4c0.2,0.7,1,0.4,1.5,0.5
		c3.3,0.2,6.6,0.3,9.8,0.5c3.3,0.2,6.6-0.2,9.8,0.3c0.3,1,1.5,0.4,1.9,1.2c-0.5,0.1-0.9,0.3-1.4,0.3c-7.5,0.3-14.9-0.1-22.4-0.7
		c-1.2-0.1-2.4-0.2-3.4,0.8c-2.6,2.4-5.2,4.7-8.4,6.6c2.1,1.5,4,2.9,5.9,4.4c-0.5,0.2-0.7,0.6-0.8,1.2c-2.1-0.9-3.5-2.9-5.8-3.3
		c0,0-0.1-0.1-0.1-0.1c0,0,0.1,0.1,0.1,0.1c0.8,2.7,2.6,4.9,3.6,7.6c-0.3,0.3-0.7,0.6-1,0.9c-2.3-3.2-3.9-6.8-5.6-10.2
		c-0.3-0.7-0.2-1.2,0.1-1.8c3.2-5.9,6.3-11.9,9.7-17.6c2.8-4.8,6.2-9.2,12-10.7c1,0,1.9,0,2.9,0c0.1,0,0.2,0,0.2,0.1
		c3.4,1.3,6.7,1.3,10.3,0.3c3.9-1.1,7.3,1.1,10.1,3.7c4.4,4.1,7.8,9.1,10,14.7c-0.3,0.1-0.6,0.1-0.8,0.2c-0.2-0.2-0.6-0.3-0.7-0.5
		c-2.5-4.5-5.3-8.8-9-12.4c-3.8-3.8-8.2-5.6-13.5-2.6c-1,0.6-1.9,0.3-2.9-0.3c-2.1-1.3-4.4-1.6-6.7-1.1c-3.6,0.8-6,3.4-8.1,6.2
		c-4,5.3-6.9,11.4-9.9,17.3c-0.3,0.6-1.1,1.2-0.5,2.3c1.9-0.8,3.3-2.2,4.7-3.4c4.1-3.4,7.9-7.4,12.8-9.7
		C47.6,88.1,53.6,87.6,59.5,91.2z"/>
	<path class="st2" d="M89,141.4c-0.8,0-1.4,0-1.6-0.7c-0.1-0.6,0.4-0.8,0.9-1c2.3-0.6,4.7-1.2,7-1.8c0.5-0.1,1,0.1,1.2,0.6
		c0.2,0.6-0.3,0.9-0.8,1C93.4,140.2,91.1,140.8,89,141.4z"/>
	<path class="st2" d="M123.5,122.8c-0.1,0.1-0.2,0.4-0.5,0.6c-1.6,1.4-3.2,2.9-4.8,4.3c-0.5,0.5-1.3,1-1.9,0.2
		c-0.5-0.7,0.1-1.2,0.6-1.6c1.6-1.4,3.3-2.8,4.9-4.2c0.4-0.3,0.8-0.5,1.3-0.3C123.4,122,123.6,122.2,123.5,122.8z"/>
	<path class="st2" d="M9.5,52.2c-0.8-0.2-1.1-0.6-0.9-1.3c0.9-2.3,1.8-4.6,2.7-6.9c0.2-0.5,0.5-0.9,1.1-0.6c0.4,0.2,0.7,0.6,0.5,1
		c-0.9,2.5-1.8,4.9-2.8,7.4C10.1,52,9.7,52.1,9.5,52.2z"/>
	<path class="st2" d="M11.6,97.5c0,0.7,0,1.3-0.6,1.4c-0.5,0.1-0.9-0.2-1.1-0.7c-0.8-2.3-1.6-4.7-2.3-7c-0.2-0.5,0.1-1,0.6-1.1
		c0.4-0.1,0.8,0,1,0.5C10,92.9,10.9,95.3,11.6,97.5z"/>
	<path class="st2" d="M133.5,110.3c-0.6,1.6-1.6,2.9-2.7,4c-0.9,1-1.5,3.5-3,2.5c-1-0.7,1-2.3,1.7-3.4c0.8-1.2,1.6-2.4,2.5-3.5
		c0.3-0.4,0.6-0.6,1-0.4C133.3,109.7,133.4,110.1,133.5,110.3z"/>
	<path class="st2" d="M110.7,132.8c-0.2,0.1-0.6,0.4-1,0.6c-1.8,1-3.7,2-5.5,2.9c-0.5,0.3-1.1,0.4-1.5-0.3c-0.3-0.6,0.1-1,0.5-1.2
		c2-1.1,4-2.1,6-3.1C109.6,131.5,110.4,131.3,110.7,132.8z"/>
	<path class="st2" d="M105.6,10.5c-0.2,0.7-0.7,0.9-1.2,0.7c-2.4-0.9-4.8-1.9-7.1-2.9c-0.4-0.2-0.6-0.6-0.4-1
		c0.1-0.5,0.5-0.7,0.9-0.5c2.5,0.8,5,1.7,7.3,3C105.3,10,105.4,10.3,105.6,10.5z"/>
	<path class="st2" d="M20.4,29.9c0.9,0.3,0.9,0.9,0.5,1.5c-1.3,2-2.6,4-4,5.9c-0.3,0.4-0.6,0.8-1.2,0.5c-0.5-0.3-0.7-0.8-0.4-1.2
		c1.4-2.2,2.7-4.5,4.5-6.4C19.9,30.1,20.2,30,20.4,29.9z"/>
	<path class="st2" d="M143.1,57.9c-0.1,0.8,0.1,1.4-0.6,1.5c-0.7,0.1-1-0.3-1.1-0.9c-0.6-2.2-1.2-4.5-1.8-6.7
		c-0.1-0.5-0.2-1,0.4-1.2c0.7-0.3,1.1,0.2,1.3,0.8C142,53.7,142.6,56,143.1,57.9z"/>
	<path class="st2" d="M76.4,141c1.2-0.1,2.4-0.2,3.6-0.2c0.5,0,1,0.2,1,0.8c0.1,0.6-0.5,0.8-0.9,0.9c-2.4,0.2-4.8,0.6-7.2,0.3
		c-0.6-0.1-1.2-0.3-1.2-1c0-0.7,0.8-0.7,1.3-0.7C74.2,141,75.3,141,76.4,141C76.4,141,76.4,141,76.4,141z"/>
	<path class="st2" d="M129.9,30.3c-0.2,0.2-0.3,0.5-0.6,0.6c-0.2,0.1-0.7-0.1-0.8-0.2c-1.7-1.8-3.3-3.7-4.9-5.6
		c-0.3-0.3-0.4-0.7,0-1.1c0.3-0.3,0.8-0.3,1.1,0c1.8,1.8,3.6,3.6,5.1,5.8C129.8,29.9,129.8,30.1,129.9,30.3z"/>
	<path class="st2" d="M138.1,43.5c0,0.6-0.1,1-0.5,1.1c-0.5,0.2-0.8-0.1-1-0.4c-1.2-2.2-2.3-4.4-3.4-6.5c-0.2-0.4-0.3-0.9,0.2-1.2
		c0.4-0.2,0.9-0.1,1.1,0.3C135.9,38.9,137.2,41.1,138.1,43.5z"/>
	<path class="st2" d="M118.9,19.1c-0.2,0.9-0.9,0.9-1.5,0.5c-2-1.3-4-2.7-6-4c-0.4-0.3-0.9-0.7-0.5-1.2c0.2-0.3,0.7-0.4,1.1-0.4
		c1,0,6.4,3.8,6.7,4.7C118.8,18.8,118.9,18.9,118.9,19.1z"/>
	<path class="st2" d="M88.8,6.2c-1.9-0.8-4.1-0.8-6.4-1.1c-0.5-0.1-1.2-0.4-1-1.1c0.1-0.6,0.7-0.6,1.2-0.6c2.4,0,4.7,0.7,7.1,1.1
		c0.6,0.1,0.9,0.5,0.7,1C90.2,6.3,89.6,6.2,88.8,6.2z"/>
	<path class="st2" d="M18.8,113c-3-2-4.3-5-5.2-8.2c0.5,0,1,0,1.5,0.1c1.4,2.4,2.8,4.8,4.1,7.3C19.1,112.4,18.9,112.7,18.8,113z"/>
	<path class="st2" d="M48.9,148.9c1.5,0,2.9-0.1,4.4-0.1C51.8,150.3,50.3,150.3,48.9,148.9z"/>
	<path class="st2" d="M15,104.9c-0.5,0-1,0-1.5-0.1c0.1-0.4,0.2-0.8,0.7-0.8C14.9,103.9,15,104.4,15,104.9z"/>
	<path class="st2" d="M64.4,139.2c0-0.6,0.3-1,0.8-1.3C65.3,138.6,65.2,139.1,64.4,139.2z"/>
	<path class="st2" d="M18.8,113c0.1-0.3,0.3-0.6,0.4-0.9c0.3,0.1,0.7,0.3,0.4,0.6C19.5,112.9,19.1,112.9,18.8,113z"/>
	<path class="st2" d="M36.4,136c0.5,0.3,0.8,0.7,0.8,1.3C36.4,137.1,36.3,136.6,36.4,136z"/>
	<path class="st2" d="M42.6,145.9c0.2,0.2,0.3,0.3,0.5,0.5C42.9,146.2,42.8,146.1,42.6,145.9z"/>
	<path class="st2" d="M27.5,27.6c0.7,0.9,1.1,1.8-0.4,2.4C27.1,29.2,27,28.3,27.5,27.6z"/>
	<path class="st2" d="M27.2,34.8c1.3,0.5,1.1,1.2,0.3,2C27,36.2,27.1,35.5,27.2,34.8z"/>
	<path class="st2" d="M49.1,61.5c0.8,0,1.8-0.5,2.2,0.8C50.5,62.2,49.6,62.5,49.1,61.5z"/>
	<path class="st2" d="M44.9,60c0.7-0.1,1.4-0.2,1.6,0.8C45.7,61,45.1,60.8,44.9,60z"/>
	<path class="st2" d="M34.3,51.8c1-0.1,1.1,0.6,1.1,1.3C34.7,52.9,34.4,52.4,34.3,51.8z"/>
	<path class="st2" d="M29.4,21.5c0.1,0.7,0,1.1-0.8,1.2C28.6,22.1,28.9,21.7,29.4,21.5z"/>
	<polygon class="st2" points="42.4,59 42.5,59.1 42.4,59.2 	"/>
	<path class="st2" d="M43.5,59.5c0.2,0.1,0.3,0.3,0.5,0.4C43.7,59.9,43.6,59.7,43.5,59.5z"/>
	<path class="st2" d="M32.6,113.5c0.3,1.5,0.2,2.9,0.1,4.4C31.6,116.5,31.7,115,32.6,113.5z"/>
	<path class="st2" d="M64.7,97.5c0.1-0.3,0.2-0.6,0.3-0.9c0.2,0.2,0.6,0.4,0.6,0.5C65.5,97.7,65.1,97.6,64.7,97.5z"/>
	<path class="st2" d="M23.8,108.2c0,0-0.1-0.1-0.1-0.1C23.7,108.2,23.7,108.2,23.8,108.2C23.7,108.3,23.8,108.2,23.8,108.2z"/>
	<path class="st2" d="M44.6,37.8c1.4-1.4,2.9-2.9,4.3-4.3c1.3-0.7,1.2-1.4,0-2.2c-1.7-1.7-2.9-3.8-5.3-4.7l0,0
		c-0.3-1.5-1.6-2.3-2.5-3.4c-3.6-4.2-2.2-8.3,3.4-9.5c0.3,0.3,0.6,0.3,1,0.3c0.8,0.4,1.6,0.8,2.3,1.1c0.2,0.2,0.4,0.3,0.5,0.5
		c2.7,2.8,5.4,5.5,8.1,8.3c0.9,1,1.6,0.7,2.4-0.1c2.5-2.5,5-5,7.5-7.5c1-1,2-1.8,3.4-2.2c0.8,0,1.6,0,2.4,0c1.5,0.4,2.7,1.1,3.4,2.5
		c-0.1,0.4,0,0.8,0.4,1c0.4,2.5-0.4,4.5-2.3,6.2c-2.6,2.3-4.8,5-7.3,7.4c-1.1,1.1-0.9,1.8,0.1,2.7c3.1,3.1,6.1,6.2,9.2,9.3
		c0,0.4,0.1,0.8,0.5,0.9c0.3,4.8-1.7,7.1-5.8,6.8c-1.7-0.1-2.7-1.3-3.8-2.3c-2.3-2.2-4.6-4.5-6.8-6.8c-1.4-1.5-2.3-1.9-3.9,0
		c-2,2.4-4.4,4.4-6.5,6.7c-1.9,2.1-4.2,3.2-6.9,2.1c-2.8-1.1-3.3-3.7-3-6.4c0.2-0.3,0.3-0.6,0.5-1c1.1-1.3,2.3-2.5,3.4-3.8
		C43.8,38.9,44.3,38.4,44.6,37.8z M71,49c1.5,0.1,2.4-0.6,3.1-1.8c0.7-1.2,0.6-2.4-0.3-3.3c-3-3.2-6-6.4-9.3-9.5
		c-1.7-1.6-1.6-2.5,0.1-4c3.2-3,6.2-6.3,9.2-9.5c1-1.1,1.3-2.4,0.2-3.7c-1.2-1.3-2.6-2.1-4.3-1.2c-1,0.5-1.8,1.3-2.6,2.1
		c-2.6,2.5-5.2,5-7.6,7.7c-1.3,1.4-2.1,1.5-3.5,0.1c-2.7-2.9-5.5-5.6-8.3-8.4c-2-2-4.1-2.4-5.7-0.9c-1.5,1.4-1.2,3.8,0.7,5.7
		c2.8,2.9,5.6,5.7,8.5,8.5c1.3,1.2,1.1,2,0,3.2c-2.4,2.3-4.7,4.6-7,7c-0.7,0.7-1.4,1.4-2,2.1c-1.5,1.8-1.6,3.8-0.2,5.2
		c1.4,1.3,3.5,1.2,5.2-0.4c3.1-3,6.1-6,9-9.1c1.1-1.2,1.8-1.1,2.9,0c2.9,3,5.9,5.9,8.9,8.8C68.8,48.4,69.7,49.1,71,49z"/>
	<path class="st2" d="M39.7,43c-0.2,0.3-0.3,0.6-0.5,1C38.5,43.3,39,43.1,39.7,43z"/>
	<path class="st2" d="M47.4,33.3c-0.1,0-0.1-0.1-0.2-0.1c0.1,0,0.1-0.1,0.2-0.1c0.1,0,0.1,0.1,0.2,0.1
		C47.5,33.2,47.5,33.2,47.4,33.3z"/>
	<path class="st2" d="M48.4,15.6c-0.2-0.2-0.4-0.3-0.5-0.5C48,15.2,48.2,15.4,48.4,15.6z"/>
</g>
</svg>
