<?xml version="1.0" encoding="utf-8"?>
<!-- Generator: Adobe Illustrator 24.3.0, SVG Export Plug-In . SVG Version: 6.00 Build 0)  -->
<svg version="1.1" id="Layer_1" xmlns="http://www.w3.org/2000/svg" xmlns:xlink="http://www.w3.org/1999/xlink" x="0px" y="0px"
	 viewBox="0 0 150 150" style="enable-background:new 0 0 150 150;" xml:space="preserve">
<style type="text/css">
	.st0{fill:#CDEEFD;}
	.st1{fill:#111224;}
	.st2{fill:#005BAB;}
</style>
<path class="st0" d="M1465.3,1556.3c-2.4-0.2-4.3-1.3-4.4-4.1c-0.1-6.7,1.6-10,4.9-9.9c0.2,0,0.3,0,0.5,0c2.2,0.5,4.3,2.1,3.2,4
	C1467.7,1549.5,1473.1,1555.7,1465.3,1556.3z M1465.5,1554.4c1.3-0.1,2.3-0.6,2.3-2.1c-0.1-1.7-1.5-2.1-2.8-2.4c-1.6-0.4-2,0.8-2,2
	C1463,1553.5,1464,1554.2,1465.5,1554.4z M1467.8,1546.5c0-1.4-0.6-2.2-2.1-2.2c-0.9,0-1.6,0.4-1.7,1.4c-0.2,1.4,0.9,2.1,2,2.5
	C1467.3,1548.5,1467.6,1547.5,1467.8,1546.5z"/>
<path class="st0" d="M1455.8,1556.6c-0.5-2.9-1.8-4.2-4.6-3.6c-0.7,0.2-1.7,0.3-2.1-0.8c-0.4-1.1,0.1-1.5,1.2-2.1
	c2.1-1.2,2.1-3.9,3.2-5.8c0.6-1,1-2.2,2.5-1.9c1.4,0.3,0.9,1.6,0.8,2.5C1456.4,1548.6,1458.4,1552.5,1455.8,1556.6z"/>
<path class="st1" d="M1465.5,1554.4c-1.5-0.1-2.6-0.8-2.5-2.4c0-1.2,0.4-2.4,2-2c1.2,0.3,2.7,0.7,2.8,2.4
	C1467.8,1553.7,1466.8,1554.2,1465.5,1554.4z"/>
<path class="st1" d="M1467.8,1546.5c-0.2,1-0.5,2.1-1.8,1.7c-1.1-0.4-2.1-1-2-2.5c0.1-1,0.8-1.4,1.7-1.4
	C1467.2,1544.3,1467.8,1545,1467.8,1546.5z"/>
<polygon class="st2" points="1346.8,29.4 1346.9,29.6 1346.6,29.6 "/>
<g>
	<path class="st2" d="M127.6,60.3c-0.1,0.6-0.3,1.3-0.4,1.9c-0.6,3.3-1.9,6.4-3.9,9.1c-3.6,5-3.5,10-0.3,15.1
		c1.6,2.5,2.4,5.2,2.4,8.2c-0.2,5.6-5.8,9.3-11,7.3c-0.5-0.2-1.1-0.4-1.7-0.7c-0.4,1.3-0.8,2.5-1.3,3.7c-0.7,2.2-1.5,2.5-3.8,2.1
		c-4-0.8-8.1-1.4-12.1-2.1c-1.3-0.2-2.5,0.2-2.9,1.6c-0.4,1.3,0.3,2.2,1.3,3c2.2,1.6,4.4,3.3,6.6,4.9c1.7,1.3,1.8,2.5,0.5,4.1
		c-3,3.6-5.9,7.2-9,10.7c-4.4,5.2-11.3,5.2-15.7,0c-3.1-3.6-6.2-7.2-9.4-11c-3.1,4.8-6.6,9.4-4.5,15.6c0.5,1.5,1.4,3,2.4,4.4
		c1.8,2.5,3.9,4.9,5.9,7.5c-1.2,1-2.4,1.9-3.7,3c-1-1.2-2-2.3-2.8-3.5c-0.6-0.9-1.4-1.3-2.5-1.5c-5.3-0.8-10.7-1.6-15.7-3.6
		c-11-4.2-19.6-11.2-25.9-21.1c-0.3-0.4-0.5-0.8-0.9-1.3c-4.9,5.7-9.6,11.2-14.5,16.9c-1.2-1-2.3-2-3.6-3c3-3.5,5.8-6.8,8.7-10.2
		c5.9-6.9,11.8-13.8,17.7-20.7c0.7-0.8,0.8-1.5,0.5-2.5c-4.3-13.6-6.4-27.5-6.4-41.7c0-9.9,2.5-19.1,7.4-27.7
		c0.2-0.3,0.3-0.6,0.5-0.9c0,0,0-0.1,0-0.3c-1-0.3-2.1-0.5-3.1-0.9c-2.3-0.8-4.7-1.5-6.8-2.7c-3.9-2.2-3.8-5.9,0.1-8.2
		c3.6-2.1,7.5-3.1,11.5-3.8c4.9-0.9,9.9-1.4,14.8-2.2c0.8-0.1,1.5-0.4,2.2-0.7c8.8-5.3,18.4-8,28.7-8c8.2,0,16.4,0,24.6,0
		c10.9,0,20.8,3.3,29.7,9.8c0.8,0.6,1.9,0.8,3,1.1c3.3,1,6.6,1.8,9.9,2.8c1.2,0.4,2.4,1.2,3.4,2.1c2,1.7,2,4.5,0,6.2
		c-1.4,1.2-3.1,2-4.7,3c0.4,2,1,4,1.2,6.2c1.1,13.1-2.3,25.1-9.4,36c-0.4,0.7-1.7,1.3-2.4,1.2c-0.7-0.1-1.6-1.1-1.9-1.9
		c-0.9-2.4-1.5-4.8-2.2-7.2C127.8,60.3,127.7,60.3,127.6,60.3z M64,88.5c-1-0.1-1.8-0.2-2.6-0.3c-1-0.2-2-0.5-3-0.9
		c-0.7-0.3-1.2-0.3-1.8,0.4c-6.4,7-14.2,11.8-23.4,14.4c-0.6,0.2-1.1,0.6-1.5,1c-2.9,3.3-5.7,6.6-8.6,9.9c-0.7,0.8-0.6,1.3-0.1,2.2
		c5.9,10,14.3,17.1,25.3,21c3.4,1.2,7,1.8,10.8,2.8c-0.3-0.7-0.3-0.9-0.4-1.2c-2.6-5.8-2.2-11.4,1.1-16.9c1.1-1.8,2.1-3.6,3.3-5.4
		c0.5-0.7,0.5-1.3,0-2c-1.1-1.5-2.1-3.2-3.3-4.9c1.3-0.9,2.6-1.7,3.8-2.6c0.2,0.2,0.4,0.4,0.5,0.5c4.4,7.3,10.3,13.3,15.8,19.8
		c2.4,2.9,6.1,2.8,8.6,0c0.8-0.9,1.6-1.9,2.4-2.8c1.7-2.1,3.5-4.2,5.3-6.4c-2-1.5-3.8-2.8-5.6-4.3c-2.3-1.9-3.2-4.3-2.5-7.2
		c0.7-3,2.7-4.8,5.7-5.3c1.4-0.2,2.9-0.2,4.4,0c3.1,0.4,6.2,1,9.4,1.5c0.5-1.4,1-3,1.5-4.5c0.7-1.8,1.9-2.4,3.7-1.5
		c1,0.5,1.9,1,2.9,1.4c2.8,1.3,5.5-0.4,5.1-3.5c-0.3-1.9-1.1-3.8-2-5.4c-3.4-6.2-4.1-12.6,0.1-18.4c4.8-6.6,4.4-13.7,4.2-21.1
		c-3.1,2.2-5.9,4.5-9,6.5c-14.3,9.3-29.9,13.9-47,14.2c-1.5,0-2.2-0.7-2.9-1.9c-0.8-1.4-1.9-2.9-3.2-3.9c-2.4-1.7-5.1-1.8-7.6-0.3
		c-2.5,1.5-3.5,3.9-3.2,6.8c0.3,3.4,1.7,6.3,4.3,8.6c2.8,2.5,5.7,4.8,9.7,4.8C64,85.3,64,86.8,64,88.5z M32.5,97.4
		c8.4-2.5,15.2-6.8,20.9-13.1c-3.1-2.3-5.5-4.9-6.8-8.4c-1.4-3.7-2-7.5-0.3-11.3c1.8-4,5.1-6.4,9.5-6.7c5-0.4,8.9,1.7,11.6,5.8
		c0.5,0.7,0.9,1.2,1.9,1.2c14.1-0.6,27.4-4.3,39.4-11.8c5.2-3.2,9.9-7.2,14.8-10.9c1.9-1.4,3.6-1,4.3,1.3c0.5,1.6,1,3.3,1.5,4.9
		c1.3,4.3,2.6,8.5,3.8,12.8c5.4-10.7,8.3-21.8,5.1-33.8c-0.6,0.1-0.8,0.1-1.1,0.1c-8.7,2-17.6,2.9-26.5,3.4c-11,0.6-22,0.9-33,0.9
		c-13.8,0.1-27.6-1-41.2-3c-1.1-0.2-1.6,0.1-2.2,1c-4.9,8.1-7.6,16.8-7.7,26.2c-0.1,9.3,0.8,18.5,2.7,27.6
		C30.1,88.2,31.3,92.7,32.5,97.4z M38,24.4c32.9,3.9,65.3,3.9,98-1.3c-1.6-2.8-3.4-4.9-5.5-6.7c-8-6.7-17.3-10.2-27.7-10.4
		c-8.4-0.2-16.9,0-25.3,0C68,5.9,59.1,8.3,51,13.1C46.1,16.1,41.8,19.7,38,24.4z M22.2,19.8c0,0.2-0.1,0.5-0.1,0.7
		c2.6,0.8,5.2,1.5,7.8,2.3c1.9,0.6,3.3,0.4,4.4-1.5c0.6-1,1.5-1.8,2.3-2.7c1-1,2.1-1.8,3.2-2.8c-0.1-0.2-0.3-0.3-0.4-0.5
		C33.6,16.5,27.6,17.2,22.2,19.8z M143.9,19.9c-1.8-0.7-3.5-1.4-5.6-2.2C140.5,21.9,141.1,22.2,143.9,19.9z"/>
	<path class="st2" d="M148.7,147.3c-1.5,0-2.9,0-4.5,0c0-1.1,0-2.2,0-3.3c0.1-4.7-0.1-9.3-1.8-13.8c-4.4-11.4-12.6-18.3-24.7-20.3
		c-0.6-0.1-1.2-0.2-1.9-0.3c0.1-1.5,0.2-3,0.3-4.6c9,0.8,16.5,4.4,22.7,10.7C147.4,124.5,149.8,135.3,148.7,147.3z"/>
	<path class="st2" d="M103,120.9c0.7-1.2,1.5-2.5,2.2-3.7c8.6,3.2,14.4,16.7,12.9,30c-1.4,0-2.9,0-4.6,0c0-0.5,0-1.1,0-1.6
		c-0.1-3.3,0.1-6.6-0.5-9.8c-1-5.9-4.2-10.6-9.1-14c-0.3-0.2-0.6-0.4-0.8-0.6C103.1,121.1,103.1,121.1,103,120.9z"/>
	<path class="st2" d="M139.4,140c-1.5,0.2-3,0.4-4.6,0.7c-0.3-2-0.6-3.8-0.9-5.7c-0.8-5.9-3.9-10.4-9-13.4c-0.2-0.1-0.3-0.2-0.6-0.4
		c0.7-1.4,1.3-2.7,2-4C134.2,120.9,138.5,127.5,139.4,140z"/>
	<path class="st2" d="M19.4,3.6c1.5,0,3,0,4.5,0c0,1.5,0,3,0,4.6c-1.5,0-3,0-4.5,0C19.4,6.7,19.4,5.2,19.4,3.6z"/>
	<path class="st2" d="M137.2,3.6c1.5,0,3,0,4.5,0c0,1.5,0,3,0,4.6c-1.5,0-3,0-4.5,0C137.2,6.7,137.2,5.2,137.2,3.6z"/>
	<path class="st2" d="M14.5,29.4c-1.5,0-3,0-4.5,0c0-1.5,0-3,0-4.5c1.5,0,2.9,0,4.5,0C14.5,26.4,14.5,27.8,14.5,29.4z"/>
	<path class="st2" d="M90.1,81.3c0-1.6,0-3.1,0-4.7c2.7,0,5.3,0,8.3,0c-2-1.9-3.7-3.5-5.4-5.2c1.3-1.3,2.4-2.3,3.6-3.4
		c3.1,3.1,6.3,6.2,9.3,9.4c0.5,0.5,0.6,1.8,0.3,2.4c-0.3,0.7-1.4,1.4-2.1,1.4C99.5,81.4,94.8,81.3,90.1,81.3z"/>
	<path class="st2" d="M54.7,76.6c0-1.5,0-3,0-4.6c2.6-0.5,2.4-2.6,2.3-4.7c1.6,0,3.1,0,4.6,0C62.6,72.2,59.6,76.4,54.7,76.6z"/>
	<path class="st2" d="M71.1,36.6c0,1.5,0,3,0,4.5c-1.5,0-3,0-4.6,0c0-1.4,0-2.9,0-4.5C68,36.6,69.5,36.6,71.1,36.6z"/>
	<path class="st2" d="M42.9,43.6c0-1.5,0-3,0-4.6c1.5,0,3,0,4.7,0c0,1.5,0,3.1,0,4.6l0,0C46,43.6,44.4,43.6,42.9,43.6L42.9,43.6z"/>
	<path class="st2" d="M42.9,48.3c-1.5,0-3,0-4.6,0c0-1.5,0-3,0-4.7c1.5,0,3.1,0,4.6,0c0,0,0,0,0,0C42.8,45.2,42.8,46.8,42.9,48.3
		L42.9,48.3z"/>
	<path class="st2" d="M47.5,43.6c1.5,0,3,0,4.6,0c0,1.5,0,3,0,4.7c-1.5,0-3.1,0-4.6,0l0,0C47.6,46.8,47.6,45.2,47.5,43.6L47.5,43.6z
		"/>
	<path class="st2" d="M47.6,48.3c0,1.5,0,3,0,4.6c-1.5,0-3,0-4.7,0c0-1.5,0-3.1,0-4.6l0,0C44.4,48.4,46,48.4,47.6,48.3L47.6,48.3z"
		/>
	<path class="st2" d="M87.7,15.3c0-1.5,0-3,0-4.6c1.5,0,3,0,4.7,0c0,1.5,0,3.1,0,4.6l0,0C90.8,15.3,89.2,15.3,87.7,15.3L87.7,15.3z"
		/>
	<path class="st2" d="M111.3,13c1.6,0,3,0,4.5,0c0,1.5,0,3,0,4.5c-1.5,0-2.9,0-4.5,0C111.3,16.1,111.3,14.6,111.3,13z"/>
	<path class="st2" d="M87.7,20c-1.5,0-3,0-4.6,0c0-1.5,0-3,0-4.7c1.5,0,3.1,0,4.6,0l0,0C87.6,16.9,87.6,18.5,87.7,20L87.7,20z"/>
	<path class="st2" d="M92.3,15.3c1.5,0,3,0,4.6,0c0,1.5,0,3,0,4.7c-1.5,0-3.1,0-4.6,0l0,0C92.4,18.5,92.4,16.9,92.3,15.3L92.3,15.3z
		"/>
	<path class="st2" d="M92.3,20c0,1.5,0,3,0,4.6c-1.5,0-3,0-4.7,0c0-1.5,0-3.1,0-4.6c0,0,0,0,0,0C89.2,20.1,90.8,20.1,92.3,20
		L92.3,20z"/>
</g>
</svg>
