<?xml version="1.0" encoding="utf-8"?>
<!-- Generator: Adobe Illustrator 24.3.0, SVG Export Plug-In . SVG Version: 6.00 Build 0)  -->
<svg version="1.1" id="Layer_1" xmlns="http://www.w3.org/2000/svg" xmlns:xlink="http://www.w3.org/1999/xlink" x="0px" y="0px"
	 viewBox="0 0 150 150" style="enable-background:new 0 0 150 150;" xml:space="preserve">
<style type="text/css">
	.st0{fill:#CDEEFD;}
	.st1{fill:#111224;}
	.st2{fill:#005BAB;}
</style>
<path class="st0" d="M1465.3,1556.3c-2.4-0.2-4.3-1.3-4.4-4.1c-0.1-6.7,1.6-10,4.9-9.9c0.2,0,0.3,0,0.5,0c2.2,0.5,4.3,2.1,3.2,4
	C1467.7,1549.5,1473.1,1555.7,1465.3,1556.3z M1465.5,1554.4c1.3-0.1,2.3-0.6,2.3-2.1c-0.1-1.7-1.5-2.1-2.8-2.4c-1.6-0.4-2,0.8-2,2
	C1463,1553.5,1464,1554.2,1465.5,1554.4z M1467.8,1546.5c0-1.4-0.6-2.2-2.1-2.2c-0.9,0-1.6,0.4-1.7,1.4c-0.2,1.4,0.9,2.1,2,2.5
	C1467.3,1548.5,1467.6,1547.5,1467.8,1546.5z"/>
<path class="st0" d="M1455.8,1556.6c-0.5-2.9-1.8-4.2-4.6-3.6c-0.7,0.2-1.7,0.3-2.1-0.8c-0.4-1.1,0.1-1.5,1.2-2.1
	c2.1-1.2,2.1-3.9,3.2-5.8c0.6-1,1-2.2,2.5-1.9c1.4,0.3,0.9,1.6,0.8,2.5C1456.4,1548.6,1458.4,1552.5,1455.8,1556.6z"/>
<path class="st1" d="M1465.5,1554.4c-1.5-0.1-2.6-0.8-2.5-2.4c0-1.2,0.4-2.4,2-2c1.2,0.3,2.7,0.7,2.8,2.4
	C1467.8,1553.7,1466.8,1554.2,1465.5,1554.4z"/>
<path class="st1" d="M1467.8,1546.5c-0.2,1-0.5,2.1-1.8,1.7c-1.1-0.4-2.1-1-2-2.5c0.1-1,0.8-1.4,1.7-1.4
	C1467.2,1544.3,1467.8,1545,1467.8,1546.5z"/>
<polygon class="st2" points="1346.8,29.4 1346.9,29.6 1346.6,29.6 "/>
<g>
	<path class="st2" d="M143.6,0.3c3,0.9,5.3,2.7,5.9,6c0.1,0.7,0.2,1.4,0.2,2.2c0,19.5,0,39,0,58.5c0,5-3.1,8.1-8.1,8.1
		c-12.4,0-24.9,0-37.3,0c-0.6,0-1.1,0-1.9,0c0,0.7,0,1.3,0,1.9c0,15.9,0,31.8,0,47.7c0,10.7-6.4,20-16.2,23.5
		c-2.5,0.9-5.3,1.4-8,1.6c-5.4,0.2-10.9,0.1-16.3,0.1c-12-0.2-22.4-9.5-24-21.4c-0.1-0.5-0.5-1.2-0.9-1.3c-4.8-1.5-7.7-4.7-9.1-9.6
		c-0.7,0-1.5,0-2.3,0c-5.4,0-10.8-0.1-16.2,0c-4.1,0.1-7.6-1.2-9.1-6.2c0-3.7,0-7.4,0-11.1c0.1-0.2,0.2-0.3,0.2-0.5
		C2.4,89.2,9,82.3,19.2,80.4c1.1-0.2,2.3-0.3,3.7-0.5c-3.1-3.7-4.7-7.8-5.2-12.3C11.7,67,8.4,64.5,7.9,60c-0.2-2.1,0.1-4.2,1.3-6
		c2-3,5-4.1,8.5-4c0.1-8.4,3.4-14.9,10.4-19.2c7-4.2,14.4-4,22-1.3c0-0.7,0-1.2,0-1.7c0-6.6,0-13.2,0-19.8c0-3.2,1.4-5.5,4.2-6.9
		c0.5-0.3,1.1-0.5,1.7-0.8C85.2,0.3,114.4,0.3,143.6,0.3z M62.1,70c0.5,0,1,0,1.4,0c26,0,51.9,0,77.9,0c2.4,0,3.3-0.9,3.3-3.2
		c0-19.5,0-38.9,0-58.4c0-2.3-0.9-3.2-3.2-3.2c-27.8,0-55.5,0-83.3,0c-2.2,0-3.1,0.9-3.1,3.1c0,7.8,0,15.7,0,23.5
		c0,0.6,0.3,1.4,0.8,1.9c3.4,3.4,5.6,7.3,6.3,12.1c0.2,1.4,0.3,2.9,0.4,4.3c6.5,0.7,9.8,3.6,9.8,8.7c0.1,5.1-3.1,7.9-10,9
		C62.4,68.3,62.3,69.1,62.1,70z M57.5,79.9c0.8,0.1,1.5,0.2,2.2,0.3c9.3,1,17.1,7.7,19.5,16.8c1.1,4.1,0.7,8.2,0.7,12.3
		c0,4.8-3.1,7.9-7.9,7.9c-5.1,0-10.1,0-15.2,0c-1.5,0-3,0-4.5,0c-1.3,5.2-4.6,8.3-9.6,9.7c0.1,0.6,0.1,1,0.2,1.4
		c1.8,9.2,9.9,16.1,19.3,16.2c4.8,0.1,9.6,0,14.4,0c12.1,0,20.7-8.6,20.7-20.7c0-15.8,0-31.6,0-47.4c0-0.5,0-1,0-1.5
		c-0.2-0.1-0.3-0.2-0.3-0.2c-12,0-23.9,0-35.9,0c-0.3,0-0.8,0.3-1,0.6C59.3,77,58.5,78.4,57.5,79.9z M67.5,112.1
		c0.3,0.1,0.4,0.2,0.5,0.2c1.4,0,2.8,0,4.2,0c1.7,0,2.7-1,2.7-2.8c0-2.6,0.1-5.2,0-7.7c-0.3-5.1-2.4-9.4-6.4-12.8
		c-5.1-4.3-11.2-4.4-17.4-4.1c-0.3,0-0.6,0.3-0.9,0.4c-6.7,2.9-13.4,2.9-20.1,0c-0.6-0.3-1.3-0.4-1.9-0.5c-1.7-0.1-3.4,0-5.1,0
		c-7.4,0.1-14,4.7-16.6,11.4c-1.7,4.5-1.1,9.2-1.1,13.9c0,1.1,0.9,1.9,2,2c1.8,0.1,3.6,0,5.4,0c0-1.6,0-3,0-4.4c0-1.9,0.9-3,2.4-3
		c1.6,0,2.6,1.1,2.6,3c0,1.4,0,2.9,0,4.3c3.4,0,6.7,0,9.9,0c0.3-1.7,0.1-2.9-1.7-3.8c-2.8-1.6-3.9-5.2-2.9-8.3
		c1-3.1,3.9-5.2,7.2-5.2c3.2,0,6.2,2.2,7.1,5.3c0.9,3.2-0.1,6.7-3,8.3c-1.8,1-1.8,2.2-1.5,3.8c4.9,0,9.8,0,14.7,0
		c0.4-1.7,0.2-2.9-1.6-3.8c-2.9-1.6-3.9-5.3-2.9-8.4c1-3.1,4-5.2,7.2-5.1c3.3,0.1,6.2,2.3,7.1,5.5c0.9,3.1-0.4,6.5-3.2,8.2
		c-1.7,1.1-1.9,1.5-1.3,3.6c3.2,0,6.4,0,9.7,0c0-1.6,0-3.1,0-4.5c0-1.7,1-2.8,2.5-2.8c1.5,0,2.4,1.1,2.5,2.8
		C67.5,109.2,67.5,110.7,67.5,112.1z M22.7,55.5c0,3.3,0,6.5,0,9.7c0,9.8,6.6,16.7,16.4,17.2c8.3,0.4,15.3-4,17.6-11.5
		c1.4-4.3,0.6-8.7,0.8-13c-5.1-0.9-8.9-3.4-11.6-7.4C39,55.9,30.9,55.5,22.7,55.5z M57.4,52.8c0.7-7.5-1.3-13.8-7.9-17.7
		c-6.4-3.7-13.2-3.6-19.5,0.4c-5.3,3.4-7.5,8.5-7.3,15c1.6,0,3,0,4.5,0c3.9,0,7.9-0.2,11.6-1.6c2.4-0.9,4.4-2.1,4.5-5.1
		c0-1.3,1-2,2.3-2.1c1.2-0.1,2,0.5,2.5,1.7c0.1,0.4,0.2,0.7,0.4,1.1C50.1,48.7,53,51.5,57.4,52.8z M46.9,117.4c-4.6,0-9.1,0-13.6,0
		c0.8,2.9,3.7,4.9,6.9,4.9C43.3,122.2,46.2,120.2,46.9,117.4z M62.6,62.4c1.9,0.3,3.4-0.1,4.4-1.7c0.8-1.2,0.6-3-0.2-4.1
		c-1-1.3-2.4-1.7-4.2-1.2C62.6,57.6,62.6,59.9,62.6,62.4z M17.7,55.2c-1.9-0.3-3.5,0.2-4.4,1.8c-0.8,1.3-0.7,2.7,0.2,4
		c1,1.4,2.5,1.8,4.2,1.4C17.7,60,17.7,57.6,17.7,55.2z M30.1,104.8c1.4,0,2.5-1.1,2.5-2.5c0-1.4-1.2-2.5-2.5-2.5
		c-1.3,0-2.4,1.1-2.4,2.4C27.7,103.7,28.7,104.8,30.1,104.8z M52.6,102.3c0-1.4-1.2-2.5-2.5-2.4c-1.3,0.1-2.4,1.2-2.4,2.5
		c0,1.4,1.1,2.5,2.5,2.5C51.5,104.8,52.6,103.7,52.6,102.3z"/>
	<path class="st2" d="M107.7,24c-0.4,0.9-0.6,1.5-0.9,2.2c-3.9,10.5-7.8,20.9-11.7,31.4c-0.1,0.2-0.2,0.4-0.2,0.5
		c-0.4,1.1-1.1,1.8-2.3,1.9c-1.2,0.1-2-0.6-2.5-1.7c-2.8-5.6-5.6-11.2-8.4-16.8c-0.5-1.1-1.1-1.5-2.3-1.4c-3.5,0.1-7.1,0-10.6,0
		c-0.4,0-0.9,0-1.3,0c-1.5-0.2-2.4-1.1-2.3-2.5c0-1.3,0.9-2.4,2.4-2.4c2.3-0.1,4.7,0,7,0c2.5,0,5,0,7.4,0c1.5,0,2.4,0.6,3.1,1.9
		c2.1,4.2,4.2,8.4,6.3,12.6c0.2,0.4,0.4,0.9,0.8,1.5c0.3-0.7,0.5-1.2,0.7-1.7c4-10.6,8-21.2,11.9-31.8c0.1-0.2,0.1-0.4,0.2-0.5
		c0.4-1.2,1.2-1.9,2.4-2c1.2,0,1.9,0.7,2.5,1.7c2.8,5.6,5.6,11.2,8.4,16.8c0.5,1,1,1.4,2.2,1.4c5.2-0.1,10.5,0,15.8,0
		c0.6,0,1.2,0,1.7,0.1c1.2,0.3,1.8,1.1,1.9,2.3c0,1.2-0.6,2.1-1.9,2.4c-0.5,0.1-1.1,0.1-1.6,0.1c-6,0-12,0-17.9,0
		c-1.8,0-2.9-0.6-3.7-2.2c-2-4.1-4.1-8.2-6.1-12.3C108.3,25.2,108.1,24.7,107.7,24z"/>
</g>
</svg>
