<?xml version="1.0" encoding="utf-8"?>
<!-- Generator: Adobe Illustrator 24.3.0, SVG Export Plug-In . SVG Version: 6.00 Build 0)  -->
<svg version="1.1" id="Layer_1" xmlns="http://www.w3.org/2000/svg" xmlns:xlink="http://www.w3.org/1999/xlink" x="0px" y="0px"
	 viewBox="0 0 150 150" style="enable-background:new 0 0 150 150;" xml:space="preserve">
<style type="text/css">
	.st0{fill:#075CAA;}
</style>
<g>
	<path class="st0" d="M33.4,98.6c-8.6-5.9-13.9-13.7-15.8-23.9c-1.3-0.1-2.6,0-3.8-0.2c-6.1-0.9-9.7-6.7-8.1-12.7
		c0.2-0.6-0.1-1.4-0.4-2c-5.6-9.4-6.5-19.1-1.9-29.1c2.6-5.8,7.2-9.1,13.7-9.5c0.6,0,1.3-0.7,1.6-1.2c2.6-4.3,5.6-8.2,9.5-11.2
		c6.3-4.9,13.6-6.4,21.4-5.9c9,0.5,17.5,3.3,26.1,5.4c4.7,1.2,9.5,2.2,14.3,2.9c5.3,0.7,10.3-0.2,14.6-3.6c2-1.5,4.2-0.5,4.3,1.9
		c0.4,11.2-0.3,22.2-3.8,33c-1.7,5.3-4.1,10.4-7.1,15.1c-0.5,0.8-0.7,1.4-0.2,2.3c3.5,6.7-0.9,14.2-8.5,14.6
		c-2.6,0.1-2.6,0.1-3.2,2.5c-2.1,8.7-6.8,15.6-14,20.8c-0.3,0.2-0.7,0.5-1.2,0.9c8.8,4,18.3,6.4,24.6,14.5c0.4-0.3,0.8-0.6,1.2-1
		c9.1-7.8,19.9-7.7,28.9,0.1c2.8,2.5,5.7,4.9,8.6,7.4c1.3,1.1,2.8,1.6,4.5,1.8c4.5,0.3,6.7,3.3,5.7,7.7c-1.8,7.4-6,13.2-12.6,16.9
		c-1.4,0.8-3.3,1.2-4.9,1.2c-38.6,0.1-77.2,0.1-115.8,0c-4.9,0-8.2-3.2-8.1-8.1c0.1-5,0-10.2,0.8-15.1c1.5-8.8,6.9-14.9,14.7-18.9
		c4.1-2.1,8.5-3.8,12.8-5.7C32.1,99.2,32.6,99,33.4,98.6z M104.6,14.1c-5.5,2.6-11,2.9-16.5,2c-4.6-0.7-9.1-1.9-13.7-3
		c-7.4-1.7-14.7-3.8-22.1-5C44.5,6.8,37,8,30.7,13.2c-3.6,3-6.4,6.7-8.5,10.8c-0.8,1.6-1.9,2.3-3.8,2.2c-4.5-0.3-7.8,1.7-10,5.5
		c-2.5,4.3-3.3,9.1-2.7,14c0.4,4,1.6,7.7,3.7,10.7c2.8-0.7,5.4-1.3,8.1-2c0-1.1,0-2.4,0-3.8c0.1-3,1.3-5.4,3.8-7.1
		c5.5-3.8,11.5-5.6,18.2-5.2c5,0.3,9.8,1.8,14.5,3.4c8.2,2.8,16.4,4.7,25.3,2.6c4.8-1.1,8.3,2.2,8.6,7.2c0.1,1,0,2,0,3.1
		c1,0.1,1.7,0.1,2.4,0.2c0.8,0.1,1.6,0.1,2.4,0.5c0.9,0.4,1.4,0.2,1.9-0.6C102.4,42.4,104.7,28.7,104.6,14.1z M83.2,62.3
		c-0.1,0-0.3,0-0.4,0c0-3.2,0-6.5,0-9.7c0-2.7-1.2-3.7-3.9-3.1c-6.2,1.4-12.3,1.2-18.3-0.5c-5.1-1.4-10.1-3-15.1-4.5
		c-7.2-2-14.2-1.6-20.8,2.5c-1.8,1.2-2.7,2.6-2.7,4.8c0,3.6-0.1,7.2,0,10.8c0.1,3.6-0.1,7.3,0.4,10.9c2.1,13.9,14.1,25,27.7,25.7
		c15.1,0.8,28-8.3,31.6-22.6C82.8,72,82.7,67.1,83.2,62.3z M34.9,103.1c-5.4,2.6-10.8,4.8-15.8,7.6c-6.3,3.5-10,9.1-10.7,16.3
		C8,130.9,8,134.8,8,138.7c0,2.6,0.8,3.5,3.5,3.5c24.4,0,48.8,0,73.2,0c0.4,0,0.9-0.1,1.5-0.1c-0.9-1-1.6-1.9-2.3-2.8
		c-2.6-3.4-4.8-7-5.2-11.4c-0.3-3.7,1.5-6.3,5.1-6.5c3.6-0.3,5.8-2.7,8.3-4.7c-3.3-4.9-15.1-11.7-22.5-13.2
		c-3.5,10.8-9.2,16.1-17.4,16C45.7,119.3,37.6,115.3,34.9,103.1z M111.4,126c-8.7,0-17.3,0-26,0c-2.2,0-2.6,0.4-1.9,2.5
		c1.6,5.4,4.8,9.7,9.6,12.7c0.9,0.6,2.1,0.8,3.2,0.8c10.2,0.1,20.3,0.1,30.5,0c0.9,0,2-0.2,2.8-0.6c4.9-2.9,8.1-7.3,9.8-12.7
		c0.7-2.2,0.1-2.7-2.1-2.7C128.6,126,120,126,111.4,126z M128.6,121.1c-2.5-2.2-4.6-4.2-6.9-6.1c-4.3-3.5-9.3-4.3-14.6-3
		c-5.3,1.3-8.6,5.4-12.6,9.1C106,121.1,117,121.1,128.6,121.1z M40.2,102c0.3,7.1,6.6,13.1,12.9,12.6c6-0.5,12-7.1,11.4-12.6
		C56.4,104.9,48.3,105,40.2,102z M87.6,69.6c2.6,0.4,4.7-0.1,6.1-2.3c1-1.6,0.9-3.9-0.3-5.5c-1.4-1.9-3.4-2.3-5.8-1.9
		c0,0.5-0.1,1-0.1,1.5C87.5,64.1,87.6,66.8,87.6,69.6z M17,59.9c-2.6-0.4-4.7,0.1-6,2.3c-1.1,1.7-1,3.9,0.2,5.4
		c1.5,1.9,3.4,2.3,5.8,2c0-0.3,0.1-0.6,0.1-0.9C17,65.8,17,62.9,17,59.9z"/>
	<path class="st0" d="M119.7,52.8c-1.2-1.1-2.3-2-3.3-3c-3.4-3.5-3.5-8.8-0.1-12.2c3.3-3.3,8.7-3.3,12.2,0.1c1,1,1.9,2,3,3.3
		c1.2-1.3,2.1-2.4,3.1-3.4c3.5-3.3,8.8-3.3,12.1,0c3.3,3.3,3.3,8.6,0,12.1c-1,1-2.2,1.9-3.3,2.9c1.3,1.1,2.2,1.9,3.1,2.7
		c3.7,3.2,4.1,8.8,0.8,12.4c-3.2,3.5-8.8,3.7-12.3,0.4c-1.1-1-2-2.2-3.3-3.6c-1.2,1.3-2.1,2.4-3.1,3.4c-3.6,3.4-9,3.3-12.3-0.1
		c-3.3-3.4-3.2-8.6,0.3-12.2C117.5,54.8,118.5,54,119.7,52.8z M123.1,40.1c-2,0.1-3.2,0.7-3.9,2.1c-0.7,1.4-0.5,2.8,0.6,3.9
		c1.3,1.4,2.7,2.8,4.1,4.1c2,2,2,3.3,0,5.3c-1.3,1.3-2.5,2.5-3.8,3.8c-1.7,1.8-1.8,3.7-0.2,5.3c1.6,1.6,3.6,1.5,5.4-0.2
		c1.3-1.3,2.6-2.6,3.9-3.9c1.9-1.9,2.9-1.9,4.7-0.1c1.3,1.3,2.6,2.6,3.9,3.9c1.7,1.6,3.9,1.7,5.3,0.3c1.5-1.4,1.4-3.7-0.3-5.5
		c-1.3-1.4-2.8-2.7-4.1-4.1c-1.4-1.5-1.4-2.9,0-4.4c1.4-1.4,2.8-2.8,4.2-4.2c1.7-1.7,1.7-3.8,0.2-5.3c-1.5-1.5-3.5-1.5-5.3,0.2
		c-1.2,1.1-2.4,2.3-3.5,3.5c-2.5,2.5-3.1,2.5-5.7-0.1c-1.2-1.2-2.3-2.4-3.6-3.5C124.5,40.7,123.6,40.4,123.1,40.1z"/>
	<path class="st0" d="M100,92.6c0-1.2,0.7-2.9,2-4.5c1.9-2.3,1.9-3.3,0.3-5.7c-0.9-1.3-0.7-2.5,0.4-3.4c1-0.8,2.3-0.7,3.3,0.3
		c2.9,2.8,3.2,7.5,0.6,11.1c-2,2.8-2,3-0.3,5.8c0.7,1.2,0.6,2.3-0.4,3.2c-1.1,0.9-2.3,0.9-3.4,0C100.8,97.8,100,95.7,100,92.6z"/>
	<path class="st0" d="M123.3,85.1c-0.1,2.2-0.8,4-2.1,5.6c-1.8,2-1.8,3.1-0.3,5.3c0.9,1.3,0.8,2.6-0.2,3.5c-1,0.8-2.7,0.7-3.7-0.3
		c-2.9-2.8-3-7.7-0.3-10.9c2.1-2.4,2.2-3.2,0.4-5.9c-0.8-1.2-0.6-2.5,0.4-3.3c1-0.8,2.4-0.7,3.3,0.3
		C122.5,80.9,123.2,82.9,123.3,85.1z"/>
	<path class="st0" d="M52.2,81.7c2.9,0,5.5,0.9,7.7,2.8c1.3,1.1,1.5,2.4,0.6,3.5c-0.9,1.2-2.3,1.3-3.7,0.3c-3-2.2-5.8-2.2-8.9-0.1
		c-1.4,1-2.9,0.9-3.7-0.2c-0.9-1.2-0.6-2.7,0.7-3.8C47,82.5,49.5,81.7,52.2,81.7z"/>
	<path class="st0" d="M69.9,70.2c-3.6-0.2-6.8-1.3-9.2-4.1c-0.8-0.9-1.2-2.1-0.3-3.1c0.6-0.6,1.7-1.1,2.6-1.1c0.6,0,1.3,0.7,1.8,1.2
		c1.6,1.6,3.5,2.6,5.8,2.2c2.1-0.3,3.3,0.9,3.3,2.3c0.1,1.5-1.2,2.5-3.2,2.6C70.3,70.2,70.1,70.2,69.9,70.2z"/>
	<path class="st0" d="M34.8,65.2c1.8,0,3.8-0.8,5.4-2.6c0.9-1,1.9-1.5,3.1-0.8c1.5,0.8,1.9,2.4,0.7,3.8c-2.6,3.1-6,4.6-10.1,4.5
		c-2.1,0-3.2-1.1-3.1-2.7C31,65.7,32.2,64.9,34.8,65.2z"/>
</g>
</svg>
