<?xml version="1.0" encoding="utf-8"?>
<!-- Generator: Adobe Illustrator 24.3.0, SVG Export Plug-In . SVG Version: 6.00 Build 0)  -->
<svg version="1.1" id="Layer_1" xmlns="http://www.w3.org/2000/svg" xmlns:xlink="http://www.w3.org/1999/xlink" x="0px" y="0px"
	 viewBox="0 0 150 150" style="enable-background:new 0 0 150 150;" xml:space="preserve">
<style type="text/css">
	.st0{fill:#075CAA;}
</style>
<g>
	<path class="st0" d="M95.8,88.9c1.6,0,3.1,0,4.7,0c0-0.5,0-1,0-1.4c0-21.3,0-42.7,0-64c0-0.7,0-1.3,0-2c0.2-3.8,3.1-6.7,6.8-6.7
		c2.7,0,5.4,0,8.1,0c0.4,0,0.8,0,1.3,0c0-1.6,0-3.1,0-4.6c1.6,0,3.1,0,4.7,0c0,1.2,0,2.5,0,3.7c0,0.8,0.3,0.9,1,0.9
		c4.2,0,8.4,0,12.6,0c4.4,0,7.3,2.9,7.3,7.3c0,17.1,0,34.3,0,51.4c0,4.2,0,8.4,0,12.6c0,4.6-2.8,7.6-7.4,7.5
		c-2.5-0.1-4.4,0.7-6.4,2.2c-7.3,5.6-14.6,11-22,16.5c-1,0.7-1.2,1.4-1,2.5c1.5,11.2,3,22.4,4.5,33.6c0,0.2,0,0.5,0.1,0.8
		c-21.1,0-42.1,0-63.2,0c0-0.3,0-0.5,0-0.8c1.4-10.6,2.8-21.3,4.3-31.9c0.1-0.8-0.1-1.1-0.9-1.3c-5.7-1.8-10.7-4.7-14.1-9.7
		c-1.2-1.7-2-3.7-2.7-5.6c-0.7-1.8-1.2-3.8-1.8-5.7c-0.1-0.4-0.6-0.9-1-1.1c-3.2-1.4-5-4.6-4.3-7.8c0.7-3.4,3.5-5.7,6.9-5.7
		c18.5,0,37,0,55.4,0c0.8,0,1.5,0.1,2.4,0.2c0-20.9,0-41.8,0-62.8c1.6,0,3.1,0,4.6,0C95.8,41,95.8,64.9,95.8,88.9z M105.3,28.7
		c0,20.1,0,40.1,0,60.2c0.5,0,0.8,0,1.2,0c9.4,0,18.8,0,28.1,0c2.3,0,3-0.8,3-3c0-18.7,0-37.4,0-56.1c0-0.4,0-0.7-0.1-1.2
		C126.8,28.7,116,28.7,105.3,28.7z M72.9,114.9c-5.6,1.9-11.2,2.3-17,1.6c-1.3,9.4-2.5,18.7-3.7,28.1c17.6,0,35.1,0,52.7,0
		c-1.3-10-2.7-20-4-30c-7.8,0-15.5,0-23.2,0c0.8,8.4,1.5,16.8,2.3,25.2c-1.6,0.1-3.1,0.3-4.6,0.4c-0.4-4.3-0.8-8.5-1.2-12.7
		C73.7,123.4,73.3,119.2,72.9,114.9z M36.4,93.7c0.5,1.7,1,3.2,1.4,4.7c0.9,3.2,2.8,5.8,5.3,7.9c9.3,7.6,25.3,7.9,34.9,0.7
		c4.5-3.3,6.3-8.1,7.5-13.3C69.2,93.7,52.9,93.7,36.4,93.7z M82.1,109.5c0.1,0.1,0.2,0.2,0.3,0.3c0.1,0,0.2,0,0.4,0
		c6.2,0,12.5,0,18.7,0c0.4,0,1-0.2,1.3-0.5c6.7-5,13.4-10,20.1-15c0.2-0.2,0.5-0.3,0.7-0.4c-0.3-0.3-0.4-0.3-0.5-0.3
		c-10.5,0-21.1,0-31.6,0c-0.6,0-0.8,0.3-1,0.8c-0.6,1.8-1.2,3.7-1.7,5.5c-1,3.5-3,6.5-5.6,9C82.8,109.1,82.4,109.3,82.1,109.5z
		 M61,89c9,0,17.9,0,26.9,0c0.5,0,0.9,0,1.4,0c1.1-0.1,1.8-1,2-2c0.1-1.1-0.5-2.1-1.6-2.4c-0.5-0.1-1-0.1-1.6-0.1c-18,0-36,0-53.9,0
		c-2,0-3.2,0.9-3.2,2.4c0,1.5,1.1,2.3,3.1,2.3C43,89,52,89,61,89z M137.6,24c0-0.5,0-0.9,0-1.2c0-2.7-0.6-3.3-3.3-3.3
		c-8.2,0-16.4,0-24.5,0c-0.8,0-1.6,0-2.4,0c-1.1,0.1-1.9,0.6-2,1.6c-0.2,0.9,0,1.9,0,2.9C116.1,24,126.7,24,137.6,24z"/>
	<path class="st0" d="M37.8,0.8C54.5,0.8,68,14.3,68.1,31c0,16.6-13.6,30.2-30.2,30.2c-16.6,0-30.2-13.6-30.2-30.2
		C7.7,14.3,21.2,0.8,37.8,0.8z M63.4,30.9c0-14-11.5-25.4-25.6-25.4C23.8,5.5,12.3,17,12.4,31c0,14.1,11.5,25.6,25.5,25.5
		C52,56.4,63.4,44.9,63.4,30.9z"/>
	<path class="st0" d="M25.1,73.2c0.5,0.7,0.8,1.2,1.2,1.8c-1.3,0.9-2.5,1.7-3.8,2.7c-2.6-3.7-5.2-7.4-7.9-11.3
		c4.6-0.9,9-1.7,13.5-2.5c0.3,1.5,0.6,3,0.9,4.5c-0.6,0.1-1,0.3-1.5,0.4c2.2,1.7,12.6,2,18.6,0.7c6.3-1.4,11.9-4.1,16.9-8.3
		c5.2-4.4,9.1-9.7,11.6-16.1c2.5-6.4,3.2-13,2.3-19.8c-1-6.8-3.6-12.8-7.7-18.4c1.3-0.9,2.6-1.7,3.8-2.6c9.2,11.7,12.4,29.9,4.4,46
		C72.7,60,65.3,67,55.5,71.4C45.7,75.7,35.7,76.1,25.1,73.2z"/>
	<path class="st0" d="M119.2,33.3c2.3,0,4.5,0,6.8,0c0,1.5,0,3,0,4.5c-2.3,0-4.5,0-6.8,0C119.2,36.4,119.2,34.9,119.2,33.3z"/>
	<path class="st0" d="M34.9,33.2c1.2-4.8,2.4-9.5,3.6-14.3c1.5,0.4,3,0.7,4.5,1.1c-0.7,2.9-1.4,5.7-2.1,8.6c1.4,0,2.6,0,3.9,0
		c0,1.6,0,3,0,4.6C41.5,33.2,38.3,33.2,34.9,33.2z"/>
	<path class="st0" d="M54.2,33.3c0-1.6,0-3.2,0-4.8c1.5,0,3,0,4.6,0c0,1.4,0,2.9,0,4.3c0,0.1-0.3,0.4-0.5,0.4
		C56.9,33.3,55.6,33.3,54.2,33.3z"/>
	<path class="st0" d="M40.1,51.8c-1.5,0-3,0-4.5,0c0-1.5,0-3,0-4.5c1.5,0,3,0,4.5,0C40.1,48.8,40.1,50.2,40.1,51.8z"/>
	<path class="st0" d="M29.1,11.7c0.9,1.2,1.7,2.4,2.7,3.7c-1.5,0.9-2.8,1.8-4.3,2.7c-0.8-1.5-1.4-2.9-2.1-4.2
		C26.7,13.2,27.9,12.5,29.1,11.7z"/>
	<path class="st0" d="M44,15.8c0.7-1.4,1.3-2.7,2.1-4.1c1.5,0.8,2.8,1.6,4.3,2.5c-0.9,1.4-1.7,2.6-2.6,3.9
		C46.5,17.3,45.3,16.6,44,15.8z"/>
	<path class="st0" d="M20.9,43.4c-0.8-1.4-1.5-2.8-2.3-4.2c1.4-0.7,2.7-1.4,4.2-2.1c0.7,1.4,1.3,2.7,2.1,4.1
		C23.6,42,22.3,42.7,20.9,43.4z"/>
	<path class="st0" d="M28,43.9c1.3,0.8,2.4,1.5,3.7,2.2c-0.7,1.3-1.3,2.6-2.1,4.1c-1.5-0.9-2.9-1.7-4.4-2.6
		C26.2,46.3,27.1,45.1,28,43.9z"/>
	<path class="st0" d="M53.1,24.8c-0.8-1.4-1.6-2.6-2.4-4c1.3-0.8,2.6-1.6,4-2.4c0.8,1.4,1.6,2.7,2.4,4.1
		C55.7,23.2,54.4,24,53.1,24.8z"/>
	<path class="st0" d="M43.8,46.5c1.5-0.9,2.8-1.8,4.3-2.7c0.8,1.5,1.4,2.8,2.1,4.2c-1.2,0.7-2.4,1.5-3.7,2.2
		C45.7,49.1,44.8,47.8,43.8,46.5z"/>
	<path class="st0" d="M40.1,14.7c-1.5,0-3,0-4.5,0c0-1.5,0-3,0-4.5c1.5,0,3,0,4.5,0C40.1,11.7,40.1,13.1,40.1,14.7z"/>
	<path class="st0" d="M21.6,33.3c-1.5,0-3,0-4.5,0c0-1.5,0-3,0-4.5c1.5,0,3,0,4.5,0C21.6,30.2,21.6,31.7,21.6,33.3z"/>
	<path class="st0" d="M20.9,18.6c1.3,0.7,2.6,1.4,4,2.1c-0.3,0.7-0.6,1.3-1,2.1c-1.4-0.7-2.7-1.4-4.1-2.2
		C20.1,19.9,20.5,19.3,20.9,18.6z"/>
	<path class="st0" d="M50.8,41.3c0.4-0.7,0.6-1.3,1-2.1c1.4,0.7,2.7,1.4,4.1,2.2c-0.4,0.7-0.7,1.3-1.1,2
		C53.5,42.7,52.2,42,50.8,41.3z"/>
</g>
</svg>
