<?xml version="1.0" encoding="utf-8"?>
<!-- Generator: Adobe Illustrator 24.3.0, SVG Export Plug-In . SVG Version: 6.00 Build 0)  -->
<svg version="1.1" id="Layer_1" xmlns="http://www.w3.org/2000/svg" xmlns:xlink="http://www.w3.org/1999/xlink" x="0px" y="0px"
	 viewBox="0 0 150 150" style="enable-background:new 0 0 150 150;" xml:space="preserve">
<style type="text/css">
	.st0{fill:#005BAB;}
</style>
<g>
	<path class="st0" d="M86.7,46.4c-0.2,0.3-0.4,0.4-0.5,0.6c-5.7,8-9.4,16.8-10.6,26.6c0,0.3,0.2,0.8,0.5,1.1
		c6.3,6.1,12.5,12.1,18.8,18.1c2.7,2.6,3.8,5.7,3.5,9.4c-0.5,7.8-1,15.5-1.6,23.3c-0.3,4.9-0.6,9.8-1,14.7
		c-0.4,5.4-5.1,9.4-10.6,9.2c-5.2-0.2-9.6-4.7-9.5-10c0.1-3.7,0.4-7.5,0.7-11.2c0.4-6.4,0.8-12.7,1.3-19.1c0.1-1.2,0.2-2.5,0.2-3.7
		c0-0.3-0.1-0.7-0.3-0.9c-3.5-3.4-7.1-6.9-10.6-10.3c-0.1-0.1-0.1-0.1-0.3-0.2c-0.2,1.9-0.4,3.8-0.6,5.6c-0.4,3.8-0.8,7.7-1.3,11.5
		c-0.4,2.9-1.8,5.2-4.1,6.9c-9.6,6.9-19.2,13.9-28.8,20.8c-4.6,3.3-10.8,2.3-14.1-2.2c-3.3-4.5-2.4-10.9,2.1-14.2
		c8.2-6,16.4-11.9,24.7-17.8c0.5-0.4,0.7-0.7,0.8-1.3c0.9-8.7,1.9-17.4,2.9-26.1c0.4-3.9,0.6-7.8,1.3-11.6
		c2.3-12.9,7.6-24.5,15.3-35.1c3.3-4.6,7-8.9,11.2-12.7c4.1-3.6,8.8-4.6,13.8-2.6c5.1,1.9,7.8,5.8,8.7,11.2c0.5,2.9,1.3,5.8,2,8.7
		c4,16.4,8.1,32.8,12.2,49.2c1.1,4.4-1.5,8.8-5.8,9.9c-4.4,1.1-8.7-1.5-9.8-6C93.7,74.6,90.3,61,86.9,47.3
		C86.9,47.1,86.8,46.8,86.7,46.4z M51.1,72.2c0,0.6,0.1,1.1,0,1.7c-1.1,10.2-2.3,20.4-3.4,30.6c-0.1,0.8-0.4,1.3-1,1.7
		c-2.3,1.6-4.5,3.2-6.7,4.8c-6.1,4.4-12.3,8.9-18.4,13.3c-3.6,2.6-4.4,7.3-1.8,10.8c2.5,3.5,7.2,4.2,10.8,1.6
		c1.3-0.9,2.5-1.8,3.8-2.7c8.2-6,16.5-11.9,24.7-17.8c1.9-1.4,3-3.2,3.3-5.5c0.7-5.9,1.3-11.7,2-17.6c0.1-1-0.2-1.7-0.9-2.3
		c-2.6-2.3-5-4.7-7.5-7.1c-0.2-0.2-0.4-0.3-0.5-0.5C55,82.6,55,82,55.4,81.5c0.5-0.5,1-0.5,1.6-0.2c0.2,0.1,0.4,0.3,0.6,0.5
		c7.4,7,14.7,14.1,22.1,21.1c0.6,0.6,0.9,1.2,0.8,2.1c-0.8,11.2-1.5,22.5-2.3,33.7c-0.3,4.8,4,8.9,8.7,8.1c3.6-0.6,6.2-3.5,6.5-7.3
		c0.4-6.2,0.8-12.4,1.3-18.6c0.4-6.3,0.8-12.6,1.3-18.9c0.2-2.9-0.7-5.3-2.9-7.4c-6.3-6-12.6-12.1-18.9-18.1c-0.9-0.9-1.2-1.7-1.1-3
		C74.5,62,79,52,86.1,43c0.4-0.5,0.8-0.9,1.5-0.7c0.7,0.1,0.9,0.7,1.1,1.3c0.5,2.1,1.1,4.3,1.6,6.4c3.1,12.5,6.2,25,9.3,37.4
		c0.8,3.2,3.7,5,6.7,4.3c3.1-0.8,4.8-3.7,4-6.9c-4.2-16.8-8.3-33.7-12.5-50.5c-0.6-2.5-1.3-5-1.7-7.5c-0.6-3.9-2.4-6.9-5.8-8.7
		c-4.3-2.4-9.2-1.6-13,2c-11.5,11-19.6,24.1-23.9,39.5C52.2,63.7,51.4,67.9,51.1,72.2z"/>
	<path class="st0" d="M97.8,18.9c0-10.1,8.1-18.4,18.1-18.4c10.2,0,18.3,8.2,18.3,18.5c0,10-8.2,18.2-18.2,18.2
		C105.9,37.3,97.8,29.1,97.8,18.9z M116,34.8c8.6,0,15.7-7.1,15.7-15.9c0-8.7-7.1-15.9-15.7-15.9c-8.6,0-15.7,7.2-15.7,15.9
		C100.3,27.7,107.3,34.8,116,34.8z"/>
</g>
</svg>
