<?xml version="1.0" encoding="utf-8"?>
<!-- Generator: Adobe Illustrator 24.3.0, SVG Export Plug-In . SVG Version: 6.00 Build 0)  -->
<svg version="1.1" id="Layer_1" xmlns="http://www.w3.org/2000/svg" xmlns:xlink="http://www.w3.org/1999/xlink" x="0px" y="0px"
	 viewBox="0 0 150 150" style="enable-background:new 0 0 150 150;" xml:space="preserve">
<style type="text/css">
	.st0{fill:#005BAB;}
</style>
<g>
	<path class="st0" d="M0.6,80.8c3.3-3.4,6.5-6.8,9.8-10c1.2-1.2,2.7-0.9,4.1,0.5c3.8,3.8,7.5,7.5,11.3,11.3c6.3,6.3,12.7,12.7,19,19
		c0.3,0.3,0.6,0.8,0.9,1.3c0.6-0.6,1-0.9,1.4-1.3C54.8,94,62.5,86.4,70,78.7c5.8-6,12.7-8,20.9-6.5c12,2.2,24,4.2,36,6.3
		c0.7,0.1,1.4,0.1,2,0.1c5.6,0,11.1,0,16.7,0c2.7,0,3.7,1,3.7,3.7c0,13.3,0,26.6,0,39.8c0,2.6-1,3.6-3.6,3.6c-3.3,0-6.7,0.1-10,0
		c-7.3-0.3-14.5,0.8-21.7,1.6c-1.3,0.1-2.7,0.3-4,0.4c-3.5,0.3-6.8,1.3-9.8,3.2c-4.5,2.8-9.1,5.5-13.6,8.4c-3.9,2.5-7.8,3-12,0.9
		c-0.3-0.2-1,0-1.3,0.3c-1.8,1.7-3.4,3.4-5.2,5.1c-1.8,1.7-3.2,1.7-5,0c-4.2-4.1-8.3-8.3-12.4-12.4c-0.4-0.4-0.6-0.9-1.2-1.6
		c-1.5,1.6-2.6,3-3.9,4.3c-6.5,6.1-17,2.9-19-5.8c-0.9-3.9,0-7.4,2.7-10.4c1.2-1.3,2.6-2.5,4.2-4c-0.7-0.5-1.2-0.8-1.6-1.2
		c-9.8-9.8-19.7-19.7-29.5-29.5c-0.7-0.7-1.2-1.5-1.8-2.2C0.6,82,0.6,81.4,0.6,80.8z M124.6,102.1c0-5.6,0-11.1,0-16.7
		c0-1.1-0.3-1.5-1.4-1.7c-11.1-1.9-22.2-3.7-33.2-5.8c-6.6-1.3-11.7,0.5-16.4,5.3C63,94.1,52.2,104.8,41.4,115.6
		c-2.5,2.5-5.1,5-7.6,7.6c-3.1,3.2-1.7,8.4,2.5,9.5c2.3,0.6,4.3-0.1,5.9-1.8c9.5-9.5,19-19.1,28.6-28.6c4.4-4.4,11.4-4.4,15.7-0.1
		c4.3,4.3,4.2,11-0.2,15.5c-1.3,1.3-2.6,2.6-3.9,3.9c-1.9,1.9-3.9,3.8-5.7,5.8c-2.5,2.6-1.6,6.7,1.6,7.9c1.6,0.6,3.1,0.3,4.6-0.6
		c4.9-3,9.8-5.9,14.6-8.9c3-1.8,6.1-3.1,9.6-3.5c5.3-0.7,10.7-1.2,16-1.8c1.3-0.1,1.6-0.5,1.6-1.8
		C124.6,113.1,124.6,107.6,124.6,102.1z M130.5,84.5c0,11.9,0,23.6,0,35.3c4.4,0,8.7,0,12.9,0c0-11.8,0-23.6,0-35.3
		C139.1,84.5,134.9,84.5,130.5,84.5z M70,126.4c1.2-1.4,2.3-2.9,3.6-4.2c2.8-2.9,5.6-5.6,8.4-8.4c2.2-2.3,2.3-5.4,0.3-7.5
		c-2.1-2.1-5.2-2-7.5,0.3c-3.3,3.3-6.6,6.6-10,9.9c-0.8,0.8-1.7,1.5-2.6,2.2C65,121.5,67.6,124,70,126.4z M41.5,107
		c-7.1-7.1-14.2-14.2-21.2-21.2c-1.3,1.3-2.8,2.8-4.1,4.1c7.1,7.1,14.2,14.2,21.2,21.3C38.8,109.8,40.3,108.3,41.5,107z M58.2,123.5
		c-1.4,1.4-2.9,2.8-4.2,4.2c3.9,3.9,7.9,7.9,11.7,11.7c1.4-1.3,2.9-2.7,4.3-4.1C66,131.3,62.1,127.4,58.2,123.5z M12.4,77.5
		c-1.5,1.5-3,3-4.4,4.4c1.1,1.2,2.4,2.5,3.5,3.6c1.6-1.4,3.1-2.9,4.5-4.2C14.7,80,13.5,78.6,12.4,77.5z"/>
	<path class="st0" d="M33.5,3.2c3.6,0,7.3,0,10.9,0c1.3,0,2.5,0.4,2.8,1.6c0.3,0.9,0.2,2-0.1,2.9c-0.4,1.1-1.6,1.4-2.8,1.4
		c-6.8,0-13.6,0-20.4,0c-0.5,0-1,0-1.5,0c-2.5,0.2-4.3,2.2-4.2,4.5c0.1,2.3,1.9,4.1,4.3,4.3c1.4,0.1,2.8,0,4.2,0.3
		c6,1.3,10.2,6.9,9.6,12.9c-0.6,6.5-5.5,11.1-12,11.4c-5.5,0.2-9.9,3.4-10.9,8.5c-0.5,2.2-0.3,4.5-0.4,6.8c0,1.4,0,2.8,0,4.2
		c-0.1,1.6-1.3,2.8-2.8,2.8c-1.4,0.1-2.9-1-2.9-2.5c0-4.2-0.3-8.4,0.5-12.4C9.3,42,16,36.9,24,36.6c3.9-0.1,6.8-2.9,6.7-6.5
		c0-3.6-2.8-6.4-6.7-6.4c-3.2,0-6.2-0.6-8.5-3c-3-3.1-3.9-6.8-2.3-10.8c1.6-4.2,4.9-6.4,9.4-6.6C26.2,3.2,29.8,3.3,33.5,3.2
		C33.5,3.3,33.5,3.3,33.5,3.2z"/>
	<path class="st0" d="M67.3,23.8c3.3,1.5,6.6,2.9,10,4.4c1.1,0.5,2.1,1.3,2,2.6c-0.1,0.9-0.6,1.9-1.3,2.6c-0.9,0.9-2,0.6-3.1,0.1
		c-6.2-2.8-12.4-5.5-18.6-8.2c-0.4-0.2-0.9-0.4-1.3-0.6c-2.4-0.8-4.8,0.2-5.7,2.4c-0.9,2.2,0,4.5,2.2,5.6c1.2,0.6,2.6,1.2,3.7,2
		c5,3.6,6.5,10.4,3.6,15.7c-3.2,5.7-9.5,7.9-15.6,5.6c-5.2-2-10.4-0.9-13.4,3.3c-1.3,1.8-2.1,4-3.1,6.1c-0.6,1.3-1.1,2.6-1.7,3.8
		c-0.7,1.4-2.3,2-3.7,1.5c-1.3-0.5-2.3-2.1-1.7-3.4c1.7-3.8,3.1-7.8,5.5-11.2c4.5-6.5,12.7-8.6,20-5.6c3.6,1.5,7.4,0.1,8.8-3.2
		c1.4-3.3,0-7-3.5-8.5c-3-1.3-5.4-3.1-6.6-6.2c-1.5-4.1-0.8-7.8,2.3-10.9c3.2-3.2,7.1-3.9,11.3-2.2C60.7,20.8,64,22.4,67.3,23.8
		C67.3,23.8,67.3,23.8,67.3,23.8z"/>
	<path class="st0" d="M60.7,6.2c0,1.6-1.3,2.9-2.8,2.9c-1.6,0-2.9-1.2-2.9-2.8c-0.1-1.6,1.3-3,2.9-3C59.3,3.3,60.7,4.7,60.7,6.2z"/>
</g>
</svg>
