<?xml version="1.0" encoding="utf-8"?>
<!-- Generator: Adobe Illustrator 24.3.0, SVG Export Plug-In . SVG Version: 6.00 Build 0)  -->
<svg version="1.1" id="Layer_1" xmlns="http://www.w3.org/2000/svg" xmlns:xlink="http://www.w3.org/1999/xlink" x="0px" y="0px"
	 viewBox="0 0 150 150" style="enable-background:new 0 0 150 150;" xml:space="preserve">
<style type="text/css">
	.st0{fill:#CDEEFD;}
	.st1{fill:#111224;}
	.st2{fill:#005BAB;}
</style>
<path class="st0" d="M1465.3,1556.3c-2.4-0.2-4.3-1.3-4.4-4.1c-0.1-6.7,1.6-10,4.9-9.9c0.2,0,0.3,0,0.5,0c2.2,0.5,4.3,2.1,3.2,4
	C1467.7,1549.5,1473.1,1555.7,1465.3,1556.3z M1465.5,1554.4c1.3-0.1,2.3-0.6,2.3-2.1c-0.1-1.7-1.5-2.1-2.8-2.4c-1.6-0.4-2,0.8-2,2
	C1463,1553.5,1464,1554.2,1465.5,1554.4z M1467.8,1546.5c0-1.4-0.6-2.2-2.1-2.2c-0.9,0-1.6,0.4-1.7,1.4c-0.2,1.4,0.9,2.1,2,2.5
	C1467.3,1548.5,1467.6,1547.5,1467.8,1546.5z"/>
<path class="st0" d="M1455.8,1556.6c-0.5-2.9-1.8-4.2-4.6-3.6c-0.7,0.2-1.7,0.3-2.1-0.8c-0.4-1.1,0.1-1.5,1.2-2.1
	c2.1-1.2,2.1-3.9,3.2-5.8c0.6-1,1-2.2,2.5-1.9c1.4,0.3,0.9,1.6,0.8,2.5C1456.4,1548.6,1458.4,1552.5,1455.8,1556.6z"/>
<path class="st1" d="M1465.5,1554.4c-1.5-0.1-2.6-0.8-2.5-2.4c0-1.2,0.4-2.4,2-2c1.2,0.3,2.7,0.7,2.8,2.4
	C1467.8,1553.7,1466.8,1554.2,1465.5,1554.4z"/>
<path class="st1" d="M1467.8,1546.5c-0.2,1-0.5,2.1-1.8,1.7c-1.1-0.4-2.1-1-2-2.5c0.1-1,0.8-1.4,1.7-1.4
	C1467.2,1544.3,1467.8,1545,1467.8,1546.5z"/>
<polygon class="st2" points="1346.8,29.4 1346.9,29.6 1346.6,29.6 "/>
<g>
	<path class="st2" d="M13.8,150c-2.8-1.3-3.6-3.5-3.6-6.5c0.1-10.6,0.1-21.3,0-31.9c0-7.2,2.7-13,8.3-17.4c2-1.6,3-3.6,3-6.1
		c0-2.6,0-5.2,0-7.8c0-0.5-0.4-1.1-0.8-1.4c-1.3-0.9-2-2.1-2-3.7c0-1.2,0-2.4,0-3.7c0-3,1.5-4.5,4.5-4.5c4.4,0,8.9,0,13.3,0
		c1.1,0,2.2,0,3.2,0c2.4,0.1,3.8,1.6,3.9,4c0,1.5,0,2.9,0,4.4c0,1.5-0.7,2.6-1.9,3.4c-0.4,0.3-0.8,0.9-0.8,1.3c-0.1,2.6,0,5.3,0,7.9
		c0,2.3,0.9,4.3,2.7,5.7c6.2,4.8,8.7,11.1,8.6,18.8c-0.1,10.3-0.1,20.6,0,30.9c0,3-0.9,5.2-3.8,6.4C37,150,25.4,150,13.8,150z
		 M14.7,113.2c0,7.9,0,15.7,0,23.7c0.6,0,1.2,0,1.7,0c5.5,0,10.9,0,16.4,0c1.3,0,2.3,0.4,2.6,1.8c0.3,1.5-0.8,2.6-2.5,2.6
		c-5.6,0-11.1,0-16.7,0c-0.5,0-1,0-1.6,0c0,1.1,0.1,2,0,2.9c-0.1,1.2,0.3,1.6,1.5,1.6c10.1,0,20.2,0,30.3,0c0.2,0,0.5,0.1,0.7,0
		c0.3-0.2,0.8-0.5,0.8-0.8c0.1-1.1,0-2.3,0-3.6c-1.5,0-2.7,0-4,0c-1.6,0-2.6-0.8-2.6-2.1c0-1.3,1-2.2,2.7-2.3c1.3,0,2.6,0,3.9,0
		c0-8,0-15.8,0-23.7C36.8,113.2,25.8,113.2,14.7,113.2z M14.8,108.6c11.1,0,22,0,33,0c-0.6-4-2.3-7.4-5.3-9.9
		c-2.7-2.2-5-4.7-5.7-8.2c-3.6,0-7,0-10.4,0c-0.3,0-0.8,0.4-0.9,0.7c-0.8,3.1-2.8,5.3-5.2,7.2C17.2,101,15.4,104.4,14.8,108.6z
		 M26,86c3.6,0,7.1,0,10.5,0c0-2.2,0-4.3,0-6.4c-3.5,0-7,0-10.5,0C26,81.7,26,83.9,26,86z M39.3,71.7c-5.4,0-10.7,0-16,0
		c0,1.2,0,2.2,0,3.3c5.4,0,10.7,0,16,0C39.3,73.9,39.3,72.8,39.3,71.7z"/>
	<path class="st2" d="M78,33.3c1.2-0.3,2.3-0.5,3.4-0.9c0.3-0.1,0.7-0.5,0.9-0.9c1.3-2.3,3.3-3.4,5.9-3.4c4.9,0,9.8,0,14.6,0
		c1,0,1.6-0.3,2.2-1.1c2-2.6,4.1-5.2,6.2-7.8c1-1.3,2.2-2,3.8-1.5c1.7,0.5,2.5,1.6,2.6,3.3c0.2,1.9,0.4,3.9,0.4,5.8
		c0,0.9,0.3,1.3,1.3,1.2c0.9-0.1,1.8,0,2.6,0c2.8-0.1,4.9,1.1,6.3,3.5c0.2,0.3,0.5,0.7,0.8,0.8c1.1,0.3,2.2,0.6,3.5,0.9
		c0.2-3.9-0.3-7.7-1.8-11.3c-0.7-1.6-1.5-3.2-2.3-4.7c-0.7-1.4-0.5-2.6,0.7-3.3c1.1-0.6,2.3-0.2,3.1,1.1c3.3,5.4,4.8,11.3,4.7,17.6
		c0,14.8,0,29.6,0,44.4c0,1.2,0.3,1.8,1.4,2.3c7.5,4,11.3,10.2,11.4,18.7c0.1,7.9,0.1,15.8,0,23.7c0,3.7-2.4,6-6.1,6
		c-25.6,0-51.3,0-76.9,0c-3.8,0-6.1-2.4-6.1-6.1c0-7.9-0.1-15.8,0-23.7c0.2-8.5,4.2-14.9,11.8-18.7c1-0.5,1-1.1,1-2
		c0-15.1,0-30.2,0-45.2c0-15.2,10.1-27.9,24.9-31.1c8.9-2,17.2-0.3,24.8,4.9c1.8,1.2,2.2,2.4,1.4,3.6c-0.8,1.2-2.1,1.2-3.8,0.1
		C110.9,2.6,98.5,2.8,89,9.8C81.6,15.2,77.4,24.2,78,33.3z M119.9,79.1c-4.2,9.9-11.6,12.4-21.5,9.4c0.3,4.9-0.6,9.5-3.5,13.4
		c-2.9,4-6.9,6.4-11.7,7.4c0,4.7,0,9.3,0,13.9c14.7,0,29.3,0,44,0c0-0.6,0-1.2,0-1.8c0-7.4,0-14.8,0-22.3c0-0.5,0-1,0-1.5
		c0.1-1.2,0.9-1.9,2-1.9c1.2-0.1,2,0.6,2.2,1.9c0.1,0.5,0.1,1.1,0.1,1.6c0,7.4,0,14.8,0,22.3c0,0.6,0,1.1,0.1,1.8
		c4.2,0,8.1,0,12.1,0c1.1,0,1.5-0.7,1.5-1.7c0-8.2,0.2-16.5-0.1-24.7c-0.2-6.3-3.5-10.9-9.1-13.7c-1.9-0.9-4-1.4-6.1-1.9
		C126.7,80.5,123.3,79.8,119.9,79.1z M113.4,23.6c-1.9,2.4-3.6,4.5-5.2,6.5c-1.3,1.7-2.9,2.5-5,2.5c-4.9-0.1-9.9,0-14.8,0
		c-1.7,0-2.5,0.7-2.5,2.2c0,5.1-0.2,10.3,0.2,15.4c0.8,9.5,8.9,16.8,18.3,17.1c9.7,0.3,18.4-6.3,19.7-15.8
		c0.7-5.6,0.3-11.3,0.4-16.9c0-1.2-0.9-1.8-2-1.8c-1.1,0-2.1,0-3.2,0c-3.5,0-5.3-1.7-5.5-5.2C113.6,26.2,113.5,25.1,113.4,23.6z
		 M77.9,49.1c0,7.1,0,14.1,0,21.1c0,10.7,0,21.5,0,32.2c0,2.3,0.6,2.9,3,2.8c6.7-0.3,12.9-6.2,13.1-12.9c0.2-7.6,0.1-15.1,0.1-22.7
		c0-0.4-0.3-1-0.7-1.3c-6.6-4-10.5-9.9-11.7-17.5c-0.1-0.4-0.5-0.8-0.8-0.9C80,49.6,79,49.4,77.9,49.1z M73.5,83.6
		c-0.6,0.4-1,0.6-1.4,0.8c-4.5,3.2-7,7.6-7,13.2c-0.1,8,0,15.9-0.1,23.9c0,1.4,0.5,2,1.9,1.9c3.7,0,7.3,0,11,0
		c0.3,0,0.5-0.1,0.8-0.1c0-4.6,0-9,0-13.6c-4.2-1.1-5.4-4.1-5.3-8.1c0.1-4.5,0-9,0-13.5C73.5,86.6,73.5,85.2,73.5,83.6z M132.4,77.3
		c0-9.5,0-18.9,0-28.3c-0.9,0.3-1.6,0.7-2.3,0.7c-1.1,0.1-1.3,0.7-1.5,1.6c-1,6.7-4.2,12.1-9.8,15.8c-2.2,1.5-2.7,3-2.5,5.3
		c0.1,0.9,0.4,1.4,1.3,1.6C122.5,75.1,127.4,76.2,132.4,77.3z M115.4,78c-3.3-1.3-3.7-4.2-3.4-7.1c-2.4,0.2-4.6,0.6-6.8,0.6
		c-2.2,0-4.4-0.4-6.7-0.6c0,3.9,0,7.8,0,11.7c0,0.4,0.3,0.8,0.6,1.1C104.6,87.3,113.4,85.1,115.4,78z M129,45.4
		c2.3-0.5,3.7-2.3,3.5-4.5c-0.1-2.1-1.6-3.8-3.5-3.9C129,39.8,129,42.6,129,45.4z M81.5,45.5c0-1.5,0-2.9,0-4.3c0-1.4,0-2.7,0-4.2
		c-2.4,0.7-3.6,2.4-3.6,4.5C78,43.4,79.3,44.9,81.5,45.5z"/>
	<path class="st2" d="M31.3,62.2c-17.2,0-31.1-13.9-31.1-31.1C0.1,14,14.1,0,31.2,0c17.2,0,31.1,14,31.1,31.1
		C62.4,48.3,48.5,62.2,31.3,62.2z M31.3,57.9C46,57.8,58,45.9,58,31.1C58,16.4,46,4.4,31.2,4.4c-14.7,0-26.7,12-26.7,26.7
		C4.6,45.9,16.5,57.9,31.3,57.9z"/>
	<path class="st2" d="M34.5,128.4c-0.9,1.6-0.5,4.1-3,4.3c-2.9,0.2-2.5-2.6-3.5-4.3c-0.2,1-0.3,1.7-0.5,2.5c-0.3,1.2-1.3,2-2.5,1.8
		c-1.2-0.2-2-1.3-1.8-2.6c0.6-3.7,1.3-7.3,2-10.9c0.2-1.2,1-1.9,2.2-2c1.3-0.1,2.1,0.6,2.5,1.8c0.4,1.3,0.8,2.6,1.3,4.3
		c0.5-1.5,0.8-2.7,1.2-3.9c0.5-1.6,1.3-2.3,2.6-2.2c1.5,0.1,2.1,1.1,2.3,2.4c0.7,3.5,1.3,7,2,10.5c0.2,1.4-0.6,2.4-1.8,2.6
		c-1.1,0.2-2.1-0.5-2.5-1.8c-0.1-0.4-0.2-0.8-0.2-1.1C34.7,129.4,34.6,128.9,34.5,128.4z"/>
	<path class="st2" d="M105.2,62.2c-1.1,0-2.2,0-3.4,0c-2.4-0.1-4.3-2-4.3-4.4c-0.1-4.2,3.4-7.8,7.6-7.8c4.2-0.1,7.8,3.5,7.8,7.7
		c0,2.5-1.9,4.5-4.5,4.6C107.4,62.2,106.3,62.2,105.2,62.2z M102,57.7c2.2,0,4.3,0,6.5,0c-0.1-2-1.3-3.3-3.1-3.4
		C103.5,54.2,102.1,55.6,102,57.7z"/>
	<path class="st2" d="M94.7,43.1c-0.6-0.4-1.2-0.7-1.6-1c-0.9-0.8-1.2-1.8-0.5-2.8c0.6-1,1.6-1.4,2.8-0.8c1.5,0.8,2.9,1.5,4.3,2.5
		c1.7,1.1,1.6,3.4-0.1,4.5c-1.3,0.8-2.6,1.6-3.9,2.3c-1.2,0.6-2.4,0.3-3-0.7c-0.6-1.1-0.3-2.2,0.8-3C93.8,43.7,94.1,43.5,94.7,43.1z
		"/>
	<path class="st2" d="M115.8,43.1c0.7,0.4,1.2,0.7,1.6,1.1c0.9,0.8,1.1,1.7,0.6,2.7c-0.6,1-1.6,1.5-2.7,0.9c-1.5-0.8-3-1.6-4.4-2.6
		c-1.6-1.2-1.5-3.4,0.3-4.5c1.2-0.8,2.5-1.5,3.8-2.2c1.2-0.7,2.4-0.3,3.1,0.7c0.6,1,0.3,2.3-0.8,3C116.7,42.5,116.3,42.7,115.8,43.1
		z"/>
	<path class="st2" d="M9.5,31.1C10,16,25.1,5.7,38.9,11.1c3.5,1.4,4.2,4.5,1.5,7.1c-7.3,7.4-14.7,14.7-22.1,22
		c-2.7,2.7-6,2.1-7.2-1.6C10.4,36.2,10,33.6,9.5,31.1z M36.9,15.1c-5.9-2.5-13.5-0.6-18.2,4.5c-4.4,4.7-5.9,12.4-3.5,17.2
		C22.4,29.6,29.7,22.4,36.9,15.1z"/>
	<path class="st2" d="M31.1,53c-2.6-0.7-5.3-1.1-7.9-2c-3-1-3.7-4.3-1.4-6.6c7.5-7.6,15.1-15.1,22.7-22.7c2.4-2.3,5.5-1.5,6.8,1.6
		c5.6,14-4.9,29.3-20.1,29.3C31.1,52.7,31.1,52.8,31.1,53z M25.6,47.1c5.5,2.7,13.7,0.6,18.4-4.6c4.8-5.3,5.3-13.2,3.2-17
		C40,32.7,32.8,39.9,25.6,47.1z"/>
</g>
</svg>
