<?xml version="1.0" encoding="utf-8"?>
<!-- Generator: Adobe Illustrator 24.3.0, SVG Export Plug-In . SVG Version: 6.00 Build 0)  -->
<svg version="1.1" id="Layer_1" xmlns="http://www.w3.org/2000/svg" xmlns:xlink="http://www.w3.org/1999/xlink" x="0px" y="0px"
	 viewBox="0 0 150 150" style="enable-background:new 0 0 150 150;" xml:space="preserve">
<style type="text/css">
	.st0{fill:#CDEEFD;}
	.st1{fill:#111224;}
	.st2{fill:#005BAB;}
</style>
<path class="st0" d="M1465.3,1556.3c-2.4-0.2-4.3-1.3-4.4-4.1c-0.1-6.7,1.6-10,4.9-9.9c0.2,0,0.3,0,0.5,0c2.2,0.5,4.3,2.1,3.2,4
	C1467.7,1549.5,1473.1,1555.7,1465.3,1556.3z M1465.5,1554.4c1.3-0.1,2.3-0.6,2.3-2.1c-0.1-1.7-1.5-2.1-2.8-2.4c-1.6-0.4-2,0.8-2,2
	C1463,1553.5,1464,1554.2,1465.5,1554.4z M1467.8,1546.5c0-1.4-0.6-2.2-2.1-2.2c-0.9,0-1.6,0.4-1.7,1.4c-0.2,1.4,0.9,2.1,2,2.5
	C1467.3,1548.5,1467.6,1547.5,1467.8,1546.5z"/>
<path class="st0" d="M1455.8,1556.6c-0.5-2.9-1.8-4.2-4.6-3.6c-0.7,0.2-1.7,0.3-2.1-0.8c-0.4-1.1,0.1-1.5,1.2-2.1
	c2.1-1.2,2.1-3.9,3.2-5.8c0.6-1,1-2.2,2.5-1.9c1.4,0.3,0.9,1.6,0.8,2.5C1456.4,1548.6,1458.4,1552.5,1455.8,1556.6z"/>
<path class="st1" d="M1465.5,1554.4c-1.5-0.1-2.6-0.8-2.5-2.4c0-1.2,0.4-2.4,2-2c1.2,0.3,2.7,0.7,2.8,2.4
	C1467.8,1553.7,1466.8,1554.2,1465.5,1554.4z"/>
<path class="st1" d="M1467.8,1546.5c-0.2,1-0.5,2.1-1.8,1.7c-1.1-0.4-2.1-1-2-2.5c0.1-1,0.8-1.4,1.7-1.4
	C1467.2,1544.3,1467.8,1545,1467.8,1546.5z"/>
<polygon class="st2" points="1346.8,29.4 1346.9,29.6 1346.6,29.6 "/>
<g>
	<path class="st2" d="M0.6,145.6c1.3-3.1,2.4-6.3,4-9.3c2.6-4.9,6.5-8.5,11.4-11.2c8.3-4.6,17.2-8,26.1-11.2c2.8-1,5.6-1.9,8.4-2.8
		c0.8-0.2,1.1-0.6,1.1-1.4c0-3,0-5.9-0.1-8.9c0-0.6-0.4-1.3-0.8-1.7c-1.6-1.8-3.3-3.6-4.8-5.5c-2.5-3.1-4.2-6.7-4.7-10.8
		c-0.1-1.1-0.5-1.7-1.8-1.9c-3.2-0.6-5.7-2.4-7.4-5.2c-2.9-4.8-4.2-9.8-1.8-15.2c0.2-0.4,0-1.1-0.3-1.6c-4.2-8.5-6.7-17.5-6.7-27.1
		c0-10.4,2.8-20,8.4-28.7c0.6-1,1.5-1.7,2.2-2.6c0.5,0,1,0,1.5,0c0.4,0.4,0.9,0.8,1.3,1.3c4,6.1,8,7.8,15.1,6.1
		c4.5-1.1,8.8-2.5,13.3-3.8c9-2.5,17.9-2.1,26.5,1.9c4.2,1.9,7.5,4.9,9.6,9.1c0.2,0.4,0.8,0.8,1.3,0.8c12.1,0.4,16.9,9.4,17.3,18.3
		c0.3,7.5-1.9,14.5-4.7,21.4c-0.3,0.9-0.7,1.7-1.1,2.5c-1.3,2.4-2,4.8-1.8,7.7c0.3,4.4-1.3,8.5-4.4,11.8c-1.7,1.8-3.8,3-6.3,3.4
		c-0.7,0.1-1.1,0.3-1.2,1.1c-0.8,6.9-4.7,12.1-9.5,16.7c-0.7,0.7-1,1.4-1,2.4c0.1,2.8,0.1,5.5,0,8.3c0,0.9,0.3,1.3,1.2,1.6
		c9.8,3.2,19.6,6.7,28.9,11.2c1.9,0.9,3.8,1.9,5.7,3c7.6,4.1,12.2,10.7,14.7,18.9c1.3,4.3,0.5,5.2-4,5.2c-44.1,0-88.3,0-132.4,0
		c-1.4,0-2.5-0.2-3.2-1.5C0.6,147.2,0.6,146.4,0.6,145.6z M135.9,145c-0.1-0.4-0.1-0.7-0.2-0.9c-2.4-6.1-5.8-11.3-11.7-14.6
		c-11-6.1-22.7-10.2-34.6-14.2c-0.3-0.1-0.9,0.2-1.3,0.5c-1.1,1.1-2.1,2.3-3.3,3.3c-4.6,3.7-10,4.7-15.7,4.4c-6.4-0.3-12-2.4-16-7.8
		c-0.2-0.3-1-0.4-1.4-0.3c-10.2,3.3-20.2,7-29.8,11.6c-5.5,2.7-10.5,5.8-13.5,11.4c-1.1,2.1-2.1,4.2-3.3,6.5
		C48.9,145,92.3,145,135.9,145z M42.4,40.5c0,0.7,0,1.2,0,1.7c0.2,4.3,0.3,8.6,0.5,12.9c0.2,4.6,0.2,4.6-4.3,5
		c-3,0.3-4.8,1.7-5.1,4.4c-0.3,3.7,0.5,7.1,3.1,9.9c1.4,1.5,3.1,2.3,5.1,2.2c2.3-0.1,2.9,0.4,3.2,2.7c0.5,3.6,1.2,7.1,3.4,10.2
		c3.6,5.1,8.1,9.2,13.6,12.2c4.9,2.6,10,3.4,15.1,0.9c10-4.9,17.8-11.6,19.1-23.6c0.2-1.8,1.1-2.5,2.8-2.4c2.6,0.2,4.7-0.8,6-2.8
		c1.1-1.7,2-3.8,2.4-5.8c1.1-5.7-0.9-7.9-6.7-8c-1.8,0-2.4-0.8-2.6-2.5c-0.2-1.3-0.4-2.7-1-3.9c-1.5-2.6-3.3-5.1-4.9-7.7
		c0,0-0.1,0.1-0.2,0.3c-1.5,3.7-3.3,4.9-7.2,4.9c-9.6,0-19.3,0-28.9,0c-4.2,0-6.9-2.7-6.9-6.9c0-1.1,0-2.3,0-3.5
		C46.7,40.7,44.7,40.6,42.4,40.5z M38.5,55.6C38.4,50,38.2,44.4,38,38.9c-0.1-2.4,0.7-3.1,3.1-2.9c2.6,0.2,5.2,0.4,7.9,0.5
		c0-1.3,0-2.3,0-3.3c0-4.3,2.7-7,7-7c9.7,0,19.5,0,29.2,0c3.7,0,6.2,2.1,6.9,5.7c1.3,6.7,3.9,12.8,7.9,18.4c1,1.4,1.5,3.1,2.2,4.7
		c0.1,0.3,0.3,0.7,0.6,0.8c2.1,0.7,4.2,1.3,6.4,2c0.6-1.5,1.4-3.2,2.1-4.9c2.4-6,4.2-12.1,4-18.6c-0.3-9-5.9-14.2-14.8-13.7
		c-1.4,0.1-2.3-0.5-2.7-1.9c-1.2-3.7-3.8-6.4-7.2-8.2c-7.7-3.9-15.8-4.4-24-2.2c-4.8,1.3-9.5,2.8-14.3,4c-4.7,1.1-9.5,1.1-13.7-1.9
		c-1.5-1-2.7-2.3-4.1-3.5c-9.3,15-9.1,34.5-0.6,50C35.5,56.5,37,56,38.5,55.6z M70.6,46.9c4.8,0,9.7,0,14.5,0c2,0,2.7-0.7,2.7-2.7
		c0-3.6,0-7.3,0-10.9c0-2-0.8-2.7-2.9-2.7c-9.6,0-19.2,0-28.8,0c-2.1,0-2.8,0.7-2.8,2.8c0,3.6,0,7.2,0,10.8c0,2.1,0.7,2.8,2.8,2.8
		C61,46.9,65.8,46.9,70.6,46.9z M55.9,103.2c0,2.3,0.2,4.2,0,6.1c-0.3,2.5,0.8,4.3,2.6,5.8c1.1,0.9,2.3,1.8,3.6,2.3
		c5.6,2.3,11.3,2.3,16.9,0.1c2.4-1,4.3-2.5,5.8-4.7c0.2-0.4,0.5-0.8,0.5-1.2c0-2.7,0-5.4,0-8.4C75.5,110.3,65.8,110.3,55.9,103.2z"
		/>
	<path class="st2" d="M138.1,0.6c2.4,0.8,4.5,2.1,5.3,4.7c0.4,1.2,0.5,2.5,0.5,3.7c0,14,0,28.1,0,42.1c0,1,0.3,1.7,1.1,2.3
		c5.5,4.8,5.9,13.2,0.8,18.5c-4.9,5.2-13.3,5.2-18.4,0.1c-5.1-5.2-4.9-13.6,0.5-18.4c0.9-0.8,1.2-1.7,1.2-2.9
		c0-13.7,0.1-27.3-0.1-41c0-4.6,1.5-7.8,6-9.2C136.2,0.6,137.1,0.6,138.1,0.6z M133.7,30.7c2.8,0.4,3.6,0.8,3.6,2.2
		c0,2.5-2,2.2-3.6,2.4c0,2.7,0,5.3,0,8c1.6,0.2,3.5-0.1,3.6,2.2c0.1,1.4-0.5,1.8-3.7,2.4c0,1.6-0.1,3.2,0,4.9
		c0.1,1.4-0.4,2.4-1.7,3.3c-3.2,2.1-4.5,6-3.4,9.6c1.1,3.4,4.4,5.9,8,5.9c3.7,0,7-2.4,8.1-5.9c1.1-3.5-0.1-7.4-3.3-9.5
		c-1.3-0.9-1.8-1.9-1.8-3.5c0-9.4,0-18.8,0-28.2c0-0.6,0-1.1-0.1-1.7c-2,0-3.9,0-5.9,0C133.7,25.4,133.7,28,133.7,30.7z M139.6,18.2
		c0-3.6,0-7,0-10.4c0-1.6-1.3-2.8-2.9-2.9c-1.5,0-3,1-3,2.5c-0.1,3.6,0,7.1,0,10.8C135.6,18.2,137.5,18.2,139.6,18.2z"/>
	<path class="st2" d="M115.9,96.5c-0.3,1.1-0.8,3.3-1.6,5.4c-0.9,2.5-2.2,4.8-2.1,7.6c0,1.2-1.1,2.1-2.2,2.1c-1.2,0-2.1-1-2.1-2.3
		c-0.1-2.8,0.8-5.3,1.9-7.8c1.2-2.5,2.3-5.1,1.6-8c-0.4-1.8-1.1-3.5-1.9-5.1c-0.7-1.5-0.6-2.7,0.5-3.4c1.1-0.7,2.3-0.3,3.2,1.1
		C115,88.8,115.8,92,115.9,96.5z"/>
	<path class="st2" d="M131.5,102.4c-0.5,2-0.9,4.1-1.7,6.1c-1,2.6-2.3,5-2.3,7.9c0,1.2-1.1,2-2.3,2c-1.1-0.1-2-1-2-2.2
		c-0.1-2.6,0.7-5,1.7-7.3c1.2-2.6,2.3-5.1,1.8-8.1c-0.2-1-0.5-2.1-0.7-3.1c-0.4-1.5,0.1-2.7,1.3-3.1c1.2-0.4,2.4,0.2,2.8,1.6
		C130.7,98.1,131,100.1,131.5,102.4z"/>
	<path class="st2" d="M25.4,94.2c0.1-2.2,0.9-5.3,2.7-8.1c0.9-1.4,2.1-1.8,3.3-1.1c1.1,0.7,1.3,2,0.4,3.4c-2.3,3.9-2.7,7.9-0.7,12
		c1.3,2.7,2.4,5.4,2.4,8.4c0,1.7-0.8,2.7-2.2,2.7c-1.3,0-2-1-2.2-2.5c-0.4-2.1-0.9-4.1-1.7-6.1C26.4,100.5,25.3,98.1,25.4,94.2z"/>
	<path class="st2" d="M9.8,102.1c0.4-2,0.8-4,1.4-5.9c0.4-1.4,1.6-2,2.8-1.6c1.2,0.4,1.8,1.6,1.3,3c-1.4,3.7-1,7.2,0.7,10.6
		c1.2,2.4,2.1,4.9,2,7.6c0,1.5-0.8,2.4-2.1,2.5c-1.2,0.1-2-0.9-2.3-2.3c-0.4-2.1-0.9-4.1-1.7-6.1C11,107.4,9.9,104.9,9.8,102.1z"/>
	<path class="st2" d="M79.9,86.1c-0.4,0.5-0.9,1.4-1.5,1.6c-0.7,0.2-1.6-0.2-2.4-0.4c-0.2,0-0.3-0.4-0.4-0.6
		c-1.9-4.1-7.8-4.2-9.9-0.1c-0.7,1.3-1.9,1.7-3,1c-1.1-0.6-1.4-1.9-0.8-3.1c1.9-3.5,4.8-5.4,8.8-5.3c4,0,6.9,1.9,8.7,5.4
		C79.6,85,79.7,85.4,79.9,86.1z"/>
	<path class="st2" d="M53.2,66.2c-1.4,0.1-2.5-0.1-3.1-1.3c-0.7-1.4,0.3-2.9,2-3c1.2-0.1,2.4-0.2,3.5-0.6c0.8-0.3,1.6-1,2.2-1.8
		c1-1.2,2-1.5,3.1-0.8c1.1,0.7,1.3,1.9,0.6,3.2c-1.7,3-4.6,4-7.8,4.3C53.5,66.3,53.2,66.2,53.2,66.2z"/>
	<path class="st2" d="M87.7,66.2c-2.8-0.2-5.9-1.1-7.9-4.1c-0.7-1-0.9-2.1,0-3.1c0.9-1.1,2.6-1,3.4,0.2c1.2,2,3.1,2.5,5.2,2.5
		c2,0.1,2.9,0.7,2.9,2.2C91.3,65.6,90.3,66.3,87.7,66.2z"/>
</g>
</svg>
