<?xml version="1.0" encoding="utf-8"?>
<!-- Generator: Adobe Illustrator 24.3.0, SVG Export Plug-In . SVG Version: 6.00 Build 0)  -->
<svg version="1.1" id="Layer_1" xmlns="http://www.w3.org/2000/svg" xmlns:xlink="http://www.w3.org/1999/xlink" x="0px" y="0px"
	 viewBox="0 0 150 150" style="enable-background:new 0 0 150 150;" xml:space="preserve">
<style type="text/css">
	.st0{fill:#CDEEFD;}
	.st1{fill:#111224;}
	.st2{fill:#005BAB;}
</style>
<path class="st0" d="M1465.3,1556.3c-2.4-0.2-4.3-1.3-4.4-4.1c-0.1-6.7,1.6-10,4.9-9.9c0.2,0,0.3,0,0.5,0c2.2,0.5,4.3,2.1,3.2,4
	C1467.7,1549.5,1473.1,1555.7,1465.3,1556.3z M1465.5,1554.4c1.3-0.1,2.3-0.6,2.3-2.1c-0.1-1.7-1.5-2.1-2.8-2.4c-1.6-0.4-2,0.8-2,2
	C1463,1553.5,1464,1554.2,1465.5,1554.4z M1467.8,1546.5c0-1.4-0.6-2.2-2.1-2.2c-0.9,0-1.6,0.4-1.7,1.4c-0.2,1.4,0.9,2.1,2,2.5
	C1467.3,1548.5,1467.6,1547.5,1467.8,1546.5z"/>
<path class="st0" d="M1455.8,1556.6c-0.5-2.9-1.8-4.2-4.6-3.6c-0.7,0.2-1.7,0.3-2.1-0.8c-0.4-1.1,0.1-1.5,1.2-2.1
	c2.1-1.2,2.1-3.9,3.2-5.8c0.6-1,1-2.2,2.5-1.9c1.4,0.3,0.9,1.6,0.8,2.5C1456.4,1548.6,1458.4,1552.5,1455.8,1556.6z"/>
<path class="st1" d="M1465.5,1554.4c-1.5-0.1-2.6-0.8-2.5-2.4c0-1.2,0.4-2.4,2-2c1.2,0.3,2.7,0.7,2.8,2.4
	C1467.8,1553.7,1466.8,1554.2,1465.5,1554.4z"/>
<path class="st1" d="M1467.8,1546.5c-0.2,1-0.5,2.1-1.8,1.7c-1.1-0.4-2.1-1-2-2.5c0.1-1,0.8-1.4,1.7-1.4
	C1467.2,1544.3,1467.8,1545,1467.8,1546.5z"/>
<polygon class="st2" points="1346.8,29.4 1346.9,29.6 1346.6,29.6 "/>
<g>
	<path class="st2" d="M49.9,24.2c0-1.5,0-2.8,0-4.1c0.1-1.5,0-3.1,0.4-4.6c0.9-3.5,3.9-6.3,8.1-6.2c2,0.1,3.9,0.4,5.8,1.8
		c0-1.1-0.1-2,0-2.8C64.5,4.9,66,2,69.4,0.9c6.8-2.2,11.7,1.6,12,7.8c0.1,1.7,0,3.3,0,5.1c0.3-0.1,0.5-0.2,0.7-0.3
		c5.5-3.7,12.7-0.3,13.4,6.2c0.1,0.9,0.2,1.9,0.2,2.9c0,9.5,0,18.9,0,28.4c0,0.4,0,0.8,0.2,1.3c0.3-0.9,0.6-1.7,0.9-2.6
		c0.7-2.2,1.4-4.3,3.2-6c2.9-2.8,6.5-3.3,10.1-1.4c3,1.5,4.9,5.2,4.2,8.7c-0.4,2.3-1.2,4.5-2,6.7c-3,8.9-6.1,17.8-9.1,26.7
		C101.5,89,99,93,94.4,95.1c-1.7,0.8-2.1,1.7-2.1,3.5c0.1,15.5,0,31.1,0,46.6c0,0.3,0,0.7-0.1,1c-0.2,0.8-0.7,1.2-1.5,1.2
		c-0.8,0-1.4-0.4-1.5-1.2c-0.1-0.4-0.1-0.8-0.1-1.2c0-15.9,0-31.9,0-47.8c0-0.5,0-1-0.1-1.4c-0.4-1.4,0-1.9,1.4-2.4
		c1.6-0.6,3.1-1.4,4.5-2.3c2.9-1.8,4.2-4.9,5.2-8c3.5-10.1,7-20.2,10.4-30.4c0.4-1.2,0.6-2.6,0.4-3.9c-0.3-2.5-2.1-4.1-4.7-4.4
		c-2.1-0.2-4.5,1.2-5.4,3.5c-1,2.6-1.8,5.2-2.7,7.8c-0.8,2.4-1.5,4.7-2.3,7.1c-0.3,0.8-0.7,1.5-1.7,1.5c-0.9,0-1.6-0.5-1.7-1.4
		c-0.1-0.5,0-1,0-1.5c0-13.2,0-26.3,0-39.5c0-1.3-0.3-2.7-1-3.9c-1.9-3.5-6.8-3.6-8.8-0.1c-0.6,1.1-1,2.6-1,3.9
		c-0.1,8.1,0,16.1,0,24.2c0,2.2-0.4,3-1.6,3c-1.2,0-1.8-0.9-1.8-3c0-11.9,0-23.9,0-35.8c0-0.8,0-1.6-0.2-2.3c-0.5-2.6-2.3-4-5-4
		c-3.1,0-4.7,1.1-5.5,3.9c-0.2,0.6-0.2,1.3-0.2,2c0,13.9,0,27.7,0,41.6c0,0.1,0,0.2,0,0.3c0,1.4-0.6,2.2-1.6,2.2
		c-1,0-1.8-0.9-1.8-2.3c0-10.9,0-21.8,0-32.7c0-0.6,0-1.3-0.1-1.8c-0.9-3.3-2.7-4.6-6.5-4.2c-2.2,0.2-4.1,2.5-4.2,5.3
		c0,0.8,0,1.6,0,2.4c0,10.4,0,20.7,0,31.1c0,1.6-0.5,2.4-1.6,2.3c-1,0-1.7-0.9-1.7-2.4c0-6.5,0-13,0-19.6c0-0.9-0.2-1.9-0.5-2.8
		c-0.9-2.5-2.9-3.8-5.4-3.6c-2.2,0.1-4.1,1.9-4.7,4.2c-0.2,0.7-0.2,1.5-0.2,2.2c0,12.6,0,25.2,0,37.8c0,3.1,0.7,6.2,1.7,9.1
		c1.4,4.4,3.3,8.7,6.5,12.2c1,1.1,2.2,2,3.7,2.4c1.1,0.3,1.5,1.1,1.2,2.2c-0.1,0.5-0.2,1.1-0.2,1.6c0,16.7,0,33.4,0,50.1
		c0,0.4,0,0.8-0.1,1.2c-0.2,0.8-0.8,1.3-1.6,1.2c-0.8-0.1-1.4-0.6-1.5-1.4c0-0.3,0-0.7,0-1c0-16.7,0-33.4,0-50.1
		c0-0.9-0.2-1.3-1-1.7c-2.8-1.7-4.8-4.3-6.3-7.1c-3.6-6.6-5.7-13.6-5.6-21.3c0.1-11.8,0-23.5,0-35.3c0-3,1-5.6,3.3-7.6
		c2.7-2.3,7-2.6,9.9-0.6C49.2,23.7,49.5,23.9,49.9,24.2z"/>
	<circle class="st2" cx="56.9" cy="73.4" r="1.2"/>
	<circle class="st2" cx="50.8" cy="83" r="1.2"/>
	<circle class="st2" cx="61.3" cy="81.5" r="1.2"/>
	<circle class="st2" cx="69.9" cy="69.3" r="1.2"/>
	<circle class="st2" cx="58" cy="64.1" r="1.2"/>
	<circle class="st2" cx="72.5" cy="60" r="1.2"/>
	<circle class="st2" cx="72.2" cy="79.2" r="1.2"/>
	<circle class="st2" cx="91.8" cy="78.5" r="1.2"/>
	<circle class="st2" cx="80.1" cy="75.7" r="1.2"/>
	<circle class="st2" cx="83.4" cy="65.5" r="1.2"/>
	<circle class="st2" cx="71.5" cy="90.2" r="1.2"/>
	<circle class="st2" cx="82" cy="86" r="1.2"/>
	<circle class="st2" cx="61.5" cy="93.7" r="1.2"/>
	<circle class="st2" cx="68" cy="100.2" r="1.2"/>
	<circle class="st2" cx="76.4" cy="111.5" r="1.2"/>
	<circle class="st2" cx="61.6" cy="124" r="1.2"/>
	<circle class="st2" cx="57.5" cy="132.9" r="1.2"/>
	<circle class="st2" cx="82.2" cy="106.8" r="1.2"/>
	<circle class="st2" cx="79.9" cy="96.9" r="1.2"/>
	<circle class="st2" cx="60.2" cy="103.9" r="1.2"/>
	<circle class="st2" cx="66.2" cy="113.2" r="1.2"/>
	<circle class="st2" cx="71.5" cy="122.3" r="1.2"/>
	<circle class="st2" cx="67.4" cy="130.9" r="1.2"/>
	<circle class="st2" cx="82.4" cy="139" r="1.2"/>
	<circle class="st2" cx="59.8" cy="141.4" r="1.2"/>
	<circle class="st2" cx="71.7" cy="139.2" r="1.2"/>
	<circle class="st2" cx="80.4" cy="118.7" r="1.2"/>
	<circle class="st2" cx="82.6" cy="126.6" r="1.2"/>
	<circle class="st2" cx="72.3" cy="105.7" r="1.2"/>
	<circle class="st2" cx="58.1" cy="113.7" r="1.2"/>
</g>
</svg>
