<?xml version="1.0" encoding="utf-8"?>
<!-- Generator: Adobe Illustrator 24.3.0, SVG Export Plug-In . SVG Version: 6.00 Build 0)  -->
<svg version="1.1" id="Layer_1" xmlns="http://www.w3.org/2000/svg" xmlns:xlink="http://www.w3.org/1999/xlink" x="0px" y="0px"
	 viewBox="0 0 150 150" style="enable-background:new 0 0 150 150;" xml:space="preserve">
<style type="text/css">
	.st0{fill:#CDEEFD;}
	.st1{fill:#111224;}
	.st2{fill:#005BAB;}
</style>
<path class="st0" d="M1465.3,1556.3c-2.4-0.2-4.3-1.3-4.4-4.1c-0.1-6.7,1.6-10,4.9-9.9c0.2,0,0.3,0,0.5,0c2.2,0.5,4.3,2.1,3.2,4
	C1467.7,1549.5,1473.1,1555.7,1465.3,1556.3z M1465.5,1554.4c1.3-0.1,2.3-0.6,2.3-2.1c-0.1-1.7-1.5-2.1-2.8-2.4c-1.6-0.4-2,0.8-2,2
	C1463,1553.5,1464,1554.2,1465.5,1554.4z M1467.8,1546.5c0-1.4-0.6-2.2-2.1-2.2c-0.9,0-1.6,0.4-1.7,1.4c-0.2,1.4,0.9,2.1,2,2.5
	C1467.3,1548.5,1467.6,1547.5,1467.8,1546.5z"/>
<path class="st0" d="M1455.8,1556.6c-0.5-2.9-1.8-4.2-4.6-3.6c-0.7,0.2-1.7,0.3-2.1-0.8c-0.4-1.1,0.1-1.5,1.2-2.1
	c2.1-1.2,2.1-3.9,3.2-5.8c0.6-1,1-2.2,2.5-1.9c1.4,0.3,0.9,1.6,0.8,2.5C1456.4,1548.6,1458.4,1552.5,1455.8,1556.6z"/>
<path class="st1" d="M1465.5,1554.4c-1.5-0.1-2.6-0.8-2.5-2.4c0-1.2,0.4-2.4,2-2c1.2,0.3,2.7,0.7,2.8,2.4
	C1467.8,1553.7,1466.8,1554.2,1465.5,1554.4z"/>
<path class="st1" d="M1467.8,1546.5c-0.2,1-0.5,2.1-1.8,1.7c-1.1-0.4-2.1-1-2-2.5c0.1-1,0.8-1.4,1.7-1.4
	C1467.2,1544.3,1467.8,1545,1467.8,1546.5z"/>
<polygon class="st2" points="1346.8,29.4 1346.9,29.6 1346.6,29.6 "/>
<g>
	<g>
		<path class="st2" d="M89.8,35.2c7.6,3.1,11.9,8.7,12.7,16.8c0.4,3.7,0.5,7.5,0.7,11.3c0.4,7.7,0.9,15.5,1.3,23.2
			c0.2,4.5-1.2,8.4-4.1,11.8c-0.2,0.2-0.3,0.4-0.4,0.7c4,0,7.8,0,11.8,0c0-0.6,0-1.2,0-1.7c0-10.6,0-21.1,0-31.7
			c0-4.4,3.1-7.5,7.5-7.5c1.5,0,2.9,0,4.4,0c4.3,0,7.4,3.1,7.4,7.4c0,12.1,0.2,24.1,0,36.2c-0.2,11.1-5.7,19.1-15.6,24
			c-0.9,0.4-1.2,0.9-1.2,1.9c0.1,6.3,0,12.7,0,19c0,2.4-0.8,3.2-3.3,3.2c-6.3,0-12.6-0.1-18.9,0c-4,0.1-5.3-1.3-3.7-5.2
			c2.1-5,2.2-10.1,0.4-15.3c-0.4-1-0.8-1.4-1.9-1.5c-11-1.3-19.9-9.1-22.6-19.9c-0.3-1.3-0.5-2.5-0.8-3.9c-2,0-3.9,0-5.9,0
			c-1.9,0-3.9,0-5.9,0c0.4,3.1,0.8,6.1,1.2,9c0.1,0.4,0.5,0.9,0.8,1c6.4,1.9,6.2,12.3,2.1,15c-0.4,0.3-0.8,1.1-0.7,1.5
			c1.1,5.3,1.2,10.6,1.1,15.9c0,2.7-0.7,3.4-3.4,3.4c-7.7,0-15.5,0-23.2,0c-4.6,0-4.9-0.3-4.8-4.9c0.1-5.4,4.3-9.5,9.6-9.6
			c1.3,0,2.6,0,4,0c-0.5-1.7-0.9-3.2-1.4-4.9c-4.4,0.4-8.2-0.6-9.5-5.4c-1.4-4.8-0.1-7.8,4.6-11.3c-0.1-0.3-0.2-0.6-0.2-1
			c-1.4-4.7-2.8-9.3-4.1-14c-2.3-8.7,3.2-17.4,12.1-18.7c3.1-0.5,6.3-0.2,9.5-0.3c1,0,2-0.2,2.9-0.6c4.2-1.8,8.3-3.8,12.5-5.6
			c0.9-0.4,1.2-0.8,1.2-1.8c0-6.8,0-13.6,0-20.4c0-5.1,1.8-9.4,5.5-12.9c0.2-0.2,0.4-0.4,0.7-0.7c-0.4-0.2-0.6-0.3-0.9-0.4
			c-0.3-0.1-0.6-0.2-0.8-0.4c-4.7-2.5-7.9-6.3-8.8-11.6c-0.5-2.8-0.4-5.7-0.4-8.6c0.1-8.6,6.5-15.5,15.2-16.6
			c8.1-1,16.2,4.5,18,12.8c0.8,3.6,0.6,7.4,0.4,11.1c-0.3,4.3-2.5,7.8-5.8,10.8C89.3,35.1,89.5,35.2,89.8,35.2z M46.7,102.8
			c-0.4-2.6,0.5-3.6,3.2-3.6c12.6,0,25.1,0,37.7,0c3.3,0,6.1-1,8.7-3.4c-4.3-1.3-7-4.3-9.7-7.3c-2.2-2.5-5.3-3.7-8.6-3.7
			c-11.9,0-23.8-0.1-35.7,0c-6.7,0-11.5,6.4-9.7,13c1.4,5,2.9,10,4.4,15c0.1,0.4,0.7,0.9,1,0.9c3.3,0.1,6.6,0,10.1,0
			C47.6,109.8,47.2,106.3,46.7,102.8z M68.6,104c0.1,2.9,1,5.4,2.4,7.8c4.1,7.2,10.3,11.1,18.6,11.4c5.2,0.2,10.5,0.1,15.7,0
			c10-0.2,18.9-8,20.6-17.8c0.1-0.4,0.1-0.9,0.1-1.4C106.9,104,87.8,104,68.6,104z M73,69.8c2.6-1.2,2.6-1.2,2.5-4.3
			c-2-0.4-2.4-1.8-2.4-3.6c0.1-2.8,0-5.6,0-8.4c0.1-5.5,4.3-9.7,9.6-9.7c5.3,0,9.6,4.2,9.6,9.7c0,3,0,5.9,0,8.9
			c0,1.7-0.6,2.8-2.5,3.2c0.6,6.1-0.1,11.8-6.4,15.4c3.9,1.4,6.5,3.9,8.9,6.8c1.6,2,3.9,3.1,6.7,3.8c0.2-1.7,0.5-3.3,0.5-4.8
			c-0.5-9.6-1.1-19.2-1.6-28.7c-0.2-2.7-0.2-5.4-0.8-7.9c-1.7-7.5-9.4-12.3-16.7-10.9c-5.2,1-9.5,5.4-9.7,10.7
			c-0.3,6.9-0.1,13.9-0.1,21C71.7,70.4,72.4,70.1,73,69.8z M126.3,99.1c0-0.6,0-1,0-1.5c0-10.4,0-20.8,0-31.2c0-2.7-0.7-3.4-3.4-3.4
			c-1.3,0-2.5,0-3.8,0c-1.5,0.1-2.5,0.9-2.5,2.3c0,11.2,0,22.5,0,33.8C119.9,99.1,123,99.1,126.3,99.1z M109.3,144.9
			c0-5.7,0-11.4,0-17c-5.3,0-10.5,0-15.9,0c1.9,5.8,2,11.3,0,17C98.8,144.9,104,144.9,109.3,144.9z M79.6,12.2
			c2.4,0,3.2,0.8,3.2,3.1c0,2.2-0.1,4.4,0,6.6c0,0.6,0.4,1.3,0.8,1.7c1.5,1.3,3.1,2.5,5,4c0.5-1.5,1.2-2.9,1.3-4.2
			c0.1-3,0.3-6.1-0.2-9c-0.8-5-5-8.7-10.2-9.5c-4.7-0.7-9.7,1.9-12,6.1c-0.1,0.3-0.2,0.5-0.5,1C71.4,12.2,75.5,12.2,79.6,12.2z
			 M65.7,17.1c0.3,2.9,0.1,5.8,0.9,8.4c2.3,8,12.3,11.1,18.7,5.8c-1.7-1.4-3.3-2.8-5.1-4c-1.7-1.2-2.5-2.6-2.3-4.7
			c0.2-1.8,0-3.6,0-5.5C73.9,17.1,70,17.1,65.7,17.1z M35,118.4c-2,0-2.8,0.9-2.9,2.9c0,0.7,0,1.3,0,2c0.1,1.4,1,2.4,2.4,2.4
			c5.6,0,11.3,0,16.9,0c1.4,0,2.3-1,2.4-2.4c0-0.1,0-0.3,0-0.5c0.1-3.9-0.4-4.4-4.2-4.4c-2.2,0-4.4,0-6.6,0
			C40.3,118.4,37.7,118.4,35,118.4z M87.6,52.7c-0.1-2.4-2.3-4.2-4.7-4.2c-2.4,0-4.7,1.8-4.8,4.3c-0.2,2.5,0,5.1,0,7.7
			c3.2,0,6.3,0,9.6,0C87.6,57.8,87.7,55.2,87.6,52.7z M80.7,76.8c2.7-0.9,4.2-3,4.5-5.7c0.2-1.8,0-3.7,0-5.6c-1.6,0-3,0-4.8,0
			c0,1.3-0.1,2.7,0,4.1c0.1,1.6-0.6,2.5-2,3.1c-4.4,1.9-8.8,4-13.2,6c-0.7,0.3-1.3,0.6-2.1,1C69.4,80.7,75,78.6,80.7,76.8z
			 M51.4,140.3c-0.3,0-0.6-0.1-0.9-0.1c-5.3,0-10.5,0-15.8,0c-2.8,0-4.7,1.8-4.9,4.7c7.1,0,14.3,0,21.6,0
			C51.4,143.3,51.4,141.8,51.4,140.3z M50.3,130.6c-2.7,0-5.3,0-8,0c0.4,1.5,0.8,2.9,1.2,4.2c0.1,0.3,0.6,0.5,0.9,0.5
			c2.1,0,4.3,0,6.7,0C50.8,133.6,50.5,132.1,50.3,130.6z"/>
	</g>
	<path class="st2" d="M35.1,45.1c3.1-1.6,6-3.1,9-4.8c-3.7-2.3-7.3-4.5-10.9-6.8c0.9-1.5,1.8-2.9,2.7-4.4
		c6.2,3.8,12.3,7.6,18.6,11.5c-3.1,1.6-5.9,3.1-9,4.8c3.7,2.3,7.3,4.5,10.9,6.8c-0.9,1.5-1.8,2.9-2.7,4.4
		C47.6,52.8,41.5,49.1,35.1,45.1z"/>
	<path class="st2" d="M40.6,57.3c-1.7,3-3.2,5.8-4.7,8.6C40,66,44.2,66,48.4,66.1c0,1.6-0.1,3.2-0.1,5c-6.9,0.2-14,0.3-21.5,0.5
		c1.7-3,3.2-5.9,4.8-8.7c-4.2-0.1-8.4-0.2-12.7-0.3c0.1-1.4,0.2-3.1,0.3-4.9C26,57.6,33.3,57.5,40.6,57.3z"/>
</g>
</svg>
