<?xml version="1.0" encoding="utf-8"?>
<!-- Generator: Adobe Illustrator 24.3.0, SVG Export Plug-In . SVG Version: 6.00 Build 0)  -->
<svg version="1.1" id="Layer_1" xmlns="http://www.w3.org/2000/svg" xmlns:xlink="http://www.w3.org/1999/xlink" x="0px" y="0px"
	 viewBox="0 0 150 150" style="enable-background:new 0 0 150 150;" xml:space="preserve">
<style type="text/css">
	.st0{fill:url(#SVGID_1_);}
	.st1{fill:url(#SVGID_2_);}
	.st2{fill:url(#SVGID_3_);}
	.st3{fill:url(#SVGID_4_);}
	.st4{fill:url(#SVGID_5_);}
	.st5{fill:url(#SVGID_6_);}
	.st6{fill:url(#SVGID_7_);}
	.st7{fill:url(#SVGID_8_);}
	.st8{fill:#CDEEFD;}
	.st9{fill:#111224;}
	.st10{fill:#005BAB;}
</style>
<g>
	
		<linearGradient id="SVGID_1_" gradientUnits="userSpaceOnUse" x1="249.2936" y1="420.9963" x2="289.6348" y2="420.9963" gradientTransform="matrix(-1 0 0 -1 1028.9943 531.0285)">
		<stop  offset="0" style="stop-color:#00AE4D"/>
		<stop  offset="0.2214" style="stop-color:#0C8D5A"/>
		<stop  offset="0.5722" style="stop-color:#1D5D6D"/>
		<stop  offset="0.8413" style="stop-color:#274079"/>
		<stop  offset="0.9944" style="stop-color:#2B357D"/>
	</linearGradient>
	<path class="st0" d="M779.7,112c-0.5,1.9-0.8,3.8-1.5,5.6c-3.2,8.1-11.4,13.5-20.6,12.6c-9.4-1-16.7-7.9-18-17
		c-1.7-11.5,6.3-22,17.8-23.2c10.9-1.2,20.9,6.8,22.1,17.6c0,0.2,0.1,0.4,0.2,0.6C779.7,109.4,779.7,110.7,779.7,112z M755.5,107.7
		c-1.1,0-2.1,0-3.1,0c-0.7,0-1.3,0.2-1.6,0.9c-0.3,0.7,0,1.3,0.4,1.8c2.3,2.7,4.7,5.4,7,8.1c1,1.2,1.8,1.2,2.9-0.1
		c2.3-2.7,4.5-5.4,6.8-8.1c0.5-0.6,0.7-1.1,0.5-1.8c-0.3-0.8-1-0.9-1.7-0.9c-1,0-1.9,0-3,0c0-1.7,0-3.3,0-4.9c0-1.1-0.3-1.4-1.4-1.4
		c-1.8,0-3.6,0-5.4,0c-1,0-1.4,0.3-1.4,1.4C755.5,104.3,755.5,105.9,755.5,107.7z"/>
	<linearGradient id="SVGID_2_" gradientUnits="userSpaceOnUse" x1="686.402" y1="83.0627" x2="773.5789" y2="83.0627">
		<stop  offset="0" style="stop-color:#00AE4D"/>
		<stop  offset="0.2214" style="stop-color:#0C8D5A"/>
		<stop  offset="0.5722" style="stop-color:#1D5D6D"/>
		<stop  offset="0.8413" style="stop-color:#274079"/>
		<stop  offset="0.9944" style="stop-color:#2B357D"/>
	</linearGradient>
	<path class="st1" d="M737.9,126.3c-0.5,0-0.9,0-1.2,0c-13.2,0-26.4,0-39.6,0c-6.3,0-10.7-4.4-10.7-10.7c0-20,0-39.9,0-59.9
		c0-6.1,4.4-10.5,10.5-10.5c5.2,0,10.4,0,15.7,0c0.5,0,1.1-0.2,1.6-0.5c5.7-4,12-5.4,18.8-4.7c4.9,0.4,9.4,2.1,13.4,5
		c0.3,0.2,0.7,0.3,1.1,0.3c5.2,0,10.4,0.1,15.6,0c5.7-0.1,9.7,4,10.4,8.4c0.1,0.7,0.2,1.4,0.2,2.1c0,10.1,0,20.2,0,30.2
		c0,0.3,0,0.6,0,1c-1-0.5-2-0.9-2.8-1.5c-0.2-0.1-0.3-0.6-0.3-1c0-9.6,0-19.1,0-28.7c0-3.1-1.3-5.4-4.1-6.7c-1-0.5-2.2-0.7-3.3-0.7
		c-5.4-0.1-10.9,0-16.3,0c-0.9,0-1.6-0.2-2.3-0.8c-3.5-2.8-7.6-4.2-12.1-4.6c-6-0.5-11.7,0.6-16.6,4.3c-1,0.8-2,1.1-3.3,1.1
		c-5.2,0-10.4,0-15.6,0c-4.6,0-7.6,3-7.6,7.6c0,19.8,0,39.7,0,59.5c0,5,2.9,7.8,7.9,7.8c12.5,0,24.9,0,37.4,0c0.9,0,1.4,0.2,1.8,1
		C736.9,124.9,737.4,125.5,737.9,126.3z"/>
	<linearGradient id="SVGID_3_" gradientUnits="userSpaceOnUse" x1="712.637" y1="66.5754" x2="747.8466" y2="66.5754">
		<stop  offset="0" style="stop-color:#00AE4D"/>
		<stop  offset="0.2214" style="stop-color:#0C8D5A"/>
		<stop  offset="0.5722" style="stop-color:#1D5D6D"/>
		<stop  offset="0.8413" style="stop-color:#274079"/>
		<stop  offset="0.9944" style="stop-color:#2B357D"/>
	</linearGradient>
	<path class="st2" d="M730.2,84.2c-9.7,0-17.6-7.9-17.6-17.7c0-9.6,8-17.5,17.6-17.5c9.8,0,17.7,8,17.6,17.7
		C747.8,76.4,739.9,84.2,730.2,84.2z M714.8,65.5c0.9,0,1.6,0,2.4,0c0.7,0,1.3,0.2,1.3,1.1c0,0.8-0.6,1.1-1.3,1.1
		c-0.8,0-1.6,0-2.4,0c0.3,3.5,1.5,6.5,3.8,9.1c0.5-0.5,1-1,1.4-1.5c0.5-0.5,1.1-0.7,1.7-0.2c0.6,0.5,0.4,1.2-0.1,1.7
		c-0.5,0.5-1,0.9-1.6,1.4c2.8,2.3,5.7,3.6,9.2,3.8c0-0.7,0-1.3,0-1.8c0-0.8,0.3-1.3,1.1-1.3c0.7,0,1,0.5,1,1.2c0,0.6,0,1.2,0,1.9
		c3.6-0.3,6.5-1.5,9.2-3.8c-0.6-0.5-1-1-1.5-1.4c-0.5-0.5-0.6-1.1-0.1-1.7c0.5-0.5,1.1-0.4,1.6,0.2c0.5,0.5,0.9,1,1.4,1.5
		c2.3-2.8,3.6-5.8,3.7-9.3c-0.8,0-1.4,0-2.1,0c-0.9,0-1.4-0.5-1.4-1.1c0.1-0.8,0.6-1.1,1.3-1c0.7,0,1.4,0,2.1,0
		c-0.3-3.5-1.6-6.4-4-9.1c-0.5,0.5-0.8,1-1.2,1.4c-0.5,0.5-1.1,0.7-1.7,0.1c-0.5-0.5-0.4-1.1,0.1-1.6c0.4-0.4,0.9-0.8,1.4-1.3
		c-2.7-2.2-5.6-3.4-9.1-3.7c0,0.8,0,1.6,0,2.3c0,0.7-0.3,1.3-1.1,1.3c-0.8,0-1.1-0.5-1.1-1.3c0-0.8,0-1.5,0-2.3
		c-3.4,0.3-6.4,1.5-9,3.8c0.6,0.5,1.1,1,1.6,1.5c0.5,0.5,0.7,1.1,0.1,1.7c-0.5,0.5-1.1,0.4-1.6-0.1c-0.5-0.5-0.9-1-1.4-1.6
		C716.3,59.1,715.2,62,714.8,65.5z"/>
	<linearGradient id="SVGID_4_" gradientUnits="userSpaceOnUse" x1="716.556" y1="115.371" x2="733.4299" y2="115.371">
		<stop  offset="0" style="stop-color:#00AE4D"/>
		<stop  offset="0.2214" style="stop-color:#0C8D5A"/>
		<stop  offset="0.5722" style="stop-color:#1D5D6D"/>
		<stop  offset="0.8413" style="stop-color:#274079"/>
		<stop  offset="0.9944" style="stop-color:#2B357D"/>
	</linearGradient>
	<path class="st3" d="M716.6,117.3c0-0.2-0.1-0.4-0.1-0.6c0-1,0-2.1,0-3.1c5.4,0,10.7,0,16.1,0c0.2,1.2,0.5,2.5,0.8,3.8
		C727.8,117.3,722.2,117.3,716.6,117.3z"/>
	<linearGradient id="SVGID_5_" gradientUnits="userSpaceOnUse" x1="759.1" y1="57.4209" x2="764.9484" y2="57.4209">
		<stop  offset="0" style="stop-color:#00AE4D"/>
		<stop  offset="0.2214" style="stop-color:#0C8D5A"/>
		<stop  offset="0.5722" style="stop-color:#1D5D6D"/>
		<stop  offset="0.8413" style="stop-color:#274079"/>
		<stop  offset="0.9944" style="stop-color:#2B357D"/>
	</linearGradient>
	<path class="st4" d="M764.9,57.4c0,1.6-1.3,3-2.9,3c-1.6,0-2.9-1.3-2.9-3c0-1.6,1.3-2.9,2.9-2.9C763.6,54.4,764.9,55.7,764.9,57.4z
		"/>
	<linearGradient id="SVGID_6_" gradientUnits="userSpaceOnUse" x1="695.0318" y1="57.4123" x2="700.9091" y2="57.4123">
		<stop  offset="0" style="stop-color:#00AE4D"/>
		<stop  offset="0.2214" style="stop-color:#0C8D5A"/>
		<stop  offset="0.5722" style="stop-color:#1D5D6D"/>
		<stop  offset="0.8413" style="stop-color:#274079"/>
		<stop  offset="0.9944" style="stop-color:#2B357D"/>
	</linearGradient>
	<path class="st5" d="M700.9,57.4c0,1.6-1.4,3-3,2.9c-1.6,0-2.9-1.4-2.9-3c0-1.6,1.4-2.9,2.9-2.9C699.6,54.5,700.9,55.8,700.9,57.4z
		"/>
	<linearGradient id="SVGID_7_" gradientUnits="userSpaceOnUse" x1="695.0323" y1="115.3878" x2="700.9096" y2="115.3878">
		<stop  offset="0" style="stop-color:#00AE4D"/>
		<stop  offset="0.2214" style="stop-color:#0C8D5A"/>
		<stop  offset="0.5722" style="stop-color:#1D5D6D"/>
		<stop  offset="0.8413" style="stop-color:#274079"/>
		<stop  offset="0.9944" style="stop-color:#2B357D"/>
	</linearGradient>
	<path class="st6" d="M700.9,115.3c0,1.6-1.3,3-2.9,3c-1.6,0-3-1.3-3-2.9c0-1.6,1.3-2.9,2.9-2.9
		C699.5,112.4,700.9,113.7,700.9,115.3z"/>
	<linearGradient id="SVGID_8_" gradientUnits="userSpaceOnUse" x1="729.0515" y1="64.1856" x2="737.2925" y2="64.1856">
		<stop  offset="0" style="stop-color:#00AE4D"/>
		<stop  offset="0.2214" style="stop-color:#0C8D5A"/>
		<stop  offset="0.5722" style="stop-color:#1D5D6D"/>
		<stop  offset="0.8413" style="stop-color:#274079"/>
		<stop  offset="0.9944" style="stop-color:#2B357D"/>
	</linearGradient>
	<path class="st7" d="M730.2,68.8c-0.4-0.3-0.9-0.5-1.1-0.9c-0.2-0.4-0.2-1.1,0.1-1.4c1.9-2.2,3.8-4.4,5.7-6.6
		c0.5-0.6,1.2-0.5,1.8,0c0.6,0.5,0.7,1.2,0.2,1.8c-1.9,2.2-3.8,4.4-5.7,6.5C731.1,68.5,730.7,68.6,730.2,68.8z"/>
</g>
<path class="st8" d="M1465.3,1556.3c-2.4-0.2-4.3-1.3-4.4-4.1c-0.1-6.7,1.6-10,4.9-9.9c0.2,0,0.3,0,0.5,0c2.2,0.5,4.3,2.1,3.2,4
	C1467.7,1549.5,1473.1,1555.7,1465.3,1556.3z M1465.5,1554.4c1.3-0.1,2.3-0.6,2.3-2.1c-0.1-1.7-1.5-2.1-2.8-2.4c-1.6-0.4-2,0.8-2,2
	C1463,1553.5,1464,1554.2,1465.5,1554.4z M1467.8,1546.5c0-1.4-0.6-2.2-2.1-2.2c-0.9,0-1.6,0.4-1.7,1.4c-0.2,1.4,0.9,2.1,2,2.5
	C1467.3,1548.5,1467.6,1547.5,1467.8,1546.5z"/>
<path class="st8" d="M1455.8,1556.6c-0.5-2.9-1.8-4.2-4.6-3.6c-0.7,0.2-1.7,0.3-2.1-0.8c-0.4-1.1,0.1-1.5,1.2-2.1
	c2.1-1.2,2.1-3.9,3.2-5.8c0.6-1,1-2.2,2.5-1.9c1.4,0.3,0.9,1.6,0.8,2.5C1456.4,1548.6,1458.4,1552.5,1455.8,1556.6z"/>
<path class="st9" d="M1465.5,1554.4c-1.5-0.1-2.6-0.8-2.5-2.4c0-1.2,0.4-2.4,2-2c1.2,0.3,2.7,0.7,2.8,2.4
	C1467.8,1553.7,1466.8,1554.2,1465.5,1554.4z"/>
<path class="st9" d="M1467.8,1546.5c-0.2,1-0.5,2.1-1.8,1.7c-1.1-0.4-2.1-1-2-2.5c0.1-1,0.8-1.4,1.7-1.4
	C1467.2,1544.3,1467.8,1545,1467.8,1546.5z"/>
<polygon class="st10" points="1346.8,29.4 1346.9,29.6 1346.6,29.6 "/>
<g>
	<path class="st10" d="M73,0.9c3,0.5,6.1,0.8,9.1,1.4C87.7,3.4,93,5.4,97.9,8.2c0.9,0.5,1.4,0.3,2.1-0.2c10.4-7.1,21.2-7.9,32.5-2.3
		c0.7,0.3,1.4,1.1,1.6,1.8c0.1,0.6-0.4,1.7-0.9,2c-0.6,0.4-1.7,0.4-2.4,0c-3-1.5-6.1-2.6-9.4-3.1c-13-1.9-26.8,8.1-29,21.1
		c-2.5,15,6.9,28.2,21.8,30.8c13.5,2.3,26.7-7,29.4-20.8c1.5-7.3,0.1-14.1-4.3-20.2c-0.7-1-1.3-1.9-0.4-3.1c1-1.3,2.6-1.2,3.6,0.2
		c3.1,4.2,5.1,8.9,5.7,14.1c1.8,16.4-7.8,29.9-23.9,33.9c-0.1,0-0.2,0.1-0.4,0.2c0.2,2.7,0.8,5.4,1.9,7.9c1.1,2.4,2.4,4.7,3.7,7
		c2.3,4,4.5,8.1,5.3,12.7c1.1,5.9,0,11.5-2.2,17c-0.4,1-0.8,2-1.2,2.9c-1.7,3.8-1.7,7.5,0.1,11.3c0.9,1.8,1.5,3.7,1.9,5.6
		c1.1,5.5-3,11-8.7,11.5c-3.1,0.3-6.2,0.1-9.3,0.2c-1.4,0-2.8,0-4.3,0c0,0.4-0.1,0.8-0.1,1.2c0,2.3,0,4.5,0,6.8
		c0,1.6-0.9,2.5-2.2,2.6c-1.3,0-2.2-1-2.2-2.5c0-2.2,0-4.4,0-6.7c-0.3-11.8-5-21.5-14-29.2c-0.1-0.1-0.2-0.2-0.3-0.3
		c-1.8-1.4-1.8-1.4-3.8-0.2c-2.1,1.1-4.2,2.3-6.3,3.1c-1.2,0.5-1.5,1-1.4,2.2c0.1,2.1,0.1,4.2-0.1,6.2c-0.5,6.3-5.9,11.1-12.3,11.1
		c-6.4,0-11.8-4.8-12.4-11.1c-0.1-1.4-0.1-2.8-0.1-4.2c0-0.9-0.2-1.4-1-1.8c-0.8-0.4-1.7-0.9-1.9-1.6c-0.8-2-2.6-2.7-4.3-3.6
		c-2.7-1.6-2.7-1.6-5,0.5c-1.8,1.7-3.5,3.5-5.2,5.3c-1.2,1.3-2.2,1.6-3.3,0.7c-1.1-0.9-1.1-2.1,0-3.4c1.1-1.3,2.3-2.6,3.5-3.8
		c1.2-1.2,2.6-2.3,4-3.6c-4.9-4.5-8.5-9.9-10.7-16.2c-8.5,0.3-13.3-3.3-13.9-10.1c-0.5-6.2,3.8-10.6,11.7-11.8c0-0.7,0-1.4,0-2.1
		c0-4.5,0-9,0-13.5c0-3.3,1.5-5.5,4.4-6.9c0.5-0.3,1.1-0.5,1.6-0.6c5.5-1.5,8.1-5.4,9.1-10.7c0.2-1.1,0.3-2.3,0.5-3.4
		c0.2-1.2,1-2,2.2-2.2c1.2-0.2,2.3,0.1,2.9,1.1c2.9,5.2,7.7,6.5,13.1,6.7c1.7,0,3.5,0,5.2-0.2c5.8-0.7,10.6,1.1,14.8,5.1
		c1.6,1.5,3.7,2.6,5.5,3.8c0.4,0.2,0.9,0.3,1.4,0.5c-5-12.3-3.3-23.5,5.1-34c-2.6-1.1-5.2-2.4-8-3.3C71.1,3.1,55,4.1,39.8,12.8
		c-12.1,6.9-19.6,17.5-22.1,31.3c-0.5,2.9-0.4,6-0.3,8.9c0.2,6.1,0.4,12.1-1.9,17.8C14.1,74,12.4,77,10.7,80
		c-2.9,4.9-5.3,10-4.8,15.8c0.3,3,1.2,5.9,2.1,8.8c0.6,2.1,1.6,4.2,2.2,6.3c1.3,4.2,0.9,8.4-1.1,12.4c-0.4,0.9-0.8,1.7-1.2,2.7
		c-1.6,4.6,1,8.3,5.8,8.4c3.7,0,7.4,0,11.2,0c0.3,0,0.7,0,1-0.1c0.5-2.1,1-4.2,1.6-6.3c0.3-1.2,0.8-2.4,1.3-3.5
		c0.5-1.2,1.6-1.7,2.8-1.2c1.1,0.4,1.8,1.5,1.3,2.7c-2.7,6.4-3,13.1-2.8,19.9c0,2.4-0.6,3.4-2.2,3.4c-1.6,0-2.2-1-2.3-3.3
		c0-2.3,0-4.6,0-7.1c-0.5,0-1-0.1-1.6-0.1c-3.5,0-7,0-10.4,0c-5.1-0.1-9.2-3-10.2-7.6c-0.4-1.9,0-3.9,0.2-5.8c0.1-1,0.6-2,1-2.8
		c2.6-4.5,2.3-9,0.1-13.6c-1.9-3.9-3-8-3.3-12.4C1.2,91,2.6,86,5.1,81.3c1.2-2.2,2.4-4.3,3.7-6.4c2.9-5,4.4-10.4,4.3-16.3
		c-0.1-4.1-0.4-8.2-0.1-12.3C14,34.6,19,24.7,27.4,16.7C36.7,7.8,47.9,3.2,60.5,1.4c1.4-0.2,2.8-0.4,4.1-0.6
		C67.4,0.9,70.2,0.9,73,0.9z M51.8,107.3c0-2.4,0-4.4,0-6.4c0-2,0.1-4-1-5.9c-0.5-0.9-0.6-2-0.7-3.1c-0.3-3.7,2.2-6.6,5.9-6.6
		c8.3-0.1,16.7-0.1,25,0c3.7,0,6.3,3.2,5.9,6.9c-0.5,3.8-2.4,6.8-5.8,8.4c-2.1,1-4.5,1.4-6.7,2.1c-0.4,0.1-1,0.4-1,0.7
		c-0.1,2.6,0,5.2,0,7.8c0.6-0.1,1.1-0.1,1.5-0.2c15.9-2.9,27.9-17.1,28.1-33.3c0.1-6,0-12,0-17.9c0-0.5-0.4-1.2-0.9-1.6
		c-2.4-2.2-4.8-4.3-7.3-6.4c-0.7-0.5-1.5-1.1-2.3-1.2c-3.5-0.6-6.7-1.8-9.4-4.1c-1.1-0.9-2.2-1.9-3.3-2.8c-2.9-2.7-6.4-3.5-10.3-3.2
		c-2.4,0.2-4.8,0.3-7.2,0.2c-4.4-0.3-8.5-1.5-12-4.5c-0.3-0.3-0.6-0.5-1-0.9c-0.2,0.5-0.3,0.9-0.4,1.4c-1.5,6.1-5.1,10.3-11.2,12.2
		c-0.3,0.1-0.6,0.2-1,0.3c-1.8,0.7-2.4,1.5-2.4,3.5c0,8.2,0,16.3,0,24.5c0,3.7,0.6,7.4,1.8,10.9C38.8,96.4,44,102.6,51.8,107.3z
		 M107.3,61.4c0,2.1,0,4.4,0,6.8c8.1,0.1,11.8,6.5,11.6,11.2c-0.1,2.9-1.1,5.5-3.2,7.5c-3,3-6.6,3.8-10.3,3.1
		c-1.7,3.1-3,6.1-4.8,8.8c-1.8,2.7-4.1,5.1-6,7.5c2.4,2.4,4.9,4.8,7.1,7.4c4.7,5.6,7.5,12.2,8.9,19.4c0.1,0.4,0.5,1.2,0.8,1.2
		c4.4,0,8.8,0.2,13.2-0.1c3.3-0.2,5.5-3.6,4.7-6.9c-0.4-1.4-1-2.8-1.6-4.2c-1.9-4-2.3-8.2-0.9-12.4c0.8-2.4,1.7-4.7,2.6-7.1
		c1.2-3.3,2-6.7,1.7-10.3c-0.4-4.9-2.5-9.1-4.9-13.3c-1.7-3-3.4-6.1-4.7-9.3c-1-2.4-1.4-5.1-2-7.3C115.4,62.7,111.3,62,107.3,61.4z
		 M68.4,89.7c-3.9,0-7.8,0-11.7,0c-2,0-2.5,0.7-2.2,2.6c0.6,3.2,2.9,4.7,5.7,5.5c4.1,1.2,8.3,1.2,12.5,0.7c1.9-0.2,3.8-0.7,5.6-1.3
		c2.2-0.8,3.7-2.4,4.2-4.8c0.4-2-0.2-2.7-2.2-2.7C76.3,89.7,72.3,89.7,68.4,89.7z M56,100.9c0,3.2,0,6.1,0,9c0,1.5,0.7,2.3,1.9,2.4
		c1.3,0.1,2.1-0.6,2.4-2.1c0.3-1.5,1-2.1,2.3-2.1c1.3,0.1,2,0.9,2,2.5c0,1.6,0,3.2,0,4.8c0.1,1.3,0.9,2.1,2.1,2c1.3-0.1,2-0.8,2-2.1
		c0-3.9,0-7.8,0-11.7c0-0.2-0.1-0.3-0.2-0.6C64.4,103.2,60.2,102.8,56,100.9z M76.5,115.3c-0.7,0.1-1.5,0.1-2.2,0.3
		c-0.5,0.2-1.1,0.6-1.2,1.1c-0.7,3-2.7,4.8-5.8,5.1c-2.7,0.3-5.2-1.3-6.4-3.8c-0.1-0.2-0.2-0.5-0.4-0.7c-0.1,1.5-0.2,3,0,4.5
		c0.5,3.8,3.8,6.7,7.7,6.8c4,0.1,7.6-2.5,8.2-6.3C76.7,120,76.5,117.7,76.5,115.3z M29.7,72.7c-2.7-0.3-5.2,1-6.4,3.4
		c-1.3,2.3-1,5.3,0.7,7.3c1.7,2.1,4.3,2.9,6.5,2.2C30.2,81.3,29.9,77.1,29.7,72.7z M106.6,85.6c2.4,0.7,5.1-0.3,6.7-2.5
		c1.7-2.3,1.7-5.3,0.2-7.6c-1.4-2.2-3.9-3.3-6.1-2.7C107.1,77.1,106.8,81.3,106.6,85.6z"/>
	<path class="st10" d="M118.2,47.6c-2.4,0-4.8,0.3-7.1-0.1c-4.3-0.7-7.1-3.4-8.6-7.5c-0.2-0.6-0.8-1.2-1.3-1.4
		c-2.5-1.1-4.1-3.4-4.1-6.1c0-2.8,1.6-5.1,4.2-6.2c0.5-0.2,1.1-0.8,1.2-1.3c1.5-4.7,5.4-7.7,10.4-7.8c3.5-0.1,6.9-0.1,10.4,0
		c5,0.1,8.9,3.1,10.5,7.9c0.2,0.5,0.7,1,1.2,1.2c2.7,1.2,4.2,3.3,4.2,6.2c0,2.9-1.5,5-4.2,6.2c-0.5,0.2-1,0.8-1.2,1.3
		c-1.6,4.8-5.6,7.8-10.7,7.8c-1.6,0-3.3,0-4.9,0C118.2,47.7,118.2,47.7,118.2,47.6z M118.2,30.3c-4.7,0-9.5,0-14.2,0
		c-1.7,0-2.6,0.9-2.6,2.2c0,1.3,1,2.2,2.5,2.2c9.5,0,18.9,0,28.4,0c0.7,0,1.6-0.3,1.9-0.8c0.4-0.6,0.6-1.5,0.4-2.2
		c-0.2-1.1-1.2-1.4-2.3-1.4C127.7,30.3,122.9,30.3,118.2,30.3z M129.4,25.8c-1-2.3-2.5-3.9-4.7-4c-4.3-0.2-8.7-0.2-13,0
		c-2.3,0.1-3.8,1.8-4.8,4.1C114.4,25.8,121.8,25.8,129.4,25.8z M129.3,39.2c-7.5,0-14.9,0-22.3,0c0.9,2.5,3.1,4.2,5.7,4.2
		c3.6,0.1,7.2,0.1,10.8,0C126.2,43.4,128.4,41.7,129.3,39.2z"/>
	<path class="st10" d="M65.6,73.3c0,2.8-0.9,5.2-2.6,7.4c-0.8,1.1-1.7,1.4-3,1.2c-4.6-1-9.2-1-13.8,0c-1.4,0.3-2.4-0.3-3.2-1.4
		c-2.9-4-3.1-9.4-0.4-13.8c2.6-4.3,7.5-6.6,12.3-5.8c5,0.8,9,4.5,10.2,9.4C65.4,71.3,65.5,72.3,65.6,73.3z M53.2,76.7
		c1.9,0.2,3.8,0.4,5.8,0.6c0.8,0.1,1.3,0,1.7-0.9c1.4-3.3,0.4-7.3-2.6-9.6c-2.8-2.2-6.9-2.2-9.7,0c-2.9,2.3-4,6.3-2.6,9.6
		c0.3,0.8,0.8,1.1,1.6,0.9C49.3,77,51.2,76.9,53.2,76.7z"/>
	<path class="st10" d="M83.7,60.8c5,0.2,8.7,2.4,10.9,6.7c2.3,4.4,2,8.7-0.7,12.9c-0.9,1.4-2,1.8-3.7,1.5c-4.3-0.9-8.6-0.9-12.9,0
		c-1.6,0.4-2.8,0-3.7-1.4c-2.8-4.2-3-8.5-0.8-12.9C75.1,63.1,78.8,60.9,83.7,60.8z M83.8,65.1c-5.7,0-9.8,5.9-7.6,11.1
		c0.4,0.8,0.8,1.2,1.7,1c3.8-0.7,7.6-0.7,11.4,0c1,0.2,1.5-0.2,1.8-1.1C93.3,71.1,89.4,65.2,83.8,65.1z"/>
	<path class="st10" d="M92.2,55.9c-0.1,2-1.8,3-3.2,2.1c-2.4-1.5-4.9-2.6-7.8-2.8c-1.2-0.1-1.9-1-1.8-2.3c0.1-1.2,0.9-2,2.1-2
		c3.7,0,7,1.4,10,3.6C91.9,55,92.1,55.6,92.2,55.9z"/>
	<path class="st10" d="M54.5,51c1.9-0.1,2.8,0.6,2.9,2c0.1,1.4-0.7,2.2-2.3,2.3c-2.4,0.2-4.5,1.1-6.6,2.3c-0.7,0.4-1.8,0.7-2.5,0.4
		c-1.6-0.5-1.7-2.6-0.2-3.7C48.4,52.4,51.4,51.3,54.5,51z"/>
	<path class="st10" d="M56.1,72.5c-1.3,0-2.2-1-2.2-2.2c0-1.2,0.9-2.1,2.1-2.1c1.3,0,2.2,0.9,2.2,2.1C58.3,71.6,57.4,72.5,56.1,72.5
		z"/>
	<path class="st10" d="M88.9,70.3c0,1.2-0.9,2.2-2.1,2.2c-1.3,0-2.1-0.8-2.2-2c-0.1-1.3,0.8-2.2,2-2.3C87.8,68.1,88.8,69,88.9,70.3z
		"/>
</g>
</svg>
