<?xml version="1.0" encoding="utf-8"?>
<!-- Generator: Adobe Illustrator 24.3.0, SVG Export Plug-In . SVG Version: 6.00 Build 0)  -->
<svg version="1.1" id="Layer_1" xmlns="http://www.w3.org/2000/svg" xmlns:xlink="http://www.w3.org/1999/xlink" x="0px" y="0px"
	 viewBox="0 0 150 150" style="enable-background:new 0 0 150 150;" xml:space="preserve">
<style type="text/css">
	.st0{fill:url(#SVGID_1_);}
	.st1{fill:url(#SVGID_2_);}
	.st2{fill:url(#SVGID_3_);}
	.st3{fill:url(#SVGID_4_);}
	.st4{fill:url(#SVGID_5_);}
	.st5{fill:url(#SVGID_6_);}
	.st6{fill:url(#SVGID_7_);}
	.st7{fill:url(#SVGID_8_);}
	.st8{fill:#CDEEFD;}
	.st9{fill:#111224;}
	.st10{fill:#005BAB;}
</style>
<g>
	
		<linearGradient id="SVGID_1_" gradientUnits="userSpaceOnUse" x1="249.2936" y1="420.9963" x2="289.6348" y2="420.9963" gradientTransform="matrix(-1 0 0 -1 1028.9943 531.0285)">
		<stop  offset="0" style="stop-color:#00AE4D"/>
		<stop  offset="0.2214" style="stop-color:#0C8D5A"/>
		<stop  offset="0.5722" style="stop-color:#1D5D6D"/>
		<stop  offset="0.8413" style="stop-color:#274079"/>
		<stop  offset="0.9944" style="stop-color:#2B357D"/>
	</linearGradient>
	<path class="st0" d="M779.7,112c-0.5,1.9-0.8,3.8-1.5,5.6c-3.2,8.1-11.4,13.5-20.6,12.6c-9.4-1-16.7-7.9-18-17
		c-1.7-11.5,6.3-22,17.8-23.2c10.9-1.2,20.9,6.8,22.1,17.6c0,0.2,0.1,0.4,0.2,0.6C779.7,109.4,779.7,110.7,779.7,112z M755.5,107.7
		c-1.1,0-2.1,0-3.1,0c-0.7,0-1.3,0.2-1.6,0.9c-0.3,0.7,0,1.3,0.4,1.8c2.3,2.7,4.7,5.4,7,8.1c1,1.2,1.8,1.2,2.9-0.1
		c2.3-2.7,4.5-5.4,6.8-8.1c0.5-0.6,0.7-1.1,0.5-1.8c-0.3-0.8-1-0.9-1.7-0.9c-1,0-1.9,0-3,0c0-1.7,0-3.3,0-4.9c0-1.1-0.3-1.4-1.4-1.4
		c-1.8,0-3.6,0-5.4,0c-1,0-1.4,0.3-1.4,1.4C755.5,104.3,755.5,105.9,755.5,107.7z"/>
	<linearGradient id="SVGID_2_" gradientUnits="userSpaceOnUse" x1="686.402" y1="83.0627" x2="773.5789" y2="83.0627">
		<stop  offset="0" style="stop-color:#00AE4D"/>
		<stop  offset="0.2214" style="stop-color:#0C8D5A"/>
		<stop  offset="0.5722" style="stop-color:#1D5D6D"/>
		<stop  offset="0.8413" style="stop-color:#274079"/>
		<stop  offset="0.9944" style="stop-color:#2B357D"/>
	</linearGradient>
	<path class="st1" d="M737.9,126.3c-0.5,0-0.9,0-1.2,0c-13.2,0-26.4,0-39.6,0c-6.3,0-10.7-4.4-10.7-10.7c0-20,0-39.9,0-59.9
		c0-6.1,4.4-10.5,10.5-10.5c5.2,0,10.4,0,15.7,0c0.5,0,1.1-0.2,1.6-0.5c5.7-4,12-5.4,18.8-4.7c4.9,0.4,9.4,2.1,13.4,5
		c0.3,0.2,0.7,0.3,1.1,0.3c5.2,0,10.4,0.1,15.6,0c5.7-0.1,9.7,4,10.4,8.4c0.1,0.7,0.2,1.4,0.2,2.1c0,10.1,0,20.2,0,30.2
		c0,0.3,0,0.6,0,1c-1-0.5-2-0.9-2.8-1.5c-0.2-0.1-0.3-0.6-0.3-1c0-9.6,0-19.1,0-28.7c0-3.1-1.3-5.4-4.1-6.7c-1-0.5-2.2-0.7-3.3-0.7
		c-5.4-0.1-10.9,0-16.3,0c-0.9,0-1.6-0.2-2.3-0.8c-3.5-2.8-7.6-4.2-12.1-4.6c-6-0.5-11.7,0.6-16.6,4.3c-1,0.8-2,1.1-3.3,1.1
		c-5.2,0-10.4,0-15.6,0c-4.6,0-7.6,3-7.6,7.6c0,19.8,0,39.7,0,59.5c0,5,2.9,7.8,7.9,7.8c12.5,0,24.9,0,37.4,0c0.9,0,1.4,0.2,1.8,1
		C736.9,124.9,737.4,125.5,737.9,126.3z"/>
	<linearGradient id="SVGID_3_" gradientUnits="userSpaceOnUse" x1="712.637" y1="66.5754" x2="747.8466" y2="66.5754">
		<stop  offset="0" style="stop-color:#00AE4D"/>
		<stop  offset="0.2214" style="stop-color:#0C8D5A"/>
		<stop  offset="0.5722" style="stop-color:#1D5D6D"/>
		<stop  offset="0.8413" style="stop-color:#274079"/>
		<stop  offset="0.9944" style="stop-color:#2B357D"/>
	</linearGradient>
	<path class="st2" d="M730.2,84.2c-9.7,0-17.6-7.9-17.6-17.7c0-9.6,8-17.5,17.6-17.5c9.8,0,17.7,8,17.6,17.7
		C747.8,76.4,739.9,84.2,730.2,84.2z M714.8,65.5c0.9,0,1.6,0,2.4,0c0.7,0,1.3,0.2,1.3,1.1c0,0.8-0.6,1.1-1.3,1.1
		c-0.8,0-1.6,0-2.4,0c0.3,3.5,1.5,6.5,3.8,9.1c0.5-0.5,1-1,1.4-1.5c0.5-0.5,1.1-0.7,1.7-0.2c0.6,0.5,0.4,1.2-0.1,1.7
		c-0.5,0.5-1,0.9-1.6,1.4c2.8,2.3,5.7,3.6,9.2,3.8c0-0.7,0-1.3,0-1.8c0-0.8,0.3-1.3,1.1-1.3c0.7,0,1,0.5,1,1.2c0,0.6,0,1.2,0,1.9
		c3.6-0.3,6.5-1.5,9.2-3.8c-0.6-0.5-1-1-1.5-1.4c-0.5-0.5-0.6-1.1-0.1-1.7c0.5-0.5,1.1-0.4,1.6,0.2c0.5,0.5,0.9,1,1.4,1.5
		c2.3-2.8,3.6-5.8,3.7-9.3c-0.8,0-1.4,0-2.1,0c-0.9,0-1.4-0.5-1.4-1.1c0.1-0.8,0.6-1.1,1.3-1c0.7,0,1.4,0,2.1,0
		c-0.3-3.5-1.6-6.4-4-9.1c-0.5,0.5-0.8,1-1.2,1.4c-0.5,0.5-1.1,0.7-1.7,0.1c-0.5-0.5-0.4-1.1,0.1-1.6c0.4-0.4,0.9-0.8,1.4-1.3
		c-2.7-2.2-5.6-3.4-9.1-3.7c0,0.8,0,1.6,0,2.3c0,0.7-0.3,1.3-1.1,1.3c-0.8,0-1.1-0.5-1.1-1.3c0-0.8,0-1.5,0-2.3
		c-3.4,0.3-6.4,1.5-9,3.8c0.6,0.5,1.1,1,1.6,1.5c0.5,0.5,0.7,1.1,0.1,1.7c-0.5,0.5-1.1,0.4-1.6-0.1c-0.5-0.5-0.9-1-1.4-1.6
		C716.3,59.1,715.2,62,714.8,65.5z"/>
	<linearGradient id="SVGID_4_" gradientUnits="userSpaceOnUse" x1="716.556" y1="115.371" x2="733.4299" y2="115.371">
		<stop  offset="0" style="stop-color:#00AE4D"/>
		<stop  offset="0.2214" style="stop-color:#0C8D5A"/>
		<stop  offset="0.5722" style="stop-color:#1D5D6D"/>
		<stop  offset="0.8413" style="stop-color:#274079"/>
		<stop  offset="0.9944" style="stop-color:#2B357D"/>
	</linearGradient>
	<path class="st3" d="M716.6,117.3c0-0.2-0.1-0.4-0.1-0.6c0-1,0-2.1,0-3.1c5.4,0,10.7,0,16.1,0c0.2,1.2,0.5,2.5,0.8,3.8
		C727.8,117.3,722.2,117.3,716.6,117.3z"/>
	<linearGradient id="SVGID_5_" gradientUnits="userSpaceOnUse" x1="759.1" y1="57.4209" x2="764.9484" y2="57.4209">
		<stop  offset="0" style="stop-color:#00AE4D"/>
		<stop  offset="0.2214" style="stop-color:#0C8D5A"/>
		<stop  offset="0.5722" style="stop-color:#1D5D6D"/>
		<stop  offset="0.8413" style="stop-color:#274079"/>
		<stop  offset="0.9944" style="stop-color:#2B357D"/>
	</linearGradient>
	<path class="st4" d="M764.9,57.4c0,1.6-1.3,3-2.9,3c-1.6,0-2.9-1.3-2.9-3c0-1.6,1.3-2.9,2.9-2.9C763.6,54.4,764.9,55.7,764.9,57.4z
		"/>
	<linearGradient id="SVGID_6_" gradientUnits="userSpaceOnUse" x1="695.0318" y1="57.4123" x2="700.9091" y2="57.4123">
		<stop  offset="0" style="stop-color:#00AE4D"/>
		<stop  offset="0.2214" style="stop-color:#0C8D5A"/>
		<stop  offset="0.5722" style="stop-color:#1D5D6D"/>
		<stop  offset="0.8413" style="stop-color:#274079"/>
		<stop  offset="0.9944" style="stop-color:#2B357D"/>
	</linearGradient>
	<path class="st5" d="M700.9,57.4c0,1.6-1.4,3-3,2.9c-1.6,0-2.9-1.4-2.9-3c0-1.6,1.4-2.9,2.9-2.9C699.6,54.5,700.9,55.8,700.9,57.4z
		"/>
	<linearGradient id="SVGID_7_" gradientUnits="userSpaceOnUse" x1="695.0323" y1="115.3878" x2="700.9096" y2="115.3878">
		<stop  offset="0" style="stop-color:#00AE4D"/>
		<stop  offset="0.2214" style="stop-color:#0C8D5A"/>
		<stop  offset="0.5722" style="stop-color:#1D5D6D"/>
		<stop  offset="0.8413" style="stop-color:#274079"/>
		<stop  offset="0.9944" style="stop-color:#2B357D"/>
	</linearGradient>
	<path class="st6" d="M700.9,115.3c0,1.6-1.3,3-2.9,3c-1.6,0-3-1.3-3-2.9c0-1.6,1.3-2.9,2.9-2.9
		C699.5,112.4,700.9,113.7,700.9,115.3z"/>
	<linearGradient id="SVGID_8_" gradientUnits="userSpaceOnUse" x1="729.0515" y1="64.1856" x2="737.2925" y2="64.1856">
		<stop  offset="0" style="stop-color:#00AE4D"/>
		<stop  offset="0.2214" style="stop-color:#0C8D5A"/>
		<stop  offset="0.5722" style="stop-color:#1D5D6D"/>
		<stop  offset="0.8413" style="stop-color:#274079"/>
		<stop  offset="0.9944" style="stop-color:#2B357D"/>
	</linearGradient>
	<path class="st7" d="M730.2,68.8c-0.4-0.3-0.9-0.5-1.1-0.9c-0.2-0.4-0.2-1.1,0.1-1.4c1.9-2.2,3.8-4.4,5.7-6.6
		c0.5-0.6,1.2-0.5,1.8,0c0.6,0.5,0.7,1.2,0.2,1.8c-1.9,2.2-3.8,4.4-5.7,6.5C731.1,68.5,730.7,68.6,730.2,68.8z"/>
</g>
<path class="st8" d="M1465.3,1556.3c-2.4-0.2-4.3-1.3-4.4-4.1c-0.1-6.7,1.6-10,4.9-9.9c0.2,0,0.3,0,0.5,0c2.2,0.5,4.3,2.1,3.2,4
	C1467.7,1549.5,1473.1,1555.7,1465.3,1556.3z M1465.5,1554.4c1.3-0.1,2.3-0.6,2.3-2.1c-0.1-1.7-1.5-2.1-2.8-2.4c-1.6-0.4-2,0.8-2,2
	C1463,1553.5,1464,1554.2,1465.5,1554.4z M1467.8,1546.5c0-1.4-0.6-2.2-2.1-2.2c-0.9,0-1.6,0.4-1.7,1.4c-0.2,1.4,0.9,2.1,2,2.5
	C1467.3,1548.5,1467.6,1547.5,1467.8,1546.5z"/>
<path class="st8" d="M1455.8,1556.6c-0.5-2.9-1.8-4.2-4.6-3.6c-0.7,0.2-1.7,0.3-2.1-0.8c-0.4-1.1,0.1-1.5,1.2-2.1
	c2.1-1.2,2.1-3.9,3.2-5.8c0.6-1,1-2.2,2.5-1.9c1.4,0.3,0.9,1.6,0.8,2.5C1456.4,1548.6,1458.4,1552.5,1455.8,1556.6z"/>
<path class="st9" d="M1465.5,1554.4c-1.5-0.1-2.6-0.8-2.5-2.4c0-1.2,0.4-2.4,2-2c1.2,0.3,2.7,0.7,2.8,2.4
	C1467.8,1553.7,1466.8,1554.2,1465.5,1554.4z"/>
<path class="st9" d="M1467.8,1546.5c-0.2,1-0.5,2.1-1.8,1.7c-1.1-0.4-2.1-1-2-2.5c0.1-1,0.8-1.4,1.7-1.4
	C1467.2,1544.3,1467.8,1545,1467.8,1546.5z"/>
<polygon class="st10" points="1346.8,29.4 1346.9,29.6 1346.6,29.6 "/>
<g>
	<path class="st10" d="M149,117.8c-0.8,3-1.3,6-2.4,8.9c-5,12.8-18.1,21.5-32.7,19.9C99,145,87.5,134,85.4,119.6
		c-2.7-18.3,10-34.8,28.3-36.8c17.2-1.9,33.1,10.8,35.1,27.9c0,0.3,0.2,0.6,0.3,1C149,113.7,149,115.7,149,117.8z M110.5,111
		c-1.8,0-3.3,0-4.9,0c-1.1,0-2.1,0.3-2.6,1.4c-0.5,1.2,0,2,0.7,2.9c3.7,4.3,7.4,8.6,11.1,12.9c1.7,1.9,2.9,1.9,4.6-0.1
		c3.6-4.3,7.2-8.6,10.8-12.8c0.7-0.9,1.2-1.8,0.7-2.9c-0.5-1.2-1.5-1.5-2.7-1.5c-1.5,0-3.1,0-4.7,0c0-2.7,0-5.3,0-7.8
		c0-1.7-0.5-2.3-2.2-2.3c-2.8,0-5.7,0-8.5,0c-1.6,0-2.1,0.5-2.2,2.2C110.5,105.6,110.5,108.2,110.5,111z"/>
	<path class="st10" d="M82.7,140.5c-0.8,0-1.4,0-1.9,0c-21,0-41.9,0-62.9,0c-10,0-17-6.9-17-17c0-31.6,0-63.3,0-94.9
		c0-9.7,6.9-16.7,16.6-16.7c8.3,0,16.6,0,24.9,0c0.8,0,1.8-0.3,2.5-0.8c9-6.3,19-8.5,29.9-7.5c7.8,0.7,14.9,3.3,21.2,7.9
		c0.4,0.3,1.2,0.4,1.8,0.4c8.2,0,16.5,0.1,24.7,0c9.1-0.1,15.4,6.4,16.5,13.3c0.2,1.1,0.2,2.2,0.2,3.3c0,16,0,32,0,48
		c0,0.5,0,0.9,0,1.6c-1.6-0.8-3.1-1.5-4.5-2.3c-0.3-0.2-0.4-1-0.4-1.5c0-15.2,0-30.3,0-45.5c0-4.9-2-8.6-6.5-10.7
		c-1.5-0.7-3.4-1-5.2-1.1c-8.6-0.1-17.2-0.1-25.9,0c-1.4,0-2.5-0.3-3.6-1.2C87.7,11.2,81.2,9,74.2,8.4c-9.6-0.8-18.5,1-26.4,6.8
		c-1.6,1.2-3.2,1.7-5.2,1.7c-8.2-0.1-16.5,0-24.7,0c-7.3,0-12,4.7-12,12c0,31.5,0,62.9,0,94.4c0,7.9,4.6,12.4,12.5,12.4
		c19.8,0,39.5,0,59.3,0c1.4,0,2.2,0.3,2.8,1.6C81,138.2,81.8,139.2,82.7,140.5z"/>
	<path class="st10" d="M70.5,73.7c-15.5,0-27.9-12.6-27.9-28.1c0-15.3,12.7-27.8,27.9-27.8c15.5,0,28,12.6,27.9,28.1
		C98.4,61.3,85.9,73.8,70.5,73.7z M46.1,44c1.4,0,2.6,0,3.8,0c1.2,0,2,0.4,2,1.7c0,1.3-0.9,1.7-2,1.7c-1.2,0-2.5,0-3.8,0
		c0.5,5.5,2.4,10.3,6,14.5c0.8-0.9,1.5-1.6,2.3-2.4c0.8-0.8,1.8-1.1,2.7-0.2c0.9,0.9,0.6,1.8-0.2,2.7c-0.8,0.8-1.6,1.5-2.5,2.3
		c4.4,3.6,9,5.7,14.6,6c0-1.1,0-2,0-2.9c0-1.2,0.5-2,1.7-2c1.2,0,1.6,0.9,1.7,2c0,0.9,0,1.9,0,3c5.6-0.4,10.3-2.4,14.6-6.1
		c-0.9-0.8-1.6-1.5-2.4-2.2c-0.9-0.8-1-1.8-0.1-2.7c0.8-0.8,1.8-0.6,2.5,0.3c0.7,0.8,1.4,1.6,2.2,2.4c3.7-4.5,5.7-9.2,5.9-14.7
		c-1.2,0-2.3,0-3.3,0c-1.4,0-2.3-0.8-2.2-1.8c0.1-1.2,0.9-1.7,2.1-1.6c1.1,0,2.2,0,3.4,0c-0.5-5.5-2.5-10.2-6.3-14.5
		c-0.7,0.8-1.3,1.6-2,2.3c-0.8,0.8-1.8,1.1-2.6,0.1c-0.8-0.9-0.6-1.8,0.2-2.6c0.7-0.7,1.4-1.3,2.2-2c-4.3-3.5-8.9-5.4-14.4-5.8
		c0,1.3,0,2.5,0,3.7c0,1.1-0.4,2-1.7,2c-1.3,0-1.7-0.8-1.7-2c0-1.2,0-2.4,0-3.6c-5.5,0.5-10.1,2.4-14.3,6c0.9,0.9,1.7,1.6,2.5,2.4
		c0.9,0.8,1.1,1.8,0.2,2.6c-0.8,0.8-1.8,0.6-2.5-0.2c-0.8-0.8-1.5-1.7-2.3-2.6C48.5,33.8,46.6,38.5,46.1,44z"/>
	<path class="st10" d="M49,126.2c0-0.4-0.1-0.7-0.1-1c0-1.6,0-3.3,0-5c8.6,0,17,0,25.6,0c0.4,2,0.8,3.9,1.2,6
		C66.7,126.2,57.9,126.2,49,126.2z"/>
	<path class="st10" d="M125.6,31.2c0,2.6-2,4.7-4.6,4.7c-2.6,0-4.7-2.1-4.7-4.7c0-2.6,2-4.6,4.5-4.6
		C123.5,26.5,125.6,28.6,125.6,31.2z"/>
	<path class="st10" d="M24,31.2c0,2.6-2.2,4.7-4.7,4.6c-2.6-0.1-4.6-2.2-4.6-4.8c0.1-2.5,2.2-4.6,4.7-4.5C21.9,26.6,24,28.7,24,31.2
		z"/>
	<path class="st10" d="M24,123.1c0,2.5-2.1,4.7-4.6,4.8c-2.5,0-4.7-2.1-4.7-4.7c0-2.5,2-4.6,4.5-4.6C21.8,118.5,24,120.5,24,123.1z"
		/>
	<path class="st10" d="M70.5,49.3c-0.6-0.5-1.5-0.8-1.7-1.4c-0.3-0.6-0.3-1.8,0.1-2.3c3-3.5,6-7,9.1-10.4c0.8-0.9,2-0.9,2.9-0.1
		c0.9,0.8,1.1,1.9,0.3,2.8c-3,3.5-6,6.9-9,10.3C71.8,48.8,71.2,48.9,70.5,49.3z"/>
</g>
</svg>
