<?xml version="1.0" encoding="utf-8"?>
<!-- Generator: Adobe Illustrator 24.3.0, SVG Export Plug-In . SVG Version: 6.00 Build 0)  -->
<svg version="1.1" id="Layer_1" xmlns="http://www.w3.org/2000/svg" xmlns:xlink="http://www.w3.org/1999/xlink" x="0px" y="0px"
	 viewBox="0 0 150 150" style="enable-background:new 0 0 150 150;" xml:space="preserve">
<style type="text/css">
	.st0{fill:#CDEEFD;}
	.st1{fill:#111224;}
	.st2{fill:#005BAB;}
</style>
<path class="st0" d="M1465.3,1556.3c-2.4-0.2-4.3-1.3-4.4-4.1c-0.1-6.7,1.6-10,4.9-9.9c0.2,0,0.3,0,0.5,0c2.2,0.5,4.3,2.1,3.2,4
	C1467.7,1549.5,1473.1,1555.7,1465.3,1556.3z M1465.5,1554.4c1.3-0.1,2.3-0.6,2.3-2.1c-0.1-1.7-1.5-2.1-2.8-2.4c-1.6-0.4-2,0.8-2,2
	C1463,1553.5,1464,1554.2,1465.5,1554.4z M1467.8,1546.5c0-1.4-0.6-2.2-2.1-2.2c-0.9,0-1.6,0.4-1.7,1.4c-0.2,1.4,0.9,2.1,2,2.5
	C1467.3,1548.5,1467.6,1547.5,1467.8,1546.5z"/>
<path class="st0" d="M1455.8,1556.6c-0.5-2.9-1.8-4.2-4.6-3.6c-0.7,0.2-1.7,0.3-2.1-0.8c-0.4-1.1,0.1-1.5,1.2-2.1
	c2.1-1.2,2.1-3.9,3.2-5.8c0.6-1,1-2.2,2.5-1.9c1.4,0.3,0.9,1.6,0.8,2.5C1456.4,1548.6,1458.4,1552.5,1455.8,1556.6z"/>
<path class="st1" d="M1465.5,1554.4c-1.5-0.1-2.6-0.8-2.5-2.4c0-1.2,0.4-2.4,2-2c1.2,0.3,2.7,0.7,2.8,2.4
	C1467.8,1553.7,1466.8,1554.2,1465.5,1554.4z"/>
<path class="st1" d="M1467.8,1546.5c-0.2,1-0.5,2.1-1.8,1.7c-1.1-0.4-2.1-1-2-2.5c0.1-1,0.8-1.4,1.7-1.4
	C1467.2,1544.3,1467.8,1545,1467.8,1546.5z"/>
<polygon class="st2" points="1346.8,29.4 1346.9,29.6 1346.6,29.6 "/>
<g>
	<path class="st2" d="M133.6,29c-2.4-3-2.6-3.9-1.5-5c1.2-1.2,2.2-0.9,4.9,1.5c3-2.3,4-2.6,5.1-1.4c1.1,1.2,0.8,2.2-1.5,4.9
		c1,1.5,3.7,3,1.3,5.1c-2.1,1.8-3.3-0.5-4.7-1.6c-3.1,2.3-4,2.6-5.1,1.4C130.9,32.7,131.2,31.8,133.6,29z"/>
	<g>
		<path class="st2" d="M22.6,115.5c-1.4,0-2.6-1.1-2.7-2.5c-0.1-1.5,1-2.7,2.5-2.7c1.5-0.1,2.8,1.1,2.8,2.6
			C25.2,114.2,24,115.4,22.6,115.5z"/>
		<g>
			<path class="st2" d="M80.4,149.4c-13.7,0-27.4,0-41.2,0c-3.1,0-3.7-0.6-3.7-3.8c0-5.9-0.1-11.8,0-17.6
				c0.2-10.8,5.1-18.5,14.9-23.1c5.5-2.6,11.1-5,16.6-7.6c0.6-0.3,1.3-0.9,1.4-1.6c0.2-1,0.1-1.9-1.1-2.6
				c-7.4-4.6-12.4-11.1-15.1-19.4c-0.2-0.5-0.8-1.1-1.3-1.2c-3.7-0.7-6.7-3.6-7.2-7c-0.6-3.6,1.3-6.9,4.8-8.8c0.5-0.3,1-1.1,1-1.6
				c0.1-3.7,0.2-7.5,0-11.2c-0.5-15.8,9.5-24.5,21.7-27.4c6.9-1.7,13.7-1.5,20.5,0.1c1.2,0.3,1.7,0.1,2.2-1c2.6-5.2,6-9.8,10.2-13.9
				c1.6-1.5,2.6-1.6,4.2,0c7.5,7.6,12.8,16.3,14.4,26.9c1.3,8.3-1,15.2-8.6,19.6c-0.4,0.2-0.8,1-0.8,1.5c-0.1,1.8-0.1,3.7,0,5.5
				c0,0.5,0.5,1.2,1,1.5c3.6,1.9,5.4,5.2,4.8,8.9c-0.5,3.4-3.6,6.2-7.3,6.9c-0.5,0.1-1.2,0.7-1.3,1.2c-3.1,9.1-8.9,15.9-17.4,20.5
				c-0.5,0.3-1,1-0.9,1.5c0,0.5,0.6,1.2,1.1,1.4c5.8,2.7,11.7,5.2,17.4,8c9.1,4.4,14,11.7,14.4,21.9c0.2,6.4,0.1,12.8,0.1,19.2
				c0,2.5-0.7,3.2-3.2,3.2C108.1,149.4,94.3,149.4,80.4,149.4z M67.8,50.3c-3.3,2.4-7.1,3.9-11.2,4.2c-1.9,0.2-2.2,0.9-2.1,2.5
				c0.1,3-0.1,3.2-3.1,3.9c-1.8,0.4-3,2.1-2.8,3.8c0.2,1.7,2,3.2,3.8,3.1c3.3-0.2,3.4-0.1,4.2,3c2.9,10.6,9.6,17.8,20,21.3
				c2.1,0.7,4.6,0.9,6.8,0.4c11.9-2.7,19.6-10.2,23.1-21.8c0.9-3.1,1-3.2,4.3-3c1.8,0.1,3.4-1.1,3.8-2.8c0.4-1.7-0.7-3.7-2.5-3.9
				c-2.3-0.3-3.7-1.2-3.3-3.9C93.3,65.1,79.6,64,67.8,50.3z M109.1,50.1c-1,0-1.3,0-1.6,0c-10.6,0.3-18.3-7.3-17.9-17.9
				c0.1-3.6,1-7.1,1.6-10.8c-0.1,0-0.4-0.2-0.8-0.3c-4.8-1.1-9.7-1.4-14.6-0.6c-5.4,0.8-10.4,2.6-14.6,6.2
				c-7.3,6.3-7.1,14.7-6.6,23.3c4.4-0.3,8.3-1.7,11.6-4.5c2.3-1.9,3.4-1.8,4.9,0.8c2.4,4.2,5.8,7.3,10.3,9.1
				c9.5,4,18.2,2.1,26.5-3.5C108.4,51.6,108.6,51,109.1,50.1z M99.1,105c-4.2,6.6-7.9,13.3-12.3,19.5c-3.2,4.5-4.8,9.1-4.1,14.6
				c0.2,1.8,0,3.6,0,5.5c7.2,0,14.2,0,21.2,0c0-0.4,0.1-0.8,0.1-1.1c0-2.7,0-5.4,0-8.1c0-1.4,0.8-2.3,2.2-2.4
				c1.4-0.1,2.3,0.8,2.4,2.2c0.1,0.7,0.1,1.5,0.1,2.2c0,2.4,0,4.8,0,7.2c4,0,7.8,0,11.6,0c0.1-0.3,0.2-0.5,0.2-0.7
				c0-5.7,0.2-11.4-0.1-17.1c-0.3-7.2-3.6-12.8-10-16.4C106.9,108.3,103,106.8,99.1,105z M78.1,144.6c0-1.3,0-2.5,0-3.7
				c0-3.2,0.6-6.6-0.2-9.6c-0.8-2.9-3.1-5.4-4.8-8.1c-3.7-6-7.5-12-11.3-18.1c-3,1.4-5.9,2.7-8.9,4c-8.3,3.7-12.5,10.2-12.6,19.3
				c0,4.8,0,9.7,0,14.5c0,0.6,0.1,1.1,0.1,1.7c3.9,0,7.7,0,11.7,0c0-0.7,0-1.3,0-1.8c0-2.4,0-4.7,0-7.1c0-1.7,0.9-2.7,2.2-2.7
				c1.4-0.1,2.4,1,2.4,2.8c0,1.5,0,3,0,4.5c0,1.5,0,2.9,0,4.4C64,144.6,70.9,144.6,78.1,144.6z M106.4,6.3c-1.1,1.4-2.2,2.5-3.1,3.8
				c-5.2,6.8-8.8,14.3-8.9,23.1c-0.1,6.9,5.4,12.4,12.1,12.4c6.8-0.1,12.3-5.8,12-12.7C118.1,22.4,113.2,14,106.4,6.3z M66,103.1
				c4.8,7.7,9.5,15.3,14.4,23c4.9-7.8,9.6-15.3,14.4-23c-1.5-0.7-2.7-1.3-4.1-1.8c-2-0.8-4-1.6-3.1-4.6c-5,1.6-9.5,1.6-14.4-0.5
				c0.8,3.1-0.9,4.3-3.2,5.2C68.7,101.7,67.5,102.4,66,103.1z"/>
			<path class="st2" d="M31.9,27.1c0.9,0.8,1.8,1.5,2.7,2.4c1.2,1.2,1.2,2.5,0.2,3.5c-1,1-2.4,0.9-3.5-0.2c-0.4-0.4-0.8-0.8-1.2-1.2
				c-0.4-0.4-0.8-0.8-1.6-1.5c0,2.6-0.8,5,1.6,6.7c0.9,0.7,1.7,1.6,2.4,2.5c0.9,1,0.9,2.1,0,3.1c-1,1-2.2,1.1-3.2,0.2
				c-1.1-1-2-2.1-3.1-3.4c-1.1,1.2-2,2.2-2.9,3.1c-1.2,1.2-2.5,1.2-3.5,0.2c-1-1-1-2.3,0.2-3.5c0.4-0.4,0.7-0.7,1.1-1.1
				c3-3,3-3,2.6-7.7c-0.9,0.9-1.6,1.5-2.3,2.2c-1.5,1.5-3,1.7-4,0.6c-1.1-1.1-0.9-2.4,0.6-3.9c0.7-0.7,1.5-1.4,2.5-2.3
				c-3.1-0.3-5.7-0.5-7.5,2.2c-0.4,0.7-1.1,1.2-1.7,1.7c-1.1,1-2.5,1-3.4,0c-1-1.1-0.9-2.2,0.1-3.3c0.5-0.5,0.9-1,1.5-1.5
				c0.5-0.5,1.1-0.9,2-1.6C10,23.1,9,22.3,8.1,21.4c-1.2-1.2-1.2-2.5-0.2-3.5c1-1,2.3-0.9,3.5,0.2c0.4,0.3,0.8,0.7,1.1,1.1
				c1.8,2.6,4.3,3.2,7.6,2.4c-0.8-0.8-1.5-1.6-2.3-2.3c-1.4-1.4-1.5-2.7-0.5-3.8c1.1-1.1,2.5-1,3.9,0.5c0.7,0.7,1.3,1.6,2.2,2.2
				c0.5-2.7,0.9-5.1-1.6-6.9c-0.7-0.5-1.4-1.3-2-1.9c-1-1.2-1-2.5,0-3.4c1.1-1,2.3-0.9,3.4,0.1c0.9,0.9,1.8,2,3,3.4
				c1.1-1.3,1.9-2.3,2.8-3.3c1.1-1.1,2.6-1.2,3.5-0.2c1,1,0.9,2.3-0.2,3.5c-0.5,0.6-1.1,1.3-1.7,1.7c-2.6,1.7-2.2,4.2-1.6,7.1
				c0.8-0.9,1.5-1.8,2.4-2.7c1.2-1.2,2.5-1.2,3.5-0.2c1,1,0.9,2.3-0.2,3.5c-0.4,0.4-0.8,0.8-1.2,1.2c-0.4,0.4-0.8,0.8-1.5,1.5
				c2.6,0,5,0.8,6.8-1.7c0.6-0.8,1.4-1.5,2.2-2.2c1.1-1,2.5-1,3.4,0c0.9,1.1,0.9,2.2-0.1,3.3c-1,1-2,1.8-3.3,2.9
				c1.2,1.1,2,1.9,2.9,2.7c1.3,1.3,1.4,2.8,0.4,3.8c-1.1,1-2.3,0.9-3.6-0.4c-0.5-0.5-1.1-0.9-1.5-1.5C37.4,26.2,34.8,26.4,31.9,27.1
				z"/>
			<path class="st2" d="M132.6,99c-4,0-7.2-3.2-7.2-7.3c0-4,3.2-7.3,7.2-7.3c4,0,7.4,3.4,7.3,7.4C139.9,95.8,136.7,99,132.6,99z
				 M132.6,89.2c-1.4,0-2.5,1.2-2.5,2.6c0,1.4,1.2,2.5,2.5,2.5c1.4,0,2.6-1.2,2.5-2.7C135.1,90.3,134,89.2,132.6,89.2z"/>
			<path class="st2" d="M41.7,89.2c0,1.4-1.2,2.7-2.6,2.7c-1.4,0-2.7-1.1-2.7-2.6c-0.1-1.5,1.2-2.8,2.7-2.8
				C40.5,86.5,41.7,87.8,41.7,89.2z"/>
			<path class="st2" d="M69.7,65.6c1.3,0,2.4,0.9,2.4,2.2c0.1,1.3-1,2.4-2.4,2.4c-1.3,0-2.3-1-2.4-2.3
				C67.4,66.7,68.4,65.7,69.7,65.6z"/>
			<path class="st2" d="M95.7,68.1c-0.1,1.3-1.2,2.2-2.5,2.1C92,70.2,91,69.1,91,67.9c0.1-1.3,1.2-2.3,2.6-2.2
				C94.9,65.7,95.8,66.8,95.7,68.1z"/>
			<path class="st2" d="M106.5,43.1c-5.8,0-10.7-4.9-10.8-10.2c0-1.6,0.8-2.7,2.2-2.8c1.3-0.1,2.3,0.8,2.6,2.5
				c0.6,3.8,2,5.2,5.9,5.8c1.6,0.2,2.5,1.2,2.3,2.6C108.5,42.6,107.4,43.1,106.5,43.1z"/>
		</g>
	</g>
</g>
</svg>
