<?xml version="1.0" encoding="utf-8"?>
<!-- Generator: Adobe Illustrator 24.3.0, SVG Export Plug-In . SVG Version: 6.00 Build 0)  -->
<svg version="1.1" id="Layer_1" xmlns="http://www.w3.org/2000/svg" xmlns:xlink="http://www.w3.org/1999/xlink" x="0px" y="0px"
	 viewBox="0 0 150 150" style="enable-background:new 0 0 150 150;" xml:space="preserve">
<style type="text/css">
	.st0{fill:#CDEEFD;}
	.st1{fill:#111224;}
	.st2{fill:#005BAB;}
</style>
<path class="st0" d="M1465.3,1556.3c-2.4-0.2-4.3-1.3-4.4-4.1c-0.1-6.7,1.6-10,4.9-9.9c0.2,0,0.3,0,0.5,0c2.2,0.5,4.3,2.1,3.2,4
	C1467.7,1549.5,1473.1,1555.7,1465.3,1556.3z M1465.5,1554.4c1.3-0.1,2.3-0.6,2.3-2.1c-0.1-1.7-1.5-2.1-2.8-2.4c-1.6-0.4-2,0.8-2,2
	C1463,1553.5,1464,1554.2,1465.5,1554.4z M1467.8,1546.5c0-1.4-0.6-2.2-2.1-2.2c-0.9,0-1.6,0.4-1.7,1.4c-0.2,1.4,0.9,2.1,2,2.5
	C1467.3,1548.5,1467.6,1547.5,1467.8,1546.5z"/>
<path class="st0" d="M1455.8,1556.6c-0.5-2.9-1.8-4.2-4.6-3.6c-0.7,0.2-1.7,0.3-2.1-0.8c-0.4-1.1,0.1-1.5,1.2-2.1
	c2.1-1.2,2.1-3.9,3.2-5.8c0.6-1,1-2.2,2.5-1.9c1.4,0.3,0.9,1.6,0.8,2.5C1456.4,1548.6,1458.4,1552.5,1455.8,1556.6z"/>
<path class="st1" d="M1465.5,1554.4c-1.5-0.1-2.6-0.8-2.5-2.4c0-1.2,0.4-2.4,2-2c1.2,0.3,2.7,0.7,2.8,2.4
	C1467.8,1553.7,1466.8,1554.2,1465.5,1554.4z"/>
<path class="st1" d="M1467.8,1546.5c-0.2,1-0.5,2.1-1.8,1.7c-1.1-0.4-2.1-1-2-2.5c0.1-1,0.8-1.4,1.7-1.4
	C1467.2,1544.3,1467.8,1545,1467.8,1546.5z"/>
<polygon class="st2" points="1346.8,29.4 1346.9,29.6 1346.6,29.6 "/>
<g>
	<path class="st2" d="M85.8,0.6c1,0.4,2,0.7,2.9,1.1c3.1,1.5,5,4.1,5.9,7.5c4-2.7,8.2-3.1,12.4-0.6c4.2,2.6,5.5,6.6,5.2,11.5
		c2.3-1.4,4.6-2.2,7.1-2.1c5.5,0.4,9.8,4.1,10.2,9.6c0.4,5.5,0.1,11,0.1,16.6c-1.3,0-2.7,0-4.2,0c0-0.5-0.1-1-0.1-1.5
		c0-4.6,0-9.2,0-13.8c-0.1-3.5-2.6-6.2-6-6.5c-3.1-0.3-6.1,1.9-6.9,5.1c-0.2,0.7-0.2,1.4-0.2,2.2c0,8.7,0,17.4,0,26c0,0.5,0,1,0,1.7
		c-1.5,0-2.8,0-4.4,0c0-0.5,0-1.1,0-1.6c0-12.5,0-24.9,0-37.4c0-3.5-1.9-6.1-5-6.8c-4.2-1-8.1,2-8.1,6.4c0,9.6,0,19.1,0,28.7
		c0,3.6,0,7.2,0,10.8c-1.5,0-2.8,0-4.4,0c0-0.5,0-1.1,0-1.7c0-14.7,0-29.4,0-44.1c0-4.7-4.2-7.8-8.5-6.5c-2.8,0.9-4.6,3.4-4.6,6.7
		c0,11.2,0,22.4,0,33.6c0,3.5,0,7,0,10.5c0,0.5,0,0.9-0.1,1.5c-1.4,0-2.8,0-4.3,0c0-0.6,0-1.2,0-1.7c0-11.9,0-23.8,0-35.6
		c0-2.9-1.8-5.3-4.4-6.2C66,13,63,13.8,61.4,16.1c-0.8,1.2-1.4,2.7-1.4,4.1c-0.1,17.7-0.1,35.5,0,53.2c0,0.5,0.5,1.1,0.9,1.3
		c1.9,0.9,3.9,1.6,5.9,2.5c0.7,0.3,1.2,0.2,1.8-0.4c2-2,4-4,6.1-6.1c1,1,1.9,2,2.9,3.1c-1.8,1.6-3.6,3.3-5.7,5.3
		c3,1.2,5.4,2.2,8.1,3.3c-0.5,1.4-1.1,2.6-1.6,4c-6.1-2.5-12.1-4.9-18.3-7.4c0,1.6,0,3,0,4.5c-0.7,0-1.2,0-1.7,0
		c-6.8,0-13.6-0.1-20.4,0c-7.2,0.1-13,5.9-13.1,13.1c0.6,0,1.1,0,1.7,0c6.1,0.1,12.1,0.1,18.2,0.3c4,0.1,7.8,1.3,11.5,2.9
		c0.9,0.4,1.4,0.3,2-0.5c2.4-3.1,5-6.2,7.6-9.4c1.2,0.9,2.2,1.8,3.4,2.7c-2.7,3.3-5.2,6.5-7.7,9.6c2.8,2.5,5.5,5,8.2,7.5
		c0.8,0.7,1.2,1.5,1.1,2.7c-0.1,2.7,0,5.3,0,8.2c2.4-0.5,4.6-1.1,6.8-1.3c1.9-0.2,2.7-1,3-2.9c0.5-3.3,1.4-6.5,2.1-9.9
		c1.5,0.3,2.8,0.6,4.2,1c-1.1,4.9-2.1,9.6-3.2,14.3c-0.1,0.4-0.9,0.9-1.5,1c-3.4,0.7-6.7,1.5-10.1,2.1c-1.1,0.2-1.4,0.6-1.4,1.7
		c0,7,0,14,0,20.9c0,0.6,0,1.1,0,1.8c-1.5,0-2.8,0-4.4,0c0-0.5,0-1.1,0-1.7c0-11.2,0-22.3,0-33.5c0-1.1-0.3-1.8-1.1-2.5
		c-6.9-6.9-15-10.6-24.8-10.5c-6.1,0-12.2,0-18.3,0c-0.5,0-1.1,0-1.6,0c-2-12.9,7-21.6,17-21.8c5.4-0.1,10.9,0,16.3,0
		c0.5,0,1,0,1.7,0c0-0.7,0-1.3,0-1.8c0-19,0-37.9,0-56.9c0-5.8,3.4-10.1,8.8-11.3c2.6-0.6,4.8-0.1,8.6,1.7c0.2-0.9,0.3-1.7,0.5-2.5
		c1.2-4,3.8-6.5,7.8-7.7c0.4-0.1,0.7-0.2,1.1-0.3C83.5,0.6,84.6,0.6,85.8,0.6z"/>
	<path class="st2" d="M125.3,87.4c-3,0.6-5.8,1-8.6,1.8c-1.9,0.5-3,0.1-4.1-1.6c-1.7-2.6-3.6-5.1-5.5-7.7c1.2-0.9,2.3-1.7,3.5-2.6
		c1.6,2.1,3.1,4.2,4.6,6.4c0.6,0.9,1.2,1.1,2.3,0.9c2.5-0.6,5.1-1.1,7.8-1.6c0-11.3,0-22.6,0-34c1.5,0,2.9,0,4.3,0
		c0,0.5,0.1,1,0.1,1.4c0,15.3,0,30.6,0,45.9c0,7.8-3.3,13.8-10.1,17.8c-0.8,0.5-0.8,1-0.8,1.8c0,10.6,0,21.1,0,31.7
		c0,0.6,0,1.2,0,1.8c-1.4,0-2.8,0-4.3,0c0-5.1,0-10.2,0-15.4c-2.1,0-4-0.1-5.8,0c-0.3,0-0.8,0.6-0.9,1.1c-0.8,2.3-1.5,4.7-2.4,7
		c-0.2,0.6-0.8,1.2-1.4,1.4c-2.4,0.9-4.8,1.7-7.3,2.5c-0.5-1.4-0.9-2.7-1.4-4.1c1.7-0.6,3.2-1.2,4.8-1.6c1.2-0.3,1.8-1,2-2.1
		c0.3-1.3,0.8-2.6,1.3-4.2c-3,0-5.7,0-8.5,0c0-1.5,0-2.8,0-4.4c6.5,0,12.9,0,19.5,0c0-0.9,0-1.6,0-2.2c0-4.8,0-9.6,0-14.4
		c0-0.9,0.2-1.3,1.1-1.7c6.4-2.8,9.8-7.7,9.8-14.7C125.3,93.6,125.3,90.6,125.3,87.4z"/>
	<path class="st2" d="M77.3,66.2c-1.4,0-2.7,0-4.2,0c0-1.4,0-2.7,0-4.2c1.4,0,2.7,0,4.2,0C77.3,63.4,77.3,64.8,77.3,66.2z"/>
	<path class="st2" d="M94.7,62c0,1.4,0,2.7,0,4.2c-1.4,0-2.7,0-4.2,0c0-1.4,0-2.7,0-4.2C91.9,62,93.2,62,94.7,62z"/>
	<path class="st2" d="M108,66.2c0-1.4,0-2.7,0-4.2c1.4,0,2.7,0,4.2,0c0,1.4,0,2.7,0,4.2C110.8,66.2,109.5,66.2,108,66.2z"/>
</g>
</svg>
