<?xml version="1.0" encoding="utf-8"?>
<!-- Generator: Adobe Illustrator 24.3.0, SVG Export Plug-In . SVG Version: 6.00 Build 0)  -->
<svg version="1.1" id="Layer_1" xmlns="http://www.w3.org/2000/svg" xmlns:xlink="http://www.w3.org/1999/xlink" x="0px" y="0px"
	 viewBox="0 0 150 150" style="enable-background:new 0 0 150 150;" xml:space="preserve">
<style type="text/css">
	.st0{fill:#CDEEFD;}
	.st1{fill:#111224;}
	.st2{fill:#005BAB;}
</style>
<path class="st0" d="M1465.3,1556.3c-2.4-0.2-4.3-1.3-4.4-4.1c-0.1-6.7,1.6-10,4.9-9.9c0.2,0,0.3,0,0.5,0c2.2,0.5,4.3,2.1,3.2,4
	C1467.7,1549.5,1473.1,1555.7,1465.3,1556.3z M1465.5,1554.4c1.3-0.1,2.3-0.6,2.3-2.1c-0.1-1.7-1.5-2.1-2.8-2.4c-1.6-0.4-2,0.8-2,2
	C1463,1553.5,1464,1554.2,1465.5,1554.4z M1467.8,1546.5c0-1.4-0.6-2.2-2.1-2.2c-0.9,0-1.6,0.4-1.7,1.4c-0.2,1.4,0.9,2.1,2,2.5
	C1467.3,1548.5,1467.6,1547.5,1467.8,1546.5z"/>
<path class="st0" d="M1455.8,1556.6c-0.5-2.9-1.8-4.2-4.6-3.6c-0.7,0.2-1.7,0.3-2.1-0.8c-0.4-1.1,0.1-1.5,1.2-2.1
	c2.1-1.2,2.1-3.9,3.2-5.8c0.6-1,1-2.2,2.5-1.9c1.4,0.3,0.9,1.6,0.8,2.5C1456.4,1548.6,1458.4,1552.5,1455.8,1556.6z"/>
<path class="st1" d="M1465.5,1554.4c-1.5-0.1-2.6-0.8-2.5-2.4c0-1.2,0.4-2.4,2-2c1.2,0.3,2.7,0.7,2.8,2.4
	C1467.8,1553.7,1466.8,1554.2,1465.5,1554.4z"/>
<path class="st1" d="M1467.8,1546.5c-0.2,1-0.5,2.1-1.8,1.7c-1.1-0.4-2.1-1-2-2.5c0.1-1,0.8-1.4,1.7-1.4
	C1467.2,1544.3,1467.8,1545,1467.8,1546.5z"/>
<polygon class="st2" points="1346.8,29.4 1346.9,29.6 1346.6,29.6 "/>
<g>
	<path class="st2" d="M70.7,0.6c2.9,0.3,5.8,0.5,8.6,0.9c10.1,1.3,19.8,3.8,28.4,9.3c10.3,6.6,15.9,16.1,16.7,28.2
		c0.5,8,0,16-2.9,23.6c-0.9,2.3-1.2,4-0.1,6.5c2.8,6.3-2,13.1-9.2,13.3c-1.1,0-1.6,0.3-2,1.4c-4.2,11.4-12.2,18.8-23.9,22.2
		c-0.3,0.1-0.7,0.2-1,0.3c-0.1,0-0.3,0.1-0.5,0.2c0,1.9-0.1,3.8,0,5.6c0.3,2.7,1.8,4.6,4.4,5.6c5.2,1.8,10.1,4.3,14.5,7.8
		c5.7,4.5,9.4,10.2,10.5,17.5c0.6,3.9-1.5,6.4-5.5,6.4c-22.6,0-45.2,0-67.9,0c-4,0-6.1-2.5-5.5-6.5c1.5-9.2,7-15.6,14.7-20.2
		c3.3-1.9,6.8-3.4,10.3-4.9c2.8-1.2,4.5-3.3,4.5-6.3c0-1.6,0-3.3,0-4.6c-3.5-1.5-6.9-2.7-10-4.4C47.7,98.3,42.7,92,39.8,84
		c-0.4-1.1-0.9-1.5-2.1-1.6c-7.5-0.3-11.8-7.4-8.8-14.3c0.2-0.5,0.2-1.2-0.1-1.7c-4.6-9.3-6.6-19.1-5.6-29.5
		C24.9,19.1,36.8,5.5,54.4,1.8c2.3-0.5,4.7-0.8,7-1.2C64.5,0.6,67.6,0.6,70.7,0.6z M115.9,63.2c2.5-5.9,3.8-12,3.8-18.3
		c0.1-6.1-0.6-12-3.3-17.5c-4.1-8.3-11-13.3-19.3-16.7c-7.6-3.1-15.6-4.4-23.8-4.9c-5.6-0.4-11.2-0.6-16.8,0.6
		C44.2,9,35,15.7,30.4,27.8c-3,7.8-3.2,15.9-1.5,24C29.8,56,31.1,60,33,63.7c1.6-0.4,3.2-0.8,4.7-1.3c0,0,0.1-0.1,0.1-0.2
		c0-3.2,0-6.4,0-9.6c0.1-3.8,2.8-6.8,6.6-7.3c4.1-0.6,8.2-1.1,12.2-2c11.3-2.6,21.5-7.2,29-16.7c1.2-1.6,3.2-1.2,4.2,0.5
		c0.8,1.3,1.5,2.7,2.4,4c4,5.7,9.3,9.9,15.5,13.1c3.2,1.6,4.8,4.2,4.7,7.8c-0.1,3.5,0,7,0,10.4C113.5,62.7,114.6,63,115.9,63.2z
		 M86.7,32.8C81,38.9,73.8,42.9,65.8,45.8C59.5,48,53,49.4,46.3,50c-3,0.3-3.5,0.9-3.5,3.9c0,6.3-0.1,12.6,0,18.9
		c0.3,11.1,5.3,19.6,14.8,25.4c7.6,4.6,16,4.9,24.4,3.6c14.9-2.2,25.2-14.6,25.3-29.7c0-6.7,0-13.4,0-20.1c0-1.8-0.7-2.7-2.2-3.7
		c-3.5-2.1-7.1-4.3-10.2-6.9C91.9,39,89.5,35.8,86.7,32.8z M40.4,144.4c23.1,0,46.1,0,69.1,0c-0.5-4.6-2.4-8.4-5.4-11.8
		c-4.2-4.6-9.4-7.5-15.1-9.7c-0.4-0.1-1,0-1.3,0.2c-2.6,2.2-5.6,3.4-9,3.7c-6,0.6-11.7,0.3-16.6-3.8c-0.3-0.2-0.9-0.2-1.3-0.1
		c-4.9,1.9-9.5,4.4-13.4,8C43.6,134.6,41.1,138.9,40.4,144.4z M70,107.3c0.1,4.6,0.4,9.3-3.6,12.6c4,3.1,13.3,3.1,17.1,0
		c-4-3.3-3.6-8-3.6-12.6C76.6,107.3,73.5,107.3,70,107.3z M112.1,77.4c2.9,0,5.1-2.1,5-5c-0.1-2.7-2.3-4.7-5-4.6
		C112.1,70.9,112.1,74.1,112.1,77.4z M37.9,67.7c-3.1,0.1-5.2,2.3-5,5.2c0.2,2.7,2.4,4.7,5,4.5C37.9,74.1,37.9,70.9,37.9,67.7z"/>
	<path class="st2" d="M115.4,0.6c4.5,1.8,8.7,4.1,12.3,7.3c7.7,7.1,12,15.9,13.6,26.1c1.8,12.2-0.1,23.9-5.3,35.1
		c-0.2,0.4-0.2,1,0,1.3c3.4,7.1-1.9,14.8-9.5,14.4c-0.2,0-0.5,0-0.8,0.1c-1.5,4.4-3.6,8.4-6.7,12c-4,4.6-8.9,7.9-14.7,9.8
		c-1.1,0.4-2.3,0.8-3.3,1.4c-1,0.5-1.3,1.4-1,2.4c0.6,2.2,1.9,3.7,4.1,4.6c9.4,3.9,17.2,9.6,22.2,18.7c2.2,3.9,3.2,8.2,3.3,12.7
		c0.1,2.1-1.7,3.6-3.3,2.7c-0.7-0.4-1.5-1.3-1.5-2c-0.4-11-6.6-18.2-15.3-23.7c-2.3-1.5-4.9-2.6-7.4-3.7c-4.2-1.9-6.6-5-7.1-9.5
		c-0.4-3.2,2.6-6.6,6.3-7.7c8.8-2.6,15.1-8.1,18.7-16.5c0.5-1.2,0.9-2.6,1.3-3.8c0.5-1.6,1.2-2.2,2.9-2.2c1,0,2,0,3.1,0
		c2-0.1,3.4-1,4.3-2.7c0.9-1.7,0.8-3.5-0.4-5.1c-1.2-1.5-1.1-2.8-0.1-4.3c2.8-4.5,4-9.5,4.9-14.6c1.9-9.8,1.5-19.4-2.5-28.6
		c-3.8-8.9-10-15.5-19.3-19.1c-0.8-0.3-1.6-1.3-1.9-2.1c-0.4-1.3,0.6-2.1,1.6-2.7C114.5,0.6,114.9,0.6,115.4,0.6z"/>
	<path class="st2" d="M36.1,0.6c1,0.6,2.1,1.5,1.6,2.7c-0.3,0.8-1.1,1.8-1.9,2.1C24.7,9.8,18.1,18.2,14.9,29.3
		c-3.6,12.4-1.8,24.5,3,36.3c0.4,1,1,1.9,1.6,2.8c0.7,1.1,0.7,2.2-0.2,3.2c-1.4,1.7-1.7,3.6-0.8,5.5c1,2,2.8,2.8,5,2.8
		c4.4-0.1,4.4-0.2,5.9,4.2c3.2,9.5,9.9,15.5,19.4,18.4c1.3,0.4,2.6,1.1,3.7,2c2.4,2.2,3.4,4.9,2.2,8.1c-1.3,3.4-3.5,5.8-6.9,7.2
		c-7,2.8-13.1,7-17.6,13.1c-3,4-4.5,8.5-4.8,13.5c0,0.8-0.4,1.9-1,2.4c-0.6,0.5-1.7,0.5-2.5,0.3c-1.1-0.3-1.4-1.4-1.4-2.5
		c0.1-4,0.9-7.9,2.7-11.5c3.7-7.6,9.6-12.9,16.8-17c2-1.2,4.2-2.1,6.3-3c2.1-0.9,3.3-2.4,3.9-4.6c0.3-1.1,0-1.9-1-2.4
		c-0.9-0.5-1.9-0.9-2.9-1.2c-10.4-3.6-17.6-10.6-21.4-21c-0.1-0.3-0.3-0.6-0.4-0.9c-1.3-0.1-2.5-0.1-3.7-0.4
		c-6.1-1.4-9.4-7.9-6.8-13.6c0.4-0.9,0.4-1.5-0.1-2.4c-2.7-5.3-4-11-4.9-16.8c-1.5-9.4-1-18.5,2.4-27.4C15.6,13.3,22.9,5.1,34.2,0.8
		c0.1,0,0.2-0.2,0.4-0.2C35.1,0.6,35.6,0.6,36.1,0.6z"/>
	<path class="st2" d="M57.6,77.5c-1.6,0-3.2,0.1-4.8,0c-2.1-0.1-3-1.7-2.2-3.7c0.2-0.4,0.2-1,0-1.5c-0.9-3.2,0.1-6.5,2.8-8.4
		c2.5-1.8,6-1.8,8.6,0c2.6,1.8,3.7,5.1,2.8,8.2c-0.1,0.5-0.1,1.2,0.1,1.7c0.6,1.8-0.3,3.3-2.2,3.5c-0.1,0-0.2,0-0.3,0
		C60.8,77.5,59.2,77.5,57.6,77.5C57.6,77.5,57.6,77.5,57.6,77.5z M60.1,70c0-1.3-1.2-2.5-2.6-2.4c-1.4,0.1-2.4,1.2-2.3,2.6
		c0.1,1.3,1.1,2.3,2.5,2.3C59.1,72.5,60.2,71.3,60.1,70z"/>
	<path class="st2" d="M92.3,77.5c-1.5,0-3,0-4.5,0c-2.4-0.1-3.3-1.6-2.5-3.8c0.2-0.4,0.1-1,0-1.5c-0.9-3.2,0.2-6.4,2.8-8.2
		c2.6-1.8,6-1.8,8.6,0c2.7,1.9,3.7,5.1,2.8,8.4c-0.1,0.5-0.1,1.1,0.1,1.6c0.7,1.8-0.2,3.4-2.2,3.5C95.7,77.5,94,77.5,92.3,77.5
		C92.3,77.5,92.3,77.5,92.3,77.5z M92.3,72.5c1.4,0,2.5-1,2.5-2.4c0-1.4-1.1-2.5-2.5-2.5c-1.3,0-2.4,1.1-2.5,2.4
		C89.8,71.3,91,72.5,92.3,72.5z"/>
	<path class="st2" d="M68.3,87.4c1,0.3,2.4,0.6,3.6,1.3c2.1,1.2,3.9,1.2,6.1,0c3.8-2.1,7.6-1.5,10.8,1.5c1.2,1.2,1.4,2.6,0.4,3.7
		c-0.9,1-2.4,1.1-3.6,0c-1.9-1.8-3.8-1.9-6-0.6c-3,1.8-6.2,1.8-9.2,0c-2.2-1.3-4-1.1-5.9,0.6c-1.2,1.1-2.6,1-3.6-0.1
		c-1-1.1-0.9-2.5,0.4-3.7C63.1,88.5,65.3,87.6,68.3,87.4z"/>
	<path class="st2" d="M72.5,53c-0.1,3.8-3.3,7-7.1,7.1c-1.5,0-2.6-0.8-2.8-2.2c-0.2-1.3,0.7-2.5,2.2-2.7c1.7-0.2,2.6-1.1,2.8-2.8
		c0.2-1.6,1.3-2.3,2.7-2.2C71.7,50.4,72.5,51.4,72.5,53z"/>
	<path class="st2" d="M84.6,60.1c-3.8-0.1-7-3.3-7.1-7.1c0-1.6,0.8-2.6,2.2-2.8c1.4-0.1,2.5,0.6,2.7,2.2c0.2,1.7,1.1,2.6,2.8,2.8
		c1.5,0.2,2.4,1.4,2.2,2.7C87.2,59.3,86.1,60.2,84.6,60.1z"/>
	<path class="st2" d="M75,84.9c-0.9,0-1.7,0-2.6,0c-1.3-0.1-2.3-1.1-2.3-2.3C70,81.2,71,80.1,72.3,80c1.8-0.1,3.6-0.1,5.4,0
		c1.4,0.1,2.3,1.2,2.2,2.6c-0.1,1.3-1,2.2-2.3,2.3C76.8,84.9,75.9,84.9,75,84.9z"/>
</g>
</svg>
