<?xml version="1.0" encoding="utf-8"?>
<!-- Generator: Adobe Illustrator 24.3.0, SVG Export Plug-In . SVG Version: 6.00 Build 0)  -->
<svg version="1.1" id="Layer_1" xmlns="http://www.w3.org/2000/svg" xmlns:xlink="http://www.w3.org/1999/xlink" x="0px" y="0px"
	 viewBox="0 0 150 150" style="enable-background:new 0 0 150 150;" xml:space="preserve">
<style type="text/css">
	.st0{fill:#CDEEFD;}
	.st1{fill:#111224;}
	.st2{fill:#005BAB;}
</style>
<path class="st0" d="M1465.3,1556.3c-2.4-0.2-4.3-1.3-4.4-4.1c-0.1-6.7,1.6-10,4.9-9.9c0.2,0,0.3,0,0.5,0c2.2,0.5,4.3,2.1,3.2,4
	C1467.7,1549.5,1473.1,1555.7,1465.3,1556.3z M1465.5,1554.4c1.3-0.1,2.3-0.6,2.3-2.1c-0.1-1.7-1.5-2.1-2.8-2.4c-1.6-0.4-2,0.8-2,2
	C1463,1553.5,1464,1554.2,1465.5,1554.4z M1467.8,1546.5c0-1.4-0.6-2.2-2.1-2.2c-0.9,0-1.6,0.4-1.7,1.4c-0.2,1.4,0.9,2.1,2,2.5
	C1467.3,1548.5,1467.6,1547.5,1467.8,1546.5z"/>
<path class="st0" d="M1455.8,1556.6c-0.5-2.9-1.8-4.2-4.6-3.6c-0.7,0.2-1.7,0.3-2.1-0.8c-0.4-1.1,0.1-1.5,1.2-2.1
	c2.1-1.2,2.1-3.9,3.2-5.8c0.6-1,1-2.2,2.5-1.9c1.4,0.3,0.9,1.6,0.8,2.5C1456.4,1548.6,1458.4,1552.5,1455.8,1556.6z"/>
<path class="st1" d="M1465.5,1554.4c-1.5-0.1-2.6-0.8-2.5-2.4c0-1.2,0.4-2.4,2-2c1.2,0.3,2.7,0.7,2.8,2.4
	C1467.8,1553.7,1466.8,1554.2,1465.5,1554.4z"/>
<path class="st1" d="M1467.8,1546.5c-0.2,1-0.5,2.1-1.8,1.7c-1.1-0.4-2.1-1-2-2.5c0.1-1,0.8-1.4,1.7-1.4
	C1467.2,1544.3,1467.8,1545,1467.8,1546.5z"/>
<polygon class="st2" points="1346.8,29.4 1346.9,29.6 1346.6,29.6 "/>
<g>
	<path class="st2" d="M72.5,128.7c-0.8,2.4-1.4,4.4-2.1,6.3c-0.9,2.9-1.9,5.8-2.8,8.7c-0.5,1.6-1.4,2.3-3.1,2.3c-12.7,0-25.3,0-38,0
		c-2,0-2.8-0.7-3.1-2.7c-1.5-10.2-2.8-20.3-4.5-30.5c-0.5-3.3-2-6.5-2.8-9.8c-1.4-5.3-2.7-10.7-4.1-16.1c-0.2-0.7-0.6-1.4-1.2-1.9
		c-1.1-1-2.3-1.8-3.4-2.7C-1.7,74.7-2.2,61.1,6.6,53c5.3-4.9,10.8-9.6,16.1-14.4c0.7-0.6,1.3-1.5,1.5-2.4c2.9-9.9,5.8-19.8,8.7-29.7
		C33.6,4.5,34.2,4,36.3,4c24.3,0,48.6,0,72.8,0c1,0,2.3,0.5,3,1.2c10.4,9.7,20.7,19.5,31,29.3c9,8.5,8.8,21.2-0.2,29.7
		c-9.6,9-19.2,18-28.9,27c-0.9,0.8-1.2,1.7-1,2.8c1.2,9.9,2.4,19.9,3.6,29.8c0.7,6.2,1.5,12.5,2.2,18.7c0.2,2-0.9,3-3.1,3.1
		c-11.2,0.1-22.4,0.2-33.6,0.3c-0.3,0-0.6,0-0.9,0c-2.6,0-3.1-0.3-3.9-2.8c-1.4-4.2-2.7-8.5-4.1-12.7C73,130,72.8,129.5,72.5,128.7z
		 M28.1,140.9c0.3,0.1,0.4,0.1,0.6,0.1c11.2,0,22.4,0,33.6,0c0.9,0,1.1-0.5,1.3-1.2c1.9-5.9,3.8-11.7,5.7-17.6
		c0.3-0.9,0.1-1.4-0.6-2c-1.6-1.4-3.3-2.8-4.8-4.4c-0.7-0.8-1.3-1.9-1.3-2.9c-0.1-4.1-0.1-8.2,0-12.3c0-1-0.2-1.5-1.4-1.7
		c-12.1-2.2-24.1-4.5-36.2-6.8c-2.4-0.4-4.7-0.9-7.5-1.4c1.2,4.1,2.4,7.7,3.5,11.5c1,3.4,2.3,6.8,2.9,10.3
		C25.5,121.9,26.7,131.3,28.1,140.9z M41.5,79.2C59.4,81.6,77,82,94.8,80c-0.6-2.6-1.2-5-1.8-7.3c-0.5-1.7,0-2.8,1.4-3.7
		c0.9-0.5,1.7-1.2,2.6-1.7c1-0.5,1.2-1.1,0.8-2.2c-1-2.7-1.8-5.5-2.6-8.3c-0.3-1-0.3-2-0.1-3c0.5-3.2,1.2-6.5,1.8-9.8
		c-16.8,0-33.3,0-50,0c0.2,1.1,0.3,2.2,0.6,3.3c1.6,5.8,1.6,11.4-0.9,17C44.5,68.9,43.2,74,41.5,79.2z M97.7,9.1
		c-17.1,0-34,0-50.9,0c-1.2,4.8-2.5,9.6-3.6,14.3c-1.2,4.9-0.6,9.7,1.4,14.3c0.3,0.8,0.7,1.2,1.7,1.2c17,0,34,0,51-0.1
		c0.5,0,1.3-0.5,1.5-0.9c0.9-2.7,2-5.5,2.4-8.3C101.9,22.5,98.8,15.9,97.7,9.1z M67.5,99.3c0,2.1,0,4,0,5.9c0,2.4-0.6,5.2,0.3,7.2
		c0.9,2,3.4,3.2,5.1,4.9c0.8,0.8,1.6,1.8,1.9,2.9c2.2,6.4,4.3,12.7,6.4,19.2c0.4,1.2,0.8,1.6,2.1,1.6c9.6-0.2,19.3-0.2,28.9-0.3
		c0.4,0,0.8-0.1,1.2-0.1c-1.9-15.5-3.7-30.8-5.5-46.3C94.4,96,81,97.6,67.5,99.3z M102.8,9c0.1,0.7,0.3,1.3,0.4,1.8
		c0.9,4.2,1.9,8.5,2.8,12.8c0.2,1.1,0.7,2,1.5,2.8c7.1,7,14.1,14.1,21.1,21.1c1.6,1.6,1.7,2.8,0.3,4.3c-4.9,5-9.8,10-14.8,14.9
		c-1.2,1.2-2.4,1.2-3.7,0.1c-1-0.9-2-1.8-3.1-2.6c-1.4-1.1-2.9-1.6-4.8-1.1c0.4,1.2,0.7,2.3,1,3.3c0.5,1.4,0.1,2.5-1.2,3.3
		c-1.1,0.7-2.1,1.5-3.2,2.1c-0.7,0.4-1,0.9-0.7,1.7c0.4,1.3,0.7,2.6,1,3.9c1,4.1,2.1,8.2,3.1,12.4c2.1-0.3,4.1-0.5,6.1-0.8
		c0.4-0.1,0.8-0.4,1.2-0.7c10.1-9.5,20.2-18.9,30.3-28.4c6.3-6,6.4-15.4,0.1-21.5c-10.1-9.7-20.3-19.3-30.5-28.9
		c-0.3-0.3-0.9-0.7-1.3-0.7C106.5,8.9,104.7,9,102.8,9z M41.6,42.9c-0.2-0.3-0.2-0.5-0.3-0.7c-3.8-7.1-4.6-14.5-2.4-22.3
		c1-3.6,1.9-7.2,2.8-10.9c-1.5,0-2.9,0-4.3,0c-0.1,0.4-0.3,0.7-0.4,1.1C34.3,19.4,31.6,28.7,29,38c-0.5,1.7-1.3,2.9-2.6,4.1
		c-5.4,4.7-10.7,9.4-16,14.1c-5.5,4.9-6.4,11.2-2.8,17.5c0.8,1.4,1.8,2.7,2.6,4c0.2,0.3,0.3,0.7,0.5,1.1c0.3-2,0.4-3.5,0.3-5.1
		c-0.1-1.3,0.2-2.5,1.3-3.1c3.4-1.8,4.2-4.7,3.4-8.3c-0.3-1.2,0.3-2.2,1.4-2.9c1.9-1.2,3.7-2.5,5.5-3.7
		C28.9,51.5,35.2,47.2,41.6,42.9z M123.5,50c-6-6-11.8-11.8-17.6-17.6c-0.6,1.9-1.1,4.1-2,6c-1.4,2.7-2,5.6-2.5,8.6
		c-0.4,2.3-0.8,4.7-1.4,7c-0.4,1.6,0.1,2.8,0.8,4.1c4.4-1.1,8,0.3,10.9,3.2C115.8,57.5,119.7,53.7,123.5,50z M62.5,94.1
		c0-2.7,0-5.3,0-7.7c-15.4-2.1-30.6-4.2-46.1-6.3c0.2,1.8,0.3,3.6,0.5,5.4C32.1,88.4,47.3,91.2,62.5,94.1z M42.8,49.4
		c-0.6,0.3-1.1,0.6-1.6,0.9C35,54.2,28.8,58.1,22.5,62c-2,1.2-2.1,1.5-1.2,4.2c6.2,0,12.4,0,18.7,0c0.4,0,0.9-0.6,1.1-1
		c1-2.6,1.9-5.3,2.8-7.9c0.1-0.4,0.2-0.8,0.2-1.2C43.7,53.9,43.2,51.8,42.8,49.4z M67.6,94.3c10-1.3,19.9-2.5,29.8-3.7
		c-0.5-2-1-3.8-1.4-5.4c-9.6,0.4-19,0.9-28.5,1.3C67.6,89,67.6,91.6,67.6,94.3z M39,71c-5.8,0-11.3,0.2-16.7-0.1
		c-2.7-0.1-4.2,1.3-5.9,2.8c-0.6,0.5-0.6,1.1,0.4,1.3c1,0.2,1.9,0.3,2.9,0.5c5.5,1,11.1,1.9,16.8,2.9C37.3,76,38.1,73.8,39,71z"/>
	<path class="st2" d="M75,65.1c0,0.3,0,0.5,0,0.8c0,1.8-1,2.9-2.5,2.9c-1.5,0-2.4-1.1-2.5-3c0-0.6,0-1.1,0-1.7
		c0.1-1.7,1.1-2.8,2.5-2.8c1.5,0,2.4,1.1,2.5,2.8C75,64.4,75,64.8,75,65.1z"/>
</g>
</svg>
