<?xml version="1.0" encoding="utf-8"?>
<!-- Generator: Adobe Illustrator 24.3.0, SVG Export Plug-In . SVG Version: 6.00 Build 0)  -->
<svg version="1.1" id="Layer_1" xmlns="http://www.w3.org/2000/svg" xmlns:xlink="http://www.w3.org/1999/xlink" x="0px" y="0px"
	 viewBox="0 0 150 150" style="enable-background:new 0 0 150 150;" xml:space="preserve">
<style type="text/css">
	.st0{fill:#005BAB;}
</style>
<g>
	<path class="st0" d="M117.2,47.6c7.4,15.2,15.3,30.3,17.7,47.3c2.8,19.5-3,36.7-13.6,52.7c-1.4,2.1-3.3,2.8-5.4,1.4
		c-2-1.3-1.9-3.4-0.7-5.2c3.5-5.7,6.7-11.5,9.1-17.7c1.9-5,2.9-10.2,3.6-15.4c0.3-2,0.1-3.2-2.5-2.9c-14.6,1.5-28.6,4.7-41,13.2
		c-4,2.7-6.5,5.8-5.9,11.2c0.5,4.3,0.1,8.8,0.1,13.1c0,2.4-0.9,4.3-3.6,4.3c-2.7,0-3.6-1.9-3.6-4.3c0-5-0.3-10,0-15
		c0.2-3.5-1.2-5.8-3.7-7.7c-12.9-9.8-27.9-13.4-43.6-14.8c-3-0.3-2.1,1.9-2,3.4c1.1,10.3,4.8,19.6,10.1,28.4
		c0.9,1.4,1.7,2.8,2.6,4.3c1.1,1.9,1.3,3.9-0.7,5.2c-2.1,1.3-4,0.7-5.4-1.4c-2.8-4.1-5.2-8.5-7.3-13c-10.3-21.5-8.4-42.8,0.8-64.1
		c3.2-7.5,6.9-14.8,10.3-22.2c2.7,3.3,2.6,7.2,2.5,11.1c-3.1,7.5-6.7,14.9-9.3,22.6c-1,3.1-0.8,4.5,2.8,5.3
		c31.1,6.7,62.1,6.7,93.2,0c3.3-0.7,4.1-1.7,3-5.1c-2.7-8-6.6-15.6-9.5-23.5C114.5,54.9,114.8,51.1,117.2,47.6z M75.1,119.3
		c0.8-0.6,1.5-1.1,2.2-1.7c5.8-4.9,12.4-8.5,19.6-11c9-3.1,18.3-5.1,27.8-6c2.7-0.3,3.7-1.3,3.1-4.1c-0.6-2.7-1.9-2.9-4.2-2.1
		c-2.7,0.9-5.6,1.3-8.4,1.8c-30,5.4-59.8,5-89.5-2c-2.2-0.5-2.9,0.2-3.5,2.1c-1.1,3.5,0.8,4.1,3.6,4.4c17.3,2.1,34,5.7,47.7,17.6
		C73.9,118.6,74.4,118.9,75.1,119.3z"/>
	<path class="st0" d="M117.2,47.6c-2.4,3.4-2.7,7.3-2.3,11.3c-3.2,2-2.8,5.6-3.2,8.5c-0.7,4.1-2.3,4.1-5.4,2.4
		c-3.5-2-7.3-3.6-10.8-5.6c-2.7-1.5-4.1-0.8-5.1,1.9c-1.7,4.8-3.6,9.5-5.4,14.3c-4.9-1.1-1.9-5.2-3-7.7c0-1,0-2.1,0-3.1
		c0-6.6,0.1-13.2,0.1-19.8c0-2.2-0.3-4.6,2.1-6c3.9,2.7,7.9,5.4,11.7,8.3c2.6,1.9,3.6,1.1,4-1.8c1.1-6.5,0.6-13.1,2.5-19.5
		c3.5-0.1,6.5,1.5,9.4,3.1c0.7,0.7,1.4,1.7,2.3,2.1c3.2,1.5,3.9,3.8,2.7,6.9C116.3,44.5,116.8,46.1,117.2,47.6z"/>
	<path class="st0" d="M62.2,72c-0.3-1-0.6-2-0.8-2.9c0-2.5-0.2-6.1-3-5.8c-3.3,0.4-7.5,0.5-9.4,4.4c-0.8,0.5-1.6,0.9-2.5,1.4
		c-3.6,0.7-7.7,3.4-9-3.1c-1.2-6-2.4-11.9-4.2-17.7c-2.5-7.9,0.2-13.2,7.1-17.2c3.9-2.3,6.7-1.2,7.4,3.2c0.4,2.3-1.1,4.9,0.9,7
		c0.2,1.1,0.3,2.2,0.5,3.3c-1,1.8-0.3,3.7-0.4,5.6c-0.1,1.8,0.6,3.5,2.3,3.8c1.7,0.3,3.5-0.3,3.9-2.5c0.6-0.4,1.2-0.8,1.8-1.2
		c1.4,0.3,2.1-0.3,2.1-1.7c1.1-0.8,2.2-1.5,3.3-2.3c0.6,0,1.4,0.3,1.9,0.1c5.3-2.1,5.3-2.1,5.3,3.8c0,7.9,0,15.8,0,23.7
		c0,2.6-0.1,5.3-2.2,7.7c-2.1-2.4-0.3-6.5-4.2-7.4C62.7,73.4,62.4,72.7,62.2,72C62.2,71.9,62.2,72,62.2,72z"/>
	<path class="st0" d="M112,33.9c-2.9-1.6-5.9-3.2-9.4-3.1c0.8-1.9,0.8-3.7,0.6-5.7c-0.8-7.5,0.5-14.7,3.7-21.5c1-2.2,2.5-4,5.2-3.1
		c2.9,1,2.6,3.6,1.6,5.7C109.1,15.2,109.8,24.5,112,33.9z"/>
	<path class="st0" d="M38.6,32.1c1.7-9,1.8-17.9-2.4-26.5c-1-2-0.7-4.3,1.9-5.2C40.5-0.4,42,1,43,3.1c3.7,8.2,5.2,16.6,3.3,25.5
		C44.1,30.7,41.2,31.1,38.6,32.1z"/>
	<path class="st0" d="M61.3,70.6C61.3,70.6,61.2,70.6,61.3,70.6C61.2,70.6,61.3,70.6,61.3,70.6z"/>
</g>
</svg>
