<?xml version="1.0" encoding="utf-8"?>
<!-- Generator: Adobe Illustrator 24.3.0, SVG Export Plug-In . SVG Version: 6.00 Build 0)  -->
<svg version="1.1" id="Layer_1" xmlns="http://www.w3.org/2000/svg" xmlns:xlink="http://www.w3.org/1999/xlink" x="0px" y="0px"
	 viewBox="0 0 150 150" style="enable-background:new 0 0 150 150;" xml:space="preserve">
<style type="text/css">
	.st0{fill:#005BAB;}
</style>
<g>
	<path class="st0" d="M110.4,127.2c2.1-9.9-0.4-18.7-6.4-26.6c-2.1-2.8-4.7-5.3-7.5-7.5c-0.4-0.3-0.5-0.6-0.3-1.1
		c0.3-0.7,0.6-1.5,0.9-2.3c0.8-2.1,1.1-4.2,0.8-6.4c-0.6-4.2-2.8-7.3-6.2-9.6c-6.9-4.8-13.7-9.6-20.6-14.4c-0.2-0.2-0.5-0.3-0.6-0.6
		c-1-2.9-1.8-5.9-2.6-8.9c0.2-0.6,0.7,0,1-0.2c3.2,0.3,6.4-0.2,9.4-1.2c3-1,5.3-2.9,6.9-5.7c1.7-3.1,2.4-6.4,2.8-9.8
		c0.4-3.9,0.4-7.8,0.1-11.7c0-0.4,0-0.7,0.2-1c1.1-1.4,1.3-3,0.6-4.6c-3.6-9.1-10.5-14.1-20.2-15c-6.9-0.6-13,1.6-18,6.4
		c-5.1,4.9-7.3,10.9-6.9,17.9c0,1.3,0,2.5,0,3.8c0,3.1,0,6.2,0,9.3c0.1,9.7-0.7,19.2-2.7,28.7c-0.1,0.4-0.3,0.7-0.2,1.1
		c-0.1,1.6-0.5,3.1-0.8,4.6c-0.5,2.8-0.8,5.6-1.3,8.4c-0.1,0.9,0.3,1.7,1.2,1.8c0.8,0.2,1.5-0.4,1.7-1.3c0.2-1.2,0.4-2.5,0.6-3.7
		c0.3-2.1,0.6-4.2,0.9-6.3c0.3-1.7,0.7-3.4,1-5.1c1.6-7.3,2.4-14.6,2.5-22.1c0.1-7,0.1-14,0.1-21c0-2.9,0.5-5.6,1.8-8.2
		C52.7,6.4,62,1.8,71.5,3.9c7,1.6,12,5.7,14.7,12.4c0.5,1.4,0.4,1.8-0.8,2.7c-0.5,0.4-1,0.8-1.6,1.1C79,23.3,73.7,24.8,68,25.4
		c-3.6,0.4-5.6,2.8-5.4,6.4c0.2,4.1,0.6,8.2,1.3,12.3c1.2,7.6,3.2,14.9,6.4,21.9c4,8.7,6.6,17.8,7.6,27.4c0.4,4.2,0.5,8.4,0.5,12.7
		c0,1.1,0.5,1.7,1.4,1.7c0.9,0,1.5-0.6,1.5-1.7c0-4.8-0.1-9.6-0.6-14.4c-0.8-7-2.5-13.7-4.9-20.3c-0.9-2.4-1.9-4.7-2.9-7
		c0,0,0.1-0.1,0.1-0.1c5.9,4.1,11.9,8.3,17.8,12.5c2.7,1.9,4.2,4.6,4.4,8c0.1,2.1-0.6,3.9-1.4,5.8c-0.2,0.5-0.4,0.5-0.8,0.2
		c-1.8-1.2-3.7-2.2-5.6-3.1c-0.9-0.4-1.8-0.2-2.2,0.6c-0.3,0.8,0,1.6,0.9,2c3.3,1.6,6.4,3.4,9.3,5.7c5.9,4.8,10.3,10.7,12,18.2
		c2.2,9.5,0,17.9-6.9,24.9c-0.3,0.3-0.7,0.5-1.1,0.5c-5.4-0.2-10.5-1.3-15.5-3.3c-0.4-0.1-0.7-0.3-0.9-0.6
		c-6.8-7.7-13.6-15.3-20.4-22.9c-0.9-1-1-1.9-0.6-3.1c1.5-4.1,3-8.3,4.5-12.4c0.6-1.7,1.4-3.4,1.8-5.2c0.4-0.6,0.6-1.3,0.8-1.9
		c0.3-0.9,0.7-1.7,0.9-2.6c0.3-0.8-0.1-1.6-0.9-1.9c-0.7-0.3-1.5,0.1-1.9,0.9c-0.1,0.2-0.1,0.4-0.2,0.6c-2.6,7.2-5.1,14.4-7.8,21.5
		c-0.9,2.4-0.5,4.4,1.2,6.2c6.8,7.7,13.7,15.4,20.5,23c0.4,0.4,0.8,0.7,1.3,0.9c4.2,1.8,8.5,2.9,13.1,3.4c0.9,0.1,1.7,0,2.7,0.3
		c-2,2.2-4.3,3.5-7.1,3.9c-2.8,0.4-5.6,0.2-8.4,0.1c-1.3,0-2.5-0.6-3.6-1.4c-5.6-4.4-11.3-8.8-16.9-13.2c-5.7-4.4-11.3-8.8-17-13.2
		c-1.8-1.4-2.7-3.1-2.6-5.4c0-0.9,0.4-1.8,0.5-2.7c0.2-0.4,0.3-0.8,0.3-1.3c0-0.1,0.1-0.2,0.1-0.3c1.8-8.2,3.6-16.3,5.3-24.5
		c0.4-1.7,0.7-3.3,1.1-5c0.1-0.8-0.2-1.3-0.9-1.6c-0.7-0.3-1.3,0-1.7,0.6c-0.2,0.3-0.3,0.7-0.3,1c-2.4,10.9-4.8,21.7-7.1,32.6
		c-0.7,3.2,0.2,5.9,2.6,8.1c1.2,1.1,2.5,2.1,3.8,3c0.5,0.4,0.7,0.7,0.6,1.4c-0.2,7.7-1.2,15.3-2.8,22.8c-0.2,1.1,0.1,1.8,1,2.1
		c0.9,0.2,1.6-0.3,1.8-1.4c1.1-5.4,2-10.9,2.5-16.4c0.2-1.8,0.3-3.7,0.4-5.6c0.2,0.1,0.3,0.2,0.4,0.3c9,7,18,14.1,27,21.1
		c1.4,1.1,2.9,1.8,4.6,2c3.2,0.2,6.4,0.4,9.5-0.1c4.4-0.7,8-2.7,10.2-6.8c0.3-0.5,0.8-0.9,1.2-1.3
		C106.6,137.2,109.3,132.6,110.4,127.2z M65.5,31.3c-0.1-1.7,0.9-2.8,2.5-3c3.7-0.4,7.3-1.1,10.7-2.4c2-0.8,3.9-1.7,5.8-2.8
		c0.2-0.1,0.4-0.4,0.7-0.3c0,0.1,0.1,0.1,0.1,0.2c0.3,5,0.1,10-1.2,14.9c-1.5,5.3-5.1,8-10.5,8.6c-1.6,0.2-3.2,0.2-4.8,0.2
		c-0.3-0.1-0.5-0.2-0.8-0.1c0,0,0,0,0,0c-0.1,0-0.2,0-0.3,0c-0.1-0.3-0.5-0.2-0.7-0.4c-0.1-1.7-0.5-3.3-0.7-4.9
		C65.9,38,65.6,34.6,65.5,31.3z"/>
	<path class="st0" d="M58.2,79.2c0,0.9,0.7,1.5,1.5,1.5c0.9,0,1.4-0.6,1.4-1.6c0-2.3-0.4-4.6-0.9-6.8c-0.8-3-1.9-5.9-2.4-9
		c-0.2-1.4-0.3-2.7-0.3-4.1c0-0.9-0.7-1.4-1.5-1.4c-0.8,0-1.4,0.6-1.4,1.5c0,0.4,0,0.7,0,1.1c0.1,3,0.8,6,1.7,8.8
		C57.2,72.3,58.2,75.7,58.2,79.2z"/>
</g>
</svg>
