<?xml version="1.0" encoding="utf-8"?>
<!-- Generator: Adobe Illustrator 24.3.0, SVG Export Plug-In . SVG Version: 6.00 Build 0)  -->
<svg version="1.1" id="Layer_1" xmlns="http://www.w3.org/2000/svg" xmlns:xlink="http://www.w3.org/1999/xlink" x="0px" y="0px"
	 viewBox="0 0 150 150" style="enable-background:new 0 0 150 150;" xml:space="preserve">
<style type="text/css">
	.st0{fill:#5F6368;}
	.st1{fill:#005BAB;}
</style>
<path class="st0" d="M2053.7-657.2c-2.1,0-3.6,0-5.1,0C2049.8-661.3,2051.5-660.2,2053.7-657.2z"/>
<path class="st0" d="M647.6-31.1c1.8-3.6,3.4-2.9,5.2,0C651-31.1,649.5-31.1,647.6-31.1z"/>
<g>
	<path class="st1" d="M1.4,144.8c1.3-3.1,2.4-6.2,3.9-9.1c2.6-4.9,6.5-8.4,11.3-11.1c8.3-4.5,17-7.9,25.8-11.1
		c2.7-1,5.5-1.9,8.3-2.8c0.8-0.2,1.1-0.6,1-1.4c0-2.9,0-5.8-0.1-8.8c0-0.6-0.4-1.2-0.8-1.7c-1.5-1.8-3.2-3.5-4.7-5.4
		c-2.5-3.1-4.1-6.7-4.6-10.7c-0.1-1.1-0.5-1.7-1.8-1.9c-3.2-0.5-5.7-2.4-7.3-5.1c-2.8-4.7-4.1-9.7-1.8-15c0.2-0.4,0-1.1-0.3-1.6
		c-4.2-8.4-6.6-17.3-6.6-26.8c0-10.2,2.7-19.8,8.3-28.4c0.6-0.9,1.5-1.7,2.2-2.6c0.5,0,1,0,1.4,0c0.4,0.4,0.9,0.8,1.2,1.3
		c4,6,7.9,7.7,14.9,6c4.4-1.1,8.7-2.5,13.1-3.7C74.1,2.6,82.9,3,91.4,6.9c4.2,1.9,7.4,4.9,9.5,9c0.2,0.4,0.8,0.8,1.3,0.8
		c11.9,0.4,16.7,9.3,17.1,18.1c0.3,7.4-1.9,14.4-4.7,21.1c-0.3,0.8-0.7,1.7-1.1,2.5c-1.3,2.4-2,4.7-1.8,7.6
		c0.3,4.4-1.2,8.4-4.3,11.7c-1.7,1.8-3.8,2.9-6.2,3.4c-0.7,0.1-1.1,0.3-1.2,1.1c-0.8,6.8-4.6,11.9-9.4,16.5c-0.7,0.7-1,1.4-1,2.4
		c0.1,2.7,0.1,5.5,0,8.2c0,0.9,0.3,1.3,1.2,1.6c9.7,3.2,19.4,6.6,28.6,11.1c1.9,0.9,3.7,1.9,5.6,2.9c7.6,4.1,12,10.6,14.5,18.6
		c1.3,4.3,0.5,5.2-4,5.2c-43.6,0-87.3,0-130.9,0c-1.3,0-2.5-0.2-3.2-1.5C1.4,146.4,1.4,145.6,1.4,144.8z M135.2,144.2
		c-0.1-0.4-0.1-0.7-0.2-0.9c-2.4-6-5.7-11.2-11.6-14.5c-10.8-6.1-22.5-10.1-34.2-14c-0.3-0.1-0.9,0.2-1.2,0.5
		c-1.1,1.1-2,2.3-3.2,3.3c-4.5,3.6-9.9,4.6-15.5,4.3c-6.3-0.3-11.9-2.4-15.8-7.7c-0.2-0.3-1-0.4-1.4-0.3c-10.1,3.2-20,6.9-29.5,11.5
		c-5.4,2.6-10.4,5.8-13.3,11.3c-1.1,2-2.1,4.1-3.2,6.4C49.2,144.2,92.1,144.2,135.2,144.2z M42.8,40.9c0,0.7,0,1.2,0,1.7
		c0.2,4.3,0.3,8.5,0.5,12.8c0.2,4.5,0.2,4.5-4.3,4.9c-2.9,0.3-4.8,1.7-5,4.4c-0.3,3.7,0.5,7.1,3.1,9.8c1.3,1.5,3,2.3,5.1,2.2
		c2.2-0.1,2.9,0.4,3.2,2.7c0.5,3.6,1.2,7,3.3,10.1c3.6,5.1,8,9.1,13.5,12c4.8,2.5,9.9,3.3,14.9,0.9C87,97.7,94.7,91,96,79.1
		c0.2-1.8,1.1-2.5,2.8-2.4c2.5,0.2,4.6-0.8,5.9-2.8c1.1-1.7,2-3.7,2.4-5.7c1.1-5.6-0.9-7.8-6.6-7.9c-1.7,0-2.4-0.8-2.6-2.5
		c-0.2-1.3-0.4-2.7-1-3.8c-1.5-2.6-3.2-5.1-4.9-7.6c0,0-0.1,0.1-0.2,0.3c-1.5,3.6-3.2,4.8-7.1,4.8c-9.5,0-19.1,0-28.6,0
		c-4.2,0-6.8-2.6-6.8-6.8c0-1.1,0-2.2,0-3.5C47.1,41.1,45,41,42.8,40.9z M39,55.8c-0.2-5.6-0.4-11.1-0.5-16.6
		c-0.1-2.4,0.7-3.1,3.1-2.9c2.6,0.2,5.1,0.3,7.8,0.5c0-1.3,0-2.3,0-3.3c0-4.3,2.7-6.9,6.9-6.9c9.6,0,19.3,0,28.9,0
		c3.7,0,6.1,2,6.9,5.6c1.3,6.6,3.9,12.7,7.8,18.2c1,1.4,1.5,3.1,2.2,4.6c0.1,0.3,0.3,0.7,0.6,0.8c2,0.7,4.1,1.3,6.3,2
		c0.6-1.5,1.4-3.2,2.1-4.9c2.3-5.9,4.1-11.9,3.9-18.4c-0.3-8.9-5.8-14-14.6-13.5c-1.4,0.1-2.3-0.5-2.7-1.8c-1.2-3.7-3.7-6.4-7.1-8.1
		c-7.6-3.9-15.6-4.3-23.7-2.2c-4.7,1.2-9.4,2.8-14.1,3.9c-4.7,1.1-9.4,1.1-13.5-1.8c-1.4-1-2.7-2.3-4.1-3.5
		c-9.2,14.8-9,34.1-0.6,49.4C36,56.7,37.4,56.3,39,55.8z M70.6,47.2c4.8,0,9.6,0,14.4,0c2,0,2.7-0.7,2.7-2.7c0-3.6,0-7.2,0-10.8
		c0-2-0.7-2.7-2.8-2.7c-9.5,0-19,0-28.4,0c-2,0-2.8,0.7-2.8,2.8c0,3.5,0,7.1,0,10.6c0,2.1,0.7,2.7,2.7,2.8
		C61.2,47.2,65.9,47.2,70.6,47.2z M56.1,102.9c0,2.3,0.2,4.2,0,6.1c-0.3,2.5,0.8,4.3,2.6,5.7c1.1,0.9,2.3,1.8,3.6,2.3
		c5.5,2.3,11.2,2.3,16.7,0.1c2.4-1,4.3-2.5,5.7-4.6c0.2-0.4,0.5-0.8,0.5-1.1c0-2.7,0-5.3,0-8.3C75.5,109.9,65.9,109.9,56.1,102.9z"
		/>
	<path class="st1" d="M137.4,1.4c2.4,0.8,4.4,2.1,5.3,4.6c0.4,1.1,0.5,2.4,0.5,3.7c0,13.9,0,27.8,0,41.7c0,1,0.3,1.6,1.1,2.3
		c5.5,4.8,5.8,13,0.8,18.3c-4.9,5.1-13.2,5.2-18.1,0.1c-5-5.1-4.8-13.4,0.5-18.2c0.9-0.8,1.2-1.6,1.2-2.8c0-13.5,0.1-27-0.1-40.5
		c0-4.5,1.5-7.7,6-9.1C135.5,1.4,136.4,1.4,137.4,1.4z M133,31.2c2.8,0.4,3.6,0.8,3.6,2.1c0,2.5-2,2.2-3.6,2.4c0,2.7,0,5.2,0,7.9
		c1.6,0.2,3.4-0.1,3.6,2.2c0.1,1.4-0.5,1.8-3.7,2.4c0,1.6,0,3.2,0,4.8c0.1,1.4-0.4,2.4-1.7,3.2c-3.2,2.1-4.4,5.9-3.3,9.4
		c1.1,3.4,4.3,5.8,7.9,5.8c3.6,0,6.9-2.4,8-5.8c1.1-3.5-0.1-7.3-3.2-9.4c-1.3-0.9-1.8-1.9-1.8-3.5c0-9.3,0-18.6,0-27.9
		c0-0.6,0-1.1-0.1-1.7c-2,0-3.9,0-5.8,0C133,26,133,28.6,133,31.2z M138.8,18.9c0-3.6,0-6.9,0-10.3c0-1.6-1.3-2.8-2.8-2.8
		c-1.5,0-2.9,1-3,2.5c-0.1,3.5,0,7,0,10.6C134.9,18.9,136.8,18.9,138.8,18.9z"/>
	<path class="st1" d="M115.5,96.3c-0.3,1.1-0.8,3.3-1.6,5.4c-0.9,2.5-2.1,4.8-2.1,7.5c0,1.2-1.1,2.1-2.2,2c-1.2,0-2-1-2.1-2.3
		c-0.1-2.7,0.8-5.3,1.9-7.7c1.2-2.5,2.2-5.1,1.5-7.9c-0.4-1.7-1.1-3.4-1.9-5.1c-0.7-1.5-0.6-2.7,0.5-3.4c1.1-0.7,2.3-0.3,3.2,1
		C114.5,88.7,115.3,91.8,115.5,96.3z"/>
	<path class="st1" d="M130.9,102.1c-0.5,1.9-0.9,4-1.7,6c-1,2.5-2.3,4.9-2.3,7.8c0,1.2-1.1,2-2.2,2c-1.1-0.1-2-1-2-2.2
		c-0.1-2.5,0.7-4.9,1.7-7.2c1.2-2.5,2.3-5.1,1.8-8c-0.2-1-0.5-2-0.7-3.1c-0.4-1.5,0.1-2.6,1.3-3c1.1-0.4,2.4,0.2,2.8,1.6
		C130,97.9,130.4,99.8,130.9,102.1z"/>
	<path class="st1" d="M26,94c0.1-2.1,0.9-5.2,2.6-8c0.9-1.4,2.1-1.8,3.2-1.1c1.1,0.7,1.3,1.9,0.4,3.4c-2.3,3.8-2.7,7.8-0.7,11.9
		c1.3,2.6,2.4,5.3,2.4,8.3c0,1.6-0.8,2.7-2.1,2.7c-1.3,0-1.9-1-2.2-2.5c-0.4-2-0.9-4.1-1.7-6C26.9,100.2,25.9,97.8,26,94z"/>
	<path class="st1" d="M10.5,101.8c0.4-1.9,0.8-3.9,1.4-5.8c0.4-1.4,1.6-2,2.8-1.6c1.2,0.4,1.8,1.6,1.3,2.9c-1.4,3.6-1,7.1,0.7,10.5
		c1.2,2.4,2,4.8,2,7.5c0,1.4-0.8,2.4-2,2.5c-1.2,0.1-2-0.9-2.3-2.3c-0.4-2-0.9-4.1-1.7-6C11.7,107,10.7,104.6,10.5,101.8z"/>
	<path class="st1" d="M79.8,86c-0.4,0.5-0.9,1.4-1.5,1.6c-0.7,0.2-1.6-0.2-2.3-0.4c-0.2,0-0.3-0.4-0.4-0.6c-1.9-4.1-7.7-4.1-9.8-0.1
		c-0.7,1.3-1.9,1.7-3,1c-1.1-0.6-1.4-1.8-0.8-3.1c1.8-3.5,4.7-5.3,8.7-5.3c4,0,6.8,1.9,8.6,5.4C79.5,84.9,79.6,85.3,79.8,86z"/>
	<path class="st1" d="M53.5,66.3c-1.4,0.1-2.5-0.1-3-1.3c-0.7-1.4,0.3-2.9,2-3c1.2-0.1,2.4-0.2,3.5-0.6c0.8-0.3,1.6-1,2.2-1.7
		c1-1.1,2-1.5,3.1-0.8c1,0.7,1.3,1.9,0.6,3.2c-1.7,2.9-4.5,3.9-7.7,4.3C53.8,66.4,53.5,66.3,53.5,66.3z"/>
	<path class="st1" d="M87.5,66.3c-2.8-0.2-5.8-1.1-7.8-4c-0.7-1-0.9-2,0-3c0.9-1,2.6-1,3.3,0.2c1.2,2,3.1,2.4,5.2,2.5
		c2,0.1,2.9,0.7,2.9,2.2C91.1,65.7,90.1,66.4,87.5,66.3z"/>
</g>
</svg>
