<?xml version="1.0" encoding="utf-8"?>
<!-- Generator: Adobe Illustrator 24.3.0, SVG Export Plug-In . SVG Version: 6.00 Build 0)  -->
<svg version="1.1" id="Layer_1" xmlns="http://www.w3.org/2000/svg" xmlns:xlink="http://www.w3.org/1999/xlink" x="0px" y="0px"
	 viewBox="0 0 150 150" style="enable-background:new 0 0 150 150;" xml:space="preserve">
<style type="text/css">
	.st0{fill:#5F6368;}
	.st1{fill:#005BAB;}
</style>
<path class="st0" d="M2053.7-657.2c-2.1,0-3.6,0-5.1,0C2049.8-661.3,2051.5-660.2,2053.7-657.2z"/>
<g>
	<path class="st1" d="M149.4,134c-0.2,0.4-0.3,0.9-0.5,1.3c-1.3,3.8-4.7,6.4-8.8,6.5c-0.3,0-0.7,0-1,0c-42.8,0-85.6,0-128.4,0
		c-5.2,0-9-2.9-10-7.5c-0.9-4.3,1.2-8.6,5.2-10.5c0.9-0.4,1.3-0.8,1.4-1.9c2.1-15,12.1-26.2,26.5-29.4c6.5-1.5,12.9-1,19.1,1.4
		c0.9,0.4,1.4,0.2,2.1-0.5c1.5-1.7,3.2-3.2,4.7-4.9c0.4-0.4,0.7-1.1,0.7-1.7c0-6.2,0-12.3,0-18.5c0-1.8,1.3-2.8,3.2-2.8
		c2.2,0,4.5,0,6.7,0c0.5,0,1,0,1.6,0c0-13.4,0-26.6,0-39.9c-1,0-1.9,0-2.9,0c-4.8-0.1-8.5-3.8-8.6-8.6c0-1.9,0-3.8,0-5.7
		c0-2,1.2-3.1,3.2-3.2c7.6,0,15.1,0,22.7,0c2,0,3.2,1.1,3.2,3.1c0,1.9,0,3.8,0,5.7c-0.1,4.8-3.8,8.5-8.6,8.6c-0.9,0-1.8,0-2.9,0
		c0,13.3,0,26.5,0,39.9c2.5,0,5,0,7.5,0c3.1,0,4,0.9,4,4c0,2.1,0,4.2,0,6.2c3.6,0.2,7.2,0.5,10.7,0.7c1,0.1,1.9,0.3,2.9,0.5
		c1.7,0.4,2.7,1.8,2.4,3.3c-0.3,1.6-1.6,2.6-3.4,2.4c-2.8-0.3-5.7-0.9-8.5-0.9c-13.2,0-24.3,4.9-33.3,14.6c-0.2,0.2-0.4,0.5-0.5,0.6
		c2.5,2.3,5,4.4,7.2,6.8c4.3,4.8,6.8,10.5,7.8,16.9c0.1,1,0.6,1.3,1.5,1.4c3.3,0.3,6.7,0.8,10,0.8c16.5,0.1,33,0,49.4,0
		c0.4,0,0.8,0,1.5,0c-0.4-2.3-0.6-4.5-1-6.6c-1.8-8.2-5.7-15.4-11.6-21.4c-0.3-0.3-0.6-0.5-0.8-0.8c-1.2-1.3-1.2-3-0.1-4.2
		c1.2-1.2,3-1.3,4.1,0.1c2.6,3.1,5.4,6.1,7.6,9.5c4.6,6.9,6.8,14.6,7.5,22.8c0,0.4,0.2,1.1,0.5,1.2c3.4,1.3,5.2,4,6.2,7.4
		C149.4,131.9,149.4,133,149.4,134z M74.9,136.1c21.2,0,42.4,0,63.7,0c0.5,0,1.1,0,1.6,0c2-0.2,3.4-1.8,3.4-3.7
		c0-1.9-1.5-3.4-3.5-3.6c-0.6,0-1.2,0-1.7,0c-17.3,0-34.6,0-51.9,0c-6.7,0-13.3-0.9-19.7-3c-4.8-1.6-9.5-3.4-14.3-4.9
		c-4.7-1.4-9.5-2.1-14.2,0c-2.3,1-4.6,2.4-6.7,3.7c-4.7,2.9-9.8,4.5-15.4,4.2c-2.1-0.1-4.2-0.1-6.2,0c-2,0.1-3.5,1.7-3.5,3.6
		c0,1.9,1.5,3.5,3.4,3.7c0.5,0,1.1,0,1.6,0C32.6,136.1,53.7,136.1,74.9,136.1z M13.3,122.8c4.5,0.3,8.9,0.3,13-2.1
		c2.1-1.2,4.2-2.4,6.3-3.6c4.6-2.7,9.5-3.9,14.9-3.2c4.2,0.5,8.2,1.7,12.2,3.1c2.9,1.1,5.9,2.1,8.9,3.2c-1-9.2-10.9-22.4-27.2-22.6
		C25.1,97.5,13.9,110.9,13.3,122.8z M83.7,71.4c-5.9,0-11.6,0-17.4,0c0,4.1,0,8,0,11.9c0.1,0,0.2,0.1,0.2,0.1
		c5.2-3,10.6-5.3,16.5-6.5c0.3-0.1,0.6-0.6,0.7-0.9C83.8,74.5,83.7,73,83.7,71.4z M83.6,14c-5.8,0-11.5,0-17.3,0c0,0.8,0,1.5,0,2.1
		c0,2.6,1,3.6,3.6,3.6c2.9,0,5.7-0.1,8.6,0c5.2,0.2,5.4-1.5,5.2-5.5C83.7,14.2,83.7,14.2,83.6,14z"/>
	<path class="st1" d="M117.8,84.2c0,1.6-1.2,2.9-2.8,2.9c-1.6,0-3-1.4-3-3c0-1.6,1.3-2.8,2.9-2.8C116.5,81.4,117.8,82.6,117.8,84.2z
		"/>
	<path class="st1" d="M91.1,94.2c1.5,0,2.9,1.3,2.9,2.8c0,1.6-1.2,2.9-2.8,3c-1.7,0.1-3-1.2-3-2.9C88.3,95.5,89.6,94.2,91.1,94.2z"
		/>
	<path class="st1" d="M112.2,113.7c-1.6,0-2.9-1.2-2.9-2.8c0-1.7,1.3-3,2.9-3c1.6,0,2.9,1.3,2.9,2.9
		C115,112.4,113.8,113.7,112.2,113.7z"/>
	<path class="st1" d="M34.3,104.1c1.6,0,2.8,1.3,2.8,2.9c0,1.6-1.4,2.9-3,2.9c-1.6-0.1-2.9-1.5-2.8-3.1
		C31.5,105.2,32.8,104,34.3,104.1z"/>
</g>
</svg>
