<?xml version="1.0" encoding="utf-8"?>
<!-- Generator: Adobe Illustrator 24.3.0, SVG Export Plug-In . SVG Version: 6.00 Build 0)  -->
<svg version="1.1" id="Layer_1" xmlns="http://www.w3.org/2000/svg" xmlns:xlink="http://www.w3.org/1999/xlink" x="0px" y="0px"
	 viewBox="0 0 150 150" style="enable-background:new 0 0 150 150;" xml:space="preserve">
<style type="text/css">
	.st0{fill:#5F6368;}
	.st1{fill:#005BAB;}
</style>
<path class="st0" d="M2053.7-657.2c-2.1,0-3.6,0-5.1,0C2049.8-661.3,2051.5-660.2,2053.7-657.2z"/>
<g>
	<path class="st1" d="M27.6,129.8c-0.7,2-2.2,2.7-4.1,2.7c-6.2,0-12.5,0-18.7,0c-3,0-4.2-1.2-4.2-4.3c0-19.7,0-39.4,0-59.1
		c0-3,1.2-4.2,4.2-4.3c6.2,0,12.5,0,18.7,0c3,0,4.2,1.2,4.3,4.2c0,0.8,0,1.6,0,2.4c0.6,0,1.1,0,1.5,0c-0.5-2.6-1.3-5.2-1.5-7.9
		c-1-14.4,9.2-27,23.5-29c1.3-0.2,2.7-0.2,4.1-0.1c1,0.1,1.5-0.3,1.9-1.2c4.2-8.6,11-13.8,20.4-15.4c11.8-2,23.8,4.4,28.7,15.4
		c0.5,1.1,1,1.4,2.2,1.2c8.7-1.1,17.9,4.2,21.7,12.3c0.5,1,1.1,1.5,2.2,1.7c14.9,3.5,21.7,20.4,13.4,33.3c-0.3,0.5-0.6,1.3-0.4,1.8
		c1.7,6.7,0.1,12.4-4.8,17.2c-0.1,0.1-0.3,0.3-0.5,0.5c1.8,3.6,2.6,7.4,2.5,11.5c-0.5,17.1-18.5,28-33.9,20.5c-1.4-0.7-2.8-1-4.4-1
		c-6.2,0.1-12.4,0-18.5,0c-1,0-1.7,0.2-2.4,1.1c-1.2,1.6-3,2.3-5,2.4c-1.8,0-3.8,0.3-5.5,0c-4.6-0.9-9.2,0.4-13.9,0
		c-0.1,0-0.2,0-0.3,0c-4.6-1.1-9.1,0.4-13.7,0.1c-2.6-0.2-4.7-1-6.2-3.2c-0.3-0.4-0.9-0.8-1.4-0.9C34.3,131,31,130.4,27.6,129.8z
		 M113.8,128.4c2,0.2,4,0.7,5.9,0.6c13.5-0.8,20.6-14.9,13.4-26.3c-1.4-2.2-1-4,1.1-5.4c4.6-3,6.3-8,4.2-13.1
		c-0.7-1.7-0.5-3.1,0.7-4.5c3.8-4.7,4.7-9.9,2.5-15.4c-2.2-5.5-6.4-8.7-12.3-9.4c-2.4-0.3-3.6-1.3-4.4-3.6
		c-2.7-8.1-11.7-11.5-17.7-9.7c-3.7,1.1-4.9,0.3-6.1-3.4c-2.5-8.2-9.5-13.4-18.5-13.8c-8.3-0.4-16,4.3-19.2,11.9
		c-0.7,1.6-1.3,3.1-1.9,4.7c0.6,0,1.3,0,2,0.1c6.6,0.9,10.9,7,9.5,13.6c-1,4.4-1.9,8.8-3,13.5c1,0,1.8,0,2.6,0c2.2,0,4.4,0,6.6,0.1
		c2.2,0.1,4.2,0.9,5.9,2.3c0.6,0.5,1.5,0.8,2.2,0.8c6,0.1,11.9,0,17.9,0c4.7,0,8.8,2.9,9.9,7.4c0.5,1.9,0.3,4,0.4,6.2
		c6-0.6,11.3,0.9,13.3,7.8c0.6,2.1,0.3,4.2-0.5,6.2c-1.3,3-3.6,4.8-6.6,5.9c1.4,7-0.2,10.2-6.8,13.6
		C116,123,115.9,124.1,113.8,128.4z M81.5,101.7c-5.8,0.9-9.4-1.1-11.6-6.5c-2.5-5.9-5-11.8-7.6-17.7c-0.7-1.6-0.8-3.2-0.4-4.9
		c1.5-6.6,2.9-13.2,4.4-19.8c0.4-2.1-0.6-3.8-2.5-4.5c-2.1-0.8-3.9-0.2-5.3,1.9c-5.7,8.6-11.5,17.2-17.2,25.8
		c-1,1.6-2.3,2.4-4.2,2.3c-1.7-0.1-3.4,0-5.1,0c-1.3,0-2.7,0-4.1,0c0,6.3,0,12.2,0,18.2c0,8.2,0,16.5,0,24.7c0,0.5,0.3,1.5,0.6,1.6
		c3,0.7,6,1.3,9.4,1.9c0-2.2-0.1-4.2,0-6.2c0.3-6.7,7.1-11.5,13.5-9.4c1.2,0.4,2.3,1.7,3.5,1.7c1.2,0,2.4-1.3,3.6-1.7
		c3.6-1.1,7-0.5,9.9,1.9c6.1-3.7,9.5-3.4,14.8,1.2c1.4-0.1,2.7-0.4,3.9-0.4c8.3,0,16.6,0,24.9,0c1.6,0,2.9-0.5,3.5-2.1
		c0.8-2.4-0.7-4.5-3.5-4.5c-8.4,0-16.8,0-25.2,0C83.2,105.4,82.5,104.9,81.5,101.7z M20.6,125.4c0-0.5,0.1-0.8,0.1-1.1
		c0-17.1,0-34.1,0-51.2c0-1.2-0.4-1.4-1.5-1.4c-3.3,0-6.6,0.1-9.8,0c-1.4,0-1.9,0.4-1.9,1.9c0.1,16.7,0,33.4,0,50.1
		c0,0.6,0.1,1.1,0.1,1.8C12,125.4,16.2,125.4,20.6,125.4z M36.8,70.2c0.3-0.5,0.7-0.9,1-1.4c4.2-6.4,8.5-12.7,12.7-19.1
		c2.1-3.2,3.9-6.7,8.2-8.1c-8-2-16.3,1.6-20.9,8.8C33.8,56.6,33.3,65.7,36.8,70.2z M87,98.4c0.4,0,0.9,0.1,1.4,0.1
		c9.9,0,19.9,0,29.8,0c0.5,0,0.9,0,1.4-0.1c1.5-0.2,2.3-1.2,2.6-2.6c0.5-2.3-1.1-3.9-3.9-3.9c-9.3,0-18.7,0-28,0
		c-0.5,0-1,0.1-1.2,0.1C88.4,94.3,87.7,96.2,87,98.4z M69,75c0,0.3,0,0.4,0,0.5c2.6,6.1,5.1,12.1,7.8,18.1c0.5,1.2,1.6,1.7,2.9,1.3
		c1.4-0.3,2-1.2,2-2.6c0-4.6,0-9.2,0-13.8c0-2.2-1.3-3.5-3.5-3.6C75.1,74.9,72.1,75,69,75z M85.3,125.5c6.9,0,13.7,0,20.5,0
		c1.6,0,2.6-1.2,2.8-2.7c0.3-2.3-1-3.8-3.3-3.8c-6.1,0-12.2,0-18.2,0c-0.6,0-1.1,0-1.8,0C85.3,121.2,85.3,123.3,85.3,125.5z
		 M88.8,85c3.5,0,6.9,0,10.3,0c2.2,0,4.4,0.1,6.6,0c1.9-0.1,3-1.4,3-3.4c0-1.9-1.1-3.1-3-3.2c-5.5,0-11,0-16.4,0
		c-0.1,0-0.3,0.1-0.5,0.2C88.8,80.7,88.8,82.7,88.8,85z M44.7,128.8c1.9,0,3.6,0,5.2,0c1.1,0,1.3-0.4,1.3-1.4c0-2.8,0-5.6,0-8.4
		c0-2-1.4-3.4-3.2-3.5c-1.7-0.1-3.3,1.4-3.3,3.3C44.6,122.1,44.7,125.3,44.7,128.8z M64.8,128.8c0-0.8,0-1.3,0-1.8
		c0-2.8,0-5.6,0-8.4c0-0.4-0.1-0.7-0.3-1.1c-0.5-1.3-2-2.2-3.3-2c-1.5,0.2-2.8,1.4-2.9,2.9c-0.1,3.1-0.1,6.2,0,9.3
		c0,0.3,0.5,0.9,0.9,0.9C61,128.9,62.8,128.8,64.8,128.8z M71.9,123.2c0,6,0,6,5.1,5.6c0.1,0,0.1,0,0.2,0c0.4-0.4,1.1-0.7,1.1-1.1
		c0.1-3,0.1-6,0-9c-0.1-1.8-1.5-3.1-3.2-3.1c-1.7,0-3.1,1.3-3.2,3.1C71.8,120.2,71.9,121.7,71.9,123.2z"/>
	<path class="st1" d="M132.5,24.2c0,5.7-4.3,10-10.1,10c-5.8,0-10.2-4.4-10.2-10.1c0.1-5.7,4.4-10,10.1-10
		C128.2,14.1,132.5,18.4,132.5,24.2z M122.4,27.4c1.9,0,3.3-1.4,3.3-3.3c0-2-1.5-3.3-3.5-3.2c-2,0.1-3.2,1.4-3.2,3.3
		C119.1,26.2,120.5,27.5,122.4,27.4z"/>
</g>
</svg>
