<?xml version="1.0" encoding="utf-8"?>
<!-- Generator: Adobe Illustrator 24.3.0, SVG Export Plug-In . SVG Version: 6.00 Build 0)  -->
<svg version="1.1" id="Layer_1" xmlns="http://www.w3.org/2000/svg" xmlns:xlink="http://www.w3.org/1999/xlink" x="0px" y="0px"
	 viewBox="0 0 150 150" style="enable-background:new 0 0 150 150;" xml:space="preserve">
<style type="text/css">
	.st0{fill:#005BAB;}
</style>
<g>
	<path class="st0" d="M1301.8-131.9c8.1,16.8,16.8,33.3,19.5,52.1c3.1,21.4-3.3,40.5-15,58.1c-1.5,2.3-3.6,3.1-6,1.6
		c-2.2-1.4-2.1-3.7-0.8-5.7c3.9-6.2,7.4-12.6,10.1-19.5c2.1-5.5,3.2-11.2,4-17c0.3-2.2,0.1-3.5-2.8-3.2
		c-16.1,1.6-31.5,5.2-45.1,14.6c-4.4,3-7.2,6.4-6.5,12.3c0.6,4.8,0.1,9.6,0.1,14.5c0,2.6-1,4.7-4,4.7c-3,0-3.9-2.1-4-4.7
		c0-5.5-0.3-11,0-16.5c0.2-3.8-1.3-6.4-4.1-8.5c-14.2-10.8-30.7-14.8-48-16.3c-3.3-0.3-2.4,2.1-2.2,3.7c1.2,11.3,5.3,21.6,11.1,31.3
		c0.9,1.6,1.9,3.1,2.8,4.7c1.2,2.1,1.4,4.3-0.8,5.7c-2.3,1.4-4.4,0.8-6-1.6c-3.1-4.6-5.7-9.4-8.1-14.3c-11.3-23.7-9.2-47.2,0.9-70.6
		c3.6-8.2,7.5-16.3,11.3-24.4c3,3.6,2.9,7.9,2.7,12.3c-3.4,8.3-7.4,16.4-10.2,24.9c-1.1,3.4-0.9,5,3.1,5.8
		c34.2,7.4,68.4,7.4,102.6,0c3.6-0.8,4.5-1.9,3.3-5.7c-3-8.8-7.2-17.2-10.5-25.9C1298.8-123.9,1299.2-128.1,1301.8-131.9z
		 M1255.4-53c0.9-0.7,1.6-1.2,2.4-1.9c6.4-5.4,13.7-9.4,21.6-12.1c9.9-3.5,20.2-5.6,30.6-6.6c3-0.3,4-1.5,3.4-4.5
		c-0.6-3-2.1-3.2-4.7-2.4c-3,0.9-6.1,1.4-9.2,2c-33,6-65.9,5.5-98.5-2.2c-2.4-0.6-3.2,0.2-3.9,2.4c-1.2,3.9,0.9,4.5,4,4.9
		c19,2.3,37.4,6.3,52.5,19.3C1254.1-53.7,1254.7-53.4,1255.4-53z"/>
	<path class="st0" d="M1301.8-131.9c-2.6,3.8-3,8-2.5,12.4c-3.5,2.2-3,6.1-3.6,9.3c-0.8,4.5-2.6,4.6-5.9,2.7c-3.9-2.2-8-4-11.9-6.2
		c-2.9-1.7-4.5-0.9-5.6,2.1c-1.9,5.3-4,10.5-6,15.7c-5.4-1.2-2.1-5.7-3.3-8.5c0-1.1,0-2.3,0-3.4c0.1-7.3,0.1-14.5,0.2-21.8
		c0-2.4-0.4-5.1,2.3-6.6c4.3,3,8.7,6,12.9,9.1c2.9,2.1,3.9,1.2,4.4-2c1.2-7.1,0.6-14.5,2.8-21.5c3.9-0.1,7.1,1.7,10.4,3.5
		c0.8,0.8,1.5,1.8,2.5,2.3c3.5,1.6,4.3,4.1,3,7.6C1300.9-135.4,1301.4-133.7,1301.8-131.9z"/>
	<path class="st0" d="M1241.3-105.1c-0.3-1.1-0.6-2.1-0.9-3.2c0-2.8-0.2-6.7-3.3-6.3c-3.6,0.4-8.2,0.5-10.4,4.9
		c-0.9,0.5-1.8,1-2.7,1.5c-3.9,0.8-8.5,3.8-9.9-3.4c-1.3-6.6-2.6-13.2-4.6-19.5c-2.7-8.7,0.2-14.5,7.8-19c4.3-2.5,7.4-1.3,8.1,3.6
		c0.4,2.6-1.2,5.4,1,7.7c0.2,1.2,0.4,2.4,0.6,3.6c-1.1,2-0.3,4.1-0.4,6.2c-0.1,1.9,0.7,3.8,2.5,4.2c1.8,0.3,3.8-0.4,4.3-2.8
		c0.7-0.4,1.3-0.9,2-1.3c1.5,0.3,2.3-0.3,2.4-1.9c1.2-0.8,2.4-1.7,3.6-2.5c0.7,0,1.5,0.3,2.1,0.1c5.8-2.3,5.9-2.3,5.9,4.2
		c0,8.7,0,17.4,0,26.1c0,2.9-0.1,5.9-2.4,8.5c-2.3-2.6-0.4-7.2-4.6-8.2C1241.8-103.5,1241.5-104.4,1241.3-105.1
		C1241.2-105.2,1241.3-105.1,1241.3-105.1z"/>
	<path class="st0" d="M1296.1-147.1c-3.2-1.8-6.5-3.5-10.4-3.5c0.9-2,0.9-4.1,0.7-6.3c-0.9-8.3,0.5-16.2,4-23.7
		c1.1-2.5,2.8-4.4,5.7-3.4c3.2,1.2,2.9,4,1.7,6.3C1293-167.7,1293.7-157.4,1296.1-147.1z"/>
	<path class="st0" d="M1215.2-149.1c1.8-10,2-19.7-2.6-29.1c-1.1-2.2-0.8-4.8,2.1-5.7c2.7-0.9,4.3,0.6,5.4,3
		c4.1,9,5.7,18.3,3.6,28.1C1221.4-150.6,1218.2-150.1,1215.2-149.1z"/>
	<path class="st0" d="M1240.2-106.6C1240.2-106.6,1240.2-106.7,1240.2-106.6C1240.2-106.7,1240.2-106.6,1240.2-106.6z"/>
</g>
<g>
	<path class="st0" d="M9.2,67.9c0.6-4.1,2.1-7.9,5.9-11.4c-3.3,0.4-4.7-1.1-5.7-3.3c-1-2.1-1.3-4.3-0.9-6.6c1-4.8,3.7-8.6,8.1-10.9
		c13.2-6.7,26.5-6.2,39.3,1c6.4,3.6,9.2,9.7,9.4,16.7c0.2,7,1.2,13.5,4.4,20c4.2,8.4,3.9,17.8,3.8,27c0,3.4-1.8,6.1-4.6,8.1
		c-1.8,1.3-2.5,2.9-2.8,5.1c-0.9,7.2-3.6,14.1-3.4,21.5c0,1.1-0.6,1.9-1.7,1.9c-1.3,0-1.8-1-1.9-2.1c-0.2-3,0.5-5.9,0.9-8.9
		c0.5-3.1,1.1-6.1,1.9-9.1c2-7.7,1.7-15.4-0.7-22.9c-1.5-4.6-2.2-9.2-1.8-14.1c0.4-4.4-0.7-8.1-4.2-11.2c-4.1-3.5-5.5-8.2-4.6-13.6
		c0.3-1.5,0.6-3,0.9-4.6c0.2-0.9,0.7-2.1-0.3-2.6c-1.2-0.6-1.5,0.8-2.1,1.4c-2.2,2.7-3.1,5.9-3.4,9.3c-0.2,2.5-0.4,5-0.2,7.5
		c1,12.7-11.6,20.7-23.9,17.1c-1.4-0.4-2.7-0.9-3.9-1.7c-3.3-2.1-6.3-4.6-9.2-7c-3.6-3-5.4-7.8-6.4-12.5c-4.3-19.8,7.3-35.7,27.5-38
		c7.8-0.9,15.1,0.3,22.5,2.8c16.6,5.7,33,5,49.4-1c13.9-5.1,31.6-1.2,40.7,9c7.5,8.4,9.3,23.4,3.8,33.2c-2.2,4-4.7,7.9-7.1,11.8
		c-0.6,0.9-1.3,1.7-2.2,2.4c-2.9,2.2-16.7,3.6-19.9,1.9c-1.4-0.8-2.8-1-4.4-1.1c-4.8-0.1-8.1-3.3-8.4-8c-0.1-1.5-0.4-2.6-1.3-3.9
		c-2.5-3.3-2.3-6.4,0.4-9.8c2.2-2.7-0.1-12.1-3.2-13.3c-1.5-0.6-1.5,0.7-1.4,1.6c0.3,2,0.8,4,1.1,6c0.9,5.2-0.7,9.8-4.6,13.2
		c-3.2,2.8-4.5,6.2-4.2,10.2c0.4,5.7-0.4,11.2-2.2,16.5c-2.7,8.4-1.6,16.7,0.3,25.1c1,4.3,1.9,8.6,2.1,13c0.1,1.5,0.4,3.5-2,3.5
		c-2.1,0-1.7-1.9-1.8-3.3c-0.1-7.5-2.8-14.5-3.7-21.8c-0.2-1.6-1.8-2.5-2.9-3.5c-3.1-2.8-4.2-6.1-4.1-10.2c0.3-10.8,1-21.4,6.4-31.2
		c2.1-3.8,1.3-8.4,1.5-12.7c0.4-9.8,5.3-16.6,14.5-20.2c2.7-1,5.4-1.9,8.2-2.3c7.9-1.2,15.7-0.9,23.2,2.3c5.4,2.3,9.4,6,10.9,12
		c0.4,1.7,0.8,3.5,0,4.9c-1.6,2.9-1.2,5.5,0.1,8.4c0.5,1.1,0.7,2.5,2,2.6c1.6,0.1,1.5-1.6,1.7-2.7c2.4-13.2-3.9-24.7-16.4-29.5
		c-8.8-3.4-17.7-3.6-26.6-0.4c-18.1,6.5-36.1,6.3-54.3,0c-11.7-4.1-23.2-2.9-33.4,4.5C4.4,41.1,1.4,56.3,7.5,66.8
		C7.8,67.3,8.2,67.8,9.2,67.9z M66.9,105.2c2.1-1,3-2.6,3-4.4c0.2-8.4,0.6-17-3-24.6c-3.6-7.6-5-15.3-5.2-23.4
		c-0.2-5.6-2.8-10.1-7.8-12.9c-11-6.2-22.5-6.5-34-1.6c-3.9,1.6-6.6,4.7-7.6,8.9c-0.8,3.4,0.3,5,3.6,5.9c1.6,0.4,3.2,1,3.8,2.8
		c0.7,2-1.1,2.7-2.2,3.6c-4.7,4.1-5.7,10.3-2.5,15.1c3.4,5,10.8,7.3,17.3,5.4c5.9-1.8,9.4-6.5,9.5-13.1c0-1.8,0-3.6,0-5.4
		c0-5,1.1-9.8,4.1-13.8c1.7-2.3,0.5-3.5-0.9-4.8c-0.7-0.6-1.7-0.9-2.5-1.4c-0.8-0.5-1.3-1.2-0.9-2.1c0.4-0.9,1.2-1.4,2-1.1
		c1.8,0.7,4.1,0.6,5,3c0.5,1.3,1.5,2.3,2.8,2.6c4.7,1.1,4.7,4.2,3.4,7.9C52.6,58,53.7,63.3,59,67.8c2.3,2,4,4.8,3.7,7.9
		C61.5,85.8,65.8,95,66.9,105.2z M130,80.8c3.1-0.3,5.6-1.4,6.1-3.8c0.7-3.2,1.3-6,4.5-7.7c0.3-0.2,0.5-0.8,0.5-1.3
		c0.1-3.9-4.6-5.7-4.4-9.8c0.1-1.2-1.6-1.9-2.9-2.2c-0.3-0.1-0.7-0.2-1-0.2c-1.4,0-2.3-0.6-2.7-1.9c-0.3-0.9-1.1-2.2-1.8-2
		c-4.3,1.1-8.7-1.2-12.8,0.7c-1,0.5-1.9,0.8-3,0.9c-3.8,0.3-5.2,2.3-3.7,5.7c0.8,1.9,0.6,2.9-1.3,3.6c-1.5,0.5-3.2,1.7-2.6,2.9
		c2,4.1,1.5,9.8,4.9,12.5c2.9,2.4,8,3.3,11.9,3C124.6,80.9,127.4,79.1,130,80.8z M83.1,105.3c0.3-3.8,0.6-7,1.6-10
		c1.8-5.2,2.8-10.6,2.4-16.1c-0.4-5.1,1.2-9.3,5.1-12.7c3.4-3.1,4.9-6.9,3.5-11.6c-0.6-1.9-0.9-4-1.3-5.9c-0.2-1.1-0.6-2.6,0.4-3
		c3.5-1.4,5.9-4,8.6-6.5c0.6-0.6,1.8-0.7,2.7-0.9c1-0.2,2,0.1,2.3,1.2c0.3,0.9-0.4,1.5-1.1,2c-4.7,3.5-4.7,3.5-1.8,8.3
		c0.4,0.7,0.5,2.1,1.9,1.4c1.4-0.6,1-1.5,0.5-2.6c-0.7-1.3-2.1-3-0.1-4c2.3-1.2,2.6,1.3,3.4,2.6c1,1.6,1.6,2.1,3.8,1.4
		c4.6-1.5,9.4-0.5,14.2-0.4c1.3,0,2.4,1.1,3.1,2.2c1,1.6,2.4,2.7,4.1,1.9c1.6-0.8,1.7-2.7,1.5-4.5c-0.7-4.7-3.5-7.8-7.6-9.8
		c-7.7-3.7-15.8-4.2-24.1-2.3c-13.4,3.1-17.6,8.2-18.2,22c-0.2,3.8,0,7.8-1.9,11.2c-5.4,9.7-5.9,20.2-5.9,30.9
		C80.1,102.1,80.7,103.8,83.1,105.3z"/>
	<path class="st0" d="M95.7,20.7c0,0.6-0.1,1.2-0.7,1.5c-1.1,0.6-2,0.1-2.9-0.5c-6.5-4.6-13.7-5.7-21.4-4.9
		c-5.3,0.6-10.1,2.5-14.3,6c-1.1,0.9-2.2,2.4-3.6,0.8C51.5,22.1,52.9,21,54,20c9.9-8.9,29.6-9.6,40-1.5
		C94.7,19.1,95.6,19.6,95.7,20.7z"/>
	<path class="st0" d="M27.8,56.3c-0.4,0-0.7,0-1.1,0c-1.3,0-2.9,0.1-3-1.7c-0.1-1.9,1.5-1.8,2.8-1.9c1.1-0.1,2.1,0,3.2-0.1
		c4.1-0.4,7.5-1.9,9.4-5.9c0.6-1.2,1.2-3,3.1-1.9c1.8,1,0.6,2.5,0,3.7C39.3,54.4,34,56.2,27.8,56.3z"/>
</g>
</svg>
