<?xml version="1.0" encoding="utf-8"?>
<!-- Generator: Adobe Illustrator 24.3.0, SVG Export Plug-In . SVG Version: 6.00 Build 0)  -->
<svg version="1.1" id="Layer_1" xmlns="http://www.w3.org/2000/svg" xmlns:xlink="http://www.w3.org/1999/xlink" x="0px" y="0px"
	 viewBox="0 0 150 150" style="enable-background:new 0 0 150 150;" xml:space="preserve">
<style type="text/css">
	.st0{fill:#CDEEFD;}
	.st1{fill:#111224;}
	.st2{fill:#005BAB;}
</style>
<path class="st0" d="M1465.3,1556.3c-2.4-0.2-4.3-1.3-4.4-4.1c-0.1-6.7,1.6-10,4.9-9.9c0.2,0,0.3,0,0.5,0c2.2,0.5,4.3,2.1,3.2,4
	C1467.7,1549.5,1473.1,1555.7,1465.3,1556.3z M1465.5,1554.4c1.3-0.1,2.3-0.6,2.3-2.1c-0.1-1.7-1.5-2.1-2.8-2.4c-1.6-0.4-2,0.8-2,2
	C1463,1553.5,1464,1554.2,1465.5,1554.4z M1467.8,1546.5c0-1.4-0.6-2.2-2.1-2.2c-0.9,0-1.6,0.4-1.7,1.4c-0.2,1.4,0.9,2.1,2,2.5
	C1467.3,1548.5,1467.6,1547.5,1467.8,1546.5z"/>
<path class="st0" d="M1455.8,1556.6c-0.5-2.9-1.8-4.2-4.6-3.6c-0.7,0.2-1.7,0.3-2.1-0.8c-0.4-1.1,0.1-1.5,1.2-2.1
	c2.1-1.2,2.1-3.9,3.2-5.8c0.6-1,1-2.2,2.5-1.9c1.4,0.3,0.9,1.6,0.8,2.5C1456.4,1548.6,1458.4,1552.5,1455.8,1556.6z"/>
<path class="st1" d="M1465.5,1554.4c-1.5-0.1-2.6-0.8-2.5-2.4c0-1.2,0.4-2.4,2-2c1.2,0.3,2.7,0.7,2.8,2.4
	C1467.8,1553.7,1466.8,1554.2,1465.5,1554.4z"/>
<path class="st1" d="M1467.8,1546.5c-0.2,1-0.5,2.1-1.8,1.7c-1.1-0.4-2.1-1-2-2.5c0.1-1,0.8-1.4,1.7-1.4
	C1467.2,1544.3,1467.8,1545,1467.8,1546.5z"/>
<polygon class="st2" points="1346.8,29.4 1346.9,29.6 1346.6,29.6 "/>
<g>
	<path class="st2" d="M84,149.4c-3-1-6-1.7-8.9-3c-3.3-1.5-5.9-4.1-7.9-7.1c-0.6-1-1.3-1.3-2.5-1.3c-14.8,0-29.7,0-44.5,0
		c-6.2,0-10.9-2.7-13.7-8.3c-0.8-1.5-1-3.3-1.4-5c-0.2-0.8-0.1-1.6-0.1-2.5c0-17.9,0-35.8,0-53.8c0-4.2,1.1-7.8,3.7-11
		c4.4-5.7,8.7-11.5,13-17.3c0.5-0.6,0.7-1.6,0.8-2.4c0.1-1.9,0-3.9,0.1-5.8c0-0.8-0.3-1.2-1-1.5c-3.1-1.6-4.8-4.2-4.8-7.7
		c-0.1-4.5-0.1-9,0-13.5c0.1-5.1,3.8-8.6,8.9-8.7c17.3,0,34.6,0,51.9,0c5.2,0,8.9,3.6,9,9c0.1,4.3,0.1,8.6,0,12.9
		c-0.1,3.6-1.7,6.3-4.9,8c-0.4,0.2-0.6,0.8-0.9,1.3c0,0.1,0,0.2,0,0.3C80,37,81.5,41,84.8,44.7c3.6,4.1,6.5,8.6,9.8,12.9
		c2.4,3.2,3.6,6.7,3.5,10.7c0,7.4,0,14.8,0,22.2c0,0.5,0,1.1,0,1.8c0.6-0.3,1.1-0.6,1.5-0.8c3.9-2.2,7.7-4.6,11.6-6.6
		c13.7-7,30.8,1.7,33.2,16.9c1.6,9.9-2.7,19-11.5,24.1c-11.6,6.8-23.2,13.4-34.8,20.1c-3,1.7-6.2,2.6-9.6,3.2
		C87.1,149.4,85.6,149.4,84,149.4z M11.1,114.8c0.4,0,0.6,0,0.9,0c17.7,0,35.4,0,53.1,0c0.6,0,1.4-0.5,1.7-1
		c1.8-2.7,3.9-5.2,6.8-6.9c5.9-3.5,11.8-7,17.8-10.4c0.9-0.5,1.2-1,1.2-2c0-7,0-14,0-20.9c0-0.5,0-0.9,0-1.4c-27.2,0-54.3,0-81.3,0
		C11.1,86.4,11.1,100.5,11.1,114.8z M10.6,66.2c27.6,0,54.6,0,81.6,0c-0.1-1.8-0.9-3.3-1.9-4.7c-4.4-5.9-8.8-11.8-13.2-17.7
		c-0.5-0.7-1.1-0.9-2-0.9c-4.5,0-8.9,0-13.4,0c-4.2,0-8.3,0-12.5,0c-2.2,0-3.5-1.4-3.3-3.3c0.2-1.6,1.4-2.5,3.5-2.5
		c7.9,0,15.9,0,23.8,0c0.5,0,1,0,1.6,0c0-2,0-3.8,0-5.7c-15.5,0-30.9,0-46.4,0c0,2.5,0,4.9,0,7.3c0,1.5-0.4,2.8-1.3,4
		c-4.7,6.2-9.4,12.4-13.9,18.6C12.2,62.8,11.6,64.4,10.6,66.2z M93.4,101.9c-5.7,3.3-11.4,6.4-16.8,9.9c-6,3.8-8.9,11.4-7.2,18.3
		c2.8,11.6,15.4,17,25.9,11.1c4.9-2.8,9.8-5.7,14.7-8.5c0.3-0.2,0.5-0.4,0.8-0.6C105,122,99.3,112,93.4,101.9z M51.8,6.4
		c-8.5,0-17.1,0-25.6,0c-2.5,0-3.5,1.1-3.6,3.5c0,4,0,7.9,0,11.9c0,2.7,1,3.7,3.8,3.7c16.8,0,33.6,0,50.4,0c2.8,0,3.9-1,3.9-3.8
		c0-3.8,0-7.6,0-11.3c0-3-1-4-4-4C68.4,6.4,60.1,6.4,51.8,6.4z M98.5,99.1c5.8,10.1,11.6,20,17.4,30.2c5.3-3.1,10.6-5.9,15.6-9.2
		c7.6-4.9,9.8-15.4,5.1-23.1c-4.7-7.9-14.7-10.9-22.7-6.7c-5.1,2.7-10,5.7-15,8.6C98.8,98.9,98.7,99,98.5,99.1z M63.5,120.7
		c-17.3,0-34.8,0-52.3,0c-1.2,7.7,3.9,11.7,9.8,11.6c13.7-0.2,27.4-0.1,41.1-0.1c0.6,0,1.1,0,1.4,0
		C63.5,128.4,63.5,124.6,63.5,120.7z"/>
	<path class="st2" d="M54.6,97.5c0,2.5,0,5,0,7.5c0,2.6-1,4.1-2.9,4.1c-1.9,0-2.9-1.4-2.9-4c0-2.5,0-4.9,0-7.6c-2.3,0-4.5,0-6.7,0
		c-0.7,0-1.4,0-2,0c-1.7-0.2-2.8-1.3-2.8-2.9c0-1.6,1.1-2.8,2.9-2.9c2.3-0.1,4.6,0,7,0c0.5,0,1,0,1.7,0c0-2.5,0-4.8,0-7.2
		c0-0.3,0-0.7,0-1c0.1-2.1,1.1-3.3,2.8-3.4c1.7,0,3,1.3,3,3.4c0,2.7,0,5.3,0,8.2c1.6,0,3.1,0,4.7,0c1.2,0,2.4,0,3.6,0
		c2,0,3.3,1.2,3.3,2.9c0,1.7-1.3,2.8-3.3,2.9c-2.2,0-4.5,0-6.7,0C55.7,97.4,55.2,97.4,54.6,97.5z"/>
	<path class="st2" d="M40,40.1c0,1.5-1.3,2.9-2.8,2.9c-1.5,0-2.9-1.3-2.9-2.8c0-1.6,1.3-2.9,2.8-2.9C38.6,37.2,40,38.5,40,40.1z"/>
</g>
</svg>
