<?xml version="1.0" encoding="utf-8"?>
<!-- Generator: Adobe Illustrator 24.3.0, SVG Export Plug-In . SVG Version: 6.00 Build 0)  -->
<svg version="1.1" id="Layer_1" xmlns="http://www.w3.org/2000/svg" xmlns:xlink="http://www.w3.org/1999/xlink" x="0px" y="0px"
	 viewBox="0 0 150 150" style="enable-background:new 0 0 150 150;" xml:space="preserve">
<style type="text/css">
	.st0{fill:#005BAB;}
</style>
<g>
	<path class="st0" d="M60.3,90.4c0.2,0.4,0.6,0.2,0.9,0.2c1.9-0.2,3.7,0.1,5.4,0.9c2.7,1.3,5.2,1.1,7.6-0.7c1.3-1,2.8-1.7,4.4-2.3
		c1.8-0.7,3.5-0.8,5.3-0.2c0.9,0.3,1.8,0.5,2.6,0.9c2.2,0.9,4.4,0.9,6.6,0.2c2.9-1,5.8-0.9,8.7,0.2c1.4,0.5,2.7,0.7,4.2,0.5
		c1.4-0.2,2.9-0.2,4.4,0.2c3.5,0.9,4.8,5.3,2.4,8c-0.9,1-2.1,1.7-3.4,2.2c-1.7,0.7-3.3,1.6-4.6,2.9c-2.7,2.7-6,3.9-9.8,3.7
		c-4-0.3-7.5,0.9-10.7,3.3c-0.8,0.6-1.7,1.2-2.6,1.8c-2,1.4-4.2,2.1-6.8,1.9c-2.8-0.2-3,0.1-1.8,2.6c0.9,1.8,1.1,3.7,0.3,5.8
		c3.8-0.9,7.4-1.6,10.7,0.8c0,0.9-0.6,0.9-1.2,1c0,0,0,0,0,0c0.1-0.3,0.4-0.6-0.2-0.8c-0.3-0.1-0.8-0.5-1,0.2
		c-2.4-0.8-4.7-0.5-7.1,0.1c-5.4,1.4-10.8,2.8-16.4,3c-5.5,0.2-9.7-2.2-12.4-6.9c-1.2-2.1-1.7-4.5-1.8-6.9
		c-0.3-6.3,1.3-11.9,5.6-16.6c0.4,0.4,1.3,0,1.4,0.9c-2.5,2.8-4.3,5.9-5,9.6c-0.3,1.7-0.6,3.4-0.4,5.5c0.4-0.5,0.7-0.8,0.9-1.1
		c2.2-3,5.1-4.8,8.7-5.7c3.2-0.7,6.4-0.8,9.7-0.6c1.3,0.1,2.1-0.5,2.7-1.5c0.7-1.3,1.3-2.6,1.7-4.1c0.2-0.5,0.4-1,1-0.8
		c0.7,0.2,0.7,0.7,0.5,1.3c-0.1,0.3-0.2,0.6-0.3,0.9c-0.4,1.3-1.1,2.6-1.7,4c1.5-0.3,2.8-0.8,4-1.5c2.2-1.3,4.3-2.7,6.5-4
		c0.9-0.5,1.6-1.1,2.1-1.9c0.8-1.4,1.9-2.4,3.2-3.3c0.4-0.3,0.9-0.4,1.3,0c0.4,0.5,0,0.8-0.3,1.2c-0.8,0.9-1.6,1.7-2.5,2.7
		c3.1,0,6.2-0.1,9.2,0c1.1,0,1.9-0.2,2.5-1.2c0.8-1.2,2-2.2,3.2-2.9c0.4-0.3,1-0.5,1.3,0c0.4,0.6,0,1-0.5,1.4
		c-0.3,0.2-0.6,0.4-0.9,0.7c-0.7,0.6-1.4,1.1-1.9,2c2.8-0.1,5.2-0.8,7.5-2c0.3-0.2,0.7-0.4,1-0.5c0.5-0.2,0.9,0,1.1,0.4
		c0.2,0.4-0.1,0.7-0.4,1c-0.8,0.5-1.7,1-2.6,1.3c-4,1.6-8.2,1.7-12.4,1.5c-0.3,0-0.6-0.2-0.9,0.1c0.8,0.9,1.8,1.5,3,1.8
		c0.4,0.1,0.7,0.3,0.7,0.8c0,0.5-0.4,0.7-0.9,0.8c-0.4,0.1-0.8-0.1-1.1-0.2c-1.2-0.5-2.2-1.2-3.1-2.2c-0.7-0.8-1.6-1.4-2.7-1.3
		c-3.7,0.1-6.7,2-9.6,4.1c1.3,0.7,2.4,1.2,3.5,1.8c0.5,0.3,1.3,0.8,0.8,1.5c-0.4,0.7-1.1,0.2-1.7-0.1c-0.9-0.5-1.7-1-2.6-1.4
		c-1.2-0.6-2.3-0.7-3.5,0c-1,0.5-2,0.7-3.1,0.9c-2.6,0.5-5.2,0.1-7.7,0.2c-1.7,0.1-3.5,0.2-5.3,0.6c1.1,0.6,2.2,1.1,3.1,1.7
		c2.6,1.6,4.5,3.9,5.5,6.8c0.2,0.6,0.2,1.1-0.5,1.3c-0.5,0.2-0.9-0.1-1.1-0.6c-1.5-4.4-4.9-6.8-9.2-8c-0.7-0.2-1.3-0.1-1.9,0.2
		c-2.7,1.5-4.5,3.8-5.9,6.5c-0.1,0.3-0.1,0.5-0.1,0.8c0.9,5.3,5.8,9.4,11.1,9.4c4.2,0,8.2-0.8,12.2-1.7c1.9-0.5,2.3-0.9,2.7-2.9
		c0.1-0.9,0-1.8-0.4-2.7c-0.3-0.7-0.7-1.3-0.9-2c-0.6-1.3-0.2-2.3,1-3c1-0.6,2-0.6,3-0.5c2.1,0.2,3.9-0.4,5.6-1.5
		c1.7-1.1,3.3-2.2,5-3.3c2.3-1.5,4.8-2.1,7.5-2.1c1.1,0,2.2,0,3.2,0c2.4-0.1,4.5-0.7,6.2-2.4c1.9-1.8,4-3.2,6.5-4.1
		c1.1-0.4,2-1.1,2.7-2.1c1.2-1.8,0.3-4.4-1.8-5c-1.2-0.3-2.4-0.4-3.6-0.2c-2,0.3-3.9,0-5.7-0.8c-2.2-1-4.4-1-6.7-0.2
		c-3,1.1-6,1-8.9-0.3c-0.5-0.2-1.1-0.4-1.6-0.5c-1.7-0.6-3.3-0.4-4.8,0.3c-1.5,0.7-3,1.5-4.3,2.4c-2.5,1.6-5,1.9-7.7,0.7
		c-1.8-0.8-3.6-1.3-5.6-1c-0.2-0.4-0.3-0.4-0.5,0c-0.2,0-0.3,0-0.5,0c0-0.6,0.6-1.2-0.2-1.7C59.9,90.5,60.2,90.4,60.3,90.4z"/>
	<path class="st0" d="M105.7,47.5c0-1.3-0.1-2.7,0.1-4c0.4,0.4,0.8,1.2,1.5,0.3c0,0.3,0,0.5,0,0.8c-0.1,9.8,0,19.7,0.2,29.5
		c0,0.5,0.1,0.9,0.1,1.4c0,0.4,0.1,0.5,0.5,0.6c0.8,0.1,1.2,0,1.2-1.1c-0.3-6.1-0.2-12.3,0-18.4c0.1-2.9,1.5-5,3.9-5.5
		c2.1-0.5,4.7-0.3,6.2,2.7c0.2,0.5,0.5,0.5,0.9,0.3c1.8-0.7,1.9-0.8,0.9-2.5c-0.2-0.3-0.3-0.5-0.5-0.8c-0.6-0.6-0.5-1.2,0.2-1.6
		c0.7-0.5,1.4-0.9,2-1.6c-1-0.8-1.8-0.8-2.7,0.2c-1.1,1.3-2.7,1.8-4.4,1.5c-1.3-0.2-2.6,0-3.8,0.6c-1.2,0.6-2.1,0.1-2.5-1.1
		c-0.1-0.4-0.2-0.9-0.2-1.4c0.1-2.6,0.1-5.2,0.2-7.9c0.7,0,0.8-0.3,0.6-0.9c-0.2-0.5-0.3-1.1,0-1.6c0.7-1-0.1-0.8-0.6-0.8
		c0-0.3,0-0.6,0-0.9c0.5,0,0.9,0.6,1.5,0.2c0.2,3.5,0,6.9-0.1,10.4c0,0.5,0,0.9,0,1.4c0,0.8,0.2,1.3,1,0.7c0.5-0.4,1.6-0.1,1.7-0.8
		c0.2-1.6,1-3.2,0.3-4.9c-1-2.2-1.7-4.4-1.6-6.8c0.1-4.7,3.4-7.8,8.2-8.1c5.6-0.4,10.4,4.7,11,9.9c0.1,0.5,0.1,0.9,0.4,1.3
		c2.6,2.5,3.5,5.7,4.1,9.1c0.6,3.5,0.7,7-0.1,10.5c-0.3,1.5-0.9,2.9-1.8,4.1c-0.6,0.8-0.8,1.7-0.8,2.7c-0.1,7-7.6,12.1-14.2,9.6
		c-3.1-1.2-4.7-3.6-5.5-6.7c-0.8-3.2-0.8-6.4,0.7-9.4c1-1.9,0.7-3.7,0.1-5.6c-0.2-0.5-0.5-0.5-0.9-0.4c-1.4,0.4-2.2,1.4-2.5,2.8
		c-0.4,2.1-0.2,4.2-0.3,6.4c-0.2,4.8-0.1,9.7,0.1,14.5c0,1.1-0.3,1.5-1.5,1.5c-4-0.1-3.5,0.7-3.6-3.5c-0.1-5.2-0.4-10.4-0.2-15.6
		c0.5-0.1,0.4-0.5,0.4-0.8c0-3.2,0-6.3,0-9.5C106.1,48,106.2,47.6,105.7,47.5z M135,51.9c0.2-0.2,0.2-0.4,0-0.7
		c-0.4-3-0.8-5.9-2.1-8.6c-0.7-1.5-1.6-2.7-3.5-2.7c-0.5,0-0.8-0.2-0.8-0.8c0-0.5,0.3-0.9,0.9-0.9c0.5,0,0.7-0.2,0.6-0.7
		c-0.4-2.4-1.4-4.6-3.1-6.2c-2.7-2.5-6.6-2.9-9.7-1.3c-2,1-3,2.7-3.2,4.9c-0.2,2.3,0.4,4.4,1.3,6.4c0.6,1.3,0.7,2.6,0.4,3.9
		c-0.1,0.5-0.2,1-0.3,1.5c-0.1,0.6,0,0.8,0.7,0.9c1.1,0.1,2.1,0,2.8-0.8c1.6-2.2,3.3-1.8,5.2-0.6c0.2,0.1,0.4,0.2,0.5,0.2
		c1,0.5,1.1,1,0.2,1.8c-0.6,0.5-1.2,1.1-1.9,1.5c-0.4,0.3-0.6,0.6-0.2,1.1c0.4,0.6,0.7,1.4,1,2.1c0.4,0.8,0.2,1.4-0.7,1.7
		c-1,0.4-1.9,0.8-2.9,1.3c-1,0.5-1.5,0.3-1.9-0.8c-0.4-1.3-1.1-2-2.1-2.2c0.7,2.1,0.9,4.2-0.2,6.2c-1.5,2.8-1.4,5.8-0.6,8.8
		c0.7,2.7,2.3,4.6,5,5.4c4.8,1.4,10.2-1.8,11.3-6.8c0.3-1.5,0.4-2.8-1-3.9c-0.4-0.3-0.4-0.7-0.1-1.1c0.3-0.3,0.7-0.5,1-0.2
		c1,1.1,1.3,0.2,1.7-0.6c0.5-0.9,0.8-1.8,1.1-2.8C135,56,134.9,53.9,135,51.9z M106.5,47c-0.1,0-0.1-0.1-0.2-0.1
		c0,0.1-0.1,0.1-0.1,0.2c0,0,0.1,0.1,0.2,0.1C106.4,47.1,106.5,47,106.5,47z"/>
	<path class="st0" d="M65.1,55c0.3,5.8-0.4,11.5-2.8,16.9c-0.7,1.6-1.7,3.1-2.8,4.4c-3.8,4.4-8.5,4.2-11.8-0.5
		c-1.2-1.6-2.4-3.2-4-4.4c-5.9-4.4-14.3-3-18.9,3.1c-0.5,0.6-1,1.3-1.5,1.9c-3.1,3.8-7.3,4-10.7,0.4C10,74.1,8.6,70.7,7.6,67
		c-1-3.6-1.3-7.3-1.1-11c0.2-5.8,0.4-11.6,1.9-17.2c0.5-1.8,1.1-3.6,2.3-5.1c2.1-2.6,4.9-2.7,7.1-0.2c0.5,0.5,0.9,1.1,1.3,1.7
		c1.2,1.7,2.6,3,4.7,3.6c1.5,0.5,2.5,1.6,3.3,2.9c1.9,3.1,4.5,4.9,8.2,5.2c4,0.3,7.2-1.4,9.3-4.7c1.1-1.8,2.4-3.1,4.5-3.8
		c1.5-0.5,2.5-1.6,3.5-2.8c0.6-0.8,1.2-1.7,1.9-2.5c1.7-1.9,4.1-2,6.1-0.2c1.4,1.3,2.1,3,2.7,4.8c1.2,3.8,1.5,7.6,1.8,11.5
		C65,51.1,65,53,65.1,55z M8,55.2C8,56.6,8,58,8,59.4c0.3,4.9,1.3,9.6,3.9,13.9c0.9,1.5,2.1,2.9,3.6,3.8c1.8,1,3.6,0.9,5.2-0.4
		c0.9-0.7,1.6-1.6,2.3-2.6c1.5-2.1,3.2-4,5.5-5.2c5.1-2.7,13.7-2.7,18.7,3.6c0.9,1.1,1.7,2.2,2.6,3.3c2.3,2.5,4.9,2.6,7.4,0.4
		c0.8-0.7,1.6-1.6,2.2-2.5c2.6-4.1,3.7-8.6,4-13.4c0.3-4.5-0.1-9-0.5-13.5c-0.3-3.3-0.7-6.7-2-9.8c-0.5-1.2-1.1-2.4-2.3-3.1
		c-1.2-0.7-2.2-0.6-3.1,0.4c-0.6,0.7-1.1,1.4-1.6,2.1c-1.2,1.8-2.8,3.2-4.9,3.9c-1.4,0.4-2.3,1.4-3,2.6c-4.9,7.9-15.6,7.9-20.4-0.1
		c-0.7-1.2-1.6-2-2.9-2.5c-1.8-0.6-3.3-1.7-4.4-3.2c-0.5-0.7-1-1.4-1.5-2c-1.6-2-3.4-2-4.9,0c-1,1.3-1.5,2.8-1.9,4.3
		C8.5,44.4,8.3,49.8,8,55.2z"/>
	<path class="st0" d="M104.1,47.7c0.1,0.6,0.2,1.2,0.1,1.9c-1.1-0.4-1.4,0.1-1.3,1.1c0,0.2-0.1,0.3-0.2,0.5c0-0.2-0.1-0.4-0.1-0.6
		c-0.1-6.9-0.2-13.8-0.3-20.7c0-0.7,0-1.2-1-1.2c-0.9,0-1.2,0.2-1.2,1.2c-0.1,5.8-0.1,11.5,0.1,17.3c0,0.6,0,1.2-0.2,1.8
		c-0.4,1.2-1.3,1.7-2.4,1.1c-1.2-0.6-2.4-0.9-3.7-0.7c-1.9,0.3-3.5-0.3-4.8-1.7c-0.8-0.9-1.2-0.2-1.6,0.3c-0.6,0.6,0.2,0.7,0.5,1
		c0.4,0.4,0.8,0.7,1.3,1c0.9,0.6,1.2,1.2,0.4,2c-0.3,0.4-0.5,0.9-0.8,1.4c-0.4,0.6-0.1,0.8,0.5,1c0.7,0.2,0.7-0.4,0.9-0.7
		c1.4-2.5,5.5-3.7,8-2.4c0.5,0.3,0.9,0.6,1.1,1.1c-0.3,0.2-0.4,0.4-0.1,0.7c1,1.1,0.2,1.7-0.5,2.4c0-0.3-0.1-0.6-0.1-0.9
		c0.8-0.9,0.7-1.3-0.8-1.6c-2-0.9-2.3-0.8-3,1.2c-1.4-0.3-0.8-0.9,0.1-1.7c-0.7,0.3-1.1,0.4-1.4,0.5c-0.9,0-1.2,0.8-1.6,1.3
		c-0.6,0.6-0.3,2-1.4,2.1c-0.8,0.1-1.7-0.4-2.6-0.6c-0.1,0-0.2,0-0.2,0c-1-0.2-1.3-0.7-0.9-1.7c0.4-0.9,1.3-2,1.1-2.8
		c-0.2-0.8-1.5-1.4-2.3-2c-0.6-0.5-0.6-1.1,0-1.7c0.7-0.6,1.3-1.2,2-1.8c0.7-0.7,1.3-0.6,1.9,0.1c0.7,0.7,1.4,1.5,2.3,1.9
		c0.7,0.3,1.6,0.4,2.2,0c0.5-0.3,0.1-1.1,0-1.6c-0.4-1.7-0.3-3.3,0.5-4.8c0.7-1.5,1.1-3.1,1.2-4.7c0.1-2.4-0.5-4.8-2.7-6
		C86.4,27,80.8,31,79.6,37.5c-0.1,0.5-0.1,0.7,0.5,0.7c0.5,0,0.9,0.2,0.9,0.8c0,0.6-0.4,0.8-0.9,0.8c-1.9,0-2.8,1.3-3.5,2.8
		c-1.3,2.7-1.8,5.5-2,8.4c-0.2,3.5-0.2,7,1.7,10.2c0.4,0.6,0.6,1.2,1.4,0.4c0.3-0.4,0.8-0.4,1.2,0c0.4,0.4,0.3,0.9-0.2,1.2
		c-1.2,0.9-1.3,2-1,3.3c0.2,0.8,0.4,1.6,0.6,2.4c-0.4,0.4-0.1,1.4-1.1,1.3c-1-1.5-1.3-3.3-1.3-5.1c0-0.7-0.2-1.3-0.6-1.9
		c-1.4-2-2.1-4.2-2.4-6.7c-0.4-4.5,0-8.9,1.7-13.2c0.3-0.6,0.5-1.4,0.9-1.8c1.6-1.7,2.2-3.9,2.9-6.1c1.9-5.5,6.3-8,11.8-7.2
		c4.2,0.6,7.3,4.6,6.8,8.8c-0.2,1.8-0.5,3.6-1.4,5.2c-1,1.9-0.2,3.7,0,5.5c0,0.2,2.2,1.1,2.4,1c0.3-0.2,0.2-0.5,0.2-0.8
		c0-1.7-0.1-3.5-0.1-5.2c-0.1-4.6,0-9.3,0.1-13.9c0-1,0.4-1.4,1.4-1.3c1,0.1,1.9,0,2.9,0c0.6,0,1,0.2,1,0.9
		c0.1,5.6,0.3,11.1,0.2,16.7c-0.2,0.1-0.2,0.2,0,0.2c0.1,0.9,0.2,1.7,0,2.6c-0.9-0.4-1.1-1.2-1.1-2.1
		C102.7,47.6,102.7,47.7,104.1,47.7z"/>
	<path class="st0" d="M53.7,134c-3.5-0.3-6.4-2.1-8.9-4.3c-5.2-4.5-7.6-10.3-7.6-17.2c0-3.5,0.1-7,1.1-10.4
		c3-9.4,9.3-15.6,18.2-19.5c5.7-2.5,11.7-3.5,17.8-3.6c1.1,0,1.5,0.3,1.4,1.4c0,1.8,0,3.6,0,5.3c0,1.7,0,1.8-1.8,1.8
		c-2.9,0-5.9,0.3-8.7,1c-1.1,0.3-2.1,0.7-3.2,1c0.2-0.6,0.2-1.1,0.2-1.7c0.4-0.2,0.8-0.3,1.2-0.5c3-0.9,6.1-1.4,9.2-1.4
		c1.3,0,1.6-0.4,1.5-1.6c-0.1-0.9-0.1-1.9,0-2.8c0.1-0.8-0.2-1-1-1c-6.1,0.2-11.9,1.4-17.3,4c-6.8,3.3-11.9,8.3-15,15.3
		c-1.8,4.2-2,8.8-2,13.3c0.1,9.6,7,18.1,16.2,19.4c0.1,0.3,0.3,0.5,0.6,0.5c1.5-0.3,0.9,0.5,0.6,1.1c-0.2,0.1-0.5,0.1-0.7,0
		c0.1-0.2,0.3-0.6-0.1-0.6C54.9,133.6,54.1,133.1,53.7,134z"/>
	<path class="st0" d="M56.3,134.2c0.2-0.6,0.8-1.4-0.6-1.1c-0.2,0.1-0.5-0.2-0.6-0.5c0.7,0,1.4,0,2.1,0c0.1,0.1,0.2,0.1,0.2,0
		c3.5-0.1,6.9-0.8,10.2-2c2-0.7,4.1-1.3,6.2-1.9c4.5-1.3,6.3-0.2,7.6,4.3c0.7,2.4,0.8,4.9,1,7.3c0,0.7,0.2,1,1,0.9
		c1.3-0.1,2.7-0.2,4.1-0.1c0.7,0,0.9-0.3,0.9-1c0-3.1-0.2-6.3-1-9.3c-0.7-2.7-1.7-5.2-4.1-6.9c0.6-0.1,1.3-0.2,1.2-1
		c1.5,0.9,2.5,2.3,3.2,3.8c2.1,4.7,2.4,9.8,2.3,14.8c0,0.7-0.4,1-1.1,1c-2.2,0.1-4.4,0.1-6.6,0.2c-1,0-1.3-0.4-1.3-1.3
		c-0.2-3.3-0.4-6.5-1.5-9.7c-0.7-1.9-1.3-2.4-3.3-2c-3.3,0.6-6.5,1.8-9.7,2.8C63,133.8,59.7,134.3,56.3,134.2z"/>
	<path class="st0" d="M102.6,51.2c0.1-0.2,0.3-0.3,0.2-0.5c-0.1-1.1,0.2-1.5,1.3-1.1c0.2,5.4,0,10.9-0.1,16.3
		c-0.1,3.5-0.2,7-0.2,10.5c0,1-0.4,1.4-1.4,1.3c-0.8,0-1.7-0.1-2.5,0c-1.1,0.1-1.5-0.4-1.4-1.4c0.3-5.1,0.2-10.2,0.2-15.3
		c0-1.9-0.1-3.8-0.1-5.7c0.8-0.7,1.5-1.3,0.5-2.4c-0.2-0.3-0.1-0.5,0.1-0.7c0.8,0.9,0.8,1.9,0.9,3c0.3,6.6,0.3,13.3,0.1,19.9
		c0,0.7,0.1,0.9,0.8,0.8c0.6-0.1,1.3,0.2,1.2-0.8c0-1,0.1-2.1,0.1-3.1C102.4,65.2,102.5,58.2,102.6,51.2z"/>
	<path class="st0" d="M77.3,69.8c1,0.1,0.7-0.9,1.1-1.3c1,2.1,2.6,3.6,4.7,4.5c4.8,2.1,9.3,0.2,10.8-4.6c1-3,1-6.1-0.4-9
		c-0.2-0.5-0.6-0.9-0.4-1.5c0.1-0.3,0.4-0.5,0-0.9c0,0.4,0,0.6,0,0.9c-0.5-1-0.5-2.1-0.2-3.1c0.7,0.2-0.2,1,0.6,1.3
		c0.1-0.7,0.4-1.4-0.4-2c0.1-0.4,0.2-0.8,0.3-1.1c0.3-0.1,0.7-0.3,1.4-0.5c-0.9,0.8-1.5,1.5-0.1,1.7c-0.1,0.3-0.2,0.6-0.2,0.9
		c-0.3,0.3-0.6,0.5-0.1,0.9c0,0.2,0,0.3,0,0.5c-0.2,0-0.5,0.1-0.4,0.4c0.1,0.3,0.3,0.3,0.5,0.3c0.2,0.5,0.3,1,0.6,1.5
		c1.8,3.7,1.7,7.5,0.2,11.2c-1.8,4.7-6.8,6.7-11.9,5C80.7,73.8,78.6,72.3,77.3,69.8z"/>
	<path class="st0" d="M24.1,101.9c2.6,0,4.8,2.2,4.8,4.8c0,2.6-2.2,4.8-4.8,4.8c-2.6,0-4.8-2.1-4.8-4.8
		C19.3,104.1,21.4,101.9,24.1,101.9z M24.2,103.6c-1.8-0.1-3.2,1.2-3.3,3c-0.1,1.7,1.3,3.2,3.1,3.2c1.6,0,3.1-1.4,3.2-3.1
		C27.3,105.2,25.9,103.6,24.2,103.6z"/>
	<path class="st0" d="M140.2,69.7c0-2.6,2.1-4.8,4.8-4.8c2.6,0,4.7,2.1,4.7,4.7c0,2.7-2.1,4.8-4.7,4.8
		C142.3,74.5,140.2,72.4,140.2,69.7z M141.8,69.8c0,1.7,1.5,3.2,3.2,3.2c1.7,0,3.1-1.5,3.1-3.2c0-1.7-1.4-3.1-3.1-3.1
		C143.2,66.6,141.8,68,141.8,69.8z"/>
	<path class="st0" d="M107.3,43.8c-0.7,0.9-1,0.2-1.5-0.3c0-0.4,0-0.7,0-1.1c0.5-1.1,0.4-2.2,0-3.3c0-3.6,0.1-7.2,0.1-10.9
		c0-0.8,0.4-1.2,1.2-1.2c0.9,0,1.8,0,2.7,0c0.8,0,1.1,0.3,1.1,1.1c0,1.5,0,2.9,0.1,4.4c-0.5,0.8-0.6,1.6,0,2.4c0,0.2,0,0.5,0,0.7
		c-0.6,0.3-1-0.2-1.5-0.2c-0.1-1.9-0.2-3.8-0.2-5.8c0-0.8-0.2-0.9-1-1c-0.9,0-0.8,0.5-0.8,1C107.4,34.4,107.6,39.1,107.3,43.8z"/>
	<path class="st0" d="M107.4,11.5c2.6,0,2.6,0,2.6-2.6c0-0.6,0-1.2,0-1.9c0-0.6,0.2-1.1,0.9-1.1c0.7,0,0.8,0.5,0.8,1.1
		c0,1.2,0,2.4,0,3.6c0,0.7,0.2,0.9,0.9,0.9c1.2-0.1,2.4,0,3.6,0c0.6,0,1,0.2,1,0.8c0,0.6-0.4,0.8-1,0.8c-1.1,0-2.2,0-3.4,0
		c-0.9-0.1-1.3,0.1-1.2,1.1c0.1,1.1,0,2.2,0,3.4c0,0.5-0.1,1.1-0.8,1.1c-0.7,0-0.9-0.5-0.9-1.1c0-1.2,0-2.4,0-3.6
		c0-0.6-0.2-0.9-0.9-0.9c-1.2,0-2.4,0-3.6,0c-0.6,0-1.1-0.2-1.1-0.9c0-0.6,0.5-0.8,1.1-0.8C106.1,11.6,106.7,11.5,107.4,11.5z"/>
	<path class="st0" d="M10.2,119.8c0.7,0,1.3,0,2,0c0.5,0,0.8,0.3,0.9,0.8c0,0.6-0.3,0.9-0.9,0.9c-1.3,0-2.5,0-3.8,0
		c-0.7,0-0.9,0.2-0.8,0.9c0,1.2,0,2.4,0,3.6c0,0.6-0.1,1.1-0.9,1.1c-0.7,0-0.8-0.6-0.8-1.2c0-1.1,0-2.2,0-3.4c0-0.8-0.2-1.1-1-1.1
		c-1.1,0.1-2.2,0-3.2,0c-0.6,0-1.3,0-1.3-0.8c0-0.9,0.7-0.8,1.3-0.8c1.2,0,2.3,0,3.5,0c0.6,0,0.7-0.2,0.7-0.7c0-1.2,0-2.5,0-3.7
		c0-0.6,0.1-1.1,0.8-1.1c0.7,0,0.8,0.6,0.8,1.1c0,1.1,0.1,2.2,0,3.4c-0.1,0.9,0.3,1.2,1.1,1.1C9.1,119.8,9.7,119.8,10.2,119.8z"/>
	<path class="st0" d="M62.3,87.8c0,0.6,0,1.2-0.2,1.7c-0.6,0.3-1.2,0.5-1.8,0.8c-0.1,0.1-0.4,0.1-0.3,0.2c0.8,0.5,0.2,1.1,0.2,1.7
		c-2.8,0.1-5.2,1.2-7.1,3.3c-0.5,0.6-1.1,1.1-1.7,1.6c-0.1-0.9-1-0.5-1.4-0.9C53.3,92.3,57.5,89.6,62.3,87.8z"/>
	<path class="st0" d="M25.9,22.5c0,0.4-0.1,0.7-0.5,0.8c-0.2,0.1-0.5,0.1-0.7,0.1C23,23.5,23,23.5,23,25.1c0,0.6,0,1.2-0.8,1.2
		c-0.8,0-0.9-0.6-0.9-1.2c0-0.3,0-0.6,0-0.9c0.1-0.6-0.2-0.8-0.8-0.8c-0.5,0-0.9,0-1.4,0c-0.4,0-0.7-0.3-0.7-0.8
		c0-0.4,0.2-0.8,0.7-0.8c1.8,0.3,2.6-0.3,2.3-2.2c-0.1-0.4,0.3-0.7,0.7-0.7c0.5,0,0.8,0.3,0.8,0.8c0,0,0,0.1,0,0.1
		c0.1,0.6-0.3,1.5,0.2,1.8c0.4,0.3,1.2,0.1,1.8,0.2C25.5,21.8,25.8,22.1,25.9,22.5z"/>
	<path class="st0" d="M130.8,126.7c0,0.4-0.1,0.7-0.5,0.8c-0.2,0.1-0.4,0-0.6,0.1c-1.7,0.1-1.7,0.1-1.8,1.8c0,0.6-0.2,1.1-0.9,1.1
		c-0.6,0-0.8-0.5-0.7-1.1c0-0.2,0-0.3,0-0.5c0.2-1.1-0.2-1.6-1.4-1.4c-0.3,0-0.5,0-0.8,0c-0.5,0-0.7-0.3-0.8-0.7
		c0-0.5,0.3-0.9,0.7-0.8c1.8,0.3,2.5-0.4,2.2-2.2c-0.1-0.4,0.3-0.7,0.7-0.7c0.5,0,0.9,0.3,0.8,0.7c-0.3,1.8,0.4,2.5,2.2,2.2
		C130.5,125.8,130.7,126.2,130.8,126.7z"/>
	<path class="st0" d="M128.7,106.6c0.6,0.1,0.9,0.6,0.6,1.2c-0.9,1.9-1.9,3.8-3,5.6c-0.2,0.4-0.6,0.6-1.1,0.3
		c-0.5-0.3-0.6-0.7-0.3-1.2c1-1.8,2-3.6,3-5.5C128.1,106.7,128.3,106.6,128.7,106.6z"/>
	<path class="st0" d="M133.7,95.7c-0.5,2-1.1,4.2-2,6.2c-0.2,0.4-0.6,0.5-1,0.3c-0.4-0.2-0.6-0.5-0.5-0.9c0.6-2.1,1.3-4.1,1.9-6.2
		c0.1-0.4,0.5-0.6,0.9-0.5C133.6,94.8,133.8,95.1,133.7,95.7z"/>
	<path class="st0" d="M51.5,19.7c-0.3,0-0.6-0.2-0.7-0.6c-0.1-0.4,0.1-0.8,0.5-0.9c2.1-0.7,4.2-1.3,6.3-1.7c0.4-0.1,0.7,0.2,0.9,0.6
		c0.1,0.4,0,0.8-0.5,0.9C55.9,18.6,53.8,19.1,51.5,19.7z"/>
	<path class="st0" d="M43.1,136.5c-0.1,0.6-0.5,1-1.1,0.7c-2-0.9-3.9-2-5.7-3.3c-0.4-0.2-0.5-0.6-0.2-1c0.3-0.4,0.7-0.6,1.1-0.3
		c1.8,1,3.7,2.1,5.5,3.2C42.9,135.8,43,136.1,43.1,136.5z"/>
	<path class="st0" d="M53.8,141.8c-2-0.6-4.1-1.2-6.1-2.1c-0.4-0.2-0.6-0.6-0.4-1c0.2-0.4,0.6-0.6,1.1-0.4c1.9,0.7,3.9,1.3,5.8,1.9
		c0.5,0.2,0.8,0.5,0.7,1C54.8,141.7,54.4,141.9,53.8,141.8z"/>
	<path class="st0" d="M68.7,15.1c0.6,0,1.2,0,1.7,0c0.5,0,0.8,0.4,0.7,0.9c0,0.5-0.3,0.7-0.8,0.7c-2.1,0.1-4.1,0.2-6.2,0.4
		c-0.5,0.1-0.9-0.2-1-0.7c0-0.6,0.4-0.8,0.9-0.9C65.6,15.3,67.1,15.2,68.7,15.1C68.7,15,68.7,15.1,68.7,15.1z"/>
	<path class="st0" d="M26.7,124.5c0.4,0,0.6,0.2,0.9,0.5c1.4,1.2,2.8,2.5,4.2,3.7c0.4,0.4,0.9,0.8,0.4,1.3c-0.5,0.6-1,0.3-1.5-0.1
		c-1.5-1.2-2.9-2.5-4.3-3.8c-0.3-0.3-0.6-0.6-0.3-1.1C26.2,124.7,26.5,124.5,26.7,124.5z"/>
	<path class="st0" d="M114.1,127.5c0,0.4-0.2,0.6-0.4,0.8c-1.5,1.2-3.1,2.4-4.6,3.7c-0.5,0.4-1,0.5-1.4-0.1c-0.3-0.5,0-0.9,0.4-1.3
		c1.5-1.2,3-2.4,4.5-3.6c0.3-0.3,0.6-0.4,1.1-0.3C113.9,126.9,114.1,127.2,114.1,127.5z"/>
	<path class="st0" d="M89.5,17.7c2,0.6,4.1,1.3,6,2.1c0.4,0.2,0.7,0.6,0.4,1c-0.2,0.5-0.6,0.6-1.1,0.4c-1.9-0.7-3.9-1.5-5.9-2
		c-0.5-0.1-0.7-0.5-0.6-1C88.6,17.8,89,17.6,89.5,17.7z"/>
	<path class="st0" d="M65.8,144c-1.7-0.2-3.5-0.5-5.2-0.7c-0.6-0.1-1.1-0.2-1-0.9c0.1-0.8,0.8-0.7,1.3-0.6c1.8,0.2,3.6,0.5,5.4,0.6
		c0.6,0.1,1.2,0.2,1.1,0.9c-0.1,0.8-0.7,0.7-1.2,0.7C66.1,144,66,143.9,65.8,144C65.8,144,65.8,144,65.8,144z"/>
	<path class="st0" d="M29.5,32.2c-0.4,0-0.6-0.1-0.7-0.4c-0.2-0.4-0.2-0.7,0.1-1c1.6-1.4,3.3-2.8,5.2-4c0.4-0.3,0.8-0.1,1,0.2
		c0.3,0.3,0.3,0.8-0.1,1c-1.7,1.4-3.4,2.7-5.2,4C29.8,32.2,29.6,32.2,29.5,32.2z"/>
	<path class="st0" d="M97.3,138.6c-0.4,0-0.7-0.2-0.8-0.6c-0.1-0.4,0-0.7,0.4-0.9c1.9-1,3.8-2,5.8-2.9c0.4-0.2,0.8-0.1,1,0.3
		c0.3,0.4,0.2,0.8-0.2,1c-1.9,1.2-3.9,2.2-5.9,3.1C97.4,138.6,97.3,138.6,97.3,138.6z"/>
	<path class="st0" d="M77.2,15.2c1.9,0.3,3.8,0.6,5.7,0.8c0.6,0.1,1.1,0.3,0.9,1c-0.2,0.6-0.6,0.7-1.2,0.6c-1.9-0.3-3.7-0.6-5.6-0.8
		c-0.6-0.1-1.1-0.2-1-0.9C76,15.3,76.6,15.2,77.2,15.2z"/>
	<path class="st0" d="M40,24.8c-0.4,0-0.7-0.1-0.8-0.5c-0.1-0.4,0-0.7,0.3-0.9c1.9-1.1,3.8-2.1,5.9-2.9c0.4-0.2,0.8,0,1,0.4
		c0.2,0.4,0.1,0.8-0.3,1c-1.9,1-3.9,2-5.9,2.9C40.1,24.8,40,24.8,40,24.8z"/>
	<path class="st0" d="M135.6,84.4c-0.2,1.5-0.4,3-0.5,4.5c-0.1,0.6-0.2,1.1-0.9,1.1c-0.8-0.1-0.7-0.7-0.7-1.3
		c0.2-1.8,0.4-3.6,0.5-5.4c0.1-0.6,0.1-1.2,0.9-1.1c0.8,0,0.8,0.7,0.8,1.3C135.6,83.7,135.6,84,135.6,84.4
		C135.6,84.4,135.6,84.4,135.6,84.4z"/>
	<path class="st0" d="M8.5,84.8c0,0.3,0,0.7,0.1,1c0,0.5-0.2,0.8-0.7,0.9C7.4,86.8,7,86.5,7,86c-0.2-2.1-0.4-4.3-0.3-6.5
		c0-0.5,0.3-0.8,0.8-0.8c0.6,0,0.8,0.4,0.8,0.9c0,1.7,0,3.4,0,5.1C8.3,84.8,8.4,84.8,8.5,84.8z"/>
	<path class="st0" d="M7.9,92.4c0-0.5,0.1-0.8,0.6-0.9c0.5-0.1,0.8,0.1,1,0.6c0.5,2,1,4,1.5,6c0.1,0.4,0,0.9-0.5,1
		c-0.5,0.2-0.9-0.1-1.1-0.6C8.9,96.6,8.3,94.5,7.9,92.4z"/>
	<path class="st0" d="M105.7,47.5c0.5,0.1,0.4,0.5,0.4,0.8c0,3.2,0,6.3,0,9.5c0,0.3,0.1,0.7-0.4,0.8
		C105.6,54.9,105.6,51.2,105.7,47.5z"/>
	<path class="st0" d="M105.9,39.1c0.4,1.1,0.4,2.2,0,3.3C105.7,41.3,105.8,40.2,105.9,39.1z"/>
	<path class="st0" d="M53.7,134c0.4-0.9,1.2-0.4,1.8-0.4c0.4,0,0.2,0.4,0.1,0.6C54.9,134.2,54.3,134.2,53.7,134z"/>
	<path class="st0" d="M97.7,52.8c1.5,0.3,1.6,0.7,0.8,1.6C98.2,53.9,98.1,53.3,97.7,52.8z"/>
	<path class="st0" d="M104.1,47.7c-1.4-0.1-1.4-0.1-1.1-2.3c0,0.9,0.2,1.7,1.1,2.1C104.1,47.6,104.1,47.7,104.1,47.7z"/>
	<path class="st0" d="M111.1,35c-0.6-0.8-0.5-1.6,0-2.4C111.2,33.4,111.2,34.2,111.1,35z"/>
	<path class="st0" d="M94.4,57c-0.2,0-0.5,0-0.5-0.3c-0.1-0.3,0.2-0.4,0.4-0.4C94.3,56.5,94.4,56.8,94.4,57z"/>
	<path class="st0" d="M94.3,55.8c-0.4-0.4-0.2-0.6,0.1-0.9C94.4,55.2,94.3,55.5,94.3,55.8z"/>
	<path class="st0" d="M104.1,44.9c-0.2-0.1-0.2-0.2,0-0.2C104.1,44.8,104.1,44.9,104.1,44.9z"/>
	<path class="st0" d="M83.1,124c-0.4-0.2-0.7-0.4-1.1-0.5c0.2-0.8,0.6-0.3,1-0.2C83.5,123.4,83.3,123.8,83.1,124z"/>
	<path class="st0" d="M61.1,92.2c-0.2,0-0.3,0-0.5,0C60.8,91.8,61,91.7,61.1,92.2z"/>
	<path class="st0" d="M109.6,39.6c0-1.1,0-2.2,0-3.2c0.5,0.1,1.3-0.2,0.6,0.8c-0.3,0.5-0.2,1,0,1.6
		C110.4,39.3,110.3,39.6,109.6,39.6z"/>
	<path class="st0" d="M106.5,47c0,0.1,0,0.2-0.1,0.2c0,0-0.2,0-0.2-0.1c0,0,0-0.1,0.1-0.2C106.4,46.9,106.4,46.9,106.5,47z"/>
	<path class="st0" d="M135,51.9c0-0.2,0-0.4,0-0.7C135.1,51.4,135.1,51.6,135,51.9z"/>
	<path class="st0" d="M57.2,132.7c0.1,0,0.1,0,0.2,0C57.3,132.8,57.3,132.8,57.2,132.7z"/>
	<path class="st0" d="M92.9,54.7c0-0.3,0-0.5,0.2-0.7c0.8,0.5,0.5,1.3,0.4,2C92.7,55.7,93.6,54.9,92.9,54.7z"/>
	<path class="st0" d="M93.1,57.8c0-0.3,0-0.5,0-0.9C93.5,57.3,93.2,57.6,93.1,57.8C93.1,57.8,93.1,57.8,93.1,57.8z"/>
	<path class="st0" d="M29.4,53.5c0.1-0.8,0.3-1.6,0.9-2.3c0.4-0.4,0.8-0.5,1.2-0.2c0.4,0.3,0.4,0.7,0.1,1.1c-0.7,0.9-0.7,1.8,0,2.6
		c0.3,0.4,0.3,0.9-0.1,1.2c-0.5,0.3-0.9,0.1-1.2-0.3C29.7,55.1,29.5,54.4,29.4,53.5z"/>
	<path class="st0" d="M40.9,53.5c-0.1,0.9-0.3,1.7-0.9,2.3c-0.3,0.4-0.7,0.5-1.1,0.2c-0.4-0.3-0.5-0.7-0.2-1.1c0.7-1,0.8-1.9,0-2.8
		c-0.3-0.3-0.2-0.7,0.1-1c0.4-0.3,0.8-0.3,1.1,0.1C40.6,51.8,40.9,52.6,40.9,53.5z"/>
	<path class="st0" d="M60.1,57c0,1-0.3,1.8-1,2.5c-0.3,0.4-0.7,0.4-1.1,0.1c-0.4-0.3-0.5-0.7-0.2-1.1c0.8-1,0.7-1.9,0-2.8
		c-0.3-0.4-0.2-0.7,0.1-1c0.4-0.3,0.8-0.3,1.1,0C59.8,55.3,60.1,56.1,60.1,57z"/>
	<path class="st0" d="M43.6,62.1c-0.1,1.5-0.6,2.5-1.8,3.1c-0.5,0.3-1,0.3-1.3-0.2c-0.3-0.5,0-0.9,0.4-1.1c0.8-0.5,1.2-1.2,1-2.1
		c-0.1-0.6-0.2-1.2,0.6-1.3c0.8-0.1,0.9,0.5,1,1.1C43.6,61.8,43.6,62,43.6,62.1z"/>
	<path class="st0" d="M11.4,56.8c0-0.9,0.3-1.8,0.9-2.5c0.3-0.3,0.7-0.5,1.1-0.2c0.4,0.3,0.4,0.7,0.1,1.1c-0.7,0.9-0.7,1.8,0,2.7
		c0.3,0.4,0.3,0.8-0.1,1.1c-0.4,0.3-0.9,0.2-1.2-0.2C11.7,58.4,11.5,57.6,11.4,56.8z"/>
	<path class="st0" d="M56.4,68.7c0,1.5-0.7,2.5-1.9,3.1c-0.5,0.2-0.9,0.3-1.2-0.2c-0.3-0.5-0.1-0.9,0.4-1.2c0.9-0.5,1.3-1.2,1-2.2
		c-0.1-0.6-0.1-1.1,0.6-1.2c0.7-0.1,0.9,0.4,1,1C56.3,68.2,56.3,68.5,56.4,68.7z"/>
	<path class="st0" d="M13.2,45.2c0.1-1.3,0.6-2.4,1.8-3.1c0.5-0.3,1-0.4,1.3,0.1c0.3,0.5,0.1,0.9-0.4,1.2c-0.8,0.4-1.1,1.1-0.9,2
		c0.1,0.6,0.2,1.2-0.6,1.4c-0.8,0.1-0.9-0.6-1-1.1C13.2,45.6,13.2,45.4,13.2,45.2z"/>
	<path class="st0" d="M15.2,68c0-0.3,0-0.6,0.1-0.9c0.1-0.6,0.4-1.1,1.1-0.9c0.6,0.2,0.6,0.7,0.5,1.2c-0.2,0.9,0.1,1.7,0.9,2.2
		c0.5,0.3,0.9,0.6,0.5,1.2c-0.4,0.6-0.9,0.5-1.4,0.2C15.8,70.3,15.2,69.3,15.2,68z"/>
	<path class="st0" d="M19.3,61.1c0-0.9,0.3-1.7,0.8-2.3c0.3-0.4,0.7-0.6,1.2-0.3c0.5,0.3,0.5,0.8,0.1,1.2c-0.7,0.9-0.7,1.8,0,2.7
		c0.3,0.4,0.2,0.8-0.2,1.1c-0.4,0.3-0.7,0.2-1-0.1C19.6,62.8,19.3,61.9,19.3,61.1z"/>
	<path class="st0" d="M58.3,44.3c0,0.2-0.1,0.5-0.2,0.9c-0.1,0.5-0.5,0.8-1.1,0.6c-0.5-0.1-0.7-0.6-0.5-1c0.4-1.1,0-1.9-1-2.4
		c-0.5-0.3-0.7-0.7-0.4-1.2c0.3-0.5,0.7-0.5,1.2-0.2C57.5,41.5,58.3,42.8,58.3,44.3z"/>
	<path class="st0" d="M28,61.9c0-0.2,0.1-0.5,0.2-0.9c0.1-0.5,0.5-0.7,1-0.5c0.5,0.1,0.7,0.5,0.6,1c-0.4,1.1,0,1.9,1,2.5
		c0.4,0.2,0.6,0.6,0.3,1.1c-0.3,0.5-0.7,0.5-1.2,0.3C28.8,64.8,27.9,63.5,28,61.9z"/>
	<path class="st0" d="M51.4,48.7c0,0.9-0.3,1.7-0.9,2.3c-0.3,0.4-0.7,0.5-1.1,0.2c-0.4-0.3-0.5-0.8-0.2-1.1c0.8-1,0.7-1.9,0-2.8
		c-0.3-0.4-0.2-0.8,0.2-1.1c0.4-0.2,0.8-0.1,1.1,0.2C51.1,47.1,51.4,47.8,51.4,48.7z"/>
	<path class="st0" d="M51.9,61c0,0.9-0.3,1.6-0.8,2.3c-0.3,0.4-0.7,0.6-1.2,0.3c-0.4-0.3-0.5-0.8-0.1-1.2c0.7-0.9,0.7-1.7,0-2.6
		c-0.3-0.4-0.3-0.9,0.2-1.2c0.5-0.3,0.9-0.1,1.2,0.3C51.6,59.5,51.9,60.2,51.9,61z"/>
	<path class="st0" d="M19.8,48.8c0-0.9,0.2-1.7,0.8-2.3c0.3-0.4,0.7-0.6,1.2-0.3c0.5,0.3,0.5,0.8,0.1,1.2c-0.7,0.9-0.7,1.8,0,2.6
		c0.3,0.4,0.3,0.9-0.1,1.2c-0.4,0.3-0.8,0.2-1.1-0.2C20.1,50.4,19.8,49.6,19.8,48.8z"/>
</g>
</svg>
