<?xml version="1.0" encoding="utf-8"?>
<!-- Generator: Adobe Illustrator 24.3.0, SVG Export Plug-In . SVG Version: 6.00 Build 0)  -->
<svg version="1.1" id="Layer_1" xmlns="http://www.w3.org/2000/svg" xmlns:xlink="http://www.w3.org/1999/xlink" x="0px" y="0px"
	 viewBox="0 0 150 150" style="enable-background:new 0 0 150 150;" xml:space="preserve">
<style type="text/css">
	.st0{fill:#005BAB;}
</style>
<g>
	<g>
		<path class="st0" d="M89.7,35.5c7.5,3.1,11.8,8.6,12.6,16.7c0.4,3.7,0.5,7.5,0.7,11.2c0.4,7.7,0.9,15.4,1.3,23
			c0.2,4.4-1.1,8.4-4.1,11.7c-0.2,0.2-0.3,0.4-0.4,0.7c3.9,0,7.8,0,11.7,0c0-0.6,0-1.2,0-1.7c0-10.5,0-21,0-31.5
			c0-4.4,3.1-7.5,7.4-7.5c1.4,0,2.9,0,4.3,0c4.3,0,7.4,3.1,7.4,7.4c0,12,0.2,24,0,36c-0.2,11-5.6,19-15.6,23.8
			c-0.9,0.4-1.2,0.9-1.2,1.9c0.1,6.3,0,12.6,0,18.9c0,2.4-0.8,3.2-3.3,3.2c-6.2,0-12.5-0.1-18.7,0c-4,0.1-5.2-1.2-3.6-5.1
			c2-5,2.2-10.1,0.4-15.2c-0.3-1-0.8-1.4-1.9-1.5c-11-1.3-19.8-9.1-22.5-19.8c-0.3-1.2-0.5-2.5-0.8-3.9c-2,0-3.9,0-5.9,0
			c-1.9,0-3.9,0-5.9,0c0.4,3.1,0.8,6.1,1.2,9c0.1,0.4,0.5,0.9,0.8,1c6.4,1.9,6.2,12.2,2.1,14.9c-0.4,0.3-0.8,1.1-0.7,1.5
			c1.1,5.2,1.2,10.5,1.1,15.8c0,2.7-0.7,3.4-3.4,3.4c-7.7,0-15.4,0-23.1,0c-4.5,0-4.8-0.3-4.7-4.8c0.1-5.3,4.2-9.5,9.6-9.5
			c1.3,0,2.6,0,4,0c-0.5-1.7-0.9-3.2-1.4-4.8c-4.4,0.4-8.1-0.6-9.5-5.4c-1.4-4.8-0.1-7.8,4.6-11.2c-0.1-0.3-0.2-0.6-0.2-1
			c-1.4-4.6-2.8-9.3-4-13.9c-2.3-8.6,3.2-17.3,12-18.6c3.1-0.5,6.3-0.2,9.4-0.3c1,0,2-0.2,2.9-0.6c4.2-1.8,8.3-3.8,12.4-5.6
			c0.9-0.4,1.1-0.8,1.1-1.8c0-6.7,0-13.5,0-20.2c0-5.1,1.8-9.4,5.4-12.9c0.2-0.2,0.4-0.4,0.7-0.7c-0.4-0.2-0.6-0.3-0.9-0.4
			c-0.3-0.1-0.5-0.2-0.8-0.4c-4.7-2.5-7.8-6.3-8.8-11.5c-0.5-2.8-0.4-5.7-0.4-8.5c0.1-8.6,6.5-15.4,15.1-16.5
			c8.1-1,16.1,4.5,17.9,12.7c0.7,3.5,0.6,7.4,0.4,11c-0.3,4.3-2.5,7.7-5.8,10.7C89.2,35.3,89.5,35.4,89.7,35.5z M46.9,102.6
			C46.5,100,47.4,99,50,99c12.5,0,25,0,37.5,0c3.2,0,6-1,8.6-3.4c-4.2-1.3-7-4.2-9.7-7.3c-2.2-2.5-5.2-3.7-8.6-3.7
			c-11.8,0-23.7-0.1-35.5,0c-6.7,0-11.4,6.4-9.6,12.9c1.4,5,2.9,10,4.4,14.9c0.1,0.4,0.7,0.9,1,0.9c3.3,0.1,6.6,0,10,0
			C47.8,109.6,47.4,106.1,46.9,102.6z M68.6,103.9c0.1,2.8,1,5.4,2.4,7.8c4.1,7.1,10.3,11,18.5,11.3c5.2,0.2,10.4,0.1,15.6,0
			c9.9-0.2,18.8-7.9,20.5-17.7c0.1-0.4,0.1-0.9,0.1-1.4C106.7,103.9,87.7,103.9,68.6,103.9z M73.1,69.8c2.6-1.2,2.6-1.2,2.5-4.3
			c-2-0.4-2.4-1.8-2.4-3.6c0.1-2.8,0-5.6,0-8.4c0.1-5.4,4.3-9.7,9.6-9.7c5.3,0,9.5,4.2,9.6,9.7c0,2.9,0,5.9,0,8.8
			c0,1.7-0.6,2.8-2.5,3.2c0.6,6.1-0.1,11.7-6.4,15.3c3.9,1.4,6.5,3.9,8.8,6.8c1.6,2,3.8,3.1,6.7,3.8c0.2-1.7,0.5-3.2,0.5-4.8
			C99,77,98.5,67.5,97.9,58c-0.2-2.6-0.2-5.3-0.8-7.9c-1.7-7.4-9.3-12.3-16.6-10.9c-5.2,1-9.4,5.4-9.6,10.7
			c-0.3,6.9-0.1,13.8-0.1,20.9C71.7,70.4,72.4,70.1,73.1,69.8z M126,98.9c0-0.5,0-1,0-1.5c0-10.3,0-20.7,0-31c0-2.7-0.7-3.4-3.3-3.4
			c-1.2,0-2.5,0-3.7,0c-1.5,0.1-2.5,0.9-2.5,2.3c0,11.2,0,22.3,0,33.6C119.6,98.9,122.7,98.9,126,98.9z M109.1,144.5
			c0-5.7,0-11.4,0-16.9c-5.2,0-10.4,0-15.8,0c1.9,5.7,2,11.2,0,16.9C98.7,144.5,103.8,144.5,109.1,144.5z M79.6,12.6
			c2.4,0,3.2,0.8,3.2,3.1c0,2.2-0.1,4.4,0,6.6c0,0.6,0.4,1.3,0.8,1.7c1.5,1.3,3.1,2.5,4.9,4c0.5-1.5,1.2-2.8,1.2-4.2
			c0.1-3,0.3-6-0.2-9c-0.7-5-5-8.7-10.2-9.4c-4.7-0.7-9.7,1.9-11.9,6.1c-0.1,0.3-0.2,0.5-0.5,1C71.4,12.6,75.5,12.6,79.6,12.6z
			 M65.7,17.5c0.3,2.9,0.1,5.7,0.9,8.3c2.3,8,12.2,11,18.6,5.8c-1.7-1.3-3.3-2.8-5-4c-1.7-1.2-2.5-2.6-2.3-4.7c0.2-1.8,0-3.6,0-5.4
			C73.9,17.5,70,17.5,65.7,17.5z M35.2,118.2c-2,0-2.8,0.9-2.8,2.9c0,0.6,0,1.3,0,1.9c0.1,1.4,1,2.4,2.4,2.4c5.6,0,11.2,0,16.8,0
			c1.4,0,2.3-1,2.4-2.4c0-0.1,0-0.3,0-0.4c0.1-3.8-0.4-4.3-4.2-4.3c-2.2,0-4.4,0-6.6,0C40.5,118.2,37.9,118.2,35.2,118.2z
			 M87.5,52.8c-0.1-2.4-2.3-4.2-4.7-4.2c-2.4,0-4.7,1.8-4.8,4.2c-0.2,2.5,0,5.1,0,7.7c3.2,0,6.3,0,9.5,0
			C87.5,57.9,87.7,55.4,87.5,52.8z M80.6,76.8c2.6-0.9,4.1-3,4.5-5.7c0.2-1.8,0-3.7,0-5.6c-1.5,0-3,0-4.8,0c0,1.3-0.1,2.7,0,4.1
			c0.1,1.6-0.6,2.5-2,3.1c-4.4,1.9-8.7,3.9-13.1,5.9c-0.7,0.3-1.3,0.6-2.1,1C69.5,80.7,75,78.6,80.6,76.8z M51.5,139.9
			c-0.3,0-0.6-0.1-0.9-0.1c-5.2,0-10.5,0-15.7,0c-2.8,0-4.6,1.8-4.9,4.7c7.1,0,14.2,0,21.5,0C51.5,142.9,51.5,141.5,51.5,139.9z
			 M50.4,130.2c-2.7,0-5.3,0-8,0c0.4,1.5,0.8,2.8,1.2,4.2c0.1,0.3,0.6,0.5,0.9,0.5c2.1,0,4.3,0,6.6,0
			C50.9,133.3,50.7,131.8,50.4,130.2z"/>
	</g>
	<path class="st0" d="M35.4,45.3c3.1-1.6,5.9-3.1,9-4.7c-3.7-2.3-7.2-4.5-10.9-6.8c0.9-1.5,1.8-2.8,2.7-4.4
		c6.2,3.8,12.3,7.6,18.5,11.5c-3,1.6-5.9,3.1-9,4.7c3.7,2.3,7.2,4.5,10.9,6.8c-0.9,1.5-1.8,2.9-2.7,4.4C47.7,53,41.7,49.2,35.4,45.3
		z"/>
	<path class="st0" d="M40.8,57.4c-1.6,3-3.2,5.8-4.7,8.5c4.1,0.1,8.3,0.2,12.4,0.3c0,1.6-0.1,3.2-0.1,5c-6.8,0.2-14,0.3-21.3,0.5
		c1.7-3,3.2-5.8,4.8-8.6c-4.2-0.1-8.3-0.2-12.6-0.3c0.1-1.4,0.2-3.1,0.3-4.8C26.3,57.7,33.5,57.6,40.8,57.4z"/>
</g>
</svg>
