<?xml version="1.0" encoding="utf-8"?>
<!-- Generator: Adobe Illustrator 24.3.0, SVG Export Plug-In . SVG Version: 6.00 Build 0)  -->
<svg version="1.1" id="Layer_1" xmlns="http://www.w3.org/2000/svg" xmlns:xlink="http://www.w3.org/1999/xlink" x="0px" y="0px"
	 viewBox="0 0 150 150" style="enable-background:new 0 0 150 150;" xml:space="preserve">
<style type="text/css">
	.st0{fill:#CDEEFD;}
	.st1{fill:#111224;}
	.st2{fill:#005BAB;}
</style>
<path class="st0" d="M1465.3,1556.3c-2.4-0.2-4.3-1.3-4.4-4.1c-0.1-6.7,1.6-10,4.9-9.9c0.2,0,0.3,0,0.5,0c2.2,0.5,4.3,2.1,3.2,4
	C1467.7,1549.5,1473.1,1555.7,1465.3,1556.3z M1465.5,1554.4c1.3-0.1,2.3-0.6,2.3-2.1c-0.1-1.7-1.5-2.1-2.8-2.4c-1.6-0.4-2,0.8-2,2
	C1463,1553.5,1464,1554.2,1465.5,1554.4z M1467.8,1546.5c0-1.4-0.6-2.2-2.1-2.2c-0.9,0-1.6,0.4-1.7,1.4c-0.2,1.4,0.9,2.1,2,2.5
	C1467.3,1548.5,1467.6,1547.5,1467.8,1546.5z"/>
<path class="st0" d="M1455.8,1556.6c-0.5-2.9-1.8-4.2-4.6-3.6c-0.7,0.2-1.7,0.3-2.1-0.8c-0.4-1.1,0.1-1.5,1.2-2.1
	c2.1-1.2,2.1-3.9,3.2-5.8c0.6-1,1-2.2,2.5-1.9c1.4,0.3,0.9,1.6,0.8,2.5C1456.4,1548.6,1458.4,1552.5,1455.8,1556.6z"/>
<path class="st1" d="M1465.5,1554.4c-1.5-0.1-2.6-0.8-2.5-2.4c0-1.2,0.4-2.4,2-2c1.2,0.3,2.7,0.7,2.8,2.4
	C1467.8,1553.7,1466.8,1554.2,1465.5,1554.4z"/>
<path class="st1" d="M1467.8,1546.5c-0.2,1-0.5,2.1-1.8,1.7c-1.1-0.4-2.1-1-2-2.5c0.1-1,0.8-1.4,1.7-1.4
	C1467.2,1544.3,1467.8,1545,1467.8,1546.5z"/>
<g>
	<path class="st2" d="M19.6,92.3c-2,0.8-3.8,1-5.6,0.5c-3.3-0.9-5.4-3.7-5.5-7.2c-0.1-7.2-0.1-14.5-0.2-21.7c0-4.6-0.1-9.2-0.1-13.8
		c0-8.6,6.5-16,15.2-16.8c3.8-0.3,7.7-0.2,11.6-0.2c2.9,0,5.8,0,8.7,0.1c5.8,0.1,10.6,2.3,14.4,6.7c2.2,2.5,3.2,5.6,3.2,8.9
		c0.1,12.2,0.1,24.5,0.3,36.7c0.1,5.5-4.9,8.8-9.4,7.7C51.8,93,51.5,93,51,92.9c0,0.6,0,1.1,0,1.6c0,14.6,0,29.1,0,43.7
		c0,4.2-1.7,7-5.1,8.3c-3.7,1.4-7.7,0.5-10.3-2.5c-0.1-0.1-0.2-0.2-0.4-0.4c-0.1,0.1-0.3,0.1-0.4,0.3c-2.6,3.5-6.9,3.7-9.9,2.6
		c-3.4-1.3-5.4-4.3-5.4-8.4c0-8.3,0-16.5,0-24.7c0-6.5,0-13,0-19.4C19.6,93.5,19.6,93,19.6,92.3z M47.8,96.3c0-14.2,0-28.3,0-42.5
		c0-1.9,0.5-2.7,1.7-2.7c1.1,0,1.6,0.8,1.6,2.6c0,11.4,0,22.8,0,34.2c0,1.2,0.5,1.7,1.5,2c3,0.9,5.7-1.1,5.7-4.2
		c0-12.3-0.1-24.6-0.2-36.9c0-3.2-1.3-5.9-3.6-8.1c-2.7-2.5-5.9-4.1-9.5-4.2c-6.9-0.2-13.8-0.3-20.8,0c-7.3,0.3-12.9,6.6-12.9,13.8
		c0.1,11.7,0.3,23.5,0.3,35.2c0,3.4,3.6,5.5,6.7,3.9c0.8-0.5,1.3-1,1.3-2.1c0-11.2,0-22.4,0-33.6c0-1.8,0.4-2.5,1.5-2.5
		c1.2,0,1.6,0.7,1.6,2.5c0,28.1,0,56.3,0,84.5c0,3.5,2.2,5.7,5.5,5.7c3,0,5.2-2.4,5.2-5.7c0-16.2,0-32.5,0-48.8c0-0.4,0-0.8,0-1.2
		c0.1-0.9,0.6-1.5,1.6-1.5c0.9,0,1.5,0.5,1.6,1.5c0,0.4,0,0.7,0,1.1c0,16.3,0,32.7,0,49c0,3.2,2.6,5.7,5.8,5.7c3.5,0,5.4-2,5.4-5.5
		C47.8,124.3,47.8,110.3,47.8,96.3z"/>
	<path class="st2" d="M92.6,15.8c0,2.6,0,5.2,0,7.8c0,0.7,0.3,1.4,0.6,2c2.8,4.7,5.6,9.4,8.3,14.1c1,1.8,1.4,3.7,1.4,5.8
		c0,28.6,0,57.1,0,85.7c0,8.8-5.6,16.2-13.9,18.2c-11.6,2.8-22.5-5.8-22.6-17.8c0-7.2,0-14.4,0-21.6c0-21.6,0-43.1,0-64.7
		c0-1.7,0.2-3.4,1.1-4.9c2.9-5,5.9-10,8.8-15.1c0.4-0.7,0.7-1.6,0.7-2.5c0.1-4.8,0-9.7,0-14.5c0-3.4,1.5-5.9,4.6-7.3
		c3-1.4,5.8-0.9,8.4,1.1c1.8,1.5,2.7,3.5,2.7,5.8C92.7,10.5,92.6,13.1,92.6,15.8z M99.6,46.1c0.3-1.9,0.1-3.4-0.8-4.9
		c-2.8-4.6-5.5-9.3-8.3-13.9c-0.7-1.2-1-2.3-1-3.6c0-5.1,0-10.1,0-15.2c0-3-2-5.1-4.6-5.1c-2.7,0-4.6,2.1-4.6,5.1c0,5,0,10,0,15
		c0,1.3-0.4,2.3-1.1,3.4c-3.2,5-6.1,10.2-9.1,15.4c-0.4,0.7-0.5,1.5-0.5,2.3c0,29,0,57.9,0,86.9c0,8.4,6.7,15.2,15,15.2
		c8.3,0,15.1-6.7,15.1-15.1c0-7.4,0-14.9,0-22.3c0-0.4,0-0.8-0.1-1.4c-1.3,0-2.5,0-3.6,0c-1.2,0-1.9-0.6-1.9-1.5
		c0-1,0.7-1.6,1.9-1.6c1.2,0,2.4,0,3.6,0c0-2.3,0-4.4,0-6.6c-0.5,0-0.9,0-1.3,0c-1.8,0-3.6,0-5.4,0c-1.4,0-2.1-0.6-2.1-1.6
		c0-1,0.7-1.6,2.1-1.6c1,0,2.1,0,3.1,0c1.2,0,2.4,0,3.6,0c0-2.3,0-4.3,0-6.6c-1.3,0-2.5,0-3.7,0c-1.3,0-1.9-0.5-1.9-1.5
		c0-1,0.7-1.6,1.9-1.6c1.2,0,2.4,0,3.6,0c0-2.3,0-4.4,0-6.6c-0.5,0-1,0-1.4,0c-1.9,0-3.7,0-5.6,0c-1.2,0-1.9-0.7-1.9-1.6
		c0-1,0.7-1.5,1.9-1.6c0.5,0,1,0,1.6,0c1.8,0,3.6,0,5.4,0c0-2.3,0-4.3,0-6.6c-1.3,0-2.5,0-3.7,0c-1.3,0-1.9-0.6-1.9-1.6
		c0-1,0.7-1.6,2-1.6c1.2,0,2.4,0,3.5,0c0-2.3,0-4.4,0-6.6c-0.5,0-0.9,0-1.3,0c-1.9,0-3.7,0-5.6,0c-1.3,0-2-0.6-2-1.6
		c0-1,0.7-1.5,1.9-1.5c0.4,0,0.7,0,1.1,0c1.9,0,3.8,0,5.8,0c0-2.2,0-4.3,0-6.4c-0.1-0.1-0.2-0.1-0.3-0.1c-1,0-2.1,0-3.1,0
		c-1.4,0-2.1-0.6-2.1-1.6c0-1,0.7-1.6,2.1-1.6C97.3,46.1,98.4,46.1,99.6,46.1z"/>
	<path class="st2" d="M115.5,41.3c-2,0-3.8,0-5.7,0c-0.9,0-1.7-0.1-2.1-1c-0.4-0.9-0.1-1.7,0.5-2.4c4.9-5.9,9.9-11.9,14.8-17.8
		c1.1-1.3,2.2-1.3,3.3,0c4.9,5.9,9.9,11.9,14.8,17.8c0.6,0.7,0.9,1.4,0.5,2.3c-0.4,0.9-1.2,1.1-2.1,1.1c-1.9,0-3.8,0-5.7,0
		c0,0.6,0,1,0,1.5c0,5.2,0,10.4,0,15.5c0,2-0.6,2.6-2.6,2.6c-4.4,0-8.8,0-13.2,0c-1.9,0-2.5-0.6-2.5-2.5c0-5.2,0-10.4,0-15.5
		C115.5,42.4,115.5,42,115.5,41.3z M112.4,38.1c1.4,0,2.5,0,3.5,0c2.4,0,2.9,0.5,2.9,3c0,5.1,0,10.2,0,15.3c0,1,0.3,1.3,1.3,1.3
		c3.1-0.1,6.1,0,9.2,0c0.4,0,0.8,0,1.3-0.1c0-0.6,0-1.1,0-1.6c0-5.1,0-10.2,0-15.3c0-2,0.7-2.6,2.6-2.6c1.2,0,2.4,0,3.9,0
		c-4.2-5.1-8.2-9.9-12.3-14.8C120.6,28.2,116.6,33,112.4,38.1z"/>
	<path class="st2" d="M115.5,108.8c0-0.7,0-1.2,0-1.8c0-5.1,0-10.3,0-15.5c0-1.7,0.7-2.4,2.4-2.4c4.5,0,8.9,0,13.4,0
		c1.8,0,2.5,0.7,2.5,2.5c0,5.2,0,10.5,0,15.7c0,0.4,0,0.9,0,1.4c1.9,0,3.7,0,5.5,0c1,0,1.9,0.1,2.3,1.1c0.4,1,0,1.7-0.6,2.4
		c-4.9,5.9-9.8,11.8-14.7,17.6c-1.1,1.4-2.3,1.4-3.4,0c-4.9-5.9-9.9-11.9-14.8-17.8c-0.6-0.7-0.8-1.5-0.5-2.3
		c0.4-0.9,1.2-1.1,2.1-1.1C111.7,108.8,113.5,108.8,115.5,108.8z M112.3,112c4.2,5.1,8.3,9.9,12.4,14.9c4.1-5,8.2-9.8,12.4-14.9
		c-1.4,0-2.6,0-3.7,0c-2.1,0-2.7-0.6-2.8-2.7c0-5.1,0-10.2,0-15.3c0-0.5,0-0.9,0-1.5c-4,0-7.8,0-11.8,0c0,0.5,0,1,0,1.4
		c0,5.1,0,10.2,0,15.3c0,2.2-0.6,2.8-2.8,2.8C114.9,112,113.8,112,112.3,112z"/>
	<path class="st2" d="M21.1,17c0-7.8,6.2-14.1,14-14.1c7.7,0,14,6.3,14,14S42.8,31,35.1,31C27.4,31,21.2,24.7,21.1,17z M45.8,17
		c0-6-4.8-10.8-10.8-10.8c-5.9,0-10.8,4.9-10.8,10.9c0,5.9,4.9,10.7,10.8,10.8C41,27.8,45.8,23,45.8,17z"/>
	<path class="st2" d="M83.1,77.1c0-14.5,0-29,0-43.6c0-1.9,0.5-2.6,1.6-2.6s1.6,0.8,1.6,2.6c0,29,0,58.1,0,87.1
		c0,1.1,0.2,1.6,1.4,2.1c3.5,1.3,5.6,5.1,4.9,8.7c-0.8,3.9-4,6.6-7.9,6.6c-3.8,0-7-2.8-7.7-6.7c-0.7-3.6,1.5-7.4,5-8.7
		c1-0.3,1.3-0.8,1.3-1.8C83,106.3,83.1,91.7,83.1,77.1L83.1,77.1z M80,129.9c0,2.6,2,4.7,4.6,4.8c2.6,0,4.7-2,4.7-4.6
		c0-2.6-2.1-4.7-4.6-4.7C82.1,125.3,80.1,127.4,80,129.9z"/>
</g>
</svg>
