<svg width="128" height="128" viewBox="0 0 128 128" fill="none" xmlns="http://www.w3.org/2000/svg">
<g clip-path="url(#clip0_210_170)">
<path d="M12.1174 65.7067V76.712C12.1174 79.6602 14.5162 82.0589 17.4647 82.0589H43.0398V84.1732C43.0398 87.3642 45.6358 89.9599 48.8265 89.9599H59.625C60.6607 89.9599 61.5 89.1204 61.5 88.0849C61.5 87.0494 60.6607 86.2099 59.625 86.2099H48.8265C47.7035 86.2099 46.7898 85.2962 46.7898 84.1732C46.7898 81.8272 46.7898 74.2137 46.7898 71.7742C46.7898 62.236 54.441 54.44 63.7667 54.315C73.1867 54.185 81.2102 61.8623 81.2102 71.5237V84.1732C81.2102 85.2964 80.2964 86.2099 79.1734 86.2099H68.3752C67.3395 86.2099 66.5002 87.0494 66.5002 88.0849C66.5002 89.1204 67.3395 89.9599 68.3752 89.9599H79.1734C82.3644 89.9599 84.9601 87.3639 84.9601 84.1732V82.0589H110.535C113.484 82.0589 115.883 79.6602 115.883 76.712V65.4845C115.883 57.6963 111.127 51.0471 104.437 48.1803C106.484 46.8118 108.155 44.8761 109.196 42.5333C109.616 41.5868 109.19 40.4791 108.243 40.0586C107.298 39.6383 106.189 40.0648 105.768 41.0111C104.241 44.4493 100.826 46.6713 97.0678 46.6713C91.8199 46.6713 87.5504 42.4018 87.5504 37.1539C87.5504 31.8921 91.8324 27.6364 97.0678 27.6364C101.021 27.6364 104.502 30.0176 105.938 33.7029C106.313 34.6676 107.401 35.1451 108.365 34.7696C109.33 34.3939 109.808 33.3069 109.432 32.3419C107.431 27.2054 102.578 23.8864 97.0681 23.8864C94.8096 23.8864 92.6819 24.4552 90.8181 25.4547C89.8986 24.8427 88.9381 24.3172 87.9429 23.8847C91.4121 21.5339 93.6969 17.5607 93.6969 13.0635C93.6969 5.86098 87.8374 0.00125122 80.6347 0.00125122C73.4319 0.00125122 67.5725 5.86073 67.5725 13.0635C67.5725 17.5682 69.8647 21.5474 73.3437 23.8964C72.0464 24.4604 70.8127 25.1769 69.6684 26.0312C67.923 25.2994 66.0082 24.8939 64.0002 24.8939C62.039 24.8939 60.1675 25.2829 58.455 25.9827C57.318 25.1462 56.0965 24.4469 54.815 23.8939C58.2917 21.5444 60.582 17.5664 60.582 13.0637C60.582 5.86123 54.7225 0.00150122 47.5198 0.00150122C40.3171 0.00150122 34.4576 5.86098 34.4576 13.0637C34.4576 17.5647 36.7461 21.5414 40.2203 23.8912C39.2016 24.3362 38.2203 24.8767 37.2848 25.5097C35.3971 24.4757 33.2323 23.8867 30.9324 23.8867C23.6166 23.8867 17.6649 29.8384 17.6649 37.1541C17.6649 41.7546 20.0197 45.8143 23.5861 48.1953C16.8604 51.1108 12.1174 57.8893 12.1174 65.7067ZM97.2821 50.4258C105.477 50.5416 112.132 57.2598 112.132 65.4842V76.7117C112.132 77.5922 111.416 78.3087 110.535 78.3087H84.9601V71.5232C84.9601 68.2857 84.1891 64.8582 82.5264 61.7363C84.1844 55.4873 89.6204 50.4763 97.2821 50.4258ZM71.3219 13.0635C71.3219 7.92872 75.4994 3.75124 80.6342 3.75124C85.7689 3.75124 89.9464 7.92847 89.9464 13.0635C89.9464 18.1984 85.7689 22.3757 80.6342 22.3757C75.4994 22.3757 71.3219 18.1982 71.3219 13.0635ZM80.4342 26.1257C82.9614 26.0892 85.3946 26.6919 87.5831 27.8761C85.1521 30.3594 83.8004 33.7069 83.8004 37.1539C83.8004 41.6908 86.1244 45.7988 89.7136 48.1916C85.4439 50.0308 81.9214 53.4525 79.9137 57.9188C77.7847 55.4373 75.0077 53.3635 71.8007 52.071C76.3619 49.2061 79.0677 44.0886 78.6674 38.5321C78.3707 34.4319 76.3829 30.6841 73.2334 28.1516C75.4112 26.8669 77.8962 26.1597 80.4342 26.1257ZM63.9997 28.6439C70.0282 28.6439 74.9604 33.5494 74.9604 39.6043C74.9604 45.6453 70.0457 50.5621 64.005 50.5646C64.0035 50.5646 64.002 50.5648 64.0005 50.5648H64C63.9985 50.5648 63.9967 50.5646 63.9952 50.5646C63.9937 50.5646 63.992 50.5646 63.9902 50.5646C57.9657 50.5586 53.0395 45.6621 53.0395 39.6043C53.0395 33.5381 57.985 28.6439 63.9997 28.6439ZM54.8423 28.0894C51.406 30.8109 49.2895 35.0146 49.2895 39.6046C49.2895 44.6633 51.895 49.3671 56.1985 52.0708C53.1108 53.3193 50.353 55.3098 48.148 57.9093C46.2045 53.5045 42.6476 50.0438 38.2991 48.1831C41.8878 45.7906 44.2001 41.6548 44.2001 37.1539C44.2001 33.6366 42.7896 30.3369 40.4778 27.9414C42.5673 26.7799 44.8953 26.1582 47.3195 26.1257C49.959 26.0862 52.5625 26.7766 54.8423 28.0894ZM38.2071 13.0635C38.2071 7.92872 42.3846 3.75124 47.5193 3.75124C52.654 3.75124 56.8315 7.92847 56.8315 13.0635C56.8315 18.1984 52.654 22.3757 47.5193 22.3757C42.3846 22.3757 38.2071 18.1982 38.2071 13.0635ZM21.4146 37.1539C21.4146 31.9059 25.6841 27.6364 30.9321 27.6364C36.1591 27.6364 40.4496 31.8851 40.4496 37.1539C40.4496 42.2428 36.3781 46.6543 30.8824 46.6701C25.6574 46.6431 21.4146 42.3851 21.4146 37.1539ZM30.7279 50.4211C37.6303 50.3223 43.8136 55.0448 45.5298 61.7738C43.9421 64.7662 43.0401 68.2237 43.0401 71.7737V78.3087H17.4647C16.5842 78.3087 15.8674 77.5922 15.8674 76.7117V65.7065C15.8674 57.388 22.5336 50.5311 30.7279 50.4211Z" fill="white"/>
<path d="M78.5688 113.355C79.8415 112.114 80.291 110.293 79.7415 108.603C79.1925 106.913 77.7583 105.704 75.9995 105.448L71.041 104.728C70.7525 104.686 70.5033 104.505 70.3743 104.243L68.1568 99.7501C67.3703 98.1564 65.7773 97.1661 64 97.1661C62.2225 97.1661 60.6298 98.1564 59.843 99.7501L57.6255 104.243C57.4965 104.505 57.2473 104.686 56.9588 104.728L52 105.448C50.2413 105.704 48.8073 106.913 48.258 108.603C47.709 110.294 48.1585 112.115 49.431 113.355L53.019 116.852C53.2278 117.056 53.323 117.349 53.274 117.636L52.4268 122.575C52.1265 124.327 52.8333 126.064 54.2713 127.109C55.7085 128.153 57.579 128.289 59.1528 127.461L63.5875 125.13C63.8458 124.994 64.154 124.994 64.4118 125.13L68.8468 127.461C70.42 128.289 72.2905 128.153 73.7285 127.109C75.1665 126.064 75.8733 124.327 75.5725 122.575L74.7258 117.637C74.6765 117.349 74.7718 117.056 74.9805 116.853L78.5688 113.355ZM72.3633 114.167C71.2708 115.232 70.7723 116.766 71.0303 118.27L71.8773 123.209C71.9613 123.698 71.6588 123.977 71.525 124.075C71.391 124.172 71.0325 124.373 70.5925 124.142L66.1573 121.81C64.8068 121.1 63.1943 121.101 61.8433 121.81L57.4083 124.142C56.9683 124.373 56.61 124.172 56.476 124.075C56.342 123.977 56.0395 123.698 56.1235 123.208L56.9708 118.27C57.2285 116.766 56.7303 115.232 55.6375 114.167L52.0495 110.67C51.6935 110.323 51.774 109.919 51.8255 109.762C51.8765 109.604 52.0488 109.231 52.54 109.159L57.4985 108.439C59.0088 108.219 60.3138 107.271 60.989 105.903L63.2065 101.41C63.4263 100.964 63.8353 100.916 64.0008 100.916C64.166 100.916 64.575 100.964 64.7948 101.41L67.0123 105.903C67.6875 107.272 68.9925 108.219 70.5025 108.439L75.4608 109.159C75.9528 109.231 76.1248 109.605 76.1758 109.762C76.227 109.92 76.3075 110.323 75.9518 110.67L72.3633 114.167Z" fill="white"/>
<path d="M106.296 102.403C105.833 100.977 104.623 99.9564 103.139 99.7409L99.4812 99.2094C99.4284 99.2016 99.3827 99.1686 99.3594 99.1209L97.7237 95.8064C97.0599 94.4614 95.7159 93.6259 94.2159 93.6259C92.7162 93.6259 91.3722 94.4614 90.7084 95.8064L89.0727 99.1209C89.0492 99.1686 89.0037 99.2016 88.9512 99.2094L85.2932 99.7409C83.8089 99.9566 82.5992 100.977 82.1357 102.403C81.6722 103.83 82.0514 105.366 83.1254 106.413L85.7722 108.993C85.8104 109.03 85.8279 109.083 85.8192 109.136L85.1939 112.779C84.9407 114.257 85.5369 115.723 86.7507 116.605C87.9634 117.486 89.5414 117.6 90.8697 116.902L94.1414 115.182C94.1887 115.157 94.2452 115.157 94.2917 115.182L97.5634 116.902C98.8904 117.6 100.469 117.486 101.683 116.604C102.896 115.723 103.492 114.257 103.239 112.779L102.614 109.135C102.605 109.083 102.622 109.03 102.661 108.993L105.308 106.413H105.307C106.381 105.366 106.76 103.829 106.296 102.403ZM102.689 103.727L100.042 106.307C99.1197 107.206 98.6994 108.501 98.9174 109.769L99.5422 113.412C99.5484 113.449 99.5589 113.511 99.4777 113.57C99.3964 113.629 99.3409 113.6 99.3077 113.583L96.0359 111.863C95.4659 111.563 94.8409 111.413 94.2157 111.413C93.5907 111.413 92.9654 111.563 92.3957 111.863L89.1239 113.583C89.0909 113.6 89.0354 113.63 88.9539 113.57C88.8727 113.511 88.8834 113.449 88.8894 113.412L89.5147 109.769C89.7322 108.5 89.3117 107.206 88.3894 106.307L85.7424 103.727C85.7157 103.701 85.6707 103.657 85.7017 103.562C85.7327 103.466 85.7949 103.457 85.8319 103.452L89.4899 102.92C90.7644 102.735 91.8652 101.935 92.4349 100.78L94.0707 97.4659C94.0872 97.4321 94.1152 97.3759 94.2154 97.3759C94.3159 97.3759 94.3439 97.4324 94.3604 97.4659L95.9962 100.78C96.5659 101.935 97.6669 102.735 98.9414 102.92L102.599 103.451C102.636 103.457 102.698 103.466 102.729 103.561C102.76 103.657 102.716 103.701 102.689 103.727Z" fill="white"/>
<path d="M126.921 96.2442C127.9 95.2899 128.245 93.8894 127.823 92.5889C127.401 91.2884 126.297 90.3584 124.944 90.1617L122.003 89.7344L120.687 87.0689C120.082 85.8429 118.857 85.0812 117.489 85.0814C116.122 85.0814 114.897 85.8432 114.292 87.0692L112.977 89.7344L110.035 90.1617C108.682 90.3584 107.579 91.2884 107.156 92.5887C106.734 93.8889 107.08 95.2897 108.059 96.2439L110.187 98.3184L109.684 101.248C109.453 102.596 109.997 103.932 111.103 104.736C112.211 105.54 113.65 105.642 114.859 105.007L117.489 103.624L120.12 105.007C121.33 105.643 122.769 105.539 123.875 104.735C124.981 103.932 125.525 102.595 125.294 101.248L124.791 98.3182L126.921 96.2442ZM122.105 95.7012C121.264 96.5209 120.881 97.7009 121.08 98.8574L121.535 101.514L119.149 100.26C118.629 99.9867 118.06 99.8502 117.49 99.8502C116.92 99.8502 116.35 99.9867 115.83 100.26L113.444 101.514L113.9 98.8569C114.098 97.6999 113.714 96.5199 112.874 95.7009L110.943 93.8192L113.611 93.4314C114.773 93.2627 115.777 92.5334 116.296 91.4809L117.489 89.0632L118.682 91.4809C119.202 92.5334 120.205 93.2624 121.367 93.4314L124.035 93.8192L122.105 95.7012Z" fill="white"/>
<path d="M22.6934 106.413L25.3404 108.992C25.3784 109.029 25.3959 109.083 25.3869 109.135L24.7622 112.778C24.5084 114.256 25.1047 115.722 26.3182 116.604C27.5314 117.485 29.1102 117.6 30.4379 116.902L33.7094 115.182C33.7564 115.157 33.8129 115.157 33.8597 115.182L37.1314 116.901C38.4584 117.599 40.0369 117.486 41.2507 116.604C42.4642 115.722 43.0604 114.256 42.8072 112.778L42.1822 109.135C42.1732 109.083 42.1907 109.029 42.2289 108.992L44.8754 106.412C45.9497 105.365 46.3287 103.829 45.8654 102.403C45.4019 100.976 44.1922 99.9561 42.7077 99.7406L39.0502 99.2091C38.9974 99.2014 38.9517 99.1684 38.9284 99.1206L37.2927 95.8061C36.6289 94.4611 35.2849 93.6256 33.7849 93.6256C32.2852 93.6256 30.9412 94.4611 30.2774 95.8061L28.6417 99.1206C28.6182 99.1684 28.5727 99.2014 28.5202 99.2091L24.8622 99.7406C23.3779 99.9564 22.1682 100.976 21.7047 102.403C21.2402 103.829 21.6194 105.366 22.6934 106.413ZM25.2699 103.562C25.3009 103.466 25.3632 103.457 25.4002 103.452L29.0582 102.92C30.3327 102.735 31.4334 101.935 32.0032 100.78L33.6389 97.4659C33.6554 97.4321 33.6834 97.3759 33.7837 97.3759C33.8842 97.3759 33.9122 97.4324 33.9287 97.4659L35.5644 100.78C36.1342 101.935 37.2352 102.735 38.5097 102.92L42.1672 103.451C42.2044 103.457 42.2667 103.466 42.2977 103.561C42.3287 103.657 42.2837 103.701 42.2567 103.727L39.6099 106.307C38.6877 107.206 38.2672 108.501 38.4852 109.769L39.1099 113.412C39.1162 113.449 39.1267 113.511 39.0454 113.57C38.9644 113.629 38.9087 113.6 38.8754 113.582L35.6037 111.862C34.4639 111.263 33.1029 111.263 31.9632 111.862L28.6917 113.582C28.6587 113.6 28.6032 113.63 28.5214 113.57C28.4402 113.511 28.4507 113.449 28.4569 113.412L29.0817 109.77C29.2997 108.501 28.8792 107.206 27.9569 106.307L25.3102 103.727C25.2842 103.701 25.2389 103.657 25.2699 103.562Z" fill="white"/>
<path d="M10.51 85.0814C9.1427 85.0814 7.91745 85.8429 7.3122 87.0692L5.99695 89.7344L3.05545 90.1617C1.7022 90.3584 0.599204 91.2884 0.176704 92.5889C-0.245546 93.8892 0.0999544 95.2899 1.07895 96.2442L3.20745 98.3184L2.7047 101.248C2.4737 102.596 3.01745 103.932 4.1237 104.736C5.22945 105.539 6.66845 105.643 7.87895 105.007L10.5095 103.624L13.1402 105.007C14.3502 105.643 15.7892 105.539 16.8955 104.736C18.0017 103.932 18.5455 102.596 18.3142 101.248L17.8117 98.3184L19.9402 96.2439C20.9192 95.2897 21.2652 93.8889 20.8425 92.5887C20.4202 91.2882 19.317 90.3582 17.9637 90.1617L15.0222 89.7344L13.707 87.0692C13.102 85.8432 11.8772 85.0814 10.51 85.0814C10.5102 85.0814 10.5105 85.0814 10.51 85.0814ZM14.3882 93.4314L17.0562 93.8192L15.1257 95.7009C14.2852 96.5202 13.9017 97.6999 14.1 98.8574L14.5555 101.514L12.169 100.26C11.1302 99.7139 9.8897 99.7139 8.85045 100.26L6.4642 101.514L6.9197 98.8579C7.11845 97.7012 6.73545 96.5209 5.8942 95.7009L3.9637 93.8192L6.6317 93.4314C7.7932 93.2627 8.79695 92.5334 9.31645 91.4809L10.5095 89.0632L11.7025 91.4809C12.2227 92.5334 13.2265 93.2627 14.3882 93.4314Z" fill="white"/>
</g>
<defs>
<clipPath id="clip0_210_170">
<rect width="128" height="128" fill="white"/>
</clipPath>
</defs>
</svg>
