<svg width="128" height="128" viewBox="0 0 128 128" fill="none" xmlns="http://www.w3.org/2000/svg">
<g clip-path="url(#clip0_210_178)">
<path d="M124.875 41.0465H101.359V20.7445H103.017C104.74 20.7445 106.142 19.3427 106.142 17.6195V12.75C106.142 11.0267 104.74 9.625 103.017 9.625H78.765C77.9882 8.29225 76.5438 7.39175 74.8893 7.39175H71.939V4.46875C71.939 2.00475 69.9277 0 67.4557 0H60.5443C58.0723 0 56.061 2.00475 56.061 4.46875V7.39175H53.111C51.4565 7.39175 50.012 8.29225 49.2352 9.625H40.4272C39.3917 9.625 38.5522 10.4642 38.5522 11.5C38.5522 12.5358 39.3917 13.375 40.4272 13.375H48.6278V16.9945H25.608V13.375H32.8332C33.8687 13.375 34.7082 12.5358 34.7082 11.5C34.7082 10.4642 33.8687 9.625 32.8332 9.625H24.9832C23.26 9.625 21.8582 11.0267 21.8582 12.75V17.6195C21.8582 19.3427 23.26 20.7445 24.9832 20.7445H26.641V41.0465H3.125C1.40175 41.0465 0 42.4483 0 44.1715V49.041C0 50.7643 1.40175 52.166 3.125 52.166H4.19625V123.625C4.19625 126.037 6.159 128 8.57125 128H119.429C121.841 128 123.804 126.037 123.804 123.625V52.1657H124.875C126.598 52.1657 128 50.764 128 49.0407V44.1712C128 42.4482 126.598 41.0465 124.875 41.0465ZM101.359 78.418H120.054V86.6653H101.359V78.418ZM101.359 90.4153H120.054V99.2083H101.359V90.4153ZM120.054 74.668H101.359V65.875H120.054V74.668ZM102.392 16.9945H79.3723V13.375H102.392V16.9945ZM52.3778 11.8605C52.3778 11.4643 52.7065 11.1418 53.111 11.1418H57.936C58.9715 11.1418 59.811 10.3025 59.811 9.26675V4.46875C59.811 4.0725 60.1398 3.75 60.5443 3.75H67.4557C67.86 3.75 68.189 4.0725 68.189 4.46875V9.26675C68.189 10.3025 69.0283 11.1418 70.064 11.1418H74.8893C75.2935 11.1418 75.6225 11.4643 75.6225 11.8605V18.7335C75.6225 19.1297 75.2938 19.4522 74.8893 19.4522H70.064C69.0283 19.4522 68.189 20.2915 68.189 21.3272V26.1252C68.189 26.5215 67.8602 26.844 67.4557 26.844H60.5443C60.14 26.844 59.811 26.5215 59.811 26.1252V21.3275C59.811 20.2917 58.9715 19.4525 57.936 19.4525H53.111C52.7068 19.4525 52.3778 19.13 52.3778 18.7337V11.8605ZM26.6408 86.6653H7.94625V78.418H26.6408V86.6653ZM26.6408 74.668H7.94625V65.875H26.6408V74.668ZM7.94625 90.4153H26.6408V99.2083H7.94625V90.4153ZM3.75 44.7965H26.6408V48.416H3.75V44.7965ZM26.6408 52.1657V62.125H7.94625V52.1657H26.6408ZM7.94625 123.625V102.958H26.6408V124.25H8.57125C8.22675 124.25 7.94625 123.97 7.94625 123.625ZM44.625 106.518H62.125V124.25H44.625V106.518ZM65.875 124.25V106.518H83.375V124.25H65.875ZM87.125 124.25V106.518H88.0167C89.74 106.518 91.1417 105.116 91.1417 103.393V98.5232C91.1417 96.8 89.74 95.3982 88.0167 95.3982H78.8305C77.7947 95.3982 76.9555 96.2375 76.9555 97.2732C76.9555 98.309 77.7947 99.1482 78.8305 99.1482H87.3917V102.768C71.7972 102.768 56.2025 102.768 40.608 102.768V99.1482H71.3505C72.3863 99.1482 73.2255 98.309 73.2255 97.2732C73.2255 96.2375 72.3863 95.3982 71.3505 95.3982H39.983C38.2598 95.3982 36.858 96.8 36.858 98.5232V103.393C36.858 105.116 38.2598 106.518 39.983 106.518H40.8747V124.25H30.3905V20.7445H49.1125C49.8525 22.2002 51.3647 23.2025 53.1107 23.2025H56.0607V26.1255C56.0607 28.5895 58.0717 30.5942 60.544 30.5942H67.4555C69.9275 30.5942 71.9388 28.5895 71.9388 26.1255V23.2025H74.889C76.635 23.2025 78.1473 22.2002 78.8873 20.7445H97.609V124.25H87.125ZM119.429 124.25H101.359V102.958H120.054V123.625C120.054 123.97 119.773 124.25 119.429 124.25ZM120.054 62.125H101.359V52.1657H120.054V62.125ZM124.25 48.4157H101.359V44.7962H124.25V48.4157Z" fill="white"/>
<path d="M57.363 38.4185H44.0923C42.369 38.4185 40.9673 39.8203 40.9673 41.5435V51.6685C40.9673 53.3918 42.369 54.7935 44.0923 54.7935H57.363C59.0863 54.7935 60.488 53.3918 60.488 51.6685V41.5435C60.488 39.8203 59.086 38.4185 57.363 38.4185ZM56.738 51.0435H44.7173V42.1685H56.738V51.0435Z" fill="white"/>
<path d="M83.908 38.4185H70.6372C68.914 38.4185 67.5122 39.8203 67.5122 41.5435V51.6685C67.5122 53.3918 68.914 54.7935 70.6372 54.7935H83.908C85.6312 54.7935 87.033 53.3918 87.033 51.6685V41.5435C87.033 39.8203 85.631 38.4185 83.908 38.4185ZM83.283 51.0435H71.2622V42.1685H83.283V51.0435Z" fill="white"/>
<path d="M57.363 61.8108H44.0923C42.369 61.8108 40.9673 63.2125 40.9673 64.9358V75.0608C40.9673 76.784 42.369 78.1858 44.0923 78.1858H57.363C59.0863 78.1858 60.488 76.784 60.488 75.0608V64.9358C60.488 63.2128 59.086 61.8108 57.363 61.8108ZM56.738 74.4358H44.7173V65.5608H56.738V74.4358Z" fill="white"/>
<path d="M83.908 61.8108H70.6372C68.914 61.8108 67.5122 63.2125 67.5122 64.9358V75.0608C67.5122 76.784 68.914 78.1858 70.6372 78.1858H83.908C85.6312 78.1858 87.033 76.784 87.033 75.0608V64.9358C87.033 63.2128 85.631 61.8108 83.908 61.8108ZM83.283 74.4358H71.2622V65.5608H83.283V74.4358Z" fill="white"/>
</g>
<defs>
<clipPath id="clip0_210_178">
<rect width="128" height="128" fill="white"/>
</clipPath>
</defs>
</svg>
