<svg width="106" height="128" viewBox="0 0 106 128" fill="none" xmlns="http://www.w3.org/2000/svg">
<path d="M104.013 99.0898C105.049 99.0898 105.888 98.2503 105.888 97.2148V18.2903C105.888 17.2548 105.049 16.4153 104.013 16.4153H97.8069V9.95625C97.8069 8.92075 96.9674 8.08125 95.9319 8.08125H89.7257V1.875C89.7257 0.8395 88.8862 0 87.8507 0H1.98669C0.951194 0 0.111694 0.8395 0.111694 1.875V109.71C0.111694 110.745 0.951194 111.585 1.98669 111.585H8.19295V117.791C8.19295 118.827 9.03245 119.666 10.0679 119.666H16.2742V126.125C16.2742 127.161 17.1137 128 18.1492 128H104.013C105.048 128 105.888 127.161 105.888 126.125V105.964C105.888 104.929 105.048 104.089 104.013 104.089C102.977 104.089 102.138 104.929 102.138 105.964V124.25H20.0244V119.666H95.9319C96.9674 119.666 97.8069 118.827 97.8069 117.791V85.878C97.8069 84.8425 96.9674 84.003 95.9319 84.003C94.8964 84.003 94.0569 84.8425 94.0569 85.878V115.916H11.9429V111.585H87.8504C88.8859 111.585 89.7254 110.745 89.7254 109.71V70.1543C89.7254 69.1188 88.8859 68.2793 87.8504 68.2793C86.8149 68.2793 85.9754 69.1188 85.9754 70.1543V107.835H3.86169V3.75H85.9754V61.382C85.9754 62.4175 86.8149 63.257 87.8504 63.257C88.8859 63.257 89.7254 62.4175 89.7254 61.382V11.8313H94.0567V77.122C94.0567 78.1575 94.8962 78.997 95.9317 78.997C96.9672 78.997 97.8067 78.1575 97.8067 77.122V20.1653H102.138V97.215C102.138 98.2502 102.978 99.0898 104.013 99.0898Z" fill="white"/>
<path d="M38.7125 46.3222V11.4715C38.7125 10.436 37.873 9.5965 36.8375 9.5965H11.5833C10.5478 9.5965 9.70825 10.436 9.70825 11.4715V46.322C9.70825 47.3575 10.5478 48.197 11.5833 48.197H36.8375C37.873 48.1972 38.7125 47.3577 38.7125 46.3222ZM34.9625 44.4472H13.4583V13.3465H34.9623V44.4472H34.9625Z" fill="white"/>
<path d="M80.129 11.4715C80.129 10.436 79.2895 9.5965 78.254 9.5965H45.9287C44.8932 9.5965 44.0537 10.436 44.0537 11.4715V20.058C44.0537 21.0935 44.8932 21.933 45.9287 21.933H78.254C79.2895 21.933 80.129 21.0935 80.129 20.058V11.4715ZM76.379 18.183H47.8037V13.3465H76.379V18.183Z" fill="white"/>
<path d="M78.254 27.2745H45.9287C44.8932 27.2745 44.0537 28.114 44.0537 29.1495C44.0537 30.185 44.8932 31.0245 45.9287 31.0245H78.254C79.2895 31.0245 80.129 30.185 80.129 29.1495C80.129 28.114 79.2895 27.2745 78.254 27.2745Z" fill="white"/>
<path d="M78.254 35.3557H45.9287C44.8932 35.3557 44.0537 36.1952 44.0537 37.2307C44.0537 38.2662 44.8932 39.1057 45.9287 39.1057H78.254C79.2895 39.1057 80.129 38.2662 80.129 37.2307C80.129 36.1952 79.2895 35.3557 78.254 35.3557Z" fill="white"/>
<path d="M78.254 44.4473H45.9287C44.8932 44.4473 44.0537 45.2868 44.0537 46.3223C44.0537 47.3578 44.8932 48.1973 45.9287 48.1973H78.254C79.2895 48.1973 80.129 47.3578 80.129 46.3223C80.129 45.2868 79.2895 44.4473 78.254 44.4473Z" fill="white"/>
<path d="M78.254 53.5385H30.7762C29.7407 53.5385 28.9012 54.378 28.9012 55.4135C28.9012 56.449 29.7407 57.2885 30.7762 57.2885H78.254C79.2895 57.2885 80.129 56.449 80.129 55.4135C80.129 54.378 79.2895 53.5385 78.254 53.5385Z" fill="white"/>
<path d="M21.685 53.5385H11.5833C10.5478 53.5385 9.70825 54.378 9.70825 55.4135C9.70825 56.449 10.5478 57.2885 11.5833 57.2885H21.6848C22.7203 57.2885 23.5598 56.449 23.5598 55.4135C23.5598 54.378 22.7205 53.5385 21.685 53.5385Z" fill="white"/>
<path d="M78.254 62.6302H30.7762C29.7407 62.6302 28.9012 63.4697 28.9012 64.5052C28.9012 65.5407 29.7407 66.3802 30.7762 66.3802H78.254C79.2895 66.3802 80.129 65.5407 80.129 64.5052C80.129 63.4697 79.2895 62.6302 78.254 62.6302Z" fill="white"/>
<path d="M21.685 62.6302H11.5833C10.5478 62.6302 9.70825 63.4697 9.70825 64.5052C9.70825 65.5407 10.5478 66.3802 11.5833 66.3802H21.6848C22.7203 66.3802 23.5598 65.5407 23.5598 64.5052C23.5598 63.4697 22.7205 62.6302 21.685 62.6302Z" fill="white"/>
<path d="M78.254 71.7215H30.7762C29.7407 71.7215 28.9012 72.561 28.9012 73.5965C28.9012 74.632 29.7407 75.4715 30.7762 75.4715H78.254C79.2895 75.4715 80.129 74.632 80.129 73.5965C80.129 72.561 79.2895 71.7215 78.254 71.7215Z" fill="white"/>
<path d="M21.685 71.7215H11.5833C10.5478 71.7215 9.70825 72.561 9.70825 73.5965C9.70825 74.632 10.5478 75.4715 11.5833 75.4715H21.6848C22.7203 75.4715 23.5598 74.632 23.5598 73.5965C23.5598 72.561 22.7205 71.7215 21.685 71.7215Z" fill="white"/>
<path d="M78.254 80.813H30.7762C29.7407 80.813 28.9012 81.6525 28.9012 82.688C28.9012 83.7235 29.7407 84.563 30.7762 84.563H78.254C79.2895 84.563 80.129 83.7235 80.129 82.688C80.129 81.6525 79.2895 80.813 78.254 80.813Z" fill="white"/>
<path d="M21.685 80.813H11.5833C10.5478 80.813 9.70825 81.6525 9.70825 82.688C9.70825 83.7235 10.5478 84.563 11.5833 84.563H21.6848C22.7203 84.563 23.5598 83.7235 23.5598 82.688C23.5598 81.6525 22.7205 80.813 21.685 80.813Z" fill="white"/>
<path d="M78.254 89.9045H30.7762C29.7407 89.9045 28.9012 90.744 28.9012 91.7795C28.9012 92.815 29.7407 93.6545 30.7762 93.6545H78.254C79.2895 93.6545 80.129 92.815 80.129 91.7795C80.129 90.744 79.2895 89.9045 78.254 89.9045Z" fill="white"/>
<path d="M21.685 89.9045H11.5833C10.5478 89.9045 9.70825 90.744 9.70825 91.7795C9.70825 92.815 10.5478 93.6545 11.5833 93.6545H21.6848C22.7203 93.6545 23.5598 92.815 23.5598 91.7795C23.5598 90.744 22.7205 89.9045 21.685 89.9045Z" fill="white"/>
</svg>
