<?xml version="1.0" encoding="utf-8"?>
<!-- Generator: Adobe Illustrator 24.3.0, SVG Export Plug-In . SVG Version: 6.00 Build 0)  -->
<svg version="1.1" id="Layer_1" xmlns="http://www.w3.org/2000/svg" xmlns:xlink="http://www.w3.org/1999/xlink" x="0px" y="0px"
	 viewBox="0 0 150 150" style="enable-background:new 0 0 150 150;" xml:space="preserve">
<style type="text/css">
	.st0{fill:#005BAB;}
</style>
<g>
	<path class="st0" d="M55,149.7c-11.8,0-23.5,0-35.3,0c-0.6,0-1.3,0-1.9,0c-1.2-0.1-2.1-0.6-2.1-2c0-1.5,1-1.9,2.2-2
		c3.7,0,7.3,0.1,11,0c2.4-0.1,5.4,1.1,6.9-0.6c1.4-1.6,0.4-4.8,0.4-7.2c0.1-6.8,0-13.6,0-20.4c0-1.8-0.3-2.4-2.2-2.4
		c-7.6-0.1-12.7-5-14.3-13.1c-0.6-3.3-0.8-6.6-0.7-10c0-1,0.3-2.2-1.3-2.2c-1.8,0-2.2-1.2-2.1-2.9c0-10.5,0-20.9,0-31.4
		c0-3.5,1.7-6.2,4.4-7.6c1.7-0.9,2-1.8,1.9-3.5c0-0.6,0-1.2,0-1.7c0-1.5,0.4-2.8,2-2.8c1.5,0,1.8,1.3,1.8,2.7c0,0.5-0.1,1,0,1.4
		c0.2,1.1-0.7,2.8,1.3,2.8c1.5,0,3.2,0.8,4.2-1.7c2.6-6.4,10.5-9.1,16.3-5.9c3.2,1.8,4.5,4.8,4.4,8.5c0,1.8,0.4,3.1,1.8,4.1
		c0.6,0.5,1.3,1,1.8,1.7c5,6.8,11.6,8.8,19.3,7.7c2.2-0.3,4.4-0.1,6.7,0c3.6,0,6.4,1.6,7.7,5.4c0.5,1.3,1.2,1.6,2.4,1.6
		c2.6-0.1,5.2,0,7.7,0c2.4,0,4.6,0.9,5.7,3c1,1.8,2.1,2.4,3.8,2.1c0.4-0.1,0.9,0,1.3,0c1.1,0.1,1.9,0.8,1.9,2c0,1.3-0.9,2-2,1.9
		c-2.7-0.4-4.4,0.7-5.9,3.1c-0.9,1.5-2.7,2-4.5,2C90.4,82,81,82.6,71.6,81.9c-1.2-0.1-1.3,0.7-1.7,1.3c-5.1,7.5-10.5,14.7-16.9,21.1
		c-0.7,0.7-0.9,1.3-0.9,2.3c0,8.5,0,17.1,0,25.6c0,1.6,0.5,2,2,2.1c4.8,0.3,8.2,3.8,8.4,8.9c0.1,2.1,0.8,2.5,2.5,2.5
		c8.5-0.1,16.9,0,25.4,0c0.6,0,1.2,0,1.9,0c1.2,0,2.2,0.5,2.2,1.9c0,1.6-1,2.1-2.3,2.1c-4.3,0-8.5,0-12.8,0
		C71.2,149.7,63.1,149.7,55,149.7z M78.6,68.1c1.6,0,3.2,0.1,4.8,0c0.7,0,1.8,0.6,2.1-0.5c0.2-1-0.8-1.6-1.6-2
		c-0.7-0.3-1.5-0.4-2.3-0.4c-3.4,0-6.8-0.4-10.1,0.1C65.1,66,59.9,64.4,55.8,59c-1.2-1.5-2.6-2.9-4.2-4c-2.5-1.9-3.6-4.1-3.4-7.5
		c0.2-3.8-1.5-5.3-5.1-5.3c-0.9,0-1.8,0-2.7,0c-3.6,0.1-6.1,2.7-6.1,6.5c-0.1,13.3,0,26.7,0,40c0,2.1,0.8,4.1,2.6,4.5
		c3,0.7,3.1,2.8,2.9,5.3c-0.1,1.4-0.1,2.9,0,4.3c0.2,2-1,5.1,0.5,5.8c1.6,0.7,3.4-1.9,5.2-3c2.2-1.4,2.8-3.2,2.8-5.9
		c-0.2-7.6-0.4-15.2,0-22.7c0.4-6.2-0.6-11.3-6-14.5c-0.2-0.1-0.4-0.4-0.6-0.6c-1-1-1.4-2.1-0.5-3.3c1-1.3,2.1-0.6,3,0.3
		c2.7,2.6,5.7,5,8.2,7.8c4.2,5,9.1,7.7,15.5,6.4c0.1,0,0.2,0,0.3,0c1.7,0.2,2.7-0.2,2.6-2.4c-0.1-1.8,0.9-2.8,2.7-2.7
		C75.2,68.1,76.9,68.1,78.6,68.1z M30.7,68.3c0-3.8,0-7.7,0-11.5c0-6.9-0.3-7.2-6.7-6.2c-0.1,0-0.2,0-0.3,0
		c-2.7,0.5-4.3,2.3-4.3,5.3c-0.1,9.3,0,18.6,0,27.9c0,1.6,0.6,2,1.9,1.9c2.5-0.1,5-0.1,7.5,0c1.5,0.1,2-0.6,2-2.2
		C30.6,78.5,30.7,73.4,30.7,68.3z M39.9,129.5c0,4.7,0,9.4,0,14.1c0,1.4,0.3,2.1,1.7,2.1c5.2,0,10.5,0,15.7,0c1.3,0,1.6-0.6,1.6-1.9
		c-0.1-3.4-2.5-5.7-6.1-5.7c-4.5-0.1-4.5-0.1-4.5-5c0-7.3,0-14.6,0-21.9c0-0.6,0.1-1.6-0.3-1.9c-0.7-0.7-1.2,0.4-1.8,0.7
		c-1.5,0.9-3,2.1-4.6,2.8c-1.4,0.6-1.8,1.5-1.8,3.1C39.9,120.5,39.9,125,39.9,129.5z M36.3,104.1c-0.1-3.4,1-7.2-3.2-9
		c-0.7-0.3-1.4-1.6-1.6-2.5c-0.5-2.8-2.2-3.3-4.4-3c-0.8,0.1-1.6,0.1-2.4,0c-1.4-0.1-1.8,0.6-1.9,2c-0.2,3.3,0,6.5,0.8,9.7
		c1,4,2.7,7.5,6.7,9c4.6,1.8,6.1,0.8,6.1-4.3C36.3,105.4,36.3,104.7,36.3,104.1z M52.2,99c1.2-0.3,1.6-1.2,2.2-1.9
		c4.9-5.4,9.2-11.3,13.3-17.5c0.4-0.7,1.3-1.3,0.8-2.2c-0.4-0.7-1.3-0.4-2-0.3c-5.2,0.5-10.1,0-13.8-4.7c-0.1-0.1-0.3,0-0.5,0.1
		C52.2,81.2,52.2,89.9,52.2,99z M87.8,78.4c3.7,0,7.5,0,11.2,0c2,0,3.6-0.7,3.7-3.1c0-2.5-1.7-3.1-3.7-3.1c-7.5,0-15,0.1-22.4-0.1
		c-2.7,0-1.9,1.9-1.9,3.3c-0.1,1.4-0.5,3.1,1.9,3C80.3,78.2,84,78.4,87.8,78.4z"/>
	<path class="st0" d="M57.6,16.7c-0.1,8.7-7,16.2-15.1,16.1c-8.2-0.1-14.9-7.5-14.9-16.2c0-8.8,6.8-16.2,14.9-16.2
		C50.7,0.3,57.6,7.8,57.6,16.7z M42.7,4.6c-6-0.1-11,5.1-11.1,11.4c-0.1,7.1,4.6,12.4,10.9,12.5c6,0.1,11.3-5.5,11.3-12
		C53.7,9.9,48.8,4.7,42.7,4.6z"/>
	<path class="st0" d="M124.1,75.2c-1.4,2.1-3,3.2-4.9,0.5c-0.5-0.7-1-0.5-1.3,0.3c-0.8,1.8-2.1,1.6-3.2,0.7c-1-0.8-0.9-2.1,0.1-3
		c1.3-1.1,2.5-0.4,3.1,1c0.6,1.5,1,1,1.5,0c1.3-2.2,2.7-2.3,4.1-0.2c0.5,0.8,0.9,0.6,1.4,0c1-1.3,2.2-2.1,3.6-0.6
		c0.8,0.9,0.8,2.1-0.2,2.8c-1.5,1.1-2.9,0.7-3.8-1.1C124.5,75.5,124.3,75.4,124.1,75.2z"/>
	<path class="st0" d="M124.1,68.9c-1.1,2.3-2.6,3-4.2,1.8c-1-0.7-1-2.2,0-3c1.8-1.4,3.1-0.2,4.1,1.7c1-1.9,2.3-3.1,4.1-1.7
		c1,0.8,1,2.2,0,2.9C126.6,71.8,125.1,71.5,124.1,68.9z"/>
	<path class="st0" d="M128.9,81.2c0,0.9-0.3,1.5-1.1,1.8c-1,0.4-2,0.4-2.7-0.5c-0.7-1-1.1-1.4-2,0c-0.8,1.3-2.2,1.2-3.3,0.1
		c-0.9-0.9-0.8-1.9,0.1-2.8c1.1-1.1,2.5-1.1,3.2,0.3c1,1.9,1.4,0.8,2.1-0.2c0.6-0.9,1.5-1,2.4-0.6C128.4,79.6,128.9,80.3,128.9,81.2
		z"/>
	<path class="st0" d="M128.9,87.3c-0.1,1.4-0.9,2.1-2.1,2.1c-1.3,0-2.3-0.8-2.2-2.3c0.1-1.3,1.1-1.9,2.3-1.9
		C128.1,85.2,128.9,85.8,128.9,87.3z"/>
	<path class="st0" d="M132.2,79.1c1.1,0.2,2.1,0.7,2.1,2.1c0,1.6-1,2.2-2.3,2.1c-1.1-0.1-2.1-0.7-1.9-2.2
		C130.1,79.7,131,79.2,132.2,79.1z"/>
	<path class="st0" d="M132.1,77.3c-1.1-0.2-2.1-0.6-2.1-2.1c0.1-1.6,1.1-2,2.3-2c1.2,0.1,2,0.8,1.9,2.2
		C134.2,76.8,133.2,77.2,132.1,77.3z"/>
	<path class="st0" d="M132.3,85.1c1.1,0.3,2.1,0.7,2,2.2c-0.1,1.6-1.1,2.2-2.4,2c-1.1-0.1-2-0.9-1.9-2.3
		C130.2,85.6,131.1,85.3,132.3,85.1z"/>
	<path class="st0" d="M134.3,69.3c-0.1,1.5-1,2-2.2,1.9c-1.4,0-2.2-0.7-2.1-2.3c0.1-1.4,1.1-1.8,2.3-1.8
		C133.5,67.2,134.3,67.9,134.3,69.3z"/>
	<path class="st0" d="M132,61.2c1.2,0,2.2,0.5,2.2,1.9c0.1,1.4-0.7,2.1-1.9,2.1c-1.3,0.1-2.3-0.4-2.3-2
		C130,61.8,130.9,61.3,132,61.2z"/>
	<path class="st0" d="M126.7,61.2c1.2-0.1,2.1,0.5,2.2,1.9c0.1,1.3-0.7,2.1-1.9,2.2c-1.4,0.1-2.3-0.6-2.3-2
		C124.6,62,125.4,61.2,126.7,61.2z"/>
</g>
</svg>
