<?xml version="1.0" encoding="utf-8"?>
<!-- Generator: Adobe Illustrator 24.3.0, SVG Export Plug-In . SVG Version: 6.00 Build 0)  -->
<svg version="1.1" id="Layer_1" xmlns="http://www.w3.org/2000/svg" xmlns:xlink="http://www.w3.org/1999/xlink" x="0px" y="0px"
	 viewBox="0 0 150 150" style="enable-background:new 0 0 150 150;" xml:space="preserve">
<style type="text/css">
	.st0{fill:#005BAB;}
</style>
<g>
	<path class="st0" d="M0.3,145.9c1.3-3.1,2.4-6.3,4-9.3c2.6-4.9,6.6-8.6,11.5-11.3c8.4-4.6,17.2-8,26.2-11.2c2.8-1,5.6-1.9,8.4-2.9
		c0.8-0.2,1.1-0.6,1.1-1.4c0-3,0-5.9-0.1-8.9c0-0.6-0.4-1.3-0.8-1.7c-1.6-1.9-3.3-3.6-4.8-5.5c-2.6-3.2-4.2-6.8-4.7-10.8
		c-0.1-1.1-0.5-1.7-1.8-1.9c-3.2-0.6-5.8-2.4-7.4-5.2c-2.9-4.8-4.2-9.8-1.8-15.3c0.2-0.4,0-1.1-0.3-1.6c-4.2-8.6-6.7-17.6-6.7-27.2
		c0-10.4,2.8-20.1,8.5-28.8c0.6-1,1.5-1.7,2.3-2.6c0.5,0,1,0,1.5,0c0.4,0.4,0.9,0.8,1.3,1.3c4,6.1,8,7.8,15.2,6.1
		c4.5-1.1,8.9-2.6,13.3-3.8c9.1-2.5,18-2.1,26.6,1.9c4.2,1.9,7.5,4.9,9.6,9.2c0.2,0.4,0.8,0.8,1.3,0.8c12.1,0.4,17,9.5,17.3,18.4
		c0.3,7.5-1.9,14.6-4.8,21.5c-0.3,0.9-0.7,1.7-1.1,2.5c-1.3,2.4-2,4.8-1.8,7.7c0.3,4.4-1.3,8.5-4.4,11.8c-1.7,1.8-3.8,3-6.3,3.4
		c-0.7,0.1-1.1,0.3-1.2,1.1c-0.8,6.9-4.7,12.1-9.5,16.8c-0.7,0.7-1,1.4-1,2.4c0.1,2.8,0.1,5.5,0,8.3c0,0.9,0.3,1.3,1.2,1.6
		c9.9,3.3,19.7,6.7,29,11.2c1.9,0.9,3.8,1.9,5.7,3c7.7,4.2,12.2,10.8,14.7,18.9c1.3,4.3,0.5,5.3-4,5.3c-44.3,0-88.6,0-132.9,0
		c-1.4,0-2.5-0.2-3.2-1.5C0.3,147.5,0.3,146.7,0.3,145.9z M136.1,145.2c-0.1-0.4-0.1-0.7-0.2-0.9c-2.4-6.1-5.8-11.4-11.8-14.7
		c-11-6.2-22.8-10.2-34.7-14.2c-0.3-0.1-0.9,0.2-1.3,0.5c-1.1,1.1-2.1,2.4-3.3,3.3c-4.6,3.7-10.1,4.7-15.8,4.4
		c-6.4-0.3-12.1-2.4-16.1-7.8c-0.2-0.3-1-0.4-1.4-0.3c-10.2,3.3-20.3,7-29.9,11.7c-5.5,2.7-10.5,5.9-13.5,11.5
		c-1.1,2.1-2.1,4.2-3.3,6.5C48.8,145.2,92.4,145.2,136.1,145.2z M42.3,40.4c0,0.7,0,1.2,0,1.7c0.2,4.3,0.3,8.6,0.5,13
		c0.2,4.6,0.2,4.6-4.3,5c-3,0.3-4.9,1.8-5.1,4.5c-0.3,3.7,0.5,7.2,3.1,10c1.4,1.5,3.1,2.4,5.2,2.3c2.3-0.1,2.9,0.4,3.3,2.7
		c0.5,3.6,1.2,7.2,3.4,10.3C52,94.9,56.5,99.1,62,102c4.9,2.6,10,3.4,15.1,0.9C87.2,98,95,91.2,96.4,79.2c0.2-1.8,1.1-2.5,2.8-2.4
		c2.6,0.2,4.7-0.8,6-2.8c1.1-1.7,2-3.8,2.4-5.8c1.1-5.7-0.9-7.9-6.7-8c-1.8,0-2.4-0.8-2.7-2.6c-0.2-1.3-0.4-2.7-1-3.9
		c-1.5-2.6-3.3-5.1-4.9-7.7c0,0-0.1,0.1-0.2,0.3c-1.5,3.7-3.3,4.9-7.2,4.9c-9.7,0-19.3,0-29,0c-4.3,0-6.9-2.7-6.9-6.9
		c0-1.1,0-2.3,0-3.5C46.6,40.6,44.6,40.5,42.3,40.4z M38.4,55.5c-0.2-5.6-0.4-11.2-0.5-16.8c-0.1-2.4,0.7-3.1,3.2-2.9
		c2.6,0.2,5.2,0.4,7.9,0.5c0-1.3,0-2.3,0-3.3c0-4.3,2.7-7,7-7c9.8,0,19.5,0,29.3,0c3.8,0,6.2,2.1,7,5.7c1.3,6.7,3.9,12.9,7.9,18.5
		c1,1.4,1.5,3.1,2.2,4.7c0.1,0.3,0.3,0.7,0.6,0.8c2.1,0.7,4.2,1.3,6.4,2c0.6-1.5,1.4-3.2,2.1-5c2.4-6,4.2-12.1,4-18.7
		c-0.3-9.1-5.9-14.2-14.8-13.7c-1.4,0.1-2.3-0.5-2.7-1.9c-1.2-3.8-3.8-6.5-7.2-8.2c-7.7-4-15.8-4.4-24.1-2.2
		c-4.8,1.3-9.5,2.8-14.3,4c-4.8,1.1-9.5,1.1-13.7-1.9c-1.5-1-2.8-2.3-4.1-3.5c-9.3,15.1-9.1,34.6-0.6,50.2
		C35.4,56.4,36.8,56,38.4,55.5z M70.6,46.8c4.9,0,9.7,0,14.6,0c2,0,2.7-0.7,2.7-2.7c0-3.6,0-7.3,0-10.9c0-2-0.8-2.8-2.9-2.8
		c-9.6,0-19.2,0-28.9,0c-2.1,0-2.8,0.7-2.8,2.8c0,3.6,0,7.2,0,10.8c0,2.1,0.7,2.8,2.8,2.8C61,46.8,65.8,46.8,70.6,46.8z M55.8,103.3
		c0,2.3,0.2,4.2,0,6.1c-0.3,2.5,0.8,4.3,2.7,5.8c1.1,0.9,2.3,1.8,3.7,2.3c5.6,2.4,11.3,2.3,17,0.1c2.4-1,4.3-2.5,5.8-4.7
		c0.2-0.4,0.5-0.8,0.5-1.2c0-2.7,0-5.4,0-8.4C75.5,110.4,65.7,110.4,55.8,103.3z"/>
	<path class="st0" d="M138.3,0.3c2.4,0.8,4.5,2.2,5.4,4.7c0.4,1.2,0.5,2.5,0.5,3.7c0,14.1,0,28.2,0,42.3c0,1,0.3,1.7,1.1,2.3
		c5.6,4.8,5.9,13.2,0.8,18.6c-5,5.2-13.4,5.2-18.4,0.1c-5.1-5.2-4.9-13.6,0.5-18.5c0.9-0.8,1.2-1.7,1.2-2.9
		c0-13.7,0.1-27.4-0.1-41.1c0-4.6,1.5-7.8,6-9.2C136.4,0.3,137.4,0.3,138.3,0.3z M133.9,30.6c2.8,0.4,3.6,0.8,3.6,2.2
		c0,2.5-2,2.3-3.7,2.4c0,2.7,0,5.3,0,8c1.6,0.2,3.5-0.1,3.7,2.2c0.1,1.4-0.5,1.8-3.7,2.5c0,1.6-0.1,3.2,0,4.9
		c0.1,1.4-0.4,2.4-1.7,3.3c-3.2,2.1-4.5,6-3.4,9.6c1.1,3.5,4.4,5.9,8,5.9c3.7,0,7-2.4,8.1-5.9c1.1-3.6-0.1-7.4-3.3-9.5
		c-1.3-0.9-1.8-1.9-1.8-3.5c0-9.4,0-18.9,0-28.3c0-0.6,0-1.1-0.1-1.7c-2,0-3.9,0-5.9,0C133.9,25.2,133.9,27.9,133.9,30.6z M139.8,18
		c0-3.6,0-7,0-10.5c0-1.6-1.3-2.8-2.9-2.9c-1.5,0-3,1-3,2.6c-0.1,3.6,0,7.1,0,10.8C135.9,18,137.8,18,139.8,18z"/>
	<path class="st0" d="M116.1,96.6c-0.3,1.1-0.8,3.3-1.6,5.4c-0.9,2.5-2.2,4.9-2.2,7.6c0,1.2-1.1,2.1-2.2,2.1c-1.2,0-2.1-1-2.1-2.3
		c-0.1-2.8,0.8-5.4,1.9-7.8c1.2-2.5,2.3-5.1,1.6-8c-0.4-1.8-1.1-3.5-1.9-5.1c-0.7-1.5-0.6-2.7,0.5-3.4c1.1-0.7,2.3-0.3,3.2,1.1
		C115.1,88.9,116,92,116.1,96.6z"/>
	<path class="st0" d="M131.8,102.5c-0.5,2-0.9,4.1-1.7,6.1c-1,2.6-2.3,5-2.3,7.9c0,1.2-1.1,2.1-2.3,2c-1.1-0.1-2-1-2-2.2
		c-0.1-2.6,0.7-5,1.7-7.3c1.2-2.6,2.3-5.2,1.8-8.1c-0.2-1-0.5-2.1-0.7-3.1c-0.4-1.5,0.1-2.7,1.3-3.1c1.2-0.4,2.4,0.2,2.8,1.6
		C130.9,98.2,131.3,100.2,131.8,102.5z"/>
	<path class="st0" d="M25.2,94.3c0.1-2.2,0.9-5.3,2.7-8.1c0.9-1.4,2.1-1.8,3.3-1.1c1.1,0.7,1.3,2,0.4,3.4c-2.3,3.9-2.7,7.9-0.7,12.1
		c1.3,2.7,2.4,5.4,2.4,8.5c0,1.7-0.8,2.7-2.2,2.7c-1.3,0-2-1-2.3-2.5c-0.4-2.1-0.9-4.1-1.7-6.1C26.2,100.6,25.2,98.1,25.2,94.3z"/>
	<path class="st0" d="M9.5,102.2c0.5-2,0.8-4,1.4-5.9c0.4-1.4,1.6-2,2.8-1.6c1.2,0.4,1.8,1.6,1.3,3c-1.4,3.7-1,7.2,0.7,10.7
		c1.2,2.4,2.1,4.9,2,7.7c0,1.5-0.8,2.4-2.1,2.5c-1.2,0.1-2-0.9-2.3-2.3c-0.4-2.1-0.9-4.1-1.7-6.1C10.7,107.5,9.7,105,9.5,102.2z"/>
	<path class="st0" d="M79.9,86.2c-0.4,0.5-0.9,1.4-1.5,1.6c-0.7,0.2-1.6-0.2-2.4-0.4c-0.2,0-0.3-0.4-0.4-0.6
		c-1.9-4.1-7.9-4.2-9.9-0.1c-0.7,1.3-1.9,1.7-3,1c-1.1-0.6-1.5-1.9-0.8-3.2c1.9-3.5,4.8-5.4,8.8-5.4c4,0,6.9,1.9,8.8,5.4
		C79.6,85.1,79.7,85.4,79.9,86.2z"/>
	<path class="st0" d="M53.1,66.2c-1.5,0.1-2.5-0.1-3.1-1.3c-0.7-1.4,0.3-2.9,2-3.1c1.2-0.1,2.5-0.2,3.6-0.6c0.8-0.3,1.6-1,2.2-1.8
		c1-1.2,2-1.5,3.1-0.8c1.1,0.7,1.3,1.9,0.6,3.2c-1.8,3-4.6,4-7.8,4.3C53.5,66.2,53.2,66.2,53.1,66.2z"/>
	<path class="st0" d="M87.7,66.2c-2.8-0.2-5.9-1.1-7.9-4.1c-0.7-1-0.9-2.1,0-3.1c0.9-1.1,2.6-1,3.4,0.2c1.2,2,3.1,2.5,5.2,2.6
		c2,0.1,3,0.7,3,2.2C91.4,65.5,90.3,66.3,87.7,66.2z"/>
</g>
</svg>
