<?xml version="1.0" encoding="utf-8"?>
<!-- Generator: Adobe Illustrator 24.3.0, SVG Export Plug-In . SVG Version: 6.00 Build 0)  -->
<svg version="1.1" id="Layer_1" xmlns="http://www.w3.org/2000/svg" xmlns:xlink="http://www.w3.org/1999/xlink" x="0px" y="0px"
	 viewBox="0 0 150 150" style="enable-background:new 0 0 150 150;" xml:space="preserve">
<style type="text/css">
	.st0{fill:#005BAB;}
</style>
<g>
	<path class="st0" d="M7,93.4c0.4,0,0.8,0.2,1.1,0.4c7.5,4.3,15.1,8.6,22.6,13c0.4,0.2,0.9,0.5,1.1,1c0.1,0.5,0.1,1-0.3,1.4
		c-0.5,0.4-1,0.5-1.6,0.1c-1.3-0.8-2.6-1.5-4-2.3c-6.1-3.5-12.2-7-18.3-10.5c-0.2-0.1-0.4-0.3-0.6-0.2C7,95.3,7,94.4,7,93.4z"/>
	<path class="st0" d="M23.1,117.5c-2.4,0-4.8,0-7.2,0c-1,0-1.5-0.5-1.5-1.3c0-0.8,0.5-1.2,1.5-1.2c4.8,0,9.7,0,14.5,0
		c1,0,1.5,0.5,1.5,1.3c0,0.8-0.5,1.2-1.5,1.2C27.9,117.5,25.5,117.5,23.1,117.5z"/>
	<g>
		<path class="st0" d="M87.5,0.2c0.9,0.5,2,0.6,3,0.9c11.2,3.5,20.5,9.6,27.5,19.1c2.8,3.8,4.5,8.1,6.1,12.5
			c2.8,7.9,4.8,15.9,6.7,24c1.5,6.3,2.9,12.7,4.6,19c0.6,2,1,1.8-1,3.6c-8.1,7.3-17,13.2-27.3,16.9c-0.4,0.2-0.6,0.4-0.8,0.8
			c-2.7,5.5-6.3,10.4-11.3,13.9c-1.1,0.7-1.3,1.4-1.1,2.6c0.9,5,2.3,10,4.9,14.4c0.9,1.6,2.1,3.1,3.3,4.4c2.9,3.3,6.7,4.7,10.9,5.4
			c4.2,0.7,8.4,1,12.5,1.5c3.4,0.4,6.9,1,10.1,2.4c3.3,1.4,5.9,3.6,7.2,7.1c0.1,0.3,0.2,0.6,0.3,0.9c-0.9,0-1.8,0-2.7,0
			c-0.1-0.2-0.1-0.4-0.2-0.6c-1.2-2.7-3.5-4.2-6.1-5.3c-3.3-1.3-6.7-1.7-10.1-2.1c-4-0.5-8.1-0.8-12.1-1.5
			c-4.3-0.8-8.2-2.4-11.3-5.7c-1.4-1.5-2.6-3-3.6-4.7c-3-4.9-4.5-10.3-5.4-15.9c-0.1-0.7-0.3-0.7-0.8-0.4c-2.6,1.3-5.2,2.1-8.1,2.6
			c-0.9,0.2-1.9,0.3-2.8,0.5c-3.1,0.3-6.1,0.3-9.2,0c-0.9-0.1-1.8-0.3-2.7-0.4c-3-0.6-6-1.6-8.8-3c-0.2,1.2-0.4,2.3-0.7,3.4
			c-1.1,5-2.7,9.8-5.6,14.2c-3.2,4.8-7.5,8.1-13.3,9.2c-3.4,0.6-6.8,1-10.2,1.4c-3.4,0.3-6.8,0.7-10.1,1.5c-2.5,0.6-5,1.5-6.9,3.3
			c-1,0.9-1.9,2-2.2,3.4c-0.9,0-1.8,0-2.7,0c0.5-2.4,1.9-4.2,3.7-5.7c2.4-2,5.4-3,8.4-3.7c4.1-0.9,8.3-1.2,12.4-1.7
			c3.5-0.4,7-0.8,10.3-2c3.8-1.4,6.4-4.1,8.5-7.3c2.8-4.1,4.3-8.8,5.3-13.6c0.2-1.1,0.4-2.2,0.6-3.2c0.1-0.3,0-0.6-0.3-0.8
			c-5.5-3.6-9.4-8.6-12.2-14.4c-0.3-0.5-0.6-0.8-1.2-1c-9.3-3.4-17.5-8.6-25-15c-1-0.9-2-1.8-3-2.8c-0.5-0.4-0.6-0.9-0.4-1.6
			c1.8-6.1,3.1-12.3,4.6-18.5c2.1-8.6,4.1-17.1,7-25.5c2-5.8,4.5-11.2,8.6-15.9C41.9,8.7,51.1,3.3,61.8,0.5c0.3-0.1,0.6,0,0.8-0.3
			C70.9,0.2,79.2,0.2,87.5,0.2z M90.2,42.4C90.2,42.4,90.2,42.4,90.2,42.4C90.3,42.4,90.3,42.4,90.2,42.4
			C90.2,42.4,90.2,42.4,90.2,42.4c0.2-0.3-0.1-0.4-0.2-0.6c-0.6-1-1.2-2.1-1.8-3.1c-0.3-0.5-0.5-1.1-0.1-1.7c0.4-0.6,1-0.6,1.7-0.4
			c6,1.5,11.5,4,16.3,7.9c4.2,3.3,6.2,7.7,6.4,13c0,0.4,0.1,0.6,0.6,0.8c2.8,0.9,4.6,2.8,5.5,5.6c0.9,2.8,0.7,5.6-0.3,8.3
			c-1.3,3.5-3.7,6.1-6.7,8.2c-0.4,0.3-0.6,0.6-0.6,1c-0.2,1.4-0.4,2.8-0.7,4.2c-0.5,2.6-1.4,5.1-2.2,7.6c0,0-0.1,0.1-0.1,0.1
			c0.1,0,0.1,0,0.2,0c2.7-1,5.4-2.3,7.9-3.7c6-3.3,11.5-7.3,16.6-11.9c0.3-0.3,0.5-0.5,0.4-0.9c-1.8-6.4-3.2-13-4.8-19.4
			c-2-8.2-4-16.4-6.9-24.4c-1.7-4.7-3.7-9.3-7-13.1C104.6,8.2,92.1,2.3,77.1,1.4c-7.8-0.5-15.3,1-22.4,4.2
			c-12.5,5.5-21.6,14.2-26,27.4c-2.7,8.1-4.9,16.3-6.9,24.5c-1.5,6.3-2.8,12.6-4.6,18.8c-0.2,0.6,0,0.9,0.4,1.3c4.3,4,9,7.4,14,10.4
			c3.3,2,6.7,3.8,10.4,5.1c0.1,0,0.1,0,0.2,0.1c0-0.1,0-0.1,0-0.2c-1.3-3.7-2.4-7.4-2.8-11.3c-0.1-0.9-0.5-1.3-1.2-1.8
			c-4.1-3-6.8-6.7-7.1-12c-0.2-4.4,1.9-8.6,6.5-9.8c0.4-0.1,0.5-0.3,0.5-0.6c0.6-2.1,1.5-4.2,2.6-6.1c5.1-9.1,12.8-14.2,23.3-14.9
			c6.7-0.4,13.1,1,19.3,3.2C85.7,40.5,87.9,41.5,90.2,42.4z M91.8,39.9c1.1,1.8,2,3.3,3,4.9c0.4,0.6,0.5,1.2-0.1,1.8
			c-0.5,0.5-1.1,0.4-1.8,0.1c-3.1-1.7-6.3-3-9.6-4.2c-6.1-2.2-12.3-3.6-18.8-3.4c-4.3,0.2-8.4,1.2-12.1,3.5
			c-6.3,3.8-10,9.5-12.1,16.4c-0.3,0.9-0.7,1.5-1.7,1.6c-2.4,0.4-4,1.9-4.7,4.3c-0.7,2.2-0.5,4.4,0.3,6.5c1.2,3.1,3.4,5.3,6.2,7.1
			c0.8,0.5,1.1,1.1,1.3,2c0.8,6.5,2.7,12.7,6,18.4c3.6,6.2,8.5,10.9,15.2,13.5c5.3,2,10.7,2.5,16.3,1.9c7.7-0.8,14.3-4,19.4-10
			c5.9-6.9,8.7-15.2,9.9-24c0.1-0.7,0.3-1.2,0.9-1.5c1.2-0.7,2.3-1.6,3.2-2.5c2.6-2.5,4.1-5.6,3.9-9.3c-0.1-3.5-2.1-5.8-5.5-6.4
			c-0.9-0.2-1.2-0.7-1.2-1.6c0.3-4.7-1.3-8.8-4.9-11.9c-1.9-1.6-3.9-3-6.1-4.1C96.7,41.7,94.4,40.7,91.8,39.9z"/>
		<path class="st0" d="M143,96.2c-2.4,1.3-4.7,2.7-7.1,4c-5.2,3-10.3,5.9-15.5,8.9c-0.9,0.5-1.8,0.4-2.1-0.4
			c-0.3-0.7-0.1-1.3,0.6-1.7c2.4-1.4,4.8-2.8,7.2-4.2c5.3-3,10.6-6.1,15.9-9.1c0.3-0.2,0.5-0.4,0.9-0.3C143,94.4,143,95.3,143,96.2z
			"/>
		<path class="st0" d="M20.1,132.5c-0.1-0.4,0.2-0.8,0.6-1.1c4.2-2.7,8.3-5.5,12.5-8.2c0.7-0.4,1.5-0.3,1.8,0.3
			c0.4,0.6,0.2,1.3-0.5,1.8c-4.1,2.7-8.2,5.5-12.3,8.2C21.2,134.2,20.2,133.7,20.1,132.5z"/>
		<path class="st0" d="M130,132.4c0,1.1-1.1,1.7-2.1,1.1c-0.8-0.5-1.5-1-2.2-1.5c-3.2-2.1-6.4-4.2-9.6-6.3c-0.2-0.1-0.4-0.3-0.6-0.4
			c-0.6-0.5-0.8-1.2-0.4-1.8c0.4-0.6,1.2-0.8,1.8-0.3c1.9,1.2,3.8,2.5,5.7,3.7c2.2,1.5,4.4,2.9,6.7,4.4
			C129.7,131.6,129.9,132,130,132.4z"/>
		<path class="st0" d="M127,114.9c2.4,0,4.8,0,7.2,0c1,0,1.6,0.5,1.6,1.3c0,0.7-0.6,1.2-1.5,1.2c-4.8,0-9.7,0-14.5,0
			c-1,0-1.6-0.5-1.6-1.3c0-0.7,0.6-1.2,1.6-1.2C122.2,114.9,124.6,114.9,127,114.9z"/>
		<path class="st0" d="M70.4,116.8c0.3,1.7,0.4,3.5,0.4,5.3c0,0.8-0.3,1.3-0.9,1.7c-2.9,2-4.4,4.7-4.3,8.2c0.1,3.2,1.5,5.6,4.1,7.4
			c0.8,0.6,1.2,1.2,1.1,2.2c0,2.7,0,5.5,0,8.2c-0.9,0-1.7,0-2.6,0c0-2.5,0-5,0-7.6c0-0.5-0.2-0.8-0.5-1.1
			c-6.3-4.7-6.3-14.1-0.1-18.9c0.5-0.4,0.7-0.7,0.6-1.3c-0.1-1.5-0.3-3.1-0.6-4.6C68.6,116.5,69.5,116.6,70.4,116.8z"/>
		<path class="st0" d="M79.2,149.8c0-2.8,0-5.7,0-8.5c0-0.8,0.3-1.3,0.9-1.7c2.8-1.8,4.2-4.4,4.3-7.7c0.1-3.5-1.5-6.2-4.4-8.1
			c-0.6-0.4-0.8-0.8-0.8-1.5c-0.1-1.9,0.2-3.7,0.4-5.5c0.9-0.2,1.9-0.3,2.8-0.5c-0.3,1.6-0.6,3.2-0.6,4.8c0,0.5,0.1,0.8,0.5,1.1
			c6.2,4.7,6.3,14.1,0.1,18.9c-0.4,0.3-0.6,0.7-0.6,1.2c0,2.5,0,5,0,7.5C80.9,149.8,80.1,149.8,79.2,149.8z"/>
		<path class="st0" d="M42.1,93c0,0.1,0,0.1,0,0.2c-0.1,0-0.1,0-0.2-0.1C42,93.1,42.1,93.1,42.1,93z"/>
		<path class="st0" d="M108.1,93.2c-0.1,0-0.1,0-0.2,0C107.9,93.1,107.9,93.1,108.1,93.2C108,93.1,108,93.1,108.1,93.2z"/>
		<path class="st0" d="M90.2,42.4C90.2,42.4,90.2,42.4,90.2,42.4C90.3,42.4,90.3,42.4,90.2,42.4C90.2,42.4,90.2,42.4,90.2,42.4
			C90.2,42.4,90.2,42.4,90.2,42.4z"/>
		<path class="st0" d="M75,102.7c-2.2,0-4.3,0-6.5,0c-1.1,0-1.5-0.5-1.5-1.5c0.1-4,3.4-7.5,7.4-7.8c4.3-0.3,8.1,2.7,8.6,6.8
			c0,0.2,0.1,0.4,0.1,0.7c0.1,1.3-0.3,1.9-1.7,1.9C79.3,102.7,77.2,102.7,75,102.7z M69.7,100.2c3.4,0,6.7,0,10,0
			c0.7,0,0.7-0.3,0.5-0.8c-0.9-2.2-3.1-3.6-5.5-3.5C72.3,96.1,70.4,97.7,69.7,100.2z"/>
		<path class="st0" d="M73.3,69.7c-0.6,3.7,1.1,6.6,3.6,9.1c0.7,0.7,1.4,1.4,2,2.3c1.1,1.8,0.6,3.4-1.2,4.3
			c-1.2,0.6-2.5,0.9-3.8,1.1c-0.7,0.1-1.3-0.4-1.4-1c-0.1-0.7,0.2-1.3,1-1.5c0.9-0.2,1.8-0.4,2.6-0.7c1-0.4,1-0.5,0.4-1.3
			c-0.4-0.5-0.9-1-1.4-1.5c-2-2.1-3.7-4.4-4.3-7.3c-0.3-1.3-0.3-2.6-0.1-3.9c0.1-0.8,0.7-1.2,1.4-1.1C72.9,68.3,73.3,68.9,73.3,69.7
			z"/>
		<path class="st0" d="M98.3,65.4c0,1-1,1.6-1.9,1c-1-0.6-2.1-1-3.2-1.2c-1.9-0.4-3.7,0-5.3,1.1c-0.7,0.5-1.4,0.3-1.8-0.3
			c-0.4-0.6-0.3-1.3,0.4-1.8c0.2-0.1,0.4-0.3,0.6-0.4c3.6-2.2,7.8-1.4,10.8,0.4C98.1,64.6,98.3,65,98.3,65.4z"/>
		<path class="st0" d="M58.2,62.6c2.1,0,3.8,0.5,5.4,1.6c0.8,0.5,1,1.3,0.5,1.9c-0.4,0.6-1.2,0.7-2,0.2c-2.5-1.7-5.1-1.4-7.7-0.2
			c-0.2,0.1-0.4,0.2-0.7,0.3c-0.7,0.4-1.5,0.2-1.8-0.5c-0.3-0.6-0.1-1.3,0.5-1.7C54.3,63.2,56.2,62.6,58.2,62.6z"/>
		<path class="st0" d="M64.1,73.5c0,0.9-0.8,1.5-1.7,1.2c-1-0.2-2-0.4-3.1-0.4c-0.9,0-1.7,0.1-2.5,0.3c-0.8,0.2-1.5-0.1-1.7-0.7
			c-0.2-0.7,0.1-1.4,0.9-1.7c2.4-0.7,4.8-0.6,7.2,0.1C63.8,72.4,64,72.9,64.1,73.5z"/>
		<path class="st0" d="M90.9,71.7c1.1,0,2.1,0.1,3.2,0.4c0.8,0.3,1.2,0.9,1,1.7c-0.2,0.7-0.9,1-1.7,0.8c-1.8-0.5-3.5-0.4-5.2,0
			c-0.1,0-0.3,0.1-0.4,0.1c-0.8,0.1-1.4-0.2-1.6-0.9c-0.2-0.7,0.2-1.3,0.9-1.5C88.3,71.9,89.6,71.7,90.9,71.7z"/>
		<path class="st0" d="M80.5,131.6c0,3-2.4,5.4-5.4,5.5c-3.1,0-5.6-2.4-5.5-5.4c0-3.1,2.3-5.5,5.5-5.5
			C78.5,126.2,80.5,129,80.5,131.6z M77.9,131.7c0-1.6-1.3-3-2.9-2.9c-1.5,0-2.9,1.4-2.9,3c0,1.5,1.3,2.8,2.9,2.8
			C76.6,134.6,77.9,133.3,77.9,131.7z"/>
	</g>
</g>
</svg>
