<?xml version="1.0" encoding="utf-8"?>
<!-- Generator: Adobe Illustrator 24.3.0, SVG Export Plug-In . SVG Version: 6.00 Build 0)  -->
<svg version="1.1" id="Layer_1" xmlns="http://www.w3.org/2000/svg" xmlns:xlink="http://www.w3.org/1999/xlink" x="0px" y="0px"
	 viewBox="0 0 150 150" style="enable-background:new 0 0 150 150;" xml:space="preserve">
<style type="text/css">
	.st0{fill:#005BAB;}
</style>
<g>
	<path class="st0" d="M60.5,149c-2.3-2.8-4.5-5.5-7.7-9.4c1.3,0.5,1.1,0.4,0.9,0.4c-13.5-0.9-13.5-0.9-13.5-14.9
		c0-11.4,0-22.9,0-34.6c-8.7-5-10.8-14.7-14.6-23.2c-0.8-1.8,0.8-5.3,2.3-7.3c5.3-7,10.8-13.8,16.6-20.3c1.5-1.7,4.1-2.9,6.4-3.5
		c16.1-4.4,32.2-4.5,48.3,0c2.6,0.7,5.3,2.3,7.1,4.3c5.2,5.8,9.7,12.1,14.9,17.9c4.2,4.6,4.6,9,1.4,14.2c-1.7,2.8-2.7,6-4.6,8.8
		c-2.3,3.4-5,6.4-8.4,10.6c0,12.9-0.1,27.4,0.1,42c0.1,4.2-1.2,6.2-5.6,5.8c-2.7-0.2-5.4,0-6.8,0c-3,3.7-5.2,6.4-7.5,9.2
		C79.9,149,70.2,149,60.5,149z M89.7,89.5c0-11.2-0.1-21.9,0.1-32.5c0.1-2.7,1.2-5.3,1.8-7.9c2,1.6,4.3,2.9,6,4.8
		c6.3,6.7,12.7,13.3,5.5,23.6c-2.4,3.4,1,8.2,4.3,7.2c2.3-0.7,4.9-3.3,5.7-5.7c1.8-5.1,8.8-9.3,4.8-15.5c-4.5-7-10.3-13.1-15.7-19.5
		c-0.9-1.1-2.4-2-3.8-2.4c-15.7-4.4-31.5-4.3-47.2,0.1c-1.5,0.4-3,1.7-4.1,2.9c-5,5.9-9.9,12-14.7,18.1c-1,1.3-1.9,3.7-1.3,5
		c2.1,5,4.4,10,7.4,14.5c1,1.4,4.8,2.5,6.2,1.7c1.5-0.9,2.2-4,2.4-6.2c0.1-1.3-1.8-2.6-2-4c-0.4-3.4-1.7-7.6-0.2-10.2
		c2.6-4.9,6.8-8.9,10.5-13.2c0.6-0.7,2.3-1.4,2.9-1.1c1,0.6,1.7,1.9,2,3.1c0.3,1.3,0.1,2.7,0.1,4.1c0,11,0,22,0,33.3
		C70.4,89.5,79.6,89.5,89.7,89.5z M77.8,134.3c9.2,0,17.6,0,26.5,0c0-7.2-0.2-13.9,0.1-20.7c0.2-4.9-0.3-8.6-6.2-9.6
		c-1.6-0.3-3.6-1.5-4.2-2.9c-3.2-7.2-9.3-6-15.2-5.9c-4.9,0.1-9.7-0.1-14.6,0.1c-1.4,0-3,0.5-4.1,1.4c-4.5,3.6-8.9,7.3-14.2,11.9
		c0,7.2,0,16.4,0,25.7c9,0,17.6,0,26.6,0c0-7.6-0.1-14.8,0.1-21.9c0.1-1.6,1.5-3.1,2.3-4.7c1,1.6,2.8,3.1,2.8,4.7
		C77.9,119.4,77.8,126.5,77.8,134.3z M54.7,61c-2.8,2.9-8.7,4.5-5.5,9.8c4,6.5,5.4,12.6-1.5,18.7c2.9,0,4.8,0,7,0
		C54.7,79.8,54.7,70.4,54.7,61z M95.1,89.8c2.7-0.1,4.6-0.2,7.6-0.4c-6-4.8-6.6-9.9-3.8-15.6c3.6-7.3,3.3-8.1-3.8-13.2
		C95.1,70.3,95.1,79.7,95.1,89.8z M72.5,140.3c-4.6,0-8.2,0-12,0C63.8,145.7,67.9,145.9,72.5,140.3z M78.7,140.3
		c-0.2,0.8-0.4,1.6-0.6,2.4c2.5,0.6,5,1.6,7.4,1.5c1.5-0.1,2.9-2,5.4-3.9C85.7,140.3,82.2,140.3,78.7,140.3z M46,101.2
		c3.2-1.9,5.7-3.3,9.4-5.4C45.6,94.7,45.6,94.7,46,101.2z"/>
	<path class="st0" d="M75.4,31.7c-8.7-0.1-15.3-7.1-15-15.9C60.6,7.5,67.6,0.8,76,1c8.6,0.2,15.3,7.3,15,16
		C90.7,25.4,83.9,31.9,75.4,31.7z M85.8,16.6c0.1-5.4-4.3-10.1-9.8-10.2c-5.5-0.2-10.2,4.1-10.5,9.6c-0.3,5.5,4.6,10.6,10.1,10.6
		C81.1,26.6,85.7,22,85.8,16.6z"/>
</g>
</svg>
