<?xml version="1.0" encoding="utf-8"?>
<!-- Generator: Adobe Illustrator 24.3.0, SVG Export Plug-In . SVG Version: 6.00 Build 0)  -->
<svg version="1.1" id="Layer_1" xmlns="http://www.w3.org/2000/svg" xmlns:xlink="http://www.w3.org/1999/xlink" x="0px" y="0px"
	 viewBox="0 0 150 150" style="enable-background:new 0 0 150 150;" xml:space="preserve">
<style type="text/css">
	.st0{fill:#075CAA;}
</style>
<g>
	<path class="st0" d="M47.9,148.9c-1.2-0.6-1.6-1.5-1.5-2.8c0-5.2,0-10.5,0.1-15.7c0-1.3-0.5-1.8-1.6-2.2c-4.2-1.2-8.3-2.5-12.4-3.8
		c-4.5-1.4-6.7-5.2-5.7-9.7c1.4-6.4,2.8-12.9,4.2-19.3c0.4-1.9,1.1-3.7,1.8-5.5c0.6-1.4,1.7-1.9,2.9-1.4c1.2,0.5,1.5,1.7,1,3.2
		c-1.1,3.7-2.1,7.3-3.3,11.2c4.5,0,8.6,0,13,0c0-1,0-1.9,0-2.8c0-1.5,0.9-2.4,2.1-2.4c1.2,0,2.2,0.9,2.2,2.4c0,3.4,0.1,6.8,0,10.2
		c0,1,0.2,1.5,1.2,1.9c5,1.9,10.1,3.8,15.1,5.8c0.8,0.3,1.5,0.3,2.3-0.2c1.5-0.9,3.1-1.8,4.6-2.6c4.1-2.3,6.7-1.4,8.4,3
		c0.9-0.3,1.8-0.6,2.7-1c4.4-1.7,8.8-3.3,13.2-4.9c0.9-0.3,1.2-0.8,1.2-1.8c-0.1-3.3,0-6.5,0-9.8c0-0.5,0-1,0.1-1.4
		c0.3-1.1,1-1.6,2.1-1.6c1.1,0,1.9,0.7,2,1.9c0.1,1.1,0,2.2,0,3.4c4.3,0,8.4,0,12.7,0c-1.1-5.6-2-11.2-5.7-15.8
		c-3.5-4.3-7.9-7.1-13.3-8.3c-0.6-0.1-1.3,0.1-1.8,0.4c-3.5,2.6-7.4,4-11.8,4c-5.8,0-11.5,0-17.3,0c-4.4,0-8.3-1.4-11.8-4
		c-0.5-0.4-1.3-0.5-1.9-0.4c-3.6,0.8-6.8,2.3-9.7,4.6c-0.2,0.2-0.4,0.4-0.7,0.5c-1.2,0.8-2.4,0.7-3.2-0.3c-0.7-1-0.6-2.1,0.5-3.1
		c2.8-2.5,6-4.3,9.6-5.4c0.4-0.1,0.7-0.2,0.9-0.3c-0.9-2.4-1.7-4.9-2.6-7.3c-0.1-0.3-0.8-0.4-1.3-0.5c-1.9-0.4-4-0.4-5.7-1.1
		c-3.9-1.7-5.9-5-6.1-9.2c-0.1-1.9,0-3.8,0.3-5.6c0.2-1.1,0.5-2.4,1.3-3.2c1.7-1.8,1.5-3.6,1-5.8c-1.1-5.2-1.7-10.4-0.3-15.7
		c0.1-0.4,0-0.9-0.1-1.3c-1.8-5.6-0.3-10.4,3.6-14.6c4-4.3,9.3-6.7,14.9-8.1c12-2.9,23.8-2,35.1,3c0.2,0.1,0.4,0.2,0.5,0.2
		C92,6.6,92.5,7.8,91.9,9c-0.5,1.1-1.7,1.4-3.1,0.9C85.4,8.7,82,7.3,78.4,6.5C69.2,4.6,60,5,51.1,8.6c-3.3,1.3-6.3,3.2-8.5,6
		c-2.4,3-3.1,6.2-1.9,9.9c0.3,1,0.3,2.3,0.1,3.3c-1,3.9-0.6,11.8,0.8,15.5c1.8-0.2,3.5-0.3,5.5-0.5c0-1.9-0.1-3.9,0-5.8
		c0.1-1.7,0.4-3.5,1-5c1.4-3.5,4-4.5,7.6-3.3c10,3.4,20,3.9,30.2,1c2.2-0.6,4.2-1.5,6.3-2.5c2.2-1.1,4.3-1,6.2,0.5
		c3,2.2,4.5,5.2,4.5,8.9c0,2.1,0,4.1,0,6.2c1.9,0.2,3.7,0.3,5.6,0.5c0.9-3.9,1.6-7.9,1.3-12c-0.1-1.3-0.4-2.7-0.8-3.9
		c-0.7-2.4-2.4-3.8-5-3.9c-2-0.1-3.2-1.1-4-3c-0.8-1.7-1.9-3.2-3-4.7c-1-1.4-1.1-2.6-0.1-3.5c1-0.9,2.4-0.8,3.4,0.6
		c1.3,1.7,2.4,3.6,3.6,5.4c0.3,0.4,0.8,0.9,1.2,1c4.5,0.6,7.1,3.4,8.3,7.6c1.4,5,0.8,10-0.1,15c0,0.1,0,0.2-0.1,0.3
		c-0.7,2.2-0.4,4,0.9,6.2c2.6,4.3,2.4,9.2,0.1,13.7c-2,3.8-5.5,5.4-9.7,5.3c-1.3,0-1.9,0.2-2.2,1.6c-0.5,2.1-1.5,4-2.3,6.1
		c1.1,0.4,2.4,0.8,3.6,1.4c8.7,4,13.9,10.8,15.9,20.1c1.3,6,2.6,12,3.9,18c1,4.8-1,8.5-5.7,10c-4.2,1.3-8.3,2.7-12.5,3.9
		c-1.1,0.3-1.4,0.7-1.4,1.9c0.1,5.2,0,10.5,0,15.7c0,1.3-0.3,2.4-1.5,3c-0.5,0-1,0-1.4,0c-1.2-0.8-1.4-1.9-1.4-3.3
		c0-4.6,0-9.2,0-13.9c0-0.5,0-1,0-1.6c-5.2,1.6-10.1,3.1-15,4.7c-0.5,0.1-0.8,0.6-1.2,1c-3.1,2.6-6.6,4.6-10.8,3.5
		c-2-0.5-3.9-1.6-5.6-2.9c-4.8-3.6-10.5-4.4-16.1-6.4c0,0.7,0,1.3,0,1.8c0,4.6,0,9.2,0,13.9c0,1.3-0.2,2.5-1.4,3.3
		C48.8,148.9,48.3,148.9,47.9,148.9z M98.6,50.5c0-4.5,0-9,0-13.6c0-1.9-0.5-3.6-1.8-5c-1-1-1.9-1.5-3.3-0.6c-0.6,0.4-1.4,0.7-2.1,1
		c-12,4.7-24,4.4-36.2,0.7c-2.7-0.8-3.4-0.5-3.8,2.4c-0.1,0.5-0.1,1-0.1,1.4c0,8.9,0,17.7,0,26.6C51.4,72.6,57.9,79,67,79
		c5.3,0,10.6,0,15.9,0c9.3,0,15.7-6.4,15.7-15.7C98.6,59.1,98.6,54.8,98.6,50.5z M46.3,107.4c-4.7,0-9.1,0-13.7,0
		c-0.6,2.9-1.3,5.8-1.8,8.8c-0.4,2.1,0.7,3.5,2.9,4.2c6,1.8,11.9,3.7,17.9,5.5c7,2.1,14.1,3.9,20,8.6c0.6,0.5,1.4,0.7,2.1,0.8
		c3.4,0.3,5.9-1.5,7.8-4.1c2.2-3,1.9-4-1.3-5.7c-2.1-1.1-2.9-2.7-2.6-5c0.1-0.7,0.1-1.4,0.2-2.4c-0.7,0.4-1.1,0.5-1.5,0.8
		c-1.9,1.1-3.9,2.2-5.8,3.3c-1.3,0.7-2.6,0.8-4,0.3c-6.1-2.4-12.2-4.7-18.3-7c-1.2-0.5-1.8-1.3-1.8-2.6
		C46.4,111,46.3,109.3,46.3,107.4z M117.4,107.4c-4.6,0-9.1,0-13.7,0c0,1.7,0,3.3,0,5c0,2.2-0.3,2.5-2.3,3.3
		c-5.4,2.1-10.9,4.1-16.3,6.1c-0.4,0.1-0.7,0.3-0.9,0.4c0.9,1.1,1.9,2,2.4,3.2c0.5,1.2,0.6,2.6,0.8,3.9c0,0,0.2,0,0.3,0
		c9.7-3,19.3-6,29-9.1c2-0.6,2.9-2.2,2.5-4.3C118.6,113.1,118,110.3,117.4,107.4z M47,62.8c0-5.2,0-10.3,0-15.4
		c-4.4-0.6-7.6,1.3-8.2,5.1c-0.2,1-0.1,2-0.1,3C38.6,60.8,41.5,63.4,47,62.8z M103,47.4c0,5.2,0,10.3,0,15.4
		c4.5,0.5,7.6-1.4,8.2-5.2c0.2-1,0.1-2.1,0.1-3.2C111.4,49.3,108.2,46.7,103,47.4z"/>
	<path class="st0" d="M113.9,136.3c-1.4-0.4-2.7-0.7-3.9-1c-1.5-0.4-2.3-1.5-1.9-2.7c0.3-1.3,1.4-1.9,3-1.5c1.7,0.4,3.4,0.9,5.2,1.3
		c3.5,0.9,4.2,2.7,2,5.8c1.3,0.3,2.5,0.6,3.7,1c1.6,0.4,2.4,1.4,2.1,2.7c-0.3,1.3-1.4,1.9-3.1,1.5c-1.9-0.4-3.7-0.9-5.6-1.4
		c-2.8-0.7-3.5-2.8-1.9-5.1C113.6,136.8,113.7,136.6,113.9,136.3z"/>
	<path class="st0" d="M31.8,138.2c-0.4-0.6-0.7-1-0.9-1.4c-0.9-1.7-0.1-3.6,1.8-4.1c2.1-0.6,4.3-1.2,6.4-1.7
		c1.4-0.3,2.5,0.3,2.8,1.5c0.3,1.2-0.4,2.3-1.8,2.7c-0.7,0.2-1.4,0.3-2.1,0.5c-0.6,0.2-1.3,0.3-2,0.5c0.3,0.4,0.6,0.8,0.8,1.2
		c1,1.7,0.4,3.7-1.5,4.2c-2.3,0.7-4.6,1.3-7,1.8c-1.2,0.3-2.3-0.5-2.5-1.6c-0.3-1.2,0.3-2.2,1.6-2.5C28.8,139,30.2,138.6,31.8,138.2
		z"/>
	<path class="st0" d="M85.2,103.4c-0.5,1.3-0.9,2.5-1.4,3.8c-0.6,1.5-1.6,2.1-2.9,1.6c-1.2-0.5-1.7-1.6-1.1-3.1
		c0.6-1.6,1.2-3.3,1.8-4.9c1.3-3.5,3-4,6-1.6c0.5-1.3,0.9-2.5,1.4-3.7c0.6-1.5,1.6-2.1,2.9-1.7c1.3,0.4,1.7,1.6,1.2,3.2
		c-0.6,1.8-1.3,3.5-1.9,5.3c-1.1,2.9-3.1,3.4-5.4,1.4C85.6,103.6,85.4,103.6,85.2,103.4z"/>
	<path class="st0" d="M62.4,99.3c0.4-0.4,0.7-0.6,1-0.9c1.6-1.3,3.8-0.8,4.6,1.1c0.9,2.1,1.6,4.3,2.4,6.5c0.4,1.3-0.2,2.4-1.3,2.8
		c-1.2,0.4-2.2-0.1-2.7-1.4c-0.5-1.3-1-2.6-1.5-4c-0.4,0.3-0.7,0.6-1,0.9c-1.6,1.2-3.7,0.8-4.5-1.1c-0.9-2.2-1.7-4.4-2.4-6.6
		c-0.4-1.2,0.2-2.3,1.3-2.7c1.1-0.4,2.3,0.1,2.8,1.4C61.4,96.5,61.9,97.8,62.4,99.3z"/>
	<path class="st0" d="M74.9,74.3c-2,0-4,0-6.1,0c-3.4-0.1-5.9-1.8-6.9-4.7c-1-2.7-0.2-5.6,1.9-7.5c2.3-2,5.5-2.5,8.3-0.9
		c2,1.2,3.7,1.1,5.8-0.1c2.6-1.6,5.9-1.1,8.2,0.9c2.1,1.9,2.9,4.8,2,7.5c-1,2.8-3.4,4.6-6.6,4.7C79.3,74.3,77.1,74.3,74.9,74.3
		C74.9,74.3,74.9,74.3,74.9,74.3z M75,69.9c2,0,3.9,0,5.9,0c0.6,0,1.3-0.1,1.8-0.3c1.3-0.6,1.8-2.2,1.2-3.4c-0.7-1.4-2.3-2-3.8-1.4
		c-1.1,0.5-2.2,1.1-3.4,1.5c-2.4,0.7-4.5-0.2-6.6-1.3c-1.2-0.6-2.5-0.5-3.5,0.5c-0.8,0.8-1.1,1.7-0.6,2.8c0.5,1.3,1.5,1.8,2.9,1.7
		C70.9,69.9,72.9,69.9,75,69.9z"/>
	<path class="st0" d="M59.8,48.7c-1.6,0-2.6-0.7-2.7-2c-0.1-1.3,0.8-2.2,2.5-2.3c2.6-0.2,4.8-1.1,6.7-2.8c1.3-1.2,2.6-1.2,3.5-0.2
		c0.9,1,0.7,2.2-0.6,3.4C66.6,47.2,63.4,48.5,59.8,48.7z"/>
	<path class="st0" d="M90.2,48.7c-3.7-0.2-6.9-1.5-9.6-4.1c-1.2-1.2-1.4-2.4-0.4-3.4c0.9-0.9,2.1-0.9,3.3,0.2c2,1.8,4.3,2.8,7,3
		c1.5,0.1,2.5,1,2.4,2.3C92.8,48,91.8,48.7,90.2,48.7z"/>
	<path class="st0" d="M64.6,51.6c0.5,0,1.1-0.1,1.6,0c1.1,0.2,1.8,0.8,1.9,2c0.1,1.2-0.5,2-1.6,2.2c-1.2,0.2-2.5,0.2-3.7,0
		c-1.2-0.2-1.9-1-1.7-2.3c0.1-1.2,0.8-1.9,2.1-2C63.6,51.6,64.1,51.6,64.6,51.6C64.6,51.6,64.6,51.6,64.6,51.6z"/>
	<path class="st0" d="M85.4,55.9c-0.6,0-1.2,0.1-1.7,0c-1.2-0.2-1.9-1-1.8-2.2c0.1-1.2,0.8-1.9,2-2c1-0.1,1.9-0.1,2.9,0
		c1.3,0.1,2.2,0.9,2.3,2.1c0,1.2-0.9,2.1-2.2,2.2C86.4,56,85.9,55.9,85.4,55.9C85.4,55.9,85.4,55.9,85.4,55.9z"/>
</g>
</svg>
