<?xml version="1.0" encoding="utf-8"?>
<!-- Generator: Adobe Illustrator 24.3.0, SVG Export Plug-In . SVG Version: 6.00 Build 0)  -->
<svg version="1.1" id="Layer_1" xmlns="http://www.w3.org/2000/svg" xmlns:xlink="http://www.w3.org/1999/xlink" x="0px" y="0px"
	 viewBox="0 0 150 150" style="enable-background:new 0 0 150 150;" xml:space="preserve">
<style type="text/css">
	.st0{fill:#005BAB;}
</style>
<g>
	<path class="st0" d="M17.1,45.3c-3.9-1.3-4.9-2.8-4.9-6.8c0-3.4,0-6.7,0-10.1c0-3.5,2.2-5.7,5.7-5.7c14.5,0,29,0,43.6,0
		c3.5,0,5.6,2.2,5.7,5.7c0.1,3.1,0,6.3,0,9.4c0,0.5,0,1,0.3,1.6c0.5-1.7,1.1-3.4,1.6-5.1c2.5-8.6,5.1-17.2,7.6-25.7
		c2-6.8,7.6-9.8,14.4-7.8c16.5,4.9,33,9.8,49.5,14.7c6.8,2,9.8,7.6,7.8,14.4c-11,37.1-22,74.2-33.1,111.3c-2,6.8-7.7,9.8-14.6,7.8
		c-7.6-2.3-15.1-4.5-22.8-6.8c-0.2,0.3-0.3,0.6-0.4,0.8c-2,4.4-5.4,6.7-10.2,6.7c-18.4,0-36.8,0-55.2,0c-6.5,0-11.1-4.5-11.1-11.1
		C1,133.2,1,127.6,1,122c0-16.6,0-33.2,0-49.8c0-4,1.1-7.6,3.6-10.8c2.3-3,4.4-6.1,6.9-9c1.1-1.3,2.5-2.5,4-3.1
		c1.5-0.6,1.9-1.4,1.7-2.8C17.1,46.1,17.1,45.7,17.1,45.3z M78.4,95.8c-0.1,0.3-0.1,0.4-0.1,0.5c0,13.3,0,26.6,0,39.9
		c0,0.9,0.4,1.2,1.2,1.5c7.6,2.2,15.1,4.5,22.7,6.8c4.4,1.3,7.2-0.3,8.5-4.7c3.8-12.8,7.7-25.7,11.5-38.5
		c7.2-24.2,14.4-48.4,21.6-72.7c1.2-4.1-0.3-7.2-4.1-8.3c-16.7-5-33.5-10-50.3-14.9c-3.8-1.1-6.9,0.5-8,4.3
		c-4.2,14.1-8.4,28.2-12.5,42.3c-0.2,0.6,0,1.6,0.4,2.1c1.9,2.7,4,5.4,6,8.1c2,2.7,3.1,5.7,3,9.1c-0.1,1.6,0.2,2.9,1.7,3.8
		c0.6,0.3,1.1,1,1.4,1.7c1.4,2.5,2.8,4.9,4,7.4c1,1.9,1,4,0.3,6C84.6,93.5,82,95.3,78.4,95.8z M73.4,79c-22.5,0-45,0-67.4,0
		c0,17.3,0,34.4,0,51.6c22.5,0,45,0,67.4,0C73.4,113.3,73.4,96.2,73.4,79z M6,73.9c22.6,0,45,0,67.4,0c0.4-3.5-0.1-6.6-2.3-9.4
		c-2.3-2.9-4.5-5.9-6.7-8.9c-1.2-1.6-2.7-2.4-4.7-2.4c-13.4,0-26.7,0-40.1,0c-1.9,0-3.4,0.7-4.6,2.3c-2.2,3-4.4,6-6.7,8.9
		C6,67.3,5.6,70.4,6,73.9z M5.9,135.6c0,0.9,0,1.5,0,2.2c-0.4,5.3,3.1,7.4,7.3,7.3c12.1-0.1,24.2-0.1,36.3-0.1c5.9,0,11.7,0,17.6,0
		c2.4,0,4.4-0.9,5.6-3.1c1.1-2,0.8-4.2,0.7-6.4C50.9,135.6,28.5,135.6,5.9,135.6z M39.6,40.4c7,0,14,0,21.1,0c1.2,0,1.7-0.3,1.6-1.6
		c-0.1-3.2-0.1-6.5,0-9.7c0-1.1-0.3-1.6-1.5-1.6c-14.1,0-28.2,0-42.3,0c-1.3,0-1.6,0.5-1.6,1.7c0.1,3.1,0.1,6.2,0,9.3
		c0,1.5,0.4,2,1.9,2C25.8,40.3,32.7,40.4,39.6,40.4z M57.3,45.3c-11.9,0-23.6,0-35.3,0c0,1.1,0,2.1,0,3c11.8,0,23.5,0,35.3,0
		C57.3,47.2,57.3,46.3,57.3,45.3z M78.4,90.9c2.1-0.5,3.5-2.1,2.9-3.7c-0.6-2-1.7-3.8-2.6-5.6c-0.1,0.1-0.2,0.1-0.3,0.2
		C78.4,84.7,78.4,87.7,78.4,90.9z M66.5,43c-1.4,0.8-2.8,1.6-4.2,2.5c-0.3,3.3-0.2,3.4,2.4,3.7C65.3,47.1,65.9,45.1,66.5,43z"/>
	<path class="st0" d="M125.8,49.6c-2.7,0-5.2-1.5-6.8-4.3c-1.3-2.4-2.6-4.8-3.8-7.2c-2.1-4.2-0.6-9.1,3.5-11.2
		c4-2.2,8.9-0.7,11.2,3.4c1.4,2.4,2.7,4.9,3.9,7.3C136.4,43.2,132.5,49.5,125.8,49.6z M119.1,34.5c0,0.3,0,0.6,0.1,0.9
		c1.4,2.6,2.7,5.2,4.2,7.7c0.8,1.3,2.8,1.5,4.1,0.8c1.5-0.8,2.4-2.6,1.7-4.1c-1.2-2.6-2.5-5-4-7.5c-0.8-1.3-2.5-1.7-3.9-1.1
		C119.9,31.8,119.2,32.9,119.1,34.5z"/>
	<path class="st0" d="M117.8,96.7c-0.1,3.8-2.5,7-6,8.1c-3.6,1.1-7.5-0.3-9.5-3.5c-1.5-2.5-2.9-5.1-4.1-7.8
		c-1.7-3.8-0.1-8.4,3.6-10.4c3.7-2.1,8.5-1.2,10.8,2.3c1.8,2.7,3.2,5.5,4.6,8.4C117.6,94.7,117.6,95.8,117.8,96.7z M112.7,96.7
		c0-0.2,0-0.5-0.1-0.7c-1.4-2.7-2.8-5.5-4.4-8.1c-0.8-1.3-2.9-1.4-4.3-0.6c-1.4,0.9-2.1,2.6-1.4,4.1c1.2,2.5,2.6,5,4,7.4
		c0.8,1.3,2.5,1.7,3.9,1.2C111.9,99.5,112.7,98.4,112.7,96.7z"/>
	<path class="st0" d="M89.2,118.4c0.1-3.7,2.5-6.9,6-8c3.5-1,7.3,0.3,9.2,3.3c1.6,2.5,3,5,4.3,7.7c1.8,3.9,0.3,8.4-3.4,10.6
		c-3.6,2.1-8.5,1.2-10.8-2.2c-1.8-2.7-3.2-5.7-4.7-8.7C89.4,120.3,89.3,119.3,89.2,118.4z M104.4,124.6c0-0.1,0-0.4-0.1-0.6
		c-1.5-2.8-2.8-5.6-4.5-8.2c-0.8-1.3-2.7-1.4-4.1-0.6c-1.4,0.9-2.2,2.6-1.5,4c1.2,2.6,2.6,5.1,4,7.6c0.8,1.3,2.5,1.7,3.9,1.2
		C103.6,127.5,104.5,126.2,104.4,124.6z"/>
	<path class="st0" d="M94.5,59.4c-0.1,3.7-2.5,7-6,8c-3.5,1.1-7.4-0.3-9.3-3.5c-1.5-2.5-2.9-5.1-4.1-7.8c-1.8-3.8-0.1-8.3,3.5-10.5
		c3.6-2.1,8.4-1.2,10.7,2.2c1.8,2.7,3.2,5.7,4.7,8.7C94.3,57.5,94.3,58.5,94.5,59.4z M89.6,59.4c0-0.2,0-0.5-0.1-0.8
		c-1.4-2.6-2.7-5.3-4.2-7.9c-0.9-1.5-2.9-1.6-4.4-0.7c-1.5,0.9-2.2,2.6-1.4,4.2c1.2,2.5,2.5,4.8,3.8,7.2c0.8,1.4,2.4,1.8,3.8,1.4
		C88.7,62.3,89.6,61.1,89.6,59.4z"/>
	<path class="st0" d="M92,16.7c2.3,0.1,4.7,1.4,6.3,4.1c1.3,2.3,2.6,4.6,3.8,7c2,4.1,0.4,8.8-3.5,10.9c-4,2.1-8.9,0.8-11.2-3.2
		c-1.3-2.3-2.6-4.7-3.7-7.1C81,22.9,85.1,16.6,92,16.7z M98.1,31.6c0-0.3,0-0.6-0.1-0.9c-1.4-2.7-2.8-5.4-4.3-8
		c-0.9-1.4-2.8-1.6-4.2-0.9c-1.5,0.8-2.4,2.6-1.7,4.1c1.3,2.7,2.7,5.3,4.2,7.9c0.8,1.3,2.5,1.6,3.9,1.1
		C97.3,34.4,98.1,33.2,98.1,31.6z"/>
	<path class="st0" d="M125.9,68.8c-0.1,3.7-2.5,7-6,8c-3.6,1-7.4-0.3-9.3-3.5c-1.5-2.5-2.9-5.1-4-7.8c-1.7-3.9-0.1-8.3,3.6-10.4
		c3.7-2.1,8.5-1.2,10.7,2.4c1.8,2.8,3.1,5.9,4.5,8.9C125.8,67.1,125.8,68,125.9,68.8z M114.2,58.8c-2.6,0-4.2,2.6-3.1,5
		c1,2.2,2.2,4.3,3.4,6.4c1.1,1.9,3.1,2.5,4.8,1.6c1.7-0.9,2.3-3,1.4-4.9c-1.1-2.1-2.3-4.2-3.4-6.4C116.7,59.4,115.6,58.8,114.2,58.8
		z"/>
	<path class="st0" d="M48.8,113.9c0,3.3,0,6.5,0,9.7c0,3.1-0.6,3.7-3.7,3.7c-3.8,0-7.6,0-11.5,0c-2.3,0-3.1-0.8-3.1-3.1
		c0-3.3,0-6.7,0-10.2c-3.1,0-6.1,0-9,0c-0.7,0-1.4,0-2,0c-1.4-0.2-2.3-0.9-2.3-2.3c0-4.5-0.1-9,0-13.5c0-1.6,1-2.3,2.7-2.3
		c3.5,0,6.9,0,10.5,0c0-0.6,0.1-1.2,0.1-1.7c0-2.9,0-5.9,0-8.8c0-2,0.9-2.9,2.9-2.9c4.2,0,8.4,0,12.6,0c1.9,0,2.8,0.9,2.8,2.8
		c0,3.5,0,6.9,0,10.6c0.6,0,1.2,0.1,1.7,0.1c3,0,6,0,9,0c1.9,0,2.8,0.9,2.8,2.8c0,4.1,0,8.2,0,12.3c0,2.3-0.8,3.1-3.1,3.2
		c-2.9,0-5.8,0-8.6,0C50,113.9,49.4,113.9,48.8,113.9z M43.8,122.4c0.1-0.3,0.1-0.4,0.1-0.5c0-2.6,0-5.2,0-7.9c0-4.9,0.1-5,5-5
		c2.8,0,5.5,0,8.3,0c0-3,0-5.7,0-8.6c-3.3,0-6.5,0-9.7,0c-3,0-3.6-0.6-3.6-3.6c0-3.2,0-6.5,0-9.8c-2.9,0-5.7,0-8.6,0
		c0,0.7,0,1.2,0,1.8c0,2.8,0,5.7,0,8.5c0,2.2-0.8,3-3,3c-2.4,0-4.7,0-7.1,0c-1.1,0-2.1,0-3.2,0c0,3,0,5.8,0,8.6c3.5,0,6.8,0,10.2,0
		c2.2,0,3.1,0.8,3.1,3c0,2.4,0,4.7,0,7.1c0,1.1,0,2.1,0,3.3C38.4,122.4,41.1,122.4,43.8,122.4z"/>
	<path class="st0" d="M38.2,37.7c-2.1,0-4.3,0-6.4,0c-1.9,0-2.9-0.9-2.9-2.4c0-1.6,1-2.5,2.9-2.5c4.3,0,8.7,0,13,0
		c1.9,0,3,0.9,3,2.5c0,1.5-1,2.4-3,2.4C42.6,37.8,40.4,37.7,38.2,37.7z"/>
	<path class="st0" d="M55,37.7c-2.5,0-3.7-0.8-3.7-2.4c0-1.6,1.2-2.5,3.6-2.5c2.5,0,3.8,0.8,3.8,2.5C58.7,37,57.5,37.7,55,37.7z"/>
</g>
</svg>
