<?xml version="1.0" encoding="utf-8"?>
<!-- Generator: Adobe Illustrator 24.3.0, SVG Export Plug-In . SVG Version: 6.00 Build 0)  -->
<svg version="1.1" id="Layer_1" xmlns="http://www.w3.org/2000/svg" xmlns:xlink="http://www.w3.org/1999/xlink" x="0px" y="0px"
	 viewBox="0 0 150 150" style="enable-background:new 0 0 150 150;" xml:space="preserve">
<style type="text/css">
	.st0{fill:#005BAB;}
</style>
<g>
	<path class="st0" d="M511.3-48c-0.8-0.5-1-1.3-1-2.2c0-2.4,0-4.8,0-7.2c-0.6,0-1.1,0-1.7-0.1c-1.7-0.1-2.7-1.2-2.7-2.8
		c0-2.9,0-5.9,0-8.8c0-1.7,1.1-2.7,2.7-2.8c0.4,0,0.7,0,1.1,0c21.5,0,43.1,0,64.6,0c0.4,0,0.9,0,1.4,0c0-0.5,0-0.8,0-1.2
		c0-3.2,0-6.5,0-9.7c0-1.2,0.3-2.1,1.1-2.9c2-2.3,4-4.7,6-7.1c-0.6-0.6-1.1-1.3-1.7-1.9c-1.9-2.2-3.9-4.4-5.8-6.6
		c-0.4-0.5-0.8-0.6-1.4-0.3c-2.2,1-4.1,2.4-6,4c-1.4,1.1-2,2.1-2,3.9c-0.1,4.3-3.9,7.6-8.3,7.5c-4.3-0.1-7.9-3.6-7.8-7.9
		c0-1.6-0.6-2.4-1.7-3.4c-1.9-1.7-4.1-2.9-6.3-4c-0.3-0.1-0.9-0.1-1,0.1c-2.5,2.8-5,5.7-7.5,8.6c0,0,0,0.1-0.1,0.2
		c2,2.4,4,4.8,6.1,7.2c0.6,0.7,1,1.5,0.9,2.5c-0.1,1.7,0,3.5,0,5.2c0,1.3-0.6,2-1.6,1.9c-1,0-1.4-0.7-1.4-1.9c0-1.6,0-3.1,0-4.7
		c0-0.5-0.2-1-0.5-1.4c-5.2-6.3-10.5-12.5-15.8-18.7c-1-1.2-1.9-2.5-2.5-3.9c-2.2-5,0.8-9.7,6.2-9.7c2.2,0,4.3,0.4,6.5,0.7
		c3.1,0.4,6.2,0.8,9.4,1.2c-0.3-6.1,1.2-11.5,6.1-15.4c3.6-2.9,7.9-4.1,12.5-3.8c5,0.2,9.3,2.1,12.7,5.9c3.3,3.8,4.2,8.4,4,13.4
		c2.7-0.4,5.2-0.7,7.8-1c2.2-0.3,4.4-0.6,6.7-0.9c4-0.5,7.5,1.9,8.2,5.4c0.3,1.9-0.1,3.7-1.1,5.3c-1.3,1.9-2.7,3.7-4.2,5.5
		c-4.5,5.4-9.1,10.8-13.6,16.1c-0.2,0.3-0.5,0.7-0.5,1c0,3.6,0,7.2,0,11c0.5,0,0.9,0,1.3,0c8.8,0,17.5,0,26.3,0
		c2.7,0,3.6,0.9,3.6,3.5c0,2.5,0,5,0,7.4c0,2.5-0.9,3.4-3.4,3.5c-0.3,0-0.5,0-0.9,0c0,1.5,0,2.9,0,4.4c0,1,0,1.9,0,2.9
		c0.1,0.9-0.2,1.7-1,2.2C573.6-48,542.5-48,511.3-48z M602.6-57.5c-0.5,0-0.9,0-1.4,0c-12.9,0-25.7,0-38.6,0c-0.4,0-0.9,0-1.3-0.1
		c-0.8-0.2-1.1-0.7-1.1-1.5c0-0.8,0.4-1.3,1.2-1.4c0.4-0.1,0.9-0.1,1.3-0.1c14.3,0,28.6,0,43,0c0.4,0,0.8,0,1.3,0c0-2.9,0-5.6,0-8.3
		c-32.7,0-65.3,0-97.9,0c0,2.8,0,5.5,0,8.3c0.5,0,0.9,0,1.4,0c14.5,0,29,0,43.5,0c0.4,0,0.8,0,1.2,0.1c0.8,0.1,1.2,0.6,1.3,1.4
		c0,0.8-0.4,1.4-1.2,1.5c-0.4,0.1-0.9,0.1-1.3,0.1c-13,0-26.1,0-39.1,0c-0.4,0-0.9,0-1.3,0c0,2.2,0,4.3,0,6.4c29.8,0,59.4,0,89.1,0
		C602.6-53.2,602.6-55.3,602.6-57.5z M543.6-114.9c0.2,4.3,1.1,8.2,3.4,11.6c3.3,4.9,8.9,7.1,14.3,5.8c8-2,11.4-10.4,11.3-17.3
		c-6.6-0.4-12.8-1.9-18.4-5.5C551.4-117,547.9-115.3,543.6-114.9z M542.5-104.8c-0.5-1.9-1-3.6-1.4-5.4c-0.2-0.9-0.6-1.2-1.4-1.3
		c-4-0.5-8.1-1.1-12.1-1.5c-1.3-0.2-2.7-0.3-4,0c-2.2,0.4-3.3,2.2-2.6,4.3c0.5,1.4,1.2,2.7,2.2,3.9c2.4,3.1,5,6,7.5,9
		c0.2,0.2,0.2,0.5,0.4,0.8c2.6-2.9,4.9-5.6,7.4-8.4c-0.6-0.3-1.2-0.6-1.7-0.9c-1-0.5-1.3-1.3-0.9-2.2c0.4-0.9,1.3-1.1,2.3-0.5
		C539.6-106.3,541-105.6,542.5-104.8z M585-95.1c0.1-0.3,0.2-0.4,0.3-0.5c2.6-3.1,5.3-6.3,7.9-9.4c0.6-0.8,1.1-1.6,1.5-2.5
		c1.5-3.2-0.2-5.7-3.7-5.7c-0.4,0-0.7,0-1.1,0.1c-1.8,0.2-3.6,0.5-5.5,0.7c-3,0.4-6,0.8-9,1.2c-0.6,2.2-1.2,4.2-1.8,6.4
		c1.5-0.8,2.9-1.5,4.3-2.2c0.9-0.4,1.8-0.2,2.2,0.6c0.4,0.8,0.1,1.6-0.7,2.1c-0.6,0.3-1.2,0.6-1.9,1C580.2-100.7,582.5-98,585-95.1z
		 M572.6-117.9c-0.5-5.1-2.8-8.8-7.1-11c-5.1-2.6-10.3-2.3-15.6,0.4C555.8-121.1,563.7-118.6,572.6-117.9z M553-94.9
		c-0.1,2.1,0.7,3.7,2.4,4.8c1.8,1.1,3.7,1.1,5.5-0.1c1.6-1.1,2.3-2.6,2.3-4.6C559.7-93.8,556.4-93.8,553-94.9z M543.7-118
		c3.3-0.3,5.9-1.7,7.9-4.1c-1.4-1.5-2.7-2.9-4.1-4.4C545.2-124.2,544-121.4,543.7-118z"/>
	<path class="st0" d="M520.3-149.4c-1.2,0-2.3,0-3.3,0c-1,0-1.7-0.6-1.7-1.5c0-0.9,0.6-1.5,1.7-1.6c2,0,4-0.1,6,0
		c0.6,0,1.4,0.4,1.6,0.9c0.2,0.4,0,1.3-0.3,1.7c-1.3,2-2.8,3.9-4.2,5.8c-0.2,0.3-0.4,0.5-0.7,1c1.4,0,2.7,0,4,0c0.4,0,0.8,0,1.1,0.1
		c0.8,0.2,1.2,0.8,1.2,1.6c-0.1,0.8-0.5,1.4-1.4,1.4c-2.7,0-5.4,0.1-8.1,0c-1.3,0-1.9-1.4-1-2.5c1.4-1.9,2.8-3.8,4.2-5.7
		C519.7-148.6,519.9-148.9,520.3-149.4z"/>
	<path class="st0" d="M530.3-132.6c-1,0-1.7,0-2.4,0c-1.3,0-1.9-0.5-1.9-1.5c0-1,0.6-1.5,1.9-1.5c1.7,0,3.4-0.1,5.1,0
		c0.6,0,1.3,0.4,1.7,0.8c0.5,0.6,0.1,1.3-0.3,1.9c-1,1.4-2,2.7-3,4.1c0,0,0,0.1,0,0.3c0.9,0,1.7,0,2.6,0c1,0,1.7,0.6,1.7,1.5
		c0,0.9-0.7,1.5-1.7,1.5c-1.9,0-3.8,0-5.7,0c-1.5,0-2.1-1.3-1.3-2.6C528-129.5,529.1-130.9,530.3-132.6z"/>
	<path class="st0" d="M558.1-101.8c-1.1-0.3-2.1-0.6-3.1-1c-0.9-0.4-1.2-1.2-0.8-2c0.4-0.8,1.2-1.1,2.1-0.7c1.2,0.6,2.4,0.6,3.6,0
		c0.9-0.4,1.7-0.1,2.1,0.7c0.4,0.8,0.1,1.6-0.8,2C560.2-102.4,559.1-102.2,558.1-101.8z"/>
	<path class="st0" d="M551.6-109c-0.8-0.3-1.6-0.5-2.3-0.8c-0.8-0.4-1-1.3-0.7-2c0.4-0.7,1.1-1.1,1.9-0.7c0.8,0.3,1.5,0.3,2.2,0
		c0.8-0.3,1.5,0,1.9,0.8c0.4,0.8,0.2,1.5-0.6,1.9C553.2-109.5,552.4-109.3,551.6-109z"/>
	<path class="st0" d="M564.6-109c-0.8-0.3-1.6-0.4-2.3-0.8c-0.8-0.4-1.1-1.2-0.7-2c0.3-0.8,1.1-1,2-0.8c0.7,0.1,1.4,0.1,2.1,0
		c0.9-0.2,1.7,0.1,2,0.8c0.3,0.8,0.1,1.5-0.6,1.9C566.2-109.5,565.4-109.3,564.6-109z"/>
</g>
<g>
	<path class="st0" d="M25.3,116.2c2.5,0.5,9.1-1.4,9.3,1.8c-0.1,3.1-6.9,1.2-9.2,1.7c0.1,4.1-1.4,10.1,4.7,10.1
		c4.2,0.4,9.5-1.2,13.2,1.3c3,4.2,1.1,10,1.6,15c14.1,0,28.1,0,42.1,0c2-10.9,7.2-20.4,16-27.4C134.1,95,125.3,47.5,88.7,35
		c-3.1-0.4-2.9-4.4,0.2-3.6c40.6,13,49.6,65.6,15.1,91.1c-7.8,6-11.8,14.3-13.4,23.9c0.1,1.6-0.8,2.6-2,3.4c-14.7,0.1-29.5,0-44.2,0
		c-2.6,0-2.9-0.4-2.9-2.9c0-3.8,0-7.5,0-11.3c0-2.1-0.2-2.3-2.2-2.3c-3,0-6.1,0-9.1,0c-12.1-0.4-7.3-15.4-8.2-23.4
		c0.5-2.8-2.1-1.7-4-1.9c-5.4-0.1-8.4-5.4-5.7-10.1c3.1-6.2,8.8-11.4,9.2-18.6c0.8-26.8,23.4-51.7,51.1-51.1c2.7-0.4,2.7,3.8,0,3.4
		c-26.5-0.7-47.3,23.9-47.8,49.3c0.5,7-11.6,17.2-9.6,22c1.2,2.2,3.8,1.5,5.8,1.6C27.1,104.6,25,111.9,25.3,116.2z"/>
	<path class="st0" d="M55.2,96.5c-10.6,9.4-27.4-3.3-20.8-16c0.4-0.9,0.4-1.5,0-2.4c-2.8-5.5-1.3-11.9,3.6-15.7
		c0.5-0.4,0.9-1.2,1-1.8c0.6-7.3,7.5-12.6,14.7-11.4c0.5,0.1,1.3-0.2,1.6-0.5c5.4-8.2,15-8.4,21.3-1.2c6.6-4,16-1.3,19.1,6
		c0.4,0.9,0.8,1.1,1.8,1.2c5.7,0.6,9.8,3.5,11.7,8.8c1.9,5.2,0.7,10-3.2,14c-0.5,0.5-0.8,0.8-0.4,1.7c3.3,8-0.3,15.5-8.3,18.6
		c2.6,3.8,5.6,9.1,1.6,13c-2.1,2.2-5.6,2.9-8.3,1.4c-4.6-2.4-5.2-9-9.5-11.3c-2.1-0.4-4.4-1.7-6.6-1.4
		C66.9,103.8,61.5,103,55.2,96.5z M42.7,59.9c2.7-1.2,13.5-2.3,12.6,2.5c-0.5,1-1.3,1.3-2.3,0.9c-7.9-4-20.3,4.3-15.5,13
		c3.8-2.9,8.4-3.9,12.8-1.9c0.9,0.4,1.5,1.2,1.1,2.2c-0.4,1.1-1.3,1.4-2.4,1c-3.6-1.5-7.5-0.7-10.1,2.3c-8.2,9.6,5.8,22.5,14.6,13.4
		c2.1-2.2,2.6-2.1,4.2,0.6c3,5.1,9.7,6.5,14.4,2.9c3.1-3,3-8.3,0.7-11.9c-0.6-0.9-0.6-1.9,0.5-2.5c2.6-1.4,3.4,2.9,4.2,4.6
		c0.9,3.1,0.5,6.1-0.6,9.5c3.1,1.1,6.9,0.3,8.7,3.5c2.6,3.1,4.7,11.7,10,9.1c4-2.4,0.2-6.7-1.4-9.5c-1.4-2.5,0.4-4.9,2.8-5.3
		c5.4-2.1,7.9-8.6,5.3-13.3c-0.1,0-0.3,0-0.4,0.1c-2.3,2.4-18.4,0.8-11.5-3.4c4.3,1.1,8.5,2.2,12.3-1.5c7.4-6.1,3.1-18.5-6.6-17.8
		c-2.2,0.1-2.3,0-3-2.1c-2-6.3-9.7-9.1-14.6-5.4c0.2,3.4,1.9,7.6-1.3,9.9c-1.5,0.9-3.1-0.6-2.5-2c1.8-2.1,1-4.3,0.4-6.5
		c-2.1-7.9-14-8.4-17-0.7c-1,2.2-1.3,2.4-3.6,1.6C49.2,51.3,43.7,54.5,42.7,59.9z"/>
	<path class="st0" d="M78.1,20.6c-2.4,0.4-8.3,3.2-7.2-1.3c1.9-5.1,3.9-10.2,5.8-15.4c1-2.9,8.6-1,11.4-1.5c4.6,0-0.4,8-0.6,10.7
		c2.3-0.2,7.3-1,5.7,2.6c-4.5,7.7-9,15.3-13.5,23c-1,2.2-4,1.1-3.4-1.2C76.9,31.8,77.6,26.3,78.1,20.6z M86.1,5.9
		c-2.2,0.3-5.2-0.7-6.6,0.6c-1.4,3.6-2.8,7.3-4.3,11.2c3.7-0.8,7.6-2.8,6.4,2.8c-0.4,3.1-0.7,6.2-1,9.3c0.1,0,0.2,0.1,0.3,0.1
		c2.6-4.4,5.2-8.7,7.9-13.3c-2.5,0.1-6.4,1-5.1-2.6C84.4,11.3,85.2,8.7,86.1,5.9z"/>
	<path class="st0" d="M31.9,10.4c1.9-1.3,5.8-4.5,6.2-0.5c-0.2,8.9-0.6,17.9-0.9,26.8c0.2,2.2-2.9,2.7-3.4,0.6
		c-2.2-5.3-4.3-10.6-6.6-15.9c-1.9,1.4-5.9,6.9-6.9,2.2c-0.8-5.4-1.6-10.9-2.2-16.3c0.2-3.2,6.9-4.9,9.3-6.7
		C31.4-1.6,30.8,7.9,31.9,10.4z M23.3,19.9c2.1-0.7,4.8-5.7,6.4-1.6c1.4,3.3,2.7,6.7,4.2,10c0.1,0,0.2-0.1,0.2-0.1
		c0.2-5,0.3-10.1,0.5-15.4c-1.9,1.1-4.6,3.8-5.6,0.6c-0.6-2.9-1.1-5.7-1.8-8.8c-1.6,1.4-5.8,1.9-5.5,4.2
		C22.2,12.5,22.8,16.2,23.3,19.9z"/>
	<path class="st0" d="M132.6,21.5c1.9,0.8,7.3,2.1,4,4.7c-7.5,5-14.9,10-22.4,15c-0.8,0.5-1.6,0.7-2.4,0c-0.8-0.8-0.6-1.6-0.1-2.5
		c3-4.9,6.1-9.7,9-14.6c-2.4-0.6-8.7-0.9-5.7-4.5c3.8-3.7,7.7-7.4,11.6-11.1c2.2-2.3,8.1,2.7,10.9,3.4
		C142.1,14.1,133.6,18.9,132.6,21.5z M119,33.4c0.1,0.1,0.1,0.1,0.2,0.2c4.2-2.8,8.5-5.7,12.9-8.6c-2.6-1.1-6.4-1.9-3.2-5
		c1.8-1.9,3.5-3.8,5.4-5.8c-2-1-3.9-1.9-5.8-2.8c-3,2.9-6,5.7-9.2,8.7c2.9,0.8,7.9,0.7,5,4.6C122.6,27.7,120.8,30.6,119,33.4z"/>
	<path class="st0" d="M63.7,64.3c3.8,2.4,7,6,5.3,10.8c-0.3,1.1-0.9,1.9-2.2,1.6c-1.3-0.3-1.5-1.3-1.2-2.5c1.1-2.7-1.8-7.9-4.8-6.1
		c-1.8,1.9-9.4,3.7-9.6,0c0.1-1.1,0.9-1.6,1.9-1.5c5.8,0.3,8.2-2.7,8.6-8.3c0.5-2.2,3.1-1.2,3.3,0.5C64.8,60.6,64.3,62.5,63.7,64.3z
		"/>
	<path class="st0" d="M83.7,85.4c3.9-0.1,10,5.8,6.3,9.1c-3.5,1-1.3-6.7-7.5-5.3c-1,0.5-2.5-0.2-2.8-1C79.5,85.9,82,85.8,83.7,85.4z
		"/>
	<path class="st0" d="M60.8,88.4c-4.3,0-7.7-3.3-8.1-7.6c-0.1-1.1,0.2-2,1.4-2.2c2.6-0.1,2.3,4.2,4.2,5.5c1.3,1.5,5.1-0.3,5.4,2.4
		C64,87.9,62.4,88.5,60.8,88.4z"/>
	<path class="st0" d="M90.5,62.3c-0.1,4.1-2.5,7.1-6,7.6c-1,0.1-1.8-0.2-2-1.1c-0.6-3.6,5.6-1.4,4.4-7.6c0-0.3-0.2-0.7,0-0.9
		C88.5,57.2,90.6,59.9,90.5,62.3z"/>
</g>
<g>
	<path class="st0" d="M926.5-2.3c-5.4-2.8-5.4-7.4-4.7-12.8c4.2-31.5-1.1-61.6-15.1-90.1c-8.6-17.6-17.9-34.8-26.3-52.4
		c-13.5-28.3-19.8-58.2-19-89.5c0.6-24.1,7-46.7,19.1-67.6c2.6-4.6,6.7-6,10.6-3.8c4,2.2,4.9,6.5,2.3,11.3c-0.1,0.1-0.1,0.2-0.2,0.3
		c-15.2,26.3-19.2,54.6-15.9,84.4c3,27.5,13,52.5,25.4,76.9c8.5,16.7,17.1,33.5,24.3,50.8c10,23.8,12.5,48.9,10.3,74.5
		c-0.1,0.8-0.1,1.7-0.2,2.7c34.8,0,69.4,0,104.2,0c2-10.3,6.2-19.4,13.3-27.1c8.9-9.6,19.8-14.9,33.1-14.6c9.1,0.2,18.2,0.1,27.3,0
		c12.8-0.1,22-9,23.1-21.8c0.2-2.3,1.7-4.5,2.9-6.6c0.6-1.2,1.9-2,2.8-2.9c3.9-4.1,3.9-7.9,0-12.1c-6.1-6.4-5.1-11.3,2.9-14.9
		c1.2-0.6,2.5-1.1,3.7-1.7c4.3-2.2,5.7-5.8,3.9-10.3c-2.4-5.7-5-11.4-7.5-17.1c-2.7-6.2-1-10,5.4-12.1c6.2-2,12.3-4,18.5-6
		c8.7-2.8,10.2-8.3,3.9-14.9c-9.9-10.4-19.7-20.9-29.8-31.1c-9.8-9.8-14.3-21.4-14.4-35.3c-0.8-59.9-45.3-112-104.3-122.4
		c-30.4-5.4-59-0.4-85.9,14.6c-0.5,0.3-1.1,0.6-1.6,0.9c-4.1,2-8.3,0.9-10.4-2.7c-2.1-3.7-1.1-8.2,3.1-10.2
		c10-4.7,19.9-10.1,30.4-13.3c69.8-21.3,143,12.7,172.3,79.6c7.4,16.9,11.4,34.6,11.5,53c0.1,10.1,3.2,18.3,10.4,25.5
		c10.2,10.2,20.1,20.8,30.1,31.3c13.4,14.1,8.7,32.8-9.8,39c-4.1,1.4-8.3,2.7-12.7,4.1c1.5,3.5,3,6.8,4.4,10.1
		c4.8,11,2.6,20.4-6.4,28.3c-0.8,0.7-1.2,2.6-0.9,3.6c3,9.2,1.2,17.1-5.3,24.3c-1.2,1.4-2.3,3.3-2.6,5.1
		c-3.3,17.9-18.2,30.8-36.4,31.1c-8.7,0.1-17.5,0.3-26.2,0c-15.2-0.7-24.7,7.1-30.7,20c-1.8,3.9-2.9,8.3-3.2,12.6
		c-0.4,4.3-1.7,7.4-5.5,9.4C1009.3-2.3,967.9-2.3,926.5-2.3z"/>
	<path class="st0" d="M1085.9-243.3c0,45.4-37,82.3-82.3,82.3c-45.4,0-82.3-37-82.3-82.4c0-45.4,37-82.3,82.3-82.3
		C1049-325.6,1085.9-288.7,1085.9-243.3z M1003.8-310.7c-37.2-0.1-67.5,30.1-67.6,67.2c-0.1,37.2,30.1,67.5,67.2,67.6
		c37.2,0.1,67.5-30.1,67.6-67.2C1071-280.3,1040.9-310.6,1003.8-310.7z"/>
	<path class="st0" d="M916-338.6c0.1,4.1-3.3,7.6-7.5,7.6c-4,0-7.3-3.3-7.4-7.3c-0.1-4.1,3.3-7.6,7.5-7.6
		C912.5-345.8,915.9-342.5,916-338.6z"/>
	<path class="st0" d="M1003.6-250.8c20,0,36.8,16.2,37.4,35.9c0.1,5.3-2.8,8.9-7.3,9c-4.4,0.1-7.3-3.1-7.7-8.3
		c-0.8-12.3-10.4-21.6-22.5-21.6c-12,0-21.6,9.3-22.4,21.6c-0.3,5.2-3.3,8.4-7.7,8.3c-4.5-0.1-7.4-3.7-7.3-9
		C966.7-234.6,983.6-250.8,1003.6-250.8z"/>
	<path class="st0" d="M981.1-273.1c-0.1,4.1-3.7,7.5-7.8,7.3c-4-0.2-7.2-3.6-7.1-7.6c0.1-4.1,3.6-7.5,7.8-7.3
		C977.9-280.5,981.1-277.1,981.1-273.1z"/>
	<path class="st0" d="M1041-273.4c0.1,4.1-3.4,7.6-7.5,7.6c-4,0-7.3-3.4-7.4-7.3c-0.1-4.1,3.4-7.6,7.5-7.6
		C1037.6-280.7,1040.9-277.4,1041-273.4z"/>
</g>
</svg>
