<svg width="112" height="125" viewBox="0 0 112 125" fill="none" xmlns="http://www.w3.org/2000/svg">
<g clip-path="url(#clip0_34_2)">
<path d="M47.7537 90.7007H17.218C13.8269 90.7007 11.0681 93.4597 11.0681 96.8506V106.51C11.0681 109.901 13.8269 112.66 17.218 112.66H66.0513C67.0625 112.66 67.8823 111.841 67.8823 110.829C67.8823 109.818 67.0625 108.998 66.0513 108.998H17.218C15.8462 108.998 14.7302 107.882 14.7302 106.51V96.8506C14.7302 95.4788 15.8462 94.3628 17.218 94.3628H47.7537C48.7649 94.3628 49.5847 93.5432 49.5847 92.5317C49.5847 91.5203 48.7649 90.7007 47.7537 90.7007Z" fill="#00FFBB"/>
<path d="M18.3916 101.68C18.3916 102.692 19.2114 103.511 20.2227 103.511H54.6794C55.6907 103.511 56.5105 102.692 56.5105 101.68C56.5105 100.669 55.6907 99.8494 54.6794 99.8494H20.2227C19.2114 99.8494 18.3916 100.669 18.3916 101.68Z" fill="#00FFBB"/>
<path d="M43.4778 10.2556H12.8992C11.8879 10.2556 11.0681 11.0752 11.0681 12.0867C11.0681 13.0981 11.8879 13.9177 12.8992 13.9177H43.4778C44.489 13.9177 45.3088 13.0981 45.3088 12.0867C45.3088 11.0752 44.489 10.2556 43.4778 10.2556Z" fill="#00FFBB"/>
<path d="M45.3088 21.875C45.3088 20.8635 44.489 20.0439 43.4778 20.0439H12.8992C11.8879 20.0439 11.0681 20.8635 11.0681 21.875C11.0681 22.8865 11.8879 23.7061 12.8992 23.7061H43.4778C44.489 23.7061 45.3088 22.8862 45.3088 21.875Z" fill="#00FFBB"/>
<path d="M96.7898 76.8479C95.7786 76.8479 94.9587 77.6675 94.9587 78.679V118.511C94.9587 120.07 93.6907 121.338 92.1318 121.338H6.41455C4.85571 121.338 3.5874 120.07 3.5874 118.511V6.48901C3.58765 4.93018 4.85596 3.66211 6.41455 3.66211H74.647C74.7385 3.66211 74.8291 3.66797 74.9194 3.67529V16.9436C74.9194 20.6721 77.9531 23.7058 81.6819 23.7058H94.9456C94.9526 23.7944 94.9585 23.8835 94.9585 23.9736V32.679C94.9585 33.6904 95.7783 34.51 96.7896 34.51C97.8008 34.51 98.6206 33.6904 98.6206 32.679V23.9736C98.6206 22.1277 97.9019 20.3926 96.5969 19.0876L79.533 2.02368C78.2278 0.71875 76.4927 0 74.6472 0H6.41455C2.83643 0 -0.074707 2.91089 -0.074707 6.48901V118.511C-0.074707 122.089 2.83618 125 6.41455 125H92.1316C95.7097 125 98.6206 122.089 98.6206 118.511V78.679C98.6209 77.6675 97.801 76.8479 96.7898 76.8479ZM78.5818 6.25147L92.374 20.0439H81.6819C79.9724 20.0439 78.5815 18.6533 78.5815 16.9438V6.25147H78.5818Z" fill="#00FFBB"/>
<path d="M106.744 44.2541C97.1593 34.3977 80.6417 39.9973 78.6327 53.2573C77.7303 59.2151 75.3551 63.3777 71.5426 67.4092C69.8243 69.2256 67.9777 69.7746 65.8976 69.0874C63.2179 68.2024 60.3495 68.666 58.1127 70.2729L56.9652 69.1255C54.6146 66.7747 51.4894 65.48 48.1654 65.48C44.8414 65.48 41.7159 66.7746 39.3656 69.1252C37.4777 71.0129 37.4772 74.0688 39.3656 75.9573L74.7089 111.301C76.5919 113.184 79.6569 113.184 81.5406 111.301C83.8912 108.95 85.1857 105.824 85.1857 102.5C85.1857 99.1763 83.8912 96.051 81.5406 93.7004L80.3932 92.553C82.0004 90.3159 82.4637 87.4475 81.5787 84.7683C80.8702 82.623 81.5465 80.8291 83.1783 79.2012C87.0595 75.3198 92.047 72.7839 97.2216 72.0603C110.469 70.2085 116.152 53.9282 106.744 44.2541ZM81.5236 102.5C81.5236 104.846 80.61 107.052 78.9511 108.711C78.4955 109.167 77.7538 109.167 77.298 108.711L41.955 73.3677C41.4982 72.9109 41.4982 72.1719 41.955 71.7148C43.6139 70.0557 45.8195 69.1421 48.1654 69.1421C50.5114 69.1421 52.7169 70.0557 54.3759 71.7148L78.9511 96.29C80.61 97.9487 81.5236 100.154 81.5236 102.5ZM96.7145 68.4333C90.7562 69.2664 85.0292 72.1709 80.5887 76.6116L80.5985 76.6211C79.5763 77.5601 76.4596 80.9465 78.1014 85.9167C78.5475 87.2668 78.4027 88.7007 77.744 89.9038L60.7618 72.9219C61.965 72.2632 63.3988 72.1184 64.7494 72.5644C66.7291 73.219 70.59 73.7458 74.2033 69.9258C78.5761 65.3296 81.253 60.4119 82.2538 53.8057C83.8148 43.5019 96.6552 39.1318 104.119 46.8071C111.274 54.1645 107.172 66.9717 96.7145 68.4333Z" fill="#00FFBB"/>
</g>
<defs>
<clipPath id="clip0_34_2">
<rect width="111.328" height="125" fill="white"/>
</clipPath>
</defs>
</svg>
