<svg width="125" height="125" viewBox="0 0 125 125" fill="none" xmlns="http://www.w3.org/2000/svg">
<path d="M110.283 57.9248C106.03 55.7983 98.0549 55.7737 97.7175 55.7737C96.7063 55.7737 95.8865 56.5935 95.8865 57.6047C95.8865 58.616 96.7063 59.4358 97.7175 59.4358C99.7754 59.436 105.75 59.7529 108.646 61.2004C108.908 61.332 109.188 61.394 109.463 61.394C110.135 61.394 110.781 61.0229 111.102 60.3816C111.554 59.477 111.188 58.3772 110.283 57.9248Z" fill="#00FFBB"/>
<path d="M119.412 83.9944L111.85 81.8337C111.523 81.7405 111.295 81.4382 111.295 81.0986V78.5745C111.911 78.1482 112.498 77.6711 113.046 77.1387C115.705 74.5586 117.169 71.0979 117.169 67.3938V63.9106L117.9 62.4485C118.703 60.8433 119.127 59.0461 119.127 57.2517V47.8157C119.127 46.8044 118.307 45.9846 117.296 45.9846H99.6753C93.2681 45.9846 88.0552 51.1975 88.0552 57.6047V57.7139C88.0552 59.2061 88.408 60.7004 89.0752 62.0349L90.0129 63.9104V66.9011C90.0129 71.6409 92.3486 75.8936 95.8865 78.4526L95.887 81.0981C95.887 81.5061 95.887 81.6751 94.375 82.1072L90.6851 83.1614L80.011 79.28C80.0493 78.7764 79.8794 78.2642 79.512 77.8782L76.1011 74.2947V68.2791C76.4617 67.9819 76.8171 67.6768 77.1616 67.354C81.4646 63.3208 83.9324 57.6265 83.9324 51.7312V46.927C85.2317 44.0996 85.8901 41.1077 85.8901 38.0264V18.4487C85.8901 17.4375 85.0703 16.6177 84.0591 16.6177H56.6497C47.0037 16.6177 39.1563 24.4653 39.1563 34.1111V38.0269C39.1563 41.1082 39.8147 44.1001 41.114 46.9275V51.061C41.114 57.9058 44.1575 64.0723 48.9453 68.1377V74.2949L45.5344 77.8784C45.167 78.2644 44.9971 78.7766 45.0354 79.2803L33.7695 83.3767C32.9531 83.6736 32.1946 84.0757 31.5059 84.5627L29.7368 83.6782C35.0029 81.386 36.6711 78.1621 36.7512 78.002C37.009 77.4866 37.009 76.8796 36.7512 76.3643C35.4312 73.7241 35.2712 68.885 35.1428 64.9968C35.1001 63.7024 35.0596 62.4795 34.9822 61.3906C34.3579 52.6079 27.6812 45.9846 19.4512 45.9846C11.2212 45.9846 4.54419 52.6077 3.92017 61.3906C3.84277 62.4797 3.80225 63.7026 3.75952 64.9973C3.6311 68.8853 3.47095 73.7239 2.15112 76.364C1.89331 76.8794 1.89331 77.4863 2.15112 78.0017C2.2312 78.1619 3.896 81.3792 9.17261 83.6741L4.25879 86.1309C1.63184 87.4453 0 90.0857 0 93.0225V106.55C0 107.561 0.819824 108.381 1.83105 108.381C2.84229 108.381 3.66211 107.561 3.66211 106.55V93.0225C3.66211 91.4814 4.51831 90.0959 5.89648 89.4067L12.0154 86.3474L14.1438 88.3701C15.6321 89.7844 17.5413 90.4912 19.4512 90.4912C21.3606 90.4912 23.2708 89.7839 24.7585 88.3701L26.8867 86.3477L28.8818 87.3452C27.9424 88.8484 27.4092 90.6111 27.4092 92.4575V106.551C27.4092 107.562 28.229 108.382 29.2402 108.382C30.2515 108.382 31.0713 107.562 31.0713 106.551V92.4575C31.0713 89.9438 32.6584 87.6777 35.021 86.8186L46.8989 82.4995L51.8435 89.9168C52.4756 90.865 53.4885 91.4731 54.6226 91.5855C54.749 91.5979 54.8748 91.604 55.0002 91.604C56.0007 91.604 56.959 91.2102 57.6753 90.4941L60.6919 87.4775V106.551C60.6919 107.562 61.5117 108.382 62.5229 108.382C63.5342 108.382 64.354 107.562 64.354 106.551V87.4775L67.3706 90.4941C68.0867 91.2105 69.0449 91.6042 70.0457 91.6042C70.1709 91.6042 70.2969 91.5981 70.4231 91.5857C71.5574 91.4734 72.5703 90.8652 73.2024 89.917L78.1472 82.5L90.0249 86.8191C92.3872 87.6782 93.9746 89.9443 93.9746 92.458V106.551C93.9746 107.562 94.7944 108.382 95.8057 108.382C96.8169 108.382 97.6367 107.562 97.6367 106.551V92.458C97.6367 89.9121 96.6252 87.5244 94.9285 85.7585L95.3809 85.6294C95.8372 85.499 96.4597 85.3206 97.0847 85.0142L101.76 89.6892V106.551C101.76 107.562 102.58 108.382 103.591 108.382C104.602 108.382 105.422 107.562 105.422 106.551V89.6892L110.064 85.0466C110.311 85.1721 110.571 85.2781 110.844 85.356L118.406 87.5166C120.132 88.0098 121.338 89.6082 121.338 91.4036V106.551C121.338 107.562 122.158 108.382 123.169 108.382C124.18 108.382 125 107.562 125 106.551V91.4036C125 87.9812 122.702 84.9346 119.412 83.9944ZM11.7468 80.7603C8.32178 79.5278 6.60376 77.8848 5.87036 76.9876C6.37036 75.6804 6.69458 74.1833 6.91406 72.603C7.92383 75.0242 9.61499 77.0911 11.7468 78.5657V80.7603ZM22.2363 85.7158C20.6746 87.1997 18.228 87.1995 16.6667 85.7156L14.9639 84.0974C15.2512 83.5591 15.4092 82.9487 15.4092 82.3093V80.3577C16.6865 80.7568 18.0444 80.9722 19.4517 80.9722C20.8572 80.9722 22.2144 80.7559 23.4939 80.3589L23.4937 82.3091C23.4937 82.9487 23.6514 83.5593 23.939 84.0979L22.2363 85.7158ZM19.4521 77.3101C13.9844 77.3101 9.53638 72.8618 9.53638 67.3943C9.53638 66.3831 8.71655 65.5632 7.70532 65.5632C7.60278 65.5632 7.50269 65.5737 7.40479 65.5901C7.41016 65.4326 7.41528 65.2749 7.42065 65.1189C7.46143 63.8599 7.50073 62.6707 7.57324 61.6506C7.80713 58.3606 9.12183 55.3289 11.2751 53.1135C13.4478 50.8782 16.3516 49.6472 19.4517 49.6472C22.5518 49.6472 25.4553 50.8782 27.6282 53.1135C29.7815 55.3289 31.0962 58.3606 31.3301 61.6506C31.4023 62.6704 31.4419 63.8594 31.4834 65.1182C31.4871 65.2263 31.4907 65.3359 31.4944 65.4448C29.5022 62.3755 26.4255 60.1135 22.4502 58.8362C18.7776 57.6563 15.6189 57.7293 15.4856 57.7327C15.0061 57.7461 14.551 57.9468 14.2183 58.292L10.9146 61.7183C10.2126 62.4463 10.2336 63.6055 10.9617 64.3074C11.6897 65.0093 12.8489 64.988 13.5508 64.2603L16.2998 61.4094C18.6672 61.5252 26.2837 62.4109 29.2458 68.9336C28.5005 73.7402 24.3691 77.3101 19.4521 77.3101ZM27.1555 80.7664L27.1558 78.5825C29.2859 77.116 30.9795 75.053 31.99 72.6135C32.2095 74.1902 32.5334 75.6838 33.0325 76.988C32.3032 77.8767 30.5771 79.5344 27.1555 80.7664ZM44.7761 51.0608V46.5178C44.7761 46.2422 44.7139 45.97 44.594 45.7217C43.4158 43.2817 42.8184 40.6929 42.8184 38.0269V34.1113C42.8184 26.4846 49.0232 20.28 56.6497 20.28H82.228V38.0271C82.228 40.6931 81.6306 43.282 80.4524 45.7219C80.3325 45.9702 80.2703 46.2424 80.2703 46.5181V51.7317C80.2703 56.6904 78.2769 61.2898 74.6572 64.6826C74.2053 65.106 73.7363 65.5029 73.2515 65.8728C73.2407 65.8801 73.2305 65.8882 73.22 65.8958C69.8291 68.4702 65.6758 69.7214 61.3384 69.4404C52.051 68.8391 44.7761 60.7659 44.7761 51.0608ZM55.0859 87.9043C55.0732 87.917 55.0437 87.947 54.9839 87.9407C54.9243 87.9348 54.9009 87.8999 54.8909 87.8848L49.1963 79.3428L51.0288 77.4172L59.6677 83.3223L55.0859 87.9043ZM62.5232 80.8381L52.6074 74.0603V70.6423C55.1731 72.0293 58.0459 72.8967 61.1013 73.0945C61.584 73.1257 62.0637 73.1411 62.542 73.1411C66.0432 73.1411 69.4128 72.3042 72.439 70.7156V74.0603L62.5232 80.8381ZM70.1555 87.8853C70.1455 87.9004 70.1221 87.9353 70.0625 87.9412C70.0027 87.9487 69.9734 87.9172 69.9605 87.9048L65.3787 83.323L74.0176 77.4177L75.8503 79.3433L70.1555 87.8853ZM103.591 86.3403L99.4355 82.1853C99.5081 81.856 99.5491 81.4954 99.5488 81.0977L99.5486 80.3249C100.702 80.7034 101.917 80.928 103.175 80.9656C103.316 80.97 103.456 80.9719 103.596 80.9719C104.986 80.9719 106.342 80.762 107.633 80.3613V81.0986C107.633 81.4639 107.679 81.8218 107.766 82.1658L103.591 86.3403ZM110.496 74.5107C108.555 76.394 105.991 77.3887 103.285 77.3052C97.9858 77.1462 93.675 72.479 93.675 66.9016V63.4785C93.675 63.1941 93.6089 62.9138 93.4817 62.6597L92.3506 60.3975C91.9363 59.5686 91.7173 58.6409 91.7173 57.7141V57.605C91.7173 53.2168 95.2874 49.647 99.6753 49.647H115.465V57.252C115.465 58.481 115.174 59.7117 114.625 60.811L113.7 62.6597C113.573 62.9141 113.507 63.1941 113.507 63.4785V67.394C113.507 70.0991 112.438 72.6265 110.496 74.5107Z" fill="#00FFBB"/>
<path d="M115.338 92.9722C114.326 92.9722 113.507 93.792 113.507 94.8032V106.55C113.507 107.561 114.326 108.381 115.338 108.381C116.349 108.381 117.169 107.561 117.169 106.55V94.8032C117.169 93.7922 116.349 92.9722 115.338 92.9722Z" fill="#00FFBB"/>
<path d="M9.66235 95.3926C8.65112 95.3926 7.8313 96.2124 7.8313 97.2236V106.55C7.8313 107.561 8.65112 108.381 9.66235 108.381C10.6736 108.381 11.4934 107.561 11.4934 106.55V97.2236C11.4934 96.2126 10.6736 95.3926 9.66235 95.3926Z" fill="#00FFBB"/>
<path d="M77.5225 38.6902C70.5972 31.7649 56.1077 33.0889 50.199 33.9795C48.3379 34.26 46.9873 35.835 46.9873 37.7244V41.9426C46.9873 42.9539 47.8071 43.7737 48.8184 43.7737C49.8296 43.7737 50.6494 42.9539 50.6494 41.9426V37.7241C50.6494 37.6619 50.6904 37.6087 50.7451 37.6004C53.1052 37.2446 57.7886 36.6958 62.6409 37.0193C68.3508 37.3994 72.4866 38.8328 74.9331 41.2795C75.6482 41.9946 76.8076 41.9946 77.5225 41.2795C78.2376 40.5645 78.2376 39.405 77.5225 38.6902Z" fill="#00FFBB"/>
<path d="M40.9873 96.8879C39.9761 96.8879 39.1562 97.7078 39.1562 98.719V106.55C39.1562 107.562 39.9761 108.381 40.9873 108.381C41.9985 108.381 42.8184 107.562 42.8184 106.55V98.719C42.8184 97.708 41.9985 96.8879 40.9873 96.8879Z" fill="#00FFBB"/>
<path d="M84.0591 96.8879C83.0479 96.8879 82.228 97.7078 82.228 98.719V106.55C82.228 107.562 83.0479 108.381 84.0591 108.381C85.0703 108.381 85.8901 107.562 85.8901 106.55V98.719C85.8901 97.708 85.0703 96.8879 84.0591 96.8879Z" fill="#00FFBB"/>
</svg>
