<?xml version="1.0" encoding="utf-8"?>
<!-- Generator: Adobe Illustrator 24.3.0, SVG Export Plug-In . SVG Version: 6.00 Build 0)  -->
<svg version="1.1" id="Layer_1" xmlns="http://www.w3.org/2000/svg" xmlns:xlink="http://www.w3.org/1999/xlink" x="0px" y="0px"
	 viewBox="0 0 150 150" style="enable-background:new 0 0 150 150;" xml:space="preserve">
<style type="text/css">
	.st0{fill:#005BAB;}
	.st1{fill:none;stroke:#005BAB;stroke-miterlimit:10;}
</style>
<g>
	<path class="st0" d="M156.6-371.1c-2.1,2.1-4,4-5.9,6c-0.3,0.3-0.4,1-0.4,1.5c-0.1,5.5,0.1,11-0.1,16.5
		c-0.6,16.4-13.7,30.2-30.1,31.5c-5.4,0.4-10.9,0.2-16.3,0.3c-1.1,0-1.6-0.6-1.6-1.7c0-2.2,0-4.4,0-6.6c0-8.9-0.2-17.8,0.2-26.6
		c0.6-14.5,11.7-27.2,25.9-30.2c3-0.6,6-0.7,9.1-0.8c3.6-0.1,7.1,0,10.7,0c1.5,0,2.4-0.9,2.4-2.4c0-6.3,0-12.5,0-18.8
		c0-4.4,3.3-7.4,7.4-6.6c1.4,0.3,2.7,1.3,4.2,2c2-2.1,5-0.9,8.1-1.4c-0.7-0.4-1-0.7-1.4-1c-0.8-0.5-1.6-0.9-2.3-1.4
		c-2.2-1.4-2.8-4.1-1.6-6.3c1.2-2.2,4-3.1,6.3-1.9c1.2,0.6,2.4,1.3,3.8,2.2c-0.1-0.6-0.2-0.8-0.3-1.1c-0.5-0.9-1-1.8-1.5-2.7
		c-1.3-2.5-0.6-5.3,1.8-6.6c2.3-1.3,5-0.6,6.5,1.8c0.7,1.1,1.3,2.2,1.9,3.3c0.1,0,0.2,0,0.4-0.1c0-0.3,0.1-0.7,0.1-1
		c0-2.5,0-5,0-7.5c0-3,2.1-5.1,4.8-5.1c2.7,0,4.7,2.2,4.8,5.2c0,2.4,0,4.8,0,7.2c0,0.4,0,0.8,0.1,1.2c0.1,0,0.3,0.1,0.4,0.1
		c0.6-1.1,1.2-2.2,1.9-3.2c1.1-1.8,3.1-2.8,5-2.4c3.2,0.6,4.9,4,3.4,6.9c-0.4,0.9-0.9,1.7-1.2,2.8c0.3-0.1,0.7-0.3,1-0.4
		c1.6-0.9,3.1-1.8,4.7-2.7c2.7-1.4,5.8-0.6,7.3,2c1.5,2.5,0.7,5.7-1.9,7.3c-1.5,0.9-3,1.7-4.4,2.6c-0.4,0.2-0.7,0.4-1,0.7
		c0,0.1,0,0.3,0.1,0.4c0.9,0,1.8,0,2.7,0c3.4,0.1,5.6,3.3,4.5,6.4c-0.6,1.8-2.3,3.1-4.3,3.2c-1.3,0.1-2.7,0-4.1,0
		c0,0.2-0.1,0.3-0.1,0.5c1.1,0.6,2.2,1.2,3.2,1.9c2,1.2,2.9,3.4,2.3,5.5c-0.9,2.9-4.1,4.3-6.8,2.9c-1.2-0.6-2.3-1.3-3.7-2.1
		c0.2,0.6,0.2,0.9,0.3,1.1c0.5,0.9,1.1,1.8,1.6,2.8c1.2,2.3,0.4,5.1-1.8,6.4c-2.3,1.3-5.1,0.6-6.5-1.7c-0.7-1.1-1.3-2.2-2-3.4
		c-0.2,0-0.3,0.1-0.5,0.1c0,0.8,0,1.6,0,2.5c0,1.5-0.4,3.2,0.2,4.4c0.6,1.1,2.3,1.6,3.5,2.5c9,6.5,14,15.3,14.3,26.4
		c0.3,10.6,0.1,21.2,0.1,31.8c0,1.2-0.5,1.8-1.7,1.8c-5.5-0.1-11,0.1-16.5-0.3c-13.9-1-26.3-12-29.2-25.7c-0.6-2.6-0.8-5.3-0.8-8
		c-0.1-4.8,0-9.5-0.1-14.3c0-0.6-0.3-1.4-0.8-1.9C160.4-367.4,158.5-369.2,156.6-371.1z M167.2-378.8c-0.1,0.1-0.2,0.3-0.2,0.4
		c0.4,0.3,0.8,0.6,1.2,1c4.8,4.8,9.6,9.6,14.4,14.4c2.8,2.8,2.9,6.7,0.3,9.3c-2.6,2.5-6.5,2.4-9.2-0.3c-2.4-2.4-4.8-4.8-7.2-7.2
		c-0.2-0.2-0.5-0.5-0.9-0.8c0,5-0.2,9.7,0,14.5c0.4,9.5,4.5,17.2,11.9,23.1c0.7,0.5,1.2,0.6,1.9,0.2c14-7.4,23-18.8,26.7-34.3
		c0.2-0.6,0.1-1.5-0.2-2.1c-2.5-5.7-6.5-10.2-11.8-13.5c-0.3-0.2-0.6-0.3-1-0.5c-0.1,0.3-0.2,0.4-0.3,0.6c-1.1,2.2-3.3,3.3-5.5,2.8
		c-2.2-0.5-3.6-2.4-3.7-5c0-0.6,0-1.3,0-2C178.1-379.2,172.7-378.6,167.2-378.8z M124.9-330.2c0,0.2-0.1,0.3-0.1,0.5
		c3.2,1.9,6.3,3.8,9.5,5.6c0.3,0.2,0.9,0.1,1.2-0.1c7-5.4,11.2-12.5,12-21.3c0.5-5.3,0.2-10.6,0.3-15.9c0-0.1-0.1-0.3-0.2-0.5
		c-0.4,0.4-0.7,0.7-1,0.9c-2.4,2.4-4.8,4.8-7.2,7.2c-1.7,1.7-3.7,2.3-6,1.8c-4.9-1.2-6.6-7-3-10.6c4.9-5,9.9-9.9,14.8-14.9
		c0.3-0.3,0.6-0.7,1-1.1c-0.4,0-0.7-0.1-0.9-0.1c-3.6,0-7.3-0.2-10.9,0.1c-12.6,0.7-21.6,7-27,18.3c-0.2,0.5-0.3,1.2-0.2,1.7
		c1.2,5.9,3.5,11.4,6.8,16.4c2.5,3.9,5.4,7.3,8.8,10.4c6.2-3.4,11.3-7.8,14.8-14c0.5-0.8,1-1.5,2-1c1,0.6,0.7,1.5,0.2,2.2
		c-1.4,2.1-2.8,4.2-4.4,6.2C132.3-335.1,128.8-332.4,124.9-330.2z M190.6-426.8c0-1.2,0-2.5,0-3.7c0-1.7-0.8-2.7-2.2-2.7
		c-1.4,0-2.2,1-2.2,2.7c0,2.6,0,5.1,0,7.7c0,1.7-0.8,2.8-2.1,3.1c-1.3,0.3-2.5-0.2-3.3-1.6c-0.6-0.9-1.1-1.9-1.6-2.8
		c-0.8-1.2-2-1.5-3.1-0.9c-1.1,0.6-1.4,1.9-0.8,3.1c0.4,0.8,0.9,1.6,1.4,2.5c1,1.7,0.9,2.9-0.1,4c-1.1,1.1-2.3,1.1-4,0.2
		c-0.8-0.5-1.6-1-2.5-1.4c-1.3-0.7-2.6-0.4-3.2,0.8c-0.6,1.1-0.3,2.3,1,3.1c0.9,0.6,1.9,1.1,2.9,1.7c1.2,0.8,1.8,1.9,1.5,3.1
		c-0.3,1.4-1.4,2.2-2.9,2.2c-1.3,0-2.6,0-3.9,0c-1.4,0-2.4,0.9-2.4,2.1c0,1.4,0.8,2.2,2.4,2.3c0.9,0,1.8,0,2.7,0
		c1.6,0.1,2.6,0.8,3,2.1c0.4,1.4-0.1,2.5-1.6,3.3c-1.5,0.9-3.1,1.8-4.7,2.7c-1.8,1-2.3,2.6-1.5,4.1c0.8,1.5,2.5,1.8,4.3,0.8
		c1.5-0.8,2.9-1.7,4.3-2.5c1.7-1,3-0.9,4,0.1c1,1,1.1,2.2,0.2,3.9c-0.4,0.7-0.7,1.4-1.1,2.1c-0.6,1.3-0.2,2.5,0.9,3.1
		c1.1,0.6,2.3,0.2,3.1-1c0.5-0.9,1-1.8,1.5-2.7c0.9-1.7,2-2.3,3.5-1.9c1.4,0.3,2.2,1.4,2.2,3.4c0,2.6,0,5.2,0,7.9
		c0,1.6,1.4,2.7,2.9,2.2c1.1-0.4,1.6-1.2,1.6-2.4c0-2.7,0-5.4,0-8.1c0-1.5,0.8-2.6,2.1-2.9c1.4-0.4,2.5,0.1,3.3,1.5
		c0.6,0.9,1.1,1.9,1.6,2.8c0.8,1.2,2.1,1.6,3.2,0.9c1.1-0.7,1.4-1.9,0.7-3.2c-0.5-1-1.1-1.9-1.7-2.9c-0.7-1.3-0.5-2.5,0.3-3.5
		c0.9-1,2.3-1.2,3.5-0.5c1,0.5,1.9,1.1,2.9,1.7c1.3,0.7,2.6,0.4,3.2-0.8c0.6-1.1,0.3-2.3-0.9-3.1c-0.9-0.5-1.8-1-2.7-1.6
		c-1.4-0.9-2-1.9-1.7-3.3c0.3-1.4,1.3-2.2,3.1-2.2c1,0,2,0,3,0c1.6,0,2.6-0.9,2.6-2.2c0-1.3-1-2.2-2.6-2.2c-0.6,0-1.3,0-1.9,0
		c-1.5,0-2.6-0.8-2.9-2c-0.4-1.4,0.1-2.5,1.5-3.4c1.6-0.9,3.2-1.8,4.8-2.8c1.7-1,2.2-2.5,1.4-4c-0.8-1.5-2.5-1.9-4.2-0.9
		c-1.7,0.9-3.3,2-5,2.9c-1.3,0.7-2.5,0.5-3.4-0.5c-0.9-0.9-1.1-2.2-0.4-3.4c0.3-0.6,0.7-1.2,1-1.8c0.8-1.4,0.6-2.7-0.6-3.4
		c-1.2-0.7-2.4-0.3-3.3,1.2c-0.5,0.8-0.9,1.6-1.4,2.4c-0.8,1.4-2,2-3.3,1.6c-1.4-0.4-2.1-1.4-2.2-3.1
		C190.6-424.1,190.6-425.5,190.6-426.8z M160.4-392.6c0-3.3,0-6.7,0-10c0-1.9-1.1-3.4-2.8-3.9c-2.6-0.7-4.9,1.1-4.9,4.1
		c0,6.5,0,13,0,19.4c0,1-0.3,1.7-1,2.4c-6.3,6.3-12.6,12.6-19,18.9c-0.4,0.4-0.7,0.7-1,1.1c-1,1.2-1.1,2.6-0.4,4
		c0.7,1.4,2,2.3,3.5,2c1.1-0.2,2.2-0.8,3-1.5c5.8-5.6,11.4-11.4,17.2-17.1c1.4-1.4,1.7-1.4,3.1,0c4.8,4.8,9.7,9.7,14.5,14.5
		c1.1,1.1,2.1,2.2,3.2,3.2c1.2,1.1,2.6,1.4,4.1,0.8c1.5-0.6,2.2-1.7,2.4-3.2c0.1-1.4-0.6-2.4-1.5-3.4c-6.4-6.4-12.8-12.8-19.2-19.2
		c-0.7-0.7-1.1-1.4-1.1-2.5C160.4-386.2,160.4-389.4,160.4-392.6z M208-354.3c-0.1,0-0.2,0-0.3,0c-4.5,14.3-13.4,25-26.7,32.2
		c3.7,2.2,7.5,3.6,11.6,3.9c5.3,0.3,10.5,0.2,15.8,0.3c0.1,0,0.1-0.1,0.2-0.1c0-0.1,0.1-0.2,0.1-0.4c0-10.3,0-20.6,0-30.9
		C208.5-351,208.2-352.6,208-354.3z M105.3-354.4c-1.2,12.1-0.4,24.2-0.7,36.4c0.5,0,0.8,0.1,1.1,0.1c3.9,0,7.9,0,11.8,0
		c3.9,0,7.7-0.8,11.3-2.4c1.2-0.5,2.3-1.1,3.4-1.7c-3-2-5.8-3.9-8.6-5.9c-1-0.7-1.6-0.8-2.7-0.3c-2.2,1-4.5,1.7-6.7,2.5
		c-0.8,0.3-1.5,0.1-1.8-0.8c-0.3-0.9,0.2-1.4,1-1.6c0.3-0.1,0.7-0.2,1-0.3c1.9-0.7,3.8-1.4,6-2.2
		C113.1-337.3,108.3-345.2,105.3-354.4z M172.3-381.3c0.1-1.4,0-2.8,0.3-4c0.3-1.2,1.1-2.3,1.6-3.5c-0.1-0.1-0.2-0.2-0.3-0.2
		c-1.3,0.7-2.5,1.4-3.8,2.2c-2.2,1.4-4.5,2.4-7.2,1c0,1-0.2,2,0.1,2.7c0.3,0.7,1.1,1.7,1.7,1.7C167.4-381.2,170-381.3,172.3-381.3z
		 M163-398.9c0,1.2,0,2.4,0,3.9c2-1.1,3.8-2.2,5.6-3.2c-0.1-0.1-0.1-0.2-0.2-0.4C166.7-398.7,164.9-398.8,163-398.9z M183.5-380.8
		c0-1.3,0-2.6,0-3.9c-0.1,0-0.2-0.1-0.3-0.1c-0.6,1.2-1.3,2.4-2,3.7C182.1-381,182.8-380.9,183.5-380.8z"/>
	<path class="st0" d="M119.8-392.7c0,4.9-4,8.8-8.9,8.8c-4.9,0-8.8-4-8.9-8.8c0-4.9,4-8.9,8.9-8.9
		C115.9-401.6,119.8-397.6,119.8-392.7z M110.9-386.4c3.5,0,6.4-2.8,6.4-6.4c0-3.5-2.8-6.3-6.3-6.3c-3.5,0-6.4,2.9-6.4,6.4
		C104.6-389.2,107.4-386.4,110.9-386.4z"/>
	<path class="st0" d="M143.9-416.8c-3.5,0-6.4-2.9-6.4-6.4c0-3.5,2.9-6.3,6.3-6.3c3.6,0,6.4,2.8,6.3,6.4
		C150.2-419.6,147.4-416.8,143.9-416.8z M143.9-426.9c-2.1,0-3.8,1.7-3.8,3.8c0,2.1,1.8,3.8,3.9,3.8c2,0,3.8-1.8,3.7-3.8
		C147.7-425.3,146-426.9,143.9-426.9z"/>
	<path class="st0" d="M110.9-421.2c0,1-0.8,1.9-1.9,1.9c-1.1,0-2-0.9-1.9-1.9c0-1,0.9-1.9,1.9-1.8
		C110.1-423.1,110.9-422.2,110.9-421.2z"/>
	<path class="st0" d="M164.2-426.4c0,1-0.8,1.9-1.8,1.9c-1.1,0-1.9-0.8-1.9-1.8c0-1,0.8-1.9,1.8-1.9
		C163.3-428.2,164.2-427.4,164.2-426.4z"/>
	<path class="st0" d="M130-390.8c0,1-0.9,1.9-1.9,1.9c-1,0-1.9-0.8-1.9-1.9c0-1,0.8-1.9,1.9-1.9C129.1-392.7,130-391.8,130-390.8z"
		/>
	<path class="st0" d="M138.3-413c1.1,0,1.9,0.9,1.8,1.9c0,1-0.9,1.9-1.9,1.8c-1,0-1.9-0.9-1.8-1.9C136.3-412.2,137.2-413,138.3-413z
		"/>
	<path class="st0" d="M103.3-373.1c0,1.1-0.7,1.9-1.8,1.9c-1.1,0-1.9-0.7-1.9-1.8c0-1.1,0.7-1.9,1.8-1.9
		C102.4-375,103.3-374.2,103.3-373.1z"/>
	<path class="st0" d="M209.2-373.7c-1,0-1.9-0.9-1.9-1.9c0-1,0.9-1.8,1.9-1.8c1,0,1.9,0.9,1.9,1.9
		C211.1-374.5,210.2-373.7,209.2-373.7z"/>
	<path class="st0" d="M176.1-401.4c0-2.6,2.1-4.7,4.6-4.7c2.6,0,4.8,2.1,4.8,4.7c0,2.6-2.1,4.7-4.8,4.7
		C178.1-396.7,176.1-398.8,176.1-401.4z M183-401.4c0-1.2-1-2.2-2.2-2.2c-1.2,0-2.1,1-2.1,2.2c0,1.2,0.9,2.1,2.1,2.2
		C182-399.2,183-400.2,183-401.4z"/>
	<path class="st0" d="M186.3-394.2c0.3-1.3,1-2.1,2.4-2.1c0.2,0,0.5-0.2,0.6-0.4c0.5-1.2,1.5-1.5,2.7-1.5c0.5-1.3,1.3-2,2.7-1.9
		c0.2,0,0.4-0.3,0.7-0.3c0.5-0.1,1.2-0.3,1.5,0c0.3,0.3,0.4,1,0.4,1.6c0,0.2-0.2,0.6-0.4,0.6c-2,0.5-3,2.7-5.2,2.8
		c-0.9,1.5-1.1,1.7-2.9,1.8c-0.4,1.5-1.3,2.3-2.9,2c-0.2,0-0.4,0.4-0.7,0.4c-0.5,0.1-1.2,0.3-1.5,0.1c-0.4-0.2-0.6-0.9-0.6-1.4
		C183.3-393.6,184.3-394.2,186.3-394.2z"/>
	<path class="st0" d="M185.8-412.8c1-0.8,2-1,3.1-0.3c0.2,0.1,0.6-0.1,0.9-0.1c0.8,0,1.7,0.1,2.5,0.1c0.3,0,0.6,0.1,0.9,0.2
		c0.5,0.2,1.2,0.4,1.3,0.8c0.1,0.5-0.2,1.1-0.5,1.6c-0.1,0.2-0.4,0.3-0.5,0.3c-0.9-0.1-1.8-0.4-2.7-0.4c-0.8,0-1.7,0.5-2.5,0.3
		c-0.6-0.1-1.1-0.2-1.7,0c-0.8,0.2-1.7,0-2.9-0.1c-0.8,0.6-2,1-3.3-0.2c-0.2-0.1-0.6,0-0.8,0c-0.5-0.2-1.1-0.3-1.2-0.6
		c-0.2-0.4,0-1.1,0.2-1.5c0.8-1.1,2.1-1,3.6,0.1C183.3-413.7,184.5-413.9,185.8-412.8z"/>
	<path class="st0" d="M199.4-410.9c1.8,0,3.3,1.4,3.3,3.2c0,1.9-1.4,3.4-3.3,3.4c-1.9,0-3.3-1.5-3.3-3.4
		C196.2-409.5,197.6-410.9,199.4-410.9z M200.5-407.6c-0.5-0.4-0.8-0.8-1-0.7c-0.3,0.1-0.7,0.4-0.8,0.7c0,0.2,0.4,0.7,0.6,0.7
		C199.7-406.9,200-407.3,200.5-407.6z"/>
	<path class="st0" d="M192.5-404.9c0,1.1-0.9,2-2,2c-1.1,0-2-0.8-2.1-2c0-1.2,0.9-2.1,2.1-2.1C191.6-406.9,192.5-405.9,192.5-404.9z
		"/>
	<path class="st0" d="M177.5-394.9c-0.5,0.4-1,0.9-1.6,1c-0.8,0.1-1.5-0.5-1.3-1.3c0.1-0.5,0.8-1.2,1.3-1.2c0.5,0,1.1,0.6,1.6,0.9
		C177.5-395.3,177.5-395.1,177.5-394.9z"/>
</g>
<g>
	<path class="st0" d="M497.6-470.1c-2.4,0-3.9,1.1-5.3,3.1c-2.2,3.2-5.4,5.2-9.1,6.5c-0.6,0.2-1.4,0.2-1.5,1.1c0,0.9,0.5,1.5,1.2,2
		c0.3,0.2,0.5,0.2,0.8,0.3c7.5,2.5,12,7.8,14.9,14.9c2.4,6,3.3,12.3,4.2,18.6c0.4,2.5-1.6,4.8-4.2,5.2c-2.5,0.4-5-1-5.5-3.7
		c-0.8-3.8-1.4-7.6-2.2-11.4c-0.2-1.2-0.7-2.4-1-3.5c-0.7-0.1-0.6,0.3-0.6,0.6c0.2,10.2,0.5,20.3,0.6,30.5c0,1.2,0.8,1.5,1.5,1.9
		c2.6,1.4,4,3.6,4.4,6.6c0.2,1.4-0.2,2.1-1.7,2.1c-4.5,0-8.9,0-13.4,0c-1.5,0-1.9-0.8-1.9-2.1c-0.2-4.1-0.4-8.2-0.5-12.2
		c0-1.3,0-2.3-1.9-2.3c-2.1,0-2,1-2.1,2.4c-0.1,4-0.4,8-0.5,12c0,1.6-0.6,2.2-2.3,2.2c-4.2-0.1-8.5-0.1-12.7,0c-1.7,0-2.2-0.7-2-2.3
		c0.4-3,2-5.1,4.6-6.4c1.1-0.5,1.3-1.2,1.3-2.2c0-2.1-0.1-4.2,0.1-6.2c0.2-1.9-0.5-2.3-2.3-1.9c-7.9,1.8-15.9,3.6-23.9,5.4
		c-3.8,0.8-7.5,1.7-11.3,2.6c-1.5,0.4-2.4-0.1-3.2-1.3c-0.4-0.6-0.9-1.2-1.1-1.9c-0.9-2.3-2.4-3-4.9-2.4c-1.4,0.3-2,0.7-2.4,2
		c-1.7,6.2-1.9,6-7.8,4c-2-0.7-4.1-1.3-6.1-2c-2.2-0.8-2.6-1.7-2-3.9c0.2-0.6,0.4-1.3,0.6-1.9c0.9-3.1,0.7-3.8-2.1-5.5
		c-0.6-0.4-0.9-0.3-1.4,0c-1.1,0.6-2.2,1.2-3.3,1.8c-2.6,1-3.3,0.8-4.6-1.6c-1.4-2.7-2.8-5.4-4.2-8.1c-1.1-2.3-0.8-3.3,1.4-4.5
		c0.5-0.2,0.9-0.5,1.4-0.7c3.1-1.6,3.2-1.8,2.5-5.3c-0.2-0.9-0.7-1-1.3-1.2c-1.3-0.4-2.7-0.8-4-1.3c-1.7-0.6-2.3-1.9-1.6-3.6
		c0.6-1.7,1.4-3.3,2.1-4.9c0.4-1.1,1.3-1.2,2.3-1.2c4,0,8-0.2,12-0.2c1.5,0,2-0.4,1.7-1.9c-0.3-2-0.3-4.2-0.7-6.2
		c-0.3-1.6,0.3-2.3,1.7-2.9c1.4-0.6,2.9-1.1,4.3-1.9c2.5-1.4,4.9-1.9,7.6-0.5c1,0.5,1.6,0.2,1.9-1c0.4-1.7,0.9-3.3,1.4-4.9
		c0.6-2.2,1.7-2.8,3.8-2.1c3,1,6,2,9.1,3c2,0.6,2.7,1.9,2.2,3.9c-0.4,1.3-0.8,2.5-1.2,3.8c-0.2,0.6-0.3,1.1,0.2,1.6
		c2,2.3,3,2.6,5.7,1.1c0.5-0.3,1.1-0.5,1.6-0.8c1.6-1,2.8-0.7,4.1,0.7c2.9,3.3,5.8,6.5,8.8,9.7c1.6,1.7,3.1,3.4,4.7,5.1
		c0.3-0.2,0.3-0.3,0.4-0.3c0.3-0.6,0.6-1.2,0.9-1.8c2.8-5.5,7.1-9.3,12.8-11.4c0.5-0.2,1-0.3,1.4-0.6c0.7-0.4,1-1,1.1-1.8
		c0-0.9-0.8-1-1.4-1.2c-4.3-1.6-7.8-4.2-10.4-8c-0.4-0.6-0.7-1.3-1.7-1.2c-2.5,0.1-4.4-1.1-6.2-2.6c-2.4-4.2-2.1-7.2,1.2-10.6
		c0.6-0.6,0.6-0.9,0.1-1.6c-3.3-4.5-2.2-9.8,2.7-12.3c0.9-0.5,1.4-1,1.5-2.1c0.4-5.6,5.3-9.1,10.7-7.6c1.1,0.3,1.7,0,2.4-0.8
		c3.5-3.8,9.1-3.9,12.6,0c0.8,0.9,1.5,1,2.6,0.7c5.2-1.4,10.1,2.2,10.5,7.6c0.1,0.8,0.1,1.4,1,1.9c5.8,3.2,6.7,8.1,2.6,13.4
		C504.7-478.6,503.9-472.9,497.6-470.1z M396.2-422.2c0.4,0.1,0.7,0.1,1.1,0.3c3.8,1.8,5,4.4,3.8,8.5c-0.1,0.4-0.2,0.9-0.4,1.3
		c-0.5,1.1-0.2,1.7,1,2.1c2.5,0.7,5,1.5,7.4,2.4c1.3,0.5,2,0.2,2.1-1.2c0.5-4.2,2.6-6.2,7.1-5.9c1.8,0.1,3,0.4,4,2
		c2.5,4.1,2.5,4.1,6.8,1.9c4.5-2.3,4.5-2.3,2.3-6.8c-0.2-0.4-0.4-0.8-0.5-1.2c-0.2-0.8-0.2-1.6,0.4-2.3c4.2-4.6,2.5-5.2,8.9-3
		c0.1,0,0.3,0.1,0.4,0.1c1.2,0.6,1.8,0.3,2.2-1c0.5-2.2,1.1-4.5,2-6.6c0.8-1.9,0.3-2.9-1.7-3.2c-3.8-0.5-5.5-2.7-5.1-6.6
		c0-0.3,0-0.6-0.1-0.9c-0.2-1.3,0.4-2.1,1.5-2.7c1.5-0.9,4.1-1.2,4.3-2.7c0.2-1.5-1.4-3.3-2.2-5c-0.1-0.1-0.1-0.3-0.2-0.4
		c-0.7-1.4-1.2-3.4-2.3-3.9c-1.3-0.6-2.9,1-4.3,1.8c-1.6,0.8-2.9,0.8-4.2-0.6c-0.5-0.5-1-1.1-1.7-1.5c-2-1.2-2.1-2.7-1.4-4.8
		c1.4-4.2,1.3-4.3-3-5.6c-2-0.6-4.3-2.4-5.8-1.6c-1.7,0.9-1.5,3.8-2.1,5.8c-0.8,2.7-1.2,3.1-3.9,2c-2.7-1.1-5-0.8-7.4,0.6
		c-0.6,0.4-1.3,0.7-2,0.9c-1.6,0.5-1.9,1.5-1.6,3c0.4,2.1,0.5,4.3,0.8,6.4c0.3,1.8-0.4,2.4-2.2,2.4c-4.2,0-8.5,0.1-12.7,0.1
		c-0.6,0-1.5-0.3-1.8,0.5c-0.7,1.4-1.9,2.8-1.6,4.3c0.2,1,2,0.9,3,1.4c0.7,0.3,1.4,0.5,2.1,0.7c0.9,0.3,1.5,1,1.6,2
		c0.3,6.6,2.1,5.6-4.3,8.8c-0.1,0.1-0.3,0.2-0.4,0.2c-1.2,0.4-1.1,1-0.6,2c1.3,2.4,2.6,4.8,3.8,7.3c0.6,1.2,1.1,1.2,2.1,0.6
		C393-420.9,394.4-422,396.2-422.2z M460.6-437.3c0.9-2.2,1.6-4.3,2.9-6.1c0.5-0.7,0.8-1.7,2-1.3c1,0.3,0.8,1.3,0.8,2.1
		c-0.1,3.3-0.1,6.7-0.3,10c-0.1,1.4,0.4,1.7,1.7,1.7c5.9-0.1,11.9-0.1,17.8,0c1.3,0,1.6-0.4,1.6-1.7c-0.1-3.5-0.1-7-0.2-10.5
		c0-0.7-0.1-1.4,0.7-1.7c0.9-0.3,1.4,0.3,1.8,0.9c1.6,2.4,2.6,5,3.4,7.7c1.2,4.1,1.8,8.4,2.5,12.6c0.3,1.8,1.1,3,3,2.8
		c2-0.3,2.4-1.8,2.1-3.5c-0.8-5.1-1.5-10.3-3.2-15.2c-2.5-7.4-6.7-13.2-14.6-15.6c-1.4-0.4-2.5-1.3-2.8-2.6c-0.3-1.8-1.3-2-2.7-1.8
		c-0.7,0.1-1.5,0-2.2,0c-0.7,0-1.1,0.1-1.2,0.9c-0.3,2.2-1.8,3.2-3.8,3.9c-4.5,1.5-8,4.3-10.6,8.4c-3,4.8-3,5.1,1,9
		C460.2-437.4,460.3-437.4,460.6-437.3z M494.5-479.9c-0.5-0.7,0.9-2.2-1-2.7c-3.6-0.9-6-3.4-7.7-6.6c-0.5-1-0.8-1.1-1.7-0.5
		c-4.9,3-10,3-14.9,0c-1-0.6-1.2-0.4-1.7,0.5c-1.7,3.2-4.1,5.7-7.7,6.6c-1,0.2-1,0.9-1,1.7c-0.6,10.1,7.3,18.8,17.5,19.1
		C486-461.5,494.4-469.6,494.5-479.9z M446.7-448.7c0.3,2.8-1.7,3.7-3.7,4.5c-2.3,0.9-3.4,2.2-2.6,4.8c0.3,1,0.5,1.6,1.5,1.8
		c1.3,0.3,2.5,0.8,3.8,1.2c1.7,0.6,2.3,1.8,1.8,3.5c-0.6,2.1-1.3,4.1-1.9,6.2c-1.8,6.4-1.8,6.5-8.1,4.2c-1-0.4-1.8-0.6-2.4,0.6
		c-0.6,1.2-2.6,1.7-1.4,3.9c1.2,2,3,3.9,1.8,6.9c12.7-2.8,25-5.6,37.7-8.5C464.2-429.4,455.5-439,446.7-448.7z M493.5-498.1
		c0.2-4.9-4.6-8-8.8-5.9c-1.5,0.7-2.1,0.5-3-0.9c-2.5-4.2-7.9-4.2-10.4-0.1c-0.9,1.5-1.7,1.6-3.2,0.9c-4-1.9-8.8,0.9-8.6,5.2
		c0.1,2.5-0.5,3.3-2.7,4c-2.2,0.8-3.4,2.8-3.4,5.3c0,2,0.9,3.4,2.6,4.3c2.1,1,4,0.4,5.8-0.9c1.8-1.4,3.1-3.1,3.9-5.3
		c1-2.8,1.1-2.8,3.3-1c4.3,3.6,10.2,3.7,14.6,0.2c2.5-2,2.5-2,3.6,1c0.7,2,2,3.6,3.6,5c1.8,1.5,3.9,2.2,6.2,1c1.9-1,2.6-2.6,2.5-4.6
		c-0.2-2.5-1.5-4.4-4-5.1C493.8-495.6,492.7-496.3,493.5-498.1z M487.8-417.8c-0.3,0-0.5-0.1-0.8-0.1c-1.6,1.8-3.3,3.6-5.5,4.7
		c-0.9,0.4-0.8,1.1-0.8,1.9c0.2,3.9,0.4,7.8,0.5,11.8c0,1.4,0.4,2,1.9,1.9c2.4-0.1,4.7,0,7.1-0.1c1,0,2.8,0.6,3-0.4
		c0.4-1.3-0.9-2.5-2.1-3.4c-0.5-0.4-1.1-0.8-1.8-0.9c-1.4-0.3-1.7-1.1-1.7-2.4C487.8-409.1,487.8-413.4,487.8-417.8z M471.7-405.4
		c0.3-3.7,1.8-7.8-3-9.8c-0.1,0-0.1-0.1-0.2-0.1c-0.7-0.8-1.4-0.6-2.2-0.3c-1,0.3-0.8,1.1-0.8,1.8c-0.1,2.9-0.3,5.8-0.3,8.7
		c0,1.5-0.3,2.5-2,2.9c-1.6,0.4-2.7,1.6-3.4,3c-0.4,0.9-0.4,1.5,0.9,1.5c3.2,0,6.4,0,9.6,0c1.1,0,1.4-0.5,1.4-1.5
		C471.7-401.2,471.7-403.3,471.7-405.4z M470.9-416.5c3.9,3.1,7.7,3,11.5,0c1.5-1.1,2.2-2.2,1-4c-0.8-1.2-1.5-2.6-1.8-4
		c-0.9-3.5-3.1-4.5-6.5-4.1c-1.2,0.2-1.9,0.4-2.6,1.5c-1.3,2.1-0.3,3.4,1.1,4.7c3.1,2.7,2.3,5.3-1.5,5.6
		C471.8-416.8,471.4-416.7,470.9-416.5z M495.4-472.3c3-0.2,4.9-2,5.1-4.6c0.2-2.4-1.3-4.4-3.8-4.9
		C496.9-478.6,496.6-475.5,495.4-472.3z M457.4-472.4c-0.3-1.6-0.7-3.1-0.9-4.7c-0.2-1.6-0.2-3.2-0.3-4.8c-2.7,1-3.9,3-3.5,5.6
		C453-474,454.9-472.5,457.4-472.4z M486-420.6c0.5-0.8,0.8-1.2,1-1.6c0.6-2,0.6-4.2-0.1-6.1c-0.4-1-2.2-0.3-3.3-0.4
		c-1.2-0.2-1.2,0.4-0.8,1.3C483.9-425.3,484.9-423.1,486-420.6z M463.6-433.8c0-1.6,0-2.9,0-4.2
		C463.3-436.7,461.5-435.4,463.6-433.8z"/>
	<path class="st0" d="M500.8-318.9c0-1.5-0.6-2.8-1.4-4.1c-5.1-7.7-7.3-16.1-6.2-25.4c0.2-1.6-0.1-2.5-1.7-3.2
		c-3.4-1.7-4.5-5.7-2.6-9c4.6-8.1,9.3-16.2,14-24.3c2.7-4.5,8.6-4.3,11.4,0.1c0.1,0.1,0.2,0.3,0.2,0.4c2.8,4.8,2.8,4.8,8.1,2.9
		c0.8-0.3,1.1-0.5,0.9-1.4c-2.2-8.1,1.7-13.6,7.8-18c1.9-1.4,4-2.5,6-3.8c5.6-3.6,8.5-8.7,9.1-15.3c0.1-1.2-0.3-1.5-1.3-1.7
		c-4.7-0.8-7.9-3.6-10-7.7c-3.1-6-4.4-12.4-4.6-19.1c0-0.3,0-0.6,0-0.9c0.2-0.4,0.1-0.7-0.3-0.8c-0.9-3.5,0.3-6.5,2.3-9.2
		c3.6-4.9,8.7-7.4,14.6-8.5c11.4-2.1,20.5,1.4,27.2,10.9c3.5,5,4.1,10.7,4.3,16.6c0.3,7-0.6,13.9-1.2,20.9c-0.8,9.5-0.6,19-0.5,28.5
		c0,1.4,0.1,2.8-2,2.5c-1.4-0.1-0.8,0.9-0.7,1.5c1.1,8.6,1.6,17.1,1.4,25.8c-0.2,7.7-0.9,15.3-2.3,22.8c-0.3,1.7-1,2.9-2.4,4
		c-11.6,8.7-23.3,17.1-36.6,23.1c-5.8,2.6-11.8,4.3-18.3,3.4C508.9-308.9,503.4-311.9,500.8-318.9z M504.1-319
		c-0.2,0-0.4-0.1-0.5-0.1c0,0.2,0.1,0.4,0.1,0.6c1.5,4,4.6,6.1,8.4,7.3c7.5,2.4,14.6,0.9,21.5-2.3c12.7-5.9,24-13.9,35.1-22.2
		c1.5-1.1,2.2-2.4,2.5-4.2c2.7-15.8,2.6-31.6,0.6-47.4c-0.2-1.6-0.8-2.3-2.3-2.4c-7.7-3.2-13.1-8.7-16.1-16.8
		c-0.8,1.1-1.3,1.8-1.9,2.6c-5.4,7-12.3,11.3-21.4,11.3c-3.5,0-4.1,0.5-4.7,3.9c-0.3,1.8-0.1,3.6,0.5,5.3c0.2,0.6,0.3,1.3,1.2,1.4
		c0.7,0.1,1,0.5,1,1.2c-0.1,0.8-0.8,0.9-1.5,1.1c-2.2,0.4-4.3,1-6.5,1.4c-1.4,0.3-1.6,0.8-0.8,2.1c2.9,4.9,5.8,9.9,8.6,14.8
		c3.1,5.4,0.1,10.5-6.1,10.5c-7.8,0-15.6,0.1-23.4,0c-2,0-2.7,0.6-2.9,2.5c-0.5,6.6,0.5,12.8,3,18.9c2.4,5.8,6.5,9,12.5,10.1
		c2.1,0.4,4.2,0.7,6.4,0.8c1.2,0.1,2.1-0.2,3-1c10.4-8.7,21.2-16.7,32.6-24c1.1-0.7,1.4-1.4,1.1-2.7c-1.3-4.9-2.4-9.8-3.1-14.8
		c-0.9-5.7-1-11.4-0.5-17.1c0.1-1.4,0.3-2.9,2.4-1.7c0,0.4,0.1,0.9,0,1.3c-1.3,10.6,0.8,20.8,3.4,31c0.1,0.5-0.1,1.6,0.9,1.3
		c0.9-0.2,1.7-0.4,2,0.7c0.3,1-0.7,1.4-1.3,1.8c-12.8,7.9-24.8,16.8-36.3,26.4c-1,0.8-1.9,1.2-3.2,1.2
		C513.2-316,508.6-317.2,504.1-319z M576-436.4c0-2.4,0.2-4.8,0-7.1c-0.4-4.5-1.2-8.8-4-12.5c-7.7-10.5-18-12-29.5-8
		c-4.6,1.6-8.2,4.8-9.9,9.6c-0.7,1.9-0.3,3.1,1.8,3.9c6,2.4,12.2,3.2,18.5,3.1c5-0.1,5-0.1,6.6,4.7c2.9,9.1,3.2,17.9-3.1,26
		c-1,1.3-1.3,2.9-1.3,4.6c-0.1,8.8,8.1,18.6,17.4,20.7c1.8,0.4,2.1-0.1,2.1-1.8c0-5.6,0.1-11.3,0.1-16.9
		C574.5-418.8,576.2-427.5,576-436.4z M508.6-353c4.4,0,8.9,0,13.3,0c4-0.1,5.9-3.3,3.9-6.8c-4.4-7.8-8.9-15.5-13.5-23.3
		c-2-3.5-5.7-3.5-7.8-0.1c-4.5,7.7-9,15.5-13.5,23.3c-2,3.5-0.1,6.8,4,6.8C499.7-353,504.1-353,508.6-353z M532.8-448.5
		c0.2,5.9,1.3,11.3,3.5,16.5c2.4,5.5,7.2,9.7,13.9,7.8c0.8-0.2,1.9-0.4,2.2,0.8c0.2,1.2-0.9,1.5-1.7,1.6c-1.6,0.1-1.8,0.9-1.9,2.3
		c-0.8,7.8-4.5,13.8-11.5,17.7c-2.7,1.5-5.4,3.2-7.6,5.4c-0.4,0.4-1.1,0.6-0.7,1.4c7.9,0.6,15.4-3.2,20.9-10.6
		c0.6-0.8,1-1.9,1.8-2.2c1.5-0.5,1.3-1.4,1.1-2.5c-0.3-3.1,0.3-6,2.3-8.6c1.4-1.8,2.4-3.7,3.1-5.9c2-6.6,0.7-12.9-1.6-19.1
		c-0.4-1.2-1.2-1.1-2.1-1c-3.9,0.2-7.7-0.1-11.5-0.7C539.4-446.2,536.2-447.2,532.8-448.5z"/>
	<path class="st0" d="M394-364.1c1.7-9.9,6.6-17.7,15-23.2c13.4-8.8,31.1-6.5,42.2,5.4c10.8,11.5,11.9,29.5,2.5,42.2
		c-0.5,0.6-1.1,1.1-1.3,2.2c5.8,0,11.5,0,17.1,0c2,0,4,0,6,0.1c2.7,0.1,4,1.4,3.8,4.1c-0.4,6.3-1.9,12.3-4.1,18.2
		c-0.3,0.8-0.5,1.5-0.8,2.3c-1.6,2.9-3,5.8-4.9,8.5c-5.5,7.8-12.9,13.1-21.9,15.9c-11.6,3.6-23.4,3.8-35.1,0.7
		c-17.6-4.7-27.5-16.9-32.1-34c-0.9-3.5-1.7-7.1-2-10.7c-0.3-3.4,0.9-5,4.3-5c6.2-0.1,12.3,0,19,0
		C395.2-345.5,392.8-354.3,394-364.1z M449.5-335.1c0.1-0.9-0.1-1.7-0.5-2.5c0.3-0.3,0.5-0.7,0.8-1c8.9-10.1,10.5-24.3,3.9-35.8
		c-6.6-11.6-19.7-17.6-33-15.1c-15.1,2.9-26,17.3-24.7,32.7c1.3,15.7,14.3,28,29.7,28.4c6.3,0.2,12-1.5,17.4-4.6
		c0.3,0.8-0.5,1.6,0.1,2.4c-0.4,0.3-0.7,0.5-1.1,0.7c-6.6,3.4-13.6,4.5-20.9,3.3c-1.4-0.2-2.5-0.3-2.7,1.5c-0.1,0.5-0.3,1-0.6,1.4
		c-0.7,0.9-0.6,1.6,0.3,2.4c1.6,1.6,2.4,3.5,2.6,5.8c0.3,3.9-1.7,7.5-5.2,9.3c-3.4,1.8-7.7,1.3-10.6-1.3c-2.9-2.5-4.1-6.6-2.8-10.3
		c0.5-1.4,0.6-2.2-0.8-3.1c-1.6-1-2.6-2.6-3.3-4.4c-1.8-4.6-1.7-4.9,3.1-4.5c3,0.2,5.9,0.2,9.2-0.6c-2.2-1.5-4.1-2.7-5.7-4.3
		c-0.5-0.5-1.2-0.6-1.8-0.6c-6.5,0-13.1,0-19.6,0c-1.9,0-2.7,0.8-2.5,2.7c0.5,3.9,1.2,7.8,2.3,11.5c4.2,14.6,12.8,25.3,27.6,30.2
		c8.8,2.9,17.9,3.3,27.1,2.1c7.9-1,15.3-3.6,21.7-8.6c11.6-9.1,15.8-21.8,17.7-35.7c0.2-1.9-0.9-2.3-2.4-2.3
		C466.3-335.2,457.9-335.2,449.5-335.1z M411.4-307.5c3.9,0,7.2-3.3,7.2-7.2c0-4-3.3-7.3-7.4-7.3c-4,0-7.2,3.3-7.2,7.2
		C404-310.7,407.3-307.5,411.4-307.5z M403.1-327.2c-0.8,0.2-2.5-0.8-2.9,0.3c-0.4,1.2,0.9,2.4,1.8,3.4c0.2,0.3,0.5,0.5,0.8,0.8
		c0.9,0.9,1.6,1.1,2.8,0.2c2.5-1.9,5.4-2.4,8.4-1.5c0.5,0.1,1.1,0.6,1.6-0.1c0.6-0.9,1.3-2,1.1-3.1c-0.1-1.1-1.5-0.9-2.3-1.3
		c-0.7-0.4-1.5,0-2.2,0.1C409.4-327.6,406.4-327.3,403.1-327.2z"/>
	<path class="st0" d="M398.7-466.9c0,0.6-0.2,0.9-0.6,1.1c-0.4,0.2-0.9,0.2-1.2-0.2c-0.2-0.2-0.4-0.4-0.5-0.7c-3.6-7-7.1-14-10.7-21
		c-0.4-0.7-0.4-1.5,0.4-1.9c0.8-0.4,1.3,0.1,1.6,0.7c3.7,7.1,7.3,14.2,10.9,21.4C398.6-467.3,398.6-467.1,398.7-466.9z"/>
	<path class="st0" d="M389.6-459c-0.3,0.9-0.9,1.3-1.9,0.8c-4.7-2.5-9.4-5-14.1-7.5c-0.7-0.4-1-0.9-0.6-1.6c0.4-0.8,1.1-0.8,1.9-0.4
		c4.6,2.4,9.1,4.8,13.7,7.3C389.2-460.1,389.6-459.7,389.6-459z"/>
	<path class="st0" d="M409.3-478.2c0,2.1,0,4.2,0,6.2c0,0.9-0.3,1.7-1.3,1.7c-0.9,0-1.1-0.8-1.1-1.7c0-4.2,0-8.3,0-12.5
		c0-0.8,0.1-1.6,1.1-1.7c1-0.1,1.3,0.7,1.3,1.6C409.3-482.4,409.3-480.3,409.3-478.2z"/>
	<path class="st0" d="M426.8-494.4c-0.1,1-0.8,1.2-1.4,1.5c-3.4,1.5-6.6,3.2-9.8,5c-0.7,0.4-1.6,0.9-2.1,0c-0.7-1,0.2-1.6,1-2
		c3.3-1.9,6.7-3.7,10.2-5.2C425.8-495.6,426.5-495.5,426.8-494.4z"/>
	<path class="st0" d="M481.7-283c-1,0-2,0-2.1-1.2c-0.1-1.1,0.9-1.2,1.7-1.3c3.7-0.6,7.4-1.1,11.1-1.8c0.9-0.2,1.7-0.1,1.9,0.9
		c0.2,1-0.7,1.3-1.6,1.5C489.1-284.2,485.4-283.6,481.7-283z"/>
	<path class="st0" d="M361.4-376.6c1,0.1,1.2,0.7,1.3,1.4c0.7,3.8,1.5,7.5,2.6,11.2c0.2,0.8,0.3,1.7-0.8,2c-0.9,0.2-1.3-0.5-1.5-1.3
		c-1.1-3.8-1.9-7.6-2.6-11.4C360.2-375.7,360.3-376.5,361.4-376.6z"/>
	<path class="st0" d="M360.6-413.8c0.7-4.1,1.7-8.1,2.9-12c0.2-0.7,0.7-1.2,1.5-0.9c0.8,0.2,1,0.9,0.7,1.6
		c-1.1,3.9-2.1,7.8-2.8,11.8c-0.1,0.7-0.6,1.2-1.4,1.1C360.7-412.4,360.6-413.1,360.6-413.8z"/>
	<path class="st0" d="M361.3-394.5c0,1.9,0,3.8,0,5.8c0,0.9-0.1,1.7-1.2,1.7c-0.9,0-1.1-0.8-1.2-1.6c-0.3-4-0.1-8,0.1-11.9
		c0-0.9,0.4-1.5,1.3-1.4c0.8,0.1,1,0.7,1,1.5C361.3-398.4,361.3-396.5,361.3-394.5C361.3-394.5,361.3-394.5,361.3-394.5z"/>
	<path class="st0" d="M521.9-491.2c-0.2,0.9-0.8,1.4-1.7,1c-3.7-1.8-7.5-3.6-11.3-5.1c-0.7-0.3-1.1-0.8-0.7-1.6
		c0.4-0.8,1-0.8,1.7-0.5c3.8,1.4,7.5,3.1,11.1,5C521.4-492.1,521.8-491.8,521.9-491.2z"/>
	<path class="st0" d="M369.1-436.4c-0.9-0.3-1.3-0.8-1-1.7c1.6-3.9,3.5-7.6,5.7-11.3c0.4-0.6,0.9-1,1.7-0.5c0.7,0.5,0.7,1.1,0.3,1.7
		c-2,3.5-3.8,7.2-5.5,10.9C370-436.7,369.6-436.5,369.1-436.4z"/>
	<path class="st0" d="M450.9-501.7c-0.1,0.7-0.5,1-1.2,1.2c-3.9,0.7-7.8,1.7-11.6,2.9c-0.8,0.3-1.5,0.1-1.8-0.8
		c-0.3-0.8,0.3-1.3,1-1.5c3.9-1.2,7.9-2.3,12-2.9C450.3-503,450.8-502.6,450.9-501.7z"/>
	<path class="st0" d="M505.8-288.4c-0.8,0-1.2-0.3-1.4-0.8c-0.2-0.7,0.1-1.2,0.7-1.4c4-1.4,7.8-3,11.7-4.8c0.6-0.3,1.2,0,1.5,0.6
		c0.3,0.6,0.1,1.1-0.4,1.4C514-291.4,509.8-289.8,505.8-288.4z"/>
	<path class="st0" d="M375.1-340.3c0.1,0.9-0.1,1.3-0.7,1.5c-0.5,0.2-1.1,0-1.4-0.5c-2.2-3.7-4.1-7.5-5.6-11.5
		c-0.3-0.7,0-1.3,0.7-1.6c0.8-0.2,1.2,0.3,1.5,0.9c1.4,2.9,2.7,5.7,4.1,8.6C374.2-341.8,374.7-341,375.1-340.3z"/>
	<path class="st0" d="M528.4-299.3c-0.6,0-0.9-0.2-1.1-0.7c-0.3-0.6-0.1-1.1,0.4-1.4c3.5-2.3,7-4.7,10.3-7.3
		c0.5-0.4,1.1-0.3,1.6,0.2c0.5,0.6,0.4,1.2-0.1,1.6c-3.3,2.8-6.8,5.2-10.5,7.4C528.8-299.4,528.5-299.4,528.4-299.3z"/>
	<path class="st0" d="M542.9-477c-0.2,0.3-0.3,0.7-0.5,0.9c-0.4,0.4-1,0.4-1.4,0c-3.4-2.6-6.7-5.2-10-7.8c-0.6-0.4-0.6-1-0.2-1.6
		c0.4-0.5,0.9-0.6,1.4-0.3c3.6,2.3,7,5,10.2,7.8C542.6-477.7,542.7-477.3,542.9-477z"/>
	<path class="st0" d="M464.9-282.5c-3-0.3-6-0.6-9-0.9c-0.8-0.1-1.6-0.3-1.5-1.2c0.1-1.1,0.9-1.1,1.8-1.1c3.8,0.3,7.7,0.6,11.5,0.9
		c0.8,0.1,1.5,0.3,1.5,1.2c0,1-0.8,1.1-1.6,1.1C466.7-282.6,465.8-282.6,464.9-282.5C464.9-282.5,464.9-282.5,464.9-282.5z"/>
	<path class="st0" d="M449.5-335.1c-0.7,0.9-1.6,1.7-2.7,2.2c-0.1-0.1-0.2-0.1-0.3-0.2c0,0.1,0.1,0.2,0.1,0.3c0,0-0.1,0-0.1,0
		c-0.3-0.1-0.5,0.1-0.6,0.3c0.7,0.9,1.5,0.1,2.2,0c4.7-0.9,9.4,1.6,11.1,6c1.7,4.4-0.1,9.4-4.2,11.7c-4.1,2.4-9.4,1.4-12.4-2.4
		c-2.9-3.7-2.7-8.8,0.5-12.3c2-0.1,2.2-1.3,2-2.9c-0.9,0.3-0.4,1.3-1.1,1.6c-0.3,0-0.5,0.1-0.8,0.1c-0.6-0.8,0.1-1.6-0.1-2.4
		c0.4-0.3,0.9-0.6,1.3-0.9c1,0.8,0.8-0.1,0.8-0.6c0.6-0.5,1.1-0.9,1.7-1.4c0.2,0.2,0.3,0.6,0.6,0.5c0.7-0.3,0.3-0.9,0.3-1.3
		c0.3-0.3,0.6-0.6,0.9-0.9C449.4-336.8,449.6-336,449.5-335.1z M457.5-323c0-3.9-3.2-7.2-7.2-7.3c-4-0.1-7.4,3.3-7.4,7.3
		c0,3.9,3.4,7.3,7.2,7.3C454.1-315.6,457.5-319,457.5-323z"/>
	<path class="st0" d="M428.6-438.4c0,7.9-6.2,14.1-14.1,14.1c-7.9,0-14.2-6.3-14.2-14.1c0-7.9,6.3-14.1,14.2-14.1
		C422.3-452.5,428.6-446.2,428.6-438.4z M402.7-438.3c0,6.4,5.3,11.7,11.8,11.7c6.5,0,11.9-5.4,11.8-11.9
		c-0.1-6.4-5.4-11.7-11.8-11.7C407.9-450.2,402.6-444.9,402.7-438.3z"/>
	<path class="st0" d="M509.6-371.8c0,2.4,0,4.7,0,7.1c0,0.9-0.1,1.8-1.1,1.8c-1.1,0-1.2-0.9-1.2-1.8c0-4.8,0-9.6,0-14.4
		c0-0.9,0.1-1.7,1.3-1.7c1,0.1,1,0.9,1,1.7C509.6-376.7,509.6-374.2,509.6-371.8z"/>
	<path class="st0" d="M509.6-358.7c0,0.9-0.1,1.7-1.2,1.7c-1.1-0.1-1.1-1-1.1-1.8c0-0.9,0.1-1.7,1.2-1.7
		C509.7-360.5,509.6-359.6,509.6-358.7z"/>
	<path class="st0" d="M420.3-354.8c-1.3,0.1-1.9-0.4-1.7-1.7c0.4-3.5,0.8-7,1.2-10.6c0.1-1.2,0.8-1.6,1.8-1.9
		c3.5-0.9,7-1.7,10.5-2.6c1.5-0.4,2.2,0,2.4,1.6c0.6,3.7,1.2,7.4,1.8,11.2c0.2,1-0.1,1.7-1.3,1.9
		C430.1-356.2,425.1-355.5,420.3-354.8z M421.1-358.6c-0.3,1,0.2,1.3,1.3,1.2c3.4-0.5,6.9-1,10.3-1.5c0.9-0.1,1.3-0.5,1.1-1.5
		c-0.5-2.5-0.8-4.9-1.2-7.4c-0.1-0.7-0.2-1.4-1.2-1.1c-3,0.8-6.5,0.8-8.8,2.6C420.7-365,421.7-361.4,421.1-358.6z"/>
	<path class="st0" d="M424.6-374.7c-1.8,0-3.6,0-5.3,0c-0.6,0-1.2,0-1.5-0.7c-0.2-0.6,0.1-1.1,0.5-1.6c2.5-2.5,5-5,7.5-7.6
		c0.7-0.7,1.3-0.7,2.2-0.5c3.5,0.7,7,1.3,10.5,2c0.7,0.1,1.4,0.2,1.6,1c0.2,0.9-0.5,1.3-1.1,1.7c-2.4,1.7-4.8,3.5-7.2,5.2
		C429.5-373.7,427-375,424.6-374.7z M421.4-377.3c5.9,0.9,10.7,0.6,14.2-4c-2.4-0.5-4.8-0.9-7.1-1.4c-0.6-0.1-1.1,0-1.6,0.5
		C425.1-380.7,423.4-379.2,421.4-377.3z"/>
	<path class="st0" d="M430.4-349.7c-0.6,1.9-1.1,3.9-1.7,5.9c-1.1,3.8-2.1,7.5-3.2,11.3c-0.5,1.8-1.4,2-2.6,0.6
		c-1.6-1.9-3.1-4-4.7-5.9c-0.8-0.9-0.6-1.7,0.2-2.5c3.3-3.4,6.5-6.9,9.8-10.3c0.5-0.5,1-0.9,1.7-0.7
		C430.4-351,430.4-350.4,430.4-349.7z M426.3-345c-1.3,0.6-2,1.7-2.9,2.7c-3.4,3.6-3.4,3.6,0.2,7.5
		C424.5-338.3,425.9-341.5,426.3-345c0.2,0,0.4-0.1,0.1-0.3C426.4-345.2,426.4-345.1,426.3-345z"/>
	<path class="st0" d="M437.1-341.3c-0.8,0-1.6,0-2.4,0c-3.7-0.1-3.4,0-2.9-3.6c0.6-4.1,2.5-6.7,6.6-7.8c1.3-0.4,2.5-1.2,3.8-1.8
		c1.7-0.7,2.4-0.2,2.2,1.6c-0.4,3.2-0.9,6.3-1.2,9.5c-0.2,1.8-0.9,2.5-2.7,2.3c-1.1-0.1-2.2,0-3.3,0
		C437.1-341.2,437.1-341.2,437.1-341.3z M441.7-351.7c-1.8,0.8-3.3,1.5-4.8,2.3c-1.4,0.7-3.4,4.1-2.8,5.3c0.7,1.4,2.4,0.3,3.6,0.6
		c0.5,0.1,1,0,1.5,0c1,0.1,1.5-0.3,1.6-1.3C441.1-347.1,441.4-349.2,441.7-351.7z"/>
	<path class="st0" d="M408.9-359.9c-5-0.4-4,0.5-5.2-4.2c-0.6-2.3-0.3-4.1,1.1-6c1.3-1.7,2.3-3.6,3.5-5.4c0.4-0.6,0.7-1.2,1.6-1
		c0.8,0.2,0.9,0.8,1,1.5c0.5,4.4,0.9,8.8,1.5,13.2c0.2,1.4-0.4,1.9-1.7,1.9C409.9-359.8,409.2-359.9,408.9-359.9z M408.8-371.7
		c-2,2.7-3.8,4.9-2.6,8.3c0.6,1.7,1.7,1,2.7,1.1c1.3,0.1,0.9-0.9,0.8-1.5C409.4-366.3,409.1-368.8,408.8-371.7z"/>
	<path class="st0" d="M409-357.1c3.7,0,6.6,3,6.6,6.6c0,3.6-3.1,6.6-6.7,6.6c-3.6-0.1-6.5-3-6.5-6.6
		C402.3-354.1,405.3-357.1,409-357.1z M413.3-350.6c0-2.2-2.2-4.2-4.4-4.2c-2.3,0.1-4.2,2-4.1,4.4c0.1,2.4,1.9,4.2,4.3,4.1
		C411.4-346.3,413.3-348.3,413.3-350.6z"/>
	<path class="st0" d="M447.9-368.1c0.7,0,1,0.5,1.2,1.1c1.5,3.7,3.1,7.4,4.6,11.1c0.2,0.6,0.4,1.1,0,1.7c-0.5,0.6-1.2,0.4-1.8,0.1
		c-3.2-1.3-6.3-2.5-9.5-3.8c-1-0.4-1.7-1-0.9-2.2c1.8-2.5,3.6-4.9,5.4-7.4C447.1-367.9,447.4-368.1,447.9-368.1z M444.1-359.8
		c2.1,0.9,4.1,1.6,6.6,2.6c-1.2-2.8-2.1-5-3.1-7.4C446.3-362.8,445.3-361.4,444.1-359.8z"/>
	<path class="st0" d="M448.1-336.8c0,0.5,0.3,1.1-0.3,1.3c-0.3,0.1-0.5-0.3-0.6-0.5C447.4-336.2,447.8-336.5,448.1-336.8z"/>
	<path class="st0" d="M445.4-334.5c-0.1,0.5,0.2,1.4-0.8,0.6C444.8-334.1,445.1-334.3,445.4-334.5z"/>
	<path class="st0" d="M466.5-328.9c3.2,0,4.1,1,3.5,4c-2.1,10.1-7.7,17.8-16,23.7c-1.8,1.3-3.2,0.7-4.1-1.3
		c-1.5-3.4-1.4-3.9,1.6-6.1c6-4.4,9.7-10.3,11.5-17.4C463.6-328.1,464.5-329.2,466.5-328.9z M467.8-325.6c0.1-0.9-0.4-0.9-1.1-1
		c-1.2-0.1-1.3,0.8-1.4,1.6c-2,7.7-6.1,13.9-12.5,18.6c-0.2,0.1-0.4,0.3-0.5,0.4c-1.1,0.9-0.4,1.8,0,2.6c0.6,1,1.1-0.1,1.5-0.4
		c4.9-3.7,8.7-8.2,11.4-13.7C466.4-320.2,467.3-322.8,467.8-325.6z"/>
	<path class="st0" d="M438-296.4c-5.9,0-10.8-4.7-12.1-10.7c-1.2-5.8,1.9-10.3,7.7-11.2c1.3-0.2,2.1,0.1,2.7,1.3
		c2.7,5.3,5.5,10.5,8.3,15.7c0.7,1.3,0.5,2.1-0.8,2.9C441.7-297.3,439.6-296.5,438-296.4z M427.9-309c0.4,3.5,2.1,6.8,5.6,9
		c2.5,1.6,5,1.3,7.6,0.2c0.9-0.4,1.2-0.8,0.7-1.8c-2.4-4.5-4.8-9-7.2-13.6c-0.4-0.8-0.9-1-1.8-0.8
		C429.8-315.2,427.9-312.7,427.9-309z"/>
	<path class="st0" d="M390.3-329.4c0.7,0,1.5,0,2.2,0c1.1-0.1,1.6,0.3,1.8,1.5c0.5,2.9,1.4,5.6,2.9,8.1c0.4,0.7,0.4,1.5-0.4,1.9
		c-0.8,0.4-1.3-0.2-1.6-0.8c-1.3-2.2-2.3-4.5-2.7-7c-0.4-2.1-1.9-1.5-2.9-1.3c-1.4,0.2-0.4,1.3-0.3,1.9c1.6,6.7,4.6,12.8,9,18.1
		c0.4,0.4,0.8,0.9,1,1.4c0.2,0.5-0.1,1-0.6,1.2c-0.7,0.3-1.1-0.1-1.5-0.5c-1.6-1.8-3-3.7-4.2-5.7c-3-4.9-5.1-10.2-6.3-15.8
		c-0.6-3-0.5-3.1,2.4-3.1C389.5-329.4,389.9-329.4,390.3-329.4z"/>
	<path class="st0" d="M422.9-292.4c-6.3-0.5-12.2-2.2-17.6-5.6c-0.7-0.5-2-0.9-1.3-2.1c0.7-1.3,1.7-0.4,2.4,0.1
		c5.1,3.2,10.7,4.7,16.5,5.3c1,0.1,2.4-0.2,2.2,1.4C425-291.9,423.7-292.5,422.9-292.4z"/>
	<path class="st0" d="M444.2-330.7c0.7-0.3,0.1-1.3,1.1-1.6c0.2,1.6,0,2.9-2,2.9C443.5-329.8,443.8-330.3,444.2-330.7z"/>
	<path class="st0" d="M445.9-332.4c0.1-0.3,0.3-0.4,0.6-0.3C446.3-332.6,446.1-332.5,445.9-332.4z"/>
	<path class="st0" d="M446.7-332.7c0-0.1-0.1-0.2-0.1-0.3c0.1,0.1,0.2,0.1,0.3,0.2C446.8-332.8,446.8-332.7,446.7-332.7z"/>
</g>
<g>
	<path class="st0" d="M588.2-160.5c-0.8-2.5-1.6-5-2.3-7.5c-5.4-19.3-6.4-38.9-2.6-58.6c0.2-1.1,0.5-2.2,0.8-3.3
		c0.5-1.8,1.7-2.6,3.1-2.2c1.4,0.4,1.9,1.6,1.6,3.5c-0.8,4.4-1.7,8.7-2.2,13.2c-1.9,19.2,0.4,37.8,7.1,55.9c0.2,0.5,0.6,1,1,1.2
		c11.8,5.3,18.4,14.8,21.2,26.9c3.3,14,1.2,27.3-7.6,39c-6.1,8.1-14.3,12.9-24.7,12.7c-6.2-0.1-11.8-2.3-17.1-6.2
		c0.2,0.6,0.3,1,0.4,1.2c3.5,5.9,8.8,8.6,15.5,8.8c16.2,0.5,30.9-9.2,36-25.1c6.3-19.3,4.1-37.5-8.8-54
		c-14.2-18.1-20.2-38.6-17.8-61.5c0.4-4.4,1.3-8.8,2-13.2c0.3-2,1.4-2.8,2.9-2.5c1.4,0.3,2.1,1.5,1.7,3.4
		c-1.3,7.1-2.6,14.2-2.5,21.4c0.2,18.4,5.9,34.8,17.2,49.3c14.9,19,17.3,40,8.2,61.9c-6.9,16.6-20.4,25-38.6,25.1
		c-12.4,0.1-21.3-7.9-23.3-20.1c-0.2-1.4-0.7-2.8-1.5-3.9c-10.5-16.8-9.1-39.7,3.4-54.1c6.7-7.7,15-11.7,25.4-10.9
		c0.3,0,0.6,0,0.9,0C587.9-160.3,588-160.4,588.2-160.5z M566.9-107.9c-1.8,1.5-3.5,2.9-5.3,4.3c-1.5,1.2-1.7,2.3-0.5,3.8
		c0.7,0.9,1.2,2,1.9,3c11.1,16.1,31,16.2,42.4,0.3c4-5.6,6.2-11.8,6.9-18.6c1.1-11-1-21.2-7.9-30c-10.9-14-28.9-14.2-40-0.3
		c-6.7,8.4-9.1,18.2-8.3,28.7c0.2,3.2,1,6.4,1.6,10c4.8-4.7,10-7.6,15.9-9.3c0-0.4,0.1-0.8,0-1.1c-0.7-3.4-0.4-6.8,0.8-10.1
		c1.1-3,0.9-6-0.3-9c-0.8-1.8-0.3-3.1,1.2-3.7c1.3-0.5,2.5,0.1,3.3,1.9c1.7,4,1.9,8.1,0.5,12.2c-1,2.9-1.3,5.7-0.3,9
		c1.5-0.6,3-0.9,4.3-1.6c3-1.5,4.9-4,6.1-7.1c0.6-1.7,1.8-2.3,3.1-1.8c1.3,0.4,1.9,1.8,1.4,3.4c-0.3,0.9-0.6,1.7-1.1,2.5
		c-3,5.7-8,8.5-14.2,9.5c-2.1,0.3-4.1,1-6.1,1.5c0.4,0.7,0.7,0.9,1.1,1.1c4,2.2,8.2,3.5,12.8,4c1,0.1,2.3,0.6,2.9,1.4
		c1.2,1.6-0.3,3.6-2.6,3.4C579.2-101.1,572.8-103.3,566.9-107.9z"/>
	<path class="st0" d="M525.3-85.7c-5.4,3.8-11.3,6.1-17.9,5.9c-10.2-0.2-17.9-5.1-24-12.9c-13.2-17.2-11.4-44.3,3.8-59.1
		c2.8-2.7,5.9-4.8,9.4-6.4c0.7-0.3,1.4-1,1.6-1.7c8.1-22.4,9.9-45.3,4.9-68.7c-0.4-1.9,0.2-3.2,1.7-3.5c1.4-0.3,2.5,0.6,3,2.5
		c2.3,9.6,3.1,19.4,2.9,29.2c-0.3,13.3-2.5,26.3-6.8,39c-0.1,0.3-0.2,0.6-0.3,1.1c0.5,0,0.8,0.1,1.2,0.1
		c11.2-0.9,19.9,3.8,26.6,12.3c7.4,9.4,9.9,20.2,9.1,32c-0.6,7.8-3.2,15-7.5,21.6c-0.5,0.8-0.7,1.9-0.9,2.9
		c-1.6,9.9-7.9,17.3-16.9,19.5c-5.7,1.4-11.5,1.1-17.1-0.4c-15-4-25.1-13.7-29.6-28.2c-6.4-20.6-3.9-40,9.9-57.3
		c4-5,7.4-10.4,10-16.3c6.8-15,8.9-30.6,6.2-46.8c-0.5-2.7-0.9-5.4-1.4-8.1c-0.2-1.5,0.5-2.7,1.8-3c1.3-0.3,2.5,0.5,2.9,2
		c6.1,27.7,1.7,53.2-16.2,75.7c-9.1,11.4-12.2,24.5-11.4,38.8c0.5,8.7,2.7,17,7.9,24.1c8.4,11.5,19.9,16.8,34.2,15.2
		C518.4-77,522.7-80.3,525.3-85.7z M513.3-117c0.9-3.1,0.6-6-0.4-8.8c-1.4-4.1-1.2-8.1,0.5-12c0.8-1.9,1.9-2.5,3.4-1.9
		c1.4,0.6,1.8,1.9,1,3.8c-1.2,2.9-1.3,5.9-0.3,8.9c0.3,1,0.7,2,0.8,3c0.1,2.7,0,5.4,0,8.3c5.9,1.6,11.1,4.6,15.9,9.3
		c0.6-3.6,1.4-6.8,1.6-10c0.8-10.8-1.7-20.8-8.7-29.3c-6.3-7.5-14.2-11.2-24.1-9.2c-7.2,1.4-12.5,5.7-16.5,11.6
		c-6.4,9.4-8.2,19.8-6.4,30.9c1.3,8,4.6,15.1,10.5,20.7c5.6,5.4,12.2,8.2,20.1,7.1c10.1-1.4,16.5-7.7,21-16.3c0.2-0.3,0-1.1-0.3-1.4
		c-2-1.9-4.1-3.6-6.1-5.4c-0.7,0.5-1.2,0.9-1.6,1.2c-5.4,3.9-11.5,5.8-18,6.2c-1.7,0.1-2.7-0.7-2.8-2.1c-0.1-1.4,0.7-2.4,2.3-2.6
		c1.2-0.2,2.5-0.3,3.7-0.5c3.9-0.7,7.6-2.1,11.2-4.4c-0.6-0.2-0.8-0.4-1.2-0.5c-2.8-0.7-5.6-1.2-8.3-2c-6.1-1.7-10.3-5.5-12.2-11.6
		c-0.5-1.4,0-2.5,1.4-3.1c1.3-0.6,2.5,0.1,3.1,1.5c0.2,0.5,0.4,1,0.6,1.4C505.4-120.2,508.6-117.7,513.3-117z"/>
</g>
<g>
	<g>
		<g>
			<path class="st1" d="M860.4-126.3l-7.3-5.3l11.3-15.5l5.3,3.9c0.7,0.5,1.6,0.3,2-0.3v0c0.5-0.7,0.3-1.6-0.3-2l-18.1-13.2
				c-0.7-0.5-1.6-0.3-2,0.3l0,0c-0.5,0.7-0.3,1.6,0.3,2l5.3,3.9L845.6-137l-7.3-5.3c-1.1-0.8-2.6-0.5-3.4,0.5
				c-0.8,1.1-0.5,2.6,0.5,3.4l2.2,1.6l-37.5,51.7c-1.2,1.7-0.9,4.1,0.8,5.3l10.3,7.5c2.4,1.8,5.8,1.2,7.6-1.2l36.6-50.3l2.2,1.6
				c1.1,0.8,2.6,0.5,3.4-0.5C861.7-123.9,861.5-125.5,860.4-126.3z"/>
			<path class="st1" d="M813.1-68.6l-15-10.9c-0.2-0.1-0.4-0.2-0.5-0.1c-0.2,0-0.4,0.1-0.5,0.3c-0.2,0.3-0.2,0.8,0.2,1l1.3,1
				l-1.7,10l1.7,1.2l-16.1,22.2l5.1-3.7l12.6-17.3l2.1,1.5l8.7-4.9l1.2,0.9c0.2,0.1,0.4,0.2,0.5,0.1c0.2,0,0.4-0.1,0.5-0.3
				C813.5-67.9,813.4-68.3,813.1-68.6z"/>
		</g>
		<path class="st1" d="M853.9-125.1l-36.3,49.9c-1.4,1.9-4,2.3-5.8,0.9l-6.5-4.7l38.7-53.3L853.9-125.1z"/>
		<g>
			
				<rect x="847.7" y="-125.9" transform="matrix(0.5876 -0.8092 0.8092 0.5876 448.7717 635.5678)" class="st1" width="0.4" height="6.8"/>
			
				<rect x="841.1" y="-121" transform="matrix(0.5876 -0.8092 0.8092 0.5876 441.3359 633.2584)" class="st1" width="1.5" height="9.3"/>
			
				<rect x="837.7" y="-112.1" transform="matrix(0.5876 -0.8092 0.8092 0.5876 433.5464 633.164)" class="st1" width="0.4" height="6.8"/>
			
				<rect x="831.2" y="-107.2" transform="matrix(0.5876 -0.8092 0.8092 0.5876 426.1064 630.8524)" class="st1" width="1.5" height="9.3"/>
			
				<rect x="827.7" y="-98.4" transform="matrix(0.5876 -0.8092 0.8092 0.5876 418.3161 630.7575)" class="st1" width="0.4" height="6.8"/>
			
				<rect x="821.2" y="-93.5" transform="matrix(0.5876 -0.8092 0.8092 0.5876 410.8768 628.4464)" class="st1" width="1.5" height="9.3"/>
			
				<rect x="817.7" y="-84.7" transform="matrix(0.5876 -0.8092 0.8092 0.5876 403.0872 628.3519)" class="st1" width="0.4" height="6.8"/>
		</g>
	</g>
	<path class="st1" d="M771.3-199.5c-4.9,0-8.9-4-8.9-8.9c0-4.9,4-8.9,8.9-8.9h30.5c4.9,0,8.9,4,8.9,8.9c0,4.9-4,8.9-8.9,8.9H771.3z"
		/>
	<path class="st1" d="M787.2-197.7c4.9,0,8.9,4,8.9,8.9c0,4.9-4,8.9-8.9,8.9h-30.5c-4.9,0-8.9-4-8.9-8.9c0-4.9,4-8.9,8.9-8.9H787.2z
		"/>
	<path class="st1" d="M756.7-181.1h13.6v-15.6h-13.6c-4.3,0-7.8,3.5-7.8,7.8v0C748.9-184.6,752.4-181.1,756.7-181.1z"/>
	<path class="st1" d="M817.3-190.7c4.4,2.1,6.3,7.4,4.2,11.8c-2.1,4.4-7.4,6.3-11.8,4.2L782.1-188c-4.4-2.1-6.3-7.4-4.2-11.8
		s7.4-6.3,11.8-4.2L817.3-190.7z"/>
	<path class="st1" d="M782.6-188.9l12.3,5.9l6.7-14l-12.3-5.9c-3.9-1.9-8.5-0.2-10.4,3.7l0,0C777.1-195.4,778.7-190.8,782.6-188.9z"
		/>
	<g>
		<path class="st1" d="M763.4-110.7c2.1-3.3,2.8-6.6,2.6-10l-2.8,1.8c0.9-4.3,0.6-9.3-0.4-14.7l-1.6,3.3c0.2-4.5-0.9-9-2.9-13.4
			l-1.3,4.4c-1.3-5-3-9.4-5.5-12.7l-0.5,3.3c-1.6-3.8-3.8-7.3-6.7-10.7l-0.8,3.6c-1.8-5-6.1-9.5-11.6-13.7l-0.1,0
			c-0.1,6.9,0.8,13.1,3.7,17.6l-3.3-1.6c0.9,4.4,2.3,8.4,4.3,11.9l-2.9-1.7c1,4,3.4,8,6.6,12.1l-4.3-1.7c2.3,4.3,5.1,7.9,8.8,10.5
			l-3.6-0.8c3.7,4.1,7.4,7.5,11.4,9.4l-3.1,1.1c2.5,2.3,5.6,3.8,9.5,4.1L763.4-110.7z"/>
		<path class="st1" d="M760.7-112.5c-0.9-2.7-2.5-4.6-4.7-6l-0.4,2.4c-2.1-2.5-5.3-4.6-9.1-6.5l1.2,2.4c-2.6-2.2-5.9-3.6-9.6-4.5
			l2,2.7c-3.7-1.6-7.2-2.6-10.4-2.7l1.8,1.8c-3.1-0.8-6.4-1.2-9.9-1.2l1.7,2.1c-3.9-1.3-8.8-1-14.1,0.2l0,0c4.1,3.2,8.3,5.5,12.4,6
			l-2.6,1.1c3.1,1.5,6.2,2.5,9.4,3l-2.5,0.9c2.9,1.2,6.6,1.8,10.7,1.9l-3.2,1.6c3.7,0.7,7.4,0.8,10.8-0.1l-2.3,1.7
			c4.3-0.1,8.3-0.7,11.4-2l-0.9,2.2c2.7-0.4,5.1-1.4,7.3-3.4L760.7-112.5z"/>
		<path class="st1" d="M758-111.6c-1.6-0.2-3,0.1-4.3,0.9l1.1,0.8c-1.8,0.5-3.7,1.6-5.7,3.1l1.5,0c-1.8,0.8-3.4,2.1-4.8,3.8l1.9-0.3
			c-1.8,1.5-3.2,3.1-4.1,4.7l1.4-0.5c-1.2,1.4-2.3,3-3.1,4.8l1.5-0.4c-1.7,1.7-2.7,4.3-3.5,7.4l0,0c2.7-1.3,5-2.9,6.3-4.9l-0.1,1.7
			c1.6-1.2,2.9-2.6,4-4.1l-0.2,1.5c1.4-1.2,2.6-3,3.7-5.1l0,2.1c1.3-1.8,2.3-3.6,2.7-5.6l0.3,1.6c1-2.3,1.7-4.5,1.9-6.4l0.9,1
			c0.5-1.5,0.6-3,0.1-4.6L758-111.6z"/>
		<path class="st1" d="M760-112.6c0.8-1.4,2-2.3,3.4-2.8l-0.1,1.4c1.5-1.1,3.5-2,5.9-2.6l-0.9,1.2c1.7-0.9,3.8-1.3,5.9-1.4l-1.5,1.3
			c2.3-0.5,4.4-0.6,6.2-0.3l-1.2,0.8c1.8-0.1,3.8,0.1,5.7,0.5l-1.2,1c2.4-0.3,5.1,0.5,8,1.8l0,0c-2.7,1.3-5.3,2.2-7.7,1.9l1.4,1
			c-1.9,0.5-3.8,0.7-5.7,0.6l1.3,0.8c-1.8,0.4-3.9,0.2-6.2-0.2l1.6,1.3c-2.2,0-4.3-0.4-6.1-1.3l1.1,1.2c-2.4-0.6-4.6-1.4-6.2-2.5
			l0.2,1.4c-1.5-0.5-2.7-1.4-3.7-2.8L760-112.6z"/>
		<path class="st1" d="M758.6-111.4c-1.6-2.3-2-4.8-1.8-7.4l2.1,1.2c-0.6-3.2-0.3-7,0.5-11.2l1.2,2.4c-0.1-3.4,0.8-6.9,2.3-10.3
			l0.9,3.3c1-3.9,2.3-7.3,4.3-9.9l0.3,2.5c1.2-2.9,3-5.8,5.2-8.5l0.6,2.7c1.4-3.9,4.7-7.5,8.8-11l0,0c0,5.2-0.7,9.9-2.9,13.5
			l2.5-1.4c-0.7,3.4-1.8,6.5-3.4,9.3l2.2-1.4c-0.8,3.1-2.7,6.3-5.1,9.5l3.2-1.5c-1.7,3.4-3.9,6.3-6.7,8.5l2.7-0.8
			c-2.8,3.3-5.6,6.1-8.6,7.8l2.3,0.7c-1.9,1.9-4.2,3.2-7.1,3.7L758.6-111.4z"/>
		<g>
			
				<rect x="763" y="-113.2" transform="matrix(0.8987 -0.4385 0.4385 0.8987 122.2781 324.4594)" class="st1" width="1.2" height="21.3"/>
		</g>
	</g>
	<g>
		<path class="st1" d="M727.7-78.8c-0.2-2.4-1.2-4.4-2.6-6l-0.7,2c-1.2-2.5-3.3-4.9-5.9-7.2l0.5,2.3c-1.7-2.3-4-4.1-6.7-5.6l1.1,2.7
			c-2.6-2-5.1-3.5-7.6-4.2l1.1,1.8c-2.2-1.3-4.8-2.2-7.5-2.7l1,2.1c-2.8-1.8-6.7-2.4-11.1-2.3l0,0c2.7,3.5,5.5,6.2,8.6,7.3l-2.3,0.5
			c2.1,1.8,4.4,3.3,6.8,4.3l-2.1,0.3c2.1,1.6,4.8,2.7,8,3.5l-2.8,0.8c2.8,1.3,5.6,2,8.5,1.8l-2.1,1c3.4,0.6,6.6,0.8,9.3,0.3
			l-1.1,1.8c2.1,0.2,4.2-0.3,6.3-1.6L727.7-78.8z"/>
		<path class="st1" d="M725.7-78.6c-1.5-1-3-1.3-4.7-1.2l0.7,1.3c-2-0.4-4.4-0.2-7,0.3l1.5,0.8c-2.2-0.1-4.3,0.5-6.5,1.5l2.1,0.6
			c-2.4,0.6-4.6,1.5-6.2,2.7l1.6,0.2c-1.9,0.8-3.6,1.9-5.4,3.3l1.7,0.4c-2.5,0.9-4.8,2.9-7,5.6l0,0c3.3,0,6.3-0.5,8.5-1.8l-0.9,1.6
			c2.1-0.5,4.1-1.2,5.9-2.1l-0.9,1.4c1.9-0.5,4-1.7,6-3.2l-1,2c2.1-1.1,4-2.5,5.4-4.2l-0.5,1.7c2.1-1.8,3.8-3.6,4.9-5.4l0.4,1.5
			c1.2-1.2,2-2.7,2.3-4.5L725.7-78.6z"/>
		<path class="st1" d="M724.6-77.1c-0.9,0.5-1.4,1.2-1.8,2.1l0.9,0c-0.7,0.9-1.2,2.2-1.6,3.7l0.8-0.6c-0.6,1.1-0.8,2.4-0.9,3.7
			l0.8-0.9c-0.3,1.4-0.4,2.8-0.2,3.9l0.5-0.8c-0.1,1.2,0,2.4,0.3,3.6l0.6-0.8c-0.2,1.5,0.3,3.2,1.1,5l0,0c0.8-1.7,1.4-3.4,1.2-4.9
			l0.6,0.9c0.3-1.2,0.4-2.4,0.4-3.6l0.5,0.8c0.2-1.1,0.1-2.5-0.1-3.9l0.8,1c0-1.4-0.3-2.7-0.8-3.9l0.8,0.7c-0.4-1.5-0.9-2.9-1.6-3.9
			l0.9,0.2c-0.3-0.9-0.9-1.7-1.7-2.4L724.6-77.1z"/>
		<path class="st1" d="M725.3-78.4c-0.1-1,0.1-1.9,0.6-2.7l0.5,0.7c0.3-1.1,1-2.4,1.9-3.6l0,1c0.5-1.1,1.4-2.1,2.4-3l-0.2,1.2
			c0.9-1.1,1.9-2,3-2.6l-0.3,0.9c0.9-0.8,1.9-1.4,3.1-2l-0.2,1c1.1-1.1,2.7-1.7,4.7-2.2l0,0c-0.8,1.7-1.8,3.1-3.1,4l1,0
			c-0.8,1-1.6,1.8-2.6,2.5l1-0.1c-0.8,0.9-1.9,1.6-3.2,2.3l1.3,0c-1.1,0.8-2.3,1.4-3.6,1.7l1,0.2c-1.4,0.7-2.8,1.1-4.1,1.2l0.7,0.6
			c-0.9,0.3-1.9,0.4-2.9,0.1L725.3-78.4z"/>
		<path class="st1" d="M725-77.3c-1.7-0.6-2.9-1.6-3.8-3l1.5-0.2c-1.6-1.3-2.9-3.4-4.1-5.7l1.5,0.7c-1.4-1.7-2.3-3.7-2.8-6l1.7,1.3
			c-1-2.3-1.7-4.5-1.7-6.6l1.1,1.1c-0.5-1.9-0.8-4-0.7-6.3l1.3,1.1c-0.8-2.5-0.6-5.6,0.1-8.9l0,0c2,2.6,3.5,5.2,3.8,7.9l0.7-1.7
			c0.9,2,1.6,3.9,1.9,5.9l0.5-1.6c0.8,1.8,1.1,4.2,1.2,6.7l1-2c0.4,2.4,0.5,4.6,0,6.8l1-1.4c-0.1,2.7-0.4,5.2-1.3,7.2l1.4-0.6
			c-0.2,1.7-0.9,3.2-2.1,4.6L725-77.3z"/>
		<g>
			
				<rect x="730.6" y="-81.5" transform="matrix(0.4393 -0.8984 0.8984 0.4393 477.0789 614.7517)" class="st1" width="0.8" height="13.4"/>
		</g>
	</g>
</g>
<g>
	<path class="st0" d="M53.6,126.2c0,0.8,0,1.2,0,1.7c0,6.5,0,13,0,19.4c0,0.4,0.1,0.8-0.1,1.1c-0.3,0.4-0.7,1-1.1,1
		c-0.5,0-1-0.5-1.3-0.9c-0.2-0.3-0.1-0.8-0.1-1.2c0-7.3,0-14.5,0-21.8c0-0.8-0.3-1.4-0.9-1.9c-4.8-3.6-9.5-7.3-14.3-10.8
		c-4-2.9-5.5-6.9-5.1-11.6c0.8-9.4,1.6-18.8,2.4-28.1c0.9-9.8,7.5-17.5,17.5-20.5c4.9-1.4,9.8-1.7,14.8-1.6
		c7.9,0.1,15.9,0.2,23.8,0.3c4.3,0.1,8.5,0.6,12.6,2c10.8,3.6,15.1,12.3,15.7,20.8c0.7,9.4,1,18.9,1.6,28.3c0.2,3.8-1.2,7-4,9.5
		c-4.2,3.8-8.5,7.7-12.8,11.5c-0.7,0.6-1,1.2-1,2.2c0,7.2,0,14.4,0,21.6c0,0.4,0,0.8,0,1.1c-0.1,0.8-0.5,1.4-1.3,1.2
		c-0.5-0.1-0.9-0.8-1.3-1.3c-0.2-0.2,0-0.7,0-1c0-6.3,0-12.6,0-18.9c0-0.4,0-0.9,0-1.7c-0.9,0.8-1.6,1.4-2.3,2
		c-3.3,2.8-7.1,3.8-11.3,3c-6.3-1.2-9.8-8.4-7-14.7c0.8-1.7,2-3.4,3.5-4.7c5.1-4.4,10.4-8.6,15.6-12.8c0.7-0.6,0.9-1.1,0.9-2
		c-0.4-6.7-0.8-13.4-1.2-20.1c-0.1-0.9,0-1.8,1.2-1.8c1,0,1.3,0.7,1.3,1.6c0.4,7.1,0.8,14.1,1.3,21.1c0.1,1.2-0.3,1.9-1.2,2.7
		c-5.4,4.4-10.8,8.8-16.2,13.2c-2.6,2.1-3.9,4.9-3.4,8.2c0.7,5.4,5.1,8.1,10.6,6.5c1.7-0.5,3.4-1.4,4.7-2.5
		c6-5.2,11.8-10.5,17.7-15.8c2.7-2.4,3.9-5.1,3.6-8.8c-0.6-8.8-1-17.6-1.4-26.4c-0.6-11.1-6.7-18.4-17.5-20.5c-3.6-0.7-7.3-0.9-11-1
		c-8.3-0.2-16.5-0.3-24.8-0.3c-4.8,0-9.5,0.8-14,2.8c-7.4,3.4-11.5,9.3-12.2,17.3c-0.9,9.2-1.6,18.4-2.4,27.6
		c-0.3,4,0.9,7.2,4.2,9.6c7,5.2,13.9,10.6,20.9,15.8c1.4,1,3.1,1.8,4.8,2.1c6.1,1.2,10.6-4,8.9-9.9c-0.6-2.1-1.9-3.8-3.7-5.1
		c-5.8-4.4-11.6-8.9-17.4-13.3c-0.5-0.4-1-1.1-1-1.7c0.1-6.8,0.3-13.5,0.4-20.3c0-0.8,0.3-1.4,1.2-1.4c0.9,0,1.3,0.6,1.3,1.5
		c0,0.1,0,0.3,0,0.4c-0.1,4.9-0.2,9.8-0.4,14.8c0,1,0,2-0.1,3c-0.2,1.4,0.4,2.1,1.4,2.9c5.5,4.1,10.9,8.3,16.3,12.5
		c3.6,2.8,5.2,6.6,4.6,11.1c-1,6.7-7.5,10.2-14.2,7.8c-1.3-0.5-2.5-1.2-3.6-2C55.9,128.1,54.9,127.2,53.6,126.2z"/>
	<path class="st0" d="M52.7,23.1c0-12.6,10.1-22.6,22.6-22.6c12.5,0.1,22.4,10.2,22.3,22.8c-0.1,12.3-10.2,22.3-22.5,22.2
		C62.7,45.6,52.7,35.5,52.7,23.1z M75.2,3.1c-11,0-19.9,8.9-19.9,20c0,11,9,20,19.9,20c11,0,19.9-9,19.9-20
		C95.1,12.1,86.1,3.1,75.2,3.1z"/>
	<path class="st0" d="M84,141.5c-2.9-0.2-5-1.1-6.5-3.3c-0.3-0.4-0.5-0.8-0.5-1.3c0-0.5,0.4-1,0.6-1.5c0.4,0.3,1.1,0.4,1.3,0.8
		c0.9,2.1,2.6,2.9,4.7,3c0.6,0,1.1-0.4,1.7-0.4c0.5,0,1.2,0.1,1.3,0.5c0.2,0.3-0.1,1.2-0.4,1.3C85.5,141.2,84.5,141.4,84,141.5z"/>
	<path class="st0" d="M67.7,98c3.1,0.1,6.3,2.8,6.6,5.8c0.1,0.8,0.2,1.7-0.9,1.9c-1.1,0.1-1.1-0.7-1.2-1.5c-0.2-2-2.6-4-4.5-4
		c-0.9,0-2,0.4-1.9-1C65.8,97.9,67,98.2,67.7,98z"/>
	<path class="st0" d="M83.5,98.4c0.2,0,0.6-0.1,0.9,0.1c0.4,0.3,0.6,0.8,0.9,1.3c-0.4,0.3-0.8,0.8-1.2,0.7c-2.8-0.1-4.9,1.6-5.3,4.4
		c-0.1,0.4-0.6,1-1,1.1c-0.8,0.1-1-0.6-1-1.3C76.5,101.7,80,98.4,83.5,98.4z"/>
	<path class="st0" d="M68.2,141.6c-1-0.4-2.1-0.7-3.1-1.2c-0.3-0.2-0.3-1-0.4-1.5c0.5-0.1,1.1-0.4,1.4-0.2c2.8,1.1,4.9,0.5,6.6-2.1
		c0.2-0.3,0.9-0.6,1.3-0.5c0.3,0.1,0.7,0.9,0.6,1.2c-0.3,0.8-0.7,1.5-1.3,2.1C72.1,140.7,70.3,141.3,68.2,141.6z"/>
	<path class="st0" d="M85.6,102.5c0.2,0.2,0.8,0.5,0.9,0.9c0,0.4-0.5,1.1-0.9,1.2c-1.6,0.3-2.6,1.2-3.2,2.7
		c-0.1,0.4-0.9,0.5-1.3,0.7c-0.2-0.4-0.6-0.9-0.6-1.3C80.6,104.6,83.1,102.5,85.6,102.5z"/>
	<path class="st0" d="M67.2,136.7c-0.4-0.1-1.1-0.1-1.6-0.4c-0.3-0.2-0.7-0.8-0.6-1.2c0.1-0.3,0.8-0.8,1.1-0.7
		c1.8,0.5,3.1,0,4.3-1.3c0.2-0.2,1.2-0.2,1.3,0c0.2,0.4,0.3,1.2,0.1,1.5C70.7,136,69.2,136.6,67.2,136.7z"/>
	<path class="st0" d="M65.5,102.2c2.5,0.1,4.8,2,5.1,4c0.1,0.5-0.4,1-0.6,1.5c-0.4-0.3-1.1-0.5-1.3-0.9c-0.6-1.5-1.6-2.3-3.1-2.6
		c-0.4-0.1-1-0.8-1-1.1C64.7,102.7,65.3,102.3,65.5,102.2z"/>
	<path class="st0" d="M84.8,136.9c-1.9-0.1-3.4-0.9-4.5-2.4c-0.4-0.6-0.6-1.3,0.1-1.8c0.7-0.5,1.2-0.1,1.6,0.5
		c0.8,1.1,1.9,1.7,3.2,1.5c0.7-0.1,1.5-0.2,1.6,0.8c0.1,1.1-0.7,1.2-1.5,1.3C85.2,136.9,85,136.9,84.8,136.9z"/>
</g>
</svg>
