<svg width="128" height="128" viewBox="0 0 128 128" fill="none" xmlns="http://www.w3.org/2000/svg">
<g clip-path="url(#clip0_209_52)">
<path d="M1.875 10.073H15.6575L20.2375 14.4532L14.678 20.0128C11.2865 23.4048 11.2865 28.924 14.678 32.3158L17.3803 35.018L14.6228 37.7755C14.2278 38.1708 14.0295 38.7215 14.082 39.2777C14.1345 39.8342 14.4325 40.338 14.8945 40.652L19.518 43.795C20.7332 44.6215 22.1295 45.0255 23.5187 45.0255C25.1295 45.0255 26.7307 44.4818 28.0278 43.4225L29.147 44.5418C29.959 45.3535 31.038 45.8005 32.1862 45.8005C33.3342 45.8005 34.4133 45.3535 35.2253 44.5415L37.7665 42C38.5782 41.1885 39.0252 40.1093 39.0252 38.9613C39.0252 37.813 38.5782 36.7338 37.7665 35.9225L36.6727 34.8288L37.5057 33.9958L38.5995 35.0895C39.4112 35.901 40.4905 36.348 41.6385 36.348C42.7865 36.348 43.8658 35.901 44.6775 35.0895L47.219 32.548C48.8945 30.8723 48.8945 28.1455 47.219 26.4697L46.1253 25.376L46.9582 24.543L48.052 25.6367C48.89 26.4745 49.9903 26.893 51.0908 26.893C52.1913 26.893 53.292 26.4742 54.13 25.6367L56.6715 23.0952C58.347 21.4197 58.347 18.6933 56.6712 17.017L55.5522 15.898C57.525 13.4825 57.7092 10.0127 55.925 7.38825L52.7817 2.7645C52.4677 2.30225 51.964 2.0045 51.4075 1.952C50.8553 1.90025 50.3008 2.09775 49.9053 2.49275L47.1478 5.25L44.4458 2.548C42.8025 0.905 40.618 0 38.2943 0C35.9703 0 33.7857 0.905 32.1427 2.548L22.8895 11.801L17.7055 6.843C17.3565 6.50925 16.8925 6.323 16.4095 6.323H1.875C0.83925 6.323 0 7.16225 0 8.198C0 9.23375 0.83925 10.073 1.875 10.073ZM35.1147 38.5737C35.2472 38.7062 35.2752 38.8575 35.2752 38.961C35.2752 39.0645 35.2475 39.2158 35.1147 39.3483C35.1147 39.3483 35.1145 39.3482 35.1145 39.3485L32.5732 41.8898C32.3597 42.1038 32.0118 42.1033 31.7985 41.8898L30.7048 40.7962L34.021 37.48L35.1147 38.5737ZM44.5672 29.121C44.7807 29.3345 44.7807 29.682 44.5672 29.8958L42.0257 32.4372C41.8122 32.651 41.4648 32.651 41.2513 32.4372L40.1575 31.3435L43.4738 28.0273L44.5672 29.121ZM54.0197 20.443L51.4785 22.9845C51.2648 23.1978 50.917 23.198 50.7035 22.9848L49.6097 21.891L52.926 18.5748L54.0197 19.6682C54.2335 19.8817 54.2335 20.2298 54.0197 20.443ZM50.9545 6.7465L52.824 9.49625C53.7333 10.8338 53.563 12.6345 52.4195 13.778C49.3645 16.833 28.662 37.5352 25.908 40.2892C24.765 41.433 22.964 41.6027 21.6262 40.6937L18.8768 38.8245C26.014 31.6873 46.9022 10.799 50.9545 6.7465ZM34.7945 5.19975C35.7292 4.265 36.9723 3.75 38.2943 3.75C39.6163 3.75 40.8592 4.265 41.794 5.2L44.496 7.90175L20.032 32.366L17.33 29.6637C15.4 27.734 15.4 24.594 17.33 22.6642L34.7945 5.19975Z" fill="white"/>
<path d="M79.4483 16.213H75.092C74.0563 16.213 73.217 17.0523 73.217 18.088C73.217 19.1238 74.0563 19.963 75.092 19.963H79.4483C80.484 19.963 81.3233 19.1238 81.3233 18.088C81.3233 17.0523 80.484 16.213 79.4483 16.213Z" fill="white"/>
<path d="M79.4483 23.0992H75.092C74.0563 23.0992 73.217 23.9385 73.217 24.9742C73.217 26.01 74.0563 26.8492 75.092 26.8492H79.4483C80.484 26.8492 81.3233 26.01 81.3233 24.9742C81.3233 23.9385 80.484 23.0992 79.4483 23.0992Z" fill="white"/>
<path d="M79.4483 29.9857H75.092C74.0563 29.9857 73.217 30.825 73.217 31.8607C73.217 32.8965 74.0563 33.7357 75.092 33.7357H79.4483C80.484 33.7357 81.3233 32.8965 81.3233 31.8607C81.3233 30.825 80.484 29.9857 79.4483 29.9857Z" fill="white"/>
<path d="M79.4483 36.8723H75.092C74.0563 36.8723 73.217 37.7115 73.217 38.7473C73.217 39.783 74.0563 40.6223 75.092 40.6223H79.4483C80.484 40.6223 81.3233 39.783 81.3233 38.7473C81.3233 37.7115 80.484 36.8723 79.4483 36.8723Z" fill="white"/>
<path d="M106.755 29.1575C106.272 28.6317 105.533 28.426 104.848 28.6265C104.163 28.8267 103.651 29.3982 103.528 30.101L102.548 35.6667L97.8 25.2917C97.5255 24.6922 96.9563 24.2805 96.3008 24.2082C95.6455 24.1365 94.9998 24.4135 94.6013 24.939L90.7735 29.986H86.2168C85.181 29.986 84.3418 30.8252 84.3418 31.861C84.3418 32.8967 85.181 33.736 86.2168 33.736H91.7045C92.2913 33.736 92.844 33.4612 93.1985 32.994L95.6945 29.703L101.645 42.7062C101.953 43.3792 102.624 43.801 103.349 43.801C103.428 43.801 103.508 43.796 103.588 43.7857C104.403 43.6812 105.054 43.0595 105.197 42.2507L106.562 34.4912L107.275 35.2672C107.688 35.716 108.293 35.9372 108.897 35.858C109.502 35.7797 110.03 35.4125 110.315 34.8732L112.199 31.2997L112.279 32.0582C112.38 33.0117 113.185 33.7357 114.144 33.7357H117.924C118.96 33.7357 119.799 32.8965 119.799 31.8607C119.799 30.825 118.96 29.9857 117.924 29.9857H115.831L115.279 24.777C115.192 23.9562 114.579 23.2887 113.769 23.133C112.958 22.9777 112.141 23.3697 111.756 24.0997L108.238 30.7717L106.755 29.1575Z" fill="white"/>
<path d="M121.06 68.7162H59.031C57.9952 68.7162 57.156 69.5555 57.156 70.5912C57.156 71.627 57.9952 72.4662 59.031 72.4662H121.06C122.819 72.4662 124.25 73.8972 124.25 75.6562V78.637H3.75V75.6562C3.75 73.8972 5.181 72.4662 6.94 72.4662H51.5342C52.57 72.4662 53.4092 71.627 53.4092 70.5912C53.4092 69.5555 52.57 68.7162 51.5342 68.7162H26.3337V66.2412C26.3337 63.4877 24.0938 61.2477 21.3403 61.2477H11.479C8.7255 61.2477 6.4855 63.4877 6.4855 66.2412V68.731C2.86975 68.9657 0 71.9822 0 75.6562V80.512C0 81.5477 0.83925 82.387 1.875 82.387H8.2425V84.365C8.2425 87.8475 11.0755 90.6807 14.558 90.6807H25.4147C26.4505 90.6807 27.2897 89.8415 27.2897 88.8057C27.2897 87.77 26.4505 86.9307 25.4147 86.9307H14.5577C13.1432 86.9307 11.9923 85.7797 11.9923 84.365V82.387H116.008V84.365C116.008 85.7797 114.857 86.9307 113.442 86.9307C104.957 86.9307 43.2293 86.9307 32.9113 86.9307C31.8755 86.9307 31.0362 87.77 31.0362 88.8057C31.0362 89.8415 31.8755 90.6807 32.9113 90.6807H46.6385L54.5143 95.6767L46.5283 98.653C45.7945 98.9265 45.308 99.627 45.308 100.41V105.973H29.5077C26.8362 105.973 24.663 108.146 24.663 110.818V116.131C22.224 116.924 20.456 119.218 20.456 121.918C20.456 125.272 23.1843 128 26.538 128C29.8918 128 32.6203 125.272 32.6203 121.918C32.6203 119.218 30.852 116.924 28.413 116.131V110.818C28.413 110.214 28.904 109.723 29.5077 109.723H94.6505C95.254 109.723 95.7452 110.214 95.7452 110.818V116.131C93.3062 116.924 91.5383 119.218 91.5383 121.918C91.5383 125.272 94.2665 128 97.6202 128C100.974 128 103.702 125.272 103.702 121.918C103.702 119.218 101.934 116.924 99.4952 116.131V110.818C99.4952 108.146 97.322 105.973 94.6505 105.973H77.7462L62.8978 96.554L78.657 90.6805H113.442C116.924 90.6805 119.757 87.8472 119.757 84.3647V82.3867H126.125C127.161 82.3867 128 81.5475 128 80.5117V75.656C128 71.8295 124.887 68.7162 121.06 68.7162ZM10.2355 66.2412C10.2355 65.5557 10.7933 64.9977 11.479 64.9977H21.3403C22.0258 64.9977 22.5837 65.5555 22.5837 66.2412V68.7162H10.2355V66.2412ZM26.538 124.25C25.252 124.25 24.206 123.204 24.206 121.918C24.206 120.638 25.2417 119.596 26.5187 119.586C26.5252 119.586 26.5315 119.586 26.538 119.586C26.5445 119.586 26.551 119.586 26.5572 119.586C27.8345 119.597 28.8703 120.638 28.8703 121.918C28.8703 123.204 27.8243 124.25 26.538 124.25ZM97.6202 124.25C96.3342 124.25 95.2883 123.204 95.2883 121.918C95.2883 120.638 96.324 119.596 97.601 119.586C97.6075 119.586 97.6137 119.586 97.6202 119.586C97.6267 119.586 97.6333 119.586 97.6395 119.586C98.9168 119.597 99.9525 120.638 99.9525 121.918C99.9527 123.204 98.9065 124.25 97.6202 124.25ZM70.746 105.973H49.0583V101.712L58.4883 98.1977L70.746 105.973ZM58.9243 94.0332L53.6393 90.6805H67.92L58.9243 94.0332Z" fill="white"/>
<path d="M123.414 9.43576H114.172C113.136 9.43576 112.297 10.275 112.297 11.3108C112.297 12.3465 113.136 13.1858 114.172 13.1858H123.414C123.875 13.1858 124.25 13.561 124.25 14.0223V48.4985C124.25 48.96 123.875 49.3353 123.414 49.3353H70.305C69.8435 49.3353 69.4683 48.96 69.4683 48.4985V14.0223C69.4683 13.561 69.8435 13.1858 70.305 13.1858H106.675C107.711 13.1858 108.55 12.3465 108.55 11.3108C108.55 10.275 107.711 9.43576 106.675 9.43576H70.305C67.776 9.43576 65.7183 11.493 65.7183 14.0223V48.4985C65.7183 51.0275 67.7758 53.0853 70.305 53.0853H123.414C125.943 53.0853 128 51.0278 128 48.4985V14.0223C128 11.4933 125.943 9.43576 123.414 9.43576Z" fill="white"/>
</g>
<defs>
<clipPath id="clip0_209_52">
<rect width="128" height="128" fill="white"/>
</clipPath>
</defs>
</svg>
