<?xml version="1.0" encoding="utf-8"?>
<!-- Generator: Adobe Illustrator 24.3.0, SVG Export Plug-In . SVG Version: 6.00 Build 0)  -->
<svg version="1.1" id="Layer_1" xmlns="http://www.w3.org/2000/svg" xmlns:xlink="http://www.w3.org/1999/xlink" x="0px" y="0px"
	 viewBox="0 0 150 150" style="enable-background:new 0 0 150 150;" xml:space="preserve">
<style type="text/css">
	.st0{fill:#005BAB;}
</style>
<g>
	<path class="st0" d="M110.6,43.1c0.2,5.1-1.4,8.8-6.6,10.4c0.9,2.4,0.9,4.8-0.1,7.2c-1,2.4-2.8,3.9-5.3,4.6
		c0.1,1.1,0.2,2.1,0.1,3.1c-0.1,6.4-3.5,10.1-9.9,11.1c-4.6,0.7-9,0.1-13.3-1c-11-2.7-21.8-6-32.4-9.9c-4.2-1.5-7.6-4.1-10.8-7.1
		c-1.9-1.8-3.9-3.6-6-5.3c-2.1-1.8-4.5-2.6-7.4-2.5c-4.8,0.1-9.7,0-14.5,0c-1.9,0-3-0.9-3-2.3c0-1.5,1.1-2.4,2.9-2.4
		c5.3,0,10.7,0,16,0c3.7,0,6.7,1.6,9.4,3.9c2.4,2,4.6,4.2,6.9,6.3c2.4,2.2,5,4,8.1,5.1c11.4,4.1,23,7.8,34.9,10.4
		c3.3,0.7,6.7,0.7,10-0.1c4.1-1,4.8-4.3,4.1-8.2c-0.1-0.5-0.7-1.1-1.2-1.4c-4-1.9-8.1-3.5-12.6-3.2c-0.9,0.1-2.2,0.5-2.4,1.1
		c-0.5,1.3,0.3,2.5,1.6,2.9c2.1,0.7,4.3,1.3,6.5,1.9c0.6,0.2,1.3,0.2,1.9,0.4c1.2,0.4,1.8,1.3,1.7,2.6c-0.1,1.2-1.3,2.3-2.5,2
		c-3.4-0.9-6.8-1.6-10-2.9c-3.1-1.3-4.4-4.6-3.9-7.9c0.3-1.7,1.1-2.8,3.6-4.2c-1.7-2.2-2.9-4.6-2.3-7.5c0.6-2.8,2.2-4.8,5.1-5.7
		c-0.4-0.9-0.9-1.7-1.2-2.5c-1.7-4.9,1.4-9.5,6.5-9.4c5.8,0.1,11.6,1,17.2,2.8c5.9,1.9,11.7,3.8,17.6,5.5c5.5,1.6,11.1,3,16.6,4.2
		c1.9,0.4,4,0.3,6,0.2c1.8-0.1,2.5-1.3,1.7-2.9c-0.7-1.3-1.8-2.6-3.1-3.2c-2.6-1.3-5.3-2.4-8.1-3.3c-10.3-3.4-20.6-6.8-30.9-10.1
		c-0.4-0.1-0.8-0.2-1.1-0.4c-1.3-0.6-1.9-1.8-1.5-3c0.5-1.3,1.7-1.9,3.1-1.4c4.2,1.4,8.3,2.9,12.5,4.3c8.2,2.7,16.4,5.3,24.6,8.1
		c2,0.7,3.8,1.8,5.6,2.9c1.7,1.1,2.9,2.7,3.5,4.6c1.5,5.2-1.1,8.9-6.6,9.3c-5.1,0.4-9.9-0.7-14.8-1.9c-4.8-1.3-9.6-2.8-14.4-4.1
		C111.9,43.5,111.3,43.4,110.6,43.1z M86.3,37c-2,0-3.5-0.3-4.1,1.3c-0.6,1.6,0.3,2.9,1.5,3.7c1.8,1.3,3.8,2.6,5.8,3.4
		c2.5,1,5.1,1.7,7.7,2.4c1.7,0.4,3.4,0.8,5.1,0.9c1.4,0.1,2.5-0.6,3-1.9c1.1-2.5,0.6-4.2-1.7-5.6c-0.7-0.4-1.4-0.8-2.1-1.1
		C96.5,38.1,91.1,37.4,86.3,37z M81.8,48.9c-2.3-0.1-3.3,0.7-3.2,2.5c0,0.8,0.4,1.8,0.9,2.4c1.5,1.7,3.4,3,5.7,3.5
		c2.1,0.5,4.1,1.2,6.1,1.8c1.5,0.5,3,1.1,4.5,1.5c2.2,0.5,3.5-0.4,4-2.6c0.5-2.2,0-3.2-2.3-4.5C92.4,50.8,86.9,49.6,81.8,48.9z"/>
	<path class="st0" d="M110.6,100.7c4.2-1.1,8.3-2.2,12.4-3.3c6.4-1.7,12.9-3.4,19.3-5.2c2.3-0.6,3.3,0,3.9,2.3
		c0.7,2.4,1.3,4.9,2,7.3c0.7,2.7,0.3,3.6-2.4,4.3c-10,2.7-19.9,5.3-29.9,8c-0.5,0.1-0.9,0.3-1.5,0.4c0.4,1.6,0.9,3.1,1.2,4.6
		c1.7,6.8-1.5,12.8-8.2,14.9c-14.7,4.6-29.5,9.1-44.3,13.6c-1.7,0.5-3.6,0.9-5.2,0.6c-2.8-0.5-4.7-2.5-5.4-5.3
		c-3.5-12.9-7-25.7-10.4-38.6c-1.2-4.5,1.2-8.2,5.7-9.2c15.4-3.5,30.7-6.9,46.1-10.4c6.9-1.6,12.9,2,14.8,8.9
		C109.3,96,109.9,98.3,110.6,100.7z M96.6,89.2c-0.2,0-0.7,0.1-1.2,0.2C80,92.9,64.7,96.3,49.3,99.8c-2.7,0.6-3.2,1.5-2.5,4.1
		c3.2,11.9,6.4,23.7,9.6,35.6c1.3,4.8,1.6,5,6.4,3.6c14.5-4.4,28.9-9,43.4-13.5c3.8-1.2,5.9-4.8,4.9-8.6c-2.3-8.8-4.7-17.6-7.1-26.4
		C103.1,91.3,100.2,89.2,96.6,89.2z M130.4,100.4c-6.3,1.7-12.4,3.3-18.6,4.9c0.4,1.6,0.8,3,1.3,4.6c6.3-1.7,12.4-3.3,18.6-5
		C131.2,103.4,130.8,101.9,130.4,100.4z M135,99.1c0.4,1.5,0.8,3,1.2,4.6c2.4-0.6,4.6-1.2,7-1.9c-0.4-1.6-0.8-3-1.3-4.6
		C139.6,97.9,137.4,98.5,135,99.1z"/>
	<path class="st0" d="M15.3,17.9c4,0,8.1,0.2,12.1-0.1c5.2-0.4,9.9-2.5,14.6-4.7c4.9-2.2,9.7-4.6,14.6-6.7c4.1-1.8,8.4-2.8,12.9-2.7
		c5.6,0.1,11.2-0.1,16.7,0.1c4.8,0.1,9.5-0.4,14.2-1.6c1.9-0.5,3.9-0.7,5.8-0.8c5.8-0.1,6.9,4.1,6.3,8c-0.4,2.6-2.1,4.6-4.1,6.1
		c-4,3.1-8.7,4.6-13.8,4.8c-4.8,0.2-9.4,1.3-13.8,3c-0.8,0.3-1.6,0.8-2.3,1.3c-1.2,0.8-2.5,0.6-3.3-0.4c-0.8-1-0.8-2.5,0.4-3.3
		c1.5-1,3.1-1.9,4.8-2.5c4.6-1.6,9.3-2.6,14.2-2.8c4-0.2,7.8-1.3,11-3.9c1.3-1,2.3-2.3,2.3-4.1c0-1-0.4-1.6-1.4-1.5
		c-1.8,0.2-3.7,0.3-5.4,0.7c-4.8,1.3-9.6,1.8-14.5,1.7C82,8.4,77,8.7,72.1,8.5C66,8.1,60.4,9.7,54.9,12.3
		c-5.8,2.7-11.6,5.4-17.5,7.9c-4.4,1.9-9.1,2.7-13.9,2.6c-6.2-0.1-12.4,0-18.5,0c-0.4,0-0.8,0-1.2,0c-1.4-0.1-2.4-1-2.4-2.3
		c0-1.4,1-2.4,2.5-2.4c3.8,0,7.6,0,11.4,0C15.3,18,15.3,17.9,15.3,17.9z"/>
	<path class="st0" d="M13.4,72.6c2.9,0,5.8,0,8.7,0c2.2,0,3.1,1,2.9,3.1C24,87,22.8,98.3,21.7,109.6c-0.4,4.2-0.8,8.4-1.2,12.5
		c-0.2,1.9-0.8,2.6-2.7,2.6c-3.1,0.1-6.2,0.1-9.3,0c-1.4,0-2.1-1-2.2-2.3c-0.7-6.9-1.4-13.9-2.1-20.8c-0.8-8.4-1.7-16.8-2.5-25.2
		c-0.3-3,0.4-3.8,3.4-3.8C7.8,72.6,10.6,72.6,13.4,72.6z M6.4,77.4c1.4,14.3,2.8,28.4,4.3,42.6c1.8,0,3.4,0,5.2,0
		c1.4-14.2,2.8-28.4,4.3-42.6C15.5,77.4,11,77.4,6.4,77.4z"/>
	<path class="st0" d="M131.8,82.1c-7.1,0-11.1-5.4-8.9-12.2c0.8-2.3,2.2-4.4,3.2-6.6c1.2-2.6,2.3-5.2,3.4-7.8
		c0.4-1.1,1.1-1.8,2.3-1.8c1.1,0,2,0.5,2.3,1.5c0.9,4.1,3.3,7.3,5.1,10.9c0.9,1.9,1.9,3.9,2.1,5.9C141.9,78.5,138.3,82.1,131.8,82.1
		z M131.8,62.6c-1.6,3.1-3.2,5.8-4.4,8.6c-0.7,1.7-0.6,3.6,0.8,5.1c1.1,1.2,5.3,1.3,6.9,0.3c1.2-0.7,1.8-3.1,1.3-5
		c-0.2-0.7-0.4-1.3-0.7-1.9C134.6,67.5,133.3,65.3,131.8,62.6z"/>
	<path class="st0" d="M22.8,139c0,5.2-4.2,9.5-9.5,9.5c-5.2,0-9.5-4.3-9.5-9.5c0-5.2,4.2-9.4,9.4-9.5
		C18.4,129.5,22.7,133.8,22.8,139z M18,139c0-2.6-2.2-4.7-4.7-4.7c-2.6,0-4.7,2.1-4.8,4.7c0,2.6,2.2,4.8,4.8,4.8
		C15.9,143.8,18,141.6,18,139z"/>
	<path class="st0" d="M50.1,48.9c-0.1,0-0.3,0-0.4,0c-2,0-3.1-0.8-3.2-2.3c0-1.5,1-2.4,3-2.4c8.9-0.3,16.3-3.6,21.3-11.3
		c0.7-1.2,1.3-2.5,1.9-3.7c0.7-1.4,1.9-1.9,3.1-1.4c1.3,0.6,1.8,1.9,1.2,3.3c-4.1,9.6-11.5,15.2-21.6,17.2
		C53.7,48.6,51.9,48.7,50.1,48.9C50.1,48.9,50.1,48.9,50.1,48.9z"/>
	<path class="st0" d="M64.9,137.4c-2.7,0-4.4-1.4-5.1-3.9c-2.1-7.7-4.1-15.3-6.2-23c-0.1-0.5-0.2-1-0.4-1.4
		c-0.8-3.2,0.7-5.7,3.9-6.4c8.1-1.8,16.2-3.6,24.3-5.4c1.1-0.2,2.2-0.5,3.3-0.7c2.5-0.5,4.9,0.8,5.6,3.2c2.2,7.8,4.3,15.7,6.4,23.6
		c0.6,2.4-0.9,4.6-3.6,5.5c-7.2,2.3-14.5,4.5-21.7,6.8c-1.6,0.5-3.3,1-4.9,1.5C65.8,137.2,65.2,137.3,64.9,137.4z M64.5,132.6
		c9.3-2.8,18.3-5.6,27.6-8.5c-2.1-7.8-4.1-15.4-6.2-23c-9.5,2.1-18.8,4.2-28.2,6.3C60,115.9,62.2,124.1,64.5,132.6z"/>
	<path class="st0" d="M101.9,105.4c0.1,1.9-0.6,2.8-1.9,3c-1.2,0.2-2.2-0.3-2.6-1.5c-0.6-1.7-1-3.4-1.4-5.1
		c-0.3-1.2,0.4-2.1,1.6-2.5c1.2-0.4,2.3-0.1,2.8,1C101.1,102.1,101.5,104,101.9,105.4z"/>
	<path class="st0" d="M102.7,113c0.3,0.3,1.2,0.7,1.5,1.4c0.7,1.7,1.1,3.5,1.5,5.3c0.3,1.2-0.4,2.1-1.6,2.5
		c-1.1,0.3-2.3,0.1-2.7-1.1c-0.6-1.9-1.2-3.8-1.5-5.7C99.6,114,100.8,112.9,102.7,113z"/>
</g>
</svg>
