<?xml version="1.0" encoding="utf-8"?>
<!-- Generator: Adobe Illustrator 24.3.0, SVG Export Plug-In . SVG Version: 6.00 Build 0)  -->
<svg version="1.1" id="Layer_1" xmlns="http://www.w3.org/2000/svg" xmlns:xlink="http://www.w3.org/1999/xlink" x="0px" y="0px"
	 viewBox="0 0 150 150" style="enable-background:new 0 0 150 150;" xml:space="preserve">
<style type="text/css">
	.st0{fill:#005BAB;}
</style>
<g>
	<path class="st0" d="M511.3-48c-0.8-0.5-1-1.3-1-2.2c0-2.4,0-4.8,0-7.2c-0.6,0-1.1,0-1.7-0.1c-1.7-0.1-2.7-1.2-2.7-2.8
		c0-2.9,0-5.9,0-8.8c0-1.7,1.1-2.7,2.7-2.8c0.4,0,0.7,0,1.1,0c21.5,0,43.1,0,64.6,0c0.4,0,0.9,0,1.4,0c0-0.5,0-0.8,0-1.2
		c0-3.2,0-6.5,0-9.7c0-1.2,0.3-2.1,1.1-2.9c2-2.3,4-4.7,6-7.1c-0.6-0.6-1.1-1.3-1.7-1.9c-1.9-2.2-3.9-4.4-5.8-6.6
		c-0.4-0.5-0.8-0.6-1.4-0.3c-2.2,1-4.1,2.4-6,4c-1.4,1.1-2,2.1-2,3.9c-0.1,4.3-3.9,7.6-8.3,7.5c-4.3-0.1-7.9-3.6-7.8-7.9
		c0-1.6-0.6-2.4-1.7-3.4c-1.9-1.7-4.1-2.9-6.3-4c-0.3-0.1-0.9-0.1-1,0.1c-2.5,2.8-5,5.7-7.5,8.6c0,0,0,0.1-0.1,0.2
		c2,2.4,4,4.8,6.1,7.2c0.6,0.7,1,1.5,0.9,2.5c-0.1,1.7,0,3.5,0,5.2c0,1.3-0.6,2-1.6,1.9c-1,0-1.4-0.7-1.4-1.9c0-1.6,0-3.1,0-4.7
		c0-0.5-0.2-1-0.5-1.4c-5.2-6.3-10.5-12.5-15.8-18.7c-1-1.2-1.9-2.5-2.5-3.9c-2.2-5,0.8-9.7,6.2-9.7c2.2,0,4.3,0.4,6.5,0.7
		c3.1,0.4,6.2,0.8,9.4,1.2c-0.3-6.1,1.2-11.5,6.1-15.4c3.6-2.9,7.9-4.1,12.5-3.8c5,0.2,9.3,2.1,12.7,5.9c3.3,3.8,4.2,8.4,4,13.4
		c2.7-0.4,5.2-0.7,7.8-1c2.2-0.3,4.4-0.6,6.7-0.9c4-0.5,7.5,1.9,8.2,5.4c0.3,1.9-0.1,3.7-1.1,5.3c-1.3,1.9-2.7,3.7-4.2,5.5
		c-4.5,5.4-9.1,10.8-13.6,16.1c-0.2,0.3-0.5,0.7-0.5,1c0,3.6,0,7.2,0,11c0.5,0,0.9,0,1.3,0c8.8,0,17.5,0,26.3,0
		c2.7,0,3.6,0.9,3.6,3.5c0,2.5,0,5,0,7.4c0,2.5-0.9,3.4-3.4,3.5c-0.3,0-0.5,0-0.9,0c0,1.5,0,2.9,0,4.4c0,1,0,1.9,0,2.9
		c0.1,0.9-0.2,1.7-1,2.2C573.6-48,542.5-48,511.3-48z M602.6-57.5c-0.5,0-0.9,0-1.4,0c-12.9,0-25.7,0-38.6,0c-0.4,0-0.9,0-1.3-0.1
		c-0.8-0.2-1.1-0.7-1.1-1.5c0-0.8,0.4-1.3,1.2-1.4c0.4-0.1,0.9-0.1,1.3-0.1c14.3,0,28.6,0,43,0c0.4,0,0.8,0,1.3,0c0-2.9,0-5.6,0-8.3
		c-32.7,0-65.3,0-97.9,0c0,2.8,0,5.5,0,8.3c0.5,0,0.9,0,1.4,0c14.5,0,29,0,43.5,0c0.4,0,0.8,0,1.2,0.1c0.8,0.1,1.2,0.6,1.3,1.4
		c0,0.8-0.4,1.4-1.2,1.5c-0.4,0.1-0.9,0.1-1.3,0.1c-13,0-26.1,0-39.1,0c-0.4,0-0.9,0-1.3,0c0,2.2,0,4.3,0,6.4c29.8,0,59.4,0,89.1,0
		C602.6-53.2,602.6-55.3,602.6-57.5z M543.6-114.9c0.2,4.3,1.1,8.2,3.4,11.6c3.3,4.9,8.9,7.1,14.3,5.8c8-2,11.4-10.4,11.3-17.3
		c-6.6-0.4-12.8-1.9-18.4-5.5C551.4-117,547.9-115.3,543.6-114.9z M542.5-104.8c-0.5-1.9-1-3.6-1.4-5.4c-0.2-0.9-0.6-1.2-1.4-1.3
		c-4-0.5-8.1-1.1-12.1-1.5c-1.3-0.2-2.7-0.3-4,0c-2.2,0.4-3.3,2.2-2.6,4.3c0.5,1.4,1.2,2.7,2.2,3.9c2.4,3.1,5,6,7.5,9
		c0.2,0.2,0.2,0.5,0.4,0.8c2.6-2.9,4.9-5.6,7.4-8.4c-0.6-0.3-1.2-0.6-1.7-0.9c-1-0.5-1.3-1.3-0.9-2.2c0.4-0.9,1.3-1.1,2.3-0.5
		C539.6-106.3,541-105.6,542.5-104.8z M585-95.1c0.1-0.3,0.2-0.4,0.3-0.5c2.6-3.1,5.3-6.3,7.9-9.4c0.6-0.8,1.1-1.6,1.5-2.5
		c1.5-3.2-0.2-5.7-3.7-5.7c-0.4,0-0.7,0-1.1,0.1c-1.8,0.2-3.6,0.5-5.5,0.7c-3,0.4-6,0.8-9,1.2c-0.6,2.2-1.2,4.2-1.8,6.4
		c1.5-0.8,2.9-1.5,4.3-2.2c0.9-0.4,1.8-0.2,2.2,0.6c0.4,0.8,0.1,1.6-0.7,2.1c-0.6,0.3-1.2,0.6-1.9,1C580.2-100.7,582.5-98,585-95.1z
		 M572.6-117.9c-0.5-5.1-2.8-8.8-7.1-11c-5.1-2.6-10.3-2.3-15.6,0.4C555.8-121.1,563.7-118.6,572.6-117.9z M553-94.9
		c-0.1,2.1,0.7,3.7,2.4,4.8c1.8,1.1,3.7,1.1,5.5-0.1c1.6-1.1,2.3-2.6,2.3-4.6C559.7-93.8,556.4-93.8,553-94.9z M543.7-118
		c3.3-0.3,5.9-1.7,7.9-4.1c-1.4-1.5-2.7-2.9-4.1-4.4C545.2-124.2,544-121.4,543.7-118z"/>
	<path class="st0" d="M520.3-149.4c-1.2,0-2.3,0-3.3,0c-1,0-1.7-0.6-1.7-1.5c0-0.9,0.6-1.5,1.7-1.6c2,0,4-0.1,6,0
		c0.6,0,1.4,0.4,1.6,0.9c0.2,0.4,0,1.3-0.3,1.7c-1.3,2-2.8,3.9-4.2,5.8c-0.2,0.3-0.4,0.5-0.7,1c1.4,0,2.7,0,4,0c0.4,0,0.8,0,1.1,0.1
		c0.8,0.2,1.2,0.8,1.2,1.6c-0.1,0.8-0.5,1.4-1.4,1.4c-2.7,0-5.4,0.1-8.1,0c-1.3,0-1.9-1.4-1-2.5c1.4-1.9,2.8-3.8,4.2-5.7
		C519.7-148.6,519.9-148.9,520.3-149.4z"/>
	<path class="st0" d="M530.3-132.6c-1,0-1.7,0-2.4,0c-1.3,0-1.9-0.5-1.9-1.5c0-1,0.6-1.5,1.9-1.5c1.7,0,3.4-0.1,5.1,0
		c0.6,0,1.3,0.4,1.7,0.8c0.5,0.6,0.1,1.3-0.3,1.9c-1,1.4-2,2.7-3,4.1c0,0,0,0.1,0,0.3c0.9,0,1.7,0,2.6,0c1,0,1.7,0.6,1.7,1.5
		c0,0.9-0.7,1.5-1.7,1.5c-1.9,0-3.8,0-5.7,0c-1.5,0-2.1-1.3-1.3-2.6C528-129.5,529.1-130.9,530.3-132.6z"/>
	<path class="st0" d="M558.1-101.8c-1.1-0.3-2.1-0.6-3.1-1c-0.9-0.4-1.2-1.2-0.8-2c0.4-0.8,1.2-1.1,2.1-0.7c1.2,0.6,2.4,0.6,3.6,0
		c0.9-0.4,1.7-0.1,2.1,0.7c0.4,0.8,0.1,1.6-0.8,2C560.2-102.4,559.1-102.2,558.1-101.8z"/>
	<path class="st0" d="M551.6-109c-0.8-0.3-1.6-0.5-2.3-0.8c-0.8-0.4-1-1.3-0.7-2c0.4-0.7,1.1-1.1,1.9-0.7c0.8,0.3,1.5,0.3,2.2,0
		c0.8-0.3,1.5,0,1.9,0.8c0.4,0.8,0.2,1.5-0.6,1.9C553.2-109.5,552.4-109.3,551.6-109z"/>
	<path class="st0" d="M564.6-109c-0.8-0.3-1.6-0.4-2.3-0.8c-0.8-0.4-1.1-1.2-0.7-2c0.3-0.8,1.1-1,2-0.8c0.7,0.1,1.4,0.1,2.1,0
		c0.9-0.2,1.7,0.1,2,0.8c0.3,0.8,0.1,1.5-0.6,1.9C566.2-109.5,565.4-109.3,564.6-109z"/>
</g>
<g>
	<path class="st0" d="M25.5,30.6c1.7,0,3.3,0,5.2,0c-0.7,5-1.5,9.8-2.2,14.6c7.9,0,15.9,0,23.6,0c-0.7-6.5-1.5-12.9-2.3-19.6
		c-7.8,0-15.9,0-24.1,0c-0.1-0.3-0.2-0.5-0.2-0.7c0-6.4,0-12.8,0-19.2c0-2.8,2.1-4.9,4.9-4.9c6.6,0,13.2,0,19.8,0
		c2.9,0,4.9,2.2,4.9,5.2c0,6.5,0.1,13,0,19.5c-0.2,9,1.3,17.7,4.7,26.1c4,10,5.1,20.5,4.5,31.2c-0.6,11.6-1.2,23.1-1.4,34.7
		c-0.1,4.4,1.2,8.7,1.6,13.1c0.3,2.8,0.5,5.7,0.2,8.4c-0.8,5.7-5.9,10-11.6,10c-8.5,0.1-17,0.1-25.5,0c-6.6-0.1-11.9-5.5-11.9-12.1
		c0-2.9,0.2-5.8,0.9-8.6c1.3-5.6,1.4-11.3,1.1-17c-0.5-11.6-1.1-23.2-1.4-34.9c-0.2-8,1.2-15.8,4-23.3
		C23.1,45.9,25.2,38.5,25.5,30.6z M22.7,114.6c0.6,5.8-0.6,11.2-1.7,16.7c-0.4,1.8-0.4,3.8-0.4,5.7c0,4,3.2,7.2,7.2,7.2
		c8.4,0.1,16.8,0.1,25.2,0c4,0,7.1-3.3,7.1-7.3c0-1.9,0-3.9-0.4-5.8c-1.1-5.4-2.1-10.7-1.7-16.2c0-0.1-0.1-0.2-0.2-0.3
		C46.2,114.6,34.6,114.6,22.7,114.6z M59.5,80.1c-12.8,0-25.5,0-38.2,0c0.4,9.9,0.9,19.6,1.3,29.5c11.9,0,23.7,0,35.7,0
		C58.6,99.7,59.1,89.9,59.5,80.1z M59.5,74.9c0-0.5,0-0.9,0-1.3c-0.3-7.9-2.2-15.3-5.2-22.6c-0.2-0.4-0.9-0.7-1.4-0.7
		c-8.4,0-16.8,0-25.2,0c-0.5,0-1.3,0.5-1.4,0.9c-1.3,3.9-2.8,7.9-3.7,11.9c-0.9,3.8-1.1,7.8-1.7,11.8C34,74.9,46.7,74.9,59.5,74.9z
		 M35.4,10.7c5,0,9.9,0,14.7,0c0-1.7,0-3.3,0-4.8c-6.6,0-13,0-19.6,0c0,4.9,0,9.8,0,14.6c6.6,0,13.1,0,19.6,0c0-1.7,0-3.2,0-4.9
		c-4.9,0-9.8,0-14.6,0c0-0.3-0.1-0.6-0.1-0.8C35.4,13.5,35.4,12.2,35.4,10.7z"/>
	<path class="st0" d="M69.7,69.4c0.2-17.8,1.7-35.5,4.7-53c0.5-2.8,1-3.2,3.9-3.2c16,0,31.9,0,47.9,0c2.6,0,3.2,0.5,3.7,3.1
		c3.5,20.3,5,40.7,4.2,61.3c-0.4,12.8-2,25.5-3.4,38.3c-1,8.4-1.9,16.9-2.8,25.3c-0.5,4.7-4,7.9-8.7,7.9c-11.3,0-22.6,0-34,0
		c-4.7,0-8.2-3.3-8.7-8c-1.6-14.3-3.4-28.5-4.8-42.8C70.8,88.8,70.4,79.1,69.7,69.4z M124.1,129.3c3.9-30.4,7.5-60.7,3.6-91.3
		c-17,0-34.1,0-51.1,0c-3.8,30.7-0.3,61,3.6,91.3C94.8,129.3,109.4,129.3,124.1,129.3z M125.2,18.2c-15.5,0-30.8,0-46.2,0
		c-0.7,4.9-1.4,9.7-2.1,14.6c16.9,0,33.5,0,50.4,0C126.6,28,125.9,23.1,125.2,18.2z M80.7,134.4c0.2,2.1,0.4,4,0.7,6
		c0.4,2.8,1.6,3.8,4.4,3.8c3.7,0,7.4,0,11.1,0c7.3,0,14.5,0,21.8,0c2.1,0,3.6-0.8,4-2.5c0.5-2.4,0.7-4.8,1-7.3
		C109.2,134.4,95.1,134.4,80.7,134.4z"/>
	<path class="st0" d="M28.1,92.2c0-1.6,0-3.1,0-4.7c8.2,0,16.3,0,24.5,0c0,1.5,0,3.1,0,4.7C44.5,92.2,36.3,92.2,28.1,92.2z"/>
	<path class="st0" d="M50.2,97.3c0,1.6,0,3.1,0,4.8c-6.5,0-13,0-19.6,0c0-1.5,0-3.1,0-4.8C37.1,97.3,43.6,97.3,50.2,97.3z"/>
	<path class="st0" d="M31,70.3c-1.4-0.2-2.9-0.3-4.4-0.5c-0.2-2.8,1.9-11.4,3.7-14.9c1.4,0.6,2.9,1.2,4.2,1.7
		C33.4,61.1,32.2,65.6,31,70.3z"/>
	<path class="st0" d="M81.1,61.8c0.4-7.5,4.6-14.5,13.1-18.3c8.5-3.8,16.6-2.3,23.7,3.8c2.1,1.8,2.1,3,0.2,4.9
		c-8.8,8.8-17.6,17.6-26.4,26.4c-1.9,1.9-3,1.9-4.9-0.2C83.1,74.3,81.1,69.1,81.1,61.8z M105.7,57.1c2.5-2.4,4.9-4.9,7.4-7.4
		c-2.2-1.5-4.5-2.7-7.4-2.9C105.7,50.4,105.7,53.8,105.7,57.1z M85.9,66.2c1.2,2.8,2.2,5.2,3.1,7.5c2.7-2.7,5.1-5.1,7.5-7.5
		C93.3,66.2,89.9,66.2,85.9,66.2z M100.6,46.3c-2.7,1.1-5.2,2.2-7.5,3.1c2.7,2.7,5.1,5.1,7.5,7.5C100.6,53.8,100.6,50.4,100.6,46.3z
		 M96.5,61.1c-2.4-2.4-4.8-4.8-7.3-7.3c-1.5,2.1-2.6,4.5-2.9,7.3C89.9,61.1,93.3,61.1,96.5,61.1z"/>
	<path class="st0" d="M89.8,83.4c0.7,0.5,1.5,0.7,2,1.2c3.3,3.3,6.6,6.6,9.9,9.9c1.4,1.4,1.4,2.7-0.1,4.1c-3.3,3.3-6.5,6.6-9.8,9.8
		c-1.5,1.4-2.7,1.4-4.1,0c-3.3-3.3-6.6-6.5-9.8-9.8c-1.4-1.5-1.5-2.7,0-4.1c3.3-3.3,6.6-6.6,9.9-9.9C88.3,84.2,89.1,83.9,89.8,83.4z
		 M89.9,90c-2.3,2.3-4.5,4.5-6.6,6.6c2.2,2.2,4.4,4.4,6.5,6.5c2.2-2.1,4.4-4.4,6.6-6.6C94.3,94.4,92,92.2,89.9,90z"/>
	<path class="st0" d="M124.4,82.4c0,2.3,0,4.6,0,7c0,2-0.9,2.9-2.9,2.9c-4.6,0-9.3,0-13.9,0c-2,0-2.9-0.9-2.9-2.9
		c0-4.6,0-9.3,0-13.9c0-2,0.9-2.9,2.9-2.9c4.6,0,9.3,0,13.9,0c2,0,2.9,0.9,2.9,2.9C124.4,77.8,124.4,80.1,124.4,82.4z M109.6,87.3
		c3.3,0,6.5,0,9.7,0c0-3.3,0-6.5,0-9.7c-3.3,0-6.5,0-9.7,0C109.6,80.8,109.6,84,109.6,87.3z"/>
	<path class="st0" d="M119.5,114.6c0,2.3,0,4.6,0,7c0,1.9-0.9,2.9-2.8,2.9c-4.7,0-9.4,0-14.1,0c-1.9,0-2.9-0.9-2.9-2.8
		c0-4.7,0-9.4,0-14.1c0-1.9,0.9-2.9,2.8-2.9c4.7,0,9.4,0,14.1,0c2,0,2.9,0.9,2.9,3C119.5,110,119.5,112.3,119.5,114.6z M114.5,109.7
		c-3.3,0-6.5,0-9.7,0c0,3.3,0,6.5,0,9.7c3.3,0,6.5,0,9.7,0C114.5,116.1,114.5,112.9,114.5,109.7z"/>
</g>
<g>
	<path class="st0" d="M-483.9,531.5c-4.4-5-5.8-11.2-6.5-17.6c-0.3-2.9-0.4-5.8-0.6-9.2c-1.3,1.9-2.2,3.5-3.7,4.5
		c-3.8,2.8-8.7,2.8-12.6,0c-3.5-2.5-5.3-7.2-3.7-11.5c3.6-9.9,7.1-20,11.5-29.6c2.6-5.6,6.8-10.5,10.3-15.7c1.6-2.4,3.2-4.8,4.8-7.2
		c4.9-7.4,12-11,21.6-11.7c-5.7-1.9-9.9-4.3-12.5-9c-2.7-4.7-3.1-9.6-1.1-14.6c3.2-8.3,12.5-13,21.4-11c9,2,14.9,9.5,14.3,18.2
		c-0.6,9.2-7.7,15.6-19,16.6c1.7,0.5,2.6,0.7,3.5,1c8.7,2.7,14.4,8.5,17.1,17.1c0.4,1.4,1.1,2.5,2,3.7c5.5,7.4,11.5,14.2,19.2,19.5
		c-0.3,1.3-1.8,1.1-2.5,1.9c-6.7-4.5-12.4-10.2-17.3-17.4c-0.5,6.7-0.5,6.7,3.1,11.1c4.4,5.4,7.5,11.3,9.2,18
		c-1.6-0.1-1.4,1.7-2.3,2.3c-2.1-5.9-3.8-12.2-8.3-16.7c-4.6-4.6-5.4-9.6-5.2-15.6c0.3-7.4-3.1-13.4-9.1-17.7
		c-6.2-4.4-12.9-5.3-20.8-2.5c0.8,0.4,1,0.5,1.2,0.6c7.3,4.1,8.8,10.1,4,17c-3.8,5.6-7.9,11.2-11.6,16.9c-5.3,8.3-9.3,17.2-9.7,27.3
		c-0.4,10.1-0.5,20.1,5.7,28.9c-0.4,1.1,0.2,2.5-0.9,3.5c0,0,0-0.1,0-0.1c-0.2-0.2-0.4-0.4-0.6-0.7c0,0,0.1,0,0.1,0
		C-483.4,531.9-483.6,531.7-483.9,531.5z M-466.7,448.9c0-3.1-2.1-5.9-4.9-6.8c-3.2-1.1-6.3-0.1-8.4,2.8c-3.1,4.3-6.1,8.8-9.1,13.2
		c-2.7,3.9-5.9,7.7-7.8,12c-4,9.2-7.4,18.8-10.9,28.3c-1.5,4.1,0.3,7.9,4.1,9.4c3.8,1.5,8-0.3,9.6-4.4c1.7-4.2,3.1-8.4,4.8-12.6
		c3.1-7.8,5.6-15.8,11-22.6c3.6-4.5,6.6-9.5,9.9-14.3C-467.5,452.4-466.7,450.8-466.7,448.9z M-459.6,430.5
		c8.4,0.2,15.4-6,15.7-13.9c0.3-7.8-6.6-14.5-15-14.7c-8.4-0.2-15.5,6.1-15.7,13.9C-474.8,423.6-468,430.2-459.6,430.5z"/>
	<path class="st0" d="M-482.7,532.8c1.1-1,0.5-2.3,0.9-3.5c1.7,1.4,2.9,3.3,4.8,4.6c6.3,4.1,13.3,5.3,20.6,5.9c0.9,0.1,2-0.2,2.4,1
		c1.4,4.2,3.9,8,4.2,12.7c0.7,10.6,1.2,21.1,1.6,31.7c0.2,5.3,3.4,8.8,8,8.7c4.7-0.1,7.8-3.7,7.7-9.2c-0.1-4.6-0.2-9.2-0.6-13.8
		c-0.9-11.1,0.3-22.6-5.1-33c-0.5-1-0.1-1.5,0.7-2.1c7.6-5.5,10.4-13.4,11.4-22.3c0.8-7.6-0.2-15.1-1.8-22.6
		c0.9-0.6,0.7-2.4,2.3-2.3c0.5,3.2,2.5,5.2,5.1,6.9c1.5,1,2.8,2.2,4.2,3.2c3.9,2.9,8.1,2.5,10.7-0.8c2.7-3.5,2.1-7.8-1.8-10.8
		c-4.4-3.5-8.8-6.9-13.2-10.3c0.7-0.8,2.2-0.6,2.5-1.9c4.4,3.4,8.9,6.7,13.2,10.1c3.4,2.7,4.6,6.3,3.8,10.5c-0.8,3.9-3.2,6.5-7,7.7
		c-3.4,1.1-6.7,0.5-9.6-1.6c-1.8-1.3-3.5-2.7-5.9-4.5c0.7,4.4,0.8,8.1,0.7,11.9c0,5-0.7,9.9-2.4,14.6c-1.7,4.9-4.2,9.2-8.1,12.6
		c-0.7,0.6-1.8,1.1-1.1,2.5c3.6,7.1,3.3,15,3.9,22.6c0.6,7.9,0.8,15.9,1.1,23.9c0.2,7.7-6.6,13.1-13.9,11.2c-4.7-1.3-7.8-5.2-8-10.6
		c-0.5-10-1-20-1.4-30c-0.2-3.9-0.9-7.7-3.2-11c-0.6,0.6-0.5,1.2-0.5,1.7c0.9,6-0.9,11.5-2.9,16.9c-3.2,8.6-6.3,17.2-9.5,25.8
		c-1.7,4.4-5.6,7.2-10.1,7.2c-4.6,0-8.7-2.7-10.4-7.2c-1.1-2.8-0.7-5.7,0.3-8.5c2.8-7.6,5.4-15.2,8.4-22.7c1.8-4.5,2.5-9.1,2.4-13.9
		C-478.5,539.9-478.3,535.6-482.7,532.8z M-459.6,549.1c0-1.1-0.1-1.9,0-2.8c0.3-2.8-0.7-4-3.6-4.2c-3.3-0.2-6.5-1.1-9.5-2.5
		c-2.5-1.2-2.8-0.5-2.8,1.9c0,4.1,1,8.3-0.5,12.3c-3.5,9.8-7.2,19.5-10.7,29.2c-0.7,1.8-0.8,3.8,0.2,5.6c1.6,3.1,4.1,4.8,7.6,4.7
		c3.6-0.1,5.9-2.1,7.1-5.4c3.5-9.7,7-19.3,10.6-29C-459.9,555.7-459.1,552.3-459.6,549.1z"/>
	<path class="st0" d="M-317.7,362.8c4.8-0.7,9.4,0.7,13.9,1.9c4.1,1.1,8,1,11.8-0.6c6.5-2.9,13-3,19.6-0.5c4.9,1.8,10,0.1,15,0.2
		c7.6,0.3,12.4,8.1,8.6,14.8c-1.7,3-4.2,5.1-7.3,6.3c-4.5,1.7-8.1,4.6-11.4,8c-4.5,4.7-10,6.7-16.3,7.1c-5.4,0.3-10.8,0.4-16,2.7
		c-2,0.9-3.5,2.3-5.2,3.5c-2.8,2-5.5,4.2-8.3,6.3c-3.9,3-8.3,4.7-13.3,4.3c-0.6-0.1-1.3,0-2,0.1c-3.4,0.4-3.9,1.5-2.1,4.3
		c2.5,4,3.4,8.2,2.5,12.9c-0.1,0.2-0.1,0.4-0.2,0.6c0.2,0,0.4-0.1,0.6-0.1c3.8-0.7,7.6-1.8,11.5-2.1c6.3-0.5,13.3,3.3,16.9,9.6
		c3.7,6.6,5.3,13.8,6.1,21.2c0.4,3.1,0.4,6.2,0.6,9.2c0.1,1.2,0.3,2.7-1.5,2.8c-2,0.1-1.7-1.6-1.7-2.9c-0.1-7.5-1-14.9-3.4-22.1
		c-0.7-2-1.6-4-2.5-5.9c-2.9-5.8-7.8-8.6-14.3-8.8c-4.6-0.2-8.7,1.5-12.9,2.8c-9.3,3-18.6,5.7-28.3,6.9c-6.2,0.8-12.1,0.3-17.6-3
		c1.2-0.3,1.4-2.1,2.9-1.8c3.4,1.1,6.8,2.1,10.4,1.9c9.5-0.6,18.6-3,27.7-5.8c1-0.3,1.5-0.9,1.9-1.9c1.3-3.1,1.5-6.2-0.1-9.2
		c-0.8-1.5-1.7-2.9-2.4-4.4c-1.3-2.5-0.7-4.5,1.7-6c1.9-1.2,4-1.6,6.2-1.4c4.4,0.3,8.1-1.1,11.5-3.7c1.8-1.4,3.7-2.6,5.4-4
		c6.9-5.9,14.6-9.1,23.8-8.9c6.6,0.2,12.4-2,17-7.1c3-3.3,6.7-6,11-7.6c2.6-0.9,4.7-2.7,6.2-5.1c2.4-4.1-0.3-10-4.9-10.3
		c-2.4-0.2-4.9-0.2-7.3,0.2c-3.5,0.6-6.9,0.6-10.2-0.6c-5.5-2.1-10.9-1.9-16.4,0.5c-4.8,2.1-9.8,2.2-14.8,0.7c-3-0.9-6-1.9-9.2-2.3
		c-0.3-0.1-0.6-0.1-0.8-0.2c-0.4,0.1-0.8,0.2-1.3,0.3C-316.5,364.3-317.3,363.6-317.7,362.8z"/>
	<path class="st0" d="M-323.4,541.6c0,3.7,0,7.5,0,11.2c-0.8,0.6-0.8,1.1,0,1.7c0,5.8,0,11.6,0,17.4c-1.9,0.2-1.5-1.2-1.7-2.4
		c-0.3-1.8,1.2-4-1.1-5.5c0-7.3-0.1-14.6-0.1-21.9c0-3.9-0.6-4.5-4.6-4.5c-19,0-38.1,0-57.1,0c-3.8,0-4.5,0.7-4.5,4.6
		c0,13.9,0,27.7,0,41.6c0,10.3,0,20.6,0,30.9c0,1.8,0.1,3.5,2.3,4.2c0.1,0.5,0.3,0.6,0.5,0.1c1.1,0,2.2,0,3.3,0
		c1.3,1.3,3,0.3,4.4,0.7c1.4,0.3,3.3-0.2,3.4,2.2c-3.7,0-7.5,0.2-11.2,0.1c-3.1,0-5.6-2.5-5.9-5.6c-0.1-1.3-0.1-2.6-0.1-3.9
		c0-23.3,0-46.6,0-69.9c0-6.2,1.9-8.1,8-8.1c5.4,0,10.9-0.1,16.3,0c1.9,0,2.4-0.6,2.4-2.4c-0.1-7.5,0-15,0-22.5c0-5,2.1-7.1,7.2-7.2
		c1.9,0,3.7,0,5.6,0c4.1,0.1,6.4,2.4,6.4,6.5c0,7.7,0.1,15.4,0,23c0,2,0.6,2.5,2.5,2.5c5.9-0.1,11.8-0.1,17.7,0
		c4.2,0.1,6.3,2.4,6.2,6.6C-323.8,541.2-323.8,541.4-323.4,541.6z M-352.8,527.1c0-2.3-0.1-4.3,0-6.3c0.1-1.3-0.4-1.8-1.8-1.8
		c-3.2,0.1-6.4,0.1-9.6,0c-1.6-0.1-1.9,0.6-1.8,2c0.1,2.6,0,5.2,0,7.9c0,5.5,0,5.6,5.4,5.5c2.5,0,5.7,1.1,7.3-0.6
		C-351.8,532.3-353,529.2-352.8,527.1z M-359.3,515.9c1.6,0,3.2,0,4.8,0c0.7,0,1.7,0.1,1.7-1c0-2.4,0.4-4.9-0.2-7.3
		c-0.3-1.3-1.3-2-2.7-2c-2.3,0-4.7,0-7,0c-2,0-2.9,1.1-3.1,2.9c-1,6.9-0.6,7.3,6.3,7.3C-359.5,515.9-359.4,515.9-359.3,515.9z"/>
	<path class="st0" d="M-371.8,440.4c-1.6-0.4-1.8,1.5-2.9,1.8c-5.3-2.3-9.3-6.2-11.5-11.4c-7.2-16.5-5.4-32.2,5.4-46.6
		c12.5-16.6,29.7-24.3,50.2-25.3c1.2-0.1,2.7-0.2,2.7,1.5c0,1.7-1.5,1.6-2.7,1.7c-9,0.7-17.9,2.1-26.1,6.2c-0.9,0.4-1.9,0.6-2.8,2.2
		c6.6-1.8,12.3,0.8,18.1,2.2c2.5,0.6,5,0.1,7.2-1.4c3.1-2.1,6.2-4.1,9.5-6.1c2.1-1.3,4.4-2.6,7-2.5c0.5,0.8,1.3,1.5,1.2,2.6
		c-5.3,1.2-9.5,4.3-13.8,7.3c-4.8,3.5-9.9,4.5-15.3,2.2c-5.9-2.5-11.9-1.8-17.9-0.6c-3,0.6-5.6,2.1-7.8,4.1
		c-10.1,9.3-16.2,20.5-15.8,34.6c0,1.4-1,2.8,0.2,4.2c0.2-0.1,0.3-0.2,0.4-0.2c0.4-0.5,0.7-1.1,1.1-1.6c4.3-7.2,10.7-11.6,18.8-13.6
		c7.2-1.8,14.6-2.3,22-2.3c0.1,0.8,2.2,0.6,1.4,2.2c0.4,0.2,1.4-0.3,2,0.4c-5.6,0.4-11.2,0.8-16.8,1.3c-2.5,0.2-5.1,0.4-7.7,1.7
		c1.6,0.6,2.8,1.1,4,1.6c6.7,3.1,11.8,7.8,14.7,14.7c0.4,1,0.8,2.3-0.7,2.8c-1.3,0.4-1.8-0.5-2.2-1.6c-3.8-8.6-10.7-13.1-19.6-15.2
		c-1.8-0.4-3.3-0.1-4.8,0.9c-5.1,3.3-8.4,8.2-11,13.6c-0.5,1.1-0.2,2,0.1,3C-383.2,432-378.6,437.1-371.8,440.4z"/>
	<path class="st0" d="M-276.3,520.9c-1.1,1.7-0.9,3.2-0.3,5.2c1,3.3,2.3,6.5,3.4,9.8c1.6,4.6,1.3,9.2,0.9,13.9
		c-1.2,14.1-2.5,28.2-3.6,42.3c-0.6,7.2-0.1,14.4,1,21.6c0.6,3.8,0.7,7.7,0.4,11.5c-0.4,7.3-6.6,13-14,13.1
		c-7.2,0.1-13.4-5.5-14.2-12.6c-0.7-6,0.5-11.9,1.2-17.9c1.4-11.5-0.5-22.8-1.4-34.2c-0.7-9.4-1.6-18.9-2.4-28.3
		c-0.2-2-0.1-3.9,0.5-5.9c0.8,1,0.2,3.3,2.6,2.8c0.1,2.3,0.2,4.7,0.4,7c1.2,15.4,2.6,30.7,3.7,46.1c0.4,5.9,0,11.8-1,17.6
		c-0.7,4.5-1.3,9.1-0.3,13.7c1.2,5.1,5.9,8.6,11.2,8.3c5.2-0.2,9.6-4.2,10.3-9.4c0.3-2.4,0.4-4.8,0.1-7.3c-0.5-3.9-1-7.8-1.4-11.7
		c-1.2-13.3,1.1-26.4,2-39.5c0.5-7.9,1.3-15.9,1.9-23.8c0.1-1.5,0.1-3.1-2.2-2.9c-0.4-0.5-0.7-0.5-1.1,0c-7.3,0-14.6,0-21.9,0
		c-0.2-0.5-1.1-0.2-1.1-1c2.4,0,4.7-0.1,7,0c1.4,0,2.1-0.4,1.9-1.9c4.7-0.2,9.5-0.3,14.2,0c0.8,0.3,1.5,0.6,2.1-0.4
		c-1.5-4.3-3.3-8.5-3.9-13c-0.6-0.9-2.1,0.1-2.5-1.3c1.2-0.3,1.6-0.6,2.4-1.8c0.8-0.7,0.9-1.7,1.3-2.6c0.2,0.1,2,2.1,2.1,2.4
		C-276.6,520.8-276.4,520.8-276.3,520.9z"/>
	<path class="st0" d="M-368.4,461.1c-8.3-0.5-15-4.4-21-9.7c-10-8.7-14.8-19.9-15.6-33.1c-0.6-9.6-0.4-19.1,3.1-28.2
		c6.9-18.1,19.9-30.2,37.5-37.9c10.3-4.5,21.2-6.8,32.4-7.5c1.1-0.1,2.7-0.6,2.9,1.2c0.3,2-1.5,1.8-2.7,1.9
		c-12.6,0.8-24.7,3.6-35.9,9.5c-17.7,9.2-29.9,23-33.5,43.2c-2,11-1.5,22.1,2.6,32.7c4.7,11.9,13.4,19.6,25.3,24.1
		c3.1,1.2,6.2,0.4,9.2,1.5c0.6,0.7,1.4,1.4-0.3,1.8C-365.7,460.9-367.2,460-368.4,461.1z"/>
	<path class="st0" d="M-292.5,537.4c0.2,1.5-0.5,2-1.9,1.9c-2.3-0.1-4.6,0-7,0c0,0.8,0.9,0.5,1.1,1c-1.3-0.1-1.8,0.7-1.8,1.9
		c-2.4,0.5-1.8-1.8-2.6-2.8c0.2-3,1.6-5.7,2.6-8.5c1.4-3.8,2-7.6,0.7-11.7c-2.8-9.3-1.5-18.7,0.5-28c0.6-2.7,3.1-4.6,6-4.6
		c4.1-0.1,8.2-0.1,12.4,0c3.1,0.1,5.6,1.9,6.2,4.8c1.7,8.3,3,16.6,1.1,25c-0.7,0.2-0.9-1.3-2-0.5c0.6,0.8,1.1,1.5,1.6,2.2
		c0.1,1-0.3,2-0.7,2.9c-0.1,0-0.2,0-0.3-0.1c-0.1-0.3-1.9-2.3-2.1-2.4c2-8.5,1.3-16.9-0.4-25.3c-0.4-2.1-1.6-3.4-3.8-3.4
		c-3.8,0-7.7,0-11.5,0c-1.9,0-3.1,1-3.4,2.7c-1.7,8.5-2.8,17-0.6,25.6c0.5,2,1.2,3,3.5,2.8c2.7-0.2,5.4,0,8.1,0.1
		c1.1,1.6,2.2,1.6,3.3,0c1.1,0,2.3,0,3.4,0c-0.8,1.3-1.2,1.6-2.4,1.8c0.3,1.4,1.9,0.4,2.5,1.3c-5,0-10.1,0-15.1,0
		c-0.8,0-2-0.3-2.1,0.8c-0.4,4.3-2.5,8.1-3.7,12.6C-297.9,537.4-295.2,537.4-292.5,537.4z"/>
	<path class="st0" d="M-378.5,622c-0.1-2.4-2-1.9-3.4-2.2c-1.5-0.3-3.1,0.6-4.4-0.7c18.1,0,36.1-0.1,54.2-0.1c5.6,0,5.9-0.3,5.9-5.8
		c0-16.4,0.1-32.8,0.1-49.1c2.3,1.4,0.7,3.6,1.1,5.5c0.2,1.2-0.2,2.5,1.7,2.4c0,14.8,0.1,29.5,0.1,44.3c0,3.5-2.3,5.8-5.9,5.8
		C-345.6,622.1-362,622-378.5,622z"/>
	<path class="st0" d="M-368.4,461.1c1.2-1.1,2.7-0.3,4-0.6c1.6-0.4,0.9-1.1,0.3-1.8c0.1-0.1,0.3-0.1,0.4-0.1
		c0.3-0.1,0.6-0.1,0.9-0.2c11.8-0.6,22.4-5.5,33.4-9.3c2.5-0.9,4.9-1.8,7.5-2.1c4.5-0.5,7.4,1,9.2,5.2c3.1,7,4.1,14.6,4.9,22.1
		c0.1,1.1-0.1,2.2-1.5,2.2c-1.5,0-1.7-1.2-1.8-2.3c-0.7-6.5-1.6-13-4-19.2c-1.9-4.9-3.6-6-8.6-4.4c-7.3,2.4-14.4,5.3-21.7,7.6
		C-352.7,460.6-360.4,462.1-368.4,461.1z"/>
	<path class="st0" d="M-261.1,578.3c-1.6-0.4-2.1-1.3-1.3-2.5c3.1-4.5,6.1-9.2,8.9-13.9c0.5-0.8,1.4-1,2.2-0.5
		c0.7,0.4,0.9,1.2,0.5,2c-2.7,5-5.8,9.8-9.2,14.3C-260.2,578-260.7,578.1-261.1,578.3z"/>
	<path class="st0" d="M-246.3,547.3c0.1-0.3,0.3-0.8,0.5-1.2c1.8-4.5,3.5-9,4.9-13.7c0.3-1.1,0.6-2.4,2.1-2c1.5,0.4,1.3,1.6,0.9,2.7
		c-1.4,4.9-3.2,9.7-5.1,14.5c-0.4,0.9-0.9,1.7-2.1,1.4C-245.9,548.9-246.2,548.2-246.3,547.3z"/>
	<path class="st0" d="M-232.2,479c0.1,0.9,0.2,1.9,0.2,2.8c0,0.9-0.3,1.7-1.3,1.8c-1.2,0.1-1.6-0.7-1.7-1.7
		c-0.3-3.1-0.6-6.1-0.9-9.2c-0.2-1.9-0.5-3.7-0.8-5.6c-0.1-1.2-0.7-2.7,1-3c1.9-0.3,1.9,1.4,2.1,2.7c0.6,4.1,1.1,8.1,1.7,12.2
		C-232.1,479-232.2,479-232.2,479z"/>
	<path class="st0" d="M-250.9,418.3c0,0.7-0.3,1.3-0.9,1.6c-0.8,0.3-1.5,0.1-2-0.6c-2.8-4.8-5.8-9.4-9-13.9
		c-0.6-0.8-0.5-1.6,0.4-2.2c0.7-0.5,1.5-0.4,2,0.3c3.5,4.5,6.6,9.3,9.4,14.3C-251,418-251,418.2-250.9,418.3z"/>
	<path class="st0" d="M-407.9,636c-5.3-1-10.5-2.4-15.7-4c-0.9-0.3-1.7-0.9-1.3-2.1c0.4-1.1,1.3-1.3,2.3-1
		c5.1,1.6,10.2,2.9,15.4,3.8c1,0.2,1.8,0.8,1.5,2C-406,635.8-406.8,636.2-407.9,636z"/>
	<path class="st0" d="M-514.6,542.7c0.1,1.2-0.3,1.8-1.1,2c-0.9,0.2-1.5-0.2-1.8-0.9c-2.2-5.2-3.8-10.6-5.2-16
		c-0.2-0.8,0.1-1.5,0.9-1.9c0.8-0.4,1.7-0.2,1.9,0.6C-518.2,532-516.7,537.6-514.6,542.7z"/>
	<path class="st0" d="M-510.7,429.6c-0.1,0.3-0.3,0.9-0.5,1.4c-2,4.3-3.8,8.7-5.3,13.3c-0.3,1-0.7,2.4-2.2,2c-1.7-0.4-1.3-1.8-0.9-3
		c1.6-4.8,3.5-9.5,5.6-14c0.4-0.8,0.9-1.8,2.1-1.5C-511,427.9-510.6,428.5-510.7,429.6z"/>
	<path class="st0" d="M-237.9,448.5c0.1,1.3-0.1,2-0.9,2.3c-1,0.3-1.7-0.2-2-1.1c-1.7-5.3-3.6-10.4-5.6-15.6c-0.3-0.9,0-1.7,0.9-2
		c0.8-0.3,1.6,0,1.9,0.8C-241.3,438.1-239.4,443.4-237.9,448.5z"/>
	<path class="st0" d="M-232.1,502.3c-0.5,3.9-0.9,7.8-1.5,11.7c-0.2,1.3,0,3.3-2.1,2.9c-1.9-0.3-1.2-2.1-1-3.2
		c0.5-4.7,1.1-9.3,1.6-14c0.1-1.2,0.2-2.5,1.7-2.3c1.5,0.1,1.5,1.4,1.4,2.6c-0.1,0.7-0.1,1.5-0.2,2.2
		C-232.1,502.3-232.1,502.3-232.1,502.3z"/>
	<path class="st0" d="M-382,635.5c2.4,0,4.9,0,7.3,0c1.1,0,2.2-0.1,2.3,1.4c0.1,1.4-0.9,1.6-2,1.7c-5.2,0.3-10.5,0-15.7-0.3
		c-1-0.1-1.9-0.4-1.9-1.6c0-1.4,1.1-1.6,2.2-1.5c2.6,0.1,5.2,0.3,7.8,0.5C-382,635.5-382,635.5-382,635.5z"/>
	<path class="st0" d="M-509.5,556.9c1.1,0,1.5,0.5,1.9,1.2c2.4,4.5,5,8.9,7.9,13.2c0.6,0.9,1,1.9-0.1,2.7c-1.1,0.7-1.9,0.1-2.6-0.9
		c-3-4.3-5.6-8.8-8.1-13.4C-511.1,558.4-510.8,557.4-509.5,556.9z"/>
	<path class="st0" d="M-469.7,376.9c0,0.8-0.6,1.3-1.2,1.8c-3.9,3.2-7.6,6.6-11.2,10.1c-0.8,0.8-1.6,1.4-2.6,0.4
		c-1-1.1-0.3-1.9,0.5-2.7c3.7-3.7,7.6-7.2,11.7-10.5c0.6-0.5,1.2-0.9,2-0.5C-470,375.8-469.7,376.3-469.7,376.9z"/>
	<path class="st0" d="M-526.6,476.4c0.5-4.9,1.2-9.8,2.2-14.7c0.2-1.2,0.3-2.7,2.1-2.3c1.6,0.3,1.1,1.7,1,2.8
		c-0.7,4.9-1.5,9.8-2.2,14.7c-0.2,1.1-0.3,2.2-1.7,2.1C-526.7,478.8-526.8,477.6-526.6,476.4z"/>
	<path class="st0" d="M-356.4,636.8c-0.8,0.2-2,0.2-2.2-1.1c-0.3-1.5,0.9-1.8,2.1-2c4.9-0.9,9.7-1.8,14.5-3.1c1.1-0.3,2.4-0.5,2.7,1
		c0.3,1.3-0.7,1.8-1.8,2C-346.1,634.9-351.1,636-356.4,636.8z"/>
	<path class="st0" d="M-410,347.8c0,1.3-0.7,1.7-1.6,1.9c-5.1,1.1-10.1,2.6-15.1,4.3c-1,0.3-1.9,0.2-2.3-0.8
		c-0.4-1.1,0.2-1.8,1.2-2.1c5.1-1.8,10.3-3.3,15.6-4.5C-410.9,346.3-410.1,346.8-410,347.8z"/>
	<path class="st0" d="M-457.4,368.8c-0.8,0-1.3-0.3-1.6-1c-0.3-0.8-0.1-1.5,0.6-2c4.7-2.9,9.5-5.6,14.4-8c0.8-0.4,1.9-0.4,2.4,0.7
		c0.3,0.9-0.1,1.6-0.9,2.1c-4.8,2.4-9.6,5-14.2,7.9C-456.9,368.6-457.2,368.7-457.4,368.8z"/>
	<path class="st0" d="M-393.2,346.8c-1.8,0.2-3.1,0.2-3.2-1.3c-0.1-1.4,1.1-1.7,2.3-1.8c5-0.5,10.1-0.7,15.1-0.6
		c1.1,0,2.2,0,2.3,1.4c0.1,1.5-1,1.8-2.3,1.8C-383.9,346.3-388.9,346.2-393.2,346.8z"/>
	<path class="st0" d="M-504,416c-1.7-0.3-2.1-1.4-1.5-2.5c2.8-4.8,6-9.5,9.6-13.8c0.5-0.6,1.3-0.7,2-0.2c0.7,0.5,0.9,1.4,0.4,2
		c-3.4,4.5-6.5,9.1-9.6,13.8C-503.2,415.7-503.7,415.8-504,416z"/>
	<path class="st0" d="M-437.5,624.6c-0.2,1.2-1.1,1.7-2.2,1.3c-5.2-2.2-10.1-4.8-14.9-7.7c-0.8-0.5-1.1-1.3-0.5-2.1
		c0.6-0.9,1.4-0.9,2.2-0.4c4.7,2.7,9.5,5.2,14.4,7.4C-437.9,623.3-437.5,623.8-437.5,624.6z"/>
	<path class="st0" d="M-523,509.2c0.1,1.4,0.4,2.9-1.3,3.1c-1.8,0.2-1.7-1.5-1.8-2.6c-0.5-4.7-0.8-9.5-1.1-14.3
		c-0.1-1.2-0.2-2.7,1.6-2.7c1.6,0,1.6,1.3,1.6,2.4C-524,499.9-523.6,504.7-523,509.2z"/>
	<path class="st0" d="M-275.6,518c-0.5-0.7-1.1-1.5-1.6-2.2c1.1-0.8,1.3,0.7,2,0.5C-275.4,516.9-275.5,517.4-275.6,518z"/>
	<path class="st0" d="M-323.4,554.5c-0.8-0.6-0.8-1.1,0-1.7C-323.4,553.4-323.4,554-323.4,554.5z"/>
	<path class="st0" d="M-323.4,541.6c-0.4-0.2-0.4-0.4,0-0.6C-323.4,541.2-323.4,541.4-323.4,541.6z"/>
	<path class="st0" d="M-483.2,532.1c0.2,0.2,0.4,0.4,0.6,0.7C-482.8,532.5-483,532.3-483.2,532.1z"/>
	<path class="st0" d="M-483.9,531.5c0.2,0.2,0.5,0.4,0.7,0.6C-483.4,531.9-483.6,531.7-483.9,531.5z"/>
	<path class="st0" d="M-362.8,458.4c-0.3,0.1-0.6,0.1-0.9,0.2C-363.4,458.6-363.1,458.5-362.8,458.4z"/>
	<path class="st0" d="M-314.4,365.3c-0.3-0.1-0.6-0.1-0.8-0.2C-315,365.2-314.7,365.2-314.4,365.3z"/>
	<path class="st0" d="M-390.3,619c0.2,0,0.4,0,0.5,0.1C-390,619.6-390.1,619.5-390.3,619z"/>
	<path class="st0" d="M-344.7,399.3c2.9-2.6,4.1-6.2,5.2-9.8c0.2-0.6,0.4-1.3,0.5-1.9c0.3-1.1,0.5-2.5,2.1-2.1
		c1.7,0.4,1.2,1.8,0.9,3c-0.7,3.3-2,6.4-3.6,9.7c2.8,0,5-1.2,7.2-2.4c4.5-2.3,8.2-6,12.5-8.5c2.8-1.7,5.3-3.4,6.7-6.7
		c1.1-2.5,3.2-4.4,5.4-6c0.9-0.6,1.9-1.2,2.7-0.1c0.8,1.1,0.1,1.9-0.8,2.6c-2,1.6-3.8,3.3-5,5.9c7.2-1.1,14.2-0.8,21.2-1.1
		c1.2,0,1.8-0.7,2.4-1.6c1.8-2.8,4-5.2,6.6-7.2c1-0.7,2-2.2,3.3-0.7c1.3,1.6-0.3,2.3-1.2,3.1c-2,1.6-3.7,3.3-5.6,5.9
		c4.9-0.2,9-1.6,12.9-3.4c1.4-0.7,2.8-1.5,4.2-2.3c1.1-0.6,2.3-1.5,3.1,0.1c0.7,1.3-0.5,2-1.5,2.6c-5.7,3.5-11.8,5.6-18.4,6.3
		c-4.5,0.4-8.9,0.5-14,0.6c2.1,2.1,4,3.4,6.4,3.9c1.1,0.2,2.2,0.5,2,1.8c-0.2,1.4-1.4,1.5-2.6,1.3c-3.6-0.7-6.3-2.8-8.8-5.3
		c-1.4-1.5-2.9-1.7-4.8-1.6c-7.8,0.6-13.8,4.8-19.8,9.8c2.7,1.3,5.3,2.4,7.8,3.7c1,0.5,2.5,1.1,1.6,2.7c-0.9,1.5-2.1,0.6-3.1,0.1
		c-1.2-0.6-2.3-1.2-3.5-1.8c-3.6-1.7-7-2.7-10.8-0.1c-2.3,1.5-5.2,2-8,2.3c-0.6-0.8-1.6-0.2-2-0.4
		C-342.5,399.9-344.6,400.1-344.7,399.3z"/>
	<path class="st0" d="M-278.3,537.4c0.7-0.1,1.4-0.2,2.1-0.4C-276.7,538-277.5,537.7-278.3,537.4z"/>
	<path class="st0" d="M-277.3,540.3c-0.4,0-0.7,0-1.1,0C-278,539.9-277.6,539.9-277.3,540.3z"/>
	<path class="st0" d="M-286.8,520.9c1.1,0,2.2,0,3.3,0C-284.6,522.5-285.7,522.5-286.8,520.9z"/>
	<path class="st0" d="M-359.7,596.2c-6,0-12,0-18,0c-3.6,0-6.2-2.2-6.2-5.7c-0.1-12.6-0.1-25.1,0-37.7c0-3.3,2.5-5.7,5.8-5.7
		c12.6-0.1,25.1-0.1,37.7,0c3.3,0,5.7,2.4,5.7,5.7c0.1,12.6,0.1,25.1,0,37.7c0,3.4-2.6,5.6-6.1,5.7
		C-347.2,596.2-353.5,596.2-359.7,596.2C-359.7,596.2-359.7,596.2-359.7,596.2z M-338,571.5c0-5.8,0-11.6,0-17.4
		c0-3.4-0.5-3.9-3.9-3.9c-11.7,0-23.4,0-35.1,0c-2.9,0-3.8,0.9-3.8,3.9c0,11.7,0,23.4,0,35.1c0,3.1,0.7,3.8,3.8,3.8
		c11.7,0,23.4,0,35.1,0c3.1,0,3.8-0.7,3.9-3.8C-338,583.3-338,577.4-338,571.5z"/>
	<path class="st0" d="M-345.9,612.6c-1.9,0-3.7,0.1-5.6,0c-2.7-0.2-4.6-2-4.8-4.6c-0.2-2.7,1.5-5.1,4.3-5.3c4.3-0.3,8.6-0.3,12.9,0
		c2.6,0.2,4.4,2.6,4.3,5.1c-0.1,2.6-2.1,4.6-4.9,4.8c-0.2,0-0.4,0-0.6,0C-342.1,612.6-344,612.6-345.9,612.6
		C-345.9,612.6-345.9,612.6-345.9,612.6z M-345.5,605.7c-1.8,0-3.6,0-5.3,0c-1.3,0-2.3,0.6-2.3,1.9c0,1.3,1,2,2.3,2
		c3.5,0,6.9,0,10.4,0c1.4,0,2.5-0.6,2.4-2.1c-0.1-1.4-1.1-1.8-2.4-1.8C-342.1,605.7-343.8,605.7-345.5,605.7z"/>
	<path class="st0" d="M-373.2,612.6c-2,0-3.9,0.1-5.9,0c-2.8-0.1-4.8-2.2-4.9-4.8c-0.1-2.5,1.7-4.9,4.3-5.1c4.3-0.3,8.6-0.3,12.9,0
		c2.8,0.2,4.4,2.5,4.2,5.3c-0.2,2.6-2,4.4-4.7,4.6C-369.3,612.6-371.3,612.6-373.2,612.6z M-373.4,609.6
		C-373.4,609.6-373.4,609.6-373.4,609.6c1.9,0,3.7,0.1,5.6,0c1.3,0,2.2-0.7,2.2-2c-0.1-1.3-1-1.9-2.3-1.9c-3.5,0-7.1,0-10.6,0
		c-1.2,0-2,0.5-2.1,1.7c-0.1,1.4,0.7,2.1,2,2.2C-377,609.6-375.2,609.6-373.4,609.6z"/>
	<path class="st0" d="M-282.8,555.4c0,1.2,0,2.4,0,3.6c-0.1,3.4-2.3,5.6-5.7,5.6c-3.4,0-5.7-2-5.8-5.4c-0.1-2.5-0.1-5,0-7.6
		c0.1-3.2,2.5-5.4,5.6-5.4c3.3-0.1,5.7,2.2,5.8,5.5C-282.8,553-282.8,554.2-282.8,555.4z M-285.9,555.5
		C-285.9,555.5-285.9,555.5-285.9,555.5c0-1.2,0.1-2.4,0-3.6c-0.1-1.6-1.1-2.5-2.8-2.5c-1.6,0-2.5,0.9-2.5,2.4
		c-0.1,2.4-0.1,4.8,0,7.2c0,1.6,1,2.4,2.5,2.5c1.6,0.1,2.7-0.7,2.8-2.4C-285.8,558-285.9,556.7-285.9,555.5z"/>
	<path class="st0" d="M-351.4,573.8c0,3.9-1.9,6.7-5,7.9c-3.2,1.1-6.1,0.7-8.6-1.7c-2.4-2.3-3.2-5.8-1.7-8.8
		c1.8-3.7,3.8-7.3,5.7-10.9c0.8-1.5,2.1-2,3-0.4c2.3,4,4.3,8.1,6.4,12.2C-351.3,572.7-351.4,573.6-351.4,573.8z M-359.4,564
		c-1.6,3-3,5.6-4.3,8.2c-1.2,2.4-0.5,4.4,1.5,6c1.8,1.4,3.9,1.4,5.7,0c2-1.6,2.6-3.6,1.5-6C-356.4,569.5-357.8,567-359.4,564z"/>
</g>
<g>
	<path class="st0" d="M44.7-251.8c0-30.3,0-60.7,0-91c0.3-0.7,0.5-1.3,0.8-2c1.5-3.9,4.3-6.8,8.4-7.3c6.8-0.8,13.7-1.5,20.4,1.2
		c0.1,0,0.2-0.1,0.3-0.2c4-8.7,11-12.5,20.7-12.3c12.7,0.2,25.5,0.1,38.2,0c1.1,0,2.5-0.6,3.4-1.3c3.1-2.7,6-5.6,8.9-8.5
		c3-3.1,6.6-4.3,10.9-4.1c5.6,0.2,11.1,0.1,16.3,0.1c0,0-0.6-0.2-1.1-0.4c-7.5-3.3-12-8.9-12.7-17c-0.7-8.3,2.9-14.8,10.3-19
		c2.3-1.3,5-1.8,7.5-2.7c1.9,0,3.8,0,5.7,0c0.3,0.1,0.6,0.3,1,0.4c9.1,1.9,16,9.4,16.5,18c0.6,9.6-5,17.7-14.1,20.7
		c-0.5,0.2-1,0.4-1.5,0.5c2.4,0.5,4.7,0.5,7,0.5c3.8-0.1,7.1,1,10.2,3c5.4,3.4,11,6.6,16.5,9.9c0.6,0.4,1.3,0.7,2.2,1.2
		c0.9-9.6,1.8-18.9,2.8-28.2c0.6-5.6,5.9-9.8,11.6-9.3c6,0.5,10.6,5.6,10,11.3c-0.8,8.2-1.8,16.3-2.7,24.5
		c-0.4,3.9-0.8,7.8-1.2,11.4c4.8,0,9.5,0,14.1,0c8,0,13.1,4.9,13.1,12.7c0,9.9,0,19.7,0,29.6c0,1.6,0,3.1,0,4.7
		c-0.1,2.1-1.5,3.5-3.3,3.5c-1.8,0-3.1-1.4-3.2-3.4c0-0.6,0-1.1,0-1.7c0-11,0-22,0-33c0-3.8-2.2-5.9-6.1-6c-2.8,0-5.7,0-8.5,0
		c-5.6,0-7.4,1.8-7.4,7.3c0,29.3,0,58.7,0,88c0,0.7,0.1,1.5,0.1,2.4c5.3,0,10.4,0,15.5,0c4.3,0,6.4-2.1,6.4-6.3c0-5.6,0-11.2,0-16.8
		c0-6.2,0-12.3,0-18.5c0-2.7,2.4-4.3,4.7-3.2c1.6,0.8,1.9,2.2,1.9,3.8c0,11.6,0,23.1,0,34.7c0,7.8-5,12.7-13.1,12.8
		c-1.9,0-3.7,0-5.7,0c0,4.9,0,9.5,0,14.1c0,5.5-3.5,8.8-9.2,8.8c-2.4,0-4.8,0-7.2,0c-6.7,0-9.8-3.1-9.8-9.7c0-4.4,0-8.7,0-12.9
		c-0.3-0.2-0.4-0.3-0.4-0.3c-11.7,0-23.4-0.1-35.1,0c-0.6,0-1.4,0.8-1.6,1.5c-1.3,3.5-2.4,7.1-3.6,10.7c-0.6,1.9-1.2,3.7-1.8,5.6
		c2,0.8,3.7,1.4,5.4,2.2c5.8,2.9,8.5,9.5,6.2,15.3c-2.2,5.8-8.7,9.5-14.8,7.5c-7.3-2.4-14.9-4.4-20.9-9c-2,1.1-3.8,2.5-5.8,3.3
		c-4.4,1.8-8.9,3.5-13.4,5.1c-6.9,2.5-14-0.4-16.6-6.8c-2.6-6.4,0.6-13.4,7.5-16.2c1.3-0.5,2.7-1.1,4.1-1.7
		c-1.8-5.4-3.6-10.7-5.3-16.1c-0.4-1.4-1.1-1.8-2.6-1.8c-3.9,0.1-7.9,0.1-11.8,0c-2.2,0-3.5-1.4-3.5-3.3c0.1-1.8,1.3-3,3.5-3.1
		c0.8,0,1.6,0,2.4,0c3,0,6,0,9.2,0c-3-8.9-5.8-17.4-8.6-25.8c-12.1,0-23.9,0-35.7,0c0,8.6,0,17.1,0,25.8c5.5,0,10.9,0,16.3,0
		c2.6,0,4.1,1.1,4.1,3.1c0,2-1.5,3.3-4.2,3.3c-2.1,0-4.3,0-6.5,0c0,2.8,0,5.2,0,7.6c0,2.4,0,4.8,0,7.2c-0.1,4.5-3.5,8-8.1,8.1
		c-3.3,0.1-6.7,0.1-10,0c-4.5-0.2-7.9-3.6-8-8c-0.1-3.4,0-6.8,0-10.2c0-1.5,0-3.1,0-4.7c-2.5,0-4.6,0.1-6.8,0
		c-3.7-0.1-6.9-1.4-9.1-4.3C46.3-248,45.6-250,44.7-251.8z M142.9-303c0.5,0.1,0.9,0.1,1.2,0.1c10.5,0,21,0,31.4,0
		c1.5,0,1.7-0.8,2-1.9c3.9-14.9,7.8-29.9,11.7-44.8c1.8-6.9,7.7-9.1,14-5.5c2.5,1.5,5.1,3,8,4.7c1.6-2.5,3-4.8,4.5-7.1
		c-0.8-0.6-1.2-0.9-1.6-1.1c-5.6-3.4-11.3-6.8-17-10c-1.3-0.7-2.8-1.2-4.3-1.3c-12.5-0.5-25-0.9-37.5-1.2c-1.5,0-3.3,0.8-4.4,1.8
		c-5.3,4.9-10.4,9.9-15.6,14.9c-2.9,2.8-2.9,4,0,6.9c0.8,0.8,1.9,1.5,3.4,2.6c0.5-0.8,0.9-1.5,1.4-2.1c3.2-3.1,6.4-6.2,9.6-9.2
		c1.6-1.5,3.7-1.6,5.4-0.6c1.7,1,2.5,2.9,2,5c-0.1,0.5-0.3,1-0.4,1.4c-2.8,9.6-5.7,19.2-8.5,28.8C146.5-315.4,144.7-309.2,142.9-303
		z M73.3-248.5c0-1.1,0-2,0-2.9c0-29.1,0-58.1,0-87.2c0-0.6,0-1.3,0-1.9c-0.2-3.6-2.3-5.6-6-5.7c-3-0.1-6,0-8.9,0
		c-5.1,0-7.1,1.9-7.1,7c0,27.9,0,55.8,0,83.8c0,0.6,0,1.1,0,1.7c0.2,2.7,2,5,4.6,5.1C61.6-248.3,67.3-248.5,73.3-248.5z
		 M148.7-346.1c-1,0.9-1.6,1.4-2.1,2c-3.9,3.7-7.7,7.6-11.7,11.2c-1.5,1.4-3.4,2.6-5.3,3.2c-9.4,3-18.8,5.8-28.3,8.4
		c-2.1,0.6-4.5,0.5-6.6,0c-4.5-1.1-7.5-5.3-7.6-9.8c-0.1-4.7,2.9-8.8,7.6-10.3c7.6-2.4,15.2-4.8,22.9-6.8c5-1.3,7.3-5.4,11.2-8.5
		c-1.1-0.1-1.5-0.1-1.9-0.1c-11.1,0-22.3,0-33.4,0c-1.2,0-2.5,0.1-3.7,0.4c-6.2,1.5-10,6.4-10,13.2c0,12.8,0,25.7,0,38.5
		c0,0.6,0.1,1.2,0.1,1.9c0.5,0,0.8,0.1,1.2,0.1c17.8,0,35.5,0,53.3,0c1.3,0,1.7-0.4,2.1-1.6c1.7-5.9,3.4-11.7,5.1-17.5
		C143.9-329.8,146.2-337.7,148.7-346.1z M232.9-302.9c0-10.4,0-20.6,0-31.1c-4.3,1.3-7.7-0.3-11-2.4c-7.2-4.4-14.5-8.6-21.8-12.9
		c-2.9-1.7-3.8-1.4-4.6,1.7c-3,11.2-6,22.5-8.9,33.7c-0.9,3.6-1.8,7.2-2.8,11C200.3-302.9,216.5-302.9,232.9-302.9z M232.9-248.5
		c0-8.7,0-17.2,0-25.8c-12,0-23.8,0-35.7,0c-2.9,8.6-5.7,17.1-8.6,25.8C203.5-248.5,218.1-248.5,232.9-248.5z M148.2-233.6
		c-1.4-4.3-2.6-8.5-3.9-12.6c-4.7-15-9.4-30-14-45.1c-0.6-2.1-1.6-3.8-3.7-4.7c-2.4-1-4.6-0.5-6.5,1.2c-2,1.8-3,3.9-2.1,6.7
		c5.1,15.2,10.1,30.4,15.2,45.6c1.4,4.3,2.9,8.6,4.3,13C141.1-230.9,144.6-232.2,148.2-233.6z M175.3-229.6c0.2-0.3,0.3-0.5,0.4-0.7
		c6.5-19.4,12.9-38.7,19.3-58.1c0.3-1,0.2-2.3-0.1-3.3c-0.9-2.8-3.6-4.7-6.3-4.7c-2.8,0-4.9,1.7-5.9,4.8
		c-3.4,11.1-6.8,22.2-10.2,33.3c-2.5,8.2-5.2,16.3-7.8,24.6C168.4-232.3,171.8-230.9,175.3-229.6z M193.6-396.3
		c0-7.6-6.2-13.6-14-13.7c-7.7,0-14,6.1-14.1,13.6c0,7.7,6.2,13.8,14.1,13.7C187.5-382.7,193.7-388.7,193.6-396.3z M135.5-296.3
		c1.4,4.7,2.9,9.3,4.2,13.9c0.4,1.4,1,1.7,2.4,1.7c8.5-0.1,17,0,25.5,0c5.1,0,5.2,0,6.6-4.7c1.1-3.6,2.2-7.2,3.3-10.9
		C163.3-296.3,149.5-296.3,135.5-296.3z M142.5-274.2c0,0.2-0.1,0.4,0,0.5c2.5,8.1,5,16.3,7.7,24.3c0.2,0.5,1.2,0.9,1.8,1
		c3.1,0.1,6.1,0,9.2,0.1c1.3,0,1.8-0.4,2.1-1.6c0.8-2.7,1.7-5.4,2.6-8.1c1.7-5.3,3.4-10.7,5.1-16.2
		C161.2-274.2,151.8-274.2,142.5-274.2z M216.8-346.9c3.7,2.2,7.3,4.5,11.1,6.5c2.8,1.5,5.1-0.1,5.5-3.1c1.6-14.7,3.3-29.4,4.9-44.1
		c0.4-3.2-1-5.4-3.7-5.7c-2.6-0.3-4.6,1.4-4.9,4.7c-1,10.1-2,20.2-2.9,30.2c-0.4,4.3-1.4,5.2-5.6,4.5
		C219.8-351.6,218.4-349.4,216.8-346.9z M80-296.3c0,5.3,0,10.4,0,15.5c11.2,0,22.2,0,33.4,0c-0.8-2.6-2-5.1-2.2-7.6
		c-0.2-2.6,0.6-5.2,0.9-7.9C101.8-296.3,91-296.3,80-296.3z M199.4-280.9c11.4,0,22.5,0,33.5,0c0-5.2,0-10.3,0-15.4
		c-11,0-21.8,0-33,0C203.5-290.9,201.2-286,199.4-280.9z M150.2-227.5c-3.2,1.2-6.4,2.3-9.4,3.6c-0.9,0.4-1.4,1.3-2.1,2
		c-1.2,1.2-2.4,2.6-3.8,3.5c-1.6,1-3.5,1.3-5.2,2.2c-2.9,1.5-4,4.9-2.7,7.7c1.3,2.7,4.5,4.1,7.5,3.1c4.9-1.8,9.8-3.6,14.6-5.6
		c3.2-1.3,4.7-4.4,3.9-7.7C152.2-221.6,151.1-224.5,150.2-227.5z M162.8-227.5c-0.8,2.5-1.6,4.8-2.3,7.2c-0.2,0.6-0.4,1.2-0.5,1.8
		c-0.6,3.5,0.9,6.3,4.3,7.7c4.6,1.8,9.2,3.6,13.8,5.3c3.3,1.2,6.8-0.1,8-3.1c1.3-3.1-0.1-6.4-3.5-7.9c-1.4-0.6-2.8-1.1-4.2-1.7
		c-2-0.7-3.4-2-4.2-4c-0.2-0.5-0.6-1.2-1.1-1.4C169.7-224.9,166.3-226.2,162.8-227.5z M127.4-346.5c-3.3,2.8-3.3,2.8-7.9,4.2
		c-2.8,0.8-5.7,1.7-8.5,2.5c-4.7,1.4-9.5,2.8-14.2,4.3c-2.2,0.7-3.5,2.5-3.3,4.5c0.2,2,1.7,3.6,3.8,3.8c1,0.1,2-0.2,3-0.5
		c8.1-2.4,16.2-5,24.4-7.2c3.6-1,6.3-2.8,8.4-5.4C131.3-342.4,129.4-344.4,127.4-346.5z M70-241.9c0,4.9,0,9.6,0,14.3
		c0,1.4,0.8,2.1,2.1,2.1c3,0,6,0.1,8.9-0.1c0.7,0,1.9-1.1,1.9-1.7c0.2-4.9,0.1-9.7,0.1-14.7C78.7-241.9,74.5-241.9,70-241.9z
		 M229.8-241.9c0,4.9,0,9.7,0,14.4c0,1.4,0.8,2.1,2.2,2.1c2.9,0,5.8,0.1,8.7-0.1c0.8,0,2.1-1,2.1-1.6c0.2-4.9,0.1-9.8,0.1-14.8
		C238.5-241.9,234.3-241.9,229.8-241.9z M160.5-241.8c-2.8,0-5.4,0-8.1,0c1.3,4.1,2.6,7.9,3.8,11.7c0.2,0,0.3-0.1,0.5-0.1
		C158-234,159.2-237.8,160.5-241.8z"/>
</g>
<g>
	<path class="st0" d="M-95.3-436.7c-1.4-1.2-1.8-2.7-1.8-4.6c0.1-4.2,0-8.4,0-12.6c-6.5-0.3-12.9-0.5-19.2-1
		c-10.8-0.9-21.6-1.9-32.4-2.9c-1.3-0.1-2.1-0.1-2.8,1.4c-3.3,7.1-11,11-18.4,9.6c-7.8-1.5-13.5-8-14-15.6
		c-0.5-8.1,4.4-15.1,12.2-17.4c1.5-0.5,1.8-1.1,1.8-2.5c0-22.9,0-45.9,0-68.8c0-1.3-0.2-2-1.7-2.4c-7.8-2.3-12.7-9.3-12.3-17.4
		c0.4-7.7,6.2-14.3,14.1-15.7c7.5-1.4,15.1,2.6,18.5,9.9c0.2,0.4,0.4,0.8,0.6,1.3c4.5-0.5,8.9-1,13.4-1.4c7.4-0.6,14.9-1.2,22.3-1.7
		c2.5-0.2,4.5-0.8,6.5-2.4c21.4-16.9,51.6-16.5,72.9,0.8c0.7,0.6,1.7,1.2,2.6,1.3c12.8,1.1,25.5,2.1,38.5,3.1
		c0.1-0.2,0.3-0.7,0.6-1.2c3.2-6.7,9.8-10.4,17.4-9.8c6.8,0.6,12.8,5.8,14.7,12.7c0.1,0.6,0.3,1.1,0.5,1.6c0,1.7,0,3.5,0,5.2
		c-0.1,0.2-0.3,0.4-0.3,0.6c-1.5,6.9-5.7,11.3-12.5,13.4c-0.5,0.2-1.1,1.2-1.1,1.8c-0.1,23.2,0,46.4-0.1,69.6c0,1.3,0.4,1.7,1.6,2
		c3.7,1,6.9,3,8.9,6.2c1.5,2.3,2.3,5,3.5,7.6c0,1.7,0,3.5,0,5.2c-0.1,0.4-0.3,0.8-0.4,1.2c-1.8,7.2-7.7,12.5-14.7,13.1
		c-7.6,0.7-14.2-3.1-17.4-9.9c-0.2-0.4-0.4-0.9-0.4-1c-18.1,1.3-35.8,2.6-53.8,4c0,4-0.1,8.2,0,12.3c0.1,1.9-0.4,3.4-1.8,4.6
		C-65.1-436.7-80.2-436.7-95.3-436.7z M-0.9-525.2c0-8.2-7.2-14-15.4-12.5c-3.1,0.6-4.3-0.3-4.7-3.3c-3.6-29.6-29.6-49.7-59.2-45.7
		c-22.9,3.1-41.2,22-44.1,45.5c-0.4,3.4-1.4,4.1-4.9,3.6c-7.2-1.2-13.5,3-15,10c-1.4,6.5,2.6,13.1,9.2,14.8c2,0.5,4.1,0.3,6.2,0.2
		c3.1-0.1,3.9,0.5,4.3,3.5c1.6,14.7,13.5,25.6,28.2,25.7c15.8,0.1,31.6,0.1,47.3,0c14.5-0.1,26.4-11.1,27.9-25.5
		c0.3-3.2,1.4-4.1,4.7-3.6C-7.9-511.4-0.9-517.1-0.9-525.2z M-48.2-460c7.7-0.4,15.2-0.6,22.6-1.2c10.8-0.9,21.6-2.1,32.4-3.2
		c2.2-0.2,3.4,0.6,3.9,2.8c0.1,0.6,0.3,1.1,0.5,1.7c1.8,5.2,7.3,8.2,12.7,7c5.4-1.2,9-6,8.6-11.6c-0.3-5.3-4.6-9.6-10-10
		c-3.4-0.3-4-1-4-4.5c0-24.5,0-49,0-73.5c0-5.5,0-5.5,5.3-6.7c0.1,0,0.1,0,0.2-0.1c5.3-1.3,8.8-6,8.5-11.4
		c-0.3-5.1-4.4-9.5-9.4-10.1c-5.5-0.7-10.4,2.5-12,7.8c-1.1,3.8-1.6,4-5.5,3.6c-10.7-1.1-21.5-2-32.2-3c-0.2,0-0.5,0.1-0.4,0.1
		c2.5,4.5,5.4,8.8,7.4,13.5c2.1,4.7,3.3,9.8,5,14.8c0.1,0,0.5,0,0.8,0c10.6,0.2,18.8,8.1,19,18.3c0.2,10.5-7.7,18.8-18.5,19.3
		c-1.3,0.1-1.8,0.4-2.1,1.8c-2.4,10.3-8.3,18-17.6,23.1c-4.7,2.6-9.8,3.8-15.2,4.2C-48.2-471.7-48.2-466-48.2-460z M-97.1-477.4
		c-0.6-0.1-1.1-0.1-1.6-0.2c-15.6-1.7-27.4-11.8-31-26.5c-0.4-1.8-1.1-2.3-3-2.4c-9.3-0.4-16.8-7.6-17.7-16.8
		c-1-9.2,5.2-17.9,14.2-20.1c1.9-0.5,4-0.5,5.6-0.7c1.6-5,2.9-10,4.9-14.7c2.1-4.7,5-9,7.5-13.5c0,0-0.3,0-0.6,0
		c-10.7,1-21.3,2-32,3c-4.1,0.4-4.4,0.3-5.7-3.7c-1.7-5.3-6.8-8.5-12.3-7.6c-5.4,0.9-9.3,5.8-9.1,11.3c0.2,5.5,4.5,9.9,10.1,10.4
		c3.1,0.3,3.9,1.1,3.9,4.2c0,25.4,0,50.8,0,76.2c0,3.1-0.8,3.9-3.9,4.2c-5.5,0.5-9.8,5-10,10.4c-0.2,5.5,3.8,10.4,9.2,11.2
		c5.7,0.9,10.9-2.6,12.4-8.4c0.8-2.9,1.7-3.5,4.7-3.1c17.5,2.2,35,3.6,52.6,4.1c0.6,0,1.2-0.1,1.8-0.1
		C-97.1-466.1-97.1-471.7-97.1-477.4z M-90.8-442.8c12.2,0,24.2,0,36.3,0c0-11.6,0-23,0-34.5c-12.2,0-24.2,0-36.3,0
		C-90.8-465.8-90.8-454.4-90.8-442.8z"/>
	<path class="st0" d="M-0.7-631.8c-3.8,0-7.5,0-11.3,0c-3.3,0-4.2-1-4.2-4.3c0-2.5,0-5.1,0-7.6c0-2.9,1-4,3.9-4
		c14.4,0,28.8,0,43.2,0c2.2,0,3.3,1,3.8,3c0.6,2.5,1.3,5,1.9,7.6c0.6,2.5,0.2,3.5-2.1,4.8c-5.2,2.9-10.4,5.7-16,8.8
		c0.9,0.1,1.4,0.2,1.9,0.2c3.5,0,7.1,0,10.6,0c2.3,0,3.5,1.2,3.5,3.5c0,3,0,5.9,0,8.9c0,2.4-1.1,3.5-3.4,3.5c-14.6,0-29.2,0-43.9,0
		c-1.8,0-3-0.9-3.4-2.7c-0.7-2.7-1.4-5.5-2.1-8.2c-0.5-2,0.1-3.5,2-4.5c4.5-2.4,8.9-4.8,13.3-7.3c0.8-0.4,1.6-0.9,2.4-1.4
		C-0.6-631.4-0.6-631.6-0.7-631.8z M28.5-617.2c-7.3,0-14.3,0-21.3,0c-1.8,0-3.4-0.2-3.9-2.3c-0.5-2,0.7-3,2.3-3.9
		c7.1-3.8,14.1-7.7,21.1-11.5c3.9-2.1,3.9-2.1,2.6-6.3c0-0.1-0.2-0.2-0.2-0.2c-13.1,0-26.1,0-39.1,0c0,1.2,0,2.3,0,3.6
		c0.9,0,1.7,0,2.4,0c6.4,0,12.7,0,19.1,0c1.9,0,3.3,0.5,3.7,2.5c0.3,1.8-0.8,2.8-2.2,3.6c-7.7,4.2-15.3,8.4-23,12.6
		c-0.7,0.4-1.3,0.8-2,1.2c0.2,0.6,0.3,1,0.4,1.4c1,3.8,0.2,3.1,4,3.1c11.2,0,22.4,0,33.6,0c0.8,0,1.5,0,2.3,0
		C28.5-614.8,28.5-615.9,28.5-617.2z"/>
	<path class="st0" d="M-32.1-659.5c4,1,8.1,2,12,3.2c1.1,0.3,2.1,1.7,2.5,2.8c0.5,1.6-0.9,2.5-2.2,3.3c-7.8,4.1-12.6,10.5-13.8,19.3
		c-1.5,10.7,3.8,20.7,13.3,25.8c0.8,0.4,1.7,0.9,2.2,1.6c1.3,1.7,0.5,3.8-1.9,4.8c-11.5,4.6-22.3,3.2-32.1-4.4
		c-10.4-8.1-14.3-22.3-9.9-34.8c4.4-12.6,16.4-21.1,29.7-21C-32.2-659.1-32.2-659.3-32.1-659.5z M-28.1-652.2
		c-8.5-2.5-19.9,2.4-25.4,10.8c-6.2,9.4-5.4,21.7,1.8,30.2c5.9,6.9,17.3,11,23.5,8.3C-43.9-615.9-43.9-639-28.1-652.2z"/>
	<path class="st0" d="M-73.8-515.9c6,0.1,10.7,0.7,14.9,3.3c2.9,1.7,5.2,4,6.4,7.1c0.7,1.7,0.1,3-1.4,3.8c-1.6,0.9-3.2,0.4-3.9-1.1
		c-2-4.1-5.5-6-9.6-6.4c-3.9-0.4-7.9-0.2-11.8,0.3c-3.5,0.5-6.4,2.5-8.1,5.9c-0.8,1.6-2.3,2.2-4,1.4c-1.7-0.9-2.1-2.3-1.4-4
		c2.5-5.5,7.2-8.1,12.8-9.4C-77.6-515.7-75.1-515.8-73.8-515.9z"/>
	<path class="st0" d="M-93.9-539.7c2.2,0.6,5.2,1.1,7.9,2.3c1.6,0.7,2.9,2.3,4,3.8c0.9,1.3,0.6,2.8-0.8,3.8c-1.3,1-2.9,1-3.9-0.3
		c-2.4-3.3-5.9-3.3-9.4-3.2c-1.8,0-3.6,0.5-5.4,0.7c-2.1,0.3-3.5-0.6-3.8-2.3c-0.4-1.8,0.6-3.3,2.8-3.7
		C-100-539-97.4-539.2-93.9-539.7z"/>
	<path class="st0" d="M-43.4-533.1c-3.3,0-6.6-0.1-9.9,0c-2,0.1-3.7,0.9-5,2.6c-1.1,1.5-2.6,1.8-4.2,0.7c-1.6-1.1-1.6-2.6-0.7-4.2
		c1.3-2.3,3.4-3.7,5.9-4.5c5-1.6,10-1.2,15,0c1.7,0.4,2.5,1.7,2.2,3.4c-0.3,1.8-1.6,2.5-3.3,2.4C-43.4-532.7-43.4-532.9-43.4-533.1z
		"/>
	<path class="st0" d="M-139.6-525.3c0-4.3,3.5-7.8,7.7-7.8c1.7,0,3,0.6,3.3,2.5c0.3,1.9-0.6,3.1-2.4,3.5c-1.2,0.3-2.4,0.4-2.4,2
		c0,1.5,1.2,1.7,2.4,2c1.8,0.4,2.7,1.6,2.4,3.5c-0.3,1.8-1.6,2.5-3.3,2.4C-136.2-517.3-139.7-520.9-139.6-525.3z"/>
	<path class="st0" d="M-5.7-525.1c0,4.4-3.6,7.9-7.8,7.8c-1.8,0-2.9-0.8-3.1-2.6c-0.2-1.8,0.7-2.9,2.4-3.3c1.2-0.3,2.4-0.4,2.4-1.9
		c0-1.5-1.1-1.8-2.3-2c-1.8-0.4-2.7-1.6-2.5-3.5c0.3-1.8,1.5-2.5,3.3-2.5C-9.2-533.1-5.7-529.5-5.7-525.1z"/>
</g>
<g>
	<path class="st0" d="M208.8-489.5c3.5,0.7,12.6-2,12.9,2.4c-0.2,4.3-9.5,1.7-12.8,2.4c0.1,5.8-1.9,14.1,6.6,14
		c5.9,0.6,13.2-1.7,18.3,1.9c4.2,5.9,1.5,14,2.2,20.9c19.6,0,39.1,0,58.6,0c2.7-15.2,10-28.4,22.3-38.1
		c43.2-32.9,31-98.9-19.9-116.4c-4.3-0.6-4-6.2,0.3-5c56.5,18.1,68.9,91.2,21,126.6c-10.8,8.4-16.4,19.9-18.6,33.2
		c0.1,2.2-1.1,3.6-2.8,4.7c-20.4,0.2-41,0-61.4,0.1c-3.6,0-4.1-0.5-4.1-4c0-5.2,0-10.5,0-15.7c0-2.9-0.3-3.2-3.1-3.2
		c-4.2,0-8.5,0-12.7,0c-16.8-0.5-10.1-21.4-11.4-32.5c0.7-3.9-2.9-2.4-5.5-2.7c-7.5-0.1-11.7-7.5-7.9-14
		c4.3-8.6,12.2-15.9,12.7-25.9c1.1-37.3,32.5-71.9,71.1-71c3.7-0.5,3.7,5.3,0,4.8c-36.9-0.9-65.8,33.3-66.4,68.5
		c0.7,9.7-16.2,23.9-13.4,30.6c1.6,3,5.2,2.1,8.1,2.3C211.2-505.5,208.3-495.4,208.8-489.5z"/>
	<path class="st0" d="M250.4-516.9c-14.7,13.1-38.1-4.6-28.9-22.2c0.6-1.2,0.6-2.1,0-3.3c-3.9-7.7-1.8-16.5,5-21.9
		c0.7-0.6,1.3-1.6,1.4-2.5c0.8-10.1,10.4-17.5,20.5-15.9c0.7,0.1,1.8-0.2,2.2-0.8c7.5-11.3,20.8-11.7,29.6-1.6
		c9.2-5.6,22.3-1.8,26.5,8.3c0.5,1.2,1.2,1.6,2.5,1.7c7.9,0.8,13.6,4.8,16.3,12.3c2.6,7.3,1,13.9-4.4,19.5c-0.7,0.7-1.1,1.2-0.6,2.3
		c4.6,11.1-0.4,21.6-11.5,25.8c3.7,5.3,7.8,12.6,2.2,18.1c-3,3.1-7.8,4-11.5,1.9c-6.3-3.4-7.2-12.4-13.2-15.7c-3-0.6-6.2-2.4-9.2-2
		C266.6-506.7,259.1-507.8,250.4-516.9z M233-567.7c3.7-1.7,18.8-3.2,17.5,3.4c-0.6,1.4-1.8,1.8-3.2,1.2c-11-5.6-28.2,6-21.6,18.1
		c5.3-4.1,11.7-5.5,17.8-2.6c1.3,0.6,2.1,1.6,1.5,3.1c-0.6,1.5-1.8,1.9-3.3,1.3c-5-2.1-10.5-1-14,3.2c-11.5,13.3,8.1,31.3,20.3,18.6
		c2.9-3,3.7-2.9,5.8,0.8c4.2,7.1,13.5,9,20,4c4.4-4.2,4.1-11.6,0.9-16.6c-0.9-1.3-0.8-2.6,0.6-3.5c3.6-1.9,4.7,4.1,5.8,6.4
		c1.2,4.3,0.7,8.5-0.8,13.2c4.3,1.5,9.6,0.4,12.1,4.8c3.7,4.3,6.6,16.3,13.9,12.7c5.5-3.3,0.3-9.3-1.9-13.2
		c-1.9-3.4,0.5-6.8,3.9-7.4c7.5-3,11-12,7.3-18.5c-0.2,0-0.4,0-0.6,0.1c-3.2,3.3-25.5,1.1-16-4.7c6,1.5,11.8,3.1,17.1-2.1
		c10.3-8.5,4.3-25.7-9.2-24.8c-3.1,0.2-3.3,0-4.2-2.9c-2.8-8.8-13.5-12.6-20.3-7.5c0.2,4.7,2.7,10.6-1.9,13.8
		c-2,1.2-4.3-0.8-3.5-2.7c2.5-3,1.4-6,0.5-9c-3-10.9-19.5-11.7-23.6-1c-1.3,3.1-1.7,3.3-4.9,2.3C242-579.8,234.3-575.3,233-567.7z"
		/>
	<path class="st0" d="M282.2-622.4c-3.3,0.5-11.6,4.4-10-1.9c2.7-7.1,5.4-14.2,8.1-21.4c1.4-4,12-1.4,15.8-2
		c6.4,0-0.6,11.1-0.9,14.9c3.1-0.3,10.1-1.5,7.9,3.7c-6.2,10.7-12.6,21.3-18.8,31.9c-1.3,3-5.6,1.5-4.7-1.7
		C280.5-606.8,281.5-614.5,282.2-622.4z M293.4-642.9c-3.1,0.4-7.3-1-9.2,0.9c-2,5-3.9,10.1-6,15.6c5.2-1,10.5-3.9,8.9,4
		c-0.5,4.3-1,8.6-1.5,12.9c0.1,0,0.3,0.1,0.4,0.1c3.6-6.1,7.2-12.1,11-18.5c-3.5,0.1-8.9,1.5-7.1-3.7
		C291-635.3,292.1-638.9,293.4-642.9z"/>
	<path class="st0" d="M218-636.6c2.7-1.9,8.1-6.3,8.7-0.7c-0.3,12.4-0.8,24.8-1.2,37.3c0.3,3.1-4,3.8-4.8,0.8
		c-3.1-7.4-5.9-14.7-9.2-22.1c-2.6,2-8.2,9.5-9.6,3c-1.1-7.5-2.2-15.1-3.1-22.7c0.3-4.4,9.5-6.8,12.9-9.3
		C217.3-653.2,216.4-640.1,218-636.6z M206-623.3c2.9-0.9,6.7-8,9-2.3c2,4.6,3.7,9.3,5.8,13.8c0.1,0,0.2-0.1,0.3-0.1
		c0.2-7,0.5-14,0.7-21.4c-2.6,1.6-6.5,5.3-7.9,0.9c-0.8-4.1-1.6-7.9-2.5-12.2c-2.3,1.9-8.1,2.7-7.7,5.9
		C204.6-633.6,205.3-628.5,206-623.3z"/>
	<path class="st0" d="M358-621.2c2.7,1,10.1,2.9,5.5,6.5c-10.4,7-20.8,13.9-31.1,20.9c-1.1,0.8-2.2,0.9-3.3-0.1
		c-1.1-1.1-0.9-2.3-0.1-3.5c4.2-6.8,8.5-13.4,12.6-20.3c-3.3-0.8-12.1-1.3-7.9-6.2c5.3-5.2,10.7-10.3,16.1-15.4
		c3.1-3.2,11.2,3.7,15.1,4.7C371.2-631.4,359.3-624.7,358-621.2z M339.1-604.5c0.1,0.1,0.2,0.2,0.3,0.3c5.9-3.9,11.8-7.9,17.9-12
		c-3.7-1.5-8.9-2.7-4.4-6.9c2.4-2.6,4.9-5.2,7.5-8.1c-2.8-1.3-5.4-2.6-8.1-3.9c-4.2,4-8.4,8-12.7,12.1c4,1.2,11,0.9,6.9,6.4
		C344.1-612.5,341.6-608.5,339.1-604.5z"/>
	<path class="st0" d="M262.2-561.6c5.3,3.3,9.7,8.4,7.4,15c-0.5,1.5-1.3,2.7-3,2.3c-1.8-0.4-2.1-1.8-1.6-3.5
		c1.5-3.7-2.5-10.9-6.7-8.4c-2.5,2.6-13.1,5.2-13.3,0c0.2-1.5,1.2-2.2,2.6-2.1c8.1,0.4,11.3-3.8,11.9-11.6c0.7-3,4.4-1.7,4.5,0.7
		C263.7-566.8,263-564.2,262.2-561.6z"/>
	<path class="st0" d="M290-532.2c5.5-0.2,13.9,8,8.7,12.6c-4.8,1.4-1.8-9.3-10.4-7.3c-1.4,0.7-3.5-0.3-3.9-1.4
		C284.1-531.6,287.7-531.8,290-532.2z"/>
	<path class="st0" d="M258.2-528.1c-5.9,0-10.8-4.6-11.3-10.5c-0.1-1.5,0.3-2.7,1.9-3c3.7-0.1,3.3,5.8,5.8,7.6
		c1.8,2.1,7.1-0.4,7.5,3.4C262.5-528.8,260.4-528,258.2-528.1z"/>
	<path class="st0" d="M299.4-564.4c-0.1,5.6-3.4,9.9-8.3,10.5c-1.4,0.2-2.4-0.2-2.8-1.6c-0.8-5,7.8-2,6.2-10.6c0-0.4-0.3-1-0.1-1.2
		C296.6-571.5,299.6-567.8,299.4-564.4z"/>
</g>
<g>
	<path class="st0" d="M926.5-2.3c-5.4-2.8-5.4-7.4-4.7-12.8c4.2-31.5-1.1-61.6-15.1-90.1c-8.6-17.6-17.9-34.8-26.3-52.4
		c-13.5-28.3-19.8-58.2-19-89.5c0.6-24.1,7-46.7,19.1-67.6c2.6-4.6,6.7-6,10.6-3.8c4,2.2,4.9,6.5,2.3,11.3c-0.1,0.1-0.1,0.2-0.2,0.3
		c-15.2,26.3-19.2,54.6-15.9,84.4c3,27.5,13,52.5,25.4,76.9c8.5,16.7,17.1,33.5,24.3,50.8c10,23.8,12.5,48.9,10.3,74.5
		c-0.1,0.8-0.1,1.7-0.2,2.7c34.8,0,69.4,0,104.2,0c2-10.3,6.2-19.4,13.3-27.1c8.9-9.6,19.8-14.9,33.1-14.6c9.1,0.2,18.2,0.1,27.3,0
		c12.8-0.1,22-9,23.1-21.8c0.2-2.3,1.7-4.5,2.9-6.6c0.6-1.2,1.9-2,2.8-2.9c3.9-4.1,3.9-7.9,0-12.1c-6.1-6.4-5.1-11.3,2.9-14.9
		c1.2-0.6,2.5-1.1,3.7-1.7c4.3-2.2,5.7-5.8,3.9-10.3c-2.4-5.7-5-11.4-7.5-17.1c-2.7-6.2-1-10,5.4-12.1c6.2-2,12.3-4,18.5-6
		c8.7-2.8,10.2-8.3,3.9-14.9c-9.9-10.4-19.7-20.9-29.8-31.1c-9.8-9.8-14.3-21.4-14.4-35.3c-0.8-59.9-45.3-112-104.3-122.4
		c-30.4-5.4-59-0.4-85.9,14.6c-0.5,0.3-1.1,0.6-1.6,0.9c-4.1,2-8.3,0.9-10.4-2.7c-2.1-3.7-1.1-8.2,3.1-10.2
		c10-4.7,19.9-10.1,30.4-13.3c69.8-21.3,143,12.7,172.3,79.6c7.4,16.9,11.4,34.6,11.5,53c0.1,10.1,3.2,18.3,10.4,25.5
		c10.2,10.2,20.1,20.8,30.1,31.3c13.4,14.1,8.7,32.8-9.8,39c-4.1,1.4-8.3,2.7-12.7,4.1c1.5,3.5,3,6.8,4.4,10.1
		c4.8,11,2.6,20.4-6.4,28.3c-0.8,0.7-1.2,2.6-0.9,3.6c3,9.2,1.2,17.1-5.3,24.3c-1.2,1.4-2.3,3.3-2.6,5.1
		c-3.3,17.9-18.2,30.8-36.4,31.1c-8.7,0.1-17.5,0.3-26.2,0c-15.2-0.7-24.7,7.1-30.7,20c-1.8,3.9-2.9,8.3-3.2,12.6
		c-0.4,4.3-1.7,7.4-5.5,9.4C1009.3-2.3,967.9-2.3,926.5-2.3z"/>
	<path class="st0" d="M1085.9-243.3c0,45.4-37,82.3-82.3,82.3c-45.4,0-82.3-37-82.3-82.4c0-45.4,37-82.3,82.3-82.3
		C1049-325.6,1085.9-288.7,1085.9-243.3z M1003.8-310.7c-37.2-0.1-67.5,30.1-67.6,67.2c-0.1,37.2,30.1,67.5,67.2,67.6
		c37.2,0.1,67.5-30.1,67.6-67.2C1071-280.3,1040.9-310.6,1003.8-310.7z"/>
	<path class="st0" d="M916-338.6c0.1,4.1-3.3,7.6-7.5,7.6c-4,0-7.3-3.3-7.4-7.3c-0.1-4.1,3.3-7.6,7.5-7.6
		C912.5-345.8,915.9-342.5,916-338.6z"/>
	<path class="st0" d="M1003.6-250.8c20,0,36.8,16.2,37.4,35.9c0.1,5.3-2.8,8.9-7.3,9c-4.4,0.1-7.3-3.1-7.7-8.3
		c-0.8-12.3-10.4-21.6-22.5-21.6c-12,0-21.6,9.3-22.4,21.6c-0.3,5.2-3.3,8.4-7.7,8.3c-4.5-0.1-7.4-3.7-7.3-9
		C966.7-234.6,983.6-250.8,1003.6-250.8z"/>
	<path class="st0" d="M981.1-273.1c-0.1,4.1-3.7,7.5-7.8,7.3c-4-0.2-7.2-3.6-7.1-7.6c0.1-4.1,3.6-7.5,7.8-7.3
		C977.9-280.5,981.1-277.1,981.1-273.1z"/>
	<path class="st0" d="M1041-273.4c0.1,4.1-3.4,7.6-7.5,7.6c-4,0-7.3-3.4-7.4-7.3c-0.1-4.1,3.4-7.6,7.5-7.6
		C1037.6-280.7,1040.9-277.4,1041-273.4z"/>
</g>
</svg>
