<?xml version="1.0" encoding="utf-8"?>
<!-- Generator: Adobe Illustrator 24.3.0, SVG Export Plug-In . SVG Version: 6.00 Build 0)  -->
<svg version="1.1" id="Layer_1" xmlns="http://www.w3.org/2000/svg" xmlns:xlink="http://www.w3.org/1999/xlink" x="0px" y="0px"
	 viewBox="0 0 150 150" style="enable-background:new 0 0 150 150;" xml:space="preserve">
<style type="text/css">
	.st0{fill:#005BAB;}
</style>
<g>
	<path class="st0" d="M511.3-48c-0.8-0.5-1-1.3-1-2.2c0-2.4,0-4.8,0-7.2c-0.6,0-1.1,0-1.7-0.1c-1.7-0.1-2.7-1.2-2.7-2.8
		c0-2.9,0-5.9,0-8.8c0-1.7,1.1-2.7,2.7-2.8c0.4,0,0.7,0,1.1,0c21.5,0,43.1,0,64.6,0c0.4,0,0.9,0,1.4,0c0-0.5,0-0.8,0-1.2
		c0-3.2,0-6.5,0-9.7c0-1.2,0.3-2.1,1.1-2.9c2-2.3,4-4.7,6-7.1c-0.6-0.6-1.1-1.3-1.7-1.9c-1.9-2.2-3.9-4.4-5.8-6.6
		c-0.4-0.5-0.8-0.6-1.4-0.3c-2.2,1-4.1,2.4-6,4c-1.4,1.1-2,2.1-2,3.9c-0.1,4.3-3.9,7.6-8.3,7.5c-4.3-0.1-7.9-3.6-7.8-7.9
		c0-1.6-0.6-2.4-1.7-3.4c-1.9-1.7-4.1-2.9-6.3-4c-0.3-0.1-0.9-0.1-1,0.1c-2.5,2.8-5,5.7-7.5,8.6c0,0,0,0.1-0.1,0.2
		c2,2.4,4,4.8,6.1,7.2c0.6,0.7,1,1.5,0.9,2.5c-0.1,1.7,0,3.5,0,5.2c0,1.3-0.6,2-1.6,1.9c-1,0-1.4-0.7-1.4-1.9c0-1.6,0-3.1,0-4.7
		c0-0.5-0.2-1-0.5-1.4c-5.2-6.3-10.5-12.5-15.8-18.7c-1-1.2-1.9-2.5-2.5-3.9c-2.2-5,0.8-9.7,6.2-9.7c2.2,0,4.3,0.4,6.5,0.7
		c3.1,0.4,6.2,0.8,9.4,1.2c-0.3-6.1,1.2-11.5,6.1-15.4c3.6-2.9,7.9-4.1,12.5-3.8c5,0.2,9.3,2.1,12.7,5.9c3.3,3.8,4.2,8.4,4,13.4
		c2.7-0.4,5.2-0.7,7.8-1c2.2-0.3,4.4-0.6,6.7-0.9c4-0.5,7.5,1.9,8.2,5.4c0.3,1.9-0.1,3.7-1.1,5.3c-1.3,1.9-2.7,3.7-4.2,5.5
		c-4.5,5.4-9.1,10.8-13.6,16.1c-0.2,0.3-0.5,0.7-0.5,1c0,3.6,0,7.2,0,11c0.5,0,0.9,0,1.3,0c8.8,0,17.5,0,26.3,0
		c2.7,0,3.6,0.9,3.6,3.5c0,2.5,0,5,0,7.4c0,2.5-0.9,3.4-3.4,3.5c-0.3,0-0.5,0-0.9,0c0,1.5,0,2.9,0,4.4c0,1,0,1.9,0,2.9
		c0.1,0.9-0.2,1.7-1,2.2C573.6-48,542.5-48,511.3-48z M602.6-57.5c-0.5,0-0.9,0-1.4,0c-12.9,0-25.7,0-38.6,0c-0.4,0-0.9,0-1.3-0.1
		c-0.8-0.2-1.1-0.7-1.1-1.5c0-0.8,0.4-1.3,1.2-1.4c0.4-0.1,0.9-0.1,1.3-0.1c14.3,0,28.6,0,43,0c0.4,0,0.8,0,1.3,0c0-2.9,0-5.6,0-8.3
		c-32.7,0-65.3,0-97.9,0c0,2.8,0,5.5,0,8.3c0.5,0,0.9,0,1.4,0c14.5,0,29,0,43.5,0c0.4,0,0.8,0,1.2,0.1c0.8,0.1,1.2,0.6,1.3,1.4
		c0,0.8-0.4,1.4-1.2,1.5c-0.4,0.1-0.9,0.1-1.3,0.1c-13,0-26.1,0-39.1,0c-0.4,0-0.9,0-1.3,0c0,2.2,0,4.3,0,6.4c29.8,0,59.4,0,89.1,0
		C602.6-53.2,602.6-55.3,602.6-57.5z M543.6-114.9c0.2,4.3,1.1,8.2,3.4,11.6c3.3,4.9,8.9,7.1,14.3,5.8c8-2,11.4-10.4,11.3-17.3
		c-6.6-0.4-12.8-1.9-18.4-5.5C551.4-117,547.9-115.3,543.6-114.9z M542.5-104.8c-0.5-1.9-1-3.6-1.4-5.4c-0.2-0.9-0.6-1.2-1.4-1.3
		c-4-0.5-8.1-1.1-12.1-1.5c-1.3-0.2-2.7-0.3-4,0c-2.2,0.4-3.3,2.2-2.6,4.3c0.5,1.4,1.2,2.7,2.2,3.9c2.4,3.1,5,6,7.5,9
		c0.2,0.2,0.2,0.5,0.4,0.8c2.6-2.9,4.9-5.6,7.4-8.4c-0.6-0.3-1.2-0.6-1.7-0.9c-1-0.5-1.3-1.3-0.9-2.2c0.4-0.9,1.3-1.1,2.3-0.5
		C539.6-106.3,541-105.6,542.5-104.8z M585-95.1c0.1-0.3,0.2-0.4,0.3-0.5c2.6-3.1,5.3-6.3,7.9-9.4c0.6-0.8,1.1-1.6,1.5-2.5
		c1.5-3.2-0.2-5.7-3.7-5.7c-0.4,0-0.7,0-1.1,0.1c-1.8,0.2-3.6,0.5-5.5,0.7c-3,0.4-6,0.8-9,1.2c-0.6,2.2-1.2,4.2-1.8,6.4
		c1.5-0.8,2.9-1.5,4.3-2.2c0.9-0.4,1.8-0.2,2.2,0.6c0.4,0.8,0.1,1.6-0.7,2.1c-0.6,0.3-1.2,0.6-1.9,1C580.2-100.7,582.5-98,585-95.1z
		 M572.6-117.9c-0.5-5.1-2.8-8.8-7.1-11c-5.1-2.6-10.3-2.3-15.6,0.4C555.8-121.1,563.7-118.6,572.6-117.9z M553-94.9
		c-0.1,2.1,0.7,3.7,2.4,4.8c1.8,1.1,3.7,1.1,5.5-0.1c1.6-1.1,2.3-2.6,2.3-4.6C559.7-93.8,556.4-93.8,553-94.9z M543.7-118
		c3.3-0.3,5.9-1.7,7.9-4.1c-1.4-1.5-2.7-2.9-4.1-4.4C545.2-124.2,544-121.4,543.7-118z"/>
	<path class="st0" d="M520.3-149.4c-1.2,0-2.3,0-3.3,0c-1,0-1.7-0.6-1.7-1.5c0-0.9,0.6-1.5,1.7-1.6c2,0,4-0.1,6,0
		c0.6,0,1.4,0.4,1.6,0.9c0.2,0.4,0,1.3-0.3,1.7c-1.3,2-2.8,3.9-4.2,5.8c-0.2,0.3-0.4,0.5-0.7,1c1.4,0,2.7,0,4,0c0.4,0,0.8,0,1.1,0.1
		c0.8,0.2,1.2,0.8,1.2,1.6c-0.1,0.8-0.5,1.4-1.4,1.4c-2.7,0-5.4,0.1-8.1,0c-1.3,0-1.9-1.4-1-2.5c1.4-1.9,2.8-3.8,4.2-5.7
		C519.7-148.6,519.9-148.9,520.3-149.4z"/>
	<path class="st0" d="M530.3-132.6c-1,0-1.7,0-2.4,0c-1.3,0-1.9-0.5-1.9-1.5c0-1,0.6-1.5,1.9-1.5c1.7,0,3.4-0.1,5.1,0
		c0.6,0,1.3,0.4,1.7,0.8c0.5,0.6,0.1,1.3-0.3,1.9c-1,1.4-2,2.7-3,4.1c0,0,0,0.1,0,0.3c0.9,0,1.7,0,2.6,0c1,0,1.7,0.6,1.7,1.5
		c0,0.9-0.7,1.5-1.7,1.5c-1.9,0-3.8,0-5.7,0c-1.5,0-2.1-1.3-1.3-2.6C528-129.5,529.1-130.9,530.3-132.6z"/>
	<path class="st0" d="M558.1-101.8c-1.1-0.3-2.1-0.6-3.1-1c-0.9-0.4-1.2-1.2-0.8-2c0.4-0.8,1.2-1.1,2.1-0.7c1.2,0.6,2.4,0.6,3.6,0
		c0.9-0.4,1.7-0.1,2.1,0.7c0.4,0.8,0.1,1.6-0.8,2C560.2-102.4,559.1-102.2,558.1-101.8z"/>
	<path class="st0" d="M551.6-109c-0.8-0.3-1.6-0.5-2.3-0.8c-0.8-0.4-1-1.3-0.7-2c0.4-0.7,1.1-1.1,1.9-0.7c0.8,0.3,1.5,0.3,2.2,0
		c0.8-0.3,1.5,0,1.9,0.8c0.4,0.8,0.2,1.5-0.6,1.9C553.2-109.5,552.4-109.3,551.6-109z"/>
	<path class="st0" d="M564.6-109c-0.8-0.3-1.6-0.4-2.3-0.8c-0.8-0.4-1.1-1.2-0.7-2c0.3-0.8,1.1-1,2-0.8c0.7,0.1,1.4,0.1,2.1,0
		c0.9-0.2,1.7,0.1,2,0.8c0.3,0.8,0.1,1.5-0.6,1.9C566.2-109.5,565.4-109.3,564.6-109z"/>
</g>
<g>
	<path class="st0" d="M0.1,112.3c0-20.3,0-40.7,0-61c0.2-0.4,0.3-0.9,0.5-1.3c1-2.6,2.9-4.5,5.6-4.9c4.6-0.5,9.2-1,13.7,0.8
		c0,0,0.1-0.1,0.2-0.1c2.7-5.9,7.4-8.4,13.8-8.3c8.5,0.1,17.1,0.1,25.6,0c0.8,0,1.7-0.4,2.3-0.9c2.1-1.8,4-3.7,5.9-5.7
		c2-2.1,4.4-2.9,7.3-2.8c3.7,0.2,7.5,0,10.9,0c0,0-0.4-0.1-0.7-0.3c-5-2.2-8.1-6-8.5-11.4c-0.4-5.6,2-9.9,6.9-12.7
		c1.5-0.9,3.3-1.2,5-1.8c1.3,0,2.5,0,3.8,0c0.2,0.1,0.4,0.2,0.6,0.3c6.1,1.2,10.7,6.3,11.1,12.1c0.4,6.4-3.3,11.9-9.4,13.9
		c-0.3,0.1-0.7,0.2-1,0.4c1.6,0.3,3.2,0.4,4.7,0.3c2.5-0.1,4.7,0.7,6.9,2c3.6,2.3,7.4,4.4,11.1,6.6c0.4,0.3,0.9,0.5,1.4,0.8
		c0.6-6.5,1.2-12.7,1.9-18.9c0.4-3.7,4-6.5,7.8-6.2c4,0.3,7.1,3.8,6.7,7.6c-0.5,5.5-1.2,11-1.8,16.4c-0.3,2.6-0.6,5.3-0.8,7.6
		c3.2,0,6.3,0,9.4,0c5.4,0,8.8,3.3,8.8,8.5c0,6.6,0,13.2,0,19.8c0,1,0,2.1,0,3.1c-0.1,1.4-1,2.4-2.2,2.3c-1.2,0-2.1-0.9-2.1-2.3
		c0-0.4,0-0.8,0-1.1c0-7.4,0-14.7,0-22.1c0-2.5-1.5-4-4.1-4c-1.9,0-3.8,0-5.7,0c-3.8,0-5,1.2-5,4.9c0,19.7,0,39.3,0,59
		c0,0.5,0.1,1,0.1,1.6c3.5,0,7,0,10.4,0c2.9,0,4.3-1.4,4.3-4.2c0-3.8,0-7.5,0-11.3c0-4.1,0-8.3,0-12.4c0-1.8,1.6-2.9,3.1-2.2
		c1.1,0.5,1.2,1.5,1.2,2.5c0,7.7,0,15.5,0,23.2c0,5.2-3.4,8.5-8.8,8.6c-1.2,0-2.5,0-3.8,0c0,3.3,0,6.4,0,9.5c0,3.7-2.3,5.9-6.1,5.9
		c-1.6,0-3.2,0-4.8,0c-4.5,0-6.6-2.1-6.6-6.5c0-2.9,0-5.9,0-8.7c-0.2-0.1-0.2-0.2-0.3-0.2c-7.9,0-15.7,0-23.6,0
		c-0.4,0-0.9,0.6-1.1,1c-0.9,2.4-1.6,4.8-2.4,7.2c-0.4,1.2-0.8,2.5-1.2,3.8c1.3,0.5,2.5,0.9,3.6,1.5c3.9,1.9,5.7,6.4,4.2,10.3
		c-1.5,3.9-5.8,6.4-9.9,5c-4.9-1.6-10-2.9-14-6c-1.3,0.8-2.5,1.7-3.9,2.2c-2.9,1.2-6,2.3-9,3.4c-4.6,1.7-9.4-0.3-11.2-4.5
		c-1.8-4.3,0.4-9,5-10.9c0.9-0.4,1.8-0.7,2.8-1.1c-1.2-3.6-2.4-7.2-3.5-10.8c-0.3-1-0.8-1.2-1.8-1.2c-2.6,0.1-5.3,0.1-7.9,0
		c-1.5,0-2.4-0.9-2.3-2.2c0-1.2,0.9-2,2.3-2c0.5,0,1.1,0,1.6,0c2,0,4,0,6.2,0c-2-6-3.9-11.7-5.8-17.3c-8.1,0-16,0-23.9,0
		c0,5.8,0,11.5,0,17.3c3.7,0,7.3,0,10.9,0c1.7,0,2.7,0.8,2.8,2.1c0,1.4-1,2.2-2.8,2.2c-1.4,0-2.9,0-4.4,0c0,1.9,0,3.5,0,5.1
		c0,1.6,0,3.2,0,4.8c-0.1,3-2.4,5.3-5.4,5.4c-2.2,0.1-4.5,0.1-6.7,0c-3-0.1-5.3-2.4-5.4-5.4c-0.1-2.3,0-4.6,0-6.8c0-1,0-2.1,0-3.2
		c-1.7,0-3.1,0-4.6,0c-2.5-0.1-4.6-1-6.1-2.9C1.2,114.9,0.7,113.5,0.1,112.3z M65.9,78c0.4,0,0.6,0.1,0.8,0.1c7,0,14,0,21.1,0
		c1,0,1.1-0.5,1.3-1.3c2.6-10,5.2-20,7.9-30c1.2-4.6,5.2-6.1,9.4-3.7c1.7,1,3.4,2,5.3,3.2c1-1.7,2-3.2,3-4.8
		c-0.5-0.4-0.8-0.6-1.1-0.7c-3.8-2.3-7.5-4.5-11.4-6.7c-0.8-0.5-1.9-0.8-2.9-0.8c-8.4-0.3-16.8-0.6-25.1-0.8c-1,0-2.2,0.5-2.9,1.2
		c-3.6,3.3-7,6.6-10.4,10c-2,1.9-2,2.7,0,4.6c0.6,0.6,1.3,1,2.3,1.7c0.4-0.5,0.6-1,1-1.4c2.1-2.1,4.3-4.2,6.5-6.2
		c1.1-1,2.5-1.1,3.6-0.4c1.2,0.7,1.7,1.9,1.4,3.3c-0.1,0.3-0.2,0.6-0.3,1c-1.9,6.4-3.8,12.8-5.7,19.3C68.3,69.7,67.1,73.8,65.9,78z
		 M19.2,114.5c0-0.7,0-1.3,0-1.9c0-19.5,0-39,0-58.4c0-0.4,0-0.9,0-1.3c-0.1-2.4-1.6-3.7-4-3.8c-2,0-4,0-6,0c-3.4,0-4.7,1.3-4.7,4.7
		c0,18.7,0,37.4,0,56.2c0,0.4,0,0.8,0,1.1c0.1,1.8,1.3,3.4,3.1,3.4C11.4,114.6,15.3,114.5,19.2,114.5z M69.8,49.1
		c-0.7,0.6-1,1-1.4,1.3c-2.6,2.5-5.1,5.1-7.8,7.5c-1,0.9-2.3,1.7-3.5,2.1c-6.3,2-12.6,3.9-19,5.6c-1.4,0.4-3,0.3-4.4,0
		c-3-0.7-5-3.5-5.1-6.6c-0.1-3.1,1.9-5.9,5.1-6.9c5.1-1.6,10.2-3.2,15.4-4.6c3.3-0.9,4.9-3.6,7.5-5.7c-0.7-0.1-1-0.1-1.3-0.1
		c-7.5,0-14.9,0-22.4,0c-0.8,0-1.7,0.1-2.5,0.3c-4.2,1-6.7,4.3-6.7,8.9c0,8.6,0,17.2,0,25.8c0,0.4,0.1,0.8,0.1,1.3
		c0.3,0,0.6,0.1,0.8,0.1c11.9,0,23.8,0,35.7,0c0.9,0,1.2-0.3,1.4-1.1c1.1-3.9,2.3-7.8,3.4-11.8C66.6,60,68.1,54.8,69.8,49.1z
		 M126.2,78.1c0-7,0-13.8,0-20.8c-2.9,0.9-5.1-0.2-7.4-1.6c-4.8-2.9-9.7-5.8-14.6-8.7c-1.9-1.1-2.6-0.9-3.1,1.1
		c-2,7.5-4,15.1-6,22.6c-0.6,2.4-1.2,4.8-1.8,7.4C104.4,78.1,115.2,78.1,126.2,78.1z M126.2,114.6c0-5.8,0-11.5,0-17.3
		c-8,0-16,0-23.9,0c-1.9,5.8-3.8,11.5-5.7,17.3C106.5,114.6,116.3,114.6,126.2,114.6z M69.5,124.5c-0.9-2.9-1.8-5.7-2.6-8.4
		c-3.1-10.1-6.3-20.1-9.4-30.2c-0.4-1.4-1.1-2.5-2.5-3.1c-1.6-0.7-3.1-0.3-4.3,0.8c-1.3,1.2-2,2.6-1.4,4.5
		c3.4,10.2,6.8,20.4,10.2,30.6c1,2.9,1.9,5.7,2.9,8.7C64.7,126.3,67,125.4,69.5,124.5z M87.6,127.2c0.1-0.2,0.2-0.3,0.2-0.5
		c4.3-13,8.7-26,12.9-38.9c0.2-0.7,0.2-1.5-0.1-2.2c-0.6-1.9-2.4-3.2-4.2-3.2c-1.9,0-3.3,1.2-3.9,3.2c-2.3,7.4-4.5,14.9-6.8,22.3
		c-1.7,5.5-3.5,10.9-5.3,16.5C83,125.4,85.3,126.3,87.6,127.2z M99.9,15.4c0-5.1-4.2-9.1-9.4-9.2c-5.2,0-9.4,4.1-9.4,9.1
		c0,5.1,4.2,9.2,9.4,9.2C95.8,24.6,99.9,20.5,99.9,15.4z M60.9,82.5c1,3.2,1.9,6.2,2.8,9.3c0.3,0.9,0.7,1.2,1.6,1.2
		c5.7,0,11.4,0,17.1,0c3.4,0,3.5,0,4.4-3.2c0.7-2.4,1.4-4.8,2.2-7.3C79.6,82.5,70.3,82.5,60.9,82.5z M65.6,97.3c0,0.1-0.1,0.2,0,0.3
		c1.7,5.4,3.4,10.9,5.1,16.3c0.1,0.3,0.8,0.6,1.2,0.6c2,0.1,4.1,0,6.1,0c0.9,0,1.2-0.3,1.4-1.1c0.5-1.8,1.1-3.6,1.7-5.4
		c1.1-3.6,2.2-7.2,3.4-10.8C78.1,97.3,71.9,97.3,65.6,97.3z M115.4,48.6c2.5,1.5,4.9,3,7.5,4.4c1.8,1,3.4,0,3.7-2.1
		c1.1-9.9,2.2-19.7,3.3-29.6c0.2-2.2-0.7-3.6-2.5-3.8c-1.8-0.2-3.1,0.9-3.3,3.2c-0.7,6.8-1.3,13.5-1.9,20.3c-0.3,2.9-0.9,3.5-3.7,3
		C117.4,45.4,116.5,46.9,115.4,48.6z M23.8,82.5c0,3.5,0,7,0,10.4c7.5,0,14.9,0,22.4,0c-0.5-1.8-1.3-3.4-1.4-5.1
		c-0.1-1.7,0.4-3.5,0.6-5.3C38.4,82.5,31.1,82.5,23.8,82.5z M103.8,92.8c7.6,0,15.1,0,22.5,0c0-3.5,0-6.9,0-10.3
		c-7.4,0-14.6,0-22.1,0C106.5,86.1,105,89.4,103.8,92.8z M70.8,128.6c-2.2,0.8-4.3,1.6-6.3,2.4c-0.6,0.2-1,0.9-1.4,1.4
		c-0.8,0.8-1.6,1.8-2.5,2.4c-1,0.7-2.4,0.9-3.5,1.5c-1.9,1-2.7,3.3-1.8,5.1c0.9,1.8,3,2.8,5,2c3.3-1.2,6.6-2.4,9.8-3.7
		c2.2-0.9,3.2-2.9,2.6-5.2C72.1,132.6,71.4,130.6,70.8,128.6z M79.2,128.6c-0.5,1.7-1.1,3.2-1.6,4.8c-0.1,0.4-0.3,0.8-0.3,1.2
		c-0.4,2.3,0.6,4.2,2.9,5.2c3.1,1.2,6.1,2.4,9.2,3.5c2.2,0.8,4.5-0.1,5.4-2.1c0.9-2-0.1-4.3-2.3-5.3c-0.9-0.4-1.9-0.8-2.8-1.1
		c-1.4-0.5-2.3-1.4-2.8-2.7c-0.1-0.4-0.4-0.8-0.8-0.9C83.9,130.3,81.6,129.5,79.2,128.6z M55.5,48.8c-2.2,1.9-2.2,1.9-5.3,2.8
		c-1.9,0.6-3.8,1.1-5.7,1.7c-3.2,0.9-6.3,1.9-9.5,2.9c-1.5,0.5-2.3,1.7-2.2,3c0.1,1.3,1.2,2.4,2.5,2.5c0.7,0.1,1.4-0.1,2-0.3
		c5.5-1.6,10.9-3.3,16.4-4.8c2.4-0.6,4.2-1.9,5.6-3.6C58.1,51.6,56.8,50.2,55.5,48.8z M17,118.9c0,3.3,0,6.4,0,9.6
		c0,0.9,0.5,1.4,1.4,1.4c2,0,4,0.1,6-0.1c0.5,0,1.3-0.7,1.3-1.2c0.1-3.3,0.1-6.5,0.1-9.8C22.9,118.9,20.1,118.9,17,118.9z
		 M124.2,118.9c0,3.3,0,6.5,0,9.7c0,0.9,0.5,1.4,1.5,1.4c1.9,0,3.9,0.1,5.8,0c0.5,0,1.4-0.7,1.4-1.1c0.1-3.3,0.1-6.6,0.1-9.9
		C130,118.9,127.2,118.9,124.2,118.9z M77.7,119c-1.9,0-3.6,0-5.4,0c0.9,2.7,1.7,5.3,2.6,7.9c0.1,0,0.2,0,0.3-0.1
		C76,124.2,76.8,121.7,77.7,119z"/>
</g>
<g>
	<path class="st0" d="M-95.3-436.7c-1.4-1.2-1.8-2.7-1.8-4.6c0.1-4.2,0-8.4,0-12.6c-6.5-0.3-12.9-0.5-19.2-1
		c-10.8-0.9-21.6-1.9-32.4-2.9c-1.3-0.1-2.1-0.1-2.8,1.4c-3.3,7.1-11,11-18.4,9.6c-7.8-1.5-13.5-8-14-15.6
		c-0.5-8.1,4.4-15.1,12.2-17.4c1.5-0.5,1.8-1.1,1.8-2.5c0-22.9,0-45.9,0-68.8c0-1.3-0.2-2-1.7-2.4c-7.8-2.3-12.7-9.3-12.3-17.4
		c0.4-7.7,6.2-14.3,14.1-15.7c7.5-1.4,15.1,2.6,18.5,9.9c0.2,0.4,0.4,0.8,0.6,1.3c4.5-0.5,8.9-1,13.4-1.4c7.4-0.6,14.9-1.2,22.3-1.7
		c2.5-0.2,4.5-0.8,6.5-2.4c21.4-16.9,51.6-16.5,72.9,0.8c0.7,0.6,1.7,1.2,2.6,1.3c12.8,1.1,25.5,2.1,38.5,3.1
		c0.1-0.2,0.3-0.7,0.6-1.2c3.2-6.7,9.8-10.4,17.4-9.8c6.8,0.6,12.8,5.8,14.7,12.7c0.1,0.6,0.3,1.1,0.5,1.6c0,1.7,0,3.5,0,5.2
		c-0.1,0.2-0.3,0.4-0.3,0.6c-1.5,6.9-5.7,11.3-12.5,13.4c-0.5,0.2-1.1,1.2-1.1,1.8c-0.1,23.2,0,46.4-0.1,69.6c0,1.3,0.4,1.7,1.6,2
		c3.7,1,6.9,3,8.9,6.2c1.5,2.3,2.3,5,3.5,7.6c0,1.7,0,3.5,0,5.2c-0.1,0.4-0.3,0.8-0.4,1.2c-1.8,7.2-7.7,12.5-14.7,13.1
		c-7.6,0.7-14.2-3.1-17.4-9.9c-0.2-0.4-0.4-0.9-0.4-1c-18.1,1.3-35.8,2.6-53.8,4c0,4-0.1,8.2,0,12.3c0.1,1.9-0.4,3.4-1.8,4.6
		C-65.1-436.7-80.2-436.7-95.3-436.7z M-0.9-525.2c0-8.2-7.2-14-15.4-12.5c-3.1,0.6-4.3-0.3-4.7-3.3c-3.6-29.6-29.6-49.7-59.2-45.7
		c-22.9,3.1-41.2,22-44.1,45.5c-0.4,3.4-1.4,4.1-4.9,3.6c-7.2-1.2-13.5,3-15,10c-1.4,6.5,2.6,13.1,9.2,14.8c2,0.5,4.1,0.3,6.2,0.2
		c3.1-0.1,3.9,0.5,4.3,3.5c1.6,14.7,13.5,25.6,28.2,25.7c15.8,0.1,31.6,0.1,47.3,0c14.5-0.1,26.4-11.1,27.9-25.5
		c0.3-3.2,1.4-4.1,4.7-3.6C-7.9-511.4-0.9-517.1-0.9-525.2z M-48.2-460c7.7-0.4,15.2-0.6,22.6-1.2c10.8-0.9,21.6-2.1,32.4-3.2
		c2.2-0.2,3.4,0.6,3.9,2.8c0.1,0.6,0.3,1.1,0.5,1.7c1.8,5.2,7.3,8.2,12.7,7c5.4-1.2,9-6,8.6-11.6c-0.3-5.3-4.6-9.6-10-10
		c-3.4-0.3-4-1-4-4.5c0-24.5,0-49,0-73.5c0-5.5,0-5.5,5.3-6.7c0.1,0,0.1,0,0.2-0.1c5.3-1.3,8.8-6,8.5-11.4
		c-0.3-5.1-4.4-9.5-9.4-10.1c-5.5-0.7-10.4,2.5-12,7.8c-1.1,3.8-1.6,4-5.5,3.6c-10.7-1.1-21.5-2-32.2-3c-0.2,0-0.5,0.1-0.4,0.1
		c2.5,4.5,5.4,8.8,7.4,13.5c2.1,4.7,3.3,9.8,5,14.8c0.1,0,0.5,0,0.8,0c10.6,0.2,18.8,8.1,19,18.3c0.2,10.5-7.7,18.8-18.5,19.3
		c-1.3,0.1-1.8,0.4-2.1,1.8c-2.4,10.3-8.3,18-17.6,23.1c-4.7,2.6-9.8,3.8-15.2,4.2C-48.2-471.7-48.2-466-48.2-460z M-97.1-477.4
		c-0.6-0.1-1.1-0.1-1.6-0.2c-15.6-1.7-27.4-11.8-31-26.5c-0.4-1.8-1.1-2.3-3-2.4c-9.3-0.4-16.8-7.6-17.7-16.8
		c-1-9.2,5.2-17.9,14.2-20.1c1.9-0.5,4-0.5,5.6-0.7c1.6-5,2.9-10,4.9-14.7c2.1-4.7,5-9,7.5-13.5c0,0-0.3,0-0.6,0
		c-10.7,1-21.3,2-32,3c-4.1,0.4-4.4,0.3-5.7-3.7c-1.7-5.3-6.8-8.5-12.3-7.6c-5.4,0.9-9.3,5.8-9.1,11.3c0.2,5.5,4.5,9.9,10.1,10.4
		c3.1,0.3,3.9,1.1,3.9,4.2c0,25.4,0,50.8,0,76.2c0,3.1-0.8,3.9-3.9,4.2c-5.5,0.5-9.8,5-10,10.4c-0.2,5.5,3.8,10.4,9.2,11.2
		c5.7,0.9,10.9-2.6,12.4-8.4c0.8-2.9,1.7-3.5,4.7-3.1c17.5,2.2,35,3.6,52.6,4.1c0.6,0,1.2-0.1,1.8-0.1
		C-97.1-466.1-97.1-471.7-97.1-477.4z M-90.8-442.8c12.2,0,24.2,0,36.3,0c0-11.6,0-23,0-34.5c-12.2,0-24.2,0-36.3,0
		C-90.8-465.8-90.8-454.4-90.8-442.8z"/>
	<path class="st0" d="M-0.7-631.8c-3.8,0-7.5,0-11.3,0c-3.3,0-4.2-1-4.2-4.3c0-2.5,0-5.1,0-7.6c0-2.9,1-4,3.9-4
		c14.4,0,28.8,0,43.2,0c2.2,0,3.3,1,3.8,3c0.6,2.5,1.3,5,1.9,7.6c0.6,2.5,0.2,3.5-2.1,4.8c-5.2,2.9-10.4,5.7-16,8.8
		c0.9,0.1,1.4,0.2,1.9,0.2c3.5,0,7.1,0,10.6,0c2.3,0,3.5,1.2,3.5,3.5c0,3,0,5.9,0,8.9c0,2.4-1.1,3.5-3.4,3.5c-14.6,0-29.2,0-43.9,0
		c-1.8,0-3-0.9-3.4-2.7c-0.7-2.7-1.4-5.5-2.1-8.2c-0.5-2,0.1-3.5,2-4.5c4.5-2.4,8.9-4.8,13.3-7.3c0.8-0.4,1.6-0.9,2.4-1.4
		C-0.6-631.4-0.6-631.6-0.7-631.8z M28.5-617.2c-7.3,0-14.3,0-21.3,0c-1.8,0-3.4-0.2-3.9-2.3c-0.5-2,0.7-3,2.3-3.9
		c7.1-3.8,14.1-7.7,21.1-11.5c3.9-2.1,3.9-2.1,2.6-6.3c0-0.1-0.2-0.2-0.2-0.2c-13.1,0-26.1,0-39.1,0c0,1.2,0,2.3,0,3.6
		c0.9,0,1.7,0,2.4,0c6.4,0,12.7,0,19.1,0c1.9,0,3.3,0.5,3.7,2.5c0.3,1.8-0.8,2.8-2.2,3.6c-7.7,4.2-15.3,8.4-23,12.6
		c-0.7,0.4-1.3,0.8-2,1.2c0.2,0.6,0.3,1,0.4,1.4c1,3.8,0.2,3.1,4,3.1c11.2,0,22.4,0,33.6,0c0.8,0,1.5,0,2.3,0
		C28.5-614.8,28.5-615.9,28.5-617.2z"/>
	<path class="st0" d="M-32.1-659.5c4,1,8.1,2,12,3.2c1.1,0.3,2.1,1.7,2.5,2.8c0.5,1.6-0.9,2.5-2.2,3.3c-7.8,4.1-12.6,10.5-13.8,19.3
		c-1.5,10.7,3.8,20.7,13.3,25.8c0.8,0.4,1.7,0.9,2.2,1.6c1.3,1.7,0.5,3.8-1.9,4.8c-11.5,4.6-22.3,3.2-32.1-4.4
		c-10.4-8.1-14.3-22.3-9.9-34.8c4.4-12.6,16.4-21.1,29.7-21C-32.2-659.1-32.2-659.3-32.1-659.5z M-28.1-652.2
		c-8.5-2.5-19.9,2.4-25.4,10.8c-6.2,9.4-5.4,21.7,1.8,30.2c5.9,6.9,17.3,11,23.5,8.3C-43.9-615.9-43.9-639-28.1-652.2z"/>
	<path class="st0" d="M-73.8-515.9c6,0.1,10.7,0.7,14.9,3.3c2.9,1.7,5.2,4,6.4,7.1c0.7,1.7,0.1,3-1.4,3.8c-1.6,0.9-3.2,0.4-3.9-1.1
		c-2-4.1-5.5-6-9.6-6.4c-3.9-0.4-7.9-0.2-11.8,0.3c-3.5,0.5-6.4,2.5-8.1,5.9c-0.8,1.6-2.3,2.2-4,1.4c-1.7-0.9-2.1-2.3-1.4-4
		c2.5-5.5,7.2-8.1,12.8-9.4C-77.6-515.7-75.1-515.8-73.8-515.9z"/>
	<path class="st0" d="M-93.9-539.7c2.2,0.6,5.2,1.1,7.9,2.3c1.6,0.7,2.9,2.3,4,3.8c0.9,1.3,0.6,2.8-0.8,3.8c-1.3,1-2.9,1-3.9-0.3
		c-2.4-3.3-5.9-3.3-9.4-3.2c-1.8,0-3.6,0.5-5.4,0.7c-2.1,0.3-3.5-0.6-3.8-2.3c-0.4-1.8,0.6-3.3,2.8-3.7
		C-100-539-97.4-539.2-93.9-539.7z"/>
	<path class="st0" d="M-43.4-533.1c-3.3,0-6.6-0.1-9.9,0c-2,0.1-3.7,0.9-5,2.6c-1.1,1.5-2.6,1.8-4.2,0.7c-1.6-1.1-1.6-2.6-0.7-4.2
		c1.3-2.3,3.4-3.7,5.9-4.5c5-1.6,10-1.2,15,0c1.7,0.4,2.5,1.7,2.2,3.4c-0.3,1.8-1.6,2.5-3.3,2.4C-43.4-532.7-43.4-532.9-43.4-533.1z
		"/>
	<path class="st0" d="M-139.6-525.3c0-4.3,3.5-7.8,7.7-7.8c1.7,0,3,0.6,3.3,2.5c0.3,1.9-0.6,3.1-2.4,3.5c-1.2,0.3-2.4,0.4-2.4,2
		c0,1.5,1.2,1.7,2.4,2c1.8,0.4,2.7,1.6,2.4,3.5c-0.3,1.8-1.6,2.5-3.3,2.4C-136.2-517.3-139.7-520.9-139.6-525.3z"/>
	<path class="st0" d="M-5.7-525.1c0,4.4-3.6,7.9-7.8,7.8c-1.8,0-2.9-0.8-3.1-2.6c-0.2-1.8,0.7-2.9,2.4-3.3c1.2-0.3,2.4-0.4,2.4-1.9
		c0-1.5-1.1-1.8-2.3-2c-1.8-0.4-2.7-1.6-2.5-3.5c0.3-1.8,1.5-2.5,3.3-2.5C-9.2-533.1-5.7-529.5-5.7-525.1z"/>
</g>
<g>
	<path class="st0" d="M208.8-489.5c3.5,0.7,12.6-2,12.9,2.4c-0.2,4.3-9.5,1.7-12.8,2.4c0.1,5.8-1.9,14.1,6.6,14
		c5.9,0.6,13.2-1.7,18.3,1.9c4.2,5.9,1.5,14,2.2,20.9c19.6,0,39.1,0,58.6,0c2.7-15.2,10-28.4,22.3-38.1
		c43.2-32.9,31-98.9-19.9-116.4c-4.3-0.6-4-6.2,0.3-5c56.5,18.1,68.9,91.2,21,126.6c-10.8,8.4-16.4,19.9-18.6,33.2
		c0.1,2.2-1.1,3.6-2.8,4.7c-20.4,0.2-41,0-61.4,0.1c-3.6,0-4.1-0.5-4.1-4c0-5.2,0-10.5,0-15.7c0-2.9-0.3-3.2-3.1-3.2
		c-4.2,0-8.5,0-12.7,0c-16.8-0.5-10.1-21.4-11.4-32.5c0.7-3.9-2.9-2.4-5.5-2.7c-7.5-0.1-11.7-7.5-7.9-14
		c4.3-8.6,12.2-15.9,12.7-25.9c1.1-37.3,32.5-71.9,71.1-71c3.7-0.5,3.7,5.3,0,4.8c-36.9-0.9-65.8,33.3-66.4,68.5
		c0.7,9.7-16.2,23.9-13.4,30.6c1.6,3,5.2,2.1,8.1,2.3C211.2-505.5,208.3-495.4,208.8-489.5z"/>
	<path class="st0" d="M250.4-516.9c-14.7,13.1-38.1-4.6-28.9-22.2c0.6-1.2,0.6-2.1,0-3.3c-3.9-7.7-1.8-16.5,5-21.9
		c0.7-0.6,1.3-1.6,1.4-2.5c0.8-10.1,10.4-17.5,20.5-15.9c0.7,0.1,1.8-0.2,2.2-0.8c7.5-11.3,20.8-11.7,29.6-1.6
		c9.2-5.6,22.3-1.8,26.5,8.3c0.5,1.2,1.2,1.6,2.5,1.7c7.9,0.8,13.6,4.8,16.3,12.3c2.6,7.3,1,13.9-4.4,19.5c-0.7,0.7-1.1,1.2-0.6,2.3
		c4.6,11.1-0.4,21.6-11.5,25.8c3.7,5.3,7.8,12.6,2.2,18.1c-3,3.1-7.8,4-11.5,1.9c-6.3-3.4-7.2-12.4-13.2-15.7c-3-0.6-6.2-2.4-9.2-2
		C266.6-506.7,259.1-507.8,250.4-516.9z M233-567.7c3.7-1.7,18.8-3.2,17.5,3.4c-0.6,1.4-1.8,1.8-3.2,1.2c-11-5.6-28.2,6-21.6,18.1
		c5.3-4.1,11.7-5.5,17.8-2.6c1.3,0.6,2.1,1.6,1.5,3.1c-0.6,1.5-1.8,1.9-3.3,1.3c-5-2.1-10.5-1-14,3.2c-11.5,13.3,8.1,31.3,20.3,18.6
		c2.9-3,3.7-2.9,5.8,0.8c4.2,7.1,13.5,9,20,4c4.4-4.2,4.1-11.6,0.9-16.6c-0.9-1.3-0.8-2.6,0.6-3.5c3.6-1.9,4.7,4.1,5.8,6.4
		c1.2,4.3,0.7,8.5-0.8,13.2c4.3,1.5,9.6,0.4,12.1,4.8c3.7,4.3,6.6,16.3,13.9,12.7c5.5-3.3,0.3-9.3-1.9-13.2
		c-1.9-3.4,0.5-6.8,3.9-7.4c7.5-3,11-12,7.3-18.5c-0.2,0-0.4,0-0.6,0.1c-3.2,3.3-25.5,1.1-16-4.7c6,1.5,11.8,3.1,17.1-2.1
		c10.3-8.5,4.3-25.7-9.2-24.8c-3.1,0.2-3.3,0-4.2-2.9c-2.8-8.8-13.5-12.6-20.3-7.5c0.2,4.7,2.7,10.6-1.9,13.8
		c-2,1.2-4.3-0.8-3.5-2.7c2.5-3,1.4-6,0.5-9c-3-10.9-19.5-11.7-23.6-1c-1.3,3.1-1.7,3.3-4.9,2.3C242-579.8,234.3-575.3,233-567.7z"
		/>
	<path class="st0" d="M282.2-622.4c-3.3,0.5-11.6,4.4-10-1.9c2.7-7.1,5.4-14.2,8.1-21.4c1.4-4,12-1.4,15.8-2
		c6.4,0-0.6,11.1-0.9,14.9c3.1-0.3,10.1-1.5,7.9,3.7c-6.2,10.7-12.6,21.3-18.8,31.9c-1.3,3-5.6,1.5-4.7-1.7
		C280.5-606.8,281.5-614.5,282.2-622.4z M293.4-642.9c-3.1,0.4-7.3-1-9.2,0.9c-2,5-3.9,10.1-6,15.6c5.2-1,10.5-3.9,8.9,4
		c-0.5,4.3-1,8.6-1.5,12.9c0.1,0,0.3,0.1,0.4,0.1c3.6-6.1,7.2-12.1,11-18.5c-3.5,0.1-8.9,1.5-7.1-3.7
		C291-635.3,292.1-638.9,293.4-642.9z"/>
	<path class="st0" d="M218-636.6c2.7-1.9,8.1-6.3,8.7-0.7c-0.3,12.4-0.8,24.8-1.2,37.3c0.3,3.1-4,3.8-4.8,0.8
		c-3.1-7.4-5.9-14.7-9.2-22.1c-2.6,2-8.2,9.5-9.6,3c-1.1-7.5-2.2-15.1-3.1-22.7c0.3-4.4,9.5-6.8,12.9-9.3
		C217.3-653.2,216.4-640.1,218-636.6z M206-623.3c2.9-0.9,6.7-8,9-2.3c2,4.6,3.7,9.3,5.8,13.8c0.1,0,0.2-0.1,0.3-0.1
		c0.2-7,0.5-14,0.7-21.4c-2.6,1.6-6.5,5.3-7.9,0.9c-0.8-4.1-1.6-7.9-2.5-12.2c-2.3,1.9-8.1,2.7-7.7,5.9
		C204.6-633.6,205.3-628.5,206-623.3z"/>
	<path class="st0" d="M358-621.2c2.7,1,10.1,2.9,5.5,6.5c-10.4,7-20.8,13.9-31.1,20.9c-1.1,0.8-2.2,0.9-3.3-0.1
		c-1.1-1.1-0.9-2.3-0.1-3.5c4.2-6.8,8.5-13.4,12.6-20.3c-3.3-0.8-12.1-1.3-7.9-6.2c5.3-5.2,10.7-10.3,16.1-15.4
		c3.1-3.2,11.2,3.7,15.1,4.7C371.2-631.4,359.3-624.7,358-621.2z M339.1-604.5c0.1,0.1,0.2,0.2,0.3,0.3c5.9-3.9,11.8-7.9,17.9-12
		c-3.7-1.5-8.9-2.7-4.4-6.9c2.4-2.6,4.9-5.2,7.5-8.1c-2.8-1.3-5.4-2.6-8.1-3.9c-4.2,4-8.4,8-12.7,12.1c4,1.2,11,0.9,6.9,6.4
		C344.1-612.5,341.6-608.5,339.1-604.5z"/>
	<path class="st0" d="M262.2-561.6c5.3,3.3,9.7,8.4,7.4,15c-0.5,1.5-1.3,2.7-3,2.3c-1.8-0.4-2.1-1.8-1.6-3.5
		c1.5-3.7-2.5-10.9-6.7-8.4c-2.5,2.6-13.1,5.2-13.3,0c0.2-1.5,1.2-2.2,2.6-2.1c8.1,0.4,11.3-3.8,11.9-11.6c0.7-3,4.4-1.7,4.5,0.7
		C263.7-566.8,263-564.2,262.2-561.6z"/>
	<path class="st0" d="M290-532.2c5.5-0.2,13.9,8,8.7,12.6c-4.8,1.4-1.8-9.3-10.4-7.3c-1.4,0.7-3.5-0.3-3.9-1.4
		C284.1-531.6,287.7-531.8,290-532.2z"/>
	<path class="st0" d="M258.2-528.1c-5.9,0-10.8-4.6-11.3-10.5c-0.1-1.5,0.3-2.7,1.9-3c3.7-0.1,3.3,5.8,5.8,7.6
		c1.8,2.1,7.1-0.4,7.5,3.4C262.5-528.8,260.4-528,258.2-528.1z"/>
	<path class="st0" d="M299.4-564.4c-0.1,5.6-3.4,9.9-8.3,10.5c-1.4,0.2-2.4-0.2-2.8-1.6c-0.8-5,7.8-2,6.2-10.6c0-0.4-0.3-1-0.1-1.2
		C296.6-571.5,299.6-567.8,299.4-564.4z"/>
</g>
<g>
	<path class="st0" d="M926.5-2.3c-5.4-2.8-5.4-7.4-4.7-12.8c4.2-31.5-1.1-61.6-15.1-90.1c-8.6-17.6-17.9-34.8-26.3-52.4
		c-13.5-28.3-19.8-58.2-19-89.5c0.6-24.1,7-46.7,19.1-67.6c2.6-4.6,6.7-6,10.6-3.8c4,2.2,4.9,6.5,2.3,11.3c-0.1,0.1-0.1,0.2-0.2,0.3
		c-15.2,26.3-19.2,54.6-15.9,84.4c3,27.5,13,52.5,25.4,76.9c8.5,16.7,17.1,33.5,24.3,50.8c10,23.8,12.5,48.9,10.3,74.5
		c-0.1,0.8-0.1,1.7-0.2,2.7c34.8,0,69.4,0,104.2,0c2-10.3,6.2-19.4,13.3-27.1c8.9-9.6,19.8-14.9,33.1-14.6c9.1,0.2,18.2,0.1,27.3,0
		c12.8-0.1,22-9,23.1-21.8c0.2-2.3,1.7-4.5,2.9-6.6c0.6-1.2,1.9-2,2.8-2.9c3.9-4.1,3.9-7.9,0-12.1c-6.1-6.4-5.1-11.3,2.9-14.9
		c1.2-0.6,2.5-1.1,3.7-1.7c4.3-2.2,5.7-5.8,3.9-10.3c-2.4-5.7-5-11.4-7.5-17.1c-2.7-6.2-1-10,5.4-12.1c6.2-2,12.3-4,18.5-6
		c8.7-2.8,10.2-8.3,3.9-14.9c-9.9-10.4-19.7-20.9-29.8-31.1c-9.8-9.8-14.3-21.4-14.4-35.3c-0.8-59.9-45.3-112-104.3-122.4
		c-30.4-5.4-59-0.4-85.9,14.6c-0.5,0.3-1.1,0.6-1.6,0.9c-4.1,2-8.3,0.9-10.4-2.7c-2.1-3.7-1.1-8.2,3.1-10.2
		c10-4.7,19.9-10.1,30.4-13.3c69.8-21.3,143,12.7,172.3,79.6c7.4,16.9,11.4,34.6,11.5,53c0.1,10.1,3.2,18.3,10.4,25.5
		c10.2,10.2,20.1,20.8,30.1,31.3c13.4,14.1,8.7,32.8-9.8,39c-4.1,1.4-8.3,2.7-12.7,4.1c1.5,3.5,3,6.8,4.4,10.1
		c4.8,11,2.6,20.4-6.4,28.3c-0.8,0.7-1.2,2.6-0.9,3.6c3,9.2,1.2,17.1-5.3,24.3c-1.2,1.4-2.3,3.3-2.6,5.1
		c-3.3,17.9-18.2,30.8-36.4,31.1c-8.7,0.1-17.5,0.3-26.2,0c-15.2-0.7-24.7,7.1-30.7,20c-1.8,3.9-2.9,8.3-3.2,12.6
		c-0.4,4.3-1.7,7.4-5.5,9.4C1009.3-2.3,967.9-2.3,926.5-2.3z"/>
	<path class="st0" d="M1085.9-243.3c0,45.4-37,82.3-82.3,82.3c-45.4,0-82.3-37-82.3-82.4c0-45.4,37-82.3,82.3-82.3
		C1049-325.6,1085.9-288.7,1085.9-243.3z M1003.8-310.7c-37.2-0.1-67.5,30.1-67.6,67.2c-0.1,37.2,30.1,67.5,67.2,67.6
		c37.2,0.1,67.5-30.1,67.6-67.2C1071-280.3,1040.9-310.6,1003.8-310.7z"/>
	<path class="st0" d="M916-338.6c0.1,4.1-3.3,7.6-7.5,7.6c-4,0-7.3-3.3-7.4-7.3c-0.1-4.1,3.3-7.6,7.5-7.6
		C912.5-345.8,915.9-342.5,916-338.6z"/>
	<path class="st0" d="M1003.6-250.8c20,0,36.8,16.2,37.4,35.9c0.1,5.3-2.8,8.9-7.3,9c-4.4,0.1-7.3-3.1-7.7-8.3
		c-0.8-12.3-10.4-21.6-22.5-21.6c-12,0-21.6,9.3-22.4,21.6c-0.3,5.2-3.3,8.4-7.7,8.3c-4.5-0.1-7.4-3.7-7.3-9
		C966.7-234.6,983.6-250.8,1003.6-250.8z"/>
	<path class="st0" d="M981.1-273.1c-0.1,4.1-3.7,7.5-7.8,7.3c-4-0.2-7.2-3.6-7.1-7.6c0.1-4.1,3.6-7.5,7.8-7.3
		C977.9-280.5,981.1-277.1,981.1-273.1z"/>
	<path class="st0" d="M1041-273.4c0.1,4.1-3.4,7.6-7.5,7.6c-4,0-7.3-3.4-7.4-7.3c-0.1-4.1,3.4-7.6,7.5-7.6
		C1037.6-280.7,1040.9-277.4,1041-273.4z"/>
</g>
</svg>
