<?xml version="1.0" encoding="utf-8"?>
<!-- Generator: Adobe Illustrator 24.3.0, SVG Export Plug-In . SVG Version: 6.00 Build 0)  -->
<svg version="1.1" id="Layer_1" xmlns="http://www.w3.org/2000/svg" xmlns:xlink="http://www.w3.org/1999/xlink" x="0px" y="0px"
	 viewBox="0 0 150 150" style="enable-background:new 0 0 150 150;" xml:space="preserve">
<style type="text/css">
	.st0{fill:#005BAB;}
</style>
<g>
	<path class="st0" d="M0.6,59.3C1.3,58.1,2,57,2.7,55.9C2.9,55.4,3,54.8,3,54.2C3,44.1,3,34.1,3,24c0-5,2.7-8.6,7.2-9.6
		c1.1-0.2,2.3-0.2,3.5-0.2c3.3,0,6.7,0,10,0c1.6,0,2.5,0.8,2.6,2.1c0,1.4-0.9,2.2-2.6,2.3c-3.7,0-7.5,0-11.2,0c-3,0-5,1.8-5,4.8
		c-0.1,10.1,0,20.2,0,30.2c0,0.2,0.1,0.4,0.1,0.6c1.8,0,3.6,0,5.3,0c1.7-3.3,1.1-6.6,0.2-9.9c-0.3-1-0.5-2.1-0.7-3.1
		c-0.7-3.6,1.8-6.2,5.4-5.4c1.7,0.3,3.4,0.7,5.1,1.1c2,0.5,3.9,0.5,5.9,0c3.2-1,6.5-0.9,9.8-0.8c1,0,1.5-0.1,1.8-1.3
		c1.2-5,5.6-8.5,10.8-8.6c6.7-0.1,13.5-0.1,20.2,0c6.4,0.1,11.1,5.2,11.3,11.7c0.1,3.4,0,6.8,0,10.1c7.3,1.4,8.1,8.9,5.6,13.2
		c-1.3,2.2-3,4-5.3,5.3c-0.4,0.2-0.9,0.8-1,1.2c-1,3.7-2.8,6.9-5.3,9.7C76,78,76,79,75.6,80.2c1,0,1.5,0,2.1,0
		c3.9,0.1,7.8,0,11.6,0.3c4.9,0.4,9.2,2.5,13.1,5.4c0.5,0.3,0.9,0.7,1.7,1.3c0.4-2.6,0.9-5,1-7.3c0.1-7.3,0.1-14.5,0-21.8
		c0-1.3-0.1-2.6-0.4-3.9c-0.9-3.4-0.9-6.7,0.1-10c0.4-1.3,0.5-2.6,0.9-4.1c-2.6,0.5-4.9,1-7.3,1.5c-2.7,0.6-5.2-0.3-7.7-1.1
		c-1-0.3-1.4-1.3-1.1-2.4c0.3-1.1,1-1.6,2.1-1.7c0.5,0,1,0.1,1.4,0.2c2.5,1,5,0.6,7.6,0c1.3-0.3,2.6-0.7,4-0.9
		c3.6-0.7,6.1,1.8,5.3,5.5c-0.3,1.6-0.5,3.2-1,4.7c-0.9,2.8-0.5,5.5,0.5,8.4c1.8,0,3.8,0,5.7,0c4.2,0,6.7,2.6,6.7,6.7
		c0,13.3,0,26.6,0,39.8c0,0.5,0,1,0,1.8c0.3-0.2,0.6-0.3,0.7-0.4c3.3-3,6.7-6,10-9.1c2.6-2.4,3.2-5.7,1.6-9c-1.7-3.5-3.4-7-5.3-10.5
		c-2.5-4.7-2.4-9.3,0.6-13.7c0.2-0.4,0.5-0.7,0.7-1.2c-0.4-0.3-0.9-0.6-1.3-0.9c-3.3-2.5-5.2-5.7-5.3-9.9c-0.1-6.6-0.1-13.2,0-19.8
		c0-2.4,1.7-4.1,4.1-4.1c2.1,0,4.3,0,6.5,0c0-1.9,0-3.6,0-5.5c-0.7,0-1.3,0-1.9,0c-32.3,0-64.5,0-96.8,0c-0.5,0-1.1,0.1-1.6-0.1
		c-1.2-0.3-1.9-1-1.8-2.3c0.1-1.2,0.8-2,2-2c0.4,0,0.9,0,1.3,0c36.9,0,73.7,0,110.6,0c0.3,0,0.7,0,1,0c1.4,0.1,2.4,0.9,2.4,2.2
		c0,1.3-1,2.2-2.4,2.2c-2.7,0-5.4,0-8.2,0c0,1.8,0,3.6,0,5.5c2,0,3.9,0,5.9,0c3.1,0,4.7,1.6,4.7,4.7c0,6,0,12,0,18
		c0,8.1-6,13.8-14,13.4c-0.3,0-0.9,0-1,0.2c-1.7,2.6-3.7,5.2-2.6,8.7c0.2,0.7,0.6,1.4,0.9,2.1c1.8,3.6,3.6,7.1,5.3,10.6
		c2.7,5.4,1.6,10.7-2.8,14.8c-4,3.7-8,7.3-12.1,10.9c-1,0.8-1.3,1.7-1.3,3c0,6.8,0,13.7,0,20.5c0,3.3-1.4,4.7-4.7,4.7
		c-37.3,0-74.5,0-111.8,0c-2.4,0-3.8-0.9-4.8-3C0.6,108.3,0.6,83.8,0.6,59.3z M5.3,131.3c37.3,0,74.6,0,112.1,0c0-2.5,0-5,0-7.5
		c0-4.5-1.7-8.3-5-11.3c-8.1-7.2-17.5-11.3-28.3-11.5c-13.8-0.2-27.6-0.1-41.4-0.1c-0.5,0-1.1,0-1.6,0c-1.4-0.1-2.3-1-2.3-2.2
		c0-1.2,0.9-2.1,2.3-2.2c0.4,0,0.9,0,1.3,0c13.2,0,26.5,0,39.7,0c9.2,0,17.7,2.2,25.6,6.9c0.3,0.2,0.6,0.3,1.2,0.6
		c-2-8.8-7-14.8-15.2-18.1C88,83.8,82,84.7,76.2,84.6c-0.1,0-0.1,0.1-0.2,0.2c-0.4,4.3-2.6,6.6-6.4,6.6c-5.7,0.1-11.3,0.1-17,0
		c-3.4,0-5.8-2.3-6.3-5.7c-0.1-0.4-0.1-0.7-0.1-1.2c-3.2,0-6.3,0-9.5,0c-10.8,0-20.3,7.5-22.8,18.1c-0.1,0.4-0.2,0.9-0.3,1.5
		c1.3-0.7,2.3-1.3,3.4-1.9c4.2-2.2,8.6-3.8,13.2-4.7c1.3-0.2,2.3,0.4,2.6,1.5c0.3,1.2-0.3,2.3-1.6,2.7c-0.3,0.1-0.7,0.2-1,0.2
		c-7.9,1.8-14.8,5.4-20.7,10.9c-2.2,2.1-3.9,4.6-4.2,7.6C5,124.1,5.3,127.7,5.3,131.3z M61.8,79.6c0.6-0.1,1.8-0.2,2.9-0.4
		c7-1.6,12-6.8,13.2-14c0.2-1.3,0.7-2.2,2-2.5c2.8-0.6,5.2-3.7,5.1-6.5c0-0.9-0.5-2-1-2.8c-0.5-0.8-1.2-1.2-2.2-0.2
		c-1.3,1.4-3.2,0.6-3.6-1.3c-0.1-0.6-0.1-1.2-0.1-1.7c-0.2-4.7-3.6-8.2-8.2-8.3C63.9,42,58,42,52.1,42.1c-3.7,0.1-6.9,2.8-7.7,6.4
		c-0.2,1,0,2.2-0.3,3.2c-0.2,0.8-0.8,1.8-1.4,2.1c-0.6,0.3-1.8-0.1-2.4-0.6c-0.7-0.5-1.2-0.5-1.6,0c-0.5,0.6-1,1.2-1.2,1.9
		c-0.9,2.8,1.6,7.1,4.6,7.7c1.6,0.3,2.1,1.2,2.4,2.7C45.8,73.6,52.9,79.6,61.8,79.6z M39.7,40.5c-3.8,0-7.5-0.1-11.1,0.9
		c-1.6,0.4-3.4,0.4-5,0.2c-2.3-0.3-4.6-0.9-7-1.4c0.3,1.2,0.4,2.3,0.7,3.3c1.1,3.8,1.4,7.5,0.2,11.3c-0.2,0.7-0.3,1.4-0.3,2.1
		c0,8.1-0.1,16.3,0.1,24.4c0,1.9,0.6,3.8,1,5.9c5.7-4.1,8.6-5.8,13.5-6.4c3.8-0.5,7.6-0.4,11.4-0.5c1,0,2,0,3,0
		c0.3-1.4,0.1-2.4-0.9-3.3c-2.3-2.5-3.9-5.4-4.7-8.7c-0.2-0.9-0.6-1.4-1.5-1.9c-3.5-1.9-5.6-4.9-6.1-8.8c-0.3-2.1,0.2-4,1.3-5.8
		c1.3-2,3.2-3.1,5.5-3.4C39.7,45.6,39.7,43.1,39.7,40.5z M12.7,58.7c-1.8,0-3.4,0-5,0c-2.3,0-2.8,0.5-2.8,2.8c0,16,0,32.1,0,48.1
		c0,0.5,0,0.9,0,1.6c1-1,1.8-1.8,2.7-2.5c0.9-0.7,1.3-1.6,1.3-2.7c0.2-4.3,1.7-8.2,3.6-12c1.3-2.4,1.7-5.1,1-7.9
		c-0.5-2.1-0.8-4.3-0.8-6.4c-0.1-5.8,0-11.5,0-17.3C12.7,61.3,12.7,60.1,12.7,58.7z M109.6,58.7c0,0.7,0,1.2,0,1.7
		c0,6.4,0.1,12.9,0,19.3c0,2.2-0.4,4.3-0.8,6.5c-0.7,2.9-0.2,5.6,1.1,8.1c1.9,3.7,3.3,7.6,3.5,11.7c0.1,1.4,0.5,2.3,1.6,2.8
		c2.1-1,2.5-2.6,2.5-4.7c-0.1-14.1,0-28.1,0-42.2c0-0.4,0-0.9,0-1.3c-0.1-1.2-0.7-1.9-1.9-1.9C113.6,58.7,111.7,58.7,109.6,58.7z
		 M127.9,39c0,0.5,0,1,0,1.4c0,2.7-0.1,5.3,0.1,8c0.3,3.8,3.6,7,7.4,7.5c4.1,0.4,8.3-1.8,9.1-5.6c0.7-3.6,0.6-7.4,0.9-11.2
		C139.3,39,133.7,39,127.9,39z M44.2,40.6c4.3-2.6,5.5-3,9.1-3c5.2,0,10.5,0,15.7,0c3.1,0,5.9,0.8,8.4,2.7c0.1,0.1,0.3,0.2,0.6,0.3
		c0-1.1,0.1-2.2,0-3.1c-0.3-4-3.1-6.8-7.1-6.9c-6.5-0.1-13.1-0.1-19.6,0c-3.8,0.1-6.8,2.8-7.1,6.5C44.1,38.2,44.2,39.3,44.2,40.6z
		 M127.9,34.4c5.8,0,11.4,0,17,0c0-2,0-4,0-5.8c-5.7,0-11.4,0-17,0C127.9,30.6,127.9,32.5,127.9,34.4z M71.5,81.3
		c-7,3.5-13.8,3.5-20.8,0c0,1.5-0.1,2.7,0,4c0.1,1.2,0.8,1.8,1.9,1.8c5.7,0,11.3,0,17,0c1.2,0,1.9-0.7,1.9-1.9
		C71.5,83.9,71.5,82.7,71.5,81.3z"/>
	<path class="st0" d="M60.8,68.8c-1.3,0-2.5,0-3.8,0c-1.5-0.1-2.4-0.9-2.4-2.2c0-1.3,0.9-2.1,2.4-2.2c2.5-0.1,5-0.1,7.5,0
		c1.5,0,2.4,0.9,2.3,2.2c0,1.3-0.9,2.1-2.4,2.2C63.3,68.8,62,68.8,60.8,68.8z"/>
	<path class="st0" d="M72.7,55c0,1.5-1.1,2.6-2.5,2.6c-1.5,0-2.7-1.1-2.7-2.6c0-1.4,1.3-2.7,2.7-2.6C71.6,52.4,72.7,53.6,72.7,55z"
		/>
	<path class="st0" d="M52.2,52.4c1.4,0,2.6,1.2,2.6,2.6c0,1.4-1.1,2.6-2.5,2.7c-1.5,0.1-2.7-1.1-2.7-2.6
		C49.6,53.6,50.7,52.4,52.2,52.4z"/>
</g>
<g>
	<path class="st0" d="M262.8,258.7c-9.2-3.1-11.7-6.7-11.7-16.1c0-8,0-16,0-23.9c0.1-8.3,5.2-13.6,13.5-13.7
		c34.6-0.1,69.1-0.1,103.7,0c8.2,0,13.4,5.3,13.6,13.7c0.1,7.5,0,15,0,22.5c0,1.2,0,2.4,0.8,3.8c1.3-4.1,2.5-8.2,3.8-12.3
		c6.1-20.4,12.1-40.8,18.2-61.2c4.8-16.1,18.1-23.4,34.3-18.6c39.3,11.6,78.5,23.3,117.8,35c16.3,4.9,23.3,18.1,18.5,34.3
		c-26.2,88.3-52.4,176.6-78.7,265c-4.8,16.3-18.3,23.4-34.6,18.5c-18-5.4-36-10.7-54.2-16.1c-0.4,0.8-0.7,1.4-1,2
		c-4.7,10.5-12.8,16-24.4,16c-43.8,0.1-87.6,0-131.3,0c-15.5,0-26.3-10.7-26.5-26.3c-0.1-13.3,0-26.7,0-40
		c0-39.5,0.1-79.1-0.1-118.6c0-9.6,2.6-18.1,8.6-25.7c5.6-7,10.6-14.5,16.3-21.4c2.5-3.1,6-5.9,9.6-7.4c3.6-1.5,4.5-3.2,4-6.6
		C262.7,260.7,262.8,259.8,262.8,258.7z M408.6,378.9c-0.1,0.6-0.2,0.9-0.2,1.1c0,31.7,0,63.4-0.1,95c0,2.2,0.9,2.9,2.9,3.5
		c18,5.3,36,10.7,54.1,16.1c10.4,3.1,17.1-0.7,20.2-11.1c9.1-30.5,18.2-61.1,27.3-91.6c17.2-57.6,34.3-115.3,51.5-172.9
		c2.9-9.7-0.7-17-9.8-19.7c-39.9-11.9-79.7-23.7-119.6-35.5c-9-2.7-16.4,1.3-19,10.1c-10,33.5-20,67.1-29.8,100.6
		c-0.4,1.5,0,3.7,0.9,5c4.6,6.5,9.5,12.8,14.3,19.2c4.8,6.4,7.5,13.5,7.1,21.6c-0.2,3.9,0.4,6.9,4.1,9c1.4,0.8,2.5,2.4,3.4,3.9
		c3.3,5.9,6.6,11.7,9.6,17.7c2.3,4.5,2.5,9.4,0.8,14.2C423.3,373.5,417.2,377.7,408.6,378.9z M396.8,339c-53.6,0-107,0-160.5,0
		c0,41.1,0,81.9,0,122.7c53.7,0,107,0,160.5,0C396.8,420.7,396.8,379.9,396.8,339z M236.2,326.9c53.7,0,107,0,160.4,0
		c0.9-8.3-0.2-15.8-5.5-22.4c-5.5-6.9-10.7-14.1-16-21.2c-2.8-3.8-6.3-5.6-11.1-5.6c-31.8,0.1-63.6,0.1-95.4,0
		c-4.6,0-8.1,1.6-10.9,5.4c-5.2,7.2-10.4,14.4-16,21.2C236.3,311,235.3,318.6,236.2,326.9z M236,473.5c0,2.1,0.1,3.7,0,5.3
		c-1.1,12.5,7.4,17.6,17.5,17.5c28.8-0.4,57.6-0.1,86.4-0.1c14,0,27.9,0,41.9,0c5.8,0,10.5-2.1,13.4-7.3c2.7-4.8,1.8-10,1.7-15.3
		C343.1,473.5,289.8,473.5,236,473.5z M316.3,247c16.7,0,33.4-0.1,50.1,0.1c2.9,0,4-0.8,3.9-3.8c-0.2-7.7-0.2-15.5,0-23.2
		c0-2.7-0.6-3.8-3.5-3.7c-33.5,0.1-67,0.1-100.6,0c-3.1,0-3.8,1.2-3.8,4c0.1,7.3,0.2,14.7,0,22.1c-0.1,3.5,0.9,4.8,4.6,4.7
		C283.4,246.9,299.9,247,316.3,247z M358.4,258.7c-28.2,0-56.1,0-83.9,0c0,2.6,0,4.9,0,7.2c28.1,0,55.9,0,83.9,0
		C358.4,263.4,358.4,261.2,358.4,258.7z M408.5,367.2c5-1.3,8.2-5,7-8.9c-1.5-4.7-4.1-8.9-6.2-13.4c-0.3,0.1-0.5,0.3-0.8,0.4
		C408.5,352.5,408.5,359.7,408.5,367.2z M380.2,253.3c-3.4,2-6.5,3.9-9.9,5.8c-0.7,7.8-0.5,8.1,5.6,8.7
		C377.3,263.1,378.7,258.3,380.2,253.3z"/>
	<path class="st0" d="M521.3,269c-6.4-0.1-12.3-3.5-16.1-10.2c-3.2-5.6-6.2-11.3-9.1-17.1c-5-9.9-1.3-21.6,8.2-26.7
		c9.6-5.1,21.2-1.7,26.7,8.1c3.2,5.7,6.4,11.6,9.3,17.5C546.7,253.7,537.2,268.9,521.3,269z M505.5,233.2c0.1,0.7,0,1.5,0.3,2.1
		c3.3,6.1,6.3,12.4,10,18.3c1.9,3.1,6.6,3.6,9.8,1.9c3.6-1.9,5.8-6.2,4.1-9.7c-2.8-6.1-6-12-9.5-17.7c-1.9-3.1-5.9-4-9.3-2.6
		C507.4,226.7,505.6,229.3,505.5,233.2z"/>
	<path class="st0" d="M502.4,381.2c-0.3,8.9-5.9,16.6-14.3,19.2c-8.5,2.6-17.9-0.6-22.5-8.3c-3.6-6-7-12.1-9.8-18.4
		c-4.2-9.1-0.3-19.9,8.5-24.9c8.7-4.9,20.1-2.8,25.6,5.6c4.2,6.3,7.5,13.2,11,19.9C501.8,376.4,501.9,378.9,502.4,381.2z
		 M490.3,381.2c-0.1-0.4,0-1.1-0.3-1.7c-3.4-6.5-6.6-13.1-10.5-19.3c-2-3.2-7-3.3-10.2-1.3c-3.3,2.1-5.1,6.2-3.4,9.7
		c2.9,6.1,6.1,12,9.6,17.7c1.9,3.1,5.9,4.1,9.3,2.8C488.3,387.8,490.1,385.1,490.3,381.2z"/>
	<path class="st0" d="M434.2,432.6c0.3-8.9,6-16.5,14.4-19c8.2-2.5,17.3,0.6,21.9,8c3.7,5.9,7.1,12,10.1,18.3
		c4.4,9.2,0.7,20.1-8.2,25.2c-8.6,5-20.2,3-25.7-5.2c-4.3-6.5-7.6-13.7-11.2-20.7C434.7,437.2,434.6,434.8,434.2,432.6z
		 M470.5,447.5c0-0.3,0.1-1-0.2-1.5c-3.5-6.6-6.8-13.3-10.7-19.5c-2-3.2-6.5-3.3-9.8-1.3c-3.4,2.1-5.2,6.1-3.6,9.6
		c2.9,6.2,6.1,12.2,9.6,18.1c1.8,3.1,6,4,9.3,2.8C468.5,454.5,470.6,451.4,470.5,447.5z"/>
	<path class="st0" d="M447,292.3c-0.3,8.9-6,16.6-14.4,19.1c-8.4,2.5-17.6-0.7-22.2-8.2c-3.6-5.9-7-12.1-9.9-18.4
		c-4.2-9.2-0.4-19.9,8.4-24.9c8.6-4.9,20-2.9,25.4,5.2c4.3,6.5,7.7,13.7,11.2,20.7C446.5,287.7,446.5,290.1,447,292.3z M435.3,292.3
		c0-0.4,0.1-1.3-0.2-1.9c-3.3-6.3-6.4-12.7-10.1-18.7c-2.1-3.5-6.9-3.8-10.4-1.7c-3.5,2.1-5.2,6.3-3.4,10c2.8,5.8,5.9,11.5,9.1,17.1
		c1.9,3.3,5.7,4.3,9.1,3.3C433,299.3,435.3,296.4,435.3,292.3z"/>
	<path class="st0" d="M441,190.8c5.6,0.2,11.2,3.4,14.9,9.7c3.2,5.5,6.2,11.1,9,16.8c4.7,9.6,0.9,21-8.4,26
		c-9.4,5.1-21.2,1.9-26.6-7.5c-3.2-5.5-6.2-11.1-8.8-16.8C414.7,205.5,424.5,190.5,441,190.8z M455.5,226.3c-0.1-0.6,0-1.5-0.4-2.1
		c-3.4-6.4-6.6-12.8-10.3-19c-2-3.3-6.6-3.8-10.1-2c-3.5,1.8-5.6,6.2-3.9,9.8c3,6.4,6.4,12.6,10,18.7c1.8,3.1,6,3.9,9.4,2.5
		C453.7,232.8,455.4,230.1,455.5,226.3z"/>
	<path class="st0" d="M521.7,314.7c-0.2,8.9-6,16.6-14.4,19c-8.5,2.4-17.6-0.8-22.1-8.4c-3.5-6-6.8-12.2-9.6-18.5
		c-4.1-9.2-0.2-19.8,8.6-24.7c8.8-4.9,20.1-2.8,25.5,5.7c4.3,6.7,7.4,14.1,10.8,21.2C521.4,310.6,521.4,312.8,521.7,314.7z
		 M493.8,290.9c-6.1,0.1-10,6.3-7.3,12c2.5,5.2,5.3,10.1,8.1,15.1c2.6,4.6,7.3,6.1,11.4,3.9c4-2.1,5.6-7.1,3.3-11.7
		c-2.6-5.1-5.4-10.1-8.1-15.1C499.6,292.2,497,291,493.8,290.9z"/>
	<path class="st0" d="M338.1,422.1c0,8,0,15.5,0,23.1c0,7.4-1.4,8.7-8.7,8.7c-9.1,0-18.2,0-27.3,0c-5.5,0-7.4-2-7.4-7.4
		c0-8,0-15.9,0-24.4c-7.3,0-14.4,0-21.5,0c-1.6,0-3.3,0.1-4.9-0.1c-3.2-0.4-5.4-2.2-5.4-5.6c-0.1-10.7-0.1-21.4,0-32.2
		c0.1-3.8,2.3-5.6,6.5-5.6c8.2-0.1,16.4,0,25,0c0.1-1.5,0.2-2.9,0.2-4.2c0-7,0-14,0-20.9c0-4.8,2.1-6.9,6.9-6.9
		c10,0,19.9-0.1,29.9,0c4.5,0,6.6,2.1,6.6,6.7c0.1,8.2,0,16.4,0,25.1c1.5,0.1,2.8,0.2,4.1,0.2c7.1,0,14.2,0,21.3,0
		c4.5,0,6.6,2.1,6.6,6.7c0.1,9.7,0,19.4,0,29.2c0,5.5-2,7.5-7.4,7.5c-6.9,0-13.7,0-20.6,0C340.9,422.1,339.7,422.1,338.1,422.1z
		 M326.3,442.3c0.2-0.7,0.3-0.9,0.3-1.1c0-6.2,0-12.5,0-18.7c0-11.7,0.3-12,11.9-12c6.6,0,13.1,0,19.8,0c0-7.1,0-13.6,0-20.4
		c-7.9,0-15.5,0-23.1,0c-7.1,0-8.6-1.5-8.6-8.5c0-7.7,0-15.4,0-23.3c-7,0-13.5,0-20.4,0c0,1.6,0,2.9,0,4.3c0,6.7,0,13.5,0,20.2
		c-0.1,5.3-2,7.2-7.3,7.3c-5.6,0-11.2,0-16.8,0c-2.6,0-5.1,0-7.5,0c0,7.2,0,13.7,0,20.4c8.3,0,16.3,0,24.2,0c5.3,0,7.3,2,7.3,7.2
		c0.1,5.6,0,11.2,0,16.8c0,2.6,0,5.1,0,7.7C313.3,442.3,319.7,442.3,326.3,442.3z"/>
	<path class="st0" d="M313,240.8c-5.1,0-10.2,0.1-15.3,0c-4.4-0.1-6.8-2.1-6.9-5.6c-0.1-3.7,2.4-5.9,7-5.9c10.3-0.1,20.6,0,31,0
		c4.6,0,7.1,2.1,7.1,5.8c0,3.7-2.5,5.7-7.2,5.7C323.4,240.8,318.2,240.8,313,240.8z"/>
	<path class="st0" d="M352.9,240.8c-5.8,0-8.7-1.9-8.8-5.7c-0.1-3.9,2.9-5.9,8.6-5.9c6.1,0,9,1.9,8.9,5.9
		C361.6,239,358.8,240.8,352.9,240.8z"/>
</g>
</svg>
