<svg width="150" height="150" viewBox="0 0 150 150" fill="none" xmlns="http://www.w3.org/2000/svg">
<path d="M1.40002 75C1.40002 34.5 34.5 1.40002 75 1.40002C115.6 1.40002 148.6 34.5 148.5 75C148.5 115.5 115.4 148.6 74.8 148.5C34.4 148.5 1.40002 115.5 1.40002 75ZM75 6.20002C37.1 6.20002 6.20002 37.1 6.20002 74.9C6.20002 112.9 37.1 143.8 75 143.8C112.9 143.8 143.8 112.9 143.8 75C143.9 37.1 113 6.20002 75 6.20002Z" fill="#005BAB"/>
<path d="M76.9 136.8C60.4 136.5 47.4 132 36.1 122.9C34.2 121.4 34.1 120.1 35.8 118.4C63.3 90.8 90.7 63.3 118.2 35.7C119.9 34 121.2 34.1 122.6 35.9C132.9 48.7 137.7 63.3 136.4 79.7C134.1 107.5 114.8 129.4 87.6 135.3C83.5 136.3 79.2 136.5 76.9 136.8ZM40.5 120.2C60.9 136.2 93.5 137.1 115.3 115.2C137.3 93.1 136 60.5 120.5 41C112.4 49 104.2 57 96 65.1C99.5 69.6 103.1 74.1 106.6 78.6C114.9 89.6 109.8 105.2 96.6 109.1C92.4 110.3 88.1 111.5 83.9 112.6C77.7 114.2 71.9 110.5 70.6 104.3C70.5 104 70.4 103.8 70.4 103.5C68.7 104.7 67.1 105.8 65.4 106.9C67.9 109.6 69 112.7 67.3 116C66.2 118.1 64.4 119.9 62.5 122.2C61.8 121.2 61.4 120.6 60.9 120.1C60.3 119.6 59.6 119.2 58.8 118.6C60.2 117.3 61.3 116.4 62.2 115.4C63.5 114 63.6 112.3 62.5 111C61.2 109.4 59.9 107.8 57.4 108.2C56.5 108.4 55.5 107.9 54.5 107.8C54 107.8 53.3 107.9 52.9 108.2C48.7 112.1 44.7 116.1 40.5 120.2ZM92.9 68.9C81.2 80.5 69.5 92 57.9 103.5C61.7 103.6 64.9 102.2 67.4 99.3C68.5 98.1 69.4 96.7 70.4 95.4C71.1 94.4 72 94 73.3 94C76.7 94 80 94 83.4 94C83.8 94 84.1 94.1 84.5 94.1C84.5 95.7 84.5 97.2 84.5 98.8C81.3 98.8 78.3 98.8 75.1 98.8C75.1 100.2 75 101.5 75.1 102.8C75.4 106.3 78.8 108.9 82.3 108.1C86.9 107 91.5 105.8 96 104.3C105.1 101.3 109 90.3 103.5 82.4C100 77.6 96.2 73.1 92.9 68.9Z" fill="#005BAB"/>
<path d="M76.5001 13.3C89.7001 13.5 102.8 18.1 114.1 27.3C116 28.9 116.1 30.1 114.3 31.8C86.7001 59.2 59.1001 86.6 31.5001 114.1C29.7001 115.8 28.6001 115.8 27.0001 113.8C-1.39993 78.8 16.4001 25.9 60.2001 15.1C65.2001 13.9 70.1001 13.3 76.5001 13.3ZM38.2001 31.7001C13.6001 52.2001 12.5001 88.2 30.0001 109.5C34.0001 105.4 38.0001 101.3 42.0001 97.2C42.3001 96.9 42.4001 96.1 42.3001 95.6C41.2001 90.5 42.2001 85.8 45.4001 81.6C46.9001 79.6 48.5001 77.6 50.1001 75.7C50.8001 74.9 51.0001 74.1 50.7001 73.1C48.5001 65.9 46.3001 58.7001 44.2001 51.4001C42.1001 44.9001 40.2001 38.4001 38.2001 31.7001ZM82.7001 55.9001C74.0001 44.9001 65.2001 33.6 56.3001 22.2C55.7001 21.5 55.2001 21.5 54.5001 21.8C50.8001 23.7 47.1001 25.7 43.4001 27.6C42.4001 28.1 42.2001 28.7 42.6001 29.8C47.0001 44.2 51.3001 58.7 55.7001 73.2C56.2001 74.8 56.0001 76 54.9001 77.3C52.8001 79.7 50.8001 82.3 48.9001 84.8C47.3001 87 46.5001 89.4 46.6001 92.6C58.8001 80.3 70.7001 68.1001 82.7001 55.9001ZM109.3 29.6C98.1001 19.7 72.1001 14.5 60.6001 20.1C69.2001 31.1 77.8001 42.0001 86.4001 52.9001C94.1001 45.1001 101.7 37.3 109.3 29.6Z" fill="#005BAB"/>
</svg>
