<svg width="150" height="150" viewBox="0 0 150 150" fill="none" xmlns="http://www.w3.org/2000/svg">
<g clip-path="url(#clip0_223_487)">
<path d="M125.9 149.4C123.6 148.8 121.9 147.4 120.3 145.7C118 143.2 115.7 140.9 113.6 138.6C109.8 140.4 106.4 142.2 102.9 143.6C59.4 161.1 10.3 134.4 2.00003 88.4C-2.89997 61.8 5.10003 39 24.6 20.2C25.1 19.7 25.9 19.1 26.6 19.2C27.3 19.3 28.2 19.8 28.6 20.4C29.2 21.3 28.7 22.2 28 23C25.7 25.3 23.3 27.6 21.2 30.1C9.30003 44.6 3.50003 61.3 5.30003 79.9C8.00003 109.2 23.4 129.5 50.7 140.2C70.5 147.9 90.1 146 108.9 136C109.1 135.9 109.2 135.8 109.4 135.7C109.5 135.6 109.5 135.6 109.8 135.2C109.2 134.6 108.5 134 107.8 133.4C104.4 130.1 104.2 125.1 107.2 121.9C110.2 118.7 115 118.7 118.6 121.8C118.7 121.9 118.9 122 119.2 122.3C119.2 121.6 119.3 121.1 119.3 120.6C119.3 115.2 119.3 109.8 119.3 104.5C119.4 98.8 124.4 95.1 129.6 96.7C132.9 97.7 135.1 100.7 135.2 104.2C135.2 106.1 135.2 108 135.2 109.9C135.4 110 135.5 110 135.7 110.1C137.3 106.7 139.1 103.3 140.4 99.8C154.9 62 134.6 20 95.7 8.10001C74.8 1.70001 55 4.70001 36.6 16.4C36.2 16.6 35.9 16.9 35.5 17.1C34.2 17.8 33 17.6 32.3 16.6C31.6 15.5 31.9 14.2 33.2 13.5C37.1 11.2 40.9 8.80001 45 7.00001C84.3 -10.4 130.1 9.10001 145 49.3C147.3 55.6 148.8 62.2 149.3 69C149.3 69.5 149.5 69.9 149.5 70.4C149.5 73.4 149.5 76.4 149.5 79.4C149.4 79.8 149.3 80.2 149.3 80.7C148.3 94.1 143.9 106.3 136.2 117.2C135 118.9 135.4 120.6 135.3 122.6C135.7 122.2 135.9 122.1 136.1 121.9C140.6 117.6 148.3 119.8 149.3 126C149.3 126.2 149.4 126.4 149.5 126.5C149.5 127.2 149.5 127.9 149.5 128.5C148.7 130 148.1 131.7 147.1 133C145.9 134.6 144.3 135.9 142.8 137.3C141.6 138.5 140.3 138.5 139.4 137.5C138.5 136.5 138.6 135.3 139.8 134.2C141.2 132.8 142.6 131.5 143.9 130.1C145.5 128.5 145.6 126.3 144.1 124.9C142.7 123.5 140.5 123.5 138.9 125.1C137.6 126.3 136.3 127.6 135.1 128.9C134.3 129.8 133.3 130.3 132.1 129.8C130.9 129.3 130.8 128.3 130.8 127.1C130.8 119.8 130.8 112.6 130.8 105.3C130.8 104.7 130.8 104.1 130.7 103.6C130.3 101.9 128.9 100.8 127.1 100.8C125.4 100.8 124 102 123.7 103.8C123.6 104.4 123.6 105 123.6 105.5C123.6 112.8 123.6 120 123.6 127.3C123.6 128.4 123.4 129.4 122.2 129.8C121.1 130.2 120.3 129.8 119.5 129C118.2 127.7 116.9 126.4 115.6 125.1C114 123.5 111.8 123.4 110.4 124.8C108.9 126.2 109 128.4 110.7 130.1C115.3 134.6 119.9 139.2 124.5 143.7C126.3 145.4 128.2 145.4 130 143.6C131 142.6 132 141.5 133.1 140.6C134.1 139.7 135.4 139.7 136.2 140.6C137.1 141.5 137.1 142.7 136.1 143.7C133.9 145.9 131.9 148.4 128.7 149.3C127.8 149.4 126.9 149.4 125.9 149.4Z" fill="#005BAB"/>
<path d="M68 69.5C65.3 72.2 62.6 74.9 59.9 77.7C58.3 79.3 56.6 80.7 54.4 81.4C51.2 82.5 49.6 84.8 49.1 88.2C48.5 92.8 46 95.9 41.5 97.3C40.2 97.7 38.9 98.7 37.9 99.6C35 102.3 32.3 105.1 29.5 107.9C29 108.4 28.1 109 27.4 108.9C26.7 108.9 25.7 108.2 25.6 107.6C25.4 106.9 25.7 105.7 26.2 105.2C28.6 102.6 31.3 100.2 33.7 97.5C35.6 95.5 37.6 94 40.3 93.1C43 92.2 44.4 90.3 44.8 87.6C45.5 82.5 48.1 79 53.1 77.2C54.2 76.8 55.2 76 56.1 75.2C58.9 72.6 61.5 69.8 64.3 67.1C64.9 66.5 65 66 64.7 65.2C63.1 61.5 64 57.5 67.1 54.9C69.9 52.5 73.1 51 76.8 50.7C81.8 50.3 84.6 53.2 83.8 58.2C83.3 61.5 82 64.4 79.9 67C77 70.7 73.1 71.5 68 69.5ZM79.4 57.6C79.4 55.5 79 55 77.5 55.2C74.5 55.5 71.8 56.6 69.6 58.7C67.7 60.4 67.8 63 69.6 64.9C71.4 66.8 74.1 67 75.9 65.2C78 62.8 79 60.1 79.4 57.6Z" fill="#005BAB"/>
<path d="M72.1001 23.8C77.3001 23.8 79.7001 26.8 79.0001 31.4C78.5001 34.6 77.2001 37.4 75.3001 40C72.7001 43.5 68.4001 44.6001 64.4001 42.9001C63.6001 42.6001 63.2001 42.7001 62.7001 43.2001C60.1001 45.9001 57.5001 48.6 54.8001 51.1C53.4001 52.4 51.8001 53.5 50.0001 54.3C46.9001 55.7 45.1001 57.8001 44.5001 61.2001C43.7001 65.8001 41.1001 68.8 36.7001 70.5C35.5001 70.9 34.3001 71.8 33.4001 72.7C30.6001 75.3 28.0001 78.1001 25.2001 80.8001C24.9001 81.1001 24.7001 81.4 24.3001 81.6C23.3001 82.4 22.1001 82.3001 21.3001 81.4001C20.5001 80.4001 20.5001 79.4 21.3001 78.5C24.7001 75 28.2001 71.6 31.7001 68.2C32.6001 67.4 33.8001 66.9 35.0001 66.5C37.9001 65.5 39.6001 63.5001 40.1001 60.4001C40.9001 55.5001 43.6001 52.3001 48.2001 50.4001C49.5001 49.9001 50.6001 49 51.6001 48.1C54.3001 45.6 56.8001 42.9 59.5001 40.3C60.1001 39.8 60.2001 39.3 59.9001 38.6C58.2001 34.4 59.3001 30.2 63.0001 27.5C66.0001 25.3 69.2001 23.9 72.1001 23.8ZM74.7001 30.5C74.7001 28.5 74.3001 28.1001 72.8001 28.2001C69.7001 28.4001 67.0001 29.6001 64.7001 31.7001C62.9001 33.4001 63.0001 36.0001 64.8001 37.9001C66.6001 39.7001 69.3001 39.9001 71.0001 38.2001C73.3001 35.9001 74.4001 33.1 74.7001 30.5Z" fill="#005BAB"/>
<path d="M105.3 53.6C104.2 51.4 103.7 49.1 104.4 46.8C104.7 45.8 105.1 44.9 105.6 44C108 40.2 115.2 37.2 119.5 38.1C122.4 38.6 124.2 41.1 124 44.3C123.7 48.4 122.1 52.1 119.3 55.2C116.9 57.8 112.8 58.6 109.4 57.1C108.5 56.7 108.1 56.9 107.4 57.5C105 60 102.6 62.5 100 64.9C98.4 66.3 96.6 67.7 94.7 68.5C91.7 69.8 89.8 71.8 89.4 75.1C89.3 75.7 89.1 76.3 89 76.9C88.1 80.4 86 82.9 82.5 84.1C80.6 84.7 79.1 85.7 77.7 87.2C75.3 89.8 72.7 92.2 70.2 94.7C69.9 95 69.6 95.3 69.2 95.6C68.1 96.4 67 96.3 66.2 95.5C65.4 94.7 65.4 93.4 66.3 92.5C69.6 89.1 73 85.7 76.4 82.5C77.3 81.6 78.6 81.1 79.8 80.7C83 79.7 84.7 77.5 85.2 74.2C85.7 70.5 87.2 67.2 90.8 65.8C94.8 64.2 97.6 61.3 100.5 58.4C102.1 56.8 103.7 55.2 105.3 53.6ZM119.7 44.4C119.8 42.8 119.2 42.2 117.8 42.3C114.8 42.6 112.2 43.7 109.9 45.6C107.9 47.4 107.9 50.1 109.7 52C111.6 54 114.4 54 116.2 52C118.3 49.8 119.4 47.2 119.7 44.4Z" fill="#005BAB"/>
<path d="M126.2 77.7C125.8 81.4 124.3 85.3 121.1 88.3C118.4 90.9 115 91.3 111.5 89.9C110.7 89.6 110.2 89.7 109.6 90.3C107.2 92.8 104.7 95.1 102.3 97.6C100.7 99.3 98.9 100.7 96.7 101.4C93.5 102.5 91.9 104.7 91.4 108C90.7 112.6 88 115.8 83.5 117.4C82.3 117.9 81.1 118.7 80.1 119.6C77.2 122.3 74.6 125.1 71.7 127.9C71.1 128.5 70.1 128.9 69.3 128.9C68.7 128.9 67.8 128.1 67.7 127.5C67.5 126.8 67.8 125.7 68.3 125.2C70.5 122.9 72.8 120.7 75 118.4C77.3 116 79.6 113.9 82.8 112.9C85.2 112.1 86.4 110.2 86.8 107.8C87.6 102.5 90.5 99 95.5 97.2C96.4 96.9 97.2 96.3 97.9 95.6C100.7 92.9 103.5 90.1 106.3 87.3C106.9 86.7 107 86.2 106.7 85.4C105.1 81.5 106.1 77.4 109.4 74.8C112.2 72.5 115.4 71.2 119.1 70.8C123.5 70.3 126.2 72.8 126.2 77.7ZM121.8 77.4C121.9 75.4 121.3 74.9 119.9 75C116.9 75.3 114.2 76.4 112 78.5C110.1 80.3 110.2 82.8 112 84.7C113.9 86.6 116.5 86.8 118.3 85C120.4 82.8 121.5 80.1 121.8 77.4Z" fill="#005BAB"/>
</g>
<defs>
<clipPath id="clip0_223_487">
<rect width="150" height="150" fill="white"/>
</clipPath>
</defs>
</svg>
