<svg width="150" height="150" viewBox="0 0 150 150" fill="none" xmlns="http://www.w3.org/2000/svg">
<path d="M107.1 49.4999C107.4 49.6999 107.7 49.8999 107.9 50.1999C108.4 50.7999 108.6 51.4999 108.5 52.2999C108.5 53.0999 108.4 53.8999 108.4 54.7999C108.3 55.6999 107.9 56.3999 107.1 56.8999C106.5 57.2999 105.9 57.5999 105.2 57.9999C105.6 58.5999 106 59.2999 106.4 59.8999C106.9 60.6999 107 61.4999 106.7 62.3999C106.5 62.8999 106.4 63.3999 106.1 63.7999C105.8 64.1999 105.5 64.5999 105.1 64.9999C104.9 65.1999 104.6 65.2999 104.4 65.4999C103.8 65.8999 103.3 66.1999 103.7 67.0999C104 67.7999 103.6 68.4999 103.1 69.0999C102.1 70.1999 101.2 71.3999 100.2 72.3999C98.8 73.8999 97.2 75.1999 95.4 76.2999C95 76.5999 94.6 76.8999 94.4 77.3999C92.7 80.9999 89.9 83.0999 86 83.9999C81.4 84.9999 77.6 87.2999 74.7 91.0999C72.6 93.7999 70.8 96.5999 68.9 99.3999C65.5 104.4 62.1 109.4 58.7 114.3C56.9 117 55 119.6 53.3 122.4C51.2 125.8 50.3 129.6 50.6 133.6C50.7 135 51 136.4 51 137.7C51.1 143.1 46.9 148.1 41.6 149C35.2 150.1 29.3 145.9 28.1 140.1C26.8 140.1 25.6 140.1 24.4 139.9C19.7 139.2 15.7 135.4 14.8 130.8C13.5 124.3 17.7 118.3 24.2 117C28.8 116.1 32.5 113.6 35.4 109.9C36.9 108 38.2 105.9 39.6 103.9C41.3 101.5 42.9 99.0999 44.6 96.6999C48.4 91.0999 52.3 85.4999 56.1 79.8999C57.7 77.4999 58.8 74.8999 59.3 72.0999C59.4 71.6999 59.3 71.4999 59 71.0999C55 66.5999 52.7 61.4999 52 55.4999C51.3 49.1999 52.5 43.1999 55.7 37.6999C55.8 37.4999 55.9 37.1999 55.8 36.8999C54.5 31.7999 55.6 27.1999 59.1 23.1999C61.1 20.8999 62.8 18.4999 63.9 15.6999C65 13.1999 65.6 10.4999 65.8 7.79995C65.9 6.59995 65.9 5.39995 65.9 4.19995C65.9 2.89995 66.9 1.79995 68.3 1.79995C69.6 1.79995 70.7 2.69995 70.8 4.09995C70.9 6.29995 70.7 8.39995 70.4 10.5999C69.8 14.3999 68.5 17.8999 66.7 21.1999C65.6 23.0999 64.3 24.8999 62.8 26.5999C61 28.5999 60.1 30.8999 60.3 33.5999C60.5 37.3999 62.5 40.0999 65.8 41.7999C68.4 43.0999 71.1 42.9999 73.7 41.8999C75.7 40.9999 77.3 39.6999 78.2 37.6999C79 35.8999 81.5 35.4999 82.8 37.4999C84.9 40.8999 88.8 42.5999 92.7 41.8999C96.4 41.1999 99.6 38.0999 100.3 34.2999C100.9 30.9999 100 27.9999 97.6 25.5999C93.4 21.4999 90.6 16.5999 89.1 10.8999C88.5 8.59995 88.2 6.19995 88.1 3.79995C88 2.49995 89 1.29995 90.2 1.19995C91.6 1.09995 92.7 1.99995 92.9 3.39995C93.1 4.99995 93.2 6.69995 93.5 8.29995C94.5 13.5999 97 18.1999 100.8 21.9999C103.8 24.8999 105.3 28.3999 105.3 32.4999C105.3 33.8999 105.2 35.2999 104.7 36.6999C104.6 37.0999 104.6 37.3999 104.8 37.7999C106.5 40.6999 107.7 43.7999 108.3 46.9999C108.2 47.7999 108 48.6999 107.1 49.4999ZM64.1 67.6999C64.1 73.1999 62.8 77.4999 60.4 81.4999C58.8 84.0999 57 86.5999 55.2 89.0999C50.2 96.4999 45.1 103.8 40.1 111.2C36.3 116.8 31.1 120.3 24.5 121.7C20.6 122.5 18.3 126.4 19.4 130.1C20.6 134.2 25 136.2 28.9 134.4C30.8 133.5 32.6 134.8 32.5 136.8C32.2 140.6 34.8 143.6 38.5 144.1C42.8 144.7 46.6 140.7 45.9 136.4C45.8 135.6 45.6 134.8 45.6 134C45.3 129.3 46.2 124.8 48.4 120.7C49.4 118.8 50.7 117.1 51.9 115.3C57.8 106.6 63.7 97.8999 69.7 89.1999C73.5 83.7999 78.6 80.2999 85.1 78.9999C88.6 78.2999 90.9 74.9999 90.4 71.3999C89.8 66.8999 84.9 64.2999 80.8 66.1999C79 67.0999 77 65.7999 77.1 63.7999C77.4 59.8999 74.6 56.6999 70.7 56.4999C66.4 56.2999 63.3 59.7999 63.6 63.6999C63.8 65.1999 64 66.7999 64.1 67.6999ZM91.8 46.6999C87.4 46.9999 83.5 45.5999 80.3 42.4999C77.3 45.6999 73.7 47.3999 69.4 47.2999C65 47.2999 61.4 45.4999 58.5 42.2999C57.1 45.5999 56.4 48.8999 56.4 52.3999C56.4 55.6999 57.8 61.1999 58.8 62.2999C59.2 56.7999 63.4 52.1999 69.2 51.5999C71.6 51.2999 73.9 51.7999 76 52.9999C79.1 54.6999 81 57.3999 81.8 60.7999C84.4 60.3999 86.8 60.7999 89 61.9999C93.3 58.1999 93.5 51.7999 91.8 46.6999ZM103.6 53.0999C102.9 52.5999 102.3 52.1999 101.7 51.6999C100.4 50.6999 100.3 48.9999 101.5 47.8999C101.8 47.5999 102.1 47.2999 102.5 46.9999C102.8 46.6999 102.9 46.4999 102.8 46.0999C102.8 45.9999 102.7 45.8999 102.7 45.7999C102.3 44.4999 101.8 43.1999 101.4 41.8999C100.6 42.5999 99.9 43.2999 99.1 43.8999C98.3 44.4999 97.4 44.8999 96.6 45.3999C98.4 52.5999 98.1 59.2999 92.9 65.0999C94 66.5999 94.8 68.1999 95.2 70.1999C96.2 69.1999 97.1 68.1999 98 67.2999C98.4 66.8999 98.4 66.4999 98.3 65.9999C97.8 64.4999 98.2 63.5999 99.5 62.6999C100.2 62.1999 100.9 61.6999 101.6 61.1999C101.3 60.6999 101 60.2999 100.7 59.7999C100.4 59.2999 100.1 58.8999 99.8 58.3999C98.9 56.8999 99.2 55.4999 100.7 54.5999C101.6 54.1999 102.6 53.6999 103.6 53.0999Z" fill="#005BAB"/>
<path d="M111.3 73.8999C110.1 77.0999 108 79.5999 105.1 81.4999C106.2 83.1999 107.2 84.8999 108.2 86.4999C112.7 93.5999 117.1 100.8 121.6 107.9C122.3 109 122.2 110.2 121.5 111C120.8 111.8 119.6 112.1 118.6 111.5C118.2 111.3 117.8 110.9 117.6 110.5C113.9 104.6 110.2 98.5999 106.5 92.6999C104.3 89.0999 102 85.4999 99.8 81.9999C98.9 80.4999 99.4 78.8999 101 78.1999C104.4 76.6999 106.5 74.0999 107.3 70.3999C107.6 68.6999 109 67.7999 110.7 68.3999C116.4 70.3999 122 72.3999 127.7 74.3999C129.8 75.0999 131.9 75.8999 134.1 76.6999C135.6 77.1999 136.2 78.4999 135.8 79.8999C135.3 81.1999 133.9 81.7999 132.5 81.2999C125.7 78.8999 118.8 76.4999 112 74.0999C111.7 73.9999 111.5 73.9999 111.3 73.8999Z" fill="#005BAB"/>
<path d="M130.2 40.7C131.6 40.6 132.5 41.8 132.6 42.7C132.8 43.9 132 45 130.9 45.4C128.3 46.2 125.7 46.9 123.1 47.7C120.8 48.4 118.6 49 116.3 49.7C114.9 50.1 113.7 49.6 113.2 48.4C112.6 47.1 113.3 45.5 114.7 45.1C118.9 43.9 123.1 42.6 127.4 41.4C128.3 41.1 129.2 40.9 130.1 40.7H130.2Z" fill="#005BAB"/>
<path d="M80.5 112C78.4 111.7 77.5 111 77.5 109.6C77.5 108.1 78.3 107.4 80.5 107.1C80.5 106.2 80.6 105.3 81.4 104.7C81.9 104.3 82.5 104.1 83.1 104.2C84.5 104.3 85.2 105.2 85.4 107.2C86.4 107.2 87.3 107.4 88 108.3C88.4 108.8 88.5 109.4 88.4 110C88.3 111.3 87.5 111.9 85.4 112.2C85.4 113.2 85.3 114.1 84.4 114.7C83.9 115.1 83.3 115.2 82.7 115.2C81.5 114.9 80.7 114 80.5 112Z" fill="#005BAB"/>
<path d="M127.1 60.8C126.2 60.9 125.3 60.7 124.7 59.9C124.3 59.4 124.1 58.9 124.1 58.3C124.1 56.8 125 56.1 127.1 55.9C127.1 55 127.2 54.1 128 53.5C128.5 53.2 129 53 129.6 52.9C130.4 52.8 131.1 53.2 131.5 53.9C131.8 54.5 132 55.2 132.2 56C133 55.9 133.9 56.1 134.5 56.9C134.9 57.4 135 58 135 58.6C134.9 60 134 60.7 132 60.9C132 61.9 131.9 62.9 131 63.4C130.6 63.7 130 63.9 129.5 63.8C128 63.8 127.3 62.9 127.1 60.8Z" fill="#005BAB"/>
<path d="M33.6 62.6C33.5 61.6 33.7 60.8 34.4 60.1C34.9 59.7 35.4 59.5 36 59.5C36.8 59.5 37.4 59.8 37.9 60.4C38.4 61 38.4 61.7 38.4 62.5C39.4 62.4 40.3 62.6 40.9 63.4C41.2 63.8 41.4 64.4 41.5 64.9C41.6 66.4 40.6 67.1 38.5 67.4C38.6 68.4 38.3 69.3 37.5 69.9C37.1 70.2 36.5 70.3 36 70.3C35.2 70.4 34.6 70 34.2 69.3C33.9 68.7 33.8 68 33.5 67.3C32.7 67.3 31.8 67.2 31.3 66.4C31 66 30.8 65.4 30.7 64.9C30.6 64.1 31 63.5 31.6 62.9C32.1 62.6 32.8 62.5 33.6 62.6Z" fill="#005BAB"/>
</svg>
