<svg width="150" height="150" viewBox="0 0 150 150" fill="none" xmlns="http://www.w3.org/2000/svg">
<path d="M73.4 110.3C73.7 111.3 73.8 112 74 112.7C75.1 116.9 73.6 121.1 70 123.6C66.5 126 61.8 126 58.4 123.5C54.9 121 53.2 116.7 54.6 112.6C55.5 109.7 56.8 107 58 104C56 102.7 54 101.4 52 100.1C45.5 95.9 39 91.6 32.5 87.4C25.1 82.7 17.6 78 10.2 73.3C8.09996 71.9 5.89996 70.5 3.89996 69C1.39996 67.2 0.499959 64.6 0.899959 61.6C1.29996 58.6 2.99996 56.5 5.89996 55.4C6.79996 55 7.79996 54.8 8.99996 54.5C7.99996 53.8 7.19996 53.3 6.39996 52.7C3.19996 50.5 1.79996 47.4 2.49996 44.1C3.09996 41.3 5.59996 38.1 9.59996 37.9C9.79996 37.9 9.99996 37.7 10.6 37.5C7.69996 35.8 5.19996 33.9 5.09996 30.5C5.09996 28.7 5.39996 26.6 6.29996 25.1C8.59996 21.1 12.5 20.8 18.9 23.6C18.9 23.1 18.9 22.6 18.8 22.2C18.1 18.8 19.1 15.9 21.9 13.9C24.8 11.8 27.9 11.8 31 13.7C36.7 17.3 42.4 21 48.1 24.7C57 30.4 65.9 36.1 74.7 41.8C75.2 42.1 75.7 42.4 76.7 43C76 41 75.4 39.4 74.8 37.8C72.7 31.5 76.4 25.3 82.9 24.4C87.4 23.7 91.8 26.4 93.6 31C96.5 38.4 99.3 45.8 102.1 53.1C103.5 56.7 104.6 60.4 106.2 64C109 70.1 113.6 74.6 119.2 78.2C126.8 83 134.3 87.9 141.9 92.7C143.6 93.8 145.4 94.9 147.1 96C149.5 97.5 149.5 97.9 148 100.3C141.7 110.1 135.4 119.9 129.1 129.6C127.8 131.7 126.4 133.8 125.1 135.8C123.6 138 123.2 138.1 121 136.7C110.2 129.7 99.3 122.8 88.6 115.8C84.1 112.9 79.2 111 73.4 110.3ZM145 98.9C144.8 98.6 144.8 98.4 144.6 98.3C137.7 93.9 130.8 89.5 124 85.1C120.2 82.6 116.2 80.4 112.7 77.5C107.6 73.3 104 68 101.8 61.7C98.4 51.8 94.5 42.1 90.7 32.3C89.2 28.3 85.6 26.6 82 27.9C78.3 29.3 76.7 33 78.2 37C79.1 39.6 80.2 42.1 81.1 44.6C81.5 45.8 82.8 47.3 81.3 48.4C79.9 49.5 78.7 48.1 77.6 47.4C61.8 37.5 46.1 27.3 30.4 17.2C27 15 24.5 15.3 22.8 17.8C21.1 20.3 22 22.8 25.3 24.9C36.7 32.2 48 39.5 59.3 46.7C59.9 47.1 60.4 47.4 60.9 47.8C62 48.8 62.2 50.1 61.5 51.4C60.8 52.7 59.5 53.2 58.1 52.7C57.3 52.4 56.5 51.9 55.7 51.4C43.8 43.7 31.8 36.1 19.9 28.4C18.2 27.3 16.6 26.2 14.9 25.3C12.7 24.2 10.3 24.9 9.09996 26.9C7.79996 28.9 8.19996 31.3 10.1 32.9C10.9 33.5 11.7 34 12.5 34.6C25.2 42.8 37.9 50.9 50.6 59.1C51.3 59.5 52 60 52.6 60.5C53.9 61.5 53.9 63 53.3 64.3C52.7 65.8 51.2 65.9 49.9 65.5C48.8 65.1 47.7 64.3 46.7 63.7C35.5 56.5 24.4 49.3 13.2 42.2C10.6 40.5 7.89996 41 6.39996 43.2C4.79996 45.6 5.49996 48.2 8.19996 49.9C19 56.7 29.7 63.6 40.4 70.4C41.7 71.2 43 71.9 44.1 72.8C45.6 74 45.8 76 44.8 77.4C43.9 78.7 42.6 78.8 40.7 77.7C38.7 76.5 36.7 75.4 34.8 74.1C27.1 69.1 19.5 64.1 11.8 59.2C9.09996 57.4 6.39996 57.9 4.89996 60.3C3.49996 62.6 4.09996 65.1 6.69996 66.9C9.99996 69.1 13.3 71.2 16.6 73.4C22.7 77.3 28.9 81.1 34.9 85C42.7 90 50.5 95.2 58.3 100.3C58.8 100.6 59.3 100.8 59.8 101.1C60.7 99.6 61.4 98.3 62.3 97C63.6 95 64.8 95 66 97C67.4 99.3 68.9 101.6 70 104.1C70.9 105.9 72.1 106.8 74.1 107.1C81.1 108.2 87.3 111 93.1 115C100.5 120 108 124.7 115.5 129.5C117.8 131 120 132.4 122.5 134C130.2 121.9 137.6 110.4 145 98.9ZM68.2 120.1C67.4 120.3 66.7 120.6 65.9 120.8C62.7 121.5 59 119 58.7 115.9C58.6 115.2 59.1 114.1 59.7 113.7C60.6 113.2 61.4 113.7 61.8 114.8C61.9 115 61.9 115.3 62.1 115.5C63.1 117.6 64.8 118 66.8 116.8C69 115.4 69.1 115.4 70.9 117.3C71.4 110.7 67.3 105.9 64.3 100.5C61.9 104.7 59.8 108.9 58 113.2C56.8 116.1 58.1 119 60.6 120.8C63 122.5 65.9 122.4 68.2 120.1Z" fill="#005BAB"/>
<path d="M78.3999 136.4C73.8999 136.3 70.2999 132.2 71.6999 127.9C72.9999 124 75.1999 120.3 77.0999 116.6C77.7999 115.3 79.2999 115.3 80.0999 116.8C81.9999 120.3 84.0999 123.8 85.3999 127.6C86.8999 132 83.1999 136.4 78.3999 136.4ZM81.8999 130.4C82.0999 129.9 82.3999 129.3 82.2999 128.8C81.4999 126 80.2999 123.4 78.2999 120.6C77.0999 123.2 75.8999 125.4 74.9999 127.6C74.0999 129.8 74.9999 131.8 77.0999 132.7C79.0999 133.6 80.8999 132.7 81.8999 130.4Z" fill="#005BAB"/>
<path d="M86.1999 81.4C83.0999 82.1 82.9999 82.3 83.5999 84.9C83.7999 85.9 84.2999 86.9 84.1999 87.8C84.0999 88.5 83.5 89.4 82.8 89.7C82.5 89.9 81.2999 89.1 81.0999 88.5C80.4999 87.2 80.3 85.7 80 84.1C78.6 84.5 77.3999 84.8 76.0999 85.1C76.3999 86.4 76.8 87.6 77 88.8C77.2 89.9 77.4 91 75.9 91.3C74.5 91.6 73.9999 90.6 73.6999 89.5C73.3999 88.3 73.0999 87.1 72.6999 85.6C71.4999 85.8 70.3999 86 69.1999 86.3C69.4999 87.1 69.7 87.7 69.8 88.4C70.2 89.6 70.4 90.8 68.9 91.2C67.6 91.6 66.9999 90.6 66.6999 89.5C66.3999 88.5 65.9999 87.5 65.6999 86.4C64.2999 86.3 63 86.4 61.7 86.2C60.9 86 59.8999 85.5 59.5999 84.9C59.3999 84.5 60.1 83.5 60.4 82.8C60.5 82.6 60.7 82.4 60.9 82.3C63.1 80.9 63.7 79.1 62.4 76.7C62.2 76.4 62 75.8 62.2 75.5C62.5 74.8 62.8 73.8 63.4 73.6C63.9 73.4 64.9 74 65.3 74.5C65.9 75.4 66.1999 76.5 66.6999 77.7C67.9999 77.1 69.2 76.5 70.4 75.9C69.8 73.3 69.0999 70.9 68.5999 68.4C68.2999 67.3 68.8 66.5 69.9 66.5C70.5 66.5 71.2999 67.1 71.6999 67.7C71.9999 68.1 71.9999 68.8 72.1999 69.3C72.6999 70.9 73.3 72.5 73.8 74.2C74.5 74 74.9 74 75.4 73.8C77.8 73 77.9 72.9 77.3 70.5C77 69.4 76.8999 68.2 76.5999 67.1C76.2999 65.9 76.2999 64.8 77.6999 64.5C79.1999 64.1 79.6 65.3 79.9 66.5C80.3 68.2 80.8 70 81.3 71.9C82.5 71.8 83.4999 71.6 84.5999 71.5C84.5999 70.1 84.4999 68.9 84.6999 67.7C84.7999 67 85.5 66.5 85.9 65.8C86.6 66.3 87.8 66.8 87.8 67.2C87.6 71.4 90.1999 71.5 93.1999 71.4C93.9999 71.4 95.1 71.9 95.4 72.5C96 73.6 95.3 74.5 94.4 75.2C92.9 76.4 91.3999 77.7 89.5999 79.1C89.6999 79.8 89.8 80.8 89.9 81.7C90 82.8 89.9 84 88.5 84.1C87.1 84.2 86.6999 83.3 86.6999 82C86.4999 82 86.2999 81.7 86.1999 81.4ZM74.0999 77.8C74.4999 79.3 74.7999 80.4 75.1999 81.9C76.5999 81.3 77.7 80.9 78.9 80.4C78.6 79.2 78.3999 78.2 78.0999 76.9C76.8999 77.1 75.6999 77.4 74.0999 77.8ZM71.8 82.1C71.5 81.1 71.3 80.3 71 79.3C69.9 80 68.8999 80.5 68.0999 81.2C67.8999 81.4 67.7 82 67.9 82.2C68 82.5 68.5 82.8 68.8 82.8C69.7 82.7 70.7 82.4 71.8 82.1ZM85.0999 75.3C83.8999 75.4 82.8999 75.6 81.5999 75.7C81.8999 77 82.1 77.9 82.4 79.1C84 78.1 86.1999 78.1 85.0999 75.3Z" fill="#005BAB"/>
<path d="M82 130.4C81 131.5 79.8 132.3 78.1 132C76.6 131.7 75.6 130.8 75.5 129.2C75.5 128.7 75.8 127.8 76.2 127.6C76.6 127.3 77.4 127.6 78 127.7C78.6 127.8 79.1 128.4 79.6 128.3C81.4 127.9 81.9 128.9 82 130.4Z" fill="#005BAB"/>
</svg>
