<svg width="150" height="150" viewBox="0 0 150 150" fill="none" xmlns="http://www.w3.org/2000/svg">
<path d="M59.3 85.8C59.3 94.4 66.2 101.5 75 101.5C83.8 101.5 90.7 94.6 90.7 85.8C90.7 77.2 83.8 70.1 75 70.1C66.2 70.1 59.3 77.2 59.3 85.8ZM85.7 85.8C85.7 91.7 80.9 96.5 75 96.5C69.1 96.5 64.3001 91.7 64.3001 85.8C64.3001 79.9 69.1 75.1 75 75.1C80.9 75.1 85.7 80.1 85.7 85.8Z" fill="#005BAB"/>
<path d="M148.7 84.5C144.1 78.1 139.2 72.3 134 67.3C138.8 60 136.8 50.2 129.6 45.3C122.4 40.4 112.8 42.2 107.7 49.1C97.3 44.3 86.3 41.9 75.1 41.9C47.1 41.8 20.9 57 1.30002 84.5C0.600024 85.3 0.600024 86.5 1.30002 87.3C4.30002 91.4 7.40002 95.4 10.7 99L11.2 99.5C29.3 119.3 51.6 130 75.2 130C103.1 130 129.3 114.8 148.9 87.3C149.3 86.5 149.3 85.3 148.7 84.5ZM75 46.8C96.8 46.8 117.5 56.9 134.7 75.2C116.9 65.2 95.9 60.4 75 60.4C54.1 60.4 33.1 65.3 15.3 75.1C32.5 56.8 53.2 46.8 75 46.8ZM100.9 85.8C100.9 100.1 89.2 111.7 75 111.7C60.8 111.7 49.1 100.2 49.1 85.8C49.1 78.4 52.4 71.3 58 66.3C69.2 64.8 80.7 64.8 92 66.3C97.6 71.3 100.9 78.4 100.9 85.8ZM75 125.1C53.8 125.1 33.5 115.6 16.7 98.1C16.7 98.1 16.7 98.1 16.6 98.1C15.3 97.1 14.5 95.5 13.2 94.4H13.1C11 91.9 8.80002 89.3 6.70002 86.5C19.3 77.3 34.3 71 50.1 67.9C46.3 73.2 44.2 79.4 44.2 86C44.2 91.1 45.5 95.9 47.7 100.2C47.7 100.3 47.8 100.4 47.8 100.5C47.9 100.8 48.2 101.3 48.3 101.6C48.5 102 48.9 102.3 49.2 102.7C49.6 103.3 50.2 103.8 50.6 104.3H50.7C56.1 111.7 65 116.7 75.1 116.7C89.1 116.7 100.7 107.5 104.6 94.7C104.6 94.6 104.6 94.5 104.6 94.4C104.8 93.7 105.2 93.1 105.4 92.3C105.6 91.5 105.7 90.7 105.7 90C105.7 89.9 105.7 89.9 105.7 89.8C105.9 88.5 106 87.2 106 85.8C106 79.2 103.9 72.9 100.1 67.7C115.9 70.8 130.9 77.1 143.5 86.3C124.8 111.4 100.5 125.1 75 125.1Z" fill="#005BAB"/>
<path d="M120.7 32.5C121.7 34.1 122.6 35.6 123.6 37.1C123.8 37.4 124 37.6 124.1 37.9C124.3 38.7 124.1 39.4 123.4 39.8C122.7 40.2 121.9 40.1 121.5 39.4C120.1 37.2 118.7 35 117.4 32.8C117.2 32.4 117.4 31.5 117.8 31.1C118.3 30.4 119 29.8 119.7 29.1C118.5 27 117.3 25 116.1 23C115.2 21.6 115.2 20.7 116.1 20.2C117 19.6 117.9 20.1 118.7 21.5C120 23.8 121.4 26 122.8 28.3C123.5 29.4 123.4 29.9 122.5 30.9C122.2 31.2 121.9 31.4 121.6 31.7C121.3 31.9 121 32.2 120.7 32.5Z" fill="#005BAB"/>
<path d="M138.2 33.2C138.5 30.8 138.8 28.4 139.2 26C139.4 24.7 140 24 140.9 24.1C141.9 24.2 142.4 25.1 142.2 26.4C141.9 29.1 141.5 31.7 141.1 34.4C140.9 35.7 140.4 36.2 139.1 36.3C136.8 36.5 136.8 36.5 136.5 38.8C136.4 39.9 136.2 41.1 136.1 42.2C135.9 43.3 135.2 44 134.3 43.8C133.4 43.7 132.9 42.9 133.1 41.7C133.4 39.5 133.6 37.4 133.9 35.2C134.1 33.9 134.5 33.5 135.9 33.4C136.6 33.3 137.3 33.3 137.9 33.2C138 33.4 138 33.3 138.2 33.2Z" fill="#005BAB"/>
<path d="M129.6 35.3C130 36.2 130.3 37 130.7 37.9C131.1 38.7 130.9 39.4 130.1 39.8C129.4 40.2 128.5 40 128.1 39.2C127.4 37.9 126.8 36.6 126.3 35.3C126 34.6 126.3 34 126.9 33.5C127.6 33 128.3 32.4 129.2 31.8C128.7 30.6 128.2 29.4 127.6 28.2C127.1 27.1 127.3 26.3 128.1 25.9C129 25.5 129.8 25.9 130.3 27C131 28.5 131.6 30 132.3 31.5C132.7 32.4 132.5 33.1 131.7 33.7C131 34.2 130.3 34.8 129.6 35.3Z" fill="#005BAB"/>
</svg>
