<?xml version="1.0" encoding="utf-8"?>
<!-- Generator: Adobe Illustrator 24.3.0, SVG Export Plug-In . SVG Version: 6.00 Build 0)  -->
<svg version="1.1" id="Layer_1" xmlns="http://www.w3.org/2000/svg" xmlns:xlink="http://www.w3.org/1999/xlink" x="0px" y="0px"
	 viewBox="0 0 150 150" style="enable-background:new 0 0 150 150;" xml:space="preserve">
<style type="text/css">
	.st0{fill:#CDEEFD;}
	.st1{fill:#111224;}
	.st2{fill:#005BAB;}
</style>
<path class="st0" d="M1465.3,1556.3c-2.4-0.2-4.3-1.3-4.4-4.1c-0.1-6.7,1.6-10,4.9-9.9c0.2,0,0.3,0,0.5,0c2.2,0.5,4.3,2.1,3.2,4
	C1467.7,1549.5,1473.1,1555.7,1465.3,1556.3z M1465.5,1554.4c1.3-0.1,2.3-0.6,2.3-2.1c-0.1-1.7-1.5-2.1-2.8-2.4c-1.6-0.4-2,0.8-2,2
	C1463,1553.5,1464,1554.2,1465.5,1554.4z M1467.8,1546.5c0-1.4-0.6-2.2-2.1-2.2c-0.9,0-1.6,0.4-1.7,1.4c-0.2,1.4,0.9,2.1,2,2.5
	C1467.3,1548.5,1467.6,1547.5,1467.8,1546.5z"/>
<path class="st0" d="M1455.8,1556.6c-0.5-2.9-1.8-4.2-4.6-3.6c-0.7,0.2-1.7,0.3-2.1-0.8c-0.4-1.1,0.1-1.5,1.2-2.1
	c2.1-1.2,2.1-3.9,3.2-5.8c0.6-1,1-2.2,2.5-1.9c1.4,0.3,0.9,1.6,0.8,2.5C1456.4,1548.6,1458.4,1552.5,1455.8,1556.6z"/>
<path class="st1" d="M1465.5,1554.4c-1.5-0.1-2.6-0.8-2.5-2.4c0-1.2,0.4-2.4,2-2c1.2,0.3,2.7,0.7,2.8,2.4
	C1467.8,1553.7,1466.8,1554.2,1465.5,1554.4z"/>
<path class="st1" d="M1467.8,1546.5c-0.2,1-0.5,2.1-1.8,1.7c-1.1-0.4-2.1-1-2-2.5c0.1-1,0.8-1.4,1.7-1.4
	C1467.2,1544.3,1467.8,1545,1467.8,1546.5z"/>
<polygon class="st2" points="1346.8,29.4 1346.9,29.6 1346.6,29.6 "/>
<g>
	<path class="st2" d="M30.2,85.5c-0.5,0-0.8,0-1.1,0c-3.2,0-6.4,0-9.6,0c-5-0.1-9.4-3.8-10.4-8.6C8,71,11.5,65.4,17.5,64
		c1-0.2,2.1-0.4,3.2-0.4c5.5,0,11,0,16.5,0c0.5,0,0.9-0.1,1.1-0.6c3.9-7.7,7.9-15.4,11.8-23.1c0.1-0.2,0.1-0.3,0.2-0.6
		c-7.1,2-13.4,0.8-19-3.9c-4.1-3.5-6.3-8.1-6.7-13.5c-0.7-11,7.4-20.1,17.8-20.9c6.5-0.5,12,1.6,16.3,6.5c4.3,4.8,5.7,10.6,4.7,16.9
		c1.3,0.1,2.5,0.1,3.7,0.3c1,0.2,2,0.5,2.8,1.1c5.6,3.9,11.3,7.6,16.2,12.4c8.4,8.1,13.5,18,15.5,29.5c0.8,4.8,1.8,9.6,2.7,14.5
		c0.6,3.4,0.9,6.9,0.5,10.3c-0.1,1.2-0.8,2.4-1.3,3.6c-0.1,0.3-0.3,0.5-0.4,0.8c0.2,0,0.3,0.1,0.5,0.1c1.9,0,3.8,0,5.8,0
		c0.5,0,0.7-0.1,0.7-0.7c0-0.2,0-0.4,0-0.6c0-14.4,0-28.8,0-43.2c0-4.5,3-7.5,7.5-7.5c6.2,0,12.4,0,18.7,0c4.4,0,7.5,3,7.5,7.5
		c0,21.4,0,42.9,0,64.3c0,6.7-4.1,12.6-10.3,14.9c-0.6,0.2-1.2,0.4-1.8,0.5c-0.7,0.1-0.8,0.4-0.8,1c0,4.2,0,8.3,0,12.5
		c0,2.3-1.3,3.6-3.6,3.6c-19.8,0-39.7,0-59.5,0c-2.6,0-4.3-2.4-3.2-4.9c1.7-3.9,3.4-7.8,5-11.7c0.1-0.3,0.2-0.5,0.3-0.8
		c-0.3-0.1-0.6-0.2-0.8-0.3c-8.1-2.8-13.6-10.3-13.7-18.9c0-3.2,0-6.4,0-9.6c0-0.7-0.2-0.9-0.9-0.9c-2,0-3.9,0-6.1,0
		c0.2,1.3,0.4,2.5,0.6,3.7c1.8,9.9,3.7,19.9,5.5,29.8c1,5.6-1.7,10.9-6.7,12.8c-6.6,2.5-13.6-1.5-14.9-8.4c-2.5-13.5-5-27-7.4-40.5
		c-0.8-4.8,0.6-9.1,3.7-12.9C29.5,86.3,29.8,86,30.2,85.5z M42.1,96.8c0.5,0,0.9,0,1.3,0c16.4,0,32.8,0,49.2,0
		c2.1,0,3.8-0.7,5.3-2.1c1-0.9,1.8-1.9,1.8-3.3c-0.1-2.9-0.2-5.9-0.6-8.8c-0.7-4.7-1.8-9.4-2.6-14.1C94.7,58,90.1,48.7,82,41.5
		c-4.4-3.9-9.3-7.2-14-10.8c-0.5-0.4-1-0.6-1.6-0.8c-2.8-0.9-5.7,0.4-7.2,3.3c-5.9,11.6-11.9,23.2-17.8,34.8
		c-0.3,0.7-0.7,0.9-1.5,0.9c-6.6,0-13.2,0-19.8,0c-3,0-5.6,2.1-6.1,4.7c-0.6,3.6,2.1,6.7,5.8,6.7c7.3,0,14.6,0,22,0
		c4.4,0,7.5-2.1,9.4-6c3.3-7,6.5-14,9.8-21c0.8-1.8,2.2-2.6,3.8-2.3c1.6,0.3,2.6,1.6,2.6,3.6c0.1,1.7,0.2,3.4,0.2,5.2
		c0.4,7.5,0.8,15,1.1,22.4c0.1,2.2-1.2,3.6-3.5,3.6C59.2,85.9,53,85.9,46.8,86c-2.5,0-5-0.1-7.4,0.4c-5.9,1.1-9.8,6.8-8.7,12.7
		c1.2,6.9,2.5,13.8,3.8,20.7c1.2,6.6,2.4,13.2,3.7,19.7c0.5,2.6,2.8,4.4,5.5,4.5c2.8,0.1,5-1.6,5.7-4.2c0.4-1.5,0.1-2.9-0.2-4.4
		c-1.8-10-3.7-20-5.5-30.1C43.1,102.5,42.6,99.8,42.1,96.8z M60.5,102.1c0,0.3-0.1,0.5-0.1,0.7c0,3.2,0,6.4,0,9.6
		c0.1,8.2,6.8,14.9,15,14.9c17.3,0,34.7,0,52,0c0.7,0,1.4,0,2-0.1c5.2-0.9,8.9-5.2,8.9-10.4c0.1-4.7,0-9.3,0-14c0-0.2,0-0.4-0.1-0.7
		C112.4,102.1,86.5,102.1,60.5,102.1z M115.1,74.1c0,7.2,0,14.5,0,21.7c0,0.8,0.2,1.1,1,1.1c7,0,14.1,0,21.1,0c1.2,0,1.2,0,1.2-1.2
		c0-14.4,0-28.7,0-43.1c0-1.9-0.7-2.6-2.5-2.6c-6.1,0-12.2,0-18.2,0c-1.9,0-2.6,0.7-2.6,2.5C115.1,59.8,115.1,67,115.1,74.1z
		 M29.7,20.6c0,7.9,6.4,14.4,14.3,14.5c7.9,0,14.4-6.5,14.4-14.4c0-8.1-6.4-14.6-14.4-14.6C36.2,6.1,29.8,12.5,29.7,20.6z
		 M70.2,143.9c18.5,0,36.9,0,55.3,0c0-3.8,0-7.5,0-11.4c-0.4,0-0.8,0-1.2,0c-10.5,0-20.9,0-31.4,0c-5.6,0-11.2,0-16.9,0
		c-0.7,0-1.1,0.2-1.4,0.9c-0.4,1-0.8,1.9-1.2,2.9C72.4,138.8,71.3,141.3,70.2,143.9z M62.8,62.4c-0.1,0-0.1,0-0.2,0
		c-0.1,0.2-0.2,0.4-0.3,0.6c-0.8,1.7-1.5,3.3-2.3,5c-2.1,4.2-3.5,8.8-6.5,12.6c0,0,0,0,0,0.1c0.2,0,0.5,0,0.8,0
		c2.9,0,5.7-0.1,8.6-0.1c0.8,0,0.9-0.3,0.9-1c-0.3-5.4-0.6-10.9-0.8-16.3C62.9,63,62.8,62.7,62.8,62.4z"/>
	<path class="st2" d="M12.4,29.1c3,2.8,5.9,5.5,9,8.4c0.7-1.8,1.4-3.5,2.1-5.4c4.5,6.6,9,13.1,13.5,19.7c0,0-0.1,0-0.1,0.1
		c-4.6-3.7-9.3-7.4-14-11.2c-0.7,1.9-1.4,3.6-2.2,5.5c-2.9-5.8-5.7-11.4-8.5-17C12.3,29.2,12.3,29.2,12.4,29.1z"/>
	<path class="st2" d="M18.1,48.3c6.1,3.4,12.1,6.6,18,9.9c0,0,0,0.1-0.1,0.1c-4.4-0.9-8.8-1.8-13.5-2.8c0,1.8,0,3.4,0,5.3
		c-5.5-2.4-10.9-4.7-16.2-6.9c0-0.1,0-0.1,0-0.2c4.1,0,8.2,0,12.4,0C18.5,51.8,18.3,50.2,18.1,48.3z"/>
</g>
</svg>
