<?xml version="1.0" encoding="utf-8"?>
<!-- Generator: Adobe Illustrator 24.3.0, SVG Export Plug-In . SVG Version: 6.00 Build 0)  -->
<svg version="1.1" id="Layer_1" xmlns="http://www.w3.org/2000/svg" xmlns:xlink="http://www.w3.org/1999/xlink" x="0px" y="0px"
	 viewBox="0 0 150 150" style="enable-background:new 0 0 150 150;" xml:space="preserve">
<style type="text/css">
	.st0{fill:#005BAB;}
	.st1{fill:#5F6368;}
</style>
<g>
	<path class="st0" d="M76.8,66.8c0.1,0,0.1-0.1,0.2-0.1c0.2-0.1,0.2,0.1,0.2,0.2c0,0,0,0,0,0.1c0.5,0.8,0.9,1.3,1.2,1.8
		c3.6,4.7,11.1,4.7,14.1-0.1c0.9-1.1,1.5-2.3,1.5-3.7c0.4-1.6,0.3-3.1-0.3-4.6c0-1.1-0.2-2.1-0.7-3c0.1-0.7-0.1-1.4-0.4-2
		c0-0.9-0.2-1.7-0.5-2.5c-0.8-3.7-1.5-7.3-2.4-11c-1.4-6.2-6.9-9.5-12.8-8.4c-5.5,1-10.9,2.3-16.3,3.5c-0.4,0.1-0.8,0.2-1.1-0.1
		c-1.3-1.1-2.8-1.7-4.4-2.3c0.3-0.3,0.5-0.4,0.6-0.6c9.2-8.5,7.8-23.3-2.8-29.9c-3.6-2.2-7.4-3.2-11.7-2.6c-0.3,0-0.6,0.1-1,0.1
		c-0.2,0-0.5,0.1-0.7,0.1c-0.2,0-0.3,0.1-0.5,0.1c-1.7,0.2-3.2,0.8-4.6,1.6c-6,3.2-9.4,8.1-10.1,14.8c-1.2,7.5,3.8,16.1,11.2,19.1
		c2.3,0.9,4.7,1.4,7.1,1.5c0.1,0.4-0.1,0.5-0.3,0.7c-2.8,3.4-4.1,7.4-4,11.8c0,0.5-0.2,1-0.4,1.5c-0.7,1.6-1.3,3.3-2,4.9
		c-1.1,2.6-1.1,2.6-3.8,1.5c-2.8-1.1-5.6-2.4-8.5-3.3c-0.2-0.3-0.5-0.4-0.8-0.3c-0.4-0.3-0.9-0.4-1.4-0.5c-0.7-0.4-1.5-0.4-2.2-0.3
		c-5.5,0-9.7,4.9-8.7,10.1c0,1.1,0.4,2,1,2.9c1,1.9,2.6,3.2,4.6,4.1c4.7,1.9,9.3,3.8,14,5.6c1.6,0.6,3.2,1.5,4.9,1.9
		c0.7,0.4,1.4,0.6,2.2,0.5c1.7,0.5,3.4,0.2,4.9-0.3c0.8-0.3,0.9,0,1,0.7c0.2,1.9,0.5,3.8,0.8,5.7c0,1.2,0.1,2.5,0.1,3.7
		c0,15.6,0,31.2,0,46.7c0,0.8,0,1.7,0.1,2.5c0.7,7.6,8.5,11.9,15.2,8.4c0.6-0.3,1-0.3,1.6,0c7.3,3.7,15.3-1.3,15.4-9.4
		c0-15.5,0-31,0-46.5c0-1.8,0-3.4,1.5-4.7c0.1-0.1,0.2-0.4,0.3-0.5c-0.1-0.2-0.1-0.3-0.2-0.5c-0.1,0-0.2,0-0.2,0c0.1,0,0.2,0,0.2,0
		c0.1,0.2,0.1,0.3,0.2,0.5c0.1-0.2,0.3-0.5,0.4-0.7c0.1,0,0.1-0.1,0.1-0.2c0.8-1.2,0.9-2.6,0.8-4c-0.3-3.7-1-7.4-1.8-11.1
		c-0.2-1-0.6-2-0.8-3.4c0,0,0,0,0,0C76.9,66.9,76.8,66.9,76.8,66.8z M33.1,31.6c-5-4.3-6.4-9.9-4.6-16.2c0.1-0.3,0.2-0.5,0.2-0.8
		c1.7-3.9,4.5-6.7,8.2-8.6c0.2-0.3,0.4-0.5,0.7-0.8c-0.3,0.2-0.5,0.5-0.7,0.8c3.4-1.3,6.9-1.6,10.4-0.6c6.3,1.8,11,7.9,11,14.3
		c-0.1,6.5-2.9,11.5-8.9,14.2C43.7,36.6,38,35.8,33.1,31.6z M41.9,76.1c-1.1,0.5-2.3,0.6-3.5,0.7c-2.2-0.4-4.2-1.6-6.3-2.2
		c-4.7-1.9-9.3-3.9-14-5.7c-1.4-0.6-2.6-1.3-3.4-2.6c-0.2-0.4-0.3-0.7-0.5-1.1c-0.7-0.5-1.2-0.8-1.6-0.9c0.4,0.1,0.9,0.4,1.6,0.9
		c-0.5-3.7,0.9-6,4.4-6.8c1.1-0.2,2.2,0,3.2,0.4c4.7,1.9,9.5,3.8,14.2,5.7c0.8,0.3,1.1,0.3,1.5-0.6c0.6-1.8,1.4-3.5,2.2-5.5
		c1,4.4,1.7,8.5,2.3,12.7c0.2,1.3,0.3,2.6,0.6,3.8C42.8,75.6,42.5,75.9,41.9,76.1z M76.3,65.3c-1.4-4.2-3-8.1-4.9-11.8
		c-0.2-0.5-0.1-0.7,0.3-0.8c0.1,0,0.2,0,0.2,0c2.1-0.4,1.8-0.7,2.2,1.4c0.7,3.2,1.4,6.5,2.1,9.7C76.4,64.2,76.6,64.6,76.3,65.3z
		 M75.8,48.3c-3.8,0.9-7.7,1.6-11.5,2.6c-0.6,0.1-1.1,0.2-1.7,0.3c-2.4,0.5-2.4,0.5-1.7,2.9c0,0.2,0.1,0.3,0.1,0.5
		c0,0.3,0,0.5,0.4,0.3c1.8-0.4,3.6-0.7,5.3-1.1c0.6-0.1,0.9,0,1.2,0.5c4.5,8.5,7.2,17.5,8.2,27c0.2,2.3-1.1,3.8-2.5,5.4
		c-0.1,0-0.1,0-0.1,0.1c-0.5,0.2-0.4,0.6-0.3,1c-0.1,0.1-0.1,0.1,0,0.2c0,0.1,0,0.2,0,0.2c0,2.9-0.1,5.9-0.1,8.8
		c0,5.6,0,11.2,0.1,16.8c-0.1,0.7-0.1,1.3,0,2c-0.1,0.2-0.1,0.5,0,0.7c0,0.3,0,0.6,0,0.9v0c0,0.1,0,0.2,0,0.3l0,0
		c0,5.3-0.1,10.6-0.1,15.9c0,1.7,0,3.3,0,5c0.1,0.1,0.2,0.1,0.2,0.2c0,0-0.1-0.1-0.2-0.2c0,0.2,0,0.4-0.1,0.5v0
		c-1,3.8-3.3,5.9-6.7,6.1c-0.5,0-1.1,0-1.6-0.1c-2.4-0.5-2.7-0.9-2.7-3.2c0-15.8,0-31.5,0-47.3c0-0.3,0.3-0.8-0.3-1
		c-0.6,0-1.3,0-1.9,0c-0.5,0.1-1.4-0.5-1.2,0.7c0,5.7,0,11.4,0,17.1c0,5.4,0,10.9,0,16.3c0,5-0.1,10.1,0,15.1c0,0.9-0.3,1.4-1.1,1.7
		c-4.3,2-9.5-1.1-9.8-5.9c0-0.6,0-1.2,0-1.8c0-15.7,0-31.5,0-47.2c0.1-3.6-0.6-7.1-1.1-10.7c-1.1-8.8-2.8-17.4-4.5-26.1
		C41,47.2,44.3,41,49.4,38.6c2.7-1.3,5.1-1,7.5,0.7c0.2,0.2,0.5,0.3,0.6,0.6c0.1,1.3,0.8,1.1,1.7,0.9c6.1-1.4,12.2-2.7,18.3-4
		c4.1-0.9,7.9,1.5,8.8,5.6c0.8,3.5,1.5,6.9,2.3,10.4c0.2,0.8,0.2,1.6,0.6,2.4c0,0.7,0.1,1.3,0.4,2c0.1,0.7,0.2,1.3,0.5,2
		c-0.2,0.9,0.4,1.8,0.5,2.6c0.3,1.1,0.2,2.3-0.1,3.4c-0.3,0.6-0.7,1.1-1,1.7c-0.7,0.9-1.7,1.3-2.6,1.9c0,0.1,0.1,0.2,0.2,0.3
		c-0.1-0.1-0.1-0.2-0.2-0.3c-4.3,0.2-6.2-1.3-7.1-5.5c-1-4.7-2.1-9.4-3.1-14.2C76.6,48.5,76.5,48.1,75.8,48.3z"/>
	<path class="st0" d="M77,66.8c0,0.1,0,0.1,0,0.2c0,0,0,0,0.1-0.1C77.1,66.9,77,66.8,77,66.8z"/>
	<path class="st0" d="M116.6,94.7c-0.5-1.9-1.7-3.1-3.5-3.7c-2.6-0.9-4.7,0.1-6.5,2c-1.7,1.8-3.5,3.5-5.3,5.3
		c-0.6,0.6-0.9,0.5-1.4-0.1c-1.4-1.7-2.9-3.4-4.4-5.1c-0.1-0.1-0.2-0.2-0.3-0.3c-0.1-0.1-0.1-0.1-0.2-0.2c-0.1-0.3-0.2-0.4-0.5-0.6
		c-0.1-0.2-0.2-0.4-0.5-0.4c-0.6-1.3-1.6-2.2-2.5-3.2c-0.8-0.9-1.8-1.2-2.9-0.7c-1.1,0.5-1.7,1.5-1.4,2.8c0.7,2.8,1.5,5.6,2.2,8.4
		c1.3,5.1,2.5,10.1,3.9,15.2c0.8,2.8,3.7,4.2,6.5,3.5c2.1-0.5,3.3-2.2,4.7-3.6c1.4-1.4,2.9-2.8,4.3-4.2c0.4-0.4,0.6-0.3,0.8,0.1
		c0.7,0.9,1.5,1.8,2.3,2.6c2.1,2.5,4.1,5,6.3,7.5c0.8,1,2,1.2,3.1,0.6c1.1-0.6,1.5-1.5,1.2-2.9C120.6,110.1,118.6,102.4,116.6,94.7z
		 M91.6,93.3c0,0-0.1,0-0.1-0.1C91.5,93.2,91.6,93.2,91.6,93.3C91.6,93.3,91.6,93.3,91.6,93.3z M92,90.5c0,0,0.1,0,0.1,0.1
		C92.1,90.5,92.1,90.5,92,90.5C92,90.5,92,90.5,92,90.5z M114.3,110c-1.4-1.7-2.9-3.5-4.3-5.2c-0.4-0.5-0.7-0.3-1,0
		c-1.9,1.9-3.8,3.8-5.7,5.8c-0.5,0.3-0.9,0.8-1.3,1.3l0,0c0,0,0,0,0,0c-0.3,0.2-0.6,0.4-0.7,0.7c0,0-0.1,0.1-0.1,0.1v0
		c-0.3,0.3-0.7,0.5-0.8,0.9c0,0,0,0,0,0c-2.2,1.2-3.3,0.7-3.9-1.7c-1-3.7-1.9-7.5-2.9-11.2c-0.1-0.4-0.3-0.7-0.4-1.1
		c-0.1-1.5-0.6-2.8-1-4.2c0,0,0,0,0,0c0,0,0-0.1,0-0.1c-0.1-0.3-0.2-0.7,0.4-0.4c0.3,0.2,0.5,0.5,0.7,0.7c0.1-0.2,0.2-0.4,0.3-0.5
		c-0.1,0.2-0.2,0.3-0.3,0.5c2.2,2.6,4.4,5.2,6.6,7.9c0.5,0.6,0.8,0.5,1.3,0c2.8-2.8,5.6-5.6,8.4-8.4c1.7-1.7,3.3-1.3,3.9,1
		c1.5,5.8,3,11.6,4.5,17.3c0,0.1,0,0.2,0,0.6C116.6,112.6,115.4,111.3,114.3,110z"/>
	<path class="st0" d="M115.9,56.8c-1.8-0.7-3.5-0.5-5.1,0.6c-2.3,1.6-2.8,3.8-2.3,6.4c0.4,2.5,0.7,5,1.1,7.4c0.1,0.8-0.1,1-0.9,1.1
		c-2.3,0.1-4.5,0.3-6.8,0.4c-0.1,0-0.3,0-0.4,0c-0.1,0-0.2,0-0.2,0c-0.2-0.1-0.5-0.1-0.7,0c-0.2-0.1-0.4,0-0.6,0.1
		c-1.4-0.3-2.7,0-4.1,0.1c-1.2,0-2,0.7-2.3,1.9c-0.3,1.1,0.2,2.3,1.4,2.8c2.6,1.2,5.3,2.2,8,3.3c4.8,2,9.6,4.2,14.4,6.1
		c2.7,1.1,5.6-0.4,6.8-3.1c0.9-2,0.3-3.9-0.1-5.9c-0.2-2-0.5-3.9-0.7-5.9c-0.1-0.5,0.1-0.6,0.6-0.6c1.2-0.1,2.3-0.2,3.5-0.2
		c3.3-0.1,6.5-0.3,9.8-0.4c1.3-0.1,2.1-0.9,2.3-2.1c0.2-1.2-0.3-2.2-1.5-2.7C130.5,63,123.2,59.9,115.9,56.8z M99.6,75.9
		c0,0-0.1,0-0.1,0C99.5,75.9,99.6,75.9,99.6,75.9C99.6,75.9,99.6,75.9,99.6,75.9z M97.7,73.9c0,0,0.1,0,0.1,0
		C97.7,73.9,97.7,73.9,97.7,73.9C97.7,73.9,97.7,73.9,97.7,73.9z M126.6,68c-2.3,0.1-4.5,0.2-6.8,0.2c-0.7,0-0.6,0.3-0.6,0.8
		c0.4,2.7,0.8,5.3,1.1,8c0,0.6,0.1,1.2,0.3,1.8l0,0c0,0,0,0,0,0c0,0.4,0,0.7,0.1,1c0,0,0,0.1,0,0.1l0,0c0,0.4,0,0.8,0.3,1.2
		c0,0,0,0,0,0c-0.3,2.5-1.4,3.1-3.7,2.1c-3.5-1.5-7.1-3-10.6-4.5c-0.4-0.2-0.8-0.2-1.1-0.4c-1.2-0.8-2.6-1.2-4-1.8c0,0,0,0,0,0
		c0,0-0.1,0-0.1,0c-0.3-0.1-0.7-0.3-0.1-0.5c0.3-0.1,0.7-0.1,1-0.1c-0.1-0.2-0.2-0.4-0.2-0.6c0.1,0.2,0.1,0.4,0.2,0.6
		c3.4-0.2,6.8-0.3,10.3-0.5c0.8,0,0.9-0.3,0.8-1c-0.6-3.9-1.1-7.8-1.6-11.8c-0.3-2.4,1-3.4,3.2-2.5c5.5,2.3,11,4.6,16.5,6.9
		c0.1,0,0.2,0.1,0.5,0.3C130.1,67.7,128.4,67.8,126.6,68z"/>
</g>
<g>
	<path class="st0" d="M499.9,82.2c-0.8-0.5-1.3-1.2-1.3-2.2c0.2-13.6,2.5-26.7,7.7-39.4c2.4-5.8,6.7-9.3,12.1-11.6
		c6.4-2.7,12.9-5.1,19.4-7.6c0.9-0.3,1.2-0.7,1.3-1.7c0.3-3.2-0.3-5.8-3.1-8.1c-3.3-2.8-4.3-7-5.2-11.1c-0.1-0.5-0.2-1-0.4-1.5
		c-5.6-0.3-9.5-2.8-10.6-8.3c-1.1-5.3,1.2-9.2,5.9-11.7c-2.4-5.8-0.7-11.1,2-16.2c7.8-15,24.5-16.1,34.1-11.2
		c2.8,1.4,5.5,2.9,8.7,3.4c2.8,0.5,5,2.3,6.7,4.6c3.6,4.9,5.1,10.4,4.3,16.4c-0.1,0.9-0.4,1.8-0.7,2.8c5.2,3.3,7.2,6.9,6.4,11.6
		c-0.9,4.9-4,7.4-10.8,8.6c-0.4,1.7-0.9,3.5-1.4,5.4c1.9,1.1,3.8,2.3,5.7,3.5c0.8,0.5,1.4,1.2,1,2.1c-0.2,0.6-0.9,1.2-1.5,1.5
		c-0.4,0.2-1.1-0.1-1.6-0.3c-1.7-1-3.4-2-4.9-2.9c-1.9,2-3.8,3.9-5.6,5.9c-0.2,0.3-0.3,0.8-0.4,1.2c0,1.5,0,2.9,0,4.4
		c-0.1,0.9,0.3,1.2,1.1,1.5c6.3,2.4,12.6,4.8,18.9,7.3c1.3,0.5,2.5,1.4,3.8,2c5.6,2.7,8.2,7.6,10.3,13.1c3.2,8.7,5.2,17.6,6,26.8
		c0.3,3,0.3,6,0.5,8.9c0.1,1.2-0.3,2.1-1.3,2.7C571.3,82.2,535.6,82.2,499.9,82.2z M543,17c0,2.1,0,3.9,0,5.8
		c0.1,5.1,4.2,9.5,9.1,10c5.4,0.5,10.3-2.7,11.4-7.9c0.5-2.5,0.3-5.1,0.5-8c-0.8,0.4-1.3,0.6-1.8,0.8c-0.5,0.2-1,0.4-1.6,0.6
		c-1,0.4-1.9,0.3-2.5-0.7c-0.8-1.1-0.2-2.3,1.2-3c2.2-1.1,4.3-2.2,6.3-3.5c2-1.4,3.6-3.3,4.6-5.3c-1.3-1.3-2.4-2.5-3.5-3.7
		c-1-1.1-1-2.2-0.1-3c0.9-0.8,2-0.7,3,0.4c0.7,0.7,1.3,1.4,2.1,2.3c1.7-6.6,2.5-12.8,3.1-19.1c-3.7-0.9-5-1.4-7.3-3.3
		c-2-1.7-3.8-3.6-5.5-5.5c-0.8-0.9-1.3-1-2.2-0.2c-1.1,0.9-2.2,1.6-3.4,2.3c-7.4,4.5-15,8.3-24.1,7.1c0,0.2-0.1,0.3,0,0.5
		c1,5.9,1.8,11.8,2.9,17.7c0.8,4.4,3.1,8.1,7,10.5c1.7,1.1,3.5,2,5.4,2.8c1.4,0.7,2,1.6,1.5,2.8c-0.5,1.1-1.6,1.4-3,0.8
		C545.1,17.9,544.1,17.5,543,17z M551.9-47c-8.6,0-14.1,2.5-18.5,8.3c-2.9,3.7-4.8,7.8-4.8,12.6c0,3.1,1.1,4.4,4.1,5.1
		c4.2,1,8.2,0,12.2-1.5c4.8-1.8,9.1-4.5,13.3-7.5c2.2-1.6,4.6-1.3,6.4,0.8c0.6,0.6,1.1,1.2,1.6,1.9c2,2.1,4,4.2,6.7,5.4
		c2.7,1.2,4.3,0.5,4.8-2.4c0.7-4.1-0.3-7.9-2.1-11.5c-2.1-4-5.3-6.1-9.8-6c-0.6,0-1.3-0.2-1.8-0.6C560.3-45.7,555.9-46.9,551.9-47z
		 M601.3,78.3c0-0.1,0.1-0.2,0.1-0.3c-0.4-0.3-0.7-0.6-1.1-1c-7.4-7.3-14.7-14.7-22.1-22c-3.7-3.6-6.1-7.9-7.2-13
		c-0.4-2-1.1-4-1.8-5.9c-0.2-0.4-0.9-1-1.3-0.9c-0.4,0.1-1,0.7-1.1,1.2c-0.2,1-0.1,2,0,3c0.1,1.1,0.5,2.2-0.6,3
		c-1.1,0.8-2,0.2-3-0.4c-0.3-0.2-0.5-0.3-0.8-0.5c-3.7-2.1-7.4-4-11.6-4.8c-2.4-0.4-3.7,0.3-4.5,2.6c-1.2,3.3-1,6.7,0.6,9.8
		c0.6,1.1,1.7,2.3,2.9,2.8c3.1,1.4,14.9,5.7,16.8,8.1c4.5,5.8,9.2,11.6,13.7,17.5c0.5,0.6,1,0.9,1.8,0.9c6,0,12,0,18.1,0
		C600.6,78.3,601,78.3,601.3,78.3z M603.1,64.7c0-0.3,0.1-0.5,0-0.7c-1.3-8-3.3-15.7-6.7-23.1c-1.3-2.7-3.1-4.7-5.7-6.2
		c-4.9-2.9-10.2-5-15.5-7c-2.5-0.9-5-1.7-7.6-2.6c-1,4.8-3.7,8.1-8,10.5c1.2,0.6,2.1,1,3.1,1.5c0.1-0.5,0.2-0.9,0.3-1.3
		c0.6-2.7,2.1-4.2,4.5-4.5c2.3-0.3,4.2,0.7,5.3,3.3c0.8,2,1.5,4.1,1.9,6.2c0.9,4.2,2.6,8,5.7,11c4.1,4.1,8.3,8.3,12.4,12.4
		c0.3,0.3,0.7,0.6,1.1,0.6C597,64.7,600,64.7,603.1,64.7z M539.2,25.1c-1.2,0.4-2.5,0.8-3.7,1.2c-6.2,2.2-12.3,4.5-18,7.6
		c-3.4,1.8-5.9,4.4-7.4,8c-2.1,5-3.7,10.1-4.9,15.4c-0.5,2.4-0.9,4.7-1.4,7.3c3.3,0,6.4,0,9.4,0c0.4,0,0.8-0.4,1-0.7
		c4.1-4,8.1-8.1,12.2-12.1c2.9-2.9,4.6-6.3,5.7-10.2c0.6-2.3,1.5-4.5,2.6-6.6c1.4-2.8,3.2-5.1,6.8-4.6
		C540.6,28.7,539.9,26.9,539.2,25.1z M547.6,55.4c-2.4-1.6-3.9-3.6-4.8-6.2c-1.1-3-1.2-6.1-0.7-9.3c0.2-1.3,0.1-2.9-0.3-4.2
		c-0.5-1.7-1.9-1.8-2.9-0.4c-1.5,2.1-2.6,4.4-3.2,6.9c-1.1,5.1-3.6,9.4-7.3,13c-7.4,7.3-14.7,14.7-22.1,22c-0.3,0.3-0.5,0.6-0.9,1
		c0.3,0,0.4,0.1,0.5,0.1c6.3,0,12.6,0,19,0c0.5,0,1.1-0.4,1.4-0.8c3.9-5,7.8-10,11.7-14.9C540.6,59.3,543.1,56,547.6,55.4z
		 M576,78.3c-0.1-0.2-0.1-0.3-0.2-0.4c-4.3-5.4-8.6-10.9-12.9-16.2c-0.7-0.9-1.8-1.5-2.9-1.9c-2-0.7-4-1.3-6.1-1.8
		c-0.3-0.1-0.7-0.1-1,0c-1.8,0.5-3.7,1.1-5.5,1.6c-1.5,0.4-2.8,1.2-3.9,2.5c-2.8,3.4-5.5,6.9-8.3,10.3c-1.5,1.9-3,3.9-4.6,6
		C546,78.3,561,78.3,576,78.3z M529.7-5.2c-0.5-4.1-1.1-8.2-1.6-12.3c-3.1,0.7-5,3.8-4.5,7.2C524-7.3,526.9-4.9,529.7-5.2z
		 M577.3-5.2c3,0.2,5.8-2.3,6.1-5.4c0.4-3.3-1.6-6.3-4.5-6.8C578.3-13.4,577.8-9.3,577.3-5.2z M502.6,75.1c2.2-2.3,4.3-4.4,6.4-6.5
		c-1.7,0-3.5,0-5.3,0c-0.2,0-0.6,0.5-0.6,0.8C502.9,71.3,502.8,73.1,502.6,75.1z M598.2,68.7c2,2,4,4.1,6.1,6.1
		c-0.2-2-0.3-4-0.5-6.1C601.7,68.7,599.8,68.7,598.2,68.7z"/>
	<path class="st0" d="M606,17.6c0,5.2-5,8.8-10,7.3c-0.6-0.2-1.4-0.2-2.1,0c-4.2,1.1-8.4-1-10-4.9c-1.5-4,0.3-8.4,4.1-10.3
		c0.5-0.3,1-0.8,1.4-1.3c1.8-2.9,5-4.3,8.4-3.6c3.2,0.7,5.6,3.4,6,6.7c0.1,0.5,0.3,1.1,0.6,1.5C605.5,14.3,606.1,15.8,606,17.6z
		 M602.3,17.5c-0.4-0.8-0.6-1.8-1.2-2.3c-0.9-0.9-1.2-1.8-1.2-3c0-1.8-1.3-3.2-3.1-3.6c-1.7-0.4-3.5,0.5-4.1,2.1
		c-0.5,1.2-1.2,1.9-2.5,2.3c-2.4,0.7-3.4,3.3-2.5,5.6c0.9,2.3,3.5,3.3,5.7,2.2c1.2-0.6,2.2-0.6,3.4,0.1
		C599.2,22.2,602.1,20.4,602.3,17.5z"/>
	<path class="st0" d="M580.8,18.7c0,1.7-1.2,2.8-2.4,2.2c-1.9-1-3.8-2.2-5.5-3.5c-0.8-0.6-0.7-1.7,0-2.6c0.7-0.8,1.6-0.8,2.6-0.2
		c1.5,1,3,1.9,4.4,2.9C580.3,17.8,580.6,18.4,580.8,18.7z"/>
	<path class="st0" d="M553.6,6.2c-1.8,0-3.6,0-5.4,0c-2,0-2.9-1-2.3-2.9c0.5-1.6,1-3.2,2-4.6c2.8-3.8,8.4-3.9,11.5-0.3
		c1.3,1.5,2,3.3,2.3,5.3c0.2,1.4-0.6,2.3-2,2.4C557.6,6.2,555.6,6.2,553.6,6.2C553.6,6.2,553.6,6.2,553.6,6.2z M557.1,2.2
		c-0.8-1.6-1.9-2.4-3.5-2.4c-1.5,0-2.6,0.8-3.2,2.4C552.6,2.2,554.8,2.2,557.1,2.2z"/>
	<path class="st0" d="M543.1-9.5c-0.6,0-1.2,0-1.8,0c-1.1-0.1-1.8-0.7-1.8-1.8c-0.1-1.1,0.5-1.9,1.6-2c1.4-0.1,2.8-0.1,4.3,0
		c1,0.1,1.6,0.9,1.5,1.9c0,1.1-0.7,1.8-1.8,1.8C544.4-9.5,543.7-9.5,543.1-9.5C543.1-9.5,543.1-9.5,543.1-9.5z"/>
	<path class="st0" d="M563.3-9.5c-0.6,0-1.2,0-1.8,0c-1-0.1-1.7-0.7-1.8-1.7c-0.1-1.1,0.5-1.9,1.5-2c1.4-0.2,2.8-0.2,4.3,0
		c1.1,0.1,1.7,0.9,1.6,2c-0.1,1.1-0.7,1.7-1.8,1.8C564.5-9.5,563.9-9.5,563.3-9.5C563.3-9.5,563.3-9.5,563.3-9.5z"/>
</g>
<path class="st1" d="M2053.7-657.2c-2.1,0-3.6,0-5.1,0C2049.8-661.3,2051.5-660.2,2053.7-657.2z"/>
</svg>
