<svg width="129" height="129" viewBox="0 0 129 129" fill="none" xmlns="http://www.w3.org/2000/svg">
<g clip-path="url(#clip0_221_67)">
<path d="M64.8427 128.253C58.9764 128.253 54.1444 123.74 53.6367 118.003H52.0927C45.8894 118.003 40.8427 112.956 40.8427 106.753C40.8427 100.55 45.8894 95.5031 52.0927 95.5031H53.5927V91.8744C44.1969 89.5256 35.6789 84.2384 29.3524 76.7691C22.2527 68.3871 18.3427 57.7271 18.3427 46.7531C18.3427 21.1129 39.2024 0.253113 64.8427 0.253113C90.4829 0.253113 111.343 21.1129 111.343 46.7531C111.343 57.7271 107.433 68.3871 100.333 76.7691C94.0064 84.2384 85.4884 89.5256 76.0927 91.8744V95.5031H77.5927C83.7959 95.5031 88.8427 100.55 88.8427 106.753C88.8427 112.956 83.7959 118.003 77.5927 118.003H76.0487C75.5409 123.74 70.7089 128.253 64.8427 128.253ZM52.0927 103.003C50.0249 103.003 48.3427 104.685 48.3427 106.753C48.3427 108.821 50.0249 110.503 52.0927 110.503H57.3427C59.4137 110.503 61.0927 112.182 61.0927 114.253V117.003C61.0927 119.071 62.7749 120.753 64.8427 120.753C66.9104 120.753 68.5927 119.071 68.5927 117.003V114.253C68.5927 112.182 70.2717 110.503 72.3427 110.503H77.5927C79.6604 110.503 81.3427 108.821 81.3427 106.753C81.3427 104.685 79.6604 103.003 77.5927 103.003H72.3427C70.2717 103.003 68.5927 101.324 68.5927 99.2531V88.8429C68.5927 87.0249 69.8967 85.4686 71.6867 85.1506C80.5819 83.5704 88.7229 78.8724 94.6099 71.9216C100.564 64.8929 103.843 55.9544 103.843 46.7531C103.843 25.2484 86.3474 7.75311 64.8427 7.75311C43.3379 7.75311 25.8427 25.2484 25.8427 46.7531C25.8427 55.9544 29.1214 64.8929 35.0754 71.9219C40.9627 78.8726 49.1034 83.5706 57.9986 85.1509C59.7886 85.4686 61.0927 87.0249 61.0927 88.8431V99.2531C61.0927 101.324 59.4137 103.003 57.3427 103.003H52.0927ZM64.8427 78.2531C47.4734 78.2531 33.3427 64.1224 33.3427 46.7531C33.3427 29.3839 47.4734 15.2531 64.8427 15.2531C82.2119 15.2531 96.3427 29.3839 96.3427 46.7531C96.3427 64.1224 82.2119 78.2531 64.8427 78.2531ZM64.8427 22.7531C51.6089 22.7531 40.8427 33.5194 40.8427 46.7531C40.8427 59.9869 51.6089 70.7531 64.8427 70.7531C78.0764 70.7531 88.8427 59.9869 88.8427 46.7531C88.8427 33.5194 78.0764 22.7531 64.8427 22.7531Z" fill="#005BAB"/>
<path d="M57.3427 60.7531C55.2717 60.7531 53.5927 59.0741 53.5927 57.0031V36.5031C53.5927 34.4321 55.2717 32.7531 57.3427 32.7531C59.4137 32.7531 61.0927 34.4321 61.0927 36.5031V57.0031C61.0927 59.0741 59.4137 60.7531 57.3427 60.7531Z" fill="#005BAB"/>
<path d="M72.3427 60.7531C70.2717 60.7531 68.5927 59.0741 68.5927 57.0031V36.5031C68.5927 34.4321 70.2717 32.7531 72.3427 32.7531C74.4137 32.7531 76.0927 34.4321 76.0927 36.5031V57.0031C76.0927 59.0741 74.4137 60.7531 72.3427 60.7531Z" fill="#005BAB"/>
</g>
<defs>
<clipPath id="clip0_221_67">
<rect width="128" height="128" fill="white" transform="translate(0.842651 0.253113)"/>
</clipPath>
</defs>
</svg>
