<?xml version="1.0" encoding="utf-8"?>
<!-- Generator: Adobe Illustrator 24.3.0, SVG Export Plug-In . SVG Version: 6.00 Build 0)  -->
<svg version="1.1" id="Layer_1" xmlns="http://www.w3.org/2000/svg" xmlns:xlink="http://www.w3.org/1999/xlink" x="0px" y="0px"
	 viewBox="0 0 150 150" style="enable-background:new 0 0 150 150;" xml:space="preserve">
<style type="text/css">
	.st0{fill:#CDEEFD;}
	.st1{fill:#111224;}
	.st2{fill:#005BAB;}
</style>
<path class="st0" d="M1465.3,1556.3c-2.4-0.2-4.3-1.3-4.4-4.1c-0.1-6.7,1.6-10,4.9-9.9c0.2,0,0.3,0,0.5,0c2.2,0.5,4.3,2.1,3.2,4
	C1467.7,1549.5,1473.1,1555.7,1465.3,1556.3z M1465.5,1554.4c1.3-0.1,2.3-0.6,2.3-2.1c-0.1-1.7-1.5-2.1-2.8-2.4c-1.6-0.4-2,0.8-2,2
	C1463,1553.5,1464,1554.2,1465.5,1554.4z M1467.8,1546.5c0-1.4-0.6-2.2-2.1-2.2c-0.9,0-1.6,0.4-1.7,1.4c-0.2,1.4,0.9,2.1,2,2.5
	C1467.3,1548.5,1467.6,1547.5,1467.8,1546.5z"/>
<path class="st0" d="M1455.8,1556.6c-0.5-2.9-1.8-4.2-4.6-3.6c-0.7,0.2-1.7,0.3-2.1-0.8c-0.4-1.1,0.1-1.5,1.2-2.1
	c2.1-1.2,2.1-3.9,3.2-5.8c0.6-1,1-2.2,2.5-1.9c1.4,0.3,0.9,1.6,0.8,2.5C1456.4,1548.6,1458.4,1552.5,1455.8,1556.6z"/>
<path class="st1" d="M1465.5,1554.4c-1.5-0.1-2.6-0.8-2.5-2.4c0-1.2,0.4-2.4,2-2c1.2,0.3,2.7,0.7,2.8,2.4
	C1467.8,1553.7,1466.8,1554.2,1465.5,1554.4z"/>
<path class="st1" d="M1467.8,1546.5c-0.2,1-0.5,2.1-1.8,1.7c-1.1-0.4-2.1-1-2-2.5c0.1-1,0.8-1.4,1.7-1.4
	C1467.2,1544.3,1467.8,1545,1467.8,1546.5z"/>
<g>
	<path class="st2" d="M123.2,122.5c-0.5,1-0.8,1.8-1.3,2.6c-7.6,11.8-18.4,18.8-32,21.8c-1.6,0.4-2.9-0.6-3-2.2c0-0.4,0-0.8,0-1.2
		c0-14.4,0-28.8,0-43.3c0-0.4,0-0.9,0-1.3c0.2-1.3,1-2.1,2.3-2.1c1.2-0.1,2.2,0.9,2.3,2.1c0.1,0.5,0,1,0,1.5c0,13.1,0,26.2,0,39.3
		c0,0.6,0,1.2,0,2.1c1.9-0.6,3.7-1.2,5.4-1.8c8.6-3.3,15.4-8.9,20.5-16.5c0.4-0.6,0.7-1.6,0.7-2.3c-0.1-11.2,0.1-22.3-0.4-33.5
		c-0.6-17.1-2.3-34.1-6.5-50.8c-1.6-6.4-3.7-12.6-6.9-18.5c-1.9-3.5-4.2-6.6-7.2-9.3c-7-6.2-18-3.9-22.6-0.1c-1.7,1.4-2.1,1.4-4,0.3
		c-3.5-2-7.1-2.1-10.8-0.5c-4.6,2-7.9,5.5-10.7,9.6c-5.4,7.8-8.3,16.6-10.6,25.6C35.9,55,34.6,66.3,34,77.6
		c-0.6,11.6-0.6,23.1,0,34.7c0,0.4,0.1,0.7,0.1,1.1c0.2,0,0.4,0.1,0.4,0.1c5.5-2.3,11-4.5,16.4-6.9c1.3-0.5,2.4-1.4,3.5-2.2
		c2.5-1.9,4-4.3,3.7-7.6c-0.2-2.1,0-4.1-0.1-6.2c0-0.6-0.3-1.3-0.6-1.7c-5.4-5.2-8.9-11.5-10.8-18.7c-0.1-0.4-0.5-1-0.9-1.2
		c-3.6-1.8-5.5-4.8-6.3-8.6c-0.8-3.7-0.8-7.3,0.7-10.7c0.8-1.8,1.8-3.3,4.1-3.4c1.5-0.1,1.8-1.4,1.9-2.8c0.3-4.4,0.8-8.7,2.4-12.8
		c1.1-3,2.6-5.6,5.2-7.5c0.9-0.6,1.8-1.2,2.9-0.6c1.1,0.5,1.3,1.5,1.4,2.6c0.4,5,1.1,9.9,2.9,14.7c0.5,1.4,1.3,2.2,2.9,2.7
		c12.6,3.7,25.3,5.1,38.4,4.2c0.7-0.1,1.4-0.1,2.1-0.1c2.8,0,5.1,1.5,5.8,4.3c1.2,4.3,1,8.6-0.8,12.7c-1,2.3-2.7,4-5,5.2
		c-0.5,0.3-1.1,1-1.3,1.6c-2.5,9-7.2,16.6-15.1,21.9c-7.7,5.2-15.8,5.8-24.1,1.3c-0.2-0.1-0.4-0.2-0.7-0.3c0,0-0.1,0-0.3,0
		c-0.2,3.6,0.4,7.3-1.8,10.7c-2.1,3.2-5.2,5.2-8.5,7.2c3.4,2.5,6.9,4.2,10.7,5.4c5,1.6,10.1,2.2,15.4,1.6c1.6-0.2,2.7,0.6,2.9,2
		c0.2,1.5-0.7,2.5-2.3,2.6c-11.2,1.1-21.3-1.9-30.3-8.6c-0.8-0.6-1.4-0.7-2.4-0.4c-5.5,2.3-11.2,4.3-16.6,7
		c-6.9,3.4-12.8,8.1-16.8,15c-2,3.4-3.1,7-3.1,11c0,1.7-1,2.8-2.3,2.7c-1.4,0-2.4-1.2-2.3-2.9c0.3-7.3,3.1-13.4,7.9-18.8
		c4-4.6,8.9-8.1,14.3-11c1.4-0.7,1.9-1.4,1.9-3c-0.1-11.9-0.4-23.8,0-35.7C30,62.7,32,47.7,36.9,33.2c2.6-7.8,6-15.2,11.6-21.5
		c3-3.4,6.4-6.1,10.7-7.7c4.1-1.5,8.1-1.3,12.1,0.3c0.7,0.3,1.3,0.3,2.1-0.1c8.9-5.2,21.7-5.9,30.4,4.8c4.8,5.9,7.8,12.7,10.1,19.8
		c3,9.4,4.8,19.1,6.1,28.8c2.6,19.1,3.2,38.3,3,57.5c0,1.3,0.4,2.1,1.5,2.7c6.9,4,12.8,9,16.7,16c2.2,4,3.5,8.4,3.4,13
		c0,1.5-0.9,2.4-2.2,2.5c-1.3,0-2.4-0.9-2.4-2.3c-0.2-6.7-2.9-12.3-7.4-17.1C129.7,127.1,126.5,124.7,123.2,122.5z M53.7,30.2
		c-0.3,0.5-0.4,0.7-0.5,1c-1.6,3.9-2.3,8-2.5,12.1c-0.2,3.9-1.8,6.2-5.5,7.4c-0.5,0.2-1.1,0.9-1.2,1.5c-0.9,3.1-0.7,6.3,0.5,9.2
		c0.7,1.7,2,3,3.9,3.4c1.4,0.3,2,1.2,2.3,2.6c1.7,7.9,5.4,14.6,11.8,19.6c3.6,2.8,7.5,4.7,12.2,4.7c5.1,0,9.3-2.1,13.1-5.3
		c5.9-5,9.5-11.5,11.1-19.1c0.3-1.3,0.8-2.2,2.2-2.5c2.1-0.5,3.4-1.9,4.2-3.9c1-2.7,1.1-5.6,0.5-8.4c-0.2-1.1-0.9-1.5-2-1.4
		c-6.6,0.5-13.3,0.5-19.9-0.2c-8-0.8-15.8-2.2-23.4-4.8c-0.9-0.3-2-1.1-2.3-1.9c-1.2-2.5-2.2-5-3-7.6C54.5,34.7,54.3,32.6,53.7,30.2
		z"/>
</g>
</svg>
