<?xml version="1.0" encoding="utf-8"?>
<!-- Generator: Adobe Illustrator 24.3.0, SVG Export Plug-In . SVG Version: 6.00 Build 0)  -->
<svg version="1.1" id="Layer_1" xmlns="http://www.w3.org/2000/svg" xmlns:xlink="http://www.w3.org/1999/xlink" x="0px" y="0px"
	 viewBox="0 0 150 150" style="enable-background:new 0 0 150 150;" xml:space="preserve">
<style type="text/css">
	.st0{fill:#5F6368;}
	.st1{fill:#005BAB;}
</style>
<path class="st0" d="M2053.7-657.2c-2.1,0-3.6,0-5.1,0C2049.8-661.3,2051.5-660.2,2053.7-657.2z"/>
<path class="st0" d="M647.6-31.1c1.8-3.6,3.4-2.9,5.2,0C651-31.1,649.5-31.1,647.6-31.1z"/>
<g>
	<path class="st1" d="M29.2,148.8c-1.1-0.7-1.5-1.7-1.4-3.1c0-7.4-0.1-14.8,0.1-22.2c0.1-3.7,0.8-7.3,1.4-11
		c0.3-1.6,1.4-2.4,2.7-2.1c1.3,0.3,1.9,1.5,1.5,3.2c-1.6,5.7-1.3,11.5-1.3,17.4c5.4,0,10.8,0,16.4,0c0-2.8,0-5.7,0-8.5
		c0-0.5,0-1.1,0-1.6c0.1-1.3,1-2.2,2.2-2.2c1.1,0,2.1,0.9,2.1,2.2c0.1,2.3,0,4.6,0,6.9c0,0.3,0,0.5,0,1.1c1.8-1.3,3.4-2.5,4.9-3.6
		c-0.6-1.9-1.4-3.7-1.8-5.5c-0.7-3.1,0-5.8,2.7-7.6c2.6-1.8,5.3-1.2,7.8,0.4c0.4,0.2,0.7,0.5,1.2,0.7c0.8-0.7,1.5-1.5,2.3-2.1
		c3.9-3.4,8.5-4.8,13.6-3.9c6.1,1.2,10.7,6.6,11,13.1c0.5,9.4-5.6,16.6-15.2,17.9c-1,0.1-2.1,0.2-3.1,0.3c-0.5,0.1-1,0.1-1.3,0.4
		c-2.2,1.6-4.5,3.3-6.9,5.2c9.9,0,19.5,0,29.2,0c0-0.5,0-1,0-1.5c0-6.8,0-13.6,0-20.5c0-0.3,0-0.7,0-1c0.1-1.5,0.9-2.5,2.2-2.5
		c1.2,0,2.1,1,2.1,2.4c0,2.8,0,5.6,0,8.4c0,0.5,0,0.9,0,1.5c5.5,0,10.8,0,16.3,0c0-3.4,0.2-6.7,0-10c-0.4-6.9-2.6-13.2-6.4-19
		c-1-1.4-0.8-2.6,0.3-3.4c1.1-0.8,2.4-0.4,3.4,1.1c4.5,6.8,7,14.3,7.2,22.5c0.2,8,0,15.9,0.1,23.9c0,1.2-0.6,2-1.4,2.6
		C90.3,148.8,59.7,148.8,29.2,148.8z M39.5,144.2c0,0.1,0.1,0.2,0.1,0.3c0.3,0,0.7,0,1,0c6.4,0,12.8,0,19.2,0c0.6,0,1.2-0.3,1.7-0.7
		c3.7-2.7,7.3-5.6,11.1-8.2c0.8-0.6,2-0.8,3-1.1c1.6-0.3,3.3-0.3,4.8-0.7c6.6-1.6,10.3-6.3,9.9-12.8c-0.4-6.8-6-10.9-12.6-9.1
		c-3.1,0.8-5.5,2.7-7.4,5.3c-1.7,2.2-2.5,2.3-4.5,0.5c-0.6-0.5-1.3-1.1-2-1.4c-0.9-0.3-2-0.5-2.8-0.2c-1.1,0.5-1.3,1.8-0.9,2.9
		c0.6,1.7,1.3,3.4,2.1,5c1.1,2.1,1.1,2.8-0.8,4.2c-4.8,3.5-9.5,7-14.3,10.4C44.6,140.4,42.1,142.3,39.5,144.2z M101.6,144.4
		c5.5,0,10.9,0,16.2,0c0-2.9,0-5.8,0-8.7c-5.4,0-10.8,0-16.2,0C101.6,138.6,101.6,141.4,101.6,144.4z M32.2,135.7c0,2.8,0,5.5,0,8.4
		c3.9-2.8,7.6-5.5,11.6-8.4C39.6,135.7,35.9,135.7,32.2,135.7z"/>
	<path class="st1" d="M33.5,25.1c0.4,8,2.7,15.3,6.7,22c1.8-0.1,3.5-0.3,5.3-0.4c0.1-0.6,0.1-1.3,0.2-1.9c0.7-2.6,2.3-4.4,5-5
		c7.1-1.5,13.8-4,20-7.8c4.2-2.5,8-5.6,11.4-9.1c2.3-2.4,4.6-2.3,6.5,0.5c3.9,5.6,7.9,11.1,12.9,15.9c1.7,1.6,2.1,2.9,3,7.3
		c2.3,0.4,4.6,0.8,7.3,1.2c0.4-1.4,1-3.1,1.5-4.9c1.9-7.4,2.2-14.7-0.5-21.9c-0.1-0.3-0.2-0.6-0.4-0.9c-4.5-10.1-12.8-12.6-22.7-8.8
		c-2.3,0.9-2.5,0.9-4-1.1c-1.8-2.3-4.4-3.3-7.2-3.9c-7.3-1.6-13.9-0.4-19.8,4.4c-0.3,0.2-0.6,0.5-0.9,0.7c-1.1,0.6-2.3,0.5-3-0.4
		c-0.7-0.9-0.6-2.2,0.4-3c4.2-3.4,8.9-6.1,14.5-6.5c5.4-0.4,10.8,0.1,15.6,2.8c0.5,0.3,1.1,0.5,1.4,1c1.3,1.7,2.8,1.5,4.6,1
		c11.6-3.2,21.5,2.1,25.7,13.8c2.9,8,2.5,16,0.4,24.1c-0.2,0.8-0.4,1.6-0.7,2.3c-1,2.8-2.3,5.5-0.1,8.3c2.1,7.6-4.5,14.7-12.3,13.3
		c-0.3-0.1-0.7-0.1-1.1-0.1c-1.8,6.1-5.2,11.1-10,14.9c3.1,1.6,6.2,3.1,9.1,4.8c1.9,1.1,3.7,2.6,5.4,4.1c1.3,1.1,1.5,2.3,0.6,3.4
		c-0.9,1-2.1,1-3.4-0.1c-4.4-3.8-9.3-6.6-14.9-8.2c-2.1,8.5-7.2,13.4-16.3,13.1c-6.7-0.2-11.2-4.6-14-13.1
		c-5.8,1.6-10.8,4.5-15.3,8.5c-3.1,2.8-5.6,6-7.7,9.7c-0.3,0.5-0.6,1-1,1.4c-0.8,0.7-1.8,0.7-2.6,0c-0.9-0.7-1.1-1.7-0.5-2.7
		c0.7-1.4,1.5-2.7,2.4-3.9c5.2-7.6,12.1-13,20.8-16.2c0.3-0.1,0.5-0.2,1-0.4c-5-4-8.4-9-10.2-15.1c-5.6,1-10.1-0.6-12.7-5.8
		c-2.3-4.6-1-8.9,2.4-12.6c-3-5-5.2-10.2-6.2-15.9c-0.6-3.5-0.8-7.1-1.1-10.7C29,21,30.2,20,32,20.4c5.2,1.1,9.7,0.1,13.5-3.8
		c0.9-1,1.9-1.9,3-2.7c1.1-1,2.3-1,3.2-0.1c0.9,0.9,0.8,2.2-0.2,3.2c-1.7,1.6-3.4,3.1-5.2,4.6c-3.1,2.6-6.7,3.7-10.7,3.5
		C34.9,25.1,34.3,25.1,33.5,25.1z M85.2,26.2c-0.2,0.2-0.4,0.4-0.7,0.6c-5.6,5.6-12,10-19.4,13c-4.2,1.7-8.5,2.8-12.8,4.1
		c-1.9,0.6-2.4,1-2.4,3c0,1.3,0,2.7,0,4c0.1,4.2-0.2,8.4,0.3,12.5C52,76.2,63.6,85.6,76.4,84.8c13.1-0.8,23.4-11.5,23.7-24.5
		c0.1-4.5,0-9,0-13.5c0-1.9-0.7-3.5-2.1-4.9c-1.5-1.6-3.1-3.1-4.5-4.8C90.7,33.4,88,29.8,85.2,26.2z M64.7,87.3
		c0.7,4.8,5.7,8.4,10.9,8.2c4.6-0.2,9.3-4.2,9.5-8.2C78.4,89.7,71.6,89.7,64.7,87.3z M45.7,51.1c-1.5,0.1-2.8,0-4,0.3
		c-3.1,0.9-5,4.2-4.3,7.3c0.8,3.3,3.8,5.5,7,4.9c0.4-0.1,1.2-0.5,1.2-0.8C45.7,59.1,45.7,55.3,45.7,51.1z M104.5,57.4
		c0,0-0.1,0-0.1,0c0,1.7,0.1,3.4,0,5c0,0.8,0.2,1.1,1,1.3c2.3,0.5,5-0.6,6.4-2.7c1.4-2.1,1.5-4.9,0-7c-1.4-2-4-3.2-6.2-2.8
		c-0.7,0.1-1.1,0.4-1,1.2C104.5,54.1,104.5,55.7,104.5,57.4z"/>
	<path class="st1" d="M54.4,100.4c0.9,0.1,1.5,0.1,2.2,0.2c1.6,0.3,2.4,1.7,1.7,3.1c-1.1,2-2.3,4-3.5,5.9c-0.7,1.1-1.9,1.2-2.9,0.6
		c-1-0.6-1.2-1.8-0.7-2.9c0.2-0.4,0.4-0.7,0.7-1.1c0.2-0.3,0.4-0.7,0.6-1.2c-0.7,0-1.3-0.1-1.9-0.1c-1.8-0.2-2.7-1.7-1.8-3.3
		c1.2-2.1,2.4-4.1,3.7-6.2c0.7-1.1,1.9-1.3,2.9-0.8c1.1,0.6,1.4,1.8,0.8,3C55.6,98.5,55.1,99.3,54.4,100.4z"/>
	<path class="st1" d="M98.1,106.7c-0.5,0-1.2,0-1.8,0c-1.7-0.1-2.6-1.6-1.9-3.1c1.2-2.2,2.5-4.4,3.9-6.5c0.7-1,1.8-1.2,2.8-0.6
		c1.1,0.6,1.4,1.6,0.8,2.7c-0.5,1-1.1,1.9-1.8,3.1c0.8,0,1.4,0,2,0c1.9,0.2,2.8,1.7,1.9,3.4c-1,1.8-2.1,3.6-3.3,5.4
		c-0.8,1.2-2,1.5-3.1,0.8c-1-0.6-1.2-1.8-0.6-3c0.4-0.7,0.7-1.3,1.1-2C98.3,107,98.2,106.9,98.1,106.7z"/>
	<path class="st1" d="M74.9,74.7c-2.7,0-5.5,0-8.2,0c-1.9,0-2.7-0.8-2.6-2.7c0.2-5.7,5.1-10.4,11-10.4c5.9,0,10.9,4.8,11,10.5
		c0,1.8-0.7,2.6-2.5,2.6C80.6,74.8,77.7,74.7,74.9,74.7z M81.2,70.4c-1.1-3-3.8-4.7-6.8-4.4c-2.7,0.3-5,2.2-5.3,4.4
		C73,70.4,77,70.4,81.2,70.4z"/>
	<path class="st1" d="M60.8,53.1c-0.9-0.5-1.5-0.8-2.1-1.2c-1-0.7-1.3-1.6-0.8-2.8c0.5-1.1,1.7-1.5,2.8-1c1.9,0.9,3.9,1.9,5.7,2.9
		c1.6,0.9,1.6,2.8,0,3.8c-1.8,1.1-3.7,2.2-5.6,3.2c-1.1,0.6-2.3,0.2-2.8-0.8c-0.6-1-0.3-2.2,0.7-2.9C59.3,53.9,60,53.6,60.8,53.1z"
		/>
	<path class="st1" d="M89.2,53.1c0.8,0.5,1.4,0.8,2,1.2c1.1,0.7,1.4,1.9,0.8,2.9c-0.6,1.1-1.8,1.5-3,0.8c-1.9-1-3.7-2-5.5-3.1
		c-1.6-1-1.6-2.9,0.1-3.8c1.8-1,3.6-1.9,5.5-2.8c1.2-0.6,2.4-0.2,2.9,0.9c0.6,1.1,0.2,2.2-1,2.9C90.6,52.4,90,52.7,89.2,53.1z"/>
</g>
</svg>
