<?xml version="1.0" encoding="utf-8"?>
<!-- Generator: Adobe Illustrator 24.3.0, SVG Export Plug-In . SVG Version: 6.00 Build 0)  -->
<svg version="1.1" id="Layer_1" xmlns="http://www.w3.org/2000/svg" xmlns:xlink="http://www.w3.org/1999/xlink" x="0px" y="0px"
	 viewBox="0 0 150 150" style="enable-background:new 0 0 150 150;" xml:space="preserve">
<style type="text/css">
	.st0{fill:#5F6368;}
	.st1{fill:#005BAB;}
</style>
<path class="st0" d="M2053.7-657.2c-2.1,0-3.6,0-5.1,0C2049.8-661.3,2051.5-660.2,2053.7-657.2z"/>
<path class="st0" d="M72.6,73.2c0.7-1.4,1.3-1.1,2,0C73.9,73.2,73.3,73.2,72.6,73.2z"/>
<g>
	<path class="st1" d="M56.2,129.7c-24.5-10.3-38.8-28.3-38.6-55.3C17.8,48,32,30.4,56.3,20.2c-2.2-1.2-4.3-2.5-6.4-3.7
		c-7.4-4-15.1-7.5-23.4-8.9C23.3,7.1,20,7,16.9,7.5C11,8.2,7.7,12.2,7.2,18.1c-0.6,6.1,0.8,11.9,3,17.4c2.3,5.7,4.9,11.2,7.5,17
		c-1,0.6-2.4,1.3-3.9,2.2c-1.3-2.5-2.6-4.8-3.8-7.2c-3.5-7.3-6.6-14.7-7.4-22.8c-0.3-3.1-0.3-6.3,0.3-9.4c1.5-7.8,7.3-12.5,15.3-13
		c8-0.5,15.4,1.7,22.7,4.6c7.3,2.9,14.1,6.8,20.8,10.9c0.6,0.4,1.6,0.6,2.3,0.5c27.3-5.4,55,10,64.8,36c0.2,0.6,0.5,1.2,0.8,2.1
		c1.4-2.5,2.8-4.8,4-7.1c3.9-7.3,7.3-14.8,8.7-23c0.5-3.1,0.6-6.4,0.2-9.5c-0.8-5.9-4.7-9.2-10.7-9.7c-6.1-0.6-11.8,0.9-17.4,2.9
		c-2.9,1-5.7,2.2-8.4,3.5c-2.7,1.3-5.4,2.7-8.2,4.2c-0.7-1.3-1.5-2.6-2.3-4.1c2.4-1.2,4.6-2.5,6.9-3.6c6.6-3.2,13.4-6,20.7-7.2
		c3.8-0.7,7.7-0.9,11.5-0.1c7.8,1.6,12.6,7.4,13.1,15.6c0.5,7.9-1.7,15.3-4.6,22.6c-2.9,7.3-6.7,14.1-10.9,20.6
		c-0.6,0.9-0.7,1.7-0.5,2.8c1.4,7.1,1.3,14.3,0,21.5c-0.1,0.8,0,1.8,0.5,2.5c5.4,8.6,10.2,17.5,13.3,27.3c1.6,5,2.5,10.1,2.3,15.3
		c-0.4,10.5-7.7,17.1-18.2,16.9c-9.1-0.2-17.3-3.2-25.4-7c-3.3-1.6-6.6-3.4-10-5.1c0.9-1.5,1.6-2.8,2.4-4.2c3.2,1.6,6.3,3.3,9.4,4.8
		c6.1,2.9,12.4,5.3,19.1,6.3c3.3,0.5,6.7,0.5,10-0.5c4.7-1.5,7.5-5.4,7.8-10.8c0.4-5.5-0.8-10.7-2.6-15.9
		c-2.5-7.5-6.1-14.5-10.2-21.3c-0.1-0.2-0.2-0.3-0.4-0.5c-0.9,2.1-1.7,4.2-2.6,6.1c-9.2,18.3-24,29.1-44.2,32.3
		c-6.3,1-12.6,0.7-18.8-0.5c-0.7-0.1-1.7,0.1-2.3,0.6c-8.4,5.2-17,9.9-26.4,13c-5.5,1.8-11.2,3-17.1,2.6c-9-0.6-15.2-7.1-15.8-16
		c-0.4-7.3,1.3-14.1,4-20.7c2.1-5.2,4.6-10.3,7.1-15.6c1.7,0.9,3,1.7,4.4,2.5c-1.1,2.2-2.2,4.2-3.3,6.3c-3,6.1-5.7,12.4-6.8,19.1
		c-0.5,3.2-0.7,6.6-0.3,9.8c0.9,6.2,5,9.5,11.2,9.8c5,0.3,9.7-0.7,14.4-2.1C39.8,138.6,51.2,133.2,56.2,129.7z M46.2,73.1
		c2.3-1.4,4.4-2.7,6.6-4c2.2-1.3,4.3-1,6.2,0.7c0.9,0.9,1.9,1.7,2.6,2.7c1.5,2,3.4,2.6,5.9,2.5c6.7-0.2,6.4-0.3,9.8,5.3
		c0.9,1.5,1.9,2,3.6,1.9c3.9-0.1,6,2.7,5.1,6.4c-0.3,1.4-0.7,2.7-1,4.1c-0.5,2.4-1.8,3.8-4.1,4.5c-3.4,1.1-3.4,1.1-3.4,4.7
		c0,2.3-1,3.9-3,4.9c-1.8,0.9-3.4,1.8-5.2,2.6c-1.1,0.5-1.4,1.1-1.4,2.3c0.1,1.9,0.1,3.8,0,5.7c-0.1,3.2-2.9,5.2-6.1,4.5
		c-3.7-0.8-6.4-2.5-7-6.5c-0.1-0.5-0.3-1-0.4-1.4c-1.9-5.4-4-10.8-3.2-16.7c0.2-1.2-0.3-1.8-1.4-2.3c-3.1-1.2-5.1-3.8-7.2-6.2
		c-0.7-0.7-0.9-2-1-3c-0.1-2.4,0-4.9,0-7c-3.6-1.8-6.8-3.6-10.3-5c-3.7-1.5-5.5-4.9-8.1-7.8c-0.1,0.5-0.2,0.8-0.2,1
		c-0.8,5.1-0.9,10.3,0,15.4c3.9,22,16.5,36.4,37.7,43.3c1.1,0.3,1.8,0.2,2.8-0.4c15-10.3,28.5-22.1,40.8-35.5c0.9-1,1.8-2,2.7-3
		c-0.3-0.5-0.5-0.9-0.8-1.2c-1.6-1.7-2.2-3.7-2-6.1c0.1-1.5-0.1-3,0.1-4.5c0.2-2.2-1.6-3-2.8-4.1c-0.4-0.4-1.6,0.1-2.5,0.3
		c-1.9,0.4-3.7,1.6-5.8,1c-2.4-0.6-4.9-1.2-7.3-1.8c-1.9-0.5-3.1-1.7-3.6-3.6c-0.6-2.3-1.2-4.6-1.7-7c-0.3-1.5-0.1-2.9,0.7-4.2
		c1.1-1.6,2.2-3.2,3.3-4.9c1.1-1.6,2.5-2.4,4.4-2.3c1.2,0,2.4,0,3.7,0c0-0.1,0.1-0.3,0.1-0.4c-4.6-4.1-9.3-8.2-14.1-12.4
		c-1.2,2.9-3.6,3.4-6,3.9c-0.3,0.1-0.6,0.2-0.9,0.2c-3.4,0.3-5.8,2-7.4,5c-2.3,4.2-5.9,6.9-10.3,8.7c-2.8,1.2-5.4,2.5-8.4,2.9
		c-2.1,0.3-4.1,0.8-6.2,1.2c0,0.8,0.1,1.5,0,2.2c-0.2,1.3,0.3,2.1,1.5,2.8c1.3,0.7,2.4,1.6,3.6,2.4c1.4,1,2.1,2.4,2.1,4.1
		C46.2,70.4,46.2,71.6,46.2,73.1z M74.7,33.3c-2.1-2.1-4-3.3-6.5-3.4c-3.1-0.1-5.3-1.6-6.4-4.5c-0.4-1.1-1-1.3-2.2-0.9
		C42.8,30,31.3,41.1,25.1,57.6c-0.6,1.7-0.5,2.8,0.7,4.2c1.6,1.8,3,3.8,4.5,5.6c0.2,0.3,0.5,0.7,0.8,0.9c3.4,1.7,6.7,3.4,10.3,5.2
		c0-1.1-0.1-2,0-2.9c0.1-1.1-0.2-1.8-1.3-2.4c-1.3-0.7-2.5-1.6-3.7-2.5c-1.5-1-2.2-2.4-2.2-4.2c0-0.9,0-1.7,0-2.6
		c0-4,1.2-5.6,5.2-6.2c5.4-0.8,10.6-2.3,15.4-5.1c0.2-0.1,0.5-0.2,0.7-0.3c0.7-0.5,1.5-1,2-1.7c1.8-2.3,3.5-4.6,5.2-7
		c0.9-1.3,2.1-2.1,3.6-2.4c2-0.4,4-0.9,5.9-1.5C73.1,34.5,73.8,33.8,74.7,33.3z M81.4,87c-0.8,0-1.3,0-1.9,0c-2.5,0.2-4.2-0.8-5.5-3
		c-0.6-1.1-1.4-2.1-2-3.1c-0.5-0.8-1-1.2-2-1.1c-1.7,0.1-3.4,0-5.1,0c-2.1,0.1-3.7-0.6-5-2.1c-1.5-1.6-3-3-4.5-4.5
		c-1.5,0.9-2.9,1.7-4.3,2.6c-1.6,1.1-3.9,1.9-4.7,3.4c-0.8,1.6-0.2,4-0.2,6.1c0,0.4,0.2,0.9,0.5,1.2c1.8,1.9,3.6,3.8,6.1,4.8
		c2.1,0.9,3.2,2.6,3,4.9c-0.5,5.2,0.6,10.1,2.5,14.9c0.4,1.1,0.8,2.3,1.1,3.4c0.7,2.1,1.1,2.4,3.5,2.6c0,0,0.1-0.1,0.1-0.1
		c0-2.2,0-4.4,0-6.6c0-2,0.9-3.5,2.7-4.5c1.1-0.6,2.2-1.3,3.4-1.7c2.8-0.9,4-2.5,3.6-5.6c-0.3-2.3,1.1-4,3.3-4.8
		c1.1-0.4,2.2-0.7,3.3-1.1c0.4-0.2,0.8-0.6,1-1C80.7,90.2,81,88.7,81.4,87z M68.7,127.3c17.2,2.5,36.8-5.2,47.7-19.8
		c-1.1-1-2.1-2-3.3-3c-1.5-1.3-2.2-3-2.1-5c0.1-1.7-0.1-3.5,0-5.2c0.1-1.4-0.4-2.4-1.5-3.4C97.3,104.4,83.9,116.6,68.7,127.3z
		 M116.7,75c-0.3-0.4-0.5-0.7-0.7-0.9c-4.7-5.4-9.3-10.8-14.1-16.2c-2.8-3.1-6.1-5.3-10.6-4.6c-0.7,0.1-1.4-0.1-2.1,0
		c-0.5,0.1-1.1,0.4-1.4,0.7c-3.1,4.3-3,4.2-1.9,9.3c0.4,1.9,1.3,2.6,3.1,3.1c3.3,0.9,6.5,1.2,9.7-0.3c1-0.4,2.4-0.6,3.3-0.2
		c2.9,1.3,5.1,3.5,6.4,6.4c0.2,0.5,0.2,1.1,0.2,1.6c0,2,0.1,3.9,0,5.8c-0.1,1.3,0.5,2.2,1.5,3.1C112.3,80.4,114.5,77.7,116.7,75z
		 M95,43.6c2.9,3,5.8,6.2,8.8,9.2c0.4,0.4,1.1,0.7,1.7,0.8c2.8,0.6,5.7,1.2,8.5,1.7c0.6,0.1,1.3,0.2,1.7,0c2.2-1.2,4.3-2.4,6.7-3.8
		c-1.6-2.7-3.2-5.2-4.7-7.8c-0.5,0.3-0.8,0.4-1,0.6c-2.2,1.7-4.3,1.7-6.7,0.4c-1.7-1-3.5-1.9-5.4-2.7c-0.7-0.3-1.6-0.4-2.4-0.3
		C99.8,42.4,97.3,43.1,95,43.6z M113,87.1c0.4,0.5,0.6,0.9,0.9,1.2c1.6,1.7,2.2,3.7,2,6.1c-0.1,1.7,0,3.4,0,5.1c0,0.4,0,0.9,0.2,1.1
		c0.9,1.1,2,2.2,3,3.4c2.8-4.3,4.7-8.6,6.3-13c0.7-2,0.6-3.6-0.8-5.3c-1.7-2.1-3.2-4.4-4.8-6.7C117.4,81.8,115.2,84.4,113,87.1z
		 M68.7,22.5c2.5,2,4.6,3.6,7.6,3.9c2.4,0.2,3.7,1.9,4.1,4.3c0.1,0.5,0.3,1,0.6,1.3c1.4,1.2,2.8,2.4,4,3.4c1.3-2.1,2.6-4.1,3.9-6.1
		c1-1.6,2.5-2.4,4.4-2.3c0.9,0,1.9,0,2.8,0C87.6,22.9,78.5,21.4,68.7,22.5z M114.6,39.8c-2.4-2.2-4.9-4.4-7.3-6.6
		c-1.3-1.1-2.6-1.8-4.5-1.6c-2.9,0.4-5.8,0.1-8.7,0.1c-0.5,0-1.1,0.2-1.4,0.6c-0.8,1.1-1.6,2.3-2.4,3.5c1,0.7,1.9,1.2,2.8,1.9
		c1,0.8,1.9,1,3.2,0.6c1.8-0.6,3.6-0.9,5.4-1.4c1.6-0.4,3.1-0.3,4.6,0.5c1.9,1,3.9,1.9,5.9,3C113.2,41,113.9,40.9,114.6,39.8z
		 M119.8,71c2.1-3,4-5.7,6-8.5c0.2-0.3,0.4-0.7,0.3-0.9c-0.5-1.8-1.1-3.6-1.6-5.5c-2.4,1.4-4.6,2.6-6.8,3.8
		c-2.4,1.3-4.8-0.2-7.4-0.2C113.4,63.5,116.5,67.2,119.8,71z M127.6,69.1c-0.1,0-0.3-0.1-0.4-0.1c-1.4,1.8-2.7,3.7-4.1,5.5
		c-0.2,0.2-0.2,0.7,0,0.9c1.3,1.9,2.7,3.7,4.1,5.6c0.1,0,0.2-0.1,0.4-0.1C127.6,77,127.6,73,127.6,69.1z"/>
</g>
</svg>
