<?xml version="1.0" encoding="utf-8"?>
<!-- Generator: Adobe Illustrator 24.3.0, SVG Export Plug-In . SVG Version: 6.00 Build 0)  -->
<svg version="1.1" id="Layer_1" xmlns="http://www.w3.org/2000/svg" xmlns:xlink="http://www.w3.org/1999/xlink" x="0px" y="0px"
	 viewBox="0 0 150 150" style="enable-background:new 0 0 150 150;" xml:space="preserve">
<style type="text/css">
	.st0{fill:#CDEEFD;}
	.st1{fill:#111224;}
	.st2{fill:#005BAB;}
</style>
<path class="st0" d="M1465.3,1556.3c-2.4-0.2-4.3-1.3-4.4-4.1c-0.1-6.7,1.6-10,4.9-9.9c0.2,0,0.3,0,0.5,0c2.2,0.5,4.3,2.1,3.2,4
	C1467.7,1549.5,1473.1,1555.7,1465.3,1556.3z M1465.5,1554.4c1.3-0.1,2.3-0.6,2.3-2.1c-0.1-1.7-1.5-2.1-2.8-2.4c-1.6-0.4-2,0.8-2,2
	C1463,1553.5,1464,1554.2,1465.5,1554.4z M1467.8,1546.5c0-1.4-0.6-2.2-2.1-2.2c-0.9,0-1.6,0.4-1.7,1.4c-0.2,1.4,0.9,2.1,2,2.5
	C1467.3,1548.5,1467.6,1547.5,1467.8,1546.5z"/>
<path class="st0" d="M1455.8,1556.6c-0.5-2.9-1.8-4.2-4.6-3.6c-0.7,0.2-1.7,0.3-2.1-0.8c-0.4-1.1,0.1-1.5,1.2-2.1
	c2.1-1.2,2.1-3.9,3.2-5.8c0.6-1,1-2.2,2.5-1.9c1.4,0.3,0.9,1.6,0.8,2.5C1456.4,1548.6,1458.4,1552.5,1455.8,1556.6z"/>
<path class="st1" d="M1465.5,1554.4c-1.5-0.1-2.6-0.8-2.5-2.4c0-1.2,0.4-2.4,2-2c1.2,0.3,2.7,0.7,2.8,2.4
	C1467.8,1553.7,1466.8,1554.2,1465.5,1554.4z"/>
<path class="st1" d="M1467.8,1546.5c-0.2,1-0.5,2.1-1.8,1.7c-1.1-0.4-2.1-1-2-2.5c0.1-1,0.8-1.4,1.7-1.4
	C1467.2,1544.3,1467.8,1545,1467.8,1546.5z"/>
<polygon class="st2" points="1346.8,29.4 1346.9,29.6 1346.6,29.6 "/>
<g>
	<path class="st2" d="M124.3,137.4c7.2,0,14.3,0,21.4,0c0.5,0,1,0,1.5,0c1.3,0.2,2.1,1,2.1,2.3c0.1,1.2-0.9,2.3-2.2,2.4
		c-0.4,0.1-0.9,0-1.3,0c-47.3,0-94.5,0-141.8,0c-0.4,0-0.8,0-1.2,0c-1.3-0.1-2.3-1.1-2.3-2.3c0-1.3,0.9-2.3,2.3-2.4
		c0.4,0,0.8,0,1.2,0c4.7,0,9.4,0,14.1,0c0.5,0,1,0,1.8,0c-2.6-2.8-4-5.8-4.6-9.2c-0.1-0.5-0.2-1-0.2-1.5c0-0.8-0.3-1.2-1.1-1.5
		c-1.1-0.3-1.6-1.2-1.5-2.3c0.2-10.9,1.8-21.6,6.4-31.6c1.4-3.1,3.3-6,6-8.1c1.5-1.2,2.9-1.2,3.8,0c0.9,1.2,0.5,2.4-0.8,3.8
		c-1.5,1.6-3,3.3-4,5.2c-4.6,8.9-6,18.5-6.6,28.5c3.2,0,6.3,0,9.9,0c0-2.9-0.1-5.8,0-8.7c0.4-14.2,2.5-28.1,6.3-41.8
		c0.2-0.8,0.5-1.5,0.7-2.3c2-5.1,5.6-7.5,10.4-7.1c5.3,0.5,9.8,4.3,10.7,9.2c0.8,4,0.2,7.6-2.9,10.5C51.2,81.6,51,83.2,51,85
		c0,12.5,0,25,0,37.5c0,3.6-0.4,7.1-1.9,10.4c-0.7,1.5-1.6,2.9-2.5,4.5c3,0,6,0,9.2,0c0.2-1,0.3-2.2,0.6-3.3c0.9-4.5,3.5-7.5,7.9-9
		c4.6-1.6,9.3-1.7,14.1-1.9c3.5-0.1,7.1-0.1,10.7-0.1c1.8,0,2.8,0.9,2.8,2.4c0,1.5-1.1,2.3-2.8,2.4c-6,0.2-12,0.3-18,0.6
		c-1.4,0.1-2.8,0.4-4.1,0.8c-4.1,1.1-5.8,3.4-6.1,8.2c0.5,0,1.1,0,1.6,0c17.6,0,35.2,0,52.8,0c3.8,0,5-1.1,5.3-4.9
		c0.2-1.9,0-3.9,0-6.1c-4.4,1.9-8.6,2.4-12.9,2.2c-2.9-0.1-5.9-0.5-8.8-0.8c-1.2-0.1-2-0.9-2.3-2.1c-0.8-3.1-1.5-6.1-2.3-9.2
		c-0.4-1.5,0.4-2.8,1.8-3.1c1.3-0.3,2.5,0.5,2.9,2c0.6,2.2,1.1,4.4,1.7,6.7c0.2,0.8,0.4,1.1,1.3,1.3c4.6,0.5,9.3,0.9,13.8-0.4
		c1.4-0.4,2.6-1.1,3.9-1.9c0.3-0.2,0.6-1.1,0.4-1.5c-3-8.3-6-16.6-9-24.9c-1.6-4.4-4.7-7.2-9-8.6c-4.3-1.4-8.6-2.6-12.9-3.9
		c-1.3-0.4-2.2-1.1-2.2-2.5c0-1.5,1.4-2.7,2.8-2.3c5.6,1.7,11.2,3.4,16.6,5.4c3.7,1.4,6.4,4.2,8.1,7.9c4.4,9.4,7.5,19.2,10.7,29.1
		c0.2,0.5,0.2,1.3-0.1,1.7c-0.7,1.2-0.6,2.4-0.3,3.7C125.7,130.4,125.6,132.1,124.3,137.4z M19.9,125.4c0.5,5.1,2.4,9.1,7.3,10.9
		c2.9,1.1,5.9,1.3,8.9,1c4.8-0.5,8-3.3,9.2-7.9c0.6-2.2,0.8-4.4,0.8-6.7c0.1-12.5,0.1-25,0-37.5c0-3.4,0.8-6.3,3.3-8.7
		c1.4-1.3,1.6-2.9,1.5-4.7c-0.3-3.4-2.8-5.9-6.4-6.4c-2.8-0.4-4.7,1.1-5.9,4.6c-0.1,0.1-0.1,0.3-0.2,0.4c-1.3,5.6-2.9,11.1-3.9,16.8
		c-2.1,11.6-2.7,23.3-2.8,35.1c0,2.3-0.8,3.1-3.2,3.1C25.8,125.4,22.9,125.4,19.9,125.4z"/>
	<path class="st2" d="M142.2,15c0.9,0,1.7,0,2.5,0c2.6,0.1,4.6,2.1,4.7,4.7c0.1,3.2,0.1,6.5,0,9.7c0,2.7-2.1,4.6-4.8,4.7
		c-0.7,0-1.5,0-2.4,0c0,0.7,0,1.3,0,1.9c0,3.4-1.9,5.3-5.3,5.3c-11.7,0-23.4,0-35.1,0c-2.4,0-4.9,0-7.3,0c-3.1,0-5.1-2-5.1-5.1
		c0-7.8,0-15.6,0-23.4c0-3.1,2-5.1,5.2-5.1c14.1,0,28.2,0,42.3,0c3.4,0,5.3,1.9,5.3,5.3C142.2,13.7,142.2,14.3,142.2,15z M94.2,36.5
		c14.4,0,28.8,0,43.1,0c0-2.1-0.2-4.1,1.4-5.7c1.6-1.6,3.7-1.3,5.7-1.4c0-3.3,0-6.3,0-9.5c-2-0.1-4.1,0.2-5.7-1.4
		c-1.7-1.6-1.4-3.7-1.5-5.8c-14.4,0-28.7,0-43.1,0C94.2,20.6,94.2,28.5,94.2,36.5z"/>
	<path class="st2" d="M80.4,61.6c2.5-6,2.5-11.5-1.2-16.9c-0.2,0.1-0.4,0.1-0.6,0.2c-2.6,1.5-5.4,1.6-8.2,0.6
		c-5.9-2.2-11.9-2.4-17.8,0.1c-3.8,1.6-7,3.9-9.4,7.1c-0.8,1-1.3,2.2-1.8,3.4c-0.6,1.5-1.7,2.3-3.1,1.9c-1.4-0.4-2-1.7-1.5-3.2
		c1-3.1,3-5.6,5.3-7.9c8.1-7.8,17.6-9.5,28.1-6.6c0.5,0.1,1.1,0.3,1.6,0.5c1.9,0.9,3.6,0.5,5.4-0.6c2.8-1.8,4.1-1.6,5.9,1.2
		c3.7,5.8,5.1,12.1,2.9,18.9c-0.2,0.6-0.3,1.2-0.6,1.7c-0.7,1.5-0.7,2.6,0.3,4.2c2.3,3.8,1.2,7.5-1.2,10.9c-0.8,1.1-1.2,2.2-1.4,3.5
		c-0.8,4.5-2.5,8.6-5.3,12.3c-5.4,6.9-16.6,8.3-23.5,2.8c-1.1-0.9-1.4-2.2-0.6-3.3c0.7-1.1,2.1-1.4,3.3-0.6c2.2,1.4,4.5,2.1,7,2.3
		c4.7,0.4,8.4-1.4,10.9-5.4c2.1-3.2,3.1-6.8,3.6-10.5c0.2-1.2,0.6-2.2,1.4-3.2c0.8-0.9,1.5-2.2,1.8-3.4c0.7-2.5-0.1-3.6-2.5-4.6
		c-0.7-0.3-1.3-0.9-1.8-1.4c-1.2-1.2-2.3-2.6-3.7-3.7c-2-1.7-4.4-2-6.7-0.5c-4.5,2.8-9.3,2.5-14.2,1.5c-1.4-0.3-2.2-1.5-1.9-2.8
		c0.3-1.4,1.3-2.1,2.7-1.9c0.9,0.1,1.8,0.3,2.7,0.4c2.7,0.3,5.4,0.3,7.9-1.1c5.2-3.1,10-1.8,13.9,1.8C78.9,60,79.6,60.7,80.4,61.6z"
		/>
	<path class="st2" d="M99,24.6c0-1.6,0-3.1,0-4.7c0-1.5,1-2.5,2.4-2.5c1.4,0,2.4,1,2.4,2.5c0,3.1,0,6.2,0,9.3c0,1.5-1,2.5-2.4,2.5
		c-1.4,0-2.3-1-2.4-2.5C99,27.7,99,26.1,99,24.6z"/>
</g>
</svg>
