<?xml version="1.0" encoding="utf-8"?>
<!-- Generator: Adobe Illustrator 24.3.0, SVG Export Plug-In . SVG Version: 6.00 Build 0)  -->
<svg version="1.1" id="Layer_1" xmlns="http://www.w3.org/2000/svg" xmlns:xlink="http://www.w3.org/1999/xlink" x="0px" y="0px"
	 viewBox="0 0 150 150" style="enable-background:new 0 0 150 150;" xml:space="preserve">
<style type="text/css">
	.st0{fill:#005BAB;}
</style>
<g>
	<path class="st0" d="M75,149.4c-19.2,0-38.4,0-57.7,0c-3.7,0-4.4-0.7-4.4-4.4c0-4.9,0-9.8,0-14.7c0.1-9.1,5.2-16.7,13.7-20
		c4.6-1.8,9.4-3.3,14-5.2c4.5-1.9,8.9-4.1,13.2-6.2c1.7-0.9,1.8-2.8,0.3-3.9C46.7,89.4,42.1,82.1,40,73.1c-0.1-0.6-0.8-1.4-1.4-1.5
		c-9.4-1.9-14.8-13.6-8.5-22.1c0.4-0.5,0.3-1.3,0.3-2c0-6.8-0.7-13.7,0.1-20.4c1.1-9.6,9.6-16.6,19.3-17.4c0.8-0.1,1.8-0.4,2.5-1
		c13.4-11,32.2-11,45.6,0c0.7,0.5,1.6,0.9,2.5,0.9c10.9,0.8,19.4,9.5,19.5,20.4c0.1,5.9-0.4,11.8-0.6,17.6c0,0.5,0.3,1.1,0.6,1.6
		c5.7,8.6,1.7,19.3-8.2,21.9c-1.2,0.3-1.5,0.8-1.8,1.9c-2,8.8-6.6,15.9-13.8,21.4c-1.7,1.3-1.6,3,0.2,4.2
		c7.4,5.3,16.2,7.4,24.5,10.5c5.7,2.1,10.6,5.1,13.6,10.6c1.7,3.1,2.6,6.4,2.7,9.9c0,5.4,0,10.7,0,16.1c0,2.7-1,3.7-3.8,3.7
		C113.8,149.4,94.4,149.4,75,149.4z M18.8,143.6c37.5,0,75.1,0,112.7,0c0-4.7,0-9.2,0-13.7c-0.1-6.4-3.9-12-9.9-14.3
		c-4-1.6-8.1-3-12.1-4.5c-2-0.7-4.1-1.5-6.1-2.2c-0.3,0.8-0.6,1.4-0.9,2c-2.5,6.2-5,12.4-7.6,18.6c-1.2,3-2.7,3.4-5.4,1.5
		c-4.4-3.1-8.8-6.1-13.2-9.3c-1-0.7-1.7-0.8-2.8,0c-4.3,3.1-8.8,6.2-13.2,9.3c-2.6,1.8-4.2,1.3-5.4-1.6c-2.5-6.2-5-12.4-7.6-18.6
		c-0.3-0.6-0.6-1.3-0.9-2c-6.3,2.3-12.5,4.4-18.6,6.9c-5.1,2.1-8.5,6-9.1,11.4C18.4,132.6,18.8,138.1,18.8,143.6z M79.7,45.2
		c2.5-4.9,6.9-7.7,12.8-7.5c6,0.2,9.9,3.6,12.5,9.3c0-4.8,0.3-9.1,0-13.4c-1.7-22-25.6-34.5-44.8-23.5c-6.3,3.6-10.7,8.8-13.3,15.5
		c-2.6,6.7-1.4,13.7-1.5,20.7c2.6-5.3,6.6-8.5,12.6-8.7c5.9-0.1,10.1,2.9,12.7,7.5C73.7,45.2,76.4,45.2,79.7,45.2z M66.9,61.8
		c-3.9,2.9-8,3.9-12.5,2.6c-4.5-1.3-7.4-4.4-9.1-8.5c0,4.9-0.5,9.7,0.1,14.5C47.2,84.3,59,94.8,72.6,95.7
		c15.8,1.1,28.5-9.5,31.3-22.4c1.2-5.3,0.8-10.9,1.2-16.4c0-0.4-0.1-0.8-0.2-1.6c-2,4.8-5.1,7.8-9.7,9c-4.6,1.2-8.7,0.1-12.7-3.1
		c0.8,2.7-0.5,3.8-2.3,4.7c-2.3,1.2-4.8,1.5-7.3,1C69.3,66.3,67.3,64.6,66.9,61.8z M66.2,51.3c0-4.4-3.7-8.1-8.1-8.2
		c-4.4-0.1-8.1,3.7-8.1,8.1c0,4.4,3.7,8.1,8.1,8.2C62.5,59.5,66.2,55.7,66.2,51.3z M91.7,43.2c-4.4,0.1-8,3.9-7.9,8.3
		c0.1,4.3,3.8,7.9,8.1,8c4.4,0,8.3-3.9,8.2-8.3C99.9,46.8,96.1,43.1,91.7,43.2z M70.7,117c-4.5-4.7-8.8-9.3-13.2-13.8
		c-2,1.2-3.8,2.4-5.7,3.5c2.5,6.2,5,12.2,7.5,18.4C63.1,122.4,66.8,119.7,70.7,117z M90.8,125.1c2.5-6.3,5-12.3,7.5-18.5
		c-1.9-1.2-3.7-2.3-5.6-3.5c-4.5,4.6-8.9,9.2-13.4,13.8C83.1,119.7,86.8,122.3,90.8,125.1z M88.4,99.2c-9,3.1-17.9,3-26.9,0
		c4.5,4.7,8.9,9.3,13.5,14.1C79.6,108.5,84,103.9,88.4,99.2z M44.8,16.9c-4.8,2.2-8.2,5.8-8.7,11.1C35.6,33.5,36,39.2,36,44.9
		c1-0.3,2.1-0.6,3.1-0.9c0.3-4.8,0.4-9.4,0.9-14C40.5,25.3,42.6,21,44.8,16.9z M114.4,44.9c0-5.1,0.1-9.9,0-14.8
		c-0.2-5.5-2.9-9.8-7.6-12.7c-0.4-0.2-0.9-0.4-1.8-0.7c5.7,8.6,6.3,17.8,5.7,27.2C112,44.2,113.1,44.6,114.4,44.9z M80.6,59.7
		c-0.7-2.3-1.7-4.8-2.3-7.4c-0.4-1.7-1.6-2-2.8-1.9c-1.3,0.1-3.1,0.5-3.5,1.4c-1.2,2.6-1.7,5.4-2.5,7.8
		C73.1,62.4,77.1,61.7,80.6,59.7z M39.2,49.7c-4.1,1.2-6.3,4.4-6.1,8.6c0.2,3.7,2.6,6.7,6.1,7.3C39.2,60.4,39.2,55.1,39.2,49.7z
		 M110.8,49.8c0,5.3,0,10.6,0,15.9c4-1.2,6.2-4.4,6-8.6C116.7,53.5,114.3,50.5,110.8,49.8z"/>
	<path class="st0" d="M75.1,30.5c3.1,0,6.2,0,9.3,0c2.3,0,3.4,0.9,3.4,2.7c0,1.7-1.2,2.9-3.3,3c-4.4,0.1-8.7,0-13.1,0
		c-2.1,0-4.2,0-6.4,0c-1.9-0.1-2.9-1.2-2.9-2.8c0-1.6,1.1-2.8,2.9-2.8C68.4,30.4,71.7,30.5,75.1,30.5z"/>
	<path class="st0" d="M74.9,26.6c-1.7,0-3.3,0.1-5,0c-1.8-0.1-2.9-1.2-2.9-2.8c0-1.6,1.2-2.8,3-2.8c3.2-0.1,6.5-0.1,9.7,0
		c1.8,0,3,1.2,3,2.8c0,1.7-1.2,2.8-3.1,2.9c-0.1,0-0.3,0-0.4,0C77.8,26.6,76.4,26.6,74.9,26.6C74.9,26.6,74.9,26.6,74.9,26.6z"/>
	<path class="st0" d="M75.1,81.4c-3.3,0-6.2-1-8.8-2.8c-1.5-1-1.8-2.6-1-3.9c0.8-1.4,2.4-1.8,4-0.8c3.8,2.4,7.5,2.4,11.4,0
		c1.6-1,3.1-0.6,4,0.7c0.9,1.3,0.5,2.9-0.9,4C81.2,80.4,78.2,81.3,75.1,81.4z"/>
	<path class="st0" d="M93.7,79.6c0.1,4.4-0.6,5.6-2.5,5.7c-1.9,0.1-2.7-1-2.9-4.2c-0.2-4.2-1.3-8.2-3.4-11.9c-1-1.8-0.6-3.3,0.8-4.1
		c1.4-0.8,2.9-0.3,4,1.5C92.3,71,93.6,75.8,93.7,79.6z"/>
	<path class="st0" d="M56.2,79.9c0.1-4.5,1.5-9.2,4-13.5c1-1.8,2.5-2.3,3.9-1.5c1.5,0.8,1.9,2.5,0.8,4.3c-2.2,3.7-3.3,7.8-3.4,12.1
		c-0.1,2.7-0.8,3.9-2.6,3.9c-1.8,0-2.8-1.3-2.8-4C56.2,80.9,56.2,80.7,56.2,79.9z"/>
</g>
</svg>
