<?xml version="1.0" encoding="utf-8"?>
<!-- Generator: Adobe Illustrator 24.3.0, SVG Export Plug-In . SVG Version: 6.00 Build 0)  -->
<svg version="1.1" id="Layer_1" xmlns="http://www.w3.org/2000/svg" xmlns:xlink="http://www.w3.org/1999/xlink" x="0px" y="0px"
	 viewBox="0 0 150 150" style="enable-background:new 0 0 150 150;" xml:space="preserve">
<style type="text/css">
	.st0{fill:#005BAB;}
</style>
<g>
	<path class="st0" d="M42.1,83.1c-0.1,0.3-0.2,0.5-0.3,0.8c-1,5.2-2,10.3-3,15.5c-1,5.1-2.1,10.2-3.1,15.3
		c-0.9,4.4-1.7,8.8-2.6,13.3c-0.6,3-1.2,6.1-1.8,9.1c-1,4.6-5.2,8.2-10,8.4c-4.4,0.2-7.9-1.4-10.2-5.1c-1.6-2.4-1.9-5.1-1.3-8
		c1.2-5.8,2.2-11.6,3.4-17.5c1.5-7.7,3-15.4,4.5-23.1c1.2-6.1,2.3-12.3,3.5-18.4c0.8-4.3,1.5-8.6,2.5-12.8c1.4-5.7,4.8-10,10-12.7
		c2.5-1.3,5.1-2,7.9-2c7.3,0,14.5,0,21.8,0c0.3,0,0.6,0,1-0.1c-5.4-2.8-9.3-7-11.6-12.6c-2.2-5.6-2.3-11.4-0.2-17.1
		C56.3,6,66.1-0.1,76.4,0.5c10.1,0.6,18.9,7.6,21.6,17.7c2.3,8.5-0.1,21-12.5,27.7c0.3,0,0.5,0.1,0.7,0.1c5.8,0,11.7,0,17.5,0
		c2.1,0,4.2,0,6.3,0.1c2.9,0.2,5.6,1.3,8.1,2.8c3,1.9,5.2,4.5,6.8,7.7c1.1,2.2,1.7,4.6,2.1,7c1,5.5,2.1,11,3.2,16.5
		c1.3,6.5,2.5,13,3.8,19.5c1.2,6.4,2.4,12.7,3.6,19.1c0.9,4.7,1.8,9.4,2.7,14.1c1,5.2-1.9,10.4-6.9,12.1c-4.2,1.4-8,0.7-11.4-2.2
		c-1.9-1.6-2.9-3.8-3.4-6.3c-1.2-6.3-2.5-12.6-3.7-18.8c-1.4-7.3-2.9-14.6-4.3-21.8c-0.8-3.9-1.6-7.8-2.3-11.7
		c-0.1-0.3-0.2-0.6-0.3-0.8c-0.1,0-0.1,0-0.2,0c0,0.3,0,0.5,0,0.8c0,19.5,0,38.9,0,58.4c0,2.8-1.2,4.9-3.5,6.3
		c-1.1,0.7-2.3,0.9-3.5,0.9c-13.3,0-26.6,0-40,0c-3.7,0-7.5,0-11.2,0c-4,0-7.1-3-7.1-7.1c0-19.5,0-39,0-58.5c0-0.3,0-0.5,0-0.8
		C42.3,83.2,42.2,83.1,42.1,83.1z M102.9,112.9C103,112.9,103,112.9,102.9,112.9c0-5.8,0-11.7,0-17.5c0-3.9,0-7.7,0-11.6
		c0-0.5,0-1,0.1-1.4c0.4-1.9,1.4-3.2,3.2-3.7c1.9-0.6,3.6-0.2,5,1.2c1,1.1,1.4,2.4,1.6,3.8c1.2,6.2,2.4,12.3,3.6,18.4
		c1.3,6.3,2.5,12.6,3.8,19c1,4.8,1.9,9.7,2.9,14.5c0.2,0.8,0.5,1.7,0.9,2.4c1.5,2.5,4.9,3.6,7.8,2.4c2.7-1.1,4.4-3.7,3.7-6.9
		c-0.5-2.4-0.9-4.8-1.4-7.2c-1.3-6.8-2.6-13.5-3.8-20.3c-1.1-5.9-2.3-11.8-3.4-17.7c-0.9-4.7-1.8-9.4-2.7-14.1
		c-0.8-4-1.5-8.1-2.4-12.1c-0.8-3.7-2.7-6.6-5.7-8.9c-2.7-2-5.8-2.8-9.1-2.7c-4.5,0-9,0-13.5,0c-13.9,0-27.8,0-41.7,0
		c-3.3,0-6.5,0-9.8,0c-3,0-5.8,0.9-8.2,2.7c-3.1,2.3-5.1,5.4-5.8,9.3c-1,5.2-2,10.4-3,15.6c-1.3,6.7-2.5,13.5-3.8,20.2
		c-0.8,4.4-1.7,8.7-2.5,13.1c-1.4,7-2.7,14-4,21c-0.2,1.3-0.5,2.5-0.2,3.8c0.7,2.6,3,4.4,5.6,4.6c3,0.3,6.1-1.8,6.7-4.9
		c1-5.3,2.1-10.5,3.1-15.8c1.3-6.5,2.6-13,3.9-19.6c1-4.9,1.9-9.7,2.9-14.6c0.3-1.3,0.5-2.6,0.8-3.9c0.6-2,2.3-3.5,4.2-3.7
		c2.1-0.2,3.9,0.8,4.8,2.7c0.3,0.7,0.5,1.4,0.5,2.2c0,4.5,0,8.9,0,13.4c0,3.3,0,6.5,0,9.8c0,11.8,0,23.6,0,35.4
		c0,2.1,0.8,2.9,2.9,2.9c2.4,0,4.7,0,7.1,0c13.3,0,26.6,0,39.9,0c1.4,0,2.8,0,4.1-0.1c1.1-0.1,1.8-0.9,1.9-2c0-0.2,0-0.5,0-0.7
		C102.9,132.3,102.9,122.6,102.9,112.9z M75,5.2c-10.5-0.1-19.2,8.5-19.3,19C55.7,34.8,64.3,43.5,75,43.6c10.4,0.1,19.2-8.6,19.3-19
		C94.3,13.8,85.6,5.1,75,5.2z"/>
	<path class="st0" d="M84.9,124.9c0-2.5,2.1-4.7,4.7-4.7c2.5,0,4.6,2.1,4.6,4.6c0,2.5-2.1,4.7-4.6,4.7
		C87.1,129.6,84.9,127.5,84.9,124.9z"/>
	<path class="st0" d="M57,122.3c-2.6,0-4.6-2.1-4.6-4.7c0-2.6,2.2-4.7,4.7-4.6c2.5,0,4.6,2.2,4.6,4.7
		C61.7,120.3,59.5,122.3,57,122.3z"/>
	<path class="st0" d="M73.2,92.4c0-2.6,2-4.6,4.6-4.6c2.6,0,4.6,2,4.6,4.6c0,2.6-2.1,4.7-4.7,4.7C75.3,97,73.2,95,73.2,92.4z"/>
	<path class="st0" d="M98.7,61.4c2.6,0,4.6,2.1,4.6,4.7c0,2.6-2.2,4.6-4.7,4.5c-2.6-0.1-4.6-2.2-4.5-4.8
		C94,63.4,96.1,61.4,98.7,61.4z"/>
	<path class="st0" d="M64.7,83.2c0,2.3-1.8,4.1-4,4.1c-2.3,0-4.1-1.8-4.1-4c0-2.3,1.8-4.1,4.1-4.1C63,79.1,64.7,80.9,64.7,83.2z"/>
	<path class="st0" d="M67.8,129.5c0-2.2,1.9-4.1,4.1-4.1c2.2,0,4,1.9,4,4c0,2.3-1.8,4.1-4.1,4.1C69.6,133.6,67.8,131.8,67.8,129.5z"
		/>
	<path class="st0" d="M90.6,98.7c2.2,0,4,1.8,4,4c0,2.3-1.8,4.1-4.1,4.1c-2.3,0-4-1.8-4-4.1C86.5,100.4,88.3,98.7,90.6,98.7z"/>
	<path class="st0" d="M76.7,66.6c2.2,0,4.1,1.9,4,4.1c0,2.3-1.9,4.1-4.1,4.1c-2.2,0-4.1-1.9-4-4.1C72.6,68.4,74.5,66.6,76.7,66.6z"
		/>
	<path class="st0" d="M56.1,68.2c0,1.9-1.6,3.4-3.5,3.4c-1.9,0-3.4-1.6-3.4-3.5c0-2,1.6-3.4,3.6-3.4C54.6,64.7,56.1,66.3,56.1,68.2z
		"/>
	<path class="st0" d="M78.8,111.4c0,1.9-1.6,3.4-3.5,3.4c-2,0-3.4-1.5-3.4-3.5c0-1.9,1.6-3.4,3.5-3.4
		C77.3,107.8,78.8,109.4,78.8,111.4z"/>
	<path class="st0" d="M66.1,100.4c0,1.9-1.6,3.5-3.5,3.5c-1.9,0-3.5-1.6-3.4-3.6c0-1.9,1.6-3.4,3.6-3.4
		C64.6,96.9,66.1,98.4,66.1,100.4z"/>
	<path class="st0" d="M87.1,82.2c0-1.9,1.5-3.4,3.5-3.4c2,0,3.4,1.5,3.4,3.5c0,1.9-1.6,3.5-3.5,3.5C88.6,85.7,87.1,84.1,87.1,82.2z"
		/>
</g>
</svg>
