<?xml version="1.0" encoding="utf-8"?>
<!-- Generator: Adobe Illustrator 24.3.0, SVG Export Plug-In . SVG Version: 6.00 Build 0)  -->
<svg version="1.1" id="Layer_1" xmlns="http://www.w3.org/2000/svg" xmlns:xlink="http://www.w3.org/1999/xlink" x="0px" y="0px"
	 viewBox="0 0 150 150" style="enable-background:new 0 0 150 150;" xml:space="preserve">
<style type="text/css">
	.st0{fill:#FFFFFF;}
	.st1{fill:#005BAB;}
</style>
<path d="M1039.5,165c8.9-7.7,16.8-14.5,24.7-21.3c9.4-8.2,18.8-16.4,28.3-24.5c8.3-7.1,18.9-7.8,28.8-2.3c1.9,1,4.2,1.2,7,0.9
	c-7.2-6.3-11.8-13.5-10.4-22.9c0.7-4.6,2.4-9.5,5.1-13.1c6.6-8.8,18.2-11,27.9-6.1c6.2,3.1,11.3,7.9,12,15
	c0.6,6.3-0.4,12.9-0.8,19.7c5.4-1.2,11.8-2.5,18.2-3.9c4.9-1.1,9.7-2.3,14.6-3.2c6.9-1.3,11.8,0.9,14.4,6.2
	c2.8,5.8,1.7,10.4-3.6,15.6c-0.7,0.6-1.2,1.5-2.4,3c8.3,0,15.7,0.3,23.1-0.2c1.5-0.1,3.4-2.9,4.1-4.8c5.1-14.2,10-28.5,14.9-42.8
	c2.2-6.3,4.3-8.1,9.3-7.7c6.6,0.6,9.5,5.3,7.3,11.5c-6.7,18.8-13.3,37.6-19.9,56.4c-0.2,0.6-0.2,1.3-0.3,2.2c1.1,0.3,2,0.7,2.9,0.6
	c9.2-0.8,9.6,2.8,10.4,10.3c0.2,2.3-0.3,4.6-0.4,6.9c-0.4,4.7-2.9,6.9-7.6,6.3c-5.1-0.6-6.1,1.9-6.1,6.4c0.1,27.8,0.1,55.7,0,83.5
	c0,2-0.5,4-0.7,5.9c-0.6,0-1.2,0-1.8,0c-0.3-1.9-0.8-3.8-0.8-5.7c-0.1-27.7,0-55.3,0-83c0-7.1,0-7.1-7.3-7.2
	c-23.5,0-47,0.1-70.5-0.1c-4.9,0-6.3,1.6-6.2,6.3c0.2,28.2,0.1,56.3,0.1,84.5c0,1.8-0.6,3.7-0.9,5.5c-0.7,0-1.3-0.1-2-0.1
	c-0.2-1.8-0.6-3.7-0.6-5.5c0-27.8,0-55.7-0.1-83.5c0-6.9-0.1-7-6.9-7.1c-7.2-0.1-8.7-1.5-9.1-8.6c-0.1-1.7-0.1-3.3,0-5
	c0.3-8.2,1.9-9.8,10.1-9.8c9.8,0,19.7,0,29.5,0c1.8,0,3.6-0.2,5.6-0.3c-0.4-3.6-0.7-6.6-1.1-10.4c-5.2,1.1-10,2.1-14.8,3.2
	c-9.6,2.2-19.1,4.3-28.6,6.7c-1.7,0.4-3.1,2.4-4.4,3.9c-2.7,3.2-4.8,6.8-7.7,9.6c-5.3,5-11.1,9.6-16.6,14.4c-1.2,1-2.2,2.3-4.3,4.5
	c4.5,0,7.5,0,10.6,0c13.6-0.2,17,2.5,19.9,15.6c4.7,21.2,9.5,42.5,14.1,63.7c1.2,5.3,1.2,10.8-3.3,14.9c-3.9,3.6-8.6,4.1-13.6,2.6
	c-6.6-2.1-8.1-7.9-9.5-13.6c-3.2-13.1-6.1-26.2-9.4-39.2c-0.3-1.3-2.6-2.9-4-2.9c-13.2-0.2-26.3,0.1-39.5-0.1
	c-4.4-0.1-5.8,1.4-5.7,5.7c0.2,12,0.1,24,0,36c0,1.8-0.5,3.6-0.8,5.4c-0.6,0-1.1,0.1-1.7,0.1c-0.3-1.7-0.9-3.5-0.9-5.2
	c-0.1-12.2-0.2-24.3,0-36.5c0.1-4-1.2-5.7-5.4-5.5c-8,0.3-16,0.1-24,0.1c-7,0-9.8-2.8-9.9-9.6c-0.3-31.8-0.7-63.6-1-95.5
	c-0.1-7,2.7-9.6,10.1-9.6c7.6,0,10.1,2.4,10.2,9.6c0.3,16.5,0.7,33,1,49.5C1039.1,161.4,1039.2,162.5,1039.5,165z M1117.5,120.2
	c-1-1.1-1.4-2-2-2.2c-6.7-2.2-13.4-2-18.9,2.6c-18,15.3-35.9,30.7-53.7,46.3c-5.9,5.2-7.1,12.2-5.5,19.7c1.7,7.4,5.3,10.1,12.9,10.1
	c17.5,0,35,0,52.5,0c7.2,0,9.9,2.9,9.9,10.1c0,2.5-0.2,5.1,0.4,7.4c3.4,14.6,6.9,29.1,10.5,43.6c1,4.2,2.1,8.6,6.8,10.3
	c5.9,2.2,14.5-1.6,12.5-12c-0.9-4.9-2.3-9.7-3.4-14.5c-4.2-18.5-8.3-36.9-12.5-55.4c-1.3-5.6-4.2-7.8-9.9-7.8
	c-5.8-0.1-11.7,0.2-17.5,0c-1.6,0-3.2-0.9-4.9-1.4c1-1.4,1.7-3.2,2.9-4.3c7.5-6.6,15.1-13,22.6-19.7c2.4-2.2,4.3-5,6.4-7.5
	c-0.3-0.4-0.6-0.8-1-1.2c-4.4,0.8-8.7,1.7-13.1,2.4c-7.1,1-13-3-14.2-9.5c-1.2-6.7,2.4-12.6,9.1-14.5
	C1110.7,122,1113.8,121.2,1117.5,120.2z M1111.7,143.4c1.8-0.3,4.4-0.7,7-1.2c14.9-3.4,29.8-6.7,44.7-10.2
	c12.5-2.9,24.9-5.7,37.3-8.8c4.4-1.1,6.9-5.7,6.1-9.6c-1-4.7-5-7.7-9.9-7.2c-2.5,0.3-4.9,0.8-7.4,1.4c-14.7,3.3-29.5,6.7-44.2,10
	c-12.5,2.9-24.9,5.7-37.3,8.8c-4.5,1.1-6.8,5.4-6.1,9.6C1102.6,140.4,1106.3,143.3,1111.7,143.4z M1194.4,162.7
	c16.8,0,33.7,0,50.5,0c5.5,0,6.4-1,6.4-7.4c0-6.8-1-8.3-6.3-8.3c-33.7,0-67.3,0-101,0c-5.7,0-6.3,1-6.2,8.7c0,6.4,0.5,7,6.1,7
	C1160.7,162.7,1177.5,162.7,1194.4,162.7z M1140.9,76.7c-10.5-0.2-19.5,8.7-19.8,19.6c-0.2,9.4,8.2,19.4,16.5,19.5
	c13,0.2,22.6-7.8,23-19.1C1160.8,86.6,1151.3,76.9,1140.9,76.7z M1065.9,202c-11.8,0-23.7,0-35.5,0c-3.3,0-6.5-0.3-6.6,4.6
	c0,4.9,3.4,4.1,6.3,4.1c17.8,0,35.7,0,53.5,0c6.5,0,13,0,19.5,0c3,0,5.4-0.8,5.3-4.4c-0.1-3.6-2.6-4.2-5.5-4.2
	C1090.5,202,1078.2,202,1065.9,202z M1033.8,134.6c-0.3,0-0.6,0-0.9,0c0-8.1,0-16.3,0-24.4c0-3.7-2.3-4.3-5.3-4.3
	c-2.7,0.1-5.1,0.4-5,3.9c0.4,16.8,0.7,33.5,1.3,50.3c0,1.3,2.4,3.3,3.9,3.6c4.1,0.7,6-1.5,6-5.7
	C1033.8,150.2,1033.8,142.4,1033.8,134.6z M1210.6,132.1c-7.5,0-15,0-22.5,0c-2.8,0-5.5-0.1-5.5,3.9c0,3.8,2.1,4.8,5.4,4.8
	c15.2-0.1,30.3-0.1,45.5,0c3.3,0,5.1-1.1,5.1-4.6c-0.1-3.2-2-4.2-5-4.2C1225.9,132.1,1218.2,132.1,1210.6,132.1z M1233.2,127.5
	c4.1-1.1,7.5,4,9.4-1.1c5.5-14.8,10.5-29.7,15.6-44.6c1.1-3.3-0.8-4.6-3.5-5.2c-3.6-0.8-4.6,2-5.5,4.5c-2.5,6.9-4.8,13.7-7.2,20.6
	C1239.2,109.8,1236.5,117.9,1233.2,127.5z M1037.2,167.1c-4.1,0.7-8,1.2-11.8,2.2c-1.1,0.3-2.6,2-2.6,3.1c-0.2,7-0.2,14,0,21
	c0,1.2,1.2,3.2,2,3.3c4.2,0.3,8.4,0.2,13.1,0.2C1032.1,185,1032,178.2,1037.2,167.1z"/>
<path class="st0" d="M1117.5,120.2c-3.7,1-6.8,1.8-9.9,2.7c-6.7,1.9-10.4,7.7-9.1,14.5c1.2,6.4,7.2,10.5,14.2,9.5
	c4.4-0.6,8.7-1.6,13.1-2.4c0.3,0.4,0.6,0.8,1,1.2c-2.1,2.5-4,5.3-6.4,7.5c-7.4,6.7-15.1,13.1-22.6,19.7c-1.3,1.1-2,2.8-2.9,4.3
	c1.6,0.5,3.2,1.3,4.9,1.4c5.8,0.1,11.7-0.1,17.5,0c5.7,0.1,8.7,2.3,9.9,7.8c4.2,18.4,8.3,36.9,12.5,55.4c1.1,4.9,2.5,9.7,3.4,14.5
	c2,10.4-6.6,14.1-12.5,12c-4.7-1.8-5.8-6.2-6.8-10.3c-3.6-14.5-7.1-29-10.5-43.6c-0.6-2.4-0.4-5-0.4-7.4c0-7.2-2.7-10.1-9.9-10.1
	c-17.5,0-35,0-52.5,0c-7.6,0-11.3-2.7-12.9-10.1c-1.7-7.5-0.5-14.5,5.5-19.7c17.8-15.6,35.6-31.1,53.7-46.3
	c5.5-4.6,12.2-4.9,18.9-2.6C1116.2,118.2,1116.6,119.1,1117.5,120.2z"/>
<path class="st0" d="M1111.7,143.4c-5.4,0-9.1-3-9.8-7.2c-0.7-4.2,1.7-8.5,6.1-9.6c12.4-3.1,24.9-6,37.3-8.8
	c14.7-3.4,29.5-6.7,44.2-10c2.4-0.5,4.9-1.1,7.4-1.4c4.9-0.5,8.9,2.4,9.9,7.2c0.8,3.9-1.7,8.5-6.1,9.6c-12.4,3.1-24.9,5.9-37.3,8.8
	c-14.9,3.4-29.8,6.8-44.7,10.2C1116.1,142.7,1113.5,143.1,1111.7,143.4z"/>
<path class="st0" d="M1194.4,162.7c-16.8,0-33.6,0-50.5,0c-5.7,0-6.1-0.6-6.1-7c0-7.7,0.6-8.7,6.2-8.7c33.7,0,67.3,0,101,0
	c5.2,0,6.2,1.5,6.3,8.3c0,6.4-0.8,7.4-6.4,7.4C1228,162.7,1211.2,162.7,1194.4,162.7z"/>
<path class="st0" d="M1140.9,76.7c10.4,0.2,19.9,9.9,19.6,20c-0.3,11.3-10,19.3-23,19.1c-8.2-0.1-16.7-10.2-16.5-19.5
	C1121.4,85.4,1130.3,76.5,1140.9,76.7z"/>
<path class="st0" d="M1065.9,202c12.3,0,24.7,0,37,0c2.9,0,5.4,0.6,5.5,4.2c0.1,3.6-2.3,4.4-5.3,4.4c-6.5,0-13,0-19.5,0
	c-17.8,0-35.7,0-53.5,0c-2.9,0-6.3,0.8-6.3-4.1c0-4.8,3.3-4.6,6.6-4.6C1042.2,202,1054,202,1065.9,202z"/>
<path class="st0" d="M1033.8,134.6c0,7.8-0.1,15.6,0,23.4c0.1,4.2-1.9,6.5-6,5.7c-1.5-0.3-3.9-2.3-3.9-3.6
	c-0.6-16.8-0.9-33.5-1.3-50.3c-0.1-3.5,2.3-3.9,5-3.9c3-0.1,5.3,0.6,5.3,4.3c0,8.1,0,16.3,0,24.4
	C1033.3,134.6,1033.6,134.6,1033.8,134.6z"/>
<path class="st0" d="M1210.6,132.1c7.7,0,15.3,0.1,23,0c3,0,4.9,0.9,5,4.2c0.1,3.4-1.8,4.6-5.1,4.6c-15.2-0.1-30.3-0.1-45.5,0
	c-3.4,0-5.5-0.9-5.4-4.8c0-4,2.7-3.9,5.5-3.9C1195.6,132.1,1203.1,132.1,1210.6,132.1z"/>
<path class="st0" d="M1233.2,127.5c3.3-9.5,6-17.6,8.8-25.7c2.4-6.9,4.8-13.8,7.2-20.6c0.9-2.5,1.9-5.2,5.5-4.5
	c2.8,0.6,4.7,1.9,3.5,5.2c-5.2,14.9-10.1,29.8-15.6,44.6C1240.8,131.4,1237.3,126.4,1233.2,127.5z"/>
<path class="st0" d="M1037.2,167.1c-5.2,11.1-5.1,17.9,0.6,29.8c-4.7,0-8.9,0.2-13.1-0.2c-0.8-0.1-2-2.1-2-3.3c-0.2-7-0.2-14,0-21
	c0-1.1,1.5-2.8,2.6-3.1C1029.1,168.3,1033,167.8,1037.2,167.1z"/>
<g>
	<path class="st1" d="M149.9,132.3c-0.4,1.5-0.7,2.9-1.2,4.3c-3.1,8.6-12.3,13.9-21.2,12.2c-9.4-1.8-16-9.9-15.7-19.2
		c0.3-9.4,7.2-17.2,16.4-18.4c10.3-1.4,19.6,5.4,21.4,15.6c0,0.3,0.2,0.5,0.3,0.8C149.9,129.2,149.9,130.7,149.9,132.3z M145.5,130
		c0-8.1-6.6-14.7-14.6-14.7c-8.1,0-14.8,6.6-14.8,14.7c0,8.1,6.8,14.8,14.8,14.7C138.9,144.7,145.5,138.1,145.5,130z"/>
	<path class="st1" d="M80.6,105.8c-2.9,1.4-5.2,0.7-7.5-1c-2.4-1.8-4.9-3.5-7.5-5.3c-1.4,2.5-2.8,4.8-4.1,7.2
		c-1.8,3.1-3.7,3.9-7.2,3.3c-0.4-0.1-1,0-1.4,0.2c-11.4,4.5-22.9,9.1-34.3,13.6c-0.5,0.2-1,0.6-1.4,1c-1.6,1.7-3.2,3.5-4.7,5.2
		c-2.2,2.3-5.1,3.1-7.8,2c-2.8-1.1-4.5-3.6-4.5-6.9c0-3.8,0-7.5,0-11.3c0-3.8,2.6-6.4,6.4-6.4c0.1,0,0.2,0,0.3,0
		c6.4,0.7,12.3-0.7,18-3.6c3.3-1.7,6.8-2.9,10.2-4.3c1-0.4,2-0.5,2.8,0.3c1.2,1.2,0.6,2.9-1.2,3.7c-3.6,1.5-7.3,3-10.9,4.5
		c-2,0.8-3.9,1.7-5.9,2.5c-0.8,0.3-1.2,0.7-1.2,1.7c0.1,2.2,0,4.4,0,6.8c10.5-4.2,20.8-8.2,31.3-12.4c-1.1-1.2-2.1-2.2-3.1-3.2
		c-1.7-1.7-3.3-3.4-5-5.1c-2.3-2.2-2.7-4.6-1.5-7.6C45.5,78,50.5,65.3,55.6,52.6c0.2-0.5,0.4-1,0.6-1.6c-1.5,0-2.9-0.1-4.3,0
		c-0.4,0-0.9,0.5-1.3,0.8c-3.5,3.5-7,7-10.6,10.5c-3.9,3.7-9.9,2.9-12.6-1.5c-1.9-3.1-1.6-7.1,1-9.7c4.4-4.4,8.9-8.6,13.4-12.8
		c1.7-1.6,3.8-2.4,6.1-2.6c4.5-0.3,8.9-0.5,13.4-0.8c0.9,0,1.5-0.3,2-1.1c2-3.5,4.8-6.1,8.9-7.3c-1.2-3.5-0.8-6.9,0.2-10.2
		c0.5-1.8,0.9-3.7,1.4-5.5c2.1-7.3,9.3-11.4,16.7-9.6c7.1,1.8,11.5,9,9.9,16.4c-0.6,2.7-1.3,5.3-2,7.9c-1,3.7-3.3,6.5-6.5,8.5
		c1.3,2.1,1.8,4.4,1.4,6.8c-0.1,0.3,0.3,0.9,0.6,1.1c1.3,1,2.7,1.9,4.1,2.8c0.5,0.3,1.2,0.4,1.8,0.4c5.8,0,11.7,0,17.5,0
		c5.5,0.1,9.1,5.3,7.1,10.3c-1.2,3.1-3.6,4.7-6.9,4.8c-6.7,0.3-13.3,0.6-20,0.6c-1.6,0-3.4-0.7-4.9-1.5c-1.9-1-3.6-2.3-5.5-3.6
		c-1.1,2.6-2.2,5.1-3.2,7.6c-1.2,2.8-2.3,5.6-3.5,8.3c-0.7,1.6-1.8,2.2-3.1,1.7c-1.2-0.5-1.6-1.8-0.9-3.3c4-9.5,8-19.1,12.1-28.6
		c0.7-1.7,0.9-3.4-0.3-5c-0.3-0.4-1-0.8-1.4-0.7c-4.7,0.3-8.6-1.1-11.9-4.5c-0.3-0.3-1.1-0.4-1.6-0.3c-2,0.3-3.7,1.6-5.2,3.7
		c0.9,0,1.6-0.1,2.4-0.1c1.5,0,2.5,0.7,2.6,2c0.1,1.3-0.7,2.2-2.2,2.3c-3.2,0.2-6.3,0.4-9.5,0.5c-1,0.1-1.9,0.1-3,0.2
		c0,2.3,0,4.6,0,6.6c2.8,0,5.5,0,8.2,0c0.6,0,1.3-0.1,1.9-0.1c1.4,0.1,2.2,1,2.2,2.2c0,1.2-0.8,2.1-2.2,2.1c-2.5,0.1-5,0-7.4,0
		c-2.3,6-4.5,11.6-6.7,17.3c0.4,0.2,0.7,0.4,1,0.5c11.7,5,23.4,9.9,35.1,14.9c3.7,1.6,4.7,3.3,4.2,7.3c0,0.3,0,0.6,0.2,0.8
		c3.1,2.9,3.6,6.9,4.1,10.8c1.2,9.4,2.4,18.7,3.6,28.1c0.1,1.1,0.5,1.9,1.4,2.6c1.5,1.3,3,2.7,4.4,4c2.4,2.2,3.1,5,2.1,7.8
		c-1,2.8-3.5,4.5-6.8,4.6c-3.3,0-6.5,0.1-9.8,0c-4.6-0.1-8.2-3.3-7.9-7.8c0.4-8.9-2-17.4-3.5-26C81.9,112.2,81.3,109.2,80.6,105.8z
		 M52.9,71.9c-0.3,0.5-0.5,0.9-0.6,1.3c-2.6,6.4-5.2,12.8-7.9,19.2c-0.5,1.2-0.3,2.1,0.6,3c3.2,3.1,6.3,6.3,9.4,9.4
		c1.6,1.7,2.3,1.6,3.4-0.4c4.5-7.8,8.9-15.5,13.4-23.3c0.2-0.4,0.4-0.8,0.6-1.2C65.5,77.2,59.3,74.5,52.9,71.9z M98.1,130.5
		c0-0.2,0-0.4,0-0.5c-1.3-10.4-2.7-20.8-4-31.1c-0.2-1.7-0.9-3.2-1.9-4c-2.4,2.2-4.8,4.4-7.1,6.6c-0.7,0.6-0.7,1.2-0.6,2.1
		c1.1,5.2,2,10.4,3.1,15.6c0.7,3.8,1.5,7.6,2.3,11.5C92.7,130.5,95.3,130.5,98.1,130.5z M67.8,95.7c3,2.1,5.9,4.1,8.8,6.1
		c0.9,0.7,1.7,0.4,2.4-0.4c3.6-3.8,7.3-7.5,10.9-11.2c1.3-1.3,1.1-2.2-0.7-3c-3.6-1.6-7.2-3.1-10.8-4.7c-0.8-0.3-1.6-0.6-2.4-1
		C73.1,86.3,70.5,91,67.8,95.7z M53.8,46.8c0-2.6,0-4.8,0-6.8c-1.8,0-3.5-0.1-5.2,0c-1.7,0.1-3.2,0.8-4.4,2
		C40.1,45.9,36,49.7,32,53.7c-0.7,0.6-1.2,1.6-1.4,2.5c-0.3,1.5,0.5,3,1.9,3.8c1.5,0.8,3.1,0.6,4.4-0.7c3-2.9,6.1-5.9,9-8.9
		C48.1,48.1,50.2,45.8,53.8,46.8z M76.3,19.2c-2,4.5,1.1,10.4,6.1,11.9c5.6,1.6,11.4-2.3,12.1-8.2c0-0.4-0.3-1-0.7-1.2
		c-1.8-1.1-3.6-2.2-5.4-3.3C86.3,17,86.3,17,84.4,19c-2,2.1-4.4,2.4-6.7,1.1C77.2,19.8,76.8,19.5,76.3,19.2z M95.7,17.6
		c0.2-0.1,0.4-0.1,0.5-0.2c0-1.5,0.2-3,0-4.4c-0.8-4.7-4.9-8-9.5-7.8c-4.8,0.2-8.6,3.8-9.2,8.8c0,0.2-0.1,0.6,0,0.7
		c0.9,0.6,1.8,1.4,2.8,1.7c0.4,0.1,1.2-0.7,1.6-1.2c2.5-2.7,4.6-3,7.8-1.1C91.7,15.2,93.7,16.4,95.7,17.6z M98.3,56.6
		c0.7,0,1.2,0,1.7,0c5.7-0.2,11.4-0.4,17.1-0.6c2.1-0.1,3.6-1.4,3.5-3.3c-0.1-1.9-1.5-3.1-3.7-3.1c-4.9,0-9.8,0-14.7,0
		c-0.8,0-1.6,0-2.5,0C99.2,51.9,98.7,54.1,98.3,56.6z M14.4,111.8c-2.7,0-5.2,0-7.7,0c-1.7,0-2.2,0.6-2.2,2.3c0,3.6,0,7.3,0,10.9
		c0,1.3,0.4,2.3,1.6,2.8c1.3,0.5,2.4,0.1,3.2-0.9c1.5-1.7,3-3.3,4.5-5c0.3-0.3,0.5-0.7,0.5-1.1C14.4,117.9,14.4,114.9,14.4,111.8z
		 M90.2,134.9c0,2.1,0,4.1,0,6c0,2.5,1.4,3.9,3.9,3.9c3.1,0,6.2,0,9.3,0c1.3,0,2.4-0.4,2.9-1.8c0.5-1.3,0-2.3-1-3.1
		c-1.7-1.5-3.3-3-5-4.5c-0.3-0.3-0.7-0.5-1.1-0.5C96.4,134.9,93.4,134.9,90.2,134.9z M94.1,55.3c0.4-2.3,0.9-4.3,1.2-6.4
		c0-0.3-0.1-0.7-0.3-0.8c-1.1-0.8-2.3-1.6-3.6-2.4c-0.9,2.1-1.7,4.1-2.6,6.1C90.5,52.9,92.1,54,94.1,55.3z"/>
</g>
</svg>
