<?xml version="1.0" encoding="utf-8"?>
<!-- Generator: Adobe Illustrator 24.3.0, SVG Export Plug-In . SVG Version: 6.00 Build 0)  -->
<svg version="1.1" id="Layer_1" xmlns="http://www.w3.org/2000/svg" xmlns:xlink="http://www.w3.org/1999/xlink" x="0px" y="0px"
	 viewBox="0 0 150 150" style="enable-background:new 0 0 150 150;" xml:space="preserve">
<style type="text/css">
	.st0{fill:#005BAB;}
</style>
<path d="M1682,139.1c4.7-1.5,8.7-3.5,12.9-4c14.9-1.6,29.7-3.1,44.7-3.9c17.8-1,34.8-5.2,51.3-11.9c1.8-0.7,3.5-2.9,4.3-4.8
	c3.2-8,7.1-14.8,16.2-17.5c4.6-1.4,8.7-4.2,13-6.4c6.1-3.1,10.1-3.1,12.8,0.1c2.8,3.3,2,7.6-3.3,13.8c3.5-0.4,6.2-0.6,8.8-1
	c6.5-1,10.9,1.4,11.9,6.8c0.9,4.4-2,8-8,9.6c-3.1,0.8-4.7,1.9-3.7,5.5c0.7,2.5,0.6,5.3,0.7,7.9c0.5,13.8-2.5,18.5-16,21.7
	c-7.5,1.8-15.4,1.8-23.1,3c-4.3,0.6-8.8,1.5-12.8,3.1c-17.3,6.8-34.1,15.3-51.9,20.6c-18.7,5.6-38.4,7.9-57.6,12.3
	c-7.2,1.7-12.1,0-17.5-4.6c-24.8-21.1-43.8-46.4-56.6-76.4c-2.5-5.8-5.3-11.5-7.8-17.3c-0.7-1.5-0.8-3.2-1.1-4.9
	c0.6-0.3,1.1-0.5,1.7-0.8c1.1,1.6,2.3,3.1,3.1,4.7c6.1,12.6,11.7,25.4,18.2,37.8c12,22.7,29.4,41,49.3,57.1c1.2,1,3.4,1.7,5,1.4
	c21.8-4.4,44-7.8,65.3-14c17.4-5.1,33.8-13.7,50.8-20.6c2.8-1.2,6-2.1,9-2c10.6,0.3,20.9-0.6,30.8-5c5-2.2,7.8-5.7,7.5-11.1
	c-0.2-5.3-0.7-10.6-1.3-15.9c-0.4-3.3,0.4-4.8,4-5.3c3.5-0.5,8.7-0.4,7.7-6.1c-1-5.3-5.4-3.5-8.9-3c-5.1,0.7-10.2,1.3-15.4,1.9
	c-1.2,0.1-2.4-0.1-5.2-0.2c2-2.1,2.8-3.4,4-4.3c2.8-2.1,5.9-3.9,8.4-6.3c1.1-1,1.5-3.7,0.9-5.1c-0.4-0.9-3.4-1.8-4.6-1.3
	c-7.9,3.5-16.1,6.7-23.2,11.5c-3.6,2.4-5.6,7.7-7.3,12.1c-1.5,3.8-3.8,5.8-7.4,7.3c-23.8,9.9-48.9,12-74.3,12.9
	c-9.5,0.3-18.9,3-28.3,4.8c-6.6,1.2-10.7,5.6-14.2,11c-0.8,1.2-2.5,1.9-3.8,2.8c0.2-1.7,0.4-3.4,0.7-5c0.2-0.8,0.7-1.6,1.4-2.1
	c5.7-4.7,4.4-10.6,3.7-16.8c-3.2-29.5-16.6-54.8-32-79.4c-1.3-2-1.5-4.6-2.2-7c1.8,1.6,4,2.9,5.2,4.9c10.7,17.5,21.9,34.8,27.1,54.8
	c2.6,9.9,4.1,20.2,6.1,30.3C1681.4,135.8,1681.6,137.1,1682,139.1z"/>
<path d="M1630.1,71.8c0-0.3-0.2-1.2,0.1-1.9c0.4-1,1.2-1.9,1.8-2.8c0.6,0.8,1.7,1.7,1.7,2.5c1.1,22.1,12.1,39.8,25.4,56.4
	c0.6,0.8,1.5,1.5,1.8,2.3c0.4,1.1,0.2,2.3,0.2,3.5c-1-0.3-2.4-0.3-3-1c-13.7-16.2-24.8-33.8-27.9-55.4
	C1630.1,74.4,1630.1,73.4,1630.1,71.8z"/>
<path d="M1713.5,235.4c-1.5,1-2.5,1.7-3.9,2.7c-3-7.4-5.8-14.4-8.7-21.4c0.2-0.2,0.5-0.4,0.7-0.5c3.3,4.3,6.7,8.6,10.2,13.2
	c1.3-1.1,2.4-2,4-3.2c4.1,4.9,8.6,9.4,11.9,14.6c2.6,4.2-2.4,5.9-4.7,9.1C1719.7,244.8,1716.7,240.3,1713.5,235.4z"/>
<path d="M1640.2,245.7c2.9-5.1,5.7-10,8.7-15.2c-1.3-0.8-2.4-1.4-4-2.4c5-5.7,9.9-11.4,14.9-17c0.3,0.2,0.6,0.4,0.9,0.6
	c-2.3,4.7-4.5,9.4-6.9,14.4c1.6,0.8,2.8,1.5,4,2.2c0,0.7,0.1,1.2-0.1,1.6c-1.7,4.1-3.8,8.2-5.2,12.4c-1.5,4.6-3.9,6.2-8.5,4.2
	C1642.9,246.1,1641.7,246.1,1640.2,245.7z"/>
<path d="M1606.9,219.4c5-3,9.7-5.7,14.6-8.6c-0.8-1.4-1.4-2.4-2.3-4.1c7.4-2.6,14.5-5.1,21.6-7.5c0.2,0.3,0.3,0.6,0.5,0.9
	c-4.5,3.1-9,6.2-13.8,9.4c1.2,1.5,2.1,2.8,3.2,4.1c-3.8,2.8-7.3,5.6-10.9,8.2C1613,226.8,1613,226.8,1606.9,219.4z"/>
<path d="M1678.7,258.9c0-4.9,0-9.3,0-13.7c0-3.5,0-3.5-4.5-3.6c1.6-7.3,3.1-14.5,4.7-21.6c0.4,0,0.7,0,1.1,0
	c0.3,5.1,0.7,10.2,1,15.7c1.8-0.1,3.2-0.2,4.6-0.3c0.2,0.2,0.5,0.5,0.5,0.7c0.4,4.1,0.8,8.2,1.1,12.4
	C1687.8,257,1689.2,256.2,1678.7,258.9z"/>
<g>
	<path class="st0" d="M135.3,43.1c-0.8,0.2-1.7,0.4-2.5,0.7c-3.6,1.7-7.4,3.1-10.7,5.3c-1.9,1.2-3.4,3.6-4.1,5.8
		c-1,3.4-3.2,5-6.3,6.2C99.5,66,86.9,67.9,73.9,68c-6.7,0-13.3,0.5-19.7,2.7c-3.7,1.2-6.4,3.2-8.2,6.6c-0.8,1.5-2.1,2.4-3.4,1.4
		c-0.8-0.6-0.6-2.4-0.8-3.6c0-0.2,0.2-0.6,0.4-0.7c4.9-4.4,2.9-9.7,2.1-14.8c-2.1-14.6-9.3-27.1-16.8-39.4c-0.5-0.8-1-1.6-1.5-2.4
		c-1-1.4-1.8-3.1,0.1-4.2c2-1.2,3.1,0.3,4.1,1.8c1.4,2.4,2.9,4.7,4.3,7.1c7.2,11.8,13,24.2,14.9,38c0.3,2,0.7,4.1,1,5.9
		c5.2-1,10.1-2.3,15.1-2.8c7.5-0.7,15-0.8,22.5-1.4c8.1-0.6,15.7-3.1,23.1-6.1c0.8-0.3,1.6-1.4,1.9-2.3c1.9-5.3,5-9.2,10.7-10.9
		c2.6-0.8,5-2.4,7.4-3.7c2.3-1.3,4.7-1.7,7-0.1c2.3,1.7,2.7,4,2,6.6c-0.1,0.2,0,0.5,0,1c1,0,1.9,0,2.9,0c3.3,0,5.8,1.8,6.3,4.7
		c0.6,3.4-0.9,6-4.3,7c-2,0.6-2.4,1.5-2.1,3.5c1.4,11.5-1.2,15.3-12.5,17.6c-3.5,0.7-7.2,0.5-10.8,0.9c-2.1,0.2-4.4,0.5-6.2,1.4
		c-15.1,7.7-30.9,13.3-47.7,16c-6.4,1-12.7,2.4-19.1,3.7c-2.1,0.4-3.6-0.1-5.2-1.4C25.4,87.9,13.6,72.2,5.7,53.6
		c-1.4-3.3-3-6.6-4.5-9.9c-0.7-1.5-1.1-3.1,0.7-3.9c2-0.9,2.9,0.5,3.7,2.1C10,50.8,14,60,19,68.6C25.1,79.3,33.8,88,43.3,95.7
		c0.9,0.7,2.5,1.2,3.6,1c18.3-3.5,36.9-5.9,54-14.1c4-1.9,8-3.9,12.2-5.7c1.5-0.6,3.3-1,4.9-1c5.7,0.2,11.2-0.3,16.5-2.5
		c2.9-1.2,4.3-2.9,4.1-6.1c-0.2-2.7-0.4-5.3-0.7-8c-0.4-3.4-0.1-3.8,3.2-4.8c1.2-0.4,3.5,0.3,3.3-2c0-0.3-2.4-0.7-3.7-0.6
		c-2.7,0.2-5.3,0.6-7.9,1.1c-1.7,0.3-3.6,0.6-4.1-1.3c-0.2-1,0.9-2.6,1.9-3.5c1.6-1.6,3.6-2.8,5.5-4.1
		C135.7,43.7,135.5,43.4,135.3,43.1z"/>
	<path class="st0" d="M20.8,24.8c1,1.6,2.2,2.5,2.2,3.5c0.5,13.1,7.2,23.4,15.1,33.1c1.1,1.3,1.9,2.8,0.2,3.8
		c-0.9,0.5-3,0.1-3.6-0.7C26.8,55.4,20.4,45.3,18.6,33c-0.2-1.6-0.4-3.3-0.2-4.8C18.6,27.2,19.7,26.4,20.8,24.8z"/>
	<path class="st0" d="M73,132.1c-2-2.9-3.7-5.6-5.6-8.4c-0.7,0.5-1.3,1-2.2,1.6c-1.7-4.2-3.4-8.4-5.1-12.5c0.1-0.1,0.3-0.2,0.4-0.2
		c1.9,2.5,3.9,5,5.9,7.7c0.8-0.6,1.5-1.1,2.3-1.7c2.3,2.8,4.7,5.4,6.9,8.3c0.4,0.5,0,1.7-0.4,2.4C74.8,130.2,73.9,130.9,73,132.1z"
		/>
	<path class="st0" d="M37.1,110.3c-1.3,2.7-2.6,5.4-4,8.3c1,0.5,1.8,0.8,2.6,1.3c-0.5,1.3-1,2.7-1.6,4c-0.5,1.1-1,2.3-1.5,3.4
		c-1.8,4.2-2.4,4.4-6.9,2.2c1.5-2.7,3-5.4,4.6-8.3c-0.8-0.5-1.4-1-2.2-1.5c2.9-3.3,5.7-6.5,8.5-9.7C36.8,110,37,110.2,37.1,110.3z"
		/>
	<path class="st0" d="M47.6,136.9c0-3.2,0-6.2,0-9.5c-0.9-0.1-1.6-0.2-2.7-0.3c1-4.4,1.9-8.7,2.9-13c0.1,0,0.3,0,0.4,0
		c0.1,3.1,0.3,6.2,0.5,9.5c1.1,0.1,2,0.2,3.1,0.3c0.3,3.4,0.7,6.8,0.9,10.2C52.7,136.1,52.1,136.4,47.6,136.9z"/>
	<path class="st0" d="M13.6,107.2c4-1.4,7.8-2.7,11.7-4c0.1,0.2,0.2,0.4,0.3,0.6c-2.4,1.6-4.8,3.3-7.3,5c0.6,0.9,1.1,1.5,1.7,2.4
		c-2.9,2.2-5.6,4.4-8.5,6.3c-0.6,0.4-1.9,0-2.6-0.4c-0.9-0.5-1.7-1.5-2.7-2.4c3-1.7,5.6-3.3,8.5-5C14.3,108.9,14,108.1,13.6,107.2z"
		/>
	<path class="st0" d="M45.4,83.7c3.7,0.2,6.7,1.7,8.8,4.7c1,1.4,1.3,3-0.4,3.9c-0.8,0.4-2.6-0.1-3.2-0.8c-2.2-2.6-4.6-3.3-7.9-2.2
		c-1,0.3-2.4-0.7-3.6-1.1c0.6-1.1,1-2.6,1.9-3.2C42.3,84.2,43.9,84.1,45.4,83.7z"/>
</g>
<path d="M1664.8,171.2c3.5-1.3,6-2.6,8.6-3c6.5-0.9,11.7,1.6,15.4,7c0.5,0.7,0.1,2,0.1,3.1c-0.9-0.1-2.3,0.2-2.6-0.3
	c-4.8-6.5-11.1-7.1-18.1-4.5c-0.3,0.1-0.7-0.1-0.9-0.2C1666.9,173.1,1666.7,172.8,1664.8,171.2z"/>
</svg>
