<?xml version="1.0" encoding="utf-8"?>
<!-- Generator: Adobe Illustrator 24.3.0, SVG Export Plug-In . SVG Version: 6.00 Build 0)  -->
<svg version="1.1" id="Layer_1" xmlns="http://www.w3.org/2000/svg" xmlns:xlink="http://www.w3.org/1999/xlink" x="0px" y="0px"
	 viewBox="0 0 150 150" style="enable-background:new 0 0 150 150;" xml:space="preserve">
<style type="text/css">
	.st0{fill:#005BAB;}
</style>
<g>
	<path class="st0" d="M92.2,73.6c-0.4,0-1.6,0.1-2.8,0.3c-7.8,1.9-15-4.9-13.6-12.9c0.2-1.2,0.3-2.6,1-3.5c3.2-4.1,0.9-6.7-2-9.7
		C62,34.8,49.4,21.4,36.6,8.1C36,7.5,35.2,7,34.9,6.3c-0.5-1.4-0.7-2.9-1.1-4.4c1.4,0.4,3.3,0.3,4.2,1.2
		c6.7,6.7,13.2,13.6,19.8,20.5c8.3,8.6,16.4,17.3,24.8,25.8c2.1,2.1,2.3,3.7,0.6,6.3c-1.4,2-2.5,4.6-2.8,7c-0.5,4.5,3.6,7.6,7.9,6.7
		c1.8-0.4,3.6-0.4,5.4-0.3c3.2,0,5.3-1.6,4.6-4.6c-0.8-3.4-2.2-7-4.2-9.9c-10-13.8-20.3-27.4-30.4-41.1c-0.7-0.9-1.6-1.7-1.8-2.7
		c-0.3-1,0.1-2.1,0.2-3.2c1.1,0.1,2.3,0,3.2,0.5c0.8,0.4,1.3,1.4,1.8,2.2C77.3,24,87.6,37.6,97.6,51.4c2.5,3.5,4.4,7.6,5.4,11.8
		C104.5,69.5,99.6,74.3,92.2,73.6z"/>
	<path class="st0" d="M61.1,144.3c2.3-19.9,3.7-40.1,11.5-59c1.3-3.1,0.6-5.6-1.9-8.2C48,53.7,25.4,30.1,2.8,6.5
		C1.6,5.2-0.3,3.6,1.8,2C2.4,1.5,5,2.2,5.9,3.2C29,27.1,52,51.1,75.1,75c3.6,3.7,3,7.8,1.8,12.3c-2.9,10.7-5.9,21.3-8.1,32.2
		c-1.7,8.2-2.1,16.7-3,25c-0.1,0.6,0.1,1.4-0.3,1.8c-0.7,0.9-1.7,1.7-2.5,2.5c-0.6-1-1.4-2-1.9-3.1
		C60.8,145.3,61.1,144.8,61.1,144.3z"/>
	<path class="st0" d="M121.3,72.1c-1.3,5.1-2.1,9.4-3.5,13.5c-5.1,15-10.5,29.8-15.7,44.8c-1.8,5.2-3.2,10.5-5.1,15.6
		c-0.4,1.1-2.1,1.8-3.1,2.7c-0.4-1.3-1.5-2.9-1.1-4c5.6-17.8,11.4-35.5,17.3-53.2c1.4-4.1,3.6-8,5-12.1c1.9-5.8,1.2-11.5-2-16.9
		C104.8,49,96.7,35.4,88.4,21.9c-3.2-5.3-6.9-10.3-10.1-15.6c-0.7-1.2-1.1-3.8-0.4-4.4c2-1.7,3.2,0.3,4.2,1.9
		c11.5,18.5,23,37,34.3,55.7C118.7,63.4,119.8,68.1,121.3,72.1z"/>
	<path class="st0" d="M92.4,77.3c9.1-0.1,15.5,8.8,12.3,17.5c-3.8,10.4-7.7,20.7-11.7,31c-0.4,1-2,1.6-3,2.4
		c-0.4-1.2-1.6-2.7-1.2-3.6c3.3-9.6,6.5-19.3,10.5-28.7c3-7,0.4-13.8-6.4-13.8c-2.1,0-4.9,1.3-6.1,2.9c-1,1.3-0.7,4.3,0.2,6
		c1.4,2.5,1.4,4.6,0.5,7.2c-5,14.8-7.1,30.3-9.3,45.7c-0.3,1.8,0.3,5-2.7,4.6c-3.3-0.3-2-3.4-1.8-5.3c2.1-15.7,4.3-31.3,9.3-46.5
		c0.4-1.2-0.1-2.9-0.6-4.1C79,84.8,83.8,77.4,92.4,77.3z"/>
	<path class="st0" d="M133.8,88.5c-1,1.2-1.4,2.1-2.1,2.3c-0.7,0.2-1.8,0.1-2.3-0.4c-1.8-2-3.5-4-5-6.2c-0.4-0.5-0.3-1.7,0.1-2.3
		c0.4-0.6,1.8-1.1,2.1-0.9C129.1,83.4,131.4,85.9,133.8,88.5z"/>
	<path class="st0" d="M133.7,60.5c-2.3,2.5-4.6,5-7,7.4c-0.2,0.2-1.7-0.3-2.1-0.9c-0.4-0.6-0.5-1.8-0.1-2.3c1.5-2.2,3.1-4.3,5-6.2
		c0.5-0.5,1.8-0.4,2.6-0.2C132.6,58.4,132.9,59.3,133.7,60.5z"/>
	<path class="st0" d="M130.6,78.4c-2-1.3-5-2.3-5-3.4c0-3.3,3-2.4,5-2.3c2.1,0.1,5.6-1.4,5.6,2.4C136.2,76.1,132.9,77.2,130.6,78.4z
		"/>
	<path class="st0" d="M106.4,14.3c-1.5-1.7-2.6-2.9-3.8-4.1c0.9-0.7,2.2-2.2,2.6-2c1.4,0.7,2.6,2,3.7,3.3
		C109,11.6,107.6,13,106.4,14.3z"/>
	<path class="st0" d="M141.7,43.3c-1.4,1.1-2.3,1.7-3.1,2.4c-1-1.4-2.2-2.8-3-4.3c-0.1-0.3,2-2.1,2.1-2
		C139,40.4,140.1,41.7,141.7,43.3z"/>
	<path class="st0" d="M141.5,87.9c1.4-1.6,2.4-2.8,3.4-3.9c0.8,1,2.3,2.1,2.1,2.9c-0.3,1.4-1.6,2.5-2.5,3.7
		C143.8,89.9,142.9,89.1,141.5,87.9z"/>
	<path class="st0" d="M149.1,75.7c-1.4,1.5-2.3,2.5-3.2,3.5c-0.8-1.1-2.2-2.3-2.2-3.4c0-1.1,1.5-2.2,2.3-3.3
		C146.9,73.4,147.8,74.3,149.1,75.7z"/>
	<path class="st0" d="M123.7,19.7c1.6,2.2,2.9,3.5,3.7,5.1c0.1,0.3-1.9,2.1-2.1,2c-1.4-1-2.7-2.2-3.6-3.6
		C121.4,22.9,122.6,21.6,123.7,19.7z"/>
	<path class="st0" d="M141.1,108.3c-1.9,1.6-3.2,2.8-4.5,4c-0.6-0.9-2-2.1-1.8-2.5c0.7-1.4,2-2.7,3.2-3.8
		C138.2,105.8,139.6,107.1,141.1,108.3z"/>
	<path class="st0" d="M130.3,123.1c-1.1-1.9-2.2-3.2-2-3.7c0.8-1.4,2.2-2.5,3.4-3.8c0.8,0.8,2.3,1.9,2.1,2.2
		C133.1,119.5,131.9,120.8,130.3,123.1z"/>
	<path class="st0" d="M122.9,131.3c-1.3-1.6-2.6-2.9-2.4-3.2c0.9-1.4,2.1-2.7,3.4-3.7c0.2-0.2,2.4,1.6,2.3,1.8
		C125.5,127.7,124.4,129.2,122.9,131.3z"/>
	<path class="st0" d="M131.3,28.4c1.6,2.2,2.8,3.4,3.5,4.9c0.2,0.5-1.2,1.6-1.9,2.5c-1.2-1.2-2.6-2.3-3.5-3.7
		C129.1,31.6,130.3,30.3,131.3,28.4z"/>
	<path class="st0" d="M118.7,134.2c-2.3,1.3-3.8,2.3-5.5,2.9c-0.3,0.1-1.3-1.5-1.9-2.4c1.3-1,2.6-2.3,4.1-3
		C115.8,131.5,117,132.9,118.7,134.2z"/>
	<path class="st0" d="M120.1,17.2c-1.9,1.1-3.2,2.3-3.7,2c-1.4-0.8-2.6-2.1-3.8-3.3c0.7-0.8,1.8-2.3,2.2-2.1
		C116.4,14.5,117.8,15.7,120.1,17.2z"/>
	<path class="st0" d="M96,10.2c-1.8-1.7-2.9-2.9-4.1-4c0.9-0.7,2-2.2,2.7-2c1.4,0.4,2.7,1.5,3.7,2.6C98.4,6.9,97.1,8.6,96,10.2z"/>
	<path class="st0" d="M146,53.7c-1.4,1.2-2.2,1.9-3,2.6c-1-1.3-2.2-2.5-2.8-4c-0.2-0.5,1.2-1.6,1.9-2.4
		C143.2,51,144.4,52.2,146,53.7z"/>
	<path class="st0" d="M145.7,98.4c-2,1.4-3.2,2.4-4.5,3.3c-0.6-0.9-1.9-2.1-1.6-2.6c0.7-1.4,2-2.5,3.1-3.8
		C143.4,96.1,144.2,96.9,145.7,98.4z"/>
	<path class="st0" d="M148.5,64.9c-1.4,1.3-2.3,2.1-3.1,2.8c-0.9-1.3-2.1-2.6-2.5-4.1c-0.2-0.6,1.4-1.7,2.1-2.6
		C146,62.2,147,63.3,148.5,64.9z"/>
</g>
</svg>
