<?xml version="1.0" encoding="utf-8"?>
<!-- Generator: Adobe Illustrator 24.3.0, SVG Export Plug-In . SVG Version: 6.00 Build 0)  -->
<svg version="1.1" id="Layer_1" xmlns="http://www.w3.org/2000/svg" xmlns:xlink="http://www.w3.org/1999/xlink" x="0px" y="0px"
	 viewBox="0 0 150 150" style="enable-background:new 0 0 150 150;" xml:space="preserve">
<style type="text/css">
	.st0{fill:#005BAB;}
</style>
<g>
	<path class="st0" d="M40.9,0.2c8.8,0,17.6,0,26.4,0c1.7,0,2.7,0.6,3.5,2.1C79.7,17.5,88.7,32.7,97.7,48c2.7,4.6,3.3,9.3,2,14.4
		c-4.9,19-9.8,38-14.8,57c-1.1,4.4,0.1,6.7,4.5,8.1c5,1.5,9.9,3.1,14.9,4.6c5,1.6,6.9,6,4.3,10.6c-2.5,4.5-6.3,7.1-11.5,7.1
		c-3.1,0-6.2-0.2-9.2-0.9c-7.2-1.6-14.2-1.7-21.4,0c-2.6,0.6-5.4,0.8-8.1,0.9c-6.6,0.1-11.2-4.4-11.6-11c-0.2-3.6,0.4-7.1,2-10.3
		c2.9-5.6,3.5-11.6,3.6-17.7c0.3-8.6,0.3-17.3,0.6-25.9c0.3-7.9,1.4-15.7,4.1-23.2c0.2-0.5,0-1.4-0.4-1.8c-3.5-3.6-7-7.2-10.8-10.6
		c-6-5.4-12.5-10.3-18.3-16c-8.4-8.3-13.5-18.7-16.4-30.1C11,1.3,11.8,0.2,14,0.2C23,0.2,31.9,0.2,40.9,0.2z M16.6,4.4
		c1.9,8.5,7.6,19.2,14.7,26c5.4,5.2,11.3,10,17.1,14.9c4.8,4,9.5,8.1,13.2,13.3c0.7,1,1,2,0.5,3.2C59,69.1,58,76.7,57.6,84.5
		c-0.4,9-0.4,18-0.7,27c-0.2,6.4-0.8,12.7-3.9,18.5c-1.4,2.6-1.9,5.4-1.8,8.4c0.2,4.6,3,7.3,7.7,7c2-0.1,4.1-0.3,6.1-0.8
		c6.9-1.7,13.7-1.8,20.7-0.7c3.6,0.6,7.3,1.2,10.9,1.5c3.4,0.2,6.1-1.4,7.9-4.3c1.6-2.4,1-3.9-1.7-4.8c-5.1-1.6-10.1-3.2-15.2-4.7
		c-5.9-1.8-8.6-6.6-7.1-12.6c4.9-19.2,9.7-38.4,14.7-57.6c1.1-4.3,0.6-8.2-1.7-12.1C85,34.9,76.4,20.4,67.9,5.9
		c-0.6-1.1-1.3-1.5-2.6-1.5c-15.7,0-31.3,0-47,0C17.8,4.4,17.3,4.4,16.6,4.4z"/>
	<path class="st0" d="M116.6,38.4c-1.6,2.2-3.2,4.3-4.8,6.3c-0.3,0.4-0.6,0.8-0.9,1.1c-0.9,0.7-2,0.8-2.9,0.1
		c-1-0.8-1.2-1.8-0.5-2.8c2.2-3,4.5-6.1,6.9-9c0.4-0.5,1.7-0.6,2.5-0.4c1.2,0.3,2.4,1,3.7,1.6c2.2-2.7,4.3-5.4,6.5-8.1
		c1.5-1.9,2.7-2.4,3.9-1.5c1.2,0.9,1,2.4-0.4,4.2c-2.4,3-4.7,6-7.1,9c-1.2,1.5-1.9,1.7-3.7,0.9c-0.5-0.2-1-0.5-1.6-0.7
		C117.8,38.9,117.3,38.7,116.6,38.4z"/>
	<path class="st0" d="M124.8,62.7c3.5-0.8,6.9-1.6,10.3-2.4c1.9-0.4,3.1,0,3.5,1.4c0.4,1.4-0.6,2.5-2.5,3c-3.8,0.9-7.7,1.8-11.5,2.7
		c-1.9,0.4-2.8,0-3.6-1.8c-1.5-3-1.5-3-4.8-2.2c-1.6,0.4-3.3,0.8-4.9,1.2c-1.6,0.4-2.9-0.3-3.2-1.5c-0.3-1.2,0.6-2.4,2.2-2.8
		c3.1-0.8,6.2-1.5,9.3-2.2c1.9-0.4,2.7-0.1,3.5,1.7c0.4,0.9,0.9,1.8,1.3,2.7C124.5,62.5,124.6,62.6,124.8,62.7z"/>
	<path class="st0" d="M117.5,52c-1.1,1-2,1.9-2.9,2.8c-0.9,0.9-1.9,1-3,0.2c-1-0.7-1.1-2.1-0.3-3.1c1.4-1.6,2.9-3.1,4.4-4.5
		c0.8-0.8,1.8-0.7,2.8-0.1c1.1,0.7,2.2,1.4,3.5,2.2c1.4-1.3,2.7-2.7,4.1-4c1.3-1.2,2.5-1.4,3.4-0.5c1,1,0.9,2.3-0.4,3.6
		c-1.7,1.7-3.5,3.4-5.2,5.1c-1,1-2.1,1.1-3.3,0.4C119.6,53.4,118.6,52.7,117.5,52z"/>
	<path class="st0" d="M72.2,60.4c0.5,0.2,1.7,0.3,2.6,0.8c1.2,0.6,2.1,0.5,3.1-0.5c1.7-1.5,3.7-2.2,6-1.7c4.3,1.1,6.2,5.9,3.8,9.6
		c0,0-0.1,0.1-0.1,0.1c-4.1,3.3-4.3,8.1-5,12.8c-1.3,8.7-2.8,17.3-4.1,26c-0.3,1.6-1.1,2.4-2.5,2.2c-1.5-0.2-2.2-1.1-1.9-2.8
		c1-6.3,2-12.7,3-19c0.8-4.9,1.5-9.8,2.4-14.6c0.2-1.2,0.9-2.4,1.7-3.4c0.8-1.1,1.9-2,2.8-3c0.8-0.9,0.9-1.8,0.1-2.7
		c-0.8-0.8-1.7-0.9-2.7-0.2c-0.3,0.2-0.5,0.3-0.7,0.6c-1.9,2.1-4.1,2.5-6.6,0.9c-0.4-0.2-0.9-0.6-1.3-0.5c-0.8,0.1-1.9,0.2-2.3,0.7
		c-0.4,0.5-0.2,1.8,0.2,2.4c0.8,1.2,2,2,2.8,3.2c0.5,0.8,1,1.9,0.9,2.8c-2.1,13.4-4.3,26.8-6.4,40.1c-0.3,1.9-1.3,2.9-2.7,2.7
		c-1.4-0.2-2.1-1.4-1.8-3.3c1.7-10.8,3.5-21.7,5.2-32.5c0.3-2.1,0.7-4.1,1-6.2c0.1-0.5-0.2-1.2-0.5-1.6c-0.8-1-1.8-1.8-2.5-2.8
		c-1.5-2.1-1.6-4.4-0.3-6.7C67.3,61.5,69.2,60.5,72.2,60.4z"/>
	<path class="st0" d="M87.6,48.6c0,4.9-3.9,7.9-8.1,6.7c-1.6-0.4-2.5-0.2-3.6,1c-2.3,2.6-5.6,3.1-8.4,1.4c-2.7-1.7-3.7-4.9-2.3-8.2
		c0.9-2,0.6-3.3-0.7-5c-5.1-6.4-10-13-15-19.5c-0.3-0.4-0.8-0.8-0.8-1.2c0-0.9,0.1-1.9,0.6-2.5c0.7-0.9,1.8-0.8,2.7-0.1
		c0.4,0.3,0.7,0.7,0.9,1.1c5.6,7.3,11.3,14.7,16.9,22c1,1.3,1.3,2.5,0.6,4c-0.5,1.1-1,2.2-1.2,3.4c-0.1,0.7,0.2,1.9,0.7,2.1
		c0.6,0.3,1.8,0.3,2.4-0.1c1-0.6,1.7-1.5,2.5-2.4c0.8-0.9,1.7-1.1,2.9-0.8c1,0.2,2,0.5,3.1,0.8c1.1,0.3,2.1-0.1,2.4-1.2
		c0.4-1.2-0.1-2-1.3-2.5c-0.2-0.1-0.4-0.2-0.6-0.2c-3.8-0.8-6-3.4-7.9-6.5C67.9,32,62.1,23.5,56.5,14.9c-0.3-0.5-0.7-1-0.9-1.5
		c-0.5-1.1-0.2-2,0.7-2.6c0.9-0.7,1.9-0.5,2.7,0.3c0.4,0.4,0.7,0.9,1,1.4c6.1,9.3,12.2,18.7,18.3,27.9c0.5,0.8,1.5,1.4,2.3,1.9
		c1,0.6,2.2,0.8,3.2,1.3C86.4,44.7,87.6,46.6,87.6,48.6z"/>
	<path class="st0" d="M30,23.9c-0.3-0.2-1-0.5-1.4-1.1c-1.1-1.5-2.1-3.1-3.1-4.8c-0.7-1.2-0.4-2.6,0.6-3.2c1-0.6,2.4-0.3,3.2,0.8
		c1.1,1.6,2.1,3.1,3.1,4.7C33.4,22.1,32.3,24,30,23.9z"/>
</g>
</svg>
