<?xml version="1.0" encoding="utf-8"?>
<!-- Generator: Adobe Illustrator 24.3.0, SVG Export Plug-In . SVG Version: 6.00 Build 0)  -->
<svg version="1.1" id="Layer_1" xmlns="http://www.w3.org/2000/svg" xmlns:xlink="http://www.w3.org/1999/xlink" x="0px" y="0px"
	 viewBox="0 0 150 150" style="enable-background:new 0 0 150 150;" xml:space="preserve">
<style type="text/css">
	.st0{fill:#005BAB;}
</style>
<g>
	<path class="st0" d="M110.3,26.4c3.3-2.5,6.6-4.7,10.6-5.5c5.7-1.2,9.3,2.4,8.2,8.1c-0.7,3.6-2.5,6.6-4.6,9.5
		c-0.3,0.4-0.6,0.8-0.9,1.2c1.3,2.1,2.6,4.1,3.8,6.1c3.3,5.8,5.5,12.1,6.6,18.7c0.1,0.8,0.5,1.1,1.3,1.3c2.4,0.5,4.9,1.1,7.2,1.8
		c1.2,0.4,2.4,1.1,3.4,1.8c4.6,3.3,4.6,7.9,0,11.2c-3.1,2.3-6.8,3.1-10.5,3.6c-1,0.1-1.3,0.5-1.5,1.4c-1.6,8.9-5.1,17.1-10.4,24.6
		c0.8,1.1,1.7,2.1,2.3,3.3c1.2,2.5,2.6,5,3.2,7.7c1.3,5.5-2.5,9.1-8,8c-3.6-0.7-6.7-2.5-9.6-4.7c-0.4-0.3-0.8-0.6-1.2-0.9
		c-5.8,4.2-12.1,7.3-19,9.2c-1.9,0.5-3.8,1-5.7,1.3c-0.9,0.2-1.2,0.5-1.3,1.4c-0.4,3.3-1.1,6.6-3,9.5c-0.9,1.4-2.1,2.7-3.5,3.6
		c-2.4,1.7-5.4,1-7.6-1.6c-2.5-2.8-3.5-6.2-4.2-9.8c-0.5-2.9-0.5-2.9-3.4-3.5c-7.9-1.7-15.2-4.8-21.9-9.4c-0.3-0.2-0.7-0.4-0.9-0.6
		c-1.8,1.2-3.5,2.5-5.3,3.4c-1.8,0.9-3.8,1.7-5.7,2.1c-5.4,1.1-9-2.6-8-8c0.7-3.6,2.5-6.7,4.6-9.6c0.3-0.4,0.6-0.8,0.7-0.9
		c-2.3-4.4-4.8-8.4-6.6-12.8c-1.6-3.9-2.5-8.2-3.7-12.3c-0.2-0.8-0.5-1.1-1.3-1.3c-3.1-0.8-6.2-1.5-9.1-2.7c-2.7-1.2-5-3.2-4.9-6.6
		c0-3.3,2.2-5.3,4.9-6.4c2.9-1.2,6.1-1.9,9.1-2.8c0.5-0.1,1.1-0.5,1.2-0.9c1.6-9.1,5.1-17.4,10.5-25c-1-1.6-2.2-3.1-3.1-4.8
		c-1-1.9-1.9-4-2.4-6.1c-1.3-5.6,2.4-9.3,8-8.2c3.6,0.7,6.7,2.5,9.6,4.7c0.4,0.3,0.8,0.6,1.2,0.9c5.8-4.1,12-7.2,18.8-9.1
		c1.9-0.5,3.9-1,5.8-1.4c0.9-0.2,1.1-0.5,1.4-1.4c0.7-2.8,1.4-5.6,2.3-8.3c0.4-1.1,1.1-2.1,1.9-3c2.9-3.5,7.1-3.5,10,0
		c2,2.4,3,5.2,3.7,8.1c0.2,0.8,0.5,1.7,0.5,2.5c0,1.5,0.7,2,2.2,2.3c8.5,1.5,16.2,4.9,23.3,9.8C109.8,26,110,26.2,110.3,26.4z
		 M124.5,27.9c0.1-2.2-0.3-2.6-1.9-2.5c-1,0.1-2.1,0.3-3,0.8c-2.4,1.4-4.7,2.8-6.9,4.4c-2,1.4-2.6,1.6-4.6,0.1
		c-7.6-5.7-16.1-9.2-25.5-10.5c-2.1-0.3-2.7-0.9-2.8-3c-0.3-3.3-0.7-6.6-2.4-9.5c-0.5-1-1.6-1.6-2.4-2.5c-0.8,0.8-1.8,1.5-2.3,2.4
		c-1.6,2.9-2.1,6.1-2.4,9.4c-0.2,2.3-0.8,2.9-3,3.2C58,21.6,49.7,25,42.1,30.6c-2.4,1.7-2.8,1.7-5.1-0.1c-2.5-2.1-5.2-3.9-8.4-4.8
		c-2.9-0.8-3.8,0.1-3,3c0.3,1.1,0.7,2.2,1.3,3.2c1.2,1.9,2.5,3.8,3.8,5.5c1.4,1.8,1.5,2.6,0.2,4.4c-5.8,7.7-9.3,16.2-10.6,25.8
		c-0.3,2-0.9,2.6-2.9,2.8c-3.3,0.3-6.6,0.7-9.5,2.4c-1,0.6-1.7,1.6-2.5,2.4c0.8,0.8,1.5,1.8,2.5,2.4c2.9,1.7,6.2,2.1,9.5,2.4
		c2,0.2,2.6,0.8,2.9,2.8c1.3,9.5,4.9,18.1,10.6,25.8c1.3,1.8,1.2,2.5-0.2,4.4c-1.7,2.5-3.4,5.1-4.7,7.8c-0.5,1-0.2,2.5-0.2,3.8
		c1.3-0.1,2.7,0.3,3.7-0.2c2.7-1.4,5.3-3.1,7.9-4.8c1.8-1.3,2.6-1.4,4.4-0.1c7.6,5.7,16.2,9.3,25.6,10.6c2.1,0.3,2.7,0.9,2.8,3
		c0.3,3.3,0.7,6.6,2.4,9.5c0.5,1,1.6,1.6,2.4,2.4c0.8-0.8,1.7-1.5,2.3-2.4c1.7-2.9,2.1-6.2,2.4-9.5c0.2-2.1,0.8-2.7,2.8-3
		c9.5-1.3,18-4.9,25.6-10.6c1.9-1.4,2.6-1.4,4.5,0.2c2.6,2.2,5.4,4.2,8.8,5c2.7,0.7,3.6-0.2,2.9-2.9c-0.2-0.9-0.5-1.9-1-2.7
		c-1.3-2.1-2.6-4.2-4.1-6.1c-1.6-2.1-1.6-2.6-0.1-4.7c5.6-7.6,9.1-16,10.4-25.4c0.3-2.2,0.9-2.7,3.1-2.9c3.6-0.3,7.2-0.8,10.3-2.8
		c2.1-1.3,2.1-2.4,0-3.8c-2.6-1.7-5.6-2.3-8.7-2.7c-3.4-0.4-4.2,0.3-4.9-4.4c-1.4-9-5-17.1-10.5-24.4c-1.2-1.6-1.1-2.4,0.2-4.1
		c1.5-2.1,3-4.2,4.3-6.5C124.1,29.9,124.3,28.6,124.5,27.9z"/>
	<path class="st0" d="M2.7,21c0.4-1.4,0.6-2.8,1.3-4.1c2.8-5.8,7.2-10.2,13-13c1.3-0.6,2.9-0.9,4.3-1c2.7-0.1,4.8,2,4.7,4.7
		c-0.1,1.7-0.6,3.5-1.3,5c-2.7,5.4-6.9,9.4-12.2,12.1C11,25.4,9.5,25.9,8,26C5,26.2,2.9,24,2.7,21z M21.1,7.8
		c-5.4,0.8-13.4,9-13.2,13.4C12.7,20.8,20.8,12.7,21.1,7.8z"/>
	<path class="st0" d="M147,20.1c0,4.3-2.6,6.6-6,5.8c-1.9-0.4-3.8-1.3-5.5-2.3c-4.2-2.5-7.5-6-9.9-10.2c-0.7-1.3-1.3-2.7-1.6-4.2
		c-0.9-4,2-7,6-6.2c1.4,0.3,2.9,0.8,4.2,1.6c4.7,2.6,8.5,6.3,11.1,11.1C146.2,17.3,146.7,19.2,147,20.1z M128.8,7.8
		c0.5,5.1,8.6,13.1,13.3,13.3C142.5,17.4,134,8.1,128.8,7.8z"/>
	<path class="st0" d="M147.3,129.1c-0.5,1.5-0.8,3.1-1.5,4.5c-2.9,5.5-7,9.7-12.6,12.4c-1.4,0.7-2.9,1-4.4,1.1
		c-2.6,0.1-4.8-1.9-4.7-4.6c0-1.5,0.4-3.1,1-4.5c2.8-5.9,7.2-10.2,13.1-13.1c1.2-0.6,2.6-0.9,3.9-1C145,123.8,147,125.9,147.3,129.1
		z M128.8,142.1c4.7,0.1,13.9-9.6,13.3-13.3C136.9,129.6,129.6,136.9,128.8,142.1z"/>
	<path class="st0" d="M20.5,147.1c-2.1-0.1-4.3-1.3-6.5-2.7c-4.1-2.8-7.5-6.2-9.7-10.6c-0.7-1.5-1.2-3.3-1.3-5
		c-0.2-2.8,2-4.9,4.8-4.7c1.6,0.1,3.3,0.5,4.7,1.2c5.4,2.7,9.5,6.8,12.2,12.2c0.7,1.4,1.2,3.1,1.3,4.7
		C26.2,145.1,24,147.1,20.5,147.1z M7.8,128.8c0.3,5.1,9.6,13.7,13.3,13.3C20.9,137.4,12.9,129.4,7.8,128.8z"/>
	<path class="st0" d="M74.9,84.7c-4.2-0.1-8.3-0.7-12.2-2.3c-1.8-0.7-3.5-1.8-4.9-3.1c-2.8-2.6-2.7-6.3,0.1-9
		c2.2-2.1,4.9-3.2,7.8-3.9c7.3-1.7,14.5-1.6,21.5,1c1.4,0.5,2.7,1.3,3.9,2.1c4.1,3,4.1,7.7,0,10.8c-2.7,2-5.9,3-9.1,3.5
		C79.6,84.3,77.2,84.5,74.9,84.7z M74.8,79.8c4.5,0,8.7-0.7,11.5-2.2c1.2-0.6,2-1.7,3-2.6c-1-0.9-1.9-2.2-3-2.6
		c-7.5-3-15.1-3-22.6,0c-1.2,0.5-2.8,1.6-2.9,2.6c-0.2,1.5,1.6,2.2,2.9,2.7C67.2,79.2,71,79.8,74.8,79.8z"/>
	<path class="st0" d="M75,26.9c5.3,0,9.6,4.3,9.6,9.7c0,5.2-4.3,9.5-9.5,9.6c-5.3,0-9.6-4.3-9.7-9.6C65.4,31.3,69.7,26.9,75,26.9z
		 M75,41.3c2.6,0,4.8-2.2,4.8-4.8c0-2.7-2.2-4.9-4.9-4.8c-2.6,0-4.7,2.3-4.7,4.9C70.2,39.2,72.4,41.4,75,41.3z"/>
	<path class="st0" d="M36.5,65.4c5.3,0,9.6,4.3,9.6,9.6c0,5.3-4.3,9.6-9.6,9.6c-5.2,0-9.5-4.3-9.6-9.5
		C26.9,69.7,31.2,65.4,36.5,65.4z M41.3,75c0-2.6-2.1-4.8-4.7-4.9c-2.7-0.1-4.9,2.1-4.9,4.8c0,2.6,2.1,4.8,4.8,4.8
		C39.1,79.8,41.3,77.6,41.3,75z"/>
	<path class="st0" d="M123,75c0,5.3-4.4,9.6-9.7,9.6c-5.3,0-9.6-4.4-9.5-9.7c0-5.2,4.4-9.5,9.6-9.5C118.7,65.4,123,69.7,123,75z
		 M113.5,70.2c-2.6-0.1-4.8,2-4.9,4.6c-0.1,2.7,2.1,4.9,4.7,5c2.6,0,4.8-2.1,4.8-4.7C118.2,72.4,116.1,70.3,113.5,70.2z"/>
	<path class="st0" d="M75,123c-5.3,0-9.6-4.3-9.6-9.6c0-5.3,4.3-9.6,9.5-9.6c5.4,0,9.7,4.3,9.7,9.7C84.6,118.7,80.3,123,75,123z
		 M74.9,118.2c2.6,0.1,4.8-2,4.9-4.6c0.1-2.6-2-4.8-4.6-5c-2.7-0.1-4.9,2-5,4.7C70.1,115.9,72.2,118.1,74.9,118.2z"/>
	<path class="st0" d="M88.7,102.1c1.1-1.1,2.2-2.2,3.1-3c2.7,1.8,5.3,3.8,8.1,5.4c1.2,0.7,2.8,1,4.2,1.3c1.2,0.3,2-0.5,1.8-1.7
		c-0.2-1.3-0.4-2.6-1.1-3.7c-1.7-2.9-3.7-5.8-5.6-8.7c0.8-0.8,1.9-1.9,3.1-3.1c3.9,4.1,7.3,8.5,8.3,14.3c0.9,5-2.7,8.5-7.7,7.7
		C98.4,109.9,91.7,105.9,88.7,102.1z"/>
	<path class="st0" d="M50.8,91.9c-1.7,2.5-3.6,5.1-5.2,7.8c-0.7,1.1-1.1,2.4-1.4,3.6c-0.5,2.1,0.4,3,2.5,2.4c1.6-0.4,3.2-1,4.5-1.8
		c2.4-1.5,4.6-3.2,6.9-4.9c0.9,0.9,1.9,2,3.1,3.3c-4.2,3.9-8.6,7.5-14.6,8.3c-4.9,0.7-8.1-2.9-7.3-7.9c0.7-4.2,3-7.7,5.5-11
		c0.9-1.1,1.8-2.1,2.8-3.2C48.9,89.8,49.9,90.9,50.8,91.9z"/>
	<path class="st0" d="M61.4,47.8c-1.2,1.1-2.3,2.1-3.5,3.2c-0.8-0.7-1.7-1.7-2.8-2.4c-2.6-1.5-5.2-3.2-8-4.3c-2.6-1-3.5,0.1-2.8,2.7
		c1,3.8,3.2,6.8,5.7,9.7c0.4,0.4,0.7,0.8,1.1,1.2c-1.1,1.1-2.2,2.1-3.4,3.3c-0.7-0.7-1.4-1.4-2-2.1c-2.9-3.5-5.4-7.2-6.3-11.7
		c-1.1-5.4,2.6-9.1,8-8C53,40.6,57.3,43.9,61.4,47.8z"/>
	<path class="st0" d="M91.7,50.9c-0.8-0.9-1.9-2-3-3.2c0.7-0.6,1.4-1.4,2.2-2c3.5-2.9,7.2-5.4,11.8-6.2c5.3-1,8.9,2.7,7.9,7.9
		c-1.1,5.6-4.4,10-8.3,14.1c-1.1-1.2-2.2-2.4-3-3.3c1.8-2.6,3.6-5.2,5.3-7.9c0.7-1.1,1.1-2.5,1.4-3.8c0.4-1.9-0.4-2.7-2.3-2.3
		c-1.3,0.3-2.7,0.7-3.8,1.4C97,47.2,94.4,49,91.7,50.9z"/>
</g>
</svg>
