<?xml version="1.0" encoding="utf-8"?>
<!-- Generator: Adobe Illustrator 24.3.0, SVG Export Plug-In . SVG Version: 6.00 Build 0)  -->
<svg version="1.1" id="Layer_1" xmlns="http://www.w3.org/2000/svg" xmlns:xlink="http://www.w3.org/1999/xlink" x="0px" y="0px"
	 viewBox="0 0 150 150" style="enable-background:new 0 0 150 150;" xml:space="preserve">
<style type="text/css">
	.st0{fill:#005BAB;}
</style>
<g>
	<path class="st0" d="M30.8,97.9c-0.5,0.7-0.9,1.6-2,1c0,0,0,0,0,0c-0.1-0.6,0-1.1,0.2-1.6c1.8-3.9,2.2-8,1.7-12.2
		c-0.1-0.4-0.1-0.8-0.5-1.1c-3.1-2.2-5.4-5.2-7.5-8.4c-0.6-1.3-1.1-2.6-1.7-3.9c-0.2-0.4-0.3-0.7-0.8-0.4c-4.2,2.6-8.6,2-13,0.5
		c-2.1-0.7-4-1.7-5.9-2.9c-0.9-0.6-1-1.2-0.1-1.9c2.1-1.4,3.4-3.3,4.6-5.4c2.8-5,4-10.4,4.3-16.1c0.3-6.3,0.7-12.6,2.5-18.8
		c1.4-4.8,3.4-9.3,7.5-12.5c6.1-4.9,17.4-5.7,24.2-1.7c4.2,2.5,6.7,6.3,7.2,11.2c0.1,0.5,0.1,1,0.5,1.4c0.5,1,0.4,2.1,0.3,3.2
		c0,0.8,0.3,1,1,1.1c9.3,1,14.9,6.9,16.2,16.3c0.9,7,0.2,13.6-3.7,19.7c-0.2,0.3-0.2,0.7-0.3,1c-1.2,7.3-4.8,13.1-10.6,17.6
		c-0.7,0.6-1,1.1-1.1,2c-0.2,4,0,7.8,1.9,11.4c0.3,0.5,0.3,1-0.2,1.3c-0.8,0.6-1.2-0.3-1.6-0.6c-1.6-3.8-2.2-7.7-2-12
		c-6.5,5.2-12.8,4.9-19.2-0.5C32.9,90.2,32.5,94.1,30.8,97.9z M53.7,44.5c-2.2,2.7-5,3.9-8.2,4.1c-2.2,0.1-4.5,0.1-6.7-0.1
		c-1.9-0.2-3.8-0.1-5.6,0.1c-5.6,0.9-12.5,5.5-12.1,14.2c0.4,7.5,3.4,13.7,9,18.6c1.9,1.6,3.9,3.1,5.9,4.5c4,2.9,9,3,13.1,0.1
		c1.5-1.1,3-2.1,4.4-3.2c7.2-5.6,10.7-12.9,10.4-22c-0.1-2-0.7-3.8-2.3-5C58,52.8,55.2,49.3,53.7,44.5z M3.3,68
		c3.4,1.9,6.8,3.2,10.7,3.2c1.6,0,3.1-0.3,4.6-1.1c1.8-0.9,1.9-1.7,0.7-3.3c-1.1-1.3-2-2.8-2.5-4.4c-2.3-6.8-2.4-13.8-0.4-20.6
		c2.4-8.1,8.5-12.4,16.8-13.7c1.3-0.2,2.7-0.1,2.4-2.1c0-0.3,0.2-0.8,0.5-1.1c0.5-0.6,0.2-0.8-0.3-1.1c-1.3-0.7-2.7-0.8-4.2-0.4
		c-0.7,0.2-1.3,0.2-1.5-0.5c-0.3-0.8,0.4-1,1-1.2c2.4-0.7,4.6-0.2,6.6,1.3c0.5,0.4,0.9,0.7,1.6,0.7c3.1,0,6.1,0,9.2,0
		c0.9,0,1.1-0.3,0.9-1.2c-1-4.1-3.5-7.1-7.3-8.9c-3.5-1.7-7.3-1.9-11.1-1.6c-6.9,0.6-12,3.9-14.9,10.3c-0.6,1.3-1.1,2.6-1.5,4
		c-2,6.2-2.4,12.7-2.7,19.2C11.5,53.9,9.4,61.6,3.3,68z M19.3,62.8c0-0.3,0-0.6,0-1c0-4.7,1.9-8.5,5.6-11.4c4-3.2,8.7-4.2,13.8-3.8
		c2.3,0.2,4.6,0.3,6.9,0.2c4.3-0.3,7.3-2.7,8.3-6.7c0.9-3.8-1.3-8.4-4.5-9.2c-5.3-1.3-10.6-1.9-16.1-1c-7.6,1.3-13,5.3-15.2,12.8
		c-1.3,4.6-1.2,9.4-0.6,14.1C17.6,59,18,61,19.3,62.8z M65.8,61c0.2-0.1,0.3-0.1,0.3-0.2c3-8,2.8-15.8-1.6-23.2
		c-2.4-4.2-6.6-5.9-11.7-6.4c2.4,2.7,3.4,5.7,2.6,8.9c-0.6,2.4,0,4.3,0.8,6.3c1.2,2.7,2.8,5,5.1,6.8C64.1,55.2,65.8,57.6,65.8,61z
		 M43.9,25.4c-1.7,0-3.5,0-5.2,0c-0.9,0-1.4,0.5-1.4,1.5c0,0.6,0.2,1,0.9,0.9c3.9-0.1,7.8,0.5,11.6,1.4c0.2,0.1,0.6,0.2,0.6-0.2
		c0.1-1,0.3-1.9-0.1-2.9c-0.3-0.7-1-0.8-1.7-0.8C47.1,25.4,45.5,25.4,43.9,25.4z"/>
	<path class="st0" d="M58.6,125.2c0.5-0.3,0.9-0.8,1.4-1c2.1-0.7,2.6-2.4,3.1-4.3c2-7.5,3-15.3,4.6-22.9c0.7-3.7,1.5-7.5,3-11
		c0.7-1.6,1.5-3.1,2.8-4.4c2.7-2.6,6.5-2.7,9.2,0c1.5,1.5,2.4,3.3,3.1,5.2C88,92.7,88.8,99,90,105.2c0.9,4.8,1.8,9.6,2.9,14.4
		c0.6,2.4,1.5,4.1,3.8,5c5.5,4.8,5.2,11.7,3.2,15.9c-1.9,4.1-5.3,5.6-9.6,4.1c-1.7-0.6-3-0.3-4.3,0.9c-4.1,3.7-11.9,3.7-16.1,0
		c-1.1-0.9-2.1-1.4-3.6-1c-6.2,1.8-10.3-0.9-11.3-7.3C54.4,132.5,55.5,128.5,58.6,125.2z M89.2,142.3c0.9,0.3,1.8,0.6,2.6,0.8
		c2.3,0.6,4.1-0.1,5.5-2c4-5.1,2.1-13.4-3.8-16.2c-0.9-0.4-1.3-1-1.6-1.9c-1.1-3.6-1.9-7.3-2.7-11c-1.4-6.8-2.2-13.8-4-20.5
		c-0.7-2.8-1.6-5.6-3.4-7.9c-2.3-2.8-5.5-2.8-7.8,0c-1,1.3-1.7,2.8-2.3,4.3c-1.5,4.1-2.3,8.3-3,12.6c-1.4,7.6-2.5,15.2-4.8,22.5
		c-0.3,0.9-0.7,1.4-1.6,1.8c-6.7,3-7.2,11.8-3.7,16.4c1.3,1.7,3.1,2.3,5.1,1.9c1-0.2,1.9-0.6,2.9-0.9c-1.9-1.9-2-1.9-4.1-0.4
		c-0.4,0.3-0.8,0.3-1.1,0c-0.4-0.3-0.4-0.6-0.2-1.1c0.5-1.8,2.4-2.6,4.4-1.7c1.9,0.9,3.4,2.3,4.6,4c2.8,4.2,12.5,4.2,15.4,0
		c1.1-1.6,2.6-3,4.5-3.9c1.8-0.9,3.4-0.5,4.2,1.1c0.3,0.5,0.7,1.2,0,1.6c-0.6,0.4-1.1,0.1-1.5-0.5c-0.4-0.9-1.1-1-1.9-0.5
		C90.4,141.2,89.7,141.6,89.2,142.3z"/>
	<path class="st0" d="M149.4,64.4c0,1.7-0.1,3.5-0.3,5.2c-0.1,0.7-0.2,1.4-1.1,1.3c-0.8-0.1-0.8-0.8-0.7-1.5
		c1-8.6-0.9-16.9-3.1-25.2c-1.3-4.8-4.6-7.1-9.1-8.2c-1-0.2-0.8,0.6-1,0.9c-1,1.9-2.7,2.8-4.8,2.6c-2-0.2-3.5-1.7-4-3.7
		c-0.3-1.2,0-2.4,0.7-3.3c0.5-0.7,0.3-1-0.3-1.4c-2.6-1.7-4.3-4.3-6.1-6.7c-0.4-0.5-0.6-1.1,0-1.6c0.7-0.5,1.2,0,1.5,0.6
		c3.8,6.3,10,9.4,16.7,11.6c4,1.3,6.7,3.9,7.9,7.8C147.9,49.9,149.3,57,149.4,64.4z M129.9,37.8c0.3-0.1,0.8-0.2,1.3-0.4
		c0.7-0.4,1.3-0.9,1.3-1.9c0-0.9-0.8-0.9-1.3-1.3c-0.5-0.3-1.1-0.6-1.6-0.8c-1.6-0.8-2.6-0.2-2.5,1.6
		C127.1,36.4,128.4,37.8,129.9,37.8z"/>
	<path class="st0" d="M80.6,70.1c-0.2,0.6-0.5,1-1.2,0.8c-0.6-0.2-0.6-0.7-0.7-1.2c-0.9-7.1-0.2-14,1.4-20.9c0.3-1.2,0.6-2.4,1-3.5
		c1.4-5,4.5-8.4,9.3-10.4c4.2-1.8,8.3-3.9,12.1-6.4c0.6-0.4,1.2-0.7,1.6-1.3c1.3-0.9,2-2.2,2.6-3.5c0.3-0.6,0.6-1.1,1.4-0.8
		c0.7,0.3,0.6,1,0.3,1.6c-1,2.2-2.5,4-4.4,5.3c-4,2.7-8.3,5-12.8,6.8c-4.4,1.8-7.1,4.9-8.4,9.4C80.5,53.8,79.4,61.8,80.6,70.1z"/>
	<path class="st0" d="M132.9,64.3c-1.3,6.7-2.3,13-1.5,19.4c0.2,1.9,0.3,3.8,0.4,5.6c0,0.6-0.2,1.1-0.9,1.2c-0.6,0-0.9-0.4-0.9-1
		c-0.2-4.8-1.2-9.6-0.6-14.5c0.6-5.6,1.5-11.2,2.9-16.7c0.3-1.3,0.9-2.6,1.4-3.9c0.7-1.6,1.3-3.2,1.5-4.9c0.1-0.6,0.3-1.2,1-1.1
		c0.8,0.1,0.9,0.7,0.8,1.4c-0.2,1.5-0.5,3-1.2,4.2c-2.7,4.8-1.4,9.4,0.1,14.1c0.1,0.4,0.3,0.8,0.5,1.3c0.3,0.6,0.2,1.1-0.4,1.4
		c-0.6,0.3-1-0.1-1.2-0.6c-0.6-1.2-1.1-2.5-1.4-3.9C133.3,65.8,133.2,65.2,132.9,64.3z"/>
	<path class="st0" d="M97.7,89.4c-0.1,0.6-0.3,1.3-1.1,1.2c-0.8-0.1-0.8-0.8-0.8-1.4c0.2-3.4,0.6-6.8,0.7-10.2
		c0.2-4.8-0.9-9.5-1.8-14.2c-0.6,1.7-1,3.5-1.8,5.1c-0.7,1.4-1.1,1.5-2.1,0.2c1.6-3.3,2.3-6.9,2.6-10.6c0.1-1.3-0.4-2.4-0.9-3.5
		c-0.8-1.9-1.6-3.7-1.9-5.8c-0.1-0.7-0.2-1.6,0.8-1.7c0.9-0.1,1,0.7,1.1,1.4c0.2,1.2,0.6,2.4,1,3.5C97.4,63.6,99.2,74,98,84.9
		C97.9,86.4,97.8,87.9,97.7,89.4z"/>
	<path class="st0" d="M99.7,64.9c0-2.6,2-4.7,4.6-4.7c2.6,0,4.7,2.1,4.7,4.6c0,2.6-2.1,4.7-4.7,4.7C101.8,69.4,99.8,67.4,99.7,64.9z
		 M101.6,64.7c0,1.6,1.2,2.9,2.7,2.9c1.4,0,2.8-1.4,2.8-2.9c0-1.4-1.3-2.8-2.7-2.8C102.9,61.9,101.6,63.2,101.6,64.7z"/>
	<path class="st0" d="M122.3,36.1c1.7,0,3.1,1.4,3.1,3.1c0,1.7-1.4,3.1-3.2,3.1c-1.7,0-3.1-1.4-3.1-3.1
		C119.2,37.4,120.6,36.1,122.3,36.1z M121.8,38c-0.4,0-0.9,0.6-0.8,1.3c0,0.7,0.5,1.2,1.3,1.2c0.8,0,1.2-0.6,1.2-1.3
		C123.5,38.4,123,37.9,121.8,38z"/>
	<path class="st0" d="M105,70.4c1.7,0,3.1,1.4,3.1,3.1c0,1.7-1.4,3.1-3.1,3.1c-1.7,0-3.1-1.4-3.1-3.1
		C101.9,71.6,103.2,70.3,105,70.4z M106.2,73.4c-0.1-0.8-0.5-1.2-1.3-1.2c-0.7,0-1.1,0.4-1.1,1.1c0,0.8,0.4,1.3,1.2,1.3
		C105.7,74.7,106.1,74.2,106.2,73.4z"/>
	<path class="st0" d="M49.8,139.6c-0.2,0.6-0.5,1-1.2,0.8c-2.8-1.2-5.5-2.5-8.2-4.1c-0.5-0.3-0.7-0.8-0.3-1.3
		c0.3-0.5,0.8-0.5,1.3-0.2c2.5,1.5,5.1,2.7,7.7,3.9C49.6,138.8,49.8,139.1,49.8,139.6z"/>
	<path class="st0" d="M131.6,41.3c1.5,0,2.7,1.3,2.6,2.8c0,1.4-1.3,2.6-2.7,2.6c-1.5,0-2.7-1.2-2.7-2.7
		C128.9,42.4,130.1,41.3,131.6,41.3z M132.5,44c-0.1-0.4-0.3-0.8-0.8-0.8c-0.5,0-0.8,0.2-0.8,0.7c-0.1,0.5,0.3,0.8,0.8,0.9
		C132,44.7,132.3,44.5,132.5,44z"/>
	<path class="st0" d="M113.2,64.3c1.5,0,2.7,1.3,2.7,2.7c0,1.5-1.3,2.7-2.8,2.7c-1.4,0-2.6-1.3-2.6-2.7
		C110.5,65.5,111.7,64.3,113.2,64.3z M114.1,66.9c-0.2-0.5-0.4-0.9-1-0.8c-0.5,0.1-0.8,0.4-0.7,1c0.1,0.5,0.4,0.7,0.9,0.7
		C113.7,67.8,114,67.4,114.1,66.9z"/>
	<path class="st0" d="M134.3,117.2c0,0.4-0.3,0.8-0.5,1.1c-1.7,2.1-3.4,4.1-5.3,6.1c-0.5,0.5-1,0.9-1.7,0.3
		c-0.6-0.6-0.1-1.1,0.3-1.6c1.9-1.9,3.7-4,5.3-6.1c0.3-0.4,0.6-0.8,1.3-0.6C134,116.5,134.2,116.8,134.3,117.2z"/>
	<path class="st0" d="M148.2,84.7c-0.4,2.9-1,5.7-1.8,8.5c-0.2,0.6-0.6,1-1.2,0.8c-0.5-0.2-0.7-0.7-0.5-1.2c0.8-2.7,1.4-5.5,1.8-8.3
		c0.1-0.6,0.4-1.1,1.1-1C148.2,83.5,148.3,84.1,148.2,84.7z"/>
	<path class="st0" d="M100.2,5.6c0.7,0.3,1.5,0.5,2.2,0.8c2,0.8,4,1.7,6,2.6c0.5,0.2,1,0.6,0.7,1.3c-0.3,0.8-0.9,0.7-1.5,0.4
		c-2.5-1.2-5.1-2.3-7.7-3.2c-0.5-0.2-0.9-0.5-0.8-1.1C99.2,5.8,99.6,5.6,100.2,5.6z"/>
	<path class="st0" d="M8.2,92.6c0.6,0,0.8,0.4,1,0.9c0.8,2.7,1.8,5.4,2.9,8c0.2,0.5,0.2,1-0.4,1.3c-0.6,0.3-1.1,0-1.3-0.6
		c-1.2-2.7-2.2-5.5-3-8.3C7.2,93.2,7.5,92.7,8.2,92.6z"/>
	<path class="st0" d="M56.3,5.8c0,0.6-0.3,0.9-0.8,1c-2.7,0.9-5.4,1.9-7.9,3.1c-0.6,0.3-1.1,0.3-1.4-0.4c-0.2-0.6,0-1,0.6-1.2
		C49.5,7,52.3,5.9,55.1,5C55.8,4.8,56.2,5.2,56.3,5.8z"/>
	<path class="st0" d="M143.3,101.7c0,0.1-0.1,0.3-0.1,0.5c-1.1,2.7-2.4,5.3-3.9,7.7c-0.3,0.5-0.8,0.9-1.4,0.5
		c-0.6-0.4-0.5-0.9-0.2-1.5c1.4-2.4,2.7-4.9,3.7-7.5c0.2-0.5,0.5-0.9,1.2-0.8C143.1,100.9,143.3,101.2,143.3,101.7z"/>
	<path class="st0" d="M83,1.9c2.6,0.2,5.3,0.6,8.1,1.2c0.6,0.1,1.1,0.4,1,1.1C92,5,91.3,5,90.7,4.9C88,4.4,85.3,4,82.6,3.7
		c-0.7-0.1-1.3-0.2-1.2-1C81.5,1.9,82.2,1.8,83,1.9z"/>
	<path class="st0" d="M34.3,130.3c-0.2,0.8-0.6,1.3-1.4,0.8c-2.5-1.8-4.8-3.9-7-6.1c-0.4-0.4-0.3-0.9,0-1.2c0.3-0.3,0.8-0.4,1.1-0.1
		c2.3,2.1,4.6,4.2,7,6.1C34.1,129.9,34.2,130.1,34.3,130.3z"/>
	<path class="st0" d="M120.6,129.2c0.4,0,0.7,0.2,0.9,0.5c0.2,0.3,0.2,0.7-0.1,1c-2.4,2-5,3.8-7.8,5.3c-0.4,0.2-0.8,0.1-1.1-0.3
		c-0.3-0.4-0.3-0.9,0.2-1.2c2.6-1.7,5.2-3.4,7.6-5.2C120.3,129.2,120.5,129.2,120.6,129.2z"/>
	<path class="st0" d="M21.4,117.6c0,0.4-0.2,0.6-0.5,0.8c-0.4,0.2-0.8,0.2-1.1-0.2c-1.9-2.4-3.7-5-5.2-7.7c-0.3-0.5-0.1-0.9,0.4-1.2
		c0.4-0.2,0.9-0.2,1.1,0.2c1.6,2.6,3.4,5.2,5.2,7.7C21.4,117.3,21.4,117.5,21.4,117.6z"/>
	<path class="st0" d="M64.6,4.6c-0.6,0.1-1.1-0.1-1.2-0.8c-0.1-0.6,0.4-0.9,0.9-1c2.9-0.5,5.7-0.9,8.6-1c0.6,0,1.2,0.1,1.2,0.8
		c0,0.7-0.4,1-1.1,1C70.2,3.7,67.4,4.1,64.6,4.6z"/>
	<path class="st0" d="M7.3,84.6c0,0.5-0.2,0.9-0.8,1c-0.6,0.1-0.9-0.3-1-0.9c-0.5-2.8-0.7-5.5-0.8-8.3c0-0.6,0.3-1,0.9-1
		c0.6,0,0.9,0.4,0.9,1C6.6,79,6.8,81.7,7.3,84.6z"/>
	<path class="st0" d="M54.5,62.3c-0.2,1.6-0.8,2.7-2.3,2.8c-1.4,0.1-2.2-0.8-2.7-2c-0.1,0.1-0.2,0.1-0.3,0.2c-0.5,0.5-1,1.7-1.9,0.9
		c-1-0.8,0.1-1.6,0.6-2.1c2.2-2.3,5.9-2.6,8.5-0.7c0.6,0.4,1.3,0.9,0.8,1.7c-0.6,0.9-1.2,0.3-1.8-0.2C55.1,62.7,54.9,62.5,54.5,62.3
		z"/>
	<path class="st0" d="M36,63.2c-0.5,1.2-1.3,2-2.6,1.9c-1.2-0.1-2-0.9-2.2-2.2c-0.1-1-0.7-0.4-1-0.2c-0.6,0.4-1.2,1.1-1.8,0.3
		c-0.6-0.9,0.2-1.4,0.8-1.8c2.7-1.9,6.4-1.5,8.6,1c0.5,0.6,1.2,1.2,0.4,1.9c-0.8,0.6-1.3-0.1-1.7-0.7C36.3,63.4,36.1,63.3,36,63.2z"
		/>
	<path class="st0" d="M42.9,75.3c1.8,0,3.6,0.7,5.2,2c0.4,0.4,0.9,0.8,0.4,1.4c-0.5,0.7-1,0.4-1.6,0c-3.2-2.2-5.5-2.2-8.7,0
		c-0.5,0.4-1.1,0.7-1.6,0c-0.5-0.7,0-1.1,0.5-1.5C38.7,75.9,40.5,75.3,42.9,75.3z"/>
	<path class="st0" d="M33.8,69.8c1.2,0,2.3,1,2.4,2.3c0,1.3-0.9,2.4-2.2,2.5c-1.3,0.1-2.5-1-2.5-2.4C31.5,71,32.5,69.9,33.8,69.8z"
		/>
	<path class="st0" d="M60.9,67.7c0,1.3-1.1,2.3-2.4,2.3c-1.3,0-2.4-1.1-2.3-2.5c0.1-1.3,1.2-2.3,2.4-2.2C60,65.3,61,66.4,60.9,67.7z
		"/>
	<path class="st0" d="M53.6,56.9c-1.6,0-3,0.3-4.4,0.9c-0.6,0.3-1.2,0.4-1.6-0.3c-0.4-0.8,0.2-1.1,0.8-1.4c1.9-0.9,3.9-1.2,6-1.1
		c0.7,0,1.6,0.1,1.5,1c0,0.9-0.8,0.8-1.5,0.8C54.1,56.9,53.9,56.9,53.6,56.9z"/>
	<path class="st0" d="M32,56.9c-0.6-0.2-2,0.6-2-0.9c0-1.4,1.3-0.9,2.2-0.9c1.8-0.1,3.5,0.3,5.2,1c0.6,0.3,1.2,0.7,0.8,1.5
		c-0.4,0.7-1,0.5-1.6,0.2C35.2,57.2,33.7,56.9,32,56.9z"/>
	<path class="st0" d="M42.5,72.3c-0.8,0.1-1.6-0.2-2.3-0.6c-0.5-0.3-0.8-0.7-0.5-1.2c0.3-0.5,0.7-0.7,1.3-0.4c1.1,0.6,2.1,0.6,3.2,0
		c0.5-0.3,1-0.1,1.3,0.4c0.3,0.6,0,1-0.5,1.3C44.2,72.1,43.3,72.3,42.5,72.3z"/>
	<path class="st0" d="M27.4,73.3c0.1-0.7-0.2-1.7,1-1.7c1.1,0,0.9,1,0.9,1.8c0,0.7,0.2,1.7-0.9,1.7C27.3,75.1,27.5,74.1,27.4,73.3z"
		/>
	<path class="st0" d="M42.4,81.4c0.1-0.8-0.1-1.8,1-1.7c1,0,0.9,0.9,0.9,1.6c0,0.8,0.2,1.9-1,1.8C42.2,83.1,42.5,82.1,42.4,81.4z"/>
	<path class="st0" d="M36.7,50.7c0.8,0,1.3,0.4,1.1,0.9c-0.2,1.1-1.3,1.3-2.2,1.5c-0.4,0.1-0.9-0.3-0.9-0.8
		C34.9,51.1,36.1,51.2,36.7,50.7z"/>
	<path class="st0" d="M37.9,81.2c-0.1,0.7-0.5,1.2-1,1.1c-0.9-0.3-2-0.4-2.2-1.6c-0.1-0.5,0.3-0.9,0.9-0.8
		C36.5,80,37.4,80.3,37.9,81.2z"/>
	<path class="st0" d="M42.5,52c0,0.7-0.3,1.2-0.9,1.1c-1.2-0.1-1.3-1.3-1.6-2.1c-0.2-0.5,0.2-0.9,0.7-0.9C42.1,50.1,42,51.4,42.5,52
		z"/>
	<path class="st0" d="M26.6,67.6c-0.1,0.5-0.5,1-1,0.7c-0.8-0.3-2-0.4-2-1.7c0-0.5,0.4-0.8,0.9-0.8C25.3,65.9,26.6,67,26.6,67.6z"/>
	<path class="st0" d="M30.3,69c-0.6-0.1-1-0.4-0.9-1c0.3-0.9,0.4-2,1.6-2.1c0.4,0,0.8,0.4,0.8,0.9C31.9,67.6,30.9,69,30.3,69z"/>
	<path class="st0" d="M51.1,51c0,0.6-1.7,1.6-2.3,1.5c-0.5-0.1-0.8-0.4-0.8-0.9c0-0.6,1.6-1.6,2.3-1.5C50.8,50.1,51.1,50.5,51.1,51z
		"/>
	<path class="st0" d="M58.4,73.3c-0.1,0.6-0.4,1.1-1,1c-1.1-0.3-1.2-1.3-1.4-2.2c-0.1-0.5,0.3-0.9,0.9-0.8
		C58,71.4,57.9,72.6,58.4,73.3z"/>
	<path class="st0" d="M49,82.3c-0.5-0.1-1.6,0.1-1.7-1.1c0-0.7,0.5-1,1.1-0.9c0.8,0.2,1.9-0.1,1.9,1.2C50.4,82.2,49.8,82.4,49,82.3z
		"/>
	<path class="st0" d="M52.2,68.6c0.5,0,0.8,0.3,0.9,0.8c0.1,0.7-0.9,2.2-1.5,2.3c-0.6,0-0.9-0.3-1-0.8
		C50.5,70.2,51.6,68.6,52.2,68.6z"/>
	<path class="st0" d="M54.4,77.4c-0.1,0.6-0.4,1.1-1,0.9c-0.7-0.2-1.4-0.7-1.4-1.5c-0.1-0.6,0.4-1,1-0.9
		C53.7,76,54.2,76.6,54.4,77.4z"/>
	<path class="st0" d="M41.8,45.5c-1.2-0.1-2.4-0.2-3.5-0.3c-0.6-0.1-1.3-0.2-1.2-1c0-0.9,0.7-0.8,1.4-0.8c2,0.2,4,0.3,5.9,0.1
		c4.3-0.5,6.8-3.8,6.2-8c-0.1-0.7-0.4-1.6,0.6-1.7c1.1-0.2,1.1,0.8,1.3,1.5c0.8,4.9-2.4,9.3-7.4,10C43.9,45.4,42.8,45.4,41.8,45.5z"
		/>
	<path class="st0" d="M33.6,43.5c0.6-0.1,1.2,0.1,1.3,0.8c0.1,0.7-0.4,1-1.1,1c-1.7,0.1-3.3,0.7-4.8,1.4c-0.6,0.3-1.1,0.3-1.4-0.3
		c-0.3-0.7,0.1-1.1,0.6-1.3C29.9,44.2,31.7,43.7,33.6,43.5z"/>
	<path class="st0" d="M70.3,128.6c-2.4,0.1-3.7-0.8-3.9-2.7c-0.3-2.3,1-4.3,3.2-4.7c2-0.4,3.3-1.7,4.6-3.1c2.6-2.7,6.1-2.7,8.5,0.2
		c0.7,0.8,1.1,1.7,1,2.8c-0.2,1.4,0.6,2.1,1.7,2.5c0.9,0.3,1.7,0.6,2.5,1.2c1.8,1.3,2.5,3.1,1.7,5c-0.9,2.2-3.4,3.8-5.5,3.5
		c-0.8-0.1-1.7-0.4-2.5-0.8c-1.1-0.5-1.6-0.1-2,0.9c-0.1,0.3-0.3,0.7-0.4,1c-1.2,3-4.1,4.1-7,2.7c-2.4-1.2-2.9-4.2-1-6.2
		c0.2-0.2,0.4-0.3,0.6-0.5c0.4-0.4,0.8-0.9,0.6-1.4c-0.2-0.6-0.9-0.4-1.3-0.4C70.7,128.5,70.5,128.5,70.3,128.6z M70.7,127
		c2,0,2.8,0.3,3.2,1.4c0.5,1.4-0.3,2.4-1.3,3.3c-0.1,0.1-0.2,0.1-0.2,0.2c-1.3,1.4-0.9,3.4,1,3.8c2.2,0.5,3.5,0.3,4.3-1.9
		c0.1-0.4,0.3-0.8,0.5-1.1c1-2,2-2.5,4.1-1.6c1,0.4,1.9,0.6,3,0.5c1.3-0.1,2.8-1.5,3-2.9c0.3-1.5-0.5-2.4-1.8-3
		c-0.5-0.2-1-0.4-1.5-0.6c-1.7-0.7-2.9-1.9-2.7-3.9c0.1-1-0.4-1.8-1.1-2.4c-1.7-1.5-3.8-1.4-5.4,0.2c-1.5,1.6-3.1,3.2-5.3,3.7
		c-1.6,0.4-2.4,1.4-2.2,2.8C68.2,127.2,69.5,127,70.7,127z"/>
	<path class="st0" d="M80.7,124.8c2,0.1,3.6,1,5,2.3c0.5,0.5,0.8,1.1,0.6,1.8c-0.2,0.7-0.9,1-1.5,1.1c-0.9,0.2-1.8,0.1-2.7-0.2
		c-1.1-0.3-2.2-0.3-3.1,0.5c-0.3,0.3-0.7,0.4-1.1,0.5c-1.1,0.3-1.9-0.1-2.5-1c-0.5-0.9-0.5-1.7,0.3-2.5
		C77.1,126.1,78.5,124.7,80.7,124.8z M84.6,128.3c-2.5-2.4-4.5-2.5-7-0.5c-0.4,0.3-1.3,0.6-0.8,1.3c0.5,0.8,1.1,0.1,1.5-0.2
		c1.1-0.8,2.2-1.1,3.6-0.7C82.7,128.4,83.5,128.7,84.6,128.3z"/>
	<path class="st0" d="M76.8,124.9c-1.5,0-2.7-0.9-2.7-2.1c0-1.4,1.8-3.1,3.6-3.1c1.3,0,2.2,1.1,2.2,2.5
		C79.8,123.8,78.6,124.9,76.8,124.9z M76.7,123.3c1,0,1.6-0.5,1.6-1.3c0-0.4-0.2-0.8-0.7-0.8c-0.6-0.1-2,1-1.9,1.5
		C75.8,123.3,76.3,123.3,76.7,123.3z"/>
</g>
</svg>
