<?xml version="1.0" encoding="utf-8"?>
<!-- Generator: Adobe Illustrator 24.3.0, SVG Export Plug-In . SVG Version: 6.00 Build 0)  -->
<svg version="1.1" id="Layer_1" xmlns="http://www.w3.org/2000/svg" xmlns:xlink="http://www.w3.org/1999/xlink" x="0px" y="0px"
	 viewBox="0 0 150 150" style="enable-background:new 0 0 150 150;" xml:space="preserve">
<style type="text/css">
	.st0{fill:#005BAB;}
</style>
<g>
	<path class="st0" d="M29,149.1c-1.1-0.7-1.5-1.7-1.5-3.1c0-7.4-0.1-14.9,0.1-22.3c0.1-3.7,0.8-7.4,1.4-11c0.3-1.7,1.4-2.4,2.7-2.1
		c1.3,0.3,1.9,1.5,1.5,3.2c-1.6,5.7-1.3,11.6-1.3,17.5c5.5,0,10.9,0,16.5,0c0-2.9,0-5.7,0-8.5c0-0.5,0-1.1,0-1.6
		c0.1-1.3,1-2.2,2.2-2.2c1.1,0,2.1,0.9,2.1,2.2c0.1,2.3,0,4.6,0,6.9c0,0.3,0,0.5,0,1.1c1.8-1.3,3.4-2.5,4.9-3.6
		c-0.6-1.9-1.4-3.7-1.8-5.5c-0.7-3.1,0-5.8,2.7-7.7c2.7-1.8,5.3-1.2,7.9,0.4c0.4,0.2,0.7,0.5,1.2,0.7c0.8-0.7,1.5-1.5,2.3-2.2
		c4-3.4,8.5-4.9,13.7-3.9c6.2,1.2,10.7,6.6,11.1,13.1c0.5,9.4-5.6,16.7-15.3,18c-1,0.1-2.1,0.2-3.2,0.3c-0.5,0.1-1,0.1-1.3,0.4
		c-2.3,1.6-4.5,3.3-7,5.2c9.9,0,19.6,0,29.4,0c0-0.5,0-1,0-1.5c0-6.9,0-13.7,0-20.6c0-0.3,0-0.7,0-1c0.1-1.5,0.9-2.5,2.2-2.5
		c1.2,0,2.1,1,2.1,2.5c0,2.8,0,5.6,0,8.4c0,0.5,0,0.9,0,1.5c5.5,0,10.9,0,16.4,0c0-3.4,0.2-6.8,0-10.1c-0.4-6.9-2.6-13.3-6.4-19.1
		c-1-1.4-0.8-2.7,0.3-3.4c1.1-0.8,2.4-0.4,3.4,1.1c4.6,6.8,7,14.4,7.2,22.6c0.2,8,0,16,0.1,24c0,1.2-0.6,2-1.4,2.6
		C90.4,149.1,59.7,149.1,29,149.1z M39.3,144.5c0,0.1,0.1,0.2,0.1,0.3c0.3,0,0.7,0,1,0c6.4,0,12.8,0,19.3,0c0.6,0,1.2-0.3,1.7-0.7
		c3.7-2.8,7.4-5.6,11.1-8.3c0.8-0.6,2-0.9,3-1.1c1.6-0.3,3.3-0.3,4.9-0.7c6.7-1.6,10.3-6.4,9.9-12.8c-0.4-6.8-6.1-10.9-12.6-9.1
		c-3.1,0.8-5.5,2.8-7.4,5.3c-1.7,2.2-2.5,2.3-4.5,0.5c-0.6-0.5-1.3-1.2-2-1.4c-0.9-0.3-2-0.5-2.8-0.2c-1.1,0.5-1.3,1.8-0.9,2.9
		c0.6,1.7,1.3,3.4,2.2,5c1.1,2.1,1.1,2.8-0.8,4.2c-4.8,3.5-9.6,7-14.4,10.5C44.5,140.8,41.9,142.6,39.3,144.5z M101.7,144.7
		c5.5,0,10.9,0,16.3,0c0-3,0-5.8,0-8.7c-5.5,0-10.8,0-16.3,0C101.7,138.9,101.7,141.8,101.7,144.7z M32,136c0,2.8,0,5.6,0,8.5
		c3.9-2.8,7.6-5.5,11.6-8.5C39.5,136,35.8,136,32,136z"/>
	<path class="st0" d="M33.3,24.9c0.4,8,2.7,15.3,6.7,22.1c1.8-0.1,3.5-0.3,5.3-0.4c0.1-0.6,0.1-1.3,0.2-1.9c0.7-2.7,2.4-4.4,5.1-5
		c7.1-1.5,13.9-4,20.1-7.8c4.2-2.6,8.1-5.6,11.5-9.2c2.3-2.5,4.7-2.3,6.6,0.5c3.9,5.7,8,11.1,12.9,15.9c1.7,1.6,2.1,2.9,3,7.3
		c2.4,0.4,4.6,0.8,7.3,1.2c0.4-1.4,1.1-3.1,1.5-4.9c1.9-7.4,2.2-14.8-0.5-22c-0.1-0.3-0.2-0.6-0.4-0.9C108,9.5,99.7,7,89.8,10.9
		c-2.3,0.9-2.5,0.9-4.1-1.1c-1.8-2.3-4.5-3.3-7.2-3.9c-7.3-1.6-14-0.4-19.9,4.4c-0.3,0.2-0.6,0.5-0.9,0.7c-1.1,0.7-2.3,0.5-3-0.5
		c-0.7-0.9-0.6-2.2,0.4-3C59.3,4.1,64,1.4,69.6,1C75.1,0.6,80.4,1,85.3,3.8c0.5,0.3,1.1,0.5,1.4,1c1.3,1.7,2.8,1.5,4.7,1
		c11.7-3.3,21.6,2.1,25.9,13.9c2.9,8,2.5,16.1,0.4,24.2c-0.2,0.8-0.4,1.6-0.7,2.4c-1,2.8-2.3,5.5-0.1,8.3
		c2.1,7.6-4.5,14.8-12.3,13.4c-0.3-0.1-0.7-0.1-1.1-0.1c-1.8,6.1-5.3,11.1-10.1,15c3.1,1.6,6.2,3.1,9.2,4.8c1.9,1.1,3.7,2.7,5.4,4.1
		c1.3,1.1,1.5,2.3,0.6,3.4c-0.9,1-2.1,1-3.4-0.1c-4.4-3.8-9.3-6.6-15-8.3c-2.1,8.6-7.3,13.5-16.4,13.2c-6.8-0.2-11.3-4.6-14-13.2
		c-5.8,1.6-10.9,4.5-15.3,8.6c-3.1,2.8-5.6,6.1-7.7,9.7c-0.3,0.5-0.6,1-1,1.4c-0.8,0.7-1.8,0.7-2.6,0c-0.9-0.7-1.1-1.7-0.5-2.7
		c0.7-1.4,1.5-2.7,2.4-4c5.2-7.6,12.2-13.1,20.9-16.3c0.3-0.1,0.5-0.2,1-0.4c-5-4-8.4-9-10.3-15.2c-5.6,1-10.1-0.6-12.7-5.8
		c-2.3-4.7-1.1-8.9,2.5-12.6c-3-5-5.2-10.3-6.2-16c-0.6-3.5-0.9-7.2-1.1-10.8c-0.1-1.9,1-2.8,2.8-2.4c5.2,1.1,9.8,0.1,13.5-3.8
		c0.9-1,2-1.9,3-2.8c1.1-1,2.3-1,3.2-0.1c0.9,0.9,0.8,2.2-0.2,3.2c-1.7,1.6-3.4,3.1-5.2,4.6c-3.1,2.6-6.7,3.7-10.7,3.5
		C34.7,24.9,34.1,24.9,33.3,24.9z M85.2,25.9c-0.2,0.2-0.4,0.4-0.7,0.6c-5.6,5.7-12.1,10.1-19.5,13c-4.2,1.7-8.6,2.8-12.9,4.1
		c-1.9,0.6-2.4,1-2.4,3c0,1.4,0,2.7,0,4.1c0.1,4.2-0.2,8.4,0.4,12.6c1.7,12.9,13.5,22.3,26.3,21.5C89.6,84,100,73.3,100.2,60.2
		c0.1-4.5,0-9.1,0-13.6c0-1.9-0.7-3.5-2.1-4.9c-1.6-1.6-3.2-3.1-4.5-4.9C90.8,33.2,88,29.6,85.2,25.9z M64.7,87.4
		c0.7,4.8,5.7,8.4,11,8.2c4.6-0.2,9.3-4.2,9.6-8.2C78.4,89.8,71.6,89.8,64.7,87.4z M45.5,51c-1.5,0.1-2.8,0-4,0.3
		c-3.1,0.9-5,4.2-4.3,7.3c0.8,3.3,3.8,5.5,7.1,5c0.4-0.1,1.2-0.5,1.2-0.8C45.6,59,45.5,55.2,45.5,51z M104.6,57.3c0,0-0.1,0-0.1,0
		c0,1.7,0.1,3.4,0,5c0,0.8,0.2,1.1,1,1.3c2.3,0.5,5-0.6,6.4-2.7c1.5-2.2,1.5-4.9,0-7.1c-1.4-2.1-4-3.2-6.2-2.8
		c-0.7,0.1-1.1,0.4-1,1.2C104.7,54,104.6,55.6,104.6,57.3z"/>
	<path class="st0" d="M54.3,100.5c0.9,0.1,1.6,0.1,2.2,0.2c1.6,0.3,2.4,1.7,1.7,3.1c-1.1,2-2.3,4-3.6,5.9c-0.7,1.1-1.9,1.2-2.9,0.6
		c-1-0.6-1.2-1.8-0.7-2.9c0.2-0.4,0.4-0.7,0.7-1.1c0.2-0.3,0.4-0.7,0.6-1.2c-0.8,0-1.3-0.1-1.9-0.1c-1.8-0.2-2.7-1.7-1.8-3.3
		c1.2-2.1,2.4-4.2,3.7-6.2c0.7-1.1,1.9-1.3,2.9-0.8c1.1,0.6,1.4,1.8,0.8,3C55.5,98.6,55,99.4,54.3,100.5z"/>
	<path class="st0" d="M98.2,106.9c-0.5,0-1.2,0-1.8,0c-1.7-0.1-2.7-1.6-1.9-3.1c1.2-2.2,2.5-4.4,3.9-6.6c0.7-1,1.8-1.2,2.8-0.6
		c1.1,0.6,1.4,1.6,0.8,2.7c-0.5,1-1.1,1.9-1.8,3.1c0.8,0,1.4,0,2,0c1.9,0.2,2.8,1.7,1.9,3.4c-1,1.9-2.1,3.7-3.3,5.4
		c-0.8,1.2-2,1.5-3.1,0.8c-1-0.6-1.2-1.8-0.6-3.1c0.4-0.7,0.7-1.3,1.1-2C98.4,107.2,98.3,107.1,98.2,106.9z"/>
	<path class="st0" d="M74.9,74.7c-2.7,0-5.5,0-8.2,0c-1.9,0-2.7-0.8-2.6-2.8c0.2-5.7,5.2-10.4,11-10.4c5.9,0,10.9,4.8,11,10.6
		c0,1.8-0.7,2.6-2.5,2.6C80.6,74.8,77.7,74.7,74.9,74.7z M81.2,70.3c-1.1-3-3.8-4.7-6.9-4.4c-2.7,0.3-5.1,2.2-5.4,4.4
		C73,70.3,77,70.3,81.2,70.3z"/>
	<path class="st0" d="M60.7,53c-0.9-0.5-1.5-0.8-2.1-1.2c-1-0.7-1.3-1.6-0.8-2.8c0.5-1.1,1.7-1.5,2.8-1c2,0.9,3.9,1.9,5.8,3
		c1.6,0.9,1.6,2.8,0,3.8c-1.8,1.1-3.7,2.2-5.7,3.2c-1.1,0.6-2.3,0.2-2.9-0.8c-0.6-1-0.3-2.2,0.7-2.9C59.2,53.8,59.9,53.5,60.7,53z"
		/>
	<path class="st0" d="M89.3,53c0.8,0.5,1.5,0.8,2,1.2c1.1,0.7,1.4,1.9,0.8,2.9c-0.6,1.1-1.8,1.5-3,0.8c-1.9-1-3.7-2-5.5-3.1
		c-1.6-1-1.6-2.9,0.1-3.8c1.8-1,3.6-1.9,5.5-2.9c1.2-0.6,2.4-0.2,3,0.9c0.6,1.1,0.2,2.2-1,2.9C90.6,52.3,90.1,52.6,89.3,53z"/>
</g>
<g>
	<path class="st0" d="M322.9,26.9c0.2,4.4-1.2,7.6-5.6,8.9c0.8,2.1,0.8,4.1-0.1,6.2c-0.9,2-2.4,3.3-4.5,3.9c0,0.9,0.1,1.8,0.1,2.7
		c-0.1,5.5-3,8.6-8.4,9.5c-3.9,0.6-7.7,0.1-11.4-0.8c-9.4-2.3-18.6-5.2-27.7-8.5c-3.6-1.3-6.5-3.5-9.2-6.1c-1.7-1.6-3.3-3.1-5.1-4.6
		c-1.8-1.5-3.9-2.2-6.3-2.2c-4.1,0.1-8.3,0-12.4,0c-1.6,0-2.5-0.7-2.5-2c0-1.3,0.9-2,2.5-2.1c4.6,0,9.1,0,13.7,0
		c3.1,0,5.7,1.4,8,3.3c2,1.7,4,3.6,5.9,5.4c2,1.9,4.3,3.4,6.9,4.4c9.8,3.5,19.7,6.6,29.8,8.9c2.8,0.6,5.7,0.6,8.5-0.1
		c3.5-0.8,4.1-3.7,3.5-7c-0.1-0.4-0.6-1-1.1-1.2c-3.4-1.6-6.9-3-10.8-2.8c-0.7,0-1.9,0.4-2.1,0.9c-0.4,1.1,0.3,2.1,1.4,2.5
		c1.8,0.6,3.7,1.1,5.6,1.6c0.5,0.1,1.1,0.2,1.6,0.4c1.1,0.4,1.6,1.1,1.4,2.2c-0.1,1-1.1,1.9-2.2,1.7c-2.9-0.7-5.8-1.4-8.6-2.5
		c-2.6-1.1-3.8-3.9-3.4-6.8c0.2-1.5,1-2.4,3.1-3.6c-1.5-1.9-2.5-3.9-1.9-6.4c0.5-2.4,1.9-4.1,4.3-4.9c-0.4-0.7-0.8-1.4-1-2.2
		c-1.5-4.2,1.2-8.1,5.6-8.1c5,0.1,9.9,0.8,14.7,2.4c5,1.6,10,3.3,15.1,4.7c4.7,1.3,9.5,2.5,14.2,3.6c1.6,0.4,3.4,0.3,5.1,0.1
		c1.5-0.1,2.2-1.1,1.4-2.5c-0.6-1.1-1.5-2.2-2.6-2.8c-2.2-1.1-4.5-2-6.9-2.8c-8.8-2.9-17.6-5.8-26.5-8.7c-0.3-0.1-0.6-0.2-1-0.3
		c-1.1-0.5-1.6-1.5-1.3-2.6c0.4-1.1,1.5-1.6,2.7-1.2c3.6,1.2,7.1,2.5,10.7,3.7c7,2.3,14.1,4.5,21,6.9c1.7,0.6,3.3,1.5,4.8,2.5
		c1.5,0.9,2.5,2.3,3,4c1.3,4.5-0.9,7.6-5.6,8c-4.3,0.3-8.5-0.6-12.6-1.7c-4.1-1.1-8.2-2.4-12.3-3.5
		C324.1,27.3,323.6,27.1,322.9,26.9z M302.2,21.7c-1.7,0-3-0.2-3.5,1.1c-0.5,1.4,0.3,2.5,1.3,3.2c1.6,1.1,3.2,2.2,5,2.9
		c2.1,0.9,4.4,1.5,6.6,2.1c1.4,0.4,2.9,0.7,4.3,0.8c1.2,0.1,2.1-0.5,2.6-1.6c0.9-2.1,0.5-3.6-1.4-4.8c-0.6-0.4-1.2-0.7-1.8-0.9
		C310.9,22.7,306.3,22,302.2,21.7z M298.3,31.9c-2-0.1-2.8,0.6-2.8,2.1c0,0.7,0.3,1.5,0.8,2c1.3,1.5,2.9,2.5,4.9,3
		c1.8,0.4,3.5,1,5.2,1.6c1.3,0.4,2.5,1,3.8,1.3c1.9,0.4,3-0.4,3.4-2.2c0.4-1.9,0-2.7-2-3.9C307.4,33.5,302.7,32.5,298.3,31.9z"/>
	<path class="st0" d="M322.9,76.2c3.6-1,7.1-1.9,10.6-2.8c5.5-1.5,11-2.9,16.5-4.4c2-0.5,2.8,0,3.3,2c0.6,2.1,1.1,4.2,1.7,6.2
		c0.6,2.3,0.2,3-2.1,3.7c-8.5,2.3-17,4.5-25.6,6.8c-0.4,0.1-0.8,0.2-1.3,0.4c0.4,1.4,0.7,2.7,1.1,4c1.5,5.8-1.3,11-7,12.8
		c-12.6,3.9-25.2,7.8-37.8,11.7c-1.4,0.4-3,0.8-4.5,0.5c-2.4-0.4-4-2.1-4.6-4.5c-3-11-6-22-8.9-33c-1-3.8,1-7,4.9-7.9
		c13.1-3,26.3-5.9,39.4-8.9c5.9-1.3,11,1.7,12.7,7.6C321.9,72.1,322.4,74.1,322.9,76.2z M311,66.3c-0.2,0-0.6,0.1-1.1,0.2
		c-13.1,2.9-26.3,5.9-39.4,8.8c-2.3,0.5-2.7,1.3-2.1,3.5c2.7,10.1,5.5,20.3,8.2,30.4c1.1,4.1,1.4,4.3,5.5,3
		c12.4-3.8,24.7-7.7,37.1-11.5c3.2-1,5-4.1,4.2-7.4c-2-7.6-4-15.1-6.1-22.6C316.5,68.1,314.1,66.3,311,66.3z M339.9,75.9
		c-5.4,1.4-10.6,2.8-15.9,4.2c0.4,1.3,0.7,2.6,1.1,3.9c5.4-1.4,10.6-2.8,15.9-4.2C340.6,78.4,340.2,77.2,339.9,75.9z M343.8,74.8
		c0.4,1.3,0.7,2.6,1,3.9c2-0.5,4-1.1,6-1.6c-0.4-1.4-0.7-2.6-1.1-3.9C347.8,73.8,345.9,74.3,343.8,74.8z"/>
	<path class="st0" d="M241.5,5.4c3.5,0,6.9,0.2,10.4,0c4.4-0.3,8.5-2.2,12.5-4c4.2-1.9,8.3-3.9,12.5-5.8c3.5-1.5,7.2-2.4,11.1-2.3
		c4.8,0.1,9.5-0.1,14.3,0c4.1,0.1,8.2-0.3,12.2-1.3c1.6-0.4,3.3-0.6,5-0.7c5-0.1,5.9,3.5,5.4,6.8c-0.4,2.3-1.8,3.9-3.5,5.2
		c-3.5,2.7-7.4,3.9-11.8,4.1c-4.1,0.2-8,1.1-11.8,2.5c-0.7,0.3-1.3,0.7-2,1.1c-1,0.7-2.1,0.5-2.8-0.4c-0.7-0.9-0.6-2.1,0.4-2.8
		c1.3-0.9,2.7-1.7,4.1-2.2c3.9-1.4,7.9-2.2,12.1-2.4c3.4-0.1,6.7-1.1,9.4-3.3c1.1-0.9,2-1.9,2-3.5c0-0.9-0.4-1.3-1.2-1.3
		c-1.5,0.1-3.1,0.2-4.6,0.6c-4.1,1.1-8.2,1.5-12.4,1.4c-4.2-0.1-8.5,0.2-12.7-0.1c-5.2-0.3-10,1.1-14.7,3.2c-5,2.3-9.9,4.6-15,6.8
		c-3.8,1.6-7.7,2.3-11.9,2.2c-5.3-0.1-10.6,0-15.8,0c-0.3,0-0.7,0-1,0c-1.2-0.1-2-0.9-2.1-2c0-1.2,0.8-2,2.1-2c3.3,0,6.5,0,9.8,0
		C241.5,5.4,241.5,5.4,241.5,5.4z"/>
	<path class="st0" d="M239.9,52.1c2.5,0,5,0,7.5,0c1.9,0,2.7,0.9,2.5,2.7c-1,9.7-2,19.3-2.9,29c-0.4,3.6-0.7,7.1-1.1,10.7
		c-0.2,1.6-0.7,2.2-2.3,2.3c-2.7,0.1-5.3,0.1-8,0c-1.2,0-1.8-0.8-1.9-2c-0.6-5.9-1.2-11.9-1.8-17.8c-0.7-7.2-1.4-14.4-2.2-21.6
		c-0.3-2.6,0.3-3.3,2.9-3.3C235,52.1,237.4,52.1,239.9,52.1z M233.9,56.2c1.2,12.2,2.4,24.3,3.6,36.4c1.5,0,2.9,0,4.5,0
		c1.2-12.2,2.4-24.3,3.6-36.4C241.6,56.2,237.8,56.2,233.9,56.2z"/>
	<path class="st0" d="M341.1,60.3c-6.1,0-9.5-4.6-7.6-10.4c0.6-2,1.9-3.8,2.8-5.7c1-2.2,2-4.4,2.9-6.7c0.4-0.9,0.9-1.5,1.9-1.5
		c0.9,0,1.7,0.4,1.9,1.3c0.7,3.5,2.8,6.3,4.4,9.4c0.8,1.6,1.6,3.3,1.8,5.1C349.7,57.1,346.7,60.3,341.1,60.3z M341.1,43.6
		c-1.4,2.7-2.7,5-3.7,7.4c-0.6,1.5-0.5,3.1,0.7,4.4c1,1,4.5,1.1,5.9,0.3c1-0.6,1.6-2.6,1.1-4.3c-0.1-0.6-0.3-1.1-0.6-1.6
		C343.5,47.8,342.4,45.9,341.1,43.6z"/>
	<path class="st0" d="M247.8,108.9c0,4.5-3.6,8.2-8.1,8.2c-4.5,0-8.1-3.7-8.1-8.1c0-4.4,3.6-8.1,8-8.1
		C244.1,100.8,247.8,104.5,247.8,108.9z M243.8,108.9c0-2.2-1.8-4-4-4c-2.2,0-4,1.8-4.1,4c0,2.3,1.8,4.1,4.1,4.1
		C242,113,243.8,111.1,243.8,108.9z"/>
	<path class="st0" d="M271.2,31.8c-0.1,0-0.3,0-0.4,0c-1.7,0-2.7-0.7-2.7-2c0-1.3,0.9-2,2.6-2.1c7.6-0.3,14-3,18.2-9.7
		c0.6-1,1.1-2.1,1.6-3.1c0.6-1.2,1.6-1.6,2.7-1.2c1.1,0.5,1.5,1.6,1,2.9c-3.5,8.2-9.8,13-18.5,14.7
		C274.3,31.6,272.7,31.7,271.2,31.8C271.2,31.9,271.2,31.9,271.2,31.8z"/>
	<path class="st0" d="M283.9,107.5c-2.3,0-3.7-1.2-4.3-3.4c-1.8-6.6-3.5-13.1-5.3-19.7c-0.1-0.4-0.2-0.8-0.3-1.2
		c-0.7-2.8,0.6-4.9,3.4-5.5c6.9-1.5,13.8-3.1,20.8-4.6c0.9-0.2,1.9-0.4,2.8-0.6c2.1-0.4,4.2,0.7,4.8,2.8c1.9,6.7,3.7,13.4,5.4,20.2
		c0.5,2.1-0.8,4-3.1,4.7c-6.2,1.9-12.4,3.9-18.6,5.8c-1.4,0.4-2.8,0.9-4.2,1.3C284.7,107.4,284.1,107.5,283.9,107.5z M283.6,103.4
		c7.9-2.4,15.7-4.8,23.6-7.3c-1.8-6.6-3.5-13.2-5.3-19.7c-8.1,1.8-16.1,3.6-24.1,5.4C279.7,89.1,281.6,96.2,283.6,103.4z"/>
	<path class="st0" d="M315.5,80.2c0.1,1.6-0.5,2.4-1.6,2.6c-1,0.2-1.9-0.3-2.2-1.3c-0.5-1.4-0.9-2.9-1.2-4.4c-0.2-1,0.3-1.8,1.3-2.1
		c1-0.4,2-0.1,2.4,0.9C314.8,77.4,315.2,79,315.5,80.2z"/>
	<path class="st0" d="M316.2,86.6c0.3,0.2,1,0.6,1.3,1.2c0.6,1.4,0.9,3,1.2,4.5c0.2,1-0.4,1.8-1.4,2.1c-1,0.3-2,0.1-2.3-0.9
		c-0.6-1.6-1-3.2-1.3-4.9C313.5,87.5,314.5,86.6,316.2,86.6z"/>
</g>
<g>
	<path class="st0" d="M520.4,186.7c0.3,0.1,0.6,0.3,0.9,0.4c10.3,2.1,16.1,9.1,16.4,19.6c0.3,9.2-2.3,17.2-9.4,23.5
		c-0.2,0.1-0.2,0.4-0.4,0.7c4,0.8,8.1,1.2,11.8,2.5c4.1,1.4,8.2,3.1,11.7,5.5c4.7,3.1,6.9,8,6.9,13.8c0,10.9,0,21.8,0,32.6
		c0,3.2-1.4,4.9-3.9,4.9c-2.6,0-4-1.7-4-4.9c0-10.5-0.1-20.9,0.1-31.4c0.1-5.2-2.2-8.9-6.8-10.7c-4.3-1.7-8.9-3-13.5-3.8
		c-11.8-2.1-23.6-1.5-35.2,1.8c-2,0.6-4,1.4-5.9,2.4c-4,2.1-6,5.3-5.9,10c0.1,10.6,0.1,21.3,0,31.9c0,2.8-1.2,4.4-3.4,4.7
		c-2.7,0.3-4.5-1.5-4.5-4.6c0-8.4,0-16.8,0-25.2c0-2.2,0.1-4.5,0-6.7c-0.3-7.9,3.4-13.3,10.1-17.1c5.7-3.2,12-4.3,18.4-5.4
		c0.6-0.1,1.3-0.2,2.2-0.4c-0.5-0.5-0.7-0.9-1.1-1.2c-8.5-8.3-10.7-18.3-7.7-29.5c1.9-7.1,7.1-11.3,14.3-12.9
		c0.6-0.1,1.2-0.4,1.9-0.5C515.8,186.7,518.1,186.7,520.4,186.7z M504,208.2c0,4.8,1.3,9.3,3.8,12.8c5.1,7.2,13.4,7.3,18.3-0.1
		c3.7-5.5,4.6-11.6,3-18c-0.9-3.9-3.5-6.5-7.3-7.7C511.9,192.1,504.1,197.8,504,208.2z"/>
	<path class="st0" d="M643.6,437.5c-1.3,1.5-2.7,3-5,2.3c-2.1-0.6-3-2.2-2.9-4.3c0-5.5-0.2-11,0.1-16.6c0.2-4.1-1.7-6.8-5.3-8
		c-4-1.4-8.2-2.4-12.4-3c-7.7-1.2-15.5-0.5-23,1.4c-1.7,0.4-3.5,1.1-5.1,1.9c-3.2,1.5-4.8,4-4.7,7.7c0.2,5.4,0.1,10.9,0,16.3
		c0,3-1.5,4.7-3.8,4.8c-2.4,0-4-1.8-4-4.9c0-5.6,0-11.2,0-16.8c-0.1-6,2.5-10.7,7.8-13.3c4.7-2.3,9.8-3.6,14.8-5.4
		c0,0-0.4-0.5-0.7-1c-5.3-6.3-6.8-13.6-4.9-21.5c1.9-8,8.9-12.4,18.2-11.7c7.8,0.5,13.8,6.1,14.8,13.8c1,7.6-0.7,14.4-6,20.1
		c-0.2,0.2-0.3,0.4-0.4,0.6c0,0.1,0,0.2,0,0.4c9.5,1.8,19.2,3.3,22.7,14.5C643.6,422.3,643.6,429.9,643.6,437.5z M610.4,373.1
		c-4.2,0-7.3,1.6-8.3,4.9c-1.7,5.6-0.9,10.9,3.1,15.4c3.1,3.5,7.4,3.4,10.5-0.1c3.1-3.4,4.2-7.6,3.7-12.1
		C619,375.7,616,373.1,610.4,373.1z"/>
	<path class="st0" d="M520.9,323.1c1.3,0,2.3,0,3.3,0c28.1,0,56.2,0,84.3,0c4.9,0,5.9,1,5.9,5.9c0,7,0,14,0,21c0,3.2-1.5,4.9-4,4.8
		c-2.4,0-3.9-1.8-3.9-4.8c0-6.3,0-12.5,0-18.9c-28.6,0-57,0-85.6,0c0,5.4,0,10.7,0,16c0,1.2,0,2.3,0,3.5c-0.1,2.5-1.7,4.2-3.9,4.2
		c-2.3,0-3.9-1.6-3.9-4.2c-0.1-5.6,0-11.2,0-16.8c0-0.9,0-1.8,0-2.8c-28.6,0-56.9,0-85.6,0c0,0.9,0,1.8,0,2.7c0,5.5,0,11,0,16.6
		c0,2.9-1.7,4.6-4.1,4.5c-2.3-0.1-3.8-1.8-3.8-4.6c0-7.3,0-14.7,0-22c0-3.9,1.2-5.2,5.2-5.2c16.2,0,32.5,0,48.7,0
		c12.2,0,24.4,0,36.6,0c0.9,0,1.8,0,3,0c0-1.9,0-3.6,0-5.3c0-4.3,0-8.6,0-12.9c0-2.7,1.6-4.5,3.9-4.5c2.3,0,3.9,1.7,4,4.4
		C520.9,310.9,520.9,316.8,520.9,323.1z"/>
	<path class="st0" d="M433.5,399.9c4,1,7.7,1.7,11.3,3c6.7,2.4,12.2,7,11.8,16.8c-0.2,5.3,0,10.5-0.1,15.8c0,2.2-1,4.1-3.2,4.3
		c-1.3,0.1-2.9-1-4.1-1.9c-0.6-0.5-0.5-1.8-0.6-2.8c0-5.4-0.2-10.7,0-16.1c0.1-4-1.6-6.8-5.2-8.1c-4-1.4-8.2-2.4-12.4-3
		c-7.7-1.2-15.4-0.6-23,1.4c-1.6,0.4-3.2,0.9-4.7,1.6c-3.4,1.6-5.4,4-5.2,8.1c0.2,5.3,0.1,10.7,0.1,16.1c0,3.1-1.5,4.9-4,4.9
		c-2.5,0-3.9-1.8-3.9-5c0-5.6,0.1-11.2,0-16.8c-0.1-5.9,2.4-10.6,7.6-13.1c4.3-2.1,9.1-3.1,13.7-4.6c0.4-0.1,0.9-0.2,1.8-0.3
		c-3.4-3.6-5.8-7.4-6.4-12c-0.4-3.3-0.7-6.8-0.1-10c1.6-8.8,8.8-13.6,18.5-12.8c8.3,0.6,14.3,6.8,14.9,15.4
		C440.8,388,438.8,394.5,433.5,399.9z M432.5,382.7c0-0.6,0-1.6-0.2-2.6c-0.6-4-3.4-6.6-7.5-6.9c-5.1-0.5-8.6,1.2-9.8,5.1
		c-1.7,5.6-0.8,10.8,3.1,15.2c3.1,3.5,7.3,3.4,10.5,0C431.4,390.5,432.4,387,432.5,382.7z"/>
	<path class="st0" d="M507,400.1c-3.5-3.6-5.9-7.6-6.5-12.2c-0.4-3.1-0.6-6.5-0.1-9.6c1.7-9.1,9.3-14.1,19.1-13
		c9,1,14.7,8.1,14.5,17.8c-0.2,6.4-2.3,12.1-7.1,16.9c3,0.7,5.8,0.9,8.4,1.9c3.3,1.2,6.6,2.7,9.4,4.6c3.6,2.4,5.3,6.3,5.3,10.7
		c0.1,6,0,12,0,18c0,2.9-1.6,4.7-4,4.7c-2.4,0-3.9-1.8-3.9-4.7c0-5.4-0.2-10.9,0-16.3c0.2-4.1-1.7-6.8-5.2-8c-4-1.4-8.2-2.4-12.4-3
		c-7.7-1.2-15.4-0.5-23,1.4c-1.6,0.4-3.2,0.9-4.7,1.6c-3.5,1.6-5.3,4.1-5.1,8.1c0.2,5.3,0.1,10.7,0,16.1c0,3.1-1.6,4.9-4,4.8
		c-2.4-0.1-3.9-1.8-3.9-4.8c0-5.6,0.1-11.2,0-16.8c-0.1-6,2.4-10.8,7.7-13.4c4.3-2.1,9.1-3.1,13.7-4.6
		C505.7,400.3,506.1,400.2,507,400.1z M526.1,382.5c0-0.5-0.1-1.7-0.3-2.8c-0.7-3.9-3.6-6.3-7.8-6.6c-5.1-0.3-8.5,1.4-9.6,5.5
		c-1.4,5.2-0.6,10.1,2.8,14.4c3.3,4,8,4,11.4-0.1C525,390.2,526,386.8,526.1,382.5z"/>
	<path class="st0" d="M500.4,273.2c0,4,0,8.1,0,12.1c0,3.1-1.5,4.9-4.1,4.8c-2.4-0.1-3.8-1.7-3.8-4.8c0-8.2,0-16.3,0-24.5
		c0-3,1.4-4.8,3.8-4.8c2.4-0.1,4.1,1.8,4.1,4.8C500.5,265,500.4,269.1,500.4,273.2z"/>
	<path class="st0" d="M541.3,273.2c0,4.1,0,8.2,0,12.4c0,2.9-1.4,4.5-3.8,4.5c-2.5,0.1-4.1-1.6-4.1-4.5c-0.1-8.3-0.1-16.6,0-25
		c0-2.9,1.7-4.7,4.1-4.6c2.3,0.1,3.8,1.8,3.8,4.6C541.4,264.8,541.3,269,541.3,273.2z"/>
</g>
</svg>
