<svg width="102" height="125" viewBox="0 0 102 125" fill="none" xmlns="http://www.w3.org/2000/svg">
<g clip-path="url(#clip0_34_46)">
<path d="M93.9605 34.9902C92.6588 30.9795 95.6033 23.7361 92.1348 18.9708C90.0103 16.0514 86.2841 15.121 82.9965 14.2999C77.3686 12.8949 76.9387 12.5739 73.9077 7.70528C72.1043 4.80834 70.0601 1.52492 66.5794 0.394804C60.9808 -1.42305 55.145 3.63134 50.7812 3.63134C46.4327 3.63134 40.5665 -1.41841 34.9826 0.394804C31.5024 1.52492 29.4582 4.80833 27.6548 7.70504C24.6226 12.5753 24.1956 12.8939 18.566 14.2999C15.2782 15.121 11.5521 16.0516 9.42715 18.9708C5.96234 23.732 8.89908 30.9936 7.60173 34.9904C6.3598 38.8148 -0.334473 42.9486 -0.334473 49.0203C-0.334473 52.7441 2.17576 55.7226 4.39058 58.3503C7.99504 62.6264 8.20914 63.133 7.81047 69.0042C7.58195 72.3675 7.32341 76.1797 9.42715 79.0701C12.5829 83.4062 19.2371 83.3483 23.0327 85.1276L11.7574 112.194C10.9718 114.08 12.7218 116.044 14.6856 115.479L27.894 111.682L34.4984 123.734C35.4579 125.485 38.0143 125.405 38.8556 123.585L50.7815 97.7874L62.7074 123.585C63.545 125.397 66.1009 125.492 67.0645 123.734L73.669 111.682L86.8773 115.479C87.7789 115.739 88.7501 115.457 89.3744 114.757C89.9989 114.057 90.1663 113.06 89.8058 112.194L78.5297 85.1274C82.3327 83.3447 88.9793 83.4062 92.1356 79.0696C95.6004 74.3084 92.6639 67.0467 93.961 63.05C95.2027 59.2265 101.897 55.0918 101.897 49.0201C101.897 42.962 95.1941 38.7887 93.9605 34.9902ZM36.4545 117.143L31.2377 107.623C30.6891 106.622 29.5202 106.134 28.4223 106.45L18.2181 109.383L26.7505 88.9027C29.3215 92.8648 31.8298 98.0425 37.555 98.0425C40.5899 98.0425 43.6187 96.556 46.4742 95.4686L36.4545 117.143ZM73.1404 106.45C72.0427 106.135 70.8736 106.622 70.325 107.623L65.1082 117.143L55.0886 95.4683C58.8219 96.8902 62.6981 98.9065 66.5797 97.6456C70.5882 96.3443 72.6487 92.2374 74.8123 88.9025L83.3446 109.383L73.1404 106.45ZM89.3163 61.5422C87.6815 66.5785 90.2262 73.3941 88.1871 76.1963C85.9938 79.2104 78.3945 78.5398 73.916 82.3332C70.179 85.5754 68.2928 91.9554 65.0721 93.0016C61.8539 94.044 56.1388 89.5263 50.7815 89.5263C45.3953 89.5263 39.7176 94.0482 36.4911 93.0016C33.2309 91.9427 31.2211 85.2782 27.622 82.3122C25.4214 80.4145 22.5864 79.7117 19.7496 79.0032C12.6864 77.2393 12.1949 76.5181 12.683 69.3346C12.861 66.7125 13.0448 64.0011 12.2467 61.5424C10.6464 56.6147 4.54927 52.6958 4.54927 49.0201C4.54927 45.3555 10.6515 41.41 12.2467 36.4982C13.8815 31.4619 11.3368 24.6458 13.3761 21.8438C15.4605 18.9798 22.6895 19.3629 26.9751 16.2443C31.206 13.1649 33.0841 6.14499 36.4911 5.03856C39.7054 3.9956 45.4244 8.51387 50.7817 8.51387C56.1374 8.51387 61.8568 3.99438 65.0721 5.03856C68.4952 6.15012 70.3321 13.1469 74.5886 16.2443C78.8471 19.3436 86.1122 18.9918 88.1876 21.8438C90.2374 24.6609 87.672 31.4314 89.317 36.498C90.9224 41.4425 97.0142 45.3372 97.0142 49.0201C97.0139 52.6851 90.9141 56.6223 89.3163 61.5422Z" fill="#00FFBB"/>
<path d="M50.7814 13.4857C31.1876 13.4857 15.2468 29.4265 15.2468 49.0203C15.2468 68.6141 31.1876 84.5548 50.7814 84.5548C70.3752 84.5548 86.316 68.6141 86.316 49.0203C86.316 29.4265 70.375 13.4857 50.7814 13.4857ZM50.7814 79.6718C33.8799 79.6718 20.1296 65.9215 20.1296 49.02C20.1296 32.1186 33.8799 18.3682 50.7814 18.3682C67.6828 18.3682 81.4332 32.1186 81.4332 49.02C81.4329 65.9215 67.6826 79.6718 50.7814 79.6718Z" fill="#00FFBB"/>
<path d="M58.7747 37.6376L52.971 25.8775C52.077 24.0662 49.4864 24.0657 48.5921 25.8775L42.7885 37.6376L29.8108 39.5234C27.8126 39.8136 27.0103 42.277 28.4576 43.6876L37.8484 52.8416L35.6316 65.767C35.2908 67.7579 37.3852 69.2804 39.174 68.3407L50.7818 62.238L62.3896 68.3407C64.1704 69.2765 66.2746 67.7682 65.9321 65.767L63.7153 52.8416L73.1061 43.6876C74.5521 42.278 73.7528 39.8141 71.7528 39.5234L58.7747 37.6376ZM59.3874 50.241C58.8123 50.8018 58.5496 51.6099 58.6853 52.4019L60.2829 61.7167L51.9176 57.3188C51.2069 56.9451 50.3563 56.9448 49.6454 57.3188L41.28 61.7167L42.8776 52.4019C43.0133 51.6099 42.7506 50.8018 42.1755 50.241L35.4077 43.6442L44.7604 42.2853C45.5558 42.1698 46.243 41.6703 46.5988 40.9498L50.7813 32.4748L54.9639 40.9498C55.3196 41.6703 56.0069 42.1698 56.8023 42.2853L66.155 43.6442L59.3874 50.241Z" fill="#00FFBB"/>
</g>
<defs>
<clipPath id="clip0_34_46">
<rect width="101.562" height="125" fill="white"/>
</clipPath>
</defs>
</svg>
