<?xml version="1.0" encoding="utf-8"?>
<!-- Generator: Adobe Illustrator 24.3.0, SVG Export Plug-In . SVG Version: 6.00 Build 0)  -->
<svg version="1.1" id="Layer_1" xmlns="http://www.w3.org/2000/svg" xmlns:xlink="http://www.w3.org/1999/xlink" x="0px" y="0px"
	 viewBox="0 0 150 150" style="enable-background:new 0 0 150 150;" xml:space="preserve">
<style type="text/css">
	.st0{fill:#CDEEFD;}
	.st1{fill:#111224;}
	.st2{fill:#005BAB;}
</style>
<path class="st0" d="M1465.3,1556.3c-2.4-0.2-4.3-1.3-4.4-4.1c-0.1-6.7,1.6-10,4.9-9.9c0.2,0,0.3,0,0.5,0c2.2,0.5,4.3,2.1,3.2,4
	C1467.7,1549.5,1473.1,1555.7,1465.3,1556.3z M1465.5,1554.4c1.3-0.1,2.3-0.6,2.3-2.1c-0.1-1.7-1.5-2.1-2.8-2.4c-1.6-0.4-2,0.8-2,2
	C1463,1553.5,1464,1554.2,1465.5,1554.4z M1467.8,1546.5c0-1.4-0.6-2.2-2.1-2.2c-0.9,0-1.6,0.4-1.7,1.4c-0.2,1.4,0.9,2.1,2,2.5
	C1467.3,1548.5,1467.6,1547.5,1467.8,1546.5z"/>
<path class="st0" d="M1455.8,1556.6c-0.5-2.9-1.8-4.2-4.6-3.6c-0.7,0.2-1.7,0.3-2.1-0.8c-0.4-1.1,0.1-1.5,1.2-2.1
	c2.1-1.2,2.1-3.9,3.2-5.8c0.6-1,1-2.2,2.5-1.9c1.4,0.3,0.9,1.6,0.8,2.5C1456.4,1548.6,1458.4,1552.5,1455.8,1556.6z"/>
<path class="st1" d="M1465.5,1554.4c-1.5-0.1-2.6-0.8-2.5-2.4c0-1.2,0.4-2.4,2-2c1.2,0.3,2.7,0.7,2.8,2.4
	C1467.8,1553.7,1466.8,1554.2,1465.5,1554.4z"/>
<path class="st1" d="M1467.8,1546.5c-0.2,1-0.5,2.1-1.8,1.7c-1.1-0.4-2.1-1-2-2.5c0.1-1,0.8-1.4,1.7-1.4
	C1467.2,1544.3,1467.8,1545,1467.8,1546.5z"/>
<polygon class="st2" points="1346.8,29.4 1346.9,29.6 1346.6,29.6 "/>
<g>
	<path class="st2" d="M11.1,42.4c-3.3-3.4-3.8-6.7-1.5-9.5c2.2-2.7,5.5-2.9,9.5-0.5c4.9-4.4,9.8-4.7,13.2-0.8c3.4,3.9,2.4,8.8-3,13
		c2.1,1.7,4.2,3.4,6.5,5.3c1-1.3,1.9-2.5,2.7-3.7c3.9-5.5,10.9-5.1,15.4,0.4c0.7,0.9,1,2.3,1,3.4c0.1,7.7,0.1,15.5,0,23.2
		c0,2.9-2,4.9-4.6,4.8c-2.6,0-4.4-2-4.4-4.9c0-1.8,0-3.6,0-5.5c-2.4,1.6-3.1,4.2-1.9,6.4c1.6,2.9,3.3,5.9,4.9,8.8
		c1,1.7,1.3,3.6,1,5.5c-1,6.6-1.9,13.1-2.7,19.7c-0.1,0.5,0.4,1.2,0.7,1.7c0.8,1.3,1.8,2.5,2.4,3.9c0.4,0.8-0.1,1.4-1.1,1.4
		c-4.5,0-9.1,0-13.6-0.1c-0.4,0-1.1-0.8-1.2-1.2c-0.2-1.1-0.1-2.3-0.1-3.5c0-0.3,0-0.7,0.1-0.8c2.3-1.9,1.1-4.6,2.1-6.8
		c-0.2-0.1-0.4-0.2-0.5-0.2c-1.4,2.4-2.7,4.7-4.1,7.1c-0.1,0.2,0.1,0.6,0.2,0.9c0.2,0.4,0.7,0.7,0.8,1.1c0.3,1,0.5,2,0.7,3
		c-0.9,0.2-1.7,0.5-2.6,0.5c-3.7,0.1-7.3,0-11,0c-1.2,0-1.7-0.4-1.6-1.6c0.1-2.1,0.2-3.9,1.4-5.8C23.6,102,26.8,96,30.1,90
		c0.3-0.6,0.6-1.4,0.5-2.1c-0.6-4.4-1.3-8.8-2-13.3c-0.1-0.7-0.4-1.3-0.6-2c-1.9-4.9-1.4-9.4,1.6-13.7c0.8-1.1,1.5-2.2,2.5-3.5
		c-2.3-1.8-4.5-3.6-6.7-5.4c-3.4,6.1-7.7,7.9-12.3,5.3C8.6,52.8,7.9,48.1,11.1,42.4z M30.2,60.6c-2.8,4.2-2.7,9.2,0.2,13.6
		c2.8,4.3,5.8,8.6,8.6,12.9c0.5,0.7,0.7,1.8,0.6,2.7c-0.5,4.2-1.1,8.4-1.7,12.6c-0.3,2.1-0.5,4.2-0.8,6.5c2.5,0,4.8,0,7,0
		c1.1,0,1.5-0.3,1.6-1.4c0.7-5.5,1.4-11.1,2.4-16.5c0.7-3.8,0.1-7.1-2-10.2c-1.3-1.9-2.3-4.1-3.4-6.1c-1-1.7-2.2-3.3-0.1-5.2
		C38.4,66.6,34.4,63.6,30.2,60.6z M43.3,68.3c1.7-2.3,3.1-4.5,2.8-7.5c-0.2-2.6-0.1-5.2,0-7.8c0-0.4,0.4-0.8,0.6-1.2
		c0.2,0.4,0.6,0.8,0.6,1.2c0.2,1.3-0.2,3.1,0.5,3.7c0.8,0.7,2.5,0.2,3.9,0.3c0.2,0,0.5,0,0.7,0c0.9,0.1,1.2-0.4,1.2-1.2
		c0-2,0.1-4-0.1-5.9c-0.1-0.9-0.4-1.9-0.9-2.6c-4.2-4.6-9.9-4.7-13.2,0.1C37.1,51,34.5,54.5,32,58c-0.3,0.4-0.5,0.9-0.9,1.4
		C35.2,62.4,39.1,65.3,43.3,68.3z M21.1,108.9c3,0.2,5.7,0.5,8.4,0.6c0.5,0,1.1-0.6,1.4-1.1c1.7-2.8,3.4-5.5,4.9-8.4
		c0.9-1.7,1.4-3.6,1.9-5.5c0.4-1.3,0.5-2.7,0.6-4.1c0-0.9-0.1-2-0.6-2.7c-1.5-2.5-3.2-4.9-4.8-7.3c-0.6-1-1.3-1.9-2-2.9
		c-0.3,0.8-0.2,1.4-0.2,2.1c0.4,2.8,0.9,5.6,1.3,8.4c0.1,0.8-0.1,1.9-0.5,2.6c-2.8,5-5.7,10-8.5,15
		C22.4,106.6,21.8,107.6,21.1,108.9z M34.9,51.1c-2.3-1.9-4.5-3.6-6.7-5.4c-1.9-1.5-1.8-1.9,0.4-2.8c2.7-1.1,4.3-3.7,4.1-6.5
		c-0.2-2.9-2.3-5.3-5-6c-2.7-0.7-5.5,0.5-7.1,3c-1.2,1.8-1.2,1.8-2.6,0.3c-1.4-1.4-3-2-4.9-1.3c-1.9,0.6-3,2-3.3,3.9
		c-0.2,2,0.6,3.5,2.2,4.6c1.9,1.2,1.9,1.2,0.4,2.8c-2,2.1-2.5,5.1-1.2,7.6c1.3,2.5,3.9,3.9,6.6,3.5c2.7-0.3,4.9-2.3,5.5-5.1
		c0.6-2.4,0.9-2.5,2.9-0.9c2.1,1.7,4.2,3.4,6.5,5.2C33.5,53,34.1,52.2,34.9,51.1z M47.4,58.5c0,5,0,9.7,0,14.5
		c0,2.2,1.3,3.6,3.2,3.6c1.9,0,3.1-1.4,3.1-3.6c0-4.4,0-8.7,0-13.1c0-0.4-0.1-0.9-0.2-1.4C51.4,58.5,49.5,58.5,47.4,58.5z M49,113.8
		c-0.8-2.2-2-3.2-3.9-3.3c-2.7,0-5.3,0-8,0c-1.3,0-1.3,0.8-1.3,1.7c0,1,0,1.7,1.3,1.7c2.8-0.1,5.7,0,8.5,0
		C46.7,113.8,47.7,113.8,49,113.8z M32.3,113.8c-0.4-1.8-1.2-2.8-2.9-2.9c-2.1-0.1-4.2-0.3-6.2-0.4c-1-0.1-2,0-3.1,0
		c0,0.9-0.1,1.6,0,2.2c0.1,0.4,0.6,1,1,1C24.7,113.8,28.4,113.8,32.3,113.8z"/>
	<path class="st2" d="M88.2,99.8c1.4,4.1,2.6,8,4.1,11.8c0.7,1.8,0.8,3.3-0.4,4.9c-0.4,0.6-0.6,1.2-1,2c2.9-1.3,3.9-3.2,3.4-5.9
		c-0.6-3.2-1.2-6.4-1.9-9.6c-0.3-1.3,0-1.9,1.3-2.3c3.3-1,6.6-2.2,9.9-3.3c0.5-0.2,1.1-0.4,1.7-0.7c-0.9-3-1.8-5.9-2.6-8.8
		c-0.2-0.5-0.1-1.1-0.1-1.6c0.5,0,1.1-0.1,1.6,0.1c4.3,1.1,8.6,2.3,13,3.4c2.3,0.6,2.7,1,2.6,3.5c-0.4,17.1-7.1,31.7-18,44.5
		c-2.9,3.4-6.3,6.5-9.6,9.6c-2.1,2-3.3,1.9-5.5,0.1c-13.4-11.7-22.9-25.8-26.4-43.4c-0.7-3.4-0.9-6.9-1.2-10.4
		c-0.2-3.1,0.3-3.2,3.2-4.1c6.1-1.7,12.2-3.6,18.3-5.7c2.4-0.8,4.7-2.4,6.9-3.8c1.5-1,2.7-1,4.1,0.1c1.3,1,2.7,1.9,4.2,2.5
		c1.6,0.6,2.3,1.7,2.6,3.3c0.5,2.3,1.1,4.6,1.9,6.9c0.5,1.6,0,2.3-1.5,2.8C95.3,97.1,91.8,98.5,88.2,99.8z M98.4,93.8
		c0.1-0.1,0.2-0.3,0.3-0.4c-0.4-1.6-1-3.2-1.3-4.8c-0.4-2.5-1.5-4.3-4-5.2c-1.1-0.4-2-1.1-2.9-1.8c-0.8-0.6-1.4-0.5-2.2,0
		c-1.5,1-2.9,1.9-4.5,2.7c-6.8,3.5-14,5.6-21.5,7c-1.4,0.3-1.9,0.8-1.8,2.2c0.3,3.1,0.4,6.2,1,9.2c3.3,17.8,12.7,32,26.1,43.8
		c1.3,1.1,2.2,1,3.5,0c7.2-6.2,13.2-13.3,17.9-21.5c5.6-9.7,8.8-20.1,9.2-31.3c0.1-1.4-0.4-2-1.8-2.3c-3.4-0.7-6.8-1.7-10.1-2.5
		c-0.6-0.1-1.1-0.3-2-0.5c0.8,2.5,1.5,4.6,2,6.7c0.3,1.1,0.9,1.5,1.9,1.7c3,0.7,3,0.7,2.7,3.8c0,0.3-0.1,0.7-0.1,1
		c-1.9,14.8-9.3,26.6-20,36.6c-1,1-1.8,0.9-2.8,0c-11.2-10.5-18.7-22.9-20.2-38.5c-0.2-1.7,0.3-2.4,2-2.7c6.3-1.4,12.5-3.4,18.1-6.7
		c1.2-0.7,2-0.6,3.2,0C93.4,91.5,95.9,92.6,98.4,93.8z M96.8,95c-2.5-1.3-4.7-2.5-6.9-3.5c-0.4-0.2-1-0.1-1.4,0.1
		c-5.4,3.1-11.3,5.1-17.4,6.5c-1.7,0.4-1.9,1.1-1.7,2.7c1.2,9.6,4.8,18.3,10.6,26c2.8,3.7,6,7,9,10.5c0.6-0.4,0.9-0.5,1-0.6
		c3-3.3,6.2-6.5,8.9-10c5.8-7.7,9.4-16.3,10.4-25.9c0.2-2.3-1-3.3-3.3-2.5c-3.7,1.2-7.3,2.4-10.9,3.6c-1,0.3-1.3,0.8-1.1,1.9
		c0.8,3.5,1.4,6.9,2.1,10.4c0.2,1.1,0.1,1.9-0.7,2.6c-2.2,2.1-4.4,4.3-6.6,6.5c-0.4,0.4-1.1,0.4-1.6,0.6c0.1-0.5,0-1.1,0.2-1.6
		c1.1-2.2,2.2-4.5,3.4-6.7c0.6-1,0.7-2,0.3-3.1c-1.4-3.9-2.6-7.8-4.1-11.7c-0.5-1.4-0.2-2.1,1.2-2.5C91,97.3,93.7,96.2,96.8,95z"/>
	<path class="st2" d="M114.9,55.5c-2.8,1-5,2.1-7.4,2.7c-2.3,0.6-4.8,0.6-7.5,1c0.2,0.6,0.4,1.3,0.6,1.9c0.9,2.4,0.3,4.7-1.7,6
		c-1.9,1.3-4.4,1.1-6.1-0.5c-1.7-1.7-1.9-4.1-0.5-6.4c0.5-0.9,1-1.8,1.4-2.6c-2.3-1.7-4.5-3.3-6.7-4.8c-0.3-0.2-1.1-0.2-1.4,0
		c-0.8,0.8-1.6,1.6-2.2,2.6c-1.1,1.8-2.6,2.6-4.3,2.2c-1.8-0.4-2.9-1.8-2.9-3.6c0-1.9,1-3.1,3-3.7c0.7-0.2,1.3-0.4,1.9-0.7
		c1.9-1.1,1.9-1.4,1.1-3.4c-0.6-1.3-1.1-2.7-1.4-4.1c-0.3-1.3-1-1.5-2-1.1c-0.7,0.2-1.3,0.5-2,0.8c-1.9,0.6-3.9,0-5-1.6
		c-1-1.4-0.9-3.7,0.2-5.1c1.1-1.4,3.1-1.8,4.9-1.1c0.8,0.3,1.5,0.6,2.3,0.9c0.2,0.1,0.4,0.1,0.9,0.1c0.1-0.7,0.2-1.4,0.4-2
		c0.8-3.7,2.2-7.1,4.7-10c0.9-1,0.7-1.7-0.2-2.4c-0.7-0.5-1.4-1-2.2-1.5c-2-1.2-2.8-3.1-2.2-5.2c0.6-2,2.2-3.1,4.4-3
		c2.2,0.1,3.5,1.3,4,3.6c0.1,0.3,0.2,0.7,0.3,1c0.8,2.5,1.1,2.5,3.4,1.6c2.2-0.8,4.5-1.5,6.8-1.9c1.3-0.2,1.6-0.8,1.4-1.8
		c-0.2-0.7-0.5-1.4-0.7-2.2c-0.6-1.9,0-3.7,1.5-4.8c1.5-1.1,3.6-1,5,0.1c1.4,1.1,1.9,3.2,1.2,4.9c-0.4,1.2-1.4,2.6-1,3.5
		c0.3,0.8,2.1,1,3.2,1.6c1.9,0.9,3.7,1.9,5.9,3c0.9-1.6,1.8-3.2,2.6-5c0.9-2.2,2.1-3.1,4.1-3c1.7,0.1,2.9,1,3.4,2.5
		c0.7,1.9,0,3.5-1.8,4.8c-1.3,0.9-2.6,1.9-3.9,2.9c-0.4,0.3-0.8,0.7-1,0.9c1.3,2.7,2.5,5.3,3.6,7.8c0.4,0.8,0.5,1.8,0.7,2.7
		c0.4,2.6,2.7,4.2,5.4,3.8c0.6-0.1,1.3-0.3,1.9-0.3c1.8-0.1,3,0.7,3.7,2.4c0.6,1.6,0.2,3.2-1.2,4.2c-1.4,1.1-2.9,1-4.4,0.2
		c-1.3-0.7-2.7-1.2-4.1-1.6c-0.9-0.3-1.5,0.2-1.8,1.2c-0.8,3.1-2.4,5.8-4.3,8.3c-0.3,0.4-0.4,1.3-0.1,1.6c0.9,1,1.9,2.1,3.1,2.5
		c2.7,1.1,4.2,3.1,3.7,5.7c-0.5,2.4-2.6,4-5.1,3.8c-2.7-0.2-4.2-2.1-4.6-5C116,58.4,115.3,57,114.9,55.5z M109.6,51
		c0.1-0.2,0.1-0.5,0.2-0.7c0.8,0.2,1.7,0.2,2.4,0.6c3.4,2.1,5.2,5.2,5.6,9.1c0.2,2,1.3,3.3,3.1,3.4c1.6,0.1,3.1-1.1,3.4-2.7
		c0.3-1.7-0.6-3.1-2.5-3.9c-1-0.4-2-0.7-2.7-1.5c-2.6-2.7-3.5-6.1-3.3-9.8c0-0.4,0.4-0.9,0.6-1.3c0.2,0.4,0.6,0.9,0.7,1.3
		c0.2,1.4,0.4,2.8,0.5,4.5c5.8-5.5,8.1-18.1,0-27.1c-7.6-8.5-19.9-8.2-25.4-3.8c1.1,0.5,2,0.8,2.9,1.3c0.4,0.2,0.6,0.5,1,0.8
		c-0.4,0.2-0.9,0.6-1.2,0.5c-2.7-0.3-4.6-1.9-5.9-4.2c-0.6-1.1-0.9-2.4-1.3-3.6c-0.5-1.3-1.4-2.2-2.7-1.9c-0.9,0.2-2,1-2.5,1.8
		c-0.7,1.2-0.1,2.4,1,3.2c0.5,0.3,1,0.6,1.5,0.9c2.8,1.8,4.5,5.5,3.8,8.8c-0.1,0.4-0.6,0.8-0.9,1.2c-0.2-0.4-0.4-0.8-0.5-1.3
		c-0.1-1-0.2-2.1-0.2-3.2c-0.2,0-0.3,0-0.5-0.1c-2.7,3.1-4.3,6.7-4.7,10.9c0.4,0,0.5,0,0.6,0c0.6,0.1,1.2,0.1,1.8,0.2
		c-0.5,0.4-0.9,1.1-1.5,1.2c-2,0.6-3.9,0.4-5.7-0.6c-1.4-0.7-2.7-0.7-3.7,0.6c-0.8,1-0.9,2.2-0.1,3.2c1,1.3,2.2,1.3,3.7,0.8
		c1.7-0.5,3.5-0.5,5.2-0.5c0.5,0,1,0.7,1.4,1c-0.4,0.4-0.8,0.7-1.4,1.2c1.7,6.3,5.5,10.9,11.9,14c-0.1-1.3-0.3-2.1-0.3-3
		c0-0.6,0.2-1.2,0.4-1.8c0.4,0.5,0.8,1,1.1,1.6c0.1,0.3,0.1,0.7,0.1,1c0.2,2.8-0.4,5.3-2,7.6c-0.9,1.2-0.8,2.5,0,3.8
		c0.8,1.2,2.1,1.7,3.5,1.4c1.4-0.3,2.4-1.3,2.5-2.8c0.1-0.8-0.2-1.6-0.5-2.3c-1-2.6-1-5.1,0-7.6c0.2-0.5,0.8-0.8,1.2-1.1
		c0,0.5,0.2,1.1,0.1,1.6c-0.2,1-0.4,2-0.7,3.2c5.2,0.5,9.6-0.4,14-3.3C112.2,52.9,110.9,51.9,109.6,51z M105.3,14.9
		c0.5-1.4,1-2.7,1.6-3.9c0.6-1.3,0.4-2.4-0.7-3.3c-1-0.9-2.1-1-3.2-0.2c-1.2,0.8-1.5,1.9-1.1,3.2c0.2,0.7,0.6,1.4,0.6,2.2
		C102.6,14.7,103.4,15.4,105.3,14.9z M117.6,20.8c0.1,0.2,0.4,0.6,0.7,0.9c2.1-1.6,4.1-2.8,5.8-4.4c0.6-0.5,1.1-1.8,0.9-2.5
		c-0.2-0.7-1.3-1.7-2-1.7c-0.8,0-1.9,0.8-2.4,1.6C119.5,16.5,118.6,18.6,117.6,20.8z M124.2,39.6c2.3,1,4.3,2,6.4,2.7
		c0.7,0.2,2,0,2.4-0.5c0.5-0.5,0.7-1.8,0.4-2.4c-0.3-0.7-1.5-1.4-2.1-1.3c-2.3,0.5-4.6,0.4-6.8-0.9
		C124.4,38.3,124.3,39.1,124.2,39.6z M84.4,49.8c-1.8,0.8-3.4,1.4-4.9,2.2c-0.7,0.4-1.5,1.4-1.5,2c0,0.7,0.8,1.8,1.5,2
		c0.7,0.2,1.8-0.3,2.4-0.9c1.2-1.3,2.1-2.8,3.3-4.3C85,50.6,84.6,50.1,84.4,49.8z"/>
	<path class="st2" d="M56.3,29c4.2,0,7.3,3.1,7.2,7.3c0,4.1-3.3,7.3-7.3,7.3c-4.1,0-7.3-3.3-7.3-7.4C49,32.1,52.2,28.9,56.3,29z
		 M56.2,42.1c3.2,0,5.9-2.5,6-5.8c0.1-3.1-2.6-5.9-5.8-6c-3.2-0.1-5.9,2.6-5.9,5.8C50.4,39.4,52.9,42,56.2,42.1z"/>
	<path class="st2" d="M112.2,66.3c2.6,0,4.6,2.1,4.6,4.7c0,2.5-2.2,4.6-4.7,4.6c-2.7,0-4.7-2.1-4.6-4.8
		C107.5,68.1,109.5,66.3,112.2,66.3z M115.3,70.9c0-1.7-1.5-3.2-3.2-3.2c-1.7,0-3.2,1.6-3.2,3.3c0,1.7,1.6,3.2,3.3,3.1
		C113.9,74.1,115.3,72.7,115.3,70.9z"/>
	<path class="st2" d="M69.8,22.9c0-2.3,1.8-4,4.1-4c2.3,0,4.1,1.9,4.1,4.1c0,2.2-1.9,4.1-4.2,4.1C71.5,27,69.8,25.2,69.8,22.9z
		 M73.9,25.5c1.4,0,2.6-1.3,2.6-2.7c-0.1-1.4-1.2-2.5-2.6-2.6c-1.4,0-2.7,1.3-2.7,2.7C71.2,24.3,72.4,25.6,73.9,25.5z"/>
	<path class="st2" d="M134.6,23.3c0,1.9-1.2,3.2-3.1,3.2c-1.9,0-3.4-1.4-3.4-3.2c0-1.8,1.4-3.1,3.2-3.2
		C133.3,20.1,134.6,21.4,134.6,23.3z M131.5,25.8c0.8-1.2,1.6-1.9,1.6-2.4c-0.1-0.6-1-1.1-1.6-1.7c-0.6,0.6-1.5,1.1-1.6,1.7
		C129.8,23.9,130.7,24.6,131.5,25.8z"/>
	<path class="st2" d="M81.9,66.4c0,1.3-1.1,2.3-2.4,2.2c-1.4-0.1-2.1-1-2.2-2.3c-0.1-1.3,1.1-2.3,2.4-2.2
		C80.9,64.2,81.9,65.2,81.9,66.4z"/>
	<path class="st2" d="M95,6.6c-0.1,1.3-0.8,2.1-2.2,2.1c-1.4,0-2.2-0.8-2.3-2.1c-0.1-1.2,1-2.4,2.3-2.3C94.1,4.4,94.9,5.2,95,6.6z"
		/>
	<path class="st2" d="M39.5,11.5c-0.2-0.1-0.5-0.2-0.6-0.4c-0.1-0.2,0-0.7,0.1-0.7c2.6-1.3,5.3-2.6,8-3.9c0.2-0.1,0.6,0.2,0.8,0.4
		c0.1,0.1-0.1,0.6-0.2,0.7C45,8.9,42.3,10.1,39.5,11.5z"/>
	<path class="st2" d="M25.5,21.5c-0.1-0.1-0.5-0.2-0.6-0.4c-0.1-0.2,0-0.6,0.1-0.8c2.2-1.9,4.5-3.7,6.8-5.5c0.1-0.1,0.6,0.1,0.9,0.2
		c0.1,0.1,0.1,0.6,0,0.7c-2.3,1.9-4.6,3.8-6.9,5.6C25.8,21.5,25.7,21.5,25.5,21.5z"/>
	<path class="st2" d="M109.8,139.1c0.8-0.7,1-1,1.3-1.2c2.1-1.4,4.2-2.7,6.3-4c0.3-0.2,0.9-0.1,1.3-0.1c-0.1,0.4-0.2,0.9-0.5,1.1
		c-2.2,1.5-4.5,2.9-6.7,4.3C111.3,139.4,110.7,139.2,109.8,139.1z"/>
	<path class="st2" d="M40.1,139.2c-0.5,0.1-1.1,0.4-1.3,0.3c-2.4-1.4-4.7-3-7-4.5c-0.2-0.1-0.2-0.6-0.3-0.9c0.3-0.1,0.7-0.3,0.9-0.2
		c2.5,1.5,4.9,3.1,7.3,4.7C39.8,138.5,39.9,138.7,40.1,139.2z"/>
	<path class="st2" d="M10,107.7c0.3,0.3,0.6,0.7,0.8,1.1c1.2,2,2.5,4.1,3.6,6.1c0.2,0.4,0.1,1,0.1,1.5c-0.4-0.2-1.1-0.4-1.3-0.8
		c-1.3-2.1-2.6-4.3-3.8-6.4c-0.2-0.4,0-0.9,0-1.4C9.6,107.7,9.8,107.7,10,107.7z"/>
	<path class="st2" d="M4,91.6c0.2,0.4,0.5,0.7,0.6,1.1c0.7,2.3,1.5,4.6,2.1,7c0.1,0.4-0.2,1-0.3,1.5c-0.3-0.3-0.9-0.6-1-1
		c-0.8-2.4-1.5-4.7-2.2-7.1c-0.1-0.4,0.2-0.9,0.3-1.4C3.6,91.6,3.8,91.6,4,91.6z"/>
	<path class="st2" d="M19.5,121.8c0.8,0.8,1.5,1.7,2.3,2.5c1.3,1.3,2.6,2.5,3.8,3.9c0.2,0.2,0.2,0.7,0.3,1.1c-0.4,0-1,0.2-1.2,0
		c-1.9-1.9-3.8-3.8-5.6-5.7c-0.3-0.3-0.1-0.9-0.1-1.4C19.1,121.9,19.3,121.9,19.5,121.8z"/>
	<path class="st2" d="M71.7,149c-2.7-0.3-5.1-0.5-7.5-0.8c-0.5-0.1-0.9-0.5-1.3-0.8c0.5-0.2,1.1-0.6,1.6-0.5
		c2.3,0.2,4.6,0.4,6.9,0.7c0.5,0.1,0.9,0.5,1.3,0.8C72.3,148.5,71.9,148.8,71.7,149z"/>
	<path class="st2" d="M148.6,66.1c-0.2,0.2-0.4,0.5-0.6,0.8c-0.3-0.3-0.9-0.5-0.9-0.8c-0.5-2.6-1-5.2-1.4-7.9c0-0.3,0.3-0.7,0.4-1
		c0.3,0.2,0.9,0.4,0.9,0.8C147.6,60.7,148.1,63.3,148.6,66.1z"/>
	<path class="st2" d="M135.8,116.4c-0.1-0.5-0.4-1-0.2-1.3c1.3-2.4,2.8-4.8,4.2-7.2c0.1-0.2,0.7-0.3,0.9-0.2
		c0.2,0.1,0.4,0.7,0.3,0.8c-1.4,2.5-2.9,5-4.4,7.5C136.4,116.1,136.2,116.1,135.8,116.4z"/>
	<path class="st2" d="M4.1,58.3c-0.5,3-0.8,5.5-1.3,8c-0.1,0.4-0.6,0.7-0.9,1c-0.2-0.4-0.5-0.8-0.5-1.1c0.4-2.6,0.8-5.1,1.4-7.7
		c0.1-0.3,0.6-0.5,0.9-0.8C3.9,58,4.2,58.3,4.1,58.3z"/>
	<path class="st2" d="M140.5,41.1c0.3,0.3,0.6,0.6,0.8,1c1,2.2,2,4.4,2.9,6.7c0.2,0.4-0.1,1-0.2,1.5c-0.3-0.3-0.8-0.5-1-0.9
		c-1-2.3-2-4.5-3-6.8c-0.2-0.4,0-0.9,0-1.3C140.2,41.2,140.3,41.1,140.5,41.1z"/>
	<path class="st2" d="M131.5,122.5c-0.2,0.3-0.4,0.6-0.6,0.8c-1.8,1.9-3.5,3.7-5.3,5.5c-0.3,0.3-0.8,0.2-1.2,0.4
		c0.1-0.5,0-1.1,0.2-1.3c1.7-1.9,3.5-3.7,5.3-5.5c0.2-0.2,0.7-0.3,1-0.4C131.2,121.9,131.4,122.3,131.5,122.5z"/>
	<path class="st2" d="M147,92.5c-0.8,2.6-1.6,5.2-2.5,7.7c-0.1,0.3-0.7,0.4-1,0.6c-0.1-0.4-0.3-0.7-0.2-1c0.7-2.5,1.5-5,2.3-7.5
		c0.1-0.3,0.6-0.5,0.9-0.8C146.7,91.9,146.8,92.2,147,92.5z"/>
	<path class="st2" d="M55.8,145.8c-0.4,0.1-0.8,0.4-1,0.3c-2.6-0.9-5.2-1.8-7.8-2.7c-0.2-0.1-0.3-0.6-0.5-0.9
		c0.3-0.1,0.7-0.4,0.9-0.3c2.6,0.9,5.2,1.8,7.8,2.7c0.3,0.1,0.6,0.2,0.8,0.3C56,145.3,55.9,145.6,55.8,145.8z"/>
	<path class="st2" d="M63.5,1.7c0.3,0.2,0.6,0.5,1,0.7c-0.3,0.3-0.6,0.7-0.9,0.8c-2.5,0.6-5,1.1-7.4,1.6c-0.4,0.1-0.8-0.2-1.2-0.3
		c0.2-0.3,0.4-0.9,0.7-0.9C58.1,2.9,60.7,2.3,63.5,1.7z"/>
	<path class="st2" d="M149,78.3c-0.1,1.4-0.2,3.1-0.4,4.8c-0.1,0.4-0.5,0.8-0.8,1.1c-0.2-0.4-0.6-0.8-0.6-1.2c0.1-2.5,0.3-5,0.5-7.4
		c0-0.4,0.4-0.8,0.7-1.1c0.2,0.4,0.5,0.8,0.6,1.2C149,76.5,149,77.3,149,78.3z"/>
	<path class="st2" d="M1,78.4c0-1.2-0.1-2,0-2.8c0-0.3,0.4-0.6,0.6-0.8c0.2,0.3,0.6,0.5,0.6,0.8c0.2,2.7,0.4,5.3,0.6,8
		c0,0.3-0.4,0.6-0.6,0.9c-0.3-0.3-0.8-0.6-0.8-0.9C1.3,81.7,1.1,79.9,1,78.4z"/>
	<path class="st2" d="M81.4,2.3c-2.9,0-5.9,0-8.8,0c-0.3,0-0.6-0.4-0.9-0.6C72,1.5,72.4,1,72.7,1c2.7,0,5.3,0,8,0.2
		c0.3,0,0.7,0.5,1,0.7C81.6,2,81.5,2.2,81.4,2.3z"/>
	<path class="st2" d="M26.2,41.9c-2.8,0-5-2.1-5-4.9c0-2.9,2.1-5.2,5-5.2c2.8,0,5.1,2.3,5.2,5.1C31.3,39.7,29,41.9,26.2,41.9z
		 M29.7,36.9c0-2-1.5-3.5-3.5-3.6c-1.9,0-3.6,1.6-3.6,3.5c0,1.9,1.7,3.6,3.5,3.6C28,40.5,29.7,38.8,29.7,36.9z"/>
	<path class="st2" d="M22,48.3c0,2.9-2.2,5.1-5,5.1c-2.8,0-5.1-2.3-5.1-5.1c0-2.8,2.2-5,5-5C19.8,43.2,22,45.4,22,48.3z M13.5,48.3
		c0,1.9,1.5,3.6,3.5,3.6c1.9,0,3.6-1.6,3.6-3.5c0-1.9-1.6-3.6-3.5-3.6C15.1,44.7,13.5,46.3,13.5,48.3z"/>
	<path class="st2" d="M11.1,36.9c0-1.9,1.5-3.4,3.4-3.4c1.9,0,3.4,1.6,3.4,3.5c0,1.9-1.6,3.4-3.5,3.4C12.6,40.4,11.1,38.8,11.1,36.9
		z M14.1,39.1c0.3,0,0.5,0,0.8,0c0.5-0.7,1.3-1.3,1.5-2.1c0.2-1.2-0.7-1.9-1.9-1.9c-1.1,0-2,0.8-1.8,1.9
		C12.8,37.7,13.6,38.4,14.1,39.1z"/>
	<path class="st2" d="M110,24.5c2.5,0,4.5,1.7,4.8,4.1c0.3,2.7-1.3,5-3.8,5.4c-0.5,0.1-1.1-0.3-1.7-0.4c0.4-0.3,0.8-0.8,1.3-1
		c1.8-0.5,2.9-1.8,2.9-3.4c-0.1-1.6-1.3-3-2.9-3.2c-1.6-0.3-3.1,0.8-3.8,2.4c-0.2,0.5-0.7,0.8-1,1.2c-0.1-0.6-0.4-1.2-0.3-1.7
		C105.9,25.9,107.9,24.5,110,24.5z"/>
	<path class="st2" d="M96.2,38.1c1.9,0,3.6,1.4,3.8,3.1c0,0.4-0.3,0.9-0.5,1.3c-0.3-0.3-0.8-0.6-0.9-1c-0.4-1.3-1.2-2.2-2.5-1.8
		c-0.7,0.2-1.7,1.1-1.7,1.8c0,0.8,0.8,1.6,1.3,2.3c0.3,0.5,0.8,0.9,1.1,1.3c-0.6,0-1.3,0.2-1.9,0c-1.5-0.5-2.5-2.4-2.2-3.9
		C93,39.4,94.4,38.1,96.2,38.1z"/>
</g>
</svg>
