<?xml version="1.0" encoding="utf-8"?>
<!-- Generator: Adobe Illustrator 24.3.0, SVG Export Plug-In . SVG Version: 6.00 Build 0)  -->
<svg version="1.1" id="Layer_1" xmlns="http://www.w3.org/2000/svg" xmlns:xlink="http://www.w3.org/1999/xlink" x="0px" y="0px"
	 viewBox="0 0 150 150" style="enable-background:new 0 0 150 150;" xml:space="preserve">
<style type="text/css">
	.st0{fill:#005BAB;}
</style>
<g>
	<path class="st0" d="M35.7,149.4c-2.1-1.1-2.1-2.9-1.8-5c1.6-12.3-0.4-23.9-5.9-35c-3.3-6.8-6.9-13.5-10.2-20.4
		c-5.2-11-7.7-22.6-7.4-34.8c0.2-9.4,2.7-18.1,7.4-26.3c1-1.8,2.6-2.3,4.1-1.5c1.6,0.9,1.9,2.5,0.9,4.4c0,0,0,0.1-0.1,0.1
		c-5.9,10.2-7.4,21.2-6.2,32.8c1.2,10.7,5,20.4,9.9,29.9c3.3,6.5,6.6,13,9.5,19.8c3.9,9.2,4.9,19,4,28.9c0,0.3,0,0.7-0.1,1.1
		c13.5,0,27,0,40.5,0c0.8-4,2.4-7.5,5.2-10.5c3.5-3.7,7.7-5.8,12.9-5.7c3.5,0.1,7.1,0,10.6,0c5,0,8.5-3.5,9-8.5
		c0.1-0.9,0.7-1.8,1.1-2.6c0.3-0.4,0.7-0.8,1.1-1.1c1.5-1.6,1.5-3.1,0-4.7c-2.4-2.5-2-4.4,1.1-5.8c0.5-0.2,1-0.4,1.4-0.7
		c1.7-0.9,2.2-2.3,1.5-4c-0.9-2.2-1.9-4.4-2.9-6.7c-1-2.4-0.4-3.9,2.1-4.7c2.4-0.8,4.8-1.5,7.2-2.3c3.4-1.1,4-3.2,1.5-5.8
		c-3.8-4-7.6-8.1-11.6-12.1c-3.8-3.8-5.5-8.3-5.6-13.7c-0.3-23.3-17.6-43.5-40.5-47.6C62.7,5.1,51.6,7,41.2,12.9
		c-0.2,0.1-0.4,0.2-0.6,0.4c-1.6,0.8-3.2,0.4-4-1.1c-0.8-1.4-0.4-3.2,1.2-4c3.9-1.8,7.7-3.9,11.8-5.2C76.6-5.2,105,7.9,116.4,34
		c2.9,6.6,4.4,13.4,4.5,20.6c0,3.9,1.2,7.1,4,9.9c4,4,7.8,8.1,11.7,12.2c5.2,5.5,3.4,12.7-3.8,15.1c-1.6,0.5-3.2,1-5,1.6
		c0.6,1.4,1.1,2.6,1.7,3.9c1.9,4.3,1,7.9-2.5,11c-0.3,0.3-0.5,1-0.4,1.4c1.2,3.6,0.5,6.7-2.1,9.4c-0.5,0.5-0.9,1.3-1,2
		c-1.3,6.9-7.1,12-14.2,12.1c-3.4,0.1-6.8,0.1-10.2,0c-5.9-0.3-9.6,2.8-11.9,7.8c-0.7,1.5-1.1,3.2-1.3,4.9c-0.1,1.7-0.7,2.9-2.1,3.7
		C67.9,149.4,51.8,149.4,35.7,149.4z"/>
	<path class="st0" d="M97.7,55.8c0,17.6-14.4,32-32,32c-17.6,0-32-14.4-32-32c0-17.6,14.4-32,32-32C83.3,23.8,97.7,38.2,97.7,55.8z
		 M65.8,29.6c-14.4,0-26.2,11.7-26.2,26.1c0,14.4,11.7,26.2,26.1,26.3C80,82,91.8,70.3,91.9,55.9C91.9,41.4,80.2,29.7,65.8,29.6z"/>
	<path class="st0" d="M31.7,18.8c0,1.6-1.3,3-2.9,3c-1.5,0-2.9-1.3-2.9-2.8c0-1.6,1.3-3,2.9-3C30.3,16,31.6,17.2,31.7,18.8z"/>
	<path class="st0" d="M65.7,52.9c7.8,0,14.3,6.3,14.5,13.9c0.1,2.1-1.1,3.5-2.8,3.5c-1.7,0-2.8-1.2-3-3.2c-0.3-4.8-4-8.4-8.7-8.4
		c-4.7,0-8.4,3.6-8.7,8.4c-0.1,2-1.3,3.3-3,3.2c-1.8,0-2.9-1.4-2.8-3.5C51.4,59.2,57.9,52.9,65.7,52.9z"/>
	<path class="st0" d="M57,44.2c0,1.6-1.4,2.9-3,2.9c-1.5-0.1-2.8-1.4-2.8-2.9c0-1.6,1.4-2.9,3-2.8C55.7,41.3,57,42.7,57,44.2z"/>
	<path class="st0" d="M80.2,44.1c0,1.6-1.3,3-2.9,2.9c-1.5,0-2.8-1.3-2.9-2.8c0-1.6,1.3-3,2.9-2.9C78.9,41.3,80.2,42.6,80.2,44.1z"
		/>
</g>
</svg>
