<?xml version="1.0" encoding="utf-8"?>
<!-- Generator: Adobe Illustrator 24.3.0, SVG Export Plug-In . SVG Version: 6.00 Build 0)  -->
<svg version="1.1" id="Layer_1" xmlns="http://www.w3.org/2000/svg" xmlns:xlink="http://www.w3.org/1999/xlink" x="0px" y="0px"
	 viewBox="0 0 150 150" style="enable-background:new 0 0 150 150;" xml:space="preserve">
<style type="text/css">
	.st0{fill:#005BAB;}
</style>
<g>
	<path class="st0" d="M511.3-48c-0.8-0.5-1-1.3-1-2.2c0-2.4,0-4.8,0-7.2c-0.6,0-1.1,0-1.7-0.1c-1.7-0.1-2.7-1.2-2.7-2.8
		c0-2.9,0-5.9,0-8.8c0-1.7,1.1-2.7,2.7-2.8c0.4,0,0.7,0,1.1,0c21.5,0,43.1,0,64.6,0c0.4,0,0.9,0,1.4,0c0-0.5,0-0.8,0-1.2
		c0-3.2,0-6.5,0-9.7c0-1.2,0.3-2.1,1.1-2.9c2-2.3,4-4.7,6-7.1c-0.6-0.6-1.1-1.3-1.7-1.9c-1.9-2.2-3.9-4.4-5.8-6.6
		c-0.4-0.5-0.8-0.6-1.4-0.3c-2.2,1-4.1,2.4-6,4c-1.4,1.1-2,2.1-2,3.9c-0.1,4.3-3.9,7.6-8.3,7.5c-4.3-0.1-7.9-3.6-7.8-7.9
		c0-1.6-0.6-2.4-1.7-3.4c-1.9-1.7-4.1-2.9-6.3-4c-0.3-0.1-0.9-0.1-1,0.1c-2.5,2.8-5,5.7-7.5,8.6c0,0,0,0.1-0.1,0.2
		c2,2.4,4,4.8,6.1,7.2c0.6,0.7,1,1.5,0.9,2.5c-0.1,1.7,0,3.5,0,5.2c0,1.3-0.6,2-1.6,1.9c-1,0-1.4-0.7-1.4-1.9c0-1.6,0-3.1,0-4.7
		c0-0.5-0.2-1-0.5-1.4c-5.2-6.3-10.5-12.5-15.8-18.7c-1-1.2-1.9-2.5-2.5-3.9c-2.2-5,0.8-9.7,6.2-9.7c2.2,0,4.3,0.4,6.5,0.7
		c3.1,0.4,6.2,0.8,9.4,1.2c-0.3-6.1,1.2-11.5,6.1-15.4c3.6-2.9,7.9-4.1,12.5-3.8c5,0.2,9.3,2.1,12.7,5.9c3.3,3.8,4.2,8.4,4,13.4
		c2.7-0.4,5.2-0.7,7.8-1c2.2-0.3,4.4-0.6,6.7-0.9c4-0.5,7.5,1.9,8.2,5.4c0.3,1.9-0.1,3.7-1.1,5.3c-1.3,1.9-2.7,3.7-4.2,5.5
		c-4.5,5.4-9.1,10.8-13.6,16.1c-0.2,0.3-0.5,0.7-0.5,1c0,3.6,0,7.2,0,11c0.5,0,0.9,0,1.3,0c8.8,0,17.5,0,26.3,0
		c2.7,0,3.6,0.9,3.6,3.5c0,2.5,0,5,0,7.4c0,2.5-0.9,3.4-3.4,3.5c-0.3,0-0.5,0-0.9,0c0,1.5,0,2.9,0,4.4c0,1,0,1.9,0,2.9
		c0.1,0.9-0.2,1.7-1,2.2C573.6-48,542.5-48,511.3-48z M602.6-57.5c-0.5,0-0.9,0-1.4,0c-12.9,0-25.7,0-38.6,0c-0.4,0-0.9,0-1.3-0.1
		c-0.8-0.2-1.1-0.7-1.1-1.5c0-0.8,0.4-1.3,1.2-1.4c0.4-0.1,0.9-0.1,1.3-0.1c14.3,0,28.6,0,43,0c0.4,0,0.8,0,1.3,0c0-2.9,0-5.6,0-8.3
		c-32.7,0-65.3,0-97.9,0c0,2.8,0,5.5,0,8.3c0.5,0,0.9,0,1.4,0c14.5,0,29,0,43.5,0c0.4,0,0.8,0,1.2,0.1c0.8,0.1,1.2,0.6,1.3,1.4
		c0,0.8-0.4,1.4-1.2,1.5c-0.4,0.1-0.9,0.1-1.3,0.1c-13,0-26.1,0-39.1,0c-0.4,0-0.9,0-1.3,0c0,2.2,0,4.3,0,6.4c29.8,0,59.4,0,89.1,0
		C602.6-53.2,602.6-55.3,602.6-57.5z M543.6-114.9c0.2,4.3,1.1,8.2,3.4,11.6c3.3,4.9,8.9,7.1,14.3,5.8c8-2,11.4-10.4,11.3-17.3
		c-6.6-0.4-12.8-1.9-18.4-5.5C551.4-117,547.9-115.3,543.6-114.9z M542.5-104.8c-0.5-1.9-1-3.6-1.4-5.4c-0.2-0.9-0.6-1.2-1.4-1.3
		c-4-0.5-8.1-1.1-12.1-1.5c-1.3-0.2-2.7-0.3-4,0c-2.2,0.4-3.3,2.2-2.6,4.3c0.5,1.4,1.2,2.7,2.2,3.9c2.4,3.1,5,6,7.5,9
		c0.2,0.2,0.2,0.5,0.4,0.8c2.6-2.9,4.9-5.6,7.4-8.4c-0.6-0.3-1.2-0.6-1.7-0.9c-1-0.5-1.3-1.3-0.9-2.2c0.4-0.9,1.3-1.1,2.3-0.5
		C539.6-106.3,541-105.6,542.5-104.8z M585-95.1c0.1-0.3,0.2-0.4,0.3-0.5c2.6-3.1,5.3-6.3,7.9-9.4c0.6-0.8,1.1-1.6,1.5-2.5
		c1.5-3.2-0.2-5.7-3.7-5.7c-0.4,0-0.7,0-1.1,0.1c-1.8,0.2-3.6,0.5-5.5,0.7c-3,0.4-6,0.8-9,1.2c-0.6,2.2-1.2,4.2-1.8,6.4
		c1.5-0.8,2.9-1.5,4.3-2.2c0.9-0.4,1.8-0.2,2.2,0.6c0.4,0.8,0.1,1.6-0.7,2.1c-0.6,0.3-1.2,0.6-1.9,1C580.2-100.7,582.5-98,585-95.1z
		 M572.6-117.9c-0.5-5.1-2.8-8.8-7.1-11c-5.1-2.6-10.3-2.3-15.6,0.4C555.8-121.1,563.7-118.6,572.6-117.9z M553-94.9
		c-0.1,2.1,0.7,3.7,2.4,4.8c1.8,1.1,3.7,1.1,5.5-0.1c1.6-1.1,2.3-2.6,2.3-4.6C559.7-93.8,556.4-93.8,553-94.9z M543.7-118
		c3.3-0.3,5.9-1.7,7.9-4.1c-1.4-1.5-2.7-2.9-4.1-4.4C545.2-124.2,544-121.4,543.7-118z"/>
	<path class="st0" d="M520.3-149.4c-1.2,0-2.3,0-3.3,0c-1,0-1.7-0.6-1.7-1.5c0-0.9,0.6-1.5,1.7-1.6c2,0,4-0.1,6,0
		c0.6,0,1.4,0.4,1.6,0.9c0.2,0.4,0,1.3-0.3,1.7c-1.3,2-2.8,3.9-4.2,5.8c-0.2,0.3-0.4,0.5-0.7,1c1.4,0,2.7,0,4,0c0.4,0,0.8,0,1.1,0.1
		c0.8,0.2,1.2,0.8,1.2,1.6c-0.1,0.8-0.5,1.4-1.4,1.4c-2.7,0-5.4,0.1-8.1,0c-1.3,0-1.9-1.4-1-2.5c1.4-1.9,2.8-3.8,4.2-5.7
		C519.7-148.6,519.9-148.9,520.3-149.4z"/>
	<path class="st0" d="M530.3-132.6c-1,0-1.7,0-2.4,0c-1.3,0-1.9-0.5-1.9-1.5c0-1,0.6-1.5,1.9-1.5c1.7,0,3.4-0.1,5.1,0
		c0.6,0,1.3,0.4,1.7,0.8c0.5,0.6,0.1,1.3-0.3,1.9c-1,1.4-2,2.7-3,4.1c0,0,0,0.1,0,0.3c0.9,0,1.7,0,2.6,0c1,0,1.7,0.6,1.7,1.5
		c0,0.9-0.7,1.5-1.7,1.5c-1.9,0-3.8,0-5.7,0c-1.5,0-2.1-1.3-1.3-2.6C528-129.5,529.1-130.9,530.3-132.6z"/>
	<path class="st0" d="M558.1-101.8c-1.1-0.3-2.1-0.6-3.1-1c-0.9-0.4-1.2-1.2-0.8-2c0.4-0.8,1.2-1.1,2.1-0.7c1.2,0.6,2.4,0.6,3.6,0
		c0.9-0.4,1.7-0.1,2.1,0.7c0.4,0.8,0.1,1.6-0.8,2C560.2-102.4,559.1-102.2,558.1-101.8z"/>
	<path class="st0" d="M551.6-109c-0.8-0.3-1.6-0.5-2.3-0.8c-0.8-0.4-1-1.3-0.7-2c0.4-0.7,1.1-1.1,1.9-0.7c0.8,0.3,1.5,0.3,2.2,0
		c0.8-0.3,1.5,0,1.9,0.8c0.4,0.8,0.2,1.5-0.6,1.9C553.2-109.5,552.4-109.3,551.6-109z"/>
	<path class="st0" d="M564.6-109c-0.8-0.3-1.6-0.4-2.3-0.8c-0.8-0.4-1.1-1.2-0.7-2c0.3-0.8,1.1-1,2-0.8c0.7,0.1,1.4,0.1,2.1,0
		c0.9-0.2,1.7,0.1,2,0.8c0.3,0.8,0.1,1.5-0.6,1.9C566.2-109.5,565.4-109.3,564.6-109z"/>
</g>
<g>
	<path class="st0" d="M59.8,150c-0.9-0.8-1.2-1.8-1.2-3.1c0.1-2.8,0-5.6,0-8.5c-4.4-0.2-8.7-0.3-12.9-0.7
		c-7.3-0.6-14.6-1.3-21.8-1.9c-0.9-0.1-1.4,0-1.9,1c-2.2,4.8-7.4,7.4-12.4,6.4c-5.2-1-9.1-5.4-9.4-10.5c-0.3-5.4,3-10.2,8.2-11.7
		c1-0.3,1.2-0.8,1.2-1.7c0-15.4,0-30.9,0-46.3c0-0.9-0.1-1.3-1.1-1.6C3.2,69.7-0.1,65,0.2,59.6C0.4,54.4,4.4,50,9.6,49
		c5.1-1,10.2,1.8,12.5,6.6c0.1,0.3,0.2,0.5,0.4,0.8c3-0.3,6-0.7,9-0.9c5-0.4,10-0.8,15-1.1c1.7-0.1,3-0.5,4.4-1.6
		c14.4-11.4,34.7-11.1,49,0.5c0.5,0.4,1.1,0.8,1.8,0.9c8.6,0.7,17.2,1.4,25.9,2.1c0.1-0.2,0.2-0.5,0.4-0.8c2.2-4.5,6.6-7,11.7-6.6
		c4.6,0.4,8.6,3.9,9.9,8.5c0.1,0.4,0.2,0.7,0.3,1.1c0,1.2,0,2.3,0,3.5c-0.1,0.1-0.2,0.2-0.2,0.4c-1,4.6-3.9,7.6-8.4,9
		c-0.4,0.1-0.8,0.8-0.8,1.2c0,15.6,0,31.2-0.1,46.8c0,0.8,0.3,1.1,1.1,1.4c2.5,0.7,4.6,2,6,4.2c1,1.6,1.6,3.4,2.3,5.1
		c0,1.2,0,2.3,0,3.5c-0.1,0.3-0.2,0.5-0.3,0.8c-1.2,4.8-5.2,8.4-9.9,8.8c-5.1,0.5-9.6-2.1-11.7-6.7c-0.1-0.3-0.3-0.6-0.3-0.6
		c-12.2,0.9-24.1,1.8-36.2,2.7c0,2.7-0.1,5.5,0,8.3c0,1.3-0.3,2.3-1.2,3.1C80.1,150,69.9,150,59.8,150z M123.3,90.4
		c0-5.5-4.8-9.4-10.4-8.4c-2.1,0.4-2.9-0.2-3.1-2.3c-2.4-19.9-19.9-33.5-39.8-30.8C54.5,51,42.2,63.7,40.3,79.5
		C40,81.9,39.3,82.3,37,82c-4.8-0.8-9.1,2-10.1,6.7c-1,4.4,1.7,8.8,6.2,10c1.3,0.3,2.8,0.2,4.2,0.1c2.1-0.1,2.6,0.3,2.9,2.4
		c1.1,9.9,9.1,17.2,19,17.3c10.6,0.1,21.2,0.1,31.9,0c9.7-0.1,17.8-7.5,18.8-17.2c0.2-2.2,1-2.7,3.2-2.4
		C118.6,99.7,123.3,95.8,123.3,90.4z M91.5,134.3c5.2-0.3,10.2-0.4,15.2-0.8c7.3-0.6,14.5-1.4,21.8-2.1c1.5-0.1,2.3,0.4,2.6,1.9
		c0.1,0.4,0.2,0.8,0.3,1.1c1.2,3.5,4.9,5.5,8.5,4.7c3.7-0.8,6-4,5.8-7.8c-0.2-3.5-3.1-6.4-6.7-6.7c-2.3-0.2-2.7-0.7-2.7-3
		c0-16.5,0-33,0-49.5c0-3.7,0-3.7,3.6-4.5c0,0,0.1,0,0.1,0c3.5-0.9,5.9-4,5.7-7.6c-0.2-3.4-3-6.4-6.3-6.8c-3.7-0.5-7,1.7-8.1,5.3
		c-0.8,2.5-1.1,2.7-3.7,2.4c-7.2-0.7-14.4-1.4-21.7-2c-0.2,0-0.3,0.1-0.3,0c1.7,3.1,3.6,5.9,5,9.1c1.4,3.2,2.2,6.6,3.3,10
		c0.1,0,0.3,0,0.6,0c7.1,0.1,12.7,5.5,12.8,12.3c0.1,7.1-5.2,12.6-12.4,13c-0.9,0-1.2,0.3-1.4,1.2c-1.6,6.9-5.6,12.1-11.8,15.5
		c-3.2,1.7-6.6,2.6-10.2,2.8C91.5,126.4,91.5,130.2,91.5,134.3z M58.6,122.6c-0.4,0-0.7-0.1-1.1-0.1c-10.5-1.2-18.4-7.9-20.9-17.8
		c-0.3-1.2-0.8-1.6-2-1.6c-6.2-0.3-11.3-5.1-11.9-11.3c-0.6-6.2,3.5-12.1,9.6-13.5c1.3-0.3,2.7-0.4,3.7-0.5c1.1-3.4,1.9-6.8,3.3-9.9
		c1.4-3.2,3.3-6.1,5-9.1c0,0-0.2,0-0.4,0c-7.2,0.7-14.4,1.3-21.5,2c-2.8,0.3-3,0.2-3.8-2.5c-1.1-3.6-4.6-5.7-8.3-5.1
		c-3.6,0.6-6.3,3.9-6.1,7.6c0.1,3.7,3,6.7,6.8,7c2.1,0.2,2.6,0.7,2.6,2.9c0,17.1,0,34.2,0,51.3c0,2.1-0.5,2.6-2.7,2.8
		c-3.7,0.3-6.6,3.3-6.7,7c-0.1,3.7,2.6,7,6.2,7.6c3.8,0.6,7.3-1.7,8.4-5.6c0.5-1.9,1.2-2.3,3.1-2.1c11.7,1.5,23.5,2.4,35.4,2.8
		c0.4,0,0.8,0,1.2-0.1C58.6,130.2,58.6,126.4,58.6,122.6z M62.8,145.8c8.2,0,16.3,0,24.4,0c0-7.8,0-15.5,0-23.2
		c-8.2,0-16.3,0-24.4,0C62.8,130.4,62.8,138.1,62.8,145.8z"/>
	<path class="st0" d="M123.5,18.7c-2.5,0-5.1,0-7.6,0c-2.2,0-2.8-0.7-2.8-2.9c0-1.7,0-3.4,0-5.1c0-2,0.7-2.7,2.6-2.7
		c9.7,0,19.4,0,29.1,0c1.5,0,2.2,0.6,2.6,2.1c0.4,1.7,0.9,3.4,1.3,5.1c0.4,1.7,0.1,2.4-1.4,3.2c-3.5,1.9-7,3.8-10.8,5.9
		c0.6,0.1,1,0.1,1.3,0.2c2.4,0,4.8,0,7.2,0c1.6,0,2.3,0.8,2.4,2.3c0,2,0,4,0,6c0,1.6-0.8,2.4-2.3,2.4c-9.8,0-19.7,0-29.5,0
		c-1.2,0-2-0.6-2.3-1.8c-0.5-1.8-0.9-3.7-1.4-5.5c-0.4-1.4,0-2.3,1.3-3c3-1.6,6-3.2,9-4.9c0.5-0.3,1.1-0.6,1.6-0.9
		C123.5,18.9,123.5,18.8,123.5,18.7z M143.1,28.5c-4.9,0-9.6,0-14.3,0c-1.2,0-2.3-0.2-2.6-1.5c-0.3-1.3,0.5-2,1.5-2.6
		c4.7-2.6,9.5-5.2,14.2-7.8c2.6-1.4,2.6-1.4,1.8-4.2c0-0.1-0.1-0.1-0.1-0.2c-8.8,0-17.5,0-26.3,0c0,0.8,0,1.5,0,2.4
		c0.6,0,1.1,0,1.6,0c4.3,0,8.6,0,12.9,0c1.2,0,2.3,0.4,2.5,1.7c0.2,1.2-0.5,1.9-1.5,2.4c-5.2,2.8-10.3,5.6-15.5,8.5
		c-0.5,0.2-0.9,0.5-1.3,0.8c0.1,0.4,0.2,0.7,0.3,1c0.7,2.5,0.1,2.1,2.7,2.1c7.5,0,15.1,0,22.6,0c0.5,0,1,0,1.5,0
		C143.1,30.1,143.1,29.4,143.1,28.5z"/>
	<path class="st0" d="M102.3,0c2.7,0.7,5.5,1.3,8.1,2.2c0.7,0.2,1.4,1.2,1.7,1.9c0.3,1.1-0.6,1.7-1.5,2.2c-5.3,2.8-8.5,7.1-9.3,13
		c-1,7.2,2.5,14,9,17.4c0.5,0.3,1.1,0.6,1.5,1.1c0.9,1.1,0.3,2.6-1.3,3.2c-7.8,3.1-15,2.1-21.6-3c-7-5.5-9.7-15-6.7-23.4
		c3-8.5,11-14.2,20-14.1C102.2,0.3,102.3,0.1,102.3,0z M105,4.9c-5.7-1.7-13.4,1.6-17.1,7.3c-4.1,6.3-3.6,14.6,1.2,20.4
		c4,4.7,11.7,7.4,15.8,5.6C94.4,29.4,94.3,13.8,105,4.9z"/>
	<path class="st0" d="M74.2,96.6c4,0.1,7.2,0.5,10,2.2c1.9,1.1,3.5,2.7,4.3,4.8c0.4,1.1,0.1,2-1,2.6c-1.1,0.6-2.1,0.3-2.6-0.8
		c-1.3-2.8-3.7-4.1-6.5-4.3c-2.6-0.3-5.3-0.2-8,0.2c-2.4,0.3-4.3,1.7-5.4,4c-0.5,1.1-1.5,1.5-2.7,0.9c-1.1-0.6-1.4-1.5-0.9-2.7
		c1.7-3.7,4.8-5.4,8.6-6.3C71.7,96.8,73.4,96.8,74.2,96.6z"/>
	<path class="st0" d="M60.7,80.6c1.5,0.4,3.5,0.8,5.3,1.6c1.1,0.5,2,1.6,2.7,2.5c0.6,0.9,0.4,1.9-0.5,2.6c-0.9,0.7-2,0.7-2.6-0.2
		c-1.6-2.2-4-2.2-6.3-2.2c-1.2,0-2.4,0.3-3.6,0.5c-1.4,0.2-2.4-0.4-2.6-1.5c-0.2-1.2,0.4-2.2,1.9-2.5C56.6,81.1,58.4,81,60.7,80.6z"
		/>
	<path class="st0" d="M94.7,85.1c-2.2,0-4.4-0.1-6.7,0c-1.3,0-2.5,0.6-3.4,1.8c-0.7,1-1.8,1.2-2.8,0.5c-1-0.7-1.1-1.8-0.5-2.8
		c0.9-1.5,2.3-2.5,4-3c3.4-1.1,6.7-0.8,10.1,0c1.2,0.3,1.7,1.1,1.5,2.3c-0.2,1.2-1,1.7-2.2,1.6C94.7,85.4,94.7,85.2,94.7,85.1z"/>
	<path class="st0" d="M29.9,90.3c0-2.9,2.4-5.2,5.2-5.3c1.2,0,2,0.4,2.2,1.6c0.2,1.3-0.4,2.1-1.6,2.3c-0.8,0.2-1.6,0.3-1.6,1.3
		c0,1,0.8,1.2,1.6,1.3c1.2,0.3,1.8,1.1,1.6,2.3c-0.2,1.2-1,1.7-2.2,1.6C32.2,95.7,29.9,93.3,29.9,90.3z"/>
	<path class="st0" d="M120.1,90.4c0,2.9-2.4,5.3-5.3,5.3c-1.2,0-2-0.6-2.1-1.8c-0.1-1.2,0.5-2,1.6-2.2c0.8-0.2,1.6-0.3,1.6-1.3
		c0-1-0.8-1.2-1.6-1.4c-1.2-0.3-1.8-1.1-1.7-2.3c0.2-1.2,1-1.7,2.2-1.7C117.7,85.1,120.1,87.5,120.1,90.4z"/>
</g>
<g>
	<path class="st0" d="M208.8-489.5c3.5,0.7,12.6-2,12.9,2.4c-0.2,4.3-9.5,1.7-12.8,2.4c0.1,5.8-1.9,14.1,6.6,14
		c5.9,0.6,13.2-1.7,18.3,1.9c4.2,5.9,1.5,14,2.2,20.9c19.6,0,39.1,0,58.6,0c2.7-15.2,10-28.4,22.3-38.1
		c43.2-32.9,31-98.9-19.9-116.4c-4.3-0.6-4-6.2,0.3-5c56.5,18.1,68.9,91.2,21,126.6c-10.8,8.4-16.4,19.9-18.6,33.2
		c0.1,2.2-1.1,3.6-2.8,4.7c-20.4,0.2-41,0-61.4,0.1c-3.6,0-4.1-0.5-4.1-4c0-5.2,0-10.5,0-15.7c0-2.9-0.3-3.2-3.1-3.2
		c-4.2,0-8.5,0-12.7,0c-16.8-0.5-10.1-21.4-11.4-32.5c0.7-3.9-2.9-2.4-5.5-2.7c-7.5-0.1-11.7-7.5-7.9-14
		c4.3-8.6,12.2-15.9,12.7-25.9c1.1-37.3,32.5-71.9,71.1-71c3.7-0.5,3.7,5.3,0,4.8c-36.9-0.9-65.8,33.3-66.4,68.5
		c0.7,9.7-16.2,23.9-13.4,30.6c1.6,3,5.2,2.1,8.1,2.3C211.2-505.5,208.3-495.4,208.8-489.5z"/>
	<path class="st0" d="M250.4-516.9c-14.7,13.1-38.1-4.6-28.9-22.2c0.6-1.2,0.6-2.1,0-3.3c-3.9-7.7-1.8-16.5,5-21.9
		c0.7-0.6,1.3-1.6,1.4-2.5c0.8-10.1,10.4-17.5,20.5-15.9c0.7,0.1,1.8-0.2,2.2-0.8c7.5-11.3,20.8-11.7,29.6-1.6
		c9.2-5.6,22.3-1.8,26.5,8.3c0.5,1.2,1.2,1.6,2.5,1.7c7.9,0.8,13.6,4.8,16.3,12.3c2.6,7.3,1,13.9-4.4,19.5c-0.7,0.7-1.1,1.2-0.6,2.3
		c4.6,11.1-0.4,21.6-11.5,25.8c3.7,5.3,7.8,12.6,2.2,18.1c-3,3.1-7.8,4-11.5,1.9c-6.3-3.4-7.2-12.4-13.2-15.7c-3-0.6-6.2-2.4-9.2-2
		C266.6-506.7,259.1-507.8,250.4-516.9z M233-567.7c3.7-1.7,18.8-3.2,17.5,3.4c-0.6,1.4-1.8,1.8-3.2,1.2c-11-5.6-28.2,6-21.6,18.1
		c5.3-4.1,11.7-5.5,17.8-2.6c1.3,0.6,2.1,1.6,1.5,3.1c-0.6,1.5-1.8,1.9-3.3,1.3c-5-2.1-10.5-1-14,3.2c-11.5,13.3,8.1,31.3,20.3,18.6
		c2.9-3,3.7-2.9,5.8,0.8c4.2,7.1,13.5,9,20,4c4.4-4.2,4.1-11.6,0.9-16.6c-0.9-1.3-0.8-2.6,0.6-3.5c3.6-1.9,4.7,4.1,5.8,6.4
		c1.2,4.3,0.7,8.5-0.8,13.2c4.3,1.5,9.6,0.4,12.1,4.8c3.7,4.3,6.6,16.3,13.9,12.7c5.5-3.3,0.3-9.3-1.9-13.2
		c-1.9-3.4,0.5-6.8,3.9-7.4c7.5-3,11-12,7.3-18.5c-0.2,0-0.4,0-0.6,0.1c-3.2,3.3-25.5,1.1-16-4.7c6,1.5,11.8,3.1,17.1-2.1
		c10.3-8.5,4.3-25.7-9.2-24.8c-3.1,0.2-3.3,0-4.2-2.9c-2.8-8.8-13.5-12.6-20.3-7.5c0.2,4.7,2.7,10.6-1.9,13.8
		c-2,1.2-4.3-0.8-3.5-2.7c2.5-3,1.4-6,0.5-9c-3-10.9-19.5-11.7-23.6-1c-1.3,3.1-1.7,3.3-4.9,2.3C242-579.8,234.3-575.3,233-567.7z"
		/>
	<path class="st0" d="M282.2-622.4c-3.3,0.5-11.6,4.4-10-1.9c2.7-7.1,5.4-14.2,8.1-21.4c1.4-4,12-1.4,15.8-2
		c6.4,0-0.6,11.1-0.9,14.9c3.1-0.3,10.1-1.5,7.9,3.7c-6.2,10.7-12.6,21.3-18.8,31.9c-1.3,3-5.6,1.5-4.7-1.7
		C280.5-606.8,281.5-614.5,282.2-622.4z M293.4-642.9c-3.1,0.4-7.3-1-9.2,0.9c-2,5-3.9,10.1-6,15.6c5.2-1,10.5-3.9,8.9,4
		c-0.5,4.3-1,8.6-1.5,12.9c0.1,0,0.3,0.1,0.4,0.1c3.6-6.1,7.2-12.1,11-18.5c-3.5,0.1-8.9,1.5-7.1-3.7
		C291-635.3,292.1-638.9,293.4-642.9z"/>
	<path class="st0" d="M218-636.6c2.7-1.9,8.1-6.3,8.7-0.7c-0.3,12.4-0.8,24.8-1.2,37.3c0.3,3.1-4,3.8-4.8,0.8
		c-3.1-7.4-5.9-14.7-9.2-22.1c-2.6,2-8.2,9.5-9.6,3c-1.1-7.5-2.2-15.1-3.1-22.7c0.3-4.4,9.5-6.8,12.9-9.3
		C217.3-653.2,216.4-640.1,218-636.6z M206-623.3c2.9-0.9,6.7-8,9-2.3c2,4.6,3.7,9.3,5.8,13.8c0.1,0,0.2-0.1,0.3-0.1
		c0.2-7,0.5-14,0.7-21.4c-2.6,1.6-6.5,5.3-7.9,0.9c-0.8-4.1-1.6-7.9-2.5-12.2c-2.3,1.9-8.1,2.7-7.7,5.9
		C204.6-633.6,205.3-628.5,206-623.3z"/>
	<path class="st0" d="M358-621.2c2.7,1,10.1,2.9,5.5,6.5c-10.4,7-20.8,13.9-31.1,20.9c-1.1,0.8-2.2,0.9-3.3-0.1
		c-1.1-1.1-0.9-2.3-0.1-3.5c4.2-6.8,8.5-13.4,12.6-20.3c-3.3-0.8-12.1-1.3-7.9-6.2c5.3-5.2,10.7-10.3,16.1-15.4
		c3.1-3.2,11.2,3.7,15.1,4.7C371.2-631.4,359.3-624.7,358-621.2z M339.1-604.5c0.1,0.1,0.2,0.2,0.3,0.3c5.9-3.9,11.8-7.9,17.9-12
		c-3.7-1.5-8.9-2.7-4.4-6.9c2.4-2.6,4.9-5.2,7.5-8.1c-2.8-1.3-5.4-2.6-8.1-3.9c-4.2,4-8.4,8-12.7,12.1c4,1.2,11,0.9,6.9,6.4
		C344.1-612.5,341.6-608.5,339.1-604.5z"/>
	<path class="st0" d="M262.2-561.6c5.3,3.3,9.7,8.4,7.4,15c-0.5,1.5-1.3,2.7-3,2.3c-1.8-0.4-2.1-1.8-1.6-3.5
		c1.5-3.7-2.5-10.9-6.7-8.4c-2.5,2.6-13.1,5.2-13.3,0c0.2-1.5,1.2-2.2,2.6-2.1c8.1,0.4,11.3-3.8,11.9-11.6c0.7-3,4.4-1.7,4.5,0.7
		C263.7-566.8,263-564.2,262.2-561.6z"/>
	<path class="st0" d="M290-532.2c5.5-0.2,13.9,8,8.7,12.6c-4.8,1.4-1.8-9.3-10.4-7.3c-1.4,0.7-3.5-0.3-3.9-1.4
		C284.1-531.6,287.7-531.8,290-532.2z"/>
	<path class="st0" d="M258.2-528.1c-5.9,0-10.8-4.6-11.3-10.5c-0.1-1.5,0.3-2.7,1.9-3c3.7-0.1,3.3,5.8,5.8,7.6
		c1.8,2.1,7.1-0.4,7.5,3.4C262.5-528.8,260.4-528,258.2-528.1z"/>
	<path class="st0" d="M299.4-564.4c-0.1,5.6-3.4,9.9-8.3,10.5c-1.4,0.2-2.4-0.2-2.8-1.6c-0.8-5,7.8-2,6.2-10.6c0-0.4-0.3-1-0.1-1.2
		C296.6-571.5,299.6-567.8,299.4-564.4z"/>
</g>
<g>
	<path class="st0" d="M926.5-2.3c-5.4-2.8-5.4-7.4-4.7-12.8c4.2-31.5-1.1-61.6-15.1-90.1c-8.6-17.6-17.9-34.8-26.3-52.4
		c-13.5-28.3-19.8-58.2-19-89.5c0.6-24.1,7-46.7,19.1-67.6c2.6-4.6,6.7-6,10.6-3.8c4,2.2,4.9,6.5,2.3,11.3c-0.1,0.1-0.1,0.2-0.2,0.3
		c-15.2,26.3-19.2,54.6-15.9,84.4c3,27.5,13,52.5,25.4,76.9c8.5,16.7,17.1,33.5,24.3,50.8c10,23.8,12.5,48.9,10.3,74.5
		c-0.1,0.8-0.1,1.7-0.2,2.7c34.8,0,69.4,0,104.2,0c2-10.3,6.2-19.4,13.3-27.1c8.9-9.6,19.8-14.9,33.1-14.6c9.1,0.2,18.2,0.1,27.3,0
		c12.8-0.1,22-9,23.1-21.8c0.2-2.3,1.7-4.5,2.9-6.6c0.6-1.2,1.9-2,2.8-2.9c3.9-4.1,3.9-7.9,0-12.1c-6.1-6.4-5.1-11.3,2.9-14.9
		c1.2-0.6,2.5-1.1,3.7-1.7c4.3-2.2,5.7-5.8,3.9-10.3c-2.4-5.7-5-11.4-7.5-17.1c-2.7-6.2-1-10,5.4-12.1c6.2-2,12.3-4,18.5-6
		c8.7-2.8,10.2-8.3,3.9-14.9c-9.9-10.4-19.7-20.9-29.8-31.1c-9.8-9.8-14.3-21.4-14.4-35.3c-0.8-59.9-45.3-112-104.3-122.4
		c-30.4-5.4-59-0.4-85.9,14.6c-0.5,0.3-1.1,0.6-1.6,0.9c-4.1,2-8.3,0.9-10.4-2.7c-2.1-3.7-1.1-8.2,3.1-10.2
		c10-4.7,19.9-10.1,30.4-13.3c69.8-21.3,143,12.7,172.3,79.6c7.4,16.9,11.4,34.6,11.5,53c0.1,10.1,3.2,18.3,10.4,25.5
		c10.2,10.2,20.1,20.8,30.1,31.3c13.4,14.1,8.7,32.8-9.8,39c-4.1,1.4-8.3,2.7-12.7,4.1c1.5,3.5,3,6.8,4.4,10.1
		c4.8,11,2.6,20.4-6.4,28.3c-0.8,0.7-1.2,2.6-0.9,3.6c3,9.2,1.2,17.1-5.3,24.3c-1.2,1.4-2.3,3.3-2.6,5.1
		c-3.3,17.9-18.2,30.8-36.4,31.1c-8.7,0.1-17.5,0.3-26.2,0c-15.2-0.7-24.7,7.1-30.7,20c-1.8,3.9-2.9,8.3-3.2,12.6
		c-0.4,4.3-1.7,7.4-5.5,9.4C1009.3-2.3,967.9-2.3,926.5-2.3z"/>
	<path class="st0" d="M1085.9-243.3c0,45.4-37,82.3-82.3,82.3c-45.4,0-82.3-37-82.3-82.4c0-45.4,37-82.3,82.3-82.3
		C1049-325.6,1085.9-288.7,1085.9-243.3z M1003.8-310.7c-37.2-0.1-67.5,30.1-67.6,67.2c-0.1,37.2,30.1,67.5,67.2,67.6
		c37.2,0.1,67.5-30.1,67.6-67.2C1071-280.3,1040.9-310.6,1003.8-310.7z"/>
	<path class="st0" d="M916-338.6c0.1,4.1-3.3,7.6-7.5,7.6c-4,0-7.3-3.3-7.4-7.3c-0.1-4.1,3.3-7.6,7.5-7.6
		C912.5-345.8,915.9-342.5,916-338.6z"/>
	<path class="st0" d="M1003.6-250.8c20,0,36.8,16.2,37.4,35.9c0.1,5.3-2.8,8.9-7.3,9c-4.4,0.1-7.3-3.1-7.7-8.3
		c-0.8-12.3-10.4-21.6-22.5-21.6c-12,0-21.6,9.3-22.4,21.6c-0.3,5.2-3.3,8.4-7.7,8.3c-4.5-0.1-7.4-3.7-7.3-9
		C966.7-234.6,983.6-250.8,1003.6-250.8z"/>
	<path class="st0" d="M981.1-273.1c-0.1,4.1-3.7,7.5-7.8,7.3c-4-0.2-7.2-3.6-7.1-7.6c0.1-4.1,3.6-7.5,7.8-7.3
		C977.9-280.5,981.1-277.1,981.1-273.1z"/>
	<path class="st0" d="M1041-273.4c0.1,4.1-3.4,7.6-7.5,7.6c-4,0-7.3-3.4-7.4-7.3c-0.1-4.1,3.4-7.6,7.5-7.6
		C1037.6-280.7,1040.9-277.4,1041-273.4z"/>
</g>
</svg>
