<?xml version="1.0" encoding="utf-8"?>
<!-- Generator: Adobe Illustrator 24.3.0, SVG Export Plug-In . SVG Version: 6.00 Build 0)  -->
<svg version="1.1" id="Layer_1" xmlns="http://www.w3.org/2000/svg" xmlns:xlink="http://www.w3.org/1999/xlink" x="0px" y="0px"
	 viewBox="0 0 150 150" style="enable-background:new 0 0 150 150;" xml:space="preserve">
<style type="text/css">
	.st0{fill:#005BAB;}
</style>
<g>
	<path class="st0" d="M7.1,120.2c0-2.2,0-4.5,0-6.7c0-8.8-0.1-17.7-0.1-26.5c0-2.6,1-4.6,3.2-6c1.7-1.1,2.6-2.6,2.5-4.8
		c-0.1-3.5,0-6.9-0.1-10.4c0-0.6-0.4-1.1-0.4-1.7c-0.1-1.3-0.3-2.6-0.1-3.8c0.1-0.4,1.1-1,1.7-1c2.4-0.1,4.8-0.1,7.3-0.1
		c1.3,0,1.9,0.7,1.9,2c0,1.1,0.3,2.3-0.6,3.2c-0.2,0.2-0.1,0.7-0.1,1c0,3.7,0,7.4,0,11.2c0,2,0.7,3.5,2.4,4.6
		c2.4,1.6,3.5,3.8,3.5,6.6c0,10.3,0.1,20.6,0.1,30.9c0,0.5,0,0.9,0,1.6c4.9,0,9.8,0,14.9,0c0-1.9-0.1-3.8,0-5.7
		c0.1-1.5-0.3-2.7-1.4-3.9c-3.1-3.7-2.6-7.7-0.9-11.9c0.1-0.4,0.3-0.7,0.5-1.1c0,0,0-0.1,0-0.2c-1.2-0.1-2.4-0.2-3.6-0.4
		c-4-0.6-5.8-2.4-5.7-6.5c0.1-3.8,0.8-7.6,1.3-11.4c0.2-1.2,0.4-2.4,0.7-3.6c0.2-1.2,1-1.8,2.2-1.8c5.2,0,10.5,0,15.7-0.1
		c1,0,1.8,0.5,2,1.5c0.8,4.8,1.7,9.5,2.4,14.3c0.2,1.3-0.2,2.6-0.3,4.1c1.7,0.4,3.5,0.9,5.3,1.3c6.2,1.5,12.3,3.1,18.5,4.6
		c2.3,0.6,2.7,0.4,3.8-1.6C87,92,90.3,86,93.7,79.9c1.4-2.4,2.8-4.9,4.2-7.3c3-5.2,7.6-7.9,13.4-8.8c1-0.2,1.9-0.6,2.9-0.7
		c1.2-0.1,2.5,0,3.7,0c0.5,0,1,0.2,1.7,0.4c0-0.9,0-1.7,0-2.5c0-3.3,2.1-5.5,5.2-5.6c3.1-0.1,5.3,1.9,5.7,5.2c0,0.1,0.1,0.2,0.1,0.2
		c1.3-0.3,2.6-0.7,3.9-0.7c2.9,0,5,2.1,5.1,5c0.1,1.7,0,3.3,0,4.9c1.4-0.3,2.6-0.7,3.9-0.7c3,0,5.1,2.2,5.2,5.2
		c0,11.6,0.1,23.3,0,34.9c-0.1,8.9-6.3,16.9-15.4,19.7c-2.6,0.8-5.4,1.3-8.1,1.3c-39.4,0.1-78.8,0.1-118.2,0.1
		c-2.7,0-4.6-1.4-5.2-3.8C1,124.6,2,122,3.9,121.1C4.8,120.6,6,120.5,7.1,120.2z M112.5,86c0,5.8,0,11.6,0,17.4
		c0,0.4,0.1,0.9-0.1,1.3c-0.2,0.3-0.6,0.7-0.9,0.7c-0.3,0-0.7-0.4-0.9-0.7c-0.2-0.3-0.1-0.8-0.1-1.2c0-3.5,0-7,0-10.5
		c0-2.2-1.5-3.5-3.6-3.5c-2.1,0-3.4,1.4-3.4,3.6c0,5.2,0,10.5,0,15.7c0,4.9,1.7,9.2,5,12.7c6.1,6.6,15.9,8.8,24.6,5.7
		c7.3-2.6,13.9-9.4,13.7-19.4c-0.2-11,0-22,0-33c0-2.2-1.4-3.6-3.5-3.6c-2.1,0-3.5,1.4-3.5,3.6c0,4.8,0,9.5,0,14.3
		c0,0.9,0.3,2.1-1,2.1c-1.3,0-1-1.3-1-2.1c0-7.8,0-15.7,0-23.5c0-1.8-0.8-2.8-2.3-3.3c-2.5-0.8-4.7,0.7-4.7,3.4c0,7.8,0,15.7,0,23.5
		c0,0.4,0.1,0.9-0.1,1.3c-0.2,0.4-0.6,0.8-1,0.8c-0.3,0-0.8-0.4-0.9-0.7c-0.2-0.4-0.1-0.9-0.1-1.4c0-9.4,0-18.7,0-28.1
		c0-1.7-0.7-2.7-2-3.3c-2.5-1-5,0.6-5,3.3c0,9.3,0,18.6,0,27.9c0,0.4,0.1,0.8,0,1.2c-0.2,0.4-0.6,0.8-1,1.1c-0.3-0.3-0.8-0.6-1-1
		c-0.2-0.4-0.1-0.8-0.1-1.3c0-6.8,0-13.7,0-20.5c0-1.9-0.8-3.1-2.4-3.5c-2.5-0.7-4.6,0.9-4.6,3.5C112.5,74.3,112.5,80.1,112.5,86z
		 M110.7,88.7c0-7.8,0-15.3,0-22.9c-0.1,0-0.2,0-0.4,0c-4.1,1-7.6,2.8-9.9,6.4c-1.6,2.5-3.1,5.1-4.6,7.7c-3.7,6.5-7.3,13-11,19.5
		c-1.2,2.2-2.6,2.7-5,2.1c-6.5-1.6-13.1-3.3-19.6-4.9c-3.3-0.8-6.6-1.7-10.1-1.6c-4.3,0.2-6.9,2.1-8.2,6.1
		c-1.4,4.4-0.4,7.9,3.3,10.3c2,1.3,4.2,2.2,6.5,2.8c6.5,1.7,13,3.2,19.5,4.7c2.3,0.5,4.7,1.2,7.1,1.3c6.5,0.2,13.1,0,19.6,0
		c2.2,0,4.4,0,6.6,0c0-0.3,0-0.4,0-0.5c-0.2-0.3-0.4-0.7-0.6-1c-1.5-2.8-2.4-5.8-2.4-9.1c0-5.6,0-11.3,0-16.9c0-2.5,1.7-4.4,4.1-5
		C107.3,87.3,108.9,87.7,110.7,88.7z M114.6,128.7c0-0.1,0.1-0.2,0.1-0.2c-0.3-0.2-0.6-0.3-0.9-0.5c-2.2-1.6-4.5-3.2-6.6-4.9
		c-0.9-0.7-1.6-1.1-2.7-1.1c-26.8,0.1-53.5,0.2-80.3,0.3c-5.9,0-11.8,0-17.7,0.1c-1.9,0-3.1,1.2-3.3,3c-0.1,2.1,1.3,3.4,3.6,3.4
		c34.4,0,68.8,0,103.3,0C111.7,128.7,113.1,128.7,114.6,128.7z M8.9,115.7c0,1.2,0.1,2.2,0,3.2c-0.1,1.1,0.4,1.5,1.5,1.5
		c4.8-0.1,9.6-0.1,14.4-0.1c1.3,0,1.7-0.4,1.7-1.7c-0.1-10.3-0.2-20.6-0.2-30.9c0-2.2-0.9-3.9-2.7-5.1c-2.1-1.4-3.1-3.4-3.1-5.9
		c0-4-0.1-8,0-12.1c0-0.6,0.3-1.2,0.6-1.7c0.4-0.7,0.2-1.8-0.4-1.8c-2.3-0.1-4.6,0-7,0c0.1,0.8-0.1,1.5,0.2,1.8
		c0.9,0.8,0.7,1.7,0.7,2.6c0,3.5-0.1,7.1,0.1,10.6c0.1,2.8-1,4.7-3.3,6.3c-0.9,0.7-1.9,1.8-2.1,2.8c-0.4,2.1-0.3,4.3-0.5,6.6
		c2.7,0,5,0,7.3,0c1.8,0,2.4,0.5,2.4,2.4c0.1,6.3,0.1,12.5,0.2,18.8c0,2.1-0.6,2.7-2.7,2.7C13.6,115.7,11.3,115.7,8.9,115.7z
		 M34,85.2c0,2.3-0.1,4.5,0,6.7c0.1,1.7,1.1,2.9,2.8,3.1c1.9,0.2,3.9,0.3,5.8,0.5c0.2,0,0.5-0.1,0.7-0.2c2.8-2.1,6-2.4,9.3-2.1
		c1,0.1,1.5-0.3,1.5-1.2c0-1.9-0.1-3.8-0.1-5.7c0-0.9-0.4-1.2-1.4-1.2c-2.4,0.1-4.8,0.1-7.3,0.1C41.8,85.2,38.1,85.2,34,85.2z
		 M16.5,93.7c-2.3,0-4.3,0.1-6.3,0c-1.1,0-1.4,0.3-1.4,1.4c0.1,5.7,0.1,11.5,0.2,17.2c0,0.5,0.1,0.9,0.1,1.4c2.2,0,4.3,0,6.3,0
		c0.9,0,1.2-0.4,1.2-1.2c-0.1-3.6,0-7.2-0.1-10.8C16.5,99.2,16.5,96.5,16.5,93.7z M53.7,83.1c-0.5-2.5-0.9-4.7-1.5-6.9
		c-0.1-0.3-0.6-0.6-0.9-0.6c-4.9,0-9.8,0-14.7,0.1c-0.3,0-0.9,0.4-0.9,0.7c-0.5,2.2-0.9,4.5-1.3,6.8C40.9,83.1,47.1,83.1,53.7,83.1z
		 M67.8,120.2c-7.5-2.5-15.5-3.2-22.8-6.5c0,2.3,0,4.4,0,6.5C52.7,120.2,60.3,120.2,67.8,120.2z"/>
	<path class="st0" d="M87.4,19.5c13.1,0,23.8,10.6,23.8,23.8c0.1,13.1-10.6,23.9-23.8,23.9c-13.1,0-23.8-10.6-23.8-23.7
		C63.6,30.2,74.2,19.5,87.4,19.5z M109.4,43.3c0-12.1-9.8-22-21.9-22c-12.1,0-22,9.8-22.1,21.9c0,12.1,9.9,22.1,22,22.1
		C99.6,65.3,109.4,55.5,109.4,43.3z"/>
</g>
<g>
	<path class="st0" d="M850.7-369.6c-11.8-9.6-17.9-22.1-20.6-36.6c-0.2-1-1.1-2.3-2-2.7c-7.1-3-12.3-8.2-15.8-14.8
		c-2.7-5.1-5-10.6-6.5-16.2c-2.9-11.2,1.1-18.3,11.7-22.3c-1.7-8-4-15.9-5-24c-1.9-14.8-0.2-29.4,7.6-42.3
		c27.6-46,81.6-48.4,113.7-22.6c13.7,11,21.1,25.2,21,42.7c-0.1,14.1-1.3,28.1-2,42.2c-0.1,1.2,0,2.4,0,3.6
		c11.1,3.1,15.6,10.3,13.3,21.7c-2,9.7-6.1,18.4-13.1,25.6c-1.3,1.3-2.7,3-4.3,3.5c-6.2,1.9-7.4,6.8-8.7,12.2
		c-2.6,11.3-8.4,21-17.2,28.7c-0.9,0.8-1.3,2.8-1,4c0.8,3.2,1.9,6.5,3.4,9.5c0.6,1.3,2.1,2.6,3.5,3.1c0.7,0.3,2.3-1,3-1.9
		c14.7-19.1,33.9-30.8,57.8-34.8c45.4-7.5,90.1,21.9,101,66.5c12.7,52-20.7,102.3-73.7,110.8c-5.1,0.8-10.4,1-15.7,1
		c-78.7,0.1-157.4,0-236.1,0c-13.6,0-20.8-5.5-21.5-19.2c-0.9-18.8-0.7-37.7,0.1-56.5c0.7-15.2,9-26.9,20.8-36.1
		c13.5-10.5,29.3-16.3,45.4-21.4c10.3-3.2,20.8-6.1,31.2-9c2.3-0.7,3.9-1.7,4.8-4.1C847-362.5,848.9-365.9,850.7-369.6z
		 M835.2-342.4c-8.2,2.4-16.3,4.6-24.2,7.1c-13.8,4.4-27.4,9.4-39.1,18.2c-12.3,9.2-18.8,21.2-18.5,36.8c0.3,14.5,0,28.9,0.1,43.4
		c0,2.8,0.6,5.7,1.3,8.4c1,3.8,3.3,5.5,7.6,5.5c64.6-0.1,129.2-0.1,193.8-0.1c1.2,0,2.4,0,4.4,0c-33.6-20.7-49-50.1-46.9-88.7
		C882.7-294.3,845.7-308.7,835.2-342.4z M924-302.3c-0.2,43.2,35.4,79,78.6,79.1c44.1,0.2,79.9-35.4,79.9-79.4
		c0.1-43.2-35.6-79-78.7-79.2C959.6-381.8,924.1-346.6,924-302.3z M894.3-483c-0.3,0.4-0.7,0.8-1,1.2c2.4,2,5,3.8,7.1,6
		c3.1,3.3,1.8,7.9-2.4,8.7c-15,2.7-30.3-0.2-38.7-16.1c-2.3-4.3-3.8-8.9-5.5-13.4c-1.8-4.7-2.6-5.2-7.4-3c-6,2.8-8.6,8.2-10.5,13.9
		c-3.1,9.5-3.5,19.3-3.6,29.2c0,2.7-1.4,5.9-3.2,7.8c-2.3,2.3-5,0.3-7.3-1.5c-2.6-2.1-5.1-1.2-5.9,2c-0.4,1.6-0.5,3.5-0.1,5.2
		c1.6,7,4.3,13.6,9.2,19c2,2.2,4.6,4.4,7.4,5.3c7,2.3,7.1,2,7.9,9c4.3,35.3,44.2,53.1,73.2,32.5c11.8-8.4,16.6-20.7,18.2-34.6
		c0.5-4.5,1.7-5.6,6.1-6.6c2.2-0.5,4.6-1.5,6.3-2.9c7-6.2,10.4-14.4,12.1-23.4c0.2-1.2-0.1-2.5-0.5-3.7c-1.1-3.6-3.9-4.2-6.3-1.3
		c-1.8,2.1-3.6,3.4-6.4,2.5c-2.8-1-3.3-3.3-3.7-5.9c-1.4-9.1-2.7-18.2-4.6-27.2c-1.2-5.9-3.5-11.5-5.4-17.8
		C915.6-483.6,914.3-483.1,894.3-483z M943.5-488.4c0.2,0,0.4-0.1,0.6-0.1c0-7.6,0.3-15.2-0.1-22.8c-0.6-10.7-4.5-20.2-12.5-27.6
		c-19.7-18.1-42.8-23.2-67.5-13.8c-24.1,9.1-39.5,26.4-41.5,53.4c-0.4,5.3,0.2,10.7,0.3,16.1c0.3,0,0.7,0,1-0.1
		c1.5-3.9,2.7-7.9,4.5-11.7c3.2-6.9,8.1-12.3,15.5-14.9c10.2-3.6,15.5-1.2,19.3,8.8c1.1,2.9,2,5.9,3.3,8.7c1.4,2.9,2.8,5.9,4.8,8.4
		c3.1,4.1,7.5,6.2,13.1,6.7c-1.4-2.1-2.6-3.7-3.5-5.4c-3.6-6.6-0.4-11.9,7.1-11.6c4.5,0.2,8.9,0.7,13.4,0.8
		c7.5,0.3,13.3-2.8,17.3-9.1c1.7-2.6,3-5.4,4.6-8.1c2.2-3.7,6.5-4.2,8.9-0.7c2.8,4.2,5.4,8.6,7.7,13.1
		C941.4-495.1,942.3-491.7,943.5-488.4z M911.2-363.9c-8.5,3.7-17.1,5.1-25.9,5c-8.8,0-17.3-1.6-25.1-5.1c-5.4,6-4.7,16.1-14.4,18.7
		c0.5,1.7,0.9,3.3,1.5,4.9c3.6,8.4,9.3,14.9,17.1,19.7c18.5,11.3,52.4,7.4,58.9-24.3c-5.7-0.2-7.1-4.4-8.5-8.8
		C913.8-357,912.5-360.3,911.2-363.9z"/>
	<path class="st0" d="M1019.1-283.8c0,7.7,0,15.1,0,22.4c0,6-2.3,8.3-8.4,8.3c-6,0-12,0-18,0c-5.4,0-8-2.6-8-8.1
		c0-7.3,0-14.7,0-22.6c-2.4,0-4.8,0-7.1,0c-5.5,0-11,0.1-16.5,0c-4.3-0.1-7-2.7-7.1-7c-0.1-6.7-0.1-13.5,0-20.2
		c0.1-4.5,2.8-7.1,7.4-7.1c7.6-0.1,15.2,0,23.2,0c0-7,0-13.9,0-20.7c0-7.1,2.2-9.3,9.4-9.3c5.9,0,11.7-0.1,17.6,0
		c4.9,0.1,7.4,2.5,7.4,7.4c0.1,7.3,0,14.7,0,22.5c7,0,13.8,0,20.7,0c7.3,0,9.3,2,9.3,9.3c0,5.7,0,11.5,0,17.2c0,5.5-2.4,7.9-8.1,7.9
		C1033.8-283.7,1026.7-283.8,1019.1-283.8z M964.6-294.2c7.1,0,13.8,0,20.5,0c8.3,0,10,1.7,10,10.1c0,6.8,0,13.6,0,20.3
		c4.8,0,9.1,0,13.5,0c0-7.4,0-14.5,0-21.6c0-6.4,2.4-8.8,8.8-8.8c6.9,0,13.9,0,20.9,0c0-4.7,0-9,0-13.5c-6.8,0-13.4,0-20,0
		c-7.7,0-9.6-2-9.7-9.8c0-3.5,0-7,0-10.5c0-3.2,0-6.4,0-9.4c-4.8,0-9,0-13.5,0c0,5.3,0,10.4,0,15.5c0,14.1-0.1,14.3-14.1,14.3
		c-5.4,0-10.9,0-16.5,0C964.6-303.1,964.6-298.9,964.6-294.2z"/>
</g>
<g>
	<path class="st0" d="M877.3,874c2.5-11.6-0.5-22-7.6-31.4c-2.5-3.4-5.5-6.2-8.9-8.8c-0.5-0.4-0.6-0.7-0.3-1.3
		c0.4-0.9,0.7-1.8,1.1-2.7c1-2.4,1.3-4.9,0.9-7.5c-0.7-4.9-3.3-8.6-7.3-11.4c-8.1-5.6-16.1-11.3-24.2-16.9c-0.3-0.2-0.6-0.4-0.7-0.7
		c-1.2-3.4-2.2-7-3.1-10.5c0.3-0.7,0.8,0.1,1.2-0.3c3.8,0.4,7.5-0.2,11.1-1.4c3.6-1.2,6.3-3.4,8.1-6.7c2-3.6,2.9-7.5,3.3-11.6
		c0.5-4.6,0.4-9.2,0.1-13.7c0-0.4,0-0.8,0.3-1.2c1.3-1.7,1.5-3.5,0.7-5.4c-4.3-10.8-12.4-16.6-23.8-17.6c-8.1-0.7-15.3,1.9-21.2,7.5
		c-5.9,5.7-8.6,12.8-8.1,21c0,1.5,0,3,0,4.5c0,3.7,0,7.3,0,11c0.1,11.4-0.8,22.6-3.2,33.8c-0.1,0.4-0.4,0.8-0.2,1.3
		c-0.1,1.8-0.6,3.6-0.9,5.4c-0.6,3.3-1,6.6-1.5,9.9c-0.2,1.1,0.4,2,1.4,2.2c1,0.2,1.8-0.5,2-1.6c0.2-1.4,0.4-2.9,0.7-4.3
		c0.3-2.5,0.7-4.9,1-7.4c0.4-2,0.8-4,1.2-5.9c1.8-8.6,2.8-17.2,3-26c0.1-8.3,0.1-16.5,0.1-24.8c0-3.4,0.6-6.6,2.1-9.6
		c4.9-10.2,15.9-15.6,27-13.1c8.2,1.9,14.1,6.7,17.2,14.6c0.6,1.6,0.5,2.1-0.9,3.2c-0.6,0.5-1.2,0.9-1.9,1.3
		c-5.7,3.7-11.9,5.5-18.6,6.1c-4.2,0.4-6.6,3.3-6.4,7.5c0.3,4.8,0.7,9.7,1.5,14.4c1.5,8.9,3.8,17.5,7.6,25.8
		c4.7,10.3,7.8,21,8.9,32.2c0.5,5,0.6,9.9,0.5,14.9c0,1.3,0.6,2,1.7,2c1.1,0,1.7-0.7,1.7-2c0-5.6-0.1-11.3-0.7-16.9
		c-1-8.2-2.9-16.2-5.8-23.9c-1.1-2.8-2.3-5.5-3.4-8.3c0,0,0.1-0.1,0.1-0.1c7,4.9,14,9.7,21,14.7c3.2,2.3,4.9,5.4,5.2,9.4
		c0.1,2.4-0.7,4.6-1.6,6.8c-0.2,0.6-0.4,0.6-0.9,0.3c-2.1-1.4-4.3-2.6-6.6-3.6c-1.1-0.5-2.1-0.2-2.5,0.7c-0.4,0.9,0,1.9,1.1,2.4
		c3.9,1.9,7.6,4,10.9,6.8c7,5.7,12.1,12.6,14.2,21.4c2.6,11.2,0,21.1-8.1,29.3c-0.4,0.4-0.8,0.6-1.3,0.5c-6.3-0.2-12.4-1.5-18.2-3.9
		c-0.4-0.2-0.8-0.4-1.1-0.7c-8-9-16-18-24-27c-1-1.1-1.2-2.3-0.7-3.7c1.8-4.9,3.5-9.8,5.3-14.6c0.7-2,1.6-4,2.1-6.1
		c0.4-0.7,0.7-1.5,0.9-2.3c0.4-1,0.8-2,1.1-3c0.3-1-0.2-1.9-1-2.2c-0.8-0.3-1.8,0.1-2.2,1c-0.1,0.2-0.2,0.5-0.3,0.7
		c-3,8.4-6.1,16.9-9.1,25.3c-1,2.8-0.5,5.2,1.4,7.3c8.1,9,16.1,18.1,24.1,27.1c0.4,0.5,0.9,0.8,1.5,1.1c4.9,2.1,10,3.4,15.4,4
		c1,0.1,2.1,0,3.1,0.4c-2.3,2.6-5.1,4.1-8.4,4.6c-3.3,0.4-6.6,0.2-9.8,0.1c-1.6,0-3-0.7-4.2-1.6c-6.6-5.2-13.2-10.3-19.9-15.5
		c-6.7-5.2-13.3-10.4-20-15.6c-2.1-1.6-3.2-3.6-3-6.3c0.1-1.1,0.5-2.1,0.6-3.2c0.3-0.5,0.3-1,0.4-1.5c0-0.1,0.1-0.2,0.1-0.3
		c2.1-9.6,4.2-19.2,6.3-28.8c0.4-2,0.9-3.9,1.2-5.9c0.2-0.9-0.2-1.6-1.1-1.9c-0.8-0.3-1.5,0-2,0.7c-0.3,0.3-0.3,0.8-0.4,1.2
		c-2.8,12.8-5.6,25.6-8.4,38.3c-0.8,3.7,0.2,7,3,9.5c1.4,1.3,3,2.4,4.5,3.6c0.6,0.4,0.8,0.9,0.7,1.6c-0.2,9-1.4,18-3.3,26.8
		c-0.3,1.3,0.2,2.2,1.2,2.4c1,0.2,1.9-0.4,2.1-1.6c1.3-6.4,2.3-12.8,2.9-19.3c0.2-2.2,0.3-4.3,0.5-6.6c0.2,0.1,0.3,0.2,0.5,0.3
		c10.6,8.3,21.2,16.5,31.8,24.8c1.6,1.3,3.4,2.1,5.5,2.3c3.7,0.3,7.5,0.5,11.2-0.1c5.2-0.8,9.4-3.2,12-8c0.3-0.6,0.9-1.1,1.4-1.6
		C872.7,885.8,875.9,880.3,877.3,874z M824.4,761.2c-0.1-2,1-3.3,3-3.5c4.3-0.5,8.6-1.3,12.6-2.8c2.4-0.9,4.6-2,6.8-3.3
		c0.3-0.2,0.5-0.4,0.9-0.4c0,0.1,0.1,0.2,0.1,0.3c0.3,5.9,0.2,11.8-1.4,17.5c-1.7,6.3-6,9.4-12.3,10.2c-1.9,0.2-3.7,0.3-5.6,0.2
		c-0.3-0.1-0.6-0.3-1-0.1c0,0,0,0,0,0c-0.1,0-0.2,0-0.4,0c-0.2-0.3-0.6-0.2-0.8-0.5c-0.1-1.9-0.6-3.8-0.8-5.8
		C824.9,769.1,824.6,765.1,824.4,761.2z"/>
	<path class="st0" d="M815.8,817.5c0,1.1,0.8,1.8,1.7,1.8c1,0,1.7-0.8,1.7-1.9c0-2.7-0.4-5.4-1.1-8c-0.9-3.5-2.2-7-2.8-10.6
		c-0.3-1.6-0.3-3.2-0.4-4.9c-0.1-1-0.8-1.7-1.7-1.7c-0.9,0-1.6,0.7-1.7,1.7c0,0.4,0,0.8,0,1.2c0.1,3.6,0.9,7,2,10.4
		C814.7,809.5,815.8,813.4,815.8,817.5z"/>
</g>
</svg>
