<?xml version="1.0" encoding="utf-8"?>
<!-- Generator: Adobe Illustrator 24.3.0, SVG Export Plug-In . SVG Version: 6.00 Build 0)  -->
<svg version="1.1" id="Layer_1" xmlns="http://www.w3.org/2000/svg" xmlns:xlink="http://www.w3.org/1999/xlink" x="0px" y="0px"
	 viewBox="0 0 150 150" style="enable-background:new 0 0 150 150;" xml:space="preserve">
<style type="text/css">
	.st0{fill:#075CAA;}
</style>
<g>
	<path class="st0" d="M142.5,112.9c4.6,0,7.2-2.8,6.9-7.3c-0.2-2.7-0.6-5.4-1.1-8.1c-2-9.9-5.7-19-11.4-27.4
		c-6.7-9.9-15.1-17.7-25.5-23.4c-0.9-0.5-1.5-0.9-1.8-1.9c-0.4-1.3-1.7-2.2-2.8-1.8c-2.3,0.7-4-0.5-5.9-1.2
		c-13.6-4.9-27.6-6-41.8-2.9C28,45.4,3.7,71.9,0.6,104.5c-0.5,5.5,1.9,8.4,7.5,8.4c22.3,0,44.6,0,66.9,0c0,0,0,0,0,0
		C97.5,112.9,120,112.9,142.5,112.9z M131.3,110.7c-16.3,0-32.6,0-48.9,0c-0.1,0-0.2-0.1-0.5-0.3c2.2-1.8,3.3-4.1,4.3-6.5
		c5.5-13.2,11-26.4,16.4-39.7c1.1-2.6,1.1-2.6,3.4-1.1c11,7.3,18.7,17.1,23.2,29.5c1.9,5.4,2.9,10.9,3.3,16.6
		C132.6,110.2,132.5,110.7,131.3,110.7z M110.9,48.9c6.4,3.5,12,8,16.9,13.3c11.1,12,17.6,26.1,19.3,42.3c0.5,4.8-0.9,6.1-5.7,6.1
		c-0.6,0-1.1,0-2,0c-1.3-0.2-3.3,0.7-4.3-0.4c-0.8-0.9-0.4-2.9-0.6-4.4c-2.3-19-11.3-34-27.2-44.6c-2.6-1.8-2.7-1.7-1.4-4.7
		c1-2.3,2-4.5,2.8-6.8C109.2,48.3,109.8,48.3,110.9,48.9z M9.7,110.7c-5.5,0.3-7.6-1.4-6.8-7.4c2.4-18.2,10.3-33.5,24-45.6
		c13.7-12.2,29.8-18.2,47.2-18.4c9.9,0.2,18.7,1.6,27.2,5c1.6,0.6,1.8,1.2,0.6,2.5c-1.9,2.2-3.7,4.6-5.5,7c-0.8,1.2-1.6,1.2-2.8,0.8
		c-16.3-5.2-32.2-4.2-47.2,4c-18.8,10.2-29.4,26.2-31.8,47.5C14.2,110.7,14.3,110.5,9.7,110.7z M16.5,110.5c0.4-4.9,1-9.8,2.3-14.6
		C24.9,74.2,44,57.5,66.4,54.4c8.7-1.2,17.2-0.4,25.6,2.1c1.5,0.4,1.9,0.8,0.8,2.3c-9,11.4-17.9,22.9-26.8,34.4
		c-4.3,5.5-4,11.5,0.8,16.6c0.2,0.2,0.4,0.4,0.8,0.9C50.4,110.5,33.4,110.5,16.5,110.5z M66.1,105.1c-1.6-3.3-1.4-6.8,1-9.8
		C79.8,79,92.4,62.8,105,46.5c0.2-0.2,0.4-0.5,0.6-0.7c0.4-0.5,0.8-0.9,1.4-0.5c0.7,0.4,0.7,1,0.4,1.6c-0.9,2.1-1.8,4.2-2.6,6.3
		c-1.9,4.7-3.6,9.6-5.7,14.2c-5.4,12.1-10.3,24.5-15.5,36.8c-1.7,4-4.5,6.3-8.5,6.5C70.8,110.6,67.8,108.5,66.1,105.1z"/>
	<path class="st0" d="M34.7,104c-3.7,0-7.4,0-11.1,0c-0.7,0-1.5,0.2-1.4,1.2c0,0.9,0.7,1.1,1.5,1.1c1.8,0,3.7,0,5.5,0c0,0,0,0,0,0
		c1.8,0,3.7,0,5.5,0c0.8,0,1.6-0.2,1.6-1.2C36.2,104.2,35.5,104,34.7,104z"/>
	<path class="st0" d="M39.8,73.4c-0.4-0.4-0.7-0.7-1.3-0.8c-0.5,0-0.8,0.3-1,0.7c-0.2,0.6,0.1,1.1,0.5,1.5c2.5,2.5,5.1,5.1,7.6,7.6
		c0.6,0.6,1.3,1.2,2.1,0.4c0.7-0.8,0.1-1.4-0.5-1.9C44.8,78.4,42.3,75.9,39.8,73.4z"/>
	<path class="st0" d="M75,70.3c1,0,1.1-0.8,1.1-1.6c0-1.8,0-3.6,0-5.5c0-1.8,0-3.5,0-5.3c0-0.8,0-1.6-1.1-1.6
		c-1.1,0-1.1,0.8-1.1,1.6c0,3.6,0,7.2,0,10.8C73.9,69.5,73.9,70.3,75,70.3z"/>
	<path class="st0" d="M127.2,103.9c-3.6,0-7.3,0-10.9,0c-0.8,0-1.6,0.2-1.6,1.1c0,1,0.8,1.2,1.6,1.2c1.8,0,3.6,0,5.5,0c0,0,0,0,0,0
		c1.8,0,3.6,0,5.5,0c0.9,0,1.6-0.2,1.5-1.2C128.6,104.1,127.9,103.9,127.2,103.9z"/>
	<path class="st0" d="M112.8,72.7c-0.7-0.3-1.2,0.1-1.7,0.6c-2.5,2.5-5.1,5.1-7.6,7.6c-0.6,0.6-1.1,1.2-0.4,1.9
		c0.7,0.7,1.4,0.3,1.9-0.3c2.5-2.5,5.1-5.1,7.6-7.6c0.4-0.4,0.7-0.7,0.7-1.3C113.3,73.2,113.2,72.9,112.8,72.7z"/>
</g>
</svg>
