<?xml version="1.0" encoding="utf-8"?>
<!-- Generator: Adobe Illustrator 24.3.0, SVG Export Plug-In . SVG Version: 6.00 Build 0)  -->
<svg version="1.1" id="Layer_1" xmlns="http://www.w3.org/2000/svg" xmlns:xlink="http://www.w3.org/1999/xlink" x="0px" y="0px"
	 viewBox="0 0 150 150" style="enable-background:new 0 0 150 150;" xml:space="preserve">
<style type="text/css">
	.st0{fill:#075CAA;}
</style>
<g>
	<path class="st0" d="M120.7,88.3c-0.3-6.3-2.4-11.5-5.8-16.1c-2.3-3.1-5-5.9-7.5-8.9c-7-8.2-11.9-17.6-15.4-27.8
		C88.5,25,86.8,14.2,86.8,3.1c0-0.6,0.2-1.4,0.6-1.9c0.5-0.7,1.3-0.8,2.1-0.5c0.9,0.3,1.4,1,1.4,1.9c0,2.1,0.1,4.3,0.2,6.4
		c0.8,13.8,4.3,26.9,10.9,39.1c3.2,5.9,7.1,11.3,11.7,16.1c5,5.2,8.7,11.1,10.4,18.2c1.2,5.1,1.2,10.1-1.2,14.8
		c-4,7.9-13.3,10.5-20.3,6.2c-0.8-0.5-1.6-0.8-2.5-1.2c-1.3-0.5-1.8-1.6-1.4-2.8c0.4-1.1,1.5-1.6,2.8-1.1c1,0.4,2.1,0.8,3,1.4
		c5.3,3.5,12.6,1.2,15.2-5.6C120.5,92.1,120.8,90,120.7,88.3z"/>
	<path class="st0" d="M63.2,6.9c-0.2,6.2-1,12.4-2.4,18.5C57.7,39,52.2,51.6,43.3,62.5c-2.4,2.9-5.1,5.6-7.4,8.6
		c-3.7,4.8-6.2,10.2-6.6,16.3c-0.3,4.6,0.8,8.7,4.5,11.7c3.3,2.8,7.6,3,11.3,0.9c1.1-0.6,2.2-1.1,3.4-1.6s2.3,0,2.7,1.1
		c0.5,1.1,0,2.2-1.2,2.7c-1.5,0.7-3,1.5-4.5,2.2c-7.5,3.2-15.9-0.6-19-8.4c-1.9-4.8-1.7-9.6-0.4-14.4C27.9,74.8,31.6,69,36.5,64
		c6.3-6.6,11.1-14.1,14.8-22.5c5.3-12.1,7.7-24.8,7.9-38c0-0.4,0-0.8,0-1.1c0.1-1.1,1-1.9,2-1.9c1.1,0,2,0.8,2,2
		C63.2,4,63.2,5.4,63.2,6.9z"/>
	<path class="st0" d="M88.8,149.5c-7.4,0-13.1-7.7-9.8-15.2c1.8-4,4.1-7.7,6.6-11.3c0.5-0.7,1-1.4,1.6-2.1c0.9-1.1,2.4-1.2,3.2,0
		c3.3,4.4,6.5,8.9,8.4,14.1C101.5,142.1,96.3,149.5,88.8,149.5z M88.8,125.6c-2.4,3.5-4.7,6.9-6.2,10.7c-0.6,1.6-0.7,3.2,0,4.9
		c1.4,3.4,5.1,5,8.5,3.8c3.3-1.2,5.2-4.9,4-8.3C93.7,132.7,91.3,129.2,88.8,125.6z"/>
	<path class="st0" d="M61.1,135.3c-6.9,0-11.8-7-9.4-13.5c1.3-3.5,3.3-6.7,5.4-9.8c0.8-1.2,1.6-2.4,2.5-3.5c0.8-1,2.4-1.1,3.1-0.1
		c3,4.1,5.9,8.3,7.8,13C73.3,128,68.2,135.4,61.1,135.3z M61.2,113.3c-0.3,0.5-0.6,0.8-0.9,1.2c-1.9,2.9-3.9,5.8-4.9,9.1
		c-0.7,2.3,0.3,4.9,2.4,6.4c2,1.4,4.8,1.4,6.9-0.1c2-1.5,3-4.1,2.3-6.4C65.7,119.9,63.4,116.7,61.2,113.3z"/>
	<path class="st0" d="M53.1,86.1c4.3,0,7.5,0.8,10.5,2.5c2.1,1.2,4.2,2.3,6.4,3.4c3.3,1.6,6.6,1.6,9.9,0.1c2.2-1.1,4.4-2.2,6.6-3.4
		c4.6-2.6,9.4-3.2,14.5-1.7c0.9,0.3,1.5,0.8,1.7,1.7c0.1,0.8-0.1,1.7-0.9,2c-0.6,0.3-1.3,0.4-1.9,0.2c-4-1.2-7.8-0.6-11.4,1.4
		c-2.4,1.3-4.8,2.6-7.3,3.7c-4,1.8-8.1,1.8-12.1,0.1c-2.5-1.1-5-2.4-7.5-3.8c-3.6-2-7.3-2.6-11.3-1.4C49.7,91,49,91,48.4,90.8
		c-0.8-0.3-1.1-1.1-1-1.9c0.1-0.9,0.6-1.6,1.5-1.8C50.5,86.6,52.2,86.3,53.1,86.1z"/>
</g>
</svg>
