<?xml version="1.0" encoding="utf-8"?>
<!-- Generator: Adobe Illustrator 24.3.0, SVG Export Plug-In . SVG Version: 6.00 Build 0)  -->
<svg version="1.1" id="Layer_1" xmlns="http://www.w3.org/2000/svg" xmlns:xlink="http://www.w3.org/1999/xlink" x="0px" y="0px"
	 viewBox="0 0 150 150" style="enable-background:new 0 0 150 150;" xml:space="preserve">
<style type="text/css">
	.st0{fill:#005BAB;}
</style>
<g>
	<path class="st0" d="M38.8,35.4c1.5,0.5,2.3,1.6,2.3,3.2c0,7,0,13.9,0,20.9c0,1.3-0.6,1.9-1.9,1.9c-0.6,0-0.8,0.1-0.8,0.8
		c0.1,2.5,0,3.1-2.9,3c-1.9-0.1-2.3-0.4-2.3-2.3c0-0.5,0.3-1.1-0.3-1.5c-0.7,0-1.4,0-2.2,0c-7.3,0-14.7,0-22,0
		c-0.5,0.5-0.2,1.2-0.2,1.7c0,1.6-0.5,2-2,2.1c-0.5,0-1.1,0-1.6,0c-1-0.1-1.5-0.6-1.6-1.6c0-0.2,0-0.3,0-0.5c0-0.5,0.1-1.1-0.1-1.5
		c-0.2-0.5-0.9-0.1-1.4-0.3c-0.7-0.2-1.2-0.8-1.3-1.6c0-0.9,0-1.7,0-2.6c0-5.9,0-11.9,0-17.8c0-2,0.6-3.4,2.6-4.1
		c0.7,0.2,1.1-0.1,1-0.9c0-0.2,0-0.4,0-0.6c0.2-3.6,1.7-6.3,5-7.9c1.2-0.6,2.5-0.9,3.9-0.9c1.8,0,3.6,0,5.3,0c1.7,0,3.5,0,5.2,0
		c2.1,0.1,4.3-0.1,6.4,0.1c4.4,0.5,7.4,3.8,7.8,8.2c0,0.2,0,0.3,0,0.5C37.6,35.1,37.6,35.1,38.8,35.4z M20.9,52.5
		C20.9,52.5,20.9,52.5,20.9,52.5c3.8,0,7.6,0,11.5,0c0.7,0,0.9-0.2,0.9-0.9c0-4.2,0-8.5,0-12.7c0-2.2,0.9-3.3,3.1-3.6
		c0.3-0.1,0.4-0.1,0.4-0.5c0.6-4.9-3-8.9-7.9-8.9c-5.3,0-10.5,0-15.8,0c-0.7,0-1.4,0.1-2.1,0.3C7,27.2,4.6,30.9,5,34.9
		c0,0.3,0.2,0.4,0.5,0.4c2.2,0.4,3.1,1.4,3.1,3.7c0,4.2,0,8.5,0,12.7c0,0.7,0.2,0.9,0.9,0.9C13.2,52.5,17.1,52.5,20.9,52.5z
		 M20.8,60.4C20.8,60.4,20.8,60.4,20.8,60.4c3.9,0,7.7,0,11.6,0c0.6,0,0.8-0.1,0.8-0.8c0-1.8,0-3.6,0-5.3c0-0.6-0.2-0.8-0.8-0.8
		c-7.7,0-15.4,0-23.1,0c-0.6,0-0.8,0.1-0.8,0.8c0,1.8,0,3.6,0,5.3c0,0.7,0.2,0.8,0.8,0.8C13.2,60.4,17,60.4,20.8,60.4z M7.6,49.1
		c0-3.5,0-7,0-10.5c0-1.4-0.9-2.2-2.2-2.3c-0.5,0-1,0-1.5,0c-1.4,0-2.2,0.9-2.3,2.3c0,0.5,0,1,0,1.5c0,6.4,0,12.8,0,19.2
		c0,1.1,0.1,1.1,1.1,1.1c1.4,0,2.7,0,4.1,0c0.6,0,0.8-0.2,0.8-0.8C7.6,56.1,7.6,52.6,7.6,49.1z M34.2,49c0,3.5,0,7,0,10.5
		c0,0.6,0.1,0.8,0.8,0.8c1.4,0,2.9,0,4.3,0c0.6,0,0.9-0.3,0.9-0.9c0-7,0-14,0-21.1c0-0.8-0.4-1.3-1-1.7c-0.7-0.5-1.6-0.3-2.3-0.4
		c-1.7-0.2-2.8,1-2.7,2.7C34.2,42.4,34.2,45.7,34.2,49z M35.9,61.4c-0.3,0-0.7,0-1,0c-0.6-0.1-0.7,0.2-0.7,0.7
		c0,2.4-0.2,2.1,2.1,2.1c1.2,0,1.2,0,1.2-1.2C37.5,61.4,37.5,61.4,35.9,61.4z M6,61.4c-0.3,0-0.5,0-0.8,0c-0.8-0.1-1,0.2-1,1
		c0,2.2,0.1,1.8,2.1,1.8c1.3,0,1.3,0,1.3-1.2C7.6,61.4,7.6,61.4,6,61.4z"/>
	<path class="st0" d="M33.2,97.8C33.2,97.8,33.3,97.9,33.2,97.8c0.1,0.2,0.2,0.3,0.3,0.4c2.4,2.9,3.5,6.2,3.6,9.9
		c0,0.5,0.1,0.8,0.6,1.2c1.6,1.3,1.5,3.8-0.2,4.9c-0.3,0.2-0.5,0.3-0.6,0.7c-0.3,2.6-1.9,4.3-4,5.7c-1.6,1.1-3.5,1.9-5.4,2.4
		c-0.1,0-0.2,0.1-0.4,0.2c-0.3,0-0.6,0-0.8,0.1c-2.6,0.5-5.2,0.7-7.8,0.5c-1.5-0.1-3-0.5-4.5-0.7c-2.5-0.9-4.9-1.9-6.9-3.8
		c-1.2-1.2-2.1-2.6-2.3-4.3c0-0.3-0.2-0.5-0.5-0.6c-1.9-1.2-2.1-3.7-0.3-5.1c0.4-0.3,0.4-0.7,0.4-1.2c0.1-4.3,1.5-8,4.6-11
		c0.1-0.1,0.1-0.1,0.2-0.2c0,0,0,0,0,0c0.2,0,0.3-0.2,0.4-0.3c0,0,0,0,0,0c0.3-0.1,0.7-0.2,0.8-0.7c0,0,0,0,0,0c0.2,0,0.3,0,0.3-0.2
		c0,0,0,0,0,0c0.1,0,0.2,0,0.3-0.1c3.3-2.2,7-3,11-2.8c3.1,0.2,5.9,1.2,8.5,2.9c0.4,0.3,0.7,0.7,1.2,0.8c0,0,0,0,0,0
		c0.1,0.1,0.1,0.1,0.2,0.2c0,0,0,0,0,0c0.1,0.1,0.1,0.1,0.2,0.2c0,0,0,0,0,0c0.1,0.2,0.2,0.4,0.5,0.4c0,0,0,0,0,0
		c0,0.2,0.2,0.3,0.3,0.4c0,0,0,0,0,0C33,97.7,33.1,97.8,33.2,97.8z M20.8,106.5c4.8,0,9.5,0,14.3,0c0.6,0,0.9-0.1,0.8-0.8
		c-0.3-2.6-1.4-4.9-3.2-6.9c-4.6-5.1-12.3-6.6-18.8-3.7c-4.5,2.1-7.4,5.4-8.1,10.5c-0.1,0.7,0.1,0.9,0.8,0.9
		C11.4,106.5,16.1,106.5,20.8,106.5z M21,114.7c-4.4,0-8.9,0-13.3,0c-2.1,0-2.2,0.2-1.2,2.1c1.3,2.3,3.4,3.6,5.8,4.6
		c4,1.6,8.2,1.9,12.5,1.3c2.8-0.4,5.5-1.3,7.9-2.9c1.5-1.1,2.7-2.4,3.2-4.1c0.2-0.6,0.1-0.9-0.7-0.9C30.4,114.7,25.7,114.7,21,114.7
		z M20.9,113.8c4.9,0,9.9,0,14.8,0c0.8,0,1.5-0.2,1.9-1c0.9-1.5-0.1-3.2-1.9-3.2c-1.6,0-3.2-0.4-4.6,0.1c-1.4,0.5-2.2,2-3.3,3
		c-0.9,0.9-1.4,0.9-2.3,0c-0.9-0.9-1.9-1.8-2.8-2.8c-0.2-0.2-0.5-0.4-0.9-0.4c-5.2,0-10.5,0-15.7,0c-0.9,0-1.6,0.4-2,1.3
		c-0.6,1.5,0.3,2.9,2,2.9C11,113.8,15.9,113.8,20.9,113.8z M21.6,107.6c1.3,1.3,2.4,2.4,3.6,3.6c1.4,1.4,1.4,1.4,2.8,0
		c1.2-1.1,2.3-2.3,3.6-3.6C28.2,107.6,25,107.6,21.6,107.6z M21.2,108.5c-0.7-0.6-1-1.2-1.8-1.2c-4.3,0-8.6,0-12.9,0
		c-0.4,0-0.7,0-0.8,0.6c0,0.6,0.4,0.6,0.8,0.6c4.3,0,8.7,0,13,0C20,108.5,20.5,108.5,21.2,108.5z M32.1,108.5c1.2,0,2.3,0,3.5,0
		c0.4,0,0.5-0.2,0.5-0.6c0-0.4-0.1-0.6-0.5-0.6c-0.5,0-1,0.1-1.4,0C33.1,107.3,32.6,107.7,32.1,108.5z"/>
	<path class="st0" d="M145.5,40.5c0.8,2,0.7,3.9-0.8,5.5c0,0.1-0.1,0.1-0.1,0.2c0,0,0,0,0,0c-0.9,0.6-1.8,1.1-2.9,1
		c-0.8-0.1-1.2,0.2-1.4,1c-2.4,7.7-11.2,10.2-17.2,6.3c-2.4-1.6-4-3.8-4.8-6.6c-0.1-0.4-0.1-0.8-0.7-0.7c-1.3,0.1-2.5-0.3-3.6-1
		c-1.5-1.7-1.7-3.6-0.8-5.7c0.4-0.6,0.8-1.3,1.6-1.6c1-0.3,1.2-0.9,1.3-1.9c1-6.5,6.8-11.3,13.4-11.3c6.7,0,12.7,5,13.4,12.1
		c0,0.4,0.2,0.6,0.6,0.8C144.3,38.9,145,39.6,145.5,40.5z M139.8,42.3c0-1.3,0-2.3,0-3.4c-0.1-5.2-3.9-9.4-9.1-10.2
		c-5.1-0.7-10.2,2.4-11.5,7.4c-0.9,3.3-0.6,6.7-0.3,10.1c0.5,5,4.9,8.9,10,9.1c5.3,0.2,9.8-3.4,10.8-8.5
		C139.9,45.2,139.7,43.7,139.8,42.3z M129,26.6c-0.5,0.1-1.2,0.1-1.9,0.2c-5.6,1.1-9.5,5.1-10.4,10.8c0,0.3-0.2,0.7,0.4,0.7
		c0.4,0,0.7,0,0.8-0.6c0.6-4.3,3-7.3,6.9-9.1c5-2.3,11.5-0.2,14.3,4.5c0.8,1.4,1.4,2.8,1.6,4.4c0.1,0.6,0.4,0.9,0.9,0.7
		c0.5-0.2,0.2-0.7,0.2-1C140.6,31,135.6,26.7,129,26.6z M117.8,42.8C117.8,42.8,117.8,42.8,117.8,42.8c0-1,0-1.9,0-2.9
		c0-0.3,0-0.6-0.4-0.6c-0.7,0-1.4-0.1-2.1,0.3c-1.5,0.8-2.2,2.5-1.7,4.3c0.5,1.6,2,2.5,3.8,2.3c0.4,0,0.4-0.2,0.4-0.5
		C117.8,44.7,117.8,43.7,117.8,42.8z M140.7,42.6c0,1,0,1.9,0,2.9c0,0.4,0.1,0.6,0.6,0.6c2.2,0.1,3.8-1.3,3.8-3.4
		c0-2.3-1.5-3.6-3.7-3.5c-0.5,0-0.6,0.2-0.6,0.6C140.7,40.8,140.7,41.7,140.7,42.6z"/>
	<path class="st0" d="M149.4,104.9c0,11.2-9.1,20.2-20.2,20.2c-11.1,0-20.2-9.1-20.2-20.3c0-11,9.2-20.1,20.3-20.1
		C140.4,84.7,149.4,93.7,149.4,104.9z M148.5,104.9c0.2-10.5-8.6-19.3-19-19.3c-10.5-0.1-19.3,8.3-19.4,19
		c-0.1,10.7,8.5,19.4,19.1,19.5C139.8,124.2,148.6,115.3,148.5,104.9z"/>
	<path class="st0" d="M74.1,116.8c0.4,0,0.6,0.2,0.7,0.6c0,0.3-0.2,0.6-0.5,0.6c-0.4,0-0.7-0.2-0.7-0.6
		C73.5,117.1,73.7,116.9,74.1,116.8z"/>
	<path class="st0" d="M76.9,115.3c0,0.4-0.2,0.6-0.6,0.6c-0.4,0-0.6-0.2-0.6-0.6c0-0.4,0.2-0.7,0.6-0.7
		C76.6,114.6,76.9,114.8,76.9,115.3z"/>
	<path class="st0" d="M78.2,112.5c0,0.4-0.2,0.6-0.6,0.6c-0.4,0-0.6-0.3-0.6-0.6c0-0.3,0.2-0.6,0.6-0.6
		C77.9,111.9,78.1,112.1,78.2,112.5z"/>
	<path class="st0" d="M129.8,62c0,0.4-0.3,0.6-0.6,0.6c-0.4,0-0.6-0.3-0.6-0.7c0-0.3,0.2-0.6,0.6-0.6
		C129.6,61.4,129.8,61.7,129.8,62z"/>
	<path class="st0" d="M109.9,30.5c-0.1,0.4-0.3,0.6-0.7,0.6c-0.4,0-0.6-0.3-0.6-0.6c0-0.4,0.2-0.6,0.6-0.6
		C109.7,29.9,109.9,30.1,109.9,30.5z"/>
	<path class="st0" d="M97.7,30.5c-0.1,0.4-0.2,0.6-0.6,0.6c-0.4,0-0.6-0.2-0.6-0.6c0-0.4,0.2-0.6,0.6-0.7
		C97.4,29.9,97.6,30.1,97.7,30.5z"/>
	<path class="st0" d="M78.7,39.1c0,0.5-0.2,0.7-0.6,0.7c-0.4,0-0.6-0.2-0.6-0.6c0-0.3,0.2-0.6,0.6-0.6
		C78.4,38.6,78.6,38.8,78.7,39.1z"/>
	<path class="st0" d="M78.5,35.6c0.4,0,0.6,0.2,0.6,0.6c0,0.4-0.3,0.6-0.6,0.6c-0.4,0-0.6-0.2-0.6-0.6
		C77.9,35.9,78.1,35.7,78.5,35.6z"/>
	<path class="st0" d="M129.2,64.5c0.4,0,0.6,0.2,0.6,0.6c0,0.4-0.2,0.6-0.6,0.6c-0.4,0-0.6-0.2-0.6-0.5
		C128.6,64.8,128.8,64.5,129.2,64.5z"/>
	<path class="st0" d="M78,110.1c-0.4,0-0.7-0.3-0.7-0.6c0-0.3,0.2-0.6,0.6-0.6c0.4,0,0.6,0.2,0.7,0.6
		C78.7,109.9,78.4,110.1,78,110.1z"/>
	<path class="st0" d="M129.2,74.9c-0.4-0.1-0.6-0.3-0.6-0.7c0-0.3,0.3-0.6,0.6-0.6c0.4,0,0.6,0.2,0.6,0.6
		C129.8,74.7,129.6,74.9,129.2,74.9z"/>
	<path class="st0" d="M129.9,77.4c-0.1,0.4-0.3,0.6-0.7,0.6c-0.4,0-0.6-0.3-0.6-0.7c0-0.3,0.3-0.6,0.6-0.5
		C129.6,76.7,129.8,77,129.9,77.4z"/>
	<path class="st0" d="M106.2,29.9c0.5,0,0.7,0.2,0.7,0.6c0,0.4-0.2,0.6-0.6,0.6c-0.4,0-0.6-0.2-0.6-0.6
		C105.6,30.1,105.8,29.9,106.2,29.9z"/>
	<path class="st0" d="M80.4,33.5c-0.1,0.4-0.3,0.6-0.6,0.6c-0.4,0-0.6-0.2-0.6-0.6c0-0.4,0.2-0.6,0.6-0.7
		C80.2,32.8,80.4,33.1,80.4,33.5z"/>
	<path class="st0" d="M84.9,29.9c0.4,0.1,0.6,0.3,0.6,0.7c0,0.3-0.2,0.6-0.6,0.6c-0.4,0-0.6-0.2-0.6-0.6
		C84.3,30.1,84.5,29.9,84.9,29.9z"/>
	<path class="st0" d="M62.1,117.6c0.4,0,0.6,0.3,0.6,0.6c0,0.4-0.3,0.6-0.7,0.6c-0.4,0-0.6-0.2-0.6-0.6
		C61.5,117.8,61.7,117.6,62.1,117.6z"/>
	<path class="st0" d="M129.9,80.3c-0.1,0.4-0.3,0.6-0.7,0.6c-0.4,0-0.6-0.2-0.6-0.6c0-0.4,0.2-0.6,0.6-0.6
		C129.6,79.8,129.8,80,129.9,80.3z"/>
	<path class="st0" d="M129.8,71.2c0,0.4-0.3,0.6-0.6,0.6c-0.3,0-0.6-0.2-0.6-0.6c0-0.4,0.2-0.6,0.6-0.7
		C129.6,70.6,129.8,70.8,129.8,71.2z"/>
	<path class="st0" d="M82.6,31.4c-0.1,0.4-0.3,0.6-0.7,0.5c-0.4-0.1-0.6-0.3-0.5-0.7c0.1-0.3,0.3-0.5,0.7-0.5
		C82.4,30.8,82.6,31.1,82.6,31.4z"/>
	<path class="st0" d="M20.9,76.4c-0.4,0-0.6-0.2-0.6-0.6c0-0.4,0.3-0.6,0.6-0.6c0.3,0,0.6,0.2,0.6,0.6
		C21.5,76.2,21.3,76.4,20.9,76.4z"/>
	<path class="st0" d="M94,29.9c0.4,0,0.6,0.2,0.6,0.6c0,0.4-0.3,0.6-0.7,0.6c-0.4,0-0.6-0.2-0.6-0.6C93.4,30.1,93.6,29.9,94,29.9z"
		/>
	<path class="st0" d="M44.4,118.1c-0.1,0.5-0.3,0.7-0.7,0.6c-0.4,0-0.6-0.3-0.6-0.6c0-0.4,0.2-0.6,0.6-0.6
		C44.2,117.6,44.3,117.8,44.4,118.1z"/>
	<path class="st0" d="M50.5,118.2c-0.1,0.4-0.3,0.6-0.7,0.6c-0.4,0-0.6-0.2-0.6-0.6c0-0.4,0.2-0.6,0.6-0.6
		C50.3,117.6,50.4,117.8,50.5,118.2z"/>
	<path class="st0" d="M103.8,30.5c-0.1,0.4-0.3,0.6-0.7,0.6c-0.4,0-0.5-0.2-0.5-0.6c0-0.4,0.2-0.6,0.6-0.6
		C103.6,29.9,103.8,30.2,103.8,30.5z"/>
	<path class="st0" d="M100.7,30.5c0,0.4-0.3,0.6-0.7,0.6c-0.4,0-0.6-0.3-0.6-0.6c0-0.4,0.3-0.6,0.7-0.6
		C100.5,29.9,100.7,30.1,100.7,30.5z"/>
	<path class="st0" d="M56.6,118.2c-0.1,0.4-0.3,0.6-0.7,0.6c-0.4,0-0.6-0.2-0.6-0.6c0-0.4,0.2-0.6,0.6-0.6
		C56.4,117.6,56.5,117.8,56.6,118.2z"/>
	<path class="st0" d="M68.2,118.8c-0.4,0-0.6-0.2-0.6-0.6c0-0.4,0.2-0.6,0.6-0.6c0.4,0,0.6,0.2,0.6,0.5
		C68.8,118.5,68.6,118.7,68.2,118.8z"/>
	<path class="st0" d="M20.8,87.4c0.4,0.1,0.6,0.2,0.6,0.6c0,0.4-0.2,0.6-0.5,0.6c-0.4,0-0.6-0.2-0.7-0.6
		C20.2,87.7,20.5,87.5,20.8,87.4z"/>
	<path class="st0" d="M20.9,72.1c0.4,0.1,0.6,0.3,0.6,0.7c0,0.4-0.2,0.6-0.6,0.6c-0.4,0-0.6-0.2-0.6-0.6
		C20.3,72.3,20.5,72.2,20.9,72.1z"/>
	<path class="st0" d="M21.5,85c0,0.3-0.3,0.6-0.6,0.5c-0.4,0-0.6-0.3-0.5-0.7c0-0.4,0.3-0.6,0.6-0.5C21.2,84.3,21.5,84.6,21.5,85z"
		/>
	<path class="st0" d="M65.8,118.2c-0.1,0.4-0.3,0.6-0.7,0.6c-0.4,0-0.6-0.3-0.6-0.7c0-0.3,0.3-0.5,0.6-0.5
		C65.5,117.6,65.7,117.9,65.8,118.2z"/>
	<path class="st0" d="M59.6,118.2c-0.1,0.4-0.3,0.6-0.7,0.6c-0.4,0-0.6-0.2-0.5-0.6c0-0.4,0.2-0.6,0.6-0.6
		C59.4,117.6,59.6,117.8,59.6,118.2z"/>
	<path class="st0" d="M52.8,117.6c0.5,0,0.7,0.2,0.7,0.6c0,0.3-0.2,0.6-0.6,0.6c-0.4,0-0.6-0.2-0.7-0.6
		C52.3,117.8,52.5,117.6,52.8,117.6z"/>
	<path class="st0" d="M47.4,118.2c0,0.4-0.2,0.6-0.6,0.6c-0.4,0-0.6-0.2-0.6-0.6c0-0.4,0.2-0.6,0.6-0.6
		C47.2,117.6,47.4,117.8,47.4,118.2z"/>
	<path class="st0" d="M40.7,117.6c0.4,0,0.6,0.2,0.6,0.6c0,0.4-0.3,0.6-0.7,0.6c-0.4,0-0.6-0.2-0.6-0.6
		C40.1,117.8,40.3,117.6,40.7,117.6z"/>
	<path class="st0" d="M20.9,79.5c-0.4,0-0.6-0.3-0.6-0.7c0-0.4,0.3-0.6,0.6-0.5c0.4,0,0.6,0.3,0.6,0.7
		C21.4,79.3,21.2,79.4,20.9,79.5z"/>
	<path class="st0" d="M21.5,69.6c0,0.4-0.2,0.6-0.5,0.6c-0.4,0-0.7-0.1-0.7-0.6c0-0.4,0.2-0.6,0.6-0.6
		C21.3,69.1,21.4,69.3,21.5,69.6z"/>
	<path class="st0" d="M128.6,68.1c0-0.4,0.2-0.6,0.6-0.6c0.4,0,0.6,0.2,0.6,0.6c0,0.4-0.3,0.6-0.7,0.6
		C128.8,68.7,128.6,68.5,128.6,68.1z"/>
	<path class="st0" d="M21.5,81.8c0,0.5-0.2,0.7-0.6,0.7c-0.3,0-0.6-0.2-0.6-0.6c0-0.4,0.2-0.6,0.6-0.6
		C21.2,81.3,21.4,81.5,21.5,81.8z"/>
	<path class="st0" d="M91.6,30.4c0,0.4-0.2,0.6-0.5,0.6c-0.4,0-0.6-0.1-0.7-0.6c0-0.4,0.2-0.6,0.5-0.6
		C91.3,29.9,91.5,30.1,91.6,30.4z"/>
	<path class="st0" d="M71.8,118.1c0,0.4-0.2,0.7-0.5,0.7c-0.4,0-0.7-0.2-0.7-0.6c0-0.4,0.2-0.6,0.6-0.6
		C71.6,117.6,71.8,117.8,71.8,118.1z"/>
	<path class="st0" d="M88.5,30.5c0,0.4-0.2,0.6-0.6,0.6c-0.4,0-0.6-0.2-0.6-0.6c0-0.3,0.1-0.6,0.5-0.6
		C88.2,29.9,88.5,30.1,88.5,30.5z"/>
	<path class="st0" d="M144.6,46.2c0-0.1,0.1-0.1,0.1-0.2C144.7,46.1,144.6,46.1,144.6,46.2z"/>
	<path class="st0" d="M87.4,73.8c0.3,2.6,0.3,5-0.4,7.4c-0.5,1.5-1.2,2.7-2.4,3.8c-0.2,0.2-0.5,0.4-0.3,0.8c0.8,1.3,0.9,2.8,1,4.3
		c0.2,3,0.4,6,0.4,9c0,1.8-1.2,3.1-3,3.2c-1.5,0.1-3-1.1-3.2-2.7c-0.2-1.8-0.3-3.6-0.3-5.3c0-1.3-0.2-2.5-1.4-3.4
		c-0.3,0.9-0.7,1.8-1,2.7c-0.8,2.2-1.6,4.4-2.4,6.6c-0.6,1.5-2.2,2.3-3.7,1.8c-1.6-0.4-2.7-2.1-2.2-3.7c0.7-2.2,1.5-4.4,2.3-6.6
		c0.2-0.6,0.3-1.2,0-1.9c-0.7-1.8-0.8-3.7-0.8-5.6c0-0.5-0.1-1-0.4-1.4c-1-1.6-1.4-3.5-1.5-5.4c0-0.5,0-0.9,0-1.6
		c-0.7,1.2-1.6,1.9-2.9,1.9c-2.1,0-3.6-2-2.9-4c1-2.7,2-5.4,3.1-8c0.7-1.6,1.9-2.9,2.8-4.3c0.4-0.7,1-1.3,1.4-2
		c1-1.6,2.3-2.8,4.1-3.4c0.6-0.2,0.4-0.4,0.1-0.7c-1.6-1.3-2.3-3.1-1.7-5.1c0.6-2.1,2.1-3.3,4.2-3.7c3.2-0.6,6.3,1.9,6.2,5
		c0,1.8-0.9,3.2-2.4,4.1c-0.3,0.2-0.6,0.3-1,0.5c0.5,0.3,0.9,0.6,1.3,0.9c1,0.8,1.9,1.7,2.2,2.9c0.5,1.7,1.7,2.8,2.6,4.1
		c1.6,2.1,3.9,3.3,5.9,5c0.6,0.5,1.2,0.9,1.7,1.4c1.3,1.1,1.4,2.9,0.4,4.1c-1,1.3-2.8,1.6-4.1,0.6C88.6,74.8,88.1,74.3,87.4,73.8z
		 M69.1,75.8c0,0.4,0,0.8,0,1.1c0,2,0.3,4,1.4,5.7c1.3,1.9,3.2,2.7,5.4,3c0.6,0.1,0.9,0.3,1.1,0.9c0.6,1.9,1.4,3.7,2.8,5.2
		c0.2,0.2,0.2,0.5,0.3,0.8c0.1,2.2,0.2,4.4,0.3,6.6c0.1,1.4,1,2.3,2.2,2.3c1.3,0,2.2-1,2.2-2.5c-0.1-2.2-0.1-4.4-0.3-6.6
		c-0.2-2.3-0.1-4.6-1.2-6.7c-0.2-0.4-0.1-0.7,0.3-1c1.4-1,2.2-2.4,2.6-4.1c1.1-4.6,0.6-9-2.2-12.9c-1.3-1.8-1.9-3.4-1.9-5.6
		c0.1-2.5-2-4.8-4.5-5.4C75.1,56.1,72.4,57,71,59c-1.2,1.7-2.4,3.5-3.6,5.2c-0.4,0.6-0.9,1.2-1.2,1.9c-1,2.6-2,5.1-2.9,7.6
		c-0.5,1.2,0,2.4,1.1,2.8c1.2,0.4,2.3-0.1,2.8-1.4c0.4-0.9,0.7-1.9,1.1-2.8c0.7-1.7,1.1-3.5,2.1-5.1c1.2-2,2.6-3.9,4-5.9
		c0.2-0.3,0.4-0.8,0.9-0.5c0.5,0.4,0.1,0.7-0.1,1.1c-1,1.5-2.1,3-3.1,4.6C70.2,69.4,68.9,72.5,69.1,75.8z M71,84.5
		c0,2,0.1,3.7,0.9,5.4c0.3,0.6,0.3,1,0.1,1.6c-0.8,2.2-1.7,4.5-2.5,6.7c-0.4,1.3,0.2,2.6,1.5,2.9c1.1,0.3,2.2-0.3,2.7-1.5
		c1.1-2.8,2-5.7,3.1-8.5c0.7-1.7-0.3-2.9-0.7-4.3c-0.1-0.2-0.3-0.2-0.5-0.3C73.9,86.2,72.4,85.6,71,84.5z M77.1,55.5
		c2.4,0,4.4-1.8,4.4-4c0-2.3-1.9-4.2-4.3-4.2c-2.4,0-4.4,1.8-4.4,4.1C72.8,53.6,74.8,55.5,77.1,55.5z M83.3,63.2
		c0,0.8-0.4,1.6,0.2,2.2c1.8,1.9,2.9,4.1,3.6,6.6c0.1,0.2,0.1,0.4,0.3,0.6c0.8,0.6,1.6,1.3,2.5,1.9c0.7,0.5,1.4,0.5,2.1,0.1
		c0.7-0.4,1.1-1.1,1-2c0-0.9-0.6-1.3-1.2-1.8C88.8,68.3,85.4,66.5,83.3,63.2z"/>
	<path class="st0" d="M32.1,102.4c-0.4,0-0.5-0.4-0.6-0.7c-0.1-0.3-0.2-0.6-0.3-0.9c0-0.2,0.1-0.4,0.3-0.5c0.2-0.1,0.3-0.1,0.5,0.1
		c0.3,0.4,0.5,1,0.6,1.5C32.6,102.3,32.4,102.4,32.1,102.4z"/>
	<path class="st0" d="M19.8,97.2c-0.2,0.4-0.4,1-0.8,1.3c-0.1,0.1-0.3,0.1-0.5,0c-0.2-0.1-0.3-0.3-0.2-0.5c0.2-0.4,0.4-0.8,0.7-1.2
		c0.1-0.2,0.3-0.2,0.5-0.1C19.7,96.8,19.8,97,19.8,97.2z"/>
	<path class="st0" d="M26,103.5c0.3-0.4,0.1-1.2,0.9-1.3c0.3,0,0.5,0.3,0.4,0.6c-0.2,0.5-0.1,1.3-0.9,1.4
		C26,104.2,25.9,103.9,26,103.5z"/>
	<path class="st0" d="M11.1,102.8c0,0.4-1.2,1.3-1.5,1.2c-0.4-0.1-0.5-0.4-0.2-0.7c0.3-0.4,0.7-0.7,1.2-0.8
		C10.9,102.3,11,102.6,11.1,102.8z"/>
	<path class="st0" d="M26.1,97.6c-0.1,0.4-0.4,0.7-0.7,0.4c-0.4-0.3-0.6-0.8-0.8-1.3c0-0.2,0-0.3,0.2-0.4c0.2-0.1,0.3-0.1,0.5,0
		C25.7,96.6,25.9,97.2,26.1,97.6z"/>
	<path class="st0" d="M18.4,103.2c0,0.3-1.1,1.3-1.4,1.2c-0.3,0-0.5-0.2-0.4-0.5c0.2-0.6,0.7-0.9,1.2-1.2
		C18.1,102.6,18.3,102.9,18.4,103.2z"/>
	<path class="st0" d="M12.9,98.5c0.3-0.4,0-1.2,0.8-1.3c0.4,0,0.5,0.3,0.4,0.6c-0.2,0.5,0,1.3-0.8,1.4
		C12.9,99.2,12.9,98.9,12.9,98.5z"/>
	<path class="st0" d="M127.3,45.5c0-1.1,0.8-1.9,1.9-1.9c1.1,0,1.9,0.8,2,1.9c0,1.1-0.9,2-1.9,2C128.2,47.4,127.3,46.6,127.3,45.5z
		 M130.2,45.5c0-0.6-0.4-1-0.9-1c-0.6,0-1,0.4-1,1c0,0.6,0.4,1,1,0.9C129.9,46.4,130.2,46.1,130.2,45.5z"/>
	<path class="st0" d="M122.7,37c-0.3,0-0.5-0.1-0.6-0.4c-0.1-0.3,0.1-0.5,0.4-0.6c1.3-0.2,2.5-0.5,3.8-0.7c0.3-0.1,0.6,0,0.7,0.3
		c0.1,0.3-0.1,0.5-0.4,0.6C125.2,36.6,123.9,36.8,122.7,37z"/>
	<path class="st0" d="M132.3,35.4c1.1,0.2,2.4,0.4,3.6,0.7c0.3,0.1,0.5,0.2,0.5,0.6c-0.1,0.3-0.3,0.4-0.6,0.4
		c-1.2-0.2-2.5-0.4-3.7-0.7c-0.3-0.1-0.6-0.2-0.5-0.6C131.6,35.4,131.9,35.4,132.3,35.4z"/>
	<path class="st0" d="M133.8,40.5c-0.5,0-1,0-1.5,0c-0.3,0-0.6-0.2-0.5-0.5c0-0.3,0.2-0.4,0.5-0.4c1,0,2.1,0,3.1,0
		c0.3,0,0.6,0.1,0.5,0.5c0,0.4-0.3,0.4-0.6,0.4C134.8,40.5,134.3,40.5,133.8,40.5C133.8,40.5,133.8,40.5,133.8,40.5z"/>
	<path class="st0" d="M124.7,40.5c-0.4,0-0.8,0-1.2,0c-0.4,0-0.8,0.1-0.8-0.5c0-0.5,0.4-0.4,0.8-0.4c0.9,0,1.7,0,2.6,0
		c0.4,0,0.8-0.1,0.8,0.5c0,0.5-0.5,0.4-0.8,0.4C125.6,40.5,125.1,40.5,124.7,40.5z"/>
	<path class="st0" d="M129.2,122.4c-8.2,0.1-15.9-5.9-17.4-14.7c-0.8-5.1,0.4-9.8,3.7-13.9c0.5-0.6,0.8-0.6,1.4-0.1
		c7.8,7.8,15.6,15.6,23.5,23.5c0.7,0.7,0.6,0.8-0.1,1.4C137.1,121.1,133.3,122.4,129.2,122.4z M129.8,116.6c-3.2,0-5.9,0-8.6,0
		c-1.8,0-3.2-1.3-3.3-3.1c0-5.2,0-10.5,0-15.7c0.7-1.4-0.4-2.1-1.2-2.9c-0.4-0.4-0.5-0.3-0.8,0.1c-1.9,2.5-2.9,5.2-3.2,8.3
		c-0.9,9.5,6.3,17.9,15.9,18.3c3.8,0.2,7.3-0.9,10.4-3.2c0.2-0.2,0.5-0.3,0.5-0.6c0-0.2-1.2-1.3-1.4-1.3
		C135.1,116.7,132.2,116.5,129.8,116.6z M122.2,100.5c-0.3-0.5-0.6-0.6-1.1-0.6c-0.5,0-1.1,0-1.6,0c-0.6-0.1-0.8,0.2-0.8,0.8
		c0,4.1,0,8.2,0,12.4c0,1.8,0.8,2.6,2.6,2.6c5,0,10.1,0,15.1,0c0.2,0,0.5,0.1,0.8-0.1c-0.4-0.6-0.9-0.9-1.7-0.9c-4.5,0-8.9,0-13.4,0
		c-1.7,0-2.5-0.8-2.5-2.4c0-3,0-6,0-9C119.8,101.4,120.4,100.7,122.2,100.5z M127,110.2c-1.8,0-1.8,0-1.8,1.7c0,1.7,0,1.7,1.7,1.7
		c1.8,0,1.8,0,1.8-1.8C128.7,110.2,128.7,110.2,127,110.2z M122.4,110.2c-1.8,0-1.8,0-1.8,1.7c0,1.4,0.4,1.8,1.8,1.8
		c1.7,0,1.7,0,1.7-1.7C124.2,110.2,124.2,110.2,122.4,110.2z M122.4,109.3c1.8,0,1.8,0,1.8-1.6c0-1.8,0-1.8-1.8-1.8
		c-1.7,0-1.7,0-1.7,1.7C120.7,109.3,120.7,109.3,122.4,109.3z M131.4,113.7c1.8,0,1.8,0,1.8-1.6c0-1-0.8-1.8-1.8-1.8
		c-1.7,0-1.7,0-1.7,1.7C129.7,113.7,129.7,113.7,131.4,113.7z M126.9,109.3c1.8,0,1.8,0,1.8-1.7c0-1.1-0.6-1.8-1.8-1.8
		c-1.7,0-1.7,0-1.7,1.7C125.2,109.3,125.2,109.3,126.9,109.3z M122.4,104.9c1.8,0,1.8,0,1.8-1.8c0-1.1-0.5-1.6-1.6-1.6
		c-1.5,0-1.9,0.4-1.9,1.6C120.6,104.9,120.6,104.9,122.4,104.9z M118.9,97.1c-0.3,1.8-0.1,2,1.5,1.7C120,98.3,119.5,97.8,118.9,97.1
		z M125.2,103.6c-0.2,1.4-0.1,1.4,1.2,1.3C126.1,104.4,125.7,104,125.2,103.6z M135.4,113.6c-0.4-0.4-0.7-1-1.3-1.2
		C134,113.7,134,113.7,135.4,113.6z M129.7,108c-0.2,1.3-0.2,1.3,1.1,1.2C130.5,108.8,130.1,108.4,129.7,108z"/>
	<path class="st0" d="M129.3,87.3c8.7,0,16,6.2,17.3,14.8c0.8,5.1-0.5,9.7-3.7,13.8c-0.5,0.6-0.8,0.6-1.3,0
		c-7.8-7.9-15.7-15.7-23.5-23.5c-0.5-0.5-0.5-0.9,0.1-1.3C121.4,88.6,125.1,87.3,129.3,87.3z M140.6,105.4c0,2.3,0.1,4.5,0,6.8
		c0,1.1,0.3,1.9,1.1,2.6c0.5,0.5,0.7,0.4,1-0.1c2.5-3.5,3.6-7.3,3.1-11.6c-1.3-12.4-15.3-19-25.6-12.2c-1.5,1-1.5,1-0.2,2.2
		c0.3,0.3,0.5,0.5,1,0.2c0.7-0.4,1.4,0,1.6,0.8c0.1,0.4,0.3,0.6,0.8,0.5c0.4,0,0.9,0,1.3,0c0.5,0,0.8,0,0.9-0.6
		c0.1-0.6,0.5-0.8,1.1-0.9c0.5,0,1,0.2,1.1,0.7c0.1,0.8,0.6,0.8,1.2,0.7c0.3,0,0.7,0,1,0c0.5,0,0.8,0,0.8-0.6
		c0.1-0.5,0.5-0.8,1.1-0.8c0.5,0,1,0.3,1.1,0.7c0.1,0.8,0.5,0.8,1.1,0.7c0.4,0,0.8,0,1.3,0c0.4,0,0.6-0.1,0.7-0.5
		c0.1-0.6,0.5-1,1.2-0.9c0.6,0,1,0.4,1.1,1c0,0.3,0.2,0.5,0.5,0.7c1.3,0.6,1.9,1.7,1.9,3.1C140.6,100.5,140.6,102.9,140.6,105.4z
		 M122.7,95.5c0,0.1-0.1,0.1-0.1,0.2c1,1,2,2,3,3c0.2,0.2,0.4,0.1,0.5,0.1c4.3,0,8.6,0,13,0c0.4,0,0.6-0.1,0.6-0.5
		c0-0.7-0.1-1.3-0.5-1.9c-0.2-0.3-0.5-0.6-0.8-0.6c-0.4,0.1-0.2,0.5-0.2,0.8c-0.1,0.9-0.5,1.4-1.2,1.5c-0.7,0-1.2-0.6-1.2-1.5
		c0-1.2,0-1.2-1.1-1.2c-0.5,0-1.2-0.1-1.5,0.1c-0.4,0.3-0.1,0.9-0.2,1.4c-0.1,0.7-0.5,1.1-1.2,1.1c-0.6,0-1.1-0.5-1.2-1.1
		c0-0.3,0-0.7,0-1c0-0.2,0-0.4-0.3-0.4c-0.8,0-1.7-0.2-2.4,0.1c-0.4,0.1-0.1,0.9-0.2,1.4c0,0.1,0,0.1,0,0.2c-0.2,0.6-0.6,1-1.2,1
		c-0.6,0-1-0.3-1.1-0.9c-0.1-0.4-0.1-0.8-0.1-1.2c0-0.3,0-0.5-0.5-0.5C124.2,95.5,123.5,95.5,122.7,95.5z M139.6,112.6
		c0.1-0.1,0.1-0.1,0.1-0.2c0-4,0-8,0-12c0-0.6-0.3-0.6-0.7-0.6c-3.7,0-7.5,0-11.2,0c-0.3,0-0.5,0-0.9,0c0.2,0.6,0.6,0.7,1.1,0.7
		c2.7,0,5.4,0,8.1,0c1.7,0,2.5,0.8,2.5,2.5c0,2.6,0,5.2,0,7.8C138.5,111.7,138.9,112.2,139.6,112.6z M135.8,104.9
		c1.9,0,1.9,0,1.8-1.6c0-1.4-0.4-1.8-1.9-1.8c-1.8,0-1.8,0-1.8,1.7C134.1,104.9,134.1,104.9,135.8,104.9z M135.9,105.8
		c-0.4,0-0.9,0-1.3,0c-0.2,0-0.4,0-0.4,0.3c0,0.5-0.2,1.1,0.4,1.5c0.4,0.4,0.9,0.8,1.2,1.2c0.5,0.6,1.2,0.4,1.7,0.3
		c0.5-0.1,0.2-0.7,0.2-1c0-0.2,0-0.4,0-0.6C137.7,105.8,137.7,105.8,135.9,105.8z M131.5,101.5c-0.4,0-0.9,0-1.3,0
		c-0.2,0-0.5,0-0.5,0.3c0,0.5-0.1,1,0.4,1.4c0.5,0.4,0.9,0.9,1.4,1.4c0.5,0.5,1,0.4,1.5,0.3c0.5-0.1,0.2-0.7,0.2-1
		c0-0.2,0-0.4,0-0.7C133.2,101.5,133.2,101.5,131.5,101.5z M137.3,95.7C137.3,95.7,137.3,95.7,137.3,95.7c0-0.4,0-0.8,0-1.2
		c0-0.1-0.1-0.3-0.3-0.2c-0.1,0-0.2,0.1-0.2,0.2c-0.1,0.8-0.1,1.6,0,2.4c0,0.2,0.1,0.3,0.3,0.3c0.1,0,0.2-0.2,0.2-0.3
		C137.3,96.4,137.3,96.1,137.3,95.7z M132.1,95.7C132.1,95.7,132.1,95.7,132.1,95.7c-0.1-0.4,0-0.8-0.1-1.2c0-0.1,0-0.3-0.2-0.3
		c-0.2,0-0.3,0.1-0.3,0.3c0,0.6,0,1.1,0,1.7c0,0.3-0.2,0.9,0.2,0.9c0.5,0,0.2-0.6,0.3-0.9C132.1,96.1,132.1,95.9,132.1,95.7z
		 M126.9,95.6c0-0.4,0-0.7,0-1.1c0-0.2,0-0.4-0.2-0.4c-0.2,0-0.3,0.2-0.3,0.4c0,0.7,0,1.5,0,2.2c0,0.2,0.1,0.4,0.3,0.4
		c0.2,0,0.2-0.2,0.2-0.4C126.9,96.4,126.9,96,126.9,95.6z"/>
</g>
<g>
	<path class="st0" d="M898.2,633.2c0-4.6,0-9.4,0-14.2c-0.1-18.6-0.2-37.2-0.3-55.8c0-5.4,2.2-9.7,6.7-12.7c3.7-2.4,5.5-5.5,5.3-10
		c-0.2-7.3-0.1-14.6-0.2-21.9c0-1.2-0.8-2.3-0.9-3.6c-0.3-2.7-0.6-5.4-0.3-8c0.1-0.9,2.4-2,3.7-2.1c5.1-0.3,10.2-0.2,15.3-0.1
		c2.7,0,4,1.4,4,4.1c0,2.3,0.6,4.7-1.3,6.8c-0.4,0.4-0.3,1.4-0.3,2.1c0,7.8,0.1,15.7,0,23.5c0,4.2,1.6,7.4,5.1,9.7
		c5,3.3,7.3,7.9,7.3,13.8c0.1,21.7,0.2,43.4,0.3,65.1c0,1,0,2,0,3.3c10.4,0,20.6,0,31.3,0c0-4-0.2-8,0-11.9c0.2-3.2-0.7-5.7-2.9-8.3
		c-6.5-7.7-5.5-16.3-2-25c0.3-0.8,0.7-1.5,1-2.2c0-0.1,0-0.2-0.1-0.5c-2.5-0.2-5.1-0.4-7.7-0.8c-8.4-1.3-12.3-5.1-11.9-13.7
		c0.3-8.1,1.8-16.1,2.8-24.1c0.3-2.5,0.9-5,1.4-7.5c0.5-2.5,2-3.8,4.6-3.8c11-0.1,22-0.1,33.1-0.1c2.2,0,3.9,1.1,4.2,3.2
		c1.8,10,3.5,20.1,5,30.1c0.4,2.7-0.4,5.6-0.6,8.7c3.5,0.9,7.4,1.9,11.2,2.8c13,3.2,25.9,6.5,38.9,9.7c4.7,1.2,5.6,0.9,8-3.3
		c7.2-12.7,14.2-25.4,21.4-38.1c2.9-5.2,6-10.2,8.9-15.4c6.3-10.9,16-16.5,28.2-18.6c2-0.4,4-1.2,6.1-1.4c2.6-0.2,5.2-0.1,7.8,0.1
		c1,0.1,2.1,0.5,3.6,0.8c0-2,0-3.6,0-5.2c0-6.9,4.4-11.5,11-11.8c6.6-0.2,11.3,4,11.9,10.8c0,0.3,0.1,0.5,0.1,0.4
		c2.8-0.5,5.5-1.5,8.2-1.5c6.1,0,10.5,4.4,10.7,10.5c0.1,3.5,0,7,0,10.3c2.9-0.6,5.5-1.5,8.2-1.5c6.2-0.1,10.8,4.7,10.8,10.9
		c0,24.5,0.1,49,0,73.5c-0.1,18.7-13.2,35.5-32.4,41.5c-5.5,1.7-11.4,2.8-17.1,2.8c-82.9,0.2-165.8,0.1-248.8,0.1
		c-5.8,0-9.7-2.8-11-7.9c-1.2-4.6,0.8-9.9,4.9-12C893.5,634.1,895.8,633.8,898.2,633.2z M1120,561.4c0,12.2,0,24.4,0,36.6
		c0,0.9,0.2,1.9-0.2,2.7c-0.3,0.7-1.3,1.5-1.9,1.5c-0.6,0-1.5-0.8-1.9-1.5c-0.3-0.7-0.2-1.6-0.2-2.4c0-7.4,0.1-14.8-0.1-22.1
		c-0.1-4.7-3.1-7.5-7.6-7.4c-4.4,0.1-7.2,2.9-7.2,7.5c0,11-0.1,22.1,0,33.1c0.1,10.3,3.6,19.3,10.6,26.8
		c12.8,13.8,33.5,18.5,51.8,12c15.3-5.5,29.2-19.9,28.8-40.9c-0.4-23.1-0.1-46.3-0.1-69.4c0-4.6-3-7.7-7.4-7.7c-4.5,0-7.4,3-7.4,7.6
		c0,10,0,20,0,30.1c0,1.8,0.6,4.5-2.2,4.5c-2.8,0-2.1-2.7-2.1-4.5c0-16.5,0-33,0-49.5c0-3.7-1.6-6-4.9-7c-5.3-1.7-9.9,1.5-9.9,7.1
		c0,16.5,0,33,0,49.5c0,0.9,0.2,1.9-0.2,2.7c-0.4,0.8-1.3,1.6-2,1.7c-0.6,0.1-1.6-0.9-1.9-1.6c-0.4-0.9-0.2-2-0.2-3
		c0-19.7,0-39.4,0-59.1c0-3.5-1.4-5.7-4.3-6.9c-5.3-2.1-10.4,1.3-10.4,7c0,19.6,0,39.2,0,58.8c0,0.8,0.2,1.8-0.1,2.4
		c-0.5,0.9-1.3,1.6-2.1,2.4c-0.7-0.7-1.6-1.3-2-2.2c-0.4-0.8-0.1-1.8-0.1-2.7c0-14.4,0-28.8,0-43.2c0-4.1-1.7-6.5-5.1-7.4
		c-5.2-1.4-9.6,1.9-9.6,7.3C1120,536.6,1120,549,1120,561.4z M1116.2,567.1c0-16.4,0-32.2,0-48.1c-0.1,0-0.5-0.1-0.8,0
		c-8.5,2-15.9,5.9-20.8,13.5c-3.4,5.3-6.6,10.7-9.7,16.2c-7.7,13.6-15.3,27.3-23.1,40.9c-2.6,4.6-5.5,5.6-10.6,4.4
		c-13.8-3.4-27.5-6.9-41.3-10.3c-7-1.7-13.9-3.7-21.2-3.4c-9.1,0.3-14.6,4.3-17.2,12.8c-2.8,9.2-0.8,16.7,6.9,21.6
		c4.1,2.6,8.9,4.7,13.6,6c13.6,3.6,27.4,6.8,41.1,9.9c4.9,1.1,10,2.6,15,2.7c13.8,0.3,27.5,0.1,41.3,0c4.6,0,9.2,0,13.8,0
		c0-0.7,0.1-0.9,0-1c-0.4-0.7-0.8-1.4-1.2-2.2c-3.2-5.9-5.1-12.3-5.2-19.1c-0.1-11.8-0.1-23.7,0-35.5c0-5.3,3.5-9.3,8.6-10.5
		C1109.2,564,1112.4,565,1116.2,567.1z M1124.5,651.1c0.1-0.2,0.1-0.3,0.2-0.5c-0.6-0.3-1.3-0.6-1.8-1c-4.7-3.4-9.5-6.7-13.9-10.4
		c-1.8-1.5-3.4-2.3-5.7-2.3c-56.3,0.2-112.6,0.4-168.9,0.6c-12.4,0-24.8,0.1-37.2,0.1c-4,0-6.6,2.5-6.9,6.3
		c-0.3,4.3,2.7,7.2,7.6,7.2c72.4,0,144.9,0,217.3,0C1118.3,651.1,1121.4,651.1,1124.5,651.1z M902.1,623.8c0,2.5,0.1,4.7,0,6.8
		c-0.2,2.4,0.7,3.2,3.1,3.1c10.1-0.2,20.2-0.2,30.3-0.1c2.8,0,3.5-0.9,3.5-3.6c-0.2-21.7-0.4-43.3-0.4-65c0-4.7-1.9-8.2-5.7-10.8
		c-4.4-3-6.5-7.1-6.5-12.5c0-8.5-0.1-16.9-0.1-25.4c0-1.2,0.6-2.5,1.2-3.6c0.7-1.4,0.4-3.8-0.8-3.9c-4.9-0.1-9.7,0-14.8,0
		c0.1,1.6-0.2,3.2,0.4,3.7c1.9,1.6,1.4,3.7,1.4,5.6c0.1,7.5-0.1,14.9,0.2,22.4c0.2,5.9-2.2,10-6.9,13.4c-1.9,1.4-4,3.7-4.5,5.9
		c-0.9,4.4-0.7,9.1-1,13.9c5.6,0,10.5,0,15.4,0c3.9,0,5,1.1,5,5c0.1,13.2,0.2,26.4,0.3,39.6c0,4.4-1.2,5.6-5.7,5.6
		C911.9,623.8,907.1,623.8,902.1,623.8z M954.8,559.5c0,4.9-0.2,9.6,0.1,14.1c0.2,3.5,2.3,6,5.9,6.5c4,0.5,8.1,0.7,12.2,1
		c0.5,0,1.1-0.1,1.5-0.4c5.8-4.4,12.6-5,19.5-4.4c2.2,0.2,3.2-0.7,3.2-2.6c0-4-0.2-8-0.2-11.9c0-1.9-0.9-2.6-2.9-2.5
		c-5.1,0.2-10.2,0.2-15.3,0.2C971.2,559.5,963.5,559.5,954.8,559.5z M918.1,577.6c-4.8,0-9,0.1-13.3,0c-2.3-0.1-2.9,0.7-2.9,3
		c0.2,12.1,0.2,24.2,0.3,36.3c0,1,0.1,1.9,0.2,3c4.6,0,9-0.1,13.3,0c1.9,0,2.4-0.7,2.4-2.6c-0.1-7.5-0.1-15.1-0.1-22.7
		C918,589,918.1,583.5,918.1,577.6z M996.3,555.1c-1.1-5.2-2-9.9-3.1-14.6c-0.1-0.6-1.2-1.4-1.8-1.4c-10.3-0.1-20.6,0-30.8,0.1
		c-0.7,0-1.8,0.9-2,1.5c-1,4.7-1.8,9.4-2.8,14.3C969.3,555.1,982.5,555.1,996.3,555.1z M1026.1,633.2c-15.8-5.3-32.6-6.8-47.9-13.8
		c0,4.7,0,9.2,0,13.8C994.3,633.2,1010.2,633.2,1026.1,633.2z"/>
	<path class="st0" d="M1067.3,421.3c27.6-0.1,50,22.4,50.2,50c0.1,27.7-22.4,50.3-50.1,50.3c-27.6,0-50.1-22.4-50.2-50
		C1017.2,443.8,1039.5,421.3,1067.3,421.3z M1113.6,471.5c0-25.6-20.6-46.2-46.2-46.3c-25.5-0.1-46.3,20.6-46.4,46.1
		c-0.1,25.5,20.8,46.5,46.4,46.5C1092.8,517.8,1113.5,497,1113.6,471.5z"/>
</g>
<g>
	<path class="st0" d="M850.7-369.6c-11.8-9.6-17.9-22.1-20.6-36.6c-0.2-1-1.1-2.3-2-2.7c-7.1-3-12.3-8.2-15.8-14.8
		c-2.7-5.1-5-10.6-6.5-16.2c-2.9-11.2,1.1-18.3,11.7-22.3c-1.7-8-4-15.9-5-24c-1.9-14.8-0.2-29.4,7.6-42.3
		c27.6-46,81.6-48.4,113.7-22.6c13.7,11,21.1,25.2,21,42.7c-0.1,14.1-1.3,28.1-2,42.2c-0.1,1.2,0,2.4,0,3.6
		c11.1,3.1,15.6,10.3,13.3,21.7c-2,9.7-6.1,18.4-13.1,25.6c-1.3,1.3-2.7,3-4.3,3.5c-6.2,1.9-7.4,6.8-8.7,12.2
		c-2.6,11.3-8.4,21-17.2,28.7c-0.9,0.8-1.3,2.8-1,4c0.8,3.2,1.9,6.5,3.4,9.5c0.6,1.3,2.1,2.6,3.5,3.1c0.7,0.3,2.3-1,3-1.9
		c14.7-19.1,33.9-30.8,57.8-34.8c45.4-7.5,90.1,21.9,101,66.5c12.7,52-20.7,102.3-73.7,110.8c-5.1,0.8-10.4,1-15.7,1
		c-78.7,0.1-157.4,0-236.1,0c-13.6,0-20.8-5.5-21.5-19.2c-0.9-18.8-0.7-37.7,0.1-56.5c0.7-15.2,9-26.9,20.8-36.1
		c13.5-10.5,29.3-16.3,45.4-21.4c10.3-3.2,20.8-6.1,31.2-9c2.3-0.7,3.9-1.7,4.8-4.1C847-362.5,848.9-365.9,850.7-369.6z
		 M835.2-342.4c-8.2,2.4-16.3,4.6-24.2,7.1c-13.8,4.4-27.4,9.4-39.1,18.2c-12.3,9.2-18.8,21.2-18.5,36.8c0.3,14.5,0,28.9,0.1,43.4
		c0,2.8,0.6,5.7,1.3,8.4c1,3.8,3.3,5.5,7.6,5.5c64.6-0.1,129.2-0.1,193.8-0.1c1.2,0,2.4,0,4.4,0c-33.6-20.7-49-50.1-46.9-88.7
		C882.7-294.3,845.7-308.7,835.2-342.4z M924-302.3c-0.2,43.2,35.4,79,78.6,79.1c44.1,0.2,79.9-35.4,79.9-79.4
		c0.1-43.2-35.6-79-78.7-79.2C959.6-381.8,924.1-346.6,924-302.3z M894.3-483c-0.3,0.4-0.7,0.8-1,1.2c2.4,2,5,3.8,7.1,6
		c3.1,3.3,1.8,7.9-2.4,8.7c-15,2.7-30.3-0.2-38.7-16.1c-2.3-4.3-3.8-8.9-5.5-13.4c-1.8-4.7-2.6-5.2-7.4-3c-6,2.8-8.6,8.2-10.5,13.9
		c-3.1,9.5-3.5,19.3-3.6,29.2c0,2.7-1.4,5.9-3.2,7.8c-2.3,2.3-5,0.3-7.3-1.5c-2.6-2.1-5.1-1.2-5.9,2c-0.4,1.6-0.5,3.5-0.1,5.2
		c1.6,7,4.3,13.6,9.2,19c2,2.2,4.6,4.4,7.4,5.3c7,2.3,7.1,2,7.9,9c4.3,35.3,44.2,53.1,73.2,32.5c11.8-8.4,16.6-20.7,18.2-34.6
		c0.5-4.5,1.7-5.6,6.1-6.6c2.2-0.5,4.6-1.5,6.3-2.9c7-6.2,10.4-14.4,12.1-23.4c0.2-1.2-0.1-2.5-0.5-3.7c-1.1-3.6-3.9-4.2-6.3-1.3
		c-1.8,2.1-3.6,3.4-6.4,2.5c-2.8-1-3.3-3.3-3.7-5.9c-1.4-9.1-2.7-18.2-4.6-27.2c-1.2-5.9-3.5-11.5-5.4-17.8
		C915.6-483.6,914.3-483.1,894.3-483z M943.5-488.4c0.2,0,0.4-0.1,0.6-0.1c0-7.6,0.3-15.2-0.1-22.8c-0.6-10.7-4.5-20.2-12.5-27.6
		c-19.7-18.1-42.8-23.2-67.5-13.8c-24.1,9.1-39.5,26.4-41.5,53.4c-0.4,5.3,0.2,10.7,0.3,16.1c0.3,0,0.7,0,1-0.1
		c1.5-3.9,2.7-7.9,4.5-11.7c3.2-6.9,8.1-12.3,15.5-14.9c10.2-3.6,15.5-1.2,19.3,8.8c1.1,2.9,2,5.9,3.3,8.7c1.4,2.9,2.8,5.9,4.8,8.4
		c3.1,4.1,7.5,6.2,13.1,6.7c-1.4-2.1-2.6-3.7-3.5-5.4c-3.6-6.6-0.4-11.9,7.1-11.6c4.5,0.2,8.9,0.7,13.4,0.8
		c7.5,0.3,13.3-2.8,17.3-9.1c1.7-2.6,3-5.4,4.6-8.1c2.2-3.7,6.5-4.2,8.9-0.7c2.8,4.2,5.4,8.6,7.7,13.1
		C941.4-495.1,942.3-491.7,943.5-488.4z M911.2-363.9c-8.5,3.7-17.1,5.1-25.9,5c-8.8,0-17.3-1.6-25.1-5.1c-5.4,6-4.7,16.1-14.4,18.7
		c0.5,1.7,0.9,3.3,1.5,4.9c3.6,8.4,9.3,14.9,17.1,19.7c18.5,11.3,52.4,7.4,58.9-24.3c-5.7-0.2-7.1-4.4-8.5-8.8
		C913.8-357,912.5-360.3,911.2-363.9z"/>
	<path class="st0" d="M1019.1-283.8c0,7.7,0,15.1,0,22.4c0,6-2.3,8.3-8.4,8.3c-6,0-12,0-18,0c-5.4,0-8-2.6-8-8.1
		c0-7.3,0-14.7,0-22.6c-2.4,0-4.8,0-7.1,0c-5.5,0-11,0.1-16.5,0c-4.3-0.1-7-2.7-7.1-7c-0.1-6.7-0.1-13.5,0-20.2
		c0.1-4.5,2.8-7.1,7.4-7.1c7.6-0.1,15.2,0,23.2,0c0-7,0-13.9,0-20.7c0-7.1,2.2-9.3,9.4-9.3c5.9,0,11.7-0.1,17.6,0
		c4.9,0.1,7.4,2.5,7.4,7.4c0.1,7.3,0,14.7,0,22.5c7,0,13.8,0,20.7,0c7.3,0,9.3,2,9.3,9.3c0,5.7,0,11.5,0,17.2c0,5.5-2.4,7.9-8.1,7.9
		C1033.8-283.7,1026.7-283.8,1019.1-283.8z M964.6-294.2c7.1,0,13.8,0,20.5,0c8.3,0,10,1.7,10,10.1c0,6.8,0,13.6,0,20.3
		c4.8,0,9.1,0,13.5,0c0-7.4,0-14.5,0-21.6c0-6.4,2.4-8.8,8.8-8.8c6.9,0,13.9,0,20.9,0c0-4.7,0-9,0-13.5c-6.8,0-13.4,0-20,0
		c-7.7,0-9.6-2-9.7-9.8c0-3.5,0-7,0-10.5c0-3.2,0-6.4,0-9.4c-4.8,0-9,0-13.5,0c0,5.3,0,10.4,0,15.5c0,14.1-0.1,14.3-14.1,14.3
		c-5.4,0-10.9,0-16.5,0C964.6-303.1,964.6-298.9,964.6-294.2z"/>
</g>
<g>
	<path class="st0" d="M877.3,874c2.5-11.6-0.5-22-7.6-31.4c-2.5-3.4-5.5-6.2-8.9-8.8c-0.5-0.4-0.6-0.7-0.3-1.3
		c0.4-0.9,0.7-1.8,1.1-2.7c1-2.4,1.3-4.9,0.9-7.5c-0.7-4.9-3.3-8.6-7.3-11.4c-8.1-5.6-16.1-11.3-24.2-16.9c-0.3-0.2-0.6-0.4-0.7-0.7
		c-1.2-3.4-2.2-7-3.1-10.5c0.3-0.7,0.8,0.1,1.2-0.3c3.8,0.4,7.5-0.2,11.1-1.4c3.6-1.2,6.3-3.4,8.1-6.7c2-3.6,2.9-7.5,3.3-11.6
		c0.5-4.6,0.4-9.2,0.1-13.7c0-0.4,0-0.8,0.3-1.2c1.3-1.7,1.5-3.5,0.7-5.4c-4.3-10.8-12.4-16.6-23.8-17.6c-8.1-0.7-15.3,1.9-21.2,7.5
		c-5.9,5.7-8.6,12.8-8.1,21c0,1.5,0,3,0,4.5c0,3.7,0,7.3,0,11c0.1,11.4-0.8,22.6-3.2,33.8c-0.1,0.4-0.4,0.8-0.2,1.3
		c-0.1,1.8-0.6,3.6-0.9,5.4c-0.6,3.3-1,6.6-1.5,9.9c-0.2,1.1,0.4,2,1.4,2.2c1,0.2,1.8-0.5,2-1.6c0.2-1.4,0.4-2.9,0.7-4.3
		c0.3-2.5,0.7-4.9,1-7.4c0.4-2,0.8-4,1.2-5.9c1.8-8.6,2.8-17.2,3-26c0.1-8.3,0.1-16.5,0.1-24.8c0-3.4,0.6-6.6,2.1-9.6
		c4.9-10.2,15.9-15.6,27-13.1c8.2,1.9,14.1,6.7,17.2,14.6c0.6,1.6,0.5,2.1-0.9,3.2c-0.6,0.5-1.2,0.9-1.9,1.3
		c-5.7,3.7-11.9,5.5-18.6,6.1c-4.2,0.4-6.6,3.3-6.4,7.5c0.3,4.8,0.7,9.7,1.5,14.4c1.5,8.9,3.8,17.5,7.6,25.8
		c4.7,10.3,7.8,21,8.9,32.2c0.5,5,0.6,9.9,0.5,14.9c0,1.3,0.6,2,1.7,2c1.1,0,1.7-0.7,1.7-2c0-5.6-0.1-11.3-0.7-16.9
		c-1-8.2-2.9-16.2-5.8-23.9c-1.1-2.8-2.3-5.5-3.4-8.3c0,0,0.1-0.1,0.1-0.1c7,4.9,14,9.7,21,14.7c3.2,2.3,4.9,5.4,5.2,9.4
		c0.1,2.4-0.7,4.6-1.6,6.8c-0.2,0.6-0.4,0.6-0.9,0.3c-2.1-1.4-4.3-2.6-6.6-3.6c-1.1-0.5-2.1-0.2-2.5,0.7c-0.4,0.9,0,1.9,1.1,2.4
		c3.9,1.9,7.6,4,10.9,6.8c7,5.7,12.1,12.6,14.2,21.4c2.6,11.2,0,21.1-8.1,29.3c-0.4,0.4-0.8,0.6-1.3,0.5c-6.3-0.2-12.4-1.5-18.2-3.9
		c-0.4-0.2-0.8-0.4-1.1-0.7c-8-9-16-18-24-27c-1-1.1-1.2-2.3-0.7-3.7c1.8-4.9,3.5-9.8,5.3-14.6c0.7-2,1.6-4,2.1-6.1
		c0.4-0.7,0.7-1.5,0.9-2.3c0.4-1,0.8-2,1.1-3c0.3-1-0.2-1.9-1-2.2c-0.8-0.3-1.8,0.1-2.2,1c-0.1,0.2-0.2,0.5-0.3,0.7
		c-3,8.4-6.1,16.9-9.1,25.3c-1,2.8-0.5,5.2,1.4,7.3c8.1,9,16.1,18.1,24.1,27.1c0.4,0.5,0.9,0.8,1.5,1.1c4.9,2.1,10,3.4,15.4,4
		c1,0.1,2.1,0,3.1,0.4c-2.3,2.6-5.1,4.1-8.4,4.6c-3.3,0.4-6.6,0.2-9.8,0.1c-1.6,0-3-0.7-4.2-1.6c-6.6-5.2-13.2-10.3-19.9-15.5
		c-6.7-5.2-13.3-10.4-20-15.6c-2.1-1.6-3.2-3.6-3-6.3c0.1-1.1,0.5-2.1,0.6-3.2c0.3-0.5,0.3-1,0.4-1.5c0-0.1,0.1-0.2,0.1-0.3
		c2.1-9.6,4.2-19.2,6.3-28.8c0.4-2,0.9-3.9,1.2-5.9c0.2-0.9-0.2-1.6-1.1-1.9c-0.8-0.3-1.5,0-2,0.7c-0.3,0.3-0.3,0.8-0.4,1.2
		c-2.8,12.8-5.6,25.6-8.4,38.3c-0.8,3.7,0.2,7,3,9.5c1.4,1.3,3,2.4,4.5,3.6c0.6,0.4,0.8,0.9,0.7,1.6c-0.2,9-1.4,18-3.3,26.8
		c-0.3,1.3,0.2,2.2,1.2,2.4c1,0.2,1.9-0.4,2.1-1.6c1.3-6.4,2.3-12.8,2.9-19.3c0.2-2.2,0.3-4.3,0.5-6.6c0.2,0.1,0.3,0.2,0.5,0.3
		c10.6,8.3,21.2,16.5,31.8,24.8c1.6,1.3,3.4,2.1,5.5,2.3c3.7,0.3,7.5,0.5,11.2-0.1c5.2-0.8,9.4-3.2,12-8c0.3-0.6,0.9-1.1,1.4-1.6
		C872.7,885.8,875.9,880.3,877.3,874z M824.4,761.2c-0.1-2,1-3.3,3-3.5c4.3-0.5,8.6-1.3,12.6-2.8c2.4-0.9,4.6-2,6.8-3.3
		c0.3-0.2,0.5-0.4,0.9-0.4c0,0.1,0.1,0.2,0.1,0.3c0.3,5.9,0.2,11.8-1.4,17.5c-1.7,6.3-6,9.4-12.3,10.2c-1.9,0.2-3.7,0.3-5.6,0.2
		c-0.3-0.1-0.6-0.3-1-0.1c0,0,0,0,0,0c-0.1,0-0.2,0-0.4,0c-0.2-0.3-0.6-0.2-0.8-0.5c-0.1-1.9-0.6-3.8-0.8-5.8
		C824.9,769.1,824.6,765.1,824.4,761.2z"/>
	<path class="st0" d="M815.8,817.5c0,1.1,0.8,1.8,1.7,1.8c1,0,1.7-0.8,1.7-1.9c0-2.7-0.4-5.4-1.1-8c-0.9-3.5-2.2-7-2.8-10.6
		c-0.3-1.6-0.3-3.2-0.4-4.9c-0.1-1-0.8-1.7-1.7-1.7c-0.9,0-1.6,0.7-1.7,1.7c0,0.4,0,0.8,0,1.2c0.1,3.6,0.9,7,2,10.4
		C814.7,809.5,815.8,813.4,815.8,817.5z"/>
</g>
</svg>
